<?xml version="1.0" encoding="UTF-8" standalone="no"?>
<svg
   xmlns:dc="http://purl.org/dc/elements/1.1/"
   xmlns:cc="http://creativecommons.org/ns#"
   xmlns:rdf="http://www.w3.org/1999/02/22-rdf-syntax-ns#"
   xmlns:svg="http://www.w3.org/2000/svg"
   xmlns="http://www.w3.org/2000/svg"
   viewBox="0 0 2666.6667 2666.6667"
   height="2666.6667"
   width="2666.6667"
   xml:space="preserve"
   id="svg2"
   version="1.1"><metadata
     id="metadata8"><rdf:RDF><cc:Work
         rdf:about=""><dc:format>image/svg+xml</dc:format><dc:type
           rdf:resource="http://purl.org/dc/dcmitype/StillImage" /></cc:Work></rdf:RDF></metadata><defs
     id="defs6" /><g
     transform="matrix(1.3333333,0,0,-1.3333333,0,2666.6667)"
     id="g10"><g
       transform="scale(0.1)"
       id="g12"><g
         transform="scale(1.22699)"
         id="g14"><path
           id="path16"
           style="fill:none;fill-opacity:1;fill-rule:nonzero;stroke:none"
           d="M 16300,0 H 0 V 16300 H 16300 V 0" /></g><path
         id="path18"
         style="fill:#7e7f81;fill-opacity:1;fill-rule:nonzero;stroke:none"
         d="m 2560.74,7583.8 c 0,0 -230.14,-163.6 -314.93,-239.9 -84.79,-76.4 -593.52,-718.4 -605.63,-778.9 -12.11,-60.6 -24.23,-462.9 0,-528.2 24.22,-65.3 361.5,-31.7 453.29,0 91.78,31.6 334.03,152.7 358.25,189 24.23,36.4 617.75,840 617.75,840 v 278.1 h -460.28 l -48.45,239.9" /><path
         id="path20"
         style="fill:#606163;fill-opacity:1;fill-rule:nonzero;stroke:none"
         d="m 1921.46,6006.2 c 71.95,7.2 138.42,19 172.01,30.6 91.78,31.6 334.03,152.7 358.25,189 24.23,36.4 617.75,840 617.75,840 -570.46,-254.4 -943.65,-738 -1148.01,-1059.6" /><path
         id="path22"
         style="fill:#373737;fill-opacity:1;fill-rule:nonzero;stroke:none"
         d="m 2347.83,7182.7 212.91,401.1 c 0,0 60.56,81.2 254.37,124.7 L 9655.73,7343.9 8956.9,6777 3069.47,7065.8 2347.83,7182.7" /><path
         id="path24"
         style="fill:#100f0d;fill-opacity:1;fill-rule:nonzero;stroke:none"
         d="m 2536.51,7273.6 45.43,136.2 6710.41,-360.7 -335.45,193.3 -6396.16,341.4 -24.23,-310.2" /><g
         transform="scale(1.10902)"
         id="g26"><path
           id="path28"
           style="fill:#252323;fill-opacity:1;fill-rule:nonzero;stroke:none"
           d="m 16300,5836.21 v 137.96 l -664.6,245.8 -154.6,-431.46 736.2,-336.24 83,383.94" /></g><g
         transform="scale(1.08524)"
         id="g30"><path
           id="path32"
           style="fill:#abaaa9;fill-opacity:1;fill-rule:nonzero;stroke:none"
           d="m 9216.5,7050.15 c 0,0 -828.33,-96.75 -901.61,-130.2 -73.29,-33.54 -106.77,-770.15 -50.97,-826 55.82,-55.74 506.38,-143.74 1238.41,-127.52 732.07,16.22 3849.27,0 3849.27,0 l 2468.5,-51.05 c 0,0 479.9,524.59 468.8,971.03 -11.2,446.45 -1624,2494.74 -1850,2572.79 -226,78.04 -460.4,27.95 -460.4,27.95 l -72.5,-50.36 c 0,0 100.4,-223.24 -78.2,-407.35 l -234.4,-55.84 c 0,0 -117.2,-256.72 -122.7,-569.18 0,0 -307,-33.55 -524.6,-195.35 -217.7,-161.9 -407.4,-686.39 -496.7,-775.69 -89.3,-89.38 -323.7,-223.27 -898.5,-279.1 -574.8,-55.75 -2334.4,-104.13 -2334.4,-104.13" /></g><g
         transform="scale(1.08524)"
         id="g34"><path
           id="path36"
           style="fill:#969797;fill-opacity:1;fill-rule:nonzero;stroke:none"
           d="m 12003,6883.09 c 0,0 618.8,126.15 765.6,234.97 146.8,108.83 213.8,485.52 406.3,669.62 192.5,184.21 1272.3,502.29 1590.5,519.06 318.1,16.68 1063.1,-1165.46 1104.9,-1478.38 33.8,-252.76 -265.4,-721.69 -381.7,-906.07 l 331.5,-6.91 c 0,0 479.9,524.59 468.8,971.03 -11.2,446.45 -1624,2494.74 -1850,2572.79 -226,78.04 -460.4,27.95 -460.4,27.95 l -72.5,-50.36 c 0,0 100.4,-223.24 -78.2,-407.35 l -234.4,-55.84 c 0,0 -117.2,-256.72 -122.7,-569.18 0,0 -307,-33.55 -524.6,-195.35 -217.7,-161.9 -407.4,-686.39 -496.7,-775.69 -84.5,-84.49 -298.9,-208.8 -808.2,-269.24 228.2,-163.29 361.8,-281.05 361.8,-281.05" /></g><g
         transform="scale(1.01107)"
         id="g38"><path
           id="path40"
           style="fill:#d4d4d2;fill-opacity:1;fill-rule:nonzero;stroke:none"
           d="m 12012,7263.51 c 1491.5,170.02 1314.2,248.15 1573.5,721.22 259.4,473.16 486,720.13 745.6,857.21 259.5,137.08 1395.9,516.29 1968.9,439.04 v 0 c -368.7,465.75 -704.7,838.62 -801.8,872.12 -242.6,83.8 -494.3,30 -494.3,30 l -77.8,-54 c 0,0 107.8,-239.65 -83.9,-437.26 l -251.6,-59.94 c 0,0 -125.8,-275.55 -131.7,-610.94 0,0 -329.5,-36 -563.1,-209.68 -233.6,-173.78 -437.3,-736.74 -533.1,-832.59 -95.8,-95.93 -347.4,-239.64 -964.4,-299.58 -617,-59.84 -2505.69,-111.76 -2505.69,-111.76 0,0 -889.09,-103.85 -967.75,-139.76 -28.41,-13.05 -51.25,-124.52 -66,-264.47 550.73,-17.01 1938.24,-38.18 3153.14,100.39" /></g><path
         id="path42"
         style="fill:#100f0d;fill-opacity:1;fill-rule:nonzero;stroke:none"
         d="m 10912.4,6468.1 c 18.2,-18.2 205.9,-181.7 205.9,-181.7 l 193.8,181.7 -136.2,195.5 -263.5,-195.5" /><path
         id="path44"
         style="fill:#100f0d;fill-opacity:1;fill-rule:nonzero;stroke:none"
         d="m 10076.6,6147.1 c 0,0 121.2,-236.2 218.1,-230.1 96.9,6 714.6,484.5 1065.9,787.3 351.2,302.8 526.9,545 508.7,605.6 -18.2,60.6 -357.3,115.1 -405.8,96.9 -48.4,-18.2 -969,-678.3 -969,-678.3 l -417.9,-581.4" /><path
         id="path46"
         style="fill:#100f0d;fill-opacity:1;fill-rule:nonzero;stroke:none"
         d="m 6803.2,8024.6 c 0,0 -172.61,-118.1 -218.03,-172.6 -45.42,-54.6 -50.37,-268.2 -50.37,-268.2 0,0 23.12,-177 777.13,-222.4 754.01,-45.4 894.35,7.1 987.7,49 93.35,41.8 193.28,487 166.03,550.6 -27.26,63.6 -345.21,127.1 -699.51,109 -354.29,-18.2 -962.95,-45.4 -962.95,-45.4" /><path
         id="path48"
         style="fill:#252323;fill-opacity:1;fill-rule:nonzero;stroke:none"
         d="m 9837.42,6879.9 c 0,0 -75.71,0 -93.88,-42.4 -18.16,-42.4 66.63,-218 93.88,-345.2 27.25,-127.2 84.07,-423.9 164.68,-454.2 80.6,-30.3 740.7,466.3 880,569.3 139.3,102.9 605.7,454.2 763.1,684.3 157.5,230.2 84.8,466.4 30.3,508.8 -54.5,42.4 -290.7,-142.7 -593.5,-216.7 -302.8,-74 -539,47.1 -699.5,86.5 -160.5,39.3 -251.3,33.3 -269.5,-45.5 -18.2,-78.7 -275.58,-744.9 -275.58,-744.9" /><path
         id="path50"
         style="fill:#c37140;fill-opacity:1;fill-rule:nonzero;stroke:none"
         d="m 8919.88,8278.9 c 0,0 426.98,308.9 645,835.8 0,0 45.42,-436.1 136.27,-735.8 90.84,-299.8 136.27,-1499 136.27,-1499 0,0 293.28,163.5 319.28,245.3 25.9,81.8 25.9,236.2 62.3,318 36.3,81.7 163.5,227.1 163.5,227.1 0,0 245.3,1244.5 299.8,1871.4 54.5,626.8 0,966 0,966 l -599.1,246 -409.3,-246 -526.9,-211.9 -475.43,-863.1 c 0,0 -291.71,45.4 -62.58,-227.2 229.13,-272.5 310.89,-926.6 310.89,-926.6" /><path
         id="path52"
         style="fill:#ffffff;fill-opacity:1;fill-rule:nonzero;stroke:none"
         d="m 9824.5,7159.6 c 8.61,-166 12.92,-279.7 12.92,-279.7 0,0 293.28,163.5 319.28,245.3 10.5,33.3 16.8,78.8 23,126.4 -81.5,-36.5 -200.58,-76.1 -355.2,-92" /><path
         id="path54"
         style="fill:#a45634;fill-opacity:1;fill-rule:nonzero;stroke:none"
         d="m 9737.49,10372.9 c 24.22,-10.6 690.41,-34.8 690.41,-34.8 l 274.6,-72.6 c -6.9,159.3 -20.2,242.2 -20.2,242.2 l -599.1,246 -409.3,-246 -526.9,-211.9 c 0,0 566.26,87.7 590.49,77.1" /><path
         id="path56"
         style="fill:#a45634;fill-opacity:1;fill-rule:nonzero;stroke:none"
         d="m 9564.88,9114.7 c 0,0 14.84,-142.4 44.5,-320.4 2.86,14.6 4.46,22.5 4.46,22.5 0,0 23.72,541.5 241.75,824 0,0 -163.53,-53.7 -290.71,-526.1" /><path
         id="path58"
         style="fill:#252323;fill-opacity:1;fill-rule:nonzero;stroke:none"
         d="m 6639.68,8215.3 c 0,0 -28.22,-563.2 817.12,-626.8 845.34,-63.6 1835.55,536 1835.55,536 0,0 -181.69,717.7 -199.86,1153.7 -18.17,436.1 54.51,1017.6 54.51,1017.6 0,0 -545.08,-372.6 -645,-345.3 -99.93,27.2 -799.44,63 -972.04,-82.1 -172.61,-145 -354.3,-181.4 -454.23,-417.6 -99.93,-236.2 -436.05,-1235.5 -436.05,-1235.5" /><path
         id="path60"
         style="fill:#a45634;fill-opacity:1;fill-rule:nonzero;stroke:none"
         d="m 13026.1,10162.4 c 0,0 80.7,-181.6 153.4,-250.3 72.7,-68.6 109.1,-72.7 121.2,-117.1 12,-44.4 169.5,-165.5 246.2,-153.4 76.7,12.1 133.3,193.8 141.3,205.9 8.1,12.1 121.2,155.2 -32.3,263.3 -153.4,108.2 -210.3,188.9 -339.3,184.9 -129,-4.1 -290.5,-133.3 -290.5,-133.3" /><path
         id="path62"
         style="fill:#ac5b36;fill-opacity:1;fill-rule:nonzero;stroke:none"
         d="m 9337.77,11628.1 c 0,0 769.13,-187.8 890.23,-230.2 121.2,-42.4 302.9,-139.3 369.5,-145.3 66.6,-6.1 484.5,-27.2 696.5,-86.3 211.9,-59.1 631,-323.1 631,-323.1 0,0 -394.8,-329.5 -879.3,-299.2 -484.6,30.3 -1477.79,351.3 -1556.53,454.2 -78.73,103 -151.4,629.9 -151.4,629.9" /><path
         id="path64"
         style="fill:#e9eef1;fill-opacity:1;fill-rule:nonzero;stroke:none"
         d="m 8055.84,12245.8 c 0,0 -435.04,-160.5 -598.56,-296.7 -163.52,-136.3 -581.41,-745 -799.43,-1371.8 -218.04,-626.8 -81.77,-2134.9 -72.68,-2216.6 9.08,-81.8 54.51,-145.4 54.51,-145.4 0,0 345.21,399.7 472.39,536 127.18,136.3 526.9,536 790.35,772.2 263.45,236.2 599.58,427 599.58,427 l 169.57,280.1 c 0,0 305.85,210.4 490.56,601.1 184.73,390.6 -94.39,1540.5 -214.75,1517.7 -120.36,-22.8 -493.94,181.1 -493.94,181.1 l -397.6,-284.7" /><path
         id="path66"
         style="fill:#c37140;fill-opacity:1;fill-rule:nonzero;stroke:none"
         d="m 8374.81,12161.6 c -33.97,-7.9 -463.31,-21.8 -726.76,-439.7 -263.45,-417.8 -263.45,-972 54.51,-1190 317.96,-218 1017.46,227.1 1017.46,227.1 0,0 193.98,-118.1 655.69,-227.1 461.71,-109 1106.69,-60.1 1106.69,-60.1 0,0 278.6,-157.9 932.7,-206.4 654.1,-48.5 1392.9,-103 1392.9,-103 l 48.5,345.3 c 0,0 -121.1,24.2 -272.5,90.8 -151.5,66.6 -1284,484.5 -1556.5,508.7 -272.5,24.3 -363.4,24.3 -593.5,84.8 -230.2,60.6 -793.41,278.6 -835.81,308.9 -42.39,30.3 -222.06,438.1 -549.11,490.5 l -327.04,52.5 c 0,0 -143.29,165.1 -347.23,117.7" /><path
         id="path68"
         style="fill:#c37140;fill-opacity:1;fill-rule:nonzero;stroke:none"
         d="m 8344.53,12606.2 -288.69,-360.4 c 0,0 84.79,-28.2 169.58,-28.2 84.79,0 278.59,17.2 375.5,-56 96.9,-73.2 121.12,-117.7 121.12,-117.7 l 327.04,-52.5 113.05,72.7 c 0,0 -92.86,730.8 -246.29,799.5 -153.42,68.6 -249.24,155.3 -351.26,125.1 -102.02,-30.1 -121.13,-36.3 -157.47,-76.7 -36.33,-40.4 -62.58,-305.8 -62.58,-305.8" /><path
         id="path70"
         style="fill:#a45634;fill-opacity:1;fill-rule:nonzero;stroke:none"
         d="m 8271.86,11918.8 c 0,0 173.61,74.7 450.18,125.1 0,0 -46.24,58.2 -113.05,85.3 0,0 -288.68,-43.9 -337.13,-210.4" /><path
         id="path72"
         style="fill:#a45634;fill-opacity:1;fill-rule:nonzero;stroke:none"
         d="m 8720.02,10759 c 0,0 8.08,33.3 -223.07,21.2 -231.15,-12.1 -617.75,-165.5 -617.75,-165.5 h 297.77 l -43.04,-114.6 c 0,0 252.99,39.8 586.09,258.9" /><path
         id="path74"
         style="fill:#100f0d;fill-opacity:1;fill-rule:nonzero;stroke:none"
         d="m 15120.7,9972.8 -1263.7,64.6 1.6,32.1 1263.8,-64.6 -1.7,-32.1" /><path
         id="path76"
         style="fill:#100f0d;fill-opacity:1;fill-rule:nonzero;stroke:none"
         d="m 10851.9,7643 c 0,0 -258.4,1 -271.5,-32.8 -13.2,-33.8 47.4,-298 101.9,-544.4 54.5,-246.5 37.3,-501.6 109.5,-525.4 72.2,-23.9 320.5,151.8 356.8,194.2 36.4,42.4 36.4,369.4 0,581.4 -36.3,211.9 -90.8,308.8 -115.1,327 -24.2,18.2 -181.6,0 -181.6,0" /><g
         transform="scale(1.00201)"
         id="g78"><path
           id="path80"
           style="fill:#ececec;fill-opacity:1;fill-rule:nonzero;stroke:none"
           d="m 14903.8,6866.09 c 380.8,308.27 1287.4,852.58 1341.8,924.93 54.4,72.36 -235.7,407.78 -235.7,407.78 0,0 -1641.6,-645.1 -2180.7,-961.76 -247.3,-145.11 -415.4,-463.97 -537.3,-770.25 664.4,-2.2 1168.7,-4.79 1168.7,-4.79 l 121.8,-2.5 c 57.6,124.55 151.6,269.16 321.4,406.59" /></g><path
         id="path82"
         style="fill:#252323;fill-opacity:1;fill-rule:nonzero;stroke:none"
         d="m 14913.4,9776.9 c 0,0 99.1,-8.1 111.3,-69.7 12.1,-61.6 48.4,-142.3 80.7,-166.5 32.3,-24.3 105,4 121.1,0 14.4,-3.6 51.4,632.7 59.1,769.6 -70.4,-4.9 -115.6,-14.5 -115.6,-14.5 l -78.7,-54.6 c 0,0 109,-242.3 -84.8,-442.1 l -93.1,-22.2" /><g
         transform="scale(1.01107)"
         id="g84"><path
           id="path86"
           style="fill:#7e7f81;fill-opacity:1;fill-rule:nonzero;stroke:none"
           d="m 15498.2,10153.1 c -11.8,4.1 -23.6,7.7 -35.4,11.2 l -75.5,-819.92 -747.4,-227.78 -12.6,-151.82 c 451.2,163.1 1230.1,375.94 1672.7,316.2 v 0 c -368.7,465.75 -704.7,838.62 -801.8,872.12" /></g><g
         transform="scale(1.12723)"
         id="g88"><path
           id="path90"
           style="fill:#494a4b;fill-opacity:1;fill-rule:nonzero;stroke:none"
           d="m 16300,5614.49 c 0,-145.4 -117.9,-263.31 -263.2,-263.31 -145.4,0 -263.3,117.91 -263.3,263.31 0,145.4 117.9,263.21 263.3,263.21 145.3,0 263.2,-117.81 263.2,-263.21" /></g><path
         id="path92"
         style="fill:#797a7b;fill-opacity:1;fill-rule:nonzero;stroke:none"
         d="m 3069.47,7343.9 5868.58,-346.9 5.25,70.9 -6361.36,341.9 27.25,-65.9 h 460.28" /><path
         id="path94"
         style="fill:#c37140;fill-opacity:1;fill-rule:nonzero;stroke:none"
         d="m 12808,10162.4 c 0,0 234.2,-104.9 310.9,-121.1 76.7,-16.1 355.3,-8.1 419.9,-24.2 64.6,-16.2 101,-96.9 105,-145.4 4.1,-48.4 -76.7,-121.1 -60.5,-149.4 16.1,-28.2 157.4,24.3 177.6,24.3 20.2,0 121.1,60.5 149.4,84.8 28.3,24.2 64.6,68.3 68.6,106.8 4.1,38.5 -246.3,397.9 -274.5,426.1 -28.3,28.3 -407.8,36.4 -528.9,80.8 -121.2,44.4 -319,62.6 -319,62.6 0,0 -234.2,-58.6 -234.2,-99 0,-40.3 185.7,-246.3 185.7,-246.3" /><path
         id="path96"
         style="fill:#252323;fill-opacity:1;fill-rule:nonzero;stroke:none"
         d="m 13639,9868.4 c 0,-89 -72.2,-161.2 -161.2,-161.2 -89,0 -161.2,72.2 -161.2,161.2 0,89 72.2,161.2 161.2,161.2 89,0 161.2,-72.2 161.2,-161.2" /><path
         id="path98"
         style="fill:#a45634;fill-opacity:1;fill-rule:nonzero;stroke:none"
         d="m 8813.31,12821.6 c 0,0 -42.14,-148.1 -43,-268.9 -0.85,-120.8 198.2,-372.3 198.2,-372.3 l 193.62,-116.3 367.44,261.5 -716.26,496" /><path
         id="path100"
         style="fill:#2f1d16;fill-opacity:1;fill-rule:nonzero;stroke:none"
         d="m 9639.57,13628.8 c 103.24,183.1 -36.24,298.8 -96.45,342.1 -60.21,43.3 -67.39,101.2 -270.36,177.8 -202.97,76.6 -281.67,-2.7 -351.09,5.3 -69.4,8 -228.41,-31 -356.77,-61.2 -128.36,-30.3 -180.28,-131 -223.52,-159.6 0,0 -264.08,-38.4 -285.34,-445.2 -21.26,-406.8 241.14,-924.9 246.58,-934.1 0,0 441.82,318.1 521.47,389.9 129.97,-20 336.58,-49.6 344.2,-36.2 11.15,19.7 396,635 396,635 l 67.3,68.2 c 0,0 6.72,4.4 16.39,12.9 l -8.41,5.1" /><path
         id="path102"
         style="fill:#c37140;fill-opacity:1;fill-rule:nonzero;stroke:none"
         d="m 9639.57,13628.8 c 0,0 73.13,-256 80.56,-314.5 7.43,-58.6 -41.49,-230.4 -40.62,-258.3 0.88,-28 132.69,-329.3 126.79,-346.6 -5.9,-17.3 -122.15,-24.3 -127.18,-33.7 -5.02,-9.4 -26.58,-114.5 -24.8,-125.1 1.76,-10.7 -3.61,-32.5 -3.61,-32.5 0,0 3.97,-45.2 -7.37,-66.4 -11.34,-21.1 -18.55,-59.1 -23.13,-73.6 -4.59,-14.4 -19.49,-175.5 -41.78,-196.9 -22.28,-21.4 -437.97,26.3 -489.55,46 -51.57,19.6 -248.45,300.7 -269.65,360.8 -21.2,60.1 -5.92,233.6 -5.92,233.6 0,0 -138.77,41.3 -181.18,161.5 -42.41,120.2 -4.19,321 115.34,339.6 119.53,18.6 157.57,-141 166.76,-183.8 9.18,-42.8 24.93,-98.3 30.38,-102.9 5.47,-4.6 40.1,94.2 70.9,156.4 30.8,62.3 30.24,252.5 55.79,321.3 25.56,68.8 126.51,135.3 171.53,146.2 45.01,10.9 396.74,-31.1 396.74,-31.1" /><path
         id="path104"
         style="fill:#2f1d16;fill-opacity:1;fill-rule:nonzero;stroke:none"
         d="m 8944.61,13036 c 0,0 40.16,3.1 45.03,24.4 4.88,21.4 52.83,181 52.83,181 0,0 57.84,42.2 52.95,121.9 -4.91,79.7 -11.25,94.5 31.65,128.1 42.89,33.5 35.94,135.3 75.85,151.9 39.91,16.6 272.81,7.4 272.81,7.4 0,0 126.45,124.1 -45.52,145.1 -171.98,21 -353.61,10.1 -443.91,-56.7 -90.3,-66.8 -117.33,25 -101.11,-127.5 16.21,-152.6 59.42,-575.6 59.42,-575.6" /><path
         id="path106"
         style="fill:#2f1d16;fill-opacity:1;fill-rule:nonzero;stroke:none"
         d="m 8200.31,13857.2 c 0,0 54.98,66 87.57,88.1 32.58,22.1 67.45,82.6 102.14,99.8 34.71,17.2 81.4,33.7 88.87,38 7.48,4.4 78.59,67.6 143.88,73.3 65.3,5.8 106.35,8.1 123.27,9.5 16.92,1.4 111.01,46.4 183.08,44.5 72.06,-1.8 74.18,-6.8 107.88,-6.4 33.7,0.4 130.59,11.4 260.32,-32.3 129.73,-43.7 245.8,-200.8 245.8,-200.8 l -430.59,-197.2 -557.82,-116.1 -354.4,199.6" /></g></g></svg>