<?xml version="1.0" encoding="UTF-8" standalone="no"?>
<svg
   xmlns:dc="http://purl.org/dc/elements/1.1/"
   xmlns:cc="http://creativecommons.org/ns#"
   xmlns:rdf="http://www.w3.org/1999/02/22-rdf-syntax-ns#"
   xmlns:svg="http://www.w3.org/2000/svg"
   xmlns="http://www.w3.org/2000/svg"
   viewBox="0 0 2666.6667 2666.6667"
   height="2666.6667"
   width="2666.6667"
   xml:space="preserve"
   id="svg2"
   version="1.1"><metadata
     id="metadata8"><rdf:RDF><cc:Work
         rdf:about=""><dc:format>image/svg+xml</dc:format><dc:type
           rdf:resource="http://purl.org/dc/dcmitype/StillImage" /></cc:Work></rdf:RDF></metadata><defs
     id="defs6"><clipPath
       id="clipPath114"
       clipPathUnits="userSpaceOnUse"><path
         id="path112"
         d="m 7784.59,13020.5 c 256.59,230.3 388.17,631.6 388.17,631.6 -32.89,-463.9 -388.17,-631.6 -388.17,-631.6" /></clipPath></defs><g
     transform="matrix(1.3333333,0,0,-1.3333333,0,2666.6667)"
     id="g10"><g
       transform="scale(0.1)"
       id="g12"><g
         transform="scale(1.22699)"
         id="g14"><path
           id="path16"
           style="fill:#ffffff;fill-opacity:1;fill-rule:nonzero;stroke:none"
           d="M 16300,0 H 0 V 16300 H 16300 V 0" /></g><path
         id="path18"
         style="fill:#c1bfbd;fill-opacity:1;fill-rule:nonzero;stroke:none"
         d="m 5712.89,14022.7 106.73,-1166.6 140.26,48.5 -84.54,1213.2 -162.45,-95.1" /><path
         id="path20"
         style="fill:#c1bfbd;fill-opacity:1;fill-rule:nonzero;stroke:none"
         d="m 5807.58,14017.3 115.13,-39.5 h 203.96 l -128.3,496.7 -118.42,3.3 -128.36,-194.6 55.99,-265.9" /><g
         transform="scale(1.02486)"
         id="g22"><path
           id="path24"
           style="fill:#252323;fill-opacity:1;fill-rule:nonzero;stroke:none"
           d="m 6336.29,14545.8 c -14.84,0 -29.09,8.3 -35.92,22.6 l -799.02,1669.1 c -9.49,19.8 -1.12,43.5 18.7,53 19.82,9.5 43.59,1.1 53.07,-18.7 l 799.03,-1669.1 c 9.49,-19.8 1.11,-43.5 -18.71,-53 -5.54,-2.7 -11.4,-3.9 -17.15,-3.9" /></g><path
         id="path26"
         style="fill:#c1bfbd;fill-opacity:1;fill-rule:nonzero;stroke:none"
         d="m 7337.22,14742.8 h -697.39 v 122.1 h 697.39 v -122.1" /><path
         id="path28"
         style="fill:#c1bfbd;fill-opacity:1;fill-rule:nonzero;stroke:none"
         d="m 6534.38,14742.8 h -536.01 v 106.7 h 536.01 v -106.7" /><path
         id="path30"
         style="fill:#797a7b;fill-opacity:1;fill-rule:nonzero;stroke:none"
         d="m 5470.44,15335.4 h -187.5 V 4800 h 187.5 v 10535.4" /><path
         id="path32"
         style="fill:#c1bfbd;fill-opacity:1;fill-rule:nonzero;stroke:none"
         d="m 6047.71,12935 -572.73,-198.1 -4.54,-590.3 577.27,255.5 v 532.9" /><path
         id="path34"
         style="fill:#c1bfbd;fill-opacity:1;fill-rule:nonzero;stroke:none"
         d="m 7462.22,12439.4 h -1256.6 v 495.6 h 1256.6 v -495.6" /><path
         id="path36"
         style="fill:#c1bfbd;fill-opacity:1;fill-rule:nonzero;stroke:none"
         d="m 6205.62,9632.3 1256.6,-26.3 v -388.2 h -1256.6 v 414.5" /><path
         id="path38"
         style="fill:#252323;fill-opacity:1;fill-rule:nonzero;stroke:none"
         d="m 6493.79,14742.8 h -97.38 V 8786.9 h 97.38 v 5955.9" /><path
         id="path40"
         style="fill:#c1bfbd;fill-opacity:1;fill-rule:nonzero;stroke:none"
         d="m 7258.27,15335.4 h -157.9 V 8553.3 h 157.9 v 6782.1" /><path
         id="path42"
         style="fill:#c1bfbd;fill-opacity:1;fill-rule:nonzero;stroke:none"
         d="M 6047.71,13997.5 V 8553.3 h 157.91 v 5444.2 h -157.91" /><path
         id="path44"
         style="fill:#969797;fill-opacity:1;fill-rule:nonzero;stroke:none"
         d="m 5159.54,6359 c 25.31,-6.7 171.06,-220.2 171.06,-220.2 l 118.42,-39.5 v -388.1 l -348.69,-1618.5 980.28,579 c 0,0 1717.14,-98.7 1736.88,-85.5 19.73,13.1 440.8,355.2 440.8,355.2 l -2217.15,111.9 -592.12,-309.2 417.97,1845.3 -273.23,-69 -46.05,-381.6 -189.81,273.5 -198.36,-53.3" /><path
         id="path46"
         style="fill:#797a7b;fill-opacity:1;fill-rule:nonzero;stroke:none"
         d="m 7258.27,5494.1 h -125.01 v -644.8 h 125.01 v 644.8" /><path
         id="path48"
         style="fill:#494a4b;fill-opacity:1;fill-rule:nonzero;stroke:none"
         d="m 6416.14,5257.2 h 822.39 l 223.69,118.4 v 3235 L 6416.14,8763.9 5988.51,8652 5692.45,8234.2 6014.82,6816.5 6416.14,5257.2" /><path
         id="path50"
         style="fill:#797a7b;fill-opacity:1;fill-rule:nonzero;stroke:none"
         d="m 6159.56,6816.5 c 13.16,-52.7 39.47,-1730.3 39.47,-1730.3 l -19.73,-105.3 -211.22,34.2 c 0,0 -98.2,1892.3 -58.48,1891.2 39.72,-1 249.96,-89.8 249.96,-89.8" /><path
         id="path52"
         style="fill:#c1bfbd;fill-opacity:1;fill-rule:nonzero;stroke:none"
         d="m 5692.45,6359 26.31,-1305.7 h 322.38 l -26.32,1763.2 c 0,0 -206.01,-72.4 -228.01,-118.5 -22,-46 -94.36,-339 -94.36,-339" /><g
         transform="scale(1.07246)"
         id="g54"><path
           id="path56"
           style="fill:#c1bfbd;fill-opacity:1;fill-rule:nonzero;stroke:none"
           d="m 5786.33,13051.8 -475.61,2926.1 c 0,0 -58.1,273 -143.99,297.6 -85.88,24.5 -392.61,-49.1 -429.42,-141.1 -36.8,-92.1 489.64,-2970.5 489.64,-2970.5 l -11.14,-1519.5 128.83,0.7 25.32,1624.4 -345.55,2404.8 76.41,18.4 538.27,-2640.9 h 147.24" /></g><path
         id="path58"
         style="fill:#969797;fill-opacity:1;fill-rule:nonzero;stroke:none"
         d="m 5021.38,6421.7 177.64,-282.9 v -671 l -88.82,-352 -616.84,-292.8 606.97,-92.1 c 0,0 303.88,772.3 310.66,803.7 6.77,31.5 -27.76,676.6 -27.76,676.6 l -256.58,256.6 -105.27,-46.1" /><path
         id="path60"
         style="fill:#969797;fill-opacity:1;fill-rule:nonzero;stroke:none"
         d="m 5110.2,5115.8 c 69.08,-9.9 930.94,-62.5 930.94,-62.5 0,0 28.24,-154.8 -72.37,-190.8 -100.61,-36 -585.54,-177.7 -585.54,-177.7 l -129.42,120.3 -143.61,310.7" /><path
         id="path62"
         style="fill:#797a7b;fill-opacity:1;fill-rule:nonzero;stroke:none"
         d="M 5330.6,6138.8 4870.06,4092.7 h 230.27 l 348.69,1618.5 v 388.1 l -118.42,39.5" /><path
         id="path64"
         style="fill:#797a7b;fill-opacity:1;fill-rule:nonzero;stroke:none"
         d="m 7649.72,15335.4 h -187.5 V 4800 h 187.5 v 10535.4" /><path
         id="path66"
         style="fill:#fbc398;fill-opacity:1;fill-rule:nonzero;stroke:none"
         d="m 4097.02,6359 c 0,-29.4 -36.19,-391.2 69.09,-805.7 105.26,-414.5 92.1,-717.1 59.2,-822.4 -32.89,-105.3 -55.29,-177.6 -55.29,-177.6 0,0 -22.51,-13.2 -79.01,-46.1 -56.49,-32.9 -97,-59.2 -57.01,-111.8 40,-52.7 118.94,-85.6 178.15,-190.8 59.22,-105.3 328.96,-46.1 401.33,0 72.37,46 13.16,276.3 32.89,355.2 19.74,79 -50.66,500.1 4.28,625.1 54.94,125 311.52,848.2 318.1,1174.1 6.58,325.9 -871.73,0 -871.73,0" /><path
         id="path68"
         style="fill:#eaad81;fill-opacity:1;fill-rule:nonzero;stroke:none"
         d="m 4626.64,5711.2 c 0,0 -289.48,230.2 -59.22,578.9 0,0 -49.48,-279.4 59.22,-578.9" /><path
         id="path70"
         style="fill:#dc9b70;fill-opacity:1;fill-rule:nonzero;stroke:none"
         d="m 4170.02,4553.3 c 0,0 61.87,-118.5 94.77,-171.1 32.9,-52.6 65.79,-85.5 72.37,-65.8 6.58,19.8 -139.78,324.9 -139.78,324.9 l -27.36,-88" /><path
         id="path72"
         style="fill:#494a4b;fill-opacity:1;fill-rule:nonzero;stroke:none"
         d="M 2376.6,5829.6 1968.69,2540.1 h 315.8 l 500.01,3460.6 -407.9,-171.1" /><path
         id="path74"
         style="fill:#636567;fill-opacity:1;fill-rule:nonzero;stroke:none"
         d="m 2995.03,6056.6 -473.7,-3371.8 -236.84,-144.7 500.01,3460.6 210.53,55.9" /><path
         id="path76"
         style="fill:#797a7b;fill-opacity:1;fill-rule:nonzero;stroke:none"
         d="m 1215.39,6181.6 c 0,0 -49.35,-52.7 -78.95,-125 -29.6,-72.4 -29.6,-319.1 39.47,-358.6 69.09,-39.5 1634.91,-111.8 1753.33,-105.2 118.42,6.5 4021.12,1375 4021.12,1375 L 4593.74,7125.7 1215.39,6181.6" /><path
         id="path78"
         style="fill:#fbc398;fill-opacity:1;fill-rule:nonzero;stroke:none"
         d="m 6416.14,7145.4 c 39.48,-46 105.27,-328.9 105.27,-328.9 0,0 -309.22,-197.4 -381.59,-546.1 -72.37,-348.7 39.48,-611.9 0,-881.6 -39.47,-269.7 -125,-756.6 -210.53,-875 -85.52,-118.4 -197.37,-243.4 -111.84,-394.8 85.53,-151.3 361.85,-118.4 539.48,-78.9 177.63,39.5 539.48,46 592.12,65.8 52.63,19.7 85.53,59.2 85.53,59.2 0,0 144.74,0 138.16,65.8 -6.58,65.8 -26.32,85.5 -72.38,105.3 -46.04,19.7 -72.36,72.3 -164.47,92.1 -92.11,19.7 -138.16,6.5 -282.9,52.6 -144.74,46 -210.53,72.4 -210.53,72.4 0,0 125,440.8 210.53,585.5 85.53,144.7 342.11,664.5 447.37,993.4 105.27,329 131.59,519.8 131.59,519.8 0,0 92.11,157.9 92.11,453.9 0,296.1 -223.7,671.1 -223.7,671.1 0,0 -407.89,-138.1 -453.95,-197.4 -46.05,-59.2 -230.27,-434.2 -230.27,-434.2" /><path
         id="path80"
         style="fill:#252323;fill-opacity:1;fill-rule:nonzero;stroke:none"
         d="m 3968.02,8579.6 c 0,0 -167.18,-315.7 -122.71,-907.9 44.47,-592.1 228.68,-750 485.27,-750 256.58,0 427.64,72.4 578.96,59.2 151.31,-13.1 302.63,-157.9 723.7,-92.1 421.06,65.8 888.17,-72.3 888.17,-72.3 0,0 256.58,151.3 401.32,434.2 144.74,282.9 177.64,526.3 177.64,526.3 0,0 -269.74,329 -631.59,526.3 -361.85,197.4 -532.91,250 -532.91,250 0,0 -1223.71,190.8 -1394.76,177.7 -171.06,-13.2 -573.09,-151.4 -573.09,-151.4" /><path
         id="path82"
         style="fill:#d0d0cb;fill-opacity:1;fill-rule:nonzero;stroke:none"
         d="m 1402.89,14114.8 c 0,0 -153.51,-4.3 -188.6,-74.5 -35.09,-70.2 78.95,-184.2 162.29,-166.7 83.33,17.6 92.1,149.1 92.1,149.1 0,0 1491.26,807.1 1578.98,837.8 87.72,30.7 4227.05,242.7 4414.56,215.6 187.5,-27 1796.08,-702.5 1796.08,-702.5 0,0 70.18,-197.3 228.08,-131.6 157.9,65.8 57.02,245.7 -30.71,263.2 -87.72,17.6 -162.28,-8.8 -162.28,-8.8 0,0 -1565.82,684.3 -1780.73,728.1 -214.92,43.9 -4368.5,-171 -4511.05,-201.7 -142.55,-30.7 -1598.72,-908 -1598.72,-908" /><path
         id="path84"
         style="fill:#fbc398;fill-opacity:1;fill-rule:nonzero;stroke:none"
         d="m 6074.03,10816.5 c 0,0 13.16,269.8 164.48,414.5 151.32,144.8 263.16,197.4 769.75,421.1 506.59,223.7 934.23,954 934.23,954 0,0 322.37,414.4 460.53,782.8 138.16,368.5 322.38,783 322.38,783 l -355.27,144.7 c 0,0 -190.8,-250 -486.85,-552.6 -296.06,-302.7 -483.56,-796.1 -483.56,-796.1 0,0 -312.51,-109.2 -476.99,-248.7 -164.47,-139.5 -407.9,-369.7 -407.9,-369.7 0,0 -322.38,24.3 -526.32,-63.5 -203.95,-87.9 -317.99,-210.7 -317.99,-210.7 l -589.93,-594.3 105.27,-532.9 289.12,-288.2 599.05,156.6" /><path
         id="path86"
         style="fill:#fbc398;fill-opacity:1;fill-rule:nonzero;stroke:none"
         d="m 3383.19,10816.5 -223.68,526.4 c 0,0 -388.17,320.1 -484.66,460.5 -96.5,140.4 -144.74,261.1 -153.52,290.6 -8.77,29.6 -188.6,201.3 -289.47,435.6 -100.88,234.3 -135.97,322.1 -144.75,335.2 -8.77,13.2 -96.48,162.3 -171.05,434.2 -74.56,272 -105.26,434.3 -135.97,500.1 -30.7,65.7 -39.47,192.9 -39.47,192.9 l 385.97,70.2 c 0,0 -39.48,-144.7 131.58,-364 171.06,-219.3 350.89,-504.4 407.9,-622.8 57.02,-118.5 65.8,-149.2 65.8,-149.2 0,0 271.93,-8.8 372.81,-87.7 100.88,-78.9 232.46,-285.1 232.46,-285.1 0,0 293.87,8.8 473.69,-114 179.83,-122.8 269.75,-241.3 269.75,-241.3 l 182.02,-956.1 -315.8,-390.4 -563.61,-35.1" /><path
         id="path88"
         style="fill:#3970c1;fill-opacity:1;fill-rule:nonzero;stroke:none"
         d="m 4552.84,12046.8 -377.97,85.6 -94.29,65.7 c 0,0 26.31,-394.7 -138.17,-769.7 -164.47,-375 -559.22,-611.9 -559.22,-611.9 0,0 151.32,-638.1 282.9,-861.8 131.59,-223.7 315.8,-592.1 335.54,-809.3 19.73,-217.1 -60.64,-572.3 -33.61,-565.8 27.03,6.6 744.14,-118.4 1105.99,-105.2 361.85,13.1 861.86,78.9 861.86,78.9 0,0 -32.89,611.9 -46.05,769.8 -13.16,157.9 -19.74,513.2 46.05,631.6 65.8,118.4 138.16,861.8 138.16,861.8 0,0 -394.74,296.1 -480.27,664.5 -85.53,368.4 76.76,594.3 76.76,594.3 l -109.66,-21.9 c 0,0 -688.6,-4.4 -710.53,8.8 -21.94,13.1 -297.49,-15.4 -297.49,-15.4" /><path
         id="path90"
         style="fill:#fbc398;fill-opacity:1;fill-rule:nonzero;stroke:none"
         d="m 4571.48,12529.6 c 0,0 -23.79,-142.9 -137.83,-252.5 -114.04,-109.7 -258.78,-144.7 -258.78,-144.7 0,0 154.81,-59.5 294.4,-164.8 139.59,-105.3 243.43,-125 289.48,-131.6 46.05,-6.6 229.74,20 427.11,66.1 197.37,46 375,151.3 375,151.3 0,0 -236.84,79 -335.53,230.3 -98.68,151.3 -653.85,245.9 -653.85,245.9" /><path
         id="path92"
         style="fill:#fbc398;fill-opacity:1;fill-rule:nonzero;stroke:none"
         d="m 5356.06,12094 c -7.11,38.2 -9.54,70.7 -5.54,76.5 7.35,10.8 143.01,-13.7 175.78,11.2 32.77,24.9 35.76,75.4 57.38,176.2 21.62,100.8 99.76,199.8 110.02,248.5 10.25,48.7 -16.27,315.3 -16.66,333.9 -0.38,18.7 25.56,129.6 34.77,172 9.22,42.3 -43.63,232 -43.63,232 0,0 -214.78,-2.9 -231.17,-15.3 0,0 -487.65,-269.6 -580.59,-347.9 -72.3,-60.9 -204.51,-300.2 -259.68,-403.5 l -43.9,-394.1 803.22,-89.5" /><path
         id="path94"
         style="fill:#252323;fill-opacity:1;fill-rule:nonzero;stroke:none"
         d="m 5484.25,13824.7 c 0,0 147.85,-89.3 184.94,-236.8 37.09,-147.5 33.46,-227.7 -1.01,-243.6 -34.47,-15.8 -61.02,-48.9 -73.43,-107.4 -12.41,-58.5 13.91,-123.8 -32.7,-174.6 -46.6,-50.9 -39.76,-162 -59.82,-179.8 -20.06,-17.8 -49.74,-9.4 -49.74,-9.4 0,0 30.73,160.3 -28.9,153.8 -59.63,-6.6 -148.05,-84 -159.02,-175.1 -10.98,-91 36.51,-119.5 28.05,-149.2 -8.47,-29.6 -12.38,-133.4 -65.78,-148.1 -53.41,-14.7 -215.63,1.6 -325.84,-9.7 -110.22,-11.4 -329.52,-15.2 -329.52,-15.2 0,0 -64.8,170.4 -135.55,372.4 -70.75,202.1 14.24,372.5 14.5,396 0.28,23.4 -10.57,255.4 129.55,356.7 140.13,101.2 364.77,176.2 440.78,195.2 76.01,19 184.83,-12.1 268.77,-10.3 83.93,1.7 128.98,36 194.72,-14.9" /><path
         id="path96"
         style="fill:#dc9b70;fill-opacity:1;fill-rule:nonzero;stroke:none"
         d="m 5278.42,12437.8 c -0.97,71.6 27.98,152 27.98,152 l -13.79,112.8 c 0,0 12.25,-30.1 33.32,-56.5 v 0 c 58.73,-17.4 149.05,90.8 149.05,90.8 -27.25,-145.5 -124.84,-159.5 -124.84,-159.5 -10.92,-41.8 -26.67,-109.5 -28,-156.3 -2.03,-72.2 21.38,-180.1 21.38,-180.1 0,0 -64.12,125.2 -65.1,196.8" /><path
         id="path98"
         style="fill:#2f65aa;fill-opacity:1;fill-rule:nonzero;stroke:none"
         d="m 3521.35,10652.1 c 0,0 164.48,-46.1 388.17,-32.9 223.69,13.1 265.35,32.9 265.35,32.9 0,0 -116.37,-168.1 -416.67,-144.8 -300.3,23.3 -236.85,144.8 -236.85,144.8" /><path
         id="path100"
         style="fill:#2f65aa;fill-opacity:1;fill-rule:nonzero;stroke:none"
         d="m 5928.92,10705.4 c 0,0 -162.63,-52.2 -386.65,-47.5 -224.03,4.7 -266.41,22.8 -266.41,22.8 0,0 122.64,-163.5 421.85,-128.9 299.2,34.6 231.21,153.6 231.21,153.6" /><path
         id="path102"
         style="fill:#dc9b70;fill-opacity:1;fill-rule:nonzero;stroke:none"
         d="m 2674.85,12807.8 c 17.54,-39.5 -8.78,-181.6 122.81,-318.9 131.58,-137.2 364.04,-198.6 364.04,-198.6 0,0 -236.85,-43.9 -416.68,149.1 -179.82,193 -70.17,368.4 -70.17,368.4" /><path
         id="path104"
         style="fill:#fbc398;fill-opacity:1;fill-rule:nonzero;stroke:none"
         d="m 2126.59,14062.2 c 0,0 19.74,70.2 115.13,122.8 95.4,52.7 29.61,269.8 29.61,269.8 0,0 -85.79,-57.9 -95.66,-51.3 -9.87,6.6 -72.11,94 -72.11,117.1 0,23 91.42,63.6 91.42,63.6 0,0 -114.44,71.2 -147.34,84.4 -32.89,13.1 -92.11,0 -92.11,0 0,0 -69.07,34.7 -118.42,5.8 -49.34,-28.8 -75.66,-68.3 -75.66,-68.3 0,0 -49.34,-3.3 -72.37,-19.8 -23.03,-16.4 -36.18,-46 -39.47,-55.9 -3.29,-9.8 -52.63,-26.3 -59.21,-98.7 -6.58,-72.3 150.22,-439.7 150.22,-439.7 0,0 188.76,-109.6 201.84,-96.5 13.07,13.2 184.13,166.7 184.13,166.7" /><path
         id="path106"
         style="fill:#dc9b70;fill-opacity:1;fill-rule:nonzero;stroke:none"
         d="m 6692.47,12342.9 c 32.89,13.1 276.31,-12 480.27,145.3 203.95,157.3 250,282.3 250,282.3 0,0 -19.74,-250 -250,-375 -230.27,-125 -480.27,-52.6 -480.27,-52.6" /><g
         id="g108"><g
           clip-path="url(#clipPath114)"
           id="g110"><path
             id="path116"
             style="fill:#edb085;fill-opacity:1;fill-rule:nonzero;stroke:none"
             d="m 7784.59,13020.5 h 388.172 v 631.59 H 7784.59 Z" /></g></g><path
         id="path118"
         style="fill:#fbc398;fill-opacity:1;fill-rule:nonzero;stroke:none"
         d="m 8344.16,14283.4 c 25.97,33.2 43.1,115.4 0,174.7 -43.11,59.2 -46.4,310.2 -46.4,310.2 l 92.1,-30.6 c 0,0 -26.31,171 0,220.4 26.32,49.3 167.77,108.5 200.67,115.1 32.89,6.6 65.79,0 65.79,0 0,0 62.5,2.6 105.26,2.9 42.77,0.4 75.66,-35.8 75.66,-35.8 0,0 59.22,6.6 95.4,-36.2 36.18,-42.7 32.89,-105.2 32.89,-105.2 0,0 49.35,-6.6 62.5,-59.3 13.16,-52.6 -36.18,-52.6 -62.5,-184.2 -26.31,-131.6 -26.31,-217.1 -95.39,-322.3 -69.08,-105.3 -144.74,-161.2 -144.74,-161.2 0,0 -351.98,-79 -358.56,-46.1 -6.58,32.9 -22.68,157.6 -22.68,157.6" /><path
         id="path120"
         style="fill:#f1d3bf;fill-opacity:1;fill-rule:nonzero;stroke:none"
         d="m 8589.81,15073.1 c 0.25,0 0.48,0.1 0.72,0.1 -0.24,0 -0.48,-0.1 -0.72,-0.1" /><path
         id="path122"
         style="fill:#edb085;fill-opacity:1;fill-rule:nonzero;stroke:none"
         d="m 8512.51,14967.3 c -0.51,0 -0.83,0.2 -0.93,0.6 -1.85,7.4 37.98,59.7 73.16,103.9 1.85,0.5 3.58,0.9 5.07,1.3 0.24,0 0.48,0.1 0.72,0.1 v 0 c 10.96,2.2 21.92,2.9 31.66,2.9 6.6,0 12.65,-0.3 17.76,-0.8 -55.45,-51.2 -118.91,-108 -127.44,-108" /><path
         id="path124"
         style="fill:#edb085;fill-opacity:1;fill-rule:nonzero;stroke:none"
         d="m 8725.25,14944.3 c -0.19,0 -0.15,0.2 0.15,0.6 4.01,6 37.36,74.4 62.78,126.8 29.05,-9.5 49.06,-31.4 49.06,-31.4 0,0 -108.06,-96.1 -111.99,-96" /><path
         id="path126"
         style="fill:#f1d3bf;fill-opacity:1;fill-rule:nonzero;stroke:none"
         d="m 8965.53,14898.9 v 0 0 0 m 0,0 v 0 0" /><path
         id="path128"
         style="fill:#edb085;fill-opacity:1;fill-rule:nonzero;stroke:none"
         d="m 8879.72,14851.6 c -1.44,0 -2.47,0.4 -3.01,1.2 -4.71,7.1 46.41,78.5 75.7,118.3 14.85,-35.8 13.15,-71.6 13.12,-72.2 v 0 c 0,0 0,0 0,0 v 0 0 0 c 0,0 -69.44,-47.3 -85.81,-47.3" /><path
         id="path130"
         style="fill:#dc9b70;fill-opacity:1;fill-rule:nonzero;stroke:none"
         d="m 7100.37,6980.9 c 20.21,-12.4 -269.74,26.4 -578.96,-164.4 l 202.76,164.4 c 0,0 176.15,122.9 376.2,0" /><path
         id="path132"
         style="fill:#eaad81;fill-opacity:1;fill-rule:nonzero;stroke:none"
         d="m 6416.14,5592.8 c 421.07,388.1 539.49,927.6 539.49,927.6 32.89,-730.3 -539.49,-927.6 -539.49,-927.6" /><path
         id="path134"
         style="fill:#d0d0cb;fill-opacity:1;fill-rule:nonzero;stroke:none"
         d="m 5051.67,15497.5 231.27,-162.1 h 2652.97 l -328.95,277.3 -2555.29,-115.2" /><path
         id="path136"
         style="fill:#797a7b;fill-opacity:1;fill-rule:nonzero;stroke:none"
         d="m 5051.67,15650 v -152.5 l 2555.29,115.2 v 151.3 l -2555.29,-114" /><path
         id="path138"
         style="fill:#494a4b;fill-opacity:1;fill-rule:nonzero;stroke:none"
         d="m 7935.91,15335.4 v 162.1 l -328.95,266.5 v -151.3 l 328.95,-277.3" /><path
         id="path140"
         style="fill:#252323;fill-opacity:1;fill-rule:nonzero;stroke:none"
         d="M 6577.33,8704.7 H 6337.2 v 164.4 h 240.13 v -164.4" /><g
         transform="scale(1.04771)"
         id="g142"><path
           id="path144"
           style="fill:#252323;fill-opacity:1;fill-rule:nonzero;stroke:none"
           d="m 5042.39,14424.3 h -2.14 c -21.46,1.2 -37.92,19.5 -36.74,41 l 97.54,1796.8 c 1.16,21.4 19.5,37.9 40.97,36.7 21.46,-1.1 37.92,-19.5 36.75,-41 l -97.55,-1796.7 c -1.12,-20.8 -18.3,-36.8 -38.83,-36.8" /></g><path
         id="path146"
         style="fill:#797a7b;fill-opacity:1;fill-rule:nonzero;stroke:none"
         d="m 6727.55,14800 c 0,-132 -106.96,-238.9 -238.91,-238.9 -131.95,0 -238.91,106.9 -238.91,238.9 0,131.9 106.96,238.9 238.91,238.9 131.95,0 238.91,-107 238.91,-238.9" /><path
         id="path148"
         style="fill:#797a7b;fill-opacity:1;fill-rule:nonzero;stroke:none"
         d="m 5879.95,14477.8 c 0,0 -42.76,-105.3 -19.74,-273 23.03,-167.8 62.5,-227 62.5,-227 0,0 -78.95,-95.4 -190.79,-55.9 -111.84,39.4 -115.67,457.1 -69.08,555.9 46.59,98.8 157.9,78.9 217.11,0" /><path
         id="path150"
         style="fill:#d0d0cb;fill-opacity:1;fill-rule:nonzero;stroke:none"
         d="m 5352.45,15234.4 -169.78,-8.1 c -42.55,-2 -75.41,-38.2 -73.39,-80.7 2.03,-42.6 38.17,-75.4 80.72,-73.4 l 169.77,8 c 42.56,2.1 75.41,38.2 73.39,80.8 -2.02,42.5 -38.16,75.4 -80.71,73.4" /><path
         id="path152"
         style="fill:#fbc398;fill-opacity:1;fill-rule:nonzero;stroke:none"
         d="m 13936,11764.9 -210.5,-126 c 0,0 -394.7,-32.9 -572.4,-236.8 -177.6,-204 -230.3,-598.7 -230.3,-598.7 0,0 -125,-347.1 -223.6,-440 0,0 -476.6,400.5 -567.3,499.2 -90.6,98.7 -103.8,157.9 -103.8,157.9 l -296.1,-144.7 c 0,0 65.8,-164.5 72.4,-184.3 6.6,-19.7 151.3,-405.5 296.1,-623.8 144.7,-218.3 322.3,-303.8 407.9,-442 85.5,-138.1 289.4,-98.7 325.6,-78.9 36.2,19.7 260.4,111.8 451,236.8 190.5,125 249.7,164.5 249.7,164.5 l 118.4,-203.9 401.3,39.4 241.3,947.4 -359.7,1033.9" /><path
         id="path154"
         style="fill:#c1bfbd;fill-opacity:1;fill-rule:nonzero;stroke:none"
         d="m 15969,12935 -572.8,-198.1 -4.5,-590.3 577.3,255.5 v 532.9" /><path
         id="path156"
         style="fill:#c1bfbd;fill-opacity:1;fill-rule:nonzero;stroke:none"
         d="m 15728.8,14017.3 115.2,-39.5 h 203.9 l -128.3,496.7 -118.4,3.3 -128.4,-194.6 56,-265.9" /><g
         transform="scale(1.02486)"
         id="g158"><path
           id="path160"
           style="fill:#494a4b;fill-opacity:1;fill-rule:nonzero;stroke:none"
           d="m 16016.9,14545.7 c -14.9,0 -29.1,8.4 -36,22.7 l -799,1669 c -9.5,19.8 -1.2,43.6 18.7,53.1 19.9,9.5 43.6,1.1 53,-18.7 l 799.1,-1669.1 c 9.4,-19.8 1,-43.6 -18.8,-53 -5.4,-2.7 -11.3,-4 -17,-4" /></g><g
         transform="scale(1.06647)"
         id="g162"><path
           id="path164"
           style="fill:#c1bfbd;fill-opacity:1;fill-rule:nonzero;stroke:none"
           d="m 16300,11664 h -1178.3 v 464.8 H 16300 V 11664" /></g><path
         id="path166"
         style="fill:#c1bfbd;fill-opacity:1;fill-rule:nonzero;stroke:none"
         d="M 15969,13997.5 V 8329.6 h 157.9 v 5667.9 H 15969" /><g
         transform="scale(1.05396)"
         id="g168"><path
           id="path170"
           style="fill:#c1bfbd;fill-opacity:1;fill-rule:nonzero;stroke:none"
           d="m 16300,14550.3 h -149.8 V 8115.42 h 149.8 v 6434.88" /></g><g
         transform="scale(1.00706)"
         id="g172"><path
           id="path174"
           style="fill:#494a4b;fill-opacity:1;fill-rule:nonzero;stroke:none"
           d="m 16300,14639.5 h -96.7 V 8725.34 h 96.7 v 5914.16" /></g><path
         id="path176"
         style="fill:#797a7b;fill-opacity:1;fill-rule:nonzero;stroke:none"
         d="m 16080.8,6816.5 c 13.2,-52.7 39.5,-1730.3 39.5,-1730.3 l -19.8,-105.3 -211.2,34.2 c 0,0 -98.2,1892.3 -58.5,1891.2 39.8,-1 250,-89.8 250,-89.8" /><g
         transform="scale(1.06929)"
         id="g178"><path
           id="path180"
           style="fill:#494a4b;fill-opacity:1;fill-rule:nonzero;stroke:none"
           d="m 15081.8,10232.9 1218.2,-132.7 -43,-3211.73 h -1175.2 v 3344.43" /></g><g
         transform="scale(1.06647)"
         id="g182"><path
           id="path184"
           style="fill:#c1bfbd;fill-opacity:1;fill-rule:nonzero;stroke:none"
           d="m 15121.7,8951.76 1178.3,-24.67 v -364 h -1178.3 v 388.67" /></g><path
         id="path186"
         style="fill:#c1bfbd;fill-opacity:1;fill-rule:nonzero;stroke:none"
         d="m 15613.7,6359 26.3,-1305.7 h 322.4 l -26.3,1763.2 c 0,0 -206.1,-72.4 -228.1,-118.5 -21.9,-46 -94.3,-339 -94.3,-339" /><path
         id="path188"
         style="fill:#c1bfbd;fill-opacity:1;fill-rule:nonzero;stroke:none"
         d="m 15204.2,4800 h 187.5 v 10535.4 h -187.5 z" /><path
         id="path190"
         style="fill:#969797;fill-opacity:1;fill-rule:nonzero;stroke:none"
         d="m 15031.4,5115.8 c 69.1,-9.9 931,-62.5 931,-62.5 0,0 28.2,-154.8 -72.4,-190.8 -100.6,-36 -585.5,-177.7 -585.5,-177.7 l -129.5,120.3 -143.6,310.7" /><path
         id="path192"
         style="fill:#969797;fill-opacity:1;fill-rule:nonzero;stroke:none"
         d="m 14942.6,6421.7 177.7,-282.9 v -671 l -88.9,-352 -616.8,-292.8 607,-92.1 c 0,0 303.9,772.3 310.6,803.7 6.8,31.5 -27.7,676.6 -27.7,676.6 l -256.6,256.6 -105.3,-46.1" /><g
         transform="scale(1.11531)"
         id="g194"><path
           id="path196"
           style="fill:#969797;fill-opacity:1;fill-rule:nonzero;stroke:none"
           d="m 13521.7,5701.57 c 22.6,-6.01 153.3,-197.43 153.3,-197.43 l 106.2,-35.42 v -347.98 l -312.6,-1451.17 878.8,519.14 c 0,0 1539.7,-88.49 1557.4,-76.66 17.7,11.75 395.2,318.48 395.2,318.48 l -1987.9,100.33 -530.9,-277.23 374.7,1654.52 -244.9,-61.86 -41.4,-342.15 -170.1,245.22 -177.8,-47.79" /></g><g
         transform="scale(1.05799)"
         id="g198"><path
           id="path200"
           style="fill:#797a7b;fill-opacity:1;fill-rule:nonzero;stroke:none"
           d="m 16300,6716.39 h -180.3 v -2132.9 h 180.3 v 2132.9" /></g><g
         transform="scale(1.05799)"
         id="g202"><path
           id="path204"
           style="fill:#fbc398;fill-opacity:1;fill-rule:nonzero;stroke:none"
           d="m 15441.9,6753.73 c 37.3,-43.48 99.4,-310.88 99.4,-310.88 0,0 -292.3,-186.57 -360.6,-516.16 -68.4,-329.59 37.3,-578.36 0,-833.28 -37.3,-254.91 -118.1,-715.12 -199,-827.03 -80.9,-111.91 -186.5,-230.06 -105.7,-373.16 80.8,-143.01 342,-111.91 509.9,-74.58 167.9,37.34 509.9,43.48 559.7,62.19 49.7,18.63 80.8,55.96 80.8,55.96 0,0 136.8,0 130.6,62.19 -6.2,62.2 -24.9,80.82 -68.4,99.53 -43.5,18.62 -68.5,68.34 -155.5,87.05 -87.1,18.62 -130.6,6.15 -267.4,49.72 -136.8,43.48 -199,68.43 -199,68.43 0,0 118.2,416.64 199,553.41 80.9,136.77 323.3,628.07 422.9,938.94 99.5,310.97 124.3,491.31 124.3,491.31 0,0 87.1,149.25 87.1,429.02 0,279.87 -211.4,634.31 -211.4,634.31 0,0 -385.6,-130.52 -429.2,-186.57 -43.4,-55.96 -217.5,-410.4 -217.5,-410.4" /></g><path
         id="path206"
         style="fill:#fbc398;fill-opacity:1;fill-rule:nonzero;stroke:none"
         d="m 14018.3,6359 c 0,-29.4 -36.2,-391.2 69,-805.7 105.3,-414.5 92.1,-717.1 59.3,-822.4 -32.9,-105.3 -55.3,-177.6 -55.3,-177.6 0,0 -22.5,-13.2 -79,-46.1 -56.5,-32.9 -97,-59.2 -57.1,-111.8 40,-52.7 119,-85.6 178.2,-190.8 59.2,-105.3 328.9,-46.1 401.3,0 72.4,46 13.2,276.3 32.9,355.2 19.8,79 -50.7,500.1 4.3,625.1 54.9,125 311.5,848.2 318.1,1174.1 6.6,325.9 -871.7,0 -871.7,0" /><g
         transform="scale(1.03741)"
         id="g208"><path
           id="path210"
           style="fill:#eaad81;fill-opacity:1;fill-rule:nonzero;stroke:none"
           d="m 15748.2,5391.11 c 405.9,374.11 520.1,894.15 520.1,894.15 31.7,-703.96 -520.1,-894.15 -520.1,-894.15" /></g><path
         id="path212"
         style="fill:#eaad81;fill-opacity:1;fill-rule:nonzero;stroke:none"
         d="m 14547.9,5711.2 c 0,0 -289.5,230.2 -59.2,578.9 0,0 -49.5,-279.4 59.2,-578.9" /><path
         id="path214"
         style="fill:#494a4b;fill-opacity:1;fill-rule:nonzero;stroke:none"
         d="m 12297.8,5829.6 -407.9,-3289.5 h 315.8 l 500,3460.6 -407.9,-171.1" /><g
         transform="scale(1.07798)"
         id="g216"><path
           id="path218"
           style="fill:#797a7b;fill-opacity:1;fill-rule:nonzero;stroke:none"
           d="m 16300,14226.2 h -173.9 V 4452.79 h 173.9 v 9773.41" /></g><path
         id="path220"
         style="fill:#636567;fill-opacity:1;fill-rule:nonzero;stroke:none"
         d="m 12916.3,6056.6 -473.7,-3371.8 -236.9,-144.7 500,3460.6 210.6,55.9" /><g
         transform="scale(1.03507)"
         id="g222"><path
           id="path224"
           style="fill:#797a7b;fill-opacity:1;fill-rule:nonzero;stroke:none"
           d="m 10759.3,5972.17 c 0,0 -47.6,-50.91 -76.2,-120.76 -28.6,-69.95 -28.6,-308.29 38,-346.46 66.8,-38.16 1579.6,-108.01 1694,-101.63 114.4,6.28 3884.9,1328.42 3884.9,1328.42 l -2276.8,152.54 -3263.9,-912.11" /></g><g
         transform="scale(1.10777)"
         id="g226"><path
           id="path228"
           style="fill:#fbc398;fill-opacity:1;fill-rule:nonzero;stroke:none"
           d="m 14415.4,9045.6 43.5,42.64 c 0,0 261.4,-222.79 530.5,-315.87 269.3,-92.98 526.7,-251.4 649.4,-235.52 122.7,15.8 411.8,261.25 502.9,510.72 91,249.44 158.3,871.06 158.3,871.06 0,0 -332.6,210.87 -340.5,158.87 -8,-52 -28.7,-222.21 -182.6,-388.51 -153.9,-166.29 -316.2,-253.39 -316.2,-253.39 0,0 -209.9,186.08 -407.9,249.43 0,0 -67.3,542.47 -364.2,712.67 -228.1,130.8 -403.7,126.1 -523.6,121.3 -36.2,-1.4 -67.3,-2.8 -93.2,-0.5 -111.7,9.9 -389,-243.5 -389,-243.5 l 90.5,-681.04 210.5,-505.72 253.4,-167.37 178.2,124.73" /></g><path
         id="path230"
         style="fill:#f0b489;fill-opacity:1;fill-rule:nonzero;stroke:none"
         d="m 13735.5,10216.4 c -17.9,0 -36.6,0.7 -56.1,2.2 -300.3,23.3 -236.8,144.8 -236.8,144.8 0,0 125.9,-35.3 307.2,-35.3 26,0 53,0.7 81,2.4 223.6,13.1 265.3,32.9 265.3,32.9 0,0 -101.8,-147 -360.6,-147" /><path
         id="path232"
         style="fill:#f4dfcf;fill-opacity:1;fill-rule:nonzero;stroke:none"
         d="m 15405.3,10273.3 c -4.6,1.1 -9.2,2.3 -13.6,3.5 v 29.3 l 13.6,-32.8 m -201.1,110.4 c -4.8,5.2 -7.1,8.3 -7.1,8.3 0,0 1.9,-0.8 7.1,-2.1 v -6.2" /><path
         id="path234"
         style="fill:#c9b2a2;fill-opacity:1;fill-rule:nonzero;stroke:none"
         d="m 15391.7,10276.8 c -108.8,29.4 -168.2,85.7 -187.5,106.9 v 6.2 c 15,-3.9 57.4,-12.1 159.8,-17.3 l 27.7,-66.5 v -29.3" /><path
         id="path236"
         style="fill:#f0b489;fill-opacity:1;fill-rule:nonzero;stroke:none"
         d="m 15537.9,10258.3 c -50.2,0 -94.3,5.8 -132.6,15 l -13.6,32.8 -27.7,66.5 c 28.3,-1.4 61.3,-2.6 99.5,-3.4 9.7,-0.2 19.2,-0.3 28.6,-0.3 209.1,0 358.1,47.8 358.1,47.8 0,0 68,-119 -231.3,-153.6 -28.6,-3.3 -55.6,-4.8 -81,-4.8" /><g
         transform="scale(1.04427)"
         id="g238"><path
           id="path240"
           style="fill:#252323;fill-opacity:1;fill-rule:nonzero;stroke:none"
           d="m 13300.5,8215.88 c 0,0 -160.1,-302.31 -117.5,-869.41 42.5,-567 218.9,-718.2 464.6,-718.2 245.7,0 409.6,69.33 554.5,56.69 144.9,-12.55 289.7,-151.21 693,-88.2 403.1,63.01 850.4,-69.23 850.4,-69.23 0,0 245.8,144.88 384.4,415.79 138.6,270.91 170.1,503.99 170.1,503.99 0,0 -258.3,315.05 -604.8,503.99 -346.5,189.03 -510.3,239.4 -510.3,239.4 0,0 -1171.9,182.71 -1335.7,170.16 -163.8,-12.64 -548.7,-144.98 -548.7,-144.98" /></g><g
         transform="scale(1.04551)"
         id="g242"><path
           id="path244"
           style="fill:#dc9b70;fill-opacity:1;fill-rule:nonzero;stroke:none"
           d="m 16280.7,6677.03 c 19.3,-11.86 -258,25.26 -553.8,-157.24 l 194,157.24 c 0,0 168.5,117.55 359.8,0" /></g><path
         id="path246"
         style="fill:#dc9b70;fill-opacity:1;fill-rule:nonzero;stroke:none"
         d="m 14091.3,4553.3 c 0,0 61.8,-118.5 94.7,-171.1 32.9,-52.6 65.8,-85.5 72.4,-65.8 6.6,19.8 -139.8,324.9 -139.8,324.9 l -27.3,-88" /><path
         id="path248"
         style="fill:#797a7b;fill-opacity:1;fill-rule:nonzero;stroke:none"
         d="m 15251.8,6138.8 -460.5,-2046.1 h 230.3 l 348.7,1618.5 v 388.1 l -118.5,39.5" /><g
         transform="scale(1.09553)"
         id="g250"><path
           id="path252"
           style="fill:#d0d0cb;fill-opacity:1;fill-rule:nonzero;stroke:none"
           d="m 13667.3,14146.2 211.1,-148 H 16300 l -300.2,253.1 -2332.5,-105.1" /></g><g
         transform="scale(1.07535)"
         id="g254"><path
           id="path256"
           style="fill:#797a7b;fill-opacity:1;fill-rule:nonzero;stroke:none"
           d="m 13923.8,14553.4 v -141.8 l 2376.2,107.1 v 140.7 l -2376.2,-106" /></g><g
         transform="scale(1.09553)"
         id="g258"><path
           id="path260"
           style="fill:#494a4b;fill-opacity:1;fill-rule:nonzero;stroke:none"
           d="m 16300,13998.2 v 148 l -300.2,243.2 v -138.1 l 300.2,-253.1" /></g><g
         transform="scale(1.07246)"
         id="g262"><path
           id="path264"
           style="fill:#c1bfbd;fill-opacity:1;fill-rule:nonzero;stroke:none"
           d="m 15037.3,13051.8 -475.7,2926.1 c 0,0 -58.1,273 -143.9,297.6 -85.9,24.5 -392.7,-49.1 -429.5,-141.1 -36.8,-92.1 489.6,-2970.5 489.6,-2970.5 l -11.1,-1519.5 128.9,0.7 25.2,1624.4 -345.5,2404.8 76.4,18.4 538.3,-2640.9 h 147.3" /></g><g
         transform="scale(1.0588)"
         id="g266"><path
           id="path268"
           style="fill:#c1bfbd;fill-opacity:1;fill-rule:nonzero;stroke:none"
           d="m 16300,13924 h -658.7 v 115.3 H 16300 V 13924" /></g><g
         transform="scale(1.00955)"
         id="g270"><path
           id="path272"
           style="fill:#c1bfbd;fill-opacity:1;fill-rule:nonzero;stroke:none"
           d="m 16300,14603.4 h -530.9 v 105.7 h 530.9 v -105.7" /></g><path
         id="path274"
         style="fill:#c1bfbd;fill-opacity:1;fill-rule:nonzero;stroke:none"
         d="m 15634.1,14022.7 106.8,-1166.6 140.2,48.5 -84.5,1213.2 -162.5,-95.1" /><path
         id="path276"
         style="fill:#dc9b70;fill-opacity:1;fill-rule:nonzero;stroke:none"
         d="m 13350.5,10645.4 c 0,0 72.4,-407.8 184.2,-697.3 l -115.1,-76 c 0,0 -134.9,306.2 -69.1,773.3" /><g
         transform="scale(1.16132)"
         id="g278"><path
           id="path280"
           style="fill:#dfdfdd;fill-opacity:1;fill-rule:nonzero;stroke:none"
           d="m 9830.37,9560.44 c -7.66,-6.73 -133.12,39.66 -164.29,-42.49 -31.09,-82.13 51.06,-181.36 116.16,-172.82 65.18,8.54 113.32,113.34 121.84,127.5 8.44,14.17 679.82,351.24 702.52,359.74 22.6,8.5 662.6,305.93 759,339.93 96.4,34 2985.6,85 3110.3,59.5 124.6,-25.5 1487.1,-654.36 1487.1,-654.36 0,0 82.1,-175.62 209.6,-133.13 127.4,42.49 99.1,212.44 14.2,246.43 -85,33.99 -170,5.67 -170,5.67 0,0 -1328.5,651.49 -1447.5,676.99 -118.9,25.5 -3140.7,-7.6 -3288.3,-35 -147.6,-27.3 -1293.48,-639.84 -1450.63,-777.96" /></g><path
         id="path282"
         style="fill:#f1d3bf;fill-opacity:1;fill-rule:nonzero;stroke:none"
         d="m 12699.2,10363.4 c -0.3,0.2 -23.8,19.9 -61.2,51.6 l 61.2,-51.6" /><path
         id="path284"
         style="fill:#edb085;fill-opacity:1;fill-rule:nonzero;stroke:none"
         d="m 12659.7,10020.5 c 0,0 -86.8,160.8 -23.7,396.2 l 2,-1.7 c 37.4,-31.7 60.9,-51.4 61.2,-51.6 v 0 c 0,0 -72.4,-152.1 -39.5,-342.9" /><path
         id="path286"
         style="fill:#dc9b70;fill-opacity:1;fill-rule:nonzero;stroke:none"
         d="m 13363.6,11086.3 c 0,0 -302.6,-98.7 -440.8,-282.9 0,0 32.9,315.8 440.8,282.9" /><path
         id="path288"
         style="fill:#fbc398;fill-opacity:1;fill-rule:nonzero;stroke:none"
         d="m 11732,10875.8 c 0,0 -59.2,88.8 -59.2,121.7 0,32.9 -115.1,273 -95.4,358.5 0,0 19.8,65.8 49.4,82.3 29.6,16.4 29.6,16.4 29.6,16.4 0,0 23,62.5 75.6,69.1 52.7,6.6 52.7,6.6 52.7,6.6 0,0 9.8,36.2 69.1,39.4 59.2,3.3 115.1,39.5 157.8,46.1 42.8,6.6 134.8,-76 134.8,-76 0,0 -62.9,-39.1 -66.2,-85.1 -3.3,-46.1 43.3,-102.1 66.3,-108.6 23,-6.6 171.1,72.3 171.1,72.3 0,0 32.9,-72.3 0,-138.1 -32.9,-65.8 -29.6,-115.2 -92.1,-174.4 -62.5,-59.2 -197.4,-85.5 -197.4,-85.5 0,0 -16.5,-171.1 -29.6,-167.8 -13.2,3.3 -266.5,23.1 -266.5,23.1" /><g
         transform="scale(1.00706)"
         id="g290"><path
           id="path292"
           style="fill:#dc9b70;fill-opacity:1;fill-rule:nonzero;stroke:none"
           d="m 15857.1,10901.9 c 0,0 156.8,-226.5 442.9,-196 l -442.9,196" /></g><g
         transform="scale(1.05617)"
         id="g294"><path
           id="path296"
           style="fill:#8a6f5d;fill-opacity:1;fill-rule:nonzero;stroke:none"
           d="m 16216.1,9896.65 83.9,52.52 v 0 c -50.8,-34.78 -83.9,-52.52 -83.9,-52.52" /></g><g
         transform="scale(1.06456)"
         id="g298"><path
           id="path300"
           style="fill:#edb085;fill-opacity:1;fill-rule:nonzero;stroke:none"
           d="m 16166.5,9513.74 c 28.9,181.28 -78.2,304.89 -78.2,304.89 v 0 c 0,0 32.8,17.6 83.2,52.1 128.5,-195.09 -5,-356.99 -5,-356.99" /></g><path
         id="path302"
         style="fill:#edb085;fill-opacity:1;fill-rule:nonzero;stroke:none"
         d="m 12775.8,10067.7 c 320,231.5 278.6,577.7 278.6,577.7 164.5,-519.7 -278.6,-577.7 -278.6,-577.7" /><g
         transform="scale(1.05073)"
         id="g304"><path
           id="path306"
           style="fill:#edb085;fill-opacity:1;fill-rule:nonzero;stroke:none"
           d="m 16300,9581.63 c -518.9,80.66 -506.8,494.37 -495.7,494.37 0.3,0 0.6,-0.3 0.9,-0.8 149.7,-305.11 494.8,-493.57 494.8,-493.57" /></g><path
         id="path308"
         style="fill:#3970c1;fill-opacity:1;fill-rule:nonzero;stroke:none"
         d="m 14368.3,11908.7 -272.2,-39.5 -160.1,-104.3 c 0,0 66.6,-376 0,-954.9 -66.6,-579 -282.9,-1065.8 -282.9,-1065.8 0,0 217.1,-283 250,-447.4 32.9,-164.5 -52.3,-811.4 -52.3,-811.4 0,0 325,-67.6 1097.8,-83.4 772.8,-15.7 1020.4,108.4 1020.4,108.4 0,0 -39.5,139.4 -35.1,358.7 4.4,219.3 -84,493.5 -77.1,677.7 6.9,184.2 112.2,473.7 112.2,473.7 0,0 -331,118.4 -405.7,730.3 -74.6,611.8 25.1,901.3 25.1,901.3 l -282,177.6 -938.1,79" /><path
         id="path310"
         style="fill:#2f65aa;fill-opacity:1;fill-rule:nonzero;stroke:none"
         d="m 14530.4,10553.4 c 0,0 83.3,-500 129.3,-921.1 46.1,-421.1 41.6,-697.4 41.6,-697.4 0,0 -81.1,572.4 -127.1,809.3 -46.1,236.8 -43.8,809.2 -43.8,809.2" /><path
         id="path312"
         style="fill:#2f65aa;fill-opacity:1;fill-rule:nonzero;stroke:none"
         d="m 14199.2,9717.8 c 0,0 -46.1,-302.6 -164.5,-618.4 0,0 263.2,171.1 164.5,618.4" /><path
         id="path314"
         style="fill:#2f65aa;fill-opacity:1;fill-rule:nonzero;stroke:none"
         d="m 15306.4,10000.7 c 0,0 164.6,-328.9 295.1,-513.1 0,0 -286.6,85.5 -295.1,513.1" /><path
         id="path316"
         style="fill:#fbc398;fill-opacity:1;fill-rule:nonzero;stroke:none"
         d="m 14295.7,12035.9 -199.6,-166.7 c 0,0 228.1,-52.6 313.6,-164.5 85.5,-111.8 120.7,-217.1 120.7,-217.1 0,0 155.6,190.8 300.4,223.7 144.7,32.9 475.6,118.4 475.6,118.4 l -271.7,411.3 -739,-205.1" /><path
         id="path318"
         style="fill:#fbc398;fill-opacity:1;fill-rule:nonzero;stroke:none"
         d="m 15230.1,11940.3 c -6.6,38.2 -8.5,70.7 -4.4,76.5 7.5,10.7 142.8,-15.7 175.9,8.7 33.1,24.4 36.8,74.9 59.9,175.4 23,100.5 102.5,198.3 113.5,246.9 10.9,48.6 -11.8,315.5 -11.9,334.1 -0.2,18.7 27.4,129.3 37.2,171.4 9.8,42.2 -40.4,232.7 -40.4,232.7 0,0 -214.8,0.2 -231.3,-12.1 0,0 -491.5,-262.6 -585.5,-339.6 -73.2,-59.9 -188.7,-261.2 -245.3,-363.7 l -202.1,-434.7 934.4,-95.6" /><path
         id="path320"
         style="fill:#252323;fill-opacity:1;fill-rule:nonzero;stroke:none"
         d="m 15382.8,13668.9 c 0,0 146.6,-91.3 181.6,-239.3 35,-148 30.2,-228.2 -4.5,-243.6 -34.7,-15.3 -61.7,-48 -74.9,-106.3 -13.3,-58.4 12.1,-124 -35.2,-174.2 -47.3,-50.3 -42,-161.4 -62.4,-178.9 -20.3,-17.6 -49.8,-8.7 -49.8,-8.7 0,0 33,159.8 -26.7,154.2 -59.7,-5.7 -149.3,-81.9 -161.5,-172.8 -12.3,-90.8 34.8,-120 25.9,-149.6 -8.9,-29.5 -14.3,-133.2 -67.9,-147.1 -53.6,-14 -215.6,4.6 -325.9,-5.2 -110.4,-9.8 -329.7,-10.5 -329.7,-10.5 0,0 -62.4,171.3 -130.3,374.3 -67.8,203.1 19.5,372.3 20.2,395.7 0.6,23.5 -7,255.6 134.5,354.9 141.6,99.2 367.3,171 443.5,188.9 76.3,17.9 184.7,-14.7 268.6,-14.1 84,0.5 129.5,34.2 194.5,-17.7" /><path
         id="path322"
         style="fill:#dc9b70;fill-opacity:1;fill-rule:nonzero;stroke:none"
         d="m 15157.4,12285.1 c 0,71.6 30.1,151.6 30.1,151.6 l -12.2,113 c 0,0 11.8,-30.3 32.5,-57 58.5,-18.3 150.3,88.7 150.3,88.7 -29.3,-145.1 -127.1,-157.7 -127.1,-157.7 -11.5,-41.7 -28.2,-109.1 -30.2,-155.9 -3,-72.2 18.9,-180.4 18.9,-180.4 0,0 -62.4,126.1 -62.3,197.7" /><g
         transform="scale(1.12688)"
         id="g324"><path
           id="path326"
           style="fill:#fbc398;fill-opacity:1;fill-rule:nonzero;stroke:none"
           d="m 15688.9,9906.65 c 0,0 -27.2,155.25 -35,190.25 -7.7,35 17.5,128.1 17.5,128.1 l 133.2,-60 53.4,142.1 -128.5,61.4 c 0,0 45.1,102 80.1,113.7 35.1,11.7 93.4,0 93.4,0 0,0 54.5,29.9 101.2,5.2 46.7,-24.6 77.9,-47.2 77.9,-47.2 0,0 66.2,-8.6 89.5,-43.6 23.3,-35 31.1,-54.2 31.1,-54.2 0,0 74,-35.3 85.7,-109.3 11.6,-73.9 -105.2,-334.72 -264.7,-482.63 -159.6,-147.9 -334.8,156.18 -334.8,156.18" /></g><g
         transform="scale(1.02923)"
         id="g328"><path
           id="path330"
           style="fill:#dfdfdd;fill-opacity:1;fill-rule:nonzero;stroke:none"
           d="m 16300,11711.5 c -664.3,14.3 -3422,-18.6 -3571.3,-46.3 -58.4,-10.8 -255.3,-102.9 -494.2,-224.6 v -224.9 c 225.9,103.4 523.1,238.5 589.7,262 104.2,36.8 3101.9,91.1 3475.8,70.3 v 163.5" /></g><g
         transform="scale(1.04782)"
         id="g332"><path
           id="path334"
           style="fill:#494a4b;fill-opacity:1;fill-rule:nonzero;stroke:none"
           d="m 13867.3,11419.4 c -1.9,0 -3.9,0.1 -5.9,0.4 -21.3,3.3 -35.8,23.2 -32.6,44.4 l 740.6,4800 c 3.2,21.2 23.1,35.8 44.4,32.5 21.3,-3.3 35.8,-23.1 32.5,-44.4 l -740.6,-4800 c -2.9,-19.2 -19.5,-32.9 -38.4,-32.9" /></g><path
         id="path336"
         style="fill:#dfdfdd;fill-opacity:1;fill-rule:nonzero;stroke:none"
         d="m 14615.4,12083.4 -170,-0.1 c -42.6,0 -77.1,-34.5 -77.1,-77.1 0,-42.6 34.5,-77.2 77.1,-77.1 h 170 c 42.6,0 77.1,34.5 77.1,77.1 0,42.6 -34.5,77.2 -77.1,77.2" /><g
         transform="scale(1.0214)"
         id="g338"><path
           id="path340"
           style="fill:#797a7b;fill-opacity:1;fill-rule:nonzero;stroke:none"
           d="m 16300,14489.9 c 0,-129.2 -104.8,-233.9 -233.9,-233.9 -129.2,0 -233.9,104.7 -233.9,233.9 0,129.2 104.7,233.9 233.9,233.9 129.1,0 233.9,-104.7 233.9,-233.9" /></g><path
         id="path342"
         style="fill:#797a7b;fill-opacity:1;fill-rule:nonzero;stroke:none"
         d="m 15801.2,14477.8 c 0,0 -42.8,-105.3 -19.7,-273 23,-167.8 62.5,-227 62.5,-227 0,0 -79,-95.4 -190.8,-55.9 -111.9,39.4 -115.7,457.1 -69.1,555.9 46.6,98.8 157.9,78.9 217.1,0" /></g></g></svg>