<?xml version="1.0" encoding="UTF-8" standalone="no"?>
<svg
   xmlns:dc="http://purl.org/dc/elements/1.1/"
   xmlns:cc="http://creativecommons.org/ns#"
   xmlns:rdf="http://www.w3.org/1999/02/22-rdf-syntax-ns#"
   xmlns:svg="http://www.w3.org/2000/svg"
   xmlns="http://www.w3.org/2000/svg"
   viewBox="0 0 2666.6667 2666.6667"
   height="2666.6667"
   width="2666.6667"
   xml:space="preserve"
   id="svg2"
   version="1.1"><metadata
     id="metadata8"><rdf:RDF><cc:Work
         rdf:about=""><dc:format>image/svg+xml</dc:format><dc:type
           rdf:resource="http://purl.org/dc/dcmitype/StillImage" /></cc:Work></rdf:RDF></metadata><defs
     id="defs6" /><g
     transform="matrix(1.3333333,0,0,-1.3333333,0,2666.6667)"
     id="g10"><g
       transform="scale(0.1)"
       id="g12"><g
         transform="scale(1.22699)"
         id="g14"><path
           id="path16"
           style="fill:#ffffff;fill-opacity:1;fill-rule:nonzero;stroke:none"
           d="M 16300,0 H 0 V 16300 H 16300 V 0" /></g><g
         transform="scale(1.01511)"
         id="g18"><path
           id="path20"
           style="fill:#494a4b;fill-opacity:1;fill-rule:nonzero;stroke:none"
           d="m 14322.1,11614 c -1.9,-0.2 -3.8,-0.2 -5.7,-0.1 -20.4,1.4 -35.9,19 -34.5,39.4 l 306,4610.9 c 1.2,20.3 18.9,35.8 39.3,34.4 20.5,-1.3 35.8,-18.9 34.5,-39.3 l -305.9,-4610.9 c -1.3,-18.5 -15.8,-32.9 -33.7,-34.4" /></g><path
         id="path22"
         style="fill:#c37140;fill-opacity:1;fill-rule:nonzero;stroke:none"
         d="m 13628,11626.7 -194,-116 c 0,0 -363.9,-30.4 -527.6,-218.3 -163.8,-188 -212.3,-551.9 -212.3,-551.9 0,0 -115.2,-319.9 -206.2,-405.6 0,0 -439.3,369.2 -522.8,460.2 -83.6,91 -95.7,145.5 -95.7,145.5 l -272.9,-133.4 c 0,0 60.6,-151.6 66.7,-169.8 6.1,-18.2 139.5,-373.8 272.9,-575 133.4,-201.2 297.1,-280 376,-407.4 78.8,-127.3 266.8,-90.9 300.2,-72.8 33.3,18.2 240,103.1 415.6,218.4 175.6,115.2 230.2,151.6 230.2,151.6 l 109.2,-188 369.9,36.4 222.4,873.2 -331.6,952.9" /><path
         id="path24"
         style="fill:#c1bfbd;fill-opacity:1;fill-rule:nonzero;stroke:none"
         d="m 15501.9,12705.3 -528,-182.6 -4.1,-544.1 532.1,235.5 v 491.2" /><path
         id="path26"
         style="fill:#c1bfbd;fill-opacity:1;fill-rule:nonzero;stroke:none"
         d="m 15280.5,13702.9 106.1,-36.4 h 188 l -118.2,457.9 -109.2,3 -118.3,-179.3 51.6,-245.2" /><path
         id="path28"
         style="fill:#494a4b;fill-opacity:1;fill-rule:nonzero;stroke:none"
         d="m 15913.1,14523.4 c -14.1,0 -27.5,7.9 -34,21.4 l -754.8,1576.6 c -8.9,18.8 -1,41.2 17.7,50.2 18.8,9 41.2,1 50.1,-17.7 l 754.8,-1576.7 c 9,-18.7 1.1,-41.2 -17.6,-50.1 -5.3,-2.5 -10.8,-3.7 -16.2,-3.7" /><g
         transform="scale(1.03102)"
         id="g30"><path
           id="path32"
           style="fill:#c1bfbd;fill-opacity:1;fill-rule:nonzero;stroke:none"
           d="M 16300,11879.9 H 15176.6 V 12323 H 16300 v -443.1" /></g><path
         id="path34"
         style="fill:#c1bfbd;fill-opacity:1;fill-rule:nonzero;stroke:none"
         d="M 15501.9,13684.7 V 8460.4 h 145.5 v 5224.3 h -145.5" /><g
         transform="scale(1.01949)"
         id="g36"><path
           id="path38"
           style="fill:#c1bfbd;fill-opacity:1;fill-rule:nonzero;stroke:none"
           d="m 16300,14632.7 h -142.8 V 8500.81 h 142.8 v 6131.89" /></g><path
         id="path40"
         style="fill:#494a4b;fill-opacity:1;fill-rule:nonzero;stroke:none"
         d="m 15913,14371.7 h -89.7 V 8881.8 h 89.7 v 5489.9" /><path
         id="path42"
         style="fill:#797a7b;fill-opacity:1;fill-rule:nonzero;stroke:none"
         d="m 15605,7065.6 c 12.1,-48.5 36.3,-1594.9 36.3,-1594.9 l -18.2,-97 -194.6,31.5 c 0,0 -90.6,1744.2 -53.9,1743.2 36.6,-0.9 230.4,-82.8 230.4,-82.8" /><g
         transform="scale(1.03363)"
         id="g44"><path
           id="path46"
           style="fill:#494a4b;fill-opacity:1;fill-rule:nonzero;stroke:none"
           d="m 15138.4,10514.7 1161.6,-126.5 -41,-3062.53 h -1120.6 v 3189.03" /></g><g
         transform="scale(1.03102)"
         id="g48"><path
           id="path50"
           style="fill:#c1bfbd;fill-opacity:1;fill-rule:nonzero;stroke:none"
           d="m 15176.6,9293.86 1123.4,-23.47 v -347.03 h -1123.4 v 370.5" /></g><path
         id="path52"
         style="fill:#c1bfbd;fill-opacity:1;fill-rule:nonzero;stroke:none"
         d="m 15174.4,6643.9 24.3,-1203.5 h 297.1 l -24.3,1625.2 c 0,0 -189.8,-66.7 -210.1,-109.2 -20.3,-42.4 -87,-312.5 -87,-312.5" /><path
         id="path54"
         style="fill:#c1bfbd;fill-opacity:1;fill-rule:nonzero;stroke:none"
         d="m 14796.9,5206.9 h 172.902 v 9711.03 H 14796.9 Z" /><path
         id="path56"
         style="fill:#969797;fill-opacity:1;fill-rule:nonzero;stroke:none"
         d="m 14637.7,5498 c 63.7,-9.1 858.1,-57.6 858.1,-57.6 0,0 26,-142.7 -66.7,-175.9 -92.7,-33.2 -539.7,-163.7 -539.7,-163.7 l -119.3,110.8 -132.4,286.4" /><path
         id="path58"
         style="fill:#969797;fill-opacity:1;fill-rule:nonzero;stroke:none"
         d="m 14555.8,6701.7 163.8,-260.7 v -618.6 l -81.9,-324.4 -568.6,-269.9 559.5,-84.9 c 0,0 280.1,711.9 286.4,740.9 6.2,29 -25.6,623.6 -25.6,623.6 l -236.5,236.5 -97.1,-42.5" /><g
         transform="scale(1.07604)"
         id="g60"><path
           id="path62"
           style="fill:#969797;fill-opacity:1;fill-rule:nonzero;stroke:none"
           d="m 13645.6,6174.42 c 21.7,-5.76 146.6,-188.56 146.6,-188.56 l 101.4,-33.83 v -332.52 l -298.7,-1386.38 839.7,495.89 c 0,0 1471,-84.48 1487.8,-73.23 16.9,11.24 377.6,304.36 377.6,304.36 l -1899.2,95.81 -507.2,-264.86 358.1,1580.62 -234.1,-59.02 -39.5,-326.84 -162.6,234.28 -169.9,-45.72" /></g><g
         transform="scale(1.02321)"
         id="g64"><path
           id="path66"
           style="fill:#797a7b;fill-opacity:1;fill-rule:nonzero;stroke:none"
           d="m 16300,7166.09 h -171.8 V 5133.27 h 171.8 v 2032.82" /></g><g
         transform="scale(1.02321)"
         id="g68"><path
           id="path70"
           style="fill:#c37140;fill-opacity:1;fill-rule:nonzero;stroke:none"
           d="m 15482.2,7201.66 c 35.5,-41.54 94.8,-296.32 94.8,-296.32 0,0 -278.6,-177.78 -343.7,-491.89 -65.2,-314.2 35.4,-551.2 0,-794.26 -35.6,-242.96 -112.7,-681.49 -189.7,-788.21 -77.1,-106.72 -177.8,-219.31 -100.8,-355.55 77,-136.33 325.9,-106.72 486,-71.15 160,35.58 486,41.44 533.4,59.23 47.4,17.79 77.1,53.36 77.1,53.36 0,0 130.3,0 124.4,59.23 -5.9,59.32 -23.7,77.1 -65.2,94.89 -41.5,17.79 -65.2,65.19 -148.2,82.98 -83,17.78 -124.4,5.86 -254.8,47.4 -130.3,41.43 -189.7,65.18 -189.7,65.18 0,0 112.6,397.09 189.7,527.46 77,130.38 308.2,598.61 403,894.93 94.9,296.33 118.5,468.24 118.5,468.24 0,0 83,142.2 83,408.91 0,266.71 -201.5,604.56 -201.5,604.56 0,0 -367.4,-124.5 -408.9,-177.87 -41.5,-53.26 -207.4,-391.12 -207.4,-391.12" /></g><path
         id="path72"
         style="fill:#c37140;fill-opacity:1;fill-rule:nonzero;stroke:none"
         d="m 13703.8,6643.9 c 0,-27.1 -33.3,-360.6 63.7,-742.7 97,-382 84.9,-660.9 54.6,-758 -30.4,-97 -51,-163.7 -51,-163.7 0,0 -20.8,-12.1 -72.8,-42.5 -52.1,-30.3 -89.4,-54.5 -52.6,-103.1 36.9,-48.5 109.7,-78.8 164.2,-175.8 54.6,-97 303.3,-42.5 370,0 66.7,42.4 12.1,254.7 30.3,327.5 18.2,72.7 -46.7,460.8 3.9,576.1 50.7,115.2 287.2,781.9 293.2,1082.2 6.1,300.4 -803.5,0 -803.5,0" /><g
         transform="scale(1.00423)"
         id="g74"><path
           id="path76"
           style="fill:#b36239;fill-opacity:1;fill-rule:nonzero;stroke:none"
           d="m 15774.7,5912.57 c 386.5,356.3 495.1,851.5 495.1,851.5 30.2,-670.26 -495.1,-851.5 -495.1,-851.5" /></g><path
         id="path78"
         style="fill:#b36239;fill-opacity:1;fill-rule:nonzero;stroke:none"
         d="m 14192,6046.8 c 0,0 -266.8,212.2 -54.6,533.6 0,0 -45.6,-257.5 54.6,-533.6" /><path
         id="path80"
         style="fill:#494a4b;fill-opacity:1;fill-rule:nonzero;stroke:none"
         d="m 12118,6155.9 -376,-3032.1 h 291.1 l 460.9,3189.8 -376,-157.7" /><g
         transform="scale(1.04163)"
         id="g82"><path
           id="path84"
           style="fill:#797a7b;fill-opacity:1;fill-rule:nonzero;stroke:none"
           d="m 16300,14321.8 h -165.9 V 4998.82 h 165.9 v 9322.98" /></g><path
         id="path86"
         style="fill:#636567;fill-opacity:1;fill-rule:nonzero;stroke:none"
         d="m 12688.1,6365.2 -436.7,-3108 -218.3,-133.4 460.9,3189.8 194.1,51.6" /><path
         id="path88"
         style="fill:#797a7b;fill-opacity:1;fill-rule:nonzero;stroke:none"
         d="m 15939.2,7231.5 -1777.5,119.1 -3114,-870.2 c 0,0 -45.5,-48.5 -72.8,-115.2 -27.3,-66.7 -27.3,-294.1 36.4,-330.5 63.7,-36.4 1507,-103.1 1616.1,-97.1 86.7,4.9 2374.7,801.9 3311.8,1129.4 v 164.5" /><g
         transform="scale(1.0691)"
         id="g90"><path
           id="path92"
           style="fill:#c37140;fill-opacity:1;fill-rule:nonzero;stroke:none"
           d="m 14500,9371.33 41.5,40.72 c 0,0 249.7,-212.8 506.8,-301.66 257.1,-88.86 502.9,-240.11 620.1,-224.96 117.2,15.06 393.4,249.56 480.3,487.79 86.9,238.24 151.3,831.98 151.3,831.98 0,0 -317.7,201.3 -325.2,151.7 -7.6,-49.6 -27.5,-212.3 -174.5,-371.08 -147,-158.83 -302,-242.02 -302,-242.02 0,0 -200.5,177.74 -389.5,238.24 0,0 -64.3,518.06 -347.9,680.66 -217.9,124.9 -385.6,120.4 -500.1,115.9 -34.5,-1.4 -64.2,-2.7 -88.9,-0.5 -106.9,9.4 -371.7,-232.6 -371.7,-232.6 l 86.6,-650.43 201,-483.02 241.9,-159.86 170.3,119.14" /></g><path
         id="path94"
         style="fill:#b36239;fill-opacity:1;fill-rule:nonzero;stroke:none"
         d="m 13443.2,10199.5 c -16.5,0 -33.7,0.6 -51.7,2 -276.8,21.5 -218.3,133.4 -218.3,133.4 0,0 116.1,-32.5 283.2,-32.5 23.9,0 48.8,0.7 74.6,2.2 206.2,12.1 244.6,30.3 244.6,30.3 0,0 -93.8,-135.4 -332.4,-135.4" /><path
         id="path96"
         style="fill:#cda28a;fill-opacity:1;fill-rule:nonzero;stroke:none"
         d="m 14982.3,10251.9 c -4.2,1.1 -8.4,2.1 -12.5,3.3 v 26.9 l 12.5,-30.2 m -185.4,101.8 c -4.4,4.8 -6.5,7.6 -6.5,7.6 0,0 1.8,-0.7 6.5,-1.9 v -5.7" /><path
         id="path98"
         style="fill:#af8570;fill-opacity:1;fill-rule:nonzero;stroke:none"
         d="m 14969.8,10255.2 c -100.3,27.1 -155.1,79 -172.9,98.5 v 5.7 c 13.9,-3.6 52.9,-11.2 147.3,-16 l 25.6,-61.3 v -26.9" /><path
         id="path100"
         style="fill:#b36239;fill-opacity:1;fill-rule:nonzero;stroke:none"
         d="m 15104.5,10238.1 c -46.3,0 -86.9,5.3 -122.2,13.8 l -12.5,30.2 -25.6,61.3 c 26.2,-1.3 56.5,-2.4 91.8,-3.1 8.9,-0.2 17.7,-0.3 26.3,-0.3 192.8,0 330.1,44.1 330.1,44.1 0,0 62.6,-109.7 -213.2,-141.6 -26.4,-3 -51.3,-4.4 -74.7,-4.4" /><g
         transform="scale(1.01056)"
         id="g102"><path
           id="path104"
           style="fill:#252323;fill-opacity:1;fill-rule:nonzero;stroke:none"
           d="m 13443,8600 c 0,0 -152.5,-288.06 -112,-828.16 40.6,-540 208.6,-684.07 442.7,-684.07 234,0 390.1,66 528,54.02 138,-11.97 276.1,-143.98 660.1,-84.01 384.1,59.97 810.2,-66 810.2,-66 0,0 234,138.04 366,396.02 132,258.07 162,480.13 162,480.13 0,0 -246,300.03 -576,480.03 -330.1,180 -486.1,227.99 -486.1,227.99 0,0 -1116.2,174.07 -1272.2,162.09 C 13809.7,8725.97 13443,8600 13443,8600" /></g><g
         transform="scale(1.01171)"
         id="g106"><path
           id="path108"
           style="fill:#a45634;fill-opacity:1;fill-rule:nonzero;stroke:none"
           d="m 16281.5,7133.7 c 18.5,-11.37 -245.7,23.92 -527.4,-149.85 l 184.7,149.85 c 0,0 160.5,111.99 342.7,0" /></g><path
         id="path110"
         style="fill:#a45634;fill-opacity:1;fill-rule:nonzero;stroke:none"
         d="m 13771.1,4979.5 c 0,0 57,-109.2 87.4,-157.7 30.3,-48.5 60.6,-78.8 66.7,-60.6 6,18.2 -128.9,299.5 -128.9,299.5 l -25.2,-81.2" /><path
         id="path112"
         style="fill:#797a7b;fill-opacity:1;fill-rule:nonzero;stroke:none"
         d="m 14840.9,6441 -424.5,-1886 h 212.2 l 321.4,1491.8 v 357.8 l -109.1,36.4" /><g
         transform="scale(1.05781)"
         id="g114"><path
           id="path116"
           style="fill:#d0d0cb;fill-opacity:1;fill-rule:nonzero;stroke:none"
           d="m 13786.8,14243.9 201.4,-141.2 H 16300 l -286.6,241.5 -2226.6,-100.3" /></g><g
         transform="scale(1.03921)"
         id="g118"><path
           id="path120"
           style="fill:#797a7b;fill-opacity:1;fill-rule:nonzero;stroke:none"
           d="m 14033.6,14634.1 v -135.2 L 16300,14601 v 134.2 l -2266.4,-101.1" /></g><g
         transform="scale(1.05781)"
         id="g122"><path
           id="path124"
           style="fill:#494a4b;fill-opacity:1;fill-rule:nonzero;stroke:none"
           d="m 16300,14102.7 v 141.2 l -286.6,232.2 v -131.9 l 286.6,-241.5" /></g><g
         transform="scale(1.03655)"
         id="g126"><path
           id="path128"
           style="fill:#c1bfbd;fill-opacity:1;fill-rule:nonzero;stroke:none"
           d="m 15095.7,13202.2 -453.5,2790.6 c 0,0 -55.5,260.4 -137.4,283.8 -81.9,23.4 -374.4,-46.8 -409.5,-134.6 -35.2,-87.7 466.9,-2832.8 466.9,-2832.8 l -10.6,-1449.1 122.9,0.6 24.1,1549.2 -329.5,2293.4 72.9,17.5 513.3,-2518.6 h 140.4" /></g><g
         transform="scale(1.02395)"
         id="g130"><path
           id="path132"
           style="fill:#c1bfbd;fill-opacity:1;fill-rule:nonzero;stroke:none"
           d="m 16300,14035.5 h -627.8 v 109.9 h 627.8 v -109.9" /></g><path
         id="path134"
         style="fill:#c1bfbd;fill-opacity:1;fill-rule:nonzero;stroke:none"
         d="m 15950.4,14371.7 h -494 v 98.3 h 494 v -98.3" /><path
         id="path136"
         style="fill:#c1bfbd;fill-opacity:1;fill-rule:nonzero;stroke:none"
         d="m 15193.2,13707.9 98.4,-1075.3 129.3,44.7 -77.9,1118.3 -149.8,-87.7" /><path
         id="path138"
         style="fill:#a45634;fill-opacity:1;fill-rule:nonzero;stroke:none"
         d="m 13088.3,10594.9 c 0,0 66.7,-375.9 169.8,-642.7 l -106,-70.1 c 0,0 -124.4,282.3 -63.8,712.8" /><g
         transform="scale(1.11845)"
         id="g140"><path
           id="path142"
           style="fill:#dfdfdd;fill-opacity:1;fill-rule:nonzero;stroke:none"
           d="m 10108.1,9849.69 c -7.4,-6.45 -127.45,37.96 -157.22,-40.66 -29.86,-78.62 48.73,-173.58 111.12,-165.41 62.3,8.18 108.4,108.49 116.5,122.04 8.2,13.55 650.7,336.14 672.4,344.24 21.7,8.2 634.2,292.8 726.4,325.4 92.3,32.5 2857.5,81.3 2976.8,56.9 119.3,-24.4 1423.2,-626.24 1423.2,-626.24 0,0 78.7,-168.07 200.7,-127.42 122,40.67 94.8,203.34 13.5,235.86 -81.3,32.5 -162.6,5.42 -162.6,5.42 0,0 -1271.5,623.58 -1385.4,647.98 -113.8,24.4 -3005.9,-7.4 -3147.2,-33.5 -141.2,-26.2 -1237.9,-612.42 -1388.2,-744.61" /></g><path
         id="path144"
         style="fill:#a45634;fill-opacity:1;fill-rule:nonzero;stroke:none"
         d="m 12487.9,10334.9 c 0,0 -66.7,-140.2 -36.3,-316 0,0 -80.1,148.3 -21.9,365.2 l 58.2,-49.2" /><path
         id="path146"
         style="fill:#a45634;fill-opacity:1;fill-rule:nonzero;stroke:none"
         d="m 13100.4,11001.3 c 0,0 -278.9,-91 -406.3,-260.8 0,0 30.3,291.1 406.3,260.8" /><path
         id="path148"
         style="fill:#c37140;fill-opacity:1;fill-rule:nonzero;stroke:none"
         d="m 11596.5,10807.2 c 0,0 -54.6,81.9 -54.6,112.2 0,30.3 -106.1,251.7 -87.9,330.5 0,0 18.2,60.7 45.5,75.8 27.3,15.2 27.3,15.2 27.3,15.2 0,0 21.2,57.6 69.7,63.7 48.5,6 48.5,6 48.5,6 0,0 9.1,33.4 63.7,36.4 54.6,3 106.1,36.4 145.5,42.4 39.4,6.1 124.2,-70 124.2,-70 0,0 -57.9,-36 -61,-78.5 -3,-42.4 39.9,-94 61.1,-100.1 21.3,-6 157.7,66.7 157.7,66.7 0,0 30.3,-66.7 0,-127.3 -30.3,-60.7 -27.3,-106.2 -84.9,-160.7 -57.6,-54.6 -181.9,-78.9 -181.9,-78.9 0,0 -15.2,-157.6 -27.3,-154.6 -12.1,3 -245.6,21.2 -245.6,21.2" /><path
         id="path150"
         style="fill:#a45634;fill-opacity:1;fill-rule:nonzero;stroke:none"
         d="m 15501.9,10902.2 c 0,0 145.5,-210.2 411.1,-181.9 l -411.1,181.9" /><g
         transform="scale(1.02926)"
         id="g152"><path
           id="path154"
           style="fill:#a45634;fill-opacity:1;fill-rule:nonzero;stroke:none"
           d="m 16098.2,10121 c 0,0 102.1,-117.9 74.6,-290.69 0,0 127.2,154.34 4.7,340.39 l -79.3,-49.7" /></g><path
         id="path156"
         style="fill:#b36239;fill-opacity:1;fill-rule:nonzero;stroke:none"
         d="m 12558.6,10062.4 c 295,213.4 256.8,532.5 256.8,532.5 151.6,-479.1 -256.8,-532.5 -256.8,-532.5" /><g
         transform="scale(1.01652)"
         id="g158"><path
           id="path160"
           style="fill:#b36239;fill-opacity:1;fill-rule:nonzero;stroke:none"
           d="m 16300,9898.92 c -494.3,76.86 -482.8,470.98 -472.2,470.98 0.3,0 0.5,-0.2 0.8,-0.8 142.6,-290.6 471.4,-470.18 471.4,-470.18" /></g><path
         id="path162"
         style="fill:#e9eef1;fill-opacity:1;fill-rule:nonzero;stroke:none"
         d="m 14026.5,11759.3 -250.9,-36.4 -147.6,-96.2 c 0,0 61.4,-346.5 0,-880.1 -61.4,-533.7 -260.7,-982.4 -260.7,-982.4 0,0 200.1,-260.8 230.4,-412.4 30.3,-151.6 -48.2,-747.9 -48.2,-747.9 0,0 299.6,-62.3 1011.9,-76.8 712.3,-14.5 940.5,99.9 940.5,99.9 0,0 -36.4,128.5 -32.4,330.6 4.1,202.2 -77.4,454.8 -71,624.6 6.3,169.8 103.4,436.7 103.4,436.7 0,0 -305.1,109.1 -373.9,673.1 -68.8,564 23.1,830.8 23.1,830.8 l -260,163.7 -864.6,72.8" /><path
         id="path164"
         style="fill:#c6cbcc;fill-opacity:1;fill-rule:nonzero;stroke:none"
         d="m 14175.9,10510.1 c 0,0 76.7,-460.9 119.2,-849 42.4,-388.1 38.3,-642.8 38.3,-642.8 0,0 -74.7,527.6 -117.2,745.9 -42.4,218.3 -40.3,745.9 -40.3,745.9" /><path
         id="path166"
         style="fill:#c6cbcc;fill-opacity:1;fill-rule:nonzero;stroke:none"
         d="m 13870.6,9739.9 c 0,0 -42.5,-278.9 -151.6,-570 0,0 242.5,157.6 151.6,570" /><path
         id="path168"
         style="fill:#c6cbcc;fill-opacity:1;fill-rule:nonzero;stroke:none"
         d="m 14891.1,10000.7 c 0,0 151.7,-303.2 272.1,-473 0,0 -264.2,78.8 -272.1,473" /><path
         id="path170"
         style="fill:#c37140;fill-opacity:1;fill-rule:nonzero;stroke:none"
         d="m 13959.6,11876.5 -184,-153.6 c 0,0 210.2,-48.5 289,-151.6 78.9,-103.1 154.2,-81.5 154.2,-81.5 0,0 100.5,57.3 233.9,87.6 133.5,30.3 438.4,109.1 438.4,109.1 l -250.4,379.1 -681.1,-189.1" /><path
         id="path172"
         style="fill:#c37140;fill-opacity:1;fill-rule:nonzero;stroke:none"
         d="m 14760.8,11851.8 c -12.6,33.5 -20,62.6 -17.3,68.5 4.9,11 132,10.6 157.7,38.4 25.8,27.9 20.4,74.2 23.8,169.1 3.5,95 58.5,197.4 60,243.3 1.5,45.8 -65.4,283.5 -68.7,300.4 -3.4,16.8 2.3,121.7 3.9,161.6 1.6,39.9 -76.9,203.7 -76.9,203.7 0,0 -194.5,-37.2 -207.3,-51.1 0,0 -399.4,-323 -471.1,-409 -55.9,-66.9 -125.5,-269.2 -159,-371.9 l -107.6,-428.5 862.5,75.5" /><path
         id="path174"
         style="fill:#2f1d16;fill-opacity:1;fill-rule:nonzero;stroke:none"
         d="m 14599.3,13443.2 c 0,0 148.5,-57.2 205.8,-185.2 57.4,-127.9 67,-201.3 38.2,-221.2 -28.7,-20 -47.5,-54.2 -49.4,-109.3 -1.8,-55.1 32.5,-110.2 -1.6,-163.8 -34.1,-53.7 -10.1,-153.4 -25.4,-172.8 -15.4,-19.4 -43.7,-16.5 -43.7,-16.5 0,0 2.2,150.4 -50.9,134.9 -53.1,-15.5 -120.9,-100 -116.2,-184.4 4.6,-84.3 52.3,-102.6 49.4,-130.9 -2.9,-28.3 10.2,-123.1 -35.9,-145 -46.1,-21.9 -158.4,-58.3 -256.6,-86.3 -98.2,-28 -334.3,-41.5 -334.3,-41.5 0,0 -86.2,144.2 -182.8,316.2 -96.7,172 -46.9,340.4 -50.4,361.7 -3.5,21.4 -50.6,230.2 60.3,344.6 110.9,114.4 302.8,218.6 368.7,248 66,29.4 169.7,18.7 245.6,33.7 75.9,15.1 111.3,53.5 179.2,17.8" /><path
         id="path176"
         style="fill:#a45634;fill-opacity:1;fill-rule:nonzero;stroke:none"
         d="m 14635.1,12151.4 c -12.4,64.8 1,142.4 1,142.4 l -30.6,100.2 c 0,0 15.9,-25.4 39.3,-46 v 0 c 56.1,-6.4 120.7,106.4 120.7,106.4 -1.4,-136.5 -87.7,-164.9 -87.7,-164.9 -3.2,-39.7 -6.6,-103.6 -0.3,-146.3 9.7,-65.8 48.3,-160 48.3,-160 0,0 -78.3,103.3 -90.7,168.2" /><g
         transform="scale(1.08671)"
         id="g178"><path
           id="path180"
           style="fill:#c37140;fill-opacity:1;fill-rule:nonzero;stroke:none"
           d="m 15715.9,10189.1 c 0,0 -26,148.3 -33.5,181.8 -7.4,33.5 16.8,122.5 16.8,122.5 l 127.4,-57.4 50.8,135.8 -122.7,58.7 c 0,0 43,97.5 76.5,108.7 33.5,11.2 89.3,0 89.3,0 0,0 52.1,28.5 96.7,5 44.6,-23.6 74.5,-45.1 74.5,-45.1 0,0 63.2,-8.3 85.5,-41.7 22.3,-33.5 29.8,-51.8 29.8,-51.8 0,0 70.6,-33.8 81.9,-104.5 11.1,-70.7 -100.5,-319.9 -253,-461.3 -152.6,-141.37 -320,149.3 -320,149.3" /></g><path
         id="path182"
         style="fill:#797a7b;fill-opacity:1;fill-rule:nonzero;stroke:none"
         d="m 16128.5,14424.4 c 0,-121.7 -98.6,-220.3 -220.2,-220.3 -121.6,0 -220.2,98.6 -220.2,220.3 0,121.6 98.6,220.2 220.2,220.2 121.6,0 220.2,-98.6 220.2,-220.2" /><path
         id="path184"
         style="fill:#797a7b;fill-opacity:1;fill-rule:nonzero;stroke:none"
         d="m 15347.2,14127.4 c 0,0 -39.4,-97 -18.2,-251.7 21.3,-154.6 57.6,-209.2 57.6,-209.2 0,0 -72.7,-87.9 -175.8,-51.5 -103.1,36.3 -106.6,421.4 -63.7,512.4 42.9,91 145.5,72.8 200.1,0" /><g
         transform="scale(1.01511)"
         id="g186"><path
           id="path188"
           style="fill:#494a4b;fill-opacity:1;fill-rule:nonzero;stroke:none"
           d="m 14516.6,14073 145.1,2186.3 c 1.3,20.4 -14,38 -34.5,39.3 -20.4,1.4 -38.1,-14.1 -39.3,-34.4 L 14442.5,14073 h 74.1" /></g><path
         id="path190"
         style="fill:#c1bfbd;fill-opacity:1;fill-rule:nonzero;stroke:none"
         d="m 6048.37,13707.9 98.38,-1075.3 129.29,44.7 -77.92,1118.3 -149.75,-87.7" /><path
         id="path192"
         style="fill:#c1bfbd;fill-opacity:1;fill-rule:nonzero;stroke:none"
         d="m 6135.65,13702.9 106.13,-36.4 h 187.99 l -118.26,457.9 -109.15,3 -118.32,-179.3 51.61,-245.2" /><path
         id="path194"
         style="fill:#252323;fill-opacity:1;fill-rule:nonzero;stroke:none"
         d="m 6768.19,14523.4 c -14.02,0 -27.47,7.9 -33.93,21.4 l -754.8,1576.6 c -8.97,18.8 -1.06,41.2 17.67,50.2 18.71,8.9 41.17,1 50.13,-17.7 l 754.81,-1576.7 c 8.96,-18.7 1.05,-41.2 -17.68,-50.1 -5.23,-2.5 -10.76,-3.7 -16.2,-3.7" /><path
         id="path196"
         style="fill:#c1bfbd;fill-opacity:1;fill-rule:nonzero;stroke:none"
         d="m 7545.59,14371.7 h -642.81 v 112.5 h 642.81 v -112.5" /><path
         id="path198"
         style="fill:#c1bfbd;fill-opacity:1;fill-rule:nonzero;stroke:none"
         d="m 6805.57,14371.7 h -494.06 v 98.3 h 494.06 v -98.3" /><path
         id="path200"
         style="fill:#797a7b;fill-opacity:1;fill-rule:nonzero;stroke:none"
         d="m 5824.9,14917.9 h -172.83 v -9711 h 172.83 v 9711" /><path
         id="path202"
         style="fill:#c1bfbd;fill-opacity:1;fill-rule:nonzero;stroke:none"
         d="m 6357,12705.3 -527.92,-182.6 -4.18,-544.1 532.1,235.5 v 491.2" /><path
         id="path204"
         style="fill:#c1bfbd;fill-opacity:1;fill-rule:nonzero;stroke:none"
         d="m 6502.54,12248.5 h 1158.27 v 456.828 H 6502.54 Z" /><path
         id="path206"
         style="fill:#c1bfbd;fill-opacity:1;fill-rule:nonzero;stroke:none"
         d="m 6502.54,9661.1 1158.27,-24.3 V 9279 H 6502.54 v 382.1" /><path
         id="path208"
         style="fill:#252323;fill-opacity:1;fill-rule:nonzero;stroke:none"
         d="M 6768.17,14371.7 H 6678.4 V 8881.8 h 89.77 v 5489.9" /><path
         id="path210"
         style="fill:#c1bfbd;fill-opacity:1;fill-rule:nonzero;stroke:none"
         d="m 7327.27,8666.5 h 145.551 v 6251.43 H 7327.27 Z" /><path
         id="path212"
         style="fill:#c1bfbd;fill-opacity:1;fill-rule:nonzero;stroke:none"
         d="M 6357,13684.7 V 8666.5 h 145.54 v 5018.2 H 6357" /><path
         id="path214"
         style="fill:#969797;fill-opacity:1;fill-rule:nonzero;stroke:none"
         d="M 5538.33,6643.9 C 5561.65,6637.7 5696,6441 5696,6441 l 109.15,-36.4 v -357.8 l -321.4,-1491.8 903.57,533.6 c 0,0 1582.76,-90.9 1600.96,-78.8 18.19,12.1 406.3,327.5 406.3,327.5 l -2043.65,103.1 -545.78,-285 385.26,1700.8 -251.85,-63.5 -42.44,-351.7 -174.96,252.1 -182.83,-49.2" /><path
         id="path216"
         style="fill:#797a7b;fill-opacity:1;fill-rule:nonzero;stroke:none"
         d="M 7472.82,5846.7 H 7357.6 v -594.3 h 115.22 v 594.3" /><path
         id="path218"
         style="fill:#494a4b;fill-opacity:1;fill-rule:nonzero;stroke:none"
         d="m 6696.59,5628.4 h 758.03 l 206.19,109.1 v 2981.8 l -964.22,141.3 -394.17,-103.1 -272.89,-385.1 297.14,-1306.8 369.92,-1437.2" /><path
         id="path220"
         style="fill:#797a7b;fill-opacity:1;fill-rule:nonzero;stroke:none"
         d="m 6460.09,7065.6 c 12.13,-48.5 36.38,-1594.9 36.38,-1594.9 l -18.19,-97 -194.69,31.5 c 0,0 -90.51,1744.2 -53.9,1743.2 36.61,-0.9 230.4,-82.8 230.4,-82.8" /><path
         id="path222"
         style="fill:#c1bfbd;fill-opacity:1;fill-rule:nonzero;stroke:none"
         d="m 6029.53,6643.9 24.25,-1203.5 h 297.15 l -24.26,1625.2 c 0,0 -189.89,-66.7 -210.16,-109.2 -20.27,-42.4 -86.98,-312.5 -86.98,-312.5" /><g
         transform="scale(1.03655)"
         id="g224"><path
           id="path226"
           style="fill:#c1bfbd;fill-opacity:1;fill-rule:nonzero;stroke:none"
           d="m 6273.27,13202.2 -453.57,2790.6 c 0,0 -55.42,260.4 -137.32,283.8 -81.91,23.4 -374.43,-46.8 -409.52,-134.6 -35.11,-87.7 466.95,-2832.8 466.95,-2832.8 l -10.63,-1449.1 122.86,0.6 24.15,1549.2 -329.54,2293.4 72.87,17.5 513.34,-2518.6 h 140.41" /></g><path
         id="path228"
         style="fill:#969797;fill-opacity:1;fill-rule:nonzero;stroke:none"
         d="M 5410.98,6701.7 5574.71,6441 v -618.6 l -81.87,-324.4 -568.57,-269.9 559.48,-84.9 c 0,0 280.1,711.9 286.35,740.9 6.24,29 -25.59,623.6 -25.59,623.6 l -236.51,236.5 -97.02,-42.5" /><path
         id="path230"
         style="fill:#969797;fill-opacity:1;fill-rule:nonzero;stroke:none"
         d="m 5492.84,5498 c 63.68,-9.1 858.09,-57.6 858.09,-57.6 0,0 26.03,-142.7 -66.7,-175.9 -92.74,-33.2 -539.72,-163.7 -539.72,-163.7 l -119.29,110.8 -132.38,286.4" /><path
         id="path232"
         style="fill:#797a7b;fill-opacity:1;fill-rule:nonzero;stroke:none"
         d="M 5696,6441 5271.5,4555 h 212.25 l 321.4,1491.8 v 357.8 L 5696,6441" /><path
         id="path234"
         style="fill:#797a7b;fill-opacity:1;fill-rule:nonzero;stroke:none"
         d="m 7833.64,14917.9 h -172.83 v -9711 h 172.83 v 9711" /><path
         id="path236"
         style="fill:#c37140;fill-opacity:1;fill-rule:nonzero;stroke:none"
         d="m 4558.95,6643.9 c 0,-27.1 -33.35,-360.6 63.68,-742.7 97.02,-382 84.89,-660.9 54.58,-758 -30.33,-97 -50.97,-163.7 -50.97,-163.7 0,0 -20.75,-12.1 -72.82,-42.5 -52.08,-30.3 -89.42,-54.5 -52.56,-103.1 36.86,-48.5 109.64,-78.8 164.22,-175.8 54.57,-97 303.21,-42.5 369.92,0 66.7,42.4 12.12,254.7 30.32,327.5 18.19,72.7 -46.71,460.8 3.93,576.1 50.64,115.2 287.15,781.9 293.21,1082.2 6.07,300.4 -803.51,0 -803.51,0" /><path
         id="path238"
         style="fill:#a45634;fill-opacity:1;fill-rule:nonzero;stroke:none"
         d="m 4992.54,6580.4 c 0,0 -45.61,-257.5 54.58,-533.6 0,0 -266.82,212.2 -54.58,533.6" /><path
         id="path240"
         style="fill:#a45634;fill-opacity:1;fill-rule:nonzero;stroke:none"
         d="m 4626.24,4979.5 c 0,0 57.03,-109.2 87.35,-157.7 30.32,-48.5 60.64,-78.8 66.71,-60.6 6.06,18.2 -128.84,299.5 -128.84,299.5 l -25.22,-81.2" /><path
         id="path242"
         style="fill:#494a4b;fill-opacity:1;fill-rule:nonzero;stroke:none"
         d="M 2973.15,6155.9 2597.17,3123.8 h 291.09 l 460.88,3189.8 -375.99,-157.7" /><path
         id="path244"
         style="fill:#636567;fill-opacity:1;fill-rule:nonzero;stroke:none"
         d="m 3543.19,6365.2 -436.62,-3108 -218.31,-133.4 460.88,3189.8 194.05,51.6" /><path
         id="path246"
         style="fill:#797a7b;fill-opacity:1;fill-rule:nonzero;stroke:none"
         d="m 1902.82,6480.4 c 0,0 -45.48,-48.5 -72.77,-115.2 -27.29,-66.7 -27.29,-294.1 36.38,-330.5 63.68,-36.4 1506.96,-103.1 1616.12,-97.1 C 3591.71,5943.7 7189,7205.1 7189,7205.1 L 5016.8,7350.6 1902.82,6480.4" /><path
         id="path248"
         style="fill:#c37140;fill-opacity:1;fill-rule:nonzero;stroke:none"
         d="m 6696.59,7368.8 c 36.39,-42.5 97.03,-303.2 97.03,-303.2 0,0 -285.02,-181.9 -351.73,-503.3 -66.7,-321.5 36.39,-564 0,-812.7 -36.38,-248.6 -115.22,-697.3 -194.05,-806.5 -78.84,-109.2 -181.93,-224.4 -103.09,-363.9 78.83,-139.4 333.53,-109.1 497.27,-72.7 163.73,36.4 497.26,42.4 545.78,60.6 48.51,18.2 78.83,54.6 78.83,54.6 0,0 133.41,0 127.35,60.6 -6.06,60.7 -24.26,78.9 -66.7,97.1 -42.46,18.2 -66.71,66.7 -151.61,84.9 -84.9,18.2 -127.35,6 -260.76,48.5 -133.42,42.4 -194.06,66.7 -194.06,66.7 0,0 115.22,406.3 194.06,539.7 78.83,133.4 315.34,612.5 412.37,915.7 97.02,303.2 121.28,479.1 121.28,479.1 0,0 84.9,145.5 84.9,418.4 0,272.9 -206.18,618.6 -206.18,618.6 0,0 -375.99,-127.4 -418.44,-182 -42.45,-54.5 -212.25,-400.2 -212.25,-400.2" /><path
         id="path250"
         style="fill:#252323;fill-opacity:1;fill-rule:nonzero;stroke:none"
         d="m 4440.04,8690.8 c 0,0 -154.09,-291.1 -113.1,-836.9 40.99,-545.7 210.78,-691.3 447.29,-691.3 236.51,0 394.18,66.7 533.66,54.6 139.47,-12.1 278.95,-145.5 667.06,-84.9 388.11,60.6 818.67,-66.7 818.67,-66.7 0,0 236.51,139.5 369.92,400.2 133.41,260.8 163.74,485.2 163.74,485.2 0,0 -248.64,303.2 -582.17,485.1 -333.53,181.9 -491.2,230.4 -491.2,230.4 0,0 -1127.95,175.9 -1285.62,163.8 -157.67,-12.2 -528.25,-139.5 -528.25,-139.5" /><path
         id="path252"
         style="fill:#d0d0cb;fill-opacity:1;fill-rule:nonzero;stroke:none"
         d="m 2075.65,13792.8 c 0,0 -141.5,-4 -173.84,-68.7 -32.35,-64.7 72.77,-169.8 149.58,-153.6 76.81,16.2 84.9,137.4 84.9,137.4 0,0 1374.56,743.9 1455.42,772.2 80.85,28.3 3896.27,223.7 4069.1,198.8 172.83,-24.9 1655.53,-647.5 1655.53,-647.5 0,0 64.69,-182 210.23,-121.3 145.54,60.6 52.56,226.4 -28.3,242.6 -80.86,16.1 -149.58,-8.1 -149.58,-8.1 0,0 -1443.29,630.7 -1641.39,671.1 -198.1,40.4 -4026.65,-157.7 -4158.04,-186 -131.39,-28.3 -1473.61,-836.9 -1473.61,-836.9" /><path
         id="path254"
         style="fill:#c37140;fill-opacity:1;fill-rule:nonzero;stroke:none"
         d="m 6381.25,10752.6 c 0,0 12.13,248.7 151.61,382.1 139.48,133.4 242.57,181.9 709.52,388.1 466.94,206.2 861.12,879.3 861.12,879.3 0,0 297.14,382.1 424.49,721.7 127.35,339.6 297.15,721.6 297.15,721.6 l -327.47,133.4 c 0,0 -175.86,-230.4 -448.75,-509.4 -272.89,-278.9 -445.72,-733.8 -445.72,-733.8 0,0 -288.05,-100.6 -439.66,-229.2 -151.6,-128.5 -375.98,-340.8 -375.98,-340.8 0,0 -297.15,22.4 -485.14,-58.5 -187.99,-81 -293.1,-194.2 -293.1,-194.2 l -543.76,-547.8 97.02,-491.2 266.5,-265.7 552.17,144.4" /><path
         id="path256"
         style="fill:#c37140;fill-opacity:1;fill-rule:nonzero;stroke:none"
         d="m 3900.98,10752.6 -206.18,485.2 c 0,0 -357.79,295.1 -446.73,424.5 -88.95,129.3 -133.42,240.6 -141.5,267.9 -8.09,27.2 -173.84,185.5 -266.83,401.5 -92.98,216 -125.33,296.8 -133.41,308.9 -8.09,12.2 -88.94,149.6 -157.67,400.3 -68.73,250.6 -97.03,400.2 -125.33,460.9 -28.3,60.6 -36.38,177.8 -36.38,177.8 l 355.76,64.7 c 0,0 -36.38,-133.4 121.29,-335.5 157.67,-202.2 323.43,-464.9 375.98,-574.1 52.56,-109.2 60.65,-137.5 60.65,-137.5 0,0 250.65,-8 343.63,-80.8 92.99,-72.8 214.27,-262.8 214.27,-262.8 0,0 270.88,8.1 436.63,-105.1 165.76,-113.2 248.63,-222.4 248.63,-222.4 l 167.78,-881.3 -291.08,-359.8 -519.51,-32.4" /><path
         id="path258"
         style="fill:#e9eef1;fill-opacity:1;fill-rule:nonzero;stroke:none"
         d="m 4979.1,11886.7 -348.39,78.8 -86.92,60.6 c 0,0 24.26,-363.8 -127.34,-709.5 -151.61,-345.7 -515.47,-564 -515.47,-564 0,0 139.48,-588.2 260.76,-794.4 121.29,-206.2 291.09,-545.8 309.28,-745.9 18.19,-200.1 -55.89,-527.6 -30.98,-521.5 24.92,6.1 685.92,-109.2 1019.45,-97 333.53,12.1 794.42,72.7 794.42,72.7 0,0 -30.33,564 -42.45,709.6 -12.13,145.5 -18.2,473 42.45,582.1 60.64,109.2 127.34,794.4 127.34,794.4 0,0 -363.85,272.9 -442.69,612.5 -78.83,339.6 70.76,547.8 70.76,547.8 l -101.08,-20.2 c 0,0 -634.72,-4 -654.93,8.1 -20.22,12.1 -274.21,-14.1 -274.21,-14.1" /><path
         id="path260"
         style="fill:#c37140;fill-opacity:1;fill-rule:nonzero;stroke:none"
         d="m 4996.28,12331.7 c 0,0 -21.93,-131.7 -127.04,-232.8 -105.11,-101.1 -238.53,-133.4 -238.53,-133.4 0,0 142.69,-54.8 271.36,-151.9 128.67,-97 224.38,-115.2 266.83,-121.3 42.45,-6 211.75,18.5 393.68,60.9 181.93,42.5 345.66,139.5 345.66,139.5 0,0 -218.31,72.8 -309.27,212.3 -90.97,139.4 -602.69,226.7 -602.69,226.7" /><path
         id="path262"
         style="fill:#dc9b70;fill-opacity:1;fill-rule:nonzero;stroke:none"
         d="m 5647.91,12247.1 c -0.9,66 25.78,140 25.78,140 l -12.7,104 c 0,0 11.28,-27.7 30.7,-52.1 54.14,-16 137.39,83.7 137.39,83.7 -25.12,-134.1 -115.07,-147 -115.07,-147 -10.06,-38.6 -24.59,-100.9 -25.81,-144.1 -1.88,-66.5 19.71,-166 19.71,-166 0,0 -59.1,115.5 -60,181.5" /><path
         id="path264"
         style="fill:#c6cbcc;fill-opacity:1;fill-rule:nonzero;stroke:none"
         d="m 4028.33,10601 c 0,0 151.61,-42.4 357.79,-30.3 206.18,12.1 244.59,30.3 244.59,30.3 0,0 -107.26,-154.8 -384.06,-133.4 -276.81,21.5 -218.32,133.4 -218.32,133.4" /><path
         id="path266"
         style="fill:#c6cbcc;fill-opacity:1;fill-rule:nonzero;stroke:none"
         d="m 6247.5,10650.2 c 0,0 -149.9,-48.2 -356.4,-43.8 -206.49,4.3 -245.56,21 -245.56,21 0,0 113.04,-150.7 388.84,-118.8 275.79,31.9 213.12,141.6 213.12,141.6" /><path
         id="path268"
         style="fill:#b36239;fill-opacity:1;fill-rule:nonzero;stroke:none"
         d="m 3641.13,12107.1 c -75.61,0 -214.41,19.1 -328.38,141.4 -165.75,177.9 -64.68,339.6 -64.68,339.6 16.17,-36.4 -8.09,-167.4 113.19,-293.9 121.29,-126.6 335.56,-183.2 335.56,-183.2 0,0 -21.33,-3.9 -55.69,-3.9" /><path
         id="path270"
         style="fill:#c37140;fill-opacity:1;fill-rule:nonzero;stroke:none"
         d="m 2742.71,13744.3 c 0,0 18.2,64.7 106.13,113.2 87.93,48.5 27.29,248.7 27.29,248.7 0,0 -79.08,-53.3 -88.18,-47.3 -9.09,6.1 -66.46,86.7 -66.46,107.9 0,21.2 84.26,58.7 84.26,58.7 0,0 -105.49,65.6 -135.81,77.8 -30.32,12.1 -84.9,0 -84.9,0 0,0 -63.67,32 -109.15,5.3 -45.48,-26.6 -69.74,-63 -69.74,-63 0,0 -45.48,-3 -66.71,-18.2 -21.22,-15.1 -33.35,-42.4 -36.38,-51.5 -3.04,-9.1 -48.51,-24.3 -54.58,-91 -6.06,-66.7 138.47,-405.3 138.47,-405.3 0,0 173.99,-101 186.04,-88.9 12.05,12.1 169.72,153.6 169.72,153.6" /><path
         id="path272"
         style="fill:#b36239;fill-opacity:1;fill-rule:nonzero;stroke:none"
         d="m 7111.93,12140.3 c -94.3,0 -160.64,19.2 -160.64,19.2 30.32,12.2 254.7,-11 442.69,134 187.99,145 230.45,260.2 230.45,260.2 0,0 -18.2,-230.4 -230.45,-345.6 -98.35,-53.4 -200.63,-67.8 -282.05,-67.8" /><path
         id="path274"
         style="fill:#b36239;fill-opacity:1;fill-rule:nonzero;stroke:none"
         d="m 7957.95,12784.2 c 236.51,212.2 357.8,582.1 357.8,582.1 -30.33,-427.6 -357.8,-582.1 -357.8,-582.1" /><path
         id="path276"
         style="fill:#c37140;fill-opacity:1;fill-rule:nonzero;stroke:none"
         d="m 8473.73,13948.2 c 23.94,30.6 39.74,106.4 0,161 -39.73,54.6 -42.77,285.9 -42.77,285.9 l 84.9,-28.2 c 0,0 -24.25,157.7 0,203.2 24.26,45.5 154.64,100 184.97,106.1 30.31,6.1 60.63,0 60.63,0 0,0 57.62,2.4 97.03,2.7 39.42,0.3 69.74,-33 69.74,-33 0,0 54.58,6 87.93,-33.4 33.36,-39.4 30.32,-97 30.32,-97 0,0 45.49,-6.1 57.62,-54.6 12.12,-48.5 -33.36,-48.5 -57.62,-169.8 -24.25,-121.3 -24.25,-200.1 -87.92,-297.1 -63.68,-97.1 -133.42,-148.6 -133.42,-148.6 0,0 -324.44,-72.8 -330.5,-42.5 -6.07,30.4 -20.91,145.3 -20.91,145.3" /><path
         id="path278"
         style="fill:#d6b3a0;fill-opacity:1;fill-rule:nonzero;stroke:none"
         d="m 8700.06,14676 c 0.26,0.1 0.52,0.2 0.77,0.2 -0.25,-0.1 -0.51,-0.1 -0.77,-0.2 m 0.77,0.2 c 6.94,1.4 13.89,2.1 20.47,2.5 -6.58,-0.4 -13.53,-1.1 -20.47,-2.5" /><path
         id="path280"
         style="fill:#b6643b;fill-opacity:1;fill-rule:nonzero;stroke:none"
         d="m 8628.91,14578.6 c -0.47,0 -0.76,0.2 -0.86,0.6 -1.71,6.8 35,54.9 67.44,95.7 1.66,0.5 3.21,0.8 4.57,1.1 0.26,0.1 0.52,0.1 0.77,0.2 v 0 0 c 6.94,1.4 13.89,2.1 20.47,2.5 2.99,0.1 5.9,0.2 8.7,0.2 6.09,0 11.67,-0.3 16.38,-0.7 -51.11,-47.2 -109.61,-99.6 -117.47,-99.6" /><path
         id="path282"
         style="fill:#b6643b;fill-opacity:1;fill-rule:nonzero;stroke:none"
         d="m 8825,14557.3 c -0.17,0 -0.13,0.2 0.14,0.6 3.7,5.6 34.44,68.6 57.87,117 26.78,-8.8 45.22,-29 45.22,-29 0,0 -99.6,-88.6 -103.23,-88.6" /><path
         id="path284"
         style="fill:#d6b3a0;fill-opacity:1;fill-rule:nonzero;stroke:none"
         d="m 9046.48,14515.5 v 0 0 0 m 0,0 c 0,0 0,0 0,0 0,0 0,0 0,0 m 0.01,0 v 0 0" /><path
         id="path286"
         style="fill:#b6643b;fill-opacity:1;fill-rule:nonzero;stroke:none"
         d="m 8967.39,14472 c -1.33,0 -2.28,0.3 -2.77,1.1 -4.35,6.5 42.77,72.3 69.77,109 13.62,-32.9 12.14,-65.7 12.1,-66.6 v 0 h -0.01 c 0,0 0,0 0,0 v 0 0 0 0 c 0,0 -64.01,-43.5 -79.09,-43.5" /><path
         id="path288"
         style="fill:#a45634;fill-opacity:1;fill-rule:nonzero;stroke:none"
         d="m 7327.28,7217.2 c 18.62,-11.5 -248.64,24.2 -533.66,-151.6 l 186.9,151.6 c 0,0 162.37,113.3 346.76,0" /><path
         id="path290"
         style="fill:#a45634;fill-opacity:1;fill-rule:nonzero;stroke:none"
         d="m 7193.86,6792.7 c 0,0 -109.15,-497.3 -497.27,-855.1 0,0 527.59,182 497.27,855.1" /><path
         id="path292"
         style="fill:#d0d0cb;fill-opacity:1;fill-rule:nonzero;stroke:none"
         d="m 5438.9,15067.3 213.17,-149.4 h 2445.36 l -303.21,255.6 -2355.32,-106.2" /><path
         id="path294"
         style="fill:#797a7b;fill-opacity:1;fill-rule:nonzero;stroke:none"
         d="m 5438.9,15207.8 v -140.5 l 2355.32,106.2 v 139.4 L 5438.9,15207.8" /><path
         id="path296"
         style="fill:#494a4b;fill-opacity:1;fill-rule:nonzero;stroke:none"
         d="m 8097.43,14917.9 v 149.4 l -303.21,245.6 v -139.4 l 303.21,-255.6" /><path
         id="path298"
         style="fill:#252323;fill-opacity:1;fill-rule:nonzero;stroke:none"
         d="m 6845.17,8806 h -221.35 v 151.6 h 221.35 V 8806" /><g
         transform="scale(1.01373)"
         id="g300"><path
           id="path302"
           style="fill:#252323;fill-opacity:1;fill-rule:nonzero;stroke:none"
           d="m 5575.54,14513.1 -2.04,0.1 c -20.45,1.1 -36.13,18.5 -35.02,39 l 92.94,1711.7 c 1.1,20.4 18.56,36.1 39.02,35 20.45,-1.1 36.13,-18.6 35.01,-39.1 l -92.93,-1711.6 c -1.07,-19.8 -17.43,-35.1 -36.98,-35.1" /></g><path
         id="path304"
         style="fill:#797a7b;fill-opacity:1;fill-rule:nonzero;stroke:none"
         d="m 6983.63,14424.4 c 0,-121.7 -98.59,-220.3 -220.21,-220.3 -121.62,0 -220.22,98.6 -220.22,220.3 0,121.6 98.6,220.2 220.22,220.2 121.62,0 220.21,-98.6 220.21,-220.2" /><path
         id="path306"
         style="fill:#797a7b;fill-opacity:1;fill-rule:nonzero;stroke:none"
         d="m 6202.36,14127.4 c 0,0 -39.42,-97 -18.19,-251.7 21.22,-154.6 57.61,-209.2 57.61,-209.2 0,0 -72.78,-87.9 -175.87,-51.5 -103.09,36.3 -106.62,421.4 -63.67,512.4 42.95,91 145.54,72.8 200.12,0" /><path
         id="path308"
         style="fill:#d0d0cb;fill-opacity:1;fill-rule:nonzero;stroke:none"
         d="m 5716.13,14824.7 -156.49,-7.4 c -39.22,-1.9 -69.5,-35.2 -67.64,-74.4 1.87,-39.2 35.18,-69.5 74.4,-67.6 l 156.49,7.4 c 39.22,1.9 69.51,35.2 67.64,74.4 -1.86,39.2 -35.17,69.5 -74.4,67.6" /><path
         id="path310"
         style="fill:#c37140;fill-opacity:1;fill-rule:nonzero;stroke:none"
         d="m 5671.48,11962.7 c -12.57,33.4 -19.99,62.5 -17.3,68.5 4.94,10.9 132,10.5 157.75,38.4 25.75,27.8 20.35,74.1 23.79,169.1 3.43,95 58.47,197.3 59.95,243.2 1.48,45.9 -65.39,283.5 -68.73,300.4 -3.35,16.9 2.38,121.8 3.95,161.7 1.57,39.8 -76.87,203.6 -76.87,203.6 0,0 -194.48,-37.1 -207.35,-51 0,0 -399.34,-323 -471.12,-409 -55.84,-66.9 -125.49,-269.3 -158.98,-371.9 l -107.55,-428.6 862.46,75.6" /><path
         id="path312"
         style="fill:#2f1d16;fill-opacity:1;fill-rule:nonzero;stroke:none"
         d="m 5509.95,13554.1 c 0,0 148.52,-57.3 205.88,-185.2 57.34,-127.9 66.93,-201.4 38.19,-221.3 -28.75,-19.9 -47.53,-54.2 -49.4,-109.3 -1.87,-55.1 32.5,-110.1 -1.63,-163.8 -34.13,-53.6 -10.09,-153.3 -25.44,-172.7 -15.34,-19.4 -43.64,-16.5 -43.64,-16.5 0,0 2.16,150.4 -50.91,134.9 -53.08,-15.5 -120.89,-100 -116.24,-184.4 4.65,-84.4 52.33,-102.6 49.42,-130.9 -2.92,-28.3 10.19,-123.1 -35.92,-145 -46.11,-22 -158.35,-58.4 -256.55,-86.4 -98.22,-28 -334.3,-41.5 -334.3,-41.5 0,0 -86.17,144.3 -182.82,316.3 -96.66,172 -46.89,340.4 -50.41,361.7 -3.52,21.3 -50.63,230.2 60.3,344.6 110.93,114.4 302.78,218.5 368.73,247.9 65.95,29.5 169.7,18.8 245.61,33.8 75.9,15.1 111.27,53.5 179.13,17.8" /><path
         id="path314"
         style="fill:#a45634;fill-opacity:1;fill-rule:nonzero;stroke:none"
         d="m 5545.82,12262.2 c -12.39,64.9 0.99,142.4 0.99,142.4 l -30.63,100.3 c 0,0 15.94,-25.4 39.31,-46 56.11,-6.4 120.71,106.4 120.71,106.4 -1.37,-136.5 -87.7,-164.9 -87.7,-164.9 -3.19,-39.7 -6.63,-103.6 -0.31,-146.3 9.73,-65.9 48.32,-160.1 48.32,-160.1 0,0 -78.31,103.4 -90.69,168.2" /></g></g></svg>