<?xml version="1.0" encoding="UTF-8" standalone="no"?>
<svg
   xmlns:dc="http://purl.org/dc/elements/1.1/"
   xmlns:cc="http://creativecommons.org/ns#"
   xmlns:rdf="http://www.w3.org/1999/02/22-rdf-syntax-ns#"
   xmlns:svg="http://www.w3.org/2000/svg"
   xmlns="http://www.w3.org/2000/svg"
   viewBox="0 0 2666.6667 2666.6667"
   height="2666.6667"
   width="2666.6667"
   xml:space="preserve"
   id="svg2"
   version="1.1"><metadata
     id="metadata8"><rdf:RDF><cc:Work
         rdf:about=""><dc:format>image/svg+xml</dc:format><dc:type
           rdf:resource="http://purl.org/dc/dcmitype/StillImage" /></cc:Work></rdf:RDF></metadata><defs
     id="defs6" /><g
     transform="matrix(1.3333333,0,0,-1.3333333,0,2666.6667)"
     id="g10"><g
       transform="scale(0.1)"
       id="g12"><g
         transform="scale(1.22699)"
         id="g14"><path
           id="path16"
           style="fill:none;fill-opacity:1;fill-rule:nonzero;stroke:none"
           d="M 16300,0 H 0 V 16300 H 16300 V 0" /></g><path
         id="path18"
         style="fill:#b55f39;fill-opacity:1;fill-rule:nonzero;stroke:none"
         d="m 12042,14717.1 h -1031.2 v 1031.1 H 12042 v -1031.1" /><path
         id="path20"
         style="fill:#606163;fill-opacity:1;fill-rule:nonzero;stroke:none"
         d="m 5810.5,12465.5 c 0,0 936.17,92.2 1893.81,105.4 957.64,13.1 1668.86,-204.2 1859.83,-454.4 190.98,-250.3 92.2,-540 -105.37,-645.4 -197.55,-105.3 -1635.7,-283.2 -1635.7,-283.2 l -329.54,467.6 1216.71,184.4 c 0,0 -288.05,270 -971.58,296.3 -683.53,26.4 -1598.89,-85.6 -1598.89,-85.6 l -329.27,414.9" /><path
         id="path22"
         style="fill:#818283;fill-opacity:1;fill-rule:nonzero;stroke:none"
         d="m 9564.14,12116.5 c -165.79,217.2 -723.73,409.6 -1494.56,448 139.96,-37.5 786.93,-222.6 874.95,-463.2 98.78,-270 -234.29,-261.4 -234.29,-261.4 l -1216.71,-184.4 329.54,-467.6 c 0,0 1438.15,177.9 1635.71,283.2 197.56,105.4 296.34,395.1 105.36,645.4" /><path
         id="path24"
         style="fill:#454547;fill-opacity:1;fill-rule:nonzero;stroke:none"
         d="m 8020.98,15154.1 21.95,-526.4 c 0,0 -198.26,-43.9 -219.86,-35.1 -21.61,8.8 -113.8,346.8 -109.41,507 4.39,160.3 -43.9,226.1 43.9,208.6 87.81,-17.6 263.42,-154.1 263.42,-154.1" /><path
         id="path26"
         style="fill:#454547;fill-opacity:1;fill-rule:nonzero;stroke:none"
         d="m 6967.32,15415.6 30.74,-234.7 495.47,-215.2 c 0,0 42,369.8 -53.32,465.9 -95.33,96.1 -270.94,135.6 -314.84,113.7 -43.9,-22 -158.05,-129.7 -158.05,-129.7" /><path
         id="path28"
         style="fill:#818283;fill-opacity:1;fill-rule:nonzero;stroke:none"
         d="M 7353.66,15308.2 7470,12949.5 h 474.15 l -30.62,2358.7 h -559.87" /><path
         id="path30"
         style="fill:#a5a5a4;fill-opacity:1;fill-rule:nonzero;stroke:none"
         d="m 7479.88,15488.2 153.5,-2538.7 H 7470 l -116.34,2358.7 126.22,180" /><path
         id="path32"
         style="fill:#252323;fill-opacity:1;fill-rule:nonzero;stroke:none"
         d="m 6629.28,15953.5 c 0,0 -100.98,-171.2 -83.42,-381.9 17.56,-210.7 373.17,-168.7 834.14,-216.1 460.98,-47.3 162.44,479.5 109.76,536.6 -52.68,57.1 -294.14,228.3 -465.37,250.2 -171.21,22 -395.11,-188.8 -395.11,-188.8" /><path
         id="path34"
         style="fill:#747576;fill-opacity:1;fill-rule:nonzero;stroke:none"
         d="m 9065.85,15099.6 412.69,-906.5 c 0,0 224.01,65.8 210.79,79 -13.24,13.2 -267.87,827.5 -267.87,827.5 h -355.61" /><path
         id="path36"
         style="fill:#454547;fill-opacity:1;fill-rule:nonzero;stroke:none"
         d="m 10466.3,15488.2 c -52.6,-13.2 -468.8,-198.8 -460.9,-237.1 7.8,-38.3 671.7,-350 698,-382.4 26.3,-32.5 197.6,-118.1 191,33.4 -6.6,151.4 -36.7,548.1 -90.5,603.5 -53.8,55.4 -337.6,-17.4 -337.6,-17.4" /><path
         id="path38"
         style="fill:#a5a5a4;fill-opacity:1;fill-rule:nonzero;stroke:none"
         d="m 11144.6,15494.8 c 0,0 493.9,-493.9 638.8,-526.9 144.9,-32.9 500.5,-661.8 500.5,-661.8 0,0 13.2,-260.1 -480.7,75.7 -493.9,335.9 -882.5,447.3 -941.7,470.6 -59.3,23.3 -9.8,519.2 -57.6,653.2 -47.8,134 -16.4,218.6 123.4,152.4 139.8,-66.1 177.8,-226.4 177.8,-226.4 l 39.5,63.2" /><g
         transform="scale(1.02534)"
         id="g40"><path
           id="path42"
           style="fill:#818283;fill-opacity:1;fill-rule:nonzero;stroke:none"
           d="m 13406,13255.7 102.8,-321.2 2678.2,-666.3 c 0,0 113,314.9 87.3,340.6 -25.7,25.6 -1866.3,441.3 -1866.3,441.3 l -1002,205.6" /></g><path
         id="path44"
         style="fill:#818283;fill-opacity:1;fill-rule:nonzero;stroke:none"
         d="m 10685.8,15418.7 v -402.6 c 0,0 -155.4,157.4 -549.6,195.3 -394.25,37.9 -1112.05,-269.8 -1276.69,-796.6 C 8694.88,13887.9 8710.24,12426 8710.24,12426 l 180.72,-144.9 337.33,52.7 c 0,0 -39.51,1476.2 13.17,1795.1 52.69,318.8 533.41,713.9 928.54,694.2 395.1,-19.8 4491.2,-1692.5 4491.2,-1692.5 l 59.3,342.5 -3709.7,1488.3 v 696.6 l -325,-239.3" /><g
         transform="scale(1.02999)"
         id="g46"><path
           id="path48"
           style="fill:#adadab;fill-opacity:1;fill-rule:nonzero;stroke:none"
           d="m 16300,12381.8 c 0,-98.9 -64.4,-179 -143.8,-179 -79.5,0 -143.9,80.1 -143.9,179 0,98.8 64.4,179 143.9,179 79.4,0 143.8,-80.2 143.8,-179" /></g><path
         id="path50"
         style="fill:#252323;fill-opacity:1;fill-rule:nonzero;stroke:none"
         d="m 14654.6,13646.1 -114.6,-100.6 121.2,-414.9 540,-144.8 56,484 -602.6,176.3" /><path
         id="path52"
         style="fill:#818283;fill-opacity:1;fill-rule:nonzero;stroke:none"
         d="m 12928.2,15415.6 -65.3,-84 1976.1,-1838.8 h 362.2 l -2110.6,2057.7 -162.4,-134.9" /><path
         id="path54"
         style="fill:#100f0d;fill-opacity:1;fill-rule:nonzero;stroke:none"
         d="m 13123.9,15331.6 h -326.4 v 326.4 h 326.4 v -326.4" /><path
         id="path56"
         style="fill:#252323;fill-opacity:1;fill-rule:nonzero;stroke:none"
         d="m 13123.9,15331.6 h 288.3 v 371.7 h -288.3 v -371.7" /><path
         id="path58"
         style="fill:#343434;fill-opacity:1;fill-rule:nonzero;stroke:none"
         d="m 15624.8,16216.4 316.1,-52.1 c 0,0 70.3,-171.2 0,-368.8 0,0 -4967.5,-425.9 -5072.9,-439 -105.3,-13.2 -1270.93,-256.9 -1270.93,-256.9 l -118.53,414.9 c 0,0 1560.76,377.6 2739.46,416 l 939.5,84.5 2467.3,201.4" /><g
         transform="scale(1.00723)"
         id="g60"><path
           id="path62"
           style="fill:#454547;fill-opacity:1;fill-rule:nonzero;stroke:none"
           d="m 13455.5,16218.3 1595.2,21.8 775.8,-191.8 -2763.4,-148.2 274.6,399.9 117.8,-81.7" /></g><path
         id="path64"
         style="fill:#454547;fill-opacity:1;fill-rule:nonzero;stroke:none"
         d="m 7733.42,15745 c 0,0 935.12,-335.8 1224.87,-329.3 289.76,6.6 520.25,98.8 520.25,98.8 0,0 1025.16,19.8 1062.46,26.4 37.3,6.5 1392,118.9 1457.5,192 65.6,73.2 320.5,65.9 320.5,197.6 0,131.7 847.3,97.7 -101,209.6 -948.3,112 -2205.9,6.6 -2528.67,0 -322.75,-6.6 -1955.91,-395.1 -1955.91,-395.1" /><path
         id="path66"
         style="fill:#100f0d;fill-opacity:1;fill-rule:nonzero;stroke:none"
         d="m 8824.39,14807.7 66.57,-130.3 c 0,0 -149.98,-49.7 -448.52,38.1 -298.53,87.8 -557.56,184.4 -557.56,184.4 0,0 -96.58,206.3 -48.29,302.9 48.29,96.6 137.19,204.1 347.14,152.7 209.93,-51.3 263.65,-18.4 375.32,-122.9 111.68,-104.4 265.34,-424.9 265.34,-424.9" /><path
         id="path68"
         style="fill:#100f0d;fill-opacity:1;fill-rule:nonzero;stroke:none"
         d="m 8299.76,15033.8 c 0,0 -199.76,-11 -458.78,65.8 -259.02,76.9 -610.24,195.4 -645.36,278.8 -35.13,83.4 -48.3,358.5 149.26,425.1 197.56,66.6 954.88,0 954.88,0 v -769.7" /><path
         id="path70"
         style="fill:#a5a5a4;fill-opacity:1;fill-rule:nonzero;stroke:none"
         d="m 9004.38,14276.5 c 151.47,691.4 685.51,842.5 685.51,842.5 0,0 3.39,11.4 9.11,30.7 -351.34,-113.9 -726.26,-372.6 -839.49,-734.9 C 8694.88,13887.9 8710.24,12426 8710.24,12426 l 180.72,-144.9 c 0,0 -38.04,1303.9 113.42,1995.4" /><path
         id="path72"
         style="fill:#606163;fill-opacity:1;fill-rule:nonzero;stroke:none"
         d="m 9204.43,11721.4 c -481.02,-101 -1381.36,-184.4 -1381.36,-184.4 0,0 -89.53,-9.3 -231.87,-20.1 l 231.87,-329 c 0,0 1438.15,177.9 1635.71,283.2 155.56,83 249.76,280.3 189.59,482.6 -72.22,-84.9 -204.28,-182 -443.94,-232.3" /><path
         id="path74"
         style="fill:#a5a5a4;fill-opacity:1;fill-rule:nonzero;stroke:none"
         d="m 13123.9,15331.6 1846.8,-1838.8 H 14839 l -1976.1,1838.8 h 261" /><path
         id="path76"
         style="fill:#a5a5a4;fill-opacity:1;fill-rule:nonzero;stroke:none"
         d="m 9280.97,15033.8 c 21.94,-24.2 443.41,-904.9 443.41,-904.9 l 184.39,90 -430.23,1005.9 -197.57,-191" /><path
         id="path78"
         style="fill:#343434;fill-opacity:1;fill-rule:nonzero;stroke:none"
         d="m 9810.61,15521.2 c -184.86,-3.8 -332.07,-6.7 -332.07,-6.7 0,0 -230.49,-92.2 -520.25,-98.8 -120.17,-2.7 -351.35,53.5 -580.78,120.2 l -9.7,-37.8 c 0,0 732.07,-493.9 870.36,-493.9 138.29,0 358.9,95.4 358.9,95.4 0,0 321.7,267 213.54,421.6 v 0" /><path
         id="path80"
         style="fill:#252323;fill-opacity:1;fill-rule:nonzero;stroke:none"
         d="m 8655.37,15418.7 c 0,-212.6 -159.21,-384.9 -355.61,-384.9 -196.4,0 -355.61,172.3 -355.61,384.9 0,212.5 159.21,384.8 355.61,384.8 196.4,0 355.61,-172.3 355.61,-384.8" /><path
         id="path82"
         style="fill:#343434;fill-opacity:1;fill-rule:nonzero;stroke:none"
         d="m 8442.44,15431.6 c 0,-90 -57.91,-162.9 -129.36,-162.9 -71.44,0 -129.35,72.9 -129.35,162.9 0,90 57.91,162.9 129.35,162.9 71.45,0 129.36,-72.9 129.36,-162.9" /><path
         id="path84"
         style="fill:#252323;fill-opacity:1;fill-rule:nonzero;stroke:none"
         d="m 9140.48,15011.4 c 0,-190.1 -147.41,-344.2 -329.26,-344.2 -181.85,0 -329.27,154.1 -329.27,344.2 0,190 147.42,344.1 329.27,344.1 181.85,0 329.26,-154.1 329.26,-344.1" /><path
         id="path86"
         style="fill:#343434;fill-opacity:1;fill-rule:nonzero;stroke:none"
         d="m 8938.54,15011.4 c 0,-78.8 -51.11,-142.7 -114.15,-142.7 -63.04,0 -114.15,63.9 -114.15,142.7 0,78.8 51.11,142.7 114.15,142.7 63.04,0 114.15,-63.9 114.15,-142.7" /><path
         id="path88"
         style="fill:#a5a5a4;fill-opacity:1;fill-rule:nonzero;stroke:none"
         d="m 5810.5,12465.5 v -342.4 l 329.27,-72.5 v 335.9 l -329.27,79" /><path
         id="path90"
         style="fill:#a5a5a4;fill-opacity:1;fill-rule:nonzero;stroke:none"
         d="m 7493.53,11655.5 29.16,-368.8 300.38,-98.8 v 349.1 l -329.54,118.5" /><path
         id="path92"
         style="fill:#100f0d;fill-opacity:1;fill-rule:nonzero;stroke:none"
         d="m 3766.85,15986.7 c 0,0 -412.68,-69.3 -504.88,-219 -92.19,-149.7 -30.72,-580 -30.72,-830.2 0,-250.3 -26.35,-535.6 26.33,-667.3 52.69,-131.7 381.96,-338.1 509.27,-267.8 127.32,70.2 79.02,373.1 158.05,526.8 79.02,153.7 187.26,588.3 188.02,645.4 0.76,57 40.27,492.8 35.88,522.9 -4.39,30.2 153.66,188.3 153.66,188.3 0,0 -395.12,166.8 -465.37,133.9 -70.24,-33 -70.24,-33 -70.24,-33" /><path
         id="path94"
         style="fill:#48484a;fill-opacity:1;fill-rule:nonzero;stroke:none"
         d="m 3481.48,14726.8 c -92.19,237 48.3,465.3 0,741.9 -27.61,158.2 -102.56,281.8 -161.71,358.7 -24.41,-18.3 -44.51,-38.1 -57.8,-59.7 -92.19,-149.7 -30.72,-580 -30.72,-830.2 0,-250.3 -26.35,-535.6 26.33,-667.3 32.47,-81.2 169.96,-190.6 300.5,-246.3 36,239 2.35,499.9 -76.6,702.9" /><path
         id="path96"
         style="fill:#818283;fill-opacity:1;fill-rule:nonzero;stroke:none"
         d="m 6337.33,15594.5 586.09,-2176 349.03,52.7 -533.42,2313.6 -401.7,-190.3" /><path
         id="path98"
         style="fill:#a5a5a4;fill-opacity:1;fill-rule:nonzero;stroke:none"
         d="m 6501.96,15803.5 563.51,-2363.6 -142.05,-21.4 -586.09,2176 164.63,209" /><path
         id="path100"
         style="fill:#252323;fill-opacity:1;fill-rule:nonzero;stroke:none"
         d="m 4884.35,15352.5 c 0,0 -26.59,184.5 -46.28,198.7 -19.7,14.1 -342.44,207.2 -557.56,216 -215.12,8.8 -460.98,-109.7 -496.1,-307.3 -35.12,-197.5 228.3,-482.9 219.51,-777 -8.78,-294.2 -26.34,-513.7 87.81,-715.7 114.14,-201.9 412.68,-430.2 520.24,-329.2 107.56,100.9 -50.49,518 142.68,781.4 193.17,263.5 335.06,556.7 298.53,794.7 -36.52,237.9 -168.83,138.4 -168.83,138.4" /><g
         transform="scale(1.04763)"
         id="g102"><path
           id="path104"
           style="fill:#b55f39;fill-opacity:1;fill-rule:nonzero;stroke:none"
           d="m 7987.39,16300 c 0,0 -649.56,-204 -951.28,-292 -301.73,-88 -414.88,-188.6 -663.17,-226.3 -248.29,-37.7 -609.73,-15.7 -861.17,-34.6 -251.44,-18.9 -839.18,-337.1 -839.18,-337.1 l 176.01,-463.8 c 0,0 -427.45,-207 427.44,0 854.88,206.9 1282.33,320 1665.78,426.9 383.44,106.8 963.85,31.4 1116.8,169.7 152.96,138.3 388.28,367.5 398.11,458.9 9.84,91.4 0,257.7 0,257.7 l -469.34,40.6" /></g><path
         id="path106"
         style="fill:#818283;fill-opacity:1;fill-rule:nonzero;stroke:none"
         d="m 5156.72,16276 1025.24,-28 c 0,0 -454.88,-317.9 -480.12,-304.1 -25.24,13.9 -582.8,13.2 -582.8,13.2 l 37.68,318.9" /><path
         id="path108"
         style="fill:#a5a5a4;fill-opacity:1;fill-rule:nonzero;stroke:none"
         d="m 5058.94,16174.4 1179.6,-30.5 -56.58,104.1 -1025.24,28 -97.78,-101.6" /><g
         transform="scale(1.04143)"
         id="g110"><path
           id="path112"
           style="fill:#c37140;fill-opacity:1;fill-rule:nonzero;stroke:none"
           d="m 8157.14,16224.1 c 0,0 -402.59,-231.6 -687.13,-364.4 -284.56,-132.8 -578.59,-50.6 -1062.33,-113.8 -483.73,-63.2 -758.79,-341.4 -1078.12,-483.7 -319.33,-142.3 -746.16,-244.2 -901.08,-520.5 0,0 158.08,-244.6 218.16,-257.3 60.06,-12.6 104.33,-12.6 104.33,-12.6 0,0 401.53,193.2 951.67,330.5 550.12,137.4 863.52,211.8 1244.54,171.8 381.04,-40.1 383.71,63.7 652.46,107.9 268.73,44.2 935.85,14.2 1147.69,67.1 211.82,53 436.3,624.7 385.71,734.1 -50.59,109.3 -161.24,261.1 -192.86,308.5 -31.62,47.4 -584.91,108.3 -584.91,108.3 l -198.13,-75.9" /></g><g
         transform="scale(1.01768)"
         id="g114"><path
           id="path116"
           style="fill:#100f0d;fill-opacity:1;fill-rule:nonzero;stroke:none"
           d="m 4764.79,16035.5 62.55,126.5 -815.33,56 c 0,0 -254.53,82 -452.97,21.6 -198.44,-60.4 -215.69,-457.3 -189.81,-498.3 25.88,-40.9 194.12,-40.9 327.86,-140.2 133.73,-99.2 368.89,-70.2 396.52,-90.6 27.64,-20.3 578.43,-229.5 619.42,-229.5 40.98,0 51.76,754.5 51.76,754.5" /></g><path
         id="path118"
         style="fill:#f5f6f7;fill-opacity:1;fill-rule:nonzero;stroke:none"
         d="m 4938.13,15636.6 c -139.34,-73.5 -258.04,-162.6 -326.16,-284.1 0,0 164.63,-254.8 227.2,-267.9 62.55,-13.2 108.65,-13.2 108.65,-13.2 0,0 76.62,36.8 208.9,90.1 -101.23,194.9 -175.57,368.3 -218.59,475.1" /><path
         id="path120"
         style="fill:#535456;fill-opacity:1;fill-rule:nonzero;stroke:none"
         d="m 4197.09,14331.6 c -26.34,329.3 52.69,548.8 0,851.7 -33.69,193.8 -144.55,394.6 -220.13,514.2 -98.62,-53.2 -174.24,-134.6 -192.55,-237.6 -35.12,-197.5 228.29,-482.9 219.51,-777 -8.78,-294.2 -26.34,-513.7 87.81,-715.7 74.07,-131 225.76,-273 352.55,-329.1 11.13,221.8 -224.36,408.2 -247.19,693.5" /><g
         transform="scale(1.00906)"
         id="g122"><path
           id="path124"
           style="fill:#252323;fill-opacity:1;fill-rule:nonzero;stroke:none"
           d="m 5207.94,15843.2 c 0,-252.3 -151.94,-456.9 -339.36,-456.9 -187.43,0 -339.37,204.6 -339.37,456.9 0,252.3 151.94,456.8 339.37,456.8 187.42,0 339.36,-204.5 339.36,-456.8" /></g><path
         id="path126"
         style="fill:#343434;fill-opacity:1;fill-rule:nonzero;stroke:none"
         d="m 5076.24,16019.7 c 0,-101.9 -62.66,-184.4 -139.94,-184.4 -77.29,0 -139.94,82.5 -139.94,184.4 0,101.8 62.65,184.4 139.94,184.4 77.28,0 139.94,-82.6 139.94,-184.4" /><g
         transform="scale(1.01381)"
         id="g128"><path
           id="path130"
           style="fill:#252323;fill-opacity:1;fill-rule:nonzero;stroke:none"
           d="m 3927.73,15950.8 c 0,251.2 99.6,329.2 99.6,329.2 0,0 -30.23,9.7 -78,20 -42.1,-80.6 -88.53,-192.8 -103.88,-316.7 -17.88,-144.3 12.22,-292.1 39.94,-389.1 105.62,-18.3 206.32,-11.5 223.86,-24.4 0,0 -181.52,129.9 -181.52,381" /></g><path
         id="path132"
         style="fill:#100f0d;fill-opacity:1;fill-rule:nonzero;stroke:none"
         d="m 6139.77,13774.1 c 0,0 -256.83,-125.2 -164.64,-500.5 l 1847.94,-632.2 151.1,679.8 -1834.4,452.9" /><path
         id="path134"
         style="fill:#252323;fill-opacity:1;fill-rule:nonzero;stroke:none"
         d="m 8206.21,12892.1 c -54.04,-185 -224.88,-297.8 -381.57,-252 -156.7,45.7 -239.91,232.8 -185.87,417.8 54.05,185 224.88,297.8 381.58,252 156.69,-45.8 239.9,-232.8 185.86,-417.8" /><path
         id="path136"
         style="fill:#343434;fill-opacity:1;fill-rule:nonzero;stroke:none"
         d="m 8054.62,12911.6 c -17.33,-65.6 -79.37,-106.2 -138.56,-90.5 -59.19,15.6 -93.13,81.5 -75.8,147.1 17.33,65.7 79.37,106.2 138.56,90.6 59.2,-15.6 93.13,-81.5 75.8,-147.2" /><path
         id="path138"
         style="fill:#252323;fill-opacity:1;fill-rule:nonzero;stroke:none"
         d="m 7005.02,13560.4 c 0,0 -233.86,-157.4 -131.39,-594.2 l -117.28,40.1 c 0,0 -120.75,272.2 120.29,585.9 l 156.69,-38.7" /><path
         id="path140"
         style="fill:#b55f39;fill-opacity:1;fill-rule:nonzero;stroke:none"
         d="m 12097.3,14151.1 c 0,0 147.1,-350.7 160.2,-365.7 13.2,-14.9 184.4,-112.6 223.9,-114.8 39.6,-2.2 104.8,13 105.1,41.6 0.3,28.7 -114.9,323.7 -151.1,368.8 -36.3,45.1 81.2,-63.6 8.7,-52.6 -72.4,11 -346.8,122.7 -346.8,122.7" /><path
         id="path142"
         style="fill:#a45532;fill-opacity:1;fill-rule:nonzero;stroke:none"
         d="m 12310.2,13882.4 70.3,-170.2 100.9,-41.6 z" /><g
         transform="scale(1.07591)"
         id="g144"><path
           id="path146"
           style="fill:#252323;fill-opacity:1;fill-rule:nonzero;stroke:none"
           d="m 10119.6,15640.5 c -24.4,10.7 -248.87,108.6 -248.87,108.6 0,0 -363.14,346.9 -652.89,448.9 -289.71,102 -591.67,16.3 -591.67,16.3 0,0 -175.46,49 -359.09,-8.1 -183.6,-57.2 -338.67,-206.1 -387.64,-264.3 -48.96,-58.1 -102,-70.4 -102,-70.4 0,0 106.08,-167.3 118.32,-167.3 12.24,0 191.79,73.5 191.79,73.5 0,0 212.19,-81.6 346.84,-379.5 134.66,-297.9 32.65,-734.5 32.65,-734.5 0,0 208.1,32.7 501.89,77.6 293.8,44.8 828.37,65.2 828.37,65.2 0,0 444.7,183.7 436.6,302 -8.2,118.3 -28.6,191.8 -28.6,314.2 0,122.4 -85.7,217.8 -85.7,217.8" /></g><g
         transform="scale(1.05227)"
         id="g148"><path
           id="path150"
           style="fill:#c37140;fill-opacity:1;fill-rule:nonzero;stroke:none"
           d="m 10092.4,16102.9 c 4.2,-12.5 166.9,-150.2 162.7,-400.6 -4.2,-250.3 -237.7,-563.2 -237.7,-563.2 l 1063.8,29.2 c 0,0 271.2,87.6 250.4,315 -21,227.4 -12.6,352.6 -121,527.8 -108.5,175.2 -396.4,288.9 -396.4,288.9 l -721.8,-197.1" /></g><g
         transform="scale(1.06237)"
         id="g152"><path
           id="path154"
           style="fill:#e9eef1;fill-opacity:1;fill-rule:nonzero;stroke:none"
           d="m 11953.2,16145 102.3,66.1 c 0,0 -427.8,80.2 -740.7,84.6 -313.1,4.3 -603.4,-150.7 -603.4,-150.7 0,0 231.5,-199.4 293.4,-525.8 62,-326.5 -28.9,-595.1 -28.9,-595.1 l 619.8,-28.9 c 0,0 789.3,161.1 785.2,227.3 -4.1,66.1 153.8,230.2 196.7,423 43,192.7 187.6,320.8 30.6,415.9 -157,95 -655,83.6 -655,83.6" /></g><g
         transform="scale(1.05975)"
         id="g156"><path
           id="path158"
           style="fill:#c37140;fill-opacity:1;fill-rule:nonzero;stroke:none"
           d="m 12352.6,16300 c 0,0 -98.5,-53.9 -179.2,-51.8 -80.8,2.1 -447.4,18.7 -455.7,10.4 -8.3,-8.3 39.3,-87 132.6,-118.1 93.2,-31.1 265,-20.7 376.9,-72.5 111.9,-51.8 301.4,-302.4 301.4,-302.4 0,0 116,34.2 91.2,155.3 -24.9,121.2 -105.7,310.7 -139.9,341.8 -34.1,31.1 -127.3,37.3 -127.3,37.3" /></g><g
         transform="scale(1.07187)"
         id="g160"><path
           id="path162"
           style="fill:#c37140;fill-opacity:1;fill-rule:nonzero;stroke:none"
           d="m 13327.9,15651.8 c 0,0 -92,-110.6 -199.6,-187.4 -107.5,-76.8 -205.8,-67.5 -230.4,-82.9 -24.6,-15.4 -104.4,-122.9 -187.4,-147.5 -82.9,-24.5 -187.3,-24.5 -187.3,-24.5 0,0 -144.4,104.3 -138.3,199.7 6.2,95.3 -0.4,248.8 -0.2,371.6 0.2,122.9 -67.4,153.6 21.7,227.4 89.1,73.7 250,111.2 403,143.1 153,32 260.5,148.7 346.5,44.3 86,-104.5 178.2,-430.1 172,-543.8" /></g><g
         transform="scale(1.09833)"
         id="g164"><path
           id="path166"
           style="fill:#361c19;fill-opacity:1;fill-rule:nonzero;stroke:none"
           d="m 12377.3,15343.7 c -3,12 33,140.9 71.9,179.8 39,39 135,84 200.9,18 65.9,-65.9 -93,-185.8 -90,-197.8 3,-12 87,12 141,0 53.9,-12 131.9,21 182.8,21 51,0 108,-33 122.9,-90 0,0 87,200.9 75,431.7 -12,230.9 -191.9,485.7 -440.7,539.6 -248.8,54 -722.5,-518.6 -722.5,-518.6 0,0 152.9,-248.8 158.9,-272.8 6,-24 299.8,-110.9 299.8,-110.9" /></g><g
         transform="scale(1.09492)"
         id="g168"><path
           id="path170"
           style="fill:#e9eef1;fill-opacity:1;fill-rule:nonzero;stroke:none"
           d="m 12539.7,16257.6 98.3,42.4 32.4,-88.6 c 0,0 -36.1,-194.4 -210.4,-214.5 -174.4,-20 79.7,260.7 79.7,260.7" /></g><g
         transform="scale(1.03389)"
         id="g172"><path
           id="path174"
           style="fill:#a45532;fill-opacity:1;fill-rule:nonzero;stroke:none"
           d="m 13148.8,16300 -23.4,-40.3 c 0,0 -45.3,-59.5 -80,-93.5 -34.7,-33.9 -104.4,-217.3 -104.4,-217.3 0,0 -44.6,58.9 -49.4,65.3 -5,6.4 91.6,160.5 108.5,173.3 17,12.7 148.7,112.5 148.7,112.5" /></g><g
         transform="scale(1.03874)"
         id="g176"><path
           id="path178"
           style="fill:#c37140;fill-opacity:1;fill-rule:nonzero;stroke:none"
           d="m 11859.6,15463.2 c -4.3,21.1 -59.2,538.8 283.2,687.8 342.3,149 722.7,-62.3 790.3,-345.5 67.7,-283.2 -221.3,-490.3 -539.6,-705.8 -318.4,-215.6 -567.7,-511.4 -567.7,-511.4 0,0 21.1,-253.6 88.7,-384.6 67.6,-131.1 219.8,-253.6 219.8,-253.6 0,0 -304.3,-198.7 -308.5,-177.5 -4.3,21.1 -367.8,312.7 -486.1,507.1 -118.3,194.5 -139.5,245.2 -143.7,270.5 -4.2,25.4 219.8,439.6 355,596 135.3,156.4 308.6,317 308.6,317" /></g><g
         transform="scale(1.01369)"
         id="g180"><path
           id="path182"
           style="fill:#a45532;fill-opacity:1;fill-rule:nonzero;stroke:none"
           d="m 12577,16300 -86.6,-181.9 -337.8,-272.8 -4.3,164.3 251.1,125.8 177.6,164.6" /></g><path
         id="path184"
         style="fill:#c37140;fill-opacity:1;fill-rule:nonzero;stroke:none"
         d="m 12283.9,14306.1 c 0,0 23,-124 65.8,-278.8 42.8,-154.7 36.3,-171.2 65.9,-217.3 29.6,-46.1 138.3,-135 154.8,-135 16.4,0 49.3,0 49.3,0 0,0 83.5,-9.9 101,0 17.6,9.9 61.5,45 61.5,45 0,0 79,-17.6 101,0 21.9,17.6 48.2,17.6 43.9,50.5 -4.4,32.9 -28.6,169 -28.6,169 0,0 27.3,2.2 29,37.3 1.7,35.2 3.9,177.8 -50.9,276.6 -54.9,98.8 -272.2,237.1 -272.2,237.1 0,0 -155.9,6.6 -195.4,-15.4 -39.5,-21.9 -125.1,-169 -125.1,-169" /><path
         id="path186"
         style="fill:#a45532;fill-opacity:1;fill-rule:nonzero;stroke:none"
         d="m 12580.2,13675 c 17.1,0 39.5,0 39.5,0 l -138.3,154.8 c 0,0 56.6,-89.2 98.8,-154.8" /><path
         id="path188"
         style="fill:#a45532;fill-opacity:1;fill-rule:nonzero;stroke:none"
         d="m 12556.1,13900 c -6.6,6.6 81.3,-148.5 127.1,-229.3 10,-0.1 19.4,0.2 26.7,1.3 -49.7,70.2 -147.1,221.3 -153.8,228" /><path
         id="path190"
         style="fill:#a45532;fill-opacity:1;fill-rule:nonzero;stroke:none"
         d="m 12661.4,13957.1 120.8,-237.1 c 0,0 61,-13.5 90.7,-4.9 l -211.5,242" /><path
         id="path192"
         style="fill:#a45532;fill-opacity:1;fill-rule:nonzero;stroke:none"
         d="m 12927.5,13976.8 c 0.4,6.9 0.7,18 0.7,31.9 l -130.7,108.6 101,-177.8 c 0,0 27.3,2.2 29,37.3" /><g
         transform="scale(1.07348)"
         id="g194"><path
           id="path196"
           style="fill:#100f0d;fill-opacity:1;fill-rule:nonzero;stroke:none"
           d="m 7913.59,15739.7 c 12.27,0 192.22,73.6 192.22,73.6 0,0 216.76,151.3 290.37,261.8 73.61,110.4 249.47,175.8 249.47,175.8 0,0 -175.86,49.1 -359.9,-8.2 -184.02,-57.2 -339.44,-206.5 -388.52,-264.8 -49.07,-58.2 -102.23,-70.5 -102.23,-70.5 0,0 106.32,-167.7 118.59,-167.7" /></g><g
         transform="scale(1.11251)"
         id="g198"><path
           id="path200"
           style="fill:#211513;fill-opacity:1;fill-rule:nonzero;stroke:none"
           d="m 12150.4,16292.5 c -230,-7.6 -302.9,-156.6 -313.8,-324.8 -10.9,-168.2 -129.2,-348.1 -119.2,-463.4 10.1,-115.3 110.7,-157.5 87,-331.8 -23.6,-174.3 207.3,-374.8 207.3,-374.8 0,0 -64.8,243.9 9.5,368.1 74.3,124.2 145.1,242.6 138.9,361.1 -4.3,81.1 57.4,137.6 103.3,202.7 0.3,0.2 108.7,97.3 136.6,149.2 28,52.1 54.8,118 54.8,118 0,0 -74.3,303.2 -304.4,295.7" /></g><path
         id="path202"
         style="fill:#818283;fill-opacity:1;fill-rule:nonzero;stroke:none"
         d="M 7106.9,7779.8 H 6844.4 V 9408 h 262.5 V 7779.8" /><path
         id="path204"
         style="fill:#100f0d;fill-opacity:1;fill-rule:nonzero;stroke:none"
         d="M 7870.17,9408 H 6112.48 v 678.3 H 7948.54 L 7870.17,9408" /><path
         id="path206"
         style="fill:#100f0d;fill-opacity:1;fill-rule:nonzero;stroke:none"
         d="m 6317.57,10046.8 c -8.78,48.3 17.56,509.2 -30.73,570.7 -48.3,61.5 -553.17,-149.3 -693.66,-184.4 -140.48,-35.1 -614.63,6 -886.82,-223.1 -272.19,-229.1 -184.39,-416 -74.64,-460.8 109.76,-44.9 561.36,34.2 789.95,-110.7 228.59,-144.9 259.32,-171.2 316.39,-158.1 57.07,13.2 259.02,311.7 259.02,311.7 l 320.49,254.7" /><path
         id="path208"
         style="fill:#b55f39;fill-opacity:1;fill-rule:nonzero;stroke:none"
         d="m 8367.81,7762.8 -568.54,-156.9 c 0,0 -98.78,-390.8 -92.19,-410.6 6.58,-19.7 177.8,-181.1 434.63,-102.1 256.83,79.1 319.39,128.5 428.05,263.5 108.65,135 148.16,220.6 115.24,276.5 -32.92,56 -317.19,129.6 -317.19,129.6" /><path
         id="path210"
         style="fill:#b55f39;fill-opacity:1;fill-rule:nonzero;stroke:none"
         d="M 12042,5403.5 H 11010.8 V 6434.6 H 12042 V 5403.5" /><path
         id="path212"
         style="fill:#606163;fill-opacity:1;fill-rule:nonzero;stroke:none"
         d="m 5810.5,3151.9 c 0,0 936.17,92.2 1893.81,105.4 957.64,13.2 1668.86,-204.2 1859.83,-454.4 190.98,-250.2 92.2,-540 -105.37,-645.4 -197.55,-105.3 -1635.7,-283.1 -1635.7,-283.1 l -329.54,467.5 1216.71,184.4 c 0,0 -288.05,270 -971.58,296.4 -683.53,26.3 -1598.89,-85.6 -1598.89,-85.6 l -329.27,414.8" /><path
         id="path214"
         style="fill:#818283;fill-opacity:1;fill-rule:nonzero;stroke:none"
         d="m 9564.14,2802.9 c -165.79,217.2 -723.73,409.6 -1494.56,448 139.96,-37.5 786.93,-222.6 874.95,-463.2 98.78,-270 -234.29,-261.4 -234.29,-261.4 l -1216.71,-184.4 329.54,-467.5 c 0,0 1438.15,177.8 1635.71,283.1 197.56,105.4 296.34,395.2 105.36,645.4" /><path
         id="path216"
         style="fill:#454547;fill-opacity:1;fill-rule:nonzero;stroke:none"
         d="m 8020.98,5840.5 21.95,-526.4 c 0,0 -198.26,-43.9 -219.86,-35.1 -21.61,8.8 -113.8,346.8 -109.41,507.1 4.39,160.2 -43.9,226.1 43.9,208.5 87.81,-17.6 263.42,-154.1 263.42,-154.1" /><path
         id="path218"
         style="fill:#454547;fill-opacity:1;fill-rule:nonzero;stroke:none"
         d="m 6967.32,6102.1 30.74,-234.8 495.47,-215.1 c 0,0 42,369.7 -53.32,465.8 -95.33,96.1 -270.94,135.6 -314.84,113.7 -43.9,-22 -158.05,-129.6 -158.05,-129.6" /><path
         id="path220"
         style="fill:#818283;fill-opacity:1;fill-rule:nonzero;stroke:none"
         d="M 7353.66,5994.6 7470,3635.9 h 474.15 l -30.62,2358.7 h -559.87" /><path
         id="path222"
         style="fill:#a5a5a4;fill-opacity:1;fill-rule:nonzero;stroke:none"
         d="m 7479.88,6174.6 153.5,-2538.7 H 7470 l -116.34,2358.7 126.22,180" /><path
         id="path224"
         style="fill:#252323;fill-opacity:1;fill-rule:nonzero;stroke:none"
         d="m 6629.28,6640 c 0,0 -100.98,-171.3 -83.42,-382 17.56,-210.7 373.17,-168.7 834.14,-216 460.98,-47.4 162.44,479.4 109.76,536.5 -52.68,57.1 -294.14,228.3 -465.37,250.2 -171.21,22 -395.11,-188.7 -395.11,-188.7" /><path
         id="path226"
         style="fill:#747576;fill-opacity:1;fill-rule:nonzero;stroke:none"
         d="m 9065.85,5786.1 412.69,-906.6 c 0,0 224.01,65.8 210.79,79 -13.24,13.2 -267.87,827.6 -267.87,827.6 h -355.61" /><path
         id="path228"
         style="fill:#454547;fill-opacity:1;fill-rule:nonzero;stroke:none"
         d="m 10466.3,6174.6 c -52.6,-13.2 -468.8,-198.8 -460.9,-237.1 7.8,-38.3 671.7,-349.9 698,-382.4 26.3,-32.5 197.6,-118.1 191,33.4 -6.6,151.5 -36.7,548.1 -90.5,603.5 -53.8,55.4 -337.6,-17.4 -337.6,-17.4" /><path
         id="path230"
         style="fill:#a5a5a4;fill-opacity:1;fill-rule:nonzero;stroke:none"
         d="m 11144.6,6181.2 c 0,0 493.9,-493.9 638.8,-526.8 144.9,-33 500.5,-661.9 500.5,-661.9 0,0 13.2,-260.1 -480.7,75.8 -493.9,335.8 -882.5,447.3 -941.7,470.6 -59.3,23.3 -9.8,519.1 -57.6,653.1 -47.8,134.1 -16.4,218.6 123.4,152.4 139.8,-66.1 177.8,-226.4 177.8,-226.4 l 39.5,63.2" /><path
         id="path232"
         style="fill:#b55f39;fill-opacity:1;fill-rule:nonzero;stroke:none"
         d="m 5780.83,9712.1 c 0,0 146.01,-398.5 255.77,-912.1 109.75,-513.7 30.73,-1704.6 232.68,-1969.7 201.95,-265 965.75,-168.4 965.75,-168.4 l -140.39,1224.9 c 0,0 -481.75,935.1 -550.39,1137 -68.63,202 -174,812.4 -178.39,823.3 -4.39,10.9 -585.03,-135 -585.03,-135" /><path
         id="path234"
         style="fill:#f5f6f7;fill-opacity:1;fill-rule:nonzero;stroke:none"
         d="m 6444.13,9441.4 c -41.64,205.3 -75.8,399.6 -78.27,405.7 -4.39,10.9 -585.02,-135 -585.02,-135 0,0 56.5,-154.3 125.63,-394.5 127.48,44.8 334.39,107.1 537.66,123.8" /><g
         transform="scale(1.02534)"
         id="g236"><path
           id="path238"
           style="fill:#818283;fill-opacity:1;fill-rule:nonzero;stroke:none"
           d="m 13406,4172.26 102.8,-321.16 2678.2,-666.22 c 0,0 113,314.83 87.3,340.47 -25.7,25.75 -1866.3,441.42 -1866.3,441.42 l -1002,205.49" /></g><path
         id="path240"
         style="fill:#818283;fill-opacity:1;fill-rule:nonzero;stroke:none"
         d="m 10685.8,6105.1 v -402.6 c 0,0 -155.4,157.5 -549.6,195.3 C 9741.95,5935.7 9024.15,5628 8859.51,5101.2 8694.88,4574.4 8710.24,3112.4 8710.24,3112.4 l 180.72,-144.9 337.33,52.7 c 0,0 -39.51,1476.2 13.17,1795.1 52.69,318.8 533.41,713.9 928.54,694.2 395.1,-19.8 4491.2,-1692.5 4491.2,-1692.5 l 59.3,342.5 -3709.7,1488.3 v 696.6 l -325,-239.3" /><g
         transform="scale(1.02999)"
         id="g242"><path
           id="path244"
           style="fill:#adadab;fill-opacity:1;fill-rule:nonzero;stroke:none"
           d="m 16300,3339.36 c 0,-98.84 -64.4,-179.03 -143.8,-179.03 -79.5,0 -143.9,80.19 -143.9,179.03 0,98.84 64.4,179.03 143.9,179.03 79.4,0 143.8,-80.19 143.8,-179.03" /></g><path
         id="path246"
         style="fill:#818283;fill-opacity:1;fill-rule:nonzero;stroke:none"
         d="m 5048.79,6705.8 c 13.18,-4.4 2186.24,636.6 2186.24,636.6 l -213.62,263.5 -2582.86,-755.2 610.24,-144.9" /><path
         id="path248"
         style="fill:#a5a5a4;fill-opacity:1;fill-rule:nonzero;stroke:none"
         d="m 4890.75,6830.3 2228.17,655.3 -97.51,120.3 -2582.86,-755.2 452.2,-20.4" /><path
         id="path250"
         style="fill:#252323;fill-opacity:1;fill-rule:nonzero;stroke:none"
         d="m 14654.6,4332.5 -114.6,-100.6 121.2,-414.9 540,-144.8 56,484 -602.6,176.3" /><path
         id="path252"
         style="fill:#818283;fill-opacity:1;fill-rule:nonzero;stroke:none"
         d="m 12928.2,6102.1 -65.3,-84 1976.1,-1838.9 h 362.2 l -2110.6,2057.7 -162.4,-134.8" /><path
         id="path254"
         style="fill:#100f0d;fill-opacity:1;fill-rule:nonzero;stroke:none"
         d="m 13123.9,6018.1 h -326.4 v 326.3 h 326.4 v -326.3" /><path
         id="path256"
         style="fill:#252323;fill-opacity:1;fill-rule:nonzero;stroke:none"
         d="m 13123.9,6018.1 h 288.3 v 371.6 h -288.3 v -371.6" /><path
         id="path258"
         style="fill:#343434;fill-opacity:1;fill-rule:nonzero;stroke:none"
         d="m 15624.8,6902.8 316.1,-52.1 c 0,0 70.3,-171.2 0,-368.8 0,0 -4967.5,-425.8 -5072.9,-439 -105.3,-13.2 -1270.93,-256.8 -1270.93,-256.8 l -118.53,414.8 c 0,0 1560.76,377.6 2739.46,416 l 939.5,84.5 2467.3,201.4" /><path
         id="path260"
         style="fill:#454547;fill-opacity:1;fill-rule:nonzero;stroke:none"
         d="m 13552.7,7021.9 1606.8,22 781.4,-193.2 -2783.4,-149.3 276.6,402.8 118.6,-82.3" /><path
         id="path262"
         style="fill:#454547;fill-opacity:1;fill-rule:nonzero;stroke:none"
         d="m 7733.42,6431.4 c 0,0 935.12,-335.8 1224.87,-329.2 289.76,6.5 520.25,98.7 520.25,98.7 0,0 1025.16,19.8 1062.46,26.4 37.3,6.6 1392,118.9 1457.5,192 65.6,73.2 320.5,65.9 320.5,197.6 0,131.7 847.3,97.7 -101,209.6 -948.3,112 -2205.9,6.6 -2528.67,0 -322.75,-6.5 -1955.91,-395.1 -1955.91,-395.1" /><path
         id="path264"
         style="fill:#100f0d;fill-opacity:1;fill-rule:nonzero;stroke:none"
         d="m 8824.39,5494.1 66.57,-130.3 c 0,0 -149.98,-49.7 -448.52,38.1 -298.53,87.8 -557.56,184.4 -557.56,184.4 0,0 -96.58,206.3 -48.29,302.9 48.29,96.6 137.19,204.1 347.14,152.8 209.93,-51.4 263.65,-18.5 375.32,-122.9 111.68,-104.5 265.34,-425 265.34,-425" /><path
         id="path266"
         style="fill:#100f0d;fill-opacity:1;fill-rule:nonzero;stroke:none"
         d="m 8299.76,5720.2 c 0,0 -199.76,-11 -458.78,65.9 -259.02,76.8 -610.24,195.3 -645.36,278.7 -35.13,83.5 -48.3,358.5 149.26,425.1 197.56,66.6 954.88,0 954.88,0 v -769.7" /><path
         id="path268"
         style="fill:#a5a5a4;fill-opacity:1;fill-rule:nonzero;stroke:none"
         d="m 9004.38,4962.9 c 151.47,691.5 685.51,842.5 685.51,842.5 0,0 3.39,11.4 9.11,30.7 -351.34,-113.9 -726.26,-372.6 -839.49,-734.9 -164.63,-526.8 -149.27,-1988.8 -149.27,-1988.8 l 180.72,-144.9 c 0,0 -38.04,1303.9 113.42,1995.4" /><path
         id="path270"
         style="fill:#606163;fill-opacity:1;fill-rule:nonzero;stroke:none"
         d="m 9204.43,2407.8 c -481.02,-101 -1381.36,-184.4 -1381.36,-184.4 0,0 -89.53,-9.2 -231.87,-20.1 l 231.87,-328.9 c 0,0 1438.15,177.8 1635.71,283.1 155.56,83 249.76,280.3 189.59,482.6 -72.22,-84.9 -204.28,-182 -443.94,-232.3" /><path
         id="path272"
         style="fill:#a5a5a4;fill-opacity:1;fill-rule:nonzero;stroke:none"
         d="M 13123.9,6018.1 14970.7,4179.2 H 14839 l -1976.1,1838.9 h 261" /><path
         id="path274"
         style="fill:#a5a5a4;fill-opacity:1;fill-rule:nonzero;stroke:none"
         d="m 9280.97,5720.2 c 21.94,-24.1 443.41,-904.9 443.41,-904.9 l 184.39,90 -430.23,1005.9 -197.57,-191" /><path
         id="path276"
         style="fill:#343434;fill-opacity:1;fill-rule:nonzero;stroke:none"
         d="m 9810.61,6207.7 c -184.86,-3.9 -332.07,-6.8 -332.07,-6.8 0,0 -230.49,-92.2 -520.25,-98.7 -120.17,-2.8 -351.35,53.4 -580.78,120.1 l -9.7,-37.8 c 0,0 732.07,-493.9 870.36,-493.9 138.29,0 358.9,95.5 358.9,95.5 0,0 321.7,266.9 213.54,421.6 v 0" /><path
         id="path278"
         style="fill:#252323;fill-opacity:1;fill-rule:nonzero;stroke:none"
         d="m 8655.37,6105.1 c 0,-212.6 -159.21,-384.9 -355.61,-384.9 -196.4,0 -355.61,172.3 -355.61,384.9 0,212.5 159.21,384.8 355.61,384.8 196.4,0 355.61,-172.3 355.61,-384.8" /><path
         id="path280"
         style="fill:#343434;fill-opacity:1;fill-rule:nonzero;stroke:none"
         d="m 8442.44,6118 c 0,-90 -57.91,-162.9 -129.36,-162.9 -71.44,0 -129.35,72.9 -129.35,162.9 0,90 57.91,162.9 129.35,162.9 71.45,0 129.36,-72.9 129.36,-162.9" /><path
         id="path282"
         style="fill:#252323;fill-opacity:1;fill-rule:nonzero;stroke:none"
         d="m 9140.48,5697.8 c 0,-190.1 -147.41,-344.2 -329.26,-344.2 -181.85,0 -329.27,154.1 -329.27,344.2 0,190.1 147.42,344.2 329.27,344.2 181.85,0 329.26,-154.1 329.26,-344.2" /><path
         id="path284"
         style="fill:#252323;fill-opacity:1;fill-rule:nonzero;stroke:none"
         d="m 7259.27,9661.5 c 0,0 108.66,84.7 151.47,185.6 42.8,100.9 -59.27,736.4 -75.74,798.9 -16.46,62.6 -464.26,-6.6 -586.09,-59.2 -121.83,-52.7 -167.92,-131.7 -237.07,-154.8 -69.15,-23 -549.88,-125.1 -704.63,-240.4 -154.76,-115.2 -164.64,-414.8 -108.66,-454.3 55.98,-39.6 418.17,-59.3 579.51,-128.5 161.34,-69.1 547.68,-330.3 680.48,-334.7 132.81,-4.4 261.22,-93.3 307.32,31.8 46.1,125.1 -6.59,355.6 -6.59,355.6" /><path
         id="path286"
         style="fill:#343434;fill-opacity:1;fill-rule:nonzero;stroke:none"
         d="m 8938.54,5697.8 c 0,-78.8 -51.11,-142.7 -114.15,-142.7 -63.04,0 -114.15,63.9 -114.15,142.7 0,78.8 51.11,142.7 114.15,142.7 63.04,0 114.15,-63.9 114.15,-142.7" /><path
         id="path288"
         style="fill:#a5a5a4;fill-opacity:1;fill-rule:nonzero;stroke:none"
         d="m 5810.5,3151.9 v -342.4 l 329.27,-72.4 v 335.8 l -329.27,79" /><path
         id="path290"
         style="fill:#a5a5a4;fill-opacity:1;fill-rule:nonzero;stroke:none"
         d="m 7493.53,2341.9 29.16,-368.8 300.38,-98.7 v 349 l -329.54,118.5" /><path
         id="path292"
         style="fill:#c37140;fill-opacity:1;fill-rule:nonzero;stroke:none"
         d="m 6958.54,9274.1 c 0,0 131.71,122.9 140.49,140.5 8.78,17.5 4.39,381.9 70.24,421.4 65.86,39.6 188.78,-39.5 188.78,-39.5 0,0 79.03,-548.7 188.79,-860.5 109.75,-311.7 259.01,-623.4 294.14,-935.1 35.12,-311.7 21.95,-685.4 21.95,-685.4 l 632.19,267.3 206.34,79 509.27,5.5 c 0,0 363.04,-672.2 342.44,-764.5 -20.61,-92.2 -443.41,-439.5 -443.41,-439.5 0,0 -1539.84,-71.4 -1819.18,0 -279.35,71.3 -332.04,211.8 -288.13,589.3 43.9,377.6 0,1843.9 -13.17,1997.6 -13.18,153.6 -30.74,223.9 -30.74,223.9" /><path
         id="path294"
         style="fill:#535456;fill-opacity:1;fill-rule:nonzero;stroke:none"
         d="m 6080.5,10171.9 c 190.97,102.1 503.78,108.7 763.89,266.7 158.02,96 360.87,153.1 495.87,183.1 -2.19,11.2 -3.98,19.5 -5.26,24.3 -16.46,62.6 -464.26,-6.6 -586.09,-59.2 -121.83,-52.7 -167.93,-131.7 -237.07,-154.8 -69.14,-23 -549.88,-125.1 -704.63,-240.4 -144.04,-107.2 -162.54,-374.1 -119.28,-442.4 226.26,136.8 226.96,334.2 392.57,422.7" /><path
         id="path296"
         style="fill:#252323;fill-opacity:1;fill-rule:nonzero;stroke:none"
         d="m 8275.61,9737.3 c 0,-192.8 -138.34,-349.1 -309.01,-349.1 -170.66,0 -309,156.3 -309,349.1 0,192.7 138.34,349 309,349 170.67,0 309.01,-156.3 309.01,-349" /><path
         id="path298"
         style="fill:#343434;fill-opacity:1;fill-rule:nonzero;stroke:none"
         d="m 8112.07,9719.8 c 0,-75.7 -54.55,-137.1 -121.83,-137.1 -67.29,0 -121.83,61.4 -121.83,137.1 0,75.8 54.54,137.2 121.83,137.2 67.28,0 121.83,-61.4 121.83,-137.2" /><path
         id="path300"
         style="fill:#100f0d;fill-opacity:1;fill-rule:nonzero;stroke:none"
         d="m 3380.51,7109.7 c 0,0 -127.32,-162.4 -122.93,-342.4 4.39,-180 175.61,-272.2 193.17,-289.8 17.57,-17.5 1239.2,-307.6 1239.2,-307.6 l 186.53,648.6 c -218.87,50.2 -724.53,181.4 -732.07,181.5 -26.7,0.2 -131.7,-8.8 -131.7,-8.8 0,0 -342.45,180 -632.2,118.5" /><path
         id="path302"
         style="fill:#252323;fill-opacity:1;fill-rule:nonzero;stroke:none"
         d="m 4012.71,6991.2 c 0,0 -109.76,-43.9 -171.23,-223.9 -61.46,-180 -31.14,-388 -31.14,-388 l -108.22,27.9 c 0,0 -23.07,219.6 34,390.8 57.07,171.2 276.59,193.2 276.59,193.2" /><path
         id="path304"
         style="fill:#252323;fill-opacity:1;fill-rule:nonzero;stroke:none"
         d="m 5083.92,6497.3 c 0,-187.9 -138.57,-340.3 -309.51,-340.3 -170.94,0 -309.51,152.4 -309.51,340.3 0,187.9 138.57,340.2 309.51,340.2 170.94,0 309.51,-152.3 309.51,-340.2" /><path
         id="path306"
         style="fill:#343434;fill-opacity:1;fill-rule:nonzero;stroke:none"
         d="m 4919.83,6496.5 c 0,-76.9 -53.07,-139.2 -118.53,-139.2 -65.47,0 -118.54,62.3 -118.54,139.2 0,76.8 53.07,139.1 118.54,139.1 65.46,0 118.53,-62.3 118.53,-139.1" /><path
         id="path308"
         style="fill:#b55f39;fill-opacity:1;fill-rule:nonzero;stroke:none"
         d="m 12097.3,4837.5 c 0,0 147.1,-350.7 160.2,-365.7 13.2,-14.9 184.4,-112.6 223.9,-114.8 39.6,-2.2 104.8,13 105.1,41.6 0.3,28.7 -114.9,323.8 -151.1,368.8 -36.3,45.1 81.2,-63.5 8.7,-52.6 -72.4,11 -346.8,122.7 -346.8,122.7" /><path
         id="path310"
         style="fill:#a45532;fill-opacity:1;fill-rule:nonzero;stroke:none"
         d="m 12310.2,4568.9 70.3,-170.3 100.9,-41.6 z" /><path
         id="path312"
         style="fill:#252323;fill-opacity:1;fill-rule:nonzero;stroke:none"
         d="m 10887.8,7514.2 c -26.3,11.5 -267.8,116.9 -267.8,116.9 0,0 -390.7,373.1 -702.45,482.9 -311.7,109.7 -636.58,17.5 -636.58,17.5 0,0 -188.78,52.7 -386.34,-8.7 -197.55,-61.5 -364.39,-221.8 -417.07,-284.3 -52.68,-62.6 -109.75,-75.7 -109.75,-75.7 0,0 114.14,-180 127.31,-180 13.17,0 206.34,79 206.34,79 0,0 228.3,-87.8 373.17,-408.3 144.88,-320.5 35.13,-790.2 35.13,-790.2 0,0 223.9,35.1 539.99,83.4 316.1,48.3 891.25,70.2 891.25,70.2 0,0 478.5,197.6 469.7,324.9 -8.8,127.3 -30.7,206.3 -30.7,338 0,131.7 -92.2,234.4 -92.2,234.4" /><path
         id="path314"
         style="fill:#c37140;fill-opacity:1;fill-rule:nonzero;stroke:none"
         d="m 10620,7631.1 c 4.4,-13.2 175.6,-158.1 171.2,-421.5 -4.4,-263.4 -250.2,-592.7 -250.2,-592.7 l 1119.5,30.7 c 0,0 285.3,92.2 263.4,331.5 -22,239.3 -13.2,371 -127.3,555.4 -114.2,184.4 -417.1,304 -417.1,304 L 10620,7631.1" /><path
         id="path316"
         style="fill:#e9eef1;fill-opacity:1;fill-rule:nonzero;stroke:none"
         d="m 12698.8,7838.5 108.7,70.2 c 0,0 -454.5,85.2 -787,89.8 -332.6,4.6 -641,-160 -641,-160 0,0 245.9,-211.8 311.7,-558.7 65.9,-346.8 -30.7,-632.2 -30.7,-632.2 l 658.5,-30.7 c 0,0 838.5,171.2 834.2,241.5 -4.4,70.2 163.3,244.6 208.9,449.4 45.7,204.7 199.3,340.8 32.5,441.8 -166.8,101 -695.8,88.9 -695.8,88.9" /><path
         id="path318"
         style="fill:#c37140;fill-opacity:1;fill-rule:nonzero;stroke:none"
         d="m 13090.6,7960.3 c 0,0 -104.3,-57.1 -189.9,-54.9 -85.6,2.2 -474.1,19.8 -482.9,11 -8.8,-8.8 41.7,-92.2 140.5,-125.1 98.8,-32.9 280.9,-22 399.5,-76.8 118.5,-54.9 319.4,-320.5 319.4,-320.5 0,0 122.9,36.2 96.6,164.6 -26.4,128.4 -112,329.3 -148.2,362.2 -36.2,32.9 -135,39.5 -135,39.5" /><path
         id="path320"
         style="fill:#c37140;fill-opacity:1;fill-rule:nonzero;stroke:none"
         d="m 14285.8,7463.1 c 0,0 -98.7,-118.5 -214,-200.8 -115.2,-82.3 -220.6,-72.5 -246.9,-88.9 -26.4,-16.5 -112,-131.7 -200.9,-158.1 -88.9,-26.3 -200.8,-26.3 -200.8,-26.3 0,0 -154.8,111.8 -148.2,214 6.6,102.2 -0.4,266.7 -0.2,398.4 0.2,131.7 -72.3,164.6 23.2,243.7 95.5,79 268,119.2 432,153.4 164,34.3 279.2,159.4 371.4,47.4 92.2,-111.9 191,-460.9 184.4,-582.8" /><path
         id="path322"
         style="fill:#361c19;fill-opacity:1;fill-rule:nonzero;stroke:none"
         d="m 13594.4,7538.9 c -3.3,13.1 36.2,154.7 79,197.5 42.8,42.8 148.2,92.2 220.6,19.8 72.4,-72.5 -102.1,-204.2 -98.8,-217.3 3.3,-13.2 95.5,13.1 154.8,0 59.2,-13.2 144.9,23 200.8,23 56,0 118.6,-36.2 135,-98.8 0,0 95.5,220.6 82.3,474.2 -13.1,253.5 -210.7,533.4 -484,592.7 -273.3,59.2 -793.5,-569.7 -793.5,-569.7 0,0 167.9,-273.3 174.5,-299.6 6.6,-26.4 329.3,-121.8 329.3,-121.8" /><path
         id="path324"
         style="fill:#a45532;fill-opacity:1;fill-rule:nonzero;stroke:none"
         d="m 13594.4,7538.9 -24.2,-41.8 c 0,0 -46.8,-61.4 -82.7,-96.5 -35.8,-35.2 -107.9,-224.7 -107.9,-224.7 0,0 -46.1,60.8 -51.1,67.4 -5.1,6.7 94.7,166 112.2,179.2 17.6,13.2 153.7,116.4 153.7,116.4" /><path
         id="path326"
         style="fill:#c37140;fill-opacity:1;fill-rule:nonzero;stroke:none"
         d="m 12319,6748.6 c -4.4,22 -61.5,559.8 294.2,714.5 355.6,154.8 750.7,-64.7 820.9,-358.9 70.3,-294.1 -229.8,-509.2 -560.5,-733.1 -330.7,-224 -589.7,-531.3 -589.7,-531.3 0,0 21.9,-263.4 92.2,-399.5 70.2,-136.1 228.3,-263.4 228.3,-263.4 0,0 -316.1,-206.3 -320.5,-184.4 -4.4,22 -382,324.9 -504.9,526.9 -122.9,201.9 -144.9,254.6 -149.3,280.9 -4.3,26.4 228.3,456.6 368.8,619 140.5,162.5 320.5,329.3 320.5,329.3" /><path
         id="path328"
         style="fill:#a45532;fill-opacity:1;fill-rule:nonzero;stroke:none"
         d="m 12749.2,7209.6 -87.8,-184.4 -342.4,-276.6 -4.4,166.6 254.6,127.6 180,166.8" /><path
         id="path330"
         style="fill:#c37140;fill-opacity:1;fill-rule:nonzero;stroke:none"
         d="m 12283.9,4992.5 c 0,0 23,-124 65.8,-278.8 42.8,-154.7 36.3,-171.2 65.9,-217.3 29.6,-46.1 138.3,-135 154.8,-135 16.4,0 49.3,0 49.3,0 0,0 83.5,-9.8 101,0 17.6,9.9 61.5,45 61.5,45 0,0 79,-17.5 101,0 21.9,17.6 48.2,17.6 43.9,50.5 -4.4,32.9 -28.6,169 -28.6,169 0,0 27.3,2.2 29,37.4 1.7,35.1 3.9,177.8 -50.9,276.5 -54.9,98.8 -272.2,237.1 -272.2,237.1 0,0 -155.9,6.6 -195.4,-15.3 -39.5,-22 -125.1,-169.1 -125.1,-169.1" /><path
         id="path332"
         style="fill:#a45532;fill-opacity:1;fill-rule:nonzero;stroke:none"
         d="m 12580.2,4361.4 c 17.1,0 39.5,0 39.5,0 l -138.3,154.8 c 0,0 56.6,-89.2 98.8,-154.8" /><path
         id="path334"
         style="fill:#a45532;fill-opacity:1;fill-rule:nonzero;stroke:none"
         d="m 12556.1,4586.4 c -6.6,6.6 81.3,-148.5 127.1,-229.3 10,-0.1 19.4,0.2 26.7,1.3 -49.7,70.3 -147.1,221.3 -153.8,228" /><path
         id="path336"
         style="fill:#a45532;fill-opacity:1;fill-rule:nonzero;stroke:none"
         d="m 12661.4,4643.5 120.8,-237.1 c 0,0 61,-13.5 90.7,-4.9 l -211.5,242" /><path
         id="path338"
         style="fill:#a45532;fill-opacity:1;fill-rule:nonzero;stroke:none"
         d="m 12927.5,4663.3 c 0.4,6.8 0.7,17.9 0.7,31.8 l -130.7,108.6 101,-177.8 c 0,0 27.3,2.2 29,37.4" /><path
         id="path340"
         style="fill:#100f0d;fill-opacity:1;fill-rule:nonzero;stroke:none"
         d="m 8495.12,7582.8 c 13.17,0 206.34,79 206.34,79 0,0 232.69,162.4 311.71,281 79.02,118.5 267.8,188.7 267.8,188.7 0,0 -188.78,52.7 -386.34,-8.7 -197.55,-61.5 -364.39,-221.8 -417.07,-284.3 -52.68,-62.6 -109.75,-75.7 -109.75,-75.7 0,0 114.14,-180 127.31,-180" /><path
         id="path342"
         style="fill:#f5f6f7;fill-opacity:1;fill-rule:nonzero;stroke:none"
         d="m 7439.64,9341.7 c -50.4,238.3 -81.58,454.8 -81.58,454.8 0,0 -122.93,79.1 -188.79,39.5 -65.85,-39.5 -61.46,-403.9 -70.24,-421.4 -8.78,-17.6 -140.49,-140.5 -140.49,-140.5 0,0 5.26,-21.2 12.17,-65.3 120.4,46.7 285.75,100.9 468.93,132.9" /><path
         id="path344"
         style="fill:#e9eef1;fill-opacity:1;fill-rule:nonzero;stroke:none"
         d="m 13730,8487.9 107.6,46.5 35.5,-97 c 0,0 -39.5,-212.9 -230.4,-234.9 -191,-21.9 87.3,285.4 87.3,285.4" /><path
         id="path346"
         style="fill:#211513;fill-opacity:1;fill-rule:nonzero;stroke:none"
         d="m 13517.5,8812.8 c -255.9,-8.4 -337,-174.2 -349.1,-361.4 -12.1,-187.1 -143.8,-387.2 -132.6,-515.5 11.2,-128.2 123.1,-175.2 96.8,-369.1 -26.3,-193.9 230.6,-417 230.6,-417 0,0 -72.1,271.4 10.6,409.6 82.6,138.2 161.4,269.9 154.5,401.7 -4.8,90.2 63.9,153.1 114.9,225.5 0.4,0.3 121,108.2 152,166 31.1,57.9 60.9,131.2 60.9,131.2 0,0 -82.6,337.4 -338.6,329" /></g></g></svg>