<?xml version="1.0" encoding="UTF-8" standalone="no"?>
<svg
   xmlns:dc="http://purl.org/dc/elements/1.1/"
   xmlns:cc="http://creativecommons.org/ns#"
   xmlns:rdf="http://www.w3.org/1999/02/22-rdf-syntax-ns#"
   xmlns:svg="http://www.w3.org/2000/svg"
   xmlns="http://www.w3.org/2000/svg"
   viewBox="0 0 3220.6133 2504.1333"
   height="2504.1333"
   width="3220.6133"
   xml:space="preserve"
   id="svg2"
   version="1.1"><metadata
     id="metadata8"><rdf:RDF><cc:Work
         rdf:about=""><dc:format>image/svg+xml</dc:format><dc:type
           rdf:resource="http://purl.org/dc/dcmitype/StillImage" /></cc:Work></rdf:RDF></metadata><defs
     id="defs6" /><g
     transform="matrix(1.3333333,0,0,-1.3333333,0,2504.1333)"
     id="g10"><g
       transform="scale(0.1)"
       id="g12"><g
         transform="scale(1.48188)"
         id="g14"><path
           id="path16"
           style="fill:none;fill-opacity:1;fill-rule:nonzero;stroke:none"
           d="M 16300,0 H 0 V 12673.8 H 16300 V 0" /></g><g
         transform="scale(1.31244)"
         id="g18"><path
           id="path20"
           style="fill:#b5613b;fill-opacity:1;fill-rule:nonzero;stroke:none"
           d="m 16105.8,10657 c 8.7,52 0,876.6 0,876.6 0,0 62.2,58.1 69.9,143.6 7.8,85.4 13,165.7 41.4,212.3 28.5,46.6 18.1,80.3 -36.2,33.7 -54.4,-46.6 -72.5,-116.5 -103.6,-116.5 -31.1,0 2.6,91.3 31.1,138.8 28.5,47.6 77.5,86.4 124.2,117.5 46.7,31.1 67.4,62.2 59.6,77.7 -7.7,15.5 -12.9,15.5 -20.7,15.5 -7.8,0 2.6,15.6 -38.9,15.6 -41.3,0 -170.9,-152.2 -199.3,-177.1 -28.5,-24.9 -67.3,-74.1 -67.3,-74.1 l -113.9,-160.6 -107.6,-904.9 15.6,-198.1 132,-27.2 213.7,27.2" /></g><g
         transform="scale(1.2757)"
         id="g22"><path
           id="path24"
           style="fill:#b5613b;fill-opacity:1;fill-rule:nonzero;stroke:none"
           d="m 16300,10075.7 c 0,0 -78.7,-155.52 -132.6,-238.65 -31.9,-49.22 -39.9,-69.25 -39.9,-69.25 0,0 -185.4,192.49 -280.7,230 -95.4,37.5 -354,24.4 -339.3,36.8 14.7,12.4 247.5,167.3 256.8,187.1 9.4,19.9 25.2,70.6 25.2,70.6 l 37.6,212.6 104.7,46.7 c 0,0 24.1,83.1 160.9,-78.4 136.9,-161.5 207.3,-397.5 207.3,-397.5" /></g><g
         transform="scale(1.2757)"
         id="g26"><path
           id="path28"
           style="fill:#a5532f;fill-opacity:1;fill-rule:nonzero;stroke:none"
           d="m 16001.8,10334.3 c 0,0 52.7,-181.7 75.1,-238.2 22.5,-56.4 149.4,-159.17 149.4,-159.17 l 73.7,138.77 c 0,0 -81.6,216 -124.9,243.3 -43.2,27.3 -173.3,15.3 -173.3,15.3" /></g><g
         transform="scale(1.26553)"
         id="g30"><path
           id="path32"
           style="fill:#100f0d;fill-opacity:1;fill-rule:nonzero;stroke:none"
           d="m 15838.1,3933.06 c 0,0 37.6,56.42 67.2,40.3 29.6,-16.12 29.6,-99.32 91.3,-330.3 61.8,-230.96 142.3,-303.42 222.9,-373.28 80.5,-69.77 36.4,-177.16 -67.2,-179.92 -103.5,-2.69 -176.3,10.75 -210.3,40.3 -34,29.55 -230.1,236.34 -230.1,236.34 0,0 -51.6,402.76 -63.3,424.25 -11.9,21.49 -68.2,212.17 -25.3,217.54 43,5.37 214.8,-75.23 214.8,-75.23" /></g><g
         transform="scale(1.25677)"
         id="g34"><path
           id="path36"
           style="fill:#252323;fill-opacity:1;fill-rule:nonzero;stroke:none"
           d="m 15514.9,3828.38 c 0,0 -101.9,-113.95 -161.3,-178.87 -59.5,-64.85 -146,-127.08 -110.9,-208.23 35.2,-81.09 259.6,-202.75 332.6,-262.26 73,-59.52 121.4,-321.78 423.1,-373.18 301.6,-51.41 296.2,81.16 271.8,148.71 -24.2,67.63 -321.7,392.12 -338,486.73 -16.2,94.68 -40.5,240.69 -67.5,277.21 -27.1,36.52 -73.1,71.93 -81.2,71.77 -8.1,-0.16 -268.6,38.12 -268.6,38.12" /></g><g
         transform="scale(1.22997)"
         id="g38"><path
           id="path40"
           style="fill:#ffffff;fill-opacity:1;fill-rule:nonzero;stroke:none"
           d="m 16186.4,4124.41 h 113.6 l -4,-77.64 c 0,0 -5.5,-120.82 -16.6,-134.96 -11,-14.23 -113.2,-19.76 -113.2,-19.76 0,0 -69.1,24.8 -52.5,77.32 16.5,52.6 72.7,155.04 72.7,155.04" /></g><g
         transform="scale(1.21987)"
         id="g42"><path
           id="path44"
           style="fill:#ffffff;fill-opacity:1;fill-rule:nonzero;stroke:none"
           d="m 15978.2,3868.6 c 0,0 -32,-114.27 26.5,-144.93 58.5,-30.57 295.3,107.31 295.3,107.31 0,0 -150.4,70.99 -211.7,73.78 -61.4,2.78 -110.1,-36.16 -110.1,-36.16" /></g><g
         transform="scale(1.23352)"
         id="g46"><path
           id="path48"
           style="fill:#bb643e;fill-opacity:1;fill-rule:nonzero;stroke:none"
           d="m 16050.8,3988.36 c 16.5,0 99.2,-41.35 124,-27.57 24.8,13.78 74.4,74.35 74.4,74.35 l 50.8,987.41 -196.8,-105.79 c 0,0 -24.8,12.4 -99.2,-371.94 -74.4,-384.27 46.8,-556.46 46.8,-556.46" /></g><g
         transform="scale(1.30061)"
         id="g50"><path
           id="path52"
           style="fill:#b5613b;fill-opacity:1;fill-rule:nonzero;stroke:none"
           d="m 16266.8,10602.8 c 0,0 22.5,-143.2 22.6,-175.4 0.1,-32.1 -37.8,-121.6 -39.1,-136.8 -1.4,-15.2 49.7,-186.8 45.4,-195.7 -4.4,-9 -67.7,-5 -71,-9.7 -3.4,-4.8 -22,-60.1 -21.7,-66 0.2,-5.9 -4.2,-17.3 -4.2,-17.3 0,0 -0.8,-24.72 -8.4,-35.4 -7.5,-10.66 -13.9,-30.73 -17.3,-38.22 -3.5,-7.48 -22.3,-93.54 -35.7,-103.63 -13.6,-10.08 -234.9,43.39 -261.5,57.45 -26.5,14.05 -114.2,179.1 -121.6,212.9 -7.5,33.9 12.3,126.6 12.3,126.6 0,0 -72.2,31.6 -87.2,99.4 -14.9,67.7 19.2,173.7 85,175.8 65.8,2.1 75.7,-86.7 77.9,-110.4 2.1,-23.8 6.9,-54.8 9.5,-57.7 2.6,-2.8 27.9,48.3 48.8,79.9 20.7,31.6 33.1,134.3 51.5,169.8 18.4,35.5 77.3,64.7 102.4,67.6 25.1,2.9 212.3,-43.2 212.3,-43.2" /></g><g
         transform="scale(1.29829)"
         id="g54"><path
           id="path56"
           style="fill:#2f1d16;fill-opacity:1;fill-rule:nonzero;stroke:none"
           d="m 16300,10618.3 -4.2,3.4 c 0,0 0.3,-2.1 0.9,-5.6 1,0.7 2.1,1.4 3.3,2.2" /></g><g
         transform="scale(1.30339)"
         id="g58"><path
           id="path60"
           style="fill:#2f1d16;fill-opacity:1;fill-rule:nonzero;stroke:none"
           d="m 15688,10230.2 c -17.7,16.1 -35.4,38.9 -42,68.8 -14.9,67.6 19.1,173.3 84.8,175.4 65.7,2.1 75.6,-86.5 77.7,-110.2 2.1,-23.7 6.9,-54.6 9.5,-57.5 0.2,-0.1 0.3,-0.1 0.6,0 3.2,-0.1 21.7,0 25.4,10.2 3.9,11.2 40.5,94.1 40.5,94.1 0,0 34,18.9 36.6,62.2 2.7,43.3 0.2,51.7 25.6,66.9 25.3,15.2 28.4,70.5 50.9,76.9 0,0 0,0 0.1,0 15.3,4.2 77.1,-3.7 115.7,-9.3 57.2,-12.4 118.7,-27.5 118.7,-27.5 67.9,91.8 0.4,163.5 -29.2,190.8 0,0 -52.2,92.4 -119.2,124.6 -67,32.2 -120.1,32.7 -138.2,34.8 -18.2,2 -19.1,4.8 -57.7,10.6 -38.8,5.8 -92.5,-12.2 -101.7,-11.8 -9.3,0.3 -31.5,1.8 -67.1,3 -35.6,1.3 -78.1,-28.1 -82.5,-29.9 -4.3,-1.9 -30.5,-7.7 -50.4,-14.6 -19.9,-7 -42.7,-37.3 -61.7,-47 -19.1,-9.8 -53.1,-41.7 -53.1,-41.7 v 0 c -40,-28.8 -83.7,-83.9 -102.3,-189.5 -38.6,-217.9 75.3,-440.4 78,-500.3 0,0 139.7,64.5 241,121" /></g><g
         transform="scale(1.25302)"
         id="g62"><path
           id="path64"
           style="fill:#c37140;fill-opacity:1;fill-rule:nonzero;stroke:none"
           d="m 15600.3,6424.17 c 0,0 119.3,-504.47 108.5,-656.34 -10.9,-151.87 -184.4,-471.9 -184.4,-661.76 0,-189.86 47.4,-912.68 43.4,-1095.75 -4.1,-183.08 -12.2,-244.06 -12.2,-244.06 0,0 85.4,-36.63 174.9,-36.63 89.5,0 138.3,0 138.3,0 0,0 36.6,748.52 138.3,1074.05 101.8,325.45 114,626.49 118,671.26 4,44.69 174.9,463.76 134.3,740.37 -40.7,276.69 -659.1,208.86 -659.1,208.86" /></g><g
         transform="scale(1.28096)"
         id="g66"><path
           id="path68"
           style="fill:#252323;fill-opacity:1;fill-rule:nonzero;stroke:none"
           d="m 15546.6,8005.88 -143.3,-95.5 c 0,0 -212.2,-161.85 -275.9,-331.63 -63.7,-169.8 -116.7,-408.57 -127.4,-647.35 -10.6,-238.75 -58.4,-397.92 -37.1,-551.8 21.2,-153.94 21.2,-153.94 21.2,-153.94 0,0 344.9,-31.77 562.5,-111.4 217.5,-79.55 413.8,-84.86 424.4,-68.94 10.6,15.85 106.2,573.01 217.6,859.55 111.4,286.53 -53.1,838.36 -53.1,838.36 0,0 -248.9,228.16 -318.1,262.65 -69.2,34.49 -270.8,0 -270.8,0" /></g><g
         transform="scale(1.2892)"
         id="g70"><path
           id="path72"
           style="fill:#e9eef1;fill-opacity:1;fill-rule:nonzero;stroke:none"
           d="m 15871.2,9955.5 c 0,0 142.4,-173.98 211.1,-276.79 68.8,-102.81 118.8,-250.42 129.4,-316.33 10.5,-65.9 15.8,-205.61 15.8,-205.61 0,0 72.5,-395.41 0,-628.71 -72.5,-233.29 -195.1,-834.32 -195.1,-834.32 0,0 -232.4,31.64 -383.1,63.27 -150.7,31.63 -344.4,102.81 -344.4,102.81 0,0 31.6,379.59 0,549.62 -31.7,170.02 -15.8,541.71 -47.5,672.2 -31.6,130.49 -94.8,304.08 -83,454.72 11.8,150.64 455.6,478.74 474.9,494.44 19.4,15.6 221.9,-75.3 221.9,-75.3" /></g><g
         transform="scale(1.28711)"
         id="g74"><path
           id="path76"
           style="fill:#c37140;fill-opacity:1;fill-rule:nonzero;stroke:none"
           d="m 15880.1,9930.2 c 0,0 101.7,-64.18 104.4,-249 2.6,-184.84 -194.5,-541.28 -398.9,-553.16 -204.5,-11.88 -323.3,154.46 -343.1,221.79 -19.8,67.33 -87.1,316.84 0,411.9 87.2,95.05 130.7,230.05 150.5,285.27 19.8,55.3 159.3,277.1 281.6,455.3 122.4,178.3 121.6,427.8 185.3,728.8 63.8,301 157.1,471.3 175.8,558.4 18.7,87.1 18.7,87.1 18.7,87.1 l 245.6,-87.1 c 0,0 0,-487.1 -55.5,-685.2 -55.4,-198 -94.1,-499 -136.1,-669.3 -42.1,-170.3 -228.3,-504.8 -228.3,-504.8" /></g><g
         transform="scale(1.26225)"
         id="g78"><path
           id="path80"
           style="fill:#a5532f;fill-opacity:1;fill-rule:nonzero;stroke:none"
           d="m 16122.2,9889.36 c 9.8,-54.1 88,-141.53 139.5,-195.57 24.4,65.14 38.3,127.83 37.6,178.07 -2.7,188.44 -106.4,253.94 -106.4,253.94 0,0 -84.8,-157.69 -70.7,-236.44" /></g><g
         transform="scale(1.28742)"
         id="g82"><path
           id="path84"
           style="fill:#c37140;fill-opacity:1;fill-rule:nonzero;stroke:none"
           d="m 16050.5,11873.8 c 0,0 43.6,344.4 40.9,389.3 -2.6,44.9 -20.4,116.2 -20.4,116.2 0,0 23.1,197.9 38.9,232.3 15.9,34.3 124.1,142.5 139.9,145.1 15.9,2.7 10.6,-44.8 10.6,-44.8 0,0 15.8,-39.6 13.2,-60.7 -2.6,-21.2 -23.8,-63.4 -23.8,-63.4 0,0 13.2,-10.6 10.6,-71.3 -2.7,-60.7 -42.3,-132 -34.3,-168.9 7.9,-37 66,-141.2 69.9,-232.3 4,-91.1 1.3,-229.9 0,-328.6 -1.2,-98.8 -245.5,87.1 -245.5,87.1" /></g><path
         id="path86"
         style="fill:#bb643e;fill-opacity:1;fill-rule:nonzero;stroke:none"
         d="m 5967.36,4082 c 0,0 188.61,-107.1 257.43,-188.7 68.81,-81.5 249.78,-219.2 328.79,-300.7 79.02,-81.6 112.15,-119.8 89.21,-137.7 -22.94,-17.8 -89.21,10.2 -89.21,10.2 0,0 -28.03,-15.3 -81.56,5.1 -53.52,20.4 -219.2,178.5 -244.69,183.6 -25.48,5.1 -71.36,-12.8 -99.4,-17.9 -28.04,-5.1 -91.75,-38.2 -91.75,-38.2 l -94.31,107 25.49,377.3" /><path
         id="path88"
         style="fill:#1a1918;fill-opacity:1;fill-rule:nonzero;stroke:none"
         d="m 4351.41,3847.5 c 0,0 190.18,-219.2 286.25,-275.3 96.07,-56.1 136.85,-15.3 187.83,-76.5 50.97,-61.1 56.07,-178.4 45.88,-198.8 -10.2,-20.4 -152.93,-51 -316.06,-45.9 -163.12,5.1 -401.01,58.7 -445.19,70.2 -44.18,11.4 -74.77,108.3 -135.94,317.3 -61.17,209 -87.76,210.4 0,259.9 87.76,49.6 377.23,-50.9 377.23,-50.9" /><path
         id="path90"
         style="fill:#252323;fill-opacity:1;fill-rule:nonzero;stroke:none"
         d="m 3515.4,3827.1 c 5.09,15.3 -56.08,51 -56.08,51 0,0 -56.07,15.2 -76.46,-25.5 -20.39,-40.8 -331.35,-387.5 -346.64,-428.2 -15.3,-40.8 137.63,-127.9 336.44,-280.6 198.81,-152.7 428.2,-314.2 662.69,-368.5 234.49,-54.4 550.55,-27.2 586.23,0 35.69,27.2 6.97,159.7 -37.29,215.8 -44.27,56 -156.42,101.5 -232.88,152.7 -76.47,51.2 -183.52,97 -209.01,260.2 -25.49,163.1 -57.77,331.3 -57.77,331.3 l -350.04,163.1 -219.19,-71.3" /><path
         id="path92"
         style="fill:#ffffff;fill-opacity:1;fill-rule:nonzero;stroke:none"
         d="m 3515.4,3944.3 -56.08,-66.2 c 0,0 45.88,-263.4 81.56,-266.8 35.69,-3.4 271.88,47.6 271.88,47.6 l -78.17,239.5 -219.19,45.9" /><path
         id="path94"
         style="fill:#ad5336;fill-opacity:1;fill-rule:nonzero;stroke:none"
         d="m 4934.24,5534.8 c 0,0 757.84,0 1038.22,-112.2 280.36,-112.1 188.6,-509.7 168.21,-519.9 -20.38,-10.2 -1121.47,-127.5 -1121.47,-127.5 l -667.79,282.6 582.83,477" /><path
         id="path96"
         style="fill:#1a1918;fill-opacity:1;fill-rule:nonzero;stroke:none"
         d="m 4438.07,5562 c 74.76,0 496.17,-27.2 496.17,-27.2 l -108.8,-211.2 c 0,0 -271.83,-167.3 -339.8,-141.2 -67.96,26.1 -215.51,26.1 -240.29,114.5 -24.78,88.3 0,156.3 0,156.3 l 192.72,108.8" /><path
         id="path98"
         style="fill:#bb643e;fill-opacity:1;fill-rule:nonzero;stroke:none"
         d="m 4884.02,5324.1 c 0,0 940.6,-95.2 1144.51,-207.3 203.9,-112.2 194.76,-417.8 40.78,-571 -153.97,-153.1 -328.44,-231.6 -433.3,-301.4 -104.87,-69.8 -525.06,-233.8 -871.69,-335.8 -346.64,-101.9 -632.11,-249.7 -632.11,-249.7 h -319.45 l -297.36,285.4 112.14,300.1 c 0,0 282.07,408.5 457.09,612.4 175.02,203.9 799.39,467.3 799.39,467.3" /><path
         id="path100"
         style="fill:#a5532f;fill-opacity:1;fill-rule:nonzero;stroke:none"
         d="m 4553.61,4392.9 c 0,0 254.89,96.9 523.36,198.8 268.47,102 314.35,122.4 314.35,122.4 0,0 -535.25,-66.3 -642.3,-107.1 -107.05,-40.8 -107.05,-40.8 -107.05,-40.8 l 61.49,385.5 -326.57,-237.6 -25.48,-158.1 202.2,-163.1" /><path
         id="path102"
         style="fill:#252323;fill-opacity:1;fill-rule:nonzero;stroke:none"
         d="m 3005.63,5259.5 c 0,0 -205.6,-193.7 -232.79,-404.4 -27.19,-210.7 135.94,-621.9 441.79,-773.1 305.86,-151.3 380.63,-42.5 618.52,-96.9 237.89,-54.4 428.2,-54.4 482.57,0 54.38,54.4 122.35,237.9 169.92,305.9 47.58,67.9 67.97,20.4 67.97,101.9 0,81.6 47.58,319.5 122.35,496.2 74.76,176.7 212.22,435 208.06,435 -4.16,0 -792.59,-6.8 -901.34,0 -108.75,6.8 -977.05,-64.6 -977.05,-64.6" /><path
         id="path104"
         style="fill:#c37140;fill-opacity:1;fill-rule:nonzero;stroke:none"
         d="m 4922.34,7517.8 c 25.49,10.2 341.54,8.5 341.54,8.5 l 199.66,-176 c 0,0 131.69,-56.8 162.28,-240.3 30.58,-183.6 -127.45,-565.9 -117.25,-642.3 10.19,-76.5 91.76,-479.2 158.03,-713.7 66.27,-234.5 45.88,-418 45.88,-418 l 101.95,-484.3 c 0,0 112.15,-453.7 152.93,-769.7 40.78,-316.1 101.95,-520 101.95,-520 l -234.49,-107.1 c 0,0 -174.45,494.5 -349.76,805.5 -175.3,310.9 -221.18,637.2 -267.06,856.4 -45.88,219.2 -295.66,759.5 -295.66,759.5 l -559.04,86.7 -278.67,543.7 c 0,0 523.36,938.6 570.94,962.1 47.57,23.5 266.77,49 266.77,49" /><path
         id="path106"
         style="fill:#a5532f;fill-opacity:1;fill-rule:nonzero;stroke:none"
         d="m 4390.49,6347 c 0,0 146.13,51 268.47,152.9 122.35,102 146.14,142.8 146.14,142.8 0,0 52.29,-449.7 76.46,-567.6 24.17,-117.8 -137.63,-115.5 -141.03,-105.3 -3.4,10.2 -54.38,135.9 -84.96,166.5 -30.59,30.6 -224.3,47.6 -234.5,57.8 -10.19,10.2 -30.58,152.9 -30.58,152.9" /><path
         id="path108"
         style="fill:#e9eef1;fill-opacity:1;fill-rule:nonzero;stroke:none"
         d="m 4839.08,7621.4 c 0,0 -334.74,-101.9 -543.75,-329.6 -209,-227.7 -387.41,-426.5 -499.56,-574.4 -112.15,-147.8 -407.82,-601.5 -499.57,-881.9 -91.76,-280.3 -290.57,-576 -290.57,-576 0,0 489.37,-101.9 774.84,-71.4 285.47,30.6 545.45,86.7 570.94,107.1 25.48,20.4 193.71,203.9 224.29,244.7 30.59,40.8 45.88,81.5 91.76,132.5 45.88,51 254.88,203.9 254.88,203.9 l -40.78,198.8 c 0,0 -193.71,-101.9 -387.42,91.8 -193.71,193.7 91.65,983.8 344.03,1167.3 252.39,183.6 576.94,74.6 625.37,16.1 48.43,-58.5 0,243.9 0,243.9 l -225.15,27.2 h -399.31" /><path
         id="path110"
         style="fill:#c37140;fill-opacity:1;fill-rule:nonzero;stroke:none"
         d="m 5834.82,3454.9 c 0,0 57.77,-112.1 57.77,-159.7 0,-47.6 13.6,-135.9 74.77,-200.5 61.17,-64.6 125.74,-108.7 132.53,-142.7 6.8,-34 54.38,-197.1 78.17,-234.5 23.79,-37.4 67.97,-51 74.76,-34 6.8,17 -23.79,214.1 -23.79,254.9 0,40.8 -10.19,127.2 -10.19,127.2 0,0 105.35,-164.6 186.91,-256.3 81.56,-91.8 135.94,-102 173.32,-102 37.39,0 57.78,37.4 57.78,37.4 0,0 57.77,-17 84.96,-6.8 27.18,10.2 33.98,37.4 33.98,37.4 0,0 40.78,23.8 37.38,50.9 -3.39,27.2 -265.07,268.5 -339.84,350.1 -74.77,81.5 -384.02,385.7 -384.02,385.7 l -183.51,49.3 -50.98,-156.4" /><path
         id="path112"
         style="fill:#a5532f;fill-opacity:1;fill-rule:nonzero;stroke:none"
         d="m 6793.17,2826.2 c -2.36,19 -130.13,141.9 -232.69,242.3 -49.23,16.5 -111.29,38.9 -120.74,34.7 -15.3,-6.8 52.67,-57.8 73.06,-86.6 20.4,-28.9 242.99,-241.3 242.99,-241.3 0,0 40.78,23.8 37.38,50.9" /><path
         id="path114"
         style="fill:#a5532f;fill-opacity:1;fill-rule:nonzero;stroke:none"
         d="m 6594.37,2814.3 c -33.99,39.1 -261.68,282.1 -270.18,275.3 -8.5,-6.8 110.45,-135.9 158.03,-219.2 37.23,-65.1 75.41,-128.1 92.74,-163 1.37,-0.1 2.78,-0.1 4.11,-0.1 37.39,0 57.78,37.4 57.78,37.4 0,0 9.71,-2.9 22.99,-5.5 -21.85,25 -48.24,55.3 -65.47,75.1" /><path
         id="path116"
         style="fill:#1a1918;fill-opacity:1;fill-rule:nonzero;stroke:none"
         d="m 4407.48,4362.3 c 0,0 -152.93,10.2 -241.29,-50.9 -88.36,-61.2 -139.33,-105.4 -200.51,-122.4 -61.16,-17 -152.92,-34 -152.92,-34 0,0 166.52,-44.2 231.09,-23.8 64.57,20.4 59.75,125.8 201.5,153 141.74,27.2 162.13,78.1 162.13,78.1" /><path
         id="path118"
         style="fill:#c37140;fill-opacity:1;fill-rule:nonzero;stroke:none"
         d="m 5849.57,7560.2 c 0,0 -133.7,-101.9 -191.47,-149.5 -57.77,-47.6 -146.13,-118.9 -146.13,-118.9 0,0 -132.54,173.3 -248.09,234.5 -115.55,61.1 -445.19,81.5 -424.8,95.1 20.39,13.6 337.61,176.7 352.32,200.5 14.71,23.8 41.9,85.8 41.9,85.8 l 78.16,264.3 139.34,44.1 c 0,0 42.48,102 192.86,-122.3 150.38,-224.3 205.91,-533.6 205.91,-533.6" /><path
         id="path120"
         style="fill:#a5532f;fill-opacity:1;fill-rule:nonzero;stroke:none"
         d="m 5632.2,8032.6 c 0,0 -115.53,-169.7 -62.46,-414.6 16.41,-75.7 123.53,-179 123.53,-179 l 156.3,121.2 c 0,0 -72.52,285.5 -123.5,326.3 -50.98,40.8 -93.87,146.1 -93.87,146.1" /><path
         id="path122"
         style="fill:#c37140;fill-opacity:1;fill-rule:nonzero;stroke:none"
         d="m 6335.74,8449.8 c 0,0 7.48,-188.4 2.8,-229.9 -4.68,-41.6 -67.08,-151.6 -71.16,-171 -4.07,-19.4 36.2,-248.7 29.26,-259.6 -6.95,-10.9 -88.11,3.7 -93.14,-1.9 -5.03,-5.6 -37.45,-74.3 -38.01,-82 -0.56,-7.6 -7.91,-21.7 -7.91,-21.7 0,0 -4.83,-31.8 -16.17,-44.4 -11.34,-12.7 -22.66,-37.6 -28.23,-46.8 -5.57,-9.2 -42.77,-117.5 -61.69,-128.5 -18.92,-11 -296.94,91.4 -329.13,113.5 -32.2,22.2 -120.63,248.5 -125.16,293.4 -4.54,44.9 35,161.7 35,161.7 0,0 -88.57,51.6 -97.64,141.4 -9.07,89.8 50.83,221.6 136.17,214.4 85.35,-7.2 84.84,-123.4 84,-154.4 -0.85,-31 0.69,-71.8 3.68,-75.9 2.99,-4 43.34,58.1 74.95,95.8 31.62,37.7 63.04,168.6 92.14,211.7 29.1,43.1 109.67,71.9 142.47,71.9 32.81,0 267.77,-87.7 267.77,-87.7" /><path
         id="path124"
         style="fill:#2f1d16;fill-opacity:1;fill-rule:nonzero;stroke:none"
         d="m 6340.66,8444.8 -4.92,5 c 0,0 0.1,-2.7 0.28,-7.3 1.43,0.7 2.94,1.4 4.64,2.3" /><path
         id="path126"
         style="fill:#2f1d16;fill-opacity:1;fill-rule:nonzero;stroke:none"
         d="m 5578.56,8078.6 c -20.52,23.6 -40,55.8 -44,95.4 -9.07,89.8 50.83,221.6 136.17,214.4 85.35,-7.2 84.84,-123.4 84,-154.4 -0.85,-31 0.69,-71.8 3.68,-75.9 0.14,-0.1 0.39,-0.1 0.69,0 4.19,-0.6 28.07,-3.3 34.39,9.3 6.93,13.9 66.61,115.7 66.61,115.7 0,0 46.87,19.4 56.83,75 9.96,55.7 8.07,66.9 43.2,82.8 35.08,15.9 47.35,87 77.52,91.9 0.04,0 0.08,0 0.13,0 20.45,3.2 99.26,-16.4 148.39,-29.5 72.16,-24.6 149.57,-53.5 149.57,-53.5 101.67,108.7 25.05,211.6 -9.13,251.5 0,0 -53.58,127.44 -135.52,179.25 -81.94,51.8 -150.45,60.42 -173.7,65.78 -23.26,5.36 -23.89,9.11 -73.16,22.45 -49.27,13.34 -121.52,-1.84 -133.4,0.02 -11.88,1.87 -40.52,7.1 -86.41,14.07 -45.88,6.96 -105.37,-24.58 -111.25,-26.34 -5.88,-1.76 -40.75,-5.28 -67.5,-11.3 -26.75,-6.02 -60.86,-41.81 -86.98,-51.58 -26.13,-9.77 -74.98,-45.94 -74.98,-45.94 v 0 c -56.18,-31.27 -120.98,-96.01 -161.04,-229.91 -82.68,-276.3 31.16,-581.5 25.58,-659.5 0,0 190.62,62.4 330.31,120.3" /><path
         id="path128"
         style="fill:#bb643e;fill-opacity:1;fill-rule:nonzero;stroke:none"
         d="m 15066.6,4836.4 c 0,0 15.3,-249.8 -66.2,-474.1 -81.6,-224.3 -81.6,-672.9 -71.4,-830.9 10.2,-158 27.1,-372.1 67.1,-433.3 39.9,-61.2 234.4,-71.4 287.5,-66.3 53.2,5.1 236.7,-12.4 287.7,-1.1 51,11.3 132.5,13 166.5,19.8 34,6.8 56.1,8.5 56.1,8.5 0,0 241.3,-34.8 256.6,6 15.3,40.8 -56.1,51 -94.3,71.3 -38.3,20.4 -213.4,54 -268.5,69.1 -55.2,15.1 -320.6,86.4 -335.8,89 -15.1,2.5 -106.9,5.1 -106.9,17.8 0,12.8 -6.7,414.6 57.8,598.1 64.6,183.6 167.4,469 185.7,577.8 18.2,108.7 31.8,227.7 52.2,271.8 20.4,44.2 69.8,208.4 77.2,219.2 7.5,10.8 -16.3,113.9 -257.5,45.9 -241.1,-67.9 -241.1,-67.9 -241.1,-67.9 l -52.7,-120.7" /><path
         id="path130"
         style="fill:#1a1918;fill-opacity:1;fill-rule:nonzero;stroke:none"
         d="m 8557.38,4294.4 c 2.97,10.2 25.06,87.5 25.06,87.5 0,0 -0.83,58.6 -25.06,89.2 -24.22,30.6 -550.97,67.9 -550.97,67.9 0,0 -33.32,-108.8 -37.38,-244.6 -4.06,-135.8 74.76,-360.3 74.76,-360.3 l 343.24,-176.7 451.99,112.2 -281.64,424.8" /><path
         id="path132"
         style="fill:#252323;fill-opacity:1;fill-rule:nonzero;stroke:none"
         d="m 8220.51,3995.3 v 86.7 c 0,0 -10.2,54.4 -81.56,75.6 -71.37,21.2 -499.57,-29.8 -514.86,-29.8 -15.3,0 -56.08,-351.7 0,-438.4 56.07,-86.6 107.05,-76.4 142.73,-188.6 35.68,-112.1 22.3,-358 141.14,-561.3 118.84,-203.3 547.04,-325.7 608.21,-284.9 61.17,40.8 -96.85,290.1 -45.88,489.2 50.98,199 91.76,387.6 86.66,413.1 -5.09,25.5 -56.07,91.8 -56.07,91.8 l -280.37,346.6" /><path
         id="path134"
         style="fill:#ffffff;fill-opacity:1;fill-rule:nonzero;stroke:none"
         d="m 8312.27,4066.7 h -173.32 c 0,0 20.39,-112.2 61.17,-183.6 40.78,-71.3 158.02,-147.8 158.02,-147.8 l -45.87,331.4" /><path
         id="path136"
         style="fill:#ffffff;fill-opacity:1;fill-rule:nonzero;stroke:none"
         d="m 8582.44,4381.9 c 0,0 -168.22,-84.1 -164.82,-111.3 3.4,-27.2 190.31,-336.5 190.31,-336.5 l 88.36,54.4 -113.85,393.4" /><path
         id="path138"
         style="fill:#bb643e;fill-opacity:1;fill-rule:nonzero;stroke:none"
         d="m 11228.1,4245.1 c -15.3,20.4 -176.2,131.2 -176.2,131.2 0,0 -384.5,145.8 -843.3,142.4 -458.8,-3.4 -749.37,-59.5 -948.18,-74.8 -198.8,-15.3 -677.98,-62 -677.98,-62 0,0 -17.76,-160 44.64,-283.5 62.41,-123.5 1112.52,-337.6 1418.42,-296.8 305.8,40.8 948.1,137.6 948.1,137.6 l 234.5,305.9" /><path
         id="path140"
         style="fill:#c37140;fill-opacity:1;fill-rule:nonzero;stroke:none"
         d="m 11819.4,4413.3 c -88.3,34 -333.2,102 -333.1,105.4 0.1,3.4 -625.2,-207.3 -676.2,-220.9 -51,-13.6 -479.2,69.6 -922.66,23.7 -443.5,-45.8 -387.43,-91.7 -698.38,-147.8 -310.95,-56.1 -876.79,-107 -876.79,-107 l 45.87,-331.4 142.74,-86.6 c 0,0 168.22,76.4 688.18,30.5 519.96,-45.8 1218.34,-96.8 1468.14,-76.4 249.8,20.4 751.7,40.9 994,91.7 242.3,50.9 336.5,96.9 336.5,96.9 l -168.3,621.9" /><path
         id="path142"
         style="fill:#252323;fill-opacity:1;fill-rule:nonzero;stroke:none"
         d="m 14011.4,4515.3 c 0,0 -78.1,-13.6 -98.5,-54.4 -20.4,-40.8 -190.3,-271.9 -299.1,-339.9 -108.7,-67.9 -333,-129.1 -414.6,-210.7 -81.6,-81.5 -95.2,-142.7 -251.5,-203.9 -156.3,-61.1 -876.8,-428.2 -876.8,-428.2 0,0 -183.5,489.4 -258.3,672.9 -74.7,183.5 -319.4,584.5 -326.2,618.5 -6.8,34 401,195.6 679.7,478.5 278.6,282.8 516.5,602.2 910.8,704.2 394.2,101.9 567.5,-53.3 725.5,-77.6 158,-24.4 416.3,-350.6 416.3,-350.6 l -207.3,-808.8" /><g
         transform="scale(1.03035)"
         id="g144"><path
           id="path146"
           style="fill:#e9eef1;fill-opacity:1;fill-rule:nonzero;stroke:none"
           d="m 15993.3,6321.64 c 0,0 -125.4,92.4 -346.4,131.99 -220.9,39.51 -687.6,-52.79 -1137.8,-290.29 -450.3,-237.49 -1113.3,-655.79 -1113.3,-655.79 0,0 -4.9,-353.47 39.6,-600.86 44.6,-247.4 163.3,-524.39 163.3,-524.39 0,0 465.1,44.45 757,103.85 291.9,59.39 509.5,168.19 608.5,202.84 98.9,34.65 138.5,64.35 138.5,64.35 0,0 415.6,590.96 430.5,668.99 14.8,78.04 634.9,242.93 634.9,242.93 0,0 131.9,332.51 97.3,398.02 -34.6,65.42 -272.1,258.36 -272.1,258.36" /></g><g
         transform="scale(1.05869)"
         id="g148"><path
           id="path150"
           style="fill:#c37140;fill-opacity:1;fill-rule:nonzero;stroke:none"
           d="m 16213.1,5514.44 c 0,0 -156.3,-27.86 -225.5,-42.88 -69,-15.02 -252.4,42.03 -252.4,42.03 0,0 16.2,233.97 -22.4,351.28 -57.8,175.22 -170.7,284.98 -147.7,287.52 23,2.65 130.9,-37.31 157.3,-35.32 123,9.63 123,9.63 123,9.63 l 179.8,134.04 136.1,-23.05 c 0,0 79.8,67.25 109.2,-186.08 29.5,-253.43 -57.4,-537.17 -57.4,-537.17" /></g><g
         transform="scale(1.0571)"
         id="g152"><path
           id="path154"
           style="fill:#a5532f;fill-opacity:1;fill-rule:nonzero;stroke:none"
           d="m 16215.2,6023.75 c 0,0 -144.2,-113.89 -188.1,-331.37 -14.5,-71.8 26.6,-203.96 26.6,-203.96 l 183.9,34.34 c 0,0 62.4,271.59 37.1,327.88 -25.2,56.38 -59.5,173.11 -59.5,173.11" /></g><g
         transform="scale(1.02118)"
         id="g156"><path
           id="path158"
           style="fill:#c37140;fill-opacity:1;fill-rule:nonzero;stroke:none"
           d="m 16253.4,6291.95 -116.4,86.47 c 0,0 -159.9,86.56 -189.7,79.91 -30,-6.66 23.3,-56.6 79.8,-96.56 56.6,-39.85 207.3,-123.19 240.1,-221.21 32.8,-98.03 -13.8,151.39 -13.8,151.39" /></g><g
         transform="scale(1.00815)"
         id="g160"><path
           id="path162"
           style="fill:#c37140;fill-opacity:1;fill-rule:nonzero;stroke:none"
           d="m 15238.8,2805.05 c 0,0 14.2,-190.45 -2.5,-271.29 -16.7,-80.94 -16.7,-161.89 77.7,-188.76 94.4,-26.98 438.3,40.37 640.5,23.5 202.3,-16.76 239.3,14.39 249.4,21.93 10.1,7.63 96.1,30.35 96.1,55.64 0,25.3 -318.5,111.29 -450,139.07 -131.5,27.77 -343.8,55.65 -348.9,75.88 -5,20.24 -10.1,164.26 -10.1,164.26 l -252.2,-20.23" /></g><path
         id="path164"
         style="fill:#a25036;fill-opacity:1;fill-rule:nonzero;stroke:none"
         d="m 15635.9,3118.5 c 13.6,0 105.3,0 134.2,-15.3 28.9,-15.3 23.8,-44.2 23.8,-44.2 l 52.5,-6.4 c 0,0 -1.5,47.2 -38.9,79.5 -37.4,32.3 -210.7,27.2 -210.7,27.2 l 39.1,-40.8" /><g
         transform="scale(1.02055)"
         id="g166"><path
           id="path168"
           style="fill:#c37140;fill-opacity:1;fill-rule:nonzero;stroke:none"
           d="m 15677.3,6227.51 c -42.2,-6.17 -369.6,-94.95 -544.4,-344.62 -174.9,-249.76 -15,-519.52 49.9,-564.5 64.9,-44.97 84.9,-44.97 99.9,-54.87 15,-9.99 5,-554.5 -10,-719.31 -15,-164.82 -40,-299.74 -40,-299.74 0,0 -173.3,-439.57 -179.1,-684.24 -5.7,-244.77 0,-789.28 0,-789.28 l 249.1,19.99 c 0,0 50,389.6 189.8,719.32 139.8,329.62 184.8,549.41 184.8,674.34 0,124.83 164.8,369.6 219.8,679.34 55,309.63 89.8,394.59 89.8,409.48 0,14.99 290.9,238.4 302,524.52 11.1,286.12 -167,494.54 -611.6,429.57" /></g><path
         id="path170"
         style="fill:#a5532f;fill-opacity:1;fill-rule:nonzero;stroke:none"
         d="m 15566.2,5764.2 c -73.9,-15.7 -143.9,-15.6 -203,-11.5 -0.1,-161.1 87.3,-294.3 131.6,-325 66.3,-45.9 86.7,-45.9 102,-56 51,270.1 183.5,463.8 183.5,463.8 0,0 -45.9,-35.6 -214.1,-71.3" /><g
         transform="scale(1.10373)"
         id="g172"><path
           id="path174"
           style="fill:#c37140;fill-opacity:1;fill-rule:nonzero;stroke:none"
           d="m 16300,5819.18 c 0,0 -73.6,-154.21 -94.8,-185.46 -21.3,-31.35 -117.8,-93.24 -129.2,-107.01 -11.5,-13.86 -75.9,-214.72 -86.1,-220.61 -10.2,-5.71 -69.1,40.23 -75.5,37.87 -6.3,-2.45 -61.3,-43.85 -65.1,-49.74 -3.6,-5.89 -15.4,-14.05 -15.4,-14.05 0,0 -17.4,-23.46 -31.8,-28.8 -14.4,-5.35 -34,-20.57 -42.4,-25.56 -8.2,-4.98 -83.8,-76.19 -103.6,-77.01 -19.9,-0.9 -199.5,198.51 -216,229.86 -16.5,31.35 8.2,250.15 23.5,288.02 15.3,37.97 96.3,114.89 96.3,114.89 0,0 -49.2,78.82 -18.7,154.56 30.6,75.84 134.3,156.2 199.7,114.43 65.4,-41.76 15.9,-134.63 2.2,-159.18 -13.8,-24.47 -29.7,-57.9 -29,-62.43 0.6,-4.53 59.2,28.36 100.5,45.21 41.2,16.86 121.6,108.54 163.1,130.83 41.5,22.29 118.4,11.42 144.6,-2.45 26.3,-13.86 177.7,-183.37 177.7,-183.37" /></g><g
         transform="scale(1.10385)"
         id="g176"><path
           id="path178"
           style="fill:#2f1d16;fill-opacity:1;fill-rule:nonzero;stroke:none"
           d="m 16300,5812.46 -1.8,6.07 c 0,0 -1.1,-2.18 -2.9,-5.89 1.4,-0.09 3,-0.18 4.7,-0.18" /></g><g
         transform="scale(1.11235)"
         id="g180"><path
           id="path182"
           style="fill:#2f1d16;fill-opacity:1;fill-rule:nonzero;stroke:none"
           d="m 15415.9,5795.84 c -6.4,27.42 -8.5,61.13 4.9,94.3 30.4,75.25 133.2,154.99 198.1,113.55 64.9,-41.45 15.8,-133.59 2.2,-157.96 -13.7,-24.27 -29.5,-57.44 -28.8,-61.94 0,-0.18 0.2,-0.27 0.5,-0.36 3,-2.15 20.9,-14.29 31.2,-6.92 11.4,8.18 101.4,64.1 101.4,64.1 0,0 45.4,-4.14 76.7,35.96 31.2,40.1 34.5,49.8 69.1,47.74 34.5,-1.98 74.1,49.35 100,40.63 0.1,0 0.1,0 0.2,0 17.5,-6.11 72,-54.66 105.6,-85.58 47.2,-49.9 96.7,-105.28 96.7,-105.28 126.3,43.96 108.5,157.87 98,203.9 0,0 10.8,123.88 -32.7,199.4 -43.6,75.51 -94.4,111.02 -110.7,125.04 -16.3,14.03 -15.2,17.26 -48.8,48.46 -33.6,31.28 -97.5,49.44 -106.1,55.92 -8.7,6.47 -29.3,22.56 -62.8,47.38 -33.7,24.72 -94.2,24.54 -99.6,25.62 -5.4,1.08 -34.7,12.85 -58.4,19.23 -23.8,6.48 -66,-7.72 -90.8,-4.58 -24.9,3.15 -78.9,-5.12 -78.9,-5.12 v 0 c -57.7,-1.35 -136.4,-25.81 -224.3,-115.52 -181.5,-185.2 -218.8,-475.66 -255.9,-535.36 0,0 177.8,-30.11 313.2,-42.61" /></g></g></g></svg>