<?xml version="1.0" encoding="UTF-8" standalone="no"?>
<svg
   xmlns:dc="http://purl.org/dc/elements/1.1/"
   xmlns:cc="http://creativecommons.org/ns#"
   xmlns:rdf="http://www.w3.org/1999/02/22-rdf-syntax-ns#"
   xmlns:svg="http://www.w3.org/2000/svg"
   xmlns="http://www.w3.org/2000/svg"
   viewBox="0 0 2666.6667 2666.6667"
   height="2666.6667"
   width="2666.6667"
   xml:space="preserve"
   id="svg2"
   version="1.1"><metadata
     id="metadata8"><rdf:RDF><cc:Work
         rdf:about=""><dc:format>image/svg+xml</dc:format><dc:type
           rdf:resource="http://purl.org/dc/dcmitype/StillImage" /></cc:Work></rdf:RDF></metadata><defs
     id="defs6"><clipPath
       id="clipPath112"
       clipPathUnits="userSpaceOnUse"><path
         id="path110"
         d="m 4550.55,13552.4 v 0 c 140.97,0 206.33,58.3 206.33,58.3 v 0 c 0,0 -65.36,-58.3 -206.33,-58.3 m -14.97,0.3 c -0.05,0 -0.09,0 -0.14,0 0.05,0 0.1,0 0.14,0 m -0.56,0 c -0.05,0 -0.08,0 -0.13,0 0.04,0 0.09,0 0.13,0 m -1.24,0 c -0.02,0 -0.05,0 -0.06,0 0.01,0 0.04,0 0.06,0 m -0.6,0.1 c -0.02,0 -0.02,0 -0.03,0 0.01,0 0.02,0 0.03,0 m -1.82,0 h -0.01 c 0.01,0 0,0 0.01,0" /></clipPath></defs><g
     transform="matrix(1.3333333,0,0,-1.3333333,0,2666.6667)"
     id="g10"><g
       transform="scale(0.1)"
       id="g12"><g
         transform="scale(1.22699)"
         id="g14"><path
           id="path16"
           style="fill:#ffffff;fill-opacity:1;fill-rule:nonzero;stroke:none"
           d="M 16300,0 H 0 V 16300 H 16300 V 0" /></g><path
         id="path18"
         style="fill:#39393a;fill-opacity:1;fill-rule:nonzero;stroke:none"
         d="m 12907.1,12921 c 0,-590.3 -478.6,-1068.9 -1069,-1068.9 -590.3,0 -1068.9,478.6 -1068.9,1068.9 0,590.4 478.6,1069 1068.9,1069 590.4,0 1069,-478.6 1069,-1069" /><path
         id="path20"
         style="fill:#4c4d4e;fill-opacity:1;fill-rule:nonzero;stroke:none"
         d="m 13191.1,12809 c 0,-590.4 -478.6,-1068.9 -1068.9,-1068.9 -590.4,0 -1068.9,478.5 -1068.9,1068.9 0,590.3 478.5,1068.9 1068.9,1068.9 590.3,0 1068.9,-478.6 1068.9,-1068.9" /><path
         id="path22"
         style="fill:#707274;fill-opacity:1;fill-rule:nonzero;stroke:none"
         d="m 11098,12769.9 c 0,590.4 478.6,1069 1068.9,1069 257.9,0 494.4,-91.4 679.1,-243.4 -190.4,175.3 -444.6,282.4 -723.8,282.4 -590.4,0 -1068.9,-478.6 -1068.9,-1068.9 0,-332.5 151.8,-629.5 389.9,-825.6 -212.2,195.4 -345.2,475.4 -345.2,786.5" /><path
         id="path24"
         style="fill:#747576;fill-opacity:1;fill-rule:nonzero;stroke:none"
         d="m 12349.3,12796.7 c 0,-128.1 -103.9,-231.9 -231.9,-231.9 -128.1,0 -231.9,103.8 -231.9,231.9 0,128 103.8,231.9 231.9,231.9 128,0 231.9,-103.9 231.9,-231.9" /><path
         id="path26"
         style="fill:#e3e2e0;fill-opacity:1;fill-rule:nonzero;stroke:none"
         d="m 12183.4,12904.8 h -0.1 c -18,10.3 -38.8,16.2 -61.1,16.2 -68.2,0 -123.5,-55.2 -123.5,-123.5 0,-68.2 55.3,-123.5 123.5,-123.5 l 443.8,-147.9 66,237.7 -448.6,141" /><path
         id="path28"
         style="fill:#898b8b;fill-opacity:1;fill-rule:nonzero;stroke:none"
         d="m 12717.1,12646.4 c 0,-68.2 -55.3,-123.5 -123.5,-123.5 -68.2,0 -123.6,55.3 -123.6,123.5 0,68.2 55.4,123.5 123.6,123.5 68.2,0 123.5,-55.3 123.5,-123.5" /><g
         transform="scale(1.00513)"
         id="g30"><path
           id="path32"
           style="fill:#898b8b;fill-opacity:1;fill-rule:nonzero;stroke:none"
           d="m 8293.55,12434.4 3761.85,3769.5 -99.7,96.1 -3712.79,-3763.6 50.64,-102" /></g><path
         id="path34"
         style="fill:#747576;fill-opacity:1;fill-rule:nonzero;stroke:none"
         d="m 9673.05,14631.7 485.55,-624.9 83.7,80.5 -441.23,592.7 -128.02,-48.3" /><path
         id="path36"
         style="fill:#747576;fill-opacity:1;fill-rule:nonzero;stroke:none"
         d="m 10144.1,14570.5 454.7,-616.8 -87,-80.8 c 0,0 -563.77,697.6 -554.11,700.8 9.66,3.2 186.41,-3.2 186.41,-3.2" /><path
         id="path38"
         style="fill:#ecaf86;fill-opacity:1;fill-rule:nonzero;stroke:none"
         d="m 6916.83,13459.3 c 9.44,29.1 -215.8,657 -212.58,895.4 3.23,238.3 215.8,286.6 318.87,312.4 103.07,25.8 811.66,215.8 1130.52,318.9 318.86,103 351.08,254.4 351.08,254.4 0,0 199.69,-19.3 265.71,-90.2 66.03,-70.8 101.46,-277 101.46,-277 l -1607.21,-847.1 c 0,0 177.15,-801.9 151.38,-840.6 -25.76,-38.6 198.63,-308.5 -142.25,-167.2 -340.88,141.4 -344.1,57.7 -350.54,186.5 -6.44,128.9 -6.44,254.5 -6.44,254.5" /><path
         id="path40"
         style="fill:#2e619f;fill-opacity:1;fill-rule:nonzero;stroke:none"
         d="m 8562.69,15133.7 -57.98,106.7 c 0,0 -14.49,336.6 -62.8,481.5 -48.32,145 -125.62,248.2 -115.95,300.5 9.66,52.2 125.61,58.8 217.4,0 91.8,-58.9 355.14,-515.6 392.59,-598.4 37.45,-82.8 117.3,-328.5 81.41,-395.4 -35.89,-66.8 -100.07,-84.1 -246.93,-103.8 -146.85,-19.8 -198.37,72.7 -208.31,103.8 -9.94,31.1 0.57,105.1 0.57,105.1" /><path
         id="path42"
         style="fill:#dad9d8;fill-opacity:1;fill-rule:nonzero;stroke:none"
         d="m 8706.34,14786 165.55,87.2 c 0,0 -35.43,206.2 -101.46,277 -66.02,70.9 -265.72,90.2 -265.72,90.2 0,0 -11.99,-55.7 -92.56,-122.6 91.74,-72.6 201.4,-180.6 294.19,-331.8" /><path
         id="path44"
         style="fill:#fbc398;fill-opacity:1;fill-rule:nonzero;stroke:none"
         d="m 8089.22,12683 265.73,33.9 c 0,0 -120.79,468.6 -347.86,710.2 -227.07,241.5 -429.99,598.8 -429.99,598.8 0,0 376.85,-67.4 623.24,121 246.4,188.5 1087.04,671.6 1087.04,671.6 0,0 -57.97,90.6 -125.61,137.1 -67.64,46.5 -222.24,104.4 -222.24,104.4 0,0 -381.67,-202.9 -608.74,-270.5 -227.07,-67.6 -1000.08,-299.6 -1116.03,-343 -115.95,-43.5 -275.38,-143.2 -260.89,-373.6 14.49,-230.3 347.85,-998.5 347.85,-998.5 l 787.5,-391.4" /><path
         id="path46"
         style="fill:#898b8b;fill-opacity:1;fill-rule:nonzero;stroke:none"
         d="m 14456.9,11900.2 v -227.8 l 1594.3,-859.2 v 258.7 l -1594.3,828.3" /><g
         transform="scale(1.05997)"
         id="g48"><path
           id="path50"
           style="fill:#4c4d4e;fill-opacity:1;fill-rule:nonzero;stroke:none"
           d="m 13823.6,16088 437.5,-5075.9 164.2,-147.5 -471.8,5435.4 -129.9,-212" /></g><g
         transform="scale(1.07686)"
         id="g52"><path
           id="path54"
           style="fill:#898b8b;fill-opacity:1;fill-rule:nonzero;stroke:none"
           d="m 13734.5,16044.3 464.5,-5350.1 197.5,-30.6 -446.6,5636.4 -215.4,-255.7" /></g><path
         id="path56"
         style="fill:#4c4d4e;fill-opacity:1;fill-rule:nonzero;stroke:none"
         d="m 14553.5,11721.5 -96.6,178.7 h 195.6 l 1616.1,-792.3 -217.4,-36 -1497.7,649.6" /><path
         id="path58"
         style="fill:#4c4d4e;fill-opacity:1;fill-rule:nonzero;stroke:none"
         d="M 15608.2,11342.2 9034.89,11180 v 275.9 h 6130.91 l 442.4,-113.7" /><path
         id="path60"
         style="fill:#100f0d;fill-opacity:1;fill-rule:nonzero;stroke:none"
         d="m 8267.98,11389.7 c 0,0 143.33,-164.8 16.11,-315.1 -127.23,-150.3 -243.18,-140.6 -378.46,-145.5 -135.27,-4.8 -111.11,-115.9 -236.73,0 -125.61,116 -338.19,319.6 -309.2,517.3 28.99,197.8 198.87,332.7 360.47,310.6 161.59,-22 141.98,30.7 253.1,-84.6 111.12,-115.2 294.71,-282.7 294.71,-282.7" /><path
         id="path62"
         style="fill:#898b8b;fill-opacity:1;fill-rule:nonzero;stroke:none"
         d="m 8550.61,12752.9 529.03,-474.2 -106.29,-127.3 -525,498.1 102.26,103.4" /><g
         transform="scale(1.11798)"
         id="g64"><path
           id="path66"
           style="fill:#e3e2e0;fill-opacity:1;fill-rule:nonzero;stroke:none"
           d="m 8138.74,10022.1 5693.46,5918.2 -337,359.7 -265.8,-223.6 -5322.68,-5398.5 -61.85,-307.2 293.87,-348.6" /></g><g
         transform="scale(1.10265)"
         id="g68"><path
           id="path70"
           style="fill:#747576;fill-opacity:1;fill-rule:nonzero;stroke:none"
           d="m 8016.68,10826.4 5396.72,5473.6 -834.7,-39.4 -5108.15,-5257.9 546.13,-176.3" /></g><path
         id="path72"
         style="fill:#898b8b;fill-opacity:1;fill-rule:nonzero;stroke:none"
         d="M 15608.2,11066.2 H 9034.89 v 276 h 6573.31 v -276" /><path
         id="path74"
         style="fill:#4c4d4e;fill-opacity:1;fill-rule:nonzero;stroke:none"
         d="m 8466.06,12278.7 425.16,-388.1 -43.49,-45 c 0,0 53.15,-296.7 -28.98,-456.8 -82.13,-160.1 -334.92,-334.1 -433.18,-322 -98.27,12.1 -107.94,-2.7 -165.9,31.4 -57.96,34.2 -512.12,439.7 -512.12,439.7 0,0 -19.32,454.1 178.76,521.8 198.08,67.6 579.75,219 579.75,219" /><path
         id="path76"
         style="fill:#898b8b;fill-opacity:1;fill-rule:nonzero;stroke:none"
         d="m 11232.8,15480.2 219,-212.6 62,80.6 -213.4,231.9 -67.6,-99.9" /><path
         id="path78"
         style="fill:#898b8b;fill-opacity:1;fill-rule:nonzero;stroke:none"
         d="m 12070.2,15267.6 383.3,-392.9 73.8,122.4 -386.2,399.4 -70.9,-128.9" /><path
         id="path80"
         style="fill:#898b8b;fill-opacity:1;fill-rule:nonzero;stroke:none"
         d="m 9401.96,11742.9 73.9,-70.5 3515.54,3621.4 -80.5,102.7 -3508.94,-3653.6" /><path
         id="path82"
         style="fill:#4c4d4e;fill-opacity:1;fill-rule:nonzero;stroke:none"
         d="M 7712.38,10929.1 H 6064.91 v 275.4 h 1647.47 v -275.4" /><path
         id="path84"
         style="fill:#100f0d;fill-opacity:1;fill-rule:nonzero;stroke:none"
         d="m 5098.65,12572.1 c -19.32,33.5 -178.76,154.3 -178.76,154.3 l -130.44,-154.3 811.66,-726.5 314.03,310.7 -816.49,415.8" /><path
         id="path86"
         style="fill:#747576;fill-opacity:1;fill-rule:nonzero;stroke:none"
         d="m 4987.53,12970.4 c 0,-21.8 33.82,-451.8 33.82,-451.8 l 2715.19,-1521.8 125.61,159.4 -210.16,186 -2664.46,1628.2" /><path
         id="path88"
         style="fill:#100f0d;fill-opacity:1;fill-rule:nonzero;stroke:none"
         d="m 4035.77,13636.2 -140.11,279.8 225.76,109.8 c 0,0 658.88,-205.1 841.95,-284.9 183.08,-79.7 396.17,-67.6 560.43,-372 164.27,-304.3 367.18,-405.8 236.74,-459 -130.45,-53.1 -84.75,-294.7 -482.02,17 -397.27,311.6 -1242.75,709.3 -1242.75,709.3" /><path
         id="path90"
         style="fill:#4c4d4e;fill-opacity:1;fill-rule:nonzero;stroke:none"
         d="m 3895.66,13916 -164.26,-313.6 3920.59,-2260.2 253.64,433.6 c 0,0 -210.96,544.4 -489.57,711.2 -278.6,166.9 -2024.28,532.2 -2024.28,532.2 L 3895.66,13916" /><path
         id="path92"
         style="fill:#372a23;fill-opacity:1;fill-rule:nonzero;stroke:none"
         d="m 3998.02,13825.7 c 0,0 -197.08,-403.8 -161.65,-733.5 35.43,-329.8 70.75,-187.1 161.65,-501.1 90.89,-314 62.04,-608.7 62.04,-608.7 0,0 260.76,225.4 212.44,644.1 -28.89,250.4 84.69,803.6 -59.11,1053.3 -143.81,249.6 -215.37,145.9 -215.37,145.9" /><path
         id="path94"
         style="fill:#fbc398;fill-opacity:1;fill-rule:nonzero;stroke:none"
         d="m 6859.66,13552.5 c 0,0 256.86,-249.6 321.28,-297.9 64.42,-48.3 235.12,-186.8 235.12,-186.8 0,0 -61.19,-241.6 -132.05,-380.1 -70.86,-138.5 -190.04,-376.8 -190.04,-376.8 0,0 -468.77,247.3 -647.39,333.3 -178.61,86.1 -186.8,377.5 -106.29,484.2 80.53,106.9 519.37,424.1 519.37,424.1" /><path
         id="path96"
         style="fill:#3970c0;fill-opacity:1;fill-rule:nonzero;stroke:none"
         d="m 5146.96,13420.5 c -3.21,-6.5 9.67,-74.1 9.67,-74.1 l 62.8,-111.1 1227.15,-591.1 c 0,0 263.31,285.1 343.02,517 79.72,231.9 70.06,391.3 70.06,391.3 l -176.34,125.6 c 0,0 -103.88,195.3 -241.57,228.1 -137.69,32.8 -388.92,27.6 -521.78,0 -132.86,-27.6 -428.37,-86.3 -428.37,-86.3 0,0 -350.5,-146.6 -345.15,-158.7 5.35,-12.1 0.51,-240.7 0.51,-240.7" /><path
         id="path98"
         style="fill:#fbc398;fill-opacity:1;fill-rule:nonzero;stroke:none"
         d="m 4720.04,13634.3 c 0,0 51.69,-20.6 140.27,-73.7 88.57,-53.2 296.31,-214.2 296.31,-214.2 0,0 54.76,112.7 140.11,162.6 85.36,50 750.47,312.5 745.64,346.3 -2.59,18.1 -105.01,1.6 -229.27,-15 -107.69,-14.3 -231.78,-28.7 -321.5,-20.4 -193.25,17.7 -249.92,75 -249.92,75 0,0 -292.8,150.4 -345.94,154.4 -53.15,4.1 -138.5,50.7 -202.92,0 -64.41,-50.7 -133.66,-28.1 -107.89,-103.8 25.76,-75.7 135.11,-311.2 135.11,-311.2" /><path
         id="path100"
         style="fill:#3970c0;fill-opacity:1;fill-rule:nonzero;stroke:none"
         d="m 3997.28,13916 0.74,-90.3 c 0,0 76.6,-133.3 215.37,-145.9 138.76,-12.7 -216.11,236.2 -216.11,236.2" /><path
         id="path102"
         style="fill:#df9866;fill-opacity:1;fill-rule:nonzero;stroke:none"
         d="m 4805.62,13910.7 c 0,0 153.65,-93.8 238.55,-101.6 84.89,-7.9 234.35,62.2 234.35,62.2 l -134.11,371.8 -318.16,-183.5 -20.63,-148.9" /><path
         id="path104"
         style="fill:#523d38;fill-opacity:1;fill-rule:nonzero;stroke:none"
         d="m 4531.98,14581.1 c 1.67,11.6 -23.28,86.6 -23.28,86.6 0,0 -105.39,153.2 -311.25,-79.1 -205.86,-232.4 -262.61,-462.2 -221.38,-647.8 41.23,-185.7 409.11,-384 560.05,-388.2 150.93,-4.1 220.76,58.1 220.76,58.1 l -61.45,295.2 c 0,0 170.28,258 156.08,280.7 -14.21,22.6 -132.32,172.9 -153.41,191.8 -21.1,18.8 -166.12,202.7 -166.12,202.7" /><g
         id="g106"><g
           clip-path="url(#clipPath112)"
           id="g108"><path
             id="path114"
             style="fill:#201a16;fill-opacity:1;fill-rule:nonzero;stroke:none"
             d="m 4531.35,13552.4 h 225.527 v 58.289 H 4531.35 Z" /></g></g><path
         id="path116"
         style="fill:#8b6b55;fill-opacity:1;fill-rule:nonzero;stroke:none"
         d="m 4695.43,13905.9 v 0 0 0 m 0.01,0 c 0,0 0,0 0,0 0,0 0,0 0,0 m 0,0 c 0.01,0 0.01,0 0.02,0 -0.01,0 -0.01,0 -0.02,0 m 0.05,0.1 c 0.01,0 0.01,0 0.02,0 0,0 -0.01,0 -0.02,0 m 0.11,0.1 h 0.01 -0.01 m 0.04,0.1 c 0.01,0 0.01,0 0.01,0 0,0 0,0 -0.01,0 m 0.07,0.1 c 0.01,0 0.02,0 0.03,0 -0.01,0 -0.02,0 -0.03,0" /><path
         id="path118"
         style="fill:#42322c;fill-opacity:1;fill-rule:nonzero;stroke:none"
         d="m 4550.55,13552.4 c -4.72,0 -9.54,0.1 -14.43,0.2 v 0 0 c -0.18,0.1 -0.36,0.1 -0.54,0.1 -0.04,0 -0.09,0 -0.14,0 -0.14,0 -0.28,0 -0.42,0 -0.04,0 -0.09,0 -0.13,0 -0.37,0 -0.74,0 -1.11,0 -0.02,0 -0.05,0 -0.06,0 -0.18,0 -0.36,0 -0.54,0.1 -0.01,0 -0.02,0 -0.03,0 -0.59,0 -1.19,0 -1.79,0 -0.01,0 0,0 -0.01,0 -101.38,5.4 -292.66,92.5 -422.96,203.9 44.81,3.2 297.2,29.7 509.36,220.1 115.77,103.9 179.32,133.1 215.89,157.4 -40.24,-79.2 -131.94,-218.8 -137.9,-227.9 -0.01,0 -0.02,0 -0.03,0 -0.02,0 -0.04,-0.1 -0.06,-0.1 0,0 0,0 -0.01,0 -0.01,0 -0.02,0 -0.03,-0.1 h -0.01 c -0.03,0 -0.06,-0.1 -0.09,-0.1 -0.01,0 -0.01,0 -0.02,0 -0.01,-0.1 -0.02,-0.1 -0.03,-0.1 -0.01,0 -0.01,0 -0.02,0 v 0 c 0,0 0,0 0,0 h -0.01 v 0 0 0 l 61.45,-295.2 c 0,0 -65.36,-58.3 -206.33,-58.3" /><path
         id="path120"
         style="fill:#372a23;fill-opacity:1;fill-rule:nonzero;stroke:none"
         d="m 4431.32,14509.8 c 0,0 -98.84,-69.3 -154.19,-172 0,0 101.34,77.2 155.31,71.9 53.98,-5.4 34.28,-84.7 34.28,-84.7 0,0 -140.68,-142.8 -205.55,-296.6 0,0 199.4,172.7 316.9,177.8 117.51,5.1 3.51,192.1 -5.76,192.6 -9.26,0.5 -140.99,111 -140.99,111" /><path
         id="path122"
         style="fill:#fbc398;fill-opacity:1;fill-rule:nonzero;stroke:none"
         d="m 4651.86,14055.7 c 0,0 -120.26,57.7 -139.4,-31.6 -19.15,-89.3 200.73,-160.4 246.94,-136.9 46.22,23.5 46.22,23.5 46.22,23.5 0,0 256.9,-10.8 331.32,10.3 74.43,21.1 197.52,222.5 204.7,256 7.17,33.5 -226.82,195.7 -226.82,195.7 0,0 13.71,102.6 6.54,110.8 -7.15,8.2 -181.09,6.9 -198.58,9.4 -17.49,2.5 -160.21,111.1 -211.68,133.9 -51.48,22.9 -187.75,43.6 -202.4,40.9 -14.67,-2.6 -71.03,-130.2 -77.38,-157.9 -6.34,-27.6 -24.04,-117.9 -9.4,-156.9 14.64,-39 148.21,-128.4 194.67,-186.2 46.45,-57.8 54.11,-79.2 35.27,-111" /><path
         id="path124"
         style="fill:#372a23;fill-opacity:1;fill-rule:nonzero;stroke:none"
         d="m 4422.51,14463.5 c 0,0 84.65,-68.7 65.62,-180.4 -19.03,-111.7 49.14,-41.4 49.14,-41.4 0,0 11.5,91.1 -12.47,150.9 -23.97,59.9 -93.48,117.2 -93.48,117.2 l -8.81,-46.3" /><path
         id="path126"
         style="fill:#898b8b;fill-opacity:1;fill-rule:nonzero;stroke:none"
         d="m 7649.58,10784.2 19.32,-120.8 1430.06,29 v 1141.8 l -251.23,11.4 -816.48,-848.8 -318.87,-6.5 v -61.2 h -43.48 l -19.32,-144.9" /><path
         id="path128"
         style="fill:#898b8b;fill-opacity:1;fill-rule:nonzero;stroke:none"
         d="m 8973.35,12151.4 550.77,-525 108.65,133 -553.13,519.3 -106.29,-127.3" /><path
         id="path130"
         style="fill:#ccccc9;fill-opacity:1;fill-rule:nonzero;stroke:none"
         d="m 8036.08,11388.8 131.5,-111.8 4762.62,4884.4 -106.3,125.6 -4787.82,-4898.2" /><path
         id="path132"
         style="fill:#252323;fill-opacity:1;fill-rule:nonzero;stroke:none"
         d="m 9874.51,13269.6 -200.62,224.9 1966.31,1966.4 340,-37.1 -2105.69,-2154.2" /><path
         id="path134"
         style="fill:#100f0d;fill-opacity:1;fill-rule:nonzero;stroke:none"
         d="m 10047.8,13828.1 254.4,-121 1486.5,1520.9 -274.9,39.6 -1466,-1439.5" /><g
         transform="scale(1.11798)"
         id="g136"><path
           id="path138"
           style="fill:#4c4d4e;fill-opacity:1;fill-rule:nonzero;stroke:none"
           d="m 13495.2,16300 h -823.3 l -265.7,-262.5 823.2,38.9 265.8,223.6" /></g><path
         id="path140"
         style="fill:#b0b0ae;fill-opacity:1;fill-rule:nonzero;stroke:none"
         d="m 16268.6,11107.9 h -217.4 v -294.7 h 217.4 v 294.7" /><path
         id="path142"
         style="fill:#100f0d;fill-opacity:1;fill-rule:nonzero;stroke:none"
         d="m 7564.38,10996.8 -112.89,-212.6 v -120.8 h 217.41 v 333.4 h -104.52" /><path
         id="path144"
         style="fill:#252323;fill-opacity:1;fill-rule:nonzero;stroke:none"
         d="m 7093.97,12311 c 0,0 183.59,-277.7 555.61,-373.1 372.01,-95.5 599.08,-52 693.29,213.7 94.21,265.7 -6.13,628.6 -6.13,628.6 0,0 -511.63,84.8 -920.68,287.7 l -137.52,60.7 c 0,0 3.86,-146 -39.62,-324.8 -43.49,-178.7 -144.95,-492.8 -144.95,-492.8" /><path
         id="path146"
         style="fill:#fbc398;fill-opacity:1;fill-rule:nonzero;stroke:none"
         d="m 5589.03,13533.2 c 0,0 253.64,161.8 471.05,79.7 217.41,-82.1 123.2,-642.5 123.2,-642.5 0,0 125.61,-183.6 239.15,-367.2 113.53,-183.6 171.51,-263.3 219.82,-289.9 48.31,-26.6 166.68,-41.1 485.55,-183.6 318.86,-142.5 734.35,-198.1 734.35,-198.1 l -60.39,-280.2 c 0,0 -582.17,43.5 -859.97,123.2 -277.8,79.7 -408.25,82.1 -478.3,144.9 -70.05,62.9 -386.5,299.6 -562.84,490.4 -176.34,190.9 -311.62,364.8 -311.62,364.8 0,0 -214.99,212.6 -243.98,352.7 l -125.62,107.9 c 0,0 67.64,210.9 369.6,297.9" /><path
         id="path148"
         style="fill:#df9866;fill-opacity:1;fill-rule:nonzero;stroke:none"
         d="m 6021.43,13286.6 9.66,-91.6 152.19,-224.6 17.01,158 c 0,0 -123.3,64.2 -130.55,71.4 -7.24,7.3 -48.31,86.8 -48.31,86.8" /><path
         id="path150"
         style="fill:#df9866;fill-opacity:1;fill-rule:nonzero;stroke:none"
         d="m 5441.67,13346.4 c 0,0 -38.65,-267.3 137.7,-419.5 0,0 -304.37,162.6 -137.7,419.5" /><path
         id="path152"
         style="fill:#fbc398;fill-opacity:1;fill-rule:nonzero;stroke:none"
         d="m 7801.76,11651.4 c 0,0 28.18,-26.6 119.98,-79.7 91.8,-53.2 265.72,-162.7 346.24,-182 80.52,-19.3 112.73,14.5 112.73,14.5 0,0 57.98,0 67.64,30.6 0,0 64.42,9.7 67.64,62.8 0,0 51.53,49.9 45.09,83.8 -6.44,33.8 -119.17,144.9 -119.17,144.9 0,0 75.69,-19.3 85.35,20.9 9.66,40.3 -33.82,38.7 -104.68,82.2 -70.86,43.4 -109.51,74 -170.7,96.6 -61.2,22.5 -389.73,5.6 -389.73,5.6 0,0 -86.96,-81.3 -88.57,-95.8 -1.61,-14.5 28.18,-184.4 28.18,-184.4" /><path
         id="path154"
         style="fill:#df9866;fill-opacity:1;fill-rule:nonzero;stroke:none"
         d="m 8301.8,11690.9 c 6.44,0 235.12,-169.5 235.12,-169.5 l -20.93,-23.8 -214.19,193.3" /><path
         id="path156"
         style="fill:#df9866;fill-opacity:1;fill-rule:nonzero;stroke:none"
         d="m 8237.38,11626.4 c 11.28,-6.4 210.97,-191.6 210.97,-191.6 l -22.2,-21.7 -188.77,213.3" /><path
         id="path158"
         style="fill:#df9866;fill-opacity:1;fill-rule:nonzero;stroke:none"
         d="m 8219.67,11504.1 161.04,-99.9 -29.2,-15.4 z" /><path
         id="path160"
         style="fill:#df9866;fill-opacity:1;fill-rule:nonzero;stroke:none"
         d="m 8441.91,11726.3 -157.82,107.9 202.96,-112.3 c 0,0 -20.14,-12.7 -45.14,4.4" /><path
         id="path162"
         style="fill:#100f0d;fill-opacity:1;fill-rule:nonzero;stroke:none"
         d="m 10181,14522.4 -912.94,1189.9 -589.42,67.6 38.65,-120.8 1375.41,-1226.1 88.3,89.4" /><path
         id="path164"
         style="fill:#100f0d;fill-opacity:1;fill-rule:nonzero;stroke:none"
         d="m 8717.29,15659.1 c 19.33,0 487.96,-48.3 487.96,-48.3 l 980.75,-1212.6 -647.39,241.5 -821.32,1019.4" /><path
         id="path166"
         style="fill:#3970c0;fill-opacity:1;fill-rule:nonzero;stroke:none"
         d="m 8901.3,15040.1 c 0,0 38.23,342 38.23,480.5 0,138.5 -122.39,431.6 -112.73,457.4 9.66,25.8 80.52,93.4 228.68,-16.1 148.16,-109.5 309.68,-399.4 346.48,-473.5 36.8,-74.1 303.41,-502.4 305.38,-608.7 1.98,-106.3 -384.53,-170.7 -516.58,-87 -132.06,83.7 -289.46,247.4 -289.46,247.4" /><path
         id="path168"
         style="fill:#f0f0ef;fill-opacity:1;fill-rule:nonzero;stroke:none"
         d="m 8983.72,14641.1 c 173.18,102.4 303.66,177.4 303.66,177.4 0,0 -57.97,90.6 -125.61,137.1 -67.64,46.5 -222.24,104.4 -222.24,104.4 0,0 -59.29,-31.5 -145.01,-73.8 63.26,-90.8 138.46,-214.4 189.2,-345.1" /><path
         id="path170"
         style="fill:#100f0d;fill-opacity:1;fill-rule:nonzero;stroke:none"
         d="m 10186,14398.2 107.4,-30.3 -149.3,202.6 -53.8,-38.6 12.1,-47.6 83.6,-86.1" /><path
         id="path172"
         style="fill:#2e619f;fill-opacity:1;fill-rule:nonzero;stroke:none"
         d="m 8756.59,15390.6 165.21,-5.2 11.84,2.9 2.31,35.7 c -37.45,82.8 -300.79,539.5 -392.59,598.4 -91.79,58.8 -207.74,52.2 -217.4,0 -9.67,-52.3 67.63,-155.5 115.95,-300.5 44.69,-134.1 60.43,-431.9 62.54,-475.8 h 252.14 v 144.5" /><path
         id="path174"
         style="fill:#39393a;fill-opacity:1;fill-rule:nonzero;stroke:none"
         d="m 13715,4834.1 c 0,-590.4 -478.5,-1069 -1068.9,-1069 -590.3,0 -1068.9,478.6 -1068.9,1069 0,590.3 478.6,1068.9 1068.9,1068.9 590.4,0 1068.9,-478.6 1068.9,-1068.9" /><path
         id="path176"
         style="fill:#4c4d4e;fill-opacity:1;fill-rule:nonzero;stroke:none"
         d="m 13999.1,4722 c 0,-590.4 -478.6,-1068.9 -1068.9,-1068.9 -590.4,0 -1068.9,478.5 -1068.9,1068.9 0,590.3 478.5,1068.9 1068.9,1068.9 590.3,0 1068.9,-478.6 1068.9,-1068.9" /><path
         id="path178"
         style="fill:#747576;fill-opacity:1;fill-rule:nonzero;stroke:none"
         d="m 13157.2,4709.7 c 0,-128.1 -103.8,-231.9 -231.8,-231.9 -128.1,0 -232,103.8 -232,231.9 0,128 103.9,231.9 232,231.9 128,0 231.8,-103.9 231.8,-231.9" /><path
         id="path180"
         style="fill:#e3e2e0;fill-opacity:1;fill-rule:nonzero;stroke:none"
         d="m 12991.4,4817.8 h -0.1 c -18,10.3 -38.8,16.3 -61.1,16.3 -68.2,0 -123.5,-55.3 -123.5,-123.6 0,-68.2 55.3,-123.5 123.5,-123.5 l 443.7,-147.9 66.1,237.7 -448.6,141" /><path
         id="path182"
         style="fill:#898b8b;fill-opacity:1;fill-rule:nonzero;stroke:none"
         d="m 13525.1,4559.4 c 0,-68.2 -55.3,-123.5 -123.6,-123.5 -68.2,0 -123.5,55.3 -123.5,123.5 0,68.3 55.3,123.5 123.5,123.5 68.3,0 123.6,-55.2 123.6,-123.5" /><path
         id="path184"
         style="fill:#898b8b;fill-opacity:1;fill-rule:nonzero;stroke:none"
         d="m 14456.9,3013.7 v -227.8 l 1594.3,-859.2 v 258.7 l -1594.3,828.3" /><path
         id="path186"
         style="fill:#4c4d4e;fill-opacity:1;fill-rule:nonzero;stroke:none"
         d="m 14652.5,8166.3 463.8,-5380.4 174,-156.3 -500.1,5761.3 -137.7,-224.6" /><path
         id="path188"
         style="fill:#898b8b;fill-opacity:1;fill-rule:nonzero;stroke:none"
         d="m 14790.2,8390.9 500.1,-5761.3 212.7,-32.9 -480.9,6069.6 -231.9,-275.4" /><path
         id="path190"
         style="fill:#4c4d4e;fill-opacity:1;fill-rule:nonzero;stroke:none"
         d="m 14553.5,2834.9 -96.6,178.8 h 195.6 l 1616.1,-792.3 -217.4,-36 -1497.7,649.5" /><path
         id="path192"
         style="fill:#4c4d4e;fill-opacity:1;fill-rule:nonzero;stroke:none"
         d="M 15608.2,2455.7 9034.89,2293.4 v 276 h 6130.91 l 442.4,-113.7" /><path
         id="path194"
         style="fill:#100f0d;fill-opacity:1;fill-rule:nonzero;stroke:none"
         d="m 8267.98,2503.2 c 0,0 143.33,-164.8 16.11,-315.1 -127.23,-150.3 -243.18,-140.7 -378.46,-145.5 -135.27,-4.8 -111.11,-115.9 -236.73,0 -125.61,116 -338.19,319.5 -309.2,517.3 28.99,197.7 198.87,332.7 360.47,310.6 161.59,-22.1 141.98,30.7 253.1,-84.6 111.12,-115.2 294.71,-282.7 294.71,-282.7" /><path
         id="path196"
         style="fill:#898b8b;fill-opacity:1;fill-rule:nonzero;stroke:none"
         d="m 8550.61,3866.4 529.03,-474.3 -106.29,-127.2 -525,498 102.26,103.5" /><path
         id="path198"
         style="fill:#e3e2e0;fill-opacity:1;fill-rule:nonzero;stroke:none"
         d="m 9098.96,2318 6365.24,6616.5 -376.8,402.1 -297.2,-250 -5950.63,-6035.4 -69.14,-343.5 328.53,-389.7" /><path
         id="path200"
         style="fill:#747576;fill-opacity:1;fill-rule:nonzero;stroke:none"
         d="m 8839.57,3051.2 5950.63,6035.4 -920.3,-43.4 -5632.52,-5797.6 602.19,-194.4" /><path
         id="path202"
         style="fill:#898b8b;fill-opacity:1;fill-rule:nonzero;stroke:none"
         d="M 15608.2,2179.7 H 9034.89 v 276 h 6573.31 v -276" /><path
         id="path204"
         style="fill:#4c4d4e;fill-opacity:1;fill-rule:nonzero;stroke:none"
         d="m 8466.06,3392.1 425.16,-388.1 -43.49,-44.9 c 0,0 53.15,-296.8 -28.98,-456.9 -82.13,-160.1 -334.92,-334 -433.18,-321.9 -98.27,12.1 -107.94,-2.8 -165.9,31.4 -57.96,34.2 -512.12,439.6 -512.12,439.6 0,0 -19.32,454.2 178.76,521.8 198.08,67.7 579.75,219 579.75,219" /><path
         id="path206"
         style="fill:#898b8b;fill-opacity:1;fill-rule:nonzero;stroke:none"
         d="m 11232.8,6593.7 219,-212.6 62,80.5 -213.4,231.9 -67.6,-99.8" /><path
         id="path208"
         style="fill:#898b8b;fill-opacity:1;fill-rule:nonzero;stroke:none"
         d="m 12070.2,6381.1 383.3,-392.9 73.8,122.4 -386.2,399.3 -70.9,-128.8" /><path
         id="path210"
         style="fill:#898b8b;fill-opacity:1;fill-rule:nonzero;stroke:none"
         d="m 8487.05,3762.9 3630.25,3637.6 -100.2,96.6 -3455.46,-3502.6 -74.59,-231.6" /><path
         id="path212"
         style="fill:#898b8b;fill-opacity:1;fill-rule:nonzero;stroke:none"
         d="m 9401.96,2856.4 73.9,-70.5 3515.54,3621.4 -80.5,102.6 -3508.94,-3653.5" /><path
         id="path214"
         style="fill:#4c4d4e;fill-opacity:1;fill-rule:nonzero;stroke:none"
         d="M 7712.38,2042.6 H 6064.91 V 2318 h 1647.47 v -275.4" /><path
         id="path216"
         style="fill:#747576;fill-opacity:1;fill-rule:nonzero;stroke:none"
         d="m 10483.1,6545.4 485.6,-624.9 83.7,80.5 -441.2,592.7 -128.1,-48.3" /><path
         id="path218"
         style="fill:#747576;fill-opacity:1;fill-rule:nonzero;stroke:none"
         d="m 11126.1,6407.3 238.7,-338.4 -86.9,-80.7 c 0,0 -412.3,534.6 -402.6,537.9 9.6,3.2 250.8,-118.8 250.8,-118.8" /><path
         id="path220"
         style="fill:#100f0d;fill-opacity:1;fill-rule:nonzero;stroke:none"
         d="m 10193.1,6801.4 176.5,-260.9 756.5,-133.2 -871.8,1263.8 -656.95,39.9 c 0,0 -37.88,-155.9 0,-233.2 37.89,-77.3 595.75,-676.4 595.75,-676.4" /><path
         id="path222"
         style="fill:#2e619f;fill-opacity:1;fill-rule:nonzero;stroke:none"
         d="m 9516.39,6885.6 c -9.67,14.5 -120.78,140.1 -120.78,140.1 0,0 0,352.7 -72.48,526.6 -72.47,173.9 -159.43,343 -24.15,362.4 135.27,19.3 381.67,-318.9 415.49,-362.4 33.82,-43.5 251.23,-386.5 260.89,-405.8 9.66,-19.3 72.44,-280.2 72.44,-280.2 0,0 -217.38,-183.6 -381.64,-154.6 -164.27,29 -149.77,173.9 -149.77,173.9" /><path
         id="path224"
         style="fill:#3970c0;fill-opacity:1;fill-rule:nonzero;stroke:none"
         d="m 9905.15,6959.4 c 0,0 -54.11,65.9 -41.23,111 12.88,45.1 25.02,328.5 -1.99,415.5 -27,86.9 -156.56,351 -154.59,409 1.98,58 114.71,67.7 249.98,0 135.28,-67.6 363.98,-376.8 473.48,-537.9 109.5,-161 251.2,-318.8 248,-431.6 -3.2,-112.7 -431.6,-273.7 -431.6,-273.7 l -342.05,307.7" /><path
         id="path226"
         style="fill:#ecb088;fill-opacity:1;fill-rule:nonzero;stroke:none"
         d="m 7596.43,4241.9 c 0,0 399.39,1069.9 473.47,1240.6 74.08,170.7 186.81,215.8 370.4,354.3 183.59,138.5 515.98,449.9 667.37,649.6 151.37,199.7 233.42,347 233.42,347 0,0 140.39,135.6 220.91,90.5 80.52,-45.1 81.1,-330.2 81.1,-330.2 0,0 -227.93,-361.8 -302.01,-464.9 -74.08,-103.1 -89.14,-118.1 -89.14,-118.1 0,0 -1223.92,-2174.1 -1249.69,-2193.4 -25.77,-19.3 -61.2,-83.7 -294.71,-38.6 -233.51,45 -111.12,463.2 -111.12,463.2" /><path
         id="path228"
         style="fill:#100f0d;fill-opacity:1;fill-rule:nonzero;stroke:none"
         d="m 5098.65,3685.6 c -19.32,33.5 -178.76,154.3 -178.76,154.3 l -130.44,-154.3 811.66,-726.5 314.03,310.7 -816.49,415.8" /><path
         id="path230"
         style="fill:#fbc398;fill-opacity:1;fill-rule:nonzero;stroke:none"
         d="m 7879.87,3962.2 c -6.44,16.1 -64.42,151.4 -64.42,151.4 0,0 573.31,1257.8 621.63,1325.4 48.31,67.7 275.38,154.6 362.34,222.2 86.97,67.7 378.46,327 607.14,549.2 228.68,222.2 399.38,483.1 438.03,563.7 38.65,80.5 67.64,215.8 67.64,215.8 0,0 138.47,22.5 257.67,-74.1 119.2,-96.6 77.3,-264.1 77.3,-264.1 0,0 -206.1,-228.7 -341.41,-425.2 -135.28,-196.5 -180.37,-470.2 -376.84,-679.6 -196.47,-209.4 -470.25,-380.1 -553.99,-476.7 -83.74,-96.6 -167.48,-534.6 -241.57,-792.3 -74.07,-257.7 -196.47,-576.5 -196.47,-576.5 0,0 -241.56,-35.5 -341.41,0 -99.85,35.4 -315.64,260.8 -315.64,260.8" /><path
         id="path232"
         style="fill:#747576;fill-opacity:1;fill-rule:nonzero;stroke:none"
         d="m 4987.53,4083.8 c 0,-21.7 33.82,-451.7 33.82,-451.7 l 2715.19,-1521.9 125.61,159.5 -210.16,186 -2664.46,1628.1" /><path
         id="path234"
         style="fill:#100f0d;fill-opacity:1;fill-rule:nonzero;stroke:none"
         d="m 4035.77,4749.7 -140.11,279.8 225.76,109.7 c 0,0 658.88,-205.1 841.95,-284.8 183.08,-79.7 396.17,-67.6 560.43,-372 164.27,-304.4 367.18,-405.8 236.74,-459 -130.45,-53.1 -84.75,-294.7 -482.02,17 -397.27,311.6 -1242.75,709.3 -1242.75,709.3" /><path
         id="path236"
         style="fill:#4c4d4e;fill-opacity:1;fill-rule:nonzero;stroke:none"
         d="m 3895.66,5029.5 -164.26,-313.6 3920.59,-2260.2 253.64,433.6 c 0,0 -210.96,544.3 -489.57,711.2 -278.6,166.9 -2024.28,532.2 -2024.28,532.2 l -1496.12,896.8" /><path
         id="path238"
         style="fill:#372a23;fill-opacity:1;fill-rule:nonzero;stroke:none"
         d="m 3998.02,4939.2 c 0,0 -197.08,-403.8 -161.65,-733.6 35.43,-329.7 70.75,-187 161.65,-501 90.89,-314.1 62.04,-608.8 62.04,-608.8 0,0 260.76,225.5 212.44,644.2 -28.89,250.4 84.69,803.6 -59.11,1053.2 -143.81,249.6 -215.37,146 -215.37,146" /><path
         id="path240"
         style="fill:#252323;fill-opacity:1;fill-rule:nonzero;stroke:none"
         d="m 7113.3,3556.4 -19.33,-132 c 0,0 135.28,-190.1 283.44,-296.4 148.16,-106.3 521.78,-190 731.14,-164.2 209.36,25.7 318.86,286.6 357.51,428.3 38.66,141.8 70.86,309.3 70.86,309.3 0,0 -447.7,202.9 -721.47,412.2 l -219.02,128.3 -74.08,-80 -106.29,19.4 c 0,0 -180.37,0 -264.11,-161.1 -83.74,-161 -115.95,-322.1 -109.51,-380 6.45,-58 70.86,-83.8 70.86,-83.8" /><path
         id="path242"
         style="fill:#fbc398;fill-opacity:1;fill-rule:nonzero;stroke:none"
         d="m 6859.66,4666 c 0,0 256.86,-249.6 321.28,-297.9 64.42,-48.3 235.12,-186.8 235.12,-186.8 0,0 -61.19,-241.6 -132.05,-380.1 -70.86,-138.5 -190.04,-376.8 -190.04,-376.8 0,0 -468.77,247.3 -647.39,333.3 -178.61,86 -186.8,377.4 -106.29,484.2 80.53,106.8 519.37,424.1 519.37,424.1" /><path
         id="path244"
         style="fill:#3970c0;fill-opacity:1;fill-rule:nonzero;stroke:none"
         d="m 5146.96,4533.9 c -3.21,-6.4 9.67,-74 9.67,-74 l 62.8,-111.2 1227.15,-591 c 0,0 263.31,285.1 343.02,517 79.72,231.9 70.06,391.3 70.06,391.3 l -176.34,125.6 c 0,0 -103.88,195.3 -241.57,228.1 -137.69,32.8 -388.92,27.5 -521.78,0 -132.86,-27.6 -428.37,-86.4 -428.37,-86.4 0,0 -350.5,-146.5 -345.15,-158.6 5.35,-12.1 0.51,-240.8 0.51,-240.8" /><path
         id="path246"
         style="fill:#fbc398;fill-opacity:1;fill-rule:nonzero;stroke:none"
         d="m 4720.04,4747.8 c 0,0 51.69,-20.6 140.27,-73.7 88.57,-53.2 296.31,-214.2 296.31,-214.2 0,0 54.76,112.7 140.11,162.6 85.36,49.9 750.47,312.4 745.64,346.3 -2.59,18.1 -105.02,1.5 -229.28,-15 -107.68,-14.4 -231.77,-28.7 -321.49,-20.5 -193.25,17.7 -249.92,75.1 -249.92,75.1 0,0 -292.8,150.4 -345.94,154.4 -53.15,4 -138.5,50.7 -202.92,0 -64.41,-50.7 -133.66,-28.2 -107.89,-103.9 25.76,-75.6 135.11,-311.1 135.11,-311.1" /><path
         id="path248"
         style="fill:#3970c0;fill-opacity:1;fill-rule:nonzero;stroke:none"
         d="m 3997.28,5029.5 0.74,-90.3 c 0,0 76.6,-133.3 215.37,-146 138.76,-12.6 -216.11,236.3 -216.11,236.3" /><path
         id="path250"
         style="fill:#df9866;fill-opacity:1;fill-rule:nonzero;stroke:none"
         d="m 4805.62,5024.2 c 0,0 153.65,-93.8 238.55,-101.7 84.89,-7.8 234.35,62.3 234.35,62.3 l -134.11,371.8 -318.16,-183.5 -20.63,-148.9" /><path
         id="path252"
         style="fill:#523d38;fill-opacity:1;fill-rule:nonzero;stroke:none"
         d="m 4531.98,5694.6 c 1.67,11.6 -23.28,86.6 -23.28,86.6 0,0 -105.39,153.1 -311.25,-79.2 -205.86,-232.3 -262.61,-462.2 -221.38,-647.8 41.23,-185.6 409.11,-383.9 560.05,-388.1 150.93,-4.1 220.76,58.1 220.76,58.1 l -61.45,295.2 c 0,0 170.28,258 156.08,280.7 -14.21,22.6 -132.32,172.9 -153.41,191.7 -21.1,18.9 -166.12,202.8 -166.12,202.8" /><path
         id="path254"
         style="fill:#201a16;fill-opacity:1;fill-rule:nonzero;stroke:none"
         d="m 4550.54,4665.9 v 0 c 140.98,0 206.34,58.3 206.34,58.3 v 0 c 0,0 -65.35,-58.3 -206.34,-58.3 m -14.93,0.2 c -0.07,0 -0.14,0 -0.21,0 0.08,0 0.13,0 0.21,0 m -0.54,0.1 c -0.07,0 -0.14,0 -0.21,0 0.06,0 0.14,0 0.21,0 m -0.58,0 c -0.1,0 -0.21,0 -0.3,0 0.09,0 0.2,0 0.3,0 m -0.63,0 c -0.1,0 -0.19,0 -0.29,0 0.1,0 0.19,0 0.29,0 m -0.54,0 c -0.09,0 -0.18,0 -0.28,0 0.1,0 0.19,0 0.28,0 m -0.52,0 c -0.21,0.1 -0.41,0.1 -0.63,0.1 0.21,0 0.42,0 0.63,-0.1 m -0.72,0.1 c -0.12,0 -0.26,0 -0.39,0 0.14,0 0.26,0 0.39,0 m -0.49,0 c -0.13,0 -0.28,0 -0.41,0 0.14,0 0.27,0 0.41,0 m -0.41,0 c -0.45,0 -0.9,0.1 -1.35,0.1 0.45,0 0.9,-0.1 1.35,-0.1 m -1.39,0.1 c -5.04,0.3 -10.29,0.8 -15.75,1.5 5.45,-0.7 10.72,-1.2 15.75,-1.5 m -15.82,1.5 c -0.45,0.1 -0.92,0.1 -1.38,0.2 0.47,-0.1 0.92,-0.1 1.38,-0.2 m -1.47,0.2 c -0.14,0 -0.26,0 -0.4,0.1 0.13,-0.1 0.27,-0.1 0.4,-0.1 m -0.59,0.1 c -0.12,0 -0.25,0 -0.37,0 0.12,0 0.24,0 0.37,0 m -0.54,0.1 c -0.22,0 -0.45,0 -0.67,0 0.22,0 0.45,0 0.67,0 m -0.91,0.1 c -0.11,0 -0.22,0 -0.33,0 0.1,0 0.22,0 0.33,0 m -0.6,0.1 c -0.11,0 -0.19,0 -0.3,0 0.1,0 0.2,0 0.3,0 m -0.71,0.1 c -0.11,0 -0.21,0 -0.31,0 0.1,0 0.2,0 0.31,0 m -0.75,0.1 c -0.07,0 -0.15,0 -0.22,0 0.06,0 0.15,0 0.22,0 m -0.66,0.1 c -0.06,0 -0.1,0 -0.16,0 0.05,0 0.11,0 0.16,0 m -1.46,0.2 v 0 0 m -0.67,0.1 h -0.02 0.02" /><path
         id="path256"
         style="fill:#8b6b55;fill-opacity:1;fill-rule:nonzero;stroke:none"
         d="m 4695.43,5019.4 v 0 0 0 m 0.01,0 v 0 0 m 0,0 c 0.01,0 0.01,0 0.02,0 -0.01,0 -0.01,0 -0.02,0 m 0.05,0 c 0.01,0.1 0.01,0.1 0.02,0.1 0,0 -0.01,0 -0.02,-0.1 m 0.11,0.2 h 0.01 -0.01 m 0.04,0.1 c 0.01,0 0.01,0 0.01,0 0,0 0,0 -0.01,0 m 0.07,0.1 c 0.01,0 0.02,0 0.03,0 -0.01,0 -0.02,0 -0.03,0" /><path
         id="path258"
         style="fill:#42322c;fill-opacity:1;fill-rule:nonzero;stroke:none"
         d="m 4550.54,4665.9 c -4.72,0 -9.54,0.1 -14.42,0.2 v 0 0 c -0.17,0 -0.34,0 -0.51,0 -0.08,0 -0.13,0 -0.21,0 -0.11,0 -0.22,0.1 -0.33,0.1 -0.07,0 -0.15,0 -0.21,0 -0.13,0 -0.25,0 -0.37,0 -0.1,0 -0.21,0 -0.3,0 -0.11,0 -0.23,0 -0.33,0 -0.1,0 -0.19,0 -0.29,0 -0.08,0 -0.16,0 -0.25,0 -0.09,0 -0.18,0 -0.28,0 -0.08,0 -0.16,0 -0.24,0 -0.21,0.1 -0.42,0.1 -0.63,0.1 -0.03,0 -0.06,0 -0.09,0 -0.13,0 -0.25,0 -0.39,0 -0.03,0 -0.06,0 -0.1,0 -0.14,0 -0.27,0 -0.41,0 -0.01,0 0,0 0,0 -0.45,0 -0.9,0.1 -1.35,0.1 -0.01,0 -0.03,0 -0.04,0 -5.03,0.3 -10.3,0.8 -15.75,1.5 -0.02,0 -0.04,0 -0.07,0 -0.46,0.1 -0.91,0.1 -1.38,0.2 -0.03,0 -0.06,0 -0.09,0 -0.13,0 -0.27,0 -0.4,0.1 -0.06,0 -0.13,0 -0.19,0 -0.13,0 -0.25,0 -0.37,0 -0.06,0 -0.12,0 -0.17,0.1 -0.22,0 -0.45,0 -0.67,0 -0.09,0.1 -0.16,0.1 -0.24,0.1 -0.11,0 -0.23,0 -0.33,0 -0.09,0 -0.19,0.1 -0.27,0.1 -0.1,0 -0.2,0 -0.3,0 -0.13,0 -0.28,0 -0.41,0.1 -0.11,0 -0.21,0 -0.31,0 -0.15,0 -0.29,0.1 -0.44,0.1 -0.07,0 -0.16,0 -0.22,0 -0.15,0 -0.29,0.1 -0.44,0.1 -0.05,0 -0.11,0 -0.16,0 -0.43,0.1 -0.87,0.1 -1.3,0.2 v 0 c -0.23,0 -0.45,0.1 -0.67,0.1 h -0.02 c -105.6,16.5 -277.24,98.5 -397.2,201 44.81,3.3 297.2,29.8 509.36,220.2 115.77,103.9 179.32,133.1 215.89,157.4 -40.24,-79.2 -131.94,-218.8 -137.9,-227.9 -0.01,0 -0.02,0 -0.03,0 -0.02,-0.1 -0.04,-0.1 -0.06,-0.1 0,0 0,0 -0.01,0 -0.01,0 -0.02,-0.1 -0.03,-0.1 h -0.01 c -0.03,0 -0.06,-0.1 -0.09,-0.1 -0.01,0 -0.01,0 -0.02,-0.1 -0.01,0 -0.02,0 -0.03,0 -0.01,0 -0.01,0 -0.02,0 v 0 0 h -0.01 v 0 0 0 l 61.45,-295.2 c 0,0 -65.36,-58.3 -206.34,-58.3" /><path
         id="path260"
         style="fill:#372a23;fill-opacity:1;fill-rule:nonzero;stroke:none"
         d="m 4431.32,5623.3 c 0,0 -98.84,-69.3 -154.19,-172 0,0 101.34,77.2 155.31,71.9 53.98,-5.4 34.28,-84.7 34.28,-84.7 0,0 -140.68,-142.9 -205.55,-296.6 0,0 199.4,172.7 316.9,177.8 117.51,5.1 3.51,192.1 -5.76,192.6 -9.26,0.5 -140.99,111 -140.99,111" /><path
         id="path262"
         style="fill:#fbc398;fill-opacity:1;fill-rule:nonzero;stroke:none"
         d="m 4651.86,5169.2 c 0,0 -120.26,57.7 -139.4,-31.6 -19.15,-89.3 200.73,-160.5 246.94,-136.9 46.22,23.5 46.22,23.5 46.22,23.5 0,0 256.9,-10.8 331.32,10.3 74.43,21.1 197.52,222.5 204.7,256 7.17,33.5 -226.82,195.7 -226.82,195.7 0,0 13.71,102.6 6.54,110.8 -7.15,8.2 -181.09,6.9 -198.58,9.4 -17.49,2.5 -160.21,111 -211.68,133.9 -51.48,22.8 -187.75,43.6 -202.4,40.9 -14.67,-2.7 -71.03,-130.3 -77.38,-157.9 -6.34,-27.7 -24.04,-117.9 -9.4,-156.9 14.64,-39 148.21,-128.4 194.67,-186.2 46.45,-57.9 54.11,-79.2 35.27,-111" /><path
         id="path264"
         style="fill:#372a23;fill-opacity:1;fill-rule:nonzero;stroke:none"
         d="m 4422.51,5577 c 0,0 84.65,-68.7 65.62,-180.4 -19.03,-111.7 49.14,-41.4 49.14,-41.4 0,0 11.5,91 -12.47,150.9 -23.97,59.9 -93.48,117.2 -93.48,117.2 l -8.81,-46.3" /><path
         id="path266"
         style="fill:#fbc398;fill-opacity:1;fill-rule:nonzero;stroke:none"
         d="m 5589.03,4646.7 c 0,0 253.64,161.8 471.05,79.7 217.41,-82.1 123.2,-642.6 123.2,-642.6 0,0 125.61,-183.6 239.15,-367.1 113.53,-183.6 171.51,-263.4 219.82,-289.9 48.31,-26.6 166.68,-41.1 485.55,-183.6 318.86,-142.5 734.35,-198.1 734.35,-198.1 l -60.39,-280.2 c 0,0 -582.17,43.5 -859.97,123.2 -277.8,79.7 -408.25,82.1 -478.3,144.9 -70.05,62.8 -386.5,299.6 -562.84,490.4 -176.34,190.8 -311.62,364.8 -311.62,364.8 0,0 -214.99,212.5 -243.98,352.6 l -125.62,107.9 c 0,0 67.64,211 369.6,298" /><path
         id="path268"
         style="fill:#df9866;fill-opacity:1;fill-rule:nonzero;stroke:none"
         d="m 6021.43,4400 9.66,-91.5 152.19,-224.7 17.01,158.1 c 0,0 -123.3,64.2 -130.55,71.4 -7.24,7.3 -48.31,86.7 -48.31,86.7" /><path
         id="path270"
         style="fill:#df9866;fill-opacity:1;fill-rule:nonzero;stroke:none"
         d="m 5441.67,4459.9 c 0,0 -38.65,-267.4 137.7,-419.5 0,0 -304.37,162.6 -137.7,419.5" /><path
         id="path272"
         style="fill:#100f0d;fill-opacity:1;fill-rule:nonzero;stroke:none"
         d="m 7599.65,4023.4 h 115.96 l 99.84,90.2 -78.62,46.1 -56.65,-68.1 -80.53,-68.2" /><path
         id="path274"
         style="fill:#f0f0ef;fill-opacity:1;fill-rule:nonzero;stroke:none"
         d="m 10169.9,6915.8 c -119.2,96.6 -257.67,74.1 -257.67,74.1 0,0 -28.99,-135.3 -67.64,-215.8 -0.98,-2.1 -2.11,-4.3 -3.26,-6.6 92.57,-61.9 208.57,-158.5 263.97,-281.1 79,95.5 141.9,165.3 141.9,165.3 0,0 41.9,167.5 -77.3,264.1" /><path
         id="path276"
         style="fill:#f0f0ef;fill-opacity:1;fill-rule:nonzero;stroke:none"
         d="m 9643.1,6593.7 c 56.27,79.6 104.82,148.6 104.82,148.6 0,0 -43.12,215.8 -123.63,260.9 -80.53,45 -228.68,22.5 -228.68,22.5 0,0 -16.4,-83.8 -54.52,-192.3 95.06,-60.8 212.45,-145.2 302.01,-239.7" /><path
         id="path278"
         style="fill:#898b8b;fill-opacity:1;fill-rule:nonzero;stroke:none"
         d="m 7649.58,1897.7 19.32,-120.8 1430.06,29 v 1141.8 l -251.23,11.4 -816.48,-848.9 -318.87,-6.4 v -61.2 h -43.48 l -19.32,-144.9" /><path
         id="path280"
         style="fill:#898b8b;fill-opacity:1;fill-rule:nonzero;stroke:none"
         d="m 8973.35,3264.9 550.77,-525 108.65,133 -553.13,519.2 -106.29,-127.2" /><path
         id="path282"
         style="fill:#ccccc9;fill-opacity:1;fill-rule:nonzero;stroke:none"
         d="m 8036.08,2502.2 131.5,-111.7 4762.62,4884.4 -106.3,125.6 -4787.82,-4898.3" /><path
         id="path284"
         style="fill:#707274;fill-opacity:1;fill-rule:nonzero;stroke:none"
         d="m 11906,4682.9 c 0,590.4 478.6,1069 1068.9,1069 257.9,0 494.4,-91.3 679.1,-243.4 -190.4,175.3 -444.6,282.4 -723.8,282.4 -590.4,0 -1068.9,-478.6 -1068.9,-1068.9 0,-332.5 151.8,-629.5 389.8,-825.6 -212.1,195.4 -345.1,475.4 -345.1,786.5" /><path
         id="path286"
         style="fill:#252323;fill-opacity:1;fill-rule:nonzero;stroke:none"
         d="m 9874.51,4383.1 -200.62,224.9 1966.31,1966.4 340,-37.1 -2105.69,-2154.2" /><path
         id="path288"
         style="fill:#100f0d;fill-opacity:1;fill-rule:nonzero;stroke:none"
         d="m 10047.8,4941.6 254.4,-121 1486.5,1520.9 -274.9,39.6 -1466,-1439.5" /><path
         id="path290"
         style="fill:#4c4d4e;fill-opacity:1;fill-rule:nonzero;stroke:none"
         d="M 15087.4,9336.6 H 14167 l -297.1,-293.4 920.3,43.4 297.2,250" /><path
         id="path292"
         style="fill:#b0b0ae;fill-opacity:1;fill-rule:nonzero;stroke:none"
         d="m 16268.6,2221.4 h -217.4 v -294.7 h 217.4 v 294.7" /><path
         id="path294"
         style="fill:#fbc398;fill-opacity:1;fill-rule:nonzero;stroke:none"
         d="m 7801.76,2764.9 c 0,0 28.18,-26.6 119.98,-79.7 91.8,-53.2 265.72,-162.7 346.24,-182 80.52,-19.3 112.73,14.5 112.73,14.5 0,0 57.98,0 67.64,30.6 0,0 64.42,9.6 67.64,62.8 0,0 51.53,49.9 45.09,83.7 -6.44,33.9 -119.17,145 -119.17,145 0,0 75.69,-19.4 85.35,20.9 9.66,40.3 -33.82,38.7 -104.68,82.1 -70.86,43.5 -109.51,74.1 -170.7,96.7 -61.2,22.5 -389.73,5.6 -389.73,5.6 0,0 -86.96,-81.3 -88.57,-95.8 -1.61,-14.5 28.18,-184.4 28.18,-184.4" /><path
         id="path296"
         style="fill:#df9866;fill-opacity:1;fill-rule:nonzero;stroke:none"
         d="m 8301.8,2804.3 c 6.44,0 235.12,-169.4 235.12,-169.4 l -20.93,-23.8 -214.19,193.2" /><path
         id="path298"
         style="fill:#df9866;fill-opacity:1;fill-rule:nonzero;stroke:none"
         d="m 8237.38,2739.9 c 11.28,-6.4 210.97,-191.6 210.97,-191.6 l -22.2,-21.7 -188.77,213.3" /><path
         id="path300"
         style="fill:#df9866;fill-opacity:1;fill-rule:nonzero;stroke:none"
         d="m 8219.67,2617.5 161.04,-99.8 -29.2,-15.5 z" /><path
         id="path302"
         style="fill:#df9866;fill-opacity:1;fill-rule:nonzero;stroke:none"
         d="m 8441.91,2839.8 -157.82,107.9 202.96,-112.3 c 0,0 -20.14,-12.7 -45.14,4.4" /><path
         id="path304"
         style="fill:#100f0d;fill-opacity:1;fill-rule:nonzero;stroke:none"
         d="m 7564.38,2110.2 -112.89,-212.5 v -120.8 h 217.41 v 333.3 h -104.52" /><path
         id="path306"
         style="fill:#66c75f;fill-opacity:1;fill-rule:nonzero;stroke:none"
         d="m 7434,6209.3 -90.4,79.5 593.32,674.7 90.41,-79.4 L 7434,6209.3" /><path
         id="path308"
         style="fill:#66c75f;fill-opacity:1;fill-rule:nonzero;stroke:none"
         d="m 7858.43,7032.6 251.7,-221.4 -8.77,248.2 z" /></g></g></svg>