<?xml version="1.0" encoding="UTF-8" standalone="no"?>
<svg
   xmlns:dc="http://purl.org/dc/elements/1.1/"
   xmlns:cc="http://creativecommons.org/ns#"
   xmlns:rdf="http://www.w3.org/1999/02/22-rdf-syntax-ns#"
   xmlns:svg="http://www.w3.org/2000/svg"
   xmlns="http://www.w3.org/2000/svg"
   viewBox="0 0 2666.6667 2666.6667"
   height="2666.6667"
   width="2666.6667"
   xml:space="preserve"
   id="svg2"
   version="1.1"><metadata
     id="metadata8"><rdf:RDF><cc:Work
         rdf:about=""><dc:format>image/svg+xml</dc:format><dc:type
           rdf:resource="http://purl.org/dc/dcmitype/StillImage" /></cc:Work></rdf:RDF></metadata><defs
     id="defs6" /><g
     transform="matrix(1.3333333,0,0,-1.3333333,0,2666.6667)"
     id="g10"><g
       transform="scale(0.1)"
       id="g12"><g
         transform="scale(1.22699)"
         id="g14"><path
           id="path16"
           style="fill:#ffffff;fill-opacity:1;fill-rule:nonzero;stroke:none"
           d="M 16300,0 H 0 V 16300 H 16300 V 0" /></g><path
         id="path18"
         style="fill:#898b8b;fill-opacity:1;fill-rule:nonzero;stroke:none"
         d="m 14563.4,12614.4 -65.8,-76 470.9,-354.4 96.2,96.2 -501.3,334.2" /><path
         id="path20"
         style="fill:#7c7d7f;fill-opacity:1;fill-rule:nonzero;stroke:none"
         d="m 14029.3,7890.3 h 979.7 c 0,0 30.4,-226.6 -38,-322.2 -68.3,-95.6 -506.6,-525.7 -506.6,-525.7 l -751.6,-105.7 -431.3,137.1 260.2,431.6 487.6,384.9" /><g
         transform="scale(1.11836)"
         id="g22"><path
           id="path24"
           style="fill:#686a6c;fill-opacity:1;fill-rule:nonzero;stroke:none"
           d="m 16276.3,7055.23 23.7,4984.77 -115.4,115.4 V 7055.23 h 91.7" /></g><g
         transform="scale(1.11044)"
         id="g26"><path
           id="path28"
           style="fill:#898b8b;fill-opacity:1;fill-rule:nonzero;stroke:none"
           d="m 16047,7105.55 -13.7,5136.55 H 16300 V 7038.28 l -253,67.27" /></g><g
         transform="scale(1.05717)"
         id="g30"><path
           id="path32"
           style="fill:#7c7d7f;fill-opacity:1;fill-rule:nonzero;stroke:none"
           d="m 16300,12756.1 -4255.2,-5148.78 -295.5,193.73 4215.5,5168.75 165.2,-31.7 170,-182" /></g><path
         id="path34"
         style="fill:#fbc398;fill-opacity:1;fill-rule:nonzero;stroke:none"
         d="m 13105.2,9252.3 c 55.7,65.8 299.2,278.5 299.2,278.5 0,0 166.6,141.8 298.3,217.7 131.6,76 167.1,81 177.2,96.2 10.1,15.2 359.3,463.8 531.6,703.8 172.4,240.1 227.9,328.2 227.9,328.2 l 312.3,-150.4 c 0,0 -165.5,-309.4 -211,-486.6 -45.6,-177.3 -96.2,-518.2 -116.5,-562.9 -20.2,-44.7 -595.8,-640.4 -595.8,-640.4 l -459.3,-272.7 c 0,0 -291.8,-174.7 -377.8,22.8 -86.1,197.4 -86.1,465.8 -86.1,465.8" /><path
         id="path36"
         style="fill:#dc9b70;fill-opacity:1;fill-rule:nonzero;stroke:none"
         d="m 13612.1,9036.4 c 0,0 242.5,377.9 450.1,474.1 207.6,96.2 623.2,464.9 623.2,464.9 l -41.7,-220.6 -384.1,-629.1 -455.7,-288.6 c 0,0 -244.4,-55 -253.1,0 -8.8,55.1 61.3,199.3 61.3,199.3" /><g
         transform="scale(1.16152)"
         id="g38"><path
           id="path40"
           style="fill:#7c7d7f;fill-opacity:1;fill-rule:nonzero;stroke:none"
           d="m 14680.8,11775.7 -156.9,-176.6 78.5,-111.1 1697.6,78.4 v 238.1 l -1619.2,-28.8" /></g><g
         transform="scale(1.05133)"
         id="g42"><path
           id="path44"
           style="fill:#252323;fill-opacity:1;fill-rule:nonzero;stroke:none"
           d="m 15268.4,11680.7 38.6,53 765.8,-26.5 c 0,0 144.4,-151.7 139.6,-224 -4.9,-72.2 -192.6,-385.3 -192.6,-385.3 l 280.2,-519.2 -38,-54.9 -955,25.1 -472,611.6 c 0,0 -106,207.1 0,332.4 106,125.2 433.4,187.8 433.4,187.8" /></g><path
         id="path46"
         style="fill:#252323;fill-opacity:1;fill-rule:nonzero;stroke:none"
         d="m 12849,7720.6 c 28.7,-24.3 615.5,-479.2 671.4,-460.7 55.9,18.5 288.6,-26.5 470.9,217.7 182.3,244.2 511.4,905.2 557,1104.5 0,0 -131.7,199.3 -344.4,290.5 -212.6,91.1 -400,163.8 -400,163.8 l -81,-57.5 c 0,0 -405,217.7 -617.7,273.4 0,0 -445.2,-391.3 -440.5,-410.2 4.7,-19 -40.5,-551.8 -40.5,-551.8 l 20.2,-339.3 204.6,-230.4" /><path
         id="path48"
         style="fill:#100f0d;fill-opacity:1;fill-rule:nonzero;stroke:none"
         d="m 13281.5,8376.3 c 31.3,25.4 441.4,602.6 441.4,602.6 l -110.8,57.5 c 0,0 -182.9,-396.8 -279.1,-482.8 -96.2,-86.1 -141.7,-81.1 -141.7,-81.1 l 90.2,-96.2" /><g
         transform="scale(1.01699)"
         id="g50"><path
           id="path52"
           style="fill:#a1a1a0;fill-opacity:1;fill-rule:nonzero;stroke:none"
           d="m 15795.5,11411.2 c 0,0 121.1,69.7 150.1,69.7 29.1,0 258.1,-391.7 251.5,-474.7 -6.6,-82.9 -109.6,-162.6 -109.6,-162.6 0,0 32.1,-88.9 48.4,-76.3 16.3,12.5 147.5,126.1 155.7,219 8.4,93 -267.1,551 -306.9,574.2 -39.9,23.3 -315.4,-126.1 -315.4,-126.1 l 126.2,-23.2" /></g><g
         transform="scale(1.0494)"
         id="g54"><path
           id="path56"
           style="fill:#686a6c;fill-opacity:1;fill-rule:nonzero;stroke:none"
           d="m 16172.6,10773 c 0,0 -258.6,446.6 -249,465.9 9.6,19.3 21.7,56.9 21.7,56.9 l 354.7,-476.1 -127.4,-46.7" /></g><g
         transform="scale(1.01647)"
         id="g58"><path
           id="path60"
           style="fill:#565759;fill-opacity:1;fill-rule:nonzero;stroke:none"
           d="m 13789.5,12081.2 c 0,0 -99.7,-34.9 -84.7,-174.3 14.9,-139.5 692.3,-1384.9 692.3,-1384.9 H 16300 c 0,0 -617.6,1150.7 -622.6,1275.3 -5,124.5 114.6,283.9 114.6,283.9 h -2002.5" /></g><path
         id="path62"
         style="fill:#7c7d7f;fill-opacity:1;fill-rule:nonzero;stroke:none"
         d="m 13436.8,6955.2 c 76,38.8 1784.9,411 1784.9,411 l -53.2,-288.6 c 0,0 -1109.3,-387.9 -1143.3,-357.2 -33.9,30.6 -390.9,102.6 -390.9,102.6 l -197.5,132.2" /><path
         id="path64"
         style="fill:#fbc398;fill-opacity:1;fill-rule:nonzero;stroke:none"
         d="m 15596.4,10913.1 c 0,0 50.6,106.3 0,253.2 -50.7,146.8 -48.4,435.4 -49.5,445.5 -1.2,10.2 -11.3,139.3 49.5,121.6 60.7,-17.8 88.6,-68.4 88.6,-68.4 0,0 12.8,26.8 43.1,0.7 30.3,-26 40.4,-46.3 40.4,-46.3 0,0 40.5,-5 55.7,-22.8 15.2,-17.7 25.3,-35.4 25.3,-35.4 0,0 25.4,-7.6 45.6,-30.4 20.3,-22.8 20.3,-143 30.4,-176.6 10.1,-33.5 64.6,-96.8 66.5,-210.7 1.8,-113.9 55,-171.6 47.4,-266.8 -7.6,-95.3 -200,-181.3 -235.4,-181.3 -35.5,0 -184.8,-20.3 -192.4,0 -7.6,20.2 -15.2,217.7 -15.2,217.7" /><path
         id="path66"
         style="fill:#a1a1a0;fill-opacity:1;fill-rule:nonzero;stroke:none"
         d="m 13591.3,6381.4 -70.9,41.1 617.7,196.9 v -73.5 l -389.9,-123.4 -156.9,-41.1" /><g
         transform="scale(1.10579)"
         id="g68"><path
           id="path70"
           style="fill:#7c7d7f;fill-opacity:1;fill-rule:nonzero;stroke:none"
           d="m 13463.3,6874.48 -567.8,-810.55 -109.9,-77.78 v -66.47 L 12433,5809.81 v -151.12 l 1236.4,281.61 v 326.29 l 48,133.93 2582.6,588 v 105.71 l -185.5,41.24 -2349,-473.96 15.5,182.59 -317.7,30.38" /></g><path
         id="path72"
         style="fill:#a1a1a0;fill-opacity:1;fill-rule:nonzero;stroke:none"
         d="m 11469.7,7014.3 c 54,16.9 769.7,182.3 789.9,175.5 20.3,-6.7 527.1,-129.5 469.2,-189 -7.9,-8.2 -1208.4,-290.3 -1211.8,-280.2 -3.4,10.1 -47.3,293.7 -47.3,293.7" /><path
         id="path74"
         style="fill:#a1a1a0;fill-opacity:1;fill-rule:nonzero;stroke:none"
         d="m 11125.4,6257.3 -86.1,-56.5 -207.6,56.5 v 179.8 l 207.6,-14.6 86.1,-165.2" /><path
         id="path76"
         style="fill:#a1a1a0;fill-opacity:1;fill-rule:nonzero;stroke:none"
         d="m 10909.4,6339.9 -77.7,97.2 2329.2,499.6 118.1,-113.7 c 0,0 60.8,-99 -421.9,-142.9 -482.7,-43.9 -1947.7,-340.2 -1947.7,-340.2" /><path
         id="path78"
         style="fill:#7c7d7f;fill-opacity:1;fill-rule:nonzero;stroke:none"
         d="m 11039.3,6422.5 v -221.7 l 2502.4,539.8 -369.3,82.4 -1520.4,-284.7 -298.7,-55.7 -314,-60.1" /><path
         id="path80"
         style="fill:#3970c1;fill-opacity:1;fill-rule:nonzero;stroke:none"
         d="m 11327.9,9470 c 5.1,22.8 162.1,190.8 162.1,190.8 0,0 232.9,67.5 668.3,-43.9 435.5,-111.4 455.7,-529.6 455.7,-529.6 0,0 91.2,-564.1 243.1,-711 151.9,-146.8 303.8,-318.9 303.8,-334.1 0,-15.2 23.8,-172.2 -175.5,-268.4 -199.2,-96.2 -828.7,323.7 -828.7,323.7 l -980.7,658.6 c 0,0 -123,99 -74.2,247 48.9,147.9 33.7,223.9 69.2,274.5 35.4,50.7 156.9,192.4 156.9,192.4" /><path
         id="path82"
         style="fill:#fbc398;fill-opacity:1;fill-rule:nonzero;stroke:none"
         d="m 11940.6,9419.4 c 0,0 -177.2,-15.2 -288.6,-192.4 -111.4,-177.2 -75.9,-369.6 0,-531.7 76,-162 354.4,-369.6 354.4,-369.6 l 344.4,-60.7 c 0,0 501.2,-243.1 759.5,-253.2 0,0 268.3,-126.6 521.5,-177.2 253.2,-50.7 541.8,-124.3 541.8,-112.8 0,11.5 86,229.2 86,229.2 0,0 -227.8,151.9 -400,283.6 -172.1,131.6 -578.1,238 -578.1,238 0,0 -316.6,321.4 -480.1,405 0,0 -324.1,703.8 -860.8,541.8" /><path
         id="path84"
         style="fill:#a1a1a0;fill-opacity:1;fill-rule:nonzero;stroke:none"
         d="m 11925.4,8270 c -5,70.9 -19.9,246.9 -19.9,246.9 l 197.1,-2.9 2157,-1808.6 -121.5,-86 -2212.7,1650.6" /><path
         id="path86"
         style="fill:#fbc398;fill-opacity:1;fill-rule:nonzero;stroke:none"
         d="m 10730.5,10400 64.1,60.8 c 0,0 91.1,-27 135,-60.8 43.9,-33.7 104.7,-54 114.8,-57.4 10.1,-3.3 124.9,20.3 141.8,0 16.8,-20.2 0,-111.4 0,-111.4 0,0 209.3,-192.4 222.8,-232.9 13.5,-40.5 -77.7,-182.3 -77.7,-192.4 0,-10.1 158.7,-135 158.7,-145.1 0,-10.2 249.8,-13.5 330.8,-27.1 81,-13.5 81,-13.5 81,-13.5 0,0 -13.5,-37.1 -189,-91.1 -175.6,-54 -415.2,-249.8 -492.9,-384.8 -77.6,-135 -361.2,-3.4 -421.9,118.1 -60.8,121.6 -131.7,233 -131.7,233 v 381.4 l 64.2,523.2" /><path
         id="path88"
         style="fill:#252323;fill-opacity:1;fill-rule:nonzero;stroke:none"
         d="m 10794.6,10460.8 c 0,0 -3.4,-131.7 0,-145.2 3.4,-13.5 43.9,-60.7 60.8,-97.9 16.8,-37.1 30.3,-104.6 40.5,-121.5 10.1,-16.9 189,-135 182.3,-151.9 -6.8,-16.9 -33.8,-27 -57.4,-27 -23.7,0 -58.7,6.8 -85.1,-20.3 -26.3,-27 3.6,-87.7 30.8,-111.3 27.3,-23.7 47.5,-10.2 50.9,-37.2 3.4,-27 -23.6,-97.9 -13.5,-148.5 10.1,-50.6 -84.3,-203.9 -84.3,-203.9 0,0 -628,106 -631.3,126.3 -3.4,20.2 -219.4,263.3 -145.2,445.5 74.3,182.3 145.2,276.8 182.3,361.2 37.1,84.4 74.3,216.1 232.9,232.9 158.7,16.9 209.3,-54 236.3,-101.2" /><path
         id="path90"
         style="fill:#7c7d7f;fill-opacity:1;fill-rule:nonzero;stroke:none"
         d="m 10598.8,8837.1 c 0,0 -56.3,-147.1 -111.4,-91.1 -55.1,56 -530.03,91.1 -530.03,91.1 0,0 -31.98,-40.6 28.78,-103.8 60.75,-63.3 1969.65,-1632.9 1969.65,-1632.9 0,0 2192.5,-506.4 2182.3,-481 -10.1,25.3 -2232.6,1897.5 -2232.6,1897.5 l -1306.7,320.2" /><path
         id="path92"
         style="fill:#a1a1a0;fill-opacity:1;fill-rule:nonzero;stroke:none"
         d="m 10036.8,9556.1 c 0,0 -111.41,-45.6 -70.9,-187.3 40.5,-141.8 521.5,-622.8 521.5,-622.8 0,0 1488.7,-268.4 1488.7,-227.9 0,40.5 -1027.9,916.5 -1245.6,987.4 -217.8,70.9 -693.7,50.6 -693.7,50.6" /><path
         id="path94"
         style="fill:#c9c8c6;fill-opacity:1;fill-rule:nonzero;stroke:none"
         d="m 10730.5,9505.5 c -217.8,70.9 -693.7,50.6 -693.7,50.6 0,0 -74.03,-30.3 -79.43,-118.3 126.03,4.2 280.53,2.4 428.83,-18.4 246.9,-34.7 970.1,-589.9 1269,-870 187.2,-27.8 320.9,-43.4 320.9,-31.3 0,40.5 -1027.9,916.5 -1245.6,987.4" /><path
         id="path96"
         style="fill:#565759;fill-opacity:1;fill-rule:nonzero;stroke:none"
         d="m 11383.6,8310.5 -227.8,162 h -151.9 l 349.4,-1989.9 c 0,0 298.7,40.5 298.7,55.7 0,15.2 -268.4,1772.2 -268.4,1772.2" /><g
         transform="scale(1.18577)"
         id="g98"><path
           id="path100"
           style="fill:#a1a1a0;fill-opacity:1;fill-rule:nonzero;stroke:none"
           d="m 11923.2,5710.37 c 0.6,29.93 4095,5926.93 4095,5926.93 h 196.4 l 85.4,-230.6 -3962.6,-5773.16 -311.8,21.34 -102.4,55.49" /></g><path
         id="path102"
         style="fill:#a1a1a0;fill-opacity:1;fill-rule:nonzero;stroke:none"
         d="m 13748.2,6257.3 h -227.8 v 165.2 h 227.8 v -165.2" /><g
         transform="scale(1.0317)"
         id="g104"><path
           id="path106"
           style="fill:#898b8b;fill-opacity:1;fill-rule:nonzero;stroke:none"
           d="m 16162.6,12113.9 c -17.5,-3.1 -245.5,-284.6 -255.3,-343.5 -9.7,-58.9 34.4,-147.2 34.4,-147.2 l 117.7,24.5 c 0,0 -40.6,98.1 -25.2,122.7 15.4,24.5 236.3,247.8 236.3,247.8 0,0 29.5,120.3 -107.9,95.7" /></g><g
         transform="scale(1.07456)"
         id="g108"><path
           id="path110"
           style="fill:#a1a1a0;fill-opacity:1;fill-rule:nonzero;stroke:none"
           d="m 16163.4,11027.6 c 0,0 -413.1,-560.8 -425.7,-589 -12.5,-28.3 0,-106.9 0,-106.9 L 13896.9,7762.12 c 0,0 -61.9,0 -99.3,-28.29 -37.4,-28.29 -324.8,-409.93 -324.8,-409.93 0,0 150.8,-170.49 164.9,-132.34 14.2,38.07 278,358.47 301.5,415.06 23.7,56.58 23.7,127.21 23.7,127.21 l 1815.6,2562.37 c 0,0 87.4,10.1 119.4,48.1 32,38 383.2,543.5 392.7,578 9.4,34.6 -34.6,128.8 -127.2,105.3" /></g><path
         id="path112"
         style="fill:#dc9b70;fill-opacity:1;fill-rule:nonzero;stroke:none"
         d="m 11017.4,9748.5 c 0,0 17.2,-13.5 60.9,0 43.7,13.5 43.7,13.5 43.7,13.5 0,0 151.9,-68.9 209.3,43.9 l 70.1,-64.7 c 0,0 -103.8,-66.9 -147.7,-70.3 -43.9,-3.4 -108,33.7 -108,33.7 0,0 -81.1,-27 -128.3,43.9" /><path
         id="path114"
         style="fill:#dc9b70;fill-opacity:1;fill-rule:nonzero;stroke:none"
         d="m 11976.1,8695.3 c 0,0 156.9,-94.8 344.3,-113.2 187.3,-18.4 303.8,56.6 303.8,56.6 0,0 -145.8,-118.9 -333.7,-121.8 -187.9,-2.9 -314.4,178.4 -314.4,178.4" /><path
         id="path116"
         style="fill:#eaad81;fill-opacity:1;fill-rule:nonzero;stroke:none"
         d="m 13577.3,8139.1 c -109.7,0 -319.9,29 -415.5,237.3 0,0 262.4,-222.8 485.2,-233 0,0 -27.4,-4.3 -69.7,-4.3" /><path
         id="path118"
         style="fill:#fbc398;fill-opacity:1;fill-rule:nonzero;stroke:none"
         d="m 14639.4,10876.7 c 0,0 -16.9,90.4 -67.5,235.6 -50.6,145.1 -185.7,263.3 -189,286.9 -3.4,23.6 16.8,50.6 16.8,50.6 0,0 -26,30.4 -17.2,53.2 8.8,22.8 6.3,10.1 8.8,22.8 2.5,12.6 -28.9,30.3 -10.6,53.1 18.2,22.8 25.8,30.4 28.3,38 2.5,7.6 10.1,35.5 10.1,35.5 0,0 -35.4,60.7 27.9,68.3 63.3,7.6 88.6,-20.3 131.6,-78.5 43.1,-58.2 101.3,-55.7 164.6,-169.6 63.3,-113.9 53.2,-217.7 98.7,-291.1 45.6,-73.5 200,-149.4 205.1,-291.2 5.1,-141.8 -187.3,-227.8 -187.3,-227.8 l -148.7,53.1 -71.6,161.1" /><g
         transform="scale(1.17397)"
         id="g120"><path
           id="path122"
           style="fill:#a1a1a0;fill-opacity:1;fill-rule:nonzero;stroke:none"
           d="m 14622.2,6768.49 -245.8,81.94 194.1,43.11 1729.5,-319.18 v -120.78 l -107.8,-60.4 -1570,375.31" /></g><g
         transform="scale(1.1662)"
         id="g124"><path
           id="path126"
           style="fill:#686a6c;fill-opacity:1;fill-rule:nonzero;stroke:none"
           d="M 14472.1,6896.06 V 6765.81 L 16300,6435.76 v 121.59 l -1827.9,338.71" /></g><path
         id="path128"
         style="fill:#fbc398;fill-opacity:1;fill-rule:nonzero;stroke:none"
         d="m 14173.6,7721.8 c 0,0 43.9,-62.8 60.7,-79.6 16.9,-16.9 77.7,-111.4 162.1,-172.2 84.3,-60.8 146.1,-101.1 152,-92.5 5.9,8.6 201.2,292.5 205.9,299.4 4.7,6.8 -6.3,67.9 -57.2,114.5 -50.9,46.5 -155.1,122.8 -180.6,130.3 -25.6,7.4 -256.9,29.3 -256.9,29.3 l -86,-229.2" /><path
         id="path130"
         style="fill:#fbc398;fill-opacity:1;fill-rule:nonzero;stroke:none"
         d="m 15596.4,10913.1 c 0,0 0,0 -49.5,-55.7 -49.5,-55.7 -436.6,-410.1 -689.8,-724.1 -253.1,-313.9 -521.5,-592.4 -526.6,-607.6 -5,-15.2 -96.2,-25.3 -227.8,-111.4 -131.7,-86 -298.8,-377.9 -298.8,-377.9 0,0 187.4,-72.7 400,-163.8 212.7,-91.2 344.4,-290.5 344.4,-290.5 0,0 172.1,447.4 227.8,508.2 55.7,60.7 334.2,217.7 472.7,486.1 138.4,268.3 388.1,896.2 423.5,936.7 35.5,40.5 0,0 50.7,50.6 50.6,50.7 81,131.7 81,131.7 l -207.6,217.7" /><path
         id="path132"
         style="fill:#fbc398;fill-opacity:1;fill-rule:nonzero;stroke:none"
         d="m 14812.2,10436.7 c 63.2,147 139.5,289.6 139.5,289.6 l -312.3,150.4 c 0,0 -55.5,-88.1 -227.9,-328.2 -24.2,-33.7 -52,-71.6 -81.8,-111.8 h 482.5" /><path
         id="path134"
         style="fill:#686a6c;fill-opacity:1;fill-rule:nonzero;stroke:none"
         d="m 8925.74,7890.3 26.55,5574.7 -129.12,129.2 V 7890.3 h 102.57" /><path
         id="path136"
         style="fill:#898b8b;fill-opacity:1;fill-rule:nonzero;stroke:none"
         d="m 8542.15,7890.3 -15.19,5703.9 h 296.21 V 7815.6 l -281.02,74.7" /><path
         id="path138"
         style="fill:#7c7d7f;fill-opacity:1;fill-rule:nonzero;stroke:none"
         d="m 7775.05,13677.7 -182.28,-205.1 91.14,-129.1 1971.86,91.2 v 276.5 l -1880.72,-33.5" /><path
         id="path140"
         style="fill:#a1a1a0;fill-opacity:1;fill-rule:nonzero;stroke:none"
         d="m 5549.38,11338.4 c 72.19,45.9 425.35,557 450.67,577.2 25.32,20.3 135.9,0 135.9,0 l -437.87,-536.8 c 0,0 -204.43,-75.8 -148.7,-40.4" /><path
         id="path142"
         style="fill:#898b8b;fill-opacity:1;fill-rule:nonzero;stroke:none"
         d="m 4643.39,11768.8 -65.83,-75.9 470.9,-354.5 96.2,96.2 -501.27,334.2" /><path
         id="path144"
         style="fill:#7c7d7f;fill-opacity:1;fill-rule:nonzero;stroke:none"
         d="M 7954.8,13485.3 3456.37,8042.2 3143.95,8247 l 4456.42,5464.2 174.68,-33.5 179.75,-192.4" /><path
         id="path146"
         style="fill:#fbc398;fill-opacity:1;fill-rule:nonzero;stroke:none"
         d="m 2982.28,9497.5 c 4.95,46.9 121.51,413 182.28,509.3 60.76,96.1 151.9,248.1 248.1,258.2 96.21,10.1 237.98,-20.3 258.23,-25.3 20.26,-5.1 982.3,-70.9 1134.2,-30.4 0,0 -142.37,227.8 -219.71,325.7 -77.34,97.9 -144.85,195.8 -134.73,216.1 10.13,20.2 27.01,33.7 27.01,33.7 0,0 -13.5,33.8 16.88,47.3 30.38,13.5 30.38,13.5 30.38,13.5 0,0 -23.63,57.4 30.38,60.7 54.01,3.4 94.51,-77.6 141.77,-97.9 47.26,-20.2 135.68,-77.6 164.04,-158.6 28.37,-81 69.23,-151.6 237.65,-284.1 168.44,-132.4 155.28,-262.8 151.91,-276.3 -3.38,-13.5 -1636.79,-1066.6 -1636.79,-1066.6 l -432.44,64.5 -199.16,410.2" /><path
         id="path148"
         style="fill:#252323;fill-opacity:1;fill-rule:nonzero;stroke:none"
         d="m 6227.9,11553.6 c 50.64,-7.6 794.95,-32.9 860.77,-43 65.83,-10.2 136.72,-94.9 126.59,-181.6 -10.13,-86.8 -182.28,-446 -182.28,-446 0,0 227.89,-407.7 217.74,-422 -10.14,-14.4 -206.85,-182.8 -206.85,-182.8 l -860.43,-38.5 -345.59,413.9 -50.46,462 440.51,438" /><path
         id="path150"
         style="fill:#686a6c;fill-opacity:1;fill-rule:nonzero;stroke:none"
         d="m 6931.71,10968.8 c 0,0 293.68,-587.4 293.68,-572.2 0,15.2 99.88,169.6 99.88,169.6 l -393.56,402.6" /><path
         id="path152"
         style="fill:#a1a1a0;fill-opacity:1;fill-rule:nonzero;stroke:none"
         d="m 6340.98,10881.8 c -64.13,14.4 -297.05,-107.1 -297.05,-107.1 l 77.64,-64.1 c 0,0 151.9,87.7 205.91,84.3 54.01,-3.3 243.04,-394.9 243.04,-459 0,-64.2 -162.02,-177.2 -162.02,-177.2 l 60.75,-59.1 c 0,0 165.99,162 189.33,243 23.33,81 -253.46,524.8 -317.6,539.2" /><path
         id="path154"
         style="fill:#565759;fill-opacity:1;fill-rule:nonzero;stroke:none"
         d="m 4162.04,11487.8 c 0,0 -144.31,-96.2 -136.71,-232.9 7.59,-136.7 622.8,-1319.8 660.77,-1290.3 37.98,29.5 808.36,-124.9 881.4,-124.9 73.05,0 1091.08,-20.3 1091.08,-20.3 0,0 -551.36,1067.7 -587.64,1205.1 -36.29,137.4 -20.26,374.7 -20.26,374.7 l -1888.64,88.6" /><path
         id="path156"
         style="fill:#dc9b70;fill-opacity:1;fill-rule:nonzero;stroke:none"
         d="m 3175.85,9098.8 5.59,-11.5 15.95,-2.4 c -7.14,4.5 -14.3,9.1 -21.54,13.9" /><path
         id="path158"
         style="fill:#dc9b70;fill-opacity:1;fill-rule:nonzero;stroke:none"
         d="m 5098.76,10365.7 c -168.42,132.5 -209.28,203.1 -237.65,284.1 -28.36,81 -116.78,138.4 -164.04,158.6 -47.26,20.3 -87.76,101.3 -141.77,97.9 -54.01,-3.3 -30.38,-60.7 -30.38,-60.7 0,0 0,0 -30.38,-13.5 -30.38,-13.5 -16.88,-47.3 -16.88,-47.3 0,0 -16.88,-13.5 -27.01,-33.7 -10.12,-20.3 57.39,-118.2 134.73,-216.1 77.34,-97.9 219.71,-325.7 219.71,-325.7 -86.56,-23.1 -436.16,-11.6 -724.68,3.4 -16.64,-103.7 -143.14,-247.4 -166.47,-285.3 -27.01,-43.9 -94.52,-141.7 -94.52,-153.4 0,-11.6 -140,136.5 -140,136.5 0,0 62.36,-199.1 62.36,-243 0,-43.9 -62.36,-306.8 -62.36,-306.8 0,0 -73.92,-204.5 -151.88,-325 l 86.34,-12.9 c 0,0 1633.41,1053.1 1636.79,1066.6 3.37,13.5 16.53,143.9 -151.91,276.3" /><path
         id="path160"
         style="fill:#fbc398;fill-opacity:1;fill-rule:nonzero;stroke:none"
         d="m 4678.51,8933.3 c 0,0 -16.55,229.3 -103.22,462.8 0,0 285.51,-32.4 612.09,165.1 326.58,197.4 600.01,308.8 600.01,308.8 l -106.34,288.7 c 0,0 -343.72,-50.7 -784.53,-30.4 -440.8,20.2 -587.64,40.5 -724.35,-5.1 -136.71,-45.6 -167.09,-182.3 -227.85,-273.4 -60.77,-91.2 -136.03,-219.2 -167.09,-541.8 -31.07,-322.6 28.31,-384.3 28.31,-384.3 0,0 209.67,-76.5 366.63,-86.6 156.97,-10.1 506.34,96.2 506.34,96.2" /><path
         id="path162"
         style="fill:#7c7d7f;fill-opacity:1;fill-rule:nonzero;stroke:none"
         d="m 4752.22,7890.3 h 979.76 c 0,0 30.38,-226.6 -37.98,-322.2 -68.35,-95.6 -506.62,-525.7 -506.62,-525.7 l -751.65,-105.7 -431.28,137.1 -738.62,589.9 1486.39,226.6" /><path
         id="path164"
         style="fill:#252323;fill-opacity:1;fill-rule:nonzero;stroke:none"
         d="m 2794.93,9535.9 c 0,0 420.26,35.4 592.41,-35.5 172.16,-70.9 389.89,-192.4 389.89,-192.4 v -116.5 c 0,0 322.87,15.5 553.84,-90.9 230.98,-106.5 347.44,-167.3 347.44,-167.3 0,0 0,-334.2 45.57,-602.5 45.57,-268.4 101.11,-896.5 -459.43,-1164.6 -560.55,-268.1 -998.83,784.8 -998.83,784.8 0,0 15.2,698.8 -40.5,744.3 -55.7,45.6 -400.79,668.4 -400.79,668.4 l -29.6,172.2" /><path
         id="path166"
         style="fill:#100f0d;fill-opacity:1;fill-rule:nonzero;stroke:none"
         d="m 3805.54,8558.6 c -3,50.7 -28.31,632.9 -28.31,632.9 V 9308 l -97.81,52.7 c 0,0 83.21,-346.4 -36.08,-685.6 -119.28,-339.3 162.2,-116.5 162.2,-116.5" /><path
         id="path168"
         style="fill:#3970c1;fill-opacity:1;fill-rule:nonzero;stroke:none"
         d="m 2050.9,9470 c 5.07,22.8 162.03,190.8 162.03,190.8 0,0 232.92,67.5 668.37,-43.9 435.45,-111.4 455.7,-529.6 455.7,-529.6 0,0 91.14,-564.1 243.04,-711 151.9,-146.8 303.81,-318.9 303.81,-334.1 0,-15.2 23.79,-172.2 -175.45,-268.4 -199.24,-96.2 -828.69,323.7 -828.69,323.7 L 1899,8756.1 c 0,0 -123.08,99 -74.2,247 48.89,147.9 33.7,223.9 69.14,274.5 35.44,50.7 156.96,192.4 156.96,192.4" /><path
         id="path170"
         style="fill:#fbc398;fill-opacity:1;fill-rule:nonzero;stroke:none"
         d="m 1453.43,10400 64.13,60.8 c 0,0 91.14,-27 135.02,-60.8 43.89,-33.7 104.65,-54 114.77,-57.4 10.13,-3.3 124.9,20.3 141.78,0 16.88,-20.2 0,-111.4 0,-111.4 0,0 209.29,-192.4 222.79,-232.9 13.5,-40.5 -77.64,-182.3 -77.64,-192.4 0,-10.1 158.65,-135 158.65,-145.1 0,-10.2 249.79,-13.5 330.81,-27.1 81.02,-13.5 81.02,-13.5 81.02,-13.5 0,0 -13.51,-37.1 -189.04,-91.1 -175.53,-54 -415.2,-249.8 -492.83,-384.8 -77.64,-135 -361.19,-3.4 -421.95,118.1 -60.76,121.6 -131.65,233 -131.65,233 v 381.4 l 64.14,523.2" /><path
         id="path172"
         style="fill:#252323;fill-opacity:1;fill-rule:nonzero;stroke:none"
         d="m 1517.56,10460.8 c 0,0 -3.38,-131.7 0,-145.2 3.38,-13.5 43.89,-60.7 60.76,-97.9 16.88,-37.1 30.38,-104.6 40.51,-121.5 10.13,-16.9 189.03,-135 182.28,-151.9 -6.75,-16.9 -33.76,-27 -57.38,-27 -23.63,0 -58.7,6.8 -85.05,-20.3 -26.35,-27 3.6,-87.7 30.82,-111.3 27.22,-23.7 47.47,-10.2 50.85,-37.2 3.38,-27 -23.63,-97.9 -13.5,-148.5 10.12,-50.6 -84.28,-203.9 -84.28,-203.9 0,0 -627.97,106 -631.34,126.3 -3.38,20.2 -219.417,263.3 -145.156,445.5 74.262,182.3 145.156,276.8 182.276,361.2 37.14,84.4 74.27,216.1 232.92,232.9 158.65,16.9 209.29,-54 236.29,-101.2" /><path
         id="path174"
         style="fill:#fbc398;fill-opacity:1;fill-rule:nonzero;stroke:none"
         d="m 2663.57,9419.4 c 0,0 -177.22,-15.2 -288.61,-192.4 -111.39,-177.2 -75.95,-369.6 0,-531.7 75.95,-162 354.44,-369.6 354.44,-369.6 l 344.3,-60.7 c 0,0 501.28,-243.1 759.51,-253.2 0,0 268.36,-126.6 521.53,-177.2 253.17,-50.7 541.78,-124.3 541.78,-112.8 0,11.5 86.08,229.2 86.08,229.2 0,0 -227.86,151.9 -400.01,283.6 -172.15,131.6 -578.14,238 -578.14,238 0,0 -316.59,321.4 -480.1,405 0,0 -324.06,703.8 -860.78,541.8" /><path
         id="path176"
         style="fill:#7c7d7f;fill-opacity:1;fill-rule:nonzero;stroke:none"
         d="m 4159.8,6955.2 c 75.95,38.8 1784.84,411 1784.84,411 l -53.17,-288.6 c 0,0 -1109.36,-387.9 -1143.3,-357.2 -33.93,30.6 -390.9,102.6 -390.9,102.6 l -197.47,132.2" /><path
         id="path178"
         style="fill:#a1a1a0;fill-opacity:1;fill-rule:nonzero;stroke:none"
         d="m 4314.23,6381.4 -70.89,41.1 617.74,196.9 v -73.5 l -389.88,-123.4 -156.97,-41.1" /><path
         id="path180"
         style="fill:#7c7d7f;fill-opacity:1;fill-rule:nonzero;stroke:none"
         d="m 5610.46,7601.7 -627.86,-896.3 -121.52,-86 v -73.5 L 4471.2,6424.4 v -167.1 l 1367.11,311.4 v 360.8 l 53.16,148.1 2855.75,650.2 v 116.9 l -205.07,45.6 -2597.51,-524.1 17.1,201.9 -351.28,33.6" /><path
         id="path182"
         style="fill:#a1a1a0;fill-opacity:1;fill-rule:nonzero;stroke:none"
         d="m 2192.68,7014.3 c 54.01,16.9 769.63,182.3 789.88,175.5 20.26,-6.7 527.08,-129.5 469.21,-189 -7.93,-8.2 -1208.46,-290.3 -1211.83,-280.2 -3.38,10.1 -47.26,293.7 -47.26,293.7" /><path
         id="path184"
         style="fill:#a1a1a0;fill-opacity:1;fill-rule:nonzero;stroke:none"
         d="m 1632.33,6339.9 -77.64,97.2 2329.16,499.6 118.14,-113.7 c 0,0 60.76,-99 -421.95,-142.9 -482.71,-43.9 -1947.71,-340.2 -1947.71,-340.2" /><path
         id="path186"
         style="fill:#a1a1a0;fill-opacity:1;fill-rule:nonzero;stroke:none"
         d="m 2648.38,8270 c -5.06,70.9 -19.9,246.9 -19.9,246.9 l 197.12,-2.9 2157,-1808.6 -121.52,-86 -2212.7,1650.6" /><path
         id="path188"
         style="fill:#a1a1a0;fill-opacity:1;fill-rule:nonzero;stroke:none"
         d="m 1848.37,6257.3 -86.08,-56.5 -207.6,56.5 v 179.8 l 207.6,-14.6 86.08,-165.2" /><path
         id="path190"
         style="fill:#7c7d7f;fill-opacity:1;fill-rule:nonzero;stroke:none"
         d="m 1321.78,8837.1 c 0,0 -56.32,-147.1 -111.39,-91.1 -55.09,56 -530.07,91.1 -530.07,91.1 0,0 -31.968,-40.6 28.789,-103.8 60.758,-63.3 1969.651,-1632.9 1969.651,-1632.9 0,0 2192.45,-506.4 2182.32,-481 -10.13,25.3 -2232.6,1897.5 -2232.6,1897.5 l -1306.7,320.2" /><path
         id="path192"
         style="fill:#a1a1a0;fill-opacity:1;fill-rule:nonzero;stroke:none"
         d="m 759.742,9556.1 c 0,0 -111.39,-45.6 -70.887,-187.3 C 729.359,9227 1210.39,8746 1210.39,8746 c 0,0 1488.63,-268.4 1488.63,-227.9 0,40.5 -1027.87,916.5 -1245.59,987.4 -217.73,70.9 -693.688,50.6 -693.688,50.6" /><path
         id="path194"
         style="fill:#c9c8c6;fill-opacity:1;fill-rule:nonzero;stroke:none"
         d="m 1453.42,9505.5 c -217.72,70.9 -693.678,50.6 -693.678,50.6 0,0 -74.012,-30.3 -79.422,-118.3 126.059,4.2 280.559,2.4 428.8,-18.4 246.94,-34.7 970.16,-589.9 1269.01,-870 187.21,-27.8 320.89,-43.4 320.89,-31.3 0,40.5 -1027.87,916.5 -1245.6,987.4" /><path
         id="path196"
         style="fill:#565759;fill-opacity:1;fill-rule:nonzero;stroke:none"
         d="m 2106.6,8310.5 -227.85,162 h -151.9 l 349.37,-1989.9 c 0,0 298.74,40.5 298.74,55.7 0,15.2 -268.36,1772.2 -268.36,1772.2" /><path
         id="path198"
         style="fill:#a1a1a0;fill-opacity:1;fill-rule:nonzero;stroke:none"
         d="m 4861.11,6771.2 c 0.76,35.5 4855.75,7028 4855.75,7028 h 232.92 l 101.22,-273.4 -4698.77,-6845.7 -369.63,25.3 -121.49,65.8" /><path
         id="path200"
         style="fill:#7c7d7f;fill-opacity:1;fill-rule:nonzero;stroke:none"
         d="m 1762.29,6422.5 v -221.7 l 2502.36,539.8 -369.29,82.4 -1520.4,-284.7 -298.74,-55.7 -313.93,-60.1" /><path
         id="path202"
         style="fill:#a1a1a0;fill-opacity:1;fill-rule:nonzero;stroke:none"
         d="m 7888.98,7946 -288.61,96.2 227.85,50.6 2030.41,-374.7 V 7576.3 L 9732.05,7505.4 7888.98,7946" /><path
         id="path204"
         style="fill:#a1a1a0;fill-opacity:1;fill-rule:nonzero;stroke:none"
         d="m 8091.51,11849.8 c 0,0 -443.89,-602.5 -457.39,-632.9 -13.5,-30.4 0,-114.8 0,-114.8 L 5656.03,8340.9 c 0,0 -66.47,0 -106.65,-30.4 -40.19,-30.4 -349.05,-440.5 -349.05,-440.5 0,0 162.02,-183.2 177.21,-142.2 15.19,40.9 298.74,385.2 324.06,446 25.31,60.8 25.31,136.7 25.31,136.7 L 7678,11064 c 0,0 93.85,10.8 128.27,51.6 34.43,40.9 411.83,584 421.95,621.1 10.13,37.2 -37.13,138.4 -136.71,113.1" /><path
         id="path206"
         style="fill:#dc9b70;fill-opacity:1;fill-rule:nonzero;stroke:none"
         d="m 1740.35,9748.5 c 0,0 17.25,-13.5 60.95,0 43.7,13.5 43.7,13.5 43.7,13.5 0,0 151.89,-68.9 209.28,43.9 l 70.11,-64.7 c 0,0 -103.87,-66.9 -147.75,-70.3 -43.88,-3.4 -108.02,33.7 -108.02,33.7 0,0 -81.01,-27 -128.27,43.9" /><path
         id="path208"
         style="fill:#dc9b70;fill-opacity:1;fill-rule:nonzero;stroke:none"
         d="m 2699.02,8695.3 c 0,0 156.96,-94.8 344.31,-113.2 187.34,-18.4 303.8,56.6 303.8,56.6 0,0 -145.79,-118.9 -333.66,-121.8 -187.87,-2.9 -314.45,178.4 -314.45,178.4" /><path
         id="path210"
         style="fill:#eaad81;fill-opacity:1;fill-rule:nonzero;stroke:none"
         d="m 4300.26,8139.1 c -109.67,0 -319.9,29 -415.53,237.3 0,0 262.41,-222.8 485.2,-233 0,0 -27.35,-4.3 -69.67,-4.3" /><path
         id="path212"
         style="fill:#dc9b70;fill-opacity:1;fill-rule:nonzero;stroke:none"
         d="m 4450.65,9681 c 0,0 6.24,-166.5 124.64,-284.9 l 144.81,3.5 c 0,0 -188.43,82.3 -269.45,281.4" /><path
         id="path214"
         style="fill:#fbc398;fill-opacity:1;fill-rule:nonzero;stroke:none"
         d="m 5681.05,10158.7 c 0,0 38.82,62.4 62.46,99.5 23.62,37.2 -60.77,563.7 -47.26,594.1 13.5,30.4 74.26,47.3 111.39,0 0,0 60.76,-6.7 84.39,-23.6 23.63,-16.9 23.63,-16.9 23.63,-16.9 0,0 37.85,0 56.05,-13.5 18.21,-13.5 21.59,-30.4 21.59,-30.4 0,0 43.88,10.2 60.76,-54 16.88,-64.1 10.12,-247.4 33.75,-348.2 23.63,-100.7 135.03,-310 81.02,-377.5 -54.01,-67.5 -381.44,-118.2 -381.44,-118.2 0,0 -266.68,20.4 -212.66,94.6 54.01,74.2 106.32,194.1 106.32,194.1" /><path
         id="path216"
         style="fill:#898b8b;fill-opacity:1;fill-rule:nonzero;stroke:none"
         d="m 6813.56,11713.1 c 0,0 -199.16,-259.9 -212.66,-290.3 -13.5,-30.4 16.88,-182.3 16.88,-182.3 0,0 66.06,-16.8 97.17,13.5 v 131.7 l 199.88,256.5 c 0,0 0,97.9 -101.27,70.9" /><path
         id="path218"
         style="fill:#a1a1a0;fill-opacity:1;fill-rule:nonzero;stroke:none"
         d="m 4471.2,6257.3 h -227.86 v 165.2 h 227.86 v -165.2" /><path
         id="path220"
         style="fill:#fbc398;fill-opacity:1;fill-rule:nonzero;stroke:none"
         d="m 4896.52,7721.8 c 0,0 43.89,-62.8 60.77,-79.6 16.87,-16.9 77.63,-111.4 162.02,-172.2 84.39,-60.8 146.18,-101.1 152.08,-92.5 5.9,8.6 201.13,292.5 205.86,299.4 4.73,6.8 -6.32,67.9 -57.24,114.5 -50.9,46.5 -155.01,122.8 -180.6,130.3 -25.58,7.4 -256.81,29.3 -256.81,29.3 l -86.08,-229.2" /><path
         id="path222"
         style="fill:#686a6c;fill-opacity:1;fill-rule:nonzero;stroke:none"
         d="m 7600.37,8042.2 v -151.9 l 2131.68,-384.9 v 141.8 l -2131.68,395" /></g></g></svg>