<?xml version="1.0" encoding="UTF-8" standalone="no"?>
<svg
   xmlns:dc="http://purl.org/dc/elements/1.1/"
   xmlns:cc="http://creativecommons.org/ns#"
   xmlns:rdf="http://www.w3.org/1999/02/22-rdf-syntax-ns#"
   xmlns:svg="http://www.w3.org/2000/svg"
   xmlns="http://www.w3.org/2000/svg"
   viewBox="0 0 2666.6667 2666.6667"
   height="2666.6667"
   width="2666.6667"
   xml:space="preserve"
   id="svg2"
   version="1.1"><metadata
     id="metadata8"><rdf:RDF><cc:Work
         rdf:about=""><dc:format>image/svg+xml</dc:format><dc:type
           rdf:resource="http://purl.org/dc/dcmitype/StillImage" /></cc:Work></rdf:RDF></metadata><defs
     id="defs6" /><g
     transform="matrix(1.3333333,0,0,-1.3333333,0,2666.6667)"
     id="g10"><g
       transform="scale(0.1)"
       id="g12"><g
         transform="scale(1.22699)"
         id="g14"><path
           id="path16"
           style="fill:none;fill-opacity:1;fill-rule:nonzero;stroke:none"
           d="M 16300,0 H 0 V 16300 H 16300 V 0" /></g><path
         id="path18"
         style="fill:#252323;fill-opacity:1;fill-rule:nonzero;stroke:none"
         d="m 2956.57,6328.5 c 0,0 -96.09,-17.6 -158.53,-74.6 -62.45,-57 -65.16,-78.7 -116.75,-135.7 -51.58,-57 -184.61,-195.5 -181.9,-233.5 2.72,-38 78.74,-149.3 206.34,-247.1 127.6,-97.7 160.18,-184.6 214.48,-317.6 54.3,-133 176.47,-173.8 355.65,-200.9 179.19,-27.2 485.98,2.7 518.56,32.6 32.58,29.8 24.43,130.3 -97.74,219.9 -122.17,89.6 -160.18,165.6 -200.9,255.2 -40.73,89.6 -67.88,304 -67.88,344.8 0,40.7 -32.58,92.3 -32.58,92.3 0,0 -146.6,19 -181.9,38 -35.29,19 -122.17,65.2 -122.17,65.2 L 2977.22,6091 c 0,0 -83.51,81.5 -92.31,146.6 l 71.66,90.9" /><path
         id="path20"
         style="fill:#252323;fill-opacity:1;fill-rule:nonzero;stroke:none"
         d="m 7869.35,5561.6 -75.82,29.9 c 0,0 -40.73,-43.5 -59.73,-108.6 -19.01,-65.2 5.43,-263.4 -27.15,-393.7 -32.58,-130.3 -73.31,-171 -19,-209 54.29,-38 350.22,24.4 502.26,-57 152.04,-81.5 475.11,-111.4 730.32,-127.6 255.2,-16.3 298.64,152 214.48,260.6 -84.16,108.6 -187.33,127.6 -320.36,228 -133.04,100.5 -375.74,469.7 -396.92,505 -21.18,35.3 -135.21,38 -135.21,38 0,0 -310.35,-64.4 -339.37,-76 -29.02,-11.6 -73.5,-89.6 -73.5,-89.6" /><path
         id="path22"
         style="fill:#ffffff;fill-opacity:1;fill-rule:nonzero;stroke:none"
         d="m 2950.07,6240.4 -65.16,-2.8 -86.87,-108.6 c 0,0 19,-60.1 76.01,-77.5 57.02,-17.5 103.17,39.5 103.17,39.5 l -27.15,149.4" /><path
         id="path24"
         style="fill:#ffffff;fill-opacity:1;fill-rule:nonzero;stroke:none"
         d="m 7793.53,5591.5 v -40.7 l 168.33,-130.4 c 0,0 179.18,24.5 181.89,35.3 2.72,10.9 46.16,108.6 46.16,108.6 l -247.06,86.9 -149.32,-59.7" /><path
         id="path26"
         style="fill:#100f0d;fill-opacity:1;fill-rule:nonzero;stroke:none"
         d="m 6474.07,8393.3 c 0,0 59.72,-97.7 211.76,-141.2 152.04,-43.4 423.54,76 423.54,92.3 0,16.3 -521.27,494.2 -521.27,494.2 l -114.03,-445.3" /><path
         id="path28"
         style="fill:#c37140;fill-opacity:1;fill-rule:nonzero;stroke:none"
         d="m 4655.11,8437.3 c 0,0 -114.08,-500.1 -157.52,-543.5 -43.44,-43.5 -559.28,-184.7 -705.89,-374.7 -146.6,-190.1 -428.96,-651.6 -542.98,-809.1 -114.03,-157.4 -363.81,-472.4 -363.81,-472.4 0,0 16.3,-103.1 92.31,-146.6 76.02,-43.4 423.53,-48.8 418.1,-27.1 -5.43,21.7 152.04,401.8 526.7,640.7 374.66,238.9 564.83,483.3 733.09,559.3 168.27,76 625.63,455.2 798.76,841.2 173.14,385.9 -798.76,332.2 -798.76,332.2" /><path
         id="path30"
         style="fill:#c37140;fill-opacity:1;fill-rule:nonzero;stroke:none"
         d="m 6588.1,8545.3 c 0,0 217.19,-195.4 428.96,-282.3 211.76,-86.9 293.21,-217.2 363.8,-342.1 70.59,-124.9 5.43,-575.6 81.44,-819.9 76.03,-244.3 211.77,-662.5 266.07,-879.7 54.3,-217.1 65.16,-629.8 65.16,-629.8 0,0 130.32,-65.2 249.77,-54.3 119.46,10.8 146.61,10.8 146.61,27.1 0,16.3 5.43,86.9 27.15,103.2 21.72,16.3 65.16,59.7 65.16,59.7 0,0 -43.44,488.7 -54.3,1031.7 -10.86,543 -135.75,1145.7 -130.32,1308.6 5.43,162.9 -27.15,261.5 -103.17,372.4 -76.02,110.9 -298.64,534.4 -298.64,534.4 l -749.33,21.7 -238.91,-92.3 -119.45,-358.4" /><path
         id="path32"
         style="fill:#252323;fill-opacity:1;fill-rule:nonzero;stroke:none"
         d="m 5263.2,10722.7 c 0,0 -276.92,-380.1 -347.51,-488.7 -70.59,-108.6 -27.15,-477.8 -54.3,-635.3 -27.15,-157.4 -124.89,-602.7 -168.32,-771 -43.44,-168.3 -86.88,-336.7 -86.88,-336.7 0,0 233.48,-276.9 472.4,-358.3 238.91,-81.5 776.47,21.7 776.47,21.7 l 266.06,635.3 352.95,-396.4 c 0,0 195.47,211.8 515.84,352.9 320.36,141.2 515.83,190.1 515.83,190.1 l 190.05,38 c 0,0 -103.17,336.7 -336.65,608.2 -233.49,271.4 -298.65,358.3 -298.65,358.3 l -86.88,184.6 -119.45,97.8 -304.08,369.2 -591.85,162.9 -695.03,-32.6" /><path
         id="path34"
         style="fill:#878888;fill-opacity:1;fill-rule:nonzero;stroke:none"
         d="m 4175.87,13943.7 c 0,-653.2 -423.91,-1182.7 -946.84,-1182.7 -522.92,0 -946.83,529.5 -946.83,1182.7 0,653.2 423.91,1182.7 946.83,1182.7 522.93,0 946.84,-529.5 946.84,-1182.7" /><path
         id="path36"
         style="fill:#9c9c9b;fill-opacity:1;fill-rule:nonzero;stroke:none"
         d="m 3255.99,12879.9 c -470.34,0 -851.62,476.3 -851.62,1063.8 0,587.5 381.28,1063.7 851.62,1063.7 470.34,0 851.62,-476.2 851.62,-1063.7 0,-587.5 -381.28,-1063.8 -851.62,-1063.8 z m -26.96,2246.5 c -522.92,0 -946.83,-529.5 -946.83,-1182.7 0,-653.2 423.91,-1182.7 946.83,-1182.7 522.93,0 946.84,529.5 946.84,1182.7 0,653.2 -423.91,1182.7 -946.84,1182.7" /><path
         id="path38"
         style="fill:#9a9a9a;fill-opacity:1;fill-rule:nonzero;stroke:none"
         d="m 8195.34,13393.4 1364.26,-189.2 c 0,0 52.94,-19 61.08,-70.6 8.15,-51.6 -54.29,-84.2 -54.29,-84.2 l -1512.23,172 141.18,172" /><path
         id="path40"
         style="fill:#878888;fill-opacity:1;fill-rule:nonzero;stroke:none"
         d="m 9237.88,13240.8 c 0,-525.5 -392.9,-951.6 -877.58,-951.6 -484.67,0 -877.57,426.1 -877.57,951.6 0,525.5 392.9,951.5 877.57,951.5 484.68,0 877.58,-426 877.58,-951.5" /><path
         id="path42"
         style="fill:#ccccc9;fill-opacity:1;fill-rule:nonzero;stroke:none"
         d="m 8445.11,13297.7 c 0,-151.3 -98.45,-274 -219.9,-274 -121.46,0 -219.92,122.7 -219.92,274 0,151.4 98.46,274 219.92,274 121.45,0 219.9,-122.6 219.9,-274" /><path
         id="path44"
         style="fill:#9a9a9a;fill-opacity:1;fill-rule:nonzero;stroke:none"
         d="m 4175.87,13891.7 4019.47,-498.3 c 0,0 76.02,-34.5 81.45,-88.8 5.43,-54.3 -70.59,-100.4 -70.59,-100.4 l -4045.98,524.2 15.65,163.3" /><path
         id="path46"
         style="fill:#c37140;fill-opacity:1;fill-rule:nonzero;stroke:none"
         d="m 5698.95,13604.6 -158.82,-88.2 c 0,0 -168.33,5.4 -380.1,-138.5 -211.76,-143.8 -304.07,-431.6 -304.07,-431.6 0,0 -240.27,-152.1 -236.2,-135.8 4.07,16.3 -4.07,207.7 24.43,346.2 28.52,138.4 40.73,196.8 40.73,196.8 h -338.01 c 0,0 -12.22,-176.5 -57.01,-266.1 -44.8,-89.5 -166.97,-325.7 -207.7,-447.9 -40.72,-122.2 -52.94,-464.3 -77.37,-594.6 -24.43,-130.3 8.14,-187.3 248.41,-207.7 240.28,-20.3 281,137.7 525.34,235.8 244.35,98.2 399.1,191.8 399.1,191.8 l 32.58,-118.1 c 0,0 77.38,-158.8 158.83,-158.8 81.44,0 268.78,32.6 268.78,32.6 0,0 480.54,720.8 431.67,961.1 -48.87,240.2 -65.16,321.7 -65.16,321.7 l -305.43,301.3" /><path
         id="path48"
         style="fill:#c37140;fill-opacity:1;fill-rule:nonzero;stroke:none"
         d="m 6949.18,12810.5 c 24.43,32.6 236.2,191.4 244.35,228.1 8.14,36.6 -16.29,124.2 -32.58,152.7 -16.29,28.5 -122.18,93.6 -132.36,101.8 -10.18,8.1 -32.57,60.4 -32.57,60.4 h 181.22 c 0,0 6.1,188 26.47,206.3 20.36,18.4 65.16,38.7 83.48,40.8 18.33,2 6.11,-40.8 0,-65.2 -6.11,-24.4 8.15,-88.1 22.4,-102.1 14.25,-14 138.46,-132.1 138.46,-132.1 l 18.33,-12.2 c 0,0 30.54,-99.7 8.14,-183.2 -22.4,-83.5 -61.08,-122.2 -71.26,-140.5 -10.18,-18.4 -326.48,-518.6 -326.48,-518.6 l -127.6,363.8" /><path
         id="path50"
         style="fill:#e9eef1;fill-opacity:1;fill-rule:nonzero;stroke:none"
         d="m 5784.47,13649.4 -85.52,-44.8 c 0,0 166.97,-281 166.97,-745.2 0,-464.3 -281,-647.5 -386.88,-684.2 -105.88,-36.6 -268.78,-28.5 -268.78,-28.5 0,0 89.59,-293.2 105.88,-431.7 16.29,-138.4 42.09,-794.1 23.08,-845.7 -19.01,-51.5 -76.02,-146.6 -76.02,-146.6 0,0 720.82,-241.6 969.24,-225.3 248.41,16.3 362.44,61.1 362.44,61.1 0,0 36.65,439.8 109.95,578.3 73.31,138.4 118.1,362.4 146.62,525.3 28.5,162.9 86.87,458.8 114.02,494.1 27.15,35.3 122.17,46.2 141.18,217.2 19,171 -70.59,532.1 -84.16,594.6 -13.58,62.4 -228.06,425.4 -228.06,425.4 0,0 -162.9,93.1 -162.9,85 0,-8.2 -847.06,171 -847.06,171" /><path
         id="path52"
         style="fill:#c37140;fill-opacity:1;fill-rule:nonzero;stroke:none"
         d="m 6064.11,14192.4 -133.03,-450.4 -146.61,-92.6 c 0,0 175.11,-183.2 350.23,-476.4 175.11,-293.2 199.55,-370.6 415.38,-403.2 215.84,-32.6 313.58,24.4 325.8,187.3 12.22,162.9 -227.64,464.3 -227.64,464.3 l 32.16,228 c 0,0 -105.88,676 -142.53,692.3 -36.65,16.3 -355.97,40.8 -355.97,40.8 l -117.79,-190.1" /><path
         id="path54"
         style="fill:#a45634;fill-opacity:1;fill-rule:nonzero;stroke:none"
         d="m 6485,14313.5 -90.21,-191.6 c 0,0 24.98,-214.5 71.13,-285.1 46.16,-70.6 214.48,-187.4 214.48,-187.4 l 51.59,219.9 -200.91,342.1 13.35,190 -59.43,-87.9" /><path
         id="path56"
         style="fill:#a45634;fill-opacity:1;fill-rule:nonzero;stroke:none"
         d="m 6004.73,13373.1 c 6.26,-9 148.97,-8.7 282,-14.2 133.04,-5.4 133.04,-5.4 133.04,-5.4 0,0 -122.17,55.7 -191.41,67.9 -69.22,12.2 -267.1,11.9 -267.1,11.9 l 43.47,-60.2" /><path
         id="path58"
         style="fill:#b05d37;fill-opacity:1;fill-rule:nonzero;stroke:none"
         d="m 7049.85,13535.4 c 8.14,14.3 76.48,93.7 98.88,101.8 22.4,8.2 42.76,2.1 50.9,0 8.15,-2 34.62,14.4 69.24,4.1 34.61,-10.2 54.97,-39 54.97,-39 0,0 42.76,-20.1 67.2,-42.5 24.43,-22.4 30.54,-105.8 24.43,-136.4 -6.1,-30.5 -42.76,-18.3 -42.76,-18.3 l -59.05,-11.7 -30.54,54.5 -49.36,67.3 -183.91,20.2" /><path
         id="path60"
         style="fill:#a45634;fill-opacity:1;fill-rule:nonzero;stroke:none"
         d="m 5299.85,12851.2 109.96,-248.4 -232.13,-338 32.58,-118.1 c 0,0 281,439.8 285.07,452.1 4.07,12.2 -195.48,252.4 -195.48,252.4" /><path
         id="path62"
         style="fill:#a45634;fill-opacity:1;fill-rule:nonzero;stroke:none"
         d="m 4619.76,12810.5 c 0,0 0,-177.8 -32.58,-363.8 -32.58,-186 -61.08,-267.4 -61.08,-267.4 0,0 80.09,126.2 123.53,289.1 43.44,162.9 57.01,279.7 70.58,309.5 13.58,29.9 73.75,129.6 73.75,129.6 l -174.2,-97" /><path
         id="path64"
         style="fill:#b05d37;fill-opacity:1;fill-rule:nonzero;stroke:none"
         d="m 4415.74,13862 c 0,0 87.96,1.2 100.17,-23.2 12.22,-24.4 22.41,-97.7 38.69,-114 16.29,-16.3 50.91,-18.4 50.91,-18.4 0,0 4.36,-39.1 35.78,-48 31.42,-9 61.96,25.7 61.96,25.7 0,0 20.36,-10.2 50.9,0 30.54,10.1 48.87,57 48.87,57 0,0 23.06,21.7 38.85,36.6 15.78,14.9 -12.38,215.9 -38.85,228.1 -26.47,12.2 -67.19,-16.3 -67.19,-16.3 0,0 -32.58,10.2 -59.05,6.1 -26.48,-4.1 -50.91,-22.4 -50.91,-22.4 0,0 -46.83,-5.6 -69.23,-9.9 -22.4,-4.4 -24.44,-14.5 -32.58,-16.6 -8.15,-2 -114.43,-31.8 -108.32,-84.7" /><path
         id="path66"
         style="fill:#ccccc9;fill-opacity:1;fill-rule:nonzero;stroke:none"
         d="m 3327.64,13913.5 c -12.54,-101.6 -91.47,-175.4 -176.3,-164.9 -84.82,10.4 -143.41,101.3 -130.87,202.8 12.54,101.6 91.47,175.4 176.3,165 84.82,-10.5 143.42,-101.3 130.87,-202.9" /><path
         id="path68"
         style="fill:#5b5c5e;fill-opacity:1;fill-rule:nonzero;stroke:none"
         d="m 3229.03,15126.4 c -23.1,0 -46,-1.1 -68.69,-3.2 434.21,-107.6 761.56,-586 761.56,-1159.9 0,-624.4 -387.29,-1135.6 -878.15,-1179.6 59.93,-14.8 121.87,-22.7 185.28,-22.7 522.93,0 946.84,529.5 946.84,1182.7 0,653.2 -423.91,1182.7 -946.84,1182.7" /><path
         id="path70"
         style="fill:#9a9a9a;fill-opacity:1;fill-rule:nonzero;stroke:none"
         d="m 1646.9,14239.9 1523.09,-231.1 c 0,0 63.79,1.1 59.04,-65.1 -4.75,-66.2 -67.19,-90.6 -67.19,-90.6 l -1536.66,222.6 21.72,164.2" /><path
         id="path72"
         style="fill:#ccccc9;fill-opacity:1;fill-rule:nonzero;stroke:none"
         d="m 1692.3,14147.1 c -7.56,-46.2 -46.6,-78.2 -87.19,-71.5 -40.58,6.6 -67.36,49.4 -59.8,95.6 7.57,46.1 46.6,78.2 87.19,71.5 40.59,-6.6 67.36,-49.4 59.8,-95.6" /><path
         id="path74"
         style="fill:#5b5c5e;fill-opacity:1;fill-rule:nonzero;stroke:none"
         d="m 8360.3,14192.3 c -15.41,0 -30.72,-0.4 -45.93,-1.3 417.21,-25.9 748.89,-441.4 748.89,-950.2 0,-508.8 -331.68,-924.3 -748.89,-950.2 15.21,-0.9 30.52,-1.3 45.93,-1.3 484.68,0 877.58,426 877.58,951.5 0,525.5 -392.9,951.5 -877.58,951.5" /><path
         id="path76"
         style="fill:#c37140;fill-opacity:1;fill-rule:nonzero;stroke:none"
         d="m 7028.59,13293.1 c 10.18,-8.2 116.07,-73.3 132.36,-101.8 16.29,-28.5 40.72,-116.1 32.58,-152.7 -1.75,-7.9 -12.89,-21.4 -29.48,-38 h 263.55 c 15.26,23.1 33.85,56.5 46.92,105.2 22.4,83.5 -8.14,183.2 -8.14,183.2 l -18.33,12.2 c 0,0 -124.21,118.1 -138.46,132.1 -14.25,14 -28.51,77.7 -22.4,102.1 6.11,24.4 18.33,67.2 0,65.2 -18.32,-2.1 -63.12,-22.4 -83.48,-40.8 -20.37,-18.3 -26.47,-206.3 -26.47,-206.3 h -181.22 c 0,0 22.39,-52.3 32.57,-60.4" /><path
         id="path78"
         style="fill:#c37140;fill-opacity:1;fill-rule:nonzero;stroke:none"
         d="m 4346.91,13353.5 c 0,0 26.47,41.4 20.36,71.9 -6.11,30.6 -69.23,279 -69.23,279 l 405.21,-20.3 c 0,0 63.12,22.3 99.77,57 36.65,34.6 71.27,67.2 71.27,67.2 0,0 -52.94,42.7 -65.16,67.1 -12.22,24.5 -22.4,81.5 -2.04,87.6 20.37,6.1 154.76,-99.8 169.01,-122.2 14.25,-22.4 10.18,-211.7 -10.18,-236.2 -20.36,-24.4 -132.36,-105.8 -179.19,-150.6 -46.83,-44.8 -101.81,-100.5 -101.81,-100.5 h -338.01" /><path
         id="path80"
         style="fill:#100f0d;fill-opacity:1;fill-rule:nonzero;stroke:none"
         d="m 6664.11,9598.7 c 0,0 -347.51,-472.4 -396.38,-532.1 -48.87,-59.7 -146.61,-276.9 -146.61,-276.9 l 352.95,-396.4 c 0,0 72.04,68.9 86.87,81.5 14.83,12.6 -217.19,347.5 -222.62,396.3 -5.43,48.9 325.79,727.6 325.79,727.6" /><path
         id="path82"
         style="fill:#2f1d16;fill-opacity:1;fill-rule:nonzero;stroke:none"
         d="m 7198.92,14816.9 c 99.08,124.3 8.83,227.5 -30.92,267 -39.76,39.6 -38.16,83.7 -180.5,165.2 -142.35,81.6 -210.64,31.8 -261.51,46.2 -50.86,14.3 -174.27,4.3 -273.74,-2.9 -99.48,-7.1 -150.34,-76.1 -186.06,-92.3 0,0 -201.8,3.1 -266.54,-298.1 -64.75,-301.2 48.84,-744.9 51.8,-752.4 0,0 388.19,209.8 456.29,253.8 94.63,-30.6 245.35,-77.5 252.65,-68.4 10.68,13.4 371.96,426.6 371.96,426.6 l 58.45,42.8 c 0,0 5.53,2.5 13.78,7.7 l -5.66,4.8" /><path
         id="path84"
         style="fill:#c37140;fill-opacity:1;fill-rule:nonzero;stroke:none"
         d="m 7198.92,14816.9 c 0,0 23.84,-199.9 22.36,-244.5 -1.49,-44.7 -58.65,-167 -61.36,-188 -2.71,-21 59.5,-261.8 53.03,-274 -6.48,-12.2 -94.13,-3.5 -99.01,-9.9 -4.88,-6.4 -33.6,-82.3 -33.55,-90.5 0.03,-8.1 -6.6,-23.7 -6.6,-23.7 0,0 -2.46,-34.3 -13.47,-48.7 -11.01,-14.4 -20.96,-42 -26.12,-52.2 -5.15,-10.2 -35.63,-128.7 -54.85,-142 -19.21,-13.3 -323.86,72.2 -360,93.1 -36.15,20.9 -149.37,254.4 -157.99,301.8 -8.61,47.4 23.64,175.2 23.64,175.2 0,0 -98.65,47.5 -115.87,142.3 -17.23,94.8 35.44,240.2 126.91,239.7 91.49,-0.5 100.73,-124.2 102.44,-157.2 1.71,-33.1 6.8,-76.5 10.32,-80.5 3.53,-4.1 41.25,65.5 71.74,108.3 30.48,42.8 52.9,184.8 80.25,233.1 27.35,48.4 110.71,85.8 145.64,88.6 34.92,2.7 292.49,-70.9 292.49,-70.9" /><path
         id="path86"
         style="fill:#2f1d16;fill-opacity:1;fill-rule:nonzero;stroke:none"
         d="m 6608.8,14457.8 c 0,0 30.36,-2.6 36.56,12.8 6.21,15.4 61.18,128.8 61.18,128.8 0,0 48.27,24.6 54.19,84.7 5.91,60 2.96,71.9 39.01,91.8 36.05,19.8 43.1,96.7 74.89,104.3 31.8,7.6 204.58,-27.3 204.58,-27.3 0,0 109.33,77.5 -16.56,113.8 -125.88,36.4 -262.8,50.1 -338.25,11 -75.45,-39 -84.61,32.8 -90.82,-83 -6.22,-115.9 -24.78,-436.9 -24.78,-436.9" /><path
         id="path88"
         style="fill:#2f1d16;fill-opacity:1;fill-rule:nonzero;stroke:none"
         d="m 6151.73,15160.4 c 0,0 48.97,42.6 75.96,55.2 26.99,12.6 60.29,53.6 88.26,62.3 27.98,8.6 64.82,15.3 70.93,17.7 6.1,2.3 66.78,40.9 116.23,37.4 49.44,-3.6 80.37,-6.7 93.18,-7.7 12.8,-1 88.45,21.3 142.04,11.2 53.58,-10 54.57,-14 79.78,-17.7 25.22,-3.8 98.88,-7.2 190.49,-55.4 91.61,-48.3 159.4,-179.5 159.4,-179.5 l -345.19,-95.5 -430.45,-19.6 -240.63,191.6" /><g
         transform="scale(1.0068)"
         id="g90"><path
           id="path92"
           style="fill:#100f0d;fill-opacity:1;fill-rule:nonzero;stroke:none"
           d="m 15755.2,7236.41 c 0,0 145.6,-48.57 312.9,32.38 167.1,80.85 231.9,334.33 231.9,334.33 l -641.8,-26.23 -32.4,-140.94 129.4,-199.54" /></g><path
         id="path94"
         style="fill:#252323;fill-opacity:1;fill-rule:nonzero;stroke:none"
         d="m 12047.8,6502.3 c 0,0 -91.2,50.3 -150.1,55.7 -58.9,5.4 -243.5,14.9 -379.3,-27.8 -135.7,-42.8 -146.6,-239.5 -152,-325.8 -5.4,-86.2 59.7,-216.5 0,-406.6 -59.7,-190 -27.2,-380.1 114,-537.5 141.2,-157.5 408.2,-114.1 478.3,-59.8 70.1,54.3 -78.1,162.9 -61,255.2 17.1,92.3 207.2,304.1 266.9,347.6 59.7,43.4 -10.9,114 0,162.8 10.8,48.9 -116.8,536.2 -116.8,536.2" /><g
         transform="scale(1.07942)"
         id="g96"><path
           id="path98"
           style="fill:#252323;fill-opacity:1;fill-rule:nonzero;stroke:none"
           d="m 15158.1,5205.22 c 0,0 -140.9,-18.99 -171,-64.76 -30.2,-45.86 -30.2,-234.57 -60.4,-348.99 -30.2,-114.41 -45.3,-184.82 -45.3,-220.02 0,-35.21 487.9,-50.31 533.2,-75.51 45.3,-25.1 125.8,-115.7 402.5,-130.81 276.6,-15 422.5,-5 452.7,35.3 30.2,40.21 10,176.02 -40.3,226.33 -50.2,50.3 -337,206.22 -392.3,276.63 -55.4,70.5 -291.8,442.73 -291.8,442.73 l -130.8,-95.6 -256.5,-45.3" /></g><path
         id="path100"
         style="fill:#ffffff;fill-opacity:1;fill-rule:nonzero;stroke:none"
         d="m 12018,6373.4 -55.7,100.4 c 0,0 -161.5,-57 -183.2,-127.6 -21.8,-70.5 183.2,-198.2 183.2,-198.2 l 55.7,225.4" /><g
         transform="scale(1.02079)"
         id="g102"><path
           id="path104"
           style="fill:#ffffff;fill-opacity:1;fill-rule:nonzero;stroke:none"
           d="m 15927.6,5440.42 c 0,0 90.5,-111.68 133.1,-117.07 42.5,-5.29 143.7,37.23 143.7,37.23 l 95.6,111.78 -372.4,-31.94" /></g><path
         id="path106"
         style="fill:#c37140;fill-opacity:1;fill-rule:nonzero;stroke:none"
         d="m 13824.2,6310.9 c -8.9,4.1 -46.9,-346.1 -46.9,-346.1 0,0 -405.9,240.3 -699.1,293.2 -293.2,52.9 -431.7,40.7 -562,77.4 -130.4,36.6 -443.9,166.9 -468.4,166.9 -24.4,0 -77.3,-12.2 -85.5,-28.5 -8.1,-16.3 0,-325.8 0,-325.8 0,0 199.6,-228 232.2,-236.2 32.5,-8.1 118,4.1 382.8,-85.5 264.7,-89.6 545.7,-358.3 916.2,-484.6 370.6,-126.2 525.4,-183.2 635.3,-167 110,16.3 289.2,171.1 386.9,334 97.8,162.9 293.2,908.1 293.2,908.1 l -608.1,85.5 -376.6,-191.4" /><g
         transform="scale(1.07309)"
         id="g108"><path
           id="path110"
           style="fill:#c37140;fill-opacity:1;fill-rule:nonzero;stroke:none"
           d="m 14589.7,6910.82 c 20.2,0 384.6,-10.07 551.6,35.41 166.9,45.57 404.7,86.01 404.7,86.01 0,0 -172,-364.27 -192.2,-632.47 -20.3,-268.2 40.4,-384.59 0,-561.65 -40.5,-177.16 -202.5,-662.86 -202.5,-662.86 0,0 187.6,-10.15 263.3,0 75.8,10.07 91,30.38 91,30.38 l 131.5,172.03 c 0,0 425.1,986.69 495.9,1270.08 70.8,283.29 167,622.31 86,834.88 -81,212.56 -865.2,440.22 -865.2,440.22 0,0 -30.4,65.79 -323.9,-151.8 -293.4,-217.6 -464.8,-445.26 -464.8,-445.26 l 24.6,-414.97" /></g><g
         transform="scale(1.01545)"
         id="g112"><path
           id="path114"
           style="fill:#252323;fill-opacity:1;fill-rule:nonzero;stroke:none"
           d="m 13888.6,8401.96 c 0,0 -164.8,-264.71 -224.2,-489.34 -59.4,-224.53 5.9,-507.95 0,-818.06 -5.9,-310.21 -96.8,-844.94 -96.8,-844.94 0,0 133.7,-128.32 401,-138.95 267.4,-10.74 620.3,123 695.2,181.79 74.8,58.79 144.4,155 160.4,197.84 16.1,42.74 37.4,454.48 112.3,561.42 74.8,106.95 58.8,205.33 139,204.25 80.2,-0.99 545.4,-81.25 545.4,-81.25 0,0 80.3,427.79 235.4,684.43 155,256.73 422.3,518.68 433.1,542.81 10.6,24.02 -486.6,82.82 -647,98.87 -160.5,16.05 -198,32.1 -198,32.1 0,0 37.5,21.37 -58.8,48.16 -96.2,26.69 -176.4,58.79 -406.3,53.47 -229.9,-5.41 -1090.7,-232.6 -1090.7,-232.6" /></g><path
         id="path116"
         style="fill:#878888;fill-opacity:1;fill-rule:nonzero;stroke:none"
         d="m 13010.4,11752.7 c 0,-653.1 -423.9,-1182.6 -946.8,-1182.6 -522.9,0 -946.9,529.5 -946.9,1182.6 0,653.2 424,1182.7 946.9,1182.7 522.9,0 946.8,-529.5 946.8,-1182.7" /><path
         id="path118"
         style="fill:#9c9c9b;fill-opacity:1;fill-rule:nonzero;stroke:none"
         d="m 12090.5,10689 c -470.3,0 -851.6,476.2 -851.6,1063.7 0,587.5 381.3,1063.8 851.6,1063.8 470.4,0 851.7,-476.3 851.7,-1063.8 0,-587.5 -381.3,-1063.7 -851.7,-1063.7 z m -26.9,2246.4 c -522.9,0 -946.9,-529.5 -946.9,-1182.7 0,-653.1 424,-1182.6 946.9,-1182.6 522.9,0 946.8,529.5 946.8,1182.6 0,653.2 -423.9,1182.7 -946.8,1182.7" /><g
         transform="scale(1.13272)"
         id="g120"><path
           id="path122"
           style="fill:#9a9a9a;fill-opacity:1;fill-rule:nonzero;stroke:none"
           d="m 15034.5,9889.85 1204.4,-167.07 c 0,0 46.7,-16.77 53.9,-62.32 7.2,-45.53 -48,-74.29 -48,-74.29 l -1335,151.83 124.7,151.85" /></g><g
         transform="scale(1.10874)"
         id="g124"><path
           id="path126"
           style="fill:#878888;fill-opacity:1;fill-rule:nonzero;stroke:none"
           d="m 16300,9966.16 c 0,-473.98 -354.4,-858.22 -791.4,-858.22 -437.2,0 -791.6,384.24 -791.6,858.22 0,473.94 354.4,858.24 791.6,858.24 437,0 791.4,-384.3 791.4,-858.24" /></g><g
         transform="scale(1.0601)"
         id="g128"><path
           id="path130"
           style="fill:#ccccc9;fill-opacity:1;fill-rule:nonzero;stroke:none"
           d="m 16300,10477 c 0,-142.7 -92.9,-258.5 -207.4,-258.5 -114.6,0 -207.6,115.8 -207.6,258.5 0,142.8 93,258.5 207.6,258.5 114.5,0 207.4,-115.7 207.4,-258.5" /></g><g
         transform="scale(1.05011)"
         id="g132"><path
           id="path134"
           style="fill:#9a9a9a;fill-opacity:1;fill-rule:nonzero;stroke:none"
           d="m 12389.6,11142.4 3827.6,-474.5 c 0,0 72.4,-32.8 77.6,-84.5 5.2,-51.8 -67.2,-95.7 -67.2,-95.7 l -3854,492 16,162.7" /></g><path
         id="path136"
         style="fill:#c37140;fill-opacity:1;fill-rule:nonzero;stroke:none"
         d="m 14533.5,11413.7 -158.8,-88.3 c 0,0 -168.4,5.5 -380.1,-138.4 -211.8,-143.9 -304.1,-431.7 -304.1,-431.7 0,0 -240.3,-152 -236.2,-135.7 4.1,16.3 -4.1,207.7 24.5,346.1 28.5,138.5 40.7,196.9 40.7,196.9 h -338 c 0,0 -12.3,-176.5 -57.1,-266.1 -44.8,-89.6 -166.9,-325.8 -207.7,-448 -40.7,-122.1 -52.9,-464.2 -77.3,-594.5 -24.5,-130.4 8.1,-187.4 248.4,-207.7 240.3,-20.4 281,137.6 525.3,235.8 244.4,98.1 399.1,191.8 399.1,191.8 l 32.6,-118.1 c 0,0 77.4,-158.9 158.8,-158.9 81.5,0 268.8,32.6 268.8,32.6 0,0 480.6,720.8 431.7,961.1 -48.9,240.3 -65.2,321.7 -65.2,321.7 l -305.4,301.4" /><g
         transform="scale(1.00193)"
         id="g138"><path
           id="path140"
           style="fill:#c37140;fill-opacity:1;fill-rule:nonzero;stroke:none"
           d="m 15753.3,10599.1 c 24.4,32.5 235.7,191 243.9,227.6 8.1,36.6 -16.3,124 -32.6,152.4 -16.2,28.5 -121.9,93.5 -132.1,101.6 -10.1,8.2 -32.4,60.3 -32.4,60.3 h 180.8 c 0,0 6.1,187.7 26.5,206 20.2,18.3 64.9,38.6 83.2,40.6 18.4,2 6.2,-40.6 0,-65 -6.1,-24.4 8.2,-87.9 22.4,-101.9 14.2,-14 138.2,-131.8 138.2,-131.8 l 18.3,-12.2 c 0,0 30.5,-99.6 8.1,-182.9 -22.3,-83.4 -60.9,-122 -71.1,-140.3 -10.2,-18.3 -325.9,-517.5 -325.9,-517.5 l -127.3,363.1" /></g><path
         id="path142"
         style="fill:#e9eef1;fill-opacity:1;fill-rule:nonzero;stroke:none"
         d="m 14619,11458.5 -85.5,-44.8 c 0,0 167,-281 167,-745.3 0,-464.2 -281,-647.5 -386.9,-684.1 -105.9,-36.7 -268.8,-28.5 -268.8,-28.5 0,0 89.6,-293.3 105.9,-431.7 16.3,-138.5 42.1,-794.1 23.1,-845.7 -19,-51.6 -76,-146.6 -76,-146.6 0,0 517.9,-132.6 766.3,-116.3 248.4,16.3 606.9,245.7 606.9,245.7 0,0 -4.9,146.1 68.4,284.6 73.3,138.5 118.1,362.5 146.6,525.3 28.5,162.9 86.9,458.9 114,494.2 27.2,35.3 122.2,46.1 141.2,217.2 19,171 -70.6,532.1 -84.2,594.5 -13.5,62.5 -228,425.5 -228,425.5 0,0 -162.9,93.1 -162.9,84.9 0,-8.1 -847.1,171.1 -847.1,171.1" /><path
         id="path144"
         style="fill:#c37140;fill-opacity:1;fill-rule:nonzero;stroke:none"
         d="m 14898.7,12001.5 -133.1,-450.5 -146.6,-92.5 c 0,0 175.1,-183.3 350.2,-476.5 175.2,-293.2 199.6,-370.6 415.4,-403.2 215.9,-32.5 313.6,24.5 325.8,187.4 12.2,162.9 -227.6,464.2 -227.6,464.2 l 32.2,228.1 c 0,0 -105.9,676 -142.6,692.3 -36.6,16.3 -355.9,40.7 -355.9,40.7 l -117.8,-190" /><path
         id="path146"
         style="fill:#a45634;fill-opacity:1;fill-rule:nonzero;stroke:none"
         d="m 14839.3,11182.1 c 6.2,-8.9 149,-8.7 282,-14.1 133,-5.4 133,-5.4 133,-5.4 0,0 -122.2,55.6 -191.4,67.8 -69.2,12.2 -267.1,12 -267.1,12 l 43.5,-60.3" /><path
         id="path148"
         style="fill:#b35c36;fill-opacity:1;fill-rule:nonzero;stroke:none"
         d="m 15884.4,11344.5 c 8.1,14.2 76.5,93.6 98.9,101.8 22.4,8.1 42.7,2 50.9,0 8.1,-2.1 34.6,14.3 69.2,4.1 34.6,-10.2 55,-39.1 55,-39.1 0,0 42.8,-20 67.2,-42.4 24.4,-22.4 30.5,-105.9 24.4,-136.4 -6.1,-30.6 -42.7,-18.4 -42.7,-18.4 l -59.1,-11.6 -30.5,54.4 -49.4,67.4 -183.9,20.2" /><path
         id="path150"
         style="fill:#a45634;fill-opacity:1;fill-rule:nonzero;stroke:none"
         d="m 14134.4,10660.3 110,-248.4 -232.2,-338 32.6,-118.1 c 0,0 281,439.8 285.1,452 4.1,12.2 -195.5,252.5 -195.5,252.5" /><path
         id="path152"
         style="fill:#a45634;fill-opacity:1;fill-rule:nonzero;stroke:none"
         d="m 13454.3,10619.6 c 0,0 0,-177.9 -32.6,-363.8 -32.5,-186 -61.1,-267.5 -61.1,-267.5 0,0 80.1,126.3 123.6,289.2 43.4,162.9 57,279.6 70.6,309.5 13.5,29.9 73.7,129.6 73.7,129.6 l -174.2,-97" /><path
         id="path154"
         style="fill:#b35c36;fill-opacity:1;fill-rule:nonzero;stroke:none"
         d="m 13250.3,11671.1 c 0,0 88,1.2 100.2,-23.2 12.2,-24.5 22.4,-97.8 38.7,-114.1 16.2,-16.3 50.9,-18.3 50.9,-18.3 0,0 4.3,-39.1 35.7,-48.1 31.5,-8.9 62,25.7 62,25.7 0,0 20.4,-10.2 50.9,0 30.5,10.2 48.9,57 48.9,57 0,0 23,21.8 38.8,36.7 15.8,14.8 -12.4,215.8 -38.8,228 -26.5,12.2 -67.2,-16.3 -67.2,-16.3 0,0 -32.6,10.2 -59.1,6.1 -26.4,-4 -50.9,-22.4 -50.9,-22.4 0,0 -46.8,-5.6 -69.2,-9.9 -22.4,-4.3 -24.4,-14.5 -32.6,-16.5 -8.1,-2.1 -114.4,-31.8 -108.3,-84.7" /><path
         id="path156"
         style="fill:#ccccc9;fill-opacity:1;fill-rule:nonzero;stroke:none"
         d="m 12162.2,11722.6 c -12.6,-101.6 -91.5,-175.5 -176.3,-165 -84.8,10.5 -143.4,101.3 -130.9,202.9 12.6,101.6 91.5,175.4 176.3,164.9 84.8,-10.5 143.4,-101.3 130.9,-202.8" /><path
         id="path158"
         style="fill:#5b5c5e;fill-opacity:1;fill-rule:nonzero;stroke:none"
         d="m 12063.6,12935.4 c -23.1,0 -46,-1.1 -68.7,-3.1 434.2,-107.6 761.6,-586 761.6,-1160 0,-624.3 -387.3,-1135.6 -878.2,-1179.5 59.9,-14.9 121.9,-22.7 185.3,-22.7 522.9,0 946.8,529.5 946.8,1182.6 0,653.2 -423.9,1182.7 -946.8,1182.7" /><path
         id="path160"
         style="fill:#9a9a9a;fill-opacity:1;fill-rule:nonzero;stroke:none"
         d="m 10481.5,12049 1523,-231.1 c 0,0 63.8,1 59.1,-65.2 -4.8,-66.2 -67.2,-90.6 -67.2,-90.6 l -1536.7,222.6 21.8,164.3" /><path
         id="path162"
         style="fill:#ccccc9;fill-opacity:1;fill-rule:nonzero;stroke:none"
         d="m 10526.9,11956.2 c -7.6,-46.2 -46.6,-78.2 -87.2,-71.6 -40.6,6.7 -67.4,49.5 -59.8,95.6 7.5,46.2 46.6,78.2 87.2,71.6 40.5,-6.7 67.3,-49.5 59.8,-95.6" /><g
         transform="scale(1.10874)"
         id="g164"><path
           id="path166"
           style="fill:#5b5c5e;fill-opacity:1;fill-rule:nonzero;stroke:none"
           d="m 15508.6,10824.4 c -14,0 -27.8,-0.4 -41.5,-1.2 376.3,-23.4 675.4,-398.1 675.4,-857.04 0,-458.91 -299.1,-833.68 -675.4,-857.05 13.7,-0.77 27.5,-1.17 41.5,-1.17 437,0 791.4,384.24 791.4,858.22 0,473.94 -354.4,858.24 -791.4,858.24" /></g><g
         transform="scale(1.00193)"
         id="g168"><path
           id="path170"
           style="fill:#c37140;fill-opacity:1;fill-rule:nonzero;stroke:none"
           d="m 15832.5,11080.7 c 10.2,-8.1 115.9,-73.1 132.1,-101.6 16.3,-28.4 40.7,-115.8 32.6,-152.4 -1.8,-7.8 -12.9,-21.3 -29.5,-37.9 h 263 c 15.3,23 33.9,56.3 46.9,105 22.4,83.3 -8.1,182.9 -8.1,182.9 l -18.3,12.2 c 0,0 -124,117.8 -138.2,131.8 -14.2,14 -28.5,77.5 -22.4,101.9 6.2,24.4 18.4,67 0,65 -18.3,-2 -63,-22.3 -83.2,-40.6 -20.4,-18.3 -26.5,-206 -26.5,-206 h -180.8 c 0,0 22.3,-52.1 32.4,-60.3" /></g><path
         id="path172"
         style="fill:#c37140;fill-opacity:1;fill-rule:nonzero;stroke:none"
         d="m 13181.5,11162.6 c 0,0 26.4,41.4 20.3,71.9 -6.1,30.5 -69.2,279 -69.2,279 l 405.2,-20.4 c 0,0 63.1,22.4 99.8,57 36.6,34.6 71.2,67.2 71.2,67.2 0,0 -52.9,42.8 -65.1,67.2 -12.2,24.4 -22.4,81.4 -2.1,87.6 20.4,6.1 154.8,-99.8 169,-122.2 14.3,-22.4 10.2,-211.8 -10.1,-236.2 -20.4,-24.4 -132.4,-105.9 -179.2,-150.7 -46.9,-44.8 -101.8,-100.4 -101.8,-100.4 h -338" /><path
         id="path174"
         style="fill:#100f0d;fill-opacity:1;fill-rule:nonzero;stroke:none"
         d="m 15308.5,7368.1 c 0,0 135.7,194.4 217.2,237.9 81.4,43.4 450.9,331.2 423.6,298.6 -27.2,-32.6 -282.4,-309.5 -363.9,-380.1 -81.4,-70.6 -120.4,-174.8 -120.4,-174.8 l -156.5,18.4" /><path
         id="path176"
         style="fill:#a45634;fill-opacity:1;fill-rule:nonzero;stroke:none"
         d="m 15319.6,12118.9 -90.3,-191.5 c 0,0 25,-214.6 71.2,-285.2 46.1,-70.6 214.5,-187.3 214.5,-187.3 l 51.5,219.9 -200.9,342.1 13.4,190 -59.4,-88" /><path
         id="path178"
         style="fill:#2f1d16;fill-opacity:1;fill-rule:nonzero;stroke:none"
         d="m 16033.5,12622.4 c 99,124.3 8.8,227.4 -31,267 -39.7,39.6 -38.1,83.6 -180.4,165.2 -142.4,81.6 -210.7,31.8 -261.6,46.1 -50.8,14.4 -174.2,4.4 -273.7,-2.8 -99.5,-7.2 -150.3,-76.1 -186.1,-92.3 0,0 -201.8,3.1 -266.5,-298.1 -64.7,-301.2 48.8,-744.9 51.8,-752.5 0,0 388.2,209.9 456.3,253.9 94.6,-30.6 245.3,-77.5 252.6,-68.4 10.7,13.4 372,426.6 372,426.6 l 58.4,42.8 c 0,0 5.6,2.4 13.8,7.6 l -5.6,4.9" /><path
         id="path180"
         style="fill:#c37140;fill-opacity:1;fill-rule:nonzero;stroke:none"
         d="m 16033.5,12622.4 c 0,0 23.8,-199.9 22.3,-244.6 -1.5,-44.6 -58.6,-167 -61.3,-187.9 -2.7,-21 59.5,-261.9 53,-274 -6.5,-12.2 -94.1,-3.5 -99,-9.9 -4.9,-6.4 -33.6,-82.3 -33.6,-90.5 0.1,-8.1 -6.6,-23.8 -6.6,-23.8 0,0 -2.4,-34.2 -13.4,-48.6 -11,-14.5 -21,-42 -26.1,-52.2 -5.2,-10.2 -35.7,-128.7 -54.9,-142 -19.2,-13.4 -323.9,72.2 -360,93.1 -36.1,20.9 -149.4,254.4 -158,301.8 -8.6,47.4 23.7,175.1 23.7,175.1 0,0 -98.7,47.5 -115.9,142.4 -17.2,94.8 35.4,240.2 126.9,239.7 91.5,-0.5 100.7,-124.2 102.4,-157.3 1.7,-33 6.8,-76.4 10.3,-80.5 3.6,-4 41.3,65.5 71.8,108.3 30.5,42.8 52.9,184.9 80.2,233.2 27.4,48.3 110.7,85.8 145.7,88.6 34.9,2.7 292.5,-70.9 292.5,-70.9" /><path
         id="path182"
         style="fill:#2f1d16;fill-opacity:1;fill-rule:nonzero;stroke:none"
         d="m 15443.3,12263.2 c 0,0 30.4,-2.5 36.6,12.9 6.2,15.4 61.2,128.7 61.2,128.7 0,0 48.3,24.6 54.2,84.7 5.9,60.1 2.9,71.9 39,91.8 36,19.9 43.1,96.8 74.9,104.4 31.8,7.6 204.6,-27.3 204.6,-27.3 0,0 109.3,77.4 -16.6,113.8 -125.9,36.4 -262.8,50.1 -338.3,11 -75.4,-39 -84.6,32.8 -90.8,-83.1 -6.2,-115.8 -24.8,-436.9 -24.8,-436.9" /><path
         id="path184"
         style="fill:#2f1d16;fill-opacity:1;fill-rule:nonzero;stroke:none"
         d="m 14986.3,12965.9 c 0,0 49,42.6 75.9,55.2 27,12.6 60.3,53.6 88.3,62.2 28,8.7 64.8,15.4 70.9,17.8 6.1,2.3 66.8,40.9 116.3,37.4 49.4,-3.6 80.3,-6.7 93.1,-7.7 12.8,-1 88.5,21.3 142.1,11.2 53.6,-10.1 54.5,-14 79.8,-17.7 25.2,-3.8 98.8,-7.2 190.4,-55.4 91.7,-48.3 159.4,-179.5 159.4,-179.5 l -345.1,-95.5 -430.5,-19.7 -240.6,191.7" /></g></g></svg>