<?xml version="1.0" encoding="UTF-8" standalone="no"?>
<svg
   xmlns:dc="http://purl.org/dc/elements/1.1/"
   xmlns:cc="http://creativecommons.org/ns#"
   xmlns:rdf="http://www.w3.org/1999/02/22-rdf-syntax-ns#"
   xmlns:svg="http://www.w3.org/2000/svg"
   xmlns="http://www.w3.org/2000/svg"
   viewBox="0 0 2666.6667 2666.6667"
   height="2666.6667"
   width="2666.6667"
   xml:space="preserve"
   id="svg2"
   version="1.1"><metadata
     id="metadata8"><rdf:RDF><cc:Work
         rdf:about=""><dc:format>image/svg+xml</dc:format><dc:type
           rdf:resource="http://purl.org/dc/dcmitype/StillImage" /></cc:Work></rdf:RDF></metadata><defs
     id="defs6" /><g
     transform="matrix(1.3333333,0,0,-1.3333333,0,2666.6667)"
     id="g10"><g
       transform="scale(0.1)"
       id="g12"><g
         transform="scale(1.22699)"
         id="g14"><path
           id="path16"
           style="fill:none;fill-opacity:1;fill-rule:nonzero;stroke:none"
           d="M 16300,0 H 0 V 16300 H 16300 V 0" /></g><path
         id="path18"
         style="fill:#e9a97d;fill-opacity:1;fill-rule:nonzero;stroke:none"
         d="m 6552.12,7992.6 c 0,0 -38.02,-204.1 -54.28,-446.8 -16.27,-242.8 -80.99,-566.4 -97.18,-614.9 -16.18,-48.6 -26.97,-647.3 -124.06,-1057.2 -97.09,-410 -226.54,-1224.5 -226.54,-1224.5 0,0 -156.42,-145.6 -183.39,-161.8 -26.97,-16.2 -258.91,-21.6 -258.91,-21.6 0,0 -13.15,944 -60.51,1251.4 -47.37,307.5 -65.91,512.4 0,841.5 65.9,329 38.93,825.2 33.54,846.8 -5.39,21.6 -107.81,304.1 -107.81,304.1 l -102.56,569.7 c 0,0 -32.36,253.6 501.64,80.9 534,-172.6 598.73,-188.7 598.73,-188.7 l 81.33,-178.9" /><path
         id="path20"
         style="fill:#3067ac;fill-opacity:1;fill-rule:nonzero;stroke:none"
         d="m 5667.09,4403.8 -59.33,62 c 0,0 -118.67,-29.2 -145.64,-63.1 -26.97,-34 -10.79,-141.8 -26.97,-260.5 -16.18,-118.7 -53.94,-242.7 -32.36,-318.2 21.58,-75.6 368.42,-388.4 429.63,-350.6 61.22,37.7 881.09,0 1026.73,53.9 145.63,53.9 37.75,302.1 0,329 -37.76,27 -182.53,43.2 -307.03,151.1 -124.49,107.8 -415.76,388.3 -421.15,431.5 -5.4,43.1 -18.44,238.9 -73.94,253.6 -55.52,14.7 -131.03,-99.9 -136.42,-121.5 -5.4,-21.6 -18.88,-55.7 -18.88,-55.7 l -35.06,-27.9 -199.58,-83.6" /><path
         id="path22"
         style="fill:#ffffff;fill-opacity:1;fill-rule:nonzero;stroke:none"
         d="m 5607.76,4465.8 c 0,0 -10.79,-194.1 0,-199.5 10.78,-5.4 145.63,113.2 194.18,137.5 48.54,24.3 64.73,83.6 64.73,83.6 0,0 -87.42,-14 -131.86,-16.4 -91.26,-4.9 -127.05,-5.2 -127.05,-5.2" /><path
         id="path24"
         style="fill:#cc8b60;fill-opacity:1;fill-rule:nonzero;stroke:none"
         d="m 6406.06,7971.2 -695.82,-107.2 -189.12,-287.9 -48.14,133.5 -70.19,389.9 215.75,220.3 h 184.88 l 602.64,-348.6" /><path
         id="path26"
         style="fill:#fbc295;fill-opacity:1;fill-rule:nonzero;stroke:none"
         d="m 4487.14,8247.8 c 0,0 47.16,-704.7 0,-1004.1 -47.16,-299.4 -241.34,-720.1 -217.07,-1173.2 24.27,-453.1 89,-801 161.81,-1124.6 72.82,-323.6 76.22,-542.1 76.22,-542.1 h 328.33 l 105.18,129.5 c 0,0 -16.18,857.6 89,1213.6 105.18,356 97.09,817.2 145.64,946.6 48.54,129.5 80.9,250.8 218.45,728.2 137.54,477.4 152.55,644.2 152.55,644.2 l -411.46,253.9 h -228.18 l -420.47,-72" /><path
         id="path28"
         style="fill:#e9a97d;fill-opacity:1;fill-rule:nonzero;stroke:none"
         d="m 6766.35,12912.1 c 0,0 4.49,-436.3 10.89,-581.9 6.39,-145.7 -1.2,-480.1 -10.89,-534 -9.69,-54 82.01,-415.4 60.43,-722.8 -21.57,-307.5 1.21,-890 3.3,-1068 2.1,-178 50.64,-388.4 50.64,-388.4 0,0 132.15,-350.6 95.74,-350.6 -36.41,0 -791.04,-97.1 -791.04,-97.1 0,0 -478.78,1279.7 -469.4,1492.8 9.37,213.1 130.76,194.2 252.63,861.7 121.86,667.5 158.27,837.4 158.27,837.4 l 639.43,550.9" /><path
         id="path30"
         style="fill:#252323;fill-opacity:1;fill-rule:nonzero;stroke:none"
         d="m 6406.06,10941.2 64.73,-342.5 c 0,0 145.63,-399.1 188.78,-701.2 43.15,-302 151.03,-1175.9 172.61,-1418.6 21.57,-242.7 0,-447.7 0,-447.7 0,0 -307.46,-48.5 -587.94,-70.1 -280.49,-21.6 -625.7,21.6 -625.7,21.6 v 80.9 c 0,0 -323.63,5.4 -598.72,59.3 -275.09,54 -453.09,118.7 -625.69,140.3 -172.61,21.5 -289.93,10.7 -289.93,10.7 l 106.53,1111.2 c 0,0 63.48,1507.6 142.32,1604.7 78.83,97.1 305.38,129.4 305.38,129.4 0,0 299.36,364.1 509.72,331.8 210.37,-32.4 712,-113.3 712,-113.3 l 525.91,-396.5" /><path
         id="path32"
         style="fill:#fbc295;fill-opacity:1;fill-rule:nonzero;stroke:none"
         d="m 5335.96,14423.4 c -17.22,21 -220.4,61.6 -220.4,61.6 0,0 -206.31,-56.6 -457.13,-307.4 0,0 -372.18,-105.2 -509.72,-275.1 -137.55,-169.9 -113.28,-606.8 -113.28,-606.8 0,0 -72.82,-388.4 -62.03,-641.9 10.79,-253.5 70.12,-469.3 75.52,-490.8 5.39,-21.6 -5.4,-458.5 -5.4,-458.5 0,0 -59.33,-550.2 -10.79,-841.5 48.55,-291.2 107.88,-857.6 107.88,-857.6 l 318.24,37.8 c 0,0 94.5,598.7 143.04,760.5 48.55,161.8 24.17,722.8 18.78,1019.4 0,0 161.82,285.9 231.94,485.5 70.12,199.6 64.73,329 64.73,329 0,0 255.71,-183.4 322.04,-151 66.32,32.4 349.5,356 349.5,356 0,0 197.63,396.4 127.14,574.5 -70.5,177.9 -380.06,1006.3 -380.06,1006.3" /><path
         id="path34"
         style="fill:#db986b;fill-opacity:1;fill-rule:nonzero;stroke:none"
         d="m 5239.38,12799.4 c 0,0 -115.73,83.7 -200.68,213.1 -84.95,129.4 -97.09,226.5 -93.05,238.7 4.05,12.1 36.42,129.4 36.42,129.4 0,0 -97.1,-133.5 -109.23,-186 -12.14,-52.7 0,-438.6 0,-631.1 0,-192.6 -20.23,-254.9 -20.23,-254.9 0,0 48.55,144.3 64.73,329 0,0 170.76,33.7 322.04,161.8" /><path
         id="path36"
         style="fill:#e9a97d;fill-opacity:1;fill-rule:nonzero;stroke:none"
         d="m 6427.63,14088.6 c 0,0 237.34,-101.2 302.06,-210.4 64.73,-109.2 44.93,-458.5 43.91,-679.6 -1.03,-221.1 -480.82,226.5 -480.82,226.5 l 134.85,663.5" /><path
         id="path38"
         style="fill:#3a70c0;fill-opacity:1;fill-rule:nonzero;stroke:none"
         d="m 5239.38,14537.6 -123.82,-52.6 c 0,0 249.47,-428.8 308.81,-784.8 59.33,-356 -67.93,-798.3 -184.99,-900.8 -117.08,-102.4 -322.04,-161.8 -322.04,-161.8 0,0 4.04,-134.8 -64.73,-329 -24.11,-68.1 -120.82,-262.4 -120.82,-262.4 l -73.36,-927 c 0,0 1035.63,-258.9 1310.72,-283.1 275.09,-24.3 428.82,80.9 436.91,105.1 8.09,24.3 56.64,639.2 80.91,744.4 24.27,105.2 156.42,795.6 172.6,844.2 16.18,48.5 124.06,307.4 113.27,512.4 -10.78,204.9 -302.05,970.9 -345.21,1046.4 -43.15,75.5 -350.6,302 -350.6,302 l -837.65,147" /><path
         id="path40"
         style="fill:#fbc295;fill-opacity:1;fill-rule:nonzero;stroke:none"
         d="m 5457.55,15304.4 c 0,0 -38.58,-471.5 -74.99,-568.5 -36.41,-97.1 -143.18,-198.3 -143.18,-198.3 0,0 232.18,-258.9 377.82,-513.7 145.63,-254.9 291.27,-441 509.72,-449.1 218.46,-8.1 222.5,169.9 218.46,339.8 -4.05,169.9 -178,364.1 -178,392.4 0,28.4 20.22,509.8 20.22,509.8 l -473.31,505.6 -256.74,-18" /><path
         id="path42"
         style="fill:#db986b;fill-opacity:1;fill-rule:nonzero;stroke:none"
         d="m 5505.27,15267.2 c 0,0 -13.48,-272.4 160.47,-482.8 173.96,-210.4 506.75,-335.9 506.75,-335.9 l 12.93,315.9 -569.74,551.1 -110.41,-48.3" /><g
         transform="scale(1.01845)"
         id="g44"><path
           id="path46"
           style="fill:#252323;fill-opacity:1;fill-rule:nonzero;stroke:none"
           d="m 5332.7,15235.5 -92.52,26.8 c 0,0 -110.06,211.5 -94.18,306.8 15.89,95.4 39.73,233.1 63.56,287.3 23.83,54.3 83.41,197.3 123.14,237.1 39.72,39.7 103.27,51.6 178.74,71.5 75.47,19.8 107.25,63.5 214.5,83.4 107.25,19.8 428.99,51.6 484.6,47.6 55.61,-3.9 170.8,-15.9 214.49,-47.6 43.7,-31.8 132.41,-255.6 -5.29,-392 -137.7,-136.3 -256.87,-271.4 -427.67,-509.7 -170.8,-238.3 -337.63,-401.2 -337.63,-401.2 h -55.61 l -266.13,290" /></g><path
         id="path48"
         style="fill:#fbc295;fill-opacity:1;fill-rule:nonzero;stroke:none"
         d="m 5564.6,15469.4 c 0,0 -86.29,242.8 -167.2,215.8 -80.92,-27 -78.22,-180.7 -13.49,-285.9 64.73,-105.2 121.36,-132.1 121.36,-132.1 0,0 47.2,-183.4 91.7,-268.4 44.5,-84.9 436.91,-327.7 627.04,-347.9 190.14,-20.2 262.96,153.7 319.59,477.4 56.64,323.6 45.85,527.2 56.64,597.3 10.79,70.2 -62.03,423.5 -62.03,423.5 0,0 -107.88,-9.5 -204.97,-21.6 -97.09,-12.1 -242.73,-8.1 -250.82,-20.2 -8.09,-12.2 -105.18,-93.1 -133.5,-129.5 -28.31,-36.4 -117.31,-145.6 -137.54,-153.7 -20.23,-8.1 -32.37,-40.5 -68.77,-89 -36.41,-48.6 -60.69,-194.2 -76.87,-226.6 -16.18,-32.3 -101.14,-39.1 -101.14,-39.1" /><path
         id="path50"
         style="fill:#2d609f;fill-opacity:1;fill-rule:nonzero;stroke:none"
         d="m 5239.38,12799.4 c 0,0 155.32,-89.9 313.09,-114.4 0,0 -141.59,-40.6 -287.23,-40.6 -145.63,0 -219.25,36.2 -219.25,36.2 l 193.39,118.8" /><path
         id="path52"
         style="fill:#100f0d;fill-opacity:1;fill-rule:nonzero;stroke:none"
         d="m 5618.54,8063.6 c 0,0 26.98,302 134.85,517.8 107.88,215.8 161.82,469.3 178,587.9 16.18,118.7 43.16,296.7 43.16,296.7 0,0 165.26,-38.6 318.23,-151 152.98,-112.5 226.55,-226.6 199.58,-194.2 -26.97,32.4 -409.94,151 -409.94,151 0,0 -48.54,-75.5 -48.54,-134.8 0,-59.4 -124.06,-485.5 -183.4,-652.7 -59.33,-167.2 -119.27,-513.1 -119.27,-513.1 l -112.67,11.5 v 80.9" /><path
         id="path54"
         style="fill:#3a70c0;fill-opacity:1;fill-rule:nonzero;stroke:none"
         d="m 4941.61,4533.3 c 0,0 137.55,-24.3 207.67,-94.4 70.11,-70.2 102.48,-296.7 102.48,-296.7 0,0 307.45,-345.2 436.91,-388.4 129.45,-43.1 204.97,-188.7 204.97,-242.7 0,-53.9 -420.73,-113.3 -668.85,-107.9 -248.12,5.4 -884.6,43.2 -911.57,140.3 -26.97,97.1 32.36,221.1 37.76,323.6 5.39,102.5 43.15,356 53.94,410 10.78,53.9 103.18,126.7 103.18,126.7 h 328.33 c 0,0 -5.39,116 105.18,129.5" /><path
         id="path56"
         style="fill:#838585;fill-opacity:1;fill-rule:nonzero;stroke:none"
         d="m 4187.89,9700.8 c 0,0 -665.27,-66.7 -699.46,-88.9 -34.2,-22.2 -94.16,-374.6 -99.62,-444.5 -5.46,-69.9 166.31,-364.7 230,-380.5 63.69,-15.8 578.37,46.8 620.61,76 42.25,29.2 191.88,282.6 191.88,282.6 l -243.41,555.3" /><path
         id="path58"
         style="fill:#b0b0ae;fill-opacity:1;fill-rule:nonzero;stroke:none"
         d="m 4187.9,9700.8 c 0,0 -231.71,-23.2 -428.66,-46.8 -40.83,-128.2 -116.85,-375.7 -118.44,-446.8 -1.52,-67.7 139.6,-282.8 225.5,-407.3 162.93,17.6 348.47,46 373.12,63 42.25,29.2 191.88,282.6 191.88,282.6 l -243.4,555.3" /><path
         id="path60"
         style="fill:#b0b0ae;fill-opacity:1;fill-rule:nonzero;stroke:none"
         d="m 4561.34,9084.4 c 0,0 167.21,-217.1 210.36,-233.3 43.15,-16.2 587.94,82.2 631.09,116.6 43.15,34.4 159.46,358.1 144.46,455.2 -15.01,97 -214.58,404.5 -273.92,431.5 -59.33,26.9 -671.54,-114.7 -671.54,-114.7 l -169.91,-230.5 -37.75,-70.2 -41.08,-151 84.23,-118.7 124.06,-84.9" /><path
         id="path62"
         style="fill:#838585;fill-opacity:1;fill-rule:nonzero;stroke:none"
         d="m 4851.76,9325.8 c -15.85,110.5 61.17,355.7 107.71,490 -175.31,-33.9 -357.68,-76.1 -357.68,-76.1 l -169.91,-230.5 -37.75,-70.2 -41.08,-151 84.23,-118.7 124.06,-84.9 c 0,0 167.21,-217.1 210.36,-233.3 21.97,-8.2 174,13.2 323.64,40.8 -83.61,114 -227.76,323.5 -243.58,433.9" /><path
         id="path64"
         style="fill:#fbc295;fill-opacity:1;fill-rule:nonzero;stroke:none"
         d="m 4140.61,10005.4 c 0,0 -36.41,-512.4 -36.41,-552.9 0,-40.4 4.05,-262.9 18.21,-275.1 14.16,-12.1 54.61,-28.3 86.97,-52.6 32.37,-24.2 113.28,-24.2 157.78,-40.4 44.5,-16.2 161.81,8.1 194.18,0 32.36,-8.1 -80.91,157.7 -76.87,202.3 4.05,44.5 121.37,428.8 117.32,453 -4.04,24.3 -142.94,303.5 -142.94,303.5 l -318.24,-37.8" /><path
         id="path66"
         style="fill:#ffffff;fill-opacity:1;fill-rule:nonzero;stroke:none"
         d="m 4508.1,4403.8 v -261.6 c 0,0 306.75,59.3 312.14,75.5 5.4,16.2 16.19,186.1 16.19,186.1 H 4508.1 v 0" /><path
         id="path68"
         style="fill:#b0b0ae;fill-opacity:1;fill-rule:nonzero;stroke:none"
         d="m 6988.12,9638.6 183.39,89 c 0,0 253.52,8.1 285.88,0 32.37,-8.1 186.49,-364.9 194.58,-395.4 8.09,-30.5 -101.54,-373.2 -125.81,-397.5 -24.27,-24.3 -354.65,-35.1 -354.65,-35.1 l -183.39,103.9 -49.79,384.3 49.79,250.8" /><path
         id="path70"
         style="fill:#838585;fill-opacity:1;fill-rule:nonzero;stroke:none"
         d="m 6869.45,9704 c 0,0 -138.98,-325.9 -161.81,-350.5 -22.84,-24.5 118.66,-464.7 161.81,-475.4 43.16,-10.8 302.06,21.5 302.06,21.5 0,0 -167.21,423.7 -167.21,453.9 0,30.2 167.21,374.1 167.21,374.1 L 6869.45,9704" /><path
         id="path72"
         style="fill:#b0b0ae;fill-opacity:1;fill-rule:nonzero;stroke:none"
         d="m 14782.5,6435.6 c 0,0 156.1,-225.3 198.3,-243.7 42.3,-18.3 591.4,52.5 636.2,84.7 44.8,32.1 177.4,349.5 167.3,447.2 -10.1,97.7 -193.9,414.9 -251.8,444.8 -57.9,29.9 -676.5,-80.6 -676.5,-80.6 l -181.3,-221.7 -41.3,-68.1 -48.6,-148.8 78.1,-122.7 119.6,-91.1" /><path
         id="path74"
         style="fill:#838585;fill-opacity:1;fill-rule:nonzero;stroke:none"
         d="m 15084.8,6662 c -10.3,111.2 79,352.2 132.3,484 -176.8,-25.1 -361.1,-58 -361.1,-58 l -181.3,-221.7 -41.3,-68.1 -48.6,-148.8 78.1,-122.7 119.6,-91.1 c 0,0 156.1,-225.3 198.3,-243.7 21.6,-9.3 174.5,4.5 325.3,24.5 -77.7,118 -211.1,334.5 -221.3,445.6" /><path
         id="path76"
         style="fill:#838585;fill-opacity:1;fill-rule:nonzero;stroke:none"
         d="m 14511.4,7083.5 c 0,0 -667.9,-31.2 -703.2,-51.5 -35.3,-20.4 -114,-369.1 -123.2,-438.6 -9.1,-69.5 146.7,-373 209.4,-392.2 62.8,-19.1 580.1,16 623.8,42.9 43.8,26.8 206.7,271.9 206.7,271.9 l -213.5,567.5" /><path
         id="path78"
         style="fill:#b0b0ae;fill-opacity:1;fill-rule:nonzero;stroke:none"
         d="m 14511.4,7083.5 c 0,0 -232.6,-10.8 -430.5,-23.9 -47.6,-125.9 -136.7,-369 -142.1,-439.8 -5.1,-67.6 124.3,-289.9 203.5,-418.8 163.6,8.9 350.4,27.4 375.9,43.1 43.8,26.8 206.7,271.9 206.7,271.9 l -213.5,567.5" /><path
         id="path80"
         style="fill:#100f0d;fill-opacity:1;fill-rule:nonzero;stroke:none"
         d="m 14780.1,6191.9 c 0,0 223.9,21.6 353.3,264.3 129.5,242.7 -458.5,200.9 -458.5,200.9 l -59.3,-114.6 128.1,-184.7 36.4,-165.9" /><g
         transform="scale(1.02092)"
         id="g82"><path
           id="path84"
           style="fill:#3a70c0;fill-opacity:1;fill-rule:nonzero;stroke:none"
           d="m 15004.3,4366.55 -55.4,31.35 c 0,0 -182.4,-40.75 -218.1,-88.26 -35.6,-47.6 0,-146.63 -55.4,-285.33 -55.6,-138.7 -214,-340.77 -122.8,-439.8 91.1,-99.12 554.7,-47.6 935.1,-87.27 380.4,-39.58 708.6,-19.79 760.5,0 51.8,19.88 4.3,178.37 -35.4,225.87 -39.5,47.61 -241.7,114.99 -372.5,265.55 -130.7,150.55 -285.2,313.05 -289.2,344.69 -3.9,31.73 17.2,220.58 -72.6,247.03 -89.8,26.44 -237.8,0 -237.8,0 l -122.4,-73.17 -114,-140.66" /></g><path
         id="path86"
         style="fill:#ffffff;fill-opacity:1;fill-rule:nonzero;stroke:none"
         d="m 10230.3,5523 -179.1,63.9 c 0,0 -193.04,-47.7 -263.16,-117.8 -70.12,-70.1 43.15,-501.6 118.67,-577.1 75.51,-75.6 161.79,-107.9 204.99,-70.2 43.1,37.8 296.6,217.8 307.4,289.6 10.8,71.8 -188.8,411.6 -188.8,411.6" /><path
         id="path88"
         style="fill:#fbc295;fill-opacity:1;fill-rule:nonzero;stroke:none"
         d="m 12037.3,5180.5 -56.6,-315.5 c 0,0 -234.7,206.8 -515.2,276 -280.4,69.2 -474.6,74.6 -620.2,139.3 -145.7,64.7 -615,242.7 -615,242.7 0,0 -156.4,-75.5 -178,-221.1 -21.5,-145.6 280.5,-436.9 280.5,-436.9 0,0 280.5,-37.8 453.1,-151 172.6,-113.3 501.6,-490.9 739,-588 237.3,-97.1 366.8,-102.5 587.9,-204.9 221.2,-102.5 447.7,-43.2 528.6,48.5 80.9,91.7 183.4,199.6 280.5,285.9 97.1,86.3 369.5,738.9 345.2,1183.9 -24.3,445 -1229.8,-258.9 -1229.8,-258.9" /><g
         transform="scale(1.01943)"
         id="g90"><path
           id="path92"
           style="fill:#fbc295;fill-opacity:1;fill-rule:nonzero;stroke:none"
           d="m 14462.7,6236.63 c 0,0 266.9,19.81 425.1,63.46 158.3,43.65 443.9,230.13 443.9,230.13 0,0 -169.2,-276.43 -185.1,-551.58 -15.9,-275.16 5.3,-407.39 -37.1,-687.84 -42.3,-280.45 -121.6,-825.46 -121.6,-825.46 h 275 c 0,0 63.6,63.56 121.8,84.65 58.2,21.19 116.4,37.08 116.4,37.08 0,0 513.2,1042.35 613.7,1322.8 100.5,280.46 84.7,677.25 89.9,693.14 5.3,15.89 95.3,354.51 58.3,608.47 -37.1,253.97 -888.9,507.93 -1052.9,523.83 -164,15.89 -809.6,-783.09 -809.6,-783.09 l -116.3,-259.26 178.5,-456.33" /></g><path
         id="path94"
         style="fill:#e9a97d;fill-opacity:1;fill-rule:nonzero;stroke:none"
         d="m 14782.7,11081.9 c 0,0 226.7,-100.2 307.6,-213.5 80.9,-113.2 57,-400.5 62,-515.1 5,-114.6 24.3,-342.5 24.3,-342.5 0,0 -291.3,113.3 -361.4,199.6 -70.2,86.3 -275.1,280.4 -277.8,372.1 -2.7,91.7 245.3,499.4 245.3,499.4" /><path
         id="path96"
         style="fill:#e9a97d;fill-opacity:1;fill-rule:nonzero;stroke:none"
         d="m 15151.9,9880.3 c 0,0 3.6,-294.6 -1.7,-488.8 -5.3,-194.2 -70.1,-633.6 -62.8,-671.8 7.4,-38.2 10.9,-286.9 -1.2,-496.9 -12.1,-210 -38.4,-694.8 -38.4,-694.8 l -1042.1,57.5 -394.6,933.4 808.7,1140.5 732.1,220.9" /><path
         id="path98"
         style="fill:#252323;fill-opacity:1;fill-rule:nonzero;stroke:none"
         d="m 12517.4,7594.3 c 0,0 -242.8,-501.6 -280.5,-658.1 -37.8,-156.4 -199.6,-1755.7 -199.6,-1755.7 0,0 323.6,-89 752.5,0 428.8,89 614.9,331.8 857.6,436.9 242.7,105.2 393,695.9 393,695.9 l 739.7,-121.4 c 0,0 -64.7,396.4 97.1,744.3 161.8,348 450.4,672.1 507,760.9 56.7,88.8 229.3,177.7 229.3,177.7 0,0 -626.7,108.7 -914.3,129.4 -287.6,20.8 -493.5,121.4 -517.8,137.6 -24.3,16.2 -768.6,64.7 -873.8,40.4 -105.2,-24.2 -501.7,-194.1 -550.2,-218.4 -48.6,-24.3 -240,-369.5 -240,-369.5" /><path
         id="path100"
         style="fill:#3a70c0;fill-opacity:1;fill-rule:nonzero;stroke:none"
         d="m 13568.5,11535.9 -95.1,-48.5 c 0,0 273.8,-430.2 316.9,-748.4 43.2,-318.3 -36.4,-687.8 -158.4,-841.5 -122.1,-153.7 -348.6,-291.3 -348.6,-291.3 l -178,-351.9 c 0,0 -178,-327.7 -194.2,-376.2 -16.2,-48.6 0,-979 0,-979 0,0 655.4,-186.1 1076.1,-80.9 420.7,105.1 501.6,299.3 501.6,323.6 0,24.3 95,396.5 209.3,566.4 114.4,169.9 219.6,461.1 292.4,663.4 72.8,202.3 194.2,493.5 186.1,639.2 -8.1,145.6 -410,1116.5 -420.8,1132.7 -10.8,16.2 -258.9,210.4 -275,215.8 -16.2,5.4 -912.3,176.6 -912.3,176.6" /><path
         id="path102"
         style="fill:#fbc295;fill-opacity:1;fill-rule:nonzero;stroke:none"
         d="m 13536.4,11381.2 -63,106.2 c 0,0 -281.8,-117.3 -432.8,-273.8 0,0 -399.2,-151 -523.2,-420.7 -124.1,-269.7 -91.7,-496.2 -91.7,-496.2 0,0 -86.3,-376.1 -70.2,-635.8 16.2,-259.6 37.8,-475.4 59.4,-648 21.6,-172.6 -21.6,-697.1 -21.6,-1057.2 0,-360 121.4,-962.8 121.4,-962.8 l 319.3,16.6 c 0,0 85.2,776.3 121.6,1132.3 36.4,356 36.4,699.9 36.4,699.9 0,0 182.1,279.1 238.7,461.1 56.6,182.1 52.6,303.4 52.6,303.4 0,0 327.7,97.9 465.2,546.6 137.6,448.6 -6.4,738.8 -47.7,893.1 -41.3,154.3 -164.4,335.3 -164.4,335.3" /><path
         id="path104"
         style="fill:#b0b0ae;fill-opacity:1;fill-rule:nonzero;stroke:none"
         d="m 12936.4,6050.7 c 0,0 167.3,-217.1 210.4,-233.3 43.2,-16.2 587.9,82.3 631.1,116.7 43.1,34.3 159.5,358 144.5,455.1 -15.1,97.1 -214.6,404.5 -274,431.5 -59.3,26.9 -671.5,-114.6 -671.5,-114.6 l -169.9,-230.6 -37.8,-70.1 -41,-151.1 84.2,-118.6 124,-85" /><path
         id="path106"
         style="fill:#838585;fill-opacity:1;fill-rule:nonzero;stroke:none"
         d="m 13226.9,6292.1 c -15.9,110.6 61.1,355.7 107.7,490.1 -175.3,-34 -357.7,-76.1 -357.7,-76.1 l -169.9,-230.6 -37.8,-70.1 -41,-151.1 84.2,-118.6 124,-85 c 0,0 167.3,-217.1 210.4,-233.3 22,-8.2 174,13.3 323.6,40.9 -83.6,113.9 -227.7,323.4 -243.5,433.8" /><path
         id="path108"
         style="fill:#838585;fill-opacity:1;fill-rule:nonzero;stroke:none"
         d="m 12632.9,6684.2 c 0,0 -665.4,-65 -699.7,-87.1 -34.2,-22.1 -95.2,-374.3 -100.8,-444.2 -5.7,-69.9 165.3,-365.1 228.9,-381.1 63.7,-15.9 578.5,45.3 620.8,74.3 42.4,29 192.7,282.1 192.7,282.1 l -241.9,556" /><path
         id="path110"
         style="fill:#b0b0ae;fill-opacity:1;fill-rule:nonzero;stroke:none"
         d="m 12632.9,6684.2 c 0,0 -231.7,-22.7 -428.7,-45.7 -41.2,-128.1 -117.9,-375.4 -119.7,-446.4 -1.7,-67.7 138.8,-283.2 224.4,-408 162.9,17.2 348.5,45.1 373.2,62 42.4,29 192.7,282.1 192.7,282.1 l -241.9,556" /><path
         id="path112"
         style="fill:#fbc295;fill-opacity:1;fill-rule:nonzero;stroke:none"
         d="m 12514.7,6992.9 c 0,0 -35.4,-533.6 -35.4,-574.1 0,-40.4 4,-262.9 18.2,-275.1 14.2,-12.1 54.6,-28.3 87,-52.5 32.4,-24.3 113.3,-24.3 157.8,-40.5 44.5,-16.2 161.8,8.1 194.1,0 32.4,-8.1 -80.9,157.8 -76.8,202.3 4,44.5 121.3,428.8 117.3,453.1 -4,24.2 -142.9,303.4 -142.9,303.4 l -319.3,-16.6" /><path
         id="path114"
         style="fill:#db986b;fill-opacity:1;fill-rule:nonzero;stroke:none"
         d="m 13283.3,9606.2 c 0,0 4,497.6 0,517.9 -4,20.2 113.3,222.5 113.3,222.5 0,0 -44.5,-194.2 -40.5,-218.5 4.1,-24.3 68.8,-141.6 133.5,-206.3 64.7,-64.7 97.1,-85.8 97.1,-85.8 0,0 -137.5,-193.4 -303.4,-229.8" /><path
         id="path116"
         style="fill:#2d609f;fill-opacity:1;fill-rule:nonzero;stroke:none"
         d="m 13586.7,9836 c 0,0 32.4,-31.5 129.5,-76 97.1,-44.5 214.4,-68.8 214.4,-68.8 0,0 -72.8,-32.2 -246.8,-30.3 -174,2 -248.9,27.8 -248.9,27.8 l 151.8,147.3" /><path
         id="path118"
         style="fill:#100f0d;fill-opacity:1;fill-rule:nonzero;stroke:none"
         d="m 14432.5,7122.3 c 0,0 -261.6,-444 -392.1,-809 l 739.7,-121.4 -534,283.2 c 0,0 73.4,412.6 186.4,647.2" /><path
         id="path120"
         style="fill:#db986b;fill-opacity:1;fill-rule:nonzero;stroke:none"
         d="m 11897.1,4606.1 c 16.1,32.3 44.4,40.4 83.6,258.9 0,0 -176.5,147.7 -418.7,246.4 0,0 260.9,-214 301.3,-274.7 40.5,-60.7 33.8,-230.6 33.8,-230.6" /><path
         id="path122"
         style="fill:#e9a97d;fill-opacity:1;fill-rule:nonzero;stroke:none"
         d="m 15629.6,6657.1 226.6,141.6 c 0,0 -248.1,-213 -415.3,-703.9 0,0 0,229.2 188.7,562.3" /><path
         id="path124"
         style="fill:#ffffff;fill-opacity:1;fill-rule:nonzero;stroke:none"
         d="m 15564.2,4551.3 c -2.7,0.5 -4.7,0.8 -4.7,0.8 1.8,-0.3 3.2,-0.5 4.7,-0.8" /><path
         id="path126"
         style="fill:#ffffff;fill-opacity:1;fill-rule:nonzero;stroke:none"
         d="m 15564.2,4551.3 c 1.7,-0.3 3.7,-0.7 5.8,-1.1 -1.7,0.3 -3.7,0.7 -5.8,1.1" /><path
         id="path128"
         style="fill:#ffffff;fill-opacity:1;fill-rule:nonzero;stroke:none"
         d="m 15208.9,4302.7 c 0,0 121.4,-16.2 186.1,52.6 64.7,68.7 164.5,196.8 164.5,196.8 h -280.4 l -70.2,-249.4" /><path
         id="path130"
         style="fill:#ffffff;fill-opacity:1;fill-rule:nonzero;stroke:none"
         d="m 15579,4548.6 c -0.2,0 -0.8,0.1 -1.6,0.3 0.8,-0.2 1.3,-0.2 1.6,-0.3" /><path
         id="path132"
         style="fill:#ffffff;fill-opacity:1;fill-rule:nonzero;stroke:none"
         d="m 15577.4,4548.9 c -0.9,0.2 -2.1,0.4 -3.5,0.6 1.6,-0.3 2.7,-0.5 3.5,-0.6" /><path
         id="path134"
         style="fill:#ffffff;fill-opacity:1;fill-rule:nonzero;stroke:none"
         d="m 15579,4548.6 c 0.2,0 0.2,0 0,0 v 0" /><path
         id="path136"
         style="fill:#fbc295;fill-opacity:1;fill-rule:nonzero;stroke:none"
         d="m 13809.5,12281.9 c 0,0 -39.4,-421 -75.8,-518.1 -36.4,-97.1 -165.2,-227.9 -165.2,-227.9 0,0 255,-279.7 400.7,-534.6 145.6,-254.9 291.2,-440.9 509.7,-449 218.4,-8.1 222.5,169.9 218.4,339.8 -4,169.9 -178,364.1 -178,392.4 0,28.3 20.3,509.7 20.3,509.7 l -473.3,505.7 -256.8,-18" /><path
         id="path138"
         style="fill:#db986b;fill-opacity:1;fill-rule:nonzero;stroke:none"
         d="m 13857.2,12244.6 c 0,0 -13.4,-272.4 160.5,-482.7 174,-210.4 506.8,-336 506.8,-336 l 12.9,316 -569.8,551.1 -110.4,-48.4" /><path
         id="path140"
         style="fill:#252323;fill-opacity:1;fill-rule:nonzero;stroke:none"
         d="m 13783.1,12494.1 -94.3,27.3 c 0,0 -112,215.4 -95.9,312.5 16.2,97.1 40.5,237.3 64.8,292.6 24.2,55.3 84.9,200.9 125.4,241.4 40.4,40.4 105.2,52.6 182,72.8 76.9,20.2 109.2,64.7 218.5,85 109.2,20.2 436.9,52.6 493.5,48.5 56.7,-4 174,-16.2 218.5,-48.5 44.5,-32.4 134.8,-260.3 -5.4,-399.2 -140.3,-138.9 -261.6,-276.4 -435.6,-519.2 -173.9,-242.7 -343.8,-408.5 -343.8,-408.5 h -56.7 l -271,295.3" /><path
         id="path142"
         style="fill:#fbc295;fill-opacity:1;fill-rule:nonzero;stroke:none"
         d="m 13916.6,12446.9 c 0,0 -86.3,242.7 -167.2,215.7 -80.9,-26.9 -78.2,-180.7 -13.5,-285.8 64.7,-105.2 121.3,-132.2 121.3,-132.2 0,0 47.2,-183.4 91.7,-268.3 44.5,-85 436.9,-327.7 627.1,-347.9 190.1,-20.3 262.9,153.7 319.6,477.3 56.6,323.7 45.8,527.3 56.6,597.4 10.8,70.1 -62,423.4 -62,423.4 0,0 -107.9,-9.4 -205,-21.6 -97.1,-12.1 -242.7,-8.1 -250.8,-20.2 -8.1,-12.1 -105.2,-93 -133.5,-129.4 -28.3,-36.5 -117.3,-145.7 -137.6,-153.8 -20.2,-8.1 -32.3,-40.4 -68.7,-89 -36.4,-48.5 -60.7,-194.2 -76.9,-226.5 -16.2,-32.4 -101.1,-39.1 -101.1,-39.1" /><path
         id="path144"
         style="fill:#3a70c0;fill-opacity:1;fill-rule:nonzero;stroke:none"
         d="m 10435.3,4886.6 c 0,0 -80.9,-404.6 -75.5,-480.1 5.4,-75.5 91.7,-172.6 107.9,-291.3 16.2,-118.6 -80.9,-188.8 -80.9,-188.8 0,0 -339.8,-26.9 -507.06,27 -167.21,54 -312.85,219.8 -323.64,449.7 -10.78,230 53.94,310.9 53.94,413.3 0,102.5 -80.9,151.1 -107.88,269.7 -26.96,118.7 21.58,323.7 75.52,377.6 53.94,54 350.13,156.4 404.31,161.8 54.21,5.4 69.21,-38.6 69.21,-38.6 0,0 -171.46,-107 -187.64,-241.9 -16.19,-134.8 160.54,-285.7 237.34,-296.6 76.8,-10.9 167.2,-10.8 188.8,-16.2 21.6,-5.4 59.3,-16.2 86.3,-53.9 26.9,-37.8 59.3,-91.7 59.3,-91.7" /></g></g></svg>