<?xml version="1.0" encoding="UTF-8" standalone="no"?>
<svg
   xmlns:dc="http://purl.org/dc/elements/1.1/"
   xmlns:cc="http://creativecommons.org/ns#"
   xmlns:rdf="http://www.w3.org/1999/02/22-rdf-syntax-ns#"
   xmlns:svg="http://www.w3.org/2000/svg"
   xmlns="http://www.w3.org/2000/svg"
   viewBox="0 0 2666.6667 2666.6667"
   height="2666.6667"
   width="2666.6667"
   xml:space="preserve"
   id="svg2"
   version="1.1"><metadata
     id="metadata8"><rdf:RDF><cc:Work
         rdf:about=""><dc:format>image/svg+xml</dc:format><dc:type
           rdf:resource="http://purl.org/dc/dcmitype/StillImage" /></cc:Work></rdf:RDF></metadata><defs
     id="defs6" /><g
     transform="matrix(1.3333333,0,0,-1.3333333,0,2666.6667)"
     id="g10"><g
       transform="scale(0.1)"
       id="g12"><g
         transform="scale(1.22699)"
         id="g14"><path
           id="path16"
           style="fill:none;fill-opacity:1;fill-rule:nonzero;stroke:none"
           d="M 16300,0 H 0 V 16300 H 16300 V 0" /></g><path
         id="path18"
         style="fill:#b8623c;fill-opacity:1;fill-rule:nonzero;stroke:none"
         d="m 9055.04,10554.4 c 6.24,18.7 199.76,395.5 185.85,383.6 -13.92,-12 -1440.23,-566.6 -2121.27,-720.8 -681.03,-154.2 -1204.95,-18.7 -1735.63,-93.6 -530.67,-74.9 -1273.62,-412.1 -1704.41,-549.4 -430.79,-137.4 -739.83,-53.1 -867.82,-206.1 -127.99,-152.9 -74.91,-468.2 -74.91,-468.2 0,0 81.16,-480.7 124.86,-574.4 43.7,-93.6 156.08,-243.5 249.73,-268.5 93.65,-24.9 181.06,-156 249.73,-156 68.68,0 349.63,12.4 387.09,62.4 37.45,49.9 43.7,99.9 18.73,124.9 -24.98,24.9 -87.41,-6.3 -156.09,6.2 -68.67,12.5 -187.3,37.5 -212.27,143.6 -24.97,106.1 237.24,699.2 237.24,699.2 0,0 1766.85,593.2 1798.07,599.4 31.22,6.2 4220.45,824.1 4220.45,824.1 l -599.35,193.6" /><path
         id="path20"
         style="fill:#c37140;fill-opacity:1;fill-rule:nonzero;stroke:none"
         d="m 9192.39,10704.2 -112.38,84.3 c 0,0 -1292.35,-487 -1957.26,-636.8 -664.91,-149.9 -1582.67,-84.3 -1966.64,-149.9 -383.96,-65.5 -1217.43,-421.4 -1582.67,-533.8 -365.23,-112.4 -693,-140.5 -889.67,-252.8 -196.66,-112.4 -252.85,-252.9 -168.56,-412.1 84.28,-159.2 117.58,-598.3 234.12,-802.3 116.54,-203.9 309.04,-243.4 427.67,-246.6 118.62,-3.1 149.84,25 149.84,25 0,0 84.28,-9.3 137.34,6.3 53.08,15.6 156.09,15.6 187.3,43.7 31.22,28.1 28.1,65.5 -43.7,90.5 -71.8,25 -218.51,25 -287.19,109.2 -68.68,84.3 -56.19,421.5 43.7,590 99.89,168.6 452.64,290.3 908.4,330.9 455.76,40.6 780.41,18.8 1317.33,112.4 536.92,93.7 387.08,87.4 942.74,37.5 555.65,-50 1398.49,-106.2 2116.47,-12.5 717.98,93.6 880.3,165.4 880.3,165.4 l -68.68,1077 -268.46,374.6" /><path
         id="path22"
         style="fill:#1e1c1b;fill-opacity:1;fill-rule:nonzero;stroke:none"
         d="m 11290.1,9732.3 -327.7,-152.9 c 0,0 -384,27.1 -608.8,0 -224.7,-27.1 -618.04,-279.9 -824.07,-326.8 0,0 -402.69,974 -449.52,1535.9 0,0 365.24,383.4 758.56,514.8 393.33,131.4 1189.33,-46.8 1189.33,-46.8 0,0 402.7,-859.3 365.3,-869.7 -37.5,-10.4 -103.1,-654.5 -103.1,-654.5" /><g
         transform="scale(1.04886)"
         id="g24"><path
           id="path26"
           style="fill:#b8623c;fill-opacity:1;fill-rule:nonzero;stroke:none"
           d="m 14843.7,7949.59 c 15.8,4 94.2,55.59 94.2,55.59 0,0 163.7,11.82 469.2,-75.42 305.6,-87.33 749.3,-127 785.4,-142.92 36.1,-15.82 55.9,-45.57 55.9,-45.57 0,0 51.6,-17.93 35.7,-49.58 -15.8,-31.75 -551.6,-19.92 -583.3,-31.75 -31.8,-11.92 -480.2,-25.83 -480.2,-25.83 0,0 -362.5,-45.67 -399.5,17.82 -37,63.5 -37,63.5 -37,63.5 l 59.6,234.16" /></g><path
         id="path28"
         style="fill:#b8623c;fill-opacity:1;fill-rule:nonzero;stroke:none"
         d="m 13347.5,9457.6 c 11.2,-12.5 15.4,-711.7 52.9,-919.8 37.4,-208.1 62.4,-274.7 79,-358 16.7,-83.2 99.9,-129 253.9,-137.3 154,-8.3 1394.4,-112.4 1398.5,-99.9 4.2,12.5 504.2,49.7 499.5,91.6 -4.7,41.8 68.6,357.9 36.4,362.1 -32.2,4.1 -515.1,49.9 -893.8,112.3 -378.8,62.5 -570.2,116.6 -595.2,149.9 -25,33.3 -278.9,799.1 -278.9,799.1 l -366.2,274.7 -186.1,-274.7" /><path
         id="path30"
         style="fill:#c37140;fill-opacity:1;fill-rule:nonzero;stroke:none"
         d="m 12597.1,9495.1 c 0,0 -501.6,-83.3 -923,-55.2 -421.4,28.1 -711.7,139.5 -711.7,139.5 0,0 56.2,516.1 65.5,834.5 9.4,318.4 0,842.6 0,842.6 0,0 627.1,-206.3 1517.1,46.8 890.1,253.1 599.4,-904.8 590,-934.6 -9.3,-29.7 -537.9,-873.6 -537.9,-873.6" /><path
         id="path32"
         style="fill:#e9eef1;fill-opacity:1;fill-rule:nonzero;stroke:none"
         d="m 14661.5,10373.3 -591,-869.9 c 0,0 -324.7,-191.5 -607.7,-174.8 -283,16.6 -474.5,124.9 -545.3,145.7 -70.7,20.8 -320.4,20.8 -320.4,20.8 0,0 -80.2,609.7 -80.2,965.6 0,355.9 28.1,842.6 28.1,842.6 0,0 512,225 980.2,262.5 468.3,37.4 992.7,-35 1317.4,-217.3 324.6,-182.3 387,-519.4 374.6,-581.9 -12.5,-62.4 -555.7,-393.3 -555.7,-393.3" /><path
         id="path34"
         style="fill:#c37140;fill-opacity:1;fill-rule:nonzero;stroke:none"
         d="m 15491.9,11373.1 h -141.3 l -508,-24.6 c 0,0 137.3,-207.3 112.3,-357.1 -24.9,-149.8 -293.4,-618.1 -293.4,-618.1 l 710.5,3.4 614.9,170.2 -39.3,727.8 -402.4,98.4 h -53.3" /><path
         id="path36"
         style="fill:#c37140;fill-opacity:1;fill-rule:nonzero;stroke:none"
         d="m 13867.8,11484.6 c 0,0 -323.8,48.4 -454.9,-209.9 -131.2,-258.3 -69.6,-926.4 227.4,-1238.5 0,0 -96.3,-774.2 -96.3,-1211.2 0,-437.1 162.3,-1073.9 237.2,-1136.3 74.9,-62.4 1860.5,56.2 1860.5,56.2 l 26,374.6 c 0,0 -575.4,56.2 -868.8,106.1 -293.5,50 -518.2,43.7 -518.2,68.7 0,25 112.3,618.1 149.8,980.2 37.5,362.1 -6.2,53.1 -6.2,53.1 0,0 187.3,358.9 237.2,664.9 50,305.9 31.2,652.1 31.2,652.1 0,0 179.2,263.6 68.7,527.3 -110.5,263.7 -663.9,334.4 -893.6,312.7" /><path
         id="path38"
         style="fill:#a45634;fill-opacity:1;fill-rule:nonzero;stroke:none"
         d="m 14432.8,8269.1 c -94.7,7.9 -152.1,12.6 -152.1,25.2 -90.6,-171.7 -162.4,-287.2 -162.4,-287.2 l 314.5,262" /><path
         id="path40"
         style="fill:#a45634;fill-opacity:1;fill-rule:nonzero;stroke:none"
         d="m 13656.3,10685.5 c 0,0 0,0 -49.9,-234 -21.1,-98.8 -56.6,-179.2 -90.2,-242.1 35.5,-64.7 76.8,-123.5 124.1,-173.2 30.1,263.9 16,649.3 16,649.3" /><g
         transform="scale(1.07606)"
         id="g42"><path
           id="path44"
           style="fill:#c37140;fill-opacity:1;fill-rule:nonzero;stroke:none"
           d="m 14536.1,7197.5 h 261.1 c 0,0 171.2,-56.97 348.1,-69.15 177.1,-12.08 316.3,12.18 374.3,0 58,-12.08 298.8,-52.69 333.6,-38.19 34.8,14.49 37.7,44.61 49.3,38.19 11.6,-6.32 226.3,-29.55 249.5,-12.08 23.2,17.38 23.2,17.38 23.2,17.38 0,0 124.8,14.5 107.3,63.85 -17.3,49.25 -266.9,81.22 -330.6,98.59 -63.9,17.38 -536.7,182.8 -731.1,214.68 -194.3,31.97 -660.5,34.85 -660.5,34.85 0,0 -140.2,-145.07 -140.2,-165.42 0,-20.26 116,-182.7 116,-182.7" /></g><g
         transform="scale(1.05423)"
         id="g46"><path
           id="path48"
           style="fill:#a45634;fill-opacity:1;fill-rule:nonzero;stroke:none"
           d="m 15900.1,7390.87 c 0,0 313.9,-72.94 331.6,-114.96 l 68.3,-10.25 c 0,0 -29.8,41.45 -56.4,62.6 -26.7,21.16 -343.5,62.61 -343.5,62.61" /></g><g
         transform="scale(1.07079)"
         id="g50"><path
           id="path52"
           style="fill:#a45634;fill-opacity:1;fill-rule:nonzero;stroke:none"
           d="m 15851.1,7320.29 c 18.8,0 357,-59.12 380.3,-105.35 23.3,-46.23 23.3,-46.23 23.3,-46.23 l 45.3,8.97 c 0,0 -10,20.92 -39.4,66.87 -29.4,45.95 -409.5,75.74 -409.5,75.74" /></g><path
         id="path54"
         style="fill:#a45634;fill-opacity:1;fill-rule:nonzero;stroke:none"
         d="m 15680.8,10861.1 c 0,0 -216.9,-249.5 -257.4,-323.1 -64,-116.3 -51.4,-161.3 -51.4,-161.3 0,0 513.4,-164.6 593.8,-141.9 80.3,22.7 -93.6,472.8 -99,516 -5.5,43.3 -186,110.3 -186,110.3" /><g
         transform="scale(1.05897)"
         id="g56"><path
           id="path58"
           style="fill:#361c19;fill-opacity:1;fill-rule:nonzero;stroke:none"
           d="m 15895.7,10307.7 c 15.7,-8.1 134.6,-9.7 134.6,-9.7 0,0 269.7,74.1 41.3,481.3 -228.4,407.3 -527,601.5 -811.1,634.6 -284,33.1 -691.6,-356.4 -772.1,-568.8 -80.5,-212.4 -38.4,-105.3 -38.4,-105.3 l 405.7,-330.8 c 0,0 282.4,-369.4 321.7,-360.4 39.2,9 311,102.6 348.3,123.2 37.2,20.7 370,135.9 370,135.9" /></g><g
         transform="scale(1.04167)"
         id="g60"><path
           id="path62"
           style="fill:#c37140;fill-opacity:1;fill-rule:nonzero;stroke:none"
           d="m 15340.6,10569.5 c 0,0 143.7,144.8 24.4,217.3 -119.4,72.5 -332.7,-209.4 -321.8,-288 10.7,-78.5 10.7,-78.5 10.7,-78.5 0,0 -120.4,-327.2 -127.3,-445.26 -7,-118.08 198.1,-435.59 242.8,-462.76 44.8,-27.17 396.5,229.37 396.5,229.37 0,0 141.4,-71.37 156.8,-65.13 15.4,6.24 101,258.11 113.3,282.12 12.4,24 240.9,175.66 299.7,238.56 58.9,62.8 157.2,249.3 160.7,271.8 3.6,22.5 -152.4,168 -189.2,191 -36.7,23.1 -160.4,-158.3 -224.1,-159.8 -63.7,-1.6 -257.6,102.6 -364.5,64.5 -106.9,-38 -141.5,-38.4 -178,4.8" /></g><path
         id="path64"
         style="fill:#361c19;fill-opacity:1;fill-rule:nonzero;stroke:none"
         d="m 15573.2,11796.6 c 0,0 -603.4,-294.9 -580.8,-707.1 22.6,-412.3 84.7,-197.7 33.9,-474.4 -50.8,-276.7 -107.3,-446.1 90.4,-660.7 197.6,-214.6 39.5,-375 39.5,-375 0,0 373.9,235 294.9,516.2 -79.1,281.1 -67.2,530.8 10.9,677.6 78.2,146.8 -28.7,720.9 111.2,1023.4" /><path
         id="path66"
         style="fill:#ebebea;fill-opacity:1;fill-rule:nonzero;stroke:none"
         d="m 15566.6,11770.4 c 0,0 -48.8,-138.5 -56.9,-224.4 0,0 -35.4,51.7 -41.1,130.8 -5.6,79 50,191.1 189.7,196.3 l -91.7,-102.7" /></g></g></svg>