<?xml version="1.0" encoding="UTF-8" standalone="no"?>
<svg
   xmlns:dc="http://purl.org/dc/elements/1.1/"
   xmlns:cc="http://creativecommons.org/ns#"
   xmlns:rdf="http://www.w3.org/1999/02/22-rdf-syntax-ns#"
   xmlns:svg="http://www.w3.org/2000/svg"
   xmlns="http://www.w3.org/2000/svg"
   viewBox="0 0 2666.6667 2666.6667"
   height="2666.6667"
   width="2666.6667"
   xml:space="preserve"
   id="svg2"
   version="1.1"><metadata
     id="metadata8"><rdf:RDF><cc:Work
         rdf:about=""><dc:format>image/svg+xml</dc:format><dc:type
           rdf:resource="http://purl.org/dc/dcmitype/StillImage" /></cc:Work></rdf:RDF></metadata><defs
     id="defs6" /><g
     transform="matrix(1.3333333,0,0,-1.3333333,0,2666.6667)"
     id="g10"><g
       transform="scale(0.1)"
       id="g12"><g
         transform="scale(1.22699)"
         id="g14"><path
           id="path16"
           style="fill:none;fill-opacity:1;fill-rule:nonzero;stroke:none"
           d="M 16300,0 H 0 V 16300 H 16300 V 0" /></g><path
         id="path18"
         style="fill:#7d8083;fill-opacity:1;fill-rule:nonzero;stroke:none"
         d="m 13659.6,4037.1 -243,-5.8 14.7,-613.7 243,5.8 c 119.7,2.9 213.5,142.6 209.4,312 -4,169.5 -104.3,304.6 -224.1,301.7" /><path
         id="path20"
         style="fill:#bebdbb;fill-opacity:1;fill-rule:nonzero;stroke:none"
         d="m 13640.8,3729.7 c 4,-169.5 -89.8,-309.2 -209.5,-312.1 -119.8,-2.8 -220.1,132.3 -224.1,301.7 -4.1,169.5 89.7,309.2 209.4,312 119.8,2.9 220.1,-132.2 224.2,-301.6" /><path
         id="path22"
         style="fill:#494b4b;fill-opacity:1;fill-rule:nonzero;stroke:none"
         d="m 12281.8,3180 c 57,18 1204.7,277.1 1204.7,277.1 0,0 153.5,181.5 58.9,386 -94.5,204.6 -832.9,111.1 -957.5,102.3 -124.5,-8.9 -453.9,-22.3 -453.9,-22.3 l -77.2,-244 77.2,-352.1 147.8,-147" /><path
         id="path24"
         style="fill:#343333;fill-opacity:1;fill-rule:nonzero;stroke:none"
         d="m 10472.8,7490.7 -220.2,-154.3 v -319.5 l 110.1,-73.4 30,240.2 253.6,-166.8 326,40.1 v 133.4 l 107.7,26.7 v 273.6 l -593.9,160 -13.3,-160" /><path
         id="path26"
         style="fill:#8e908d;fill-opacity:1;fill-rule:nonzero;stroke:none"
         d="m 8319.45,5146.4 c -33.02,-17.8 -135.33,-269.5 -428.92,-426.1 -293.59,-156.6 -609.65,-296.2 -609.65,-296.2 l 729.75,-296.4 c 0,0 934.15,-44.4 1979.51,-293.6 1045.36,-249.1 1832.66,-351.4 1832.66,-351.4 0,0 542.7,871.9 0,1125.5 -542.7,253.5 -2224.12,954.1 -2224.12,954.1 L 8319.45,5146.4" /><path
         id="path28"
         style="fill:#8e908d;fill-opacity:1;fill-rule:nonzero;stroke:none"
         d="m 9024.85,8852.6 c 0,0 371.43,-1202.6 779.56,-1509.1 408.09,-306.6 2476.59,-840.4 2850.29,-973.8 373.6,-133.5 890.7,-910.8 890.7,-910.8 0,0 170.2,-770.7 180.2,-940.8 10,-170.2 -260.2,-900.8 -260.2,-900.8 l -780.7,-160.2 c 0,0 30,190.2 -210.2,310.3 -240.2,120.1 -500.4,-180.1 -540.4,-160.1 -40.1,20 -1451.3,260.2 -2021.81,550.5 -570.5,290.2 -830.72,540.4 -830.72,540.4 0,0 -800.7,1561.4 -760.67,1691.5 40.04,130.1 299.47,2141.9 299.47,2141.9 l 404.48,321" /><path
         id="path30"
         style="fill:#343333;fill-opacity:1;fill-rule:nonzero;stroke:none"
         d="m 8265.21,4913.3 c 0,0 -155.04,-149.5 -151.43,-176.2 3.61,-26.6 314.99,-418.1 399.52,-422.5 84.51,-4.5 768.46,223.1 768.46,223.1 l -639.47,470.9 -377.08,-95.3" /><path
         id="path32"
         style="fill:#494b4b;fill-opacity:1;fill-rule:nonzero;stroke:none"
         d="m 9063.97,4698.1 c -173.76,-92.1 -510.58,-245.6 -559.58,-245.6 -66.72,0 -184.94,79 -184.94,79 0,0 -18.12,-2.9 -42.38,-6.9 90.4,-104.2 192.98,-207.8 236.22,-210 84.52,-4.5 768.48,223.1 768.48,223.1 l -217.8,160.4" /><path
         id="path34"
         style="fill:#bebdbb;fill-opacity:1;fill-rule:nonzero;stroke:none"
         d="m 13725.6,4518.1 c -10,170.1 -180.2,940.8 -180.2,940.8 0,0 -517.1,777.3 -890.7,910.8 -373.7,133.4 -2442.2,667.2 -2850.29,973.8 -408.13,306.5 -779.56,1509.1 -779.56,1509.1 l -351.67,-279.1 c 190.58,-458.8 585.65,-1340 878.8,-1523.2 400.34,-250.2 1821.62,-490.4 2532.22,-770.7 710.6,-280.2 1070.9,-900.8 1070.9,-900.8 l 54.2,-1251.1 -242.1,-612.6 498.2,102.2 c 0,0 270.2,730.6 260.2,900.8" /><path
         id="path36"
         style="fill:#777b7a;fill-opacity:1;fill-rule:nonzero;stroke:none"
         d="m 13809,13812.8 -36.7,-396.1 c 0,0 -80.2,-101 -88.5,-114.3 -8.2,-13.4 14.3,-158.9 14.3,-158.9 l 171.1,-87.4 246.7,139.3 23.4,287.1 v 317 c 0,0 -210.2,110.1 -330.3,13.3" /><path
         id="path38"
         style="fill:#eff0f1;fill-opacity:1;fill-rule:nonzero;stroke:none"
         d="m 9722.12,5969.3 c 0,-224.8 -148.62,-407 -331.95,-407 -183.33,0 -331.96,182.2 -331.96,407 0,224.8 148.63,407.1 331.96,407.1 183.33,0 331.95,-182.3 331.95,-407.1" /><path
         id="path40"
         style="fill:#494b4b;fill-opacity:1;fill-rule:nonzero;stroke:none"
         d="m 12574.6,7490.7 -110.1,-70.1 -57.5,-750.6 -322.8,-390.4 c 0,0 650.5,-440.4 860.7,-670.6 210.2,-230.2 210.2,-230.2 210.2,-230.2 0,0 230.2,-110.1 390.3,80.1 l -370.3,1931.7 -360.3,310.2 -240.2,-210.1" /><path
         id="path42"
         style="fill:#676b6c;fill-opacity:1;fill-rule:nonzero;stroke:none"
         d="m 13175.1,7390.6 -302,260.1 129.9,-307.2 c 0,0 162.1,-1334.1 152.1,-1964.7 0,0 230.2,-110.1 390.3,80.1 l -370.3,1931.7" /><path
         id="path44"
         style="fill:#adadab;fill-opacity:1;fill-rule:nonzero;stroke:none"
         d="m 14139.2,13797.8 c -0.8,-27.5 -75.4,-47.5 -166.6,-44.7 -91.1,2.8 -164.3,27.3 -163.5,54.8 0.8,27.5 75.4,47.5 166.6,44.7 91.1,-2.8 164.4,-27.3 163.5,-54.8" /><path
         id="path46"
         style="fill:#e7ab83;fill-opacity:1;fill-rule:nonzero;stroke:none"
         d="m 13208.5,13199 16.2,102.9 c 0,0 240.7,147.3 354.1,180.6 113.4,33.4 203.5,40.1 203.5,40.1 l -10,-105.9 c 0,0 66.7,1.3 90.1,-21.5 23.4,-22.8 -16.7,-106.9 -73.4,-148.2 -56.7,-41.4 -76.7,-44.7 -83.4,-68.1 -6.7,-23.3 -36.7,-215.8 -80.1,-246.3 -43.4,-30.6 -86.7,-37.2 -86.7,-37.2 l -80.1,37.2 -136.8,-64.5 c 0,0 -166.8,107.3 -163.5,164.1 3.4,56.7 50.1,166.8 50.1,166.8" /><path
         id="path48"
         style="fill:#e7ab83;fill-opacity:1;fill-rule:nonzero;stroke:none"
         d="m 12278.8,13391.4 c 82.3,37.8 449.3,-215.7 616.1,-179.1 166.8,36.7 329.8,89.6 329.8,89.6 l 97.2,-433.8 c 0,0 -289.1,-180.8 -521.5,-223.5 -232.5,-42.8 -641.3,0 -641.3,0 l -136,621.4 255.7,125.4" /><path
         id="path50"
         style="fill:#3871c1;fill-opacity:1;fill-rule:nonzero;stroke:none"
         d="m 9979.01,8625 c 0,0 -186.83,73.4 -266.9,0 -80.06,-73.4 -293.58,-653.9 -280.24,-727.3 13.34,-73.4 240.21,-186.9 380.33,-200.2 140.12,-13.3 233.5,-33.3 253.6,-53.4 20,-20 146.7,-146.8 420.3,-260.2 273.6,-113.4 754,-6.7 787.4,140.1 33.3,146.8 -360.3,352.1 -480.4,473 -120.2,120.9 -260.3,394.4 -260.3,394.4 0,0 20.1,166.9 -93.4,300.3 -113.4,133.5 -173.5,166.8 -193.5,160.1 -20,-6.6 -266.89,-226.8 -266.89,-226.8" /><path
         id="path52"
         style="fill:#3871c1;fill-opacity:1;fill-rule:nonzero;stroke:none"
         d="m 8250.84,6116.1 c 0,0 -46.7,13.4 -173.48,-53.3 -126.78,-66.8 -433.71,-637.3 -387,-715.7 46.7,-78.4 266.9,-171.8 387,-245.2 120.1,-73.4 200.17,-240.2 393.68,-393.7 193.5,-153.4 693.98,-194.2 810.72,-170.5 116.75,23.7 190.19,264 0,437.4 -190.18,173.5 -310.29,400.4 -343.65,553.9 -33.36,153.4 -46.71,500.4 -73.4,533.8 -26.69,33.3 -206.85,33.3 -206.85,33.3 0,0 -278.08,214.2 -315.86,183.9 -37.78,-30.4 -91.16,-163.9 -91.16,-163.9" /><path
         id="path54"
         style="fill:#100f0d;fill-opacity:1;fill-rule:nonzero;stroke:none"
         d="m 9972.34,10443.2 c 0,0 206.86,110.1 373.66,397 166.8,287 -607.2,273.6 -607.2,273.6 l -50.04,-95.9 283.58,-574.7" /><path
         id="path56"
         style="fill:#fbc398;fill-opacity:1;fill-rule:nonzero;stroke:none"
         d="m 8050.67,9639.2 350.3,-867.4 c 0,0 -330.28,-714 -350.3,-1040.9 -20.02,-327 73.4,-907.5 80.07,-1261.1 6.67,-353.7 20.02,-700.6 40.03,-707.3 20.02,-6.7 266.9,53.4 266.9,73.4 0,20 100.09,220.2 100.09,220.2 l 120.11,40 c 0,0 160.47,1207.7 297.09,1868.3 136.62,660.6 216.9,920.8 236.81,1141 19.91,220.2 -236.81,1514.7 -236.81,1514.7 l -904.29,-980.9" /><path
         id="path58"
         style="fill:#fbc398;fill-opacity:1;fill-rule:nonzero;stroke:none"
         d="m 9932.3,10800.2 810.7,-100.1 c 0,0 -360.3,-427 -405.3,-647.2 -45.1,-220.2 -118.5,-587.2 -251.9,-907.5 -133.48,-320.2 -260.25,-573.8 -260.25,-573.8 0,0 -73.4,-126.8 53.38,-126.8 126.77,0 300.27,106.8 300.27,106.8 0,0 8.9,120.1 94.5,133.4 85.6,13.4 165.7,6.7 165.7,6.7 0,0 820.7,1194.4 1020.9,1528 200.2,333.6 297.2,687.3 178.6,990.9 -118.5,303.6 -895.9,613.8 -895.9,613.8 0,0 -824.04,23.4 -884.09,-223.5 -60.05,-246.9 -86.74,-583 -86.74,-583 l 160.13,-217.7" /><path
         id="path60"
         style="fill:#252323;fill-opacity:1;fill-rule:nonzero;stroke:none"
         d="m 7503.53,12781.9 c 0,0 -373.66,-407 -333.63,-1087.6 40.04,-680.6 880.77,-2055.1 880.77,-2055.1 0,0 894.11,493.8 987.52,587.2 93.42,93.4 153.58,414.2 153.58,414.2 l 780.57,-197.4 c 0,0 122.36,540.5 311.36,840.8 189.1,300.2 459.3,540.4 459.3,540.4 0,0 -997.52,423.6 -1010.87,427 -13.34,3.4 -93.41,279.2 -137.9,279.2 -44.48,0 -2090.7,251.3 -2090.7,251.3" /><path
         id="path62"
         style="fill:#e7ab83;fill-opacity:1;fill-rule:nonzero;stroke:none"
         d="m 10753,14983.9 c 0,0 460.3,-133.5 553.8,-240.3 93.5,-106.7 200.2,-507.1 233.6,-540.4 33.3,-33.4 420.3,-468.6 420.3,-468.6 0,0 -427,-492.6 -480.4,-479.1 -53.4,13.5 -335.8,25.9 -335.8,25.9 0,0 -476.1,481.4 -460.5,508.1 15.6,26.7 -130.3,870.8 -108.4,916.5 22,45.8 177.4,277.9 177.4,277.9" /><path
         id="path64"
         style="fill:#df9866;fill-opacity:1;fill-rule:nonzero;stroke:none"
         d="m 11306.8,14083.1 -334.5,-348.5 -108.1,153.8 z" /><path
         id="path66"
         style="fill:#3871c1;fill-opacity:1;fill-rule:nonzero;stroke:none"
         d="m 9585.34,15304.1 -233.54,-80 c 0,0 -760.66,-974.2 -787.35,-1007.6 -26.69,-33.3 -346.97,-206.8 -346.97,-206.8 0,0 -340.3,-487.1 -433.71,-647.3 -93.41,-160.1 -280.24,-580.5 -280.24,-580.5 0,0 527.12,-500.4 954.16,-593.8 427.04,-93.4 1027.56,126.8 1027.56,126.8 l 659.75,633.9 c 0,0 481.2,353.6 574.7,433.7 93.4,80 273.5,320.2 326.9,520.4 53.4,200.2 60.1,500.4 33.4,680.6 -26.7,180.2 -320.1,604.2 -320.1,604.2 l -1174.56,116.4" /><path
         id="path68"
         style="fill:#fbc398;fill-opacity:1;fill-rule:nonzero;stroke:none"
         d="m 10220.4,15875.5 c 0,0 -201.3,-377.9 -268.08,-424.6 -66.72,-46.7 -366.98,-146.8 -366.98,-146.8 0,0 270.2,-660.5 428.66,-920.8 158.5,-260.2 318.7,-480.4 558.9,-433.7 240.2,46.7 311.3,448.2 280.2,714 -31.1,265.8 -100.1,567.1 -120.1,627.2 -20,60 -512.6,584.7 -512.6,584.7" /><path
         id="path70"
         style="fill:#e8a175;fill-opacity:1;fill-rule:nonzero;stroke:none"
         d="m 10145,15498.4 c 5.6,-27.4 47.7,-281 77.7,-338.8 29.9,-57.9 416.9,-320.3 416.9,-320.3 l -106.8,-222.4 287.9,268.2 -37.1,194.8 -410.9,462.2 -227.7,-43.7" /><path
         id="path72"
         style="fill:#252323;fill-opacity:1;fill-rule:nonzero;stroke:none"
         d="m 9407.41,12552.9 c 0,0 -8.9,-93.5 35.58,-138 44.49,-44.4 636.11,-48.9 636.11,-48.9 0,0 325.7,213.5 494.3,258 168.5,44.5 626.7,251.3 626.7,251.3 v 129.8 c 0,0 -65.5,118.7 -148.4,129 -82.9,10.4 -874.7,9.4 -874.7,9.4 0,0 -653.94,-34.6 -747.35,-172.5 -93.42,-137.9 -106.76,-216.2 -106.76,-216.2 l 84.52,-201.9" /><g
         transform="scale(1.03656)"
         id="g74"><path
           id="path76"
           style="fill:#252323;fill-opacity:1;fill-rule:nonzero;stroke:none"
           d="m 9705.98,15361.7 -43.71,31 c 0,0 -11.28,211.7 5.31,313.3 16.59,101.7 14.18,138.2 36.57,180.6 22.47,42.4 55.95,139.9 72.83,161.1 16.89,21.2 71.97,53.1 114.23,78.7 42.25,25.5 138.69,97.4 181.49,108.6 41.7,10.9 270.7,55.9 270.7,55.9 190.5,-7.8 177.8,9.1 275.2,-16 97.5,-25 192.5,-97.1 244.7,-144.5 65.1,-59 79.4,-159.1 88,-222.6 8.7,-63.5 10.2,-156.6 -43.7,-228.8 -53.9,-72.1 -244.3,-81.2 -324.7,-98.4 -80.3,-17.3 -330,-60.4 -367.9,-98.7 -38,-38.2 -66.8,-288 -172.6,-305.3 -105.75,-17.3 -84.63,-4.6 -152.35,-0.6 -67.82,4.1 -184.07,185.7 -184.07,185.7" /></g><g
         transform="scale(1.00771)"
         id="g78"><path
           id="path80"
           style="fill:#fbc398;fill-opacity:1;fill-rule:nonzero;stroke:none"
           d="m 10142.2,15754.1 c 0,0 -39.9,217.6 -114,230.4 -74.11,12.9 -91.17,-91.7 -90.78,-204.9 0.4,-113.2 57.26,-191.4 103.08,-230.5 0,0 29.2,-252.4 81.8,-356.8 52.6,-104.3 314.5,-264.5 471.5,-333.6 157,-69.2 239.6,-51.5 317.8,1 78.2,52.6 242.2,475.5 259.2,619.2 16.9,143.8 16.7,213.5 34,257.1 17.2,43.6 24.6,452.9 -1.7,487.7 -26.2,34.7 -143.9,64.8 -231,68.9 -87.2,4 -239.5,-18.3 -304.8,-1.1 0,0 -66.3,8.5 -89.7,-26.4 -23.3,-34.9 2.9,-52.3 -58.1,-74.2 -60.8,-22 -108.6,-57 -108.6,-57 0,0 -12.7,-108.9 -25.7,-126.4 -13,-17.4 -65.1,-69.9 -86.8,-100.4 -21.6,-30.6 -69,-178.8 -86.4,-196.3 -17.4,-17.4 -65.2,-35 -65.2,-35 l -4.6,78.3" /></g><path
         id="path82"
         style="fill:#fbc398;fill-opacity:1;fill-rule:nonzero;stroke:none"
         d="m 9351.8,15224.1 -447.05,-144.6 c 0,0 -286.92,-115.7 -440.39,-375.9 -153.47,-260.2 -173.48,-507.1 -173.48,-507.1 l -73.4,-186.8 c 0,0 33.36,-286.9 133.45,-367 100.09,-80.1 300.26,-106.8 300.26,-106.8 0,0 275.8,-400.3 400.35,-578.3 124.55,-177.9 355.87,-404.7 355.87,-404.7 0,0 173.48,217.9 315.83,240.2 142.34,22.2 600.56,22.2 809.56,53.3 209.1,31.2 627.2,164.6 627.2,164.6 l -22.2,387 c 0,0 -520.5,-40 -814,-17.8 -293.6,22.3 -542.74,4.5 -542.74,4.5 0,0 -84.51,524.9 -173.48,671.7 0,0 102.31,387 22.24,671.7 -80.07,284.7 -278.02,496 -278.02,496" /><path
         id="path84"
         style="fill:#e8a175;fill-opacity:1;fill-rule:nonzero;stroke:none"
         d="m 9538.63,13382.5 242.43,2.2 c 0,0 -13.52,83.9 -35.41,194 -66.56,-157.4 -207.02,-196.2 -207.02,-196.2" /><path
         id="path86"
         style="fill:#e8a175;fill-opacity:1;fill-rule:nonzero;stroke:none"
         d="m 8464.36,14127.6 c 0,0 13.35,-191.3 0,-280.3 -8.37,-55.8 -46.51,-160.7 -73.77,-231 105.41,-59.6 260.6,-80.4 260.6,-80.4 0,0 -84.52,315.9 -102.31,352.5 -17.8,36.8 -84.52,239.2 -84.52,239.2" /><path
         id="path88"
         style="fill:#777b7a;fill-opacity:1;fill-rule:nonzero;stroke:none"
         d="m 11293.5,13037.7 c -13.4,-4.4 -1338.95,-467.1 -1414.57,-507.1 -75.62,-40 -57.83,-213.5 -22.25,-262.4 35.59,-49 2019.52,22.2 2041.82,48.9 22.2,26.7 -60.2,235.8 -60.2,235.8 0,0 -1096.4,-31.2 -1078.6,-22.3 17.8,8.9 1027.6,342.1 1027.6,342.1 l -493.8,165" /><path
         id="path90"
         style="fill:#494b4b;fill-opacity:1;fill-rule:nonzero;stroke:none"
         d="m 10283.7,12414.9 476,115.7 h 306.9 z" /><path
         id="path92"
         style="fill:#242322;fill-opacity:1;fill-rule:nonzero;stroke:none"
         d="m 11137.8,13398 c 0,0 950.2,871.9 1086.7,898.6 136.6,26.7 830.5,-6.7 897.2,-33.4 66.8,-26.7 126.8,-173.5 93.5,-253.5 -33.4,-80.1 -747.3,-963.1 -800.7,-1015.4 -53.4,-52.2 -557.3,-119 -557.3,-119 0,0 -430.3,256.1 -436.9,268.2 -6.7,12.1 -282.5,254.5 -282.5,254.5" /><path
         id="path94"
         style="fill:#494b4b;fill-opacity:1;fill-rule:nonzero;stroke:none"
         d="m 12341.1,14083.1 c 68,29.1 599.7,-1.9 883.5,-20.9 0.4,79.8 -49,179.5 -102.9,201 -66.7,26.7 -760.6,60.1 -897.2,33.4 -136.5,-26.7 -1086.7,-898.6 -1086.7,-898.6 0,0 91.6,-80.5 170.5,-151 275.9,238.1 957.7,803.9 1032.8,836.1" /><path
         id="path96"
         style="fill:#bebdbb;fill-opacity:1;fill-rule:nonzero;stroke:none"
         d="m 12158.7,13333.5 1016.4,-5942.9 c 0,0 -80,-53.4 -200.1,-46.7 -120.1,6.6 -393.7,113.4 -400.4,146.8 -6.7,33.3 -935.7,5584 -935.7,5584 l 519.8,258.8" /><path
         id="path98"
         style="fill:#100f0d;fill-opacity:1;fill-rule:nonzero;stroke:none"
         d="m 9563.1,11476.4 c -17.8,-13.4 -217.76,-421.6 -371.33,-835.8 l 321.16,-81.2 c 0,0 -127.76,160.7 -96.63,338.7 31.14,177.9 146.8,578.3 146.8,578.3" /><path
         id="path100"
         style="fill:#f5f6f5;fill-opacity:1;fill-rule:nonzero;stroke:none"
         d="m 10184.4,9421.2 c -28.6,-92.8 -61.3,-186.1 -98.6,-275.8 -133.48,-320.2 -260.25,-573.8 -260.25,-573.8 0,0 -73.4,-126.8 53.38,-126.8 126.77,0 300.27,106.8 300.27,106.8 0,0 8.9,120.1 94.5,133.4 85.6,13.4 165.7,6.7 165.7,6.7 0,0 157.7,229.5 351.6,515.3 -222.5,60.9 -469.9,157.8 -606.6,214.2" /><path
         id="path102"
         style="fill:#df9866;fill-opacity:1;fill-rule:nonzero;stroke:none"
         d="m 13402,13335.2 c 3.3,-2.8 26.7,-69.5 80.1,-102.9 53.3,-33.3 140.1,-56.7 140.1,-56.7 0,0 -156.8,-47.3 -220.2,19.8 -63.4,67 0,139.8 0,139.8" /><path
         id="path104"
         style="fill:#777b7a;fill-opacity:1;fill-rule:nonzero;stroke:none"
         d="m 12264.3,12625.5 79.5,-374.1 c 0,0 334.2,-13.3 831.3,143.5 497.1,156.8 694.1,423.7 694.1,423.7 l -16.8,153.5 c 0,0 -128.4,166 -154.3,171.4 -25.9,5.4 -159.3,-248.1 -159.3,-248.1 0,0 -346.2,-220.6 -671.9,-235.4 -325.6,-14.8 -462.4,162 -565.9,125.3 -103.4,-36.7 -203.5,-87.9 -203.5,-87.9 l 166.8,-71.9" /><path
         id="path106"
         style="fill:#ececec;fill-opacity:1;fill-rule:nonzero;stroke:none"
         d="m 13003,7343.5 c 104.3,2 172.1,47.1 172.1,47.1 l -1016.4,5942.9 -135.6,-67.5 979.9,-5922.5" /><path
         id="path108"
         style="fill:#e7ab83;fill-opacity:1;fill-rule:nonzero;stroke:none"
         d="m 14139.3,13482.5 c 0,0 -10,-60 -80.1,-93.4 -70,-33.3 -140.1,-50 -160.1,-73.4 -20,-23.3 0,-68.7 0,-68.7 0,0 -186,-32.6 -193.5,-68.1 -7.5,-35.4 0,-83.4 0,-83.4 0,0 -46.7,-103.4 -3.3,-143.4 0,0 -20.1,-96.8 33.3,-120.1 53.4,-23.4 306.9,5.5 337,36.1 30,30.6 3.3,64.5 3.3,64.5 0,0 63.4,22.6 80.1,77.8 16.7,55.1 -10,61.8 0,75.1 10,13.4 56.7,13.4 56.7,93.4 0,80.1 -16.7,76.6 -16.7,76.6 0,0 76.8,183.7 -56.7,227" /><path
         id="path110"
         style="fill:#df9866;fill-opacity:1;fill-rule:nonzero;stroke:none"
         d="m 14040.3,13195.4 c 71.8,1 130.8,16.4 169.7,30 -4.8,32 -14,30.1 -14,30.1 0,0 3.3,7.9 7.3,20.8 -27.2,-12.3 -67.6,-25.1 -122.9,-29 -115.7,-8.1 -181.3,-0.3 -181.3,-0.3 0,0 -16.7,-3 -40.3,-8 47,-21.9 112.7,-44.7 181.5,-43.6" /><path
         id="path112"
         style="fill:#df9866;fill-opacity:1;fill-rule:nonzero;stroke:none"
         d="m 14133.9,12972.2 c -62.8,-12.5 -143.7,-26.6 -204.8,-30.1 -115.6,-6.7 -226.8,10 -226.8,10 0,0 -6,-29.2 -2.6,-59.4 34.9,0.7 79.7,1.9 136,4.9 169,8.9 240.2,35 240.2,35 0,0 33.3,12 58,39.6" /><path
         id="path114"
         style="fill:#df9866;fill-opacity:1;fill-rule:nonzero;stroke:none"
         d="m 13924.7,13056.1 c 162.3,7.3 231.3,29.4 231.3,29.4 9.2,12.4 49.8,13.4 55.9,76.8 -51.1,-26.5 -129.5,-60.2 -207.2,-66.8 -131.2,-11.1 -299.1,0 -299.1,0 0,0 -6.8,-15.1 -12.8,-36 59.3,-3.9 144.1,-7.3 231.9,-3.4" /><path
         id="path116"
         style="fill:#f5f6f5;fill-opacity:1;fill-rule:nonzero;stroke:none"
         d="m 8113.78,6755.9 c 8.78,-103.9 15.37,-201.6 16.96,-286.1 6.67,-353.7 20.02,-700.6 40.03,-707.3 20.02,-6.7 266.9,53.4 266.9,73.4 0,20 100.09,220.2 100.09,220.2 l 120.1,40 c 0,0 41.2,310.1 99.62,701.8 -228.27,-22.9 -478.87,-35.6 -643.7,-42" /><path
         id="path118"
         style="fill:#343333;fill-opacity:1;fill-rule:nonzero;stroke:none"
         d="m 10461.7,7336.4 c 0,0 222.4,-34.2 289.1,0 0,0 40,181 111.2,243.2 71.2,62.3 283.9,145.9 283.9,145.9 0,0 -83.7,173.1 -270.5,202.7 0,0 -204.7,-157.3 -240.3,-206.2 -35.5,-49 -53.3,-195.8 -75.6,-240.2 -22.2,-44.5 -97.8,-145.4 -97.8,-145.4" /><path
         id="path120"
         style="fill:#494b4b;fill-opacity:1;fill-rule:nonzero;stroke:none"
         d="m 10646.3,7016.9 -24.5,171.3 350.5,2.2 V 7057 l -326,-40.1" /><path
         id="path122"
         style="fill:#494b4b;fill-opacity:1;fill-rule:nonzero;stroke:none"
         d="M 9242.82,5934.6 9029.3,5222 9281.76,4975.1 c 0,0 196.82,909.7 183.47,914.2 -13.34,4.4 -222.41,45.3 -222.41,45.3" /><path
         id="path124"
         style="fill:#8e908d;fill-opacity:1;fill-rule:nonzero;stroke:none"
         d="m 9167.2,5934.6 c 0,-95.3 84.64,-172.6 189.05,-172.6 104.41,0 189.05,77.3 189.05,172.6 0,95.3 -84.64,172.6 -189.05,172.6 -104.41,0 -189.05,-77.3 -189.05,-172.6" /><path
         id="path126"
         style="fill:#bebdbb;fill-opacity:1;fill-rule:nonzero;stroke:none"
         d="m 9372.8,5934.6 c 0,-77.4 -46.03,-140.1 -102.8,-140.1 -56.78,0 -102.8,62.7 -102.8,140.1 0,77.4 46.02,140.1 102.8,140.1 56.77,0 102.8,-62.7 102.8,-140.1" /><path
         id="path128"
         style="fill:#7d8083;fill-opacity:1;fill-rule:nonzero;stroke:none"
         d="M 12147.1,3727.4 H 11904 v -613.9 h 243.1 c 119.8,0 216.8,137.4 216.8,306.9 0,169.6 -97,307 -216.8,307" /><path
         id="path130"
         style="fill:#bebdbb;fill-opacity:1;fill-rule:nonzero;stroke:none"
         d="m 12120.9,3420.4 c 0,-169.5 -97.1,-306.9 -216.9,-306.9 -119.7,0 -216.8,137.4 -216.8,306.9 0,169.6 97.1,307 216.8,307 119.8,0 216.9,-137.4 216.9,-307" /><path
         id="path132"
         style="fill:#494b4b;fill-opacity:1;fill-rule:nonzero;stroke:none"
         d="m 11977.4,3411.1 c 0,-57.5 -35.1,-104.1 -78.4,-104.1 -43.3,0 -78.4,46.6 -78.4,104.1 0,57.4 35.1,104 78.4,104 43.3,0 78.4,-46.6 78.4,-104" /><path
         id="path134"
         style="fill:#494b4b;fill-opacity:1;fill-rule:nonzero;stroke:none"
         d="m 7811.53,4435.8 h -387.86 c -8.23,0 -16.24,-0.8 -24.13,-1.9 l -1454.47,-119.4 433.03,-360.3 1125.43,121.4 h 308 c 90.06,0 163.05,73 163.05,163 v 34.2 c 0,90.1 -72.99,163 -163.05,163" /><path
         id="path136"
         style="fill:#8e908d;fill-opacity:1;fill-rule:nonzero;stroke:none"
         d="m 6332.93,4314.5 h -387.86 c -90.05,0 -163.04,-73 -163.04,-163 v -34.2 c 0,-90.1 72.99,-163.1 163.04,-163.1 h 387.86 c 90.06,0 163.05,73 163.05,163.1 v 34.2 c 0,90 -72.99,163 -163.05,163" /><path
         id="path138"
         style="fill:#777b7a;fill-opacity:1;fill-rule:nonzero;stroke:none"
         d="m 11929.6,13909.6 c -9.6,-3.6 -142.3,-400.4 -142.3,-400.4 0,0 291.3,-110.1 295.8,-90 4.4,20 147.9,423.7 141.2,453.7 -6.7,30 -205.7,70 -294.7,36.7" /><path
         id="path140"
         style="fill:#fbc398;fill-opacity:1;fill-rule:nonzero;stroke:none"
         d="m 11160,13011 c 0,0 160.2,-129 226.9,-139 66.7,-10 558.3,1.1 580.5,12.3 22.3,11.1 31.2,84.5 31.2,84.5 0,0 44.4,0 57.8,42.2 13.3,42.3 26.7,124.6 26.7,124.6 0,0 40,2.2 60,64.5 20,62.3 15.6,133.4 15.6,133.4 0,0 109,-15.5 120.1,57.9 11.1,73.4 -80.1,75.6 -126.8,102.3 -46.7,26.7 -229.1,140.1 -353.6,149 -124.6,8.9 -660.6,-244.7 -660.6,-244.7 0,0 -157.9,-86.7 -137.9,-169 20,-82.3 160.1,-218 160.1,-218" /><path
         id="path142"
         style="fill:#df9866;fill-opacity:1;fill-rule:nonzero;stroke:none"
         d="m 11716.1,13055.5 c 8.9,-8.9 276.1,-121.2 275.7,-122.9 v 0 c 4.6,19 6.8,36.2 6.8,36.2 0,0 -291.4,95.6 -282.5,86.7" /><path
         id="path144"
         style="fill:#df9866;fill-opacity:1;fill-rule:nonzero;stroke:none"
         d="m 11838.4,13209 c 4.5,-22.3 235.5,-124.1 233.4,-134.3 6.6,32.2 11.3,60.9 11.3,60.9 0,0 -249.1,95.6 -244.7,73.4" /><path
         id="path146"
         style="fill:#df9866;fill-opacity:1;fill-rule:nonzero;stroke:none"
         d="m 12157.8,13281.4 c 2.2,30.1 0.9,52.1 0.9,52.1 l -229.1,55.6 228.2,-107.7" /><path
         id="path148"
         style="fill:#343333;fill-opacity:1;fill-rule:nonzero;stroke:none"
         d="m 8377.62,5142 c 0,0 -157.91,-311.4 -162.36,-347 -4.45,-35.6 24.46,-89 81.18,-71.2 56.71,17.8 310.89,205.5 323.93,207.3 13.03,1.8 661.39,44 661.39,44 0,0 -101.57,253.6 -185.73,304.7 -84.17,51.2 -512.09,-17.5 -718.41,-137.8" /></g></g></svg>