<?xml version="1.0" encoding="UTF-8" standalone="no"?>
<svg
   xmlns:dc="http://purl.org/dc/elements/1.1/"
   xmlns:cc="http://creativecommons.org/ns#"
   xmlns:rdf="http://www.w3.org/1999/02/22-rdf-syntax-ns#"
   xmlns:svg="http://www.w3.org/2000/svg"
   xmlns="http://www.w3.org/2000/svg"
   viewBox="0 0 2666.6667 2666.6667"
   height="2666.6667"
   width="2666.6667"
   xml:space="preserve"
   id="svg2"
   version="1.1"><metadata
     id="metadata8"><rdf:RDF><cc:Work
         rdf:about=""><dc:format>image/svg+xml</dc:format><dc:type
           rdf:resource="http://purl.org/dc/dcmitype/StillImage" /></cc:Work></rdf:RDF></metadata><defs
     id="defs6" /><g
     transform="matrix(1.3333333,0,0,-1.3333333,0,2666.6667)"
     id="g10"><g
       transform="scale(0.1)"
       id="g12"><g
         transform="scale(1.22699)"
         id="g14"><path
           id="path16"
           style="fill:none;fill-opacity:1;fill-rule:nonzero;stroke:none"
           d="M 16300,0 H 0 V 16300 H 16300 V 0" /></g><g
         transform="scale(1.09991)"
         id="g18"><path
           id="path20"
           style="fill:#252323;fill-opacity:1;fill-rule:nonzero;stroke:none"
           d="m 14892.1,6702.52 c 0,0 75.3,-93 234.6,-146.1 159.4,-53.19 411.8,-318.84 575.6,-380.76 163.8,-62 252.4,26.55 301,119.56 48.8,92.92 132.9,597.68 132.9,597.68 0,0 119.5,4.46 141.7,79.64 22.1,75.28 17.6,757.15 -17.7,792.52 -35.5,35.46 -575.6,-84.1 -633.2,-97.37 -57.5,-13.28 -239.1,-44.28 -239.1,-44.28 0,0 -389.5,88.56 -402.8,70.83 -13.3,-17.73 -81.5,-57.55 -76.2,-92.92 5.4,-35.46 124.8,-354.21 124.8,-354.21 l 163.8,-106.28 c 0,0 -424.9,-124.83 -440.4,-177.56 -15.6,-52.64 -51,-181.1 -19.9,-189.92 31,-8.82 154.9,-70.83 154.9,-70.83" /></g><g
         transform="scale(1.08886)"
         id="g22"><path
           id="path24"
           style="fill:#100f0d;fill-opacity:1;fill-rule:nonzero;stroke:none"
           d="m 15351.8,7213.33 c 0,0 116.3,-35.82 232.7,-71.54 116.2,-35.82 384.6,-105.07 550,-141.99 165.5,-36.91 165.5,-36.91 165.5,-36.91 0,0 -398,20.2 -532.2,36.91 -134.2,16.72 -416,57.04 -416,57.04 v 156.49" /></g><g
         transform="scale(1.08886)"
         id="g26"><path
           id="path28"
           style="fill:#4e4f51;fill-opacity:1;fill-rule:nonzero;stroke:none"
           d="m 15955.6,6605.08 c -12.3,-109.38 14.3,-256.97 44.9,-384.53 80.7,14.05 132.2,75.21 165.3,138.58 49.2,93.87 134.2,603.76 134.2,603.76 l -125.2,-27.28 c 0,0 -192.3,-93.49 -219.2,-330.53" /></g><g
         transform="scale(1.09991)"
         id="g30"><path
           id="path32"
           style="fill:#4e4f51;fill-opacity:1;fill-rule:nonzero;stroke:none"
           d="m 16214.4,7771.43 c -16.8,-101.47 -38.7,-272.03 -78.2,-382.67 -34.5,-96.47 59.8,-356.48 97,-469.13 20.2,11.73 37.5,28.64 44.7,52.91 22.1,75.28 17.6,757.15 -17.7,792.52 -5.3,5.27 -21.7,7.09 -45.8,6.37" /></g><g
         transform="scale(1.03837)"
         id="g34"><path
           id="path36"
           style="fill:#c37140;fill-opacity:1;fill-rule:nonzero;stroke:none"
           d="m 9694.35,7976.75 c 0,0 682.35,-206.29 1277.95,-253.19 595.7,-46.9 642.6,-4.72 1059.9,-51.62 417.4,-46.9 712.9,-117.2 731.7,-126.64 18.7,-9.34 417.4,-286.02 1130.2,-318.87 712.9,-32.83 1894.7,-131.35 1880.7,-126.64 -14.1,4.72 -9.4,248.57 79.7,276.69 89.1,28.12 243.8,23.5 243.8,23.5 v 164.1 c 0,0 -248.5,-60.96 -820.7,79.74 -572.1,140.7 -1022.3,375.2 -1317.8,459.57 -295.5,84.46 -497.1,84.46 -731.6,201.66 -234.5,117.3 -426.9,178.26 -426.9,178.26 0,0 445.6,14.06 684.8,-75.02 239.2,-89.18 586.3,-295.46 1134.9,-328.3 548.8,-32.85 1313.2,-440.89 1303.8,-403.33 -9.3,37.46 -37.5,314.24 32.8,337.65 70.4,23.49 290.9,-37.56 304.9,-14.07 14.1,23.41 37.5,75.03 37.5,75.03 0,0 -154.8,60.96 -431.4,159.48 -276.7,98.42 -1055.3,633.11 -1505.5,811.37 -450.2,178.16 -844.2,248.56 -1191.3,328.3 -347,79.65 -834.7,314.18 -1261.5,628.38 -426.8,314.2 -1146.7,670 -1146.7,670 0,0 -583.9,-473 -579.2,-496.4 4.7,-23.5 143.1,-776.17 143.1,-776.17 0,0 232,-143.11 593.2,-260.31 361.1,-117.3 562.8,-253.76 562.8,-253.76 0,0 -272,47.38 -417.4,150.52 -145.4,103.24 -830.1,248.56 -830.1,248.56 0,0 -450.26,-112.58 -541.65,-365.77 -91.49,-253.28 -166.54,-408.04 -147.78,-483.06 18.76,-75.02 147.78,-459.66 147.78,-459.66" /></g><path
         id="path38"
         style="fill:#a45330;fill-opacity:1;fill-rule:nonzero;stroke:none"
         d="m 10950.1,9466.2 c 185.1,-53.6 1100.6,-423.7 1631.4,-589.2 530.8,-165.6 1017.8,-219.2 1017.8,-219.2 l -306.8,151 c 0,0 -423.7,87.6 -745.1,180.2 -321.4,92.5 -623.3,238.1 -623.3,238.1 0,0 -282.4,49.2 -433.4,156.3 -151,107.2 -862,258.1 -862,258.1 0,0 -159.8,-39.9 -311.5,-125.7 l 262.7,35.7 c 0,0 185.2,-31.7 370.2,-85.3" /><g
         transform="scale(1.02552)"
         id="g40"><path
           id="path42"
           style="fill:#e7e7e6;fill-opacity:1;fill-rule:nonzero;stroke:none"
           d="m 15782.8,7675.71 c -23.8,-117.21 -66.3,-321.4 -101.9,-465.91 181.5,-13.75 295.9,-22.53 291.5,-21.07 -14.3,4.78 -9.5,251.68 80.7,280.15 90.2,28.48 246.9,23.8 246.9,23.8 v 166.16 c 0,0 -159.6,-39.11 -517.2,16.87" /></g><g
         transform="scale(1.03837)"
         id="g44"><path
           id="path46"
           style="fill:#e7e7e6;fill-opacity:1;fill-rule:nonzero;stroke:none"
           d="m 15868.6,8234.75 c -35.3,12.52 -78.6,32.16 -128.4,57.2 l -108.5,-500.59 c 178.5,-74.25 296.8,-129.63 293.1,-114.7 -9.3,37.46 -37.5,314.24 32.8,337.65 70.4,23.49 290.9,-37.56 304.9,-14.07 14.1,23.41 37.5,75.03 37.5,75.03 0,0 -154.8,60.96 -431.4,159.48" /></g><path
         id="path48"
         style="fill:#252323;fill-opacity:1;fill-rule:nonzero;stroke:none"
         d="m 8181.64,9575.8 c 7.3,-29.2 43.82,-540.6 43.82,-540.6 L 8948.64,8743 10066.3,8282.8 c 0,0 394.4,1081.1 562.4,1358.7 l -102.2,73.1 29.2,94.9 160.7,-87.6 c 0,0 146.1,828.8 460.2,1360.4 0,0 -511.3,195.5 -635.5,246.6 -124.2,51.2 -350.7,160.7 -745.11,241.1 -394.46,80.3 -1132.24,0 -1132.24,0 l -767,-1267.4 284.89,-726.8" /><path
         id="path50"
         style="fill:#c37140;fill-opacity:1;fill-rule:nonzero;stroke:none"
         d="m 7536.38,11570 c 0,0 374.98,-102.3 618.47,-87.7 243.49,14.6 508.9,87.7 508.9,87.7 0,0 226.45,-445.6 87.66,-1117.6 -138.79,-672.1 -525.95,-1417.2 -525.95,-1417.2 l -1059.19,309.3 c 0,0 -555.16,699.9 -430.97,1163.2 124.18,463.3 801.08,1062.3 801.08,1062.3" /><path
         id="path52"
         style="fill:#c37140;fill-opacity:1;fill-rule:nonzero;stroke:none"
         d="m 4912.94,11488.9 -40.71,212.6 190.27,404.2 c 0,0 107.14,394.4 399.34,657.4 292.18,263 623.33,418.8 623.33,418.8 0,0 594.12,457.8 842.49,623.3 248.36,165.6 482.11,224.1 579.5,204.6 97.4,-19.5 482.12,-423.7 808.4,-803.5 326.28,-379.9 564.9,-715.9 564.9,-715.9 l -370.11,-238.6 c 0,0 -185.05,312 -530.81,499.3 -345.76,187.3 -662.3,513.6 -662.3,513.6 0,0 -584.38,-574.7 -769.43,-750 -185.06,-175.3 -316.54,-331.1 -316.54,-331.1 0,0 228.88,-141.2 316.54,-272.7 87.65,-131.5 272.71,-521.8 -121.75,-657.8 -394.45,-136 -769.43,-171.6 -954.49,-170.8 -185.05,0.7 -272.71,4.8 -399.32,170.8 -126.62,165.9 -159.31,235.8 -159.31,235.8" /><path
         id="path54"
         style="fill:#c37140;fill-opacity:1;fill-rule:nonzero;stroke:none"
         d="m 4707.01,10138.3 -30.84,-311.7 c 0,0 -110.38,-321.4 -76.3,-589.3 34.09,-267.8 131.49,-647.7 131.49,-647.7 0,0 56,-781.6 0,-1168.7 0,0 -133.11,-84.4 -211.03,-266.2 -77.91,-181.8 -240.24,-327.9 -240.24,-337.7 0,-9.7 288.94,-334.4 311.67,-318.1 22.72,16.2 548.66,240.2 626.58,318.1 77.92,77.9 178.56,383.1 191.55,558.4 12.99,175.3 64.93,707.8 97.4,1042.2 32.46,334.4 -38.96,785.6 -25.98,805.1 12.99,19.5 237,103.9 237,103.9 0,0 -493.48,737 -529.19,743.5 -35.71,6.5 -482.11,68.2 -482.11,68.2" /><path
         id="path56"
         style="fill:#a45330;fill-opacity:1;fill-rule:nonzero;stroke:none"
         d="m 6106.85,11910.9 c -20.51,-28.2 31.89,121.7 124.42,272.7 l 127.17,-88.4 c 0,0 -74.08,59.2 -251.59,-184.3" /><path
         id="path58"
         style="fill:#a45330;fill-opacity:1;fill-rule:nonzero;stroke:none"
         d="m 5568.97,9407.8 c 0,0 -259.72,-133.1 -269.46,-142.9 -9.74,-9.7 -142.85,-259.7 -142.85,-259.7 l 206.15,201.3 118.5,16.2 185.85,84.2 -98.19,100.9" /><path
         id="path60"
         style="fill:#e9eef1;fill-opacity:1;fill-rule:nonzero;stroke:none"
         d="m 4676.17,10378.5 30.84,-240.2 c 0,0 272.71,-160.8 472.37,-394.5 199.67,-233.8 569.78,-613.6 944.75,-638 374.98,-24.3 764.57,282.5 808.39,282.5 43.83,0 233.75,-43.8 233.75,-43.8 0,0 146.1,701.2 267.85,1378.1 121.74,676.9 102.26,847.4 102.26,847.4 l -988.57,340.9 c 0,0 -19.48,-355.5 -540.55,-482.1 -521.08,-126.7 -1135.03,272.7 -1135.03,272.7 l -50.78,-175.3 c 0,0 45.56,-540.6 50.78,-642.9 5.23,-102.2 -196.06,-504.8 -196.06,-504.8" /><path
         id="path62"
         style="fill:#c37140;fill-opacity:1;fill-rule:nonzero;stroke:none"
         d="m 4022.8,10656.9 c 0,0 501.59,-151 560.03,-177.8 58.43,-26.7 93.34,-100.6 93.34,-100.6 0,0 831.93,-461 1109.51,0 277.58,461 -467.51,957.7 -964.23,1147.7 0,0 -70.61,-92.6 -104.7,-102.3 -34.09,-9.8 -225.65,-33.7 -468.32,31.9 -242.68,65.5 -349.81,-149.5 -349.81,-202.7 0,-53.2 124.18,-596.2 124.18,-596.2" /><path
         id="path64"
         style="fill:#2f1d16;fill-opacity:1;fill-rule:nonzero;stroke:none"
         d="m 3588.23,10557 c 0,0 -223.02,-474.6 -195.44,-895.2 27.58,-420.6 213.74,-565.4 241.33,-882.5 27.57,-317.2 -27.59,-496.5 -27.59,-496.5 0,0 558.49,413.7 434.38,951.5 -124.11,537.8 -206.85,1383.3 -206.85,1383.3 l -245.83,-60.6" /><path
         id="path66"
         style="fill:#a45330;fill-opacity:1;fill-rule:nonzero;stroke:none"
         d="m 4194.94,11323.9 53.49,131.9 102.17,-42 c 0,0 110.67,-208.5 140.43,-325.9 29.75,-117.5 -91.8,-313.3 -211.33,-377.1 -119.52,-63.9 -317.12,-93.4 -317.12,-93.4 l 232.36,706.5" /><path
         id="path68"
         style="fill:#e9eef1;fill-opacity:1;fill-rule:nonzero;stroke:none"
         d="m 3468.35,10678.7 c 0,0 42.46,-82.4 91.9,-125.3 49.44,-42.9 237.39,-55.2 305.57,-14.3 68.18,40.9 -4.22,196.7 -42.14,212.5 -37.92,15.9 -77.14,28 -152.14,14.7 -75,-13.3 -203.19,-87.6 -203.19,-87.6" /><path
         id="path70"
         style="fill:#2f1d16;fill-opacity:1;fill-rule:nonzero;stroke:none"
         d="m 3629.94,11916.6 c 0,0 -234.15,150.2 -526.88,233 -292.72,82.8 -572.4,-156.3 -578.61,-163.9 -6.22,-7.7 -223.78,-143.3 -264.84,-511.7 -41.06,-368.4 290.2,-615.8 405.84,-672.4 115.65,-56.6 545.22,-184 545.22,-184 0,0 177.71,100.4 215.69,193 37.98,92.6 197.19,473.5 243.91,616.2 46.72,142.7 98.51,343.6 86.07,354.9 -12.45,11.4 -126.4,134.9 -126.4,134.9" /><path
         id="path72"
         style="fill:#c37140;fill-opacity:1;fill-rule:nonzero;stroke:none"
         d="m 3597,11928.9 c 0,0 0.51,54.9 44.96,53.3 44.45,-1.6 93.87,-50.1 140.53,-72.6 46.66,-22.5 144.37,-69 176.78,-116.2 32.41,-47.2 34.11,-122.9 34.11,-122.9 0,0 135.07,-100.6 205.09,-174.3 70.02,-73.8 187.66,-348.1 197.31,-409.3 9.64,-61.1 -64.57,-246.1 -114.19,-305.1 -49.62,-59.1 -266.84,-158 -394.68,-185.3 -127.83,-27.2 -300.43,-0.2 -300.43,-0.2 0,0 -82.53,-66.7 -142.07,-72 -59.53,-5.2 -171.24,44.1 -183.86,43.8 -12.62,-0.3 -143.05,16 -159.49,47.1 -16.44,31.2 62.29,54.3 81.49,52.1 19.21,-2.1 45.55,8 45.55,8 0,0 -124.08,76.5 -184.18,96.5 -60.1,20 -136.98,88.8 -199.84,134.8 -62.86,46.1 -195.18,140.6 -247.16,302.7 -51.98,162.1 72.41,400.9 97.6,461.6 25.2,60.7 59.18,118 73.71,130.1 14.53,12.1 144,63.8 232.85,120.6 88.85,56.9 121.24,29.8 190.4,13.9 69.15,-15.9 148.45,-18 215.4,-33.1 66.96,-15 198.68,-44.2 217.89,-46.4 19.2,-2.2 29.08,4.1 29.08,4.1 l -56.85,68.8" /><path
         id="path74"
         style="fill:#c37140;fill-opacity:1;fill-rule:nonzero;stroke:none"
         d="m 8510.35,12251.8 c 0,0 100.65,-71.5 136.35,-250 35.72,-178.6 0,-461 0,-581.2 0,-120.1 267.85,-651.7 331.16,-659 63.3,-7.3 70.61,31.7 65.74,114.4 0,0 129.05,-228.8 189.92,-202.1 60.87,26.8 17.05,216.7 17.05,216.7 0,0 77.91,-158.2 148.53,-136.3 70.61,21.9 -85.23,413.9 -77.92,406.6 7.3,-7.3 77.92,-153.4 133.92,-143.6 56,9.7 38.96,165.5 -12.18,262.9 -51.13,97.4 -85.22,175.3 -116.87,343.4 -31.66,168 -53.57,301.9 -129.05,452.8 -75.49,151 -316.54,414 -316.54,414 0,0 -236.19,2.4 -272.71,-34.1 -36.53,-36.5 -97.4,-204.5 -97.4,-204.5" /><path
         id="path76"
         style="fill:#a45330;fill-opacity:1;fill-rule:nonzero;stroke:none"
         d="m 8880.46,11294.8 163.14,-418.8 -1.8,-73.6 c 0,0 -144.3,300.1 -161.34,492.4" /><path
         id="path78"
         style="fill:#a45330;fill-opacity:1;fill-rule:nonzero;stroke:none"
         d="m 9021.68,11409.3 228.89,-518.7 15.23,-124.1 c 0,0 -234.38,467.5 -244.12,642.8" /><path
         id="path80"
         style="fill:#a45330;fill-opacity:1;fill-rule:nonzero;stroke:none"
         d="m 9209.17,11460.4 112.01,-299.5 57.55,-175.1 c 0,0 -133.04,158.1 -169.56,474.6" /><path
         id="path82"
         style="fill:#100f0d;fill-opacity:1;fill-rule:nonzero;stroke:none"
         d="m 10555.7,9809.5 c 0,0 -58.5,36.6 -64.9,56 -6.5,19.5 -133.2,256.5 -133.2,256.5 0,0 35.7,-490.2 45.5,-499.9 9.7,-9.8 176.8,-70.6 176.8,-70.6 l 48.8,90 -102.2,73.1 29.2,94.9" /><path
         id="path84"
         style="fill:#a45330;fill-opacity:1;fill-rule:nonzero;stroke:none"
         d="m 4731.36,7420.9 c 0,0 42.2,29.2 220.76,-16.3 178.56,-45.4 246.74,-87.6 246.74,-87.6 0,0 -165.57,136.3 -266.21,165.6 -100.65,29.2 -188.77,51.7 -188.77,51.7 l -12.52,-113.4" /><path
         id="path86"
         style="fill:#a45330;fill-opacity:1;fill-rule:nonzero;stroke:none"
         d="m 4360.07,6762.9 c 0,0 230.06,46.8 286.07,44.4 56,-2.4 185.08,-197.3 185.08,-197.3 l -99.86,-45.9 -371.29,89.8 v 109" /><path
         id="path88"
         style="fill:#c37140;fill-opacity:1;fill-rule:nonzero;stroke:none"
         d="m 4280.09,6817 c 0,0 -86.85,-70.6 -137.98,-102.2 -51.13,-31.7 -73.05,-87.7 -82.79,-138.8 -9.74,-51.2 -60.87,-119.3 -56,-155.9 4.87,-36.5 14.61,-75.5 14.61,-75.5 0,0 -20.13,-77.9 -14.94,-129 5.2,-51.1 12.5,-107.1 12.5,-107.1 0,0 7.31,-63.3 65.75,-107.2 58.43,-43.8 328.71,24.4 338.45,24.4 9.74,0 104.7,17 121.75,43.8 17.04,26.8 51.13,95 58.43,102.3 7.31,7.3 41.39,36.5 43.83,75.5 2.44,38.9 2.44,38.9 2.44,38.9 0,0 38.95,9.7 48.69,65.8 9.75,56 31.66,119.3 58.44,165.5 26.79,46.3 -51.13,219.2 -104.7,248.4 -53.57,29.2 -173.71,-9 -245.92,-9.7 -72.22,-0.8 -122.56,60.8 -122.56,60.8" /><path
         id="path90"
         style="fill:#a45330;fill-opacity:1;fill-rule:nonzero;stroke:none"
         d="m 4587.7,6361.7 c 0,75.5 -48.7,241.1 -48.7,241.1 l -126.62,17 c 0,0 109.58,-109.1 119.31,-121.5 9.75,-12.4 26.79,-134.2 -43.82,-143.9 -70.61,-9.8 -272.71,112 -280.02,116.9 -7.3,4.8 148.53,-134 231.32,-160.7 82.79,-26.8 97.39,-112 60.87,-129.1 -36.52,-17 -336.02,104.7 -328.71,99.8 7.3,-4.8 282.45,-136.3 284.88,-158.2 2.44,-21.9 26.79,-53.6 -43.83,-46.3 -70.61,7.3 -367.67,48.7 -336.01,41.4 25.38,-5.9 235.46,-60.3 316.44,-97.9 15.27,3.2 25.16,5.4 26.88,5.4 9.74,0 104.7,17 121.75,43.8 17.04,26.8 51.13,95 58.43,102.3 7.31,7.3 41.39,36.5 43.83,75.5 2.44,38.9 2.44,38.9 2.44,38.9 0,0 -58.44,0 -58.44,75.5" /></g></g></svg>