<?xml version="1.0" encoding="UTF-8" standalone="no"?>
<svg
   xmlns:dc="http://purl.org/dc/elements/1.1/"
   xmlns:cc="http://creativecommons.org/ns#"
   xmlns:rdf="http://www.w3.org/1999/02/22-rdf-syntax-ns#"
   xmlns:svg="http://www.w3.org/2000/svg"
   xmlns="http://www.w3.org/2000/svg"
   viewBox="0 0 2666.6667 2666.6667"
   height="2666.6667"
   width="2666.6667"
   xml:space="preserve"
   id="svg2"
   version="1.1"><metadata
     id="metadata8"><rdf:RDF><cc:Work
         rdf:about=""><dc:format>image/svg+xml</dc:format><dc:type
           rdf:resource="http://purl.org/dc/dcmitype/StillImage" /></cc:Work></rdf:RDF></metadata><defs
     id="defs6"><clipPath
       id="clipPath70"
       clipPathUnits="userSpaceOnUse"><path
         id="path68"
         d="m 15013.5,12692.8 c -244.7,0 -626.4,75.1 -714,525.7 0,0 159.6,-502.2 924.5,-506.9 0,0 -88.1,-18.8 -210.5,-18.8" /></clipPath></defs><g
     transform="matrix(1.3333333,0,0,-1.3333333,0,2666.6667)"
     id="g10"><g
       transform="scale(0.1)"
       id="g12"><g
         transform="scale(1.22699)"
         id="g14"><path
           id="path16"
           style="fill:none;fill-opacity:1;fill-rule:nonzero;stroke:none"
           d="M 16300,0 H 0 V 16300 H 16300 V 0" /></g><path
         id="path18"
         style="fill:#414042;fill-opacity:1;fill-rule:nonzero;stroke:none"
         d="M 11978.7,4712.1 H 11432 v 546.8 h 546.7 v -546.8" /><path
         id="path20"
         style="fill:#414042;fill-opacity:1;fill-rule:nonzero;stroke:none"
         d="m 14672.6,4712.1 h -546.8 v 546.8 h 546.8 v -546.8" /><path
         id="path22"
         style="fill:#8e908d;fill-opacity:1;fill-rule:nonzero;stroke:none"
         d="m 13274,5054.7 h -485.7 V 7983.3 H 13274 V 5054.7" /><path
         id="path24"
         style="fill:#414042;fill-opacity:1;fill-rule:nonzero;stroke:none"
         d="m 15371.9,7927 h -4195.7 v 654.6 h 4195.7 V 7927" /><path
         id="path26"
         style="fill:#8e908d;fill-opacity:1;fill-rule:nonzero;stroke:none"
         d="m 15425.8,8581.6 h -478.7 v 2666.1 h 478.7 V 8581.6" /><path
         id="path28"
         style="fill:#fbc398;fill-opacity:1;fill-rule:nonzero;stroke:none"
         d="m 13789.4,8334 c 0,0 329.5,-5.1 628.6,0 299,5 613.3,-30.5 613.3,-30.5 0,0 -253.4,-552.5 -268.6,-1003.6 -15.3,-451.1 -71,-2169.5 -71,-2169.5 0,0 207.8,-45.6 233.2,-25.3 25.3,20.3 96.3,-96.3 157.1,-96.3 60.8,0 246.7,239.9 246.7,239.9 l 523.8,2629.1 c 0,0 228.1,380.1 91.2,876.9 -136.9,496.7 -1221.6,958 -1221.6,958 0,0 -588,-30.4 -674.2,-278.8 -86.1,-248.4 -258.5,-1099.9 -258.5,-1099.9" /><path
         id="path30"
         style="fill:#252323;fill-opacity:1;fill-rule:nonzero;stroke:none"
         d="m 13886.5,10121 v -103.3 l 840.1,-305 c 0,0 -258.2,-356.7 -394.3,-666.4 C 14196.2,8736.5 13863,8239 13863,8239 c 0,0 -877.6,225.3 -1290.6,295.7 -413,70.4 -826,488.1 -826,999.7 0,511.5 225.3,854.1 342.6,1037.1 117.3,183.1 173.7,276.9 173.7,276.9 0,0 966.7,173.7 1070,56.4 103.2,-117.4 281.6,-173.7 431.8,-342.6 150.1,-169 122,-441.2 122,-441.2" /><path
         id="path32"
         style="fill:#3970c0;fill-opacity:1;fill-rule:nonzero;stroke:none"
         d="m 14703.1,14309.6 -736.8,-86.8 c 0,0 -333.2,-145.5 -521,-352 -187.7,-206.5 -225.2,-488.1 -281.6,-591.3 -56.3,-103.3 -366,-713.4 -535,-1126.4 -168.9,-413 -366,-1304.7 -366,-1304.7 0,0 417.7,-122 793.1,-253.4 375.5,-131.4 830.7,-474 830.7,-474 0,0 206.5,300.4 347.3,506.9 140.8,206.5 436.4,797.8 436.4,797.8 l 220.6,445.8 c 0,0 525.7,1398.6 408.3,1830.4 -117.3,431.7 -596,607.7 -596,607.7" /><g
         transform="scale(1.04018)"
         id="g34"><path
           id="path36"
           style="fill:#252323;fill-opacity:1;fill-rule:nonzero;stroke:none"
           d="m 13984.9,11909.9 c 0,0 -370.2,-442.8 -370.2,-475.9 0,-33.1 2216.8,-1888.96 2302.6,-1893.47 85.7,-4.53 370.7,392.51 376.7,419.58 6,27.08 -561,437.39 -561,437.39 0,0 -1103.9,1307.1 -1196.3,1345.9 -92.6,38.8 -551.8,166.5 -551.8,166.5" /></g><path
         id="path38"
         style="fill:#fbc398;fill-opacity:1;fill-rule:nonzero;stroke:none"
         d="m 15425.8,14075.3 -221.7,-386 c 0,0 -165.7,279 -462,396.7 -296.4,117.7 -762.8,69.7 -775.9,87.2 -13.1,17.4 143.8,80.6 143.8,80.6 0,0 257.2,162.7 370.5,241.2 257.1,178.3 404.4,594.8 553.9,750.9 149.4,156.1 590.8,-305.5 740.7,-353.6 149.8,-48 366.1,95.9 322.5,-209.2 -43.6,-305.1 -17.4,-326.9 -165.6,-475.1 -148.2,-148.2 -506.2,-132.7 -506.2,-132.7" /><g
         transform="scale(1.01946)"
         id="g40"><path
           id="path42"
           style="fill:#252323;fill-opacity:1;fill-rule:nonzero;stroke:none"
           d="m 16126.4,14827.3 c 173.6,91.7 108.4,252.2 108.4,252.2 0,0 0,0 -61.9,145.8 -61.8,145.8 -269.3,316.7 -523.4,407.9 -254.2,91.2 -397,109.3 -397,109.3 -102.9,-27.8 -196.9,-115.6 -196.9,-115.6 0,0 -258,70.5 -440.4,-294.7 -182.5,-365.2 -160.3,-794.8 -155.5,-804.4 4.7,-9.6 256.4,-76.9 358.3,-42.8 102,34 196,96.4 196,96.4 0,0 372.4,-241.5 390.5,-227.9 18.2,13.6 618.2,424.7 618.2,424.7 l 84.3,33.8 c 4.9,5.9 11.2,11 19.4,15.3" /></g><g
         transform="scale(1.0086)"
         id="g44"><path
           id="path46"
           style="fill:#fbc398;fill-opacity:1;fill-rule:nonzero;stroke:none"
           d="m 16300,14986.9 c 0,0 -35.8,-267.3 -52.5,-324.7 -16.9,-57.4 -131.9,-197.1 -142.4,-223.4 -10.5,-26.3 -10.1,-359.5 -22.5,-373.2 -12.5,-13.6 -123.3,27 -131.8,20.3 -8.4,-6.7 -71,-95.6 -73.7,-106.2 -2.6,-10.6 -16.5,-28.7 -16.5,-28.7 0,0 -14.6,-43.6 -33.7,-58.6 -19.1,-15.1 -41.2,-47.5 -51.3,-59 -10.1,-11.5 -89.1,-155.1 -118.5,-166 -29.3,-10.8 -334.1,138.9 -374,178 -39.9,39.1 -170.9,442.8 -166.2,507.1 4.5,64.4 89,219.4 89,219.4 0,0 -112.1,94.5 -102.9,223.2 9.3,128.8 126.1,299.8 244.6,268.7 118.6,-31.1 89.3,-194.7 80.5,-238.2 -8.8,-43.4 -16.7,-101.4 -13.5,-107.8 3.3,-6.5 127.7,65.3 181.6,110.6 53.8,45.4 77.9,228.1 129.4,281.7 51.7,53.5 172.4,74.4 218.6,66.3 46.2,-8.1 355.8,-189.5 355.8,-189.5" /></g><path
         id="path48"
         style="fill:#df9866;fill-opacity:1;fill-rule:nonzero;stroke:none"
         d="m 15484.9,13989.4 c 49.8,-55.2 126.2,-117.5 185.8,-163.1 -100.9,45 -298.2,85.9 -323.4,110.6 -40.3,39.5 -141.5,420.3 -136.8,485.2 4.7,65 126.2,275.1 126.2,275.1 0,0 -37.8,-167.2 -36.1,-255.6 1.6,-88.4 92.4,-350.4 184.3,-452.2" /><path
         id="path50"
         style="fill:#100f0d;fill-opacity:1;fill-rule:nonzero;stroke:none"
         d="m 12553.6,9947.4 c 0,0 525.7,192.4 1332.9,70.3 v 103.3 l -335.7,225.9 82.3,-155.5 c 0,0 -704,42.2 -1079.5,-244" /><g
         transform="scale(1.03139)"
         id="g52"><path
           id="path54"
           style="fill:#3970c1;fill-opacity:1;fill-rule:nonzero;stroke:none"
           d="m 14393.8,5034.16 c 0,0 -201.1,-130.6 -225.9,-201.18 -24.7,-70.59 -201.2,-727.17 -95.3,-818.99 105.9,-91.72 607.2,-45.86 769.6,-102.39 162.4,-56.43 751.9,-172.97 1104.9,52.94 352.9,226.01 190.6,431.17 -49.5,468.01 -240,36.84 -596.5,117.99 -780.1,301.53 -183.5,183.64 -112.9,345.94 -158.9,377.75 -45.9,31.8 -179.9,10.56 -179.9,10.56 0,0 -248.3,35.3 -272.5,28.32 -24.1,-7.08 -112.4,-116.55 -112.4,-116.55" /></g><path
         id="path56"
         style="fill:#f5f6f5;fill-opacity:1;fill-rule:nonzero;stroke:none"
         d="m 14702.1,5452.3 c -17,-316.1 -23.9,-527.9 -23.9,-527.9 0,0 127.5,-99.9 258.5,-70.8 131.1,29.1 167.5,349.5 196.6,371.4 29.2,21.8 228.8,64.5 228.8,64.5 0,0 5.1,63.7 7.1,162.8 -207.5,-31.8 -529.6,13.3 -667.1,0" /><path
         id="path58"
         style="fill:#8e908d;fill-opacity:1;fill-rule:nonzero;stroke:none"
         d="m 14125.8,4752 h -2147.1 v 478.7 h 2147.1 V 4752" /><path
         id="path60"
         style="fill:#fbc398;fill-opacity:1;fill-rule:nonzero;stroke:none"
         d="m 15717.6,12707.8 c -80.6,85.1 -125.3,130.5 -125.3,130.5 0,0 7.2,352 -100.8,577.3 -107.9,225.3 -380.1,600.7 -1006.6,558.5 0,0 -482.8,-56.3 -695.5,-619.5 -212.7,-563.2 369.3,-1257.8 805.7,-1023.1 0,0 305.1,-422.4 591.4,-567.9 286.3,-145.5 436.4,-253.4 506.8,-342.6 8,-10.1 16.1,-20.3 24.3,-30.6 v 1317.4" /><path
         id="path62"
         style="fill:#df9866;fill-opacity:1;fill-rule:nonzero;stroke:none"
         d="m 14595.1,12331.5 c 0,0 -272.2,314.4 -366,492.8 0,0 -18.8,-267.3 183,-539.6 0,0 93.9,-4.9 183,46.8" /><g
         id="g64"><g
           clip-path="url(#clipPath70)"
           id="g66"><path
             id="path72"
             style="fill:#edaa7d;fill-opacity:1;fill-rule:nonzero;stroke:none"
             d="m 14299.5,12692.8 h 924.5 v 525.629 h -924.5 z" /></g></g><g
         transform="scale(1.05756)"
         id="g74"><path
           id="path76"
           style="fill:#fbc398;fill-opacity:1;fill-rule:nonzero;stroke:none"
           d="m 14862.2,10770.5 c 0,0 272.9,-279.5 432.7,-339.4 159.8,-59.9 264.1,-71 308.4,-57.7 44.4,13.3 133.1,175.6 133.1,175.6 0,0 292.9,379.1 395,751.9 102,372.7 168.6,914.1 168.6,914.1 h -273.6 c 0,0 -68,-199.7 -245.6,-343.9 -177.5,-144.2 -423,-437.1 -423,-437.1 l -189.4,146.4 c 0,0 -4.4,208.6 -106.5,386.1 -102.1,177.5 -353.2,337.3 -353.2,337.3 l -122.5,-994.1 276,-539.2" /></g><path
         id="path78"
         style="fill:#df9866;fill-opacity:1;fill-rule:nonzero;stroke:none"
         d="m 15600.3,12683.9 c 0,0 -3.5,208.1 -13.4,306.8 l 62.4,-45.3 c 0,0 12,-153.1 -49,-261.5" /><path
         id="path80"
         style="fill:#df9866;fill-opacity:1;fill-rule:nonzero;stroke:none"
         d="m 16241.8,12092.1 c 0,0 -85.5,-77.3 -115,-211.7 -2.2,-10 -4,-20.2 -5.5,-30.8 -21.9,-153.3 -25.1,103.3 0,190.9 25,87.6 -79.8,206.5 -79.8,206.5 l 200.3,-154.9" /><g
         transform="scale(1.00487)"
         id="g82"><path
           id="path84"
           style="fill:#edaa7d;fill-opacity:1;fill-rule:nonzero;stroke:none"
           d="m 16254.3,11136.2 c -83.7,0 -251.4,27.9 -229.1,255.1 0,0 113.7,-238.2 274.8,-252.2 0,0 -18.4,-2.9 -45.7,-2.9" /></g><g
         transform="scale(1.11621)"
         id="g86"><path
           id="path88"
           style="fill:#414042;fill-opacity:1;fill-rule:nonzero;stroke:none"
           d="m 16300,12330 c 0,-483 -391.6,-874.5 -874.6,-874.5 -482.9,0 -874.5,391.5 -874.5,874.5 0,483 391.6,874.6 874.5,874.6 483,0 874.6,-391.6 874.6,-874.6" /></g><g
         transform="scale(1.09674)"
         id="g90"><path
           id="path92"
           style="fill:#4d4e51;fill-opacity:1;fill-rule:nonzero;stroke:none"
           d="m 16300,12535 c 0,-331.8 -269,-600.8 -600.8,-600.8 -331.8,0 -600.8,269 -600.8,600.8 0,331.7 269,600.7 600.8,600.7 331.8,0 600.8,-269 600.8,-600.7" /></g><g
         transform="scale(1.07034)"
         id="g94"><path
           id="path96"
           style="fill:#f5f6f5;fill-opacity:1;fill-rule:nonzero;stroke:none"
           d="m 16300,12847.8 c 0,-117.9 -95.6,-213.4 -213.5,-213.4 -117.9,0 -213.5,95.5 -213.5,213.4 0,117.9 95.6,213.5 213.5,213.5 117.9,0 213.5,-95.6 213.5,-213.5" /></g><g
         transform="scale(1.06333)"
         id="g98"><path
           id="path100"
           style="fill:#bebdbb;fill-opacity:1;fill-rule:nonzero;stroke:none"
           d="m 16300,12933.9 c 0,-59.4 -48.1,-107.5 -107.4,-107.5 -59.3,0 -107.4,48.1 -107.4,107.5 0,59.3 48.1,107.4 107.4,107.4 59.3,0 107.4,-48.1 107.4,-107.4" /></g><path
         id="path102"
         style="fill:#414042;fill-opacity:1;fill-rule:nonzero;stroke:none"
         d="m 2608.36,4712.1 h -546.75 v 546.8 h 546.75 v -546.8" /><path
         id="path104"
         style="fill:#414042;fill-opacity:1;fill-rule:nonzero;stroke:none"
         d="m 5302.23,4712.1 h -546.75 v 546.8 h 546.75 v -546.8" /><path
         id="path106"
         style="fill:#8e908d;fill-opacity:1;fill-rule:nonzero;stroke:none"
         d="m 3903.67,5054.7 h -485.74 v 2928.6 h 485.74 V 5054.7" /><path
         id="path108"
         style="fill:#414042;fill-opacity:1;fill-rule:nonzero;stroke:none"
         d="M 6001.51,7927 H 1805.83 v 654.6 H 6001.51 V 7927" /><path
         id="path110"
         style="fill:#8e908d;fill-opacity:1;fill-rule:nonzero;stroke:none"
         d="m 6055.48,8581.6 h -478.7 v 2666.1 h 478.7 V 8581.6" /><path
         id="path112"
         style="fill:#fbc398;fill-opacity:1;fill-rule:nonzero;stroke:none"
         d="m 4419.07,8334 c 0,0 329.48,-5.1 628.54,0 299.06,5 613.34,-30.5 613.34,-30.5 0,0 -253.45,-552.5 -268.66,-1003.6 -15.2,-451.1 -70.96,-2169.5 -70.96,-2169.5 0,0 207.83,-45.6 233.17,-25.3 25.34,20.3 96.31,-96.3 157.14,-96.3 60.82,0 246.68,239.9 246.68,239.9 l 523.78,2629.1 c 0,0 228.1,380.1 91.24,876.9 -136.86,496.7 -1221.6,958 -1221.6,958 0,0 -587.99,-30.4 -674.16,-278.8 C 4591.42,9185.5 4419.07,8334 4419.07,8334" /><path
         id="path114"
         style="fill:#252323;fill-opacity:1;fill-rule:nonzero;stroke:none"
         d="m 4516.13,10121 v -103.3 l 840.07,-305 c 0,0 -258.12,-356.7 -394.22,-666.4 -136.11,-309.8 -469.32,-807.3 -469.32,-807.3 0,0 -877.62,225.3 -1290.61,295.7 -413,70.4 -826,488.1 -826,999.7 0,511.5 225.27,854.1 342.6,1037.1 117.33,183.1 173.65,276.9 173.65,276.9 0,0 966.79,173.7 1070.04,56.4 103.25,-117.4 281.59,-173.7 431.77,-342.6 150.18,-169 122.02,-441.2 122.02,-441.2" /><path
         id="path116"
         style="fill:#3970c0;fill-opacity:1;fill-rule:nonzero;stroke:none"
         d="m 5332.73,14309.6 -736.82,-86.8 c 0,0 -333.21,-145.5 -520.94,-352 -187.72,-206.5 -225.27,-488.1 -281.58,-591.3 -56.33,-103.3 -366.07,-713.4 -535.03,-1126.4 -168.95,-413 -366.06,-1304.7 -366.06,-1304.7 0,0 417.69,-122 793.14,-253.4 375.45,-131.4 830.69,-474 830.69,-474 0,0 206.5,300.4 347.29,506.9 140.79,206.5 436.46,797.8 436.46,797.8 l 220.58,445.8 c 0,0 525.63,1398.6 408.31,1830.4 -117.33,431.7 -596.04,607.7 -596.04,607.7" /><path
         id="path118"
         style="fill:#252323;fill-opacity:1;fill-rule:nonzero;stroke:none"
         d="m 5176.53,12388.5 c 0,0 -385.07,-460.6 -385.07,-495.1 0,-34.4 2305.9,-1964.8 2395.07,-1969.5 89.17,-4.7 385.62,408.3 391.88,436.5 6.25,28.1 -583.57,454.9 -583.57,454.9 0,0 -1148.17,1359.7 -1244.42,1400 -96.23,40.3 -573.89,173.2 -573.89,173.2" /><path
         id="path120"
         style="fill:#fbc398;fill-opacity:1;fill-rule:nonzero;stroke:none"
         d="m 5114.51,13974.1 c 0,0 -482.75,-56.3 -695.44,-619.5 -212.69,-563.2 369.26,-1257.8 805.73,-1023.1 0,0 305.05,-422.4 591.33,-567.9 286.28,-145.5 436.46,-253.4 506.86,-342.6 70.4,-89.2 145.49,-183 286.28,-258.1 0,0 441.15,-478.7 872.93,-628.9 431.76,-150.2 807.22,-244.1 807.22,-244.1 l 126.71,413 c 0,0 -300.36,98.6 -577.25,356.7 -276.9,258.2 -389.54,455.3 -624.19,643 -234.66,187.7 -342.6,253.4 -342.6,253.4 0,0 -89.17,281.6 -305.06,516.3 -215.88,234.6 -345.07,366 -345.07,366 0,0 7.16,352 -100.77,577.3 -107.95,225.3 -380.15,600.7 -1006.68,558.5" /><path
         id="path122"
         style="fill:#df9866;fill-opacity:1;fill-rule:nonzero;stroke:none"
         d="m 5224.79,12331.5 c 0,0 -272.2,314.4 -366.06,492.8 0,0 -18.77,-267.3 183.03,-539.6 0,0 93.87,-4.9 183.03,46.8" /><path
         id="path124"
         style="fill:#edaa7d;fill-opacity:1;fill-rule:nonzero;stroke:none"
         d="m 5643.18,12692.8 c -244.74,0 -626.45,75.1 -714.05,525.7 0,0 159.56,-502.2 924.54,-506.9 0,0 -88.13,-18.8 -210.49,-18.8" /><path
         id="path126"
         style="fill:#100f0d;fill-opacity:1;fill-rule:nonzero;stroke:none"
         d="m 3183.28,9947.4 c 0,0 525.63,192.4 1332.85,70.3 v 103.3 l -335.71,225.9 82.28,-155.5 c 0,0 -703.97,42.2 -1079.42,-244" /><path
         id="path128"
         style="fill:#3970c1;fill-opacity:1;fill-rule:nonzero;stroke:none"
         d="m 5475.35,5192.2 c 0,0 -207.52,-134.7 -233.01,-207.5 -25.49,-72.8 -207.53,-750 -98.3,-844.7 109.22,-94.6 626.21,-47.3 793.69,-105.6 167.48,-58.2 775.49,-178.4 1139.57,54.6 364.09,233.1 196.61,444.7 -50.97,482.7 -247.57,38 -615.29,121.7 -804.62,311 -189.32,189.4 -116.5,356.8 -163.83,389.6 -47.33,32.8 -185.68,10.9 -185.68,10.9 0,0 -256.03,36.4 -280.93,29.2 -24.9,-7.3 -115.92,-120.2 -115.92,-120.2" /><path
         id="path130"
         style="fill:#f5f6f5;fill-opacity:1;fill-rule:nonzero;stroke:none"
         d="m 5331.79,5452.3 c -17.07,-316.1 -23.98,-527.9 -23.98,-527.9 0,0 127.49,-99.9 258.56,-70.8 131.07,29.1 167.48,349.5 196.6,371.4 29.13,21.8 228.72,64.5 228.72,64.5 0,0 5.14,63.7 7.19,162.8 -207.52,-31.8 -529.66,13.3 -667.09,0" /><path
         id="path132"
         style="fill:#8e908d;fill-opacity:1;fill-rule:nonzero;stroke:none"
         d="M 4755.48,4752 H 2608.36 v 478.7 H 4755.48 V 4752" /><path
         id="path134"
         style="fill:#414042;fill-opacity:1;fill-rule:nonzero;stroke:none"
         d="m 10075.4,10271.5 c 0,-539.1 -437.07,-976.2 -976.2,-976.2 -539.12,0 -976.17,437.1 -976.17,976.2 0,539.1 437.05,976.2 976.17,976.2 539.13,0 976.2,-437.1 976.2,-976.2" /><path
         id="path136"
         style="fill:#4d4e51;fill-opacity:1;fill-rule:nonzero;stroke:none"
         d="m 9758.07,10256.2 c 0,-363.9 -294.99,-658.8 -658.87,-658.8 -363.88,0 -658.86,294.9 -658.86,658.8 0,363.9 294.98,658.9 658.86,658.9 363.88,0 658.87,-295 658.87,-658.9" /><path
         id="path138"
         style="fill:#f5f6f5;fill-opacity:1;fill-rule:nonzero;stroke:none"
         d="m 9327.67,10260.1 c 0,-126.2 -102.29,-228.5 -228.47,-228.5 -126.18,0 -228.46,102.3 -228.46,228.5 0,126.2 102.28,228.5 228.46,228.5 126.18,0 228.47,-102.3 228.47,-228.5" /><path
         id="path140"
         style="fill:#bebdbb;fill-opacity:1;fill-rule:nonzero;stroke:none"
         d="m 9213.44,10261.5 c 0,-63.1 -51.15,-114.2 -114.24,-114.2 -63.09,0 -114.23,51.1 -114.23,114.2 0,63.1 51.14,114.3 114.23,114.3 63.09,0 114.24,-51.2 114.24,-114.3" /><path
         id="path142"
         style="fill:#fbc398;fill-opacity:1;fill-rule:nonzero;stroke:none"
         d="m 6054.58,14074.6 -221.76,-386 c 0,0 -165.63,279 -462.02,396.6 -296.39,117.7 -762.77,69.8 -775.85,87.2 -13.07,17.5 143.84,80.6 143.84,80.6 0,0 257.16,162.7 370.42,241.3 257.16,178.3 404.43,594.8 553.9,750.9 149.47,156.1 590.85,-305.5 740.7,-353.6 149.86,-48.1 366.13,95.9 322.54,-209.2 -43.58,-305.1 -17.43,-326.9 -165.63,-475.1 -148.19,-148.2 -506.14,-132.7 -506.14,-132.7" /><path
         id="path144"
         style="fill:#252323;fill-opacity:1;fill-rule:nonzero;stroke:none"
         d="m 7068.9,15115.1 c 177.08,93.5 110.49,257.1 110.49,257.1 0,0 0,0 -63,148.7 -63,148.6 -274.59,322.9 -533.65,415.8 -259.06,93 -404.71,111.4 -404.71,111.4 -104.9,-28.3 -200.67,-117.9 -200.67,-117.9 0,0 -263,71.9 -449.02,-300.4 -186.02,-372.3 -163.39,-810.2 -158.53,-820 4.87,-9.8 261.45,-78.4 365.36,-43.7 103.91,34.7 199.73,98.3 199.73,98.3 0,0 379.67,-246.2 398.13,-232.3 18.47,13.8 630.16,433 630.16,433 l 85.95,34.4 c 4.99,6 11.52,11.2 19.76,15.6" /><path
         id="path146"
         style="fill:#fbc398;fill-opacity:1;fill-rule:nonzero;stroke:none"
         d="m 7068.9,15115.1 c 0,0 -36.05,-269.7 -53,-327.5 -16.95,-57.9 -132.91,-198.8 -143.52,-225.4 -10.59,-26.5 -10.2,-362.6 -22.77,-376.3 -12.57,-13.8 -124.31,27.1 -132.86,20.4 -8.54,-6.8 -71.65,-96.4 -74.34,-107.1 -2.69,-10.7 -16.62,-28.9 -16.62,-28.9 0,0 -14.75,-44 -34.01,-59.2 -19.26,-15.2 -41.53,-47.8 -51.72,-59.5 -10.18,-11.6 -89.92,-156.4 -119.54,-167.4 -29.62,-10.9 -336.93,140.1 -377.2,179.6 -40.28,39.4 -172.4,446.5 -167.72,511.5 4.68,64.9 89.84,221.2 89.84,221.2 0,0 -113.11,95.3 -103.75,225.2 9.36,129.8 127.16,302.3 246.7,270.9 119.53,-31.4 90.03,-196.3 81.14,-240.2 -8.89,-43.8 -16.82,-102.2 -13.57,-108.8 3.24,-6.5 128.82,65.9 183.1,111.7 54.28,45.7 78.57,230 130.62,284 52.05,54 173.73,75 220.35,66.9 46.62,-8.2 358.87,-191.1 358.87,-191.1" /><path
         id="path148"
         style="fill:#df9866;fill-opacity:1;fill-rule:nonzero;stroke:none"
         d="m 6113.59,13988.7 c 49.8,-55.2 126.23,-117.6 185.83,-163.2 -100.9,45.1 -308.67,79.3 -333.89,104 -40.28,39.5 -130.94,426.9 -126.26,491.9 4.68,64.9 126.17,275.1 126.17,275.1 0,0 -37.79,-167.2 -36.14,-255.6 1.66,-88.4 92.39,-350.5 184.29,-452.2" /></g></g></svg>