<?xml version="1.0" encoding="UTF-8" standalone="no"?>
<svg
   xmlns:dc="http://purl.org/dc/elements/1.1/"
   xmlns:cc="http://creativecommons.org/ns#"
   xmlns:rdf="http://www.w3.org/1999/02/22-rdf-syntax-ns#"
   xmlns:svg="http://www.w3.org/2000/svg"
   xmlns="http://www.w3.org/2000/svg"
   viewBox="0 0 2666.6667 2666.6667"
   height="2666.6667"
   width="2666.6667"
   xml:space="preserve"
   id="svg2"
   version="1.1"><metadata
     id="metadata8"><rdf:RDF><cc:Work
         rdf:about=""><dc:format>image/svg+xml</dc:format><dc:type
           rdf:resource="http://purl.org/dc/dcmitype/StillImage" /></cc:Work></rdf:RDF></metadata><defs
     id="defs6" /><g
     transform="matrix(1.3333333,0,0,-1.3333333,0,2666.6667)"
     id="g10"><g
       transform="scale(0.1)"
       id="g12"><g
         transform="scale(1.22699)"
         id="g14"><path
           id="path16"
           style="fill:none;fill-opacity:1;fill-rule:nonzero;stroke:none"
           d="M 16300,0 H 0 V 16300 H 16300 V 0" /></g><path
         id="path18"
         style="fill:#686b6e;fill-opacity:1;fill-rule:nonzero;stroke:none"
         d="m 13007.8,4237.3 c 26.9,-7.7 204.5,-225.6 244.8,-524.2 40.4,-298.6 -86.3,-645.6 -86.3,-645.6 l -508.2,290.5 -67.3,702.1 417,177.2" /><path
         id="path20"
         style="fill:#4a4d51;fill-opacity:1;fill-rule:nonzero;stroke:none"
         d="m 13007.8,3983.7 c 0,0 50.8,-109.6 59,-331.3 8.3,-221.7 -104.8,-468.1 -126.6,-455.7 -21.7,12.5 -313.8,251.3 -313.8,251.3 l 381.4,535.7" /><path
         id="path22"
         style="fill:#d4d4d2;fill-opacity:1;fill-rule:nonzero;stroke:none"
         d="m 13559.3,2268.5 104.9,209.9 c 0,0 320.8,81 347,88.9 26.2,7.9 129.1,-149.4 129.1,-149.4 0,0 234.1,-100.9 274.4,-149.4 40.4,-48.4 64.6,-205.7 64.6,-205.7 l -177.6,-84.8 -177.5,84.8 -247.8,-92.9 c 0,0 -260.4,97 -284.7,92.9 -24.4,-4.1 -32.4,205.7 -32.4,205.7" /><path
         id="path24"
         style="fill:#252323;fill-opacity:1;fill-rule:nonzero;stroke:none"
         d="m 9127.05,2325 122.7,-112.9 c 0,0 2582.45,-411.6 2647.05,-403.6 64.6,8.1 484.2,64.6 484.2,153.4 0,88.7 38.3,271 0,451.9 -38.3,180.9 411.6,330.9 -314.7,387.4 -726.3,56.5 -1081.4,51.1 -1525.3,33.6 -443.9,-17.5 -1532.61,-82 -1549.12,-106.3 -16.52,-24.2 -17,-234 -17,-234 L 9127.05,2325" /><path
         id="path26"
         style="fill:#d4d4d2;fill-opacity:1;fill-rule:nonzero;stroke:none"
         d="m 4162.78,2834.8 -236.73,138.5 -301.28,-341.6 634.85,-145.3 -96.84,348.4" /><path
         id="path28"
         style="fill:#4a4d51;fill-opacity:1;fill-rule:nonzero;stroke:none"
         d="m 11678.9,1505.8 c 40.4,-44.3 306.7,-181.5 306.7,-181.5 l 1890.8,645.6 -212.2,427.8 -1944.9,-589.3 -40.4,-302.6" /><path
         id="path30"
         style="fill:#9f9f9e;fill-opacity:1;fill-rule:nonzero;stroke:none"
         d="m 4539.39,2927.6 -199.06,91.5 -414.28,-45.8 333.57,-486.9 446.56,104.9 -166.79,336.3" /><path
         id="path32"
         style="fill:#252323;fill-opacity:1;fill-rule:nonzero;stroke:none"
         d="m 4953.67,3148.9 344.47,-444.6 -591.96,-113 c 0,0 -392.75,417 -365.85,427.8 26.9,10.7 613.34,129.8 613.34,129.8" /><path
         id="path34"
         style="fill:#100f0d;fill-opacity:1;fill-rule:nonzero;stroke:none"
         d="m 6965.86,2777 c -56.49,-24.2 -313.27,-153.4 -313.27,-153.4 l -259.72,-32.3 c 0,0 -340.26,258.3 -64.56,379.4 275.7,121 431.53,121.9 460,89.2 28.47,-32.8 177.55,-282.9 177.55,-282.9" /><path
         id="path36"
         style="fill:#252323;fill-opacity:1;fill-rule:nonzero;stroke:none"
         d="m 5698.83,2930.3 112.98,-226 581.06,-113 c 0,0 282.46,266.4 258.25,290.6 -24.21,24.2 -589.13,282.4 -629.48,266.3 -40.36,-16.1 -322.81,-217.9 -322.81,-217.9" /><path
         id="path38"
         style="fill:#4a4d51;fill-opacity:1;fill-rule:nonzero;stroke:none"
         d="m 5771.46,3611.3 -161.41,-75.7 c 0,0 -726.32,-161.4 -798.96,-193.7 -72.63,-32.3 -104.91,-226 -104.91,-226 l 419.65,-411.6 h 685.98 l 145.27,177.6 3169.97,-556.9 -152.17,734.4 c 0,0 -1149.79,727.8 -2091.87,735.2 -942.08,7.3 -1111.55,-183.3 -1111.55,-183.3" /><path
         id="path40"
         style="fill:#9f9f9e;fill-opacity:1;fill-rule:nonzero;stroke:none"
         d="m 13292.9,3132.1 c 0,0 -290.5,-217.9 -153.3,-347.1 137.2,-129.1 992.7,-250.1 1162.1,-209.8 169.5,40.4 209.9,121.1 209.9,121.1 0,0 129.1,129.1 137.2,250.1 8,121.1 -16.2,540.7 -347.1,565 -330.8,24.2 -330.8,24.2 -330.8,24.2 0,0 -193.7,-186.3 -290.6,-339.3 l -216.2,-15.8 -171.2,-48.4" /><path
         id="path42"
         style="fill:#898b8b;fill-opacity:1;fill-rule:nonzero;stroke:none"
         d="M 13900.9,9308.5 C 13890.2,9292.4 13831,7710.6 13777.2,7436.2 13723.4,7161.8 13336,5919 13336,5919 l -328.2,-704.8 150.6,-285.2 177.6,-145.2 c 0,0 634.9,1891.1 755.9,2593.2 121.1,702.1 104.9,2345.8 104.9,2345.8 l -295.9,-414.3" /><path
         id="path44"
         style="fill:#9f9f9e;fill-opacity:1;fill-rule:nonzero;stroke:none"
         d="m 6142.69,6771.8 c 0,0 -403.52,-503.1 -669.83,-1256.3 C 5206.54,4762.3 5238.82,3939.1 5610.05,3535.6 5981.28,3132.1 8832.8,2454.2 10449.5,2325 c 1616.8,-129.1 1447.3,-108.9 1770.1,153.4 322.8,262.3 457.3,673.8 438.5,879.6 -18.8,205.8 138.5,387.4 -139.9,617.4 -278.4,230 -2275.3,1779.5 -2445,1888.4 -169.76,109 -2655.41,1476.9 -3930.51,908" /><path
         id="path46"
         style="fill:#b05c36;fill-opacity:1;fill-rule:nonzero;stroke:none"
         d="m 10008.4,9241.3 c 0,0 -64.61,-605.3 -137.24,-766.7 -72.63,-161.4 -330.88,-387.4 -387.38,-597.2 -56.49,-209.8 -221.4,-1509.2 -221.4,-1509.2 l 479.66,-314.7 c 0,0 581.06,1097.6 581.06,1121.8 0,24.2 540.7,1283.1 556.8,1396.1 16.2,113 -15,730.8 -114.8,777.5 -99.8,46.8 -253.1,41.5 -404,79.9 -151,38.4 -352.7,-187.5 -352.7,-187.5" /><path
         id="path48"
         style="fill:#252323;fill-opacity:1;fill-rule:nonzero;stroke:none"
         d="m 12784.5,5248.2 c 0,0 -137.2,-102.1 -209.8,-132.6 -72.6,-30.5 -435.8,-643.9 -435.8,-643.9 0,0 -484.2,521.9 -1254.9,1043.8 -770.7,521.9 -1957.06,1143.3 -2691.46,1401.5 -734.4,258.3 -1718.97,137.2 -1767.39,113 -48.42,-24.2 -282.46,-258.2 -282.46,-258.2 0,0 347.02,96.8 895.8,56.4 548.78,-40.3 1336.99,-228 2130.55,-734.4 793.57,-506.3 1831.96,-1186.3 2421.06,-1791.6 589.2,-605.2 782.8,-707.2 815.1,-894.3 32.3,-187.1 -185.6,-929.5 -185.6,-929.5 l 80.7,-209.9 524.6,48.5 -113,169.4 c 0,0 293.2,645.7 295.9,847.4 2.7,201.8 -53.8,395.5 -53.8,427.7 0,32.3 382,1022.3 382,1022.3 l -220.6,331.8 -330.9,132.6" /><path
         id="path50"
         style="fill:#4a4d51;fill-opacity:1;fill-rule:nonzero;stroke:none"
         d="m 13405.9,8988.2 58.2,-217.7 c 0,0 25.9,-2507.2 0,-2668.6 -25.9,-161.4 -305.7,-1172.9 -305.7,-1172.9 0,0 -360.4,-75.3 -500.3,209.9 0,0 290.5,882.3 322.8,1194.4 32.3,312 -16.1,2451.3 -16.1,2451.3 l 235.4,157.9 205.7,45.7" /><path
         id="path52"
         style="fill:#c1bfbd;fill-opacity:1;fill-rule:nonzero;stroke:none"
         d="m 9943.79,5327.2 c 0,0 -875.21,564.9 -1063.05,516.5 -187.84,-48.4 -43.54,-452 94.14,-855.5 137.67,-403.5 395.92,-634.8 395.92,-634.8 l 769.2,-369.7 c 0,0 201.1,-45.8 196.3,140.9 -4.8,186.7 -392.51,1202.6 -392.51,1202.6" /><path
         id="path54"
         style="fill:#3a3b3d;fill-opacity:1;fill-rule:nonzero;stroke:none"
         d="m 9070.36,3983.7 4045.04,-1101.8 348.7,298.6 -4270.05,1160.2 -123.69,-357" /><path
         id="path56"
         style="fill:#252323;fill-opacity:1;fill-rule:nonzero;stroke:none"
         d="m 13685.7,9098.7 -221.6,-328.2 c 0,0 -176.5,-5.4 -203.4,-21.5 -26.9,-16.2 -174.9,-150.7 -174.9,-150.7 l -121,-365.8 c 0,0 -236.8,113 -247.5,134.5 -10.8,21.5 16.1,495 21.5,511.1 5.4,16.1 59.2,454.2 301.3,458.5 242.1,4.2 586.4,-60.4 581.1,-71.1 -5.4,-10.8 64.5,-166.8 64.5,-166.8" /><path
         id="path58"
         style="fill:#252323;fill-opacity:1;fill-rule:nonzero;stroke:none"
         d="m 13841.7,9190.1 591.9,48.5 c 0,0 131.6,63.7 149.2,282 17.5,218.3 -192.3,315.2 -208.4,320.6 -16.2,5.3 -408.9,37.6 -408.9,37.6 l -199.1,-5.4 -145.2,-338.9 220.5,-344.4" /><path
         id="path60"
         style="fill:#4a4d51;fill-opacity:1;fill-rule:nonzero;stroke:none"
         d="m 12442.9,10135.8 365.8,28.2 554.2,-212.6 403.5,-78 c 0,0 156,-118.3 199.1,-349.7 43,-231.3 -91.5,-404.3 -161.4,-446.9 -70,-42.7 -930.8,-85.7 -930.8,-85.7 0,0 -242.1,260.1 -306.7,442.1 -64.5,182 -166.8,408 -188.3,440.2 -21.5,32.3 64.6,262.4 64.6,262.4" /><path
         id="path62"
         style="fill:#4a4d51;fill-opacity:1;fill-rule:nonzero;stroke:none"
         d="m 10059,4261.9 c 0,0 -516.03,80.7 -688.2,91.5 -172.16,10.7 -478.83,-70 -489.59,-172.2 -10.76,-102.2 166.78,-193.7 360.47,-279.8 193.68,-86.1 1646.32,-462.7 1985.32,-489.6 338.9,-26.9 715.5,91.5 763.9,150.7 48.5,59.2 43.1,204.4 -102.2,403.5 -145.2,199.1 -1006.1,408.9 -1027.6,425 -21.5,16.2 -802.1,-129.1 -802.1,-129.1" /><path
         id="path64"
         style="fill:#252323;fill-opacity:1;fill-rule:nonzero;stroke:none"
         d="m 12808.7,11283 v -1119 l 123.8,-290.6 430.4,78 v 1482.3 l -554.2,-150.7" /><path
         id="path66"
         style="fill:#636669;fill-opacity:1;fill-rule:nonzero;stroke:none"
         d="m 12335.3,11681.2 v -430.4 c 0,0 43,-123.8 209.8,-139.9 166.8,-16.2 866.2,26.9 868.9,48.4 2.7,21.5 51.1,1140.6 56.5,1156.7 5.4,16.2 187.2,236.8 187.2,236.8 l 162.5,26.9 c 0,0 203.1,312.7 172.2,349.7 -30.9,37 -166.8,156 -578.4,53.8 -411.6,-102.2 -679.4,-258 -763.4,-328.2 -84,-70.2 -229.2,-116.8 -272.3,-192.9 -43,-76.1 -199,-356.6 -204.4,-396.6 -5.4,-40 53.8,-266 53.8,-266 l 107.6,-118.3" /><path
         id="path68"
         style="fill:#151312;fill-opacity:1;fill-rule:nonzero;stroke:none"
         d="m 13180,13002 c 8,32.3 0,282.5 0,282.5 0,0 323.4,24.2 557.1,32.3 233.8,8 355.6,21.6 383.5,-32.2 27.8,-53.9 9.8,-317.6 0,-349.8 -9.9,-32.3 -222.4,-94.2 -222.4,-94.2 l -484.2,-84.8 -234,246.2" /><path
         id="path70"
         style="fill:#717374;fill-opacity:1;fill-rule:nonzero;stroke:none"
         d="m 10298.2,4305.4 v 0 c 212.2,37.9 497.1,86.9 553.4,86.9 2.3,0 4.1,-0.1 5.6,-0.3 -1.5,0.2 -3.3,0.3 -5.6,0.3 -56.3,0 -341.2,-49 -553.4,-86.9 m 578.6,79.7 v 0 0 m -0.7,0.2 h -0.1 0.1 m -0.4,0.1 c 0,0 0,0 -0.1,0 0.1,0 0.1,0 0.1,0 m -0.3,0.1 c 0,0 -0.1,0 -0.1,0.1 0,-0.1 0.1,-0.1 0.1,-0.1 m -0.3,0.1 c -6.4,2.1 -10.8,3.7 -12.9,4.8 2.1,-1.1 6.5,-2.7 12.9,-4.8 m -13,4.8 c 0,0 0,0 0,0.1 0,-0.1 0,-0.1 0,-0.1 m -0.1,0.1 c 0,0 0,0 -0.1,0 0.1,0 0.1,0 0.1,0 m -0.1,0 c 0,0 0,0.1 -0.1,0.1 0.1,0 0.1,-0.1 0.1,-0.1 m -0.1,0.1 v 0 0 m -0.1,0 c 0,0.1 0,0.1 0,0.1 0,0 0,0 0,-0.1 m -0.1,0.1 c 0,0 0,0 -0.1,0 0.1,0 0.1,0 0.1,0 m -0.1,0.1 v 0 0 m -0.1,0 v 0 0 m -0.1,0.1 v 0 0 m 0,0 h -0.1 0.1 m -0.1,0.1 v 0 0" /><path
         id="path72"
         style="fill:#878888;fill-opacity:1;fill-rule:nonzero;stroke:none"
         d="m 10059,4261.9 c 0,0 -495.08,77.4 -677.18,90.7 182.1,-13.3 677.18,-90.7 677.18,-90.7 0,0 105.1,19.6 239.2,43.5 v 0 c -134.1,-24 -239.2,-43.5 -239.2,-43.5" /><path
         id="path74"
         style="fill:#3d3e41;fill-opacity:1;fill-rule:nonzero;stroke:none"
         d="m 10360.9,3857 -1386.02,416.7 c 97.17,48.5 250.25,80.6 363.48,80.6 11.24,0 22.08,-0.3 32.44,-0.9 3.53,-0.3 7.21,-0.5 11.02,-0.8 182.1,-13.3 677.18,-90.7 677.18,-90.7 0,0 105.1,19.5 239.2,43.5 212.2,37.9 497.1,86.9 553.4,86.9 2.3,0 4.1,-0.1 5.6,-0.3 2,-0.2 3.3,-0.5 3.9,-1 h 0.1 v 0 -0.1 h 0.1 v 0 0 c 0.1,0 0.1,-0.1 0.1,-0.1 v 0 c 0,0 0,0 0.1,0 v 0 -0.1 c 0.1,0 0.1,0 0.1,0 0,0 0,0 0.1,0 0,0 0,0 0,-0.1 0,0 0,0 0.1,0 v 0 0 c 0.1,0 0.1,-0.1 0.1,-0.1 v 0 c 0.1,0 0.1,0 0.1,0 0,0 0,0 0.1,0 0,-0.1 0,-0.1 0,-0.1 0,0 0,0 0.1,0 2.1,-1.1 6.5,-2.7 12.9,-4.8 0.1,0 0.1,0 0.2,0 0,-0.1 0.1,-0.1 0.1,-0.1 0.1,0 0.2,0 0.2,-0.1 0.1,0 0.1,0 0.1,0 0.1,0 0.2,0 0.3,-0.1 h 0.1 c 0.2,-0.1 0.4,-0.2 0.7,-0.2 v 0 c 102.8,-33.2 671,-180.6 917.9,-338.5 -35.1,-38.1 -86.3,-82.5 -147.9,-102.1 -91.9,-29.3 -278.5,-32.6 -356.9,-32.6 -22.4,0 -36,0.3 -36,0.3 0,0 -193.7,134.5 -242.1,145.3 -46.8,10.3 -168.8,80.9 -249.8,80.9 -2.9,0 -5.7,-0.1 -8.5,-0.2 -80.7,-5.4 -392.6,-281.2 -392.6,-281.2" /><path
         id="path76"
         style="fill:#252323;fill-opacity:1;fill-rule:nonzero;stroke:none"
         d="m 13180,13284.5 c -24.2,8 -1054.9,-564.9 -1124.6,-613.4 -69.8,-48.4 -182.8,-199.3 -166.7,-244.9 16.2,-45.6 339,-207 363.2,-198.9 24.2,8 1162.1,528.5 1162.1,528.5 l -234,528.7" /><path
         id="path78"
         style="fill:#4a4d51;fill-opacity:1;fill-rule:nonzero;stroke:none"
         d="m 14430.9,14518.1 c 0,0 -64.6,-701 -121.1,-838.2 -56.5,-137.2 -363.1,-742.5 -411.6,-839.3 -48.4,-96.8 -314.7,-589.1 -484.2,-790.9 -169.5,-201.7 0,-338.9 0,-338.9 0,0 336.3,338.9 551.5,782.8 215.2,443.8 502.8,847.4 617.3,1242.8 114.4,395.5 154.7,847.4 154.7,847.4 l -306.6,-65.7" /><path
         id="path80"
         style="fill:#4a4d51;fill-opacity:1;fill-rule:nonzero;stroke:none"
         d="m 14249.3,10560.8 c 0,0 -111.7,-74 -149.3,-127.8 -37.7,-53.8 -134.5,-554.2 -134.5,-554.2 0,0 80.7,-129.1 231.3,-156 150.7,-26.9 231.4,0 231.4,0 0,0 113,355.1 145.2,473.4 32.3,118.4 -29.6,320.2 -29.6,320.2 l -294.5,44.4" /><g
         transform="scale(1.00762)"
         id="g82"><path
           id="path84"
           style="fill:#898b8b;fill-opacity:1;fill-rule:nonzero;stroke:none"
           d="m 15627.2,15010.1 c 0,0 232.4,420.5 268.4,464.6 36,44 180.2,44 292.3,-44.1 112.1,-88.1 52.1,-188.2 0,-248.3 -52.1,-60 -172.2,-324.4 -172.2,-324.4 l -214.9,-152.1 -197.6,24 c 0,0 -114.8,69.2 -114.8,89.3 0,20.1 138.8,191 138.8,191" /></g><path
         id="path86"
         style="fill:#898b8b;fill-opacity:1;fill-rule:nonzero;stroke:none"
         d="m 15606.4,14932 -69.9,-402 c 0,0 -343,-2020.3 -476.1,-2431.9 -133.2,-411.5 -544.8,-736.2 -641.6,-888.6 -96.9,-152.4 -169.5,-648.7 -169.5,-648.7 0,0 197.7,-92.9 294.5,-44.4 0,0 64.6,363.1 250.2,581 185.6,217.9 476.2,653.7 686,1275.1 209.8,621.4 420.6,2235.9 420.6,2235.9 l 149.8,300.9 c 0,0 42.9,139.9 -75.4,88.8 -118.4,-51.2 -368.6,-66.1 -368.6,-66.1" /><path
         id="path88"
         style="fill:#252323;fill-opacity:1;fill-rule:nonzero;stroke:none"
         d="m 10073.2,5515.5 c 0,0 -185.9,-10.8 -266.6,-53.8 -80.71,-43.1 -193.69,-360.5 -252.87,-462.7 -59.18,-102.2 -156.02,-236.7 -150.65,-301.3 5.38,-64.6 360.47,-290.5 457.32,-382 96.84,-91.5 236.7,-258.2 435.8,-414.3 199.1,-156 263.6,-48.4 392.7,0 129.2,48.4 99.6,96.9 195.1,86.1 95.5,-10.8 321.4,-80.7 369.9,-75.3 48.4,5.4 21.5,139.9 0,231.3 -21.6,91.5 -75.4,91.5 -209.9,295.9 -134.5,204.5 -328.2,521.9 -328.2,591.9 0,69.9 -16.1,170.2 -43,216.9 -26.9,46.7 -164.1,70.9 -164.1,70.9 0,0 -180.2,196.4 -207.1,196.4 -26.9,0 -228.4,0 -228.4,0" /><path
         id="path90"
         style="fill:#100f0d;fill-opacity:1;fill-rule:nonzero;stroke:none"
         d="m 9697.65,9083.9 1028.95,-7.1 c 0,0 177.6,624.5 -230,535.7 -407.5,-88.8 -609.3,-161.4 -633.51,-201.8 -24.21,-40.3 -165.44,-326.8 -165.44,-326.8" /><path
         id="path92"
         style="fill:#c37140;fill-opacity:1;fill-rule:nonzero;stroke:none"
         d="m 10274.7,9604.4 c 0,0 242.1,-476.1 258.2,-597.2 16.2,-121 8.1,-379.3 0,-460 -8,-80.7 -487.8,-484.2 -473.9,-992.6 13.9,-508.5 -115.21,-2227.4 -115.21,-2227.4 0,0 129.11,-234.1 234.01,-209.9 104.9,24.3 92.1,137.2 183.3,169.5 91.1,32.3 139.5,0 147.6,32.3 8.1,32.3 306.7,1170.2 540.7,1961.1 234.1,790.9 379.3,1137.9 460,1299.3 80.7,161.4 185.6,395.4 113,605.3 -72.6,209.8 -162.7,419.6 -162.7,419.6 0,0 -369.9,429.1 -515.2,408.3 -145.3,-20.9 -669.8,-408.3 -669.8,-408.3" /><path
         id="path94"
         style="fill:#4a4d51;fill-opacity:1;fill-rule:nonzero;stroke:none"
         d="m 12087.8,10379.2 c 0,0 -26.9,-16.2 -32.3,-96.9 -5.4,-80.7 123.8,-849.1 123.8,-849.1 l 559.5,85.1 c 0,0 -48.4,339 -129.1,559.6 -80.7,220.6 -231.4,328.2 -231.4,328.2 l -290.5,-26.9" /><path
         id="path96"
         style="fill:#252323;fill-opacity:1;fill-rule:nonzero;stroke:none"
         d="m 9572.56,12832.5 c 0,0 -286.49,-435.8 -308.68,-1081.4 -22.2,-645.6 207.8,-1456.7 308.68,-1953 100.88,-496.3 64.56,-677.9 125.09,-714.2 60.52,-36.3 254.21,72.6 544.75,181.6 290.5,108.9 1217.3,338.9 1217.3,338.9 v 774.8 c 0,0 1.3,1509.1 -14.8,2049.8 -16.2,540.7 -1272.4,913.2 -1272.4,913.2 l -599.94,-509.7" /><g
         transform="scale(1.00264)"
         id="g98"><path
           id="path100"
           style="fill:#c37140;fill-opacity:1;fill-rule:nonzero;stroke:none"
           d="m 11181.2,16131 c 16.2,32.2 168.2,160.1 168.2,160.1 0,0 306.8,8.9 572.4,-160.1 265.6,-169.1 370.2,-466.9 402.4,-499.1 32.2,-32.2 523.2,-144.8 684.2,-241.4 161,-96.6 354.2,-314 354.2,-314 0,0 370.2,-8 764.6,-96.5 394.4,-88.6 1159.1,-72.5 1159.1,-72.5 l -48.4,-400.8 c 0,0 -1006,-146.5 -1408.6,-170.7 -402.4,-24.1 -692.1,56.4 -845,96.6 -153,40.3 -788.9,120.8 -1118.9,273.7 -330,152.9 -458.8,853.2 -458.8,949.8 0,96.6 -225.4,474.9 -225.4,474.9" /></g><g
         transform="scale(1.01403)"
         id="g102"><path
           id="path104"
           style="fill:#c37140;fill-opacity:1;fill-rule:nonzero;stroke:none"
           d="m 9599.26,16300 -238.75,-136.6 c 0,0 -485.47,-171.1 -623.43,-330.3 -137.94,-159.2 -159.16,-551.8 -185.69,-636.7 -26.53,-84.9 -350.19,-403.2 -413.86,-573 -63.66,-169.8 -90.19,-578.3 -111.41,-711 -21.23,-132.6 -74.28,-297.1 -53.06,-419.1 21.23,-122.1 148.56,-329 244.07,-329 95.5,0 535.88,509.4 710.96,753.4 175.1,244.1 297.12,392.6 297.12,392.6 l 328.96,-90.1 c 0,0 779.93,870.1 748.03,1024 -31.7,153.8 -286.4,944.4 -323.52,955 -37.18,10.6 -379.42,100.8 -379.42,100.8" /></g><path
         id="path106"
         style="fill:#a45634;fill-opacity:1;fill-rule:nonzero;stroke:none"
         d="m 9782.39,14664.5 -260.94,379.3 c 0,0 -26.9,-236.7 -166.79,-532.6 l 279.77,-141.7 147.96,295" /><path
         id="path108"
         style="fill:#a45634;fill-opacity:1;fill-rule:nonzero;stroke:none"
         d="m 12001.7,15108.4 c 59,2 185.6,-153.4 508.4,-218 0,0 8.1,-80.6 -581,64.6 -589.1,145.3 72.6,153.4 72.6,153.4" /><g
         transform="scale(1.02245)"
         id="g110"><path
           id="path112"
           style="fill:#e9eef1;fill-opacity:1;fill-rule:nonzero;stroke:none"
           d="m 9662.33,16252.7 -142.08,-86.9 c 0,0 280.34,-355.2 341.47,-868.2 61.03,-513.1 -73.06,-797.2 -294.11,-955.1 -221,-157.8 -418.34,-149.9 -418.34,-149.9 0,0 228.9,-663.1 252.58,-1065.6 23.68,-402.6 -39.46,-576.2 -39.46,-576.2 0,0 528.87,-126.3 970.81,-276.3 442,-149.9 860.4,-118.4 860.4,-118.4 0,0 94.7,726.2 197.3,1120.9 102.6,394.6 181.5,765.6 181.5,765.6 0,0 221.1,236.8 229,615.6 7.8,378.9 -228.9,797.2 -449.9,1073.5 -221.1,276.3 -560.4,552.5 -592,560.4 -31.6,7.9 -480.7,7.9 -619.2,0 -138.5,-7.9 -477.97,-39.4 -477.97,-39.4" /></g><g
         transform="scale(1.0784)"
         id="g114"><path
           id="path116"
           style="fill:#c37140;fill-opacity:1;fill-rule:nonzero;stroke:none"
           d="m 9567.63,16271.9 c -19.93,28.1 79.84,-41.8 79.84,-41.8 l -82.43,-72.3 c 0,0 -41.08,-445.3 -85.97,-516.4 -44.88,-71 -318.03,-231.9 -318.03,-231.9 0,0 680.98,-1126.3 1028.96,-1253.6 348.1,-127.2 568.8,93.6 572.6,344.3 3.7,250.7 -441.6,718.4 -449,733.4 -7.6,15 14.9,520.1 14.9,520.1 0,0 -306.9,471.5 -366.67,486.4 -59.91,15 -394.2,31.8 -394.2,31.8" /></g><g
         transform="scale(1.05935)"
         id="g118"><path
           id="path120"
           style="fill:#a45634;fill-opacity:1;fill-rule:nonzero;stroke:none"
           d="m 9834.66,16300 c 0,0 -13.69,-141.1 134.89,-350.6 148.45,-209.5 527.95,-392.4 527.95,-392.4 l 28.2,398.1 -691.04,344.9" /></g><path
         id="path122"
         style="fill:#c37140;fill-opacity:1;fill-rule:nonzero;stroke:none"
         d="m 15326.7,14946.9 c 0,0 91.4,24.3 191,123.8 99.5,99.5 161.4,113 209.8,115.7 48.4,2.7 209.8,-134.5 217.9,-193.7 8.1,-59.2 -40.4,-48.4 -88.8,-45.8 -48.4,2.7 -99.5,-2.5 -99.5,-2.5 0,0 -79.8,-113.1 -120.6,-175 -40.8,-61.9 -100,-239.4 -100,-239.4 l -258.3,15 c 0,0 -158.7,167.9 -139.8,197.5 18.8,29.6 188.3,204.4 188.3,204.4" /><path
         id="path124"
         style="fill:#a45634;fill-opacity:1;fill-rule:nonzero;stroke:none"
         d="m 9414.97,14651.9 c 0,0 -232.47,-205.3 -297.04,-226.8 -64.56,-21.6 -306.67,-64.6 -478.83,-118.4 -172.17,-53.8 -266.36,-244.6 -266.36,-244.6 0,0 336.3,18.6 406.24,24 69.95,5.4 411.28,213.4 411.28,213.4 l 164.4,211.7 60.31,140.7" /><path
         id="path126"
         style="fill:#9f9f9e;fill-opacity:1;fill-rule:nonzero;stroke:none"
         d="m 10609.6,15697.5 c -16.2,0 -158.1,-32.3 -161.8,-80.7 -3.6,-48.4 20.6,-80.7 20.6,-80.7 l -21,-573 311.5,25.1 24.2,511.6 c 0,0 165.4,197.7 -173.5,197.7" /><path
         id="path128"
         style="fill:#9f9f9e;fill-opacity:1;fill-rule:nonzero;stroke:none"
         d="m 10496.6,14325.5 c 0,0 359.1,-1966.4 579.7,-2466.8 220.6,-500.3 435.8,-667.1 651,-871.6 215.2,-204.4 317.8,-306.6 339.2,-457.3 21.3,-150.6 21.3,-150.6 21.3,-150.6 l 290.5,26.9 c 0,0 0,306.6 -161.4,538 -161.4,231.3 -478.8,408.9 -699.4,823.2 -220.6,414.2 -382,1172.8 -473.5,1581.7 -91.4,408.9 -252.8,1196 -252.8,1196 l -294.6,-219.5" /><path
         id="path130"
         style="fill:#c4c8ca;fill-opacity:1;fill-rule:nonzero;stroke:none"
         d="m 11437.5,14717.5 c 0,0 -77.4,-128.5 -109.7,-159.3 -32.2,-30.9 -133.1,-131.8 -133.1,-131.8 0,0 108.9,18 185.6,91.7 76.7,73.8 102.2,151.5 57.2,199.4" /><path
         id="path132"
         style="fill:#a45634;fill-opacity:1;fill-rule:nonzero;stroke:none"
         d="m 10232.7,16078.5 c 0,0 409.6,-54.2 526.4,-82.4 116.8,-28.3 221.7,-84.8 217.7,-72.7 -4,12.2 -101.3,96.9 -200,145.3 -98.6,48.4 -604.3,96.8 -604.3,96.8 l 60.2,-87" /><path
         id="path134"
         style="fill:#a45634;fill-opacity:1;fill-rule:nonzero;stroke:none"
         d="m 11283.5,16137.3 c 0,0 -121.1,-86.4 -133.2,-93.6 -12.1,-7.3 -76.7,-143.8 -64.6,-121.9 12.1,21.8 92.8,90.4 125.1,106.6 32.3,16.1 160.4,96 160.4,96 l -31.1,41.1 -56.6,-28.2" /><path
         id="path136"
         style="fill:#4a4d51;fill-opacity:1;fill-rule:nonzero;stroke:none"
         d="m 9599.06,4014.2 3693.84,-980.3 -177.5,-152 L 10884,3470 9599.06,4014.2" /><path
         id="path138"
         style="fill:#100f0d;fill-opacity:1;fill-rule:nonzero;stroke:none"
         d="m 10992.9,11799.5 c 0,0 -8,-234 40.4,-403.5 48.4,-169.4 426.4,-1444.6 426.4,-1444.6 l -0.1,710.2 c 0,0 -305.3,637.6 -321.4,710.2 -16.1,72.6 -145.3,427.7 -145.3,427.7" /><path
         id="path140"
         style="fill:#ffffff;fill-opacity:1;fill-rule:nonzero;stroke:none"
         d="m 9947.76,5380.8 c -2.53,-34.5 -3.97,-53.6 -3.97,-53.6 0,0 129.11,-234.1 234.01,-209.9 94.2,21.8 93.7,114.9 158.5,157.1 -142.8,33.4 -278.9,72.4 -388.54,106.4" /><path
         id="path142"
         style="fill:#686b6e;fill-opacity:1;fill-rule:nonzero;stroke:none"
         d="m 10958,3643.2 c -371.3,43 -2076.79,538 -2076.79,538 -10.77,-102.2 166.78,-193.7 360.47,-279.8 193.68,-86.1 1646.32,-462.7 1985.32,-489.6 338.9,-26.9 715.5,91.5 763.9,150.7 32.1,39.1 40.5,116 0.5,221.2 -214.1,-91.7 -705.5,-178.5 -1033.4,-140.5" /><path
         id="path144"
         style="fill:#c37140;fill-opacity:1;fill-rule:nonzero;stroke:none"
         d="m 16198.3,15057.2 c 0,0 -193.7,-53.8 -223.3,-59.1 -29.6,-5.4 -53.8,-99.6 -53.8,-99.6 0,0 -177.6,-10.7 -199.1,-56.5 -21.5,-45.7 0,-75.3 0,-75.3 0,0 -61.9,-37.6 -35,-102.2 26.9,-64.6 48.5,-72.6 48.5,-72.6 0,0 -53.8,-37.7 8,-83.4 61.9,-45.8 269,-53.8 301.3,-29.6 32.3,24.2 10.8,94.1 10.8,94.1 0,0 53.8,8.1 75.3,53.8 21.5,45.8 5.4,72.7 5.4,72.7 0,0 43,21.5 61.9,83.4 18.8,61.8 0,80.7 0,88.7 0,8.1 67.2,29.6 78,107.6 10.7,78 -78,78 -78,78" /><path
         id="path146"
         style="fill:#a45634;fill-opacity:1;fill-rule:nonzero;stroke:none"
         d="m 16055.7,14573 c 0,0 14.6,2.3 31.6,10.8 -120.7,-13.5 -312.8,-5.7 -363.3,-3.3 -8.1,-10.3 -15.5,-26.8 -4.5,-46.5 110.2,-11.6 252.7,-9.7 343.2,-7 -0.2,23.7 -7,46 -7,46" /><path
         id="path148"
         style="fill:#a45634;fill-opacity:1;fill-rule:nonzero;stroke:none"
         d="m 15693.6,14738.3 c 146.4,-64.6 351.2,-60.7 447.7,-54.3 -1.7,10 -4.9,15.5 -4.9,15.5 0,0 26.8,13.5 47.4,49.6 -66.1,-8.8 -160.4,-18.9 -237.5,-17.4 -133.6,2.7 -224.2,35 -224.2,35 0,0 -16.3,-10 -28.5,-28.4" /><path
         id="path150"
         style="fill:#a45634;fill-opacity:1;fill-rule:nonzero;stroke:none"
         d="m 16198.3,14871.6 c 0,5.3 28.7,16.5 51.6,45.3 -88.2,-5.6 -277.6,-15.3 -303.6,3.1 -4.8,3.5 -9.8,7.6 -14.7,12 -6.5,-18.4 -10.4,-33.5 -10.4,-33.5 164.1,-45.9 277.1,-26.9 277.1,-26.9" /><g
         transform="scale(1.0071)"
         id="g152"><path
           id="path154"
           style="fill:#bebdbb;fill-opacity:1;fill-rule:nonzero;stroke:none"
           d="m 15998.6,15295.7 c 63.9,-36.5 148.5,-69.5 209.6,-91.2 48.3,60.9 91.8,152.6 -12,234.1 -112.1,88.1 -256.3,88.1 -292.4,44.1 0,0 -17.4,-122.9 94.8,-187" /></g><path
         id="path156"
         style="fill:#4a4d51;fill-opacity:1;fill-rule:nonzero;stroke:none"
         d="m 13599.6,14518.1 c 0,0 145.3,-136.1 137.2,-200.6 -8,-64.6 -24.2,-64.6 -104.9,-104.9 -80.7,-40.4 -556.8,-774.8 -677.9,-912 -121.1,-137.2 -645.6,-1242.8 -669.8,-1323.5 -24.2,-80.7 94.1,-137.2 94.1,-137.2 0,0 110.3,-161.4 0,-258.3 0,0 -245.1,24.3 -322.9,129.2 -77.9,104.9 -63.9,201.7 42.1,516.5 106,314.7 662.8,1331.6 735.4,1420.3 72.7,88.8 637.6,778.8 637.6,778.8 0,0 24.2,90.6 129.1,91.7" /><path
         id="path158"
         style="fill:#252323;fill-opacity:1;fill-rule:nonzero;stroke:none"
         d="m 12324.5,9663.6 677.9,47.2 c 0,0 150.2,-109.9 171.9,-277.6 21.8,-167.7 -123.5,-296.9 -123.5,-296.9 0,0 -726.3,-107.6 -817.7,-102.2 -91.5,5.4 -145.3,91.7 -156.1,314.8 -10.7,223.2 166.5,309.1 247.5,314.7" /><path
         id="path160"
         style="fill:#636669;fill-opacity:1;fill-rule:nonzero;stroke:none"
         d="m 12626.6,9394.6 c -57.1,274.4 -302.1,269 -302.1,269 -81,-5.6 -258.2,-91.5 -247.5,-314.7 10.8,-223.1 64.6,-309.4 156.1,-314.8 35,-2 163.3,12.5 308.1,31.2 58,65.1 117.7,173.9 85.4,329.3" /><path
         id="path162"
         style="fill:#9f9f9e;fill-opacity:1;fill-rule:nonzero;stroke:none"
         d="m 12485.9,9336.6 c 0,-101.7 -71.9,-184.1 -160.6,-184.1 -88.7,0 -160.6,82.4 -160.6,184.1 0,101.6 71.9,184 160.6,184 88.7,0 160.6,-82.4 160.6,-184" /><path
         id="path164"
         style="fill:#245d5a;fill-opacity:1;fill-rule:nonzero;stroke:none"
         d="m 12808.7,8988.2 h -5 c 0,-11.3 -4.5,-21.4 -11.9,-28.8 -7.4,-7.4 -17.5,-11.9 -28.8,-11.9 -11.3,0 -21.4,4.5 -28.8,11.9 -7.4,7.4 -11.9,17.5 -11.9,28.8 0,11.3 4.5,21.4 11.9,28.8 7.4,7.4 17.5,11.9 28.8,11.9 11.3,0 21.4,-4.5 28.8,-11.9 7.4,-7.4 11.9,-17.5 11.9,-28.8 h 5 5 c 0,28 -22.7,50.7 -50.7,50.7 -28,0 -50.7,-22.7 -50.7,-50.7 0,-28 22.7,-50.7 50.7,-50.7 28,0 50.7,22.7 50.7,50.7 h -5" /><path
         id="path166"
         style="fill:#c1bfbd;fill-opacity:1;fill-rule:nonzero;stroke:none"
         d="M 8618.04,5073.5 C 8807.54,4119.4 8355.16,3225.5 7607.6,3077 6860.04,2928.6 6100.4,3581.7 5910.88,4535.8 c -189.51,954.1 262.88,1847.9 1010.44,1996.4 747.56,148.5 1507.21,-504.6 1696.72,-1458.7" /><path
         id="path168"
         style="fill:#d4d4d2;fill-opacity:1;fill-rule:nonzero;stroke:none"
         d="m 8156.85,4994.5 c 171.94,-640.7 -75.31,-1263.8 -552.25,-1391.8 -476.94,-128 -1002.96,287.6 -1174.9,928.2 -171.95,640.6 75.3,1263.7 552.24,1391.7 476.94,128 1002.97,-287.5 1174.91,-928.1" /><path
         id="path170"
         style="fill:#ffffff;fill-opacity:1;fill-rule:nonzero;stroke:none"
         d="m 7673.61,4912.2 c 77.17,-280.4 -35.34,-555.9 -251.28,-615.3 -215.94,-59.4 -453.55,119.7 -530.71,400.1 -77.16,280.4 35.34,555.9 251.28,615.3 215.94,59.5 453.56,-119.7 530.71,-400.1" /><path
         id="path172"
         style="fill:#3a3b3d;fill-opacity:1;fill-rule:nonzero;stroke:none"
         d="m 7824.93,4434.1 v 112.2 c 0,0 572.06,113.7 658.14,97.6 86.09,-16.1 59.18,-182.9 59.18,-182.9 l 651.8,-120.3 -123.69,-357 -980.04,197.5 c 0,0 -143.9,-66.1 -265.39,0 -121.5,66.1 0,252.9 0,252.9" /><path
         id="path174"
         style="fill:#4a4d51;fill-opacity:1;fill-rule:nonzero;stroke:none"
         d="m 7961.2,4455.8 c 0,0 -58.4,7 -136.27,35 v -56.7 c 0,0 -121.5,-186.8 0,-252.9 121.49,-66.1 265.39,0 265.39,0 l 980.04,-197.5 56.69,163.6 c -289.54,70.8 -1156.2,284.5 -1165.85,308.5" /><path
         id="path176"
         style="fill:#4a4d51;fill-opacity:1;fill-rule:nonzero;stroke:none"
         d="m 13250.9,3010.9 216.3,15.8 c 33.8,53.5 79.4,110.9 124.5,163.1 l -127.6,-9.3 -171.2,-48.4 c 0,0 -90.8,-68.2 -146.9,-150.9 l 104.9,29.7" /><path
         id="path178"
         style="fill:#4a4d51;fill-opacity:1;fill-rule:nonzero;stroke:none"
         d="m 14301.7,3511.4 c -330.8,24.2 -330.8,24.2 -330.8,24.2 0,0 -80.4,-77.3 -163.5,-173.2 43.8,-3.2 126.2,-9.3 281.2,-20.6 330.9,-24.2 355.1,-443.9 347,-564.9 -4.5,-68 -47.3,-138.6 -83.9,-187.4 127.4,42.6 159.9,106.8 159.9,106.8 0,0 129.1,129.1 137.2,250.1 8,121.1 -16.2,540.7 -347.1,565" /><path
         id="path180"
         style="fill:#d4d4d2;fill-opacity:1;fill-rule:nonzero;stroke:none"
         d="m 11446,1760.1 c 6.9,0 -194.8,-64.6 -219,-80.7 -24.2,-16.1 -379.3,-290.5 -379.3,-314.7 0,-24.2 598.5,-96.9 598.5,-96.9 0,0 120.1,-64.5 200.6,-64.5 80.5,0 338.8,121 338.8,121 0,0 -56.5,201.8 -64.6,226 -8.1,24.2 -201.7,258.1 -201.7,258.1 l -273.3,-48.3" /><path
         id="path182"
         style="fill:#9f9f9e;fill-opacity:1;fill-rule:nonzero;stroke:none"
         d="m 12114.7,2204 -467.9,-363.9 147.9,-31.7 359.6,131.8 c 0,0 154.1,-220.4 267.1,-220.4 113,0 1018.9,217.9 1054.2,330.8 35.3,113 -77.8,306.7 -182.7,347.1 -104.9,40.3 -468,-80.7 -468,-80.7 l -524.6,-48.5 -185.6,-64.5" /><path
         id="path184"
         style="fill:#c37140;fill-opacity:1;fill-rule:nonzero;stroke:none"
         d="m 8332.43,13349 c 0,0 371.23,-53.8 785.5,139.9 414.28,193.7 527.26,365.9 726.33,495 199.04,129.1 328.24,188.3 328.24,188.3 l -182.98,419.7 c 0,0 -543.4,-274.4 -882.35,-296 -338.95,-21.5 -355.09,-16.1 -494.97,-53.8 -139.89,-37.6 -392.76,-349.7 -403.52,-365.8 -10.76,-16.1 123.75,-527.3 123.75,-527.3" /><path
         id="path186"
         style="fill:#c37140;fill-opacity:1;fill-rule:nonzero;stroke:none"
         d="m 9989.52,14591.9 c 0,0 180.28,161.4 224.68,217.9 44.3,56.5 100.8,131 133.1,178.4 32.3,47.5 330.9,71.7 395.5,55.6 64.5,-16.1 133.1,-104.9 137.1,-137.2 4.1,-32.3 0,-56.5 0,-56.5 0,0 48.5,-89.2 28.3,-143.4 0,0 21.9,-90.6 4.9,-135 -17,-44.4 -17,-44.4 -17,-44.4 0,0 4,-134.8 -64.6,-170.3 -68.6,-35.5 -250.2,-67.8 -294.5,-79.9 -44.4,-12.1 -168.2,-80.7 -364.5,-104.9 -196.43,-24.2 -277.13,64.6 -293.27,113 -16.14,48.4 110.29,306.7 110.29,306.7" /><path
         id="path188"
         style="fill:#a45634;fill-opacity:1;fill-rule:nonzero;stroke:none"
         d="m 10645.9,14545 c -6.5,-14.3 177.3,-52.9 247.2,-66.9 3.6,27.8 3,49.2 3,49.2 0,0 0,0.1 11.8,30.9 -82.5,-0.7 -255.7,0.6 -262,-13.2" /><path
         id="path190"
         style="fill:#a45634;fill-opacity:1;fill-rule:nonzero;stroke:none"
         d="m 10764.9,14900.5 c -42.3,-4 -97.5,6.1 -129.5,0 -31.9,-6 -154.9,-60.5 -120.6,-64.5 28,-3.3 281.2,-1.2 372.2,-0.3 -4.1,8.9 -7.1,14.4 -7.1,14.4 0,0 3.6,22 0.5,51.8 -41.7,0.6 -92.5,0.8 -115.5,-1.4" /><path
         id="path192"
         style="fill:#a45634;fill-opacity:1;fill-rule:nonzero;stroke:none"
         d="m 10911.2,14717.5 c -93.6,-6.8 -284.2,-22.1 -305.6,-32.8 -28.3,-14.2 -52.5,-26.3 -34.3,-30.3 13.2,-3 231.2,-13.4 347.6,-18.9 -2.4,36.8 -10.7,71.2 -10.7,71.2 1.3,3.4 2.3,7.1 3,10.8" /><path
         id="path194"
         style="fill:#9f9f9e;fill-opacity:1;fill-rule:nonzero;stroke:none"
         d="m 12738.8,9190.1 c 0,0 -139.7,-25.4 -135.1,-116.6 4.6,-91.3 681.2,-1825.6 963.6,-2866.7 282.5,-1041 403.6,-2671.2 403.6,-2671.2 l 266.3,-127.7 64.5,103.5 c 0,0 -258.2,1896.5 -524.5,2840.7 -266.3,944.2 -589.2,2082.1 -750.6,2461.4 -161.4,379.3 -287.8,376.6 -287.8,376.6" /><path
         id="path196"
         style="fill:#9f9f9e;fill-opacity:1;fill-rule:nonzero;stroke:none"
         d="m 7982.71,4363.7 c 0,-100.8 -70.64,-182.5 -157.78,-182.5 -87.15,0 -157.79,81.7 -157.79,182.5 0,100.9 70.64,182.6 157.79,182.6 87.14,0 157.78,-81.7 157.78,-182.6" /><g
         transform="scale(1.15269)"
         id="g198"><path
           id="path200"
           style="fill:#2f1d16;fill-opacity:1;fill-rule:nonzero;stroke:none"
           d="m 9984.69,16017.3 c -11.1,27.4 9.89,73.1 -31.14,118.1 -41.04,45 -93.44,60.1 -93.44,60.1 0,0 -41.72,49.4 -96.98,60.2 -55.18,10.9 -104.72,8.1 -104.72,8.1 0,0 -41.12,25.4 -112.95,30.8 -71.83,5.4 -137.42,-26.9 -165.96,-28.9 -28.63,-2.1 -85.54,-0.2 -118.68,-5 -33.22,-4.9 -98.55,-31.2 -109.3,-38.4 -10.76,-7.1 -66.89,-0.1 -132.3,-23.8 -65.42,-23.8 -110.44,-100 -110.44,-100 0,0 -45.81,-24 -62.46,-30.9 l -0.61,-0.3 c -0.96,-0.5 -3.39,-1.9 -6.94,-4.3 -11.54,-8.5 -28.63,-26.4 -46.76,-46.7 -35.83,-47.4 -78.6,-134.6 -92.91,-288.6 -26.07,-281 135.24,-649.9 228.33,-801.9 l 154.68,331.2 905.27,498.2 c 0,0 13.92,43.3 8.76,68.2 -5.2,24.8 19.16,64 19.66,111.8 0.5,47.8 -20.09,54.7 -31.11,82.1" /></g><g
         transform="scale(1.1223)"
         id="g202"><path
           id="path204"
           style="fill:#c37140;fill-opacity:1;fill-rule:nonzero;stroke:none"
           d="m 10202.3,16268.3 c 0,0 45.5,-62.3 55.5,-86.5 10,-24.2 12.6,-241.5 14.7,-296.5 2.2,-55.1 -13.9,-129.1 -14.5,-155.7 -0.7,-26.6 -1.2,-189.7 -9.9,-253.4 -8.7,-63.6 -85.8,-309.9 -110.5,-374.9 -24.7,-65 -60.5,-151 -92.8,-167.9 -32.4,-16.9 -172.61,-20.5 -295.66,19.8 -123.14,40.3 -361.85,211.2 -425.2,299.7 -63.44,88.5 -50.07,269 -50.07,269 0,0 -51.68,-12.9 -103.54,41.6 -51.86,54.5 -134.01,171.9 -113.07,299 20.85,127.2 117.17,78.7 165.55,26 48.29,-52.6 48.12,-130.6 58.72,-132.7 10.6,-2 21.29,1.3 26.64,2.9 5.43,1.6 33.5,132.2 35.91,158.7 2.49,26.5 1.16,186.2 4.81,191.4 3.65,5.2 139.71,161.4 182.66,176.3 42.95,14.9 670.75,-16.8 670.75,-16.8" /></g><g
         transform="scale(1.13153)"
         id="g206"><path
           id="path208"
           style="fill:#2f1d16;fill-opacity:1;fill-rule:nonzero;stroke:none"
           d="m 9232.26,15630.2 c 0,0 34.29,90.5 51.26,140.4 16.96,49.9 5.48,117.5 19.53,127.7 14.14,10.2 41.09,39.9 39.32,78.2 -1.76,38.2 -1.76,38.2 -1.76,38.2 0,0 -0.45,33.7 52.14,50.2 52.49,16.6 77.5,78.4 77.5,78.4 0,0 131.24,-5.9 181.62,-6.1 50.46,-0.2 158.81,-3.8 218.28,-7.4 59.48,-3.5 236.45,-14 242.45,-15.8 6.1,-1.7 61.6,-64.2 61.6,-64.2 0,0 4.1,110.9 -9.5,114.4 -13.6,3.6 0,45.9 -188.94,61.4 -188.94,15.5 -303.12,74.4 -459.46,15.5 -156.34,-58.9 -178.17,-26.1 -238.62,-98.9 -60.53,-72.9 -121.42,-200.7 -107.91,-253.2 13.53,-52.4 62.49,-258.8 62.49,-258.8" /></g></g></g></svg>