<?xml version="1.0" encoding="UTF-8" standalone="no"?>
<svg
   xmlns:dc="http://purl.org/dc/elements/1.1/"
   xmlns:cc="http://creativecommons.org/ns#"
   xmlns:rdf="http://www.w3.org/1999/02/22-rdf-syntax-ns#"
   xmlns:svg="http://www.w3.org/2000/svg"
   xmlns="http://www.w3.org/2000/svg"
   viewBox="0 0 2666.6667 2666.6667"
   height="2666.6667"
   width="2666.6667"
   xml:space="preserve"
   id="svg2"
   version="1.1"><metadata
     id="metadata8"><rdf:RDF><cc:Work
         rdf:about=""><dc:format>image/svg+xml</dc:format><dc:type
           rdf:resource="http://purl.org/dc/dcmitype/StillImage" /></cc:Work></rdf:RDF></metadata><defs
     id="defs6" /><g
     transform="matrix(1.3333333,0,0,-1.3333333,0,2666.6667)"
     id="g10"><g
       transform="scale(0.1)"
       id="g12"><g
         transform="scale(1.22699)"
         id="g14"><path
           id="path16"
           style="fill:none;fill-opacity:1;fill-rule:nonzero;stroke:none"
           d="M 16300,0 H 0 V 16300 H 16300 V 0" /></g><path
         id="path18"
         style="fill:#2e619f;fill-opacity:1;fill-rule:nonzero;stroke:none"
         d="m 15031.6,6916.6 c 86.6,-39.4 362,-228.3 417.1,-369.9 55.1,-141.7 -23.6,-724.1 0,-1109.7 23.6,-385.6 -70.8,-960.1 -417.1,-1046.7 -346.3,-86.5 -362,346.3 -362,550.9 0,204.6 -210.4,867.6 -245.1,934.3 -34.7,66.7 607.1,1041.1 607.1,1041.1" /><path
         id="path20"
         style="fill:#3970c0;fill-opacity:1;fill-rule:nonzero;stroke:none"
         d="m 14173.8,6357.8 c 0,31.5 -425,-23.6 -676.8,-188.9 -251.8,-165.2 -94.5,-519.4 -125.9,-1101.8 -31.5,-582.3 23.6,-912.9 354.1,-1141.1 330.6,-228.2 482.7,55.1 512.9,401.4 30.1,346.2 97,598.1 197.4,849.9 100.3,251.9 74.4,533.8 74.4,533.8 l -336.1,646.7" /><path
         id="path22"
         style="fill:#fbc398;fill-opacity:1;fill-rule:nonzero;stroke:none"
         d="m 12804.4,10749.2 c 0,0 -259.7,-1479.6 -291.1,-1888.8 -31.5,-409.2 47.2,-668.9 236.1,-920.8 0,0 228.2,-377.7 495.8,-653.2 267.5,-275.4 936.5,-692.5 936.5,-692.5 L 13922,6106 c 0,0 62.9,-377.8 70.8,-401.4 7.9,-23.6 472.2,-70.8 472.2,-70.8 0,0 558.7,968 857.8,1385.1 299.1,417.1 566.6,912.9 613.9,1062.4 47.2,149.5 133.7,2203.6 129.8,2518.4 -3.9,314.7 -901.1,424.9 -924.7,393.5 -23.6,-31.5 -625.7,-637.5 -625.7,-637.5 0,0 279.4,-865.7 381.7,-1455.9 102.3,-590.3 78.7,-724.1 74.8,-826.4 -3.9,-102.3 -171.8,-149.5 -308.2,-330.5 -136.5,-181 -228.9,-637.5 -228.9,-637.5 0,0 -239.6,236.1 -305.7,495.8 -66.2,259.7 -601.3,634.8 -617.1,714.8 -15.7,80.1 157.4,796.2 314.8,1056 157.4,259.7 527.3,1015.2 527.3,1015.2 0,0 -299,417.1 -503.7,499.7 -204.6,82.6 -1046.7,-137.7 -1046.7,-137.7" /><path
         id="path24"
         style="fill:#252323;fill-opacity:1;fill-rule:nonzero;stroke:none"
         d="m 13919.5,13055.1 c -119.5,-23.7 -658.6,-270.2 -658.6,-270.2 0,0 -251.8,-957.5 -259.7,-996.9 -7.9,-39.3 -196.8,-1038.8 -196.8,-1038.8 0,0 1031,-283.3 1550.4,-362 l 55.1,224.3 90.5,3.9 15.7,-259.7 c 0,0 700.5,-3.9 1550.4,244 l -224.3,1361.4 -202,850 c 0,0 -1434.9,244 -1458.5,244 -23.6,0 -262.2,0 -262.2,0" /><path
         id="path26"
         style="fill:#fbc398;fill-opacity:1;fill-rule:nonzero;stroke:none"
         d="m 13260.9,14145 c 0,0 107.5,-405.3 118,-578.4 10.5,-173.1 -118,-781.7 -118,-781.7 0,0 731.9,-99.7 1230.3,-94.5 498.4,5.3 1149,120.7 1149,120.7 l -89.2,1302.5 c 0,0 -362,308.2 -561.4,344.9 -199.3,36.7 -451.7,13.2 -834.4,-14.4 -382.8,-27.6 -802.5,-169.2 -802.5,-169.2 l -91.8,-129.9" /><g
         transform="scale(1.0546)"
         id="g28"><path
           id="path30"
           style="fill:#34231f;fill-opacity:1;fill-rule:nonzero;stroke:none"
           d="m 13118.9,16300 c 0,0 -181.5,-197.3 -267.3,-484.6 -85.8,-287.3 -90.8,-589.5 133.7,-615.6 224.5,-26.2 504.4,-444 541.6,0 37.4,444 145.6,671.6 0,861.9 -145.5,190.3 -408,238.3 -408,238.3" /></g><g
         transform="scale(1.02071)"
         id="g32"><path
           id="path34"
           style="fill:#fbc398;fill-opacity:1;fill-rule:nonzero;stroke:none"
           d="m 14613.2,16178.5 c 0,0 325.4,-235.3 491.2,-273.6 0,0 57.9,-327.5 -50.1,-547.3 -108,-219.7 -420.2,-331.5 -921.4,-281.4 -501.1,50.1 -751.7,258.3 -805.7,397.1 -54,138.8 -24.4,511.6 -24.4,511.6 l 460.1,35.8 c 0,0 67.8,197.9 80.2,206.9 12.2,9 176.4,72.4 364.3,63.8 187.7,-8.5 405.8,-112.9 405.8,-112.9" /></g><g
         transform="scale(1.02071)"
         id="g36"><path
           id="path38"
           style="fill:#fbc398;fill-opacity:1;fill-rule:nonzero;stroke:none"
           d="m 14626.9,16178.5 c 0,0 325.4,-235.3 491.2,-273.6 0,0 57.8,-327.5 -50.2,-547.3 -107.9,-219.7 -420.2,-331.5 -921.3,-281.4 -501.2,50.1 -751.7,258.3 -805.7,397.1 -54,138.8 -24.5,511.6 -24.5,511.6 l 460.1,35.8 c 0,0 68,197.9 80.2,206.9 12.4,9 176.5,72.4 364.3,63.8 187.7,-8.5 405.9,-112.9 405.9,-112.9" /></g><g
         transform="scale(1.03006)"
         id="g40"><path
           id="path42"
           style="fill:#da976c;fill-opacity:1;fill-rule:nonzero;stroke:none"
           d="m 13717.4,16300 c 0,0 143.2,-253 227.3,-317.9 84,-65 240.7,-68.8 343.8,0 103.2,68.7 223.8,292.5 223.8,292.5 l -794.9,25.4" /></g><g
         transform="scale(1.02502)"
         id="g44"><path
           id="path46"
           style="fill:#da976c;fill-opacity:1;fill-rule:nonzero;stroke:none"
           d="m 13964.6,16195.2 c 2.6,-23.2 75.5,-357.2 75.5,-357.2 l -207.5,462 132,-104.8" /></g><g
         transform="scale(1.02017)"
         id="g48"><path
           id="path50"
           style="fill:#da976c;fill-opacity:1;fill-rule:nonzero;stroke:none"
           d="m 14388.4,16252.7 -61.7,-312.5 245.1,359.8 -183.4,-47.3" /></g><g
         transform="scale(1.06388)"
         id="g52"><path
           id="path54"
           style="fill:#3970c0;fill-opacity:1;fill-rule:nonzero;stroke:none"
           d="m 13029,16300 c 0,0 -27.7,-81.5 -24.5,-142.2 3.2,-60.7 116.2,-194.2 187.4,-213.4 71.3,-19.2 128.7,129.6 114.9,165.2 -13.9,35.6 -31.1,69.6 -88.3,111.1 -57.2,41.5 -189.5,79.3 -189.5,79.3" /></g><g
         transform="scale(1.1502)"
         id="g56"><path
           id="path58"
           style="fill:#34231f;fill-opacity:1;fill-rule:nonzero;stroke:none"
           d="m 12069.8,15255.9 c 0,0 -49,233.8 -26,494 22.9,260.3 300.3,411.6 308.4,414.3 8,2.6 183.2,135.8 491.4,56.2 308.3,-79.7 405.6,-421.1 415.7,-531.2 10.1,-110.1 -18.9,-493.8 -18.9,-493.8 0,0 -134.9,-111.9 -220.8,-114.1 -85.9,-2.2 -440.3,-13.6 -569.1,-7.4 -128.8,6.1 -305.9,25.9 -311.1,39.3 -5.3,13.5 -69.6,142.7 -69.6,142.7" /></g><g
         transform="scale(1.12621)"
         id="g60"><path
           id="path62"
           style="fill:#fbc398;fill-opacity:1;fill-rule:nonzero;stroke:none"
           d="m 12327.1,15611.7 c 0,0 -45.2,16.7 -57.8,-20.2 -12.5,-37 11.8,-92.6 15.7,-137.9 3.9,-45.2 11.5,-139.8 40.1,-181.1 28.5,-41.3 90,-66.3 90,-66.3 0,0 40.3,-142.1 78.9,-222.5 38.6,-80.4 226.7,-262.5 273.8,-289.5 47.2,-27 221.9,-23.9 285.9,-1.6 63.8,22.2 212.7,169.4 274.9,265.7 62.2,96.2 94,246.1 94,246.1 0,0 80.4,46.8 103.3,94 22.9,47.2 17.4,154.1 21.5,164.4 4.2,10.2 31.6,122.2 11.1,145.4 -20.4,23.2 -63.9,-34.1 -68.2,-50.5 -4.1,-16.5 -20.7,-34.9 -20.7,-34.9 0,0 -23.9,125.6 -21.5,181.1 2.4,55.5 -30,140 -48.2,205.9 -18.1,65.8 -54.3,203.8 -171,297 -116.6,93.2 -351.2,65.8 -408.7,64.1 -57.6,-1.8 -115.2,-11.7 -129.6,-19.8 -14.5,-8.2 -97.3,-98.2 -171.6,-153.2 -74.3,-55.1 -62.2,-90.1 -70.7,-151.8 -8.7,-61.6 -31.7,-127.3 -40.3,-186.8 -8.5,-59.6 -25.6,-176.7 -29.8,-193.1 -4.3,-16.4 -12.5,-22.6 -12.5,-22.6 l -38.6,68.1" /></g><g
         transform="scale(1.05931)"
         id="g64"><path
           id="path66"
           style="fill:#fbc398;fill-opacity:1;fill-rule:nonzero;stroke:none"
           d="m 14832.7,14148 26,23.6 c 0,0 59.5,-183.6 226.5,-504.8 167.2,-321.1 237.8,-432.6 237.8,-432.6 0,0 111.4,-486.6 345.5,-579.5 234,-92.8 323.2,59.5 375.1,215.5 52,156 137.5,352.9 171,679.8 33.4,326.9 33.4,605.5 40.7,924.9 7.5,319.5 44.7,549.8 44.7,549.8 l -378.9,-18.6 -208.1,-958.4 c 0,0 -122.5,312.1 -237.7,445.8 0,0 -33.4,375.2 -196.8,598 -163.5,222.9 -423.5,233.9 -549.8,233.9 -126.3,0 -118.9,-694.5 -118.9,-694.5 0,0 -11.1,-245.1 33.5,-367.7 44.5,-122.6 189.4,-115.2 189.4,-115.2" /></g><path
         id="path68"
         style="fill:#da976c;fill-opacity:1;fill-rule:nonzero;stroke:none"
         d="m 15669.1,15081.5 295.1,366 -224.3,-435.5 -70.8,-80 v 149.5" /><g
         transform="scale(1.00105)"
         id="g70"><path
           id="path72"
           style="fill:#fbc398;fill-opacity:1;fill-rule:nonzero;stroke:none"
           d="m 13447.5,16298.9 c 0,0 -216.2,1.1 -483.5,-160.1 -267.3,-161.1 -216.2,-499.2 -290.9,-707.5 -74.7,-208.3 -220.2,-655.2 -220.2,-642 0,13.1 -153.2,1196.9 -153.2,1196.9 l -397.1,-16.4 c 0,0 51.2,-1305 62.9,-1706 11.8,-400.9 173,-798.9 251.6,-902.5 78.6,-103.7 255.5,26 393.1,183.2 137.6,157.2 267.3,440.3 377.4,660.4 110.1,220.1 271.2,668.2 275.1,683.9 4,15.8 302.7,377.4 353.8,515 51.1,137.6 -169,895.1 -169,895.1" /></g><path
         id="path74"
         style="fill:#da976c;fill-opacity:1;fill-rule:nonzero;stroke:none"
         d="m 13174.3,15073.7 c 0,0 -3.9,184.9 -43.3,342.3 -39.3,157.4 -39.3,157.4 -39.3,157.4 l 212.5,-383.6 -129.9,-116.1" /><g
         transform="scale(1.00098)"
         id="g76"><path
           id="path78"
           style="fill:#3970c0;fill-opacity:1;fill-rule:nonzero;stroke:none"
           d="m 13727.5,16191 -162.5,109 h -116.6 c 0,0 7.8,-671.1 -78.6,-883.4 -86.5,-212.2 -208.4,-357.7 -208.4,-357.7 l 86.5,-927.7 c 0,0 192.6,78.6 570,47.1 377.4,-31.4 397.1,-62.9 746.9,-47.1 349.9,15.7 971,-31.5 971,-31.5 l 161.2,872.7 c 0,0 -78.6,436.4 -106.2,719.4 -27.5,283 -3.9,526.6 -3.9,526.6 h -184.8 l -1674.6,-27.4" /></g><g
         transform="scale(1.00256)"
         id="g80"><path
           id="path82"
           style="fill:#fbc398;fill-opacity:1;fill-rule:nonzero;stroke:none"
           d="m 15377.8,16192.8 c -4.1,1 -8.5,2.2 -13,3.4 v -11 h -1491.5 v 114.8 l -329.7,-25.7 c 0,0 -30.1,-379.6 24.9,-520.8 54.9,-141.3 310.1,-353.3 820.3,-404.3 510.3,-51 828.2,62.8 938.1,286.5 109.9,223.7 50.9,557.1 50.9,557.1" /></g><path
         id="path84"
         style="fill:#ecaf86;fill-opacity:1;fill-rule:nonzero;stroke:none"
         d="m 12466,14804.8 51.2,-545.6 27.5,594.1 c 0,0 188.9,488 216.5,594.2 22.7,87.8 69.8,476.4 203.2,699.8 -252.5,-164.5 -204.5,-494.8 -278,-699.8 -74.8,-208.6 -220.4,-655.8 -220.4,-642.7" /><g
         transform="scale(1.1915)"
         id="g86"><path
           id="path88"
           style="fill:#838585;fill-opacity:1;fill-rule:nonzero;stroke:none"
           d="M 8395.41,13859.5 H 16300 v 195.2 H 8395.41 v -195.2" /></g><g
         transform="scale(1.02913)"
         id="g90"><path
           id="path92"
           style="fill:#2c9d40;fill-opacity:1;fill-rule:nonzero;stroke:none"
           d="m 13782.5,15950.8 c 0,0 17.8,135.1 0,234.5 -17.9,99.4 -53.6,114.7 -61.3,114.7 -7.5,0 -262.5,0 -262.5,0 l -40.7,-27.9 c 0,0 79,2.4 119.8,-51.1 40.7,-53.6 28.3,-186.6 28.3,-186.6 l 114.4,-144.8 102,61.2" /></g><g
         transform="scale(1.03044)"
         id="g94"><path
           id="path96"
           style="fill:#2c9d40;fill-opacity:1;fill-rule:nonzero;stroke:none"
           d="m 14192.7,15869.5 c 0,0 -27.9,156.4 0,269.2 28.1,112.8 28.1,112.8 28.1,112.8 0,0 185.8,48.5 320.7,0 0,0 -65.9,-28.1 -87.6,-104.5 -21.8,-76.4 -34.6,-218.9 -34.6,-218.9 l -226.6,-58.6" /></g><path
         id="path98"
         style="fill:#2e67a0;fill-opacity:1;fill-rule:nonzero;stroke:none"
         d="m 13516.7,14640.8 c 0,0 251.8,-98.3 546.9,-47.2 295.1,51.2 379.7,338.4 379.7,338.4 0,0 151.5,-275.4 375.8,-369.9 224.3,-94.4 547,-31.4 547,-31.4 0,0 -177.1,-129.9 -468.3,-94.5 -291.2,35.4 -454.5,141.7 -454.5,141.7 0,0 -120,-138.2 -423,-147.8 -303,-9.6 -503.6,210.7 -503.6,210.7" /><path
         id="path100"
         style="fill:#100f0d;fill-opacity:1;fill-rule:nonzero;stroke:none"
         d="m 14036.1,10886.9 c 0,0 338.4,-118 440.7,-118 102.3,0 495.8,59 495.8,59 l -472.2,-212.5 -90.5,-3.9 -373.8,275.4" /><g
         transform="scale(1.02116)"
         id="g102"><path
           id="path104"
           style="fill:#ecaf86;fill-opacity:1;fill-rule:nonzero;stroke:none"
           d="m 15841.5,15555.1 c 107.9,-231.2 131,-454.7 131,-454.7 l -131,27 c 0,0 131,-115.6 242.8,-300.6 111.7,-184.9 161.7,-269.7 161.7,-269.7 l -26.9,-379.7 80.9,395.1 c 0,0 -127.1,323.7 -246.6,462.4 0,0 -34.7,389.2 -204.2,620.4 -83.7,114.1 -191.7,174.6 -295.4,206.7 80.2,-49.6 214.9,-151 287.7,-306.9" /></g><g
         transform="scale(1.07982)"
         id="g106"><path
           id="path108"
           style="fill:#ecaf86;fill-opacity:1;fill-rule:nonzero;stroke:none"
           d="m 15587.6,15508.2 c 0,0 78.3,176.7 145.7,189.4 67.4,12.8 108.8,-41.9 108.8,-41.9 0,0 37,45.8 89.9,43.9 52.9,-2 87.4,-34.8 87.4,-34.8 0,0 62,53.2 111.2,34.8 49.2,-18.4 67.3,-69.4 67.3,-69.4 0,0 58.4,-12.2 80.2,-24.3 21.9,-12.1 18.3,-243.5 -27.3,-256.3 -45.5,-12.7 -85.6,63.8 -85.6,63.8 0,0 -27.4,-73.9 -69.2,-65.2 -42,8.7 -67.4,76.1 -67.4,76.1 0,0 13.3,-103.8 -69.9,-102 -83.2,1.8 -97.8,185.9 -97.8,185.9 l -191.3,-98.5 -36.5,11 1.9,87.5 h -47.4" /></g><g
         transform="scale(1.07306)"
         id="g110"><path
           id="path112"
           style="fill:#da976c;fill-opacity:1;fill-rule:nonzero;stroke:none"
           d="m 16259.8,15782.9 7.2,-272.4 33,218.2 c 0,0 -11.4,31.6 -40.2,54.2" /></g><g
         transform="scale(1.06193)"
         id="g114"><path
           id="path116"
           style="fill:#da976c;fill-opacity:1;fill-rule:nonzero;stroke:none"
           d="m 16283.2,15606.3 c 16.3,23.3 16.8,56.1 16.1,70.5 -0.4,4.6 -0.6,7.5 -0.6,7.5 l -9.3,244.5 c 0,0 -16.1,15.2 -43.1,25.7 l 36.9,-348.2" /></g><g
         transform="scale(1.05029)"
         id="g118"><path
           id="path120"
           style="fill:#da976c;fill-opacity:1;fill-rule:nonzero;stroke:none"
           d="m 16268.1,15924.4 31.9,16.4 -12.5,155.2 c 0,0 -26.1,34.3 -70.7,43 19.1,-74.6 51.3,-214.6 51.3,-214.6" /></g><g
         transform="scale(1.04127)"
         id="g122"><path
           id="path124"
           style="fill:#ecaf86;fill-opacity:1;fill-rule:nonzero;stroke:none"
           d="m 11858.2,16082.5 c 0,0 -81.3,183.1 -151.2,196.4 -69.9,13.2 -112.8,-43.5 -112.8,-43.5 0,0 -38.4,47.5 -93.2,45.5 -54.7,-2 -90.7,-36 -90.7,-36 0,0 -64.2,55.1 -115.2,36 -51.1,-19 -69.9,-71.9 -69.9,-71.9 0,0 -60.5,-12.8 -83.2,-25.3 -22.7,-12.5 -18.9,-252.5 28.3,-265.7 47.3,-13.2 88.9,66.1 88.9,66.1 0,0 28.3,-76.7 71.7,-67.6 43.5,9 69.9,78.9 69.9,78.9 0,0 -13.8,-107.7 72.5,-105.8 86.3,1.9 101.5,192.9 101.5,192.9 l 198.3,-102.2 37.8,11.4 -1.9,90.8 h 49.2" /></g><g
         transform="scale(1.03902)"
         id="g126"><path
           id="path128"
           style="fill:#da976c;fill-opacity:1;fill-rule:nonzero;stroke:none"
           d="m 11291,16300 -7.4,-281.3 -34.1,225.4 c 0,0 11.7,32.6 41.5,55.9" /></g><g
         transform="scale(1.03942)"
         id="g130"><path
           id="path132"
           style="fill:#da976c;fill-opacity:1;fill-rule:nonzero;stroke:none"
           d="m 11436.9,15944.2 c -16.6,23.9 -17.1,57.3 -16.4,72.1 0.4,4.7 0.6,7.6 0.6,7.6 l 9.5,249.9 c 0,0 16.5,15.5 44,26.2 l -37.7,-355.8" /></g><g
         transform="scale(1.03991)"
         id="g134"><path
           id="path136"
           style="fill:#da976c;fill-opacity:1;fill-rule:nonzero;stroke:none"
           d="m 11629,16083.3 -32.2,16.5 12.6,156.8 c 0,0 26.3,34.7 71.4,43.4 -19.3,-75.3 -51.8,-216.7 -51.8,-216.7" /></g><g
         transform="scale(1.00098)"
         id="g138"><path
           id="path140"
           style="fill:#31af41;fill-opacity:1;fill-rule:nonzero;stroke:none"
           d="m 14650,16181.7 c 0,0 414,-1936.5 539.8,-2392.5 125.9,-456 492.7,-1618.8 608,-1991.8 115.4,-373 228.4,-1058.8 228.4,-1058.8 0,0 -71.1,864.9 -170.7,1357.6 -99.6,492.7 -393.1,1614.3 -545.1,2274.8 -152,660.4 -408.8,1929 -408.8,1929 l -251.6,-118.3" /></g><g
         transform="scale(1.003)"
         id="g142"><path
           id="path144"
           style="fill:#31af41;fill-opacity:1;fill-rule:nonzero;stroke:none"
           d="m 14087.6,16138.9 c 0,0 -236.7,-1658.8 -489.8,-2497.8 -253.3,-838.9 -817.8,-2850.9 -817.8,-2850.9 0,0 20.1,366.3 46.4,606.9 26.1,240.6 569.4,2811.4 703.2,3385.6 133.7,574.2 429.1,1517.3 429.1,1517.3 l 128.9,-161.1" /></g><g
         transform="scale(1.003)"
         id="g146"><path
           id="path148"
           style="fill:#27853b;fill-opacity:1;fill-rule:nonzero;stroke:none"
           d="m 14067.2,16000.7 c 13.1,87.7 20.4,138.2 20.4,138.2 l -128.9,161.1 c 0,0 -26.6,-85.1 -67.5,-219.6 54.4,-24.4 121.5,-54.9 176,-79.7" /></g><g
         transform="scale(1.00098)"
         id="g150"><path
           id="path152"
           style="fill:#27853b;fill-opacity:1;fill-rule:nonzero;stroke:none"
           d="m 14950.8,16058.2 c -30.4,148.7 -49.2,241.8 -49.2,241.8 l -251.6,-118.3 c 0,0 13,-61 35.1,-163.6 77.9,12.4 174.2,26.8 265.7,40.1" /></g><path
         id="path154"
         style="fill:#da976c;fill-opacity:1;fill-rule:nonzero;stroke:none"
         d="m 14181.7,6593.9 253.8,511.5 -42.7,45.7 -387.3,-443.6 176.2,-113.6" /><path
         id="path156"
         style="fill:#ececec;fill-opacity:1;fill-rule:nonzero;stroke:none"
         d="M 14015.3,6281.2 13922,6106 c 0,0 62.9,-377.8 70.8,-401.4 7.9,-23.6 472.2,-70.8 472.2,-70.8 0,0 33.8,58.5 89.2,153 -278.1,174.7 -454.6,380.5 -538.9,494.4" /><path
         id="path158"
         style="fill:#31af41;fill-opacity:1;fill-rule:nonzero;stroke:none"
         d="m 13069.8,7486.1 c -9.6,61.9 1442.4,-100 1914.6,-89.5 472.2,10.5 643.9,89.5 643.9,89.5 0,0 6.8,-142.3 -148,-236.5 0,0 -742.5,-47.1 -1340.6,-31.4 -598.1,15.8 -894.5,68.2 -894.5,68.2 0,0 -148.9,26.9 -175.4,199.7" /><g
         transform="scale(1.07379)"
         id="g160"><path
           id="path162"
           style="fill:#fbc398;fill-opacity:1;fill-rule:nonzero;stroke:none"
           d="m 15706.3,14803.7 c 0,0 -34.2,156.3 -68.4,263.8 -34.2,107.5 -134.3,246.3 -109.9,311.3 24.4,65 85.5,79.6 192.9,128.5 107.6,48.8 141.8,122.1 193.1,112.4 51.3,-9.8 2.4,-132 -26.9,-166.2 -29.4,-34.2 -73.3,-74.7 -73.3,-74.7 h 486.2 c 0,0 -9.8,-238 -92.8,-365 -83.1,-127 -127.1,-191.8 -127.1,-191.8 0,0 -280.9,-118.5 -293.1,-116 -12.2,2.4 -80.7,97.7 -80.7,97.7" /></g><g
         transform="scale(1.05721)"
         id="g164"><path
           id="path166"
           style="fill:#da976c;fill-opacity:1;fill-rule:nonzero;stroke:none"
           d="m 16180.8,15470 c 0,0 -52.1,57.1 -69.4,79.4 -17.4,22.4 -49.7,70.5 -49.7,70.5 h 238.3 c 0,0 -124.1,-28.3 -119.2,-38.2 5,-9.9 0,-111.7 0,-111.7" /></g><g
         transform="scale(1.02962)"
         id="g168"><path
           id="path170"
           style="fill:#fbc398;fill-opacity:1;fill-rule:nonzero;stroke:none"
           d="m 11959.8,15438.8 c 0,0 35.7,163.1 71.4,275.2 35.6,112.1 140.1,256.8 114.6,324.6 -25.5,67.8 -89.2,83.1 -201.3,134 -112,51 -147.8,127.4 -201.3,117.2 -53.4,-10.2 -2.5,-137.6 28.1,-173.2 30.6,-35.7 76.4,-78 76.4,-78 h -507 c 0,0 10.2,-248.2 96.9,-380.7 86.5,-132.4 132.4,-200 132.4,-200 0,0 293,-123.5 305.8,-121 12.7,2.6 84,101.9 84,101.9" /></g><g
         transform="scale(1.0131)"
         id="g172"><path
           id="path174"
           style="fill:#da976c;fill-opacity:1;fill-rule:nonzero;stroke:none"
           d="m 11916.5,16143.6 c 0,0 54.4,59.6 72.5,82.9 18.1,23.3 51.8,73.5 51.8,73.5 h -248.5 c 0,0 129.4,-29.5 124.2,-39.9 -5.2,-10.3 0,-116.5 0,-116.5" /></g><g
         transform="scale(1.0131)"
         id="g176"><path
           id="path178"
           style="fill:#31af41;fill-opacity:1;fill-rule:nonzero;stroke:none"
           d="m 13748,16300 c 11.7,0 205.9,-96.8 501.1,-116.3 295.2,-19.4 473.9,116.3 473.9,116.3 h 221.4 c 0,0 -112.7,-341.5 -598.2,-384.3 -485.5,-42.7 -660.3,154.8 -745.7,384.3 h 147.5" /></g><path
         id="path180"
         style="fill:#3970c0;fill-opacity:1;fill-rule:nonzero;stroke:none"
         d="m 5551.71,2579 c 0,0 -110.84,-287.3 -105.6,-570.6 5.25,-283.3 110.19,-661.1 -167.89,-692.6 -278.06,-31.4 -529.9,414.5 -540.39,808 -10.5,393.5 433.86,524.8 512.44,543.3 78.58,18.5 301.44,-88.1 301.44,-88.1" /><path
         id="path182"
         style="fill:#2e619f;fill-opacity:1;fill-rule:nonzero;stroke:none"
         d="m 5700.57,2622.2 c -49.59,-47.4 41.46,-288.5 103.36,-461.7 61.91,-173.1 -27.28,-451.2 172.09,-461.7 199.37,-10.5 451.2,550.9 451.2,550.9 l -726.65,372.5" /><path
         id="path184"
         style="fill:#31af41;fill-opacity:1;fill-rule:nonzero;stroke:none"
         d="M 6427.22,2045.1 H 4737.64 v 173.1 h 1689.58 v -173.1" /><path
         id="path186"
         style="fill:#2e619f;fill-opacity:1;fill-rule:nonzero;stroke:none"
         d="m 5630.34,3345.6 c 0,0 20.39,86.6 126.63,175.1 106.25,88.5 339.72,103.6 339.72,103.6 0,0 167.89,-490.5 149.53,-574.5 -18.37,-83.9 -65.59,-220.3 -139.04,-233.4 -73.45,-13.2 -147.38,-99 -236.33,9.5 -88.96,108.5 -240.51,519.7 -240.51,519.7" /><path
         id="path188"
         style="fill:#fbc398;fill-opacity:1;fill-rule:nonzero;stroke:none"
         d="m 3982.32,5492.1 c 0,0 -99.69,-645.3 -47.22,-1353.6 52.46,-708.3 15.74,-1615.9 73.45,-1867.8 57.71,-251.8 99.69,-377.7 356.77,-398.7 257.08,-21 257.08,125.9 608.6,293.8 351.52,167.9 424.98,267.5 424.98,267.5 0,0 236.09,10.5 466.94,-83.9 230.85,-94.4 661.07,-528.7 1033.57,-479.4 372.51,49.2 346.28,526.6 393.5,930.6 47.22,404 78.7,1264.4 0,1841.6 -78.7,577.1 -107.55,857.8 -107.55,857.8 0,0 -731.9,2.6 -894.55,-23.6 -162.64,-26.3 -692.54,-236.1 -692.54,-236.1 0,0 36.72,-425 141.65,-771.3 104.93,-346.2 167.89,-640.1 241.34,-939.1 73.46,-299.1 110.18,-598.1 110.18,-598.1 l -89.19,-21 c 0,0 15.74,173.1 -52.47,309.5 -68.2,136.4 -278.06,167.9 -278.06,167.9 l -514.17,-104.9 c 0,0 125.92,451.2 199.38,954.9 73.44,503.6 120.66,1002.1 120.66,1002.1 0,0 -624.34,409.2 -849.94,414.5 -225.6,5.2 -645.33,-162.7 -645.33,-162.7" /><path
         id="path190"
         style="fill:#252323;fill-opacity:1;fill-rule:nonzero;stroke:none"
         d="m 4525.34,7735 -171.17,-141.6 -100.34,-417.1 c 0,0 -74.77,-558.8 -102.31,-928.7 l -169.2,-755.5 c 0,0 747.64,-228.2 1495.27,-251.8 v 173.1 l 120.68,-10.5 v -162.6 c 0,0 453.82,-23.6 894.54,55.1 440.71,78.7 692.55,204.6 692.55,204.6 l -196.75,794.8 -188.88,1393 c 0,0 -246.59,175.8 -487.93,165.3 C 6070.45,7842.6 4525.34,7735 4525.34,7735" /><path
         id="path192"
         style="fill:#fbc398;fill-opacity:1;fill-rule:nonzero;stroke:none"
         d="m 4253.83,8966.7 c 0,0 192.81,-680.8 200.68,-885.4 7.87,-204.6 -100.34,-487.9 -100.34,-487.9 0,0 635.49,-102.3 1328.04,-78.7 692.55,23.6 1117.52,173.1 1117.52,173.1 l -66.89,1310.3 c 0,0 -1187.43,257 -1290.66,294.7 -103.22,37.7 -1188.35,-326.1 -1188.35,-326.1" /><path
         id="path194"
         style="fill:#34231f;fill-opacity:1;fill-rule:nonzero;stroke:none"
         d="m 4756.14,12047.2 c 0,0 -191.45,-208 -281.96,-511 -90.5,-303 -95.8,-621.8 140.98,-649.3 236.78,-27.5 531.9,-468.2 571.25,0 39.35,468.3 153.46,708.3 0,909 -153.47,200.7 -430.27,251.3 -430.27,251.3" /><path
         id="path196"
         style="fill:#fbc398;fill-opacity:1;fill-rule:nonzero;stroke:none"
         d="m 6048.16,11268.1 55.09,34.5 c 0,0 124.08,227.3 260.75,387.8 136.67,160.6 203.57,231.4 238.98,286.5 35.42,55.1 121.99,543 306.93,1030.9 184.94,488 259.7,566.7 314.79,743.7 55.09,177.1 133.79,684.7 275.45,1223.8 141.66,539.1 236.1,940.5 236.1,940.5 l 385.62,-39.4 c 0,0 -157.4,-1507.1 -208.55,-1841.5 -51.16,-334.5 -236.1,-617.8 -350.21,-1023.1 -114.12,-405.3 -165.27,-968 -310.86,-1314.3 -145.59,-346.3 -232.16,-511.5 -283.32,-767.3 -51.15,-255.8 -165.26,-842.1 -287.25,-1078.2 -121.98,-236.1 -594.17,-122 -680.74,82.6 -86.57,204.7 47.22,1333.5 47.22,1333.5" /><path
         id="path198"
         style="fill:#fbc398;fill-opacity:1;fill-rule:nonzero;stroke:none"
         d="m 4766.53,11146.6 c 0,0 -79.13,240 -185.74,393.5 -106.61,153.5 -291.55,273.5 -324.99,306.9 -33.45,33.5 -253.81,566.7 -371.85,857.8 -118.05,291.2 -165.27,417.1 -169.21,432.9 -3.93,15.7 -55.09,633.5 -141.65,1066.4 -86.58,432.8 -263.65,755.5 -326.61,1113.5 -62.95,358.1 -90.5,669 -90.5,669 h -401.36 c 0,0 70.83,-920.8 129.85,-1326.1 59.03,-405.3 149.53,-842.1 240.03,-1145.1 90.5,-303 98.38,-328.1 98.38,-328.1 0,0 82.63,-513.7 177.07,-954.5 94.43,-440.9 590.24,-1393.1 590.24,-1393.1 0,0 -7.87,-255.8 19.67,-452.5 27.55,-196.8 141.66,-460.4 141.66,-460.4 0,0 283.31,-165.3 401.36,31.5 118.05,196.7 271.51,334.4 322.67,684.6 51.15,350.3 -109.02,503.7 -109.02,503.7" /><path
         id="path200"
         style="fill:#da976c;fill-opacity:1;fill-rule:nonzero;stroke:none"
         d="m 6665.94,11302.6 c 0,-26.1 51.16,-226.8 -59.02,-584.9 l 59.02,584.9" /><path
         id="path202"
         style="fill:#ecaf86;fill-opacity:1;fill-rule:nonzero;stroke:none"
         d="m 6328.87,11647.3 203.29,172.2 -66.9,-361.8 c 0,0 181.12,428.7 212.54,511.3 31.42,82.7 232.11,1038.8 232.11,1038.8 -184.94,-487.9 -271.51,-975.8 -306.93,-1030.9 -35.41,-55.1 -102.31,-125.9 -238.98,-286.5 -11.85,-13.9 -23.59,-28.4 -35.18,-43.1 h 0.05" /><path
         id="path204"
         style="fill:#ecaf86;fill-opacity:1;fill-rule:nonzero;stroke:none"
         d="m 3849.19,12790.9 v 0 c 87.24,-409.8 392.84,-1030.4 392.84,-1030.4 23.22,-154 82.63,-330.6 86.56,-350.2 3.93,-19.7 -27.55,318.7 -27.55,318.7 0,0 278.3,-187.9 302.76,-224 -7.51,12.1 -15.18,23.8 -23.01,35.1 -106.61,153.5 -291.55,273.5 -324.99,306.9 -33.45,33.5 -253.81,566.7 -371.86,857.8 -12.36,30.6 -23.9,59.1 -34.75,86.1" /><path
         id="path206"
         style="fill:#3970c0;fill-opacity:1;fill-rule:nonzero;stroke:none"
         d="m 4883.42,11067.9 -116.89,78.7 c 0,0 -229.39,-480 -292.35,-590.2 -62.95,-110.2 -62.95,-275.5 -133.78,-405.3 -70.83,-129.9 -188.88,-224.3 -188.88,-224.3 l 102.31,-960.1 c 0,0 188.88,43.2 861.75,31.4 672.87,-11.8 987.67,-11.8 1267.05,-3.9 279.38,7.9 350.21,3.9 350.21,3.9 0,0 -51.16,550.9 -51.16,853.9 0,0 -200.68,322.7 -310.85,669 -110.19,346.2 -322.67,747.1 -322.67,747.1 l -110.18,-23.1 -1011.28,-251.8 -43.28,74.7" /><path
         id="path208"
         style="fill:#fbc398;fill-opacity:1;fill-rule:nonzero;stroke:none"
         d="m 5029.01,11772.3 -70.83,-676.9 -74.76,-27.5 c 0,0 -149.53,-271.5 -165.27,-413.2 -15.74,-141.6 330.54,-377.7 712.23,-385.6 381.68,-7.8 613.84,208.6 649.26,338.4 35.41,129.9 -141.66,637.5 -141.66,637.5 l -47.22,27.5 -31.48,515.5 -830.27,-15.7" /><path
         id="path210"
         style="fill:#da976c;fill-opacity:1;fill-rule:nonzero;stroke:none"
         d="m 5050.68,11647.2 c 0,0 147.53,-260.6 234.1,-327.4 86.57,-66.9 247.9,-70.9 354.15,0 106.24,70.8 230.55,301.3 230.55,301.3 l -818.8,26.1" /><path
         id="path212"
         style="fill:#da976c;fill-opacity:1;fill-rule:nonzero;stroke:none"
         d="m 5234.94,11457.7 c 2.62,-23.8 77.38,-366.2 77.38,-366.2 l -212.74,473.6 135.36,-107.4" /><path
         id="path214"
         style="fill:#da976c;fill-opacity:1;fill-rule:nonzero;stroke:none"
         d="m 5599.58,11437.8 -62.96,-318.7 250.08,367 z" /><path
         id="path216"
         style="fill:#3970c0;fill-opacity:1;fill-rule:nonzero;stroke:none"
         d="m 4782.2,12198.5 c 0,0 -29.47,-86.7 -26.06,-151.3 3.41,-64.6 123.58,-206.6 199.4,-227 75.82,-20.4 136.89,137.9 122.18,175.7 -14.72,37.9 -33,74.1 -93.93,118.2 -60.91,44.2 -201.59,84.4 -201.59,84.4" /><path
         id="path218"
         style="fill:#34231f;fill-opacity:1;fill-rule:nonzero;stroke:none"
         d="m 4803.48,12404.5 c 0,0 -56.33,268.9 -29.89,568.2 26.44,299.3 345.43,473.5 354.71,476.5 9.28,3 210.84,156.2 565.34,64.6 354.5,-91.6 466.45,-484.3 478.06,-610.9 11.62,-126.7 -21.82,-568 -21.82,-568 0,0 -155.11,-128.7 -253.91,-131.2 -98.81,-2.5 -506.4,-15.6 -654.55,-8.6 -148.14,7.1 -351.77,29.8 -357.86,45.3 -6.08,15.5 -80.08,164.1 -80.08,164.1" /><path
         id="path220"
         style="fill:#fbc398;fill-opacity:1;fill-rule:nonzero;stroke:none"
         d="m 4803.68,12439.2 c 0,0 -50.83,18.9 -64.96,-22.7 -14.14,-41.6 13.28,-104.3 17.62,-155.3 4.33,-50.9 12.98,-157.5 45.12,-204 32.15,-46.5 101.45,-74.7 101.45,-74.7 0,0 45.38,-160 88.84,-250.6 43.47,-90.5 255.3,-295.5 308.38,-325.9 53.07,-30.4 249.9,-26.9 321.83,-1.9 71.92,25.1 239.6,190.8 309.69,299.2 70.09,108.5 105.8,277.3 105.8,277.3 0,0 90.61,52.7 116.39,105.8 25.77,53.1 19.53,173.5 24.23,185.1 4.7,11.5 35.53,137.7 12.53,163.8 -23.01,26.1 -72.01,-38.4 -76.74,-56.9 -4.74,-18.5 -23.39,-39.2 -23.39,-39.2 0,0 -26.96,141.4 -24.28,203.9 2.68,62.5 -33.82,157.6 -54.22,231.8 -20.41,74.2 -61.19,229.6 -192.56,334.5 -131.37,105 -395.5,74.1 -460.35,72.2 -64.84,-2 -129.74,-13.2 -146,-22.3 -16.26,-9.2 -109.47,-110.5 -193.18,-172.6 -83.72,-62 -70.05,-101.4 -79.72,-170.8 -9.67,-69.4 -35.56,-143.4 -45.21,-210.5 -9.66,-67.1 -28.94,-198.9 -33.68,-217.4 -4.74,-18.5 -14.04,-25.4 -14.04,-25.4 l -43.55,76.6" /><g
         transform="scale(1.02737)"
         id="g222"><path
           id="path224"
           style="fill:#838585;fill-opacity:1;fill-rule:nonzero;stroke:none"
           d="M 563.183,16073.7 H 9341.78 V 16300 H 563.183 v -226.3" /></g><path
         id="path226"
         style="fill:#2e67a0;fill-opacity:1;fill-rule:nonzero;stroke:none"
         d="m 4416.48,9513.6 c 0,0 215.1,-110.2 584.98,-78.7 369.89,31.5 440.72,196.8 440.72,196.8 0,0 181,-180.6 444.65,-202.4 263.64,-21.9 515.47,0 515.47,0 0,0 -157.39,-128.2 -456.45,-136 -299.05,-7.9 -503.67,82.6 -503.67,82.6 0,0 -98.38,-83.6 -432.84,-83.1 -334.47,0.5 -592.86,220.8 -592.86,220.8" /><path
         id="path228"
         style="fill:#100f0d;fill-opacity:1;fill-rule:nonzero;stroke:none"
         d="m 5178.54,5691.5 c 0,0 351.52,-162.7 430.22,-157.4 78.7,5.2 571.87,115.4 571.87,115.4 l -582.36,-246.6 -120.68,10.5 -299.05,278.1" /><path
         id="path230"
         style="fill:#da976c;fill-opacity:1;fill-rule:nonzero;stroke:none"
         d="m 4984.41,2727.2 c -20.16,-17.6 131.17,262.3 173.14,556.1 l 92.72,18.9 c 0,0 -61.24,-396.7 -265.86,-575" /><path
         id="path232"
         style="fill:#e9aa80;fill-opacity:1;fill-rule:nonzero;stroke:none"
         d="m 5198.52,2667.1 c -16.45,0 -33.57,0.8 -51.46,2.4 0,0 204.61,10.4 419.73,262.3 0,0 -61.49,-264.7 -368.27,-264.7" /><path
         id="path234"
         style="fill:#da976c;fill-opacity:1;fill-rule:nonzero;stroke:none"
         d="m 5398.9,2433.3 c 0,0 167.89,167.9 288.56,262.4 120.67,94.4 314.79,215.1 314.79,215.1 0,0 -215.11,-209.9 -301.68,-288.6 -86.57,-78.7 -181,-188.9 -181,-188.9 H 5398.9" /><path
         id="path236"
         style="fill:#da976c;fill-opacity:1;fill-rule:nonzero;stroke:none"
         d="m 6227.85,2533 -136.41,398.8 -89.19,-21 -114.84,-111.4 170.22,32.7 170.22,-299.1" /><path
         id="path238"
         style="fill:#ececec;fill-opacity:1;fill-rule:nonzero;stroke:none"
         d="m 5602.15,3374 c 0,0 296.34,-192.8 285.26,-574.6 l 114.84,111.4 c 0,0 23.61,160 -52.46,309.5 -76.08,149.6 -278.07,167.9 -278.07,167.9 l -69.57,-14.2" /><g
         transform="scale(1.00322)"
         id="g240"><path
           id="path242"
           style="fill:#31af41;fill-opacity:1;fill-rule:nonzero;stroke:none"
           d="m 7060.78,5892.41 c 0,0 -180.91,1927.59 -243.67,2625.74 -62.76,698.15 -498.12,3188.85 -553.05,3686.95 -54.9,498.2 -570.69,4094.9 -570.69,4094.9 l -178.46,-88.3 c 0,0 618.47,-4037.7 664.21,-4332 45.73,-294.3 261.46,-1561.2 300.67,-2051.47 39.22,-490.32 333.4,-2961.36 333.4,-2961.36 0,0 142.11,-512.05 147.53,-552.22 5.44,-40.07 100.06,-422.24 100.06,-422.24" /></g><path
         id="path244"
         style="fill:#da976c;fill-opacity:1;fill-rule:nonzero;stroke:none"
         d="m 7295.53,13503.6 c 0,0 102.31,-27.5 208.55,0 106.25,27.6 137.73,39.4 137.73,39.4 0,0 -102.31,-137.7 -216.42,-133.8 -114.12,3.9 -129.86,94.4 -129.86,94.4" /><g
         transform="scale(1.04122)"
         id="g246"><path
           id="path248"
           style="fill:#ecaf86;fill-opacity:1;fill-rule:nonzero;stroke:none"
           d="m 7356.94,16080.6 c -2.51,7.6 93.22,171.3 161.25,191.5 68.02,20.1 107.09,-30.2 107.09,-30.2 0,0 74.31,47.8 119.66,45.3 45.35,-2.5 73.06,-37.8 73.06,-37.8 0,0 60.47,50.6 110.85,37.9 50.39,-12.7 80.63,-75.7 80.63,-75.7 0,0 78.1,4.7 98.26,-26.6 20.15,-31.3 27.71,-237.9 -35.27,-280.8 -62.99,-42.8 -88.19,50.4 -88.19,50.4 0,0 -27.71,-47.8 -70.54,-50.4 -42.83,-2.5 -70.55,53 -70.55,53 0,0 -20.87,-80.7 -103.65,-73.1 -82.79,7.6 -114.26,156.2 -114.26,156.2 0,0 -197.8,-52.9 -197.8,-45.4 0,7.6 -22.67,91.6 -22.67,91.6 l -47.87,-5.9" /></g><g
         transform="scale(1.03994)"
         id="g250"><path
           id="path252"
           style="fill:#da976c;fill-opacity:1;fill-rule:nonzero;stroke:none"
           d="m 7842.7,15953.2 h 0.01 l 36.64,346.8 c -29.12,-11.8 -51.78,-30.7 -51.78,-30.7 l -0.19,0.2 c -1.06,-13.5 -2.33,-22.7 -2.33,-22.7 l 17.65,-293.6" /></g><g
         transform="scale(1.03567)"
         id="g254"><path
           id="path256"
           style="fill:#da976c;fill-opacity:1;fill-rule:nonzero;stroke:none"
           d="m 8105.72,16295 c -26.4,5 -53.35,3.4 -53.35,3.4 l -25.32,-258.3 78.67,254.9" /></g><g
         transform="scale(1.03919)"
         id="g258"><path
           id="path260"
           style="fill:#da976c;fill-opacity:1;fill-rule:nonzero;stroke:none"
           d="m 7648.32,16117.8 c 0,0 22.04,103 40.85,182.2 -27.19,-12.5 -49.05,-26.5 -49.05,-26.5 l 8.2,-155.7" /></g><g
         transform="scale(1.04122)"
         id="g262"><path
           id="path264"
           style="fill:#ecaf86;fill-opacity:1;fill-rule:nonzero;stroke:none"
           d="m 3098.25,16080.6 c 2.52,7.6 -93.22,171.3 -161.25,191.5 -68.02,20.1 -107.08,-30.2 -107.08,-30.2 0,0 -74.32,47.8 -119.66,45.3 -45.35,-2.5 -73.07,-37.8 -73.07,-37.8 0,0 -60.46,50.6 -110.85,37.9 -50.39,-12.7 -80.62,-75.7 -80.62,-75.7 0,0 -78.11,4.7 -98.26,-26.6 -20.15,-31.3 -27.71,-237.9 35.27,-280.8 62.99,-42.8 88.18,50.4 88.18,50.4 0,0 27.71,-47.8 70.55,-50.4 42.83,-2.5 70.54,53 70.54,53 0,0 20.88,-80.7 103.66,-73.1 82.78,7.6 114.26,156.2 114.26,156.2 0,0 197.79,-52.9 197.79,-45.4 0,7.6 22.67,91.6 22.67,91.6 l 47.87,-5.9" /></g><g
         transform="scale(1.03994)"
         id="g266"><path
           id="path268"
           style="fill:#da976c;fill-opacity:1;fill-rule:nonzero;stroke:none"
           d="m 2625.3,15953.2 h -0.02 l -36.63,346.8 c 29.11,-11.8 51.77,-30.7 51.77,-30.7 l 0.19,0.2 c 1.06,-13.5 2.34,-22.7 2.34,-22.7 l -17.65,-293.6" /></g><g
         transform="scale(1.03567)"
         id="g270"><path
           id="path272"
           style="fill:#da976c;fill-opacity:1;fill-rule:nonzero;stroke:none"
           d="m 2405.47,16295 c 26.39,5 53.34,3.4 53.34,3.4 l 25.33,-258.3 -78.67,254.9" /></g><g
         transform="scale(1.03919)"
         id="g274"><path
           id="path276"
           style="fill:#da976c;fill-opacity:1;fill-rule:nonzero;stroke:none"
           d="m 2827.23,16117.8 c 0,0 -22.03,103 -40.85,182.2 27.21,-12.5 49.05,-26.5 49.05,-26.5 l -8.2,-155.7" /></g><path
         id="path278"
         style="fill:#31af41;fill-opacity:1;fill-rule:nonzero;stroke:none"
         d="m 4156.19,6306.6 v 672.9 l 329.8,5789.6 c 0,0 73.45,1196.2 120.67,1747.1 47.22,550.9 236.1,1774.7 236.1,1774.7 l 162.64,-69.5 -238.87,-2707.3 -228.07,-2360.9 c 0,0 -157.4,-1621.2 -209.87,-2586.6 -52.46,-965.4 -74.76,-1390.3 -74.76,-1390.3 l -97.64,-869.7" /><g
         transform="scale(1.00322)"
         id="g280"><path
           id="path282"
           style="fill:#27853b;fill-opacity:1;fill-rule:nonzero;stroke:none"
           d="m 5736.03,16001.9 c -26.65,186.5 -42.66,298.1 -42.66,298.1 l -178.46,-88.3 c 0,0 11.77,-76.8 32.14,-209.8 h 188.98" /></g><path
         id="path284"
         style="fill:#27853b;fill-opacity:1;fill-rule:nonzero;stroke:none"
         d="m 4990.59,16053.5 14.81,167.9 -162.64,69.5 c 0,0 -14.25,-92.3 -35.87,-237.4 h 183.7" /><g
         transform="scale(1.02913)"
         id="g286"><path
           id="path288"
           style="fill:#2c9d40;fill-opacity:1;fill-rule:nonzero;stroke:none"
           d="m 4901.94,15950.8 c 0,0 17.85,135.1 0,234.5 -17.84,99.4 -53.53,114.7 -61.18,114.7 -7.65,0 -262.55,0 -262.55,0 l -40.78,-27.9 c 0,0 79.02,2.4 119.81,-51.1 40.78,-53.6 28.26,-186.6 28.26,-186.6 l 114.48,-144.8 101.96,61.2" /></g><g
         transform="scale(1.03044)"
         id="g290"><path
           id="path292"
           style="fill:#2c9d40;fill-opacity:1;fill-rule:nonzero;stroke:none"
           d="m 5323.44,15869.5 c 0,0 -28,156.4 0,269.2 28.01,112.8 28.01,112.8 28.01,112.8 0,0 185.84,48.5 320.76,0 0,0 -65.86,-28.1 -87.66,-104.5 -21.81,-76.4 -34.53,-218.9 -34.53,-218.9 l -226.58,-58.6" /></g><path
         id="path294"
         style="fill:#da976c;fill-opacity:1;fill-rule:nonzero;stroke:none"
         d="m 3357.97,13682 c 0,0 34.69,-161.2 -41.97,-377.7 0,0 162.65,136.4 41.97,377.7" /><g
         transform="scale(1.0131)"
         id="g296"><path
           id="path298"
           style="fill:#31af41;fill-opacity:1;fill-rule:nonzero;stroke:none"
           d="m 4727.03,16300 c 11.66,0 205.86,-96.8 501.05,-116.3 295.18,-19.4 473.85,116.3 473.85,116.3 h 221.39 c 0,0 -112.64,-341.5 -598.15,-384.3 -485.5,-42.7 -660.28,154.8 -745.73,384.3 h 147.59" /></g><g
         transform="scale(1.03026)"
         id="g300"><path
           id="path302"
           style="fill:#fbc398;fill-opacity:1;fill-rule:nonzero;stroke:none"
           d="m 7509.03,15448.3 c 0,0 -221.53,485 -221.53,566.5 0,81.5 359.02,269.9 404.85,277.6 45.83,7.6 38.19,-56.1 20.37,-122.3 -17.83,-66.2 -84.03,-134.9 -84.03,-134.9 l 465.97,-5.1 c 0,0 -12.74,-224.1 -58.56,-333.6 -45.84,-109.4 -152.78,-286.4 -152.78,-286.4 0,0 -183.33,-85.3 -203.7,-77.7 -20.37,7.7 -170.59,115.9 -170.59,115.9" /></g><g
         transform="scale(1.01352)"
         id="g304"><path
           id="path306"
           style="fill:#da976c;fill-opacity:1;fill-rule:nonzero;stroke:none"
           d="m 7832.32,16118.8 c -5.17,13 -54.35,75.1 -111.29,111.3 -56.95,36.2 -56.95,36.2 -56.95,36.2 l 90.59,33.7 248.51,-2.7 c 0,0 -103.56,-23.2 -126.85,-49.1 -23.31,-25.8 -44.01,-129.4 -44.01,-129.4" /></g><g
         transform="scale(1.03026)"
         id="g308"><path
           id="path310"
           style="fill:#fbc398;fill-opacity:1;fill-rule:nonzero;stroke:none"
           d="m 3057.36,15448.3 c 0,0 221.53,485 221.53,566.5 0,81.5 -359.03,269.9 -404.86,277.6 -45.83,7.6 -38.19,-56.1 -20.37,-122.3 17.83,-66.2 84.02,-134.9 84.02,-134.9 l -465.96,-5.1 c 0,0 12.74,-224.1 58.57,-333.6 45.83,-109.4 152.77,-286.4 152.77,-286.4 0,0 183.33,-85.3 203.71,-77.7 20.36,7.7 170.59,115.9 170.59,115.9" /></g><g
         transform="scale(1.01352)"
         id="g312"><path
           id="path314"
           style="fill:#da976c;fill-opacity:1;fill-rule:nonzero;stroke:none"
           d="m 2908.56,16118.8 c 5.17,13 54.34,75.1 111.28,111.3 56.95,36.2 56.95,36.2 56.95,36.2 l -90.59,33.7 -248.5,-2.7 c 0,0 103.56,-23.2 126.85,-49.1 23.3,-25.8 44.01,-129.4 44.01,-129.4" /></g></g></g></svg>