<?xml version="1.0" encoding="UTF-8" standalone="no"?>
<svg
   xmlns:dc="http://purl.org/dc/elements/1.1/"
   xmlns:cc="http://creativecommons.org/ns#"
   xmlns:rdf="http://www.w3.org/1999/02/22-rdf-syntax-ns#"
   xmlns:svg="http://www.w3.org/2000/svg"
   xmlns="http://www.w3.org/2000/svg"
   viewBox="0 0 2666.6667 2666.6667"
   height="2666.6667"
   width="2666.6667"
   xml:space="preserve"
   id="svg2"
   version="1.1"><metadata
     id="metadata8"><rdf:RDF><cc:Work
         rdf:about=""><dc:format>image/svg+xml</dc:format><dc:type
           rdf:resource="http://purl.org/dc/dcmitype/StillImage" /></cc:Work></rdf:RDF></metadata><defs
     id="defs6" /><g
     transform="matrix(1.3333333,0,0,-1.3333333,0,2666.6667)"
     id="g10"><g
       transform="scale(0.1)"
       id="g12"><g
         transform="scale(1.22699)"
         id="g14"><path
           id="path16"
           style="fill:none;fill-opacity:1;fill-rule:nonzero;stroke:none"
           d="M 16300,0 H 0 V 16300 H 16300 V 0" /></g><path
         id="path18"
         style="fill:#c37140;fill-opacity:1;fill-rule:nonzero;stroke:none"
         d="m 9014.06,11765 -160.92,432.4 c 0,0 -336.24,0 -552.4,43.2 -216.16,43.2 -417.91,163.3 -417.91,163.3 0,0 -134.5,76.9 -163.32,134.5 -28.82,57.7 0,240.2 0,240.2 0,0 -28.82,403 100.88,737.1 129.69,334.1 225.76,579.1 225.76,579.1 l 360.27,112.8 c 0,0 -76.86,-501.9 -81.66,-665.2 -4.81,-163.4 4.8,-499 4.8,-499 h 293.02 c 0,0 163.31,133.9 391.48,148.3 228.17,14.4 396.3,-96.1 458.74,-115.3 62.45,-19.2 215.19,14.4 215.19,14.4 0,0 284.38,-196.9 269.97,-355.4 -14.41,-158.6 -10.7,-480.4 -132.65,-610.1 -121.94,-129.7 -448.58,-379.5 -448.58,-379.5 l -362.67,19.2" /><path
         id="path20"
         style="fill:#c37140;fill-opacity:1;fill-rule:nonzero;stroke:none"
         d="m 11372.6,11765 161,432.4 c 0,0 336.2,0 552.4,43.2 216.1,43.2 417.9,163.3 417.9,163.3 0,0 134.5,76.9 163.3,134.5 28.8,57.7 0,240.2 0,240.2 0,0 28.8,403 -100.9,737.1 -129.7,334.1 -225.8,579.1 -225.8,579.1 l -360.2,112.8 c 0,0 76.8,-501.9 81.6,-665.2 4.8,-163.4 -4.8,-499 -4.8,-499 h -293 c 0,0 -163.3,133.9 -391.5,148.3 -228.1,14.4 -375.2,-69.7 -437.7,-88.9 -62.4,-19.2 -191.6,-4.8 -191.6,-4.8 0,0 -329,-204.1 -314.6,-362.6 14.4,-158.6 10.7,-480.4 132.7,-610.1 121.9,-129.7 448.6,-379.5 448.6,-379.5 l 362.6,19.2" /><path
         id="path22"
         style="fill:#c37140;fill-opacity:1;fill-rule:nonzero;stroke:none"
         d="m 8892.62,7598 c 0,0 -16.5,-569.7 31.54,-800.2 0,0 0,-249.8 110.47,-341.1 110.49,-91.3 576.43,-81.7 595.64,-81.7 19.22,0 1119.23,19.3 1167.23,28.9 48.1,9.6 317.1,62.4 432.4,225.7 115.2,163.4 100.8,1052 100.8,1052 0,0 -917.4,-57.6 -912.6,-76.8 4.8,-19.3 43.2,-273.8 43.2,-273.8 l -489.97,-197 c 0,0 -216.16,76.9 -240.18,115.3 -24.02,38.4 -158.52,384.3 -177.73,398.7 -19.22,14.4 -660.8,-50 -660.8,-50" /><path
         id="path24"
         style="fill:#252323;fill-opacity:1;fill-rule:nonzero;stroke:none"
         d="m 9341.9,10291.6 -36.79,-382.2 c 0,0 -131.17,-493.7 -260.87,-1070.1 -129.69,-576.5 -259.39,-1174.5 -259.39,-1174.5 0,0 151.31,-122.5 461.14,-194.5 309.83,-72.1 734.94,79.2 734.94,79.2 0,0 50.47,511.6 122.47,634.1 0,0 55.9,-93.7 92.8,-288.2 36.9,-194.6 46.4,-331.5 46.4,-331.5 0,0 235.5,-122.5 610.2,-57.6 374.7,64.8 547.6,180.1 547.6,180.1 0,0 -237.8,1397.8 -237.8,1477.1 0,79.3 -151.3,734.9 -151.3,734.9 l -75.7,263 c 0,0 -493.5,234.2 -515.1,241.4 -21.7,7.2 -1078.6,-111.2 -1078.6,-111.2" /><path
         id="path26"
         style="fill:#a45330;fill-opacity:1;fill-rule:nonzero;stroke:none"
         d="m 10461.3,7331 c 0,0 369.9,52.5 672.5,-302.8 0,0 -117.6,403.1 -687.9,403.5 l 15.4,-100.7" /><path
         id="path28"
         style="fill:#a45330;fill-opacity:1;fill-rule:nonzero;stroke:none"
         d="m 9587.04,7143.6 c 0,0 -259.39,-35.1 -393.89,-207.3 0,0 48.04,231.3 249.78,265 201.76,33.6 144.11,-57.7 144.11,-57.7" /><path
         id="path30"
         style="fill:#100f0d;fill-opacity:1;fill-rule:nonzero;stroke:none"
         d="m 10242.6,8926.9 c 0,0 55.4,-347 -139.2,-743.3 l 56.4,-140.1 c 0,0 236.4,430.6 82.8,883.4" /><path
         id="path32"
         style="fill:#252323;fill-opacity:1;fill-rule:nonzero;stroke:none"
         d="m 9495.78,7484.7 c 0,0 -96.07,-139.3 -100.88,-317.1 -4.8,-177.7 43.23,-211.3 50.44,-542.8 7.2,-331.4 -98.47,-720.5 156.12,-989.5 254.58,-269 393.88,38.4 451.54,254.6 57.6,216.2 115.3,672.5 124.9,710.9 9.6,38.4 43.2,201.8 28.8,235.4 -14.4,33.6 -57.6,96.1 -57.6,96.1 0,0 -38.5,220.9 -115.3,345.8 -76.89,124.9 -293.04,288.2 -538.02,206.6" /><path
         id="path34"
         style="fill:#515254;fill-opacity:1;fill-rule:nonzero;stroke:none"
         d="m 10043.4,6850.6 c -16.7,268.8 -52.33,426.8 -79.58,512.7 -103.61,99.8 -277.06,185 -468.04,121.4 0,0 -96.07,-139.3 -100.88,-317.1 -4.8,-177.7 43.23,-211.3 50.44,-542.8 7.2,-331.4 -98.47,-720.5 156.11,-989.5 252.2,-266.5 391.26,32.7 449.85,248.5 5.8,271.6 9.9,679.4 -7.9,966.8" /><path
         id="path36"
         style="fill:#515254;fill-opacity:1;fill-rule:nonzero;stroke:none"
         d="m 10394,6865 c 0,0 -225.7,-120 -283.4,-182.5 -57.7,-62.6 -28.9,-710.9 0,-883.9 28.9,-172.9 -50.5,-499.5 99.6,-648.5 150.2,-148.9 395.2,24.1 481.7,254.6 86.4,230.6 62.4,624.5 120,754.2 57.7,129.7 144.2,538 62.5,706.1 -81.7,168.1 -312.2,134.5 -480.4,0" /><path
         id="path38"
         style="fill:#252323;fill-opacity:1;fill-rule:nonzero;stroke:none"
         d="m 10283.6,6036.7 c 139.3,420.7 86.4,535.3 124.8,703.4 13.8,60.4 53.7,130.7 99.8,196.2 -39.5,-18.5 -78.3,-42.6 -114.2,-71.3 0,0 -225.7,-120 -283.4,-182.5 -57.7,-62.6 -28.9,-710.9 0,-883.9 28.9,-172.9 -50.5,-499.5 99.6,-648.5 3,-2.9 6.1,-5.6 9.2,-8.3 -53.5,192.6 -43.1,571.1 64.2,894.9" /><path
         id="path40"
         style="fill:#a45330;fill-opacity:1;fill-rule:nonzero;stroke:none"
         d="m 9159.53,6615.2 c 0,0 59.83,-62.4 172.93,-52.8 0,0 -100.88,-105.7 -172.93,52.8" /><path
         id="path42"
         style="fill:#a45330;fill-opacity:1;fill-rule:nonzero;stroke:none"
         d="m 9309.48,12538.4 c 0,0 -24.02,-86.5 -105.68,-206.5 0,0 182.54,33.6 105.68,206.5" /><path
         id="path44"
         style="fill:#a45330;fill-opacity:1;fill-rule:nonzero;stroke:none"
         d="m 9429.57,12682.5 c 0,0 172.93,-28.8 307.43,52.9 0,0 -216.17,-4.8 -307.43,-52.9" /><path
         id="path46"
         style="fill:#a45330;fill-opacity:1;fill-rule:nonzero;stroke:none"
         d="m 11055,12538.4 c 0,0 24,-86.5 105.7,-206.5 0,0 -182.6,33.6 -105.7,206.5" /><path
         id="path48"
         style="fill:#a45330;fill-opacity:1;fill-rule:nonzero;stroke:none"
         d="m 10934.9,12682.5 c 0,0 -172.9,-28.8 -307.4,52.9 0,0 216.1,-4.8 307.4,-52.9" /><path
         id="path50"
         style="fill:#e9eef1;fill-opacity:1;fill-rule:nonzero;stroke:none"
         d="m 9825.31,13143.7 -137.32,-52.9 c 0,0 -32.65,-446.7 -191.17,-792.6 -158.52,-345.8 -482.76,-533.2 -482.76,-533.2 0,0 158.52,-453.9 194.55,-583.6 36.02,-129.7 43.23,-381.9 57.64,-497.1 14.41,-115.3 0,-410.8 14.41,-490 14.41,-79.3 14.41,-172.9 36.02,-172.9 21.62,0 295.42,-67.2 475.56,-48.1 180.13,19.2 497.16,-19.1 742.16,0 245,19.2 446.7,55.3 446.7,55.3 0,0 43.2,324.2 43.2,511.5 0,187.4 122.5,727.8 180.2,807 57.6,79.3 168.1,417.9 168.1,417.9 0,0 -341,295.5 -478,641.3 -136.9,345.9 -151.3,691.7 -151.3,691.7 l -146.9,64 -771.09,-18.3" /><path
         id="path52"
         style="fill:#9c9c9b;fill-opacity:1;fill-rule:nonzero;stroke:none"
         d="M 12551.6,14599.1 H 7616.24 v 206.6 h 4935.36 v -206.6" /><path
         id="path54"
         style="fill:#c37140;fill-opacity:1;fill-rule:nonzero;stroke:none"
         d="m 8046.15,14094.8 c 0,0 -74.67,208.9 -93.88,307.4 -19.22,98.5 -12.01,393.9 0,444.3 12.01,50.4 98.47,55.3 98.47,55.3 0,0 28.82,38.4 74.46,43.2 45.63,4.8 64.84,-21.6 64.84,-21.6 0,0 45.64,18 72.05,22.2 26.43,4.2 52.85,-27 52.85,-27 0,0 81.66,0 103.27,-14.4 21.62,-14.4 12.01,-69.7 14.41,-146.5 2.4,-76.9 24.02,-158.6 24.02,-158.6 l 115.28,-2.4 c 0,0 21.62,-69.6 0,-136.9 -21.61,-67.2 -88.19,-234.1 -88.19,-234.1 0,0 -167.52,-210.2 -222.76,-219.8 -55.24,-9.6 -214.82,88.9 -214.82,88.9" /><path
         id="path56"
         style="fill:#a45330;fill-opacity:1;fill-rule:nonzero;stroke:none"
         d="m 8456.64,14404.6 c -2.4,7.2 0,194.5 0,194.5 h 55.24 l -55.24,-194.5" /><path
         id="path58"
         style="fill:#c37140;fill-opacity:1;fill-rule:nonzero;stroke:none"
         d="m 9736.92,13939.3 -37.68,18.5 c 0,0 -45.63,-0.3 -55.79,-18.5 -10.16,-18.3 -10.16,-164.6 0,-178.9 10.16,-14.2 63,-117.8 75.19,-132 12.19,-14.3 67.05,-20.4 67.05,-20.4 0,0 42.67,-150.3 65.02,-182.8 0,0 81.64,-83.3 364.89,-85.4 283.3,-2 352.4,85.4 366.6,97.6 14.2,12.2 69.1,178.8 69.1,178.8 0,0 42.7,-6.1 58.9,6.1 16.3,12.2 46.8,111.7 61,152.4 14.2,40.6 12.2,175.2 0,183.1 -12.2,7.9 -27.9,-10.4 -27.9,-10.4 0,0 -94,-8.1 -100.1,-8.1 -6.1,0 -550.7,22.6 -609.6,20.5 -58.94,-2.3 -296.68,-20.5 -296.68,-20.5" /><path
         id="path60"
         style="fill:#c37140;fill-opacity:1;fill-rule:nonzero;stroke:none"
         d="m 9947.23,13430.2 -96.52,-5 c 0,0 8.13,-23.5 14.23,-85.4 6.1,-61.9 -39.63,-196.1 -39.63,-196.1 0,0 195.39,51.9 390.29,58 194.9,6 380.8,-39.7 380.8,-39.7 0,0 -34.5,108.7 -24.3,192 10.1,83.4 10.1,83.4 10.1,83.4 0,0 -171.7,75.1 -287.5,78.2 -115.8,3 -347.47,-85.4 -347.47,-85.4" /><path
         id="path62"
         style="fill:#2f1d16;fill-opacity:1;fill-rule:nonzero;stroke:none"
         d="m 10740.7,14430 c -4.2,39.8 -60.1,115 -94.6,158.1 v 0 c 0,0 -105,142.4 -168.9,165.1 -63.9,22.7 -194.7,65.8 -287.3,48.5 -92.7,-17.3 -196.8,-44.4 -252.42,-75.3 -55.02,-30.5 -144.04,-136 -145.96,-138.2 -27.79,-29.8 -52.96,-59.9 -60.69,-79 -19.81,-48.8 -38.1,-79.2 -38.1,-79.2 0,0 -10.67,-378 0,-442 10.66,-64 71.63,-243.8 92.96,-280.4 21.34,-36.6 143.26,-225.5 216.41,-228.6 73.1,-3 374.9,-30.5 454.1,0 79.3,30.5 186,189 237.8,371.9 51.8,182.8 52.8,521.2 46.7,579.1" /><path
         id="path64"
         style="fill:#c37140;fill-opacity:1;fill-rule:nonzero;stroke:none"
         d="m 9825.31,13143.7 c 0,0 160.22,-56.8 232.29,-210.8 72,-153.9 115.3,-276.4 194.5,-276.4 79.3,0 72.1,260.6 165.8,350 93.6,89.5 178.5,155.5 178.5,155.5 l -293.8,236.7 -355.37,31.5 -121.92,-286.5" /><path
         id="path66"
         style="fill:#c0c4c7;fill-opacity:1;fill-rule:nonzero;stroke:none"
         d="m 10215.6,12164.9 c 0,0 -67.4,-831.8 -30.7,-1513.1 0,0 79.4,799.8 30.7,1513.1" /><path
         id="path68"
         style="fill:#c0c4c7;fill-opacity:1;fill-rule:nonzero;stroke:none"
         d="m 9687.99,11865.9 c 0,0 52.48,-223.1 269.97,-403.5 0,0 -251.73,14.4 -269.97,403.5" /><path
         id="path70"
         style="fill:#c0c4c7;fill-opacity:1;fill-rule:nonzero;stroke:none"
         d="m 10731.4,11865.9 c 0,0 -52.5,-223.1 -269.9,-403.5 0,0 251.7,14.4 269.9,403.5" /><path
         id="path72"
         style="fill:#a45330;fill-opacity:1;fill-rule:nonzero;stroke:none"
         d="m 7945.28,12845.8 c 0,0 -81.66,-148.9 -76.86,-273.8 0,0 -129.69,187.4 76.86,273.8" /><path
         id="path74"
         style="fill:#a45330;fill-opacity:1;fill-rule:nonzero;stroke:none"
         d="m 8622.58,13043.4 c 0,0 -100.88,-115.9 -216.16,-168.7 0,0 86.46,102 108.08,168.7 h 108.08" /><path
         id="path76"
         style="fill:#c37140;fill-opacity:1;fill-rule:nonzero;stroke:none"
         d="m 12340.5,14094.8 c 0,0 74.7,208.9 93.9,307.4 19.2,98.5 12,393.9 0,444.3 -12,50.4 -98.4,55.3 -98.4,55.3 0,0 -28.9,38.4 -74.5,43.2 -45.6,4.8 -64.8,-21.6 -64.8,-21.6 0,0 -45.7,18 -72.1,22.2 -26.4,4.2 -52.8,-27 -52.8,-27 0,0 -81.7,0 -103.3,-14.4 -21.6,-14.4 -12,-69.7 -14.4,-146.5 -2.4,-76.9 -24,-158.6 -24,-158.6 l -115.3,-2.4 c 0,0 -21.6,-69.6 0,-136.9 21.6,-67.2 88.2,-234.1 88.2,-234.1 0,0 167.5,-210.2 222.7,-219.8 55.3,-9.6 214.8,88.9 214.8,88.9" /><path
         id="path78"
         style="fill:#a45330;fill-opacity:1;fill-rule:nonzero;stroke:none"
         d="m 11930.1,14404.6 c 2.4,7.2 0,194.5 0,194.5 h -55.3 l 55.3,-194.5" /><path
         id="path80"
         style="fill:#a45330;fill-opacity:1;fill-rule:nonzero;stroke:none"
         d="m 12441.4,12845.8 c 0,0 81.7,-148.9 76.9,-273.8 0,0 129.7,187.4 -76.9,273.8" /><path
         id="path82"
         style="fill:#a45330;fill-opacity:1;fill-rule:nonzero;stroke:none"
         d="m 11764.1,13043.4 c 0,0 100.9,-115.9 216.2,-168.7 0,0 -86.5,102 -108.1,168.7 h -108.1" /><path
         id="path84"
         style="fill:#c37140;fill-opacity:1;fill-rule:nonzero;stroke:none"
         d="m 2211.94,5624.2 c 0,0 -16.5,-569.7 31.54,-800.3 0,0 0,-249.7 110.48,-341 110.48,-91.3 576.43,-81.7 595.64,-81.7 19.21,0 1119.22,19.2 1167.26,28.8 48.03,9.6 317.03,62.5 432.31,225.8 115.29,163.3 100.88,1052 100.88,1052 0,0 -917.47,-57.7 -912.67,-76.9 4.8,-19.2 43.23,-273.8 43.23,-273.8 l -489.96,-196.9 c 0,0 -216.16,76.8 -240.18,115.3 -24.01,38.4 -158.51,384.2 -177.73,398.7 -19.21,14.4 -660.8,-50 -660.8,-50" /><path
         id="path86"
         style="fill:#252323;fill-opacity:1;fill-rule:nonzero;stroke:none"
         d="m 2697.76,8144.4 -82.01,-299 c 0,0 -122.49,-403.5 -252.18,-980 C 2233.87,6289 2104.18,5691 2104.18,5691 c 0,0 151.31,-122.5 461.14,-194.6 309.83,-72 734.94,79.3 734.94,79.3 0,0 50.43,511.6 122.49,634.1 0,0 55.85,-93.7 92.77,-288.3 36.92,-194.5 46.39,-331.4 46.39,-331.4 0,0 235.51,-122.5 610.19,-57.6 374.68,64.8 547.6,180.1 547.6,180.1 0,0 -237.77,1397.8 -237.77,1477.1 0,79.2 -151.31,734.9 -151.31,734.9 l -75.66,263 c 0,0 -493.56,234.2 -515.18,241.4 -21.62,7.2 -1042.02,-284.6 -1042.02,-284.6" /><path
         id="path88"
         style="fill:#a45330;fill-opacity:1;fill-rule:nonzero;stroke:none"
         d="m 3780.61,5357.1 c 0,0 369.87,52.6 672.5,-302.7 0,0 -117.61,403 -687.85,403.5 l 15.35,-100.8" /><path
         id="path90"
         style="fill:#a45330;fill-opacity:1;fill-rule:nonzero;stroke:none"
         d="m 2906.37,5169.8 c 0,0 -259.39,-35.1 -393.89,-207.3 0,0 48.03,231.3 249.78,264.9 201.75,33.7 144.11,-57.6 144.11,-57.6" /><path
         id="path92"
         style="fill:#100f0d;fill-opacity:1;fill-rule:nonzero;stroke:none"
         d="m 3561.91,6953 c 0,0 55.38,-347 -139.16,-743.2 l 56.4,-140.1 c 0,0 236.33,430.6 82.76,883.3" /><path
         id="path94"
         style="fill:#252323;fill-opacity:1;fill-rule:nonzero;stroke:none"
         d="m 2815.1,5510.8 c 0,0 -96.07,-139.3 -100.88,-317 -4.8,-177.7 43.24,-211.3 50.44,-542.8 7.21,-331.4 -98.47,-720.5 156.12,-989.5 254.59,-269 393.89,38.4 451.53,254.6 57.64,216.1 115.29,672.5 124.89,710.9 9.61,38.4 43.23,201.7 28.82,235.4 -14.41,33.6 -57.64,96 -57.64,96 0,0 -38.43,221 -115.28,345.9 -76.86,124.9 -293.02,288.2 -538,206.5" /><path
         id="path96"
         style="fill:#515254;fill-opacity:1;fill-rule:nonzero;stroke:none"
         d="m 3362.7,4876.8 c -16.7,268.8 -52.3,426.8 -79.56,512.6 -103.6,99.9 -277.06,185.1 -468.04,121.4 0,0 -96.07,-139.3 -100.87,-317 -4.81,-177.7 43.23,-211.3 50.43,-542.8 7.21,-331.4 -98.47,-720.5 156.12,-989.5 252.19,-266.5 391.25,32.7 449.87,248.4 5.81,271.6 9.91,679.5 -7.95,966.9" /><path
         id="path98"
         style="fill:#515254;fill-opacity:1;fill-rule:nonzero;stroke:none"
         d="m 3713.36,4891.2 c 0,0 -225.73,-120 -283.44,-182.5 -57.71,-62.6 -28.86,-711 0,-883.9 28.85,-172.9 -50.53,-499.6 99.64,-648.5 150.18,-148.9 395.16,24 481.62,254.6 86.46,230.6 62.45,624.5 120.09,754.2 57.64,129.7 144.11,538 62.45,706.1 -81.66,168.1 -312.24,134.5 -480.36,0" /><path
         id="path100"
         style="fill:#252323;fill-opacity:1;fill-rule:nonzero;stroke:none"
         d="m 3602.88,4062.9 c 139.3,420.6 86.47,535.3 124.89,703.4 13.81,60.4 53.67,130.7 99.72,196.2 -39.52,-18.6 -78.25,-42.6 -114.13,-71.3 0,0 -225.73,-120 -283.44,-182.5 -57.71,-62.6 -28.86,-711 0,-883.9 28.85,-172.9 -50.53,-499.6 99.64,-648.5 3.01,-3 6.11,-5.6 9.19,-8.3 -53.49,192.5 -43.12,571.1 64.13,894.9" /><path
         id="path102"
         style="fill:#a45330;fill-opacity:1;fill-rule:nonzero;stroke:none"
         d="m 2478.85,4641.4 c 0,0 59.83,-62.5 172.93,-52.8 0,0 -100.88,-105.7 -172.93,52.8" /><path
         id="path104"
         style="fill:#c37140;fill-opacity:1;fill-rule:nonzero;stroke:none"
         d="m 2954.4,11116.6 -59.77,72 c 0,0 -134.77,295.4 -430.19,518.8 0,0 -136.9,475.5 -273.8,691.7 0,0 -36.03,490 -144.11,893.5 -108.08,403.5 -115.28,854.7 -115.28,854.7 l -381.88,-62 c 0,0 -57.65,-555 -43.23,-893.6 14.41,-338.7 129.69,-590.8 129.69,-590.8 0,0 25.22,-572.9 79.26,-958.3 54.04,-385.5 220.96,-608 220.96,-608 0,0 19.22,-187 96.07,-369.6 76.86,-182.5 197,-336.2 197,-336.2 0,0 73.89,-456.2 134.45,-638.9 0,0 427.51,-72 427.51,-52.8 0,19.2 264.2,413.1 312.23,528.4 48.04,115.3 72.06,432.3 43.23,538 -28.82,105.6 -192.14,413.1 -192.14,413.1" /><path
         id="path106"
         style="fill:#c37140;fill-opacity:1;fill-rule:nonzero;stroke:none"
         d="m 3838.25,11145.4 180.26,163.5 c 0,0 67.12,175.1 362.54,398.5 0,0 136.9,475.5 273.8,691.7 0,0 36.03,490 144.11,893.5 108.08,403.5 115.29,854.7 115.29,854.7 l 381.88,-62 c 0,0 57.64,-555 43.23,-893.6 -14.41,-338.7 -129.7,-590.8 -129.7,-590.8 0,0 -25.22,-572.9 -79.25,-958.3 -54.04,-385.5 -220.97,-608 -220.97,-608 0,0 -19.21,-187 -96.07,-369.6 -76.86,-182.5 -196.99,-336.2 -196.99,-336.2 0,0 -73.9,-456.2 -134.45,-638.9 0,0 -427.52,-72 -427.52,-52.8 0,19.2 -264.19,413.1 -312.23,528.4 -48.03,115.3 -72.05,432.3 -43.23,538 28.82,105.6 139.3,441.9 139.3,441.9" /><path
         id="path108"
         style="fill:#a45330;fill-opacity:1;fill-rule:nonzero;stroke:none"
         d="m 4150.48,11164.6 c 0,0 110.49,-52.8 148.91,-312.2 0,0 124.9,278.6 -148.91,312.2" /><path
         id="path110"
         style="fill:#a45330;fill-opacity:1;fill-rule:nonzero;stroke:none"
         d="m 5051.15,12696.5 c 0,0 115.28,-102.8 0,-290.2 0,0 21.61,176.9 0,290.2" /><path
         id="path112"
         style="fill:#9c9c9b;fill-opacity:1;fill-rule:nonzero;stroke:none"
         d="M 5893.85,14599.1 H 958.535 v 206.6 H 5893.85 v -206.6" /><path
         id="path114"
         style="fill:#e9eef1;fill-opacity:1;fill-rule:nonzero;stroke:none"
         d="m 3031.96,11034.6 -77.56,82 c 0,0 64.36,-594.5 -111.92,-907.9 -176.29,-313.4 -478.91,-518.8 -478.91,-518.8 0,0 140.5,-378.3 162.12,-659.3 21.61,-281 172.07,-886.2 172.07,-886.2 0,0 136.91,-75.7 717.36,-75.7 580.45,0 839.84,118.9 839.84,118.9 0,0 21.62,605.3 86.47,907.9 64.84,302.6 140.5,594.4 140.5,594.4 0,0 -163.32,249.8 -326.64,605.3 -163.32,355.4 -317.04,850.2 -317.04,850.2 l -148.9,-110.8 h -657.39" /><path
         id="path116"
         style="fill:#c0c4c7;fill-opacity:1;fill-rule:nonzero;stroke:none"
         d="m 3516.42,10328.8 c 0,0 -52.84,-201.8 0,-533.2 0,0 57.64,314.6 0,533.2" /><path
         id="path118"
         style="fill:#c0c4c7;fill-opacity:1;fill-rule:nonzero;stroke:none"
         d="m 3517.49,9637.1 c 0,0 -12.28,-466 24.55,-845.4 0,0 58.17,686.9 -24.55,845.4" /><path
         id="path120"
         style="fill:#c0c4c7;fill-opacity:1;fill-rule:nonzero;stroke:none"
         d="m 2695.01,10400.8 c 0,0 76.86,-230.5 494.77,-312.2 0,0 -422.71,-120.1 -494.77,312.2" /><path
         id="path122"
         style="fill:#c0c4c7;fill-opacity:1;fill-rule:nonzero;stroke:none"
         d="m 4299.15,10477.2 c 0,0 -49.08,-238 -454.42,-368.4 0,0 433.94,-69.4 454.42,368.4" /><path
         id="path124"
         style="fill:#a45330;fill-opacity:1;fill-rule:nonzero;stroke:none"
         d="m 2695.01,11164.6 c 0,0 -110.48,-52.8 -148.91,-312.2 0,0 -124.89,278.6 148.91,312.2" /><path
         id="path126"
         style="fill:#a45330;fill-opacity:1;fill-rule:nonzero;stroke:none"
         d="m 1794.35,12696.5 c 0,0 -115.29,-102.8 0,-290.2 0,0 -21.62,176.9 0,290.2" /><path
         id="path128"
         style="fill:#c37140;fill-opacity:1;fill-rule:nonzero;stroke:none"
         d="m 1549.37,14085.3 c 0,0 -139.3,218.4 -158.52,316.9 -19.21,98.5 -12.01,393.9 0,444.3 12.01,50.4 98.48,55.3 98.48,55.3 0,0 28.81,38.4 74.45,43.2 45.63,4.8 64.85,-21.6 64.85,-21.6 0,0 45.63,18 72.05,22.2 26.42,4.2 52.84,-27 52.84,-27 0,0 81.66,0 103.28,-14.4 21.61,-14.4 12,-69.7 14.41,-146.5 2.4,-76.9 24.01,-158.6 24.01,-158.6 l 115.29,-2.4 c 0,0 21.61,-69.6 0,-136.9 -21.62,-67.2 -79.26,-312.5 -79.26,-312.5 0,0 -69.65,-112.6 -124.89,-122.2 -55.24,-9.6 -256.99,60.2 -256.99,60.2" /><path
         id="path130"
         style="fill:#a45330;fill-opacity:1;fill-rule:nonzero;stroke:none"
         d="m 1895.22,14404.6 c -2.4,7.2 0,194.5 0,194.5 h 55.24 l -55.24,-194.5" /><path
         id="path132"
         style="fill:#c37140;fill-opacity:1;fill-rule:nonzero;stroke:none"
         d="m 2943.57,11830.1 -37.68,18.5 c 0,0 -45.63,-0.2 -55.79,-18.5 -10.16,-18.3 -10.16,-164.6 0,-178.8 10.16,-14.2 62.99,-117.9 75.18,-132.1 12.19,-14.2 67.05,-20.3 67.05,-20.3 0,0 42.68,-150.4 65.03,-182.9 0,0 81.63,-83.3 364.92,-85.3 283.28,-2.1 352.36,85.3 366.59,97.5 14.22,12.2 69.08,178.8 69.08,178.8 0,0 42.68,-6.1 58.93,6.1 16.25,12.2 46.73,111.8 60.96,152.4 14.22,40.7 12.19,175.2 0,183.1 -12.2,7.9 -27.92,-10.4 -27.92,-10.4 0,0 -94,-8.1 -100.1,-8.1 -6.09,0 -550.66,22.7 -609.59,20.5 -58.92,-2.2 -296.66,-20.5 -296.66,-20.5" /><path
         id="path134"
         style="fill:#c37140;fill-opacity:1;fill-rule:nonzero;stroke:none"
         d="m 3153.88,11321.1 -96.52,-5.1 c 0,0 8.13,-23.4 14.22,-85.4 6.1,-61.9 -39.62,-196 -39.62,-196 0,0 195.42,51.8 390.32,57.9 194.88,6.1 380.81,-39.6 380.81,-39.6 0,0 -34.55,108.7 -24.38,192 10.16,83.3 10.16,83.3 10.16,83.3 0,0 -171.71,75.2 -287.53,78.2 -115.82,3.1 -347.46,-85.3 -347.46,-85.3" /><path
         id="path136"
         style="fill:#2f1d16;fill-opacity:1;fill-rule:nonzero;stroke:none"
         d="m 3947.36,12320.8 c -4.2,39.9 -60.1,115.1 -94.57,158.1 v 0 c 0,0 -105.08,142.5 -168.93,165.1 -63.86,22.7 -194.69,65.8 -287.35,48.5 -92.66,-17.3 -196.76,-44.3 -252.39,-75.2 -55.02,-30.6 -144.04,-136 -145.95,-138.3 -27.79,-29.7 -52.96,-59.9 -60.69,-78.9 -19.82,-48.8 -38.1,-79.3 -38.1,-79.3 0,0 -10.67,-377.9 0,-441.9 10.66,-64 71.62,-243.9 92.95,-280.5 21.34,-36.5 143.26,-225.5 216.41,-228.5 73.15,-3.1 374.9,-30.5 454.15,0 79.24,30.4 185.92,188.9 237.73,371.8 51.82,182.9 52.84,521.2 46.74,579.1" /><path
         id="path138"
         style="fill:#c37140;fill-opacity:1;fill-rule:nonzero;stroke:none"
         d="m 3031.96,11034.6 c 0,0 160.22,-56.9 232.27,-210.8 72.05,-154 115.29,-276.4 194.54,-276.4 79.26,0 72.06,260.5 165.73,350 93.66,89.5 178.59,155.5 178.59,155.5 l -293.88,236.6 -355.33,31.6 -121.92,-286.5" /><path
         id="path140"
         style="fill:#c37140;fill-opacity:1;fill-rule:nonzero;stroke:none"
         d="m 5296.13,14085.3 c 0,0 139.3,218.4 158.51,316.9 19.22,98.5 12.01,393.9 0,444.3 -12,50.4 -98.47,55.3 -98.47,55.3 0,0 -28.82,38.4 -74.46,43.2 -45.63,4.8 -64.84,-21.6 -64.84,-21.6 0,0 -45.63,18 -72.06,22.2 -26.41,4.2 -52.83,-27 -52.83,-27 0,0 -81.66,0 -103.28,-14.4 -21.62,-14.4 -12.01,-69.7 -14.41,-146.5 -2.4,-76.9 -24.02,-158.6 -24.02,-158.6 l -115.28,-2.4 c 0,0 -21.62,-69.6 0,-136.9 21.61,-67.2 79.26,-312.5 79.26,-312.5 0,0 69.65,-112.6 124.89,-122.2 55.24,-9.6 256.99,60.2 256.99,60.2" /><path
         id="path142"
         style="fill:#a45330;fill-opacity:1;fill-rule:nonzero;stroke:none"
         d="m 4950.27,14404.6 c 2.41,7.2 0,194.5 0,194.5 h -55.24 l 55.24,-194.5" /><path
         id="path144"
         style="fill:#a45330;fill-opacity:1;fill-rule:nonzero;stroke:none"
         d="m 4196.03,10208.6 c 55.63,55.7 97.12,140.4 103.12,268.6 0,0 -19.73,-95 -136.48,-197.9 11.14,-24.1 22.28,-47.7 33.36,-70.7" /><path
         id="path146"
         style="fill:#a45330;fill-opacity:1;fill-rule:nonzero;stroke:none"
         d="m 2813.28,10159.7 c 10.02,16 19.82,32.3 29.2,49 2.62,4.7 5.19,9.4 7.7,14.2 -125.03,87.6 -155.17,177.9 -155.17,177.9 19.27,-115.6 63.63,-191.7 118.27,-241.1" /><g
         transform="scale(1.16819)"
         id="g148"><path
           id="path150"
           style="fill:#9c9c9b;fill-opacity:1;fill-rule:nonzero;stroke:none"
           d="M 16300,12497.2 H 12075.3 V 12674 H 16300 v -176.8" /></g><g
         transform="scale(1.08753)"
         id="g152"><path
           id="path154"
           style="fill:#c37140;fill-opacity:1;fill-rule:nonzero;stroke:none"
           d="m 14044.8,8901.11 c 0,0 -15.2,-523.85 29,-735.89 0,0 0,-229.61 101.7,-313.56 101.5,-83.95 530,-75.12 547.6,-75.12 17.7,0 1029.1,17.65 1073.4,26.57 44.1,8.83 291.5,57.38 397.5,207.54 106,150.15 92.7,967.33 92.7,967.33 0,0 -843.6,-52.97 -839.2,-70.71 4.4,-17.66 39.7,-251.77 39.7,-251.77 l -450.5,-181.05 c 0,0 -198.7,70.62 -220.8,106.02 -22.1,35.31 -145.7,353.37 -163.5,366.61 -17.6,13.24 -607.6,-45.97 -607.6,-45.97" /></g><g
         transform="scale(1.09091)"
         id="g156"><path
           id="path158"
           style="fill:#252323;fill-opacity:1;fill-rule:nonzero;stroke:none"
           d="m 14512.7,11143.4 -52.3,-257.5 c 0,0 -201.3,-346.2 -320.1,-874.6 -118.9,-528.41 -237.8,-1076.59 -237.8,-1076.59 0,0 138.7,-112.29 422.6,-178.38 284,-66 673.8,72.69 673.8,72.69 0,0 46.2,468.95 112.2,581.23 0,0 51.2,-85.87 85.1,-264.16 33.8,-178.38 42.5,-303.87 42.5,-303.87 0,0 215.9,-112.29 559.3,-52.8 343.5,59.4 502,165.09 502,165.09 0,0 -218,1281.29 -218,1353.99 0,72.7 -121.2,612.9 -121.2,612.9 l -86.9,301.9 c 0,0 -452.3,214.6 -472.1,221.2 -19.8,6.6 -889.1,-301.1 -889.1,-301.1" /></g><g
         transform="scale(1.07456)"
         id="g160"><path
           id="path162"
           style="fill:#a45330;fill-opacity:1;fill-rule:nonzero;stroke:none"
           d="m 15674.2,8759.97 c 0,0 344.2,48.95 625.8,-281.69 0,0 -109.4,375.03 -640.1,375.5 l 14.3,-93.81" /></g><path
         id="path164"
         style="fill:#a45330;fill-opacity:1;fill-rule:nonzero;stroke:none"
         d="m 15968.6,9225.8 c 0,0 -259.4,-35.1 -393.9,-207.3 0,0 48,231.3 249.8,264.9 201.7,33.7 144.1,-57.6 144.1,-57.6" /><g
         transform="scale(1.02931)"
         id="g166"><path
           id="path168"
           style="fill:#100f0d;fill-opacity:1;fill-rule:nonzero;stroke:none"
           d="m 16150.8,10695.6 c 0,0 53.8,-337.1 -135.3,-722.12 l 54.8,-136.07 c 0,0 229.7,418.29 80.5,858.19" /></g><g
         transform="scale(1.01856)"
         id="g170"><path
           id="path172"
           style="fill:#252323;fill-opacity:1;fill-rule:nonzero;stroke:none"
           d="m 15587.9,9392.53 c 0,0 -94.3,-136.86 -99,-311.32 -4.8,-174.46 42.4,-207.45 49.5,-532.9 7.1,-325.36 -96.7,-707.37 153.3,-971.47 250,-264.1 386.7,37.7 443.3,249.96 56.5,212.16 113.2,660.24 122.6,697.94 9.4,37.71 42.4,198.03 28.3,231.11 -14.2,32.99 -56.6,94.25 -56.6,94.25 0,0 -37.8,216.98 -113.2,339.6 -75.5,122.62 -287.6,282.95 -528.2,202.83" /></g><g
         transform="scale(1.00876)"
         id="g174"><path
           id="path176"
           style="fill:#515254;fill-opacity:1;fill-rule:nonzero;stroke:none"
           d="m 16282.3,8855.22 c -16.6,266.47 -51.9,423.1 -79,508.15 -102.7,99.03 -274.5,183.49 -463.9,120.44 0,0 -95.3,-138.19 -100,-314.34 -4.8,-176.16 42.8,-209.47 50,-538.09 7.2,-328.52 -97.6,-714.24 154.8,-980.9 250,-264.19 387.8,32.41 445.9,246.34 5.8,269.24 9.9,673.5 -7.8,958.4" /></g><g
         transform="scale(1.06366)"
         id="g178"><path
           id="path180"
           style="fill:#515254;fill-opacity:1;fill-rule:nonzero;stroke:none"
           d="m 15771.6,8411.74 c 0,0 -212.3,-112.82 -266.5,-171.58 -54.2,-58.85 -27.1,-668.45 0,-831 27.2,-162.55 -47.5,-469.7 93.7,-609.69 141.1,-139.99 371.5,22.56 452.8,239.36 81.2,216.8 58.7,587.13 112.9,709.07 54.2,121.93 135.5,505.8 58.7,663.84 -76.8,158.04 -293.5,126.45 -451.6,0" /></g><g
         transform="scale(1.03618)"
         id="g182"><path
           id="path184"
           style="fill:#252323;fill-opacity:1;fill-rule:nonzero;stroke:none"
           d="m 16083.2,7835.43 c 134.5,406.01 83.4,516.61 120.6,678.84 13.3,58.29 51.7,126.14 96.2,189.35 -38.1,-17.85 -75.6,-41.11 -110.1,-68.81 0,0 -217.9,-115.81 -273.6,-176.13 -55.7,-60.41 -27.8,-686.17 0,-853.04 27.9,-166.86 -48.8,-482.15 96.2,-625.85 2.9,-2.8 5.9,-5.41 8.8,-8.01 -51.6,185.87 -41.6,551.16 61.9,863.65" /></g><path
         id="path186"
         style="fill:#a45330;fill-opacity:1;fill-rule:nonzero;stroke:none"
         d="m 15541,8697.4 c 0,0 59.9,-62.4 173,-52.8 0,0 -100.9,-105.7 -173,52.8" /><g
         transform="scale(1.00522)"
         id="g188"><path
           id="path190"
           style="fill:#c37140;fill-opacity:1;fill-rule:nonzero;stroke:none"
           d="m 15540.2,13488.7 -43,175.5 c 0,0 -90.8,-311.6 -239,-564.9 -148.1,-253.3 -353.5,-325 -353.5,-325 0,0 -100.4,-38.2 -196,43.1 -95.6,81.2 -95.6,397.4 -95.6,397.4 0,0 -62.1,230.5 -43,449.4 19.1,218.8 -3.7,631.6 -3.7,631.6 l 333.5,-102.2 9.6,-449.2 85.9,133.8 c 0,0 20.3,124.2 57.9,243.7 0,0 -10,458.7 142.9,635.6 152.9,176.8 401.4,172 401.4,172 0,0 237.9,162.5 410.4,162.5 172.5,0 292,-726.4 292,-726.4 l -57.3,-701.4 -310.7,-326 -391.8,150.5" /></g><g
         transform="scale(1.14115)"
         id="g192"><path
           id="path194"
           style="fill:#c37140;fill-opacity:1;fill-rule:nonzero;stroke:none"
           d="m 15457.1,11955.7 15.8,60.3 c 0,0 73.7,-253.9 204.1,-477 130.5,-223.1 311.6,-286.3 311.6,-286.3 0,0 88.3,-33.6 172.5,37.9 84.2,71.6 84.2,350.1 84.2,350.1 0,0 54.7,203.1 37.9,395.9 -16.8,192.7 3.2,428.4 3.2,428.4 l -293.6,37.9 -8.4,-395.7 -75.8,117.9 c 0,0 -17.8,109.5 -51,214.7 0,0 8.9,404.1 -125.9,559.8 -134.7,155.8 -353.5,151.6 -353.5,151.6 0,0 -209.7,143.1 -361.6,143.1 -152,0 -257.2,-639.8 -257.2,-639.8 l 50.5,-617.9 273.6,-287.1 373.6,206.2" /></g><path
         id="path196"
         style="fill:#c37140;fill-opacity:1;fill-rule:nonzero;stroke:none"
         d="m 14760.3,14045.5 c 0,0 -184.3,297.8 -203.6,396.3 -19.2,98.5 -29.5,355.3 -17.4,405.8 12,50.4 98.4,55.2 98.4,55.2 0,0 28.9,38.4 74.5,43.2 45.6,4.8 64.8,-21.6 64.8,-21.6 0,0 45.7,18 72.1,22.2 26.4,4.2 52.8,-27 52.8,-27 0,0 81.7,0 103.3,-14.4 21.6,-14.4 12,-69.7 14.4,-146.5 2.4,-76.9 24,-158.5 24,-158.5 l 115.3,-2.4 c 0,0 21.6,-69.7 0,-136.9 -21.6,-67.3 -180.2,-242.3 -180.2,-242.3 0,0 -75.5,-202.1 -130.7,-211.7 -55.3,-9.6 -87.7,38.6 -87.7,38.6" /><path
         id="path198"
         style="fill:#a45330;fill-opacity:1;fill-rule:nonzero;stroke:none"
         d="m 15043.6,14405.6 c -2.4,7.2 0,194.6 0,194.6 h 55.3 l -55.3,-194.6" /><g
         transform="scale(1.08213)"
         id="g200"><path
           id="path202"
           style="fill:#e9eef1;fill-opacity:1;fill-rule:nonzero;stroke:none"
           d="m 14997.1,14062.3 -126.9,-43 c 0,0 65.2,-397.3 -48.2,-816.8 -113.4,-419.5 -386.4,-672.5 -386.4,-672.5 0,0 111,-388.4 115.4,-574.8 4.5,-186.5 79.4,-721.4 79.4,-721.4 0,0 271.7,-15.5 593.3,-33.3 321.7,-17.7 692.1,-2.6 788.7,54.2 0,0 74.5,496.3 87.9,647.2 13.3,150.9 199.7,705.8 199.7,705.8 0,0 -297.4,150.9 -395.1,612.6 -97.6,461.6 -69.4,799 -69.4,799 l -125.7,59.9 -394,113.2 -318.7,-130.1" /></g><g
         transform="scale(1.0061)"
         id="g204"><path
           id="path206"
           style="fill:#c0c4c7;fill-opacity:1;fill-rule:nonzero;stroke:none"
           d="m 16045.8,14769.6 c 0,0 132.4,-57.3 254.2,-193.4 0,0 -75.2,232.8 -254.2,193.4" /></g><g
         transform="scale(1.0478)"
         id="g208"><path
           id="path210"
           style="fill:#c0c4c7;fill-opacity:1;fill-rule:nonzero;stroke:none"
           d="m 16300,14181.8 c 0,0 -127.2,-55 -244.1,-185.7 0,0 72.1,223.5 244.1,185.7" /></g><g
         transform="scale(1.02674)"
         id="g212"><path
           id="path214"
           style="fill:#c0c4c7;fill-opacity:1;fill-rule:nonzero;stroke:none"
           d="m 16225.1,13554.6 c 0,0 -65.5,-219.9 0,-729.8 0,0 74.9,486.6 0,729.8" /></g><g
         transform="scale(1.02704)"
         id="g216"><path
           id="path218"
           style="fill:#c0c4c7;fill-opacity:1;fill-rule:nonzero;stroke:none"
           d="m 16192.2,14298.9 c 0,0 -28,-205.8 0,-477.1 0,0 107.8,287.5 0,477.1" /></g><path
         id="path220"
         style="fill:#a45330;fill-opacity:1;fill-rule:nonzero;stroke:none"
         d="m 15573.3,14238.9 c 0,0 24,-267 4.8,-503.4 l 43.2,-176.3 68.4,72.8 c 0,0 -44.3,482 -116.4,606.9" /><path
         id="path222"
         style="fill:#a45330;fill-opacity:1;fill-rule:nonzero;stroke:none"
         d="m 15366.7,14291.7 c 0,0 -159,-76.7 -270.2,-228.1 l 35.4,132 c 0,0 85.9,105.7 234.8,96.1" /><path
         id="path224"
         style="fill:#a45330;fill-opacity:1;fill-rule:nonzero;stroke:none"
         d="m 14987.3,13816.2 -139.3,-124.9 137.1,225.7 z" /><path
         id="path226"
         style="fill:#a45330;fill-opacity:1;fill-rule:nonzero;stroke:none"
         d="m 15419.6,13691.3 c 0,0 -107.7,-201.8 -253.2,-393.9 0,0 229.2,81.6 253.2,393.9" /><g
         transform="scale(1.14727)"
         id="g228"><path
           id="path230"
           style="fill:#c37140;fill-opacity:1;fill-rule:nonzero;stroke:none"
           d="m 16096.8,12242.6 c 0,0 160.8,259.5 177.5,345.4 16.7,85.8 25.7,309.7 15.2,353.6 -10.4,44 -85.8,48.2 -85.8,48.2 0,0 -25.1,33.5 -65,37.7 -39.7,4.2 -56.4,-18.9 -56.4,-18.9 0,0 -39.9,15.7 -62.9,19.4 -23,3.7 -46,-23.6 -46,-23.6 0,0 -71.2,0 -90,-12.5 -18.9,-12.6 -10.5,-60.7 -12.6,-127.7 -2.1,-67 -20.9,-138.2 -20.9,-138.2 l -100.5,-2.1 c 0,0 -18.8,-60.7 0,-119.3 18.8,-58.6 157.1,-211.2 157.1,-211.2 0,0 65.8,-176.1 114,-184.5 48.1,-8.4 76.3,33.7 76.3,33.7" /></g><g
         transform="scale(1.11574)"
         id="g232"><path
           id="path234"
           style="fill:#a45330;fill-opacity:1;fill-rule:nonzero;stroke:none"
           d="m 16297.8,12911.3 c 2.2,6.5 0,174.4 0,174.4 h -49.5 l 49.5,-174.4" /></g><g
         transform="scale(1.11234)"
         id="g236"><path
           id="path238"
           style="fill:#a45330;fill-opacity:1;fill-rule:nonzero;stroke:none"
           d="m 16057.1,12848.3 c 0,0 142.9,-69 242.9,-205.1 l -31.8,118.7 c 0,0 -77.2,95 -211.1,86.4" /></g><g
         transform="scale(1.1276)"
         id="g240"><path
           id="path242"
           style="fill:#a45330;fill-opacity:1;fill-rule:nonzero;stroke:none"
           d="m 16176.5,12252.8 123.5,-110.8 -121.7,200.2 -1.8,-89.4" /></g><g
         transform="scale(1.10806)"
         id="g244"><path
           id="path246"
           style="fill:#a45330;fill-opacity:1;fill-rule:nonzero;stroke:none"
           d="m 16071.5,12356.1 c 0,0 97.3,-182.1 228.5,-355.5 0,0 -206.8,73.7 -228.5,355.5" /></g><g
         transform="scale(1.0842)"
         id="g248"><path
           id="path250"
           style="fill:#a45330;fill-opacity:1;fill-rule:nonzero;stroke:none"
           d="m 16285.6,12647.2 c 0,0 -47.6,252.2 14.4,535.2 0,0 -74.2,-75.9 -96.8,-554.4 l 65.8,-44.3 16.6,63.5" /></g><g
         transform="scale(1.05454)"
         id="g252"><path
           id="path254"
           style="fill:#c37140;fill-opacity:1;fill-rule:nonzero;stroke:none"
           d="m 15305.7,15184.6 -35.6,17.6 c 0,0 -43.4,-0.3 -52.9,-17.6 -9.7,-17.3 -9.7,-156.1 0,-169.6 9.5,-13.4 59.7,-111.7 71.2,-125.2 11.5,-13.5 63.6,-19.3 63.6,-19.3 0,0 40.5,-142.6 61.6,-173.4 0,0 77.5,-79 346.1,-80.9 268.6,-1.9 334.1,80.9 347.6,92.5 13.6,11.5 65.5,169.5 65.5,169.5 0,0 40.5,-5.7 55.9,5.8 15.4,11.6 44.4,106 57.8,144.5 13.5,38.6 11.6,166.2 0,173.7 -11.5,7.5 -26.4,-9.9 -26.4,-9.9 0,0 -89.2,-7.7 -94.9,-7.7 -5.8,0 -522.3,21.5 -578.1,19.4 -55.9,-2.1 -281.4,-19.4 -281.4,-19.4" /></g><g
         transform="scale(1.04295)"
         id="g256"><path
           id="path258"
           style="fill:#c37140;fill-opacity:1;fill-rule:nonzero;stroke:none"
           d="m 15677.4,14865.3 -92.5,-4.9 c 0,0 7.9,-22.5 13.7,-81.8 5.8,-59.4 -38,-188 -38,-188 0,0 187.4,49.7 374.2,55.5 186.9,5.9 365.2,-38 365.2,-38 0,0 -33.2,104.3 -23.4,184.1 9.7,79.9 9.7,79.9 9.7,79.9 0,0 -164.6,72.1 -275.7,75 -111,2.9 -333.2,-81.8 -333.2,-81.8" /></g><g
         transform="scale(1.05217)"
         id="g260"><path
           id="path262"
           style="fill:#2f1d16;fill-opacity:1;fill-rule:nonzero;stroke:none"
           d="m 16294.2,15685.2 c -4,37.8 -57.1,109.3 -89.8,150.2 v 0 c 0,0 -99.9,135.4 -160.6,157 -60.7,21.5 -185.1,62.5 -273.1,46.1 -88.1,-16.5 -187,-42.2 -239.9,-71.6 -52.2,-29 -136.8,-129.2 -138.7,-131.4 -26.5,-28.2 -50.3,-56.9 -57.7,-75 -18.8,-46.4 -36.2,-75.3 -36.2,-75.3 0,0 -10.1,-359.2 0,-420.1 10.1,-60.8 68.1,-231.7 88.4,-266.5 20.2,-34.7 136.1,-214.3 205.6,-217.2 69.6,-2.9 356.3,-29 431.7,0 75.3,28.9 176.7,179.6 225.9,353.4 49.2,173.8 50.2,495.3 44.4,550.4" /></g><g
         transform="scale(1.04295)"
         id="g264"><path
           id="path266"
           style="fill:#c37140;fill-opacity:1;fill-rule:nonzero;stroke:none"
           d="m 15560.6,14590.6 c 0,0 153.7,-54.5 222.7,-202.1 69.1,-147.6 110.5,-265.1 186.5,-265.1 76,0 69.1,249.8 159,335.6 89.7,85.8 171.2,149.1 171.2,149.1 l -281.8,226.9 -340.8,30.3 -116.8,-274.7" /></g></g></g></svg>