<?xml version="1.0" encoding="UTF-8" standalone="no"?>
<svg
   xmlns:dc="http://purl.org/dc/elements/1.1/"
   xmlns:cc="http://creativecommons.org/ns#"
   xmlns:rdf="http://www.w3.org/1999/02/22-rdf-syntax-ns#"
   xmlns:svg="http://www.w3.org/2000/svg"
   xmlns="http://www.w3.org/2000/svg"
   viewBox="0 0 2666.6667 2666.6667"
   height="2666.6667"
   width="2666.6667"
   xml:space="preserve"
   id="svg2"
   version="1.1"><metadata
     id="metadata8"><rdf:RDF><cc:Work
         rdf:about=""><dc:format>image/svg+xml</dc:format><dc:type
           rdf:resource="http://purl.org/dc/dcmitype/StillImage" /></cc:Work></rdf:RDF></metadata><defs
     id="defs6" /><g
     transform="matrix(1.3333333,0,0,-1.3333333,0,2666.6667)"
     id="g10"><g
       transform="scale(0.1)"
       id="g12"><g
         transform="scale(1.22699)"
         id="g14"><path
           id="path16"
           style="fill:none;fill-opacity:1;fill-rule:nonzero;stroke:none"
           d="M 16300,0 H 0 V 16300 H 16300 V 0" /></g><path
         id="path18"
         style="fill:#898b8b;fill-opacity:1;fill-rule:nonzero;stroke:none"
         d="m 13689.8,11965.9 h -2171.9 v 296.2 h 2171.9 v -296.2" /><path
         id="path20"
         style="fill:#898b8b;fill-opacity:1;fill-rule:nonzero;stroke:none"
         d="M 12862.1,12178.5 H 12550 v 1337.2 h 312.1 v -1337.2" /><path
         id="path22"
         style="fill:#9a9a9a;fill-opacity:1;fill-rule:nonzero;stroke:none"
         d="m 15717.4,10469.9 h -4199.5 v -486 h 4199.5 v 486" /><path
         id="path24"
         style="fill:#9a9a9a;fill-opacity:1;fill-rule:nonzero;stroke:none"
         d="m 13822.1,10469.9 h -477.8 v 2855.3 h 477.8 v -2855.3" /><path
         id="path26"
         style="fill:#494a4b;fill-opacity:1;fill-rule:nonzero;stroke:none"
         d="m 12166,14618.9 -128.1,45.4 c 0,0 -52.2,-154.4 0,-325.3 52.1,-170.8 447,-818.9 679.9,-991 232.9,-172.1 946.7,-162 1280.8,-136.7 334.2,25.3 526.5,96.2 577.2,136.7 50.6,40.5 92.1,410.5 0,475.9 -92.1,65.4 -1053,307.3 -1316.3,353.6 -263.3,46.3 -1093.5,441.4 -1093.5,441.4" /><path
         id="path28"
         style="fill:#5e6061;fill-opacity:1;fill-rule:nonzero;stroke:none"
         d="m 14575.8,13823.9 c -92.1,65.4 -1053,307.3 -1316.3,353.6 -123.5,21.8 -371.8,120.2 -600.6,218.6 l 119.6,-673.5 -34,-392.3 c 256.6,-153.6 931.9,-143.4 1254.1,-119 334.2,25.3 526.5,96.2 577.2,136.7 50.6,40.5 92.1,410.5 0,475.9" /><path
         id="path30"
         style="fill:#252323;fill-opacity:1;fill-rule:nonzero;stroke:none"
         d="m 12196.3,14760.5 -158.4,-96.2 c 0,0 649.5,-870.8 740.6,-941.7 91.2,-70.8 729.1,-151.8 1139.1,-121.5 410.1,30.4 658.2,222.8 658.2,222.8 l -1204.9,855.6 -901.2,20.9 -273.4,60.1" /><path
         id="path32"
         style="fill:#b05c36;fill-opacity:1;fill-rule:nonzero;stroke:none"
         d="m 12624.8,14724.4 c 0,0 151.9,7.6 222.1,0 70.2,-7.6 167.1,-45.6 262,-77.8 94.9,-32.3 186,-79.8 195.5,-98.7 9.5,-19 -1.9,-41.8 -79.7,-39.9 -77.9,1.9 -188,43.7 -199.3,45.5 -11.4,1.9 8.5,-24.9 -59.4,-45.6 -67.9,-20.8 -117.2,11.5 -155.2,19.1 -37.9,7.6 -129.1,15.2 -142.4,20.9 -13.3,5.6 -89.2,94.9 -89.2,94.9 l 45.6,81.6" /><path
         id="path34"
         style="fill:#91472b;fill-opacity:1;fill-rule:nonzero;stroke:none"
         d="m 12658.9,14642.8 c 24,3.1 151.9,-17.1 218.4,-39.9 66.4,-22.8 148.1,-49.4 148.1,-49.4 l 52.2,-16.1 c 0,0 -29.5,48.4 -156.7,92.1 -127.2,43.7 -262,70.9 -262,70.9 v -57.6" /><path
         id="path36"
         style="fill:#100f0d;fill-opacity:1;fill-rule:nonzero;stroke:none"
         d="m 5043.1,12805.9 h -116.68 c 0,0 -227.82,-95.8 -318.95,-121.1 -91.13,-25.3 -141.75,-35.4 -111.38,-192.4 30.38,-156.9 147.87,-734.1 322,-870.7 174.14,-136.7 538.65,-116.5 538.65,-116.5 0,0 164.6,40.5 130.39,187.3 -34.2,146.9 -337.96,273.4 -368.34,308.9 -30.37,35.4 -202.5,187.3 -202.5,187.3 l 126.81,617.2" /><path
         id="path38"
         style="fill:#252323;fill-opacity:1;fill-rule:nonzero;stroke:none"
         d="m 4943.4,12703.4 c 0,0 -123.3,49.1 -168.86,0 -45.57,-49 -126.57,-114.8 -243.01,-150.2 -116.44,-35.5 -197.44,-40.5 -232.88,-101.3 -35.44,-60.7 -10.12,-334.1 55.69,-430.3 65.81,-96.2 81.93,-167.1 258.66,-475.9 176.72,-308.8 323.54,-318.9 526.04,-324 202.51,-5.1 318.95,65.8 344.27,162 25.31,96.2 -81.01,121.5 -136.7,298.7 -55.69,177.2 -20.25,364.5 10.13,470.8 30.37,106.3 -136.69,344.3 -136.69,344.3 l -276.65,205.9" /><path
         id="path40"
         style="fill:#ffffff;fill-opacity:1;fill-rule:nonzero;stroke:none"
         d="m 4880.85,12639.2 c 0,0 -75.94,-172.1 -60.75,-253.1 15.19,-81 187.32,-177.2 207.57,-172.1 20.25,5 111.37,40.5 111.37,40.5 l -96.18,384.7 h -162.01" /><path
         id="path42"
         style="fill:#c37140;fill-opacity:1;fill-rule:nonzero;stroke:none"
         d="m 7503.29,13854.3 c 0,0 -192.38,-81 -248.07,-141.8 -55.69,-60.7 -55.69,-65.8 -243,-126.6 -187.32,-60.7 -526.52,-283.5 -693.58,-379.6 -167.07,-96.2 -718.89,-475.9 -804.96,-567.1 -86.06,-91.1 -243.01,-324 -243.01,-324 l -131.63,-60.7 c 0,0 -222.75,136.7 -258.19,217.7 -35.43,81 0,167 0,167 0,0 597.39,612.6 668.27,693.6 70.88,81 313.88,526.5 577.13,678.4 263.26,151.9 835.34,324 911.28,379.7 75.94,55.7 111.38,60.8 111.38,60.8 l 101.25,-162 253.13,-435.4" /><g
         transform="scale(1.03403)"
         id="g44"><path
           id="path46"
           style="fill:#b05c36;fill-opacity:1;fill-rule:nonzero;stroke:none"
           d="m 11612.4,16300 c 0,0 165.4,-567.5 187.4,-607.9 22.1,-40.4 121.2,-242.4 165.3,-392.9 44,-150.6 65,-422.8 65,-422.8 0,0 -2,-308 -274,37.2 -272,345.2 -543.8,1182.4 -558.5,1226.4 -14.7,44.1 414.8,160 414.8,160" /></g><path
         id="path48"
         style="fill:#a45634;fill-opacity:1;fill-rule:nonzero;stroke:none"
         d="m 7164.1,14350.4 c -25.32,10.1 -81.47,0 -81.47,0 0,0 20.71,-197.4 81.47,-324 60.74,-126.6 179.4,-250.6 179.4,-250.6 l 67,35.6 -246.4,539" /><g
         transform="scale(1.00292)"
         id="g50"><path
           id="path52"
           style="fill:#252323;fill-opacity:1;fill-rule:nonzero;stroke:none"
           d="m 9773.17,15282.9 -106,-149 c 0,0 -212.01,-484.6 -424.02,-726.8 -212.02,-242.4 -408.88,-355.9 -537.6,-477.1 -128.72,-121.1 -870.75,-567.9 -870.75,-567.9 0,0 -287.73,189.3 -530.03,514.9 -242.31,325.6 -287.73,578 -287.73,578 0,0 401.3,346.6 484.59,403 83.3,56.4 514.88,404.7 567.89,503.1 53.01,98.4 219.58,575.5 484.6,757.2 265.01,181.7 623.41,133.7 623.41,133.7 l 641.08,-245.4 -45.44,-723.7" /></g><g
         transform="scale(1.09936)"
         id="g54"><path
           id="path56"
           style="fill:#e9eef1;fill-opacity:1;fill-rule:nonzero;stroke:none"
           d="m 10532.2,16217.1 c 0,0 -230.2,82.9 -396,57.6 -165.76,-25.4 -359.24,-178.5 -524.97,-281.5 -165.82,-103.1 -474.37,-411.8 -529.61,-503.8 -55.25,-92 -207.22,-276.2 -377.61,-405.1 -170.39,-129 -331.56,-257.9 -331.56,-257.9 l 543.39,-884.2 c 0,0 308.53,221 465.08,322.4 156.63,101.3 373.03,216.4 446.71,271.7 73.68,55.2 211.87,151.9 211.87,151.9 0,0 142.7,-13.8 253.2,13.8 110.6,27.7 523.8,543.4 526.7,566.5 2.9,23 129.6,352.2 129.6,352.2 v 398.4 c 0,0 10.4,82.9 -39.7,101.3 -50.2,18.4 -377.1,96.7 -377.1,96.7" /></g><g
         transform="scale(1.08185)"
         id="g58"><path
           id="path60"
           style="fill:#c37140;fill-opacity:1;fill-rule:nonzero;stroke:none"
           d="m 10478.1,16219.6 c 0,0 -229.3,2.6 -449.2,-339 -220.04,-341.6 23.3,-687.9 149.7,-734.7 126.4,-46.8 224.6,-46.8 224.6,-46.8 0,0 103,-205.9 210.6,-379 107.7,-173.2 145.1,-266.8 201.2,-402.5 56.2,-135.7 117,-304.1 262.1,-500.7 145.1,-196.5 430.5,-570.9 430.5,-570.9 l 280.7,154.4 c 0,0 -163.7,322.9 -205.8,533.5 -42.2,210.6 -112.3,374.4 -220,552.2 -107.6,177.8 -126.4,318.2 -205.8,561.6 -79.6,243.3 -93.7,332.2 -89,369.6 4.7,37.5 80.7,287.8 17.6,483.8 -63.2,196 -151,283.7 -151,283.7 0,0 -63.1,115.2 -456.2,34.8" /></g><g
         transform="scale(1.11365)"
         id="g62"><path
           id="path64"
           style="fill:#c37140;fill-opacity:1;fill-rule:nonzero;stroke:none"
           d="m 11114.7,15517.9 h 116.6 v 521.7 c -32.8,-23.3 -54.6,-43.4 -54.6,-43.4 0,0 -20.4,17.4 -25,35.6 -4.5,18.2 20.5,31.8 34.2,77.3 13.6,45.4 -2.4,190.9 -129.6,175 -127.3,-15.9 -118.2,-218.2 -118.2,-218.2 l -252.3,-29.6 c 0,0 -91,-31.8 -115.9,-38.6 -25.1,-6.8 -172.8,11.4 -172.8,11.4 59.1,-81.9 206.9,-118.2 300,-259.2 93.2,-140.9 111.4,-329.6 111.4,-329.6 l 231.9,47.8 c 4.3,-10.8 151.4,59.5 190.9,19.4 l -116.6,30.4" /></g><g
         transform="scale(1.03763)"
         id="g66"><path
           id="path68"
           style="fill:#a45634;fill-opacity:1;fill-rule:nonzero;stroke:none"
           d="m 10584.3,16058.5 c 14.7,14.6 175.6,98.8 175.6,98.8 l 18.3,142.7 68.4,-557.4 -94.3,10.4 -7,312.8 -161,-7.3" /></g><path
         id="path70"
         style="fill:#c37140;fill-opacity:1;fill-rule:nonzero;stroke:none"
         d="m 12449.5,14330.2 c 0,0 70.9,-234.2 268.3,-279.8 197.4,-45.5 569.5,91.2 626.5,91.2 57,0 234.1,-79.8 284.8,-82.3 50.6,-2.5 68.3,27.9 75.9,30.4 7.6,2.5 81,-15.2 101.3,15.2 20.2,30.3 15.1,45.5 15.1,45.5 0,0 53.2,-2.5 22.8,48.1 -30.4,50.7 -402.5,194.9 -455.6,217.7 -53.2,22.8 -131.6,17.7 -179.7,10.2 -48.1,-7.6 -362,-45.6 -362,-45.6 l -93.7,116.4 -222.7,-45.5 -81,-121.5" /><path
         id="path72"
         style="fill:#a45634;fill-opacity:1;fill-rule:nonzero;stroke:none"
         d="m 13705,14089.7 c 0,0 -89.2,59.5 -184.2,99.3 -94.9,39.9 -176.5,57 -176.5,57 0,0 108.2,3.8 203.1,-22.8 95,-26.6 170.9,-110.1 197.5,-106.3 26.6,3.8 32.2,17.1 32.2,17.1 0,0 -93,64.9 -184.1,112.2 -91.1,47.2 -243,92.8 -216.4,92.8 26.5,0 184.1,-25.7 273.4,-69.8 89.2,-44.1 171.4,-118.8 171.4,-118.8 0,0 16.5,-89.8 -116.4,-60.7" /><g
         transform="scale(1.08688)"
         id="g74"><path
           id="path76"
           style="fill:#a45634;fill-opacity:1;fill-rule:nonzero;stroke:none"
           d="m 11382.2,16300 c 0,0 -80.3,-50.5 -130.5,-105.6 -50.3,-55 -81.5,-226.5 -81.5,-226.5 l 24.1,-139.7 291.3,35.3 -103.4,436.5" /></g><g
         transform="scale(1.13993)"
         id="g78"><path
           id="path80"
           style="fill:#2f1d16;fill-opacity:1;fill-rule:nonzero;stroke:none"
           d="m 11531.2,15569.5 c 117.1,39.5 101.5,144.9 92.2,187.5 -9.3,42.6 10.4,70.7 -48.2,184 -58.7,113.3 -124.2,109.5 -151.4,140.3 -27.2,30.8 -112.1,76.3 -180.1,113.5 -68,37.3 -130.3,13.7 -160.5,18.2 0,0 -130.5,87 -299.7,-82.5 -169.2,-169.5 -322.6,-446.5 -323.9,-452.7 0,0 382.7,-87.2 445.7,-87.2 49,-59.8 127.7,-154 136.3,-151.1 12.6,4.2 422.7,121.9 422.7,121.9 l 56.2,3.4 c 0,0 4.7,-0.8 12.3,-0.9 l -1.6,5.6" /></g><g
         transform="scale(1.10673)"
         id="g82"><path
           id="path84"
           style="fill:#c37140;fill-opacity:1;fill-rule:nonzero;stroke:none"
           d="m 11877.1,16036.6 c 0,0 -70.8,-144.9 -91.2,-174.3 -20.3,-29.4 -111.9,-86.9 -122.9,-99.9 -10.9,-12.9 -73.5,-202 -83.2,-207.4 -9.7,-5.4 -64.8,38.6 -70.9,36.4 -6.1,-2.2 -58.3,-40.8 -61.8,-46.3 -3.5,-5.6 -14.8,-13.2 -14.8,-13.2 0,0 -16.6,-22 -30.2,-26.9 -13.7,-4.9 -32.3,-19.1 -40.2,-23.8 -7.9,-4.6 -79.9,-71.1 -98.6,-71.8 -18.7,-0.6 -186.6,189.3 -201.9,219 -15.1,29.7 10,236 24.8,271.7 14.7,35.6 91.9,107.6 91.9,107.6 0,0 -45.7,74.8 -16.2,146 29.6,71.3 128.1,146.3 189.5,106.3 61.3,-40.1 13.8,-127.3 0.6,-150.3 -13.2,-23 -28.5,-54.4 -28,-58.7 0.6,-4.2 56.2,26.2 95.3,41.8 39.2,15.6 115.9,101.4 155.3,122 39.4,20.7 111.7,9.7 136.4,-3.6 24.7,-13.3 166.1,-174.6 166.1,-174.6" /></g><g
         transform="scale(1.11417)"
         id="g86"><path
           id="path88"
           style="fill:#2f1d16;fill-opacity:1;fill-rule:nonzero;stroke:none"
           d="m 11248.4,15943.9 c 0,0 19.2,-14.8 30,-7.2 10.8,7.6 96.4,59.7 96.4,59.7 0,0 42.9,-4.4 72.8,33.2 29.9,37.7 32.9,46.8 65.7,44.6 32.6,-2.3 70.4,46.1 95,37.4 24.5,-8.6 125,-106.4 125,-106.4 0,0 106.4,4.6 38,83.2 -68.5,78.6 -154.1,146.8 -221.4,153.2 -67.2,6.4 -42.4,58.4 -96.5,-16.4 -54.1,-74.7 -205,-281.3 -205,-281.3" /></g><g
         transform="scale(1.13635)"
         id="g90"><path
           id="path92"
           style="fill:#2f1d16;fill-opacity:1;fill-rule:nonzero;stroke:none"
           d="m 11026.3,16286.3 c 0,0 50.1,7.2 73.1,4.1 23,-3.2 62.2,9.6 84.2,3.5 22,-6.2 49,-17.4 53.9,-18.4 5,-1 61.2,-1.4 92.1,-24.6 30.9,-23.3 49.8,-38.4 57.8,-44.5 8,-6 67,-23.4 97.8,-52.6 30.8,-29.3 29.9,-32.3 44.8,-45.4 14.9,-13.1 61.8,-46.5 101.4,-116.8 39.7,-70.4 28.6,-185 28.6,-185 l -266.6,83.3 -290.4,169.1 -76.7,227.3" /></g><path
         id="path94"
         style="fill:#100f0d;fill-opacity:1;fill-rule:nonzero;stroke:none"
         d="m 5307.75,4218.3 -113.94,25.1 c 0,0 -243.1,-44.5 -337.55,-49.6 -94.43,-5.1 -146.05,-4.1 -150.19,-163.9 -4.13,-159.8 -13.68,-748.7 126.94,-919.7 140.62,-171 500.94,-229.7 500.94,-229.7 0,0 169.46,4.1 167.67,154.9 -1.79,150.7 -271.17,339.7 -293.2,380.9 -22.03,41.1 -157.41,226.5 -157.41,226.5 l 256.74,575.5" /><path
         id="path96"
         style="fill:#252323;fill-opacity:1;fill-rule:nonzero;stroke:none"
         d="m 5188.33,4139.7 c 0,0 -109.85,74.4 -164.9,36.3 -55.05,-38 -148.33,-84.9 -269.67,-94.4 -121.34,-9.5 -201.53,3 -249.22,-48.7 -47.68,-51.7 -81.83,-324.1 -38.28,-432.2 43.56,-108.1 44.04,-180.8 150.12,-520.5 106.08,-339.6 247.27,-381.1 443.93,-429.6 196.66,-48.6 325.64,-4.5 371.07,84 45.43,88.5 -52.94,136.1 -69.17,321.2 -16.22,185 58.72,360.3 111.28,457.5 52.55,97.3 -59.35,365.7 -59.35,365.7 l -225.81,260.7" /><path
         id="path98"
         style="fill:#ffffff;fill-opacity:1;fill-rule:nonzero;stroke:none"
         d="m 5113.42,4090.4 c 0,0 -111.22,-151.7 -113.83,-234.1 -2.61,-82.3 144.77,-213.4 165.63,-212.8 20.86,0.6 117.49,15.6 117.49,15.6 l -11.08,396.4 -158.21,34.9" /><path
         id="path100"
         style="fill:#c37140;fill-opacity:1;fill-rule:nonzero;stroke:none"
         d="m 7935.98,4712.2 c 0,0 -205.31,-37.6 -272.77,-85 -67.47,-47.3 -68.56,-52.2 -264.56,-71.2 -196.01,-19 -575.21,-163.5 -759.07,-221.5 -183.86,-57.9 -804.51,-309.9 -908.17,-380.3 -103.68,-70.5 -307.08,-264.1 -307.08,-264.1 l -141.62,-31 c 0,0 -188.1,181.5 -205.26,268.2 -17.17,86.7 35.97,163.1 35.97,163.1 0,0 715.29,469.6 801.95,533.4 86.65,63.9 419.89,446.6 709.68,538.2 289.78,91.7 885.51,136.6 971.65,174.6 86.16,38 121.85,35.3 121.85,35.3 l 63.99,-180 153.44,-479.7" /><path
         id="path102"
         style="fill:#a45634;fill-opacity:1;fill-rule:nonzero;stroke:none"
         d="m 7711.58,5269.8 c -22.54,15.3 -63.14,87.1 -63.14,87.1 0,0 -38.7,-266.8 -6.63,-403.5 32.07,-136.7 121.23,-283.4 121.23,-283.4 l 73.08,20.3 -124.54,579.5" /><path
         id="path104"
         style="fill:#898b8b;fill-opacity:1;fill-rule:nonzero;stroke:none"
         d="m 13689.8,3344.6 h -2171.9 v 296.2 h 2171.9 v -296.2" /><path
         id="path106"
         style="fill:#898b8b;fill-opacity:1;fill-rule:nonzero;stroke:none"
         d="M 12862.1,3557.3 H 12550 v 1337.1 h 312.1 V 3557.3" /><path
         id="path108"
         style="fill:#9a9a9a;fill-opacity:1;fill-rule:nonzero;stroke:none"
         d="m 13822.1,1848.6 h -477.8 V 4704 h 477.8 V 1848.6" /><path
         id="path110"
         style="fill:#9a9a9a;fill-opacity:1;fill-rule:nonzero;stroke:none"
         d="m 15717.4,1848.6 h -4199.5 v -486 h 4199.5 v 486" /><path
         id="path112"
         style="fill:#494a4b;fill-opacity:1;fill-rule:nonzero;stroke:none"
         d="m 12166,5997.6 -128.1,45.4 c 0,0 -52.2,-154.4 0,-325.2 52.1,-170.9 447,-818.9 679.9,-991.1 232.9,-172.1 946.7,-162 1280.8,-136.7 334.2,25.4 526.5,96.2 577.2,136.7 50.6,40.5 92.1,410.5 0,475.9 -92.1,65.4 -1053,307.4 -1316.3,353.7 -263.3,46.3 -1093.5,441.3 -1093.5,441.3" /><path
         id="path114"
         style="fill:#5e6061;fill-opacity:1;fill-rule:nonzero;stroke:none"
         d="m 14575.8,5202.6 c -92.1,65.4 -1053,307.4 -1316.3,353.7 -123.5,21.7 -371.8,120.1 -600.6,218.6 l 119.6,-673.5 -34,-392.3 c 256.6,-153.7 931.9,-143.5 1254.1,-119.1 334.2,25.4 526.5,96.2 577.2,136.7 50.6,40.5 92.1,410.5 0,475.9" /><path
         id="path116"
         style="fill:#252323;fill-opacity:1;fill-rule:nonzero;stroke:none"
         d="m 12196.3,6139.2 -158.4,-96.2 c 0,0 649.5,-870.7 740.6,-941.6 91.2,-70.9 729.1,-151.9 1139.1,-121.5 410.1,30.4 658.2,222.7 658.2,222.7 l -1204.9,855.6 -901.2,20.9 -273.4,60.1" /><path
         id="path118"
         style="fill:#b55f39;fill-opacity:1;fill-rule:nonzero;stroke:none"
         d="m 12677.3,6219 c 0,0 157.6,-134.2 244.6,-176 87,-41.7 89.5,-29.1 87,-41.7 -2.5,-12.7 -35.4,-45.6 -126.6,-27.9 -91.1,17.7 -205,60.8 -205,60.8 0,0 -10.1,-10.2 0,-32.9 10.1,-22.8 2.5,-68.4 -53.2,-68.4 -55.7,0 -184.9,110.1 -184.9,110.1 l 160.8,186.1 77.3,-10.1" /><path
         id="path120"
         style="fill:#b55f39;fill-opacity:1;fill-rule:nonzero;stroke:none"
         d="m 12600,7568.6 c 0,0 -383.4,-8.4 -516.3,-8.2 -132.9,0.1 -527.8,0.1 -744.2,-56.8 -216.4,-57 -334.1,-189.9 -341.7,-224 -7.6,-34.2 37.9,-262 37.9,-262 l 762.8,-22.8 801.5,573.8" /><path
         id="path122"
         style="fill:#252323;fill-opacity:1;fill-rule:nonzero;stroke:none"
         d="m 10500.4,5671.7 c 0,0 0,-50.1 -50.7,-90.6 -50.6,-40.5 -207.5,-501.2 -455.6,-648.1 -248.06,-146.8 -708.77,-354.3 -794.83,-420.1 -86.07,-65.9 -141.76,-101.3 -141.76,-101.3 l -875.83,-237.9 c 0,0 -278.44,344.2 -394.88,678.3 -116.44,334.2 -141.76,526.6 -141.76,526.6 0,0 480.95,241.9 561.96,293.1 81,51.1 -91.13,20.7 136.69,116.9 227.81,96.2 572.07,291.1 653.07,350.6 81.01,59.5 187.32,355.7 455.64,498.7 268.32,143 740.4,61.2 740.4,61.2 l 499.9,-656.1 -192.3,-371.3" /><path
         id="path124"
         style="fill:#e9eef1;fill-opacity:1;fill-rule:nonzero;stroke:none"
         d="m 12921.9,6475.5 c 0,0 -253.5,-359.1 -394,-432.5 -140.4,-73.4 -459.4,-141.7 -470.8,-153.1 -11.4,-11.4 -349.3,-159.5 -508.8,-157.6 -159.4,1.9 -345.5,79.4 -626.5,42.6 -281,-36.9 -421.4,-103.2 -421.4,-103.2 l -307.6,1027.4 c 0,0 417.7,197 599.9,280.5 182.3,83.5 337.3,163.3 337.3,163.3 0,0 1496.7,-180.2 1618.2,-257.5 121.5,-77.3 173.7,-409.9 173.7,-409.9" /><path
         id="path126"
         style="fill:#b55f39;fill-opacity:1;fill-rule:nonzero;stroke:none"
         d="m 13800.3,7814.2 c -90,-45.3 -385.6,-253.8 -385.6,-253.8 l -281.8,25.4 c 0,0 -263.2,-107.2 -292,-108.9 -28.8,-1.8 -13,-155.6 -13,-155.6 45.7,-102.7 -149.1,-261 -79.7,-435.9 69.3,-174.9 377.8,0.9 377.8,0.9 l 263.6,-0.9 c 197.5,-14.2 63.8,17 140.2,52 l 270.5,876.8" /><path
         id="path128"
         style="fill:#c37140;fill-opacity:1;fill-rule:nonzero;stroke:none"
         d="m 12037.9,6501.2 c 0,0 413.4,-181 668.2,-130.4 254.7,50.7 340.8,271.4 340.8,271.4 0,0 248,179.2 172.1,472.8 -75.9,293.7 -350.6,404.7 -560.1,445.4 -209.4,40.6 -503.1,-80.9 -571.4,-96 -68.3,-15.2 -524,-55.7 -746.7,-141.8 -222.8,-86.1 -243,-212.6 -202.5,-324 40.5,-111.4 86,-141.8 101.2,-167.1 15.2,-25.3 131.6,-345.9 324,-588.1 192.4,-242.1 531.6,-525.6 546.8,-535.8 15.2,-10.1 263.2,131.7 263.2,131.7 0,0 -352.4,521.4 -335.6,536.6 16.7,15.2 0,125.3 0,125.3" /><path
         id="path130"
         style="fill:#a45634;fill-opacity:1;fill-rule:nonzero;stroke:none"
         d="m 12014.7,6922.7 c 0,0 30.5,-148.1 23.2,-421.5 l 63.7,-25.7 v 90.2 c 0,0 92.2,-15.1 266.9,-7.6 174.6,7.6 379.7,141 379.7,141 0,0 -198.2,-38.4 -366.8,-61.2 -168.6,-22.8 -267.3,4.3 -267.3,4.3 0,0 -24.2,196.9 -99.4,280.5" /><path
         id="path132"
         style="fill:#a45634;fill-opacity:1;fill-rule:nonzero;stroke:none"
         d="m 12584.6,6614 176.2,-73.6 c 0,0 -329,30.6 -321.5,36.8 7.6,6.3 93.7,49.3 93.7,49.3 l 51.6,-12.5" /><path
         id="path134"
         style="fill:#c37140;fill-opacity:1;fill-rule:nonzero;stroke:none"
         d="m 12110.3,5707.6 c 0,0 226.3,-210.7 293.6,-222.7 67.3,-12.1 131.6,30.3 182.3,27.8 50.6,-2.5 174.6,10.1 273.4,30.4 98.7,20.2 95.2,32.3 197.4,35.4 102.1,3.1 217.2,-75.9 265.5,-74 48.4,1.9 50.3,34.2 50.3,34.2 0,0 28.5,24.6 26.5,47.4 -1.8,22.8 -18.9,39.9 -18.9,39.9 0,0 13.3,17.1 9.5,45.6 -3.8,28.4 -222.2,138.5 -385.4,180.3 -163.3,41.8 -506.9,-80 -522.1,-77 -15.2,3 -108.9,64.4 -108.9,64.4 l -221.5,-25.4 -41.7,-106.3" /><path
         id="path136"
         style="fill:#a45634;fill-opacity:1;fill-rule:nonzero;stroke:none"
         d="m 13106.3,5729.1 c -6.3,0 55.7,-11.3 115.2,-34.1 59.5,-22.8 158.9,-69 158.9,-69 0,0 12,15.8 9.7,42.1 -26.6,9.8 -82,30.1 -136.9,48.4 -76,25.3 -140.5,12.6 -146.9,12.6" /><path
         id="path138"
         style="fill:#a45634;fill-opacity:1;fill-rule:nonzero;stroke:none"
         d="m 13393.9,5564.9 c -46.3,23.8 -135.4,68.7 -191.4,87 -77.2,25.4 -163.2,19.8 -163.2,19.8 0,0 75.9,-16 130.3,-32.4 54.5,-16.5 203.2,-100.6 203.2,-100.6 0,0 13.3,11.5 21.1,26.2" /><path
         id="path140"
         style="fill:#a45634;fill-opacity:1;fill-rule:nonzero;stroke:none"
         d="m 13554.4,7357.7 c 0,0 -95.2,-39.7 -158.9,-89.7 -63.7,-50.1 -127.9,-228.3 -127.9,-228.3 l 0.7,-154 318.8,-14.5 -32.7,486.5" /><path
         id="path142"
         style="fill:#2f1d16;fill-opacity:1;fill-rule:nonzero;stroke:none"
         d="m 14322.6,7261.7 c 139.1,22.4 141.5,143.8 139.1,193.5 -2.5,49.6 24.9,77.6 -19.7,215.9 -44.7,138.4 -119.1,146.6 -143.9,186.3 -24.8,39.7 -111.6,106.8 -181.1,161.5 -69.5,54.6 -143.9,39.8 -177,50.5 0,0 -130.4,122.4 -352.5,-36.4 -222.1,-158.7 -452,-440.5 -454.6,-447.2 0,0 419.2,-170.9 490.1,-182.7 43.7,-76.5 114.5,-197.2 124.8,-195.5 14.9,2.4 498.2,57.6 498.2,57.6 l 63.9,-6.8 c 0,0 5.1,-1.7 13.6,-3.2 l -0.9,6.5" /><path
         id="path144"
         style="fill:#c37140;fill-opacity:1;fill-rule:nonzero;stroke:none"
         d="m 14322.6,7261.7 c 0,0 -103.6,-145.2 -131.2,-173.6 -27.6,-28.3 -138.1,-74.4 -152.4,-86.6 -14.3,-12.1 -117.2,-207 -128.7,-211.2 -11.5,-4.1 -63.7,53.9 -70.7,52.6 -7.1,-1.3 -71.2,-33.9 -76,-39.2 -4.9,-5.4 -18.5,-11.7 -18.5,-11.7 0,0 -22.1,-21 -37.9,-23.9 -15.8,-2.8 -38.8,-14.9 -48.2,-18.6 -9.5,-3.6 -100.2,-63.1 -120.7,-60.3 -20.6,2.7 -169.2,240.5 -180.4,275.8 -11.2,35.2 53.9,255.8 76.5,292.1 22.7,36.2 120,100.6 120,100.6 0,0 -36.3,90 9,162.4 45.3,72.5 166.5,136.3 226.2,81.4 59.6,-54.9 -8.1,-141.5 -26.7,-164.1 -18.6,-22.8 -41.1,-54.2 -41.3,-59 -0.1,-4.7 66.1,18.3 111.7,28.2 45.5,9.9 144.9,89.6 191.7,104.9 46.7,15.4 123.7,-9.8 148.3,-28.8 24.5,-19 149.3,-221 149.3,-221" /><path
         id="path146"
         style="fill:#2f1d16;fill-opacity:1;fill-rule:nonzero;stroke:none"
         d="m 13721.6,7378.4 c 0,0 18.4,-19.7 31.7,-13.4 13.2,6.4 116.9,47.9 116.9,47.9 0,0 46.3,-12.6 86,23.2 39.7,35.9 44.8,45.4 80.3,36.9 35.5,-8.5 86,37.7 111.4,23.7 25.4,-14 117.8,-140 117.8,-140 0,0 117.8,-14.4 57,84.5 -60.8,98.9 -142.3,189.6 -215.1,209 -72.7,19.5 -35.9,72 -109.1,-0.2 -73.1,-72.2 -276.9,-271.6 -276.9,-271.6" /><path
         id="path148"
         style="fill:#2f1d16;fill-opacity:1;fill-rule:nonzero;stroke:none"
         d="m 13841.3,8111.6 c 0,0 57.5,-1.3 82.7,-9.1 25.2,-7.9 71.5,-0.9 95,-11.9 23.5,-11 51.6,-28.6 57,-30.7 5.5,-2.1 68.3,-13 98.5,-44.8 30.3,-31.8 48.7,-52.3 56.5,-60.6 7.8,-8.3 70.7,-38.9 99.8,-77.4 29.1,-38.6 27.4,-41.7 41.7,-59.2 14.3,-17.5 60.5,-63.7 91.8,-150 31.2,-86.3 -2.6,-212.7 -2.6,-212.7 l -283.2,143.3 -293.9,244 -43.3,269.1" /></g></g></svg>