<?xml version="1.0" encoding="UTF-8" standalone="no"?>
<svg
   xmlns:dc="http://purl.org/dc/elements/1.1/"
   xmlns:cc="http://creativecommons.org/ns#"
   xmlns:rdf="http://www.w3.org/1999/02/22-rdf-syntax-ns#"
   xmlns:svg="http://www.w3.org/2000/svg"
   xmlns="http://www.w3.org/2000/svg"
   viewBox="0 0 2666.6667 2666.6667"
   height="2666.6667"
   width="2666.6667"
   xml:space="preserve"
   id="svg2"
   version="1.1"><metadata
     id="metadata8"><rdf:RDF><cc:Work
         rdf:about=""><dc:format>image/svg+xml</dc:format><dc:type
           rdf:resource="http://purl.org/dc/dcmitype/StillImage" /></cc:Work></rdf:RDF></metadata><defs
     id="defs6" /><g
     transform="matrix(1.3333333,0,0,-1.3333333,0,2666.6667)"
     id="g10"><g
       transform="scale(0.1)"
       id="g12"><g
         transform="scale(1.22699)"
         id="g14"><path
           id="path16"
           style="fill:none;fill-opacity:1;fill-rule:nonzero;stroke:none"
           d="M 16300,0 H 0 V 16300 H 16300 V 0" /></g><path
         id="path18"
         style="fill:#252323;fill-opacity:1;fill-rule:nonzero;stroke:none"
         d="m 6979.9,5325.4 c 0,0 46.31,32.3 -95.97,51.7 -142.28,19.4 -355.7,-6.5 -478.57,-25.9 -122.88,-19.4 -252.23,-58.2 -291.02,-103.4 -38.81,-45.3 -142.28,-426.9 -129.35,-517.4 12.93,-90.6 245.75,-504.5 252.22,-543.3 6.47,-38.8 -84.08,-530.3 -58.21,-692 25.87,-161.6 403.3,-620.8 547.65,-620.8 144.34,0 252.22,32.3 253.25,155.2 1.03,122.9 -50.7,478.6 78.64,801.9 129.34,323.4 310.42,472.1 297.49,595 -12.93,122.9 -59.15,229.2 -122.88,304 -63.73,74.8 -253.25,595 -253.25,595" /><path
         id="path20"
         style="fill:#ffffff;fill-opacity:1;fill-rule:nonzero;stroke:none"
         d="m 6836.5,5196 -107.78,-103.5 c 0,0 -12.94,-284.5 25.86,-362.1 38.8,-77.6 375.1,-122.9 375.1,-122.9 l 103.47,122.9 -396.65,465.6" /><path
         id="path22"
         style="fill:#c37140;fill-opacity:1;fill-rule:nonzero;stroke:none"
         d="m 10716.8,7817.4 c 0,0 655.3,-638.1 664,-664 8.6,-25.9 -224.2,-819.2 -172.5,-1396.9 51.7,-577.7 275.9,-1164.1 422.5,-1612.5 146.6,-448.4 198.4,-939.9 198.4,-939.9 l 551.8,103.5 c 0,0 -112.1,1241.7 -120.7,1647 -8.6,405.2 25.9,1724.6 51.7,1810.8 25.9,86.2 129.4,388 129.4,663.9 0,276 -422.5,1129.6 -422.5,1129.6 0,0 -715.7,-103.4 -862.3,-215.5 -146.6,-112.1 -362.2,-319.1 -362.2,-319.1 l -77.6,-206.9" /><path
         id="path24"
         style="fill:#c37140;fill-opacity:1;fill-rule:nonzero;stroke:none"
         d="m 10364.2,7541.2 c 0,0 -354.5,-267.1 -466.57,-439.5 -112.1,-172.5 -68.99,-189.7 -275.94,-336.3 -206.95,-146.6 -448.39,-344.9 -525.99,-413.9 -77.61,-69 -1862.55,-1621.1 -1862.55,-1621.1 0,0 -189.7,146.6 -275.93,224.2 -86.23,77.6 -120.72,241.4 -120.72,241.4 0,0 543.24,655.3 724.33,1026.1 181.07,370.8 474.25,655.4 698.45,793.3 224.19,138 431.14,276 491.5,370.8 60.36,94.9 198.33,724.3 198.33,724.3 l 500.12,198.4 c 0,0 577.97,59.7 620.87,-12.6 42.9,-72.2 51,-84.7 95.3,-161.9 44.2,-77.3 198.8,-593.2 198.8,-593.2" /><path
         id="path26"
         style="fill:#100f0d;fill-opacity:1;fill-rule:nonzero;stroke:none"
         d="M 9329.2,9306.7 8949.11,8110.5 c 0,0 396.65,-60.3 784.68,-163.8 388.01,-103.5 780.11,-560.5 780.11,-560.5 l 418.5,551.9 -479.6,965.8 -1098.42,689.8 -25.18,-287" /><path
         id="path28"
         style="fill:#252323;fill-opacity:1;fill-rule:nonzero;stroke:none"
         d="m 11398,10930.2 c 0,0 51.7,-431.1 43.1,-586.3 -8.6,-155.2 -94.8,-491.5 -94.8,-491.5 0,0 120.7,-319.1 224.2,-457 103.4,-138 448.4,-836.5 448.4,-836.5 0,0 -853.7,-491.5 -896.8,-569.1 -43.1,-77.6 -689.9,-379.4 -689.9,-353.5 0,25.9 -379.4,732.9 -655.3,1112.3 -275.93,379.4 -698.45,767.5 -853.66,1276.2 -155.21,508.8 233.13,1100.3 275.93,1150.4 42.8,50 208.85,377.9 284.56,393.1 75.7,15.3 885.97,336.3 1253.57,94.9 367.5,-241.5 660.7,-733 660.7,-733" /><path
         id="path30"
         style="fill:#100f0d;fill-opacity:1;fill-rule:nonzero;stroke:none"
         d="m 10501.2,11085.4 c 0,0 422.6,-672.5 491.5,-827.7 69,-155.3 353.6,-405.3 353.6,-405.3 0,0 86.2,336.3 94.8,491.5 8.6,155.2 -43.1,586.3 -43.1,586.3 0,0 -293.2,491.5 -660.7,733 -302.9,199 -906.26,16 -1151.55,-63.1 l 915.45,-514.7" /><path
         id="path32"
         style="fill:#c37140;fill-opacity:1;fill-rule:nonzero;stroke:none"
         d="m 11707.2,12104.6 c 100.4,54.4 514.3,270 514.3,270 0,0 208,0 250.1,0 42,0 -16.2,3.2 42,0 58.2,-3.3 161.7,45.2 161.7,45.2 0,0 122.8,87.3 116.4,219.9 -6.5,132.6 -22.7,371.9 -22.7,371.9 0,0 -323.3,-25.9 -323.3,-16.2 0,9.7 55,126.1 97,152 42,25.9 139,84.1 152,158.4 12.9,74.4 -45.3,129.4 -55,129.4 -9.7,0 -150.7,-90.6 -165.9,-106.7 -15.2,-16.2 -112.2,-52 -144.5,-124.6 -32.4,-72.7 -100.3,-172.9 -129.4,-189.1 -29.1,-16.1 -268.3,-67.9 -268.3,-67.9 l -355.8,-465.6 131.4,-376.7" /><path
         id="path34"
         style="fill:#c37140;fill-opacity:1;fill-rule:nonzero;stroke:none"
         d="m 10035.6,15405.5 -526.01,-224.2 c 0,0 -375.09,-69 -564.8,-206.9 -189.7,-138 -327.66,-409.6 -349.22,-426.9 -21.56,-17.2 -400.97,-206.9 -620.85,-409.6 -219.88,-202.6 -448.39,-526 -500.13,-607.9 -51.73,-81.9 -77.6,-152.1 -34.49,-326.1 43.12,-174 202.64,-493 366.48,-695.7 163.83,-202.6 571.26,-715.7 584.2,-689.8 12.93,25.9 336.18,258.7 336.18,258.7 0,0 -316.78,556.2 -316.78,711.4 0,155.2 -97.01,504.4 -97.01,504.4 0,0 329.82,45.3 517.37,109.9 187.55,64.7 187.55,64.7 187.55,64.7 l 181.08,-338.4 c 0,0 607.91,-211.3 776.06,2.1 168.17,213.4 400.97,1015.4 400.97,1015.4 0,0 21.6,827.8 0,922.6 -21.6,94.9 -340.6,336.3 -340.6,336.3" /><path
         id="path36"
         style="fill:#c37140;fill-opacity:1;fill-rule:nonzero;stroke:none"
         d="m 11857.2,15052 c 0,0 157.3,-155.2 273.8,-198.4 116.4,-43.1 263,-129.3 331.9,-465.6 69,-336.3 -212.7,-776.5 -212.7,-776.5 l -462.9,341.1 69.9,1099.4" /><path
         id="path38"
         style="fill:#e9eef1;fill-opacity:1;fill-rule:nonzero;stroke:none"
         d="m 10277,15478.8 -241.4,-73.3 c 0,0 172.4,-442.6 181.1,-773.2 8.6,-330.5 -207,-1029 -327.7,-1166.9 -120.72,-138 -689.83,-336.3 -689.83,-336.3 0,0 137.97,-370.8 163.84,-595 25.87,-224.2 -25.87,-1086.5 -25.87,-1086.5 0,0 801.96,-181.1 1164.06,-362.2 362.2,-181 896.8,-155.2 896.8,-155.2 0,0 186.6,922.7 257.2,1052 70.5,129.4 174,517.4 234.3,724.3 60.4,207 60.4,232.9 94.9,284.6 34.5,51.7 155.2,250.1 232.8,491.5 77.6,241.5 77.6,543.2 0,784.7 -77.6,241.4 -308.3,593.7 -321.2,637.4 -13,43.8 -38.8,147.3 -38.8,147.3 l -230.7,150.9 -1349.5,275.9" /><g
         transform="scale(1.01416)"
         id="g40"><path
           id="path42"
           style="fill:#c37140;fill-opacity:1;fill-rule:nonzero;stroke:none"
           d="m 10640,16101.1 c 0,0 -98.4,-506.8 -149.3,-604.6 -51,-97.8 -357.2,-233.8 -357.2,-233.8 0,0 212.3,-335.9 293.3,-612.2 80.8,-276.3 523,-782.2 850.3,-820.5 327.4,-38.2 369.9,412.4 335.9,688.7 -34.1,276.4 -148.8,471.9 -148.8,471.9 l 55.3,514.4 -744,795 -135.5,-198.9" /></g><path
         id="path44"
         style="fill:#a45634;fill-opacity:1;fill-rule:nonzero;stroke:none"
         d="m 10892.3,16217 c 0,0 -50.5,-220.8 59.5,-427.8 109.9,-206.9 515.2,-487.2 674.7,-586.3 l 35.6,331.4 -522.8,668.8 -247,13.9" /><path
         id="path46"
         style="fill:#a45634;fill-opacity:1;fill-rule:nonzero;stroke:none"
         d="m 10574.4,14857.9 c 69.1,-17.2 474.4,-133.6 569.2,-168.1 94.9,-34.5 194,-107.8 194,-107.8 0,0 -86.2,133.7 -142.2,176.8 -56.1,43.1 -635.8,145.9 -635.8,145.9 l 14.8,-46.8" /><path
         id="path48"
         style="fill:#a45634;fill-opacity:1;fill-rule:nonzero;stroke:none"
         d="m 11787.3,14616.5 c 0,0 -152.2,12.9 -186.7,0 -34.4,-12.9 -77.6,-34.5 -77.6,-34.5 0,0 43.2,81.9 94.9,94.9 51.7,12.9 164.4,0 164.4,0 l 5,-60.4" /><path
         id="path50"
         style="fill:#a45634;fill-opacity:1;fill-rule:nonzero;stroke:none"
         d="m 9828.64,13573.1 -224.19,176.8 -549.92,-350.5 -36.44,68.1 c 0,0 495.82,338.5 487.19,364.3 -8.62,25.9 -211.26,191.7 -211.26,191.7 0,0 176.77,-53.7 306.12,-127 129.34,-73.3 228.5,-323.4 228.5,-323.4" /><path
         id="path52"
         style="fill:#c37140;fill-opacity:1;fill-rule:nonzero;stroke:none"
         d="m 8390.78,11818.4 c 0,0 15.08,-267.3 217.73,-444.1 202.63,-176.8 616.53,-482.9 689.82,-500.1 73.3,-17.3 103.48,54.8 103.48,54.8 0,0 101.32,-22.5 172.46,-13.9 71.14,8.7 81.91,60.4 90.53,62.6 8.63,2.1 120.73,8.6 129.35,71.1 8.62,62.5 -17.25,90.5 -17.25,90.5 0,0 77.61,-2.1 68.99,94.9 -8.62,97 -491.37,549.5 -491.37,549.5 0,0 150.76,17.4 241.31,77.8 90.53,60.4 49.58,118.6 26.94,138 -22.63,19.4 -109.94,-6.5 -158.44,0 -48.51,6.4 -90.55,22.6 -190.79,32.3 -100.24,9.7 -320.12,-6.5 -391.26,0 -71.14,6.5 -313.38,153.2 -313.38,153.2 l -178.12,-366.6" /><path
         id="path54"
         style="fill:#a45634;fill-opacity:1;fill-rule:nonzero;stroke:none"
         d="m 9745.64,11197.5 c -67.9,22.7 -459.17,333.1 -481.8,326.6 -22.63,-6.4 378.33,-371.8 530.31,-475.3 8.62,62.5 -17.24,90.5 -17.24,90.5 0,0 50.49,-1.3 65.47,49.1 -29.75,-2.1 -65.58,-1.2 -96.74,9.1" /><path
         id="path56"
         style="fill:#a45634;fill-opacity:1;fill-rule:nonzero;stroke:none"
         d="m 9137.73,11343.1 c -25.86,-6.5 142.28,-158.5 294.26,-274.9 77.03,-59 137.36,-108.7 178.22,-143.3 39.34,17.7 47.71,51 54.59,52.8 0,0 -187.54,116.4 -294.25,203.7 -106.71,87.3 -206.95,168.1 -232.82,161.7" /><path
         id="path58"
         style="fill:#a45634;fill-opacity:1;fill-rule:nonzero;stroke:none"
         d="m 9056.89,11174.9 c -19.71,-7.4 199,-200.6 304.2,-292.2 28.23,16.7 40.72,46.3 40.72,46.3 0,0 -319.05,255.6 -344.92,245.9" /><path
         id="path60"
         style="fill:#a45634;fill-opacity:1;fill-rule:nonzero;stroke:none"
         d="m 12840.2,13203.9 c 0,0 -161.7,-20.9 -190.8,-75.9 -29.1,-55 45.7,-122.1 45.7,-122.1 0,0 -145.9,-0.8 -142.7,-91.3 3.2,-90.6 93.8,-119.7 93.8,-119.7 0,0 -51.8,-54.9 -42.1,-100.2 9.7,-45.3 132.6,-97 142.3,-106.7 9.7,-9.7 -3.2,-55 -12.9,-64.7 -9.7,-9.7 -146.1,-22.3 -164.9,-84.1 -18.9,-61.7 129.3,-84 194,-64.6 64.6,19.4 29.3,103.4 29.3,103.4 0,0 80.6,51.8 100,113.2 19.4,61.5 0,132.6 0,132.6 0,0 42.1,42 38.8,113.2 -3.2,71.1 -58.2,119.6 -54.9,132.5 3.2,13 93.7,177.7 -35.6,234.4" /><path
         id="path62"
         style="fill:#252323;fill-opacity:1;fill-rule:nonzero;stroke:none"
         d="m 11815,3315.4 c 0,0 -171.2,-40.1 -197.1,-111.3 -25.9,-71.1 -71.2,-278.1 -38.8,-342.7 32.3,-64.7 51.7,0 77.6,-168.2 25.9,-168.1 -27.5,-342.7 34.7,-407.4 62.3,-64.7 650.8,-38.8 864.2,0 213.4,38.8 194,64.7 368.7,71.1 174.6,6.5 756.6,116.4 950.6,239.3 194,122.9 155.2,374.8 77.6,478.4 -77.6,103.7 -439.7,110.1 -601.4,161.9 -161.7,51.7 -478.6,213.4 -530.3,278.1 -51.8,64.6 -174.6,278 -174.6,278 l -342.8,-64.6 -141.8,-461.5 -332.4,-62.4 -14.2,111.3" /><path
         id="path64"
         style="fill:#ffffff;fill-opacity:1;fill-rule:nonzero;stroke:none"
         d="m 11829.2,3204.1 c 0,0 40.9,-122.9 150.8,-129.3 110,-6.5 181.6,191.7 181.6,191.7 l -332.4,-62.4" /><g
         transform="scale(1.09022)"
         id="g66"><path
           id="path68"
           style="fill:#2f1d16;fill-opacity:1;fill-rule:nonzero;stroke:none"
           d="m 11113.1,15964.3 c -12.3,31.8 12.7,84.4 -33.9,137.1 -46.7,52.7 -107,71.1 -107,71.1 0,0 -47.5,57.8 -111.1,71.3 -63.7,13.6 -121,11.1 -121,11.1 0,0 -47.1,30.1 -130.1,37.6 -83,7.5 -159.4,-28.7 -192.4,-30.6 -33.1,-1.8 -98.9,1.3 -137.3,-3.7 -38.4,-5.1 -114.5,-34.4 -127,-42.5 -12.6,-8 -77.4,1 -153.41,-25.3 -76.04,-26.3 -129.42,-113.7 -129.42,-113.7 0,0 -53.39,-26.9 -72.83,-34.6 -0.18,-0.1 -0.46,-0.3 -0.65,-0.4 -1.19,-0.5 -3.94,-2.1 -8.07,-4.8 -13.48,-9.7 -33.57,-30.1 -54.94,-53.2 -42.19,-54.3 -93.19,-154.3 -112.36,-332.1 -34.95,-324.4 56.78,-628.2 216.47,-956.1 l 218.41,405.3 1055.2,560.4 c 0,0 16.9,49.9 11.3,78.7 -5.5,28.8 23.3,73.7 24.6,128.9 1.4,55.3 -22.2,63.7 -34.5,95.5" /></g><g
         transform="scale(1.05716)"
         id="g70"><path
           id="path72"
           style="fill:#c37140;fill-opacity:1;fill-rule:nonzero;stroke:none"
           d="m 11396.3,16252.4 c 0,0 51.6,-73.2 62.9,-101.4 11.2,-28.3 10.4,-280.6 12,-344.5 1.5,-64 -18.4,-149.7 -19.6,-180.6 -1.2,-30.8 -4.6,-220.2 -15.9,-293.9 -11.1,-73.7 -104.9,-358.4 -134.7,-433.4 -29.8,-75.1 -72.9,-174.3 -110.7,-193.4 -37.9,-19.1 -200.7,-20.8 -342.9,28.1 -142.3,49 -416.4,251.5 -488.5,355.3 -72.1,103.9 -53.4,313.3 -53.4,313.3 0,0 -60.3,-14.1 -119.5,50.1 -59.3,64.1 -152.7,201.8 -126.2,349 26.5,147.3 137.5,89.3 192.7,27.4 55.2,-62 53.6,-152.6 65.9,-155.1 12.3,-2.6 24.8,1.1 31,2.9 6.3,1.8 41.2,152.8 44.4,183.6 3.3,30.8 4.5,216.1 8.9,222.1 4.3,6 164.9,185 215.1,201.6 50.1,16.5 778.5,-31.1 778.5,-31.1" /></g><g
         transform="scale(1.06705)"
         id="g74"><path
           id="path76"
           style="fill:#2f1d16;fill-opacity:1;fill-rule:nonzero;stroke:none"
           d="m 10253.5,15530.8 c 0,0 41.2,104.4 61.7,162 20.5,57.5 8.4,136.1 24.9,147.7 16.5,11.6 48.3,45.6 47,90 -1.4,44.4 -1.4,44.4 -1.4,44.4 0,0 0.1,39 61.3,57.3 61.2,18.3 91.3,89.6 91.3,89.6 0,0 152,-9.2 210.4,-10.3 58.5,-1 184.2,-7.1 253.1,-12.2 69,-5.2 273.9,-20.5 280.8,-22.6 7.1,-2.1 70.3,-75.5 70.3,-75.5 0,0 6.9,128.5 -8.9,132.9 -15.7,4.3 0.8,53.1 -218,74.4 -219,21.3 -350.4,91.5 -532.6,25.9 -182.3,-65.7 -207.1,-27.2 -278.6,-110.7 -71.4,-83.4 -144.2,-230.6 -129.4,-291.6 14.8,-61 68.1,-301.3 68.1,-301.3" /></g></g></g></svg>