<?xml version="1.0" encoding="UTF-8" standalone="no"?>
<svg
   xmlns:dc="http://purl.org/dc/elements/1.1/"
   xmlns:cc="http://creativecommons.org/ns#"
   xmlns:rdf="http://www.w3.org/1999/02/22-rdf-syntax-ns#"
   xmlns:svg="http://www.w3.org/2000/svg"
   xmlns="http://www.w3.org/2000/svg"
   viewBox="0 0 2666.6667 2666.6667"
   height="2666.6667"
   width="2666.6667"
   xml:space="preserve"
   id="svg2"
   version="1.1"><metadata
     id="metadata8"><rdf:RDF><cc:Work
         rdf:about=""><dc:format>image/svg+xml</dc:format><dc:type
           rdf:resource="http://purl.org/dc/dcmitype/StillImage" /></cc:Work></rdf:RDF></metadata><defs
     id="defs6" /><g
     transform="matrix(1.3333333,0,0,-1.3333333,0,2666.6667)"
     id="g10"><g
       transform="scale(0.1)"
       id="g12"><g
         transform="scale(1.22699)"
         id="g14"><path
           id="path16"
           style="fill:none;fill-opacity:1;fill-rule:nonzero;stroke:none"
           d="M 16300,0 H 0 V 16300 H 16300 V 0" /></g><path
         id="path18"
         style="fill:#3a70c0;fill-opacity:1;fill-rule:nonzero;stroke:none"
         d="m 3634.23,6508.8 c -25.35,46.8 0,151.3 0,151.3 0,0 70.56,80.4 43.16,155.8 -27.4,75.3 -808.41,342.5 -945.42,315.1 -137.02,-27.4 -315.14,-504.5 -321.99,-622.2 -6.85,-117.7 -89.07,-407.1 -239.79,-690.6 -150.72,-283.4 -178.12,-673.9 -95.91,-920.6 82.21,-246.6 397.35,-342.5 643.99,-287.7 246.63,54.8 116.46,349.4 171.27,582.3 54.81,233 486.41,445.3 568.62,548.1 82.22,102.8 58.24,167.8 58.24,167.8 l 117.83,600.7" /><path
         id="path20"
         style="fill:#ffffff;fill-opacity:1;fill-rule:nonzero;stroke:none"
         d="m 3516.4,5908.1 h -208.96 c 0,0 -27.4,284.4 0,394 27.41,109.6 253.49,376.8 253.49,376.8 l 140.44,-36 30.83,-299.7 -215.8,-435.1" /><path
         id="path22"
         style="fill:#fbc295;fill-opacity:1;fill-rule:nonzero;stroke:none"
         d="m 8238.39,5014.1 c 0,0 -236.36,-46.2 -411.05,0 -174.71,46.2 -262.06,107.9 -303.16,113 -41.11,5.2 -272.32,30.9 -405.92,87.4 -133.59,56.5 -303.15,169.5 -524.09,251.8 -220.94,82.2 -955.7,169.5 -1341.07,246.6 -385.36,77.1 -632,220.9 -801.56,251.8 -169.55,30.8 -935.15,-56.6 -935.15,-56.6 0,0 -51.38,226.1 0,349.4 51.39,123.4 184.98,385.4 184.98,385.4 0,0 1474.66,-71.9 1664.77,-66.8 190.12,5.1 642.27,10.3 1063.61,-41.1 421.33,-51.4 796.41,-292.9 904.32,-292.9 107.9,0 1027.64,-61.6 1027.64,-61.6 0,0 184.97,-267.2 118.17,-565.2 -66.79,-298.1 -241.49,-601.2 -241.49,-601.2" /><path
         id="path24"
         style="fill:#252323;fill-opacity:1;fill-rule:nonzero;stroke:none"
         d="m 11802.6,5075.8 c 0,0 -167.9,-179.7 -250.1,-192.6 -82.2,-13 -472.7,-146.6 -657.7,-156.8 -184.9,-10.3 -647.4,-72 -1089.27,0 -441.88,71.9 -842.66,130 -1048.19,157.5 -205.52,27.4 -585.75,0 -585.75,0 0,0 -174.7,263.8 -82.21,736.5 92.49,472.7 113.04,662.8 113.04,662.8 0,0 781,166.7 955.7,219.5 174.7,52.9 606.31,145.3 637.13,186.5 30.83,41.1 318.55,302.6 863.25,397.9 544.6,95.3 976.2,-319.2 1192,-319.2 215.8,0 503.6,-1044.7 462.5,-1106.4 -41.1,-61.6 -510.4,-585.7 -510.4,-585.7" /><path
         id="path26"
         style="fill:#e9a97d;fill-opacity:1;fill-rule:nonzero;stroke:none"
         d="m 15861.7,6968.8 c 0,0 -455.6,237.6 -674.8,285.5 -131.5,28.8 -240.8,28 -341.3,27.2 -67,-0.6 -130,-1.1 -193.1,7.1 -157.5,20.6 -883.7,116.5 -1130.4,61.7 -246.6,-54.9 -238.3,-97.5 -186.7,-446.2 51.6,-348.7 1567.2,-401.4 1567.2,-401.4 0,0 894,-98.2 1003.7,25.3 109.6,123.5 -44.6,440.8 -44.6,440.8" /><g
         transform="scale(1.00442)"
         id="g28"><path
           id="path30"
           style="fill:#3a70c0;fill-opacity:1;fill-rule:nonzero;stroke:none"
           d="m 16295,6185.64 -30.7,64.81 c 0,0 25.6,51.18 30.7,78.45 5,27.28 -30.7,64.82 -30.7,64.82 0,0 -87.1,392.16 -284.9,508.15 -197.7,115.89 -2426.4,11.85 -2503.2,0 -76.7,-11.94 -838.9,-115.99 -900.3,-122.86 -26.3,-2.88 -55.1,-2.09 -83.2,-1.19 -37.5,1.1 -73.6,2.19 -100.9,-5.58 -47.8,-13.64 -54.7,-34.14 -184.2,-34.14 -129.6,0 -409.3,0 -409.3,0 0,0 -27.3,-627.53 -47.7,-777.57 -20.5,-150.03 0,-907.08 0,-907.08 0,0 -54.5,-61.43 245.5,-102.35 140.1,-19.12 182.1,-6.97 241.2,5.08 67.5,13.84 157.2,27.67 440.9,-5.08 532.1,-61.43 975.4,-68.2 1377.8,-68.2 402.4,0 511.6,-47.79 682.1,0 170.5,47.69 279.7,115.89 388.8,129.53 109.1,13.74 124.4,87.01 124.4,87.01 l 730.2,571.97 127.5,36.74 186,477.49" /></g><g
         transform="scale(1.00726)"
         id="g32"><path
           id="path34"
           style="fill:#fbc295;fill-opacity:1;fill-rule:nonzero;stroke:none"
           d="m 15279.7,5364.93 -71.4,-279.87 c 0,0 235.6,108.12 554,130.55 318.3,22.44 537.7,104.15 476.4,257.14 -61.1,153.08 -198.9,499.87 -198.9,499.87 0,0 -229.5,-343.01 -760.1,-607.69" /></g><path
         id="path36"
         style="fill:#3a70c0;fill-opacity:1;fill-rule:nonzero;stroke:none"
         d="m 2699.88,11439.4 271.3,-45.4 c 0,0 98.2,-39.4 103.33,-131.9 5.14,-92.5 -56.52,-277.4 -56.52,-277.4 l -66.79,-431.6 c 0,0 82.21,-113.1 198.67,-188.4 116.47,-75.4 280.89,-315.2 219.23,-397.4 -61.66,-82.2 -393.01,-185 -669.22,-130.2 -276.2,54.8 -666.71,493.3 -680.41,582.4 -13.7,89 -82.21,424.7 -137.02,541.2 -54.8,116.5 -171.27,279.2 -232.93,478.7 -61.65,199.5 -27.4,485.2 41.11,523.9 68.51,38.7 741.61,151.8 741.61,151.8 l 505.26,-243.2 -237.62,-432.5" /><path
         id="path38"
         style="fill:#ffffff;fill-opacity:1;fill-rule:nonzero;stroke:none"
         d="m 3040.26,11440.3 -227.79,-152.5 c 0,0 -246.64,82.2 -380.23,272.3 -133.59,190.2 -46.24,277.5 -25.69,344.3 20.55,66.8 25.69,210.7 25.69,210.7 l 224.37,37.7 150.71,-145.6 232.94,-566.9" /><path
         id="path40"
         style="fill:#fbc295;fill-opacity:1;fill-rule:nonzero;stroke:none"
         d="m 7137.11,13043.4 -870.08,-261.6 c 0,0 -486.41,19.3 -979.67,0 -493.27,-19.3 -965.98,-245.4 -1116.7,-286.5 -150.72,-41.1 -1514.05,-342.5 -1514.05,-342.5 0,0 -95.92,-205.6 -75.36,-287.8 20.55,-82.2 431.6,-445.3 459.01,-424.7 27.4,20.5 431.6,232.9 801.55,253.4 369.95,20.6 1267.42,54.8 1630.52,102.8 196.67,26 369.23,-0.3 524.2,-26.6 131.13,-22.2 249.67,-44.5 359.57,-35.1 239.78,20.6 369.95,109.7 390.5,109.7 20.55,0 428.18,-82.2 700.51,89 272.32,171.3 -310,1109.9 -310,1109.9" /><path
         id="path42"
         style="fill:#252323;fill-opacity:1;fill-rule:nonzero;stroke:none"
         d="m 10672.2,13077.6 c 0,0 0,-109.6 -48,-157.5 -47.9,-48 -41.1,-34.3 -82.2,-89.1 -41.1,-54.8 -198.7,-244.7 -315.1,-314.2 -116.5,-69.5 -226.1,-90 -342.58,-124.3 -116.47,-34.2 -815.26,-171.2 -965.98,-226.1 -150.72,-54.8 -527.52,-95.9 -637.13,-116.4 -109.62,-20.6 -294.59,-95.9 -417.91,-116.5 -123.32,-20.5 -164.42,-13.7 -226.08,-27.4 -61.66,-13.7 -246.63,-109.6 -246.63,-109.6 0,0 -191.83,239.8 -219.23,602.9 -27.4,363.1 -116.47,767.3 -116.47,767.3 0,0 500.12,308.3 609.73,349.4 109.62,41.1 554.93,287.7 596.03,342.5 41.11,54.8 369.95,705.7 938.58,856.4 568.62,150.7 890.57,-54.8 959.07,-54.8 68.6,0 178.2,51.4 178.2,51.4 l 335.7,-777.6 116.4,-541.2 -116.4,-315.2" /><path
         id="path44"
         style="fill:#e9a97d;fill-opacity:1;fill-rule:nonzero;stroke:none"
         d="m 14202.5,10097.7 c 0,0 265.1,-20.8 340.4,-41.3 75.4,-20.6 210.9,-37.7 249.3,-24 38.5,13.7 79.6,30.2 79.6,30.2 0,0 393.9,-4.1 459,0 65.1,4 75.4,35.1 75.4,35.1 0,0 47.9,30.6 30.8,58 -17.1,27.4 -301.5,75.4 -397.4,99.3 -95.9,24 -428.2,44.6 -503.5,58.3 -75.4,13.7 -383.7,89 -383.7,89 l -123.3,-102.7 173.4,-201.9" /><path
         id="path46"
         style="fill:#3a70c0;fill-opacity:1;fill-rule:nonzero;stroke:none"
         d="m 14450.4,14355.3 -195.2,-215.8 -966,-527.5 c 0,0 -308.3,20.5 -452.1,0 -143.9,-20.6 -376.8,-13.7 -418,-34.3 -41.1,-20.5 -171.2,-198.6 -465.8,-246.6 -294.6,-47.9 -150.7,6.8 -472.7,-61.7 -322,-68.5 -513.8,-171.2 -602.9,-191.8 -89.1,-20.5 -205.5,0 -205.5,0 0,0 -233,685.1 -294.6,1075.6 -61.7,390.5 -41.1,558.4 -41.1,558.4 0,0 335.7,85.6 411,126.7 75.4,41.1 68.5,27.4 157.6,61.7 89.1,34.2 116.5,54.8 219.2,123.3 102.8,68.5 972.9,474.7 1568.9,583.3 596,108.6 767.3,101.8 938.6,74.4 171.2,-27.4 431.3,-95.9 537.6,-102.8 106.4,-6.8 65.2,-116.5 65.2,-116.5 l 397.4,-638.6 v -169.8 l -181.6,-298" /><path
         id="path48"
         style="fill:#fbc295;fill-opacity:1;fill-rule:nonzero;stroke:none"
         d="m 13220.7,15146.6 c 0,0 -431.6,-241.5 -596,-576.3 -164.4,-334.9 -34.3,-554.1 130.2,-663.7 164.4,-109.6 321.9,-150.7 321.9,-150.7 0,0 -13.7,-376.8 20.6,-781 34.3,-404.2 198.7,-719.4 198.7,-719.4 0,0 27.4,-746.7 137,-1253.7 109.6,-507 459,-1233.2 459,-1233.2 l 322,68.5 c 0,0 -48,1007.1 -48,1514.1 0,507 -75.3,650.8 -75.3,650.8 0,0 -27.4,308.3 -48,424.8 -20.5,116.5 -17.1,123.3 -20.5,133.6 -3.5,10.3 3.4,308.3 -27.4,441.9 -30.9,133.6 -30.9,92.4 -30.9,133.6 0,41.1 24,435 24,435 0,0 274,342.5 308.3,534.4 34.3,191.8 -6.8,359.6 0,369.9 6.9,10.3 77.1,286 -92.5,563.5 -169.5,277.5 -731.3,282.9 -983.1,107.9" /><g
         transform="scale(1.01167)"
         id="g50"><path
           id="path52"
           style="fill:#fbc295;fill-opacity:1;fill-rule:nonzero;stroke:none"
           d="m 16300,14535 -50.8,-96.5 c 0,0 -157.5,-191.3 -215,-218.4 -57.5,-27.1 -128.7,-47.4 -142.2,-57.5 -13.6,-10.2 -233.6,-277.7 -260.7,-274.3 -27.1,3.4 -67.7,84.6 -67.7,84.6 0,0 -94.8,-37.2 -128.7,-44 -33.9,-6.7 -149,-16.9 -199.8,-40.6 -50.8,-23.7 -108.3,-105 -243.7,-84.6 -135.4,20.3 -182.9,379.2 -182.9,379.2 l -524.9,6.8 c 0,0 67.8,260.7 17,470.6 -50.8,209.9 -291.2,495.5 -294.5,518.6 -3.5,23.1 64.2,104.4 64.2,104.4 0,0 77.9,-93.6 182.9,-104.4 105,-10.7 291.2,73.9 291.2,73.9 l 1034.4,-16.9 193,-198.1 528.2,-502.8" /></g><g
         transform="scale(1.03626)"
         id="g54"><path
           id="path56"
           style="fill:#252323;fill-opacity:1;fill-rule:nonzero;stroke:none"
           d="m 15157.9,14500.8 c -6.6,16.6 6.6,201.7 -138.9,191.8 -145.4,-9.9 -178.4,-122.3 -178.4,-122.3 l -204.9,62.8 c 0,0 -178.6,16.5 -254.6,23.1 -76.1,6.6 -135.5,112.4 -152.1,148.8 -16.5,36.3 -29.7,85.9 -29.7,85.9 0,0 231.4,171.9 323.9,284.3 92.6,112.4 254.6,279.3 438,343.8 183.5,64.4 471.1,74.3 629.7,34.7 158.8,-39.7 158.8,-104.2 322.3,-282.7 163.7,-178.5 233.1,-376.8 287.6,-555.3 54.5,-178.5 69.5,-247.9 84.3,-342.1 14.9,-94.2 -5,-223.1 -114,-277.7 -109.1,-54.5 -292.6,-39.7 -307.5,0 -14.8,39.7 -74.3,89.3 -113.9,114.1 -39.8,24.8 -84.4,49.5 -148.8,49.5 -64.5,0 -143.8,-29.7 -203.4,-24.7 -59.4,4.9 -137.8,9.9 -153.1,14.8 -15.5,5 -109.6,9.9 -179,9.9 -69.5,0 -114.1,14.9 -114.1,14.9 0,0 49.6,84.3 104.1,114.1 54.6,29.7 102.5,112.3 102.5,112.3" /></g><path
         id="path58"
         style="fill:#d2946b;fill-opacity:1;fill-rule:nonzero;stroke:none"
         d="m 15378.8,15098.6 c 0,0 -11.2,-11.1 -29.2,-70.2 -17.9,-59.1 0,-185 0,-185 0,0 -154.1,-179.8 -179.8,-202.9 -25.7,-23.1 -66.8,-107.9 -66.8,-107.9 0,0 12.8,134.6 46.2,179 33.4,44.5 95.1,108.7 110.5,139.6 15.4,30.8 7.7,159.2 20.6,187.5 12.8,28.2 49.6,74.9 49.6,74.9 l 48.9,-15" /><g
         transform="scale(1.09914)"
         id="g60"><path
           id="path62"
           style="fill:#fbc295;fill-opacity:1;fill-rule:nonzero;stroke:none"
           d="m 16300,4458.23 -73.7,-68.05 c 0,0 -195.5,-117.46 -253.8,-123.19 -58.3,-5.73 -126.2,-1.54 -141.1,-6.09 -14.9,-4.65 -288.1,-168.95 -310.6,-157.67 -22.4,11.28 -32.6,94.34 -32.6,94.34 0,0 -93.7,-3.09 -125.2,1.46 -31.5,4.55 -134.5,31.11 -185.8,26.2 -51.3,-4.91 -126.3,-57.59 -237.5,1.73 -111.2,59.32 -41.8,385.21 -41.8,385.21 l -453.1,167.5 c 0,0 139,205.34 159.6,403.04 20.6,197.7 90.5,269.67 94.7,290.68 4.2,21.11 163.7,238.47 163.7,238.47 87.7,-41.67 135.5,-90.26 135.5,-90.26 l 892,-333.35 106.5,-231.18 303.2,-598.84" /></g><g
         transform="scale(1.12814)"
         id="g64"><path
           id="path66"
           style="fill:#252323;fill-opacity:1;fill-rule:nonzero;stroke:none"
           d="m 15322.7,4844.81 c -0.6,16.31 67.7,172.5 -61.2,208.57 -129,36.17 -192.1,-50.97 -192.1,-50.97 l -158.2,117.37 c 0,0 -149.4,69.14 -213.1,98.21 -63.9,29.17 -82.8,138.99 -85.9,175.51 -3.2,36.61 0.6,83.59 0.6,83.59 0,0 253.2,77.65 367.8,146.44 114.7,68.87 306.2,163.54 484.8,163.01 178.6,-0.62 430.6,-80.4 555.7,-163.54 125.2,-83.06 105.4,-138.9 192.2,-343.67 86.7,-204.85 85.9,-397.82 78.2,-569.17 -7.6,-171.25 -16.1,-235.87 -32.2,-322.03 -16,-86.07 -72.9,-191.65 -184,-205.3 -111.3,-13.65 -265.5,55.58 -266.1,94.5 -0.7,38.91 -37,100.07 -63.7,133.76 -26.7,33.68 -57.7,68.87 -113.5,88.64 -55.9,19.85 -133.7,18.44 -183.7,41.04 -49.9,22.6 -116.2,50.97 -128,59.92 -11.8,9.04 -91.8,42.28 -151.9,63.65 -60.1,21.36 -94.1,47.95 -94.1,47.95 0,0 68.8,57.71 125.2,66.66 56.3,9.04 123.2,65.86 123.2,65.86" /></g><g
         transform="scale(1.04296)"
         id="g68"><path
           id="path70"
           style="fill:#d2946b;fill-opacity:1;fill-rule:nonzero;stroke:none"
           d="m 16300,5410.93 c 0,0 -13.6,-6.52 -48.9,-54.08 -35.2,-47.65 -59.3,-167.21 -59.3,-167.21 0,0 -197,-113.05 -227.6,-125.61 -30.7,-12.66 -95,-76.13 -95,-76.13 0,0 54.9,117.55 99.2,146.99 44.4,29.43 120.8,67.69 144.6,90.61 23.8,22.91 58,141.42 78.8,162.8 20.7,21.48 68.8,51.78 68.8,51.78 l 39.4,-29.15" /></g><path
         id="path72"
         style="fill:#e9ad81;fill-opacity:1;fill-rule:nonzero;stroke:none"
         d="m 14077.1,14954.8 c 0,0 -171.4,208.9 -406.3,310.2 68.8,-0.1 137.7,-7.3 202.7,-21.7 52.3,-60.5 101.5,-121.5 128.2,-165.2 75.4,-123.3 75.4,-123.3 75.4,-123.3" /><path
         id="path74"
         style="fill:#e0a379;fill-opacity:1;fill-rule:nonzero;stroke:none"
         d="m 13988,13570.9 c 0,0 -9.2,219.5 -71.9,284.3 -62.8,64.8 -185,181.6 -233,366.5 0,0 125.9,-212 246.2,-260.1 64.3,-25.7 128.3,-136.3 174.1,-233.8 -62.3,-90.6 -115.4,-156.9 -115.4,-156.9" /><path
         id="path76"
         style="fill:#918a8c;fill-opacity:1;fill-rule:nonzero;stroke:none"
         d="m 13076.8,13755.9 c 0,0 -157.5,41.1 -322,150.7 -21.1,14.1 -41.7,30 -61.1,47.7 19.4,-17.7 40,-33.6 61.2,-47.7 164.4,-109.6 321.9,-150.7 321.9,-150.7 v 0 m -383.3,198.6 c -0.1,0.1 -0.1,0.1 -0.2,0.1 0.1,0 0.1,0 0.2,-0.1" /><path
         id="path78"
         style="fill:#e0a379;fill-opacity:1;fill-rule:nonzero;stroke:none"
         d="m 13076.8,13755.9 v 0 0 c 0,0 -157.5,41.1 -321.9,150.7 -21.2,14.1 -41.8,30 -61.2,47.7 -0.1,0.1 -0.2,0.1 -0.2,0.2 -0.1,0.1 -0.1,0.1 -0.2,0.1 -65.1,59.6 -117.7,139.6 -136.8,240.7 107.3,-37.2 230.8,-71.3 322.9,-71.3 3,0 6.1,0 9,0.1 200.4,5.1 200.4,5.1 200.4,5.1 l 46.3,282.6 c 0,0 71.9,-313.4 51.4,-411 -20.6,-97.6 -109.7,-244.9 -109.7,-244.9" /><path
         id="path80"
         style="fill:#e0b79b;fill-opacity:1;fill-rule:nonzero;stroke:none"
         d="m 13296.2,12253.3 c 0,0.1 0,0.1 0,0.1 0,0 0,0 0,-0.1 m -0.1,1 c 0,0 0,0 0,0 0,0 0,0 0,0 m 0,0.1 v 0 0 m 0,0.1 c 0,0 0,0 0,0 0,0 0,0 0,0 m 0,0.1 c 0,0 0,0 0,0 0,0 0,0 0,0 m 0,0.2 c 0,0 0,0 0,0.1 0,-0.1 0,-0.1 0,-0.1 m 0,0.1 c 0,0.1 0,0.2 0,0.3 0,-0.1 0,-0.2 0,-0.3 m 0,0.3 c 0,0 0,0 0,0 0,0 0,0 0,0 m 0,0.1 c 0,0 0,0 0,0 0,0 0,0 0,0 m 0,0 c 0,0 0,0 0,0 0,0 0,0 0,0 m 0,0.1 c 0,0 0,0 0,0 0,0 0,0 0,0 m 0,0.1 c 0,0 0,0 0,0 0,0 0,0 0,0 m 0,0 v 0 0 0 0 m 0,0 c 0,0 0,0 0,0 0,0 0,0 0,0 m 0,0 v 0 0 m -0.1,0.1 c 0,0 0,0 0,0 0,0 0,0 0,0" /><path
         id="path82"
         style="fill:#e0a379;fill-opacity:1;fill-rule:nonzero;stroke:none"
         d="m 13340.6,11630.8 c -32.3,321.2 -43.4,595.5 -44.4,622.5 0,0.1 0,0.1 0,0.1 -0.1,0.4 -0.1,0.6 -0.1,0.9 0,0 0,0 0,0 0,0 0,0.1 0,0.1 v 0 c 0,0 0,0.1 0,0.1 0,0 0,0 0,0 0,0.1 0,0.1 0,0.1 0,0 0,0 0,0 0,0.1 0,0.2 0,0.2 0,0 0,0 0,0.1 0,0 0,0 0,0 0,0.1 0,0.2 0,0.3 v 0 c 0,0 0,0 0,0 0,0.1 0,0.1 0,0.1 0,0 0,0 0,0 0,0 0,0 0,0 0,0 0,0 0,0 0,0 0,0.1 0,0.1 0,0 0,0 0,0 0,0 0,0.1 0,0.1 0,0 0,0 0,0 0,0 0,0 0,0 v 0 0 c 0,0 0,0 0,0 0,0 0,0 0,0 v 0 0 c 0,0.1 -0.1,0.1 -0.1,0.1 0,0 0,0 0,0 -1.4,2.8 -54.2,104.9 -105.9,266 l 119.7,-113.7 51.4,108.9 c 0,0 -5.2,-799.7 -20.6,-886" /><path
         id="path84"
         style="fill:#fbc295;fill-opacity:1;fill-rule:nonzero;stroke:none"
         d="m 13892.1,9768.6 c 0,0 167.8,-332.2 267.2,-390.5 99.3,-58.2 637.1,-51.4 715.9,-37.7 78.8,13.8 44.5,68.6 167.9,51.4 123.3,-17.1 226,-109.6 284.3,-106.2 58.2,3.5 82.2,51.4 82.2,51.4 0,0 253.5,-20.5 277.4,20.6 24,41.1 -41.1,71.9 -41.1,71.9 0,0 -195.2,82.1 -212.3,97.6 -17.2,15.5 -17.2,63.4 -140.5,87.4 -65.5,12.7 -128.1,9 -197.6,5.3 -61.3,-3.2 -127.9,-6.5 -206.6,1.5 -167.8,17.2 -493.3,75.4 -541.2,106.2 -48,30.8 -133.6,109.6 -133.6,109.6 l -322,-68.5" /><path
         id="path86"
         style="fill:#e0a379;fill-opacity:1;fill-rule:nonzero;stroke:none"
         d="m 15505.5,9337 h -95.9 v 0 0 c 0,0 -123.3,68.5 -202.1,116.5 -78.8,47.9 -161,75.3 -284.3,78.8 -123.4,3.4 -260.4,20.5 -284.4,29 0,0 86.2,8.3 195.2,8.3 96.1,0 209.9,-6.4 298.1,-30.5 188.4,-51.4 373.4,-202.1 373.4,-202.1" /><path
         id="path88"
         style="fill:#da976a;fill-opacity:1;fill-rule:nonzero;stroke:none"
         d="m 14399.1,10214.9 c 0,0 100.2,14.5 187.5,-21.5 87.4,-36 120.8,-41.1 172.1,-66.8 51.4,-25.7 69.8,-80.8 69.8,-80.8 l 43.3,16.8 c 0,0 -51.4,97.4 -92.5,120.5 -41.1,23.1 -118.2,28.3 -185,46.3 -66.8,17.9 -167,14.7 -195.2,-14.5" /><path
         id="path90"
         style="fill:#162226;fill-opacity:1;fill-rule:nonzero;stroke:none"
         d="m 7447.1,12076.2 -1.53,-4.7 c 0.37,-0.2 4.96,-1.6 12.28,-1.6 10.33,0 26.21,3 42.49,16.6 16.3,13.5 32.89,37.3 45.74,78.5 34.6,111.2 27.5,307.3 224.65,484.1 99.24,89 178,152.9 243.3,214.8 65.29,61.8 117.12,121.7 161.93,202.2 89.33,160.3 192.06,420.6 192.1,420.7 l 16.95,43 -25.75,-38.3 c -0.01,-0.1 -4.59,-6.9 -12.86,-19.1 -28.93,-42.7 -102.76,-150.9 -181.32,-260.4 -78.52,-109.5 -161.98,-220.5 -209.4,-267.9 -54.25,-54.2 -127.82,-102.2 -201.73,-162.3 -73.89,-60.2 -148.12,-132.6 -203.35,-236.2 -107.02,-200.8 -108.44,-453.2 -108.5,-468.7 v -0.7 l 0.03,-3.6 3.44,-1.1 1.53,4.7 5,0.1 v 0.6 c -0.05,14.7 1.73,266.2 107.32,464 54.39,102 127.45,173.4 200.85,233.1 73.38,59.8 147.1,107.7 202.48,163.1 27.75,27.7 66.74,75.8 109.84,132.3 129.24,169.8 294.94,416.5 294.97,416.5 l -4.15,2.8 -4.65,1.8 c 0,0 -1.6,-4 -4.58,-11.5 -20.84,-51.9 -109.28,-268.7 -186.96,-408.1 -44.25,-79.4 -95.18,-138.3 -160.06,-199.7 -64.87,-61.5 -143.68,-125.5 -243.11,-214.6 -200.21,-179.4 -193.61,-380.7 -227.52,-488.7 -12.46,-39.8 -28.19,-61.8 -42.58,-73.7 -14.41,-12 -27.61,-14.3 -36.1,-14.3 -3,0 -5.39,0.3 -6.99,0.6 l -1.78,0.4 -0.4,0.1 h -0.06 l -0.53,-1.7 0.55,1.7 h -0.02 l -0.53,-1.7 0.55,1.7 -1.54,-4.8 5,0.1 -5,-0.1" /><path
         id="path92"
         style="fill:#e0b79b;fill-opacity:1;fill-rule:nonzero;stroke:none"
         d="m 6751.77,11844 -5.17,0.5 v 0 0 c 0.94,0 2.68,-0.2 5.17,-0.5" /><path
         id="path94"
         style="fill:#e0a379;fill-opacity:1;fill-rule:nonzero;stroke:none"
         d="m 6952.3,11825.4 -200.53,18.6 c -2.49,0.3 -4.23,0.5 -5.17,0.5 v 0 c 0,0 -75.36,41.1 -171.27,116.4 -95.92,75.4 -376.8,114 -376.8,114 67.44,18.5 131.11,26.4 190.77,26.4 352.38,0 563,-275.9 563,-275.9" /><path
         id="path96"
         style="fill:#fbc295;fill-opacity:1;fill-rule:nonzero;stroke:none"
         d="m 14501.8,5760.8 h 349.4 c 0,0 284.8,-226.7 705.7,-86.9 420.8,139.7 682.1,775 666.5,1054.4 -15.7,279.4 -431.9,253.7 -904.6,289.7 0,0 -169.6,143.9 -601.2,118.2 -431.6,-25.7 -801.5,-179.9 -965.9,-226.1 -164.5,-46.3 -221,-30.8 -318.6,-143.9 -97.6,-113 -36.4,-889.1 77.1,-1372.4 113.4,-483.3 452.1,-1057.9 467.5,-1052.8 15.5,5.1 385.4,77.1 385.4,97.6 0,20.6 -97.6,539.5 -71.9,817 25.7,277.5 205.5,414.5 210.6,505.2" /><path
         id="path98"
         style="fill:#e0a379;fill-opacity:1;fill-rule:nonzero;stroke:none"
         d="m 14851.2,5760.8 v 0 h -349.4 c 0,65.1 30.9,183.3 18,352.9 -12.8,169.5 -12.8,169.5 -12.8,169.5 0,0 82.2,-92.5 97.6,-246.6 15.4,-154.1 19,-174.7 199.6,-190.1 180.6,-15.4 339.9,-10.3 324.5,-15.4 -15.4,-5.2 -277.5,-70.3 -277.5,-70.3" /><path
         id="path100"
         style="fill:#da9a70;fill-opacity:1;fill-rule:nonzero;stroke:none"
         d="m 15318.8,7018 v 0 0" /><path
         id="path102"
         style="fill:#e0a379;fill-opacity:1;fill-rule:nonzero;stroke:none"
         d="m 14902.6,6502.7 c 0,0 236.5,184.5 277.5,376.6 13,60.9 9.9,134.9 -1.2,207.8 95.6,-32.3 138.5,-68 139.9,-69.1 v 0 0 c 0,0 -25.7,-231.2 -138.7,-354.5 -113.1,-123.4 -277.5,-160.8 -277.5,-160.8" /><path
         id="path104"
         style="fill:#fbc295;fill-opacity:1;fill-rule:nonzero;stroke:none"
         d="m 13977.7,4341 c 0,0 97.7,-292.9 308.3,-385.4 134.5,-59 375.2,-44.1 568.2,-29.1 109.2,8.5 203.2,17 253.9,12 140.5,-13.7 239.8,-68.5 308.3,-78.8 68.5,-10.3 106.2,27.4 106.2,27.4 0,0 123.3,-17.1 181.6,-6.8 58.2,10.2 71.9,54.8 71.9,54.8 0,0 78.8,-6.9 85.6,27.4 6.9,34.2 -147.3,92.4 -195.2,137 -48,44.5 -68.5,58.2 -161,89.1 -35.6,11.8 -64.1,11 -99.3,10.2 -56.3,-1.3 -130,-2.6 -277.5,48 -239.8,82.2 -534.4,65.1 -623.4,94.2 -89.1,29.1 -142.2,97.6 -142.2,97.6 0,0 -364.8,-58.2 -385.4,-97.6" /><path
         id="path106"
         style="fill:#e0a379;fill-opacity:1;fill-rule:nonzero;stroke:none"
         d="m 15634.9,3877.4 -112.3,9.7 v 0 0 c 0,0 -183.2,117.3 -268,137.9 -84.8,20.5 -283.5,36.8 -283.5,36.8 0,0 147.7,21 250.3,21 35,0 64.7,-2.5 81.6,-9 66.4,-25.7 331.9,-196.4 331.9,-196.4" /><path
         id="path108"
         style="fill:#e0a379;fill-opacity:1;fill-rule:nonzero;stroke:none"
         d="m 15776.1,3935.1 c 0,0 -182.4,69.3 -238.9,107.9 -56.5,38.5 -141.3,71.9 -141.3,71.9 2.2,0.6 5.1,0.9 8.5,0.9 39.2,0 149.1,-38.7 189.3,-60 43.7,-23.1 268,-93.3 268,-93.3 v 0 l -85.6,-27.4 v 0 0" /><path
         id="path110"
         style="fill:#e0a379;fill-opacity:1;fill-rule:nonzero;stroke:none"
         d="m 7524.18,5127.1 v 0 0 m 0,0 -134.71,18.8 c 0,0 1.11,145.7 -281.48,376.9 0,0 169.56,-87.4 277.46,-169.6 107.9,-82.2 138.73,-226.1 138.73,-226.1" /></g></g></svg>