<?xml version="1.0" encoding="UTF-8" standalone="no"?>
<svg
   xmlns:dc="http://purl.org/dc/elements/1.1/"
   xmlns:cc="http://creativecommons.org/ns#"
   xmlns:rdf="http://www.w3.org/1999/02/22-rdf-syntax-ns#"
   xmlns:svg="http://www.w3.org/2000/svg"
   xmlns="http://www.w3.org/2000/svg"
   viewBox="0 0 2666.6667 2666.6667"
   height="2666.6667"
   width="2666.6667"
   xml:space="preserve"
   id="svg2"
   version="1.1"><metadata
     id="metadata8"><rdf:RDF><cc:Work
         rdf:about=""><dc:format>image/svg+xml</dc:format><dc:type
           rdf:resource="http://purl.org/dc/dcmitype/StillImage" /></cc:Work></rdf:RDF></metadata><defs
     id="defs6" /><g
     transform="matrix(1.3333333,0,0,-1.3333333,0,2666.6667)"
     id="g10"><g
       transform="scale(0.1)"
       id="g12"><g
         transform="scale(1.22699)"
         id="g14"><path
           id="path16"
           style="fill:none;fill-opacity:1;fill-rule:nonzero;stroke:none"
           d="M 16300,0 H 0 V 16300 H 16300 V 0" /></g><path
         id="path18"
         style="fill:#2e64a7;fill-opacity:1;fill-rule:nonzero;stroke:none"
         d="m 4991.41,7221 c 0,0 -380.87,154.7 -480.85,135.7 -99.98,-19.1 -238.05,-378.7 -238.05,-379.8 0,-1.1 -142.83,-877.1 -47.61,-967.6 95.22,-90.4 318.98,-276.1 618.92,-223.7 299.94,52.4 152.35,252.3 147.59,430.8 -4.76,178.6 220.42,378.5 210.19,416.6 -10.23,38.1 -210.19,588 -210.19,588" /><path
         id="path20"
         style="fill:#3771be;fill-opacity:1;fill-rule:nonzero;stroke:none"
         d="m 4681.95,6976.9 c -4.76,22.7 -33.33,184.6 -33.33,184.6 0,0 -314.22,228.5 -566.54,109.5 -252.33,-119 -138.07,-431.1 -219,-686.9 -80.94,-255.8 -90.46,-736.6 90.45,-827.1 180.91,-90.4 495.14,-71.4 561.79,23.8 66.65,95.2 -90.46,304.7 -99.98,414.2 -9.52,109.5 71.41,280.4 166.63,306.9 95.22,26.4 229.19,169.1 229.63,183.3 0.45,14.3 -129.65,291.7 -129.65,291.7" /><path
         id="path22"
         style="fill:#e9ad84;fill-opacity:1;fill-rule:nonzero;stroke:none"
         d="m 7271.88,6242.6 c -4.76,47.6 119.03,342.8 119.03,342.8 0,0 -495.14,366.6 -823.64,461.8 -328.5,95.2 -868.87,121.4 -1154.52,142.9 -285.66,21.4 -421.34,30.9 -421.34,30.9 0,0 -64.27,-54.8 -40.47,-133.3 23.81,-78.6 2316.18,-1154.5 2320.94,-1130.7 4.77,23.8 0,285.6 0,285.6" /><path
         id="path24"
         style="fill:#f2f2f2;fill-opacity:1;fill-rule:nonzero;stroke:none"
         d="m 5201.6,7205.8 c -141.77,10.4 -210.19,15.2 -210.19,15.2 0,0 -64.27,-54.8 -40.47,-133.3 3.92,-13 69.53,-53 176.35,-110.8 23.1,99.9 50.53,175.3 74.31,228.9" /><path
         id="path26"
         style="fill:#f9c095;fill-opacity:1;fill-rule:nonzero;stroke:none"
         d="m 7333.77,5271.4 c -28.56,52.4 -423.72,195.2 -642.72,338 -219,142.9 -476.09,333.3 -552.26,423.8 0,0 -428.48,85.6 -842.68,309.4 -414.2,223.8 -647.49,309.5 -647.49,309.5 0,0 -104.74,271.3 -109.5,342.8 -4.76,71.4 109.5,166.6 109.5,166.6 0,0 357.07,-23.8 837.92,-47.6 480.86,-23.8 723.66,-176.2 1042.64,-333.3 318.98,-157.1 457.05,-180.9 457.05,-180.9 l 842.68,100 c 0,0 114.26,-457.1 90.46,-542.8 -23.81,-85.7 -585.6,-885.5 -585.6,-885.5" /><path
         id="path28"
         style="fill:#252323;fill-opacity:1;fill-rule:nonzero;stroke:none"
         d="m 9176.25,4781 c 0,0 -1056.92,104.8 -1266.41,157.1 -209.47,52.4 -709.37,352.3 -709.37,352.3 0,0 -133.31,461.9 0,728.5 133.3,266.6 628.44,680.8 628.44,680.8 0,0 235.93,14.3 329.83,57.1 93.89,42.9 589.02,280.9 927.05,311.9 338.02,30.9 837.92,45.2 837.92,45.2 0,0 238.09,0 133.29,-209.5 -104.72,-209.5 -471.32,-733.2 -509.4,-842.7 -38.09,-109.5 -56.23,-1348.8 -56.23,-1348.8" /><path
         id="path30"
         style="fill:#f2f2f2;fill-opacity:1;fill-rule:nonzero;stroke:none"
         d="m 4869.16,7147.7 c -138.35,8.3 -220.54,13.8 -220.54,13.8 0,0 -114.26,-95.2 -109.5,-166.6 4.76,-71.5 109.5,-342.8 109.5,-342.8 0,0 56.16,-20.7 162.03,-68 -3.41,219.9 29.22,425.5 58.51,563.6" /><path
         id="path32"
         style="fill:#f9c095;fill-opacity:1;fill-rule:nonzero;stroke:none"
         d="m 14146.4,5742.7 c 0,0 105,356.3 19.3,525.7 -85.7,169.4 -779.5,450.3 -775.4,459.8 4.1,9.6 -415.9,-152.3 -434.4,-166.6 -18.5,-14.3 -37.6,9.5 91,-228.5 128.5,-238.1 1099.5,-590.4 1099.5,-590.4" /><path
         id="path34"
         style="fill:#3771be;fill-opacity:1;fill-rule:nonzero;stroke:none"
         d="m 14060.9,5485.6 149.6,166.7 c 0,0 12.3,290.4 -149.6,404.7 -161.8,114.2 -228.5,195.2 -242.8,204.7 -14.3,9.5 -399.9,180.9 -580.8,319 -180.9,138 -790.3,202.3 -1254.5,209.4 -464.2,7.2 -2099.56,353.5 -2099.56,353.5 0,0 -278.51,-230.9 -342.78,-239.2 -64.27,-8.3 -271.37,-264.2 -285.66,-742.7 -14.28,-478.5 199.96,-415.3 171.4,-700.9 -28.57,-285.7 321.08,-857.5 321.08,-857.5 0,0 600.12,-131.7 792.92,-165 192.9,-33.4 1542.6,-119.1 1835.4,-97.6 292.8,21.4 739.7,152.1 994.7,154.6 255,2.5 690.6,990.3 690.6,990.3" /><path
         id="path36"
         style="fill:#252323;fill-opacity:1;fill-rule:nonzero;stroke:none"
         d="m 9923.71,7161.5 c 0,0 -142.04,-585.2 -163.46,-844.2 -21.42,-259.1 -148.38,-843.6 -134.1,-1045.9 14.28,-202.3 90.64,-602.2 90.64,-602.2 l -641.91,122.1 c 0,0 -227.14,763.5 -241.42,949.1 -14.28,185.6 71.42,407 171.39,557 99.98,150 188.62,349.9 247.85,457 59.23,107.2 123.51,150 123.51,150 l 547.5,257.1" /><path
         id="path38"
         style="fill:#f9c095;fill-opacity:1;fill-rule:nonzero;stroke:none"
         d="m 13865.7,4438.3 c 0,0 -685.5,47.6 -766.5,142.8 -80.9,95.2 319,315.6 471.4,736.2 152.3,420.7 147.7,634.9 219,654 71.4,19 185.6,-223.8 233.3,-261.9 47.6,-38.1 123.7,-70 123.7,-70 0,0 347.6,98.6 466.6,-139.5 119,-238 350,-594.5 225,-651.9 -125,-57.4 -458.3,-243.1 -520.2,-266.9 -61.9,-23.8 -452.3,-142.8 -452.3,-142.8" /><path
         id="path40"
         style="fill:#252323;fill-opacity:1;fill-rule:nonzero;stroke:none"
         d="m 15665,4197.9 c 219.2,-109.1 334.1,73.7 334.1,73.7 0,0 0,0 102.6,168.6 102.6,168.6 124.6,502.9 32.1,826.3 -92.6,323.4 -178.2,481.2 -178.2,481.2 -102.9,83.9 -260.1,115.1 -260.1,115.1 0,0 -116.3,312.3 -618.5,231.3 -502.2,-80.9 -924.1,-442.9 -930.4,-454.7 -6.2,-11.8 123.7,-247.7 234.1,-323.6 301.1,-206.9 345.8,-158.2 345.8,-158.2 0,0 -92.7,-565.5 -65.8,-573.9 27,-8.4 879.3,-316.6 879.3,-316.6 l 95.5,-60.8 c 9.5,-0.6 19.3,-3.4 29.5,-8.4" /><path
         id="path42"
         style="fill:#f9c095;fill-opacity:1;fill-rule:nonzero;stroke:none"
         d="m 15665,4197.9 c 0,0 -293.3,-156.6 -362.8,-181.1 -69.6,-24.4 -292.1,-9.8 -326,-18.3 -34,-8.4 -367.2,-248.5 -389.8,-245.8 -22.7,2.6 -61.8,142.7 -74.6,146.4 -12.8,3.7 -146.8,2.4 -159.3,-2.6 -12.5,-5 -40.6,-4.1 -40.6,-4.1 0,0 -54.1,-16.8 -82.9,-8.5 -28.8,8.3 -77.1,7.1 -96,8.9 -18.8,1.8 -219.4,-22.3 -251.4,-0.7 -32,21.5 -101.3,434.3 -90.9,502.4 10.5,68.1 320.3,489.7 388.1,531.3 67.7,41.7 283.6,68.7 283.6,68.7 0,0 13.9,180.2 149.5,263.6 135.6,83.4 390.8,89.5 444.9,-51.6 54.1,-141 -130.6,-229.4 -180.5,-251.8 -49.9,-22.5 -113.5,-56.3 -117.7,-64.2 -4.1,-7.9 157.3,-80.9 241.4,-102.1 84.2,-21.2 284.4,86.1 375.2,73 90.7,-13.1 198.4,-118.9 223.5,-171 25.2,-52.1 66.3,-492.5 66.3,-492.5" /><path
         id="path44"
         style="fill:#dc9468;fill-opacity:1;fill-rule:nonzero;stroke:none"
         d="m 13865.6,4342.5 c -19.3,-88.8 -26.7,-209.1 -29.4,-300.8 -27.3,132.3 -95.5,444.9 -88.9,487.5 10.4,68.2 284.3,352.6 352.1,394.3 67.7,41.6 363,71 363,71 0,0 -192.9,-81.8 -279.5,-146.5 -86.5,-64.7 -281.9,-341.7 -317.3,-505.5" /><path
         id="path46"
         style="fill:#494a4b;fill-opacity:1;fill-rule:nonzero;stroke:none"
         d="m 13650.3,6650.9 c 0,0 -82.1,-85.7 -174.9,-92.9 -92.9,-7.1 -1703.3,-79.4 -1703.3,-79.4 0,0 -142.1,70.6 -144.2,157.1 -2.2,86.6 -330.7,179.6 244.2,197.4 574.9,17.7 1778.2,-182.2 1778.2,-182.2" /><path
         id="path48"
         style="fill:#8d8d8d;fill-opacity:1;fill-rule:nonzero;stroke:none"
         d="m 13571,7186.5 79.3,64.3 -79.3,71.4 -3705.61,-85.7 -54.12,-60.7 c 0,0 2453.63,-214.3 2492.93,-210.7 39.2,3.6 1266.8,221.4 1266.8,221.4" /><path
         id="path50"
         style="fill:#5e5e5f;fill-opacity:1;fill-rule:nonzero;stroke:none"
         d="m 13650.3,7250.8 v -599.9 l -2245.9,-92.9 -1593.13,68.7 v 549.1 l 3839.03,75" /><path
         id="path52"
         style="fill:#f9c095;fill-opacity:1;fill-rule:nonzero;stroke:none"
         d="m 11604.2,5317.3 c 0,0 -18.9,-555.3 509.5,-626.7 528.5,-71.4 1066.5,514.7 1066.5,514.7 0,0 223.7,123.2 209.4,537.4 -14.2,414.2 -371.3,585.6 -590.3,680.8 -219,95.3 -742.7,38.1 -742.7,38.1 0,0 -280.9,157.1 -814.1,280.9 -533.2,123.8 -1052.2,95.2 -1171.2,61.9 -119.02,-33.3 -318.98,-199.9 -323.74,-290.4 -4.76,-90.5 52.37,-557 57.13,-585.6 4.76,-28.6 42.84,-442.8 214.21,-828.4 171.4,-385.6 514.2,-985.5 514.2,-985.5 l 442.8,222.8 c 0,0 -171.4,500.9 -190.5,743.7 -19,242.8 42.9,466.5 42.9,466.5 0,0 399.7,-198.5 775.9,-230.2" /><path
         id="path54"
         style="fill:#dc9468;fill-opacity:1;fill-rule:nonzero;stroke:none"
         d="m 10780.7,6085.5 c 104.7,-219 47.6,-538 47.6,-538 0,0 80.4,-39.9 202.8,-86.7 -39.4,122.6 -77.4,262.2 -88.6,353.4 -23.8,195.1 -161.8,271.3 -161.8,271.3" /><path
         id="path56"
         style="fill:#dc9468;fill-opacity:1;fill-rule:nonzero;stroke:none"
         d="m 12023.3,4994.5 c 261.8,-91.3 485.6,0 485.6,0 0,0 -23.8,10.3 -266.6,34.1 -242.8,23.8 -466.6,247.6 -466.6,247.6 l -171.5,41.1 c 0,0 -4.8,-141 58.1,-290 94.3,12.7 225,14.6 361,-32.8" /><path
         id="path58"
         style="fill:#dc9468;fill-opacity:1;fill-rule:nonzero;stroke:none"
         d="m 13088.5,6268.4 v 0 c -98.4,69.7 -204.2,118.2 -289.2,155.1 -219,95.3 -742.7,38.1 -742.7,38.1 514.2,4.8 1031.9,-193.2 1031.9,-193.2" /><path
         id="path60"
         style="fill:#dc9468;fill-opacity:1;fill-rule:nonzero;stroke:none"
         d="m 12885,6147.4 c 0,0 161.9,-209.5 0,-509.4 0,0 319,214.2 0,509.4" /><path
         id="path62"
         style="fill:#f9c095;fill-opacity:1;fill-rule:nonzero;stroke:none"
         d="m 10533.1,4114.5 c 0,0 92.8,-213 239.2,-277.3 146.4,-64.3 391.6,-29.8 432.1,-36.9 40.5,-7.2 200,-221.4 302.3,-183.3 102.4,38.1 -33.3,147.6 -73.8,216.6 0,0 135.7,-97.6 259.5,-173.8 123.8,-76.1 304.7,-76.1 335.6,-16.6 0,0 128,-48.8 181.5,-29.2 53.6,19.7 59,85.7 59,85.7 0,0 85.7,-5.3 49.9,58.9 -35.7,64.3 -230.3,230.3 -289.2,262.5 -58.9,32.1 -398.1,183.9 -412.4,183.9 -14.3,0 -657,142.8 -657,142.8 0,0 -208.9,20 -251.7,-10.5 -42.9,-30.6 -175,-222.8 -175,-222.8" /><path
         id="path64"
         style="fill:#dc9468;fill-opacity:1;fill-rule:nonzero;stroke:none"
         d="m 11697.1,3931.8 c -7.5,2.5 320.8,-257.7 330.9,-288.6 l 75.9,-23.2 c 0,0 -221.1,251.1 -406.8,311.8" /><path
         id="path66"
         style="fill:#dc9468;fill-opacity:1;fill-rule:nonzero;stroke:none"
         d="m 11900.5,3977.3 368,-277.6 c 0,0 25,-9.2 41.1,6.5 0,0 -241.5,234.5 -409.1,271.1" /><path
         id="path68"
         style="fill:#494a4b;fill-opacity:1;fill-rule:nonzero;stroke:none"
         d="m 9974.85,15059.9 c 492.75,135.9 1235.45,478.7 1735.35,535.9 369.3,42.2 773.5,-14.4 1009.4,-56.4 32.7,56.2 64.2,130.1 51.1,192 -24.9,117.7 -543.9,250 -696.3,245.2 -152.3,-4.7 -733.2,-61.9 -733.2,-61.9 0,0 -1771.02,-466.5 -1842.44,-566.5 -71.41,-100 -352.3,-298.8 -352.3,-298.8 l -50.04,-142.4 v 0 c 255.89,28.5 604.62,77.4 878.43,152.9" /><g
         transform="scale(1.00703)"
         id="g70"><path
           id="path72"
           style="fill:#8d8d8d;fill-opacity:1;fill-rule:nonzero;stroke:none"
           d="m 12571.4,16142.8 c 0,0 -139.2,114.6 -314.2,135.9 -174.9,21.3 -834.4,-11.8 -1224.5,-89.8 -389.9,-78 -1148.78,-267.1 -1479.71,-413.7 -330.94,-146.5 -524.78,-236.4 -640.61,-465.6 l 826.16,209.4 2832.86,623.8" /></g><g
         transform="scale(1.00302)"
         id="g74"><path
           id="path76"
           style="fill:#5e5e5f;fill-opacity:1;fill-rule:nonzero;stroke:none"
           d="m 9069.06,14862.2 -121,508.6 c 0,0 64.09,108.1 195.8,192.9 131.72,84.8 676.39,330.5 1278.04,476.4 601.6,146 1160.6,259.9 1605.5,259.9 445,0 594.3,-92.6 594.3,-92.6 l 110.6,-523.3 c 0,0 -206.5,92.6 -804.6,32.1 -598.1,-60.6 -1359.9,-259.9 -1925.9,-409.4 -566.02,-149.5 -932.74,-444.6 -932.74,-444.6" /></g><path
         id="path78"
         style="fill:#2e64a7;fill-opacity:1;fill-rule:nonzero;stroke:none"
         d="m 5118.73,12386.9 c 0,0 61.89,-190.4 38.09,-257.1 -23.81,-66.6 -57.14,-100 -85.7,-185.7 -28.57,-85.7 34.7,-357 91.15,-499.9 56.44,-142.8 -7.39,-278.3 -248.26,-290.4 -240.87,-12 -342.79,76.2 -385.64,152.4 -42.84,76.2 -104.74,128.5 -42.84,538 61.89,409.4 45.8,532.1 213.34,651.7 167.53,119.5 419.86,-109 419.86,-109" /><path
         id="path80"
         style="fill:#3771be;fill-opacity:1;fill-rule:nonzero;stroke:none"
         d="m 4847.35,12353.6 c 0,0 9.53,-257.1 -28.56,-323.8 -38.09,-66.6 -119.02,-128.5 -119.02,-128.5 0,0 -123.78,-314.2 -66.65,-452.3 57.12,-138.1 223.76,-333.3 -166.64,-361.8 -390.39,-28.6 -547.5,85.7 -609.4,366.6 -61.88,280.9 23.81,366.6 -23.8,661.7 -47.61,295.2 -42.85,414.2 138.07,476.1 180.91,61.9 533.22,90.5 533.22,90.5 l 342.78,-328.5" /><path
         id="path82"
         style="fill:#f9c095;fill-opacity:1;fill-rule:nonzero;stroke:none"
         d="m 7465.85,12463.1 c 0,0 -233.96,-119 -504.99,-104.8 -271.03,14.3 -523.36,-16.6 -923.28,-1.2 -399.91,15.5 -1190.23,-174.9 -1218.79,-170.2 -28.57,4.8 -209.48,197.6 -299.94,225 -90.46,27.4 -90.46,27.4 -90.46,27.4 l -52.36,180.9 c 0,0 680.81,576.1 937.9,633.2 257.09,57.1 1214.02,119 1214.02,119 l 861.73,461.8 c 0,0 180.92,-323.7 199.96,-523.7 19.04,-199.9 -123.79,-847.4 -123.79,-847.4" /><path
         id="path84"
         style="fill:#252323;fill-opacity:1;fill-rule:nonzero;stroke:none"
         d="m 9056,12589.4 c -52.37,-12.1 -1618.71,-264.4 -1690.13,-254.9 -71.41,9.6 -304.69,190.5 -390.39,571.3 -85.69,380.9 233.28,918.9 233.28,918.9 0,0 199.97,164.4 395.16,403.6 195.2,239.1 652.25,658.1 1142.62,646.2 490.37,-11.9 833.16,-1354.5 828.4,-1373.6 -4.76,-19 -518.94,-911.5 -518.94,-911.5" /><path
         id="path86"
         style="fill:#f9c095;fill-opacity:1;fill-rule:nonzero;stroke:none"
         d="m 12331.5,13484.5 c 0,0 195.2,-864.3 209.5,-1016.7 14.3,-152.3 -19.1,-614.1 23.8,-971.2 42.8,-357.1 333.2,-1261.6 333.2,-1261.6 l 342.8,104.7 c 0,0 9.6,514.2 76.2,1085.5 66.7,571.3 -54.3,976 -43.8,1180.7 10.5,204.7 167.6,1366.4 167.6,1366.4 0,0 -419,147.6 -514.2,57.1 -95.2,-90.4 -595.1,-544.9 -595.1,-544.9" /><path
         id="path88"
         style="fill:#dc9468;fill-opacity:1;fill-rule:nonzero;stroke:none"
         d="m 13069.4,13648.5 c 0,0 190.5,-32.1 228.6,-47 13.4,-5.2 46.4,-37.6 83.4,-77.4 32.4,248.4 59.4,448.2 59.4,448.2 0,0 -419,147.6 -514.2,57.1 -45.1,-42.8 -181,-167.3 -311.5,-286.5 227.8,-43.2 454.3,-94.4 454.3,-94.4" /><path
         id="path90"
         style="fill:#3771be;fill-opacity:1;fill-rule:nonzero;stroke:none"
         d="m 13223.7,14296 c 0,0 40.9,937.9 0,964.1 -41,26.2 -201.9,221.4 -325.7,245.2 -123.7,23.8 -687.9,147.6 -1187.8,90.5 -499.9,-57.2 -1242.6,-400 -1735.35,-535.9 -492.75,-135.9 -1228.31,-185.4 -1228.31,-185.4 -171.39,-242.8 -92.84,-1128.4 -92.84,-1556.8 0,-107.1 13.83,-222.2 36.74,-335.7 h 598.84 l 257.09,-307.1 c 135.69,-148.3 470.73,101.1 732.03,117.9 407,26.1 1191,2.3 1777,113 563.9,106.6 828.4,438 956.9,578.7 128.6,140.7 428.5,487.8 428.5,487.8 l -217.1,323.7" /><path
         id="path92"
         style="fill:#f9c095;fill-opacity:1;fill-rule:nonzero;stroke:none"
         d="m 13569.8,15348.2 c 0,0 -193.1,-77.4 -346.1,-88.1 -153.1,-10.7 -217.3,56 -278,44.1 -60.7,-11.9 -96.5,-90.5 -82.2,-229.8 14.3,-139.2 -210.6,-921.2 -203.5,-1139 7.1,-217.8 -14.3,-364.2 189.2,-328.5 203.6,35.7 352.5,454.6 424.4,480.8 72,26.2 396.9,184.5 396.9,184.5 0,0 571,463.8 501.5,622.3 -69.4,158.5 -96.3,208.5 -256,301.3 -159.8,92.9 -346.2,152.4 -346.2,152.4" /><path
         id="path94"
         style="fill:#252323;fill-opacity:1;fill-rule:nonzero;stroke:none"
         d="m 15155.2,13980.6 c 224.1,-98.5 330.1,89.6 330.1,89.6 0,0 0,0 94.5,173.3 94.4,173.3 100.5,508.2 -7.3,826.9 -107.9,318.7 -200.9,472.1 -200.9,472.1 -106.9,78.9 -265.3,102.6 -265.3,102.6 0,0 -131,306.4 -628.8,201.6 -497.8,-104.8 -902,-486.4 -907.7,-498.5 -5.7,-12.1 135.4,-241.6 249.2,-312.1 310.7,-192.3 353,-141.6 353,-141.6 0,0 -65.7,-569.2 -38.4,-576.3 27.3,-7.2 893.4,-274.4 893.4,-274.4 l 98.2,-56.1 c 9.6,-0.2 19.6,-2.5 30,-7.1" /><path
         id="path96"
         style="fill:#f9c095;fill-opacity:1;fill-rule:nonzero;stroke:none"
         d="m 15155.2,13980.6 c 0,0 -285.5,-170.3 -353.8,-198.1 -68.3,-27.7 -291.3,-23.8 -324.8,-33.8 -33.5,-10 -354.9,-265.7 -377.6,-264.1 -22.8,1.5 -68.5,139.6 -81.5,142.7 -12.9,3 -146.7,-4.7 -159,-10.2 -12.3,-5.6 -40.3,-6.1 -40.3,-6.1 0,0 -53.3,-19.3 -82.5,-12.4 -29.1,6.9 -77.4,3.4 -96.2,4.3 -18.9,0.9 -218.1,-32.7 -251.1,-12.7 -33,20 -122,429 -114.8,497.5 7.2,68.6 296.6,504.4 362.3,549.3 65.7,44.8 280.1,82 280.1,82 0,0 5.3,180.8 136.7,270.5 131.5,89.7 386.2,108 446.9,-30.3 60.8,-138.3 -119.6,-235.4 -168.3,-260.2 -48.8,-24.8 -110.7,-61.6 -114.5,-69.7 -3.8,-8.1 161,-73.3 246,-90.5 85.1,-17.2 279.9,99.6 371.2,90.8 91.3,-8.8 203.9,-109.3 231.5,-160.2 27.6,-50.8 89.7,-488.8 89.7,-488.8" /><path
         id="path98"
         style="fill:#dc9468;fill-opacity:1;fill-rule:nonzero;stroke:none"
         d="m 13350.9,14039.4 c -15,-89.6 -16.7,-210.2 -15,-301.9 -33.6,130.8 -116.6,439.8 -112.1,482.7 7.2,68.6 267.2,365.7 332.9,410.6 65.8,44.9 359.3,88.2 359.3,88.2 0,0 -188.8,-90.8 -272.2,-159.6 -83.4,-68.7 -265.3,-354.7 -292.9,-520" /><path
         id="path100"
         style="fill:#f9c095;fill-opacity:1;fill-rule:nonzero;stroke:none"
         d="m 10984.2,15372 c 0,0 -185.7,-61.9 -266.6,-409.4 -81,-347.6 155.3,-734.3 155.3,-734.3 0,0 -132,-341.7 -172.2,-679.7 -40.3,-338.1 -2.6,-780.8 0,-1061.7 2.6,-280.9 -140.3,-766.5 -164.1,-1252.1 -23.8,-485.7 85.7,-1095 133.4,-1318.8 47.6,-223.8 88.7,-347.6 88.7,-347.6 l 463.5,238.1 c 0,0 95.2,847.4 214.3,1390.2 119,542.7 109.5,928.4 147.5,1104.5 38.1,176.2 171.4,342.8 219,723.7 47.7,380.8 109.5,576.6 109.5,576.6 0,0 357.1,70.8 476.1,389.8 119.1,319 133.3,614.2 133.3,614.2 0,0 126.6,276.1 76.2,618.9 -50.4,342.8 -766.5,590.4 -1613.9,147.6" /><path
         id="path102"
         style="fill:#dc9468;fill-opacity:1;fill-rule:nonzero;stroke:none"
         d="m 12422,14981.6 c 0,0 87,-255 72.6,-594.8 23.1,131.1 27.3,218.7 27.3,218.7 0,0 21,45.6 42.4,122.8 -56,106.7 -142.3,253.3 -142.3,253.3" /><path
         id="path104"
         style="fill:#dc9468;fill-opacity:1;fill-rule:nonzero;stroke:none"
         d="m 10846.1,15010.2 c 0,0 -0.1,-296.2 -108.9,-455.6 50.5,-186.8 135.7,-326.3 135.7,-326.3 0,0 79.7,358.1 62.2,410.5 -17.6,52.4 -89,371.4 -89,371.4" /><path
         id="path106"
         style="fill:#dc9468;fill-opacity:1;fill-rule:nonzero;stroke:none"
         d="m 11465,15441.9 c 315,62.6 363.9,126.3 567.8,159.1 -284.3,34.2 -652.1,-21.8 -1048.6,-229 0,0 -114.4,-38.2 -202.7,-222.6 171.9,98.2 459.3,247.9 683.5,292.5" /><path
         id="path108"
         style="fill:#dc9468;fill-opacity:1;fill-rule:nonzero;stroke:none"
         d="m 11571.6,13891.4 c 0,0 131.5,-265.5 340.9,-289.9 l -30.4,-117 c 0,0 -294.3,106.9 -310.5,406.9" /><path
         id="path110"
         style="fill:#f9c095;fill-opacity:1;fill-rule:nonzero;stroke:none"
         d="m 10750.9,9639.9 c 0,0 -14.3,-250 57.1,-330.9 71.4,-81 399.9,-92.9 509.4,-104.8 109.5,-11.9 107.2,-26.2 152.4,-78.5 45.2,-52.4 123.8,-145.2 214.2,-119 90.5,26.1 14.3,99.9 0,123.7 -14.3,23.8 -57.1,88.1 -57.1,88.1 0,0 47.6,-7.1 142.8,-80.9 95.2,-73.8 333.3,-166.7 383.3,-154.7 50,11.9 61.9,57.1 61.9,57.1 0,0 79.1,-37.5 139.8,-33.9 60.7,3.5 92.8,71.4 92.8,71.4 0,0 62.5,32.1 50,64.2 -12.5,32.2 -319.5,276.8 -344.5,294.6 -25,17.9 -83.9,25 -155.4,62.5 -71.4,37.5 -371.3,160.7 -490.9,192.8 -119.6,32.2 -284.5,114.9 -284.5,114.9 0,0 -136.9,40.5 -195.8,13.7 -58.9,-26.8 -275.5,-180.3 -275.5,-180.3" /><path
         id="path112"
         style="fill:#dc9468;fill-opacity:1;fill-rule:nonzero;stroke:none"
         d="m 11885.2,9304.2 c -7,2.3 329.7,-264.2 329.7,-264.2 l 73.5,-25.9 c 0,0 -151.5,206.2 -403.2,290.1" /><path
         id="path114"
         style="fill:#dc9468;fill-opacity:1;fill-rule:nonzero;stroke:none"
         d="m 12086.7,9343.5 360.8,-266 34.7,24.6 z" /><path
         id="path116"
         style="fill:#f9c095;fill-opacity:1;fill-rule:nonzero;stroke:none"
         d="m 12952.8,10475.4 c 7.1,-21.4 -54.8,-240.4 -54.8,-240.4 0,0 27.1,-74.7 17.3,-117.6 -9.8,-42.8 -41.1,-132.1 30.4,-156.2 71.4,-24.1 109.8,-8 146.4,-31.2 36.6,-23.2 111.5,-175.9 222.2,-141.1 110.7,34.8 35.7,158.9 35.7,158.9 l 45.6,16.1 c 0,0 619.5,-241.9 692.7,-249.1 73.2,-7.1 89.2,51.8 89.2,51.8 0,0 44.7,-19.6 110.7,-21.4 66.1,-1.8 96.4,48.2 96.4,48.2 0,0 32.2,23.2 23.3,44.6 -9,21.5 -107.2,67.9 -107.2,67.9 0,0 -1.8,32.1 -21.4,44.6 -19.6,12.5 -201.7,105.3 -274.9,135.7 -73.2,30.3 -217.8,51.8 -280.3,67.8 -62.5,16.1 -494.6,196.4 -499.9,200 -5.4,3.6 -271.4,121.4 -271.4,121.4" /><path
         id="path118"
         style="fill:#dc9468;fill-opacity:1;fill-rule:nonzero;stroke:none"
         d="m 13825.8,10021.9 c 0,0 328.5,-203.5 351.7,-255.3 l 80,-19.2 c 0,0 -228.1,238.8 -431.7,274.5" /><path
         id="path120"
         style="fill:#dc9468;fill-opacity:1;fill-rule:nonzero;stroke:none"
         d="m 13975.8,10030.8 408.8,-237.4 20.3,22 z" /><path
         id="path122"
         style="fill:#dc9468;fill-opacity:1;fill-rule:nonzero;stroke:none"
         d="m 14300.7,9905.9 -239.2,124.9 196,-68.2 c 0,0 45.6,-19.8 43.2,-56.7" /><path
         id="path124"
         style="fill:#f2f2f2;fill-opacity:1;fill-rule:nonzero;stroke:none"
         d="m 4703.85,12881.7 c -182.07,-138.2 -327.82,-261.5 -327.82,-261.5 l 52.37,-180.9 c 0,0 0,0 90.45,-27.4 90.46,-27.5 271.37,-220.2 299.94,-225 6.3,-1 49.76,7.5 117.9,21.1 -150.22,222.9 -209.9,510.2 -232.84,673.7" /><path
         id="path126"
         style="fill:#252323;fill-opacity:1;fill-rule:nonzero;stroke:none"
         d="m 9363.81,14940.7 c 0,0 -253.06,-587.5 -188.79,-944.6 64.27,-357.1 21.43,-514.2 64.27,-785.6 42.85,-271.3 307.08,-535.6 307.08,-535.6 l -869.2,-148.3 c 0,0 -416.24,276.9 -487.66,591.1 -71.41,314.2 -107.12,699.9 0,1014.1 107.13,314.2 446.22,742.9 446.22,742.9 l 728.08,66" /><path
         id="path128"
         style="fill:#3771be;fill-opacity:1;fill-rule:nonzero;stroke:none"
         d="m 9453.54,14874.7 -89.73,66 c 0,0 46.88,40.9 107.58,51.6 60.7,10.7 296.36,0 296.36,0 l 21.43,-117.6 h -335.64" /></g></g></svg>