<?xml version="1.0" encoding="UTF-8" standalone="no"?>
<svg
   xmlns:dc="http://purl.org/dc/elements/1.1/"
   xmlns:cc="http://creativecommons.org/ns#"
   xmlns:rdf="http://www.w3.org/1999/02/22-rdf-syntax-ns#"
   xmlns:svg="http://www.w3.org/2000/svg"
   xmlns="http://www.w3.org/2000/svg"
   viewBox="0 0 2666.6667 2666.6667"
   height="2666.6667"
   width="2666.6667"
   xml:space="preserve"
   id="svg2"
   version="1.1"><metadata
     id="metadata8"><rdf:RDF><cc:Work
         rdf:about=""><dc:format>image/svg+xml</dc:format><dc:type
           rdf:resource="http://purl.org/dc/dcmitype/StillImage" /></cc:Work></rdf:RDF></metadata><defs
     id="defs6" /><g
     transform="matrix(1.3333333,0,0,-1.3333333,0,2666.6667)"
     id="g10"><g
       transform="scale(0.1)"
       id="g12"><g
         transform="scale(1.22699)"
         id="g14"><path
           id="path16"
           style="fill:none;fill-opacity:1;fill-rule:nonzero;stroke:none"
           d="M 16300,0 H 0 V 16300 H 16300 V 0" /></g><path
         id="path18"
         style="fill:#5b5f5f;fill-opacity:1;fill-rule:nonzero;stroke:none"
         d="m 7244.27,14754.4 h -356.55 l -81.89,-148.6 12.17,-209.9 c -50.89,-121.6 -80.53,-266.3 -80.53,-421.7 0,-205.4 51.59,-392.1 135.81,-531.4 l 14.44,-248.9 h 356.55 c 279.91,0 506.81,349.3 506.81,780.3 0,430.9 -226.9,780.2 -506.81,780.2" /><path
         id="path20"
         style="fill:#8d8d8d;fill-opacity:1;fill-rule:nonzero;stroke:none"
         d="m 7394.53,13974.2 c 0,-431 -226.91,-780.3 -506.81,-780.3 -279.9,0 -506.81,349.3 -506.81,780.3 0,430.9 226.91,780.2 506.81,780.2 279.9,0 506.81,-349.3 506.81,-780.2" /><path
         id="path22"
         style="fill:#d0d0cb;fill-opacity:1;fill-rule:nonzero;stroke:none"
         d="m 7061.63,13974.2 c 0,-93.6 -53.22,-169.4 -118.86,-169.4 -65.64,0 -118.86,75.8 -118.86,169.4 0,93.5 53.22,169.3 118.86,169.3 65.64,0 118.86,-75.8 118.86,-169.3" /><path
         id="path24"
         style="fill:#d0d0cb;fill-opacity:1;fill-rule:nonzero;stroke:none"
         d="m 6490.76,10092 -1005.64,-19 22.25,276.2 957.29,24.3 26.1,-281.5" /><path
         id="path26"
         style="fill:#d0d0cb;fill-opacity:1;fill-rule:nonzero;stroke:none"
         d="m 5868.27,14121.3 1074.5,22.2 v -338.7 l -1074.5,-22.2 v 338.7" /><path
         id="path28"
         style="fill:#5b5f5f;fill-opacity:1;fill-rule:nonzero;stroke:none"
         d="m 6787.2,10899.9 h -296.43 l -68.09,-123.5 10.12,-174.5 c -42.31,-101.2 -66.96,-221.5 -66.96,-350.7 0,-170.7 42.9,-325.9 112.92,-441.7 l 12.01,-207 h 296.43 c 232.71,0 421.35,290.5 421.35,648.7 0,358.3 -188.64,648.7 -421.35,648.7" /><path
         id="path30"
         style="fill:#8d8d8d;fill-opacity:1;fill-rule:nonzero;stroke:none"
         d="m 6912.12,10251.2 c 0,-358.2 -188.65,-648.7 -421.36,-648.7 -232.7,0 -421.35,290.5 -421.35,648.7 0,358.3 188.65,648.7 421.35,648.7 232.71,0 421.36,-290.4 421.36,-648.7" /><path
         id="path32"
         style="fill:#d0d0cb;fill-opacity:1;fill-rule:nonzero;stroke:none"
         d="m 6563.48,10232.7 c 0,-77.7 -44.25,-140.7 -98.82,-140.7 -54.58,0 -98.82,63 -98.82,140.7 0,77.8 44.24,140.8 98.82,140.8 54.57,0 98.82,-63 98.82,-140.8" /><path
         id="path34"
         style="fill:#b8633d;fill-opacity:1;fill-rule:nonzero;stroke:none"
         d="m 6039.55,10770.5 c 0,0 469.5,-405.7 469.5,-471.7 0,-66.1 -106.6,-395.2 -175.15,-411.3 -68.54,-16.1 -134.18,-28.9 -133.36,-30.4 0.81,-1.6 -229.54,-22 -229.54,-22 l -114.98,293.8 -124.93,411.8 c 0,0 66.53,322.6 102.82,322.6 36.29,0 205.64,-92.8 205.64,-92.8" /><path
         id="path36"
         style="fill:#b8633d;fill-opacity:1;fill-rule:nonzero;stroke:none"
         d="m 5346.01,14060.8 c 0,0 116.93,-398.8 211.69,-788.1 94.76,-389.3 94.76,-655.4 94.76,-655.4 0,0 241.93,-266.1 306.45,-782.2 64.51,-516.2 80.64,-1064.6 80.64,-1064.6 l -314.52,-72.5 c 0,0 -137.09,241.9 -338.7,556.4 -201.61,314.5 -467.74,951.6 -467.74,951.6 0,0 -649.19,1141.1 -572.58,1346.8 76.62,205.6 1000,508 1000,508" /><path
         id="path38"
         style="fill:#5b5f5f;fill-opacity:1;fill-rule:nonzero;stroke:none"
         d="m 5731.09,10777.6 h -296.43 l -68.09,-123.5 10.12,-174.5 c -42.3,-101.2 -66.95,-221.5 -66.95,-350.7 0,-170.7 42.9,-325.9 112.92,-441.7 l 12,-207 h 296.43 c 232.71,0 421.36,290.5 421.36,648.7 0,358.3 -188.65,648.7 -421.36,648.7" /><path
         id="path40"
         style="fill:#8d8d8d;fill-opacity:1;fill-rule:nonzero;stroke:none"
         d="m 5856.02,10128.9 c 0,-358.2 -188.65,-648.7 -421.36,-648.7 -232.71,0 -421.35,290.5 -421.35,648.7 0,358.3 188.64,648.7 421.35,648.7 232.71,0 421.36,-290.4 421.36,-648.7" /><path
         id="path42"
         style="fill:#d0d0cb;fill-opacity:1;fill-rule:nonzero;stroke:none"
         d="m 5507.37,10110.4 c 0,-77.7 -44.24,-140.7 -98.82,-140.7 -54.57,0 -98.81,63 -98.81,140.7 0,77.8 44.24,140.8 98.81,140.8 54.58,0 98.82,-63 98.82,-140.8" /><path
         id="path44"
         style="fill:#c37140;fill-opacity:1;fill-rule:nonzero;stroke:none"
         d="m 3168.6,8415.7 c 0,0 177.42,-1056.4 169.35,-1080.6 -8.06,-24.2 -612.9,-483.9 -685.47,-871 -72.58,-387.1 -8.07,-1274.2 0,-1540.3 8.06,-266.1 8.06,-266.1 8.06,-266.1 l 467.74,-40.3 c 0,0 596.77,1935.4 685.48,2088.7 88.71,153.2 266.13,306.4 330.64,540.3 64.52,233.8 64.52,233.8 64.52,233.8 0,0 274.19,572.6 217.74,935.5 -56.45,362.9 -1258.06,0 -1258.06,0" /><path
         id="path46"
         style="fill:#c37140;fill-opacity:1;fill-rule:nonzero;stroke:none"
         d="m 4732.67,8294.8 c 0,0 468.17,-653.3 484.3,-758.1 16.14,-104.8 -346.76,-500 -298.38,-1024.2 48.39,-524.2 186.53,-725.8 298.91,-1024.2 112.38,-298.4 96.25,-435.5 96.25,-435.5 l 451.61,32.3 c 0,0 161.29,741.9 225.8,1145.2 64.52,403.2 0,846.7 0,846.7 0,0 120.97,322.6 104.84,629 -16.13,306.5 -24.19,314.6 -32.25,346.8 -8.07,32.3 72.57,556.5 -48.39,927.4 -120.97,371 -1282.69,-685.4 -1282.69,-685.4" /><path
         id="path48"
         style="fill:#252323;fill-opacity:1;fill-rule:nonzero;stroke:none"
         d="m 3174.65,11058.9 c 0,0 -143.15,-369 -135.08,-885.1 8.07,-516.2 -0.65,-1282.3 -0.33,-1516.1 0.33,-233.9 -0.01,-354.9 -0.01,-354.9 0,0 242.27,-104.8 718.07,-104.8 475.81,0 741.94,88.7 741.94,88.7 v 306.4 l 120.97,-314.5 c 0,0 588.7,56.5 983.86,266.2 395.16,209.6 548.38,379 548.38,379 0,0 -249.99,782.2 -516.12,1258 -266.13,475.8 -423.39,883.1 -423.39,883.1 l -1391.12,407.3 -647.17,-413.3" /><path
         id="path50"
         style="fill:#a45634;fill-opacity:1;fill-rule:nonzero;stroke:none"
         d="m 5067.78,13460.1 c 76.61,20.1 205.65,-246 262.1,-479.9 0,0 24.19,342.7 -217.74,667.3 -241.93,324.6 -44.36,-187.4 -44.36,-187.4" /><path
         id="path52"
         style="fill:#a45634;fill-opacity:1;fill-rule:nonzero;stroke:none"
         d="m 5330.55,12165.7 c 0,0 168.68,-241.9 160.62,-483.9 0,0 178.76,330.7 -160.62,483.9" /><path
         id="path54"
         style="fill:#e9eef1;fill-opacity:1;fill-rule:nonzero;stroke:none"
         d="m 2504.96,13509.5 c 0,0 101.14,-521.2 252.35,-859.9 151.21,-338.7 429.44,-592.8 489.92,-834.7 60.49,-241.9 -96.77,-750 -72.58,-756 6.53,-1.7 33.11,1.1 77.11,3.9 118.8,7.5 364.61,15 686.04,-64.4 440.47,-108.9 803.37,-54.5 1002.97,0 199.59,54.4 272.17,66.5 272.17,66.5 0,0 -28.22,302.4 -28.22,504 0,201.6 -68.55,306.5 -88.71,455.7 -20.17,149.2 -28.23,362.9 -36.29,524.2 -8.06,161.2 -32.26,495.9 -32.26,495.9 0,0 96.77,165.4 116.93,435.5 20.16,270.2 -76.61,596.8 -76.61,596.8 l -497.3,580.1 -355.51,12.6 -1352.82,-995.9 -357.19,-164.3" /><path
         id="path56"
         style="fill:#c37140;fill-opacity:1;fill-rule:nonzero;stroke:none"
         d="m 3559.02,15614.6 c 0,0 -23.48,-384.4 -67.84,-489.2 -44.36,-104.9 -245.96,-250 -314.52,-346.8 -68.54,-96.8 -96.77,-133.1 -96.77,-133.1 0,0 376.33,-223.8 613.57,-495.9 237.23,-272.2 338.04,-536.3 652.55,-596.8 314.52,-60.5 335.57,105.5 329.53,341.4 -6.05,235.9 -327.51,684.8 -327.51,684.8 l 1.41,409.8 c 0,0 -334.07,805.1 -485.28,817.6 -151.2,12.5 -271.18,-39.9 -271.18,-39.9 l -103.81,-26.2 69.85,-125.7" /><path
         id="path58"
         style="fill:#b05d37;fill-opacity:1;fill-rule:nonzero;stroke:none"
         d="m 4577.48,14197.9 h -928.11 c 15.11,-15.9 29.86,-32 44.08,-48.3 237.24,-272.2 338.04,-536.3 652.56,-596.8 314.52,-60.5 335.58,105.5 329.53,341.4 -2.16,84.2 -44.52,195.4 -98.06,303.7" /><path
         id="path60"
         style="fill:#b36239;fill-opacity:1;fill-rule:nonzero;stroke:none"
         d="m 4124.45,14540.6 c -14.77,0 -32.71,0.8 -53.69,1.6 -20.97,0.8 -45.01,1.6 -71.95,1.6 -12.35,0 -25.32,-0.1 -38.89,-0.6 l -266.46,630.5 c 355.5,-532.2 461.02,-631 461.02,-631 v 0 c -7.81,-1.6 -17.84,-2.1 -30.03,-2.1" /><path
         id="path62"
         style="fill:#c37140;fill-opacity:1;fill-rule:nonzero;stroke:none"
         d="m 3079.89,14645.5 -290.32,-133.1 c 0,0 -298.38,-88.6 -354.83,-403.2 -56.45,-314.5 80.64,-596.7 161.29,-903.2 80.64,-306.4 667.98,-540.3 846.08,193.6 0,0 278.91,8 488.58,145.1 209.68,137.1 310.49,213.7 310.49,213.7 0,0 104.83,-32.2 181.45,0 0,0 548.38,-110.9 1032.25,106.9 483.86,217.7 296.37,592.7 296.37,592.7 0,0 -169.36,72 -508.07,160 -338.7,88 -520.15,94.1 -707.65,27.5 -187.5,-66.5 -320.56,-90.7 -381.05,-102.8 -17.28,-3.5 -45.42,-2 -83.72,-0.5 -95.75,3.7 -254.98,7.4 -466.68,-66 0,0 -310.48,217.7 -524.19,169.3" /><path
         id="path64"
         style="fill:#a45634;fill-opacity:1;fill-rule:nonzero;stroke:none"
         d="m 2678.69,13647.5 c 0,0 284.27,-84.6 338.7,-114.9 54.44,-30.2 250.65,-114.9 424.72,-133 l -38.1,-126.9 c 0,0 -312.71,177 -343.61,155 -30.91,-22.1 -297.04,0 -297.04,0 l 139.12,68.6 -223.79,151.2" /><path
         id="path66"
         style="fill:#a45634;fill-opacity:1;fill-rule:nonzero;stroke:none"
         d="m 3325.86,13720.1 c -15.76,-10.8 429.43,102.8 889.11,121 0,0 -452.93,179.3 -889.11,-121" /><path
         id="path68"
         style="fill:#b36239;fill-opacity:1;fill-rule:nonzero;stroke:none"
         d="m 5163.98,14201.8 c -183.99,0 -402.44,47.2 -586.12,219.9 0,0 193.94,-112.2 558.82,-112.2 121.63,0 262.25,12.4 421.02,45.7 v -84.7 c 0,0 -171.78,-68.7 -393.72,-68.7" /><path
         id="path70"
         style="fill:#e28659;fill-opacity:1;fill-rule:nonzero;stroke:none"
         d="m 3537.55,14421.7 -95.44,-109.9 c 0,0 202.3,141 375.68,164.8 173.39,23.8 338.71,0 338.71,0 0,0 400.73,152.6 673.52,213.2 -109.94,3.8 -201.5,-11.3 -294.49,-44.3 -187.5,-66.5 -320.56,-90.7 -381.05,-102.8 -60.48,-12.1 -254.03,36.3 -550.39,-66.5 0,0 -180.67,126.6 -361.23,165.2 l 294.69,-219.7" /><path
         id="path72"
         style="fill:#c37140;fill-opacity:1;fill-rule:nonzero;stroke:none"
         d="m 6661.52,14343.1 c 0,0 104.02,-5.2 162.39,-31.3 58.38,-26.2 91.64,-407.2 76.52,-464.7 -15.12,-57.4 -42.34,-78.6 -42.34,-78.6 0,0 -10.16,-127 -34.18,-148.2 -24.02,-21.2 -192.63,9.1 -195.65,18.2 -3.03,9 -75.61,48.4 -60.49,244.9 15.12,196.6 93.75,459.7 93.75,459.7" /><path
         id="path74"
         style="fill:#100f0d;fill-opacity:1;fill-rule:nonzero;stroke:none"
         d="m 4781.49,10173.8 c 0,0 -258.06,-266.2 -274.19,-338.7 -16.13,-72.6 -8.06,-1242 -8.06,-1242 l 120.97,-314.5 233.65,33.5 -178.32,1482.6 105.95,379.1" /><path
         id="path76"
         style="fill:#a45634;fill-opacity:1;fill-rule:nonzero;stroke:none"
         d="m 3612.15,7375.4 c 0,0 -36.32,-242.4 137.09,-379 0,0 -362.9,8 -137.09,379" /><path
         id="path78"
         style="fill:#a45634;fill-opacity:1;fill-rule:nonzero;stroke:none"
         d="m 5587.94,7698 c 0,0 -8.06,-306.5 112.9,-475.8 0,0 -282.26,96.8 -112.9,475.8" /><path
         id="path80"
         style="fill:#a45634;fill-opacity:1;fill-rule:nonzero;stroke:none"
         d="m 5533.83,6875.4 c 0,0 119.67,-580.6 -118.75,-1225.8 0,0 435.6,564.5 118.75,1225.8" /><path
         id="path82"
         style="fill:#a45634;fill-opacity:1;fill-rule:nonzero;stroke:none"
         d="m 3281.5,6536.7 c 0,0 -16.12,-564.5 -435.48,-1121 0,0 556.45,298.4 435.48,1121" /><path
         id="path84"
         style="fill:#252323;fill-opacity:1;fill-rule:nonzero;stroke:none"
         d="m 5317.4,4899.9 c 0,0 -151.79,-586.2 -54.17,-673.9 97.62,-87.6 441.23,-41.5 589.64,-121.5 148.4,-80 825.78,-194 1070.2,36.3 244.42,230.3 -670.74,672.5 -726.08,738.1 -55.34,65.6 -111.69,193.7 -154.44,255.5 -42.74,61.8 -301.38,95.9 -301.38,95.9 0,0 14.29,122.5 -72.53,52.5 -86.83,-70 -351.24,-382.9 -351.24,-382.9" /><path
         id="path86"
         style="fill:#252323;fill-opacity:1;fill-rule:nonzero;stroke:none"
         d="m 2662.44,4407.1 -57.31,-136.5 c 0,0 -35.29,-713 -10.14,-793.6 25.14,-80.6 274.22,-354.6 506.32,-430 232.1,-75.3 673.21,56.1 692.14,188.8 18.94,132.7 -438.38,797.3 -490.22,925.8 -51.85,128.6 -24.15,418.4 -82.59,461.5 -58.44,43.1 -132.7,18.9 -132.7,18.9 l -442.88,95.5 17.38,-330.4" /><path
         id="path88"
         style="fill:#f5f6f5;fill-opacity:1;fill-rule:nonzero;stroke:none"
         d="m 5298.87,5211.5 18.53,-311.6 c 0,0 155.62,-40.6 252.39,-40.6 96.78,0 96.78,0 96.78,0 l 98.79,225.8 27.1,126.4 24.89,118 -539.67,-26.7 21.19,-91.3" /><path
         id="path90"
         style="fill:#f5f6f5;fill-opacity:1;fill-rule:nonzero;stroke:none"
         d="m 3087.94,4642 c 0,0 -82.64,-42.8 -118.94,-97.2 -36.29,-54.5 -54.43,-290.3 -54.43,-290.3 0,0 -235.88,-42.4 -235.88,0 0,42.3 -23.35,574.8 -23.35,574.8 l 534.65,-12.9 -50.25,-161.9 -51.8,-12.5" /><path
         id="path92"
         style="fill:#c7cdd0;fill-opacity:1;fill-rule:nonzero;stroke:none"
         d="m 3569.51,13413.7 c 0,0 302.22,-193.9 584.97,-219.8 282.75,-25.9 393.15,0 393.15,0 0,0 -228.13,-121 -489.07,-78.6 -260.93,42.3 -654.55,157.4 -654.55,157.4 l 38.1,126.9 127.4,14.1" /><path
         id="path94"
         style="fill:#c7cdd0;fill-opacity:1;fill-rule:nonzero;stroke:none"
         d="m 4789.56,13193.9 c 0,0 217.74,-43.7 278.22,-61.2 l -40.32,-88 -237.9,149.2" /><path
         id="path96"
         style="fill:#5b5f5f;fill-opacity:1;fill-rule:nonzero;stroke:none"
         d="m 6256.23,14754.4 h -356.55 l -81.9,-148.6 12.17,-209.9 c -50.88,-121.6 -80.53,-266.3 -80.53,-421.7 0,-205.4 51.6,-392.1 135.81,-531.4 l 14.45,-248.9 h 356.55 c 279.9,0 506.81,349.3 506.81,780.3 0,430.9 -226.91,780.2 -506.81,780.2" /><path
         id="path98"
         style="fill:#8d8d8d;fill-opacity:1;fill-rule:nonzero;stroke:none"
         d="m 6406.48,13974.2 c 0,-431 -226.9,-780.3 -506.81,-780.3 -279.9,0 -506.8,349.3 -506.8,780.3 0,430.9 226.9,780.2 506.8,780.2 279.91,0 506.81,-349.3 506.81,-780.2" /><path
         id="path100"
         style="fill:#d0d0cb;fill-opacity:1;fill-rule:nonzero;stroke:none"
         d="m 5987.13,13951.9 c 0,-93.5 -53.21,-169.3 -118.86,-169.3 -65.64,0 -118.85,75.8 -118.85,169.3 0,93.5 53.21,169.4 118.85,169.4 65.65,0 118.86,-75.9 118.86,-169.4" /><path
         id="path102"
         style="fill:#a45634;fill-opacity:1;fill-rule:nonzero;stroke:none"
         d="m 3697.65,15549.1 c 0,0 216.38,-100.1 125.76,-120.2 -77.62,-17.2 -48.88,-47.2 -48.88,-47.2 0,0 89.49,-219.5 329.36,-331.4 153.95,-71.8 245.55,-61.5 245.55,-61.5 0,0 4.51,443.6 57.56,546.1 53.05,102.5 -425.67,-76.1 -461.6,-26.8 -35.93,49.2 -247.75,41 -247.75,41" /><g
         transform="scale(1.04265)"
         id="g104"><path
           id="path106"
           style="fill:#2f1d16;fill-opacity:1;fill-rule:nonzero;stroke:none"
           d="m 4445.99,16043.9 c -13.27,27.4 5.25,76 -40.07,119.5 -45.32,43.4 -100.27,55.4 -100.27,55.4 0,0 -46.34,48 -103.94,55.4 -57.6,7.4 -108.36,1.1 -108.36,1.1 0,0 -44.09,23.4 -118.38,24 -74.3,0.7 -139.61,-37 -168.88,-41.1 -29.27,-4 -88.01,-5.9 -121.81,-13.2 -33.81,-7.3 -99.32,-38.9 -109.89,-47 -10.57,-8 -68.85,-4.7 -134.55,-33.6 -65.69,-28.9 -106.8,-110.4 -106.8,-110.4 0,0 -45.5,-27.8 -62.26,-36.1 l -0.54,-0.3 c -0.99,-0.6 -3.37,-2.2 -6.85,-4.9 -11.26,-9.6 -27.64,-29.2 -44.98,-51.3 -33.6,-51.3 -71.69,-143.9 -75.87,-303.4 -7.64,-291 42.21,-607.5 258.31,-820.5 l 168.13,362.2 897.71,574.6 c 0,0 11.37,45.6 4.36,70.8 -7.02,25.2 15.34,67.2 12.58,116.4 -2.78,49.3 -24.37,55 -37.64,82.4" /></g><g
         transform="scale(1.01433)"
         id="g108"><path
           id="path110"
           style="fill:#c37140;fill-opacity:1;fill-rule:nonzero;stroke:none"
           d="m 4528.31,16300 c 0,0 51.07,-61.1 63.07,-85.3 11.99,-24.3 29.47,-247.9 35.46,-304.5 6.01,-56.5 -5.46,-133.9 -4.33,-161.4 1.14,-27.4 11.74,-195.5 7.14,-261.6 -4.6,-66.2 -67.17,-325.2 -88.15,-393.8 -20.99,-68.7 -52.04,-159.7 -84.2,-179.4 -32.17,-19.6 -176.33,-32.9 -305.92,0.2 -129.6,33.1 -387.15,192.9 -458.52,279.7 -71.36,86.8 -69.92,273.7 -69.92,273.7 0,0 -52.43,-16.8 -109.55,35.8 -57.13,52.6 -149.82,167.8 -136.96,300.3 12.85,132.4 115.39,89 168.79,38.1 53.39,-51 58.55,-131.4 69.59,-132.7 11.04,-1.4 21.87,2.7 27.28,4.8 5.41,2 25.42,138.4 26.12,165.9 0.69,27.5 -11.58,191.9 -8.15,197.5 3.43,5.6 132.88,175.8 176.08,194.1 43.22,18.3 692.17,28.6 692.17,28.6" /></g><g
         transform="scale(1.02304)"
         id="g112"><path
           id="path114"
           style="fill:#2f1d16;fill-opacity:1;fill-rule:nonzero;stroke:none"
           d="m 3611.09,15580.1 c 0,0 29.05,95.6 43.11,148.1 14.05,52.5 -2.39,121.4 11.42,132.9 13.82,11.5 39.58,43.8 35.14,83.1 -4.44,39.3 -4.44,39.3 -4.44,39.3 0,0 -2.7,34.6 50.25,55.3 52.95,20.6 74.46,86 74.46,86 0,0 135.54,2.8 187.47,6.1 51.93,3.3 163.8,6.9 225.29,7.4 61.49,0.4 244.39,1.6 250.75,0.3 6.36,-1.4 67.76,-61.9 67.76,-61.9 0,0 -3.24,114.4 -17.52,117.1 -14.29,2.7 -3.12,47.2 -198.79,50.3 -195.66,3.1 -317.23,55.9 -474.19,-15.5 -156.95,-71.3 -181.67,-39 -239.02,-118.2 -57.34,-79.1 -111.26,-214.9 -93.75,-268 17.51,-53 82.06,-262.3 82.06,-262.3" /></g><g
         transform="scale(1.07904)"
         id="g116"><path
           id="path118"
           style="fill:#5b5f5f;fill-opacity:1;fill-rule:nonzero;stroke:none"
           d="m 15912.3,13569.9 -336.7,8.4 -8.6,-131.3 4.9,-185.8 c -42.4,-106.7 -68.7,-234 -72.2,-371.5 -4.5,-181.6 31.7,-347.8 94.3,-472.6 l -52.8,-219 336.8,-8.4 c 218.4,-5.4 403.1,299.2 412.5,680.3 9.5,381.1 -159.8,694.5 -378.2,699.9" /></g><g
         transform="scale(1.05287)"
         id="g120"><path
           id="path122"
           style="fill:#8d8d8d;fill-opacity:1;fill-rule:nonzero;stroke:none"
           d="m 16290.3,13200 c -9.8,-390.6 -172.2,-703.4 -362.8,-698.7 -190.6,4.8 -337.3,325.3 -327.6,715.9 9.8,390.6 172.2,703.4 362.8,698.6 190.6,-4.7 337.3,-325.2 327.6,-715.8" /></g><g
         transform="scale(1.0347)"
         id="g124"><path
           id="path126"
           style="fill:#d0d0cb;fill-opacity:1;fill-rule:nonzero;stroke:none"
           d="m 16298.8,13438.9 c -1.2,-86.3 -45.5,-155.6 -98.8,-154.9 -53.5,0.8 -95.8,71.3 -94.6,157.6 1.2,86.3 45.5,155.6 98.9,154.9 53.5,-0.8 95.7,-71.3 94.5,-157.6" /></g><g
         transform="scale(1.02863)"
         id="g128"><path
           id="path130"
           style="fill:#d0d0cb;fill-opacity:1;fill-rule:nonzero;stroke:none"
           d="m 15211.8,13643.1 1088.2,33.6 -4.4,-314.2 -1091.6,-33.6 7.8,314.2" /></g><g
         transform="scale(1.02664)"
         id="g132"><path
           id="path134"
           style="fill:#c37140;fill-opacity:1;fill-rule:nonzero;stroke:none"
           d="m 15803.2,13858.9 c 0,0 261.3,-13.7 312.3,-45.1 51.1,-31.5 168.8,-278.9 176.7,-365.8 7.8,-86.9 -66.7,-137 -102.1,-140.9 -35.3,-3.9 -70.7,19.6 -70.7,19.6 0,0 2.5,-32.9 -71.4,-39.2 -73.9,-6.4 -140.6,-19.7 -164.2,0 -23.6,19.6 -90.3,117.3 -106.1,280.5 -15.7,163.3 25.5,290.9 25.5,290.9" /></g><path
         id="path136"
         style="fill:#c37140;fill-opacity:1;fill-rule:nonzero;stroke:none"
         d="m 12752.6,14433.8 104.4,22.2 c 0,0 167.8,-16.1 312.9,-70.6 0,0 411.3,-36.2 629,-72.5 113.4,-18.9 238.1,7.5 360.7,33.9 113,24.4 224.2,48.8 322.8,37.6 0,0 272.2,134.1 483.9,109.9 211.7,-24.2 907.2,-187.8 907.2,-187.8 0,0 -120.9,-646.9 -133,-628.7 -12.1,18.1 -756.1,-60.5 -1119,-66.5 0,0 -260.1,-138 -707.6,-196 -447.6,-58.1 -768.2,0 -768.2,0 l -495.8,486.3 102.7,532.2" /><path
         id="path138"
         style="fill:#b36239;fill-opacity:1;fill-rule:nonzero;stroke:none"
         d="m 13731.9,13806.3 c -108.6,0 -236.5,9 -371.3,36.9 -8.6,48.5 -16.9,91 -23.3,121.3 135.9,-47.8 410.5,-129.6 699.8,-129.6 7.3,0 14.6,0 21.9,0.1 0,0 -132.7,-28.7 -327.1,-28.7" /><path
         id="path140"
         style="fill:#b36239;fill-opacity:1;fill-rule:nonzero;stroke:none"
         d="m 14875.6,14101.2 c -254.1,60.5 -308.5,223.8 -393.2,283.2 l 74.6,32.4 c 74.5,-144.1 318.6,-315.6 318.6,-315.6" /><path
         id="path142"
         style="fill:#c37140;fill-opacity:1;fill-rule:nonzero;stroke:none"
         d="m 11429.8,8415.7 c 0,0 177.4,-1056.4 169.4,-1080.6 -8.1,-24.2 -612.9,-483.9 -685.5,-871 -72.6,-387.1 -8.1,-1274.2 0,-1540.3 8,-266.1 8,-266.1 8,-266.1 l 467.8,-40.3 c 0,0 596.8,1935.4 685.5,2088.7 88.7,153.2 266.1,306.4 330.6,540.3 64.5,233.8 64.5,233.8 64.5,233.8 0,0 274.2,572.6 217.8,935.5 -56.5,362.9 -1258.1,0 -1258.1,0" /><path
         id="path144"
         style="fill:#c37140;fill-opacity:1;fill-rule:nonzero;stroke:none"
         d="m 12993.9,8294.8 c 0,0 468.2,-653.3 484.3,-758.1 16.1,-104.8 -346.8,-500 -298.4,-1024.2 48.4,-524.2 186.5,-725.8 298.9,-1024.2 112.4,-298.4 96.3,-435.5 96.3,-435.5 l 451.6,32.3 c 0,0 161.3,741.9 225.8,1145.2 64.5,403.2 0,846.7 0,846.7 0,0 120.9,322.6 104.8,629 -16.1,306.5 -24.2,314.6 -32.3,346.8 -8,32.3 72.6,556.5 -48.3,927.4 -121,371 -1282.7,-685.4 -1282.7,-685.4" /><path
         id="path146"
         style="fill:#a45634;fill-opacity:1;fill-rule:nonzero;stroke:none"
         d="m 11873.3,7375.4 c 0,0 -36.3,-242.4 137.1,-379 0,0 -362.9,8 -137.1,379" /><path
         id="path148"
         style="fill:#a45634;fill-opacity:1;fill-rule:nonzero;stroke:none"
         d="m 13849.1,7698 c 0,0 -8,-306.5 112.9,-475.8 0,0 -282.2,96.8 -112.9,475.8" /><path
         id="path150"
         style="fill:#a45634;fill-opacity:1;fill-rule:nonzero;stroke:none"
         d="m 13795,6875.4 c 0,0 119.7,-580.6 -118.7,-1225.8 0,0 435.6,564.5 118.7,1225.8" /><path
         id="path152"
         style="fill:#a45634;fill-opacity:1;fill-rule:nonzero;stroke:none"
         d="m 11542.7,6536.7 c 0,0 -16.1,-564.5 -435.5,-1121 0,0 556.5,298.4 435.5,1121" /><path
         id="path154"
         style="fill:#252323;fill-opacity:1;fill-rule:nonzero;stroke:none"
         d="m 11435.8,11058.9 c 0,0 -143.1,-369 -135,-885.1 8,-516.2 -0.7,-1282.3 -0.4,-1516.1 0.4,-233.9 0,-354.9 0,-354.9 0,0 242.3,-104.8 718.1,-104.8 475.8,0 741.9,88.7 741.9,88.7 v 306.4 l 121,-314.5 c 0,0 588.7,56.5 983.9,266.2 395.1,209.6 548.4,379 548.4,379 0,0 -250,782.2 -516.2,1258 -266.1,475.8 -423.4,883.1 -423.4,883.1 l -1391.1,407.3 -647.2,-413.3" /><path
         id="path156"
         style="fill:#e9eef1;fill-opacity:1;fill-rule:nonzero;stroke:none"
         d="m 11373.6,14784.6 -191.6,-135 c 0,0 314.5,-330.7 403.3,-1080.7 88.7,-750 -403.3,-967.7 -403.3,-967.7 l -153.2,-354.9 c 0,0 183.4,-411.2 253,-564.5 69.6,-153.2 154,-622.9 154,-622.9 0,0 383.3,2 609.1,-38.4 225.8,-40.3 744.7,-80.6 949,-56.4 204.2,24.2 480.2,100.8 480.2,100.8 0,0 -74.3,197.6 -74.3,326.6 0,129 -104.9,443.6 -121,604.8 -16.1,161.3 -32.3,911.3 -32.3,959.7 0,48.4 153.3,326.3 161.3,457.5 8.1,131.2 -48.4,449.8 -72.6,560.7 -24.2,110.8 -391.8,304.4 -478.2,481.8 l -416.9,387.1 -1066.5,-58.5" /><path
         id="path158"
         style="fill:#c37140;fill-opacity:1;fill-rule:nonzero;stroke:none"
         d="m 11818.8,15590.2 c 0,0 -22.1,-360 -66.4,-464.8 -44.4,-104.9 -120.5,-149.3 -206.2,-231.3 -72.8,-69.7 -172.6,-109.5 -172.6,-109.5 0,0 232.5,-368.9 469.7,-641.1 237.3,-272.2 256.7,-537 822.6,-558.5 231.8,-8.8 324.6,171.4 219.7,479.9 -75.9,223.4 -276.4,514.1 -276.4,514.1 l 5.2,409.8 c 0,0 -337.8,805.1 -489,817.6 -151.2,12.5 -271.2,-39.9 -271.2,-39.9 l -103.8,-26.2 68.4,-150.1" /><g
         transform="scale(1.00822)"
         id="g160"><path
           id="path162"
           style="fill:#5b5f5f;fill-opacity:1;fill-rule:nonzero;stroke:none"
           d="m 15885,14488.7 -360.4,9 -9.2,-140.5 5.3,-198.9 c -45.4,-114.1 -73.6,-250.5 -77.3,-397.6 -4.7,-194.4 34,-372.1 100.9,-505.8 l -56.5,-234.3 360.5,-9 c 233.7,-5.8 431.4,320.1 441.6,728 10.1,407.9 -171.1,743.3 -404.9,749.1" /></g><path
         id="path164"
         style="fill:#8d8d8d;fill-opacity:1;fill-rule:nonzero;stroke:none"
         d="m 15997.1,13863.2 c -10.2,-411.2 -181.3,-740.6 -382,-735.6 -200.7,5 -355.1,342.5 -344.8,753.7 10.2,411.2 181.2,740.6 381.9,735.6 200.7,-5 355.1,-342.5 344.9,-753.7" /><path
         id="path166"
         style="fill:#d0d0cb;fill-opacity:1;fill-rule:nonzero;stroke:none"
         d="m 15743.3,13869.5 c -2.2,-89.2 -48.8,-160.4 -104.1,-159.1 -55.3,1.4 -98.3,74.9 -96,164.1 2.2,89.3 48.8,160.5 104,159.1 55.3,-1.4 98.3,-74.8 96.1,-164.1" /><path
         id="path168"
         style="fill:#5b5f5f;fill-opacity:1;fill-rule:nonzero;stroke:none"
         d="m 11281.8,10512.5 h -333.1 l -5.2,-145.7 9.4,-205.9 c -39.3,-119.3 -62.2,-261.2 -62.2,-413.6 0,-201.4 39.9,-384.5 104.8,-521.1 l -46.8,-244.1 h 333.1 c 216,0 391.1,342.6 391.1,765.2 0,422.6 -175.1,765.2 -391.1,765.2" /><path
         id="path170"
         style="fill:#8d8d8d;fill-opacity:1;fill-rule:nonzero;stroke:none"
         d="m 11281.8,9747.3 c 0,-422.6 -149.1,-765.2 -333.1,-765.2 -184,0 -333.1,342.6 -333.1,765.2 0,422.6 149.1,765.2 333.1,765.2 184,0 333.1,-342.6 333.1,-765.2" /><path
         id="path172"
         style="fill:#d0d0cb;fill-opacity:1;fill-rule:nonzero;stroke:none"
         d="m 11049.2,9747.3 c 0,-91.7 -41.1,-166.1 -91.8,-166.1 -50.6,0 -91.7,74.4 -91.7,166.1 0,91.7 41.1,166 91.7,166 50.7,0 91.8,-74.3 91.8,-166" /><path
         id="path174"
         style="fill:#100f0d;fill-opacity:1;fill-rule:nonzero;stroke:none"
         d="m 13042.7,10173.8 c 0,0 -258.1,-266.2 -274.2,-338.7 -16.1,-72.6 -8.1,-1242 -8.1,-1242 l 121,-314.5 233.7,33.5 -178.4,1482.6 106,379.1" /><path
         id="path176"
         style="fill:#d0d0cb;fill-opacity:1;fill-rule:nonzero;stroke:none"
         d="m 9701.96,9931.7 1255.44,-18.4 V 9581.2 L 9701.96,9593 v 338.7" /><path
         id="path178"
         style="fill:#252323;fill-opacity:1;fill-rule:nonzero;stroke:none"
         d="m 13578.6,4899.9 c 0,0 -151.8,-586.2 -54.2,-673.9 97.7,-87.6 441.3,-41.5 589.7,-121.5 148.4,-80 825.7,-194 1070.2,36.3 244.4,230.3 -670.8,672.5 -726.1,738.1 -55.3,65.6 -111.7,193.7 -154.4,255.5 -42.8,61.8 -301.4,95.9 -301.4,95.9 0,0 14.3,122.5 -72.6,52.5 -86.8,-70 -351.2,-382.9 -351.2,-382.9" /><path
         id="path180"
         style="fill:#252323;fill-opacity:1;fill-rule:nonzero;stroke:none"
         d="m 10923.6,4407.1 -57.3,-136.5 c 0,0 -35.3,-713 -10.1,-793.6 25.1,-80.6 274.2,-354.6 506.3,-430 232.1,-75.3 673.2,56.1 692.2,188.8 18.9,132.7 -438.4,797.3 -490.3,925.8 -51.8,128.6 -24.1,418.4 -82.6,461.5 -58.4,43.1 -132.7,18.9 -132.7,18.9 l -442.8,95.5 17.3,-330.4" /><path
         id="path182"
         style="fill:#f5f6f5;fill-opacity:1;fill-rule:nonzero;stroke:none"
         d="m 13560.1,5211.5 18.5,-311.6 c 0,0 155.6,-40.6 252.4,-40.6 96.8,0 96.8,0 96.8,0 l 98.8,225.8 27.1,126.4 24.9,118 -539.7,-26.7 21.2,-91.3" /><path
         id="path184"
         style="fill:#f5f6f5;fill-opacity:1;fill-rule:nonzero;stroke:none"
         d="m 11349.1,4642 c 0,0 -82.6,-42.8 -118.9,-97.2 -36.3,-54.5 -54.4,-290.3 -54.4,-290.3 0,0 -235.9,-42.4 -235.9,0 0,42.3 -23.4,574.8 -23.4,574.8 l 534.7,-12.9 -50.3,-161.9 -51.8,-12.5" /><path
         id="path186"
         style="fill:#c37140;fill-opacity:1;fill-rule:nonzero;stroke:none"
         d="m 11182,14649.6 -224.6,-112.9 c 0,0 -460.8,-16.2 -606,-427.5 -145.2,-411.3 0,-798.3 0,-798.3 0,0 -133.1,-401.3 -127,-782.3 6,-381 42.3,-641.1 42.3,-641.1 0,0 -151.2,-447.6 -90.7,-871 60.5,-423.4 54.4,-765.3 54.4,-765.3 l 54.5,-994.8 c 0,0 81.4,-26.2 146.5,0 65.2,26.2 85.3,42.4 85.3,42.4 0,0 96.6,-52.4 155.2,-36.3 58.5,16.1 204.2,340.6 193.8,484.8 -10.3,144.2 -199.5,337.8 -193.6,426.5 5.9,88.7 -6.2,370.9 171.2,737.9 177.4,366.9 60.5,887.1 72.6,991.9 12.1,104.8 112.9,342.7 112.9,342.7 l 153.2,354.9 c 0,0 393.6,97.9 413.6,762.6 19.9,664.8 -308.7,1168.8 -413.6,1285.8" /><path
         id="path188"
         style="fill:#a45634;fill-opacity:1;fill-rule:nonzero;stroke:none"
         d="m 11373.6,13720.1 -115,-248 c 0,0 76.7,-516.1 -76.6,-870.9 0,0 162.8,62.5 232.9,171.3 v 481.9 l 164.8,-60.5 c 0,0 -197.6,217.8 -198.8,254 -1.3,36.3 -7.3,272.2 -7.3,272.2" /><path
         id="path190"
         style="fill:#b36239;fill-opacity:1;fill-rule:nonzero;stroke:none"
         d="m 10496.6,11107.2 c -171,442.2 22.9,890.1 30,890.1 0.2,0 0.3,-0.4 0.2,-1 -48.4,-393.1 -30.2,-889.1 -30.2,-889.1" /><path
         id="path192"
         style="fill:#c7cdd0;fill-opacity:1;fill-rule:nonzero;stroke:none"
         d="m 11596.4,13282.6 c 25.1,-8 249,-100.8 570.5,-96.7 321.6,4 499,133 499,133 0,0 -115.1,-197.6 -414.4,-229.8 -299.3,-32.3 -671.8,104.8 -671.8,104.8 l 16.7,88.7" /><path
         id="path194"
         style="fill:#c7cdd0;fill-opacity:1;fill-rule:nonzero;stroke:none"
         d="m 12819.1,13298.8 c 0,0 205.7,-156.5 350.8,-161.3 0,0 -76.5,-64.6 -209.6,-16.2 -133.1,48.4 -141.2,177.5 -141.2,177.5" /><path
         id="path196"
         style="fill:#c7cdd0;fill-opacity:1;fill-rule:nonzero;stroke:none"
         d="m 11373.6,14460 c 0,0 215.7,-56.4 425.4,-24.2 209.6,32.3 452.5,-44.3 452.5,-44.3 0,0 -150.1,78.4 -202.5,105.7 -31,16.2 -121.7,5.9 -205.2,-4.4 -57.7,-7.1 -112,-14.2 -140.5,-12.6 -69.7,4 -329.7,-20.2 -329.7,-20.2" /><path
         id="path198"
         style="fill:#c7cdd0;fill-opacity:1;fill-rule:nonzero;stroke:none"
         d="m 12440.1,14371.3 c 0,0 100.8,73.9 112.9,77.3 12.1,3.4 217.7,19.5 217.7,19.5 0,0 -233.8,42.8 -245.9,37.5 -12.1,-5.2 -84.7,-134.3 -84.7,-134.3" /><path
         id="path200"
         style="fill:#c19984;fill-opacity:1;fill-rule:nonzero;stroke:none"
         d="m 12722.3,13584.7 h -38.9 c 13.4,0.1 26.3,0.8 38.7,2.2 0.2,-1.4 0.2,-2.2 0.2,-2.2 m -41.9,0 h -75 c 0,1.3 0,2.5 0,3.7 19.4,-1.4 39.6,-2.6 60.5,-3.4 4.9,-0.1 9.7,-0.2 14.5,-0.3" /><path
         id="path202"
         style="fill:#b36239;fill-opacity:1;fill-rule:nonzero;stroke:none"
         d="m 12683.4,13584.7 h -3 c -4.8,0.1 -9.6,0.2 -14.5,0.3 -20.9,0.8 -41.1,2 -60.5,3.4 -3.3,298.7 -165.3,621.6 -165.3,621.6 233,-254.1 278.4,-593.2 282,-623.1 -12.4,-1.4 -25.3,-2.1 -38.7,-2.2" /><path
         id="path204"
         style="fill:#b36239;fill-opacity:1;fill-rule:nonzero;stroke:none"
         d="m 12251.5,14391.5 c 0,0 -150.1,78.4 -202.5,105.7 v 0 l -149.2,652.4 351.7,-758.1" /><path
         id="path206"
         style="fill:#b28c77;fill-opacity:1;fill-rule:nonzero;stroke:none"
         d="m 12251.5,14391.5 v 0 l -202.5,105.7 v 0 c 52.4,-27.3 202.5,-105.7 202.5,-105.7 v 0" /><path
         id="path208"
         style="fill:#5b5f5f;fill-opacity:1;fill-rule:nonzero;stroke:none"
         d="m 10032.7,10542.6 h -339.65 l -5.32,-148.6 9.57,-209.9 c -40.03,-121.6 -63.35,-266.3 -63.35,-421.8 0,-205.3 40.59,-392 106.86,-531.3 l -47.76,-248.9 h 339.65 c 220.2,0 398.7,349.3 398.7,780.2 0,431 -178.5,780.3 -398.7,780.3" /><path
         id="path210"
         style="fill:#8d8d8d;fill-opacity:1;fill-rule:nonzero;stroke:none"
         d="m 10032.7,9762.3 c 0,-430.9 -152.07,-780.2 -339.65,-780.2 -187.58,0 -339.64,349.3 -339.64,780.2 0,431 152.06,780.3 339.64,780.3 187.58,0 339.65,-349.3 339.65,-780.3" /><path
         id="path212"
         style="fill:#d0d0cb;fill-opacity:1;fill-rule:nonzero;stroke:none"
         d="m 9795.47,9762.3 c 0,-93.5 -41.86,-169.3 -93.51,-169.3 -51.65,0 -93.51,75.8 -93.51,169.3 0,93.6 41.86,169.4 93.51,169.4 51.65,0 93.51,-75.8 93.51,-169.4" /><path
         id="path214"
         style="fill:#a45634;fill-opacity:1;fill-rule:nonzero;stroke:none"
         d="m 12685.4,14461.2 c -5.3,8.6 -10.5,16.8 -15.4,24.7 -65,11 -138.6,22.6 -145.2,19.7 -12.1,-5.2 -84.7,-134.3 -84.7,-134.3 0,0 100.8,73.9 112.9,77.3 6.8,1.9 74.3,7.8 132.4,12.6" /><path
         id="path216"
         style="fill:#a45634;fill-opacity:1;fill-rule:nonzero;stroke:none"
         d="m 11619,14426.7 c 56.8,-2.1 118.6,-0.3 180,9.1 209.6,32.3 452.5,-44.3 452.5,-44.3 0,0 -150.1,78.4 -202.5,105.7 -52.5,27.4 -276,-21 -345.7,-17 -23.8,1.4 -70,-0.6 -120.5,-3.7 11.8,-16.3 23.9,-33 36.2,-49.8" /><path
         id="path218"
         style="fill:#a45634;fill-opacity:1;fill-rule:nonzero;stroke:none"
         d="m 11962.6,15549.1 c 0,0 216.4,-100.1 125.8,-120.2 -77.6,-17.2 -48.9,-47.2 -48.9,-47.2 0,0 89.5,-219.5 329.4,-331.4 153.9,-71.8 245.5,-61.5 245.5,-61.5 0,0 54.9,487.6 107.9,590.1 53.1,102.5 -476,-120.1 -511.9,-70.8 -35.9,49.2 -247.8,41 -247.8,41" /><g
         transform="scale(1.04265)"
         id="g220"><path
           id="path222"
           style="fill:#2f1d16;fill-opacity:1;fill-rule:nonzero;stroke:none"
           d="m 12372.9,16043.9 c -13.2,27.4 5.3,76 -40.1,119.5 -45.3,43.4 -100.2,55.4 -100.2,55.4 0,0 -46.3,48 -104,55.4 -57.6,7.4 -108.4,1.1 -108.4,1.1 0,0 -44,23.4 -118.3,24 -74.3,0.7 -139.7,-37 -168.9,-41.1 -29.3,-4 -88.1,-5.9 -121.8,-13.2 -33.8,-7.3 -99.4,-38.9 -109.9,-47 -10.6,-8 -68.9,-4.7 -134.6,-33.6 -65.7,-28.9 -106.7,-110.4 -106.7,-110.4 0,0 -45.6,-27.8 -62.3,-36.1 l -0.6,-0.3 c -0.9,-0.6 -3.3,-2.2 -6.8,-4.9 -11.3,-9.6 -27.7,-29.2 -44.9,-51.3 -33.7,-51.3 -71.8,-143.9 -75.9,-303.4 -7.7,-291 42.2,-607.5 258.3,-820.5 l 168.1,362.2 897.7,574.6 c 0,0 11.3,45.6 4.3,70.8 -7,25.2 15.4,67.2 12.6,116.4 -2.7,49.3 -24.4,55 -37.6,82.4" /></g><g
         transform="scale(1.01433)"
         id="g224"><path
           id="path226"
           style="fill:#c37140;fill-opacity:1;fill-rule:nonzero;stroke:none"
           d="m 12676.5,16300 c 0,0 51.1,-61.1 63.1,-85.3 11.9,-24.3 29.5,-247.9 35.4,-304.5 6,-56.5 -5.4,-133.9 -4.2,-161.4 1,-27.4 11.7,-195.5 7.1,-261.6 -4.7,-66.2 -67.2,-325.2 -88.2,-393.8 -21,-68.7 -52,-159.7 -84.2,-179.4 -32.1,-19.6 -176.3,-32.9 -305.9,0.2 -129.6,33.1 -387.1,192.9 -458.5,279.7 -71.4,86.8 -69.9,273.7 -69.9,273.7 0,0 -52.5,-16.8 -109.6,35.8 -57.1,52.6 -149.8,167.8 -137,300.3 12.8,132.4 115.5,89 168.8,38.1 53.4,-51 58.6,-131.4 69.6,-132.7 11,-1.4 21.9,2.7 27.3,4.8 5.4,2 25.4,138.4 26.1,165.9 0.7,27.5 -11.6,191.9 -8.2,197.5 3.5,5.6 132.9,175.8 176.1,194.1 43.2,18.3 692.2,28.6 692.2,28.6" /></g><g
         transform="scale(1.02304)"
         id="g228"><path
           id="path230"
           style="fill:#2f1d16;fill-opacity:1;fill-rule:nonzero;stroke:none"
           d="m 11690,15580.1 c 0,0 29,95.6 43.1,148.1 14,52.5 -2.5,121.4 11.4,132.9 13.8,11.5 39.6,43.8 35.1,83.1 -4.4,39.3 -4.4,39.3 -4.4,39.3 0,0 -2.7,34.6 50.2,55.3 52.9,20.6 74.5,86 74.5,86 0,0 135.5,2.8 187.4,6.1 52,3.3 163.8,6.9 225.3,7.4 61.5,0.4 244.4,1.6 250.8,0.3 6.3,-1.4 67.8,-61.9 67.8,-61.9 0,0 -3.3,114.4 -17.6,117.1 -14.3,2.7 -3.1,47.2 -198.7,50.3 -195.7,3.1 -317.3,55.9 -474.2,-15.5 -157,-71.3 -181.7,-39 -239.1,-118.2 -57.3,-79.1 -111.2,-214.9 -93.8,-268 17.5,-53 82.2,-262.3 82.2,-262.3" /></g></g></g></svg>