<?xml version="1.0" encoding="UTF-8" standalone="no"?>
<svg
   xmlns:dc="http://purl.org/dc/elements/1.1/"
   xmlns:cc="http://creativecommons.org/ns#"
   xmlns:rdf="http://www.w3.org/1999/02/22-rdf-syntax-ns#"
   xmlns:svg="http://www.w3.org/2000/svg"
   xmlns="http://www.w3.org/2000/svg"
   viewBox="0 0 2666.6667 2666.6667"
   height="2666.6667"
   width="2666.6667"
   xml:space="preserve"
   id="svg2"
   version="1.1"><metadata
     id="metadata8"><rdf:RDF><cc:Work
         rdf:about=""><dc:format>image/svg+xml</dc:format><dc:type
           rdf:resource="http://purl.org/dc/dcmitype/StillImage" /></cc:Work></rdf:RDF></metadata><defs
     id="defs6" /><g
     transform="matrix(1.3333333,0,0,-1.3333333,0,2666.6667)"
     id="g10"><g
       transform="scale(0.1)"
       id="g12"><g
         transform="scale(1.22699)"
         id="g14"><path
           id="path16"
           style="fill:none;fill-opacity:1;fill-rule:nonzero;stroke:none"
           d="M 16300,0 H 0 V 16300 H 16300 V 0" /></g><path
         id="path18"
         style="fill:#252323;fill-opacity:1;fill-rule:nonzero;stroke:none"
         d="m 11552.3,4515.3 -51.2,-31.4 c 0,0 -42,-346.8 -47.2,-455.6 -5.2,-108.8 -88.1,-243.5 -46.6,-326.4 41.4,-82.9 212.4,-253.8 336.7,-300.5 124.4,-46.6 549.2,-20.7 580.3,46.7 31,67.3 -310.9,859.9 -310.9,885.9 0,25.9 15.6,274.5 -5.2,300.4 -20.7,25.9 -129.5,23.3 -129.5,23.3 0,0 -103.6,121.8 -124.3,111.4 -20.7,-10.3 -202.1,-253.8 -202.1,-253.8" /><path
         id="path20"
         style="fill:#252323;fill-opacity:1;fill-rule:nonzero;stroke:none"
         d="m 13429.6,4867.6 -105.5,-97.9 c 0,0 -62.1,-171.4 -62.1,-254.4 0,-82.9 -31.4,-518.1 -31.3,-556.9 0.2,-38.9 272.2,-54.4 489.7,-240.9 217.6,-186.5 668.3,-101.1 746.1,0 77.7,101 -541.8,823.7 -558.5,862.5 -16.6,38.9 -56,189.7 -56,189.7 l -84.9,-18.7 c 0,0 -108.8,132.2 -132.1,163.2 -23.3,31.1 -205.4,-46.6 -205.4,-46.6" /><path
         id="path22"
         style="fill:#c37140;fill-opacity:1;fill-rule:nonzero;stroke:none"
         d="m 11466.9,8139.1 v -808.2 c 0,0 -235.5,-652.7 -137.2,-1134.5 98.3,-481.8 176,-1787.3 176,-1787.3 0,0 116.6,-46.7 147.7,0 31.1,46.6 38.8,170.9 62.1,186.5 23.3,15.5 163.2,62.1 163.2,62.1 0,0 54.4,404.1 178.8,893.7 124.3,489.6 124.3,1523.1 124.3,1523.1 0,0 101,217.6 132.1,404.1 31.1,186.5 178.7,714.9 178.7,714.9 l -1025.7,-54.4" /><path
         id="path24"
         style="fill:#c37140;fill-opacity:1;fill-rule:nonzero;stroke:none"
         d="m 12951.1,8193.5 c 0,0 155.4,-885.9 147.7,-994.7 -7.8,-108.8 -77.2,-533.6 0.2,-907.9 77.5,-374.3 225.1,-1159.1 225.1,-1400 0,-240.9 0,-240.9 0,-240.9 0,0 116.6,-178.8 178.8,-124.4 62.1,54.4 85.4,186.5 85.4,186.5 0,0 178.8,7.8 178.8,38.9 0,31.1 155.4,1468.7 139.8,1779.5 -15.5,310.9 -101,691.7 -93.2,777.1 7.8,85.5 62.2,823.8 62.2,823.8 l -924.8,62.1" /><path
         id="path26"
         style="fill:#252323;fill-opacity:1;fill-rule:nonzero;stroke:none"
         d="m 11702.6,11177.6 -41.5,-178.8 c 0,0 -225.3,-963.6 -279.7,-1391 -54.4,-427.4 -38.9,-1282.2 -38.9,-1375.4 0,-93.3 -27.4,-209.8 -2,-240.9 25.3,-31.1 1260.9,46.6 1260.9,46.6 l 163.2,575.1 101,-567.3 c 0,0 528.5,-108.8 823.8,-108.8 295.3,0 396.3,7.8 419.6,38.8 23.3,31.1 0,1484.3 -101,2012.7 -101.1,528.4 -461.1,1157.9 -461.1,1157.9 0,0 -898.9,256.4 -1046.5,256.4 -147.6,0 -797.8,-225.3 -797.8,-225.3" /><g
         transform="scale(1.01379)"
         id="g28"><path
           id="path30"
           style="fill:#959595;fill-opacity:1;fill-rule:nonzero;stroke:none"
           d="m 9260.45,15564.4 c 56.08,-423.8 -139.85,-799.4 -437.63,-838.8 -297.77,-39.4 -584.64,272.3 -640.72,696.1 -56.08,423.9 139.84,799.5 437.61,838.9 297.78,39.4 584.64,-272.3 640.74,-696.2" /></g><g
         transform="scale(1.01105)"
         id="g32"><path
           id="path34"
           style="fill:#5e6061;fill-opacity:1;fill-rule:nonzero;stroke:none"
           d="m 8964.54,14810.3 c -298.58,-39.5 -586.22,273 -642.46,698 -46.51,351.6 79.94,669.8 293.97,791.7 -283.32,-57.9 -466.35,-424.5 -411.83,-836.6 56.24,-425 343.88,-737.5 642.45,-698 51.63,6.8 100.1,24 144.83,49.4 -8.89,-1.8 -17.87,-3.3 -26.96,-4.5" /></g><path
         id="path36"
         style="fill:#252323;fill-opacity:1;fill-rule:nonzero;stroke:none"
         d="m 9258.42,15745.2 -2.98,43.3 c -4.09,59.4 -55.55,104.2 -114.94,100.1 l -213.89,-14.7 c -59.4,-4.1 -104.23,-55.5 -100.15,-114.9 l 2.98,-43.4 c 4.09,-59.3 55.55,-104.2 114.94,-100.1 l 213.9,14.7 c 59.39,4.1 104.22,55.6 100.14,115" /><g
         transform="scale(1.02296)"
         id="g38"><path
           id="path40"
           style="fill:#959595;fill-opacity:1;fill-rule:nonzero;stroke:none"
           d="m 16110.5,14195.6 c 189.5,-280.2 183.6,-615.2 -13.1,-748.3 -196.8,-133.1 -510,-14 -699.6,266.1 -189.4,280.2 -183.6,615.2 13.2,748.3 196.8,133.2 510,14 699.5,-266.1" /></g><g
         transform="scale(1.01707)"
         id="g42"><path
           id="path44"
           style="fill:#5e6061;fill-opacity:1;fill-rule:nonzero;stroke:none"
           d="m 16254.6,13615.7 c -190.7,-129 -494.1,-13.5 -677.7,257.9 -174.6,258.1 -177.9,564.2 -13.8,704.5 -21.9,-8.4 -43,-19.2 -62.7,-32.6 -198,-133.9 -203.9,-470.8 -13.3,-752.6 190.6,-281.7 505.6,-401.6 703.6,-267.7 47.6,32.3 83.9,76.3 109.3,128.4 -13.8,-13.9 -28.8,-26.7 -45.4,-37.9" /></g><path
         id="path46"
         style="fill:#c37140;fill-opacity:1;fill-rule:nonzero;stroke:none"
         d="m 12280.7,14441.4 -254.2,194.2 c 0,0 -295.3,57 -505.1,90.7 -209.8,33.7 -528.5,-44 -567.3,-51.8 -38.9,-7.8 -707.2,27.2 -707.2,60.2 0,33.1 -411.82,514.9 -411.82,538.2 0,23.3 -334.15,253.1 -334.15,253.1 h -271.98 c 0,0 170.96,-898.1 318.6,-1123.5 147.65,-225.3 373.01,-310.8 435.17,-373 62.18,-62.2 365.28,-178.7 660.58,-240.9 295.3,-62.2 543.9,-132.1 582.8,-163.2 38.8,-31.1 178.7,-598.3 178.7,-598.3 l 792.7,-194.3 c 0,0 746,567.3 582.8,924.7 -163.2,357.5 -499.6,683.9 -499.6,683.9" /><path
         id="path48"
         style="fill:#c37140;fill-opacity:1;fill-rule:nonzero;stroke:none"
         d="m 13370.9,14511.3 c 0,0 238.3,-38.9 362.6,-126.9 124.3,-88.1 269.4,-228 290.1,-243.5 20.7,-15.5 445.6,-62.2 445.6,-62.2 0,0 341.9,134.7 683.8,181.3 341.9,46.7 813.4,279.8 813.4,279.8 l 129.5,-230.5 c 0,0 -300.5,-194.3 -435.2,-303.1 -134.7,-108.8 -352.3,-310.7 -678.7,-442.9 -326.3,-132.2 -747.7,-223.6 -963.6,-225.4 -215.9,-1.8 -295.3,-46.6 -362.6,0 -67.4,46.6 -437.3,205.3 -398.9,497.3 38.4,292.1 114,676.1 114,676.1" /><path
         id="path50"
         style="fill:#a45634;fill-opacity:1;fill-rule:nonzero;stroke:none"
         d="m 11016.3,13975.1 c 0,0 520.6,-93.2 598.3,-132.1 77.7,-38.8 559.5,-481.8 559.5,-481.8 l 106.6,116.6 c 0,0 -495.1,388.5 -557.3,419.6 -62.1,31.1 -707.1,77.7 -707.1,77.7" /><path
         id="path52"
         style="fill:#a45634;fill-opacity:1;fill-rule:nonzero;stroke:none"
         d="m 13824.1,14006.2 c 0,0 -2.5,-186.5 -95.8,-367.8 -93.2,-181.3 93.3,-183.9 93.3,-183.9 0,0 67.2,261.6 2.5,551.7" /><path
         id="path54"
         style="fill:#e9eef1;fill-opacity:1;fill-rule:nonzero;stroke:none"
         d="m 12137.8,14726.3 -111.3,-90.7 c 0,0 175.9,-753.5 111.3,-1072.3 -64.7,-318.7 -756.3,-520.7 -733,-536.2 23.3,-15.6 209.8,-761.6 217.6,-784.9 7.8,-23.3 80.2,-1064.6 80.2,-1064.6 0,0 580.3,-46.7 1101,-70 520.6,-23.3 792.2,-50.9 792.2,-50.9 0,0 132.5,1931.5 132.5,1954.8 0,0 62.2,217.6 93.3,443 31.1,225.3 -233.2,512.8 -272,590.6 -38.9,77.7 -178.7,466.2 -178.7,466.2 l -140,33.7 c 0,0 -178.6,-25.9 -279.7,-25.9 -101,0 -813.4,207.2 -813.4,207.2" /><path
         id="path56"
         style="fill:#c37140;fill-opacity:1;fill-rule:nonzero;stroke:none"
         d="m 12395.1,15469.9 c 0,0 -34.6,-588.2 -44.9,-603.7 -10.4,-15.6 -212.4,-139.9 -212.4,-139.9 0,0 202,-860 378.1,-1020.6 176.2,-160.6 430,-160.6 569.9,-119.1 139.9,41.4 238.3,227.9 217.6,461 -20.7,233.2 -72.5,497.4 -72.5,497.4 l -119.2,119.1 -5.2,487 c 0,0 -485.9,448.8 -538.7,414.5 -52.9,-34.4 -172.7,-95.7 -172.7,-95.7" /><path
         id="path58"
         style="fill:#100f0d;fill-opacity:1;fill-rule:nonzero;stroke:none"
         d="m 13230.7,9949.8 c 0,0 -178.6,-62.2 -209.6,-77.7 -31.1,-15.6 -256.5,-1258.9 -256.5,-1258.9 l 101,-567.3 172.1,-32.6 c 0,0 -94.4,607.6 -86.6,646.5 7.8,38.8 147.7,1103.5 147.7,1103.5 l 131.9,186.5" /><path
         id="path60"
         style="fill:#f2f2f2;fill-opacity:1;fill-rule:nonzero;stroke:none"
         d="m 11471,4914.2 c 21.9,-288.9 34.7,-505.1 34.7,-505.1 0,0 116.6,-46.6 147.7,0 31.1,46.6 38.8,170.9 62.1,186.5 23.3,15.5 163.2,62.1 163.2,62.1 0,0 13,96.3 40.7,251.5 -172.9,-3.6 -342.3,0.9 -448.4,5" /><path
         id="path62"
         style="fill:#f2f2f2;fill-opacity:1;fill-rule:nonzero;stroke:none"
         d="m 13305.2,5117 c 11.9,-94.7 18.9,-173.4 18.9,-226.1 0,-240.9 0,-240.9 0,-240.9 0,0 116.6,-178.8 178.8,-124.4 62.1,54.4 85.4,186.5 85.4,186.5 0,0 178.8,7.8 178.8,38.9 0,10.1 16.4,168.5 38,388.5 -210.9,-15.8 -400.1,-20.9 -499.9,-22.5" /><path
         id="path64"
         style="fill:#c37140;fill-opacity:1;fill-rule:nonzero;stroke:none"
         d="m 9197.86,16084.9 c 0,0 -120.45,-35 -143.76,-81.6 -23.31,-46.6 19.43,-390 46.62,-435.9 27.2,-45.9 128.23,-77 128.23,-77 0,0 73.82,-34.9 139.87,-27.1 66.05,7.7 170.97,-50.6 143.76,143.7 -27.19,194.3 -174.84,532.3 -174.84,532.3 0,0 -108.79,23.3 -139.88,-54.4" /><g
         transform="scale(1.01545)"
         id="g66"><path
           id="path68"
           style="fill:#c37140;fill-opacity:1;fill-rule:nonzero;stroke:none"
           d="m 15715.8,14286.7 7.7,31.9 321.3,204.1 c 0,0 76.1,-23 122.3,-75.3 46.1,-52.3 122.7,-256.3 127.8,-269.1 5.1,-12.7 0,-40.8 0,-40.8 0,0 -114.8,-61.2 -145.5,-58.7 -30.5,2.6 -186.2,28.1 -201.5,25.5 -15.2,-2.5 -96.9,-12.7 -96.9,-12.7 0,0 -97,61.2 -104.5,79.1 -7.7,17.8 -30.7,116 -30.7,116" /></g><g
         transform="scale(1.01052)"
         id="g70"><path
           id="path72"
           style="fill:#a45634;fill-opacity:1;fill-rule:nonzero;stroke:none"
           d="m 16169.3,14470.4 c 0,0 -30.8,-69.3 -20.6,-100 10.3,-30.7 95.6,-94.2 105.5,-94.5 9.9,-0.3 45.8,69.2 32.9,97.3 -12.7,28 -117.8,97.2 -117.8,97.2" /></g><g
         transform="scale(1.06189)"
         id="g74"><path
           id="path76"
           style="fill:#959595;fill-opacity:1;fill-rule:nonzero;stroke:none"
           d="m 16121.4,14095.3 c 178.6,-272.4 168.3,-595 -23,-720.6 -191.4,-125.5 -491.4,-6.4 -670.1,266 -178.8,272.4 -168.5,595.1 22.9,720.6 191.4,125.5 491.4,6.5 670.2,-266" /></g><g
         transform="scale(1.05569)"
         id="g78"><path
           id="path80"
           style="fill:#5e6061;fill-opacity:1;fill-rule:nonzero;stroke:none"
           d="m 16255.9,13539.6 c -185.5,-121.6 -476.2,-6.3 -649.4,257.7 -164.6,251 -163.6,545.9 -3.7,678.9 -21.2,-7.8 -41.6,-17.9 -60.8,-30.5 -192.6,-126.3 -202.9,-450.8 -23.1,-724.9 179.8,-274 481.6,-393.8 674.1,-267.5 46.3,30.4 81.9,72.3 107,122.2 -13.4,-13.3 -28,-25.3 -44.1,-35.9" /></g><g
         transform="scale(1.04143)"
         id="g82"><path
           id="path84"
           style="fill:#252323;fill-opacity:1;fill-rule:nonzero;stroke:none"
           d="m 16255.7,14294.5 c 44.3,-71.9 38,-156.2 -14.2,-188.2 -52,-32.1 -130.2,0.2 -174.5,72.1 -44.1,71.9 -37.8,156.2 14.3,188.2 52.1,32.1 130.2,-0.2 174.4,-72.1" /></g><g
         transform="scale(1.02201)"
         id="g86"><path
           id="path88"
           style="fill:#959595;fill-opacity:1;fill-rule:nonzero;stroke:none"
           d="m 10176.9,15570.3 c 55.7,-420.4 -138.7,-793 -434.07,-832 -295.39,-39.1 -579.94,270 -635.57,690.5 -55.64,420.5 138.71,793 434.1,832.1 295.35,39.1 579.84,-270.1 635.54,-690.6" /></g><g
         transform="scale(1.01982)"
         id="g90"><path
           id="path92"
           style="fill:#5e6061;fill-opacity:1;fill-rule:nonzero;stroke:none"
           d="m 9885.76,14835.3 c -285.14,-37.7 -559.84,260.7 -613.55,666.6 -51.07,386.1 116.16,730 377.9,795.3 -29.18,2.8 -58.66,2.5 -88.28,-1.4 -296.02,-39.2 -490.79,-412.5 -435.03,-833.9 55.76,-421.3 340.92,-731.2 636.93,-692 71.24,9.4 136.54,38.3 193.91,82.5 -23.14,-8 -47.17,-13.8 -71.88,-17.1" /></g><path
         id="path94"
         style="fill:#252323;fill-opacity:1;fill-rule:nonzero;stroke:none"
         d="m 10142.6,15924.9 c 11.3,-109.6 -43.9,-205 -123.3,-213.2 -79.42,-8.2 -152.94,74 -164.24,183.6 -11.3,109.5 43.9,205 123.29,213.2 79.35,8.2 152.95,-74 164.25,-183.6" /><path
         id="path96"
         style="fill:#a45634;fill-opacity:1;fill-rule:nonzero;stroke:none"
         d="m 12435.3,15299.7 c 0,0 131.7,-14.4 43.7,-25.3 -75.3,-9.3 -24.4,-84.5 -24.4,-84.5 0,0 138.7,-318.4 356.6,-446.5 139.8,-82.3 295.2,-62.9 295.2,-62.9 0,0 -4,565.9 55.7,658.6 59.8,92.6 -465.3,-150.9 -495,-100.9 -29.7,50.1 -231.8,61.5 -231.8,61.5" /><g
         transform="scale(1.0209)"
         id="g98"><path
           id="path100"
           style="fill:#2f1d16;fill-opacity:1;fill-rule:nonzero;stroke:none"
           d="m 13158.8,16000.9 c -10.3,27.8 12.2,73.2 -27.8,119.6 -39.9,46.4 -92.2,63.2 -92.2,63.2 0,0 -40.5,50.9 -95.7,63.4 -55.3,12.5 -105.2,11.1 -105.2,11.1 0,0 -40.6,26.7 -112.6,34.3 -72.1,7.5 -139,-23.1 -167.8,-24.3 -28.8,-1.2 -86,2.4 -119.5,-1.6 -33.5,-3.9 -100,-28.5 -111,-35.3 -11,-6.9 -67.3,1.8 -133.7,-20.2 -66.5,-21.9 -113.9,-97.3 -113.9,-97.3 0,0 -46.8,-22.8 -63.9,-29.2 -0.1,-0.1 -0.4,-0.2 -0.5,-0.3 -1,-0.5 -3.5,-1.8 -7.1,-4.1 -11.9,-8.3 -29.5,-25.8 -48.4,-45.6 -37.4,-46.7 -83,-133.1 -101.8,-287.5 -34.3,-281.8 71.9,-707.8 262,-934.6 l 109.5,450.1 924.7,474.6 c 0,0 15.3,43.2 10.8,68.3 -4.5,25.2 21.2,63.8 23,111.9 1.9,48 -18.6,55.6 -28.9,83.5" /></g><path
         id="path102"
         style="fill:#c37140;fill-opacity:1;fill-rule:nonzero;stroke:none"
         d="m 13375.9,16154.2 c 0,0 43.7,-63.6 53,-88 9.3,-24.5 5.6,-241.8 6.1,-296.8 0.6,-55.1 -17.6,-128.7 -19,-155.2 -1.4,-26.6 -6.7,-189.6 -17.2,-252.9 -10.5,-63.4 -94.7,-307.4 -121.3,-371.6 -26.5,-64.3 -64.8,-149.2 -97.6,-165.2 -32.9,-16 -173.1,-15.5 -295,28.4 -121.9,43.8 -355.5,221.5 -416.3,311.8 -60.8,90.3 -42.2,270.4 -42.2,270.4 0,0 -52.1,-11.4 -102.3,44.6 -50.3,55.9 -129,175.6 -104.4,302.1 24.5,126.4 119.4,75.2 166.2,21.1 46.8,-54 44.4,-131.9 54.9,-134.3 10.5,-2.3 21.3,0.7 26.7,2.1 5.4,1.5 37.3,131.2 40.5,157.6 3.2,26.5 6.5,186.1 10.3,191.2 3.8,5.1 144.3,157.3 187.7,170.9 43.3,13.7 669.9,-36.2 669.9,-36.2" /><g
         transform="scale(1.00202)"
         id="g104"><path
           id="path106"
           style="fill:#2f1d16;fill-opacity:1;fill-rule:nonzero;stroke:none"
           d="m 12442.4,15639.2 c 0,0 37.1,90.1 55.6,139.7 18.4,49.7 8.9,118 23.4,127.9 14.5,9.8 42.4,38.9 41.7,77.4 -0.5,38.6 -0.5,38.6 -0.5,38.6 0,0 0.5,33.8 53.8,48.9 53.3,15.2 80.3,76.6 80.3,76.6 0,0 131.7,-9.8 182.4,-11.4 50.7,-1.7 159.6,-8.5 219.4,-13.8 59.6,-5.3 237.3,-21 243.3,-22.9 6.1,-1.9 60.1,-66.4 60.1,-66.4 0,0 7.4,111.4 -6.2,115.4 -13.6,3.9 1.4,46.1 -188.2,67.2 -189.7,21.1 -302.7,83.6 -461.7,28.9 -158.9,-54.7 -179.9,-21.1 -242.9,-92.6 -63,-71.5 -127.9,-198.3 -115.8,-251.4 12.1,-53.1 55.3,-262.1 55.3,-262.1" /></g><path
         id="path108"
         style="fill:#252323;fill-opacity:1;fill-rule:nonzero;stroke:none"
         d="m 3812.59,4515.3 -51.29,-31.4 c 0,0 -41.96,-346.8 -47.14,-455.6 -5.18,-108.8 -88.07,-243.5 -46.63,-326.4 41.45,-82.9 212.41,-253.8 336.75,-300.5 124.33,-46.6 549.14,-20.7 580.23,46.7 31.08,67.3 -310.84,859.9 -310.84,885.9 0,25.9 15.54,274.5 -5.18,300.4 -20.73,25.9 -129.52,23.3 -129.52,23.3 0,0 -103.61,121.8 -124.33,111.4 -20.72,-10.3 -202.05,-253.8 -202.05,-253.8" /><path
         id="path110"
         style="fill:#252323;fill-opacity:1;fill-rule:nonzero;stroke:none"
         d="m 5689.82,4867.6 -105.45,-97.9 c 0,0 -62.17,-171.4 -62.17,-254.4 0,-82.9 -31.36,-518.1 -31.22,-556.9 0.14,-38.9 272.12,-54.4 489.71,-240.9 217.59,-186.5 668.3,-101.1 746.01,0 77.71,101 -541.78,823.7 -558.42,862.5 -16.63,38.9 -56.07,189.7 -56.07,189.7 l -84.9,-18.7 c 0,0 -108.79,132.2 -132.1,163.2 -23.32,31.1 -205.39,-46.6 -205.39,-46.6" /><path
         id="path112"
         style="fill:#c37140;fill-opacity:1;fill-rule:nonzero;stroke:none"
         d="m 3727.11,8139.1 v -808.2 c 0,0 -235.45,-652.7 -137.15,-1134.5 98.3,-481.8 176.01,-1787.3 176.01,-1787.3 0,0 116.56,-46.7 147.65,0 31.08,46.6 38.85,170.9 62.16,186.5 23.32,15.5 163.19,62.1 163.19,62.1 0,0 54.4,404.1 178.74,893.7 124.33,489.6 124.33,1523.1 124.33,1523.1 0,0 101.02,217.6 132.11,404.1 31.08,186.5 178.73,714.9 178.73,714.9 l -1025.77,-54.4" /><path
         id="path114"
         style="fill:#c37140;fill-opacity:1;fill-rule:nonzero;stroke:none"
         d="m 5211.36,8193.5 c 0,0 155.42,-885.9 147.65,-994.7 -7.77,-108.8 -77.14,-533.6 0.28,-907.9 77.43,-374.3 225.08,-1159.1 225.08,-1400 0,-240.9 0,-240.9 0,-240.9 0,0 116.56,-178.8 178.73,-124.4 62.17,54.4 85.48,186.5 85.48,186.5 0,0 178.73,7.8 178.73,38.9 0,31.1 155.42,1468.7 139.88,1779.5 -15.54,310.9 -101.02,691.7 -93.25,777.1 7.77,85.5 62.17,823.8 62.17,823.8 l -924.75,62.1" /><path
         id="path116"
         style="fill:#252323;fill-opacity:1;fill-rule:nonzero;stroke:none"
         d="m 3962.83,11177.6 -41.44,-178.8 c 0,0 -225.36,-963.6 -279.76,-1391 -54.39,-427.4 -38.85,-1282.2 -38.85,-1375.4 0,-93.3 -27.42,-209.8 -2.06,-240.9 25.37,-31.1 1260.95,46.6 1260.95,46.6 l 163.19,575.1 101.02,-567.3 c 0,0 528.43,-108.8 823.72,-108.8 295.3,0 396.32,7.8 419.64,38.8 23.31,31.1 0,1484.3 -101.03,2012.7 -101.02,528.4 -461.07,1157.9 -461.07,1157.9 0,0 -898.84,256.4 -1046.49,256.4 -147.65,0 -797.82,-225.3 -797.82,-225.3" /><path
         id="path118"
         style="fill:#c37140;fill-opacity:1;fill-rule:nonzero;stroke:none"
         d="m 5631,14472.4 253.84,-124.3 c 0,0 367.83,-124.3 497.35,-388.5 129.51,-264.2 88.07,-637.2 88.07,-637.2 0,0 72.53,-264.3 82.89,-544 10.36,-279.8 0,-461.1 0,-461.1 0,0 124.34,-440.4 160.6,-828.9 36.26,-388.5 51.8,-844.4 51.8,-844.4 h -243.48 c 0,0 -269.4,663.1 -290.12,761.5 -20.72,98.4 -129.52,714.9 -134.7,735.7 -5.18,20.7 -207.22,585.4 -207.22,585.4 0,0 -279.76,668.3 -290.12,740.8 -10.36,72.5 -103.61,787.5 -108.79,813.4 -5.18,25.9 139.88,191.6 139.88,191.6" /><path
         id="path120"
         style="fill:#959595;fill-opacity:1;fill-rule:nonzero;stroke:none"
         d="m 3991.82,10143.5 c 161.94,-363.4 29.7,-775.4 -295.38,-920.3 -325.08,-144.9 -719.9,32.3 -881.85,395.8 -161.94,363.4 -29.7,775.5 295.38,920.3 325.08,144.9 719.9,-32.3 881.85,-395.8" /><path
         id="path122"
         style="fill:#5e6061;fill-opacity:1;fill-rule:nonzero;stroke:none"
         d="m 4055.99,9908.8 c 9.4,-262.5 -130.31,-503.7 -366.45,-590.6 -302.34,-111.2 -648.25,72.6 -772.62,410.6 -124.36,338 19.91,702.2 322.25,813.4 92.08,33.9 188.18,40.3 280.85,23.4 -134.68,38.2 -278.11,32.5 -410.05,-26.3 -325.08,-144.8 -457.32,-556.9 -295.38,-920.3 161.95,-363.5 556.77,-540.7 881.85,-395.8 256.14,114.1 392.43,394.2 359.55,685.6" /><path
         id="path124"
         style="fill:#c37140;fill-opacity:1;fill-rule:nonzero;stroke:none"
         d="m 3237.09,10193.3 c 0,0 -8.21,-329 0,-371.8 8.22,-42.7 113.13,-69.9 113.13,-69.9 l 69.94,237 -183.07,204.7" /><path
         id="path126"
         style="fill:#e9eef1;fill-opacity:1;fill-rule:nonzero;stroke:none"
         d="m 4540.99,14705.6 -142.99,20.7 -103.61,-62.2 c 0,0 -419.63,-1165.6 -424.81,-1181.2 -5.18,-15.5 -72.53,-590.5 -67.35,-606.1 5.18,-15.5 62.17,-502.5 98.43,-906.6 36.27,-404.1 62.17,-792.6 62.17,-792.6 0,0 611.32,-67.4 1067.21,-67.4 455.9,0 777.1,36.3 777.1,36.3 0,0 88.07,1036.1 108.79,1227.8 20.73,191.7 98.43,730.5 93.25,782.3 -5.18,51.8 -139.87,212.4 -196.86,487 -56.99,274.5 -181.32,828.8 -181.32,828.8 l -139.88,72.6 -950.13,160.6" /><path
         id="path128"
         style="fill:#c37140;fill-opacity:1;fill-rule:nonzero;stroke:none"
         d="m 4655.31,15469.9 c 0,0 -34.54,-588.2 -44.9,-603.7 -10.36,-15.6 -212.41,-139.9 -212.41,-139.9 0,0 202.05,-860 378.19,-1020.6 176.14,-160.6 429.99,-160.6 569.87,-119.1 139.88,41.4 238.31,227.9 217.59,461 -20.73,233.2 -72.53,497.4 -72.53,497.4 l -119.16,119.1 -5.18,487 c 0,0 -485.97,448.8 -538.78,414.5 -52.82,-34.4 -172.69,-95.7 -172.69,-95.7" /><path
         id="path130"
         style="fill:#c37140;fill-opacity:1;fill-rule:nonzero;stroke:none"
         d="m 4341.02,14498.4 c 0,0 119.15,-523.3 56.98,-860 -62.17,-336.8 -398.9,-424.8 -398.9,-424.8 0,0 -38.29,-228.8 -93.26,-487 -54.96,-258.3 -284.93,-544 -284.93,-544 0,0 51.8,-404.1 36.26,-730.5 -15.54,-326.3 -72.53,-813.3 -72.53,-813.3 l -207.22,-103.6 c 0,0 -202.04,373 -243.49,782.2 -41.44,409.3 0,699.4 0,699.4 0,0 -5.18,238.3 10.36,388.6 15.54,150.2 20.72,181.3 25.91,202 5.18,20.7 10.36,357.5 72.52,601 62.17,243.5 103.62,354.9 103.62,354.9 0,0 -103.62,458.4 103.61,660.5 207.22,202 352,238.3 352,238.3 l 492.44,202 46.63,-165.7" /><path
         id="path132"
         style="fill:#a45634;fill-opacity:1;fill-rule:nonzero;stroke:none"
         d="m 4081.99,13563.3 c 0,0 -41.45,-49.3 -51.81,-75.2 -10.36,-25.9 -31.08,-274.5 -31.08,-274.5 l 121.17,51.8 c 0,0 -64.19,217.7 -38.28,297.9" /><path
         id="path134"
         style="fill:#a45634;fill-opacity:1;fill-rule:nonzero;stroke:none"
         d="m 6164.6,13742 c 0,0 -51.81,-212.4 -103.61,-305.7 -51.81,-93.2 -124.33,-132.3 -124.33,-132.3 l 72.52,-147.4 c 0,0 160.6,160.6 155.42,585.4" /><path
         id="path136"
         style="fill:#100f0d;fill-opacity:1;fill-rule:nonzero;stroke:none"
         d="m 5490.98,9949.8 c 0,0 -178.59,-62.2 -209.68,-77.7 -31.08,-15.6 -256.44,-1258.9 -256.44,-1258.9 l 101.02,-567.3 172.08,-32.6 c 0,0 -94.37,607.6 -86.6,646.5 7.78,38.8 147.65,1103.5 147.65,1103.5 l 131.97,186.5" /><path
         id="path138"
         style="fill:#f2f2f2;fill-opacity:1;fill-rule:nonzero;stroke:none"
         d="m 3731.2,4914.2 c 21.9,-288.9 34.77,-505.1 34.77,-505.1 0,0 116.56,-46.6 147.65,0 31.08,46.6 38.85,170.9 62.17,186.5 23.31,15.5 163.18,62.1 163.18,62.1 0,0 12.98,96.3 40.65,251.5 -172.9,-3.6 -342.29,0.9 -448.42,5" /><path
         id="path140"
         style="fill:#f2f2f2;fill-opacity:1;fill-rule:nonzero;stroke:none"
         d="m 5565.46,5117 c 11.85,-94.7 18.91,-173.4 18.91,-226.1 0,-240.9 0,-240.9 0,-240.9 0,0 116.56,-178.8 178.73,-124.4 62.17,54.4 85.48,186.5 85.48,186.5 0,0 178.73,7.8 178.73,38.9 0,10.1 16.39,168.5 37.99,388.5 -210.86,-15.8 -400.05,-20.9 -499.84,-22.5" /><path
         id="path142"
         style="fill:#959595;fill-opacity:1;fill-rule:nonzero;stroke:none"
         d="m 4511.9,10359.1 c 165.64,-371.7 30.38,-793.2 -302.11,-941.3 -332.5,-148.2 -736.33,33.1 -901.97,404.8 -165.65,371.7 -30.38,793.2 302.11,941.3 332.5,148.2 736.32,-33 901.97,-404.8" /><path
         id="path144"
         style="fill:#5e6061;fill-opacity:1;fill-rule:nonzero;stroke:none"
         d="m 4577.53,10119 c 9.61,-268.5 -133.28,-515.2 -374.81,-604 -309.23,-113.8 -663.03,74.2 -790.23,419.9 -127.21,345.7 20.35,718.2 329.59,832 94.17,34.7 192.47,41.2 287.26,23.9 -137.75,39.1 -284.46,33.3 -419.41,-26.9 -332.49,-148.1 -467.76,-569.6 -302.11,-941.3 165.64,-371.7 569.47,-553 901.97,-404.8 261.98,116.7 401.38,403.2 367.74,701.2" /><path
         id="path146"
         style="fill:#252323;fill-opacity:1;fill-rule:nonzero;stroke:none"
         d="m 4161.55,10244.8 c 33.99,-100.2 -6.55,-204.6 -90.55,-233.1 -84,-28.5 -179.65,29.7 -213.64,130 -33.99,100.2 6.55,204.6 90.55,233.1 84,28.5 179.65,-29.7 213.64,-130" /><path
         id="path148"
         style="fill:#959595;fill-opacity:1;fill-rule:nonzero;stroke:none"
         d="m 7396.1,10216 c 118.5,-389.3 -67.75,-790.9 -415.99,-896.9 -348.24,-106 -726.61,123.7 -845.11,513.1 -118.49,389.3 67.75,790.8 416,896.8 348.24,106 726.61,-123.7 845.1,-513" /><path
         id="path150"
         style="fill:#5e6061;fill-opacity:1;fill-rule:nonzero;stroke:none"
         d="M 7431.6,9969.6 C 7408,9702 7235.75,9474.8 6985.1,9416.4 c -320.92,-74.7 -648.8,155.6 -732.36,514.3 -83.57,358.8 108.85,710.2 429.76,785 97.74,22.7 196.08,17.1 288.02,-11.8 -131.88,55.9 -278.18,68.2 -419.52,25.1 -348.24,-106 -534.49,-507.5 -416,-896.8 118.5,-389.4 496.87,-619.1 845.11,-513.1 274.39,83.5 448.07,350.6 451.49,650.5" /><path
         id="path152"
         style="fill:#252323;fill-opacity:1;fill-rule:nonzero;stroke:none"
         d="m 7034.33,10145.8 c 21.35,-103.7 -31.76,-202.3 -118.63,-220.1 -86.88,-17.9 -174.61,51.6 -195.97,155.3 -21.36,103.7 31.76,202.2 118.63,220.1 86.87,17.9 174.61,-51.6 195.97,-155.3" /><path
         id="path154"
         style="fill:#a45634;fill-opacity:1;fill-rule:nonzero;stroke:none"
         d="m 4699.27,15299.7 c 0,0 131.67,-14.4 43.71,-25.3 -75.34,-9.3 -24.4,-84.5 -24.4,-84.5 0,0 138.7,-318.4 356.54,-446.5 139.81,-82.3 295.22,-62.9 295.22,-62.9 0,0 -4.01,565.9 55.73,658.6 59.73,92.6 -465.36,-150.9 -495.04,-100.9 -29.68,50.1 -231.76,61.5 -231.76,61.5" /><g
         transform="scale(1.0209)"
         id="g156"><path
           id="path158"
           style="fill:#2f1d16;fill-opacity:1;fill-rule:nonzero;stroke:none"
           d="m 5581.18,16000.9 c -10.35,27.8 12.13,73.2 -27.83,119.6 -39.96,46.4 -92.2,63.2 -92.2,63.2 0,0 -40.53,50.9 -95.76,63.4 -55.24,12.5 -105.09,11.1 -105.09,11.1 0,0 -40.64,26.7 -112.69,34.3 -72.08,7.5 -138.97,-23.1 -167.76,-24.3 -28.78,-1.2 -85.99,2.4 -119.48,-1.6 -33.49,-3.9 -100.01,-28.5 -111.02,-35.3 -11.01,-6.9 -67.27,1.8 -133.72,-20.2 -66.45,-21.9 -113.93,-97.3 -113.93,-97.3 0,0 -46.74,-22.8 -63.78,-29.2 -0.16,-0.1 -0.38,-0.2 -0.57,-0.3 -1,-0.5 -3.46,-1.8 -7.09,-4.1 -11.82,-8.3 -29.54,-25.8 -48.41,-45.6 -37.37,-46.7 -82.94,-133.1 -101.79,-287.5 -34.4,-281.8 71.9,-707.8 261.95,-934.6 l 109.53,450.1 924.73,474.6 c 0,0 15.27,43.2 10.8,68.3 -4.48,25.2 21.12,63.8 23,111.9 1.88,48 -18.56,55.6 -28.89,83.5" /></g><path
         id="path160"
         style="fill:#c37140;fill-opacity:1;fill-rule:nonzero;stroke:none"
         d="m 5639.89,16154.2 c 0,0 43.61,-63.6 52.94,-88 9.33,-24.5 5.58,-241.8 6.16,-296.8 0.58,-55.1 -17.6,-128.7 -19.03,-155.2 -1.43,-26.6 -6.69,-189.6 -17.21,-252.9 -10.53,-63.4 -94.71,-307.4 -121.26,-371.6 -26.55,-64.3 -64.86,-149.2 -97.69,-165.2 -32.81,-16 -173.03,-15.5 -294.93,28.4 -121.9,43.8 -355.51,221.5 -416.32,311.8 -60.81,90.3 -42.2,270.4 -42.2,270.4 0,0 -52.1,-11.4 -102.33,44.6 -50.24,55.9 -128.99,175.6 -104.41,302.1 24.59,126.4 119.45,75.2 166.25,21.1 46.79,-54 44.35,-131.9 54.88,-134.3 10.52,-2.3 21.33,0.7 26.73,2.1 5.41,1.5 37.27,131.2 40.47,157.6 3.21,26.5 6.5,186.1 10.33,191.2 3.82,5.1 144.3,157.3 187.64,170.9 43.35,13.7 669.98,-36.2 669.98,-36.2" /><g
         transform="scale(1.00202)"
         id="g162"><path
           id="path164"
           style="fill:#2f1d16;fill-opacity:1;fill-rule:nonzero;stroke:none"
           d="m 4721.94,15639.2 c 0,0 37.06,90.1 55.57,139.7 18.5,49.7 8.92,118 23.4,127.9 14.47,9.8 42.47,38.9 41.81,77.4 -0.67,38.6 -0.67,38.6 -0.67,38.6 0,0 0.58,33.8 53.88,48.9 53.29,15.2 80.24,76.6 80.24,76.6 0,0 131.79,-9.8 182.5,-11.4 50.71,-1.7 159.59,-8.5 219.31,-13.8 59.72,-5.3 237.33,-21 243.37,-22.9 6.04,-1.9 60.02,-66.4 60.02,-66.4 0,0 7.46,111.4 -6.15,115.4 -13.61,3.9 1.35,46.1 -188.24,67.2 -189.6,21.1 -302.69,83.6 -461.63,28.9 -158.93,-54.7 -179.92,-21.1 -242.9,-92.6 -62.99,-71.5 -127.89,-198.3 -115.83,-251.4 12.07,-53.1 55.32,-262.1 55.32,-262.1" /></g></g></g></svg>