<?xml version="1.0" encoding="UTF-8" standalone="no"?>
<svg
   xmlns:dc="http://purl.org/dc/elements/1.1/"
   xmlns:cc="http://creativecommons.org/ns#"
   xmlns:rdf="http://www.w3.org/1999/02/22-rdf-syntax-ns#"
   xmlns:svg="http://www.w3.org/2000/svg"
   xmlns="http://www.w3.org/2000/svg"
   viewBox="0 0 2666.6667 2666.6667"
   height="2666.6667"
   width="2666.6667"
   xml:space="preserve"
   id="svg2"
   version="1.1"><metadata
     id="metadata8"><rdf:RDF><cc:Work
         rdf:about=""><dc:format>image/svg+xml</dc:format><dc:type
           rdf:resource="http://purl.org/dc/dcmitype/StillImage" /></cc:Work></rdf:RDF></metadata><defs
     id="defs6" /><g
     transform="matrix(1.3333333,0,0,-1.3333333,0,2666.6667)"
     id="g10"><g
       transform="scale(0.1)"
       id="g12"><g
         transform="scale(1.22699)"
         id="g14"><path
           id="path16"
           style="fill:none;fill-opacity:1;fill-rule:nonzero;stroke:none"
           d="M 16300,0 H 0 V 16300 H 16300 V 0" /></g><path
         id="path18"
         style="fill:#3970c1;fill-opacity:1;fill-rule:nonzero;stroke:none"
         d="m 5475.21,4438.2 c 0,0 -108.74,-42.6 -134.33,-61.8 -25.58,-19.2 -29.85,-104.5 -76.76,-159.9 -46.91,-55.5 -311.3,-217.5 -516,-264.4 -204.7,-47 -392.33,-89.6 -413.65,-187.7 -21.33,-98.1 268.66,-243.1 371,-255.8 102.35,-12.8 405.13,0 724.97,-25.6 319.83,-25.6 605.56,55.4 631.14,127.9 25.59,72.5 -87.42,782.5 -87.42,782.5 l -498.95,44.8" /><path
         id="path20"
         style="fill:#3970c1;fill-opacity:1;fill-rule:nonzero;stroke:none"
         d="m 7527.99,4770.9 c 0,0 -184.93,-156.8 -303.27,-198.4 -118.34,-41.5 -374.21,-76.7 -393.4,-179.1 -19.19,-102.3 191.9,-186 313.44,-208.1 121.54,-22.1 268.66,-41.3 428.58,-92.5 159.92,-51.2 371.01,-92.8 454.16,0 83.16,92.7 -35.18,403 -38.37,422.2 -3.2,19.2 -95.96,243 -95.96,243 l -136.46,74.7 c 0,0 -90.62,-62.9 -113,-44.8 -22.4,18.1 -115.72,-17 -115.72,-17" /><path
         id="path22"
         style="fill:#fbc398;fill-opacity:1;fill-rule:nonzero;stroke:none"
         d="m 6607.44,8046 c 0,0 -351.82,-633.3 -358.22,-786.8 -6.4,-153.6 185.5,-876.4 121.54,-1273 -63.97,-396.6 -294.25,-1055.4 -345.43,-1324.1 -51.17,-268.7 -51.17,-268.7 -51.17,-268.7 l -498.95,44.8 c 0,0 6.4,754.8 0,1260.2 -6.39,505.3 63.97,1100.2 63.97,1100.2 0,0 -103.17,1074.7 -64.38,1356.1 38.79,281.5 774.42,108.7 774.42,108.7 L 6607.44,8046" /><path
         id="path24"
         style="fill:#fbc398;fill-opacity:1;fill-rule:nonzero;stroke:none"
         d="M 6914.48,8001.2 7272.7,6915.9 c 0,0 -6.4,-488.3 121.53,-929.7 127.94,-441.4 133.76,-1215.3 133.76,-1215.3 l 365.18,-12.9 c 0,0 204.7,1113.1 191.91,1490.5 -12.79,377.4 -242.23,905.5 -313.44,1272.9 -71.21,367.4 6.4,665.3 6.4,665.3 l -774.01,57.6 -89.55,-243.1" /><path
         id="path26"
         style="fill:#252323;fill-opacity:1;fill-rule:nonzero;stroke:none"
         d="m 6108.49,10860.5 c 0,0 -249.47,-607.7 -326.23,-806 -76.76,-198.3 -287.86,-710 -319.84,-1017 -31.98,-307.1 -83.16,-1068.3 -83.16,-1068.3 0,0 243.08,-25.6 646.07,-57.6 403,-32 633.28,-83.1 633.28,-83.1 l 147.12,281.4 38.38,-281.4 c 0,0 607.69,63.9 703.64,57.5 95.96,-6.4 377.41,19.2 377.41,19.2 0,0 70.36,665.3 63.97,991.5 -6.4,326.3 -76.76,441.4 -25.59,742 51.17,300.7 25.59,563 -76.76,831.6 -102.35,268.7 -121.54,377.4 -121.54,377.4 0,0 -722.83,326.3 -761.21,319.9 -38.38,-6.4 -895.54,-307.1 -895.54,-307.1" /><path
         id="path28"
         style="fill:#100f0d;fill-opacity:1;fill-rule:nonzero;stroke:none"
         d="m 7461.4,9949 c 0,0 -124.74,-393.4 -527.73,-671.7 0,0 -83.16,-790 -127.94,-1167.4 l 38.38,-281.4 516.38,48.5 c 0,0 -158.16,767.1 -71.8,1150.9 86.35,383.8 211.09,604.5 172.71,921.1" /><path
         id="path30"
         style="fill:#f5f6f5;fill-opacity:1;fill-rule:nonzero;stroke:none"
         d="m 5475.21,4438.2 c 0,0 -13.56,-188.3 41.58,-227.1 86.36,-60.7 488.84,-25.8 488.84,-25.8 l -31.47,208.1 -498.95,44.8" /><path
         id="path32"
         style="fill:#f5f6f5;fill-opacity:1;fill-rule:nonzero;stroke:none"
         d="m 5477.29,4787.9 h -0.01 c -0.84,-205 -2.07,-349.7 -2.07,-349.7 l 530.42,-252.9 c 0,0 -31.47,208.1 19.7,476.8 4.14,21.7 9.55,46.2 15.84,72.6 l -563.88,53.2" /><path
         id="path34"
         style="fill:#f5f6f5;fill-opacity:1;fill-rule:nonzero;stroke:none"
         d="m 7517.84,5052 c 9.67,-187 10.15,-281.1 10.15,-281.1 l 365.18,-12.9 c 0,0 23.07,125.5 53.21,306.3 -157.37,-11.4 -345.13,-12.5 -428.54,-12.3" /><path
         id="path36"
         style="fill:#6b6c6e;fill-opacity:1;fill-rule:nonzero;stroke:none"
         d="m 2965.58,13479.5 -1266.56,328.4 8.52,32.9 1266.55,-328.4 -8.51,-32.9" /><path
         id="path38"
         style="fill:#252323;fill-opacity:1;fill-rule:nonzero;stroke:none"
         d="m 3733.17,13862.7 c -25.58,0 -818.78,-301.6 -835.84,-315 -17.05,-13.3 12.8,-94.4 38.39,-94.4 25.58,0 1183.39,218.6 1183.39,218.6 l -385.94,190.8" /><path
         id="path40"
         style="fill:#e7a980;fill-opacity:1;fill-rule:nonzero;stroke:none"
         d="m 4125.51,14166 c 0,0 383.8,94.4 441.37,91.2 57.57,-3.2 134.33,-91.2 134.33,-91.2 0,0 169.51,9.6 262.27,-37.6 92.75,-47.1 329.43,-128.7 329.43,-128.7 0,0 76.76,-116.7 -255.87,-158.3 -332.63,-41.6 -422.19,-76.8 -518.13,-41.6 -95.96,35.2 -163.56,15.6 -204.7,44.8 -41.14,29.2 -68.48,-25.3 -130.1,83.8 -61.62,109.1 -58.6,237.6 -58.6,237.6" /><path
         id="path42"
         style="fill:#df9866;fill-opacity:1;fill-rule:nonzero;stroke:none"
         d="m 4701.21,14166 c 0,0 -106.45,-50.2 -177.8,-105.4 -71.34,-55.2 -71.34,-55.2 -71.34,-55.2 l 47.64,-58.5 252.67,219.1 h -51.17" /><path
         id="path44"
         style="fill:#fbc398;fill-opacity:1;fill-rule:nonzero;stroke:none"
         d="m 6351.57,12916 -140.73,456.3 c 0,0 -353.96,-85.3 -639.67,-89.5 -285.73,-4.3 -498.95,63.9 -498.95,63.9 0,0 -379.54,-12.8 -635.41,132.2 -255.87,145 -417.92,191.9 -417.92,191.9 0,0 -4.26,162.1 68.23,209 72.5,46.9 166.32,72.5 166.32,72.5 0,0 204.69,46.9 396.6,81 191.9,34.1 535.17,-29.9 535.17,-29.9 0,0 317.72,51.2 513.89,123.7 196.17,72.5 388.07,213.2 631.14,247.3 243.08,34.2 463.94,-21.3 658.42,10.7 0,0 220.07,-206.8 262.71,-292.1 42.65,-85.3 98.83,-93.8 109.12,-260.1 10.29,-166.3 44.4,-661 -62.21,-848.7 -106.61,-187.6 -349.69,-289.9 -486.15,-272.9 -136.47,17.1 -460.56,204.7 -460.56,204.7" /><path
         id="path46"
         style="fill:#3970c1;fill-opacity:1;fill-rule:nonzero;stroke:none"
         d="m 7140.49,14429.9 -151.83,-44.8 c 0,0 237.13,-592.7 19.64,-1021.3 -217.49,-428.6 -656.73,-447.8 -656.73,-447.8 0,0 -19.19,-680.2 -44.78,-840.1 -25.59,-159.9 -127.94,-639.7 -140.73,-735.6 -12.79,-96 -57.57,-479.8 -57.57,-479.8 0,0 550.12,-121.5 933.92,-57.6 383.81,64 722.83,44.8 722.83,44.8 0,0 -89.55,479.8 51.18,767.6 140.72,287.9 422.18,588.5 582.1,965.9 159.92,377.5 243.07,997.9 204.69,1279.4 -38.38,281.4 -209.72,563.2 -209.72,563.2 l -1253,6.1" /><g
         transform="scale(1.01608)"
         id="g48"><path
           id="path50"
           style="fill:#252323;fill-opacity:1;fill-rule:nonzero;stroke:none"
           d="m 7115.62,15926.5 c 0,0 -37.77,163.7 138.5,268.6 176.28,104.9 449.08,67.1 650.53,0 201.45,-67.2 352.55,-314.8 352.55,-314.8 0,0 109.11,-46.2 155.28,-289.6 46.17,-243.4 -239.22,-666.1 -264.41,-706.6 -25.17,-40.5 -125.9,-179 -125.9,-179 0,0 -272.81,-180.4 -352.55,-155.2 -79.75,25.1 -180.47,29.3 -251.82,121.7 -71.35,92.3 -344.16,314.7 -356.75,453.2 -12.58,138.6 54.57,801.7 54.57,801.7" /></g><path
         id="path52"
         style="fill:#fbc398;fill-opacity:1;fill-rule:nonzero;stroke:none"
         d="m 7230.05,16182.6 c 0,0 -164.19,-302.8 -166.31,-334.8 -2.14,-31.9 29.84,-140.7 25.58,-176.9 -4.26,-36.3 -70.36,-183.4 -83.16,-234.6 -12.79,-51.2 -31.98,-496.8 0,-533 31.99,-36.3 353.96,19.1 353.96,19.1 0,0 -31.99,-275 -61.84,-343.2 -29.85,-68.3 -157.79,-149.3 -157.79,-149.3 0,0 400.87,-76.8 635.41,-200.4 234.55,-123.7 294.25,-187.7 383.81,-157.8 89.55,29.8 114.38,232.7 233.78,352.1 0,0 -225.25,313.1 -233.78,415.5 -8.53,102.3 -8.53,102.3 -8.53,102.3 0,0 -238.81,-4.2 -328.37,17.1 -89.55,21.3 -162.05,99.3 -200.43,164.8 -38.38,65.5 -89.55,462.1 -110.88,509 -21.32,46.9 -106.61,21.3 -132.19,-34.1 -25.59,-55.5 -55.44,-170.6 -55.44,-170.6 0,0 -35.18,64 -35.18,108.7 0,44.8 9.59,44.8 0,83.2 -9.6,38.4 -41.58,83.1 -35.18,121.5 6.39,38.4 70.36,140.7 70.36,233.5 0,92.8 -27.72,185.5 -93.82,207.9" /><path
         id="path54"
         style="fill:#df9866;fill-opacity:1;fill-rule:nonzero;stroke:none"
         d="m 7531.42,15547.7 c 0,0 -18.85,-132.7 -50.83,-191.9 -31.99,-59.1 -129.54,-110.3 -135.93,-83.1 -6.4,27.2 62.37,36.7 100.75,118.3 38.37,81.6 66.09,241.5 66.09,241.5 l 19.92,-84.8" /><path
         id="path56"
         style="fill:#df9866;fill-opacity:1;fill-rule:nonzero;stroke:none"
         d="m 7472.59,15239.1 c 0,0 -44.24,-201.5 -112.47,-316.7 l -136.91,-19.9 c 0,0 190.21,186.3 249.38,336.6" /><path
         id="path58"
         style="fill:#df9866;fill-opacity:1;fill-rule:nonzero;stroke:none"
         d="m 6577.58,13090.8 c 37.64,-23.7 -226.01,255.9 -226.01,255.9 l -140.73,25.6 43.4,-140.7 c 0,0 161.29,-38.4 323.34,-140.8" /><path
         id="path60"
         style="fill:#fbc398;fill-opacity:1;fill-rule:nonzero;stroke:none"
         d="m 4314.21,13927.8 c 0,0 -67.16,153.5 -92.75,179.1 -25.59,25.5 -220.69,223.8 -281.46,233.4 -60.77,9.6 -137.53,-67.1 -137.53,-67.1 0,0 -79.96,-35.2 -95.95,-57.6 -15.99,-22.4 -25.59,-95.9 -25.59,-95.9 0,0 -57.57,-44.8 -57.57,-83.2 0,-38.4 0,-73.6 0,-73.6 0,0 -41.58,-79.9 -19.19,-131.1 22.39,-51.2 259.07,-179.1 294.25,-185.5 35.18,-6.4 220.69,25.6 220.69,25.6 l 195.1,255.9" /><path
         id="path62"
         style="fill:#252323;fill-opacity:1;fill-rule:nonzero;stroke:none"
         d="m 4221.46,14166 c 0,-73.4 -59.45,-132.8 -132.79,-132.8 -73.34,0 -132.79,59.4 -132.79,132.8 0,73.3 59.45,132.8 132.79,132.8 73.34,0 132.79,-59.5 132.79,-132.8" /><path
         id="path64"
         style="fill:#252323;fill-opacity:1;fill-rule:nonzero;stroke:none"
         d="m 4542.89,14128.4 c 0,-71 -57.64,-128.7 -128.73,-128.7 -71.1,0 -128.74,57.7 -128.74,128.7 0,71.2 57.64,128.8 128.74,128.8 71.09,0 128.73,-57.6 128.73,-128.8" /><path
         id="path66"
         style="fill:#2e62a5;fill-opacity:1;fill-rule:nonzero;stroke:none"
         d="m 8155.44,13372.3 c 0,0 -102.02,-468 -292.49,-899.8 -190.46,-431.8 -267.22,-642.9 -267.22,-642.9 0,0 514.93,702.6 559.71,1542.7" /><g
         transform="scale(1.07212)"
         id="g68"><path
           id="path70"
           style="fill:#fbc398;fill-opacity:1;fill-rule:nonzero;stroke:none"
           d="m 16300,14554.1 c 0,0 -301.3,381.9 -337.1,399.7 -35.8,17.9 -128.2,-41 -128.2,-41 0,0 -35.9,15.4 -86.6,5.8 -50.7,-9.5 -185,-143.3 -190.9,-162.9 -6,-19.6 0,-161.2 0,-161.2 l 159.5,-153.8 c 0,0 -19.3,-101.4 40.4,-125.3 59.7,-23.8 214.8,65.7 229.7,68.7 14.9,2.9 107.1,17.9 107.1,17.9 0,0 119.5,-17.9 131.5,-15 11.9,3 35.8,-26.8 41.8,26.9 5.9,53.7 32.8,140.2 32.8,140.2" /></g><g
         transform="scale(1.0556)"
         id="g72"><path
           id="path74"
           style="fill:#df9866;fill-opacity:1;fill-rule:nonzero;stroke:none"
           d="m 16082.4,15146.2 c 0,0 -61.7,-240.2 -57.6,-272.5 4,-32.3 90.9,-147.4 90.9,-147.4 l 184.3,47.1 c 0,0 -123.7,-39.1 -200.5,-71.4 -76.7,-32.3 -136.9,-35.3 -136.9,-35.3 l -38.1,36.7 57.9,12.8 -135.4,147.1 c 0,0 169.7,-133 177.8,-129 8.1,4.1 28.2,6.1 24.3,18.2 -4.1,12.1 -70.8,103.3 -76.9,130.4 -6,27.2 110.2,263.3 110.2,263.3" /></g><g
         transform="scale(1.12333)"
         id="g76"><path
           id="path78"
           style="fill:#fbc398;fill-opacity:1;fill-rule:nonzero;stroke:none"
           d="m 14993.6,12975.3 c 0,0 61.1,40.4 197.7,60.3 136.7,20 325.7,-7.8 325.7,-7.8 l 74,39.9 c 0,0 -94,170.8 -119.5,347.4 -25.7,176.5 -111.4,330.3 -111.4,330.3 0,0 63,14.2 122.7,71.1 59.8,57 74.1,74.1 74.1,74.1 0,0 304.6,-276.2 458.3,-393 153.8,-116.7 267.7,-372.9 276.3,-444.1 8.5,-71.2 -190.8,-307.5 -190.8,-307.5 0,0 -22.8,-165.2 -125.3,-307.5 -102.5,-142.4 -338.9,-196.5 -381.5,-216.4 -42.7,-19.9 -114,-166.1 -136.7,-242 -22.8,-76 -163.8,-369.6 -163.8,-369.6 0,0 -136.1,130.4 -208.3,297.4 -72.1,167.1 -91.5,1067.4 -91.5,1067.4" /></g><g
         transform="scale(1.03525)"
         id="g80"><path
           id="path82"
           style="fill:#252323;fill-opacity:1;fill-rule:nonzero;stroke:none"
           d="m 14911.8,15544.1 c 0,0 -60.6,153.3 95.1,280.9 155.7,127.7 426,130.9 631.3,95.2 205.4,-35.7 388.2,-253.9 388.2,-253.9 0,0 112.8,-28.8 193.1,-258.3 80.5,-229.5 -134.7,-681.5 -153.2,-724.4 -18.5,-43 -96,-192.2 -96,-192.2 0,0 -238.4,-215 -319.4,-202.3 -81.1,12.8 -179.5,2.1 -262.2,81.3 -82.8,79.2 -380.1,255.1 -412.5,387.7 -32.6,132.6 -64.4,786 -64.4,786" /></g><path
         id="path84"
         style="fill:#3970c1;fill-opacity:1;fill-rule:nonzero;stroke:none"
         d="m 14121.3,4438.2 c 0,0 -108.7,-42.6 -134.3,-61.8 -25.6,-19.2 -29.9,-104.5 -76.8,-159.9 -46.9,-55.5 -311.3,-217.5 -516,-264.4 -204.7,-47 -392.3,-89.6 -413.6,-187.7 -21.4,-98.1 268.6,-243.1 371,-255.8 102.3,-12.8 405.1,0 724.9,-25.6 319.9,-25.6 605.6,55.4 631.2,127.9 25.6,72.5 -87.4,782.5 -87.4,782.5 l -499,44.8" /><g
         transform="scale(1.02802)"
         id="g86"><path
           id="path88"
           style="fill:#3970c1;fill-opacity:1;fill-rule:nonzero;stroke:none"
           d="m 15733.2,4640.84 c 0,0 -179.9,-152.52 -295,-192.99 -115.1,-40.37 -364,-74.61 -382.7,-174.22 -18.7,-99.51 186.6,-180.92 304.9,-202.42 118.2,-21.5 261.3,-40.18 416.8,-89.98 155.7,-49.8 360.9,-90.27 441.9,0 80.9,90.17 -34.3,392.01 -37.4,410.69 -3.1,18.67 -93.3,236.37 -93.3,236.37 l -132.7,72.67 c 0,0 -88.2,-61.19 -110,-43.58 -21.8,17.61 -112.5,-16.54 -112.5,-16.54" /></g><path
         id="path90"
         style="fill:#fbc398;fill-opacity:1;fill-rule:nonzero;stroke:none"
         d="m 15253.5,8046 c 0,0 -351.8,-633.3 -358.2,-786.8 -6.4,-153.6 185.5,-876.4 121.6,-1273 -64,-396.6 -294.3,-1055.4 -345.5,-1324.1 -51.1,-268.7 -51.1,-268.7 -51.1,-268.7 l -499,44.8 c 0,0 6.4,754.8 0,1260.2 -6.4,505.3 64,1100.2 64,1100.2 0,0 -103.2,1074.7 -64.4,1356.1 38.8,281.5 774.4,108.7 774.4,108.7 l 358.2,-217.4" /><g
         transform="scale(1.02724)"
         id="g92"><path
           id="path94"
           style="fill:#fbc398;fill-opacity:1;fill-rule:nonzero;stroke:none"
           d="m 15148,7789.03 348.7,-1056.52 c 0,0 -6.2,-475.35 118.3,-905.05 124.6,-429.69 130.2,-1183.07 130.2,-1183.07 l 355.5,-12.56 c 0,0 199.3,1083.59 186.8,1450.98 -12.4,367.39 -235.8,881.49 -305.1,1239.15 -69.4,357.65 6.2,647.65 6.2,647.65 l -753.5,56.08 -87.1,-236.66" /></g><g
         transform="scale(1.02214)"
         id="g96"><path
           id="path98"
           style="fill:#252323;fill-opacity:1;fill-rule:nonzero;stroke:none"
           d="m 14435.1,10625.3 c 0,0 -244.1,-594.5 -319.2,-788.5 -75.1,-194.04 -281.6,-694.66 -312.9,-995.01 -31.3,-300.45 -81.3,-1045.17 -81.3,-1045.17 0,0 237.7,-25.04 632,-56.35 394.3,-31.31 619.6,-81.3 619.6,-81.3 l 143.9,275.31 37.5,-275.31 c 0,0 594.6,62.52 688.5,56.25 93.8,-6.26 369.2,18.79 369.2,18.79 0,0 68.8,650.89 62.6,970.03 -6.3,319.23 -75.1,431.84 -25.1,725.93 50.1,294.19 25.1,550.77 -75,813.63 -100.2,262.8 -119,369.2 -119,369.2 0,0 -707.1,319.2 -744.7,312.9 -37.5,-6.2 -876.1,-300.4 -876.1,-300.4" /></g><path
         id="path100"
         style="fill:#100f0d;fill-opacity:1;fill-rule:nonzero;stroke:none"
         d="m 16107.5,9949 c 0,0 -124.7,-393.4 -527.7,-671.7 0,0 -83.2,-790 -128,-1167.4 l 38.4,-281.4 516.4,48.5 c 0,0 -158.2,767.1 -71.8,1150.9 86.3,383.8 211.1,604.5 172.7,921.1" /><path
         id="path102"
         style="fill:#f5f6f5;fill-opacity:1;fill-rule:nonzero;stroke:none"
         d="m 14121.3,4438.2 c 0,0 -13.5,-188.3 41.6,-227.1 86.4,-60.7 488.8,-25.8 488.8,-25.8 l -31.4,208.1 -499,44.8" /><path
         id="path104"
         style="fill:#f5f6f5;fill-opacity:1;fill-rule:nonzero;stroke:none"
         d="m 14123.4,4787.9 v 0 c -0.9,-205 -2.1,-349.7 -2.1,-349.7 l 530.4,-252.9 c 0,0 -31.4,208.1 19.7,476.8 4.2,21.7 9.6,46.2 15.9,72.6 l -563.9,53.2" /><g
         transform="scale(1.01794)"
         id="g106"><path
           id="path108"
           style="fill:#f5f6f5;fill-opacity:1;fill-rule:nonzero;stroke:none"
           d="m 15879,4962.94 c 9.5,-183.7 10,-276.15 10,-276.15 l 358.7,-12.67 c 0,0 22.6,123.29 52.3,300.9 -154.6,-11.19 -339,-12.27 -421,-12.08" /></g><g
         transform="scale(1.05985)"
         id="g110"><path
           id="path112"
           style="fill:#3970c1;fill-opacity:1;fill-rule:nonzero;stroke:none"
           d="m 14894.8,13615 -143.2,-42.2 c 0,0 170.8,-326 -34.4,-730.3 -205.2,-404.4 -594.7,-480 -594.7,-480 0,0 9.8,-817.7 -14.3,-968.6 -24.2,-150.8 -120.7,-603.5 -132.8,-694 -12,-90.6 -54.3,-452.7 -54.3,-452.7 0,0 519,-114.7 881.1,-54.3 362.2,60.3 682.1,42.2 682.1,42.2 0,0 -84.5,452.7 48.2,724.3 132.9,271.6 398.4,555.2 549.3,911.3 150.9,356.1 218.2,940.3 193.1,1207.1 -36.8,392.3 -383.3,674.6 -383.3,674.6 l -105.3,33 -891.5,-170.4" /></g><path
         id="path114"
         style="fill:#6b6c6e;fill-opacity:1;fill-rule:nonzero;stroke:none"
         d="m 10338.3,13754.7 -9.5,32.7 3953.2,1153 9.5,-32.6 -3953.2,-1153.1" /><path
         id="path116"
         style="fill:#252323;fill-opacity:1;fill-rule:nonzero;stroke:none"
         d="m 15504.1,15278.4 -695,-191.8 85.3,-120.2 609.7,179.9 v 132.1" /><g
         transform="scale(1.02794)"
         id="g118"><path
           id="path120"
           style="fill:#fbc398;fill-opacity:1;fill-rule:nonzero;stroke:none"
           d="m 15017.8,15654.6 c 0,0 -114.1,-315.1 -111.5,-346.2 2.7,-31 49.2,-131 50.3,-166.5 1.2,-35.5 -41.1,-186.6 -46,-237.7 -4.8,-51.1 41.4,-482.5 77.4,-512.7 36,-30.3 337.6,69.7 337.6,69.7 0,0 9.2,-269.2 -9.6,-339.1 -18.9,-70 -130.2,-166.5 -130.2,-166.5 0,0 396.7,-15.7 640.3,-100.7 243.5,-84.9 310.3,-137.8 392.1,-96.1 81.8,41.7 -39.4,322.4 58.2,454.5 0,0 -146.4,186.7 -169.5,283.9 -23.1,97.2 -23.1,97.2 -23.1,97.2 0,0 -229.1,-38.7 -318.4,-31.2 -89.2,7.5 -170.2,72.1 -216.6,129.5 -46.4,57.4 -153.2,431.5 -180.5,473.5 -27.3,42.1 -105.6,5.1 -122.2,-52 -16.6,-57 -28.6,-172.1 -28.6,-172.1 0,0 -43.1,56.4 -49.7,99.5 -6.4,43.1 2.9,44.5 -12,80 -14.8,35.5 -52.1,74 -51.5,111.8 0.6,37.9 47.3,145.6 33.9,234.8 -13.5,89.2 -53.5,174.4 -120.4,186.4" /></g><path
         id="path122"
         style="fill:#f2d2bc;fill-opacity:1;fill-rule:nonzero;stroke:none"
         d="m 15366.1,15603.7 -22.8,65 c 8,-21.8 16.6,-45.1 22.8,-65 0,0 0,0 0,0" /><path
         id="path124"
         style="fill:#efaf81;fill-opacity:1;fill-rule:nonzero;stroke:none"
         d="m 15366.1,15603.7 c -6.2,19.9 -14.8,43.2 -22.8,65 l -0.1,0.3 c 0,0 25.6,65.8 59.7,119.1 34.1,53.3 89.3,81.1 101.2,85.3 11.8,4.3 57.1,27.1 57.1,27.1 l -9,-112.4 c 0,0 -139.8,-113 -186.1,-184.4" /><g
         transform="scale(1.00585)"
         id="g126"><path
           id="path128"
           style="fill:#3970c1;fill-opacity:1;fill-rule:nonzero;stroke:none"
           d="m 15701.8,14638.7 c 0,0 104.6,-173.3 174.8,-273.5 116.4,-166.4 423.4,-252.4 423.4,-252.4 l -482.1,-21.2 c 0,0 -173.2,4.4 -223.8,107.2 -50.5,102.7 107.7,439.9 107.7,439.9" /></g><path
         id="path130"
         style="fill:#df9866;fill-opacity:1;fill-rule:nonzero;stroke:none"
         d="m 15830.1,15509.2 c 0,0 1.2,-134.1 -21.7,-197.3 -22.8,-63.3 -111.6,-128.5 -122,-102.5 -10.3,25.9 56.2,45.6 82,132 25.8,86.4 29.4,248.6 29.4,248.6 l 32.3,-80.8" /><path
         id="path132"
         style="fill:#df9866;fill-opacity:1;fill-rule:nonzero;stroke:none"
         d="m 15817.9,15195.2 c 0,0 -13.7,-205.8 -64,-329.8 l -132.4,-40.1 c 0,0 160.3,212.5 196.4,369.9" /><g
         transform="scale(1.09926)"
         id="g134"><path
           id="path136"
           style="fill:#df9866;fill-opacity:1;fill-rule:nonzero;stroke:none"
           d="m 15932.5,13353.9 c 0,0 119.2,64 367.5,40.7 0,0 -142.3,127 -403.3,33 l 35.8,-73.7" /></g><path
         id="path138"
         style="fill:#fbc398;fill-opacity:1;fill-rule:nonzero;stroke:none"
         d="m 14967.8,13102.5 c 0,0 -35,103.5 -17.9,397.7 17,294.3 38.3,520.3 38.3,520.3 0,0 -409.4,153.5 -614,345.4 -204.7,191.9 -447.8,810.3 -366.8,959.5 81,149.3 354,278.3 354,278.3 0,0 221.7,195.1 417.9,280.4 196.1,85.3 605.5,234.5 605.5,234.5 l 178.5,-269.3 c 0,0 -314.9,-242.4 -447.1,-400.2 -132.2,-157.8 -273,-319.8 -273,-319.8 0,0 230.3,-234.6 264.4,-247.4 34.2,-12.8 187.7,51.2 392.4,34.1 204.7,-17 516.2,-248.7 219.7,-798.1 0,0 98.2,-737.1 -751.9,-1015.4" /><path
         id="path140"
         style="fill:#df9866;fill-opacity:1;fill-rule:nonzero;stroke:none"
         d="m 14988.2,14020.5 c 0,0 322,-73.6 574.7,44.8 0,0 -101.3,-118.4 -287.3,-166.3 -186.1,-48 -307.8,-128 -307.8,-128 l 20.4,249.5" /><path
         id="path142"
         style="fill:#df9866;fill-opacity:1;fill-rule:nonzero;stroke:none"
         d="m 15107.6,14881.9 c 0,0 -171.6,43.7 -325.1,27.8 0,0 125.6,55.8 225.9,56.7 l 99.2,-84.5" /><path
         id="path144"
         style="fill:#fbc398;fill-opacity:1;fill-rule:nonzero;stroke:none"
         d="m 15384.8,16118.6 122.1,46.4 c 0,0 265.5,116.7 359.8,113.5 94.4,-3.1 151.9,-167.9 156.7,-159.9 4.8,8 86.4,-265.4 72,-291 -14.4,-25.6 -87.9,-108.8 -206.3,-116.8 -118.3,-8 -380.6,104 -387,110.4 -6.4,6.4 -83,126.8 -92.7,145.5 -9.7,18.7 -24.6,151.9 -24.6,151.9" /><path
         id="path146"
         style="fill:#252323;fill-opacity:1;fill-rule:nonzero;stroke:none"
         d="m 16090.6,15988.3 c 0,-72 -55.7,-130.3 -124.4,-130.3 -68.7,0 -124.5,58.3 -124.5,130.3 0,72 55.8,130.3 124.5,130.3 68.7,0 124.4,-58.3 124.4,-130.3" /><g
         transform="scale(1.06034)"
         id="g148"><path
           id="path150"
           style="fill:#252323;fill-opacity:1;fill-rule:nonzero;stroke:none"
           d="m 16300,14826.5 c 0,-71.2 -52.6,-128.9 -117.6,-128.9 -65,0 -117.7,57.7 -117.7,128.9 0,71.3 52.7,129 117.7,129 65,0 117.6,-57.7 117.6,-129" /></g><g
         transform="scale(1.0056)"
         id="g152"><path
           id="path154"
           style="fill:#2e62a5;fill-opacity:1;fill-rule:nonzero;stroke:none"
           d="m 15568.4,13140.9 c 0,0 269.3,-110.2 451.7,-46.6 182.3,63.6 279.9,190.8 279.9,190.8 0,0 -59.4,-304.1 -335,-315.3 -275.7,-11.2 -396.6,171.1 -396.6,171.1" /></g><g
         transform="scale(1.04982)"
         id="g156"><path
           id="path158"
           style="fill:#2e62a5;fill-opacity:1;fill-rule:nonzero;stroke:none"
           d="m 15979.1,12599.6 c 0,0 117.7,-174.6 320.9,-239.6 0,0 -288.4,-73.1 -320.9,239.6" /></g><g
         transform="scale(1.02783)"
         id="g160"><path
           id="path162"
           style="fill:#2e62a5;fill-opacity:1;fill-rule:nonzero;stroke:none"
           d="m 16275.1,13101.5 c -31.9,-505.4 -224,-950.2 -224,-950.2 0,0 128.6,527 170.1,904.5 41.5,377.6 -63.4,628.6 -63.4,628.6 0,0 142.2,-188.8 117.3,-582.9" /></g><path
         id="path164"
         style="fill:#fbc398;fill-opacity:1;fill-rule:nonzero;stroke:none"
         d="m 15841.7,14553.6 c 0,0 100.8,-861.7 -456.9,-1228.3 0,0 197.2,586.5 203.6,592.9 6.4,6.4 85.1,255.4 96.9,313.2 11.9,57.8 34.4,178.9 34.4,178.9 l 122,143.3" /><path
         id="path166"
         style="fill:#f8d4bb;fill-opacity:1;fill-rule:nonzero;stroke:none"
         d="m 15500,14916 c -151.7,12.7 -275.2,-19.1 -342.9,-31.3 98.1,4 320.8,4.6 464.4,-59.4 188.6,-84.1 207.9,-372 172.7,-543.5 157.2,432.1 -111.2,619 -294.2,634.2" /></g></g></svg>