<?xml version="1.0" encoding="UTF-8" standalone="no"?>
<svg
   xmlns:dc="http://purl.org/dc/elements/1.1/"
   xmlns:cc="http://creativecommons.org/ns#"
   xmlns:rdf="http://www.w3.org/1999/02/22-rdf-syntax-ns#"
   xmlns:svg="http://www.w3.org/2000/svg"
   xmlns="http://www.w3.org/2000/svg"
   viewBox="0 0 2666.6667 2666.6667"
   height="2666.6667"
   width="2666.6667"
   xml:space="preserve"
   id="svg2"
   version="1.1"><metadata
     id="metadata8"><rdf:RDF><cc:Work
         rdf:about=""><dc:format>image/svg+xml</dc:format><dc:type
           rdf:resource="http://purl.org/dc/dcmitype/StillImage" /></cc:Work></rdf:RDF></metadata><defs
     id="defs6" /><g
     transform="matrix(1.3333333,0,0,-1.3333333,0,2666.6667)"
     id="g10"><g
       transform="scale(0.1)"
       id="g12"><g
         transform="scale(1.22699)"
         id="g14"><path
           id="path16"
           style="fill:#ffffff;fill-opacity:1;fill-rule:nonzero;stroke:none"
           d="M 16300,0 H 0 V 16300 H 16300 V 0" /></g><path
         id="path18"
         style="fill:#606163;fill-opacity:1;fill-rule:nonzero;stroke:none"
         d="m 1127.35,14999.2 v -565.1 c 0,-121.7 98.63,-220.3 220.29,-220.3 h 18.93 c 121.66,0 220.28,98.6 220.28,220.3 v 565.1 h -459.5" /><path
         id="path20"
         style="fill:#252323;fill-opacity:1;fill-rule:nonzero;stroke:none"
         d="m 1459.44,14480.1 c 0,-53.6 -43.48,-97.1 -97.12,-97.1 -53.63,0 -97.12,43.5 -97.12,97.1 0,53.7 43.49,97.1 97.12,97.1 53.64,0 97.12,-43.4 97.12,-97.1" /><path
         id="path22"
         style="fill:#606163;fill-opacity:1;fill-rule:nonzero;stroke:none"
         d="m 2158.1,14999.2 v -565.1 c 0,-121.7 98.62,-220.3 220.28,-220.3 h 18.93 c 121.66,0 220.29,98.6 220.29,220.3 v 565.1 h -459.5" /><path
         id="path24"
         style="fill:#252323;fill-opacity:1;fill-rule:nonzero;stroke:none"
         d="m 2490.19,14480.1 c 0,-53.6 -43.49,-97.1 -97.12,-97.1 -53.64,0 -97.12,43.5 -97.12,97.1 0,53.7 43.48,97.1 97.12,97.1 53.63,0 97.12,-43.4 97.12,-97.1" /><path
         id="path26"
         style="fill:#606163;fill-opacity:1;fill-rule:nonzero;stroke:none"
         d="m 2325.19,5959.3 h -660.01 v 250.9 h 660.01 v -250.9" /><path
         id="path28"
         style="fill:#fbc398;fill-opacity:1;fill-rule:nonzero;stroke:none"
         d="m 1848.98,11498.3 c 0,0 -75.2,-52.8 -86.33,-79.1 -11.14,-26.4 0,-104.8 0,-104.8 0,0 0,-119.4 13.92,-147.2 13.92,-27.8 -2.17,-69.6 26.76,-100.3 28.94,-30.6 45.65,-39 45.65,-39 v 470.4" /><path
         id="path30"
         style="fill:#454547;fill-opacity:1;fill-rule:nonzero;stroke:none"
         d="m 2848.03,6129.4 -38.96,53 1869.33,1374.3 38.96,-53 -1869.33,-1374.3" /><path
         id="path32"
         style="fill:#fbc398;fill-opacity:1;fill-rule:nonzero;stroke:none"
         d="m 4871.24,7810.1 c 0,0 18.79,-620.4 0,-739.4 -18.8,-119.1 -162.91,-413.6 -144.12,-789.5 18.8,-376 26.71,-832.6 26.71,-832.6 l 270.14,-9.6 c 0,0 28.98,272 173.09,560.2 144.12,288.2 131.59,350.9 137.86,651.7 6.26,300.7 0,382.2 0,382.2 0,0 194.24,388.5 244.37,777 50.13,388.4 -708.05,0 -708.05,0" /><path
         id="path34"
         style="fill:#e8a57b;fill-opacity:1;fill-rule:nonzero;stroke:none"
         d="m 5050.85,6831.9 c -13.88,0 -29.57,1.4 -47.33,4.8 -130.2,25.1 -84.24,142.1 -84.24,142.1 0,0 59.37,-100.1 167.19,-100.1 20.62,0 43,3.6 67.08,12.4 0,0 -14.81,-59.2 -102.7,-59.2" /><path
         id="path36"
         style="fill:#e8a57b;fill-opacity:1;fill-rule:nonzero;stroke:none"
         d="m 5098.9,6210.2 c 0,0 -54.3,325.8 142.03,530.5 0,0 -96.08,-246.5 -142.03,-530.5" /><path
         id="path38"
         style="fill:#fbc398;fill-opacity:1;fill-rule:nonzero;stroke:none"
         d="m 6922.92,7810.1 c 0,0 -18.79,-620.4 0,-739.4 18.8,-119.1 162.92,-413.6 144.12,-789.5 -18.8,-376 -22.04,-832.6 -22.04,-832.6 l -270.14,-9.6 c 0,0 -33.64,272 -177.76,560.2 -144.12,288.2 -131.58,350.9 -137.85,651.7 -6.27,300.7 0,382.2 0,382.2 0,0 -194.24,388.5 -244.37,777 -50.13,388.4 708.04,0 708.04,0" /><path
         id="path40"
         style="fill:#e8a57b;fill-opacity:1;fill-rule:nonzero;stroke:none"
         d="m 6743.31,6831.9 c -87.88,0 -102.69,59.2 -102.69,59.2 24.08,-8.8 46.46,-12.4 67.08,-12.4 107.82,0 167.19,100.1 167.19,100.1 0,0 45.95,-117 -84.24,-142.1 -17.76,-3.4 -33.45,-4.8 -47.34,-4.8" /><path
         id="path42"
         style="fill:#e8a57b;fill-opacity:1;fill-rule:nonzero;stroke:none"
         d="m 6695.27,6210.2 c -45.95,284 -142.03,530.5 -142.03,530.5 196.33,-204.7 142.03,-530.5 142.03,-530.5" /><path
         id="path44"
         style="fill:#252323;fill-opacity:1;fill-rule:nonzero;stroke:none"
         d="m 5119.79,9677.3 c 0,0 -160.83,-338.4 -248.55,-808.3 -87.72,-469.9 -62.66,-1215.6 -62.66,-1215.6 0,0 256.9,18.8 513.8,0 256.91,-18.8 313.3,0 313.3,0 0,0 175.44,908.6 187.98,927.4 12.53,18.8 156.64,31.3 156.64,31.3 l 200.52,-927.4 c 0,0 319.56,25.1 457.41,25.1 137.84,0 375.95,31.3 375.95,31.3 0,0 31.33,699.7 -100.25,1184.3 -131.59,484.6 -274.39,665 -269.44,718.5 4.95,53.5 -708.04,371.8 -783.24,390.5 -75.19,18.9 -741.46,-357.1 -741.46,-357.1" /><path
         id="path46"
         style="fill:#fbc398;fill-opacity:1;fill-rule:nonzero;stroke:none"
         d="m 5027.88,10851.1 -62.66,342.6 c 0,0 -162.91,-135.8 -432.34,-171.3 -269.44,-35.5 -645.39,0 -645.39,0 0,0 -250.64,-79.4 -609.88,-33.4 -359.25,45.9 -714.32,179.6 -714.32,179.6 v 259 c 0,0 288.23,8.3 580.64,58.5 292.41,50.1 718.5,39.8 718.5,39.8 0,0 284.05,160.7 630.76,177.4 0,0 221.4,188 401.02,246.4 179.63,58.5 321.65,71.1 321.65,71.1 l 434.44,-567.6 -129.49,-297.1 c 0,0 -64.06,-246.8 -207.47,-311.4 -143.43,-64.6 -285.46,6.4 -285.46,6.4" /><path
         id="path48"
         style="fill:#3970c0;fill-opacity:1;fill-rule:nonzero;stroke:none"
         d="m 5328.18,12049.7 -112.32,-28.9 c 0,0 80.76,-279.9 48.74,-605.7 -32.03,-325.9 -236.72,-564 -236.72,-564 0,0 41.78,-204.7 83.55,-338.3 41.77,-133.7 8.35,-835.5 8.35,-835.5 0,0 54.31,20.9 238.11,-33.4 183.8,-54.3 421.9,-75.2 689.25,-75.2 267.35,0 597.35,75.2 597.35,75.2 l 119.05,1286.6 c 0,0 -153.5,252.1 -246.71,595.4 -93.19,343.2 -22.72,565.9 -22.72,565.9 l -93.26,28.9 -1072.67,-71" /><path
         id="path50"
         style="fill:#fbc398;fill-opacity:1;fill-rule:nonzero;stroke:none"
         d="m 5602.96,12584.7 v -311.9 l -274.78,-223.1 c 0,0 132.75,-501 522.63,-523.3 389.88,-22.2 565.19,589.6 565.19,589.6 l -222.66,170.7 -13.91,323.1 -576.47,-25.1" /><path
         id="path52"
         style="fill:#de966d;fill-opacity:1;fill-rule:nonzero;stroke:none"
         d="m 5680.59,12512.5 -108.51,111 c 0,0 29.88,-242.1 108.51,-313.5 47.95,-43.6 173.92,-152.5 278.76,-116.8 104.83,35.8 111.97,49.5 111.97,49.5 v -109 c 0,0 76.25,260.9 81.01,268 4.77,7.2 41.06,113 41.06,113 l 18.5,155 -531.3,-157.2" /><path
         id="path54"
         style="fill:#252323;fill-opacity:1;fill-rule:nonzero;stroke:none"
         d="m 5510.76,12890 c 9.05,17 -31.68,62.1 -41.61,109 -9.94,47 2.27,234.6 0.64,256.4 -1.62,21.8 36.31,88.7 43.46,108.8 7.14,20.1 52.58,100.4 81.12,122.1 28.53,21.7 112.34,34.9 147.55,46.5 35.22,11.6 102.3,40 164.28,33.1 61.97,-6.8 55.24,-21.9 98.79,-25.4 43.55,-3.4 110.48,-40.5 133.87,-64 23.41,-23.5 105.36,-79 132.08,-114.2 26.72,-35.3 37.67,-199.5 31.83,-261.5 -5.85,-62 -29.53,-154.1 -29.53,-154.1 l -13.51,-41.3 c 0,0 4.81,-84.3 -0.22,-86 -5.03,-1.6 78.64,-40.4 -119.07,-44.9 -197.72,-4.5 -425.57,1.1 -425.57,1.1 0,0 -149.13,-6.3 -182.55,28.9 -33.42,35.3 -21.56,85.5 -21.56,85.5" /><path
         id="path56"
         style="fill:#fbc398;fill-opacity:1;fill-rule:nonzero;stroke:none"
         d="m 5519.81,12907 c 0,0 -12.35,3.1 -34.15,-1.8 -21.79,-5 -3.66,-122.3 11.35,-152.5 15,-30.2 36.66,-78.9 39.97,-95.6 3.3,-16.8 35.1,-33.6 35.1,-33.6 0,0 8.14,-90.5 21.46,-125.7 13.31,-35.3 103.56,-124.3 145.29,-184.7 41.74,-60.4 148.9,-85.8 224.36,-60.9 75.46,24.9 120.91,108.6 136.04,127 15.12,18.4 82.36,103.7 94.16,135.5 11.81,31.8 18.74,122.2 18.74,122.2 0,0 28.5,6.7 41.99,38.5 13.48,31.8 25.34,82 33.76,97 8.41,15.1 22.05,107.2 8.68,124 -13.36,16.8 -36.83,9 -36.83,9 0,0 -6.77,-25.6 -10.14,-30.6 -3.36,-5.1 -23.48,-11.7 -23.48,-11.7 l -3.14,82.1 c 0,0 -18.39,18.5 -26.71,40.3 -8.32,21.8 -9.83,87.1 -9.79,103.9 0.04,16.7 1.78,41.9 -9.84,82.1 -11.63,40.2 -60.14,72.2 -85.25,77.3 -25.13,5.1 -150.77,10.4 -170.87,12.1 -20.1,1.8 -30.18,-6.6 -83.81,-13.2 -53.63,-6.5 -219.53,-17.8 -237.98,-27.8 -18.46,-10 -35.37,-68.6 -38.76,-88.7 -3.41,-20.1 9.76,-115.7 8.03,-134.1 -1.72,-18.4 -15.17,-38.5 -13.53,-51.9 1.64,-13.4 1.43,-97.2 1.43,-97.2 l -15.09,-5 -20.99,64" /><path
         id="path58"
         style="fill:#2e63a1;fill-opacity:1;fill-rule:nonzero;stroke:none"
         d="m 5708.78,11924.7 c -44.65,17.2 -349.09,-44.8 -455.92,-67.3 v -6.1 c 102.55,5 384.55,18.3 401.62,14.9 20.88,-4.2 171.27,-112.8 171.27,-112.8 0,0 -62.66,150.4 -116.97,171.3" /><path
         id="path60"
         style="fill:#2e63a1;fill-opacity:1;fill-rule:nonzero;stroke:none"
         d="m 6516.83,11849.5 c 0,0 -417.72,20.9 -438.61,16.7 -20.88,-4.2 -171.26,-112.8 -171.26,-112.8 0,0 62.66,150.4 116.96,171.3 54.3,20.9 492.91,-75.2 492.91,-75.2" /><path
         id="path62"
         style="fill:#fbc398;fill-opacity:1;fill-rule:nonzero;stroke:none"
         d="m 6494.11,12091.8 83.55,-24 c 0,0 303.55,54.6 512.41,-179.3 208.86,-234 160.12,-636.4 160.12,-636.4 0,0 25.07,-238.1 -20.88,-463.7 -45.95,-225.5 -12.53,-526.3 -112.79,-747.7 -100.25,-221.4 -162.91,-426.1 -334.18,-630.7 -171.27,-204.7 -375.95,-513.9 -375.95,-513.9 l -225.58,175.5 c 0,0 129.5,158.7 175.45,405.2 45.95,246.4 75.19,572.3 204.69,760.3 0,0 -45.95,284 -4.18,526.3 41.77,242.3 111.68,350.4 111.68,350.4 0,0 -133.3,273.3 -183.06,556.7 -49.76,283.4 8.72,421.3 8.72,421.3" /><path
         id="path64"
         style="fill:#e8a57b;fill-opacity:1;fill-rule:nonzero;stroke:none"
         d="m 6876.33,10448 c 137.85,275.7 125.32,626.6 125.32,626.6 125.32,-451.2 -125.32,-626.6 -125.32,-626.6" /><path
         id="path66"
         style="fill:#e8a57b;fill-opacity:1;fill-rule:nonzero;stroke:none"
         d="m 6718.92,9765 c 74.42,121.2 44.62,357.2 44.62,357.2 C 6913.93,9859 6718.92,9765 6718.92,9765" /><path
         id="path68"
         style="fill:#de966d;fill-opacity:1;fill-rule:nonzero;stroke:none"
         d="m 6560.95,10237.1 c 0,0 111.18,-50.2 208.76,0 0,0 -70.13,-111.6 -235.53,-43.3 l 26.77,43.3" /><path
         id="path70"
         style="fill:#de966d;fill-opacity:1;fill-rule:nonzero;stroke:none"
         d="m 6769.71,11452.6 c 10.24,8.3 -43.21,-83.5 -50.79,-221.3 l -50.47,-117.5 -34.39,76.6 48.03,53.4 c 0,0 -0.21,137.8 87.62,208.8" /><path
         id="path72"
         style="fill:#e8a57b;fill-opacity:1;fill-rule:nonzero;stroke:none"
         d="m 6763.54,11682.4 c -77.28,125.3 -297.65,169.6 -297.65,169.6 0.96,0.3 1.92,0.6 2.88,0.8 0,-0.3 0.01,-0.6 0.01,-1 29.41,-1.4 48.05,-2.3 48.05,-2.3 v 0 0 c 0,0 -12.49,2.7 -33.51,7.2 18.78,4.4 36.49,6.3 53.22,6.3 159.42,0 227,-180.6 227,-180.6" /><path
         id="path74"
         style="fill:#de966d;fill-opacity:1;fill-rule:nonzero;stroke:none"
         d="m 5048.77,11453.2 c 0,0 45.95,-176 71.02,-255.4 25.06,-79.3 64.81,-84 64.81,-84 l -44.94,-92.9 c 0,0 -86.71,121.1 -95.07,180.4 l -79.37,-7.6 c 0,0 50.13,66.8 62.67,89.8 12.53,22.9 20.88,169.7 20.88,169.7" /><path
         id="path76"
         style="fill:#eca980;fill-opacity:1;fill-rule:nonzero;stroke:none"
         d="m 4318.95,11209.8 c -106.73,0 -189.18,27.2 -189.18,27.2 438.62,30.9 576.46,182.2 576.46,182.2 -97.76,-170.6 -259.83,-209.4 -387.28,-209.4" /><path
         id="path78"
         style="fill:#eca980;fill-opacity:1;fill-rule:nonzero;stroke:none"
         d="m 3416.55,11202.5 c -95.09,0 -215.39,27 -331.1,129 0,0 213.04,-88.7 513.81,-94.5 0,0 -75.25,-34.5 -182.71,-34.5" /><path
         id="path80"
         style="fill:#2e63a1;fill-opacity:1;fill-rule:nonzero;stroke:none"
         d="m 5184.6,11113.8 c 0,0 84.17,-80.5 223.42,-92.9 139.24,-12.4 348.1,26.5 348.1,26.5 0,0 -153.89,-93 -330.36,-100.8 -176.48,-7.8 -286.1,74.3 -286.1,74.3 l 44.94,92.9" /><path
         id="path82"
         style="fill:#2e63a1;fill-opacity:1;fill-rule:nonzero;stroke:none"
         d="m 6634.06,11190.4 c 0,0 -24.38,-93.6 -177.55,-145 -153.16,-51.5 -469.24,10.4 -469.24,10.4 0,0 137.16,-125.3 323.39,-130.9 186.23,-5.6 304.06,68.2 304.06,68.2 l 53.73,120.7 -34.39,76.6" /><path
         id="path84"
         style="fill:#454547;fill-opacity:1;fill-rule:nonzero;stroke:none"
         d="M 2642.66,6633.8 H 1848.98 V 5284.9 h 793.68 v 1348.9" /><path
         id="path86"
         style="fill:#606163;fill-opacity:1;fill-rule:nonzero;stroke:none"
         d="m 2068.98,14489.5 h -220 V 4409.1 h 220 v 10080.4" /><path
         id="path88"
         style="fill:#3970c0;fill-opacity:1;fill-rule:nonzero;stroke:none"
         d="m 6923.6,5334.6 c 0,0 -127.25,-52.4 -138.48,-97.4 -11.22,-44.9 -14.97,-149.7 -44.91,-205.8 -29.94,-56.1 -26.2,-104.8 0,-168.4 26.2,-63.7 52.4,-82.4 48.66,-198.4 -3.75,-116 59.88,-235.8 213.33,-250.8 153.45,-14.9 318.13,0 336.85,127.3 18.71,127.3 -94.82,314.4 -119.77,411.7 -24.95,97.3 -14.97,192.1 -24.95,217.1 -9.98,24.9 -45.99,109.2 -192.36,189.4 -140.61,77.1 -27.58,31.2 -27.58,31.2 l -50.79,-55.9" /><path
         id="path90"
         style="fill:#3970c0;fill-opacity:1;fill-rule:nonzero;stroke:none"
         d="m 4874.27,5334.6 c 0,0 127.25,-52.4 138.48,-97.4 11.22,-44.9 14.97,-149.7 44.91,-205.8 29.94,-56.1 26.2,-104.8 0,-168.4 -26.2,-63.7 -52.4,-82.4 -48.66,-198.4 3.75,-116 -59.88,-235.8 -213.33,-250.8 -153.45,-14.9 -318.13,0 -336.84,127.3 -18.72,127.3 94.81,314.4 119.76,411.7 24.95,97.3 14.97,192.1 24.95,217.1 9.99,24.9 46,109.2 192.36,189.4 140.61,77.1 27.58,31.2 27.58,31.2 l 50.79,-55.9" /><path
         id="path92"
         style="fill:#f8fcfe;fill-opacity:1;fill-rule:nonzero;stroke:none"
         d="m 4753.83,5448.6 c 5.27,-66.2 8.97,-107.3 8.97,-107.3 0,0 75.51,-4.5 86.61,-40 11.11,-35.5 33.31,-71.1 33.31,-71.1 h 124.37 c 0,0 2.62,94.6 16.88,208.8 -100.25,0 -197.26,4.8 -270.14,9.6" /><path
         id="path94"
         style="fill:#f8fcfe;fill-opacity:1;fill-rule:nonzero;stroke:none"
         d="m 7045,5448.6 c -5.26,-66.2 -8.96,-107.3 -8.96,-107.3 0,0 -75.52,-4.5 -86.62,-40 -11.1,-35.5 -33.31,-71.1 -33.31,-71.1 h -124.37 c 0,0 -2.61,94.6 -16.88,208.8 100.25,0 197.26,4.8 270.14,9.6" /><path
         id="path96"
         style="fill:#838585;fill-opacity:1;fill-rule:nonzero;stroke:none"
         d="m 2914.18,5972.1 h -271.52 v 271.5 h 271.52 v -271.5" /><path
         id="path98"
         style="fill:#838585;fill-opacity:1;fill-rule:nonzero;stroke:none"
         d="m 1030.23,15091.1 v -263.2 H 2709.5 v 263.2 H 1030.23" /><path
         id="path100"
         style="fill:#252323;fill-opacity:1;fill-rule:nonzero;stroke:none"
         d="M 2095.43,14489.5 H 1828.4 v 338.4 h 267.03 v -338.4" /><path
         id="path102"
         style="fill:#fbc398;fill-opacity:1;fill-rule:nonzero;stroke:none"
         d="m 5407.78,11858.5 c 112.84,5.1 235.61,9.9 246.7,7.7 20.88,-4.2 171.27,-112.8 171.27,-112.8 0,0 -62.66,150.4 -116.97,171.3 -31.01,11.9 -187.4,-14.3 -315.83,-39 4.68,-8.9 9.63,-18 14.83,-27.2" /><path
         id="path104"
         style="fill:#fbc398;fill-opacity:1;fill-rule:nonzero;stroke:none"
         d="m 6468.78,11851.8 c 29.41,-1.4 48.05,-2.3 48.05,-2.3 0,0 -18.42,4 -48.16,10.3 0.03,-2.7 0.06,-5.3 0.11,-8" /><path
         id="path106"
         style="fill:#fbc398;fill-opacity:1;fill-rule:nonzero;stroke:none"
         d="m 6307.51,11859.3 c 5.25,10 10.31,19.9 15.14,29.6 -124.84,23.7 -269.08,47.2 -298.73,35.8 -54.3,-20.9 -116.96,-171.3 -116.96,-171.3 0,0 150.38,108.6 171.26,112.8 10.51,2.1 121.57,-2.1 229.29,-6.9" /><path
         id="path108"
         style="fill:#eca980;fill-opacity:1;fill-rule:nonzero;stroke:none"
         d="m 5825.75,11753.4 c 0,0 -150.39,108.6 -171.27,112.8 -1.9,0.4 -7.07,0.5 -14.91,0.5 -37.93,0 -138.28,-4 -231.79,-8.2 -5.2,9.2 -10.15,18.3 -14.83,27.2 106.39,20.4 231.95,41.9 289.55,41.9 11.93,0 20.96,-0.9 26.28,-2.9 54.31,-20.9 116.97,-171.3 116.97,-171.3" /><path
         id="path110"
         style="fill:#eca980;fill-opacity:1;fill-rule:nonzero;stroke:none"
         d="m 6516.83,11849.5 c 0,0 -18.64,0.9 -48.05,2.3 -0.05,2.7 -0.08,5.3 -0.11,8 29.74,-6.3 48.16,-10.3 48.16,-10.3" /><path
         id="path112"
         style="fill:#eca980;fill-opacity:1;fill-rule:nonzero;stroke:none"
         d="m 5906.96,11753.4 c 0,0 62.66,150.4 116.96,171.3 5.32,2 14.34,2.9 26.28,2.9 54.54,0 170.02,-19.2 272.45,-38.7 -4.83,-9.7 -9.89,-19.6 -15.14,-29.6 -88.3,3.9 -178.83,7.4 -214.4,7.4 -7.82,0 -12.99,-0.1 -14.89,-0.5 -20.88,-4.2 -171.26,-112.8 -171.26,-112.8" /><path
         id="path114"
         style="fill:#606163;fill-opacity:1;fill-rule:nonzero;stroke:none"
         d="m 5199.16,7914.5 -109.02,-8.8 c 0,0 -145.8,-116.5 -158.33,-124.9 -12.53,-8.3 -233.93,-188 -233.93,-188 0,0 -96.08,-37.6 -112.79,-79.3 -16.71,-41.8 8.36,-125.4 79.37,-108.6 71.02,16.7 140.8,96 140.8,96 l 227.22,179.7 c 0,0 83.82,75.2 121.07,133.6 37.25,58.5 45.61,100.3 45.61,100.3" /><path
         id="path116"
         style="fill:#838585;fill-opacity:1;fill-rule:nonzero;stroke:none"
         d="m 5731.06,8691.5 h -38.99 c 0,0 -330,-325.9 -334.18,-350.9 -4.18,-25.1 213.04,-254.8 242.28,-254.8 29.24,0 375.96,405.1 375.96,405.1 l 84.55,16.8 c 0,0 115.96,-71.1 86.72,-119.1 -29.25,-48 -142.03,-52.2 -142.03,-52.2 0,0 -316.66,-385.8 -401.02,-380.1 -84.36,5.7 -154.56,79.3 -154.56,79.3 l -296.24,-221.4 -63.41,91.5 217.62,242.7 c 0,0 -87.72,179.6 -87.72,200.5 0,20.9 401.09,447 401.09,447 0,0 69.55,104.4 168.41,87.7 98.86,-16.7 174.05,-4.2 144.82,-75.2 -29.25,-71 -2.09,-79.3 -38.65,-96.1 -36.54,-16.7 -103.38,-58.4 -120.09,-66.8 -16.71,-8.3 -44.56,46 -44.56,46" /><path
         id="path118"
         style="fill:#fbc398;fill-opacity:1;fill-rule:nonzero;stroke:none"
         d="m 6180.82,9071.6 c 0,0 -37.6,-37.6 -146.21,-54.3 -108.61,-16.7 -245.07,-133.7 -245.07,-133.7 0,0 38.99,-47.3 38.99,-86.3 0,-39 -27.85,-89.1 -38.99,-89.1 -11.14,0 -58.48,-16.7 -58.48,-16.7 0,0 -36.2,-58.5 0,-97.5 36.21,-39 66.84,-66.9 86.33,-83.6 19.49,-16.7 80.76,-55.7 111.39,-61.2 30.64,-5.6 130.89,5.5 194.95,52.9 64.05,47.3 282.66,394 282.66,394 0,0 -29.24,190.8 -51.52,204.7 -22.28,14 -174.05,-29.2 -174.05,-29.2" /><path
         id="path120"
         style="fill:#fbc398;fill-opacity:1;fill-rule:nonzero;stroke:none"
         d="m 2563.29,11427.6 c 0,0 -93.29,12.5 -121.14,23.7 -27.85,11.1 -144.81,38.9 -189.37,44.5 -44.56,5.6 -183.8,3.3 -183.8,3.3 v -70.1 c 0,0 -105.83,-64.1 -105.83,-97.5 0,-33.4 105.83,-39 105.83,-39 l 2.79,-250.6 c 0,0 208.86,-5.6 281.27,41.8 72.4,47.3 210.25,84.9 210.25,84.9 0,0 51.52,62.7 51.52,82.1 0,19.5 -51.52,176.9 -51.52,176.9" /><path
         id="path122"
         style="fill:#de966d;fill-opacity:1;fill-rule:nonzero;stroke:none"
         d="m 2378.1,11239.6 c 0,0 -89.12,7.7 -181.02,74.8 l -128.1,-21.9 0.59,-52.9 113.59,27.4 c 0,0 114.18,-60.8 194.94,-27.4" /><path
         id="path124"
         style="fill:#454547;fill-opacity:1;fill-rule:nonzero;stroke:none"
         d="m 2410.97,6330.1 -65.74,2.4 331.4,9060.5 65.73,-2.4 -331.39,-9060.5" /><path
         id="path126"
         style="fill:#606163;fill-opacity:1;fill-rule:nonzero;stroke:none"
         d="m 1030.23,15707.9 v -616.8 h 2995.11 l 300.76,664.1 -3295.87,-47.3" /><path
         id="path128"
         style="fill:#252323;fill-opacity:1;fill-rule:nonzero;stroke:none"
         d="m 3962.68,15451.3 c 0,-50.1 -40.68,-90.8 -90.85,-90.8 -50.18,0 -90.86,40.7 -90.86,90.8 0,50.2 40.68,90.9 90.86,90.9 50.17,0 90.85,-40.7 90.85,-90.9" /><path
         id="path130"
         style="fill:#606163;fill-opacity:1;fill-rule:nonzero;stroke:none"
         d="M 3325.94,4244.8 H 1363.27 l 191.9,269.4 h 1485.68 l 285.09,-269.4" /><path
         id="path132"
         style="fill:#606163;fill-opacity:1;fill-rule:nonzero;stroke:none"
         d="m 12540.2,4244.8 h -1962.7 l 191.9,269.4 h 1485.7 l 285.1,-269.4" /><path
         id="path134"
         style="fill:#606163;fill-opacity:1;fill-rule:nonzero;stroke:none"
         d="m 10342,14999.2 v -565.1 c 0,-121.7 98.6,-220.3 220.2,-220.3 h 19 c 121.6,0 220.3,98.6 220.3,220.3 v 565.1 H 10342" /><path
         id="path136"
         style="fill:#252323;fill-opacity:1;fill-rule:nonzero;stroke:none"
         d="m 10674.1,14480.1 c 0,-53.6 -43.5,-97.1 -97.2,-97.1 -53.6,0 -97.1,43.5 -97.1,97.1 0,53.7 43.5,97.1 97.1,97.1 53.7,0 97.2,-43.4 97.2,-97.1" /><path
         id="path138"
         style="fill:#606163;fill-opacity:1;fill-rule:nonzero;stroke:none"
         d="m 11372.7,14999.2 v -565.1 c 0,-121.7 98.6,-220.3 220.3,-220.3 h 18.9 c 121.7,0 220.3,98.6 220.3,220.3 v 565.1 h -459.5" /><path
         id="path140"
         style="fill:#252323;fill-opacity:1;fill-rule:nonzero;stroke:none"
         d="m 11704.8,14480.1 c 0,-53.6 -43.5,-97.1 -97.1,-97.1 -53.7,0 -97.2,43.5 -97.2,97.1 0,53.7 43.5,97.1 97.2,97.1 53.6,0 97.1,-43.4 97.1,-97.1" /><path
         id="path142"
         style="fill:#606163;fill-opacity:1;fill-rule:nonzero;stroke:none"
         d="m 11539.8,5959.3 h -660 v 250.9 h 660 v -250.9" /><path
         id="path144"
         style="fill:#fbc398;fill-opacity:1;fill-rule:nonzero;stroke:none"
         d="m 14085.8,7810.1 c 0,0 18.8,-620.4 0,-739.4 -18.8,-119.1 -162.9,-413.6 -144.1,-789.5 18.8,-376 26.7,-832.6 26.7,-832.6 l 270.2,-9.6 c 0,0 28.9,272 173.1,560.2 144.1,288.2 131.5,350.9 137.8,651.7 6.3,300.7 0,382.2 0,382.2 0,0 194.3,388.5 244.4,777 50.1,388.4 -708.1,0 -708.1,0" /><path
         id="path146"
         style="fill:#eca980;fill-opacity:1;fill-rule:nonzero;stroke:none"
         d="m 14265.5,6831.9 c -13.9,0 -29.6,1.4 -47.4,4.8 -130.2,25.1 -84.2,142.1 -84.2,142.1 0,0 59.3,-100.1 167.2,-100.1 20.6,0 43,3.6 67.1,12.4 0,0 -14.9,-59.2 -102.7,-59.2" /><path
         id="path148"
         style="fill:#eca980;fill-opacity:1;fill-rule:nonzero;stroke:none"
         d="m 14313.5,6210.2 c 0,0 -54.3,325.8 142,530.5 0,0 -96,-246.5 -142,-530.5" /><g
         transform="scale(1.00002)"
         id="g150"><path
           id="path152"
           style="fill:#fbc398;fill-opacity:1;fill-rule:nonzero;stroke:none"
           d="m 16137.1,7809.91 c 0,0 -18.8,-620.39 0,-739.39 18.8,-119.09 162.9,-413.58 144.1,-789.48 -18.7,-375.99 -22,-832.57 -22,-832.57 l -270.1,-9.6 c 0,0 -33.7,271.99 -177.8,560.18 -144.1,288.2 -131.6,350.89 -137.8,651.68 -6.3,300.7 0,382.2 0,382.2 0,0 -194.3,388.49 -244.4,776.98 -50.1,388.39 708,0 708,0" /></g><path
         id="path154"
         style="fill:#eca980;fill-opacity:1;fill-rule:nonzero;stroke:none"
         d="m 15957.9,6831.9 c -87.9,0 -102.7,59.2 -102.7,59.2 24.1,-8.8 46.5,-12.4 67.1,-12.4 107.8,0 167.2,100.1 167.2,100.1 0,0 45.9,-117 -84.2,-142.1 -17.8,-3.4 -33.5,-4.8 -47.4,-4.8" /><path
         id="path156"
         style="fill:#eca980;fill-opacity:1;fill-rule:nonzero;stroke:none"
         d="m 15909.9,6210.2 c -46,284 -142.1,530.5 -142.1,530.5 196.4,-204.7 142.1,-530.5 142.1,-530.5" /><path
         id="path158"
         style="fill:#252323;fill-opacity:1;fill-rule:nonzero;stroke:none"
         d="m 14334.4,9677.3 c 0,0 -160.8,-338.4 -248.6,-808.3 -87.7,-469.9 -62.6,-1215.6 -62.6,-1215.6 0,0 256.9,18.8 513.8,0 256.9,-18.8 313.3,0 313.3,0 0,0 236.5,1167.9 249,1186.7 12.5,18.8 46.3,0 46.3,0 l 249.8,-1155.4 c 0,0 319.6,25.1 457.4,25.1 137.9,0 376,31.3 376,31.3 0,0 31.3,699.7 -100.3,1184.3 -131.6,484.6 -274.4,665 -269.4,718.5 4.9,53.5 -708.1,371.8 -783.2,390.5 -75.2,18.9 -741.5,-357.1 -741.5,-357.1" /><path
         id="path160"
         style="fill:#fbc398;fill-opacity:1;fill-rule:nonzero;stroke:none"
         d="m 14242.5,10851.1 -62.7,342.6 c 0,0 -162.9,-135.8 -432.3,-171.3 -269.5,-35.5 -645.4,0 -645.4,0 0,0 -250.6,-79.4 -609.9,-33.4 -359.2,45.9 -714.3,179.6 -714.3,179.6 v 259 c 0,0 288.2,8.3 580.6,58.5 292.4,50.1 718.5,39.8 718.5,39.8 0,0 284.1,160.7 630.8,177.4 0,0 221.4,188 401,246.4 179.6,58.5 321.7,71.1 321.7,71.1 l 434.4,-567.6 -129.5,-297.1 c 0,0 -64,-246.8 -207.5,-311.4 -143.4,-64.6 -285.4,6.4 -285.4,6.4" /><g
         transform="scale(1.13879)"
         id="g162"><path
           id="path164"
           style="fill:#fbc398;fill-opacity:1;fill-rule:nonzero;stroke:none"
           d="m 14062.4,9522.98 73.4,303.55 c 0,0 143,228.47 203.5,255.97 32.3,14.7 135,8.5 240,2.3 91.9,-5.4 185.4,-10.8 235.1,-2.3 106.3,18.4 348.4,117.4 359.4,121.1 11.1,3.6 282.5,48.5 451.3,134.3 168.7,85.8 674.9,500.3 674.9,500.3 l -95.4,154 c 0,0 -154.1,-106.4 -473.2,-154 -319.1,-47.7 -568.6,-193.6 -601.6,-199.5 -33,-6 -473.2,-39 -487.9,-46.3 -14.6,-7.3 -220,80.7 -436.5,80.7 -216.4,0 -319.4,-46.9 -411.2,-55 -91.9,-8.2 -274.7,-693.31 -274.7,-693.31 l 44,-331.63 353.6,-225.94 145.3,155.76" /></g><path
         id="path166"
         style="fill:#de966d;fill-opacity:1;fill-rule:nonzero;stroke:none"
         d="m 15680.5,11852 c 0,0 220.4,-44.3 297.6,-169.6 0,0 -87.3,233.5 -297.6,169.6" /><path
         id="path168"
         style="fill:#fbc398;fill-opacity:1;fill-rule:nonzero;stroke:none"
         d="m 14817.6,12584.7 v -311.9 l -289.7,-225.6 c 0,0 147.6,-498.5 537.5,-520.8 389.9,-22.2 550.1,594.3 550.1,594.3 l -207.6,166 -13.9,323.1 -576.4,-25.1" /><path
         id="path170"
         style="fill:#fbc398;fill-opacity:1;fill-rule:nonzero;stroke:none"
         d="m 14817.6,12584.7 v -311.9 l -289.7,-225.6 c 0,0 147.6,-498.5 537.5,-520.8 389.9,-22.2 550.1,594.3 550.1,594.3 l -207.6,166 -13.9,323.1 -576.4,-25.1" /><path
         id="path172"
         style="fill:#3970c0;fill-opacity:1;fill-rule:nonzero;stroke:none"
         d="m 16014.1,10844.7 c 0,0 -77.3,37.7 -215.1,459.7 -137.8,421.9 -90.3,787.4 -90.3,787.4 l -93.2,28.9 c -0.1,0 -160.2,-616.5 -550.1,-594.3 -389.9,22.3 -537.5,520.8 -537.5,520.8 v 0 l -97.4,-26.4 c 0,0 80.7,-279.9 48.7,-605.7 -32,-325.9 -236.7,-564 -236.7,-564 0,0 41.8,-204.7 83.5,-338.3 41.8,-133.7 8.4,-835.5 8.4,-835.5 0,0 54.3,20.9 238.1,-33.4 183.8,-54.3 421.9,-75.2 689.2,-75.2 267.4,0 597.4,75.2 597.4,75.2 l 14.6,513.9 c 0,0 65.2,375.8 104.4,480.3 39.3,104.4 36,206.6 36,206.6" /><path
         id="path174"
         style="fill:#de966d;fill-opacity:1;fill-rule:nonzero;stroke:none"
         d="m 14895.2,12512.5 -108.5,111 c 0,0 29.9,-242.1 108.5,-313.5 47.9,-43.6 173.9,-152.5 278.7,-116.8 104.9,35.8 112,49.5 112,49.5 v -109 c 0,0 76.3,260.9 81,268 4.8,7.2 41.1,113 41.1,113 l 18.5,155 -531.3,-157.2" /><path
         id="path176"
         style="fill:#252323;fill-opacity:1;fill-rule:nonzero;stroke:none"
         d="m 14725.4,12890 c 9,17 -31.7,62.1 -41.6,109 -10,47 2.2,234.6 0.6,256.4 -1.6,21.8 36.3,88.7 43.5,108.8 7.1,20.1 52.5,100.4 81.1,122.1 28.5,21.7 112.3,34.9 147.5,46.5 35.2,11.6 102.3,40 164.3,33.1 62,-6.8 55.2,-21.9 98.8,-25.4 43.5,-3.4 110.5,-40.5 133.9,-64 23.4,-23.5 105.3,-79 132,-114.2 26.8,-35.3 37.7,-199.5 31.9,-261.5 -5.9,-62 -29.6,-154.1 -29.6,-154.1 l -13.5,-41.3 c 0,0 4.8,-84.3 -0.2,-86 -5,-1.6 78.7,-40.4 -119.1,-44.9 -197.7,-4.5 -425.5,1.1 -425.5,1.1 0,0 -149.2,-6.3 -182.6,28.9 -33.4,35.3 -21.5,85.5 -21.5,85.5" /><path
         id="path178"
         style="fill:#fbc398;fill-opacity:1;fill-rule:nonzero;stroke:none"
         d="m 14734.4,12907 c 0,0 -12.3,3.1 -34.1,-1.8 -21.8,-5 -3.7,-122.3 11.3,-152.5 15,-30.2 36.7,-78.9 40,-95.6 3.3,-16.8 35.1,-33.6 35.1,-33.6 0,0 8.1,-90.5 21.4,-125.7 13.4,-35.3 103.6,-124.3 145.3,-184.7 41.8,-60.4 148.9,-85.8 224.4,-60.9 75.5,24.9 120.9,108.6 136,127 15.2,18.4 82.4,103.7 94.2,135.5 11.8,31.8 18.7,122.2 18.7,122.2 0,0 28.5,6.7 42,38.5 13.5,31.8 25.4,82 33.8,97 8.4,15.1 22,107.2 8.7,124 -13.4,16.8 -36.9,9 -36.9,9 0,0 -6.7,-25.6 -10.1,-30.6 -3.4,-5.1 -23.5,-11.7 -23.5,-11.7 l -3.1,82.1 c 0,0 -18.4,18.5 -26.7,40.3 -8.4,21.8 -9.9,87.1 -9.8,103.9 0,16.7 1.8,41.9 -9.9,82.1 -11.6,40.2 -60.1,72.2 -85.2,77.3 -25.1,5.1 -150.8,10.4 -170.9,12.1 -20.1,1.8 -30.2,-6.6 -83.8,-13.2 -53.6,-6.5 -219.5,-17.8 -238,-27.8 -18.4,-10 -35.3,-68.6 -38.7,-88.7 -3.4,-20.1 9.7,-115.7 8,-134.1 -1.7,-18.4 -15.2,-38.5 -13.5,-51.9 1.6,-13.4 1.4,-97.2 1.4,-97.2 l -15.1,-5 -21,64" /><path
         id="path180"
         style="fill:#2e63a1;fill-opacity:1;fill-rule:nonzero;stroke:none"
         d="m 14597.6,11883.8 c -91.9,-17.9 -167.1,-34.3 -167.1,-34.3 0,0 85.6,4.3 181.2,8.6 -4.9,8.7 -9.6,17.2 -14.1,25.7" /><path
         id="path182"
         style="fill:#de966d;fill-opacity:1;fill-rule:nonzero;stroke:none"
         d="m 15984.3,11452.6 c 10.3,8.3 -43.2,-83.5 -50.8,-221.3 l -50.5,-117.5 -34.3,76.6 48,53.4 c 0,0 -0.2,137.8 87.6,208.8" /><path
         id="path184"
         style="fill:#de966d;fill-opacity:1;fill-rule:nonzero;stroke:none"
         d="m 14263.4,11453.2 c 0,0 45.9,-176 71,-255.4 25.1,-79.3 64.8,-84 64.8,-84 l -44.9,-92.9 c 0,0 -86.8,121.1 -95.1,180.4 l -79.4,-7.6 c 0,0 50.2,66.8 62.7,89.8 12.5,22.9 20.9,169.7 20.9,169.7" /><path
         id="path186"
         style="fill:#eca980;fill-opacity:1;fill-rule:nonzero;stroke:none"
         d="m 13533.5,11209.8 c -106.7,0 -189.1,27.2 -189.1,27.2 438.6,30.9 576.4,182.2 576.4,182.2 -97.7,-170.6 -259.8,-209.4 -387.3,-209.4" /><path
         id="path188"
         style="fill:#eca980;fill-opacity:1;fill-rule:nonzero;stroke:none"
         d="m 12631.2,11202.5 c -95.1,0 -215.4,27 -331.1,129 0,0 213,-88.7 513.8,-94.5 0,0 -75.3,-34.5 -182.7,-34.5" /><path
         id="path190"
         style="fill:#fbc398;fill-opacity:1;fill-rule:nonzero;stroke:none"
         d="m 11063.6,11498.3 c 0,0 -75.2,-52.8 -86.4,-79.1 -11.1,-26.4 0,-104.8 0,-104.8 0,0 0,-119.4 14,-147.2 13.9,-27.8 -2.2,-69.6 26.7,-100.3 29,-30.6 45.7,-39 45.7,-39 v 470.4" /><path
         id="path192"
         style="fill:#2e63a1;fill-opacity:1;fill-rule:nonzero;stroke:none"
         d="m 14399.2,11113.8 c 0,0 84.2,-80.5 223.4,-92.9 139.3,-12.4 348.1,26.5 348.1,26.5 0,0 -153.9,-93 -330.3,-100.8 -176.5,-7.8 -286.1,74.3 -286.1,74.3 l 44.9,92.9" /><path
         id="path194"
         style="fill:#2e63a1;fill-opacity:1;fill-rule:nonzero;stroke:none"
         d="m 15848.7,11190.4 c 0,0 -24.4,-93.6 -177.6,-145 -153.2,-51.5 -469.2,10.4 -469.2,10.4 0,0 137.1,-125.3 323.4,-130.9 186.2,-5.6 304,68.2 304,68.2 l 53.7,120.7 -34.3,76.6" /><path
         id="path196"
         style="fill:#454547;fill-opacity:1;fill-rule:nonzero;stroke:none"
         d="m 11857.3,6633.8 h -793.7 V 5284.9 h 793.7 v 1348.9" /><g
         transform="scale(1.01671)"
         id="g198"><path
           id="path200"
           style="fill:#3970c0;fill-opacity:1;fill-rule:nonzero;stroke:none"
           d="m 15872.9,5246.92 c 0,0 -125.1,-51.55 -136.2,-95.81 -11,-44.16 -14.6,-147.23 -44.2,-202.41 -29.4,-55.18 -25.7,-103.08 0,-165.63 25.8,-62.66 51.6,-81.05 47.9,-195.14 -3.7,-114.09 58.9,-231.93 209.8,-246.68 151,-14.65 312.9,0 331.4,125.21 18.4,125.2 -93.3,309.23 -117.8,404.93 -24.6,95.7 -14.8,188.94 -24.6,213.53 -9.8,24.49 -45.3,107.41 -189.2,186.29 -138.2,75.83 -27.1,30.69 -27.1,30.69 l -50,-54.98" /></g><path
         id="path202"
         style="fill:#3970c0;fill-opacity:1;fill-rule:nonzero;stroke:none"
         d="m 14088.9,5334.6 c 0,0 127.2,-52.4 138.5,-97.4 11.2,-44.9 14.9,-149.7 44.9,-205.8 29.9,-56.1 26.2,-104.8 0,-168.4 -26.2,-63.7 -52.4,-82.4 -48.7,-198.4 3.8,-116 -59.9,-235.8 -213.3,-250.8 -153.5,-14.9 -318.2,0 -336.9,127.3 -18.7,127.3 94.8,314.4 119.8,411.7 24.9,97.3 15,192.1 24.9,217.1 10,24.9 46,109.2 192.4,189.4 140.6,77.1 27.6,31.2 27.6,31.2 l 50.8,-55.9" /><path
         id="path204"
         style="fill:#f8fcfe;fill-opacity:1;fill-rule:nonzero;stroke:none"
         d="m 13968.4,5448.6 c 5.3,-66.2 9,-107.3 9,-107.3 0,0 75.5,-4.5 86.6,-40 11.1,-35.5 33.3,-71.1 33.3,-71.1 h 124.4 c 0,0 2.6,94.6 16.9,208.8 -100.3,0 -197.3,4.8 -270.2,9.6" /><path
         id="path206"
         style="fill:#f8fcfe;fill-opacity:1;fill-rule:nonzero;stroke:none"
         d="m 16259.6,5448.6 c -5.3,-66.2 -9,-107.3 -9,-107.3 0,0 -75.5,-4.5 -86.6,-40 -11.1,-35.5 -33.3,-71.1 -33.3,-71.1 h -124.4 c 0,0 -2.6,94.6 -16.8,208.8 100.2,0 197.2,4.8 270.1,9.6" /><g
         transform="scale(1.07934)"
         id="g208"><path
           id="path210"
           style="fill:#454547;fill-opacity:1;fill-rule:nonzero;stroke:none"
           d="m 11195.2,5637.53 -58,47.35 5121.5,4769.02 41.3,-44.8 -5104.8,-4771.57" /></g><path
         id="path212"
         style="fill:#838585;fill-opacity:1;fill-rule:nonzero;stroke:none"
         d="m 10244.8,15091.1 v -263.2 h 1679.3 v 263.2 h -1679.3" /><path
         id="path214"
         style="fill:#252323;fill-opacity:1;fill-rule:nonzero;stroke:none"
         d="m 11310,14489.5 h -267 v 338.4 h 267 v -338.4" /><g
         transform="scale(1.02834)"
         id="g216"><path
           id="path218"
           style="fill:#eca980;fill-opacity:1;fill-rule:nonzero;stroke:none"
           d="m 16106.8,11535.6 c -7.7,0 92.5,56 107.8,194.5 l 57.4,7.7 c 0,0 28,-143.8 -163,-201.7 -1.1,-0.3 -1.8,-0.5 -2.2,-0.5" /></g><g
         transform="scale(1.05627)"
         id="g220"><path
           id="path222"
           style="fill:#eca980;fill-opacity:1;fill-rule:nonzero;stroke:none"
           d="m 16049.4,11101.8 c -68,0 -152.2,11.7 -255.6,43.8 -3.1,0.9 -1.3,1.3 4.6,1.3 8.4,0 24.5,-0.7 46.6,-1.4 22.1,-0.6 50,-1.3 81.9,-1.3 105.6,0 253.9,7.3 373.1,46.4 0,0 -63.8,-88.8 -250.6,-88.8" /></g><g
         transform="scale(1.0977)"
         id="g224"><path
           id="path226"
           style="fill:#eca980;fill-opacity:1;fill-rule:nonzero;stroke:none"
           d="m 16004.6,10830.5 c -16.9,0 -34.7,0.8 -53.4,2.4 0,0 233.5,26.6 348.8,178.8 0,0 -35.8,-181.2 -295.4,-181.2" /></g><g
         transform="scale(1.16459)"
         id="g228"><path
           id="path230"
           style="fill:#fbc398;fill-opacity:1;fill-rule:nonzero;stroke:none"
           d="m 15938.9,10598.1 c 0,0 35.8,-28.7 43,-31.1 7.3,-2.4 26.3,0 26.3,0 0,0 35.9,-38.3 52.7,-40.7 16.7,-2.4 40.6,0 40.6,0 l 43.1,-21.5 112.4,112.4 c 0,0 43,71.7 14.3,153 -28.7,81.3 -188.9,200.3 -217.7,204.2 -28.6,3.9 -137.2,-26.2 -137.2,-26.2 l 44,-34.5 c 0,0 -127.1,-64.5 -134,-69.3 -7.1,-4.8 43.1,-35.9 43.1,-35.9 l -23.8,-59.8 -2.4,-157.8 95.6,7.2" /></g><g
         transform="scale(1.14533)"
         id="g232"><path
           id="path234"
           style="fill:#de966d;fill-opacity:1;fill-rule:nonzero;stroke:none"
           d="m 16207,10973.3 c 0,0 60.2,-67.5 63.8,-80.3 3.7,-12.7 -71.1,-82 -63.8,-116.7 0,0 89.3,93 91.2,113.1 1.8,20.1 -77.8,123.1 -77.8,123.1 l -13.4,-39.2" /></g><path
         id="path236"
         style="fill:#eca980;fill-opacity:1;fill-rule:nonzero;stroke:none"
         d="m 15040.3,11753.4 c 0,0 -150.3,108.6 -171.2,112.8 -1.9,0.4 -7.1,0.5 -14.9,0.5 -39.4,0 -146,-4.3 -242.5,-8.6 v 0 0 c -4.9,8.7 -9.6,17.2 -14.1,25.7 108.4,21 240.1,43.8 299.5,43.8 11.9,0 21,-0.9 26.3,-2.9 54.3,-20.9 116.9,-171.3 116.9,-171.3" /><path
         id="path238"
         style="fill:#eca980;fill-opacity:1;fill-rule:nonzero;stroke:none"
         d="m 15121.6,11753.4 c 0,0 62.6,150.4 116.9,171.3 5.3,2 14.4,2.9 26.3,2.9 52.8,0 162.6,-18 262.4,-36.7 -5,-10.3 -10.3,-20.7 -15.8,-31.1 -84.8,3.7 -169.6,6.9 -203.7,6.9 -7.8,0 -13,-0.1 -14.9,-0.5 -20.9,-4.2 -171.2,-112.8 -171.2,-112.8" /><path
         id="path240"
         style="fill:#de966d;fill-opacity:1;fill-rule:nonzero;stroke:none"
         d="m 15731.4,11849.5 c 0,0 -10.8,0.5 -29,1.4 -0.1,1.6 -0.2,3.3 -0.2,4.9 18.4,-3.9 29.2,-6.3 29.2,-6.3" /><g
         transform="scale(1.10434)"
         id="g242"><path
           id="path244"
           style="fill:#606163;fill-opacity:1;fill-rule:nonzero;stroke:none"
           d="m 16300,10561.7 -98.1,-14.3 c 0,0 -124.8,-113.9 -135.7,-122.1 -10.9,-8.3 -200.4,-183.6 -200.4,-183.6 0,0 -84.6,-39.6 -97.2,-78.3 -12.6,-38.8 38.5,-119 101.7,-99.7 63.2,19.2 97.9,101.3 97.9,101.3 l 194.9,175.6 c 0,0 71.2,72.8 101.5,127.9 30.2,55 35.4,93.2 35.4,93.2" /></g><g
         transform="scale(1.16493)"
         id="g246"><path
           id="path248"
           style="fill:#838585;fill-opacity:1;fill-rule:nonzero;stroke:none"
           d="m 15955.8,10910.6 c 0,0 -2.3,-95.7 -21.5,-122 -19.1,-26.3 -105.2,0 -105.2,0 0,0 -236.7,-325.1 -236.7,-353.8 0,-28.6 205.6,-226.8 253.4,-229.3 47.8,-2.6 332.3,277.1 332.3,277.1 v 52.6 l 74.2,78.9 c 0,0 47.7,-117.1 26.2,-157.7 -21.5,-40.7 -404,-365.8 -420.7,-368.2 -16.7,-2.4 -131.5,52.6 -150.6,40.6 -19.2,-11.9 -288.5,-204.77 -288.5,-204.77 l -59.4,74.81 c 0,0 204.4,235.16 206.8,247.16 2.4,11.9 -102.7,133.9 -86.1,200.8 16.8,66.9 253.4,425.5 265.5,437.5 11.9,11.9 50.1,76.5 93.2,86 43,9.6 117.1,-59.7 117.1,-59.7" /></g><path
         id="path250"
         style="fill:#838585;fill-opacity:1;fill-rule:nonzero;stroke:none"
         d="m 12128.8,5972.1 h -271.5 v 271.5 h 271.5 v -271.5" /><path
         id="path252"
         style="fill:#606163;fill-opacity:1;fill-rule:nonzero;stroke:none"
         d="m 11063.2,4409.1 h 220 v 10080.4 h -220 z" /><path
         id="path254"
         style="fill:#fbc398;fill-opacity:1;fill-rule:nonzero;stroke:none"
         d="m 11777.9,11427.6 c 0,0 -93.3,12.5 -121.1,23.7 -27.9,11.1 -144.9,38.9 -189.4,44.5 -44.6,5.6 -183.8,3.3 -183.8,3.3 v -70.1 c 0,0 -105.8,-64.1 -105.8,-97.5 0,-33.4 105.8,-39 105.8,-39 l 2.8,-250.6 c 0,0 208.8,-5.6 281.2,41.8 72.4,47.3 210.3,84.9 210.3,84.9 0,0 51.5,62.7 51.5,82.1 0,19.5 -51.5,176.9 -51.5,176.9" /><path
         id="path256"
         style="fill:#eec6b1;fill-opacity:1;fill-rule:nonzero;stroke:none"
         d="m 11284.2,11239.6 -0.6,52.9 0.6,-52.9 v 0" /><path
         id="path258"
         style="fill:#eca980;fill-opacity:1;fill-rule:nonzero;stroke:none"
         d="m 11537.3,11229.6 c -69.3,0 -139.5,37.4 -139.5,37.4 l -113.6,-27.4 -0.6,52.9 128.1,21.9 c 91.9,-67.1 181,-74.8 181,-74.8 -17.4,-7.2 -36.4,-10 -55.4,-10" /><path
         id="path260"
         style="fill:#454547;fill-opacity:1;fill-rule:nonzero;stroke:none"
         d="m 11625.6,6330.1 -65.8,2.4 331.4,9060.5 65.8,-2.4 -331.4,-9060.5" /><path
         id="path262"
         style="fill:#606163;fill-opacity:1;fill-rule:nonzero;stroke:none"
         d="m 10244.8,15707.9 v -616.8 h 2995.1 l 300.8,664.1 -3295.9,-47.3" /><path
         id="path264"
         style="fill:#252323;fill-opacity:1;fill-rule:nonzero;stroke:none"
         d="m 13177.3,15451.3 c 0,-50.1 -40.7,-90.8 -90.9,-90.8 -50.1,0 -90.8,40.7 -90.8,90.8 0,50.2 40.7,90.9 90.8,90.9 50.2,0 90.9,-40.7 90.9,-90.9" /></g></g></svg>