<?xml version="1.0" encoding="UTF-8" standalone="no"?>
<svg
   xmlns:dc="http://purl.org/dc/elements/1.1/"
   xmlns:cc="http://creativecommons.org/ns#"
   xmlns:rdf="http://www.w3.org/1999/02/22-rdf-syntax-ns#"
   xmlns:svg="http://www.w3.org/2000/svg"
   xmlns="http://www.w3.org/2000/svg"
   viewBox="0 0 2666.6667 2666.6667"
   height="2666.6667"
   width="2666.6667"
   xml:space="preserve"
   id="svg2"
   version="1.1"><metadata
     id="metadata8"><rdf:RDF><cc:Work
         rdf:about=""><dc:format>image/svg+xml</dc:format><dc:type
           rdf:resource="http://purl.org/dc/dcmitype/StillImage" /></cc:Work></rdf:RDF></metadata><defs
     id="defs6" /><g
     transform="matrix(1.3333333,0,0,-1.3333333,0,2666.6667)"
     id="g10"><g
       transform="scale(0.1)"
       id="g12"><g
         transform="scale(1.22699)"
         id="g14"><path
           id="path16"
           style="fill:none;fill-opacity:1;fill-rule:nonzero;stroke:none"
           d="M 16300,0 H 0 V 16300 H 16300 V 0" /></g><path
         id="path18"
         style="fill:#252323;fill-opacity:1;fill-rule:nonzero;stroke:none"
         d="m 5430.63,5042.2 98.7,174.1 c 0,0 817.86,199.5 1353.7,270 535.84,70.6 1621.62,28.3 1720.33,0 98.71,-28.2 133.96,-202.8 133.96,-202.8 L 6255.54,5042.2 h -824.91" /><path
         id="path20"
         style="fill:#6e6f71;fill-opacity:1;fill-rule:nonzero;stroke:none"
         d="m 4789.03,4661.4 -74.34,186.5 c 0,0 81.38,123.8 398.66,236.6 317.28,112.8 415.98,131.8 415.98,131.8 l 726.21,-75.4 c 0,0 -790.76,-374.2 -839.02,-380.8 -48.25,-6.5 -627.49,-98.7 -627.49,-98.7" /><path
         id="path22"
         style="fill:#c9c8c6;fill-opacity:1;fill-rule:nonzero;stroke:none"
         d="m 8370.69,5359.4 232.67,126.9 352.53,-44.6 98.7,-1066.8 c 0,0 -253.81,-581 -958.87,-672.5 -705.05,-91.5 -1438.3,-197.8 -1903.64,-162.3 -465.33,35.6 -754.4,14.4 -817.86,169.5 -63.45,155.1 -74.54,485.1 -16.11,767.8 58.41,282.7 347.49,400.5 375.69,461.5 28.2,61 1325.5,254.2 1396,277.4 70.51,23.3 1240.89,143.1 1240.89,143.1" /><path
         id="path24"
         style="fill:#d4d4d2;fill-opacity:1;fill-rule:nonzero;stroke:none"
         d="m 5169.76,4675.5 204.46,239.8 881.32,225.6 v -98.7 l -542.89,-211.5 -162.17,-838.1 c 0,0 -141.01,-343.8 -176.26,-283 -35.26,60.8 -260.87,-35.2 -303.18,162.2 -42.29,197.4 98.72,803.7 98.72,803.7" /><path
         id="path26"
         style="fill:#878888;fill-opacity:1;fill-rule:nonzero;stroke:none"
         d="m 5338.96,3770.4 v 187.1 l 35.26,957.8 c 0,0 -430.08,14.1 -535.84,0 -105.76,-14.1 -155.11,-91.7 -204.46,-218.6 -49.36,-126.9 -123.39,-704.1 -123.39,-704.1 l 431.84,-346.4 396.59,124.2" /><path
         id="path28"
         style="fill:#100f0d;fill-opacity:1;fill-rule:nonzero;stroke:none"
         d="m 9682.09,4449.9 c -121.71,44.9 -621.67,83.9 -712.1,90.6 v -222.2 h -554.64 v 40.3 c -505.18,-66.8 -1349.49,-178.7 -1372.5,-183.6 -32.91,-7.1 -385.43,14.1 -681.56,-28.3 -296.12,-42.3 -810.81,-154.1 -810.81,-154.1 l -211.51,-35.1 -828.44,35.1 -63.45,-543.9 c 0,0 1152.76,-296.1 1184.48,-306.6 31.73,-10.6 2538.2,-190.4 3394.83,-169.3 v 567.3 l 824.91,289.4 148.07,430.1 c 0,0 -183.32,141 -317.28,190.3" /><path
         id="path30"
         style="fill:#d4d4d2;fill-opacity:1;fill-rule:nonzero;stroke:none"
         d="m 8737.32,5283.5 h 133.96 L 8958.8,4392 c 0,0 43.15,-23 95.79,-8.7 l -98.7,1058.4 -352.53,44.6 -125.7,-68.5 c 160.55,-78.9 259.66,-134.3 259.66,-134.3" /><path
         id="path32"
         style="fill:#100f0d;fill-opacity:1;fill-rule:nonzero;stroke:none"
         d="m 10340.2,5090 -361.76,-11 -4.99,164.4 361.75,11 5,-164.4" /><path
         id="path34"
         style="fill:#100f0d;fill-opacity:1;fill-rule:nonzero;stroke:none"
         d="m 10059.3,5119.7 -2280.85,-59.9 70.51,81.1 2235.04,75.4 -24.7,-96.6" /><path
         id="path36"
         style="fill:#100f0d;fill-opacity:1;fill-rule:nonzero;stroke:none"
         d="m 7223.22,4306.6 -702.12,545.2 c 0,0 -70.5,7 -94,-84.6 l 705.05,-606.4 91.07,145.8" /><path
         id="path38"
         style="fill:#252323;fill-opacity:1;fill-rule:nonzero;stroke:none"
         d="m 7588.09,4374.7 c -14.11,4.7 -545.24,-79.9 -545.24,-79.9 v -319.6 c 0,0 648.64,-408.9 916.56,-432.4 267.92,-23.6 827.26,117.5 827.26,117.5 v 446.5 l -592.24,268.1 -606.34,-0.2" /><path
         id="path40"
         style="fill:#252323;fill-opacity:1;fill-rule:nonzero;stroke:none"
         d="m 10159.2,5719 742.6,23.5 v -502.9 l -1945.91,-98.7 v 187 l 235.01,24.5 c 0,0 258.52,296.1 272.63,305.5 14.1,9.4 695.67,61.1 695.67,61.1" /><path
         id="path42"
         style="fill:#252323;fill-opacity:1;fill-rule:nonzero;stroke:none"
         d="m 11053.3,2708.4 c 0,0 -324.2,-222.1 -355.9,-253.8 -31.8,-31.7 -52.9,-475.9 -52.9,-475.9 0,0 1385.4,-359.6 1628.7,-338.4 243.2,21.1 3225.6,835.5 3267.9,898.9 42.3,63.5 -42.3,486.5 -42.3,486.5 l -1345.6,479 -2395.1,-80.1 -704.8,-716.2" /><path
         id="path44"
         style="fill:#252323;fill-opacity:1;fill-rule:nonzero;stroke:none"
         d="m 11793,6882.4 c 0,0 352.3,246.7 1045.5,310.2 693.2,63.4 789.5,68.1 789.5,68.1 l 28.2,-216.2 780.3,103.4 71.7,-632.2 c 0,0 144.5,-832.3 67,-990.8 -77.6,-158.4 709.4,-784.5 -706.4,-302.3 -1415.9,482.3 -1733.1,975.8 -1733.1,975.8 l -342.7,684" /><path
         id="path46"
         style="fill:#7e7f81;fill-opacity:1;fill-rule:nonzero;stroke:none"
         d="m 12561.1,11476.9 c 0,0 -61.1,-347.8 141,-535.8 202.1,-188 921.2,-507.6 921.2,-507.6 l -265.5,-202.1 c 0,0 -712.1,305.5 -904.9,545.2 -192.7,239.7 -173.9,733.3 -173.9,733.3 l 282.1,-33" /><path
         id="path48"
         style="fill:#434244;fill-opacity:1;fill-rule:nonzero;stroke:none"
         d="m 12479.3,10746.8 c 20.8,67.1 77.2,162.5 229.9,187.9 -2.5,2.2 -4.9,4.3 -7.1,6.4 -202.1,188 -141,535.8 -141,535.8 l -282.1,33 c 0,0 -18.8,-493.6 173.9,-733.3 8,-9.8 16.8,-19.8 26.4,-29.8" /><path
         id="path50"
         style="fill:#878888;fill-opacity:1;fill-rule:nonzero;stroke:none"
         d="m 12065.2,11373.5 225.6,-0.9 h 1614.7 l 944.6,1104.5 -1960,313.6 -1024.7,-1262 c 0,0 42.3,-117.6 199.8,-155.2" /><path
         id="path52"
         style="fill:#6e6f71;fill-opacity:1;fill-rule:nonzero;stroke:none"
         d="m 13347.4,12717.5 c -33.2,-164.4 -133,-307.5 -133,-307.5 l -887.5,-1037.4 h 1578.6 l 944.6,1104.5 -1502.7,240.4" /><path
         id="path54"
         style="fill:#fbc398;fill-opacity:1;fill-rule:nonzero;stroke:none"
         d="m 7522.28,9484 c 0,0 0,-244.4 56.41,-596.9 56.4,-352.6 98.7,-554.7 75.2,-733.3 -23.5,-178.6 -291.42,-484.1 -399.53,-841.4 -108.11,-357.2 9.4,-1085.7 75.21,-1452.4 65.8,-366.6 105.92,-775.5 105.92,-775.5 h 486.32 c 0,0 37.6,705 131.61,1236.2 94.01,531.1 103.41,808.4 141.01,963.5 37.6,155.1 286.72,554.7 338.43,770.9 51.7,216.2 70.5,324.3 70.5,324.3 0,0 150.41,225.6 225.62,484.2 75.2,258.5 94,620.4 94,620.4 0,0 -488.83,235 -653.34,239.7 -164.52,4.7 -747.36,-239.7 -747.36,-239.7" /><path
         id="path56"
         style="fill:#fbc398;fill-opacity:1;fill-rule:nonzero;stroke:none"
         d="m 9444.73,9455.8 c 0,0 131.6,-244.4 329.02,-446.5 197.41,-202.2 413.65,-493.6 432.45,-550 18.8,-56.4 -235.04,-164.5 -437.15,-329 -202.12,-164.5 -310.23,-380.7 -347.83,-705.1 -37.6,-324.3 -126.91,-836.6 -164.51,-1001.1 -37.6,-164.5 -65.81,-258.6 -65.81,-258.6 l 508.14,-89.3 c 0,0 497.76,822.6 737.46,1222.1 239.7,399.6 324.3,700.4 324.3,700.4 0,0 164.5,159.8 249.1,408.9 84.7,249.1 23.5,597 0,780.3 -23.5,183.3 -103.4,601.6 -239.7,855.4 -136.3,253.9 -267.9,103.5 -502.9,61.1 -235,-42.3 -822.57,-648.6 -822.57,-648.6" /><path
         id="path58"
         style="fill:#7e7f81;fill-opacity:1;fill-rule:nonzero;stroke:none"
         d="m 12019.3,9533.3 v -296.1 l 655.7,55.4 222.6,-38.8 -948.8,-83.5 v 292.4 l 70.5,70.6" /><path
         id="path60"
         style="fill:#252323;fill-opacity:1;fill-rule:nonzero;stroke:none"
         d="m 11053.3,10055.1 172.9,-176.3 430,-155 42.3,-289.2 628.4,70.5 v -144.5 l 1261.6,-236.2 c 0,0 168.8,310.4 147.6,599.4 -21.1,289 -274.9,733.2 -274.9,733.2 0,0 -1191.6,-282.1 -1445.4,-437.2 l -698,167.5 -264.5,-132.2" /><path
         id="path62"
         style="fill:#252323;fill-opacity:1;fill-rule:nonzero;stroke:none"
         d="m 8102.77,12586.2 c 0,0 -133.96,-190.3 -207.98,-296.1 -74.04,-105.7 -285.55,-1047 -306.7,-1237.4 -21.16,-190.3 -158.64,-1596.9 -158.64,-1596.9 0,0 507.63,-95.2 951.82,-95.2 444.18,0 581.67,0 581.67,0 l 25.85,1110.5 c 0,0 56.41,-56.4 65.8,-70.5 9.4,-14.1 148.07,-542.9 218.57,-740.3 70.51,-197.5 155.11,-299.7 155.11,-299.7 0,0 451.24,137.5 860.13,306.7 409,169.2 567.6,321.9 567.6,321.9 0,0 -257.3,668.7 -454.7,984.2 -197.5,315.5 -324.4,654 -359.6,724.5 -35.3,70.5 -14.1,472.4 -14.1,472.4 0,0 -867.25,359.5 -930.7,415.9 -63.46,56.4 -994.13,0 -994.13,0" /><path
         id="path64"
         style="fill:#100f0d;fill-opacity:1;fill-rule:nonzero;stroke:none"
         d="m 8206.97,12514.2 c 0,0 325.89,-238.2 741.87,-347.7 309.89,-81.5 829.06,-119.7 1073.76,-133.9 1.8,77.6 5,137.7 5,137.7 0,0 -867.25,359.5 -930.7,415.9 -52.44,46.6 -697.01,16.2 -919.31,4.2 17.83,-45.6 29.38,-76.2 29.38,-76.2" /><path
         id="path66"
         style="fill:#100f0d;fill-opacity:1;fill-rule:nonzero;stroke:none"
         d="m 9174.45,10731.9 c 21.16,204.5 280.85,458.3 280.85,458.3 l -435.95,-253.8 -30.56,-465.3 c 0,0 56.41,-56.4 65.8,-70.5 9.4,-14.1 148.07,-542.9 218.57,-740.3 70.51,-197.5 155.11,-299.7 155.11,-299.7 0,0 78.6,24 199.69,64.1 -189.35,417.7 -469.33,1154.3 -453.51,1307.2" /><path
         id="path68"
         style="fill:#7e7f81;fill-opacity:1;fill-rule:nonzero;stroke:none"
         d="m 9627.96,10800.1 1689.84,-612.8 c 0,0 -98.7,-104 -91.6,-308.5 l -1770.9,700.4 -69.33,138.6 241.99,82.3" /><path
         id="path70"
         style="fill:#fbc398;fill-opacity:1;fill-rule:nonzero;stroke:none"
         d="m 10441.2,15914.1 c 0,0 249.1,-18.8 455.9,-235 206.8,-216.2 291.5,-517.1 324.4,-770.9 0,0 225.6,-390.1 333.7,-582.8 108.1,-192.7 235,-333.8 235,-333.8 0,0 300.8,-89.3 498.2,-324.3 197.4,-235 376.1,-470 554.7,-629.8 178.6,-159.8 329,-188.1 296.1,-211.6 -32.9,-23.5 -338.4,-178.6 -338.4,-178.6 0,0 -225.6,94.1 -639.3,225.6 -413.6,131.7 -775.5,521.8 -860.1,620.5 -84.6,98.7 -582.9,493.5 -756.8,691 -173.9,197.4 -202.1,996.4 -202.1,1038.7 0,42.3 98.7,691 98.7,691" /><path
         id="path72"
         style="fill:#3a70c0;fill-opacity:1;fill-rule:nonzero;stroke:none"
         d="m 8852.48,16097.4 -397.18,-176.3 -98.71,-1445.3 -84.6,-1085.8 c 0,0 -169.22,-782.6 -169.22,-803.8 0,-21.1 352.53,-246.7 944.77,-345.4 592.25,-98.7 980.06,-70.5 980.06,-70.5 0,0 255.3,839 293.3,895.4 38,56.4 186.1,810.8 186.1,810.8 0,0 169.2,223.2 225.6,331.4 56.4,108.1 75.2,770.8 75.2,770.8 0,0 -162.7,177.3 -256.7,374.7 -94,197.4 -109.9,560.7 -109.9,560.7 l -122.2,9.4 -1466.52,173.9" /><g
         transform="scale(1.05184)"
         id="g74"><path
           id="path76"
           style="fill:#fbc398;fill-opacity:1;fill-rule:nonzero;stroke:none"
           d="m 8913.22,15920.1 c 0,0 -46.85,-264.2 -117.23,-361.4 -70.38,-97.2 -379.84,-254.7 -379.84,-254.7 0,0 297.02,-241.3 497.07,-612.2 200.04,-370.9 386.91,-490.5 626.79,-436.9 254.69,57 270.38,883.7 270.38,883.7 0,0 -65.89,51.4 -102.77,84.9 -36.89,33.5 -13.41,355.3 -13.41,355.3 l -462.53,372 c 0,0 76.66,301.6 -117.51,308.3 -194.17,6.8 -266.99,40.9 -271.27,0 -4.26,-40.8 70.32,-339 70.32,-339" /></g><g
         transform="scale(1.03991)"
         id="g78"><path
           id="path80"
           style="fill:#db986b;fill-opacity:1;fill-rule:nonzero;stroke:none"
           d="m 9097.28,16198.3 c 0,0 -10.5,-186.5 91.2,-376.3 101.7,-189.8 410.19,-355.9 562.76,-366.1 l 145.78,308.5 c 0,0 -254.25,366.1 -344.09,450.8 -89.86,84.8 -455.65,-16.9 -455.65,-16.9" /></g><g
         transform="scale(1.12707)"
         id="g82"><path
           id="path84"
           style="fill:#252323;fill-opacity:1;fill-rule:nonzero;stroke:none"
           d="m 9378.01,16153.7 c -202.47,145.2 -432.27,146.3 -555.21,129.6 -122.92,-16.6 -324.76,-67.9 -324.77,-68 -52.43,-14.6 -106.02,-32.1 -140.19,-62.3 -54.65,-48.4 -68.82,-99.2 -68.82,-99.2 0,0 -175.13,-10.6 -217.16,-246.2 -42.04,-235.6 -0.72,-432.3 37.95,-570.4 38.68,-138.1 208.48,-379.8 208.48,-379.8 l 117.47,260.6 c 151.05,-87 417.38,390.5 401.46,432.5 -10.1,26.6 487.2,86.7 487.2,86.7 l 119.07,45.3 c 0,0 68.85,145.4 19.25,316.4 -15.61,53.7 -47.82,107 -84.73,154.8" /></g><g
         transform="scale(1.09462)"
         id="g86"><path
           id="path88"
           style="fill:#fbc398;fill-opacity:1;fill-rule:nonzero;stroke:none"
           d="m 9667.42,16242.1 c 0,0 46.23,-68.4 56,-94.7 9.78,-26.3 4.21,-258.8 4.39,-317.7 0.27,-59 -19.74,-137.6 -21.47,-166 -1.73,-28.4 -8.59,-202.9 -20.28,-270.7 -11.79,-67.7 -103.6,-328.2 -132.56,-396.8 -28.87,-68.6 -70.52,-159.2 -105.79,-176.1 -35.17,-16.8 -185.26,-15.3 -315.47,32.5 -130.16,47.9 -378.92,239.8 -443.35,336.9 -64.44,97.1 -43.2,289.7 -43.2,289.7 0,0 -55.85,-11.8 -109.22,48.5 -53.36,60.2 -136.78,188.9 -109.55,324.1 27.25,135.2 128.43,79.7 178.12,21.5 49.69,-58.2 46.51,-141.6 57.76,-144.2 11.25,-2.6 22.84,0.5 28.65,2.1 5.79,1.5 40.84,140.1 44.46,168.3 3.63,28.3 8.32,199.2 12.46,204.6 4.13,5.5 155.61,167.3 202.11,181.6 46.5,14.3 716.94,-43.6 716.94,-43.6" /></g><path
         id="path90"
         style="fill:#db986b;fill-opacity:1;fill-rule:nonzero;stroke:none"
         d="m 10807.8,15350 v -371.3 l -86.3,104.6 z" /><path
         id="path92"
         style="fill:#eaab7e;fill-opacity:1;fill-rule:nonzero;stroke:none"
         d="m 11264.7,13813.8 c -84.2,0 -258.2,35.3 -297.1,318.2 0,0 178.6,-257.9 343.2,-314.3 0,0 -18.1,-3.9 -46.1,-3.9" /><path
         id="path94"
         style="fill:#fbc398;fill-opacity:1;fill-rule:nonzero;stroke:none"
         d="m 8666.66,16014.9 c 0,0 317.43,-319.4 345.63,-798.8 28.2,-479.5 -486.49,-627.5 -486.49,-627.5 0,0 -33.43,-500.7 -224.7,-825 0,0 241.16,-176.2 447.97,-383 206.82,-206.8 531.14,-380.7 531.14,-380.7 l -286.72,-352.6 c 0,0 -949.47,347.9 -1156.29,441.9 -206.81,94 -352.52,239.7 -361.92,272.6 -9.4,32.9 -18.81,271.1 -23.5,452 -4.7,181 65.8,493.8 70.5,553.9 4.7,60 -2.35,350.1 56.4,517 58.76,166.9 164.52,291.4 192.72,352.5 28.2,61.1 112.81,340.8 286.72,554.7 173.91,213.8 608.54,223 608.54,223" /><path
         id="path96"
         style="fill:#db986b;fill-opacity:1;fill-rule:nonzero;stroke:none"
         d="m 8301.1,13763.6 c 0,0 -297.03,119.9 -505.03,134 0,0 158.64,31.8 306.7,0 148.06,-31.7 251.67,-30.7 251.67,-30.7 l -53.34,-103.3" /><path
         id="path98"
         style="fill:#db986b;fill-opacity:1;fill-rule:nonzero;stroke:none"
         d="m 8525.81,14588.6 31.72,236.2 267.92,222.1 c 0,0 -112.8,-165.7 -130.43,-229.2 -17.63,-63.4 -4.89,-155.3 -4.89,-155.3 l -164.32,-73.8" /><path
         id="path100"
         style="fill:#2d5f9f;fill-opacity:1;fill-rule:nonzero;stroke:none"
         d="m 8690.13,14662.4 c 0,0 115.35,-224.2 270.46,-381.7 155.11,-157.4 286.72,-242.1 286.72,-242.1 0,0 -282.02,108.2 -446.53,242.1 -164.52,134 -274.97,307.9 -274.97,307.9 l 164.32,73.8" /><path
         id="path102"
         style="fill:#eaab7e;fill-opacity:1;fill-rule:nonzero;stroke:none"
         d="m 8102.77,14297.2 c 0,0 -91.65,277.3 148.07,314.9 0,0 -94.01,-112.8 -148.07,-314.9" /><path
         id="path104"
         style="fill:#fcd9c1;fill-opacity:1;fill-rule:nonzero;stroke:none"
         d="m 7626.87,14817.7 c 70.5,218.6 144.53,246.8 144.53,246.8 l 49.35,-246.8 c 0,0 59.93,542.9 193.89,800.3 133.2,255.8 430.54,368.8 433.91,370.1 -134.7,-27.7 -298.76,-83.5 -390.43,-196.2 -173.91,-213.9 -258.52,-493.6 -286.72,-554.7 -28.2,-61.1 -133.96,-185.6 -192.72,-352.5 -43.52,-123.6 -50.93,-314.8 -53.76,-430.1 0.01,0.1 31.45,144.6 101.95,363.1" /><path
         id="path106"
         style="fill:#e4a981;fill-opacity:1;fill-rule:nonzero;stroke:none"
         d="m 10182.7,12668.3 c 0,0 77.5,-78.5 112.8,-120.9 35.2,-42.2 62.4,-137.6 47,-151.5 -47,-42.3 -181,-10.6 -191.6,0 -10.5,10.5 -225.56,130.4 -204.42,183.3 21.16,52.9 56.42,102.2 81.12,116.3 24.6,14.1 155.1,-27.2 155.1,-27.2" /><path
         id="path108"
         style="fill:#434244;fill-opacity:1;fill-rule:nonzero;stroke:none"
         d="m 9946.48,12946 c 0,0 148.12,190.2 243.22,250.1 95.2,59.9 2456,566.9 2785,617.7 329,50.9 1574.6,57.3 1659.2,0 84.6,-57.2 183.3,-146.5 112.8,-264 -70.5,-117.5 -1175.1,-603.8 -1175.1,-603.8 l -9.4,-58.9 -75.2,-174 -343.2,42.3 c 0,0 70.6,235.1 197.5,333.8 126.9,98.7 700.4,376 714.5,390.1 14.1,14.1 9.4,47 9.4,47 0,0 -780.3,9.4 -902.5,4.7 -122.2,-4.7 -2712.1,-517 -2848.4,-611 0,0 -742.66,-1029.4 -871.92,-1349.1 -129.26,-319.6 2.2,-601.6 185.58,-770.8 0,0 -133.88,-65.8 -172.66,-220.9 0,0 -281.23,206.8 -352.72,587.5 -71.49,380.7 83.63,612.1 177.63,787.8 94.01,175.8 535.84,811.5 535.84,811.5 l 130.43,180" /><path
         id="path110"
         style="fill:#fbc398;fill-opacity:1;fill-rule:nonzero;stroke:none"
         d="m 9703.24,6142.1 c 0,0 -14.1,-174 0,-230.4 14.1,-56.4 296.13,-169.2 455.96,-192.7 159.8,-23.5 178.6,-79.9 178.6,-79.9 0,0 -65.8,-51.7 -155.1,-51.7 -89.3,0 -421.48,-18.8 -485.72,-37.6 -64.24,-18.8 -252.25,-178.6 -318.06,-197.4 -65.8,-18.8 -272.62,-32.9 -329.03,-18.8 -56.4,14.1 -197.41,108.1 -84.6,333.7 112.81,225.6 225.61,498.2 225.61,498.2 0,0 225.62,202.2 291.43,150.5 65.8,-51.7 220.91,-173.9 220.91,-173.9" /><path
         id="path112"
         style="fill:#db986b;fill-opacity:1;fill-rule:nonzero;stroke:none"
         d="m 9270.81,5986.9 c 0,0 -75.2,-61.1 -98.71,-197.4 0,0 -79.9,169.2 98.71,197.4" /><path
         id="path114"
         style="fill:#c9c8c6;fill-opacity:1;fill-rule:nonzero;stroke:none"
         d="m 14032.3,3407.6 542.9,436 c 0,0 310.2,225.6 408.9,1071.7 98.7,846 -475.9,1600.4 -475.9,1600.4 0,0 67,-423 -222.1,-486.5 -289.1,-63.4 -620.5,239.8 -712.1,359.6 -91.7,119.9 -724,519.3 -724,519.3 0,0 -25.9,-1626.9 0,-1691.8 26,-64.9 536.8,-1807.5 593.4,-1808.7 56.6,-1.2 588.9,0 588.9,0" /><path
         id="path116"
         style="fill:#878888;fill-opacity:1;fill-rule:nonzero;stroke:none"
         d="m 13496.1,3594.5 1079.1,249.1 -253.9,-923.6 c 0,0 -662.7,-296.2 -1075.2,-211.6 -412.4,84.6 -271.4,768.6 -200.9,775.6 70.5,7 450.9,110.5 450.9,110.5" /><path
         id="path118"
         style="fill:#a1a1a0;fill-opacity:1;fill-rule:nonzero;stroke:none"
         d="m 13868.8,5222.6 c 127.3,-1088.5 -405.7,-2045.4 -1190.5,-2137.2 -784.9,-91.8 -1524.3,716.2 -1651.7,1804.8 -127.3,1088.5 405.7,2045.4 1190.6,2137.2 784.8,91.8 1524.3,-716.2 1651.6,-1804.8" /><path
         id="path120"
         style="fill:#6e6f71;fill-opacity:1;fill-rule:nonzero;stroke:none"
         d="m 8737.32,3648.3 v -471 h 289.07 l 2026.91,-468.9 944.9,370.2 1247.9,-370.2 250,886.1 c 0,0 -292.3,-369.2 -736.5,-416.1 -444.1,-46.9 -846,228 -846,228 0,0 -310.2,-276.3 -805.5,-228 -495.3,48.3 -770.3,779.1 -770.3,779.1 l -1551.13,149.3 -49.35,-458.5" /><path
         id="path122"
         style="fill:#c9c8c6;fill-opacity:1;fill-rule:nonzero;stroke:none"
         d="m 10260.2,4273.7 c 0,0 -70.5,331.3 119.9,712.1 190.4,380.7 1360.7,1156.3 1755.6,1212.6 394.8,56.5 803.7,-169.2 1008.2,-641.5 204.5,-472.4 148.1,-1043.5 0,-1283.2 -148.1,-239.8 -1230.3,-867.3 -1230.3,-867.3 0,0 -151.6,-246.7 -179.8,-260.8 -28.2,-14.1 -578.1,-215 -726.2,-174.5 -148.1,40.5 -465.3,104 -669.8,315.5 -204.5,211.5 -437.14,338.4 -338.43,549.9 98.73,211.5 260.83,437.2 260.83,437.2" /><path
         id="path124"
         style="fill:#d4d4d2;fill-opacity:1;fill-rule:nonzero;stroke:none"
         d="m 13143.9,5556.9 c -180.3,416.6 -519.8,641.2 -868.3,649.7 291.2,-61.9 559.5,-277.3 712.8,-631.6 204.5,-472.4 148.1,-1043.5 0,-1283.2 -148,-239.7 -1230.3,-867.2 -1230.3,-867.2 0,0 -151.6,-246.8 -179.8,-260.9 -23.7,-11.9 -417,-156 -629.2,-177.2 21.5,-5.6 41.2,-10.7 58.5,-15.4 148.1,-40.5 698,160.4 726.2,174.5 28.2,14.1 179.8,260.8 179.8,260.8 0,0 1082.2,627.5 1230.3,867.3 148.1,239.7 204.5,810.8 0,1283.2" /><path
         id="path126"
         style="fill:#a1a1a0;fill-opacity:1;fill-rule:nonzero;stroke:none"
         d="m 12292.6,5060.1 v 0 c -104.4,159.5 -318.3,204.2 -477.8,99.9 l -605.2,-396 c -159.6,-104.3 -204.3,-318.2 -99.9,-477.7 v 0 c 104.3,-159.5 318.2,-204.2 477.7,-99.9 l 605.3,396 c 159.5,104.3 204.2,318.2 99.9,477.7" /><path
         id="path128"
         style="fill:#100f0d;fill-opacity:1;fill-rule:nonzero;stroke:none"
         d="m 12304.9,2147.9 -1607.5,306.7 c -31.8,-31.7 -52.9,-475.9 -52.9,-475.9 0,0 1385.4,-359.6 1628.7,-338.4 243.2,21.1 3225.6,835.5 3267.9,898.9 42.3,63.5 -42.3,486.5 -42.3,486.5 l -3193.9,-877.8" /><path
         id="path130"
         style="fill:#878888;fill-opacity:1;fill-rule:nonzero;stroke:none"
         d="m 13628,7260.7 -413.6,4532.4 c 0,0 317.3,322.4 634.6,161.2 l 475.9,-4899.2 c 0,0 -264.4,-475.9 -454.8,-465.3 -190.4,10.5 -636.4,-52.9 -593.2,105.7 43.3,158.7 351.1,565.2 351.1,565.2" /><path
         id="path132"
         style="fill:#a1a1a0;fill-opacity:1;fill-rule:nonzero;stroke:none"
         d="m 11804.3,11500.4 c 0,0 14.1,-141 260.9,-126.9 l -130.5,155.2 c 0,0 943.5,1158.1 966,1169.7 22.6,11.7 313.7,-288.4 313.7,-288.4 l 1734.4,21.1 77.6,105.4 c 0,0 -148.1,148.4 -310.2,268.3 -162.2,119.9 -1605.2,87 -1807.3,63.5 -202.1,-23.5 -1095.2,-1278.5 -1104.6,-1367.9" /><path
         id="path134"
         style="fill:#c9c8c6;fill-opacity:1;fill-rule:nonzero;stroke:none"
         d="m 13261.4,12611.3 h 1686.4 c -58.3,53.7 -142.8,127.9 -231.6,193.5 -151.4,111.9 -1418.1,90.7 -1750.8,68.2 126.5,-109.4 296,-261.7 296,-261.7" /><path
         id="path136"
         style="fill:#fbc398;fill-opacity:1;fill-rule:nonzero;stroke:none"
         d="m 9280.21,12999.9 c 0,0 106.93,-43.5 175.09,-71.7 68.16,-28.2 78.73,-28.2 117.51,-35.3 38.78,-7 200.94,40 243.24,53.5 42.3,13.5 130.43,-0.4 130.43,-0.4 l -130.43,-180 c 0,0 42.3,-98.7 130.43,-186.8 88.12,-88.1 166.22,-133 166.22,-133 0,0 94.7,-18.6 112.3,-39.8 17.6,-21.1 -21.2,-102.2 -109.3,-169.2 0,0 -10.6,-63.4 -42.3,-109.3 -31.7,-45.8 -49.8,-56.3 -49.8,-56.3 0,0 -48.91,-67 -91.21,-88.2 -42.31,-21.1 -91.66,0 -91.66,0 0,0 -56.4,-35.2 -123.39,-28.2 -66.97,7.1 -148.58,0.5 -210.65,63.5 -62.08,63 -346.34,433.8 -381.59,458.4 -35.25,24.5 -101.33,159.1 -131.61,170.2 -30.28,11.1 -118.69,143.4 -101.06,161 17.63,17.6 387.78,191.6 387.78,191.6" /><path
         id="path138"
         style="fill:#db986b;fill-opacity:1;fill-rule:nonzero;stroke:none"
         d="m 10115.7,12237.2 c 18.7,14.2 35,29.1 49.2,43.9 l -324.17,150 274.97,-193.9" /><path
         id="path140"
         style="fill:#db986b;fill-opacity:1;fill-rule:nonzero;stroke:none"
         d="m 9442.38,12261.9 c 0,0 120.29,-155.3 141,-176.3 11.3,-11.4 90.58,-75.3 160.38,-131.1 54.75,2.6 96.97,28.9 96.97,28.9 0,0 -203.29,109.3 -219.74,116.3 -16.45,7.1 -178.61,162.2 -178.61,162.2" /><path
         id="path142"
         style="fill:#db986b;fill-opacity:1;fill-rule:nonzero;stroke:none"
         d="m 9559.63,12335.9 c 0,0 94.42,-93.2 150.66,-130.4 47.25,-31.3 253.86,-89.6 329.21,-120 8.2,8.5 19.4,21.7 33.3,41.6 -113.1,35.9 -339.82,108.5 -376.61,124.2 -49.35,21.2 -136.56,84.6 -136.56,84.6" /><path
         id="path144"
         style="fill:#6e6f71;fill-opacity:1;fill-rule:nonzero;stroke:none"
         d="m 12759.6,3178.4 c -444.1,-46.9 -846,228 -846,228 0,0 -310.2,-276.3 -805.5,-228 -495.3,48.3 -770.3,779.1 -770.3,779.1 l -532.2,51.2 V 2997.1 l 1247.7,-288.7 944.9,370.2 1247.9,-370.2 250,886.1 c 0,0 -292.3,-369.2 -736.5,-416.1" /><path
         id="path146"
         style="fill:#535456;fill-opacity:1;fill-rule:nonzero;stroke:none"
         d="m 8786.67,4407.6 1473.53,-133.9 77.6,-316.2 -1551.13,149.3 -519.83,232.1 519.83,68.7" /><path
         id="path148"
         style="fill:#fbc398;fill-opacity:1;fill-rule:nonzero;stroke:none"
         d="m 7435.49,5084.5 c 0,0 -21.32,-263.3 -73.02,-460.7 -51.7,-197.4 -9.07,-305.5 73.02,-385.4 82.09,-79.9 133.79,-65.8 223.1,-117.5 89.31,-51.7 202.12,-122.2 260.87,-126.9 58.75,-4.7 103.41,18.8 103.41,18.8 0,0 37.6,-24.8 91.66,-19.4 54.05,5.3 63.45,17 63.45,17 0,0 23.5,-16.4 58.75,-7 35.26,9.4 35.26,9.4 35.26,9.4 0,0 101.05,-21.2 126.91,21.1 0,0 82.25,-9.4 89.3,51.7 7.05,61.1 -47,96.4 -138.66,166.9 -91.65,70.5 -296.12,376 -343.12,474.7 -47.01,98.7 -84.61,357.3 -84.61,357.3 0,0 -206.81,138.6 -249.12,131.6 -42.3,-7.1 -237.2,-131.6 -237.2,-131.6" /></g></g></svg>