<?xml version="1.0" encoding="UTF-8" standalone="no"?>
<svg
   xmlns:dc="http://purl.org/dc/elements/1.1/"
   xmlns:cc="http://creativecommons.org/ns#"
   xmlns:rdf="http://www.w3.org/1999/02/22-rdf-syntax-ns#"
   xmlns:svg="http://www.w3.org/2000/svg"
   xmlns="http://www.w3.org/2000/svg"
   viewBox="0 0 2666.6667 2666.6667"
   height="2666.6667"
   width="2666.6667"
   xml:space="preserve"
   id="svg2"
   version="1.1"><metadata
     id="metadata8"><rdf:RDF><cc:Work
         rdf:about=""><dc:format>image/svg+xml</dc:format><dc:type
           rdf:resource="http://purl.org/dc/dcmitype/StillImage" /></cc:Work></rdf:RDF></metadata><defs
     id="defs6" /><g
     transform="matrix(1.3333333,0,0,-1.3333333,0,2666.6667)"
     id="g10"><g
       transform="scale(0.1)"
       id="g12"><g
         transform="scale(1.22699)"
         id="g14"><path
           id="path16"
           style="fill:none;fill-opacity:1;fill-rule:nonzero;stroke:none"
           d="M 16300,0 H 0 V 16300 H 16300 V 0" /></g><path
         id="path18"
         style="fill:#21201f;fill-opacity:1;fill-rule:nonzero;stroke:none"
         d="m 3266,7862 c 0,0 294.39,-229.9 407.31,-213.7 112.92,16.1 201.64,298.4 177.45,387.1 -24.2,88.7 -477.21,459.7 -477.21,459.7 L 3201.47,8180.6 3266,7862" /><path
         id="path20"
         style="fill:#b0b0ae;fill-opacity:1;fill-rule:nonzero;stroke:none"
         d="m 2857.67,7976.9 v -776.3 l -1781.5,-385.1 v -369 l 4887.79,949.7 v 345.5 l -2655.62,-454.4 -12.1,725.9 -438.57,-36.3" /><path
         id="path22"
         style="fill:#fbc398;fill-opacity:1;fill-rule:nonzero;stroke:none"
         d="m 2548.15,8164.5 c 0,0 2.02,-175.5 0,-205.7 -2.01,-30.3 49.4,-133.1 112.92,-108.9 63.52,24.2 163.33,211.7 163.33,211.7 l 33.27,-84.7 c 0,0 0,-254 18.15,-296.4 18.15,-42.3 81.67,-60.5 108.89,-48.4 27.22,12.1 120.98,242 120.98,242 0,0 -111.91,346.8 -187.53,367 -75.61,20.1 -370.01,-76.6 -370.01,-76.6" /><path
         id="path24"
         style="fill:#b0b0ae;fill-opacity:1;fill-rule:nonzero;stroke:none"
         d="m 6320.86,5357.6 h -356.9 v 3194 h 356.9 v -3194" /><path
         id="path26"
         style="fill:#898b8b;fill-opacity:1;fill-rule:nonzero;stroke:none"
         d="m 6264.72,8448.1 v -144.5 c 0,0 10.77,-105.9 86.39,-114.9 75.61,-9.1 1603.05,259.4 1603.05,259.4 0,0 39.32,91.4 0,161 l -1460.89,-245 -3.03,245 -225.52,-161" /><path
         id="path28"
         style="fill:#373737;fill-opacity:1;fill-rule:nonzero;stroke:none"
         d="m 4947.69,8713.2 955.77,-318.9 1300.59,193.6 c 0,0 102.84,48.4 94.77,108.9 -8.06,60.5 -334.72,629.1 -379.08,665.4 -44.36,36.3 -1048.54,286.3 -1048.54,286.3 l -923.51,-935.3" /><path
         id="path30"
         style="fill:#fbc398;fill-opacity:1;fill-rule:nonzero;stroke:none"
         d="m 4848.57,10602.3 c 0,0 -58.16,-518.2 -78.33,-897.3 0,0 -294.4,-40.3 -483.94,-133.1 -189.54,-92.7 -500.07,-367 -754.14,-492 -254.06,-125 -298.42,-459.7 -298.42,-459.7 l 108.88,-379.1 c 0,0 189.54,157.3 451.68,242 262.13,84.6 1250.17,209.7 1556.67,282.3 306.49,72.5 411.34,80.6 492,157.2 80.66,76.7 254.07,677.5 326.66,1012.3 72.59,334.7 81.66,561.5 81.66,561.5 0,0 -678.52,297.5 -819.67,289.4 -141.15,-8.1 -583.05,-183.5 -583.05,-183.5" /><path
         id="path32"
         style="fill:#df9866;fill-opacity:1;fill-rule:nonzero;stroke:none"
         d="m 5201.75,10496.4 -60.49,-960.8 c 0,0 213.74,-96.8 290.36,-298.4 0,0 -157.27,193.6 -467.81,205.7 -310.52,12.1 -717.84,-330.7 -923.51,-431.5 -205.68,-100.9 -532.34,-205.7 -532.34,-205.7 l 44.36,100.8 c 0,0 270.2,68.6 427.48,165.3 157.28,96.8 508.14,308.6 695.67,381.1 187.52,72.6 390.17,60.6 390.17,60.6 0,0 60.5,892.2 57.47,940.6 -3.02,48.4 -40.6,108.1 -40.6,108.1 l 107.14,-8.3 12.1,-57.5" /><path
         id="path34"
         style="fill:#252323;fill-opacity:1;fill-rule:nonzero;stroke:none"
         d="m 5040.44,12165 -52.43,-165.3 c 0,0 -246,-242 -310.52,-459.8 -64.53,-217.7 36.29,-427.4 96.78,-540.4 60.5,-112.9 78.02,-209.7 74.3,-246 -3.72,-36.3 0,-151.2 0,-151.2 0,0 226.15,-48.4 341.08,-48.4 l 12.1,-57.5 c 0,0 626.1,-57.4 1049.54,0 0,0 -15.12,514.9 -81.66,821.6 -66.54,306.6 -93.76,527.4 -99.81,539.5 -6.05,12.1 -13.11,206.7 -13.11,206.7 0,0 -637.18,129.1 -706.75,153.2 -69.57,24.3 -309.52,-52.4 -309.52,-52.4" /><path
         id="path36"
         style="fill:#21201f;fill-opacity:1;fill-rule:nonzero;stroke:none"
         d="m 2435.23,9575.9 c 11.42,28.3 165.35,169.4 258.1,177.5 92.76,8.1 878.2,-665.7 951.75,-770.3 73.55,-104.5 -128.08,-371 -269.71,-367 -141.63,4.1 -940.14,959.8 -940.14,959.8" /><path
         id="path38"
         style="fill:#fbc398;fill-opacity:1;fill-rule:nonzero;stroke:none"
         d="m 4870.88,12930 c 0,0 80.84,-188.3 125.2,-377.8 44.36,-189.6 44.36,-387.2 44.36,-387.2 0,0 395.21,-225.8 1016.27,-100.8 v 686 c 0,0 -334.72,177 -455.71,201.2 -120.98,24.2 -730.12,-21.4 -730.12,-21.4" /><path
         id="path40"
         style="fill:#eaa778;fill-opacity:1;fill-rule:nonzero;stroke:none"
         d="m 6056.71,12572.8 -182.73,179.8 57.61,2.7 124.61,-79.6 0.51,-102.9" /><path
         id="path42"
         style="fill:#fbc398;fill-opacity:1;fill-rule:nonzero;stroke:none"
         d="m 6366.23,13499.9 c 0,0 -19.15,377.1 -41.34,435.5 -22.18,58.5 -338.75,290.4 -375.05,298.5 -36.3,8 -54.44,-18.2 -54.44,-18.2 0,0 -38.32,-2.9 -56.46,-12.5 -18.15,-9.7 -38.31,-116.5 0,-179 38.31,-62.5 292.38,-528.3 314.56,-552.5 22.18,-24.2 147.46,-98.8 146.08,-88.8 -1.38,10 66.65,117 66.65,117" /><path
         id="path44"
         style="fill:#3a70c0;fill-opacity:1;fill-rule:nonzero;stroke:none"
         d="m 5806.67,14243.9 c 0,0 165.35,-159.2 197.62,-223.8 32.26,-64.5 52.42,-1008.2 52.42,-1008.2 l -36.29,-250 c 0,0 -746.26,-77.9 -1149.54,168.1 0,0 -165.17,433.8 -180.29,721.1 -15.12,287.4 103.85,534.4 162.33,627.1 58.47,92.8 308.51,287.6 308.51,287.6 l 518.21,-255.3 127.03,-66.6" /><path
         id="path46"
         style="fill:#fbc398;fill-opacity:1;fill-rule:nonzero;stroke:none"
         d="m 5141.26,14779.3 c 0,0 24.2,-42.3 27.22,-114.9 3.02,-72.6 -13.61,-127.1 -13.61,-127.1 0,0 -271.71,-255 -336.24,-452.6 -64.52,-197.7 -8.06,-367 0,-397.3 8.07,-30.2 153.25,-72.6 186.52,-57.5 33.27,15.2 72.59,341.8 235.92,502.1 163.33,160.3 465.8,142.2 565.6,111.9 0,0 -68.55,56.5 -80.65,92.8 -12.1,36.3 -9.62,193.6 10.08,223.8 40.54,62.2 106.87,153.3 106.87,153.3 0,0 123,-18.2 157.28,-8.1 34.28,10.1 36.3,102.8 30.25,167.4 -6.05,64.5 -10.08,143.1 -10.08,143.1 0,0 80.65,20.2 88.72,40.4 8.06,20.1 -104.85,155.2 -108.89,169.3 -4.03,14.2 -10.08,151.3 -32.26,233.9 -22.18,82.7 -104.86,159.8 -104.86,159.8 0,0 -122.99,29.4 -157.28,27.6 -34.27,-1.8 -211.72,-126.9 -248.01,-201.5 -36.3,-74.6 -66.55,-83.1 -78.64,-154.5 -12.1,-71.3 22.18,-214.5 -60.49,-277 -82.68,-62.5 -177.45,-234.9 -177.45,-234.9" /><path
         id="path48"
         style="fill:#523d38;fill-opacity:1;fill-rule:nonzero;stroke:none"
         d="m 5863.13,15619.6 c 0,0 -122.99,-41.8 -153.24,-84.1 -14.92,-20.9 -45.37,-130.1 -39.32,-193.6 6.05,-63.5 7.35,-108.9 -0.86,-130.1 -8.22,-21.1 15.98,-127 15.98,-127 0,0 -51.42,105.9 -124.01,105.9 -72.59,0 -84.69,-93.8 -75.62,-157.3 9.08,-63.5 30.25,-78.7 30.25,-96.8 0,-18.2 -78.64,-114.9 -181.48,-157.3 -102.83,-42.3 -193.57,0 -193.57,0 0,0 -136.11,163.3 -181.47,390.2 -45.38,226.8 -36.3,471.8 232.89,589.8 269.19,117.9 596.86,68.4 670.45,-139.7" /><path
         id="path50"
         style="fill:#df9866;fill-opacity:1;fill-rule:nonzero;stroke:none"
         d="m 5516.31,14936.6 c 0,0 38.31,-31.3 72.59,-39.3 34.28,-8.1 84.69,-13.1 84.69,-13.1 0,0 33.28,-67.6 63.52,-109.9 30.25,-42.4 105.86,-60.5 105.86,-60.5 l -40.21,-56.1 c 0,0 -60.61,25.8 -92.87,62.1 -32.26,36.3 -66.54,125.6 -66.54,125.6 0,0 -90.74,23.6 -127.04,91.2" /><path
         id="path52"
         style="fill:#df9866;fill-opacity:1;fill-rule:nonzero;stroke:none"
         d="m 5154.87,14537.3 -77.13,-226.8 22.35,172.3 z" /><path
         id="path54"
         style="fill:#fbc398;fill-opacity:1;fill-rule:nonzero;stroke:none"
         d="m 5842.97,14173.4 c 0,0 -215.65,100.8 -394.16,-68.6 -178.5,-169.4 -142.51,-576.7 -75.82,-693.6 66.7,-117 280.44,-169.4 280.44,-169.4 0,0 185.51,-387.2 366.99,-604.9 181.47,-217.8 411.34,-419.5 487.97,-419.5 76.62,0 133.08,139.2 133.08,139.2 0,0 99.81,54.4 111.91,341.8 12.1,287.3 -347.83,716.8 -387.15,801.5 l -124.01,-36.3 c 0,0 -53.62,308.5 -132.67,456.7 -79.05,148.2 -241.21,243.5 -266.58,253.1" /><path
         id="path56"
         style="fill:#df9866;fill-opacity:1;fill-rule:nonzero;stroke:none"
         d="m 5653.43,13241.8 -131.07,188.5 c 0,0 -142.15,93.8 -133.08,93.8 9.07,0 99.81,-118 99.81,-118 l 57.42,-127.1 c 0,0 71.63,-27.6 106.92,-37.2" /><path
         id="path58"
         style="fill:#df9866;fill-opacity:1;fill-rule:nonzero;stroke:none"
         d="m 6242.22,13463.6 16.13,-189.5 c 0,0 60.5,-119 149.22,-225.9 88.72,-106.9 179.46,-298 179.46,-298 0,0 -36.3,187.1 -100.82,294 -64.53,106.9 -175.43,246 -175.43,246 0,0 -26.21,266.2 -80.66,423.4 -54.44,157.3 -155.33,315.6 -194.11,348.9 -38.78,33.2 -105.24,56 -105.24,56 0,0 149.56,-85.9 204.29,-253.3 54.73,-167.4 107.16,-401.6 107.16,-401.6" /><path
         id="path60"
         style="fill:#df9866;fill-opacity:1;fill-rule:nonzero;stroke:none"
         d="m 6004.79,14074.6 c 0,0 12.1,36.3 39.32,36.3 27.22,0 74.1,-53 105.86,-84.7 31.76,-31.8 125.52,-119.5 125.52,-119.5 l -105.86,136.1 c 0,0 -84.25,93.8 -133.62,98.3 -49.37,4.5 -61.32,-53.5 -61.32,-53.5 l 30.1,-13" /><path
         id="path62"
         style="fill:#df9866;fill-opacity:1;fill-rule:nonzero;stroke:none"
         d="m 5895.4,14215.7 c 0,0 13.11,-8 45.37,-34.3 32.26,-26.2 71.58,-62.9 71.58,-62.9 l 18.15,9.5 c 0,0 -70.29,83 -135.1,87.7" /><path
         id="path64"
         style="fill:#df9866;fill-opacity:1;fill-rule:nonzero;stroke:none"
         d="m 5584.87,14084.7 c 0,0 114.24,91.6 258.1,88.7 0,0 -58.73,24.8 -106.97,27.3 0,0 -114.83,-21.3 -151.13,-116" /><path
         id="path66"
         style="fill:#100f0d;fill-opacity:1;fill-rule:nonzero;stroke:none"
         d="m 5123.11,11645.8 c 0,0 -120.98,-124 -145.18,-396.2 -24.19,-272.2 130.06,-502.1 160.31,-544.5 30.24,-42.3 51.41,-151.2 51.41,-151.2 l -107.14,8.3 v 85.5 c 0,0 -149.95,199.6 -177.17,471.8 -27.22,272.2 217.77,526.3 217.77,526.3" /><path
         id="path68"
         style="fill:#898b8b;fill-opacity:1;fill-rule:nonzero;stroke:none"
         d="m 2846.58,9273.5 c 6.34,25.2 0,255.1 0,255.1 0,0 19.29,68.4 80.22,81 60.93,12.7 221.24,0 221.24,0 0,0 43.35,-17.5 53.43,-62.9 10.08,-45.4 16.71,-171.1 16.71,-171.1 l -82.78,68.8 c 0,0 -72.06,-6.6 -135.57,-67.1 -63.52,-60.5 -87.72,-163.3 -87.72,-163.3 l -65.53,59.5" /><path
         id="path70"
         style="fill:#b0b0ae;fill-opacity:1;fill-rule:nonzero;stroke:none"
         d="m 6091.23,5692.3 -58.72,125.1 41.14,-169.1 -4884.56,-1048.9 -112.92,135.1 V 6954.6 H 761.609 L 767.66,5121.7 V 4477.3 L 997.535,4178 6320.86,5357.6 6091.23,5692.3" /><path
         id="path72"
         style="fill:#3a70c0;fill-opacity:1;fill-rule:nonzero;stroke:none"
         d="m 4985.99,15575.2 c 0,0 64.53,17.7 112.93,-12.5 48.39,-30.3 72.58,-181.5 18.15,-248 -54.45,-66.6 -131.08,260.5 -131.08,260.5" /><path
         id="path74"
         style="fill:#42312d;fill-opacity:1;fill-rule:nonzero;stroke:none"
         d="m 4902.31,15565.7 c 0,0 -221.8,-72.6 -246,-367 -24.2,-294.4 137.12,-415.4 177.44,-685.6 40.34,-270.2 0,-455.7 0,-455.7 0,0 220.89,293.1 270.21,693.7 66.04,536.3 -5.04,770.8 -35.63,798.9 -49.2,45.4 -166.02,15.7 -166.02,15.7" /><path
         id="path76"
         style="fill:#373737;fill-opacity:1;fill-rule:nonzero;stroke:none"
         d="m 2292.07,9683.9 c 0,0 -108.89,-1.1 -139.14,-122.1 -30.24,-121 -24.19,-1076.7 0,-1113 24.2,-36.3 810.61,-659.4 907.39,-689.6 96.79,-30.3 254.07,-24.2 284.31,42.3 30.25,66.5 30.25,947.7 30.25,947.7 0,0 12.1,112.9 -84.69,193.6 -96.79,80.7 -921.89,767.4 -998.12,741.1" /><path
         id="path78"
         style="fill:#fbc398;fill-opacity:1;fill-rule:nonzero;stroke:none"
         d="m 14505.1,10765.1 c 0,0 -335.7,-223.8 -526.3,-384.1 -190.5,-160.3 -547.4,-509.4 -547.4,-509.4 0,0 -408.4,43.6 -614,-13.9 -205.7,-57.4 -856,-650.3 -856,-650.3 l 91,-376.1 c 0,0 1996,461.2 2005.1,471.6 9,10.4 509.5,627.4 622.2,772.6 112.7,145.2 300.9,562.6 300.9,562.6 l -475.5,127" /><path
         id="path80"
         style="fill:#373737;fill-opacity:1;fill-rule:nonzero;stroke:none"
         d="m 13289.2,8947.3 1020.3,-318.6 c 0,0 83.7,-38.3 138.1,-29.2 54.5,9.1 363,60.5 363,60.5 l 898.3,186.5 c 0,0 104.9,36.3 88.7,121 -16.1,84.7 -286.3,621 -375,669.4 -88.8,48.4 -560.6,108.9 -560.6,108.9 0,0 -1230,-241.9 -1302.6,-330.7 -72.6,-88.7 -270.2,-467.8 -270.2,-467.8" /><path
         id="path82"
         style="fill:#df9866;fill-opacity:1;fill-rule:nonzero;stroke:none"
         d="m 14679.7,10558.3 c 0,0 -329.9,-251.9 -491.2,-413.2 -161.3,-161.3 -536.4,-516.2 -536.4,-516.2 0,0 -310.5,31.2 -560.5,-16.7 -250,-47.9 -832.6,-487.7 -832.6,-487.7 0,0 1106.8,52.7 1268.1,97.1 161.3,44.3 639.2,161.2 654.3,233.8 15.2,72.6 647.6,676.7 672.5,782.4 25,105.8 4.1,153.3 -16.1,199.6 -20.2,46.4 -158.1,120.9 -158.1,120.9" /><path
         id="path84"
         style="fill:#b0b0ae;fill-opacity:1;fill-rule:nonzero;stroke:none"
         d="m 9671.75,4640.3 -96.78,99.8 v 1701.3 l 4863.63,1211.4 24.2,-1790.6 z m 4775.85,3959.2 -3,-614 -2649.6,-592.8 v 816.6 l -441.6,-108.9 V 7301.9 L 9568.92,6848.2 v 108.9 l -320.61,-30.2 V 4525.3 l 272.21,-302.4 5290.08,1361 V 8660 l -363,-60.5" /><path
         id="path86"
         style="fill:#fbc398;fill-opacity:1;fill-rule:nonzero;stroke:none"
         d="m 15376.2,9791.2 -199.6,-121 c 0,0 -635.2,-372 -825.8,-462.8 -190.5,-90.7 -359.9,-148.2 -429.5,-163.3 -69.5,-15.1 -299.4,-27.2 -299.4,-27.2 0,0 -483.9,-141.3 -762.2,-185.6 -278.3,-44.3 -762.2,-92.4 -819.7,-97.1 -57.4,-4.6 -245,-47 -245,-34.9 0,12.1 -9,114.9 0,148.2 9.1,33.3 314.6,193.6 314.6,193.6 0,0 102.8,57.5 260.1,145.2 157.3,87.7 565.6,350.8 728.9,381.1 163.4,30.2 508.2,-18.2 550.5,-15.2 42.4,3.1 798.5,765.7 1064.7,910.7 266.2,144.9 417.4,0 417.4,0 l 245,-671.7" /><path
         id="path88"
         style="fill:#fbc398;fill-opacity:1;fill-rule:nonzero;stroke:none"
         d="m 10836.1,8475.3 c 0,0 2.1,-254.9 0.1,-285.1 -2,-30.2 49.4,-133.1 112.9,-108.9 63.5,24.2 163.3,211.7 163.3,211.7 l 33.3,-84.7 c 0,0 0,-254 18.2,-296.4 18.1,-42.3 81.6,-60.5 108.8,-48.4 27.3,12.1 121,242 121,242 0,0 -111.9,346.8 -187.5,367 -75.6,20.2 -370.1,2.8 -370.1,2.8" /><path
         id="path90"
         style="fill:#21201f;fill-opacity:1;fill-rule:nonzero;stroke:none"
         d="m 11670.2,8026.9 c 0,0 294.4,-229.9 407.3,-213.8 112.9,16.1 201.7,298.4 177.5,387.2 -24.2,88.7 -477.2,459.7 -477.2,459.7 l -172.1,-314.6 64.5,-318.5" /><path
         id="path92"
         style="fill:#21201f;fill-opacity:1;fill-rule:nonzero;stroke:none"
         d="m 10935.2,9694.1 c 11.4,28.2 165.4,169.4 258.1,177.4 92.8,8.1 878.2,-665.7 951.8,-770.2 73.5,-104.6 -128.1,-371.1 -269.8,-367 -141.6,4 -940.1,959.8 -940.1,959.8" /><path
         id="path94"
         style="fill:#898b8b;fill-opacity:1;fill-rule:nonzero;stroke:none"
         d="m 11346.6,9391.6 c 6.3,25.2 0,255.1 0,255.1 0,0 19.2,68.4 80.2,81.1 60.9,12.7 221.2,0 221.2,0 0,0 43.4,-17.6 53.5,-62.9 10,-45.4 16.7,-171.2 16.7,-171.2 l -82.8,68.8 c 0,0 -72.1,-6.5 -135.6,-67 -63.5,-60.5 -87.7,-163.4 -87.7,-163.4 l -65.5,59.5" /><g
         transform="scale(1.00901)"
         id="g96"><path
           id="path98"
           style="fill:#898b8b;fill-opacity:1;fill-rule:nonzero;stroke:none"
           d="M 16300,8839.44 V 8699.5 c 0,0 -1487.8,-343.7 -1554.8,-351.63 -66.9,-8.03 -126.8,30.92 -141.8,81.86 -15.1,50.94 -12.6,138.35 -12.6,138.35 l 215.3,41.03 c 0,0 1.1,-68.18 19.1,-87.8 17.9,-19.63 1474.8,318.13 1474.8,318.13" /></g><path
         id="path100"
         style="fill:#373737;fill-opacity:1;fill-rule:nonzero;stroke:none"
         d="m 10792.1,9802.1 c 0,0 -108.9,-1.1 -139.2,-122.1 -30.2,-121 -24.2,-1076.8 0,-1113.1 24.2,-36.3 810.6,-659.4 907.4,-689.6 96.8,-30.2 254.1,-24.2 284.3,42.3 30.3,66.6 30.3,947.8 30.3,947.8 0,0 12.1,112.9 -84.7,193.5 -96.8,80.7 -921.9,767.4 -998.1,741.2" /><g
         transform="scale(1.01087)"
         id="g102"><path
           id="path104"
           style="fill:#252323;fill-opacity:1;fill-rule:nonzero;stroke:none"
           d="m 15781.4,11257.6 -370,-30.7 c 0,0 -418.9,17.9 -625.4,-32.9 -206.4,-50.9 -320.1,-293.2 -365,-389 -44.9,-95.7 -71.8,-155.6 -71.8,-155.6 l 227.4,-269.3 -20.9,-29.7 c 0,0 137.6,-78 323,-263.5 185.6,-185.52 332.2,-400.94 332.2,-400.94 0,0 194.5,191.52 311.2,323.14 116.7,131.6 610.4,316.2 610.4,316.2 0,0 167.5,484.5 137.6,607.8 -29.8,123.2 -488.7,324.5 -488.7,324.5" /></g><path
         id="path106"
         style="fill:#100f0d;fill-opacity:1;fill-rule:nonzero;stroke:none"
         d="m 15281.4,11189.6 c 0,0 -192.6,-25.2 -310.5,-191.6 -118,-166.3 -148.2,-412.5 -148.2,-412.5 l -87.7,-92.6 -55.3,65.4 73.4,70.7 c 0,0 33.3,266.2 175.4,408.3 142.2,142.2 352.9,152.3 352.9,152.3" /><g
         transform="scale(1.05033)"
         id="g108"><path
           id="path110"
           style="fill:#fbc398;fill-opacity:1;fill-rule:nonzero;stroke:none"
           d="m 15632.9,11107.2 c 0,0 -137.3,-137.1 -204.5,-169.7 -67.2,-32.6 -282.6,-109.5 -282.6,-109.5 0,0 248,-180.4 317.1,-395.4 69.1,-215 63.4,-495.31 63.4,-495.31 0,0 113.2,49.92 263,82.51 149.8,32.7 485.8,146 485.8,146 0,0 24.9,550.9 0,591.2 -25,40.4 -324.5,305.3 -332.2,314.9 -7.6,9.6 -310,35.3 -310,35.3" /></g><g
         transform="scale(1.12926)"
         id="g112"><path
           id="path114"
           style="fill:#3a70c0;fill-opacity:1;fill-rule:nonzero;stroke:none"
           d="m 15832.7,10537 34.7,50 c 0,0 -214.7,102.7 -524.5,112.2 -309.8,9.5 -802.6,-368.3 -802.6,-368.3 0,0 200.8,-60.5 353.5,-221.7 152.6,-161.12 243.8,-653.95 243.8,-653.95 l 624,348.19 c 0,0 361.6,166.06 364.3,174.1 2.7,8.03 54.2,131.66 54.2,131.66 0,0 119.9,276.3 -32.8,336.1 -152.6,59.9 -314.6,91.7 -314.6,91.7" /></g><g
         transform="scale(1.15931)"
         id="g116"><path
           id="path118"
           style="fill:#fbc398;fill-opacity:1;fill-rule:nonzero;stroke:none"
           d="m 15378.2,10278.1 -43.5,48.7 c 0,0 -316.6,60.6 -447,40.7 -130.4,-19.9 -137.4,-159.1 13.9,-193 151.4,-33.8 474.8,0.9 628.8,-40.8 153.9,-41.7 241.4,-184.38 230.2,-286.57 l 215.9,179.57 c 0,0 146,-95.12 180.1,28.2 34,123.4 143.4,162.3 15.6,264 -127.9,101.8 -276.6,103.8 -310.5,102.8 -33.9,-1 -256,-15.5 -256,-15.5 0,0 -33.5,-89.9 -41.4,-108.1 -7.8,-18.3 -41.7,-44.4 -73.1,-47 -31.3,-2.6 -113,27 -113,27" /></g><g
         transform="scale(1.17565)"
         id="g120"><path
           id="path122"
           style="fill:#fbc398;fill-opacity:1;fill-rule:nonzero;stroke:none"
           d="m 16262.7,10152.2 c -14.2,25.6 -175.8,114.9 -246.4,114.9 -70.5,0.1 -88.3,20 -147.4,2.8 -59,-17.3 -155.8,-96.7 -234.4,-56.7 -78.5,40 -245.7,48.4 -245.7,48.4 0,0 -23.3,-34.2 -77.8,-63.5 -54.4,-29.3 -102.2,-36.8 -102.2,-36.8 0,0 -52.4,10.5 -87.2,21.9 l 7.7,-110.4 c 46,7 139.4,7.8 166,-7.9 34.7,-20.6 178.8,-77.18 235.1,-118.34 56.2,-41.16 11.2,-236.27 11.2,-236.27 32.8,-5.42 57.9,-9.9 57.9,-9.9 0,0 31.8,-100.85 52.3,-123.33 20.5,-22.47 92.2,10.45 139.3,39.06 47.1,28.62 105.8,60.93 105.8,60.93 0,0 45.3,-54.21 63.8,-52.89 18.5,1.33 79.8,137.94 89.1,146.26 9.3,8.34 112,63.92 167,111.63 55,47.7 83.2,139.55 83.2,139.55 0,0 -23.1,105.1 -37.3,130.6" /></g><g
         transform="scale(1.18517)"
         id="g124"><path
           id="path126"
           style="fill:#523d38;fill-opacity:1;fill-rule:nonzero;stroke:none"
           d="m 16169.1,9941.18 c 0,0 -77,77.92 -120.3,85.32 -21.3,3.6 -115.4,-13.5 -161.4,-41.56 -46,-28.01 -79.9,-45.73 -99.1,-47.3 -19,-1.58 -90.4,-58.97 -90.4,-58.97 0,0 61.3,78.06 34.6,133.13 -26.8,55.1 -102.4,29.7 -147.3,-0.6 -44.8,-30.29 -48.5,-51.93 -62.3,-58.63 -13.8,-6.69 -116.2,17.31 -186.2,79.73 -70.1,62.4 -71.4,146.9 -71.4,146.9 0,0 73.7,163.5 229.2,281.6 155.4,118.1 344.7,201.5 533.5,40.7 188.7,-160.8 272,-427.7 141.1,-560.32" /></g><g
         transform="scale(1.12999)"
         id="g128"><path
           id="path130"
           style="fill:#df9866;fill-opacity:1;fill-rule:nonzero;stroke:none"
           d="m 16280.9,10438.6 c 0,0 -10,-42.6 -3.2,-73 6.8,-30.4 22.3,-72.5 22.3,-72.5 0,0 -40.9,-52.6 -62.9,-93.1 -22.1,-40.4 -7.2,-107.6 -7.2,-107.6 l -60.3,10.3 c 0,0 -2.8,58.2 13.6,97.9 16.4,39.8 74.3,101.6 74.3,101.6 0,0 -16.4,81.4 23.4,136.4" /></g><g
         transform="scale(1.12461)"
         id="g132"><path
           id="path134"
           style="fill:#fbc398;fill-opacity:1;fill-rule:nonzero;stroke:none"
           d="m 15912.8,10373.6 c 0,0 -134.5,40.5 -314.7,-75.2 -180.2,-115.6 -152.1,-462.55 -152.1,-462.55 0,0 -165.3,-225.91 -251.4,-424.94 -86,-199.02 -72.5,-395.35 -75.3,-406.11 -2.6,-10.76 -10.7,-166.74 48.5,-190.93 59.1,-24.18 288.5,26.86 347.3,43.04 58.8,16.09 435.3,567.45 474.3,626.63 39,59.16 68.6,94.13 68.6,94.13 0,0 99.5,102.19 156,207.08 56.5,104.9 86,556.35 -301.2,588.85" /></g><g
         transform="scale(1.08199)"
         id="g136"><path
           id="path138"
           style="fill:#df9866;fill-opacity:1;fill-rule:nonzero;stroke:none"
           d="m 16300,10642.6 -23.2,-153.7 -222.4,-265.6 v 110.3 l 180.4,183.9 65.2,125.1" /></g><g
         transform="scale(1.1129)"
         id="g140"><path
           id="path142"
           style="fill:#df9866;fill-opacity:1;fill-rule:nonzero;stroke:none"
           d="m 16300,9762.56 c 0,0 -91.9,-86.77 -162.6,-116.67 -70.7,-29.89 -116.8,-51.63 -116.8,-51.63 0,0 -68.1,-108.35 -125.1,-192.79 -57.1,-84.42 -250,-320.88 -250,-320.88 0,0 167.6,124.12 259.9,245.5 92.4,121.41 157.7,226.5 157.7,226.5 0,0 149.5,108.31 236.9,209.97" /></g><g
         transform="scale(1.15346)"
         id="g144"><path
           id="path146"
           style="fill:#3a70c0;fill-opacity:1;fill-rule:nonzero;stroke:none"
           d="m 16300,10855 c 0,0 -2.2,-59.8 -37.5,-103 -35.4,-43.3 -110,-80 -157.3,-72.2 -47.3,7.9 -59,56.4 -21.1,94.4 38.1,38.1 215.9,80.8 215.9,80.8" /></g><g
         transform="scale(1.15402)"
         id="g148"><path
           id="path150"
           style="fill:#42312d;fill-opacity:1;fill-rule:nonzero;stroke:none"
           d="m 16215.3,10960.1 c 0,0 -140.6,145.4 -379.2,52.8 -238.7,-92.7 -271.9,-264.2 -467.2,-397.9 -195.3,-133.8 -355.2,-172.6 -355.2,-172.6 0,0 308.3,-49.7 643,52.1 579.5,176.3 627.5,347.6 635.4,355.3 7.9,7.7 -76.8,110.3 -76.8,110.3" /></g></g></g></svg>