<?xml version="1.0" encoding="UTF-8" standalone="no"?>
<svg
   xmlns:dc="http://purl.org/dc/elements/1.1/"
   xmlns:cc="http://creativecommons.org/ns#"
   xmlns:rdf="http://www.w3.org/1999/02/22-rdf-syntax-ns#"
   xmlns:svg="http://www.w3.org/2000/svg"
   xmlns="http://www.w3.org/2000/svg"
   viewBox="0 0 2666.6667 2666.6667"
   height="2666.6667"
   width="2666.6667"
   xml:space="preserve"
   id="svg2"
   version="1.1"><metadata
     id="metadata8"><rdf:RDF><cc:Work
         rdf:about=""><dc:format>image/svg+xml</dc:format><dc:type
           rdf:resource="http://purl.org/dc/dcmitype/StillImage" /></cc:Work></rdf:RDF></metadata><defs
     id="defs6"><clipPath
       id="clipPath76"
       clipPathUnits="userSpaceOnUse"><path
         id="path74"
         d="m 11005.2,13608.6 c -73.9,0 -205.2,23.5 -205.7,190.8 0,0 145.4,-150.7 254.9,-187.2 0,0 -20.2,-3.6 -49.2,-3.6" /></clipPath></defs><g
     transform="matrix(1.3333333,0,0,-1.3333333,0,2666.6667)"
     id="g10"><g
       transform="scale(0.1)"
       id="g12"><g
         transform="scale(1.22699)"
         id="g14"><path
           id="path16"
           style="fill:none;fill-opacity:1;fill-rule:nonzero;stroke:none"
           d="M 16300,0 H 0 V 16300 H 16300 V 0" /></g><g
         transform="scale(1.13479)"
         id="g18"><path
           id="path20"
           style="fill:#3067ac;fill-opacity:1;fill-rule:nonzero;stroke:none"
           d="m 15476.4,10033.5 c 0,0 -9.1,81.4 60.3,165.9 69.4,84.5 211.5,334.9 228,482.7 16.3,147.8 -13.8,434.4 100.9,449.5 114.6,15.1 273.3,-377.1 273.3,-377.1 0,0 161.1,-467.6 61.5,-612.4 -99.6,-144.83 -151.9,-220.25 -345.9,-298.69 -194.1,-78.43 -224.2,-181.01 -308.7,-63.36 -84.5,117.66 -69.4,253.45 -69.4,253.45" /></g><g
         transform="scale(1.15096)"
         id="g22"><path
           id="path24"
           style="fill:#3a70c0;fill-opacity:1;fill-rule:nonzero;stroke:none"
           d="m 15544.5,9770.54 c 0,11.9 -3,56.52 59.5,127.9 62.4,71.38 199.3,353.96 220,508.66 20.9,154.6 -47.6,437.2 131,455.1 178.4,17.8 273.6,-371.8 309.3,-586 35.7,-214.2 8.9,-898.29 -26.8,-913.16 -35.7,-14.87 -559.2,-11.9 -583,0 -23.8,11.9 -107.1,118.98 -110,139.8 -3,20.82 0,267.7 0,267.7" /></g><g
         transform="scale(1.09208)"
         id="g26"><path
           id="path28"
           style="fill:#ecaf86;fill-opacity:1;fill-rule:nonzero;stroke:none"
           d="m 13115,10245 c 29.3,25.1 464,255 464,255 0,0 543.3,33.5 952.9,0 409.7,-33.4 1600.9,-37.6 1600.9,-37.6 0,0 142.1,-54.3 154.7,-154.7 12.5,-100.3 -840.2,-367.77 -1567.5,-330.15 -727.3,37.65 -1057.4,45.95 -1195.3,125.35 -138,79.5 -409.7,142.1 -409.7,142.1" /></g><g
         transform="scale(1.11224)"
         id="g30"><path
           id="path32"
           style="fill:#fbc398;fill-opacity:1;fill-rule:nonzero;stroke:none"
           d="m 12052.4,10408.2 82.1,90.3 541.7,-90.3 c 0,0 238,20.5 431,0 192.8,-20.5 517,-184.7 533.5,-184.7 16.3,0 636.1,20.5 1198.3,-20.5 562.3,-41 1333.8,-49.2 1333.8,-49.2 0,0 127.2,-61.6 127.2,-192.94 0,-131.32 -164.2,-217.51 -164.2,-217.51 0,0 -385.7,-20.51 -595,-110.8 -209.3,-90.29 -496.6,-209.31 -861.9,-225.72 -365.2,-16.42 -660.7,155.95 -1091.6,192.88 -431,36.94 -1132.7,-205.19 -1420,-213.4 -287.3,-8.21 -114.9,1021.89 -114.9,1021.89" /></g><path
         id="path34"
         style="fill:#252323;fill-opacity:1;fill-rule:nonzero;stroke:none"
         d="m 11045.3,11745.3 c 0,0 -54.8,-315 -54.8,-333.2 0,-18.3 -118.7,-497.6 141.5,-849 260.2,-351.5 602.5,-351.5 881,-360.6 278.4,-9.2 620.8,127.8 785.1,141.5 164.3,13.7 803.3,-13.7 803.3,-13.7 0,0 54.8,333.2 22.9,675.5 -32,342.4 -127.8,671 -127.8,671 l -465.6,48 -1985.6,20.5" /><path
         id="path36"
         style="fill:#535657;fill-opacity:1;fill-rule:nonzero;stroke:none"
         d="m 10586.9,13696.7 h -121.7 c -90.5,0 -164,-73.5 -164,-164 V 10403 c 0,-90.6 73.5,-164 164,-164 h 121.7 c 90.5,0 163.9,73.4 163.9,164 v 3129.7 c 0,90.5 -73.4,164 -163.9,164" /><path
         id="path38"
         style="fill:#3a70c0;fill-opacity:1;fill-rule:nonzero;stroke:none"
         d="m 10958.5,15090 -207.6,-243.1 c 0,0 -131.3,-205.4 -168.9,-328.6 -37.7,-123.3 -27.4,-400.6 34.2,-616.2 61.6,-215.7 142.3,-517 143.1,-534.1 0.7,-17.1 356.7,-876.4 356.7,-876.4 0,0 481.6,-682.4 509,-687 27.4,-4.5 990.5,9.2 985.9,22.9 -4.5,13.7 -4.5,465.6 -31.9,593.4 -27.4,127.8 -36.5,438.2 -18.3,524.9 18.3,86.7 45.7,172.3 50.2,357.2 4.6,184.8 0,369.7 0,369.7 0,0 79.9,243.1 38.8,373.2 -41.1,130 -397.1,640.1 -438.2,701.8 -41.1,61.6 -336.9,215.1 -336.9,215.1 0,0 -409.4,248.5 -484.7,239.2 -75.3,-9.3 -431.4,-112 -431.4,-112" /><path
         id="path40"
         style="fill:#8e8e8e;fill-opacity:1;fill-rule:nonzero;stroke:none"
         d="m 12964.7,11916.5 h -212.3 v 1064.7 h 212.3 v -1064.7" /><path
         id="path42"
         style="fill:#8e8e8e;fill-opacity:1;fill-rule:nonzero;stroke:none"
         d="m 9958.9,2917.7 h 342.3 V 15848 H 9958.9 V 2917.7" /><path
         id="path44"
         style="fill:#8e8e8e;fill-opacity:1;fill-rule:nonzero;stroke:none"
         d="M 13574.1,3234.6 H 8808.62 v -316.9 h 4765.48 v 316.9" /><path
         id="path46"
         style="fill:#424242;fill-opacity:1;fill-rule:nonzero;stroke:none"
         d="M 12341.6,12199.1 H 10560 v -282.6 h 1781.6 v 282.6" /><g
         transform="scale(1.0914)"
         id="g48"><path
           id="path50"
           style="fill:#f7f7f7;fill-opacity:1;fill-rule:nonzero;stroke:none"
           d="m 16142.9,10468.9 c 0,0 -55.5,0.2 -146.4,0.9 l 22.9,-112.8 172.7,-4.3 c 0,0 11.3,-45.7 24.9,-111 53.8,28.1 83,53.3 80.6,72.5 -12.5,100.4 -154.7,154.7 -154.7,154.7" /></g><g
         transform="scale(1.07264)"
         id="g52"><path
           id="path54"
           style="fill:#f7f7f7;fill-opacity:1;fill-rule:nonzero;stroke:none"
           d="m 16299.6,10538.1 v 0 h 0.4 -0.4" /></g><g
         transform="scale(1.11224)"
         id="g56"><path
           id="path58"
           style="fill:#f7f7f7;fill-opacity:1;fill-rule:nonzero;stroke:none"
           d="m 16172.8,10153.8 c 0,0 -113,1.2 -284.1,4.9 0,0 67.2,-270.81 68.4,-431.79 102.8,12.38 178.7,16.44 178.7,16.44 0,0 164.2,86.19 164.2,217.51 0,131.34 -127.2,192.94 -127.2,192.94" /></g><path
         id="path60"
         style="fill:#8e8e8e;fill-opacity:1;fill-rule:nonzero;stroke:none"
         d="m 13286.5,11533 h -2985.3 v 383.5 h 2985.3 V 11533" /><path
         id="path62"
         style="fill:#fbc398;fill-opacity:1;fill-rule:nonzero;stroke:none"
         d="m 10708.6,14419 c 4,10.1 188.4,315 517,383.4 328.6,68.5 595.6,-82.1 725.7,-475.8 130.1,-393.7 -278.7,-629.9 -278.7,-629.9 0,0 -25.9,-404 -87.6,-585.4 -61.6,-181.5 -157.4,-400.6 -157.4,-400.6 0,0 174.5,-41.1 465.5,-85.6 291,-44.5 523.8,-23.9 523.8,-23.9 l 75.3,-386.9 c 0,0 -178,-65 -441.6,-119.8 -263.6,-54.8 -650.4,-65.1 -862.7,-30.8 -212.2,34.2 -462.1,41.1 -513.5,133.5 -51.4,92.4 27.4,352.6 27.4,397.1 0,44.5 -24,554.6 -6.9,862.7 17.1,308.1 27.4,414.3 27.4,414.3 0,0 -109.5,301.2 -13.7,547.7" /><path
         id="path64"
         style="fill:#df9866;fill-opacity:1;fill-rule:nonzero;stroke:none"
         d="m 11242.7,12710.7 h 184.9 c 0,0 15.2,34.9 37.4,88.2 -102.7,-54.8 -222.3,-88.2 -222.3,-88.2" /><path
         id="path66"
         style="fill:#df9866;fill-opacity:1;fill-rule:nonzero;stroke:none"
         d="m 11698,13830.2 -25.4,-133.5 c 0,0 227.8,131.6 289.2,362.1 -90.3,-149 -263.8,-228.6 -263.8,-228.6" /><path
         id="path68"
         style="fill:#df9866;fill-opacity:1;fill-rule:nonzero;stroke:none"
         d="m 10797.6,14391.6 c 0,0 0,0 -30.8,-119.8 -16.5,-64.3 -54.7,-151.2 -87.1,-220.1 15.4,-105.6 42.6,-180.4 42.6,-180.4 95.9,198.5 75.3,520.3 75.3,520.3" /><g
         id="g70"><g
           clip-path="url(#clipPath76)"
           id="g72"><path
             id="path78"
             style="fill:#f0ae82;fill-opacity:1;fill-rule:nonzero;stroke:none"
             d="m 10799.5,13608.6 h 254.898 v 190.77 H 10799.5 Z" /></g></g><path
         id="path80"
         style="fill:#fbc398;fill-opacity:1;fill-rule:nonzero;stroke:none"
         d="m 12416.9,12601.2 c 0,0 137,175.7 146.1,184.8 9.1,9.2 192,19.7 192,19.7 l 15.7,-120.1 c 0,0 190.6,-0.6 219.7,-12.5 29.1,-12 61.6,-83.9 66.7,-111.3 5.1,-27.4 -20.5,-89 -20.5,-89 0,0 5.1,-53.1 0,-80.5 -5.2,-27.4 -24,-82.1 -30.8,-112.9 -6.9,-30.9 10.2,-60 -22.3,-75.4 -32.5,-15.4 -491.3,10.3 -491.3,10.3 0,0 -65,155.8 -75.3,176.3 -10.2,20.6 0,210.6 0,210.6" /><path
         id="path82"
         style="fill:#fbc398;fill-opacity:1;fill-rule:nonzero;stroke:none"
         d="m 11026,15570 c 0,0 -83.4,-316.5 -101.7,-368 -18.3,-51.5 -173.5,-355.1 -173.5,-355.1 0,0 310.5,255.7 547.8,235.1 237.4,-20.5 461,-237.3 604.8,-283 143.8,-45.6 223.7,0 223.7,0 0,0 -340.1,212.3 -362.9,248.8 -22.8,36.5 -9.6,154.2 -9.6,154.2 0,0 -177.6,523.6 -243.7,564.7 -66.2,41.1 -137,278.4 -239.7,253.3 -102.7,-25.1 -196.3,-20.5 -200.8,-159.7 -4.6,-139.2 -44.4,-290.3 -44.4,-290.3" /><path
         id="path84"
         style="fill:#df9866;fill-opacity:1;fill-rule:nonzero;stroke:none"
         d="m 11426.4,15848 c 0,0 -20.9,-172.4 -16.2,-228.8 4.8,-56.3 344.4,-417.2 344.4,-417.2 l 181.1,107.8 -509.3,538.2" /><g
         transform="scale(1.04949)"
         id="g86"><path
           id="path88"
           style="fill:#252323;fill-opacity:1;fill-rule:nonzero;stroke:none"
           d="m 11531.6,15854.8 c 92.7,140.4 -22.4,234.1 -22.4,234.1 0,0 0,0 -106.6,84.1 -106.4,84.1 -332.7,127 -561.2,90.8 -228.4,-36.1 -343.1,-81.4 -343.1,-81.4 -65.8,-63.2 -100.3,-167.8 -100.3,-167.8 0,0 -222.8,-53.3 -209.6,-402.8 13.4,-349.4 310.1,-770.8 317.6,-776.1 7.6,-5.2 42.6,17.7 105.2,85.3 62.5,67.5 186,291.1 186,291.1 0,0 379.2,-28.1 387.2,-10.4 8,17.6 289.5,573.5 289.5,573.5 l 49.4,60.1 c 1.2,6.4 4,12.9 8.3,19.5" /></g><g
         transform="scale(1.02139)"
         id="g90"><path
           id="path92"
           style="fill:#fbc398;fill-opacity:1;fill-rule:nonzero;stroke:none"
           d="m 11848.9,16291 c 0,0 84.6,-219.1 95.7,-269.9 11.3,-50.9 -18.1,-205.7 -15.1,-230.2 3,-24.5 142.8,-278.8 139,-294.4 -3.8,-15.6 -105.5,-31 -109.1,-39.7 -3.6,-8.6 -14.2,-102.7 -11.8,-111.9 2.4,-9.2 -0.6,-28.8 -0.6,-28.8 0,0 7.1,-39.4 -1.2,-58.9 -8.3,-19.5 -11.6,-53.5 -14.5,-66.5 -2.8,-13 -3.1,-155.8 -21,-176.4 -17.9,-20.6 -313.2,-33.8 -360.1,-20.6 -46.9,13.2 -315.9,266.6 -339.3,317.7 -23.4,51.1 -23.8,204.7 -23.8,204.7 0,0 -125.2,25.3 -172,127.5 -46.8,102.2 -29.2,281.7 74.3,307.5 103.6,25.9 149.7,-111.3 161.2,-148.2 11.4,-36.9 29.7,-84.4 34.8,-88 5.2,-3.6 70.2,103.4 92.3,160.5 22.2,57.2 -35.9,206.8 -18.9,269.3 17,62.5 100.4,128.9 139.1,142.1 38.7,13.2 351,4.2 351,4.2" /></g><path
         id="path94"
         style="fill:#2e64a7;fill-opacity:1;fill-rule:nonzero;stroke:none"
         d="m 12252.6,13696.7 c 0,0 221.4,-34.3 358.3,-24 v -103.8 c 0,0 -269.3,-4.6 -358.3,127.8" /><path
         id="path96"
         style="fill:#3067ac;fill-opacity:1;fill-rule:nonzero;stroke:none"
         d="m 4739.72,5208.8 c 0,0 114.12,-66.7 406.25,-188.6 292.14,-121.8 570.57,-39.6 707.51,-108.1 136.94,-68.5 63.91,-301.2 -360.6,-383.4 -424.51,-82.2 -858.14,-4.6 -940.31,82.1 -82.16,86.8 -178.01,310.4 -178.01,383.5 0,73 365.16,214.5 365.16,214.5" /><path
         id="path98"
         style="fill:#3a70c0;fill-opacity:1;fill-rule:nonzero;stroke:none"
         d="m 4182.84,4966.9 -146.07,-155.2 c 0,0 -18.25,-639.1 0,-698.4 18.26,-59.3 602.53,18.3 757.73,0 155.19,-18.3 876.4,105 944.87,260.2 68.47,155.2 -123.25,168.9 -351.47,200.8 -228.24,32 -561.45,173.5 -648.18,241.9 -86.73,68.5 -273.88,114.2 -273.88,114.2 l -283,36.5" /><path
         id="path100"
         style="fill:#ecaf86;fill-opacity:1;fill-rule:nonzero;stroke:none"
         d="m 4826.45,8924.4 c 0,0 63.9,-429.1 54.78,-620.8 -9.14,-191.7 -82.17,-360.6 -100.42,-470.2 -18.27,-109.5 54.77,-433.6 0,-967.7 -54.78,-534 -41.09,-1656.9 -41.09,-1656.9 l -86.73,-109.6 c 0,0 -191.71,-91.3 -200.84,-77.5 -9.13,13.6 -123.24,1376.2 -109.55,1458.3 13.69,82.2 75.32,2355.4 75.32,2444.4 0,89 408.53,0 408.53,0" /><path
         id="path102"
         style="fill:#f7f7f7;fill-opacity:1;fill-rule:nonzero;stroke:none"
         d="m 4416.29,5391.9 c 17.9,-209.1 32.8,-365.7 35.86,-370.2 9.13,-13.8 200.84,77.5 200.84,77.5 l 86.74,109.6 c 0,0 -0.91,74.1 -1.33,193 -100.34,-8 -223.53,-10 -322.11,-9.9" /><path
         id="path104"
         style="fill:#fbc398;fill-opacity:1;fill-rule:nonzero;stroke:none"
         d="m 3890.71,9686.7 -178.02,-178.1 c 0,0 18.26,-346.9 118.68,-771.4 100.42,-424.5 132.37,-675.5 100.42,-972.2 -31.95,-296.7 -205.41,-890.1 -168.89,-1300.9 36.51,-410.9 241.92,-885.6 278.44,-1077.3 36.52,-191.7 68.47,-520.3 68.47,-520.3 0,0 155.19,-178.1 209.97,-173.5 54.78,4.6 232.79,105 232.79,105 0,0 -18.25,949.4 68.47,1465.2 86.73,515.8 4.57,1195.9 22.83,1296.4 18.25,100.4 109.55,146 104.98,456.4 -4.56,310.4 59.34,378.9 136.94,776 77.6,397.1 86.72,693.8 86.72,693.8 l -1081.8,200.9" /><path
         id="path106"
         style="fill:#252323;fill-opacity:1;fill-rule:nonzero;stroke:none"
         d="m 3438.81,11724.8 c 0,0 -13.69,-198.6 -31.95,-262.5 -18.26,-63.9 -178.02,-410.8 -141.5,-652.7 36.52,-242 337.78,-671 346.91,-703 9.13,-31.9 31.95,-666.4 31.95,-666.4 0,0 237.36,-36.5 616.22,-22.8 378.86,13.6 712.07,68.4 712.07,68.4 0,0 0,534.1 22.83,611.7 22.82,77.6 63.9,419.9 59.34,629.9 -4.57,210 -54.78,1040.7 -54.78,1040.7 l -1561.09,-43.3" /><path
         id="path108"
         style="fill:#3a70c0;fill-opacity:1;fill-rule:nonzero;stroke:none"
         d="m 3411.03,15090 -207.69,-243.1 c 0,0 -131.23,-205.4 -168.89,-328.6 -37.66,-123.3 -27.39,-400.6 34.24,-616.2 61.62,-215.7 142.34,-517 143.06,-534.1 0.72,-17.1 356.76,-876.4 356.76,-876.4 0,0 481.56,-682.4 508.95,-687 27.39,-4.5 990.52,9.2 985.95,22.9 -4.56,13.7 -4.56,465.6 -31.95,593.4 -27.39,127.8 -36.52,438.2 -18.26,524.9 18.26,86.7 45.68,172.3 50.23,357.2 4.55,184.8 0,369.7 0,369.7 0,0 79.87,243.1 38.78,373.2 -41.08,130 -397.12,640.1 -438.19,701.8 -41.09,61.6 -336.94,215.1 -336.94,215.1 0,0 -409.38,248.5 -484.7,239.2 -75.31,-9.3 -431.35,-112 -431.35,-112" /><path
         id="path110"
         style="fill:#fbc398;fill-opacity:1;fill-rule:nonzero;stroke:none"
         d="m 3478.53,15570 c 0,0 -83.48,-316.5 -101.73,-368 -18.26,-51.5 -173.46,-355.1 -173.46,-355.1 0,0 310.4,255.7 547.75,235.1 237.36,-20.5 461.03,-237.3 604.81,-283 143.79,-45.6 223.67,0 223.67,0 0,0 -340.06,212.3 -362.89,248.8 -22.82,36.5 -9.61,154.2 -9.61,154.2 0,0 -177.54,523.6 -243.73,564.7 -66.18,41.1 -136.93,278.4 -239.63,253.3 -102.71,-25.1 -196.28,-20.5 -200.85,-159.7 -4.56,-139.2 -44.33,-290.3 -44.33,-290.3" /><path
         id="path112"
         style="fill:#535657;fill-opacity:1;fill-rule:nonzero;stroke:none"
         d="m 3039.35,13696.7 h -121.62 c -90.58,0 -164,-73.5 -164,-164 V 10403 c 0,-90.6 73.42,-164 164,-164 h 121.62 c 90.57,0 163.99,73.4 163.99,164 v 3129.7 c 0,90.5 -73.42,164 -163.99,164" /><path
         id="path114"
         style="fill:#424242;fill-opacity:1;fill-rule:nonzero;stroke:none"
         d="M 4794.1,12199.1 H 3012.47 v -282.6 H 4794.1 v 282.6" /><path
         id="path116"
         style="fill:#df9866;fill-opacity:1;fill-rule:nonzero;stroke:none"
         d="m 3878.9,15848 c 0,0 -20.87,-172.4 -16.17,-228.8 4.71,-56.3 344.34,-417.2 344.34,-417.2 l 181.11,107.8 -509.28,538.2" /><g
         transform="scale(1.04949)"
         id="g118"><path
           id="path120"
           style="fill:#252323;fill-opacity:1;fill-rule:nonzero;stroke:none"
           d="m 4339.99,15854.8 c 92.71,140.4 -22.44,234.1 -22.44,234.1 0,0 0,0 -106.46,84.1 -106.47,84.1 -332.76,127 -561.2,90.8 -228.43,-36.1 -343.2,-81.4 -343.2,-81.4 -65.85,-63.2 -100.26,-167.8 -100.26,-167.8 0,0 -222.84,-53.3 -209.54,-402.8 13.3,-349.4 310.05,-770.8 317.6,-776.1 7.53,-5.2 42.57,17.7 105.11,85.3 62.54,67.5 186.02,291.1 186.02,291.1 0,0 379.22,-28.1 387.22,-10.4 8,17.6 289.46,573.5 289.46,573.5 l 49.43,60.1 c 1.25,6.4 3.94,12.9 8.26,19.5" /></g><g
         transform="scale(1.02139)"
         id="g122"><path
           id="path124"
           style="fill:#fbc398;fill-opacity:1;fill-rule:nonzero;stroke:none"
           d="m 4459.41,16291 c 0,0 84.6,-219.1 95.79,-269.9 11.19,-50.9 -18.14,-205.7 -15.14,-230.2 2.99,-24.5 142.75,-278.8 138.94,-294.4 -3.8,-15.6 -105.38,-31 -109.05,-39.7 -3.67,-8.6 -14.25,-102.7 -11.84,-111.9 2.4,-9.2 -0.59,-28.8 -0.59,-28.8 0,0 7.09,-39.4 -1.19,-58.9 -8.29,-19.5 -11.59,-53.5 -14.49,-66.5 -2.87,-13 -3.15,-155.8 -21.02,-176.4 -17.88,-20.6 -313.22,-33.8 -360.1,-20.6 -46.88,13.2 -315.87,266.6 -339.26,317.7 -23.41,51.1 -23.79,204.7 -23.79,204.7 0,0 -125.2,25.3 -172.02,127.5 -46.82,102.2 -29.2,281.7 74.33,307.5 103.54,25.9 149.65,-111.3 161.13,-148.2 11.47,-36.9 29.71,-84.4 34.87,-88 5.17,-3.6 70.2,103.4 92.31,160.5 22.11,57.2 -35.97,206.8 -18.99,269.3 16.98,62.5 100.4,128.9 139.08,142.1 38.68,13.2 351.03,4.2 351.03,4.2" /></g><path
         id="path126"
         style="fill:#fbc398;fill-opacity:1;fill-rule:nonzero;stroke:none"
         d="m 3161.12,14419 c 3.92,10.1 188.38,315 516.98,383.4 328.61,68.5 595.64,-82.1 725.73,-475.8 130.09,-393.7 -278.72,-629.9 -278.72,-629.9 0,0 -25.97,-404 -87.59,-585.4 -61.62,-181.5 -157.48,-400.6 -157.48,-400.6 0,0 174.6,-41.1 465.59,-85.6 290.99,-44.5 523.79,-23.9 523.79,-23.9 l 75.32,-386.9 c 0,0 -178.02,-65 -441.63,-119.8 -263.6,-54.8 -650.45,-65.1 -862.71,-30.8 -212.25,34.2 -462.16,41.1 -513.51,133.5 -51.36,92.4 27.38,352.6 27.38,397.1 0,44.5 -23.96,554.6 -6.84,862.7 17.11,308.1 27.39,414.3 27.39,414.3 0,0 -109.56,301.2 -13.7,547.7" /><path
         id="path128"
         style="fill:#df9866;fill-opacity:1;fill-rule:nonzero;stroke:none"
         d="m 3695.18,12710.7 h 184.86 c 0,0 15.24,34.9 37.45,88.2 -102.7,-54.8 -222.31,-88.2 -222.31,-88.2" /><path
         id="path130"
         style="fill:#df9866;fill-opacity:1;fill-rule:nonzero;stroke:none"
         d="m 4150.5,13830.2 -25.38,-133.5 c 0,0 227.72,131.6 289.13,362.1 -90.22,-149 -263.75,-228.6 -263.75,-228.6" /><path
         id="path132"
         style="fill:#df9866;fill-opacity:1;fill-rule:nonzero;stroke:none"
         d="m 3250.13,14391.6 c 0,0 0,0 -30.81,-119.8 -16.54,-64.3 -54.74,-151.2 -87.14,-220.1 15.43,-105.6 42.63,-180.4 42.63,-180.4 95.86,198.5 75.32,520.3 75.32,520.3" /><path
         id="path134"
         style="fill:#f0ae82;fill-opacity:1;fill-rule:nonzero;stroke:none"
         d="m 3457.73,13608.6 c -73.93,0 -205.24,23.5 -205.75,190.8 0,0 145.36,-150.7 254.91,-187.2 0,0 -20.18,-3.6 -49.16,-3.6" /><path
         id="path136"
         style="fill:#8e8e8e;fill-opacity:1;fill-rule:nonzero;stroke:none"
         d="m 5417.17,11916.5 h -212.25 v 1064.7 h 212.25 v -1064.7" /><path
         id="path138"
         style="fill:#8e8e8e;fill-opacity:1;fill-rule:nonzero;stroke:none"
         d="M 5738.97,11533 H 2753.73 v 383.5 H 5738.97 V 11533" /><path
         id="path140"
         style="fill:#8e8e8e;fill-opacity:1;fill-rule:nonzero;stroke:none"
         d="m 2411.39,2917.7 h 342.34 V 15848 H 2411.39 V 2917.7" /><path
         id="path142"
         style="fill:#8e8e8e;fill-opacity:1;fill-rule:nonzero;stroke:none"
         d="M 6026.54,3234.6 H 1261.11 v -316.9 h 4765.43 v 316.9" /><path
         id="path144"
         style="fill:#f7f7f7;fill-opacity:1;fill-rule:nonzero;stroke:none"
         d="m 4552.08,5201.8 c -117.93,-21.2 -339.5,-23.4 -478.45,-22.3 21.18,-158.8 36.17,-313 36.17,-313 0,0 155.2,-178.1 209.98,-173.5 54.78,4.6 232.79,105 232.79,105 0,0 -3.25,169.3 -0.49,403.8" /><path
         id="path146"
         style="fill:#fbc398;fill-opacity:1;fill-rule:nonzero;stroke:none"
         d="m 4869.42,12601.2 c 0,0 136.94,175.7 146.06,184.8 9.13,9.2 192.01,19.7 192.01,19.7 l 15.68,-120.1 c 0,0 190.58,-0.6 219.68,-12.5 29.09,-12 61.62,-83.9 66.75,-111.3 5.14,-27.4 -20.54,-89 -20.54,-89 0,0 5.14,-53.1 0,-80.5 -5.13,-27.4 -23.96,-82.1 -30.81,-112.9 -6.84,-30.9 10.27,-60 -22.25,-75.4 -32.52,-15.4 -491.26,10.3 -491.26,10.3 0,0 -65.05,155.8 -75.32,176.3 -10.27,20.6 0,210.6 0,210.6" /><path
         id="path148"
         style="fill:#2e64a7;fill-opacity:1;fill-rule:nonzero;stroke:none"
         d="m 4706.07,13696.7 c 0,0 221.42,-34.3 358.33,-24 v -103.8 c 0,0 -269.32,-4.6 -358.33,127.8" /></g></g></svg>