<?xml version="1.0" encoding="UTF-8" standalone="no"?>
<svg
   xmlns:dc="http://purl.org/dc/elements/1.1/"
   xmlns:cc="http://creativecommons.org/ns#"
   xmlns:rdf="http://www.w3.org/1999/02/22-rdf-syntax-ns#"
   xmlns:svg="http://www.w3.org/2000/svg"
   xmlns="http://www.w3.org/2000/svg"
   viewBox="0 0 2666.6667 2666.6667"
   height="2666.6667"
   width="2666.6667"
   xml:space="preserve"
   id="svg2"
   version="1.1"><metadata
     id="metadata8"><rdf:RDF><cc:Work
         rdf:about=""><dc:format>image/svg+xml</dc:format><dc:type
           rdf:resource="http://purl.org/dc/dcmitype/StillImage" /></cc:Work></rdf:RDF></metadata><defs
     id="defs6" /><g
     transform="matrix(1.3333333,0,0,-1.3333333,0,2666.6667)"
     id="g10"><g
       transform="scale(0.1)"
       id="g12"><g
         transform="scale(1.22699)"
         id="g14"><path
           id="path16"
           style="fill:none;fill-opacity:1;fill-rule:nonzero;stroke:none"
           d="M 16300,0 H 0 V 16300 H 16300 V 0" /></g><g
         transform="scale(1.06261)"
         id="g18"><path
           id="path20"
           style="fill:#100f0d;fill-opacity:1;fill-rule:nonzero;stroke:none"
           d="m 14620.9,14286.6 c 0,0 9.1,-98.3 108.9,-180 99.9,-81.7 124.3,-113.4 216.5,-226.9 92.1,-113.4 146.6,-186.1 278.1,-81.7 131.7,104.4 762.4,993.9 762.4,993.9 l 313.2,635.3 c 0,0 -104.4,113.6 -172.5,81.8 -68,-31.9 -167.9,-163.5 -335.8,-231.6 -167.9,-68 -441.2,-172.4 -520.1,-181.5 -78.9,-9.1 -278.6,0 -378.4,-49.9 -99.9,-49.9 -272.3,-376.7 -272.3,-376.7 l -77.1,-308.6 77.1,-74.1" /></g><g
         transform="scale(1.08125)"
         id="g22"><path
           id="path24"
           style="fill:#252323;fill-opacity:1;fill-rule:nonzero;stroke:none"
           d="m 14569.6,14153.3 c 0,0 -40.1,-160.5 -17.9,-231.9 22.3,-71.3 205.2,-205.1 307.7,-298.8 102.6,-93.6 124.9,-231.9 227.5,-218.5 102.5,13.4 356.8,244.4 414.8,374.2 58,129.7 75.8,189.2 133.8,262 58,72.9 388,197.9 526.2,641.6 138.3,443.7 -35.7,555.2 -93.7,559.6 -57.9,4.5 -147.1,-173.9 -437,-294.3 -289.9,-120.4 -517.3,-169.5 -651.1,-196.2 -133.9,-26.8 -292.7,-17.9 -291.3,-151.7 1.4,-133.8 -20.9,-220.4 -20.9,-220.4 l -231.9,-221.1 133.8,-4.5" /></g><path
         id="path26"
         style="fill:#ffffff;fill-opacity:1;fill-rule:nonzero;stroke:none"
         d="m 15804.7,15181.1 c 0,0 228.2,16 266.8,30.5 38.6,14.5 173.6,207.4 154.3,318.3 -19.3,110.9 -279.7,255.5 -279.7,255.5 l -186.4,-12.8 -223.4,-421.2 v -43.3 l 268.4,-127" /><path
         id="path28"
         style="fill:#c37140;fill-opacity:1;fill-rule:nonzero;stroke:none"
         d="m 11789.4,14907.8 c 0,0 787.6,176.8 941.9,176.8 154.3,0 1003,-186.4 1382.4,-176.8 379.3,9.6 1138,183.3 1401.7,228.3 263.6,45 289.3,45 289.3,45 0,0 77.1,90 64.3,289.3 -12.9,199.3 -109.3,302.2 -109.3,302.2 0,0 -495.1,-12.9 -938.7,0 -443.7,12.8 -951.6,122.2 -1260.2,147.9 -308.7,25.7 -475.8,38.6 -475.8,38.6 0,0 -360.1,135 -553,141.4 -192.9,6.4 -572.2,-57.9 -572.2,-57.9 l -540.1,-702.7 369.7,-432.1" /><path
         id="path30"
         style="fill:#a45634;fill-opacity:1;fill-rule:nonzero;stroke:none"
         d="m 12098.7,15975.1 c 0,0 118.3,-196.1 150.4,-408.3 32.2,-212.1 -29.3,-567.1 -29.3,-567.1 l -212.1,-44.3 -125.1,437.8 216.1,581.9" /><path
         id="path32"
         style="fill:#252323;fill-opacity:1;fill-rule:nonzero;stroke:none"
         d="m 8847.82,16156.8 c 0,0 327.91,65.9 514.37,59.4 186.46,-6.4 295.76,0.9 340.77,0.5 45.01,-0.5 655.84,19.7 932.34,0 276.4,-19.8 1446.6,-109.8 1446.6,-109.8 0,0 19.3,-212.1 77.2,-424.3 57.9,-212.2 -96.5,-585.1 -141.5,-842.3 -45,-257.2 -77.1,-346.6 -77.1,-346.9 0,-0.3 -501.5,32.5 -861.6,0 -360.1,-32.5 -1189.48,-38.9 -1189.48,-38.9 0,0 -1633.13,321.5 -1633.13,347.2 0,25.7 -77.15,726.6 -77.15,726.6 l 668.68,628.5" /><path
         id="path34"
         style="fill:#c37140;fill-opacity:1;fill-rule:nonzero;stroke:none"
         d="m 4625.96,15807.2 c -195.03,-4 -417.84,9.8 -417.84,9.8 0,0 -570.94,-228.2 -529.64,-442.1 41.3,-213.8 55.6,-507.3 55.6,-507.3 0,0 52.1,-147.7 123.37,-151.7 71.26,-3.9 395.25,73.1 395.25,73.1 0,0 175.29,0.6 341.91,0.7 l 31.35,1017.5" /><path
         id="path36"
         style="fill:#a45634;fill-opacity:1;fill-rule:nonzero;stroke:none"
         d="m 3818.48,15070.6 c 0,0 171.97,143 186.66,152.5 14.69,9.5 376.28,146.8 463.62,282.3 87.35,135.6 92.1,301.1 92.1,301.1 0,0 -226.83,13 -243.4,12.7 -16.59,-0.4 -313.68,-58.2 -403.3,-351.4 -89.63,-293.2 -94.53,-498.3 -94.53,-498.3 l -1.15,101.1" /><path
         id="path38"
         style="fill:#100f0d;fill-opacity:1;fill-rule:nonzero;stroke:none"
         d="m 8773.43,16008.9 c 0,0 -41.34,-307 -47.77,-416.3 -6.43,-109.3 47.77,-752.3 47.77,-752.3 l -169.93,-32.2 -250.76,250.8 v 520.8 187.3 107.7 l 420.69,134.2" /><g
         transform="scale(1.0063)"
         id="g40"><path
           id="path42"
           style="fill:#e9eef1;fill-opacity:1;fill-rule:nonzero;stroke:none"
           d="m 8792.42,16055.6 -905.69,71.9 c 0,0 -479.2,38.3 -714.01,38.3 -234.81,0 -603.8,0 -603.8,0 0,0 -234.81,134.2 -402.53,129.4 -167.72,-4.8 -608.59,-215.6 -742.77,-282.7 -134.18,-67.1 -182.09,-141.4 -182.09,-141.4 0,0 -458.46,-285.6 -555.88,-366.6 -33.98,-28.2 -69.26,-58.5 -101.69,-89.3 v -420.7 h -75.67 c 29.4,-99.8 60.88,-189.4 60.88,-189.4 l 92.52,-181.5 c 0,0 76.67,-168.5 263.56,-216.5 186.89,-47.9 1250.72,303.7 1250.72,303.7 l 2415.19,-87.2 c 0,0 -38.34,775.5 0,952.8 38.34,177.3 201.26,479.2 201.26,479.2" /></g><path
         id="path44"
         style="fill:#c37140;fill-opacity:1;fill-rule:nonzero;stroke:none"
         d="m 4589.79,15778.2 36.17,29 c 0,0 185.66,-14.4 359.25,27.7 173.61,42.2 257.99,136.2 289.34,136.2 31.34,0 12.06,-96.4 -156.72,-204.9 -168.78,-108.5 -368.9,-424.4 -407.48,-607.6 -38.58,-183.3 -19.29,-442.8 -19.29,-442.8 l -96.45,73.9 -154.31,179.8 149.49,808.7" /><path
         id="path46"
         style="fill:#c37140;fill-opacity:1;fill-rule:nonzero;stroke:none"
         d="m 4994.86,15528.6 c 0,0 -192.89,-167.5 -236.29,-461.7 -43.4,-294.1 96.44,-564.2 313.45,-646.1 216.99,-82 530.44,28.9 689.58,0 159.13,-29 303.8,-77.2 665.46,-86.8 361.67,-9.7 536.88,94.8 552.95,88.4 16.07,-6.5 138.24,-90 318.27,-109.3 180.03,-19.3 228.25,-19.3 250.75,-22.5 22.51,-3.3 324.7,-53.1 893.72,-48.3 569.03,4.9 1089.83,144.7 1089.83,144.7 v 318.3 c 0,0 -790.85,192.9 -1258.61,299 -467.75,106 -974.08,86.8 -974.08,86.8 0,0 -298.98,135 -525.63,207.3 -226.64,72.3 -337.55,82 -337.55,82 0,0 -57.87,270 -429.18,361.7 -371.31,91.6 -830.58,-89.5 -1012.67,-213.5" /><path
         id="path48"
         style="fill:#a45634;fill-opacity:1;fill-rule:nonzero;stroke:none"
         d="m 5886.97,14837.1 c 0,0 -104.95,-170.4 -221.25,-234.7 -116.31,-64.3 -241.68,-102.3 -248.11,-109 -6.43,-6.7 118.95,-51.7 286.12,44.7 167.17,96.5 183.24,299 183.24,299" /><path
         id="path50"
         style="fill:#c37140;fill-opacity:1;fill-rule:nonzero;stroke:none"
         d="m 9532.58,14387 c 0,0 376.13,-129.2 440.43,-145 64.29,-15.7 343.99,15.8 450.09,0 106.1,-15.7 324.7,-40.6 368.1,-35.8 43.4,4.8 48.2,28.9 48.2,28.9 0,0 84.4,-4.8 130.2,0 45.8,4.8 60.3,26.5 60.3,26.5 0,0 94,11.5 115.7,34.7 21.7,23.2 -443.6,163 -523.2,201.6 -79.6,38.6 -127.8,62.7 -229.1,77.2 -101.2,14.4 -590.68,110.9 -658.19,120.5 -67.51,9.7 -202.53,9.7 -202.53,9.7 0,0 -145.61,-114 -147.88,-131.8 -2.28,-17.9 0,-41.8 0,-41.8 l 147.88,-144.7" /><path
         id="path52"
         style="fill:#a45634;fill-opacity:1;fill-rule:nonzero;stroke:none"
         d="m 10769.5,14326.7 c -77.2,19.3 -441.3,77.2 -441.3,77.2 0,0 352.1,-94 407.5,-118.2 55.5,-24.1 103.7,-50.6 103.7,-50.6 0,0 39.3,-2.2 78.8,-2.1 -42.4,35.2 -100.7,81.7 -148.7,93.7" /><path
         id="path54"
         style="fill:#a45634;fill-opacity:1;fill-rule:nonzero;stroke:none"
         d="m 10945,14383.3 c -10,3.5 -320.2,71.2 -320.2,71.2 0,0 178.4,-84.4 236.3,-103.7 57.9,-19.2 168.8,-89.2 168.8,-89.2 0,0 94,11.5 115.7,34.7 10.2,10.9 -86.6,47.4 -200.6,87" /><path
         id="path56"
         style="fill:#c4c8ca;fill-opacity:1;fill-rule:nonzero;stroke:none"
         d="m 5665.72,16113.4 c 0,0 279.12,70.7 465.58,77.1 186.46,6.4 270.05,-25.7 305.41,-12.8 35.36,12.8 51.43,32.1 51.43,32.1 0,0 -125.38,64.3 -363.27,45 -237.9,-19.3 -459.15,-141.4 -459.15,-141.4" /><path
         id="path58"
         style="fill:#a45634;fill-opacity:1;fill-rule:nonzero;stroke:none"
         d="m 5920.73,15554 c 67.51,-86.8 62.69,-155.4 106.09,-159.7 43.4,-4.3 409.89,-13.9 409.89,-13.9 0,0 -57.87,270 -429.19,361.7 -109.41,27 -226.45,30.2 -341.8,18.2 86.59,-59.8 212.29,-151.4 255.01,-206.3" /><path
         id="path60"
         style="fill:#2f1d16;fill-opacity:1;fill-rule:nonzero;stroke:none"
         d="m 2906.38,15823.8 c -203.51,41.8 -270.28,-124.4 -292.84,-194.2 -22.56,-69.7 -74.87,-93.9 -85.65,-308.1 -10.79,-214.2 87.63,-264.3 101.07,-332.1 13.44,-67.7 98.15,-205.6 165.4,-317.3 67.25,-111.6 177.72,-130.1 217.71,-162.1 0,0 115.89,-237 505.18,-134.1 389.29,102.9 728.42,405.2 735.45,413.1 0,0 -363.64,420.9 -455.27,474.2 -20.38,128.3 -54.95,331.7 -69.91,334.9 -21.88,4.5 -717.26,180.8 -717.26,180.8 l -84.5,42.8 c 0,0 -6.16,5 -17.08,11.5 l -2.3,-9.4" /><path
         id="path62"
         style="fill:#c37140;fill-opacity:1;fill-rule:nonzero;stroke:none"
         d="m 2906.38,15823.8 c 0,0 218.85,146.1 271.72,170.8 52.88,24.7 229.32,30.5 255.39,39.8 26.06,9.3 269.85,224.4 287.88,224 18.03,-0.3 59.75,-107.6 70.11,-109.5 10.36,-1.9 115.81,9.6 125.3,14.5 9.48,4.8 31.63,6.4 31.63,6.4 0,0 41.38,17.4 64.7,13.1 23.33,-4.3 61.29,0.4 76.26,0.4 14.95,0.1 171.09,34.7 197.98,20.2 26.89,-14.5 107.55,-420.1 104.62,-474.6 -2.92,-54.5 -208.01,-324.7 -258.17,-362.8 -50.15,-38.1 -218.07,-76.2 -218.07,-76.2 0,0 3.05,-143 -97.25,-219.3 -100.31,-76.2 -300.87,-100.9 -354.47,6 -53.61,106.9 85.04,190.9 122.58,212.5 37.54,21.5 85.02,53.1 87.69,59.7 2.66,6.5 -100.74,9.2 -168.67,19.4 -67.92,10.2 -246.71,-47.8 -319.22,-44.5 -72.51,3.2 -165.55,78.2 -189.43,117.3 -23.89,39 -90.58,382.8 -90.58,382.8" /><path
         id="path64"
         style="fill:#2f1d16;fill-opacity:1;fill-rule:nonzero;stroke:none"
         d="m 3674.28,15348.8 c 0,0 -15.05,36.8 -36.62,34.9 -21.59,-1.8 -186.24,-4.9 -186.24,-4.9 0,0 -57.26,41.7 -130.79,13 -73.52,-28.7 -85.54,-39.1 -130.07,-8.9 -44.52,30.2 -138.27,-7 -165.94,25.5 -27.66,32.6 -89.31,254.6 -89.31,254.6 0,0 -154.99,81.5 -122.83,-86.7 32.16,-168.2 97.27,-335.9 187.44,-400.7 90.17,-64.8 11.92,-118 150.58,-56.7 138.66,61.4 523.78,229.9 523.78,229.9" /><path
         id="path66"
         style="fill:#2f1d16;fill-opacity:1;fill-rule:nonzero;stroke:none"
         d="m 3126.15,14400.1 c 0,0 -78.66,31.9 -109.33,55.8 -30.67,24 -98.13,38.6 -124.79,66 -26.66,27.5 -56.28,66.5 -62.65,72.2 -6.36,5.7 -87.28,53.6 -112.42,113.3 -25.13,59.7 -39.77,97.6 -46.2,113.1 -6.44,15.5 -77.16,90.5 -97.17,158.9 -20.02,68.4 -16.01,71.9 -26.57,103.5 -10.56,31.6 -50.21,119.4 -48.23,254.7 1.99,135.3 114.75,292 114.75,292 l 315.67,-345.7 277.77,-489.9 -80.83,-393.9" /><path
         id="path68"
         style="fill:#100f0d;fill-opacity:1;fill-rule:nonzero;stroke:none"
         d="m 10106.4,12159.1 c 0,0 148.6,-188 139.4,-313.4 -9.2,-125.4 -52.6,-98.8 -211.7,-266.4 -159.14,-167.6 -450.08,-259.2 -450.08,-259.2 0,0 -422.76,163.9 -446.86,207.3 -24.12,43.4 -207.36,106.1 -207.36,212.2 0,106.1 33.75,226.7 0,299 -33.76,72.3 -279.69,573.8 -395.42,694.4 -115.74,120.5 -192.89,327.9 -86.8,409.9 106.09,81.9 781.2,-197.7 781.2,-197.7 l 877.62,-786.1" /><path
         id="path70"
         style="fill:#ac5934;fill-opacity:1;fill-rule:nonzero;stroke:none"
         d="m 9682.07,11479.2 c 0,0 0,-511.2 19.29,-694.4 19.28,-183.2 194.49,-946.8 162.35,-1416.1 -32.15,-469.4 -196.11,-643 -234.69,-917.9 C 9590.44,8176 9667.6,7525 9667.6,7525 h -345.87 l -367.82,549.7 438.82,3669.7 178.43,164 110.91,-429.2" /><path
         id="path72"
         style="fill:#252323;fill-opacity:1;fill-rule:nonzero;stroke:none"
         d="m 9185.38,11763.7 c -14.47,4.8 -135.02,82 -135.02,82 0,0 -86.81,-19.3 -120.56,0 -33.76,19.3 -192.89,130.2 -173.6,453.3 19.29,323.1 -57.87,597.9 -154.31,679.9 -96.45,82 -236.29,139.9 -226.65,279.7 9.65,139.8 62.69,202.5 332.74,178.4 270.04,-24.1 853.53,-569 935.51,-626.9 81.98,-57.8 352.02,-318.2 467.81,-491.8 115.7,-173.6 154.3,-236.3 125.3,-299 -28.9,-62.7 -144.6,-63.8 -226.6,-191 -82,-127.3 -110.93,-187.5 -168.8,-249 -57.87,-61.5 -159.13,-100.1 -159.13,-100.1 h -337.56 l -159.13,284.5" /><path
         id="path74"
         style="fill:#ffffff;fill-opacity:1;fill-rule:nonzero;stroke:none"
         d="m 9050.36,11845.7 c 0,0 207.35,236.3 270.04,231.5 62.69,-4.9 221.82,-96.5 250.76,-168.8 28.93,-72.4 0,-288.1 0,-288.1 0,0 14.47,-30.2 -53.05,-39.8 -67.51,-9.7 -342.38,43.4 -342.38,43.4 l -125.37,221.8" /><path
         id="path76"
         style="fill:#c37140;fill-opacity:1;fill-rule:nonzero;stroke:none"
         d="m 8442.75,7568.4 c 0,0 -33.75,308.6 -33.75,554.5 0,246 91.62,525.6 168.78,660.7 77.15,135 188.06,424.3 202.53,607.6 14.47,183.2 48.23,742.6 159.13,1176.6 110.92,434 110.92,1277.9 110.92,1277.9 0,0 159.13,-24.1 342.37,-101.3 183.25,-77.1 289.34,-265.2 289.34,-265.2 0,0 -86.8,-144.7 -86.8,-221.8 0,-77.2 139.84,-1438.7 139.84,-1708.7 0,-270 -237.89,-829.4 -270.04,-1086.6 -32.15,-257.2 83.58,-925.9 83.58,-925.9 l -636.53,-147.9 -469.37,180.1" /><path
         id="path78"
         style="fill:#e9eef1;fill-opacity:1;fill-rule:nonzero;stroke:none"
         d="m 4597.96,4206.9 93.1,-182.6 c 0,0 77.15,-169.7 265.22,-217.9 188.07,-48.2 1258.6,305.6 1258.6,305.6 l 2430.41,-87.7 c 0,0 -38.58,780.3 0,958.8 38.58,178.4 202.53,482.2 202.53,482.2 l -911.4,72.3 c 0,0 -482.22,38.6 -718.51,38.6 -236.29,0 -607.6,0 -607.6,0 0,0 -236.29,135 -405.07,130.2 -168.78,-4.8 -612.42,-217 -747.45,-284.5 -135.02,-67.5 -183.24,-142.3 -183.24,-142.3 0,0 -461.34,-287.4 -559.38,-368.9 -98.04,-81.5 -207.35,-180 -226.64,-258.7 -19.29,-78.8 109.43,-445.1 109.43,-445.1" /><path
         id="path80"
         style="fill:#252323;fill-opacity:1;fill-rule:nonzero;stroke:none"
         d="m 8442.75,7568.4 c 0,0 48.23,-684.8 0,-839.1 -48.22,-154.3 -125.37,-984.7 -154.31,-1022.8 -28.93,-38.1 -85.97,-82.7 -110.5,-183.6 -5.54,-22.9 81.57,-316.9 91.22,-447.4 9.64,-130.4 135.01,-325.4 154.31,-502.8 19.28,-177.4 40.71,-462.9 40.71,-462.9 0,0 537.95,-225.6 566.88,-235.3 28.94,-9.6 925.87,0 925.87,0 0,0 356.87,219.8 414.77,698.2 57.8,478.5 -221.9,930.8 -221.9,1133.8 0,203 29,386.3 9.7,530.9 -19.3,144.7 -86.8,260.4 -125.4,376.2 -38.59,115.7 38.6,761.9 38.6,761.9 0,0 -202.57,57.8 -241.14,96.4 -38.58,38.6 -57.87,67.5 -125.38,96.5 -67.51,28.9 -1109.11,106.1 -1263.43,0" /><path
         id="path82"
         style="fill:#c4c8ca;fill-opacity:1;fill-rule:nonzero;stroke:none"
         d="m 5665.72,5421.9 c 0,0 279.12,70.7 465.58,77.1 186.46,6.5 270.05,-25.7 305.41,-12.8 35.36,12.8 51.43,32.1 51.43,32.1 0,0 -125.38,64.3 -363.27,45 -237.9,-19.3 -459.15,-141.4 -459.15,-141.4" /><path
         id="path84"
         style="fill:#c37140;fill-opacity:1;fill-rule:nonzero;stroke:none"
         d="m 4994.86,4837.1 c 0,0 -192.89,-167.5 -236.29,-461.7 -43.4,-294.1 96.44,-564.2 313.45,-646.1 216.99,-82 530.44,28.9 689.58,0 159.13,-29 303.8,-77.2 665.46,-86.8 361.67,-9.7 536.88,94.8 552.95,88.4 16.07,-6.4 138.24,-90 318.27,-109.3 180.03,-19.3 228.25,-19.3 250.75,-22.5 22.51,-3.2 324.7,-53.1 893.72,-48.3 569.03,4.9 1089.83,144.7 1089.83,144.7 v 318.3 c 0,0 -790.85,192.9 -1258.61,299 -467.75,106 -974.08,86.8 -974.08,86.8 0,0 -298.98,135 -525.63,207.3 -226.64,72.3 -337.55,82 -337.55,82 0,0 -57.87,270 -429.18,361.7 -371.31,91.6 -830.58,-89.5 -1012.67,-213.5" /><path
         id="path86"
         style="fill:#a45634;fill-opacity:1;fill-rule:nonzero;stroke:none"
         d="m 5886.97,4145.6 c 0,0 -104.95,-170.4 -221.25,-234.7 -116.31,-64.3 -241.68,-102.2 -248.11,-109 -6.43,-6.7 118.95,-51.7 286.12,44.7 167.17,96.5 183.24,299 183.24,299" /><path
         id="path88"
         style="fill:#c37140;fill-opacity:1;fill-rule:nonzero;stroke:none"
         d="m 9532.58,3695.5 c 0,0 376.13,-129.2 440.43,-145 64.29,-15.7 343.99,15.8 450.09,0 106.1,-15.7 324.7,-40.6 368.1,-35.8 43.4,4.8 48.2,28.9 48.2,28.9 0,0 84.4,-4.8 130.2,0 45.8,4.8 60.3,26.5 60.3,26.5 0,0 94,11.5 115.7,34.7 21.7,23.2 -443.6,163.1 -523.2,201.6 -79.6,38.6 -127.8,62.7 -229.1,77.2 -101.2,14.4 -590.68,110.9 -658.19,120.5 -67.51,9.7 -202.53,9.7 -202.53,9.7 0,0 -145.61,-114 -147.88,-131.8 -2.28,-17.9 0,-41.8 0,-41.8 l 147.88,-144.7" /><path
         id="path90"
         style="fill:#a45634;fill-opacity:1;fill-rule:nonzero;stroke:none"
         d="m 10769.5,3635.2 c -77.2,19.3 -441.3,77.2 -441.3,77.2 0,0 352.1,-94 407.5,-118.2 55.5,-24.1 103.7,-50.6 103.7,-50.6 0,0 39.3,-2.2 78.8,-2.1 -42.4,35.2 -100.7,81.7 -148.7,93.7" /><path
         id="path92"
         style="fill:#a45634;fill-opacity:1;fill-rule:nonzero;stroke:none"
         d="m 10945,3691.9 c -10,3.5 -320.2,71.1 -320.2,71.1 0,0 178.4,-84.4 236.3,-103.6 57.9,-19.3 168.8,-89.3 168.8,-89.3 0,0 94,11.5 115.7,34.7 10.2,10.9 -86.6,47.4 -200.6,87.1" /><path
         id="path94"
         style="fill:#c37140;fill-opacity:1;fill-rule:nonzero;stroke:none"
         d="m 4589.79,5086.7 36.17,29 c 0,0 185.66,-14.4 359.25,27.7 173.61,42.2 257.99,136.2 289.34,136.2 31.34,0 12.06,-96.4 -156.72,-204.9 -168.78,-108.5 -368.9,-424.4 -407.48,-607.6 -38.58,-183.3 -19.29,-442.8 -19.29,-442.8 l -96.45,73.9 -154.31,179.8 149.49,808.7" /><path
         id="path96"
         style="fill:#c37140;fill-opacity:1;fill-rule:nonzero;stroke:none"
         d="m 4683.08,5113.5 c -195.03,-4 -417.84,9.8 -417.84,9.8 0,0 -570.94,-228.2 -529.64,-442.1 41.3,-213.8 55.61,-507.3 55.61,-507.3 0,0 52.09,-147.7 123.36,-151.7 71.26,-3.9 395.25,73.2 395.25,73.2 0,0 175.29,0.5 341.92,0.6 l 31.34,1017.5" /><path
         id="path98"
         style="fill:#a45634;fill-opacity:1;fill-rule:nonzero;stroke:none"
         d="m 8699.72,7617.4 -38.36,439.6 102.88,199.3 c 0,0 -32.15,-212.1 -28.94,-237.9 3.22,-25.7 118.95,-401 118.95,-401 h -154.53" /><path
         id="path100"
         style="fill:#100f0d;fill-opacity:1;fill-rule:nonzero;stroke:none"
         d="m 9867.63,7214.7 c 113.13,-89.9 167.87,-218.2 167.97,-218.4 14.6,191.3 37.1,379.2 37.1,379.2 0,0 -202.57,57.8 -241.14,96.4 -38.58,38.6 -57.87,67.5 -125.38,96.5 0,0 48.22,-263.6 161.45,-353.7" /><path
         id="path102"
         style="fill:#a45634;fill-opacity:1;fill-rule:nonzero;stroke:none"
         d="m 5920.73,4862.5 c 67.51,-86.8 62.69,-155.4 106.09,-159.7 43.4,-4.3 409.89,-13.9 409.89,-13.9 0,0 -57.87,270 -429.19,361.7 -109.41,27 -226.45,30.2 -341.8,18.2 86.59,-59.8 212.29,-151.4 255.01,-206.3" /><path
         id="path104"
         style="fill:#c37140;fill-opacity:1;fill-rule:nonzero;stroke:none"
         d="m 4625.96,5115.7 c -195.03,-4 -417.84,9.8 -417.84,9.8 0,0 -570.94,-228.2 -529.64,-442.1 41.3,-213.8 55.6,-507.3 55.6,-507.3 0,0 52.1,-147.7 123.37,-151.7 71.26,-3.9 395.25,73.1 395.25,73.1 0,0 175.29,0.6 341.91,0.7 l 31.35,1017.5" /><path
         id="path106"
         style="fill:#a45634;fill-opacity:1;fill-rule:nonzero;stroke:none"
         d="m 3818.48,4379.1 c 0,0 171.97,143 186.66,152.5 14.69,9.5 376.28,146.8 463.62,282.3 87.35,135.6 92.1,301.1 92.1,301.1 0,0 -226.83,13 -243.4,12.7 -16.59,-0.4 -313.68,-58.2 -403.3,-351.4 -89.63,-293.2 -94.53,-498.3 -94.53,-498.3 l -1.15,101.1" /><path
         id="path108"
         style="fill:#2f1d16;fill-opacity:1;fill-rule:nonzero;stroke:none"
         d="m 2906.38,5132.3 c -203.51,41.8 -270.28,-124.4 -292.84,-194.1 -22.56,-69.8 -74.87,-94 -85.65,-308.2 -10.79,-214.2 87.63,-264.3 101.07,-332 13.44,-67.8 98.15,-205.7 165.4,-317.3 67.25,-111.7 177.72,-130.2 217.71,-162.2 0,0 115.89,-237 505.18,-134.1 389.29,102.9 728.42,405.2 735.45,413.1 0,0 -363.64,420.9 -455.27,474.2 -20.38,128.4 -54.95,331.8 -69.91,334.9 -21.88,4.5 -717.26,180.9 -717.26,180.9 l -84.5,42.7 c 0,0 -6.16,5 -17.08,11.5 l -2.3,-9.4" /><path
         id="path110"
         style="fill:#c37140;fill-opacity:1;fill-rule:nonzero;stroke:none"
         d="m 2906.38,5132.3 c 0,0 218.85,146.1 271.72,170.8 52.88,24.7 229.32,30.5 255.39,39.8 26.06,9.3 269.85,224.4 287.88,224 18.03,-0.3 59.75,-107.6 70.11,-109.5 10.36,-1.9 115.81,9.6 125.3,14.5 9.48,4.8 31.63,6.4 31.63,6.4 0,0 41.38,17.4 64.7,13.1 23.33,-4.3 61.29,0.4 76.26,0.5 14.95,0 171.09,34.6 197.98,20.1 26.89,-14.5 107.55,-420.1 104.62,-474.6 -2.92,-54.5 -208.01,-324.7 -258.17,-362.8 -50.15,-38.1 -218.07,-76.2 -218.07,-76.2 0,0 3.05,-143 -97.25,-219.3 -100.31,-76.2 -300.87,-100.9 -354.47,6 -53.61,106.9 85.04,190.9 122.58,212.5 37.54,21.6 85.02,53.1 87.69,59.7 2.66,6.5 -100.74,9.3 -168.67,19.4 -67.92,10.2 -246.71,-47.8 -319.22,-44.5 -72.51,3.3 -165.55,78.2 -189.43,117.3 -23.89,39 -90.58,382.8 -90.58,382.8" /><path
         id="path112"
         style="fill:#2f1d16;fill-opacity:1;fill-rule:nonzero;stroke:none"
         d="m 3674.28,4657.3 c 0,0 -15.05,36.8 -36.62,35 -21.59,-1.9 -186.24,-5 -186.24,-5 0,0 -57.26,41.7 -130.79,13 -73.52,-28.7 -85.54,-39.1 -130.07,-8.9 -44.52,30.3 -138.27,-7 -165.94,25.5 -27.66,32.6 -89.31,254.6 -89.31,254.6 0,0 -154.99,81.5 -122.83,-86.7 32.16,-168.2 97.27,-335.9 187.44,-400.7 90.17,-64.8 11.92,-118 150.58,-56.6 138.66,61.3 523.78,229.8 523.78,229.8" /><path
         id="path114"
         style="fill:#2f1d16;fill-opacity:1;fill-rule:nonzero;stroke:none"
         d="m 3126.15,3708.6 c 0,0 -78.66,31.9 -109.33,55.9 -30.67,23.9 -98.13,38.5 -124.79,66 -26.66,27.4 -56.28,66.4 -62.65,72.1 -6.36,5.7 -87.28,53.6 -112.42,113.3 -25.13,59.7 -39.77,97.6 -46.2,113.1 -6.44,15.5 -77.16,90.5 -97.17,158.9 -20.02,68.4 -16.01,71.9 -26.57,103.5 -10.56,31.6 -50.21,119.4 -48.23,254.8 1.99,135.3 114.75,292 114.75,292 l 315.67,-345.7 277.77,-490 -80.83,-393.9" /></g></g></svg>