<?xml version="1.0" encoding="UTF-8" standalone="no"?>
<svg
   xmlns:dc="http://purl.org/dc/elements/1.1/"
   xmlns:cc="http://creativecommons.org/ns#"
   xmlns:rdf="http://www.w3.org/1999/02/22-rdf-syntax-ns#"
   xmlns:svg="http://www.w3.org/2000/svg"
   xmlns="http://www.w3.org/2000/svg"
   viewBox="0 0 2666.6667 2666.6667"
   height="2666.6667"
   width="2666.6667"
   xml:space="preserve"
   id="svg2"
   version="1.1"><metadata
     id="metadata8"><rdf:RDF><cc:Work
         rdf:about=""><dc:format>image/svg+xml</dc:format><dc:type
           rdf:resource="http://purl.org/dc/dcmitype/StillImage" /></cc:Work></rdf:RDF></metadata><defs
     id="defs6" /><g
     transform="matrix(1.3333333,0,0,-1.3333333,0,2666.6667)"
     id="g10"><g
       transform="scale(0.1)"
       id="g12"><g
         transform="scale(1.22699)"
         id="g14"><path
           id="path16"
           style="fill:none;fill-opacity:1;fill-rule:nonzero;stroke:none"
           d="M 16300,0 H 0 V 16300 H 16300 V 0" /></g><path
         id="path18"
         style="fill:#1e1b1b;fill-opacity:1;fill-rule:nonzero;stroke:none"
         d="m 6646.72,4941.8 3466.18,6479 -469.8,-3221.7 -1804.02,-3294.2 -1192.36,36.9" /><path
         id="path20"
         style="fill:#4e4e51;fill-opacity:1;fill-rule:nonzero;stroke:none"
         d="m 7232.67,5134.2 2635.12,4754.5 -91.91,-704.8 -2083.6,-3717.7 -459.61,-332" /><g
         transform="scale(1.07051)"
         id="g22"><path
           id="path24"
           style="fill:#4e4b4f;fill-opacity:1;fill-rule:nonzero;stroke:none"
           d="m 1797.36,16106.8 v 121.6 c 0,0 -135.96,71.6 -157.43,-207.5 -21.47,-279 393.56,-3599.3 393.56,-3599.3 l 135.96,-364.9 h 85.88 l -42.94,737 -415.03,3313.1" /></g><path
         id="path26"
         style="fill:#1e1b1b;fill-opacity:1;fill-rule:nonzero;stroke:none"
         d="m 2498.62,13098.3 c 0,0 22.98,-436.6 275.77,-903.9 h 1401.83 c 0,0 -274.64,456.7 -321.73,812 -47.1,355.3 -896.25,294.9 -896.25,294.9 l -459.62,-203" /><path
         id="path28"
         style="fill:#1e1b1b;fill-opacity:1;fill-rule:nonzero;stroke:none"
         d="m 4750.74,2851.4 112.35,-602.6 h 214.49 l 91.92,725.2 -418.76,-122.6" /><path
         id="path30"
         style="fill:#1e1b1b;fill-opacity:1;fill-rule:nonzero;stroke:none"
         d="m 5011.19,2059.9 h -81.71 v 280.9 h 81.71 v -280.9" /><path
         id="path32"
         style="fill:#1e1b1b;fill-opacity:1;fill-rule:nonzero;stroke:none"
         d="m 5169.5,1937.3 h -418.76 v 178.8 h 418.76 v -178.8" /><path
         id="path34"
         style="fill:#1e1b1b;fill-opacity:1;fill-rule:nonzero;stroke:none"
         d="m 5547.41,2070.1 c 0,-127.9 -103.68,-231.6 -231.57,-231.6 -127.89,0 -231.57,103.7 -231.57,231.6 0,127.9 103.68,231.6 231.57,231.6 127.89,0 231.57,-103.7 231.57,-231.6" /><path
         id="path36"
         style="fill:#1e1b1b;fill-opacity:1;fill-rule:nonzero;stroke:none"
         d="m 14104.9,2121.1 75.6,-543.8 h 291.1 v 651.1 l -366.7,-107.3" /><path
         id="path38"
         style="fill:#1e1b1b;fill-opacity:1;fill-rule:nonzero;stroke:none"
         d="m 6558.56,2688 c -51.06,30.7 -1246.06,-357.5 -1246.06,-357.5 0,0 153.2,-350.2 194.05,-343.6 40.86,6.6 1429.92,425.4 1429.92,425.4 0,0 398.33,-255.4 459.62,-255.4 61.28,0 357.48,275.8 337.05,306.4 -20.43,30.7 -817.1,377.9 -868.16,398.4 -51.07,20.4 -306.42,-173.7 -306.42,-173.7" /><g
         transform="scale(1.12516)"
         id="g40"><path
           id="path42"
           style="fill:#292827;fill-opacity:1;fill-rule:nonzero;stroke:none"
           d="m 3582.31,3941.31 c 0,0 -694.42,-108.96 -925.91,-340.4 -231.47,-231.52 -231.47,-939.6 272.33,-1184.63 0,0 10716.07,-762.56 11029.17,-776.16 313.2,-13.59 2028.9,1007.59 2042.5,1048.48 13.6,40.79 299.6,204.24 190.6,721.67 -108.9,517.44 -612.7,531.04 -612.7,531.04 L 5638.38,4423.82 3582.31,3941.31" /></g><g
         transform="scale(1.12516)"
         id="g44"><path
           id="path46"
           style="fill:#3c3c3d;fill-opacity:1;fill-rule:nonzero;stroke:none"
           d="m 16191,3410.27 c -108.9,517.44 -612.7,531.04 -612.7,531.04 L 5638.38,4423.82 3582.31,3941.31 c 0,0 -277.79,-43.64 -540.55,-134.29 L 13985.2,3206.03 c 0,0 1007.6,-231.87 381.2,-1402.73 -6.7,-12.53 -12.4,-24.97 -17.9,-37.42 610.3,271.61 1641.4,891.08 1651.9,922.72 13.6,40.79 299.6,204.24 190.6,721.67" /></g><path
         id="path48"
         style="fill:#929292;fill-opacity:1;fill-rule:nonzero;stroke:none"
         d="m 3777.89,4066.9 h -428.98 c 0,0 -283.5,-21.3 -390.67,-398.4 -107.18,-377 214.48,-743 409.82,-819.6 0,0 12068.74,-835 12298.54,-819.7 229.8,15.4 528.6,314.1 551.6,635.8 23,321.8 -183.9,620.5 -536.2,697.1 -352.4,76.6 -11904.11,704.8 -11904.11,704.8" /><path
         id="path50"
         style="fill:#b8b7b6;fill-opacity:1;fill-rule:nonzero;stroke:none"
         d="m 2498.62,13098.3 459.61,203 c 0,0 0.15,0 0.45,0.1 -0.29,-0.1 -0.44,-0.1 -0.44,-0.1 l -459.62,-203" /><path
         id="path52"
         style="fill:#4e4e51;fill-opacity:1;fill-rule:nonzero;stroke:none"
         d="m 2774.39,12194.4 v 0 c -252.79,467.3 -275.77,903.9 -275.77,903.9 v 0 l 459.62,203 c 0,0 0.15,0 0.44,0.1 5.35,0.3 58.32,3.8 136.07,3.8 32.21,0 68.69,-0.6 107.78,-2.3 -18.79,-0.8 -29.81,-1.6 -29.81,-1.6 l -459.62,-203 c 0,0 20.41,-387.4 234.09,-823 -91.64,-43.2 -172.8,-80.9 -172.8,-80.9" /><path
         id="path54"
         style="fill:#1e1b1b;fill-opacity:1;fill-rule:nonzero;stroke:none"
         d="m 3202.53,12401.3 c 0.83,-7.7 -428.14,-206.9 -428.14,-206.9 h -406 c 0,0 -153.21,-15.3 -153.21,-183.8 0,-168.5 199.17,-520.9 199.17,-520.9 l 4427.64,-38.3 c 0,0 451.96,0 375.36,-475 -76.61,-474.9 -3424.15,-6702.7 -3439.47,-6725.7 -15.32,-23 -137.88,-130.2 -160.86,-168.5 -22.98,-38.3 -191.51,-574.5 -191.51,-597.5 0,-23 68.94,-145.5 206.83,-191.5 137.88,-46 972.86,-38.3 972.86,-38.3 0,0 214.48,15.3 314.07,229.8 99.58,214.5 114.9,566.9 160.86,643.5 45.96,76.6 3240.3,6442.3 3600.33,6924.9 360.03,482.6 799.98,467.2 1123.89,482.6 323.95,15.3 1751.85,-114.9 1751.85,-114.9 l 410.5,168.5 c 0,0 -275.8,628.1 -314.1,612.8 -38.3,-15.3 -1729.67,-37.8 -1848.25,-30.6 -118.58,7.2 -5628.13,22.9 -5628.13,22.9 l -973.69,206.9" /><path
         id="path56"
         style="fill:#4e4e51;fill-opacity:1;fill-rule:nonzero;stroke:none"
         d="m 4112.91,4126.3 c -184.62,0 -335.03,124.4 -335.03,124.4 15.32,23 3362.86,6250.8 3439.47,6725.7 0,0 188.54,46.5 361.66,46.5 108.19,0 210.37,-18.2 256.69,-77.1 120.44,-153.2 -3016.02,-6005.6 -3314.77,-6534.2 -124.94,-221.1 -275.31,-285.4 -408.02,-285.3" /><g
         transform="scale(1.11935)"
         id="g58"><path
           id="path60"
           style="fill:#2d2b2b;fill-opacity:1;fill-rule:nonzero;stroke:none"
           d="m 14423,1775.05 c 5.5,12.51 11.3,25.01 18,37.61 149.4,279.36 206.3,505.47 206.3,687.9 -0.3,586.5 -589.5,722.12 -589.5,722.12 l 1601.4,739.09 c 0,0 506.3,-13.67 615.9,-533.8 17.4,-82.82 24.8,-156.61 24.8,-222.27 0.1,-346.98 -204.9,-468.67 -216.5,-503.15 -10.5,-31.8 -1047,-654.49 -1660.4,-927.5" /></g><path
         id="path62"
         style="fill:#1e1b1b;fill-opacity:1;fill-rule:nonzero;stroke:none"
         d="m 5884.46,3411.4 -75.98,-157 9865.82,-566.4 -76.6,137.9 -9713.24,585.5" /><path
         id="path64"
         style="fill:#1e1b1b;fill-opacity:1;fill-rule:nonzero;stroke:none"
         d="m 14624.8,1473.9 c 0,-82.5 -142.3,-149.4 -317.9,-149.4 -175.5,0 -317.9,66.9 -317.9,149.4 0,82.5 142.4,149.4 317.9,149.4 175.6,0 317.9,-66.9 317.9,-149.4" /><path
         id="path66"
         style="fill:#c7c6c4;fill-opacity:1;fill-rule:nonzero;stroke:none"
         d="m 11669.5,12190.1 c 0,0.1 0,0.1 0,0.1 0,0 0,0 0,-0.1 m -0.2,0.3 c 0,0.1 -0.1,0.1 -0.1,0.2 0,-0.1 0.1,-0.1 0.1,-0.2 m -0.2,0.3 c -0.1,0 -0.1,0.1 -0.1,0.2 0,-0.1 0,-0.2 0.1,-0.2 m -0.2,0.2 c -0.1,0.1 -0.2,0.2 -0.2,0.3 0,-0.1 0.1,-0.2 0.2,-0.3 m -0.2,0.3 c -5.1,6 -9.4,9.7 -12.7,10.8 3.3,-1.1 7.6,-4.8 12.7,-10.8 m -12.7,10.8 c 0,0.1 -0.1,0.1 -0.1,0.1 0,0 0.1,0 0.1,-0.1 m -0.1,0.1 c -0.1,0 -0.1,0 -0.1,0 0,0 0,0 0.1,0 m -0.2,0 c 0,0 0,0.1 -0.1,0.1 0.1,0 0.1,-0.1 0.1,-0.1 m -0.1,0.1 c 0,0 -0.1,0 -0.1,0 0,0 0.1,0 0.1,0 m -0.1,0 c -0.1,0 -0.1,0 -0.2,0 0.1,0 0.1,0 0.2,0 m -0.2,0 c 0,0 -0.1,0.1 -0.1,0.1 0,0 0.1,-0.1 0.1,-0.1 m -0.1,0.1 c -0.1,0 -0.1,0 -0.1,0 0,0 0,0 0.1,0 m -0.2,0 c 0,0 0,0 -0.1,0 0.1,0 0.1,0 0.1,0 m -0.1,0 c 0,0 -0.1,0 -0.1,0 0,0 0.1,0 0.1,0 m -0.2,0 c 0,0 0,0 0,0 0,0 0,0 0,0 m -0.1,0.1 h -0.1 0.1 m -0.1,0 c -0.1,0 -0.1,0 -0.1,0 0,0 0,0 0.1,0" /><path
         id="path68"
         style="fill:#444346;fill-opacity:1;fill-rule:nonzero;stroke:none"
         d="m 11829,11890.9 c -772.6,93.2 -1490.2,122.2 -1490.2,122.2 H 2215.33 c 1.63,166 153.06,181.3 153.06,181.3 h 406 1401.83 c 0,0 5509.55,-15.7 5628.13,-22.9 15.66,-1 58.72,-1.4 121.77,-1.4 414.58,0 1693.28,18.7 1726.48,32 0.5,0.2 1,0.3 1.5,0.3 0.1,0 0.2,0 0.3,0 0,0 0,0 0.1,0 0,0 0,0 0,0 h 0.1 c 0,-0.1 0,-0.1 0.1,-0.1 0,0 0,0 0,0 0.1,0 0.1,0 0.1,0 0,0 0.1,0 0.1,0 v 0 c 0.1,0 0.1,0 0.1,0 0,0 0,0 0.1,0 0,0 0,0 0.1,0 v 0 c 0,0 0.1,-0.1 0.1,-0.1 v 0 c 0.1,0 0.1,0 0.2,0 v 0 c 0,0 0.1,0 0.1,0 v 0 c 0.1,0 0.1,-0.1 0.1,-0.1 0,0 0,0 0.1,0 0,0 0,0 0.1,0 v 0 c 0,0 0.1,0 0.1,-0.1 v 0 c 3.3,-1.1 7.6,-4.8 12.7,-10.8 0,0 0,0 0,0 0,-0.1 0.1,-0.2 0.2,-0.3 0,0 0,0 0.1,0 0,-0.1 0,-0.2 0.1,-0.2 0,-0.1 0.1,-0.1 0.1,-0.1 0,-0.1 0.1,-0.1 0.1,-0.2 0.1,0 0.1,-0.1 0.2,-0.2 0,0 0,0 0,-0.1 32.8,-39.7 98.3,-170 159.5,-299.2" /><g
         transform="scale(1.06722)"
         id="g70"><path
           id="path72"
           style="fill:#1e1b1b;fill-opacity:1;fill-rule:nonzero;stroke:none"
           d="m 1802.9,16278.5 c 0,0 -86.14,21.5 -86.14,-100.5 0,-122 502.45,-3344.9 502.45,-3344.9 l 2720.37,-136.3 -416.31,3029 c 0,0 7.17,100.5 -93.31,157.9 -100.49,57.4 -2627.06,394.8 -2627.06,394.8" /></g><g
         transform="scale(1.0483)"
         id="g74"><path
           id="path76"
           style="fill:#ffffff;fill-opacity:1;fill-rule:nonzero;stroke:none"
           d="m 1895.26,16300 407.85,-2840.6 2557.55,-124.3 -358.05,2608.7 -2607.35,356.2" /></g><path
         id="path78"
         style="fill:#929292;fill-opacity:1;fill-rule:nonzero;stroke:none"
         d="m 2414.36,12906.8 h 2765.36 c 0,0 84.26,-7.6 91.92,229.9 7.66,237.4 0,413.6 0,413.6 l -2903.25,145.6 45.97,-789.1" /><path
         id="path80"
         style="fill:#ffffff;fill-opacity:1;fill-rule:nonzero;stroke:none"
         d="m 4000.03,13255.4 c 0,-86.7 -49.73,-157.1 -111.07,-157.1 -61.35,0 -111.07,70.4 -111.07,157.1 0,86.7 49.72,157 111.07,157 61.34,0 111.07,-70.3 111.07,-157" /><path
         id="path82"
         style="fill:#3970c0;fill-opacity:1;fill-rule:nonzero;stroke:none"
         d="m 14226.5,8295.4 212.6,260.4 c 0,0 185.7,107.2 331.3,0 145.5,-107.2 214.5,-689.4 344.7,-865.6 130.2,-176.2 321.7,-758.4 275.8,-1003.5 -46,-245.1 -163.9,-263.2 -275.8,-199.2 -111.9,64 -676,1279.3 -676,1279.3 l -212.6,528.6" /><path
         id="path84"
         style="fill:#3970c0;fill-opacity:1;fill-rule:nonzero;stroke:none"
         d="m 13763.1,7835.7 65.1,-191.5 c 0,0 23,-84.2 84.2,-153.2 61.3,-68.9 321.8,-114.9 444.3,-191.5 122.6,-76.6 344.7,-329.4 536.2,-605.1 191.6,-275.8 222.2,-206.9 222.2,-206.9 0,0 -107.2,559.2 -291.1,972.9 -183.8,413.6 -298.7,727.7 -321.7,835 -23,107.2 -63.2,260.4 -63.2,260.4 l -656.9,-260.4 -19.1,-459.7" /><path
         id="path86"
         style="fill:#3970c0;fill-opacity:1;fill-rule:nonzero;stroke:none"
         d="m 9270.3,5616.2 -153.21,8.3 c 0,0 -86.81,-71.5 -194.05,-163.4 -107.25,-92 -485.15,-311.6 -648.57,-362.6 -163.43,-51.1 -301.31,-137.9 -342.16,-204.3 -40.85,-66.4 -76.61,-173.6 20.42,-204.3 97.04,-30.6 750.71,-71.5 1230.76,-51.1 480.04,20.5 582.18,5.2 653.67,56.2 71.5,51.1 -5.1,760.9 0,791.6 5.11,30.6 -132.78,30.6 -132.78,30.6 l -296.19,173.7 -137.89,-74.7" /><path
         id="path88"
         style="fill:#f5f6f5;fill-opacity:1;fill-rule:nonzero;stroke:none"
         d="m 13659.6,7690.2 168.6,-46 c 0,0 45.9,137.9 84.2,145.6 38.3,7.6 61.3,-30.7 92,0 30.6,30.6 38.3,406 38.3,406 l -260.5,99.6 -298.7,-325.6 176.1,-279.6" /><path
         id="path90"
         style="fill:#f5f6f5;fill-opacity:1;fill-rule:nonzero;stroke:none"
         d="m 9239.66,5859.4 -122.57,-234.9 c 0,0 97.04,-234.9 219.6,-250.3 122.57,-15.3 229.81,107.3 285.99,122.6 56.17,15.3 61.28,10.2 81.7,20.4 20.43,10.2 71.5,219.6 71.5,219.6 l -536.22,122.6" /><path
         id="path92"
         style="fill:#ecb088;fill-opacity:1;fill-rule:nonzero;stroke:none"
         d="m 9745.24,10256.4 c 0,0 -252.79,-1156.7 -275.77,-1355.9 -22.98,-199.2 91.92,-804.3 53.62,-1034.1 -38.3,-229.8 -7.66,-658.8 -107.24,-1241 -99.59,-582.2 -176.19,-766 -176.19,-766 0,0 298.75,-137.9 536.22,-122.6 0,0 360.02,796.7 528.52,1424.8 168.6,628.2 -45.9,2175.5 -45.9,2175.5 0,0 -145.6,1018.9 -168.5,1034.2 -23,15.3 -344.76,-114.9 -344.76,-114.9" /><path
         id="path94"
         style="fill:#fbc398;fill-opacity:1;fill-rule:nonzero;stroke:none"
         d="m 9523.09,12853.2 168.53,-566.8 c 0,0 -76.61,-1187.4 53.62,-2030 130.22,-842.7 612.86,-1639.3 674.06,-1784.9 61.3,-145.5 168.6,-390.6 344.8,-436.6 176.1,-46 444.2,30.6 873.2,-38.3 429,-68.9 919.3,-91.9 1225.7,-137.9 306.4,-45.9 796.6,-168.5 796.6,-168.5 l 122.6,605.2 c 0,0 -865.6,383 -1378.8,528.5 -513.3,145.6 -1080.1,69 -1149.1,122.6 -68.9,53.6 -61.3,1623.9 -61.3,1623.9 0,0 459.2,566.9 532.2,1072.5 73,505.6 -168.9,934.5 -168.9,934.5 l -254.6,482.9 -1119.8,329.1 c 0,0 -429,-84.2 -597.52,-206.8 -168.53,-122.6 143.82,-84.3 143.82,-84.3 l -205.11,-245.1" /><path
         id="path96"
         style="fill:#fbc398;fill-opacity:1;fill-rule:nonzero;stroke:none"
         d="m 11685.8,13560.5 c 0,0 -224.7,10.2 -297.4,0 -72.8,-10.2 -122.6,-2.5 -183.9,-37 -61.3,-34.5 -65.1,-218.3 -53.6,-256.6 11.5,-38.3 137.3,-165.6 142.2,-189.9 4.8,-24.3 91.4,-108.9 106.8,-120.4 15.3,-11.5 91.9,-99.5 164.7,-68.9 72.7,30.6 164.6,76.6 248.9,176.2 84.3,99.6 153.2,241.3 153.2,241.3 0,0 -118.7,314.1 -137.9,314.1 -19.1,0 -143,-58.8 -143,-58.8" /><path
         id="path98"
         style="fill:#d49a72;fill-opacity:1;fill-rule:nonzero;stroke:none"
         d="m 11679.5,13056.2 c -11.5,34.5 -30.7,91.9 -38.3,103.4 -7.7,11.5 -26.9,38.3 -49.8,61.3 -23,23 -118.8,57.5 -130.3,61.3 -11.5,3.8 -42.1,53.6 -72.7,61.3 -30.7,7.6 -199.2,-19.2 -199.2,-19.2 0,0 -3.8,-61.3 0,-74 3.8,-12.8 137.9,28.1 172.4,20.4 34.4,-7.7 34.4,-30.6 34.4,-46 0,-9 -66,-70.5 -120.5,-119.8 9.8,-12.7 16.5,-22.7 17.6,-27.9 0.8,-4.1 4,-9.9 8.6,-16.7 57.8,60.5 146.5,146.5 179.9,141.5 51,-7.7 60,-30.7 74.7,-46 11.2,-11.7 -118,-117.9 -182.5,-175.5 12,-11.6 21.8,-20.5 26.1,-23.7 4.4,-3.3 13.9,-13 26.9,-24.3 46.3,56.6 136.9,166 145.4,166 11.5,0 42.1,-11.4 42.1,-30.6 0,-19.1 0,-72.8 0,-84.3 0,-5.7 16.6,-31.6 33,-55.9 25.3,14.1 51.5,31.1 77.9,51.7 -19.4,28 -40.1,60 -45.7,77" /><path
         id="path100"
         style="fill:#e7a980;fill-opacity:1;fill-rule:nonzero;stroke:none"
         d="m 8492.78,14454.2 c 11.49,-7.6 -130.22,57.5 -160.86,57.5 -30.64,0 -126.4,-29.1 -126.4,-29.1 0,0 -99.58,52.1 -145.54,48.2 -45.96,-3.8 -76.61,-38.5 -76.61,-38.5 0,0 -72.76,2.8 -84.26,-38.7 -11.49,-41.5 -19.15,-91.3 -19.15,-91.3 0,0 -30.64,-49.8 -30.64,-80.4 0,-30.7 0,-72.8 0,-72.8 0,0 -30.64,-126.4 0,-157 30.64,-30.7 222.15,-118.8 371.52,-95.8 149.38,23 294.93,76.6 321.74,199.2 26.8,122.5 -49.8,298.7 -49.8,298.7" /><path
         id="path102"
         style="fill:#3970c0;fill-opacity:1;fill-rule:nonzero;stroke:none"
         d="m 9196.08,14398.7 c 0,0 97.2,-258.6 143.16,-312.2 45.96,-53.6 74.59,-789 110.07,-934.5 35.48,-145.6 50.8,-245.2 73.78,-298.8 22.98,-53.6 628.11,176.2 1133.71,183.9 219.8,3.3 373,-7.8 475.4,-19 133,-14.5 180.1,-29 175.7,-11.7 -7.6,30.7 -114.9,528.6 -76.6,819.7 38.3,291.1 250.3,760.9 250.3,760.9 l -657.5,372.8 c 0,0 -544.1,287 -865.1,185.6 -321,-101.3 -622.31,-395 -622.31,-395 l -140.61,-351.7" /><path
         id="path104"
         style="fill:#2e61a1;fill-opacity:1;fill-rule:nonzero;stroke:none"
         d="m 9435.13,13241.4 14.18,63.8 c 0,0 30.37,485.1 0,740.5 -30.37,255.3 -51.34,357.5 50.8,485.3 102.13,127.9 571.99,147.9 571.99,147.9 l 188.2,475.7 c -106.7,17.1 -212.5,18.9 -301.3,-9.2 -321,-101.3 -622.31,-395 -622.31,-395 l -140.61,-351.7 c 0,0 97.2,-258.6 143.16,-312.2 39.7,-46.3 66.47,-600.9 95.89,-845.1" /><g
         transform="scale(1.01428)"
         id="g106"><path
           id="path108"
           style="fill:#fbc398;fill-opacity:1;fill-rule:nonzero;stroke:none"
           d="m 10000.8,16300 c -15.06,0 -371.34,-40.3 -517.97,-55.4 -146.65,-15.1 -373.23,25.2 -554.48,-115.8 -181.26,-141 -241.69,-448.1 -292.03,-795.5 -50.35,-347.4 -266.86,-916.4 -297.07,-1092.6 0,0 -110.77,-110.8 -181.25,-246.7 -70.49,-136 -95.66,-256.8 -85.6,-287 10.07,-30.2 176.23,-130.9 281.96,-176.2 105.74,-45.3 211.47,-110.8 302.09,-85.6 90.64,25.1 201.41,171.2 236.66,292 35.24,120.8 312.16,805.6 312.16,805.6 0,0 488.39,-55.4 725.06,-70.5 236.67,-15.1 314.67,-115.8 640.67,-161.1 326,-45.3 527.4,-50.4 592.9,-35.3 65.4,15.1 156.1,105.8 156.1,105.8 l 226.6,488.1 c 0,0 196.3,-45 523.6,-206.2 327.2,-161.1 327.2,-161.1 327.2,-161.1 0,0 -166.1,-241.7 -342.3,-528.7 -176.3,-287 -548.9,-594.1 -533.8,-604.2 15.2,-10 277,-251.7 277,-251.7 0,0 488.4,463.2 714.9,619.3 226.6,156.1 483.4,513.6 513.6,543.8 30.2,30.2 80.6,176.2 25.2,332.3 -55.4,156.1 -417.9,493.4 -704.9,699.8 -287,206.5 -503.5,392.8 -709.9,473.3 -206.5,80.6 -448.1,80.6 -614.3,156.1 -166.2,75.5 -451.9,230.4 -451.9,230.4 l -570.2,127.1" /></g><g
         transform="scale(1.09574)"
         id="g110"><path
           id="path112"
           style="fill:#ffffff;fill-opacity:1;fill-rule:nonzero;stroke:none"
           d="m 10047.2,16300 c 0,0 72.2,-135.3 49,-335.7 -23.3,-200.4 -168.42,-232.3 -168.42,-232.3 l -49.46,232.3 168.88,335.7" /></g><g
         transform="scale(1.10882)"
         id="g114"><path
           id="path116"
           style="fill:#fbc398;fill-opacity:1;fill-rule:nonzero;stroke:none"
           d="m 8422.72,16300 c 0,-13.8 -44.91,-259.1 -44.91,-307.4 0,-48.4 41.46,-207.3 22.46,-248.7 -19,-41.5 -119.17,-248.7 -105.36,-290.2 13.82,-41.4 145.08,-48.4 145.08,-48.4 0,0 0,-414.5 76,-455.9 75.99,-41.5 359.24,27.6 359.24,27.6 v -103.6 c 0,0 794.45,-89.8 794.45,-79.5 0,10.4 -44.64,191.5 -37.24,376.5 9.2,230.8 0,230.4 0,230.4 0,0 -335.77,-137.1 -349.56,-74.9 -13.89,62.2 0,310.9 -31.12,404.2 -31.11,93.2 -190.02,158.8 -248.72,165.7 -58.72,7 -131.27,-51.8 -148.54,-107 -17.27,-55.3 -44.9,-55.3 -44.9,-55.3 0,0 -48.36,114 -62.19,134.7 -13.8,20.7 -17.26,107.1 -69.07,131.3 -51.82,24.2 -110.54,48.3 -151.99,79.4 -41.45,31.1 -103.63,221.1 -103.63,221.1" /></g><g
         transform="scale(1.14774)"
         id="g118"><path
           id="path120"
           style="fill:#34231f;fill-opacity:1;fill-rule:nonzero;stroke:none"
           d="m 9576.44,15721.6 c 0,0 0,66.7 -53.41,164.6 -53.32,97.9 -169.03,351.5 -605.1,382.7 -436.05,31.1 -622.93,-222.5 -689.66,-307.1 -66.75,-84.5 -91.22,-214.6 -91.22,-214.6 0,0 60.07,-183.6 100.11,-213.6 40.04,-30.1 96.77,-53.4 146.84,-76.8 50.05,-23.3 53.39,-106.8 66.74,-126.8 13.35,-20 60.06,-130.1 60.06,-130.1 0,0 26.7,0 43.38,53.4 16.69,53.4 86.77,110.1 143.5,103.4 56.71,-6.7 210.23,-70.1 240.29,-160.2 29.97,-90.1 16.64,-330.3 29.97,-390.4 13.42,-60.1 250.32,26.7 250.32,26.7 0,0 229.14,87.9 322.63,310.3 93.4,222.5 35.55,578.5 35.55,578.5" /></g><g
         transform="scale(1.07991)"
         id="g122"><path
           id="path124"
           style="fill:#da9a70;fill-opacity:1;fill-rule:nonzero;stroke:none"
           d="m 9318.25,16300 c 0,0 5.56,-73.3 0,-177.3 -5.65,-104.1 -18.71,-121.5 -52.41,-160.1 -33.67,-38.5 -43.8,-114.2 -43.8,-114.2 0,0 71.58,67.7 133.06,114.2 61.49,46.6 67.32,281 67.32,281 l -104.17,56.4" /></g><g
         transform="scale(1.01699)"
         id="g126"><path
           id="path128"
           style="fill:#ecc8b0;fill-opacity:1;fill-rule:nonzero;stroke:none"
           d="m 9371.8,16284.8 c -36.6,0 -67.77,4 -86.89,14.4 -0.07,0 -0.15,0.1 -0.23,0.1 0.08,0 0.16,-0.1 0.23,-0.1 19.12,-10.4 50.29,-14.4 86.89,-14.4 v 0 m -87.19,14.6 c -0.06,0 -0.11,0 -0.17,0.1 0.05,-0.1 0.11,-0.1 0.17,-0.1 m -0.28,0.1 c -0.04,0.1 -0.09,0.1 -0.12,0.1 0.03,0 0.08,0 0.12,-0.1 m -0.27,0.2 c -0.03,0 -0.05,0 -0.08,0 0.02,0 0.06,0 0.08,0 m -0.28,0.1 c -0.01,0 -0.02,0.1 -0.03,0.1 0.01,0 0.02,-0.1 0.03,-0.1 m -0.25,0.2 v 0 0" /></g><g
         transform="scale(1.03777)"
         id="g130"><path
           id="path132"
           style="fill:#e8ac82;fill-opacity:1;fill-rule:nonzero;stroke:none"
           d="m 9184.1,15958.6 c -35.87,0 -66.41,3.9 -85.15,14.1 -0.07,0.1 -0.15,0.1 -0.23,0.2 -0.02,0 -0.05,0 -0.07,0 -0.06,0 -0.11,0.1 -0.16,0.1 -0.04,0 -0.07,0 -0.11,0.1 -0.03,0 -0.08,0 -0.12,0 -0.05,0.1 -0.1,0.1 -0.15,0.1 -0.02,0 -0.05,0.1 -0.07,0.1 -0.07,0 -0.13,0 -0.19,0.1 -0.02,0 -0.02,0 -0.03,0 -0.08,0 -0.15,0.1 -0.23,0.1 v 0 c -18.82,11.5 -33.17,44.7 -44.16,88.5 0.01,0 27.86,-9 70,-9 38.06,0 87.77,7.4 139.15,35.4 108.25,59 220.21,211.6 220.21,211.6 v -297.7 0 c 0,0 -0.43,-0.1 -1.26,-0.3 -16.08,-3.9 -183.66,-43.4 -297.43,-43.4" /></g><g
         transform="scale(1.01999)"
         id="g134"><path
           id="path136"
           style="fill:#3970c0;fill-opacity:1;fill-rule:nonzero;stroke:none"
           d="m 9763.78,16189.7 c 0,0 271.12,110.3 401.32,47.1 130.2,-63.2 100.1,-53.2 190.2,-68.2 90.2,-15 267.2,5.7 300.4,-87.3 33.2,-93 -13.8,-203.1 75.7,-368.3 89.5,-165.3 525.1,-1411.9 525.1,-1411.9 0,0 -19.6,-121.5 -235.5,-112.5 0,0 -180.1,1038.7 -335.3,1173.9 -155.1,135.2 -124.5,25 -152.4,-360.5 -27.8,-385.5 -157,-746.4 -157,-746.4 0,0 -352.6,21.1 -452.22,130.9 0,0 281.02,14.7 381.22,450.3 100.1,435.6 120.1,746 55,981.3 -65,235.3 -255.5,354.8 -255.5,354.8 l -341.02,16.8" /></g><path
         id="path138"
         style="fill:#ecc8b0;fill-opacity:1;fill-rule:nonzero;stroke:none"
         d="m 12574.4,14709.6 -863,372.5 c 0,0 199.1,-45.7 531.1,-209.1 331.9,-163.4 331.9,-163.4 331.9,-163.4 v 0" /><path
         id="path140"
         style="fill:#e8ac82;fill-opacity:1;fill-rule:nonzero;stroke:none"
         d="m 12574.4,14709.6 v 0 0 c 0,0 0,0 -331.9,163.4 -332,163.4 -531.1,209.1 -531.1,209.1 l 109.8,360.3 c 0,0 122.5,-229.8 206.8,-298.8 84.3,-68.9 497.9,-283.4 528.6,-306.4 30.6,-22.9 17.8,-127.6 17.8,-127.6" /><path
         id="path142"
         style="fill:#7f8488;fill-opacity:1;fill-rule:nonzero;stroke:none"
         d="m 9561.93,14725.9 h -0.03 c 0.02,0 0.02,0 0.03,0 v 0 m -225.23,24.5 h -0.01 v 0 c 0,0 0,0 0.01,0" /><path
         id="path144"
         style="fill:#e8ac82;fill-opacity:1;fill-rule:nonzero;stroke:none"
         d="m 9561.93,14725.9 c -0.01,0 -0.01,0 -0.03,0 l -225.2,24.5 c -0.01,0 -0.01,0 -0.01,0 0,0 140.44,477.5 155.76,814.5 0,0 76.6,-265.5 68.94,-488.9 -7.66,-223.4 0.54,-350.1 0.54,-350.1" /><path
         id="path146"
         style="fill:#d49a72;fill-opacity:1;fill-rule:nonzero;stroke:none"
         d="m 11346.2,11321.2 c 0,0 -148.9,-153.2 -158.7,-191.5 -9.8,-38.3 5.5,-559.3 5.5,-559.3 l 120.9,164.5 c 0,0 -74.9,371.8 32.3,586.3" /><path
         id="path148"
         style="fill:#66abe2;fill-opacity:1;fill-rule:nonzero;stroke:none"
         d="m 15115.1,7690.2 c -130.2,176.2 -199.2,758.4 -344.7,865.6 -51.1,37.6 -107.1,48.6 -158.3,47.3 58.4,-145.2 138,-342.2 200.1,-491.6 111.4,-268.1 157.4,-429 211,-789 49.1,-329.6 168.5,-614.2 182.5,-865.7 79.8,-6.6 151.6,51.1 185.2,229.9 45.9,245.1 -145.6,827.3 -275.8,1003.5" /><path
         id="path150"
         style="fill:#3970c0;fill-opacity:1;fill-rule:nonzero;stroke:none"
         d="m 9446.49,4955.5 c -420.21,-25.8 -492.81,-91.9 -809.43,-122.6 -193.06,-18.7 -505.55,0.6 -727.14,18.5 -27.33,-62.6 -35.24,-136.8 42.81,-161.5 97.04,-30.6 750.71,-71.5 1230.76,-51.1 480.04,20.5 582.18,5.2 653.67,56.2 27.98,20 33.24,141 29.63,282.5 -113.21,-5.8 -255.69,-11.9 -420.3,-22" /><g
         transform="scale(1.08963)"
         id="g152"><path
           id="path154"
           style="fill:#34231f;fill-opacity:1;fill-rule:nonzero;stroke:none"
           d="m 9837.54,16212.7 c 31.11,15.6 224.66,87.3 224.66,87.3 0,0 443.8,-109.5 482.7,-518.2 38.9,-408.6 -159.9,-737.3 -216,-1080.3 -56,-342.9 -71.5,-567.8 -71.5,-567.8 0,0 -256.6,260 -419.86,734.2 -163.26,474.2 0,1344.8 0,1344.8" /></g><path
         id="path156"
         style="fill:#343434;fill-opacity:1;fill-rule:nonzero;stroke:none"
         d="m 11556.3,12577.4 -254.6,482.9 -5.7,1.7 c 6.2,-30.4 10.6,-50.2 11.9,-55.6 7.7,-30.6 -145.5,38.3 -651.1,30.7 -505.6,-7.7 -1110.73,-237.5 -1133.71,-183.9 l 168.53,-566.8 c 0,0 -33.16,-514.1 -18.75,-1105.8 298.1,12 965.83,7.7 1514.63,-50.9 l 298.9,-118.8 c 106.2,189.3 207.7,416.2 238.8,632 73,505.6 -168.9,934.5 -168.9,934.5" /><g
         transform="scale(1.09108)"
         id="g158"><path
           id="path160"
           style="fill:#ffffff;fill-opacity:1;fill-rule:nonzero;stroke:none"
           d="m 10048.9,16278.4 c 0,0 -165.74,-46 -252.9,-270.2 0,0 -73.14,291.8 252.9,270.2" /></g><path
         id="path162"
         style="fill:#1e1b1b;fill-opacity:1;fill-rule:nonzero;stroke:none"
         d="m 11290.9,11085.7 c 5.6,83.1 21.2,167.2 55.3,235.5 0,0 -148.9,-153.2 -158.7,-191.5 -1.4,-5.6 0.5,22.7 0,0 l 103.4,-44" /></g></g></svg>