<?xml version="1.0" encoding="UTF-8" standalone="no"?>
<svg
   xmlns:dc="http://purl.org/dc/elements/1.1/"
   xmlns:cc="http://creativecommons.org/ns#"
   xmlns:rdf="http://www.w3.org/1999/02/22-rdf-syntax-ns#"
   xmlns:svg="http://www.w3.org/2000/svg"
   xmlns="http://www.w3.org/2000/svg"
   viewBox="0 0 2666.6667 2666.6667"
   height="2666.6667"
   width="2666.6667"
   xml:space="preserve"
   id="svg2"
   version="1.1"><metadata
     id="metadata8"><rdf:RDF><cc:Work
         rdf:about=""><dc:format>image/svg+xml</dc:format><dc:type
           rdf:resource="http://purl.org/dc/dcmitype/StillImage" /></cc:Work></rdf:RDF></metadata><defs
     id="defs6" /><g
     transform="matrix(1.3333333,0,0,-1.3333333,0,2666.6667)"
     id="g10"><g
       transform="scale(0.1)"
       id="g12"><g
         transform="scale(1.22699)"
         id="g14"><path
           id="path16"
           style="fill:none;fill-opacity:1;fill-rule:nonzero;stroke:none"
           d="M 16300,0 H 0 V 16300 H 16300 V 0" /></g><path
         id="path18"
         style="fill:#1d1b1a;fill-opacity:1;fill-rule:nonzero;stroke:none"
         d="m 7145.28,9846.8 -80.68,151.6 c -22.91,72.5 -56.44,135.4 -97.89,183.9 l -42.24,79.4 -103,18.1 c -15.05,4.1 -30.46,6.9 -46.27,8.1 -199.78,14.3 -379.68,-224.4 -401.83,-533.2 -22.15,-308.7 121.83,-570.7 321.6,-585 l 131.78,-24.3 c 0,0 19.83,33 49.08,82.2 93.35,69.4 168.03,195.5 202.5,349.5 21.6,39.6 35.78,67.8 36.72,75.3 4.32,34.6 30.23,194.4 30.23,194.4" /><path
         id="path20"
         style="fill:#343434;fill-opacity:1;fill-rule:nonzero;stroke:none"
         d="m 7228.57,9678.5 c -22.14,-308.7 -202.05,-547.4 -401.82,-533.1 -199.77,14.3 -343.76,276.3 -321.6,585 22.15,308.8 202.05,547.5 401.82,533.2 199.77,-14.3 343.76,-276.3 321.6,-585.1" /><path
         id="path22"
         style="fill:#d5d7d3;fill-opacity:1;fill-rule:nonzero;stroke:none"
         d="m 6999.34,9700.2 c -2.94,-52.4 -39.59,-92.9 -81.86,-90.6 -42.28,2.4 -74.16,46.8 -71.23,99.2 2.94,52.4 39.6,92.9 81.87,90.6 42.28,-2.4 74.16,-46.8 71.22,-99.2" /><path
         id="path24"
         style="fill:#1d1b1a;fill-opacity:1;fill-rule:nonzero;stroke:none"
         d="m 8173.49,9780.8 -84.57,158.9 c -24.02,76 -59.16,141.9 -102.62,192.8 l -44.27,83.2 -107.96,18.9 c -15.79,4.3 -31.94,7.3 -48.51,8.5 -209.41,15 -397.99,-235.2 -421.21,-558.8 -23.22,-323.7 127.71,-598.3 337.11,-613.3 l 138.14,-25.4 c 0,0 20.79,34.5 51.44,86.1 97.86,72.8 176.14,204.9 212.27,366.3 22.64,41.6 37.51,71.2 38.49,79 4.53,36.3 31.69,203.8 31.69,203.8" /><path
         id="path26"
         style="fill:#343434;fill-opacity:1;fill-rule:nonzero;stroke:none"
         d="m 8260.8,9604.4 c -23.22,-323.6 -211.8,-573.9 -421.2,-558.8 -209.4,15 -360.34,289.6 -337.11,613.2 23.22,323.7 211.8,573.9 421.2,558.9 209.4,-15.1 360.33,-289.6 337.11,-613.3" /><path
         id="path28"
         style="fill:#9d9d9c;fill-opacity:1;fill-rule:nonzero;stroke:none"
         d="m 7931.24,9742.5 c -3.51,0.8 -7.08,1.4 -10.76,1.6 -44.31,2.5 -82.73,-40 -85.81,-94.9 -3.08,-55 30.34,-101.5 74.65,-104 l 1041.51,-156.2 11.16,198.8 -1030.75,154.7" /><path
         id="path30"
         style="fill:#fbc398;fill-opacity:1;fill-rule:nonzero;stroke:none"
         d="m 8314.64,10096.1 c 0,0 -219.58,-160.8 -255.8,-178.9 -36.22,-18.1 -88.29,-74.7 -86.02,-88.3 2.26,-13.5 -2.41,-260.3 -0.08,-285.2 2.34,-24.9 40.82,-33.7 40.82,-33.7 0,0 11.32,-90.8 45.28,-106.6 33.95,-15.9 84.51,0 84.51,0 0,0 47.12,-9.6 110.33,-7.1 63.22,2.5 332.6,250.9 312.23,349.7 -20.37,98.8 12.4,114.2 -26.62,210.6 -39.03,96.5 26.62,144.1 -70.72,165.6 -97.34,21.4 -153.93,-26.1 -153.93,-26.1" /><path
         id="path32"
         style="fill:#c1bfbd;fill-opacity:1;fill-rule:nonzero;stroke:none"
         d="m 6567.74,10127.7 389.13,-1731.4 269.07,-216.9 -445.7,2297 -212.5,-348.7" /><path
         id="path34"
         style="fill:#9c9c9b;fill-opacity:1;fill-rule:nonzero;stroke:none"
         d="m 6926.85,7801.8 c 0,0 -147.01,-93.9 -38.35,-306.7 l 256.78,-31.7 32.98,298.8 -251.41,39.6" /><path
         id="path36"
         style="fill:#fbc398;fill-opacity:1;fill-rule:nonzero;stroke:none"
         d="m 8559.76,9787.9 c -121.23,-51.7 -237.83,-94.1 -237.83,-94.1 0,0 -73.41,61.2 -99.76,59.3 -26.35,-1.9 -67.77,-31.1 -67.77,-31.1 0,0 -24.47,32 -28.23,31.1 -3.77,-1 -32,-8.9 -32,-8.9 0,0 -64.94,-89 -64.94,-91.8 0,-2.8 -15.67,-142.4 -15.67,-142.4 0,0 11.32,-90.8 45.28,-106.6 33.95,-15.9 84.51,0 84.51,0 0,0 47.11,-9.6 110.33,-7.1 63.22,2.5 332.6,250.9 312.23,349.7 -3.3,16 -5.11,29.6 -6.15,41.9" /><path
         id="path38"
         style="fill:#df9866;fill-opacity:1;fill-rule:nonzero;stroke:none"
         d="m 7995.34,9516.9 c 0,0 8.61,131 27.28,166.6 18.67,35.7 79.8,88.3 106.96,91.7 27.16,3.4 37.84,-32.1 37.84,-32.1 0,0 31.91,32.1 60.63,32.3 28.72,0.2 69.23,-37.6 69.23,-37.6 v -74.7 c 0,0 -65.83,81.5 -72.63,81.5 -6.79,0 -34.47,0.3 -51.16,-33.9 -16.68,-34.3 -30.14,-307.3 -30.14,-307.3 0,0 -13.77,252.9 -10.38,295.4 3.4,42.4 -13.58,42.4 -13.58,42.4 0,0 -62.82,-64.5 -71.3,-78.1 -8.5,-13.5 -34.53,-153.1 -34.53,-153.1 l -18.22,6.9" /><path
         id="path40"
         style="fill:#9c9c9b;fill-opacity:1;fill-rule:nonzero;stroke:none"
         d="m 8504.79,7227.9 264.85,-48.6 c 0,0 101.87,3.4 118.85,122.2 16.97,118.9 -37.35,193.6 -37.35,193.6 l -346.35,54.3 c 0,0 -166.38,-6.8 -166.38,-17 0,-10.2 166.38,-304.5 166.38,-304.5" /><path
         id="path42"
         style="fill:#9c9c9b;fill-opacity:1;fill-rule:nonzero;stroke:none"
         d="m 2443.71,6928 c 0,0 -146,-64.5 -149.4,-74.7 -3.4,-10.2 -71.31,-278.4 -61.12,-309 10.18,-30.6 261.45,-50.9 315.78,-6.8 54.34,44.2 70.18,240 72.44,255.8 2.27,15.9 -63.38,124.5 -63.38,124.5 l -114.32,10.2" /><path
         id="path44"
         style="fill:#9c9c9b;fill-opacity:1;fill-rule:nonzero;stroke:none"
         d="m 4086.03,6503.6 c 0,0 -56.59,-52.1 -67.91,-72.5 -11.32,-20.3 0,-305.6 0,-305.6 0,0 169.78,-49.8 364.46,0 0,0 6.79,254.1 0,286.4 -6.79,32.2 -33.96,56.1 -33.96,56.1 l -262.59,35.6" /><path
         id="path46"
         style="fill:#c1bfbd;fill-opacity:1;fill-rule:nonzero;stroke:none"
         d="m 3837.02,7861.8 2811.53,457.3 -801.35,523.7 176.56,202.8 c 0,0 708.25,-454.9 1121.52,-799 413.28,-344.1 707.56,-593.1 707.56,-593.1 l -294.28,-40.7 -800.36,588.5 -3052.47,-520.6 131.29,181.1" /><path
         id="path48"
         style="fill:#343434;fill-opacity:1;fill-rule:nonzero;stroke:none"
         d="m 6530.09,9894.7 1767.19,2259.1 -386.71,140.3 -1483.87,-1729.4 103.39,-670" /><path
         id="path50"
         style="fill:#fbc398;fill-opacity:1;fill-rule:nonzero;stroke:none"
         d="m 5241.66,9433.9 v -441.4 c 0,0 -280.88,-342.9 -352.19,-580.6 -71.31,-237.7 -69.98,-489.2 -90.35,-920.5 -20.38,-431.2 -104.15,-627.9 -104.15,-627.9 l 407.47,-142.6 c 0,0 444.82,1056 560.27,1334.4 115.44,278.5 152.79,489 152.79,489 0,0 139.22,98.5 200.34,271.6 61.12,173.2 146.01,377 146.01,377 0,0 -536.5,285.2 -546.68,292 -10.19,6.8 -373.51,-51 -373.51,-51" /><path
         id="path52"
         style="fill:#fbc398;fill-opacity:1;fill-rule:nonzero;stroke:none"
         d="m 3891.35,10274.9 c 0,0 -140.35,-229.3 -203.73,-341 -63.39,-111.7 -315.08,-375.4 -428.26,-466 -113.19,-90.5 -552.93,-245.2 -779.3,-376.5 -226.37,-131.3 -454.47,-527.5 -594.82,-772 -140.35,-244.5 -393.42,-665.9 -393.42,-665.9 L 1781.58,7409 c 0,0 507.01,535.3 819.4,797.9 312.39,262.6 597.68,500.5 597.68,500.5 0,0 847.03,459.8 1073.4,613.7 226.37,153.9 633.43,573.6 633.43,573.6 0,0 -355.27,294.2 -447.01,344 -91.75,49.8 -567.13,36.2 -567.13,36.2" /><path
         id="path54"
         style="fill:#c1bfbd;fill-opacity:1;fill-rule:nonzero;stroke:none"
         d="m 5241.66,9433.9 c 0,0 -777.59,-71.3 -886.25,-30.5 -108.66,40.7 -848.89,-10.2 -848.89,-10.2 0,0 -16.97,-149.4 44.14,-193.6 61.13,-44.1 1015.28,-183.3 1015.28,-183.3 0,0 -329.37,-234.3 -614.6,-546.7 -285.23,-312.4 -505.94,-702.9 -505.94,-702.9 0,0 -315.79,37.4 -505.94,-23.8 -190.15,-61.1 -465.19,-533.1 -601.01,-899.8 0,0 122.24,-95.1 251.27,-47.5 0,0 183.36,590.8 475.38,679.1 292.02,88.3 774.19,-74.7 903.22,-237.7 129.03,-163 88.28,-769 88.28,-769 0,0 224.11,-42.4 292.02,0 0,0 33.96,538.1 -61.12,789.4 -95.07,251.3 -495.75,448.2 -495.75,448.2 0,0 454.62,719.8 855.49,1011.9 232.04,169 451,246.9 594.42,282.7 v 433.7" /><path
         id="path56"
         style="fill:#414042;fill-opacity:1;fill-rule:nonzero;stroke:none"
         d="m 6608.26,10408.7 1566.03,1993.5 -84.14,252 c 0,0 -173.92,82.1 -436.52,-39.4 -262.59,-121.5 -706.27,-705.5 -733.43,-832.3 -27.17,-126.7 -561.41,-633.8 -529.72,-783.2 31.7,-149.4 217.78,-590.6 217.78,-590.6" /><path
         id="path58"
         style="fill:#343434;fill-opacity:1;fill-rule:nonzero;stroke:none"
         d="m 3506.52,9627.5 v -234.3 c 0,0 1048.85,-156.2 1140.72,-156.2 91.87,0 903.41,84.9 903.41,84.9 l -244.48,482.2 -368.98,4.5 c 0,0 -1308.43,-96.2 -1430.67,-181.1" /><path
         id="path60"
         style="fill:#48484a;fill-opacity:1;fill-rule:nonzero;stroke:none"
         d="m 5410.43,9598.4 -104.26,205.7 -368.98,4.5 c 0,0 -1308.43,-96.2 -1430.67,-181.1 l 1140.72,-129.1 763.19,100" /><path
         id="path62"
         style="fill:#252323;fill-opacity:1;fill-rule:nonzero;stroke:none"
         d="m 5550.65,11848.2 c 0,0 -282.96,-106.4 -330.5,-126.8 -47.54,-20.4 -498.02,-430.1 -556.87,-495.7 -58.86,-65.7 -219.58,-357.7 -364.46,-498.1 -144.87,-140.3 -407.47,-452.7 -407.47,-452.7 0,0 249.01,-172 434.64,-316.9 185.62,-144.9 239.95,-185.6 239.95,-185.6 l 371.25,36.2 258.06,253.5 c 0,0 -27.16,-335 -36.22,-407.5 -9.05,-72.4 -18.11,-303.3 -18.11,-303.3 0,0 235.42,-36.2 525.18,-113.2 289.75,-76.9 565.93,-208.2 565.93,-208.2 0,0 212.78,452.7 276.17,751.5 63.38,298.8 122.24,846.6 153.93,950.8 31.69,104.1 117.71,301 117.71,301 0,0 13.59,744.8 -117.71,815 -131.3,70.2 -1111.48,0 -1111.48,0" /><path
         id="path64"
         style="fill:#fbc398;fill-opacity:1;fill-rule:nonzero;stroke:none"
         d="m 6558,13434.3 98.86,186.4 c 0,0 -289.01,-58.9 -379.56,-117.8 -90.55,-58.8 -208.26,-269.1 -208.26,-269.1 0,0 -40.75,-67 -63.39,-141.2 -22.63,-74.1 -18.11,-225.7 -18.11,-225.7 0,0 271.65,-18.3 307.87,25.9 36.22,44.2 262.59,541.5 262.59,541.5" /><path
         id="path66"
         style="fill:#3a70c0;fill-opacity:1;fill-rule:nonzero;stroke:none"
         d="m 7250.69,13733.8 c 0,0 -470.85,-69 -542.15,-92.8 -71.31,-23.7 -203.74,-95 -203.74,-95 0,0 -217.31,-312.4 -319.18,-421.1 -101.87,-108.6 -184.49,-237.6 -198.08,-258 -13.58,-20.4 -115.45,-315.8 -122.23,-441.5 -6.79,-125.6 -121.11,-363.3 -165.26,-410.8 -44.14,-47.6 -149.4,-166.4 -149.4,-166.4 0,0 186.76,-37.4 302.21,-47.6 115.45,-10.2 433.5,-81.5 547.81,-190.1 114.32,-108.7 379.17,-577.3 379.17,-577.3 0,0 257.83,312.4 305.49,400.7 47.65,88.3 369.1,543.3 396.26,561.4 27.16,18.1 149.41,77 258.06,167.5 108.67,90.6 262.6,393.4 262.6,393.4 0,0 398.41,439.7 384.83,457.8 -13.59,18.1 -106.4,447.1 -106.4,447.1 0,0 -246.15,296.2 -268.9,308.1 -22.74,12 -761.09,-35.4 -761.09,-35.4" /><path
         id="path68"
         style="fill:#fbc398;fill-opacity:1;fill-rule:nonzero;stroke:none"
         d="m 7391.04,13847.8 c 0,0 -88.28,-75.5 -140.35,-114 -52.06,-38.4 -106.39,-38.4 -106.39,-38.4 0,0 -75.9,-88.3 -55.49,-91.7 20.4,-3.4 186.79,54.3 339.58,57.7 152.81,3.4 309,-57.9 309,-57.9 0,0 247.88,-6.6 380.31,-57.5 132.42,-51 162.98,-84.9 162.98,-84.9 0,0 54.33,81.5 84.89,112 30.56,30.6 48.67,135.8 48.67,135.8 0,0 11.32,132.5 0,159.6 -11.32,27.2 -35.09,132.5 -242.22,197 -207.13,64.5 -183.36,125.6 -376.9,54.3 -193.55,-71.3 -404.08,-272 -404.08,-272" /><path
         id="path70"
         style="fill:#252323;fill-opacity:1;fill-rule:nonzero;stroke:none"
         d="m 8406.32,14187.7 c -81.5,112.1 -247.88,193.6 -373.51,193.6 0,0 -71.31,40.7 -190.16,16.9 -118.84,-23.7 -207.89,-39.7 -298.81,-162.3 -105.26,-142 -152.8,-388.1 -152.8,-388.1 108.66,-78.5 468.59,-118.5 526.32,-101.5 57.72,17 101.86,54.3 146,101.5 44.09,47.1 128.27,70.7 128.52,70.7 36.57,-21.6 60.38,-84.4 54.85,-131.5 -6.79,-57.7 -63.39,-166.3 -63.39,-166.3 0,0 33.96,38.4 81.5,40.7 47.53,2.3 95.07,92.8 108.65,95.1 13.59,2.3 40.75,-47.6 40.75,-47.6 0,0 54.76,11.6 83.76,47.6 42.44,52.6 -10.19,319.2 -91.68,431.2" /><path
         id="path72"
         style="fill:#f8d4bb;fill-opacity:1;fill-rule:nonzero;stroke:none"
         d="m 8218.21,13893.3 c 0,0 -102.78,-61.8 -125.42,-86.9 -22.63,-25 -65.64,-185.7 -65.64,-185.7 0,0 -22.64,-6.8 -31.7,20.3 -9.05,27.2 5.53,162.5 67.91,206.8 62.4,44.3 128.52,70.7 128.52,70.7 l 26.33,-25.2" /><path
         id="path74"
         style="fill:#fbc398;fill-opacity:1;fill-rule:nonzero;stroke:none"
         d="m 7737.39,13603.5 c 0,0 -215.05,-46.2 -278.43,-385.8 -63.39,-339.5 285.22,-770.6 543.28,-661.5 0,0 -36.22,-298.3 0,-538.3 36.23,-239.9 144.88,-475.3 144.88,-475.3 0,0 -15.85,-343 35.09,-550.1 50.94,-207.1 112.05,-539.9 118.84,-668.9 6.8,-129.1 0,-292 0,-292 h 298.81 c 0,0 20.38,380.3 54.33,655.3 33.96,275 -13.58,882.8 -13.58,882.8 0,0 7.48,410.9 25.81,502.6 18.33,91.7 52.29,292 18.33,482.1 -33.95,190.2 -84.89,308.7 -84.89,308.7 0,0 5.54,248.2 -180.59,479.1 -186.12,230.9 -529.08,264.6 -681.88,261.3" /><path
         id="path76"
         style="fill:#fbd4bc;fill-opacity:1;fill-rule:nonzero;stroke:none"
         d="m 8556.86,12921.2 -95.08,40.7 c 0,0 158.46,-261.4 178.83,-424.4 20.37,-163 15.22,-564.8 15.21,-564.9 3.03,43.5 6.55,79.4 10.6,99.7 18.33,91.7 52.29,292 18.33,482.1 -33.95,190.2 -84.89,308.7 -84.89,308.7 0,0 5.54,248.2 -180.59,479.1 -35.7,44.3 -77.2,81.3 -121.99,112.2 155.22,-194.7 259.58,-533.2 259.58,-533.2" /><path
         id="path78"
         style="fill:#df9866;fill-opacity:1;fill-rule:nonzero;stroke:none"
         d="m 7818.89,12961.9 c 0,0 37.35,-81.5 47.54,-183.3 6.54,-65.5 1.87,-164.7 -0.51,-234.4 46.41,-9.4 92.66,-6.4 136.33,12 0,0 -22.64,165.8 -54.33,249.5 -31.69,83.8 -129.03,156.2 -129.03,156.2" /><path
         id="path80"
         style="fill:#ecab7b;fill-opacity:1;fill-rule:nonzero;stroke:none"
         d="m 8418.39,11480.2 c -37.22,0 -79.98,19.5 -121.11,82.7 0,0 69.16,-41.7 154.7,-41.7 23.52,0 48.28,3.1 73.18,11.2 0,0 -46,-52.2 -106.77,-52.2" /><path
         id="path82"
         style="fill:#100f0d;fill-opacity:1;fill-rule:nonzero;stroke:none"
         d="m 5222.41,10935.9 c 0,0 54.33,-199.2 95.08,-335 40.75,-135.8 40.75,-135.8 40.75,-135.8 l -162.99,-403 -258.06,-253.5 -371.25,-36.2 c 0,0 398.41,357.6 543.29,581.7 144.88,224.1 72.44,500.3 113.18,581.8" /><path
         id="path84"
         style="fill:#414042;fill-opacity:1;fill-rule:nonzero;stroke:none"
         d="m 5195.25,10062.1 -258.06,-253.5 236.42,-2.9 z" /><path
         id="path86"
         style="fill:#fbc398;fill-opacity:1;fill-rule:nonzero;stroke:none"
         d="m 4694.97,6863.5 c 0,0 -78.1,-115.5 -149.4,-237.7 -71.31,-122.2 -84.9,-312.4 61.11,-417.7 146.02,-105.2 281.84,-146 319.19,-203.7 37.35,-57.7 140.35,-311.2 233.16,-372.4 92.81,-61.1 179.4,-21.5 201.47,-30 22.07,-8.4 45.84,-9.7 66.21,-4.9 20.37,4.9 44.14,15.1 62.82,21.9 18.68,6.8 33.96,28.9 33.96,28.9 0,0 33.95,-11.9 62.81,8.5 28.87,20.3 32.26,54.3 32.26,54.3 0,0 73.01,-17 69.61,56 -3.39,73 -35.65,54.4 -69.61,100.2 -33.96,45.8 -249,247.3 -314.65,344.6 -65.65,97.4 -181.1,314.7 -194.68,378.1 -13.59,63.4 -6.79,131.3 -6.79,131.3 0,0 -33.96,108.6 -126.77,167.5 -92.81,58.8 -280.7,-24.9 -280.7,-24.9" /><path
         id="path88"
         style="fill:#fbd4bc;fill-opacity:1;fill-rule:nonzero;stroke:none"
         d="m 5666.22,5825.8 c -29.24,14.8 -83.93,10 -133.68,66.6 -49.8,56.6 -246.74,178.8 -405.21,264.8 -158.45,86 -355.4,273.9 -432.36,301.1 -34.8,12.3 -118.68,11.1 -200.13,6.2 -7.62,-93.8 21.62,-191.3 111.84,-256.4 146.01,-105.2 281.84,-146 319.19,-203.7 37.35,-57.7 140.35,-311.2 233.16,-372.4 92.81,-61.1 179.4,-21.5 201.47,-30 22.07,-8.4 45.84,-9.7 66.21,-4.9 20.37,4.9 44.14,15.1 62.82,21.9 18.68,6.8 33.96,28.9 33.96,28.9 0,0 33.95,-11.9 62.81,8.5 28.87,20.3 32.26,54.3 32.26,54.3 0,0 73.01,-17 69.61,56 -1.63,35.1 -9.99,49 -21.95,59.1" /><path
         id="path90"
         style="fill:#fbc398;fill-opacity:1;fill-rule:nonzero;stroke:none"
         d="m 1806.87,7436.1 c 0,0 -25.29,-217.2 -11.71,-319.1 13.58,-101.8 126.77,-355.4 178.83,-402.9 52.07,-47.5 192.42,-104.1 196.95,-158.5 4.52,-54.3 -49.81,-74.7 -95.08,-76.9 -45.27,-2.3 -138.09,29.4 -158.46,27.1 -20.37,-2.2 -126.77,-6.8 -199.21,45.3 -72.43,52.1 -199.2,240 -328.23,330.5 -129.04,90.5 -303.34,163 -323.71,319.2 -20.38,156.2 151.67,273.9 249,344.1 97.34,70.1 176.57,108.6 176.57,108.6 0,0 126.77,29.5 138.09,18.1 11.32,-11.3 176.96,-235.5 176.96,-235.5" /><path
         id="path92"
         style="fill:#df9866;fill-opacity:1;fill-rule:nonzero;stroke:none"
         d="m 5000.57,8411.9 c 0,0 15.85,-169.8 194.68,-210.6 0,0 -310.13,-122.2 -194.68,210.6" /><path
         id="path94"
         style="fill:#df9866;fill-opacity:1;fill-rule:nonzero;stroke:none"
         d="m 2250.17,8459.4 c 0,0 -28.82,-182.3 88.28,-280 0,0 -251.27,76.3 -88.28,280" /><path
         id="path96"
         style="fill:#1d1b1a;fill-opacity:1;fill-rule:nonzero;stroke:none"
         d="m 9059.39,9659.2 -84.56,158.9 c -24.02,76 -59.17,141.9 -102.62,192.8 l -44.27,83.2 -107.97,18.9 c -15.79,4.3 -31.94,7.3 -48.51,8.5 -209.4,15 -397.98,-235.2 -421.21,-558.8 -23.21,-323.7 127.71,-598.3 337.12,-613.3 L 8725.5,8924 c 0,0 20.79,34.5 51.45,86.1 97.85,72.8 176.14,204.9 212.26,366.3 22.65,41.5 37.51,71.2 38.5,79 4.52,36.3 31.68,203.8 31.68,203.8" /><path
         id="path98"
         style="fill:#343434;fill-opacity:1;fill-rule:nonzero;stroke:none"
         d="m 9146.71,9482.8 c -23.22,-323.6 -211.8,-573.9 -421.21,-558.8 -209.4,15 -360.33,289.6 -337.11,613.2 23.22,323.7 211.8,573.9 421.2,558.9 209.41,-15.1 360.34,-289.6 337.12,-613.3" /><path
         id="path100"
         style="fill:#d5d7d3;fill-opacity:1;fill-rule:nonzero;stroke:none"
         d="m 8928.22,9505.5 c -3.09,-54.9 -41.51,-97.4 -85.82,-94.9 -44.31,2.5 -77.74,49 -74.66,103.9 3.09,54.9 41.51,97.5 85.82,95 44.32,-2.5 77.74,-49.1 74.66,-104" /><path
         id="path102"
         style="fill:#c1bfbd;fill-opacity:1;fill-rule:nonzero;stroke:none"
         d="m 7178.26,7762.2 1326.53,-212.8 c 0,0 -63.38,-221.9 0,-321.5 l -1359.51,235.5 c 0,0 -80.21,172 32.98,298.8" /><path
         id="path104"
         style="fill:#fbd4bc;fill-opacity:1;fill-rule:nonzero;stroke:none"
         d="m 8387.42,13317.9 c 23.1,-29.5 63.01,-63.1 115.76,-102.2 -22.4,41.7 -49.93,84.4 -83.91,126.5 -186.13,230.9 -529.08,264.6 -681.88,261.3 0,0 452.92,-34.7 650.03,-285.6" /><g
         transform="scale(1.09129)"
         id="g106"><path
           id="path108"
           style="fill:#1d1b1a;fill-opacity:1;fill-rule:nonzero;stroke:none"
           d="m 16300,10316.7 -57.9,150.5 c -14.3,71 -38.4,133.4 -70.3,182.6 l -30.3,78.9 -87,24.1 c -12.6,5 -25.6,8.7 -39.1,10.9 -170.2,27 -342.2,-189.7 -384.1,-483.9 -41.9,-294.22 62.1,-554.63 232.3,-581.64 l 111.2,-32.01 c 0,0 19.5,30.28 48.2,75.42 85.2,60.29 158.6,176.06 199.6,321.23 21.4,36.5 35.7,62.6 37.1,69.7 6.2,32.8 40.3,184.2 40.3,184.2" /></g><g
         transform="scale(1.09804)"
         id="g110"><path
           id="path112"
           style="fill:#343434;fill-opacity:1;fill-rule:nonzero;stroke:none"
           d="m 16258.4,10087.6 c -41.6,-292.39 -212.6,-507.69 -381.8,-480.85 -169.1,26.83 -272.5,285.64 -230.9,578.05 41.7,292.4 212.6,507.7 381.8,480.9 169.1,-26.8 272.5,-285.6 230.9,-578.1" /></g><g
         transform="scale(1.15147)"
         id="g114"><path
           id="path116"
           style="fill:#9d9d9c;fill-opacity:1;fill-rule:nonzero;stroke:none"
           d="m 15275.9,9749.8 c -2.2,0.63 -4.5,1.13 -6.8,1.42 -34.3,4.22 -66.4,-30.86 -71.6,-78.32 -5.2,-47.47 18.3,-89.37 52.5,-93.58 l 1031,-213.17 19,171.9 -1024.1,211.75" /></g><path
         id="path118"
         style="fill:#fbc398;fill-opacity:1;fill-rule:nonzero;stroke:none"
         d="m 15566.1,13582.6 c 0,0 -206.9,-11.7 -392.5,-61.5 0,0 -316.9,-4.6 -489,-86.1 -172,-81.5 -556.8,-468.3 -593,-537.5 -36.3,-69.1 31.6,-367.9 86,-530.9 54.3,-163 289.7,-593.1 289.7,-593.1 l 216.4,48.8 73.4,91.5 c 0,0 -49.8,208.3 -63.4,425.6 -13.6,217.3 -9.1,364.5 -9.1,364.5 0,0 271.7,15.8 489,115.4 217.3,99.6 552.3,384.8 552.3,384.8 l -159.8,378.5" /><path
         id="path120"
         style="fill:#df9866;fill-opacity:1;fill-rule:nonzero;stroke:none"
         d="m 14671.1,12995.9 c 0,0 13.7,-158.5 13.5,-292 l 87,8.9 -100.5,283.1" /><path
         id="path122"
         style="fill:#edaa7d;fill-opacity:1;fill-rule:nonzero;stroke:none"
         d="m 14771.6,12712.8 v 0 l -30.5,85.7 c 7.9,-0.6 17.6,-1.1 28.4,-1.1 44.7,0 108,8.5 134.2,52.5 42.4,71.3 180.9,359 180.9,359 l -42.3,-359 -90,-104.3 -180.7,-32.8" /><path
         id="path124"
         style="fill:#df9866;fill-opacity:1;fill-rule:nonzero;stroke:none"
         d="m 14771.6,12712.8 -50.3,87.9 c 0,0 7.6,-1.2 19.8,-2.2 l 30.5,-85.7" /><path
         id="path126"
         style="fill:#c1bfbd;fill-opacity:1;fill-rule:nonzero;stroke:none"
         d="m 15554.6,10127.7 389.1,-1731.4 269.1,-216.9 -445.7,2297 -212.5,-348.7" /><path
         id="path128"
         style="fill:#9c9c9b;fill-opacity:1;fill-rule:nonzero;stroke:none"
         d="m 15913.7,7801.8 c 0,0 -147,-93.9 -38.3,-306.7 l 256.7,-31.7 33,298.8 -251.4,39.6" /><g
         transform="scale(1.09769)"
         id="g130"><path
           id="path132"
           style="fill:#9c9c9b;fill-opacity:1;fill-rule:nonzero;stroke:none"
           d="m 15935.1,6584.67 241.2,-44.28 c 0,0 92.8,3.09 108.3,111.32 15.4,108.32 -34.1,176.38 -34.1,176.38 l -315.4,49.46 c 0,0 -151.6,-6.19 -151.6,-15.48 0,-9.3 151.6,-277.4 151.6,-277.4" /></g><path
         id="path134"
         style="fill:#9c9c9b;fill-opacity:1;fill-rule:nonzero;stroke:none"
         d="m 11430.6,6928 c 0,0 -146,-64.5 -149.4,-74.7 -3.4,-10.2 -71.3,-278.4 -61.2,-309 10.2,-30.6 261.5,-50.9 315.8,-6.8 54.4,44.2 70.2,240 72.5,255.8 2.2,15.9 -63.4,124.5 -63.4,124.5 l -114.3,10.2" /><path
         id="path136"
         style="fill:#9c9c9b;fill-opacity:1;fill-rule:nonzero;stroke:none"
         d="m 13072.9,6503.6 c 0,0 -56.6,-52.1 -67.9,-72.5 -11.3,-20.3 0,-305.6 0,-305.6 0,0 169.8,-49.8 364.4,0 0,0 6.8,254.1 0,286.4 -6.8,32.2 -33.9,56.1 -33.9,56.1 l -262.6,35.6" /><g
         transform="scale(1.03311)"
         id="g138"><path
           id="path140"
           style="fill:#c1bfbd;fill-opacity:1;fill-rule:nonzero;stroke:none"
           d="m 12412.9,7609.84 2721.4,442.64 -775.6,506.92 170.8,196.3 c 0,0 685.6,-440.33 1085.6,-773.4 400,-333.07 684.9,-574.09 684.9,-574.09 l -284.9,-39.39 -774.6,569.64 -2954.7,-503.92 127.1,175.3" /></g><g
         transform="scale(1.06038)"
         id="g142"><path
           id="path144"
           style="fill:#343434;fill-opacity:1;fill-rule:nonzero;stroke:none"
           d="m 14633.4,9331.27 1666.6,2130.43 -116,234.3 -1648.1,-1732.92 97.5,-631.81" /></g><path
         id="path146"
         style="fill:#fbc398;fill-opacity:1;fill-rule:nonzero;stroke:none"
         d="m 14228.5,9433.9 v -441.4 c 0,0 -280.9,-342.9 -352.2,-580.6 -71.3,-237.7 -69.9,-489.2 -90.3,-920.5 -20.4,-431.2 -104.2,-627.9 -104.2,-627.9 l 407.5,-142.6 c 0,0 444.8,1056 560.3,1334.4 115.4,278.5 152.8,489 152.8,489 0,0 139.2,98.5 200.3,271.6 61.1,173.2 146,377 146,377 0,0 -536.5,285.2 -546.7,292 -10.2,6.8 -373.5,-51 -373.5,-51" /><path
         id="path148"
         style="fill:#fbc398;fill-opacity:1;fill-rule:nonzero;stroke:none"
         d="m 12878.2,10274.9 c 0,0 -140.3,-229.3 -203.7,-341 -63.4,-111.7 -315.1,-375.4 -428.3,-466 -113.2,-90.5 -552.9,-245.2 -779.3,-376.5 -226.3,-131.3 -454.4,-527.5 -594.8,-772 -140.3,-244.5 -393.4,-665.9 -393.4,-665.9 l 289.7,-244.5 c 0,0 507,535.3 819.4,797.9 312.4,262.6 597.7,500.5 597.7,500.5 0,0 847,459.8 1073.4,613.7 226.4,153.9 633.5,573.6 633.5,573.6 0,0 -355.3,294.2 -447.1,344 -91.7,49.8 -567.1,36.2 -567.1,36.2" /><path
         id="path150"
         style="fill:#c1bfbd;fill-opacity:1;fill-rule:nonzero;stroke:none"
         d="m 14228.5,9433.9 c 0,0 -777.6,-71.3 -886.2,-30.5 -108.7,40.7 -848.9,-10.2 -848.9,-10.2 0,0 -17,-149.4 44.1,-193.6 61.2,-44.1 1015.3,-183.3 1015.3,-183.3 0,0 -329.4,-234.3 -614.6,-546.7 -285.2,-312.4 -505.9,-702.9 -505.9,-702.9 0,0 -315.8,37.4 -506,-23.8 -190.1,-61.1 -465.2,-533.1 -601,-899.8 0,0 122.3,-95.1 251.3,-47.5 0,0 183.3,590.8 475.4,679.1 292,88.3 774.2,-74.7 903.2,-237.7 129,-163 88.3,-769 88.3,-769 0,0 224.1,-42.4 292,0 0,0 33.9,538.1 -61.1,789.4 -95.1,251.3 -495.8,448.2 -495.8,448.2 0,0 454.6,719.8 855.5,1011.9 232,169 451,246.9 594.4,282.7 v 433.7" /><g
         transform="scale(1.05283)"
         id="g152"><path
           id="path154"
           style="fill:#414042;fill-opacity:1;fill-rule:nonzero;stroke:none"
           d="m 14812.5,9886.39 1487.5,1893.41 -556.7,70.9 c 0,0 311.6,246.5 62.1,131.1 -249.4,-115.4 -670.8,-670.1 -696.6,-790.6 -25.8,-120.4 -533.2,-602 -503.1,-743.9 30,-141.9 206.8,-560.91 206.8,-560.91" /></g><path
         id="path156"
         style="fill:#343434;fill-opacity:1;fill-rule:nonzero;stroke:none"
         d="m 12493.4,9627.5 v -234.3 c 0,0 1048.8,-156.2 1140.7,-156.2 91.9,0 903.4,84.9 903.4,84.9 l -244.5,482.2 -368.9,4.5 c 0,0 -1308.5,-96.2 -1430.7,-181.1" /><path
         id="path158"
         style="fill:#48484a;fill-opacity:1;fill-rule:nonzero;stroke:none"
         d="m 14397.3,9598.4 -104.3,205.7 -368.9,4.5 c 0,0 -1308.5,-96.2 -1430.7,-181.1 l 1140.7,-129.1 763.2,100" /><path
         id="path160"
         style="fill:#252323;fill-opacity:1;fill-rule:nonzero;stroke:none"
         d="m 14537.5,11848.2 c 0,0 -282.9,-106.4 -330.5,-126.8 -47.5,-20.4 -498,-430.1 -556.9,-495.7 -58.8,-65.7 -219.5,-357.7 -364.4,-498.1 -144.9,-140.3 -407.5,-452.7 -407.5,-452.7 0,0 249,-172 434.7,-316.9 185.6,-144.9 239.9,-185.6 239.9,-185.6 l 371.3,36.2 258,253.5 c 0,0 -27.1,-335 -36.2,-407.5 -9.1,-72.4 -18.1,-303.3 -18.1,-303.3 0,0 235.4,-36.2 525.2,-113.2 289.7,-76.9 565.9,-208.2 565.9,-208.2 0,0 212.8,452.7 276.2,751.5 63.3,298.8 122.2,846.6 153.9,950.8 31.7,104.1 117.7,301 117.7,301 0,0 13.6,744.8 -117.7,815 -131.3,70.2 -1111.5,0 -1111.5,0" /><path
         id="path162"
         style="fill:#100f0d;fill-opacity:1;fill-rule:nonzero;stroke:none"
         d="m 14209.3,10935.9 c 0,0 54.3,-199.2 95.1,-335 40.7,-135.8 40.7,-135.8 40.7,-135.8 l -163,-403 -258,-253.5 -371.3,-36.2 c 0,0 398.4,357.6 543.3,581.7 144.9,224.1 72.4,500.3 113.2,581.8" /><path
         id="path164"
         style="fill:#414042;fill-opacity:1;fill-rule:nonzero;stroke:none"
         d="m 14182.1,10062.1 -258,-253.5 236.4,-2.9 z" /><path
         id="path166"
         style="fill:#fbc398;fill-opacity:1;fill-rule:nonzero;stroke:none"
         d="m 13681.8,6863.5 c 0,0 -78.1,-115.5 -149.4,-237.7 -71.3,-122.2 -84.9,-312.4 61.1,-417.7 146.1,-105.2 281.9,-146 319.2,-203.7 37.4,-57.7 140.4,-311.2 233.2,-372.4 92.8,-61.1 179.4,-21.5 201.5,-30 22,-8.4 45.8,-9.7 66.2,-4.9 20.3,4.9 44.1,15.1 62.8,21.9 18.7,6.8 34,28.9 34,28.9 0,0 33.9,-11.9 62.8,8.5 28.8,20.3 32.2,54.3 32.2,54.3 0,0 73,-17 69.6,56 -3.4,73 -35.6,54.4 -69.6,100.2 -33.9,45.8 -249,247.3 -314.6,344.6 -65.7,97.4 -181.1,314.7 -194.7,378.1 -13.6,63.4 -6.8,131.3 -6.8,131.3 0,0 -34,108.6 -126.8,167.5 -92.8,58.8 -280.7,-24.9 -280.7,-24.9" /><path
         id="path168"
         style="fill:#fbd4bc;fill-opacity:1;fill-rule:nonzero;stroke:none"
         d="m 14653.1,5825.8 c -29.3,14.8 -83.9,10 -133.7,66.6 -49.8,56.6 -246.7,178.8 -405.2,264.8 -158.5,86 -355.4,273.9 -432.4,301.1 -34.8,12.3 -118.6,11.1 -200.1,6.2 -7.6,-93.8 21.6,-191.3 111.8,-256.4 146.1,-105.2 281.9,-146 319.2,-203.7 37.4,-57.7 140.4,-311.2 233.2,-372.4 92.8,-61.1 179.4,-21.5 201.5,-30 22,-8.4 45.8,-9.7 66.2,-4.9 20.4,4.9 44.1,15.1 62.8,21.9 18.7,6.8 34,28.9 34,28.9 0,0 33.9,-11.9 62.8,8.5 28.8,20.3 32.2,54.3 32.2,54.3 0,0 73,-17 69.6,56 -1.6,35.1 -10,49 -21.9,59.1" /><path
         id="path170"
         style="fill:#fbc398;fill-opacity:1;fill-rule:nonzero;stroke:none"
         d="m 10793.7,7436.1 c 0,0 -25.3,-217.2 -11.7,-319.1 13.6,-101.8 126.8,-355.4 178.9,-402.9 52,-47.5 192.4,-104.1 196.9,-158.5 4.5,-54.3 -49.8,-74.7 -95.1,-76.9 -45.2,-2.3 -138.1,29.4 -158.4,27.1 -20.4,-2.2 -126.8,-6.8 -199.2,45.3 -72.5,52.1 -199.3,240 -328.3,330.5 -129,90.5 -303.3,163 -323.7,319.2 -20.4,156.2 151.7,273.9 249,344.1 97.4,70.1 176.6,108.6 176.6,108.6 0,0 126.8,29.5 138.1,18.1 11.3,-11.3 176.9,-235.5 176.9,-235.5" /><path
         id="path172"
         style="fill:#df9866;fill-opacity:1;fill-rule:nonzero;stroke:none"
         d="m 13987.4,8411.9 c 0,0 15.9,-169.8 194.7,-210.6 0,0 -310.1,-122.2 -194.7,210.6" /><path
         id="path174"
         style="fill:#df9866;fill-opacity:1;fill-rule:nonzero;stroke:none"
         d="m 11237,8459.4 c 0,0 -28.8,-182.3 88.3,-280 0,0 -251.3,76.3 -88.3,280" /><g
         transform="scale(1.07311)"
         id="g176"><path
           id="path178"
           style="fill:#c1bfbd;fill-opacity:1;fill-rule:nonzero;stroke:none"
           d="m 15063.8,7233.36 1236.2,-198.3 c 0,0 -59.1,-206.78 0,-299.59 l -1267,219.45 c 0,0 -74.7,160.29 30.8,278.44" /></g><g
         transform="scale(1.06352)"
         id="g180"><path
           id="path182"
           style="fill:#3a70c0;fill-opacity:1;fill-rule:nonzero;stroke:none"
           d="m 15270.9,12913.6 c 0,0 -442.7,-65 -509.8,-87.3 -67,-22.4 -191.6,-89.4 -191.6,-89.4 0,0 -204.3,-293.7 -300.1,-395.9 -95.7,-102.2 -173.4,-223.5 -186.2,-242.6 -12.8,-19.2 -108.6,-297 -115,-415.1 -6.4,-118.1 -113.9,-341.7 -155.3,-386.3 -41.6,-44.7 -140.5,-156.5 -140.5,-156.5 0,0 175.6,-35.1 284.2,-44.7 108.5,-9.6 407.6,-76.6 515,-178.8 107.5,-102.1 356.6,-542.7 356.6,-542.7 0,0 242.4,293.7 287.2,376.7 44.8,83 347.1,510.8 372.6,527.9 25.6,17 140.5,72.3 242.7,157.5 102.1,85.1 246.9,369.9 246.9,369.9 0,0 322.4,447.4 309.7,464.5 -12.8,17 -47.9,386.3 -47.9,386.3 0,0 -231.5,278.5 -252.9,289.7 -21.3,11.3 -715.6,-33.2 -715.6,-33.2" /></g><g
         transform="scale(1.06845)"
         id="g184"><path
           id="path186"
           style="fill:#fbc398;fill-opacity:1;fill-rule:nonzero;stroke:none"
           d="m 15331.8,12960.6 c 0,0 -82.7,-70.6 -131.4,-106.7 -48.7,-36 -99.6,-36 -99.6,-36 0,0 -71,-82.6 -52,-85.8 19.1,-3.2 174.9,50.9 317.9,54 143,3.2 289.2,-54.1 289.2,-54.1 0,0 232,-6.2 355.9,-53.9 124,-47.7 152.6,-79.5 152.6,-79.5 0,0 50.8,76.3 79.4,104.9 28.7,28.6 45.6,127.1 45.6,127.1 0,0 10.6,124 0,149.4 -10.6,25.4 -32.8,123.9 -226.7,184.3 -193.9,60.4 -171.6,117.6 -352.8,50.9 -181.1,-66.8 -378.1,-254.6 -378.1,-254.6" /></g><g
         transform="scale(1.0755)"
         id="g188"><path
           id="path190"
           style="fill:#252323;fill-opacity:1;fill-rule:nonzero;stroke:none"
           d="m 16175.2,13191.7 c -75.8,104.2 -230.4,180 -347.3,180 0,0 -66.2,37.9 -176.7,15.7 -110.6,-22.1 -193.3,-36.9 -277.8,-150.9 -97.9,-132.1 -142.1,-360.9 -142.1,-360.9 101,-72.9 435.7,-110.1 489.3,-94.3 53.7,15.8 94.8,50.5 135.8,94.3 41,43.8 119.3,65.8 119.5,65.8 34,-20.1 56.1,-78.5 51,-122.2 -6.3,-53.7 -58.9,-154.7 -58.9,-154.7 0,0 31.5,35.7 75.8,37.8 44.1,2.1 88.3,86.3 100.9,88.4 12.7,2.2 38,-44.2 38,-44.2 0,0 50.8,10.8 77.8,44.2 39.5,49 -9.5,296.8 -85.3,401" /></g><g
         transform="scale(1.05573)"
         id="g192"><path
           id="path194"
           style="fill:#f8d4bb;fill-opacity:1;fill-rule:nonzero;stroke:none"
           d="m 16300,13159.9 c 0,0 -97.3,-58.5 -118.8,-82.3 -21.4,-23.7 -62.1,-176 -62.1,-176 0,0 -21.5,-6.4 -30,19.3 -8.7,25.8 5.2,153.9 64.3,195.9 59.1,41.9 121.7,67 121.7,67 l 24.9,-23.9" /></g><g
         transform="scale(1.13748)"
         id="g196"><path
           id="path198"
           style="fill:#fbc398;fill-opacity:1;fill-rule:nonzero;stroke:none"
           d="m 14824.2,11951.4 c 0,0 -76.5,-45.9 -172.1,-310 -95.4,-264 30.3,-520.7 179.2,-544.6 148.8,-23.9 316.4,241.8 316.4,241.8 0,0 179.1,-62.7 313.4,-98.5 134.4,-35.8 391.1,-71.7 391.1,-71.7 0,0 -26.8,-89.5 0,-280.6 26.9,-191 -32.8,-748.7 -32.8,-748.7 l 235.8,-54.3 c 0,0 68.6,334.4 119.4,480.6 50.8,146.3 80.6,304.5 95.5,477.7 15,173.1 15,173.1 15,173.1 0,0 14.9,176.1 -29.9,253.7 -44.8,77.6 -110.5,110.5 -110.5,110.5 0,0 -229.9,176.1 -382,229.8 0,0 -164.1,98.6 -334.4,110.5 -170.2,11.9 -259.8,11.9 -259.8,11.9 0,0 -157.3,58.4 -344.3,18.8" /></g><g
         transform="scale(1.05707)"
         id="g200"><path
           id="path202"
           style="fill:#df9866;fill-opacity:1;fill-rule:nonzero;stroke:none"
           d="m 16300,12201.1 c 0,0 -155.2,-3.2 -198.1,0 -42.8,3.2 -173.5,-73.9 -173.5,-73.9 0,0 114.6,19.3 185.8,17.2 71.2,-2.2 130.4,-17.2 130.4,-17.2 l 55.4,73.9" /></g><g
         transform="scale(1.11434)"
         id="g204"><path
           id="path206"
           style="fill:#fbd4bc;fill-opacity:1;fill-rule:nonzero;stroke:none"
           d="m 15326.2,12165.1 c 135.1,-21.2 285.4,-98.4 285.4,-98.4 l -48.8,79.2 c 0,0 245.8,-20.3 388,-79.2 103.8,-43 268,-95.7 349.2,-121 -68.8,43.6 -146.1,87.3 -210,109.8 0,0 -167.4,100.6 -341.3,112.8 -173.7,12.1 -265.1,12.1 -265.1,12.1 0,0 -160.7,59.6 -351.6,19.2 0,0 -13.1,-4.5 -34.1,-18.5 80.8,-2 168.9,-6.7 228.3,-16" /></g><g
         transform="scale(1.12039)"
         id="g208"><path
           id="path210"
           style="fill:#fbc398;fill-opacity:1;fill-rule:nonzero;stroke:none"
           d="m 16060.6,10293.7 c 0,0 -214.1,-137.2 -257.6,-164.3 -43.4,-27.2 -54.6,-179.99 -51.6,-196.02 3.1,-16.02 12.2,-111.49 38,-126.64 25.7,-15.15 60.6,-7.58 60.6,-7.58 0,0 19.7,-63.65 36.3,-84.86 16.7,-21.21 72.7,-16.67 72.7,-16.67 0,0 16.7,-25.75 48.6,-34.85 31.8,-9.09 80.2,24.25 80.2,24.25 0,0 26.8,-15.2 57.7,-9.09 30.8,6.1 60.6,4.54 63.6,10.61 3.1,6.06 83.3,291.24 83.3,333.55 0,42.3 7.6,216.5 7.6,216.5 0,0 -74.3,72.7 -92.4,77.3 -18.2,4.5 -147,-22.2 -147,-22.2" /></g><g
         transform="scale(1.11647)"
         id="g212"><path
           id="path214"
           style="fill:#df9866;fill-opacity:1;fill-rule:nonzero;stroke:none"
           d="m 15881.3,9831.74 c 0,0 11.3,29.21 14.8,83.95 3.4,54.74 5,80.6 6.5,85.11 1.5,4.6 53.2,79.1 95.8,80.6 42.6,1.6 41,-47.1 41,-47.1 0,0 25.9,38 62.4,33.5 36.4,-4.6 47.1,-32 47.1,-32 0,0 32,16.7 50.2,10.7 18.2,-6.1 24.3,-56.3 24.3,-56.3 0,0 32.8,26.8 49.9,13.4 17,-13.4 26.7,-60.9 26.7,-60.9 l -9.7,-69.58 c 0,0 -30.3,109.47 -41,109.47 -10.7,0 -22.8,-14.33 -22.8,-14.33 l 6.4,-236.57 c 0,0 -39.8,266.11 -44.4,273.71 -4.6,7.6 -36.6,-4.6 -42.6,-7.6 -6.1,-3.03 -16.7,-42.45 -19.8,-60.76 -3,-18.31 18.2,-215.99 18.2,-215.99 l -18.7,-11 c 0,0 -22.3,179.79 -23.8,219.32 -1.5,39.54 22.8,94.53 22.8,94.53 0,0 -20.8,21 -33.9,18 -13.3,-3 -29.3,-13.7 -36,-30.4 -6.7,-16.67 -18.3,-45.63 -27.4,-107.98 -9.2,-62.34 -12.2,-171.83 -12.2,-171.83 l -30.4,0.4 c 0,0 21.2,143.75 19.7,163.67 -1.5,19.93 12.2,114.24 12.2,114.24 0,0 -16.7,28.9 -24.3,31.9 -7.6,3 -66.9,-42.58 -66.9,-50.18 0,-7.6 -19.8,-158.15 -19.8,-158.15 l -24.3,-1.83" /></g><g
         transform="scale(1.10153)"
         id="g216"><path
           id="path218"
           style="fill:#ecab7b;fill-opacity:1;fill-rule:nonzero;stroke:none"
           d="m 16020.7,11954.2 c 39.3,87.5 113,108.5 174.8,108.5 57.4,0 104.5,-18 104.5,-18 -126.1,-8.3 -279.3,-90.5 -279.3,-90.5" /></g><g
         transform="scale(1.10915)"
         id="g220"><path
           id="path222"
           style="fill:#df9866;fill-opacity:1;fill-rule:nonzero;stroke:none"
           d="m 16257.1,11453.7 c 0,0 6.1,73.6 24.5,139.4 18.4,65.7 -24.5,111.6 -24.5,111.6 0,0 -1,-65.3 -19.4,-125.5 -18.3,-60.2 -32.1,-117.9 -32.1,-117.9 l 51.5,-7.6" /></g><g
         transform="scale(1.15706)"
         id="g224"><path
           id="path226"
           style="fill:#1d1b1a;fill-opacity:1;fill-rule:nonzero;stroke:none"
           d="m 16300,9549.75 -57.5,140.85 c -14.8,66.69 -38.6,125.09 -69.7,170.91 l -30.1,73.74 -82.4,21.14 c -12.1,4.44 -24.3,7.73 -37.1,9.5 -161,22.25 -319.1,-185.28 -353.1,-463.52 -33.9,-278.24 69.1,-521.84 230.1,-544.09 l 105.4,-28.09 c 0,0 17.8,28.93 44,72.03 79.3,58.45 146.3,169.01 182.1,306.7 19.6,34.8 32.6,59.69 33.7,66.45 5.3,31.05 34.6,174.38 34.6,174.38" /></g><g
         transform="scale(1.16363)"
         id="g228"><path
           id="path230"
           style="fill:#343434;fill-opacity:1;fill-rule:nonzero;stroke:none"
           d="m 16266.2,9340.62 c -33.7,-276.68 -190.9,-483.02 -351,-460.9 -160.1,22.12 -262.6,264.35 -228.8,541.02 33.8,276.67 191,483.02 351.1,460.89 160.2,-22.12 262.5,-264.34 228.7,-541.01" /></g><g
         transform="scale(1.14987)"
         id="g232"><path
           id="path234"
           style="fill:#d5d7d3;fill-opacity:1;fill-rule:nonzero;stroke:none"
           d="m 16292.1,9474.99 c -7.9,-47.17 -41.8,-80.44 -75.9,-74.31 -34,6.13 -55.3,49.34 -47.3,96.49 7.9,47.18 41.9,80.45 75.9,74.32 34,-6.13 55.2,-49.34 47.3,-96.5" /></g></g></g></svg>