<?xml version="1.0" encoding="UTF-8" standalone="no"?>
<svg
   xmlns:dc="http://purl.org/dc/elements/1.1/"
   xmlns:cc="http://creativecommons.org/ns#"
   xmlns:rdf="http://www.w3.org/1999/02/22-rdf-syntax-ns#"
   xmlns:svg="http://www.w3.org/2000/svg"
   xmlns="http://www.w3.org/2000/svg"
   viewBox="0 0 2666.6667 2666.6667"
   height="2666.6667"
   width="2666.6667"
   xml:space="preserve"
   id="svg2"
   version="1.1"><metadata
     id="metadata8"><rdf:RDF><cc:Work
         rdf:about=""><dc:format>image/svg+xml</dc:format><dc:type
           rdf:resource="http://purl.org/dc/dcmitype/StillImage" /></cc:Work></rdf:RDF></metadata><defs
     id="defs6" /><g
     transform="matrix(1.3333333,0,0,-1.3333333,0,2666.6667)"
     id="g10"><g
       transform="scale(0.1)"
       id="g12"><g
         transform="scale(1.22699)"
         id="g14"><path
           id="path16"
           style="fill:none;fill-opacity:1;fill-rule:nonzero;stroke:none"
           d="M 16300,0 H 0 V 16300 H 16300 V 0" /></g><path
         id="path18"
         style="fill:#838585;fill-opacity:1;fill-rule:nonzero;stroke:none"
         d="m 5366.17,4348.7 381.84,-89.4 -459.32,-158.5 -780.67,206.4 360.16,149.4 497.99,-107.9" /><path
         id="path20"
         style="fill:#838585;fill-opacity:1;fill-rule:nonzero;stroke:none"
         d="m 8038.16,5394.6 1424.06,-264.4 72.78,-298.4 -254.73,-65.5 -2663.75,451.2 v 240.2 l 470.65,211.1 950.99,-274.2" /><path
         id="path22"
         style="fill:#a0a09f;fill-opacity:1;fill-rule:nonzero;stroke:none"
         d="m 7529.73,9984.9 c 0,0 -287.3,-2989.1 -248.48,-3202.6 38.81,-213.5 756.91,-1387.7 756.91,-1387.7 l -494.91,-272.5 c 0,0 -1057.73,738.3 -1164.48,728.6 -106.74,-9.7 -1028.62,-1528.4 -1028.62,-1528.4 0,0 -412.65,-33.9 -424.66,0 -12.02,34 919.56,1644.9 832.22,1780.7 -87.33,135.9 -1472.16,679.3 -1472.16,679.3 0,0 -353.54,378.5 123.31,892.8 476.85,514.3 2508.48,2086.3 2593.4,2134.9 84.91,48.5 428.53,174.9 428.53,174.9 h 98.94" /><path
         id="path24"
         style="fill:#838585;fill-opacity:1;fill-rule:nonzero;stroke:none"
         d="m 5684.94,6976.4 c 0,0 1319.74,-48.5 1317.32,0 -2.43,48.5 84.91,2241.6 84.91,2241.6 0,0 -459.5,174.7 -603.36,0 -143.85,-174.7 -798.87,-2241.6 -798.87,-2241.6" /><path
         id="path26"
         style="fill:#100f0d;fill-opacity:1;fill-rule:nonzero;stroke:none"
         d="m 5073.58,6631.9 c 0,0 -295.97,329.9 -344.49,480.3 -48.52,150.4 164.97,189.3 218.34,169.9 53.37,-19.5 164.97,4.8 179.52,-145.6 14.56,-150.4 -53.37,-504.6 -53.37,-504.6" /><path
         id="path28"
         style="fill:#343434;fill-opacity:1;fill-rule:nonzero;stroke:none"
         d="m 4375.28,11763.5 c 40.22,-384.2 345,-667.2 680.75,-632 335.75,35.1 575.33,375.1 535.11,759.3 -40.21,384.2 -345,667.2 -680.74,632.1 -335.76,-35.2 -575.34,-375.1 -535.12,-759.4" /><path
         id="path30"
         style="fill:#585c5c;fill-opacity:1;fill-rule:nonzero;stroke:none"
         d="m 4375.28,11763.5 c 38.81,-370.7 314.89,-645.7 616.64,-614.1 301.76,31.6 514.92,357.8 476.12,728.5 -38.81,370.7 -314.89,645.7 -616.64,614.1 -301.76,-31.6 -514.93,-357.7 -476.12,-728.5" /><path
         id="path32"
         style="fill:#b5643d;fill-opacity:1;fill-rule:nonzero;stroke:none"
         d="m 5744.56,11288.2 c 0,0 -109.98,38.8 -339.64,-93.8 -229.66,-132.6 -333.17,-433.5 -333.17,-433.5 0,0 -391.4,-317 -384.93,-294.3 6.47,22.6 -22.64,216.7 32.35,397.8 54.99,181.2 93.8,485.3 93.8,485.3 l -359.04,-74.4 c 0,0 -268.48,-475.5 -391.4,-795.8 -122.92,-320.2 -135.86,-908.9 -97.04,-973.6 38.82,-64.7 219.96,-84.1 417.27,-25.9 197.32,58.2 701.93,216.6 915.41,449.5 213.5,233 588.71,1025.5 591.95,1057.9 3.23,32.3 -145.56,300.8 -145.56,300.8" /><path
         id="path34"
         style="fill:#252323;fill-opacity:1;fill-rule:nonzero;stroke:none"
         d="m 3050.3,4950.5 80.06,-59.8 c 0,0 385.73,-466.5 298.39,-655.7 -87.33,-189.2 -1113.53,-393 -1324.59,-393 -211.06,0 -305.68,138.3 -283.85,225.6 21.84,87.3 145.56,131 276.57,254.7 131,123.8 371.18,371.2 371.18,371.2 0,0 21.83,161.5 58.22,197.2 36.39,35.7 283.84,59.8 283.84,59.8 h 240.18" /><path
         id="path36"
         style="fill:#252323;fill-opacity:1;fill-rule:nonzero;stroke:none"
         d="m 4396.73,4659.4 c 0,0 131,-118.7 167.39,-184.2 36.39,-65.5 206.53,-582.3 157.85,-633.2 -48.68,-51 -1016.65,-327.5 -1154.93,-334.8 -138.29,-7.3 -369.56,14.5 -374.01,181.9 -4.45,167.4 119.31,123.8 283.05,313 163.73,189.2 396.63,524 396.63,524 0,0 26.68,63.1 104.32,155.3 77.63,92.2 208.63,150.4 208.63,150.4 l 211.07,-172.4" /><path
         id="path38"
         style="fill:#b5643d;fill-opacity:1;fill-rule:nonzero;stroke:none"
         d="m 4030.4,7219 -393.01,-165 c 0,0 38.82,-485.2 -63.08,-815.1 -101.89,-330 -223.19,-577.4 -310.53,-863.7 -87.33,-286.3 -126.15,-713.2 -126.15,-713.2 0,0 -164.96,-19.4 -300.82,48.5 -135.86,67.9 -145.56,198.9 -145.56,198.9 0,0 24.26,1470.2 101.89,1853.5 77.63,383.3 116.45,849.1 179.53,975.2 63.07,126.2 504.6,330 504.6,330 0,0 326.65,55.2 480.35,0 153.71,-55.2 354.2,29.1 325.09,-208.7 C 4253.59,7621.7 4030.4,7219 4030.4,7219" /><path
         id="path40"
         style="fill:#a45330;fill-opacity:1;fill-rule:nonzero;stroke:none"
         d="m 5217.31,10123.7 c 11.17,-3.3 -197.31,-55.2 -310.53,-194.2 0,0 84.1,262.1 310.53,194.2" /><path
         id="path42"
         style="fill:#a45330;fill-opacity:1;fill-rule:nonzero;stroke:none"
         d="m 3352.07,5630.8 c 0,0 18.46,258.7 91.24,651.7 72.78,393 -92.19,1164.5 0,1281 92.19,116.4 377.79,296.9 377.79,296.9 l 108.34,216.1 c 9.88,-2.5 19.35,-5.3 28.18,-8.4 153.71,-55.2 354.2,29.1 325.09,-208.7 -29.12,-237.7 -252.3,-640.4 -252.3,-640.4 l -393.02,-165 c 0,0 38.82,-485.2 -63.08,-815.1 -70.68,-228.9 -150.69,-418.1 -222.24,-608.1 v 0" /><path
         id="path44"
         style="fill:#e7e7e6;fill-opacity:1;fill-rule:nonzero;stroke:none"
         d="m 3193.03,5067.4 c -37.91,-213.1 -55.4,-405.4 -55.4,-405.4 0,0 -164.96,-19.4 -300.82,48.5 -135.86,67.9 -145.56,198.9 -145.56,198.9 0,0 1.35,82.2 4.45,212.7 177.16,-47.1 367.47,-55.8 497.33,-54.7" /><path
         id="path46"
         style="fill:#c37140;fill-opacity:1;fill-rule:nonzero;stroke:none"
         d="M 5073.58,7117.1 4666.02,7037 c 0,0 58.22,-473 50.94,-727.8 -7.28,-254.7 -157.69,-764.2 -211.06,-1099 -53.37,-334.7 -24.26,-887.9 -24.26,-887.9 0,0 -194.08,29.1 -203.79,48.5 -9.7,19.5 -24.26,247.5 -63.07,271.8 -38.82,24.2 -237.75,38.8 -237.75,38.8 0,0 53.37,868.5 -43.67,1319.7 -97.04,451.3 -77.63,1028.7 -77.63,1043.2 0,14.6 -90.51,478.1 38.82,693.8 129.32,215.8 242.59,373.6 494.9,334.8 252.3,-38.8 562.84,-4.8 655.02,-232.9 92.19,-228 176.15,-354.2 136.59,-504.6 -39.55,-150.4 -107.48,-218.3 -107.48,-218.3" /><path
         id="path48"
         style="fill:#252323;fill-opacity:1;fill-rule:nonzero;stroke:none"
         d="m 6886.04,8398 -46.33,-150.4 c 0,0 58.23,-490.1 -87.33,-761.8 -145.56,-271.7 -839.4,-426.9 -1067.44,-509.4 -228.05,-82.5 -616.21,-368.8 -611.36,-344.5 4.85,24.2 -53.37,179.5 -189.22,553.1 -135.86,373.6 -218.34,587.1 -373.61,655 -155.26,68 -305.68,92.2 -305.68,92.2 l -310.52,-194.1 c 0,0 -97.05,199 -203.79,247.5 -106.74,48.5 -228.05,72.8 -213.49,82.5 14.56,9.7 669.58,359 873.36,417.3 203.79,58.2 475.5,106.7 538.58,131 63.08,24.2 264.43,116.4 264.43,116.4 0,0 647.74,111.6 870.94,97 223.19,-14.5 861.46,-431.8 861.46,-431.8" /><path
         id="path50"
         style="fill:#100f0d;fill-opacity:1;fill-rule:nonzero;stroke:none"
         d="m 5316.18,8395.5 -162.54,-60.6 c 0,0 -84.91,-72.7 -104.32,-82.4 -19.4,-9.7 -844.25,-320.3 -844.25,-320.3 l -310.52,-194.1 -73.45,122.3 c 0,0 345.16,156.6 432.49,206.4 87.34,49.8 655.02,214.8 674.43,248.7 19.41,34 53.38,223.2 53.38,223.2 l 67.92,-143.2 h 266.86" /><path
         id="path52"
         style="fill:#e7e7e6;fill-opacity:1;fill-rule:nonzero;stroke:none"
         d="m 4477.18,4872.3 c -9.85,-278 4.46,-550 4.46,-550 0,0 -194.08,29.1 -203.79,48.5 -9.7,19.5 -24.26,247.5 -63.07,271.8 -38.82,24.2 -237.75,38.8 -237.75,38.8 0,0 6.67,108.7 11.01,269.1 164.22,-32.3 345.49,-59.1 489.14,-78.2" /><path
         id="path54"
         style="fill:#a0a09f;fill-opacity:1;fill-rule:nonzero;stroke:none"
         d="m 9462.22,5130.2 72.78,-298.4 -254.73,-65.5 -54.87,274.3 236.82,89.6" /><path
         id="path56"
         style="fill:#e9eef1;fill-opacity:1;fill-rule:nonzero;stroke:none"
         d="m 6161.83,10974.4 c -24.26,14.6 -307.29,313.8 -307.29,313.8 h -109.98 c 0,0 -451.23,-449.6 -524.02,-580.6 -72.78,-131 -63.07,-456.1 -43.66,-587.1 19.4,-131 48.52,-203.8 48.52,-203.8 0,0 -32.8,-732.7 -62.5,-883.1 -29.69,-150.4 -59.13,-319.5 -59.13,-319.5 0,0 175,-88 723.28,-175.4 548.27,-87.3 1066.9,-203.8 1050.18,-140.7 -16.71,63.1 119.15,897.6 119.15,897.6 l 228.04,451.3 v 1640 l -623.97,92.1 -438.62,-504.6" /><path
         id="path58"
         style="fill:#c37140;fill-opacity:1;fill-rule:nonzero;stroke:none"
         d="m 5976.93,11499.4 -28.59,-198.3 -93.8,-12.9 c 0,0 -260.39,-449.6 -56.61,-604.9 203.78,-155.2 732.66,257.2 849.1,359.1 l 57.52,963.9 5.8,177.3 c 0,0 -292.38,100.9 -333.11,57.2 -40.74,-43.7 -400.31,-741.4 -400.31,-741.4" /><path
         id="path60"
         style="fill:#a45330;fill-opacity:1;fill-rule:nonzero;stroke:none"
         d="m 5763.33,12003.9 340.83,-308.3 489.48,583.4 c 0,0 49.64,-428.2 -119.21,-583.1 -194.24,-178.2 -455.1,-198.5 -497.5,-196.5 l -213.6,504.5" /><path
         id="path62"
         style="fill:#a45330;fill-opacity:1;fill-rule:nonzero;stroke:none"
         d="m 6600.45,11479 c 0,0 -84.19,-391.4 -188.62,-615.4 l 108.9,77.7 c 0,0 193.05,113.6 186.36,151 -6.68,37.4 -106.64,386.7 -106.64,386.7" /><path
         id="path64"
         style="fill:#c37140;fill-opacity:1;fill-rule:nonzero;stroke:none"
         d="m 7224.42,11386.9 c 0,0 262.01,9.7 456.09,-135.9 194.08,-145.6 203.79,-480.3 164.97,-664.7 -38.81,-184.4 -179.53,-339.7 -179.53,-339.7 0,0 -194.07,-368.7 -344.49,-538.5 -150.41,-169.9 -446.38,-349.4 -630.76,-373.6 -184.38,-24.3 -301.84,349.3 -313.46,693.8 -11.62,344.5 274.64,1470.9 274.64,1470.9 l 339.25,-20.2 v -232.9 l 233.29,140.8" /><path
         id="path66"
         style="fill:#a45330;fill-opacity:1;fill-rule:nonzero;stroke:none"
         d="m 7185.61,9929.5 c -12.93,-29.6 -5.87,224.9 -107.26,516.1 -101.38,291.1 -87.22,800.5 -87.22,800.5 l 129.17,78 c 0,0 -70.17,-349.7 0,-635.9 70.16,-286.3 142.94,-580.8 65.31,-758.7" /><path
         id="path68"
         style="fill:#a45330;fill-opacity:1;fill-rule:nonzero;stroke:none"
         d="m 4560.67,9949 c 0,0 119.34,240.7 126.15,517.6 l 101.89,70 c 0,0 11.32,-348.2 -228.04,-587.6" /><path
         id="path70"
         style="fill:#2f1d16;fill-opacity:1;fill-rule:nonzero;stroke:none"
         d="m 5734.24,13162 c 13.27,26.9 -4.62,74.9 40.34,117.4 44.95,42.4 99.16,53.8 99.16,53.8 0,0 45.99,47 102.77,53.8 56.79,6.9 106.73,0.3 106.73,0.3 0,0 43.59,22.7 116.77,22.8 73.18,0.1 137.23,-37.5 166.03,-41.7 28.79,-4.2 86.63,-6.5 119.87,-14 33.24,-7.4 97.53,-39 107.88,-47 10.35,-8 67.78,-5.1 132.26,-34.1 64.49,-28.9 104.39,-109.5 104.39,-109.5 0,0 44.61,-27.7 61.04,-36 l 0.55,-0.4 c 0.96,-0.6 3.3,-2.1 6.71,-4.8 11.02,-9.6 27,-29 43.92,-50.9 32.71,-50.7 69.54,-142.3 72.5,-299.3 5.4,-286.7 -226.46,-633.1 -303.77,-756.2 l -208.59,311.1 -790.91,569.3 c 0,0 -10.87,45 -3.78,69.8 7.09,24.8 -14.62,66.3 -11.54,114.7 3.09,48.5 24.4,54 37.67,80.9" /><path
         id="path72"
         style="fill:#c37140;fill-opacity:1;fill-rule:nonzero;stroke:none"
         d="m 5772.92,12977.9 c 0,0 -49.37,-58.1 -61.03,-81.3 -11.67,-23.1 -30,-237.3 -36.15,-291.4 -6.15,-54.2 4.28,-128.4 3.01,-154.7 -1.29,-26.3 -12.64,-187.2 -8.71,-250.6 3.94,-63.5 62.05,-312.1 81.67,-378 19.61,-65.9 48.71,-153.4 79.39,-172.4 30.67,-19.1 168.71,-32.8 293.12,-2 124.4,30.8 372.31,182 441.3,264.7 69,82.6 68.94,261.7 68.94,261.7 0,0 50.12,-16.5 105.23,33.5 55.1,50 144.73,159.8 133.36,286.8 -11.38,126.9 -109.93,86.1 -161.45,37.7 -51.52,-48.4 -57.03,-125.4 -67.63,-126.7 -10.59,-1.2 -20.93,2.8 -26.09,4.8 -5.18,2 -23.39,132.8 -23.86,159.2 -0.47,26.4 12.46,183.7 9.22,189.2 -3.25,5.4 -126.07,169.4 -167.34,187.2 -41.27,17.8 -662.98,32.3 -662.98,32.3" /><path
         id="path74"
         style="fill:#2f1d16;fill-opacity:1;fill-rule:nonzero;stroke:none"
         d="m 6617.88,12410 c 0,0 -27.4,92.6 -40.6,143.4 -13.21,50.9 3.18,117.3 -10.1,128.5 -13.26,11.2 -37.92,42.7 -33.35,80.6 4.57,37.9 4.57,37.9 4.57,37.9 0,0 2.86,33.5 -48.16,53.8 -51.01,20.4 -71.34,83.7 -71.34,83.7 0,0 -130.96,3.7 -181.12,7.2 -50.17,3.6 -158.23,7.9 -217.65,8.8 -59.43,0.8 -236.17,3.3 -242.32,2.1 -6.14,-1.3 -65.92,-59.4 -65.92,-59.4 0,0 3.95,110.6 17.77,113.1 13.82,2.5 3.36,45.6 192.45,47.2 189.11,1.5 306.98,51.7 458.14,-18.4 151.17,-70.1 175.28,-39 230.13,-115.9 54.84,-76.9 105.97,-208.6 88.67,-259.7 -17.29,-51.1 -81.17,-252.9 -81.17,-252.9" /><path
         id="path76"
         style="fill:#b5643d;fill-opacity:1;fill-rule:nonzero;stroke:none"
         d="m 5016.76,11879.3 c 7.28,0 99.47,-24.3 106.74,-52.1 7.28,-27.9 1.78,-260.8 -19.73,-306.9 -21.51,-46.1 -143.69,-70 -143.69,-70 0,0 -46.02,20.6 -41.98,48.9 4.04,28.4 98.66,380.1 98.66,380.1" /><path
         id="path78"
         style="fill:#343434;fill-opacity:1;fill-rule:nonzero;stroke:none"
         d="m 6552.17,11991.4 c 40.22,-384.3 345,-667.2 680.75,-632.1 335.75,35.1 575.33,375.1 535.12,759.3 -40.22,384.3 -345,667.2 -680.75,632.1 -335.75,-35.1 -575.33,-375.1 -535.12,-759.3" /><path
         id="path80"
         style="fill:#585c5c;fill-opacity:1;fill-rule:nonzero;stroke:none"
         d="m 6552.17,11991.4 c 38.81,-370.8 314.89,-645.7 616.64,-614.1 301.76,31.6 514.93,357.7 476.12,728.4 -38.81,370.8 -314.89,645.7 -616.64,614.2 -301.76,-31.6 -514.92,-357.8 -476.12,-728.5" /><path
         id="path82"
         style="fill:#c37140;fill-opacity:1;fill-rule:nonzero;stroke:none"
         d="m 7252.24,12177.5 c 0,0 132.3,-169.6 127.45,-242.4 -4.86,-72.7 -183.5,-230.4 -183.5,-230.4 0,0 -92.68,16.9 -75.89,152.8 16.78,135.9 131.94,320 131.94,320" /><path
         id="path84"
         style="fill:#343434;fill-opacity:1;fill-rule:nonzero;stroke:none"
         d="m 4574.73,12549.6 h -0.02 c 288.55,-31.7 504.34,-351 486.52,-728.8 -9.61,-203.8 -85.34,-384.1 -198.55,-507.8 -28.52,-35.6 -62.84,-66.5 -104.15,-90.5 l -1.96,-1.1 c -32.57,-21.7 -66.87,-39.5 -102.55,-52.7 -289,-129.9 -473.89,-54.8 -473.89,-54.8 0,0 -233.35,471.5 -228.17,526.4 5.19,54.8 48.09,761.6 48.09,761.6 293.29,223.5 574.68,147.7 574.68,147.7" /><path
         id="path86"
         style="fill:#585c5c;fill-opacity:1;fill-rule:nonzero;stroke:none"
         d="m 3739.57,11835.1 c -18.37,-389.5 223.71,-717.3 540.7,-732.3 316.99,-14.9 588.85,288.7 607.22,678.1 18.36,389.5 -223.72,717.4 -540.71,732.3 -316.99,15 -588.85,-288.6 -607.21,-678.1" /><path
         id="path88"
         style="fill:#aaa9a8;fill-opacity:1;fill-rule:nonzero;stroke:none"
         d="m 4092.31,11820.5 c 6.49,-101.6 81.74,-179.6 168.08,-174.1 86.34,5.5 151.08,92.4 144.59,194.1 -6.48,101.6 -81.74,179.6 -168.08,174.1 -86.34,-5.5 -151.07,-92.4 -144.59,-194.1" /><path
         id="path90"
         style="fill:#343434;fill-opacity:1;fill-rule:nonzero;stroke:none"
         d="m 6774.75,12728.8 -0.01,-0.1 c 288.55,-31.7 504.33,-351 486.51,-728.8 -9.6,-203.7 -85.34,-384.1 -198.54,-507.7 -28.53,-35.7 -62.84,-66.6 -104.16,-90.6 l -1.96,-1.1 c -32.56,-21.7 -66.87,-39.4 -102.55,-52.6 -288.99,-130 -473.88,-54.9 -473.88,-54.9 0,0 -233.36,471.6 -228.17,526.4 5.18,54.8 48.08,761.6 48.08,761.6 293.29,223.6 574.68,147.8 574.68,147.8" /><path
         id="path92"
         style="fill:#585c5c;fill-opacity:1;fill-rule:nonzero;stroke:none"
         d="m 5939.59,12014.2 c -18.37,-389.5 223.72,-717.3 540.7,-732.3 317,-14.9 588.86,288.7 607.22,678.2 18.37,389.4 -223.71,717.3 -540.7,732.2 -316.99,15 -588.85,-288.6 -607.22,-678.1" /><path
         id="path94"
         style="fill:#aaa9a8;fill-opacity:1;fill-rule:nonzero;stroke:none"
         d="m 6292.33,11999.6 c 6.49,-101.6 81.74,-179.6 168.09,-174.1 86.34,5.5 151.07,92.4 144.58,194.1 -6.48,101.7 -81.73,179.6 -168.07,174.1 -86.34,-5.5 -151.08,-92.4 -144.6,-194.1" /><path
         id="path96"
         style="fill:#343434;fill-opacity:1;fill-rule:nonzero;stroke:none"
         d="m 14475.3,15471.3 c 40.2,-384.2 345,-667.2 680.7,-632.1 335.8,35.2 575.4,375.2 535.1,759.4 -40.2,384.2 -345,667.2 -680.7,632 -335.8,-35.1 -575.3,-375.1 -535.1,-759.3" /><path
         id="path98"
         style="fill:#494a4b;fill-opacity:1;fill-rule:nonzero;stroke:none"
         d="m 14475.3,15471.3 c 38.8,-370.7 314.9,-645.7 616.6,-614.1 301.8,31.6 514.9,357.7 476.1,728.5 -38.8,370.7 -314.8,645.7 -616.6,614.1 -301.8,-31.6 -514.9,-357.7 -476.1,-728.5" /><g
         transform="scale(1.04946)"
         id="g100"><path
           id="path102"
           style="fill:#343434;fill-opacity:1;fill-rule:nonzero;stroke:none"
           d="m 15103.1,14990.3 c 38.4,-366.1 328.7,-635.8 648.7,-602.3 319.9,33.5 548.2,357.5 509.9,723.6 -38.3,366.1 -328.7,635.7 -648.6,602.2 -320,-33.4 -548.3,-357.4 -510,-723.5" /></g><g
         transform="scale(1.04182)"
         id="g104"><path
           id="path106"
           style="fill:#585c5c;fill-opacity:1;fill-rule:nonzero;stroke:none"
           d="m 15213.8,15100.2 c 37.3,-355.9 302.3,-619.8 592,-589.5 289.6,30.4 494.2,343.4 457,699.3 -37.3,355.9 -302.3,619.8 -591.9,589.4 -289.7,-30.3 -494.3,-343.3 -457.1,-699.2" /></g><path
         id="path108"
         style="fill:#838585;fill-opacity:1;fill-rule:nonzero;stroke:none"
         d="m 14013.9,4348.7 381.9,-89.4 -459.4,-158.5 -780.6,206.4 360.1,149.4 498,-107.9" /><g
         transform="scale(1.11551)"
         id="g110"><path
           id="path112"
           style="fill:#838585;fill-opacity:1;fill-rule:nonzero;stroke:none"
           d="m 14958.1,4836 1276.6,-237.03 65.3,-267.49 -228.4,-58.72 -2387.9,404.48 v 215.32 l 421.9,189.25 852.5,-245.81" /></g><g
         transform="scale(1.02367)"
         id="g114"><path
           id="path116"
           style="fill:#a0a09f;fill-opacity:1;fill-rule:nonzero;stroke:none"
           d="m 15803.4,9753.98 c 0,0 -280.7,-2919.97 -242.8,-3128.54 37.9,-208.56 739.4,-1355.6 739.4,-1355.6 l -483.5,-266.2 c 0,0 -1033.2,721.23 -1137.5,711.75 -104.3,-9.48 -1004.8,-1493.05 -1004.8,-1493.05 0,0 -403.1,-33.12 -414.9,0 -11.7,33.21 898.3,1606.85 813,1739.51 -85.3,132.76 -1438.1,663.59 -1438.1,663.59 0,0 -345.3,369.75 120.4,872.16 465.9,502.4 2450.5,2038.05 2533.5,2085.52 82.9,47.38 418.5,170.86 418.5,170.86 h 96.8" /></g><path
         id="path118"
         style="fill:#100f0d;fill-opacity:1;fill-rule:nonzero;stroke:none"
         d="m 13721.3,6631.9 c 0,0 -295.9,329.9 -344.5,480.3 -48.5,150.4 165,189.3 218.4,169.9 53.4,-19.5 165,4.8 179.5,-145.6 14.6,-150.4 -53.4,-504.6 -53.4,-504.6" /><path
         id="path120"
         style="fill:#838585;fill-opacity:1;fill-rule:nonzero;stroke:none"
         d="m 14332.7,6976.4 c 0,0 1319.7,-48.5 1317.3,0 -2.4,48.5 84.9,2241.6 84.9,2241.6 0,0 -459.5,174.7 -603.3,0 -143.9,-174.7 -798.9,-2241.6 -798.9,-2241.6" /><g
         transform="scale(1.02144)"
         id="g122"><path
           id="path124"
           style="fill:#aaa9a8;fill-opacity:1;fill-rule:nonzero;stroke:none"
           d="m 16100.5,15613 h 90.2 c 0,0 109.3,-110.5 28.5,-254.2 l -118.7,-30.8 v 285" /></g><path
         id="path126"
         style="fill:#b5643d;fill-opacity:1;fill-rule:nonzero;stroke:none"
         d="m 15138.8,15528.5 c 0,0 23.6,-264.9 -15.2,-306.9 -38.8,-42.1 -184.4,-38.9 -184.4,-29.2 0,9.8 -18.1,152.1 45.9,239.4 64.1,87.4 153.7,96.7 153.7,96.7" /><path
         id="path128"
         style="fill:#252323;fill-opacity:1;fill-rule:nonzero;stroke:none"
         d="m 11698.1,4950.5 80,-59.8 c 0,0 385.7,-466.5 298.4,-655.7 -87.3,-189.2 -1113.5,-393 -1324.6,-393 -211.1,0 -305.7,138.3 -283.8,225.6 21.8,87.3 145.5,131 276.5,254.7 131,123.8 371.2,371.2 371.2,371.2 0,0 21.8,161.5 58.2,197.2 36.4,35.7 283.9,59.8 283.9,59.8 h 240.2" /><path
         id="path130"
         style="fill:#b5643d;fill-opacity:1;fill-rule:nonzero;stroke:none"
         d="m 12678.2,7219 -393.1,-165 c 0,0 38.9,-485.2 -63,-815.1 -101.9,-330 -223.2,-577.4 -310.6,-863.7 -87.3,-286.3 -126.1,-713.2 -126.1,-713.2 0,0 -165,-19.4 -300.8,48.5 -135.9,67.9 -145.6,198.9 -145.6,198.9 0,0 24.3,1470.2 101.9,1853.5 77.6,383.3 116.4,849.1 179.5,975.2 63.1,126.2 504.6,330 504.6,330 0,0 326.7,55.2 480.4,0 153.7,-55.2 354.2,29.1 325.1,-208.7 -29.2,-237.7 -252.3,-640.4 -252.3,-640.4" /><path
         id="path132"
         style="fill:#a45330;fill-opacity:1;fill-rule:nonzero;stroke:none"
         d="m 11999.8,5630.8 c 0,0 18.5,258.7 91.3,651.7 72.7,393 -92.2,1164.5 0,1281 92.2,116.4 377.8,296.9 377.8,296.9 l 108.3,216.1 c 9.9,-2.5 19.3,-5.3 28.2,-8.4 153.7,-55.2 354.2,29.1 325.1,-208.7 -29.2,-237.7 -252.3,-640.4 -252.3,-640.4 l -393.1,-165 c 0,0 38.9,-485.2 -63,-815.1 -70.7,-228.9 -150.7,-418.1 -222.3,-608.1 v 0" /><path
         id="path134"
         style="fill:#e7e7e6;fill-opacity:1;fill-rule:nonzero;stroke:none"
         d="m 11840.8,5067.4 c -37.9,-213.1 -55.4,-405.4 -55.4,-405.4 0,0 -165,-19.4 -300.8,48.5 -135.9,67.9 -145.6,198.9 -145.6,198.9 0,0 1.4,82.2 4.5,212.7 177.1,-47.1 367.4,-55.8 497.3,-54.7" /><path
         id="path136"
         style="fill:#252323;fill-opacity:1;fill-rule:nonzero;stroke:none"
         d="m 13044.5,4659.4 c 0,0 131,-118.7 167.4,-184.2 36.4,-65.5 206.5,-582.3 157.8,-633.2 -48.7,-51 -1016.6,-327.5 -1154.9,-334.8 -138.3,-7.3 -369.6,14.5 -374,181.9 -4.5,167.4 119.3,123.8 283,313 163.8,189.2 396.7,524 396.7,524 0,0 26.6,63.1 104.3,155.3 77.6,92.2 208.6,150.4 208.6,150.4 l 211.1,-172.4" /><path
         id="path138"
         style="fill:#c37140;fill-opacity:1;fill-rule:nonzero;stroke:none"
         d="m 13721.3,7117.1 -407.5,-80.1 c 0,0 58.2,-473 50.9,-727.8 -7.3,-254.7 -157.7,-764.2 -211,-1099 -53.4,-334.7 -24.3,-887.9 -24.3,-887.9 0,0 -194.1,29.1 -203.8,48.5 -9.7,19.5 -24.3,247.5 -63.1,271.8 -38.8,24.2 -237.7,38.8 -237.7,38.8 0,0 53.4,868.5 -43.7,1319.7 -97,451.3 -77.6,1028.7 -77.6,1043.2 0,14.6 -90.5,478.1 38.8,693.8 129.3,215.8 242.6,373.6 494.9,334.8 252.3,-38.8 562.8,-4.8 655,-232.9 92.2,-228 176.2,-354.2 136.6,-504.6 -39.5,-150.4 -107.5,-218.3 -107.5,-218.3" /><path
         id="path140"
         style="fill:#e7e7e6;fill-opacity:1;fill-rule:nonzero;stroke:none"
         d="m 13124.9,4872.3 c -9.8,-278 4.5,-550 4.5,-550 0,0 -194.1,29.1 -203.8,48.5 -9.7,19.5 -24.3,247.5 -63.1,271.8 -38.8,24.2 -237.7,38.8 -237.7,38.8 0,0 6.7,108.7 11,269.1 164.2,-32.3 345.5,-59.1 489.1,-78.2" /><path
         id="path142"
         style="fill:#252323;fill-opacity:1;fill-rule:nonzero;stroke:none"
         d="m 15533.8,8398 -46.3,-150.4 c 0,0 58.2,-490.1 -87.4,-761.8 -145.5,-271.7 -839.4,-426.9 -1067.4,-509.4 -228.1,-82.5 -616.2,-368.8 -611.4,-344.5 4.9,24.2 -53.3,179.5 -189.2,553.1 -135.8,373.6 -218.3,587.1 -373.6,655 -155.3,68 -305.7,92.2 -305.7,92.2 l -310.5,-194.1 c 0,0 -97,199 -203.8,247.5 -106.7,48.5 -228,72.8 -213.5,82.5 14.6,9.7 669.6,359 873.4,417.3 203.8,58.2 475.5,106.7 538.6,131 63,24.2 264.4,116.4 264.4,116.4 0,0 647.7,111.6 870.9,97 223.2,-14.5 861.5,-431.8 861.5,-431.8" /><path
         id="path144"
         style="fill:#b5643d;fill-opacity:1;fill-rule:nonzero;stroke:none"
         d="m 14252.6,11120 c 0,0 -196.5,473.1 -240.1,822.4 -43.7,349.4 29.1,720.5 65.5,1004.4 36.4,283.8 41.2,701.1 104.3,1065 63.1,363.9 320.2,1052.9 320.2,1052.9 h 315.4 c 0,0 -82.5,-446.4 -77.6,-771.5 4.8,-325.1 -128.9,-1106.3 -134.8,-1217.8 -5.9,-111.6 92.9,-451.3 92.9,-451.3 0,0 274.8,-595.2 284.5,-763.4 9.7,-168.2 -9.7,-536.9 -92.2,-629.1 -82.5,-92.2 -638.1,-111.6 -638.1,-111.6" /><path
         id="path146"
         style="fill:#a45330;fill-opacity:1;fill-rule:nonzero;stroke:none"
         d="m 14745.8,12106.9 c 0,0 -92.9,-236.6 -223.9,-475.9 l 300.8,313.8 -76.9,162.1" /><g
         transform="scale(1.00344)"
         id="g148"><path
           id="path150"
           style="fill:#e9eef1;fill-opacity:1;fill-rule:nonzero;stroke:none"
           d="m 15596.4,11845.9 142.6,-25.8 561,-1340.2 c 0,0 -116.1,-362.6 -130.6,-413.4 -14.5,-50.8 -359.3,-819.57 -451.6,-1124.22 -92.4,-304.65 -237.2,-573.03 -237.2,-573.03 0,0 -674.8,-29 -1066.4,108.82 -391.7,137.83 -660.1,203.1 -660.1,224.83 0,21.73 137.9,703.58 181.3,1073.51 43.6,369.89 225,993.59 239.4,1058.89 14.6,65.3 29,246.6 29,246.6 l 780.1,959.9 612.5,-195.9" /></g><path
         id="path152"
         style="fill:#c37140;fill-opacity:1;fill-rule:nonzero;stroke:none"
         d="m 15639.5,12229.6 c 0,0 0.8,-209.6 10.5,-343 0,0 -148,-106.7 -332.4,-528.9 -184.3,-422.1 -457.2,-640.4 -619.2,-557.9 -161.9,82.5 -53.1,488.4 0,598.4 53.2,110 195.5,278.2 195.5,278.2 l -32.5,167.2 c 0,0 443.3,622 488.6,625.3 45.3,3.2 252.3,53.6 265.2,26.8 13,-26.8 24.3,-266.1 24.3,-266.1" /><path
         id="path154"
         style="fill:#a45330;fill-opacity:1;fill-rule:nonzero;stroke:none"
         d="m 14698.4,12214.7 344.9,-303.7 481.7,589.8 c 0,0 55.3,-427.5 -111.4,-584.6 -191.9,-180.8 -452.4,-204.6 -494.9,-203.2 l -220.3,501.7" /><path
         id="path156"
         style="fill:#a45330;fill-opacity:1;fill-rule:nonzero;stroke:none"
         d="m 14893.9,11676.4 89,-258 -60.7,368.7 -60.8,56.5 32.5,-167.2" /><g
         transform="scale(1.02695)"
         id="g158"><path
           id="path160"
           style="fill:#c37140;fill-opacity:1;fill-rule:nonzero;stroke:none"
           d="m 15459,11740 c 0,0 -240.9,-203.1 -368.5,-562.2 -127.6,-359.1 -79.5,-869.4 267.4,-1030 346.7,-160.63 568.9,92.1 568.9,92.1 0,0 122.8,262.3 198.4,399.3 75.6,137 174.8,326 160.6,552.8 -14.1,226.7 -47.2,387.4 -47.2,387.4 0,0 18.8,652 -33.2,940.2 -51.9,288.2 -70.7,434.7 -70.7,434.7 0,0 75.5,581.1 -28.5,963.8 -103.9,382.7 -212.5,978 -212.5,978 l -297.7,-47.2 c 0,0 -70.8,-666.2 -75.6,-992.2 -4.7,-326 23.7,-874.1 23.7,-874.1 L 15459,11740" /></g><path
         id="path162"
         style="fill:#b36137;fill-opacity:1;fill-rule:nonzero;stroke:none"
         d="m 16244.4,11449.9 c 0,0 -291.1,72.8 -281.4,417.3 0,0 92.2,-266.9 281.4,-417.3" /><path
         id="path164"
         style="fill:#a45330;fill-opacity:1;fill-rule:nonzero;stroke:none"
         d="m 15793.1,11860.7 c 0,0 70.2,-466.1 -58.2,-891.1 0,0 269.1,423.8 58.2,891.1" /><path
         id="path166"
         style="fill:#100f0d;fill-opacity:1;fill-rule:nonzero;stroke:none"
         d="m 13963.9,8395.5 -162.5,-60.6 c 0,0 -84.9,-72.7 -104.3,-82.4 -19.4,-9.7 -844.3,-320.3 -844.3,-320.3 l -310.5,-194.1 -73.5,122.3 c 0,0 345.2,156.6 432.5,206.4 87.4,49.8 655.1,214.8 674.5,248.7 19.4,34 53.4,223.2 53.4,223.2 l 67.9,-143.2 h 266.8" /><g
         transform="scale(1.11551)"
         id="g168"><path
           id="path170"
           style="fill:#a0a09f;fill-opacity:1;fill-rule:nonzero;stroke:none"
           d="m 16234.7,4598.97 65.3,-267.49 -228.4,-58.72 -49.1,245.9 212.2,80.31" /></g><g
         transform="scale(1.01359)"
         id="g172"><path
           id="path174"
           style="fill:#343434;fill-opacity:1;fill-rule:nonzero;stroke:none"
           d="m 15696.1,16252.4 v 0 c 286.2,11.9 544.1,-267.3 583,-638.5 20.9,-200.1 -26.1,-387.2 -118.1,-524.7 -22.5,-39.1 -51.4,-74.3 -88.1,-103.8 l -1.8,-1.4 c -28.5,-26 -59.3,-48.4 -92.1,-66.6 -262.6,-169.8 -454.1,-124.1 -454.1,-124.1 0,0 -297.7,425.2 -300.9,479.5 -3,54.2 -66.4,749.9 -66.4,749.9 252.8,261.7 538.5,229.7 538.5,229.7" /></g><g
         transform="scale(1.00834)"
         id="g176"><path
           id="path178"
           style="fill:#585c5c;fill-opacity:1;fill-rule:nonzero;stroke:none"
           d="m 15066,15511.6 c 40.3,-384.6 326.6,-669.8 639.7,-637 313,32.7 534,371.1 493.9,755.6 -40.3,384.6 -326.7,669.8 -639.7,637 -313,-32.7 -534.1,-371 -493.9,-755.6" /></g><g
         transform="scale(1.00957)"
         id="g180"><path
           id="path182"
           style="fill:#343434;fill-opacity:1;fill-rule:nonzero;stroke:none"
           d="m 14527.4,16224.9 v 0 c 285.9,-31.5 499.7,-347.7 481.9,-721.9 -9.5,-201.9 -84.5,-380.5 -196.6,-503 -28.2,-35.3 -62.2,-65.9 -103.2,-89.7 l -1.9,-1.1 c -32.3,-21.5 -66.3,-39 -101.6,-52.1 -286.3,-128.7 -469.4,-54.4 -469.4,-54.4 0,0 -231.1,467.1 -226,521.4 5.2,54.4 47.7,754.4 47.7,754.4 290.4,221.5 569.1,146.4 569.1,146.4" /></g><path
         id="path184"
         style="fill:#aaa9a8;fill-opacity:1;fill-rule:nonzero;stroke:none"
         d="m 15542.5,15679.7 c 21.7,-99.5 107.9,-165.2 192.4,-146.8 84.5,18.5 135.4,114.2 113.7,213.7 -21.8,99.5 -107.9,165.2 -192.4,146.7 -84.5,-18.4 -135.4,-114.1 -113.7,-213.6" /><g
         transform="scale(1.0036)"
         id="g186"><path
           id="path188"
           style="fill:#585c5c;fill-opacity:1;fill-rule:nonzero;stroke:none"
           d="m 13781.7,15609.4 c -18.3,-388 222.9,-714.7 538.8,-729.6 315.9,-14.9 586.7,287.6 605,675.7 18.4,388 -222.9,714.7 -538.7,729.6 -315.9,14.9 -586.8,-287.6 -605.1,-675.7" /></g><path
         id="path190"
         style="fill:#aaa9a8;fill-opacity:1;fill-rule:nonzero;stroke:none"
         d="m 14184.1,15651.1 c 6.5,-101.7 81.8,-179.6 168.1,-174.1 86.3,5.5 151.1,92.4 144.6,194.1 -6.5,101.6 -81.7,179.6 -168.1,174.1 -86.3,-5.5 -151.1,-92.4 -144.6,-194.1" /><path
         id="path192"
         style="fill:#2f1d16;fill-opacity:1;fill-rule:nonzero;stroke:none"
         d="m 14662.4,13375.4 c 13.3,26.9 -4.6,74.9 40.3,117.4 45,42.5 99.2,53.9 99.2,53.9 0,0 46,46.9 102.8,53.8 56.7,6.8 106.7,0.3 106.7,0.3 0,0 43.6,22.6 116.8,22.7 73.1,0.1 137.2,-37.5 166,-41.7 28.8,-4.2 86.6,-6.5 119.9,-13.9 33.2,-7.5 97.5,-39 107.8,-47.1 10.4,-8 67.8,-5.1 132.3,-34 64.5,-29 104.4,-109.6 104.4,-109.6 0,0 44.6,-27.7 61,-36 l 0.6,-0.3 c 0.9,-0.6 3.3,-2.2 6.7,-4.9 11,-9.5 27,-28.9 43.9,-50.8 32.7,-50.8 69.6,-142.3 72.5,-299.4 5.4,-286.6 -226.5,-633 -303.8,-756.2 l -208.5,311.2 -791,569.2 c 0,0 -10.8,45 -3.7,69.8 7,24.8 -14.7,66.3 -11.6,114.8 3.1,48.4 24.4,53.9 37.7,80.8" /><path
         id="path194"
         style="fill:#c37140;fill-opacity:1;fill-rule:nonzero;stroke:none"
         d="m 14701.1,13191.3 c 0,0 -49.4,-58.1 -61.1,-81.3 -11.6,-23.1 -30,-237.3 -36.1,-291.4 -6.2,-54.1 4.3,-128.4 3,-154.7 -1.3,-26.2 -12.6,-187.2 -8.7,-250.6 3.9,-63.4 62,-312.1 81.7,-378 19.6,-65.9 48.7,-153.4 79.3,-172.4 30.7,-19.1 168.8,-32.8 293.2,-2 124.4,30.8 372.3,182 441.3,264.7 69,82.7 68.9,261.8 68.9,261.8 0,0 50.1,-16.5 105.2,33.5 55.1,50 144.8,159.7 133.4,286.7 -11.4,127 -109.9,86.1 -161.5,37.7 -51.5,-48.4 -57,-125.4 -67.6,-126.6 -10.6,-1.3 -20.9,2.7 -26.1,4.7 -5.2,2 -23.4,132.9 -23.8,159.2 -0.5,26.4 12.4,183.8 9.2,189.2 -3.3,5.4 -126.1,169.4 -167.3,187.2 -41.3,17.9 -663,32.3 -663,32.3" /><path
         id="path196"
         style="fill:#2f1d16;fill-opacity:1;fill-rule:nonzero;stroke:none"
         d="m 15546,12623.4 c 0,0 -27.4,92.6 -40.6,143.5 -13.2,50.8 3.2,117.2 -10.1,128.4 -13.2,11.3 -37.9,42.7 -33.3,80.6 4.5,38 4.5,38 4.5,38 0,0 2.9,33.4 -48.1,53.8 -51,20.3 -71.3,83.6 -71.3,83.6 0,0 -131,3.7 -181.2,7.3 -50.1,3.5 -158.2,7.8 -217.6,8.7 -59.4,0.9 -236.2,3.4 -242.3,2.1 -6.2,-1.3 -66,-59.4 -66,-59.4 0,0 4,110.7 17.8,113.2 13.8,2.4 3.4,45.6 192.5,47.1 189.1,1.6 306.9,51.7 458.1,-18.4 151.2,-70 175.3,-39 230.1,-115.9 54.9,-76.9 106,-208.5 88.7,-259.7 -17.3,-51.1 -81.2,-252.9 -81.2,-252.9" /></g></g></svg>