<?xml version="1.0" encoding="UTF-8" standalone="no"?>
<svg
   xmlns:dc="http://purl.org/dc/elements/1.1/"
   xmlns:cc="http://creativecommons.org/ns#"
   xmlns:rdf="http://www.w3.org/1999/02/22-rdf-syntax-ns#"
   xmlns:svg="http://www.w3.org/2000/svg"
   xmlns="http://www.w3.org/2000/svg"
   viewBox="0 0 2666.6667 2666.6667"
   height="2666.6667"
   width="2666.6667"
   xml:space="preserve"
   id="svg2"
   version="1.1"><metadata
     id="metadata8"><rdf:RDF><cc:Work
         rdf:about=""><dc:format>image/svg+xml</dc:format><dc:type
           rdf:resource="http://purl.org/dc/dcmitype/StillImage" /></cc:Work></rdf:RDF></metadata><defs
     id="defs6" /><g
     transform="matrix(1.3333333,0,0,-1.3333333,0,2666.6667)"
     id="g10"><g
       transform="scale(0.1)"
       id="g12"><g
         transform="scale(1.22699)"
         id="g14"><path
           id="path16"
           style="fill:none;fill-opacity:1;fill-rule:nonzero;stroke:none"
           d="M 16300,0 H 0 V 16300 H 16300 V 0" /></g><path
         id="path18"
         style="fill:#34231f;fill-opacity:1;fill-rule:nonzero;stroke:none"
         d="m 12565.5,16190 c 0,0 -135,-180.1 -180.1,-394.7 -45.2,-214.6 59.8,-256 -54.8,-545.9 -114.7,-289.8 -105.5,-342.7 -14.1,-331.3 91.4,11.3 569.6,-248.4 652.4,237.2 82.8,485.7 169.4,615.9 67.8,833.1 -101.7,217.3 -471.2,201.6 -471.2,201.6" /><g
         transform="scale(1.02003)"
         id="g20"><path
           id="path22"
           style="fill:#818283;fill-opacity:1;fill-rule:nonzero;stroke:none"
           d="m 16230.9,13990.2 -1184,-118.2 c -1.9,-0.2 -3.6,-0.7 -5.4,-1.1 l -74.1,-262 1288.7,128.7 c 25.4,2.5 43.9,25.2 41.4,50.6 l -16.1,160.7 c -2.6,25.3 -25.1,43.9 -50.5,41.3" /></g><g
         transform="scale(1.02649)"
         id="g24"><path
           id="path26"
           style="fill:#c37140;fill-opacity:1;fill-rule:nonzero;stroke:none"
           d="m 13567.1,14614.8 c 0,0 401.6,185.9 643.3,226.8 241.6,40.9 602.3,0 602.3,0 0,0 189.6,74.4 308.6,104.2 119,29.7 293.7,18.5 293.7,18.5 0,0 171,52.1 316.1,67 144.9,14.8 293.7,40.9 368,0 74.4,-40.9 200.9,-204.5 197.1,-293.8 -3.7,-89.2 -37.1,-211.9 -167.3,-327.2 -130.1,-115.2 -345.8,-185.9 -345.8,-185.9 0,0 52.1,-167.3 22.3,-308.6 0,0 24.2,-347.6 0,-392.3 -24.2,-44.6 -102.2,-26 -102.2,-26 0,0 -40.9,-29.7 -68.8,-37.2 -27.9,-7.4 -91.1,9.3 -91.1,9.3 0,0 -44.6,-18.6 -76.2,-22.3 -31.6,-3.7 -67,9.3 -67,9.3 0,0 -65,-31.6 -94.8,-31.6 -29.8,0 -89.2,61.4 -94.7,85.5 -5.7,24.2 -50.3,295.6 -52.2,301.2 -1.8,5.6 -31.5,130.1 -14.8,174.7 16.7,44.7 163.6,378.1 163.6,378.1 0,0 -650.7,-181 -721.4,-199.6 -70.6,-18.6 -126.3,-70.6 -141.2,-104.1 -15,-33.4 -122.7,-237.9 -174.8,-524.3 -52,-286.2 -412.7,-182.1 -535.4,133.9 -122.7,316 -211.9,334.6 -189.6,568.9 22.3,234.2 22.3,375.5 22.3,375.5" /></g><path
         id="path28"
         style="fill:#a45634;fill-opacity:1;fill-rule:nonzero;stroke:none"
         d="m 14548.6,13853.2 61.1,286.2 282.4,683.2 -484.7,-864.5 26.7,-232.7 c 59.2,-7.8 114,6.1 154.1,45.6 -23.4,46.9 -39.6,82.2 -39.6,82.2" /><path
         id="path30"
         style="fill:#a45634;fill-opacity:1;fill-rule:nonzero;stroke:none"
         d="m 15761.3,13793.2 c 24.6,9.1 46.8,19.9 46.8,19.9 l -118.3,321.2 c 0,0 48.1,-230.1 71.5,-341.1" /><path
         id="path32"
         style="fill:#a45634;fill-opacity:1;fill-rule:nonzero;stroke:none"
         d="m 15891.2,13806 c 30.1,6.4 63.9,20.4 63.9,20.4 l -89.7,307.9 c 0,0 20.1,-212.9 25.8,-328.3" /><path
         id="path34"
         style="fill:#a45634;fill-opacity:1;fill-rule:nonzero;stroke:none"
         d="m 16075.8,13828.2 c 22.4,11.6 43.4,26.9 43.4,26.9 0,0 -55.4,327.6 -57.9,337.8 -2,8 8.6,-246.8 14.5,-364.7" /><path
         id="path36"
         style="fill:#252323;fill-opacity:1;fill-rule:nonzero;stroke:none"
         d="m 11812,3795.8 137.4,-213.4 65.4,-221.4 c 0,0 362.1,-918.5 341.7,-994.9 -20.3,-76.3 -391.8,-152.6 -727.7,-111.9 -335.9,40.7 -483.4,193.4 -503.8,269.7 -20.4,76.3 127.2,793.9 193.4,921.1 66.1,127.2 310.4,244.3 335.9,269.7 25.4,25.4 157.7,81.1 157.7,81.1" /><path
         id="path38"
         style="fill:#252323;fill-opacity:1;fill-rule:nonzero;stroke:none"
         d="m 14295.4,3795.8 c 0,0 -122.1,-188 -137.4,-218.5 -15.3,-30.5 -127.2,-625.9 -111.9,-681.9 15.2,-56 422.3,-122.2 452.9,-152.7 30.5,-30.5 290,-213.7 702.2,-229 412.3,-15.3 391.9,122.1 335.9,315.5 -56,193.4 -264.6,346.1 -330.8,427.5 -66.1,81.4 -284.9,442.7 -320.6,488.5 -35.6,45.8 -213.7,76.4 -213.7,76.4 l -376.6,-25.8" /><path
         id="path40"
         style="fill:#c37140;fill-opacity:1;fill-rule:nonzero;stroke:none"
         d="m 11880.7,9544.1 -206.1,-211.2 c 0,0 87.8,-2040.7 15.3,-2353.6 -72.5,-313 -232.8,-717.6 -282.5,-1209.9 -49.6,-492.4 72.6,-1988.5 68.7,-2103 -3.8,-114.5 -15.2,-305.4 -15.2,-305.4 0,0 72.5,3.8 99.2,38.2 26.7,34.3 114.5,152.7 167.9,179.4 53.5,26.7 221.4,3.8 221.4,3.8 0,0 132.3,1017.8 305.3,1577.6 173.1,559.7 86.6,1058.5 127.3,1216.2 40.7,157.8 162.8,615.8 295.1,1129.8 132.3,514 386.8,1638.6 386.8,1638.6 0,0 -488.5,412.2 -524.2,437.7 -35.6,25.4 -659,-38.2 -659,-38.2" /><path
         id="path42"
         style="fill:#c37140;fill-opacity:1;fill-rule:nonzero;stroke:none"
         d="m 13226.7,9144.6 c 0,0 447.9,-1587.7 442.8,-1877.8 -5.1,-290.1 15.2,-463.1 71.2,-692.1 56,-229 56,-442.7 0,-743 -56,-300.2 198.5,-900.7 305.4,-1333.3 106.8,-432.6 173,-916 167.9,-946.5 -5.1,-30.6 76.3,-106.9 76.3,-106.9 0,0 127.3,122.1 183.2,203.5 56,81.5 198.5,173.1 198.5,173.1 0,0 40.7,870.2 50.9,1526.7 10.2,656.4 -122.1,916 -122.1,1185.7 0,269.7 25.4,610.7 61,1277.3 35.6,666.7 0,1531.8 0,1531.8 0,0 -625.9,271.5 -809.1,245.2 -183.2,-26.4 -626,-443.7 -626,-443.7" /><path
         id="path44"
         style="fill:#252323;fill-opacity:1;fill-rule:nonzero;stroke:none"
         d="m 12499,11622.9 -427.5,-208.6 c 0,0 -193.3,-452.9 -315.5,-961.8 -122.1,-508.9 -81.4,-1119.6 -81.4,-1119.6 0,0 839.7,-15.3 1389.3,-188.3 l 71.2,208.7 91.6,-208.7 c 0,0 386.8,81.4 743,137.4 356.3,56 692.1,61.1 692.1,61.1 0,0 -137.4,788.8 -178.1,966.9 -40.7,178.1 -143.1,872.4 -173,1027.9 -30,155.6 -753.2,417.3 -885.5,432.6 -132.3,15.3 -926.2,-147.6 -926.2,-147.6" /><path
         id="path46"
         style="fill:#c37140;fill-opacity:1;fill-rule:nonzero;stroke:none"
         d="m 12186,12628 c 0,0 124.7,-348.6 94.2,-536.9 -30.5,-188.3 -208.7,-676.8 -208.7,-676.8 0,0 671.8,-193.4 1292.6,-168 620.9,25.5 946.6,91.6 946.6,91.6 0,0 -101.8,488.6 -101.8,743 0,254.5 34.4,585.3 34.4,585.3 0,0 -472,335.8 -528,366.4 -56,30.5 -1190.8,45.8 -1211.2,0 -20.3,-45.8 -318.1,-404.6 -318.1,-404.6" /><path
         id="path48"
         style="fill:#e9eef1;fill-opacity:1;fill-rule:nonzero;stroke:none"
         d="m 12766.2,15192.8 c -30.5,19.1 -175.6,95.4 -175.6,95.4 l -194.6,-154.1 -454.2,-1529 c 0,0 99.2,-557.3 244.2,-977.1 0,0 614.5,133.6 1164.1,122.1 549.7,-11.4 893.2,-83.9 893.2,-83.9 l 179.3,316.7 c 0,0 412.2,362.6 263.4,767.2 -148.9,404.6 -759.5,1251.9 -759.5,1251.9 l -179.4,117.4 -980.9,73.4" /><path
         id="path50"
         style="fill:#c37140;fill-opacity:1;fill-rule:nonzero;stroke:none"
         d="m 12773.8,16190 c 0,0 26.7,-397.9 -22.9,-585 -49.6,-187 -160.3,-316.8 -160.3,-316.8 0,0 110.7,-702.2 274.8,-954.1 164.1,-251.9 786.3,-328.3 1000,-263.4 213.7,64.9 164.1,309.2 76.3,542 -87.7,232.8 -194.6,506.7 -194.6,506.7 0,0 -90.3,68.3 -141.2,144.7 -50.9,76.3 -73.9,156.3 -73.9,156.3 l -563.5,799.1 -194.7,-29.5" /><path
         id="path52"
         style="fill:#a45634;fill-opacity:1;fill-rule:nonzero;stroke:none"
         d="m 13088.7,14729.1 c 0,0 187,-57.3 202.3,-63 15.3,-5.7 106.9,-72.5 106.9,-72.5 0,0 -49.7,93.5 -59.2,101.1 -9.5,7.7 -250,34.4 -250,34.4" /><path
         id="path54"
         style="fill:#a45634;fill-opacity:1;fill-rule:nonzero;stroke:none"
         d="m 13672.7,14765.4 -148.9,-68.7 -53.4,-47.8 c 0,0 22.9,61.1 26.7,70.7 3.8,9.5 175.6,45.8 175.6,45.8" /><path
         id="path56"
         style="fill:#a45634;fill-opacity:1;fill-rule:nonzero;stroke:none"
         d="m 15895.9,15215.7 c 0,0 20.3,-81.4 0,-134.8 -20.4,-53.5 -183.2,-335.9 -183.2,-335.9 0,0 -139.3,-38.7 -133.7,-37.2 5.5,1.6 253.3,362.9 253.3,362.9 l 63.6,145" /><path
         id="path58"
         style="fill:#b3613c;fill-opacity:1;fill-rule:nonzero;stroke:none"
         d="m 12396,15134.1 c 0,0 54.7,-246.6 24.1,-702.1 -30.5,-455.4 -236.6,-760.8 -478.3,-826.9 0,0 -71.3,259.5 -86.5,295.1 -15.3,35.7 -623.4,750.7 -623.4,750.7 0,0 -681.9,262 -681.9,269.7 0,7.6 -590.37,320.6 -580.19,323.1 10.18,2.6 979.59,318.1 992.39,320.6 12.7,2.6 529.2,-122.1 720,-178.1 190.9,-56 190.9,-56 190.9,-56 0,0 338.4,-102.1 522.9,-196.1" /><path
         id="path60"
         style="fill:#c1c6cb;fill-opacity:1;fill-rule:nonzero;stroke:none"
         d="m 12376.9,13231 c 0,0 234.1,-76.3 465.6,-66.1 231.6,10.2 461.2,73.8 461.2,73.8 0,0 -178.7,-173.1 -486.6,-168 -307.9,5.1 -440.2,160.3 -440.2,160.3" /><path
         id="path62"
         style="fill:#a45634;fill-opacity:1;fill-rule:nonzero;stroke:none"
         d="m 12292.9,7059.4 c 0,0 -30.5,-141.2 -125.9,-236.6 0,0 202.2,-30.6 125.9,236.6" /><path
         id="path64"
         style="fill:#a45634;fill-opacity:1;fill-rule:nonzero;stroke:none"
         d="m 14088.1,7049.1 c 0,0 -30.9,-190.9 41.4,-356.4 0,0 -266.9,60.8 -41.4,356.4" /><path
         id="path66"
         style="fill:#a45634;fill-opacity:1;fill-rule:nonzero;stroke:none"
         d="m 14411.2,6979.3 c 0,0 45.8,-32.7 30.5,-157.6 0,0 95.4,123.2 -30.5,157.6" /><path
         id="path68"
         style="fill:#ececec;fill-opacity:1;fill-rule:nonzero;stroke:none"
         d="m 11456.9,4025.1 c 11.8,-191 20.3,-327.2 19.2,-358.7 -3.8,-114.5 -15.2,-305.4 -15.2,-305.4 0,0 72.5,3.8 99.2,38.2 26.7,34.3 114.5,152.7 167.9,179.4 53.5,26.7 221.4,3.8 221.4,3.8 0,0 24.2,186 65.4,442.7 h -557.9" /><path
         id="path70"
         style="fill:#ececec;fill-opacity:1;fill-rule:nonzero;stroke:none"
         d="m 14129,4116.1 c 56.7,-295.6 88.6,-542.7 85,-564.2 -5.1,-30.6 76.3,-106.9 76.3,-106.9 0,0 127.3,122.1 183.2,203.5 56,81.5 198.5,173.1 198.5,173.1 0,0 6,128.9 14,324.9 l -557,-30.4" /><path
         id="path72"
         style="fill:#c37140;fill-opacity:1;fill-rule:nonzero;stroke:none"
         d="m 9936.73,15963.8 c 0,0 -173.02,0 -325.69,-63.6 -152.67,-63.6 -119.59,-244.3 -94.15,-353.7 25.45,-109.4 183.21,-290.1 381.67,-346 198.44,-56 961.84,-66.2 1081.44,-109.4 119.6,-43.3 109.4,-50.9 119.6,-43.3 10.1,7.6 213.7,320.6 213.7,320.6 0,0 -257,137.4 -468.2,310.4 -211.2,173 -325.7,223.9 -511.4,254.5 -185.8,30.5 -396.97,30.5 -396.97,30.5" /><path
         id="path74"
         style="fill:#454547;fill-opacity:1;fill-rule:nonzero;stroke:none"
         d="m 12583.2,14974.4 h -225.7 l -5.8,-282.3 c -32.6,-103.6 -54.3,-229 -59.8,-364.8 -6.6,-159.6 10.3,-307 43.7,-422.4 l -5,-246.2 h 198.8 c 146,-6 276.4,283.7 291.3,647 14.8,363.3 -91.5,662.7 -237.5,668.7" /><path
         id="path76"
         style="fill:#5e6061;fill-opacity:1;fill-rule:nonzero;stroke:none"
         d="m 12595,14305.7 c -14.9,-363.3 -145.3,-653 -291.3,-647 -146.1,6 -252.4,305.3 -237.5,668.6 14.8,363.4 145.3,653 291.3,647.1 146,-6 252.3,-305.4 237.5,-668.7" /><path
         id="path78"
         style="fill:#c37140;fill-opacity:1;fill-rule:nonzero;stroke:none"
         d="m 11102.1,15154.7 -26.8,-101.8 124.2,-610.7 c 0,0 457.3,-17.8 470,-17.8 12.7,0 445.3,104.3 445.3,104.3 0,0 -239.2,422.4 -356.2,577.6 -117.1,155.2 -445.3,262.1 -445.3,262.1 l -211.2,-213.7" /><path
         id="path80"
         style="fill:#a45634;fill-opacity:1;fill-rule:nonzero;stroke:none"
         d="m 11338.7,14912.3 c 0,0 3.9,-116.4 24.8,-188.9 21,-72.5 99.9,-138.7 99.9,-138.7 l -11.6,-103.9 h -75.7 l 14.2,88.7 c 0,0 -53.5,50.8 -66.8,136.7 -13.4,85.9 15.2,206.1 15.2,206.1" /><path
         id="path82"
         style="fill:#818283;fill-opacity:1;fill-rule:nonzero;stroke:none"
         d="m 12290.7,14448 -1074.8,50.3 c -1.7,0 -3.4,-0.2 -5,-0.3 l -100.8,-224.7 1169.9,-54.6 c 23.1,-1.1 42.6,16.7 43.7,39.7 l 6.8,145.9 c 1.1,23.1 -16.7,42.6 -39.8,43.7" /><g
         transform="scale(1.04298)"
         id="g84"><path
           id="path86"
           style="fill:#454547;fill-opacity:1;fill-rule:nonzero;stroke:none"
           d="m 16268,13623.8 c -32,369.8 -132.5,663.2 -224.6,655.2 l -229.2,-2.5 c 0,0 -63.4,-230.6 -57.8,-244.4 5.5,-13.8 173.8,-1094.9 173.8,-1094.9 l 229.1,2.6 c 92.1,8 140.7,314.2 108.7,684" /></g><g
         transform="scale(1.02831)"
         id="g88"><path
           id="path90"
           style="fill:#5e6061;fill-opacity:1;fill-rule:nonzero;stroke:none"
           d="m 16267.5,13815.6 c 32.5,-375.1 -16.8,-685.7 -110.1,-693.8 -93.3,-8.1 -195.2,289.4 -227.7,664.5 -32.5,375.1 16.8,685.7 110.1,693.8 93.3,8.1 195.2,-289.4 227.7,-664.5" /></g><path
         id="path92"
         style="fill:#a45634;fill-opacity:1;fill-rule:nonzero;stroke:none"
         d="m 12816.9,16016.2 c 0,0 104.7,-255.4 168.5,-350.2 63.9,-94.8 271.9,-199.6 341,-216 69,-16.4 205.6,-29.6 205.6,-29.6 l 24,313.6 -424.3,273.3 -314.8,8.9" /><g
         transform="scale(1.00058)"
         id="g94"><path
           id="path96"
           style="fill:#e9eef1;fill-opacity:1;fill-rule:nonzero;stroke:none"
           d="m 12774.2,16223.3 c -68.6,36.4 -249.7,76.7 -249.7,76.7 0,0 -6.1,-108.9 132,-258 38.6,-41.8 79.2,-68.6 117.7,-85.6 v 266.9" /></g><g
         transform="scale(1.09154)"
         id="g98"><path
           id="path100"
           style="fill:#34231f;fill-opacity:1;fill-rule:nonzero;stroke:none"
           d="m 12622.9,15491.1 c 14.4,-10.3 127.8,-135.3 127.8,-135.3 0,0 42.6,269.8 -37,519.2 -79.6,249.4 -302.7,425 -708.5,388 -405.9,-37 -608,-345.5 -688.3,-559.4 -80.3,-213.9 7.7,-597.2 23.2,-657 15.4,-59.8 239.5,-214.4 239.5,-214.4 l 748,248.1 295.3,410.8" /></g><g
         transform="scale(1.06469)"
         id="g102"><path
           id="path104"
           style="fill:#c37140;fill-opacity:1;fill-rule:nonzero;stroke:none"
           d="m 11962,15506.7 c 0,0 -78.5,51.5 -150.7,35.5 -72.1,-16.1 -45.2,-146 6.2,-289.9 51.5,-144 181.8,-131.5 181.8,-131.5 0,0 55.6,-114.8 95.7,-181.7 40.1,-66.8 350.6,-286.1 427,-302.6 76.6,-16.5 178,-14.3 242.8,5.2 64.9,19.5 269.7,277.7 323.2,485.5 53.6,207.8 -3.7,456.8 -11.7,548.5 -8.1,91.6 -2.1,263.4 -55.7,400 -53.7,136.6 -193.4,224.3 -425.4,219.3 -231.9,-5 -407.1,-121.1 -493.7,-307.9 -86.6,-186.7 -65.2,-452.2 -139.5,-480.4" /></g><path
         id="path106"
         style="fill:#c37140;fill-opacity:1;fill-rule:nonzero;stroke:none"
         d="m 11463.4,14584.7 c 0,0 -38.8,-342.2 -41.6,-391.8 -2.9,-49.7 74.4,-70.7 74.4,-70.7 0,0 5.7,-27.6 39.1,-41.9 33.4,-14.4 59.8,-10.5 59.8,-10.5 0,0 10.8,-25.8 46.1,-34.4 35.3,-8.6 102.7,6.3 102.7,6.3 0,0 145.7,-11.7 189,30.3 43.2,42 199.7,354.9 181.9,456.7 -17.8,101.8 -356.2,577.6 -356.2,577.6 l -295.2,-521.6" /><path
         id="path108"
         style="fill:#a45634;fill-opacity:1;fill-rule:nonzero;stroke:none"
         d="m 11642.2,14569.5 -178.8,-433.7 32.8,-13.6 z" /><path
         id="path110"
         style="fill:#a45634;fill-opacity:1;fill-rule:nonzero;stroke:none"
         d="m 11781.5,14492.5 c 0,0 -57.3,-196.6 -114.5,-274.8 -57.3,-78.3 -103.4,-146.1 -103.4,-146.1 l 31.5,-1.8 c 0,0 54.1,65.8 91,126.9 36.9,61 95.4,295.8 95.4,295.8" /><path
         id="path112"
         style="fill:#a45634;fill-opacity:1;fill-rule:nonzero;stroke:none"
         d="m 11958.3,14447.3 c 0,0 -53.4,-150.1 -113.2,-240.5 -59.8,-90.3 -113.9,-167.6 -113.9,-167.6 l 50.3,1 c 0,0 63.6,44.5 113.2,167.9 49.6,123.4 63.6,239.2 63.6,239.2" /><path
         id="path114"
         style="fill:#454547;fill-opacity:1;fill-rule:nonzero;stroke:none"
         d="m 10980.1,15126.4 -244.8,4.3 -11.7,-306 c -37.4,-111.8 -63.4,-247.4 -72,-394.5 -10.2,-173.1 5.3,-333.2 39.2,-459.2 l -10.2,-266.9 215.6,-3.8 c 158.3,-9.3 305.4,302.4 328.6,696.1 23.1,393.9 -86.4,720.6 -244.7,730" /><path
         id="path116"
         style="fill:#5e6061;fill-opacity:1;fill-rule:nonzero;stroke:none"
         d="m 10979.9,14400.8 c -23.1,-393.8 -170.2,-705.5 -328.5,-696.2 -158.3,9.4 -267.8,336.1 -244.7,730 23.2,393.8 170.3,705.4 328.6,696.1 158.3,-9.3 267.8,-336.1 244.6,-729.9" /><path
         id="path118"
         style="fill:#818283;fill-opacity:1;fill-rule:nonzero;stroke:none"
         d="m 10800.4,14417.9 c -4.6,-89.1 -53.5,-159 -109.3,-156.1 -55.8,2.9 -97.3,77.4 -92.7,166.6 4.6,89.1 53.6,159 109.4,156.1 55.8,-2.9 97.3,-77.5 92.6,-166.6" /><path
         id="path120"
         style="fill:#454547;fill-opacity:1;fill-rule:nonzero;stroke:none"
         d="m 15409.4,14043.5 c -29,386.1 -130.4,693.2 -226.4,686 h -239.2 c 0,0 -68.8,-239.7 -63.2,-254.2 5.7,-14.5 168.5,-1143.9 168.5,-1143.9 h 239.1 c 96,7.2 150.3,326.1 121.2,712.1" /><path
         id="path122"
         style="fill:#5e6061;fill-opacity:1;fill-rule:nonzero;stroke:none"
         d="m 15170.3,14043.5 c 29.1,-386 -25.2,-704.9 -121.2,-712.1 -96.1,-7.2 -197.4,299.9 -226.5,686 -29.1,386 25.2,704.8 121.2,712.1 96.1,7.2 197.5,-299.9 226.5,-686" /><path
         id="path124"
         style="fill:#818283;fill-opacity:1;fill-rule:nonzero;stroke:none"
         d="m 15061.7,14024.1 c 7.5,-96.2 -19.7,-176.8 -60.7,-180 -41,-3.1 -80.3,72.3 -87.7,168.5 -7.4,96.2 19.8,176.7 60.7,179.9 41,3.2 80.3,-72.2 87.7,-168.4" /><g
         transform="scale(1.02003)"
         id="g126"><path
           id="path128"
           style="fill:#818283;fill-opacity:1;fill-rule:nonzero;stroke:none"
           d="m 16281.4,13948.9 c -2.6,25.3 -25.1,43.9 -50.5,41.3 l -278.2,-27.8 v -255.1 l 303.4,30.3 c 25.4,2.5 43.9,25.2 41.4,50.6 l -16.1,160.7" /></g><g
         transform="scale(1.05646)"
         id="g130"><path
           id="path132"
           style="fill:#34231f;fill-opacity:1;fill-rule:nonzero;stroke:none"
           d="m 12055.2,15627.6 26.4,-106.2 c 0,0 8.1,78.4 50.3,126.5 42.4,48.1 42.4,115.8 38.8,203.1 -3.5,87.3 55.2,114 58.7,245.9 3.6,131.8 90.3,185.3 90.3,185.3 0,0 -186.4,17.8 -197.1,0 -10.7,-17.8 -129,-171.1 -134.9,-240.6 -5.9,-69.4 67.5,-414 67.5,-414" /></g><path
         id="path134"
         style="fill:#34231f;fill-opacity:1;fill-rule:nonzero;stroke:none"
         d="m 4692.49,16195.9 c 0,0 -134.94,-180 -180.12,-394.6 -45.17,-214.6 59.83,-256 -54.79,-545.9 -114.62,-289.9 -105.44,-342.7 -14.03,-331.4 91.41,11.4 569.53,-248.4 652.35,237.3 82.83,485.6 169.41,615.9 67.77,833.1 -101.65,217.2 -471.18,201.5 -471.18,201.5" /><path
         id="path136"
         style="fill:#252323;fill-opacity:1;fill-rule:nonzero;stroke:none"
         d="m 3939.02,3795.8 137.41,-213.4 65.39,-221.4 c 0,0 362.08,-918.5 341.72,-994.9 -20.35,-76.3 -391.85,-152.6 -727.72,-111.9 -335.87,40.7 -483.45,193.4 -503.8,269.7 -20.36,76.3 127.22,793.9 193.38,921.1 66.15,127.2 310.42,244.3 335.87,269.7 25.44,25.4 157.75,81.1 157.75,81.1" /><path
         id="path138"
         style="fill:#252323;fill-opacity:1;fill-rule:nonzero;stroke:none"
         d="m 6422.43,3795.8 c 0,0 -122.13,-188 -137.4,-218.5 -15.27,-30.5 -127.22,-625.9 -111.96,-681.9 15.27,-56 422.39,-122.2 452.92,-152.7 30.53,-30.5 290.07,-213.7 702.27,-229 412.21,-15.3 391.85,122.1 335.87,315.5 -55.97,193.4 -264.62,346.1 -330.78,427.5 -66.15,81.4 -284.98,442.7 -320.6,488.5 -35.62,45.8 -213.74,76.4 -213.74,76.4 l -376.58,-25.8" /><path
         id="path140"
         style="fill:#c37140;fill-opacity:1;fill-rule:nonzero;stroke:none"
         d="m 4007.73,9544.1 -206.11,-211.2 c 0,0 87.79,-2040.7 15.27,-2353.6 -72.52,-313 -232.82,-717.6 -282.44,-1209.9 -49.61,-492.4 72.52,-1988.5 68.7,-2103 -3.81,-114.5 -15.26,-305.4 -15.26,-305.4 0,0 72.51,3.8 99.23,38.2 26.72,34.3 114.5,152.7 167.94,179.4 53.43,26.7 221.37,3.8 221.37,3.8 0,0 132.31,1017.8 305.33,1577.6 173.03,559.7 86.51,1058.5 127.23,1216.2 40.71,157.8 162.84,615.8 295.16,1129.8 132.31,514 386.76,1638.6 386.76,1638.6 0,0 -488.54,412.2 -524.17,437.7 -35.62,25.4 -659.01,-38.2 -659.01,-38.2" /><path
         id="path142"
         style="fill:#c37140;fill-opacity:1;fill-rule:nonzero;stroke:none"
         d="m 5353.75,9144.6 c 0,0 447.83,-1587.7 442.74,-1877.8 -5.09,-290.1 15.27,-463.1 71.25,-692.1 55.97,-229 55.97,-442.7 0,-743 -55.98,-300.2 198.46,-900.7 305.33,-1333.3 106.87,-432.6 173.03,-916 167.94,-946.5 -5.09,-30.6 76.33,-106.9 76.33,-106.9 0,0 127.23,122.1 183.2,203.5 55.98,81.5 198.47,173.1 198.47,173.1 0,0 40.72,870.2 50.89,1526.7 10.18,656.4 -122.13,916 -122.13,1185.7 0,269.7 25.44,610.7 61.07,1277.3 35.62,666.7 0,1531.8 0,1531.8 0,0 -625.95,271.5 -809.15,245.2 -183.2,-26.4 -625.94,-443.7 -625.94,-443.7" /><path
         id="path144"
         style="fill:#252323;fill-opacity:1;fill-rule:nonzero;stroke:none"
         d="m 4626.03,11622.9 -427.47,-208.6 c 0,0 -193.38,-452.9 -315.51,-961.8 -122.14,-508.9 -81.43,-1119.6 -81.43,-1119.6 0,0 839.68,-15.3 1389.29,-188.3 l 71.24,208.7 91.6,-208.7 c 0,0 386.76,81.4 742.99,137.4 356.23,56 692.1,61.1 692.1,61.1 0,0 -137.41,788.8 -178.12,966.9 -40.71,178.1 -143.08,872.4 -173.02,1027.9 -29.94,155.6 -753.17,417.3 -885.48,432.6 -132.31,15.3 -926.19,-147.6 -926.19,-147.6" /><path
         id="path146"
         style="fill:#c37140;fill-opacity:1;fill-rule:nonzero;stroke:none"
         d="m 4313.06,12628 c 0,0 124.68,-348.6 94.15,-536.9 -30.54,-188.3 -208.65,-676.8 -208.65,-676.8 0,0 671.74,-193.4 1292.59,-168 620.86,25.5 946.55,91.6 946.55,91.6 0,0 -101.78,488.6 -101.78,743 0,254.5 34.35,585.3 34.35,585.3 0,0 -472,335.8 -527.98,366.4 -55.98,30.5 -1190.81,45.8 -1211.17,0 -20.36,-45.8 -318.06,-404.6 -318.06,-404.6" /><path
         id="path148"
         style="fill:#c37140;fill-opacity:1;fill-rule:nonzero;stroke:none"
         d="m 6053.48,15002 316.64,-179.4 c 0,0 294.12,-84 475.3,-335.9 181.18,-251.9 230.79,-713.7 230.79,-713.7 0,0 156.49,-374 221.37,-683.2 64.88,-309.1 106.87,-660.3 106.87,-660.3 0,0 133.58,-290 129.77,-774.8 -3.82,-484.7 -30.54,-1087.7 -30.54,-1087.7 l -412.2,34.3 c 0,0 -87.79,881.7 -133.59,1248.1 -45.8,366.4 -53.43,526.7 -53.43,526.7 0,0 -332.05,816.8 -400.75,1053.4 -68.71,236.6 -450.23,1316.8 -450.23,1316.8 v 255.7" /><path
         id="path150"
         style="fill:#e9eef1;fill-opacity:1;fill-rule:nonzero;stroke:none"
         d="m 4893.2,15192.8 c -30.53,19.1 -175.57,95.4 -175.57,95.4 l -194.65,-154.1 -454.19,-1529 c 0,0 99.24,-557.3 244.27,-977.1 0,0 614.49,133.6 1164.1,122.1 549.61,-11.4 893.11,-83.9 893.11,-83.9 l 179.38,316.7 c 0,0 412.21,362.6 263.36,767.2 -148.85,404.6 -759.53,1251.9 -759.53,1251.9 l -179.38,117.4 -980.9,73.4" /><path
         id="path152"
         style="fill:#c37140;fill-opacity:1;fill-rule:nonzero;stroke:none"
         d="m 4900.84,16190 c 0,0 26.71,-397.9 -22.9,-585 -49.62,-187 -160.31,-316.8 -160.31,-316.8 0,0 110.69,-702.2 274.81,-954.1 164.11,-251.9 786.24,-328.3 999.97,-263.4 213.74,64.9 164.12,309.2 76.34,542 -87.78,232.8 -194.65,506.7 -194.65,506.7 0,0 -90.33,68.3 -141.22,144.7 -50.89,76.3 -73.91,156.3 -73.91,156.3 l -563.48,799.1 -194.65,-29.5" /><path
         id="path154"
         style="fill:#a45634;fill-opacity:1;fill-rule:nonzero;stroke:none"
         d="m 5215.71,14729.1 c 0,0 187.02,-57.3 202.29,-63 15.27,-5.7 106.87,-72.5 106.87,-72.5 0,0 -49.62,93.5 -59.16,101.1 -9.54,7.7 -250,34.4 -250,34.4" /><path
         id="path156"
         style="fill:#a45634;fill-opacity:1;fill-rule:nonzero;stroke:none"
         d="m 5799.67,14765.4 -148.85,-68.7 -53.44,-47.8 c 0,0 22.91,61.1 26.72,70.7 3.82,9.5 175.57,45.8 175.57,45.8" /><path
         id="path158"
         style="fill:#c1c6cb;fill-opacity:1;fill-rule:nonzero;stroke:none"
         d="m 4503.9,13231 c 0,0 234.09,-76.3 465.64,-66.1 231.54,10.2 461.22,73.8 461.22,73.8 0,0 -178.79,-173.1 -486.67,-168 -307.88,5.1 -440.19,160.3 -440.19,160.3" /><path
         id="path160"
         style="fill:#a45634;fill-opacity:1;fill-rule:nonzero;stroke:none"
         d="m 4419.93,7059.4 c 0,0 -30.53,-141.2 -125.95,-236.6 0,0 202.28,-30.6 125.95,236.6" /><path
         id="path162"
         style="fill:#a45634;fill-opacity:1;fill-rule:nonzero;stroke:none"
         d="m 6215.12,7049.1 c 0,0 -30.89,-190.9 41.42,-356.4 0,0 -266.97,60.8 -41.42,356.4" /><path
         id="path164"
         style="fill:#a45634;fill-opacity:1;fill-rule:nonzero;stroke:none"
         d="m 6538.2,6979.3 c 0,0 45.81,-32.7 30.54,-157.6 0,0 95.42,123.2 -30.54,157.6" /><path
         id="path166"
         style="fill:#ececec;fill-opacity:1;fill-rule:nonzero;stroke:none"
         d="m 3583.89,4025.1 c 11.82,-191 20.31,-327.2 19.26,-358.7 -3.81,-114.5 -15.26,-305.4 -15.26,-305.4 0,0 72.52,3.8 99.23,38.2 26.72,34.3 114.5,152.7 167.94,179.4 53.43,26.7 221.37,3.8 221.37,3.8 0,0 24.19,186 65.39,442.7 h -557.93" /><path
         id="path168"
         style="fill:#ececec;fill-opacity:1;fill-rule:nonzero;stroke:none"
         d="m 6256.06,4116.1 c 56.62,-295.6 88.54,-542.7 84.95,-564.2 -5.09,-30.6 76.33,-106.9 76.33,-106.9 0,0 127.23,122.1 183.2,203.5 55.98,81.5 198.47,173.1 198.47,173.1 0,0 6.04,128.9 14.04,324.9 l -556.99,-30.4" /><path
         id="path170"
         style="fill:#454547;fill-opacity:1;fill-rule:nonzero;stroke:none"
         d="m 5252.03,9832.7 c -6.12,393.4 -96.52,711 -201.9,709.4 h -232.42 l 22.19,-1424.8 h 232.42 c 105.38,1.7 185.84,322 179.71,715.4" /><path
         id="path172"
         style="fill:#5e6061;fill-opacity:1;fill-rule:nonzero;stroke:none"
         d="m 5019.62,9832.7 c 6.13,-393.4 -74.34,-713.7 -179.72,-715.4 -105.38,-1.6 -195.78,316 -201.91,709.4 -6.12,393.5 74.34,713.7 179.72,715.4 105.38,1.6 195.78,-316 201.91,-709.4" /><path
         id="path174"
         style="fill:#818283;fill-opacity:1;fill-rule:nonzero;stroke:none"
         d="m 4877.43,9888.3 c -1.14,27.5 -24.38,48.9 -51.9,47.7 l -1339.27,-55.8 c -27.52,-1.1 -48.9,-24.3 -47.75,-51.9 l 6.55,-157.3 c 1.15,-27.5 24.39,-48.9 51.91,-47.8 l 1339.26,55.8 c 27.52,1.2 48.9,24.4 47.76,52 l -6.56,157.3" /><path
         id="path176"
         style="fill:#454547;fill-opacity:1;fill-rule:nonzero;stroke:none"
         d="m 8384.8,9930.1 c -24.69,360.9 -175.94,644.6 -337.83,633.5 l -185.87,3.1 11.08,-162.1 c -57.87,-124.4 -87.61,-309.9 -73.61,-514.7 14.01,-204.7 68.74,-384.4 143.02,-499.8 l 8.93,-130.6 165.55,-2.7 c 6.76,-0.6 13.53,-0.8 20.33,-0.4 161.89,11.1 273.1,312.7 248.4,673.7" /><path
         id="path178"
         style="fill:#5e6061;fill-opacity:1;fill-rule:nonzero;stroke:none"
         d="m 8198.92,9933.1 c 24.7,-360.9 -86.51,-662.5 -248.4,-673.6 -161.88,-11.1 -313.13,272.6 -337.83,633.5 -24.69,361 86.52,662.6 248.4,673.7 161.89,11 313.14,-272.6 337.83,-633.6" /><path
         id="path180"
         style="fill:#818283;fill-opacity:1;fill-rule:nonzero;stroke:none"
         d="m 7905.11,9978.3 c -1.35,27.1 -24.36,47.9 -51.38,46.5 L 6538.5,9959 c -27.02,-1.4 -47.83,-24.4 -46.48,-51.4 l 7.74,-154.5 c 1.35,-27 24.36,-47.8 51.38,-46.5 l 1315.23,65.9 c 27.02,1.3 47.83,24.3 46.48,51.3 l -7.74,154.5" /><path
         id="path182"
         style="fill:#c37140;fill-opacity:1;fill-rule:nonzero;stroke:none"
         d="m 4522.98,15134.1 c 0,0 45.95,-473.1 0,-849.7 -45.95,-376.5 -346.2,-712.4 -346.2,-712.4 0,0 -96.69,-656.5 -284.98,-1094.1 0,0 142.49,-361.3 208.65,-860.1 66.16,-498.7 239.18,-921.1 239.18,-921.1 l -415.12,-82.9 c 0,0 -373.67,668.2 -475.45,993.9 -101.77,325.7 -173.02,549.6 -198.47,676.8 -25.44,127.2 40.72,290.1 40.72,290.1 0,0 20.35,473.2 81.42,849.8 61.07,376.6 81.42,437.7 81.42,437.7 0,0 -10.17,483.4 117.05,697.2 127.22,213.7 544.52,366.4 544.52,366.4 l 407.26,208.4" /><path
         id="path184"
         style="fill:#a45634;fill-opacity:1;fill-rule:nonzero;stroke:none"
         d="m 4288.74,14111.4 -90.18,-153.3 -21.78,-386.1 102.95,134.1 -20.25,252 29.26,153.3" /><path
         id="path186"
         style="fill:#c37140;fill-opacity:1;fill-rule:nonzero;stroke:none"
         d="m 3924.51,10613.8 c 0,0 27.62,-172.8 0,-294.9 -27.62,-122.1 -32.71,-543.3 -35.25,-571.3 -2.55,-27.9 -59.3,-110.5 -59.3,-110.5 0,0 -17.04,-79.6 7.77,-106.4 24.81,-26.7 82.06,-26.7 82.06,-26.7 0,0 64.89,-40.1 101.14,-42 36.26,-1.9 83.97,13.4 83.97,13.4 0,0 70.61,-9.9 106.87,-13.5 36.26,-3.7 74.43,24.9 74.43,24.9 0,0 103.05,-11.4 124.04,0 20.99,11.5 103.27,330.6 105.07,436.3 1.8,105.7 -175.68,773.6 -175.68,773.6 0,0 -150.76,80.2 -194.65,78.3 -43.89,-1.9 -220.47,-161.2 -220.47,-161.2" /><path
         id="path188"
         style="fill:#a45634;fill-opacity:1;fill-rule:nonzero;stroke:none"
         d="m 4007.58,9734.9 c -45.11,-93.6 -104.05,-171.8 -144.86,-220.3 26.23,-10.5 57.07,-10.6 57.07,-10.6 45.8,76.4 87.79,230.9 87.79,230.9" /><path
         id="path190"
         style="fill:#a45634;fill-opacity:1;fill-rule:nonzero;stroke:none"
         d="m 4031.26,9462 c 34.37,0.9 73.64,13.4 73.64,13.4 l 64.89,248.1 c 0,0 -85.38,-164 -138.53,-261.5" /><path
         id="path192"
         style="fill:#a45634;fill-opacity:1;fill-rule:nonzero;stroke:none"
         d="m 4212.6,9461.8 c 36.01,-3.1 73.59,25 73.59,25 l 51.53,260.8 -125.12,-285.8" /><path
         id="path194"
         style="fill:#a45634;fill-opacity:1;fill-rule:nonzero;stroke:none"
         d="m 3477.05,12628 c 0,0 -19.08,-133.6 53.44,-232.8 0,0 -156.49,26.7 -53.44,232.8" /><path
         id="path196"
         style="fill:#a45634;fill-opacity:1;fill-rule:nonzero;stroke:none"
         d="m 7141.1,12536.4 c 0,0 19.08,-152.7 -61.07,-255.7 0,0 179.38,15.2 61.07,255.7" /><path
         id="path198"
         style="fill:#c37140;fill-opacity:1;fill-rule:nonzero;stroke:none"
         d="m 7091.48,10601.3 c 0,0 -240.45,-520.3 -260.81,-555.9 -20.36,-35.7 -33.19,-326.5 -18.08,-325.7 15.11,0.8 99.5,-13.2 99.5,-13.2 0,0 53.44,-98.4 76.34,-116.4 22.9,-18 91.6,0 91.6,0 0,0 53.98,-35.8 122.41,-25.7 68.42,10.2 93.87,38.2 93.87,38.2 0,0 99.23,10.2 114.5,20.4 15.27,10.1 25.45,22.9 25.45,22.9 0,0 89.21,20.3 98.04,43.2 8.82,22.9 52.69,267.6 47.3,322.1 -5.4,54.5 -77.92,555.8 -77.92,555.8 l -273.53,119.6 -138.67,-85.3" /><path
         id="path200"
         style="fill:#a45634;fill-opacity:1;fill-rule:nonzero;stroke:none"
         d="m 6919.73,9999.6 -7.64,-293.1 -45.57,7.1 z" /><path
         id="path202"
         style="fill:#a45634;fill-opacity:1;fill-rule:nonzero;stroke:none"
         d="m 7080.03,9590.1 40.71,306.3 -81.73,-313.4 z" /><path
         id="path204"
         style="fill:#a45634;fill-opacity:1;fill-rule:nonzero;stroke:none"
         d="m 7296.31,9602.6 27.99,381.7 -80.45,-410.3 z" /><path
         id="path206"
         style="fill:#a45634;fill-opacity:1;fill-rule:nonzero;stroke:none"
         d="m 7436.26,9645.9 25.44,295.1 -50.89,-318 z" /><path
         id="path208"
         style="fill:#454547;fill-opacity:1;fill-rule:nonzero;stroke:none"
         d="m 3636.91,9782.6 c -6.12,393.4 -96.52,711.1 -201.9,709.4 h -232.42 l 22.19,-1424.7 h 232.41 c 105.39,1.6 185.85,321.9 179.72,715.3" /><path
         id="path210"
         style="fill:#5e6061;fill-opacity:1;fill-rule:nonzero;stroke:none"
         d="m 3404.5,9782.6 c 6.12,-393.4 -74.34,-713.7 -179.72,-715.3 -105.38,-1.7 -195.78,315.9 -201.91,709.4 -6.13,393.4 74.34,713.7 179.72,715.3 105.38,1.7 195.78,-316 201.91,-709.4" /><path
         id="path212"
         style="fill:#818283;fill-opacity:1;fill-rule:nonzero;stroke:none"
         d="m 3286.9,9734.9 c 0,-102.6 -32.47,-185.7 -72.52,-185.7 -40.05,0 -72.52,83.1 -72.52,185.7 0,102.6 32.47,185.8 72.52,185.8 40.05,0 72.52,-83.2 72.52,-185.8" /><path
         id="path214"
         style="fill:#454547;fill-opacity:1;fill-rule:nonzero;stroke:none"
         d="m 6475.32,10523.3 -243.47,-26.1 26.37,-305.2 c -23.2,-115.5 -32.12,-253.3 -22.43,-400.3 11.39,-173 46.63,-330 95.97,-450.7 l 22.99,-266.2 214.44,23 c 158.21,10.4 265.46,338 239.54,731.6 -25.92,393.6 -175.19,704.3 -333.41,693.9" /><path
         id="path216"
         style="fill:#5e6061;fill-opacity:1;fill-rule:nonzero;stroke:none"
         d="m 6565.26,9803.3 c 25.92,-393.6 -81.33,-721.1 -239.54,-731.6 -158.21,-10.4 -307.48,300.3 -333.4,693.9 -25.93,393.6 81.32,721.2 239.53,731.6 158.22,10.4 307.49,-300.2 333.41,-693.9" /><path
         id="path218"
         style="fill:#818283;fill-opacity:1;fill-rule:nonzero;stroke:none"
         d="m 6385.04,9798 c 6.48,-89 -33.42,-164.5 -89.13,-168.5 -55.71,-4.1 -106.13,64.8 -112.62,153.8 -6.49,89 33.41,164.4 89.12,168.5 55.71,4 106.14,-64.8 112.63,-153.8" /><path
         id="path220"
         style="fill:#a45634;fill-opacity:1;fill-rule:nonzero;stroke:none"
         d="m 4943.96,16022.2 c 0,0 104.66,-255.4 168.5,-350.3 63.85,-94.8 271.88,-199.6 340.92,-215.9 69.05,-16.4 205.59,-29.6 205.59,-29.6 l 24.03,313.5 -424.26,273.3 -314.78,9" /><g
         transform="scale(1.00094)"
         id="g222"><path
           id="path224"
           style="fill:#e9eef1;fill-opacity:1;fill-rule:nonzero;stroke:none"
           d="m 4903.98,16223.3 c -68.51,36.4 -249.55,76.7 -249.55,76.7 0,0 -6.13,-108.8 131.85,-258 38.62,-41.7 79.23,-68.5 117.7,-85.5 v 266.8" /></g><g
         transform="scale(1.09191)"
         id="g226"><path
           id="path228"
           style="fill:#34231f;fill-opacity:1;fill-rule:nonzero;stroke:none"
           d="m 5408.42,15491.4 c 14.36,-10.3 127.8,-135.3 127.8,-135.3 0,0 42.55,269.8 -37.04,519.1 -79.59,249.3 -302.54,424.8 -708.33,387.8 -405.77,-37 -607.74,-345.4 -688,-559.2 -80.27,-213.8 7.7,-597 23.12,-656.8 15.43,-59.8 239.5,-214.3 239.5,-214.3 l 747.72,248 295.23,410.7" /></g><g
         transform="scale(1.06506)"
         id="g230"><path
           id="path232"
           style="fill:#c37140;fill-opacity:1;fill-rule:nonzero;stroke:none"
           d="m 4565.75,15507 c 0,0 -78.42,51.5 -150.57,35.4 -72.15,-16 -45.2,-145.9 6.22,-289.8 51.41,-143.9 181.63,-131.4 181.63,-131.4 0,0 55.62,-114.8 95.71,-181.6 40.09,-66.8 350.46,-286.1 426.94,-302.5 76.46,-16.5 177.9,-14.3 242.73,5.2 64.82,19.5 269.5,277.6 323.04,485.3 53.54,207.8 -3.75,456.6 -11.75,548.3 -8.01,91.6 -2.03,263.3 -55.7,399.9 -53.67,136.6 -193.29,224.2 -425.15,219.2 -231.86,-4.9 -406.98,-121.1 -493.58,-307.8 -86.61,-186.7 -65.21,-452 -139.52,-480.2" /></g><g
         transform="scale(1.05682)"
         id="g234"><path
           id="path236"
           style="fill:#34231f;fill-opacity:1;fill-rule:nonzero;stroke:none"
           d="m 4601.32,15627.8 26.44,-106.2 c 0,0 8.12,78.4 50.37,126.5 42.25,48.1 42.25,115.8 38.68,203.1 -3.55,87.2 55.23,113.9 58.78,245.8 3.57,131.8 90.21,185.2 90.21,185.2 0,0 -186.39,17.8 -197.07,0 -10.69,-17.8 -128.99,-171 -134.85,-240.5 -5.87,-69.4 67.44,-413.9 67.44,-413.9" /></g></g></g></svg>