<?xml version="1.0" encoding="UTF-8" standalone="no"?>
<svg
   xmlns:dc="http://purl.org/dc/elements/1.1/"
   xmlns:cc="http://creativecommons.org/ns#"
   xmlns:rdf="http://www.w3.org/1999/02/22-rdf-syntax-ns#"
   xmlns:svg="http://www.w3.org/2000/svg"
   xmlns="http://www.w3.org/2000/svg"
   viewBox="0 0 2666.6667 2666.6667"
   height="2666.6667"
   width="2666.6667"
   xml:space="preserve"
   id="svg2"
   version="1.1"><metadata
     id="metadata8"><rdf:RDF><cc:Work
         rdf:about=""><dc:format>image/svg+xml</dc:format><dc:type
           rdf:resource="http://purl.org/dc/dcmitype/StillImage" /></cc:Work></rdf:RDF></metadata><defs
     id="defs6" /><g
     transform="matrix(1.3333333,0,0,-1.3333333,0,2666.6667)"
     id="g10"><g
       transform="scale(0.1)"
       id="g12"><g
         transform="scale(1.22699)"
         id="g14"><path
           id="path16"
           style="fill:#ffffff;fill-opacity:1;fill-rule:nonzero;stroke:none"
           d="M 16300,0 H 0 V 16300 H 16300 V 0" /></g><path
         id="path18"
         style="fill:#ecaf86;fill-opacity:1;fill-rule:nonzero;stroke:none"
         d="m 2004.08,9948.8 c 0,0 415.89,-459.4 493.27,-614.2 77.37,-154.7 -217.62,-681.9 -217.62,-1112.3 0,-430.4 111.23,-1078.4 145.08,-1378.2 33.85,-299.8 33.85,-299.8 33.85,-299.8 l 273.23,-7.3 c 0,0 263.56,2589.7 234.55,2783.1 -29.02,193.4 -680.22,1015.5 -714.9,1025.2 -34.67,9.7 -208.77,23.4 -218.44,-46.3 -9.68,-69.7 -29.02,-350.2 -29.02,-350.2" /><path
         id="path20"
         style="fill:#3067ac;fill-opacity:1;fill-rule:nonzero;stroke:none"
         d="m 2571.55,6440.9 c 0,0 -190.94,-124 -214.39,-191 -23.45,-67 -190.94,-690.1 -90.45,-777.2 100.5,-87.1 576.19,-43.5 730.28,-97.1 154.1,-53.6 713.53,-164.2 1048.52,50.2 334.99,214.4 180.9,409.2 -46.9,444.1 -227.79,35 -566.13,112 -740.32,286.2 -174.2,174.2 -107.2,328.3 -150.75,358.5 -43.55,30.1 -170.85,10 -170.85,10 0,0 -235.57,33.5 -258.48,26.8 -22.91,-6.7 -106.66,-110.5 -106.66,-110.5" /><path
         id="path22"
         style="fill:#e1e1e1;fill-opacity:1;fill-rule:nonzero;stroke:none"
         d="m 2439.46,6680.2 c -15.7,-290.8 -22.06,-485.7 -22.06,-485.7 0,0 117.31,-92 237.9,-65.2 120.6,26.8 154.09,321.6 180.9,341.7 26.79,20.1 210.44,59.4 210.44,59.4 0,0 4.72,58.6 6.62,149.8 -190.94,-29.3 -487.34,12.2 -613.8,0" /><path
         id="path24"
         style="fill:#fbc398;fill-opacity:1;fill-rule:nonzero;stroke:none"
         d="m 2162.45,10028.2 c 0,0 310.72,-324.5 394.54,-395.4 83.83,-70.9 248.24,-277.2 264.37,-473.9 16.12,-196.7 -241.8,-634.3 -227.29,-1026 14.5,-391.7 64.36,-1520.4 64.36,-1520.4 l 616.83,-65.9 189.28,2264.7 c 0,0 135.4,213.8 135.4,571.7 0,357.8 -275.64,1242.8 -275.64,1242.8 0,0 -502.94,-33.9 -565.81,-62.9 -62.87,-29 -596.04,-534.7 -596.04,-534.7" /><path
         id="path26"
         style="fill:#252323;fill-opacity:1;fill-rule:nonzero;stroke:none"
         d="m 2932.58,11568.8 391.72,-943 c 0,0 -377.21,-179.7 -619.01,-326.8 -241.79,-147.1 -570.64,-282.5 -570.64,-282.5 l -178.93,-106.4 c 0,0 -449.74,725.4 -623.84,1146.1 -174.09,420.7 -232.12,964.8 0,1327.5 232.13,362.7 943.01,506.3 943.01,506.3 l 623.84,-564.4 33.85,-756.8" /><path
         id="path28"
         style="fill:#8e908d;fill-opacity:1;fill-rule:nonzero;stroke:none"
         d="M 8571.29,5664.1 H 6656.26 v 435.3 h 1915.03 v -435.3" /><path
         id="path30"
         style="fill:#8e908d;fill-opacity:1;fill-rule:nonzero;stroke:none"
         d="m 7809.63,5949.4 h -442.49 v 2596.9 h 442.49 V 5949.4" /><path
         id="path32"
         style="fill:#252323;fill-opacity:1;fill-rule:nonzero;stroke:none"
         d="M 9262.84,8504.4 H 5984.06 v 613.8 h 3278.78 v -613.8" /><path
         id="path34"
         style="fill:#ecaf86;fill-opacity:1;fill-rule:nonzero;stroke:none"
         d="m 5328.79,12071.8 c 0,0 162.01,-549.7 232.93,-665.8 70.93,-116.1 222.46,-274 245.03,-374 22.57,-99.9 66.09,-420.7 254.69,-778.6 188.6,-357.8 619,-981.7 773.75,-1117.1 0,0 183.77,48.4 232.12,169.3 0,0 -270.81,444.9 -338.51,696.4 -67.7,251.4 -324.01,914 -324.01,914 0,0 -85.43,435.2 -169.26,673.8 -83.82,238.5 -170.87,403 -170.87,412.6 0,9.7 45.14,409.5 22.57,573.9 -22.57,164.4 -154.75,70.9 -309.5,0 -154.75,-70.9 -464.25,-280.5 -470.7,-354.6 -6.44,-74.2 21.76,-149.9 21.76,-149.9" /><path
         id="path36"
         style="fill:#df9866;fill-opacity:1;fill-rule:nonzero;stroke:none"
         d="m 5825.63,12142.2 c 0,0 -131.72,-268.7 -136.56,-302.6 -4.84,-33.8 136.56,-517.4 136.56,-517.4 0,0 -276.8,425.5 -257.46,599.6 19.34,174.1 162.77,299.9 162.77,299.9 l 94.69,-79.5" /><path
         id="path38"
         style="fill:#fbc398;fill-opacity:1;fill-rule:nonzero;stroke:none"
         d="m 4987.86,13362.7 49.12,176 c 0,0 270.05,50.1 478,0 207.94,-50 353.4,-248.3 353.4,-248.3 0,0 -331.68,-96.8 -440.26,-96.7 -108.58,0.1 -440.26,169 -440.26,169" /><path
         id="path40"
         style="fill:#3970c1;fill-opacity:1;fill-rule:nonzero;stroke:none"
         d="m 5573.01,13256.6 142.22,114 c 0,0 -475.9,185.8 -901.47,181 -425.56,-4.9 -744.73,-193.5 -1078.41,-256.4 -333.68,-62.8 -807.6,-207.9 -981.7,-256.3 -174.09,-48.3 -478.76,-148.9 -478.76,-148.9 0,0 222.46,-501.9 328.85,-689.1 106.39,-187.2 328.84,-632.1 328.84,-632.1 0,0 391.72,0 652.85,0 261.15,0 662.53,33.9 739.91,33.9 77.37,0 826.94,62.8 1146.12,217.6 319.17,154.7 469.08,541.6 638.34,720.5 169.26,179 -536.79,715.8 -536.79,715.8" /><path
         id="path42"
         style="fill:#fbc398;fill-opacity:1;fill-rule:nonzero;stroke:none"
         d="m 6054.75,13460.4 c 0,0 -90.03,-92.6 -235.11,-97.5 -145.07,-4.8 -251.47,41.2 -406.22,55.7 -154.75,14.5 -421.53,49.1 -363.49,-3.9 58.02,-52.9 271.61,-146.1 390.09,-256.9 81.3,-76.1 239.38,-476.7 224.87,-660.5 -14.5,-183.8 -33.85,-299.8 4.84,-324 38.68,-24.2 193.43,266 251.47,285.3 58.03,19.4 294.99,17.8 294.99,17.8 0,0 507.77,330.4 507.77,461 0,130.5 106.4,270.8 -67.7,444.9 -174.09,174.1 -125.73,232.1 -275.65,237 -149.91,4.8 -325.86,-158.9 -325.86,-158.9" /><path
         id="path44"
         style="fill:#df9866;fill-opacity:1;fill-rule:nonzero;stroke:none"
         d="m 6502.37,13157.8 c 0,0 -192.69,-159.2 -228.15,-197.9 -35.46,-38.6 -58.03,-483.5 -58.03,-483.5 l 174.74,-50.3 111.44,731.7" /><path
         id="path46"
         style="fill:#252323;fill-opacity:1;fill-rule:nonzero;stroke:none"
         d="m 7620.31,13203.2 c 187.31,30.9 176.52,198.1 176.52,198.1 0,0 0,0 -12.06,152.6 -12.06,152.5 -150.06,372.7 -355.15,534 -205.09,161.4 -330.55,221.6 -330.55,221.6 -102.82,6 -215.82,-45.7 -215.82,-45.7 0,0 -214.94,143.5 -493.94,-135.5 -278.98,-279 -336,-657.6 -334.56,-667.9 1.43,-10.3 157.57,-170.9 261.44,-170.9 103.86,0.1 209.1,28.5 209.1,28.5 0,0 267.57,-335.3 288.33,-328.4 20.77,6.9 696.62,200.3 696.62,200.3 l 87.62,5.2 c 6.29,3.9 13.74,6.6 22.45,8.1" /><path
         id="path48"
         style="fill:#fbc398;fill-opacity:1;fill-rule:nonzero;stroke:none"
         d="m 7620.31,13203.2 c 0,0 -113.31,-231.7 -145.92,-278.6 -32.61,-47 -179.17,-138.9 -196.67,-159.6 -17.5,-20.7 -117.96,-323.1 -133.4,-331.6 -15.43,-8.6 -103.65,61.7 -113.36,58.2 -9.71,-3.5 -93.36,-65.2 -98.99,-74 -5.63,-8.9 -23.63,-21.1 -23.63,-21.1 0,0 -26.46,-35.1 -48.33,-43 -21.87,-7.8 -51.7,-30.5 -64.35,-37.9 -12.65,-7.4 -127.81,-113.7 -157.73,-114.7 -29.93,-1 -260.99,227 -285.36,274.6 -24.38,47.6 -21.06,453.3 2.64,510.3 23.69,57 147.16,172 147.16,172 0,0 -73.12,119.7 -25.74,233.6 47.38,114 205.07,233.8 303.16,169.7 98.08,-64.1 22.05,-203.6 0.9,-240.3 -21.15,-36.8 -45.81,-87 -44.85,-93.8 0.96,-6.9 135.61,20.6 198.15,45.4 62.55,24.9 139.68,183.3 202.69,216.3 63.03,33 178.75,15.3 218.24,-6 39.48,-21.3 265.39,-279.5 265.39,-279.5" /><path
         id="path50"
         style="fill:#fbc398;fill-opacity:1;fill-rule:nonzero;stroke:none"
         d="m 4987.86,13362.7 c 0,0 -362.69,43.8 -616.59,-253.6 -253.88,-297.4 -116.86,-727.8 13.71,-887.4 0,0 -88.66,-302.3 -35.46,-652.9 53.19,-350.6 79.79,-592.4 79.79,-860.8 0,-268.4 -108.81,-633.5 -99.14,-947.8 9.67,-314.4 101.55,-783.5 135.41,-1059.1 33.85,-275.7 48.36,-512.6 48.36,-512.6 l 357.86,29 c 0,0 4.83,710.9 116.06,1180 111.23,469.1 72.54,1223.5 72.54,1223.5 0,0 82.21,227.3 130.57,522.3 48.36,294.9 43.52,536.7 43.52,536.7 0,0 309.5,266 353.02,570.7 43.53,304.6 38.7,865.1 -599.65,1112" /><path
         id="path52"
         style="fill:#df9866;fill-opacity:1;fill-rule:nonzero;stroke:none"
         d="m 4384.98,12221.7 c 0,0 67.7,222.4 135.41,386.8 67.7,164.5 103.16,251.5 103.16,251.5 0,0 -135.41,-109.6 -219.23,-232.1 -83.82,-122.5 -142.93,-152.3 -142.93,-152.3 0,0 36.54,-150.8 123.59,-253.9" /><path
         id="path54"
         style="fill:#ecaf86;fill-opacity:1;fill-rule:nonzero;stroke:none"
         d="m 6851.31,9278.2 -16.12,-141.9 c 0,0 45.14,-48.3 58.03,-48.3 12.9,0 586.77,0 586.77,0 0,0 186.98,-50.8 232.93,-38.7 45.94,12.1 0,70.1 0,70.1 l 522.28,-9.7 c 0,0 29.01,7 -77.38,53.1 -106.39,46.1 -234.54,87.2 -401.38,96.8 -166.84,9.7 -689.13,46 -689.13,46 l -216,-27.4" /><path
         id="path56"
         style="fill:#df9866;fill-opacity:1;fill-rule:nonzero;stroke:none"
         d="m 7367.14,9223.4 c 0,0 185.38,-11.3 238.58,-33.9 53.19,-22.5 107.2,-70.1 107.2,-70.1 l 63.69,-1.2 c 0,0 -72.56,60 -137.04,87.4 -64.48,27.4 -272.43,17.8 -272.43,17.8" /><path
         id="path58"
         style="fill:#252323;fill-opacity:1;fill-rule:nonzero;stroke:none"
         d="m 8564.04,6121.1 h 486.01 v -486 h -486.01 v 486" /><path
         id="path60"
         style="fill:#252323;fill-opacity:1;fill-rule:nonzero;stroke:none"
         d="m 6170.25,6121.1 h 486.01 v -486 h -486.01 v 486" /><path
         id="path62"
         style="fill:#100f0d;fill-opacity:1;fill-rule:nonzero;stroke:none"
         d="m 1299.09,11140.8 c 10.41,-28.6 21.33,-56.9 32.79,-84.6 174.1,-420.7 623.84,-1146.1 623.84,-1146.1 l 178.93,106.4 C 1747.77,10442 1535,11063.4 1535,11063.4 c -80.65,9 -160.85,38.4 -235.91,77.4" /><path
         id="path64"
         style="fill:#3970c1;fill-opacity:1;fill-rule:nonzero;stroke:none"
         d="m 2795.55,6373.2 c 0,0 -190.94,-124 -214.39,-191 -23.45,-67 -190.95,-690.1 -90.45,-777.2 100.5,-87.1 576.18,-43.5 730.28,-97.1 154.09,-53.6 713.53,-164.2 1048.52,50.2 334.99,214.4 180.9,409.2 -46.9,444.1 -227.79,35 -566.13,112 -740.33,286.2 -174.19,174.2 -107.2,328.3 -150.74,358.5 -43.55,30.1 -170.85,10 -170.85,10 0,0 -235.57,33.5 -258.48,26.8 -22.91,-6.7 -106.66,-110.5 -106.66,-110.5" /><path
         id="path66"
         style="fill:#f5f6f5;fill-opacity:1;fill-rule:nonzero;stroke:none"
         d="m 2663.46,6612.5 c -15.7,-290.8 -22.06,-485.7 -22.06,-485.7 0,0 117.31,-92 237.9,-65.2 120.6,26.8 154.09,321.6 180.9,341.7 26.79,20.1 210.43,59.4 210.43,59.4 0,0 4.73,58.6 6.63,149.8 -190.95,-29.3 -487.34,12.2 -613.8,0" /><path
         id="path68"
         style="fill:#8e908d;fill-opacity:1;fill-rule:nonzero;stroke:none"
         d="M 5317.92,7708.5 H 4297.53 v 206.8 h 1020.39 v -206.8" /><path
         id="path70"
         style="fill:#fbc398;fill-opacity:1;fill-rule:nonzero;stroke:none"
         d="m 4513.94,8188.5 c 0,0 -94.31,-224.9 -99.14,-275.7 -4.83,-50.7 24.18,-362.7 49.57,-384.4 25.39,-21.8 71.33,0 71.33,0 0,0 70.12,-43.5 91.88,-42.3 21.77,1.2 73.75,19.3 84.63,16.9 10.88,-2.4 67.7,-42.3 111.23,-35.1 43.52,7.3 61.66,36.3 89.46,35.1 27.81,-1.2 81.01,-20.6 101.56,-12.1 20.55,8.5 68.91,130.6 73.74,147.5 4.84,16.9 12.44,262.3 12.44,262.3 l 80.66,14.6 c 0,0 -33.85,140.2 -58.03,168 -24.18,27.8 -305.88,192.2 -305.88,192.2 l -303.45,-87" /><path
         id="path72"
         style="fill:#606163;fill-opacity:1;fill-rule:nonzero;stroke:none"
         d="m 3566.09,8323.9 -58.03,120.9 -83.82,-91.9 V 7314.8 l 83.82,-112.8 58.03,1121.9" /><path
         id="path74"
         style="fill:#606163;fill-opacity:1;fill-rule:nonzero;stroke:none"
         d="m 4168.64,8323.9 58.03,120.9 83.82,-91.9 V 7314.8 l -83.82,-112.8 -58.03,1121.9" /><path
         id="path76"
         style="fill:#414042;fill-opacity:1;fill-rule:nonzero;stroke:none"
         d="m 4228.75,7202 h -720.69 v 1242.8 h 720.69 V 7202" /><path
         id="path78"
         style="fill:#606163;fill-opacity:1;fill-rule:nonzero;stroke:none"
         d="m 5347.33,8323.9 -58.03,120.9 -83.82,-91.9 V 7314.8 l 83.82,-112.8 58.03,1121.9" /><path
         id="path80"
         style="fill:#606163;fill-opacity:1;fill-rule:nonzero;stroke:none"
         d="m 5949.88,8323.9 58.03,120.9 83.82,-91.9 V 7314.8 l -83.82,-112.8 -58.03,1121.9" /><path
         id="path82"
         style="fill:#414042;fill-opacity:1;fill-rule:nonzero;stroke:none"
         d="M 6009.98,7202 H 5289.3 v 1242.8 h 720.68 V 7202" /><path
         id="path84"
         style="fill:#ecaf86;fill-opacity:1;fill-rule:nonzero;stroke:none"
         d="m 11562.5,9948.8 c 0,0 415.8,-459.4 493.2,-614.2 77.4,-154.7 -217.6,-681.9 -217.6,-1112.3 0,-430.4 111.2,-1078.4 145.1,-1378.2 33.8,-299.8 33.8,-299.8 33.8,-299.8 l 273.3,-7.3 c 0,0 263.5,2589.7 234.5,2783.1 -29,193.4 -680.2,1015.5 -714.9,1025.2 -34.7,9.7 -208.7,23.4 -218.4,-46.3 -9.7,-69.7 -29,-350.2 -29,-350.2" /><path
         id="path86"
         style="fill:#3067ac;fill-opacity:1;fill-rule:nonzero;stroke:none"
         d="m 12129.9,6440.9 c 0,0 -190.9,-124 -214.4,-191 -23.4,-67 -190.9,-690.1 -90.4,-777.2 100.5,-87.1 576.2,-43.5 730.3,-97.1 154.1,-53.6 713.5,-164.2 1048.5,50.2 335,214.4 180.9,409.2 -46.9,444.1 -227.8,35 -566.1,112 -740.3,286.2 -174.2,174.2 -107.2,328.3 -150.8,358.5 -43.5,30.1 -170.8,10 -170.8,10 0,0 -235.6,33.5 -258.5,26.8 -22.9,-6.7 -106.7,-110.5 -106.7,-110.5" /><path
         id="path88"
         style="fill:#e1e1e1;fill-opacity:1;fill-rule:nonzero;stroke:none"
         d="m 11997.8,6680.2 c -15.7,-290.8 -22,-485.7 -22,-485.7 0,0 117.3,-92 237.9,-65.2 120.6,26.8 154.1,321.6 180.9,341.7 26.8,20.1 210.4,59.4 210.4,59.4 0,0 4.7,58.6 6.6,149.8 -190.9,-29.3 -487.3,12.2 -613.8,0" /><path
         id="path90"
         style="fill:#fbc398;fill-opacity:1;fill-rule:nonzero;stroke:none"
         d="m 11720.8,10028.2 c 0,0 310.8,-324.5 394.6,-395.4 83.8,-70.9 248.2,-277.2 264.3,-473.9 16.2,-196.7 -241.8,-634.3 -227.2,-1026 14.5,-391.7 64.3,-1520.4 64.3,-1520.4 l 616.8,-65.9 189.3,2264.7 c 0,0 135.4,213.8 135.4,571.7 0,357.8 -275.6,1242.8 -275.6,1242.8 0,0 -503,-33.9 -565.8,-62.9 -62.9,-29 -596.1,-534.7 -596.1,-534.7" /><path
         id="path92"
         style="fill:#3970c1;fill-opacity:1;fill-rule:nonzero;stroke:none"
         d="m 12353.9,6373.2 c 0,0 -190.9,-124 -214.4,-191 -23.4,-67 -190.9,-690.1 -90.4,-777.2 100.5,-87.1 576.2,-43.5 730.3,-97.1 154.1,-53.6 713.5,-164.2 1048.5,50.2 335,214.4 180.9,409.2 -46.9,444.1 -227.8,35 -566.1,112 -740.3,286.2 -174.2,174.2 -107.2,328.3 -150.8,358.5 -43.5,30.1 -170.8,10 -170.8,10 0,0 -235.6,33.5 -258.5,26.8 -22.9,-6.7 -106.7,-110.5 -106.7,-110.5" /><path
         id="path94"
         style="fill:#f5f6f5;fill-opacity:1;fill-rule:nonzero;stroke:none"
         d="m 12221.8,6612.5 c -15.7,-290.8 -22,-485.7 -22,-485.7 0,0 117.3,-92 237.9,-65.2 120.6,26.8 154.1,321.6 180.9,341.7 26.8,20.1 210.4,59.4 210.4,59.4 0,0 4.7,58.6 6.6,149.8 -190.9,-29.3 -487.3,12.2 -613.8,0" /><path
         id="path96"
         style="fill:#252323;fill-opacity:1;fill-rule:nonzero;stroke:none"
         d="m 12491,11568.8 391.7,-943 c 0,0 -377.2,-179.7 -619,-326.8 -241.8,-147.1 -570.7,-282.5 -570.7,-282.5 l -178.9,-106.4 c 0,0 -449.7,725.4 -623.8,1146.1 -174.1,420.7 -232.2,964.8 0,1327.5 232.1,362.7 943,506.3 943,506.3 l 623.8,-564.4 33.9,-756.8" /><g
         transform="scale(1.14162)"
         id="g98"><path
           id="path100"
           style="fill:#252323;fill-opacity:1;fill-rule:nonzero;stroke:none"
           d="m 15874.3,5361.77 h 425.7 v -425.71 h -425.7 v 425.71" /></g><path
         id="path102"
         style="fill:#252323;fill-opacity:1;fill-rule:nonzero;stroke:none"
         d="m 15728.6,6121.1 h 486 v -486 h -486 v 486" /><g
         transform="scale(1.06552)"
         id="g104"><path
           id="path106"
           style="fill:#8e908d;fill-opacity:1;fill-rule:nonzero;stroke:none"
           d="m 16300,5583.56 h -415.3 V 8020.77 H 16300 V 5583.56" /></g><g
         transform="scale(1.11225)"
         id="g108"><path
           id="path110"
           style="fill:#8e908d;fill-opacity:1;fill-rule:nonzero;stroke:none"
           d="m 16300,5092.46 h -1721.8 v 391.37 H 16300 v -391.37" /></g><g
         transform="scale(1.15467)"
         id="g112"><path
           id="path114"
           style="fill:#252323;fill-opacity:1;fill-rule:nonzero;stroke:none"
           d="m 16300,7365.19 h -2839.6 v 531.58 H 16300 v -531.58" /></g><g
         transform="scale(1.01998)"
         id="g116"><path
           id="path118"
           style="fill:#fbc398;fill-opacity:1;fill-rule:nonzero;stroke:none"
           d="m 14595.6,11835.3 c 0,0 158.8,-539 228.3,-652.7 69.5,-113.8 218.1,-268.7 240.2,-366.7 22.2,-98 64.8,-412.5 249.7,-763.3 184.9,-350.85 606.9,-962.53 758.6,-1095.28 0,0 180.2,47.45 227.6,165.98 0,0 -265.5,436.19 -331.9,682.72 -66.3,246.58 -317.6,896.08 -317.6,896.08 0,0 -83.8,426.7 -166,660.6 -82.2,233.9 -174.9,410.6 -167.6,404.6 6.3,-5.1 15.2,400 -29.3,613.2 -33.2,159.3 -100.2,19 -251.9,-50.6 -151.7,-69.5 -455.1,-275 -461.5,-347.7 -6.3,-72.7 21.4,-146.9 21.4,-146.9" /></g><path
         id="path120"
         style="fill:#fbc398;fill-opacity:1;fill-rule:nonzero;stroke:none"
         d="m 15394.8,12890 c 0,0 178.5,-126.2 198.3,-262.1 19.8,-135.9 -232.1,-383.5 -232.1,-383.5 l -270.9,-269.4 c 0,0 -246.9,210.9 -266.7,401.4 -19.7,190.5 39.5,377.2 189.4,483.6 149.9,106.4 382,30 382,30" /><path
         id="path122"
         style="fill:#3970c1;fill-opacity:1;fill-rule:nonzero;stroke:none"
         d="m 15375.5,13034.1 -285.4,1004.4 c 0,0 -212.1,182.6 -472.1,294.2 -259.9,111.5 -1234.9,-457.1 -1234.9,-457.1 0,0 -681.9,-454.6 -952.7,-633.5 -270.8,-179 -597.1,-352.1 -597.1,-352.1 0,0 224.7,-485.5 287.6,-574.5 62.8,-89 364.3,-618.1 364.3,-618.1 0,0 264.4,7.6 559.3,0 295,-7.7 778.6,93.9 904.4,142.2 125.7,48.4 295,116.1 295,116.1 0,0 366,-53.2 579.5,-24.2 34.4,4.7 64.5,9 91,12.9 v 338.5 h 173.8 c 24.6,179.5 100.6,408.8 306.6,607.1 l -19.3,144.1" /><g
         transform="scale(1.09341)"
         id="g124"><path
           id="path126"
           style="fill:#fbc398;fill-opacity:1;fill-rule:nonzero;stroke:none"
           d="m 15007.8,8485.55 -14.7,-129.77 c 0,0 41.2,-44.18 53,-44.18 11.8,0 536.7,0 536.7,0 0,0 171,-46.46 213,-35.39 42,11.07 0,64.11 0,64.11 l 477.7,-8.87 c 0,0 26.5,6.4 -70.8,48.56 -97.3,42.17 -214.5,79.75 -367.1,88.54 -152.6,8.87 -630.2,42.07 -630.2,42.07 l -197.6,-25.07" /></g><g
         transform="scale(1.0635)"
         id="g128"><path
           id="path130"
           style="fill:#df9866;fill-opacity:1;fill-rule:nonzero;stroke:none"
           d="m 15914.9,8672.71 c 0,0 174.4,-10.62 224.4,-31.88 50,-21.15 100.8,-65.91 100.8,-65.91 l 59.9,-1.13 c 0,0 -68.3,56.42 -128.9,82.18 -60.6,25.77 -256.2,16.74 -256.2,16.74" /></g><path
         id="path132"
         style="fill:#100f0d;fill-opacity:1;fill-rule:nonzero;stroke:none"
         d="m 10857.5,11140.8 c 10.4,-28.6 21.3,-56.9 32.8,-84.6 174.1,-420.7 623.8,-1146.1 623.8,-1146.1 l 178.9,106.4 c -386.8,425.5 -599.6,1046.9 -599.6,1046.9 -80.7,9 -160.9,38.4 -235.9,77.4" /><path
         id="path134"
         style="fill:#fbc398;fill-opacity:1;fill-rule:nonzero;stroke:none"
         d="m 12084,12649.2 c 0,0 -40.5,878.2 -30.8,1216.7 9.7,338.5 243.6,807.6 281.4,841.4 37.7,33.9 867.9,6.5 1048.5,-48.3 180.5,-54.8 412.6,-228.9 412.6,-228.9 0,0 232.2,77.3 522.3,22.5 290.2,-54.8 419.1,-206.3 477.2,-328.8 58,-122.5 87,-934.9 -544.1,-1014.7 -631.1,-79.8 -645.6,500.5 -645.6,500.5 0,0 -270.8,62.8 -454.6,193.4 -183.7,130.6 -346.4,309.5 -346.4,309.5 0,0 -180.7,-551.3 -214.5,-662.5 -33.9,-111.2 -116.1,-880.1 -116.1,-880.1 l -389.9,79.3" /><path
         id="path136"
         style="fill:#df9866;fill-opacity:1;fill-rule:nonzero;stroke:none"
         d="m 12904.3,14310 -99.8,-197.5 78.2,-80.4 z" /><path
         id="path138"
         style="fill:#df9866;fill-opacity:1;fill-rule:nonzero;stroke:none"
         d="m 13605.5,13609.6 h 193.5 c 0,0 -53.2,198.3 -24.2,304.6 0,0 116,-357.8 285.3,-502.9 0,0 -169.3,53.2 -193.4,58 -24.2,4.9 -64.4,-265.1 -64.4,-265.1 0,0 -206.5,153.9 -196.8,405.4" /><g
         transform="scale(1.02072)"
         id="g140"><path
           id="path142"
           style="fill:#fbc398;fill-opacity:1;fill-rule:nonzero;stroke:none"
           d="m 15372.9,12769.5 h -309.5 c 0,0 -544.9,-535.3 -743.9,-525.8 -198.9,9.4 -20.3,421.6 203,625.3 223.5,203.8 261.3,884.6 261.3,884.6 0,0 164.6,-174.1 454.2,-114.8 289.7,59.3 325,197.8 550.3,-7 225.2,-204.8 511.7,-253.4 279.5,-456 -232.2,-202.5 -270.1,-254.6 -336.4,-283.1 -66.3,-28.4 -358.5,-123.2 -358.5,-123.2" /></g><path
         id="path144"
         style="fill:#3970c1;fill-opacity:1;fill-rule:nonzero;stroke:none"
         d="m 15394.8,12890 -130.6,-229.4 c 0,0 -67.7,-729.1 -440.8,-729.1 0,0 -44.2,188.1 -28.2,335.3 15.9,147.2 341.1,269.2 337.4,332.1 -3.8,62.8 262.2,291.1 262.2,291.1" /><path
         id="path146"
         style="fill:#fbc398;fill-opacity:1;fill-rule:nonzero;stroke:none"
         d="m 15394.8,12890 c 0,0 -235.6,-411.1 -301.5,-479.3 -66,-68.1 -220.8,-416.3 -530.3,-479.2 0,0 166.4,-27.7 380.2,17.2 213.7,44.9 400,366.5 403.3,421.3 3.2,54.8 93.5,310.4 91.8,332.5 -1.6,22.1 -43.5,187.5 -43.5,187.5" /><path
         id="path148"
         style="fill:#df9866;fill-opacity:1;fill-rule:nonzero;stroke:none"
         d="m 15090.1,11975 348.2,96.8 c 0,0 -193.4,-153.9 -203.1,-171.3 -9.6,-17.4 29,-500.5 29,-500.5 l -174.1,463.8 -146.9,84.9 146.9,26.3" /><path
         id="path150"
         style="fill:#df9866;fill-opacity:1;fill-rule:nonzero;stroke:none"
         d="m 16000.7,13617.8 c 0,0 -193.1,-158.7 -228.6,-197.4 -35.6,-38.6 -80.7,-386.3 -80.7,-386.3 l 196.2,-147.8 113.1,731.5" /><g
         transform="scale(1.06172)"
         id="g152"><path
           id="path154"
           style="fill:#252323;fill-opacity:1;fill-rule:nonzero;stroke:none"
           d="m 16123.5,12866.5 c 176.5,28.8 166.7,186.2 166.7,186.2 0,0 0,0 -11,143.7 -11.1,143.8 -140.6,351.5 -333.4,503.8 -192.8,152.4 -310.9,209.4 -310.9,209.4 -96.9,5.9 -203.4,-42.6 -203.4,-42.6 0,0 -202.1,135.6 -465.5,-126.6 -263.3,-262.2 -317.8,-618.7 -316.5,-628.4 1.3,-9.6 148,-161.3 245.9,-161.4 97.8,-0.2 197,26.4 197,26.4 0,0 251.3,-316.5 270.9,-310 19.5,6.5 656.5,187.2 656.5,187.2 l 82.5,4.7 c 5.9,3.7 13,6.3 21.2,7.6" /></g><g
         transform="scale(1.05023)"
         id="g156"><path
           id="path158"
           style="fill:#fbc398;fill-opacity:1;fill-rule:nonzero;stroke:none"
           d="m 16300,13007.3 c 0,0 -108.4,-220.3 -139.5,-264.9 -31.1,-44.7 -170.9,-131.9 -187.7,-151.6 -16.6,-19.6 -112.9,-307.3 -127.7,-315.4 -14.7,-8.2 -98.5,58.9 -107.7,55.6 -9.3,-3.3 -89.1,-61.9 -94.5,-70.2 -5.3,-8.4 -22.6,-20 -22.6,-20 0,0 -25.2,-33.4 -46,-40.8 -20.9,-7.5 -49.4,-29 -61.4,-36.1 -12.1,-7 -121.9,-108 -150.4,-108.8 -28.5,-0.9 -248.1,216.7 -271.2,262.1 -23,45.3 -19,431.7 3.6,485.9 22.7,54.2 140.6,163.4 140.6,163.4 0,0 -69.4,114.1 -24,222.5 45.3,108.5 195.7,222.2 289,160.9 93.2,-61.2 20.5,-193.8 0.3,-228.8 -20.2,-35 -43.8,-82.7 -42.9,-89.2 0.9,-6.5 129.2,19.3 188.7,42.8 59.7,23.6 133.4,174.3 193.5,205.5 60.1,31.3 170.2,14.3 207.8,-6.1 37.6,-20.4 252.1,-266.8 252.1,-266.8" /></g><path
         id="path160"
         style="fill:#8e908d;fill-opacity:1;fill-rule:nonzero;stroke:none"
         d="m 12834.4,12089.1 -1015,104.9 21.2,205.6 1015,-104.8 -21.2,-205.7" /><path
         id="path162"
         style="fill:#fbc398;fill-opacity:1;fill-rule:nonzero;stroke:none"
         d="m 12084,12649.2 c 0,0 -116.9,-214 -127,-264 -10,-50 -13.2,-363.3 9.8,-387.6 23.1,-24.2 71,-7.3 71,-7.3 0,0 65.3,-50.5 87,-51.5 21.8,-1 75.4,11.6 86,8.1 10.5,-3.5 63,-49 107,-46.3 44,2.8 65.1,29.8 92.6,25.7 27.5,-4 78.4,-28.8 99.8,-22.4 21.3,6.3 81.9,122.8 88.5,139.1 6.5,16.3 39.3,259.7 39.3,259.7 l 81.7,6.1 c 0,0 -19.3,143 -40.4,173.1 -21.2,30.2 -284.5,222.7 -284.5,222.7 l -310.8,-55.4" /><path
         id="path164"
         style="fill:#606163;fill-opacity:1;fill-rule:nonzero;stroke:none"
         d="m 11155,12881.2 -45.3,126.3 -92.8,-82.8 -106.6,-1032.6 71.8,-120.9 172.9,1110" /><path
         id="path166"
         style="fill:#606163;fill-opacity:1;fill-rule:nonzero;stroke:none"
         d="m 11754.4,12819.3 70.1,114.3 74,-100 -106.7,-1032.6 -94.9,-103.6 57.5,1121.9" /><path
         id="path168"
         style="fill:#414042;fill-opacity:1;fill-rule:nonzero;stroke:none"
         d="m 11698.9,11697.2 -716.8,74 127.6,1236.3 716.9,-74.1 -127.7,-1236.2" /><path
         id="path170"
         style="fill:#606163;fill-opacity:1;fill-rule:nonzero;stroke:none"
         d="m 12926.9,12698.2 -45.3,126.2 -92.9,-82.7 -106.6,-1032.7 71.8,-120.8 173,1110" /><path
         id="path172"
         style="fill:#606163;fill-opacity:1;fill-rule:nonzero;stroke:none"
         d="m 13526.2,12636.3 70.2,114.3 73.9,-100 -106.7,-1032.6 -94.9,-103.6 57.5,1121.9" /><path
         id="path174"
         style="fill:#414042;fill-opacity:1;fill-rule:nonzero;stroke:none"
         d="m 13470.7,11514.1 -716.8,74.1 127.7,1236.2 716.8,-74 -127.7,-1236.3" /></g></g></svg>