<?xml version="1.0" encoding="UTF-8" standalone="no"?>
<svg
   xmlns:dc="http://purl.org/dc/elements/1.1/"
   xmlns:cc="http://creativecommons.org/ns#"
   xmlns:rdf="http://www.w3.org/1999/02/22-rdf-syntax-ns#"
   xmlns:svg="http://www.w3.org/2000/svg"
   xmlns="http://www.w3.org/2000/svg"
   viewBox="0 0 2666.6667 2666.6667"
   height="2666.6667"
   width="2666.6667"
   xml:space="preserve"
   id="svg2"
   version="1.1"><metadata
     id="metadata8"><rdf:RDF><cc:Work
         rdf:about=""><dc:format>image/svg+xml</dc:format><dc:type
           rdf:resource="http://purl.org/dc/dcmitype/StillImage" /></cc:Work></rdf:RDF></metadata><defs
     id="defs6" /><g
     transform="matrix(1.3333333,0,0,-1.3333333,0,2666.6667)"
     id="g10"><g
       transform="scale(0.1)"
       id="g12"><g
         transform="scale(1.22699)"
         id="g14"><path
           id="path16"
           style="fill:#ffffff;fill-opacity:1;fill-rule:nonzero;stroke:none"
           d="M 16300,0 H 0 V 16300 H 16300 V 0" /></g><path
         id="path18"
         style="fill:#3970c0;fill-opacity:1;fill-rule:nonzero;stroke:none"
         d="m 13344.1,6536.5 c 0,0 -112.3,-157.6 -137.8,-219.2 -25.6,-61.7 -178.8,-521.4 -132.8,-572.5 45.9,-51 131,-71.5 131,-71.5 0,0 17.1,-117.4 252,-188.9 234.9,-71.5 572,-35.8 618,91.9 45.9,127.7 -209.4,685.2 -224.7,741 -15.4,55.7 -61.3,254.9 -163.5,306 -102.1,51.1 -107.2,112.3 -163.4,76.6 -56.2,-35.8 -178.8,-163.4 -178.8,-163.4" /><g
         transform="scale(1.01888)"
         id="g20"><path
           id="path22"
           style="fill:#3970c0;fill-opacity:1;fill-rule:nonzero;stroke:none"
           d="m 15633.3,6450.43 c 0,0 -115.2,-80.18 -140.4,-165.38 -25,-85.28 -50.1,-295.81 -80.2,-426.05 -30,-130.34 -40.1,-170.49 0,-200.52 40.2,-30.13 130.4,-45.14 130.4,-45.14 0,0 150.3,-165.38 406,-190.51 255.6,-25.03 350.9,75.18 345.9,170.49 -5,95.19 -235.7,546.38 -245.7,571.41 -10,25.03 5,165.38 -115.2,275.69 -120.3,110.32 -200.5,135.35 -220.6,120.33 -20.1,-15.11 -80.2,-110.32 -80.2,-110.32" /></g><path
         id="path24"
         style="fill:#efb38d;fill-opacity:1;fill-rule:nonzero;stroke:none"
         d="m 13093.9,10545.7 c 10.2,-25.6 -20.4,-229.9 -20.4,-229.9 0,0 474.9,-939.7 474.9,-1138.9 0,-199.2 -240,-449.4 -286,-985.7 -45.9,-536.2 102.2,-1567.9 81.7,-1654.7 -20.4,-86.9 -56.1,-153.3 -56.1,-153.3 0,0 30.6,-86.8 71.5,-61.2 40.8,25.5 61.3,224.7 137.9,255.3 76.6,30.7 188.9,46 188.9,46 0,0 158.4,1368.7 260.5,1762 102.1,393.3 204.3,332 245.2,771.2 40.8,439.2 -35.8,1608.8 -35.8,1608.8 0,0 -459.7,275.8 -638.4,153.2 -178.8,-122.6 -229.8,-155.8 -265.6,-200.5 -35.7,-44.6 -158.3,-172.3 -158.3,-172.3" /><g
         transform="scale(1.00352)"
         id="g26"><path
           id="path28"
           style="fill:#fbc398;fill-opacity:1;fill-rule:nonzero;stroke:none"
           d="m 14472.9,9984.46 c 0,0 1053.5,-992.43 1114.6,-1272.34 61.1,-279.92 -96.6,-493.66 56,-1038.25 152.7,-544.58 162.8,-1195.98 162.8,-1195.98 0,0 30.6,-207.87 61.1,-182.76 30.6,25.02 61.1,172.59 101.9,198 40.6,25.52 208.6,45.84 208.6,45.84 0,0 122.1,987.33 86.5,1430.07 -35.7,442.84 -91.7,620.91 -81.4,921.25 10.2,300.25 -288,1204.71 -585.3,1577.21 -297.3,372.6 -1089.1,-30.1 -1089.1,-70.8 0,-40.7 -35.7,-412.24 -35.7,-412.24" /></g><path
         id="path30"
         style="fill:#252323;fill-opacity:1;fill-rule:nonzero;stroke:none"
         d="m 13584.2,11510.9 c -20.4,-5.1 -367.7,-56.5 -510.7,-375.5 -143.1,-319 0,-819.6 0,-819.6 0,0 173.6,286.1 434.1,316.7 260.4,30.6 413.7,-51.1 444.3,-61.3 30.6,-10.2 234.9,-209.4 234.9,-209.4 l 337.1,-342.2 c 0,0 280.9,209.4 623.1,332 342.2,122.6 505.6,152.8 505.6,152.8 0,0 -122.6,184.3 -311.5,553.7 -323.3,632.2 -485.2,284.3 -485.2,284.3 l -1271.7,168.5" /><g
         transform="scale(1.01073)"
         id="g32"><path
           id="path34"
           style="fill:#fbc398;fill-opacity:1;fill-rule:nonzero;stroke:none"
           d="m 15826.7,10651 c 0,0 -171.8,-266.1 -178.5,-299.8 -6.8,-33.7 -14.3,-115.7 -14.3,-115.7 h 152.4 l 5.1,-71.3 -23.7,-102.7 -77.3,-1.7 c 0,0 42,-92.65 106,-106.12 64,-13.48 64,-13.48 64,-13.48 0,0 25.2,-50.52 72.4,-48.84 47.1,1.69 79.2,21.89 79.2,21.89 0,0 33.6,-10.11 84.2,0 50.5,10.1 96,-18.53 149.9,43.79 53.9,62.36 21.8,358.76 0,468.26 -21.9,109.5 -13.7,475.5 -14.1,489 -4,116.8 -145.9,-96.6 -248.7,-160.6 -102.7,-64 -156.6,-102.7 -156.6,-102.7" /></g><g
         transform="scale(1.19059)"
         id="g36"><path
           id="path38"
           style="fill:#9c9c9b;fill-opacity:1;fill-rule:nonzero;stroke:none"
           d="M 16235.7,8752.49 8523.6,8588.02 c -34.1,-0.72 -61.15,-28.93 -60.4,-63.01 l 0.6,-26.71 c 0.75,-34.08 28.89,-61.12 62.99,-60.38 l 7712.11,164.46 c 34.1,0.72 61.1,28.94 60.4,63.01 l -0.6,26.72 c -0.7,34.08 -28.9,61.1 -63,60.38" /></g><path
         id="path40"
         style="fill:#e9ad84;fill-opacity:1;fill-rule:nonzero;stroke:none"
         d="m 14260,11766.3 -379.6,-143 c 0,0 91.9,-852.9 275.8,-1006.1 183.9,-153.3 495.4,-127.7 740.5,-56.2 245.2,71.5 469.9,224.7 469.9,245.1 0,20.5 -68.1,461.4 -350.7,698 -282.6,236.7 -755.9,262.2 -755.9,262.2" /><g
         transform="scale(1.03945)"
         id="g42"><path
           id="path44"
           style="fill:#efb38d;fill-opacity:1;fill-rule:nonzero;stroke:none"
           d="m 15660.3,12238 c 36.2,-3.3 488.9,-145.3 564.4,-368 75.3,-222.7 -6.7,-285 -167.1,-435.7 -160.5,-150.6 -239.2,-252.2 -239.2,-252.2 l -199.9,533.3 41.8,522.6" /></g><path
         id="path46"
         style="fill:#372a23;fill-opacity:1;fill-rule:nonzero;stroke:none"
         d="m 15672.5,14088.3 c 0,0 -382.5,17.1 -433.6,-371 -51,-388.2 -153.2,-653.7 -91.9,-852.9 61.3,-199.2 66.4,-235 66.4,-235 l 370.8,-25.5 c 0,0 380,115.9 298.3,609.5 -81.8,493.7 -210,874.9 -210,874.9" /><g
         transform="scale(1.01405)"
         id="g48"><path
           id="path50"
           style="fill:#3970c0;fill-opacity:1;fill-rule:nonzero;stroke:none"
           d="m 15331.7,12499.8 -63.8,39.4 -171.2,-19.7 -1034.3,-916.2 c 0,0 164.6,-594.3 406.3,-802.5 241.8,-208.2 423.1,-188 745.5,-198.1 322.3,-10.1 434.3,-33.6 648.2,13.4 213.9,47 410.7,216 424.1,464.5 13.5,248.5 -134.3,756 -184.5,954.1 -50.1,198.1 -1.4,424.8 -11.5,441.6 -10,16.8 -758.8,23.5 -758.8,23.5" /></g><path
         id="path52"
         style="fill:#fbc398;fill-opacity:1;fill-rule:nonzero;stroke:none"
         d="m 15751.4,13088.9 -143,-328.4 -126,-45.1 c 0,0 -74.9,-547.3 -115.8,-816.3 -40.8,-269 -119.1,-602.7 27.3,-749.1 146.4,-146.4 637.7,-196.1 767,80.6 112.5,240.6 38.9,1001.4 45.7,1018.4 6.8,17 25.1,165.6 25.1,165.6 l -303.2,689.8 -177.1,-15.5" /><path
         id="path54"
         style="fill:#3970c1;fill-opacity:1;fill-rule:nonzero;stroke:none"
         d="m 15672.5,14088.3 c 0,0 -179.2,-66.6 -223.6,-229.9 -44.3,-163.2 53.1,-279.5 70,-263.7 17,15.7 153.6,493.6 153.6,493.6" /><g
         transform="scale(1.00731)"
         id="g56"><path
           id="path58"
           style="fill:#df9866;fill-opacity:1;fill-rule:nonzero;stroke:none"
           d="m 15637,12887.7 c 0,0 45,-194 85.2,-268.2 40.2,-74.1 250,-253.1 320.8,-274 70.9,-21 70.9,-21 70.9,-21 l 186.1,410.8 -247.5,197.2 -415.5,-44.8" /></g><g
         transform="scale(1.03044)"
         id="g60"><path
           id="path62"
           style="fill:#523d38;fill-opacity:1;fill-rule:nonzero;stroke:none"
           d="m 16141.6,13144 c 11.4,-10.1 96.2,-127.7 96.2,-127.7 0,0 62.2,226.2 18.1,446.7 -44,220.5 -217.5,391.8 -567.6,399.1 -350,7.4 -552.1,-236.6 -641.1,-411.5 -89.1,-174.9 -28.8,-467.5 -21.3,-520 7.4,-52.6 162,-249 162,-249 l 662.3,140.1 291.4,322.3" /></g><g
         transform="scale(1.00623)"
         id="g64"><path
           id="path66"
           style="fill:#372a23;fill-opacity:1;fill-rule:nonzero;stroke:none"
           d="m 15897.6,13477 c -122.2,98.5 -261.2,460.9 -261.2,460.9 -22.7,-354 83.6,-697.8 83.6,-697.8 l -29.9,-87.8 c 0,0 -137.7,168.6 -193.8,411 -25.4,110.1 -33.2,217.1 -34,301.3 -20.8,-31 -38.4,-61.6 -53.1,-90.4 -91.2,-179.1 -29.5,-478.8 -21.8,-532.5 7.5,-53.8 165.9,-255 165.9,-255 l 678.2,143.4 68.5,75.8 c -166.1,105.3 -341.6,222 -402.4,271.1" /></g><g
         transform="scale(1.02776)"
         id="g68"><path
           id="path70"
           style="fill:#fbc398;fill-opacity:1;fill-rule:nonzero;stroke:none"
           d="m 15331,12956.9 c 0,0 -60.7,50.4 -122.4,43.7 -61.8,-6.6 -51.5,-117.6 -22.1,-242.6 29.5,-124.9 139.4,-126.8 139.4,-126.8 0,0 35.7,-101 62.9,-160.6 27.2,-59.5 265.8,-271.7 328.2,-292.6 62.3,-21 147.2,-28.7 203.1,-18.5 56,10.2 214.4,181.8 278.5,350.3 64.2,168.4 76.5,406.4 78.4,483.7 1.9,77.3 23,220.1 -9,339.1 -32,119.1 -140.4,205.4 -334.4,223 -194.1,17.6 -351.3,-63 -441.1,-210.8 -89.8,-147.7 -96.9,-371.3 -161.5,-387.9" /></g><g
         transform="scale(1.02797)"
         id="g72"><path
           id="path74"
           style="fill:#523d38;fill-opacity:1;fill-rule:nonzero;stroke:none"
           d="m 15830.2,13595.5 c 21.5,1.1 171,-70.5 211.5,-139.4 40.7,-68.9 92.7,-169.4 142.1,-230.9 49.5,-61.6 98,-84.7 98,-84.7 l 18.2,29.1 c 0,0 -57.7,48.2 -120.7,139.6 -63.1,91.3 -129.5,258.3 -129.5,258.3 l -219.6,28" /></g><path
         id="path76"
         style="fill:#fbc398;fill-opacity:1;fill-rule:nonzero;stroke:none"
         d="m 15295.1,12546 c 0,0 -10.2,-871.6 -279.2,-1041.9 -269,-170.2 -565.2,306.5 -565.2,306.5 l -534.5,27.2 c 0,0 98.7,-456.2 156.6,-704.8 57.9,-248.6 57.9,-248.6 57.9,-248.6 0,0 -343.9,-71.5 -343.9,-47.6 0,23.8 -282.6,690.7 -360.9,879.9 -78.4,189.2 -146.4,437.8 -98.8,553.5 47.7,115.8 367.7,221.3 711.6,258.8 343.9,37.4 415.4,85.1 606.1,119.2 190.7,34 333.7,0 333.7,0 l 330.3,47.2 -13.7,-149.4" /><path
         id="path78"
         style="fill:#df9866;fill-opacity:1;fill-rule:nonzero;stroke:none"
         d="m 13916.2,11837.8 c 0,0 -180.5,54.5 -269,163.4 0,0 221.3,-88.5 394.9,-112.3 173.7,-23.9 408.6,-78.3 408.6,-78.3 l -534.5,27.2" /><path
         id="path80"
         style="fill:#fbc398;fill-opacity:1;fill-rule:nonzero;stroke:none"
         d="m 13786.8,10836.8 c 0,0 16.1,-326.9 0,-446.9 -16.2,-120 -22.2,-283.5 0,-316.6 22.1,-33.2 65.5,-25.6 65.5,-25.6 0,0 15.3,-48.5 74.1,-48.5 58.7,0 71.5,20.4 71.5,20.4 0,0 35.7,-25.5 71.5,-20.4 35.7,5.1 53.6,20.4 53.6,20.4 0,0 91.9,-28.1 117.5,0 25.5,28.1 82,209.4 48.5,372.8 -33.5,163.5 -158.3,492 -158.3,492 0,0 -176.2,89.2 -212,65.5 -35.7,-23.7 -131.9,-113.1 -131.9,-113.1" /><path
         id="path82"
         style="fill:#f5f6f5;fill-opacity:1;fill-rule:nonzero;stroke:none"
         d="m 15808.9,7147.7 c 48.6,-356 53.1,-647 53.1,-647 0,0 30.7,-208.6 61.3,-183.4 30.7,25.1 61.3,173.2 102.2,198.7 40.8,25.6 209.4,46 209.4,46 0,0 31,251 57.3,557 -178.8,-1.4 -363.5,15.2 -483.3,28.7" /><path
         id="path84"
         style="fill:#f5f6f5;fill-opacity:1;fill-rule:nonzero;stroke:none"
         d="m 13290.3,7236.2 c 29.5,-353.8 64.5,-654.6 53.8,-699.7 -20.4,-86.9 -56.1,-153.3 -56.1,-153.3 0,0 30.6,-86.8 71.5,-61.2 40.8,25.5 61.3,224.7 137.9,255.3 76.6,30.7 188.9,46 188.9,46 0,0 31.8,274.5 76,612.9 -179.5,0 -356,0 -472,0" /><path
         id="path86"
         style="fill:#2d61a4;fill-opacity:1;fill-rule:nonzero;stroke:none"
         d="m 11624.7,10917.2 c -91.8,2.1 -185.6,0 -185.6,0 0,0 -83.4,-1551.3 0,-1562.6 83.4,-11.2 185.6,0 185.6,0 115.9,0 209.9,349.8 209.9,781.3 0,431.5 -94,781.3 -209.9,781.3" /><path
         id="path88"
         style="fill:#3970c0;fill-opacity:1;fill-rule:nonzero;stroke:none"
         d="m 11649,10135.9 c 0,-431.5 -94,-781.3 -209.9,-781.3 -115.9,0 -209.8,349.8 -209.8,781.3 0,431.5 93.9,781.3 209.8,781.3 115.9,0 209.9,-349.8 209.9,-781.3" /><g
         transform="scale(1.12218)"
         id="g90"><path
           id="path92"
           style="fill:#2d61a4;fill-opacity:1;fill-rule:nonzero;stroke:none"
           d="m 16094.4,9854.67 c -81.9,0.46 -165.4,-2.85 -165.4,-2.85 0,0 -50.5,-1383.47 24,-1392.2 74.5,-8.73 165.4,2.85 165.4,2.85 103.2,1.78 181.6,314.84 175,699.29 -6.6,384.45 -95.7,694.67 -199,692.91" /></g><path
         id="path94"
         style="fill:#c9c8c6;fill-opacity:1;fill-rule:nonzero;stroke:none"
         d="m 11508.1,10163.9 c 0,-120.6 -46.9,-218.3 -104.7,-218.3 -57.8,0 -104.7,97.7 -104.7,218.3 0,120.6 46.9,218.3 104.7,218.3 57.8,0 104.7,-97.7 104.7,-218.3" /><g
         transform="scale(1.11079)"
         id="g96"><path
           id="path98"
           style="fill:#3970c0;fill-opacity:1;fill-rule:nonzero;stroke:none"
           d="m 16293.3,9252.81 c 6.7,-388.41 -72.5,-704.67 -176.8,-706.47 -104.3,-1.8 -194.3,311.58 -201,699.99 -6.7,388.39 72.6,704.69 176.9,706.48 104.2,1.8 194.3,-311.6 200.9,-700" /></g><g
         transform="scale(1.10179)"
         id="g100"><path
           id="path102"
           style="fill:#c9c8c6;fill-opacity:1;fill-rule:nonzero;stroke:none"
           d="m 16298.1,9351.59 c 1.9,-109.43 -39.1,-198.87 -91.6,-199.78 -52.4,-0.89 -96.6,87.09 -98.4,196.51 -1.9,109.43 39.1,198.87 91.6,199.76 52.5,0.91 96.5,-87.07 98.4,-196.49" /></g><g
         transform="scale(1.09846)"
         id="g104"><path
           id="path106"
           style="fill:#9c9c9b;fill-opacity:1;fill-rule:nonzero;stroke:none"
           d="m 15895.5,9400.48 43.4,50.71 316.9,6.77 c 0,0 44.2,-68.35 0,-162.78 l -330.1,-7.03 -30.2,112.33" /></g><path
         id="path108"
         style="fill:#9c9c9b;fill-opacity:1;fill-rule:nonzero;stroke:none"
         d="m 11068.7,10244.4 334.7,7.2 c 0,0 28.9,-66.8 10.2,-179.2 l -374.6,-7.4 29.7,179.4" /><g
         transform="scale(1.01073)"
         id="g110"><path
           id="path112"
           style="fill:#fbc398;fill-opacity:1;fill-rule:nonzero;stroke:none"
           d="m 16237.1,10535.9 h -483.3 c -47.7,-76.4 -101.9,-166.1 -105.6,-184.7 -6.8,-33.7 -14.3,-115.7 -14.3,-115.7 h 152.4 l 5.1,-71.3 -23.7,-102.7 -77.3,-1.7 c 0,0 42,-92.65 106,-106.12 64,-13.48 64,-13.48 64,-13.48 0,0 25.2,-50.52 72.4,-48.84 47.1,1.69 79.2,21.89 79.2,21.89 0,0 33.6,-10.11 84.2,0 50.5,10.1 96,-18.53 149.9,43.79 53.9,62.36 21.8,358.76 0,468.26 -5.8,28.8 -8.2,68.3 -9,110.6" /></g><path
         id="path114"
         style="fill:#3970c0;fill-opacity:1;fill-rule:nonzero;stroke:none"
         d="m 3680.03,6804.2 c 0,0 -112.36,-157.5 -137.9,-219.2 -25.53,-61.7 -178.75,-521.3 -132.78,-572.4 45.96,-51 131.07,-71.5 131.07,-71.5 0,0 17.04,-117.4 251.97,-189 234.93,-71.5 572.01,-35.7 617.98,92 45.96,127.7 -209.4,685.2 -224.72,740.9 -15.32,55.8 -61.29,255 -163.43,306.1 -102.15,51 -107.26,112.3 -163.44,76.6 -56.18,-35.8 -178.75,-163.5 -178.75,-163.5" /><path
         id="path116"
         style="fill:#3970c0;fill-opacity:1;fill-rule:nonzero;stroke:none"
         d="m 6264.31,6840 c 0,0 -117.47,-81.7 -143.01,-168.5 -25.53,-86.9 -51.07,-301.4 -81.71,-434.2 -30.64,-132.7 -40.86,-173.6 0,-204.3 40.85,-30.6 132.79,-45.9 132.79,-45.9 0,0 153.22,-168.6 413.68,-194.1 260.48,-25.5 357.51,76.6 352.41,173.7 -5.11,97 -240.05,556.6 -250.26,582.2 -10.21,25.5 5.11,168.5 -117.47,280.9 -122.57,112.3 -204.28,137.9 -224.71,122.6 C 6325.6,6937 6264.31,6840 6264.31,6840" /><path
         id="path118"
         style="fill:#efb38d;fill-opacity:1;fill-rule:nonzero;stroke:none"
         d="m 4859.81,10287.4 c 0,0 1057.2,-995.9 1118.49,-1276.8 61.29,-280.9 -97.04,-495.4 56.18,-1041.9 153.22,-546.5 163.44,-1200.2 163.44,-1200.2 0,0 30.63,-208.6 61.28,-183.5 30.64,25.2 61.29,173.3 102.15,198.8 40.85,25.6 209.39,46 209.39,46 0,0 122.58,990.8 86.83,1435.1 -35.75,444.4 -91.94,623.1 -81.72,924.4 10.21,301.4 -288.97,1209 -587.33,1582.9 -298.37,373.9 -1092.96,-30.3 -1092.96,-71.1 0,-40.9 -35.75,-413.7 -35.75,-413.7" /><path
         id="path120"
         style="fill:#efb38d;fill-opacity:1;fill-rule:nonzero;stroke:none"
         d="m 3429.77,10813.4 c 10.22,-25.5 -20.42,-229.8 -20.42,-229.8 0,0 474.97,-939.7 474.97,-1138.9 0,-199.2 -240.04,-449.4 -286.01,-985.7 -45.96,-536.3 102.15,-1567.9 81.72,-1654.8 -20.43,-86.8 -56.18,-153.2 -56.18,-153.2 0,0 30.64,-86.8 71.5,-61.3 40.86,25.6 61.29,224.8 137.9,255.4 76.61,30.7 188.97,46 188.97,46 0,0 158.32,1368.7 260.47,1762 102.14,393.2 204.29,331.9 245.15,771.2 40.86,439.2 -35.76,1608.8 -35.76,1608.8 0,0 -459.65,275.8 -638.4,153.2 -178.76,-122.6 -229.83,-155.8 -265.58,-200.5 -35.75,-44.7 -158.33,-172.4 -158.33,-172.4" /><path
         id="path122"
         style="fill:#252323;fill-opacity:1;fill-rule:nonzero;stroke:none"
         d="m 4166.91,11756.1 c -20.42,0 -192.32,46 -192.32,46 0,0 -383.08,-61.3 -565.24,-357.5 -182.17,-296.3 -87.29,-749.4 38.92,-939.1 0,0 100.67,280.2 412.21,361.9 311.54,81.7 582.23,-102.1 582.23,-102.1 l 234.93,-301.4 182.17,-176.5 c 0,0 282.59,207.2 527.74,309.3 245.15,102.2 600.97,175.5 600.97,175.5 0,0 -258.78,524.2 -274.1,524.2 -15.32,0 -663.95,107.3 -827.38,143 -163.43,35.8 -720.13,316.7 -720.13,316.7" /><path
         id="path124"
         style="fill:#e9ad84;fill-opacity:1;fill-rule:nonzero;stroke:none"
         d="m 4641.89,12164.7 c 0,0 -76.61,-102.2 -326.86,-194.1 -250.26,-91.9 -340.44,-168.5 -340.44,-168.5 0,0 23.78,-186.2 177.01,-476.2 153.21,-289.9 604.75,-522.4 899.92,-531.3 295.17,-8.9 662.9,287.3 662.9,287.3 0,0 -403.48,832.2 -566.91,914.1 -163.43,81.9 -505.62,168.7 -505.62,168.7" /><path
         id="path126"
         style="fill:#fbc398;fill-opacity:1;fill-rule:nonzero;stroke:none"
         d="m 6576.85,12774.3 c 31.34,8.4 434.82,-328.7 434.82,-328.7 0,0 255.36,-153.5 301.32,-449.6 45.97,-296.1 -97.03,-648.5 -97.03,-648.5 0,0 -40.86,-485.2 -86.83,-919.3 0,0 10.22,-592.4 -51.07,-1113.4 -61.29,-520.9 -83.14,-616.7 -83.14,-616.7 l -284.17,-266.8 -46.65,174.5 c 0,0 -71.23,1076.7 -66.12,1321.9 5.11,245.1 66.12,505.6 66.12,505.6 v 1072.5 l -242.94,684.4 155.69,584.1" /><path
         id="path128"
         style="fill:#372a23;fill-opacity:1;fill-rule:nonzero;stroke:none"
         d="m 6008.36,14356 c 0,0 -382.46,17.2 -433.54,-370.9 -51.07,-388.2 -153.21,-653.8 -91.92,-852.9 61.28,-199.2 66.39,-235 66.39,-235 l 370.75,-25.5 c 0,0 380.02,115.9 298.3,609.5 -81.71,493.7 -209.98,874.8 -209.98,874.8" /><path
         id="path130"
         style="fill:#3970c0;fill-opacity:1;fill-rule:nonzero;stroke:none"
         d="m 4943.22,11296.4 c 0,0 111.98,-199.1 311.36,-240 199.37,-40.9 480.27,-10.2 623.27,-35.8 143,-25.5 480.08,-71.5 699.7,76.7 219.61,148.1 156.2,531.1 159.81,699.6 3.62,168.6 -0.1,939.8 -128.47,1098.1 -128.38,158.3 -790.62,88.2 -790.62,88.2 l -200.89,-55.8 -511.14,-650.3 c 0,0 -40.44,50.7 -106.84,-281.1 -66.39,-331.8 -107.25,-541.2 -112.36,-556.6 -5.11,-15.3 56.18,-143 56.18,-143" /><path
         id="path132"
         style="fill:#fbc398;fill-opacity:1;fill-rule:nonzero;stroke:none"
         d="m 6087.25,13356.7 -143,-328.4 -125.98,-45.1 c 0,0 -74.91,-547.3 -115.76,-816.3 -40.86,-269 -119.17,-602.7 27.24,-749.1 146.41,-146.4 555.46,-122.6 691.41,105.6 135.96,228.1 146.18,953.3 152.99,970.4 6.81,17 56.42,177.7 56.42,177.7 l -366.17,700.7 -177.15,-15.5" /><path
         id="path134"
         style="fill:#3970c1;fill-opacity:1;fill-rule:nonzero;stroke:none"
         d="m 6008.36,14356 c 0,0 -179.18,-66.5 -223.55,-229.8 -44.38,-163.2 53.11,-279.5 70.02,-263.8 16.91,15.8 153.53,493.6 153.53,493.6" /><path
         id="path136"
         style="fill:#df9866;fill-opacity:1;fill-rule:nonzero;stroke:none"
         d="m 6087.25,13249.7 c 0,0 45.38,-195.4 85.84,-270.1 40.46,-74.7 251.79,-254.9 323.12,-276.1 71.33,-21.1 134.36,-32 134.36,-32 l 124.51,424.8 -249.3,198.5 -418.53,-45.1" /><path
         id="path138"
         style="fill:#523d38;fill-opacity:1;fill-rule:nonzero;stroke:none"
         d="m 6968.83,13811.9 c 11.62,-10.5 99.08,-131.7 99.08,-131.7 0,0 64.09,233.1 18.7,460.4 -45.39,227.2 -224.22,403.7 -584.91,411.2 -360.68,7.6 -568.87,-243.8 -660.62,-424 -91.75,-180.3 -29.69,-481.8 -22.03,-535.9 7.66,-54.1 167.02,-256.6 167.02,-256.6 l 682.41,144.4 300.35,332.2" /><path
         id="path140"
         style="fill:#372a23;fill-opacity:1;fill-rule:nonzero;stroke:none"
         d="m 6332.46,13828.7 c -122.99,99.1 -262.77,463.7 -262.77,463.7 -22.86,-356.1 84.05,-702 84.05,-702 l -30.01,-88.4 c 0,0 -138.59,169.6 -195.04,413.6 -25.62,110.7 -33.36,218.4 -34.19,303.2 -20.89,-31.3 -38.68,-62.1 -53.42,-91 -91.75,-180.3 -29.69,-481.8 -22.03,-535.9 7.66,-54.1 167.02,-256.6 167.02,-256.6 l 682.41,144.4 68.88,76.2 c -167.03,106 -343.65,223.4 -404.9,272.8" /><path
         id="path142"
         style="fill:#fbc398;fill-opacity:1;fill-rule:nonzero;stroke:none"
         d="m 6092.45,13584.4 c 0,0 -62.35,51.7 -125.81,44.9 -63.47,-6.8 -52.86,-120.9 -22.61,-249.3 30.26,-128.4 143.22,-130.3 143.22,-130.3 0,0 36.67,-103.9 64.64,-165.1 27.97,-61.2 273.21,-279.3 337.25,-300.8 64.04,-21.5 151.3,-29.4 208.82,-18.9 57.51,10.5 220.28,186.8 286.25,359.9 65.97,173.1 78.57,417.7 80.53,497.2 1.96,79.4 23.65,226.2 -9.25,348.6 -32.9,122.3 -144.27,211 -343.75,229.1 -199.46,18.1 -360.94,-64.7 -453.27,-216.6 -92.33,-151.9 -99.54,-381.7 -166.02,-398.7" /><path
         id="path144"
         style="fill:#523d38;fill-opacity:1;fill-rule:nonzero;stroke:none"
         d="m 6608.89,14243.6 c 22.09,1.1 175.68,-72.5 217.44,-143.3 41.77,-70.9 95.25,-174.2 146.08,-237.4 50.82,-63.3 100.65,-87.1 100.65,-87.1 l 18.74,29.9 c 0,0 -59.32,49.6 -124.14,143.5 -64.81,93.9 -133.05,265.5 -133.05,265.5 l -225.72,28.9" /><path
         id="path146"
         style="fill:#9c9c9b;fill-opacity:1;fill-rule:nonzero;stroke:none"
         d="M 9848.1,8205.3 666.133,8009.5 c -40.563,-0.9 -72.75,-34.5 -71.879,-75 l 0.68,-31.9 c 0.863,-40.5 34.445,-72.7 75.011,-71.8 L 9851.9,8026.6 c 40.57,0.8 72.75,34.4 71.89,75 l -0.68,31.8 c -0.86,40.6 -34.45,72.7 -75.01,71.9" /><path
         id="path148"
         style="fill:#f5f6f5;fill-opacity:1;fill-rule:nonzero;stroke:none"
         d="m 6144.82,7415.5 c 48.53,-356 53.1,-647 53.1,-647 0,0 30.63,-208.6 61.28,-183.5 30.64,25.2 61.29,173.3 102.15,198.8 40.85,25.6 209.39,46 209.39,46 0,0 31.05,251 57.34,557 -178.83,-1.4 -363.47,15.2 -483.26,28.7" /><path
         id="path150"
         style="fill:#f5f6f5;fill-opacity:1;fill-rule:nonzero;stroke:none"
         d="m 3626.14,7503.9 c 29.55,-353.7 64.51,-654.5 53.89,-699.7 -20.43,-86.8 -56.18,-153.2 -56.18,-153.2 0,0 30.64,-86.8 71.5,-61.3 40.86,25.6 61.29,224.8 137.9,255.4 76.6,30.7 188.97,46 188.97,46 0,0 31.75,274.4 75.98,612.8 -179.55,0 -356.03,0 -472.06,0" /><path
         id="path152"
         style="fill:#2d61a4;fill-opacity:1;fill-rule:nonzero;stroke:none"
         d="m 2142.78,8701.9 c -91.88,2.1 -185.61,0 -185.61,0 0,0 -83.42,-1551.3 0,-1562.6 83.42,-11.2 185.61,0 185.61,0 115.9,0 209.84,349.8 209.84,781.3 0,431.5 -93.94,781.3 -209.84,781.3" /><path
         id="path154"
         style="fill:#3970c0;fill-opacity:1;fill-rule:nonzero;stroke:none"
         d="m 2167.01,7920.6 c 0,-431.5 -93.95,-781.3 -209.84,-781.3 -115.89,0 -209.84,349.8 -209.84,781.3 0,431.5 93.95,781.3 209.84,781.3 115.89,0 209.84,-349.8 209.84,-781.3" /><path
         id="path156"
         style="fill:#c9c8c6;fill-opacity:1;fill-rule:nonzero;stroke:none"
         d="m 2026.12,7948.6 c 0,-120.6 -46.88,-218.4 -104.7,-218.4 -57.82,0 -104.7,97.8 -104.7,218.4 0,120.6 46.88,218.3 104.7,218.3 57.82,0 104.7,-97.7 104.7,-218.3" /><path
         id="path158"
         style="fill:#2d61a4;fill-opacity:1;fill-rule:nonzero;stroke:none"
         d="m 8578.88,8843.3 c -91.91,0.6 -185.59,-3.1 -185.59,-3.1 0,0 -56.78,-1552.5 26.82,-1562.3 83.6,-9.9 185.59,3.1 185.59,3.1 115.87,2 203.8,353.4 196.39,784.8 -7.4,431.4 -107.34,779.5 -223.21,777.5" /><path
         id="path160"
         style="fill:#3970c0;fill-opacity:1;fill-rule:nonzero;stroke:none"
         d="m 8616.51,8062.6 c 7.41,-431.4 -80.52,-782.8 -196.4,-784.7 -115.87,-2 -215.81,346.1 -223.22,777.5 -7.41,431.4 80.52,782.8 196.4,784.8 115.88,2 215.82,-346.2 223.22,-777.6" /><path
         id="path162"
         style="fill:#c9c8c6;fill-opacity:1;fill-rule:nonzero;stroke:none"
         d="m 8475.16,8088.2 c 2.07,-120.6 -43.12,-219.1 -100.94,-220.1 -57.81,-1 -106.36,95.9 -108.43,216.5 -2.07,120.5 43.12,219.1 100.94,220.1 57.81,1 106.36,-96 108.43,-216.5" /><path
         id="path164"
         style="fill:#9c9c9b;fill-opacity:1;fill-rule:nonzero;stroke:none"
         d="m 7978.64,8110.7 47.64,55.7 348.17,7.5 c 0,0 48.45,-75.1 0,-178.8 l -362.59,-7.8 -33.22,123.4" /><path
         id="path166"
         style="fill:#9c9c9b;fill-opacity:1;fill-rule:nonzero;stroke:none"
         d="m 1586.78,8029.1 334.64,7.1 c 0,0 28.94,-66.8 10.22,-179.1 l -374.63,-7.4 29.77,179.4" /><path
         id="path168"
         style="fill:#fbc398;fill-opacity:1;fill-rule:nonzero;stroke:none"
         d="m 4606.14,8378.5 c 10.22,3.4 86.41,104.8 86.41,104.8 0,0 -22.55,511.5 0,845.1 22.55,333.7 29.35,844.4 29.35,844.4 0,0 154.94,422.2 237.5,793.4 82.56,371.1 92.78,568.6 92.78,568.6 l 202.4,306.5 -658.65,192.8 -56.1,-255.4 c 0,0 -158.41,-696.8 -214.59,-1115.6 -56.18,-418.8 -100.72,-663.9 -58.02,-1087.8 42.7,-423.9 76.75,-927.8 76.75,-927.8 l 52.77,-269 h 209.4" /><path
         id="path170"
         style="fill:#fbc398;fill-opacity:1;fill-rule:nonzero;stroke:none"
         d="m 5065.8,11759.5 47.22,-132.6 c 0,0 231.98,81.5 323.9,296 91.93,214.5 180.46,1004.5 180.46,1004.5 0,0 -364.32,-40.9 -551.58,-132.8 -187.27,-92 -446.03,-363.3 -469.87,-760.5 -23.84,-397.2 469.87,-274.6 469.87,-274.6" /><path
         id="path172"
         style="fill:#fbc398;fill-opacity:1;fill-rule:nonzero;stroke:none"
         d="m 4343.97,8647.5 c 0,0 -46.13,-352.9 -62.3,-472.9 -16.18,-120.1 -22.13,-283.5 0,-316.7 22.13,-33.2 65.54,-25.5 65.54,-25.5 0,0 15.32,-48.5 74.05,-48.5 58.74,0 71.51,20.4 71.51,20.4 0,0 35.75,-25.6 71.5,-20.4 35.75,5.1 53.63,20.4 53.63,20.4 0,0 91.93,-28.1 117.46,0 25.54,28.1 81.98,209.4 48.52,372.8 -33.46,163.4 -158.32,492 -158.32,492 0,0 -176.2,89.2 -211.96,65.5 -35.74,-23.8 -69.63,-87.1 -69.63,-87.1" /><path
         id="path174"
         style="fill:#fbc398;fill-opacity:1;fill-rule:nonzero;stroke:none"
         d="m 6581.24,8550 c 0,0 -173.65,-269 -180.46,-303.1 -6.81,-34 -14.33,-116.9 -14.33,-116.9 h 153.93 l 5.1,-72.1 -23.83,-103.8 -78.14,-1.6 c 0,0 42.39,-93.7 107.08,-107.4 64.69,-13.6 64.69,-13.6 64.69,-13.6 0,0 25.54,-51.1 73.21,-49.3 47.67,1.7 80.01,22.1 80.01,22.1 0,0 34.05,-10.2 85.12,0 51.08,10.2 97.04,-18.7 151.52,44.3 54.47,62.9 22.13,362.6 0,473.2 -22.13,110.7 3.4,374.6 -10.22,376.3 -13.62,1.7 -151.51,20.4 -255.36,-44.3 C 6635.71,8589.1 6581.24,8550 6581.24,8550" /></g></g></svg>