<?xml version="1.0" encoding="UTF-8" standalone="no"?>
<svg
   xmlns:dc="http://purl.org/dc/elements/1.1/"
   xmlns:cc="http://creativecommons.org/ns#"
   xmlns:rdf="http://www.w3.org/1999/02/22-rdf-syntax-ns#"
   xmlns:svg="http://www.w3.org/2000/svg"
   xmlns="http://www.w3.org/2000/svg"
   viewBox="0 0 2666.6667 2666.6667"
   height="2666.6667"
   width="2666.6667"
   xml:space="preserve"
   id="svg2"
   version="1.1"><metadata
     id="metadata8"><rdf:RDF><cc:Work
         rdf:about=""><dc:format>image/svg+xml</dc:format><dc:type
           rdf:resource="http://purl.org/dc/dcmitype/StillImage" /></cc:Work></rdf:RDF></metadata><defs
     id="defs6" /><g
     transform="matrix(1.3333333,0,0,-1.3333333,0,2666.6667)"
     id="g10"><g
       transform="scale(0.1)"
       id="g12"><g
         transform="scale(1.22699)"
         id="g14"><path
           id="path16"
           style="fill:none;fill-opacity:1;fill-rule:nonzero;stroke:none"
           d="M 16300,0 H 0 V 16300 H 16300 V 0" /></g><path
         id="path18"
         style="fill:#d0d0cb;fill-opacity:1;fill-rule:nonzero;stroke:none"
         d="m 9990.48,10322.8 -8742.08,83.5 v -0.2 l -2.36,0.2 c -46.92,0 -84.96,-51.4 -84.96,-114.9 0,-63.4 38.04,-114.8 84.96,-114.8 h 0.29 l 8744.15,-83.5 v 229.7" /><path
         id="path20"
         style="fill:#fbc398;fill-opacity:1;fill-rule:nonzero;stroke:none"
         d="m 3620,8633.2 c 0,0 103.53,-493.7 79.63,-661 -23.88,-167.2 -406.11,-485.7 -382.22,-971.5 23.88,-485.7 126.61,-820.2 150.89,-1114.8 24.29,-294.6 41.48,-422 41.48,-422 l 373.01,55.7 c 0,0 -44.59,589.3 113.07,971.5 157.67,382.2 157.67,852 165.63,891.9 7.97,39.8 368.03,968.8 390.19,1250.2 22.17,281.3 -931.68,0 -931.68,0" /><path
         id="path22"
         style="fill:#fbc398;fill-opacity:1;fill-rule:nonzero;stroke:none"
         d="m 4394.41,8916.6 c 0,0 499.69,-912.5 547.47,-1111.6 47.78,-199.1 -244.6,-660.9 -225.82,-1035.2 18.78,-374.3 241.74,-716.7 313.41,-979.5 71.67,-262.7 79.63,-453.9 79.63,-453.9 l 430.01,55.8 c 0,0 15.93,374.3 87.59,796.3 71.67,422 39.82,1250.2 39.82,1250.2 0,0 103.52,238.9 111.48,453.9 7.97,215 0,342.4 0,342.4 0,0 79.63,581.3 39.82,844.1 C 5778,9341.9 4394.41,8916.6 4394.41,8916.6" /><path
         id="path24"
         style="fill:#eaad81;fill-opacity:1;fill-rule:nonzero;stroke:none"
         d="m 3548.33,6578.7 c 0,0 -238.89,445.9 31.86,796.3 0.39,0.5 0.68,0.8 0.88,0.8 7.15,0 -110.24,-332.1 -32.74,-797.1" /><path
         id="path26"
         style="fill:#eaad81;fill-opacity:1;fill-rule:nonzero;stroke:none"
         d="m 5316.14,6475.2 c 103.52,406.1 47.78,844.1 47.78,844.1 230.93,-597.3 -47.78,-844.1 -47.78,-844.1" /><path
         id="path28"
         style="fill:#fbc398;fill-opacity:1;fill-rule:nonzero;stroke:none"
         d="m 3569.57,13663.2 c 0,0 -233.58,-47.8 -350.38,-233.6 -116.79,-185.8 -122.1,-334.4 -148.64,-392.8 -26.54,-58.4 -148.65,-233.6 -143.33,-440.7 5.3,-207 -58.74,-658.2 -0.17,-822.8 58.56,-164.6 95.72,-488.4 254.99,-674.2 159.25,-185.8 408.77,-472.5 408.77,-472.5 l 169.87,196.2 c 0,0 -127.4,557.6 -159.25,701 -31.86,143.3 -111.49,222.9 -111.49,222.9 l 153.95,355.7 c 0,0 419.39,971.5 392.85,1093.6 -26.54,122.1 -467.17,467.2 -467.17,467.2" /><path
         id="path30"
         style="fill:#252323;fill-opacity:1;fill-rule:nonzero;stroke:none"
         d="m 3739.45,11008.8 c 0,0 -228.27,-177.8 -257.47,-599.9 -29.2,-422 -7.97,-700.7 29.2,-804.2 37.15,-103.6 -61.05,-716.7 0,-1059.1 0,0 161.68,-100.9 526.77,-95.6 365.09,5.3 561.52,47.8 561.52,47.8 l 26.54,132.7 c 0,0 392.85,21.2 668.9,37.2 276.05,15.9 668.9,238.9 668.9,238.9 0,0 -53.09,599.9 -233.59,1061.7 -180.49,461.9 -355.68,854.7 -355.68,854.7 l -1242.25,483.1 -392.84,-297.3" /><path
         id="path32"
         style="fill:#dc9b70;fill-opacity:1;fill-rule:nonzero;stroke:none"
         d="m 3367.84,13015.5 c 0,0 -15.93,-154.4 53.09,-337.3 69.01,-182.9 90.25,-294.4 90.25,-294.4 l 127.4,-119.7 v 133.1 c 0,0 -114.05,193.6 -168.51,305.1 -54.45,111.5 -102.23,313.2 -102.23,313.2" /><path
         id="path34"
         style="fill:#dc9b70;fill-opacity:1;fill-rule:nonzero;stroke:none"
         d="m 3251.05,11513.2 c 0,0 188.54,-260.2 219.02,-546.8 0,0 88.89,337.1 -219.02,546.8" /><path
         id="path36"
         style="fill:#dc9b70;fill-opacity:1;fill-rule:nonzero;stroke:none"
         d="m 3442.16,12219.2 c 0,0 -82.28,-127.4 -75.65,-376.9 0,0 -131.39,254.8 75.65,376.9" /><path
         id="path38"
         style="fill:#3970c1;fill-opacity:1;fill-rule:nonzero;stroke:none"
         d="m 3755.38,13793.3 -111.49,-98.3 -74.32,-31.8 c 0,0 139.44,-254.8 132.72,-658.3 -10.62,-637 -191.11,-621.1 -191.11,-621.1 0,0 26.54,-244.2 122.1,-451.3 95.55,-207 180.49,-323.8 191.11,-467.1 10.62,-143.4 -84.94,-456.6 -84.94,-456.6 0,0 138.03,-116.8 355.69,-111.5 217.65,5.4 477.78,5.4 663.59,-37.1 185.8,-42.5 615.81,-37.2 615.81,-37.2 l -31.85,960.9 -58.4,1236.9 -440.62,791 c 0,0 -254.82,169.9 -318.53,159.3 -63.7,-10.6 -769.76,-177.8 -769.76,-177.8" /><path
         id="path40"
         style="fill:#fbc398;fill-opacity:1;fill-rule:nonzero;stroke:none"
         d="m 4957.8,15152.3 c 21.24,0 172.54,-106.2 172.54,-106.2 0,0 21.23,-132.7 26.54,-164.6 5.31,-31.8 31.86,-122.1 18.58,-172.5 -13.27,-50.4 -15.92,-66.3 -15.92,-66.3 0,0 39.81,-148.7 -7.97,-270.8 -47.78,-122.1 -49.41,-326.5 -83.1,-361 -33.69,-34.5 -211.53,-15.9 -211.53,-15.9 l -13.27,-183.2 c 0,0 -327.82,-22.5 -427.36,-74.3 -99.53,-51.7 -250.83,-111.5 -282.69,-99.5 -31.85,11.9 -79.63,79.6 -222.96,95.5 -143.34,15.9 -155.28,59.8 -155.28,59.8 0,0 175.19,75.6 282.69,195.1 107.5,119.4 131.39,317.2 131.39,317.2 l 297.8,495 c 0,0 199.89,87.6 235.72,111.5 35.84,23.9 254.82,240.2 254.82,240.2" /><path
         id="path42"
         style="fill:#252323;fill-opacity:1;fill-rule:nonzero;stroke:none"
         d="m 4169.46,14305.6 c 0,0 222.97,-26.6 315.87,0 92.9,26.5 138.02,95.5 193.77,127.3 55.74,31.9 108.82,135.4 108.82,135.4 0,0 -53.08,169.9 45.13,199.1 98.21,29.2 103.52,-50.4 116.79,-82.3 13.28,-31.8 18.58,-92.9 18.58,-92.9 0,0 18.58,15.9 23.89,45.1 5.31,29.2 26.55,47.8 37.16,71.7 10.62,23.9 2.66,79.6 0,130.1 -2.65,50.4 -10.5,92.9 5.37,106.2 15.87,13.2 29.14,71.6 45.07,82.2 15.92,10.7 50.43,18.6 50.43,18.6 0,0 13.27,124.8 0,193.8 -13.27,69 7.96,111.5 -116.8,124.7 -124.75,13.3 -148.64,-2.6 -188.45,0 -39.82,2.7 -140.69,5.3 -183.16,-10.6 -42.46,-15.9 -122.1,15.9 -291.97,-39.8 -169.89,-55.7 -199.08,-148.6 -225.62,-183.1 -26.55,-34.5 -106.18,-103.6 -116.8,-185.8 -10.62,-82.3 13.28,-188.5 42.47,-265.5 29.2,-77 119.45,-374.2 119.45,-374.2" /><path
         id="path44"
         style="fill:#dc9b70;fill-opacity:1;fill-rule:nonzero;stroke:none"
         d="m 4787.92,14568.3 c 0,0 23.9,-76.9 63.71,-111.4 39.82,-34.6 39.82,-34.6 39.82,-34.6 0,0 -21.24,-31.5 -31.86,-128.5 -10.62,-97.1 -2.65,-298.8 -2.65,-298.8 l -9.42,-130 c 0,0 -56.94,193.7 -59.6,297.2 -2.65,103.5 51.77,232.2 51.77,232.2 0,0 -37.59,72.9 -51.77,173.9" /><path
         id="path46"
         style="fill:#fbc398;fill-opacity:1;fill-rule:nonzero;stroke:none"
         d="m 4843.66,13811.8 c 0,0 -395.49,-26.5 -554.75,-384.9 -159.27,-358.3 -41.96,-849.3 178.34,-1000.6 220.32,-151.3 424.19,-29.1 424.19,-29.1 l 376.93,-401 c 0,0 53.08,-201.7 143.33,-265.4 0,0 132.72,-445.9 387.54,-621.1 254.82,-175.2 403.46,-270.8 461.86,-376.9 58.39,-106.2 58.39,-106.2 58.39,-106.2 l 329.15,154 c 0,0 -116.8,196.4 -185.81,345 -69.01,148.7 -116.79,435.3 -217.66,647.7 -100.86,212.3 -313.21,376.9 -339.76,419.4 -26.54,42.4 -31.85,233.6 -191.11,461.8 -159.26,228.3 -159.26,228.3 -159.26,228.3 0,0 -10.62,382.2 -228.28,615.8 -217.66,233.6 -483.1,313.2 -483.1,313.2" /><path
         id="path48"
         style="fill:#dc9b70;fill-opacity:1;fill-rule:nonzero;stroke:none"
         d="m 4742.8,12983.7 c 0,0 -42.47,-307.7 148.65,-586.5 l -81.09,-24.5 c 0,0 -35.71,112 -110.03,149.1 -74.32,37.2 -286.67,185.8 -286.67,185.8 l 238.89,-74.3 c 0,0 -5.3,191.1 90.25,350.4" /><path
         id="path50"
         style="fill:#dc9b70;fill-opacity:1;fill-rule:nonzero;stroke:none"
         d="m 5292.77,12841.2 c 0,0 81.77,-276.9 389.68,-542.4 0,0 -333.42,124 -389.68,542.4" /><path
         id="path52"
         style="fill:#eaad81;fill-opacity:1;fill-rule:nonzero;stroke:none"
         d="m 6261.1,11237.1 c 0,0 -366.31,63.7 -361,509.6 0,0 84.94,-318.5 361,-509.6" /><path
         id="path54"
         style="fill:#3067ac;fill-opacity:1;fill-rule:nonzero;stroke:none"
         d="m 4111.06,13551.7 c 5.31,-21.2 -71.9,-132.7 -73.11,-499 -1.21,-366.3 184.59,-1045.8 200.52,-1306 0,0 -270.75,870.7 -281.36,1268.8 -10.62,398.2 153.95,536.2 153.95,536.2" /><path
         id="path56"
         style="fill:#100f0d;fill-opacity:1;fill-rule:nonzero;stroke:none"
         d="m 4068.59,10626.6 c 21.24,-26.5 -74.32,-382.2 69.02,-653 143.33,-270.7 276.05,-361 305.25,-424.7 29.2,-63.7 183.15,-918.4 183.15,-918.4 l -26.54,-132.7 -156.61,-23.4 -101.45,925.9 c 0,0 -278.13,254.8 -331.21,557.4 -53.09,302.6 58.39,668.9 58.39,668.9" /><path
         id="path58"
         style="fill:#3970c1;fill-opacity:1;fill-rule:nonzero;stroke:none"
         d="m 3504.36,5436.3 c 0,0 -59.16,-195.6 -72.82,-291.2 -13.65,-95.6 0,-232 213.9,-234.3 213.9,-2.4 218.45,111.4 400.49,156.9 182.04,45.5 391.39,59.2 509.71,182.1 118.33,122.8 72.82,227.5 50.06,245.7 -22.75,18.2 -300.36,-31.8 -341.32,-22.7 -40.96,9.1 -255.18,119.1 -291.59,137.3 -36.41,18.2 -74.11,-23.3 -92.32,-50.6 -18.2,-27.3 33.48,-91.3 -34.79,-109.5 -68.26,-18.2 -341.32,-13.7 -341.32,-13.7" /><path
         id="path60"
         style="fill:#f5f6f5;fill-opacity:1;fill-rule:nonzero;stroke:none"
         d="m 5086.42,5529.7 c 0,0 350.99,6 463.56,29.8 l 20.98,-175.8 41.76,-28.7 c 0,0 57.78,-209.7 49.82,-253.5 -7.96,-43.8 -207.06,-135.3 -207.06,-135.3 l -258.78,99.5 -85.01,119.4 -25.27,344.6" /><path
         id="path62"
         style="fill:#f5f6f5;fill-opacity:1;fill-rule:nonzero;stroke:none"
         d="m 3485.86,5686.9 c -0.27,2.9 391.11,27.8 391.11,27.8 l 29.7,-250.8 c 0,0 -55.74,-88.6 -179.17,-80.2 -123.42,8.5 -223.14,52.6 -223.14,52.6 l -18.5,250.6" /><path
         id="path64"
         style="fill:#fbc398;fill-opacity:1;fill-rule:nonzero;stroke:none"
         d="m 6319.49,10626.6 c 0,0 -106.17,-183.2 -111.48,-212.4 -5.31,-29.1 7.96,-215 21.24,-289.3 13.27,-74.3 127.41,-249.7 159.26,-246.9 31.85,2.7 39.82,50.5 15.92,143.4 -23.88,92.9 -63.7,230.9 -63.7,230.9 0,0 148.65,106.2 159.26,106.2 10.62,0 353.03,-5.3 353.03,-5.3 0,0 -37.16,92.9 -82.28,161.9 -45.13,69 -122.1,265.5 -122.1,265.5 l -130.07,42.2 -199.08,-196.2" /><path
         id="path66"
         style="fill:#fbc398;fill-opacity:1;fill-rule:nonzero;stroke:none"
         d="m 6332.76,10093.1 c 7.97,2.6 55.75,61 108.84,61 53.08,0 122.1,-5.3 140.68,0 18.57,5.3 66.36,-30.5 66.36,-30.5 l 193.76,0.3 c 0,0 -61.05,-83.9 -111.48,-99.8 -50.43,-16 -112.68,-50.5 -201,-61.1 -88.32,-10.6 -197.16,0 -197.16,0 v 130.1" /><path
         id="path68"
         style="fill:#e4e4e3;fill-opacity:1;fill-rule:nonzero;stroke:none"
         d="m 10064.8,10208 c 0,-63.4 -38,-114.8 -84.95,-114.8 -46.92,0 -84.95,51.4 -84.95,114.8 0,63.5 38.03,114.9 84.95,114.9 46.95,0 84.95,-51.4 84.95,-114.9" /><path
         id="path70"
         style="fill:#5b5f5f;fill-opacity:1;fill-rule:nonzero;stroke:none"
         d="m 2665.81,11082.6 5.21,156.6 h -306.91 c -313.7,10.5 -581.77,-395 -598.76,-905.6 -16.98,-510.6 223.55,-933 537.25,-943.4 h 306.91 l 4.53,136.2 c 162.66,159.2 276.44,442.7 287.31,769.4 10.87,326.8 -83.82,617.2 -235.54,786.8" /><path
         id="path72"
         style="fill:#8d8d8d;fill-opacity:1;fill-rule:nonzero;stroke:none"
         d="m 3208.26,10295.8 c -16.98,-510.6 -285.05,-916.1 -598.75,-905.6 -313.7,10.4 -554.23,432.8 -537.24,943.4 16.98,510.6 285.05,916.1 598.75,905.6 313.7,-10.4 554.23,-432.8 537.24,-943.4" /><path
         id="path74"
         style="fill:#5b5f5f;fill-opacity:1;fill-rule:nonzero;stroke:none"
         d="m 8302.35,11103.6 5.48,175.8 h -322.36 c -329.48,11.7 -611.04,-443.4 -628.88,-1016.5 -17.84,-573.1 234.79,-1047.1 564.27,-1058.8 h 322.36 l 4.76,152.9 c 170.85,178.6 290.35,496.8 301.77,863.5 11.41,366.7 -88.04,692.7 -247.4,883.1" /><path
         id="path76"
         style="fill:#8d8d8d;fill-opacity:1;fill-rule:nonzero;stroke:none"
         d="m 8872.1,10220.5 c -17.84,-573.1 -299.4,-1028.1 -628.88,-1016.4 -329.48,11.7 -582.12,485.7 -564.28,1058.8 17.84,573.1 299.4,1028.2 628.89,1016.5 329.48,-11.8 582.12,-485.8 564.27,-1058.9" /><path
         id="path78"
         style="fill:#5b5f5f;fill-opacity:1;fill-rule:nonzero;stroke:none"
         d="m 2767.95,10305.4 c 0,-140.7 -67.74,-254.8 -151.29,-254.8 -83.56,0 -151.3,114.1 -151.3,254.8 0,140.8 67.74,254.8 151.3,254.8 83.55,0 151.29,-114 151.29,-254.8" /><path
         id="path80"
         style="fill:#5b5f5f;fill-opacity:1;fill-rule:nonzero;stroke:none"
         d="m 8461.57,10245.7 c 0,-147.3 -77.55,-266.8 -173.2,-266.8 -95.66,0 -173.2,119.5 -173.2,266.8 0,147.3 77.54,266.8 173.2,266.8 95.65,0 173.2,-119.5 173.2,-266.8" /><path
         id="path82"
         style="fill:#d0d0cb;fill-opacity:1;fill-rule:nonzero;stroke:none"
         d="m 8288.37,10339.1 c 0,0 -67.42,-120.3 0,-229.8 l 806.25,-7.7 v 229.8 l -806.25,7.7" /><path
         id="path84"
         style="fill:#3970c1;fill-opacity:1;fill-rule:nonzero;stroke:none"
         d="m 5111.69,5185.1 c 0,0 -131.56,-437.7 -56.47,-519.6 75.1,-81.9 546.13,0 901.1,27.3 354.98,27.3 580.26,147.9 607.57,257.1 27.3,109.3 -54.62,122.9 -159.29,154.8 -104.67,31.8 -323.12,50 -427.79,81.9 -104.68,31.8 -259.41,186.6 -300.37,195.7 -40.96,9.1 -105.48,1.4 -105.48,1.4 0,0 28.11,-201.7 -44.71,-229 -72.81,-27.3 -414.56,30.4 -414.56,30.4" /><path
         id="path86"
         style="fill:#d0d0cb;fill-opacity:1;fill-rule:nonzero;stroke:none"
         d="m 2640.26,10393 c 0,0 -91.85,-93.2 0,-229.7 l 756.76,-7.3 v 229.8 l -756.76,7.2" /><g
         transform="scale(1.15603)"
         id="g88"><path
           id="path90"
           style="fill:#d0d0cb;fill-opacity:1;fill-rule:nonzero;stroke:none"
           d="m 16295.8,11751.2 c 4.2,-54.7 -25.3,-101.6 -65.7,-104.7 -40.5,-3 -76.7,38.8 -80.8,93.5 -4.2,54.8 25.3,101.6 65.8,104.7 40.4,3.1 76.6,-38.8 80.7,-93.5" /></g><g
         transform="scale(1.15172)"
         id="g92"><path
           id="path94"
           style="fill:#d0d0cb;fill-opacity:1;fill-rule:nonzero;stroke:none"
           d="m 16284.9,11889.6 -7574.22,-502.3 0.09,-0.1 h -2.09 c -40.62,-3.1 -70.18,-50.1 -66,-105.1 4.17,-54.9 40.48,-96.9 81.11,-93.8 h 0.26 l 7575.95,502.4 -15.1,198.9" /></g><path
         id="path96"
         style="fill:#5b5f5f;fill-opacity:1;fill-rule:nonzero;stroke:none"
         d="m 11394.5,13896.8 -6.7,156.5 -306,-23.2 c -313.6,-13.4 -550.2,-438 -528.5,-948.4 21.7,-510.4 293.5,-913.4 607.1,-900 l 306.1,23.2 -5.8,136.2 c 150.1,171 242.1,462.3 228.2,788.9 -13.9,326.7 -130.3,609.1 -294.4,766.8" /><path
         id="path98"
         style="fill:#8d8d8d;fill-opacity:1;fill-rule:nonzero;stroke:none"
         d="m 11994.9,13153.3 c 21.8,-510.5 -214.9,-935.1 -528.4,-948.4 -313.6,-13.4 -585.4,389.6 -607.1,900 -21.8,510.5 214.8,935.1 528.4,948.4 313.6,13.4 585.4,-389.6 607.1,-900" /><g
         transform="scale(1.064)"
         id="g100"><path
           id="path102"
           style="fill:#5b5f5f;fill-opacity:1;fill-rule:nonzero;stroke:none"
           d="m 15989.9,13481.5 -7.4,165.1 -302,-23 c -309.6,-12.4 -541.1,-458.9 -517.1,-997.2 24.1,-538.4 294.5,-964.7 604.2,-952.2 l 302,22.9 -6.3,143.6 c 147.3,179.7 236.7,486.3 221.3,830.8 -15.4,344.5 -131.8,642.8 -294.7,810" /></g><g
         transform="scale(1.08428)"
         id="g104"><path
           id="path106"
           style="fill:#8d8d8d;fill-opacity:1;fill-rule:nonzero;stroke:none"
           d="m 16276.4,12457 c 23.6,-528.3 -203.6,-966.4 -507.3,-978.7 -303.8,-12.2 -569.3,406.1 -592.9,934.4 -23.6,528.2 203.6,966.4 507.4,978.6 303.8,12.2 569.3,-406.1 592.8,-934.3" /></g><path
         id="path108"
         style="fill:#5b5f5f;fill-opacity:1;fill-rule:nonzero;stroke:none"
         d="m 11555.2,13129.5 c 10.6,-140.3 -48.3,-259.2 -131.6,-265.5 -83.3,-6.4 -159.5,102.3 -170.2,242.6 -10.6,140.3 48.3,259.2 131.6,265.5 83.3,6.4 159.5,-102.3 170.2,-242.6" /><path
         id="path110"
         style="fill:#d0d0cb;fill-opacity:1;fill-rule:nonzero;stroke:none"
         d="m 11421.2,13207.2 c 0,0 -84.5,-99.9 17.4,-229.1 l 755.1,50.1 -17.3,229 -755.2,-50" /><g
         transform="scale(1.05817)"
         id="g112"><path
           id="path114"
           style="fill:#5b5f5f;fill-opacity:1;fill-rule:nonzero;stroke:none"
           d="m 16289.5,12758.8 c 10.5,-138.8 -54,-256.9 -144.1,-263.8 -90.2,-6.8 -171.8,100.2 -182.3,239 -10.6,138.8 54,256.9 144.1,263.8 90.2,6.8 171.7,-100.2 182.3,-239" /></g><g
         transform="scale(1.09688)"
         id="g116"><path
           id="path118"
           style="fill:#d0d0cb;fill-opacity:1;fill-rule:nonzero;stroke:none"
           d="m 15550.7,12381.4 c 0,0 -53,-114 15.9,-208.8 l 733.4,48.6 -15.9,208.9 -733.4,-48.7" /></g><path
         id="path120"
         style="fill:#fbc398;fill-opacity:1;fill-rule:nonzero;stroke:none"
         d="m 12053.1,8633.2 c 0,0 103.5,-493.7 79.6,-661 -23.9,-167.2 -406.1,-485.7 -382.2,-971.5 23.9,-485.7 126.6,-820.2 150.9,-1114.8 24.3,-294.6 41.5,-422 41.5,-422 l 373,55.7 c 0,0 -44.6,589.3 113,971.5 157.7,382.2 157.7,852 165.7,891.9 7.9,39.8 368,968.8 390.2,1250.2 22.1,281.3 -931.7,0 -931.7,0" /><path
         id="path122"
         style="fill:#fbc398;fill-opacity:1;fill-rule:nonzero;stroke:none"
         d="m 12827.5,8916.6 c 0,0 499.7,-912.5 547.5,-1111.6 47.7,-199.1 -244.6,-660.9 -225.9,-1035.2 18.8,-374.3 241.8,-716.7 313.4,-979.5 71.7,-262.7 79.7,-453.9 79.7,-453.9 l 430,55.8 c 0,0 15.9,374.3 87.6,796.3 71.7,422 39.8,1250.2 39.8,1250.2 0,0 103.5,238.9 111.5,453.9 7.9,215 0,342.4 0,342.4 0,0 79.6,581.3 39.8,844.1 -39.8,262.8 -1423.4,-162.5 -1423.4,-162.5" /><path
         id="path124"
         style="fill:#eaad81;fill-opacity:1;fill-rule:nonzero;stroke:none"
         d="m 11981.4,6578.7 c 0,0 -238.9,445.9 31.9,796.3 0.4,0.5 0.7,0.8 0.8,0.8 7.2,0 -110.2,-332.1 -32.7,-797.1" /><path
         id="path126"
         style="fill:#eaad81;fill-opacity:1;fill-rule:nonzero;stroke:none"
         d="m 13749.2,6475.2 c 103.5,406.1 47.8,844.1 47.8,844.1 230.9,-597.3 -47.8,-844.1 -47.8,-844.1" /><path
         id="path128"
         style="fill:#252323;fill-opacity:1;fill-rule:nonzero;stroke:none"
         d="m 12172.5,11008.8 c 0,0 -228.2,-177.8 -257.4,-599.9 -29.2,-422 -8,-700.7 29.2,-804.2 37.1,-103.6 -61.1,-716.7 0,-1059.1 0,0 161.6,-100.9 526.7,-95.6 365.1,5.3 561.5,47.8 561.5,47.8 l 26.6,132.7 c 0,0 392.8,21.2 668.9,37.2 276,15.9 668.9,238.9 668.9,238.9 0,0 -53.1,599.9 -233.6,1061.7 -180.5,461.9 -355.7,854.7 -355.7,854.7 l -1242.2,483.1 -392.9,-297.3" /><path
         id="path130"
         style="fill:#100f0d;fill-opacity:1;fill-rule:nonzero;stroke:none"
         d="m 12501.7,10626.6 c 21.2,-26.5 -74.4,-382.2 69,-653 143.3,-270.7 276,-361 305.2,-424.7 29.2,-63.7 183.2,-918.4 183.2,-918.4 l -26.6,-132.7 -156.6,-23.4 -101.4,925.9 c 0,0 -278.1,254.8 -331.2,557.4 -53.1,302.6 58.4,668.9 58.4,668.9" /><path
         id="path132"
         style="fill:#fbc398;fill-opacity:1;fill-rule:nonzero;stroke:none"
         d="m 11791,12463.4 c 0,0 -136.2,260.2 -152.2,366.3 -15.9,106.2 -143.3,329.2 -143.3,329.2 0,0 -307.9,90.2 -509.6,249.5 -201.8,159.2 -148.7,393 -90.3,456.6 58.4,63.6 323.9,169.8 637.1,58.3 0,0 270.7,53.1 483.1,-79.6 l 76.9,-34.5 c 0,0 107.5,-151.3 187.2,-294.7 79.6,-143.3 226.9,-324.3 135.3,-536.4 -91.5,-212.1 -513.6,-557.3 -513.6,-557.3 l -110.6,42.6" /><path
         id="path134"
         style="fill:#eaac82;fill-opacity:1;fill-rule:nonzero;stroke:none"
         d="m 11495.5,13158.9 v 0 0 m 0,0 -74.3,48.3 c 0,0 -90.8,147.7 5.9,335.2 0,0 -7.2,-185.8 68.4,-383.5" /><path
         id="path136"
         style="fill:#f0b489;fill-opacity:1;fill-rule:nonzero;stroke:none"
         d="m 11404.3,13741.5 c 0,0 -42.5,109.1 64.2,201.9 l 64.2,-20.1 c 0,0 -124,-66.3 -128.4,-181.8" /><path
         id="path138"
         style="fill:#f0b489;fill-opacity:1;fill-rule:nonzero;stroke:none"
         d="m 12021.1,13594.2 c 0,0 -106.2,116.8 -5.3,249.5 l 76.9,-34.5 c 0,0 -87.6,-71.6 -71.6,-215" /><path
         id="path140"
         style="fill:#3067ac;fill-opacity:1;fill-rule:nonzero;stroke:none"
         d="m 12578.5,13817.1 c 0,0 -169.9,-456.5 -175.2,-743.2 -5.3,-286.6 175.2,-1093.6 175.2,-1093.6 0,0 -241.5,623.5 -237.6,1057.6 4,434.2 237.6,779.2 237.6,779.2" /><path
         id="path142"
         style="fill:#fbc398;fill-opacity:1;fill-rule:nonzero;stroke:none"
         d="m 13390.9,15152.3 c 21.2,0 172.5,-106.2 172.5,-106.2 0,0 21.2,-132.7 26.6,-164.6 5.3,-31.8 31.8,-122.1 18.5,-172.5 -13.2,-50.4 -15.9,-66.3 -15.9,-66.3 0,0 39.8,-148.7 -8,-270.8 -47.7,-122.1 -49.4,-326.5 -83,-361 -33.7,-34.5 -211.6,-15.9 -211.6,-15.9 l -13.3,-183.2 c 0,0 -402.2,4 -501.8,-47.7 -99.5,-51.8 -244.2,-139.2 -276,-127.2 -31.9,11.9 -20.3,119.4 -163.6,135.3 -143.4,15.9 -112.5,92.8 -112.5,92.8 0,0 187.8,68.9 295.3,188.3 107.5,119.5 84.4,252.3 84.4,252.3 l 297.8,495 c 0,0 199.9,87.6 235.8,111.5 35.8,23.9 254.8,240.2 254.8,240.2" /><path
         id="path144"
         style="fill:#dc9b70;fill-opacity:1;fill-rule:nonzero;stroke:none"
         d="m 13221,14568.3 c 0,0 23.9,-76.9 63.7,-111.4 39.8,-34.6 39.8,-34.6 39.8,-34.6 0,0 -21.2,-31.5 -31.8,-128.5 -10.6,-97.1 -2.7,-298.8 -2.7,-298.8 l -9.4,-130 c 0,0 -56.9,193.7 -59.6,297.2 -2.7,103.5 51.8,232.2 51.8,232.2 0,0 -37.6,72.9 -51.8,173.9" /><path
         id="path146"
         style="fill:#252323;fill-opacity:1;fill-rule:nonzero;stroke:none"
         d="m 12602.5,14305.6 c 0,0 223,-26.6 315.9,0 92.9,26.5 138,95.5 193.8,127.3 55.7,31.9 108.8,135.4 108.8,135.4 0,0 -53.1,169.9 45.1,199.1 98.2,29.2 103.5,-50.4 116.8,-82.3 13.3,-31.8 18.6,-92.9 18.6,-92.9 0,0 18.6,15.9 23.9,45.1 5.3,29.2 26.5,47.8 37.1,71.7 10.7,23.9 2.7,79.6 0,130.1 -2.6,50.4 -10.4,92.9 5.4,106.2 15.9,13.2 29.2,71.6 45.1,82.2 15.9,10.7 50.4,18.6 50.4,18.6 0,0 13.3,124.8 0,193.8 -13.3,69 8,111.5 -116.8,124.7 -124.7,13.3 -148.6,-2.6 -188.4,0 -39.9,2.7 -140.7,5.3 -183.2,-10.6 -42.5,-15.9 -122.1,15.9 -292,-39.8 -169.8,-55.7 -199,-148.6 -225.6,-183.1 -26.5,-34.5 -106.2,-103.6 -116.8,-185.8 -10.6,-82.3 13.3,-188.5 42.5,-265.5 29.2,-77 119.4,-374.2 119.4,-374.2" /><path
         id="path148"
         style="fill:#3970c1;fill-opacity:1;fill-rule:nonzero;stroke:none"
         d="m 13807.6,12421.1 c 0,0 124.6,180.3 103.4,429.8 -21.3,249.6 -175.2,663.6 -175.2,663.6 l -289.5,478.3 c -64.2,-7.4 -146.1,-55.4 -146.1,-55.4 l -19.6,-72.4 v 0 l -3.9,-53.2 c 0,0 -402.2,4 -501.8,-47.7 -99.5,-51.8 -244.2,-139.2 -276,-127.2 -31.9,11.9 -20.3,119.4 -163.6,135.3 -143.4,15.9 -112.5,92.8 -112.5,92.8 l -130.1,-55.8 c 0,0 71.7,-412 -39.8,-831.1 -111.5,-419.1 -261.9,-514.7 -261.9,-514.7 0,0 142.5,-326.5 261.9,-581.3 119.5,-254.8 196.8,-683.4 57.6,-937.2 0,0 416.8,-74.1 633.5,-50.2 216.7,23.9 1063.6,-71.7 1063.6,-71.7 0,0 -50.6,780.4 -34.6,899.9 15.9,119.4 34.6,698.2 34.6,698.2" /><path
         id="path150"
         style="fill:#3067ac;fill-opacity:1;fill-rule:nonzero;stroke:none"
         d="m 12578.5,13817.1 c 0,0 -169.9,-456.5 -175.2,-743.2 -5.3,-286.6 175.2,-1093.6 175.2,-1093.6 0,0 -241.5,623.5 -237.6,1057.6 4,434.2 237.6,779.2 237.6,779.2" /><path
         id="path152"
         style="fill:#dc9b70;fill-opacity:1;fill-rule:nonzero;stroke:none"
         d="m 12498.9,13636.9 c 4.3,-1.7 10.9,-1.4 19.2,0.4 33.1,106.4 60.4,179.8 60.4,179.8 0,0 -42.6,-63 -91.8,-169 3.6,-5.4 7.4,-9.4 12.2,-11.2" /><path
         id="path154"
         style="fill:#3970c1;fill-opacity:1;fill-rule:nonzero;stroke:none"
         d="m 11937.4,5436.3 c 0,0 -59.1,-195.6 -72.8,-291.2 -13.6,-95.6 0,-232 213.9,-234.3 213.9,-2.4 218.5,111.4 400.5,156.9 182,45.5 391.4,59.2 509.7,182.1 118.4,122.8 72.8,227.5 50.1,245.7 -22.8,18.2 -300.4,-31.8 -341.3,-22.7 -41,9.1 -255.2,119.1 -291.6,137.3 -36.4,18.2 -74.1,-23.3 -92.3,-50.6 -18.2,-27.3 33.4,-91.3 -34.8,-109.5 -68.3,-18.2 -341.4,-13.7 -341.4,-13.7" /><path
         id="path156"
         style="fill:#f5f6f5;fill-opacity:1;fill-rule:nonzero;stroke:none"
         d="m 13519.5,5529.7 c 0,0 351,6 463.6,29.8 l 20.9,-175.8 41.8,-28.7 c 0,0 57.8,-209.7 49.8,-253.5 -7.9,-43.8 -207,-135.3 -207,-135.3 l -258.8,99.5 -85,119.4 -25.3,344.6" /><path
         id="path158"
         style="fill:#f5f6f5;fill-opacity:1;fill-rule:nonzero;stroke:none"
         d="m 11918.9,5686.9 c -0.2,2.9 391.1,27.8 391.1,27.8 l 29.8,-250.8 c 0,0 -55.8,-88.6 -179.2,-80.2 -123.4,8.5 -223.2,52.6 -223.2,52.6 l -18.5,250.6" /><path
         id="path160"
         style="fill:#3970c1;fill-opacity:1;fill-rule:nonzero;stroke:none"
         d="m 13544.8,5185.1 c 0,0 -131.6,-437.7 -56.5,-519.6 75.1,-81.9 546.1,0 901.1,27.3 355,27.3 580.3,147.9 607.6,257.1 27.3,109.3 -54.6,122.9 -159.3,154.8 -104.7,31.8 -323.1,50 -427.8,81.9 -104.7,31.8 -259.4,186.6 -300.4,195.7 -40.9,9.1 -105.5,1.4 -105.5,1.4 0,0 28.1,-201.7 -44.7,-229 -72.8,-27.3 -414.5,30.4 -414.5,30.4" /><path
         id="path162"
         style="fill:#fbc398;fill-opacity:1;fill-rule:nonzero;stroke:none"
         d="m 13569.3,14053.3 c 0,0 -336.8,-87.3 -565.6,-188.3 -228.8,-100.9 -281.9,-515.6 -210.2,-886.9 71.7,-371.3 406.1,-419.1 676.8,-315.6 270.8,103.5 254.9,627.1 254.9,627.1 0,0 276,131.6 451.2,180.9 175.2,49.4 339.8,86.5 440.6,139.6 100.9,53.1 138.1,83.4 138.1,83.4 0,0 69,-83.4 180.5,-115.2 111.4,-31.9 371.6,-10.7 371.6,-10.7 v -58.4 c 0,0 -10.6,-260.1 0,-323.8 10.6,-63.7 122.1,-191.7 159.2,-207.3 37.2,-15.7 37.2,68.1 -21.2,151 -58.4,82.8 -58.4,187.4 21.2,222.7 79.7,35.3 112.5,131.1 112.5,131.1 l 328.8,21.8 c 0,0 -64.3,84.6 -112.1,132.2 -47.8,47.5 -111.5,212.3 -159.3,228.1 -47.8,15.9 -79.6,21.2 -95.5,31.8 -16,10.6 -217.7,236.3 -361,319.9 -143.4,83.5 -238.9,77.1 -238.9,77.1 0,0 -58.4,64.8 -180.5,54.2 -122.1,-10.6 -318.5,-106.2 -318.5,-106.2 0,0 -212.4,18.7 -499.1,-25.1 -286.6,-43.9 -373.5,-163.4 -373.5,-163.4" /><path
         id="path164"
         style="fill:#f0b489;fill-opacity:1;fill-rule:nonzero;stroke:none"
         d="m 13978.6,13991.6 c -75.3,0 -160.2,17 -253.4,61.7 -5.3,2.5 -4,3.4 3,3.4 7.7,0 22.5,-1 43.2,-2.1 20.6,-1.1 47.1,-2.2 78.3,-2.2 122.6,0 317.5,16.6 513.6,115.1 0,0 -142.7,-175.9 -384.7,-175.9" /><path
         id="path166"
         style="fill:#eaac82;fill-opacity:1;fill-rule:nonzero;stroke:none"
         d="m 13369.5,13158.9 c 0,0 64.9,131 330.5,131 8.2,0 16.6,-0.1 25.2,-0.3 0,0 1.1,-38.4 -2.5,-96.2 -17.6,3 -38.1,4.8 -62.2,4.8 -14.7,0 -30.8,-0.7 -48.3,-2.2 -184.3,-15.9 -242.7,-37.1 -242.7,-37.1" /><path
         id="path168"
         style="fill:#f4dfcf;fill-opacity:1;fill-rule:nonzero;stroke:none"
         d="m 15128.6,13560.7 c -70.2,0 -145.3,3.9 -193,17.6 v 0 0 c 47.7,-13.7 122.8,-17.6 193,-17.6 26.2,0 51.6,0.5 74.7,1.3 -23.1,-0.8 -48.6,-1.3 -74.7,-1.3 m -193.8,17.8 c -0.1,0 -0.2,0 -0.3,0.1 0.1,-0.1 0.2,-0.1 0.3,-0.1 m -0.9,0.2 c -0.1,0.1 -0.1,0.1 -0.2,0.1 0.1,0 0.1,-0.1 0.2,-0.1 m -1,0.3 c -0.1,0.1 -0.2,0.1 -0.3,0.1 0.1,0 0.2,0 0.3,-0.1 m -0.7,0.2 c -0.2,0.1 -0.3,0.1 -0.5,0.2 0.2,-0.1 0.3,-0.1 0.5,-0.2 m -0.8,0.3 c -0.3,0.1 -0.5,0.1 -0.8,0.2 0.2,-0.1 0.5,-0.1 0.8,-0.2 m -1.1,0.3 c -0.1,0 -0.3,0.1 -0.5,0.1 0.2,0 0.4,-0.1 0.5,-0.1 m -0.7,0.2 c -46.6,14.3 -85.5,37.4 -114.7,59.1 29.2,-21.7 68.1,-44.8 114.7,-59.1" /><path
         id="path170"
         style="fill:#f0b489;fill-opacity:1;fill-rule:nonzero;stroke:none"
         d="m 15128.6,13560.7 c -70.2,0 -145.3,3.9 -193,17.6 v 0 c -0.3,0 -0.6,0.1 -0.8,0.2 -0.1,0 -0.2,0 -0.3,0.1 -0.2,0 -0.4,0.1 -0.6,0.1 -0.1,0 -0.1,0.1 -0.2,0.1 -0.3,0.1 -0.5,0.1 -0.8,0.2 -0.1,0.1 -0.2,0.1 -0.3,0.1 -0.1,0.1 -0.3,0.1 -0.4,0.1 -0.2,0.1 -0.3,0.1 -0.5,0.2 -0.1,0 -0.2,0 -0.3,0.1 -0.3,0.1 -0.6,0.1 -0.8,0.2 -0.1,0 -0.2,0.1 -0.3,0.1 -0.1,0 -0.3,0.1 -0.5,0.1 -0.1,0.1 -0.1,0.1 -0.2,0.1 -46.6,14.3 -85.5,37.4 -114.7,59.1 -17.5,13 -31.6,25.5 -41.6,35.3 33,61.4 111.9,183.2 247.2,248.9 0,0 340.2,-91.3 536.2,-260.1 0,0 -5.6,0.7 -15.8,0.7 -38.5,0 -142.8,-9.4 -263.7,-98.3 -18.4,-1.2 -44.2,-2.6 -73.9,-3.6 -23.1,-0.8 -48.5,-1.3 -74.7,-1.3" /><path
         id="path172"
         style="fill:#f0b489;fill-opacity:1;fill-rule:nonzero;stroke:none"
         d="m 15299.6,13962.6 c -81.2,0 -247.3,28.3 -279.1,254.1 0,0 31.9,-150.1 323.8,-250.9 0,0 -17.6,-3.2 -44.7,-3.2" /><path
         id="path174"
         style="fill:#f0b489;fill-opacity:1;fill-rule:nonzero;stroke:none"
         d="m 13547.4,13408.4 c 0,0 -71.7,249.7 278.6,371.7 0,0 -164.4,-111.6 -278.6,-371.7" /><path
         id="path176"
         style="fill:#3067ac;fill-opacity:1;fill-rule:nonzero;stroke:none"
         d="m 13612.2,12614.8 c 0,0 178.2,-88.2 257.1,-66.7 l -61.7,-127 c 0,0 -149.1,-15.9 -195.4,193.7" /><path
         id="path178"
         style="fill:#dc9b70;fill-opacity:1;fill-rule:nonzero;stroke:none"
         d="m 14755.1,13693.5 c 0,0 21.2,155.5 265.4,229.8 0,0 -155.6,-116.4 -202.6,-286.4 l -62.8,56.6" /><path
         id="path180"
         style="fill:#dc9b70;fill-opacity:1;fill-rule:nonzero;stroke:none"
         d="m 15307.2,13567.6 c 0,0 100.8,69.1 249.5,95.6 0,0 -185.8,69 -345.1,-95.6 h 95.6" /><path
         id="path182"
         style="fill:#e9ae86;fill-opacity:1;fill-rule:nonzero;stroke:none"
         d="m 15907.7,13274.4 c -5.7,-0.3 -59,0 -59,0 0,0 -191.2,96.8 -231,107.4 -39.8,10.6 -61,-26.5 -61,-26.5 0,0 -37.8,7.5 -78.2,2.6 -3.9,-2.1 -7.9,-4.2 -12.1,-6.1 -79.6,-35.3 -79.6,-139.9 -21.2,-222.7 19.2,-27.2 32.1,-54.6 39.4,-78.4 l 19,-13.9 c 0,0 82.3,-74.4 122.1,-58.4 39.8,15.9 58.4,47.7 58.4,47.7 0,0 69,-21.2 92.9,10.7 23.9,31.8 26.5,58.4 26.5,58.4 0,0 42.5,2.6 55.8,39.8 13.3,37.1 0,55.7 0,55.7 0,0 54.1,84.1 48.4,83.7" /><path
         id="path184"
         style="fill:#fcd9c1;fill-opacity:1;fill-rule:nonzero;stroke:none"
         d="m 13600.4,13992.8 c 0,0 110.5,112.3 276.7,174.7 166.2,62.5 443.3,78.3 443.3,78.3 -89.7,0 -222.8,-5.4 -377.6,-29.1 -286.6,-43.9 -373.5,-163.4 -373.5,-163.4 0,0 -336.8,-87.3 -565.6,-188.3 -60.2,-26.5 -108.1,-75 -144.9,-138.4 10.2,4.4 545.8,236.1 741.6,266.2" /></g></g></svg>