<?xml version="1.0" encoding="UTF-8" standalone="no"?>
<svg
   xmlns:dc="http://purl.org/dc/elements/1.1/"
   xmlns:cc="http://creativecommons.org/ns#"
   xmlns:rdf="http://www.w3.org/1999/02/22-rdf-syntax-ns#"
   xmlns:svg="http://www.w3.org/2000/svg"
   xmlns="http://www.w3.org/2000/svg"
   viewBox="0 0 4350.8799 2517.1467"
   height="2517.1467"
   width="4350.8799"
   xml:space="preserve"
   id="svg2"
   version="1.1"><metadata
     id="metadata8"><rdf:RDF><cc:Work
         rdf:about=""><dc:format>image/svg+xml</dc:format><dc:type
           rdf:resource="http://purl.org/dc/dcmitype/StillImage" /></cc:Work></rdf:RDF></metadata><defs
     id="defs6" /><g
     transform="matrix(1.3333333,0,0,-1.3333333,0,2517.1467)"
     id="g10"><g
       transform="scale(0.1)"
       id="g12"><g
         transform="scale(2.00194)"
         id="g14"><path
           id="path16"
           style="fill:none;fill-opacity:1;fill-rule:nonzero;stroke:none"
           d="M 16300,0 H 0 V 9430.16 H 16300 V 0" /></g><g
         transform="scale(1.46279)"
         id="g18"><path
           id="path20"
           style="fill:#100f0d;fill-opacity:1;fill-rule:nonzero;stroke:none"
           d="m 15612.9,5307.07 c 0,0 300.6,8.2 493.9,159.76 193.2,151.56 7.4,457.55 -221.8,344.82 -229.1,-112.73 -277.4,-386.52 -272.1,-504.58" /></g><g
         transform="scale(1.64272)"
         id="g22"><path
           id="path24"
           style="fill:#2f65ac;fill-opacity:1;fill-rule:nonzero;stroke:none"
           d="m 15428.8,3166.28 c 0,0 104,-61 114.8,-96.85 10.7,-35.8 14.3,-124.13 28.6,-139.1 14.3,-15.04 240.3,-216.59 376.5,-262.8 136.2,-46.2 283.2,-82.06 294,-121.51 10.7,-39.44 57.3,-155.17 -186.5,-168.98 -243.7,-13.82 -401.5,-6.7 -509,18.44 -107.6,25.08 -284.9,17.9 -284.9,17.9 l -263.7,190.05 -78.9,118.28 138.9,268.88 185,197.18 185.2,-21.49" /></g><g
         transform="scale(1.50398)"
         id="g26"><path
           id="path28"
           style="fill:#ffffff;fill-opacity:1;fill-rule:nonzero;stroke:none"
           d="m 15861.5,2925.78 v -139.63 c 0,0 156.6,-101.86 219.2,-99.2 62.6,2.59 219.3,151.39 219.3,161.83 0,10.44 -3.9,124.01 -3.9,124.01 0,0 -165.8,95.28 -254.5,56.12 -88.8,-39.17 -180.1,-103.13 -180.1,-103.13" /></g><g
         transform="scale(1.65247)"
         id="g30"><path
           id="path32"
           style="fill:#edaa7f;fill-opacity:1;fill-rule:nonzero;stroke:none"
           d="m 15859.9,4476.93 c 0,0 53.4,-42.79 78.3,-42.79 25,0 41.1,10.71 55.3,10.71 14.3,0 37.4,-7.14 66,1.76 28.5,8.9 35.6,19.61 46.2,21.36 10.8,1.82 33.9,1.82 58.9,8.96 24.9,7.08 35.6,19.54 35.6,19.54 0,0 64.2,5.39 82,33.89 17.8,28.5 -35.6,230.81 -35.6,230.81 l -246,61.42 -105.1,-64.15 -73.1,-130.1 -16,-37.4 53.5,-114.01" /></g><g
         transform="scale(1.5943)"
         id="g34"><path
           id="path36"
           style="fill:#3a70c0;fill-opacity:1;fill-rule:nonzero;stroke:none"
           d="m 14962.9,2700.43 v 0 c 0,0 -66.6,-43.84 -99.8,-232.2 -33.3,-188.42 -129.3,-247.51 -96.1,-299.25 33.3,-51.69 1097.1,-177.26 1315.1,-140.38 217.9,36.95 195.8,243.81 181,266.01 -14.8,22.14 -314,66.49 -421.1,162.52 -107.1,96.03 -280.8,217.96 -291.9,262.24 -11.1,44.35 -33.2,123.76 -55.3,146.84 -22.2,23.08 -123.1,0 -123.1,0 l 4.8,-178.82 c 0,0 -122.9,-125.95 -206.8,-126.83 -83.8,-0.88 -206.8,67.74 -206.8,67.74 v 72.13" /></g><g
         transform="scale(1.5731)"
         id="g38"><path
           id="path40"
           style="fill:#edaa7f;fill-opacity:1;fill-rule:nonzero;stroke:none"
           d="m 16300,4732.13 c 0,0 -46.8,-602.13 -98.8,-961.55 -52.1,-359.35 -48.4,-658.89 -55.9,-681.33 -7.5,-22.5 -138.5,-134.76 -235.8,-138.51 -97.3,-3.75 -184.4,172.21 -184.4,172.21 0,0 45.5,498.37 0,789.9 -45.5,291.53 -96.4,591.51 -96.4,591.51 l -92.4,789.97 c 0,0 175.2,385.41 214.7,393.67 39.6,8.26 204.6,0 204.6,0 l 90,-283.89 254.4,-531.56 v -140.42" /></g><g
         transform="scale(1.52818)"
         id="g42"><path
           id="path44"
           style="fill:#fbc295;fill-opacity:1;fill-rule:nonzero;stroke:none"
           d="m 15205.2,5328.55 c 0,0 81.2,-75.19 231.6,-190.82 150.3,-115.63 169.5,-152.01 173.4,-195.46 3.8,-43.45 -169.6,-397.99 -158,-698.6 11.5,-300.56 111.8,-832.43 134.9,-1040.52 23.1,-208.09 23.1,-323.72 23.1,-323.72 0,0 104,-26.96 215.8,0 111.7,26.96 211.9,46.26 211.9,46.26 0,0 -11.5,543.4 0,778.45 11.6,235.11 161.9,936.47 212,1055.96 50.1,119.42 50.1,429.07 0,599.86 -50.1,170.85 -82.2,177.27 -82.2,177.27 l -157.9,195.26 c 0,0 -544.1,-155.35 -804.6,-403.94" /></g><g
         transform="scale(1.54902)"
         id="g46"><path
           id="path48"
           style="fill:#252323;fill-opacity:1;fill-rule:nonzero;stroke:none"
           d="m 14444.7,7196.46 c 0,0 -329.5,-162.22 -410.7,-441.03 -81,-278.81 207.9,-780.66 360,-1049.3 152.1,-268.69 349.7,-694.5 349.7,-694.5 0,0 248.4,293.99 562.8,440.98 314.2,147.07 488,202.78 488,202.78 l 155.7,-192.64 c 0,0 339.7,172.37 344.8,202.77 5,30.47 -223.1,1034.15 -223.1,1034.15 l -790.8,263.6 -836.4,233.19" /></g><g
         transform="scale(1.63694)"
         id="g50"><path
           id="path52"
           style="fill:#fbc295;fill-opacity:1;fill-rule:nonzero;stroke:none"
           d="m 16300,6850.5 c 0,0 -52.8,-131.76 -62.4,-148.53 -9.6,-16.76 -29.7,-227.83 -83.2,-366.94 -53.5,-139.1 -89.5,-203.87 -89.5,-203.87 0,0 21.6,-127.12 45.6,-211.07 24,-83.94 45.6,-378.95 50.3,-431.72 4.9,-52.77 64.9,-342.97 69.6,-383.78 4.8,-40.75 12,-100.74 12,-100.74 l -211.1,-64.75 c 0,0 -247,424.57 -318.9,678.78 -72,254.25 -31.2,472.51 -26.4,566.05 4.8,93.54 -36.5,364.57 -15.8,386.16 20.6,21.58 237.7,151.1 237.7,151.1 0,0 281.8,55.16 284.2,64.76 2.3,9.6 107.9,64.55 107.9,64.55" /></g><g
         transform="scale(1.53456)"
         id="g54"><path
           id="path56"
           style="fill:#100f0d;fill-opacity:1;fill-rule:nonzero;stroke:none"
           d="m 15476.2,6419.96 c -19.8,11.41 467.1,-711.28 467.1,-711.28 l 157.2,-194.46 199.5,106.03 c 0,0 -179,114.04 -296.7,241.96 -117.7,127.92 -322.4,440.06 -527.1,557.75" /></g><g
         transform="scale(1.651)"
         id="g58"><path
           id="path60"
           style="fill:#3a70c0;fill-opacity:1;fill-rule:nonzero;stroke:none"
           d="m 15557.1,7864.86 c 0,0 -297.2,38.05 -497,-57.06 -199.7,-95.14 -432.8,-304.4 -575.5,-437.58 -142.7,-133.16 -518.4,-375.73 -613.5,-428.04 -95.1,-52.32 -318.6,-190.25 -318.6,-190.25 0,0 104.6,-280.61 385.2,-485.11 280.6,-204.52 617.1,-175.98 617.1,-175.98 0,0 362.6,114.14 434,133.16 71.3,19.03 751.4,218.79 1029.7,418.54 278.2,199.76 281.5,419.45 184.7,792.35 -96.7,372.91 -646.1,429.97 -646.1,429.97" /></g><g
         transform="scale(1.59864)"
         id="g62"><path
           id="path64"
           style="fill:#fbc295;fill-opacity:1;fill-rule:nonzero;stroke:none"
           d="m 15592.7,7857.23 c 0,0 -393,-314.37 -461.8,-510.84 -68.7,-196.47 63.9,-358.57 230.9,-397.86 0,0 54.1,-412.6 57.8,-515.75 3.7,-103.15 47.8,-442.08 58.9,-626.27 11.1,-184.19 243.1,-537.84 316.8,-652.06 73.7,-114.16 114.2,-169.46 114.2,-169.46 l 221,70 c 0,0 -108,221.06 -105.5,478.91 2.4,257.88 -142.5,518.21 -147.4,582.06 -5,63.86 7.4,198.93 95.7,324.19 88.5,125.25 93.4,483.82 93.4,483.82 0,0 203.8,308.22 218.5,444.52 14.8,136.31 -18.4,209.99 -18.4,209.99 0,0 -42.9,295.94 -229.6,347.51 -186.6,51.57 -444.5,-68.76 -444.5,-68.76" /></g><g
         transform="scale(1.66888)"
         id="g66"><path
           id="path68"
           style="fill:#fbc295;fill-opacity:1;fill-rule:nonzero;stroke:none"
           d="m 15682.2,7886.47 c 0,0 -87,-44.69 -157.6,-70.57 -70.6,-25.87 -134.1,-35.29 -134.1,-35.29 0,0 152.9,-101.15 228.2,-230.55 75.3,-129.39 80,-343.47 98.8,-543.45 18.8,-199.97 28.2,-239.95 94.1,-221.14 65.8,18.82 136.4,359.95 143.5,416.41 7.1,56.46 4.7,84.69 9.4,94.1 4.7,9.42 182.5,162.33 225.3,183.5 42.9,21.18 110.2,36.75 110.2,36.75 0,0 -269.6,506.7 -297.9,516.11 -28.2,9.41 -188.2,-4.7 -211.7,-11.76 -23.5,-7.06 -72.9,-25.88 -84.7,-37.64 -11.7,-11.77 -23.5,-96.47 -23.5,-96.47" /></g><g
         transform="scale(1.71407)"
         id="g70"><path
           id="path72"
           style="fill:#252323;fill-opacity:1;fill-rule:nonzero;stroke:none"
           d="m 16184.9,8186.46 15.5,27.49 c 0,0 99.6,39.51 89.3,170.07 -10.3,130.56 -149.4,161.48 -197.6,163.2 -48,1.72 -41.2,-18.9 -113.3,0 -72.2,18.9 -106.6,29.21 -180.4,30.92 -73.9,1.72 -248,-4 -273.2,-15.46 -25.2,-11.45 -95.3,-29.77 -140.4,-57.26 -45.1,-27.49 -100,-84.75 -123,-194.7 -22.9,-109.95 -32.1,-251.96 -22.9,-325.26 9.2,-73.29 16,-194.14 16,-223.04 0,-28.91 6.9,-86.18 13.8,-83.89 6.8,2.29 143.2,83.89 143.2,83.89 0,0 248.5,-81.6 319.5,-42.66 71,38.94 322.9,327.55 327.5,371.07 4.6,43.52 126,95.63 126,95.63" /></g><g
         transform="scale(1.66888)"
         id="g74"><path
           id="path76"
           style="fill:#e19f72;fill-opacity:1;fill-rule:nonzero;stroke:none"
           d="m 15846.9,7945.29 84.6,-91.75 c 0,0 25.9,-122.33 68.3,-244.66 42.4,-122.34 102.1,-193.5 102.1,-193.5 0,0 75.2,62.24 114.5,75.53 39.3,13.28 83.6,25.32 83.6,25.32 l -110.2,259.68 -169.4,149.39 -105.3,47.34 -68.2,-27.35" /></g><g
         transform="scale(1.71263)"
         id="g78"><path
           id="path80"
           style="fill:#fbc295;fill-opacity:1;fill-rule:nonzero;stroke:none"
           d="m 15595.6,7872.98 c 0,0 -39,139.84 -135.2,103.16 -96.3,-36.68 -64.2,-176.52 -18.4,-233.84 45.9,-57.31 121.5,-66.48 121.5,-66.48 0,0 29.8,-112.33 55,-149 25.3,-36.69 190.3,-185.7 295.8,-213.21 105.4,-27.51 204,6.88 222.3,20.63 18.4,13.77 22.4,119.79 34.4,145.58 12,25.79 10.4,58.45 18.9,79.09 8.6,20.63 19,83.85 19,83.85 0,0 48.7,3.83 69.8,24.47 21.3,20.63 -73.3,194.28 -69.8,223.51 3.4,29.23 24,50.67 29.2,91.53 5.1,40.87 -17.2,228.27 -24.1,238.59 -6.8,10.32 -36.1,17.2 -75.6,12.04 -39.6,-5.16 -31,-18.92 -80.8,-32.67 -49.9,-13.75 -77.4,-25.79 -118.7,-37.83 -41.3,-12.03 -82.5,-8.59 -125.5,-68.77 -43,-60.18 -53.3,-110.04 -63.6,-120.36 -10.3,-10.32 -27.5,-13.76 -41.3,-44.7 -13.7,-30.95 -8.6,-56.74 -24,-77.37 -15.5,-20.63 -17.3,-32.67 -36.1,-32.67 -18.9,0 -52.8,54.45 -52.8,54.45" /></g><g
         transform="scale(1.51169)"
         id="g82"><path
           id="path84"
           style="fill:#e19f72;fill-opacity:1;fill-rule:nonzero;stroke:none"
           d="m 16298.7,7835.18 c 0,0 -17.3,-74.02 -18.4,-162.32 -1.1,-88.31 19.7,-150.65 18.4,-225.97 -1.3,-75.31 -40.6,-197.75 -40.6,-197.75 l -12.7,99.06 c 0,0 -78.1,20.79 -116.6,49.92 -38.5,29.15 -58.5,47.83 -58.5,47.83 0,0 131,9.92 159.6,40.49 28.5,30.58 -36.4,168.23 68.8,348.74" /></g><g
         transform="scale(1.58133)"
         id="g86"><path
           id="path88"
           style="fill:#e19f72;fill-opacity:1;fill-rule:nonzero;stroke:none"
           d="m 15907.4,7044.44 c 0,0 79.4,-57.11 183.7,-45.94 104.2,11.18 208.9,92.9 208.9,92.9 l -57.5,-91.65 v -38.48 c 0,0 -228.4,-90.63 -335.1,83.17" /></g><g
         transform="scale(1.62137)"
         id="g90"><path
           id="path92"
           style="fill:#e19f72;fill-opacity:1;fill-rule:nonzero;stroke:none"
           d="m 16100.5,6173.09 c 0,0 156.8,125.27 199.5,198.24 l -80.8,-181.29 c 0,0 -33.9,-41.17 -118.7,-16.95" /></g><g
         transform="scale(1.65548)"
         id="g94"><path
           id="path96"
           style="fill:#878888;fill-opacity:1;fill-rule:nonzero;stroke:none"
           d="m 15569.5,4440.27 730.5,189.79 -43.8,142.26 -861.3,-210.09 174.6,-121.96" /></g><g
         transform="scale(1.58129)"
         id="g98"><path
           id="path100"
           style="fill:#878888;fill-opacity:1;fill-rule:nonzero;stroke:none"
           d="M 16117.2,4776.28 9879.31,3057.11 c 0,0 -27.32,-22.38 -19.92,-69.56 7.46,-47.17 89.42,-52.11 89.42,-52.11 L 16300,4648.6 l -182.8,127.68" /></g><g
         transform="scale(1.55867)"
         id="g102"><path
           id="path104"
           style="fill:#ffffff;fill-opacity:1;fill-rule:nonzero;stroke:none"
           d="m 16133.6,3179.57 c -91.9,-1.73 -200.5,9.62 -259.3,16.94 -2.2,-28.36 -3.6,-44.65 -3.6,-44.65 0,0 87.9,-177.59 186.1,-173.81 98.2,3.79 230.4,117.09 238,139.8 2.1,6.36 3.3,34.97 5.2,80.78 -37.5,-8.34 -94.6,-17.71 -166.4,-19.06" /></g><g
         transform="scale(1.61815)"
         id="g106"><path
           id="path108"
           style="fill:#fbc295;fill-opacity:1;fill-rule:nonzero;stroke:none"
           d="m 15717.7,4924.89 c 0,0 16.3,-52.77 18.2,-127.37 1.8,-74.59 21.8,-185.64 34.5,-212.89 12.8,-27.32 71.1,-81.89 91.1,-91.03 20,-9.09 36.4,1.85 76.4,-12.74 40,-14.52 134.6,-1.79 167.4,0 32.8,1.86 67.3,14.59 94.6,40.05 27.3,25.46 5.5,221.98 14.6,242.01 9.1,20.02 85.5,38.68 85.5,38.68 0,0 -67.3,90.54 -140.1,101.48 -72.8,10.87 -165.6,12.73 -171.1,21.81 -5.4,9.09 -52.7,69.16 -52.7,69.16 l -116.5,14.58 -101.9,-83.74" /></g><g
         transform="scale(1.64904)"
         id="g110"><path
           id="path112"
           style="fill:#fbc295;fill-opacity:1;fill-rule:nonzero;stroke:none"
           d="m 15913.7,4902.84 c 0,0 9.5,-134.5 14.9,-134.5 5.3,0 135.7,16.07 144.6,16.07 8.9,0 89.3,-32.14 89.3,-41.05 0,-8.92 -33.9,-67.5 -16.1,-90.9 17.9,-23.41 98.2,55.18 116.1,76.59 17.9,21.46 37.5,114.3 26.8,135.71 -10.8,21.47 -166.1,102.36 -166.1,102.36 h -112.5 l -97,-64.28" /></g><path
         id="path114"
         style="fill:#326ab1;fill-opacity:1;fill-rule:nonzero;stroke:none"
         d="m 10934.2,5226.8 c 0,0 -109.9,-66.8 -117.8,-110 -7.8,-43.1 -218.8,-412.4 -218.8,-412.4 l 211,-518.1 c 0,0 773.4,-86.3 1091.4,-133.4 318.1,-47.2 734.2,-4 797.1,62.8 62.8,66.7 82.4,161 54.9,219.8 -27.5,58.9 -467.2,149.2 -592.8,247.4 -125.7,98.1 -439.8,357.3 -439.8,357.3 l -196.3,356.2 -164.9,83.5 -424,-153.1" /><path
         id="path116"
         style="fill:#3a70c0;fill-opacity:1;fill-rule:nonzero;stroke:none"
         d="m 9968.37,4622.1 c 0,0 -78.52,-31.4 -86.37,-117.7 -7.86,-86.4 15.7,-102.1 0,-188.5 -15.71,-86.4 -121.72,-451.5 -149.2,-498.6 -27.48,-47.1 -106.01,-164.9 54.97,-239.5 160.97,-74.6 1354.53,-219.9 1888.53,-164.9 533.9,55 345.5,376.9 318,396.5 -27.5,19.7 -424.1,164.6 -490.8,202.1 -66.7,37.4 -592.8,398.6 -616.4,457.5 -23.6,58.9 -209.3,282.7 -209.3,282.7 h -108.7 l -490.8,-102.1 -109.93,-27.5" /><path
         id="path118"
         style="fill:#ffffff;fill-opacity:1;fill-rule:nonzero;stroke:none"
         d="m 10887.1,5136.5 v -180.6 c 0,0 120.2,-164.9 268.2,-168.8 148,-4 360,239.4 360,239.4 l 7.8,74.6 c 0,0 -424,164.9 -439.7,164.9 -15.7,0 -196.3,-129.5 -196.3,-129.5" /><path
         id="path120"
         style="fill:#ffffff;fill-opacity:1;fill-rule:nonzero;stroke:none"
         d="M 9968.37,4504.4 V 4365 c 0,0 153.13,-155.1 282.73,-159 129.5,-3.9 353.3,200.2 353.3,200.2 l -7.8,215.9 c 0,0 -349.5,70.7 -388.7,47.2 -39.3,-23.6 -239.53,-164.9 -239.53,-164.9" /><path
         id="path122"
         style="fill:#edaa7f;fill-opacity:1;fill-rule:nonzero;stroke:none"
         d="m 11593.8,8862.4 c 0,0 239.5,-565.3 263.1,-712.5 23.5,-147.3 -27.5,-375 -62.9,-477.1 -35.3,-102.1 -82.4,-231.7 -86.3,-624.3 -4,-392.6 -117.8,-769.5 -164.9,-1189.6 -47.1,-420.1 -19.7,-757.8 -19.7,-757.8 0,0 -106,-19.6 -333.7,0 -227.7,19.7 -302.3,35.4 -302.3,35.4 0,0 -21,836.6 -62.8,1260.3 -41.9,423.7 -66.8,687.1 -66.8,687.1 l -309.8,1344.7 c 0,0 247.6,510.42 474.7,590.86 227.1,80.44 671.4,-157.06 671.4,-157.06" /><path
         id="path124"
         style="fill:#d9966e;fill-opacity:1;fill-rule:nonzero;stroke:none"
         d="m 11279.1,8011.6 c -43.6,0 -95.4,0.7 -152.5,2.8 -58.1,2.1 -110.7,15.9 -154.8,33.1 0.8,31.7 2,48.5 1,63.6 -6.6,102.2 -32.7,280.2 -156.4,531.4 l -24,24 -9.2,125.2 559.3,166.69 22,-136.59 -383.2,-228.3 c 0,0 -2.4,-296.5 95,-410.3 97.4,-113.9 344.8,-168.8 344.8,-168.8 0,0 -54.8,-2.8 -142,-2.8" /><path
         id="path126"
         style="fill:#100f0d;fill-opacity:1;fill-rule:nonzero;stroke:none"
         d="m 8978.97,7920.1 c 0,0 341.9,-12.2 589.09,162.8 247.19,174.9 -260.09,345.7 -260.09,345.7 l -217.1,-82.5 -111.9,-426" /><path
         id="path128"
         style="fill:#fbc295;fill-opacity:1;fill-rule:nonzero;stroke:none"
         d="m 9308.78,8281.3 c -24.25,-21.4 510.39,-337.6 604.62,-502.5 94.2,-164.9 -168.65,-549.7 -202.11,-965.9 -33.46,-416.1 100.03,-910.8 139.29,-1256.3 39.27,-345.5 117.79,-1052.2 117.79,-1052.2 0,0 604.63,109.9 628.13,117.8 23.6,7.8 -86.3,761.6 0,1303.4 86.4,541.9 279,1277 306.5,1379.1 27.5,102.1 84.4,297.2 73.2,523.5 -10.1,205.4 -1.2,248.6 -3.4,282.9 -6.6,102.2 -32.7,280.2 -156.4,531.4 l -227.7,227.8 c 0,0 -614.45,0 -1279.92,-589" /><path
         id="path130"
         style="fill:#fbc295;fill-opacity:1;fill-rule:nonzero;stroke:none"
         d="m 11011.8,10385.8 c 0,0 346.4,-294.5 448.5,-369.1 102.1,-74.59 235.6,-160.97 251.3,-188.45 15.7,-27.49 0,-227.72 0,-227.72 h 65.2 l 409.6,181.19 c 0,0 -94,-114.44 -90,-145.85 3.9,-31.42 66.2,-70.67 90,-54.97 23.8,15.7 125.9,106.01 149.4,149.2 23.6,43.18 19.4,126.29 19.4,126.29 0,0 -35.1,121.05 -82.2,152.51 -47.1,31.4 -188.4,39.2 -251.2,86.3 -62.9,47.2 -149.1,302.3 -149.1,302.3 0,0 4.5,408.4 -68.5,404.4 -73,-3.9 -469.5,-51 -575.5,-153.1 -106,-102.1 -216.9,-263 -216.9,-263" /><path
         id="path132"
         style="fill:#252323;fill-opacity:1;fill-rule:nonzero;stroke:none"
         d="m 8405.76,11280.9 c 0,0 -526.11,-243.4 -573.23,-785.2 -47.11,-541.81 361.22,-1091.48 573.23,-1476.24 212.01,-384.76 573.21,-1099.36 573.21,-1099.36 0,0 353.36,298.4 793.09,604.7 439.74,306.2 816.64,345.5 816.64,345.5 l 227.7,-227.7 c 0,0 518.3,204.1 777.4,219.8 l -196.2,673.35 -1353.4,1038.45 -845.36,259.2 -793.08,447.5" /><path
         id="path134"
         style="fill:#100f0d;fill-opacity:1;fill-rule:nonzero;stroke:none"
         d="m 10146.3,10142 c 0,0 -115.1,-101.7 -138.7,-101.7 -23.52,0 -188.43,0 -188.43,0 0,0 282.73,-365.17 369.03,-504.55 86.4,-139.38 400.5,-665.45 400.5,-665.45 l 227.7,-227.7 259.9,93.5 c 0,0 -597.5,656.34 -707.5,799.65 -109.9,143.3 -251.2,316.06 -251.2,347.46 0,31.42 28.7,258.79 28.7,258.79" /><path
         id="path136"
         style="fill:#e9a97d;fill-opacity:1;fill-rule:nonzero;stroke:none"
         d="m 10141.1,12411.7 c 0,0 449.6,533.9 683.2,604.6 233.6,70.7 109.9,-604.6 109.9,-604.6 l -467.6,-343.6 c 0,0 -381.6,-132 -416.4,-80.7 -34.7,51.3 90.9,424.3 90.9,424.3" /><path
         id="path138"
         style="fill:#fbc295;fill-opacity:1;fill-rule:nonzero;stroke:none"
         d="m 11495.7,13200.8 c -11.8,0 -188.5,15.7 -188.5,15.7 0,0 -263.1,-51 -482.9,-200.2 -219.9,-149.2 -322,-431.9 -353.4,-588.9 0,0 -337.6,-219.9 -494.68,-581.1 -157.05,-361.2 -251.27,-581.1 -329.79,-785.2 -78.53,-204.2 -127.61,-276.8 0,-453.5 127.59,-176.7 969.77,-859.83 1122.87,-965.84 153.1,-106.01 153.1,-106.01 153.1,-106.01 0,0 394.6,253.24 376.9,265.01 -17.6,11.79 -406.3,394.54 -494.7,565.34 -88.3,170.8 -300.3,600.7 -300.3,600.7 0,0 349,118.6 572,383.2 0,0 289.8,-131.9 698.1,150.8 408.3,282.7 376.9,1044.4 369.1,1067.9 -7.9,23.6 -278.8,422.5 -278.8,422.5 l -369,209.6" /><path
         id="path140"
         style="fill:#3a70c0;fill-opacity:1;fill-rule:nonzero;stroke:none"
         d="m 12017.8,13104.6 -243.4,135.5 c 0,0 -306.2,31.4 -467.2,-23.6 0,0 551.6,-132.3 622.3,-557.9 70.7,-425.6 -233.6,-1035 -477,-1190.6 -243.5,-155.6 -683.2,-132.1 -683.2,-132.1 0,0 -628.2,714.6 -628.2,753.8 0,39.3 0,322 0,322 0,0 -321.93,-227.8 -424.01,-322 -102.08,-94.2 -212.01,-219.8 -581.06,-361.2 -369.07,-141.3 -730.27,-447.6 -730.27,-447.6 0,0 157.04,-581 675.29,-848 518.26,-267 1060.05,-274.8 1303.45,-243.5 243.5,31.5 753.9,180.7 950.2,267 196.3,86.4 557.5,322 557.5,322 l 219.9,117.8 533.9,722.4 c 0,0 287.1,484.9 268.2,532 -18.9,47.1 -166.1,376.9 -219.1,424 -53,47.1 -518.3,416.6 -518.3,416.6 l -159,113.4" /><path
         id="path142"
         style="fill:#878888;fill-opacity:1;fill-rule:nonzero;stroke:none"
         d="M 11076.6,9290.8 1846.54,4875.7 c 0,0 -36.28,-42.4 -11.54,-113.7 24.75,-71.4 153.67,-56.3 153.67,-56.3 l 9408.13,4437.38 -320.2,147.72" /><path
         id="path144"
         style="fill:#878888;fill-opacity:1;fill-rule:nonzero;stroke:none"
         d="m 11396.8,9143.08 1135,522.46 -112.9,219.01 -1342.3,-593.75 320.2,-147.72" /><path
         id="path146"
         style="fill:#e19f72;fill-opacity:1;fill-rule:nonzero;stroke:none"
         d="m 11264,11712.8 c 0,0 -52.4,-229.5 -187.7,-362.8 0,0 267.7,39.3 454.4,181.4 0,0 -188.2,8.7 -207.8,28.3 -19.6,19.6 15.7,47.2 -58.9,153.1" /><path
         id="path148"
         style="fill:#e19f77;fill-opacity:1;fill-rule:nonzero;stroke:none"
         d="m 10613.9,8071.4 c -180.8,0 -454,156.9 -454,156.9 111.9,0 373.3,-81 481.1,-81 8.4,0 15.9,0.5 22.3,1.5 83,13.9 80.2,39.3 99.1,39.3 1.2,0 2.5,-0.1 4,-0.3 23.5,-3.6 50,-100.8 -129.6,-115.5 -7.4,-0.6 -15.1,-0.9 -22.9,-0.9" /><path
         id="path150"
         style="fill:#edaa7f;fill-opacity:1;fill-rule:nonzero;stroke:none"
         d="m 11804.2,9223.62 c 17.3,-3.92 98.8,-2.94 134.1,0 35.4,2.94 23.8,14.72 47.3,17.67 23.4,2.94 102.9,-20.61 135.3,0 32.4,20.62 32.4,43.09 41.2,49.51 8.8,6.44 53,-2.4 91.3,18.22 38.3,20.61 58.9,55.94 58.9,55.94 0,0 106,26.51 138.4,61.84 32.4,35.34 63.8,150.53 63.8,150.53 l -67,145.14 c 0,0 -164.7,19.41 -191.2,16.46 -26.5,-2.94 -109,-8.04 -109,-8.04 0,0 -64.7,34.54 -108.9,22.76 -44.1,-11.77 -52.8,-60.78 -52.8,-60.78 0,0 -11.9,19.56 -62,4.84 -50.1,-14.73 -50.9,-54.76 -50.9,-54.76 0,0 -72.8,-38.77 -108.1,-65.62 -35.3,-26.86 -111.9,-215.31 -111.9,-215.31 v -114.84 l 151.5,-23.56" /><path
         id="path152"
         style="fill:#fbc295;fill-opacity:1;fill-rule:nonzero;stroke:none"
         d="m 12261.3,13312.4 c 0,0 -27.5,-31.4 -145.3,-74.6 -117.8,-43.2 -341.6,2.3 -341.6,2.3 0,0 255.2,-273.2 380.8,-489.1 125.7,-216 133.5,-573.3 164.9,-907 31.5,-333.7 47.2,-400.4 157.1,-369.1 109.9,31.5 227.7,600.8 239.5,695 11.8,94.2 7.8,141.3 15.7,157 7.8,15.7 304.4,270.9 376,306.3 71.6,35.3 183.9,61.3 183.9,61.3 0,0 -450,845.6 -497.1,861.3 -47.1,15.7 -314.1,-7.8 -353.3,-19.6 -39.3,-11.8 -121.8,-43.2 -141.4,-62.8 -19.6,-19.7 -39.2,-161 -39.2,-161" /><path
         id="path154"
         style="fill:#e19f72;fill-opacity:1;fill-rule:nonzero;stroke:none"
         d="m 12536.1,13410.6 141.3,-153.2 c 0,0 43.2,-204.1 113.9,-408.3 70.7,-204.2 170.4,-322.9 170.4,-322.9 0,0 125.4,103.9 191,126 65.6,22.2 139.6,42.3 139.6,42.3 l -183.9,433.4 -282.8,249.3 -175.7,79 -113.8,-45.6" /><path
         id="path156"
         style="fill:#252323;fill-opacity:1;fill-rule:nonzero;stroke:none"
         d="m 13831.7,14183 26.5,47.1 c 0,0 170.8,67.8 153.1,291.6 -17.6,223.7 -256.1,276.7 -338.6,279.7 -82.4,2.9 -70.7,-32.4 -194.3,0 -123.7,32.4 -182.6,50.1 -309.2,53 -126.6,2.9 -425,-6.9 -468.2,-26.5 -43.2,-19.6 -163.4,-51 -240.7,-98.2 -77.3,-47.1 -171.6,-145.2 -210.8,-333.7 -39.3,-188.4 -55,-431.9 -39.3,-557.5 15.7,-125.6 27.5,-332.8 27.5,-382.3 0,-49.6 11.8,-147.7 23.6,-143.8 11.7,3.9 245.4,143.8 245.4,143.8 0,0 425.9,-139.9 547.6,-73.1 121.7,66.7 553.6,561.4 561.5,636 7.8,74.6 215.9,163.9 215.9,163.9" /><path
         id="path158"
         style="fill:#fbc295;fill-opacity:1;fill-rule:nonzero;stroke:none"
         d="m 12799.1,13634.3 c 0,0 -66.7,239.5 -231.6,176.7 -164.9,-62.8 -109.9,-302.3 -31.4,-400.4 78.5,-98.2 208.1,-113.9 208.1,-113.9 0,0 51,-192.4 94.2,-255.2 43.2,-62.8 325.9,-318 506.5,-365.1 180.6,-47.2 349.4,11.7 380.8,35.3 31.4,23.6 38.3,205.1 58.9,249.3 20.6,44.2 17.7,100.1 32.4,135.5 14.7,35.3 32.4,143.6 32.4,143.6 0,0 83.4,6.5 119.7,41.9 36.3,35.3 -125.6,332.7 -119.7,382.8 5.9,50 41.2,86.7 50,156.7 8.9,70 -29.4,391 -41.2,408.6 -11.8,17.7 -61.8,29.5 -129.5,20.7 -67.8,-8.9 -53,-32.4 -138.4,-56 -85.4,-23.5 -132.5,-44.2 -203.2,-64.8 -70.7,-20.6 -141.4,-14.7 -215,-117.8 -73.6,-103 -91.3,-188.4 -108.9,-206.1 -17.7,-17.7 -47.1,-23.5 -70.7,-76.5 -23.6,-53 -14.7,-97.2 -41.2,-132.6 -26.5,-35.3 -29.5,-55.9 -61.9,-55.9 -32.3,0 -90.3,93.2 -90.3,93.2" /><path
         id="path160"
         style="fill:#fbc295;fill-opacity:1;fill-rule:nonzero;stroke:none"
         d="m 10804.6,10366.1 c -88.3,170.8 -300.3,600.7 -300.3,600.7 0,0 349,118.6 572,383.2 0,0 3.7,-1.6 10.3,-4.1 v 1804.3 c -81.5,-31.2 -175.3,-74.8 -262.3,-133.9 -219.9,-149.2 -322,-431.9 -353.4,-588.9 0,0 -337.6,-219.9 -494.68,-581.1 -157.05,-361.2 -251.27,-581.1 -329.79,-785.2 -78.53,-204.2 -127.61,-276.8 0,-453.5 127.59,-176.7 969.77,-859.83 1122.87,-965.84 153.1,-106.01 153.1,-106.01 153.1,-106.01 0,0 394.6,253.24 376.9,265.02 -17.6,11.78 -406.3,394.53 -494.7,565.33" /><path
         id="path162"
         style="fill:#e19f72;fill-opacity:1;fill-rule:nonzero;stroke:none"
         d="m 10470.9,12427.4 c 0,0 -31.4,-235.6 74.6,-424 0,0 -65.4,461 41.9,740.9 0,0 -89,-144.2 -116.5,-316.9" /><path
         id="path164"
         style="fill:#fbc295;fill-opacity:1;fill-rule:nonzero;stroke:none"
         d="m 10922.4,9535.75 c 0,0 110,-170.79 121.7,-233.61 11.8,-62.81 153.2,-298.39 216,-329.79 62.8,-31.41 102.1,0 168.8,0 66.8,0 172.8,23.55 215.9,47.11 43.2,23.56 51.1,43.19 90.3,58.89 39.3,15.7 90.3,35.34 129.6,70.67 39.3,35.34 -78.5,266.99 -86.4,341.58 -7.8,74.6 94.4,152.35 94.4,152.35 0,0 -110.1,87.15 -176.8,95 -66.8,7.85 -278.8,-19.63 -278.8,-19.63 l -117.8,82.44 -306.2,-58.88 -70.7,-206.13" /><g
         transform="scale(1.74091)"
         id="g166"><path
           id="path168"
           style="fill:#254f82;fill-opacity:1;fill-rule:nonzero;stroke:none"
           d="m 15766.3,5370.34 c -4.5,22.55 -81.3,225.73 -81.3,225.73 0,0 -223.2,-20.51 -311.1,-172.74 -88,-152.22 30.4,-825.44 128.5,-1140.05 98.1,-314.6 297.7,-676.54 429.6,-740.82 132,-64.28 368,48.43 368,48.43 l -533.7,1779.45" /></g><g
         transform="scale(1.75847)"
         id="g170"><path
           id="path172"
           style="fill:#3a70c0;fill-opacity:1;fill-rule:nonzero;stroke:none"
           d="m 16127.6,4638.02 c 168.1,-548.21 172.4,-1033.06 9.6,-1082.99 -162.7,-49.93 -431,354 -599.1,902.21 -168.1,548.15 -172.5,1033.02 -9.7,1082.95 162.8,49.92 431,-354 599.2,-902.17" /></g><g
         transform="scale(1.71834)"
         id="g174"><path
           id="path176"
           style="fill:#254f82;fill-opacity:1;fill-rule:nonzero;stroke:none"
           d="m 16265,4671.67 c 35,-120.93 29.5,-228.77 -12.3,-240.87 -41.9,-12.11 -104.1,76.11 -139.1,197.05 -35,120.87 -29.5,228.7 12.3,240.81 41.9,12.11 104.2,-76.12 139.1,-196.99" /></g><g
         transform="scale(1.88367)"
         id="g178"><path
           id="path180"
           style="fill:#878888;fill-opacity:1;fill-rule:nonzero;stroke:none"
           d="m 14771.4,4348.42 1487.4,401.75 41.2,-154.21 -1484.8,-401.76 c 0,0 -66.7,62.53 -43.8,154.22" /></g><g
         transform="scale(1.88767)"
         id="g182"><path
           id="path184"
           style="fill:#adadab;fill-opacity:1;fill-rule:nonzero;stroke:none"
           d="m 16288.7,4674.87 c 11.3,-42.49 0.9,-82.17 -23.2,-88.63 -24.1,-6.46 -52.9,22.78 -64.2,65.26 -11.4,42.49 -1,82.18 23.1,88.62 24.2,6.45 52.9,-22.77 64.3,-65.25" /></g><path
         id="path186"
         style="fill:#254f82;fill-opacity:1;fill-rule:nonzero;stroke:none"
         d="m 12690.8,11405.1 c -14.6,37.3 -208.5,361.8 -208.5,361.8 0,0 -376.2,-103.6 -480.2,-391.5 -104,-287.8 305.5,-1405.07 570.2,-1914.08 264.7,-509 717.8,-1068.02 963.6,-1137.62 245.8,-69.7 615.7,195.9 615.7,195.9 l -1460.8,2885.5" /><path
         id="path188"
         style="fill:#3a70c0;fill-opacity:1;fill-rule:nonzero;stroke:none"
         d="m 13799.1,10391.1 c 460.9,-896.74 618.8,-1734.7 352.5,-1871.5 -266.3,-136.9 -855.8,479.07 -1316.8,1375.82 -461,896.78 -618.8,1734.68 -352.5,1871.48 266.2,136.9 855.8,-479.1 1316.8,-1375.8" /><path
         id="path190"
         style="fill:#254f82;fill-opacity:1;fill-rule:nonzero;stroke:none"
         d="m 13417.2,10192.4 c 95.8,-193.93 119.1,-377.99 52,-411.14 -67,-33.14 -199.1,97.18 -294.9,291.14 -95.8,193.9 -119.2,377.9 -52.1,411.1 67.1,33.1 199.1,-97.2 295,-291.1" /><path
         id="path192"
         style="fill:#878888;fill-opacity:1;fill-rule:nonzero;stroke:none"
         d="m 13266,10331.5 2624.5,1238.8 127.5,-272.2 -2619.6,-1238.1 c 0,0 -144.4,93.8 -132.4,271.5" /><path
         id="path194"
         style="fill:#adadab;fill-opacity:1;fill-rule:nonzero;stroke:none"
         d="m 16031.6,11470.4 c 35.2,-75.1 29.1,-152.3 -13.6,-172.3 -42.7,-20 -105.9,24.7 -141.1,99.9 -35.2,75.2 -29.1,152.3 13.6,172.3 42.7,20 105.8,-24.7 141.1,-99.9" /></g></g></svg>