<?xml version="1.0" encoding="UTF-8" standalone="no"?>
<svg
   xmlns:dc="http://purl.org/dc/elements/1.1/"
   xmlns:cc="http://creativecommons.org/ns#"
   xmlns:rdf="http://www.w3.org/1999/02/22-rdf-syntax-ns#"
   xmlns:svg="http://www.w3.org/2000/svg"
   xmlns="http://www.w3.org/2000/svg"
   viewBox="0 0 2666.6667 2666.6667"
   height="2666.6667"
   width="2666.6667"
   xml:space="preserve"
   id="svg2"
   version="1.1"><metadata
     id="metadata8"><rdf:RDF><cc:Work
         rdf:about=""><dc:format>image/svg+xml</dc:format><dc:type
           rdf:resource="http://purl.org/dc/dcmitype/StillImage" /></cc:Work></rdf:RDF></metadata><defs
     id="defs6" /><g
     transform="matrix(1.3333333,0,0,-1.3333333,0,2666.6667)"
     id="g10"><g
       transform="scale(0.1)"
       id="g12"><g
         transform="scale(1.22699)"
         id="g14"><path
           id="path16"
           style="fill:none;fill-opacity:1;fill-rule:nonzero;stroke:none"
           d="M 16300,0 H 0 V 16300 H 16300 V 0" /></g><path
         id="path18"
         style="fill:#252323;fill-opacity:1;fill-rule:nonzero;stroke:none"
         d="m 14807.1,6214.6 c 0,0 108.6,-48.3 221.2,-185.1 112.7,-136.7 140.8,-213.2 213.2,-253.4 72.5,-40.2 301.8,-72.4 418.4,-164.9 116.7,-92.6 287.2,-261.5 125.5,-277.6 -161.7,-16.1 -18.1,-201.2 -520.3,0 -502.3,201.1 -641.5,152.8 -678.5,277.6 -37,124.7 -9,389.6 -29,504.6 -20.1,114.9 -20.2,122.9 0,131 20.2,8 249.5,-32.2 249.5,-32.2" /><path
         id="path20"
         style="fill:#b8623c;fill-opacity:1;fill-rule:nonzero;stroke:none"
         d="m 14328.3,8678.7 c 0,0 442.6,-207.2 535.1,-356.1 92.5,-148.8 88.5,-418.4 88.5,-418.4 0,0 24.1,-277.5 -76.4,-724.1 -100.6,-446.5 -68.4,-965.5 -68.4,-965.5 0,0 -69.4,-60.6 -133.3,-159 -63.9,-98.5 -321.3,-50.2 -317.3,-18 4,32.2 -156.9,1412 -156.9,1412 0,0 88.5,249.5 88.5,269.6 0,20.1 -213.2,229.3 -213.2,229.3 l -229.3,651.7 482.7,78.5" /><path
         id="path22"
         style="fill:#100f0d;fill-opacity:1;fill-rule:nonzero;stroke:none"
         d="m 12972.6,7337 c 0,0 104.6,-32.2 177,56.3 72.4,88.5 160.9,297.8 160.9,297.8 0,0 -423.8,134.3 -466.6,111.4 -42.8,-22.8 -108.6,1.2 -112.7,-19 -4,-20.1 241.4,-446.5 241.4,-446.5" /><path
         id="path24"
         style="fill:#ececec;fill-opacity:1;fill-rule:nonzero;stroke:none"
         d="m 14802.3,6447.1 c -135.6,-41.6 -344.6,-74 -477.7,-92 19.6,-177.7 33.1,-307.9 31.9,-317.5 -4,-32.2 253.4,-80.5 317.3,18 63.9,98.4 133.3,159 133.3,159 0,0 -5.8,92.3 -4.8,232.5" /><path
         id="path26"
         style="fill:#252323;fill-opacity:1;fill-rule:nonzero;stroke:none"
         d="m 11381.8,5882.2 -271.4,-132.4 c 0,0 -37.2,-74.3 0,-100 37.1,-25.7 582.9,-108.6 631.5,-111.5 48.6,-2.8 202.9,122.9 202.9,122.9 l -563,221" /><path
         id="path28"
         style="fill:#636567;fill-opacity:1;fill-rule:nonzero;stroke:none"
         d="m 12023.8,6000.3 1562.2,-315.2 -35.2,-192.5 -376.8,-114.4 -1855,391.6 v 191.5 l 131.4,114.3 h 211.5 l 361.9,-75.3" /><path
         id="path30"
         style="fill:#9f9f9e;fill-opacity:1;fill-rule:nonzero;stroke:none"
         d="m 11519,7276.7 62.9,-1295.4 346.7,-72.4 95.2,91.4 -27.6,1238.3 -67.6,38.1 -346.7,30.5 -62.9,-30.5" /><path
         id="path32"
         style="fill:#c6c5c3;fill-opacity:1;fill-rule:nonzero;stroke:none"
         d="m 11928.6,7276.7 -346.7,30.5 v 495.3 h 346.7 v -525.8" /><path
         id="path34"
         style="fill:#9f9f9e;fill-opacity:1;fill-rule:nonzero;stroke:none"
         d="m 10819.8,8076.9 v -178.2 l 1760.3,-298.1 392.5,90.5 c 0,0 -80.1,166.7 -255.3,207.6 -175.3,41 -1897.5,178.2 -1897.5,178.2" /><path
         id="path36"
         style="fill:#4e4f51;fill-opacity:1;fill-rule:nonzero;stroke:none"
         d="m 11631.4,8671.2 c 0,0 -251.5,14.3 -407.7,3.4 -156.2,-11 -678.2,-190.1 -735.4,-270.1 -57.1,-80 -41.9,-308.6 -30.4,-327.6 11.4,-19.1 1973.6,-373.4 2061.3,-384.9 87.6,-11.4 281.9,87.7 281.9,87.7 l -1169.7,891.5" /><path
         id="path38"
         style="fill:#636567;fill-opacity:1;fill-rule:nonzero;stroke:none"
         d="m 12476.2,8027.3 -1972.6,342.9 c 0,0 -10.8,5.2 -27.2,13.1 -42.8,-93.1 -29.1,-288.9 -18.5,-306.4 11.4,-19.1 1973.6,-373.4 2061.3,-384.9 87.6,-11.4 281.9,87.7 281.9,87.7 l -324.9,247.6" /><path
         id="path40"
         style="fill:#c37140;fill-opacity:1;fill-rule:nonzero;stroke:none"
         d="m 12851.9,7666.9 c 28.2,-8.1 547.1,-60.4 579.3,-84.5 32.2,-24.1 -140.8,-382.2 -177,-543.1 -36.2,-160.9 80.5,-506.9 88.5,-848.8 8.1,-342 -48.3,-575.3 -36.2,-583.4 12.1,-8 109.8,-110.7 177,-112.6 67.3,-1.9 257.5,193.1 257.5,193.1 0,0 32.2,449 56.3,580.5 24.1,131.5 120.2,554 120.2,554 l -123.6,1512.6 -366.7,209.2 c 0,0 -325.9,60.3 -514.9,-88.5 -189.1,-148.9 -358.1,-242.1 -317.8,-378.5 40.2,-136.5 257.4,-410 257.4,-410" /><path
         id="path42"
         style="fill:#252323;fill-opacity:1;fill-rule:nonzero;stroke:none"
         d="m 11645,9255.9 -20.9,-136.7 c 0,0 -176.2,-148.9 -192.3,-366.1 -16.1,-217.3 -25.8,-470.7 150.1,-631.6 175.8,-161 372.9,-185.1 622.3,-366.1 249.5,-181.1 768.4,-418.4 768.4,-418.4 0,0 -108.6,455 -48.3,700.2 60.4,245.2 502.9,506.7 502.9,506.7 l 366.7,-209.2 c 0,0 186.9,116.6 310.4,201.1 123.5,84.5 224,142.9 224,142.9 0,0 -337.9,86.4 -474.7,174.9 -136.7,88.5 -577.1,296.2 -586.2,311 -9.2,14.9 -174,119.5 -174,119.5 l -83.7,160.9 c 0,0 -922.1,-20.1 -950.3,-20.1 -28.2,0 -414.4,-169 -414.4,-169" /><path
         id="path44"
         style="fill:#c37140;fill-opacity:1;fill-rule:nonzero;stroke:none"
         d="m 12828.3,12054.2 c 0,0 344.5,-0.3 468.2,-151.2 123.7,-150.8 159.9,-416.4 159.9,-416.4 0,0 162.9,-148.8 223.2,-300.7 0,0 178.1,52.4 449.6,0 271.6,-52.3 632.1,-33.1 632.1,-33.1 l 98.1,-116.5 -576.3,-310 c 0,0 -271.6,-96 -413.4,-103.8 -141.8,-7.8 -334.9,-23.8 -395.2,31 -60.4,54.7 -378.1,400.2 -378.1,400.2 0,0 -198.1,376.6 -207.2,459.1 -9.1,82.5 -60.9,541.4 -60.9,541.4" /><g
         transform="scale(1.07293)"
         id="g46"><path
           id="path48"
           style="fill:#636567;fill-opacity:1;fill-rule:nonzero;stroke:none"
           d="m 16300,8728.41 h -41.3 v 1487.69 h 41.3 V 8728.41" /></g><g
         transform="scale(1.05527)"
         id="g50"><path
           id="path52"
           style="fill:#636567;fill-opacity:1;fill-rule:nonzero;stroke:none"
           d="m 16300,8959.32 h -42 v 1477.28 h 42 V 8959.32" /></g><g
         transform="scale(1.03612)"
         id="g54"><path
           id="path56"
           style="fill:#636567;fill-opacity:1;fill-rule:nonzero;stroke:none"
           d="m 16300,9156.4 v 1422.7 h -42.8 V 9156.4 h 42.8" /></g><g
         transform="scale(1.03296)"
         id="g58"><path
           id="path60"
           style="fill:#636567;fill-opacity:1;fill-rule:nonzero;stroke:none"
           d="m 16241.8,13790.9 v -2350.2 h 58.2 v 2350.2 h -58.2" /></g><path
         id="path62"
         style="fill:#e9eef1;fill-opacity:1;fill-rule:nonzero;stroke:none"
         d="m 12075.5,12078 c -16.1,8.1 -281.7,-4 -281.7,-4 l -112.6,-106.6 -342.9,-1513.6 101.6,-155.6 c 0,0 112.6,-314.1 144.8,-438.8 32.2,-124.7 50.6,-442.5 39.4,-486.8 -11.2,-44.2 12.9,-104.6 20.9,-116.7 8.1,-12 176.6,-82 488.6,-91.3 312,-9.2 876.1,119.5 876.1,119.5 0,0 50.7,52.3 65.1,76.4 14.5,24.2 54.9,720.1 56.8,740.3 1.9,20.1 4.8,655.7 4.8,655.7 l 77.6,95 c 0,0 83.4,283.2 41.7,520.5 -41.7,237.4 -157.5,374.1 -204.2,442.5 -46.7,68.4 -223.2,239.7 -223.2,239.7 l -115.2,15.8 -637.6,8" /><path
         id="path64"
         style="fill:#636567;fill-opacity:1;fill-rule:nonzero;stroke:none"
         d="m 14283.6,5372.5 c 146.9,88.3 479.7,258.2 479.7,258.2 0,0 -38.7,356.3 -89.5,424.9 -50.8,68.6 -207.6,74.3 -207.6,74.3 0,0 -273.1,-34.3 -298.8,-54.3 -25.7,-20 -169.6,-132.4 -169.6,-132.4 0,0 90.6,-437.5 100.2,-537.1 l 185.6,-33.6" /><path
         id="path66"
         style="fill:#c37140;fill-opacity:1;fill-rule:nonzero;stroke:none"
         d="m 12026.5,12473.7 c 0,0 -37.5,-130.2 -103.9,-236.8 -66.3,-106.6 -128.8,-162.9 -128.8,-162.9 0,0 243.5,-152.9 436.6,-382.2 193.1,-229.3 410.3,-354 621.5,-265.5 211.2,88.5 48.3,384.2 -12,466.7 -60.4,82.4 -126.8,177 -126.8,177 l -162.9,78.2 c 0,0 -255.5,318 -283.6,340.2 -28.2,22.1 -120.7,108.6 -134.8,106.6 -14.1,-2 -70.4,20.2 -80.4,0 -10.1,-20.1 -24.9,-121.3 -24.9,-121.3" /><path
         id="path68"
         style="fill:#9f9f9e;fill-opacity:1;fill-rule:nonzero;stroke:none"
         d="m 13997.8,5943.2 c 0,0 -99,-50.5 -121.9,-96.2 -22.9,-45.8 -11.8,-397.1 -11.8,-397.1 l 334.6,-60.7 c 0,0 -2.7,318.6 -42.7,422.5 -40.1,103.8 -158.2,131.5 -158.2,131.5" /><path
         id="path70"
         style="fill:#c6c5c3;fill-opacity:1;fill-rule:nonzero;stroke:none"
         d="m 14081.5,5736.4 c 0,-41.5 -33.7,-75.2 -75.2,-75.2 -41.6,0 -75.3,33.7 -75.3,75.2 0,41.6 33.7,75.3 75.3,75.3 41.5,0 75.2,-33.7 75.2,-75.3" /><g
         transform="scale(1.12067)"
         id="g72"><path
           id="path74"
           style="fill:#252323;fill-opacity:1;fill-rule:nonzero;stroke:none"
           d="m 16300,7808.91 h -53.6 V 6133.66 h 53.6 v 1675.25" /></g><g
         transform="scale(1.1112)"
         id="g76"><path
           id="path78"
           style="fill:#494a4b;fill-opacity:1;fill-rule:nonzero;stroke:none"
           d="m 14167.2,5979.32 1395.6,-246.85 v 294.91 l 322.2,-58.32 v -281.13 l 415,-78.93 -15.9,-105.2 -2173.5,338.01 56.6,137.51" /></g><g
         transform="scale(1.10325)"
         id="g80"><path
           id="path82"
           style="fill:#100f0d;fill-opacity:1;fill-rule:nonzero;stroke:none"
           d="m 14925.5,8481.43 -68.2,84.57 164.9,59.55 1264,-90.64 13.8,-2564.25 -210.7,-96.81 -1163.8,2607.58" /></g><g
         transform="scale(1.08899)"
         id="g84"><path
           id="path86"
           style="fill:#252323;fill-opacity:1;fill-rule:nonzero;stroke:none"
           d="M 15051.8,8678.15 V 6150.3 l 1248.2,-199.54 -21,2606.73 -1227.2,120.66" /></g><path
         id="path88"
         style="fill:#252323;fill-opacity:1;fill-rule:nonzero;stroke:none"
         d="m 15544.4,6446.1 -236.2,-137.2 v -68.5 l 663,-118.4 137.1,106.9 -563.9,217.2" /><g
         transform="scale(1.18787)"
         id="g90"><path
           id="path92"
           style="fill:#252323;fill-opacity:1;fill-rule:nonzero;stroke:none"
           d="m 15510.9,4958.31 -227.7,-168.37 699.3,-139.58 317.5,234.2 -420.2,73.75 h -368.9" /></g><path
         id="path94"
         style="fill:#494a4b;fill-opacity:1;fill-rule:nonzero;stroke:none"
         d="m 15516.8,6339.5 h 268.6 l -80,8566.1 h -265.8 l 77.2,-8566.1" /><g
         transform="scale(1.07344)"
         id="g96"><path
           id="path98"
           style="fill:#252323;fill-opacity:1;fill-rule:nonzero;stroke:none"
           d="m 15336.4,4432.66 -103.9,-143.74 708.1,-159.77 359.4,255.62 -534.1,106.58 -429.5,-58.69" /></g><g
         transform="scale(1.10214)"
         id="g100"><path
           id="path102"
           style="fill:#9f9f9e;fill-opacity:1;fill-rule:nonzero;stroke:none"
           d="m 13395.1,5108.87 c 0,0 62.2,-82.65 183.3,-129.47 120.9,-46.82 311.1,-45.1 311.1,-45.1 l 1241,662.08 398.4,90.82 771.1,-119.95 -1342.3,-1021.19 -264.4,-16.24 -1759.5,349.95 v 54.53 l 461.3,174.57" /></g><g
         transform="scale(1.02447)"
         id="g104"><path
           id="path106"
           style="fill:#c6c5c3;fill-opacity:1;fill-rule:nonzero;stroke:none"
           d="M 13614.8,5308.39 16300,4782.17 v -243.15 l -2566.2,540.67 -148.8,197.07 29.8,31.63" /></g><g
         transform="scale(1.13761)"
         id="g108"><path
           id="path110"
           style="fill:#636567;fill-opacity:1;fill-rule:nonzero;stroke:none"
           d="m 13724,5642.1 -84.1,-69.44 v -23.47 L 16300,5056.84 v 257.82 l -2516.9,391.53 -59.1,-64.09" /></g><path
         id="path112"
         style="fill:#636567;fill-opacity:1;fill-rule:nonzero;stroke:none"
         d="m 14673.8,5191.6 c 0,-32.1 -26,-58.1 -58.1,-58.1 -32.1,0 -58.1,26 -58.1,58.1 0,32.1 26,58.1 58.1,58.1 32.1,0 58.1,-26 58.1,-58.1" /><path
         id="path114"
         style="fill:#636567;fill-opacity:1;fill-rule:nonzero;stroke:none"
         d="m 15547.2,5010.4 c 0,-32.1 -26,-58.1 -58.1,-58.1 -32.1,0 -58.1,26 -58.1,58.1 0,32.1 26,58.1 58.1,58.1 32.1,0 58.1,-26 58.1,-58.1" /><g
         transform="scale(1.02447)"
         id="g116"><path
           id="path118"
           style="fill:#636567;fill-opacity:1;fill-rule:nonzero;stroke:none"
           d="m 16300,4782.17 -33.5,911.2 c 0,0 -115.3,-18.64 -171.1,-111.57 -55.7,-93.02 -107.9,-256.62 -241.7,-319.87 -133.9,-63.26 -368.2,-81.8 -368.2,-81.8 V 4923.7 l 814.5,-141.53" /></g><g
         transform="scale(1.01378)"
         id="g120"><path
           id="path122"
           style="fill:#252323;fill-opacity:1;fill-rule:nonzero;stroke:none"
           d="m 16300,5198.57 c 0,-42.81 -34.7,-77.53 -77.5,-77.53 -42.8,0 -77.6,34.72 -77.6,77.53 0,42.81 34.8,77.53 77.6,77.53 42.8,0 77.5,-34.72 77.5,-77.53" /></g><g
         transform="scale(1.05229)"
         id="g124"><path
           id="path126"
           style="fill:#c6c5c3;fill-opacity:1;fill-rule:nonzero;stroke:none"
           d="m 15869.1,4419.04 v -71.09 c 0,0 112.3,-32.59 231.7,0 119.6,32.6 199.2,123.16 199.2,123.16 l -104.1,4365.82 c 0,0 -185.6,782.97 -757.6,974.87 l -2512.9,202.8 c 0,0 -123.1,-18.14 -177.5,-94.17 -54.2,-76.04 -28.9,-191.91 -28.9,-191.91 0,0 2444,-181.04 2570.8,-231.69 126.7,-50.75 343.9,-362.17 423.7,-597.46 79.6,-235.4 123,-3356.5 123,-3356.5 l 32.6,-1123.83" /></g><g
         transform="scale(1.05229)"
         id="g128"><path
           id="path130"
           style="fill:#9f9f9e;fill-opacity:1;fill-rule:nonzero;stroke:none"
           d="m 16195.9,8836.93 c 0,0 -185.6,782.97 -757.6,974.87 l -2512.9,202.8 c 0,0 -22.6,-3.4 -52.6,-13.1 l 2350.9,-189.7 c 572.1,-191.9 757.7,-974.87 757.7,-974.87 l 104.1,-4365.82 c 0,0 -79.7,-90.56 -199.2,-123.16 -2.8,-0.76 -5.7,-1.52 -8.5,-2.18 28.3,-6.75 123.1,-25.09 223,2.18 119.6,32.6 199.2,123.16 199.2,123.16 l -104.1,4365.82" /></g><g
         transform="scale(1.17021)"
         id="g132"><path
           id="path134"
           style="fill:#c6c5c3;fill-opacity:1;fill-rule:nonzero;stroke:none"
           d="m 15845.8,4915.93 258.9,-53.74 180.7,97.67 14.6,7868.04 h -434.6 l -19.6,-7911.97" /></g><g
         transform="scale(1.15391)"
         id="g136"><path
           id="path138"
           style="fill:#636567;fill-opacity:1;fill-rule:nonzero;stroke:none"
           d="m 16300,7496.49 h -230.3 v 876.66 h 230.3 v -876.66" /></g><g
         transform="scale(1.14865)"
         id="g140"><path
           id="path142"
           style="fill:#9f9f9e;fill-opacity:1;fill-rule:nonzero;stroke:none"
           d="m 16148.3,8197.54 -1302.9,-449.4 v -562.92 l 1454.6,572.84 v 397.16 l -151.7,42.32" /></g><g
         transform="scale(1.14865)"
         id="g144"><path
           id="path146"
           style="fill:#c6c5c3;fill-opacity:1;fill-rule:nonzero;stroke:none"
           d="m 14845.4,7637.66 1454.6,517.56 -151.7,42.32 -1302.9,-449.4 v -110.48" /></g><g
         transform="scale(1.1483)"
         id="g148"><path
           id="path150"
           style="fill:#100f0d;fill-opacity:1;fill-rule:nonzero;stroke:none"
           d="m 16300,8287.12 c 0,-24.74 -20,-44.77 -44.8,-44.77 -24.7,0 -44.7,20.03 -44.7,44.77 0,24.82 20,44.85 44.7,44.85 24.8,0 44.8,-20.03 44.8,-44.85" /></g><g
         transform="scale(1.1483)"
         id="g152"><path
           id="path154"
           style="fill:#100f0d;fill-opacity:1;fill-rule:nonzero;stroke:none"
           d="m 16300,7638.42 c 0,-24.73 -20,-44.76 -44.8,-44.76 -24.7,0 -44.7,20.03 -44.7,44.76 0,24.82 20,44.85 44.7,44.85 24.8,0 44.8,-20.03 44.8,-44.85" /></g><g
         transform="scale(1.15654)"
         id="g156"><path
           id="path158"
           style="fill:#252323;fill-opacity:1;fill-rule:nonzero;stroke:none"
           d="m 13579.6,12888.1 2473.4,91.4 h 247 l -96.3,457.1 -2260.8,-148.2 -363.3,-170.5 v -229.8" /></g><g
         transform="scale(1.14971)"
         id="g160"><path
           id="path162"
           style="fill:#636567;fill-opacity:1;fill-rule:nonzero;stroke:none"
           d="m 13660.4,13195.9 2341.4,82 298.2,238.6 -2274.2,-149.1 -365.4,-171.5" /></g><g
         transform="scale(1.12067)"
         id="g164"><path
           id="path166"
           style="fill:#636567;fill-opacity:1;fill-rule:nonzero;stroke:none"
           d="m 16144.3,6157.4 c -76.8,4.55 -149.1,-157.32 -161.3,-361.58 -12.4,-204.34 40,-373.7 116.9,-378.34 12.2,-0.71 24.2,2.77 35.9,9.91 l 96.9,-23.83 67.3,753.84 c -80.7,9.19 -155.7,0 -155.7,0" /></g><g
         transform="scale(1.07589)"
         id="g168"><path
           id="path170"
           style="fill:#252323;fill-opacity:1;fill-rule:nonzero;stroke:none"
           d="m 16300,5642.4 c 0,-26.3 -21.4,-47.68 -47.8,-47.68 -26.3,0 -47.7,21.38 -47.7,47.68 0,26.4 21.4,47.77 47.7,47.77 26.4,0 47.8,-21.37 47.8,-47.77" /></g><g
         transform="scale(1.12955)"
         id="g172"><path
           id="path174"
           style="fill:#c6c5c3;fill-opacity:1;fill-rule:nonzero;stroke:none"
           d="m 16287.8,5733.6 c -12.1,-202.65 -83.8,-363.24 -160.1,-358.73 -76.2,4.61 -128.2,172.64 -116,375.37 12.2,202.65 83.9,363.24 160.1,358.73 76.2,-4.61 128.2,-172.63 116,-375.37" /></g><g
         transform="scale(1.12455)"
         id="g176"><path
           id="path178"
           style="fill:#252323;fill-opacity:1;fill-rule:nonzero;stroke:none"
           d="m 16300,5764.82 c 0,-29.53 -15.7,-53.36 -34.9,-53.36 -19.3,0 -35,23.83 -35,53.36 0,29.43 15.7,53.35 35,53.35 19.2,0 34.9,-23.92 34.9,-53.35" /></g><g
         transform="scale(1.0981)"
         id="g180"><path
           id="path182"
           style="fill:#636567;fill-opacity:1;fill-rule:nonzero;stroke:none"
           d="m 14606.7,13585.3 v -955.9 l 1678.6,-39.1 14.7,1057.6 -1693.3,-62.6" /></g><g
         transform="scale(1.02008)"
         id="g184"><path
           id="path186"
           style="fill:#898b8b;fill-opacity:1;fill-rule:nonzero;stroke:none"
           d="m 15724,7808.51 c 0,0 -795.6,68.23 -821.7,68.23 -26.2,0 -123.3,-54.21 -130.7,-68.23 -7.6,-13.92 0,-84.9 0,-84.9 l 1528.4,-216.55 -2.6,93.33 -573.4,208.12" /></g><g
         transform="scale(1.01991)"
         id="g188"><path
           id="path190"
           style="fill:#9f9f9e;fill-opacity:1;fill-rule:nonzero;stroke:none"
           d="M 16269.3,8481.4 H 16145 l -73.8,-61.67 c 0,0 -292.3,-44.81 -367,-100.89 -74.7,-55.99 -59.8,-605.15 -59.8,-605.15 l 655.6,-112.07 -30.7,879.78" /></g><path
         id="path192"
         style="fill:#252323;fill-opacity:1;fill-rule:nonzero;stroke:none"
         d="m 16262.6,8232.1 c 0,-32.1 -26,-58.1 -58.1,-58.1 -32.1,0 -58.1,26 -58.1,58.1 0,32.1 26,58.1 58.1,58.1 32.1,0 58.1,-26 58.1,-58.1" /><path
         id="path194"
         style="fill:#252323;fill-opacity:1;fill-rule:nonzero;stroke:none"
         d="m 13629.8,10335.3 c 0,-32.1 -26,-58.1 -58.1,-58.1 -32.1,0 -58.1,26 -58.1,58.1 0,32.1 26,58.1 58.1,58.1 32.1,0 58.1,-26 58.1,-58.1" /><path
         id="path196"
         style="fill:#c6c5c3;fill-opacity:1;fill-rule:nonzero;stroke:none"
         d="m 14265.4,5701.2 c 0,-8.6 -10.5,-262.9 -10.5,-262.9 l 438,166.8 -21.7,277.1 -405.8,-181" /><g
         transform="scale(1.07153)"
         id="g198"><path
           id="path200"
           style="fill:#636567;fill-opacity:1;fill-rule:nonzero;stroke:none"
           d="m 16244,13294.6 v -2374.9 h 56 v 2374.9 h -56" /></g><g
         transform="scale(1.05298)"
         id="g202"><path
           id="path204"
           style="fill:#636567;fill-opacity:1;fill-rule:nonzero;stroke:none"
           d="M 16271.5,13528.8 V 11112 h 28.5 v 2416.8 h -28.5" /></g><g
         transform="scale(1.07644)"
         id="g206"><path
           id="path208"
           style="fill:#252323;fill-opacity:1;fill-rule:nonzero;stroke:none"
           d="m 16300,10565.4 h -188.5 v 327 h 188.5 v -327" /></g><g
         transform="scale(1.03734)"
         id="g210"><path
           id="path212"
           style="fill:#252323;fill-opacity:1;fill-rule:nonzero;stroke:none"
           d="m 16300,11073.8 h -195.6 v 339.3 h 195.6 v -339.3" /></g><g
         transform="scale(1.0561)"
         id="g214"><path
           id="path216"
           style="fill:#252323;fill-opacity:1;fill-rule:nonzero;stroke:none"
           d="m 16300,10836.9 h -129.9 v 332.8 h 129.9 v -332.8" /></g><path
         id="path218"
         style="fill:#454547;fill-opacity:1;fill-rule:nonzero;stroke:none"
         d="m 12466.7,10820.2 c 0,0 19,-510.6 41.9,-708.7 22.8,-198.2 57.1,-358.2 76.2,-377.2 19,-19.1 129.5,-76.2 285.7,-76.2 156.3,0 447.7,182.9 441.1,213.3 -6.7,30.5 -62.5,1065.1 -62.5,1065.1 l -782.4,-116.3" /><path
         id="path220"
         style="fill:#9fa2a3;fill-opacity:1;fill-rule:nonzero;stroke:none"
         d="m 12871,9658.1 c 0.1,0 0.1,0 0.1,0 0,0 0,0 -0.1,0 m 0.5,0 h 0.1 c -0.1,0 -0.1,0 -0.1,0 m -348.9,1170.4 154.4,23 v 0 l -154.4,-23" /><path
         id="path222"
         style="fill:#555658;fill-opacity:1;fill-rule:nonzero;stroke:none"
         d="m 12870.5,9658.1 c -4.5,0 -9.1,0 -13.6,0.1 -149,3.2 -253.6,57.6 -272.1,76.1 -17.1,17.1 -46.6,148 -68.9,318.1 -2.6,19.2 -5,39 -7.3,59.1 -0.5,4.2 -1,8.6 -1.5,13.2 -22.2,206.6 -40.4,695.5 -40.4,695.5 l 55.9,8.3 154.4,22.9 c 17.4,-196.3 78.7,-881.1 98.3,-972.3 15.7,-73.3 108.7,-162.8 165.4,-211.6 -24.7,-5.9 -48.2,-9.3 -69.1,-9.4 h -0.1 c -0.1,0 -0.3,0 -0.4,0 0,0 0,0 -0.1,0 -0.1,0 -0.3,0 -0.5,0 v 0" /><path
         id="path224"
         style="fill:#454547;fill-opacity:1;fill-rule:nonzero;stroke:none"
         d="m 12509,10886.2 -42.3,-66 42.2,-93.9 h 179.3 l 50.1,-510.2 170.3,-379 284.4,42 56.1,1057.4 -740.1,-50.3" /><path
         id="path226"
         style="fill:#ed2023;fill-opacity:1;fill-rule:nonzero;stroke:none"
         d="m 13051.5,10723.1 h -5 c 0,-20.3 -16.5,-36.8 -36.8,-36.8 -10.2,0 -19.4,4.1 -26.1,10.8 -6.7,6.7 -10.8,15.8 -10.8,26 0,10.2 4.1,19.4 10.8,26.1 6.7,6.7 15.9,10.8 26.1,10.8 20.3,-0.1 36.8,-16.5 36.8,-36.9 h 5 5 c 0,25.9 -21,46.9 -46.8,46.9 -25.9,0 -46.9,-21 -46.9,-46.9 0,-25.8 21,-46.8 46.9,-46.8 25.8,0 46.8,21 46.8,46.8 h -5" /><path
         id="path228"
         style="fill:#252323;fill-opacity:1;fill-rule:nonzero;stroke:none"
         d="m 13093.4,9970.5 c 0,-23.1 -18.8,-41.8 -41.9,-41.8 -23.1,0 -41.8,18.7 -41.8,41.8 0,23.1 18.7,41.8 41.8,41.8 23.1,0 41.9,-18.7 41.9,-41.8" /><path
         id="path230"
         style="fill:#252323;fill-opacity:1;fill-rule:nonzero;stroke:none"
         d="m 13559.3,10298.2 h -462.9 v 175.2 h 462.9 v -175.2" /><g
         transform="scale(1.08801)"
         id="g232"><path
           id="path234"
           style="fill:#636567;fill-opacity:1;fill-rule:nonzero;stroke:none"
           d="m 16300,10319.5 h -1021.7 v 267.1 L 16300,10527 v -207.5" /></g><g
         transform="scale(1.10326)"
         id="g236"><path
           id="path238"
           style="fill:#100f0d;fill-opacity:1;fill-rule:nonzero;stroke:none"
           d="m 15015.3,10031.6 -125,137.2 197.5,122.9 688.9,-21.6 523.3,-38.9 v -219.3 l -190,-117.39 -1094.7,137.09" /></g><path
         id="path240"
         style="fill:#9f9f9e;fill-opacity:1;fill-rule:nonzero;stroke:none"
         d="m 14281.2,10465.2 c 2.6,-0.2 89.9,132.4 201.4,204.6 111.4,72.3 922.9,278 957.9,312.3 35,34.3 39.4,97.9 -63.5,153.2 -102.9,55.4 -982.1,-248.2 -1117.3,-335 -135.2,-86.8 -195,-317.7 -195,-317.7 l 216.5,-17.4" /><g
         transform="scale(1.00621)"
         id="g242"><path
           id="path244"
           style="fill:#252323;fill-opacity:1;fill-rule:nonzero;stroke:none"
           d="m 16234.2,8524.77 -2216.9,368.22 4.9,29.81 2277.8,-378.35 -9,-10.03 -56.8,-9.65" /></g><g
         transform="scale(1.0904)"
         id="g246"><path
           id="path248"
           style="fill:#252323;fill-opacity:1;fill-rule:nonzero;stroke:none"
           d="m 15128.1,10039.4 1171.9,-28.2 v 216.6 l -1234.1,60.9 62.2,-249.3" /></g><path
         id="path250"
         style="fill:#c37140;fill-opacity:1;fill-rule:nonzero;stroke:none"
         d="m 14761.3,11152.8 c 0,0 441.4,31.2 458.5,33.1 17.2,2 133.9,-207.5 141.3,-235.2 7.3,-27.7 -30.8,-52.4 -30.8,-52.4 0,0 3.8,-43.8 -7.6,-61 -11.4,-17.1 -56.8,-15.2 -56.8,-15.2 0,0 -0.3,-22.9 -40.3,-32.4 -40.1,-9.5 -53.4,-7.6 -61,-9.5 -7.6,-1.9 18.3,-17.2 -107.1,-22.9 -125.3,-5.7 -119.1,67.7 -119.1,67.7 l 49,14.4 c 0,0 -1.9,98.9 -9.5,100.8 -7.6,1.9 -89.5,28.3 -102.9,31.3 -13.3,3 -152.3,22.8 -152.3,22.8 0,0 -57.2,16.4 -66.8,77.3 -9.5,61 105.4,81.2 105.4,81.2" /><path
         id="path252"
         style="fill:#a45330;fill-opacity:1;fill-rule:nonzero;stroke:none"
         d="m 14761.3,11105.9 c 0,0 115.6,21 142.3,21 26.7,0 160,-110.5 160,-144.8 0,-34.3 -85.7,-41.9 -85.7,-41.9 l 5.8,-27 c 0,0 64.7,-1.6 93.3,17.5 28.5,19 32.3,55.2 32.3,55.2 l 55.3,-205.7 36.7,4.5 c 0,0 -92,298.4 -92,292.7 0,-5.8 -13.3,-62.9 -13.3,-62.9 0,0 -99.1,107.1 -154.3,139.1 -55.2,31.9 -180.4,-47.7 -180.4,-47.7" /><path
         id="path254"
         style="fill:#a45330;fill-opacity:1;fill-rule:nonzero;stroke:none"
         d="m 15201.3,11043.1 c 7.1,-5.8 64.6,-221 64.6,-221 l 33.4,2.8 -98,218.2" /><path
         id="path256"
         style="fill:#a45330;fill-opacity:1;fill-rule:nonzero;stroke:none"
         d="m 15330.3,10898.3 -80,200 99.7,-182.4 z" /><path
         id="path258"
         style="fill:#9f9f9e;fill-opacity:1;fill-rule:nonzero;stroke:none"
         d="m 13179.5,10637.3 c 0,7.6 36.2,85.8 36.2,85.8 0,0 152.4,30.4 229.6,-98.2 77.1,-128.6 127.2,-543.9 -133.6,-787.8 -260.8,-243.8 -680.9,-323.8 -680.9,-323.8 l -66.6,185.7 c 0,0 466.7,134.3 655.3,342.9 188.6,208.7 123.4,508.2 26,564.2 l -66,31.2" /><path
         id="path260"
         style="fill:#898b8b;fill-opacity:1;fill-rule:nonzero;stroke:none"
         d="m 13378.7,8941.8 620,-2998.6 91.4,22.8 c 0,0 53.4,-49.5 133.4,-49.5 80,0 280.8,95.2 280.8,95.2 v 90.9 l -584.7,2996.3 -540.9,-157.1" /><path
         id="path262"
         style="fill:#636567;fill-opacity:1;fill-rule:nonzero;stroke:none"
         d="m 12133.6,9639 417.2,125.8 c 0,0 182.9,-523 297.2,-583 114.3,-60 1428.8,188.6 1506,331.5 77.1,142.9 -43.3,652.5 -43.3,652.5 l 385.8,-31.2 c 0,0 167.1,-358.4 56.6,-741.3 -110.5,-383 -1077.8,-463 -1407.1,-531.6 -329.4,-68.5 -552.3,-150.5 -809.5,19.1 -257.1,169.6 -402.9,758.2 -402.9,758.2" /><path
         id="path264"
         style="fill:#252323;fill-opacity:1;fill-rule:nonzero;stroke:none"
         d="m 13546.8,9073.2 c -5.3,-5.7 34.6,-170.9 34.6,-170.9 l 460.1,85.4 -46.6,176.9 -448.1,-91.4" /><path
         id="path266"
         style="fill:#252323;fill-opacity:1;fill-rule:nonzero;stroke:none"
         d="m 15602.5,10376.8 c -3.9,0.3 0,104.3 0,104.3 0,0 178.7,43.8 323,-24.8 v -105.6 l -323,26.1" /><path
         id="path268"
         style="fill:#636567;fill-opacity:1;fill-rule:nonzero;stroke:none"
         d="m 13679.6,9043.2 185.7,50 318.7,-88.6 -58.2,-95.7 -446.2,134.3" /><path
         id="path270"
         style="fill:#252323;fill-opacity:1;fill-rule:nonzero;stroke:none"
         d="m 13208.4,10473.4 h -210.6 c -32.9,0 -59.5,-26.6 -59.5,-59.4 0,-32.9 26.6,-59.5 59.5,-59.5 h 210.6 c 32.8,0 59.5,26.6 59.5,59.5 0,32.8 -26.7,59.4 -59.5,59.4" /><path
         id="path272"
         style="fill:#9f9f9e;fill-opacity:1;fill-rule:nonzero;stroke:none"
         d="m 12675.6,10414 v -71.6 l 111.5,12.1 c 0,0 51.9,75.1 39.3,80.8 -12.7,5.8 -39.3,18.5 -39.3,18.5 l -111.5,-39.8" /><path
         id="path274"
         style="fill:#c6c5c3;fill-opacity:1;fill-rule:nonzero;stroke:none"
         d="m 12787.1,10453.8 c 0,-61.5 -49.9,-111.4 -111.5,-111.4 -61.5,0 -111.4,49.9 -111.4,111.4 0,61.6 49.9,111.5 111.4,111.5 61.6,0 111.5,-49.9 111.5,-111.5" /><path
         id="path276"
         style="fill:#9f9f9e;fill-opacity:1;fill-rule:nonzero;stroke:none"
         d="m 13097.2,10765 c 0,0 82.3,-13.1 118.5,-41.9 36.2,-28.7 40,-293.5 40,-293.5 0,0 -180.2,-43.7 -192.8,-7.2 -12.5,36.4 34.3,342.6 34.3,342.6" /><path
         id="path278"
         style="fill:#c37140;fill-opacity:1;fill-rule:nonzero;stroke:none"
         d="m 12353.7,10587.7 c 0,0 30.1,12.2 124.1,-22.4 94,-34.7 193,-9.9 236.9,-27.1 43.8,-17.1 53.9,-64 64.7,-110.5 10.9,-46.4 -5.7,-66.4 7.7,-73.2 13.3,-6.8 102.1,23.2 102.1,23.2 0,0 47.9,-11.9 78.6,0 30.7,11.9 53.6,36.3 53.6,36.3 0,0 77.4,11.8 82.5,27.1 5.1,15.2 32.1,8.6 50,43.3 18,34.8 -56.3,339.3 -81.1,367.1 -24.8,27.7 -739.2,0 -739.2,0 0,0 -95.2,-79 -83.8,-98 11.5,-19.1 103.9,-165.8 103.9,-165.8" /><path
         id="path280"
         style="fill:#a45330;fill-opacity:1;fill-rule:nonzero;stroke:none"
         d="m 12918.5,10637.3 c 0,0 80,-149.5 102.9,-223.3 l 41.5,8.4 c 0,0 -45.3,161.5 -144.4,214.9" /><path
         id="path282"
         style="fill:#a45330;fill-opacity:1;fill-rule:nonzero;stroke:none"
         d="m 13018,10653.5 c 7.2,-8.6 85.9,-212.4 85.9,-212.4 l 27.7,18.4 -113.6,194" /><path
         id="path284"
         style="fill:#a45330;fill-opacity:1;fill-rule:nonzero;stroke:none"
         d="m 13074.8,10697.8 81.4,-180 -6.9,54.2 z" /><path
         id="path286"
         style="fill:#898b8b;fill-opacity:1;fill-rule:nonzero;stroke:none"
         d="m 12551.6,9762.8 c -6.1,20.6 -104.6,9.6 -220,-24.5 -115.5,-34.1 -204.1,-78.5 -198,-99.1 6,-20.6 104.6,-9.6 220,24.5 115.5,34.1 204.1,78.5 198,99.1" /><path
         id="path288"
         style="fill:#9f9f9e;fill-opacity:1;fill-rule:nonzero;stroke:none"
         d="m 14064.7,10185.2 c 0,0 -1.9,-245.4 62.5,-317.8 64.4,-72.4 398.3,-30.3 398.3,-30.3 0,0 22,98.7 -21.2,151 0,0 -144.4,-14.4 -206.4,17 -62.1,31.3 -45.9,165.3 -45.9,165.3 l -187.3,14.8" /><path
         id="path290"
         style="fill:#a45330;fill-opacity:1;fill-rule:nonzero;stroke:none"
         d="m 12091.7,12529.6 c 0,0 11,-146.9 82.3,-259 71.3,-112 301.9,-207.7 430.4,-216.4 l 79.1,307.3 c 0,0 -341.4,176.4 -364.8,187.3 -23.4,10.9 -227,-19.2 -227,-19.2" /><path
         id="path292"
         style="fill:#bdc1c4;fill-opacity:1;fill-rule:nonzero;stroke:none"
         d="m 12768.4,11221.1 9.1,-316.6 36.9,2.5 z" /><path
         id="path294"
         style="fill:#c37140;fill-opacity:1;fill-rule:nonzero;stroke:none"
         d="m 11716.3,12000.6 c 0,0 266.8,-121.7 375.4,-491.8 108.5,-370.1 -36.3,-657.3 -36.3,-657.3 h 278.2 l 101,-272.2 c 0,0 -417.4,-100.4 -632.7,-172.8 -215.2,-72.4 -547.1,-162.9 -762.3,-160.9 -215.2,2 -346,52.3 -366.1,84.5 -20.1,32.1 -16.1,259.4 10.1,337.9 26.1,78.4 88.5,186.7 100.5,250.2 12.1,63.6 40.3,230.5 122.7,325.1 82.5,94.5 104.6,128.7 104.6,128.7 0,0 10.1,209.2 211.2,360.1 201.2,150.8 364.1,164.9 378.2,185 14.1,20.1 115.5,83.5 115.5,83.5" /><path
         id="path296"
         style="fill:#a45330;fill-opacity:1;fill-rule:nonzero;stroke:none"
         d="m 11976.9,11607.3 c 0,0 -50.2,-104.6 -160.9,-189 0,0 167,4 160.9,189" /><path
         id="path298"
         style="fill:#a45330;fill-opacity:1;fill-rule:nonzero;stroke:none"
         d="m 11079.8,10863.8 c 0,0 114.7,72.9 420.4,47.2 305.8,-25.8 555.2,-59.5 555.2,-59.5 l 19,45.4 -336.8,56.7 44.2,150.9 c 0,0 78.5,-60.4 171,-90.5 92.5,-30.2 147.1,-36 147.1,-36 l 16.6,75.7 c 0,0 -107.2,-1.5 -219.9,60.8 -112.8,62.4 -147,106.6 -147,106.6 0,0 -64.3,-245.4 -90.5,-255.4 -26.1,-10.1 -452.6,55.7 -579.3,-101.9" /><path
         id="path300"
         style="fill:#bdc1c4;fill-opacity:1;fill-rule:nonzero;stroke:none"
         d="m 12074.4,10896.9 259.2,-45.4 h -278.2 z" /><path
         id="path302"
         style="fill:#bdc1c4;fill-opacity:1;fill-rule:nonzero;stroke:none"
         d="m 12116.5,11053.7 318.1,-10.6 -334.7,-65.1 z" /><path
         id="path304"
         style="fill:#a45330;fill-opacity:1;fill-rule:nonzero;stroke:none"
         d="m 13764.1,10970.6 c 0,0 -25.2,106 -84.5,215.3 l 42.3,9.3 c 0,0 57.3,-122.1 42.2,-224.6" /><path
         id="path306"
         style="fill:#a45330;fill-opacity:1;fill-rule:nonzero;stroke:none"
         d="m 14581.8,7622.6 c 0,0 52.3,-107.9 40.2,-291.3 0,0 100.6,182.7 -40.2,291.3" /><path
         id="path308"
         style="fill:#252323;fill-opacity:1;fill-rule:nonzero;stroke:none"
         d="m 13487.5,5683.6 c 0,0 -179.4,-64.4 -234.5,-96.6 -55.1,-32.2 -252.2,-509.1 -195.9,-594.5 56.3,-85.4 285.6,-153.8 390.2,-206 104.6,-52.3 539.1,-267.7 844.8,-226.4 305.8,41.3 329.8,369 265.5,432.4 -64.3,63.5 -386.2,184.2 -426.4,232.5 -40.2,48.2 -257.4,372.2 -285.6,405.3 -28.2,33.2 -229.3,122.4 -229.3,122.4 l -128.8,-69.1" /><path
         id="path310"
         style="fill:#ececec;fill-opacity:1;fill-rule:nonzero;stroke:none"
         d="m 13336.7,5923.4 c -12.9,-191.1 -38.8,-310.5 -30.2,-316.3 12.1,-8 109.8,-110.7 177,-112.6 67.3,-1.9 257.5,193.1 257.5,193.1 0,0 8.6,119.6 20.2,253.5 -121.1,-3.8 -300.1,-11.8 -424.5,-17.7" /><path
         id="path312"
         style="fill:#2f1d16;fill-opacity:1;fill-rule:nonzero;stroke:none"
         d="m 12793.4,13594.6 c -172.3,104.7 -357.8,91.4 -456,70.4 -98.1,-21 -257.8,-74.8 -257.8,-74.8 -41.4,-15 -83.6,-32.5 -109.3,-59 -41.1,-42.4 -49.5,-84.3 -49.5,-84.3 0,0 -140.6,-19.3 -160,-212 -19.5,-192.7 26,-348.9 65.7,-457.9 39.7,-109.1 200,-303.3 200,-303.3 l 176.9,239.4 c 127.2,-60.9 206.2,328.6 190.8,361.5 -9.8,20.8 387.8,99.9 387.8,99.9 l 93.3,43.9 c 0,0 46.6,121.6 -4,256.5 -15.8,42.4 -45.1,83.4 -77.9,119.7" /><path
         id="path314"
         style="fill:#c37140;fill-opacity:1;fill-rule:nonzero;stroke:none"
         d="m 12825.7,13289.3 c 0,0 40.3,-50.9 49.6,-70.9 9.2,-20 18.7,-202.6 22.4,-248.7 3.7,-46.2 -7.3,-109 -6.9,-131.4 0.3,-22.4 5.4,-159.5 0.3,-213.3 -5.2,-53.8 -61.6,-263.5 -80.2,-319 -18.5,-55.4 -45.7,-128.9 -72.3,-144.3 -26.6,-15.3 -144.4,-23.1 -249.2,6.7 -104.9,29.7 -311.3,165.2 -367.6,237.5 -56.3,72.2 -51.2,224.4 -51.2,224.4 0,0 -43.1,-12.6 -88.5,31.5 -45.4,44 -118.5,139.9 -105.2,247.5 13.2,107.6 95.9,70.1 138.3,27.4 42.4,-42.6 44.9,-108.2 53.9,-109.5 8.9,-1.4 17.8,1.7 22.3,3.3 4.4,1.6 23.6,112.2 24.8,134.6 1.1,22.4 -5.4,156.6 -2.5,161.1 2.9,4.5 112,140.4 147.6,154.4 35.5,14 564.4,8.7 564.4,8.7" /><path
         id="path316"
         style="fill:#2f1d16;fill-opacity:1;fill-rule:nonzero;stroke:none"
         d="m 12098.8,12857.7 c 0,0 13.4,71 35.1,113.3 21.6,42.3 6.9,67.5 12.4,114 5.4,46.5 68.2,59.8 80.6,120.2 12.3,60.4 67,79.7 67,79.7 0,0 -56,49.3 -62.6,44.3 -6.7,-4.9 -130.6,-51.2 -166.1,-100.5 -35.5,-49.4 -76.1,-41.5 -56.3,-123.9 19.8,-82.4 89.9,-247.1 89.9,-247.1" /><path
         id="path318"
         style="fill:#2f1d16;fill-opacity:1;fill-rule:nonzero;stroke:none"
         d="m 11872.7,13412.7 c 0,0 55.7,108.7 104.1,141.4 48.5,32.6 123.7,81 123.7,81 0,0 71.8,45.2 116.3,47.6 44.6,2.3 89.6,-1.4 89.6,-1.4 0,0 54.8,41.7 120.6,33.5 65.8,-8.2 82.1,-22.3 95.4,-24.9 13.4,-2.5 59.6,21.5 119.4,5.8 59.9,-15.6 81.1,-49.1 92.4,-52 11.2,-2.9 65,-10.9 93.2,-33.3 28.1,-22.3 47,-36.1 50.3,-70.1 3.4,-33.9 38.6,-51.3 53.9,-84.6 15.3,-33.3 -4.3,-52.2 -10.3,-90.6 -6,-38.4 -13.7,-88.3 -46,-146.7 0,0 -17.8,116.7 -21.2,119 -3.4,2.2 -266.8,85.5 -266.8,85.5 0,0 -513.7,-46.9 -525.5,-48.6 -11.8,-1.8 -189.1,38.4 -189.1,38.4" /><path
         id="path320"
         style="fill:#252323;fill-opacity:1;fill-rule:nonzero;stroke:none"
         d="m 4868.2,6303.6 c 0,0 165.19,-102.9 237.61,-154.3 72.41,-51.4 336.04,-347.6 397.32,-377.5 61.29,-29.9 371.44,-126.4 400.41,-156.6 28.98,-30.2 127.92,-289.7 0,-295.7 -127.91,-6 -59.1,-187.9 -485.74,-30.6 -426.64,157.3 -698.2,201.1 -722.33,390.4 -24.14,189.3 23.04,361.3 -6.04,415.7 -29.06,54.3 178.77,208.6 178.77,208.6" /><path
         id="path322"
         style="fill:#100f0d;fill-opacity:1;fill-rule:nonzero;stroke:none"
         d="m 3214.02,7353.1 c 0,0 91.53,-36.2 184.05,128.7 92.53,165 197.13,414.4 144.83,418.4 -52.3,4 -418.59,24.1 -466.76,0 -48.18,-24.1 -64.03,-42.4 -82.25,-99.7 -18.23,-57.2 -14.2,-88 46.14,-179.2 60.35,-91.2 173.99,-268.2 173.99,-268.2" /><path
         id="path324"
         style="fill:#252323;fill-opacity:1;fill-rule:nonzero;stroke:none"
         d="m 1573.38,5901.4 -271.71,-132.5 c 0,0 -37.18,-74.3 0,-100.1 37.18,-25.7 583.46,-108.7 632.08,-111.5 48.62,-2.9 203.07,123 203.07,123 l -563.44,221.1" /><path
         id="path326"
         style="fill:#636567;fill-opacity:1;fill-rule:nonzero;stroke:none"
         d="m 2215.95,6019.7 1563.51,-315.5 -35.28,-192.7 -377.1,-114.5 -1856.62,391.9 v 191.7 l 131.56,114.4 h 211.65 l 362.28,-75.3" /><path
         id="path328"
         style="fill:#9f9f9e;fill-opacity:1;fill-rule:nonzero;stroke:none"
         d="m 1710.66,7297.2 62.93,-1296.6 347.02,-72.5 95.34,91.6 -27.65,1239.3 -67.69,38.2 -347.02,30.5 -62.93,-30.5" /><path
         id="path330"
         style="fill:#c6c5c3;fill-opacity:1;fill-rule:nonzero;stroke:none"
         d="m 2120.61,7297.2 -347.02,30.5 v 495.7 h 347.02 v -526.2" /><path
         id="path332"
         style="fill:#9f9f9e;fill-opacity:1;fill-rule:nonzero;stroke:none"
         d="m 1010.9,8098 v -178.3 l 1761.79,-298.4 392.8,90.6 c 0,0 -80.08,166.8 -255.49,207.8 -175.42,41 -1899.1,178.3 -1899.1,178.3" /><path
         id="path334"
         style="fill:#4e4f51;fill-opacity:1;fill-rule:nonzero;stroke:none"
         d="m 1823.16,8692.9 c 0,0 -251.69,14.3 -408.04,3.3 C 1258.77,8685.3 736.328,8506 679.133,8425.9 621.93,8345.8 637.184,8117.1 648.621,8098 c 11.442,-19.1 1975.359,-373.7 2063.069,-385.2 87.71,-11.4 282.2,87.7 282.2,87.7 l -1170.73,892.4" /><path
         id="path336"
         style="fill:#636567;fill-opacity:1;fill-rule:nonzero;stroke:none"
         d="M 2668.69,8048.4 694.379,8391.6 c 0,0 -10.793,5.2 -27.234,13.1 -42.825,-93.2 -29.075,-289.1 -18.524,-306.7 11.438,-19.1 1975.359,-373.7 2063.069,-385.2 87.71,-11.4 282.2,87.7 282.2,87.7 l -325.2,247.9" /><path
         id="path338"
         style="fill:#b8623c;fill-opacity:1;fill-rule:nonzero;stroke:none"
         d="m 4496.33,8662.5 c 0,0 333.91,-180.7 478.73,-409.1 144.83,-228.5 172.99,-518.1 144.83,-751.5 -28.16,-233.3 -92.53,-643.6 -112.64,-868.9 -20.12,-225.3 -4.03,-394.3 -4.03,-394.3 0,0 -103.01,-24.1 -115.87,-52.3 -12.86,-28.1 -19.15,-111.4 -19.15,-111.4 0,0 -174.74,13 -178.77,20 -4.02,7 -311.94,1089.1 -296.77,1233.9 15.17,144.9 91.6,272.8 87.58,349.6 -4.02,76.9 -256.34,286.1 -256.34,286.1 0,0 -532.15,247.3 -548.25,346.9 -16.08,99.6 144.83,384.4 233.33,388.9 88.51,4.4 587.35,-37.9 587.35,-37.9" /><path
         id="path340"
         style="fill:#c37140;fill-opacity:1;fill-rule:nonzero;stroke:none"
         d="m 3048.08,7654.8 c 36.2,4 502.87,-36.2 543.09,-56.3 40.23,-20.1 40.23,-88.5 28.17,-104.6 -12.07,-16.1 -181.04,-277.6 -164.95,-523 16.1,-245.4 76.44,-504.8 88.51,-835.7 12.07,-330.9 -32.19,-536.1 -32.19,-536.1 0,0 116.67,-112.7 181.04,-80.5 64.36,32.2 201.15,166.6 201.15,166.6 0,0 10.71,595.7 162.25,942.7 151.53,347 324.52,1232.1 284.29,1372.9 -40.23,140.8 -250.43,266.5 -250.43,266.5 l -449.56,283.6 c 0,0 -348.5,9.1 -419.65,-39.2 -71.15,-48.3 -232.07,-348.7 -256.21,-413.7 -24.13,-65 -76.43,27.5 -28.16,-101.2 48.28,-128.8 112.65,-342 112.65,-342" /><path
         id="path342"
         style="fill:#ececec;fill-opacity:1;fill-rule:nonzero;stroke:none"
         d="m 4999.35,6511.5 c -129.09,-33.3 -295.76,-57.6 -406.8,-71.5 52.65,-193.8 95.4,-342.5 96.88,-345 4.03,-7 178.77,-20 178.77,-20 0,0 6.29,83.3 19.15,111.4 12.86,28.2 115.88,52.3 115.88,52.3 0,0 -10.56,110.9 -3.88,272.8" /><path
         id="path344"
         style="fill:#252323;fill-opacity:1;fill-rule:nonzero;stroke:none"
         d="m 2046.37,9402.7 -159.91,-100.5 -70.62,-193.1 c 0,0 -122.49,-111.6 -149.64,-371.1 -27.16,-259.5 -9.05,-543.1 135.77,-654.7 144.83,-111.7 410.34,-175 727.15,-392.3 316.8,-217.2 684.9,-337.9 684.9,-337.9 0,0 -205.17,515.2 -96.54,744.9 108.61,229.6 521.97,452.9 521.97,452.9 l 449.56,-283.6 c 0,0 95.28,165.9 218.11,253.4 122.84,87.5 195.25,129.8 189.21,141.8 -6.03,12.1 -600.42,307.8 -684.9,350 -84.48,42.3 -310.77,144 -349.99,176.1 -39.23,32.1 -200.86,128.4 -200.86,128.4 0,0 -864.22,114.9 -948.7,105.9 -84.48,-9.1 -265.51,-20.2 -265.51,-20.2" /><path
         id="path346"
         style="fill:#c37140;fill-opacity:1;fill-rule:nonzero;stroke:none"
         d="m 3385.66,11230.2 c 0,0 280.94,-51.3 615.85,-27.2 334.91,24.2 495.5,75.5 495.5,75.5 0,0 276.91,-103.5 632.94,-81.9 356.03,21.5 790.5,49.4 790.5,49.4 l 48.48,184.8 c 0,0 -482.95,119.2 -814.85,215.8 -331.89,96.5 -570.25,12 -606.45,0 -36.21,-12.1 -446.55,69.4 -696.98,72.4 0,0 -178.01,174 -395.25,222.8 -217.24,48.7 -467.67,56.8 -467.67,56.8 l 48.28,-315.8 349.65,-452.6" /><path
         id="path348"
         style="fill:#a45330;fill-opacity:1;fill-rule:nonzero;stroke:none"
         d="m 3455.4,11354.4 162.93,298.2 -113.86,-380.2 z" /><path
         id="path350"
         style="fill:#a45330;fill-opacity:1;fill-rule:nonzero;stroke:none"
         d="m 3633.41,11375 c 0,0 162.93,-35.1 283.62,-20.6 0,0 -166.95,-107.1 -283.62,20.6" /><path
         id="path352"
         style="fill:#a45330;fill-opacity:1;fill-rule:nonzero;stroke:none"
         d="m 4663.29,11528.9 c 0,0 112.64,-62.8 257.46,-62.6 0,0 -172.98,-80.2 -257.46,62.6" /><path
         id="path354"
         style="fill:#e9eef1;fill-opacity:1;fill-rule:nonzero;stroke:none"
         d="m 2885.31,12074.9 c 0,0 70.24,-33.1 152.71,-87.4 82.47,-54.3 281.6,-343.9 363.07,-494.8 81.46,-150.9 113.22,-187.1 103.38,-220.3 -9.85,-33.2 -76.23,-196.1 -76.23,-196.1 0,0 -197.36,-710 -184.16,-798.5 13.19,-88.5 41.88,-502.9 41.88,-502.9 0,0 20.64,-423.7 0,-445.2 -20.64,-21.5 -435.01,-150.2 -740.75,-158.2 -305.74,-8.1 -667.81,6.8 -695.97,89.9 -28.16,83 -22.54,465.2 -33.4,557.8 -10.85,92.5 -272.34,922.3 -324.64,1155.1 -52.29,232.8 257.47,944.8 257.47,944.8 l 217.35,159.8 919.29,-4" /><path
         id="path356"
         style="fill:#9f9f9e;fill-opacity:1;fill-rule:nonzero;stroke:none"
         d="m 6556.06,11270.8 h 97.25 c 0,0 34.32,-11.5 38.13,-70.6 3.81,-59.1 -13.35,-80.1 -13.35,-80.1 h -106.78 l -15.25,150.7" /><path
         id="path358"
         style="fill:#636567;fill-opacity:1;fill-rule:nonzero;stroke:none"
         d="m 7033.7,10861.3 h -60.07 v 3084.6 h 60.07 v -3084.6" /><path
         id="path360"
         style="fill:#636567;fill-opacity:1;fill-rule:nonzero;stroke:none"
         d="m 7662.92,10744.1 h -60.07 v 3201.8 h 60.07 v -3201.8" /><path
         id="path362"
         style="fill:#636567;fill-opacity:1;fill-rule:nonzero;stroke:none"
         d="m 7360.22,10744.1 h -30.03 v 3201.8 h 30.03 v -3201.8" /><path
         id="path364"
         style="fill:#252323;fill-opacity:1;fill-rule:nonzero;stroke:none"
         d="m 7743,10416.1 h -203.07 v 352.2 H 7743 v -352.2" /><path
         id="path366"
         style="fill:#252323;fill-opacity:1;fill-rule:nonzero;stroke:none"
         d="m 7105.2,10530.5 h -203.07 v 352.3 h 203.07 v -352.3" /><path
         id="path368"
         style="fill:#454547;fill-opacity:1;fill-rule:nonzero;stroke:none"
         d="m 2658.72,10843.7 c 0,0 19.07,-511 41.95,-709.3 22.88,-198.3 57.2,-358.5 76.27,-377.6 19.07,-19 129.66,-76.2 286.01,-76.2 156.35,0 448.08,183 441.4,213.5 -6.67,30.5 -62.54,1066 -62.54,1066 l -783.09,-116.4" /><path
         id="path370"
         style="fill:#9fa2a3;fill-opacity:1;fill-rule:nonzero;stroke:none"
         d="m 3063.44,9680.6 c 0.02,0 0.04,0 0.06,0 -0.02,0 -0.04,0 -0.06,0 m 0.5,0 h 0.02 c -0.01,0 -0.01,0 -0.02,0" /><path
         id="path372"
         style="fill:#555658;fill-opacity:1;fill-rule:nonzero;stroke:none"
         d="m 3062.95,9680.6 c -14.35,0 -28.32,0.4 -41.87,1.3 -134.02,8.8 -226.82,57.6 -244.14,74.9 -16.09,16.1 -43.04,132.7 -64.81,287.8 -4.03,28.7 -7.89,58.8 -11.46,89.8 -22.88,198.3 -41.95,709.3 -41.95,709.3 l 210.55,31.3 c 17.37,-196.5 78.77,-881.9 98.34,-973.3 15.72,-73.3 108.83,-162.9 165.58,-211.7 -24.78,-5.9 -48.23,-9.3 -69.23,-9.4 h -0.02 c -0.14,0 -0.29,0 -0.44,0 -0.02,0 -0.04,0 -0.06,0 -0.16,0 -0.33,0 -0.49,0 v 0" /><path
         id="path374"
         style="fill:#636567;fill-opacity:1;fill-rule:nonzero;stroke:none"
         d="m 3018.73,10897.2 82.35,-1037.4 284.58,41.9 -67.06,1040.1 -299.87,-44.6" /><path
         id="path376"
         style="fill:#252323;fill-opacity:1;fill-rule:nonzero;stroke:none"
         d="m 3244.08,10746.6 c 0,-23.2 -18.75,-41.9 -41.88,-41.9 -23.14,0 -41.89,18.7 -41.89,41.9 0,23.1 18.75,41.8 41.89,41.8 23.13,0 41.88,-18.7 41.88,-41.8" /><path
         id="path378"
         style="fill:#252323;fill-opacity:1;fill-rule:nonzero;stroke:none"
         d="m 3285.96,9993.3 c 0,-23.2 -18.75,-41.9 -41.88,-41.9 -23.13,0 -41.88,18.7 -41.88,41.9 0,23.1 18.75,41.8 41.88,41.8 23.13,0 41.88,-18.7 41.88,-41.8" /><path
         id="path380"
         style="fill:#252323;fill-opacity:1;fill-rule:nonzero;stroke:none"
         d="m 7411.23,10488.1 h -137.29 v 351.7 h 137.29 v -351.7" /><path
         id="path382"
         style="fill:#636567;fill-opacity:1;fill-rule:nonzero;stroke:none"
         d="M 7931.76,10270.7 H 6819.19 v 290.8 l 1112.57,-64.9 v -225.9" /><path
         id="path384"
         style="fill:#100f0d;fill-opacity:1;fill-rule:nonzero;stroke:none"
         d="m 6761.99,10110.4 -137.96,151.4 218.04,135.7 760.78,-23.8 577.74,-42.9 v -242.2 l -209.74,-129.7 -1208.86,151.5" /><path
         id="path386"
         style="fill:#636567;fill-opacity:1;fill-rule:nonzero;stroke:none"
         d="m 7685.8,9424.1 h -44.34 v 597.8 h 44.34 v -597.8" /><path
         id="path388"
         style="fill:#636567;fill-opacity:1;fill-rule:nonzero;stroke:none"
         d="m 7397.64,9458.4 h -44.33 v 597.8 h 44.33 v -597.8" /><path
         id="path390"
         style="fill:#636567;fill-opacity:1;fill-rule:nonzero;stroke:none"
         d="m 7085.18,9469.9 v 552 h -44.34 v -552 h 44.34" /><path
         id="path392"
         style="fill:#252323;fill-opacity:1;fill-rule:nonzero;stroke:none"
         d="m 6691.99,9989.8 1278.86,-30.9 v 236.5 l -1346.82,66.4 67.96,-272" /><path
         id="path394"
         style="fill:#636567;fill-opacity:1;fill-rule:nonzero;stroke:none"
         d="m 4469.61,5392.9 c 147.02,88.4 488.2,256.9 488.2,256.9 0,0 -38.75,356.5 -89.61,425.2 -50.87,68.6 -207.83,74.3 -207.83,74.3 0,0 -273.29,-34.3 -299.03,-54.3 -25.73,-20 -169.69,-132.5 -169.69,-132.5 0,0 90.64,-437.9 100.22,-537.6 l 177.74,-32" /><path
         id="path396"
         style="fill:#252323;fill-opacity:1;fill-rule:nonzero;stroke:none"
         d="m 3401.5,10496.6 h -210.8 c -32.87,0 -59.53,-26.6 -59.53,-59.5 0,-32.9 26.66,-59.5 59.53,-59.5 h 210.8 c 32.88,0 59.54,26.6 59.54,59.5 0,32.9 -26.66,59.5 -59.54,59.5" /><path
         id="path398"
         style="fill:#9f9f9e;fill-opacity:1;fill-rule:nonzero;stroke:none"
         d="m 4191.65,5962.5 c 0,0 -99.15,-50.6 -122.04,-96.3 -22.88,-45.8 -11.77,-397.5 -11.77,-397.5 l 334.82,-60.7 c 0,0 -2.71,318.9 -42.76,422.8 -40.04,104 -158.25,131.7 -158.25,131.7" /><path
         id="path400"
         style="fill:#252323;fill-opacity:1;fill-rule:nonzero;stroke:none"
         d="m 3752.76,10321.2 h -463.33 v 175.4 h 463.33 v -175.4" /><path
         id="path402"
         style="fill:#c6c5c3;fill-opacity:1;fill-rule:nonzero;stroke:none"
         d="m 4275.37,5755.5 c 0,-41.5 -33.71,-75.2 -75.29,-75.2 -41.58,0 -75.29,33.7 -75.29,75.2 0,41.6 33.71,75.3 75.29,75.3 41.58,0 75.29,-33.7 75.29,-75.3" /><path
         id="path404"
         style="fill:#252323;fill-opacity:1;fill-rule:nonzero;stroke:none"
         d="m 8464.38,8773 h -60.13 V 6893.9 h 60.13 V 8773" /><path
         id="path406"
         style="fill:#494a4b;fill-opacity:1;fill-rule:nonzero;stroke:none"
         d="m 5937.87,6664.1 1552.07,-274.5 v 327.9 l 358.46,-64.8 V 6340 l 461.43,-87.7 -17.71,-117.1 -2417.17,376 62.92,152.9" /><path
         id="path408"
         style="fill:#100f0d;fill-opacity:1;fill-rule:nonzero;stroke:none"
         d="m 6662.42,9379.3 -75.32,93.4 182.1,65.8 1395.72,-100.1 15.25,-2831.5 L 7947.55,6500 6662.42,9379.3" /><path
         id="path410"
         style="fill:#252323;fill-opacity:1;fill-rule:nonzero;stroke:none"
         d="M 6587.1,9472.7 V 6717.5 L 7947.55,6500 7924.67,9341.2 6587.1,9472.7" /><path
         id="path412"
         style="fill:#252323;fill-opacity:1;fill-rule:nonzero;stroke:none"
         d="m 5739.57,6465.8 -236.44,-137.3 v -68.6 l 663.54,-118.4 137.29,107 -564.39,217.3" /><path
         id="path414"
         style="fill:#252323;fill-opacity:1;fill-rule:nonzero;stroke:none"
         d="m 8622.53,5909.1 -270.75,-200.2 831.33,-165.9 377.53,278.4 -499.56,87.7 h -438.55" /><path
         id="path416"
         style="fill:#494a4b;fill-opacity:1;fill-rule:nonzero;stroke:none"
         d="m 5711.92,6359.1 h 268.85 l -80.09,8573.5 H 5634.7 l 77.22,-8573.5" /><path
         id="path418"
         style="fill:#252323;fill-opacity:1;fill-rule:nonzero;stroke:none"
         d="m 6658.61,4776.5 -111.54,-154.5 760.78,-171.6 386.11,274.6 -573.84,114.5 -461.51,-63" /><path
         id="path420"
         style="fill:#9f9f9e;fill-opacity:1;fill-rule:nonzero;stroke:none"
         d="m 4957.81,5649.7 c 0,0 68.65,-91.1 202.12,-142.8 133.46,-51.6 343.2,-49.7 343.2,-49.7 l 1369.03,730.2 439.37,100.3 850.65,-132.3 -1480.69,-1126.5 -291.73,-17.9 -1940.8,386 v 60.2 l 508.85,192.5" /><path
         id="path422"
         style="fill:#c6c5c3;fill-opacity:1;fill-rule:nonzero;stroke:none"
         d="m 4141.73,5457.2 2753.31,-539.6 v -249.3 l -2631.28,554.3 -152.53,202.2 30.5,32.4" /><path
         id="path424"
         style="fill:#636567;fill-opacity:1;fill-rule:nonzero;stroke:none"
         d="m 5807.73,6438.2 -95.81,-79.1 v -26.7 l 3028.83,-560.6 v 293.6 l -2865.8,445.8 -67.22,-73" /><path
         id="path426"
         style="fill:#636567;fill-opacity:1;fill-rule:nonzero;stroke:none"
         d="m 4868.2,5210.3 c 0,-32.2 -26.04,-58.2 -58.16,-58.2 -32.12,0 -58.16,26 -58.16,58.2 0,32.1 26.04,58.1 58.16,58.1 32.12,0 58.16,-26 58.16,-58.1" /><path
         id="path428"
         style="fill:#636567;fill-opacity:1;fill-rule:nonzero;stroke:none"
         d="m 5742.38,5028.9 c 0,-32.1 -26.03,-58.2 -58.15,-58.2 -32.12,0 -58.16,26.1 -58.16,58.2 0,32.1 26.04,58.2 58.16,58.2 32.12,0 58.15,-26.1 58.15,-58.2" /><path
         id="path430"
         style="fill:#636567;fill-opacity:1;fill-rule:nonzero;stroke:none"
         d="m 6895.04,4917.6 -34.32,934.3 c 0,0 -118.22,-19.1 -175.42,-114.4 -57.2,-95.4 -110.59,-263.2 -247.87,-328 -137.29,-64.8 -377.53,-83.9 -377.53,-83.9 v -262.9 l 835.14,-145.1" /><path
         id="path432"
         style="fill:#252323;fill-opacity:1;fill-rule:nonzero;stroke:none"
         d="m 6720.58,5288.9 c 0,-43.4 -35.22,-78.6 -78.66,-78.6 -43.43,0 -78.65,35.2 -78.65,78.6 0,43.4 35.22,78.7 78.65,78.7 43.44,0 78.66,-35.3 78.66,-78.7" /><path
         id="path434"
         style="fill:#c6c5c3;fill-opacity:1;fill-rule:nonzero;stroke:none"
         d="m 6895.04,4668.3 v -74.9 c 0,0 118.22,-34.3 244.06,0 125.85,34.3 209.74,129.7 209.74,129.7 l -109.64,4598 c 0,0 -195.44,824.7 -797.96,1026.8 l -2646.53,213.6 c 0,0 -129.66,-19.1 -186.86,-99.2 -57.2,-80.1 -30.51,-202.1 -30.51,-202.1 0,0 2574.08,-190.7 2707.55,-244.1 133.47,-53.3 362.28,-381.3 446.17,-629.2 83.9,-247.8 129.66,-3535 129.66,-3535 l 34.32,-1183.6" /><path
         id="path436"
         style="fill:#9f9f9e;fill-opacity:1;fill-rule:nonzero;stroke:none"
         d="m 7239.2,9321.1 c 0,0 -195.44,824.7 -797.96,1026.8 l -2646.53,213.6 c 0,0 -23.74,-3.6 -55.35,-13.8 l 2475.93,-199.8 c 602.53,-202.1 797.97,-1026.8 797.97,-1026.8 l 109.64,-4598 c 0,0 -83.9,-95.4 -209.75,-129.7 -3.01,-0.8 -6.03,-1.5 -9.03,-2.3 29.89,-7.1 129.75,-26.4 234.98,2.3 125.85,34.3 209.74,129.7 209.74,129.7 l -109.64,4598" /><path
         id="path438"
         style="fill:#c6c5c3;fill-opacity:1;fill-rule:nonzero;stroke:none"
         d="m 8740.75,5771.8 303.17,-62.9 211.64,114.4 17.16,9215.1 h -509.09 l -22.88,-9266.6" /><path
         id="path440"
         style="fill:#636567;fill-opacity:1;fill-rule:nonzero;stroke:none"
         d="m 9006.73,8671.9 h -265.98 v 1012.5 h 265.98 V 8671.9" /><path
         id="path442"
         style="fill:#9f9f9e;fill-opacity:1;fill-rule:nonzero;stroke:none"
         d="M 8746.47,9438.4 7248.69,8921.7 v -647.2 l 1672.24,658.6 v 456.7 l -174.46,48.6" /><path
         id="path444"
         style="fill:#c6c5c3;fill-opacity:1;fill-rule:nonzero;stroke:none"
         d="m 7248.69,8794.8 1672.24,595 -174.46,48.6 -1497.78,-516.7 v -126.9" /><path
         id="path446"
         style="fill:#100f0d;fill-opacity:1;fill-rule:nonzero;stroke:none"
         d="m 8915.21,9538.5 c 0,-28.4 -23.05,-51.5 -51.48,-51.5 -28.43,0 -51.48,23.1 -51.48,51.5 0,28.4 23.05,51.5 51.48,51.5 28.43,0 51.48,-23.1 51.48,-51.5" /><path
         id="path448"
         style="fill:#100f0d;fill-opacity:1;fill-rule:nonzero;stroke:none"
         d="m 8915.21,8793 c 0,-28.4 -23.05,-51.5 -51.48,-51.5 -28.43,0 -51.48,23.1 -51.48,51.5 0,28.4 23.05,51.5 51.48,51.5 28.43,0 51.48,-23.1 51.48,-51.5" /><path
         id="path450"
         style="fill:#252323;fill-opacity:1;fill-rule:nonzero;stroke:none"
         d="m 5900.68,14932.6 2862.95,105.8 h 286.01 l -111.54,529.2 -2616.98,-171.6 -420.44,-197.4 v -266" /><path
         id="path452"
         style="fill:#636567;fill-opacity:1;fill-rule:nonzero;stroke:none"
         d="m 5900.68,15198.6 2694.2,94.4 343.22,274.6 -2616.98,-171.6 -420.44,-197.4" /><path
         id="path454"
         style="fill:#636567;fill-opacity:1;fill-rule:nonzero;stroke:none"
         d="m 8289.73,6920.5 c -86.2,5.2 -167.22,-176.4 -180.97,-405.6 -13.75,-229.1 44.99,-419.1 131.18,-424.3 13.65,-0.8 27.18,3.1 40.33,11.1 l 108.69,-26.7 75.42,845.5 c -90.46,10.4 -174.65,0 -174.65,0" /><path
         id="path456"
         style="fill:#252323;fill-opacity:1;fill-rule:nonzero;stroke:none"
         d="m 7733.89,6090 c 0,-28.4 -23.03,-51.4 -51.43,-51.4 -28.4,0 -51.42,23 -51.42,51.4 0,28.4 23.02,51.5 51.42,51.5 28.4,0 51.43,-23.1 51.43,-51.5" /><path
         id="path458"
         style="fill:#c6c5c3;fill-opacity:1;fill-rule:nonzero;stroke:none"
         d="m 8595.56,6496.2 c -13.75,-229.2 -94.77,-410.7 -180.97,-405.6 -86.2,5.2 -144.92,195.2 -131.17,424.3 13.74,229.2 94.76,410.8 180.96,405.6 86.2,-5.2 144.93,-195.1 131.18,-424.3" /><path
         id="path460"
         style="fill:#252323;fill-opacity:1;fill-rule:nonzero;stroke:none"
         d="m 8527.67,6502.5 c 0,-33.1 -17.61,-60 -39.33,-60 -21.71,0 -39.32,26.9 -39.32,60 0,33.2 17.61,60.1 39.32,60.1 21.72,0 39.33,-26.9 39.33,-60.1" /><path
         id="path462"
         style="fill:#636567;fill-opacity:1;fill-rule:nonzero;stroke:none"
         d="m 6235.18,14945 v -1050.6 l 1844.89,-42.9 16.13,1162.3 -1861.02,-68.8" /><path
         id="path464"
         style="fill:#898b8b;fill-opacity:1;fill-rule:nonzero;stroke:none"
         d="m 6235.32,7986.4 c 0,0 -812.27,69.6 -838.96,69.6 -26.7,0 -125.85,-55.4 -133.47,-69.6 -7.63,-14.3 0,-86.7 0,-86.7 l 1560.44,-221.2 -2.63,95.4 -585.38,212.5" /><path
         id="path466"
         style="fill:#9f9f9e;fill-opacity:1;fill-rule:nonzero;stroke:none"
         d="M 6789.38,8671.9 H 6662.42 L 6587.1,8609 c 0,0 -298.39,-45.8 -374.66,-103 -76.27,-57.2 -61.02,-617.8 -61.02,-617.8 l 669.28,-114.3 -31.32,898" /><path
         id="path468"
         style="fill:#252323;fill-opacity:1;fill-rule:nonzero;stroke:none"
         d="m 6458.4,8253.4 c 0,-32.1 -26.04,-58.2 -58.15,-58.2 -32.12,0 -58.16,26.1 -58.16,58.2 0,32.1 26.04,58.1 58.16,58.1 32.11,0 58.15,-26 58.15,-58.1" /><path
         id="path470"
         style="fill:#252323;fill-opacity:1;fill-rule:nonzero;stroke:none"
         d="m 3823.31,10358.4 c 0,-32.1 -26.03,-58.2 -58.15,-58.2 -32.12,0 -58.16,26.1 -58.16,58.2 0,32.1 26.04,58.2 58.16,58.2 32.12,0 58.15,-26.1 58.15,-58.2" /><path
         id="path472"
         style="fill:#c6c5c3;fill-opacity:1;fill-rule:nonzero;stroke:none"
         d="m 4459.42,5720.3 c 0,-8.6 -10.46,-263.1 -10.46,-263.1 l 438.39,166.9 -21.8,277.3 -406.13,-181.1" /><path
         id="path474"
         style="fill:#898b8b;fill-opacity:1;fill-rule:nonzero;stroke:none"
         d="m 5259.92,9188.6 -494.85,-3205.2 -299.73,-82 -158.22,99.2 460.44,3119.4 492.36,68.6" /><path
         id="path476"
         style="fill:#9f9f9e;fill-opacity:1;fill-rule:nonzero;stroke:none"
         d="m 3969.12,10733.3 -7.15,25 44.33,60.1 c 0,0 18.59,36.3 110.11,23.9 91.52,-12.5 85.21,19.2 121.55,-53.2 36.35,-72.4 -70.07,-224.8 -90.09,-220 -20.02,4.8 -165.53,1.2 -165.53,1.2 l -13.22,163" /><path
         id="path478"
         style="fill:#9f9f9e;fill-opacity:1;fill-rule:nonzero;stroke:none"
         d="m 4426.25,10974.3 c 0,0 61.97,-1.5 99.16,-35.8 37.17,-34.3 44.32,-151.6 35.74,-205.2 -8.58,-53.6 -30.03,-343.4 -232.14,-602.7 -202.11,-259.4 -445.69,-386.2 -445.69,-386.2 l -101.54,207 c 0,0 378.96,375.1 467.62,642.5 88.67,267.4 176.85,380.4 176.85,380.4" /><path
         id="path480"
         style="fill:#636567;fill-opacity:1;fill-rule:nonzero;stroke:none"
         d="m 3521.51,9859.8 -100.89,-20.7 c 0,0 294.42,-722.9 630.01,-871.7 335.58,-148.7 1254.62,221.2 1254.62,221.2 0,0 31.11,274.6 -177.02,305.1 0,0 -650.02,-221.2 -839.02,-205.9 -189,15.2 -405.89,456.6 -405.89,456.6 l -101.54,207 -24.31,32.9 -235.96,-124.5" /><path
         id="path482"
         style="fill:#636567;fill-opacity:1;fill-rule:nonzero;stroke:none"
         d="m 5844.16,10073 c -11.83,-120.3 -45.59,-319.5 -142.31,-384.8 -141.1,-95.3 -573.62,-194.5 -573.62,-194.5 l -25.09,-76.3 202.11,-228.8 c 0,0 511,118.2 690.24,349.9 135.06,174.6 141.36,390.8 135.69,503.3 l -287.02,31.2" /><path
         id="path484"
         style="fill:#252323;fill-opacity:1;fill-rule:nonzero;stroke:none"
         d="m 5509.9,9249.7 -424.38,-129.7 -47.92,185.6 422.8,97.1 49.5,-153" /><path
         id="path486"
         style="fill:#252323;fill-opacity:1;fill-rule:nonzero;stroke:none"
         d="m 6428.17,8578.9 -878.12,528.1 15.67,26.1 906.09,-545 -43.64,-9.2" /><path
         id="path488"
         style="fill:#c37140;fill-opacity:1;fill-rule:nonzero;stroke:none"
         d="m 5879.8,11453.1 c 0,0 392.16,-29.8 477.96,-33.6 85.8,-3.8 141.1,-1.9 173.51,-26.7 32.42,-24.8 91.53,-268.9 87.71,-287.9 -3.81,-19.1 -34.32,-26.7 -34.32,-26.7 0,0 -7.62,-21 -24.79,-22.9 -17.16,-1.9 -30.5,0 -30.5,0 0,0 -61.02,-24.8 -85.81,-24.8 -24.78,0 -181.13,-15.2 -200.2,-9.5 -19.07,5.7 -15.26,-11.3 -28.6,32.5 -13.35,43.8 -97.25,125.7 -116.31,135.3 -19.07,9.5 -192.08,57.2 -192.08,57.2 0,0 -61.52,120.1 -53.89,158.2 7.63,38.2 27.32,48.9 27.32,48.9" /><path
         id="path490"
         style="fill:#a45330;fill-opacity:1;fill-rule:nonzero;stroke:none"
         d="m 6056.5,11410 c 5.72,0 156.35,-11.5 163.98,-15.3 7.63,-3.8 49.57,-76.3 99.15,-125.8 49.57,-49.6 51.48,-66.8 32.41,-83.9 -19.07,-17.2 -83.9,-5.8 -83.9,-5.8 v -43.8 c 0,0 78.18,-1.9 114.41,22.9 36.23,24.8 22.88,76.2 0,101 -22.88,24.8 -118.98,168.1 -147.06,171.2 -28.07,3.1 -178.99,-20.5 -178.99,-20.5" /><path
         id="path492"
         style="fill:#a45330;fill-opacity:1;fill-rule:nonzero;stroke:none"
         d="m 6390.18,11308.9 -5.3,-282.1 40.04,2.8 z" /><path
         id="path494"
         style="fill:#a45330;fill-opacity:1;fill-rule:nonzero;stroke:none"
         d="m 6479.79,11283.1 19.03,-239.1 30.55,11.3 z" /><path
         id="path496"
         style="fill:#636567;fill-opacity:1;fill-rule:nonzero;stroke:none"
         d="m 5179.41,9280.1 198.3,49.6 c 0,0 297.45,-200.1 299.35,-209.7 1.91,-9.6 -5.72,-42 -101.05,-49.6 -95.34,-7.6 -396.6,209.7 -396.6,209.7" /><path
         id="path498"
         style="fill:#9f9f9e;fill-opacity:1;fill-rule:nonzero;stroke:none"
         d="m 6151.84,11246 c 0,0 -221.18,-38.2 -366.09,-160.2 -144.92,-122 -251.69,-430.9 -259.32,-509.1 -4.55,-46.6 24.79,-112.8 49.22,-158.7 l 304.72,-23.4 c -6.23,35.7 -16.45,71.5 -16.45,71.5 l -55.77,38.2 c 0,0 -75.79,-7.7 -85.33,57.2 -9.53,64.8 167.8,383.2 258.37,444.2 90.56,61.1 286.95,43.9 286.95,49.6 0,5.7 0,123.9 0,123.9 l -116.3,66.8" /><path
         id="path500"
         style="fill:#252323;fill-opacity:1;fill-rule:nonzero;stroke:none"
         d="m 5808.15,10380.8 c -3.89,0.3 0,123.5 0,123.5 0,0 178.94,43.8 323.28,-24.8 v -148.7 l -323.28,50" /><path
         id="path502"
         style="fill:#898b8b;fill-opacity:1;fill-rule:nonzero;stroke:none"
         d="m 3764.32,9975.8 c 11.4,-28.7 -56.3,-82.5 -151.21,-120.2 -94.91,-37.8 -181.09,-45.2 -192.49,-16.5 -11.4,28.6 56.3,82.5 151.21,120.2 94.91,37.8 181.09,45.1 192.49,16.5" /><path
         id="path504"
         style="fill:#c6c5c3;fill-opacity:1;fill-rule:nonzero;stroke:none"
         d="m 4095.43,10683.4 c 0,-62.5 -50.63,-113.1 -113.09,-113.1 -62.45,0 -113.09,50.6 -113.09,113.1 0,62.4 50.64,113.1 113.09,113.1 62.46,0 113.09,-50.7 113.09,-113.1" /><path
         id="path506"
         style="fill:#c37140;fill-opacity:1;fill-rule:nonzero;stroke:none"
         d="m 3636.43,10844.9 c 0,0 59.65,-29.7 156.9,-77.3 97.24,-47.7 289.71,28.5 327.85,20.8 38.13,-7.7 53.39,-110.6 51.48,-143 -1.91,-32.5 -30.51,-66.8 -24.79,-76.3 5.72,-9.5 85.81,-1.9 120.13,0 34.31,1.9 61.01,28.6 61.01,28.6 0,0 53.39,1 67.69,7.6 14.3,6.7 29.55,23.9 29.55,23.9 0,0 27.65,9.5 36.23,22.8 8.58,13.4 9.54,35.3 9.54,35.3 0,0 16.2,6.7 23.35,56.7 7.15,50.1 -8.58,254.6 -57.2,287.5 -48.62,32.9 -765.39,76.4 -765.39,76.4 0,0 6.04,-93.6 8.9,-100.7 2.86,-7.2 -45.25,-162.3 -45.25,-162.3" /><path
         id="path508"
         style="fill:#a45330;fill-opacity:1;fill-rule:nonzero;stroke:none"
         d="m 4249.4,10835.6 c 2.87,-4.3 79.61,-237.9 79.61,-237.9 l -25.92,-18.3 -53.69,256.2" /><path
         id="path510"
         style="fill:#a45330;fill-opacity:1;fill-rule:nonzero;stroke:none"
         d="m 4338.07,10861.3 88.18,-232.1 -29.55,-23.9 z" /><path
         id="path512"
         style="fill:#a45330;fill-opacity:1;fill-rule:nonzero;stroke:none"
         d="m 4419.58,10905.6 52.44,-218.3 18.71,33.6 z" /><path
         id="path514"
         style="fill:#c37140;fill-opacity:1;fill-rule:nonzero;stroke:none"
         d="m 2198.71,12478.7 c 0,0 -37.53,-130.2 -103.91,-236.8 -66.38,-106.7 -128.78,-163 -128.78,-163 0,0 243.44,-152.8 436.54,-382.2 193.1,-229.3 410.34,-354 621.54,-265.5 211.2,88.5 48.28,384.2 -12.07,466.7 -60.34,82.5 -126.72,177 -126.72,177 l -162.93,78.2 c 0,0 -255.46,318.1 -283.62,340.2 -28.16,22.1 -120.68,108.6 -134.77,106.6 -14.07,-2 -70.4,20.2 -80.45,0 -10.06,-20.1 -24.83,-121.2 -24.83,-121.2" /><path
         id="path516"
         style="fill:#a45330;fill-opacity:1;fill-rule:nonzero;stroke:none"
         d="m 2263.83,12534.5 c 0,0 11.08,-146.9 82.36,-258.9 71.29,-112.1 301.91,-207.8 430.43,-216.5 l 79.07,307.3 c 0,0 -341.43,176.4 -364.84,187.3 -23.4,10.9 -227.02,-19.2 -227.02,-19.2" /><path
         id="path518"
         style="fill:#c37140;fill-opacity:1;fill-rule:nonzero;stroke:none"
         d="m 1807.04,11962 c 0,0 192.91,32.6 372.09,-91.2 179.17,-123.7 213.21,-337.9 213.21,-337.9 0,0 257.46,-100.6 366.09,-185 0,0 216.42,-20.1 401.88,-72.5 185.47,-52.2 644.08,-213.2 644.08,-213.2 l -22.61,-217.3 c 0,0 -415.89,-124.4 -822.2,-98.3 -406.32,26 -399.82,128.4 -399.82,128.4 0,0 -313.35,-1.3 -483.77,30.6 0,0 -99.99,-171.8 -307.21,-159 -207.21,12.7 -283.53,263.3 -283.53,263.3 0,0 -126.8,217.3 -70.48,531.1 56.32,313.8 392.27,421 392.27,421" /><path
         id="path520"
         style="fill:#a45330;fill-opacity:1;fill-rule:nonzero;stroke:none"
         d="m 1527.41,11133.6 c 9.05,0 138.79,-13.5 138.79,-13.5 0,0 182.84,-190.8 409.79,-214.5 l -64.95,-75 c 0,0 -187.94,62.7 -262.37,143.1 -74.42,80.5 -221.26,159.9 -221.26,159.9" /><path
         id="path522"
         style="fill:#a45330;fill-opacity:1;fill-rule:nonzero;stroke:none"
         d="m 1603.84,11388.1 c 0,0 4.03,-58.3 64.37,-120.7 0,0 -94.54,22.1 -64.37,120.7" /><path
         id="path524"
         style="fill:#a45330;fill-opacity:1;fill-rule:nonzero;stroke:none"
         d="m 2631.7,11203 c 0,0 54.32,-48.2 195.12,-50.2 0,0 -146.84,-64.4 -195.12,50.2" /><path
         id="path526"
         style="fill:#da8257;fill-opacity:1;fill-rule:nonzero;stroke:none"
         d="m 2243.49,11748.1 c 70.4,-112.6 88.51,-191 88.51,-191 l -90.52,-26.2 c 0,0 132.75,-40.2 271.55,-106.6 138.79,-66.4 243.38,-136.8 243.38,-136.8 0,0 334.44,-33.4 712.33,-110.2 -115.26,38.6 -233.9,77.1 -308.43,98.1 -185.46,52.4 -401.88,72.5 -401.88,72.5 -108.62,84.4 -366.09,185 -366.09,185 0,0 -34.04,214.2 -213.22,337.9 -49.71,34.4 -100.47,56.6 -147.88,71 0.82,-0.5 142.06,-81.3 212.25,-193.7" /><path
         id="path528"
         style="fill:#100f0d;fill-opacity:1;fill-rule:nonzero;stroke:none"
         d="m 2607.57,8876.8 c 27.15,-3 190.08,-54.3 509.91,-138.8 319.81,-84.5 521.97,-187.1 521.97,-187.1 l 192.59,-121.5 c 0,0 -123.2,160.7 -162.42,203 -39.22,42.2 -589.56,202.1 -593.48,211.2 -3.92,9 5.45,181 5.45,181 0,0 -39.54,-132.7 -118,-144.8 -78.44,-12.1 -356.02,-3 -356.02,-3" /><path
         id="path530"
         style="fill:#a45330;fill-opacity:1;fill-rule:nonzero;stroke:none"
         d="m 4034.7,7630.8 c 0,0 -30.17,-102.7 69.4,-199.3 l -69.4,199.3" /><path
         id="path532"
         style="fill:#252323;fill-opacity:1;fill-rule:nonzero;stroke:none"
         d="m 3739.36,5755.5 -168.24,-146.3 -179.08,-52 c 0,0 -181.03,-499.1 -168.96,-528.3 12.06,-29.2 124.52,-150.5 333.8,-189.4 209.29,-39 535.15,-296.6 867.04,-261.3 331.9,35.3 331.9,291.2 295.68,392.5 -36.2,101.4 -356.27,118.7 -374.25,194.5 -17.98,75.8 -301.6,421.8 -337.8,484.2 -36.21,62.3 -268.19,106.1 -268.19,106.1" /><path
         id="path534"
         style="fill:#ececec;fill-opacity:1;fill-rule:nonzero;stroke:none"
         d="m 3543.5,5928.1 c -6.55,-207.2 -32.78,-329 -32.78,-329 0,0 116.66,-112.7 181.03,-80.5 64.36,32.2 201.15,166.6 201.15,166.6 0,0 1.89,105.4 15.37,253.3 -132.66,-8 -279.34,-10 -364.77,-10.4" /><path
         id="path536"
         style="fill:#c37140;fill-opacity:1;fill-rule:nonzero;stroke:none"
         d="m 5274.77,11612.3 v -406.9 c 318.97,19.6 645.68,40.6 645.68,40.6 l 48.48,184.8 c 0,0 -377.34,93.1 -694.16,181.5" /><path
         id="path538"
         style="fill:#2f1d16;fill-opacity:1;fill-rule:nonzero;stroke:none"
         d="m 2964.55,13594.6 c -172.29,104.7 -357.83,91.4 -455.99,70.4 -98.17,-21 -257.88,-74.8 -257.89,-74.8 -41.4,-15 -83.57,-32.5 -109.28,-59 -41.12,-42.4 -49.43,-84.3 -49.43,-84.3 0,0 -140.66,-19.3 -160.08,-212 -19.42,-192.7 26.03,-348.9 65.73,-457.9 39.71,-109.1 200.04,-303.3 200.04,-303.3 l 176.87,239.4 c 127.24,-60.9 206.21,328.6 190.78,361.5 -9.78,20.8 387.79,99.9 387.79,99.9 l 93.3,43.9 c 0,0 46.61,121.6 -3.94,256.5 -15.86,42.4 -45.17,83.4 -77.9,119.7" /><path
         id="path540"
         style="fill:#c37140;fill-opacity:1;fill-rule:nonzero;stroke:none"
         d="m 2996.82,13289.3 c 0,0 40.31,-50.9 49.57,-70.9 9.25,-20 18.76,-202.6 22.45,-248.7 3.69,-46.2 -7.28,-109 -6.93,-131.4 0.34,-22.4 5.42,-159.5 0.29,-213.3 -5.15,-53.8 -61.6,-263.5 -80.14,-319 -18.54,-55.4 -45.76,-128.9 -72.37,-144.3 -26.61,-15.3 -144.34,-23.1 -249.21,6.7 -104.87,29.7 -311.3,165.2 -367.59,237.5 -56.31,72.2 -51.18,224.4 -51.18,224.4 0,0 -43.06,-12.6 -88.49,31.5 -45.42,44 -118.49,139.9 -105.23,247.5 13.27,107.6 95.89,70.1 138.31,27.4 42.42,-42.6 44.92,-108.2 53.89,-109.5 8.97,-1.4 17.87,1.7 22.32,3.3 4.45,1.6 23.63,112.2 24.78,134.6 1.15,22.4 -5.38,156.6 -2.47,161.1 2.92,4.5 111.96,140.4 147.55,154.4 35.58,14 564.45,8.7 564.45,8.7" /><path
         id="path542"
         style="fill:#2f1d16;fill-opacity:1;fill-rule:nonzero;stroke:none"
         d="m 2269.95,12857.7 c 0,0 13.35,71 35.03,113.3 21.69,42.3 6.93,67.5 12.4,114 5.47,46.5 68.25,59.8 80.62,120.2 12.36,60.4 67,79.7 67,79.7 0,0 -56.01,49.3 -62.63,44.3 -6.61,-4.9 -130.57,-51.2 -166.08,-100.5 -35.51,-49.4 -76.08,-41.5 -56.27,-123.9 19.81,-82.4 89.93,-247.1 89.93,-247.1" /><path
         id="path544"
         style="fill:#2f1d16;fill-opacity:1;fill-rule:nonzero;stroke:none"
         d="m 2043.84,13412.7 c 0,0 55.64,108.7 104.12,141.4 48.47,32.6 123.68,81 123.68,81 0,0 71.73,45.2 116.31,47.6 44.57,2.3 89.55,-1.4 89.55,-1.4 0,0 54.84,41.7 120.63,33.5 65.8,-8.2 82.09,-22.3 95.42,-24.9 13.33,-2.5 59.53,21.5 119.4,5.8 59.87,-15.6 81.1,-49.1 92.33,-52 11.22,-2.9 65.09,-10.9 93.23,-33.3 28.14,-22.3 46.97,-36.1 50.32,-70.1 3.36,-33.9 38.56,-51.3 53.87,-84.6 15.29,-33.3 -4.28,-52.2 -10.3,-90.6 -6.01,-38.4 -13.7,-88.3 -46.01,-146.7 0,0 -17.75,116.7 -21.17,119 -3.42,2.2 -266.75,85.5 -266.75,85.5 0,0 -513.73,-46.9 -525.52,-48.6 -11.78,-1.8 -189.11,38.4 -189.11,38.4" /></g></g></svg>