<?xml version="1.0" encoding="UTF-8" standalone="no"?>
<svg
   xmlns:dc="http://purl.org/dc/elements/1.1/"
   xmlns:cc="http://creativecommons.org/ns#"
   xmlns:rdf="http://www.w3.org/1999/02/22-rdf-syntax-ns#"
   xmlns:svg="http://www.w3.org/2000/svg"
   xmlns="http://www.w3.org/2000/svg"
   viewBox="0 0 2666.6667 2666.6667"
   height="2666.6667"
   width="2666.6667"
   xml:space="preserve"
   id="svg2"
   version="1.1"><metadata
     id="metadata8"><rdf:RDF><cc:Work
         rdf:about=""><dc:format>image/svg+xml</dc:format><dc:type
           rdf:resource="http://purl.org/dc/dcmitype/StillImage" /></cc:Work></rdf:RDF></metadata><defs
     id="defs6" /><g
     transform="matrix(1.3333333,0,0,-1.3333333,0,2666.6667)"
     id="g10"><g
       transform="scale(0.1)"
       id="g12"><g
         transform="scale(1.22699)"
         id="g14"><path
           id="path16"
           style="fill:none;fill-opacity:1;fill-rule:nonzero;stroke:none"
           d="M 16300,0 H 0 V 16300 H 16300 V 0" /></g><path
         id="path18"
         style="fill:#3a70c0;fill-opacity:1;fill-rule:nonzero;stroke:none"
         d="m 11963,3544.2 c 0,0 -104.9,-214.4 -94.9,-294.4 10,-79.9 134.9,-164.8 169.9,-244.8 35,-79.9 129.7,-204.9 167.3,-314.8 37.6,-109.9 57.5,-294.8 277.4,-279.8 219.8,15 394.7,404.7 674.5,514.7 279.8,109.9 589.6,230.6 764.5,490 174.9,259.5 199.9,454.3 154.9,564.2 -45,110 -89.9,125 -264.8,80 -174.9,-45 -45,-80 -449.7,-139.9 -404.7,-60 -844.4,147.3 -879.4,163.6 -35,16.3 -63.3,-53.7 -63.3,-53.7 0,0 -181.7,-30 -214.1,-84.9 -32.4,-55 -242.3,-400.2 -242.3,-400.2" /><path
         id="path20"
         style="fill:#3a70c0;fill-opacity:1;fill-rule:nonzero;stroke:none"
         d="m 6490.11,3569.6 c 0,0 -286.47,-91.8 -353.09,-205.8 -66.62,-114 -73.28,-253.9 -86.61,-360.5 -13.32,-106.6 -126.58,-419.7 -126.58,-506.3 0,-86.6 226.51,-159.9 726.17,-119.9 499.66,40 1032.63,-82.4 1312.44,-11.2 279.81,71.2 353.09,357.6 313.12,450.9 -39.97,93.3 -286.47,60 -612.91,199.9 -326.45,139.9 -509.53,499.6 -557.89,552.9 -48.37,53.3 -168.29,80 -201.6,86.6 -33.31,6.7 -413.05,-86.6 -413.05,-86.6" /><path
         id="path22"
         style="fill:#ffffff;fill-opacity:1;fill-rule:nonzero;stroke:none"
         d="m 12048,3589.6 -35,-173.2 c 0,0 75,-86.6 124.9,-106.6 50,-20 144.9,35.8 224.9,105.3 79.9,69.6 56.6,367.7 56.6,367.7 l -431.4,-88.3 60,-104.9" /><path
         id="path24"
         style="fill:#ffffff;fill-opacity:1;fill-rule:nonzero;stroke:none"
         d="m 6490.11,3415.1 h -159.89 c 0,0 106.6,-231.9 159.89,-231.9 53.3,0 339.77,213.2 339.77,213.2 l -339.77,18.7" /><path
         id="path26"
         style="fill:#fbc295;fill-opacity:1;fill-rule:nonzero;stroke:none"
         d="m 9724.57,7187.1 c 0,0 542.93,-586.2 582.93,-686.2 40,-99.9 80,-892.7 273.2,-1212.5 193.2,-319.7 659.5,-846 939.3,-1172.5 279.8,-326.4 486.3,-726.2 493,-699.5 6.7,26.6 406.4,366.4 406.4,366.4 v 246.5 c 0,0 -306.5,453 -526.3,932.7 -219.9,479.7 -566.3,1399 -592.9,1499 -26.7,99.9 -33.3,366.4 -80,493 -46.6,126.6 -253.1,486.3 -306.4,652.9 -53.3,166.5 -659.6,0 -659.6,0 l -529.63,-419.8" /><path
         id="path28"
         style="fill:#fbc295;fill-opacity:1;fill-rule:nonzero;stroke:none"
         d="m 7558.86,7141 c 0,0 -269.29,-433.5 -469.16,-653.4 -199.86,-219.8 -426.37,-532.9 -453.02,-1132.5 -26.65,-599.6 -306.46,-1940 -306.46,-1940 0,0 -19.99,-72 239.84,-45.3 259.82,26.6 259.82,26.6 259.82,26.6 l 114.48,99.9 c 0,0 191.98,646.3 471.79,1192.6 279.81,546.2 373.07,1032.6 546.29,1159.2 173.21,126.5 319.78,413 373.08,566.2 53.29,153.3 99.93,206.6 99.93,206.6 0,0 406.39,313.1 313.12,366.4 -93.27,53.3 -1189.71,153.7 -1189.71,153.7" /><path
         id="path30"
         style="fill:#100f0d;fill-opacity:1;fill-rule:nonzero;stroke:none"
         d="m 7995.75,9039.6 c 0,0 -209.86,-873.1 -369.75,-1152.9 -159.89,-279.8 -199.86,-689.6 -199.86,-689.6 0,0 419.71,-199.8 919.37,-259.8 499.66,-59.9 596.26,50 596.26,50 0,0 73.28,1589.5 -106.59,1654.1 -179.88,64.7 -839.43,398.2 -839.43,398.2" /><path
         id="path32"
         style="fill:#252323;fill-opacity:1;fill-rule:nonzero;stroke:none"
         d="m 9814.51,10598.2 c 0,0 89.94,-333.1 129.91,-433.1 39.97,-99.9 34.97,-309.8 69.98,-399.7 34.9,-90 513,-919.4 606.2,-1109.3 93.3,-189.8 379.8,-1109.2 379.8,-1109.2 0,0 -766.2,-406.4 -959.4,-426.4 -193.18,-20 -1099.23,-133.2 -1099.23,-133.2 0,0 -699.52,1325.7 -799.45,1518.9 -99.93,193.3 -426.15,659.6 -426.27,972.7 -0.11,313.1 326.34,1179.2 326.34,1179.2 l 772.8,233.2 999.32,-293.1" /><path
         id="path34"
         style="fill:#db986b;fill-opacity:1;fill-rule:nonzero;stroke:none"
         d="m 7556.05,9015.9 c 13.33,0 107.89,52 107.89,52 0,0 62,-119.5 106.96,-179.4 44.97,-60 84.94,-167.4 62.46,-207.4 -22.48,-39.9 -117.42,-20 -117.42,-20 l -144.9,200.9 -14.99,153.9" /><path
         id="path36"
         style="fill:#fbc295;fill-opacity:1;fill-rule:nonzero;stroke:none"
         d="m 9994.8,11747.4 c 0,0 206.1,-83.3 432.6,-223.2 226.5,-139.9 219.9,-193.2 566.3,-179.9 346.4,13.3 1472.3,499.7 1472.3,499.7 l -139.9,379.7 c 0,0 -446.3,-138.2 -659.5,-122.4 -213.2,15.8 -533,72.5 -626.3,89.1 -93.2,16.7 -196.5,33.3 -196.5,33.3 0,0 -399.7,559.6 -644.6,654.6 -244.79,94.9 -414.67,-434.7 -459.64,-579.6 -44.97,-144.9 -255.24,31.5 0,-259.9 255.24,-291.4 255.24,-291.4 255.24,-291.4" /><path
         id="path38"
         style="fill:#3a70c0;fill-opacity:1;fill-rule:nonzero;stroke:none"
         d="m 8830.18,14632.1 -189.87,-105 c 0,0 280.47,-47.5 465.34,-237.4 184.88,-189.9 329.12,-753.5 229.19,-1159.9 -99.93,-406.4 -413.05,-626.3 -539.63,-699.6 -126.59,-73.3 -346.44,-59.9 -346.44,-59.9 l -353.09,-293.2 -53.29,-1419 c 0,0 113.25,-113.2 812.78,-133.2 699.52,-20 959.34,73.3 959.34,73.3 0,0 206.49,1332.4 246.49,1552.2 40,219.9 40,219.9 40,219.9 0,0 118.2,163.2 143.2,303.1 25,139.9 20,346.4 0,519.7 -20,173.2 -138.8,443.4 -138.8,443.4 l -830.52,945.6 -444.7,50" /><path
         id="path40"
         style="fill:#fbc295;fill-opacity:1;fill-rule:nonzero;stroke:none"
         d="m 8640.31,14527.1 c 0,0 -404.72,-344.7 -444.69,-374.7 -39.98,-30 -199.87,-189.9 -299.8,-359.8 -99.93,-169.8 -159.89,-378.1 -159.89,-378.1 0,0 -184.88,-261.4 -304.79,-441.3 -119.92,-179.9 -239.84,-424.7 -279.81,-514.6 -39.98,-90 -129.91,-164.9 -164.89,-269.9 -34.98,-104.9 -104.93,-319.7 -149.9,-754.4 -44.97,-434.7 69.95,-1758.9 69.95,-1758.9 l 489.67,20 c 0,0 124.91,1114.3 179.88,1444 54.96,329.8 44.97,624.6 44.97,624.6 0,0 324.67,188.6 474.67,313.1 150,124.6 353.09,293.2 353.09,293.2 0,0 512.73,-147.4 812.66,555.9 299.92,703.2 13.45,1576 -621.12,1600.9" /><path
         id="path42"
         style="fill:#db986b;fill-opacity:1;fill-rule:nonzero;stroke:none"
         d="m 8830.18,12896.6 c 0,0 -154.89,-246.5 -381.41,-526.3 0,0 312.83,-50.9 539.49,154.4 0,0 -163.07,178.7 -158.08,371.9" /><path
         id="path44"
         style="fill:#fbc295;fill-opacity:1;fill-rule:nonzero;stroke:none"
         d="m 6906.49,9675.4 c 0,0 -76.61,-469.6 -59.96,-562.9 16.66,-93.3 86.61,-266.5 93.27,-299.8 6.66,-33.3 19.99,-253.1 26.66,-296.5 6.66,-43.3 36.64,-99.9 76.61,-109.9 39.97,-10 76.61,0 76.61,0 0,0 19.16,-11.4 69.12,-4.4 49.97,6.9 72.45,26.9 72.45,26.9 0,0 42.48,-45 89.94,-45 47.47,0 69.95,32.5 69.95,32.5 0,0 69.95,-35 129.91,-10 59.97,25 162.39,209.9 164.89,254.8 2.5,45 -37.47,222.4 -37.47,299.8 0,77.5 -27.48,154.9 -62.46,274.9 -34.97,119.9 -219.85,459.6 -219.85,459.6 l -489.67,-20" /><path
         id="path46"
         style="fill:#db986b;fill-opacity:1;fill-rule:nonzero;stroke:none"
         d="m 7138.84,8503.7 c -14.99,52.5 -22.49,332.3 -39.97,332.3 -17.5,0 -19.99,-269.8 -12.5,-357.2 2.88,-33.6 -3.47,-58.3 -12.51,-76.7 26.15,-1.1 45.82,4.2 45.82,4.2 0,0 14.05,-8.1 48.84,-6.3 -11.09,29.1 -20.39,71.2 -29.68,103.7" /><path
         id="path48"
         style="fill:#db986b;fill-opacity:1;fill-rule:nonzero;stroke:none"
         d="m 7508.58,8453.8 c -12.49,79.9 22.49,462.2 -24.98,444.7 -47.47,-17.5 -24.98,-282.3 -47.47,-379.8 -22.48,-97.4 -84.94,-134.9 -122.41,-79.9 -37.48,55 -17.49,439.7 -33.61,437.2 -16.12,-2.5 -21.36,-229.8 -26.35,-352.3 -1.97,-48.1 -8.61,-83.8 -17.27,-109 16.69,7.1 24.76,14.1 24.76,14.1 0,0 42.48,-45 89.94,-45 47.47,0 69.95,32.5 69.95,32.5 0,0 47.4,-23.6 97.61,-18.1 -3.74,18.3 -7.29,37.2 -10.17,55.6" /><path
         id="path50"
         style="fill:#fbc295;fill-opacity:1;fill-rule:nonzero;stroke:none"
         d="m 12282.8,12116 c 15,27.8 43.3,107.7 43.3,107.7 0,0 209.9,166.6 299.8,223.2 90,56.6 169.9,143.2 183.2,146.6 13.4,3.3 153.3,159.9 299.8,176.5 146.6,16.7 269.8,-16.6 306.5,-30 36.6,-13.3 56.6,-83.2 53.3,-93.2 -3.3,-10 66.6,-16.7 89.9,-100 23.3,-83.2 -36.6,-156.5 -36.6,-156.5 0,0 33.3,-30 20,-83.3 0,0 89.9,-99.9 76.6,-143.2 -13.3,-43.4 -123.3,-179.9 -189.9,-176.6 -66.6,3.3 -33.3,96.6 -33.3,96.6 0,0 -36.6,41 -46.6,32.2 -10,-8.9 -136.6,-135.5 -239.9,-202.1 -103.2,-66.6 -216.5,-69.9 -306.4,-66.6 -90,3.3 -176.6,23.3 -189.9,26.6 -13.3,3.4 -146.6,-29.9 -146.6,-29.9 l -169.8,99.9 -13.4,172.1" /><path
         id="path52"
         style="fill:#db986b;fill-opacity:1;fill-rule:nonzero;stroke:none"
         d="m 12752.5,12167.1 c 0,0 56.6,56.6 80,103.3 23.3,46.6 6.6,99.9 103.2,133.2 96.6,33.3 236.5,89.9 253.2,136.6 16.6,46.6 -6.7,83.2 -63.3,73.2 -56.6,-10 -143.3,-43.3 -196.5,-43.3 -53.3,0 -120,23.4 -120,23.4 l 65,55.3 c 0,0 78.3,-18 148.2,0 70,17.9 149.9,35.3 199.9,0 49.9,-35.4 46.6,-145.3 -26.7,-195.2 -73.2,-50 -219.8,-115.4 -266.4,-144.3 -46.7,-29 -93.3,-118.9 -176.6,-142.2" /><path
         id="path54"
         style="fill:#db986b;fill-opacity:1;fill-rule:nonzero;stroke:none"
         d="m 13202.2,12628.4 92.4,-15 c 0,0 12.5,-104.9 82.5,-109.9 69.9,-5 91.6,143.3 91.6,143.3 l 35.9,-23.2 c 0,0 -25.1,-172.5 -127.5,-175 -102.5,-2.5 -110,91.3 -122.4,104.3 -12.5,13.1 -52.5,75.5 -52.5,75.5" /><path
         id="path56"
         style="fill:#db986b;fill-opacity:1;fill-rule:nonzero;stroke:none"
         d="m 13364.6,12471 c 0,0 -100.2,-72.4 -108.8,-134.9 -8.6,-62.4 31.3,-97.4 86.3,-92.4 55,5 179.9,146.6 179.9,146.6 0,0 -134.9,-110.4 -184.9,-81 -50,29.3 69.5,145.3 69.5,145.3 l -42,16.4" /><path
         id="path58"
         style="fill:#db986b;fill-opacity:1;fill-rule:nonzero;stroke:none"
         d="m 13395.4,12083.8 c 0,0 26.7,39.1 56.6,83.3 30,44.1 27.5,61.6 27.5,61.6 0,0 -87.4,-67.4 -114.9,-72.4 -27.5,-5 -52.5,34.9 -52.5,34.9 0,0 -13.5,-123.1 11.6,-99.2 l 25.1,24 46.6,-32.2" /><path
         id="path60"
         style="fill:#fbc295;fill-opacity:1;fill-rule:nonzero;stroke:none"
         d="m 9141.64,15248.3 c 0,0 -86.61,-331.2 -136.58,-428.8 -49.96,-97.5 -174.88,-187.4 -174.88,-187.4 0,0 204.86,-105 394.73,-309.8 189.87,-204.9 539.63,-764.5 669.54,-854.4 129.95,-90 229.85,-65 234.85,64.9 5,129.9 -229.85,464.7 -229.85,549.6 0,85 299.75,979.4 299.75,979.4 l -521.27,493 -328.11,31.6 c 0,0 -91.23,10 -145.54,-50 -54.32,-59.9 -62.64,-288.1 -62.64,-288.1" /><g
         transform="scale(1.03673)"
         id="g62"><path
           id="path64"
           style="fill:#252323;fill-opacity:1;fill-rule:nonzero;stroke:none"
           d="m 9023.4,14945.9 -89.96,-32.2 -115.67,-205.6 c 0,0 -115.67,96.4 -154.23,308.5 -38.56,212 -20.89,750.2 -20.89,750.2 0,0 -4.81,91.6 72.3,207.2 77.12,115.7 77.12,120.5 183.14,178.4 106.04,57.8 308.46,48.2 477.15,81.9 168.67,33.7 371.09,65.7 554.26,27.1 183.2,-38.5 203.6,-44.1 263.8,-84.2 102.5,-68.2 136.2,-270.6 -64.6,-360.6 -244.05,-109.3 -372.73,-473.9 -372.73,-473.9 l -202.41,-491.6 -149.41,-96.4 -380.75,191.2" /></g><path
         id="path66"
         style="fill:#db986b;fill-opacity:1;fill-rule:nonzero;stroke:none"
         d="m 9558.02,15338.3 c 0,0 96.6,-296.5 186.54,-441.4 89.94,-144.9 320.64,-243.7 320.64,-243.7 l 77.8,239.1 c 0,0 -331.7,457 -338.84,446 -7.15,-11.1 -134.55,38.3 -134.55,38.3 l -111.59,-38.3" /><g
         transform="scale(1.00598)"
         id="g68"><path
           id="path70"
           style="fill:#fbc295;fill-opacity:1;fill-rule:nonzero;stroke:none"
           d="m 9547.52,15555 c 0,0 -135.75,284.7 -288.07,225.1 -152.32,-59.6 -122.52,-281.4 -52.99,-410.6 69.54,-129.1 294.71,-122.5 294.71,-122.5 0,0 46.35,-115.9 185.43,-271.5 139.07,-155.6 605.9,-261.6 705.3,-241.7 99.3,19.8 99.3,407.3 119.2,586.1 0,0 152.3,-3.3 172.2,43 19.9,46.4 -109.3,211.9 -135.8,278.2 -26.5,66.2 6.7,195.3 0,301.3 -6.6,105.9 -109.3,357.6 -109.3,357.6 0,0 -238.3,-53 -337.7,-125.8 -99.3,-72.9 -145.66,-185.5 -201.99,-228.5 -56.28,-43.1 -99.33,-109.3 -112.57,-168.9 -13.24,-59.6 -92.72,-122.5 -96.03,-145.7 -3.31,-23.1 -16.56,-109.2 -43.05,-139 -26.49,-29.8 0,-36.5 -26.49,-29.8 -26.49,6.6 -72.85,92.7 -72.85,92.7" /></g></g></g></svg>