<?xml version="1.0" encoding="UTF-8" standalone="no"?>
<svg
   xmlns:dc="http://purl.org/dc/elements/1.1/"
   xmlns:cc="http://creativecommons.org/ns#"
   xmlns:rdf="http://www.w3.org/1999/02/22-rdf-syntax-ns#"
   xmlns:svg="http://www.w3.org/2000/svg"
   xmlns="http://www.w3.org/2000/svg"
   viewBox="0 0 2666.6667 2666.6667"
   height="2666.6667"
   width="2666.6667"
   xml:space="preserve"
   id="svg2"
   version="1.1"><metadata
     id="metadata8"><rdf:RDF><cc:Work
         rdf:about=""><dc:format>image/svg+xml</dc:format><dc:type
           rdf:resource="http://purl.org/dc/dcmitype/StillImage" /></cc:Work></rdf:RDF></metadata><defs
     id="defs6" /><g
     transform="matrix(1.3333333,0,0,-1.3333333,0,2666.6667)"
     id="g10"><g
       transform="scale(0.1)"
       id="g12"><g
         transform="scale(1.22699)"
         id="g14"><path
           id="path16"
           style="fill:none;fill-opacity:1;fill-rule:nonzero;stroke:none"
           d="M 16300,0 H 0 V 16300 H 16300 V 0" /></g><path
         id="path18"
         style="fill:#8e908d;fill-opacity:1;fill-rule:nonzero;stroke:none"
         d="m 11420.5,12154.2 1345.9,-2441.4 c 0,0 220.2,-5.6 293.6,169.4 l -1445.6,2592 -193.9,-320" /><g
         transform="scale(1.09663)"
         id="g20"><path
           id="path22"
           style="fill:#7c7e7d;fill-opacity:1;fill-rule:nonzero;stroke:none"
           d="m 14806.6,10781.1 1174.1,618 c 0,0 319.3,-178.6 243.7,-511.6 l -1110.6,-629.1 c 0,0 -224.8,200 -252.3,261.8 -27.4,61.8 -54.9,260.9 -54.9,260.9" /></g><path
         id="path24"
         style="fill:#414042;fill-opacity:1;fill-rule:nonzero;stroke:none"
         d="m 13398.8,6765 c 0,0 146.9,50.9 310.6,0 0,0 57.4,-415.9 91.8,-408.4 34.3,7.5 34.3,431 34.3,431 0,0 131.8,54.6 335.1,0 0,0 62.1,-472.4 -192.9,-807.5 l -157.2,-101.6 -195.8,101.6 c 0,0 -263.5,128 -225.9,784.9" /><path
         id="path26"
         style="fill:#8e908d;fill-opacity:1;fill-rule:nonzero;stroke:none"
         d="m 13977.7,4000.8 h -353 v 1979.3 h 353 V 4000.8" /><path
         id="path28"
         style="fill:#e4a77e;fill-opacity:1;fill-rule:nonzero;stroke:none"
         d="m 7633.19,9515.2 c 0,0 604.24,-604.3 683.3,-773.7 79.06,-169.4 96,-367 79.06,-434.8 -16.95,-67.8 -358.27,-680.5 -378.2,-1205.6 -19.92,-525.2 242.67,-2346.4 242.67,-2346.4 h 508.23 c 0,0 169.42,4294.6 59.29,4523.3 -110.11,228.7 -799.92,598.1 -874.31,633.6 -74.39,35.6 -413.21,-100 -413.21,-100 l 93.17,-296.4" /><path
         id="path30"
         style="fill:#7c7e7d;fill-opacity:1;fill-rule:nonzero;stroke:none"
         d="M 14664,10813.9 3047.79,4720.8 l 192,-276.7 11520.01,5997.2 -95.8,372.6" /><path
         id="path32"
         style="fill:#3168aa;fill-opacity:1;fill-rule:nonzero;stroke:none"
         d="m 8416.86,4945.5 c 0,0 -201.76,-131 -226.54,-201.8 -24.78,-70.8 -201.76,-729.1 -95.57,-821.2 106.19,-92 608.81,-46 771.64,-102.6 162.82,-56.7 700.21,-48.9 1107.9,53.1 630.41,157.6 402.41,403.1 161.71,440 -240.74,36.9 -809.46,147.5 -993.52,331.6 -184.06,184.1 -113.27,346.9 -159.29,378.7 -46.01,31.9 -180.51,10.7 -180.51,10.7 0,0 -248.92,35.4 -273.13,28.3 -24.2,-7.1 -112.69,-116.8 -112.69,-116.8" /><path
         id="path34"
         style="fill:#dddedd;fill-opacity:1;fill-rule:nonzero;stroke:none"
         d="m 8198.7,5200.8 c 14.21,-327.8 55.26,-515.7 55.26,-515.7 0,0 123.96,-97.1 251.39,-68.8 127.42,28.3 162.81,339.8 191.13,361 28.32,21.3 222.36,62.8 222.36,62.8 0,0 5,61.9 6.99,158.3 -201.74,-31 -593.51,15.4 -727.13,2.4" /><path
         id="path36"
         style="fill:#fbc398;fill-opacity:1;fill-rule:nonzero;stroke:none"
         d="m 7633.19,9633.7 c 0,0 474.36,-451.7 655.06,-609.8 180.71,-158.1 355.77,-508.3 361.41,-559.1 5.65,-50.8 -344.46,-807.5 -344.46,-1276.2 0,-468.7 242.82,-2552.5 242.82,-2552.5 l 731.14,113.7 386.23,3269.2 c 0,0 102.39,231.2 57.21,762 -45.17,530.9 -355.76,1649 -355.76,1649 0,0 -914.82,-73.4 -965.64,-124.2 -50.83,-50.9 -768.01,-672.1 -768.01,-672.1" /><path
         id="path38"
         style="fill:#8e908d;fill-opacity:1;fill-rule:nonzero;stroke:none"
         d="M 10101,11966 H 9784.72 V 4094 H 10101 v 7872" /><path
         id="path40"
         style="fill:#252323;fill-opacity:1;fill-rule:nonzero;stroke:none"
         d="m 7836.49,13538.7 c 0,0 -830.12,-117 -1143.53,-549.8 -313.41,-432.8 -465.88,-974.9 -254.12,-1627.1 211.77,-652.3 1160.47,-1897.5 1160.47,-1897.5 0,0 321.89,211.8 855.53,449 533.65,237.1 982.59,493 982.59,493 l -499.76,1150.3 c 0,0 -220.24,1567 -296.48,1711 -76.23,144 -804.7,271.1 -804.7,271.1" /><path
         id="path42"
         style="fill:#3970c0;fill-opacity:1;fill-rule:nonzero;stroke:none"
         d="m 12128.2,15907.6 -2047,-615.5 -796.24,-440.5 c 0,0 -847.06,-889.4 -940.24,-948.7 -93.17,-59.3 -508.23,-364.2 -508.23,-364.2 0,0 279.53,-703.1 406.59,-914.8 127.06,-211.8 694.59,-1067.3 694.59,-1067.3 0,0 1397.63,872.4 1956.73,1177.4 559,304.9 948.5,1446.2 948.5,1446.2 0,0 268.4,1025.3 285.3,1034.7 17,9.4 0,692.7 0,692.7" /><path
         id="path44"
         style="fill:#fbc398;fill-opacity:1;fill-rule:nonzero;stroke:none"
         d="m 12523.5,16039.7 c 0,0 -220.2,-98.2 -395.3,-132.1 -175,-33.9 -180.7,-948.7 -180.7,-948.7 0,0 -225.8,-847 -248.4,-926.1 -22.6,-79.1 28.2,-129.9 28.2,-129.9 0,0 333,813.2 381.1,847.1 48.1,33.9 686.2,124.2 686.2,124.2 0,0 586.6,685.6 446.1,875.3 -140.5,189.7 -62.1,323.1 -242.8,322.5 -180.7,-0.6 -474.4,-32.3 -474.4,-32.3" /><path
         id="path46"
         style="fill:#414042;fill-opacity:1;fill-rule:nonzero;stroke:none"
         d="M 8755.86,11831.7 12405,13694 l 316.2,-649.4 -3619.66,-1865.2 -345.68,652.3" /><path
         id="path48"
         style="fill:#df9866;fill-opacity:1;fill-rule:nonzero;stroke:none"
         d="m 12967.6,15587.9 c 0,0 -261.5,-124.5 -302.9,-147.1 -41.4,-22.6 -214.1,-522.2 -235,-622.5 l 168.7,-95.5 c 0,0 764.8,400 664.1,533.5 -100.8,133.5 -294.9,331.6 -294.9,331.6" /><g
         transform="scale(1.0462)"
         id="g50"><path
           id="path52"
           style="fill:#252323;fill-opacity:1;fill-rule:nonzero;stroke:none"
           d="m 13734.9,14556.7 c 228.2,-32.7 277,164.8 277,164.8 0,0 0,0 41.8,181.2 41.9,181.1 -37.2,486.7 -215.8,748.6 -178.4,262 -301.7,377.7 -301.7,377.7 -116.9,44.6 -266.7,26 -266.7,26 0,0 -196.4,245 -621.8,24 -425.2,-221 -675.2,-735.3 -677.3,-747.7 -2.1,-12.4 165.2,-159.1 285.5,-197.1 120.4,-38 252.6,-43.6 252.6,-43.6 0,0 187.2,-486.3 213.8,-485.9 26.5,0.4 880.2,-23.1 880.2,-23.1 l 103.4,-26.1 c 8.7,2.3 18.4,2.7 29,1.2" /></g><path
         id="path54"
         style="fill:#fbc398;fill-opacity:1;fill-rule:nonzero;stroke:none"
         d="m 14369.5,15229.3 c 0,0 -226.1,-237.3 -283.6,-281.8 -57.5,-44.4 -270.3,-99.6 -299.4,-118 -29.2,-18.4 -266.7,-346.2 -288.7,-350.7 -22,-4.6 -102,114.4 -115.1,113.9 -13.1,-0.5 -138.1,-43.2 -148.3,-51.8 -10.2,-8.5 -36.7,-16.4 -36.7,-16.4 0,0 -45.5,-32.4 -75,-33.6 -29.6,-1.1 -74.4,-17.2 -92.6,-21.3 -18.1,-4.2 -198.4,-88.9 -235,-78.6 -36.7,10.3 -229.3,375.1 -240.6,442.1 -11.4,67 148.1,557.4 198.6,617.4 50.6,60 244.3,152 244.3,152 0,0 -42.8,173.1 58.3,293.1 101.1,119.9 338,204.7 432.3,89.4 94.3,-115.2 -51.2,-255.1 -90.9,-291.6 -39.8,-36.5 -88.9,-87.8 -90.3,-96.5 -1.5,-8.6 172.2,-27 257.5,-20.8 85.3,6.2 239.5,168.6 328.5,184.4 89,15.8 222.5,-49.8 262.2,-90.8 39.6,-40.9 214.5,-440.4 214.5,-440.4" /><g
         transform="scale(1.00156)"
         id="g56"><path
           id="path58"
           style="fill:#fbc398;fill-opacity:1;fill-rule:nonzero;stroke:none"
           d="m 12227.7,15691.1 c 0,0 -270.6,496.1 -749.9,552.5 -479.2,56.4 -800.6,-135.3 -800.6,-135.3 0,0 -642.8,-11.3 -1054.36,-186.1 -411.59,-174.7 -924.67,-642.7 -924.67,-817.5 0,-174.8 208.62,-304.5 208.62,-304.5 0,0 479.25,-637.1 778.07,-879.5 298.83,-242.5 1116.34,-772.5 1116.34,-772.5 l 321.3,338.3 c 0,0 -665.2,755.6 -687.7,783.7 -22.6,28.2 -186.1,429.6 -186.1,429.6 0,0 298.8,-15.8 428.5,0 0,0 16.6,-257.2 445.3,-332.1 428.6,-74.9 826.9,279.5 939.7,674.2 0,0 272.6,175.6 165.5,649.2" /></g><path
         id="path60"
         style="fill:#df9866;fill-opacity:1;fill-rule:nonzero;stroke:none"
         d="m 10693.9,14722.8 c 0,0 389.6,29.1 653.2,168.4 0,0 -116.7,-107 -173.2,-168.4 -56.5,-61.3 -171.5,-298.5 -171.5,-298.5 0,0 -280.3,62.5 -308.5,298.5" /><path
         id="path62"
         style="fill:#df9866;fill-opacity:1;fill-rule:nonzero;stroke:none"
         d="m 10264.7,14722.8 c 0,0 -111,450.7 -278.57,645.5 0,0 261.67,-193.1 442.37,-651.4 l -163.8,5.9" /><path
         id="path64"
         style="fill:#df9866;fill-opacity:1;fill-rule:nonzero;stroke:none"
         d="m 10693.9,16133.5 -265.4,-192 132.7,186 z" /><path
         id="path66"
         style="fill:#fbc398;fill-opacity:1;fill-rule:nonzero;stroke:none"
         d="m 10818.1,13168.8 c 0,0 46,-116.4 84.7,-261.6 38.8,-145.2 158.2,-289.9 158.2,-289.9 l 734.1,-218.4 c 0,0 143,139.3 154.3,289.9 11.3,150.6 -640.3,741.6 -809.5,818.8 -169.3,77.2 -203.2,77.2 -203.2,65.9 0,-11.3 -118.6,-404.7 -118.6,-404.7" /><path
         id="path68"
         style="fill:#656769;fill-opacity:1;fill-rule:nonzero;stroke:none"
         d="m 11844,12474.2 c 0,-233.9 -189.6,-423.5 -423.5,-423.5 -233.9,0 -423.5,189.6 -423.5,423.5 0,233.9 189.6,423.6 423.5,423.6 233.9,0 423.5,-189.7 423.5,-423.6" /><path
         id="path70"
         style="fill:#252323;fill-opacity:1;fill-rule:nonzero;stroke:none"
         d="m 11738.2,12471.9 c 0,-175.5 -142.3,-317.7 -317.7,-317.7 -175.4,0 -317.7,142.2 -317.7,317.7 0,175.4 142.3,317.7 317.7,317.7 175.4,0 317.7,-142.3 317.7,-317.7" /><path
         id="path72"
         style="fill:#414042;fill-opacity:1;fill-rule:nonzero;stroke:none"
         d="m 14844.5,11280.8 -433,-233.4 489.4,-880.9 440.5,207 -496.9,907.3" /><g
         transform="scale(1.07371)"
         id="g74"><path
           id="path76"
           style="fill:#2e2d2d;fill-opacity:1;fill-rule:nonzero;stroke:none"
           d="m 13018.2,12012.4 1270.1,634.4 2011.7,-3800.61 -1222.8,-654.75 -2059,3820.96" /></g><g
         transform="scale(1.01591)"
         id="g78"><path
           id="path80"
           style="fill:#100f0d;fill-opacity:1;fill-rule:nonzero;stroke:none"
           d="m 14084.5,12858.4 2169,-4030.39 46.5,24.91 -2174,4026.28 -41.5,-20.8" /></g><g
         transform="scale(1.03541)"
         id="g82"><path
           id="path84"
           style="fill:#100f0d;fill-opacity:1;fill-rule:nonzero;stroke:none"
           d="m 14131.6,12772.4 2123.6,-3945.86 44.8,25.69 -2127.7,3940.57 -40.7,-20.4" /></g><g
         transform="scale(1.055)"
         id="g86"><path
           id="path88"
           style="fill:#100f0d;fill-opacity:1;fill-rule:nonzero;stroke:none"
           d="m 14175.7,12688.5 2079.7,-3864.14 44.6,23.89 -2084.3,3860.25 -40,-20" /></g><g
         transform="scale(1.055)"
         id="g90"><path
           id="path92"
           style="fill:#8e908d;fill-opacity:1;fill-rule:nonzero;stroke:none"
           d="M 16300,3960.85 H 2979.89 V 3623.6 H 16300 v 337.25" /></g><path
         id="path94"
         style="fill:#3970c1;fill-opacity:1;fill-rule:nonzero;stroke:none"
         d="m 8697.29,4460.7 c 0,0 -230.65,-149.7 -258.98,-230.6 -28.32,-80.9 -230.65,-833.6 -109.26,-938.8 121.4,-105.2 696.01,-52.6 882.15,-117.4 186.14,-64.7 861.9,-198.2 1266.6,60.7 404.6,259 218.5,494.3 -56.7,536.5 -275.2,42.2 -683.85,135.3 -894.27,345.7 -210.42,210.4 -129.49,396.5 -182.1,433 -52.6,36.4 -206.37,12.1 -206.37,12.1 0,0 -284.56,40.5 -312.23,32.4 -27.68,-8.1 -128.84,-133.6 -128.84,-133.6" /><path
         id="path96"
         style="fill:#f5f6f5;fill-opacity:1;fill-rule:nonzero;stroke:none"
         d="m 8537.73,4749.8 c -18.97,-351.3 -26.66,-586.7 -26.66,-586.7 0,0 141.71,-111.1 287.38,-78.7 145.68,32.4 186.14,388.5 218.51,412.8 32.37,24.2 254.21,71.7 254.21,71.7 0,0 5.71,70.8 7.99,180.9 -230.64,-35.3 -588.68,14.8 -741.43,0" /><path
         id="path98"
         style="fill:#f8ceb2;fill-opacity:1;fill-rule:nonzero;stroke:none"
         d="m 12156.5,15486 c -28.3,-271.1 -143.1,-365.2 -143.1,-365.2 0,0 -70.6,-301.2 -167.1,-463 109.6,116.4 192.4,259.2 234.8,407.6 0,0 273,175.9 165.7,650.2 0,0 -45.8,84.1 -133.2,186.9 0.3,-0.6 71.1,-146 42.9,-416.5" /><path
         id="path100"
         style="fill:#7c7e7d;fill-opacity:1;fill-rule:nonzero;stroke:none"
         d="m 2195.09,3822.9 h 1253.65 c 0,0 -33.89,1253.7 -1253.65,1253.7 V 3822.9" /></g></g></svg>