<?xml version="1.0" encoding="UTF-8" standalone="no"?>
<svg
   xmlns:dc="http://purl.org/dc/elements/1.1/"
   xmlns:cc="http://creativecommons.org/ns#"
   xmlns:rdf="http://www.w3.org/1999/02/22-rdf-syntax-ns#"
   xmlns:svg="http://www.w3.org/2000/svg"
   xmlns="http://www.w3.org/2000/svg"
   viewBox="0 0 2666.6667 2666.6667"
   height="2666.6667"
   width="2666.6667"
   xml:space="preserve"
   id="svg2"
   version="1.1"><metadata
     id="metadata8"><rdf:RDF><cc:Work
         rdf:about=""><dc:format>image/svg+xml</dc:format><dc:type
           rdf:resource="http://purl.org/dc/dcmitype/StillImage" /></cc:Work></rdf:RDF></metadata><defs
     id="defs6" /><g
     transform="matrix(1.3333333,0,0,-1.3333333,0,2666.6667)"
     id="g10"><g
       transform="scale(0.1)"
       id="g12"><g
         transform="scale(1.22699)"
         id="g14"><path
           id="path16"
           style="fill:#ffffff;fill-opacity:1;fill-rule:nonzero;stroke:none"
           d="M 16300,0 H 0 V 16300 H 16300 V 0" /></g><path
         id="path18"
         style="fill:#535456;fill-opacity:1;fill-rule:nonzero;stroke:none"
         d="M 5691.89,7443.7 5100.21,6371.6 c 0,0 -360.33,186.7 -360.33,202.3 0,15.7 587.22,1083.8 587.22,1083.8 l 364.79,-214" /><path
         id="path20"
         style="fill:#2f63a1;fill-opacity:1;fill-rule:nonzero;stroke:none"
         d="m 4789.36,6939.7 -153.91,-94.1 c 0,0 15.8,-17.5 42.32,-50.3 26.51,-32.8 89.74,-84.5 130.36,-145.5 40.63,-61.1 132.32,-175.2 246.79,-78 114.47,97.1 114.48,250.7 245.71,352.2 131.25,101.4 321.44,475.1 211.11,543.4 -110.33,68.2 -166.32,-55.1 -274.64,-127.4 -108.31,-72.4 -325.63,-165.5 -347.46,-163.9 -21.83,1.5 -129.48,3.5 -147.6,-57.9 -18.13,-61.4 47.32,-178.5 47.32,-178.5" /><path
         id="path22"
         style="fill:#ecaf86;fill-opacity:1;fill-rule:nonzero;stroke:none"
         d="m 3694.17,7819 c 0,0 98.14,-344.7 284.99,-504.9 186.84,-160.1 618.36,-422.6 707.33,-511.6 0,0 195.74,186.9 191.29,209.1 -4.45,22.3 -591.76,1023.2 -591.76,1023.2 0,0 -524.85,80.1 -551.54,53.4 -26.69,-26.7 -40.31,-269.2 -40.31,-269.2" /><path
         id="path24"
         style="fill:#ececec;fill-opacity:1;fill-rule:nonzero;stroke:none"
         d="m 4488.46,6950.6 c 91.63,-63 166.45,-116.5 198.03,-148.1 0,0 89.87,85.8 146.43,148.1 l -129.86,255.8 -214.6,-255.8" /><path
         id="path26"
         style="fill:#1e1c1b;fill-opacity:1;fill-rule:nonzero;stroke:none"
         d="m 6829.66,9984.2 -120.1,4215.5 70.86,2 120.12,-4215.5 -70.88,-2" /><path
         id="path28"
         style="fill:#ecaf86;fill-opacity:1;fill-rule:nonzero;stroke:none"
         d="m 3850.14,10107.9 c 0,0 240.23,1.1 323.64,0 83.42,-1.1 293.62,-112.5 293.62,-112.5 0,0 100.09,78 146.8,78 46.71,0 10.04,3.3 46.71,0 36.68,-3.3 134.52,0.8 170.69,-78 36.17,-78.8 26.16,-229 26.16,-229 0,0 100.04,-26.6 -160.17,0 -260.22,26.7 -420.37,90.1 -590.53,126.8 -170.17,36.7 -256.92,214.7 -256.92,214.7" /><path
         id="path30"
         style="fill:#1e1c1b;fill-opacity:1;fill-rule:nonzero;stroke:none"
         d="m 7141.92,9719.2 c -731.23,27.9 -1838.44,67.4 -1891.54,62.6 0.81,0.1 8.07,0.9 15.44,6.3 l -42.05,57.1 c 13.35,9.8 14.42,10.7 324.36,1.3 158.09,-4.7 377.5,-12 652.16,-21.8 467.6,-16.5 939.62,-34.5 944.33,-34.7 l -2.7,-70.8" /><path
         id="path32"
         style="fill:#151312;fill-opacity:1;fill-rule:nonzero;stroke:none"
         d="m 4656.6,10256.6 h -14.79 c -22.63,0 -40.98,-18.3 -40.98,-40.9 v -698.8 c 0,-22.7 18.35,-41 40.98,-41 h 14.79 c 22.63,0 40.99,18.3 40.99,41 v 698.8 c 0,22.6 -18.36,40.9 -40.99,40.9" /><path
         id="path34"
         style="fill:#151312;fill-opacity:1;fill-rule:nonzero;stroke:none"
         d="m 4649.2,10123.2 c 0,0 191.85,0 223,-11.1 31.13,-11.2 33.36,-458.3 11.12,-471.6 -22.25,-13.3 -211.31,-20 -211.31,-20 l 25.58,-103.6 c 0,0 192.4,-9.9 265.8,41.3 73.41,51.2 55.61,565 17.8,609.5 -37.82,44.5 -322.53,24.4 -322.53,24.4 l -9.46,-68.9" /><path
         id="path36"
         style="fill:#9c9c9b;fill-opacity:1;fill-rule:nonzero;stroke:none"
         d="M 1134.24,5946.2 H 977.422 l -96.758,90 V 7220.7 H 1134.24 V 5946.2" /><path
         id="path38"
         style="fill:#9c9c9b;fill-opacity:1;fill-rule:nonzero;stroke:none"
         d="m 1080.85,6826.7 c 53.39,20.3 6265.94,546.7 6265.94,546.7 l 33.37,-613.1 -6299.31,-607.3 53.39,-300.3 6312.64,660.7 v -260.3 l 300.29,33.4 -687.32,8201.1 h -286.93 l 240.22,-2969.5 -153.48,-113.4 73.41,-1207.8 c 0,0 -233.56,-21.3 -200.19,-250.9 33.36,-229.6 266.91,-222.9 266.91,-222.9 l 26.7,-247.2 166.82,-19.6 126.79,-1841.9 -3683.49,-320.3 -2502.37,-224.7 -53.39,-242.7" /><path
         id="path40"
         style="fill:#fbc398;fill-opacity:1;fill-rule:nonzero;stroke:none"
         d="m 3641.05,7839.1 163.5,-61.9 196.85,61.9 c 0,0 53.38,-62.3 57.83,-231.4 4.45,-169 111.22,-489.3 467.11,-605 355.89,-115.6 591.67,-378.1 591.67,-378.1 l 137.91,146.8 c 0,0 -48.93,75.6 -44.48,97.9 4.44,22.2 44.48,66.7 44.48,66.7 0,0 -222.43,333.6 -364.79,587.2 -142.36,253.6 -442.64,551.6 -442.64,551.6 0,0 -28.92,146.9 -242.45,280.3 -213.54,133.5 -498.25,142.4 -498.25,142.4 0,0 -151.26,-151.3 -146.81,-182.4 4.45,-31.2 80.07,-476 80.07,-476" /><path
         id="path42"
         style="fill:#9c9c9b;fill-opacity:1;fill-rule:nonzero;stroke:none"
         d="m 1007.45,5512.4 h 293.61 v 357.8 l -166.82,76 L 880.664,6093 H 720.512 l -26.696,-290.3 313.634,-290.3" /><path
         id="path44"
         style="fill:#535456;fill-opacity:1;fill-rule:nonzero;stroke:none"
         d="m 720.512,7448.1 v -187.4 l 333.648,-205.1 2582.45,238.5 V 7561 L 3381.75,7657.7 838.398,7561 c 0,0 -117.886,-32.3 -117.886,-112.9" /><path
         id="path46"
         style="fill:#1e1c1b;fill-opacity:1;fill-rule:nonzero;stroke:none"
         d="m 1588,8448.5 c 0,0 -144.87,-249.1 -93.57,-524.9 51.31,-275.8 240.17,-329.2 240.17,-329.2 0,0 202.62,-231.3 607.45,-200.2 404.83,31.1 1463.61,311.4 1463.61,324.7 0,13.4 -8.9,658.5 -84.53,836.4 0,0 -690.88,8.9 -1052.78,-20 C 2306.46,8506.4 1588,8448.5 1588,8448.5" /><path
         id="path48"
         style="fill:#fbc398;fill-opacity:1;fill-rule:nonzero;stroke:none"
         d="m 2604.52,9396.1 c 17.79,13.3 212.02,126.8 212.02,126.8 l 117.18,189.1 c 0,0 204.64,-53.4 395.93,-62.3 191.29,-8.9 404.83,-13.4 404.83,-13.4 0,0 226.88,-31.1 542.74,-31.1 315.85,0 498.24,40 498.24,40 v 151.3 c 0,0 -404.83,235.8 -560.53,275.8 -155.7,40 -235.77,44.5 -258.02,44.5 -22.24,0 -342.54,115.6 -636.16,102.3 0,0 -129.01,204.6 -364.79,289.2 -235.77,84.5 -382.58,80 -382.58,80 0,0 -222.43,31.2 -289.17,-44.4 -66.72,-75.7 -179.72,-548.5 -179.72,-548.5 l 193.07,-434.3 306.96,-165" /><path
         id="path50"
         style="fill:#3970c0;fill-opacity:1;fill-rule:nonzero;stroke:none"
         d="m 2104.49,10835.2 c -26.54,5.9 -287.39,-91.2 -287.39,-91.2 0,0 -189.06,-173.5 -289.16,-460.4 -100.09,-286.9 53.39,-920.9 80.08,-1194.5 26.69,-273.6 -20.02,-640.6 -20.02,-640.6 0,0 72.07,-180.1 516.49,-160.1 444.42,20 563.86,246.9 563.86,246.9 0,0 -74.07,140.1 0,353.6 74.08,213.6 148.19,634 148.19,634 0,0 -278.78,106.7 -359.95,447.1 -81.17,340.3 -3.32,587.2 116.79,618.3 l -48.94,35.6 -347.36,195.2 -72.59,16.1" /><path
         id="path52"
         style="fill:#9c9c9b;fill-opacity:1;fill-rule:nonzero;stroke:none"
         d="m 8673.39,9629.6 -6.67,4571 82.72,0.1 6.67,-4571 -82.72,-0.1" /><path
         id="path54"
         style="fill:#9c9c9b;fill-opacity:1;fill-rule:nonzero;stroke:none"
         d="m 8159.57,9656.2 -13.34,4417.5 82.72,0.3 13.34,-4417.5 -82.72,-0.3" /><path
         id="path56"
         style="fill:#535456;fill-opacity:1;fill-rule:nonzero;stroke:none"
         d="M 6167.9,7234 5576.23,6161.9 c 0,0 -360.35,186.8 -360.35,202.4 0,15.6 587.23,1083.8 587.23,1083.8 L 6167.9,7234" /><path
         id="path58"
         style="fill:#1e1c1b;fill-opacity:1;fill-rule:nonzero;stroke:none"
         d="m 8515.88,9656.1 -82.71,0.5 26.69,4444.2 82.72,-0.5 -26.7,-4444.2" /><path
         id="path60"
         style="fill:#9c9c9b;fill-opacity:1;fill-rule:nonzero;stroke:none"
         d="m 8881.58,6586.8 -740.71,246.9 -20.01,7122.3 75.62,26.7 8.91,-142.4 40.03,-89 226.88,-4.4 97.87,111.2 4.45,182.4 71.18,26.7 8.9,-182.4 115.66,-8.9 -4.45,224.7 h 115.67 z m 313.63,-52.8 -60.06,7846.8 -740.7,-110.1 -1612.9,110.1 c 0,0 -142.1,53.4 -175.46,-140.1 -33.37,-193.5 206.86,-248 206.86,-248 l 193.52,101.2 800.76,-60.1 40.04,-7137.5 -260.25,-27.4 160.15,-582.4 720.68,155.7 633.94,-280.3 233.55,37.8 v 242.5 l -140.13,91.8" /><path
         id="path62"
         style="fill:#fbc398;fill-opacity:1;fill-rule:nonzero;stroke:none"
         d="M 1918.31,10877.5 1817.1,10744 c 0,0 120.12,31 258.03,0 137.91,-31.1 298.06,-155.7 298.06,-155.7 l 151.25,35.6 c 0,0 -44.67,54.4 -43.12,120.1 1.55,65.6 -279.13,191.7 -279.13,191.7 0,0 -77.23,44.1 -97.7,35.2 -20.47,-8.9 -186.18,-93.4 -186.18,-93.4" /><path
         id="path64"
         style="fill:#dc9b70;fill-opacity:1;fill-rule:nonzero;stroke:none"
         d="m 2560.03,9881 c 40.04,4.4 173.5,31.1 173.5,31.1 0,0 120.11,-142.3 200.19,-200.1 l -117.18,-189.1 v 149 l -114.15,146.8 -142.36,62.3" /><path
         id="path66"
         style="fill:#2f63a1;fill-opacity:1;fill-rule:nonzero;stroke:none"
         d="m 1848.25,9885.4 c 0,0 125.45,-66.7 256.24,-75.6 130.79,-8.9 250.91,0 250.91,0 0,0 -102.32,-84.5 -289.17,-62.3 -186.85,22.3 -217.98,137.9 -217.98,137.9" /><path
         id="path68"
         style="fill:#2f63a1;fill-opacity:1;fill-rule:nonzero;stroke:none"
         d="m 1848.25,10641.7 c 0,0 -182.4,-315.8 -182.4,-516 0,-200.2 84.62,-992.1 84.62,-992.1 0,0 -138,787.4 -129.1,987.6 8.89,200.2 226.88,520.5 226.88,520.5" /><path
         id="path70"
         style="fill:#dc9b70;fill-opacity:1;fill-rule:nonzero;stroke:none"
         d="m 3334.1,10107.9 c 0,0 252.61,-243.1 542.74,-133.5 0,0 -289.17,-8.9 -542.74,133.5" /><path
         id="path72"
         style="fill:#ffffff;fill-opacity:1;fill-rule:nonzero;stroke:none"
         d="m 4846.04,6848 266.61,308.9 143.27,-220.9 v -265.8 l -137.91,-45.6 c 0,0 -187.3,172.4 -271.97,223.4" /><path
         id="path74"
         style="fill:#1e1c1b;fill-opacity:1;fill-rule:nonzero;stroke:none"
         d="m 4946.9,10196.9 h -14.79 c -22.63,0 -40.98,-18.4 -40.98,-41 v -698.8 c 0,-22.6 18.35,-41 40.98,-41 h 14.79 c 22.64,0 40.99,18.4 40.99,41 v 698.8 c 0,22.6 -18.35,41 -40.99,41" /><path
         id="path76"
         style="fill:#1e1c1b;fill-opacity:1;fill-rule:nonzero;stroke:none"
         d="m 4939.51,10063.4 c 0,0 191.85,0 222.99,-11.1 31.14,-11.1 33.36,-458.2 11.12,-471.6 -22.24,-13.3 -211.31,-20 -211.31,-20 l 25.58,-103.6 c 0,0 192.4,-9.8 265.81,41.3 73.4,51.2 55.6,565 17.79,609.5 -37.81,44.5 -322.53,24.5 -322.53,24.5 l -9.45,-69" /><path
         id="path78"
         style="fill:#dc9b70;fill-opacity:1;fill-rule:nonzero;stroke:none"
         d="m 4450.71,7701.2 c 0,0 235.78,-284.8 338.1,-631.8 0,0 17.8,436 -338.1,631.8" /><path
         id="path80"
         style="fill:#3970c0;fill-opacity:1;fill-rule:nonzero;stroke:none"
         d="m 5187.4,6793.7 -169.04,-74.6 c 0,0 22.85,-43.5 50.91,-78.3 28.06,-34.6 95.01,-89.4 138.01,-154 43.01,-64.7 140.08,-185.4 261.26,-82.6 121.18,102.9 121.19,265.5 260.12,372.9 138.93,107.4 340.28,503 223.48,575.2 -116.8,72.3 -176.08,-58.2 -290.74,-134.8 -114.66,-76.6 -344.72,-175.2 -367.84,-173.5 -23.11,1.6 -137.07,3.6 -156.26,-61.3 -19.18,-65 50.1,-189 50.1,-189" /><path
         id="path82"
         style="fill:#dc9b70;fill-opacity:1;fill-rule:nonzero;stroke:none"
         d="m 4001.4,7839.1 c 0,0 88.97,53.4 195.74,62.2 l -167.68,-116.7 -28.06,54.5" /><path
         id="path84"
         style="fill:#1e1c1b;fill-opacity:1;fill-rule:nonzero;stroke:none"
         d="m 7934.01,8168.3 947.57,-180.2 v 1731.1 l -760.72,66.9 -186.85,-66.9 V 8168.3" /><path
         id="path86"
         style="fill:#9c9c9b;fill-opacity:1;fill-rule:nonzero;stroke:none"
         d="m 5847.59,7452.9 v 355.7 c 0,0 2.11,45.5 48.82,42.2 46.71,-3.4 103.43,-56.8 103.43,-56.8 v -341.1 l 132.83,24.8 c 0,0 7.31,323.4 -16.05,373.2 -23.35,49.9 -217.75,130 -269.03,136.6 -51.27,6.7 -97.99,-50 -104.66,-66.7 -6.67,-16.7 -13.83,-478.2 -13.83,-478.2 l 118.49,10.3" /><path
         id="path88"
         style="fill:#fbc398;fill-opacity:1;fill-rule:nonzero;stroke:none"
         d="m 2506.59,10961.8 -0.87,-25.1 c 0,0 -26.49,-66.7 -24.4,-192.7 0,0 -180.09,48 -304.24,75.1 -124.15,27.2 -258.77,58.4 -258.77,58.4 l 37.83,171 163.28,379.9 c 0,0 67.56,54.8 192.68,-17.1 125.13,-71.9 194.49,-449.5 194.49,-449.5" /><path
         id="path90"
         style="fill:#252323;fill-opacity:1;fill-rule:nonzero;stroke:none"
         d="m 2635.07,11791.6 c 54.57,98.2 -26.81,154.6 -26.81,154.6 0,0 0,0 -75.11,50.6 -75.1,50.5 -227.86,67.6 -378.02,32 -150.16,-35.7 -224.23,-71.6 -224.23,-71.6 -40.61,-45.4 -58.19,-116.8 -58.19,-116.8 0,0 -145.58,-46.7 -118.99,-278.6 26.58,-231.9 197.13,-510.2 202.42,-513.3 5.28,-3.1 73.7,53 111.89,101.1 38.19,48.1 111.01,177.1 111.01,177.1 0,0 253.76,0.5 258.19,12.7 4.43,12.2 163.49,396.4 163.49,396.4 l 29.85,42.4 c 0.5,4.4 1.96,8.8 4.5,13.4" /><path
         id="path92"
         style="fill:#fbc398;fill-opacity:1;fill-rule:nonzero;stroke:none"
         d="m 2635.07,11791.6 c 0,0 65.61,-137.7 75.37,-170.1 9.76,-32.4 -1.59,-134.1 1.56,-149.8 3.15,-15.7 106.21,-173.4 104.52,-183.8 -1.7,-10.3 -66.72,-25.3 -68.66,-31 -1.95,-5.8 -4.15,-67.3 -2.15,-73.1 2.01,-5.9 1.05,-18.7 1.05,-18.7 0,0 6.54,-25.2 2.13,-38.2 -4.4,-13 -4.86,-35.2 -6.09,-43.8 -1.22,-8.6 5.65,-101 -4.91,-115.2 -10.56,-14.2 -201.17,-37.4 -232.17,-31.2 -31.01,6.2 -217.71,157.1 -235.39,189 -17.68,31.9 -25.51,131.4 -25.51,131.4 0,0 -82.32,10.2 -117.69,74.1 -35.37,63.8 -32.83,180.9 32.95,202.8 65.77,21.8 102.4,-64.7 111.65,-88 9.25,-23.3 23.42,-53.2 26.94,-55.3 3.52,-2.1 40.35,70.4 51.84,108.5 11.5,38.1 -33.5,132.1 -25.59,173.4 7.91,41.4 58.64,88.5 83.04,98.9 24.4,10.5 227.11,20.1 227.11,20.1" /><path
         id="path94"
         style="fill:#e4ab84;fill-opacity:1;fill-rule:nonzero;stroke:none"
         d="m 2531.11,10969.9 c 40.29,-10.6 95.29,-16.5 137.24,-19.7 -61.18,-9.7 -143.21,-17.4 -162.63,-13.5 -31.01,6.2 -217.71,157.1 -235.39,189 -17.68,31.9 -25.51,131.4 -25.51,131.4 0,0 33.42,-90.1 61.26,-131.1 27.84,-41 150.7,-136.4 225.03,-156.1" /><path
         id="path96"
         style="fill:#fbc398;fill-opacity:1;fill-rule:nonzero;stroke:none"
         d="m 4667.58,9783.1 c 0,0 66.74,40.1 76.75,76.8 10.01,36.7 36.7,127.5 50.04,135.5 13.35,7.9 93.42,17.9 93.42,17.9 v -50 c 0,0 193.52,3.3 206.87,-3.3 13.34,-6.7 0,-56.8 0,-100.1 0,-43.4 -6.68,-100.1 -20.02,-126.8 -13.35,-26.7 -53.39,-96.8 -90.09,-110.1 -36.7,-13.4 -209.09,22.2 -209.09,22.2 l -81.18,71.2 -26.7,66.7" /><path
         id="path98"
         style="fill:#151312;fill-opacity:1;fill-rule:nonzero;stroke:none"
         d="m 12420.8,9916.9 -14.5,-2.4 c -22.4,-3.7 -37.5,-24.9 -33.7,-47.2 l 114.8,-689.2 c 3.7,-22.4 24.8,-37.5 47.2,-33.7 l 14.6,2.4 c 22.3,3.7 37.4,24.8 33.6,47.2 l -114.8,689.2 c -3.7,22.4 -24.8,37.4 -47.2,33.7" /><path
         id="path100"
         style="fill:#151312;fill-opacity:1;fill-rule:nonzero;stroke:none"
         d="m 12435.5,9784.1 c 0,0 189.2,31.5 221.8,25.6 32.5,-5.8 108.2,-446.5 88.4,-463.3 -19.7,-16.8 -205.1,-54.5 -205.1,-54.5 l 42.2,-97.9 c 0,0 191.4,21.9 255.5,84.4 63.9,62.5 -38.1,566.4 -82.7,604.1 -44.6,37.7 -322.1,-28.9 -322.1,-28.9 l 2,-69.5" /><path
         id="path102"
         style="fill:#ecaf86;fill-opacity:1;fill-rule:nonzero;stroke:none"
         d="m 10882,10541.1 c 0,0 -142.3,-6.8 -218,-207 -75.6,-200.2 -4.4,-444.9 0,-458.2 4.5,-13.4 35.6,-324.8 124.6,-520.5 89,-195.7 302.5,-449.3 320.3,-458.2 17.8,-8.9 436,151.2 431.5,164.6 -4.4,13.3 -302.5,1076.6 -418.2,1241.2 -115.6,164.6 -240.2,238.1 -240.2,238.1" /><path
         id="path104"
         style="fill:#dc9b70;fill-opacity:1;fill-rule:nonzero;stroke:none"
         d="m 11166.7,9106.3 c -2.1,-17.7 102.1,155.7 169,182.4 66.8,26.7 -22.2,88.9 -22.2,88.9 0,0 -129,-124.5 -146.8,-271.3" /><path
         id="path106"
         style="fill:#dc9b70;fill-opacity:1;fill-rule:nonzero;stroke:none"
         d="m 10882,9893.7 c 0,0 -106.8,199.2 -133.4,373.1 0,0 173.5,-253 222.4,-279.7 48.9,-26.7 -89,-93.4 -89,-93.4" /><path
         id="path108"
         style="fill:#535456;fill-opacity:1;fill-rule:nonzero;stroke:none"
         d="m 15673.5,7478.5 -591.7,-1072.1 c 0,0 -360.3,186.7 -360.3,202.4 0,15.6 587.2,1083.7 587.2,1083.7 l 364.8,-214" /><path
         id="path110"
         style="fill:#2f63a1;fill-opacity:1;fill-rule:nonzero;stroke:none"
         d="m 14771,6974.5 -153.9,-94.1 c 0,0 15.8,-17.5 42.3,-50.3 26.5,-32.8 89.7,-84.5 130.4,-145.5 40.6,-61.1 132.3,-175.2 246.8,-78 114.4,97.1 114.4,250.7 245.7,352.2 131.2,101.4 321.4,475.2 211.1,543.4 -110.4,68.2 -166.4,-55.1 -274.7,-127.4 -108.3,-72.4 -325.6,-165.5 -347.4,-163.9 -21.9,1.6 -129.5,3.5 -147.6,-57.9 -18.2,-61.3 47.3,-178.5 47.3,-178.5" /><path
         id="path112"
         style="fill:#ecaf86;fill-opacity:1;fill-rule:nonzero;stroke:none"
         d="m 13675.8,7853.8 c 0,0 98.1,-344.7 285,-504.9 186.8,-160.1 618.4,-422.6 707.3,-511.6 0,0 195.8,186.9 191.3,209.1 -4.4,22.3 -591.8,1023.2 -591.8,1023.2 0,0 -524.8,80.1 -551.5,53.4 -26.7,-26.7 -40.3,-269.2 -40.3,-269.2" /><path
         id="path114"
         style="fill:#ececec;fill-opacity:1;fill-rule:nonzero;stroke:none"
         d="m 14470.1,6985.4 c 91.6,-63 166.4,-116.5 198,-148.1 0,0 89.9,85.8 146.5,148.1 l -129.9,255.8 -214.6,-255.8" /><path
         id="path116"
         style="fill:#9c9c9b;fill-opacity:1;fill-rule:nonzero;stroke:none"
         d="m 11105.1,5946.2 h -156.8 l -96.8,90 v 1184.5 h 253.6 V 5946.2" /><path
         id="path118"
         style="fill:#9c9c9b;fill-opacity:1;fill-rule:nonzero;stroke:none"
         d="m 10978.3,5512.4 h 293.6 v 357.8 l -166.8,76 -253.6,146.8 h -160.2 l -26.6,-290.3 313.6,-290.3" /><g
         transform="scale(1.05401)"
         id="g120"><path
           id="path122"
           style="fill:#1e1c1b;fill-opacity:1;fill-rule:nonzero;stroke:none"
           d="m 12273.5,9102.55 -2.5,67.27 4026.5,148.38 2.5,-67.17 -4026.5,-148.48" /></g><path
         id="path124"
         style="fill:#535456;fill-opacity:1;fill-rule:nonzero;stroke:none"
         d="m 10691.3,7448.1 v -187.4 l 333.7,-205.1 2582.4,238.5 V 7561 l -254.8,96.7 -2543.4,-96.7 c 0,0 -117.9,-32.3 -117.9,-112.9" /><g
         transform="scale(1.1489)"
         id="g126"><path
           id="path128"
           style="fill:#9c9c9b;fill-opacity:1;fill-rule:nonzero;stroke:none"
           d="m 16227.9,8381.61 -5.7,3978.59 72,0.1 5.8,-3978.6 -72.1,-0.09" /></g><g
         transform="scale(1.11737)"
         id="g130"><path
           id="path132"
           style="fill:#9c9c9b;fill-opacity:1;fill-rule:nonzero;stroke:none"
           d="m 16226,8641.91 -11.9,3953.49 74,0.3 11.9,-3953.52 -74,-0.27" /></g><g
         transform="scale(1.03506)"
         id="g134"><path
           id="path136"
           style="fill:#1e1c1b;fill-opacity:1;fill-rule:nonzero;stroke:none"
           d="m 16231.5,9646.05 -116,4072.75 68.5,1.9 116,-4072.71 -68.5,-1.94" /></g><g
         transform="scale(1.13579)"
         id="g138"><path
           id="path140"
           style="fill:#1e1c1b;fill-opacity:1;fill-rule:nonzero;stroke:none"
           d="m 16276.5,8501.65 -72.8,0.44 23.5,3912.91 72.8,-0.5 -23.5,-3912.85" /></g><g
         transform="scale(1.18443)"
         id="g142"><path
           id="path144"
           style="fill:#9c9c9b;fill-opacity:1;fill-rule:nonzero;stroke:none"
           d="m 15916.9,5561.16 -625.4,208.45 -16.9,6013.29 63.8,22.5 7.6,-120.2 33.8,-75.1 191.5,-3.8 82.7,93.9 3.8,154 60,22.6 7.5,-154 97.7,-7.5 -3.8,189.6 h 97.7 z m 264.7,-44.58 -50.6,6625.02 -625.4,-93 -1361.7,93 c 0,0 -120,45 -148.2,-118.4 -28.1,-163.3 174.7,-209.3 174.7,-209.3 l 163.3,85.4 676.1,-50.7 33.8,-6026.13 -219.7,-23.14 135.2,-491.71 608.5,131.45 535.2,-236.65 197.2,31.91 v 204.74 l -118.4,77.51" /></g><path
         id="path146"
         style="fill:#1e1c1b;fill-opacity:1;fill-rule:nonzero;stroke:none"
         d="m 12577.3,9941.4 -14.6,-2.4 c -22.3,-3.7 -37.4,-24.8 -33.7,-47.1 l 114.9,-689.3 c 3.7,-22.3 24.8,-37.4 47.1,-33.7 l 14.6,2.4 c 22.3,3.7 37.4,24.9 33.7,47.2 l -114.8,689.3 c -3.8,22.3 -24.9,37.4 -47.2,33.6" /><path
         id="path148"
         style="fill:#1e1c1b;fill-opacity:1;fill-rule:nonzero;stroke:none"
         d="m 12591.9,9808.6 c 0,0 189.3,31.5 221.8,25.7 32.6,-5.9 108.2,-446.5 88.5,-463.4 -19.8,-16.8 -205.2,-54.4 -205.2,-54.4 l 42.3,-98 c 0,0 191.4,21.9 255.4,84.4 64,62.6 -38,566.5 -82.6,604.1 -44.6,37.7 -322.2,-28.8 -322.2,-28.8 l 2,-69.6" /><g
         transform="scale(1.08699)"
         id="g150"><path
           id="path152"
           style="fill:#9c9c9b;fill-opacity:1;fill-rule:nonzero;stroke:none"
           d="m 10167.2,6280.35 c 49.1,18.67 5764.4,502.94 5764.4,502.94 l 30.8,-564.03 -5795.2,-558.69 49.1,-276.27 5807.4,607.82 v -239.46 l 276.3,30.72 -632.3,7544.72 h -263.9 l 220.9,-2731.8 -141.2,-104.4 67.6,-1111.11 c 0,0 -214.9,-19.54 -184.2,-230.78 30.7,-211.23 245.5,-205.06 245.5,-205.06 l 24.6,-227.42 153.5,-18.03 116.6,-1694.49 -3388.7,-294.67 -2302.1,-206.72 -49.1,-223.27" /></g><g
         transform="scale(1.15659)"
         id="g154"><path
           id="path156"
           style="fill:#1e1c1b;fill-opacity:1;fill-rule:nonzero;stroke:none"
           d="m 15480.8,7062.4 819.2,-155.8 v 1496.73 l -657.7,57.84 -161.5,-57.84 V 7062.4" /></g><path
         id="path158"
         style="fill:#3970c0;fill-opacity:1;fill-rule:nonzero;stroke:none"
         d="m 10948.7,10583.2 -66.7,-42.1 c 0,0 53.4,-211.4 33.4,-411.6 -20,-200.2 -33.4,-235.8 -33.4,-235.8 0,0 155.7,-258.9 235.8,-338.5 80.1,-79.7 272.6,-391.1 336.5,-618 63.9,-226.8 104.5,-488.7 104.5,-488.7 0,0 132.9,-169.7 591.1,-111.8 458.2,57.8 439.6,171.3 440,194.6 0.4,23.3 -39.6,214.6 -44.1,261.3 -4.4,46.8 9.8,224.7 -17.4,246.9 -27.1,22.3 -102.7,533.9 -84.9,631.8 17.8,97.8 4.4,249.1 4.4,293.6 0,44.5 -204.6,400.4 -351.4,520.5 -146.8,120.1 -332.2,126.5 -332.2,126.5 0,0 -490.8,82.2 -508.6,89 -17.8,6.9 -307,-117.7 -307,-117.7" /><path
         id="path160"
         style="fill:#2f63a1;fill-opacity:1;fill-rule:nonzero;stroke:none"
         d="m 11043.4,10401.5 c 0,0 65.5,-525.6 185.6,-743.6 120.1,-218 63.6,-200.2 63.6,-200.2 0,0 -352,475.9 -249.2,943.8" /><path
         id="path162"
         style="fill:#fbc398;fill-opacity:1;fill-rule:nonzero;stroke:none"
         d="m 11454.3,10590.7 c 0,0 -194.2,5 -287.6,-189.2 -93.4,-194.3 17.8,-459.5 17.8,-459.5 0,0 -58,-226.3 151.2,-653.3 209.2,-427.1 330.1,-582.8 454.2,-600.6 124.2,-17.8 190.9,104.5 190.9,104.5 0,0 218,124 364.8,255.8 146.8,131.9 278.6,271.9 278.6,271.9 l -145.1,192.6 c 0,0 -129,-77.4 -226.9,-113 -97.9,-35.6 -262.5,-48.9 -262.5,-48.9 0,0 4.5,218.7 -97.8,340.7 0,0 177.9,77.4 151.2,366.6 -26.7,289.2 -247.9,579.8 -588.8,532.4" /><path
         id="path164"
         style="fill:#dc9b70;fill-opacity:1;fill-rule:nonzero;stroke:none"
         d="m 11958.6,10129.5 c 0,0 -10.3,-27.3 -34.1,-49.2 -23.7,-22 -32.6,-388.6 -32.6,-388.6 l 89.4,80.2 -22.7,250.8 v 106.8" /><path
         id="path166"
         style="fill:#edb085;fill-opacity:1;fill-rule:nonzero;stroke:none"
         d="m 11936.6,9133 c 0,0 -276.1,8.9 -262.7,453.7 0,0.8 0.1,1.2 0.3,1.2 6.3,0 98.8,-368.7 262.4,-454.9" /><path
         id="path168"
         style="fill:#dc9b70;fill-opacity:1;fill-rule:nonzero;stroke:none"
         d="m 11305.9,9746.9 c 0,0 119.4,-330.5 266.3,-386.5 0,0 -260.6,61.7 -266.3,386.5" /><path
         id="path170"
         style="fill:#dc9b70;fill-opacity:1;fill-rule:nonzero;stroke:none"
         d="m 11989.7,9351 c 0,0 44.5,-129.1 31.2,-275.9 0,0 90.3,112.4 51.8,285.3 l -83,-9.4" /><path
         id="path172"
         style="fill:#fbc398;fill-opacity:1;fill-rule:nonzero;stroke:none"
         d="m 12479.1,9512.9 c 0,0 0,76.2 0,75 0,-1.2 0,118.7 31.1,131.1 31.2,12.3 164.6,12.3 164.6,12.3 0,0 171.4,23.6 176.9,0 5.5,-23.6 10,-106.7 10,-126.8 0,-20 4.4,-120.1 -15.6,-162.4 -20,-42.2 -63.4,-107.5 -106.2,-116.6 -42.9,-9 -115.7,-5.2 -115.7,-5.2 l -145.1,192.6" /><path
         id="path174"
         style="fill:#dc9b70;fill-opacity:1;fill-rule:nonzero;stroke:none"
         d="m 12570.8,9641.1 -91.7,-85.9 v 60.5 z" /><path
         id="path176"
         style="fill:#fbc398;fill-opacity:1;fill-rule:nonzero;stroke:none"
         d="m 13622.7,7873.9 163.5,-61.9 196.8,61.9 c 0,0 53.4,-62.3 57.9,-231.4 4.4,-169 111.2,-489.3 467.1,-605 355.9,-115.6 591.6,-378.1 591.6,-378.1 l 137.9,146.8 c 0,0 -48.9,75.6 -44.4,97.9 4.4,22.2 44.4,66.7 44.4,66.7 0,0 -222.4,333.6 -364.7,587.2 -142.4,253.6 -442.7,551.6 -442.7,551.6 0,0 -28.9,146.9 -242.4,280.3 -213.6,133.5 -498.3,142.4 -498.3,142.4 0,0 -151.2,-151.3 -146.8,-182.4 4.5,-31.2 80.1,-476 80.1,-476" /><path
         id="path178"
         style="fill:#535456;fill-opacity:1;fill-rule:nonzero;stroke:none"
         d="m 16149.5,7268.9 -591.6,-1072.2 c 0,0 -360.4,186.8 -360.4,202.4 0,15.6 587.2,1083.8 587.2,1083.8 l 364.8,-214" /><path
         id="path180"
         style="fill:#ffffff;fill-opacity:1;fill-rule:nonzero;stroke:none"
         d="m 14827.7,6882.9 266.6,308.8 143.2,-220.9 V 6705 l -137.9,-45.6 c 0,0 -187.3,172.4 -271.9,223.5" /><path
         id="path182"
         style="fill:#dc9b70;fill-opacity:1;fill-rule:nonzero;stroke:none"
         d="m 14432.3,7736 c 0,0 235.8,-284.8 338.1,-631.7 0,0 17.8,435.9 -338.1,631.7" /><path
         id="path184"
         style="fill:#3970c0;fill-opacity:1;fill-rule:nonzero;stroke:none"
         d="m 15169,6828.5 -169,-74.6 c 0,0 22.8,-43.5 50.9,-78.2 28.1,-34.7 95,-89.5 138,-154.1 43,-64.6 140.1,-185.4 261.3,-82.6 121.2,102.9 121.2,265.5 260.1,372.9 138.9,107.4 340.3,503 223.5,575.2 -116.8,72.3 -176.1,-58.2 -290.8,-134.8 -114.6,-76.6 -344.7,-175.2 -367.8,-173.5 -23.1,1.6 -137.1,3.7 -156.3,-61.3 -19.2,-65 50.1,-189 50.1,-189" /><path
         id="path186"
         style="fill:#dc9b70;fill-opacity:1;fill-rule:nonzero;stroke:none"
         d="m 13983,7873.9 c 0,0 89,53.4 195.8,62.3 l -167.7,-116.8 -28.1,54.5" /><path
         id="path188"
         style="fill:#9c9c9b;fill-opacity:1;fill-rule:nonzero;stroke:none"
         d="m 15829.2,7487.7 v 355.7 c 0,0 2.1,45.5 48.8,42.2 46.8,-3.4 103.5,-56.8 103.5,-56.8 v -341.1 l 132.8,24.8 c 0,0 7.3,323.4 -16,373.2 -23.4,49.9 -217.8,130 -269.1,136.7 -51.3,6.6 -98,-50.1 -104.6,-66.8 -6.7,-16.7 -13.9,-478.2 -13.9,-478.2 l 118.5,10.3" /><path
         id="path190"
         style="fill:#1e1c1b;fill-opacity:1;fill-rule:nonzero;stroke:none"
         d="m 11558.8,8448.5 c 0,0 -144.8,-249.1 -93.5,-524.9 51.3,-275.8 240.1,-329.2 240.1,-329.2 0,0 202.7,-231.3 607.5,-200.2 404.8,31.1 1463.6,311.4 1463.6,324.7 0,13.4 -8.9,658.5 -84.5,836.4 0,0 -690.9,8.9 -1052.8,-20 -361.9,-28.9 -1080.4,-86.8 -1080.4,-86.8" /><path
         id="path192"
         style="fill:#fbc398;fill-opacity:1;fill-rule:nonzero;stroke:none"
         d="m 11043.4,10811.9 -94.7,-228.7 c 0,0 145.8,-3.6 284.8,22.3 102.2,19 252.3,25.7 252.3,25.7 l 278.5,-19.3 c 0,0 -117.1,6.9 -192.1,243.6 -111.5,351.9 -256.8,101.3 -247.5,25.9 0,0 -78.9,41 -99,31.3 -20.1,-9.7 -182.3,-100.8 -182.3,-100.8" /><path
         id="path194"
         style="fill:#fbc398;fill-opacity:1;fill-rule:nonzero;stroke:none"
         d="m 11627.8,10919.6 0.2,-25.1 c 0,0 -23.8,-67.7 -16.7,-193.6 0,0 -181.9,40.9 -307,63 -125.1,22.2 -260.9,48 -260.9,48 l 31,172.4 147.9,386.1 c 0,0 65.4,57.5 193.3,-9.4 127.8,-66.8 212.2,-441.4 212.2,-441.4" /><path
         id="path196"
         style="fill:#252323;fill-opacity:1;fill-rule:nonzero;stroke:none"
         d="m 11723.1,11753.9 c 50.6,100.3 -33,153.4 -33,153.4 0,0 0,0 -77,47.5 -77.1,47.6 -230.4,58.5 -379,16.9 -148.7,-41.6 -221.2,-80.5 -221.2,-80.5 -38.8,-47 -53.5,-119 -53.5,-119 0,0 -143.6,-52.5 -107.8,-283.1 35.8,-230.6 217.4,-501.9 222.8,-504.8 5.4,-2.9 71.5,55.9 107.7,105.5 36.3,49.6 103.9,181.3 103.9,181.3 0,0 253.5,10.7 257.4,23.1 4,12.3 147.6,402.5 147.6,402.5 l 28.1,43.7 c 0.3,4.3 1.6,8.8 4,13.5" /><path
         id="path198"
         style="fill:#fbc398;fill-opacity:1;fill-rule:nonzero;stroke:none"
         d="m 11723.1,11753.9 c 0,0 71,-135 82.1,-167 11,-31.9 3.7,-134 7.5,-149.6 3.8,-15.5 113.1,-169 111.8,-179.4 -1.3,-10.4 -65.7,-28 -67.4,-33.8 -1.7,-5.9 -1.4,-67.4 0.8,-73.1 2.2,-5.8 1.8,-18.7 1.8,-18.7 0,0 7.5,-24.9 3.6,-38 -3.8,-13.2 -3.4,-35.4 -4.3,-44 -0.9,-8.7 9.7,-100.7 -0.3,-115.4 -10,-14.6 -199.5,-45.3 -230.7,-40.4 -31.3,5 -223.8,148.2 -242.8,179.4 -18.9,31.3 -30.7,130.4 -30.7,130.4 0,0 -82.7,6.8 -120.6,69.2 -37.9,62.4 -40,179.6 24.9,204 64.8,24.5 104.9,-60.5 115,-83.5 10.2,-22.9 25.5,-52.2 29.1,-54.1 3.7,-2 37.6,71.9 47.5,110.5 10,38.5 -38.7,130.6 -32.5,172.2 6.3,41.7 55.1,90.8 79.1,102.2 23.9,11.4 226.1,29.1 226.1,29.1" /><path
         id="path200"
         style="fill:#e4ab84;fill-opacity:1;fill-rule:nonzero;stroke:none"
         d="m 11652,10928.7 c 40.7,-9 95.9,-12.7 137.9,-14.2 -60.7,-12.2 -142.4,-23.1 -161.9,-20 -31.3,5 -223.8,148.2 -242.8,179.4 -18.9,31.3 -30.7,130.4 -30.7,130.4 0,0 37,-88.7 66.4,-128.6 29.5,-39.9 156,-130.3 231.1,-147" /><path
         id="path202"
         style="fill:#fbc398;fill-opacity:1;fill-rule:nonzero;stroke:none"
         d="m 10948.7,10583.2 c 0,0 64,-45.4 75.9,-94.4 11.9,-48.9 119.6,-24.5 207.6,52.3 88,76.9 253.6,90.1 253.6,90.1 l 426.4,-48.1 -340,117.8 h -428.9 l -194.6,-117.7" /></g></g></svg>