<?xml version="1.0" encoding="UTF-8" standalone="no"?>
<svg
   xmlns:dc="http://purl.org/dc/elements/1.1/"
   xmlns:cc="http://creativecommons.org/ns#"
   xmlns:rdf="http://www.w3.org/1999/02/22-rdf-syntax-ns#"
   xmlns:svg="http://www.w3.org/2000/svg"
   xmlns="http://www.w3.org/2000/svg"
   viewBox="0 0 2666.6667 2666.6667"
   height="2666.6667"
   width="2666.6667"
   xml:space="preserve"
   id="svg2"
   version="1.1"><metadata
     id="metadata8"><rdf:RDF><cc:Work
         rdf:about=""><dc:format>image/svg+xml</dc:format><dc:type
           rdf:resource="http://purl.org/dc/dcmitype/StillImage" /></cc:Work></rdf:RDF></metadata><defs
     id="defs6" /><g
     transform="matrix(1.3333333,0,0,-1.3333333,0,2666.6667)"
     id="g10"><g
       transform="scale(0.1)"
       id="g12"><g
         transform="scale(1.22699)"
         id="g14"><path
           id="path16"
           style="fill:none;fill-opacity:1;fill-rule:nonzero;stroke:none"
           d="M 16300,0 H 0 V 16300 H 16300 V 0" /></g><g
         transform="scale(1.01522)"
         id="g18"><path
           id="path20"
           style="fill:#1d1b1a;fill-opacity:1;fill-rule:nonzero;stroke:none"
           d="m 15457.7,16299.9 c -4,0.1 -8.1,0 -12,-0.5 l -191.3,-6.9 -5,-277.8 c -23.4,-88.6 -38.4,-192.5 -41.5,-303.8 -3.5,-122.4 7.8,-236.6 29.8,-331.9 l -5.1,-277.4 191.3,7 c 128.5,-3.7 240.4,260.1 249.8,589 9.3,329 -87.4,598.6 -216,602.3" /></g><g
         transform="scale(1.01501)"
         id="g22"><path
           id="path24"
           style="fill:#343434;fill-opacity:1;fill-rule:nonzero;stroke:none"
           d="m 15485.7,15694 c -9.4,-329.1 -121.2,-592.8 -249.9,-589.2 -128.6,3.7 -225.3,273.4 -216,602.4 9.3,329 121.2,592.8 249.9,589.2 128.6,-3.7 225.3,-273.4 216,-602.4" /></g><path
         id="path26"
         style="fill:#8e908d;fill-opacity:1;fill-rule:nonzero;stroke:none"
         d="m 15433.1,16037 -1007.2,6.2 c -18,0.1 -32.8,-14.4 -32.9,-32.5 l -0.8,-135.3 c -0.1,-18.1 14.4,-32.8 32.5,-32.9 l 1007.2,-6.2 c 18,-0.1 32.8,14.5 32.9,32.5 l 0.8,135.3 c 0.1,18.1 -14.4,32.8 -32.5,32.9" /><g
         transform="scale(1.02627)"
         id="g28"><path
           id="path30"
           style="fill:#1d1b1a;fill-opacity:1;fill-rule:nonzero;stroke:none"
           d="m 13095.3,16299.7 c -4,0.3 -7.9,0.3 -11.9,0 h -189.3 l -15,-274.4 c -26.3,-86.7 -44.8,-188.9 -51.9,-298.9 -7.8,-120.9 -0.9,-234.1 17.5,-329.1 l -15,-274 h 189.3 c 127,-8.3 247.1,248.4 268.2,573.3 21,324.9 -64.8,594.9 -191.9,603.1" /></g><g
         transform="scale(1.02677)"
         id="g32"><path
           id="path34"
           style="fill:#343434;fill-opacity:1;fill-rule:nonzero;stroke:none"
           d="m 13091.4,15688.9 c -21,-324.7 -141,-581.3 -268,-573 -127,8.2 -212.8,278.1 -191.8,602.8 21.2,324.7 141.2,581.3 268.1,573.1 127,-8.3 212.8,-278.2 191.7,-602.9" /></g><path
         id="path36"
         style="fill:#fbc398;fill-opacity:1;fill-rule:nonzero;stroke:none"
         d="m 14111.1,12248.2 c 0,0 91.8,96 209.7,234.3 117.8,138.4 259,279.6 259,279.6 0,0 19.7,313.4 84.7,544.9 64.9,231.5 121.4,381.2 121.4,381.2 0,0 -11.3,375.5 25.4,776.4 36.7,401 28.2,1058.9 28.2,1058.9 l 316.3,19.7 c 0,0 138.3,-621.1 186.3,-999.5 48,-378.4 -2.8,-818.8 -19.7,-866.8 -17,-48 -33.9,-98.8 -33.9,-98.8 0,0 14.1,-437.7 -56.5,-818.9 -70.6,-381.1 -200.5,-638.1 -248.5,-748.2 -48,-110.1 -200.4,-463.1 -200.4,-463.1 0,0 -714.4,206.2 -742.6,340.3 -28.3,134.1 70.6,360 70.6,360" /><path
         id="path38"
         style="fill:#df9866;fill-opacity:1;fill-rule:nonzero;stroke:none"
         d="m 14767.6,11658.1 c 1.3,25.4 0,581.6 0,581.6 l 77.7,-547.8 -62.2,-144 -15.5,110.2" /><path
         id="path40"
         style="fill:#b5b5b4;fill-opacity:1;fill-rule:nonzero;stroke:none"
         d="m 13690.4,3743.7 -158.2,19.8 v -84.7 l 217.4,-115.8 1267.8,50.8 17,94.6 -1344,35.3" /><path
         id="path42"
         style="fill:#919191;fill-opacity:1;fill-rule:nonzero;stroke:none"
         d="m 13532.2,3763.5 c 14.2,-5.7 231.6,-110.1 231.6,-110.1 l 1270.6,55 -305,125.7 -1197.2,-70.6" /><path
         id="path44"
         style="fill:#919191;fill-opacity:1;fill-rule:nonzero;stroke:none"
         d="m 14659.8,4849.6 37.6,128 -240.9,90.3 -3949.2,-90.3 161.9,-97.9 3990.6,-30.1" /><path
         id="path46"
         style="fill:#6b6c6e;fill-opacity:1;fill-rule:nonzero;stroke:none"
         d="m 10669.2,4879.7 -128,-361.4 4314.3,154.4 -158.1,304.9 -4028.2,-97.9" /><path
         id="path48"
         style="fill:#b5b5b4;fill-opacity:1;fill-rule:nonzero;stroke:none"
         d="m 14558.1,7360.7 c 0,0 180.7,-229.7 150.6,-419.8 -30.1,-190.1 -677.6,-818.8 -677.6,-818.8 l 448,-2392.5 h -173.2 c 0,0 -512,2384.9 -512,2396.2 0,11.3 252.2,700.3 327.5,779.3 75.3,79.1 342.6,493.2 342.6,493.2 l 94.1,-37.6" /><path
         id="path50"
         style="fill:#b5b5b4;fill-opacity:1;fill-rule:nonzero;stroke:none"
         d="m 13069.2,4977.6 h 126.1 l 481.9,722.8 c 0,0 -7.6,161.9 -86.6,131.8 -79.1,-30.1 -304.9,-103.5 -391.5,-268.3 -86.6,-164.7 -129.9,-586.3 -129.9,-586.3" /><path
         id="path52"
         style="fill:#919191;fill-opacity:1;fill-rule:nonzero;stroke:none"
         d="m 14362.4,7411.5 c 0,0 237.1,-246.6 208.9,-470.6 -28.2,-224 -621.2,-681.4 -666.4,-822.6 -45.1,-141.2 401,-2388.7 401,-2388.7 l -203.3,124.2 -525.2,1874.9 -508.2,-751.1 -237.2,5.6 c 0,0 26.2,1632 55.5,1711.1 29.2,79.1 819.8,931.8 955.3,943.1 135.6,11.3 519.6,-225.9 519.6,-225.9" /><path
         id="path54"
         style="fill:#454949;fill-opacity:1;fill-rule:nonzero;stroke:none"
         d="m 13660.7,8266 -1125.3,-41 -117.6,3222.3 1125.3,41.1 117.6,-3222.4" /><path
         id="path56"
         style="fill:#393c3c;fill-opacity:1;fill-rule:nonzero;stroke:none"
         d="m 13817.8,8266 -1125.2,-41 -117.6,3222.3 1125.2,41.1 117.6,-3222.4" /><path
         id="path58"
         style="fill:#3970c0;fill-opacity:1;fill-rule:nonzero;stroke:none"
         d="m 12559.1,4567.2 -71.6,-86.5 c 0,0 -30.1,-60.3 -37.6,-79.1 -7.5,-18.8 0,-105.4 0,-105.4 0,0 -60.2,-71.5 -82.8,-169.4 -22.6,-97.9 -15.1,-248.5 -67.8,-444.3 -52.7,-195.7 -112.9,-252.2 -86.6,-361.4 26.4,-109.1 305,-176.9 512,-180.7 207.1,-3.7 353.9,82.8 369,203.3 15,120.5 -124.3,625 -135.6,737.9 -11.3,112.9 -101.6,380.2 -124.2,421.6 -22.6,41.5 -274.8,64 -274.8,64" /><g
         transform="scale(1.11602)"
         id="g60"><path
           id="path62"
           style="fill:#3970c0;fill-opacity:1;fill-rule:nonzero;stroke:none"
           d="m 15112.6,4045.18 c 0,0 -111.3,-20.16 -121.4,-60.66 -10.2,-40.5 -185.6,-411.55 -145.1,-492.55 40.4,-80.91 499.2,-121.42 563.3,-185.48 64.1,-64.16 269.8,-118.1 580.2,-141.67 310.4,-23.65 266.5,195.61 202.4,286.74 -64,91.03 -560,478.93 -566.7,549.81 -6.7,70.87 -23.6,111.29 -23.6,111.29 l -87.7,13.53 c 0,0 -213,104.57 -244.8,91.03 -31.8,-13.44 -156.6,-172.04 -156.6,-172.04" /></g><path
         id="path64"
         style="fill:#252323;fill-opacity:1;fill-rule:nonzero;stroke:none"
         d="m 12998.6,9416.2 -132.7,-84.7 -194.8,-350.1 c 0,0 -56.5,-141.2 -56.5,-214.6 0,-73.5 -81.9,-268.3 -110.1,-446.2 -28.3,-177.8 31,-474.3 31,-474.3 l 1276.3,-67.8 70.6,76.3 700.2,2.8 556.2,722.8 -282.3,192 c 0,0 -110.1,378.4 -115.8,398.1 -5.6,19.8 -39.5,228.7 -39.5,228.7 0,0 -847.1,250.4 -1103.1,242.9 -256,-7.6 -599.5,-225.9 -599.5,-225.9" /><path
         id="path66"
         style="fill:#fbc398;fill-opacity:1;fill-rule:nonzero;stroke:none"
         d="m 13001.4,10794.1 -208.9,-395.3 c 0,0 231.5,-401 208.9,-626.9 -22.6,-225.8 -135.5,-440.4 -135.5,-440.4 0,0 420.7,96 840,79 419.3,-16.9 995.3,-11.3 995.3,-11.3 0,0 -54.6,480 26.3,1248 0,0 -178.8,327.6 -512,378.4 -333.1,50.8 -1031.5,16.9 -1125.6,0 -94.1,-17 -88.5,-231.5 -88.5,-231.5" /><path
         id="path68"
         style="fill:#372a23;fill-opacity:1;fill-rule:nonzero;stroke:none"
         d="m 13014.6,13787.9 c 0,0 -303.2,-168.6 -325.8,-579 -22.6,-410.3 -22.6,-768 -71.5,-982.5 -49,-214.6 444.2,-425.5 591,-301.2 146.9,124.2 406.6,331.3 414.2,681.4 7.5,350.1 7.5,726.6 -146.9,820.7 -154.3,94.1 -461,360.6 -461,360.6" /><path
         id="path70"
         style="fill:#3970c0;fill-opacity:1;fill-rule:nonzero;stroke:none"
         d="m 13089.9,12384.6 -112.1,-32 -482.7,-1197.1 c 0,0 180.7,-553.4 297.4,-756.7 0,0 794.3,410.3 1174.6,402.8 380.2,-7.5 760.4,-154.4 760.4,-154.4 l 26.4,150.6 c 0,0 274.8,214.6 192,523.3 -82.8,308.7 -369,540.3 -448,599.5 -79.1,59.3 -386.8,327.6 -386.8,327.6 l -254.2,157.5 -767,-21.1" /><path
         id="path72"
         style="fill:#fbc398;fill-opacity:1;fill-rule:nonzero;stroke:none"
         d="m 13276.7,13106.5 c 0,-4.2 -7.1,-276.7 -49.4,-424.9 -42.3,-148.3 -137.4,-297 -137.4,-297 0,0 168.5,-475.2 448,-602.3 279.5,-127.1 755.4,-76.2 782.9,0 27.4,76.2 -463.9,623.4 -463.9,623.4 l -3.9,60.7 c 0,0 -227.6,648.6 -332.1,685.3 -104.4,36.7 -244.2,-45.2 -244.2,-45.2" /><path
         id="path74"
         style="fill:#df9866;fill-opacity:1;fill-rule:nonzero;stroke:none"
         d="m 13948.5,12848 -561.6,188.3 c -9,4.5 -85.5,61.4 -85.5,61.4 0,0 -2.7,-137.7 45.3,-261.7 35.5,-91.8 187.9,-369.1 506.3,-369.6 l 95.5,381.6" /><path
         id="path76"
         style="fill:#3970c0;fill-opacity:1;fill-rule:nonzero;stroke:none"
         d="m 12933.2,13787.9 c 0,0 -60.6,-70.6 -44.3,-243.2 16.2,-172.7 148.6,-229.1 148.6,-229.1 0,0 19.5,229.8 31.4,263.3 11.9,33.5 -135.7,209 -135.7,209" /><path
         id="path78"
         style="fill:#523d38;fill-opacity:1;fill-rule:nonzero;stroke:none"
         d="m 14172.2,13725.2 c 13.3,-9.7 117.7,-127.2 117.7,-127.2 0,0 42.3,250.8 -29.4,483.7 -71.7,232.9 -277.6,398.5 -655.8,368 -378.2,-30.5 -569.3,-315.6 -646.1,-514 -76.8,-198.3 1.3,-556 15.1,-611.8 13.8,-55.8 220.9,-201.9 220.9,-201.9 l 698.7,223.7 278.9,379.5" /><path
         id="path80"
         style="fill:#fbc398;fill-opacity:1;fill-rule:nonzero;stroke:none"
         d="m 13279.4,13393.9 c 0,0 -70.7,47.5 -136.4,33.6 -65.7,-13.8 -42.4,-132.1 2.9,-263.3 45.3,-131.1 163.7,-121.1 163.7,-121.1 0,0 49.4,-104.7 85.2,-165.8 35.8,-61 315.6,-263.2 384.9,-278.9 69.3,-15.6 161.5,-14.6 220.5,2.5 59.1,17.1 247.5,249.5 298.1,437.7 50.5,188.2 0.9,414.8 -5.5,498.1 -6.4,83.3 0.7,239.2 -46.8,363.8 -47.4,124.5 -173.4,205.4 -384.1,203.1 -210.6,-2.3 -370.7,-106.1 -451.2,-274.8 -80.4,-168.8 -63.5,-410 -131.3,-434.9" /><path
         id="path82"
         style="fill:#fbc398;fill-opacity:1;fill-rule:nonzero;stroke:none"
         d="m 12314.4,11663.7 180.7,-508.2 c 0,0 312.4,176.9 470.6,402.8 158.1,225.9 12.1,794.3 12.1,794.3 0,0 -280.9,128.3 -328.4,256 0,0 -85.6,610.9 -125.2,862.2 -39.5,251.3 -53.6,344.4 -53.6,344.4 0,0 16.9,93.2 16.9,248.5 0,155.3 -8.4,208.9 -8.4,208.9 0,0 64.9,285.2 62.1,660.7 -2.8,375.6 73.4,762.4 73.4,762.4 l -355.8,36.7 c 0,0 -76.2,-508.2 -160.9,-779.3 -84.7,-271 -110.1,-327.5 -118.6,-646.6 -8.5,-319 31.1,-485.6 0,-722.8 -31.1,-237.2 -84.7,-700.2 -19.8,-1095.5 65,-395.3 354.9,-824.5 354.9,-824.5" /><path
         id="path84"
         style="fill:#df9866;fill-opacity:1;fill-rule:nonzero;stroke:none"
         d="m 12272.9,12155 41.5,-491.3 -76,123.1 z" /><path
         id="path86"
         style="fill:#fbd4bc;fill-opacity:1;fill-rule:nonzero;stroke:none"
         d="m 12649.4,12608.6 c 0,0 30.1,-456.4 21.7,-428.2 -8.5,28.2 -81.9,355.8 -98.9,655.1 -16.9,299.3 -48,635.3 -48,635.3 l 125.2,-862.2" /><path
         id="path88"
         style="fill:#fbd4bc;fill-opacity:1;fill-rule:nonzero;stroke:none"
         d="m 14579.8,12762.1 c 0,0 -141.2,-141.2 -259,-279.6 -44.6,-52.3 -85.4,-98.5 -119,-135.8 l 338.4,257.2 V 12433 l 98.9,298 c 0,0 -7.6,307.8 59.7,539.3 67.3,231.5 87.1,417.9 87.1,417.9 0,0 -56.5,-149.7 -121.4,-381.2 -65,-231.5 -84.7,-544.9 -84.7,-544.9" /><path
         id="path90"
         style="fill:#fbc398;fill-opacity:1;fill-rule:nonzero;stroke:none"
         d="m 12535.5,7846.3 c 0,0 -2.8,361.4 241.9,594.8 244.7,233.4 779.3,37.7 911.1,-154.3 131.7,-192 123.3,-508.3 123.3,-508.3 l -70.6,-79 c 0,0 -30.1,-252.3 -101.7,-470.6 -71.5,-218.4 -210.8,-395.3 -229.6,-444.3 -18.8,-48.9 -49,-587.2 -165.7,-873.4 -116.7,-286.1 -225.8,-448 -289.8,-707.7 -64,-259.8 -97.9,-1024 -97.9,-1024 0,0 -52.7,67.7 -60.3,199.5 -7.5,131.8 -308.7,101.7 -308.7,101.7 0,0 -37.6,1479.5 0,1852.2 37.7,372.7 376.5,880.9 372.7,1001.4 -3.7,120.5 -293.5,293.5 -324.7,512" /><path
         id="path92"
         style="fill:#df9866;fill-opacity:1;fill-rule:nonzero;stroke:none"
         d="m 13229.2,7074.5 c 0,0 -3.8,-173.1 -67.8,-267.3 0,0 180.7,52.7 67.8,267.3" /><path
         id="path94"
         style="fill:#df9866;fill-opacity:1;fill-rule:nonzero;stroke:none"
         d="m 12969.4,7089.6 c 0,0 -71.5,-94.1 -90.3,-184.5 0,0 -56.5,161.9 90.3,184.5" /><path
         id="path96"
         style="fill:#f5f6f5;fill-opacity:1;fill-rule:nonzero;stroke:none"
         d="m 12483.2,4672.7 c 2.5,-118.4 4.3,-192 4.3,-192 0,0 301.2,30.1 308.7,-101.7 7.6,-131.8 60.3,-199.5 60.3,-199.5 0,0 10.5,237.8 31,493.2 h -404.3" /><g
         transform="scale(1.0622)"
         id="g98"><path
           id="path100"
           style="fill:#fbc398;fill-opacity:1;fill-rule:nonzero;stroke:none"
           d="m 13687.9,7411.58 c 0,0 14.2,173.7 159.5,389.95 145.3,216.15 340.8,319.99 340.8,319.99 0,0 619.6,-125.12 991.8,-387.4 372.1,-262.19 829.4,-482.02 893.1,-637.92 63.8,-156 70.9,-506.87 70.9,-506.87 0,0 117,-474.86 70.9,-875.36 -46,-400.57 85.1,-1378.73 85.1,-1378.73 0,0 -187.8,-3.58 -195,-38.98 -7,-35.49 -3.5,-170.12 -3.5,-170.12 0,0 -113.4,-95.74 -124,-92.16 -10.7,3.57 -141.8,141.78 -141.8,141.78 0,0 -99.2,680.47 -205.5,1116.45 -106.4,435.89 -166.7,531.63 -152.5,928.54 14.2,397.01 -148.8,386.37 -361.5,439.47 -212.6,53.19 -1198,198.55 -1229.9,244.58 -31.9,46.04 -198.4,506.78 -198.4,506.78" /></g><path
         id="path102"
         style="fill:#393c3c;fill-opacity:1;fill-rule:nonzero;stroke:none"
         d="m 13651.6,7267.4 h 1222.8 c 0,0 161.8,187.4 150.5,353 -11.2,165.7 -442.3,237.2 -442.3,237.2 l -700.2,-2.8 -141.2,-155.3 -89.6,-432.1" /><path
         id="path104"
         style="fill:#454949;fill-opacity:1;fill-rule:nonzero;stroke:none"
         d="m 15024.9,7620.4 c -11.2,165.7 -442.3,237.2 -442.3,237.2 l -700.2,-2.8 -127.5,-140.3 c 342.2,0 1044.2,0 1044.2,0 0,0 101.6,-193.9 -60.3,-447.1 h 135.6 c 0,0 161.8,187.4 150.5,353" /><g
         transform="scale(1.0622)"
         id="g106"><path
           id="path108"
           style="fill:#f5f6f5;fill-opacity:1;fill-rule:nonzero;stroke:none"
           d="m 15785.6,4493.96 c 30.8,-185.65 50.1,-318.2 50.1,-318.2 0,0 131.1,-138.21 141.8,-141.78 10.6,-3.58 124,92.16 124,92.16 0,0 -3.5,134.63 3.5,170.12 7.2,35.4 195,38.98 195,38.98 0,0 -12.8,95.46 -29,238.93 l -485.4,-80.21" /></g><path
         id="path110"
         style="fill:#b5b5b4;fill-opacity:1;fill-rule:nonzero;stroke:none"
         d="m 10541.2,4518.3 -212.7,101.7 178.8,357.6 161.9,-97.9 -128,-361.4" /><g
         transform="scale(1.00334)"
         id="g112"><path
           id="path114"
           style="fill:#fbc398;fill-opacity:1;fill-rule:nonzero;stroke:none"
           d="m 12572.5,15643.4 c 0,0 44.1,65.6 79.8,80.6 35.7,15 238.9,118.2 255.1,165.1 16.3,46.9 43.2,227 41.3,255.2 -1.9,28.1 -103.2,148.2 -110.7,151.9 -7.5,3.8 -41.3,-43.1 -39.4,-103.1 1.9,-60.1 22.5,-103.2 24.4,-116.4 1.9,-13.1 -7.5,-30.3 -7.5,-30.3 0,0 -75,-16.6 -118.2,-24.1 -43.1,-7.5 -101.3,-31.9 -101.3,-31.9 l -369.6,11.3 -46.9,-105.1 38.4,-216.6 c 0,0 91,-107.9 124.8,-106.1 33.8,1.9 229.8,69.5 229.8,69.5" /></g><path
         id="path116"
         style="fill:#8e908d;fill-opacity:1;fill-rule:nonzero;stroke:none"
         d="m 13176.4,16219.8 -1006.7,32.4 c -18,0.6 -33.1,-13.5 -33.7,-31.6 l -4.4,-135.2 c -0.5,-18.1 13.6,-33.2 31.7,-33.8 l 1006.7,-32.4 c 18,-0.6 33.1,13.5 33.7,31.6 l 4.4,135.2 c 0.5,18.1 -13.6,33.2 -31.7,33.8" /><g
         transform="scale(1.00346)"
         id="g118"><path
           id="path120"
           style="fill:#fbc398;fill-opacity:1;fill-rule:nonzero;stroke:none"
           d="m 12306.6,16190.4 c 0,0 46,63.6 91.9,79.6 45.9,15.9 83.5,-9.4 83.5,-9.4 0,0 46.9,36.6 80.7,7 0,0 50.6,32.4 88.6,-5.6 0,0 53.4,26.7 87.2,-2.8 33.8,-29.5 64.7,-114 54.9,-139.3 -9.8,-25.3 -71.7,0 -71.7,0 0,0 -21.1,-40.3 -54.9,-39.9 -33.8,0.5 -49.3,32.9 -49.3,32.9 0,0 -36,-28.2 -66.5,-18.3 -30.5,9.8 -54.4,45 -54.4,45 0,0 -12.7,-15.5 -43.7,-4.2 -30.9,11.2 -53.4,52 -53.4,52 l -92.9,3" /></g><path
         id="path122"
         style="fill:#fbc398;fill-opacity:1;fill-rule:nonzero;stroke:none"
         d="m 14839.5,15523.5 c 0,0 -70.6,95 -80,110.1 -9.4,15 -184.4,114.8 -192,144.9 -7.5,30.1 -13.1,250.4 0,276.7 13.2,26.4 212.7,43.3 225.9,11.3 13.2,-32 -75.3,-79 -75.3,-79 l 11.3,-107.3 182.6,-37.7 289.9,-1.9 c 0,0 7.5,-201.4 -46.1,-297.4 -53.7,-96 -147.8,-152.4 -179.8,-122.3 -32,30.1 -136.5,102.6 -136.5,102.6" /><path
         id="path124"
         style="fill:#fbc398;fill-opacity:1;fill-rule:nonzero;stroke:none"
         d="m 14554,16207.7 c 0,0 11.7,20.2 76.6,18.8 64.9,-1.4 134.1,-39.5 134.1,-39.5 0,0 82.8,39.5 116.2,8.4 0,0 51.8,35.4 101.2,-8.4 0,0 84.7,12.7 124.3,-22.6 39.5,-35.3 48,-145.4 32.4,-163.8 -15.5,-18.3 -59.3,0 -59.3,0 0,0 4.3,-33.8 -35.3,-42.3 -39.5,-8.5 -52.2,14.1 -52.2,14.1 0,0 -27.4,-26.8 -63.1,-8.5 -35.7,18.4 -54.1,42.4 -54.1,42.4 0,0 -24,-11.3 -46.6,-8.5 -22.5,2.8 -50.8,39.5 -66.3,36.7 -15.5,-2.8 -216,0 -216,0 l 8.1,173.2" /><g
         transform="scale(1.03434)"
         id="g126"><path
           id="path128"
           style="fill:#1d1b1a;fill-opacity:1;fill-rule:nonzero;stroke:none"
           d="m 11701.9,16299.7 c -4.1,0.3 -8.3,0.3 -12.3,0 h -196.7 l -15.6,-285.1 c -27.3,-90.1 -46.6,-196.2 -54,-310.4 -8.1,-125.6 -0.9,-243.2 18.3,-341.9 l -15.6,-284.7 h 196.7 c 131.8,-8.5 256.5,258.1 278.5,595.6 21.8,337.5 -67.4,618 -199.3,626.5" /></g><g
         transform="scale(1.03487)"
         id="g130"><path
           id="path132"
           style="fill:#343434;fill-opacity:1;fill-rule:nonzero;stroke:none"
           d="m 11698.6,15665.2 c -21.9,-337.3 -146.6,-603.8 -278.4,-595.2 -131.9,8.5 -221.1,288.9 -199.2,626.2 21.9,337.3 146.5,603.8 278.4,595.2 131.8,-8.5 221,-288.9 199.2,-626.2" /></g><g
         transform="scale(1.00647)"
         id="g134"><path
           id="path136"
           style="fill:#8e908d;fill-opacity:1;fill-rule:nonzero;stroke:none"
           d="m 11832.3,16144.6 c -3.2,-83 -43.1,-149 -89,-147.2 -45.9,1.7 -80.5,70.5 -77.4,153.6 3.1,83.1 43,149 88.9,147.3 45.9,-1.8 80.5,-70.6 77.5,-153.7" /></g><g
         transform="scale(1.02172)"
         id="g138"><path
           id="path140"
           style="fill:#1d1b1a;fill-opacity:1;fill-rule:nonzero;stroke:none"
           d="m 14049.9,16299.8 c -4.2,0.2 -8.4,0.1 -12.5,-0.2 l -199.1,-3.8 -10.3,-288.9 c -25.8,-91.7 -43.2,-199.5 -48.5,-315.3 -5.9,-127.2 3.8,-246.2 25,-345.7 l -10.3,-288.4 199,3.8 c 133.8,-6.1 254.9,266.2 270.4,608.2 15.7,342 -80,624.2 -213.7,630.3" /></g><g
         transform="scale(1.02185)"
         id="g142"><path
           id="path144"
           style="fill:#343434;fill-opacity:1;fill-rule:nonzero;stroke:none"
           d="m 14062.8,15663.6 c -15.6,-341.9 -136.7,-614.2 -270.4,-608.1 -133.7,6.2 -229.4,288.3 -213.8,630.3 15.7,341.9 136.7,614.2 270.4,608.1 133.7,-6.1 229.4,-288.3 213.8,-630.3" /></g><path
         id="path146"
         style="fill:#8e908d;fill-opacity:1;fill-rule:nonzero;stroke:none"
         d="m 14207,16010 c -1.6,-83.7 -40.4,-150.8 -86.6,-149.9 -46.3,0.8 -82.5,69.4 -80.9,153 1.5,83.7 40.3,150.8 86.6,150 46.2,-0.9 82.4,-69.4 80.9,-153.1" /><path
         id="path148"
         style="fill:#372a23;fill-opacity:1;fill-rule:nonzero;stroke:none"
         d="m 4564.22,13787.9 c 0,0 -303.19,-168.6 -325.78,-579 -22.59,-410.3 -22.59,-768 -71.53,-982.5 -48.94,-214.6 444.24,-425.5 591.06,-301.2 146.82,124.2 406.59,331.3 414.11,681.4 7.53,350.1 7.53,726.6 -146.82,820.7 -154.35,94.1 -461.04,360.6 -461.04,360.6" /><path
         id="path150"
         style="fill:#fbc398;fill-opacity:1;fill-rule:nonzero;stroke:none"
         d="m 5660.69,12248.2 357.67,-140.3 c 0,0 267.29,-71.5 395.29,-158.1 128.01,-86.6 222.12,-214.6 222.12,-214.6 l 37.65,256.5 391.53,-34.3 c 0,0 -15.06,-463.1 0,-606.2 15.05,-143 41.41,-617.4 0,-839.5 -41.41,-222.1 -203.29,-353.9 -274.83,-391.5 -71.53,-37.7 -161.88,-92.7 -248.46,-40.7 -86.6,52 -376.47,545.1 -376.47,545.1 0,0 -233.42,813.2 -233.42,865.9 0,52.7 -271.08,757.7 -271.08,757.7" /><path
         id="path152"
         style="fill:#df9866;fill-opacity:1;fill-rule:nonzero;stroke:none"
         d="m 6458.83,10489.1 c 14.33,-34.8 15.06,253.2 105.41,563.3 90.35,310.1 71.53,682.8 71.53,682.8 l -62.75,74.5 c 0,0 20.4,-270.2 -61.95,-548.8 -82.36,-278.6 -104.95,-643.8 -52.24,-771.8" /><path
         id="path154"
         style="fill:#454949;fill-opacity:1;fill-rule:nonzero;stroke:none"
         d="m 5210.3,8266 -1125.27,-41.1 -117.62,3222.4 1125.28,41.1 L 5210.3,8266" /><path
         id="path156"
         style="fill:#393c3c;fill-opacity:1;fill-rule:nonzero;stroke:none"
         d="m 5367.46,8266 -1125.27,-41.1 -117.62,3222.4 1125.28,41.1 117.61,-3222.4" /><path
         id="path158"
         style="fill:#b5b5b4;fill-opacity:1;fill-rule:nonzero;stroke:none"
         d="m 5239.98,3743.7 -158.11,19.8 v -84.7 l 217.41,-115.8 1267.76,50.8 16.94,94.6 -1344,35.3" /><path
         id="path160"
         style="fill:#919191;fill-opacity:1;fill-rule:nonzero;stroke:none"
         d="m 5081.87,3763.5 c 14.11,-5.7 231.52,-110.1 231.52,-110.1 l 1270.59,55 -304.94,125.7 -1197.17,-70.6" /><path
         id="path162"
         style="fill:#3970c0;fill-opacity:1;fill-rule:nonzero;stroke:none"
         d="m 4108.69,4567.2 -71.53,-86.5 c 0,0 -30.11,-60.3 -37.64,-79.1 -7.53,-18.8 0,-105.4 0,-105.4 0,0 -60.24,-71.5 -82.83,-169.4 -22.59,-97.9 -15.06,-248.5 -67.76,-444.3 -52.71,-195.7 -112.94,-252.2 -86.59,-361.4 26.35,-109.1 304.94,-176.9 512,-180.7 207.06,-3.7 353.88,82.8 368.94,203.3 15.05,120.5 -124.24,625 -135.53,737.9 -11.29,112.9 -101.65,380.2 -124.23,421.6 -22.59,41.5 -274.83,64 -274.83,64" /><path
         id="path164"
         style="fill:#3970c0;fill-opacity:1;fill-rule:nonzero;stroke:none"
         d="m 8415.51,4514.5 c 0,0 -124.24,-22.5 -135.53,-67.7 -11.3,-45.2 -207.06,-459.3 -161.88,-549.7 45.17,-90.3 557.17,-135.5 628.7,-207 71.53,-71.6 301.17,-131.8 647.53,-158.1 346.35,-26.4 297.41,218.3 225.88,320 -71.53,101.6 -624.94,534.5 -632.47,613.6 -7.53,79.1 -26.35,124.2 -26.35,124.2 l -97.88,15.1 c 0,0 -237.68,116.7 -273.19,101.6 -35.52,-15 -174.81,-192 -174.81,-192" /><path
         id="path166"
         style="fill:#919191;fill-opacity:1;fill-rule:nonzero;stroke:none"
         d="m 6209.39,4849.6 37.65,128 -240.94,90.3 -3949.17,-90.3 161.88,-97.9 3990.58,-30.1" /><path
         id="path168"
         style="fill:#6b6c6e;fill-opacity:1;fill-rule:nonzero;stroke:none"
         d="m 2218.81,4879.7 -128,-361.4 4314.35,154.4 -158.12,304.9 -4028.23,-97.9" /><path
         id="path170"
         style="fill:#b5b5b4;fill-opacity:1;fill-rule:nonzero;stroke:none"
         d="m 6107.74,7360.7 c 0,0 180.71,-229.7 150.59,-419.8 -30.11,-190.1 -677.64,-818.8 -677.64,-818.8 l 448,-2392.5 h -173.18 c 0,0 -512,2384.9 -512,2396.2 0,11.3 252.24,700.3 327.53,779.3 75.29,79.1 342.59,493.2 342.59,493.2 l 94.11,-37.6" /><path
         id="path172"
         style="fill:#b5b5b4;fill-opacity:1;fill-rule:nonzero;stroke:none"
         d="m 4618.81,4977.6 h 126.12 l 481.88,722.8 c 0,0 -7.53,161.9 -86.59,131.8 -79.06,-30.1 -304.94,-103.5 -391.53,-268.3 -86.59,-164.7 -129.88,-586.3 -129.88,-586.3" /><path
         id="path174"
         style="fill:#919191;fill-opacity:1;fill-rule:nonzero;stroke:none"
         d="m 5911.98,7411.5 c 0,0 237.18,-246.6 208.94,-470.6 -28.23,-224 -621.17,-681.4 -666.35,-822.6 -45.18,-141.2 400.94,-2388.7 400.94,-2388.7 l -203.29,124.2 -525.18,1874.9 -508.23,-751.1 -237.18,5.6 c 0,0 26.2,1632 55.45,1711.1 29.26,79.1 819.84,931.8 955.37,943.1 135.53,11.3 519.53,-225.9 519.53,-225.9" /><path
         id="path176"
         style="fill:#252323;fill-opacity:1;fill-rule:nonzero;stroke:none"
         d="m 4548.22,9416.2 -132.71,-84.7 -194.82,-350.1 c 0,0 -56.47,-141.2 -56.47,-214.6 0,-73.5 -81.88,-268.3 -110.12,-446.2 -28.23,-177.8 31.06,-474.3 31.06,-474.3 l 1276.24,-67.8 70.58,76.3 700.24,2.8 556.23,722.8 -282.35,192 c 0,0 -110.12,378.4 -115.77,398.1 -5.64,19.8 -39.52,228.7 -39.52,228.7 0,0 -847.06,250.4 -1103.06,242.9 -256,-7.6 -599.53,-225.9 -599.53,-225.9" /><path
         id="path178"
         style="fill:#fbc398;fill-opacity:1;fill-rule:nonzero;stroke:none"
         d="m 4551.04,10794.1 -208.94,-395.3 c 0,0 231.53,-401 208.94,-626.9 -22.58,-225.8 -135.53,-440.4 -135.53,-440.4 0,0 420.68,96 839.99,79 419.31,-16.9 995.31,-11.3 995.31,-11.3 0,0 -54.6,480 26.35,1248 0,0 -178.82,327.6 -512.01,378.4 -333.17,50.8 -1031.52,16.9 -1125.64,0 -94.12,-16.9 -88.47,-231.5 -88.47,-231.5" /><path
         id="path180"
         style="fill:#3970c0;fill-opacity:1;fill-rule:nonzero;stroke:none"
         d="m 4639.51,12384.6 -112.04,-32 -482.78,-1197.1 c 0,0 180.71,-553.4 297.41,-756.7 0,0 794.36,410.3 1174.59,402.8 380.23,-7.5 760.47,-154.4 760.47,-154.4 l 26.35,150.6 c 0,0 274.83,214.6 192,523.3 -82.82,308.7 -368.94,540.3 -448,599.5 -79.06,59.3 -386.82,327.6 -386.82,327.6 l -254.12,157.5 -767.06,-21.1" /><path
         id="path182"
         style="fill:#fbc398;fill-opacity:1;fill-rule:nonzero;stroke:none"
         d="m 4826.34,13106.5 c 0,-4.2 -7.06,-276.7 -49.42,-424.9 -42.35,-148.3 -137.41,-297 -137.41,-297 0,0 168.47,-475.2 448,-602.3 279.53,-127.1 755.37,-76.2 782.86,0 27.5,76.2 -463.8,623.4 -463.8,623.4 l -3.94,60.7 c 0,0 -227.59,648.6 -332.06,685.3 -104.47,36.7 -244.23,-45.2 -244.23,-45.2" /><path
         id="path184"
         style="fill:#df9866;fill-opacity:1;fill-rule:nonzero;stroke:none"
         d="m 5498.11,12848 -561.55,188.3 c -9.06,4.5 -85.51,61.4 -85.51,61.4 0,0 -2.72,-137.7 45.28,-261.7 35.52,-91.8 187.93,-369.1 506.3,-369.6 l 95.48,381.6" /><path
         id="path186"
         style="fill:#3970c0;fill-opacity:1;fill-rule:nonzero;stroke:none"
         d="m 4482.83,13787.9 c 0,0 -60.57,-70.6 -44.31,-243.2 16.26,-172.7 148.56,-229.1 148.56,-229.1 0,0 19.55,229.8 31.43,263.3 11.88,33.5 -135.68,209 -135.68,209" /><path
         id="path188"
         style="fill:#523d38;fill-opacity:1;fill-rule:nonzero;stroke:none"
         d="m 5721.85,13725.2 c 13.27,-9.7 117.68,-127.2 117.68,-127.2 0,0 42.25,250.8 -29.43,483.7 -71.68,232.9 -277.58,398.5 -655.78,368 -378.21,-30.5 -569.29,-315.6 -646.11,-514 -76.82,-198.3 1.35,-556 15.12,-611.8 13.78,-55.8 220.93,-201.9 220.93,-201.9 l 698.66,223.7 278.93,379.5" /><path
         id="path190"
         style="fill:#fbc398;fill-opacity:1;fill-rule:nonzero;stroke:none"
         d="m 4829.05,13393.9 c 0,0 -70.74,47.5 -136.42,33.6 -65.68,-13.8 -42.44,-132.1 2.89,-263.3 45.32,-131.1 163.72,-121.1 163.72,-121.1 0,0 49.42,-104.7 85.2,-165.8 35.78,-61 315.6,-263.2 384.89,-278.9 69.3,-15.6 161.46,-14.6 220.52,2.5 59.06,17.1 247.43,249.5 298.03,437.7 50.6,188.2 0.93,414.8 -5.47,498.1 -6.39,83.3 0.67,239.2 -46.78,363.8 -47.45,124.5 -173.42,205.4 -384.06,203.1 -210.64,-2.3 -370.79,-106.1 -451.23,-274.8 -80.44,-168.8 -63.53,-410 -131.29,-434.9" /><path
         id="path192"
         style="fill:#fbc398;fill-opacity:1;fill-rule:nonzero;stroke:none"
         d="m 4085.16,7846.3 c 0,0 -2.82,361.4 241.88,594.8 244.71,233.4 779.3,37.7 911.06,-154.3 131.76,-192 123.3,-508.3 123.3,-508.3 l -70.59,-79 c 0,0 -30.12,-252.3 -101.65,-470.6 -71.53,-218.4 -210.83,-395.3 -229.65,-444.3 -18.82,-48.9 -48.94,-587.2 -165.64,-873.4 -116.71,-286.1 -225.89,-448 -289.89,-707.7 -63.99,-259.8 -97.88,-1024 -97.88,-1024 0,0 -52.7,67.7 -60.23,199.5 -7.53,131.8 -308.71,101.7 -308.71,101.7 0,0 -37.64,1479.5 0,1852.2 37.65,372.7 376.47,880.9 372.71,1001.4 -3.77,120.5 -293.51,293.5 -324.71,512" /><path
         id="path194"
         style="fill:#df9866;fill-opacity:1;fill-rule:nonzero;stroke:none"
         d="m 4778.81,7074.5 c 0,0 -3.77,-173.1 -67.77,-267.3 0,0 180.71,52.7 67.77,267.3" /><path
         id="path196"
         style="fill:#df9866;fill-opacity:1;fill-rule:nonzero;stroke:none"
         d="m 4519.04,7089.6 c 0,0 -71.53,-94.1 -90.35,-184.5 0,0 -56.47,161.9 90.35,184.5" /><path
         id="path198"
         style="fill:#f5f6f5;fill-opacity:1;fill-rule:nonzero;stroke:none"
         d="m 4032.8,4672.7 c 2.49,-118.4 4.36,-192 4.36,-192 0,0 301.17,30.1 308.7,-101.7 7.53,-131.8 60.24,-199.5 60.24,-199.5 0,0 10.55,237.8 30.98,493.2 H 4032.8" /><path
         id="path200"
         style="fill:#fbc398;fill-opacity:1;fill-rule:nonzero;stroke:none"
         d="m 6088.92,7872.6 c 0,0 15.06,184.5 169.41,414.2 154.36,229.6 362.03,339.9 362.03,339.9 0,0 658.21,-132.9 1053.5,-411.5 395.3,-278.5 880.94,-512 948.7,-677.6 67.77,-165.7 75.3,-538.4 75.3,-538.4 0,0 124.23,-504.4 75.29,-929.8 -48.94,-425.5 90.36,-1464.5 90.36,-1464.5 0,0 -199.54,-3.8 -207.06,-41.4 -7.53,-37.7 -3.77,-180.7 -3.77,-180.7 0,0 -120.47,-101.7 -131.76,-97.9 -11.3,3.8 -150.59,150.6 -150.59,150.6 0,0 -105.41,722.8 -218.35,1185.9 -112.94,463 -176.95,564.7 -161.89,986.3 15.06,421.7 -158.11,410.4 -384,466.8 -225.88,56.5 -1272.46,210.9 -1306.34,259.8 -33.89,48.9 -210.83,538.3 -210.83,538.3" /><path
         id="path202"
         style="fill:#393c3c;fill-opacity:1;fill-rule:nonzero;stroke:none"
         d="m 5201.26,7267.4 h 1222.72 c 0,0 161.88,187.4 150.59,353 -11.29,165.7 -442.35,237.2 -442.35,237.2 l -700.24,-2.8 -141.17,-155.3 -89.55,-432.1" /><path
         id="path204"
         style="fill:#454949;fill-opacity:1;fill-rule:nonzero;stroke:none"
         d="m 6574.57,7620.4 c -11.3,165.7 -442.35,237.2 -442.35,237.2 l -700.24,-2.8 -127.48,-140.3 c 342.18,0 1044.19,0 1044.19,0 0,0 101.64,-193.9 -60.24,-447.1 h 135.53 c 0,0 161.88,187.4 150.59,353" /><path
         id="path206"
         style="fill:#f5f6f5;fill-opacity:1;fill-rule:nonzero;stroke:none"
         d="m 8317.12,4773.5 c 32.67,-197.2 53.21,-338 53.21,-338 0,0 139.29,-146.8 150.59,-150.6 11.29,-3.8 131.76,97.9 131.76,97.9 0,0 -3.76,143 3.77,180.7 7.52,37.6 207.06,41.4 207.06,41.4 0,0 -13.6,101.4 -30.8,253.8 l -515.59,-85.2" /><path
         id="path208"
         style="fill:#b5b5b4;fill-opacity:1;fill-rule:nonzero;stroke:none"
         d="m 2090.81,4518.3 -212.7,101.7 178.82,357.6 161.88,-97.9 -128,-361.4" /><path
         id="path210"
         style="fill:#1d1b1a;fill-opacity:1;fill-rule:nonzero;stroke:none"
         d="m 5025.12,13108.5 c -4.08,-0.1 -8.14,-0.4 -12.17,-1.1 l -193.48,-17.7 10.31,-281.9 c -18.72,-91.1 -28.09,-197.2 -25.09,-310.3 3.29,-124.2 21.02,-239.3 48.69,-334.7 l 10.3,-281.5 193.47,17.7 c 130.59,3.5 229.28,277.1 220.43,611.1 -8.84,333.9 -121.87,601.9 -252.46,598.4" /><path
         id="path212"
         style="fill:#343434;fill-opacity:1;fill-rule:nonzero;stroke:none"
         d="m 5084.11,12492.4 c 8.85,-334 -89.85,-607.6 -220.43,-611.1 -130.59,-3.4 -243.62,264.5 -252.46,598.5 -8.85,334 89.84,607.6 220.43,611 130.59,3.5 243.62,-264.5 252.46,-598.4" /><path
         id="path214"
         style="fill:#8e908d;fill-opacity:1;fill-rule:nonzero;stroke:none"
         d="m 4814.25,12585.6 -1007.19,-6.1 c -18.06,-0.1 -32.61,-14.8 -32.5,-32.9 l 0.81,-135.3 c 0.11,-18.1 14.84,-32.6 32.9,-32.5 l 1007.19,6.1 c 18.06,0.1 32.61,14.8 32.5,32.9 l -0.82,135.3 c -0.1,18 -14.83,32.6 -32.89,32.5" /><path
         id="path216"
         style="fill:#fbc398;fill-opacity:1;fill-rule:nonzero;stroke:none"
         d="m 4802.36,10873.1 c -26.35,289.9 -133.32,1155.8 -133.32,1155.8 -1.56,188.2 -76.56,566.6 -81.27,606.1 -4.7,39.5 -22.58,92.2 -48.94,117.6 -12.26,11.9 -41.65,16.2 -69.57,17.3 -12.87,-272.1 -51.53,-521.7 -176.91,-521.7 -365.18,0 -325.64,74.3 -325.64,74.3 0,0 -132.73,-288.2 -176.38,-282.1 -56.9,-176.4 -8.84,-630.2 21.92,-787 37.64,-192 131.76,-455.6 161.88,-515.8 30.12,-60.2 176.94,-448 312.47,-545.7 135.53,-97.6 365.18,-132 417.88,-101.8 52.71,30.1 124.23,493.1 97.88,783" /><path
         id="path218"
         style="fill:#df9866;fill-opacity:1;fill-rule:nonzero;stroke:none"
         d="m 4003.75,12268.9 c 0,0 163.34,-151.8 191.1,-275 27.75,-123.1 43.75,107.5 43.75,107.5 l -271.9,221.1 37.05,-53.6" /><path
         id="path220"
         style="fill:#df9866;fill-opacity:1;fill-rule:nonzero;stroke:none"
         d="m 4238.6,12101.4 c -19.34,1.5 -38.52,2.1 -57.41,1.9 v -35.4 c 1.78,-0.9 3.08,-2 3.76,-3.3 14.12,-25.4 28.24,-415 25.42,-434.8 -2.83,-19.7 -96,-96.2 -96,-96.2 l 98.82,0.2 c 0,0 0,0 -11.3,-177.9 -11.29,-177.8 -70.59,-598.5 -65.7,-607 4.88,-8.5 88.29,279.5 122.17,525.2 33.89,245.6 -8.47,807.5 -19.76,827.3" /><path
         id="path222"
         style="fill:#1d1b1a;fill-opacity:1;fill-rule:nonzero;stroke:none"
         d="m 7725.52,13024 c -4.09,0.1 -8.16,-0.1 -12.2,-0.6 l -194.1,-8.9 -2.5,-282.1 c -22.84,-90.1 -37.01,-195.7 -39.16,-308.8 -2.35,-124.2 10.13,-240 33.44,-336.6 l -2.49,-281.6 194.07,8.9 c 130.61,-2.5 241.62,266.3 247.96,600.4 6.34,334 -94.41,606.8 -225.02,609.3" /><path
         id="path224"
         style="fill:#343434;fill-opacity:1;fill-rule:nonzero;stroke:none"
         d="m 7756.46,12405.8 c -6.33,-334.1 -117.35,-602.9 -247.96,-600.4 -130.6,2.5 -231.35,275.3 -225.01,609.3 6.33,334.1 117.34,602.9 247.96,600.4 130.61,-2.5 231.35,-275.3 225.01,-609.3" /><path
         id="path226"
         style="fill:#8e908d;fill-opacity:1;fill-rule:nonzero;stroke:none"
         d="m 7471.38,12512 -1007.2,6.1 c -18.05,0.2 -32.78,-14.4 -32.9,-32.5 l -0.83,-135.3 c -0.1,-18 14.45,-32.8 32.5,-32.9 l 1007.2,-6.1 c 18.06,-0.1 32.78,14.4 32.9,32.5 l 0.83,135.3 c 0.1,18 -14.44,32.8 -32.5,32.9" /><path
         id="path228"
         style="fill:#fbc398;fill-opacity:1;fill-rule:nonzero;stroke:none"
         d="m 6673.42,11991.7 c 0,0 -37.57,199.1 6.63,270.6 44.19,71.5 112.03,254.4 111.98,254.4 l -66.75,1.4 c 0,0 10.26,56.7 38.49,84.9 28.24,28.2 126.12,41.4 126.12,41.4 0,0 28.24,32 64,33.9 35.76,1.9 75.29,-13.2 75.29,-13.2 0,0 65.88,19.2 88.47,13.3 22.59,-5.8 67.77,-20.8 67.77,-20.8 0,0 67.76,11.3 103.53,-1.9 35.76,-13.2 112.93,-167.6 103.53,-241 -9.42,-73.3 -33.89,-175 -75.3,-203.2 -41.41,-28.3 -133.64,-75.3 -156.23,-96 -22.59,-20.7 -96,-158.1 -96,-158.1 0,0 -220.24,-54.6 -240.95,-56.5 -20.7,-1.9 -150.58,90.8 -150.58,90.8" /><path
         id="path230"
         style="fill:#1d1b1a;fill-opacity:1;fill-rule:nonzero;stroke:none"
         d="m 6487.82,13104.2 c -4.28,0.1 -8.53,-0.1 -12.77,-0.6 l -203.21,-9.2 -2.75,-295.3 c -23.96,-94.4 -38.86,-204.9 -41.16,-323.3 -2.52,-130.1 10.49,-251.4 34.86,-352.5 l -2.75,-294.8 203.19,9.2 c 136.74,-2.6 253.09,278.7 259.89,628.5 6.79,349.7 -98.55,635.4 -235.3,638" /><path
         id="path232"
         style="fill:#343434;fill-opacity:1;fill-rule:nonzero;stroke:none"
         d="m 6519.93,12456.9 c -6.8,-349.7 -123.15,-631.1 -259.89,-628.4 -136.74,2.7 -242.09,288.3 -235.29,638.1 6.79,349.7 123.14,631 259.88,628.4 136.74,-2.7 242.09,-288.3 235.3,-638.1" /><path
         id="path234"
         style="fill:#8e908d;fill-opacity:1;fill-rule:nonzero;stroke:none"
         d="m 6356.76,12456.7 c 0.62,-83.6 -36.38,-151.8 -82.64,-152.1 -46.26,-0.3 -84.26,67.2 -84.88,150.9 -0.62,83.7 36.38,151.8 82.64,152.1 46.26,0.4 84.26,-67.2 84.88,-150.9" /><path
         id="path236"
         style="fill:#fbc398;fill-opacity:1;fill-rule:nonzero;stroke:none"
         d="m 4273.53,11979.9 -16.94,113 c 0,0 -278.59,207 -289.89,229.6 -11.29,22.6 -39.53,481.9 -39.53,481.9 0,0 62.12,18.8 96,9.4 33.89,-9.4 77.18,-26.4 77.18,-26.4 0,0 69.65,20.8 97.88,17 28.24,-3.8 45.18,-13.2 45.18,-13.2 0,0 77.18,18.8 97.88,17 20.71,-1.9 48.94,-30.2 48.94,-30.2 0,0 86.59,1.9 107.29,-7.5 20.71,-9.4 54.59,-50.8 77.18,-97.9 22.59,-47 82.82,-408.4 82.82,-421.6 0,-13.2 0,-214.6 0,-214.6 l -383.99,-56.5" /><path
         id="path238"
         style="fill:#1d1b1a;fill-opacity:1;fill-rule:nonzero;stroke:none"
         d="m 3760.48,13186.8 c -4.28,0 -8.54,-0.3 -12.77,-0.8 l -202.97,-13.4 3.3,-295.3 c -22.02,-94.9 -34.65,-205.7 -34.52,-324.1 0.14,-130.2 15.63,-251.1 42.06,-351.7 l 3.29,-294.8 217.1,-7.5 c 136.76,0.1 233.2,304.7 232.82,654.5 -0.37,349.8 -111.55,633.2 -248.31,633.1" /><path
         id="path240"
         style="fill:#343434;fill-opacity:1;fill-rule:nonzero;stroke:none"
         d="m 3805.83,12540.3 c 0.38,-349.8 -110.2,-633.4 -246.96,-633.6 -136.77,-0.1 -247.94,283.3 -248.31,633.1 -0.38,349.8 110.19,633.5 246.95,633.6 136.77,0.2 247.94,-283.3 248.32,-633.1" /><path
         id="path242"
         style="fill:#8e908d;fill-opacity:1;fill-rule:nonzero;stroke:none"
         d="m 3641.96,12540.5 c 0.45,-83.7 -36.69,-151.7 -82.95,-152 -46.26,-0.2 -84.13,67.4 -84.58,151.1 -0.45,83.7 36.68,151.7 82.94,152 46.27,0.2 84.13,-67.4 84.59,-151.1" /><path
         id="path244"
         style="fill:#826450;fill-opacity:1;fill-rule:nonzero;stroke:none"
         d="m 4514.02,10012.9 c -0.02,0 -0.03,0 -0.03,0 l -31.98,91 c 0.01,0 0.02,0 0.03,0 11.5,-29.8 22.37,-60.4 31.98,-91" /><path
         id="path246"
         style="fill:#efaf81;fill-opacity:1;fill-rule:nonzero;stroke:none"
         d="m 4579.13,10009.3 c -37.08,0 -64.07,3.5 -65.11,3.6 -9.61,30.6 -20.48,61.2 -31.98,91 0.07,-0.1 0.15,-0.1 0.22,-0.1 4.88,-1.6 76.84,-25.2 145.5,-25.2 8,0 15.95,0.3 23.74,1 23.64,0.8 42.08,4.2 52.98,10.5 2.46,1.4 4.95,3.7 7.48,6.9 14.8,8.8 26.71,21.1 34.06,38.2 45.3,105.4 61.99,476.5 61.99,476.5 0,0 39.53,-438.8 -24.47,-532.2 -40.67,-59.3 -138.49,-70.2 -204.41,-70.2" /><path
         id="path248"
         style="fill:#efaf81;fill-opacity:1;fill-rule:nonzero;stroke:none"
         d="m 4651.5,10079.6 c 22.3,2.1 43.32,7.3 60.46,17.4 -2.53,-3.2 -5.02,-5.5 -7.48,-6.9 -10.9,-6.3 -29.34,-9.7 -52.98,-10.5 m -169.24,24.2 c -0.07,0 -0.15,0 -0.22,0.1 -0.01,0 -0.02,0 -0.03,0 H 4482 c 0,0 0.09,0 0.26,-0.1" /></g></g></svg>