<?xml version="1.0" encoding="UTF-8" standalone="no"?>
<svg
   xmlns:dc="http://purl.org/dc/elements/1.1/"
   xmlns:cc="http://creativecommons.org/ns#"
   xmlns:rdf="http://www.w3.org/1999/02/22-rdf-syntax-ns#"
   xmlns:svg="http://www.w3.org/2000/svg"
   xmlns="http://www.w3.org/2000/svg"
   viewBox="0 0 2666.6667 2666.6667"
   height="2666.6667"
   width="2666.6667"
   xml:space="preserve"
   id="svg2"
   version="1.1"><metadata
     id="metadata8"><rdf:RDF><cc:Work
         rdf:about=""><dc:format>image/svg+xml</dc:format><dc:type
           rdf:resource="http://purl.org/dc/dcmitype/StillImage" /></cc:Work></rdf:RDF></metadata><defs
     id="defs6" /><g
     transform="matrix(1.3333333,0,0,-1.3333333,0,2666.6667)"
     id="g10"><g
       transform="scale(0.1)"
       id="g12"><g
         transform="scale(1.22699)"
         id="g14"><path
           id="path16"
           style="fill:none;fill-opacity:1;fill-rule:nonzero;stroke:none"
           d="M 16300,0 H 0 V 16300 H 16300 V 0" /></g><path
         id="path18"
         style="fill:#252323;fill-opacity:1;fill-rule:nonzero;stroke:none"
         d="m 4153.79,4847.7 -149.91,-108.6 c 0,0 -51.69,-103.4 -170.58,-341.1 -118.89,-237.8 -435.52,-816.8 -429.69,-1044.2 5.82,-227.4 393.51,-284.3 631.29,-211.9 237.78,72.3 325.65,527.2 465.22,646.1 139.56,118.9 160.24,134.4 206.76,227.4 46.53,93.1 -41.35,615.2 -46.52,630.7 -5.17,15.5 -186.38,228.3 -186.38,228.3 l -320.19,-26.7" /><path
         id="path20"
         style="fill:#252323;fill-opacity:1;fill-rule:nonzero;stroke:none"
         d="m 7104.19,4874.4 -97.91,-267.1 c 0,0 -79.26,-310.1 -79.26,-348.9 0,-38.8 124.06,-930.5 240.37,-1039 116.3,-108.6 713.34,-100.8 705.58,240.4 -7.75,341.1 -271.38,942.3 -279.13,971.2 -7.76,29 -7.76,137.5 -124.06,300.4 -116.3,162.8 -365.59,143 -365.59,143" /><path
         id="path22"
         style="fill:#454547;fill-opacity:1;fill-rule:nonzero;stroke:none"
         d="m 6050.85,2963.5 h -558.26 v 798.7 h 558.26 v -798.7" /><path
         id="path24"
         style="fill:#454547;fill-opacity:1;fill-rule:nonzero;stroke:none"
         d="M 5686.43,4622.8 5492.59,4516 v -420.4 h 558.26 V 4516 l -364.42,106.8" /><path
         id="path26"
         style="fill:#c37140;fill-opacity:1;fill-rule:nonzero;stroke:none"
         d="m 3972.87,8290.3 c -38.77,-15.5 -372.18,-186.1 -372.18,-186.1 0,0 -139.57,-387.7 -186.09,-705.6 -46.52,-317.9 62.03,-899.4 186.09,-1271.6 124.06,-372.1 403.19,-1387.9 403.19,-1387.9 0,0 237.78,-25.8 273.97,-113.7 36.18,-87.9 46.52,-155.1 46.52,-155.1 0,0 67.2,-67.2 124.06,-25.8 56.86,41.3 56.86,41.3 56.86,41.3 0,0 -56.65,532.5 -36.08,811.6 20.57,279.1 62.13,1008 0,1214.7 -62.13,206.8 -129.33,563.5 -129.33,563.5 l 273.96,165.4 -165.41,672 c 0,0 -429.69,206.7 -439.7,232.6 -10.01,25.8 -35.86,144.7 -35.86,144.7" /><path
         id="path28"
         style="fill:#c37140;fill-opacity:1;fill-rule:nonzero;stroke:none"
         d="m 6787.46,7522.7 224.85,-299.6 124.06,-119.1 c 0,0 -56.6,-449.7 -32.18,-938.2 24.43,-488.5 -53.11,-1231.2 -84.12,-1402.6 -31.02,-171.4 0,-233.4 0,-233.4 0,0 51.94,-31 84.12,0 32.18,31 94.21,178.3 148.49,193.8 54.27,15.5 217.1,7.8 217.1,7.8 0,0 162.83,480.7 232.61,690 69.78,209.4 372.18,1240.6 387.69,1550.8 15.51,310.1 0,550.5 0,550.5 0,0 -54.28,208.5 -100.8,379.9 -46.53,171.4 -885.09,271.4 -885.09,271.4 0,0 -161.66,-201.6 -161.66,-224.8 0,-23.3 -155.07,-426.5 -155.07,-426.5" /><path
         id="path30"
         style="fill:#454547;fill-opacity:1;fill-rule:nonzero;stroke:none"
         d="m 4856.79,7390.9 c 0,0 503.99,-341.2 628.05,-364.4 124.06,-23.3 651.31,0 651.31,0 l 716.47,409.4 c 0,0 -491.61,645.1 -638.94,738.1 -147.32,93.1 -775.36,224.9 -953.7,116.3 -178.33,-108.5 -364.42,-317.9 -364.42,-372.2 0,-54.2 -38.77,-527.2 -38.77,-527.2" /><path
         id="path32"
         style="fill:#252323;fill-opacity:1;fill-rule:nonzero;stroke:none"
         d="m 4629.35,9055.3 c 0,0 -307.57,0.1 -330.83,-49 -23.26,-49.2 -108.55,-219.7 -186.09,-281.8 -77.53,-62 -271.38,-240.3 -325.65,-310.1 -54.28,-69.8 -186.09,-310.2 -186.09,-310.2 0,0 441.96,-46.5 628.05,-271.4 186.09,-224.8 302.39,-736.6 302.39,-736.6 0,0 248.12,124.1 472.98,209.4 224.85,85.3 558.26,379.9 659.06,410.9 100.8,31.1 181.01,31.1 181.01,31.1 0,0 369.5,-201.6 594.36,-318 224.86,-116.3 589.28,-403.1 589.28,-403.1 0,0 147.32,519.5 426.45,690 279.14,170.6 535.01,186.1 535.01,186.1 0,0 -46.53,325.7 -302.4,581.6 -255.87,255.8 -659.06,571.1 -659.06,571.1 0,0 -1574,367.1 -1612.77,374.8 -38.77,7.8 -785.7,-374.8 -785.7,-374.8" /><path
         id="path34"
         style="fill:#565759;fill-opacity:1;fill-rule:nonzero;stroke:none"
         d="m 2136.78,14296.8 c -12.82,0 -25.12,-11.5 -36.6,-32.4 l -0.16,-0.1 h 0.05 c -44.05,-80.5 -75.71,-301.6 -75.71,-561.9 0,-328.3 50.33,-594.5 112.42,-594.5 h 441.72 v 1188.9 h -441.72" /><path
         id="path36"
         style="fill:#3e3d3f;fill-opacity:1;fill-rule:nonzero;stroke:none"
         d="m 2690.92,13702.4 c 0,-328.3 -50.33,-594.5 -112.42,-594.5 -62.09,0 -112.43,266.2 -112.43,594.5 0,328.3 50.34,594.4 112.43,594.4 62.09,0 112.42,-266.1 112.42,-594.4" /><path
         id="path38"
         style="fill:#c37140;fill-opacity:1;fill-rule:nonzero;stroke:none"
         d="m 5027.37,12379.1 -213.66,-46.5 c 0,0 -161.96,24.1 -403.19,-31 -241.22,-55.2 -492.79,-234.4 -492.79,-234.4 0,0 -172.31,44.8 -382.52,0 -210.21,-44.8 -492.78,-168.8 -492.78,-168.8 0,0 -10.35,306.7 -34.47,480.7 -24.12,174 161.97,849.5 161.97,849.5 l -437.65,20.6 c 0,0 -237.78,-606.5 -368.74,-858 -130.94,-251.6 -130.94,-723.7 -130.94,-834 0,-110.3 -27.57,-165.4 0,-193 27.57,-27.6 241.22,-130.9 651.31,-189.5 410.08,-58.6 678.87,-82.7 885.64,-58.6 206.76,24.1 523.8,144.7 523.8,144.7 l 237.78,-468.6 h 354.95 c 0,0 409.91,808.2 403.48,1033.8 -6.44,225.6 -262.19,553.1 -262.19,553.1" /><path
         id="path40"
         style="fill:#a45330;fill-opacity:1;fill-rule:nonzero;stroke:none"
         d="m 4293.35,11260.8 -196.42,310.2 113.31,-340 z" /><path
         id="path42"
         style="fill:#a45330;fill-opacity:1;fill-rule:nonzero;stroke:none"
         d="m 3042.43,11898.4 c 0,0 -82.71,-72.4 -210.22,-165.5 -127.5,-93 -255.01,-117.1 -255.01,-117.1 0,0 182.65,110.3 296.37,234.3 113.72,124.1 163.51,170.6 163.51,170.6 l 5.35,-122.3" /><path
         id="path44"
         style="fill:#adadab;fill-opacity:1;fill-rule:nonzero;stroke:none"
         d="m 3544.2,13805.8 h -913.09 c -25.49,0 -46.15,-20.7 -46.15,-46.2 v -166.1 c 0,-25.5 20.66,-46.2 46.15,-46.2 h 913.09 c 25.49,0 46.15,20.7 46.15,46.2 v 166.1 c 0,25.5 -20.66,46.2 -46.15,46.2" /><path
         id="path46"
         style="fill:#b55f39;fill-opacity:1;fill-rule:nonzero;stroke:none"
         d="m 2851.17,13841.9 c 0,0 33.6,-144.7 59.45,-162.8 25.84,-18.1 80.11,0 80.11,0 0,0 36.76,-75.6 79.12,-81.7 42.36,-6.1 19.1,-3.6 42.36,-6.1 23.26,-2.6 255.87,-20.7 266.21,-13 10.33,7.8 38.77,7.8 49.1,46.6 10.34,38.7 80.13,165.4 80.13,165.4 0,0 -43.94,121.4 -72.37,149.9 -28.43,28.4 -108.55,0 -108.55,0 0,0 -43.94,36.2 -105.97,33.6 -62.03,-2.6 -87.71,-44 -87.71,-44 0,0 -41.52,18.1 -80.29,20.7 -38.77,2.6 -69.78,-58.3 -69.78,-58.3 0,0 -105.97,66.1 -131.81,-50.3" /><path
         id="path48"
         style="fill:#c37140;fill-opacity:1;fill-rule:nonzero;stroke:none"
         d="m 2732.28,13249.2 c 0,0 10.34,52.6 0,117.2 -10.34,64.6 56.86,178.3 56.86,178.3 0,0 74.95,23.3 147.32,23.3 72.37,0 152.49,49.1 266.21,51.7 113.72,2.6 167.99,0 167.99,0 0,0 -5.16,93 0,103.4 5.17,10.3 -90.45,108.5 -85.28,149.9 5.16,41.3 72.36,7.7 131.81,-23.3 59.44,-31 77.53,-36.2 90.46,-59.4 12.92,-23.3 54.27,-245.6 0,-320.5 -54.28,-75 -337.72,-241.2 -337.72,-241.2 0,0 -287.75,-79.3 -308.43,-74.1 -20.67,5.1 -129.22,94.7 -129.22,94.7" /><path
         id="path50"
         style="fill:#565759;fill-opacity:1;fill-rule:nonzero;stroke:none"
         d="m 3647.33,14296.8 c -12.82,0 -25.12,-11.5 -36.6,-32.4 l -0.16,-0.1 h 0.06 c -44.07,-80.5 -75.72,-301.6 -75.72,-561.9 0,-328.3 50.33,-594.5 112.42,-594.5 h 441.71 v 1188.9 h -441.71" /><path
         id="path52"
         style="fill:#3e3d3f;fill-opacity:1;fill-rule:nonzero;stroke:none"
         d="m 4201.47,13702.4 c 0,-328.3 -50.33,-594.5 -112.42,-594.5 -62.1,0 -112.43,266.2 -112.43,594.5 0,328.3 50.33,594.4 112.43,594.4 62.09,0 112.42,-266.1 112.42,-594.4" /><path
         id="path54"
         style="fill:#565759;fill-opacity:1;fill-rule:nonzero;stroke:none"
         d="m 9469.91,14296.8 c 12.82,0 25.13,-11.5 36.61,-32.4 l 0.15,-0.1 h -0.05 c 44.06,-80.5 75.72,-301.6 75.72,-561.9 0,-328.3 -50.34,-594.5 -112.43,-594.5 H 9028.2 v 1188.9 h 441.71" /><path
         id="path56"
         style="fill:#3e3d3f;fill-opacity:1;fill-rule:nonzero;stroke:none"
         d="m 8915.77,13702.4 c 0,-328.3 50.33,-594.5 112.43,-594.5 62.09,0 112.43,266.2 112.43,594.5 0,328.3 -50.34,594.4 -112.43,594.4 -62.1,0 -112.43,-266.1 -112.43,-594.4" /><path
         id="path58"
         style="fill:#c37140;fill-opacity:1;fill-rule:nonzero;stroke:none"
         d="m 6645.31,12379.1 147.67,-46.5 c 0,0 161.97,24.1 403.19,-31 241.23,-55.2 492.79,-234.4 492.79,-234.4 0,0 172.31,44.8 382.52,0 210.21,-44.8 492.79,-168.8 492.79,-168.8 0,0 10.34,306.7 34.46,480.7 24.12,174 -161.97,849.5 -161.97,849.5 l 437.66,20.6 c 0,0 237.78,-606.5 368.73,-858 130.95,-251.6 130.95,-723.7 130.95,-834 0,-110.3 27.57,-165.4 0,-193 -27.57,-27.6 -241.23,-130.9 -651.31,-189.5 -410.08,-58.6 -678.88,-82.7 -885.65,-58.6 -206.76,24.1 -523.8,144.7 -523.8,144.7 l -237.78,-468.6 h -354.94 c 0,0 -409.91,808.2 -403.48,1033.8 6.43,225.6 328.17,553.1 328.17,553.1" /><path
         id="path60"
         style="fill:#a45330;fill-opacity:1;fill-rule:nonzero;stroke:none"
         d="m 7313.34,11260.8 196.43,310.2 -113.31,-340 z" /><path
         id="path62"
         style="fill:#a45330;fill-opacity:1;fill-rule:nonzero;stroke:none"
         d="m 8564.27,11898.4 c 0,0 82.71,-72.4 210.21,-165.5 127.51,-93 255.01,-117.1 255.01,-117.1 0,0 -182.64,110.3 -296.36,234.3 -113.72,124.1 -163.52,170.6 -163.52,170.6 l -5.34,-122.3" /><path
         id="path64"
         style="fill:#adadab;fill-opacity:1;fill-rule:nonzero;stroke:none"
         d="m 8062.49,13805.8 h 913.1 c 25.48,0 46.15,-20.7 46.15,-46.2 v -166.1 c 0,-25.5 -20.67,-46.2 -46.15,-46.2 h -913.1 c -25.49,0 -46.15,20.7 -46.15,46.2 v 166.1 c 0,25.5 20.66,46.2 46.15,46.2" /><path
         id="path66"
         style="fill:#b55f39;fill-opacity:1;fill-rule:nonzero;stroke:none"
         d="m 8755.53,13841.9 c 0,0 -33.6,-144.7 -59.45,-162.8 -25.85,-18.1 -80.12,0 -80.12,0 0,0 -36.75,-75.6 -79.11,-81.7 -42.36,-6.1 -19.1,-3.6 -42.36,-6.1 -23.26,-2.6 -255.88,-20.7 -266.21,-13 -10.34,7.8 -38.77,7.8 -49.11,46.6 -10.34,38.7 -80.12,165.4 -80.12,165.4 0,0 43.93,121.4 72.37,149.9 28.42,28.4 108.55,0 108.55,0 0,0 43.94,36.2 105.96,33.6 62.03,-2.6 87.71,-44 87.71,-44 0,0 41.52,18.1 80.29,20.7 38.77,2.6 69.79,-58.3 69.79,-58.3 0,0 105.96,66.1 131.81,-50.3" /><path
         id="path68"
         style="fill:#c37140;fill-opacity:1;fill-rule:nonzero;stroke:none"
         d="m 8874.42,13249.2 c 0,0 -10.34,52.6 0,117.2 10.34,64.6 -56.86,178.3 -56.86,178.3 0,0 -74.96,23.3 -147.33,23.3 -72.36,0 -152.48,49.1 -266.2,51.7 -113.72,2.6 -168,0 -168,0 0,0 5.17,93 0,103.4 -5.17,10.3 90.46,108.5 85.29,149.9 -5.17,41.3 -72.36,7.7 -131.81,-23.3 -59.45,-31 -77.54,-36.2 -90.46,-59.4 -12.93,-23.3 -54.28,-245.6 0,-320.5 54.28,-75 337.71,-241.2 337.71,-241.2 0,0 287.75,-79.3 308.43,-74.1 20.67,5.1 129.23,94.7 129.23,94.7" /><path
         id="path70"
         style="fill:#565759;fill-opacity:1;fill-rule:nonzero;stroke:none"
         d="m 7959.36,14296.8 c 12.82,0 25.13,-11.5 36.61,-32.4 l 0.15,-0.1 h -0.05 c 44.06,-80.5 75.72,-301.6 75.72,-561.9 0,-328.3 -50.33,-594.5 -112.43,-594.5 h -441.71 v 1188.9 h 441.71" /><path
         id="path72"
         style="fill:#3e3d3f;fill-opacity:1;fill-rule:nonzero;stroke:none"
         d="m 7405.22,13702.4 c 0,-328.3 50.34,-594.5 112.43,-594.5 62.09,0 112.43,266.2 112.43,594.5 0,328.3 -50.34,594.4 -112.43,594.4 -62.09,0 -112.43,-266.1 -112.43,-594.4" /><path
         id="path74"
         style="fill:#e9eef1;fill-opacity:1;fill-rule:nonzero;stroke:none"
         d="m 5274.75,12286 -74.21,93.1 h -173.17 c 0,0 67.2,-408.4 -51.69,-863.3 -118.89,-454.8 -444.55,-723.6 -444.55,-723.6 0,0 98.22,-320.5 124.06,-723.7 25.85,-403.2 36.19,-578.9 10.34,-708.2 -25.85,-129.2 -36.18,-305 -36.18,-305 0,0 279.13,-72.3 571.19,-41.3 292.05,31 426.45,-10.3 793.45,20.7 367.02,31 1033.83,20.6 1033.83,20.6 0,0 0,770.2 0,992.5 0,222.3 32.74,391.1 32.74,391.1 0,0 46.25,413 41.08,428.5 -5.17,15.5 -275.41,379.7 -373.63,782.8 -98.21,403.2 -82.7,728.9 -82.7,728.9 l -170.58,36.2 -1199.98,-129.3" /><path
         id="path76"
         style="fill:#c37140;fill-opacity:1;fill-rule:nonzero;stroke:none"
         d="m 5464.16,13113.1 c 0,0 2.58,-434.2 -12.92,-516.9 -15.51,-82.7 -160.24,-199 -175.75,-204.2 -15.51,-5.1 -74.95,-12.9 -74.95,-12.9 0,0 83.68,-780.5 617.71,-780.5 656.48,0 656.48,816.7 656.48,816.7 l -67.21,26.7 c 0,0 -67.19,82.9 -80.98,198.6 -13.78,115.8 -9.47,444.1 -9.47,444.1 l -852.91,28.4" /><path
         id="path78"
         style="fill:#100f0d;fill-opacity:1;fill-rule:nonzero;stroke:none"
         d="m 6058.61,7848.3 c -38.77,31.1 -54.28,124.1 -54.28,124.1 0,0 0,0 -160.15,-7.7 -160.14,-7.8 -429.13,54.2 -429.13,54.2 0,0 116.31,-116.3 116.31,-170.6 0,-35.7 -628.32,-326.8 -1062.15,-528.2 40,-127.5 61.92,-223.9 61.92,-223.9 0,0 248.12,124.1 472.98,209.4 224.85,85.3 558.26,379.9 659.06,410.9 100.8,31.1 181.01,31.1 181.01,31.1 0,0 369.5,-201.6 594.36,-318 224.86,-116.3 589.28,-403.1 589.28,-403.1 0,0 25.85,91.1 76.37,209.5 -267.27,154.6 -1013.77,586.9 -1045.58,612.3" /><path
         id="path80"
         style="fill:#ffffff;fill-opacity:1;fill-rule:nonzero;stroke:none"
         d="m 3930.07,5005 c 44.2,-158.1 73.81,-265.9 73.81,-265.9 0,0 237.79,-25.8 273.97,-113.7 36.18,-87.9 46.52,-155.1 46.52,-155.1 0,0 67.2,-67.2 124.06,-25.8 56.86,41.3 56.86,41.3 56.86,41.3 0,0 -35.35,332.3 -40.06,609.5 -185.86,-44.6 -392.94,-73.7 -535.16,-90.3" /><path
         id="path82"
         style="fill:#ffffff;fill-opacity:1;fill-rule:nonzero;stroke:none"
         d="m 7052.64,5012.6 c -12.31,-114.2 -24.15,-202.9 -32.57,-249.4 -31.02,-171.4 0,-233.4 0,-233.4 0,0 51.94,-31 84.12,0 32.18,31 94.21,178.3 148.49,193.8 54.27,15.5 217.1,7.8 217.1,7.8 0,0 34.27,101.1 78.1,230.8 -185.89,-8.4 -360.38,18.5 -495.24,50.4" /><path
         id="path84"
         style="fill:#797a7b;fill-opacity:1;fill-rule:nonzero;stroke:none"
         d="m 3600.69,3769.9 -139.57,-46.5 69.79,-248.1 2326.1,147.3 2372.63,-193.9 93.05,217.1 -2430.79,370.5 -2291.21,-246.4" /><path
         id="path86"
         style="fill:#adadab;fill-opacity:1;fill-rule:nonzero;stroke:none"
         d="m 3461.12,4016.3 v -292.9 l 2372.63,146.5 2488.94,-224.1 -38.77,347.6 -2426.91,195.2 -2395.89,-172.3" /><path
         id="path88"
         style="fill:#797a7b;fill-opacity:1;fill-rule:nonzero;stroke:none"
         d="m 5415.05,7414.1 77.54,-191 V 4516 h 558.26 v 2626.8 l 100.81,271.3 h -736.61" /><path
         id="path90"
         style="fill:#adadab;fill-opacity:1;fill-rule:nonzero;stroke:none"
         d="m 6099.81,7274.6 51.85,139.5 h -736.61 l 56.64,-139.5 h 628.12" /><path
         id="path92"
         style="fill:#adadab;fill-opacity:1;fill-rule:nonzero;stroke:none"
         d="m 5492.59,5468 v -952 h 558.26 v 952 h -558.26" /><path
         id="path94"
         style="fill:#a45330;fill-opacity:1;fill-rule:nonzero;stroke:none"
         d="m 6317.07,13084.7 c 0,0 -3.95,-200.4 -25.93,-228.4 -21.97,-28 -125.7,-189.9 -132.02,-207.1 -6.32,-17.1 -94.55,-207.2 -94.55,-207.2 l 0.68,159.2 c 0,0 -162.49,-27.4 -231.17,-24 -68.67,3.4 -162.04,75.7 -171.34,91.3 -9.3,15.7 -161.91,290.5 -161.91,290.5 l 443.12,95.5 368.71,267.3 4.41,-237.1" /><path
         id="path96"
         style="fill:#2f1d16;fill-opacity:1;fill-rule:nonzero;stroke:none"
         d="m 5341.48,13596.5 c 13.4,24.9 -46.56,91.6 -61.1,160.9 -14.53,69.2 3.94,345.9 1.61,378.1 -2.34,32.1 53.78,130.7 64.36,160.4 10.58,29.6 77.81,147.9 119.96,179.9 42.15,31.9 165.8,51.1 217.77,68.2 51.97,17.1 151.01,58.7 242.4,48.4 91.4,-10.2 81.43,-32.4 145.66,-37.6 64.23,-5.3 162.86,-60.1 197.31,-94.8 34.45,-34.7 155.2,-116.8 194.52,-168.9 39.33,-52 55.07,-294.3 46.3,-385.7 -8.78,-91.4 -43.96,-227.2 -43.96,-227.2 l -20.02,-60.9 c 0,0 6.88,-124.4 -0.54,-126.8 -7.42,-2.5 115.91,-59.8 -175.75,-66 -291.65,-6.2 -627.72,2.6 -627.72,2.6 0,0 -219.99,-8.9 -269.2,43.2 -49.21,52.1 -31.6,126.2 -31.6,126.2" /><path
         id="path98"
         style="fill:#c37140;fill-opacity:1;fill-rule:nonzero;stroke:none"
         d="m 5354.88,13621.4 c 0,0 -18.21,4.8 -50.37,-2.5 -32.16,-7.3 -5.71,-180.4 16.34,-225 22.06,-44.6 53.88,-116.4 58.72,-141.1 4.84,-24.7 51.69,-49.7 51.69,-49.7 0,0 11.79,-133.5 31.34,-185.4 19.55,-52 152.45,-183.6 213.86,-272.8 61.41,-89.2 219.41,-127 330.78,-90.4 111.37,36.6 178.62,159.9 200.98,187 22.36,27.1 121.75,152.7 139.24,199.6 17.5,46.9 27.95,180.3 27.95,180.3 0,0 42.06,9.7 62.03,56.6 19.97,46.8 37.58,120.9 50.03,143.1 12.45,22.2 32.8,158 13.13,182.8 -19.67,24.8 -54.31,13.4 -54.31,13.4 0,0 -10.05,-37.8 -15.02,-45.2 -4.98,-7.4 -34.67,-17.2 -34.67,-17.2 l -4.43,121.1 c 0,0 -27.07,27.3 -39.29,59.5 -12.23,32.2 -14.29,128.6 -14.18,153.3 0.1,24.7 2.73,61.8 -14.32,121.2 -17.05,59.4 -88.52,106.6 -125.55,114.2 -37.04,7.6 -222.37,15.8 -252.01,18.4 -29.65,2.6 -44.53,-9.7 -123.65,-19.3 -79.13,-9.5 -323.86,-25.8 -351.11,-40.5 -27.25,-14.7 -52.33,-101.1 -57.4,-130.8 -5.07,-29.6 14.11,-170.5 11.52,-197.7 -2.59,-27.2 -22.48,-56.8 -20.09,-76.5 2.38,-19.8 1.86,-143.4 1.86,-143.4 l -22.27,-7.3 -30.8,94.3" /><g
         transform="scale(1.04518)"
         id="g100"><path
           id="path102"
           style="fill:#565759;fill-opacity:1;fill-rule:nonzero;stroke:none"
           d="m 12635.1,16300 c -12.2,0 -24.1,-11 -35,-31 l -0.2,-0.1 0.1,-0.1 c -42.2,-77 -72.5,-288.5 -72.5,-537.6 0,-314.1 48.2,-568.7 107.6,-568.7 h 422.6 V 16300 h -422.6" /></g><g
         transform="scale(1.04518)"
         id="g104"><path
           id="path106"
           style="fill:#3e3d3f;fill-opacity:1;fill-rule:nonzero;stroke:none"
           d="m 13165.3,15731.2 c 0,-314.1 -48.2,-568.7 -107.6,-568.7 -59.4,0 -107.5,254.6 -107.5,568.7 0,314.2 48.1,568.8 107.5,568.8 59.4,0 107.6,-254.6 107.6,-568.8" /></g><g
         transform="scale(1.01506)"
         id="g108"><path
           id="path110"
           style="fill:#adadab;fill-opacity:1;fill-rule:nonzero;stroke:none"
           d="m 14396.6,16300 h -899.5 c -25.1,0 -45.4,-20.4 -45.4,-45.5 v -163.7 c 0,-25.1 20.3,-45.4 45.4,-45.4 h 899.5 c 25.2,0 45.5,20.3 45.5,45.4 v 163.7 c 0,25.1 -20.3,45.5 -45.5,45.5" /></g><g
         transform="scale(1.02552)"
         id="g112"><path
           id="path114"
           style="fill:#b55f39;fill-opacity:1;fill-rule:nonzero;stroke:none"
           d="m 13574,16168.9 c 0,0 32.7,-141.1 57.9,-158.7 25.3,-17.7 78.1,0 78.1,0 0,0 35.9,-73.8 77.1,-79.7 41.4,-6 18.7,-3.5 41.4,-6 22.7,-2.5 249.5,-20.2 259.6,-12.6 10,7.5 37.8,7.5 47.8,45.3 10.2,37.8 78.1,161.3 78.1,161.3 0,0 -42.8,118.5 -70.5,146.2 -27.7,27.7 -105.9,0 -105.9,0 0,0 -42.8,35.3 -103.2,32.8 -60.6,-2.5 -85.6,-42.9 -85.6,-42.9 0,0 -40.5,17.7 -78.2,20.2 -37.9,2.5 -68.1,-56.8 -68.1,-56.8 0,0 -103.4,64.4 -128.5,-49.1" /></g><g
         transform="scale(1.04518)"
         id="g116"><path
           id="path118"
           style="fill:#565759;fill-opacity:1;fill-rule:nonzero;stroke:none"
           d="m 14080.3,16300 c -12.2,0 -24,-11 -35,-31 l -0.1,-0.1 v -0.1 c -42.1,-77 -72.4,-288.5 -72.4,-537.6 0,-314.1 48.1,-568.7 107.5,-568.7 h 422.6 V 16300 h -422.6" /></g><g
         transform="scale(1.04518)"
         id="g120"><path
           id="path122"
           style="fill:#3e3d3f;fill-opacity:1;fill-rule:nonzero;stroke:none"
           d="m 14610.6,15731.2 c 0,-314.1 -48.3,-568.7 -107.7,-568.7 -59.4,0 -107.5,254.6 -107.5,568.7 0,314.2 48.1,568.8 107.5,568.8 59.4,0 107.7,-254.6 107.7,-568.8" /></g><g
         transform="scale(1.02172)"
         id="g124"><path
           id="path126"
           style="fill:#c37140;fill-opacity:1;fill-rule:nonzero;stroke:none"
           d="m 13544.5,15619.7 c 0,0 3.9,104.4 -6.3,167.6 -10.1,63.3 25.6,151 25.6,151 0,0 73.4,22.7 144.2,22.7 70.8,0 149.2,48.1 260.6,50.6 111.3,2.5 164.4,0 164.4,0 0,0 -5.1,91.1 0,101.2 5,10.1 -88.6,106.2 -83.5,146.7 5,40.5 70.8,7.6 129,-22.7 58.1,-30.4 75.9,-35.5 88.5,-58.2 12.7,-22.8 53.1,-240.3 0,-313.7 -53.1,-73.4 -330.5,-236.1 -330.5,-236.1 0,0 -281.6,-77.6 -301.9,-72.5 -20.2,5 -90.1,63.4 -90.1,63.4" /></g><path
         id="path128"
         style="fill:#c37140;fill-opacity:1;fill-rule:nonzero;stroke:none"
         d="m 13851.3,15958.9 c 0,0 -58.4,-338.8 -190.9,-674.8 -132.5,-336 -158.3,-516.9 -153.2,-992.4 5.2,-475.6 72.4,-672 41.4,-1075.2 -31,-403.2 77.5,-780.6 196.4,-1101 118.9,-320.5 243,-516.9 243,-516.9 0,0 122,-661.7 194.1,-806.4 72.2,-144.8 682.3,-108.6 682.3,-108.6 l 74.2,553.1 14.8,579 -184.9,626.3 c 0,0 -175.7,174.9 -320.5,236.9 0,0 -56.8,489.1 -134.4,743.4 -77.5,254.2 -232.6,481.7 -232.6,481.7 0,0 98.2,465.2 87.9,780.5 -10.3,315.3 -30.5,1011.4 82.9,1283.7 113.5,272.2 -400.5,-9.3 -400.5,-9.3" /><path
         id="path130"
         style="fill:#a45330;fill-opacity:1;fill-rule:nonzero;stroke:none"
         d="m 14156.8,12355.8 c 0,0 136.4,-460 151.9,-491 15.5,-31 276.7,-479.9 276.7,-479.9 l 41.4,130.9 -235,387.7 -235,452.3" /><g
         transform="scale(1.09602)"
         id="g132"><path
           id="path134"
           style="fill:#565759;fill-opacity:1;fill-rule:nonzero;stroke:none"
           d="m 16197.4,15544 c 11.7,0 22.9,-10.5 33.4,-29.6 l 0.1,-0.1 v -0.1 c 40.2,-73.4 69.1,-275.1 69.1,-512.6 0,-299.5 -45.9,-542.4 -102.6,-542.4 h -403 V 15544 h 403" /></g><g
         transform="scale(1.06892)"
         id="g136"><path
           id="path138"
           style="fill:#3e3d3f;fill-opacity:1;fill-rule:nonzero;stroke:none"
           d="m 16089.6,15381.9 c 0,-307.1 47.2,-556.1 105.2,-556.1 58.1,0 105.2,249 105.2,556.1 0,307.1 -47.1,556.1 -105.2,556.1 -58,0 -105.2,-249 -105.2,-556.1" /></g><g
         transform="scale(1.06163)"
         id="g140"><path
           id="path142"
           style="fill:#adadab;fill-opacity:1;fill-rule:nonzero;stroke:none"
           d="m 15396.5,15585 h 860.1 c 23.9,0 43.4,-19.5 43.4,-43.5 V 15385 c 0,-24 -19.5,-43.5 -43.4,-43.5 h -860.1 c -24,0 -43.5,19.5 -43.5,43.5 v 156.5 c 0,24 19.5,43.5 43.5,43.5" /></g><g
         transform="scale(1.04529)"
         id="g144"><path
           id="path146"
           style="fill:#b55f39;fill-opacity:1;fill-rule:nonzero;stroke:none"
           d="m 16300,15863.1 c 0,0 -32.1,-138.5 -56.8,-155.8 -24.8,-17.3 -76.8,0 -76.8,0 0,0 -35.1,-72.3 -75.6,-78.2 -40.5,-5.9 -18.3,-3.4 -40.5,-5.9 -22.3,-2.4 -244.8,-19.7 -254.8,-12.3 -9.8,7.4 -37,7.4 -46.9,44.5 -9.9,37.1 -76.7,158.2 -76.7,158.2 0,0 42.1,116.2 69.3,143.4 27.2,27.2 103.8,0 103.8,0 0,0 42.1,34.7 101.4,32.2 59.3,-2.5 83.9,-42.1 83.9,-42.1 0,0 39.7,17.3 76.8,19.8 37.2,2.5 66.8,-55.7 66.8,-55.7 0,0 101.4,63.2 126.1,-48.1" /></g><g
         transform="scale(1.04518)"
         id="g148"><path
           id="path150"
           style="fill:#565759;fill-opacity:1;fill-rule:nonzero;stroke:none"
           d="m 15540,16300 c 12.3,0 24.1,-11 35,-31 l 0.2,-0.1 -0.1,-0.1 c 42.2,-77 72.5,-288.5 72.5,-537.6 0,-314.1 -48.2,-568.7 -107.6,-568.7 h -422.6 V 16300 h 422.6" /></g><g
         transform="scale(1.04518)"
         id="g152"><path
           id="path154"
           style="fill:#3e3d3f;fill-opacity:1;fill-rule:nonzero;stroke:none"
           d="m 15009.8,15731.2 c 0,-314.1 48.1,-568.7 107.6,-568.7 59.4,0 107.6,254.6 107.6,568.7 0,314.2 -48.2,568.8 -107.6,568.8 -59.5,0 -107.6,-254.6 -107.6,-568.8" /></g><g
         transform="scale(1.05134)"
         id="g156"><path
           id="path158"
           style="fill:#c37140;fill-opacity:1;fill-rule:nonzero;stroke:none"
           d="m 16284.1,15179.6 c 0,0 -3.8,101.4 6,162.9 9.9,61.5 -24.8,146.7 -24.8,146.7 0,0 -71.3,22.1 -140.1,22.1 -68.9,0 -145.1,46.7 -253.2,49.2 -108.2,2.4 -159.8,0 -159.8,0 0,0 4.9,88.5 0,98.3 -5,9.9 86.1,103.3 81.1,142.6 -4.9,39.3 -68.9,7.4 -125.4,-22.1 -56.5,-29.5 -73.8,-34.4 -86,-56.6 -12.3,-22.1 -51.7,-233.5 0,-304.8 51.6,-71.3 321.2,-229.5 321.2,-229.5 0,0 273.7,-75.3 293.4,-70.4 19.6,4.9 87.6,61.6 87.6,61.6" /></g><g
         transform="scale(1.07174)"
         id="g160"><path
           id="path162"
           style="fill:#c37140;fill-opacity:1;fill-rule:nonzero;stroke:none"
           d="m 15974.2,14890.7 c 0,0 54.5,-316.1 178.1,-629.6 123.6,-313.5 147.7,-482.3 142.8,-926 -4.7,-443.8 -67.4,-627 -38.5,-1003.2 28.9,-376.3 -72.4,-728.3 -183.2,-1027.4 -111,-299 -226.8,-482.3 -226.8,-482.3 0,0 -148,-547.2 -215.3,-682.2 -67.3,-135.1 -602.4,-171.48 -602.4,-171.48 l -69.2,516.08 -13.9,540.2 172.6,584.4 c 0,0 163.9,163.2 299,221 0,0 53,456.4 125.4,693.7 72.3,237.2 217.1,449.4 217.1,449.4 0,0 -91.8,434.1 -82.1,728.3 9.6,294.2 28.5,943.7 -77.4,1197.8 -105.8,254 373.8,-8.7 373.8,-8.7" /></g><g
         transform="scale(1.03079)"
         id="g164"><path
           id="path166"
           style="fill:#a45330;fill-opacity:1;fill-rule:nonzero;stroke:none"
           d="m 16300,11986.8 c 0,0 -132.2,-446.3 -147.3,-476.4 -15,-30.1 -268.4,-465.5 -268.4,-465.5 l -40.2,127 227.9,376.1 228,438.8" /></g><path
         id="path168"
         style="fill:#252323;fill-opacity:1;fill-rule:nonzero;stroke:none"
         d="m 13806.7,4847.7 -149.9,-108.6 c 0,0 -51.7,-103.4 -170.5,-341.1 -118.9,-237.8 -435.6,-816.8 -429.7,-1044.2 5.8,-227.4 393.5,-284.3 631.3,-211.9 237.7,72.3 325.6,527.2 465.2,646.1 139.5,118.9 160.2,134.4 206.7,227.4 46.6,93.1 -41.3,615.2 -46.5,630.7 -5.2,15.5 -186.4,228.3 -186.4,228.3 l -320.2,-26.7" /><g
         transform="scale(1.07569)"
         id="g170"><path
           id="path172"
           style="fill:#252323;fill-opacity:1;fill-rule:nonzero;stroke:none"
           d="m 15578,4531.43 -91,-248.31 c 0,0 -73.6,-288.28 -73.6,-324.35 0,-36.07 115.3,-865.02 223.4,-965.89 108.2,-100.96 663.2,-93.71 656,223.48 -7.2,317.1 -252.3,876 -259.5,902.87 -7.3,26.96 -7.3,127.82 -115.4,279.26 -108.1,151.35 -339.9,132.94 -339.9,132.94" /></g><path
         id="path174"
         style="fill:#454547;fill-opacity:1;fill-rule:nonzero;stroke:none"
         d="m 15703.8,2963.5 h -558.3 v 798.7 h 558.3 v -798.7" /><path
         id="path176"
         style="fill:#454547;fill-opacity:1;fill-rule:nonzero;stroke:none"
         d="M 15339.4,4622.8 15145.5,4516 v -420.4 h 558.3 V 4516 l -364.4,106.8" /><path
         id="path178"
         style="fill:#c37140;fill-opacity:1;fill-rule:nonzero;stroke:none"
         d="m 13625.8,8290.3 c -38.7,-15.5 -372.1,-186.1 -372.1,-186.1 0,0 -139.6,-387.7 -186.1,-705.6 -46.6,-317.9 62,-899.4 186.1,-1271.6 124,-372.1 403.1,-1387.9 403.1,-1387.9 0,0 237.8,-25.8 274,-113.7 36.2,-87.9 46.5,-155.1 46.5,-155.1 0,0 67.2,-67.2 124.1,-25.8 56.8,41.3 56.8,41.3 56.8,41.3 0,0 -56.6,532.5 -36,811.6 20.5,279.1 62.1,1008 0,1214.7 -62.2,206.8 -129.4,563.5 -129.4,563.5 l 274,165.4 -165.4,672 c 0,0 -429.7,206.7 -439.7,232.6 -10,25.8 -35.9,144.7 -35.9,144.7" /><g
         transform="scale(1.08948)"
         id="g180"><path
           id="path182"
           style="fill:#c37140;fill-opacity:1;fill-rule:nonzero;stroke:none"
           d="m 15090.2,6904.86 206.4,-274.99 113.8,-109.32 c 0,0 -52,-412.76 -29.6,-861.14 22.5,-448.38 -48.7,-1130.09 -77.1,-1287.41 -28.5,-157.32 0,-214.23 0,-214.23 0,0 47.7,-28.45 77.1,0 29.6,28.45 86.6,163.66 136.4,177.88 49.8,14.23 199.2,7.16 199.2,7.16 0,0 149.5,441.22 213.6,633.33 64,192.21 341.5,1138.71 355.8,1423.43 14.2,284.64 0,505.29 0,505.29 0,0 -49.8,191.38 -92.5,348.7 -42.7,157.33 -812.5,249.11 -812.5,249.11 0,0 -148.3,-185.04 -148.3,-206.34 0,-21.38 -142.3,-391.47 -142.3,-391.47" /></g><g
         transform="scale(1.01261)"
         id="g184"><path
           id="path186"
           style="fill:#454547;fill-opacity:1;fill-rule:nonzero;stroke:none"
           d="m 14329,7298.83 c 0,0 497.7,-336.94 620.2,-359.86 122.6,-23.01 643.2,0 643.2,0 l 707.6,404.3 c 0,0 -485.5,637.07 -631,728.91 -145.5,91.94 -765.7,222.1 -941.9,114.85 -176,-107.15 -359.8,-313.94 -359.8,-367.56 0,-53.52 -38.3,-520.64 -38.3,-520.64" /></g><g
         transform="scale(1.08234)"
         id="g188"><path
           id="path190"
           style="fill:#252323;fill-opacity:1;fill-rule:nonzero;stroke:none"
           d="m 13195.7,8366.38 c 0,0 -284.2,0.1 -305.6,-45.27 -21.5,-45.45 -100.3,-202.98 -172,-260.36 -71.6,-57.28 -250.7,-222.02 -300.9,-286.51 -50.1,-64.49 -171.8,-286.6 -171.8,-286.6 0,0 408.3,-42.96 580.2,-250.75 171.9,-207.7 279.4,-680.56 279.4,-680.56 0,0 229.2,114.66 437,193.47 207.7,78.81 515.7,351 608.9,379.64 93.1,28.73 167.2,28.73 167.2,28.73 0,0 341.4,-186.26 549.2,-293.8 207.8,-107.46 544.4,-372.44 544.4,-372.44 0,0 136.1,479.98 394,637.51 258,157.62 494.3,171.94 494.3,171.94 0,0 -43,300.92 -279.4,537.35 -236.3,236.34 -608.9,527.65 -608.9,527.65 0,0 -1454.2,339.18 -1490.1,346.29 -35.8,7.21 -725.9,-346.29 -725.9,-346.29" /></g><g
         transform="scale(1.02804)"
         id="g192"><path
           id="path194"
           style="fill:#100f0d;fill-opacity:1;fill-rule:nonzero;stroke:none"
           d="m 15283,7634.21 c -37.7,30.25 -52.8,120.72 -52.8,120.72 0,0 0,0 -155.8,-7.49 -155.8,-7.59 -417.4,52.72 -417.4,52.72 0,0 113.1,-113.13 113.1,-165.95 0,-34.72 -611.2,-317.88 -1033.1,-513.79 38.9,-124.02 60.2,-217.79 60.2,-217.79 0,0 241.3,120.71 460.1,203.69 218.6,82.97 543,369.53 641,399.69 98.1,30.25 176.1,30.25 176.1,30.25 0,0 359.4,-196.1 578.2,-309.32 218.7,-113.13 573.2,-392.11 573.2,-392.11 0,0 25.1,88.62 74.2,203.79 -259.9,150.38 -986.1,570.89 -1017,595.59" /></g><path
         id="path196"
         style="fill:#ffffff;fill-opacity:1;fill-rule:nonzero;stroke:none"
         d="m 13583,5005 c 44.2,-158.1 73.8,-265.9 73.8,-265.9 0,0 237.8,-25.8 274,-113.7 36.2,-87.9 46.5,-155.1 46.5,-155.1 0,0 67.2,-67.2 124.1,-25.8 56.8,41.3 56.8,41.3 56.8,41.3 0,0 -35.3,332.3 -40,609.5 -185.9,-44.6 -392.9,-73.7 -535.2,-90.3" /><g
         transform="scale(1.05526)"
         id="g198"><path
           id="path200"
           style="fill:#ffffff;fill-opacity:1;fill-rule:nonzero;stroke:none"
           d="m 15830.7,4750.09 c -11.6,-108.22 -22.9,-192.27 -30.9,-236.34 -29.3,-162.42 0,-221.17 0,-221.17 0,0 49.3,-29.38 79.7,0 30.5,29.37 89.4,168.96 140.8,183.65 51.4,14.69 205.7,7.39 205.7,7.39 0,0 32.5,95.8 74,218.71 -176.2,-7.96 -341.5,17.53 -469.3,47.76" /></g><g
         transform="scale(1.1028)"
         id="g202"><path
           id="path204"
           style="fill:#797a7b;fill-opacity:1;fill-rule:nonzero;stroke:none"
           d="m 12018.3,3418.49 -126.6,-42.17 63.3,-224.97 2109.2,133.57 2151.5,-175.83 84.3,196.87 -2204.1,335.96 -2077.6,-223.43" /></g><g
         transform="scale(1.1028)"
         id="g206"><path
           id="path208"
           style="fill:#adadab;fill-opacity:1;fill-rule:nonzero;stroke:none"
           d="m 11891.7,3641.92 v -265.6 l 2151.4,132.85 2256.9,-203.21 -35.1,315.19 -2200.7,177.01 -2172.5,-156.24" /></g><path
         id="path210"
         style="fill:#797a7b;fill-opacity:1;fill-rule:nonzero;stroke:none"
         d="m 15068,7414.1 77.5,-191 V 4516 h 558.3 v 2626.8 l 100.8,271.3 H 15068" /><path
         id="path212"
         style="fill:#adadab;fill-opacity:1;fill-rule:nonzero;stroke:none"
         d="m 15752.8,7274.6 51.8,139.5 H 15068 l 56.6,-139.5 h 628.2" /><path
         id="path214"
         style="fill:#adadab;fill-opacity:1;fill-rule:nonzero;stroke:none"
         d="m 15145.5,5468 v -952 h 558.3 v 952 h -558.3" /><g
         transform="scale(1.02809)"
         id="g216"><path
           id="path218"
           style="fill:#e9eef1;fill-opacity:1;fill-rule:nonzero;stroke:none"
           d="m 14517.9,11950.4 -72.1,90.5 -134.4,100 c 0,0 31.3,-497.2 -84.3,-939.7 -115.6,-442.4 -432.4,-703.9 -432.4,-703.9 0,0 95.5,-311.7 120.7,-703.87 25.1,-392.17 35.2,-563.07 10,-688.84 -25.1,-125.67 -35.2,-296.67 -35.2,-296.67 0,0 271.6,-70.32 555.6,-40.17 284.1,30.15 414.8,-10.02 771.8,20.13 357,30.16 1005.6,20.04 1005.6,20.04 0,0 0,749.16 0,965.4 0,216.2 31.8,380.48 31.8,380.48 0,0 45,401.6 39.9,416.7 -4.9,15.1 -267.8,369.3 -363.4,761.5 -95.5,392.1 -130.1,808.9 -130.1,808.9 l -116.2,-64.8 -1167.3,-125.7" /></g><path
         id="path220"
         style="fill:#c37140;fill-opacity:1;fill-rule:nonzero;stroke:none"
         d="m 15115.1,13113.1 c 0,0 2.6,-434.2 -12.9,-516.9 -15.5,-82.7 -160.2,-199 -175.7,-204.2 -15.5,-5.1 -75,-12.9 -75,-12.9 0,0 83.7,-780.5 617.7,-780.5 656.5,0 656.5,816.7 656.5,816.7 l -67.2,26.7 c 0,0 -67.2,82.9 -81,198.6 -13.8,115.8 -9.5,444.1 -9.5,444.1 l -852.9,28.4" /><path
         id="path222"
         style="fill:#a45330;fill-opacity:1;fill-rule:nonzero;stroke:none"
         d="m 15968,13084.7 c 0,0 -3.9,-200.4 -25.9,-228.4 -22,-28 -125.7,-189.9 -132,-207.1 -6.3,-17.1 -94.6,-207.2 -94.6,-207.2 l 0.7,159.2 c 0,0 -162.5,-27.4 -231.1,-24 -68.7,3.4 -162.1,75.7 -171.4,91.3 -9.3,15.7 -161.9,290.5 -161.9,290.5 l 443.1,95.5 368.7,267.3 4.4,-237.1" /><path
         id="path224"
         style="fill:#2f1d16;fill-opacity:1;fill-rule:nonzero;stroke:none"
         d="m 14992.5,13596.5 c 13.3,24.9 -46.6,91.6 -61.1,160.9 -14.6,69.2 3.9,345.9 1.6,378.1 -2.4,32.1 53.7,130.7 64.3,160.4 10.6,29.6 77.8,147.9 120,179.9 42.1,31.9 165.8,51.1 217.8,68.2 51.9,17.1 151,58.7 242.4,48.4 91.4,-10.2 81.4,-32.4 145.6,-37.6 64.2,-5.3 162.9,-60.1 197.3,-94.8 34.5,-34.7 155.2,-116.8 194.6,-168.9 39.3,-52 55,-294.3 46.2,-385.7 -8.7,-91.4 -43.9,-227.2 -43.9,-227.2 l -20,-60.9 c 0,0 6.9,-124.4 -0.6,-126.8 -7.4,-2.5 115.9,-59.8 -175.7,-66 -291.7,-6.2 -627.7,2.6 -627.7,2.6 0,0 -220,-8.9 -269.2,43.2 -49.3,52.1 -31.6,126.2 -31.6,126.2" /><path
         id="path226"
         style="fill:#c37140;fill-opacity:1;fill-rule:nonzero;stroke:none"
         d="m 15005.8,13621.4 c 0,0 -18.2,4.8 -50.3,-2.5 -32.2,-7.3 -5.7,-180.4 16.3,-225 22.1,-44.6 53.9,-116.4 58.7,-141.1 4.9,-24.7 51.7,-49.7 51.7,-49.7 0,0 11.8,-133.5 31.4,-185.4 19.5,-52 152.4,-183.6 213.8,-272.8 61.4,-89.2 219.4,-127 330.8,-90.4 111.4,36.6 178.6,159.9 201,187 22.4,27.1 121.7,152.7 139.2,199.6 17.5,46.9 28,180.3 28,180.3 0,0 42,9.7 62,56.6 20,46.8 37.6,120.9 50,143.1 12.5,22.2 32.8,158 13.2,182.8 -19.7,24.8 -54.3,13.4 -54.3,13.4 0,0 -10.1,-37.8 -15.1,-45.2 -4.9,-7.4 -34.6,-17.2 -34.6,-17.2 l -4.5,121.1 c 0,0 -27,27.3 -39.3,59.5 -12.2,32.2 -14.2,128.6 -14.1,153.3 0.1,24.7 2.7,61.8 -14.3,121.2 -17.1,59.4 -88.6,106.6 -125.6,114.2 -37,7.6 -222.4,15.8 -252,18.4 -29.7,2.6 -44.5,-9.7 -123.7,-19.3 -79.1,-9.5 -323.8,-25.8 -351.1,-40.5 -27.2,-14.7 -52.3,-101.1 -57.4,-130.8 -5,-29.6 14.1,-170.5 11.6,-197.7 -2.6,-27.2 -22.5,-56.8 -20.1,-76.5 2.3,-19.8 1.8,-143.4 1.8,-143.4 l -22.2,-7.3 -30.9,94.3" /></g></g></svg>