<?xml version="1.0" encoding="UTF-8" standalone="no"?>
<svg
   xmlns:dc="http://purl.org/dc/elements/1.1/"
   xmlns:cc="http://creativecommons.org/ns#"
   xmlns:rdf="http://www.w3.org/1999/02/22-rdf-syntax-ns#"
   xmlns:svg="http://www.w3.org/2000/svg"
   xmlns="http://www.w3.org/2000/svg"
   viewBox="0 0 2666.6667 2666.6667"
   height="2666.6667"
   width="2666.6667"
   xml:space="preserve"
   id="svg2"
   version="1.1"><metadata
     id="metadata8"><rdf:RDF><cc:Work
         rdf:about=""><dc:format>image/svg+xml</dc:format><dc:type
           rdf:resource="http://purl.org/dc/dcmitype/StillImage" /></cc:Work></rdf:RDF></metadata><defs
     id="defs6" /><g
     transform="matrix(1.3333333,0,0,-1.3333333,0,2666.6667)"
     id="g10"><g
       transform="scale(0.1)"
       id="g12"><g
         transform="scale(1.22699)"
         id="g14"><path
           id="path16"
           style="fill:#ffffff;fill-opacity:1;fill-rule:nonzero;stroke:none"
           d="M 16300,0 H 0 V 16300 H 16300 V 0" /></g><path
         id="path18"
         style="fill:#343434;fill-opacity:1;fill-rule:nonzero;stroke:none"
         d="m 14755.7,15471.3 c -40.2,-384.2 -345,-667.2 -680.7,-632.1 -335.8,35.2 -575.4,375.2 -535.2,759.4 40.3,384.2 345,667.2 680.8,632 335.7,-35.1 575.3,-375.1 535.1,-759.3" /><path
         id="path20"
         style="fill:#494a4b;fill-opacity:1;fill-rule:nonzero;stroke:none"
         d="m 14755.7,15471.3 c -38.8,-370.7 -314.9,-645.7 -616.6,-614.1 -301.8,31.6 -515,357.7 -476.2,728.5 38.8,370.7 314.9,645.7 616.7,614.1 301.7,-31.6 514.9,-357.7 476.1,-728.5" /><g
         transform="scale(1.01388)"
         id="g22"><path
           id="path24"
           style="fill:#343434;fill-opacity:1;fill-rule:nonzero;stroke:none"
           d="m 13197.7,15516.4 c -39.7,-379 -340.3,-658.1 -671.4,-623.4 -331.2,34.7 -567.4,370 -527.8,748.9 39.6,379 340.3,658.1 671.4,623.4 331.2,-34.6 567.5,-369.9 527.8,-748.9" /></g><g
         transform="scale(1.01177)"
         id="g26"><path
           id="path28"
           style="fill:#585c5c;fill-opacity:1;fill-rule:nonzero;stroke:none"
           d="m 13225.2,15548.8 c -38.4,-366.5 -311.1,-638.2 -609.4,-607 -298.3,31.2 -509,353.6 -470.6,720 38.3,366.5 311.2,638.2 609.4,607 298.3,-31.2 508.9,-353.6 470.6,-720" /></g><path
         id="path30"
         style="fill:#838585;fill-opacity:1;fill-rule:nonzero;stroke:none"
         d="m 15217.1,4348.7 -381.9,-89.4 459.3,-158.5 780.7,206.4 -360.2,149.4 -497.9,-107.9" /><path
         id="path32"
         style="fill:#838585;fill-opacity:1;fill-rule:nonzero;stroke:none"
         d="m 12545.1,5394.6 -1424.1,-264.4 -72.8,-298.4 254.8,-65.5 2663.7,451.2 v 240.2 l -470.6,211.1 -951,-274.2" /><g
         transform="scale(1.02155)"
         id="g34"><path
           id="path36"
           style="fill:#a0a09f;fill-opacity:1;fill-rule:nonzero;stroke:none"
           d="m 12778.2,9774.31 c 0,0 281.2,-2926.06 243.2,-3135.06 -37.9,-209 -740.9,-1358.43 -740.9,-1358.43 l 484.5,-266.75 c 0,0 1035.4,722.73 1139.9,713.23 104.5,-9.5 1006.9,-1496.16 1006.9,-1496.16 0,0 403.9,-33.19 415.7,0 11.8,33.28 -900.2,1610.2 -814.7,1743.14 85.6,133.03 1441.2,664.97 1441.2,664.97 0,0 346,370.52 -120.7,873.97 -466.9,503.45 -2455.6,2042.3 -2538.7,2089.87 -83.2,47.48 -419.6,171.22 -419.6,171.22 h -96.8" /></g><path
         id="path38"
         style="fill:#838585;fill-opacity:1;fill-rule:nonzero;stroke:none"
         d="m 14898.3,6976.4 c 0,0 -1319.8,-48.5 -1317.3,0 2.4,48.5 -84.9,2241.6 -84.9,2241.6 0,0 459.5,174.7 603.3,0 143.9,-174.7 798.9,-2241.6 798.9,-2241.6" /><path
         id="path40"
         style="fill:#aaa9a8;fill-opacity:1;fill-rule:nonzero;stroke:none"
         d="m 12785.2,15947.7 h -92.1 c 0,0 -111.6,-112.8 -29.2,-259.5 l 121.3,-31.6 v 291.1" /><path
         id="path42"
         style="fill:#ecb088;fill-opacity:1;fill-rule:nonzero;stroke:none"
         d="m 14092.1,15528.5 c 0,0 -23.5,-264.9 15.3,-306.9 38.8,-42.1 184.4,-38.9 184.4,-29.2 0,9.8 18.1,152.1 -46,239.4 -64,87.4 -153.7,96.7 -153.7,96.7" /><g
         transform="scale(1.15244)"
         id="g44"><path
           id="path46"
           style="fill:#3970c1;fill-opacity:1;fill-rule:nonzero;stroke:none"
           d="m 15213.8,4295.68 -69.4,-51.89 c 0,0 -334.8,-404.79 -259,-568.96 75.8,-164.18 966.2,-341.02 1149.4,-341.02 183.1,0 265.2,120.01 246.3,195.76 -18.9,75.75 -126.3,113.67 -240,221.01 -113.7,107.42 -322,322.1 -322,322.1 0,0 -19,140.14 -50.6,171.11 -31.5,30.98 -246.3,51.89 -246.3,51.89 h -208.4" /></g><g
         transform="scale(1.06715)"
         id="g48"><path
           id="path50"
           style="fill:#3970c1;fill-opacity:1;fill-rule:nonzero;stroke:none"
           d="m 15167.9,4366.19 c 0,0 -122.7,-111.23 -156.8,-172.6 -34.2,-61.38 -193.5,-545.66 -147.9,-593.36 45.5,-47.79 952.6,-306.89 1082.2,-313.73 129.6,-6.84 346.3,13.59 350.5,170.46 4.1,156.86 -111.8,116.01 -265.3,293.3 -153.4,177.29 -371.7,491.02 -371.7,491.02 0,0 -25,59.13 -97.7,145.53 -72.7,86.4 -195.5,140.94 -195.5,140.94 l -197.8,-161.56" /></g><g
         transform="scale(1.09767)"
         id="g52"><path
           id="path54"
           style="fill:#ecb088;fill-opacity:1;fill-rule:nonzero;stroke:none"
           d="m 15080,6576.67 358,-150.32 c 0,0 -35.4,-442.03 57.5,-742.57 92.8,-300.64 203.3,-526.03 282.8,-786.86 79.7,-260.82 115,-649.74 115,-649.74 0,0 150.3,-17.67 274.1,44.19 123.8,61.85 132.6,181.2 132.6,181.2 0,0 -22.1,1339.39 -92.8,1688.58 -70.7,349.19 -106.2,773.55 -163.6,888.43 -57.4,114.97 -459.7,300.64 -459.7,300.64 0,0 -297.6,50.28 -437.6,0 -140,-50.29 -322.7,26.5 -296.2,-190.14 26.5,-216.55 229.9,-583.41 229.9,-583.41" /></g><g
         transform="scale(1.05718)"
         id="g56"><path
           id="path58"
           style="fill:#dc9b70;fill-opacity:1;fill-rule:nonzero;stroke:none"
           d="m 16299.1,5326.23 c 0,0 -17.5,244.7 -86.3,616.44 -68.9,371.75 87.2,1101.51 0,1211.71 -87.2,110.11 -357.4,280.85 -357.4,280.85 l -102.4,204.4 c -9.4,-2.36 -18.4,-5.01 -26.7,-7.94 -145.4,-52.21 -335,27.52 -307.5,-197.41 27.5,-224.85 238.6,-605.76 238.6,-605.76 l 371.8,-156.08 c 0,0 -36.7,-458.95 59.7,-771.01 66.8,-216.52 142.5,-395.48 210.2,-575.2 v 0" /></g><g
         transform="scale(1.09767)"
         id="g60"><path
           id="path62"
           style="fill:#e7e7e6;fill-opacity:1;fill-rule:nonzero;stroke:none"
           d="m 15842.8,4616.51 c 34.6,-194.14 50.5,-369.33 50.5,-369.33 0,0 150.3,-17.67 274.1,44.19 123.8,61.85 132.6,181.2 132.6,181.2 0,0 -1.3,74.89 -4.1,193.78 -161.3,-42.92 -334.8,-50.84 -453.1,-49.84" /></g><g
         transform="scale(1.05034)"
         id="g64"><path
           id="path66"
           style="fill:#252323;fill-opacity:1;fill-rule:nonzero;stroke:none"
           d="m 13040.8,7995.53 44,-143.19 c 0,0 -55.4,-466.62 83.2,-725.3 138.6,-258.67 799.1,-406.44 1016.3,-484.98 217.1,-78.55 586.7,-351.13 582,-328 -4.6,23.05 50.8,170.91 180.2,526.6 129.3,355.7 207.9,558.96 355.7,623.61 147.8,64.74 291.1,87.78 291.1,87.78 l 295.6,-184.8 c 0,0 92.3,189.47 194,235.64 101.6,46.18 217.1,69.31 203.3,78.55 -13.9,9.23 -637.5,341.79 -831.5,397.3 -194.1,55.41 -452.8,101.58 -512.8,124.72 -60.1,23.04 -251.8,110.82 -251.8,110.82 0,0 -616.7,106.25 -829.1,92.35 -212.5,-13.8 -820.2,-411.1 -820.2,-411.1" /></g><path
         id="path68"
         style="fill:#ecb088;fill-opacity:1;fill-rule:nonzero;stroke:none"
         d="m 14978.3,11120 c 0,0 196.6,473.1 240.2,822.4 43.7,349.4 -29.1,720.5 -65.5,1004.4 -36.4,283.8 -41.2,701.1 -104.3,1065 -63.1,363.9 -320.2,1052.9 -320.2,1052.9 h -315.4 c 0,0 82.5,-446.4 77.6,-771.5 -4.8,-325.1 128.9,-1106.3 134.8,-1217.8 5.9,-111.6 -92.9,-451.3 -92.9,-451.3 0,0 -274.8,-595.2 -284.5,-763.4 -9.7,-168.2 9.7,-536.9 92.2,-629.1 82.5,-92.2 638,-111.6 638,-111.6" /><path
         id="path70"
         style="fill:#100f0d;fill-opacity:1;fill-rule:nonzero;stroke:none"
         d="m 15509.6,6631.9 c 0,0 296,329.9 344.5,480.3 48.6,150.4 -164.9,189.3 -218.3,169.9 -53.4,-19.5 -165,4.8 -179.5,-145.6 -14.6,-150.4 53.3,-504.6 53.3,-504.6" /><path
         id="path72"
         style="fill:#dc9b70;fill-opacity:1;fill-rule:nonzero;stroke:none"
         d="m 14485.2,12106.9 c 0,0 92.9,-236.6 223.9,-475.9 l -300.9,313.8 77,162.1" /><path
         id="path74"
         style="fill:#3970c1;fill-opacity:1;fill-rule:nonzero;stroke:none"
         d="m 13581,11886.6 -143.2,-25.9 -562.8,-1344.8 c 0,0 116.5,-363.9 131,-414.8 14.6,-51 360.6,-822.4 453.2,-1128.1 92.7,-305.7 238,-575 238,-575 0,0 677.1,-29.1 1070.1,109.2 393,138.3 662.3,203.8 662.3,225.6 0,21.8 -138.3,706 -182,1077.2 -43.6,371.1 -225.6,997 -240.1,1062.5 -14.6,65.5 -29.2,247.5 -29.2,247.5 l -782.7,963.1 -614.6,-196.5" /><path
         id="path76"
         style="fill:#fbc398;fill-opacity:1;fill-rule:nonzero;stroke:none"
         d="m 13591.4,12229.6 c 0,0 -0.7,-209.6 -10.4,-343 0,0 148,-106.7 332.3,-528.9 184.4,-422.1 457.3,-640.4 619.3,-557.9 161.9,82.4 53.1,488.4 0,598.4 -53.2,110 -195.5,278.2 -195.5,278.2 l 32.5,167.2 c 0,0 -443.3,622 -488.6,625.3 -45.3,3.2 -252.3,53.6 -265.3,26.8 -12.9,-26.8 -24.3,-266.1 -24.3,-266.1" /><path
         id="path78"
         style="fill:#252323;fill-opacity:1;fill-rule:nonzero;stroke:none"
         d="m 14482.4,13495.3 c -199.5,113.8 -410.4,92.8 -521.6,65.7 -111.1,-27 -291.3,-93.4 -291.3,-93.4 -46.7,-18.4 -94.2,-39.7 -122.6,-70.7 -45.5,-49.6 -53.6,-97.5 -53.6,-97.5 0,0 -159.6,-26.5 -175.6,-246.6 -16,-220.1 40.7,-396.6 89.4,-519.5 48.7,-122.9 184.3,-303.7 184.3,-303.7 l 176.8,303.6 c 146.8,-65.3 294.7,320.1 276,357.1 -11.8,23.5 438.5,126.1 438.5,126.1 l 104.9,53.1 c 0,0 49.2,139.9 -12.6,292 -19.5,47.8 -54.1,93.5 -92.6,133.8" /><path
         id="path80"
         style="fill:#dc9b70;fill-opacity:1;fill-rule:nonzero;stroke:none"
         d="m 14532.6,12214.7 -345,-303.7 -481.6,589.8 c 0,0 -55.4,-427.5 111.4,-584.6 191.8,-180.8 452.4,-204.6 494.8,-203.2 l 220.4,501.7" /><path
         id="path82"
         style="fill:#fbc398;fill-opacity:1;fill-rule:nonzero;stroke:none"
         d="m 14528.9,13148.6 c 0,0 47.5,-56.7 58.7,-79.1 11.2,-22.5 27.8,-230.2 33.5,-282.6 5.7,-52.5 -4.8,-124.4 -3.7,-149.9 1.1,-25.5 11.3,-181.5 7.1,-242.9 -4.1,-61.4 -61.8,-302.1 -81.1,-365.9 -19.4,-63.8 -48,-148.3 -77.9,-166.6 -29.8,-18.3 -163.6,-30.9 -284,-0.4 -120.4,30.5 -359.8,178.3 -426.3,258.8 -66.4,80.5 -65.4,254 -65.4,254 0,0 -48.6,-15.7 -101.8,33 -53.1,48.8 -139.4,155.6 -127.7,278.6 11.7,122.9 107,82.8 156.6,35.7 49.7,-47.2 54.6,-121.8 64.9,-123.1 10.3,-1.3 20.3,2.6 25.3,4.5 5,1.9 23.4,128.6 24,154.1 0.6,25.6 -11.1,178.1 -8,183.4 3.2,5.2 123.1,163.5 163.2,180.6 40.1,17 642.6,27.8 642.6,27.8" /><path
         id="path84"
         style="fill:#dc9b70;fill-opacity:1;fill-rule:nonzero;stroke:none"
         d="m 14337.1,11676.4 -89,-258 60.7,368.7 60.8,56.5 -32.5,-167.2" /><path
         id="path86"
         style="fill:#fbc398;fill-opacity:1;fill-rule:nonzero;stroke:none"
         d="m 13355.4,12056.4 c 0,0 247.4,-208.6 378.4,-577.4 131,-368.7 81.6,-892.7 -274.6,-1057.7 -356.2,-165 -584.2,94.6 -584.2,94.6 0,0 -126.2,269.3 -203.8,410 -77.6,140.7 -179.5,334.8 -164.9,567.7 14.5,232.9 48.5,397.9 48.5,397.9 0,0 -19.4,669.5 33.9,965.5 53.4,296 72.8,446.4 72.8,446.4 0,0 -77.6,596.8 29.1,989.8 106.8,393 218.4,1004.4 218.4,1004.4 l 305.6,-48.5 c 0,0 72.8,-684.2 77.7,-1019 4.8,-334.8 -24.3,-897.6 -24.3,-897.6 l 87.4,-1276.1" /><path
         id="path88"
         style="fill:#dc9b70;fill-opacity:1;fill-rule:nonzero;stroke:none"
         d="m 13268,11867.2 c 0,0 -92.2,-266.9 -281.4,-417.3 0,0 291.1,72.8 281.4,417.3" /><path
         id="path90"
         style="fill:#dc9b70;fill-opacity:1;fill-rule:nonzero;stroke:none"
         d="m 13437.8,11860.7 c 0,0 -70.1,-466.1 58.3,-891.1 0,0 -269.2,423.8 -58.3,891.1" /><g
         transform="scale(1.02835)"
         id="g92"><path
           id="path94"
           style="fill:#100f0d;fill-opacity:1;fill-rule:nonzero;stroke:none"
           d="m 14846.1,8164.05 158.1,-58.93 c 0,0 82.6,-70.69 101.5,-80.13 18.8,-9.43 821,-311.47 821,-311.47 l 301.9,-188.74 71.4,118.93 c 0,0 -335.6,152.28 -420.6,200.7 -84.9,48.43 -636.9,208.88 -655.8,241.85 -18.9,33.06 -51.9,217.04 -51.9,217.04 l -66,-139.25 h -259.6" /></g><g
         transform="scale(1.03178)"
         id="g96"><path
           id="path98"
           style="fill:#fbc398;fill-opacity:1;fill-rule:nonzero;stroke:none"
           d="m 15031.9,6897.89 395,-77.63 c 0,0 -56.4,-458.43 -49.3,-705.39 7,-246.85 152.9,-740.66 204.5,-1065.15 51.8,-324.39 23.6,-860.55 23.6,-860.55 0,0 188.1,28.21 197.5,47.01 9.4,18.9 23.4,239.88 61,263.43 37.8,23.45 230.5,37.6 230.5,37.6 0,0 -51.7,841.75 42.4,1279.06 94,437.4 75.2,996.91 75.2,1011.06 0,14.16 87.7,463.38 -37.6,672.44 -125.3,209.15 -235.1,362.09 -479.7,324.48 -244.5,-37.6 -545.5,-4.65 -634.8,-225.72 -89.4,-220.98 -170.8,-343.29 -132.4,-489.06 38.3,-145.77 104.1,-211.58 104.1,-211.58" /></g><g
         transform="scale(1.01879)"
         id="g100"><path
           id="path102"
           style="fill:#e7e7e6;fill-opacity:1;fill-rule:nonzero;stroke:none"
           d="m 15809.1,4782.46 c 9.6,-272.87 -4.4,-539.86 -4.4,-539.86 0,0 190.5,28.57 200,47.61 9.6,19.14 23.8,242.93 61.9,266.79 38.2,23.75 233.4,38.08 233.4,38.08 0,0 -6.6,106.7 -10.8,264.14 -161.2,-31.71 -339.1,-58.01 -480.1,-76.76" /></g><path
         id="path104"
         style="fill:#a0a09f;fill-opacity:1;fill-rule:nonzero;stroke:none"
         d="m 11121,5130.2 -72.8,-298.4 254.8,-65.5 54.8,274.3 -236.8,89.6" /><g
         transform="scale(1.01262)"
         id="g106"><path
           id="path108"
           style="fill:#343434;fill-opacity:1;fill-rule:nonzero;stroke:none"
           d="m 13155.6,16267.9 v 0 c -286.5,12 -544.7,-267.6 -583.6,-639 -21,-200.4 26.1,-387.7 118.2,-525.3 22.5,-39.1 51.5,-74.3 88.2,-103.9 0.6,-0.5 1.2,-0.9 1.8,-1.4 28.5,-26 59.3,-48.5 92.2,-66.7 262.8,-169.9 454.5,-124.1 454.5,-124.1 0,0 298,425.6 301.1,479.9 3.2,54.3 66.6,750.7 66.6,750.7 -253.1,261.9 -539,229.8 -539,229.8" /></g><g
         transform="scale(1.00834)"
         id="g110"><path
           id="path112"
           style="fill:#585c5c;fill-opacity:1;fill-rule:nonzero;stroke:none"
           d="m 13923.3,15511.6 c -40.2,-384.6 -326.6,-669.8 -639.6,-637 -313,32.7 -534.2,371.1 -493.9,755.6 40.3,384.6 326.7,669.8 639.7,637 312.9,-32.7 534.1,-371 493.8,-755.6" /></g><g
         transform="scale(1.00957)"
         id="g114"><path
           id="path116"
           style="fill:#343434;fill-opacity:1;fill-rule:nonzero;stroke:none"
           d="m 14426.3,16224.9 h 0.1 c -285.9,-31.5 -499.6,-347.7 -482,-721.9 9.5,-201.9 84.6,-380.5 196.7,-503 28.3,-35.3 62.2,-65.9 103.1,-89.7 0.7,-0.3 1.3,-0.7 2,-1.1 32.3,-21.5 66.3,-39 101.7,-52.1 286.2,-128.7 469.3,-54.4 469.3,-54.4 0,0 231.2,467.1 226,521.4 -5.2,54.4 -47.6,754.4 -47.6,754.4 -290.6,221.5 -569.3,146.4 -569.3,146.4" /></g><path
         id="path118"
         style="fill:#aaa9a8;fill-opacity:1;fill-rule:nonzero;stroke:none"
         d="m 13688.5,15679.7 c -21.8,-99.5 -107.9,-165.2 -192.4,-146.8 -84.6,18.5 -135.5,114.2 -113.7,213.7 21.7,99.5 107.9,165.2 192.4,146.7 84.5,-18.4 135.4,-114.1 113.7,-213.6" /><g
         transform="scale(1.0036)"
         id="g120"><path
           id="path122"
           style="fill:#585c5c;fill-opacity:1;fill-rule:nonzero;stroke:none"
           d="m 15344.3,15609.4 c 18.3,-388 -222.9,-714.7 -538.7,-729.6 -315.9,-14.9 -586.8,287.6 -605.1,675.7 -18.3,388 222.9,714.7 538.8,729.6 315.9,14.9 586.7,-287.6 605,-675.7" /></g><path
         id="path124"
         style="fill:#aaa9a8;fill-opacity:1;fill-rule:nonzero;stroke:none"
         d="m 15046.9,15651.1 c -6.5,-101.7 -81.8,-179.6 -168.1,-174.1 -86.4,5.5 -151.1,92.4 -144.6,194.1 6.5,101.6 81.7,179.6 168.1,174.1 86.3,-5.5 151,-92.4 144.6,-194.1" /><path
         id="path126"
         style="fill:#838585;fill-opacity:1;fill-rule:nonzero;stroke:none"
         d="m 5402.85,4348.7 -381.84,-89.4 459.32,-158.5 780.67,206.4 -360.17,149.4 -497.98,-107.9" /><path
         id="path128"
         style="fill:#838585;fill-opacity:1;fill-rule:nonzero;stroke:none"
         d="m 2730.86,5394.6 -1424.06,-264.4 -72.78,-298.4 254.73,-65.5 2663.75,451.2 v 240.2 l -470.64,211.1 -951,-274.2" /><path
         id="path130"
         style="fill:#a0a09f;fill-opacity:1;fill-rule:nonzero;stroke:none"
         d="m 3239.29,9984.9 c 0,0 287.3,-2989.1 248.48,-3202.6 -38.81,-213.5 -756.91,-1387.7 -756.91,-1387.7 l 494.91,-272.5 c 0,0 1057.73,738.3 1164.47,728.6 106.75,-9.7 1028.63,-1528.4 1028.63,-1528.4 0,0 412.64,-33.9 424.66,0 12.02,34 -919.57,1644.9 -832.23,1780.7 87.34,135.9 1472.17,679.3 1472.17,679.3 0,0 353.54,378.5 -123.31,892.8 -476.85,514.3 -2508.49,2086.3 -2593.4,2134.9 -84.9,48.5 -428.53,174.9 -428.53,174.9 h -98.94" /><path
         id="path132"
         style="fill:#838585;fill-opacity:1;fill-rule:nonzero;stroke:none"
         d="m 5084.08,6976.4 c 0,0 -1319.74,-48.5 -1317.32,0 2.43,48.5 -84.9,2241.6 -84.9,2241.6 0,0 459.5,174.7 603.35,0 143.85,-174.7 798.87,-2241.6 798.87,-2241.6" /><path
         id="path134"
         style="fill:#343434;fill-opacity:1;fill-rule:nonzero;stroke:none"
         d="m 6393.74,11763.5 c -40.22,-384.2 -345,-667.2 -680.75,-632 -335.75,35.1 -575.33,375.1 -535.11,759.3 40.21,384.2 345,667.2 680.74,632.1 335.76,-35.2 575.34,-375.1 535.12,-759.4" /><path
         id="path136"
         style="fill:#585c5c;fill-opacity:1;fill-rule:nonzero;stroke:none"
         d="m 6393.74,11763.5 c -38.81,-370.7 -314.89,-645.7 -616.64,-614.1 -301.76,31.6 -514.92,357.8 -476.12,728.5 38.81,370.8 314.89,645.7 616.64,614.1 301.76,-31.6 514.92,-357.7 476.12,-728.5" /><path
         id="path138"
         style="fill:#ecb088;fill-opacity:1;fill-rule:nonzero;stroke:none"
         d="m 5024.46,11288.2 c 0,0 109.98,38.8 339.64,-93.8 229.66,-132.6 333.17,-433.5 333.17,-433.5 0,0 391.4,-317 384.93,-294.3 -6.47,22.6 22.64,216.7 -32.35,397.8 -54.99,181.2 -93.81,485.3 -93.81,485.3 l 359.05,-74.4 c 0,0 268.48,-475.5 391.4,-795.8 122.91,-320.2 135.85,-908.9 97.04,-973.6 -38.82,-64.7 -219.96,-84.1 -417.28,-25.9 -197.31,58.2 -701.92,216.6 -915.41,449.5 -213.49,233 -588.71,1025.5 -591.94,1057.9 -3.24,32.3 145.56,300.8 145.56,300.8" /><path
         id="path140"
         style="fill:#3970c1;fill-opacity:1;fill-rule:nonzero;stroke:none"
         d="m 7718.72,4950.5 -80.06,-59.8 c 0,0 -385.73,-466.5 -298.4,-655.7 87.34,-189.2 1113.54,-393 1324.6,-393 211.07,0 305.68,138.3 283.85,225.6 -21.84,87.3 -145.57,131 -276.57,254.7 -131,123.8 -371.18,371.2 -371.18,371.2 0,0 -21.83,161.5 -58.22,197.2 -36.39,35.7 -283.84,59.8 -283.84,59.8 h -240.18" /><path
         id="path142"
         style="fill:#3970c1;fill-opacity:1;fill-rule:nonzero;stroke:none"
         d="m 6372.29,4659.4 c 0,0 -131.01,-118.7 -167.39,-184.2 -36.39,-65.5 -206.54,-582.3 -157.85,-633.2 48.68,-51 1016.65,-327.5 1154.93,-334.8 138.28,-7.3 369.56,14.5 374.01,181.9 4.45,167.4 -119.32,123.8 -283.05,313 -163.74,189.2 -396.63,524 -396.63,524 0,0 -26.69,63.1 -104.32,155.3 -77.63,92.2 -208.64,150.4 -208.64,150.4 l -211.06,-172.4" /><path
         id="path144"
         style="fill:#ecb088;fill-opacity:1;fill-rule:nonzero;stroke:none"
         d="m 6738.62,7219 393.01,-165 c 0,0 -38.82,-485.2 63.08,-815.1 101.89,-330 223.19,-577.4 310.52,-863.7 87.34,-286.3 126.16,-713.2 126.16,-713.2 0,0 164.96,-19.4 300.82,48.5 135.86,67.9 145.56,198.9 145.56,198.9 0,0 -24.26,1470.2 -101.89,1853.5 -77.63,383.3 -116.45,849.1 -179.53,975.2 -63.07,126.2 -504.61,330 -504.61,330 0,0 -326.64,55.2 -480.34,0 -153.71,-55.2 -354.2,29.1 -325.09,-208.7 29.11,-237.7 252.31,-640.4 252.31,-640.4" /><path
         id="path146"
         style="fill:#dc9b70;fill-opacity:1;fill-rule:nonzero;stroke:none"
         d="m 7416.95,5630.8 c 0,0 -18.46,258.7 -91.24,651.7 -72.78,393 92.19,1164.5 0,1281 -92.19,116.4 -377.79,296.9 -377.79,296.9 l -108.34,216.1 c -9.88,-2.5 -19.35,-5.3 -28.18,-8.4 -153.71,-55.2 -354.2,29.1 -325.09,-208.7 29.11,-237.7 252.31,-640.4 252.31,-640.4 l 393.01,-165 c 0,0 -38.82,-485.2 63.08,-815.1 70.68,-228.9 150.69,-418.1 222.24,-608.1 v 0" /><path
         id="path148"
         style="fill:#e7e7e6;fill-opacity:1;fill-rule:nonzero;stroke:none"
         d="m 7575.99,5067.4 c 37.91,-213.1 55.4,-405.4 55.4,-405.4 0,0 164.96,-19.4 300.82,48.5 135.86,67.9 145.56,198.9 145.56,198.9 0,0 -1.35,82.2 -4.45,212.7 -177.16,-47.1 -367.48,-55.8 -497.33,-54.7" /><path
         id="path150"
         style="fill:#252323;fill-opacity:1;fill-rule:nonzero;stroke:none"
         d="m 3882.97,8398 46.34,-150.4 c 0,0 -58.23,-490.1 87.33,-761.8 145.56,-271.7 839.4,-426.9 1067.44,-509.4 228.05,-82.5 616.21,-368.8 611.35,-344.5 -4.84,24.2 53.38,179.5 189.23,553.1 135.86,373.6 218.34,587.1 373.61,655 155.26,68 305.68,92.2 305.68,92.2 l 310.52,-194.1 c 0,0 97.04,199 203.79,247.5 106.74,48.5 228.04,72.8 213.48,82.5 -14.55,9.7 -669.57,359 -873.36,417.3 -203.78,58.2 -475.49,106.7 -538.57,131 -63.08,24.2 -264.43,116.4 -264.43,116.4 0,0 -647.74,111.6 -870.94,97 C 4521.25,8815.3 3882.97,8398 3882.97,8398" /><path
         id="path152"
         style="fill:#100f0d;fill-opacity:1;fill-rule:nonzero;stroke:none"
         d="m 5695.43,6631.9 c 0,0 295.98,329.9 344.5,480.3 48.52,150.4 -164.97,189.3 -218.34,169.9 -53.37,-19.5 -164.97,4.8 -179.52,-145.6 -14.56,-150.4 53.36,-504.6 53.36,-504.6" /><path
         id="path154"
         style="fill:#100f0d;fill-opacity:1;fill-rule:nonzero;stroke:none"
         d="m 5452.84,8395.5 162.54,-60.6 c 0,0 84.91,-72.7 104.32,-82.4 19.4,-9.7 844.25,-320.3 844.25,-320.3 l 310.52,-194.1 73.45,122.3 c 0,0 -345.16,156.6 -432.5,206.4 -87.33,49.8 -655.01,214.8 -674.42,248.7 -19.41,34 -53.38,223.2 -53.38,223.2 l -67.92,-143.2 h -266.86" /><path
         id="path156"
         style="fill:#fbc398;fill-opacity:1;fill-rule:nonzero;stroke:none"
         d="M 5695.43,7117.1 6103,7037 c 0,0 -58.22,-473 -50.94,-727.8 7.28,-254.7 157.69,-764.2 211.06,-1099 53.37,-334.7 24.26,-887.9 24.26,-887.9 0,0 194.08,29.1 203.79,48.5 9.7,19.5 24.25,247.5 63.07,271.8 38.82,24.2 237.75,38.8 237.75,38.8 0,0 -53.37,868.5 43.67,1319.7 97.04,451.3 77.63,1028.6 77.63,1043.2 0,14.6 90.5,478.1 -38.82,693.8 -129.32,215.8 -242.59,373.6 -494.9,334.8 -252.3,-38.8 -562.84,-4.8 -655.02,-232.9 -92.19,-228 -176.15,-354.2 -136.6,-504.6 39.56,-150.4 107.48,-218.3 107.48,-218.3" /><path
         id="path158"
         style="fill:#e7e7e6;fill-opacity:1;fill-rule:nonzero;stroke:none"
         d="m 6291.85,4872.3 c 9.84,-278 -4.47,-550 -4.47,-550 0,0 194.08,29.1 203.79,48.5 9.7,19.5 24.25,247.5 63.07,271.8 38.82,24.2 237.75,38.8 237.75,38.8 0,0 -6.67,108.7 -11.01,269.1 -164.22,-32.3 -345.49,-59.1 -489.13,-78.2" /><path
         id="path160"
         style="fill:#a0a09f;fill-opacity:1;fill-rule:nonzero;stroke:none"
         d="m 1306.8,5130.2 -72.78,-298.4 254.73,-65.5 54.87,274.3 -236.82,89.6" /><path
         id="path162"
         style="fill:#3970c1;fill-opacity:1;fill-rule:nonzero;stroke:none"
         d="m 4607.19,10974.4 c 24.26,14.6 307.29,313.8 307.29,313.8 h 109.98 c 0,0 451.23,-449.6 524.02,-580.6 72.77,-131 63.07,-456.1 43.66,-587.1 -19.41,-131 -48.52,-203.8 -48.52,-203.8 0,0 32.8,-732.7 62.5,-883.1 29.69,-150.4 59.13,-319.5 59.13,-319.5 0,0 -175,-88 -723.28,-175.4 -548.27,-87.3 -1066.9,-203.8 -1050.18,-140.7 16.71,63.1 -119.15,897.6 -119.15,897.6 l -228.05,451.3 v 1640 l 623.98,92.1 438.62,-504.6" /><path
         id="path164"
         style="fill:#fbc398;fill-opacity:1;fill-rule:nonzero;stroke:none"
         d="m 4792.08,11499.4 28.59,-198.3 93.81,-12.9 c 0,0 260.39,-449.6 56.61,-604.9 -203.79,-155.2 -732.66,257.2 -849.1,359.1 l -57.52,963.9 -5.8,177.3 c 0,0 292.38,100.9 333.11,57.2 40.73,-43.7 400.3,-741.4 400.3,-741.4" /><path
         id="path166"
         style="fill:#252323;fill-opacity:1;fill-rule:nonzero;stroke:none"
         d="m 4938.47,13283.7 c -201.07,111.1 -411.67,87.3 -522.44,58.8 -110.77,-28.5 -290.07,-97.4 -290.07,-97.4 -46.43,-19 -93.63,-40.8 -121.65,-72.2 -44.82,-50.2 -52.31,-98.3 -52.31,-98.3 0,0 -159.23,-28.6 -172.27,-248.9 -13.05,-220.3 46.03,-396 96.37,-518.3 50.33,-122.2 188.37,-301.1 188.37,-301.1 l 172.63,305.9 c 147.73,-63.3 290.4,324 271.29,360.7 -12.12,23.3 436.79,132 436.79,132 l 104.15,54.4 c 0,0 47.35,140.6 -16.54,291.9 -20.06,47.5 -55.35,92.7 -94.32,132.5" /><path
         id="path168"
         style="fill:#dc9b70;fill-opacity:1;fill-rule:nonzero;stroke:none"
         d="m 5005.69,12003.9 -340.83,-308.3 -489.48,583.4 c 0,0 -49.64,-428.2 119.21,-583.1 194.24,-178.2 455.1,-198.5 497.49,-196.5 l 213.61,504.5" /><path
         id="path170"
         style="fill:#fbc398;fill-opacity:1;fill-rule:nonzero;stroke:none"
         d="m 4989.57,12937.7 c 0,0 48.28,-56 59.76,-78.4 11.48,-22.3 30.89,-229.7 37.27,-282.1 6.37,-52.4 -3.17,-124.4 -1.72,-149.9 1.44,-25.4 13.68,-181.4 10.35,-242.8 -3.32,-61.5 -57.73,-302.9 -76.23,-366.9 -18.5,-64 -46.02,-149 -75.6,-167.7 -29.58,-18.7 -163.23,-33.1 -284.02,-4.2 -120.8,28.9 -362.19,173.6 -429.67,253.1 -67.49,79.6 -68.82,253.1 -68.82,253.1 0,0 -48.43,-16.3 -102.22,31.7 -53.78,48 -141.48,153.7 -131.43,276.8 10.04,123.1 105.86,84.3 156.15,37.8 50.3,-46.5 56.23,-121.1 66.51,-122.2 10.27,-1.1 20.26,2.9 25.26,4.9 4.99,1.9 21.63,128.8 21.88,154.4 0.25,25.5 -13.49,178 -10.38,183.2 3.1,5.3 120.85,165.2 160.71,182.8 39.85,17.5 642.2,36.4 642.2,36.4" /><path
         id="path172"
         style="fill:#dc9b70;fill-opacity:1;fill-rule:nonzero;stroke:none"
         d="m 4168.57,11479 c 0,0 84.18,-391.4 188.62,-615.4 l -108.9,77.7 c 0,0 -193.05,113.6 -186.37,151 6.69,37.4 106.65,386.7 106.65,386.7" /><path
         id="path174"
         style="fill:#fbc398;fill-opacity:1;fill-rule:nonzero;stroke:none"
         d="m 3544.59,11386.9 c 0,0 -262,9.7 -456.08,-135.9 -194.08,-145.6 -203.78,-480.3 -164.97,-664.7 38.82,-184.4 179.53,-339.7 179.53,-339.7 0,0 194.07,-368.7 344.49,-538.5 150.41,-169.9 446.38,-349.4 630.76,-373.6 184.38,-24.3 301.84,349.3 313.46,693.8 11.62,344.5 -274.65,1470.9 -274.65,1470.9 l -339.24,-20.2 v -232.9 l -233.3,140.8" /><path
         id="path176"
         style="fill:#dc9b70;fill-opacity:1;fill-rule:nonzero;stroke:none"
         d="m 3583.41,9929.5 c 12.93,-29.6 5.87,224.9 107.25,516.1 101.39,291.1 87.23,800.5 87.23,800.5 l -129.16,78 c 0,0 70.16,-349.7 0,-635.9 -70.17,-286.3 -142.95,-580.8 -65.32,-758.7" /><path
         id="path178"
         style="fill:#dc9b70;fill-opacity:1;fill-rule:nonzero;stroke:none"
         d="m 6208.35,9949 c 0,0 -119.35,240.7 -126.15,517.6 l -101.89,70 c 0,0 -11.33,-348.2 228.04,-587.6" /><path
         id="path180"
         style="fill:#dc9b70;fill-opacity:1;fill-rule:nonzero;stroke:none"
         d="m 5551.71,10123.7 c -11.17,-3.3 197.31,-55.2 310.53,-194.2 0,0 -84.11,262.1 -310.53,194.2" /><path
         id="path182"
         style="fill:#ecb088;fill-opacity:1;fill-rule:nonzero;stroke:none"
         d="m 5752.26,11879.3 c -7.28,0 -99.47,-24.3 -106.74,-52.1 -7.28,-27.9 -1.78,-260.8 19.73,-306.9 21.51,-46.1 143.69,-70 143.69,-70 0,0 46.02,20.6 41.98,48.9 -4.04,28.4 -98.66,380.1 -98.66,380.1" /><path
         id="path184"
         style="fill:#343434;fill-opacity:1;fill-rule:nonzero;stroke:none"
         d="m 4216.85,11991.4 c -40.22,-384.3 -345,-667.2 -680.75,-632.1 -335.75,35.1 -575.33,375.1 -535.11,759.3 40.21,384.3 344.99,667.2 680.74,632.1 335.75,-35.1 575.33,-375.1 535.12,-759.3" /><path
         id="path186"
         style="fill:#585c5c;fill-opacity:1;fill-rule:nonzero;stroke:none"
         d="m 4216.85,11991.4 c -38.81,-370.8 -314.89,-645.7 -616.64,-614.1 -301.76,31.6 -514.93,357.7 -476.12,728.4 38.81,370.8 314.88,645.7 616.64,614.2 301.76,-31.6 514.92,-357.8 476.12,-728.5" /><path
         id="path188"
         style="fill:#fbc398;fill-opacity:1;fill-rule:nonzero;stroke:none"
         d="m 3516.78,12177.5 c 0,0 -132.3,-169.6 -127.45,-242.4 4.85,-72.7 183.5,-230.4 183.5,-230.4 0,0 92.68,16.9 75.9,152.8 -16.8,135.9 -131.95,320 -131.95,320" /><path
         id="path190"
         style="fill:#343434;fill-opacity:1;fill-rule:nonzero;stroke:none"
         d="m 6194.29,12549.6 h 0.02 c -288.55,-31.7 -504.34,-351 -486.52,-728.8 9.61,-203.8 85.34,-384.1 198.55,-507.8 28.52,-35.6 62.83,-66.5 104.15,-90.5 0.67,-0.4 1.3,-0.7 1.96,-1.1 32.56,-21.7 66.87,-39.5 102.55,-52.7 288.99,-129.9 473.89,-54.8 473.89,-54.8 0,0 233.35,471.5 228.17,526.4 -5.19,54.8 -48.09,761.6 -48.09,761.6 -293.29,223.5 -574.68,147.7 -574.68,147.7" /><path
         id="path192"
         style="fill:#585c5c;fill-opacity:1;fill-rule:nonzero;stroke:none"
         d="m 7029.45,11835.1 c 18.37,-389.5 -223.71,-717.3 -540.7,-732.3 -316.99,-14.9 -588.85,288.7 -607.22,678.1 -18.37,389.5 223.71,717.4 540.71,732.3 316.98,15 588.85,-288.6 607.21,-678.1" /><path
         id="path194"
         style="fill:#aaa9a8;fill-opacity:1;fill-rule:nonzero;stroke:none"
         d="m 6676.71,11820.5 c -6.49,-101.6 -81.74,-179.6 -168.08,-174.1 -86.34,5.5 -151.08,92.4 -144.59,194.1 6.48,101.6 81.74,179.6 168.07,174.1 86.35,-5.5 151.08,-92.4 144.6,-194.1" /><path
         id="path196"
         style="fill:#343434;fill-opacity:1;fill-rule:nonzero;stroke:none"
         d="m 3994.27,12728.8 0.01,-0.1 c -288.55,-31.7 -504.33,-351 -486.52,-728.8 9.61,-203.7 85.35,-384.1 198.55,-507.7 28.52,-35.7 62.84,-66.6 104.16,-90.6 0.66,-0.4 1.3,-0.7 1.96,-1.1 32.56,-21.7 66.87,-39.4 102.55,-52.6 288.99,-130 473.88,-54.9 473.88,-54.9 0,0 233.36,471.6 228.17,526.4 -5.18,54.8 -48.08,761.6 -48.08,761.6 -293.3,223.6 -574.68,147.8 -574.68,147.8" /><path
         id="path198"
         style="fill:#585c5c;fill-opacity:1;fill-rule:nonzero;stroke:none"
         d="m 4829.43,12014.2 c 18.37,-389.5 -223.72,-717.3 -540.7,-732.3 -317,-14.9 -588.86,288.7 -607.23,678.2 -18.36,389.4 223.72,717.3 540.71,732.2 316.99,15 588.85,-288.6 607.22,-678.1" /><path
         id="path200"
         style="fill:#aaa9a8;fill-opacity:1;fill-rule:nonzero;stroke:none"
         d="m 4476.68,11999.6 c -6.48,-101.6 -81.73,-179.6 -168.08,-174.1 -86.34,5.5 -151.07,92.4 -144.59,194.1 6.49,101.7 81.74,179.6 168.08,174.1 86.34,-5.5 151.08,-92.4 144.59,-194.1" /></g></g></svg>