<?xml version="1.0" encoding="UTF-8" standalone="no"?>
<svg
   xmlns:dc="http://purl.org/dc/elements/1.1/"
   xmlns:cc="http://creativecommons.org/ns#"
   xmlns:rdf="http://www.w3.org/1999/02/22-rdf-syntax-ns#"
   xmlns:svg="http://www.w3.org/2000/svg"
   xmlns="http://www.w3.org/2000/svg"
   viewBox="0 0 2666.6667 2666.6667"
   height="2666.6667"
   width="2666.6667"
   xml:space="preserve"
   id="svg2"
   version="1.1"><metadata
     id="metadata8"><rdf:RDF><cc:Work
         rdf:about=""><dc:format>image/svg+xml</dc:format><dc:type
           rdf:resource="http://purl.org/dc/dcmitype/StillImage" /></cc:Work></rdf:RDF></metadata><defs
     id="defs6"><clipPath
       id="clipPath102"
       clipPathUnits="userSpaceOnUse"><path
         id="path100"
         d="m 6735.76,11597.2 c -21.64,0 -34.42,5.9 -34.42,5.9 126.7,70.9 207.78,217.9 207.78,217.9 0,0 15.2,-114.1 -65.88,-179.9 -43.93,-35.7 -81.89,-43.9 -107.48,-43.9" /></clipPath></defs><g
     transform="matrix(1.3333333,0,0,-1.3333333,0,2666.6667)"
     id="g10"><g
       transform="scale(0.1)"
       id="g12"><g
         transform="scale(1.22699)"
         id="g14"><path
           id="path16"
           style="fill:none;fill-opacity:1;fill-rule:nonzero;stroke:none"
           d="M 16300,0 H 0 V 16300 H 16300 V 0" /></g><path
         id="path18"
         style="fill:#c37140;fill-opacity:1;fill-rule:nonzero;stroke:none"
         d="m 8246.13,6510.5 c -13.7,178.9 -64.35,584.5 40.68,949.8 44.08,153.3 64.79,264.7 74.03,342.4 H 7226.25 c 27.29,-139.8 64.89,-350.1 78.79,-511.4 22.83,-264.8 255.72,-872.2 260.28,-936.1 4.57,-63.9 -36.53,-292.2 -68.49,-602.7 -31.97,-310.6 54.8,-593.7 118.72,-794.6 63.93,-200.9 141.56,-726 150.7,-858.5 9.13,-132.4 13.69,-388.1 13.69,-388.1 0,0 59.36,-289.8 136.99,-296.8 77.63,-7.1 324.21,225.8 324.21,225.8 0,0 -13.69,468.3 0,682.9 13.7,214.6 151.3,924.9 137.61,1303.9 -13.7,379 -118.93,704.4 -132.62,883.4" /><path
         id="path20"
         style="fill:#f7f7f7;fill-opacity:1;fill-rule:nonzero;stroke:none"
         d="m 8246.13,4375.2 c -2.26,-19 -4,-36.6 -4.99,-52 -13.69,-214.6 0,-682.9 0,-682.9 0,0 -246.58,-232.9 -324.21,-225.8 -77.63,7 -160.1,204.4 -160.1,204.4 0,0 5.47,293.3 -3.66,425.7 -3.37,48.9 -3.03,206.2 -20.94,326.1 201.36,-2 390.85,1.4 513.9,4.5" /><path
         id="path22"
         style="fill:#1a1918;fill-opacity:1;fill-rule:nonzero;stroke:none"
         d="m 8190.47,3925.8 c 0,0 38.32,-33.4 63.35,-87.6 14.41,-31.2 23.84,-181.2 23.84,-181.2 0,0 100.11,-386.1 157.32,-495.8 57.21,-109.6 114.41,-433.8 66.74,-486.2 -47.67,-52.5 -700.79,-47.7 -743.7,0 -42.9,47.6 -4.76,486.2 0,514.8 4.77,28.6 -4.76,407.6 -1.19,429.1 3.58,21.4 35.76,50 35.76,50 0,0 0,193.1 50.05,243.2 50.06,50 347.83,13.7 347.83,13.7" /><path
         id="path24"
         style="fill:#1a1918;fill-opacity:1;fill-rule:nonzero;stroke:none"
         d="m 7839.07,2771.5 c 100.79,-28.6 539.89,-32.2 607.83,0 22.01,10.4 46.24,33.3 68.98,59.4 7.01,-74 4.38,-135.5 -14.16,-155.9 -47.67,-52.5 -700.79,-47.7 -743.7,0 -15.68,17.4 -20.51,87.1 -20.12,169.9 30.77,-33.9 65.84,-63.4 101.17,-73.4" /><path
         id="path26"
         style="fill:#c37140;fill-opacity:1;fill-rule:nonzero;stroke:none"
         d="m 6629.79,7291.3 c 13.91,161.3 51.5,371.6 78.79,511.4 H 5573.99 c 9.25,-77.7 29.95,-189.1 74.04,-342.4 105.02,-365.3 54.38,-770.9 40.68,-949.8 -13.7,-179 -118.92,-504.4 -132.62,-883.4 -13.7,-379 123.91,-1089.3 137.6,-1303.9 13.7,-214.6 0,-682.9 0,-682.9 0,0 246.58,-232.9 324.22,-225.8 77.62,7 136.98,296.8 136.98,296.8 0,0 4.57,255.7 13.7,388.1 9.13,132.5 86.76,657.6 150.69,858.5 63.93,200.9 150.69,484 118.73,794.6 -31.97,310.5 -73.06,538.8 -68.5,602.7 4.57,63.9 237.45,671.3 260.28,936.1" /><path
         id="path28"
         style="fill:#f7f7f7;fill-opacity:1;fill-rule:nonzero;stroke:none"
         d="m 5688.71,4375.2 c 2.25,-19 4,-36.6 4.98,-52 13.7,-214.6 0,-682.9 0,-682.9 0,0 246.58,-232.9 324.22,-225.8 77.62,7 160.09,204.4 160.09,204.4 0,0 -5.47,293.3 3.66,425.7 3.37,48.9 3.03,206.2 20.94,326.1 -201.36,-2 -390.84,1.4 -513.89,4.5" /><path
         id="path30"
         style="fill:#1a1918;fill-opacity:1;fill-rule:nonzero;stroke:none"
         d="m 5744.37,3925.8 c 0,0 -38.33,-33.4 -63.36,-87.6 -14.4,-31.2 -23.84,-181.2 -23.84,-181.2 0,0 -100.11,-386.1 -157.32,-495.8 -57.2,-109.6 -114.41,-433.8 -66.73,-486.2 47.67,-52.5 700.79,-47.7 743.69,0 42.91,47.6 4.77,486.2 0,514.8 -4.76,28.6 4.77,407.6 1.19,429.1 -3.57,21.4 -35.75,50 -35.75,50 0,0 0,193.1 -50.06,243.2 -50.06,50 -347.82,13.7 -347.82,13.7" /><path
         id="path32"
         style="fill:#1a1918;fill-opacity:1;fill-rule:nonzero;stroke:none"
         d="m 6095.77,2771.5 c -100.79,-28.6 -539.9,-32.2 -607.84,0 -22,10.4 -46.23,33.3 -68.97,59.4 -7.02,-74 -4.38,-135.5 14.16,-155.9 47.67,-52.5 700.79,-47.7 743.69,0 15.69,17.4 20.51,87.1 20.13,169.9 -30.77,-33.9 -65.84,-63.4 -101.17,-73.4" /><path
         id="path34"
         style="fill:#1a1918;fill-opacity:1;fill-rule:nonzero;stroke:none"
         d="m 5844.89,9672.2 c 0,0 -136.83,-222.9 -192.58,-339.5 -55.74,-116.6 -76.02,-952.7 -131.76,-1140.2 -55.75,-187.6 -130,-1464.5 -114.8,-1469.5 15.21,-5.1 79.33,-35.7 439.14,-76.2 359.81,-40.6 957.81,-40.6 978.08,0 20.27,40.5 40.54,663.9 50.67,694.3 10.14,30.4 40.54,248.3 50.68,212.8 10.14,-35.5 238.18,-917.3 238.18,-917.3 0,0 380.09,-35.4 709.5,0 329.4,35.5 618.26,162.2 618.26,162.2 0,0 -79.21,598.9 -89.35,862.4 -10.13,263.5 -179.24,1235.7 -265.39,1595.5 -86.15,359.8 -162.17,501.7 -162.17,501.7 l -1251.74,248.3 -876.72,-334.5" /><path
         id="path36"
         style="fill:#12110f;fill-opacity:1;fill-rule:nonzero;stroke:none"
         d="m 6133.75,9717.8 -288.86,-45.6 c 0,0 420.62,-146.9 993.28,-146.9 572.66,0 1135.18,233.1 1135.18,233.1 0,0 -324.34,212.8 -466.24,212.8 -141.89,0 -1373.36,-253.4 -1373.36,-253.4" /><path
         id="path38"
         style="fill:#12110f;fill-opacity:1;fill-rule:nonzero;stroke:none"
         d="m 7147.3,7536.2 c 7.61,45.6 319.27,212.8 319.27,212.8 0,0 0,0 -136.82,-30.4 -136.83,-30.4 -357.28,0 -357.28,0 l -48.15,-164.7 c 10.14,-35.5 238.19,-917.3 238.19,-917.3 0,0 66.08,-6.1 166.86,-10.7 -64.62,299.1 -187.68,876.6 -182.07,910.3" /><path
         id="path40"
         style="fill:#c37140;fill-opacity:1;fill-rule:nonzero;stroke:none"
         d="m 6083.07,13131.9 -330.67,-118.7 c 0,0 -231.85,38 -391.48,-15.2 -159.64,-53.2 -315.47,-334.5 -315.47,-334.5 0,0 -190.04,-79.8 -326.88,-186.2 -136.82,-106.5 -254.65,-257.4 -254.65,-250.4 0,7.1 -38.01,330.2 0,596.2 38.01,266.1 68.41,440.9 68.41,440.9 h -342.07 c 0,0 -182.44,-353.5 -296.46,-676.5 -114.03,-323.1 -106.43,-737.4 -106.43,-737.4 0,0 -41.8,-152 45.61,-228 87.43,-76.1 361.08,-117.9 798.18,-72.3 437.09,45.7 881.79,395.3 881.79,395.3 l 63.34,-311.6 c 0,0 404.16,-186.3 563.79,-15.2 159.64,171 482.71,326.9 338.28,779.2 -144.43,452.2 -395.29,734.4 -395.29,734.4" /><path
         id="path42"
         style="fill:#c37140;fill-opacity:1;fill-rule:nonzero;stroke:none"
         d="m 7493.18,13138.6 c 0,0 176.1,-60.8 318,-136.8 0,0 283.79,65.8 456.1,0 172.31,-65.9 288.86,-334.5 314.2,-339.6 25.34,-5 430.76,-252.3 592.93,-435.3 0,0 5.07,379.6 -30.41,612.7 -35.47,233.1 -71.73,424.4 -71.73,424.4 h 342.08 c 0,0 307.38,-581.5 383.4,-921.1 76.02,-339.5 40.54,-613.1 0,-704.4 -40.54,-91.2 -273.66,-118.9 -405.43,-107.6 -131.76,11.3 -450.69,11.3 -724.52,112.7 -273.83,101.3 -420.79,192.6 -420.79,192.6 l -60.81,-147 c 0,0 -405.42,-50.7 -491.57,25.4 -86.16,76 -321.77,491.5 -321.77,491.5 0,0 -73.53,415.6 -68.46,511.9 5.07,96.3 188.78,420.6 188.78,420.6" /><path
         id="path44"
         style="fill:#a45634;fill-opacity:1;fill-rule:nonzero;stroke:none"
         d="m 5258.29,12538.1 c 0,0 148.23,-338.3 292.67,-490.3 144.43,-152.1 235.04,-205.4 235.04,-205.4 0,0 -81.01,-89.8 -79,-87.7 2.02,2 -102.83,87.8 -194.05,190.4 -91.22,102.7 -288.86,444.7 -254.66,593" /><path
         id="path46"
         style="fill:#a45634;fill-opacity:1;fill-rule:nonzero;stroke:none"
         d="m 8373.71,12505.1 c 1.32,18.2 -177.38,-314.2 -278.73,-445.9 -101.36,-131.8 -192.58,-207.8 -192.58,-207.8 50.68,-45.6 258.46,162.1 258.46,162.1 l 25.34,-324.3 60.81,147 5.07,283.8 c 0,0 101.35,106.4 121.63,385.1" /><path
         id="path48"
         style="fill:#e9eef1;fill-opacity:1;fill-rule:nonzero;stroke:none"
         d="m 6288.31,13108.2 -60.8,47.5 -144.44,-23.8 c 0,0 55.75,-474.7 -50.68,-849.8 -106.42,-375 -456.1,-648.6 -456.1,-648.6 0,0 152.04,-522 207.78,-800.7 55.75,-278.8 60.82,-1160.6 60.82,-1160.6 0,0 582.79,-76 1185.86,-35.4 603.06,40.5 942.6,121.6 942.6,121.6 0,0 25.34,821 45.61,1135.2 20.27,314.2 167.24,795.6 167.24,795.6 0,0 -390.22,283.8 -557.46,592.9 -167.23,309.2 -135.56,856.5 -135.56,856.5 l -125.43,22.8 c 0,0 -491.53,-125.4 -584.04,-121.6 -92.51,3.8 -495.4,68.4 -495.4,68.4" /><path
         id="path50"
         style="fill:#c37140;fill-opacity:1;fill-rule:nonzero;stroke:none"
         d="m 6374.28,13427.4 -21.35,-174.8 -125.43,-96.9 c 0,0 -20.27,-354.1 58.28,-582.2 78.56,-228 301.53,-364.8 592.93,-344.6 291.4,20.3 430.76,230.6 471.3,446 40.55,215.4 17.74,486.5 17.74,486.5 l -116.56,48.1 c 0,0 -35.5,160.7 -58.29,294.5 -22.79,133.8 -425.68,189.5 -483.96,169.2 -58.28,-20.2 -334.66,-245.8 -334.66,-245.8" /><path
         id="path52"
         style="fill:#343434;fill-opacity:1;fill-rule:nonzero;stroke:none"
         d="m 3988.35,13385 c 10.82,90.9 17.07,198.1 17.07,313 0,122.6 -7.1,236.5 -19.29,331.1 h 0.01 c 30.53,-6.4 49.4,33.1 63.34,58.5 13.94,25.3 0,205.2 0,205.2 -102.62,35.5 -158.07,0 -158.07,0 -62.98,0 -114.03,-266.3 -114.03,-594.8 0,-328.5 51.05,-594.8 114.03,-594.8 0,0 52.92,-39.3 158.07,0 73.38,27.4 -6.26,187.5 -61.13,281.8" /><path
         id="path54"
         style="fill:#5e6061;fill-opacity:1;fill-rule:nonzero;stroke:none"
         d="m 4163.51,13698 c 0,-328.5 -51.05,-594.8 -114.03,-594.8 -62.97,0 -114.02,266.3 -114.02,594.8 0,328.5 51.05,594.8 114.02,594.8 62.98,0 114.03,-266.3 114.03,-594.8" /><path
         id="path56"
         style="fill:#8d8d8d;fill-opacity:1;fill-rule:nonzero;stroke:none"
         d="m 4811.95,13815.1 h -734.07 c -29.25,0 -52.95,-23.7 -52.95,-52.9 v -130.1 c 0,-29.2 23.7,-52.9 52.95,-52.9 h 734.07 c 29.25,0 52.96,23.7 52.96,52.9 v 130.1 c 0,29.2 -23.71,52.9 -52.96,52.9" /><path
         id="path58"
         style="fill:#c37140;fill-opacity:1;fill-rule:nonzero;stroke:none"
         d="m 4190.26,13264 -15.2,312.9 h 405.42 c 0,0 68.41,48.2 76.01,63.4 7.61,15.2 20.28,93.8 20.28,93.8 0,0 -88.69,116.5 -83.62,136.8 5.07,20.3 55.74,40.5 103.89,0 48.14,-40.6 60.81,-68.4 70.95,-73.5 10.13,-5.1 35.47,-58.3 35.47,-116.6 0,-58.2 -5.07,-169.7 -30.4,-217.9 -25.35,-48.1 -240.73,-198.9 -240.73,-198.9 h -342.07" /><path
         id="path60"
         style="fill:#c37140;fill-opacity:1;fill-rule:nonzero;stroke:none"
         d="m 4194.06,13845.5 c 0,0 -28.5,-89.3 -19,-133 9.5,-43.7 81.72,-26.6 81.72,-26.6 0,0 3.8,-66.5 34.2,-81.7 30.41,-15.2 72.22,13.3 72.22,13.3 0,0 -5.7,-40.6 47.51,-40.6 53.21,0 58.91,12.1 58.91,12.1 0,0 54.86,-29.8 95.02,-12.1 40.16,17.8 25.06,151.8 32.31,207.8 7.25,56 15.52,104.5 15.52,104.5 0,0 -13.62,30.5 -47.83,32.4 -34.21,1.9 -49.41,-19 -49.41,-19 0,0 -66.51,23.3 -89.32,-8.3 0,0 -105.65,38.2 -139.86,-5.5 0,0 -59.68,6.2 -91.99,-43.3" /><path
         id="path62"
         style="fill:#a45634;fill-opacity:1;fill-rule:nonzero;stroke:none"
         d="m 4446.35,13579.6 c 20.08,3.5 23.27,9.4 23.27,9.4 l 45.91,313.9 -0.3,-0.3 c 0,0 -13.84,4.8 -31.04,7.1 l -37.84,-330.1" /><path
         id="path64"
         style="fill:#a45634;fill-opacity:1;fill-rule:nonzero;stroke:none"
         d="m 4214.42,13683.3 c 21,-2.4 42.36,2.6 42.36,2.6 0,0 0.2,-3.2 0.77,-8.1 8.26,13 14.43,25.2 14.43,25.2 0,0 6.32,111.8 20.19,192 -2.19,-1.9 -4.3,-3.9 -6.12,-6.2 0,0 -13.55,1.2 -31.07,-2.6 -16.99,-60.7 -40.51,-153.8 -40.56,-202.9" /><path
         id="path66"
         style="fill:#a45634;fill-opacity:1;fill-rule:nonzero;stroke:none"
         d="m 4327.02,13601.7 c 19.75,4.6 36.18,15.8 36.18,15.8 l 71.68,285.2 c -3.39,-2.3 -6.48,-5 -8.97,-8.4 0,0 -18.37,6.6 -42.19,11.2 -16.52,-75.3 -50.35,-234.6 -56.7,-303.8" /><path
         id="path68"
         style="fill:#343434;fill-opacity:1;fill-rule:nonzero;stroke:none"
         d="m 5037.53,13409 c 10.81,90.9 17.07,198.1 17.07,313 0,122.6 -7.11,236.5 -19.3,331.2 h 0.01 c 30.54,-6.5 49.41,33.1 63.35,58.4 13.94,25.3 0,205.3 0,205.3 -102.62,35.4 -158.08,0 -158.08,0 -62.98,0 -114.02,-266.4 -114.02,-594.9 0,-328.5 51.04,-594.8 114.02,-594.8 0,0 52.92,-39.3 158.08,0 73.37,27.4 -6.26,187.5 -61.13,281.8" /><path
         id="path70"
         style="fill:#5e6061;fill-opacity:1;fill-rule:nonzero;stroke:none"
         d="m 5212.69,13722 c 0,-328.5 -51.06,-594.8 -114.03,-594.8 -62.98,0 -114.03,266.3 -114.03,594.8 0,328.5 51.05,594.9 114.03,594.9 62.97,0 114.03,-266.4 114.03,-594.9" /><path
         id="path72"
         style="fill:#343434;fill-opacity:1;fill-rule:nonzero;stroke:none"
         d="m 5163.05,13706.8 c 0,-87.1 -19.11,-157.7 -42.68,-157.7 -23.57,0 -42.67,70.6 -42.67,157.7 0,87.1 19.1,157.8 42.67,157.8 23.57,0 42.68,-70.7 42.68,-157.8" /><path
         id="path74"
         style="fill:#343434;fill-opacity:1;fill-rule:nonzero;stroke:none"
         d="m 9622.03,13385 c -10.81,90.9 -17.07,198.1 -17.07,313 0,122.6 7.11,236.5 19.3,331.1 h -0.01 c -30.54,-6.4 -49.41,33.1 -63.35,58.5 -13.94,25.3 0,205.2 0,205.2 102.63,35.5 158.08,0 158.08,0 62.98,0 114.02,-266.3 114.02,-594.8 0,-328.5 -51.04,-594.8 -114.02,-594.8 0,0 -52.92,-39.3 -158.08,0 -73.37,27.4 6.26,187.5 61.13,281.8" /><path
         id="path76"
         style="fill:#5e6061;fill-opacity:1;fill-rule:nonzero;stroke:none"
         d="m 9446.88,13698 c 0,-328.5 51.05,-594.8 114.02,-594.8 62.98,0 114.03,266.3 114.03,594.8 0,328.5 -51.05,594.8 -114.03,594.8 -62.97,0 -114.02,-266.3 -114.02,-594.8" /><path
         id="path78"
         style="fill:#8d8d8d;fill-opacity:1;fill-rule:nonzero;stroke:none"
         d="m 8798.43,13815.1 h 734.07 c 29.25,0 52.96,-23.7 52.96,-52.9 v -130.1 c 0,-29.2 -23.71,-52.9 -52.96,-52.9 h -734.07 c -29.25,0 -52.96,23.7 -52.96,52.9 v 130.1 c 0,29.2 23.71,52.9 52.96,52.9" /><path
         id="path80"
         style="fill:#c37140;fill-opacity:1;fill-rule:nonzero;stroke:none"
         d="m 9417.72,13214.5 17.61,362.4 h -405.42 c 0,0 -68.42,48.2 -76.02,63.4 -7.6,15.2 -20.27,93.8 -20.27,93.8 0,0 88.68,116.5 83.62,136.8 -5.07,20.3 -55.75,40.5 -103.9,0 -48.13,-40.6 -60.81,-68.4 -70.94,-73.5 -10.14,-5.1 -35.48,-58.3 -35.48,-116.6 0,-58.2 5.07,-169.7 30.41,-217.9 25.34,-48.1 240.72,-198.9 240.72,-198.9 l 339.67,-49.5" /><path
         id="path82"
         style="fill:#c37140;fill-opacity:1;fill-rule:nonzero;stroke:none"
         d="m 9416.32,13845.5 c 0,0 28.51,-89.3 19.01,-133 -9.5,-43.7 -81.72,-26.6 -81.72,-26.6 0,0 -3.8,-66.5 -34.21,-81.7 -30.41,-15.2 -72.21,13.3 -72.21,13.3 0,0 5.7,-40.6 -47.51,-40.6 -53.22,0 -58.92,12.1 -58.92,12.1 0,0 -54.86,-29.8 -95.02,-12.1 -40.16,17.8 -25.05,151.8 -32.3,207.8 -7.26,56 -15.52,104.5 -15.52,104.5 0,0 13.61,30.5 47.82,32.4 34.21,1.9 49.41,-19 49.41,-19 0,0 66.52,23.3 89.32,-8.3 0,0 105.66,38.2 139.87,-5.5 0,0 59.67,6.2 91.98,-43.3" /><path
         id="path84"
         style="fill:#a45634;fill-opacity:1;fill-rule:nonzero;stroke:none"
         d="m 9164.03,13579.6 c -20.07,3.5 -23.27,9.4 -23.27,9.4 l -45.9,313.9 0.29,-0.3 c 0,0 13.85,4.8 31.04,7.1 l 37.84,-330.1" /><path
         id="path86"
         style="fill:#a45634;fill-opacity:1;fill-rule:nonzero;stroke:none"
         d="m 9395.97,13683.3 c -21.01,-2.4 -42.36,2.6 -42.36,2.6 0,0 -0.2,-3.2 -0.77,-8.1 -8.26,13 -14.43,25.2 -14.43,25.2 0,0 -6.33,111.8 -20.19,192 2.19,-1.9 4.3,-3.9 6.12,-6.2 0,0 13.54,1.2 31.07,-2.6 16.98,-60.7 40.51,-153.8 40.56,-202.9" /><path
         id="path88"
         style="fill:#a45634;fill-opacity:1;fill-rule:nonzero;stroke:none"
         d="m 9283.36,13601.7 c -19.75,4.6 -36.18,15.8 -36.18,15.8 l -71.67,285.2 c 3.39,-2.3 6.47,-5 8.96,-8.4 0,0 18.37,6.6 42.2,11.2 16.51,-75.3 50.34,-234.6 56.69,-303.8" /><path
         id="path90"
         style="fill:#343434;fill-opacity:1;fill-rule:nonzero;stroke:none"
         d="m 8572.85,13409 c -10.81,90.9 -17.07,198.1 -17.07,313 0,122.6 7.12,236.5 19.3,331.2 h -0.01 c -30.53,-6.5 -49.41,33.1 -63.34,58.4 -13.94,25.3 0,205.3 0,205.3 102.62,35.4 158.07,0 158.07,0 62.98,0 114.03,-266.4 114.03,-594.9 0,-328.5 -51.05,-594.8 -114.03,-594.8 0,0 -52.92,-39.3 -158.07,0 -73.38,27.4 6.26,187.5 61.12,281.8" /><path
         id="path92"
         style="fill:#5e6061;fill-opacity:1;fill-rule:nonzero;stroke:none"
         d="m 8397.7,13722 c 0,-328.5 51.05,-594.8 114.03,-594.8 62.97,0 114.02,266.3 114.02,594.8 0,328.5 -51.05,594.9 -114.02,594.9 -62.98,0 -114.03,-266.4 -114.03,-594.9" /><path
         id="path94"
         style="fill:#343434;fill-opacity:1;fill-rule:nonzero;stroke:none"
         d="m 8447.34,13706.8 c 0,-87.1 19.11,-157.7 42.67,-157.7 23.57,0 42.68,70.6 42.68,157.7 0,87.1 -19.11,157.8 -42.68,157.8 -23.56,0 -42.67,-70.7 -42.67,-157.8" /><g
         id="g96"><g
           clip-path="url(#clipPath102)"
           id="g98"><path
             id="path104"
             style="fill:#d1d6d7;fill-opacity:1;fill-rule:nonzero;stroke:none"
             d="m 6701.34,11597.2 h 222.98 v 223.77 h -222.98 z" /></g></g><path
         id="path106"
         style="fill:#d1d6d7;fill-opacity:1;fill-rule:nonzero;stroke:none"
         d="m 7139.71,11593.9 c -75.02,0 -208.92,23.6 -184.98,196.7 0,0 50.68,-73.5 98.82,-119.1 48.14,-45.6 134.3,-74.3 134.3,-74.3 0,0 -19.9,-3.3 -48.14,-3.3" /><path
         id="path108"
         style="fill:#b6643b;fill-opacity:1;fill-rule:nonzero;stroke:none"
         d="m 5031.97,12077.7 c -6.71,0 -13.62,0.2 -20.73,0.5 0,0 163.43,107.5 201.44,148.7 3.28,3.6 7.48,5.2 11.98,5.2 17.14,0 38.63,-22.6 29.7,-43.7 -10.82,-25.6 -60.32,-110.7 -222.39,-110.7" /><path
         id="path110"
         style="fill:#b6643b;fill-opacity:1;fill-rule:nonzero;stroke:none"
         d="m 8607.83,12077.7 c -162.07,0 -211.57,85.1 -222.39,110.7 -8.93,21.1 12.56,43.7 29.7,43.7 4.5,0 8.7,-1.6 11.97,-5.2 38.01,-41.2 201.45,-148.7 201.45,-148.7 -7.11,-0.3 -14.02,-0.5 -20.73,-0.5" /><path
         id="path112"
         style="fill:#c37140;fill-opacity:1;fill-rule:nonzero;stroke:none"
         d="m 6374.28,13427.4 h 827.54 c -13.6,98.9 -26.22,279.7 -26.22,279.7 l -802.15,38.6 c 0,0 5.94,-244.1 0.83,-318.3" /><path
         id="path114"
         style="fill:#c37140;fill-opacity:1;fill-rule:nonzero;stroke:none"
         d="m 12806.5,12234.4 c 0,0 42,-296.8 103.7,-514.9 61.6,-218 650.7,-183.2 650.7,-183.2 l 260.7,746 c 0,0 6.6,692.7 -34.7,719.3 -41.3,26.5 -266.1,261.4 -266.1,261.4 l -406.4,-134.2 -307.9,-894.4" /><g
         transform="scale(1.00507)"
         id="g116"><path
           id="path118"
           style="fill:#c37140;fill-opacity:1;fill-rule:nonzero;stroke:none"
           d="m 13452.6,13196.1 c 0,0 -26.8,53.1 -112.2,150.3 -85.5,97.1 -225.4,186.5 -244.9,205.9 -19.4,19.5 -69.9,89.4 -89.3,178.8 -19.6,89.4 -54.5,373.1 -147.7,536.3 -93.3,163.3 -206.1,279.8 -206.1,279.8 0,0 15.7,342 -19.4,652.9 -35,311 -50.5,505.3 -35,668.5 15.6,163.2 38.9,431.4 38.9,431.4 h -361.4 c 0,0 -116.6,-664.6 -136.1,-734.5 -19.4,-70 -77.7,-213.8 -69.9,-493.6 7.8,-279.8 19.4,-443 23.3,-489.7 4,-46.6 101.1,-384.7 108.8,-559.6 7.8,-174.9 23.4,-513 120.5,-734.5 97.2,-221.6 287.7,-439.2 330.3,-532.5 42.8,-93.2 89.5,-582.9 89.5,-582.9 0,0 260.4,163.2 411.9,357.5 151.6,194.3 298.8,665.9 298.8,665.9" /></g><path
         id="path120"
         style="fill:#a45634;fill-opacity:1;fill-rule:nonzero;stroke:none"
         d="m 12419.8,14503.8 c 0,0 93.7,23.5 121.1,39.1 27.3,15.6 93.7,50.8 93.7,50.8 0,0 -35.2,-101.6 -89.8,-109.4 -54.7,-7.8 -125,19.5 -125,19.5" /><g
         transform="scale(1.00565)"
         id="g122"><path
           id="path124"
           style="fill:#c37140;fill-opacity:1;fill-rule:nonzero;stroke:none"
           d="m 14659.2,13187.1 c 0,0 86.7,65.8 167,167.2 80.2,101.5 163.5,140.1 181.9,160.5 18.4,20.4 65.2,92.9 79.9,183.1 14.8,90.2 34.8,375.2 119.4,543 84.5,167.8 190.9,290 190.9,290 0,0 -33.4,340.6 -14.7,652.7 18.6,312.1 24,506.9 -0.1,669 -24,162.1 -61.2,428.5 -61.2,428.5 l 360.6,18.9 c 0,0 151.2,-657.2 174.2,-726 23.1,-68.8 88.7,-209.3 95.6,-488.9 6.9,-279.7 3.8,-443.2 2.4,-490 -1.5,-46.7 -80.8,-389.3 -79.4,-564.2 1.4,-175 3.5,-513.3 -81.8,-739.4 -85.4,-226.2 -264.1,-453.4 -301.9,-548.7 -37.8,-95.3 -136.5,-938.5 -136.5,-938.5 0,0 -465.2,18.7 -626.6,204.7 -161.5,186 -69.7,1178.1 -69.7,1178.1" /></g><path
         id="path126"
         style="fill:#a45634;fill-opacity:1;fill-rule:nonzero;stroke:none"
         d="m 15787.9,14511.5 c 0,0 -94.9,18.5 -123,32.7 -28.1,14.2 -96.2,45.8 -96.2,45.8 0,0 40.4,-99.6 95.4,-104.5 55,-5 123.8,26 123.8,26" /><path
         id="path128"
         style="fill:#c37140;fill-opacity:1;fill-rule:nonzero;stroke:none"
         d="m 15479.3,6510.5 c -13.7,178.9 -64.3,584.5 40.7,949.8 44.1,153.3 64.8,264.7 74,342.4 h -1134.5 c 27.2,-139.8 64.8,-350.1 78.7,-511.4 22.9,-264.8 255.8,-872.2 260.3,-936.1 4.6,-63.9 -36.5,-292.2 -68.5,-602.7 -31.9,-310.6 54.8,-593.7 118.8,-794.6 63.9,-200.9 141.5,-726 150.6,-858.5 9.2,-132.4 13.7,-388.1 13.7,-388.1 0,0 59.4,-289.8 137,-296.8 77.7,-7.1 324.2,225.8 324.2,225.8 0,0 -13.7,468.3 0,682.9 13.7,214.6 151.3,924.9 137.6,1303.9 -13.7,379 -118.9,704.4 -132.6,883.4" /><path
         id="path130"
         style="fill:#f7f7f7;fill-opacity:1;fill-rule:nonzero;stroke:none"
         d="m 15479.3,4375.2 c -2.2,-19 -4,-36.6 -5,-52 -13.7,-214.6 0,-682.9 0,-682.9 0,0 -246.5,-232.9 -324.2,-225.8 -77.6,7 -160.1,204.4 -160.1,204.4 0,0 5.5,293.3 -3.6,425.7 -3.4,48.9 -3.1,206.2 -21,326.1 201.4,-2 390.9,1.4 513.9,4.5" /><path
         id="path132"
         style="fill:#1a1918;fill-opacity:1;fill-rule:nonzero;stroke:none"
         d="m 15423.7,3925.8 c 0,0 38.3,-33.4 63.3,-87.6 14.4,-31.2 23.9,-181.2 23.9,-181.2 0,0 100.1,-386.1 157.3,-495.8 57.2,-109.6 114.4,-433.8 66.7,-486.2 -47.7,-52.5 -700.8,-47.7 -743.7,0 -42.9,47.6 -4.7,486.2 0,514.8 4.8,28.6 -4.7,407.6 -1.2,429.1 3.6,21.4 35.8,50 35.8,50 0,0 0,193.1 50,243.2 50.1,50 347.9,13.7 347.9,13.7" /><path
         id="path134"
         style="fill:#1a1918;fill-opacity:1;fill-rule:nonzero;stroke:none"
         d="m 15072.3,2771.5 c 100.8,-28.6 539.9,-32.2 607.8,0 22,10.4 46.2,33.3 69,59.4 7,-74 4.4,-135.5 -14.2,-155.9 -47.7,-52.5 -700.8,-47.7 -743.7,0 -15.7,17.4 -20.5,87.1 -20.1,169.9 30.8,-33.9 65.8,-63.4 101.2,-73.4" /><path
         id="path136"
         style="fill:#c37140;fill-opacity:1;fill-rule:nonzero;stroke:none"
         d="m 13863,7291.3 c 13.9,161.3 51.5,371.6 78.8,511.4 h -1134.6 c 9.2,-77.7 29.9,-189.1 74,-342.4 105.1,-365.3 54.4,-770.9 40.7,-949.8 -13.7,-179 -118.9,-504.4 -132.6,-883.4 -13.7,-379 123.9,-1089.3 137.6,-1303.9 13.7,-214.6 0,-682.9 0,-682.9 0,0 246.6,-232.9 324.2,-225.8 77.6,7 137,296.8 137,296.8 0,0 4.6,255.7 13.7,388.1 9.1,132.5 86.8,657.6 150.7,858.5 63.9,200.9 150.7,484 118.7,794.6 -32,310.5 -73.1,538.8 -68.5,602.7 4.6,63.9 237.5,671.3 260.3,936.1" /><path
         id="path138"
         style="fill:#f7f7f7;fill-opacity:1;fill-rule:nonzero;stroke:none"
         d="m 12921.9,4375.2 c 2.3,-19 4,-36.6 5,-52 13.7,-214.6 0,-682.9 0,-682.9 0,0 246.6,-232.9 324.2,-225.8 77.6,7 160.1,204.4 160.1,204.4 0,0 -5.5,293.3 3.7,425.7 3.3,48.9 3,206.2 20.9,326.1 -201.4,-2 -390.8,1.4 -513.9,4.5" /><path
         id="path140"
         style="fill:#1a1918;fill-opacity:1;fill-rule:nonzero;stroke:none"
         d="m 12977.6,3925.8 c 0,0 -38.4,-33.4 -63.4,-87.6 -14.4,-31.2 -23.8,-181.2 -23.8,-181.2 0,0 -100.1,-386.1 -157.3,-495.8 -57.3,-109.6 -114.5,-433.8 -66.8,-486.2 47.7,-52.5 700.8,-47.7 743.7,0 42.9,47.6 4.8,486.2 0,514.8 -4.8,28.6 4.8,407.6 1.2,429.1 -3.6,21.4 -35.8,50 -35.8,50 0,0 0,193.1 -50,243.2 -50.1,50 -347.8,13.7 -347.8,13.7" /><path
         id="path142"
         style="fill:#1a1918;fill-opacity:1;fill-rule:nonzero;stroke:none"
         d="m 13329,2771.5 c -100.8,-28.6 -539.9,-32.2 -607.9,0 -22,10.4 -46.2,33.3 -69,59.4 -7,-74 -4.3,-135.5 14.2,-155.9 47.7,-52.5 700.8,-47.7 743.7,0 15.7,17.4 20.5,87.1 20.1,169.9 -30.7,-33.9 -65.8,-63.4 -101.1,-73.4" /><g
         transform="scale(1.06313)"
         id="g144"><path
           id="path146"
           style="fill:#343434;fill-opacity:1;fill-rule:nonzero;stroke:none"
           d="m 15048.9,15414.6 c -7.1,85.8 -9.5,186.8 -5.7,294.8 4,115.3 14.5,222.1 29.1,310.7 v 0 c -29,-5.1 -45.4,32.7 -57.7,57 -12.2,24.3 6.8,192.9 6.8,192.9 97.6,30 148.6,-5.2 148.6,-5.2 59.1,-2 98.4,-254.1 87.6,-562.9 -10.9,-308.8 -67.7,-557.5 -126.8,-555.4 0,0 -51,-35.2 -148.7,5.2 -68,28.2 12.2,176 66.8,262.9" /></g><g
         transform="scale(1.06131)"
         id="g148"><path
           id="path150"
           style="fill:#5e6061;fill-opacity:1;fill-rule:nonzero;stroke:none"
           d="m 14920.1,15741.6 c -10.8,-309.4 28.5,-561.9 87.7,-563.9 59.4,-2.1 116.2,247 127,556.3 10.9,309.4 -28.4,561.8 -87.7,563.9 -59.3,2.1 -116.2,-247 -127,-556.3" /></g><g
         transform="scale(1.03271)"
         id="g152"><path
           id="path154"
           style="fill:#8d8d8d;fill-opacity:1;fill-rule:nonzero;stroke:none"
           d="m 14694.2,16299 710.4,-24.9 c 28.3,-1 50.4,-24.7 49.5,-53 l -4.5,-125.9 c -1,-28.3 -24.8,-50.5 -53.1,-49.5 l -710.3,24.9 c -28.3,1 -50.5,24.8 -49.5,53.1 l 4.5,125.9 c 0.9,28.3 24.6,50.4 53,49.4" /></g><g
         transform="scale(1.0382)"
         id="g156"><path
           id="path158"
           style="fill:#c37140;fill-opacity:1;fill-rule:nonzero;stroke:none"
           d="m 15196.4,15661.3 25.1,300.7 -390.3,13.7 c 0,0 -64.1,48.7 -71,63.6 -6.8,14.9 -16.4,90.9 -16.4,90.9 0,0 89.3,109.2 85.2,128.9 -4.2,19.7 -52.3,40.9 -100,3.5 -47.8,-37.4 -60.9,-63.8 -70.8,-68.3 -9.9,-4.6 -36.1,-54.9 -38.1,-111 -2,-56.1 -0.8,-163.6 21.9,-210.8 22.8,-47.2 225,-199.6 225,-199.6 l 329.4,-11.6" /></g><g
         transform="scale(1.03878)"
         id="g160"><path
           id="path162"
           style="fill:#c37140;fill-opacity:1;fill-rule:nonzero;stroke:none"
           d="m 15203.6,16212.1 c 0,0 24.5,-86.9 13.9,-128.7 -10.7,-41.7 -79.5,-22.8 -79.5,-22.8 0,0 -6,-63.9 -35.7,-77.5 -29.8,-13.6 -69,15.3 -69,15.3 0,0 4.1,-39.2 -47.1,-37.4 -51.2,1.7 -56.2,13.5 -56.2,13.5 0,0 -53.8,-26.8 -91.9,-8.4 -38,18.5 -18.9,146.9 -24,201 -5.1,54.2 -11.5,101 -11.5,101 0,0 14.2,28.9 47.2,29.6 32.9,0.7 46.9,-20 46.9,-20 0,0 64.7,20.3 85.5,-10.9 0,0 103,33.2 134.4,-10 0,0 57.7,3.9 87,-44.7" /></g><g
         transform="scale(1.03773)"
         id="g164"><path
           id="path166"
           style="fill:#a45634;fill-opacity:1;fill-rule:nonzero;stroke:none"
           d="m 14967.1,15980.8 c -19.2,4.1 -22,9.9 -22,9.9 l -33.7,303.9 0.3,-0.4 c 0,0 13.5,4.2 30.1,5.8 l 25.3,-319.2" /></g><g
         transform="scale(1.03642)"
         id="g168"><path
           id="path170"
           style="fill:#a45634;fill-opacity:1;fill-rule:nonzero;stroke:none"
           d="m 15213.2,16093.3 c -20.3,-1.7 -40.7,3.9 -40.7,3.9 0,0 -0.3,-3.1 -1.1,-7.8 -7.5,12.8 -13,24.8 -13,24.8 0,0 -2.3,108 -13,185.8 2.1,-1.9 4,-3.9 5.7,-6.2 0,0 13.1,0.7 29.9,-3.5 14.3,-59.2 33.9,-149.7 32.2,-197" /></g><g
         transform="scale(1.03726)"
         id="g172"><path
           id="path174"
           style="fill:#a45634;fill-opacity:1;fill-rule:nonzero;stroke:none"
           d="m 15089.7,16005.4 c -18.9,5.1 -34.4,16.5 -34.4,16.5 l -59.4,277.2 c 3.2,-2.3 6.1,-5 8.3,-8.4 0,0 18,5.7 41.1,9.3 13.4,-73.1 40.6,-227.7 44.4,-294.6" /></g><g
         transform="scale(1.06597)"
         id="g176"><path
           id="path178"
           style="fill:#343434;fill-opacity:1;fill-rule:nonzero;stroke:none"
           d="m 14010.8,15417 c -7.2,85.6 -9.5,186.3 -5.8,294 4.1,114.9 14.5,221.5 29,309.8 -28.9,-5 -45.2,32.7 -57.5,56.9 -12.2,24.2 6.8,192.4 6.8,192.4 97.3,29.9 148.2,-5.2 148.2,-5.2 59,-2 98.1,-253.4 87.3,-561.4 -10.8,-308 -67.4,-556 -126.4,-553.9 0,0 -51,-35.1 -148.3,5.2 -67.8,28.1 12.1,175.5 66.7,262.2" /></g><g
         transform="scale(1.06416)"
         id="g180"><path
           id="path182"
           style="fill:#5e6061;fill-opacity:1;fill-rule:nonzero;stroke:none"
           d="m 13880.5,15743.1 c -10.8,-308.6 28.4,-560.4 87.5,-562.4 59.2,-2.1 115.8,246.3 126.7,554.8 10.8,308.6 -28.3,560.3 -87.5,562.4 -59.1,2.1 -115.9,-246.3 -126.7,-554.8" /></g><g
         transform="scale(1.03639)"
         id="g184"><path
           id="path186"
           style="fill:#343434;fill-opacity:1;fill-rule:nonzero;stroke:none"
           d="m 14299.8,16148.5 c -3,-84 13.1,-152.7 35.8,-153.5 22.8,-0.8 43.5,66.7 46.5,150.7 2.9,84 -13.1,152.7 -35.8,153.5 -22.8,0.8 -43.6,-66.7 -46.5,-150.7" /></g><path
         id="path188"
         style="fill:#a45634;fill-opacity:1;fill-rule:nonzero;stroke:none"
         d="m 15569.2,12764.6 c 0,0 0,0 -33,42.8 -33,42.7 -72.3,135.1 -72.3,135.1 0,0 11.6,-129.6 40.4,-187.5 28.8,-57.8 49.8,-54.7 49.8,-54.7 l 15.1,64.3" /><path
         id="path190"
         style="fill:#1a1918;fill-opacity:1;fill-rule:nonzero;stroke:none"
         d="m 13086.3,9672.2 c 0,0 -136.8,-222.9 -192.5,-339.5 -55.8,-116.6 -76.1,-952.7 -131.8,-1140.2 -55.7,-187.6 -130,-1464.5 -114.8,-1469.5 15.2,-5.1 79.3,-35.7 439.1,-76.2 359.8,-40.6 957.8,-40.6 978.1,0 20.3,40.5 40.6,663.9 50.7,694.3 10.1,30.4 40.5,248.3 50.7,212.8 10.1,-35.5 238.2,-917.3 238.2,-917.3 0,0 380,-35.4 709.4,0 329.5,35.5 618.3,162.2 618.3,162.2 0,0 -79.2,598.9 -89.3,862.4 -10.2,263.5 -179.3,1235.7 -265.4,1595.5 -86.2,359.8 -162.2,501.7 -162.2,501.7 l -1251.7,248.3 -876.8,-334.5" /><path
         id="path192"
         style="fill:#12110f;fill-opacity:1;fill-rule:nonzero;stroke:none"
         d="m 13375.2,9717.8 -288.9,-45.6 c 0,0 420.7,-146.9 993.3,-146.9 572.7,0 1135.2,233.1 1135.2,233.1 0,0 -324.3,212.8 -466.2,212.8 -141.9,0 -1373.4,-253.4 -1373.4,-253.4" /><path
         id="path194"
         style="fill:#12110f;fill-opacity:1;fill-rule:nonzero;stroke:none"
         d="m 14388.8,7536.2 c 7.6,45.6 319.2,212.8 319.2,212.8 0,0 0,0 -136.8,-30.4 -136.8,-30.4 -357.3,0 -357.3,0 l -48.1,-164.7 c 10.1,-35.5 238.2,-917.3 238.2,-917.3 0,0 66,-6.1 166.8,-10.7 -64.6,299.1 -187.7,876.6 -182,910.3" /><path
         id="path196"
         style="fill:#12110f;fill-opacity:1;fill-rule:nonzero;stroke:none"
         d="m 13372.2,9717.8 -288.8,-45.6 c 0,0 420.6,-146.9 993.3,-146.9 572.6,0 1135.1,233.1 1135.1,233.1 0,0 -324.3,212.8 -466.2,212.8 -141.9,0 -1373.4,-253.4 -1373.4,-253.4" /><path
         id="path198"
         style="fill:#e9eef1;fill-opacity:1;fill-rule:nonzero;stroke:none"
         d="m 13669,13288 -148.2,-25 21.2,-271.4 c 0,0 20.3,-425.7 -138,-790.5 -155.1,-357.7 -493.8,-481.6 -493.8,-481.6 0,0 56.6,-608 112.4,-886.7 55.7,-278.8 60.8,-1160.6 60.8,-1160.6 0,0 582.8,-76 1185.8,-35.4 603.1,40.5 942.6,121.6 942.6,121.6 0,0 25.4,821 45.6,1135.2 20.3,314.2 184.8,977.3 184.8,977.3 0,0 -407.7,102.1 -575,411.2 -167.2,309.2 -125.2,979.5 -125.2,979.5 l -317.3,-6.7 c 0,0 -310,-218.9 -402.5,-215.1 -92.5,3.8 -353.2,248.2 -353.2,248.2" /><path
         id="path200"
         style="fill:#c37140;fill-opacity:1;fill-rule:nonzero;stroke:none"
         d="m 13686,13427.4 -17,-139.4 74,-202.1 c 0,0 4.8,-278 83.3,-506 78.6,-228.1 73.4,-322.3 364.1,-351 257.9,-25.4 341.4,72 381.9,287.4 40.6,215.4 7.5,620.3 7.5,620.3 l -16.9,72.9 c 0,0 -35.5,160.7 -58.3,294.5 -22.8,133.8 -425.7,189.5 -483.9,169.2 -58.3,-20.2 -334.7,-245.8 -334.7,-245.8" /><path
         id="path202"
         style="fill:#ac5d36;fill-opacity:1;fill-rule:nonzero;stroke:none"
         d="m 15078.9,12048.5 c 0,0 26.1,244.1 14.3,482 -11.5,233.6 -76.7,621.9 -73.5,621.9 0.1,0 0.1,-0.1 0.2,-0.4 229.4,-581.6 59,-1103.5 59,-1103.5" /><path
         id="path204"
         style="fill:#ac5d36;fill-opacity:1;fill-rule:nonzero;stroke:none"
         d="m 13227.7,12163.6 c 0,0 -61.6,133 -106.8,319.7 16.4,16.1 32.4,32.6 47.9,49.6 15.3,-116.1 34.6,-241.6 58.9,-369.3" /><path
         id="path206"
         style="fill:#ac5d36;fill-opacity:1;fill-rule:nonzero;stroke:none"
         d="m 13120.9,12483.3 c -45.5,187.8 -74.2,430 -6.5,645.5 0,0 10,-258.1 54.4,-595.9 -15.5,-17 -31.5,-33.5 -47.9,-49.6" /><path
         id="path208"
         style="fill:#a45634;fill-opacity:1;fill-rule:nonzero;stroke:none"
         d="m 12731.9,12787.4 c 0,0 31.3,16 64.4,58.8 33,42.7 72.2,135.1 72.2,135.1 0,0 -11.6,-129.6 -40.3,-187.5 -28.8,-57.8 -82.9,-69.1 -82.9,-69.1 l -13.4,62.7" /><path
         id="path210"
         style="fill:#c37140;fill-opacity:1;fill-rule:nonzero;stroke:none"
         d="m 13686,13427.4 h 827.5 c -13.6,98.9 -26.2,279.7 -26.2,279.7 l -802.1,38.6 c 0,0 5.9,-244.1 0.8,-318.3" /><g
         transform="scale(1.06269)"
         id="g212"><path
           id="path214"
           style="fill:#343434;fill-opacity:1;fill-rule:nonzero;stroke:none"
           d="m 11387.3,15415.2 c 6.1,85.9 7.2,187 2,294.9 -5.3,115.3 -17.1,222 -32.8,310.4 29,-4.6 45,33.4 56.9,57.8 12.1,24.4 -9.1,192.9 -9.1,192.9 -98.1,28.8 -148.6,-7 -148.6,-7 -59.2,-2.8 -95.3,-255.4 -80.6,-564.2 14.5,-308.8 74.4,-556.8 133.6,-554 0,0 51.5,-34.6 148.6,7 67.7,29 -14.2,175.9 -70,262.2" /></g><g
         transform="scale(1.061)"
         id="g216"><path
           id="path218"
           style="fill:#5e6061;fill-opacity:1;fill-rule:nonzero;stroke:none"
           d="m 11556.4,15742.3 c 14.6,-309.3 -21.6,-562.3 -80.9,-565.1 -59.2,-2.8 -119.2,245.6 -133.8,554.9 -14.7,309.3 21.5,562.3 80.8,565.1 59.3,2.8 119.2,-245.6 133.9,-554.9" /></g><g
         transform="scale(1.03297)"
         id="g220"><path
           id="path222"
           style="fill:#8d8d8d;fill-opacity:1;fill-rule:nonzero;stroke:none"
           d="m 12507.3,16298.7 -709.8,-33.7 c -28.2,-1.3 -50.1,-25.3 -48.7,-53.6 l 5.9,-125.8 c 1.3,-28.2 25.3,-50.1 53.6,-48.7 l 709.9,33.6 c 28.3,1.3 50.1,25.3 48.8,53.6 l -6,125.8 c -1.4,28.2 -25.4,50.1 -53.7,48.8" /></g><g
         transform="scale(1.03831)"
         id="g224"><path
           id="path226"
           style="fill:#c37140;fill-opacity:1;fill-rule:nonzero;stroke:none"
           d="m 11870,15656.3 -28.8,300.3 390,18.5 c 0,0 63.6,49.4 70.2,64.4 6.7,15 15.2,91.1 15.2,91.1 0,0 -90.6,108.1 -86.6,127.9 3.9,19.7 51.8,41.5 99.9,4.7 48.2,-36.8 61.7,-63.1 71.7,-67.5 9.9,-4.4 36.7,-54.4 39.4,-110.5 2.7,-56.1 2.9,-163.5 -19.4,-211 -22.1,-47.5 -222.5,-202.3 -222.5,-202.3 l -329.1,-15.6" /></g><g
         transform="scale(1.0387)"
         id="g228"><path
           id="path230"
           style="fill:#c37140;fill-opacity:1;fill-rule:nonzero;stroke:none"
           d="m 11842.7,16209.8 c 0,0 -23.4,-87.2 -12.2,-128.8 11.2,-41.6 79.8,-21.9 79.8,-21.9 0,0 6.7,-63.8 36.6,-77 29.9,-13.3 68.8,16.1 68.8,16.1 0,0 -3.6,-39.3 47.6,-36.9 51.1,2.4 56.1,14.3 56.1,14.3 0,0 54.1,-26.2 92,-7.3 37.7,18.9 17.1,147.1 21.5,201.3 4.5,54.2 10.2,101.2 10.2,101.2 0,0 -14.5,28.7 -47.4,28.9 -33.1,0.3 -46.7,-20.5 -46.7,-20.5 0,0 -65,19.5 -85.5,-12 0,0 -103.4,32 -134.3,-11.6 0,0 -57.7,3.1 -86.5,-45.8" /></g><g
         transform="scale(1.03773)"
         id="g232"><path
           id="path234"
           style="fill:#a45634;fill-opacity:1;fill-rule:nonzero;stroke:none"
           d="m 12108.9,15980.5 c 19.2,4.3 22,10.2 22,10.2 l 29.8,304.2 -0.3,-0.3 c 0,0 -13.5,4 -30.1,5.4 l -21.4,-319.5" /></g><g
         transform="scale(1.03627)"
         id="g236"><path
           id="path238"
           style="fill:#a45634;fill-opacity:1;fill-rule:nonzero;stroke:none"
           d="m 11897.6,16092.4 c 20.3,-1.4 40.7,4.4 40.7,4.4 0,0 0.3,-3 1.1,-7.8 7.4,12.9 12.8,25 12.8,25 0,0 1,108.1 10.6,186 -2,-1.9 -3.9,-3.9 -5.6,-6.2 0,0 -13.1,0.5 -29.8,-4 -13.6,-59.3 -32,-150 -29.8,-197.4" /></g><g
         transform="scale(1.03718)"
         id="g240"><path
           id="path242"
           style="fill:#a45634;fill-opacity:1;fill-rule:nonzero;stroke:none"
           d="m 11999.3,16004.9 c 18.8,5.3 34.1,16.8 34.1,16.8 l 56.1,278 c -3.2,-2.3 -6,-5.1 -8.2,-8.5 0,0 -18.1,5.5 -41.2,8.8 -12.4,-73.2 -37.8,-228.2 -40.8,-295.1" /></g><g
         transform="scale(1.06634)"
         id="g244"><path
           id="path246"
           style="fill:#343434;fill-opacity:1;fill-rule:nonzero;stroke:none"
           d="m 12345.4,15418.2 c 6,85.7 7.1,186.4 2,294 -5.4,114.8 -17.1,221.2 -32.7,309.3 28.9,-4.7 44.8,33.2 56.7,57.6 11.9,24.3 -9.1,192.2 -9.1,192.2 -97.7,28.7 -148.1,-7 -148.1,-7 -58.9,-2.8 -95,-254.5 -80.4,-562.2 14.6,-307.8 74.2,-555 133.1,-552.2 0,0 51.4,-34.4 148.1,7 67.5,29 -14.1,175.4 -69.6,261.3" /></g><g
         transform="scale(1.06464)"
         id="g248"><path
           id="path250"
           style="fill:#5e6061;fill-opacity:1;fill-rule:nonzero;stroke:none"
           d="m 12515.4,15744.2 c 14.6,-308.2 -21.5,-560.4 -80.6,-563.2 -59.1,-2.8 -118.8,244.8 -133.4,553 -14.6,308.3 21.5,560.4 80.6,563.2 59.1,2.8 118.8,-244.8 133.4,-553" /></g><g
         transform="scale(1.03688)"
         id="g252"><path
           id="path254"
           style="fill:#343434;fill-opacity:1;fill-rule:nonzero;stroke:none"
           d="m 12803.4,16148.9 c 4,-83.9 -11.2,-152.8 -33.9,-153.9 -22.7,-1.1 -44.3,66.1 -48.3,150 -3.9,83.9 11.2,152.8 34,153.9 22.6,1.1 44.2,-66.1 48.2,-150" /></g><path
         id="path256"
         style="fill:#a45634;fill-opacity:1;fill-rule:nonzero;stroke:none"
         d="m 13314.2,13503.5 c 0,0 -9.3,-108.1 -18.3,-156.1 -9,-47.9 -9,-47.9 -9,-47.9 0,0 73.3,92.5 88.7,148.7 l -61.4,55.3" /><path
         id="path258"
         style="fill:#a45634;fill-opacity:1;fill-rule:nonzero;stroke:none"
         d="m 14968.3,13465.3 c 0,0 -9,-69.9 0,-117.9 9,-47.9 9,-47.9 9,-47.9 0,0 -61.7,55.6 -77.1,111.7 l 68.1,54.1" /><path
         id="path260"
         style="fill:#a45634;fill-opacity:1;fill-rule:nonzero;stroke:none"
         d="m 13745.8,13589.5 c 0,0 94.9,-246 195.2,-325.5 100.3,-79.6 212,-51.3 309.4,27.3 97.5,78.7 219.9,379.5 219.9,379.5 0,0 -451.7,53.1 -466.1,56.8 -14.3,3.6 -258.4,-138.1 -258.4,-138.1" /><path
         id="path262"
         style="fill:#c37140;fill-opacity:1;fill-rule:nonzero;stroke:none"
         d="m 13546.9,14244.2 c -1.7,4.8 -6.2,8.2 -11.5,8.5 -8.2,0.4 -21.8,0 -39.9,-4.3 -31,-7.4 -2.2,-167.9 19.9,-209 22.2,-41 54.4,-107.2 59.5,-130.1 4,-17.9 32.8,-35.4 45.3,-42.2 3.6,-2 5.9,-5.4 6.4,-9.4 3.2,-26 15.9,-124.1 33,-165.5 19.9,-48 151.1,-167.8 212.2,-249.7 61.1,-81.8 214.8,-113.9 322,-77.8 107.1,36.2 170,152.1 191.1,177.7 21.2,25.7 115.1,144.4 131.2,188.3 13.5,37.1 21.1,131.5 23.1,160 0.4,4.7 3.4,8.9 8,10.7 12.5,5.1 38,19 51.6,51.3 18.5,44 34.2,113.2 45.8,134.1 11.7,20.9 28.9,147.6 9.4,170.3 -13.4,15.5 -33.1,15.1 -44.3,13.4 -5.1,-0.8 -9.2,-4.5 -10.5,-9.3 -2.9,-10.8 -8.5,-30.1 -11.8,-35 -2.1,-3.1 -8.8,-6.7 -15.7,-9.8 -8.4,-3.7 -18,1.9 -18.6,10.8 l -5.2,90.2 c -0.2,3 -1.4,5.8 -3.6,8 -7.5,7.7 -26.1,28 -35.8,51.3 -12.4,29.7 -16.2,119.3 -16.6,142.3 -0.3,23 1.5,57.5 -16.1,112.4 -17.6,54.9 -87.7,97.5 -123.7,103.9 -36,6.3 -215.6,10.4 -244.3,12.3 -28.8,1.8 -43,-9.9 -119.4,-20.2 -76.5,-10.4 -313.1,-30.2 -339.3,-44.4 -26.1,-14.2 -48.8,-95 -53.1,-122.7 -4.4,-27.6 16.8,-158.4 14.8,-183.7 -2,-25.3 -20.7,-53.2 -18.1,-71.5 2.3,-15.2 3.9,-96.7 4.3,-124.2 0.1,-5.5 -3.4,-10.3 -8.8,-12.1 -6.9,-2.4 -14.4,1.1 -16.8,7.7 l -24.5,67.7" /><path
         id="path264"
         style="fill:#2f1d16;fill-opacity:1;fill-rule:nonzero;stroke:none"
         d="m 14657.9,14528.7 c -3.1,80.7 -15.6,128.6 -6.7,181 8.9,52.4 -20.5,160.5 -66.7,214.4 -46.1,53.9 -107.8,87.1 -151.4,120.7 -43.7,33.6 -107.1,84.4 -171.3,96.9 -64.2,12.5 -138,34.5 -209.3,22.7 -71.4,-11.7 -111.1,-26.3 -161.2,-35 -50.1,-8.7 -45.6,1.9 -130.2,-21.5 -84.6,-23.3 -95.6,-58 -108.1,-72.3 -12.6,-14.2 -53.8,-16.5 -97.1,-85.2 -43.3,-68.6 -41.6,-123.4 -71.5,-185.9 -29.8,-62.5 -8.5,-116.2 -22.1,-173.4 -13.6,-57.2 9.1,-141.4 7.7,-152.1 -1.4,-10.7 3,-28.6 -0.2,-77.1 -2.6,-37.9 29.7,-83.5 46.6,-109.9 7.9,0.8 14.4,0.9 19,0.7 5.3,-0.3 9.8,-3.7 11.5,-8.5 l 24.5,-67.7 c 2.4,-6.6 9.9,-10.1 16.8,-7.7 5.4,1.8 8.9,6.6 8.8,12.1 -0.4,27.5 -2,109 -4.3,124.2 -2,13.7 8,32.8 14,52.2 0,0 21.9,43.4 15,102.5 -6.9,59 -16.1,144.6 2.2,157.2 18.3,12.6 50.7,62.6 50.7,62.6 0,0 112.8,12 152.1,18.9 39.4,7 234.5,29.4 336.5,28.9 101.9,-0.4 214.5,-22.4 223.5,-27.8 8.9,-5.4 60.5,-62.9 60.5,-68.3 -0.1,-5.3 28,-121.7 22.5,-162.9 -5.6,-41.1 51.8,-115.2 51.8,-115.2 v 0 c 8.7,-12.8 18,-22.9 22.8,-27.8 2.2,-2.2 3.4,-5 3.6,-8 l 5.2,-90.2 c 0.6,-8.9 10.2,-14.5 18.6,-10.8 6.9,3.1 13.6,6.7 15.7,9.8 3.3,4.9 8.9,24.2 11.8,35 1.3,4.8 5.4,8.5 10.5,9.3 l 15.2,60.5 c 0,0 36.1,116.9 33,197.7" /><path
         id="path266"
         style="fill:#a45634;fill-opacity:1;fill-rule:nonzero;stroke:none"
         d="m 6451.97,13589.5 c 0,0 94.84,-246 195.17,-325.5 100.34,-79.6 211.94,-51.3 309.39,27.3 97.45,78.7 219.86,379.5 219.86,379.5 0,0 -451.65,53.1 -466.01,56.8 -14.37,3.6 -258.41,-138.1 -258.41,-138.1" /><path
         id="path268"
         style="fill:#c37140;fill-opacity:1;fill-rule:nonzero;stroke:none"
         d="m 6253.02,14244.2 c -1.74,4.8 -6.24,8.2 -11.5,8.5 -8.16,0.4 -21.76,0 -39.93,-4.3 -31.01,-7.4 -2.2,-167.9 19.98,-209 22.18,-41 54.32,-107.2 59.46,-130.1 4.01,-17.9 32.8,-35.4 45.25,-42.2 3.63,-2 5.99,-5.4 6.47,-9.4 3.15,-26 15.84,-124.1 33.03,-165.5 19.89,-48 151.01,-167.8 212.12,-249.7 61.11,-81.8 214.81,-113.9 321.98,-77.8 107.17,36.2 170.02,152.1 191.16,177.7 21.15,25.7 115.08,144.4 131.16,188.3 13.57,37.1 21.14,131.5 23.17,160 0.34,4.7 3.35,8.9 7.92,10.7 12.55,5.1 38.07,19 51.66,51.3 18.47,44 34.16,113.2 45.81,134.1 11.64,20.9 28.83,147.6 9.33,170.3 -13.32,15.5 -33.1,15.1 -44.3,13.4 -5.1,-0.8 -9.17,-4.5 -10.48,-9.3 -2.91,-10.8 -8.44,-30.1 -11.77,-35 -2.07,-3.1 -8.81,-6.7 -15.69,-9.8 -8.41,-3.7 -18.08,1.9 -18.59,10.8 l -5.23,90.2 c -0.17,3 -1.44,5.8 -3.58,8 -7.54,7.7 -26.09,28 -35.84,51.3 -12.42,29.7 -16.2,119.3 -16.56,142.3 -0.35,23 1.51,57.5 -16.1,112.4 -17.6,54.9 -87.68,97.5 -123.69,103.9 -36,6.3 -215.61,10.4 -244.37,12.3 -28.75,1.8 -42.93,-9.9 -119.38,-20.2 -76.44,-10.4 -313.14,-30.2 -339.25,-44.4 -26.11,-14.2 -48.8,-95 -53.16,-122.7 -4.37,-27.6 16.81,-158.4 14.8,-183.7 -2,-25.3 -20.72,-53.2 -18.04,-71.5 2.21,-15.2 3.82,-96.7 4.3,-124.2 0.09,-5.5 -3.46,-10.3 -8.82,-12.1 -6.88,-2.4 -14.4,1.1 -16.8,7.7 l -24.52,67.7" /><path
         id="path270"
         style="fill:#2f1d16;fill-opacity:1;fill-rule:nonzero;stroke:none"
         d="m 7364.02,14528.7 c -3.1,80.7 -15.62,128.6 -6.7,181 8.93,52.4 -20.48,160.5 -66.65,214.4 -46.16,53.9 -107.84,87.1 -151.49,120.7 -43.64,33.6 -107.07,84.4 -171.27,96.9 -64.2,12.5 -137.96,34.5 -209.33,22.7 -71.37,-11.7 -111.03,-26.3 -161.15,-35 -50.14,-8.7 -45.61,1.9 -130.19,-21.5 -84.59,-23.3 -95.57,-58 -108.16,-72.3 -12.58,-14.2 -53.74,-16.5 -97.03,-85.2 -43.29,-68.6 -41.65,-123.4 -71.51,-185.9 -29.86,-62.5 -8.51,-116.2 -22.13,-173.4 -13.62,-57.2 9.14,-141.4 7.71,-152.1 -1.43,-10.7 3.04,-28.6 -0.23,-77.1 -2.56,-37.9 29.71,-83.5 46.62,-109.9 7.91,0.8 14.41,0.9 19.01,0.7 5.26,-0.3 9.76,-3.7 11.5,-8.5 l 24.52,-67.7 c 2.4,-6.6 9.92,-10.1 16.8,-7.7 5.36,1.8 8.91,6.6 8.82,12.1 -0.49,27.5 -2.09,109 -4.3,124.2 -2.01,13.7 8.01,32.8 13.99,52.2 0,0 21.9,43.4 15.01,102.5 -6.89,59 -16.13,144.6 2.16,157.2 18.29,12.6 50.71,62.6 50.71,62.6 0,0 112.75,12 152.14,18.9 39.38,7 234.47,29.4 336.43,28.9 101.96,-0.4 214.56,-22.4 223.48,-27.8 8.92,-5.4 60.54,-62.9 60.52,-68.3 -0.03,-5.3 28.07,-121.7 22.51,-162.9 -5.55,-41.1 51.83,-115.2 51.83,-115.2 h 0.01 c 8.64,-12.8 17.97,-22.9 22.8,-27.8 2.14,-2.2 3.41,-5 3.58,-8 l 5.23,-90.2 c 0.51,-8.9 10.18,-14.5 18.59,-10.8 6.88,3.1 13.62,6.7 15.69,9.8 3.33,4.9 8.86,24.2 11.77,35 1.31,4.8 5.38,8.5 10.48,9.3 l 15.27,60.5 c 0,0 36.07,116.9 32.96,197.7" /></g></g></svg>