<?xml version="1.0" encoding="UTF-8" standalone="no"?>
<svg
   xmlns:dc="http://purl.org/dc/elements/1.1/"
   xmlns:cc="http://creativecommons.org/ns#"
   xmlns:rdf="http://www.w3.org/1999/02/22-rdf-syntax-ns#"
   xmlns:svg="http://www.w3.org/2000/svg"
   xmlns="http://www.w3.org/2000/svg"
   viewBox="0 0 2666.6667 2666.6667"
   height="2666.6667"
   width="2666.6667"
   xml:space="preserve"
   id="svg2"
   version="1.1"><metadata
     id="metadata8"><rdf:RDF><cc:Work
         rdf:about=""><dc:format>image/svg+xml</dc:format><dc:type
           rdf:resource="http://purl.org/dc/dcmitype/StillImage" /></cc:Work></rdf:RDF></metadata><defs
     id="defs6"><clipPath
       id="clipPath176"
       clipPathUnits="userSpaceOnUse"><path
         id="path174"
         d="m 16137.6,13502.6 v 72.3 c 0,0 0.8,0 2.2,0.1 -1.7,-33.5 -2.1,-58.9 -2.2,-72.4" /></clipPath></defs><g
     transform="matrix(1.3333333,0,0,-1.3333333,0,2666.6667)"
     id="g10"><g
       transform="scale(0.1)"
       id="g12"><g
         transform="scale(1.22699)"
         id="g14"><path
           id="path16"
           style="fill:none;fill-opacity:1;fill-rule:nonzero;stroke:none"
           d="M 16300,0 H 0 V 16300 H 16300 V 0" /></g><path
         id="path18"
         style="fill:#abaaa9;fill-opacity:1;fill-rule:nonzero;stroke:none"
         d="m 9185.93,12573.2 1389.57,-77.8 c 0,0 116.8,72.5 0,191.9 l -1389.57,103.9 v -218" /><path
         id="path20"
         style="fill:#454547;fill-opacity:1;fill-rule:nonzero;stroke:none"
         d="m 9513.41,13580.4 c -12.94,0.5 -25.8,0.4 -38.59,0 h -221.96 l -42.14,-62.3 -2.42,-25.2 c -220.29,-142.4 -379.5,-444 -394.15,-798.9 -16.15,-391.3 148.14,-732.4 393.08,-872.9 l 7.91,-68.1 225.86,-0.1 c 11.37,-0.4 22.69,-0.4 33.95,0 h 0.74 l 0.03,0.1 c 348.93,12.6 641.38,399.2 661.48,886.4 20.9,504.6 -258.44,925.9 -623.79,941" /><path
         id="path22"
         style="fill:#5b5c5e;fill-opacity:1;fill-rule:nonzero;stroke:none"
         d="m 9914.39,12639.4 c -20.83,-504.6 -333.9,-901.5 -699.25,-886.4 -365.36,15.1 -644.65,436.4 -623.82,941 20.84,504.6 333.9,901.4 699.26,886.4 365.36,-15.1 644.65,-436.4 623.81,-941" /><path
         id="path24"
         style="fill:#343434;fill-opacity:1;fill-rule:nonzero;stroke:none"
         d="m 9372.11,12680.7 c -5.08,-123.1 -81.46,-220 -170.6,-216.3 -89.13,3.7 -157.27,106.5 -152.19,229.6 5.08,123.1 81.46,219.9 170.6,216.2 89.13,-3.6 157.27,-106.4 152.19,-229.5" /><path
         id="path26"
         style="fill:#abaaa9;fill-opacity:1;fill-rule:nonzero;stroke:none"
         d="m 4320.54,12966.3 4865.39,-393.1 c 0,0 85.64,101.2 0,218 l -4740.84,428.1 -124.55,-253" /><path
         id="path28"
         style="fill:#fbc398;fill-opacity:1;fill-rule:nonzero;stroke:none"
         d="m 7291.6,7046.1 c 34.09,-55.2 203.12,-449.5 214.8,-665.6 11.68,-216 -262.74,-395.3 -245.22,-778.6 17.52,-383.2 163.48,-791.9 210.19,-1037.1 46.71,-245.2 35.39,-292 35.39,-292 h 396.66 c 0,0 11.67,677.3 116.77,1086 105.09,408.7 93.41,834.9 93.41,834.9 0,0 116.77,204.3 110.93,437.9 -5.84,233.5 93.42,632.2 93.42,632.2 l -601.36,161.8 -424.99,-379.5" /><path
         id="path30"
         style="fill:#edc9b0;fill-opacity:1;fill-rule:nonzero;stroke:none"
         d="m 7295.79,5307.3 v 0 0 m -1.38,7.9 c -0.03,0.2 -0.07,0.3 -0.1,0.5 0.04,-0.2 0.07,-0.3 0.1,-0.5 m -0.42,2.3 c -0.06,0.4 -0.12,0.8 -0.18,1.1 0.06,-0.4 0.12,-0.7 0.18,-1.1 m -0.41,2.5 c -0.07,0.4 -0.15,0.8 -0.22,1.2 0.07,-0.4 0.15,-0.8 0.22,-1.2 m -0.41,2.3 c -0.08,0.5 -0.16,0.9 -0.24,1.4 0.08,-0.5 0.16,-0.9 0.24,-1.4 m -0.41,2.4 c -0.08,0.5 -0.17,1 -0.25,1.5 0.08,-0.5 0.17,-1 0.25,-1.5 m -0.3,1.7 c -0.37,2.2 -0.73,4.3 -1.09,6.5 0.36,-2.2 0.72,-4.3 1.09,-6.5 m -1.11,6.6 c -0.12,0.7 -0.25,1.4 -0.37,2.2 0.12,-0.8 0.25,-1.5 0.37,-2.2 m -0.38,2.2 c -13.62,81.2 -23.87,163.1 -28.61,244.1 4.74,-81 14.99,-162.9 28.61,-244.1 m -28.62,244.4 c -0.04,0.7 -0.08,1.3 -0.12,2 0.04,-0.6 0.08,-1.3 0.12,-2 m -0.13,2.2 c -0.16,2.8 -0.31,5.6 -0.46,8.4 0.15,-2.8 0.3,-5.6 0.46,-8.4 m -0.5,9.1 c -0.02,0.5 -0.05,1 -0.07,1.5 0.02,-0.6 0.05,-1 0.07,-1.5 m -0.12,2.4 c -0.03,0.5 -0.05,0.9 -0.07,1.4 0.02,-0.5 0.04,-0.9 0.07,-1.4 m -0.13,2.6 c -0.02,0.4 -0.04,0.8 -0.06,1.2 0.02,-0.4 0.04,-0.8 0.06,-1.2 m -0.13,2.6 c -0.01,0.3 -0.03,0.7 -0.04,1 0.01,-0.3 0.03,-0.7 0.04,-1 m 16.76,198.2 c 57.98,256.7 237.8,408.1 228.3,583.8 -4.84,89.5 -36.63,209.4 -74.67,323.3 38.04,-113.9 69.83,-233.8 74.67,-323.3 9.5,-175.7 -170.32,-327.1 -228.3,-583.8 m 13.5,1249.4 422.44,377.2 -422.44,-377.2" /><path
         id="path32"
         style="fill:#eaac82;fill-opacity:1;fill-rule:nonzero;stroke:none"
         d="m 7378.83,4938.7 c -29.89,115.7 -60.36,240.9 -83.04,368.6 v 0 c -0.46,2.6 -0.92,5.3 -1.38,7.9 -0.03,0.2 -0.06,0.3 -0.1,0.5 -0.11,0.6 -0.21,1.2 -0.32,1.8 -0.06,0.4 -0.12,0.7 -0.18,1.1 -0.08,0.5 -0.16,0.9 -0.23,1.4 -0.07,0.4 -0.15,0.8 -0.22,1.2 -0.06,0.4 -0.13,0.7 -0.19,1.1 -0.08,0.5 -0.16,0.9 -0.24,1.4 -0.06,0.3 -0.11,0.6 -0.17,1 -0.08,0.5 -0.17,1 -0.25,1.5 -0.02,0 -0.03,0.1 -0.05,0.2 -0.37,2.2 -0.73,4.3 -1.09,6.5 -0.01,0 -0.01,0 -0.02,0.1 -0.12,0.7 -0.25,1.4 -0.37,2.2 0,0 0,0 -0.01,0 -13.62,81.2 -23.87,163.1 -28.61,244.1 0,0.1 -0.01,0.2 -0.01,0.3 -0.04,0.7 -0.08,1.4 -0.12,2 -0.01,0.1 -0.01,0.2 -0.01,0.2 -0.16,2.8 -0.31,5.6 -0.46,8.4 -0.01,0.2 -0.02,0.4 -0.04,0.7 -0.02,0.5 -0.05,0.9 -0.07,1.5 -0.02,0.3 -0.04,0.6 -0.05,0.9 -0.03,0.5 -0.05,0.9 -0.07,1.4 -0.02,0.4 -0.04,0.8 -0.06,1.2 -0.02,0.4 -0.04,0.8 -0.06,1.2 -0.02,0.5 -0.04,0.9 -0.07,1.4 -0.01,0.3 -0.03,0.7 -0.04,1 -0.04,0.8 -0.08,1.6 -0.12,2.4 v 0 c -0.54,12 -0.81,23.8 -0.8,35.4 0.02,57.5 6.65,110.4 17.72,159.4 57.98,256.7 237.8,408.1 228.3,583.8 -4.84,89.5 -36.63,209.4 -74.67,323.3 -53.83,161.1 -120.15,309.9 -140.13,342.3 v 0 l 422.44,377.2 -50.11,-333.4 c 0,0 40.77,-446.6 0,-715.2 -40.76,-268.6 -344.36,-537.1 -326.84,-840.7 17.5,-303.5 41.72,-595.1 41.74,-595.3" /><path
         id="path34"
         style="fill:#fbc398;fill-opacity:1;fill-rule:nonzero;stroke:none"
         d="m 6385.42,7215.4 c 23.34,-70 35.02,-665.6 23.34,-846.5 -11.67,-181 -321.11,-601.4 -356.14,-957.6 -35.03,-356.1 116.77,-881.6 134.28,-1103.4 17.52,-221.9 17.52,-367.9 17.52,-367.9 h 391.18 c 0,0 105.09,764.9 180.99,1150.2 75.9,385.4 122.61,770.7 122.61,770.7 0,0 210.18,274.4 239.37,432 29.2,157.7 29.2,157.7 35.04,181 5.83,23.4 227.7,321.2 221.86,616 -5.84,294.8 -1010.05,125.5 -1010.05,125.5" /><path
         id="path36"
         style="fill:#252323;fill-opacity:1;fill-rule:nonzero;stroke:none"
         d="m 6362.06,9556.7 c 0,0 -140.13,-262.8 -163.48,-636.4 -23.35,-373.7 81.74,-700.7 81.74,-928.3 0,-227.8 -1.69,-975.1 -1.69,-975.1 0,0 369.51,-52.5 702.31,-46.7 332.79,5.9 525.46,46.7 525.46,46.7 v 75.9 c 0,0 239.38,-17.5 542.98,29.2 303.6,46.7 338.63,75.9 338.63,75.9 0,0 0,940 -93.42,1342.9 -93.41,402.8 -297.76,910.8 -297.76,910.8 l -1337.01,373.6 -297.76,-268.5" /><path
         id="path38"
         style="fill:#ecaf86;fill-opacity:1;fill-rule:nonzero;stroke:none"
         d="m 8075.65,12890.4 c 8.76,8.8 33.67,90.5 100.03,105.1 66.37,14.6 133.51,-29.2 133.51,-29.2 0,0 128.45,-32.1 145.96,-55.4 17.52,-23.4 14.6,-61.3 14.6,-61.3 0,0 30.2,17 47.21,-30.9 17.01,-48 25.77,-158.9 -0.5,-208.5 -26.28,-49.6 -67.15,-108 -122.61,-61.3 -55.47,46.7 -169.32,48.3 -166.4,75.2 2.92,27 25.05,251.4 25.05,251.4 l -176.85,14.9" /><path
         id="path40"
         style="fill:#fbc398;fill-opacity:1;fill-rule:nonzero;stroke:none"
         d="m 8136.97,12386.4 239.36,-97.3 c 0,0 -31.14,-412.6 -31.14,-798 0,-385.3 -62.28,-467 -151.8,-544.9 -89.52,-77.8 -171.25,-124.5 -171.25,-124.5 l -179.05,280.2 167.36,821.3 126.52,463.2" /><path
         id="path42"
         style="fill:#edc9b0;fill-opacity:1;fill-rule:nonzero;stroke:none"
         d="m 7923.33,11495.7 c -41.96,119.3 -80.24,225.7 -80.24,225.7 l 232.56,440.5 61.32,224.5 -126.52,-463.2 -87.12,-427.5" /><path
         id="path44"
         style="fill:#eaac82;fill-opacity:1;fill-rule:nonzero;stroke:none"
         d="m 8031.3,11169.8 c -0.48,0 -0.72,0.5 -0.7,1.5 0.28,15.1 -56.22,179.3 -107.27,324.4 l 87.12,427.5 126.52,463.2 c 0,0 103.18,-296.5 97.68,-588 -5.31,-281.1 -190.49,-628.6 -203.35,-628.6" /><path
         id="path46"
         style="fill:#fbc398;fill-opacity:1;fill-rule:nonzero;stroke:none"
         d="m 7784.7,12526.5 c 0,0 311.55,-39.1 350.31,-389.2 38.75,-350.1 -25.3,-596.6 -25.3,-596.6 l -524.24,728.9 199.23,256.9" /><path
         id="path48"
         style="fill:#ecaf86;fill-opacity:1;fill-rule:nonzero;stroke:none"
         d="m 4954.87,13173.3 c 0,0 23.47,53.8 54.61,57.7 31.14,3.9 58.39,0 58.39,0 0,0 35.03,29.2 81.73,29.2 46.71,0 60.33,-9.1 60.33,-9.1 0,0 50.6,45.5 93.42,36 42.82,-9.4 66.17,-36 66.17,-36 0,0 33.08,22.7 75.9,11 42.81,-11.6 60.33,-70 62.28,-70 1.94,0 0,-202.4 0,-202.4 0,0 -48.66,-68.1 -62.28,-74 -13.62,-5.8 -212.13,-38.9 -223.81,-31.1 -11.68,7.8 -31.15,48.8 -31.15,48.8 0,0 -52.54,-2.1 -97.3,34.9 -44.76,37 -88.79,187 -88.79,187 l -49.5,18" /><path
         id="path50"
         style="fill:#fbc398;fill-opacity:1;fill-rule:nonzero;stroke:none"
         d="m 6488.56,12553.7 -179.05,113.9 c 0,0 -221.86,73 -439.83,-74.9 -217.97,-147.9 -303.6,-552.7 -326.96,-591.7 -23.34,-38.9 -171.26,-89.5 -171.26,-89.5 l -93.41,482.7 -311.38,11.6 c 0,0 -42.82,-253 -159.59,-533.2 -116.77,-280.3 -136.23,-397 -147.91,-700.6 -11.67,-303.6 -31.58,-375.1 69.62,-433.5 101.2,-58.3 257.33,24.8 409.13,28.7 151.81,3.9 467.08,109 587.74,182.9 120.67,74 276.36,175.2 276.36,175.2 l 62.28,-91.5 467.08,44.8 400.91,455.4 -194.62,720 -249.11,299.7" /><path
         id="path52"
         style="fill:#3970c1;fill-opacity:1;fill-rule:nonzero;stroke:none"
         d="m 6659.82,12656.9 -233.54,21.4 -116.77,-10.7 c 0,0 169.32,-419.4 175.16,-798.9 5.84,-379.5 -420.37,-834.9 -420.37,-834.9 0,0 227.7,-484.6 297.76,-648.1 70.06,-163.4 -11.68,-823.2 0,-829 11.68,-5.9 437.89,-233.6 969.19,-192.7 531.3,40.9 653.91,64.2 665.58,87.6 11.68,23.3 29.2,414.5 40.87,648 11.68,233.6 70.06,1167.7 70.06,1167.7 0,0 54.5,220 66.17,391.2 11.68,171.3 -36.96,233.4 -36.96,233.4 0,0 -133.36,93.5 -224.69,254 -61.62,108.4 -127.58,380.6 -127.58,380.6 l -87.17,23.4 -1037.71,107" /><path
         id="path54"
         style="fill:#fbc398;fill-opacity:1;fill-rule:nonzero;stroke:none"
         d="m 6756.66,13287.1 c 0,0 43.29,-261.7 12.14,-351.5 -31.13,-89.9 -342.52,-257.3 -342.52,-257.3 0,0 237.44,-182.9 408.7,-416.5 171.26,-233.5 576.06,-307.5 657.8,-291.9 81.74,15.6 175.15,182.9 186.83,260.8 11.67,77.8 17.92,319.2 17.92,319.2 l -204.75,105 -12.65,175.5 c 0,0 -452.73,781 -551.74,743.1 -99.01,-37.8 -256.89,-13.2 -260.78,-39.7 -3.89,-26.4 89.05,-246.7 89.05,-246.7" /><path
         id="path56"
         style="fill:#dc9b70;fill-opacity:1;fill-rule:nonzero;stroke:none"
         d="m 7516.13,13262.1 -85.5,-271.3 -543.77,248 c 0,0 37.65,-247.1 222.52,-339.6 212.67,-106.4 334.46,-81 370.75,-68.8 l 36,431.7" /><path
         id="path58"
         style="fill:#252323;fill-opacity:1;fill-rule:nonzero;stroke:none"
         d="m 7434.23,14436.2 c -192.39,77.1 -378.29,32.3 -474.28,-5.6 -95.99,-37.9 -248.84,-119.5 -248.85,-119.5 -39.44,-22.2 -79.26,-47 -100.86,-78.2 -34.52,-50 -35.87,-93.8 -35.87,-93.8 0,0 -139.37,-43.4 -126.5,-242.1 12.87,-198.7 86.2,-370 144.89,-473.8 58.69,-103.9 163.9,-136.1 163.9,-136.1 l 71.45,186.7 c 0,0 281.55,345.2 289.15,367.6 7.59,22.5 376.33,166.9 376.33,166.9 l 87.19,60.3 c 0,0 26.72,131.1 -47.33,259.4 -23.25,40.3 -59.9,76.9 -99.22,108.2" /><path
         id="path60"
         style="fill:#fbc398;fill-opacity:1;fill-rule:nonzero;stroke:none"
         d="m 7518.54,14132.1 c 0,0 49.47,-44.8 62.24,-63.5 12.76,-18.7 53.25,-202.2 64.8,-248.4 11.54,-46.2 11.04,-111.8 15.16,-134.4 4.13,-22.6 32.46,-160.9 36.34,-216.3 3.87,-55.4 -17.94,-277.5 -27.37,-336.9 -9.43,-59.4 -24.6,-138.5 -49,-158.6 -24.4,-20 -142.46,-47.8 -253.82,-35.4 -111.36,12.4 -343.59,115 -412.88,178.8 -69.29,63.7 -89.82,218.9 -89.82,218.9 0,0 -41.53,-20 -95.04,17 -53.5,36.9 -143.78,121.8 -148.52,233.1 -4.72,111.4 85.39,87.3 135.6,51.3 50.22,-36.1 63.83,-102.2 73.15,-102 9.33,0.1 17.83,4.8 22.08,7.1 4.25,2.4 5,117.8 2.38,140.7 -2.61,22.9 -31.9,157.8 -29.71,162.9 2.19,5.1 89.8,161.3 123.52,181.5 33.72,20.2 570.89,104.2 570.89,104.2" /><path
         id="path62"
         style="fill:#dc9b70;fill-opacity:1;fill-rule:nonzero;stroke:none"
         d="m 6064.3,11537.9 c 1.68,28.2 -70.07,-159.6 -62.28,-412.6 l 62.28,-91.5 56.57,65.1 c 0,0 -76.04,112 -56.57,439" /><path
         id="path64"
         style="fill:#dc9b70;fill-opacity:1;fill-rule:nonzero;stroke:none"
         d="m 5371.46,11911.5 c 0,0 58.39,-362 -31.13,-688.9 0,0 158.56,215.2 102.63,716.8 l -71.5,-27.9" /><path
         id="path66"
         style="fill:#fbc398;fill-opacity:1;fill-rule:nonzero;stroke:none"
         d="m 8212.86,12226.8 -75.89,159.6 c 0,0 -0.02,69.1 -43.8,112.9 -43.79,43.7 -62.57,167.3 -62.57,167.3 l 159.39,-12.9 c 0,0 46.22,75.7 60.82,165 14.59,89.2 23.35,231.6 61.3,221.7 37.95,-9.8 55.46,-30.3 64.22,-126.6 8.76,-96.4 -29.19,-242.3 -26.27,-262.7 2.92,-20.5 26.27,-32.2 26.27,-32.2 l 140.13,-8.7 c 0,0 8.75,-102.2 -46.71,-189.8 -55.47,-87.5 -93.42,-131.3 -93.42,-131.3 l -113.85,-81.8 -49.62,19.5" /><path
         id="path68"
         style="fill:#fbc398;fill-opacity:1;fill-rule:nonzero;stroke:none"
         d="m 5278.05,12394.2 c 0,0 3.89,119.7 138.18,230.6 134.28,110.9 99.25,271.5 151.8,353.2 52.54,81.7 70.06,239.4 58.38,262.7 -11.67,23.4 -110.93,3 -119.69,-20.4 -8.76,-23.4 -20.43,-132.1 -35.03,-179.9 -14.6,-47.8 -64.22,-82.8 -131.36,-94.5 -67.15,-11.7 -429.13,-26.3 -429.13,-26.3 0,0 -32.11,-119.7 0,-218.9 32.11,-99.3 55.47,-294.9 55.47,-294.9 0,0 186.83,-99.2 195.58,-93.4 8.76,5.9 115.8,81.8 115.8,81.8" /><path
         id="path70"
         style="fill:#100f0d;fill-opacity:1;fill-rule:nonzero;stroke:none"
         d="m 7716.59,8756.8 c 0,0 -192.67,-291.9 -198.51,-332.8 -5.84,-40.9 -11.68,-1331.2 -11.68,-1331.2 l 157.54,-2.9 -52.45,1307.6 105.1,359.3" /><path
         id="path72"
         style="fill:#454547;fill-opacity:1;fill-rule:nonzero;stroke:none"
         d="m 3881.25,14183.1 c -12.93,0.7 -25.8,0.7 -38.59,0.1 H 3620.7 l -42.14,-75.5 -2.42,-30.4 c -220.29,-172.6 -379.49,-537.9 -394.15,-967.7 -16.15,-473.9 148.15,-887.1 393.08,-1057.3 l 7.91,-82.5 225.86,-0.1 c 11.37,-0.4 22.69,-0.4 33.95,0 h 0.74 l 0.03,0.1 c 348.93,15.3 641.4,483.6 661.51,1073.6 20.83,611.2 -258.46,1121.5 -623.82,1139.7" /><path
         id="path74"
         style="fill:#5b5c5e;fill-opacity:1;fill-rule:nonzero;stroke:none"
         d="m 4282.24,13043.4 c -20.83,-611.2 -333.9,-1091.8 -699.26,-1073.6 -365.35,18.3 -644.65,528.6 -623.81,1139.8 20.83,611.2 333.9,1091.8 699.25,1073.5 365.36,-18.2 644.65,-528.5 623.82,-1139.7" /><path
         id="path76"
         style="fill:#343434;fill-opacity:1;fill-rule:nonzero;stroke:none"
         d="m 3791.1,13100.9 c -3.96,-122.8 -75.96,-220.1 -160.83,-217.4 -84.87,2.8 -150.46,104.5 -146.5,227.3 3.96,122.8 75.97,220.1 160.84,217.4 84.87,-2.7 150.45,-104.5 146.49,-227.3" /><path
         id="path78"
         style="fill:#3970c1;fill-opacity:1;fill-rule:nonzero;stroke:none"
         d="m 7455.01,4072.6 c 0,0 -108.05,-491.5 -32.76,-553.4 75.28,-62 289,-13.9 401.73,-68.5 112.72,-54.6 619.13,-117.3 793.1,61.5 173.97,178.8 -519.51,477.5 -562.7,524.4 -43.19,46.9 -89.15,140.1 -122.86,184.6 -33.72,44.5 -157.14,54.4 -157.14,54.4 0,0 -62.98,98.4 -125.17,43.7 -62.17,-54.8 -194.2,-246.7 -194.2,-246.7" /><path
         id="path80"
         style="fill:#f5f6f5;fill-opacity:1;fill-rule:nonzero;stroke:none"
         d="m 7757.46,4276.9 c 0,0 -47.29,-7.8 -54.48,-38.4 -7.19,-30.6 -17.25,-91.5 -28.24,-122.4 -10.99,-30.9 -148.13,-23 -148.13,-23 l -21.88,317.5 414.68,12.5 -4.19,-180.1 c 0,0 -45.36,21 -157.76,33.9" /><path
         id="path82"
         style="fill:#3970c1;fill-opacity:1;fill-rule:nonzero;stroke:none"
         d="m 6195.29,3963.5 -50.18,-97.9 c 0,0 -66.47,-526.1 -52.4,-587.2 14.06,-61.2 183.06,-278.3 350.71,-347.2 167.66,-69 501.83,3.5 523.37,100.7 21.54,97.2 -279.61,615.4 -310.74,713.5 -31.13,98.1 5.78,311.3 -35.07,346.5 -40.85,35.2 -97.23,21.5 -97.23,21.5 l -322.64,95.8 -5.82,-245.7" /><path
         id="path84"
         style="fill:#f5f6f5;fill-opacity:1;fill-rule:nonzero;stroke:none"
         d="m 6519.56,4109 c 0,0 -41.2,0.9 -58.68,-48.5 -17.48,-49.3 -24.47,-69.1 -44.59,-82 -20.12,-12.9 -217.29,-0.2 -217.29,-0.2 l -11.21,281.9 451.07,-16.6 -17.88,-151.7 -101.42,17.1" /><path
         id="path86"
         style="fill:#abaaa9;fill-opacity:1;fill-rule:nonzero;stroke:none"
         d="m 1662.09,13375 c 0,0 -75.9,-159.1 0,-298.5 L 3581,12974.1 c 0,0 136.23,118 0,277 L 1662.09,13375" /><g
         transform="scale(1.03231)"
         id="g88"><path
           id="path90"
           style="fill:#fbc398;fill-opacity:1;fill-rule:nonzero;stroke:none"
           d="m 14999.1,12417.5 230,113.2 c 0,0 275.3,406.9 403.5,538.9 0,0 -3.8,320.5 94.2,524.1 98.1,203.6 128.3,237.5 162.2,392.1 33.9,154.6 30.1,414.7 30.1,414.7 l 279.1,-18.8 c 0,0 18.8,-207.4 56.5,-437.4 37.7,-230 45.3,-395.9 0,-686.2 -45.3,-290.3 -60.3,-336.2 -64.1,-386.8 -3.7,-50.6 -22.6,-234.7 -71.7,-340.6 -49,-105.9 -278.6,-507.6 -418.2,-639.6 l -68.1,-156.3 -45.5,-237.8 -336.5,243.5 -251.5,141.4 v 535.6" /></g><g
         transform="scale(1.12918)"
         id="g92"><path
           id="path94"
           style="fill:#454547;fill-opacity:1;fill-rule:nonzero;stroke:none"
           d="m 15742.2,14129.2 c -11.4,0.9 -22.8,1.2 -34.1,1.1 l -196.5,6.6 -39.1,-54 -2.9,-22.1 c -199.1,-119.7 -348.9,-381.9 -372.2,-695.6 -25.8,-345.9 109.6,-652.6 322.2,-784.2 l 5.1,-60.5 199.9,-6.6 c 10,-0.7 20.1,-1.1 30.1,-1 l 0.6,-0.1 v 0.1 c 309.2,0.9 579.4,334.6 611.5,765.2 33.2,446 -201.7,827.1 -524.6,851.1" /></g><g
         transform="scale(1.11552)"
         id="g96"><path
           id="path98"
           style="fill:#5b5c5e;fill-opacity:1;fill-rule:nonzero;stroke:none"
           d="m 16266.4,13447.3 c -33.6,-451.5 -325.9,-797.8 -652.8,-773.4 -326.9,24.3 -564.7,410.1 -531,861.6 33.6,451.5 325.9,797.7 652.8,773.4 326.9,-24.4 564.6,-410.1 531,-861.6" /></g><g
         transform="scale(1.08061)"
         id="g100"><path
           id="path102"
           style="fill:#343434;fill-opacity:1;fill-rule:nonzero;stroke:none"
           d="m 16291.6,13936.5 c -8.5,-113.7 -82.1,-200.9 -164.5,-194.8 -82.2,6.1 -142.1,103.3 -133.7,217 8.5,113.7 82.1,200.9 164.5,194.8 82.2,-6.2 142.1,-103.3 133.7,-217" /></g><g
         transform="scale(1.07215)"
         id="g104"><path
           id="path106"
           style="fill:#abaaa9;fill-opacity:1;fill-rule:nonzero;stroke:none"
           d="m 11594.7,14688.6 4642.3,-707.9 c 0,0 63,76.2 32.9,196 l -4661.6,751.7 -13.6,-239.8" /></g><path
         id="path108"
         style="fill:#fbc398;fill-opacity:1;fill-rule:nonzero;stroke:none"
         d="m 15211.3,7046.1 c 34.1,-55.2 203.1,-449.5 214.8,-665.6 11.7,-216 -262.7,-395.3 -245.2,-778.6 17.5,-383.2 163.5,-791.9 210.2,-1037.1 46.7,-245.2 35.4,-292 35.4,-292 h 396.6 c 0,0 11.7,677.3 116.8,1086 105.1,408.7 93.4,834.9 93.4,834.9 0,0 116.8,204.3 110.9,437.9 -5.8,233.5 93.5,632.2 93.5,632.2 l -601.4,161.8 -425,-379.5" /><path
         id="path110"
         style="fill:#ecaf86;fill-opacity:1;fill-rule:nonzero;stroke:none"
         d="m 12969.3,16005.5 c -6.7,-0.5 -74,8.5 -89.6,-47.9 -15.5,-56.5 105.1,-231.6 136.3,-237.5 31.1,-5.8 38.9,11.7 38.9,11.7 0,0 31.1,-33.1 58.4,-27.2 27.2,5.8 29.2,17.5 29.2,17.5 0,0 21.4,-15 44.7,-18.2 23.4,-3.2 37,12.4 37,12.4 0,0 16.7,-19.8 50.2,-12.9 33.5,7 124.9,226.5 124.9,226.5 0,0 -29.1,29.6 -70,21.8 0,0 -72,59.2 -144,31.6 0,0 -68.1,41.2 -149.9,0 0,0 -31.4,24.9 -66.1,22.2" /><g
         transform="scale(1.02956)"
         id="g112"><path
           id="path114"
           style="fill:#ecaf86;fill-opacity:1;fill-rule:nonzero;stroke:none"
           d="m 15905.5,14930.5 c 0,0 29.7,58.6 56.1,68 26.5,9.5 54.9,0 54.9,0 0,0 28.3,34 69.9,22.7 0,0 68,-3.8 90.7,-13.2 22.7,-9.5 36,-31 36,-31 0,0 56.7,-27.6 71.7,-46.5 15.2,-18.9 9.5,-155 -17,-204.2 -26.4,-49.1 -85.4,-38.1 -85.4,-38.1 0,0 -83.5,2.2 -83.1,23 0.3,20.8 -75,200.1 -75,200.1 l -118.8,19.2" /></g><path
         id="path116"
         style="fill:#edc9b0;fill-opacity:1;fill-rule:nonzero;stroke:none"
         d="m 15222.3,5270.3 c 0,0.2 -0.1,0.4 -0.1,0.5 0,-0.2 0.1,-0.3 0.1,-0.5 m -0.5,2.4 c 0,0.3 -0.1,0.6 -0.1,1 0,-0.4 0.1,-0.7 0.1,-1 m -0.4,2.3 c -0.1,0.5 -0.2,0.9 -0.2,1.4 0,-0.5 0.1,-0.9 0.2,-1.4 m -0.4,2.2 c -0.1,0.6 -0.2,1.1 -0.3,1.7 0.1,-0.6 0.2,-1.1 0.3,-1.7 m -0.4,2.1 c -18.5,99.3 -32.7,200.4 -38.5,300.1 5.8,-99.7 20,-200.8 38.5,-300.1 m -38.5,300.2 c -0.1,0.7 -0.1,1.4 -0.2,2.1 0.1,-0.7 0.1,-1.4 0.2,-2.1 m -0.2,2.3 c -0.1,2.8 -0.3,5.6 -0.4,8.4 0.1,-2.8 0.3,-5.6 0.4,-8.4 m -0.5,9.1 c 0,0.5 0,1 0,1.5 0,-0.6 0,-1 0,-1.5 m -0.1,2.4 c 0,0.5 0,0.9 -0.1,1.4 0.1,-0.5 0.1,-0.9 0.1,-1.4 m -0.1,2.6 c 0,0.4 -0.1,0.8 -0.1,1.2 0,-0.4 0.1,-0.8 0.1,-1.2 m -0.2,2.6 c 0,0.3 0,0.7 0,1 0,-0.3 0,-0.7 0,-1 m 30.3,1447.6 422.4,377.2 -422.4,-377.2" /><path
         id="path118"
         style="fill:#eaac82;fill-opacity:1;fill-rule:nonzero;stroke:none"
         d="m 15298.5,4938.7 c -27,104.5 -54.4,216.8 -76.2,331.6 0,0.2 -0.1,0.3 -0.1,0.5 -0.1,0.6 -0.2,1.3 -0.4,1.9 0,0.3 -0.1,0.6 -0.1,1 -0.1,0.4 -0.2,0.9 -0.3,1.3 -0.1,0.5 -0.2,0.9 -0.2,1.4 -0.1,0.2 -0.2,0.6 -0.2,0.8 -0.1,0.6 -0.2,1.1 -0.3,1.7 0,0.1 -0.1,0.3 -0.1,0.4 -18.5,99.3 -32.7,200.4 -38.5,300.1 v 0.1 c -0.1,0.7 -0.1,1.4 -0.2,2.1 0,0.1 0,0.2 0,0.2 -0.1,2.8 -0.3,5.6 -0.4,8.4 0,0.2 -0.1,0.4 -0.1,0.7 0,0.5 0,0.9 0,1.5 -0.1,0.3 -0.1,0.6 -0.1,0.9 0,0.5 0,0.9 -0.1,1.4 0,0.4 0,0.8 0,1.2 0,0.4 -0.1,0.8 -0.1,1.2 0,0.5 0,0.9 -0.1,1.4 0,0.3 0,0.7 0,1 0,0.8 -0.1,1.6 -0.1,2.4 v 0 c -0.6,12 -0.8,23.8 -0.8,35.4 0.1,351.5 246.5,526.5 246.4,730 0,4.4 -0.2,8.8 -0.4,13.2 -0.3,5.7 -0.7,11.5 -1.2,17.5 -19.3,219.1 -180.4,594.3 -213.6,648.1 v 0 l 422.4,377.2 -50.1,-333.4 c 0,0 40.8,-446.6 0,-715.2 -40.7,-268.6 -344.3,-537.1 -326.8,-840.7 17.5,-303.5 41.7,-595.1 41.7,-595.3" /><path
         id="path120"
         style="fill:#fbc398;fill-opacity:1;fill-rule:nonzero;stroke:none"
         d="m 14305.1,7215.4 c 23.4,-70 35,-665.6 23.4,-846.5 -11.7,-181 -321.1,-601.4 -356.2,-957.6 -35,-356.1 116.8,-881.6 134.3,-1103.4 17.5,-221.9 17.5,-367.9 17.5,-367.9 h 391.2 c 0,0 105.1,764.9 181,1150.2 75.9,385.4 122.6,770.7 122.6,770.7 0,0 210.2,274.4 239.4,432 29.2,157.7 29.2,157.7 35,181 5.9,23.4 227.7,321.2 221.9,616 -5.9,294.8 -1010.1,125.5 -1010.1,125.5" /><g
         transform="scale(1.00047)"
         id="g122"><path
           id="path124"
           style="fill:#252323;fill-opacity:1;fill-rule:nonzero;stroke:none"
           d="m 14275.1,9552.19 c 0,0 -140.2,-262.68 -163.5,-636.1 -23.4,-373.52 81.7,-700.37 81.7,-927.86 0,-227.7 -1.7,-974.64 -1.7,-974.64 0,0 369.4,-52.48 702,-46.68 332.6,5.9 525.2,46.68 525.2,46.68 v 75.86 c 0,0 239.3,-17.49 542.8,29.19 303.4,46.67 338.4,75.86 338.4,75.86 0,0 0,939.56 -93.4,1342.27 -93.3,402.61 -297.6,910.37 -297.6,910.37 l -1336.4,373.42 -297.5,-268.37" /></g><path
         id="path126"
         style="fill:#fbc398;fill-opacity:1;fill-rule:nonzero;stroke:none"
         d="m 13850.4,11478.6 c 0,0 -102.7,355.1 -149.4,460.2 -46.7,105.1 -467.1,747.3 -589.7,1021.7 -122.6,274.4 -128.4,332.8 -116.7,449.6 11.6,116.7 11.6,116.7 11.6,116.7 0,0 -140.1,270.6 -134.2,602.4 5.8,331.8 -40.9,916.9 -40.9,916.9 l 321.1,51.3 c 0,0 29.2,-134.3 204.4,-525.5 175.1,-391.2 227.6,-834.9 227.6,-834.9 0,0 338.7,-379.5 455.4,-724 l 353.2,-273.5 c 0,0 382.5,-1127.7 376.7,-1355.4 -5.9,-227.7 -146,-350.3 -146,-350.3 l -773.1,444.8" /><path
         id="path128"
         style="fill:#dc9b70;fill-opacity:1;fill-rule:nonzero;stroke:none"
         d="m 14261.5,12119.8 108,-426 108,157.4 c -73.1,17.5 -216,268.6 -216,268.6" /><path
         id="path130"
         style="fill:#3970c1;fill-opacity:1;fill-rule:nonzero;stroke:none"
         d="m 14579.5,12656.9 -131.2,37 -55.5,45.6 c 0,0 131.8,-243.1 84.7,-619.7 -64.3,-514.2 -627.1,-641.2 -627.1,-641.2 0,0 361.3,-929.4 431.4,-1092.9 70,-163.4 -11.7,-823.2 0,-829 11.6,-5.9 437.8,-233.6 969.1,-192.7 531.4,40.9 654,64.2 665.6,87.6 11.7,23.3 29.2,414.5 40.9,648 11.7,233.6 70.1,1167.7 70.1,1167.7 0,0 54.5,220 66.1,391.2 11.7,171.3 -2.9,209.9 -2.9,209.9 0,0 -212.9,154 -290.8,251.4 -77.8,97.3 -316.2,698.9 -316.2,698.9 l -182.9,-47.3 -721.3,-114.5" /><path
         id="path132"
         style="fill:#fbc398;fill-opacity:1;fill-rule:nonzero;stroke:none"
         d="m 14676.4,13287.1 c 0,0 33.7,-378.5 2.6,-468.4 -31.2,-89.9 -159.1,-145 -159.1,-145 0,0 63.5,-178.3 234.8,-411.9 171.2,-233.5 521.8,-309.5 603.5,-293.9 81.8,15.6 161.8,218.3 173.5,296.1 11.7,77.9 -64.5,433.8 -64.5,433.8 l -65,99.8 -2.4,32.8 c 0,0 -452.7,781 -551.7,743.1 -99,-37.8 -256.9,-13.2 -260.8,-39.7 -3.9,-26.4 89.1,-246.7 89.1,-246.7" /><path
         id="path134"
         style="fill:#dc9b70;fill-opacity:1;fill-rule:nonzero;stroke:none"
         d="m 15435.8,13262.1 -85.5,-271.3 -543.7,248 c 0,0 37.6,-247.1 222.5,-339.6 212.6,-106.4 334.4,-81 370.7,-68.8 l 36,431.7" /><path
         id="path136"
         style="fill:#252323;fill-opacity:1;fill-rule:nonzero;stroke:none"
         d="m 15353.9,14436.2 c -192.4,77.1 -378.3,32.3 -474.3,-5.6 -95.9,-37.9 -248.8,-119.5 -248.8,-119.5 -39.4,-22.2 -79.3,-47 -100.8,-78.2 -34.6,-50 -35.9,-93.8 -35.9,-93.8 0,0 -139.4,-43.4 -126.5,-242.1 12.8,-198.7 86.2,-370 144.9,-473.8 58.7,-103.9 163.9,-136.1 163.9,-136.1 l 71.4,186.7 c 0,0 281.6,345.2 289.2,367.6 7.6,22.5 376.3,166.9 376.3,166.9 l 87.2,60.3 c 0,0 26.7,131.1 -47.3,259.4 -23.3,40.3 -59.9,76.9 -99.3,108.2" /><path
         id="path138"
         style="fill:#fbc398;fill-opacity:1;fill-rule:nonzero;stroke:none"
         d="m 15438.3,14132.1 c 0,0 49.4,-44.8 62.2,-63.5 12.7,-18.7 53.2,-202.2 64.8,-248.4 11.5,-46.2 11,-111.8 15.1,-134.4 4.2,-22.6 32.5,-160.9 36.4,-216.3 3.9,-55.4 -18,-277.5 -27.4,-336.9 -9.4,-59.4 -24.6,-138.5 -49,-158.6 -24.4,-20 -142.4,-47.8 -253.8,-35.4 -111.4,12.4 -343.6,115 -412.9,178.8 -69.3,63.7 -89.8,218.9 -89.8,218.9 0,0 -41.5,-20 -95,17 -53.5,36.9 -143.8,121.8 -148.6,233.1 -4.7,111.4 85.4,87.3 135.6,51.3 50.3,-36.1 63.9,-102.2 73.2,-102 9.3,0.1 17.8,4.8 22.1,7.1 4.2,2.4 5,117.8 2.3,140.7 -2.6,22.9 -31.9,157.8 -29.7,162.9 2.2,5.1 89.8,161.3 123.6,181.5 33.7,20.2 570.9,104.2 570.9,104.2" /><path
         id="path140"
         style="fill:#100f0d;fill-opacity:1;fill-rule:nonzero;stroke:none"
         d="m 15636.3,8756.8 c 0,0 -192.7,-291.9 -198.5,-332.8 -5.9,-40.9 -11.7,-1331.2 -11.7,-1331.2 l 157.5,-2.9 -52.4,1307.6 105.1,359.3" /><g
         transform="scale(1.04881)"
         id="g142"><path
           id="path144"
           style="fill:#454547;fill-opacity:1;fill-rule:nonzero;stroke:none"
           d="m 11390.5,16278.7 c -12.2,1.7 -24.4,2.7 -36.6,3.2 l -210.8,18.1 -46.3,-68.3 -4.7,-28.7 c -223.3,-146 -404.3,-480.1 -453.3,-887.2 -53.9,-448.9 68.5,-854.8 287.4,-1036.4 l 0.7,-79 214.7,-18.5 c 10.6,-1.4 21.4,-2.3 32.2,-2.7 l 0.7,-0.1 v 0 c 332.7,-13.8 648.7,407.2 715.8,966.1 69.6,578.9 -154.2,1086.4 -499.8,1133.5" /></g><g
         transform="scale(1.05164)"
         id="g146"><path
           id="path148"
           style="fill:#5b5c5e;fill-opacity:1;fill-rule:nonzero;stroke:none"
           d="m 11647.2,15122.5 c -69.3,-577.3 -405,-1007.3 -749.7,-960.3 -344.6,47 -567.7,553.1 -498.4,1130.5 69.4,577.3 405.1,1007.3 749.7,960.3 344.7,-47 567.8,-553.1 498.4,-1130.5" /></g><path
         id="path150"
         style="fill:#343434;fill-opacity:1;fill-rule:nonzero;stroke:none"
         d="m 11764.3,16002.7 c -14.4,-122 -94.5,-212.8 -178.8,-202.8 -84.3,10 -141,117 -126.6,239 14.5,122 94.5,212.8 178.8,202.8 84.4,-10 141,-117 126.6,-239" /><g
         transform="scale(1.0252)"
         id="g152"><path
           id="path154"
           style="fill:#3970c1;fill-opacity:1;fill-rule:nonzero;stroke:none"
           d="m 14996.7,3972.48 c 0,0 -105.3,-479.41 -31.9,-539.79 73.4,-60.48 281.9,-13.56 391.9,-66.82 109.9,-53.25 603.9,-114.41 773.6,59.99 169.7,174.4 -506.8,465.76 -548.9,511.51 -42.1,45.75 -87,136.65 -119.9,180.06 -32.8,43.41 -153.2,53.06 -153.2,53.06 0,0 -61.5,95.98 -122.1,42.63 -60.7,-53.45 -189.5,-240.64 -189.5,-240.64" /></g><path
         id="path156"
         style="fill:#f5f6f5;fill-opacity:1;fill-rule:nonzero;stroke:none"
         d="m 15677.2,4276.9 c 0,0 -47.3,-7.8 -54.5,-38.4 -7.2,-30.6 -17.3,-91.5 -28.3,-122.4 -11,-30.9 -148.1,-23 -148.1,-23 l -21.9,317.5 414.7,12.5 -4.2,-180.1 c 0,0 -45.3,21 -157.7,33.9" /><path
         id="path158"
         style="fill:#3970c1;fill-opacity:1;fill-rule:nonzero;stroke:none"
         d="m 14115,3963.5 -50.2,-97.9 c 0,0 -66.5,-526.1 -52.4,-587.2 14.1,-61.2 183.1,-278.3 350.7,-347.2 167.7,-69 501.9,3.5 523.4,100.7 21.5,97.2 -279.6,615.4 -310.7,713.5 -31.2,98.1 5.7,311.3 -35.1,346.5 -40.9,35.2 -97.2,21.5 -97.2,21.5 l -322.7,95.8 -5.8,-245.7" /><path
         id="path160"
         style="fill:#f5f6f5;fill-opacity:1;fill-rule:nonzero;stroke:none"
         d="m 14439.3,4109 c 0,0 -41.2,0.9 -58.7,-48.5 -17.5,-49.3 -24.5,-69.1 -44.6,-82 -20.1,-12.9 -217.3,-0.2 -217.3,-0.2 l -11.2,281.9 451.1,-16.6 -17.9,-151.7 -101.4,17.1" /><path
         id="path162"
         style="fill:#fbc398;fill-opacity:1;fill-rule:nonzero;stroke:none"
         d="m 12831.1,15046.1 c 0,0 -55.5,162.2 -49.6,246.9 5.8,84.6 -35.1,402.8 -35.1,402.8 l 510.9,-26.3 c 0,0 163.5,329.9 204.3,335.8 40.9,5.8 64.3,-96.4 38,-184 -26.3,-87.5 -49.6,-99.2 -73,-166.4 -23.3,-67.1 -61.3,-151.8 -122.6,-221.8 -61.3,-70.1 -119.7,-108 -128.4,-134.3 -8.8,-26.3 -23.4,-201.4 -23.4,-201.4 0,0 -181,-151.8 -192.7,-140.1 -11.6,11.6 -128.4,88.8 -128.4,88.8" /><path
         id="path164"
         style="fill:#dc9b70;fill-opacity:1;fill-rule:nonzero;stroke:none"
         d="m 12844.7,15692.9 c 0,0 99.3,-60.3 167.4,-138.2 68.1,-77.8 85.6,-140.1 81.7,-120.6 -3.9,19.4 -9.7,99.2 -48.6,155.7 -39,56.4 -76.1,94.6 -76.1,94.6 l -124.4,8.5" /><g
         transform="scale(1.03015)"
         id="g166"><path
           id="path168"
           style="fill:#fbc398;fill-opacity:1;fill-rule:nonzero;stroke:none"
           d="m 15952.4,14430.6 c 0,0 -45.3,40.7 -82.1,120 -36.9,79.4 -40.8,163.1 -40.8,163.1 l 151,-23 c 0,0 17.2,250 43.7,265.1 26.4,15.2 41.6,3.8 56.7,-22.6 15.1,-26.5 18.8,-122.8 28.4,-141.7 9.4,-18.9 75.5,-132 75.5,-132 l 115.2,-17.6 c 0,0 0,-86.6 -28.3,-143.2 -28.4,-56.7 -39.7,-86.9 -39.7,-86.9 0,0 -58.6,-77.5 -96.3,-68.1 -37.8,9.5 -183.3,86.9 -183.3,86.9" /></g><g
         id="g170"><g
           clip-path="url(#clipPath176)"
           id="g172"><path
             id="path178"
             style="fill:#edcab2;fill-opacity:1;fill-rule:nonzero;stroke:none"
             d="m 16137.6,13502.6 h 2.199 v 72.391 h -2.199 z" /></g></g><g
         transform="scale(1.0058)"
         id="g180"><path
           id="path182"
           style="fill:#eaad81;fill-opacity:1;fill-rule:nonzero;stroke:none"
           d="m 16300,13325 c 0,0 -23.2,67.7 -89,90 -21.4,7.2 -46.3,9.6 -70.3,9.6 -50.1,0 -96.1,-10.6 -96.1,-10.6 v 10.8 c 0.1,13.4 0.5,38.7 2.2,71.9 2.8,0.2 8,0.4 15.3,0.4 57.5,0 237.9,-12.7 237.9,-172.1" /></g><path
         id="path184"
         style="fill:#edcab2;fill-opacity:1;fill-rule:nonzero;stroke:none"
         d="m 13573.2,13812.9 c 0,0 0,0.1 0,0.1 v 0 -0.1" /><path
         id="path186"
         style="fill:#eaad81;fill-opacity:1;fill-rule:nonzero;stroke:none"
         d="m 13344.9,13602.7 c 17.5,139.9 227.6,210.1 228.3,210.3 0,0 0,-0.1 0,-0.1 l 11,-75.9 c -180.9,-29.2 -239.3,-134.3 -239.3,-134.3" /><g
         transform="scale(1.00967)"
         id="g188"><path
           id="path190"
           style="fill:#abaaa9;fill-opacity:1;fill-rule:nonzero;stroke:none"
           d="m 9573.85,16300 c 0,0 -88.37,-150.6 -25.26,-294.6 l 1884.91,-263.3 c 0,0 144.4,104.8 23.5,273.2 L 9573.85,16300" /></g><path
         id="path192"
         style="fill:#dc9b70;fill-opacity:1;fill-rule:nonzero;stroke:none"
         d="m 15799.9,12119.8 90.4,197 -32.5,-258.4 z" /></g></g></svg>