<?xml version="1.0" encoding="UTF-8" standalone="no"?>
<svg
   xmlns:dc="http://purl.org/dc/elements/1.1/"
   xmlns:cc="http://creativecommons.org/ns#"
   xmlns:rdf="http://www.w3.org/1999/02/22-rdf-syntax-ns#"
   xmlns:svg="http://www.w3.org/2000/svg"
   xmlns="http://www.w3.org/2000/svg"
   viewBox="0 0 2666.6667 2666.6667"
   height="2666.6667"
   width="2666.6667"
   xml:space="preserve"
   id="svg2"
   version="1.1"><metadata
     id="metadata8"><rdf:RDF><cc:Work
         rdf:about=""><dc:format>image/svg+xml</dc:format><dc:type
           rdf:resource="http://purl.org/dc/dcmitype/StillImage" /></cc:Work></rdf:RDF></metadata><defs
     id="defs6" /><g
     transform="matrix(1.3333333,0,0,-1.3333333,0,2666.6667)"
     id="g10"><g
       transform="scale(0.1)"
       id="g12"><g
         transform="scale(1.22699)"
         id="g14"><path
           id="path16"
           style="fill:none;fill-opacity:1;fill-rule:nonzero;stroke:none"
           d="M 16300,0 H 0 V 16300 H 16300 V 0" /></g><path
         id="path18"
         style="fill:#454747;fill-opacity:1;fill-rule:nonzero;stroke:none"
         d="m 13715.2,7437.2 h -715.3 v 3103.4 h 715.3 V 7437.2" /><path
         id="path20"
         style="fill:#606163;fill-opacity:1;fill-rule:nonzero;stroke:none"
         d="m 13559.5,7437.2 h -436.7 v 3103.4 h 436.7 V 7437.2" /><g
         transform="scale(1.1035)"
         id="g22"><path
           id="path24"
           style="fill:#3970c0;fill-opacity:1;fill-rule:nonzero;stroke:none"
           d="m 15263.9,4101.51 c 0,0 -88.5,-106.94 -110.6,-151.16 -22.1,-44.31 -22.1,-136.47 -36.9,-158.59 -14.8,-22.11 -154.9,-272.85 -110.6,-346.62 44.3,-73.67 368.7,-73.67 435.1,-125.33 66.3,-51.56 298.6,-173.27 553.1,-165.93 254.3,7.43 306,121.71 224.9,265.52 -81.2,143.82 -169.6,129.05 -261.8,243.32 -92.2,114.28 -210.2,221.2 -221.2,228.64 -11.1,7.34 0,103.21 -140.2,132.67 -140.1,29.54 -331.8,77.48 -331.8,77.48" /></g><path
         id="path26"
         style="fill:#3970c0;fill-opacity:1;fill-rule:nonzero;stroke:none"
         d="m 13002.8,4314.4 -28.5,-176 c 0,0 -74.3,-64 -86.5,-146.4 -12.2,-82.4 -18.3,-216.7 -85.4,-378.4 -67.2,-161.8 -61.1,-289.9 27.4,-372.3 88.5,-82.4 595.1,-76.3 698.8,0 103.8,76.3 -122,579.8 -128.1,701.8 -6.1,122.1 -37.9,247.2 -37.9,247.2 0,0 -50.6,170.9 -56.7,186.2 -6.1,15.2 -195.3,94.6 -213.6,94.6 -18.3,0 -89.5,-156.7 -89.5,-156.7" /><path
         id="path28"
         style="fill:#878888;fill-opacity:1;fill-rule:nonzero;stroke:none"
         d="m 14380,3787.5 -494.3,-30.5 v -89.5 l 214.5,-93.6 1087.5,109.9 -179,103.7 H 14380" /><path
         id="path30"
         style="fill:#abaaa9;fill-opacity:1;fill-rule:nonzero;stroke:none"
         d="m 11415.9,4471.1 -134.2,-99.7 -166.8,49.8 150.5,348.9 3454.4,81.4 215.6,-81.4 -3519.5,-299" /><path
         id="path32"
         style="fill:#878888;fill-opacity:1;fill-rule:nonzero;stroke:none"
         d="m 11395.6,4696.9 -113.9,-325.5 3820.5,99.7 -166.8,299 -3539.8,-73.2" /><path
         id="path34"
         style="fill:#c4c2c1;fill-opacity:1;fill-rule:nonzero;stroke:none"
         d="m 13491,4945.1 v -175 h 95 l 458.4,663.2 c 0,0 -24.5,150.6 -114,134.3 -89.5,-16.3 -439.4,-622.5 -439.4,-622.5" /><path
         id="path36"
         style="fill:#c4c2c1;fill-opacity:1;fill-rule:nonzero;stroke:none"
         d="m 14772.7,6922.5 c 0,0 162.7,-223.8 162.7,-406.9 0,-183.1 -472,-573.7 -537.1,-663.2 -65.1,-89.5 345.9,-2168.6 345.9,-2168.6 h 443.5 v -109.9 h -1087.5 v 93.6 l 481.2,16.3 -130.2,476 c 0,0 -370.2,1664.1 -374.3,1676.3 -4.1,12.2 105.8,626.6 191.2,738.5 85.5,111.9 256.9,331.7 281.7,323.5 24.8,-8.2 222.9,24.4 222.9,24.4" /><path
         id="path38"
         style="fill:#abaaa9;fill-opacity:1;fill-rule:nonzero;stroke:none"
         d="m 13362.6,4819.5 128.4,-49.4 c 0,0 415,642.9 459.8,642.9 44.7,0 429.2,-1625.5 429.2,-1625.5 l 201.4,-103.7 v 213.6 c 0,0 -376.8,1483 -383.7,1714.9 -6.9,232 172.2,386.6 347.1,524.9 175,138.4 297,248.2 293,378.4 -4.1,130.2 -227.9,362.1 -227.9,362.1 0,0 -504.5,180.2 -699.8,131.8 -195.3,-48.4 -225.2,195.8 -350.6,-310.8 -125.5,-506.6 -196.9,-1879.2 -196.9,-1879.2" /><g
         transform="scale(1.05582)"
         id="g40"><path
           id="path42"
           style="fill:#fbc398;fill-opacity:1;fill-rule:nonzero;stroke:none"
           d="m 14030.2,6907.17 c 0,0 26,177.3 124.4,356.5 98.2,179.2 291.3,285.37 291.3,285.37 0,0 387.8,-83.06 694.1,-262.26 306.4,-179.2 647.5,-433.5 736.2,-487.49 88.6,-53.89 211.9,-130.99 242.7,-296.74 30.9,-165.65 61.7,-393.06 61.7,-393.06 0,0 73.2,-246.63 50.1,-886.33 -23.1,-639.69 69.3,-1017.41 69.3,-1017.41 l -165.7,-50.01 c 0,0 15.5,-131.08 0,-134.96 -15.4,-3.79 -138.7,-80.89 -138.7,-80.89 l -73.2,100.21 c 0,0 -65.6,608.91 -208.1,1009.64 -142.6,400.83 -154.2,689.8 -142.6,901.77 11.6,211.97 -158,269.74 -319.9,304.41 -161.8,34.66 -951.8,186.77 -951.8,186.77 l -269.8,464.48" /></g><path
         id="path44"
         style="fill:#252323;fill-opacity:1;fill-rule:nonzero;stroke:none"
         d="m 13491,8741.2 c -12.2,-8.1 -223.8,-142.4 -223.8,-142.4 0,0 -48.8,-170.9 -97.6,-313.3 -48.8,-142.4 -28.5,-187.1 -122.1,-463.8 -93.6,-276.7 -32.5,-537.1 40.7,-651 73.2,-113.9 998.9,-16.3 998.9,-16.3 l 168.8,118 557.4,20.3 c 0,0 480.2,638.8 468,655.1 -12.2,16.3 -187.2,122.1 -244.2,187.2 -56.9,65.1 -146.4,549.3 -146.4,549.3 0,0 -606.3,292.9 -708,284.8 -101.7,-8.2 -691.7,-227.9 -691.7,-227.9" /><path
         id="path46"
         style="fill:#454747;fill-opacity:1;fill-rule:nonzero;stroke:none"
         d="m 14023.1,6802.3 h 1075.1 c 0,0 170.9,184.7 130.2,313.1 -40.7,128.5 -415.1,177.3 -415.1,177.3 l -557.4,-20.3 -168.8,-118 -177,-144.9 113,-207.2" /><path
         id="path48"
         style="fill:#616565;fill-opacity:1;fill-rule:nonzero;stroke:none"
         d="m 15228.4,7115.5 c -40.7,128.4 -415.1,177.2 -415.1,177.2 l -557.4,-20.3 -168.8,-118 933.8,-19.2 c 0,0 36.6,-54 36.6,-147.6 0,-41.1 -23.6,-115.1 -50,-185.3 h 90.7 c 0,0 170.9,184.7 130.2,313.2" /><path
         id="path50"
         style="fill:#fbc398;fill-opacity:1;fill-rule:nonzero;stroke:none"
         d="m 13246.9,9493.9 c 0,0 97.6,-191.2 101.7,-427.2 4.1,-236 -81.4,-467.9 -81.4,-467.9 0,0 223.8,73.3 606.3,73.3 382.4,0 1017.2,12.2 1017.2,12.2 l 36.6,935.8 c 0,0 -541.2,236 -695.8,227.8 -154.6,-8.1 -325.5,20.4 -545.2,-65.1 -219.7,-85.4 -439.4,-288.9 -439.4,-288.9" /><path
         id="path52"
         style="fill:#fbc398;fill-opacity:1;fill-rule:nonzero;stroke:none"
         d="m 14536.7,11060.4 c 0,0 362.1,341.8 476,431.3 0,0 80.2,288.9 170.3,476 90.1,187.2 175.6,321.5 175.6,321.5 0,0 32.5,382.4 191.2,691.7 158.7,309.2 272.6,854.4 272.6,854.4 l 293,-32.5 c 0,0 -114,-739.7 -195.4,-1102.3 -81.3,-362.5 -162.7,-561.9 -162.7,-561.9 0,0 -65.1,-394.6 -166.8,-699.8 -101.7,-305.1 -97.7,-394.7 -264.5,-573.7 -166.8,-179 -301.1,-485.7 -301.1,-485.7 0,0 -349.3,82.9 -406.6,152.1 -57.2,69.1 -81.6,528.9 -81.6,528.9" /><path
         id="path54"
         style="fill:#3d2d2a;fill-opacity:1;fill-rule:nonzero;stroke:none"
         d="m 13422.8,12413.3 c 0,0 -263,-94.6 -275.2,-393.7 -12.2,-299 128.2,-476 36.6,-830 -91.5,-354 372.3,-617.1 531,-424.5 158.7,192.6 445.6,646.3 369.3,919.9 -76.4,273.6 -27.5,387.5 -137.4,489.2 -109.9,101.7 -524.3,239.1 -524.3,239.1" /><path
         id="path56"
         style="fill:#3970c0;fill-opacity:1;fill-rule:nonzero;stroke:none"
         d="m 13809.4,11263.9 c -61.1,9.1 -233.5,-45.8 -233.5,-45.8 l -129.6,-97.7 -406.9,-873.7 207.5,-752.8 c 0,0 529.9,175 1017.6,166.9 487.8,-8.2 662.8,-40.7 662.8,-40.7 l 24.4,109.8 c 0,0 264.5,118 227.8,451.7 -36.6,333.6 -349.9,573.7 -410.9,642.8 -61,69.2 -231.9,236 -231.9,236 l -325.5,204.5 -401.8,-1" /><path
         id="path58"
         style="fill:#fbc398;fill-opacity:1;fill-rule:nonzero;stroke:none"
         d="m 13693.4,11833.6 c 0,0 3.1,-243.2 -27.4,-374.5 -30.6,-131.2 -90.1,-241 -90.1,-241 0,0 77.9,-12.2 199.9,-256.4 122.1,-244.1 198.4,-292.9 509.6,-323.4 311.3,-30.5 402.8,61 280.8,244.1 -122.1,183.1 -301.7,397.3 -301.7,397.3 0,0 -299.5,533.3 -363.6,576.1 -64.1,42.8 -207.5,-22.2 -207.5,-22.2" /><path
         id="path60"
         style="fill:#df9866;fill-opacity:1;fill-rule:nonzero;stroke:none"
         d="m 14264.5,11609.9 -485.3,169.5 c -7.8,4 -73.5,54.2 -73.5,54.2 0,0 -3.8,-119.5 36.5,-227.6 29.8,-80 246.1,-322.4 522.3,-326.3 v 330.2" /><path
         id="path62"
         style="fill:#3970c0;fill-opacity:1;fill-rule:nonzero;stroke:none"
         d="m 13393.6,12436.6 c 0,0 -53.3,-60.7 -41.1,-210.7 12.2,-150 126.5,-200.4 126.5,-200.4 0,0 19.4,199.2 30.1,228.2 10.6,29 -115.5,182.9 -115.5,182.9" /><path
         id="path64"
         style="fill:#523d38;fill-opacity:1;fill-rule:nonzero;stroke:none"
         d="m 14468.2,12368.8 c 11.4,-8.6 100.7,-111.7 100.7,-111.7 0,0 39.4,217.2 -20.3,420.1 -59.7,202.9 -236.6,348.8 -565.2,326.5 -328.5,-22.4 -497.4,-267.9 -566.2,-439.2 -68.8,-171.3 -4.8,-482.5 6.5,-531.1 11.4,-48.5 189.6,-177.6 189.6,-177.6 l 608.7,186.6 246.2,326.4" /><path
         id="path66"
         style="fill:#fbc398;fill-opacity:1;fill-rule:nonzero;stroke:none"
         d="m 13689.8,12090.9 c 0,0 -60.9,42 -118,30.6 -57.2,-11.3 -38.3,-114.2 -0.4,-228.5 38,-114.3 140.8,-106.8 140.8,-106.8 0,0 41.8,-91.5 72.2,-144.9 30.4,-53.4 271,-231.8 331,-246.1 60,-14.4 139.9,-14.5 191.4,-0.3 51.4,14.2 217.4,213.9 263.3,376.7 46,162.8 5.3,359.9 0.7,432.3 -4.7,72.4 3.1,207.6 -36.7,316.2 -39.9,108.6 -148.3,180.2 -331.1,180.4 -182.9,0.3 -323,-88.1 -394.6,-233.6 -71.6,-145.6 -59.5,-355.1 -118.6,-376" /><path
         id="path68"
         style="fill:#2c5e9c;fill-opacity:1;fill-rule:nonzero;stroke:none"
         d="m 13452.4,10107.3 c 0,0 219.7,-97.6 415,-122.1 195.3,-24.4 427.2,12.2 427.2,12.2 0,0 -158.7,-131.2 -421.1,-97.6 -262.5,33.6 -421.1,207.5 -421.1,207.5" /><path
         id="path70"
         style="fill:#fbc398;fill-opacity:1;fill-rule:nonzero;stroke:none"
         d="m 13088.2,7170.7 c 0,0 -44.8,215.6 0,406.9 44.7,191.2 252.3,329.5 455.7,333.6 203.4,4.1 488.2,-175 565.6,-370.3 77.3,-195.3 88.2,-309.2 88.2,-309.2 l -110.6,-77.3 c 0,0 -18.3,-260.4 -95.6,-439.4 -77.3,-179 -175,-325.5 -175,-325.5 0,0 4.1,-394.7 -118,-703.9 -122.1,-309.2 -223.8,-488.3 -284.8,-781.2 -61,-293 -69.2,-854.5 -69.2,-854.5 0,0 -48.8,-12.2 -65.1,81.4 -16.2,93.6 -24.4,179 -24.4,179 l -252.2,4.1 c 0,0 -28.5,972.4 -28.5,1326.4 0,354 154.6,813.8 248.2,964.3 93.5,150.6 61,301.1 36.6,341.8 -24.4,40.7 -157.4,129.1 -170.9,223.8" /><path
         id="path72"
         style="fill:#f5f6f5;fill-opacity:1;fill-rule:nonzero;stroke:none"
         d="m 12998.3,4471.1 c 2.7,-96.2 4.5,-156.7 4.5,-156.7 l 252.2,-4.1 c 0,0 8.2,-85.4 24.4,-179 16.3,-93.6 65.1,-81.3 65.1,-81.3 0,0 2.9,198.5 18.1,421.1 h -364.3" /><path
         id="path74"
         style="fill:#df9866;fill-opacity:1;fill-rule:nonzero;stroke:none"
         d="m 13621.2,6735.3 c 0,0 89.5,-191.2 0,-321.4 0,0 211.6,130.2 0,321.4" /><path
         id="path76"
         style="fill:#df9866;fill-opacity:1;fill-rule:nonzero;stroke:none"
         d="m 13284.6,6802.6 c -0.9,-5.9 31.4,77.2 15.2,211.4 -16.3,134.3 -42.7,213.6 -38.7,201.4 4.1,-12.2 -0.4,-248.2 -0.4,-248.2 0,0 35.2,-86.9 23.9,-164.6" /><g
         transform="scale(1.03535)"
         id="g78"><path
           id="path80"
           style="fill:#df9866;fill-opacity:1;fill-rule:nonzero;stroke:none"
           d="m 16167.4,6770.18 c 0,0 34.4,-221.57 132.6,-276.62 0,0 -245.6,69.83 -132.6,276.62" /></g><g
         transform="scale(1.05582)"
         id="g82"><path
           id="path84"
           style="fill:#f5f6f5;fill-opacity:1;fill-rule:nonzero;stroke:none"
           d="m 16264.1,4414.98 -387.8,-47.55 c 31.1,-188.58 46.1,-327.33 46.1,-327.33 l 73.2,-100.21 c 0,0 123.3,77.1 138.7,80.89 15.5,3.88 0,134.96 0,134.96 l 165.7,50.01 c 0,0 -17.8,73.12 -35.9,209.23" /></g><path
         id="path86"
         style="fill:#fbc398;fill-opacity:1;fill-rule:nonzero;stroke:none"
         d="m 13039.4,10246.7 c 0,0 288.9,136.9 413,385.8 124,248.9 36.6,520.1 36.6,520.1 l -42.7,-32.2 c 0,0 -390.7,371.3 -406.9,420.1 -16.3,48.9 -236,890.4 -236,890.4 0,0 -4.1,126.8 -28.5,224.5 -24.4,97.6 -48.8,158.6 -48.8,158.6 0,0 -73.3,358.1 -97.7,712.1 -24.4,354 0,504.5 0,504.5 h -337.7 c 0,0 -48.8,-706.7 -28.5,-1024.7 20.4,-318 150.6,-733 150.6,-733 0,0 69.2,-288.9 73.2,-533 4.1,-244.1 150.6,-836.9 252.3,-1010.4 101.7,-173.6 166.8,-194 207.5,-250.9 40.7,-57 93.6,-231.9 93.6,-231.9" /><path
         id="path88"
         style="fill:#df9866;fill-opacity:1;fill-rule:nonzero;stroke:none"
         d="m 12888.1,10950.6 c 0,0 4.8,-195.3 74,-337.7 0,0 -143.9,69.1 -74,337.7" /><path
         id="path90"
         style="fill:#df9866;fill-opacity:1;fill-rule:nonzero;stroke:none"
         d="m 12524.7,12377.7 c 0,0 112.9,-27.5 213.6,0 0,0 -149.5,-140.4 -213.6,0" /><path
         id="path92"
         style="fill:#df9866;fill-opacity:1;fill-rule:nonzero;stroke:none"
         d="m 14955.8,11149.9 56.9,341.8 -56.9,-47.5 z" /><path
         id="path94"
         style="fill:#df9866;fill-opacity:1;fill-rule:nonzero;stroke:none"
         d="m 15484.7,12313.6 c 0,0 85.4,-48.8 174.9,-44.8 0,0 -126.1,-109.8 -174.9,44.8" /><g
         transform="scale(1.14019)"
         id="g96"><path
           id="path98"
           style="fill:#abaaa9;fill-opacity:1;fill-rule:nonzero;stroke:none"
           d="m 8308.36,12836.3 c 0,0 -48.18,-58.9 0,-147.2 l 7945.24,-465.7 c 0,0 46.4,82.1 0,132 l -7945.24,480.9" /></g><path
         id="path100"
         style="fill:#444647;fill-opacity:1;fill-rule:nonzero;stroke:none"
         d="m 11030.4,15197.2 -165.4,11.9 -14.6,-96.2 -15,-224.2 c -32.7,-120.6 -57.5,-268.4 -69.1,-429.2 -12.4,-171.3 -7.8,-330.4 10,-458.8 l -19.8,-297.2 165.3,-11.9 c 115.8,-8.4 234,321.9 264,737.7 30,415.7 -39.6,759.5 -155.4,767.9" /><path
         id="path102"
         style="fill:#5b5f5f;fill-opacity:1;fill-rule:nonzero;stroke:none"
         d="m 11020.5,14441.2 c -30,-415.8 -148.2,-746 -264,-737.7 -115.9,8.4 -185.5,352.2 -155.5,767.9 30,415.8 148.2,746.1 264,737.7 115.9,-8.3 185.5,-352.2 155.5,-767.9" /><path
         id="path104"
         style="fill:#333232;fill-opacity:1;fill-rule:nonzero;stroke:none"
         d="m 10846.2,14471.1 c -5.4,-113.2 -50.7,-203.1 -101.2,-200.7 -50.5,2.5 -87.1,96.2 -81.7,209.4 5.4,113.2 50.8,203 101.3,200.6 50.5,-2.4 87,-96.1 81.6,-209.3" /><g
         transform="scale(1.07354)"
         id="g106"><path
           id="path108"
           style="fill:#444647;fill-opacity:1;fill-rule:nonzero;stroke:none"
           d="m 16127.3,13804.9 -154,11.2 -13.7,-89.7 -13.8,-208.8 c -30.6,-112.3 -53.7,-250 -64.5,-399.8 -11.5,-159.6 -7.3,-307.7 9.3,-427.4 l -18.4,-276.8 153.9,-11.1 c 107.9,-7.8 218.1,299.8 246,687.1 27.9,387.3 -36.9,707.6 -144.8,715.3" /></g><g
         transform="scale(1.0634)"
         id="g110"><path
           id="path112"
           style="fill:#5b5f5f;fill-opacity:1;fill-rule:nonzero;stroke:none"
           d="m 16271.8,13225.7 c -28.1,-391 -139.4,-701.6 -248.3,-693.7 -109,7.8 -174.4,331.1 -146.2,722.1 28.2,391 139.4,701.6 248.4,693.7 108.8,-7.8 174.3,-331.2 146.1,-722.1" /></g><g
         transform="scale(1.0512)"
         id="g114"><path
           id="path116"
           style="fill:#333232;fill-opacity:1;fill-rule:nonzero;stroke:none"
           d="m 16294.8,13407.5 c -5.2,-107.7 -48.3,-193.1 -96.3,-190.8 -48,2.3 -82.9,91.4 -77.6,199.1 5.1,107.7 48.2,193.2 96.2,190.9 48.1,-2.3 82.9,-91.5 77.7,-199.2" /></g><path
         id="path118"
         style="fill:#fbc398;fill-opacity:1;fill-rule:nonzero;stroke:none"
         d="m 12277.5,14471 c 0,0 47.3,70.2 85.4,77.9 38.2,7.6 70.2,-7.7 70.2,-7.7 0,0 67.2,19.9 84,1.6 0,0 45.7,21.3 80.8,15.2 35.1,-6.1 42.7,-15.2 42.7,-15.2 0,0 77.8,10.6 109.9,-4.6 32,-15.3 29,-93.1 16.8,-106.8 -12.2,-13.8 -62.6,-12.2 -62.6,-12.2 0,0 -3,-47.3 -50.3,-51.9 -47.3,-4.6 -62.6,13.7 -62.6,13.7 0,0 -19.2,-32 -67.6,-14.4 -48.4,17.5 -83.4,67.8 -83.4,67.8 0,0 -35.1,-1.5 -61.1,4.6 -25.9,6.1 -36.6,21.2 -36.6,21.2 l -65.6,10.8" /><path
         id="path120"
         style="fill:#fbc398;fill-opacity:1;fill-rule:nonzero;stroke:none"
         d="m 15602.7,14278.8 c 0,0 44.7,81.4 87.5,87.5 42.7,6.1 81.3,-12.2 81.3,-12.2 0,0 65.1,16.2 89.6,-2.1 0,0 67.1,24.4 101.7,-14.2 0,0 73.2,4.1 85.4,-4.1 12.2,-8.1 30.5,-91.5 24.4,-109.8 -6.1,-18.3 -46.8,-22.4 -46.8,-22.4 0,0 -16.2,-30.5 -34.5,-36.6 -18.4,-6.1 -55,10.1 -55,10.1 0,0 -32.5,-21 -65.1,-11.5 -32.5,9.5 -63,40 -63,40 0,0 -26.5,-14.2 -59,6.1 -32.6,20.4 -61.1,54.7 -61.1,54.7 l -85.4,14.5" /><path
         id="path122"
         style="fill:#fbc398;fill-opacity:1;fill-rule:nonzero;stroke:none"
         d="m 12628.4,14030.6 c 0,0 167.9,80.4 186.2,95.6 18.3,15.3 30.5,128.2 30.5,128.2 0,0 -167.8,58 -216.7,64.1 -48.8,6.1 -131.2,-27.5 -131.2,-27.5 l -289.8,16.7 c 0,0 -31.6,-174.4 83.3,-277.1 115,-102.7 337.7,0 337.7,0" /><path
         id="path124"
         style="fill:#fbc398;fill-opacity:1;fill-rule:nonzero;stroke:none"
         d="m 15822.4,13835.3 c 0,0 -8.1,8.1 -138.3,48.8 -130.2,40.7 -183.1,61.1 -191.3,73.3 -8.1,12.2 -56.9,158.6 -56.9,158.6 l 723,-39.9 c 0,0 -6.9,-196 -43.5,-273.3 -36.7,-77.4 -154.7,-101.8 -179.1,-85.5 -24.4,16.3 -113.9,118 -113.9,118" /><path
         id="path126"
         style="fill:#abaaa9;fill-opacity:1;fill-rule:nonzero;stroke:none"
         d="m 10754.8,14558.3 -1281.69,77.5 c 0,0 -54.93,-67.1 0,-167.8 l 1270.89,-74.3 c 0,0 15,34.1 16.4,81.7 1.2,39.5 -5.6,82.9 -5.6,82.9" /><g
         transform="scale(1.04587)"
         id="g128"><path
           id="path130"
           style="fill:#abaaa9;fill-opacity:1;fill-rule:nonzero;stroke:none"
           d="m 15927.7,13578.1 v -147.3 l 357.7,-21 c 0,0 12.3,55.4 13.5,74.2 1.1,18 -4.1,71.9 -4.1,71.9 l -367.1,22.2" /></g><path
         id="path132"
         style="fill:#fbc398;fill-opacity:1;fill-rule:nonzero;stroke:none"
         d="m 6102.23,9729.9 c 0,0 292.95,-496.4 419.08,-622.5 126.13,-126.1 325.5,-154.3 402.8,-138.2 77.31,16.1 215.65,329.4 288.88,524.7 73.24,195.3 113.89,1042 113.89,1042 l -293.42,28 c 0,0 -44.25,-260.3 -109.35,-439.3 -65.1,-179 -162.75,-374.3 -162.75,-360.1 0,14.2 -29.91,117.6 -118.71,299.9 -88.79,182.3 -88.79,182.3 -88.79,182.3 0,0 16.27,522.9 -301.09,643.9 -317.36,121 -511.37,169.8 -511.37,169.8 0,0 -111.15,-517.8 -107.08,-566.1 4.07,-48.3 158.68,-430.1 191.23,-493.5 32.55,-63.4 276.68,-270.9 276.68,-270.9" /><path
         id="path134"
         style="fill:#454747;fill-opacity:1;fill-rule:nonzero;stroke:none"
         d="m 4919.96,7437.2 h -715.33 v 3103.4 h 715.33 V 7437.2" /><path
         id="path136"
         style="fill:#606163;fill-opacity:1;fill-rule:nonzero;stroke:none"
         d="M 4764.18,7437.2 H 4327.5 v 3103.4 h 436.68 V 7437.2" /><path
         id="path138"
         style="fill:#878888;fill-opacity:1;fill-rule:nonzero;stroke:none"
         d="M 5584.75,3787.5 5090.4,3757 v -89.5 l 214.54,-93.6 1087.46,109.9 -179.03,103.7 h -628.62" /><path
         id="path140"
         style="fill:#abaaa9;fill-opacity:1;fill-rule:nonzero;stroke:none"
         d="m 2620.66,4471.1 -134.27,-99.7 -166.82,49.8 150.55,348.9 3454.37,81.4 215.64,-81.4 -3519.47,-299" /><path
         id="path142"
         style="fill:#878888;fill-opacity:1;fill-rule:nonzero;stroke:none"
         d="m 2600.32,4696.9 -113.93,-325.5 3820.56,99.7 -166.82,299 -3539.81,-73.2" /><path
         id="path144"
         style="fill:#c4c2c1;fill-opacity:1;fill-rule:nonzero;stroke:none"
         d="m 4695.72,4945.1 v -175 h 95 l 458.36,663.2 c 0,0 -24.42,150.6 -113.93,134.3 -89.51,-16.3 -439.43,-622.5 -439.43,-622.5" /><path
         id="path146"
         style="fill:#c4c2c1;fill-opacity:1;fill-rule:nonzero;stroke:none"
         d="m 5977.38,6922.5 c 0,0 162.75,-223.8 162.75,-406.9 0,-183.1 -471.97,-573.7 -537.07,-663.2 -65.1,-89.5 345.84,-2168.6 345.84,-2168.6 h 443.5 V 3573.9 H 5304.94 v 93.6 l 481.21,16.3 -130.2,476 c 0,0 -370.26,1664.1 -374.32,1676.3 -4.07,12.2 105.78,626.6 191.23,738.5 85.44,111.9 256.83,331.7 281.65,323.5 24.82,-8.2 222.87,24.4 222.87,24.4" /><path
         id="path148"
         style="fill:#abaaa9;fill-opacity:1;fill-rule:nonzero;stroke:none"
         d="m 4567.29,4819.5 128.43,-49.4 c 0,0 415.02,642.9 459.77,642.9 44.76,0 429.26,-1625.5 429.26,-1625.5 l 201.4,-103.7 v 213.6 c 0,0 -376.8,1483 -383.7,1714.9 -6.9,232 172.13,386.6 347.08,524.9 174.96,138.4 297.02,248.2 292.95,378.4 -4.07,130.2 -227.85,362.1 -227.85,362.1 0,0 -504.52,180.2 -699.83,131.8 -195.29,-48.4 -225.19,195.8 -350.62,-310.8 -125.42,-506.6 -196.89,-1879.2 -196.89,-1879.2" /><path
         id="path150"
         style="fill:#3970c0;fill-opacity:1;fill-rule:nonzero;stroke:none"
         d="m 8048.38,4526 c 0,0 -97.65,-118 -122.07,-166.8 -24.41,-48.9 -24.41,-150.6 -40.68,-175 -16.27,-24.4 -170.89,-301.1 -122.07,-382.5 48.83,-81.3 406.88,-81.3 480.12,-138.3 73.23,-56.9 329.57,-191.2 610.31,-183.1 280.75,8.2 337.71,134.3 248.2,293 -89.52,158.7 -187.17,142.4 -288.88,268.5 -101.72,126.1 -231.92,244.1 -244.13,252.3 -12.21,8.1 0,113.9 -154.61,146.4 -154.62,32.6 -366.19,85.5 -366.19,85.5" /><path
         id="path152"
         style="fill:#3970c0;fill-opacity:1;fill-rule:nonzero;stroke:none"
         d="m 4207.48,4314.4 -28.49,-176 c 0,0 -74.25,-64 -86.46,-146.4 -12.2,-82.4 -18.31,-216.7 -85.44,-378.4 -67.14,-161.8 -61.04,-289.9 27.46,-372.3 88.5,-82.4 595.06,-76.3 698.81,0 103.75,76.3 -122.06,579.8 -128.16,701.8 -6.11,122.1 -37.91,247.2 -37.91,247.2 0,0 -50.59,170.9 -56.69,186.2 -6.11,15.2 -195.3,94.6 -213.61,94.6 -18.31,0 -89.51,-156.7 -89.51,-156.7" /><path
         id="path154"
         style="fill:#252323;fill-opacity:1;fill-rule:nonzero;stroke:none"
         d="m 4695.72,8741.2 c -12.2,-8.1 -223.78,-142.4 -223.78,-142.4 0,0 -48.82,-170.9 -97.65,-313.3 -48.82,-142.4 -28.48,-187.1 -122.06,-463.8 -93.58,-276.7 -32.55,-537.1 40.69,-651 73.24,-113.9 998.88,-16.3 998.88,-16.3 l 168.85,118 557.42,20.3 c 0,0 480.11,638.8 467.91,655.1 -12.21,16.3 -187.17,122.1 -244.13,187.2 -56.96,65.1 -146.47,549.3 -146.47,549.3 0,0 -606.25,292.9 -707.97,284.8 -101.72,-8.2 -691.69,-227.9 -691.69,-227.9" /><path
         id="path156"
         style="fill:#fbc398;fill-opacity:1;fill-rule:nonzero;stroke:none"
         d="m 4451.6,9493.9 c 0,0 97.65,-191.2 101.72,-427.2 4.07,-236 -81.38,-467.9 -81.38,-467.9 0,0 223.78,73.3 606.25,73.3 382.46,0 1017.19,12.2 1017.19,12.2 l 36.62,935.8 c 0,0 -541.15,236 -695.76,227.8 -154.61,-8.1 -325.5,20.4 -545.21,-65.1 -219.72,-85.4 -439.43,-288.9 -439.43,-288.9" /><path
         id="path158"
         style="fill:#3d2d2a;fill-opacity:1;fill-rule:nonzero;stroke:none"
         d="m 4627.51,12413.3 c 0,0 -262.99,-94.6 -275.2,-393.7 -12.2,-299 128.17,-476 36.62,-830 -91.55,-354 372.29,-617.1 530.97,-424.5 158.68,192.6 445.63,646.3 369.29,919.9 -76.34,273.6 -27.51,387.5 -137.37,489.2 -109.85,101.7 -524.31,239.1 -524.31,239.1" /><path
         id="path160"
         style="fill:#3970c0;fill-opacity:1;fill-rule:nonzero;stroke:none"
         d="m 4690.37,11266.6 -128.08,-84.1 c 0,0 42.26,-216.4 28.21,-429.1 -14.06,-212.8 88.82,-329.7 173.68,-212.8 84.87,117 316.79,522.5 292.37,553.7 -24.41,31.2 -366.18,172.3 -366.18,172.3" /><path
         id="path162"
         style="fill:#3970c0;fill-opacity:1;fill-rule:nonzero;stroke:none"
         d="m 5014.11,11263.9 c -61.04,9.1 -233.45,-45.8 -233.45,-45.8 l -129.69,-97.7 -406.88,-873.7 207.51,-752.8 c 0,0 529.87,175 1017.66,166.9 487.78,-8.2 662.74,-40.7 662.74,-40.7 l 24.41,109.8 c 0,0 264.46,118 227.85,451.7 -36.62,333.6 -349.91,573.7 -410.94,642.8 -61.04,69.2 -231.92,236 -231.92,236 l -325.51,204.5 -401.78,-1" /><path
         id="path164"
         style="fill:#fbc398;fill-opacity:1;fill-rule:nonzero;stroke:none"
         d="m 4898.14,11833.6 c 0,0 -2.3,-145.7 -32.82,-276.9 -30.51,-131.3 -174.95,-290.1 -174.95,-290.1 0,0 44.23,-104.3 166.3,-348.4 122.06,-244.1 350.98,-220.6 663.72,-218.2 345.48,2.7 388.05,47.1 265.98,230.2 -122.06,183.1 -317.11,349.5 -317.11,349.5 0,0 -299.52,533.3 -363.61,576.1 -64.08,42.8 -207.51,-22.2 -207.51,-22.2" /><path
         id="path166"
         style="fill:#df9866;fill-opacity:1;fill-rule:nonzero;stroke:none"
         d="m 5469.26,11609.9 -485.3,169.5 c -7.81,4 -73.54,54.2 -73.54,54.2 0,0 -3.85,-119.5 36.47,-227.6 29.83,-80 246.08,-322.4 522.37,-326.3 v 330.2" /><path
         id="path168"
         style="fill:#3970c0;fill-opacity:1;fill-rule:nonzero;stroke:none"
         d="m 4598.3,12436.6 c 0,0 -53.33,-60.7 -41.08,-210.7 12.25,-150 126.47,-200.4 126.47,-200.4 0,0 19.43,199.2 30.1,228.2 10.67,29 -115.49,182.9 -115.49,182.9" /><path
         id="path170"
         style="fill:#523d38;fill-opacity:1;fill-rule:nonzero;stroke:none"
         d="m 5672.88,12368.8 c 11.41,-8.6 100.76,-111.7 100.76,-111.7 0,0 39.37,217.2 -20.33,420.1 -59.7,202.9 -236.6,348.8 -565.15,326.5 -328.54,-22.4 -497.44,-267.9 -566.25,-439.2 -68.8,-171.3 -4.82,-482.5 6.54,-531.1 11.35,-48.5 189.55,-177.6 189.55,-177.6 l 608.73,186.6 246.15,326.4" /><path
         id="path172"
         style="fill:#fbc398;fill-opacity:1;fill-rule:nonzero;stroke:none"
         d="m 4894.52,12090.9 c 0,0 -60.89,42 -118.04,30.6 -57.14,-11.3 -38.25,-114.2 -0.32,-228.5 37.92,-114.3 140.77,-106.8 140.77,-106.8 0,0 41.76,-91.5 72.16,-144.9 30.39,-53.4 271.04,-231.8 331.01,-246.1 59.97,-14.4 139.96,-14.5 191.39,-0.3 51.44,14.2 217.43,213.9 263.36,376.7 45.95,162.8 5.29,359.9 0.63,432.3 -4.65,72.4 3.15,207.6 -36.68,316.2 -39.84,108.6 -148.29,180.2 -331.11,180.4 -182.83,0.3 -322.93,-88.1 -394.56,-233.6 -71.63,-145.6 -59.55,-355.1 -118.61,-376" /><path
         id="path174"
         style="fill:#2c5e9c;fill-opacity:1;fill-rule:nonzero;stroke:none"
         d="m 4657.07,10107.3 c 0,0 219.71,-97.6 415.01,-122.1 195.3,-24.4 427.22,12.2 427.22,12.2 0,0 -158.68,-131.2 -421.11,-97.6 -262.44,33.6 -421.12,207.5 -421.12,207.5" /><path
         id="path176"
         style="fill:#fbc398;fill-opacity:1;fill-rule:nonzero;stroke:none"
         d="m 3437.42,10788.2 c 0,0 49.05,-480.5 0,-761.3 -49.06,-280.7 -61.26,-512.6 -28.71,-695.7 32.55,-183.1 85.45,-305.2 227.85,-313.3 142.4,-8.1 288.88,89.5 353.98,227.8 65.1,138.4 248.63,635.3 280.96,901.5 0,0 190.85,176.8 274.34,429 83.5,252.3 16.45,606.3 16.45,606.3 0,0 -195.57,-101.7 -210.74,-118 -15.16,-16.3 -374.05,-25 -374.05,-25 0,0 -227.02,-127.5 -271.77,-159.1 -44.76,-31.6 -268.31,-92.2 -268.31,-92.2" /><path
         id="path178"
         style="fill:#fbc398;fill-opacity:1;fill-rule:nonzero;stroke:none"
         d="m 6018.07,7292.7 c 0,0 27.46,187.2 131.22,376.4 103.75,189.2 307.64,301.3 307.64,301.3 0,0 409.48,-87.7 732.94,-276.9 323.46,-189.2 683.55,-457.7 777.13,-514.7 93.59,-56.9 223.79,-138.3 256.33,-313.3 32.55,-174.9 65.1,-415 65.1,-415 0,0 77.31,-260.4 52.9,-935.8 -24.42,-675.4 73.24,-1074.2 73.24,-1074.2 l -174.96,-52.8 c 0,0 16.27,-138.4 0,-142.5 -16.28,-4 -146.48,-85.4 -146.48,-85.4 l -77.3,105.8 c 0,0 -69.17,642.9 -219.72,1066 -150.54,423.2 -162.75,728.3 -150.54,952.1 12.21,223.8 -166.82,284.8 -337.7,321.4 -170.89,36.6 -1004.99,197.2 -1004.99,197.2 l -284.81,490.4" /><path
         id="path180"
         style="fill:#df9866;fill-opacity:1;fill-rule:nonzero;stroke:none"
         d="m 7943.61,7009.5 c 0,0 35.6,-229.4 137.32,-286.4 0,0 -254.3,72.3 -137.32,286.4" /><path
         id="path182"
         style="fill:#f5f6f5;fill-opacity:1;fill-rule:nonzero;stroke:none"
         d="m 8376.62,4661.4 -409.41,-50.2 c 32.84,-199.1 48.62,-345.6 48.62,-345.6 l 77.3,-105.8 c 0,0 130.2,81.4 146.48,85.4 16.27,4.1 0,142.5 0,142.5 l 174.96,52.8 c 0,0 -18.87,77.2 -37.95,220.9" /><path
         id="path184"
         style="fill:#df9866;fill-opacity:1;fill-rule:nonzero;stroke:none"
         d="m 3783.03,10698.4 c 0,0 4.07,-386 52.9,-697.6 48.83,-311.6 65.1,-584.2 65.1,-584.2 0,0 45.77,209.8 12.2,477.7 -33.56,267.9 -33.56,766.9 -33.56,766.9 0,0 136.3,65.6 170.38,105.2 34.07,39.7 0,170.7 0,170.7 0,0 -26.96,-27.2 -84.94,-42.5 -57.98,-15.2 -182.08,-196.2 -182.08,-196.2" /><path
         id="path186"
         style="fill:#df9866;fill-opacity:1;fill-rule:nonzero;stroke:none"
         d="m 4271.5,10147.2 c 0,0 -26.12,207.3 -27.41,213.4 -1.29,6.1 -66.38,158.7 -66.38,158.7 0,0 75.69,-95.6 93.79,-109.9 18.09,-14.2 86.8,-166.4 86.8,-166.4 l -86.8,-95.8" /><path
         id="path188"
         style="fill:#df9866;fill-opacity:1;fill-rule:nonzero;stroke:none"
         d="m 6679.99,9359.7 c 0,0 81.37,183 81.37,404.8 l 67.28,129.8 c 0,0 53.24,-331.5 -148.65,-534.6" /><path
         id="path190"
         style="fill:#454747;fill-opacity:1;fill-rule:nonzero;stroke:none"
         d="m 5227.86,6802.3 h 1075.02 c 0,0 170.89,184.7 130.2,313.1 -40.68,128.5 -415.01,177.3 -415.01,177.3 l -557.42,-20.3 -168.85,-118 -177,-144.9 113.06,-207.2" /><path
         id="path192"
         style="fill:#616565;fill-opacity:1;fill-rule:nonzero;stroke:none"
         d="m 6433.08,7115.5 c -40.69,128.4 -415.01,177.2 -415.01,177.2 l -557.42,-20.3 -168.85,-118 933.78,-19.2 c 0,0 36.62,-54 36.62,-147.6 0,-41.1 -23.54,-115.1 -49.95,-185.3 h 90.63 c 0,0 170.89,184.7 130.2,313.2" /><path
         id="path194"
         style="fill:#fbc398;fill-opacity:1;fill-rule:nonzero;stroke:none"
         d="m 4292.92,7170.7 c 0,0 -44.76,215.6 0,406.9 44.76,191.2 252.26,329.5 455.7,333.6 203.44,4.1 488.25,-175 565.55,-370.3 77.31,-195.3 88.28,-309.2 88.28,-309.2 l -110.65,-77.3 c 0,0 -18.31,-260.4 -95.62,-439.4 -77.3,-179 -174.95,-325.5 -174.95,-325.5 0,0 4.06,-394.7 -118,-703.9 -122.06,-309.2 -223.78,-488.3 -284.81,-781.2 -61.03,-293 -69.17,-854.5 -69.17,-854.5 0,0 -48.83,-12.2 -65.1,81.4 -16.27,93.6 -24.41,179 -24.41,179 l -252.26,4.1 c 0,0 -28.49,972.4 -28.49,1326.4 0,354 154.61,813.8 248.2,964.3 93.58,150.6 61.03,301.1 36.61,341.8 -24.41,40.7 -157.33,129.1 -170.88,223.8" /><path
         id="path196"
         style="fill:#df9866;fill-opacity:1;fill-rule:nonzero;stroke:none"
         d="m 4825.92,6735.3 c 0,0 89.52,-191.2 0,-321.4 0,0 211.58,130.2 0,321.4" /><path
         id="path198"
         style="fill:#f5f6f5;fill-opacity:1;fill-rule:nonzero;stroke:none"
         d="m 4203.05,4471.1 c 2.65,-96.2 4.43,-156.7 4.43,-156.7 l 252.26,-4.1 c 0,0 8.14,-85.4 24.41,-179 16.27,-93.6 65.1,-81.3 65.1,-81.3 0,0 2.88,198.5 18.04,421.1 h -364.24" /><path
         id="path200"
         style="fill:#df9866;fill-opacity:1;fill-rule:nonzero;stroke:none"
         d="m 4489.32,6802.6 c -0.86,-5.9 31.45,77.2 15.17,211.4 -16.27,134.3 -42.72,213.6 -38.65,201.4 4.07,-12.2 -0.42,-248.2 -0.42,-248.2 0,0 35.17,-86.9 23.9,-164.6" /><path
         id="path202"
         style="fill:#abaaa9;fill-opacity:1;fill-rule:nonzero;stroke:none"
         d="m 674.043,11254.4 c 0,0 -53.723,-68 2.992,-167.8 l 9067.115,-369.3 c 0,0 51.21,94.5 -2.69,150.5 l -9067.417,386.6" /><path
         id="path204"
         style="fill:#444647;fill-opacity:1;fill-rule:nonzero;stroke:none"
         d="m 2221.03,11843.5 -165.49,9 -12.95,-96.5 -10.94,-224.4 c -30.59,-121.2 -52.77,-269.4 -61.5,-430.4 -9.3,-171.5 -1.87,-330.4 18.16,-458.6 l -14.51,-297.4 165.5,-9 c 115.98,-6.3 228.3,326 250.88,742.2 22.56,416.3 -53.16,758.8 -169.15,765.1" /><path
         id="path206"
         style="fill:#5b5f5f;fill-opacity:1;fill-rule:nonzero;stroke:none"
         d="m 2224.68,11087.4 c -22.57,-416.2 -134.89,-748.5 -250.88,-742.2 -115.98,6.3 -191.71,348.8 -169.14,765 22.57,416.2 134.89,748.6 250.88,742.3 115.98,-6.3 191.71,-348.8 169.14,-765.1" /><path
         id="path208"
         style="fill:#333232;fill-opacity:1;fill-rule:nonzero;stroke:none"
         d="m 2049.86,11114.2 c -3.39,-113.3 -47.1,-203.9 -97.64,-202.4 -50.54,1.5 -88.76,94.6 -85.37,207.9 3.39,113.2 47.11,203.9 97.65,202.4 50.53,-1.6 88.75,-94.6 85.36,-207.9" /><path
         id="path210"
         style="fill:#444647;fill-opacity:1;fill-rule:nonzero;stroke:none"
         d="m 8509.68,11578.5 -165.49,9 -12.94,-96.5 -10.95,-224.4 c -30.58,-121.1 -52.77,-269.4 -61.49,-430.3 -9.3,-171.6 -1.88,-330.5 18.15,-458.6 l -14.5,-297.5 165.49,-9 c 115.99,-6.3 228.3,326.1 250.88,742.3 22.57,416.2 -53.16,758.7 -169.15,765" /><path
         id="path212"
         style="fill:#5b5f5f;fill-opacity:1;fill-rule:nonzero;stroke:none"
         d="m 8513.33,10822.5 c -22.57,-416.3 -134.89,-748.6 -250.87,-742.3 -115.99,6.3 -191.72,348.8 -169.14,765 22.56,416.3 134.88,748.6 250.87,742.3 115.99,-6.3 191.71,-348.8 169.14,-765" /><path
         id="path214"
         style="fill:#333232;fill-opacity:1;fill-rule:nonzero;stroke:none"
         d="m 8338.52,10849.2 c -3.39,-113.3 -47.11,-203.9 -97.65,-202.4 -50.53,1.5 -88.76,94.6 -85.37,207.9 3.4,113.3 47.11,203.9 97.65,202.4 50.54,-1.5 88.75,-94.6 85.37,-207.9" /><path
         id="path216"
         style="fill:#fbc398;fill-opacity:1;fill-rule:nonzero;stroke:none"
         d="m 3480.93,11139.7 c 0,0 46.04,71 84.04,79.3 38,8.3 70.31,-6.4 70.31,-6.4 0,0 66.77,21.1 83.88,3.1 0,0 45.38,22.1 80.58,16.7 35.2,-5.5 42.98,-14.5 42.98,-14.5 0,0 77.62,12 109.93,-2.7 32.31,-14.6 30.64,-92.5 18.68,-106.4 -11.96,-14 -62.33,-13.4 -62.33,-13.4 0,0 -2.21,-47.3 -49.42,-52.7 -47.21,-5.4 -62.79,12.6 -62.79,12.6 0,0 -18.64,-32.3 -67.32,-15.7 -48.67,16.7 -84.66,66.4 -84.66,66.4 0,0 -35.06,-2.2 -61.1,3.5 -26.04,5.6 -36.99,20.5 -36.99,20.5 l -65.79,9.7" /><path
         id="path218"
         style="fill:#fbc398;fill-opacity:1;fill-rule:nonzero;stroke:none"
         d="m 6809.01,11006.8 c 0,0 43.3,82.1 85.91,89 42.6,6.8 81.58,-10.8 81.58,-10.8 0,0 64.8,17.4 89.54,-0.4 0,0 66.68,25.6 101.95,-12.4 0,0 73.15,5.3 85.5,-2.6 12.35,-7.9 32.14,-91 26.37,-109.4 -5.78,-18.4 -46.38,-23.2 -46.38,-23.2 0,0 -15.73,-30.8 -33.93,-37.2 -18.2,-6.5 -55.1,9.2 -55.1,9.2 0,0 -32.17,-21.7 -64.88,-12.7 -32.72,8.9 -63.77,38.9 -63.77,38.9 0,0 -26.2,-14.8 -59.1,5 -32.91,19.8 -62,53.6 -62,53.6 l -85.69,13" /><path
         id="path220"
         style="fill:#fbc398;fill-opacity:1;fill-rule:nonzero;stroke:none"
         d="m 3839.65,10705.6 c 0,0 166.38,83.3 184.41,98.9 18.04,15.6 28.23,128.7 28.23,128.7 0,0 -168.84,55 -217.77,60.2 -48.92,5.2 -130.71,-29.8 -130.71,-29.8 l -290.09,11.6 c 0,0 -28.48,-175 88.28,-275.6 116.75,-100.7 337.65,6 337.65,6" /><path
         id="path222"
         style="fill:#fbc398;fill-opacity:1;fill-rule:nonzero;stroke:none"
         d="m 7036.6,10567.2 c 0,0 -8.28,8 -139.19,46.4 -130.9,38.3 -184.15,57.8 -192.5,69.8 -8.36,12.1 -59.79,157.7 -59.79,157.7 l 723.66,-27.1 c 0,0 -3.46,-196.1 -38.7,-274.1 -35.23,-77.9 -152.77,-104.4 -177.47,-88.6 -24.7,15.8 -116.01,115.9 -116.01,115.9" /><path
         id="path224"
         style="fill:#abaaa9;fill-opacity:1;fill-rule:nonzero;stroke:none"
         d="m 1956.88,11199.8 -1282.837,54.6 c 0,0 -53.723,-68 2.992,-167.8 L 1949,11035 c 0,0 14.45,34.4 15.01,82 0.47,39.6 -7.13,82.8 -7.13,82.8" /><path
         id="path226"
         style="fill:#abaaa9;fill-opacity:1;fill-rule:nonzero;stroke:none"
         d="m 7865.84,10947.8 2.74,-154.1 374.48,-15.3 c 0,0 11.84,58.1 12.71,77.8 0.82,18.9 -5.58,75.2 -5.58,75.2 l -384.35,16.4" /></g></g></svg>