<?xml version="1.0" encoding="UTF-8" standalone="no"?>
<svg
   xmlns:dc="http://purl.org/dc/elements/1.1/"
   xmlns:cc="http://creativecommons.org/ns#"
   xmlns:rdf="http://www.w3.org/1999/02/22-rdf-syntax-ns#"
   xmlns:svg="http://www.w3.org/2000/svg"
   xmlns="http://www.w3.org/2000/svg"
   viewBox="0 0 2666.6667 2666.6667"
   height="2666.6667"
   width="2666.6667"
   xml:space="preserve"
   id="svg2"
   version="1.1"><metadata
     id="metadata8"><rdf:RDF><cc:Work
         rdf:about=""><dc:format>image/svg+xml</dc:format><dc:type
           rdf:resource="http://purl.org/dc/dcmitype/StillImage" /></cc:Work></rdf:RDF></metadata><defs
     id="defs6" /><g
     transform="matrix(1.3333333,0,0,-1.3333333,0,2666.6667)"
     id="g10"><g
       transform="scale(0.1)"
       id="g12"><g
         transform="scale(1.22699)"
         id="g14"><path
           id="path16"
           style="fill:none;fill-opacity:1;fill-rule:nonzero;stroke:none"
           d="M 16300,0 H 0 V 16300 H 16300 V 0" /></g><path
         id="path18"
         style="fill:#969797;fill-opacity:1;fill-rule:nonzero;stroke:none"
         d="M 3948.34,10591.1 H 2685.71 v 184.9 h 1262.63 v -184.9" /><path
         id="path20"
         style="fill:#100f0d;fill-opacity:1;fill-rule:nonzero;stroke:none"
         d="m 3365.66,6908.8 -22.99,26.5 182.12,158.1 v 4970 h 35.07 v -4986 l -194.2,-168.6" /><path
         id="path22"
         style="fill:#c6c5c3;fill-opacity:1;fill-rule:nonzero;stroke:none"
         d="m 2832.3,15389 c 0,-184.5 -149.57,-334.1 -334.07,-334.1 -184.5,0 -334.08,149.6 -334.08,334.1 0,184.5 149.58,334.1 334.08,334.1 184.5,0 334.07,-149.6 334.07,-334.1" /><path
         id="path24"
         style="fill:#767779;fill-opacity:1;fill-rule:nonzero;stroke:none"
         d="m 2330.85,14407.1 85,-5605.1 -506.89,116.9 223.83,6009.7 198.06,-521.5" /><path
         id="path26"
         style="fill:#535456;fill-opacity:1;fill-rule:nonzero;stroke:none"
         d="M 1875.32,5022.3 1809.3,4986 1650.84,4807.7 v -69.3 h 468.75 l 141.94,217.9 v 66 h -78.43 l -13.99,39.6 h -97.39 l -196.4,-39.6" /><path
         id="path28"
         style="fill:#c6c5c3;fill-opacity:1;fill-rule:nonzero;stroke:none"
         d="m 1809.3,15205.9 h 262.42 V 4956.3 H 1809.3 v 10249.6" /><path
         id="path30"
         style="fill:#100f0d;fill-opacity:1;fill-rule:nonzero;stroke:none"
         d="m 2162.14,14760.3 393.18,-353.2 h -224.47 l -164.98,112.2 -3.73,241" /><path
         id="path32"
         style="fill:#100f0d;fill-opacity:1;fill-rule:nonzero;stroke:none"
         d="m 2362.84,10055.7 -165.05,4482.7 35.05,1.3 165.06,-4482.7 -35.06,-1.3" /><path
         id="path34"
         style="fill:#100f0d;fill-opacity:1;fill-rule:nonzero;stroke:none"
         d="m 2280.31,10133.3 -131.97,3579.9 12.51,433.4 154.52,-4012 -35.06,-1.3" /><path
         id="path36"
         style="fill:#969797;fill-opacity:1;fill-rule:nonzero;stroke:none"
         d="m 2482.7,5713.9 -313.59,-652 h -97.39 v 10144 l 89.13,-84.2 34.66,-9719.8 287.19,529.8 v -217.8" /><path
         id="path38"
         style="fill:#535456;fill-opacity:1;fill-rule:nonzero;stroke:none"
         d="m 5635.16,6943.5 118.83,-140.3 h 191.46 l -36.31,158.5 -91.6,79.2 h -182.38 v -97.4" /><path
         id="path40"
         style="fill:#c6c5c3;fill-opacity:1;fill-rule:nonzero;stroke:none"
         d="m 2665.9,6016.1 -34.65,-84.4 H 2482.7 v -145 h 3678.97 v 229.4 H 2665.9" /><path
         id="path42"
         style="fill:#969797;fill-opacity:1;fill-rule:nonzero;stroke:none"
         d="M 6161.67,5943.3 H 2482.7 v -229.4 h 3678.97 v 229.4" /><path
         id="path44"
         style="fill:#454547;fill-opacity:1;fill-rule:nonzero;stroke:none"
         d="m 5909.14,6961.7 -91.6,79.2 v 673.4 h 91.6 v -501.6 -251" /><path
         id="path46"
         style="fill:#767779;fill-opacity:1;fill-rule:nonzero;stroke:none"
         d="m 6001.57,7144.9 -92.43,67.8 v -508.5 l 91.19,-241.1 87.06,-202.9 c 0,0 3.63,580.5 4.31,587.6 0.69,7 -90.13,297.1 -90.13,297.1" /><path
         id="path48"
         style="fill:#969797;fill-opacity:1;fill-rule:nonzero;stroke:none"
         d="M 6000.33,6728.9 H 3005.7 v -265.8 h 2994.63 v 265.8" /><path
         id="path50"
         style="fill:#535456;fill-opacity:1;fill-rule:nonzero;stroke:none"
         d="m 6127.01,7212.7 h -217.87 l 178.25,-409.5 z" /><path
         id="path52"
         style="fill:#c6c5c3;fill-opacity:1;fill-rule:nonzero;stroke:none"
         d="m 6000.33,6728.9 -91.19,74.3 H 3492.81 l -487.11,-74.3 h 2994.63" /><path
         id="path54"
         style="fill:#535456;fill-opacity:1;fill-rule:nonzero;stroke:none"
         d="m 6498.37,5189 h -498.04 v -285.2 h 498.04 V 5189" /><path
         id="path56"
         style="fill:#454547;fill-opacity:1;fill-rule:nonzero;stroke:none"
         d="m 5427.59,8188 c -12.59,-30.3 -19.6,-63.5 -19.6,-98.4 v -242.5 c 0,-141.9 114.98,-256.8 256.81,-256.8 h 1129.68 c 141.83,0 256.8,114.9 256.8,256.8 v 242.5 c 0,34.9 -7.01,68.1 -19.59,98.4 h -1604.1" /><path
         id="path58"
         style="fill:#100f0d;fill-opacity:1;fill-rule:nonzero;stroke:none"
         d="m 4443.5,7514.6 c 0,0 534.76,-382.9 772.43,-204.7 237.67,178.3 -178.25,627.2 -217.87,607.4 -39.61,-19.8 -554.56,-402.7 -554.56,-402.7" /><path
         id="path60"
         style="fill:#100f0d;fill-opacity:1;fill-rule:nonzero;stroke:none"
         d="m 7209.74,7309.9 c 52.81,6.6 145.24,-59.4 356.5,39.6 211.26,99 330.1,257.5 290.49,303.7 -39.61,46.2 -319.72,191.5 -319.72,191.5 0,0 -122.62,6.6 -175.43,-52.9 -52.82,-59.4 -19.07,-17.5 -52.82,-59.4 -33.75,-41.9 -99.02,-422.5 -99.02,-422.5" /><path
         id="path62"
         style="fill:#3970c1;fill-opacity:1;fill-rule:nonzero;stroke:none"
         d="m 8166.46,5530.7 h 183.21 c 0,0 143.59,-44.6 198.05,-104 54.47,-59.4 45.85,-217.9 102.15,-282.3 56.3,-64.3 417.76,-430.7 467.28,-618.9 49.52,-188.1 -74.27,-282.2 -386.22,-237.7 -311.95,44.6 -470.39,336.7 -564.47,411 -94.08,74.3 -356.51,183.2 -361.46,307 -4.95,123.8 133.69,292.1 133.69,316.9 0,24.8 9.9,208 9.9,208 h 217.87" /><path
         id="path64"
         style="fill:#fbc398;fill-opacity:1;fill-rule:nonzero;stroke:none"
         d="m 7195.97,7758.8 c 0,0 244.27,-224.4 396.11,-270.6 151.85,-46.3 376.32,-237.7 376.32,-237.7 0,0 -39.61,-297.1 -85.83,-528.2 -46.21,-231 59.42,-409.3 85.83,-686.6 26.41,-277.3 33.01,-732.8 33.01,-732.8 0,0 112.23,-79.2 178.25,0 66.02,79.2 72.63,158.4 92.43,171.7 19.81,13.2 120.43,26.4 120.43,26.4 0,0 123.85,508.3 216.27,904.4 92.43,396.2 0,831.9 0,831.9 0,0 -26.53,660.1 -224.46,891.3 -197.93,231.1 -574.38,475.3 -1056.32,59.4 -481.95,-416 39.61,-99.1 39.61,-99.1 l -171.65,-330.1" /><path
         id="path66"
         style="fill:#ffffff;fill-opacity:1;fill-rule:nonzero;stroke:none"
         d="m 8419.99,5614.1 c -17.03,-70.3 -27.47,-113.1 -27.47,-113.1 0,0 -100.62,-13.2 -120.43,-26.4 -19.8,-13.3 -26.41,-92.5 -92.43,-171.7 -66.02,-79.2 -178.25,0 -178.25,0 0,0 -2.15,147.7 -8.87,326.1 157.59,-20 314.2,-19.7 427.45,-14.9" /><path
         id="path68"
         style="fill:#3970c1;fill-opacity:1;fill-rule:nonzero;stroke:none"
         d="m 4285.05,5530.7 h -183.21 c 0,0 -143.59,-44.6 -198.06,-104 -54.46,-59.4 -45.85,-217.9 -102.15,-282.3 -56.3,-64.3 -417.76,-430.7 -467.27,-618.9 -49.52,-188.1 74.27,-282.2 386.22,-237.7 311.94,44.6 470.39,336.7 564.47,411 94.08,74.3 356.5,183.2 361.45,307 4.96,123.8 -133.68,292.1 -133.68,316.9 0,24.8 -9.91,208 -9.91,208 h -217.86" /><path
         id="path70"
         style="fill:#fbc398;fill-opacity:1;fill-rule:nonzero;stroke:none"
         d="m 5255.54,7758.8 c 0,0 -244.28,-224.4 -396.12,-270.6 -151.85,-46.3 -376.31,-237.7 -376.31,-237.7 0,0 39.61,-297.1 85.82,-528.2 46.22,-231 -59.41,-409.3 -85.82,-686.6 -26.41,-277.3 -33.01,-732.8 -33.01,-732.8 0,0 -112.24,-79.2 -178.26,0 -66.02,79.2 -72.62,158.4 -92.43,171.7 -19.8,13.2 -120.42,26.4 -120.42,26.4 0,0 -123.85,508.3 -216.28,904.4 -92.43,396.2 0,831.9 0,831.9 0,0 26.54,660.1 224.47,891.3 197.93,231.1 574.37,475.3 1056.32,59.4 481.95,-416 -39.61,-99.1 -39.61,-99.1 l 171.65,-330.1" /><path
         id="path72"
         style="fill:#ffffff;fill-opacity:1;fill-rule:nonzero;stroke:none"
         d="m 4031.52,5614.1 c 17.02,-70.3 27.46,-113.1 27.46,-113.1 0,0 100.63,-13.2 120.43,-26.4 19.81,-13.3 26.41,-92.5 92.44,-171.7 66.01,-79.2 178.25,0 178.25,0 0,0 2.15,147.7 8.86,326.1 -157.58,-20 -314.19,-19.7 -427.44,-14.9" /><path
         id="path74"
         style="fill:#252323;fill-opacity:1;fill-rule:nonzero;stroke:none"
         d="m 5532.83,9627.2 -118.84,-409.3 c 0,0 -52.82,-33 -198.06,-79.2 -145.25,-46.3 -138.64,-151.9 -214.57,-231.1 -75.92,-79.2 -333.4,-158.5 -491.84,-310.3 -158.46,-151.9 -508.36,-488.6 -442.34,-468.7 66.02,19.8 559.58,59.4 728.73,-112.3 169.14,-171.6 420.02,-706.4 420.02,-706.4 0,0 389.52,587.6 495.15,660.2 105.63,72.6 970.49,46.2 1023.31,19.8 52.82,-26.4 475.35,-680 475.35,-680 0,0 198.05,561.2 455.53,752.6 257.48,191.5 680.01,118.9 680.01,118.9 0,0 -184.86,264 -462.14,475.3 -277.29,211.3 -521.56,250.9 -633.79,376.3 -112.24,125.5 -270.69,194.8 -270.69,194.8 l -878.06,247.6 -567.77,151.8" /><path
         id="path76"
         style="fill:#878888;fill-opacity:1;fill-rule:nonzero;stroke:none"
         d="m 4872.63,11829 56.11,42.9 h 475.35 c 0,0 62.72,-198.1 23.1,-224.5 -39.61,-26.4 -240.97,-145.2 -316.89,-112.2 -75.92,33 -333.41,151.8 -333.41,151.8 l 95.74,142" /><path
         id="path78"
         style="fill:#878888;fill-opacity:1;fill-rule:nonzero;stroke:none"
         d="m 3020.76,12192.1 -125.44,-63.9 42.92,-88 2063.12,-445.6 -62.72,95.7 -9.9,181.6 -1132.24,320.2 -232.2,89.1 -543.54,-89.1" /><path
         id="path80"
         style="fill:#878888;fill-opacity:1;fill-rule:nonzero;stroke:none"
         d="m 6607.87,11786.5 2044.4,583.8 h 445.64 l 173.3,-36.3 -34.66,-113.8 -2604.49,-690.8 -24.19,257.1" /><path
         id="path82"
         style="fill:#b7b9b9;fill-opacity:1;fill-rule:nonzero;stroke:none"
         d="m 2895.32,12307.6 v -179.4 l 1881.57,63.9 v 178.2 l -1881.57,-62.7" /><path
         id="path84"
         style="fill:#b7b9b9;fill-opacity:1;fill-rule:nonzero;stroke:none"
         d="m 7526.63,12403.4 c 0,0 -75.92,-89.2 -49.52,-128.8 26.42,-39.6 21.97,-16.5 21.97,-16.5 l 1829.9,9.9 v 151.9 l -1802.35,-16.5" /><path
         id="path86"
         style="fill:#e9ae86;fill-opacity:1;fill-rule:nonzero;stroke:none"
         d="m 3654.56,12403.4 c 0,0 -6.61,-99.1 11.55,-122.2 18.15,-23.1 74.27,-21.4 74.27,-21.4 0,0 14.85,-43 54.47,-46.3 39.61,-3.3 66.02,18.2 66.02,18.2 0,0 59.42,-28.8 97.38,-18.5 37.96,10.2 49.51,23.5 49.51,23.5 l 99.03,4.9 11.32,97.7 c 0,0 -12.97,93.8 -37.72,118.5 -24.76,24.8 -92.44,0 -92.44,0 0,0 -36.3,8.8 -64.36,11 -28.06,2.2 -87.48,-45.6 -87.48,-45.6 0,0 -37.96,33 -59.42,29.7 -21.46,-3.3 -37.96,-21.5 -37.96,-21.5 0,0 -46.22,31.4 -84.17,-28" /><path
         id="path88"
         style="fill:#4f5154;fill-opacity:1;fill-rule:nonzero;stroke:none"
         d="m 6590.39,12809.8 h -958.84 c -132.66,0 -240.2,-107.6 -240.2,-240.2 v -1291.4 c 0,-132.7 107.54,-240.2 240.2,-240.2 h 958.84 c 132.66,0 240.2,107.5 240.2,240.2 v 1291.4 c 0,132.6 -107.54,240.2 -240.2,240.2" /><path
         id="path90"
         style="fill:#fbc398;fill-opacity:1;fill-rule:nonzero;stroke:none"
         d="m 5001.36,10690.1 -77.57,34.7 c 0,0 -148.55,-203 -430.78,-287.2 -282.24,-84.2 -688.26,-158.4 -757.58,-84.2 -69.32,74.3 -44.57,237.7 -44.57,237.7 0,0 -148.54,78.9 -123.78,547 24.76,468.1 54.46,772.3 54.46,772.3 h 267.39 c 0,0 9.9,-239.9 103.98,-497.3 94.08,-257.5 128.74,-371.4 128.74,-371.4 0,0 183.2,178.2 415.92,247.6 0,0 203.02,356.5 401.07,401 198.06,44.6 396.13,5 396.13,5 l 132.04,18.1 249.22,-468.7 -153.5,-396.1 -561.17,-158.5" /><path
         id="path92"
         style="fill:#fbc398;fill-opacity:1;fill-rule:nonzero;stroke:none"
         d="m 6843.33,11720 c 0,0 273.97,69.4 467.09,0 193.11,-69.3 321.84,-262.4 321.84,-262.4 0,0 163.97,-34.7 307.28,-128.7 143.31,-94.1 237.39,-223.2 232.44,-190.8 -4.95,32.3 69.32,111.6 143.59,265 74.27,153.5 94.08,546.8 94.08,546.8 l 282.23,-12 c 0,0 49.52,-623.9 29.71,-856.6 -19.8,-232.7 -89.12,-505 -198.05,-564.5 -108.94,-59.4 -487.18,-19.8 -738.75,49.5 -251.56,69.4 -459.52,292.2 -459.52,292.2 l -42.91,-82.5 c 0,0 -269.03,-85.9 -338.36,-21.5 -69.32,64.4 -194.76,34.7 -226.11,302 -31.37,267.4 125.44,663.5 125.44,663.5" /><path
         id="path94"
         style="fill:#dc9b70;fill-opacity:1;fill-rule:nonzero;stroke:none"
         d="m 5303.5,10988.7 c 0,0 -186.6,112.4 -340.1,226.3 -153.49,113.9 -153.49,113.9 -153.49,113.9 l 153.49,-252.5 -39.61,-351.6 77.57,-34.7 31.36,319.4 245.52,-62 25.26,41.2" /><path
         id="path96"
         style="fill:#dc9b70;fill-opacity:1;fill-rule:nonzero;stroke:none"
         d="m 6953.91,11009.5 c 0,0 103.98,52 237.67,160.9 133.69,109 153.49,133.7 153.49,133.7 l -62.71,-187.4 42.91,-258.2 -42.91,-82.5 -90.78,305.3 -237.67,-138.6 v 66.8" /><path
         id="path98"
         style="fill:#3970c1;fill-opacity:1;fill-rule:nonzero;stroke:none"
         d="m 5582.34,11759.7 -115.53,-46.3 c 0,0 -3.3,-353.2 -118.84,-633.7 -115.54,-280.6 -346.61,-389.6 -346.61,-389.6 0,0 267.39,-409.3 323.5,-736.1 56.12,-326.8 89.13,-736.1 89.13,-736.1 0,0 359.81,-56.1 755.93,-49.5 396.12,6.6 808.74,59.4 808.74,59.4 0,0 102.34,643.7 108.94,845 6.6,201.4 194.76,703.2 194.76,703.2 0,0 -340.01,171.6 -406.03,475.3 -66.02,303.7 -33,468.7 -33,468.7 l -125.44,69.4 -1135.55,-29.7" /><path
         id="path100"
         style="fill:#fbc398;fill-opacity:1;fill-rule:nonzero;stroke:none"
         d="m 5777.1,12324.1 c 0,0 -23.11,-382.9 -26.41,-399.4 -3.3,-16.5 -168.35,-165 -168.35,-165 0,0 6.6,-650.3 554.57,-620.6 547.96,29.7 580.98,650.3 580.98,650.3 l -224.47,161.7 -19.81,452.3 -696.51,-79.3" /><path
         id="path102"
         style="fill:#dc9b70;fill-opacity:1;fill-rule:nonzero;stroke:none"
         d="m 5905.84,12202 -101.94,-32.7 c 0,0 98.64,-231.4 276.89,-304 178.26,-72.6 407.56,201.6 407.56,201.6 l -14.74,336.5 -567.77,-201.4" /><path
         id="path104"
         style="fill:#535456;fill-opacity:1;fill-rule:nonzero;stroke:none"
         d="M 6632.15,8221 H 5740.7 c -85.64,0 -155.06,-69.4 -155.06,-155.1 v -66 c 0,-85.6 69.42,-155 155.06,-155 h 891.45 c 85.64,0 155.06,69.4 155.06,155 v 66 c 0,85.7 -69.42,155.1 -155.06,155.1" /><path
         id="path106"
         style="fill:#252323;fill-opacity:1;fill-rule:nonzero;stroke:none"
         d="m 6450.5,7745.6 h -448.93 v 99.3 h 448.93 v -99.3" /><path
         id="path108"
         style="fill:#a8a8a6;fill-opacity:1;fill-rule:nonzero;stroke:none"
         d="m 6381.18,7019.4 h -293.79 v 726.2 h 293.79 v -726.2" /><path
         id="path110"
         style="fill:#252323;fill-opacity:1;fill-rule:nonzero;stroke:none"
         d="m 6268.13,7472.9 c 0,-22.6 -18.3,-40.9 -40.85,-40.9 -22.57,0 -40.85,18.3 -40.85,40.9 0,22.5 18.28,40.8 40.85,40.8 22.55,0 40.85,-18.3 40.85,-40.8" /><path
         id="path112"
         style="fill:#252323;fill-opacity:1;fill-rule:nonzero;stroke:none"
         d="m 6268.13,7253.6 c 0,-22.6 -18.3,-40.9 -40.85,-40.9 -22.57,0 -40.85,18.3 -40.85,40.9 0,22.5 18.28,40.8 40.85,40.8 22.55,0 40.85,-18.3 40.85,-40.8" /><path
         id="path114"
         style="fill:#969797;fill-opacity:1;fill-rule:nonzero;stroke:none"
         d="M 6424.1,5035.5 H 6062.64 V 7019.4 H 6424.1 V 5035.5" /><path
         id="path116"
         style="fill:#535456;fill-opacity:1;fill-rule:nonzero;stroke:none"
         d="m 6339.92,6803.2 c 0,-54.7 -44.34,-99 -99.03,-99 -54.69,0 -99.03,44.3 -99.03,99 0,54.7 44.34,99 99.03,99 54.69,0 99.03,-44.3 99.03,-99" /><path
         id="path118"
         style="fill:#969797;fill-opacity:1;fill-rule:nonzero;stroke:none"
         d="m 2576.78,5828.6 -94.08,103.1 340,724.6 v -283.9 l -191.45,-440.7 -54.47,-103.1" /><path
         id="path120"
         style="fill:#4e4f51;fill-opacity:1;fill-rule:nonzero;stroke:none"
         d="m 2730.27,9125.5 v 76.7 h -368.88 l -179.06,-104 0.77,-213.7 232.75,-11.6" /><path
         id="path122"
         style="fill:#767779;fill-opacity:1;fill-rule:nonzero;stroke:none"
         d="m 2687.92,6369.1 134.78,287.2 h 120.49 z m 577.12,562.8 -250.88,-206.3 -316.89,-3.3 -504.76,-479.9 3,-840.5 332.11,625.6 851.3,775.7 -113.88,128.7" /><path
         id="path124"
         style="fill:#100f0d;fill-opacity:1;fill-rule:nonzero;stroke:none"
         d="m 2335.54,9193.7 81.25,2.7 -4.8,145.5 -81.24,-2.6 z m 117.46,-31.2 -151.35,-5 -7.11,215.7 151.35,5 7.11,-215.7" /><path
         id="path126"
         style="fill:#100f0d;fill-opacity:1;fill-rule:nonzero;stroke:none"
         d="m 2437.52,9202.2 h -115.13 c -24.95,0 -45.18,-20.2 -45.18,-45.2 v -105.2 c 0,-25 20.23,-45.2 45.18,-45.2 h 115.13 c 24.96,0 45.18,20.2 45.18,45.2 V 9157 c 0,25 -20.22,45.2 -45.18,45.2" /><path
         id="path128"
         style="fill:#100f0d;fill-opacity:1;fill-rule:nonzero;stroke:none"
         d="m 2356.44,9746.9 30.94,79.2 342.89,175.8 v -510 l -284.71,-151.1 h -58.18 l -30.94,406.1" /><path
         id="path130"
         style="fill:#4e4f51;fill-opacity:1;fill-rule:nonzero;stroke:none"
         d="m 2730.27,10001.9 h -373.83 l -173.34,-34.7 v -141.1 h 217.22 l 329.95,175.8" /><path
         id="path132"
         style="fill:#100f0d;fill-opacity:1;fill-rule:nonzero;stroke:none"
         d="m 2515.71,10056.3 c 0,-74.7 -60.59,-135.3 -135.34,-135.3 -74.75,0 -135.34,60.6 -135.34,135.3 0,74.8 60.59,135.4 135.34,135.4 74.75,0 135.34,-60.6 135.34,-135.4" /><path
         id="path134"
         style="fill:#969797;fill-opacity:1;fill-rule:nonzero;stroke:none"
         d="m 2160.85,15121.7 536.42,-538 375.44,-7927.4 -187.29,80.1 -330.1,7670.7 -393.18,353.2 -1.29,361.4" /><path
         id="path136"
         style="fill:#878888;fill-opacity:1;fill-rule:nonzero;stroke:none"
         d="m 2160.85,15121.7 c 0,0 335.05,315.3 354.86,312 19.81,-3.3 59.42,-128.8 59.42,-128.8 l -297.92,-349.9 -116.36,166.7" /><path
         id="path138"
         style="fill:#100f0d;fill-opacity:1;fill-rule:nonzero;stroke:none"
         d="m 2988.17,6728.2 -348.04,8430.8 35.04,1.4 348.04,-8430.8 -35.04,-1.4" /><path
         id="path140"
         style="fill:#100f0d;fill-opacity:1;fill-rule:nonzero;stroke:none"
         d="m 3055.19,7007.1 -387,8365.6 35.04,1.6 386.99,-8365.5 -35.03,-1.7" /><path
         id="path142"
         style="fill:#fbc398;fill-opacity:1;fill-rule:nonzero;stroke:none"
         d="m 3641.35,11865.3 -26.41,75.9 c 0,0 -75.92,62.7 -72.62,224.5 h 293.79 c 0,0 56.12,23.1 122.14,29.7 66.02,6.6 89.12,6.6 95.72,16.5 6.61,9.9 -42.91,138.6 -42.91,138.6 l 43.52,52.9 c 0,0 98.43,-72.7 105.03,-161.8 6.6,-89.1 -16.5,-178.3 -16.5,-178.3 0,0 -188.16,-111.1 -254.18,-152.9 -66.02,-41.8 -191.46,-57.4 -191.46,-57.4 l -56.12,12.3" /><path
         id="path144"
         style="fill:#e9ae86;fill-opacity:1;fill-rule:nonzero;stroke:none"
         d="m 8228.1,12409.8 c 0,0 33,99.2 69.31,104.1 36.32,5 44.57,0 44.57,0 0,0 46.21,24.8 74.27,13.2 28.06,-11.5 46.22,-26.4 46.22,-26.4 0,0 29.7,26.4 67.67,14.9 37.96,-11.6 47.86,-19.8 47.86,-19.8 0,0 67.67,0 75.92,-9.9 8.25,-9.9 -6.6,-140.4 -23.1,-150.3 -16.51,-9.8 -69.33,0 -69.33,0 0,0 0,-32.9 -37.95,-37.9 -37.97,-4.9 -52.82,0 -52.82,0 0,0 -46.76,-9.5 -51.72,-22.1 -4.97,-12.5 -104.73,-35.1 -124.89,-24.2 -20.15,10.9 -26.4,1.6 -44.55,10.8 -18.16,9.1 -23.11,-17.3 -31.37,27.3 -8.25,44.5 9.91,120.3 9.91,120.3" /><path
         id="path146"
         style="fill:#252323;fill-opacity:1;fill-rule:nonzero;stroke:none"
         d="m 5672.8,12668.7 c 10.32,20.3 -39.05,72.8 -51.96,128.2 -12.91,55.5 -2.94,278.2 -5.39,304 -2.44,25.8 40.93,106.1 48.91,130.1 7.98,24 59.94,120.3 93.26,146.7 33.31,26.4 132.37,44.1 173.84,58.7 41.48,14.7 120.35,49.9 194,43.2 73.66,-6.6 66.03,-24.7 117.75,-27.7 51.73,-3.1 131.98,-45.4 160.28,-72.7 28.31,-27.3 126.82,-91.1 159.35,-132.3 32.53,-41.2 49.46,-235.6 44.03,-309.3 -5.44,-73.6 -31.32,-183.4 -31.32,-183.4 l -15.03,-49.3 c 0,0 7.73,-99.8 1.81,-101.9 -5.92,-2.1 94.22,-46.1 -140.11,-56.2 -234.33,-10.1 -504.64,-8.9 -504.64,-8.9 0,0 -176.69,-11.1 -217.16,29.9 -40.47,41 -27.62,100.9 -27.62,100.9" /><path
         id="path148"
         style="fill:#fbc398;fill-opacity:1;fill-rule:nonzero;stroke:none"
         d="m 5683.12,12689 c 0,0 -14.72,3.5 -40.44,-3 -25.73,-6.4 -1.41,-145.1 17.11,-180.5 18.52,-35.5 45.36,-92.6 49.69,-112.4 4.32,-19.8 42.42,-39 42.42,-39 0,0 11.84,-107.1 28.47,-148.6 16.64,-41.4 125.79,-144.8 176.72,-215.4 50.94,-70.7 178.63,-98.2 267.5,-66.8 88.88,31.3 140.76,131.6 158.26,153.8 17.49,22.2 95.16,124.9 108.4,162.9 13.24,38 19.29,145.4 19.29,145.4 0,0 33.63,8.6 48.85,46.6 15.23,38 28.09,97.9 37.7,115.9 9.61,18.1 23.57,127.6 7.33,147.2 -16.25,19.6 -43.9,9.8 -43.9,9.8 0,0 -7.4,-30.5 -11.27,-36.6 -3.87,-6 -27.58,-14.4 -27.58,-14.4 l -5.69,97.3 c 0,0 -22.24,21.5 -32.64,47.1 -10.39,25.7 -13.75,103.1 -14.1,123 -0.35,19.9 1.11,49.7 -13.64,97.1 -14.76,47.5 -73.04,84.2 -102.94,89.6 -29.92,5.5 -179.03,8.8 -202.91,10.3 -23.87,1.6 -35.61,-8.5 -99.05,-17.6 -63.44,-9.1 -259.88,-26.5 -281.53,-38.8 -21.64,-12.3 -40.27,-82.2 -43.83,-106.1 -3.55,-23.9 14.36,-136.9 12.75,-158.8 -1.6,-21.8 -17.07,-46 -14.8,-61.8 2.27,-15.9 4.03,-115.2 4.03,-115.2 l -17.77,-6.3 -26.43,75.3" /><path
         id="path150"
         style="fill:#fbc398;fill-opacity:1;fill-rule:nonzero;stroke:none"
         d="m 8409.65,11949.9 c 0,0 -32.18,64.8 -116.36,116.8 -84.18,51.9 -116.23,37.9 -138.64,96.5 -22.41,58.6 -29.71,160.9 -19.81,183.2 9.9,22.3 97.18,104 135.24,94.1 38.06,-9.9 -18.88,-90.9 -23.83,-104.9 -4.95,-13.9 0,-43.7 0,-43.7 0,0 160.94,-5.2 220.35,-28.6 l 287.16,1.6 c 0,0 19.9,-84.7 0,-131.4 -19.89,-46.7 -61.88,-195.6 -61.88,-195.6 l -160.92,-84.2 -121.31,96.2" /><path
         id="path152"
         style="fill:#252323;fill-opacity:1;fill-rule:nonzero;stroke:none"
         d="M 2387.38,9340.8 H 2183.1 v 485.3 h 204.28 v -485.3" /><path
         id="path154"
         style="fill:#767779;fill-opacity:1;fill-rule:nonzero;stroke:none"
         d="m 3675.23,6902.1 c 0,-194.1 -157.34,-351.4 -351.44,-351.4 -194.1,0 -351.44,157.3 -351.44,351.4 0,194.1 157.34,351.5 351.44,351.5 194.1,0 351.44,-157.4 351.44,-351.5" /><path
         id="path156"
         style="fill:#c6c5c3;fill-opacity:1;fill-rule:nonzero;stroke:none"
         d="m 3448.24,6847.8 c 0,-79.3 -64.28,-143.6 -143.59,-143.6 -79.3,0 -143.6,64.3 -143.6,143.6 0,79.3 64.3,143.6 143.6,143.6 79.31,0 143.59,-64.3 143.59,-143.6" /><path
         id="path158"
         style="fill:#767779;fill-opacity:1;fill-rule:nonzero;stroke:none"
         d="m 2706.23,6408.1 116.47,248.2 h 120.49 l -236.96,-266.6 v -199.5 l 672.69,613 -113.88,128.7 -250.88,-206.3 -307.93,-3.2 v -314.3" /><path
         id="path160"
         style="fill:#100f0d;fill-opacity:1;fill-rule:nonzero;stroke:none"
         d="M 2415.85,8872.9 V 6204.1 l 17.55,26.9 277.07,425.3 19.8,2469.2 -314.42,-252.6" /><path
         id="path162"
         style="fill:#252323;fill-opacity:1;fill-rule:nonzero;stroke:none"
         d="m 2415.85,6204.1 h -223.2 l -9.55,2680.4 232.75,-11.6 V 6204.1" /><path
         id="path164"
         style="fill:#878888;fill-opacity:1;fill-rule:nonzero;stroke:none"
         d="m 2852.41,15373.5 c 0,-175.9 -142.62,-318.6 -318.54,-318.6 -175.94,0 -318.55,142.7 -318.55,318.6 0,175.9 142.61,318.5 318.55,318.5 175.92,0 318.54,-142.6 318.54,-318.5" /><path
         id="path166"
         style="fill:#c6c5c3;fill-opacity:1;fill-rule:nonzero;stroke:none"
         d="m 11978.1,15389 c 0,-184.5 -149.6,-334.1 -334.1,-334.1 -184.5,0 -334,149.6 -334,334.1 0,184.5 149.5,334.1 334,334.1 184.5,0 334.1,-149.6 334.1,-334.1" /><path
         id="path168"
         style="fill:#767779;fill-opacity:1;fill-rule:nonzero;stroke:none"
         d="m 11476.7,14407.1 85,-5605.1 -459.7,204.6 176.6,5922 198.1,-521.5" /><path
         id="path170"
         style="fill:#535456;fill-opacity:1;fill-rule:nonzero;stroke:none"
         d="m 11021.1,5022.3 -66,-36.3 -158.4,-178.3 v -69.3 h 468.7 l 141.9,217.9 v 66 h -78.4 l -14,39.6 h -97.4 l -196.4,-39.6" /><path
         id="path172"
         style="fill:#535456;fill-opacity:1;fill-rule:nonzero;stroke:none"
         d="m 14781,6943.5 118.8,-140.3 h 191.5 l -36.4,158.5 -91.6,79.2 H 14781 v -97.4" /><path
         id="path174"
         style="fill:#454547;fill-opacity:1;fill-rule:nonzero;stroke:none"
         d="m 15054.9,6961.7 -91.6,79.2 v 673.4 h 91.6 v -501.6 -251" /><path
         id="path176"
         style="fill:#767779;fill-opacity:1;fill-rule:nonzero;stroke:none"
         d="m 15147.4,7144.9 -92.5,67.8 v -508.5 l 91.2,-241.1 87.1,-202.9 c 0,0 3.6,580.5 4.3,587.6 0.7,7 -90.1,297.1 -90.1,297.1" /><path
         id="path178"
         style="fill:#969797;fill-opacity:1;fill-rule:nonzero;stroke:none"
         d="m 15146.1,6728.9 h -2994.6 v -265.8 h 2994.6 v 265.8" /><path
         id="path180"
         style="fill:#535456;fill-opacity:1;fill-rule:nonzero;stroke:none"
         d="m 15272.8,7212.7 h -217.9 l 178.3,-409.5 z" /><path
         id="path182"
         style="fill:#c6c5c3;fill-opacity:1;fill-rule:nonzero;stroke:none"
         d="m 15146.1,6728.9 -91.2,74.3 h -2416.3 l -487.1,-74.3 h 2994.6" /><path
         id="path184"
         style="fill:#c6c5c3;fill-opacity:1;fill-rule:nonzero;stroke:none"
         d="m 11811.7,6016.1 -34.6,-84.4 h -148.6 v -145 h 3679 v 229.4 h -3495.8" /><path
         id="path186"
         style="fill:#969797;fill-opacity:1;fill-rule:nonzero;stroke:none"
         d="m 15307.5,5943.3 h -3679 v -229.4 h 3679 v 229.4" /><path
         id="path188"
         style="fill:#535456;fill-opacity:1;fill-rule:nonzero;stroke:none"
         d="m 15644.2,5189 h -498.1 v -285.2 h 498.1 V 5189" /><path
         id="path190"
         style="fill:#100f0d;fill-opacity:1;fill-rule:nonzero;stroke:none"
         d="m 13589.3,7514.6 c 0,0 534.8,-382.9 772.4,-204.7 237.7,178.3 -178.2,627.2 -217.8,607.4 -39.7,-19.8 -554.6,-402.7 -554.6,-402.7" /><g
         transform="scale(1.04553)"
         id="g192"><path
           id="path194"
           style="fill:#100f0d;fill-opacity:1;fill-rule:nonzero;stroke:none"
           d="m 15643.3,6991.59 c 50.5,6.31 139,-56.81 341,37.87 202.1,94.69 315.7,246.29 277.8,290.48 -37.9,44.19 -305.8,183.16 -305.8,183.16 0,0 -117.2,6.31 -167.7,-50.59 -50.5,-56.82 -18.3,-16.74 -50.5,-56.82 -32.3,-40.07 -94.8,-404.1 -94.8,-404.1" /></g><path
         id="path196"
         style="fill:#454547;fill-opacity:1;fill-rule:nonzero;stroke:none"
         d="m 14573.4,8188 c -12.6,-30.3 -19.6,-63.5 -19.6,-98.4 v -242.5 c 0,-141.9 115,-256.8 256.8,-256.8 h 1129.7 c 141.8,0 256.8,114.9 256.8,256.8 v 242.5 c 0,34.9 -7,68.1 -19.6,98.4 h -1604.1" /><path
         id="path198"
         style="fill:#969797;fill-opacity:1;fill-rule:nonzero;stroke:none"
         d="m 14400.9,10591.1 h -2569.4 v 198.1 h 2569.4 v -198.1" /><path
         id="path200"
         style="fill:#3970c1;fill-opacity:1;fill-rule:nonzero;stroke:none"
         d="m 13430.8,5530.7 h -183.2 c 0,0 -143.5,-44.6 -198,-104 -54.5,-59.4 -45.9,-217.9 -102.2,-282.3 -56.3,-64.3 -417.7,-430.7 -467.2,-618.9 -49.6,-188.1 74.2,-282.2 386.2,-237.7 311.9,44.6 470.4,336.7 564.4,411 94.1,74.3 356.6,183.2 361.5,307 5,123.8 -133.7,292.1 -133.7,316.9 0,24.8 -9.9,208 -9.9,208 h -217.9" /><path
         id="path202"
         style="fill:#fbc398;fill-opacity:1;fill-rule:nonzero;stroke:none"
         d="m 14401.3,7758.8 c 0,0 -244.2,-224.4 -396.1,-270.6 -151.8,-46.3 -376.3,-237.7 -376.3,-237.7 0,0 39.6,-297.1 85.8,-528.2 46.2,-231 -59.4,-409.3 -85.8,-686.6 -26.4,-277.3 -33,-732.8 -33,-732.8 0,0 -112.2,-79.2 -178.3,0 -66,79.2 -72.6,158.4 -92.4,171.7 -19.8,13.2 -120.4,26.4 -120.4,26.4 0,0 -123.9,508.3 -216.3,904.4 -92.4,396.2 0,831.9 0,831.9 0,0 26.5,660.1 224.5,891.3 197.9,231.1 574.4,475.3 1056.3,59.4 482,-416 -39.6,-99.1 -39.6,-99.1 l 171.6,-330.1" /><path
         id="path204"
         style="fill:#ffffff;fill-opacity:1;fill-rule:nonzero;stroke:none"
         d="m 13177.3,5614.1 c 17,-70.3 27.5,-113.1 27.5,-113.1 0,0 100.6,-13.2 120.4,-26.4 19.8,-13.3 26.4,-92.5 92.4,-171.7 66.1,-79.2 178.3,0 178.3,0 0,0 2.1,147.7 8.9,326.1 -157.6,-20 -314.2,-19.7 -427.5,-14.9" /><path
         id="path206"
         style="fill:#a8a8a6;fill-opacity:1;fill-rule:nonzero;stroke:none"
         d="m 15527,7019.4 h -293.8 v 726.2 h 293.8 v -726.2" /><g
         transform="scale(1.12347)"
         id="g208"><path
           id="path210"
           style="fill:#3970c1;fill-opacity:1;fill-rule:nonzero;stroke:none"
           d="m 15409.7,4922.89 h 163.1 c 0,0 127.8,-39.7 176.2,-92.57 48.5,-52.87 40.9,-193.95 91,-251.28 50.1,-57.23 371.8,-383.37 415.9,-550.88 44.1,-167.43 -66.1,-251.19 -343.8,-211.58 -277.6,39.7 -418.7,299.7 -502.4,365.83 -83.7,66.14 -317.3,163.07 -321.8,273.27 -4.4,110.19 119.1,260 119.1,282.07 0,22.07 8.8,185.14 8.8,185.14 h 193.9" /></g><g
         transform="scale(1.09491)"
         id="g212"><path
           id="path214"
           style="fill:#fbc398;fill-opacity:1;fill-rule:nonzero;stroke:none"
           d="m 14925.3,7086.26 c 0,0 223,-204.95 361.7,-247.15 138.7,-42.28 343.7,-217.09 343.7,-217.09 0,0 -36.1,-271.35 -78.3,-482.42 -42.2,-210.97 54.2,-373.82 78.3,-627.08 24.1,-253.27 30.2,-669.28 30.2,-669.28 0,0 102.4,-72.34 162.8,0 60.3,72.33 66.3,144.67 84.4,156.82 18.1,12.05 110,24.11 110,24.11 0,0 113.1,464.24 197.5,826 84.4,361.86 0,759.79 0,759.79 0,0 -24.2,602.89 -205,814.04 -180.8,211.07 -524.5,434.11 -964.8,54.25 -440.1,-379.94 36.2,-90.5 36.2,-90.5 l -156.7,-301.49" /></g><g
         transform="scale(1.07766)"
         id="g216"><path
           id="path218"
           style="fill:#ffffff;fill-opacity:1;fill-rule:nonzero;stroke:none"
           d="m 16300,5209.55 c -15.8,-65.24 -25.5,-104.96 -25.5,-104.96 0,0 -93.4,-12.24 -111.7,-24.49 -18.4,-12.34 -24.5,-85.84 -85.8,-159.33 -61.3,-73.49 -165.4,0 -165.4,0 0,0 -2,137.06 -8.3,302.6 146.3,-18.56 291.6,-18.28 396.7,-13.82" /></g><path
         id="path220"
         style="fill:#969797;fill-opacity:1;fill-rule:nonzero;stroke:none"
         d="m 13262.3,10742.9 h -146.1 v 739.5 h 146.1 v -739.5" /><path
         id="path222"
         style="fill:#100f0d;fill-opacity:1;fill-rule:nonzero;stroke:none"
         d="m 12536.2,6908.8 -23,26.5 182.1,158.1 v 4970 l 18,1086.3 35.1,-0.6 -18,-1086 V 7077.4 l -194.2,-168.6" /><path
         id="path224"
         style="fill:#b7b9b9;fill-opacity:1;fill-rule:nonzero;stroke:none"
         d="m 12727.5,13284.7 -51.9,-39.6 v -141.9 l 154.3,-16.5 47.8,158.4 -150.2,39.6" /><path
         id="path226"
         style="fill:#878888;fill-opacity:1;fill-rule:nonzero;stroke:none"
         d="m 12711,13480.4 -70.9,-52.1 35.5,-183.2 176.1,-13.2 26,196.4 c 0,0 34.7,30 -11.9,38.9 -46.6,8.8 -154.8,13.2 -154.8,13.2" /><path
         id="path228"
         style="fill:#b7b9b9;fill-opacity:1;fill-rule:nonzero;stroke:none"
         d="m 12526.2,14152.9 325.5,-468.8 -60.6,-148.5 c 0,0 -212.1,90.8 -284.7,255 -72.6,164.2 -237.7,388.7 -231.1,387 6.6,-1.6 250.9,-24.7 250.9,-24.7" /><path
         id="path230"
         style="fill:#878888;fill-opacity:1;fill-rule:nonzero;stroke:none"
         d="m 12097.9,14086.9 542.2,-658.6 h 237.6 l -41.2,133.7 -475.4,590.9 -263.2,-66" /><g
         transform="scale(1.12572)"
         id="g232"><path
           id="path234"
           style="fill:#878888;fill-opacity:1;fill-rule:nonzero;stroke:none"
           d="m 16300,12617 -786.3,-979.3 -342.7,-681.1 -270.2,-258.1 c 0,0 -146.2,-46.9 -210.7,-35.1 -64.5,11.7 -179.3,110.3 -179.3,110.3 l 1463.6,1882.8 325.6,-39.5" /></g><g
         transform="scale(1.10323)"
         id="g236"><path
           id="path238"
           style="fill:#b7b9b9;fill-opacity:1;fill-rule:nonzero;stroke:none"
           d="m 16300,12914.5 -1496.1,-2118.6 -74.7,90.7 1499,2067.2 71.8,-39.3" /></g><path
         id="path240"
         style="fill:#b7b9b9;fill-opacity:1;fill-rule:nonzero;stroke:none"
         d="m 12097.9,14280 v -193.1 l 1864.2,69.3 v 173.3 l -1864.2,-49.5" /><g
         transform="scale(1.12572)"
         id="g242"><path
           id="path244"
           style="fill:#b7b9b9;fill-opacity:1;fill-rule:nonzero;stroke:none"
           d="m 16300,12617 h -1651.7 v 156.2 H 16300 V 12617" /></g><g
         transform="scale(1.07307)"
         id="g246"><path
           id="path248"
           style="fill:#252323;fill-opacity:1;fill-rule:nonzero;stroke:none"
           d="m 13679,8971.61 -110.7,-381.42 c 0,0 -49.2,-30.76 -184.6,-73.81 -135.3,-43.15 -129.2,-141.56 -199.9,-215.36 -70.8,-73.81 -310.7,-147.71 -458.4,-289.17 -147.6,-141.56 -473.7,-455.33 -412.2,-436.79 61.5,18.45 521.5,55.36 679.1,-104.65 157.6,-159.92 391.4,-658.29 391.4,-658.29 0,0 363.1,547.58 461.5,615.24 98.4,67.65 904.4,43.05 953.6,18.45 49.2,-24.61 442.9,-633.69 442.9,-633.69 0,0 184.6,522.98 424.6,701.34 240,178.46 633.7,110.81 633.7,110.81 0,0 -172.3,246.02 -430.7,442.93 -258.3,196.91 -486,233.82 -590.7,350.67 -104.5,116.96 -252.1,181.54 -252.1,181.54 l -818.3,230.74 -529.2,141.46" /></g><path
         id="path250"
         style="fill:#4f5154;fill-opacity:1;fill-rule:nonzero;stroke:none"
         d="m 15735.5,12703.7 h -958.8 c -132.7,0 -240.2,-107.5 -240.2,-240.2 v -1291.4 c 0,-132.6 107.5,-240.2 240.2,-240.2 h 958.8 c 132.7,0 240.2,107.6 240.2,240.2 v 1291.4 c 0,132.7 -107.5,240.2 -240.2,240.2" /><path
         id="path252"
         style="fill:#e9ae86;fill-opacity:1;fill-rule:nonzero;stroke:none"
         d="m 12851.7,14388.9 c 0,0 5,-118.8 19.9,-136.2 14.8,-17.3 45.8,-14.8 45.8,-14.8 0,0 35.9,-34.7 68,-42.1 32.2,-7.4 76.8,12.4 76.8,12.4 0,0 42.9,-25.6 79.2,-29.7 36.3,-4.2 45.8,8.6 45.8,8.6 0,0 34.7,0 79.2,11.2 44.6,11.1 26,99 26,99 l 23.6,15 c 0,0 -28.5,93.9 -63.2,110 -34.6,16.1 -82.9,8.7 -82.9,8.7 0,0 -44.6,19.8 -64.4,21 -19.8,1.3 -64.4,-29.7 -64.4,-29.7 0,0 -33.4,13.6 -73,8.7 -39.6,-5 -55.7,-31 -55.7,-31 0,0 -23.5,22.3 -60.7,-11.1" /><g
         transform="scale(1.08577)"
         id="g254"><path
           id="path256"
           style="fill:#e9ae86;fill-opacity:1;fill-rule:nonzero;stroke:none"
           d="m 15812,13243.2 c 0,0 57.1,102.6 79.9,104.9 22.8,2.2 45.6,0 45.6,0 0,0 61.5,20.5 91.2,18.2 29.6,-2.3 55.9,-27.4 55.9,-27.4 0,0 39.9,18.3 76.3,6.9 36.5,-11.4 47.9,-29.7 47.9,-29.7 0,0 54.7,0.2 66.1,-11.3 11.5,-11.5 25.1,-134.6 0,-142.6 -25,-8 -50.1,10.3 -50.1,10.3 0,0 -16,-27.4 -59.3,-29.7 -43.3,-2.2 -80.9,19.4 -80.9,19.4 0,0 -76.6,-14 -91.3,-27 -14.8,-12.9 -121.9,-21.2 -131.1,0 -9.1,21.3 -9.1,-26.6 -9.1,21.3 0,47.9 11.1,86.7 11.1,86.7 h -52.2" /></g><path
         id="path258"
         style="fill:#fbc398;fill-opacity:1;fill-rule:nonzero;stroke:none"
         d="m 14777.3,11574.8 -122,195.9 c 0,0 -49.5,132.6 -351.5,206.8 -302.1,74.3 -287.2,148.6 -435.8,341.7 -148.5,193.1 -401,297.1 -401,297.1 0,0 -97.4,232.7 -204.7,559.5 -107.3,326.8 -146.1,698.1 -146.1,698.1 h -278.1 c 0,0 -54.4,-831.8 0,-1064.5 54.5,-232.7 278.1,-559.5 278.1,-559.5 0,0 142.8,-381.3 360.7,-589.3 217.8,-207.9 554.5,-366.4 554.5,-366.4 0,0 28.2,-457.3 115.8,-604.1 87.5,-146.7 443.8,-108.9 463.6,0 19.8,109 198,468.4 198,468.4 l -31.5,416.3" /><g
         transform="scale(1.08805)"
         id="g260"><path
           id="path262"
           style="fill:#fbc398;fill-opacity:1;fill-rule:nonzero;stroke:none"
           d="m 15098.8,9903.93 118.1,448.97 c 0,0 327.6,249.1 486.9,540.9 159.3,291.9 232.1,505.8 232.1,505.8 0,0 213.2,295.8 286.3,678.1 73.2,382.3 77.8,787.3 77.8,787.3 h -259.5 c 0,0 -40.9,-332.2 -172.8,-564.3 -132,-232.1 -254.9,-625 -254.9,-625 0,0 -191.2,-119.8 -341.3,-291.2 -150.2,-171.5 -268.5,-335.3 -268.5,-335.3 0,0 -254.9,-24 -373.1,-155.4 -118.4,-131.3 -100.2,-581.8 -86.5,-604.6 13.6,-22.7 295.7,-341.28 295.7,-341.28 l 259.7,-43.99" /></g><path
         id="path264"
         style="fill:#dc9b70;fill-opacity:1;fill-rule:nonzero;stroke:none"
         d="m 14269.1,11586.4 c 0,0 0,-274.8 24.8,-362.7 24.7,-87.9 158.4,-334.7 158.4,-334.7 l 49.5,42.9 -163.4,305.8 -69.3,348.7" /><g
         transform="scale(1.00542)"
         id="g266"><path
           id="path268"
           style="fill:#dc9b70;fill-opacity:1;fill-rule:nonzero;stroke:none"
           d="m 16024.2,11035.5 c 0,0 142.8,173.2 152.7,197.8 9.8,24.6 123.1,408.8 123.1,408.8 l -64.1,-433.4 -211.7,-266 v 92.8" /></g><g
         transform="scale(1.00786)"
         id="g270"><path
           id="path272"
           style="fill:#3970c1;fill-opacity:1;fill-rule:nonzero;stroke:none"
           d="m 14613.2,11667.9 -72.3,11 c 0,0 -16.2,-329.1 -130.8,-607.5 -114.6,-278.4 -373.3,-464.7 -373.3,-464.7 0,0 265.3,-406.1 321,-730.38 55.6,-324.25 88.4,-730.35 88.4,-730.35 0,0 357,-55.66 750,-49.12 393,6.55 802.5,58.94 802.5,58.94 0,0 101.5,638.68 108,838.45 6.6,199.76 193.3,697.66 193.3,697.66 0,0 -277.6,189.8 -402.9,471.6 -157.2,353.7 -103.3,597 -103.3,597 l -53.9,-63.1 -1126.7,-29.5" /></g><path
         id="path274"
         style="fill:#fbc398;fill-opacity:1;fill-rule:nonzero;stroke:none"
         d="m 14922.9,12324.1 c 0,0 -23.1,-382.9 -26.4,-399.4 -3.3,-16.5 -168.4,-165 -168.4,-165 0,0 6.6,-650.3 554.6,-620.6 548,29.7 581,650.3 581,650.3 l -224.5,161.7 -19.8,452.3 -696.5,-79.3" /><path
         id="path276"
         style="fill:#dc9b70;fill-opacity:1;fill-rule:nonzero;stroke:none"
         d="m 15051.6,12202 -101.9,-32.7 c 0,0 98.6,-231.4 276.9,-304 178.2,-72.6 407.6,201.6 407.6,201.6 l -14.8,336.5 -567.8,-201.4" /><path
         id="path278"
         style="fill:#535456;fill-opacity:1;fill-rule:nonzero;stroke:none"
         d="m 15777.9,8221 h -891.4 c -85.6,0 -155.1,-69.4 -155.1,-155.1 v -66 c 0,-85.6 69.5,-155 155.1,-155 h 891.4 c 85.7,0 155.1,69.4 155.1,155 v 66 c 0,85.7 -69.4,155.1 -155.1,155.1" /><path
         id="path280"
         style="fill:#252323;fill-opacity:1;fill-rule:nonzero;stroke:none"
         d="m 15596.3,7745.6 h -448.9 v 99.3 h 448.9 v -99.3" /><path
         id="path282"
         style="fill:#252323;fill-opacity:1;fill-rule:nonzero;stroke:none"
         d="m 15413.9,7472.9 c 0,-22.6 -18.3,-40.9 -40.8,-40.9 -22.6,0 -40.9,18.3 -40.9,40.9 0,22.5 18.3,40.8 40.9,40.8 22.5,0 40.8,-18.3 40.8,-40.8" /><path
         id="path284"
         style="fill:#252323;fill-opacity:1;fill-rule:nonzero;stroke:none"
         d="m 15413.9,7253.6 c 0,-22.6 -18.3,-40.9 -40.8,-40.9 -22.6,0 -40.9,18.3 -40.9,40.9 0,22.5 18.3,40.8 40.9,40.8 22.5,0 40.8,-18.3 40.8,-40.8" /><path
         id="path286"
         style="fill:#969797;fill-opacity:1;fill-rule:nonzero;stroke:none"
         d="m 15569.9,5035.5 h -361.5 v 1983.9 h 361.5 V 5035.5" /><path
         id="path288"
         style="fill:#535456;fill-opacity:1;fill-rule:nonzero;stroke:none"
         d="m 15485.7,6803.2 c 0,-54.7 -44.3,-99 -99,-99 -54.7,0 -99,44.3 -99,99 0,54.7 44.3,99 99,99 54.7,0 99,-44.3 99,-99" /><path
         id="path290"
         style="fill:#969797;fill-opacity:1;fill-rule:nonzero;stroke:none"
         d="m 11628.5,5713.9 -313.6,-652 h -97.4 v 10144 l 89.2,-84.2 34.6,-9719.8 348.8,677 -61.6,-365" /><path
         id="path292"
         style="fill:#969797;fill-opacity:1;fill-rule:nonzero;stroke:none"
         d="m 11722.6,5828.6 -94.1,103.1 340,724.6 v -283.9 l -191.4,-440.7 -54.5,-103.1" /><path
         id="path294"
         style="fill:#767779;fill-opacity:1;fill-rule:nonzero;stroke:none"
         d="m 11833.7,6369.1 134.8,287.2 h 120.5 z m 577.1,562.8 -250.8,-206.3 -316.9,-3.3 -504.8,-479.9 3,-840.5 332.1,625.6 851.3,775.7 -113.9,128.7" /><path
         id="path296"
         style="fill:#100f0d;fill-opacity:1;fill-rule:nonzero;stroke:none"
         d="M 11561.7,8872.9 V 6204.1 l 17.5,26.9 277.1,425.3 19.8,2469.2 -314.4,-252.6" /><path
         id="path298"
         style="fill:#252323;fill-opacity:1;fill-rule:nonzero;stroke:none"
         d="m 11561.7,6204.1 h -223.2 l -9.6,2680.4 232.8,-11.6 V 6204.1" /><path
         id="path300"
         style="fill:#4e4f51;fill-opacity:1;fill-rule:nonzero;stroke:none"
         d="m 11876.1,9125.5 v 76.7 h -368.9 l -179.1,-104 0.8,-213.7 232.8,-11.6" /><path
         id="path302"
         style="fill:#c6c5c3;fill-opacity:1;fill-rule:nonzero;stroke:none"
         d="m 10955.1,15205.9 h 262.4 V 4956.3 h -262.4 v 10249.6" /><path
         id="path304"
         style="fill:#100f0d;fill-opacity:1;fill-rule:nonzero;stroke:none"
         d="m 11611,9050.9 -267.4,5487.3 35,1.7 267.4,-5487.3 -35,-1.7" /><path
         id="path306"
         style="fill:#100f0d;fill-opacity:1;fill-rule:nonzero;stroke:none"
         d="m 11329.2,13714.3 -18.8,145.1 0.1,-145.6 v -569.1 h -0.1 l 115.7,-4059.4 35.1,1 -132,4628" /><path
         id="path308"
         style="fill:#100f0d;fill-opacity:1;fill-rule:nonzero;stroke:none"
         d="m 11307.9,14760.3 393.2,-353.2 h -224.4 l -165,112.2 -3.8,241" /><path
         id="path310"
         style="fill:#969797;fill-opacity:1;fill-rule:nonzero;stroke:none"
         d="m 11306.7,15121.7 536.4,-538 375.4,-7927.4 -187.3,80.1 -330.1,7670.7 -393.2,353.2 -1.2,361.4" /><path
         id="path312"
         style="fill:#969797;fill-opacity:1;fill-rule:nonzero;stroke:none"
         d="m 11306.7,15121.7 c 0,0 335,315.3 354.8,312 19.8,-3.3 59.4,-128.8 59.4,-128.8 l -297.9,-349.9 -116.3,166.7" /><path
         id="path314"
         style="fill:#100f0d;fill-opacity:1;fill-rule:nonzero;stroke:none"
         d="m 12071.5,6724.3 -285.6,8434.8 35.1,1.2 285.5,-8434.8 -35,-1.2" /><path
         id="path316"
         style="fill:#100f0d;fill-opacity:1;fill-rule:nonzero;stroke:none"
         d="m 12134,6942.8 -320,8430 35,1.4 320,-8430 -35,-1.4" /><path
         id="path318"
         style="fill:#252323;fill-opacity:1;fill-rule:nonzero;stroke:none"
         d="m 11514.1,11399.8 h -192.7 v -405.1 h 192.7 v 405.1" /><path
         id="path320"
         style="fill:#100f0d;fill-opacity:1;fill-rule:nonzero;stroke:none"
         d="m 11843.8,11091.4 -329.7,-96.7 v 405.1 l 314.2,52.9 15.5,-361.3" /><path
         id="path322"
         style="fill:#4e4f51;fill-opacity:1;fill-rule:nonzero;stroke:none"
         d="m 11321.4,11399.8 2.6,75.1 502,29.7 2.3,-51.9 -314.2,-52.9 h -192.7" /><path
         id="path324"
         style="fill:#100f0d;fill-opacity:1;fill-rule:nonzero;stroke:none"
         d="m 11579,11587.5 c 0,-74.7 -60.6,-135.3 -135.4,-135.3 -74.7,0 -135.3,60.6 -135.3,135.3 0,74.8 60.6,135.4 135.3,135.4 74.8,0 135.4,-60.6 135.4,-135.4" /><path
         id="path326"
         style="fill:#fbc398;fill-opacity:1;fill-rule:nonzero;stroke:none"
         d="m 12838.1,13873.9 c 0,0 -32.2,94.1 -42.1,133.7 -9.9,39.7 -1.9,105.2 -1.9,105.2 l 242.1,21.1 c 0,0 66.8,37.1 128.7,39.6 61.9,2.5 101.5,24.8 101.5,24.8 0,0 -79.2,106.4 -69.3,141.1 9.9,34.7 126.3,-32.2 170.8,-84.2 44.6,-52 22.3,-165.9 -34.6,-212.9 -57,-47 -217.1,-168.4 -217.1,-168.4 h -278.1" /><g
         transform="scale(1.09078)"
         id="g328"><path
           id="path330"
           style="fill:#fbc398;fill-opacity:1;fill-rule:nonzero;stroke:none"
           d="m 16000.4,12832.8 c 0,0 -61.2,45.4 -152,84 -90.9,38.6 -127.2,36.3 -127.2,129.3 0,93.1 109,174.8 124.9,174.8 15.9,0 18.2,-45.4 4.5,-74.9 -13.6,-29.5 -4.5,-68.1 -4.5,-68.1 0,0 54.5,6.8 118,-13.6 63.5,-20.4 109,-47.7 109,-47.7 l 226.9,4.6 c 0,0 -13.6,-99.9 -40.8,-188.4 -27.2,-88.5 -258.8,0 -258.8,0" /></g><path
         id="path332"
         style="fill:#252323;fill-opacity:1;fill-rule:nonzero;stroke:none"
         d="m 14818.6,12668.7 c 10.3,20.3 -39,72.8 -52,128.2 -12.9,55.5 -2.9,278.2 -5.3,304 -2.5,25.8 40.9,106.1 48.9,130.1 7.9,24 59.9,120.3 93.2,146.7 33.3,26.4 132.4,44.1 173.9,58.7 41.4,14.7 120.3,49.9 194,43.2 73.6,-6.6 66,-24.7 117.7,-27.7 51.7,-3.1 132,-45.4 160.3,-72.7 28.3,-27.3 126.8,-91.1 159.3,-132.3 32.6,-41.2 49.5,-235.6 44.1,-309.3 -5.5,-73.6 -31.4,-183.4 -31.4,-183.4 l -15,-49.3 c 0,0 7.8,-99.8 1.8,-101.9 -5.9,-2.1 94.3,-46.1 -140.1,-56.2 -234.3,-10.1 -504.6,-8.9 -504.6,-8.9 0,0 -176.7,-11.1 -217.2,29.9 -40.5,41 -27.6,100.9 -27.6,100.9" /><path
         id="path334"
         style="fill:#fbc398;fill-opacity:1;fill-rule:nonzero;stroke:none"
         d="m 14828.9,12689 c 0,0 -14.7,3.5 -40.4,-3 -25.7,-6.4 -1.4,-145.1 17.1,-180.5 18.5,-35.5 45.4,-92.6 49.7,-112.4 4.3,-19.8 42.4,-39 42.4,-39 0,0 11.8,-107.1 28.5,-148.6 16.6,-41.4 125.8,-144.8 176.7,-215.4 50.9,-70.7 178.6,-98.2 267.5,-66.8 88.9,31.3 140.8,131.6 158.2,153.8 17.5,22.2 95.2,124.9 108.5,162.9 13.2,38 19.2,145.4 19.2,145.4 0,0 33.7,8.6 48.9,46.6 15.2,38 28.1,97.9 37.7,115.9 9.6,18.1 23.6,127.6 7.3,147.2 -16.2,19.6 -43.9,9.8 -43.9,9.8 0,0 -7.4,-30.5 -11.3,-36.6 -3.8,-6 -27.5,-14.4 -27.5,-14.4 l -5.7,97.3 c 0,0 -22.3,21.5 -32.6,47.1 -10.4,25.7 -13.8,103.1 -14.2,123 -0.3,19.9 1.2,49.7 -13.6,97.1 -14.8,47.5 -73,84.2 -102.9,89.6 -30,5.5 -179.1,8.8 -202.9,10.3 -23.9,1.6 -35.7,-8.5 -99.1,-17.6 -63.4,-9.1 -259.9,-26.5 -281.5,-38.8 -21.7,-12.3 -40.3,-82.2 -43.9,-106.1 -3.5,-23.9 14.4,-136.9 12.8,-158.8 -1.6,-21.8 -17.1,-46 -14.8,-61.8 2.3,-15.9 4,-115.2 4,-115.2 l -17.7,-6.3 -26.5,75.3" /><path
         id="path336"
         style="fill:#767779;fill-opacity:1;fill-rule:nonzero;stroke:none"
         d="m 11960.8,6639.8 7.7,16.5 H 12089 L 11960.8,6512 v -222.7 l 563.9,513.9 -113.9,128.7 -250.8,-206.3 -199.2,-2 v -83.8" /><path
         id="path338"
         style="fill:#969797;fill-opacity:1;fill-rule:nonzero;stroke:none"
         d="m 11998.2,15373.5 c 0,-175.9 -142.6,-318.6 -318.5,-318.6 -176,0 -318.6,142.7 -318.6,318.6 0,175.9 142.6,318.5 318.6,318.5 175.9,0 318.5,-142.6 318.5,-318.5" /><path
         id="path340"
         style="fill:#767779;fill-opacity:1;fill-rule:nonzero;stroke:none"
         d="m 12821,6902.1 c 0,-194.1 -157.3,-351.4 -351.4,-351.4 -194.1,0 -351.5,157.3 -351.5,351.4 0,194.1 157.4,351.5 351.5,351.5 194.1,0 351.4,-157.4 351.4,-351.5" /><path
         id="path342"
         style="fill:#c6c5c3;fill-opacity:1;fill-rule:nonzero;stroke:none"
         d="m 12594,6847.8 c 0,-79.3 -64.2,-143.6 -143.6,-143.6 -79.3,0 -143.5,64.3 -143.5,143.6 0,79.3 64.2,143.6 143.5,143.6 79.4,0 143.6,-64.3 143.6,-143.6" /><path
         id="path344"
         style="fill:#100f0d;fill-opacity:1;fill-rule:nonzero;stroke:none"
         d="m 11597,9202.2 h -125 c -27,0 -49,-20.2 -49,-45.2 v -105.2 c 0,-25 22,-45.2 49,-45.2 h 125 c 27.1,0 49,20.2 49,45.2 V 9157 c 0,25 -21.9,45.2 -49,45.2" /></g></g></svg>