<?xml version="1.0" encoding="UTF-8" standalone="no"?>
<svg
   xmlns:dc="http://purl.org/dc/elements/1.1/"
   xmlns:cc="http://creativecommons.org/ns#"
   xmlns:rdf="http://www.w3.org/1999/02/22-rdf-syntax-ns#"
   xmlns:svg="http://www.w3.org/2000/svg"
   xmlns="http://www.w3.org/2000/svg"
   viewBox="0 0 2666.6667 2666.6667"
   height="2666.6667"
   width="2666.6667"
   xml:space="preserve"
   id="svg2"
   version="1.1"><metadata
     id="metadata8"><rdf:RDF><cc:Work
         rdf:about=""><dc:format>image/svg+xml</dc:format><dc:type
           rdf:resource="http://purl.org/dc/dcmitype/StillImage" /></cc:Work></rdf:RDF></metadata><defs
     id="defs6" /><g
     transform="matrix(1.3333333,0,0,-1.3333333,0,2666.6667)"
     id="g10"><g
       transform="scale(0.1)"
       id="g12"><g
         transform="scale(1.22699)"
         id="g14"><path
           id="path16"
           style="fill:none;fill-opacity:1;fill-rule:nonzero;stroke:none"
           d="M 16300,0 H 0 V 16300 H 16300 V 0" /></g><path
         id="path18"
         style="fill:#3a70c0;fill-opacity:1;fill-rule:nonzero;stroke:none"
         d="m 13835.3,5847 -62.8,-53.2 c 0,0 -36,-395.2 -55,-490.2 -19.1,-95 -49.5,-216.6 0,-266 49.4,-49.4 95,-136.8 144.4,-182.4 49.4,-45.6 547.2,-64.6 589,0 41.8,64.6 -182.4,440.8 -231.8,570 -49.4,129.2 0,250.8 -26.6,311.6 -26.6,60.8 -102.6,79.8 -102.6,79.8 l -254.6,30.4" /><path
         id="path20"
         style="fill:#ffffff;fill-opacity:1;fill-rule:nonzero;stroke:none"
         d="m 13903.8,5803.3 c 0,0 18.9,-146.3 -15.3,-203.3 -34.2,-57 -137.4,-25.4 -137.4,-25.4 l 21.4,219.2 131.3,9.5" /><path
         id="path22"
         style="fill:#3a70c0;fill-opacity:1;fill-rule:nonzero;stroke:none"
         d="m 15300,5850.8 h -48.5 c 0,0 -63.4,-53.2 -65.9,-124.1 -2.5,-71 -7.6,-81.1 -32.9,-164.7 -25.4,-83.6 -43.1,-192.5 -15.2,-253.3 27.8,-60.8 260.9,-83.6 342,-149.5 81,-65.9 88.6,-126.7 210.2,-174.8 121.6,-48.2 410.5,60.8 456.1,146.9 45.6,86.2 -301.5,395.2 -387.7,519.4 -86.1,124.1 -68.8,218.9 -164.6,249.5 -95.9,30.7 -202.7,36.8 -202.7,36.8 l -90.8,-86.2" /><path
         id="path24"
         style="fill:#ffffff;fill-opacity:1;fill-rule:nonzero;stroke:none"
         d="m 15266.7,5997.8 c -7.6,-7.6 -36.8,-97.6 -36.8,-97.6 v -165.9 c 0,0 39.3,-45.6 97.6,-43.1 58.2,2.5 70.9,86.2 65.8,121.6 -5,35.5 -5.5,53.2 1,60.8 6.6,7.6 199.2,26.6 199.2,26.6 l 1.2,41.8 c 0,0 -150.7,106.4 -196.3,98.8 -45.6,-7.6 -131.7,-43 -131.7,-43" /><path
         id="path26"
         style="fill:#fbc295;fill-opacity:1;fill-rule:nonzero;stroke:none"
         d="m 13746.6,8462.6 c 0,0 30.4,-430.5 25.3,-501.4 -5,-70.9 -111.5,-344.6 -126.7,-679 -15.2,-334.4 83.6,-1074.2 102.7,-1260.4 19,-186.2 24.6,-228 24.6,-228 l 317.4,22.8 c 0,0 11.4,380 64.6,604.2 53.2,224.3 140.6,570.1 140.6,847.5 0,277.4 -22.8,425.6 -19,440.8 3.8,15.2 87.4,106.4 106.4,254.6 19,148.2 136.8,524.4 136.8,524.4 0,0 -433.2,76.1 -463.6,68.5 -30.4,-7.6 -309.1,-94 -309.1,-94" /><path
         id="path28"
         style="fill:#fbc295;fill-opacity:1;fill-rule:nonzero;stroke:none"
         d="m 14927.2,8478 c 0,0 5.6,-225.5 48.4,-331.9 42.8,-106.4 68.1,-278.6 47.8,-466.1 -20.2,-187.5 20.3,-544.7 88.7,-947.5 68.4,-402.9 117.8,-832.3 117.8,-832.3 l 364.8,41.8 c 0,0 3.8,642.3 49.4,1060.3 45.6,418 -41.8,847.4 -38,896.8 3.8,49.4 79.8,560.7 64.6,563.5 -15.2,2.7 -539.6,143.4 -539.6,143.4 l -203.9,-128" /><path
         id="path30"
         style="fill:#9a9a9a;fill-opacity:1;fill-rule:nonzero;stroke:none"
         d="m 9024.23,10101.6 404.09,11.5 c 0,0 27.86,-5.1 40.53,-55.8 12.67,-50.7 -32.94,-102 -32.94,-102 l -501.62,-44.9 89.94,191.2" /><path
         id="path32"
         style="fill:#224b76;fill-opacity:1;fill-rule:nonzero;stroke:none"
         d="m 9138.66,9930.6 c 0,541.5 -317.02,980.4 -708.09,980.4 -125.65,15.4 -171.43,0 -171.43,0 0,0 -1.38,-10.6 -3.83,-30.3 -306.29,-108 -532.83,-492.4 -532.83,-950.1 0,-400.4 173.48,-744.6 421.98,-896.8 10.18,-46.9 24.82,-75.1 44.95,-78.9 177.3,-33.3 278.72,-4.7 278.72,-4.7 l 2.5,1.6 c 372.42,28.8 668.03,456 668.03,978.8" /><path
         id="path34"
         style="fill:#2c5e9f;fill-opacity:1;fill-rule:nonzero;stroke:none"
         d="m 8967.23,9930.6 c 0,-541.5 -317.02,-980.4 -708.09,-980.4 -391.07,0 -708.1,438.9 -708.1,980.4 0,541.5 317.03,980.4 708.1,980.4 391.07,0 708.09,-438.9 708.09,-980.4" /><path
         id="path36"
         style="fill:#c6c5c3;fill-opacity:1;fill-rule:nonzero;stroke:none"
         d="m 8446.32,9955.3 c 0,-162.6 -97.77,-294.5 -218.37,-294.5 -120.6,0 -218.37,131.9 -218.37,294.5 0,162.7 97.77,294.6 218.37,294.6 120.6,0 218.37,-131.9 218.37,-294.6" /><path
         id="path38"
         style="fill:#3a70c0;fill-opacity:1;fill-rule:nonzero;stroke:none"
         d="m 6525.35,5818.8 h -48.51 c 0,0 -63.33,-53.2 -65.87,-124.1 -2.53,-70.9 -7.6,-81.1 -32.93,-164.7 -25.34,-83.6 -43.07,-192.5 -15.2,-253.3 27.86,-60.8 260.94,-83.6 342.01,-149.5 81.07,-65.9 88.67,-126.7 210.28,-174.8 121.6,-48.1 410.42,60.8 456.02,146.9 45.6,86.2 -301.48,395.3 -387.62,519.4 -86.14,124.1 -68.81,218.9 -164.67,249.5 -95.87,30.7 -202.68,36.8 -202.68,36.8 l -90.83,-86.2" /><path
         id="path40"
         style="fill:#ffffff;fill-opacity:1;fill-rule:nonzero;stroke:none"
         d="m 6492.04,5965.8 c -7.6,-7.6 -36.73,-97.6 -36.73,-97.6 v -165.9 c 0,0 39.27,-45.6 97.54,-43.1 58.26,2.6 70.93,86.2 65.87,121.6 -5.07,35.5 -5.58,53.2 1.01,60.8 6.58,7.6 199.13,26.6 199.13,26.6 l 1.26,41.8 c 0,0 -150.74,106.5 -196.34,98.9 -45.6,-7.7 -131.74,-43.1 -131.74,-43.1" /><path
         id="path42"
         style="fill:#3a70c0;fill-opacity:1;fill-rule:nonzero;stroke:none"
         d="m 5060.64,5815 -62.77,-53.2 c 0,0 -36.03,-395.2 -55.04,-490.2 -19,-95 -49.4,-216.6 0,-266 49.41,-49.4 95.01,-136.8 144.41,-182.4 49.41,-45.6 547.23,-64.6 589.03,0 41.8,64.6 -182.41,440.8 -231.81,570 -49.41,129.2 0,250.8 -26.6,311.6 -26.61,60.8 -102.61,79.8 -102.61,79.8 l -254.61,30.4" /><path
         id="path44"
         style="fill:#fbc295;fill-opacity:1;fill-rule:nonzero;stroke:none"
         d="m 4971.97,8430.6 c 0,0 30.4,-430.5 25.33,-501.4 -5.06,-70.9 -111.47,-344.5 -126.67,-679 -15.2,-334.4 83.6,-1074.1 102.61,-1260.3 19,-186.3 24.63,-228.1 24.63,-228.1 l 317.38,22.8 c 0,0 11.4,380.1 64.6,604.3 53.21,224.2 140.61,570 140.61,847.4 0,277.4 -22.8,425.6 -19,440.8 3.8,15.2 87.41,106.4 106.41,254.6 19,148.3 136.8,524.5 136.8,524.5 0,0 -433.22,76 -463.62,68.4 -30.4,-7.6 -309.08,-94 -309.08,-94" /><path
         id="path46"
         style="fill:#fbc295;fill-opacity:1;fill-rule:nonzero;stroke:none"
         d="m 6152.56,8446 c 0,0 5.61,-225.4 48.41,-331.8 42.79,-106.5 68.13,-278.7 47.86,-466.2 -20.27,-187.5 20.27,-544.7 88.67,-947.5 68.4,-402.8 117.81,-832.3 117.81,-832.3 l 364.81,41.8 c 0,0 3.81,642.3 49.41,1060.3 45.6,418 -41.81,847.4 -38.01,896.8 3.8,49.4 79.81,560.7 64.61,563.5 -15.2,2.8 -539.63,143.4 -539.63,143.4 l -203.94,-128" /><path
         id="path48"
         style="fill:#252323;fill-opacity:1;fill-rule:nonzero;stroke:none"
         d="m 6740.32,10911 35.47,-255.8 c 0,0 136.8,-582.7 212.81,-1226.2 76,-643.5 65.87,-1064 65.87,-1064 0,0 -339.48,-25.4 -516.83,0 -177.34,25.3 -445.88,81 -450.95,111.4 -5.07,30.4 -70.94,456.1 -70.94,456.1 0,0 -81.07,-410.5 -106.4,-451 -25.34,-40.5 -70.94,-45.6 -70.94,-45.6 0,0 -1008.31,-50.7 -998.18,-30.4 10.13,20.3 86.14,65.9 40.54,339.5 -45.61,273.6 47.5,993.1 47.5,993.1 l 125.97,597.9 c 0,0 -26.53,461.1 -16.4,491.5 10.13,30.4 92.76,187.5 122.38,212.8 29.62,25.3 1493.96,-25.3 1514.23,-30.4 20.27,-5.1 65.87,-98.9 65.87,-98.9" /><path
         id="path50"
         style="fill:#fbc295;fill-opacity:1;fill-rule:nonzero;stroke:none"
         d="m 6497.11,13581.4 c 0,0 307.81,-59.6 429.42,-219.2 121.6,-159.6 64.6,-535.8 64.6,-562.4 0,-26.6 0.09,-532 13.35,-714.5 0,0 131.06,-277.4 161.46,-475 30.4,-197.6 26.6,-402.8 53.2,-513 26.6,-110.2 95.01,-539.6 106.41,-585.2 11.4,-45.6 0,-106.4 0,-106.4 h -254.61 c 0,0 -34.21,171 -110.21,326.8 -76,155.8 -202.19,618.8 -202.19,618.8 l -261.43,1361.1 v 869" /><path
         id="path52"
         style="fill:#e19f72;fill-opacity:1;fill-rule:nonzero;stroke:none"
         d="m 6830.21,12730.4 20.32,400 c 0,0 -98.81,-159.6 -110.21,-163.4 -11.4,-3.8 0,-186.2 0,-186.2 l 89.89,-50.4" /><path
         id="path54"
         style="fill:#3a70c0;fill-opacity:1;fill-rule:nonzero;stroke:none"
         d="m 5452.06,13721.3 -79.8,-25.9 c 0,0 136.8,-481.4 121.6,-724.6 -15.2,-243.2 -197.61,-547.2 -197.61,-547.2 l -258.41,-722.1 c 0,0 98.81,-798 182.41,-790.4 83.6,7.6 1520.07,-0.1 1520.07,-0.1 0,0 45.6,1132.5 57,1250.4 11.4,117.8 15.2,326.8 34.2,475 19.01,148.2 -79.8,353.4 -121.6,478.8 -41.8,125.4 -212.81,466.2 -212.81,466.2 l -146.94,58.2 -898.11,81.7" /><path
         id="path56"
         style="fill:#fbc295;fill-opacity:1;fill-rule:nonzero;stroke:none"
         d="m 5372.26,13695.4 v 0 c 0,0 -369.89,-88.7 -506.69,-179.9 -136.81,-91.2 -217.88,-357.2 -222.95,-554.8 0,0 -50.67,-344.6 -20.27,-542.2 30.4,-197.6 106.41,-511.8 111.47,-668.8 5.07,-157.1 -20.27,-309.1 5.07,-552.3 25.33,-243.2 253.35,-866.5 258.41,-932.3 5.07,-65.9 5.07,-65.9 5.07,-65.9 0,0 243.21,55.7 243.21,70.9 0,15.2 -20.27,846.2 -25.33,1094.5 -5.07,248.3 -20.27,329.3 -20.27,329.3 0,0 76.9,345 81.07,521.9 4.17,177 4.17,177 4.17,177 0,0 188.37,263.8 208.64,578 20.27,314.1 -121.6,724.6 -121.6,724.6" /><path
         id="path58"
         style="fill:#2c5e9f;fill-opacity:1;fill-rule:nonzero;stroke:none"
         d="m 5329.6,12552.6 78.95,71.5 c 0,0 59.98,-99.2 156.24,-160 96.28,-60.8 396.31,-71.3 396.31,-71.3 0,0 -189.83,-41.4 -376.04,-22.4 -186.2,19 -255.46,93.3 -255.46,93.3 v 88.9" /><path
         id="path60"
         style="fill:#9a9a9a;fill-opacity:1;fill-rule:nonzero;stroke:none"
         d="m 4206.87,9761.9 3974.99,270.1 c 0,0 55.73,-7.6 73.47,-60.8 17.73,-53.2 -60.81,-106.4 -60.81,-106.4 L 4228.4,9610 l -21.53,151.9" /><path
         id="path62"
         style="fill:#fbc295;fill-opacity:1;fill-rule:nonzero;stroke:none"
         d="m 5002.37,10199.2 c 0,0 -65.87,-96.3 -73.47,-159.6 -7.6,-63.4 55.74,-152 73.47,-195.1 17.73,-43.1 7.6,-179.9 30.4,-205.2 22.8,-25.3 68.41,-12.7 68.41,-12.7 0,0 24.06,-28.5 52.57,-38 28.5,-9.5 41.8,1.9 47.5,0 5.7,-1.9 30.4,-22.8 53.2,-19 22.8,3.8 43.7,11.4 43.7,11.4 0,0 38,-5.7 62.7,7.6 24.71,13.3 133.01,152 125.41,207.1 -7.6,55.1 -89.3,155.8 -133.01,239.5 -43.7,83.6 -107.67,234.9 -107.67,234.9 l -65.23,27.3 -177.98,-98.2" /><path
         id="path64"
         style="fill:#e19f72;fill-opacity:1;fill-rule:nonzero;stroke:none"
         d="m 5118.26,9610 c 27.96,60.8 82.34,182.9 72.85,191.4 -12.66,11.4 -68.4,-125.4 -111.47,-140.6 -16.81,-5.9 -37.08,-4.7 -55.57,-1 2.23,-9.1 4.99,-16.4 8.7,-20.5 22.8,-25.3 68.4,-12.7 68.4,-12.7 0,0 6.7,-7.8 17.09,-16.6" /><path
         id="path66"
         style="fill:#e19f72;fill-opacity:1;fill-rule:nonzero;stroke:none"
         d="m 5291.19,9760.9 c -15.21,5.1 -7.61,-7.6 -54.47,-79.5 -26.26,-40.2 -55.68,-73.2 -76.5,-94.5 23.97,-5.8 35.79,3.5 41.03,1.7 2.78,-0.9 10.15,-6.4 19.58,-11.3 20.61,54.9 82.39,179.6 70.36,183.6" /><path
         id="path68"
         style="fill:#e19f72;fill-opacity:1;fill-rule:nonzero;stroke:none"
         d="m 5320.75,9579.9 c 15.85,47.9 38.78,124.3 24.9,127.8 -16.16,4 -66.13,-96.6 -93.42,-138.2 0.73,0.1 1.48,0 2.22,0.1 22.8,3.8 43.7,11.4 43.7,11.4 0,0 9.77,-1.4 22.6,-1.1" /><path
         id="path70"
         style="fill:#fbc295;fill-opacity:1;fill-rule:nonzero;stroke:none"
         d="m 7070.94,10405.7 c 0,0 -36.74,-102.6 -79.81,-178.6 -43.07,-76 -77.28,-281.3 -77.28,-281.3 0,1.3 103.57,10.6 128.9,-14.8 25.34,-25.3 14.25,-86.5 -0.95,-124.5 -15.2,-38 -83.28,-21.1 -83.28,-21.1 0,0 65.55,-87.8 112.42,-87.8 46.86,0 19,7.6 46.86,0 27.87,-7.6 82.34,-10.8 108.94,0 26.6,10.7 53.21,-4.5 89.3,5 36.11,9.5 66.51,17.1 96.91,39.9 30.4,22.8 72.21,176.7 60.8,245.1 -11.4,68.4 -77.9,154 -95,230 -17.1,76 -48.13,205.2 -48.13,205.2 l -162.78,15.2 -96.9,-32.3" /><path
         id="path72"
         style="fill:#100f0d;fill-opacity:1;fill-rule:nonzero;stroke:none"
         d="m 6112.02,9388.5 c -10.13,-25.4 -96.27,-456 -96.27,-456 l 70.94,-456.1 c 0,0 97.32,-41.9 112.76,-45.8 15.43,-3.9 -91.85,537.3 -91.85,537.3 l 4.42,420.6" /><path
         id="path74"
         style="fill:#224b76;fill-opacity:1;fill-rule:nonzero;stroke:none"
         d="m 3488.7,10827.8 c -182.28,35.4 -291.35,0 -291.35,0 0,0 -10.31,-41.8 -27.66,-112.8 -256.06,-191.2 -433.43,-605.4 -433.43,-1085.6 0,-175.9 23.79,-342.9 66.5,-493.3 -15.18,-77.8 -23.2,-129.4 -20.89,-142.5 15.2,-86.1 280.05,-525.7 415.48,-562.7 135.44,-36.9 291.35,0 291.35,0 415.56,0 752.44,536.6 752.44,1198.5 0,661.9 -336.88,1198.4 -752.44,1198.4" /><path
         id="path76"
         style="fill:#ffffff;fill-opacity:1;fill-rule:nonzero;stroke:none"
         d="m 5129.18,5771.3 c 0,0 18.86,-146.3 -15.34,-203.3 -34.2,-57 -137.37,-25.3 -137.37,-25.3 l 21.4,219.1 131.31,9.5" /><path
         id="path78"
         style="fill:#2c5e9f;fill-opacity:1;fill-rule:nonzero;stroke:none"
         d="m 4000.46,9629.4 c 0,-661.9 -336.88,-1198.5 -752.44,-1198.5 -415.55,0 -752.43,536.6 -752.43,1198.5 0,661.9 336.88,1198.4 752.43,1198.4 415.56,0 752.44,-536.5 752.44,-1198.4" /><path
         id="path80"
         style="fill:#c6c5c3;fill-opacity:1;fill-rule:nonzero;stroke:none"
         d="m 3317.21,9608.1 c 0,-102.1 -69.19,-184.9 -154.54,-184.9 -85.35,0 -154.54,82.8 -154.54,184.9 0,102.2 69.19,185 154.54,185 85.35,0 154.54,-82.8 154.54,-185" /><path
         id="path82"
         style="fill:#9a9a9a;fill-opacity:1;fill-rule:nonzero;stroke:none"
         d="m 1711.16,9620.6 1426.18,69.9 c 0,0 60.8,-12.4 70.93,-70.2 10.14,-57.8 -63.33,-103.4 -63.33,-103.4 l -1419.41,-81.6 -14.37,185.3" /><path
         id="path84"
         style="fill:#c6c5c3;fill-opacity:1;fill-rule:nonzero;stroke:none"
         d="m 1780.65,9529.8 c 1.19,-51 -28,-93.1 -65.2,-93.9 -37.2,-0.9 -68.31,39.8 -69.49,90.8 -1.19,51 28,93.1 65.2,93.9 37.2,0.9 68.31,-39.8 69.49,-90.8" /><path
         id="path86"
         style="fill:#fbc295;fill-opacity:1;fill-rule:nonzero;stroke:none"
         d="m 5675.07,14261.5 c 0,0 -24.14,-330.5 -41.87,-381.2 -17.73,-50.7 -181.14,-159 -181.14,-159 0,0 214.08,-537.7 371.15,-727.7 157.07,-190 526.96,-195.1 620.7,-17.7 93.73,177.3 -93.74,663.7 -93.74,663.7 l -111.47,65.9 -2.54,184.9 c 0,0 -380.02,266 -402.82,288.8 -22.8,22.8 -131.74,136.9 -131.74,136.9 l -26.53,-54.6" /><path
         id="path88"
         style="fill:#efac80;fill-opacity:1;fill-rule:nonzero;stroke:none"
         d="m 5737.07,14229.9 -35.47,12.7 c 0,0 -12.66,-167.2 78.54,-314.2 91.2,-146.9 392.69,-222.9 392.69,-222.9 l 45.6,-169.8 20.27,169.8 -2.23,162.1 -499.4,362.3" /><path
         id="path90"
         style="fill:#252323;fill-opacity:1;fill-rule:nonzero;stroke:none"
         d="m 5623.07,14422.4 h -39.51 c 0,0 -94.77,116.6 -79.57,248.3 15.2,131.8 -7.6,157.1 43.08,223 50.66,65.9 43.06,139.3 91.2,174.8 48.13,35.4 131.73,96.3 207.74,111.5 76.01,15.2 263.48,38 377.49,38 114,0 167.2,7.6 230.54,-38 63.34,-45.6 88.67,-240.7 -22.8,-286.3 -111.47,-45.6 -443.35,-440.8 -443.35,-440.8 l -103.88,-103.3 c 0,0 -124.14,-33.5 -162.14,-15.8 -38,17.7 -98.8,88.6 -98.8,88.6" /><path
         id="path92"
         style="fill:#fbc295;fill-opacity:1;fill-rule:nonzero;stroke:none"
         d="m 5737.07,14417.4 c 0,0 -53.2,157.1 -103.87,139.3 -50.67,-17.7 -68.41,-131.7 -25.33,-210.3 43.06,-78.5 93.73,-103.8 93.73,-103.8 0,0 20.27,-126.7 60.81,-202.7 40.53,-76 250.81,-192.5 352.15,-222.9 101.33,-30.4 187.47,2.5 245.74,60.8 58.27,58.2 76,253.3 93.74,377.4 17.73,124.2 27.87,281.3 25.34,337 -2.54,55.7 -20.27,131.7 -30.41,190 -10.13,58.3 -17.73,111.5 -17.73,111.5 0,0 -268.55,-12.7 -306.55,-25.4 -38,-12.6 -93.02,-60.8 -93.02,-60.8 0,0 -58.98,-83.6 -79.25,-108.9 -20.27,-25.3 -50.67,-58.3 -70.94,-81.1 -20.27,-22.8 -48.14,-55.7 -58.27,-98.8 -10.13,-43 -30.4,-63.3 -38,-96.3 -7.6,-32.9 -48.14,-5 -48.14,-5" /><path
         id="path94"
         style="fill:#e19f72;fill-opacity:1;fill-rule:nonzero;stroke:none"
         d="m 5250.65,12712.4 34.57,-319.6 123.33,231.3 c 0,0 -100.9,46.5 -157.9,88.3" /><path
         id="path96"
         style="fill:#e19f72;fill-opacity:1;fill-rule:nonzero;stroke:none"
         d="m 4673.25,13175.9 c 0,0 -2.76,-149.4 58.04,-243.1 60.8,-93.8 212.81,-159.6 212.81,-159.6 0,0 -93.74,-20.3 -195.08,27.8 -101.33,48.2 -115.23,91.1 -115.23,91.1 l 39.46,283.8" /><path
         id="path98"
         style="fill:#252323;fill-opacity:1;fill-rule:nonzero;stroke:none"
         d="m 15514.9,10943 35.5,-255.8 c 0,0 136.8,-582.7 212.8,-1226.2 76,-643.5 65.9,-1064.1 65.9,-1064.1 0,0 -339.5,-25.3 -516.8,0 -177.4,25.4 -445.9,81.1 -451,111.5 -5.1,30.4 -70.9,456 -70.9,456 0,0 -81.1,-410.4 -106.4,-450.9 -25.4,-40.6 -71,-45.6 -71,-45.6 0,0 -1008.3,-50.7 -998.2,-30.4 10.2,20.2 86.2,65.8 40.6,339.5 -45.6,273.6 47.5,993.1 47.5,993.1 l 126,597.9 c 0,0 -26.6,461.1 -16.4,491.5 10.1,30.4 92.7,187.4 122.3,212.8 29.7,25.3 1494,-25.4 1514.3,-30.4 20.2,-5.1 65.8,-98.9 65.8,-98.9" /><path
         id="path100"
         style="fill:#fbc295;fill-opacity:1;fill-rule:nonzero;stroke:none"
         d="m 15202.9,14019.6 c 0,0 148.6,-72.2 160,-72.2 11.4,0 216.6,-34.3 342.1,-199.5 125.4,-165.3 87.4,-674.5 87.4,-674.5 0,0 83.6,-140.6 106.4,-258.4 22.8,-117.8 45.6,-338.7 45.6,-348 0,-9.2 54,-142.2 133.4,-423.5 79.4,-281.2 135.8,-1098.6 135.8,-1098.6 0,0 -151.4,-113.6 -166.6,-109.8 -15.2,3.8 -93.1,92.7 -93.1,92.7 0,0 -95.5,306.3 -157,446.9 -61.5,140.6 -301,619.4 -301,619.4 l -480.5,1529.5 187.5,496" /><path
         id="path102"
         style="fill:#e19f72;fill-opacity:1;fill-rule:nonzero;stroke:none"
         d="m 15602.3,13056.9 c 0,0 -3.8,183.7 -19,316.7 -15.2,133 -34.2,186.2 -34.2,186.2 0,0 -7.6,-247 -79.8,-330.6 -72.2,-83.6 133,-172.3 133,-172.3" /><path
         id="path104"
         style="fill:#3a70c0;fill-opacity:1;fill-rule:nonzero;stroke:none"
         d="m 14374.9,14019.6 -152,-49.4 c 0,0 201.4,-304 228,-573.8 26.6,-269.8 -304,-733.4 -304,-733.4 0,0 -114.7,-307.8 -230.3,-429.4 l -60,-342.1 -44.1,-1032 c 0,0 269.8,-13.7 733.4,0 463.6,13.6 981.5,-6.1 981.5,-6.1 0,0 -6.6,825.3 0,1000.1 6.5,174.8 0,583 0,583 0,0 54.7,220.1 74.9,382.3 20.3,162.1 0,238.1 0,238.1 0,0 -197.6,350.9 -269.8,544.7 -72.2,193.8 -129.6,418 -129.6,418 0,0 -109.8,64.6 -132.6,60.8 -22.8,-3.8 -695.4,-60.8 -695.4,-60.8" /><path
         id="path106"
         style="fill:#2c5e9f;fill-opacity:1;fill-rule:nonzero;stroke:none"
         d="m 14374.9,12732.6 c 0,0 198.9,-162.1 279.9,-187.4 81.1,-25.4 134.1,-40.6 134.1,-40.6 0,0 -123.9,-40.5 -260.7,0 -136.9,40.6 -341.5,189.8 -341.5,189.8 l 96.9,145.4 91.3,-107.2" /><path
         id="path108"
         style="fill:#fbc295;fill-opacity:1;fill-rule:nonzero;stroke:none"
         d="m 14222.9,13970.2 v 0 c 0,0 -231.8,-87.4 -250.8,-102.6 -19,-15.2 -247.1,-106.4 -334.5,-269.8 -87.4,-163.4 -60.8,-342 -60.8,-342 0,0 -133,-249.5 -153.2,-411.7 -20.3,-162.1 0,-562.4 0,-562.4 0,0 -10.2,-457.1 60.8,-841.6 70.9,-384.6 182.4,-733.6 182.4,-733.6 0,0 64.6,-41.7 105.7,-36.1 41.3,5.7 137.5,107 137.5,107 0,0 -6.3,418.7 5.1,544.1 11.4,125.4 19,437 7.6,608 -11.4,171 -24.6,198.6 -24.6,198.6 l 18.5,105.5 c 0,0 150.5,129.2 230.3,429.4 0,0 311.6,357.5 319.2,655.7 7.6,298.1 -243.2,651.5 -243.2,651.5" /><path
         id="path110"
         style="fill:#fbc295;fill-opacity:1;fill-rule:nonzero;stroke:none"
         d="m 14432.6,14177.1 -15.9,-119.5 -41.8,-38 c 0,0 19,-106.4 98.8,-190 79.8,-83.6 250.8,-231.8 338.2,-376.2 87.4,-144.4 247.2,-152 347.8,-117.8 100.6,34.2 -2,532 -32.4,600.4 -30.4,68.4 -163.4,193.8 -266,216.6 -102.6,22.8 -269.8,24.5 -269.8,24.5 h -158.9" /><path
         id="path112"
         style="fill:#e19f72;fill-opacity:1;fill-rule:nonzero;stroke:none"
         d="m 15138.6,13902.6 c -56,170 -669.5,265.3 -669.5,265.3 l -36.5,9.2 c 0,0 1.8,-107.4 106.8,-244.8 105,-137.4 414.2,-244.2 414.2,-244.2 0,0 33,-3.4 65.6,6.4 89.9,27.2 135.9,158.1 119.4,208.1" /><path
         id="path114"
         style="fill:#252323;fill-opacity:1;fill-rule:nonzero;stroke:none"
         d="m 14337,14348.5 -39.3,-3.8 c 0,0 -105.6,106.8 -103.3,239.4 2.4,132.6 -22.7,155.6 21.3,226 44.1,70.5 29.4,142.9 73.9,182.9 44.4,39.9 121.8,108.5 195.9,131 74.2,22.5 258.6,63.4 372.1,74.4 113.4,11 165.7,23.8 233.1,-15.5 67.5,-39.2 111.6,-231 5,-287.1 -106.5,-56.2 -398.5,-481.7 -398.5,-481.7 l -93.4,-112.9 c 0,0 -120.3,-45.4 -159.9,-31.4 -39.5,14 -106.9,78.7 -106.9,78.7" /><path
         id="path116"
         style="fill:#fbc295;fill-opacity:1;fill-rule:nonzero;stroke:none"
         d="m 14451,14354.5 c 0,0 -68.2,151.2 -116.9,128.6 -48.7,-22.5 -55.3,-137.7 -4.9,-211.7 50.5,-74 103.4,-94.3 103.4,-94.3 0,0 32.4,-124.2 80.1,-195.9 47.7,-71.7 268.3,-167.3 372.1,-187.8 103.8,-20.4 186.4,20.7 238.7,84.4 52.4,63.6 51.1,259.5 56.8,384.7 5.6,125.3 0.5,282.6 -7.4,337.9 -8,55.2 -33,129.1 -48.7,186.1 -15.7,57 -28.5,109.3 -28.5,109.3 0,0 -266,-38.6 -302.6,-54.9 -36.6,-16.3 -86.7,-69.6 -86.7,-69.6 0,0 -50.6,-88.9 -68.3,-116.1 -17.8,-27.1 -44.8,-62.9 -62.8,-87.5 -18,-24.7 -42.5,-60.2 -48.4,-104 -5.9,-43.9 -24.1,-66 -28.5,-99.5 -4.4,-33.5 -47.4,-9.7 -47.4,-9.7" /><path
         id="path118"
         style="fill:none;stroke:#252323;stroke-width:10;stroke-linecap:butt;stroke-linejoin:miter;stroke-miterlimit:10;stroke-dasharray:none;stroke-opacity:1"
         d="m 14886.6,9420.5 c -10.1,-25.4 -96.2,-456.1 -96.2,-456.1 l 70.9,-456 c 0,0 97.3,-41.9 112.8,-45.8 15.4,-4 -91.9,537.3 -91.9,537.3 z" /><g
         transform="scale(1.12666)"
         id="g120"><path
           id="path122"
           style="fill:#9a9a9a;fill-opacity:1;fill-rule:nonzero;stroke:none"
           d="m 15894.1,9429.51 358.7,10.12 c 0,0 24.7,-4.49 36,-49.47 11.2,-44.98 -29.3,-90.51 -29.3,-90.51 l -445.2,-39.92 79.8,169.78" /></g><g
         transform="scale(1.10563)"
         id="g124"><path
           id="path126"
           style="fill:#224b76;fill-opacity:1;fill-rule:nonzero;stroke:none"
           d="m 16300,9454.17 c 0,489.75 -286.8,886.73 -640.5,886.73 -113.6,14 -155.1,0 -155.1,0 0,0 -1.1,-9.6 -3.4,-27.4 -277,-97.7 -481.9,-445.34 -481.9,-859.33 0,-362.18 156.9,-673.44 381.7,-811.1 9.1,-42.42 22.4,-67.93 40.6,-71.36 160.3,-30.12 252.1,-4.25 252.1,-4.25 l 2.2,1.44 c 336.9,26.05 604.3,412.35 604.3,885.27" /></g><g
         transform="scale(1.0951)"
         id="g128"><path
           id="path130"
           style="fill:#2c5e9f;fill-opacity:1;fill-rule:nonzero;stroke:none"
           d="m 16300,9545.01 c 0,-494.46 -289.5,-895.24 -646.6,-895.24 -357,0 -646.5,400.78 -646.5,895.24 0,494.49 289.5,895.29 646.5,895.29 357.1,0 646.6,-400.8 646.6,-895.29" /></g><g
         transform="scale(1.06315)"
         id="g132"><path
           id="path134"
           style="fill:#c6c5c3;fill-opacity:1;fill-rule:nonzero;stroke:none"
           d="m 16300,9855.18 c 0,-152.99 -91.9,-277.02 -205.3,-277.02 -113.5,0 -205.5,124.03 -205.5,277.02 0,153.02 92,277.02 205.5,277.02 113.4,0 205.3,-124 205.3,-277.02" /></g><g
         transform="scale(1.05252)"
         id="g136"><path
           id="path138"
           style="fill:#9a9a9a;fill-opacity:1;fill-rule:nonzero;stroke:none"
           d="m 12436.7,9770.88 3776.7,256.62 c 0,0 52.9,-7.2 69.7,-57.77 16.9,-50.55 -57.8,-101.1 -57.8,-101.1 l -3768.2,-242.08 -20.4,144.33" /></g><g
         transform="scale(1.00418)"
         id="g140"><path
           id="path142"
           style="fill:#fbc295;fill-opacity:1;fill-rule:nonzero;stroke:none"
           d="m 15887.4,10882.3 c 0,0 -36.5,-102.2 -79.4,-177.9 -42.9,-75.6 -76.9,-280 -76.9,-280 0,1.2 103.1,10.5 128.3,-14.8 25.2,-25.2 14.2,-86.1 -1,-124 -15.1,-37.8 -82.9,-21 -82.9,-21 0,0 65.3,-87.4 111.9,-87.4 46.7,0 19,7.5 46.7,0 27.8,-7.6 82,-10.8 108.5,0 26.5,10.7 53,-4.5 89,5 36,9.5 66.2,17 96.5,39.7 30.3,22.7 71.9,176 60.5,244.1 -11.3,68.1 -77.5,153.3 -94.6,229 -17,75.7 -48,204.3 -48,204.3 l -162.1,15.2 -96.5,-32.2" /></g><path
         id="path144"
         style="fill:#224b76;fill-opacity:1;fill-rule:nonzero;stroke:none"
         d="m 12372.3,11349.7 c -182.3,35.4 -291.3,0 -291.3,0 0,0 -10.3,-41.9 -27.7,-112.9 -256,-191.2 -433.4,-605.4 -433.4,-1085.6 0,-175.9 23.8,-342.9 66.5,-493.3 -15.2,-77.8 -23.2,-129.4 -20.9,-142.5 15.2,-86.1 280,-525.7 415.5,-562.6 135.4,-37 291.3,0 291.3,0 415.6,0 752.5,536.5 752.5,1198.4 0,661.9 -336.9,1198.5 -752.5,1198.5" /><path
         id="path146"
         style="fill:#2c5e9f;fill-opacity:1;fill-rule:nonzero;stroke:none"
         d="m 12884.1,10151.2 c 0,-661.9 -336.9,-1198.4 -752.4,-1198.4 -415.6,0 -752.5,536.5 -752.5,1198.4 0,661.9 336.9,1198.5 752.5,1198.5 415.5,0 752.4,-536.6 752.4,-1198.5" /><path
         id="path148"
         style="fill:#c6c5c3;fill-opacity:1;fill-rule:nonzero;stroke:none"
         d="m 12203.2,10138.7 c 0,-102.2 -69.2,-185 -154.6,-185 -85.3,0 -154.5,82.8 -154.5,185 0,102.1 69.2,184.9 154.5,184.9 85.4,0 154.6,-82.8 154.6,-184.9" /><path
         id="path150"
         style="fill:#9a9a9a;fill-opacity:1;fill-rule:nonzero;stroke:none"
         d="m 10597.1,10151.2 1426.2,69.8 c 0,0 60.8,-12.3 70.9,-70.1 10.2,-57.8 -63.3,-103.4 -63.3,-103.4 l -1419.4,-81.7 -14.4,185.4" /><path
         id="path152"
         style="fill:#c6c5c3;fill-opacity:1;fill-rule:nonzero;stroke:none"
         d="m 10666.6,10060.4 c 1.2,-51.1 -28,-93.1 -65.2,-94 -37.2,-0.9 -68.3,39.8 -69.5,90.8 -1.2,51.1 28,93.1 65.2,94 37.2,0.8 68.3,-39.8 69.5,-90.8" /><path
         id="path154"
         style="fill:#fbc295;fill-opacity:1;fill-rule:nonzero;stroke:none"
         d="m 13666.8,10706.5 c 0,0 -65.9,-96.3 -73.5,-159.6 -7.6,-63.3 55.8,-152 73.5,-195.1 17.7,-43 7.6,-179.9 30.4,-205.2 22.8,-25.3 68.4,-12.7 68.4,-12.7 0,0 24.1,-28.5 52.6,-38 28.5,-9.5 41.8,2 47.5,0 5.7,-1.8 30.4,-22.8 53.2,-19 22.8,3.9 43.7,11.5 43.7,11.5 0,0 38,-5.7 62.7,7.5 24.7,13.4 133,152 125.4,207.2 -7.6,55.1 -89.3,155.8 -133,239.4 -43.7,83.6 -107.7,234.9 -107.7,234.9 l -65.2,27.3 -178,-98.2" /><path
         id="path156"
         style="fill:#e19f72;fill-opacity:1;fill-rule:nonzero;stroke:none"
         d="m 13782.7,10117.3 c 27.9,60.9 82.3,182.9 72.8,191.5 -12.6,11.4 -68.4,-125.4 -111.4,-140.6 -16.9,-6 -37.1,-4.7 -55.6,-1.1 2.2,-9.1 5,-16.4 8.7,-20.5 22.8,-25.3 68.4,-12.7 68.4,-12.7 0,0 6.7,-7.8 17.1,-16.6" /><path
         id="path158"
         style="fill:#e19f72;fill-opacity:1;fill-rule:nonzero;stroke:none"
         d="m 13955.6,10268.2 c -15.2,5.1 -7.6,-7.6 -54.5,-79.4 -26.2,-40.3 -55.7,-73.3 -76.5,-94.6 24,-5.8 35.8,3.5 41.1,1.7 2.7,-0.9 10.1,-6.3 19.5,-11.3 20.6,54.9 82.4,179.6 70.4,183.6" /><path
         id="path160"
         style="fill:#e19f72;fill-opacity:1;fill-rule:nonzero;stroke:none"
         d="m 13985.2,10087.2 c 15.8,47.9 38.7,124.4 24.9,127.8 -16.2,4.1 -66.2,-96.6 -93.5,-138.1 0.8,0 1.5,-0.1 2.3,0 22.8,3.9 43.7,11.5 43.7,11.5 0,0 9.7,-1.5 22.6,-1.2" /><path
         id="path162"
         style="fill:#e19f72;fill-opacity:1;fill-rule:nonzero;stroke:none"
         d="m 14146.9,12663 c 0,0 22.8,163.4 34.2,254.6 11.4,91.2 0,121.6 0,121.6 h -57 c 0,0 60.8,57 129.2,133 68.4,76 68.4,76 68.4,76 0,0 -102.6,-171 -98.8,-182.4 3.8,-11.4 84.5,-180.6 84.5,-180.6 0,0 -95.9,-195.6 -160.5,-222.2" /><path
         id="path164"
         style="fill:#e19f72;fill-opacity:1;fill-rule:nonzero;stroke:none"
         d="m 13605.4,13523.6 c 0,0 8.2,-132.3 56.3,-253.9 48.2,-121.6 116.6,-217.8 111.5,-210.3 -5.1,7.7 -119.1,43.1 -196.4,196.4 0,0 -3.6,193.6 28.6,267.8" /><path
         id="path166"
         style="fill:#2c5e9f;fill-opacity:1;fill-rule:nonzero;stroke:none"
         d="m 15133.7,12732.6 c 0,0 81,-65.1 159.6,-93.3 78.5,-28.3 78.5,-28.3 78.5,-28.3 0,0 -45.6,-35.4 -136.8,-15.2 -91.2,20.3 -149.5,126.7 -149.5,126.7 l 48.2,10.1" /></g></g></svg>