<?xml version="1.0" encoding="UTF-8" standalone="no"?>
<svg
   xmlns:dc="http://purl.org/dc/elements/1.1/"
   xmlns:cc="http://creativecommons.org/ns#"
   xmlns:rdf="http://www.w3.org/1999/02/22-rdf-syntax-ns#"
   xmlns:svg="http://www.w3.org/2000/svg"
   xmlns="http://www.w3.org/2000/svg"
   viewBox="0 0 2666.6667 2666.6667"
   height="2666.6667"
   width="2666.6667"
   xml:space="preserve"
   id="svg2"
   version="1.1"><metadata
     id="metadata8"><rdf:RDF><cc:Work
         rdf:about=""><dc:format>image/svg+xml</dc:format><dc:type
           rdf:resource="http://purl.org/dc/dcmitype/StillImage" /></cc:Work></rdf:RDF></metadata><defs
     id="defs6" /><g
     transform="matrix(1.3333333,0,0,-1.3333333,0,2666.6667)"
     id="g10"><g
       transform="scale(0.1)"
       id="g12"><g
         transform="scale(1.22699)"
         id="g14"><path
           id="path16"
           style="fill:#ffffff;fill-opacity:1;fill-rule:nonzero;stroke:none"
           d="M 16300,0 H 0 V 16300 H 16300 V 0" /></g><g
         transform="scale(1.1329)"
         id="g18"><path
           id="path20"
           style="fill:#292827;fill-opacity:1;fill-rule:nonzero;stroke:none"
           d="m 15206.4,7877.82 c 0,0 -160.3,-156.23 -156.2,-185.01 4.1,-28.77 106.9,-226.14 135.7,-230.21 28.7,-4.14 501.5,97.37 604.3,143.27 102.8,45.81 378.2,321.91 444,444.87 65.8,123.05 37,303.91 37,303.91 0,0 -90.5,69.91 -156.2,65.76 -65.8,-4.06 -456.4,-267.54 -530.3,-275.57 -74,-8.04 -279.6,-28.6 -279.6,-28.6 l -98.7,-238.42" /></g><g
         transform="scale(1.07618)"
         id="g22"><path
           id="path24"
           style="fill:#c37140;fill-opacity:1;fill-rule:nonzero;stroke:none"
           d="m 15175.1,9471.78 c 0,0 436.8,-635.65 488.8,-700.61 51.9,-64.85 227.2,-473.89 233.7,-525.83 6.5,-51.85 168.7,-309.71 285.6,-219.76 116.8,89.95 71.4,427.53 71.4,427.53 0,0 -52,110.39 -65,168.74 -12.9,58.45 -441,1787.25 -470.4,1795.95 -29.4,8.7 -399.4,-192.5 -444.9,-273.7 -45.4,-81.1 -99.2,-672.32 -99.2,-672.32" /></g><g
         transform="scale(1.07618)"
         id="g26"><path
           id="path28"
           style="fill:#ececec;fill-opacity:1;fill-rule:nonzero;stroke:none"
           d="m 16189.6,8621.85 c -3.3,15.15 -34.5,141.89 -79.2,321.6 -133.6,-106.49 -292.9,-195.51 -401.2,-250.33 71.7,-140.5 183.2,-406.52 188.4,-447.78 6.5,-51.85 168.7,-309.71 285.6,-219.76 116.8,89.95 71.4,427.53 71.4,427.53 0,0 -52,110.39 -65,168.74" /></g><g
         transform="scale(1.0529)"
         id="g30"><path
           id="path32"
           style="fill:#252323;fill-opacity:1;fill-rule:nonzero;stroke:none"
           d="m 16044,8467.22 c 0,0 -118.3,-23.65 -113.9,-63.44 4.4,-39.89 263.7,-374.31 263.7,-374.31 l 106.2,42.93 -256,394.82" /></g><g
         transform="scale(1.03738)"
         id="g34"><path
           id="path36"
           style="fill:#9c9c9b;fill-opacity:1;fill-rule:nonzero;stroke:none"
           d="m 16284,8593.86 c 16,-28.63 3.1,-66.42 -28.8,-84.16 -32,-17.83 -70.9,-8.96 -86.9,19.77 -16,28.62 -3.1,66.32 28.9,84.15 31.9,17.83 70.8,8.97 86.8,-19.76" /></g><path
         id="path38"
         style="fill:#252323;fill-opacity:1;fill-rule:nonzero;stroke:none"
         d="m 14237.4,4619.1 c 0,0 -16.3,-265.5 83.9,-328.4 l 1152.6,328.4 c 0,0 -6.9,188.6 -90.8,293.4 l -1145.7,-293.4" /><path
         id="path40"
         style="fill:#252323;fill-opacity:1;fill-rule:nonzero;stroke:none"
         d="m 15234.9,4551 455.6,-407 24,605 -331.4,163.5 c 0,0 -317.8,283 -324.8,206.1 -7,-76.8 176.6,-567.6 176.6,-567.6" /><path
         id="path42"
         style="fill:#9c9c9b;fill-opacity:1;fill-rule:nonzero;stroke:none"
         d="m 15648.6,4877.6 c -27.9,-42 -146.6,-175.1 -146.6,-175.1 l 188.5,-558.5 517,146.7 -160.7,531 -398.2,55.9" /><path
         id="path44"
         style="fill:#56595a;fill-opacity:1;fill-rule:nonzero;stroke:none"
         d="m 14922.1,8964.4 c 0,0 -21,-1704.6 34.9,-2165.7 55.9,-461.1 419.1,-1271.4 607.8,-1481 188.6,-209.6 482,-496 482,-496 l -544.8,-119.2 -616.7,485.8 -89,541.6 c 0,0 -426.1,1970 -454.1,2200.5 -27.9,230.6 249.2,1264.5 249.2,1264.5 l 330.7,-230.5" /><g
         transform="scale(1.11775)"
         id="g46"><path
           id="path48"
           style="fill:#56595a;fill-opacity:1;fill-rule:nonzero;stroke:none"
           d="m 13400,8482.18 1000,-64.5 68.7,708.55 c 0,0 156.3,62.5 287.6,0 0,0 -62.6,-1156.23 -56.3,-1249.99 6.3,-93.76 293.8,-268.75 556.3,-243.8 262.5,25.06 987.5,231.27 987.5,231.27 l 56.2,-87.5 V 7568.3 c 0,0 -793.7,-229.57 -1299.9,-210.87 -506.3,18.79 -618.9,581.25 -618.9,581.25 l -1118.7,116.93 137.5,426.57" /></g><path
         id="path50"
         style="fill:#292827;fill-opacity:1;fill-rule:nonzero;stroke:none"
         d="m 14447,5548.2 c -4.6,-14 -51.2,-107.1 -51.2,-107.1 0,0 -14,-1087.5 25.6,-1213.2 39.6,-125.8 416.8,-136.3 553,-125.8 136.3,10.5 356.3,303.9 293.5,639.2 -62.9,335.4 -345.8,859.3 -345.8,859.3 l -69.9,250.3 -458.8,189.8 53.6,-492.5" /><path
         id="path52"
         style="fill:#818283;fill-opacity:1;fill-rule:nonzero;stroke:none"
         d="m 15099,10284.7 c 0,0 -58.2,-1348.3 -93.1,-1446.1 -34.9,-97.8 -510,-83.8 -510,-83.8 l -497.6,1222.5 215.8,1145.7 c 0,0 20.2,160.7 533.3,48.9 513.1,-111.7 482,-281.7 489,-360.9 7,-79.2 -137.4,-526.3 -137.4,-526.3" /><path
         id="path54"
         style="fill:#9a9a9a;fill-opacity:1;fill-rule:nonzero;stroke:none"
         d="m 15236.4,10811 c -7,79.2 24.1,249.2 -489,360.9 -513.1,111.8 -533.3,-48.9 -533.3,-48.9 l -20.3,-108 c 12.9,11.1 20.3,17.2 20.3,17.2 l 533.3,-687.7 -55.9,-143.6 c 0,0 -139.7,-1058.5 -160.7,-1042.7 -9.4,7 -113.6,36.3 -227.3,69.4 l 192.4,-472.8 c 0,0 475.1,-14 510,83.8 34.9,97.8 93.1,1446.1 93.1,1446.1 0,0 144.4,447.1 137.4,526.3" /><path
         id="path56"
         style="fill:#bebdbb;fill-opacity:1;fill-rule:nonzero;stroke:none"
         d="m 14342.2,10811 349.3,-610.1 407.5,83.8 v 586.8 l -351.6,300.4 c 0,0 -230.5,-48.9 -251.5,-83.8 -20.9,-34.9 -153.7,-277.1 -153.7,-277.1" /><path
         id="path58"
         style="fill:#100f0d;fill-opacity:1;fill-rule:nonzero;stroke:none"
         d="m 13385.1,8873.5 c 0,0 270.2,-288.7 456.5,-228.2 186.3,60.6 -32.6,619.5 -186.3,712.6 -153.7,93.1 -409.9,37.3 -409.9,0 0,-37.3 139.7,-484.4 139.7,-484.4" /><path
         id="path60"
         style="fill:#454547;fill-opacity:1;fill-rule:nonzero;stroke:none"
         d="m 12747.1,8552.2 c 14,0 419.1,139.7 419.1,139.7 l 198.6,-54.9 25,-178 -449.3,-176.9 -257.1,97.8 63.7,172.3" /><path
         id="path62"
         style="fill:#7d8083;fill-opacity:1;fill-rule:nonzero;stroke:none"
         d="m 12844.9,8412.5 519.9,224.5 25,-178 -449.3,-176.9 -95.6,130.4" /><path
         id="path64"
         style="fill:#56595a;fill-opacity:1;fill-rule:nonzero;stroke:none"
         d="M 12565.4,9448.7 12309.3,8459 c 0,0 -1136.4,-526.2 -1145.7,-544.9 -9.3,-18.6 -107.1,-391.2 -107.1,-391.2 l 297.3,-69.8 1179.1,572.8 1401.8,-614.8 -554.2,-563.5 v -298.1 l 265.4,-102.4 558.9,638 -405.2,982.7 -1010.6,409.9 251.5,971 -391.2,168.4 -83.9,-168.4" /><path
         id="path66"
         style="fill:#7d8083;fill-opacity:1;fill-rule:nonzero;stroke:none"
         d="m 12582.5,8524.2 206.5,-46.5 251.5,971 -190.6,82.1 -267.4,-1006.6" /><path
         id="path68"
         style="fill:#7d8083;fill-opacity:1;fill-rule:nonzero;stroke:none"
         d="m 12566.9,8230.8 -1081.9,-447.1 -131.2,-330.6 1179.1,572.8 34,204.9" /><path
         id="path70"
         style="fill:#7d8083;fill-opacity:1;fill-rule:nonzero;stroke:none"
         d="m 13622.7,6735.8 23.2,-288.7 558.9,638 -71.8,174.2 -510.3,-523.5" /><path
         id="path72"
         style="fill:#c37140;fill-opacity:1;fill-rule:nonzero;stroke:none"
         d="m 13347.9,9255.4 c 0,0 363.3,-400.5 391.2,-535.5 27.9,-135.1 4.7,-959.5 111.8,-1234.2 107.1,-274.8 330.6,-824.4 428.4,-1164.4 97.8,-340 116.5,-880.2 116.5,-880.2 0,0 107.1,-4.7 116.4,46.6 9.3,51.2 -74.5,214.2 0,270.1 74.5,55.9 340,93.1 340,93.1 0,0 -116.4,596.2 -116.4,1131.8 0,535.6 27.9,917.5 -74.6,1266.8 -102.4,349.3 -37.2,475 -69.8,945.4 -32.6,470.4 -186.3,712.6 -321.4,889.5 -135,177 -340,339 -600.8,218.4 -260.8,-120.5 -489,-176.4 -521.6,-390.7 -32.6,-214.2 200.3,-656.7 200.3,-656.7" /><path
         id="path74"
         style="fill:#9c9c9b;fill-opacity:1;fill-rule:nonzero;stroke:none"
         d="m 11353.8,7453.1 131.2,330.6 -321.4,130.4 -107.1,-391.2 297.3,-69.8" /><path
         id="path76"
         style="fill:#393b3b;fill-opacity:1;fill-rule:nonzero;stroke:none"
         d="m 12062.5,10009.9 c 0,0 -116.5,-116.4 -144.4,-181.6 -28,-65.2 46.5,-707.9 260.8,-754.5 214.2,-46.6 931.5,209.6 931.5,209.6 l -218.9,109.4 c 0,0 -544.9,-193.2 -656.7,-165.3 -111.8,27.9 -111.8,428.5 -116.5,461.1 -4.6,32.6 -55.8,321.3 -55.8,321.3" /><path
         id="path78"
         style="fill:#707474;fill-opacity:1;fill-rule:nonzero;stroke:none"
         d="m 12602,9558.3 289.5,-165.5 218.9,-109.4 188.1,-125.2 -102,322.8 -614,315.9 19.5,-238.6" /><path
         id="path80"
         style="fill:#636567;fill-opacity:1;fill-rule:nonzero;stroke:none"
         d="m 12092.7,13763.7 c 0,0 -516.9,-104.8 -628.7,-174.6 -111.8,-69.9 -125.8,-160.7 -97.8,-517 27.9,-356.3 743,-2590.5 776.7,-2772.8 33.7,-182.2 149.9,-391.8 196.6,-391.8 46.6,0 857,-426.5 857,-426.5 l 168.3,684.9 -797.9,2556.9 -474.2,1040.9" /><path
         id="path82"
         style="fill:#454547;fill-opacity:1;fill-rule:nonzero;stroke:none"
         d="m 12566.9,12722.8 -320.3,703.3 -461.3,-975.7 768.5,-2602.6 -22.3,-25.7 c 253.5,-124.5 665,-341.1 665,-341.1 l 168.3,684.9 -797.9,2556.9" /><path
         id="path84"
         style="fill:#292827;fill-opacity:1;fill-rule:nonzero;stroke:none"
         d="m 12672.6,10811 c 0,0 -177,-228.2 -214.3,-307.4 -37.2,-79.2 69.9,-209.6 83.9,-242.2 13.9,-32.6 79.1,-265.4 130.4,-312 51.2,-46.6 153.7,-93.2 200.2,-135.1 46.6,-41.9 260.8,-349.3 326,-582.1 65.2,-232.9 186.3,-358.7 186.3,-358.7 0,0 37.3,801.1 288.8,1061.9 251.5,260.8 596.1,121.1 596.1,149 0,28 4.7,340 28,423.9 23.3,83.8 74.5,288.7 116.4,302.7 41.9,14 265.5,55.9 326,32.6 60.6,-23.3 358.6,-558.9 358.6,-558.9 0,0 228.2,-51.2 358.6,-83.8 130.4,-32.6 365.6,-28 365.6,-28 0,0 314.4,964.1 300.4,985.1 -13.9,20.9 -188.6,265.4 -216.5,265.4 -28,0 -803.4,-7 -957.1,0 -153.7,7 -735.9,-123.4 -735.9,-123.4 l -894.2,74.5 -346.9,-132.7 -300.4,-430.8" /><path
         id="path86"
         style="fill:#c37140;fill-opacity:1;fill-rule:nonzero;stroke:none"
         d="m 13413.1,13819.6 111.8,-93.1 c 0,0 167.6,-65.2 228.2,-163 60.5,-97.8 84,-531 84,-531 l -517.2,158.4 93.2,628.7" /><path
         id="path88"
         style="fill:#e9eef1;fill-opacity:1;fill-rule:nonzero;stroke:none"
         d="m 12591.8,13896.5 c -45,13.9 -366.3,-7 -366.3,-7 l -132.8,-125.8 -258.5,-1571.8 c 0,0 423.9,-496 605.5,-831.3 181.6,-335.4 232.9,-549.6 232.9,-549.6 0,0 693.9,214.2 992,321.3 298,107.2 549.5,167.7 549.5,167.7 0,0 -284.1,1043.3 -284.1,1117.8 0,74.5 42,218.9 -9.3,484.3 -51.2,265.5 -507.6,917.5 -507.6,917.5 l -198.6,158.4 -622.7,-81.5" /><path
         id="path90"
         style="fill:#c37140;fill-opacity:1;fill-rule:nonzero;stroke:none"
         d="m 12544.5,14497.9 c 0,0 -76.9,-268.4 -142.1,-389.5 -65.2,-121.1 -176.9,-218.9 -176.9,-218.9 0,0 377.2,-232.9 647.3,-405.2 270.2,-172.3 540.3,-218.9 614.8,-107.1 74.5,111.7 -200.3,516.9 -204.9,549.5 -4.7,32.6 130.4,395.9 130.4,395.9 l -582.2,628.8 h -270.1 l -16.3,-453.5" /><path
         id="path92"
         style="fill:#636567;fill-opacity:1;fill-rule:nonzero;stroke:none"
         d="m 12339.5,9779.4 c -2.3,-9.3 0,-202.6 0,-202.6 0,0 71,-78.5 121.7,-90.5 50.7,-12 105.7,0 105.7,0 0,0 84.7,169.7 82.4,183.6 -2.3,14 -95.5,177.9 -95.5,177.9 0,0 -111.8,10.2 -125.7,0 -14,-10.2 -88.6,-68.4 -88.6,-68.4" /><path
         id="path94"
         style="fill:#252323;fill-opacity:1;fill-rule:nonzero;stroke:none"
         d="m 12683.4,9534.9 c 0,-64.3 -52.2,-116.5 -116.5,-116.5 -64.3,0 -116.4,52.2 -116.4,116.5 0,64.3 52.1,116.4 116.4,116.4 64.3,0 116.5,-52.1 116.5,-116.4" /><path
         id="path96"
         style="fill:#c37140;fill-opacity:1;fill-rule:nonzero;stroke:none"
         d="m 12262.3,13754.4 c 0,0 405.6,-381.9 456.8,-759.1 51.3,-377.3 -186.2,-666 -419.1,-735.9 -232.9,-69.8 -405.2,-32.6 -405.2,-32.6 0,0 -83.8,-228.2 -265.5,-419.1 -181.6,-191 -302.7,-271.9 -302.7,-271.9 0,0 232.9,-426.7 386.6,-659.6 153.6,-232.9 493.6,-586.8 493.6,-586.8 l -246.8,-205 c 0,0 -852.3,600.8 -1038.6,894.3 -186.3,293.4 -177,479.7 -149,610.1 27.9,130.4 149,721.8 223.5,912.8 74.5,191 223.6,344.6 223.6,344.6 0,0 65.2,316.7 251.5,498.4 186.3,181.6 489,270.1 489,270.1 l 177,190.9 125.3,-51.2" /><path
         id="path98"
         style="fill:#a15234;fill-opacity:1;fill-rule:nonzero;stroke:none"
         d="m 11969.3,12571.5 c -14,-4.7 -74.5,-344.7 -74.5,-344.7 0,0 172.3,-37.2 405.2,32.6 30.4,9.2 61,22.1 91,38.5 -227.2,91.2 -410.7,277.2 -421.7,273.6" /><path
         id="path100"
         style="fill:#c37140;fill-opacity:1;fill-rule:nonzero;stroke:none"
         d="m 11960,10084.4 c 0,0 30.3,-81.5 34.9,-158.3 4.7,-76.9 69.9,-372.6 90.8,-405.2 21,-32.6 88.5,-32.6 137.4,-55.9 48.9,-23.3 244.5,-72.2 244.5,-72.2 0,0 128.1,2.4 97.8,55.9 -30.2,53.6 -90.8,58.2 -139.7,104.8 -48.9,46.6 -30.2,186.3 -7,200.3 23.3,13.9 135.1,-2.4 151.4,-15.2 16.3,-12.8 86.2,-171.1 118.8,-168.8 32.6,2.3 41.9,125.8 11.6,184 -30.3,58.2 -67.5,79.1 -102.5,125.7 -34.9,46.6 -30.2,65.2 -95.4,130.4 -65.2,65.2 -295.8,279.5 -295.8,279.5 0,0 -146.7,30.2 -176.9,0 -30.3,-30.3 -69.9,-205 -69.9,-205" /><g
         transform="scale(1.0389)"
         id="g102"><path
           id="path104"
           style="fill:#9a9a9a;fill-opacity:1;fill-rule:nonzero;stroke:none"
           d="m 15301.4,9671.03 c 0,0 -162.9,99.69 -162.7,121.57 0.3,21.88 36.1,1124.7 36.1,1124.7 0,0 49.3,188.3 147.9,246.6 98.7,58.2 753.2,53.7 798,53.7 44.8,0 152.4,-89.6 165.8,-143.4 13.5,-53.8 -22.3,-1090.8 -35.8,-1116.98 -13.5,-26.18 -223.1,-102.4 -377,-145.48 -153.9,-43.08 -572.3,-140.71 -572.3,-140.71" /></g><g
         transform="scale(1.01172)"
         id="g106"><path
           id="path108"
           style="fill:none;stroke:#ed1c24;stroke-width:9.88411999;stroke-linecap:butt;stroke-linejoin:miter;stroke-miterlimit:10;stroke-dasharray:none;stroke-opacity:1"
           d="m 16300,10075.3 c 0,-24.5 -70.8,-44.3 -158,-44.3 -87.3,0 -158,19.8 -158,44.3 0,24.4 70.7,44.2 158,44.2 87.2,0 158,-19.8 158,-44.2 z" /></g><g
         transform="scale(1.01361)"
         id="g110"><path
           id="path112"
           style="fill:#56595a;fill-opacity:1;fill-rule:nonzero;stroke:none"
           d="m 16300,9912.31 h -616.8 v 858.09 h 616.8 v -858.09" /></g><path
         id="path114"
         style="fill:#292827;fill-opacity:1;fill-rule:nonzero;stroke:none"
         d="m 16209.2,10797.5 c 0,-23.5 -19,-42.5 -42.5,-42.5 -23.5,0 -42.6,19 -42.6,42.5 0,23.5 19.1,42.6 42.6,42.6 23.5,0 42.5,-19.1 42.5,-42.6" /><path
         id="path116"
         style="fill:#292827;fill-opacity:1;fill-rule:nonzero;stroke:none"
         d="m 16209.2,10369.2 c 0,-23.5 -19,-42.6 -42.5,-42.6 -23.5,0 -42.6,19.1 -42.6,42.6 0,23.5 19.1,42.6 42.6,42.6 23.5,0 42.5,-19.1 42.5,-42.6" /><path
         id="path118"
         style="fill:#818283;fill-opacity:1;fill-rule:nonzero;stroke:none"
         d="m 15900.1,11585.2 c -90.1,-71.4 -135.1,-243.3 -135.1,-243.3 0,0 -37.2,-1145.7 -37.5,-1168.4 -0.2,-22.7 169.1,-126.3 169.1,-126.3 0,0 1.4,0.3 3.5,0.8 v 1537.2" /><g
         transform="scale(1.03681)"
         id="g120"><path
           id="path122"
           style="fill:#bebdbb;fill-opacity:1;fill-rule:nonzero;stroke:none"
           d="m 15416.4,11096.5 c 56.4,-10 601.5,20.4 883.6,37 -36.3,50.3 -111.3,106.7 -146.9,106.7 -44.8,0 -700.7,4.5 -799.6,-53.9 -19.9,-11.8 -37.9,-29 -53.9,-48.9 39.3,-18 80.6,-34.5 116.8,-40.9" /></g><path
         id="path124"
         style="fill:#ececec;fill-opacity:1;fill-rule:nonzero;stroke:none"
         d="m 14512.2,5757.8 c 74.5,55.9 340,93.1 340,93.1 0,0 -74.3,380.3 -104.2,806.4 -176.7,-56.6 -382.8,-100.9 -534.1,-129.5 25.1,-73.9 47.4,-143.8 65.4,-206.5 97.8,-340 116.5,-880.2 116.5,-880.2 0,0 107.1,-4.7 116.4,46.6 9.3,51.2 -74.5,214.2 0,270.1" /><path
         id="path126"
         style="fill:#9c9c9b;fill-opacity:1;fill-rule:nonzero;stroke:none"
         d="m 13380.5,6847.6 242.2,-111.8 23.2,-288.7 -265.4,102.4 v 298.1" /><path
         id="path128"
         style="fill:#9c9c9b;fill-opacity:1;fill-rule:nonzero;stroke:none"
         d="m 14339.9,4468.8 c 21.1,-91.1 6,-172.4 -33.8,-181.6 -39.7,-9.2 -89.1,57.2 -110.2,148.2 -21.1,91.1 -6,172.4 33.8,181.6 39.8,9.2 89.1,-57.1 110.2,-148.2" /><path
         id="path130"
         style="fill:#a15234;fill-opacity:1;fill-rule:nonzero;stroke:none"
         d="m 12911.7,14479.5 c 0,0 176.4,-285.4 212.3,-327.7 35.8,-42.3 185.8,-122.2 185.8,-122.2 l 167.3,335.2 c 0,0 -418.9,517.2 -503.3,436.9 -7.9,-7.6 -62.1,-322.2 -62.1,-322.2" /><path
         id="path132"
         style="fill:#2f1d16;fill-opacity:1;fill-rule:nonzero;stroke:none"
         d="m 13638.8,15414.6 c 80.4,159.3 -42.4,252 -95.2,286.4 -52.8,34.4 -61.1,83.2 -236.3,140.2 -175.1,57.1 -238.8,-13.3 -298,-9.2 -59.2,4.1 -192.5,-35.2 -300.2,-65.8 -107.7,-30.7 -147.8,-118.2 -183.4,-144.1 0,0 -242.9,-43.4 -224.7,-388.8 15.6,-296 243.5,-735.4 243.5,-735.4 0,0 364.5,239.8 429.3,303.8 111,-12 287.4,-29 293.3,-17.3 8.7,17.1 311.2,554.1 311.2,554.1 l 54.4,60.4 c 0,0 5.5,4 13.4,11.6 l -7.3,4.1" /><path
         id="path134"
         style="fill:#c37140;fill-opacity:1;fill-rule:nonzero;stroke:none"
         d="m 13638.8,15414.6 c 0,0 72,-214.3 80.6,-263.7 8.6,-49.4 -26.2,-197 -24.4,-220.7 1.8,-23.7 125.4,-274.2 121.1,-289.1 -4.3,-14.8 -102.7,-25.3 -106.6,-33.5 -3.9,-8.2 -18.1,-98.2 -16.1,-107.1 1.9,-9 -1.8,-27.7 -1.8,-27.7 0,0 5.1,-38.2 -3.7,-56.6 -8.8,-18.4 -13.4,-50.9 -16.7,-63.3 -3.4,-12.4 -9.7,-149.7 -27.8,-168.7 -18,-19.1 -372.5,5.2 -417.1,19.9 -44.5,14.6 -222.4,245.4 -242.8,295.5 -20.3,50.2 -14.1,198 -14.1,198 0,0 -119.3,29.6 -160,129.9 -40.7,100.3 -16.1,272.1 84.6,292.5 100.7,20.5 139.1,-113.4 148.6,-149.3 9.5,-36 25,-82.5 29.8,-86.1 4.8,-3.7 30.3,81.4 54,135.4 23.7,54.1 15.8,215.3 34.8,274.7 19,59.4 102.1,119.7 139.8,130.7 37.8,11.1 337.8,-10.8 337.8,-10.8" /><path
         id="path136"
         style="fill:#2f1d16;fill-opacity:1;fill-rule:nonzero;stroke:none"
         d="m 13072.4,14884.6 c 0,0 33.9,4.1 37.2,22.5 3.3,18.3 37.8,155.5 37.8,155.5 0,0 47.4,38.1 40.1,105.5 -7.2,67.4 -13.2,79.7 21.9,109.8 35.1,30.2 25.2,116.3 58.4,131.9 33.2,15.6 231.1,16.9 231.1,16.9 0,0 102.5,110.2 -44.2,121.3 -146.7,11.1 -300.4,-5.2 -374.4,-65.4 -74,-60.2 -100.5,16.6 -80.8,-112.1 19.7,-128.8 72.9,-485.9 72.9,-485.9" /><path
         id="path138"
         style="fill:#2f1d16;fill-opacity:1;fill-rule:nonzero;stroke:none"
         d="m 12409,15552.1 c 0,0 44,58.1 70.8,78.2 26.8,20 54,72.7 82.8,88.6 28.7,15.9 67.7,31.7 73.9,35.7 6.1,4 64,60.4 119.2,67.8 55.1,7.4 89.9,11 104.2,12.9 14.3,1.9 92.3,43.6 153.5,44.9 61.2,1.2 63.2,-2.9 91.8,-1.2 28.6,1.6 110.3,14.8 222.1,-17.3 111.7,-32 216.3,-160.7 216.3,-160.7 l -357.6,-184.1 -468.6,-120.3 -308.4,155.5" /><path
         id="path140"
         style="fill:#292827;fill-opacity:1;fill-rule:nonzero;stroke:none"
         d="m 7954.63,7485.7 c -46.5,-37.3 -155.89,-114.9 -152.43,-194.8 3.46,-80 105.8,-276.4 152.43,-299.3 46.64,-22.9 843.05,-111.4 889.62,-102.1 46.57,9.3 624.08,400.5 712.57,563.6 88.49,163 -79.18,293.4 -167.66,316.7 -88.5,23.2 -444.24,-93.2 -697.17,-86.2 -252.93,7 -360.05,188.6 -462.51,163 -102.46,-25.6 -209.58,1.8 -218.89,-35.2 -9.32,-37 -55.96,-325.7 -55.96,-325.7" /><path
         id="path142"
         style="fill:#56595a;fill-opacity:1;fill-rule:nonzero;stroke:none"
         d="m 4354.59,8867.3 c -4.66,-17 -79.17,-110.2 -79.17,-110.2 v -612 c 0,0 46.57,-86.6 186.28,-91.2 139.73,-4.7 195.61,91.2 195.61,91.2 l 1415.83,-296 c 0,0 93.15,-563.8 391.22,-882.8 298.06,-319 913.71,-551.8 913.71,-551.8 l -56.58,521.6 c 0,0 -358.8,125.7 -577.7,391.2 -218.89,265.5 -93.14,894.2 -93.14,894.2 0,0 -167.67,1104 -181.64,1122.5 -13.97,18.6 -251.5,0 -251.5,0 0,0 -79.17,-903.6 -93.14,-908.2 -13.97,-4.7 -1434.45,293.4 -1434.45,293.4 l -335.33,138.1" /><path
         id="path144"
         style="fill:#252323;fill-opacity:1;fill-rule:nonzero;stroke:none"
         d="m 4373.22,8743.1 -97.8,14 v -102.5 l 1844.29,-332 4.66,113.2 -1434.45,293.4 -316.7,13.9" /><path
         id="path146"
         style="fill:#252323;fill-opacity:1;fill-rule:nonzero;stroke:none"
         d="m 6951.04,6111.7 c -9.31,9.4 -41.46,36.9 -41.46,36.9 l 339.08,505.4 196.06,-144 -341.83,-528.8 -151.85,130.5" /><path
         id="path148"
         style="fill:#252323;fill-opacity:1;fill-rule:nonzero;stroke:none"
         d="m 8087.43,5643.7 -68.96,21.8 222.65,287.9 421.49,23.3 -365.02,-491.6 -210.16,158.6" /><path
         id="path150"
         style="fill:#9a9a9a;fill-opacity:1;fill-rule:nonzero;stroke:none"
         d="m 4275.42,9041.2 v -284.1 c 0,0 51.23,-55.9 181.63,-65.2 130.41,-9.3 232.87,37.3 232.87,37.3 l 26.02,312 h -440.52" /><path
         id="path152"
         style="fill:#9a9a9a;fill-opacity:1;fill-rule:nonzero;stroke:none"
         d="m 7397.25,7325.3 1635.62,-407.8 27.94,-263.5 -258.48,-302.4 c 0,0 -1352.95,154.9 -1364.6,258.5 -11.64,103.5 -116.24,492.5 -116.24,492.5 l 75.76,222.7" /><path
         id="path154"
         style="fill:#bebdbb;fill-opacity:1;fill-rule:nonzero;stroke:none"
         d="m 8691.99,6519.3 340.88,398.2 27.94,-263.5 c 0,0 -96.75,-113.2 -102.65,-120.1 -5.89,-6.9 -110.42,-53.1 -131.38,-56.5 -20.95,-3.5 -134.79,41.9 -134.79,41.9" /><path
         id="path156"
         style="fill:#7c7d7f;fill-opacity:1;fill-rule:nonzero;stroke:none"
         d="m 7859.22,6872.1 c 27.95,-10.5 948.07,-218.1 948.07,-218.1 l 19.49,-176.6 -461.07,-94.4 -433.13,192.2 -73.36,296.9" /><path
         id="path158"
         style="fill:#7d8083;fill-opacity:1;fill-rule:nonzero;stroke:none"
         d="m 6650.65,8221.5 c 0,0 -106.12,698.8 -156.54,993.8 -24.74,-233.7 -127.01,-1397.8 -58.58,-1683.1 71.57,-298.4 392.22,-603.1 916.56,-878.2 l -30.6,282.1 c 0,0 -358.8,125.7 -577.7,391.2 -218.89,265.5 -93.14,894.2 -93.14,894.2" /><path
         id="path160"
         style="fill:#454547;fill-opacity:1;fill-rule:nonzero;stroke:none"
         d="m 3549.28,8415.2 c 13.97,0 419.16,139.8 419.16,139.8 l 198.58,-55 24.97,-177.9 -449.31,-177 -257.11,97.8 63.71,172.3" /><path
         id="path162"
         style="fill:#56595a;fill-opacity:1;fill-rule:nonzero;stroke:none"
         d="m 5007.02,6948.2 367.52,367.9 498.34,425.7 c 0,0 -144.38,424.7 -163.01,403.3 -18.63,-21.4 -572.85,-440.1 -572.85,-440.1 l -535.18,225.9 c 0,0 -242.6,-240.3 -209.99,-277.6 32.6,-37.2 395.87,-324.4 419.16,-362.4 23.28,-38.1 32.6,-299.3 32.6,-299.3 l 163.41,-43.4" /><path
         id="path164"
         style="fill:#7d8083;fill-opacity:1;fill-rule:nonzero;stroke:none"
         d="m 3647.08,8275.5 519.94,224.5 24.97,-177.9 -449.31,-177 -95.6,130.4" /><path
         id="path166"
         style="fill:#56595a;fill-opacity:1;fill-rule:nonzero;stroke:none"
         d="m 3367.64,9311.8 -256.15,-989.7 c 0,0 -1136.39,-526.3 -1145.7,-544.9 -9.32,-18.7 -107.12,-391.2 -107.12,-391.2 L 2156,7316.1 3335.04,7889 4736.89,7274.2 4182.68,6710.7 v -298.1 l 265.46,-102.5 558.88,638.1 -405.18,982.7 -1010.64,409.8 251.49,971.1 -391.17,168.4 -83.88,-168.4" /><path
         id="path168"
         style="fill:#7d8083;fill-opacity:1;fill-rule:nonzero;stroke:none"
         d="m 3384.69,8387.3 206.51,-46.6 251.49,971.1 -190.61,82 -267.39,-1006.5" /><path
         id="path170"
         style="fill:#7d8083;fill-opacity:1;fill-rule:nonzero;stroke:none"
         d="M 3369.13,8093.9 2287.14,7646.8 2156,7316.1 3335.04,7889 l 34.09,204.9" /><path
         id="path172"
         style="fill:#393b3b;fill-opacity:1;fill-rule:nonzero;stroke:none"
         d="m 2864.65,9873 c 0,0 -116.43,-116.5 -144.38,-181.7 -27.94,-65.2 46.58,-707.9 260.81,-754.4 214.24,-46.6 931.47,209.5 931.47,209.5 l -218.89,109.5 c 0,0 -544.91,-193.3 -656.69,-165.4 -111.77,28 -111.77,428.5 -116.43,461.1 -4.66,32.6 -55.89,321.4 -55.89,321.4" /><path
         id="path174"
         style="fill:#707474;fill-opacity:1;fill-rule:nonzero;stroke:none"
         d="m 3404.22,9421.3 289.44,-165.4 218.89,-109.5 188.12,-125.2 -101.96,322.8 -614.02,315.9 19.53,-238.6" /><path
         id="path176"
         style="fill:#707474;fill-opacity:1;fill-rule:nonzero;stroke:none"
         d="m 4100.67,9021.2 c 0,0 333.09,-146.2 412.26,-153.9 79.18,-7.7 763.81,304.3 763.81,304.3 0,0 -484.36,251.5 -498.34,260.8 -13.97,9.3 -670.65,310.1 -777.77,278.5 -107.12,-31.6 -161.85,-162 -161.85,-162 l 261.89,-527.7" /><path
         id="path178"
         style="fill:#636567;fill-opacity:1;fill-rule:nonzero;stroke:none"
         d="m 3141.65,9642.4 c -2.22,-9.3 0,-202.6 0,-202.6 0,0 71.07,-78.4 121.75,-90.4 50.68,-12 105.73,0 105.73,0 0,0 84.67,169.6 82.34,183.6 -2.32,14 -95.47,177.9 -95.47,177.9 0,0 -111.78,10.2 -125.75,0 -13.97,-10.2 -88.6,-68.5 -88.6,-68.5" /><path
         id="path180"
         style="fill:#100f0d;fill-opacity:1;fill-rule:nonzero;stroke:none"
         d="m 5735.48,8789.7 c 0,0 209.58,146.7 314.37,272.5 104.79,125.7 279.06,436.3 219.87,452.2 -59.19,15.8 -632.04,21.8 -653,15.3 -20.96,-6.5 -48.9,-78.4 -27.94,-185.7 20.96,-107.2 146.7,-554.3 146.7,-554.3" /><path
         id="path182"
         style="fill:#454547;fill-opacity:1;fill-rule:nonzero;stroke:none"
         d="m 3998.71,9344 c 0,0 416.42,-214.3 518.88,-223.6 102.46,-9.3 537.14,166.7 509.43,181.1 -27.7,14.5 -719.01,417.5 -737.64,413.9 -18.62,-3.5 -307.38,-73.4 -326.01,-82.7 -18.62,-9.3 35.34,-288.7 35.34,-288.7" /><path
         id="path184"
         style="fill:#c37140;fill-opacity:1;fill-rule:nonzero;stroke:none"
         d="m 7251.34,10714.4 c 0,0 447.2,-174.8 531.04,-319.7 83.83,-144.9 104.79,-447.2 104.79,-447.2 0,0 125.75,-564 160.68,-1157.8 34.92,-593.8 181.63,-943.1 181.63,-943.1 0,0 -41.92,-88.5 -48.9,-163 -6.99,-74.5 34.93,-270.1 -13.97,-305.1 -48.9,-34.9 -188.63,-104.8 -223.55,-83.8 -34.93,21 -62.88,14 -76.85,62.9 -13.97,48.9 -230.54,1019.9 -370.26,1236.5 -139.72,216.6 -343.49,654.4 -430.22,886.1 -86.74,231.7 -149.62,734.7 -142.63,776.6 6.99,41.9 328.24,457.6 328.24,457.6" /><path
         id="path186"
         style="fill:#252323;fill-opacity:1;fill-rule:nonzero;stroke:none"
         d="m 3485.57,9397.9 c 0,-64.3 -52.13,-116.4 -116.44,-116.4 -64.3,0 -116.43,52.1 -116.43,116.4 0,64.3 52.13,116.5 116.43,116.5 64.31,0 116.44,-52.2 116.44,-116.5" /><path
         id="path188"
         style="fill:#a15234;fill-opacity:1;fill-rule:nonzero;stroke:none"
         d="m 7802.2,7622.8 c -8.12,705.3 -431.99,1418.4 -487.88,1586.1 -55.89,167.6 0,593.8 0,593.8 l -140.26,-87.3 c 0,0 -77.56,122.3 -220.12,258.2 25.69,-167.3 65.31,-369.3 111.78,-493.4 86.74,-231.7 290.51,-669.5 430.23,-886.1 96.02,-148.8 228.34,-654 306.25,-971.3 v 0" /><path
         id="path190"
         style="fill:#9a9a9a;fill-opacity:1;fill-rule:nonzero;stroke:none"
         d="m 6217.51,10946.1 c 0,0 69.87,195.6 153.7,218.8 83.83,23.3 889.55,-116.4 987.35,-251.5 97.81,-135 -41.91,-1179.7 -93.14,-1253.5 -51.24,-73.8 -372.59,-22.6 -372.59,-22.6 0,0 -298.07,9.4 -433.13,405.2 -135.07,395.9 -149.73,578.4 -181.99,631.5 -32.25,53.2 -60.2,272.1 -60.2,272.1" /><path
         id="path192"
         style="fill:#bebdbb;fill-opacity:1;fill-rule:nonzero;stroke:none"
         d="m 7358.56,10913.4 c -97.8,135.1 -903.52,274.8 -987.35,251.5 -38.63,-10.7 -74.26,-58 -101.49,-105.9 172.92,-1 865.14,-129.5 955.34,-254.1 85.47,-118 -10.46,-930.7 -70.2,-1183 51.35,3.9 94.39,14.7 110.56,38 51.23,73.8 190.94,1118.5 93.14,1253.5" /><path
         id="path194"
         style="fill:#c37140;fill-opacity:1;fill-rule:nonzero;stroke:none"
         d="m 5763.43,9281.5 579.84,-72.6 c 0,0 -73.95,-621.8 92.26,-950.1 166.22,-328.4 479.41,-698.6 630.19,-1103.8 150.79,-405.2 290.51,-803.4 290.51,-803.4 0,0 167.67,45.1 167.67,158.8 0,113.7 0,246.4 0,281.3 0,35 118.76,139.7 118.76,139.7 0,0 -251.5,718.1 -279.44,1162.5 -27.95,444.3 -167.66,989.2 -167.66,989.2 0,0 -11.65,576.1 -232.87,864.4 -221.23,288.3 -787.42,454.4 -828.87,469.2 -41.45,14.8 -442.58,-187.9 -479.84,-225.1 -37.26,-37.3 -125.75,-428.5 -125.75,-428.5 v -409.9 l 235.2,-71.7" /><path
         id="path196"
         style="fill:#636567;fill-opacity:1;fill-rule:nonzero;stroke:none"
         d="m 2894.93,13626.8 c 0,0 -516.97,-104.8 -628.74,-174.7 -111.78,-69.8 -125.75,-160.7 -97.81,-516.9 27.95,-356.3 743,-2590.5 776.69,-2772.8 33.68,-182.3 149.89,-391.9 196.58,-391.9 46.68,0 857.06,-426.5 857.06,-426.5 l 168.31,685 -797.89,2556.9 -474.2,1040.9" /><path
         id="path198"
         style="fill:#454547;fill-opacity:1;fill-rule:nonzero;stroke:none"
         d="m 3369.13,12585.9 -320.38,703.2 -461.21,-975.7 768.46,-2602.5 -22.26,-25.8 C 3587.16,9560.6 3998.71,9344 3998.71,9344 l 168.31,685 -797.89,2556.9" /><path
         id="path200"
         style="fill:#c37140;fill-opacity:1;fill-rule:nonzero;stroke:none"
         d="m 4215.27,13682.7 111.78,-93.2 c 0,0 167.67,-65.2 228.21,-163 60.55,-97.8 84,-530.9 84,-530.9 l -517.13,158.3 93.14,628.8" /><path
         id="path202"
         style="fill:#292827;fill-opacity:1;fill-rule:nonzero;stroke:none"
         d="m 3474.76,10674 c 0,0 28.04,-406 -23.24,-668.7 -51.28,-262.7 182,-456.4 461.03,-525.1 279.03,-68.7 724.64,-220.8 998.59,-285.3 273.94,-64.5 824.34,-405.2 824.34,-405.2 0,0 104.79,277.2 90.82,690.5 -13.97,413.3 48.91,727.7 335.33,888.3 l 265.46,698.6 c 0,0 -600.79,42 -705.58,69.9 -104.79,27.9 -265.47,69.9 -384.22,62.9 -118.77,-7 -320.95,-36.8 -320.95,-36.8 0,0 -482.44,101.2 -726.96,37.6 -244.5,-63.7 -546.7,-196.4 -546.7,-196.4 L 3474.76,10674" /><path
         id="path204"
         style="fill:#9a9a9a;fill-opacity:1;fill-rule:nonzero;stroke:none"
         d="m 6770.31,11117.1 c -191,37.4 -362.79,57.9 -399.1,47.8 -83.83,-23.2 -153.7,-218.8 -153.7,-218.8 0,0 27.95,-218.9 60.2,-272.1 22.77,-37.5 36.84,-139.6 90.62,-335.6 h 401.98 v 778.7" /><path
         id="path206"
         style="fill:#bebdbb;fill-opacity:1;fill-rule:nonzero;stroke:none"
         d="m 6770.31,11117.1 c -191,37.4 -362.79,57.9 -399.1,47.8 -38.63,-10.7 -74.26,-58 -101.49,-105.9 85.32,-0.5 297.1,-32 500.59,-78.8 v 136.9" /><path
         id="path208"
         style="fill:#e9eef1;fill-opacity:1;fill-rule:nonzero;stroke:none"
         d="m 3394.03,13759.5 c -45.02,14 -366.37,-7 -366.37,-7 l -132.73,-125.7 -258.48,-1571.9 c 0,0 423.81,-496 605.44,-831.3 181.64,-335.3 232.87,-549.6 232.87,-549.6 0,0 693.94,214.3 992.01,321.4 298.07,107.1 549.57,167.7 549.57,167.7 0,0 -284.1,1043.2 -284.1,1117.7 0,74.5 41.92,218.9 -9.32,484.4 -51.23,265.4 -507.65,917.5 -507.65,917.5 l -198.62,158.3 -622.62,-81.5" /><path
         id="path210"
         style="fill:#c37140;fill-opacity:1;fill-rule:nonzero;stroke:none"
         d="m 3346.65,14361 c 0,0 -76.81,-268.5 -142.01,-389.6 -65.21,-121.1 -176.98,-218.9 -176.98,-218.9 0,0 377.24,-232.8 647.37,-405.2 270.12,-172.3 540.24,-218.9 614.76,-107.1 74.52,111.8 -200.26,517 -204.92,549.6 -4.66,32.6 130.4,395.9 130.4,395.9 l -582.16,628.7 h -270.12 l -16.34,-453.4" /><path
         id="path212"
         style="fill:#c37140;fill-opacity:1;fill-rule:nonzero;stroke:none"
         d="m 3064.48,13617.5 c 0,0 405.62,-381.9 456.85,-759.2 51.23,-377.2 -186.29,-666 -419.15,-735.8 -232.87,-69.9 -405.19,-32.6 -405.19,-32.6 0,0 -83.83,-228.2 -265.47,-419.2 -181.63,-190.9 -302.73,-271.8 -302.73,-271.8 0,0 232.87,-426.8 386.56,-659.7 153.69,-232.8 493.68,-586.8 493.68,-586.8 l -246.84,-204.9 c 0,0 -852.29,600.8 -1038.58,894.2 -186.3,293.4 -176.98,479.7 -149.03,610.1 27.94,130.4 149.03,721.9 223.55,912.8 74.51,191 223.54,344.7 223.54,344.7 0,0 65.21,316.7 251.5,498.3 186.29,181.7 489.02,270.1 489.02,270.1 l 176.98,191 125.31,-51.2" /><path
         id="path214"
         style="fill:#a15234;fill-opacity:1;fill-rule:nonzero;stroke:none"
         d="m 2771.5,12434.5 c -13.97,-4.7 -74.51,-344.6 -74.51,-344.6 0,0 172.32,-37.3 405.18,32.6 30.48,9.1 61.01,22.1 90.98,38.4 -227.2,91.3 -410.66,277.3 -421.65,273.6" /><path
         id="path216"
         style="fill:#c37140;fill-opacity:1;fill-rule:nonzero;stroke:none"
         d="m 2762.19,9947.5 c 0,0 30.28,-81.5 34.93,-158.4 4.66,-76.8 69.86,-372.5 90.82,-405.1 20.96,-32.6 88.49,-32.6 137.39,-55.9 48.9,-23.3 244.51,-72.2 244.51,-72.2 0,0 128.08,2.3 97.8,55.9 -30.27,53.5 -90.81,58.2 -139.72,104.8 -48.9,46.5 -30.27,186.3 -6.98,200.2 23.28,14 135.01,-2.3 151.33,-15.1 16.33,-12.8 86.19,-171.2 118.79,-168.8 32.6,2.3 41.92,125.7 11.65,183.9 -30.28,58.2 -67.53,79.2 -102.47,125.8 -34.93,46.5 -30.27,65.2 -95.47,130.4 -65.2,65.2 -295.74,279.4 -295.74,279.4 0,0 -146.71,30.3 -176.98,0 -30.27,-30.3 -69.86,-204.9 -69.86,-204.9" /><path
         id="path218"
         style="fill:#9c9c9b;fill-opacity:1;fill-rule:nonzero;stroke:none"
         d="m 2156,7316.1 131.14,330.7 -321.35,130.4 L 1858.67,7386 2156,7316.1" /><path
         id="path220"
         style="fill:#100f0d;fill-opacity:1;fill-rule:nonzero;stroke:none"
         d="m 5932.27,10592.1 c -31.45,-18.6 -126.93,-76.8 -126.93,-76.8 0,0 -603.12,114.1 -682.29,118.7 -79.18,4.7 -596.14,40 -596.14,40 l 558.88,43.8 23.28,195.6 79.18,-199 638.75,-94.5 105.27,-27.8" /><path
         id="path222"
         style="fill:#ececec;fill-opacity:1;fill-rule:nonzero;stroke:none"
         d="m 8229.48,7846.6 c 0,0 -57.02,159.5 -118.13,430.4 -113.64,-68.1 -274.64,-100.4 -431.56,-187.7 95.08,-333.8 177.95,-702.1 186.42,-731.7 13.97,-48.9 41.92,-41.9 76.84,-62.9 34.93,-21 174.66,48.9 223.56,83.8 48.9,35 6.98,230.6 13.97,305.1 6.98,74.5 48.9,163 48.9,163" /><path
         id="path224"
         style="fill:#292827;fill-opacity:1;fill-rule:nonzero;stroke:none"
         d="m 7459.68,6610.1 c -13.97,-28 -116.24,-116.4 -116.24,-116.4 0,0 -23.48,-97.9 -18.82,-260.9 4.66,-163 116.43,-502.9 200.26,-540.2 83.84,-37.3 204.92,93.1 419.16,97.8 214.24,4.6 419.16,-18.6 801.06,177 381.9,195.6 447.11,391.2 349.3,512.3 -97.8,121.1 -321.35,69.8 -516.96,102.4 -195.61,32.6 -586.82,293.4 -647.37,330.7 -60.54,37.3 -214.24,9.3 -265.47,18.6 -51.23,9.4 -167.66,72.7 -204.92,1.5 -37.26,-71.3 0,-322.8 0,-322.8" /><path
         id="path226"
         style="fill:#7d8083;fill-opacity:1;fill-rule:nonzero;stroke:none"
         d="m 5818.97,7895.2 -458.4,-348.2 -425.35,-424.7 -510.37,-523.4 23.29,-288.8 558.88,638.1 480.59,464.5 385.27,329.1 -53.91,153.4" /><path
         id="path228"
         style="fill:#9a9a9a;fill-opacity:1;fill-rule:nonzero;stroke:none"
         d="m 5805.34,10515.3 c 0,0 62.88,346.9 137.39,430.8 74.52,83.8 479.71,4.6 712.57,-51.3 232.87,-55.9 372.59,-153.7 405.19,-260.8 32.61,-107.1 -97.8,-686.5 -97.8,-686.5 0,0 -437.79,397.8 -1157.35,567.8" /><path
         id="path230"
         style="fill:#bebdbb;fill-opacity:1;fill-rule:nonzero;stroke:none"
         d="m 7060.49,10634 c -32.6,107.1 -172.32,204.9 -405.18,260.8 -232.87,55.9 -638.06,135.1 -712.58,51.3 -3.52,-4 -7,-8.7 -10.46,-13.8 253.66,-46 801.19,-168.2 900.01,-258.3 107.77,-98.1 61.59,-344.8 -3.66,-621.5 87.4,-62.7 134.07,-105 134.07,-105 0,0 130.41,579.4 97.8,686.5" /><path
         id="path232"
         style="fill:#9c9c9b;fill-opacity:1;fill-rule:nonzero;stroke:none"
         d="m 4182.68,6710.7 242.17,-111.8 23.29,-288.8 -265.46,102.5 v 298.1" /><path
         id="path234"
         style="fill:#ececec;fill-opacity:1;fill-rule:nonzero;stroke:none"
         d="m 7000.32,7309.1 c 24.03,-50.8 46.07,-102.1 65.4,-154.1 150.79,-405.2 290.51,-803.4 290.51,-803.4 0,0 167.66,45.1 167.66,158.8 0,113.7 0,246.4 0,281.3 0,35 118.77,139.7 118.77,139.7 0,0 -104.98,280.2 -188.4,638.2 -139.56,-122 -324.85,-177.3 -453.94,-260.5" /><path
         id="path236"
         style="fill:#9c9c9b;fill-opacity:1;fill-rule:nonzero;stroke:none"
         d="m 7112.59,6037.2 c 0,-79.7 -55.55,-144.3 -124.07,-144.3 -68.53,0 -124.08,64.6 -124.08,144.3 0,79.8 55.55,144.4 124.08,144.4 68.52,0 124.07,-64.6 124.07,-144.4" /><path
         id="path238"
         style="fill:#9c9c9b;fill-opacity:1;fill-rule:nonzero;stroke:none"
         d="m 8228.76,5656.1 c 72.22,-59 95.15,-150.4 51.22,-204.2 -43.93,-53.8 -138.09,-49.6 -210.3,9.4 -72.22,59 -95.14,150.4 -51.21,204.2 43.93,53.8 138.08,49.6 210.29,-9.4" /><path
         id="path240"
         style="fill:#a15234;fill-opacity:1;fill-rule:nonzero;stroke:none"
         d="m 3708.19,14333.4 c 0,0 176.38,-285.5 212.26,-327.8 35.88,-42.3 185.81,-122.2 185.81,-122.2 l 167.36,335.2 c 0,0 -418.97,517.3 -503.36,436.9 -7.89,-7.5 -62.07,-322.1 -62.07,-322.1" /><path
         id="path242"
         style="fill:#2f1d16;fill-opacity:1;fill-rule:nonzero;stroke:none"
         d="m 4435.27,15268.4 c 80.44,159.3 -42.4,252 -95.17,286.4 -52.77,34.4 -61.11,83.2 -236.26,140.2 -175.17,57.1 -238.83,-13.3 -298.02,-9.2 -59.2,4.1 -192.56,-35.2 -300.26,-65.8 -107.7,-30.7 -147.81,-118.2 -183.37,-144.1 0,0 -242.85,-43.3 -224.68,-388.8 15.58,-296 243.44,-735.3 243.44,-735.3 0,0 364.55,239.7 429.31,303.7 111.03,-12 287.45,-29 293.39,-17.3 8.68,17.1 311.13,554.1 311.13,554.1 l 54.43,60.5 c 0,0 5.52,3.9 13.39,11.5 l -7.33,4.1" /><path
         id="path244"
         style="fill:#c37140;fill-opacity:1;fill-rule:nonzero;stroke:none"
         d="m 4435.27,15268.4 c 0,0 72.02,-214.3 80.61,-263.7 8.6,-49.4 -26.2,-197 -24.37,-220.7 1.83,-23.7 125.4,-274.2 121.08,-289 -4.33,-14.9 -102.68,-25.4 -106.57,-33.6 -3.9,-8.1 -18.08,-98.1 -16.16,-107.1 1.92,-9 -1.79,-27.7 -1.79,-27.7 0,0 5.14,-38.2 -3.66,-56.6 -8.79,-18.3 -13.42,-50.9 -16.75,-63.3 -3.33,-12.4 -9.68,-149.7 -27.75,-168.7 -18.06,-19 -372.55,5.2 -417.06,19.9 -44.52,14.7 -222.49,245.4 -242.82,295.6 -20.33,50.1 -14.15,197.9 -14.15,197.9 0,0 -119.32,29.6 -159.98,129.9 -40.67,100.3 -16.09,272.1 84.58,292.6 100.67,20.4 139.16,-113.4 148.63,-149.4 9.46,-36 24.98,-82.4 29.79,-86.1 4.82,-3.7 30.33,81.4 54.04,135.4 23.69,54.1 15.79,215.4 34.78,274.7 19,59.4 102.04,119.7 139.8,130.8 37.75,11 337.75,-10.9 337.75,-10.9" /><path
         id="path246"
         style="fill:#2f1d16;fill-opacity:1;fill-rule:nonzero;stroke:none"
         d="m 3868.9,14738.4 c 0,0 33.95,4.2 37.24,22.5 3.31,18.3 37.76,155.5 37.76,155.5 0,0 47.41,38.1 40.15,105.5 -7.27,67.4 -13.22,79.7 21.85,109.9 35.07,30.1 25.2,116.2 58.41,131.8 33.21,15.7 231.13,16.9 231.13,16.9 0,0 102.42,110.2 -44.28,121.3 -146.7,11.1 -300.34,-5.2 -374.34,-65.4 -73.99,-60.2 -100.5,16.6 -80.79,-112.1 19.71,-128.8 72.87,-485.9 72.87,-485.9" /><path
         id="path248"
         style="fill:#2f1d16;fill-opacity:1;fill-rule:nonzero;stroke:none"
         d="m 3205.48,15406 c 0,0 44.07,58 70.84,78.1 26.78,20 53.99,72.7 82.76,88.6 28.77,16 67.73,31.8 73.89,35.8 6.18,3.9 64.03,60.3 119.2,67.7 55.16,7.5 89.89,11.1 104.19,12.9 14.3,1.9 92.35,43.7 153.56,44.9 61.2,1.2 63.19,-2.9 91.76,-1.2 28.58,1.6 110.33,14.8 222.08,-17.3 111.75,-32 216.34,-160.7 216.34,-160.7 l -357.56,-184.1 -468.64,-120.2 -308.42,155.5" /></g></g></svg>