<?xml version="1.0" encoding="UTF-8" standalone="no"?>
<svg
   xmlns:dc="http://purl.org/dc/elements/1.1/"
   xmlns:cc="http://creativecommons.org/ns#"
   xmlns:rdf="http://www.w3.org/1999/02/22-rdf-syntax-ns#"
   xmlns:svg="http://www.w3.org/2000/svg"
   xmlns="http://www.w3.org/2000/svg"
   viewBox="0 0 2666.6667 2666.6667"
   height="2666.6667"
   width="2666.6667"
   xml:space="preserve"
   id="svg2"
   version="1.1"><metadata
     id="metadata8"><rdf:RDF><cc:Work
         rdf:about=""><dc:format>image/svg+xml</dc:format><dc:type
           rdf:resource="http://purl.org/dc/dcmitype/StillImage" /></cc:Work></rdf:RDF></metadata><defs
     id="defs6" /><g
     transform="matrix(1.3333333,0,0,-1.3333333,0,2666.6667)"
     id="g10"><g
       transform="scale(0.1)"
       id="g12"><g
         transform="scale(1.22699)"
         id="g14"><path
           id="path16"
           style="fill:none;fill-opacity:1;fill-rule:nonzero;stroke:none"
           d="M 16300,0 H 0 V 16300 H 16300 V 0" /></g><path
         id="path18"
         style="fill:#c37140;fill-opacity:1;fill-rule:nonzero;stroke:none"
         d="m 8072.86,13080.3 v -1059.6 c 0,0 23.54,-235.5 0,-557.3 -23.55,-321.8 0,-1436.3 0,-1436.3 l -599.73,-141.3 c 0,0 -789.56,926.2 -718.92,1507 70.64,580.8 549.44,1350 604.38,1397.1 54.95,47.1 714.27,290.4 714.27,290.4" /><path
         id="path20"
         style="fill:#6b6c6e;fill-opacity:1;fill-rule:nonzero;stroke:none"
         d="m 5706.37,9907.5 c -220.63,574.8 -764.03,407.9 -764.03,407.9 l -0.07,-0.1 c -266.33,-44.4 -485.65,-305.8 -514.13,-638.9 -18.48,-216.2 47.45,-416.4 165.72,-554.5 0.01,0 0.03,-0.1 0.04,-0.1 201.39,-301.1 575.74,-251.3 575.74,-251.3 0,0 757.36,462.1 536.73,1037" /><path
         id="path22"
         style="fill:#9c9c9b;fill-opacity:1;fill-rule:nonzero;stroke:none"
         d="m 5769.75,9516 c -32.72,-382.8 -317.48,-671.1 -636.01,-643.8 -318.54,27.2 -550.24,359.6 -517.52,742.4 32.73,382.8 317.48,671.1 636.02,643.9 318.54,-27.3 550.24,-359.7 517.51,-742.5" /><path
         id="path24"
         style="fill:#1a1918;fill-opacity:1;fill-rule:nonzero;stroke:none"
         d="m 5514.06,4619.1 c 0,0 -290.41,-188.4 -329.66,-282.6 -39.24,-94.2 -211.92,-808.5 -156.98,-839.9 54.94,-31.4 470.94,15.7 722.12,-54.9 251.16,-70.7 981.13,7.8 1028.22,54.9 47.09,47.1 62.79,266.9 -86.34,392.5 -149.13,125.6 -439.54,235.5 -643.62,400.3 -204.08,164.8 -306.12,227.6 -306.12,227.6 l -227.62,102.1" /><path
         id="path26"
         style="fill:#1a1918;fill-opacity:1;fill-rule:nonzero;stroke:none"
         d="m 7397.84,4674 c 0,0 -196.23,-94.2 -243.32,-180.5 -47.1,-86.4 -180.53,-549.5 -78.49,-659.4 102.03,-109.8 408.14,0 682.86,-47 274.72,-47.1 863.4,-62.4 981.13,-3.8 117.74,58.7 23.55,239.2 -78.49,302 -102.03,62.8 -572.98,257.8 -627.92,317.3 -54.94,59.5 -180.53,357.7 -321.81,373.4 -141.28,15.7 -313.96,-102 -313.96,-102" /><path
         id="path28"
         style="fill:#c37140;fill-opacity:1;fill-rule:nonzero;stroke:none"
         d="M 5859.42,8111.9 5753.33,7272 c 0,0 -317.76,-525.9 -364.85,-1098.8 -47.1,-573 -54.94,-1318.7 -62.8,-1546.3 -7.84,-227.6 -39.24,-408.2 -39.24,-408.2 0,0 102.04,-54.9 180.53,0 78.49,55 117.73,204.1 156.98,235.5 39.24,31.4 117.73,62.8 117.73,62.8 0,0 133.44,682.9 313.97,1208.8 180.53,525.9 172.68,988.9 227.62,1075.3 54.94,86.3 306.11,486.6 368.91,855.5 62.79,368.9 -792.76,455.3 -792.76,455.3" /><path
         id="path30"
         style="fill:#6b6c6e;fill-opacity:1;fill-rule:nonzero;stroke:none"
         d="m 8740.34,9936.2 c -247.89,563.6 -782.67,370.9 -782.67,370.9 l -0.07,-0.1 c -263.91,-57 -470.47,-328.6 -482.96,-662.7 -8.12,-216.9 67.32,-413.7 192.07,-546 0.01,0 0.02,0 0.03,-0.1 215.57,-291.1 587.12,-223.5 587.12,-223.5 0,0 734.37,497.9 486.48,1061.5" /><path
         id="path32"
         style="fill:#9c9c9b;fill-opacity:1;fill-rule:nonzero;stroke:none"
         d="m 8822.39,9548.3 c -14.37,-384 -285,-685.5 -604.48,-673.6 -319.48,12 -566.82,332.9 -552.45,716.9 14.36,383.9 285,685.5 604.47,673.5 319.48,-11.9 566.82,-332.9 552.46,-716.8" /><path
         id="path34"
         style="fill:#d4d4d2;fill-opacity:1;fill-rule:nonzero;stroke:none"
         d="m 8456.91,9539.1 c -29.67,-102 -122.06,-164.8 -206.34,-140.3 -84.29,24.5 -128.56,127.1 -98.89,229.1 29.67,101.9 122.06,164.7 206.34,140.2 84.28,-24.5 128.56,-127.1 98.89,-229" /><path
         id="path36"
         style="fill:#c37140;fill-opacity:1;fill-rule:nonzero;stroke:none"
         d="m 6997.53,7900 c 0,0 251.18,-510.2 259.02,-651.5 7.85,-141.3 -117.73,-659.3 -78.49,-1036.1 39.25,-376.7 117.74,-847.7 117.74,-1200.9 0,-353.2 -39.25,-494.5 -39.25,-494.5 0,0 47.1,-141.3 156.99,-109.9 109.88,31.4 345.35,219.8 345.35,219.8 0,0 235.48,1114.6 219.78,1609.1 -15.7,494.4 -22.05,706.4 0.75,839.8 22.79,133.4 0,949.7 0,949.7 L 6997.53,7900" /><path
         id="path38"
         style="fill:#1a1918;fill-opacity:1;fill-rule:nonzero;stroke:none"
         d="m 5992.86,11200.4 c 0,0 -300.35,-355.5 -424.89,-615.3 -124.55,-259.8 -38.21,-2135.7 -38.21,-2339.8 0,-204.1 7.85,-392.4 7.85,-392.4 0,0 102.04,54.9 565.13,-133.5 463.09,-188.3 647,-196.2 647,-196.2 l 106.51,188.4 c 0,0 307.58,-62.8 616.88,-23.6 309.31,39.3 741.01,251.2 741.01,251.2 0,0 -120.35,737.8 -130.82,1161.7 -10.46,423.8 -120.35,1381.4 -167.45,1459.9 -47.09,78.5 -262.94,372.8 -262.94,372.8 0,0 -765.28,474.9 -898.72,459.2 -133.43,-15.7 -761.35,-192.4 -761.35,-192.4" /><path
         id="path40"
         style="fill:#e9eef1;fill-opacity:1;fill-rule:nonzero;stroke:none"
         d="m 6522.67,14493.2 c -15.7,7.8 -160.91,43.1 -160.91,43.1 l -180.53,-86.3 c 0,0 -306.11,-2080 -306.11,-2091.8 0,-11.8 -11.78,-388.5 35.32,-714.2 47.09,-325.8 15.7,-490.6 15.7,-490.6 0,0 219.77,78.5 780.98,-113.8 561.21,-192.3 945.81,-106 945.81,-106 0,0 47.09,804.5 125.59,1142.1 78.49,337.5 117.73,604.3 117.73,604.3 0,0 141.28,153.1 176.61,400.3 35.32,247.3 -11.78,482.8 -23.55,518.1 -11.78,35.3 -117.74,290.4 -196.23,439.5 -78.49,149.2 -121.66,235.3 -121.66,235.3 l -105.96,70.8 -1102.79,149.2" /><path
         id="path42"
         style="fill:#c37140;fill-opacity:1;fill-rule:nonzero;stroke:none"
         d="m 6746.37,15336.9 -54.95,-490.5 -329.66,-310.1 c 0,0 204.07,-156.9 545.51,-486.6 341.44,-329.7 443.47,-357.1 624,-329.7 180.53,27.5 105.96,612.3 94.19,624 -11.77,11.8 -196.23,204.1 -196.23,204.1 0,0 -117.73,498.4 -164.83,557.3 -47.09,58.9 -518.03,231.5 -518.03,231.5" /><path
         id="path44"
         style="fill:#c37140;fill-opacity:1;fill-rule:nonzero;stroke:none"
         d="m 6181.23,14450 c 0,0 282.57,-184.5 357.13,-573 74.57,-388.5 11.78,-659.3 -117.73,-851.6 -129.51,-192.3 -239.4,-235.5 -239.4,-235.5 0,0 -61.52,-200.1 -184.45,-384.6 -122.93,-184.5 -211.93,-306.1 -211.93,-306.1 0,0 0,-424 -121.66,-898.8 -121.66,-474.8 -121.66,-1169.4 -121.66,-1169.4 0,0 -337.51,-70.7 -329.65,-35.3 7.84,35.3 -94.19,996.8 -78.5,1295.1 15.7,298.2 43.17,467 47.1,482.7 3.92,15.7 15.7,239.4 66.72,376.7 51.01,137.4 90.26,627.9 90.26,643.6 0,15.7 -19.62,263 0,431.7 19.62,168.8 74.57,306.2 74.57,306.2 0,0 -11.78,321.8 149.13,510.2 160.9,188.3 289.87,215.8 289.87,215.8 l 330.2,192.3" /><path
         id="path46"
         style="fill:#a45634;fill-opacity:1;fill-rule:nonzero;stroke:none"
         d="m 5490.52,13516 c 0,0 105.96,-282.6 321.81,-372.9 0,0 -333.59,15.7 -321.81,372.9" /><path
         id="path48"
         style="fill:#a45634;fill-opacity:1;fill-rule:nonzero;stroke:none"
         d="m 6181.23,12789.9 c 0,0 90.27,215.9 102.04,227.6 11.77,11.8 147.31,88.1 212.98,148.1 0,0 -122.71,-285.4 -315.02,-375.7" /><path
         id="path50"
         style="fill:#c37140;fill-opacity:1;fill-rule:nonzero;stroke:none"
         d="m 5035.54,9779.7 c 0,0 -133.7,-158.1 -145.48,-214.4 -11.77,-56.3 111.88,-235 109.71,-223.4 -2.17,11.6 176.8,162.6 176.8,162.6 l -141.03,275.2" /><path
         id="path52"
         style="fill:#100f0d;fill-opacity:1;fill-rule:nonzero;stroke:none"
         d="m 7574.83,10015.8 -247.64,-169.3 c 0,0 62.8,-710.7 -102.03,-1089.2 -164.83,-378.6 -368.91,-1045.7 -368.91,-1045.7 l 157.88,-23 c 0,0 66.21,501.8 201.41,705.8 135.2,204.1 260.79,886.8 229.39,1385.3 l 129.9,236.1" /><path
         id="path54"
         style="fill:#ececec;fill-opacity:1;fill-rule:nonzero;stroke:none"
         d="m 5332.38,4892.3 c -2.67,-114.7 -4.68,-207.1 -6.7,-265.4 -7.84,-227.6 -39.24,-408.2 -39.24,-408.2 0,0 102.04,-54.9 180.53,0 78.49,55 117.73,204.1 156.98,235.5 39.24,31.4 117.73,62.8 117.73,62.8 0,0 30.1,154 81.03,372 -165.14,-5.4 -393.86,0.4 -490.33,3.3" /><path
         id="path56"
         style="fill:#ececec;fill-opacity:1;fill-rule:nonzero;stroke:none"
         d="m 7295.78,5005.5 c -0.45,-348.8 -39.23,-488.5 -39.23,-488.5 0,0 47.1,-141.3 156.99,-109.9 109.88,31.4 345.36,219.8 345.36,219.8 0,0 34.81,164.8 76.77,395.8 -169.65,-15.2 -374.92,-18.2 -539.89,-17.2" /><path
         id="path58"
         style="fill:#a45634;fill-opacity:1;fill-rule:nonzero;stroke:none"
         d="m 6825.83,15054.4 c 0,0 162.72,-255.6 290.83,-334.3 128.1,-78.7 262.1,-114 262.1,-114 l 36.2,-332.9 48.43,258.6 3.83,476.9 -641.39,45.7" /><path
         id="path60"
         style="fill:#6b6c6e;fill-opacity:1;fill-rule:nonzero;stroke:none"
         d="m 6266.71,9797.3 c -220.63,574.8 -764.02,408 -764.02,408 l -0.07,-0.1 c -266.34,-44.4 -485.65,-305.8 -514.12,-638.9 -18.49,-216.3 47.44,-416.4 165.71,-554.6 0.01,0 0.03,0 0.04,0 201.39,-301.1 575.74,-251.3 575.74,-251.3 0,0 757.36,462.1 536.72,1036.9" /><path
         id="path62"
         style="fill:#9c9c9b;fill-opacity:1;fill-rule:nonzero;stroke:none"
         d="m 6330.1,9405.9 c -32.72,-382.8 -317.48,-671.1 -636.02,-643.9 -318.53,27.3 -550.23,359.7 -517.51,742.5 32.73,382.8 317.48,671.1 636.02,643.9 318.54,-27.3 550.24,-359.7 517.51,-742.5" /><path
         id="path64"
         style="fill:#d4d4d2;fill-opacity:1;fill-rule:nonzero;stroke:none"
         d="m 5964.6,9414.2 c -34.52,-100.5 -129.8,-158.8 -212.81,-130.2 -83.02,28.5 -122.33,133.1 -87.82,233.5 34.52,100.4 129.8,158.7 212.82,130.2 83.01,-28.5 122.33,-133.1 87.81,-233.5" /><g
         transform="scale(1.01419)"
         id="g66"><path
           id="path68"
           style="fill:#2f1d16;fill-opacity:1;fill-rule:nonzero;stroke:none"
           d="m 7677.7,16000.8 c -10.51,27.9 11.96,73.7 -28.41,120.3 -40.36,46.5 -92.98,63.2 -92.98,63.2 0,0 -40.96,51 -96.58,63.5 -55.61,12.4 -105.77,10.8 -105.77,10.8 0,0 -40.98,26.7 -113.51,34.1 -72.53,7.3 -139.72,-23.7 -168.69,-25 -28.96,-1.3 -86.52,2.1 -120.21,-2 -33.68,-4.1 -100.52,-29 -111.57,-36 -11.05,-6.9 -67.7,1.6 -134.48,-20.7 -66.78,-22.3 -114.29,-98.3 -114.29,-98.3 0,0 -46.95,-23.1 -64.06,-29.7 -0.18,0 -0.39,-0.2 -0.57,-0.3 -1.03,-0.5 -3.49,-1.8 -7.13,-4.1 -11.87,-8.4 -29.64,-26.1 -48.56,-46.1 -37.43,-47.1 -82.97,-134.2 -101.4,-289.6 -33.64,-283.6 60.57,-658.3 252.57,-885.8 l 122.86,399.7 928.76,480.7 c 0,0 15.21,43.5 10.63,68.8 -4.59,25.3 21.03,64.2 22.76,112.6 1.71,48.3 -18.87,55.9 -29.37,83.9" /></g><path
         id="path70"
         style="fill:#c37140;fill-opacity:1;fill-rule:nonzero;stroke:none"
         d="m 7729.32,16046.6 c 0,0 43.81,-63.4 53.22,-87.9 9.41,-24.4 6.41,-241.6 7.18,-296.6 0.76,-55 -17.15,-128.7 -18.49,-155.2 -1.34,-26.5 -6.03,-189.5 -16.33,-252.9 -10.31,-63.3 -93.61,-307.5 -119.92,-371.8 -26.32,-64.3 -64.33,-149.3 -97.07,-165.4 -32.75,-16.1 -172.9,-16.1 -294.89,27.4 -121.99,43.4 -356.1,220.2 -417.19,310.2 -61.09,90 -43.12,270.1 -43.12,270.1 0,0 -52.03,-11.6 -102.43,44.2 -50.41,55.8 -129.53,175.1 -105.4,301.6 24.14,126.5 119.14,75.6 166.1,21.8 46.94,-53.9 44.78,-131.8 55.31,-134.1 10.53,-2.3 21.33,0.7 26.72,2.2 5.4,1.5 36.79,131.2 39.91,157.6 3.11,26.5 5.85,186 9.66,191.1 3.81,5.2 143.69,157.8 186.97,171.5 43.27,13.8 669.77,-33.8 669.77,-33.8" /><path
         id="path72"
         style="fill:#2f1d16;fill-opacity:1;fill-rule:nonzero;stroke:none"
         d="m 6823.01,15560.2 c 0,0 36.8,90.3 55.16,140.1 18.37,49.8 8.54,118.2 23,128.1 14.46,10 42.4,39.2 41.6,77.8 -0.79,38.6 -0.79,38.6 -0.79,38.6 0,0 0.46,33.8 53.79,49.2 53.32,15.3 80.09,76.9 80.09,76.9 0,0 132.04,-9.3 182.83,-10.8 50.78,-1.4 159.86,-7.9 219.69,-13 59.82,-5.1 237.76,-20.2 243.82,-22.1 6.05,-1.9 60.34,-66.3 60.34,-66.3 0,0 7.09,111.6 -6.55,115.5 -13.65,3.9 1.19,46.2 -188.77,66.7 -189.95,20.5 -303.44,82.7 -462.43,27.4 -158.98,-55.4 -180.12,-21.7 -242.96,-93.6 -62.83,-71.8 -127.41,-199 -115.13,-252.2 12.27,-53.1 56.31,-262.3 56.31,-262.3" /><path
         id="path74"
         style="fill:#6b6c6e;fill-opacity:1;fill-rule:nonzero;stroke:none"
         d="m 14619.4,5717.2 c -185.9,501.9 -659.9,362.4 -659.9,362.4 h -0.1 c -232,-35.9 -425.3,-260.8 -453.5,-550.1 -18.2,-187.8 37,-362.4 138.4,-483.7 0,0 0,0 0,-0.1 172,-263.7 497.9,-224.3 497.9,-224.3 0,0 663,393.9 477.2,895.8" /><path
         id="path76"
         style="fill:#9c9c9b;fill-opacity:1;fill-rule:nonzero;stroke:none"
         d="m 14670.4,5376.3 c -32.3,-332.4 -282.8,-580 -559.4,-553.1 -276.6,26.9 -474.6,318.3 -442.2,650.7 32.4,332.4 282.8,580 559.4,553.1 276.6,-27 474.6,-318.3 442.2,-650.7" /><path
         id="path78"
         style="fill:#9c9c9b;fill-opacity:1;fill-rule:nonzero;stroke:none"
         d="m 14352.8,5387.3 c -31,-87 -114.4,-136.7 -186.3,-111 -71.9,25.6 -104.9,116.9 -73.9,203.9 31,86.9 114.4,136.6 186.3,111 71.9,-25.7 105,-117 73.9,-203.9" /><path
         id="path80"
         style="fill:#6b6c6e;fill-opacity:1;fill-rule:nonzero;stroke:none"
         d="m 15291,5673.6 c -238.8,567.4 -776.6,383.3 -776.6,383.3 h -0.1 c -264.7,-52.9 -475.6,-321.1 -493.5,-655 -11.6,-216.7 60.7,-414.6 183.3,-549 0,0 0,0 0.1,0 210.8,-294.5 583.4,-232.9 583.4,-232.9 0,0 742.3,486.1 503.4,1053.6" /><path
         id="path82"
         style="fill:#9c9c9b;fill-opacity:1;fill-rule:nonzero;stroke:none"
         d="m 15366.9,5284.3 c -20.6,-383.6 -296,-680.8 -615.2,-663.7 -319.3,17 -561.4,341.9 -540.9,725.6 20.5,383.6 295.9,680.8 615.2,663.7 319.2,-17 561.4,-341.9 540.9,-725.6" /><path
         id="path84"
         style="fill:#d4d4d2;fill-opacity:1;fill-rule:nonzero;stroke:none"
         d="m 15001.3,5281 c -31.3,-101.5 -124.7,-162.8 -208.6,-136.9 -83.9,25.8 -126.5,129.1 -95.2,230.6 31.3,101.5 124.7,162.8 208.6,136.9 83.9,-25.9 126.5,-129.1 95.2,-230.6" /><path
         id="path86"
         style="fill:#6b6c6e;fill-opacity:1;fill-rule:nonzero;stroke:none"
         d="m 12528,5647.2 c -213.8,577.3 -759.1,416.9 -759.1,416.9 l -0.1,-0.1 c -266.8,-41.2 -489.2,-300 -521.6,-632.8 -21.1,-216 42.5,-416.9 159.1,-556.4 0,0 0,-0.1 0.1,-0.1 197.8,-303.4 572.7,-258.1 572.7,-258.1 0,0 762.8,453.2 548.9,1030.6" /><path
         id="path88"
         style="fill:#9c9c9b;fill-opacity:1;fill-rule:nonzero;stroke:none"
         d="m 12586.8,5255 c -37.3,-382.4 -325.4,-667.3 -643.6,-636.3 -318.2,31 -545.9,366.1 -508.7,748.5 37.2,382.4 325.4,667.3 643.6,636.3 318.2,-31 545.9,-366.1 508.7,-748.5" /><path
         id="path90"
         style="fill:#6b6c6e;fill-opacity:1;fill-rule:nonzero;stroke:none"
         d="m 12221.4,5267.6 c -35.7,-100 -131.7,-157.2 -214.3,-127.7 -82.7,29.5 -120.8,134.6 -85.1,234.6 35.7,100 131.7,157.2 214.4,127.7 82.6,-29.6 120.7,-134.6 85,-234.6" /><path
         id="path92"
         style="fill:#c37140;fill-opacity:1;fill-rule:nonzero;stroke:none"
         d="m 14212.8,6633.6 89.5,-584.9 349.9,155.9 -145.7,643.6 c 0,0 -99.4,109.9 -177.9,68 -78.5,-41.9 -115.8,-282.6 -115.8,-282.6" /><path
         id="path94"
         style="fill:#100f0d;fill-opacity:1;fill-rule:nonzero;stroke:none"
         d="m 13751.5,4695.4 c 0,0 -223.6,-45 -309.9,-186.2 -86.3,-141.3 -196.2,-682.9 -196.2,-682.9 0,0 580.8,-188.4 981.1,-188.4 400.3,0 863.4,-7.8 910.5,117.8 47.1,125.5 133.4,204 -243.3,313.9 -376.8,109.9 -596.5,251.4 -620.1,333.7 -23.5,82.3 -204.1,292.1 -204.1,292.1 h -318" /><path
         id="path96"
         style="fill:#1a1918;fill-opacity:1;fill-rule:nonzero;stroke:none"
         d="m 12452.6,4547.5 c 0,0 -290.4,-163.9 -337.5,-258.1 -47.1,-94.2 -196.2,-682.9 -141.3,-753.5 55,-70.7 573,47.1 675.1,0 102,-47.1 1193,-39.3 1255.8,31.4 62.8,70.6 39.3,204 -196.2,306.1 -235.5,102 -455.3,219.8 -588.7,368.9 -133.4,149.1 -180.5,266.9 -180.5,266.9 l -486.7,38.3" /><path
         id="path98"
         style="fill:#100f0d;fill-opacity:1;fill-rule:nonzero;stroke:none"
         d="m 12539,5914.1 c 0,0 156.9,55 384.6,361.1 227.6,306.1 321.8,714.3 321.8,714.3 0,0 -784.9,47.1 -832,-78.5 -47.1,-125.6 125.6,-996.9 125.6,-996.9" /><path
         id="path100"
         style="fill:#c37140;fill-opacity:1;fill-rule:nonzero;stroke:none"
         d="m 14283.4,9724.9 c 84.4,-27.5 483.7,218.8 483.7,218.8 0,0 204.6,-105 271.6,-403.3 66.9,-298.3 -76.9,-356.7 -154.1,-649.3 -77.3,-292.6 -128.7,-732.1 -173.6,-959.8 -44.9,-227.6 -115.6,-518 -115.6,-518 l -478.8,188.4 -47.1,989 313.8,973.3 -99.9,160.9" /><path
         id="path102"
         style="fill:#b55f39;fill-opacity:1;fill-rule:nonzero;stroke:none"
         d="m 14383.3,7694.2 c 0,0 793,-247.5 934.2,-484 141.3,-236.4 -62.8,-754.1 -62.8,-754.1 0,0 -251.1,-615.2 -580.8,-1026 -329.6,-410.7 -541.6,-882.6 -541.6,-882.6 0,0 -408.1,-171.8 -510.2,-140.4 -102,31.4 -109.8,172.7 -78.4,204.1 31.3,31.4 392.4,518.1 478.7,1000.8 86.4,482.7 441.6,966.9 441.6,966.9 0,0 -355.2,198.6 -394.5,222.2 -39.2,23.5 -714.2,518 -682.8,612.2 31.4,94.2 996.6,280.9 996.6,280.9" /><path
         id="path104"
         style="fill:#1a1918;fill-opacity:1;fill-rule:nonzero;stroke:none"
         d="m 13708.5,7907.2 c 7.8,-15.1 674.8,-213 674.8,-213 0,0 -360.9,-265.2 -431.5,-280.9 -70.6,-15.7 -832,246.9 -832,246.9 l 588.7,247" /><path
         id="path106"
         style="fill:#c37140;fill-opacity:1;fill-rule:nonzero;stroke:none"
         d="m 12750.9,6612.7 651.5,62.8 c 0,0 -282.6,-251.2 -416,-549.4 -133.5,-298.3 -698.6,-1695.4 -714.3,-1719 -15.7,-23.5 -70.6,-219.7 0,-227.6 70.6,-7.8 306.1,188.4 416,235.5 109.9,47.1 227.6,47.1 251.2,94.2 23.5,47.1 306.1,682 620,1043.5 314,361.4 769.3,973.7 871.3,1311.2 102,337.5 0,706.4 -722.1,832 -722.1,125.6 -957.6,-1083.2 -957.6,-1083.2" /><path
         id="path108"
         style="fill:#ececec;fill-opacity:1;fill-rule:nonzero;stroke:none"
         d="m 12505,4968.3 c -125.5,-305.6 -226.4,-551.4 -232.9,-561.2 -15.7,-23.5 -70.6,-219.7 0,-227.6 70.6,-7.8 306.1,188.4 416,235.5 109.9,47.1 227.6,47.1 251.2,94.2 12.8,25.5 102,224.7 231.2,459.1 H 12505" /><path
         id="path110"
         style="fill:#ececec;fill-opacity:1;fill-rule:nonzero;stroke:none"
         d="m 13792.7,4997.4 c -115.7,-215 -231.9,-369 -249,-386.2 -31.4,-31.4 -23.6,-172.7 78.4,-204.1 102.1,-31.4 510.2,140.4 510.2,140.4 0,0 61.7,137.1 170,327.7 -211.1,34.9 -391.9,87 -509.6,122.2" /><path
         id="path112"
         style="fill:#1a1918;fill-opacity:1;fill-rule:nonzero;stroke:none"
         d="m 11777.6,8331.7 c 0,0 -400.3,-70.7 -620.1,-392.5 -219.7,-321.8 -188.3,-996.8 39.3,-1161.7 227.6,-164.8 1028.2,-596.5 1091,-667.1 62.8,-70.7 251.2,-196.3 251.2,-196.3 0,0 94.2,463.1 384.6,777.1 290.4,314 204,627.9 494.5,816.3 290.4,188.4 290.4,188.4 290.4,188.4 0,0 -243.3,784.9 -612.2,808.4 -369,23.6 -1318.7,-172.6 -1318.7,-172.6" /><path
         id="path114"
         style="fill:#100f0d;fill-opacity:1;fill-rule:nonzero;stroke:none"
         d="m 12122,8055.4 c 0,0 -156,14.1 -320.8,0 -164.9,-14.2 -306.2,0 -306.2,0 l 313.5,87.9 -25.4,118.6 c 0,0 237.8,-10.9 261.4,0 23.5,10.9 93.8,-145.6 93.8,-145.6 l -16.3,-60.9" /><path
         id="path116"
         style="fill:#e9eef1;fill-opacity:1;fill-rule:nonzero;stroke:none"
         d="m 14006.7,10267.9 -349.2,61.3 -357.2,-135.3 c 0,0 -879.1,-1124.4 -902.6,-1155.8 -23.6,-31.4 -620.1,-706.4 -620.1,-706.4 0,0 -62.8,-141.3 266.9,-196.3 329.6,-54.9 1609,-470.9 1664,-439.5 54.9,31.4 361,337.5 494.5,431.7 133.4,94.2 419.5,188.4 508,376.7 88.5,188.4 214.5,620.1 210.3,902.7 -4.1,282.5 -270.8,780.7 -270.8,780.7 l -643.8,80.2" /><path
         id="path118"
         style="fill:#c37140;fill-opacity:1;fill-rule:nonzero;stroke:none"
         d="m 14506.4,11095 -385.8,-616.6 -463.1,-149.2 c 0,0 259,-200.1 380.6,-514.1 121.7,-313.9 274.8,-879.1 502.4,-851.6 227.6,27.5 259,423.9 243.3,631.9 -15.7,207.9 -24.1,246 -24.1,246 l 149.7,550.6 -403,703" /><path
         id="path120"
         style="fill:#c37140;fill-opacity:1;fill-rule:nonzero;stroke:none"
         d="m 13300.3,10193.9 c 0,0 274.7,84.2 486.7,-280.7 211.9,-364.9 -16.3,-902.4 -439.9,-1198.8 0,0 -141,-265 -368.6,-571.1 -227.6,-306.1 -368.9,-449.1 -368.9,-449.1 0,0 15.7,-430 -94.2,-893.1 -109.9,-463.1 -149.1,-1067.5 -149.1,-1067.5 L 11966,5612 c 0,0 -94.2,1157.7 -55,1503 39.3,345.4 298.3,1266.6 314,1308.4 15.7,41.7 78.5,559.7 180.5,810.9 102.1,251.2 133.5,266.9 157,314 23.6,47.1 180.5,545.5 737.8,645.6" /><path
         id="path122"
         style="fill:#a45634;fill-opacity:1;fill-rule:nonzero;stroke:none"
         d="m 13657.5,9195 c 0,0 -106,-183.1 -270.8,-279.9 l -39.6,-200.7 122.9,97.5 c 0,0 136.4,163.4 187.5,383.1" /><path
         id="path124"
         style="fill:#c37140;fill-opacity:1;fill-rule:nonzero;stroke:none"
         d="m 11932,5529.5 -63.2,26.3 c 0,0 -135.7,-191 -140.9,-244.7 -5.2,-53.7 148.3,-313.7 148.3,-313.7 0,0 20.9,103.1 25.3,129.2 4.3,26.2 30.5,402.9 30.5,402.9" /><path
         id="path126"
         style="fill:#a45634;fill-opacity:1;fill-rule:nonzero;stroke:none"
         d="m 14414.2,10597.7 c 0,0 120.8,-313.8 236.3,-410 115.6,-96.2 120.7,-88.7 120.7,-88.7 l -81.6,-374.1 302.2,502.3 46.9,196.2 -624.5,174.3" /><path
         id="path128"
         style="fill:#6b6c6e;fill-opacity:1;fill-rule:nonzero;stroke:none"
         d="m 13068.5,5651.9 c -280.9,547.9 -803.3,323.8 -803.3,323.8 v -0.1 c -260.1,-72.6 -450.2,-355.9 -442.9,-690.2 4.8,-217 91.7,-408.9 224.1,-533.6 0,0 0,0 0,-0.1 232.5,-277.8 599.4,-188.3 599.4,-188.3 0,0 703.5,540.6 422.7,1088.5" /><path
         id="path130"
         style="fill:#9c9c9b;fill-opacity:1;fill-rule:nonzero;stroke:none"
         d="m 13173.4,5269.5 c 8.4,-384.2 -243.9,-701.2 -563.5,-708.2 -319.6,-7 -585.6,298.7 -594,682.8 -8.4,384.1 243.9,701.2 563.5,708.2 319.7,7 585.6,-298.7 594,-682.8" /><path
         id="path132"
         style="fill:#d4d4d2;fill-opacity:1;fill-rule:nonzero;stroke:none"
         d="m 12809.1,5238.6 c -23.6,-103.6 -112.1,-171.7 -197.7,-152.2 -85.6,19.5 -135.8,119.2 -112.3,222.8 23.6,103.5 112.1,171.7 197.7,152.2 85.6,-19.5 135.9,-119.2 112.3,-222.8" /><path
         id="path134"
         style="fill:#2f1d16;fill-opacity:1;fill-rule:nonzero;stroke:none"
         d="m 15578.2,11569.8 c -5.1,29.8 26,71.2 -5.3,125.2 -31.4,54.1 -80.6,80.7 -80.6,80.7 0,0 -31.1,58.7 -84.1,81.6 -53.1,23 -103.3,31 -103.3,31 0,0 -35.8,34.4 -106.6,55.5 -70.9,21.1 -143.7,3.1 -172.8,7.3 -29.1,4.2 -85.8,18.5 -120.1,20.9 -34.4,2.3 -105.7,-9.8 -118,-14.6 -12.4,-4.8 -67.2,14.5 -137.9,5 -70.8,-9.5 -132.6,-76.2 -132.6,-76.2 0,0 -51.2,-14 -69.5,-17.3 -0.2,-0.1 -0.4,-0.2 -0.6,-0.2 -1.1,-0.3 -3.8,-1.1 -7.9,-2.8 -13.4,-6.1 -34.5,-20.3 -57.2,-36.6 -46.2,-39.8 -108.2,-117.9 -156.1,-269.2 -87.6,-276.1 -113.4,-593.8 34.5,-857 l 246.9,301.2 1016.7,302 c 0,0 23.4,40.4 23.7,66.5 0.2,26 33.2,60 44.1,107.8 10.9,47.9 -8.1,59.3 -13.3,89.2" /><path
         id="path136"
         style="fill:#c37140;fill-opacity:1;fill-rule:nonzero;stroke:none"
         d="m 15487.9,11402.6 c 0,0 31.1,-70.6 35.8,-96.3 4.6,-25.8 -39.1,-238.5 -48.7,-292.7 -9.6,-54.2 -41,-123.2 -47.3,-149 -6.3,-25.8 -41.5,-185 -63.5,-245.3 -22,-60.3 -149.7,-284.4 -187.6,-342.7 -38,-58.2 -91.2,-134.5 -126.4,-144.2 -35.2,-9.6 -172.9,16.7 -284.5,82.2 -111.7,65.6 -308.4,283.3 -351.5,383.1 -43.1,99.9 8.3,273.4 8.3,273.4 0,0 -53.2,-1.6 -92.3,62.7 -39,64.2 -94.3,196.3 -46.8,316 47.4,119.7 131.2,51.9 167.2,-9.8 36,-61.7 19.2,-137.9 29.1,-142.1 9.9,-4.2 21.1,-3.3 26.7,-2.9 5.6,0.5 60.8,122 68.8,147.4 8,25.4 40.7,181.5 45.4,185.9 4.7,4.3 170.7,127.9 215.8,133.3 45.1,5.4 651.5,-159 651.5,-159" /><path
         id="path138"
         style="fill:#2f1d16;fill-opacity:1;fill-rule:nonzero;stroke:none"
         d="m 14506.4,11095 c 0,0 53.1,81.9 80.5,127.3 27.4,45.5 30.6,114.5 46.6,121.6 16.1,7 49,30.4 55.5,68.5 6.5,38 6.5,38 6.5,38 0,0 6.8,33.2 62,38.3 55.3,5 93.2,60.5 93.2,60.5 0,0 127.9,-34 177.5,-44.9 49.6,-11 155.5,-37.8 213.4,-54.1 57.8,-16.2 229.7,-64.5 235.3,-67.5 5.6,-3 46.8,-76.4 46.8,-76.4 0,0 27.9,108.3 15.2,114.6 -12.6,6.4 9.9,45.2 -172.8,101 -182.8,55.8 -282.5,138.2 -449.1,113.7 -166.5,-24.5 -181,12.5 -256.2,-46.2 -75.2,-58.8 -162.5,-171.6 -160.4,-226.1 2,-54.5 6,-268.3 6,-268.3" /></g></g></svg>