<?xml version="1.0" encoding="UTF-8" standalone="no"?>
<svg
   xmlns:dc="http://purl.org/dc/elements/1.1/"
   xmlns:cc="http://creativecommons.org/ns#"
   xmlns:rdf="http://www.w3.org/1999/02/22-rdf-syntax-ns#"
   xmlns:svg="http://www.w3.org/2000/svg"
   xmlns="http://www.w3.org/2000/svg"
   viewBox="0 0 2666.6667 2666.6667"
   height="2666.6667"
   width="2666.6667"
   xml:space="preserve"
   id="svg2"
   version="1.1"><metadata
     id="metadata8"><rdf:RDF><cc:Work
         rdf:about=""><dc:format>image/svg+xml</dc:format><dc:type
           rdf:resource="http://purl.org/dc/dcmitype/StillImage" /></cc:Work></rdf:RDF></metadata><defs
     id="defs6" /><g
     transform="matrix(1.3333333,0,0,-1.3333333,0,2666.6667)"
     id="g10"><g
       transform="scale(0.1)"
       id="g12"><g
         transform="scale(1.22699)"
         id="g14"><path
           id="path16"
           style="fill:none;fill-opacity:1;fill-rule:nonzero;stroke:none"
           d="M 16300,0 H 0 V 16300 H 16300 V 0" /></g><path
         id="path18"
         style="fill:#3970c0;fill-opacity:1;fill-rule:nonzero;stroke:none"
         d="m 4763.64,4890.6 c 0,0 -200.79,-121.4 -219.47,-200.8 -18.68,-79.4 -42.02,-546.3 -28.01,-583.7 14.01,-37.4 761.14,-126.1 1045.98,-102.7 284.85,23.3 504.32,196.1 508.99,303.5 4.67,107.4 -158.77,130.7 -382.91,172.8 -224.14,42 -363.73,322.2 -396.67,359.5 -32.93,37.4 -130.99,23.4 -130.99,23.4 0,0 -144.76,51.3 -200.79,65.3 -56.04,14.1 -196.13,-37.3 -196.13,-37.3" /><path
         id="path20"
         style="fill:#3970c0;fill-opacity:1;fill-rule:nonzero;stroke:none"
         d="m 5954.39,5138.1 c 0,0 -196.12,-121.4 -224.14,-154.1 -28.02,-32.7 -32.69,-593.1 -32.69,-593.1 0,0 621.05,-60.7 1153.39,-51.3 532.33,9.3 630.39,177.4 644.4,252.1 14.01,74.8 -74.72,116.8 -424.93,168.1 -350.22,51.4 -518.33,312.9 -541.67,378.3 -23.35,65.4 -270.84,144.7 -270.84,144.7 l -303.52,-144.7" /><path
         id="path22"
         style="fill:#100f0d;fill-opacity:1;fill-rule:nonzero;stroke:none"
         d="m 4558.18,8334.4 c 0,0 -4.67,-147.1 452.95,-161.1 457.62,-14 18.68,513.7 -42.02,471.6 -60.71,-42 -410.93,-310.5 -410.93,-310.5" /><path
         id="path24"
         style="fill:#f1b68e;fill-opacity:1;fill-rule:nonzero;stroke:none"
         d="m 6440.02,8350.8 c -4.66,-14.1 -32.68,-345.6 -74.71,-607.1 -42.02,-261.5 -51.36,-415.6 -51.36,-438.9 0,-23.4 -9.35,-849.9 0,-1382.2 9.34,-532.4 60.96,-863.9 60.96,-863.9 0,0 -46.96,-56 -149.69,-102.7 -102.72,-46.7 -373.56,-42.1 -373.56,-28.1 0,14.1 -79.38,719.2 -196.13,1134.8 -116.74,415.6 -55.95,1078.6 -72.34,1186 -16.38,107.4 -53.73,462.3 -53.73,462.3 0,0 112.06,910.6 182.11,933.9 70.04,23.4 728.45,-294.1 728.45,-294.1" /><path
         id="path26"
         style="fill:#dc9b70;fill-opacity:1;fill-rule:nonzero;stroke:none"
         d="m 5702.23,7174 c 14.01,401.6 135.42,835.9 182.12,901.3 46.69,65.3 158.76,154.9 158.76,154.9 l 82.54,265.9 c -180.08,80.1 -377.46,161 -414.08,148.8 -70.05,-23.3 -182.11,-933.9 -182.11,-933.9 0,0 37.35,-354.9 53.73,-462.3 16.39,-107.4 -44.4,-770.4 72.34,-1186 116.75,-415.6 196.13,-1120.7 196.13,-1134.8 0,0 -4.67,728.5 -98.07,1120.8 -93.38,392.2 -65.37,723.7 -51.36,1125.3" /><path
         id="path28"
         style="fill:#df8259;fill-opacity:1;fill-rule:nonzero;stroke:none"
         d="m 5851.66,4927.9 c 0,-1 1.84,-2.1 4.98,-3 l -4.98,3" /><path
         id="path30"
         style="fill:#fbc398;fill-opacity:1;fill-rule:nonzero;stroke:none"
         d="m 4908.4,8602.9 c 0,0 28.02,-597.7 0,-835.8 -28.02,-238.2 -203.13,-588.4 -245.15,-1001.7 -42.03,-413.2 21.01,-1538.6 0,-1767.4 -21.01,-228.8 -14.8,-434.3 -14.8,-434.3 0,0 194.58,23.4 227.26,46.7 32.69,23.4 102.73,154.1 140.09,177.5 37.36,23.3 144.76,74.7 144.76,74.7 0,0 0,527.6 79.38,985.3 79.39,457.6 219.47,1377.5 219.47,1377.5 0,0 140.09,359.5 200.8,560.3 60.7,200.8 144.75,523 126.07,551 -18.68,28.1 -350.22,308.2 -466.95,308.2 -116.75,0 -410.93,-42 -410.93,-42" /><path
         id="path32"
         style="fill:#1e1c1b;fill-opacity:1;fill-rule:nonzero;stroke:none"
         d="m 8071.67,14747.1 c -3.6,1.4 -7.09,3 -10.72,4.2 -2.76,1 -5.47,1.8 -8.22,2.7 -25.35,8.7 -51.19,16.3 -77.5,22.8 -328.74,86.6 -580.23,26.9 -580.23,26.9 0,0 -29.62,-48.4 -70.25,-114.4 -329.63,-176.2 -584,-542.9 -645.48,-993.1 -64.4,-471.6 99.57,-911.6 394.73,-1165.4 40.17,-101.3 96.73,-170.1 174.64,-189.2 458.3,-111.8 736.74,24.3 736.74,24.3 l 0.54,0.5 c 386.29,145.2 695.94,543.8 764.65,1046.9 82.86,606.8 -212.52,1161.1 -678.9,1333.8" /><path
         id="path34"
         style="fill:#343434;fill-opacity:1;fill-rule:nonzero;stroke:none"
         d="m 8527.21,13426.6 c -93.5,-684.7 -632.97,-1176.4 -1204.94,-1098.3 -571.97,78.1 -959.85,696.5 -866.36,1381.1 93.5,684.7 632.97,1176.4 1204.94,1098.3 571.98,-78.1 959.86,-696.5 866.36,-1381.1" /><path
         id="path36"
         style="fill:#d4d3d1;fill-opacity:1;fill-rule:nonzero;stroke:none"
         d="m 7648.72,13585.3 c -18.24,-127.6 -120.99,-218.6 -229.49,-203 -108.51,15.5 -181.68,131.5 -163.43,259.2 18.24,127.6 120.99,218.5 229.49,203 108.5,-15.5 181.67,-131.6 163.43,-259.2" /><path
         id="path38"
         style="fill:#9d9d9c;fill-opacity:1;fill-rule:nonzero;stroke:none"
         d="m 3198.58,14722.1 4296.77,-1004.8 c 0,0 88.72,-119.1 -32.68,-234.7 l -4285.37,918 21.28,321.5" /><path
         id="path40"
         style="fill:#fbc398;fill-opacity:1;fill-rule:nonzero;stroke:none"
         d="m 5090.51,12516 -18.68,213.3 c 0,0 -303.52,-404.7 -368.89,-498.1 -65.37,-93.4 -392.25,-331.6 -476.3,-340.9 -84.05,-9.3 -266.17,74.7 -284.84,158.8 -18.68,84 -18.68,260.3 -18.68,260.3 0,0 -70.04,211.3 112.07,468.1 182.11,256.9 528.57,869.7 626.63,1047.2 98.06,177.4 87.81,190.3 87.81,190.3 l 340.88,4.6 c 0,0 121.41,18.7 191.46,32.7 0,0 112.83,85 305.86,123.8 0,0 235.81,-590.7 249.82,-628.1 14.01,-37.4 -22.86,-938.6 -22.86,-938.6 0,0 -411.41,-322.2 -434.76,-308.2 -23.35,14 -168.11,93.4 -168.11,93.4 l -121.41,121.4" /><path
         id="path42"
         style="fill:#fbc398;fill-opacity:1;fill-rule:nonzero;stroke:none"
         d="m 6561.78,13440.1 c 0,0 -29.96,78.5 -38.47,91.9 -8.52,13.4 -147.22,113.1 -185.23,135.9 -38.03,22.8 -74.77,65.1 -61.27,99.6 l 193.23,-48.6 c 0,0 97.12,-3.3 165.44,-31.1 68.33,-27.7 259.14,-75.7 259.14,-75.7 l -99.53,-244.4 c 0,0 -176.88,-132.5 -196.96,-93.6 -20.07,38.9 -36.35,166 -36.35,166" /><path
         id="path44"
         style="fill:#1e1c1b;fill-opacity:1;fill-rule:nonzero;stroke:none"
         d="m 4824.35,11017.1 c 0,0 -126.08,-182.1 -168.1,-462.3 -42.03,-280.2 -14.01,-427.3 -42.03,-679.4 -28.02,-252.2 -56.04,-1541 -56.04,-1541 0,0 392.24,70.1 721.45,0 329.21,-70 546.34,-91 546.34,-91 0,0 434.27,-49.1 700.44,42 0,0 105.07,785.3 77.05,1338.2 -28.02,553 -49.03,1190.4 -49.03,1190.4 0,0 -553.35,287.1 -665.42,329.2 -112.07,42 -1064.66,-126.1 -1064.66,-126.1" /><path
         id="path46"
         style="fill:#eaac82;fill-opacity:1;fill-rule:nonzero;stroke:none"
         d="m 5319.32,12404 -228.81,112 -18.68,213.3 c 0,0 228.81,291.3 298.86,386.9 70.04,95.6 70.04,189 70.04,189 0,0 95.04,-150.4 193.55,-189 98.51,-38.6 81.96,-376 21.25,-427.4 -60.7,-51.4 -336.21,-284.8 -336.21,-284.8" /><path
         id="path48"
         style="fill:#3970c0;fill-opacity:1;fill-rule:nonzero;stroke:none"
         d="m 5739.58,14220.4 -151.75,-44.3 c 0,0 106.51,-497.9 79.66,-841.1 -26.86,-343.2 -364.51,-549.7 -595.65,-605.7 0,0 46.69,-752.6 18.67,-969.7 -28.01,-217.2 -266.16,-742.5 -266.16,-742.5 0,0 301.19,-28 644.4,-133.1 343.22,-105.1 1085.68,-70 1085.68,-70 0,0 259.16,763.4 329.2,1078.6 70.05,315.2 98.06,539.4 98.06,539.4 0,0 107.41,182.1 88.73,448.3 -18.68,266.1 -602.59,1120.6 -602.59,1120.6 0,0 -263.62,154.2 -305.65,161.2 -42.02,7 -422.6,58.3 -422.6,58.3" /><path
         id="path50"
         style="fill:#fbc398;fill-opacity:1;fill-rule:nonzero;stroke:none"
         d="m 6459.2,13912.6 c 0,0 112.46,93.1 157.6,102.5 45.14,9.5 145.83,-22.6 208.76,-59.4 62.94,-36.8 102.26,-102.9 98.45,-159.4 -3.81,-56.6 -4.01,-67.4 -34.57,-69.2 0,0 -11.86,-25.4 -42.51,-27.3 -30.64,-1.9 -41.66,26.4 -41.66,26.4 0,0 -89.99,11 -113.54,31.2 -23.54,20.2 -80.24,73.8 -102.28,100.9 l -130.25,54.3" /><path
         id="path52"
         style="fill:#fbc398;fill-opacity:1;fill-rule:nonzero;stroke:none"
         d="m 5962.96,14625.1 c 0,0 -14.41,-98.8 -59.94,-196.9 -45.52,-98 -86.77,-150.6 -86.77,-150.6 l -76.67,-57.2 c 0,0 296.52,-380.5 436.61,-611.7 140.09,-231.1 200.81,-309.2 232.72,-371.2 68.47,-133.1 397.53,-341.7 398.24,-63.1 0.47,182.2 -301.75,630.4 -301.75,686.5 0,56 129.22,414.4 129.22,414.4 l -227.28,818.3 h -199.63 c 0,0 -115.57,-343.2 -129.58,-336.2 -14.01,7 -73.55,-70 -73.55,-70 l -41.62,-62.3" /><path
         id="path54"
         style="fill:#100f0d;fill-opacity:1;fill-rule:nonzero;stroke:none"
         d="m 6365.31,9574.2 c 0,0 -252.16,-119.1 -273.17,-140.1 -21.01,-21 -266.17,-1190.7 -266.17,-1190.7 l 217.14,-13.2 c 0,0 140.09,1112.8 147.09,1133.9 7.01,21 175.11,210.1 175.11,210.1" /><path
         id="path56"
         style="fill:#3268a6;fill-opacity:1;fill-rule:nonzero;stroke:none"
         d="m 5609.05,13128.5 c 0,0 212.1,-173.5 339.42,-229.6 127.33,-56 496.22,-141.2 496.22,-141.2 0,0 -205.46,-36.2 -438.94,-26.9 -233.47,9.4 -543.79,207.7 -543.79,207.7 0,0 95.51,94.3 147.09,190" /><path
         id="path58"
         style="fill:#f4f3f3;fill-opacity:1;fill-rule:nonzero;stroke:none"
         d="m 4667.52,5195.1 c 0.5,-87.7 -0.55,-156.6 -4.27,-197.1 -21.02,-228.8 -14.8,-434.3 -14.8,-434.3 0,0 194.58,23.4 227.26,46.7 32.69,23.4 102.73,154.1 140.09,177.5 37.36,23.3 144.76,74.7 144.76,74.7 0,0 0.02,136.1 10.42,330 -158.8,-3.3 -348.85,-0.9 -503.46,2.5" /><path
         id="path60"
         style="fill:#f4f3f3;fill-opacity:1;fill-rule:nonzero;stroke:none"
         d="m 5786.09,5418.2 c 41.33,-264 65.57,-482.5 65.57,-490.3 0,-14 270.84,-18.6 373.56,28.1 102.73,46.7 149.69,102.7 149.69,102.7 0,0 -24.23,155.6 -42.49,424.8 -235.29,-40.7 -436.69,-58.1 -546.33,-65.3" /><path
         id="path62"
         style="fill:#dc9b70;fill-opacity:1;fill-rule:nonzero;stroke:none"
         d="m 4992.52,13631.4 -12.94,-49.3 c 4.38,17.4 8.69,33.8 12.94,49.3 z m 287.21,389.4 -154.19,-185.6 -132.33,-201.3 c 12.16,44 23.79,79.7 34.78,103.2 65.38,140.1 188.27,303.1 188.27,303.1 l -78.12,-13 c 0,0 -159.7,-259.7 -169.03,-283.1 -9.34,-23.3 -46.7,-275.5 -144.76,-593 -98.06,-317.5 -149.43,-653.7 -317.53,-901.2 0,0 172.77,169.7 270.83,479.4 75.34,238 144.08,622.3 201.54,851.2 0.24,0.1 183.56,91 248.89,165.7 65.38,74.8 114.86,343.3 114.86,343.3 l -63.21,-68.7" /><path
         id="path64"
         style="fill:#fbc398;fill-opacity:1;fill-rule:nonzero;stroke:none"
         d="m 4606.8,13778.2 c -13.74,-50.6 -5.68,33.9 14.04,193.1 4.61,37.3 11.73,88.6 38.29,192.8 0,0 107.23,-0.3 182.63,-30.7 75.39,-30.3 78.96,-27.2 150.97,-47.6 81.15,-23.1 191.35,-36.4 191.35,-36.4 l 158.86,40.1 c 0,0 -73.15,-272.1 -209.33,-360.9 -150.11,-97.9 -322.1,-222.4 -363.05,-263 -40.95,-40.6 26.52,91.5 -22.35,112.2 -48.87,20.7 -141.41,200.4 -141.41,200.4" /><path
         id="path66"
         style="fill:#fbc398;fill-opacity:1;fill-rule:nonzero;stroke:none"
         d="m 4750.81,14360.6 140.03,-53.3 c 0,0 92.07,-178.5 110.97,-198.3 18.9,-19.8 48.19,-23.8 48.19,-23.8 0,0 24.65,-34.5 58.92,-33.8 34.26,0.7 39.42,16.4 39.42,16.4 0,0 18.95,-30.2 60.7,-14.4 0,0 59.16,-29.3 68.15,10.6 9,39.9 -6.23,183.1 -40.9,223.7 -34.66,40.6 -236.83,138.1 -312.17,154.5 -75.35,16.4 -173.31,-81.6 -173.31,-81.6" /><path
         id="path68"
         style="fill:#dc9b70;fill-opacity:1;fill-rule:nonzero;stroke:none"
         d="m 5184.08,14049.4 c 0,0 -36.85,-40.5 -114.03,-59.7 -77.17,-19.2 -172.59,-81.6 -172.59,-81.6 0,0 19.19,46.9 25.66,100.6 6.47,53.8 -0.87,96.1 -0.87,96.1 l 134.39,-29.5 c 0,0 13.58,-14.1 36.03,-21.7 22.45,-7.7 50.31,2.4 50.31,2.4 l 41.1,-6.6" /><path
         id="path70"
         style="fill:#1e1c1b;fill-opacity:1;fill-rule:nonzero;stroke:none"
         d="m 3875.2,15938.4 c -4.39,1.4 -8.68,3.1 -13.11,4.3 -3.36,0.9 -6.67,1.7 -10.01,2.6 -30.95,8.6 -62.39,15.9 -94.31,21.7 -399.31,80.3 -695.82,-9 -695.82,-9 0,0 -31.99,-60 -75.89,-141.8 -381.68,-234.1 -659.81,-690.8 -701.33,-1233.6 -43.48,-568.5 183.9,-1083.1 554.93,-1365.7 55.23,-118.2 127.77,-196.5 222.29,-213.7 556.06,-101.3 879.36,81.3 879.36,81.3 l 0.61,0.7 c 451.65,201.1 793.62,699.8 840.02,1306.4 55.96,731.5 -336.7,1373.5 -906.74,1546.8" /><path
         id="path72"
         style="fill:#343434;fill-opacity:1;fill-rule:nonzero;stroke:none"
         d="m 4513.88,14391.6 c -63.13,-825.5 -673.33,-1451.8 -1362.92,-1399.1 -689.59,52.7 -1197.42,764.6 -1134.29,1590.1 63.14,825.4 673.34,1451.8 1362.93,1399 689.58,-52.7 1197.42,-764.6 1134.28,-1590" /><path
         id="path74"
         style="fill:#d4d3d1;fill-opacity:1;fill-rule:nonzero;stroke:none"
         d="m 3531.76,14523.5 c -18.47,-188.7 -163.38,-328.9 -323.68,-313.2 -160.29,15.6 -275.27,181.3 -256.81,370 18.47,188.7 163.39,329 323.68,313.3 160.3,-15.7 275.27,-181.4 256.81,-370.1" /><path
         id="path76"
         style="fill:#9d9d9c;fill-opacity:1;fill-rule:nonzero;stroke:none"
         d="m 3198.58,14722.1 -1239.03,245.4 -21.01,-301.1 -19.26,-77.1 1235.83,-184.1 v 0 c 7.1,-2.5 14.52,-4.1 22.19,-4.6 62.25,-4.2 117.47,64.5 123.35,153.2 5.88,88.8 -39.82,164.1 -102.07,168.3" /><path
         id="path78"
         style="fill:#b9b8b7;fill-opacity:1;fill-rule:nonzero;stroke:none"
         d="m 2071.63,14781.9 c 0,-106.3 -68.21,-192.6 -152.35,-192.6 -84.13,0 -152.34,86.3 -152.34,192.6 0,106.4 68.21,192.7 152.34,192.7 84.14,0 152.35,-86.3 152.35,-192.7" /><path
         id="path80"
         style="fill:#252323;fill-opacity:1;fill-rule:nonzero;stroke:none"
         d="m 7109.69,15295.6 c 0,0 30.51,156.2 -14.68,272 -45.17,115.7 -195.02,204.8 -329.35,206.1 -134.32,1.3 -248.88,59 -379.35,45.2 -130.47,-13.9 -213.85,-112.2 -213.85,-112.2 0,0 -206.97,8.5 -277.55,-296.1 -96.7,-417.3 43.31,-752.2 46.13,-759.9 22.08,-60.4 64.53,-3.7 134.67,39.3 70.14,43.1 246.73,229.6 246.73,229.6 0,0 319.65,-115.7 330.81,-102.4 11.16,13.3 387.58,423.9 387.58,423.9 l 60.32,42.1 c 0,0 5.39,2.2 13.49,7 -3.16,3.4 -4.95,5.4 -4.95,5.4" /><path
         id="path82"
         style="fill:#fbc398;fill-opacity:1;fill-rule:nonzero;stroke:none"
         d="m 7109.69,15295.6 c 0,0 19.42,-203.4 16.85,-248.6 -2.57,-45.2 -63.49,-168 -66.74,-189.3 -3.25,-21.2 54.13,-267 47.27,-279.3 -6.87,-12.1 -95.59,-1.2 -100.69,-7.6 -5.11,-6.4 -36.06,-82.7 -36.21,-91 -0.16,-8.3 -7.25,-24 -7.25,-24 0,0 -3.33,-34.7 -14.84,-49 -11.51,-14.4 -22.26,-42.1 -27.74,-52.4 -5.48,-10.2 -39.23,-129.7 -59.04,-142.7 -19.82,-13.1 -270.35,45.2 -306.52,67.2 -36.18,22.1 -202.02,297.5 -209.62,345.8 -7.61,48.4 28.16,177.2 28.16,177.2 0,0 -98.96,50.5 -114.17,147.2 -15.22,96.6 41.68,242.8 134.49,240.1 92.82,-2.6 99.24,-128.3 100.18,-161.9 0.95,-33.7 5.07,-77.7 8.55,-82 3.49,-4.2 83.07,70.1 115.03,112.8 31.95,42.7 18.43,181.7 47.33,230.1 28.91,48.3 114.38,84.4 149.88,86.3 35.5,2 295.08,-78.9 295.08,-78.9" /><path
         id="path84"
         style="fill:#dc9b70;fill-opacity:1;fill-rule:nonzero;stroke:none"
         d="m 6601.97,14309.1 c 45.82,-31.9 112.34,-64.6 163.69,-87.8 0,0 -130.44,-23.2 -154.28,-11.5 -122.33,59.6 -258.62,366.6 -266.22,414.9 -7.61,48.4 28.16,177.2 28.16,177.2 0,0 0.74,-128.8 16.97,-193.2 16.23,-64.4 127.14,-240.7 211.68,-299.6" /><path
         id="path86"
         style="fill:#3970c0;fill-opacity:1;fill-rule:nonzero;stroke:none"
         d="m 13986.5,4993.3 c 0,0 -252.9,-112.1 -292.2,-177.4 -39.3,-65.4 -128.1,-639.8 -109.4,-672.4 18.7,-32.7 261.5,-23.4 350.2,-56.1 88.8,-32.7 798.5,-84 994.7,-65.3 196.1,18.6 253.7,205.4 250.6,270.8 -3.2,65.4 -147.9,70 -311.3,126.1 -163.5,56 -271.7,289.5 -346,364.2 -74.3,74.7 -130.3,112.1 -130.3,112.1 0,0 -121.5,168.1 -144.8,168.1 -23.4,0 -261.5,-70.1 -261.5,-70.1" /><g
         transform="scale(1.02164)"
         id="g88"><path
           id="path90"
           style="fill:#3970c0;fill-opacity:1;fill-rule:nonzero;stroke:none"
           d="m 14718.6,5042.95 c 0,0 -64,-27.41 -123.4,-64.02 -59.4,-36.51 -208.1,-585.03 -211.4,-598.74 -3.5,-13.7 389.6,-54.81 855.8,-73.11 466.3,-18.31 854.7,-13.71 937.1,36.51 82.2,50.31 123.3,228.55 50.2,276.61 -73.1,47.96 -324.5,66.27 -585.1,162.19 -260.5,96.02 -265,287.97 -425.1,342.78 -159.9,54.91 -498.1,-82.22 -498.1,-82.22" /></g><path
         id="path92"
         style="fill:#100f0d;fill-opacity:1;fill-rule:nonzero;stroke:none"
         d="m 15371.3,6440.9 c 0,0 100.1,-32.7 170.2,32.7 70,65.4 149,187.2 149,187.2 l -90.8,64.9 -291.7,23.4 c 0,0 -186.8,26.8 -108.4,-95.7 78.4,-122.6 171.7,-212.5 171.7,-212.5" /><g
         transform="scale(1.05631)"
         id="g94"><path
           id="path96"
           style="fill:#f1b68e;fill-opacity:1;fill-rule:nonzero;stroke:none"
           d="m 14463.5,6182.64 c 0,0 196.4,7.76 324.6,87.28 128.2,79.62 331.6,132.63 331.6,132.63 0,0 -207.8,-154.69 -393.5,-534.88 -185.6,-380.19 -380.2,-716.17 -464.1,-870.86 -84,-154.78 -105.4,-217.64 -105.4,-217.64 0,0 111.6,-169.46 195.6,-151.75 84,17.61 152.9,99.68 274.4,161.6 121.6,61.91 141.4,75.16 141.4,75.16 0,0 157,300.58 351.6,526.08 194.4,225.4 694,675.37 884.1,947.73 190.1,272.36 296.2,502.22 234.3,793.99 -61.9,291.77 -850.4,293.85 -1202.4,270.75 -352.1,-23.19 -552.6,-421.09 -579.2,-513.96 -26.5,-92.77 -159.1,-446.45 -159.1,-446.45 l 166.1,-259.68" /></g><path
         id="path98"
         style="fill:#1e1c1b;fill-opacity:1;fill-rule:nonzero;stroke:none"
         d="m 15471.4,7819.6 h 411 c 0,0 -149.5,-127.3 -256.9,-356.1 -107.4,-228.8 -242.2,-707 -254.2,-797.1 -11.9,-90.1 0,-225.5 0,-225.5 h -264.1 l -177.4,574.4 126,602.3 c 0,0 196.2,317.6 214.8,322.2 18.7,4.7 200.8,-120.2 200.8,-120.2" /><g
         transform="scale(1.11896)"
         id="g100"><path
           id="path102"
           style="fill:#1e1c1b;fill-opacity:1;fill-rule:nonzero;stroke:none"
           d="m 15543,10210.7 c -3.3,0.8 -6.6,1.9 -9.9,2.6 -2.6,0.5 -5.1,0.9 -7.6,1.4 -23.5,4.9 -47.2,8.7 -71.3,11.5 -301.2,39.9 -517.4,-41.2 -517.4,-41.2 0,0 -20.9,-46.2 -49.5,-109.3 -272.4,-193.21 -456.9,-546.9 -460.8,-952.99 -4.2,-425.33 190.5,-797.01 480.7,-988.97 46.9,-85.26 104.8,-139.96 176,-148.09 418.9,-47.81 650.5,104.12 650.5,104.12 l 0.4,0.53 c 326.2,172.13 556.1,560.26 560.5,1013.99 5.4,547.27 -318.6,1005.61 -751.6,1106.41" /></g><g
         transform="scale(1.10531)"
         id="g104"><path
           id="path106"
           style="fill:#343434;fill-opacity:1;fill-rule:nonzero;stroke:none"
           d="m 16293.8,9203.28 c -6.1,-625.12 -434.5,-1127.69 -956.7,-1122.63 -522.3,5.16 -940.6,516.15 -934.5,1141.28 6.2,625.14 434.5,1127.77 956.8,1122.57 522.3,-5.1 940.6,-516.08 934.4,-1141.22" /></g><g
         transform="scale(1.0109)"
         id="g108"><path
           id="path110"
           style="fill:#e8946e;fill-opacity:1;fill-rule:nonzero;stroke:none"
           d="m 15979.1,9616.52 c 0,0 -18.9,97.74 -31.8,153.23 -12.8,55.4 -40.2,186.4 -47.1,220.37 l 399.8,-30.22 c 0,0 -59.9,-317.96 -71.4,-324.88 -11.6,-7.02 -174.7,-55.49 -174.7,-55.49 l -74.8,36.99" /></g><g
         transform="scale(1.02066)"
         id="g112"><path
           id="path114"
           style="fill:#fbc398;fill-opacity:1;fill-rule:nonzero;stroke:none"
           d="m 15916.5,9648.4 c 0,0 -122.5,-290.5 -107.9,-175.38 1.9,15.48 -35.2,76.03 -54,382.73 -6.2,101.89 38.9,235.55 56.2,267.55 l 50.8,-192.7 c 0,0 86.4,-35.15 156.9,-50.52 81.9,-17.81 281.5,-12.48 281.5,-12.48 l -231.7,-379.69 c 0,0 -122.1,-45.75 -136.9,-5.39 -14.7,40.27 -14.9,165.88 -14.9,165.88" /></g><g
         transform="scale(1.01673)"
         id="g116"><path
           id="path118"
           style="fill:#fbc398;fill-opacity:1;fill-rule:nonzero;stroke:none"
           d="m 16300,9872.98 c 0,0 -45.4,-118.57 -93.5,-211.81 -48,-93.14 -72,10.72 -98.6,51.53 -26.6,40.82 -82.7,154.77 -82.7,154.77 l 55.9,119.61 c 0,0 151.9,-30.7 161.8,-34.01 9.8,-3.3 57.1,-80.09 57.1,-80.09" /></g><g
         transform="scale(1.00944)"
         id="g120"><path
           id="path122"
           style="fill:#fbc398;fill-opacity:1;fill-rule:nonzero;stroke:none"
           d="m 15332.2,8002.35 c 0,0 109.8,-138.1 167.7,-137.91 57.8,0.1 148.9,-8.61 227.8,109.67 78.9,118.18 198.9,178.81 285.9,396.55 86.9,217.85 246.2,1263.97 246.2,1263.97 0,0 40.2,150.18 33,205.66 l -292.2,-70.34 -350.6,-773 -579.7,-722.77 261.9,-271.83" /></g><g
         transform="scale(1.05007)"
         id="g124"><path
           id="path126"
           style="fill:#d4d3d1;fill-opacity:1;fill-rule:nonzero;stroke:none"
           d="m 16295.4,9692.7 c 4.6,-122.71 -76.2,-225.36 -180.5,-229.27 -104.3,-3.9 -192.6,92.36 -197.3,215.06 -4.5,122.72 76.3,225.38 180.6,229.3 104.3,3.91 192.6,-92.38 197.2,-215.09" /></g><g
         transform="scale(1.01333)"
         id="g128"><path
           id="path130"
           style="fill:#e28b65;fill-opacity:1;fill-rule:nonzero;stroke:none"
           d="m 15803.9,10105.5 c 0,0 25,69.7 58.1,78 33.3,8.3 33.3,8.3 33.3,8.3 0,0 35.2,22.8 68.5,26.9 33.1,4.2 55.9,-8.3 55.9,-8.3 0,0 45.7,16.3 89.3,9.2 43.6,-7.1 33.2,-0.9 43.6,-7.1 10.4,-6.2 37.4,0.8 78.9,-20.3 41.5,-21.2 68.5,-81.8 68.5,-81.8 l -496.1,-4.9" /></g><g
         transform="scale(1.04314)"
         id="g132"><path
           id="path134"
           style="fill:#9d9d9c;fill-opacity:1;fill-rule:nonzero;stroke:none"
           d="m 13513.9,9812.38 2687.6,46.33 c 0,0 98.5,-93.52 0,-198.96 l -2726.3,-51.61 -67.1,89.01 105.8,115.23" /></g><path
         id="path136"
         style="fill:#e41d25;fill-opacity:1;fill-rule:nonzero;stroke:none"
         d="m 16099.1,8827.1 c -0.5,-1.5 0.4,1.4 0,0" /><path
         id="path138"
         style="fill:#3970c0;fill-opacity:1;fill-rule:nonzero;stroke:none"
         d="m 16054.9,9560.6 -111.7,497.7 -141,95 23,-54.3 -28.1,-38 10.5,192 -42,-62.9 -154.1,-13.5 -507.6,76.4 -238.3,-86.9 c 0,0 140,-248.7 92.8,-753 -47.3,-504.3 -397.5,-728.5 -607.7,-763.5 -210.1,-35 -567.3,-357.2 -574.3,-385.2 -7,-28 -259.2,-392.3 -259.2,-392.3 0,0 308.2,-28 651.4,-175.1 343.2,-147.1 1016.1,-108.1 1016.1,-108.1 l 221.4,164.1 c 0,0 275.5,397 392.2,546.4 98.8,126.5 277.8,358.1 329.8,539.3 85.9,289.6 -73.2,721.9 -73.2,721.9" /><path
         id="path140"
         style="fill:#1e1c1b;fill-opacity:1;fill-rule:nonzero;stroke:none"
         d="m 13440.2,8049.7 c 0,0 -448.3,-390 -551,-763.6 -102.8,-373.6 144.7,-723.8 438.9,-870.9 294.2,-147.1 630.4,-196.1 889.5,-84 l 133.1,42 c 0,0 -189.1,273.2 -224.1,588.4 -35,315.1 218.7,651.4 396.5,791.4 0,0 -648.7,79 -886.8,116.6 -238.2,37.5 -196.1,180.1 -196.1,180.1" /><path
         id="path142"
         style="fill:#fbc398;fill-opacity:1;fill-rule:nonzero;stroke:none"
         d="m 15326.6,10609.3 c 0,0 -21.3,-109.2 -66.8,-207.2 -45.6,-98.1 -33.9,-69.4 -33.9,-69.4 l -194.7,-104.6 c 0,0 216.1,-287.3 356.2,-518.5 140.1,-231.1 197.7,-445.9 227.4,-509 90.8,-193 291.1,-255 360.7,-51.3 30.9,90.1 -115,817.3 -115,873.3 0,56 203.8,318.9 203.8,318.9 l -300.2,726 h -199.6 c 0,0 -115.6,-343.2 -129.6,-336.2 -14,7 -73.6,-70.1 -73.6,-70.1 l -34.7,-51.9" /><path
         id="path144"
         style="fill:#fbc398;fill-opacity:1;fill-rule:nonzero;stroke:none"
         d="m 14865.6,10166.1 c 0,0 -155.3,-54.9 -272.1,-125 L 14098.6,9231 13517.2,7872.1 c 0,0 105.1,-35 273.2,154.1 168.1,189.1 560.3,623.4 560.3,623.4 0,0 451.9,78.9 576.2,585.8 124.3,506.9 -32.2,836.1 -61.3,930.7" /><path
         id="path146"
         style="fill:#dc9b70;fill-opacity:1;fill-rule:nonzero;stroke:none"
         d="m 14740,10115.4 c 0,0 40.3,-213.1 -29.7,-351.5 -70.1,-138.3 -145.6,-196.5 -187.2,-277.2 -41.6,-80.6 -311.2,-631.6 -426.3,-888.5 -115,-256.8 -253.5,-470 -366.4,-538.5 -112.8,-68.5 -173.5,230.3 -98.8,403.1 74.7,172.8 681.8,1396.2 681.8,1396.2 l 303.3,192.2 123.3,64.2" /><path
         id="path148"
         style="fill:#fbc398;fill-opacity:1;fill-rule:nonzero;stroke:none"
         d="m 14434.8,9635.7 c 0,0 -288.3,-778.8 -319.4,-835.8 -31.1,-56.9 -184.9,-402.3 -269.1,-563.5 -84.2,-161.2 -220.3,-305.2 -304.9,-370.6 -84.6,-65.4 -294.9,-62 -413.8,14 -118.9,76.1 -32.8,292.3 -30.7,381.1 2.2,88.8 17.6,184.2 66.6,269.6 49,85.5 834.1,966.8 937.7,1105.2 h 333.6" /><path
         id="path150"
         style="fill:#fbc398;fill-opacity:1;fill-rule:nonzero;stroke:none"
         d="m 14101.2,9635.7 c -0.9,-52.4 -13.9,31.4 -34.1,190.6 -4.8,37.3 -10.6,88.8 -10.6,196.3 0,0 104,26.2 184.6,15.4 80.5,-10.8 83.2,-6.9 158.1,-8.9 84.3,-2.3 194.3,12 194.3,12 l 146.5,74.3 c 0,0 -6.1,-278 -116.1,-397.6 -121.3,-131.9 -257.2,-295.1 -286.8,-344.5 -29.7,-49.5 3.1,95.2 -49.4,103.2 -52.5,7.9 -186.5,159.2 -186.5,159.2" /><path
         id="path152"
         style="fill:#fbc398;fill-opacity:1;fill-rule:nonzero;stroke:none"
         d="m 14096.8,10235.6 148.9,-17 c 0,0 133.3,-150.2 156.5,-164.7 23.2,-14.5 52.6,-11.2 52.6,-11.2 0,0 32.4,-27.4 65.4,-18.2 33.1,9.1 34.2,25.6 34.2,25.6 0,0 25.8,-24.6 62.3,1.1 0,0 64.6,-13.8 63.5,27.1 -1.2,40.9 -51.3,175.8 -94.9,206.6 -43.6,30.8 -263.6,75.3 -340.7,72.6 -77,-2.7 -147.8,-121.9 -147.8,-121.9" /><g
         transform="scale(1.02136)"
         id="g154"><path
           id="path156"
           style="fill:#dc9b70;fill-opacity:1;fill-rule:nonzero;stroke:none"
           d="m 15637.1,6621.65 c 38.1,31.43 141.6,73.24 288,123.46 146.3,50.23 374.9,150.88 374.9,150.88 0,0 -237.7,-219.51 -443.5,-310.96 -205.7,-91.35 -551,-375.08 -551,-375.08 0,0 176.1,283.73 331.6,411.7" /></g><g
         transform="scale(1.01984)"
         id="g158"><path
           id="path160"
           style="fill:#fbc398;fill-opacity:1;fill-rule:nonzero;stroke:none"
           d="m 15821.2,10088.9 c 0,0 89.8,111.5 131.3,129.4 41.5,18 144.5,6.9 212.2,-16.1 67.7,-23 118.4,-78.7 125.9,-133.8 7.4,-55.1 9.4,-65.5 -19.6,-73.31 0,0 -6.4,-26.72 -35.5,-34.54 -29,-7.83 -45.2,17.16 -45.2,17.16 0,0 -88.7,-7.09 -115.2,7.74 -26.6,14.85 -91.6,55.15 -118.1,76.75 l -135.8,26.7" /></g><path
         id="path162"
         style="fill:#fbc398;fill-opacity:1;fill-rule:nonzero;stroke:none"
         d="m 16092.3,9984.1 c 0,0 -27.9,162.1 -15,234.5 12.8,72.4 43.7,178.2 82.9,200.8 39.1,22.6 50.4,-154.2 47.3,-248 -0.5,-16.1 14.9,-31 42.2,-136.7 27.2,-105.6 21.7,-145.3 0,-133.6 -21.8,11.6 -157.4,83 -157.4,83" /><path
         id="path164"
         style="fill:#3268a6;fill-opacity:1;fill-rule:nonzero;stroke:none"
         d="m 14816.8,8976.5 c 0,0 71.1,-116.8 157.4,-177.5 86.3,-60.7 315.1,-182.1 315.1,-182.1 0,0 -200.8,44 -373.6,110.7 -172.7,66.8 -220.6,107.4 -220.6,107.4 0,0 97.5,76.2 121.7,141.5" /><path
         id="path166"
         style="fill:#edc9b0;fill-opacity:1;fill-rule:nonzero;stroke:none"
         d="m 14435.9,8674.4 c 48.2,17.6 112.1,46.7 178.6,93 -39.2,-28.6 -78.9,-51.8 -117.5,-70.1 -20.8,-8.8 -41.8,-16.5 -61.1,-22.9" /><path
         id="path168"
         style="fill:#858c98;fill-opacity:1;fill-rule:nonzero;stroke:none"
         d="m 14497,8697.3 c 38.6,18.3 78.3,41.5 117.5,70.1 27.3,19 55.1,41 82.3,66.2 1.2,-0.9 2.8,-2.1 5.2,-3.7 -33.3,-33.2 -71.9,-63.9 -113.1,-82.2 -25.3,-19.4 -58.4,-36.3 -91.9,-50.4 m 223.9,159.6 c 32.2,32.6 63.3,70 91.9,113.1 -8.1,-12.9 -27.8,-43.4 -55.8,-78.3 -12.8,-13.4 -25.5,-25.4 -36.1,-34.8" /><path
         id="path170"
         style="fill:#eaac82;fill-opacity:1;fill-rule:nonzero;stroke:none"
         d="m 14350.7,8649.6 c 0,0 237.7,368.2 256.8,368.2 0,0 0,0 0.1,0 0,0 0.1,0 0.2,0 19.8,0 209,98.8 209,98.8 0,0 -14.9,-41.9 0,-140.1 v 0 c 0,0 -1.4,-2.3 -4,-6.5 -28.6,-43.1 -59.7,-80.5 -91.9,-113.1 -15.2,-13.5 -25.8,-21.9 -25.8,-21.9 0,0 0.5,-0.5 1.7,-1.4 -27.2,-25.2 -55,-47.2 -82.3,-66.2 -66.5,-46.3 -130.4,-75.4 -178.6,-93 -47.7,-16.1 -85.2,-24.8 -85.2,-24.8" /><path
         id="path172"
         style="fill:#83898a;fill-opacity:1;fill-rule:nonzero;stroke:none"
         d="m 14702,8829.9 c -2.4,1.6 -4,2.8 -5.2,3.7 -1.2,0.9 -1.7,1.4 -1.7,1.4 0,0 10.6,8.4 25.8,21.9 10.6,9.4 23.3,21.4 36.1,34.8 -15.9,-20 -34.4,-41.3 -55,-61.8 m 114.8,146.6 v 0 0 0" /><path
         id="path174"
         style="fill:#1e1c1b;fill-opacity:1;fill-rule:nonzero;stroke:none"
         d="m 13183.4,11544.6 c -4.4,1.1 -8.8,2.7 -13.3,3.7 -3.4,0.7 -6.7,1.4 -10.1,2.1 -31.3,7.2 -63,13.1 -95.2,17.5 -402.5,62.3 -694.7,-40.2 -694.7,-40.2 0,0 -29.3,-61.3 -69.4,-145.1 -370.8,-250.9 -628.2,-719.6 -645.4,-1263.7 -18,-569.9 232.2,-1073.8 615.5,-1339.4 60.5,-115.7 136.5,-190.7 231.7,-203.7 560,-76.2 874.8,120.7 874.8,120.7 l 0.6,0.7 c 442.2,221.1 761.5,734.6 780.6,1342.7 23.2,733.3 -397.8,1357 -975.1,1504.7" /><path
         id="path176"
         style="fill:#343434;fill-opacity:1;fill-rule:nonzero;stroke:none"
         d="m 13890.8,10027.9 c -26.2,-827.5 -607.7,-1480.5 -1299,-1458.7 -691.2,21.8 -1230.4,710.2 -1204.3,1537.7 26.1,827.4 607.6,1480.5 1298.9,1458.7 691.3,-21.9 1230.5,-710.3 1204.4,-1537.7" /><path
         id="path178"
         style="fill:#d4d3d1;fill-opacity:1;fill-rule:nonzero;stroke:none"
         d="m 12847,10130.3 c 10.9,-187 -109.1,-346.2 -268,-355.4 -158.9,-9.3 -296.5,134.8 -307.4,321.9 -10.9,187 109.1,346.2 268,355.4 158.9,9.3 296.5,-134.9 307.4,-321.9" /><path
         id="path180"
         style="fill:#9d9d9c;fill-opacity:1;fill-rule:nonzero;stroke:none"
         d="m 12515.6,10258.5 -1263,-16.5 41.9,-299 -2.9,-79.3 1247.1,75.8 v 0 c 7.5,-1 15.1,-1 22.7,0 61.8,8.9 101.6,87.5 88.9,175.6 -12.6,88 -72.9,152.2 -134.7,143.4" /><path
         id="path182"
         style="fill:#b9b8b7;fill-opacity:1;fill-rule:nonzero;stroke:none"
         d="m 11403.3,10067.2 c 10.5,-105.9 -48.9,-198.5 -132.6,-206.8 -83.7,-8.3 -160.1,70.8 -170.6,176.7 -10.5,105.8 48.8,198.4 132.6,206.7 83.7,8.3 160.1,-70.8 170.6,-176.6" /><path
         id="path184"
         style="fill:#fbc398;fill-opacity:1;fill-rule:nonzero;stroke:none"
         d="m 14276.2,6500.5 c 0,0 -52.6,-113.3 -101.1,-414.5 -48.5,-301.2 -384.7,-1337.8 -384.7,-1337.8 0,0 156.5,-63.1 242.9,0 86.3,63 182.3,133 242.9,147.1 60.5,14 116.6,0 116.6,0 0,0 105,343.2 280.1,658.4 175.1,315.2 406.3,630.4 511.3,826.5 105.1,196.1 319.9,424.9 394.6,681.8 74.7,256.8 -56,499.6 -308.2,593 -252.1,93.4 -747.5,98 -747.5,98 0,0 -287.3,-201.4 -383.9,-593.3 -96.7,-391.9 137,-659.2 137,-659.2" /><path
         id="path186"
         style="fill:#dc9b70;fill-opacity:1;fill-rule:nonzero;stroke:none"
         d="m 14630.9,6889.2 c 0,0 -223.9,-114.2 -354.7,-388.7 l -85.4,138.4 c 0,0 131.9,254.9 440.1,250.3" /><path
         id="path188"
         style="fill:#dc9b70;fill-opacity:1;fill-rule:nonzero;stroke:none"
         d="m 14593.5,10041.1 c 0,0 -25.6,-48.4 -95.7,-86 -70,-37.7 -147.1,-121.8 -147.1,-121.8 0,0 7,50.2 0,103.9 -7,53.7 -24.6,93 -24.6,93 l 137.6,4.5 c 0,0 16.6,-10.3 40.3,-12.1 23.6,-1.9 48.1,14.8 48.1,14.8 l 41.4,3.7" /><path
         id="path190"
         style="fill:#f4f3f3;fill-opacity:1;fill-rule:nonzero;stroke:none"
         d="m 13948.3,5250.8 c -83.7,-273.8 -157.9,-502.6 -157.9,-502.6 0,0 156.5,-63.1 242.9,0 86.3,63 182.3,133 242.9,147.1 60.5,14 116.6,0 116.6,0 0,0 49.4,161.4 137,364.6 -205.8,-16.2 -410.4,-15.6 -581.5,-9.1" /><path
         id="path192"
         style="fill:#f4f3f3;fill-opacity:1;fill-rule:nonzero;stroke:none"
         d="m 15177.3,5480.6 c -46,-82.9 -84.7,-151.9 -112.1,-202.4 -88.7,-163.5 -111.3,-229.9 -111.3,-229.9 0,0 117.9,-179 206.6,-160.3 88.7,18.7 161.5,105.3 289.9,170.7 128.4,65.4 149.3,79.4 149.3,79.4 0,0 74.9,143.1 186.2,309.2 -218.8,2.9 -442,18.6 -608.6,33.3" /><g
         transform="scale(1.01796)"
         id="g194"><path
           id="path196"
           style="fill:#fbc398;fill-opacity:1;fill-rule:nonzero;stroke:none"
           d="m 15983.9,9844.2 -62.4,40.05 c 0,0 27.5,14.86 139.4,21.97 112,7.11 239.1,-19.88 239.1,-19.88 l -182.2,-78.42 -133.9,36.28" /></g><g
         transform="scale(1.01543)"
         id="g198"><path
           id="path200"
           style="fill:#dc9b70;fill-opacity:1;fill-rule:nonzero;stroke:none"
           d="m 15994.5,9916.77 c 0,0 57.4,-12.93 102.3,-46.47 45,-33.58 61.2,-37.91 61.2,-37.91 0,0 77.9,65.09 142,85.93 0,0 -101.3,50.98 -305.5,-1.55" /></g><path
         id="path202"
         style="fill:#fbc398;fill-opacity:1;fill-rule:nonzero;stroke:none"
         d="m 15277,10630.6 -123.1,-377.6 53.7,-43.7 c 0,0 315.2,187.2 310.5,257 -4.6,69.8 62.3,370.4 62.3,370.4 l -303.4,-206.1" /><path
         id="path204"
         style="fill:#fbc398;fill-opacity:1;fill-rule:nonzero;stroke:none"
         d="m 14740,10115.4 c 0,0 0.8,57.6 -34.4,93.9 -35.1,36.2 -58.4,-30.7 -86.4,-123.9 -28,-93.3 -58.3,-156.3 -42,-148.2 16.3,8.2 67.1,5.9 79.1,8.2 12,2.4 83.7,170 83.7,170" /><g
         transform="scale(1.01068)"
         id="g206"><path
           id="path208"
           style="fill:#252323;fill-opacity:1;fill-rule:nonzero;stroke:none"
           d="m 16265.9,11129.7 c 0,0 34.1,153.7 -7.7,269.4 -41.7,115.6 -187.7,207.5 -320.4,212.2 -132.9,4.7 -244.7,64.7 -374.1,54.3 -129.5,-10.3 -214.4,-105.4 -214.4,-105.4 0,0 -204.5,13.6 -282,-285.8 -106.3,-410.4 26.1,-744.7 26.3,-752.9 0.8,-68.1 63.7,-5.3 134.2,35.5 70.4,40.8 249.8,220.8 249.8,220.8 0,0 313.2,-122.5 324.6,-109.7 11.4,12.9 394.2,409.4 394.2,409.4 l 60.7,40.1 c 0,0 -8.8,-15.8 -0.6,-11.2 -3.1,3.5 9.4,23.3 9.4,23.3" /></g><g
         transform="scale(1.00944)"
         id="g210"><path
           id="path212"
           style="fill:#fbc398;fill-opacity:1;fill-rule:nonzero;stroke:none"
           d="m 16285.9,11143.5 c 0,0 14.1,-202 10.4,-246.7 -3.7,-44.7 -67.1,-164.8 -70.9,-185.7 -3.8,-21 46.8,-265.9 39.6,-277.8 -7,-11.9 -94.6,1.2 -99.8,-5 -5.3,-6.2 -37.9,-81 -38.2,-89.2 -0.4,-8.2 -7.8,-23.6 -7.8,-23.6 0,0 -4.2,-34.3 -15.9,-48.2 -11.8,-13.9 -23.1,-41.1 -28.9,-51.1 -5.6,-10 -42.1,-127.5 -62.1,-139.9 -19.9,-12.4 -266.6,51.7 -301.8,74.4 -35.3,22.8 -192.5,299.8 -198.8,347.8 -6.3,48.1 32.4,174.7 32.4,174.7 0,0 -96.7,52.6 -109.3,148.7 -12.6,96.1 47.4,239.4 139.3,234.4 91.9,-5 95.1,-129.6 95.1,-162.9 0.1,-33.4 3,-77.1 6.4,-81.4 3.4,-4.3 84,67.3 116.8,108.8 32.7,41.5 22.9,179.4 52.7,226.6 29.8,47.2 115.4,80.7 150.7,81.7 35.1,1.1 290.1,-85.6 290.1,-85.6" /></g><path
         id="path214"
         style="fill:#dc9b70;fill-opacity:1;fill-rule:nonzero;stroke:none"
         d="m 15906.7,10275.4 c 45,-33 110.6,-67.4 161.4,-91.9 0,0 -131,-19.8 -154.6,-7.6 -120.7,62.8 -249.1,373.2 -255.4,421.7 -6.4,48.5 32.7,176.3 32.7,176.3 0,0 -2.6,-128.7 12,-193.5 14.6,-64.8 120.9,-243.9 203.9,-305" /></g></g></svg>