<?xml version="1.0" encoding="UTF-8" standalone="no"?>
<svg
   xmlns:dc="http://purl.org/dc/elements/1.1/"
   xmlns:cc="http://creativecommons.org/ns#"
   xmlns:rdf="http://www.w3.org/1999/02/22-rdf-syntax-ns#"
   xmlns:svg="http://www.w3.org/2000/svg"
   xmlns="http://www.w3.org/2000/svg"
   viewBox="0 0 2666.6667 2666.6667"
   height="2666.6667"
   width="2666.6667"
   xml:space="preserve"
   id="svg2"
   version="1.1"><metadata
     id="metadata8"><rdf:RDF><cc:Work
         rdf:about=""><dc:format>image/svg+xml</dc:format><dc:type
           rdf:resource="http://purl.org/dc/dcmitype/StillImage" /></cc:Work></rdf:RDF></metadata><defs
     id="defs6" /><g
     transform="matrix(1.3333333,0,0,-1.3333333,0,2666.6667)"
     id="g10"><g
       transform="scale(0.1)"
       id="g12"><g
         transform="scale(1.22699)"
         id="g14"><path
           id="path16"
           style="fill:#ffffff;fill-opacity:1;fill-rule:nonzero;stroke:none"
           d="M 16300,0 H 0 V 16300 H 16300 V 0" /></g><path
         id="path18"
         style="fill:#fbc398;fill-opacity:1;fill-rule:nonzero;stroke:none"
         d="m 7642.04,13007.2 82.62,-84.7 c 0,0 69.04,-62.1 105.41,-128 60.24,-109.2 60.24,-481.9 60.24,-481.9 0,0 -150.59,-75.3 -210.82,45.2 -60.24,120.5 -160.85,327.5 -160.85,327.5 l 123.4,321.9" /><path
         id="path20"
         style="fill:#a1a1a0;fill-opacity:1;fill-rule:nonzero;stroke:none"
         d="m 2463.69,7986.9 v -234.3 c 0,0 1214.12,87.5 1349.64,64.9 135.54,-22.6 299.3,-129.9 321.89,-333.2 22.59,-203.3 0,-1228.3 0,-1228.3 l -1005.18,48.1 c 0,0 -107.29,-101.6 -39.53,-271.1 l 2563.76,-220.2 c 0,0 11.3,180.7 -62.11,276.7 l -1140.7,134.3 c 0,0 16.93,1181.5 0,1413 -16.95,231.5 -199.86,415.7 -467.93,514.7 -268.08,99 -977.72,55.7 -1062.43,24.6 -84.7,-31.1 -457.41,-189.2 -457.41,-189.2" /><path
         id="path22"
         style="fill:#838585;fill-opacity:1;fill-rule:nonzero;stroke:none"
         d="m 3672.91,8151.5 c 0,0 494.11,-115.6 601.41,-369.7 107.29,-254.1 63.53,-1544.5 63.53,-1544.5 l 113.61,-13.5 c 0,0 16.93,1181.5 0,1413 -16.95,231.5 -199.86,415.7 -467.93,514.7 -76.6,28.2 -189.25,44.9 -313.06,53.5 2.47,-33.6 2.44,-53.5 2.44,-53.5" /><path
         id="path24"
         style="fill:#3a70c0;fill-opacity:1;fill-rule:nonzero;stroke:none"
         d="m 7145.09,6059.4 c 0,0 -161.57,18.8 -201.25,-90.4 -39.68,-109.1 -17.1,-188.2 -39.68,-286.1 -22.59,-97.9 -48.95,-282.3 22.58,-297.4 71.53,-15 272.82,15.1 418.76,-30.1 145.95,-45.2 605.24,-41.4 657.95,0 52.7,41.4 -7.53,176.9 -128.01,252.2 -120.46,75.3 -399.05,357.7 -402.82,380.3 -3.76,22.6 22.59,109.2 -71.53,165.6 -94.11,56.5 -90.35,94.1 -127.99,52.7 -37.65,-41.4 -128.01,-146.8 -128.01,-146.8" /><path
         id="path26"
         style="fill:#fbc398;fill-opacity:1;fill-rule:nonzero;stroke:none"
         d="m 5533.8,9003.4 c 0,0 -158.11,-308.7 -180.7,-312.5 -22.59,-3.7 -256,116.7 -500.71,116.7 -244.7,0 -429.17,-60.2 -632.46,-86.6 -203.3,-26.3 -534.59,-22.7 -545.89,-30.2 -11.29,-7.4 -109.17,-99.3 -124.23,-188.9 -15.06,-89.6 101.65,-191.2 101.65,-191.2 0,0 75.29,26.3 86.58,26.3 11.3,0 820.71,-112.9 1020.24,-112.9 199.53,0 421.64,-26.3 549.64,-56.5 128,-30.1 301.18,-26.3 489.41,82.9 188.24,109.1 384.56,414.1 384.56,414.1 0,0 -270.59,366.4 -350.67,411 -80.09,44.6 -297.42,-72.2 -297.42,-72.2" /><path
         id="path28"
         style="fill:#fbc398;fill-opacity:1;fill-rule:nonzero;stroke:none"
         d="m 6943.84,8856.6 133.49,-1033.4 c 0,0 -128,-431.1 -90.35,-653.2 37.64,-222.1 48.94,-395.3 64,-666.4 15.05,-271 -7.53,-576 11.29,-591 18.82,-15.1 188.24,97.9 188.24,97.9 0,0 26.35,82.8 56.47,101.6 30.12,18.8 94.11,41.4 94.11,41.4 0,0 109.18,576 192,907.3 82.83,331.3 41.41,673.9 64.01,749.2 22.58,75.3 33.88,263.5 60.23,478.1 26.35,214.6 41.41,459.3 18.82,463.1 -22.59,3.7 -342.59,120.4 -448,105.4 -105.41,-15.1 -344.31,0 -344.31,0" /><path
         id="path30"
         style="fill:#fbc398;fill-opacity:1;fill-rule:nonzero;stroke:none"
         d="m 7747.17,9231.2 c 0,0 224.47,-37.6 264.75,30.1 40.27,67.8 0,526 0,526 0,0 -200.38,129.1 -246.64,95.2 -46.27,-33.9 -219.12,-51.9 -152.46,-169.9 66.67,-118.1 134.35,-481.4 134.35,-481.4" /><path
         id="path32"
         style="fill:#fbc398;fill-opacity:1;fill-rule:nonzero;stroke:none"
         d="m 7862.27,12046.4 34.7,-41.9 c 0,0 18.95,-95.7 30.24,-239.7 11.3,-144 -14.11,-375.5 0,-451.8 14.12,-76.2 29.78,-256.9 23.36,-663.5 -6.42,-406.6 61.35,-862.2 61.35,-862.2 l -95.06,-61.1 h -199.53 c 0,0 -128,485.7 -176.94,756.7 -48.94,271.1 0,1204.7 0,1204.7 l 321.88,358.8" /><path
         id="path34"
         style="fill:#252323;fill-opacity:1;fill-rule:nonzero;stroke:none"
         d="m 7645.8,10652.3 c 0,0 22.59,-48.9 37.65,-154.3 15.06,-105.4 125.69,-196.7 209.67,-945.4 83.97,-748.7 72.68,-970.9 72.68,-955.8 0,15.1 -207.06,-71.5 -606.12,-48.9 -399.05,22.6 -481.88,60.2 -481.88,60.2 0,0 -41.41,-116.7 -41.41,-105.4 0,11.3 -780.82,97.9 -836.53,124.2 -55.7,26.4 -466.06,361.4 -466.06,376.5 0,15.1 286.12,632.6 312.47,753 26.36,120.4 199.54,451.7 203.3,463 3.76,11.3 327.52,598.6 327.52,598.6 0,0 865.89,128 880.95,101.6 15.06,-26.3 387.76,-267.3 387.76,-267.3" /><path
         id="path36"
         style="fill:#3a70c0;fill-opacity:1;fill-rule:nonzero;stroke:none"
         d="m 6789.33,13292.3 -87.53,-28.2 c 0,0 -415.06,-1105.9 -422.59,-1147.3 -7.53,-41.4 131.77,-696.5 131.77,-696.5 l -33.89,-602.3 c 0,0 737.89,-188.2 929.89,-192 191.99,-3.8 338.82,26.3 338.82,26.3 0,0 37.65,470.6 60.24,542.1 22.58,71.6 124.23,632.5 124.23,632.5 0,0 112.31,278.6 120.15,369 7.85,90.3 -305.56,802.8 -308.38,811.3 -2.83,8.4 -186.36,169.4 -186.36,169.4 0,0 -457.41,90.3 -480,90.3 -22.58,0 -186.35,25.4 -186.35,25.4" /><path
         id="path38"
         style="fill:#fbc398;fill-opacity:1;fill-rule:nonzero;stroke:none"
         d="m 6944.34,13736.5 c 0,0 0.28,-238.1 -47.71,-322.8 -48.01,-84.7 -107.3,-121.4 -107.3,-121.4 0,0 203.3,-240 330.35,-406.6 127.06,-166.5 197.65,-293.6 350.12,-302.1 152.47,-8.4 160.94,104.5 132.7,282.4 -28.23,177.9 -124.23,279.5 -124.23,279.5 0,0 8.99,369.9 14.38,384 5.39,14.1 -299.55,578.8 -389.91,550.6 -90.35,-28.2 -144,28.2 -144,-53.7 0,-81.8 -14.4,-289.9 -14.4,-289.9" /><path
         id="path40"
         style="fill:#df9866;fill-opacity:1;fill-rule:nonzero;stroke:none"
         d="m 7149.38,13831.7 c 0,0 57.83,-324.8 80.42,-361.5 22.59,-36.7 252.18,-186.5 252.18,-186.5 l 10.67,245.8 c 0,0 -237.44,324.7 -245.91,324.7 -8.47,0 -97.36,-22.5 -97.36,-22.5" /><path
         id="path42"
         style="fill:#12110f;fill-opacity:1;fill-rule:nonzero;stroke:none"
         d="m 2554.05,8176.1 c 0,8.5 -90.36,109.8 -90.36,109.8 v 79.4 l 490.44,22.3 c 0,0 811.68,164.3 847.91,141.4 36.24,-22.8 293.3,-42.8 288,-107.3 -5.29,-64.4 -1535.99,-245.6 -1535.99,-245.6" /><path
         id="path44"
         style="fill:#252323;fill-opacity:1;fill-rule:nonzero;stroke:none"
         d="m 7091.96,13934.9 c -0.76,-8.2 -36.41,-20.7 -36.41,-20.7 0,0 -18.68,-59.6 -31.59,-74.8 -12.92,-15.2 -80.37,-120.8 -79.91,-115.9 0.46,4.9 -119.4,267.5 -128.13,332.3 -8.73,64.9 -19.91,261.9 49.48,389.7 69.39,127.9 233.47,232.5 349.84,247.9 116.37,15.4 194.04,3.3 297.8,6.7 103.77,3.5 175.97,-67.3 243.99,-95 68.02,-27.7 129.68,-53.1 151.23,-138.9 21.56,-85.7 -36.54,-157.5 -36.54,-157.5 l -447.13,-474.9 c 0,0 -180.1,-53.3 -191.1,-30.3 -10.99,22.9 -141.53,131.4 -141.53,131.4" /><path
         id="path46"
         style="fill:#fbc398;fill-opacity:1;fill-rule:nonzero;stroke:none"
         d="m 7255.61,14064.1 c 0,0 -95.32,81.1 -160.83,82.8 -65.52,1.8 -66.55,-103.2 -59.4,-167.3 7.15,-64.2 50.45,-116.4 75.27,-131.8 24.83,-15.5 33.55,-31.4 33.55,-31.4 0,0 69.8,-245.4 120.37,-313.6 50.55,-68.2 453.44,-143.5 475.82,-132.4 22.37,11 79.75,309.4 79.75,309.4 0,0 93.84,2.7 104.98,16.5 11.13,13.7 -72.03,213.6 -60.54,248.6 11.47,35.1 18.55,22.9 30.67,82.5 12.13,59.6 -23.74,291.2 -26.54,296.4 -2.8,5.2 -187.1,53.6 -266.14,51.1 -79.04,-2.5 -75.22,-116.1 -91.35,-159 -16.13,-42.8 -113.66,-102.7 -126.46,-134.3 -12.8,-31.6 -28.27,-127.1 -41.89,-132.4 -13.64,-5.3 -44.11,2.5 -44.11,2.5 l -43.15,112.4" /><path
         id="path48"
         style="fill:#fbc398;fill-opacity:1;fill-rule:nonzero;stroke:none"
         d="m 6744.16,13156.8 c 0,0 132.7,-279.5 186.35,-519.5 53.65,-240 -64.94,-499.8 -172.24,-609.9 -107.29,-110.1 -175.06,-129.9 -175.06,-129.9 0,0 -8.47,-194.8 -90.35,-336 -81.88,-141.2 -135.53,-217.4 -135.53,-217.4 0,0 11.3,-352.9 -16.94,-640.9 -28.24,-288 -73.42,-528 -73.42,-528 l -256.93,-19.8 c 0,0 -73.41,367 -87.53,629.6 -14.12,262.6 39.53,522.4 39.53,522.4 0,0 -7.56,321.9 -41.9,448.9 -34.33,127.1 -41.89,327.6 0,615.6 0,0 -0.45,293.6 129.43,451.7 129.88,158.1 316.23,197.7 316.23,197.7 0,0 183.53,183.5 336,242.8 l 42.36,-107.3" /><path
         id="path50"
         style="fill:#929292;fill-opacity:1;fill-rule:nonzero;stroke:none"
         d="m 5482.25,9458.1 c -33.1,292.2 42.23,540.6 168.26,554.9 66.26,9.1 165.16,18.7 165.16,18.7 0,0 16.29,-82.7 37.75,-201.9 40.43,-86.4 71.3,-197.2 85.2,-320 9.88,-87.1 10.03,-170.3 2.14,-244.7 18.19,-158.9 22.65,-281.9 -5.25,-291.4 -82.9,-28.4 -165.15,-18.7 -165.15,-18.7 -126.03,-14.3 -255.02,211 -288.11,503.1" /><path
         id="path52"
         style="fill:#c4c2c1;fill-opacity:1;fill-rule:nonzero;stroke:none"
         d="m 5647.4,9476.8 c 33.1,-292.1 162.09,-517.4 288.11,-503.1 126.03,14.2 201.37,262.7 168.27,554.8 -33.09,292.2 -162.09,517.5 -288.11,503.2 -126.03,-14.3 -201.36,-262.7 -168.27,-554.9" /><path
         id="path54"
         style="fill:#686a6c;fill-opacity:1;fill-rule:nonzero;stroke:none"
         d="m 5816.36,9499.6 c 7.14,-75.3 47.08,-133.1 89.21,-129.2 42.13,4 70.48,68.3 63.34,143.7 -7.15,75.3 -47.09,133.1 -89.21,129.1 -42.13,-4 -70.49,-68.3 -63.34,-143.6" /><path
         id="path56"
         style="fill:#686a6c;fill-opacity:1;fill-rule:nonzero;stroke:none"
         d="m 5879.7,9643.2 750.08,113.2 49.02,-263.7 -773.23,-122.3 -25.87,272.8" /><path
         id="path58"
         style="fill:#f5ddcc;fill-opacity:1;fill-rule:nonzero;stroke:none"
         d="m 5919.96,12370.6 c 0.06,0.4 0.12,0.8 0.18,1.3 -0.06,-0.5 -0.12,-0.9 -0.18,-1.3" /><path
         id="path60"
         style="fill:#f1b386;fill-opacity:1;fill-rule:nonzero;stroke:none"
         d="m 6117.33,12177 c 0,0 -108.89,2.9 -206.67,123.7 2.81,22.8 5.82,45.9 9.3,69.9 0.06,0.4 0.12,0.8 0.18,1.3 v 0 0 0 0 c 0,0 -0.02,14.4 1.36,38.5 0.05,-0.1 86.69,-199.5 195.83,-233.4" /><path
         id="path62"
         style="fill:#f5ddcc;fill-opacity:1;fill-rule:nonzero;stroke:none"
         d="m 5962.04,11307.4 v 0 0 m 0,0 v 0 0 m 0,0 c -0.01,0.3 -0.64,27 -2.34,67.8 v 0 c 1.71,-40.9 2.33,-67.5 2.34,-67.8" /><path
         id="path64"
         style="fill:#f1b386;fill-opacity:1;fill-rule:nonzero;stroke:none"
         d="m 6068.4,11021.3 c 0,0 -75.5,70.5 -125.67,168.2 9.81,71.5 19.13,117 19.31,117.9 v 0 c 0,0 0,0 0,0 v 0 0 0 0 0 0 c -0.01,0.3 -0.63,26.9 -2.34,67.8 0.31,-1.9 41.19,-252.7 108.7,-353.9" /><path
         id="path66"
         style="fill:#df9866;fill-opacity:1;fill-rule:nonzero;stroke:none"
         d="m 6771.35,12041.6 c -113.7,51.5 -188.14,138.3 -188.14,138.3 l 33.36,-266.9 c 30.08,16.8 79.08,50.1 141.7,114.4 4.35,4.5 8.71,9.2 13.08,14.2" /><path
         id="path68"
         style="fill:#fbc398;fill-opacity:1;fill-rule:nonzero;stroke:none"
         d="m 6010.04,10155.4 c 0,0 1.88,-305 0,-359.5 -1.89,-54.6 -13.18,-333.2 -9.41,-350.2 3.76,-16.9 41.41,-20.7 58.35,-45.1 16.94,-24.5 48.94,-50.9 77.18,-58.4 28.23,-7.5 50.82,0 50.82,0 0,0 45.18,-33.9 96,-26.3 50.82,7.5 69.65,24.4 67.76,30.1 -1.88,5.6 -71.53,124.2 -73.41,167.5 -1.88,43.3 86.59,318.1 86.59,329.4 0,11.3 -58.35,161.9 -64,178.8 -5.65,17 -32.94,153.5 -32.94,153.5 0,0 -66.82,95 -98.83,83.7 -31.99,-11.3 -158.11,-103.5 -158.11,-103.5" /><path
         id="path70"
         style="fill:#929292;fill-opacity:1;fill-rule:nonzero;stroke:none"
         d="m 7893.12,9552.6 c -10.65,293.8 83.47,535.8 210.21,540.3 66.76,4 166.11,6.1 166.11,6.1 0,0 9.92,-83.8 22.19,-204.3 33.7,-89.2 56.01,-202 60.48,-325.5 3.18,-87.7 -3.03,-170.6 -16.59,-244.1 5.98,-159.9 1.03,-282.9 -27.52,-290.3 -84.84,-21.9 -166.11,-6 -166.11,-6 -126.75,-4.6 -238.13,229.9 -248.77,523.8" /><path
         id="path72"
         style="fill:#c4c2c1;fill-opacity:1;fill-rule:nonzero;stroke:none"
         d="m 8059.22,9558.6 c 10.65,-293.9 122.03,-528.3 248.78,-523.8 126.75,4.6 220.86,246.6 210.22,540.4 -10.65,293.9 -122.03,528.4 -248.78,523.8 -126.75,-4.6 -220.87,-246.6 -210.22,-540.4" /><path
         id="path74"
         style="fill:#686a6c;fill-opacity:1;fill-rule:nonzero;stroke:none"
         d="m 8229.42,9568.4 c 1.36,-75.7 36.76,-136.4 79.07,-135.6 42.31,0.7 75.5,62.7 74.14,138.3 -1.36,75.7 -36.76,136.4 -79.07,135.6 -42.31,-0.7 -75.5,-62.7 -74.14,-138.3" /><path
         id="path76"
         style="fill:#100f0d;fill-opacity:1;fill-rule:nonzero;stroke:none"
         d="m 7404.86,9410 c 0,0 -180.7,-77.5 -188.23,-95.2 -7.53,-17.8 -338.83,-706.7 -338.83,-706.7 l 169.97,-33.4 225.33,684.7 131.76,150.6" /><path
         id="path78"
         style="fill:#3a70c0;fill-opacity:1;fill-rule:nonzero;stroke:none"
         d="m 3835.93,8618.6 c 15.06,-3 139.29,64.7 146.82,96.8 7.53,32 -41.41,139 -73.41,238 -32,98.9 -27.2,170.5 -50.31,185.5 -23.1,15.1 -158.63,37.7 -252.75,0 -94.12,-37.6 -195.77,-165.6 -289.88,-229.6 -94.12,-64 -161.88,-67.8 -229.65,-116.7 -67.77,-49 -192,-218.4 -214.59,-256 -22.58,-37.7 -18.82,-143.1 -18.82,-143.1 0,0 293.65,-11.3 361.41,-48.9 67.76,-37.7 470.59,-105.4 500.7,-94.1 30.12,11.2 124.24,188.2 124.24,188.2 l -3.76,179.9" /><path
         id="path80"
         style="fill:#f2f2f2;fill-opacity:1;fill-rule:nonzero;stroke:none"
         d="m 4169.6,8715.4 c -203.3,-20.2 -485.15,-17.7 -495.56,-24.6 -11.29,-7.4 -109.17,-99.3 -124.23,-188.9 -15.06,-89.6 101.65,-191.2 101.65,-191.2 0,0 75.29,26.3 86.58,26.3 5.29,0 185.76,-24.7 396.62,-51.1 -15.34,162 10.83,328.5 34.94,429.5" /><path
         id="path82"
         style="fill:#2c2a2a;fill-opacity:1;fill-rule:nonzero;stroke:none"
         d="m 2463.69,7986.9 v 299 l 1801.41,79.4 389.65,-79.4 V 8128.1 L 2463.69,7986.9" /><path
         id="path84"
         style="fill:#f1b386;fill-opacity:1;fill-rule:nonzero;stroke:none"
         d="m 7425.8,8078.9 c -113.53,0 -179.06,72.6 -179.06,72.6 0,0 51.59,-16.4 115.51,-16.4 45.29,0 96.78,8.2 140.49,36.3 105.41,67.8 101.65,203.3 101.65,203.3 0,0 52.71,-244.7 -105.41,-286.1 -26.21,-6.9 -50.63,-9.7 -73.18,-9.7" /><path
         id="path86"
         style="fill:#f2f2f2;fill-opacity:1;fill-rule:nonzero;stroke:none"
         d="m 7045.46,6600.8 c 1.82,-31 3.64,-63.3 5.52,-97.2 15.06,-271 -7.53,-576 11.29,-591 18.83,-15.1 188.24,97.9 188.24,97.9 0,0 26.35,82.8 56.47,101.6 30.11,18.8 94.11,41.4 94.11,41.4 0,0 38.06,200.8 86.27,433.4 -144.17,-5 -329.16,5.7 -441.9,13.9" /><path
         id="path88"
         style="fill:#929292;fill-opacity:1;fill-rule:nonzero;stroke:none"
         d="m 6255.48,9580.4 c -33.09,292.1 42.24,540.6 168.27,554.8 66.25,9.1 165.16,18.7 165.16,18.7 0,0 16.29,-82.7 37.74,-201.9 40.43,-86.3 71.3,-197.2 85.21,-319.9 9.87,-87.2 10.03,-170.4 2.13,-244.7 18.19,-159 22.66,-282 -5.24,-291.5 -82.91,-28.4 -165.16,-18.7 -165.16,-18.7 -126.02,-14.3 -255.02,211 -288.11,503.2" /><path
         id="path90"
         style="fill:#c4c2c1;fill-opacity:1;fill-rule:nonzero;stroke:none"
         d="m 6420.63,9599.1 c 33.1,-292.2 162.09,-517.5 288.12,-503.2 126.03,14.3 201.36,262.7 168.27,554.9 -33.1,292.1 -162.09,517.4 -288.12,503.1 -126.02,-14.2 -201.36,-262.7 -168.27,-554.8" /><path
         id="path92"
         style="fill:#686a6c;fill-opacity:1;fill-rule:nonzero;stroke:none"
         d="m 6589.59,9621.8 c 7.15,-75.3 47.09,-133.1 89.21,-129.1 42.13,4 70.49,68.3 63.34,143.6 -7.14,75.3 -47.08,133.2 -89.21,129.2 -42.12,-4 -70.48,-68.3 -63.34,-143.7" /><g
         transform="scale(1.03588)"
         id="g94"><path
           id="path96"
           style="fill:#929292;fill-opacity:1;fill-rule:nonzero;stroke:none"
           d="m 15853.8,7379.21 c -10.2,283.62 80.6,517.14 202.9,521.58 64.5,3.86 160.4,5.89 160.4,5.89 0,0 9.6,-80.9 21.4,-197.22 32.5,-86.11 54.1,-195 58.4,-314.23 3.1,-84.66 -2.9,-164.69 -16,-235.64 5.8,-154.36 1,-273.1 -26.6,-280.25 -81.8,-21.23 -160.3,-5.79 -160.3,-5.79 -122.4,-4.44 -229.9,221.94 -240.2,505.66" /></g><g
         transform="scale(1.04653)"
         id="g98"><path
           id="path100"
           style="fill:#c4c2c1;fill-opacity:1;fill-rule:nonzero;stroke:none"
           d="m 15851.2,7309.85 c 10.2,-280.83 116.6,-504.91 237.7,-500.51 121.1,4.39 211.1,235.63 200.9,516.37 -10.2,280.83 -116.6,504.81 -237.8,500.51 -121,-4.4 -210.9,-235.64 -200.8,-516.37" /></g><g
         transform="scale(1.03764)"
         id="g102"><path
           id="path104"
           style="fill:#c4c2c1;fill-opacity:1;fill-rule:nonzero;stroke:none"
           d="m 16151,7381.91 c 1.4,-72.95 35.5,-131.45 76.2,-130.77 40.8,0.77 72.8,60.52 71.4,133.38 -1.2,72.95 -35.3,131.45 -76.1,130.68 -40.8,-0.68 -72.7,-60.43 -71.5,-133.29" /></g><path
         id="path106"
         style="fill:#929292;fill-opacity:1;fill-rule:nonzero;stroke:none"
         d="m 15735.7,7575.4 c -10.7,293.8 83.5,535.8 210.2,540.3 66.8,4 166.1,6.1 166.1,6.1 0,0 9.9,-83.8 22.2,-204.3 33.7,-89.2 56,-202 60.5,-325.5 3.2,-87.7 -3,-170.6 -16.6,-244.1 6,-159.9 1,-282.9 -27.5,-290.3 -84.9,-21.9 -166.1,-6 -166.1,-6 -126.8,-4.6 -238.2,229.9 -248.8,523.8" /><g
         transform="scale(1.00438)"
         id="g108"><path
           id="path110"
           style="fill:#c4c2c1;fill-opacity:1;fill-rule:nonzero;stroke:none"
           d="m 15832.4,7548.34 c 10.6,-292.62 121.5,-526.1 247.8,-521.52 126.1,4.58 219.8,245.52 209.2,538.04 -10.6,292.62 -121.4,526.1 -247.7,521.52 -126.1,-4.58 -219.9,-245.53 -209.3,-538.04" /></g><path
         id="path112"
         style="fill:#929292;fill-opacity:1;fill-rule:nonzero;stroke:none"
         d="m 16072,7591.2 c 1.3,-75.7 36.8,-136.4 79.1,-135.6 42.3,0.7 75.5,62.7 74.1,138.3 -1.4,75.7 -36.8,136.4 -79.1,135.6 -42.3,-0.7 -75.5,-62.7 -74.1,-138.3" /><path
         id="path114"
         style="fill:#a1a1a0;fill-opacity:1;fill-rule:nonzero;stroke:none"
         d="m 10177.8,8147.9 c 0,0 -443.13,-172.5 -593.33,-555.5 -150.2,-383 -105.14,-1727.3 -105.14,-1727.3 l -1103.96,30 c 0,0 -75.1,-95.1 -90.12,-140.2 -15.02,-45 40.06,-175.2 40.06,-175.2 l 2756.99,-205.3 51.7,40.1 c 0,0 -28.4,245.3 -51.7,265.3 -23.4,20.1 -1079.8,115.2 -1104.81,125.2 -25.03,10 -55.07,1351.8 40.01,1667.2 95.2,315.4 325.5,320.4 645.9,350.5 320.4,30 1802.4,80.1 1802.4,80.1 l 210.3,-315.4 30,-1156.6 c 0,0 -10,-80.1 -60.1,-95.1 -50,-15 -1016.3,5 -1016.3,5 0,0 -125.2,-85.1 -70.1,-250.3 l 2548.3,-215.3 70.1,50.1 c 0,0 25.1,184.1 -25,247.3 l -1101.4,123.2 -10.1,1178.1 -645.6,826.2 -2218.1,-152.1" /><path
         id="path116"
         style="fill:#838585;fill-opacity:1;fill-rule:nonzero;stroke:none"
         d="m 12918.9,6293.2 132.7,2.5 -10.1,1178.1 -28.1,36.1 c -43.1,-88.9 -79.5,-172.9 -79.5,-172.9 l -15,-1043.8" /><path
         id="path118"
         style="fill:#838585;fill-opacity:1;fill-rule:nonzero;stroke:none"
         d="m 11134,5414.5 c 0,0 -28.4,245.3 -51.7,265.3 -23.4,20.1 -1079.8,115.2 -1104.81,125.2 l -182.74,21.2 c 0,0 -118.4,1218.8 91.37,1751.2 209.78,532.3 794.78,570.5 794.78,570.5 l 1667.2,56.6 140.9,-23.6 -93.1,119.1 -2218.1,-152.1 c 0,0 -443.13,-172.5 -593.33,-555.5 -150.2,-383 -105.14,-1727.3 -105.14,-1727.3 l -1103.96,30 c 0,0 -75.1,-95.1 -90.12,-140.2 -15.02,-45 40.06,-175.2 40.06,-175.2 l 2756.99,-205.3 51.7,40.1" /><path
         id="path120"
         style="fill:#2c2a2a;fill-opacity:1;fill-rule:nonzero;stroke:none"
         d="m 9313.28,8421.8 v -257 c 0,0 13.35,-93.5 80.1,-110.2 L 13115,8191.5 c 0,0 63.4,3.3 73.4,70.1 10,66.7 0,200.3 0,200.3 0,0 -13.4,70 -43.4,83.4 L 9313.28,8421.8" /><path
         id="path122"
         style="fill:#12110f;fill-opacity:1;fill-rule:nonzero;stroke:none"
         d="m 10388,8398.4 c -35,30.1 -187.3,52 -187.3,52 v 0 l -887.42,-28.6 v -257 c 0,0 13.35,-93.5 80.1,-110.2 l 1028.52,37.9 c -2.4,110.2 -10.1,285.5 -33.9,305.9" /><path
         id="path124"
         style="fill:#3a70c0;fill-opacity:1;fill-rule:nonzero;stroke:none"
         d="m 12818.5,8382.2 c 0,0 79.1,46.4 94.1,119.2 15.1,72.8 79.1,441.8 64,453.1 -15,11.3 -417.9,52.7 -485.6,37.6 -67.8,-15.1 -86.6,-48.9 -218.4,-67.8 -131.8,-18.8 -225.9,3.8 -361.4,-64 -135.5,-67.7 -210.8,-150.6 -225.9,-203.3 -15,-52.7 30.1,-157.1 30.1,-157.1 0,0 323.8,-31.1 384,-57.4 60.3,-26.4 365.2,-229.7 365.2,-229.7 l 308.7,48.5 45.2,120.9" /><path
         id="path126"
         style="fill:#fbc398;fill-opacity:1;fill-rule:nonzero;stroke:none"
         d="m 13635.4,7237.2 -229.6,-294.9 c 0,0 26.3,319.8 -94.1,539.2 -120.5,219.3 -263.6,362.4 -372.7,509.2 -109.2,146.8 -120.5,391.5 -120.5,391.5 0,0 -195.8,139.3 -271.1,116.7 -75.3,-22.6 -161.8,-128 -82.8,-286.1 79.1,-158.1 158.1,-365.2 177,-538.3 18.8,-173.2 244.7,-929.9 244.7,-929.9 0,0 146.8,-489.4 493.1,-557.2 346.4,-67.8 1133.2,594.8 1223.6,734.1 90.3,139.3 -500.9,300 -578,315.7 -77.1,15.6 -389.6,0 -389.6,0" /><path
         id="path128"
         style="fill:#df9866;fill-opacity:1;fill-rule:nonzero;stroke:none"
         d="m 13259,6770.9 c -6,-10.3 87.9,95.8 146.8,171.4 0,0 13.9,262 -60.8,467 0,0 34.4,-431.3 -86,-638.4" /><path
         id="path130"
         style="fill:#f2f2f2;fill-opacity:1;fill-rule:nonzero;stroke:none"
         d="m 12609.8,7837.6 c 88,48.7 208.8,104.6 342.4,135.6 -4.4,5.8 -8.9,11.7 -13.2,17.5 -109.2,146.8 -120.5,391.5 -120.5,391.5 0,0 -195.8,139.3 -271.1,116.7 -75.3,-22.6 -161.8,-128 -82.8,-286.1 55.3,-110.6 110.5,-245.1 145.2,-375.2" /><g
         transform="scale(1.00697)"
         id="g132"><path
           id="path134"
           style="fill:#100f0d;fill-opacity:1;fill-rule:nonzero;stroke:none"
           d="m 16068.4,7240.04 c 0,0 134.4,37.34 182.9,123.34 48.7,86 -91.4,224.34 -91.4,224.34 0,0 -278.7,-37.34 -256.2,-93.45 22.4,-56.11 164.7,-254.23 164.7,-254.23" /></g><g
         transform="scale(1.0765)"
         id="g136"><path
           id="path138"
           style="fill:#3a70c0;fill-opacity:1;fill-rule:nonzero;stroke:none"
           d="M 15528.8,5735.42 15366,5628.04 c 0,0 -94.2,-76.17 -125.6,-128.66 -31.5,-52.48 -175,-444.12 -118.9,-468.64 55.9,-24.44 433.6,-38.46 643.4,-80.36 209.8,-41.98 514.1,-52.48 524.6,76.92 10.5,129.4 -118.9,181.79 -227.3,258.8 -108.5,76.91 -279.8,258.71 -279.8,258.71 0,0 28,101.43 -28,157.45 -56,55.92 -17.4,92.52 -71.7,96.98 -54.2,4.37 -153.9,-63.82 -153.9,-63.82" /></g><g
         transform="scale(1.01482)"
         id="g140"><path
           id="path142"
           style="fill:#fbc398;fill-opacity:1;fill-rule:nonzero;stroke:none"
           d="m 16152.6,9768.47 34.2,-41.39 c 0,0 18.6,-94.3 29.7,-236.2 11.2,-141.89 -13.9,-370.01 0,-445.1 13.9,-75.19 29.4,-253.25 23.1,-653.91 -6.3,-400.67 60.4,-849.62 60.4,-849.62 l -93.6,-60.2 h -196.7 c 0,0 -126.1,478.61 -174.3,745.65 -48.3,267.14 0,1187.11 0,1187.11 l 317.2,353.66" /></g><g
         transform="scale(1.0765)"
         id="g144"><path
           id="path146"
           style="fill:#fbc398;fill-opacity:1;fill-rule:nonzero;stroke:none"
           d="m 15495.6,7855.9 127.5,46.07 c 0,0 418.1,-174.91 428.6,-178.35 10.5,-3.53 164.3,-104.97 206.3,-206.41 42,-101.35 -21,-377.61 -21,-388.11 0,-10.5 49,-286.76 -157.3,-661.03 -206.4,-374.17 -325.3,-765.81 -325.3,-765.81 0,0 -125.9,-14.03 -146.9,-38.46 -20.9,-24.52 -143.4,-164.42 -188.8,-164.42 -45.5,0 -80.4,17.47 -80.4,17.47 0,0 167.5,637.25 148.4,888.61 -19,251.46 82.3,625.64 82.3,625.64 0,0 -253.1,-177.52 -525.2,-187.37 -272.1,-9.84 -356.1,855.37 -303.6,865.86 52.5,10.5 755.4,146.31 755.4,146.31" /></g><g
         transform="scale(1.03863)"
         id="g148"><path
           id="path150"
           style="fill:#df9866;fill-opacity:1;fill-rule:nonzero;stroke:none"
           d="m 16300,7443.39 c 0,0 -316.1,-228.67 -754.4,-217.59 -284.7,7.12 -109.8,479.19 70,830.52 -163.2,-31.58 -314.2,-60.85 -337.8,-65.57 -54.4,-10.88 32.6,-907.64 314.6,-897.43 282,10.2 544.4,194.19 544.4,194.19 l 163.2,155.88" /></g><g
         transform="scale(1.05021)"
         id="g152"><path
           id="path154"
           style="fill:#f2f2f2;fill-opacity:1;fill-rule:nonzero;stroke:none"
           d="m 15849.3,6250 c -44,-279.09 -127,-595.03 -127,-595.03 0,0 35.8,-17.9 82.5,-17.9 46.5,0 172,143.4 193.4,168.54 21.6,25.04 150.7,39.42 150.7,39.42 0,0 53.5,176.25 151.1,406.77 -88.8,-4.28 -260.4,-9.9 -450.7,-1.8" /></g><g
         transform="scale(1.03193)"
         id="g156"><path
           id="path158"
           style="fill:#252323;fill-opacity:1;fill-rule:nonzero;stroke:none"
           d="m 14107.4,8268.81 c 0,0 -178.8,-215.23 -233.5,-339.27 -54.7,-124.04 -335.6,-532.7 -419.5,-609.25 -84,-76.65 -240.9,-307 -240.9,-307 0,0 193.9,-269.4 447,-336.46 253.1,-67.15 946.4,52.24 946.4,52.24 l 292.1,357.67 95.7,147.79 c 0,0 90.4,-3.2 323.9,-97.39 233.5,-94.1 361.2,-72.2 361.2,-72.2 0,0 -14.6,430.46 153.2,671.27 167.9,240.72 463,470.58 465,507.11 2,36.44 -413.9,51.07 -479.6,65.6 -65.6,14.64 -346.6,21.91 -346.6,21.91 l -733.9,151.36 c 0,0 -264.4,-27.32 -305.2,-31.01 -40.8,-3.58 -325.3,-182.37 -325.3,-182.37" /></g><g
         transform="scale(1.01252)"
         id="g160"><path
           id="path162"
           style="fill:#fbc398;fill-opacity:1;fill-rule:nonzero;stroke:none"
           d="m 15868.7,10669.3 119,26 c 0,0 178.5,-74.3 245.4,-197 66.9,-122.7 43.1,-527.98 43.1,-527.98 0,0 -325.6,40.88 -362.9,144.98 -37.1,104.1 -63.9,238 -63.6,327.2 0.4,89.3 19,226.8 19,226.8" /></g><g
         transform="scale(1.01137)"
         id="g164"><path
           id="path166"
           style="fill:#3a70c0;fill-opacity:1;fill-rule:nonzero;stroke:none"
           d="m 15828,10888.4 c 0,0 163,-166 177.9,-180.9 15,-14.8 283.6,-614.1 288.9,-725.81 5.2,-111.69 -76.7,-316.37 -95.3,-383.4 -18.6,-67.04 -41.5,-264.3 -186.1,-521.18 -144.6,-256.78 -227.1,-576.94 -227.1,-576.94 0,0 -182.4,-126.56 -435.5,-137.74 -253.1,-11.17 -696.1,130.32 -699.9,148.91 -3.6,18.59 -104.8,997.56 -104.8,997.56 0,0 421.2,1280.5 432.4,1291.7 11.2,11.2 81.7,205.1 81.7,205.1 l 86.5,27.9 c 0,0 310.7,-50.6 356.1,-72.9 45.2,-22.4 325.2,-72.3 325.2,-72.3" /></g><path
         id="path168"
         style="fill:#fbc398;fill-opacity:1;fill-rule:nonzero;stroke:none"
         d="m 15473.9,11603.2 c 0,0 0.3,-238 -47.7,-322.7 -48,-84.7 -107.3,-121.4 -107.3,-121.4 0,0 203.3,-240 330.4,-406.6 127,-166.6 197.6,-293.7 350.1,-302.2 152.5,-8.4 160.9,104.5 132.7,282.4 -28.2,177.9 -124.2,279.5 -124.2,279.5 0,0 9,369.9 14.3,384 5.4,14.1 -299.5,578.8 -389.9,550.6 -90.3,-28.2 -144,28.2 -144,-53.6 0,-81.9 -14.4,-290 -14.4,-290" /><path
         id="path170"
         style="fill:#df9866;fill-opacity:1;fill-rule:nonzero;stroke:none"
         d="m 15679,11698.4 c 0,0 57.8,-324.8 80.4,-361.5 22.6,-36.7 252.2,-186.5 252.2,-186.5 l 10.6,245.8 c 0,0 -237.4,324.7 -245.9,324.7 -8.4,0 -97.3,-22.5 -97.3,-22.5" /><path
         id="path172"
         style="fill:#929292;fill-opacity:1;fill-rule:nonzero;stroke:none"
         d="m 14011.8,7324.9 c -33,292.1 42.3,540.6 168.3,554.8 66.3,9.1 165.2,18.7 165.2,18.7 0,0 16.3,-82.7 37.7,-201.9 40.4,-86.3 71.3,-197.2 85.2,-319.9 9.9,-87.2 10.1,-170.4 2.2,-244.7 18.1,-159 22.6,-282 -5.3,-291.5 -82.9,-28.4 -165.1,-18.7 -165.1,-18.7 -126.1,-14.3 -255.1,211 -288.2,503.2" /><path
         id="path174"
         style="fill:#c4c2c1;fill-opacity:1;fill-rule:nonzero;stroke:none"
         d="m 14177,7343.6 c 33.1,-292.2 162.1,-517.5 288.1,-503.2 126,14.3 201.4,262.7 168.3,554.9 -33.1,292.1 -162.1,517.4 -288.1,503.1 -126.1,-14.2 -201.4,-262.7 -168.3,-554.8" /><path
         id="path176"
         style="fill:#686a6c;fill-opacity:1;fill-rule:nonzero;stroke:none"
         d="m 14346,7366.3 c 7.1,-75.3 47,-133.1 89.2,-129.1 42.1,4 70.5,68.3 63.3,143.6 -7.1,75.3 -47.1,133.2 -89.2,129.2 -42.1,-4 -70.5,-68.3 -63.3,-143.7" /><g
         transform="scale(1.0096)"
         id="g178"><path
           id="path180"
           style="fill:#252323;fill-opacity:1;fill-rule:nonzero;stroke:none"
           d="m 15470.2,11711 c -0.8,-8.1 -36.2,-20.5 -36.2,-20.5 0,0 -18.4,-59 -31.2,-74.1 -12.9,-15.1 -79.6,-119.7 -79.1,-114.8 0.4,4.8 -118.3,264.9 -127,329.2 -8.6,64.2 -19.7,259.3 49,386 68.8,126.6 231.3,230.2 346.5,245.5 115.3,15.2 192.2,3.2 295,6.6 102.8,3.4 174.3,-66.7 241.6,-94.1 67.5,-27.4 128.5,-52.6 149.9,-137.5 21.3,-85 -36.2,-156.1 -36.2,-156.1 l -442.9,-470.4 c 0,0 -178.4,-52.7 -189.3,-30 -10.9,22.7 -140.1,130.2 -140.1,130.2" /></g><g
         transform="scale(1.00999)"
         id="g182"><path
           id="path184"
           style="fill:#fbc398;fill-opacity:1;fill-rule:nonzero;stroke:none"
           d="m 15626,11834.3 c 0,0 -94.3,80.3 -159.2,82 -64.8,1.7 -65.9,-102.2 -58.8,-165.7 7,-63.5 49.9,-115.2 74.6,-130.5 24.5,-15.3 33.1,-31.1 33.1,-31.1 0,0 69.1,-242.9 119.2,-310.4 50,-67.6 449,-142.1 471.1,-131.2 22.2,10.9 78.9,306.4 78.9,306.4 0,0 93,2.7 104,16.3 11.1,13.6 -71.3,211.5 -59.9,246.2 11.3,34.7 18.3,22.6 30.4,81.7 12,59 -23.6,288.3 -26.3,293.4 -2.8,5.1 -185.3,53 -263.5,50.6 -78.3,-2.5 -74.5,-115 -90.5,-157.4 -15.9,-42.4 -112.5,-101.7 -125.1,-133 -12.7,-31.3 -28.1,-125.8 -41.5,-131 -13.6,-5.3 -43.7,2.4 -43.7,2.4 l -42.8,111.3" /></g><path
         id="path186"
         style="fill:#fbc398;fill-opacity:1;fill-rule:nonzero;stroke:none"
         d="m 15273.8,11023.5 c 0,0 132.7,-279.5 186.3,-519.5 53.7,-240 -64.9,-499.8 -172.2,-609.9 -107.3,-110.1 -175.1,-129.9 -175.1,-129.9 0,0 -8.5,-194.8 -90.3,-336 -81.9,-141.1 -135.6,-217.4 -135.6,-217.4 0,0 11.3,-352.9 -16.9,-640.9 -28.2,-288 -73.4,-528 -73.4,-528 l -257,-19.8 c 0,0 -73.4,367.1 -87.5,629.7 -14.1,262.5 39.5,522.3 39.5,522.3 0,0 -7.5,321.9 -41.9,448.9 -34.3,127.1 -41.9,327.6 0,615.6 0,0 -0.4,293.6 129.5,451.7 129.9,158.2 316.2,197.7 316.2,197.7 0,0 183.5,183.5 336,242.8 l 42.4,-107.3" /><path
         id="path188"
         style="fill:#686a6c;fill-opacity:1;fill-rule:nonzero;stroke:none"
         d="m 14409.3,7510 750.1,113.1 49,-263.7 -773.2,-122.2 -25.9,272.8" /><path
         id="path190"
         style="fill:#f2d2bc;fill-opacity:1;fill-rule:nonzero;stroke:none"
         d="m 14449.6,10237.4 c 0,0.4 0.1,0.8 0.1,1.2 0,-0.4 -0.1,-0.8 -0.1,-1.2 m 0.1,1.3 v 0 0 m 0,0.1 c 0,0 0,0 0,0 0,0 0,0 0,0" /><path
         id="path192"
         style="fill:#efaf81;fill-opacity:1;fill-rule:nonzero;stroke:none"
         d="m 14646.9,10043.8 c 0,0 -108.9,2.9 -206.6,123.6 2.8,22.8 5.8,46 9.3,70 0,0.4 0.1,0.8 0.1,1.2 v 0 0 0 0 c 0,0 0,0 0,0.1 v 0 c 0,0 0,0 0,0.1 0,0 0,0 0,0 0.1,1.8 0.1,15.9 1.4,38.4 0,-0.1 86.7,-199.6 195.8,-233.4" /><path
         id="path194"
         style="fill:#f2d2bc;fill-opacity:1;fill-rule:nonzero;stroke:none"
         d="m 14491.6,9174.1 v 0 0 m 0,0 v 0 0 m 0,0 v 0 0 m 0,0 c 0,0.3 -0.6,27 -2.3,67.8 v 0 c 1.7,-40.9 2.3,-67.5 2.3,-67.8" /><path
         id="path196"
         style="fill:#efaf81;fill-opacity:1;fill-rule:nonzero;stroke:none"
         d="m 14598,8888 c 0,0 -75.5,70.5 -125.7,168.2 9.7,70.8 19,116 19.3,117.9 v 0 0 0 0 0 0 0 0 0 0 c 0,0.3 -0.6,26.9 -2.3,67.8 0.3,-2.2 41.2,-252.7 108.7,-353.9" /><path
         id="path198"
         style="fill:#df9866;fill-opacity:1;fill-rule:nonzero;stroke:none"
         d="m 15301,9908.3 c -113.8,51.5 -188.2,138.3 -188.2,138.3 l 33.4,-266.9 c 30.1,16.8 79.1,50.1 141.7,114.4 4.3,4.5 8.7,9.3 13.1,14.2" /><path
         id="path200"
         style="fill:#fbc398;fill-opacity:1;fill-rule:nonzero;stroke:none"
         d="m 14539.6,8022.1 c 0,0 1.9,-304.9 0,-359.5 -1.8,-54.6 -13.1,-333.2 -9.4,-350.1 3.8,-17 41.4,-20.7 58.4,-45.2 16.9,-24.5 48.9,-50.8 77.2,-58.4 28.2,-7.5 50.8,0 50.8,0 0,0 45.2,-33.8 96,-26.3 50.8,7.5 69.6,24.5 67.7,30.1 -1.8,5.6 -71.5,124.2 -73.4,167.5 -1.9,43.3 86.6,318.1 86.6,329.4 0,11.3 -58.3,161.9 -64,178.9 -5.6,16.9 -32.9,153.4 -32.9,153.4 0,0 -66.8,95 -98.8,83.7 -32,-11.3 -158.2,-103.5 -158.2,-103.5" /><path
         id="path202"
         style="fill:#929292;fill-opacity:1;fill-rule:nonzero;stroke:none"
         d="m 14785.1,7447.1 c -33.1,292.1 42.2,540.6 168.2,554.9 66.3,9 165.2,18.7 165.2,18.7 0,0 16.3,-82.8 37.8,-202 40.4,-86.3 71.2,-197.2 85.2,-319.9 9.8,-87.2 10,-170.4 2.1,-244.7 18.2,-159 22.7,-281.9 -5.3,-291.5 -82.9,-28.4 -165.1,-18.7 -165.1,-18.7 -126,-14.3 -255,211 -288.1,503.2" /><path
         id="path204"
         style="fill:#c4c2c1;fill-opacity:1;fill-rule:nonzero;stroke:none"
         d="m 14950.2,7465.8 c 33.1,-292.2 162.1,-517.5 288.1,-503.2 126.1,14.3 201.4,262.7 168.3,554.9 -33.1,292.1 -162.1,517.4 -288.1,503.2 -126,-14.3 -201.4,-262.7 -168.3,-554.9" /><path
         id="path206"
         style="fill:#686a6c;fill-opacity:1;fill-rule:nonzero;stroke:none"
         d="m 15119.2,7488.5 c 7.1,-75.3 47.1,-133.1 89.2,-129.1 42.1,4 70.5,68.3 63.3,143.6 -7.1,75.3 -47,133.2 -89.2,129.2 -42.1,-4 -70.4,-68.3 -63.3,-143.7" /><path
         id="path208"
         style="fill:#100f0d;fill-opacity:1;fill-rule:nonzero;stroke:none"
         d="m 15473.4,7465.5 122.5,220.3 256.1,84.7 c 0,0 -168.8,-126.1 -172.5,-152.5 -3.8,-26.3 15,-210.1 15,-210.1 l -221.1,57.6" /></g></g></svg>