<?xml version="1.0" encoding="UTF-8" standalone="no"?>
<svg
   xmlns:dc="http://purl.org/dc/elements/1.1/"
   xmlns:cc="http://creativecommons.org/ns#"
   xmlns:rdf="http://www.w3.org/1999/02/22-rdf-syntax-ns#"
   xmlns:svg="http://www.w3.org/2000/svg"
   xmlns="http://www.w3.org/2000/svg"
   viewBox="0 0 2666.6667 2666.6667"
   height="2666.6667"
   width="2666.6667"
   xml:space="preserve"
   id="svg2"
   version="1.1"><metadata
     id="metadata8"><rdf:RDF><cc:Work
         rdf:about=""><dc:format>image/svg+xml</dc:format><dc:type
           rdf:resource="http://purl.org/dc/dcmitype/StillImage" /></cc:Work></rdf:RDF></metadata><defs
     id="defs6"><clipPath
       id="clipPath152"
       clipPathUnits="userSpaceOnUse"><path
         id="path150"
         d="m 13137.1,9272.1 v 0 c 112.8,22.6 174.2,41.9 200.3,51.2 -36.3,-13.5 -129.8,-46.2 -200.3,-51.2 m 215.7,57.1 v 0 0 0" /></clipPath></defs><g
     transform="matrix(1.3333333,0,0,-1.3333333,0,2666.6667)"
     id="g10"><g
       transform="scale(0.1)"
       id="g12"><g
         transform="scale(1.22699)"
         id="g14"><path
           id="path16"
           style="fill:none;fill-opacity:1;fill-rule:nonzero;stroke:none"
           d="M 16300,0 H 0 V 16300 H 16300 V 0" /></g><path
         id="path18"
         style="fill:#e4a376;fill-opacity:1;fill-rule:nonzero;stroke:none"
         d="m 5961.59,13756 h -346.25 v 346.2 h 346.25 V 13756" /><path
         id="path20"
         style="fill:#9d9d9c;fill-opacity:1;fill-rule:nonzero;stroke:none"
         d="m 9636.27,13464.4 -435.85,49.6 v -160.5 l 435.85,-49.8 c 67.66,71.9 0,160.7 0,160.7" /><path
         id="path22"
         style="fill:#2e62a3;fill-opacity:1;fill-rule:nonzero;stroke:none"
         d="m 8956.71,14209 -0.17,0.2 c 0,0 -185.87,140.8 -422.17,154.6 -32.1,1.9 -63.75,-26.9 -94.48,-77.7 -300.54,-85.7 -540.75,-387.6 -577.82,-767.6 -27.85,-285.5 65.32,-549.8 231.33,-724 -4.77,-34.4 -7.28,-53.8 -7.28,-53.8 0,0 148.56,-138.7 391.14,-149.9 h 1.12 c 9.39,-1.4 18.79,-2.7 28.31,-3.6 402.37,-39.3 766.11,314.1 812.46,789.2 34.51,353.8 -116.8,675.3 -362.44,832.6" /><path
         id="path24"
         style="fill:#3871c1;fill-opacity:1;fill-rule:nonzero;stroke:none"
         d="m 9179,13432.4 c -46.34,-475.1 -410.09,-828.5 -812.46,-789.2 -402.36,39.2 -690.96,456.2 -644.62,931.4 46.34,475.1 410.09,828.4 812.45,789.2 402.36,-39.2 690.97,-456.2 644.63,-931.4" /><path
         id="path26"
         style="fill:#3a70c0;fill-opacity:1;fill-rule:nonzero;stroke:none"
         d="m 6693.51,5682.5 h -170.52 c 0,0 -19.75,0 -70.49,-107.8 -50.73,-107.8 -139.53,-570.8 -114.16,-615.2 25.37,-44.4 374.19,-66.4 437.61,-68.1 63.43,-1.7 95.13,-11 158.56,0 63.42,11 177.57,-103.2 469.32,-122.2 291.74,-19 386.87,9.7 399.55,122.2 12.68,112.5 -456.63,391.5 -570.79,499.4 -114.16,107.8 -101.48,273.6 -215.64,342.9 -114.15,69.3 -323.44,-51.2 -323.44,-51.2" /><path
         id="path28"
         style="fill:#3a70c0;fill-opacity:1;fill-rule:nonzero;stroke:none"
         d="m 4480.09,5426.9 -183.92,-289.8 c 0,0 -63.42,-57.1 -69.76,-171.3 -6.35,-114.1 -107.82,-431.2 -63.43,-469.3 44.4,-38.1 82.45,12.7 241,-101.5 158.56,-114.1 672.27,-190.2 830.83,-107.8 158.55,82.5 0.82,272.7 -167.66,444 -168.48,171.2 -162.14,245.2 -162.14,388.9 0,143.8 -107.81,238.9 -107.81,238.9 l -158.55,171.3 -158.56,-103.4" /><path
         id="path30"
         style="fill:#fbc398;fill-opacity:1;fill-rule:nonzero;stroke:none"
         d="m 4968.44,8396.9 c -12.69,-38 -44.4,-640.5 -107.82,-754.7 -63.42,-114.1 -304.42,-424.9 -367.84,-856.2 -63.42,-431.2 -196.61,-1648.9 -196.61,-1648.9 0,0 107.81,-38.1 139.53,0 31.71,38 12.68,101.4 107.82,152.2 95.13,50.7 253.68,50.7 253.68,69.7 0,19.1 50.74,342.5 247.35,786.5 196.6,443.9 260.02,868.8 304.42,970.3 44.39,101.5 456.63,887.9 488.34,1167 31.71,279 -868.87,114.1 -868.87,114.1" /><path
         id="path32"
         style="fill:#fbc398;fill-opacity:1;fill-rule:nonzero;stroke:none"
         d="m 6395.42,8445.3 c 31.71,-54.7 361.51,-536.7 405.9,-638.2 44.4,-101.5 -126.84,-494.7 -158.55,-761 -31.72,-266.4 32.67,-539.1 -40.75,-919.7 -73.41,-380.5 -86.1,-494.7 -86.1,-494.7 0,0 19.99,-139.5 86.1,-152.2 66.11,-12.6 175.85,6.4 206.6,50.8 30.76,44.4 56.12,145.8 106.86,177.6 50.74,31.7 101.47,25.8 101.47,25.8 0,0 12.69,240.5 171.24,659.1 158.56,418.6 260.03,875.2 260.03,1021.1 0,145.9 107.82,418.6 82.45,539.1 -25.37,120.5 -215.64,526.4 -215.64,526.4 0,0 -513.71,107.8 -551.76,88.8 -38.06,-19.1 -367.85,-122.9 -367.85,-122.9" /><path
         id="path34"
         style="fill:#252323;fill-opacity:1;fill-rule:nonzero;stroke:none"
         d="m 5179.84,10919 -116.27,-166 c 0,0 -114.16,-85.6 -171.24,-294.9 -57.08,-209.3 20.74,-1208.1 -70.49,-1512.6 -91.23,-304.4 -53.18,-713.5 -53.18,-713.5 0,0 459.81,12.7 732.52,-57 272.71,-69.8 374.19,-88.8 367.84,-63.5 -6.34,25.4 136.36,285.4 136.36,285.4 l 34.88,-114.1 c 0,0 450.3,82.4 792.77,12.7 342.48,-69.8 615.19,19 615.19,19 0,0 -241,1141.6 -310.76,1293.8 -69.77,152.2 -190.27,399.5 -209.3,437.6 -19.02,38 -31.7,234.7 -88.78,304.4 -57.09,69.8 -188.15,323.5 -188.15,323.5 0,0 -484.13,469.3 -953.44,469.3 -469.32,0 -517.95,-224.1 -517.95,-224.1" /><path
         id="path36"
         style="fill:#fbc398;fill-opacity:1;fill-rule:nonzero;stroke:none"
         d="m 6862.63,12741.3 c 50.74,0 135.3,33.8 135.3,33.8 l 54.97,122.7 c 0,0 270.59,-248.4 511.59,-280.6 241.01,-32.3 458.29,26.4 616.02,58.3 157.73,32 221.15,146.1 216.92,268.8 -4.23,122.6 -274.83,552.7 -414.35,726.6 -139.53,173.9 -287.51,372.1 -287.51,372.1 l -207.18,-221.5 c 0,0 71.88,-73.9 105.7,-221.9 33.83,-148 67.65,-253.7 67.65,-253.7 0,0 -156.44,46.5 -202.95,71.9 -46.51,25.4 -88.79,210.2 -295.97,253.1 -207.17,42.9 -398.59,-39.1 -398.59,-39.1 l -235.63,26.9 c 0,0 -167,-152.1 -149.03,-215.5 17.97,-63.4 -131.36,11.5 131.46,-366.4 262.81,-377.8 351.6,-335.5 351.6,-335.5" /><path
         id="path38"
         style="fill:#3a70c0;fill-opacity:1;fill-rule:nonzero;stroke:none"
         d="m 5012.83,12351.3 c 0,0 128.96,-371 167.01,-510.6 38.06,-139.5 0,-921.7 0,-921.7 l 435.5,-105.7 c 0,0 494.68,-177.6 718.78,-177.6 224.08,0 317.11,21.2 317.11,38.1 0,16.9 54.96,820.2 88.79,930.1 33.82,110 109.93,786.5 109.93,786.5 0,0 122.61,224.1 147.98,384.7 0,0 -97.25,104.5 -147.98,301.7 -50.74,197.3 -308.66,632.8 -308.66,632.8 0,0 -271.65,16.8 -321.33,33.8 -49.68,17 -268.49,41.2 -268.49,41.2 0,0 -213.52,4.4 -281.17,19 -67.65,14.7 -177.58,-115.2 -177.58,-115.2 0,0 -186.04,-580.5 -224.09,-611.6 -38.05,-31.1 -181.81,-293.2 -177.58,-339.7 4.23,-46.5 -78.22,-385.8 -78.22,-385.8" /><path
         id="path40"
         style="fill:#e4a376;fill-opacity:1;fill-rule:nonzero;stroke:none"
         d="m 6344.69,14333.2 c 0,-9.5 34.88,-548.6 34.88,-548.6 0,0 -332.96,47.6 -354.11,140.6 -21.13,93 -118.38,460.8 -105.7,482 12.69,21.1 424.93,-74 424.93,-74" /><path
         id="path42"
         style="fill:#9d9d9c;fill-opacity:1;fill-rule:nonzero;stroke:none"
         d="m 8417.68,13603.2 -6408.25,729.6 -19.29,-155.7 6427.54,-734.2 v 160.3" /><path
         id="path44"
         style="fill:#9d9d9c;fill-opacity:1;fill-rule:nonzero;stroke:none"
         d="m 8360.12,13609.7 -6350.69,723.1 -19.29,-155.7 6369.98,-727.6 v 160.2" /><path
         id="path46"
         style="fill:#d4d3d1;fill-opacity:1;fill-rule:nonzero;stroke:none"
         d="m 8595.21,13502.1 c -12.58,-129 -111.33,-224.9 -220.56,-214.3 -109.23,10.7 -187.58,123.9 -175,252.9 12.58,129 111.33,224.9 220.56,214.2 109.23,-10.6 187.58,-123.8 175,-252.8" /><path
         id="path48"
         style="fill:#2e62a3;fill-opacity:1;fill-rule:nonzero;stroke:none"
         d="m 3884.88,15048 v 0 c 0,0 -147.75,85.9 -411.54,94.6 -263.79,8.7 -631.64,-473.3 -635.87,-490.2 -4.23,-16.9 -71.87,-909 -63.42,-938.6 8.46,-29.6 409.07,-629.2 409.07,-629.2 0,0 165.13,-79.2 338.57,-67.1 422.78,-34.7 803.73,402.9 850.89,977.5 39.64,482.9 -169.12,908.8 -487.7,1053" /><path
         id="path50"
         style="fill:#3871c1;fill-opacity:1;fill-rule:nonzero;stroke:none"
         d="m 4153.46,14039.4 c -47.16,-574.6 -428.12,-1012.2 -850.9,-977.5 -422.77,34.7 -727.27,528.6 -680.12,1103.2 47.16,574.5 428.12,1012.2 850.9,977.5 422.78,-34.7 727.28,-528.6 680.12,-1103.2" /><path
         id="path52"
         style="fill:#d4d3d1;fill-opacity:1;fill-rule:nonzero;stroke:none"
         d="m 3621.33,14081.2 c -7.36,-89.6 -73.69,-157.4 -148.17,-151.3 -74.47,6.2 -128.88,83.8 -121.52,173.5 7.36,89.6 73.7,157.3 148.17,151.2 74.47,-6.1 128.88,-83.7 121.52,-173.4" /><path
         id="path54"
         style="fill:#d4d3d1;fill-opacity:1;fill-rule:nonzero;stroke:none"
         d="m 2054.94,14251.4 c -2.74,-43.1 -31.75,-76.4 -64.79,-74.3 -33.05,2.1 -57.62,38.8 -54.88,81.9 2.74,43.1 31.75,76.3 64.8,74.2 33.04,-2.1 57.61,-38.7 54.87,-81.8" /><path
         id="path56"
         style="fill:#fbc398;fill-opacity:1;fill-rule:nonzero;stroke:none"
         d="m 5897.63,13599.6 c 0,0 -117.4,136.6 -203.02,160.8 l -529.56,43.2 c 0,0 -139.53,-62.3 -202.95,-204 -63.43,-141.6 -149.04,-382.7 -139.53,-584 9.51,-201.4 79.27,-306 117.33,-407.5 38.05,-101.4 72.93,-256.8 72.93,-256.8 0,0 192.77,-22.2 346.9,123.6 154.13,145.9 223.9,317.1 223.9,317.1 0,0 351.99,-133.1 637.39,-60.2 285.39,72.9 462.97,237.8 466.14,313.9 3.17,76.1 -207.18,655.4 -207.18,655.4 0,0 -271.65,82.7 -309.7,59.3 -38.06,-23.4 -272.65,-160.8 -272.65,-160.8" /><path
         id="path58"
         style="fill:#e4a376;fill-opacity:1;fill-rule:nonzero;stroke:none"
         d="m 5951.47,13076.8 c 0,0 -60.25,117.1 -53.91,226.9 6.35,109.9 0.07,295.9 0.07,295.9 l -69.39,71.3 c 0,0 21.76,-152.8 15.42,-297 -6.35,-144.2 22.19,-202.5 107.81,-297.1" /><path
         id="path60"
         style="fill:#88909c;fill-opacity:1;fill-rule:nonzero;stroke:none"
         d="m 5482.96,12617.3 c 68.62,96.1 100.67,174.7 100.67,174.7 v 0 c -18.58,-86.6 -96.96,-170.7 -100.67,-174.7" /><path
         id="path62"
         style="fill:#efb084;fill-opacity:1;fill-rule:nonzero;stroke:none"
         d="m 5482.82,12617.2 c 0,0 -38.72,70.2 -124.34,174.8 -85.62,104.7 -225.15,206.2 -225.15,206.2 0,0 19.03,-6.4 142.7,-47.6 123.68,-41.2 307.6,-158.6 307.6,-158.6 0,0 -32.05,-78.6 -100.67,-174.7 -0.09,-0.1 -0.14,-0.1 -0.14,-0.1" /><path
         id="path64"
         style="fill:#e4a376;fill-opacity:1;fill-rule:nonzero;stroke:none"
         d="m 7099.4,13257.1 -46.5,-359.3 111.51,-90.1 -18.5,149.2 c 0,0 114.16,-25.3 211.41,0 0,0 -194.5,79.2 -215.64,119.9 l -42.28,180.3" /><path
         id="path66"
         style="fill:#fbc398;fill-opacity:1;fill-rule:nonzero;stroke:none"
         d="m 7695.57,14043 c 0,0 -107.82,163.4 -196.61,176 -88.79,12.7 -63.43,-31.8 -155.39,-46 -91.96,-14.2 -202.95,-90.3 -225.14,-130 -22.2,-39.6 -45.57,-360.7 -41.85,-360.9 3.72,-0.2 133.07,-82.3 144.54,-102.5 11.47,-20.2 193.36,-105.6 193.36,-105.6 0,0 45.26,-1.6 72.79,75.2 27.54,76.8 84.62,203.7 90.97,213.2 6.34,9.5 117.33,280.6 117.33,280.6" /><path
         id="path68"
         style="fill:#e4a376;fill-opacity:1;fill-rule:nonzero;stroke:none"
         d="m 7488.39,13821.5 -144.82,128 181.87,-304.1 30.08,69.2 -67.13,106.9" /><path
         id="path70"
         style="fill:#9d9d9c;fill-opacity:1;fill-rule:nonzero;stroke:none"
         d="m 8397.63,13605.4 c 0,0 71.1,-80.7 -15.29,-158.4 l -494.95,56.5 11.13,161.7 499.11,-59.8" /><path
         id="path72"
         style="fill:#9d9d9c;fill-opacity:1;fill-rule:nonzero;stroke:none"
         d="m 3486.49,14164.7 c 0,0 44.08,-101.9 -14.65,-156.8 l -989.53,116 18.75,153 985.43,-112.2" /><path
         id="path74"
         style="fill:#100f0d;fill-opacity:1;fill-rule:nonzero;stroke:none"
         d="m 6566.66,9754.2 c -19.02,-12.7 -164.89,-94.2 -190.26,-171.3 -25.37,-77.1 -371.02,-1186 -371.02,-1186 l 34.88,-114.1 147.14,20.9 c 0,0 68.5,270.8 131.92,467.4 63.42,196.6 139.52,735.7 145.87,780.1 6.34,44.4 101.47,203 101.47,203" /><path
         id="path76"
         style="fill:#f2f2f2;fill-opacity:1;fill-rule:nonzero;stroke:none"
         d="m 4363.11,5733.7 c -37.65,-328.9 -66.94,-596.6 -66.94,-596.6 0,0 107.81,-38.1 139.53,0 31.71,38 12.68,101.4 107.81,152.2 95.14,50.7 253.69,50.7 253.69,69.7 0,12.1 20.48,146.7 85.56,356.8 -188.95,-9.3 -387.19,4.7 -519.65,17.9" /><path
         id="path78"
         style="fill:#f2f2f2;fill-opacity:1;fill-rule:nonzero;stroke:none"
         d="m 6603.88,6136.6 c -0.63,-3.4 -1.2,-6.8 -1.86,-10.2 -73.41,-380.5 -86.1,-494.7 -86.1,-494.7 0,0 19.99,-139.5 86.1,-152.2 66.11,-12.6 175.86,6.4 206.6,50.8 30.76,44.4 56.13,145.8 106.86,177.6 50.74,31.7 101.47,25.8 101.47,25.8 0,0 6.46,121.3 66.89,341.4 -187.21,3.9 -368.13,36.7 -479.96,61.5" /><path
         id="path80"
         style="fill:#252323;fill-opacity:1;fill-rule:nonzero;stroke:none"
         d="m 5487.78,14809.5 -42.72,16.2 c 0,0 -54.75,172.3 -62.9,259.8 -8.14,87.4 -18,117 -8.6,156.9 9.4,39.8 16.14,127.4 25.5,148.6 9.36,21.1 47.98,59.3 77.36,89.4 29.38,30.2 93.56,110.3 126.45,128.6 32.14,18 211.43,104.4 211.43,104.4 158.92,34.4 144.76,45.6 230.57,45.9 85.81,0.2 179.68,-38.9 232.92,-66.7 66.42,-34.8 99.74,-114.3 120.54,-164.9 20.8,-50.5 42.02,-127 13.05,-198.1 -28.98,-71.2 -184.21,-119.6 -246.85,-151.1 -62.64,-31.4 -259.37,-120.7 -282.5,-160.4 -23.12,-39.7 6.79,-252.1 -76.79,-289.1 -83.58,-37 -68.89,-21.9 -125.66,-33.2 -56.77,-11.2 -191.8,113.7 -191.8,113.7" /><path
         id="path82"
         style="fill:#fbc398;fill-opacity:1;fill-rule:nonzero;stroke:none"
         d="m 5624.74,14804.6 c 0,0 -77.47,166.2 -139.57,161 -62.11,-5.2 -53.96,-92.6 -30.01,-183.4 23.95,-90.7 85.9,-141.6 130.85,-163.3 0,0 76.11,-196.5 140.11,-269.2 64,-72.7 307.52,-146.6 447.92,-169.3 140.4,-22.7 203.04,8.8 254.81,67.3 51.78,58.4 95.07,432 78.64,550.9 -16.44,118.9 -31.18,174.7 -26.43,213.3 4.76,38.6 -74.85,368.5 -103.17,391 -28.31,22.4 -129.01,21.9 -199.74,7 -70.73,-15 -188.3,-64.6 -244.35,-64.5 0,0 -54.94,-7 -66.4,-39.9 -11.45,-32.9 13.18,-41.4 -31.09,-71.7 -44.26,-30.4 -75.29,-68.4 -75.29,-68.4 0,0 12.56,-90 5.77,-106.8 -6.79,-16.7 -37.62,-69.6 -48.63,-98.7 -11,-29 -18.08,-157.8 -28.36,-175.5 -10.27,-17.6 -44.99,-41.7 -44.99,-41.7 l -20.07,61.9" /><path
         id="path84"
         style="fill:#fbc398;fill-opacity:1;fill-rule:nonzero;stroke:none"
         d="m 5034.67,13988.4 c 0,0 -34.52,-27.3 -36.63,-54.8 -2.12,-27.4 18.31,-48.6 18.31,-48.6 0,0 -33.42,-32 -18.47,-66.7 14.95,-34.8 63.58,-33.7 63.58,-33.7 0,0 29.59,-39.1 78.22,-41.2 48.62,-2.1 154.32,44.4 164.89,41.2 10.57,-3.2 44.4,-7.4 95.14,0 50.73,7.4 93.01,47.6 93.01,47.6 0,0 65.54,-27.8 109.93,-13.9 44.4,13.9 54.25,52 95.14,70.9 40.88,19 93.02,101.5 93.02,154.4 0,0 63.41,-59.2 78.21,-196.6 14.8,-137.4 28.61,-247.4 28.61,-247.4 0,0 590.81,86.7 582.36,101.5 -8.46,14.8 -181.81,289.6 -264.26,380.5 -82.45,90.9 -224.09,289.7 -295.97,325.6 -71.87,35.9 -234.66,21.1 -340.36,19 -105.7,-2.1 -196.61,-59.9 -228.32,-93.4 -31.71,-33.4 -258.63,-289.7 -316.41,-344.4" /><path
         id="path86"
         style="fill:#e4a376;fill-opacity:1;fill-rule:nonzero;stroke:none"
         d="m 5295.06,14123.9 c -4.76,-4.8 -79.28,-96.7 -139.53,-160.1 -60.25,-63.5 -139.18,-78.8 -139.18,-78.8 0,0 -19.74,-31.7 -19.11,-30.1 0.63,1.6 45.72,-13.2 125,37.5 79.27,50.8 172.82,231.5 172.82,231.5" /><path
         id="path88"
         style="fill:#e4a376;fill-opacity:1;fill-rule:nonzero;stroke:none"
         d="m 5061.46,13784.6 c 0,0 92.29,18.9 189.2,93.5 96.91,74.6 163.31,164.9 163.31,164.9 0,0 -66.59,-114.7 -153.79,-188.9 -87.21,-74.3 -171.5,-93.7 -171.5,-93.7 l -27.22,24.2" /><path
         id="path90"
         style="fill:#e4a376;fill-opacity:1;fill-rule:nonzero;stroke:none"
         d="m 5304.57,13784.6 c 0,0 72.96,55.7 122.09,104.6 49.12,48.9 85.62,99.8 85.62,99.8 0,0 -44.4,-79.8 -88.79,-134.9 -44.4,-55.2 -74.53,-73.6 -74.53,-73.6 l -44.39,4.1" /><path
         id="path92"
         style="fill:#c3a189;fill-opacity:1;fill-rule:nonzero;stroke:none"
         d="m 7076.57,13682.1 c -0.01,0 -0.01,0 -0.01,0 0,0 0,0 0.01,0 m -0.02,0 v 0 0 m -0.01,0 c 0,0 0,0 0,0 0,0 0,0 0,0 m -0.01,0 v 0 0 m -0.03,0.1 v 0 0" /><path
         id="path94"
         style="fill:#eeb183;fill-opacity:1;fill-rule:nonzero;stroke:none"
         d="m 7414.71,13474 c -0.16,0 -0.23,0 -0.23,0 v 0 c 0,0 -181.89,85.4 -193.36,105.6 -11.47,20.2 -140.82,102.3 -144.54,102.5 v 0 c -0.01,0 -0.01,0 -0.01,0 -0.01,0 -0.01,0 -0.01,0 0,0 0,0 -0.01,0 v 0 h -0.01 c 0,0 0,0 0,0 -0.01,0 -0.01,0 -0.01,0 v 0 c -0.01,0 -0.02,0.1 -0.03,0.1 v 0 c -1,1.4 0.43,31.5 3.52,73.8 56.38,-6.2 128.18,-20.9 169.29,-55.7 74.82,-63.3 237.96,-151.1 237.96,-151.1 v 0 c -0.09,-0.3 -0.19,-0.5 -0.29,-0.8 -0.02,-0.1 -0.04,-0.1 -0.07,-0.2 -26.41,-72.7 -68.72,-74.2 -72.2,-74.2" /><path
         id="path96"
         style="fill:#e4a376;fill-opacity:1;fill-rule:nonzero;stroke:none"
         d="m 5492.72,13832.2 122.62,122.1 -90.26,-132.8 z" /><path
         id="path98"
         style="fill:#e4a376;fill-opacity:1;fill-rule:nonzero;stroke:none"
         d="m 5790.81,14043.6 c 0,0 -28.02,61.3 -78.75,105.7 -50.74,44.4 -66.6,49.1 -69.77,63.4 -3.17,14.3 53.91,69.7 61.84,68.2 7.93,-1.6 -6.34,-58.7 -7.93,-65 -1.59,-6.4 98.3,-98.3 145.87,-172.9 47.57,-74.5 26.95,-196 26.95,-196 0,0 -16.91,130.5 -78.21,196.6" /><path
         id="path100"
         style="fill:#fbc398;fill-opacity:1;fill-rule:nonzero;stroke:none"
         d="m 8250.83,13271.6 c -87.5,149.5 -195.28,309 -267.75,399.3 -139.53,173.9 -287.51,372.1 -287.51,372.1 l -207.18,-221.5 c 0,0 71.88,-73.9 105.7,-221.9 33.83,-148 67.65,-253.7 67.65,-253.7 0,0 -156.44,46.5 -202.95,71.9 -46.5,25.4 -88.79,210.2 -295.96,253.1 -207.18,42.9 -398.6,-39.1 -398.6,-39.1 l -78.96,9 143.89,-266.9 1421.67,-102.3" /><path
         id="path102"
         style="fill:#3a70c0;fill-opacity:1;fill-rule:nonzero;stroke:none"
         d="m 12775.6,5151.9 c -14.8,-8.5 -95.1,-38.1 -154.3,-177.6 -59.2,-139.5 -100.7,-363.6 -101.1,-439.7 -0.4,-76.2 96.9,-139.6 185.7,-173.4 88.8,-33.8 139.5,-114.2 401.6,-118.4 262.2,-4.2 477.8,-16.9 524.3,143.8 46.5,160.6 -71.8,194.5 -173.3,291.7 -101.5,97.3 -236.8,300.2 -236.8,300.2 0,0 -59.2,334 -160.7,361.5 -101.4,27.5 -97.2,35.9 -118.4,23.3 -21.1,-12.7 -167,-211.4 -167,-211.4" /><g
         transform="scale(1.00025)"
         id="g104"><path
           id="path106"
           style="fill:#3a70c0;fill-opacity:1;fill-rule:nonzero;stroke:none"
           d="m 15019.2,5552.14 c -12.7,0 -147.9,8.5 -207.1,-63.39 -59.2,-71.88 -126.9,-583.35 -80.3,-612.95 46.5,-29.59 376.2,-33.79 435.4,-21.09 59.1,12.7 88.7,-9.3 143.6,-6.7 55,2.5 156.5,-53.09 388.9,-44.29 232.5,8.7 515.7,4.5 558,105.97 42.3,101.38 -33.2,122.57 -242.7,219.75 -209.6,97.28 -273,190.25 -378.6,312.83 -105.7,122.56 -325.6,312.82 -325.6,312.82 l -291.6,-202.95" /></g><path
         id="path108"
         style="fill:#100f0d;fill-opacity:1;fill-rule:nonzero;stroke:none"
         d="m 14259.7,7020.7 c 0,0 190.3,6.3 342.5,241 152.2,234.6 -627.9,234.6 -627.9,234.6 v -139.5 l 285.4,-336.1" /><path
         id="path110"
         style="fill:#fbc398;fill-opacity:1;fill-rule:nonzero;stroke:none"
         d="m 13955.3,7115.8 c 0,0 412.2,-38 723,107.8 310.7,145.9 659.6,190.3 659.6,190.3 0,0 -247.4,-367.8 -279.1,-564.5 -31.7,-196.6 12.7,-520 -63.4,-875.2 -76.1,-355.1 -112.2,-513.7 -112.2,-513.7 0,0 36.1,-106.8 80.5,-91.5 44.4,15.4 196.6,78.8 196.6,78.8 0,0 209.3,253.7 215.6,272.7 6.4,19.1 190.3,589.9 367.9,938.7 177.5,348.8 323.4,1008.4 260,1217.7 -63.4,209.3 -581.4,361.5 -1121.5,355.1 -540.2,-6.3 -977.8,-424.9 -977.8,-424.9 l 69.8,-310.8 -19,-380.5" /><g
         transform="scale(1.11053)"
         id="g112"><path
           id="path114"
           style="fill:#9d9d9c;fill-opacity:1;fill-rule:nonzero;stroke:none"
           d="m 16229.9,9364.19 -482.2,-4.13 v -143.58 l 499.7,4.1 c 52.6,71.66 -17.5,143.61 -17.5,143.61" /></g><g
         transform="scale(1.08782)"
         id="g116"><path
           id="path118"
           style="fill:#2e62a3;fill-opacity:1;fill-rule:nonzero;stroke:none"
           d="m 15865.4,10163.1 -0.2,0.2 c 0,0 -185.3,107.7 -402.5,93.8 -29.5,-1.8 -55.1,-31.6 -77.6,-81.5 -264.6,-111.7 -450,-414.02 -441.3,-764.93 6.5,-263.54 121.1,-494.36 292,-634.74 -0.5,-31.99 -0.6,-49.91 -0.6,-49.91 0,0 151,-109.95 373.6,-93.03 l 1.1,0.09 c 8.6,-0.19 17.4,-0.37 26.2,-0.09 371.5,9.1 663.9,372.21 653.1,810.94 -8.1,326.7 -182.2,603.07 -423.8,719.17" /></g><g
         transform="scale(1.07887)"
         id="g120"><path
           id="path122"
           style="fill:#3871c1;fill-opacity:1;fill-rule:nonzero;stroke:none"
           d="m 16289.1,9558.04 c 10.9,-442.35 -283.9,-808.47 -658.5,-817.74 -374.7,-9.27 -687.2,341.84 -698.1,784.22 -11,442.35 283.9,808.48 658.5,817.68 374.6,9.3 687.1,-341.8 698.1,-784.16" /></g><g
         transform="scale(1.0114)"
         id="g124"><path
           id="path126"
           style="fill:#fbc398;fill-opacity:1;fill-rule:nonzero;stroke:none"
           d="m 14619.5,9341.12 117,-57.74 225.7,178.96 c 0,0 196.5,-326.08 380.5,-459.86 183.9,-133.77 422.2,-188.05 564.3,-221.57 142.2,-33.42 317.8,12.55 355.3,96.2 37.7,83.65 4.3,431.58 -45.9,551.81 -50.3,120.23 -413.8,862.18 -413.8,862.18 h -326.1 c 0,0 104.5,-205.8 142.1,-402.32 37.6,-196.46 29.2,-254.99 33.4,-225.73 4.2,29.27 -183.9,108.67 -183.9,121.22 0,12.56 -54.4,229.33 -167.2,325.73 -112.9,96.5 -372.1,210.2 -531,220.2 -158.8,10.1 -447.3,-303.9 -447.3,-303.9 0,0 -146.5,-462.02 -54.3,-563.96 92.2,-101.84 351.2,-121.22 351.2,-121.22" /></g><path
         id="path128"
         style="fill:#e4a376;fill-opacity:1;fill-rule:nonzero;stroke:none"
         d="m 15471.1,9840.8 c 0,0 -207.2,-126.8 -338.3,-270.6 l -228.3,-181 c 0,0 -36.4,103.4 -16.1,121.1 20.3,17.6 282.5,296.7 582.7,330.5" /><path
         id="path130"
         style="fill:#e4a376;fill-opacity:1;fill-rule:nonzero;stroke:none"
         d="m 15830.4,9773.2 c 0,0 -4.2,-248 21.2,-384 25.4,-136.1 42.3,-161.4 42.3,-161.4 0,0 -76.1,88.7 -110,272.7 -33.8,183.9 -44.9,340.3 -44.9,340.3 l 91.4,-67.6" /><path
         id="path132"
         style="fill:#252323;fill-opacity:1;fill-rule:nonzero;stroke:none"
         d="m 12452.2,8322.9 c 0,0 -158.6,-78.2 -222,-116.2 -63.4,-38.1 -190.3,-158.6 -228.3,-380.6 -38.1,-221.9 69.8,-437.6 107.8,-564.4 38.1,-126.9 76.1,-183.9 196.6,-241 120.5,-57.1 298.1,-63.4 323.5,-63.4 25.3,0 657.9,126.8 680.9,126.8 23,0 949,-63.4 949,-63.4 0,0 -55.2,317.1 140.4,589.8 195.7,272.7 502.2,608.8 482.2,621.5 -20.1,12.7 -584.5,69.8 -990.4,69.8 -405.9,0 -1439.7,21.1 -1439.7,21.1" /><path
         id="path134"
         style="fill:#3a70c0;fill-opacity:1;fill-rule:nonzero;stroke:none"
         d="m 14729,10543.8 209.3,-95.8 c 0,0 -56.8,-302.7 -62.2,-594.5 -5.4,-291.7 28.4,-464.3 28.4,-464.3 0,0 -158.8,-208 -242.2,-292.5 -83.4,-84.6 -110.7,-97.3 -128.8,-126.9 -18,-29.6 -34.9,-342.4 -170.2,-486.2 -135.3,-143.7 -270.6,-274.8 -321.3,-334 -50.8,-59.2 -96.6,-122.6 -96.6,-122.6 0,0 -234,-84.6 -658.5,-50.8 -424.6,33.9 -834.7,346.7 -834.7,346.7 0,0 160.7,257.4 194.5,513.5 33.8,256.1 198.7,492.8 198.7,492.8 0,0 295.8,448.2 317,475.7 21.2,27.5 1014.8,603.5 1014.8,603.5 l 551.8,135.4" /><path
         id="path136"
         style="fill:#eeb289;fill-opacity:1;fill-rule:nonzero;stroke:none"
         d="m 14012.4,11282.6 -120.5,-532.7 60.2,-443 c 0,0 194.4,-470.3 254.2,-476.6 59.7,-6.4 192.9,-25.4 218.3,-25.4 25.4,0 222,44.4 266.4,82.4 44.4,38.1 38,656.5 38,656.5 l -57.1,47.5 -44.4,444 -584.3,325.5 -30.8,-78.2" /><path
         id="path138"
         style="fill:#e4a376;fill-opacity:1;fill-rule:nonzero;stroke:none"
         d="m 14018.2,11111.2 c 0,0 38.5,-135.3 121,-232.5 82.5,-97.1 523.1,-191.3 523.1,-191.3 l -34.8,347.9 -609.3,75.9" /><path
         id="path140"
         style="fill:#fbc398;fill-opacity:1;fill-rule:nonzero;stroke:none"
         d="m 13137.1,10274.2 c 0,0 -171.2,-164.9 -202.9,-298.1 -31.7,-133.2 -25.4,-342.5 -44.4,-443.9 -19,-101.5 -44.4,-203 -44.4,-203 0,0 133.2,-88.8 291.7,-57.1 158.6,31.8 215.7,57.1 215.7,57.1 0,0 107.8,-88.8 221.9,-260 114.2,-171.2 532.8,-253.7 678.7,-228.3 145.8,25.3 228.3,76.1 266.3,266.4 38.1,190.2 -4.3,610.5 -105.7,856.1 -101.4,245.7 -181.8,579.3 -181.8,579.3 0,0 -301.8,-76.3 -300,-89.3 1.8,-13.1 12.5,-409.6 12.5,-409.6 l -135.7,181.5 -671.9,48.9" /><g
         transform="scale(1.03477)"
         id="g142"><path
           id="path144"
           style="fill:#9d9d9c;fill-opacity:1;fill-rule:nonzero;stroke:none"
           d="m 16300,10040.2 -6299.9,-53.92 -0.17,-151.66 6300.07,51.71 v 153.87" /></g><g
         id="g146"><g
           clip-path="url(#clipPath152)"
           id="g148"><path
             id="path154"
             style="fill:#88909c;fill-opacity:1;fill-rule:nonzero;stroke:none"
             d="m 13137.1,9272.1 h 215.699 v 57.0977 H 13137.1 Z" /></g></g><path
         id="path156"
         style="fill:#efb084;fill-opacity:1;fill-rule:nonzero;stroke:none"
         d="m 13137.1,9272.1 c 0,0 80.4,124.8 -33.8,298.1 0,0 181.8,-139.5 249.5,-241 v 0 c -0.1,0 -5.7,-2.2 -15.4,-5.9 -26.1,-9.3 -87.5,-28.6 -200.3,-51.2" /><path
         id="path158"
         style="fill:#e4a376;fill-opacity:1;fill-rule:nonzero;stroke:none"
         d="m 13944.7,10043.8 c 0,0 12.7,-194.5 -71.9,-389 -84.5,-194.5 -93,-427 -93,-427 0,0 -22,224 29.2,431.2 51.1,207.2 61.8,483.6 61.8,483.6 l 73.9,-98.8" /><path
         id="path160"
         style="fill:#fbc398;fill-opacity:1;fill-rule:nonzero;stroke:none"
         d="m 13934.7,10388.5 c 0,0 -94.5,-66.7 -125.7,-85.7 -31.3,-19.1 -96.9,-76.1 -145.5,-87.8 -48.6,-11.6 -82.4,12.7 -82.4,12.7 0,0 -86.7,-61.3 -150.1,-76.1 -63.4,-14.8 -84.6,0 -84.6,0 0,0 -84.5,-19.5 -114.1,-6.6 -29.6,12.9 -31.8,55 -31.8,55 0,0 -40.1,4.4 -38,48.8 2.1,44.4 25.4,55 25.4,55 0,0 -38.1,29.9 -16.9,84.7 21.1,54.8 84.5,101.3 173.3,194.3 88.8,93.1 186.1,199.6 257.9,231.9 71.9,32.4 284.5,34.5 416,-14.1 131.6,-48.6 214,-257.9 214,-257.9 0,0 -131.1,-154.3 -137.4,-156.4 -6.3,-2.2 -160.1,2.2 -160.1,2.2" /><path
         id="path162"
         style="fill:#e4a376;fill-opacity:1;fill-rule:nonzero;stroke:none"
         d="m 13932.2,10453.4 c -2.5,18 -42.5,93.5 -89,150.6 -46.5,57.1 -68.6,101.2 -68.1,83.4 0.5,-17.9 53,-118.1 78.5,-198 25.6,-79.9 38.3,-130.9 38.3,-130.9 l 42.8,30 -2.5,64.9" /><path
         id="path164"
         style="fill:#e4a376;fill-opacity:1;fill-rule:nonzero;stroke:none"
         d="m 13407.3,10513.1 c 0,0 -126.4,-116.6 -240.8,-173 5.5,-23.7 21.4,-36.3 21.4,-36.3 0,0 57.1,40.7 120.5,95.4 63.4,54.7 98.9,113.9 98.9,113.9" /><path
         id="path166"
         style="fill:#e4a376;fill-opacity:1;fill-rule:nonzero;stroke:none"
         d="m 13536.7,10447.6 c 0,8.4 -120.5,-117.9 -257.9,-183 -40.6,-19.3 -78.2,-32.8 -111.1,-42.4 10.5,-19.7 32.8,-22.2 32.8,-22.2 0,0 63.5,2.6 156.5,72.2 93,69.7 179.7,166.9 179.7,175.4" /><path
         id="path168"
         style="fill:#e4a376;fill-opacity:1;fill-rule:nonzero;stroke:none"
         d="m 13775.1,10379.9 c -12.2,8.5 -92.5,-21.1 -134.8,-55 -42.3,-33.8 -123.7,-137.1 -123.8,-137.2 36.1,19.9 64.6,40 64.6,40 0,0 107.8,97.8 128.9,116.3 21.2,18.4 77.3,27.5 65.1,35.9" /><path
         id="path170"
         style="fill:#e4a376;fill-opacity:1;fill-rule:nonzero;stroke:none"
         d="m 13389,10145.3 c 7.6,9 17.6,19.2 31.4,31.2 61.3,53.3 179.7,189.4 179.7,204.9 0,15.4 -128.7,-123.2 -209.3,-179.9 -27,-19 -54.9,-38.7 -80.1,-56.6 20.1,3.1 35.7,6.7 35.7,6.7 0,0 11.5,-7.9 42.6,-6.3" /><path
         id="path172"
         style="fill:#fbc398;fill-opacity:1;fill-rule:nonzero;stroke:none"
         d="m 15731.5,10225.3 c -19.5,-4.7 -51.3,-44.6 -129.4,-48.8 -78,-4.1 -219.9,5.8 -236.7,23.5 -16.9,17.6 0,224.3 21.1,266.6 21.1,42.3 114.1,152.2 177.6,177.6 63.4,25.3 236.7,52.2 291.7,47.2 55,-5 126.9,-283 126.9,-283 l -118.4,-144.6 -132.8,-38.5" /><path
         id="path174"
         style="fill:#e4a376;fill-opacity:1;fill-rule:nonzero;stroke:none"
         d="m 15652.9,10408.4 -42.3,39.6 60.5,-255.9 67.9,15.8 -86.1,200.5" /><path
         id="path176"
         style="fill:#fbc398;fill-opacity:1;fill-rule:nonzero;stroke:none"
         d="m 12965.9,8168.6 c -19,0 -222,17.9 -405.9,-200.3 -183.9,-218.3 -171.2,-573.4 -107.8,-738.3 63.4,-164.9 177.6,-272.7 177.6,-272.7 0,0 -76.1,-171.3 -25.4,-685 50.7,-513.7 97.1,-964 83.4,-1052.8 -13.6,-88.8 0,-183.9 0,-183.9 0,0 56.1,-63.4 87.8,0 31.7,63.4 69.8,183.9 101.5,215.6 31.7,31.7 183.9,69.8 183.9,88.8 0,19 25.4,551.8 171.3,868.9 145.8,317.1 164.9,932.3 164.9,932.3 0,0 177.5,336.1 139.5,615.2 -38.1,279 -570.8,412.2 -570.8,412.2" /><path
         id="path178"
         style="fill:#e4a376;fill-opacity:1;fill-rule:nonzero;stroke:none"
         d="m 12750.3,7566.1 c 0,0 57,-171.2 0,-304.4 -57.1,-133.2 -120.5,-304.4 -120.5,-304.4 l -109.6,138.4 c 0,0 134.9,153.3 154,191.4 19,38 76.1,279 76.1,279" /><path
         id="path180"
         style="fill:#f2f2f2;fill-opacity:1;fill-rule:nonzero;stroke:none"
         d="m 12648.8,5820.2 c 29.4,-306.8 48.4,-539.5 39,-600.7 -13.6,-88.8 0,-183.9 0,-183.9 0,0 56.1,-63.4 87.8,0 31.7,63.4 69.8,183.9 101.5,215.6 31.7,31.7 183.9,69.8 183.9,88.8 0,12.4 10.8,242.7 58.6,489.3 -174.8,-19.7 -371.2,-14.1 -470.8,-9.1" /><path
         id="path182"
         style="fill:#f2f2f2;fill-opacity:1;fill-rule:nonzero;stroke:none"
         d="m 15010.5,6053.3 c -4.5,-26.1 -9.4,-52.5 -15.1,-79.1 -76.1,-355.1 -112.2,-513.7 -112.2,-513.7 0,0 36.1,-106.8 80.5,-91.5 44.4,15.4 196.6,78.8 196.6,78.8 0,0 209.3,253.7 215.6,272.7 2.9,8.6 41.5,128.3 99.3,289.2 -183.4,5 -376.8,30.7 -464.7,43.6" /><path
         id="path184"
         style="fill:#252323;fill-opacity:1;fill-rule:nonzero;stroke:none"
         d="m 13856.2,11482.1 -42,17.9 c 0,0 -47.8,174.4 -52.4,262.1 -4.6,87.7 -13.3,117.7 -2.3,157.1 11.1,39.4 21.3,126.7 31.5,147.5 10.2,20.7 50.4,57.3 80.9,86.2 30.6,29 98,106.4 131.6,123.4 32.8,16.7 215.5,95.7 215.5,95.7 160.2,28 146.5,39.8 232.2,36.6 85.8,-3.2 178,-46.1 230,-76.1 65,-37.4 95.1,-118.2 113.8,-169.6 18.8,-51.3 36.9,-128.6 5,-198.5 -31.8,-69.9 -188.9,-112 -252.7,-140.9 -63.9,-28.9 -264.1,-110.2 -288.8,-148.9 -24.7,-38.8 -3.4,-252.2 -88.4,-285.8 -85,-33.5 -69.7,-19.1 -126.9,-28 -57.2,-9 -187,121.3 -187,121.3" /><path
         id="path186"
         style="fill:#fbc398;fill-opacity:1;fill-rule:nonzero;stroke:none"
         d="m 13992.8,11471.6 c 0,0 -70.7,169.3 -132.9,166.6 -62.3,-2.7 -57.7,-90.4 -37.4,-182 20.2,-91.7 80.1,-145 124.1,-168.5 0,0 68.1,-199.4 129.1,-274.7 61,-75.2 301.4,-158.9 440.7,-187.2 139.4,-28.4 203.3,0.5 257.4,56.9 54.1,56.3 112.4,427.8 100.8,547.3 -11.6,119.4 -24.1,175.8 -17.8,214.2 6.3,38.3 -59.9,371.2 -87.3,394.8 -27.3,23.5 -128,27.1 -199.2,15.1 -71.3,-12.1 -190.8,-57 -246.8,-54.6 0,0 -55.2,-4.8 -68,-37.2 -12.7,-32.4 11.5,-41.8 -33.9,-70.4 -45.5,-28.5 -78,-65.3 -78,-65.3 0,0 8.9,-90.4 1.4,-106.9 -7.4,-16.4 -40.4,-68.1 -52.5,-96.6 -12.2,-28.6 -24.5,-157 -35.5,-174.2 -11,-17.3 -46.6,-39.9 -46.6,-39.9 l -17.6,62.6" /><path
         id="path188"
         style="fill:#d4d3d1;fill-opacity:1;fill-rule:nonzero;stroke:none"
         d="m 10402.9,10258.1 c 2.5,-43.1 -22.2,-79.6 -55.3,-81.6 -33,-1.9 -61.9,31.5 -64.4,74.6 -2.5,43.2 22.2,79.7 55.3,81.6 33.1,2 61.9,-31.4 64.4,-74.6" /><path
         id="path190"
         style="fill:#fbc398;fill-opacity:1;fill-rule:nonzero;stroke:none"
         d="m 14340.9,10163.6 c -64.4,195.2 -108.7,379.1 -108.7,379.1 0,0 -301.8,-76.3 -300,-89.3 1.1,-8.3 5.9,-171.9 9.2,-289.8 h 399.5" /><path
         id="path192"
         style="fill:#2e62a3;fill-opacity:1;fill-rule:nonzero;stroke:none"
         d="m 12122.4,11271.4 v 0 c 0,0 -157.1,67.3 -420,43.9 -262.9,-23.4 -569.4,-546.6 -571.5,-563.9 -2.2,-17.3 39.2,-911 51.2,-939.4 12,-28.3 482.5,-574.7 482.5,-574.7 0,0 173.6,-58.6 344.3,-25.5 423.8,17 748.7,497.8 725.6,1073.8 -19.4,484.1 -278.4,881.4 -612.1,985.8" /><path
         id="path194"
         style="fill:#3871c1;fill-opacity:1;fill-rule:nonzero;stroke:none"
         d="m 12511.6,10303 c 23.1,-576.1 -301.8,-1056.8 -725.6,-1073.8 -423.9,-17 -786.2,436.2 -809.3,1012.3 -23.1,576 301.8,1056.8 725.7,1073.8 423.8,17 786.2,-436.3 809.2,-1012.3" /><path
         id="path196"
         style="fill:#d4d3d1;fill-opacity:1;fill-rule:nonzero;stroke:none"
         d="m 11978.4,10279.8 c 3.6,-89.9 -54,-165.2 -128.7,-168.2 -74.7,-3 -138.1,67.5 -141.7,157.3 -3.6,89.9 54,165.2 128.7,168.2 74.6,3 138.1,-67.4 141.7,-157.3" /><path
         id="path198"
         style="fill:#9d9d9c;fill-opacity:1;fill-rule:nonzero;stroke:none"
         d="m 11834.4,10346.2 c 0,0 56.1,-95.7 4.5,-157.4 l -996.3,-5.2 v 154.1 l 991.8,8.5" /><g
         transform="scale(1.04227)"
         id="g200"><path
           id="path202"
           style="fill:#d4d3d1;fill-opacity:1;fill-rule:nonzero;stroke:none"
           d="m 16296.9,9891.85 c 3.1,-124.3 -79.8,-227.18 -185,-229.78 -105.3,-2.61 -193.1,96.06 -196.3,220.36 -3,124.27 79.9,227.17 185.1,229.77 105.3,2.6 193.2,-96 196.2,-220.35" /></g><g
         transform="scale(1.0342)"
         id="g204"><path
           id="path206"
           style="fill:#9d9d9c;fill-opacity:1;fill-rule:nonzero;stroke:none"
           d="m 16222.3,10045 c 0,0 77.7,-69.14 3.9,-153.94 l -481.7,-3.96 -8.3,156.5 486.1,1.4" /></g><path
         id="path208"
         style="fill:#fbc398;fill-opacity:1;fill-rule:nonzero;stroke:none"
         d="m 15971.7,10448.2 124.2,-271.7 -158.7,-107.9 -174.3,64.8 -31.4,91.9 c 0,0 -0.8,145.9 7.5,154.3 8.3,8.5 232.7,68.6 232.7,68.6" /></g></g></svg>