<?xml version="1.0" encoding="UTF-8" standalone="no"?>
<svg
   xmlns:dc="http://purl.org/dc/elements/1.1/"
   xmlns:cc="http://creativecommons.org/ns#"
   xmlns:rdf="http://www.w3.org/1999/02/22-rdf-syntax-ns#"
   xmlns:svg="http://www.w3.org/2000/svg"
   xmlns="http://www.w3.org/2000/svg"
   viewBox="0 0 2666.6667 2666.6667"
   height="2666.6667"
   width="2666.6667"
   xml:space="preserve"
   id="svg2"
   version="1.1"><metadata
     id="metadata8"><rdf:RDF><cc:Work
         rdf:about=""><dc:format>image/svg+xml</dc:format><dc:type
           rdf:resource="http://purl.org/dc/dcmitype/StillImage" /></cc:Work></rdf:RDF></metadata><defs
     id="defs6" /><g
     transform="matrix(1.3333333,0,0,-1.3333333,0,2666.6667)"
     id="g10"><g
       transform="scale(0.1)"
       id="g12"><g
         transform="scale(1.22699)"
         id="g14"><path
           id="path16"
           style="fill:#ffffff;fill-opacity:1;fill-rule:nonzero;stroke:none"
           d="M 16300,0 H 0 V 16300 H 16300 V 0" /></g><path
         id="path18"
         style="fill:#a5a5a4;fill-opacity:1;fill-rule:nonzero;stroke:none"
         d="m 8185.33,6509.6 c 0,0 245.4,211.4 379.44,75.5 l 624.85,362.4 c 0,0 128.37,-30.2 113.27,-188.8 l -611.64,-388.8 c 0,0 7.55,-302 -302.04,-292.6 -309.59,9.4 -203.88,432.3 -203.88,432.3" /><path
         id="path20"
         style="fill:#636567;fill-opacity:1;fill-rule:nonzero;stroke:none"
         d="m 8313.7,6449.1 181.23,60.5 69.84,-136 -251.07,-143.4 v 218.9" /><path
         id="path22"
         style="fill:#a5a5a4;fill-opacity:1;fill-rule:nonzero;stroke:none"
         d="m 6890.11,6132 c 49.29,45.3 1046.04,626.7 1046.04,626.7 0,0 105.71,-339.8 75.51,-347.3 C 7981.46,6403.8 7249,5896.2 7249,5896.2 L 6890.11,6132" /><path
         id="path24"
         style="fill:#a5a5a4;fill-opacity:1;fill-rule:nonzero;stroke:none"
         d="m 5508.47,5263.6 c -49.08,-7.5 -343.57,-52.8 -343.57,-52.8 v -226.6 l 309.6,-120.8 c 0,0 158.57,226.6 158.57,249.2 0,22.7 -124.6,151 -124.6,151" /><path
         id="path26"
         style="fill:#636567;fill-opacity:1;fill-rule:nonzero;stroke:none"
         d="m 6833.69,6327.5 c 56.6,23.2 1034.5,642.7 1034.5,642.7 0,0 -218.99,203.9 -249.19,181.2 -30.2,-22.7 -1011.88,-688 -1025.71,-697 -13.84,-9.1 44.07,-186.5 81.83,-194 37.75,-7.6 158.57,67.1 158.57,67.1" /><path
         id="path28"
         style="fill:#d3d2d0;fill-opacity:1;fill-rule:nonzero;stroke:none"
         d="m 6016.28,6077.3 -58.52,-179.4 -75.51,-83 c 0,0 58.52,-68 67.02,-68 8.49,0 393.6,211.4 393.6,211.4 l 113.26,-151 -981.63,-664.5 c 0,0 -30.21,-302 0,-279.4 30.2,22.7 1261.02,777.8 1306.33,762.7 45.31,-15.1 2688.18,-1132.7 2688.18,-1132.7 l 302.05,219 v 430.4 c 0,0 -966.54,332.3 -974.09,362.5 -7.55,30.2 -807.97,1865.1 -807.97,1865.1 l -422.86,-339.8 604.09,-1291.3 -1155.31,453.1 -279.4,354.9 -719.24,-470" /><path
         id="path30"
         style="fill:#a5a5a4;fill-opacity:1;fill-rule:nonzero;stroke:none"
         d="m 5904.91,6305.7 -67.96,-226.6 c 0,0 90.61,-203.8 120.81,-181.2 30.21,22.7 3654.73,2401.3 3654.73,2401.3 L 9574.73,8465.3 7905.94,7589.4 5904.91,6305.7" /><path
         id="path32"
         style="fill:#454547;fill-opacity:1;fill-rule:nonzero;stroke:none"
         d="m 5791.64,6811.6 -392.66,-219 75.52,-196.3 h 151.02 c 0,0 173.67,-347.4 211.43,-317.2 37.75,30.2 2106.75,1374.3 2106.75,1374.3 l -37.76,136 1668.79,875.9 264.29,211.4 -67.96,83.1 -498.37,-287 -1668.79,-853.2 -71.74,-109.5 -1702.39,-577.7 -38.13,-120.8" /><path
         id="path34"
         style="fill:#c37140;fill-opacity:1;fill-rule:nonzero;stroke:none"
         d="m 7332.06,10896.7 234.08,-75.5 c 0,0 370.01,-7.5 483.27,-158.5 113.27,-151.1 118.51,-264.3 118.51,-264.3 0,0 153.33,-415.4 198.64,-777.8 45.3,-362.5 83.06,-1079.8 135.92,-1155.3 52.86,-75.5 234.08,-22.7 415.31,0 181.22,22.6 286.93,133.2 317.14,111.9 30.21,-21.3 37.76,-104.4 37.76,-104.4 l -854.63,-450.9 h -250.14 c 0,0 -20.34,458.5 -156.26,737.9 0,0 -370.01,309.6 -445.52,566.3 -75.51,256.7 0,709.8 0,709.8 l -336.45,203.2 c 0,0 -146.81,280.1 -146.81,355.6 0,75.5 249.18,302 249.18,302" /><path
         id="path36"
         style="fill:#d3d2d0;fill-opacity:1;fill-rule:nonzero;stroke:none"
         d="m 3322.44,13501.3 c 0,0 -158.58,-61.8 -151.02,-170.3 l 453.06,-632.4 176.37,244.6 -478.41,558.1" /><path
         id="path38"
         style="fill:#d3d2d0;fill-opacity:1;fill-rule:nonzero;stroke:none"
         d="m 2355.9,13141.2 c 0,0 120.81,194.5 249.18,134.1 128.37,-60.4 656.95,-1072.2 656.95,-1072.2 0,0 -232.03,-206.6 -323.68,-138.3 -91.63,68.2 -303.06,44 -378.57,325.2 -75.51,281.2 -203.88,751.2 -203.88,751.2" /><path
         id="path40"
         style="fill:#636567;fill-opacity:1;fill-rule:nonzero;stroke:none"
         d="M 2548.69,12203.1 2657.94,7589.4 815.48,6804 785.273,6577.5 996.703,6449.1 4938.37,8208.5 v 105.8 l -279.39,196.3 -1412.06,-672.1 -57.57,2431.5 -6.04,1493.1 -634.62,440" /><path
         id="path42"
         style="fill:#a5a5a4;fill-opacity:1;fill-rule:nonzero;stroke:none"
         d="m 3099.84,11130.8 718.45,-1112.3 -879.94,-438.2 c 0,0 455.83,-859.9 544.15,-919.8 88.32,-60 1017.91,-469.6 1017.91,-469.6 l 889.53,120.8 c 0,0 864.83,86.2 401.7,828.4 -463.13,742.3 -572.32,1024.2 -814.74,1235.6 -242.41,211.4 -1203.64,1036.8 -1203.64,1036.8 l -589.95,350.6 c 0,0 -36.04,22.7 -93.93,-103.6 -57.9,-126.3 10.46,-528.7 10.46,-528.7" /><path
         id="path44"
         style="fill:#a5a5a4;fill-opacity:1;fill-rule:nonzero;stroke:none"
         d="m 2355.9,13275.3 -339.8,-297 1083.74,-1847.5 155.48,302.1 260.59,90.6 -1084.5,1699 -75.51,52.8" /><path
         id="path46"
         style="fill:#b3b3b2;fill-opacity:1;fill-rule:nonzero;stroke:none"
         d="m 4137.32,8262.3 c 0,0 746.7,-1126.8 839.58,-1188.9 188,-125.9 510.18,307.7 531.57,345.1 21.4,37.5 -628.58,1261.7 -628.58,1261.7 l -742.57,-417.9" /><path
         id="path48"
         style="fill:#636567;fill-opacity:1;fill-rule:nonzero;stroke:none"
         d="m 3679.97,12223.3 c 0,0 -871.01,40.3 -98.09,-790.4 25.79,-27.7 2451.4,-3896.4 2526.91,-3911.5 75.51,-15.1 928.78,434.7 936.33,500.5 7.55,65.8 -1291.23,1996.6 -1291.23,1996.6 l -1434.02,1514.7 -639.9,690.1" /><path
         id="path50"
         style="fill:#b3b3b2;fill-opacity:1;fill-rule:nonzero;stroke:none"
         d="m 7324.51,7763 c 0,0 -218.98,-128.3 -218.98,-105.7 0,5.4 -82.26,120.7 -170.59,274.7 l -266.84,-155.4 142.94,-247.7 -430.41,-211.4 -386.43,602.1 -71.61,111.6 -908.71,1415.7 -513.47,-241.6 158.56,-694.7 1132.67,-1699 128.36,30.2 279.4,-332.2 1332.76,1000.5 -207.65,252.9" /><path
         id="path52"
         style="fill:#252323;fill-opacity:1;fill-rule:nonzero;stroke:none"
         d="m 5002.25,10073.7 c 0,0 -136.87,-397.7 225.58,-747.6 362.45,-349.9 689.19,-120.8 887.01,0 197.83,120.8 394.15,166.1 371.5,181.2 -22.65,15.1 762.66,322.7 785.31,316.2 22.66,-6.6 294.49,212.4 294.49,212.4 0,0 -203.87,196.3 -234.08,415.3 -30.2,219 0,445.5 0,445.5 0,0 -392.66,7.6 -611.64,-75.5 -218.98,-83 -704.14,-181.2 -704.14,-181.2 l -556.89,-196.3 -457.14,-370" /><path
         id="path54"
         style="fill:#636567;fill-opacity:1;fill-rule:nonzero;stroke:none"
         d="m 3680.04,13187.3 c 0,0 -1026.11,-1288.7 -1033.66,-1318.9 -7.55,-30.2 105.71,-209.2 105.71,-209.2 l 279.39,-126 872.31,870.7 155.48,783.4 h -379.23" /><path
         id="path56"
         style="fill:#252323;fill-opacity:1;fill-rule:nonzero;stroke:none"
         d="m 3849.52,12608.1 c 0,0 -181.22,143 -297.01,90.5 -115.78,-52.4 -614.16,-757.2 -614.16,-787.4 0,-30.2 105.72,-261.8 151.03,-251.7 45.3,10.1 765.18,236.6 760.14,266.8 -5.03,30.2 0,681.8 0,681.8" /><path
         id="path58"
         style="fill:#b3b3b2;fill-opacity:1;fill-rule:nonzero;stroke:none"
         d="m 5155.82,13582.5 c 7.59,15.1 153.57,80.6 153.57,80.6 l 156.06,160.9 c 0,0 85.58,-4.9 70.48,-80.4 l -85.58,-122.1 c 0,0 -40.27,-295.7 -80.55,-295.7 -40.27,0 -130.88,-23.1 -166.12,-31.7 -35.24,-8.6 -118.45,-18.7 -80.55,56.9 37.91,75.5 32.69,231.5 32.69,231.5" /><path
         id="path60"
         style="fill:#636567;fill-opacity:1;fill-rule:nonzero;stroke:none"
         d="m 5037.55,13471.8 -518.5,-637.9 c 0,0 -90.61,-263.2 -55.38,-268.3 35.24,-5 543.68,182 573.88,247.1 30.21,65.1 352.39,591.7 352.39,591.7 l -352.39,67.4" /><path
         id="path62"
         style="fill:#c37140;fill-opacity:1;fill-rule:nonzero;stroke:none"
         d="m 4575.2,12517.8 c 19.36,22.7 374.26,165.3 646.1,180.8 271.84,15.6 483.27,-60 483.27,-60 0,0 135.92,85.1 256.73,125.6 0,0 -123.33,179 -213.94,264.6 -90.62,85.6 -241.64,186.2 -241.64,186.2 l 156.06,236.6 c 0,0 533.61,-226.5 699.73,-367.4 166.13,-141 231.57,-163.2 312.11,-250.3 80.55,-87 105.72,-143.1 60.41,-225.8 -45.3,-82.7 -297.01,-329.4 -458.1,-445.2 -161.09,-115.8 -297.01,-166.1 -468.16,-176.2 -171.17,-10 -503.41,90.6 -503.41,90.6 0,0 -387.62,-10 -508.44,40.3 -120.82,50.3 -317.15,138.9 -307.08,197.8 10.07,59 86.36,202.4 86.36,202.4" /><path
         id="path64"
         style="fill:#252323;fill-opacity:1;fill-rule:nonzero;stroke:none"
         d="m 4357.96,12764.2 c 90.61,38.1 397.69,209.2 448.03,214.2 50.34,5.1 140.95,-60.4 156.06,-55.3 15.1,5 147.2,139.3 212.03,125 64.84,-14.3 167.69,-290.8 151.51,-308.6 -16.2,-17.8 -645.45,-335.6 -645.45,-335.6 l -322.18,136.6 v 223.7" /><path
         id="path66"
         style="fill:#e9eef1;fill-opacity:1;fill-rule:nonzero;stroke:none"
         d="m 4514.01,12263.6 c -135.91,20.1 -250.42,17.4 -281.9,0 -31.48,-17.4 -514.86,-735 -514.86,-735 0,0 356.28,-596.5 514.86,-717.3 158.57,-120.8 468.16,-241.7 588.98,-354.9 120.82,-113.3 181.15,-382.7 181.15,-382.7 0,0 234.16,141 687.23,277 453.06,135.9 529.93,307.2 514.82,329.9 -15.1,22.6 -107.07,130.7 -280.74,402.5 -173.68,271.8 -317.15,513.5 -317.15,566.3 0,52.9 -7.55,271.9 -120.82,430.5 -113.26,158.5 -130.88,274.3 -271.83,309.5 -140.95,35.3 -422.86,-5 -422.86,-5 l -276.88,-120.8" /><path
         id="path68"
         style="fill:#c37140;fill-opacity:1;fill-rule:nonzero;stroke:none"
         d="m 4575.2,12685.2 215.69,-300.8 h 161.09 c 0,0 291.98,-327.2 206.39,-538.6 -85.58,-211.4 -866.58,332.2 -866.58,332.2 0,0 -100.4,35.3 -122.83,135.9 -22.43,100.7 -53.14,361.2 -80.58,419.7 -27.43,58.6 -199.09,63.6 0,96.3 199.1,32.8 486.82,-144.7 486.82,-144.7" /><path
         id="path70"
         style="fill:#a45634;fill-opacity:1;fill-rule:nonzero;stroke:none"
         d="m 4492.35,13051.8 -21.98,-290.6 -461.99,44.6 c 0,0 90.11,-171.9 249.24,-193.1 183.06,-24.4 294.02,54.4 317.58,72.5 l -82.85,366.6" /><path
         id="path72"
         style="fill:#2f1d16;fill-opacity:1;fill-rule:nonzero;stroke:none"
         d="m 4302.15,13617.6 c 0,0 -12.77,77 -31.6,110.9 -18.82,33.9 -37.64,37.7 -58.35,64 -20.71,26.4 -48.94,45.2 -84.85,45.2 -35.9,0 -90.21,15 -118.97,7.5 -28.76,-7.5 -71,-28.2 -129.36,-41.4 -58.35,-13.2 -69.64,-50.8 -114.82,-60.2 -45.18,-9.4 -69.64,-39.6 -88.47,-65.9 -18.83,-26.4 -35.76,-39.5 -56.47,-56.2 -20.71,-16.7 -48.94,-69.9 -56.47,-86.9 -7.53,-16.9 -9.41,-16.9 -24.47,-47 -12.08,-24.2 -19.19,-110.2 -21.54,-143.4 -17.61,-34.3 -29.27,-89.2 2.86,-166 59.68,-142.6 156.82,-249.9 226.17,-311.3 69.34,-61.5 181.03,-102.7 181.03,-102.7 l -21.02,199.4 c 0,0 119.49,324.6 119.4,343 -0.09,18.4 234.18,217.7 234.18,217.7 l 48.77,66.3 c 0,0 -1.37,10.4 -6.02,27" /><path
         id="path74"
         style="fill:#c37140;fill-opacity:1;fill-rule:nonzero;stroke:none"
         d="m 4246.44,13621.5 c 0,0 47.63,-20.4 61.73,-30.9 14.11,-10.5 90.24,-135.1 110.39,-166.1 20.17,-31 36.36,-79.2 45.11,-94.8 8.75,-15.6 64.49,-109.9 81.33,-149.6 16.85,-39.7 57,-208.4 65.08,-254.4 8.09,-46 16.96,-107.9 4.1,-128.8 -12.85,-20.9 -92.52,-71.1 -177.43,-90.1 -84.92,-19.1 -281.37,-2.4 -348.37,26.8 -66.98,29.3 -121.3,138.1 -121.3,138.1 0,0 -25.43,-25.2 -74.07,-11.6 -48.64,13.7 -136.38,53.2 -168,133.7 -31.62,80.6 40.64,85.7 86.62,71.9 45.98,-13.8 72.69,-58.8 79.5,-56.4 6.81,2.5 11.87,8.1 14.4,10.8 2.53,2.8 -26.1,87.8 -33.82,104 -7.71,16.1 -63.32,107.8 -62.99,112.1 0.32,4.2 25.16,141.1 44.82,164.5 19.67,23.3 392.9,220.8 392.9,220.8" /><path
         id="path76"
         style="fill:#a45634;fill-opacity:1;fill-rule:nonzero;stroke:none"
         d="m 3970.36,13471.8 c 0,0 98.1,-45.5 124.05,-196.5 25.95,-150.9 -35.14,-349.9 -35.14,-349.9 0,0 138.95,-256.6 156.25,-441.2 17.3,-184.5 16.59,-220.6 16.59,-220.6 l -172.84,96.7 -250.55,875.9 44.82,164.5 116.82,71.1" /><path
         id="path78"
         style="fill:#b36239;fill-opacity:1;fill-rule:nonzero;stroke:none"
         d="m 5778.91,12390 c -118.03,0 -212.78,34.7 -212.78,34.7 17.58,-0.8 34.86,-1.2 51.84,-1.2 294.37,0 496.87,117 496.87,117 -92.81,-119.7 -224.71,-150.5 -335.93,-150.5" /><path
         id="path80"
         style="fill:#b3b3b2;fill-opacity:1;fill-rule:nonzero;stroke:none"
         d="m 3945.17,13268.7 c 23.49,26.9 278.55,251.7 278.55,251.7 0,0 98.44,10.1 84.45,-87.2 l -299.79,-292 -63.21,127.5" /><path
         id="path82"
         style="fill:#a45634;fill-opacity:1;fill-rule:nonzero;stroke:none"
         d="m 5961.3,12764.2 c 52.87,-2.2 183.75,28 420.35,-97.9 0,0 -139.75,183.5 -449.95,139.6 l 29.6,-41.7" /><path
         id="path84"
         style="fill:#c37140;fill-opacity:1;fill-rule:nonzero;stroke:none"
         d="m 5505.72,13215 c 0,0 -115.78,-10 -266.8,-25.1 -151.02,-15.1 -214.11,40.2 -255.56,60.4 -41.45,20.1 -91.79,50.3 -96.83,75.5 -5.03,25.2 25.17,55.4 50.35,55.4 25.17,0 337.28,70.4 337.28,70.4 l 176.19,169.9 211.43,-169.9 -156.06,-236.6" /><path
         id="path86"
         style="fill:#c37140;fill-opacity:1;fill-rule:nonzero;stroke:none"
         d="m 5243.96,13708.4 c 0,0 -115.79,-2.7 -191.3,-86.9 -75.51,-84.3 -65.44,-328.8 25.17,-327.4 90.61,1.5 135.92,63 166.13,110.3 30.2,47.2 -25.18,137.9 -25.18,153 0,15.1 90.61,105.7 90.61,105.7 l -65.43,45.3" /><path
         id="path88"
         style="fill:#c37140;fill-opacity:1;fill-rule:nonzero;stroke:none"
         d="m 3717.25,13235.2 c 0,0 -33.85,-1.8 -37.21,-47.9 -3.35,-46.1 120.82,-244.1 120.82,-244.1 0,0 -84.04,-402.7 -120.89,-719.9 -36.84,-317.1 16.71,-387.6 0,-402.7 -16.71,-15.1 -4.37,-166.1 37.28,-292 41.66,-125.8 125.71,-202.3 125.71,-202.3 0,0 86.66,-135.6 326,-54.7 239.34,80.8 122.11,463.4 122.83,478.5 0.73,15.1 -44.58,110.8 -44.58,125.9 0,15.1 11.21,269.2 -50.34,527.9 -61.55,258.7 -190.72,499 -188.49,549.4 2.23,50.3 60.96,152.6 50.89,234 -10.07,81.4 -87.25,232.5 -107.39,232.5 -20.14,0 -32.41,-30.2 -48.09,-30.2 -15.68,0 -59.62,5.2 -71.81,-45.7 0,0 -107.72,-24.8 -114.73,-108.7" /><path
         id="path90"
         style="fill:#865d48;fill-opacity:1;fill-rule:nonzero;stroke:none"
         d="m 3674.96,11733.7 c -5.29,4.1 -8.23,6.4 -8.23,6.4 l 6.04,36.7 c 0.04,-12.4 0.76,-27 2.19,-43.1" /><path
         id="path92"
         style="fill:#b36239;fill-opacity:1;fill-rule:nonzero;stroke:none"
         d="m 3939.02,11583.6 c -62.97,0 -225.63,120.9 -264.06,150.1 -1.43,16.1 -2.15,30.7 -2.19,43.1 l 7.2,43.8 c 0,0 63.75,-14.8 166.99,-100.5 45.19,-37.6 77.36,-51.9 105.15,-51.9 35.7,0 64.18,23.6 103.81,51.9 70.47,50.2 113.04,76.8 113.04,76.8 0,0 -158.35,-202.8 -223.79,-212.9 -1.93,-0.3 -3.99,-0.4 -6.15,-0.4" /><path
         id="path94"
         style="fill:#a45634;fill-opacity:1;fill-rule:nonzero;stroke:none"
         d="m 4266.71,11820.6 v 0 c -15.74,-317.1 -115.15,-352.4 -273.41,-372.5 -158.26,-20.2 -276.05,80.5 -276.05,80.5 41.66,-125.8 125.71,-202.3 125.71,-202.3 0,0 86.66,-135.6 326,-54.7 239.34,80.8 122.1,463.4 122.83,478.5 0.4,8.3 -12.91,40.5 -25.08,70.5" /><path
         id="path96"
         style="fill:#d3d2d0;fill-opacity:1;fill-rule:nonzero;stroke:none"
         d="M 3069.24,11860.9 C 3091.89,11815.6 4710.13,9304 4710.13,9304 l 303.75,142.9 -1778.51,2617.9 -166.13,-203.9" /><path
         id="path98"
         style="fill:#343434;fill-opacity:1;fill-rule:nonzero;stroke:none"
         d="m 4608.71,9090.9 c -194.8,509.7 -604.83,826.5 -915.82,707.6 L 3181.52,9603 3386.41,9067 c 11.78,-130.3 43.3,-268.4 96.09,-406.5 52.79,-138.1 121.42,-262.1 199.57,-367 l 204.88,-536 449.64,177.8 c 20.93,4.1 41.54,9.9 61.73,17.6 22.86,8.8 44.51,19.7 64.99,32.5 h 0.01 c 258.24,161.3 325.86,633.4 145.39,1105.5" /><path
         id="path100"
         style="fill:#454547;fill-opacity:1;fill-rule:nonzero;stroke:none"
         d="m 4097.34,8895.5 c 194.8,-509.7 100.6,-1019.2 -210.39,-1138 -310.99,-118.9 -721.01,197.9 -915.81,707.5 -194.8,509.6 -100.61,1019.2 210.38,1138 310.99,118.9 721.02,-197.9 915.82,-707.5" /><path
         id="path102"
         style="fill:#636567;fill-opacity:1;fill-rule:nonzero;stroke:none"
         d="m 3738.58,8764.8 c 35.93,-128.5 -20.67,-256.7 -126.44,-286.2 -105.76,-29.6 -220.63,50.6 -256.56,179.1 -35.94,128.5 20.67,256.7 126.43,286.3 105.76,29.6 220.63,-50.7 256.57,-179.2" /><path
         id="path104"
         style="fill:#a5a5a4;fill-opacity:1;fill-rule:nonzero;stroke:none"
         d="m 2779.38,8545.1 c 0,0 -60.41,-125.8 75.51,-181.2 l 715.93,236.6 c 0,0 59.32,166.1 -96.74,190 l -694.7,-245.4" /><path
         id="path106"
         style="fill:#636567;fill-opacity:1;fill-rule:nonzero;stroke:none"
         d="m 5164.9,5210.8 309.6,-68 1306.33,672.1 -264.29,117 -1351.64,-721.1" /><path
         id="path108"
         style="fill:#c37140;fill-opacity:1;fill-rule:nonzero;stroke:none"
         d="m 6403.27,10496.5 c 0,0 -235.94,-158.6 -197.25,-422.8 38.68,-264.3 209.05,-605.9 280.32,-566.4 71.27,39.5 218.98,52.9 218.98,52.9 0,0 -83.06,-339.8 158.57,-626.8 241.64,-286.9 566.33,-838.1 581.44,-891 15.1,-52.8 22.65,-142.2 86.83,-229.6 64.19,-87.5 109.49,-246.1 162.35,-231 52.86,15.1 839.77,513.5 839.77,513.5 0,0 -31.8,30.2 -99.77,7.5 -36.24,-12 -68.2,-6.9 -102.72,-1.8 -30.21,4.4 -62.39,8.9 -101.15,1.8 -83.06,-15.1 -362.45,0 -362.45,0 0,0 -302.05,469.4 -302.05,608.5 0,139.1 -234.08,916.8 -241.64,947 -7.54,30.3 67.97,551.3 -211.42,709.9 -279.39,158.5 -709.81,128.3 -709.81,128.3" /><path
         id="path110"
         style="fill:#d3d2d0;fill-opacity:1;fill-rule:nonzero;stroke:none"
         d="m 4710.13,9304 1362.4,-2150.8 308.1,164.3 -1366.75,2129.4 -303.75,145.1 v -288" /><path
         id="path112"
         style="fill:#636567;fill-opacity:1;fill-rule:nonzero;stroke:none"
         d="m 7229.69,6108.2 580.21,401.4 -64.39,137.6 -730.59,-454.8 214.77,-84.2" /><path
         id="path114"
         style="fill:#b36239;fill-opacity:1;fill-rule:nonzero;stroke:none"
         d="m 7343.09,8591.3 c -95.01,332.6 -459.26,712.7 -459.26,712.7 490.94,-269.2 459.26,-712.7 459.26,-712.7" /><path
         id="path116"
         style="fill:#b36239;fill-opacity:1;fill-rule:nonzero;stroke:none"
         d="m 8067.93,8940.1 c -45.47,342.9 -350.34,772.1 -350.34,772.1 446.39,-338 350.34,-772.1 350.34,-772.1" /><g
         transform="scale(1.14799)"
         id="g118"><path
           id="path120"
           style="fill:#a5a5a4;fill-opacity:1;fill-rule:nonzero;stroke:none"
           d="m 15313.4,5670.41 c 0,0 213.8,184.15 330.5,65.77 l 544.3,315.68 c 0,0 111.8,-26.3 98.6,-164.46 l -532.7,-338.68 c 0,0 6.5,-263.06 -263.2,-254.88 -269.7,8.19 -177.5,376.57 -177.5,376.57" /></g><g
         transform="scale(1.10179)"
         id="g122"><path
           id="path124"
           style="fill:#636567;fill-opacity:1;fill-rule:nonzero;stroke:none"
           d="m 16072.1,5853.32 164.5,54.91 63.4,-123.44 -227.9,-130.15 v 198.68" /></g><path
         id="path126"
         style="fill:#a5a5a4;fill-opacity:1;fill-rule:nonzero;stroke:none"
         d="m 14902.8,5263.6 c -49.1,-7.5 -343.6,-52.8 -343.6,-52.8 v -226.6 l 309.6,-120.8 c 0,0 158.6,226.6 158.6,249.2 0,22.7 -124.6,151 -124.6,151" /><g
         transform="scale(1.05905)"
         id="g128"><path
           id="path130"
           style="fill:#636567;fill-opacity:1;fill-rule:nonzero;stroke:none"
           d="m 15323.2,5974.7 c 53.4,21.9 976.8,606.86 976.8,606.86 0,0 -206.8,192.54 -235.3,171.1 -28.5,-21.43 -955.5,-649.64 -968.5,-658.14 -13,-8.59 41.6,-176.1 77.2,-183.18 35.7,-7.18 149.8,63.36 149.8,63.36" /></g><g
         transform="scale(1.06971)"
         id="g132"><path
           id="path134"
           style="fill:#b3b3b2;fill-opacity:1;fill-rule:nonzero;stroke:none"
           d="m 15223.3,5732.42 c 46,42.35 977.9,585.86 977.9,585.86 0,0 98.8,-317.65 70.6,-324.67 -28.3,-7.1 -713,-481.63 -713,-481.63 l -335.5,220.44" /></g><g
         transform="scale(1.06818)"
         id="g136"><path
           id="path138"
           style="fill:#636567;fill-opacity:1;fill-rule:nonzero;stroke:none"
           d="m 15142.7,5443.73 1157.3,712.33 -254.3,66.84 -800.8,-482.32 -102.2,-296.85" /></g><g
         transform="scale(1.17579)"
         id="g140"><path
           id="path142"
           style="fill:#d3d2d0;fill-opacity:1;fill-rule:nonzero;stroke:none"
           d="m 13106.6,5168.69 -49.8,-152.58 -64.2,-70.59 c 0,0 49.8,-57.84 57,-57.84 7.2,0 334.7,179.8 334.7,179.8 l 96.4,-128.42 -834.9,-565.15 c 0,0 -25.7,-256.85 0,-237.63 25.7,19.31 1072.5,661.51 1111.1,648.67 38.5,-12.85 2286.2,-963.36 2286.2,-963.36 l 256.9,186.27 v 366.05 c 0,0 -822.1,282.61 -828.5,308.3 -6.3,25.68 -687.2,1586.25 -687.2,1586.25 l -359.5,-289 513.7,-1098.24 -982.6,385.36 -237.6,301.84 -611.7,-399.73" /></g><g
         transform="scale(1.16606)"
         id="g144"><path
           id="path146"
           style="fill:#a5a5a4;fill-opacity:1;fill-rule:nonzero;stroke:none"
           d="m 13120.4,5407.69 -58.2,-194.33 c 0,0 77.7,-174.77 103.6,-155.39 25.9,19.47 3134.2,2059.32 3134.2,2059.32 l -32.3,142.45 -1431.2,-751.16 -1716.1,-1100.89" /></g><g
         transform="scale(1.17996)"
         id="g148"><path
           id="path150"
           style="fill:#454547;fill-opacity:1;fill-rule:nonzero;stroke:none"
           d="m 12870,5772.75 -332.8,-185.6 63.9,-166.36 h 128 c 0,0 147.2,-294.42 179.3,-268.82 31.9,25.59 1785.4,1164.7 1785.4,1164.7 l -32,115.26 1414.3,742.31 223.9,179.16 -57.5,70.43 -422.4,-243.23 -1414.3,-723.08 -60.8,-92.8 -1442.8,-489.59 -32.2,-102.38" /></g><path
         id="path152"
         style="fill:#636567;fill-opacity:1;fill-rule:nonzero;stroke:none"
         d="m 11943,12203.1 109.3,-4613.7 -1842.5,-785.4 -30.2,-226.5 211.4,-128.4 3941.7,1759.4 v 105.8 l -279.4,196.3 -1412,-672.1 -57.6,2431.5 -6.1,1493.1 -634.6,440" /><g
         transform="scale(1.03844)"
         id="g154"><path
           id="path156"
           style="fill:#b3b3b2;fill-opacity:1;fill-rule:nonzero;stroke:none"
           d="m 13533.1,8195.6 1090.8,-1636.12 123.6,29.09 269,-319.91 1283.5,963.47 -200,243.54 c 0,0 -210.8,-123.55 -210.8,-101.79 0,21.86 -996.2,1723.36 -996.2,1723.36 l -131,-385.39 843.6,-1461.61 -414.5,-203.58 -1316.2,2050.58 -494.5,-232.65 152.7,-668.99" /></g><path
         id="path158"
         style="fill:#2f1d16;fill-opacity:1;fill-rule:nonzero;stroke:none"
         d="m 12891.8,14762 c -0.1,0 -12.8,77 -31.6,110.9 -18.9,33.8 -37.7,37.6 -58.4,64 -20.7,26.3 -48.9,45.1 -84.8,45.1 -36,0 -90.3,15.1 -119,7.6 -28.8,-7.6 -71,-28.3 -129.4,-41.4 -58.3,-13.2 -69.6,-50.9 -114.8,-60.3 -45.2,-9.4 -69.6,-39.5 -88.5,-65.9 -18.8,-26.3 -35.7,-39.5 -56.4,-56.2 -20.7,-16.7 -49,-69.9 -56.5,-86.8 -7.5,-17 -9.4,-17 -24.5,-47.1 -12.1,-24.1 -19.2,-110.2 -21.5,-143.4 -17.6,-34.3 -29.3,-89.1 2.8,-165.9 59.7,-142.7 156.9,-250 226.2,-311.4 69.4,-61.4 181,-102.6 181,-102.6 l -21,199.3 c 0,0 119.5,324.7 119.4,343.1 -0.1,18.4 234.2,217.6 234.2,217.6 l 48.8,66.3 c 0,0 -1.4,10.5 -6,27.1" /><path
         id="path160"
         style="fill:#d3d2d0;fill-opacity:1;fill-rule:nonzero;stroke:none"
         d="m 14242.1,8767.3 1117.5,-1736.7 203.9,166.1 -1276.1,1978.4 -45.3,-407.8" /><path
         id="path162"
         style="fill:#a5a5a4;fill-opacity:1;fill-rule:nonzero;stroke:none"
         d="m 12769.6,9509.3 898.6,-1470.4 694.7,735.2 354.9,151.8 c 0,0 -75.5,1057.1 -589,1714.1 -513.5,656.9 -927.8,1111.7 -993.8,1146.6 -65.9,35 -294.2,282.6 -425.8,129.5 -131.6,-153 -226.5,-37.7 -271.8,-407.7 -45.3,-370 0,-740 0,-740 l 332.2,-1259.1" /><path
         id="path164"
         style="fill:#636567;fill-opacity:1;fill-rule:nonzero;stroke:none"
         d="m 12649.6,11614.1 c 21.9,0 260.6,-90.6 260.6,-90.6 l 1815.2,-2877 1125.1,505.9 -315.4,907.7 -2244.5,2918.2 c 0,0 -555.4,432.9 -681.7,402.7 -126.2,-30.2 -272.5,-90.6 -301.3,-105.7 -28.8,-15.1 -290.5,-352.6 -290.5,-352.6 l 632.5,-1308.6" /><path
         id="path166"
         style="fill:#b3b3b2;fill-opacity:1;fill-rule:nonzero;stroke:none"
         d="m 13746.2,14740.2 c 7.6,15.1 153.6,80.6 153.6,80.6 l 156,160.9 c 0,0 85.6,-4.9 70.5,-80.4 l -85.6,-122.1 c 0,0 -40.3,-295.7 -80.5,-295.7 -40.3,0 -130.9,-23.1 -166.1,-31.7 -35.3,-8.6 -118.5,-18.6 -80.6,56.9 37.9,75.5 32.7,231.5 32.7,231.5" /><g
         transform="scale(1.14521)"
         id="g168"><path
           id="path170"
           style="fill:#c37140;fill-opacity:1;fill-rule:nonzero;stroke:none"
           d="m 14005.4,9587.55 c 0,0 197.9,-250.57 277,-448.37 0,0 197.8,-224.18 270.3,-454.96 0,0 276.9,-257.15 534.1,-652.8 257.1,-395.56 448.4,-639.53 534.1,-665.9 85.7,-26.37 309.8,6.55 408.8,26.37 98.9,19.74 191.2,105.48 224.2,85.66 32.9,-19.73 46.1,-79.11 46.1,-79.11 l -679.1,-349.45 c 0,0 -188.4,-66.28 -217.6,0 -29.1,66.36 -237.4,283.52 -487.9,395.64 -250.6,112.12 -441.8,283.53 -560.5,441.75 -118.7,158.23 -131.9,435.2 -217.5,520.87 -85.8,85.74 -400.9,191.23 -447.8,237.42 -46.8,46.1 -429.2,494.51 -429.2,494.51 l 33.3,180.85 711.7,267.52" /></g><g
         transform="scale(1.10179)"
         id="g172"><path
           id="path174"
           style="fill:#a45634;fill-opacity:1;fill-rule:nonzero;stroke:none"
           d="m 16010.5,7525.6 c -68.6,54.82 -747.1,452.36 -925.3,737.35 -178.2,284.91 -212.4,551.11 -305.2,742.98 -92.7,191.93 -550.8,637.58 -550.8,637.58 0,0 -0.1,91.61 6.1,200.87 l -417.6,-156.99 -34.6,-187.97 c 0,0 397.4,-466.08 446.1,-514 48.7,-48.02 376.3,-157.66 465.4,-246.7 89,-89.12 102.7,-377.02 226.1,-541.48 123.4,-164.46 322.1,-342.62 582.6,-459.16 260.4,-116.54 476.9,-342.26 507.2,-411.24 30.3,-68.89 226.1,0 226.1,0 l 63.4,32.67 c -87.1,173.72 -227.5,116.54 -289.5,166.09" /></g><path
         id="path176"
         style="fill:#636567;fill-opacity:1;fill-rule:nonzero;stroke:none"
         d="m 13627.9,14629.5 -518.5,-637.8 c 0,0 -90.6,-263.3 -55.4,-268.3 35.3,-5.1 543.7,181.9 573.9,247 30.2,65.1 352.4,591.7 352.4,591.7 l -352.4,67.4" /><g
         transform="scale(1.0975)"
         id="g178"><path
           id="path180"
           style="fill:#c37140;fill-opacity:1;fill-rule:nonzero;stroke:none"
           d="m 13521.4,8951.68 c 0,0 528.7,-302.78 570,-344.05 41.3,-41.27 116.9,-515.99 302.7,-749.88 185.8,-233.99 646.8,-364.65 832.6,-529.84 185.7,-165.11 261.4,-385.24 261.4,-385.24 l 811.9,412.76 c 0,0 -13.8,75.71 -82.6,89.47 -25.5,5.1 -79,-5.83 -150.7,-16.67 -122.4,-18.59 -297.5,-37.18 -475.4,23.5 -282.1,96.41 -1004.6,1224.69 -1004.6,1224.69 0,0 -171,563.14 -515.9,860.06 -345,296.93 -708.7,-89.44 -694.9,-137.6 13.7,-48.16 145.5,-447.2 145.5,-447.2" /></g><path
         id="path182"
         style="fill:#252323;fill-opacity:1;fill-rule:nonzero;stroke:none"
         d="m 13746.2,11674.5 c -10,-45.3 -130.9,-377.6 -130.9,-377.6 0,0 30.2,-634.2 279.4,-883.4 249.2,-249.2 946.4,-611.7 945.1,-589 -1.2,22.6 36.6,196.3 263.1,377.5 226.5,181.3 392.7,241.7 400.2,264.3 7.6,22.7 566.3,483.3 536.1,513.5 -30.2,30.2 -309.6,317.1 -588.9,445.5 -279.4,128.4 -611.7,354.9 -611.7,354.9 0,0 -679.6,60.4 -732.4,37.8 -52.9,-22.7 -360,-143.5 -360,-143.5" /><path
         id="path184"
         style="fill:#c37140;fill-opacity:1;fill-rule:nonzero;stroke:none"
         d="m 13165.6,13675.5 c 19.3,22.7 374.2,165.3 646.1,180.8 271.8,15.6 483.2,-59.9 483.2,-59.9 0,0 136,85 256.8,125.5 0,0 -123.4,179 -214,264.6 -90.6,85.6 -241.6,186.2 -241.6,186.2 l 156,236.6 c 0,0 533.7,-226.5 699.8,-367.4 166.1,-141 231.5,-163.2 312.1,-250.2 80.5,-87.1 105.7,-143.2 60.4,-225.9 -45.3,-82.7 -297,-329.4 -458.1,-445.2 -161.1,-115.8 -297,-166.1 -468.2,-176.2 -171.1,-10 -503.4,90.7 -503.4,90.7 0,0 -387.6,-10.1 -508.4,40.2 -120.8,50.4 -317.1,139 -307.1,197.9 10.1,58.9 86.4,202.3 86.4,202.3" /><path
         id="path186"
         style="fill:#252323;fill-opacity:1;fill-rule:nonzero;stroke:none"
         d="m 12948.3,13921.9 c 90.6,38 397.7,209.2 448.1,214.2 50.3,5.1 140.9,-60.4 156,-55.3 15.1,5 147.2,139.4 212.1,125 64.8,-14.3 167.6,-290.8 151.5,-308.6 -16.2,-17.8 -645.5,-335.6 -645.5,-335.6 l -322.2,136.6 v 223.7" /><path
         id="path188"
         style="fill:#e9eef1;fill-opacity:1;fill-rule:nonzero;stroke:none"
         d="m 13104.4,13421.3 c -135.9,20.1 -250.4,17.4 -281.9,0 -31.5,-17.4 -514.9,-735 -514.9,-735 0,0 356.3,-596.5 514.9,-717.3 158.6,-120.8 468.1,-241.6 589,-354.9 120.8,-113.3 203.8,-317.2 203.8,-317.2 0,0 211.5,75.5 664.5,211.5 453.1,135.9 573.9,249.2 558.8,271.8 -15.1,22.7 -151,188.8 -324.7,460.6 -173.7,271.9 -317.1,513.5 -317.1,566.4 0,52.8 -7.6,271.8 -120.8,430.4 -113.3,158.5 -130.9,274.3 -271.9,309.6 -140.9,35.2 -422.8,-5.1 -422.8,-5.1 l -276.9,-120.8" /><path
         id="path190"
         style="fill:#c37140;fill-opacity:1;fill-rule:nonzero;stroke:none"
         d="m 13165.6,13842.9 215.7,-300.8 h 161 c 0,0 292,-327.2 206.4,-538.6 -85.5,-211.4 -866.5,332.2 -866.5,332.2 0,0 -100.4,35.3 -122.9,136 -22.4,100.6 -53.1,361.1 -80.5,419.6 -27.5,58.6 -199.1,63.6 0,96.3 199.1,32.8 486.8,-144.7 486.8,-144.7" /><path
         id="path192"
         style="fill:#a45634;fill-opacity:1;fill-rule:nonzero;stroke:none"
         d="m 13082.7,14209.5 -22,-290.6 -461.9,44.6 c 0,0 90.1,-171.9 249.2,-193.1 183.1,-24.4 294,54.4 317.6,72.5 l -82.9,366.6" /><path
         id="path194"
         style="fill:#c37140;fill-opacity:1;fill-rule:nonzero;stroke:none"
         d="m 12836.8,14779.2 c 0,0 47.6,-20.4 61.7,-30.9 14.1,-10.5 90.3,-135 110.4,-166.1 20.2,-31 36.4,-79.2 45.1,-94.8 8.8,-15.6 64.5,-109.9 81.4,-149.6 16.8,-39.7 57,-208.4 65,-254.4 8.1,-46 17,-107.9 4.2,-128.8 -12.9,-20.9 -92.6,-71.1 -177.5,-90.1 -84.9,-19.1 -281.4,-2.4 -348.3,26.8 -67,29.3 -121.3,138.1 -121.3,138.1 0,0 -25.5,-25.2 -74.1,-11.6 -48.7,13.7 -136.4,53.1 -168,133.7 -31.6,80.6 40.6,85.7 86.6,71.9 46,-13.7 72.7,-58.8 79.5,-56.4 6.8,2.5 11.9,8.1 14.4,10.9 2.5,2.7 -26.1,87.7 -33.8,103.9 -7.7,16.1 -63.3,107.8 -63,112.1 0.3,4.3 25.1,141.1 44.8,164.5 19.7,23.3 392.9,220.8 392.9,220.8" /><path
         id="path196"
         style="fill:#636567;fill-opacity:1;fill-rule:nonzero;stroke:none"
         d="m 12270.4,14345 c 0,0 -1026.1,-1288.7 -1033.7,-1318.9 -7.5,-30.2 105.8,-209.2 105.8,-209.2 l 279.4,-126 872.3,870.7 155.4,783.4 h -379.2" /><path
         id="path198"
         style="fill:#252323;fill-opacity:1;fill-rule:nonzero;stroke:none"
         d="m 12439.9,13765.8 c 0,0 -181.2,143 -297,90.5 -115.8,-52.4 -614.2,-757.2 -614.2,-787.4 0,-30.2 105.7,-261.7 151,-251.7 45.4,10.1 765.2,236.6 760.2,266.8 -5,30.2 0,681.8 0,681.8" /><path
         id="path200"
         style="fill:#b36239;fill-opacity:1;fill-rule:nonzero;stroke:none"
         d="m 14369.3,13547.7 c -118.1,0 -212.8,34.7 -212.8,34.7 17.6,-0.8 34.9,-1.2 51.8,-1.2 294.4,0 496.9,117 496.9,117 -92.8,-119.7 -224.7,-150.5 -335.9,-150.5" /><path
         id="path202"
         style="fill:#a45634;fill-opacity:1;fill-rule:nonzero;stroke:none"
         d="m 14551.7,13921.9 c 52.8,-2.2 183.7,28 420.3,-97.9 0,0 -139.7,183.5 -449.9,139.6 l 29.6,-41.7" /><path
         id="path204"
         style="fill:#a45634;fill-opacity:1;fill-rule:nonzero;stroke:none"
         d="m 12560.7,14629.5 c 0,0 139.8,-164.6 142.6,-228.8 2.7,-64.3 -53.7,-329.5 -53.7,-329.5 0,0 191.6,-284.8 152.8,-580.7 -38.7,-295.9 -241.7,0 -241.7,0 l -120.8,611.4 -17.5,399.7 21.5,56.8 116.8,71.1" /><path
         id="path206"
         style="fill:#b3b3b2;fill-opacity:1;fill-rule:nonzero;stroke:none"
         d="m 12535.5,14426.4 c 23.5,26.9 278.6,251.7 278.6,251.7 0,0 98.4,10.1 84.4,-87.2 l -299.7,-292 -63.3,127.5" /><path
         id="path208"
         style="fill:#c37140;fill-opacity:1;fill-rule:nonzero;stroke:none"
         d="m 14096.1,14372.7 c 0,0 -115.8,-10 -266.8,-25.1 -151,-15.1 -214.1,40.3 -255.6,60.4 -41.4,20.1 -91.8,50.3 -96.8,75.5 -5,25.2 25.2,55.4 50.3,55.4 25.2,0 337.3,70.5 337.3,70.5 l 176.2,169.8 211.4,-169.8 -156,-236.7" /><path
         id="path210"
         style="fill:#c37140;fill-opacity:1;fill-rule:nonzero;stroke:none"
         d="m 13834.3,14866.1 c 0,0 -115.8,-2.7 -191.3,-86.9 -75.5,-84.3 -65.4,-328.8 25.2,-327.4 90.6,1.5 135.9,63 166.1,110.3 30.2,47.3 -25.1,137.9 -25.1,153 0,15.1 90.6,105.7 90.6,105.7 l -65.5,45.3" /><path
         id="path212"
         style="fill:#c37140;fill-opacity:1;fill-rule:nonzero;stroke:none"
         d="m 12307.6,14392.9 c 0,0 -33.8,-1.8 -37.2,-47.9 -3.3,-46.1 120.8,-244.1 120.8,-244.1 0,0 -84,-402.7 -120.9,-719.9 -36.8,-317.1 16.8,-387.6 0,-402.7 -16.7,-15.1 -4.3,-166.1 37.3,-292 41.7,-125.8 125.7,-202.3 125.7,-202.3 0,0 86.7,-135.6 326,-54.7 239.4,80.9 122.1,463.4 122.9,478.5 0.7,15.1 -44.6,110.8 -44.6,125.9 0,15.1 11.2,269.2 -50.4,527.9 -61.5,258.7 -190.7,499 -188.5,549.4 2.3,50.3 61,152.6 50.9,234 -10,81.4 -87.2,232.5 -107.4,232.5 -20.1,0 -32.4,-30.2 -48,-30.2 -15.7,0 -59.7,5.3 -71.8,-45.7 0,0 -107.8,-24.8 -114.8,-108.7" /><path
         id="path214"
         style="fill:#865d48;fill-opacity:1;fill-rule:nonzero;stroke:none"
         d="m 12265.3,12891.5 c -5.3,4 -8.2,6.3 -8.2,6.3 l 6,36.7 c 0.1,-12.4 0.8,-27 2.2,-43" /><path
         id="path216"
         style="fill:#b36239;fill-opacity:1;fill-rule:nonzero;stroke:none"
         d="m 12529.4,12741.3 c -63,0 -225.7,120.9 -264.1,150.2 -1.4,16 -2.1,30.6 -2.2,43 l 7.2,43.8 c 0,0 63.8,-14.8 167,-100.5 45.2,-37.5 77.4,-51.9 105.2,-51.9 35.7,0 64.2,23.6 103.8,51.9 70.5,50.2 113,76.9 113,76.9 0,0 -158.3,-202.9 -223.8,-213 -1.9,-0.3 -3.9,-0.4 -6.1,-0.4" /><path
         id="path218"
         style="fill:#a45634;fill-opacity:1;fill-rule:nonzero;stroke:none"
         d="m 12857.1,12978.3 v 0 c -15.8,-317.1 -115.2,-352.4 -273.4,-372.5 -158.3,-20.1 -276.1,80.5 -276.1,80.5 41.7,-125.8 125.7,-202.3 125.7,-202.3 0,0 86.7,-135.6 326,-54.7 239.4,80.9 122.1,463.4 122.9,478.5 0.4,8.3 -12.9,40.5 -25.1,70.5" /><path
         id="path220"
         style="fill:#100f0d;fill-opacity:1;fill-rule:nonzero;stroke:none"
         d="m 14839.8,11296.9 -69.1,-286.9 732.4,-543.7 174.4,158.8 -786,445.3 -51.7,226.5" /><path
         id="path222"
         style="fill:#b3b3b2;fill-opacity:1;fill-rule:nonzero;stroke:none"
         d="m 11750.2,13275.3 -339.8,-297 1083.8,-1847.5 155.4,302.1 260.6,90.6 -1084.5,1699 -75.5,52.8" /><path
         id="path224"
         style="fill:#d3d2d0;fill-opacity:1;fill-rule:nonzero;stroke:none"
         d="m 11659.6,13018.6 c 22.7,-45.3 990,-1585.7 990,-1585.7 l 260.6,90.6 -1084.5,1699 -166.1,-203.9" /><path
         id="path226"
         style="fill:#343434;fill-opacity:1;fill-rule:nonzero;stroke:none"
         d="m 13322.8,10287.2 c -194.8,509.7 -604.8,826.4 -915.8,707.6 l -511.4,-195.5 204.9,-536 c 11.8,-130.4 43.3,-268.4 96.1,-406.6 52.8,-138.1 121.4,-262 199.6,-366.9 l 204.9,-536.1 449.6,177.8 c 20.9,4.1 41.5,10 61.7,17.7 22.9,8.7 44.5,19.6 65,32.4 258.3,161.4 325.9,633.4 145.4,1105.6" /><path
         id="path228"
         style="fill:#454547;fill-opacity:1;fill-rule:nonzero;stroke:none"
         d="m 12811.4,10091.8 c 194.8,-509.7 100.7,-1019.2 -210.3,-1138.1 -311,-118.8 -721.1,197.9 -915.9,707.6 -194.8,509.6 -100.6,1019.1 210.4,1138 311,118.9 721,-197.9 915.8,-707.5" /><path
         id="path230"
         style="fill:#636567;fill-opacity:1;fill-rule:nonzero;stroke:none"
         d="m 12452.7,9961.1 c 35.9,-128.5 -20.7,-256.7 -126.4,-286.3 -105.8,-29.5 -220.7,50.7 -256.6,179.2 -36,128.5 20.7,256.7 126.4,286.3 105.8,29.5 220.6,-50.7 256.6,-179.2" /><path
         id="path232"
         style="fill:#a5a5a4;fill-opacity:1;fill-rule:nonzero;stroke:none"
         d="m 11493.5,9741.4 c 0,0 -60.4,-125.8 75.5,-181.2 l 715.9,236.6 c 0,0 59.3,166.1 -96.7,189.9 l -694.7,-245.3" /><path
         id="path234"
         style="fill:#636567;fill-opacity:1;fill-rule:nonzero;stroke:none"
         d="m 14559.2,5210.8 309.6,-68 1306.4,672.1 -264.3,117 -1351.7,-721.1" /><path
         id="path236"
         style="fill:#b36239;fill-opacity:1;fill-rule:nonzero;stroke:none"
         d="m 16275.4,8483.6 c -157.3,308 -587.9,610.8 -587.9,610.8 533.6,-169.6 587.9,-610.8 587.9,-610.8" /><g
         transform="scale(1.04623)"
         id="g238"><path
           id="path240"
           style="fill:#b36239;fill-opacity:1;fill-rule:nonzero;stroke:none"
           d="m 16300,8621.21 c -115.4,281.68 -470.9,578.94 -470.9,578.94 455.6,-187.91 470.9,-578.94 470.9,-578.94" /></g></g></g></svg>