<?xml version="1.0" encoding="UTF-8" standalone="no"?>
<svg
   xmlns:dc="http://purl.org/dc/elements/1.1/"
   xmlns:cc="http://creativecommons.org/ns#"
   xmlns:rdf="http://www.w3.org/1999/02/22-rdf-syntax-ns#"
   xmlns:svg="http://www.w3.org/2000/svg"
   xmlns="http://www.w3.org/2000/svg"
   viewBox="0 0 2666.6667 2666.6667"
   height="2666.6667"
   width="2666.6667"
   xml:space="preserve"
   id="svg2"
   version="1.1"><metadata
     id="metadata8"><rdf:RDF><cc:Work
         rdf:about=""><dc:format>image/svg+xml</dc:format><dc:type
           rdf:resource="http://purl.org/dc/dcmitype/StillImage" /></cc:Work></rdf:RDF></metadata><defs
     id="defs6" /><g
     transform="matrix(1.3333333,0,0,-1.3333333,0,2666.6667)"
     id="g10"><g
       transform="scale(0.1)"
       id="g12"><g
         transform="scale(1.22699)"
         id="g14"><path
           id="path16"
           style="fill:none;fill-opacity:1;fill-rule:nonzero;stroke:none"
           d="M 16300,0 H 0 V 16300 H 16300 V 0" /></g><path
         id="path18"
         style="fill:#100f0d;fill-opacity:1;fill-rule:nonzero;stroke:none"
         d="m 12218.6,5701.8 c 0,0 154.3,30.9 228.3,-117.2 74.1,-148.2 179,-172.9 370.4,-228.4 191.3,-55.6 401.2,-92.6 450.6,-154.3 49.3,-61.8 141.9,-166.7 -135.8,-259.3 -277.8,-92.6 -407.4,-111.1 -543.2,-80.2 -135.8,30.8 -506.1,-123.5 -648.1,-80.3 -142,43.3 -234.5,567.9 -234.5,567.9 0,0 92.6,396.3 132.7,401.2 40.1,4.9 379.6,-49.4 379.6,-49.4" /><path
         id="path20"
         style="fill:#252323;fill-opacity:1;fill-rule:nonzero;stroke:none"
         d="m 11638.3,4461.2 -123.4,-30.9 c 0,0 -129.6,-117.3 -148.1,-191.3 -18.5,-74.1 -49.4,-580.2 -43.2,-598.7 6.1,-18.6 234.5,-80.3 438.2,-197.6 203.7,-117.2 283.7,-302.4 752.9,-259.2 469.2,43.2 487.8,314.8 259.4,475.3 -228.4,160.5 -456.8,388.8 -561.7,512.3 -104.9,123.4 -24.7,286 -148.2,314.8 -123.4,28.8 -123.4,28.8 -123.4,28.8 l -245.3,167.8 -57.2,-221.3" /><path
         id="path22"
         style="fill:#b55f39;fill-opacity:1;fill-rule:nonzero;stroke:none"
         d="m 12255.6,7683.2 c 0,0 43.2,-425.9 49.4,-907.4 6.1,-481.4 98.7,-1246.8 98.7,-1246.8 0,0 -92.6,-61.7 -148.1,-166.7 -55.6,-104.9 -108,-117.2 -267,-43.2 -158.9,74.1 -189.8,1925.8 -183.6,1944.3 6.2,18.6 104.9,821 104.9,821 l 222.2,290.1 240.8,-49.6 -117.3,-641.7" /><path
         id="path24"
         style="fill:#ececec;fill-opacity:1;fill-rule:nonzero;stroke:none"
         d="m 11874.8,5795.4 c 27.4,-258.3 64.4,-453.2 113.8,-476.3 159,-74 211.4,-61.7 267,43.2 55.5,105 148.1,166.7 148.1,166.7 0,0 -16.3,135.2 -35.7,327.7 -152,-33.7 -336.4,-51 -493.2,-61.3" /><path
         id="path26"
         style="fill:#c37140;fill-opacity:1;fill-rule:nonzero;stroke:none"
         d="m 11505.6,8324.9 c 0,0 27.8,-863.9 -111.1,-1206.5 -138.8,-342.6 -398.1,-879.6 -166.6,-1416.6 231.5,-537 212.9,-1527.6 212.9,-1527.6 0,0 92.6,-146.4 175.9,-105.6 83.4,40.8 194.5,142.6 194.5,142.6 l 27.8,303.5 h 101.8 c 0,0 166.7,1390.8 185.2,1844.5 18.5,453.7 0,592.5 111.1,749.9 111.1,157.4 305.5,1043.2 305.5,1043.2 l -1037,172.6" /><g
         transform="scale(1.00786)"
         id="g28"><path
           id="path30"
           style="fill:#b55f39;fill-opacity:1;fill-rule:nonzero;stroke:none"
           d="m 16234.7,14636 48.8,-53.6 c 0,0 -146.8,-46.7 -240.7,-76.4 -93.9,-29.7 -151.1,23.4 -183.7,23.4 -32.7,0 -321.1,87.5 -321.1,87.5 0,0 -132.1,-25.6 -258.7,-50.4 -126.6,-24.9 -694,-457.7 -1069.7,-629.1 -375.6,-171.5 -1188.1,-294 -1208.5,-289.9 -20.4,4.1 -416.5,-200.1 -730.8,-220.5 -314.5,-20.4 -98.1,428.7 -85.8,457.3 12.2,28.6 -236.8,51.8 253.2,156.5 489.9,104.8 1269.7,215 1343.2,251.8 73.5,36.7 1531.1,596.1 1531.1,596.1 0,0 226.8,25.5 240.5,-24.5 13.7,-50 367.8,-20.5 502.5,-24.5 134.8,-4.1 204.2,7.1 224.6,-21 20.4,-28 -44.9,-182.7 -44.9,-182.7" /></g><path
         id="path32"
         style="fill:#252323;fill-opacity:1;fill-rule:nonzero;stroke:none"
         d="m 11209.4,11263.1 c 0,0 -311.7,-559 -311.7,-924.5 0,-365.5 302.4,-896.3 311.7,-982.7 9.2,-86.4 157.4,-1419.7 157.4,-1419.7 h 1530.7 v 182.1 l 182.1,55.6 c 0,0 -120.4,1166.5 -120.4,1694.3 0,527.7 -280.8,1521.5 -280.8,1521.5 0,0 -765.4,283.9 -830.2,265.4 -64.8,-18.5 -638.8,-392 -638.8,-392" /><path
         id="path34"
         style="fill:#e9eef1;fill-opacity:1;fill-rule:nonzero;stroke:none"
         d="m 11104.4,14892.5 c -30.8,-21.6 -229.1,-157.6 -253,-151.2 -23.9,6.4 -216.1,-108 -231.5,-197.5 -15.4,-89.5 -123.4,-379.6 -182.1,-533.9 -58.6,-154.3 -80.2,-518.5 0,-679 80.3,-160.5 111.1,-311.7 256.2,-635.8 145,-324 299.3,-604.9 367.2,-777.7 67.9,-172.8 123.5,-648.1 148.2,-654.3 24.7,-6.1 447.5,-33.9 857.9,15.5 410.5,49.3 611.1,101.8 611.1,111.1 0,9.2 -123.4,657.3 -108,959.8 15.4,302.4 -9.3,608 -52.5,762.3 -43.2,154.3 -68.9,326.1 -73,379.6 -4.1,53.5 16.4,436.2 16.4,436.2 l -690.2,881.6 -434.2,237.6 -232.5,-154.3" /><path
         id="path36"
         style="fill:#c37140;fill-opacity:1;fill-rule:nonzero;stroke:none"
         d="m 10841.1,15319.4 c 0,0 35,-183.1 31.9,-359 -3.1,-175.9 -98.8,-317.9 -98.8,-317.9 0,0 126.6,40.1 246.9,105 120.4,64.8 287,101.8 438.3,101.8 151.2,0 311.7,-40.1 311.7,-40.1 0,0 -25.6,34.3 -27.5,200.5 -1.9,166.2 -102.2,614.2 -102.2,614.2 0,0 -339.4,203.7 -385.7,197.5 -46.3,-6.1 -188.3,24.7 -240.8,-148.1 -52.4,-172.8 -173.8,-353.9 -173.8,-353.9" /><path
         id="path38"
         style="fill:#c37140;fill-opacity:1;fill-rule:nonzero;stroke:none"
         d="m 10942.9,14524.2 c 0,0 -102.8,-86.4 -148.1,-259.2 -45.3,-172.8 -168.7,-670.7 201.6,-971.1 370.4,-300.4 991.7,-4.2 1037,497.9 0,0 374.4,-34.2 629.6,57 255.1,91.1 592.5,181.6 592.5,181.6 0,0 720.1,-8.2 1156.3,226.4 436.2,234.5 1020.5,592.5 1020.5,592.5 l -176.9,279.8 c 0,0 -596.7,-131.7 -1119.3,-172.8 -522.6,-41.2 -930,-242.8 -930,-242.8 0,0 -773.6,35 -1098.6,-71 0,0 -699.6,416.7 -1164.6,-118.3" /><path
         id="path40"
         style="fill:#a45330;fill-opacity:1;fill-rule:nonzero;stroke:none"
         d="m 11634.2,13656 c 33,20.6 246.9,119.3 399.2,135.8 l -19.4,-108.4 -157.6,-27.4 -117.8,-296.3 v 259.2 l -104.4,37.1" /><path
         id="path42"
         style="fill:#a45330;fill-opacity:1;fill-rule:nonzero;stroke:none"
         d="m 12235,14507.8 c 0,0 11.4,-160.5 -156.9,-329.2 0,0 272.1,78.2 156.9,329.2" /><g
         transform="scale(1.09596)"
         id="g44"><path
           id="path46"
           style="fill:#bebdbb;fill-opacity:1;fill-rule:nonzero;stroke:none"
           d="m 14775.7,13804.4 78.8,-26.3 h 274.1 c 0,0 123.9,510.6 638.3,439.3 514.4,-71.3 533.1,-589.5 521.9,-811 -11.3,-221.5 -292.9,-405.5 -664.6,-371.7 -371.7,33.8 -503.2,349.2 -503.2,349.2 h -232.7 l -33.8,135.1 c 0,0 -151.7,-27.6 -289.1,-93.8 -137.5,-66.3 -214,60.1 -225.3,71.3 -11.2,11.3 -41.3,229 -37.5,244.1 3.7,15 266.5,33.8 285.3,41.3 18.8,7.5 187.8,22.5 187.8,22.5" /></g><g
         transform="scale(1.07839)"
         id="g48"><path
           id="path50"
           style="fill:#aaa9a8;fill-opacity:1;fill-rule:nonzero;stroke:none"
           d="m 15874.9,13827.1 c 0,256.1 182.9,469.4 425.1,516.7 -71.1,51.6 -161.5,89.3 -276.2,105.2 -522.8,72.6 -648.7,-446.4 -648.7,-446.4 h -278.6 l -80.1,26.7 c 0,0 -171.7,-15.2 -190.8,-22.9 -19.1,-7.6 -286.2,-26.7 -290,-42 -3.8,-15.2 26.7,-236.5 38.1,-248 11.5,-11.4 89.3,-139.8 229,-72.5 139.6,67.4 293.8,95.4 293.8,95.4 l 34.4,-137.4 h 236.5 c 0,0 133.6,-320.5 511.3,-354.8 161.9,-14.7 306.9,11.3 420.7,63.4 -242,47.6 -424.5,260.7 -424.5,516.6" /></g><path
         id="path52"
         style="fill:#100f0d;fill-opacity:1;fill-rule:nonzero;stroke:none"
         d="m 12897.5,8118.3 182.1,55.6 c 0,0 -120.4,1166.5 -120.4,1694.3 0,0 -64.8,-1027.7 -64.8,-1166.6 0,-138.9 3.1,-583.3 3.1,-583.3" /><path
         id="path54"
         style="fill:#ececec;fill-opacity:1;fill-rule:nonzero;stroke:none"
         d="m 11425.7,4673 c 19.1,-283.9 15.1,-498.8 15.1,-498.8 0,0 92.6,-146.4 175.9,-105.6 83.4,40.8 194.5,142.6 194.5,142.6 l 27.8,303.5 h 101.8 c 0,0 9.6,80.1 24.4,207.9 -194.6,-43.2 -395.2,-51.4 -539.5,-49.6" /><path
         id="path56"
         style="fill:#d9845a;fill-opacity:1;fill-rule:nonzero;stroke:none"
         d="m 11556.1,14717.6 c 311.2,-31.4 522,-135.8 522,-135.8 0,0 362.7,63.4 654.8,70.8 292.2,7.4 497.9,-10.1 497.9,-10.1 l 582.4,267.6 c -358.2,-73.4 -607.1,-196.6 -607.1,-196.6 0,0 -773.6,35 -1098.6,-71 0,0 -518.5,308.8 -959.4,53.4 114.7,20.8 261.6,36.5 408,21.7" /><path
         id="path58"
         style="fill:#c37140;fill-opacity:1;fill-rule:nonzero;stroke:none"
         d="m 15223,15122.2 c 0,0 131.1,23.4 209.3,72.7 78.2,49.4 267.5,20.6 279.8,24.7 12.4,4.2 428,-31 489.7,-46.4 61.7,-15.3 78.2,-72.9 78.2,-72.9 l -234.6,-41.1 c 0,0 -255.1,-135.8 -259.2,-152.3 -4.1,-16.5 -32.9,-61.7 74.1,-123.4 106.9,-61.8 172.8,-53.5 197.5,-86.4 24.7,-33 0,-98.8 -185.2,-70 -185.2,28.8 -242.8,152.3 -296.3,185.2 -53.5,32.9 -176.9,45.2 -176.9,45.2 0,0 -246.9,78.2 -246.9,102.9 0,24.7 70.5,161.8 70.5,161.8" /><g
         transform="scale(1.03639)"
         id="g60"><path
           id="path62"
           style="fill:#838585;fill-opacity:1;fill-rule:nonzero;stroke:none"
           d="m 16300,14284.3 c 0,0 -301.7,55.6 -591.6,11.9 l 35.7,-142.9 c 0,0 -3.9,48.5 190.6,79.8 194.6,31.3 365.3,51.2 365.3,51.2" /></g><g
         transform="scale(1.03951)"
         id="g64"><path
           id="path66"
           style="fill:#34231f;fill-opacity:1;fill-rule:nonzero;stroke:none"
           d="m 10146,15463.1 c -7.5,64.2 -6.6,119.3 0.1,166.7 2.5,57.4 12.1,105.6 26,145.7 3.7,11.2 7.8,22.4 12.5,33.5 44.7,104.1 134.5,175.6 134.5,175.6 53.6,102.4 147,133.5 147,133.5 0,0 0,0 56,58.2 55.9,58.2 170.1,66.6 170.1,66.6 0,0 21,18.6 94.1,33.7 73.1,15.1 157.2,-10.9 157.2,-10.9 0,0 35.9,34.3 140.4,30 104.5,-4.3 166.3,-56.9 166.3,-56.9 0,0 0,0 0.2,-0.1 46.4,-12.7 87.3,-29.3 120.6,-49.1 0,0 0,0 0.1,-0.1 86.8,-35.4 116.1,-95.3 130.8,-128.8 13.4,-12.1 35.1,-35.5 48.6,-69 1,-1.4 2.2,-2.9 3.5,-4.4 23.3,-29.7 14,-75.1 2.9,-106.5 -2.5,-9.5 -6.4,-19.2 -11.9,-29.1 -2.9,-6.6 -6.2,-13.4 -9.8,-20.3 -0.6,-2.1 -1.1,-4.1 -1.5,-6.2 l -4.3,-5.7 c -1.8,-4.6 -3.1,-9.2 -3.5,-13.7 l -47,-66.9 c 0,0 -249.4,-605.2 -256.5,-624.3 -6.9,-19.2 -406.3,-20.7 -406.3,-20.7 0,0 -102.8,-228.2 -162.9,-304 -59.9,-75.9 -210.9,-136.7 -210.9,-136.7 0,0 -253.9,444.9 -296.3,809.9" /></g><g
         transform="scale(1.00933)"
         id="g68"><path
           id="path70"
           style="fill:#c37140;fill-opacity:1;fill-rule:nonzero;stroke:none"
           d="m 11877.6,16300 c 0,0 106.7,-223.1 122.6,-275.6 15.9,-52.4 -2.2,-217.4 3,-242.8 5.1,-25.5 172.6,-281 169.8,-297.8 -2.7,-16.7 -108.1,-41.1 -111.2,-50.5 -3.2,-9.4 -6.6,-109 -3.4,-118.5 3.3,-9.5 1.8,-30.3 1.8,-30.3 0,0 10.6,-40.8 3.6,-61.9 -7.1,-21.1 -7.8,-57.1 -9.8,-71 -2,-13.9 9.4,-163.8 -7.6,-186.8 -17.2,-23.1 -326.1,-61.1 -376.4,-51.1 -50.4,10 -353.3,254 -382.1,305.8 -28.8,51.7 -41.7,213 -41.7,213 0,0 -133.5,16.3 -191,119.8 -57.4,103.4 -53.7,293.3 52.9,328.9 106.6,35.5 166.3,-104.6 181.3,-142.4 15.1,-37.8 38.1,-86.2 43.8,-89.6 5.7,-3.3 65.2,114.2 83.7,176.1 18.7,61.8 -54.6,214.1 -41.8,281.1 12.7,67 94.8,143.5 134.4,160.5 39.5,17 368.1,33.1 368.1,33.1" /></g><path
         id="path72"
         style="fill:#a45330;fill-opacity:1;fill-rule:nonzero;stroke:none"
         d="m 11820.4,15107.3 c 65.9,-17.4 155.9,-26.9 224.6,-32 -100.1,-16 -269.4,-68.9 -301.2,-62.6 -50.8,10.1 -325.5,236 -350.5,348.8 -13,58.4 -42.1,215.1 -42.1,215.1 0,0 54.9,-147.4 100.5,-214.5 45.7,-67 247,-222.7 368.7,-254.8" /><path
         id="path74"
         style="fill:#b55f39;fill-opacity:1;fill-rule:nonzero;stroke:none"
         d="m 3564.88,6784.1 c 0,0 -135.8,12.3 -197.52,-37.1 -61.73,-49.4 -16.46,-181 -16.46,-181 l 98.76,-57.7 c 0,0 51.91,-32.9 77.39,16.5 25.48,49.4 58.4,156.4 58.4,177 0,20.5 -20.57,82.3 -20.57,82.3" /><path
         id="path76"
         style="fill:#aaa9a8;fill-opacity:1;fill-rule:nonzero;stroke:none"
         d="m 3675.98,6874.6 c -21.6,-3.1 -148.14,-34 -148.14,-34 0,0 16.46,-184.1 -78.18,-332.3 l -98.76,57.7 -131.68,-160.5 c 0,0 -312.73,49.4 -526.71,-168.7 -213.97,-218.1 -131.68,-547.3 -53.49,-744.8 78.18,-197.5 473.22,-329.2 773.61,-94.7 300.38,234.6 213.97,553.8 164.59,676 -49.38,122.3 -50.17,142.9 -50.17,142.9 l 22.4,72 c 0,0 254.09,67.9 266.44,195.5 12.34,127.5 74.07,266.6 45.26,330.8 -28.8,64.2 -87.88,138.3 -87.88,138.3 l -97.29,-78.2" /><path
         id="path78"
         style="fill:#b55f39;fill-opacity:1;fill-rule:nonzero;stroke:none"
         d="m 3824.12,7261.4 c 0,0 -139.91,-201.6 -152.25,-201.6 -12.35,0 -139.91,-37.1 -193.41,-74.1 -53.49,-37 -57.61,-314.6 -57.61,-314.6 0,0 185.18,-28 238.67,30.7 53.49,58.6 222.2,53.4 283.93,164.5 61.72,111.2 191.48,244 192.44,294.8 0.96,50.9 50.34,219.6 -23.73,232 -74.07,12.3 -288.04,-131.7 -288.04,-131.7" /><path
         id="path80"
         style="fill:#c37140;fill-opacity:1;fill-rule:nonzero;stroke:none"
         d="m 4056.61,7269.6 c 0,0 -179,-265.4 -185.17,-269.5 -6.18,-4.1 -244.84,-42.2 -281.87,-48.4 -37.04,-6.1 -67.9,-101.8 -61.73,-111.1 6.17,-9.2 83.33,-3.1 123.45,-21.6 40.12,-18.5 61.72,-58.6 61.72,-58.6 0,0 -9.26,-129.6 -55.55,-256.2 -46.29,-126.5 -108.01,-216 -108.01,-216 0,0 40.12,-43.2 129.62,-21.6 89.49,21.6 194.43,74.1 249.98,203.7 55.55,129.6 86.41,206.9 197.51,294.8 111.11,87.9 191.35,360.9 191.35,360.9 0,0 -141.97,239.3 -163.57,242.4 -21.61,3.1 -97.73,-98.8 -97.73,-98.8" /><path
         id="path82"
         style="fill:#252323;fill-opacity:1;fill-rule:nonzero;stroke:none"
         d="M 4358.03,4822.3 4108.05,4313 h -129.62 c 0,0 -104.77,-27.7 -205.16,-138.8 -100.38,-111.1 -257.77,-314.8 -220.74,-490.7 37.04,-176 574.47,-231.5 689.98,-305.6 115.52,-74 442.3,-296.2 862.2,-231.4 419.9,64.8 234.72,287 -70.81,481.4 -305.53,194.4 -398.11,490.7 -398.11,490.7 0,0 55.46,222.6 -108.02,262.3 -163.48,39.8 -169.74,441.4 -169.74,441.4" /><path
         id="path84"
         style="fill:#252323;fill-opacity:1;fill-rule:nonzero;stroke:none"
         d="m 5015.39,5633.9 c 6.17,-18.5 216.03,-191.3 413.55,-234.5 197.51,-43.2 178.99,-222.2 123.44,-290.1 -55.55,-67.9 -487.24,-43.5 -635.56,43.1 -148.33,86.5 98.57,481.5 98.57,481.5" /><path
         id="path86"
         style="fill:#b55f39;fill-opacity:1;fill-rule:nonzero;stroke:none"
         d="m 4570.98,7090.6 c 0,0 -86.42,-339.5 0,-709.8 86.41,-370.4 462.92,0 462.92,0 0,0 30.87,419.7 -43.2,524.6 -74.07,105 -166.66,220.6 -166.66,220.6 l -253.06,-35.4" /><path
         id="path88"
         style="fill:#b55f39;fill-opacity:1;fill-rule:nonzero;stroke:none"
         d="m 5070.94,8713.6 c 0,0 222.2,-98.8 376.51,-280.7 154.31,-181.9 203.69,-243.6 209.86,-404.1 6.18,-160.5 -256.67,-438.2 -256.67,-438.2 l -663.01,407.4 87.88,385.9 245.43,329.7" /><path
         id="path90"
         style="fill:#100f0d;fill-opacity:1;fill-rule:nonzero;stroke:none"
         d="m 4145.08,9183.1 567.86,-259.3 154.31,-236.9 -376.52,-254 c 0,0 -333.3,-151 -543.17,77.4 -209.85,228.3 -382.68,382.6 -314.79,444.4 67.9,61.7 512.31,228.4 512.31,228.4" /><path
         id="path92"
         style="fill:#c37140;fill-opacity:1;fill-rule:nonzero;stroke:none"
         d="m 3885.84,7349.9 c 0,0 191.34,-179 493.79,-327.2 302.45,-148.1 530.82,-401.2 530.82,-401.2 0,0 -419.72,-259.2 -543.16,-561.7 -123.45,-302.4 -172.83,-870.3 -290.11,-1302.3 -117.27,-432.1 -216.03,-586.4 -216.03,-586.4 0,0 98.76,-166.7 203.69,-166.7 104.93,0 277.76,129.6 277.76,129.6 0,0 0,142 43.2,185.2 43.21,43.2 141.97,61.7 141.97,61.7 0,0 290.1,716 561.68,1000 271.59,283.9 635.76,1154.2 635.76,1154.2 0,0 160.48,321 104.93,487.6 -55.55,166.7 -429.5,725.3 -429.5,725.3 0,0 -953.11,-9.3 -996.32,-34 -43.21,-24.7 -518.48,-364.1 -518.48,-364.1" /><path
         id="path94"
         style="fill:#252323;fill-opacity:1;fill-rule:nonzero;stroke:none"
         d="m 2904.43,10247.8 c 0,0 -490.7,-157.4 -657.35,-657.4 -166.66,-499.9 -148.14,-833.2 212.94,-1203.6 361.08,-370.3 1185.1,-1305.4 1222.13,-1259.2 37.03,46.3 808.58,194.5 808.58,194.5 l 909.91,425.9 -342.05,404.3 -567.86,555.5 -345.65,475.3 c 0,0 -734.51,962.8 -765.37,1009.1 -30.87,46.3 -475.28,55.6 -475.28,55.6" /><path
         id="path96"
         style="fill:#e9eef1;fill-opacity:1;fill-rule:nonzero;stroke:none"
         d="m 6450.46,11061.1 -116.24,-421.4 c 0,0 -828.13,-549.3 -874.42,-623.4 -46.29,-74 -472.19,-537 -509.22,-574 -37.04,-37 -759.21,-277.8 -805.5,-259.2 -46.29,18.5 -277.76,138.8 -435.15,314.7 -157.4,176 -314.79,342.6 -490.71,509.3 -175.91,166.6 -314.79,240.7 -314.79,240.7 0,0 249.98,157.4 564.77,305.5 314.79,148.2 657.36,500 1208.25,777.7 550.88,277.8 1282.24,118.9 1282.24,118.9 l 490.77,-388.8" /><path
         id="path98"
         style="fill:#c37140;fill-opacity:1;fill-rule:nonzero;stroke:none"
         d="m 6912.82,10931.1 c 0,0 -125.96,-110.3 -274.1,-155.6 -148.13,-45.2 -304.5,-135.8 -304.5,-135.8 0,0 -4.12,-20.5 -20.58,177 -16.46,197.5 -41.14,309.3 -209.86,418 -168.71,108.7 -304.5,112.8 -362.11,145.7 -57.61,32.9 -106.99,61.7 -82.3,82.3 24.69,20.6 275.7,-41.1 440.3,4.1 164.59,45.3 349.76,428 349.76,428 0,0 268.65,90.8 391.51,-45.1 122.86,-136 247.9,6.2 205.95,-241.8 -41.94,-248.1 -134.07,-676.8 -134.07,-676.8" /><path
         id="path100"
         style="fill:#c37140;fill-opacity:1;fill-rule:nonzero;stroke:none"
         d="m 5305.49,11061.1 c 0,0 -407.38,-193 -549.34,-507.8 -141.97,-314.8 166.65,-728.3 166.65,-728.3 0,0 -182.09,-358 -245.35,-580.2 -63.27,-222.2 -186.72,-537 -186.72,-537 l 567.86,-555.5 c 0,0 61.73,216 104.93,425.9 43.21,209.8 191.35,444.4 358,660.4 166.65,216 290.1,419.7 290.1,419.7 0,0 364.18,172.9 462.93,487.6 98.76,314.8 -37.03,592.6 -37.03,592.6 0,0 -160.48,608.1 -932.03,322.6" /><path
         id="path102"
         style="fill:#a45330;fill-opacity:1;fill-rule:nonzero;stroke:none"
         d="m 5101.8,10559.5 43.2,-290.1 -222.2,-444.4 -97.29,161.3 226.91,289.3 49.38,283.9" /><path
         id="path104"
         style="fill:#a45330;fill-opacity:1;fill-rule:nonzero;stroke:none"
         d="m 4493,8713.6 c -1.43,-3.7 -2.27,-5.8 -2.27,-5.8 l 567.86,-555.5 c 0,0 14.56,50.9 34.47,127.3 -119.93,80.8 -419.88,285.8 -600.06,434" /><path
         id="path106"
         style="fill:#db875b;fill-opacity:1;fill-rule:nonzero;stroke:none"
         d="m 6210.77,10145.9 c -122.48,-289 -481.44,-448.5 -481.44,-448.5 0,0 -469.11,-728.3 -526.72,-814.7 -57.6,-86.4 -97.89,-557.7 -97.9,-557.8 18.86,74.3 40.5,164.3 58.81,253.3 43.21,209.8 191.35,444.4 358,660.4 166.65,216 290.1,419.7 290.1,419.7 0,0 364.17,172.9 462.93,487.6 53.09,169.3 38.38,327.7 13.45,438.1 -3.39,-141.6 -21.66,-306.9 -77.23,-438.1" /><path
         id="path108"
         style="fill:#100f0d;fill-opacity:1;fill-rule:nonzero;stroke:none"
         d="m 2669.88,9423.8 c 0,0 154.31,-24.7 469.1,-30.9 314.79,-6.2 709.82,-98.7 709.82,-98.7 0,0 -493.79,320.9 -1178.92,129.6" /><path
         id="path110"
         style="fill:#ececec;fill-opacity:1;fill-rule:nonzero;stroke:none"
         d="m 4004.56,4515 c -82.72,-249.1 -143.41,-343.9 -143.41,-343.9 0,0 98.76,-166.7 203.69,-166.7 104.93,0 277.76,129.6 277.76,129.6 0,0 0,142 43.2,185.2 43.21,43.2 141.97,61.7 141.97,61.7 0,0 0.44,1.1 1.22,3 -182.36,37.7 -375.87,89 -524.43,131.1" /><path
         id="path112"
         style="fill:#838585;fill-opacity:1;fill-rule:nonzero;stroke:none"
         d="m 3317.98,6260.6 131.68,247.7 -98.76,57.7 c 0,0 24.69,-57.7 12.35,-94.7 -12.35,-37 -45.27,-210.7 -45.27,-210.7" /><path
         id="path114"
         style="fill:#bebdbb;fill-opacity:1;fill-rule:nonzero;stroke:none"
         d="m 3143.8,5985.8 c 23.86,177.6 -13.8,318.6 -64.49,421.9 -109.99,-9 -264.49,-46.3 -386.8,-170.9 -199.39,-203.3 -141.51,-502.9 -69.43,-702.6 196.7,34.6 482.94,170.2 520.72,451.6" /><path
         id="path116"
         style="fill:#34231f;fill-opacity:1;fill-rule:nonzero;stroke:none"
         d="m 6091.13,12303.6 c 12.71,66 30.94,120.4 52.34,165.2 20.46,56.1 45.06,100.9 71.41,136.4 7.14,9.9 14.75,19.7 22.89,29.2 76.83,89.2 188.33,132 188.33,132 85.2,84.7 187.52,86.3 187.52,86.3 0,0 0,0 73.67,40.1 73.65,40.2 189.44,12.8 189.44,12.8 0,0 26.67,11.8 103.88,3.9 77.19,-8 152.39,-60.1 152.39,-60.1 0,0 46.35,22.8 148.55,-14.2 102.21,-36.9 147.07,-108.5 147.07,-108.5 0,0 0,0 0.2,-0.1 41.94,-27.2 77.26,-56.4 104.06,-86.4 0.02,0 0.04,-0.1 0.06,-0.1 75.05,-62.3 85.28,-130.8 89.41,-168.7 9.44,-16.1 23.65,-46.1 26.48,-83.6 0.65,-1.7 1.33,-3.5 2.04,-5.4 13.89,-36.8 -9.6,-78.9 -30.36,-106.5 -5.46,-8.6 -12.43,-17 -20.92,-25.1 -4.9,-5.7 -10.27,-11.4 -16.07,-17.1 -1.25,-1.9 -2.4,-3.8 -3.36,-5.7 l -6.09,-4.2 c -3.3,-4.1 -5.96,-8.2 -7.87,-12.5 l -67.44,-51.7 c 0,0 -436.81,-521.7 -449.7,-538.5 -12.88,-16.8 -409.3,106.8 -409.3,106.8 0,0 -173.36,-194 -256.59,-250.4 -83.23,-56.4 -283.5,-10.7 -283.5,-10.7 0,0 -80.79,461.8 -8.54,836.8" /><path
         id="path118"
         style="fill:#c37140;fill-opacity:1;fill-rule:nonzero;stroke:none"
         d="m 7579.79,12230 c 0,0 34.86,-247.2 34.21,-302.6 -0.66,-55.3 -68.27,-208.5 -71.07,-234.6 -2.79,-26.1 80.71,-322.9 73,-338.2 -7.7,-15.2 -116.56,-6.7 -122.44,-14.8 -5.88,-8.1 -39.47,-102.9 -39.2,-113 0.27,-10.2 -7.53,-29.7 -7.53,-29.7 0,0 -2.15,-42.5 -15.41,-60.7 -13.26,-18.2 -24.86,-52.5 -30.98,-65.3 -6.13,-12.8 -40.76,-160.5 -64.22,-177.5 -23.46,-17 -332.37,40.3 -377.73,65.3 -45.35,24.9 -262.82,351.9 -274.76,410.4 -11.93,58.6 24.66,217.7 24.66,217.7 0,0 -123.54,56.3 -147.41,173.4 -23.86,117 37.55,298.6 150.95,300.4 113.4,1.9 128.13,-151.2 131.13,-192.1 3,-41 10.45,-94.6 14.93,-99.5 4.49,-5 97.52,90 134.17,143.9 36.65,53.9 12.52,222.7 45.15,283.3 32.61,60.6 134.94,109.3 178.15,113.6 43.21,4.4 364.4,-80 364.4,-80" /><path
         id="path120"
         style="fill:#a45330;fill-opacity:1;fill-rule:nonzero;stroke:none"
         d="m 7014.37,10998.2 c 57.65,-36.4 140.61,-72.6 204.56,-98.1 -100.3,14.8 -277.7,15.4 -306.11,31 -45.35,25 -239.24,323.1 -229.16,438.2 5.21,59.6 24.66,217.7 24.66,217.7 0,0 7.96,-157 31.3,-234.7 23.33,-77.7 168.35,-286.9 274.75,-354.1" /></g></g></svg>