<?xml version="1.0" encoding="UTF-8" standalone="no"?>
<svg
   xmlns:dc="http://purl.org/dc/elements/1.1/"
   xmlns:cc="http://creativecommons.org/ns#"
   xmlns:rdf="http://www.w3.org/1999/02/22-rdf-syntax-ns#"
   xmlns:svg="http://www.w3.org/2000/svg"
   xmlns="http://www.w3.org/2000/svg"
   viewBox="0 0 2666.6667 2666.6667"
   height="2666.6667"
   width="2666.6667"
   xml:space="preserve"
   id="svg2"
   version="1.1"><metadata
     id="metadata8"><rdf:RDF><cc:Work
         rdf:about=""><dc:format>image/svg+xml</dc:format><dc:type
           rdf:resource="http://purl.org/dc/dcmitype/StillImage" /></cc:Work></rdf:RDF></metadata><defs
     id="defs6" /><g
     transform="matrix(1.3333333,0,0,-1.3333333,0,2666.6667)"
     id="g10"><g
       transform="scale(0.1)"
       id="g12"><g
         transform="scale(1.22699)"
         id="g14"><path
           id="path16"
           style="fill:none;fill-opacity:1;fill-rule:nonzero;stroke:none"
           d="M 16300,0 H 0 V 16300 H 16300 V 0" /></g><g
         transform="scale(1.15814)"
         id="g18"><path
           id="path20"
           style="fill:#9c9c9b;fill-opacity:1;fill-rule:nonzero;stroke:none"
           d="m 9926.16,9203.2 6337.54,-114.55 c 0,0 36.3,82.15 -0.1,127.89 l -6337.61,175.12 0.17,-188.46" /></g><g
         transform="scale(1.14399)"
         id="g22"><path
           id="path24"
           style="fill:#1d1b1a;fill-opacity:1;fill-rule:nonzero;stroke:none"
           d="m 15756.2,10107.3 -135.3,-0.1 c 0,0 0.8,-11 0.5,-25.7 -238.3,-94.91 -417.1,-440.39 -421,-853.56 -4,-423.71 177.4,-779.25 423.1,-867.27 -10.7,-11.89 -19.2,-21.16 -19.2,-21.16 l 135.3,0.18 c 302.4,-2.45 551.3,391.26 555.9,879.37 4.5,488.13 -236.8,885.84 -539.3,888.24" /></g><g
         transform="scale(1.13449)"
         id="g26"><path
           id="path28"
           style="fill:#343434;fill-opacity:1;fill-rule:nonzero;stroke:none"
           d="m 16295.4,9296.09 c -4.7,-492.23 -255.6,-889.23 -560.5,-886.77 -304.9,2.47 -548.4,403.53 -543.8,895.73 4.7,492.21 255.6,889.25 560.6,886.75 304.8,-2.5 548.3,-403.49 543.7,-895.71" /></g><g
         transform="scale(1.04818)"
         id="g30"><path
           id="path32"
           style="fill:#252322;fill-opacity:1;fill-rule:nonzero;stroke:none"
           d="m 15352.5,6093.2 c 0,0 -133.9,-1.43 -154.7,-26.71 -20.9,-25.28 -185.9,-404.6 -138.3,-490.85 47.6,-86.34 273.7,-77.37 380.7,-95.21 107.2,-17.84 77.4,-187.47 348.1,-255.87 270.7,-68.4 511.7,14.88 487.8,145.78 -23.7,130.89 -133.8,154.74 -205.2,205.3 -71.4,50.57 -270.7,273.24 -312.4,338.87 -41.6,65.64 -59.4,157.9 -59.4,157.9 l -68.4,20.79 c 0,0 -169.7,77.38 -178.5,71.46 -9,-6.01 -99.7,-71.46 -99.7,-71.46" /></g><path
         id="path34"
         style="fill:#252322;fill-opacity:1;fill-rule:nonzero;stroke:none"
         d="m 14796.6,5972.1 c 0,0 84.2,-46.8 96.7,-71.7 12.5,-24.9 118.5,-109.1 134.1,-230.7 15.6,-121.7 146.3,-399.2 224.4,-489.6 78,-90.4 78,-193.3 -127.8,-227.6 -205.8,-34.3 -445.9,59.2 -480.2,109.1 -34.3,49.9 -40.5,131 -59.2,159 -18.7,28.1 -180.9,124.8 -196.5,196.5 -15.5,71.7 1.5,155.9 21,268.1 19.6,112.3 128.7,196.5 128.7,196.5 0,0 118.5,165.3 152.8,184 34.3,18.7 106,-93.6 106,-93.6" /><g
         transform="scale(1.03609)"
         id="g36"><path
           id="path38"
           style="fill:#838585;fill-opacity:1;fill-rule:nonzero;stroke:none"
           d="m 11813.8,14458.6 4380.8,-329.5 105.4,64.7 -4561,367.3 74.8,-102.5" /></g><path
         id="path40"
         style="fill:#434244;fill-opacity:1;fill-rule:nonzero;stroke:none"
         d="m 15062.2,7216.3 v -209 l 96.7,-56.1 93.5,25 249.5,24.9 c 0,0 109.5,53 121.6,82.6 12,29.7 0,198 0,198 l -561.3,-65.4" /><g
         transform="scale(1.13433)"
         id="g42"><path
           id="path44"
           style="fill:#7c7d7f;fill-opacity:1;fill-rule:nonzero;stroke:none"
           d="m 16286.8,5320.58 -2840.6,964.18 v -134.71 l 2853.8,-981.54 -13.2,152.07" /></g><g
         transform="scale(1.14504)"
         id="g46"><path
           id="path48"
           style="fill:#9a9a9a;fill-opacity:1;fill-rule:nonzero;stroke:none"
           d="m 16300,5346.38 -2778,909.58 -201.6,-29.96 2814.1,-955.16 165.5,75.54" /></g><g
         transform="scale(1.03609)"
         id="g50"><path
           id="path52"
           style="fill:#b0b0ae;fill-opacity:1;fill-rule:nonzero;stroke:none"
           d="m 16300,14090.7 c -0.4,-4.5 -54.5,-90.3 -54.5,-90.3 l -1123.7,-7144.93 -123.8,-7.91 1118.8,7177.74 183.2,65.4" /></g><g
         transform="scale(1.05802)"
         id="g54"><path
           id="path56"
           style="fill:#9c9c9b;fill-opacity:1;fill-rule:nonzero;stroke:none"
           d="m 16254.6,13909.1 -345.8,-198.8 -126,24.3 44.1,104.1 c 0,0 300.7,212 327.3,225.3 26.4,13.2 88.3,66.3 117.1,17.6 28.7,-48.6 -16.7,-172.5 -16.7,-172.5" /></g><g
         transform="scale(1.08303)"
         id="g58"><path
           id="path60"
           style="fill:#838585;fill-opacity:1;fill-rule:nonzero;stroke:none"
           d="m 16300,5882.75 -32.2,-41.83 -106,156.97 -285.7,7674.31 c 0,0 -373.6,-164.1 -457.8,-254.8 L 14348,6550.78 l -167.4,46.08 1059.7,6964.54 124,213 206.2,97.9 312.1,100.8 90.6,14.4 326.8,-8104.75" /></g><g
         transform="scale(1.03609)"
         id="g62"><path
           id="path64"
           style="fill:#b0b0ae;fill-opacity:1;fill-rule:nonzero;stroke:none"
           d="m 11797.7,14817.5 4478.2,-316.7 24.1,-307 -4561,367.3 58.7,256.4" /></g><g
         transform="scale(1.09626)"
         id="g66"><path
           id="path68"
           style="fill:#b0b0ae;fill-opacity:1;fill-rule:nonzero;stroke:none"
           d="m 16071.4,5770.42 228.6,51.26 -267.9,7996.92 h -251.7 l 291,-8048.18" /></g><path
         id="path70"
         style="fill:#7c7d7f;fill-opacity:1;fill-rule:nonzero;stroke:none"
         d="m 10906.4,8240 4708.1,482.3 159,-98.2 -4882.5,-552.4 15.4,168.3" /><path
         id="path72"
         style="fill:#9a9a9a;fill-opacity:1;fill-rule:nonzero;stroke:none"
         d="m 10875.9,7906.8 4855.5,541.9 42.1,175.4 -4882.5,-552.4 -15.1,-164.9" /><path
         id="path74"
         style="fill:#434244;fill-opacity:1;fill-rule:nonzero;stroke:none"
         d="m 10282.5,6196.6 h -93.6 l -65.5,35.1 9.4,212.8 308.7,32.8 53.8,-86.6 -185.9,-194.1" /><path
         id="path76"
         style="fill:#515254;fill-opacity:1;fill-rule:nonzero;stroke:none"
         d="m 10282.5,6369.7 -149.7,74.8 308.7,32.8 40.5,-65.2 -80.3,-88 -119.2,45.6" /><path
         id="path78"
         style="fill:#434244;fill-opacity:1;fill-rule:nonzero;stroke:none"
         d="m 12932.1,4791.1 25.7,-114.6 30.4,-65.5 231.6,-79.5 374.1,81.9 -14,261.9 -261.9,77.2 c 0,0 -250.2,37.4 -306.4,23.4 -56.1,-14.1 -182.4,-79.5 -182.4,-84.2 0,-4.7 102.9,-100.6 102.9,-100.6" /><path
         id="path80"
         style="fill:#7c7d7f;fill-opacity:1;fill-rule:nonzero;stroke:none"
         d="m 10436.8,6351 -154.3,18.7 v -173.1 l 2675.3,-1520.1 -4.6,215.2 -2516.4,1459.3" /><path
         id="path82"
         style="fill:#9a9a9a;fill-opacity:1;fill-rule:nonzero;stroke:none"
         d="m 10708.1,6231.7 -28.1,119.3 -177.7,65.5 -219.8,-46.8 257.2,-138 h 168.4" /><path
         id="path84"
         style="fill:#9a9a9a;fill-opacity:1;fill-rule:nonzero;stroke:none"
         d="m 10680,6351 49.1,-49.1 2588.9,-1349.4 -364.8,-60.8 -2413.5,1340 140.3,119.3" /><path
         id="path86"
         style="fill:#838585;fill-opacity:1;fill-rule:nonzero;stroke:none"
         d="m 12401.3,5420.2 -126.3,-102.9 -131,51.5 -466,9717.9 187.7,-8 535.6,-9658.5" /><path
         id="path88"
         style="fill:#b0b0ae;fill-opacity:1;fill-rule:nonzero;stroke:none"
         d="m 12275,5317.3 399.2,-29.3 -450.7,10064.3 -687.5,35.1 v -294.7 l 329.7,-14 409.3,-9761.4" /><path
         id="path90"
         style="fill:#b0b0ae;fill-opacity:1;fill-rule:nonzero;stroke:none"
         d="m 10539.7,6231.7 189.4,70.2 783.5,8566.3 H 11338 l -798.3,-8636.5" /><path
         id="path92"
         style="fill:#838585;fill-opacity:1;fill-rule:nonzero;stroke:none"
         d="m 10539.7,6231.7 -149.3,80.1 757.4,8833.9 388.2,241.7 v -294.7 l -198,-224.5 -798.3,-8636.5" /><path
         id="path94"
         style="fill:#515254;fill-opacity:1;fill-rule:nonzero;stroke:none"
         d="m 12953.2,4891.7 258.4,-105.3 368.3,88.9 -261.9,77.2 -364.8,-60.8" /><path
         id="path96"
         style="fill:#9c9c9b;fill-opacity:1;fill-rule:nonzero;stroke:none"
         d="m 11678,15086.7 -165.4,-218.5 H 11338 l 198,224.5 142,-6" /><g
         transform="scale(1.16469)"
         id="g98"><path
           id="path100"
           style="fill:#434244;fill-opacity:1;fill-rule:nonzero;stroke:none"
           d="m 15862.2,5181.88 16.1,-184.77 194.8,-72.3 208.8,60.28 c 0,0 18.1,198.77 0,194.73 -18,-4.04 -251,76.33 -257,76.33 -6,0 -162.7,-74.27 -162.7,-74.27" /></g><g
         transform="scale(1.1634)"
         id="g102"><path
           id="path104"
           style="fill:#515254;fill-opacity:1;fill-rule:nonzero;stroke:none"
           d="m 15879.9,5187.65 223.1,-91.46 197,89.39 -257.3,76.42 -162.8,-74.35" /></g><path
         id="path106"
         style="fill:#494a4b;fill-opacity:1;fill-rule:nonzero;stroke:none"
         d="m 12655,5199.2 c 0,0 59.6,-26.9 120.4,0 L 12279.6,15456 c 0,0 -49.8,28.1 -98.2,0 L 12655,5199.2" /><g
         transform="scale(1.11249)"
         id="g108"><path
           id="path110"
           style="fill:#494a4b;fill-opacity:1;fill-rule:nonzero;stroke:none"
           d="m 16189.3,5637.35 c 0,0 54.6,-25.26 110.7,0 L 16022.5,13746 c 0,0 -35,30.1 -91.8,0 l 258.6,-8108.65" /></g><g
         transform="scale(1.09575)"
         id="g112"><path
           id="path114"
           style="fill:#9c9c9b;fill-opacity:1;fill-rule:nonzero;stroke:none"
           d="m 16300,9765.87 -5808.9,160.5 0.2,-199.19 5808.7,-104.99 v 143.68" /></g><path
         id="path116"
         style="fill:#100f0d;fill-opacity:1;fill-rule:nonzero;stroke:none"
         d="m 15953.5,7475.1 c 0,0 -252.8,-377.3 -330.7,-391.4 -77.8,-14 -127.7,188.7 -109,260.4 18.7,71.7 -40.5,162.2 84.2,224.5 124.7,62.4 119.1,74.9 174.9,65.5 55.8,-9.4 180.6,-159 180.6,-159" /><g
         transform="scale(1.02217)"
         id="g118"><path
           id="path120"
           style="fill:#c37140;fill-opacity:1;fill-rule:nonzero;stroke:none"
           d="m 15479.4,9118.87 c 16,-2.25 99.7,-92.15 173.3,-99.88 73.8,-7.63 302.5,244.09 348.3,319.52 45.8,75.52 272.3,757.29 272.3,757.29 0,0 26.7,80.1 6.8,139.6 -19.8,59.5 -50.2,102 -50.2,102 l -390.6,7.1 c 0,0 59.5,-63.3 82.4,-89.3 22.9,-25.9 91.6,-77.8 91.6,-77.8 0,0 -133.3,-292.05 -151.7,-346.97 -18.5,-54.91 -55.1,-148.73 -55.1,-148.73 l -18.1,200.11 c 0,0 -0.2,204.89 -66.5,312.39 -66.3,107.5 -224.3,156.4 -224.3,156.4 0,0 -45.7,-181.6 -41.1,-209 4.6,-27.5 89.2,-732.17 89.2,-732.17 l -66.3,-290.56" /></g><g
         transform="scale(1.04072)"
         id="g122"><path
           id="path124"
           style="fill:#c37140;fill-opacity:1;fill-rule:nonzero;stroke:none"
           d="m 15014.3,7056.57 c 0,0 135.2,9.23 309,87.06 173.8,77.93 347.5,101.95 347.5,101.95 0,0 -92.8,-146.82 -116.8,-287.69 -23.9,-140.77 -29.7,-341.4 -62.8,-542.22 -33.1,-200.82 -135,-428.55 -135,-428.55 0,0 122.9,-41.9 170.9,-26.9 47.8,14.98 143.7,149.79 143.7,155.75 0,5.96 72,20.95 72,20.95 0,0 293.5,527.33 341.5,644.17 47.9,116.84 119.9,371.57 167.9,464.49 47.8,92.82 42.2,317.57 -41.8,434.41 -84.1,116.84 -683.3,292.1 -683.3,292.1 0,0 -374.6,-124.33 -422.5,-274.13 -48,-149.8 -65.2,-83.5 -79.1,-272.51 -13.8,-188.91 -52.8,-245.79 -52.8,-245.79 l 41.6,-123.09" /></g><path
         id="path126"
         style="fill:#252322;fill-opacity:1;fill-rule:nonzero;stroke:none"
         d="m 14358.5,8549.3 -145,-42.1 c 0,0 -179.2,-85.1 -238.5,-173.1 -59.3,-88 -163.7,-344.7 -163.7,-427.3 0,-82.5 84.2,-162 98.2,-213.5 14,-51.4 23.4,-182.4 196.5,-308.7 173,-126.2 285.3,-187 308.7,-191.7 23.3,-4.7 205.7,-78 233.8,-76.4 28.1,1.5 974.3,-32.8 974.3,-32.8 0,0 -29.5,371.1 87.4,633 117,262 449.1,580 449.1,580 0,0 -218.3,26.5 -237,51.5 -18.7,24.9 -56.1,57.2 -74.9,48.8 -18.7,-8.3 -80.1,-19.5 -121.6,13.5 -41.4,33 -62.1,30.7 -97.6,26.8 -35.5,-4 -70.7,10.6 -254.7,26.2 -184,15.6 -767.1,96.7 -785.8,85.8 -18.7,-10.9 -229.2,0 -229.2,0" /><path
         id="path128"
         style="fill:#e9eef1;fill-opacity:1;fill-rule:nonzero;stroke:none"
         d="m 14896.4,10717.2 -90.4,-49.1 -536.3,-1188.1 c 0,0 93.5,-266.6 46.7,-509.8 -46.7,-243.2 -105.2,-446.6 -102.9,-463 2.4,-16.4 289.9,-164.3 341.4,-189.7 51.5,-25.5 141.9,-37.9 248,-81.6 106,-43.7 461.4,0 502,0 40.5,0 249.4,221.4 286.9,274.4 37.4,53 255.8,605.1 271.3,665.8 15.5,60.7 34.2,219.7 34.2,219.7 0,0 180.9,146.6 209,243.3 28,96.6 24.9,445.9 0,495.8 -25,49.9 -265.2,445.2 -265.2,445.2 l -77,1.4 -867.7,135.7" /><path
         id="path130"
         style="fill:#c37140;fill-opacity:1;fill-rule:nonzero;stroke:none"
         d="m 15112.5,11102.4 c 0,0 4,-187 -26.7,-255.4 -30.6,-68.5 -189.4,-129.8 -189.4,-129.8 0,0 217.5,-587 378.9,-755.4 161.3,-168.4 467.7,-166 570.6,21 102.9,187.1 -81.8,598.7 -81.8,598.7 l -77.2,16.4 -1.6,46.9 c 0,0 -201.4,654.2 -346.9,687.4 -145.5,33.3 -222.2,37.5 -231.5,-18.7 -9.4,-56.1 5.6,-211.1 5.6,-211.1" /><path
         id="path132"
         style="fill:#9d4a30;fill-opacity:1;fill-rule:nonzero;stroke:none"
         d="m 15191.2,11163.9 c 0,0 6.7,-174.6 40.7,-261.9 34,-87.3 219.5,-201.1 322.4,-230.7 102.9,-29.7 131,-26.5 131,-26.5 l 39,213.5 -533.1,305.6" /><path
         id="path134"
         style="fill:#797a7b;fill-opacity:1;fill-rule:nonzero;stroke:none"
         d="m 12664,11726 c -1.2,68.4 -57.5,122.9 -125.9,121.7 l -380.6,-6.5 c -68.4,-1.2 -122.8,-57.6 -121.6,-125.9 l 26.4,-1539 c 1.2,-68.3 57.5,-122.8 125.9,-121.6 l 380.6,6.5 c 68.3,1.2 122.8,57.6 121.6,125.9 L 12664,11726" /><path
         id="path136"
         style="fill:#494a4b;fill-opacity:1;fill-rule:nonzero;stroke:none"
         d="m 12217,11678.4 c 0,-25.9 -20.9,-46.8 -46.7,-46.9 -25.9,0 -46.8,20.9 -46.9,46.8 0,25.8 20.9,46.8 46.8,46.8 25.8,0 46.8,-20.9 46.8,-46.7" /><path
         id="path138"
         style="fill:#494a4b;fill-opacity:1;fill-rule:nonzero;stroke:none"
         d="m 12608.5,11678.8 c 0,-25.9 -20.9,-46.8 -46.7,-46.9 -25.9,0 -46.8,20.9 -46.9,46.8 0,25.8 20.9,46.7 46.8,46.8 25.8,0 46.8,-20.9 46.8,-46.7" /><path
         id="path140"
         style="fill:#494a4b;fill-opacity:1;fill-rule:nonzero;stroke:none"
         d="m 12609.9,10249.9 c 0.1,-25.9 -20.9,-46.8 -46.7,-46.9 -25.8,0 -46.8,20.9 -46.8,46.8 0,25.8 20.9,46.8 46.7,46.8 25.9,0 46.8,-20.9 46.8,-46.7" /><path
         id="path142"
         style="fill:#1d1b1a;fill-opacity:1;fill-rule:nonzero;stroke:none"
         d="m 11728.7,11800.2 -154.8,-0.2 c 0,0 0.9,-13.4 0.6,-31.4 -272.5,-115.8 -477.1,-537.8 -481.5,-1042.4 -4.6,-517.5 203,-951.8 484.1,-1059.3 -12.4,-14.6 -22,-25.8 -22,-25.8 l 154.8,0.1 c 345.9,-3 630.6,477.9 635.8,1074 5.2,596.2 -271,1082 -617,1085" /><path
         id="path144"
         style="fill:#343434;fill-opacity:1;fill-rule:nonzero;stroke:none"
         d="m 12190.9,10715.1 c -5.3,-596.2 -289.9,-1077.1 -635.8,-1074 -346,3 -622.2,488.7 -617,1084.9 5.2,596.2 289.9,1077.1 635.8,1074 345.9,-3 622.2,-488.7 617,-1084.9" /><path
         id="path146"
         style="fill:#797a7b;fill-opacity:1;fill-rule:nonzero;stroke:none"
         d="m 11733.8,10751.8 c 0.2,-175.7 -88.1,-318.2 -197.3,-318.3 -109.1,-0.1 -197.7,142.2 -197.9,317.9 -0.2,175.6 88.2,318.1 197.3,318.2 109.1,0.1 197.8,-142.2 197.9,-317.8" /><g
         transform="scale(1.09222)"
         id="g148"><path
           id="path150"
           style="fill:#494a4b;fill-opacity:1;fill-rule:nonzero;stroke:none"
           d="m 16189.7,10489.1 -145.7,-94.3 c 0,0 -8,-52 38.3,-97.1 46.1,-45 217.7,-24.8 217.7,-24.8 l -110.3,216.2" /></g><g
         transform="scale(1.0895)"
         id="g152"><path
           id="path154"
           style="fill:#494a4b;fill-opacity:1;fill-rule:nonzero;stroke:none"
           d="m 16254.4,9485.65 c 0,0 -109.2,-71.67 -119.1,-104.6 -10,-32.92 24.5,-113.02 37.3,-125.88 12.9,-12.87 127.4,-28.49 127.4,-28.49 l -45.6,258.97" /></g><path
         id="path156"
         style="fill:#c37140;fill-opacity:1;fill-rule:nonzero;stroke:none"
         d="m 14940.1,8142.4 c 0,0 399.1,-180.9 473.9,-299.4 74.9,-118.5 -7.3,-458.4 -69.1,-542.5 -61.8,-84.2 -138,-209 -152.9,-246.4 -15,-37.4 -15.1,-168.4 -130.4,-374.2 -115.3,-205.8 -177.7,-346.1 -215.1,-486.4 -37.4,-140.3 -49.9,-221.4 -49.9,-221.4 0,0 -127.8,-24.9 -155.9,-46.8 -28,-21.8 -53,-130.9 -74.8,-140.3 -21.8,-9.3 -53,18.7 -53,18.7 0,0 -46.8,982.3 -34.3,1097.6 12.4,115.4 130.9,321.2 130.9,321.2 0,0 -149.6,131 -193.3,318.1 -43.6,187 112.3,598.6 523.9,601.8" /><path
         id="path158"
         style="fill:#9d4a30;fill-opacity:1;fill-rule:nonzero;stroke:none"
         d="m 14846.5,7512.5 -237,-290 -94.6,108.3 c 0,0 138.3,4 331.6,181.7" /><g
         transform="scale(1.01719)"
         id="g160"><path
           id="path162"
           style="fill:#9d4a30;fill-opacity:1;fill-rule:nonzero;stroke:none"
           d="m 16300,7538.81 c 0,0 -124.7,-95.66 -266.7,-125.64 l -44.3,-80.42 c 0,0 200.7,22.12 311,206.06" /></g><path
         id="path164"
         style="fill:#f0f0ef;fill-opacity:1;fill-rule:nonzero;stroke:none"
         d="m 14496.9,6163.3 c 8.3,-198.9 16,-359.6 16,-359.6 0,0 31.2,-28 53,-18.7 21.8,9.4 46.8,118.5 74.8,140.3 28.1,21.9 155.9,46.8 155.9,46.8 0,0 8.6,55.9 32.9,155 -126.4,7.9 -252,24.2 -332.6,36.2" /><g
         transform="scale(1.0098)"
         id="g166"><path
           id="path168"
           style="fill:#f0f0ef;fill-opacity:1;fill-rule:nonzero;stroke:none"
           d="m 15941,6498.53 c -44.1,-170.73 -114.6,-328.09 -114.6,-328.09 0,0 126.7,-43.17 176.1,-27.72 49.3,15.45 148.2,154.39 148.2,160.52 0,6.14 74.1,21.59 74.1,21.59 0,0 31.2,56.05 75.2,136.07 -129,6.04 -262.2,22.98 -359,37.63" /></g><path
         id="path170"
         style="fill:#c37140;fill-opacity:1;fill-rule:nonzero;stroke:none"
         d="m 14806,10668.1 c 0,0 127.8,-299.4 71.7,-666.5 -56.1,-367.2 -361.8,-518.6 -600.7,-544.6 l -35.4,62.8 c 0,0 -247.9,-297 -390.6,-388.2 -142.6,-91.2 -299.3,-140.3 -390.5,-133.3 -91.2,7 -161.4,81.8 -173.1,189.4 -11.7,107.6 -72.5,325.1 0,493.5 72.5,168.3 194.1,631.4 194.1,631.4 l 294.7,-35.1 -25.7,-346.1 145,93.5 c 0,0 -2.4,252.6 229.2,400 231.5,147.3 430.3,128.6 430.3,128.6 l 251,114.6" /><path
         id="path172"
         style="fill:#9d4a30;fill-opacity:1;fill-rule:nonzero;stroke:none"
         d="m 13750.5,9931.4 c 0,0 0,-410.8 0,-601 0,0 58.7,287 47.2,631.5 l -47.2,-30.5" /><path
         id="path174"
         style="fill:#9d4a30;fill-opacity:1;fill-rule:nonzero;stroke:none"
         d="m 14241.6,9519.8 c 0,0 131,231.5 133.3,245.6 2.3,14 -66.7,196.5 -66.7,196.5 0,0 214,-286.4 313.4,-378.3 l -41.9,-27 -174.4,162 -154.4,-215.4 -9.3,16.6" /><path
         id="path176"
         style="fill:#c37140;fill-opacity:1;fill-rule:nonzero;stroke:none"
         d="m 13776.2,10277.5 c 0,0 36.6,91.2 134.9,147.4 98.2,56.1 109.1,95 109.1,109.1 0,14 0,79 0,79 l -654.8,11.8 c 0,0 20.3,-75.2 43.6,-112.6 23.4,-37.5 42.1,-51.5 51.5,-81.1 9.3,-29.6 21,-118.5 21,-118.5 0,0 13.3,-65.5 60.1,-71.7 46.7,-6.3 234.6,36.6 234.6,36.6" /><path
         id="path178"
         style="fill:#9d4a30;fill-opacity:1;fill-rule:nonzero;stroke:none"
         d="m 13614.8,10548 c 0,0 101.4,26.5 109.2,32.8 7.8,6.2 28.1,37 28.1,37 l 151.2,-2.7 c 0,0 -34.3,-39 -48.4,-40.6 -14,-1.5 -130.9,-43.6 -240.1,-26.5" /><path
         id="path180"
         style="fill:#c37140;fill-opacity:1;fill-rule:nonzero;stroke:none"
         d="m 13418.4,10823.7 c 0,0 31.2,58.7 54.6,66.5 23.4,7.8 42.8,0 42.8,0 0,0 31.2,21.1 50.7,21.1 19.5,0 34.3,0 34.3,0 0,0 43.7,9.3 75.6,6.2 32,-3.1 42.1,-8.6 42.1,-8.6 0,0 69.4,3.9 88.9,-7 19.5,-10.9 77.9,-123.9 69.4,-152.8 -8.6,-28.8 -51.5,-20.2 -51.5,-20.2 0,0 -17.9,-32.8 -52.2,-23.4 -34.3,9.3 -85,52.2 -85,52.2 0,0 -49.9,-6.2 -69.4,-1.5 -19.4,4.6 -43.6,31.1 -43.6,31.1 0,0 -21.8,-4.6 -39,3.9 -17.1,8.6 -34.2,30.2 -34.2,30.2 l -83.5,2.3" /><path
         id="path182"
         style="fill:#9d4a30;fill-opacity:1;fill-rule:nonzero;stroke:none"
         d="m 13546.2,10873.1 c 0,0 25,-40.5 28.9,-57.7 3.9,-17.1 0,-28.1 0,-28.1 l 17.9,-16.6 c 0,0 2.3,40.8 0,54.1 -2.3,13.2 -46.8,48.3 -46.8,48.3" /><path
         id="path184"
         style="fill:#9d4a30;fill-opacity:1;fill-rule:nonzero;stroke:none"
         d="m 13654.6,10876.9 33.5,-119.2 -26.4,-2.5 z" /><path
         id="path186"
         style="fill:#9d4a30;fill-opacity:1;fill-rule:nonzero;stroke:none"
         d="m 13759.1,10867.6 66.2,-138.7 20.3,-0.9 c 0,0 -46,123.3 -86.5,139.6" /><g
         transform="scale(1.01561)"
         id="g188"><path
           id="path190"
           style="fill:#c37140;fill-opacity:1;fill-rule:nonzero;stroke:none"
           d="m 15974.2,10581 c 0,0 38,52.8 60.2,59.7 22.3,6.9 46.8,0 46.8,0 0,0 43,8.4 53.8,7.7 10.7,-0.8 24.5,-7.7 26.9,-8.5 2.2,-0.8 24.5,9.2 45.9,4.6 21.6,-4.6 24.7,-10 24.7,-10 0,0 46,3.1 54.4,-6.1 8.5,-9.2 13.1,-89.8 8.5,-96.7 -4.7,-6.9 -30,0 -30,0 0,0 -20.6,-17.7 -31.5,-19.2 -10.7,-1.5 -25.3,6.1 -25.3,6.1 0,0 -22.2,-9.9 -43.7,-0.7 -21.5,9.2 -36.1,23.8 -36.1,23.8 0,0 -28.4,3 -36.9,6.9 -8.3,3.8 -30.7,30 -30.7,30 l -87,2.4" /></g><g
         transform="scale(1.00217)"
         id="g192"><path
           id="path194"
           style="fill:#9d4a30;fill-opacity:1;fill-rule:nonzero;stroke:none"
           d="m 16276.6,10720.5 c 0,0 7.1,-2.4 9.4,15.5 2.3,17.8 3.9,33.4 3.9,33.4 0,0 10.1,-28 10.1,-42 0,-14 -7.7,-24.1 -7.7,-24.1 l -15.7,17.2" /></g><g
         transform="scale(1.00672)"
         id="g196"><path
           id="path198"
           style="fill:#9d4a30;fill-opacity:1;fill-rule:nonzero;stroke:none"
           d="m 16270.6,10720.8 c 0,0 14.7,-32.7 15.5,-47 0.7,-14.2 -14.8,-39 -14.8,-39 l 11.7,-9.7 c 0,0 17,3 17,35 0,32 -29.4,60.7 -29.4,60.7" /></g><g
         transform="scale(1.01107)"
         id="g200"><path
           id="path202"
           style="fill:#9d4a30;fill-opacity:1;fill-rule:nonzero;stroke:none"
           d="m 16273.8,10667.7 c 0,0 11.6,-32.1 10.8,-53.4 -0.7,-21.4 -3.1,-48.4 -3.1,-48.4 l 13.2,-6.3 c 0,0 5.3,41.6 4.6,54 -0.8,12.5 -25.5,54.1 -25.5,54.1" /></g><g
         transform="scale(1.01426)"
         id="g204"><path
           id="path206"
           style="fill:#9d4a30;fill-opacity:1;fill-rule:nonzero;stroke:none"
           d="m 16277.9,10618 c 0.7,-2.3 9.2,-72.3 9.2,-72.3 l 12.9,-2.5 -22.1,74.8" /></g><g
         transform="scale(1.11164)"
         id="g208"><path
           id="path210"
           style="fill:#797a7b;fill-opacity:1;fill-rule:nonzero;stroke:none"
           d="m 16270.1,10314.4 c -0.7,31.8 -27.1,57 -58.9,56.2 l -248.1,-5.8 c -31.8,-0.7 -57,-27.1 -56.3,-59 l 29.1,-1237.5 c 0.8,-31.84 27.1,-57.04 59,-56.29 l 248,5.82 c 31.8,0.75 57.1,27.16 56.3,58.99 l -29.1,1237.58" /></g><g
         transform="scale(1.09221)"
         id="g212"><path
           id="path214"
           style="fill:#494a4b;fill-opacity:1;fill-rule:nonzero;stroke:none"
           d="m 16300,10395.1 c 0,-18 -14.6,-32.6 -32.6,-32.6 -18,-0.1 -32.7,14.5 -32.7,32.6 0,18 14.6,32.6 32.6,32.7 18.1,0 32.7,-14.6 32.7,-32.7" /></g><g
         transform="scale(1.10738)"
         id="g216"><path
           id="path218"
           style="fill:#494a4b;fill-opacity:1;fill-rule:nonzero;stroke:none"
           d="m 16300,10253 c 0,-17.8 -14.4,-32.2 -32.2,-32.2 -17.8,0 -32.2,14.4 -32.3,32.1 0,17.8 14.5,32.3 32.3,32.3 17.8,0 32.2,-14.4 32.2,-32.2" /></g><g
         transform="scale(1.09448)"
         id="g220"><path
           id="path222"
           style="fill:#494a4b;fill-opacity:1;fill-rule:nonzero;stroke:none"
           d="m 16300,9278.06 c 0,-18 -14.5,-32.6 -32.5,-32.61 -18,-0.02 -32.6,14.55 -32.6,32.55 -0.1,17.99 14.5,32.6 32.5,32.62 18,0.01 32.6,-14.56 32.6,-32.56" /></g><g
         transform="scale(1.10964)"
         id="g224"><path
           id="path226"
           style="fill:#494a4b;fill-opacity:1;fill-rule:nonzero;stroke:none"
           d="m 16300,9151.48 c 0,-17.74 -14.4,-32.15 -32.2,-32.17 -17.7,-0.02 -32.1,14.36 -32.1,32.11 0,17.75 14.4,32.15 32.1,32.17 17.8,0.02 32.1,-14.35 32.2,-32.11" /></g><path
         id="path228"
         style="fill:#9c9c9b;fill-opacity:1;fill-rule:nonzero;stroke:none"
         d="m 11495.7,10876.9 -961,30.3 0.3,-218.2 960.9,-30.4 c 37.9,0 68.6,48.9 68.5,109.2 0,60.3 -30.8,109.1 -68.7,109.1" /><path
         id="path230"
         style="fill:#bfbebc;fill-opacity:1;fill-rule:nonzero;stroke:none"
         d="m 10603.5,10798.2 c 0,-60.3 -30.6,-109.2 -68.5,-109.2 -37.9,-0.1 -68.7,48.8 -68.7,109 -0.1,60.3 30.6,109.2 68.4,109.2 37.9,0.1 68.7,-48.8 68.8,-109" /><path
         id="path232"
         style="fill:#2f1d16;fill-opacity:1;fill-rule:nonzero;stroke:none"
         d="m 15873.1,12059.5 c -157.5,98.5 -328.7,88.5 -419.4,70.3 -90.8,-18.2 -238.6,-66 -238.6,-66 -38.4,-13.3 -77.4,-28.9 -101.4,-53 -38.4,-38.6 -46.6,-77.2 -46.6,-77.2 0,0 -129.9,-16.1 -150,-193.5 -20.2,-177.4 19.9,-321.9 55.2,-422.9 35.3,-100.9 140.2,-214.8 140.2,-214.8 l 206.4,151.5 c 116.6,-57.6 194,300.5 180.1,331 -8.7,19.3 358.6,87.5 358.6,87.5 l 86.6,39.4 c 0,0 44.4,111.5 -0.7,236.5 -14.1,39.2 -40.6,77.3 -70.4,111.2" /><path
         id="path234"
         style="fill:#c37140;fill-opacity:1;fill-rule:nonzero;stroke:none"
         d="m 15899.3,11777.7 c 0,0 36.6,-47.4 44.9,-65.9 8.3,-18.5 14.9,-186.9 17.7,-229.5 2.9,-42.7 -7.9,-100.4 -7.9,-121.1 0.1,-20.6 3.1,-147.1 -2.2,-196.6 -5.4,-49.5 -59.9,-242.1 -77.6,-293 -17.8,-50.9 -43.7,-118.4 -68.4,-132.2 -24.8,-13.8 -133.4,-19.6 -229.7,9 -96.3,28.7 -285,156 -336,223.3 -51.1,67.2 -44.6,207.5 -44.6,207.5 0,0 -39.8,-11.1 -81.2,30 -41.3,41.1 -107.5,130.3 -94,229.4 13.5,99 89.2,63.4 127.8,23.7 38.6,-39.8 40.1,-100.3 48.4,-101.6 8.2,-1.4 16.4,1.4 20.6,2.7 4.1,1.4 23.1,103.2 24.4,123.9 1.3,20.6 -3.1,144.3 -0.4,148.4 2.7,4.2 104.9,128.2 137.8,140.6 33,12.5 520.4,1.4 520.4,1.4" /><path
         id="path236"
         style="fill:#2f1d16;fill-opacity:1;fill-rule:nonzero;stroke:none"
         d="m 15224.2,11388.4 c 0,0 13.2,65.3 33.7,104 20.5,38.8 7.1,62.2 12.7,105 5.6,42.8 63.7,54.3 75.8,109.8 12.1,55.5 62.6,72.7 62.6,72.7 0,0 -51,46.1 -57.2,41.6 -6.1,-4.5 -120.9,-45.7 -154.2,-90.7 -33.3,-45.1 -70.6,-37.3 -53.3,-113.5 17.2,-76.2 79.9,-228.9 79.9,-228.9" /><path
         id="path238"
         style="fill:#2f1d16;fill-opacity:1;fill-rule:nonzero;stroke:none"
         d="m 15022.3,11902.7 c 0,0 52.6,99.5 97.7,129 45,29.6 114.9,73.2 114.9,73.2 0,0 66.7,40.9 107.8,42.5 41.1,1.7 82.5,-2.3 82.5,-2.3 0,0 51.1,37.8 111.6,29.5 60.6,-8.3 75.4,-21.5 87.7,-24 12.2,-2.5 55.1,19 110.1,3.9 55,-15.1 74.2,-46.2 84.5,-49 10.3,-2.9 59.9,-10.8 85.5,-31.8 25.7,-20.9 42.9,-33.8 45.6,-65.2 2.7,-31.3 34.9,-47.8 48.6,-78.6 13.8,-30.9 -4.5,-48.1 -10.5,-83.4 -6,-35.3 -13.7,-81.3 -44.1,-134.7 0,0 -15,107.8 -18.2,109.9 -3.1,2.1 -244.8,82 -244.8,82 0,0 -474.1,-37.2 -485,-38.7 -10.9,-1.5 -173.9,37.7 -173.9,37.7" /><path
         id="path240"
         style="fill:#252322;fill-opacity:1;fill-rule:nonzero;stroke:none"
         d="m 5333.02,5990.8 c 0,0 -87.31,-159 -99.79,-187.1 -12.47,-28 -68.6,-374.1 -34.3,-439.6 34.3,-65.5 53.01,-43.7 84.19,-134.1 31.19,-90.4 46.78,-334.4 477.08,-360.5 430.31,-26.2 378.06,220.2 346.5,251.4 -31.56,31.1 -309.08,458.3 -315.32,502 -6.23,43.6 -49.89,221.4 -77.95,271.3 -28.06,49.9 -90.43,115.3 -90.43,115.3 0,0 -74.83,84.2 -124.72,65.5 -49.89,-18.7 -165.26,-84.2 -165.26,-84.2" /><path
         id="path242"
         style="fill:#252322;fill-opacity:1;fill-rule:nonzero;stroke:none"
         d="m 6867.15,6391 c 0,0 -124.73,-72.5 -152.79,-122.5 -28.07,-50 -81.07,-389.9 -74.84,-421.1 6.24,-31.2 236.98,-106 302.46,-112.3 65.49,-6.2 134.09,21.9 190.21,-21.8 56.13,-43.6 46.77,-118.5 427.19,-180.8 380.42,-62.4 411.6,155.9 396.01,199.5 -15.59,43.7 -215.16,109.2 -318.06,174.6 -102.9,65.5 -302.46,286.9 -308.69,346.2 -6.24,59.2 -34.3,134 -62.37,162.1 -28.06,28.1 -134.08,40.5 -134.08,40.5 0,0 -74.83,18.7 -102.9,18.7 -28.06,0 -162.14,-83.1 -162.14,-83.1" /><path
         id="path244"
         style="fill:#9c9c9b;fill-opacity:1;fill-rule:nonzero;stroke:none"
         d="m 2390.03,13374.5 7339.59,-140.2 c 0,0 42.09,95.1 0,148.1 l -7339.59,210.3 v -218.2" /><path
         id="path246"
         style="fill:#1d1b1a;fill-opacity:1;fill-rule:nonzero;stroke:none"
         d="m 8919.92,14271.9 h -154.84 c 0,0 0.87,-12.6 0.57,-29.5 -272.64,-108.2 -477.69,-503.2 -482.62,-975.9 -5.04,-484.7 202.06,-891.6 483.06,-992.7 -12.38,-13.6 -22.05,-24.1 -22.05,-24.1 h 154.84 c 345.93,-3.2 631.07,447 636.88,1005.4 5.81,558.4 -269.91,1013.6 -615.84,1016.8" /><path
         id="path248"
         style="fill:#343434;fill-opacity:1;fill-rule:nonzero;stroke:none"
         d="m 9380.92,13255.1 c -5.81,-558.4 -290.95,-1008.6 -636.88,-1005.4 -345.94,3.2 -621.66,458.4 -615.85,1016.8 5.81,558.4 290.96,1008.5 636.89,1005.4 345.93,-3.2 621.65,-458.4 615.84,-1016.8" /><path
         id="path250"
         style="fill:#838585;fill-opacity:1;fill-rule:nonzero;stroke:none"
         d="m 3143.96,14980.5 4538.98,-341.5 109.13,67.1 -4725.57,380.6 77.46,-106.2" /><path
         id="path252"
         style="fill:#434244;fill-opacity:1;fill-rule:nonzero;stroke:none"
         d="m 5966,7216.3 v -209 l 96.66,-56.1 93.55,25 249.45,24.9 c 0,0 109.55,53 121.61,82.6 12.06,29.7 0,198 0,198 L 5966,7216.3" /><path
         id="path254"
         style="fill:#7c7d7f;fill-opacity:1;fill-rule:nonzero;stroke:none"
         d="M 9378.44,6035.3 6156.21,7129 v -152.8 l 3237.23,-1113.4 -15,172.5" /><path
         id="path256"
         style="fill:#9a9a9a;fill-opacity:1;fill-rule:nonzero;stroke:none"
         d="M 9567.86,6121.8 6386.95,7163.3 6156.21,7129 9378.44,6035.3 l 189.42,86.5" /><path
         id="path258"
         style="fill:#b0b0ae;fill-opacity:1;fill-rule:nonzero;stroke:none"
         d="m 7792.07,14599.3 c -0.39,-4.7 -56.51,-93.6 -56.51,-93.6 l -1164.2,-7402.8 -128.28,-8.2 1159.17,7436.8 189.82,67.8" /><path
         id="path260"
         style="fill:#9c9c9b;fill-opacity:1;fill-rule:nonzero;stroke:none"
         d="m 8101.44,14716.1 -365.88,-210.4 -133.31,25.8 46.62,110.1 c 0,0 318.21,224.3 346.27,238.3 28.07,14 93.55,70.2 123.95,18.7 30.4,-51.4 -17.65,-182.5 -17.65,-182.5" /><path
         id="path262"
         style="fill:#838585;fill-opacity:1;fill-rule:nonzero;stroke:none"
         d="m 8557.19,6371.2 -34.89,-45.3 -114.78,170 -309.48,8311.5 c 0,0 -404.58,-177.7 -495.79,-275.9 l -1159.17,-7436.8 -181.33,49.9 1147.72,7542.8 134.32,230.7 223.34,106 337.93,109.2 98.22,15.6 353.91,-8777.7" /><path
         id="path264"
         style="fill:#b0b0ae;fill-opacity:1;fill-rule:nonzero;stroke:none"
         d="m 3127.31,15352.3 4639.82,-328.2 24.94,-318 -4725.57,380.6 60.81,265.6" /><path
         id="path266"
         style="fill:#b0b0ae;fill-opacity:1;fill-rule:nonzero;stroke:none"
         d="m 8522.3,6325.9 250.58,56.2 -293.64,8766.8 h -275.96 l 319.02,-8823" /><path
         id="path268"
         style="fill:#7c7d7f;fill-opacity:1;fill-rule:nonzero;stroke:none"
         d="m 1810.18,8240 4708.13,482.3 159.02,-98.2 -4882.54,-552.4 15.39,168.3" /><path
         id="path270"
         style="fill:#9a9a9a;fill-opacity:1;fill-rule:nonzero;stroke:none"
         d="m 1779.71,7906.8 4855.53,541.9 42.09,175.4 -4882.54,-552.4 -15.08,-164.9" /><path
         id="path272"
         style="fill:#434244;fill-opacity:1;fill-rule:nonzero;stroke:none"
         d="m 1186.25,6196.6 h -93.54 l -65.48,35.1 9.35,212.8 308.7,32.8 53.79,-86.6 -185.92,-194.1" /><path
         id="path274"
         style="fill:#515254;fill-opacity:1;fill-rule:nonzero;stroke:none"
         d="m 1186.25,6369.7 -149.67,74.8 308.7,32.8 40.49,-65.2 -80.25,-88 -119.27,45.6" /><path
         id="path276"
         style="fill:#434244;fill-opacity:1;fill-rule:nonzero;stroke:none"
         d="m 3835.91,4791.1 25.72,-114.6 30.41,-65.5 231.52,-79.5 374.18,81.9 -14.03,261.9 -261.93,77.2 c 0,0 -250.23,37.4 -306.36,23.4 -56.12,-14.1 -182.41,-79.5 -182.41,-84.2 0,-4.7 102.9,-100.6 102.9,-100.6" /><path
         id="path278"
         style="fill:#7c7d7f;fill-opacity:1;fill-rule:nonzero;stroke:none"
         d="m 1340.6,6351 -154.35,18.7 V 6196.6 L 3861.63,4676.5 3856.96,4891.7 1340.6,6351" /><path
         id="path280"
         style="fill:#9a9a9a;fill-opacity:1;fill-rule:nonzero;stroke:none"
         d="m 1611.88,6231.7 -28.06,119.3 -177.74,65.5 -219.83,-46.8 257.25,-138 h 168.38" /><path
         id="path282"
         style="fill:#9a9a9a;fill-opacity:1;fill-rule:nonzero;stroke:none"
         d="m 1583.82,6351 49.11,-49.1 2588.85,-1349.4 -364.82,-60.8 -2413.46,1340 140.32,119.3" /><path
         id="path284"
         style="fill:#838585;fill-opacity:1;fill-rule:nonzero;stroke:none"
         d="m 3305.04,5420.2 -126.28,-102.9 -130.97,51.5 -466.02,9717.9 187.73,-8 535.54,-9658.5" /><path
         id="path286"
         style="fill:#b0b0ae;fill-opacity:1;fill-rule:nonzero;stroke:none"
         d="m 3178.76,5317.3 399.22,-29.3 -450.67,10064.3 -687.56,35.1 v -294.7 l 329.75,-14 409.26,-9761.4" /><path
         id="path288"
         style="fill:#b0b0ae;fill-opacity:1;fill-rule:nonzero;stroke:none"
         d="m 1443.5,6231.7 189.43,70.2 783.44,8566.3 H 2241.75 L 1443.5,6231.7" /><path
         id="path290"
         style="fill:#838585;fill-opacity:1;fill-rule:nonzero;stroke:none"
         d="m 1443.5,6231.7 -149.35,80.1 757.39,8833.9 388.21,241.7 v -294.7 l -198,-224.5 -798.25,-8636.5" /><path
         id="path292"
         style="fill:#515254;fill-opacity:1;fill-rule:nonzero;stroke:none"
         d="m 3856.96,4891.7 258.41,-105.3 368.34,88.9 -261.93,77.2 -364.82,-60.8" /><path
         id="path294"
         style="fill:#9c9c9b;fill-opacity:1;fill-rule:nonzero;stroke:none"
         d="m 2581.77,15086.7 -165.4,-218.5 h -174.62 l 198,224.5 142.02,-6" /><path
         id="path296"
         style="fill:#434244;fill-opacity:1;fill-rule:nonzero;stroke:none"
         d="m 9378.44,6035.3 18.7,-215.2 226.85,-84.2 243.22,70.2 c 0,0 21.04,231.5 0,226.8 -21.05,-4.7 -292.33,88.9 -299.35,88.9 -7.01,0 -189.42,-86.5 -189.42,-86.5" /><path
         id="path298"
         style="fill:#515254;fill-opacity:1;fill-rule:nonzero;stroke:none"
         d="m 9378.44,6035.3 259.58,-106.4 229.19,104 -299.35,88.9 -189.42,-86.5" /><path
         id="path300"
         style="fill:#494a4b;fill-opacity:1;fill-rule:nonzero;stroke:none"
         d="m 3558.78,5199.2 c 0,0 59.64,-26.9 120.44,0 L 3183.44,15456 c 0,0 -49.9,28.1 -98.23,0 L 3558.78,5199.2" /><path
         id="path302"
         style="fill:#494a4b;fill-opacity:1;fill-rule:nonzero;stroke:none"
         d="m 8914.22,6271.5 c 0,0 60.8,-28.1 123.17,0 l -308.7,9020.8 c 0,0 -38.98,33.5 -102.12,0 l 287.65,-9020.8" /><path
         id="path304"
         style="fill:#9c9c9b;fill-opacity:1;fill-rule:nonzero;stroke:none"
         d="m 8783.17,13409.5 -6393.14,183.2 v -218.2 l 6393.14,-122.1 v 157.1" /><path
         id="path306"
         style="fill:#797a7b;fill-opacity:1;fill-rule:nonzero;stroke:none"
         d="m 3559.18,14440.7 c -1.1,68.4 -57.41,122.9 -125.76,121.8 l -380.63,-6.2 c -68.35,-1.1 -122.87,-57.4 -121.77,-125.7 l 24.85,-1539 c 1.11,-68.3 57.41,-122.8 125.76,-121.7 l 380.63,6.1 c 68.36,1.1 122.87,57.4 121.77,125.8 l -24.85,1538.9" /><path
         id="path308"
         style="fill:#1d1b1a;fill-opacity:1;fill-rule:nonzero;stroke:none"
         d="m 2623.99,14515.8 h -154.84 c 0,0 0.87,-13.4 0.57,-31.4 -272.64,-115.6 -477.69,-537.3 -482.61,-1042 -5.05,-517.5 202.05,-951.9 483.05,-1059.8 -12.38,-14.5 -22.05,-25.7 -22.05,-25.7 h 154.84 c 345.93,-3.4 631.07,477.2 636.88,1073.3 5.81,596.2 -269.91,1082.2 -615.84,1085.6" /><path
         id="path310"
         style="fill:#343434;fill-opacity:1;fill-rule:nonzero;stroke:none"
         d="m 3084.99,13430.2 c -5.81,-596.1 -290.95,-1076.7 -636.88,-1073.3 -345.93,3.3 -621.66,489.4 -615.84,1085.5 5.81,596.2 290.95,1076.8 636.88,1073.4 345.93,-3.4 621.65,-489.4 615.84,-1085.6" /><path
         id="path312"
         style="fill:#c37140;fill-opacity:1;fill-rule:nonzero;stroke:none"
         d="m 5329.9,8416.8 c 3.12,-9.4 53,-399.2 46.77,-424.1 -6.24,-25 -165.26,-377.3 -233.86,-711 -68.6,-333.6 100.32,-932.3 117.2,-1113.1 16.88,-180.9 23.11,-396 23.11,-396 h 49.9 c 0,0 24.94,187 71.71,218.2 46.78,31.2 218.27,18.7 218.27,18.7 0,0 -15.59,436.6 43.66,651.7 59.24,215.2 77.95,536.4 84.19,714.1 6.23,177.7 127.84,374.2 159.02,464.6 31.19,90.4 34.3,177.7 34.3,177.7 0,0 121.62,127.8 159.03,336.8 37.41,209 -233.86,227.6 -399.12,205.8 -165.27,-21.8 -374.18,-143.4 -374.18,-143.4" /><path
         id="path314"
         style="fill:#c37140;fill-opacity:1;fill-rule:nonzero;stroke:none"
         d="m 6415.02,8491.6 c 0,0 65.48,-199.6 102.9,-321.2 37.41,-121.6 127.84,-314.9 127.84,-314.9 0,0 -76.99,-251.3 -35.38,-504.5 41.62,-253.2 153.87,-331.2 185.05,-677.3 31.18,-346.1 34.3,-498.9 34.3,-498.9 0,0 127.85,18.7 155.91,65.5 28.06,46.8 46.77,140.3 56.12,162.1 9.36,21.9 90.43,53 90.43,53 0,0 -28.06,408.5 0,739 28.06,330.6 -46.77,745.3 -37.42,823.2 9.36,78 59.45,445.9 43.76,561.3 -15.69,115.4 -280.74,143.4 -389.87,109.1 -109.14,-34.3 -333.64,-196.4 -333.64,-196.4" /><path
         id="path316"
         style="fill:#797a7b;fill-opacity:1;fill-rule:nonzero;stroke:none"
         d="m 2628.01,13467.4 c 0,-175.7 -88.47,-318.1 -197.61,-318.1 -109.14,0 -197.61,142.4 -197.61,318.1 0,175.7 88.47,318 197.61,318 109.14,0 197.61,-142.3 197.61,-318" /><path
         id="path318"
         style="fill:#c37140;fill-opacity:1;fill-rule:nonzero;stroke:none"
         d="m 6621.08,13033.3 c 0,0 107.31,-26.6 216.45,-115.5 109.13,-88.9 185.53,-282.2 185.53,-282.2 0,0 141.87,127.9 191.76,182.4 49.89,54.6 171.5,224.5 171.5,224.5 l 218.27,-120 c 0,0 -205.8,-537.9 -273.62,-636.1 -67.81,-98.2 -327.4,-390.6 -388.21,-416.3 -60.8,-25.7 -135.64,-9.3 -156.68,0 -21.05,9.4 -165,1163.2 -165,1163.2" /><path
         id="path320"
         style="fill:#9c9c9b;fill-opacity:1;fill-rule:nonzero;stroke:none"
         d="m 2390.03,13592.7 -960.95,31.4 v -218.3 l 960.95,-31.3 c 37.88,0 68.6,48.8 68.6,109.1 0,60.3 -30.72,109.1 -68.6,109.1" /><path
         id="path322"
         style="fill:#bfbebc;fill-opacity:1;fill-rule:nonzero;stroke:none"
         d="m 1497.68,13514.9 c 0,-60.2 -30.71,-109.1 -68.6,-109.1 -37.89,0 -68.6,48.9 -68.6,109.1 0,60.3 30.71,109.2 68.6,109.2 37.89,0 68.6,-48.9 68.6,-109.2" /><path
         id="path324"
         style="fill:#252322;fill-opacity:1;fill-rule:nonzero;stroke:none"
         d="m 5642.49,10737.4 -166.04,-116.1 c 0,0 -219.83,-336.8 -233.86,-421 -14.03,-84.1 -70.16,-1842.8 -56.13,-1852.1 14.03,-9.4 594.01,-18.8 706.26,-42.1 112.26,-23.4 308.7,-40.6 308.7,-40.6 l 60.33,131.5 c 0,0 379.33,12 566.42,26 187.09,14 430.31,98.2 430.31,98.2 0,0 -108.75,894 -140.9,980.2 -32.16,86.2 -99.96,554 -122.19,610.1 -22.22,56.1 -22.22,182.4 -64.32,240.9 -42.09,58.4 -151.86,193 -151.86,193 l -1136.72,192" /><path
         id="path326"
         style="fill:#494a4b;fill-opacity:1;fill-rule:nonzero;stroke:none"
         d="m 3112.11,14393.5 c 0,-25.8 -20.94,-46.8 -46.78,-46.8 -25.83,0 -46.77,21 -46.77,46.8 0,25.8 20.94,46.8 46.77,46.8 25.84,0 46.78,-21 46.78,-46.8" /><path
         id="path328"
         style="fill:#494a4b;fill-opacity:1;fill-rule:nonzero;stroke:none"
         d="m 3503.61,14393.5 c 0,-25.8 -20.95,-46.8 -46.78,-46.8 -25.83,0 -46.77,21 -46.77,46.8 0,25.8 20.94,46.8 46.77,46.8 25.83,0 46.78,-21 46.78,-46.8" /><path
         id="path330"
         style="fill:#494a4b;fill-opacity:1;fill-rule:nonzero;stroke:none"
         d="m 3503.61,12964.6 c 0,-25.8 -20.95,-46.8 -46.78,-46.8 -25.83,0 -46.77,21 -46.77,46.8 0,25.8 20.94,46.8 46.77,46.8 25.83,0 46.78,-21 46.78,-46.8" /><path
         id="path332"
         style="fill:#9d4a30;fill-opacity:1;fill-rule:nonzero;stroke:none"
         d="m 6985.31,12417.3 c -2.18,13.8 37.75,218.3 37.75,218.3 l -27.67,61.3 -10.08,-279.6" /><path
         id="path334"
         style="fill:#494a4b;fill-opacity:1;fill-rule:nonzero;stroke:none"
         d="m 8577.63,14166 -159.2,-102.8 c 0,0 -8.76,-56.9 41.61,-106.1 50.38,-49.3 237.86,-27.4 237.86,-27.4 l -120.27,236.3" /><path
         id="path336"
         style="fill:#494a4b;fill-opacity:1;fill-rule:nonzero;stroke:none"
         d="m 8602.81,13044.1 c 0,0 -118.9,-77.9 -129.81,-113.8 -10.91,-35.9 26.5,-123.2 40.54,-137.2 14.03,-14 138.75,-31.2 138.75,-31.2 l -49.48,282.2" /><path
         id="path338"
         style="fill:#e9eef1;fill-opacity:1;fill-rule:nonzero;stroke:none"
         d="m 5883.37,13179.7 c -28.06,14.1 -151.23,62.4 -151.23,62.4 l -122.39,-62.4 -292.33,-1019.6 -177.73,-210.5 c 0,0 247.89,-528.5 261.92,-561.2 14.04,-32.8 98.23,-463.1 88.87,-561.3 -9.35,-98.2 -23.38,-187.1 -14.03,-205.8 9.36,-18.7 236.2,-35.1 406.92,-84.2 170.72,-49.1 589.33,-67.8 689.89,-63.1 100.56,4.6 202.72,50.1 205.95,71.4 3.24,21.2 -16.22,581 0,705.8 16.22,124.7 50.52,567.6 62.99,606.5 12.48,38.9 146.56,297.7 152.79,428.7 6.24,131 -62.36,383.5 -87.3,430.3 -24.95,46.8 -312.26,367.5 -449.02,452.1 -136.77,84.7 -575.3,10.9 -575.3,10.9" /><path
         id="path340"
         style="fill:#c37140;fill-opacity:1;fill-rule:nonzero;stroke:none"
         d="m 5949.78,13657.7 c 0,0 16.22,-241 -16.52,-287.8 -32.74,-46.7 -201.12,-127.8 -201.12,-127.8 0,0 146.55,-257.2 280.63,-478.6 134.08,-221.4 346.12,-349.3 533.21,-346.1 187.09,3.1 209.69,217.4 174.62,360.1 -35.08,142.7 -182.42,261.9 -184.76,278.3 -2.33,16.4 -13.25,144.2 -13.25,144.2 0,0 -122.39,276.8 -239.32,304.8 -116.93,28.1 -152.01,287.7 -196.44,290 -44.43,2.3 -104.1,25.2 -121.61,0 -17.51,-25.2 -15.44,-137.1 -15.44,-137.1" /><path
         id="path342"
         style="fill:#100f0d;fill-opacity:1;fill-rule:nonzero;stroke:none"
         d="m 6374.48,9129.3 c 0,14 233.28,289.3 233.28,289.3 0,0 -167.8,-364.2 -200.54,-453 -32.74,-88.9 -63.15,-565.8 -63.15,-565.8 l -82.32,-2.8 c 0,0 12.17,402.5 21.52,446.9 9.36,44.5 91.21,285.4 91.21,285.4" /><path
         id="path344"
         style="fill:#9d4a30;fill-opacity:1;fill-rule:nonzero;stroke:none"
         d="m 5906.76,8170.4 c 0,0 -53.01,-106 -155.91,-134.1 0,0 159.02,-34.3 155.91,134.1" /><path
         id="path346"
         style="fill:#9d4a30;fill-opacity:1;fill-rule:nonzero;stroke:none"
         d="m 7019.94,8317 c 0,0 -21.83,-112.3 -127.85,-174.6 0,0 162.15,-9.4 127.85,174.6" /><path
         id="path348"
         style="fill:#f0f0ef;fill-opacity:1;fill-rule:nonzero;stroke:none"
         d="m 5622.99,6268.5 c -117.19,-6 -267.36,-13.9 -374.65,-19.8 5.57,-31.7 9.68,-58.9 11.67,-80.1 16.88,-180.9 23.12,-396 23.12,-396 h 49.89 c 0,0 24.94,187 71.71,218.2 46.78,31.2 218.27,18.7 218.27,18.7 0,0 -4.16,116.6 -0.01,259" /><path
         id="path350"
         style="fill:#f0f0ef;fill-opacity:1;fill-rule:nonzero;stroke:none"
         d="m 6804.19,6573 c 23.01,-275.2 25.54,-398.2 25.54,-398.2 0,0 127.85,18.7 155.91,65.5 28.06,46.8 46.77,140.3 56.12,162.1 9.36,21.9 90.43,53 90.43,53 0,0 -4.1,59.7 -7.59,151.9 L 6804.19,6573" /><path
         id="path352"
         style="fill:#c37140;fill-opacity:1;fill-rule:nonzero;stroke:none"
         d="m 5649.34,13199.9 c 0,0 149.84,-427.1 98.39,-752.1 -51.45,-325.1 -238.54,-453.7 -329.75,-484.1 -91.2,-30.4 -278.29,-14.1 -278.29,-14.1 l -53.79,81.9 c 0,0 -479.42,-375 -616.61,-406.2 -137.2,-31.1 -321.17,-46.7 -349.24,49.9 -28.06,96.7 -74.83,623.7 -40.54,773.3 34.31,149.7 112.26,277.6 162.15,469.3 49.89,191.8 49.89,191.8 49.89,191.8 l 349.23,-34.3 c 0,0 -53,-199.6 -65.48,-339.9 -12.47,-140.3 18.71,-258.8 18.71,-258.8 l 190.21,127.8 c 0,0 -12.47,249.5 208.92,407 221.39,157.4 505.14,123.1 505.14,123.1 l 151.06,65.4" /><path
         id="path354"
         style="fill:#9d4a30;fill-opacity:1;fill-rule:nonzero;stroke:none"
         d="m 5111.63,12663.7 c 0,0 140.31,-208.9 230.74,-336.8 90.43,-127.8 159.02,-202.7 159.02,-202.7 l -227.62,131 c 0,0 -110.26,-172.2 -150.23,-281 l -37.64,57.3 c 0,0 150.45,261.1 159.81,311 9.35,49.9 -134.08,321.2 -134.08,321.2" /><path
         id="path356"
         style="fill:#9d4a30;fill-opacity:1;fill-rule:nonzero;stroke:none"
         d="m 4594.01,12476.6 c 0,0 45.22,-171.5 26.51,-372.6 0,0 79.27,113.9 20.85,404.4 l -47.36,-31.8" /><path
         id="path358"
         style="fill:#9d4a30;fill-opacity:1;fill-rule:nonzero;stroke:none"
         d="m 5085.9,12236.5 c 0,0 -33.52,-78 -127.06,-132.5 0,0 135.64,-14.1 127.06,132.5" /><path
         id="path360"
         style="fill:#c37140;fill-opacity:1;fill-rule:nonzero;stroke:none"
         d="m 4640.78,13075.3 c 0,0 51.45,51.4 123.17,87.3 71.72,35.8 155.88,163.6 155.88,163.6 l -699.98,13.3 c 0,0 18.69,-81.8 29.61,-105.2 10.91,-23.4 42.09,-124.7 42.09,-124.7 0,0 82.63,-96.7 121.61,-98.2 38.98,-1.6 227.62,63.9 227.62,63.9" /><path
         id="path362"
         style="fill:#c37140;fill-opacity:1;fill-rule:nonzero;stroke:none"
         d="m 4235.71,13539.9 c 0,0 59.74,58.5 90.14,69 30.4,10.5 72.5,-8.2 72.5,-8.2 0,0 51.45,4.7 70.16,5.8 18.7,1.2 50.28,-13.8 50.28,-13.8 0,0 73.66,12.7 92.37,5.7 18.71,-7.1 35.08,-17.6 35.08,-17.6 0,0 39.76,3.2 57.3,-4.8 17.54,-8.1 51.45,-57.2 53.78,-70 2.34,-12.9 4.68,-101.7 0,-113.4 -4.67,-11.7 -22.21,-12.9 -22.21,-12.9 0,0 -11.69,-16.4 -28.06,-22.2 -16.38,-5.9 -39.76,0 -39.76,0 0,0 -28.06,-20.7 -31.57,-18 -3.51,2.8 -27.97,-7.4 -53.71,-6.9 -25.74,0.5 -99.47,140.6 -127.54,168.7 -28.06,28.1 -43.24,33.5 -43.24,33.5 l -175.52,5.1" /><path
         id="path364"
         style="fill:#9d4a30;fill-opacity:1;fill-rule:nonzero;stroke:none"
         d="m 4533.99,13567.9 c -7.51,9 84.19,-200.7 88.86,-228.4 h 12.87 l 12.96,5.4 c 0,0 -66.75,165.8 -114.69,223" /><path
         id="path366"
         style="fill:#9d4a30;fill-opacity:1;fill-rule:nonzero;stroke:none"
         d="m 4608.82,13556.3 c 0,0 54.96,-135.7 58.47,-198.8 l 16.45,-2.4 c 0,0 -18.79,121.7 -74.92,201.2" /><path
         id="path368"
         style="fill:#9d4a30;fill-opacity:1;fill-rule:nonzero;stroke:none"
         d="m 4674.3,13549.2 c 0,0 50.28,-99.3 60.81,-169.5 l -11.28,-12 -49.53,181.5" /><path
         id="path370"
         style="fill:#c37140;fill-opacity:1;fill-rule:nonzero;stroke:none"
         d="m 7386.32,13042.5 -9.9,40.1 c 0,0 -150.68,41 -175.63,66 -24.94,24.9 -109.16,136.1 -109.16,136.1 l 450.55,-8.6 c 0,0 3.17,-51.2 9.4,-63.6 6.24,-12.5 71.72,-62.4 81.08,-129.4 9.35,-67.1 -28.07,-160.6 -28.07,-160.6 0,0 -98.22,-35.9 -138.75,6.2 -40.54,42.1 -79.52,113.8 -79.52,113.8" /><path
         id="path372"
         style="fill:#c37140;fill-opacity:1;fill-rule:nonzero;stroke:none"
         d="m 7177.82,13455.5 c 0,0 65.46,36.4 77.15,38.8 11.69,2.3 43.26,-5.9 43.26,-5.9 0,0 64.32,5.9 81.86,1.2 17.53,-4.7 29.38,-18.7 29.38,-18.7 0,0 43.14,-6.5 59.48,-15.4 16.35,-8.8 24.46,-9 24.46,-9 l 34.05,-1 c 0,0 5.81,-69.3 -8.23,-88 -14.03,-18.7 -25.72,-15.2 -25.72,-15.2 0,0 -14.03,-9.4 -35.08,-9.4 -21.05,0 -48.96,17.6 -48.96,17.6 0,0 -36.31,-5.9 -56.23,7 -19.93,12.8 -36.3,49.1 -36.3,49.1 0,0 -39.75,4.5 -52.62,6.9 -12.86,2.4 -33.82,40.5 -33.82,40.5 l -52.68,1.5" /><path
         id="path374"
         style="fill:#9d4a30;fill-opacity:1;fill-rule:nonzero;stroke:none"
         d="m 7305.25,13461.2 c 0.78,-2.4 11.69,-54.6 11.69,-54.6 l -21.21,2.5 9.52,52.1" /><path
         id="path376"
         style="fill:#9d4a30;fill-opacity:1;fill-rule:nonzero;stroke:none"
         d="m 7400.35,13454.9 9.12,-104.4 -17.69,-1.3 z" /><path
         id="path378"
         style="fill:#9d4a30;fill-opacity:1;fill-rule:nonzero;stroke:none"
         d="m 7474.41,13426.9 19.1,-84.6 -15.95,-6.7 z" /><path
         id="path380"
         style="fill:#797a7b;fill-opacity:1;fill-rule:nonzero;stroke:none"
         d="m 8981.55,14175 c -0.8,35.4 -30.13,63.5 -65.52,62.7 l -275.76,-6.2 c -35.38,-0.8 -63.43,-30.1 -62.64,-65.5 l 30.88,-1375.8 c 0.79,-35.3 30.13,-63.4 65.52,-62.6 l 275.75,6.2 c 35.39,0.8 63.44,30.1 62.64,65.5 l -30.87,1375.7" /><path
         id="path382"
         style="fill:#494a4b;fill-opacity:1;fill-rule:nonzero;stroke:none"
         d="m 8697.9,14063.2 c 0,-19.7 -15.97,-35.7 -35.67,-35.7 -19.69,0 -35.66,16 -35.66,35.7 0,19.7 15.97,35.6 35.66,35.6 19.7,0 35.67,-15.9 35.67,-35.6" /><path
         id="path384"
         style="fill:#494a4b;fill-opacity:1;fill-rule:nonzero;stroke:none"
         d="m 8945.06,14063.2 c 0,-19.7 -15.96,-35.7 -35.66,-35.7 -19.7,0 -35.67,16 -35.67,35.7 0,19.7 15.97,35.6 35.67,35.6 19.7,0 35.66,-15.9 35.66,-35.6" /><path
         id="path386"
         style="fill:#494a4b;fill-opacity:1;fill-rule:nonzero;stroke:none"
         d="m 8733.56,12864 c 0,-19.7 -15.97,-35.6 -35.66,-35.6 -19.7,0 -35.67,15.9 -35.67,35.6 0,19.7 15.97,35.7 35.67,35.7 19.69,0 35.66,-16 35.66,-35.7" /><path
         id="path388"
         style="fill:#494a4b;fill-opacity:1;fill-rule:nonzero;stroke:none"
         d="m 8980.73,12864 c 0,-19.7 -15.97,-35.6 -35.67,-35.6 -19.69,0 -35.66,15.9 -35.66,35.6 0,19.7 15.97,35.7 35.66,35.7 19.7,0 35.67,-16 35.67,-35.7" /><path
         id="path390"
         style="fill:#9d4a30;fill-opacity:1;fill-rule:nonzero;stroke:none"
         d="m 6028.49,13719.2 c 0,0 6.67,-174.6 40.69,-261.9 34.02,-87.4 219.55,-201.2 322.45,-230.8 102.9,-29.6 130.96,-26.5 130.96,-26.5 l 38.98,213.5 -533.08,305.7" /><path
         id="path392"
         style="fill:#2f1d16;fill-opacity:1;fill-rule:nonzero;stroke:none"
         d="m 6701.88,14618.5 c -157.59,98.5 -328.75,88.5 -419.48,70.3 -90.73,-18.2 -238.58,-66 -238.59,-66 -38.34,-13.4 -77.41,-28.9 -101.42,-53 -38.4,-38.6 -46.55,-77.2 -46.55,-77.2 0,0 -129.88,-16.1 -150.05,-193.5 -20.16,-177.4 19.9,-321.9 55.22,-422.9 35.32,-100.9 148.77,-218.5 148.77,-218.5 l 197.89,155.2 c 116.57,-57.6 193.93,300.5 180.1,331 -8.78,19.3 358.61,87.5 358.61,87.5 l 86.52,39.4 c 0,0 44.39,111.5 -0.62,236.5 -14.13,39.2 -40.66,77.3 -70.4,111.2" /><path
         id="path394"
         style="fill:#c37140;fill-opacity:1;fill-rule:nonzero;stroke:none"
         d="m 6728.04,14336.7 c 0,0 36.56,-47.4 44.86,-65.9 8.29,-18.5 14.92,-186.9 17.78,-229.5 2.86,-42.7 -7.99,-100.4 -7.94,-121.1 0.06,-20.6 3.13,-147.1 -2.24,-196.6 -5.37,-49.5 -59.87,-242.1 -77.61,-293 -17.73,-50.9 -43.68,-118.4 -68.4,-132.2 -24.71,-13.8 -133.31,-19.6 -229.62,9 -96.32,28.7 -285.01,156 -336.05,223.3 -51.05,67.2 -44.54,207.5 -44.54,207.5 0,0 -39.84,-11.1 -81.2,30 -41.35,41.1 -107.57,130.3 -94.08,229.4 13.49,99 89.2,63.4 127.8,23.7 38.6,-39.8 40.13,-100.3 48.39,-101.6 8.25,-1.4 16.49,1.4 20.61,2.7 4.13,1.4 23.11,103.2 24.43,123.9 1.32,20.6 -3.12,144.3 -0.38,148.4 2.73,4.2 104.84,128.2 137.81,140.6 32.96,12.5 520.38,1.4 520.38,1.4" /><path
         id="path396"
         style="fill:#2f1d16;fill-opacity:1;fill-rule:nonzero;stroke:none"
         d="m 6052.98,13947.4 c 0,0 13.14,65.3 33.62,104 20.49,38.8 7.18,62.2 12.77,105 5.59,42.8 63.62,54.3 75.72,109.8 12.1,55.5 62.69,72.7 62.69,72.7 0,0 -51.05,46.1 -57.2,41.6 -6.16,-4.5 -120.96,-45.7 -154.27,-90.7 -33.31,-45.1 -70.61,-37.3 -53.32,-113.5 17.29,-76.2 79.99,-228.9 79.99,-228.9" /><path
         id="path398"
         style="fill:#2f1d16;fill-opacity:1;fill-rule:nonzero;stroke:none"
         d="m 5851.08,14461.7 c 0,0 52.57,99.5 97.63,129 45.07,29.6 114.95,73.2 114.95,73.2 0,0 66.66,40.9 107.77,42.5 41.11,1.7 82.53,-2.3 82.53,-2.3 0,0 51.04,37.8 111.59,29.5 60.55,-8.3 75.4,-21.5 87.65,-24 12.26,-2.5 55.13,19 110.13,3.9 55,-15.1 74.18,-46.2 84.49,-49 10.31,-2.9 59.87,-10.8 85.55,-31.8 25.67,-20.9 42.87,-33.8 45.56,-65.2 2.69,-31.3 34.94,-47.8 48.65,-78.6 13.71,-30.9 -4.55,-48.1 -10.54,-83.4 -6,-35.3 -13.67,-81.3 -44.14,-134.7 0,0 -14.99,107.8 -18.12,109.9 -3.12,2.1 -244.87,82 -244.87,82 0,0 -474.08,-37.2 -484.96,-38.7 -10.89,-1.5 -173.87,37.7 -173.87,37.7" /></g></g></svg>