<?xml version="1.0" encoding="UTF-8" standalone="no"?>
<svg
   xmlns:dc="http://purl.org/dc/elements/1.1/"
   xmlns:cc="http://creativecommons.org/ns#"
   xmlns:rdf="http://www.w3.org/1999/02/22-rdf-syntax-ns#"
   xmlns:svg="http://www.w3.org/2000/svg"
   xmlns="http://www.w3.org/2000/svg"
   viewBox="0 0 2666.6667 2666.6667"
   height="2666.6667"
   width="2666.6667"
   xml:space="preserve"
   id="svg2"
   version="1.1"><metadata
     id="metadata8"><rdf:RDF><cc:Work
         rdf:about=""><dc:format>image/svg+xml</dc:format><dc:type
           rdf:resource="http://purl.org/dc/dcmitype/StillImage" /></cc:Work></rdf:RDF></metadata><defs
     id="defs6" /><g
     transform="matrix(1.3333333,0,0,-1.3333333,0,2666.6667)"
     id="g10"><g
       transform="scale(0.1)"
       id="g12"><g
         transform="scale(1.22699)"
         id="g14"><path
           id="path16"
           style="fill:none;fill-opacity:1;fill-rule:nonzero;stroke:none"
           d="M 16300,0 H 0 V 16300 H 16300 V 0" /></g><path
         id="path18"
         style="fill:#3970c0;fill-opacity:1;fill-rule:nonzero;stroke:none"
         d="m 3934.68,4041.8 c 0,0 -97.82,-220.1 -97.82,-423.9 0,-203.8 -65.22,-538 0,-603.2 65.22,-65.3 105.98,16.3 423.91,-106 317.94,-122.3 913.05,-138.6 1092.4,-106 179.35,32.6 203.81,309.8 179.35,375 -24.45,65.2 -396.74,432.1 -508.15,521.7 -111.42,89.7 -445.66,399.5 -445.66,399.5 0,0 -195.65,269 -309.78,228.3 -114.14,-40.8 -334.25,-285.4 -334.25,-285.4" /><path
         id="path20"
         style="fill:#3970c0;fill-opacity:1;fill-rule:nonzero;stroke:none"
         d="m 5410.24,4343.5 c 0,0 -145.47,-57.1 -121.65,-187.5 23.82,-130.5 46.28,-758.2 59.51,-815.2 13.22,-57.1 550.99,-8.2 889.45,-65.3 338.46,-57 1121.07,-8.1 1202.6,138.6 81.52,146.8 -73.37,309.8 -301.64,423.9 -228.26,114.2 -269.02,106 -464.67,244.6 -195.66,138.6 -456.53,358.7 -529.9,391.3 -73.37,32.6 -269.02,138.6 -350.55,106 -81.52,-32.6 -383.15,-236.4 -383.15,-236.4" /><path
         id="path22"
         style="fill:#fbc398;fill-opacity:1;fill-rule:nonzero;stroke:none"
         d="m 4944.13,8232.1 c 0,0 115.56,-790.8 221.55,-1084.3 105.97,-293.4 105.97,-644 81.51,-888.6 -24.45,-244.5 73.38,-717.3 122.29,-978.2 48.91,-260.9 40.76,-937.5 40.76,-937.5 0,0 222.83,-154.9 347.82,-138.6 125,16.3 385.88,269 385.88,269 0,0 65.22,1013 89.67,1676.3 24.46,663.4 -73.37,1062.9 -65.21,1568.3 8.15,505.4 16.3,627.7 16.3,627.7 0,0 -790.76,65.2 -815.22,57.1 -24.46,-8.2 -425.35,-171.2 -425.35,-171.2" /><path
         id="path24"
         style="fill:#eabb9b;fill-opacity:1;fill-rule:nonzero;stroke:none"
         d="m 5257.75,6641.7 c -7.89,168 -34.11,345.6 -92.08,506.1 -105.98,293.5 -221.54,1084.3 -221.54,1084.3 v 0 c 0,0 115.56,-790.8 221.55,-1084.3 57.93,-160.4 84.19,-337.9 92.1,-505.8 -0.02,-0.2 -0.03,-0.3 -0.03,-0.3 m -313.62,1590.4 v 0 0 m 0.01,0 h 0.01 -0.01 m 0.06,0 c 0,0 0,0 0.01,0 -0.01,0 -0.01,0 -0.01,0 m 230.74,93.6 c 3.17,1.3 6.34,2.5 9.5,3.8 v 0 c -3.16,-1.3 -6.33,-2.5 -9.5,-3.8" /><path
         id="path26"
         style="fill:#eaa778;fill-opacity:1;fill-rule:nonzero;stroke:none"
         d="m 5257.78,6642 c -7.91,167.9 -34.17,345.4 -92.1,505.8 -105.99,293.5 -221.55,1084.3 -221.55,1084.3 v 0 0 c 0.01,0 0.01,0 0.01,0 h 0.01 c 0.01,0 0.03,0 0.05,0 0,0 0,0 0.01,0 3.4,1.4 120.23,48.9 230.73,93.6 3.17,1.3 6.34,2.5 9.5,3.8 14.49,-162.2 30.14,-271.3 30.14,-271.3 0,0 -32.6,-307.1 40.77,-600.6 72.47,-289.8 4.12,-803.1 2.43,-815.6" /><path
         id="path28"
         style="fill:#fbc398;fill-opacity:1;fill-rule:nonzero;stroke:none"
         d="m 3787.94,8094.8 c 0,0 138.59,-881.7 97.83,-1158.9 -40.76,-277.2 -244.56,-872.3 -187.5,-1279.9 57.07,-407.6 169.9,-790.8 195.01,-1108.7 25.1,-318 41.4,-505.5 41.4,-505.5 L 4081.43,3838 c 0,0 130.43,171.2 260.86,203.8 130.44,32.7 236.42,57.1 236.42,57.1 0,0 -40.76,538.1 32.61,1035.3 73.37,497.3 48.91,1288.1 48.91,1288.1 0,0 122.28,211.9 195.66,513.6 73.37,301.6 168.48,991.8 168.48,991.8 0,0 -592.4,573.4 -739.14,532.7 -146.74,-40.8 -497.29,-365.6 -497.29,-365.6" /><path
         id="path30"
         style="fill:#252323;fill-opacity:1;fill-rule:nonzero;stroke:none"
         d="m 3877.62,11183.2 c 0,0 -342.4,-513.6 -334.24,-986.4 8.15,-472.9 73.37,-766.3 89.67,-1198.4 16.31,-432.1 24.46,-904.9 24.46,-904.9 0,0 519.02,13.6 834.24,-46.2 315.22,-59.8 532.62,-119.6 532.62,-119.6 l 38.04,130.5 c 0,0 326.09,-38.1 728.27,-10.9 402.17,27.2 554.35,152.2 554.35,152.2 0,0 -146.74,635.9 -135.87,798.9 10.87,163 -190.22,1152.2 -217.39,1293.5 -27.18,141.3 -152.18,331.5 -173.92,391.3 -21.74,59.8 -10.87,125 -81.52,206.5 -70.66,81.5 -853.27,260.9 -853.27,260.9 l -1005.44,32.6" /><path
         id="path32"
         style="fill:#fbc398;fill-opacity:1;fill-rule:nonzero;stroke:none"
         d="m 5764.9,15000.3 c 0,0 27.59,56.1 69.25,74.2 41.67,18.2 140.53,29 179.87,32.6 39.34,3.7 246.46,8.2 292.97,-14.1 46.5,-22.3 76.63,-71.6 76.63,-71.6 0,0 -14.7,-132.5 -228.64,-170.1 -213.94,-37.6 -258.83,-70.3 -304.52,-37.6 -45.69,32.6 -85.56,186.6 -85.56,186.6" /><path
         id="path34"
         style="fill:#fbc398;fill-opacity:1;fill-rule:nonzero;stroke:none"
         d="m 6227.26,15034.9 c 0,0 101.46,39.6 166.68,39.6 65.22,0 105.07,-90.5 115.94,-152.1 10.88,-61.6 54.35,-264.6 68.85,-317.1 14.49,-52.5 57.97,-168.4 57.97,-248.2 0,-79.7 -43.48,-271.7 -39.86,-289.8 3.62,-18.1 318.84,-629.9 356.89,-746.1 38.04,-116.3 266.3,-344.5 315.22,-708.6 48.91,-364.2 -43.48,-668.5 -304.35,-728.3 -260.87,-59.8 -629.35,506.4 -760.88,712 -131.53,205.5 -369.57,728.3 -369.57,728.3 0,0 165.77,1208.3 191.58,1231.8 25.82,23.6 201.53,478.5 201.53,478.5" /><path
         id="path36"
         style="fill:#3970c0;fill-opacity:1;fill-rule:nonzero;stroke:none"
         d="m 4380.81,15644.4 c 0,0 34.85,-341.6 23.98,-490.2 -10.87,-148.5 -266.3,-278 -461.95,-449.2 -195.66,-171.2 -432.07,-399.5 -464.68,-823.4 -32.61,-423.9 211.95,-1198.4 293.48,-1508.2 81.53,-309.8 187.5,-815.2 105.98,-1190.2 0,0 472.83,-293.5 953.81,-350.5 480.98,-57.1 904.9,57 904.9,57 0,0 32.6,489.2 89.67,652.2 57.06,163 179.35,774.5 236.42,1157.6 57.06,383.2 -89.67,1532.6 -89.67,1532.6 l -619.57,619.6 -40.77,692.9 -741.86,570.7 c 0,0 -334.23,-40.8 -326.08,-81.5 8.15,-40.8 136.34,-389.4 136.34,-389.4" /><path
         id="path38"
         style="fill:#ecb088;fill-opacity:1;fill-rule:nonzero;stroke:none"
         d="m 4404.79,15154.2 c -5.64,-77.1 -77.28,-149.1 -172.18,-224.5 0,0 388.91,-257.3 542.78,-444.8 153.87,-187.5 259.84,-464.7 300.6,-513.6 40.77,-48.9 358.71,-122.3 440.23,-65.3 81.52,57.1 0,782.7 0,782.7 l -163.04,163 -40.77,692.9 -741.85,570.7 c 0,0 -334.24,-40.8 -326.09,-81.5 8.15,-40.8 136.34,-389.4 136.34,-389.4 0,0 34.85,-341.6 23.98,-490.2" /><path
         id="path40"
         style="fill:#df9866;fill-opacity:1;fill-rule:nonzero;stroke:none"
         d="m 6143.94,13797.4 c 0,-27.2 228.26,-618.7 228.26,-618.7 l -146.74,-39 c 0,0 -54.35,-47 -81.52,39 -27.17,86 -54.35,14.2 -43.48,142.5 10.87,128.3 43.48,476.2 43.48,476.2" /><path
         id="path42"
         style="fill:#df9866;fill-opacity:1;fill-rule:nonzero;stroke:none"
         d="m 6502.64,12781 c 21.74,-27.1 141.31,-293.4 271.74,-461.9 0,0 -255.43,130.4 -331.52,260.8 -76.09,130.5 59.78,201.1 59.78,201.1" /><path
         id="path44"
         style="fill:#df9866;fill-opacity:1;fill-rule:nonzero;stroke:none"
         d="m 4673.71,15814 c 0,0 133.26,-525.7 183.99,-565.6 50.72,-39.8 481.28,-155.4 481.28,-155.4 l -26.57,451.6 -638.7,269.4" /><path
         id="path46"
         style="fill:#929292;fill-opacity:1;fill-rule:nonzero;stroke:none"
         d="m 5884.1,13178.7 h 259.84 v 1151.23 H 5884.1 Z" /><path
         id="path48"
         style="fill:#ccccc9;fill-opacity:1;fill-rule:nonzero;stroke:none"
         d="m 5568.28,13260.3 866.62,50.9 c 91.04,5.4 169.18,-64.1 174.53,-155.1 l 28.92,-492.3 c 5.35,-91 -64.12,-169.2 -155.16,-174.5 l -866.62,-50.9 c -91.05,-5.4 -169.19,64.1 -174.53,155.1 l -28.92,492.3 c -5.35,91 64.11,169.2 155.16,174.5" /><g
         transform="scale(1.05731)"
         id="g50"><path
           id="path52"
           style="fill:#252323;fill-opacity:1;fill-rule:nonzero;stroke:none"
           d="m 4329.45,15121.1 c -0.04,-11.9 -49.91,-34.6 -49.91,-34.6 0,0 -19.22,-88.5 -35.89,-112.2 -16.67,-23.6 -100.33,-185 -100.31,-177.9 0.02,7.1 -207.37,370.9 -228.44,463.4 -21.07,92.6 -62.91,375.7 20.66,569.5 83.57,193.8 306.98,366.2 473.07,403.7 166.1,37.4 279.9,29.9 429.34,48.5 149.45,18.5 262.98,-74.3 364.86,-105.4 101.87,-31.2 194.25,-59.9 236.58,-181 42.32,-121 -32.24,-232.3 -32.24,-232.3 l -584.02,-744.3 c 0,0 -253.23,-100.5 -272.11,-68.8 -18.87,31.7 -221.59,171.4 -221.59,171.4" /></g><g
         transform="scale(1.02729)"
         id="g54"><path
           id="path56"
           style="fill:#ecb088;fill-opacity:1;fill-rule:nonzero;stroke:none"
           d="m 4681.94,15777.1 c 0,0 -152.62,107.8 -250.26,101.6 -97.64,-6.2 -85.09,-162.5 -65.84,-256.9 19.24,-94.4 90.63,-166.2 129.61,-185.9 38.99,-19.6 54.09,-42 54.09,-42 0,0 136.71,-355.5 221.04,-450.1 84.32,-94.7 693.46,-152.6 725.25,-133.2 31.79,19.5 77.06,470.8 77.06,470.8 0,0 139.16,16.7 153.87,38.6 14.7,21.9 -135.76,307.9 -123.4,361.6 12.36,53.6 24.51,36.5 34.54,126.8 10.04,90.2 -74.37,429.7 -79.24,437.1 -4.85,7.3 -285.37,54.5 -402.56,40.2 -117.18,-14.3 -96.25,-182.7 -114.49,-248.6 -18.24,-65.8 -155.2,-167.9 -169.99,-216.7 -14.79,-48.7 -24.97,-192.7 -44.53,-202.4 -19.56,-9.7 -65.9,-2.3 -65.9,-2.3 l -79.25,161.4" /></g><path
         id="path58"
         style="fill:#ccccc9;fill-opacity:1;fill-rule:nonzero;stroke:none"
         d="m 5429.75,14994.5 867,43.9 c 91.09,4.7 168.66,-65.4 173.29,-156.5 l 24.96,-492.5 c 4.63,-91.1 -65.47,-168.7 -156.55,-173.3 l -867,-43.9 c -91.08,-4.7 -168.67,65.4 -173.28,156.5 l -24.98,492.5 c -4.61,91.1 65.48,168.7 156.56,173.3" /><path
         id="path60"
         style="fill:#467ab8;fill-opacity:1;fill-rule:nonzero;stroke:none"
         d="m 5752.06,12446.3 v 0 l 184.13,10.8 v 0 l -184.13,-10.8" /><path
         id="path62"
         style="fill:#bdbcba;fill-opacity:1;fill-rule:nonzero;stroke:none"
         d="m 5752.06,12446.3 c 9.08,31.7 19.68,65.4 33.18,101 65.14,172.2 110.37,420 128.85,733.3 l 182.92,10.8 c -13.81,-115.9 -68.99,-544.7 -160.82,-834.3 l -184.13,-10.8" /><path
         id="path64"
         style="fill:#467ab8;fill-opacity:1;fill-rule:nonzero;stroke:none"
         d="m 5552.08,14176.3 v 0 l 332.02,16.8 v 0 l -332.02,-16.8" /><path
         id="path66"
         style="fill:#d5a98b;fill-opacity:1;fill-rule:nonzero;stroke:none"
         d="m 5457.06,14171.6 c -84.07,0.1 -154.28,66 -158.58,150.9 l -12.8,252.5 12.49,-246.3 c 4.47,-88.2 77.41,-156.8 164.77,-156.8 2.82,0 5.66,0.1 8.51,0.3 l 80.63,4.1 v 0 l -86.83,-4.4 c -2.75,-0.2 -5.47,-0.3 -8.19,-0.3" /><path
         id="path68"
         style="fill:#e7e7e6;fill-opacity:1;fill-rule:nonzero;stroke:none"
         d="m 5346.4,14966.9 -0.16,2.6 c 22.45,14.4 48.82,23.2 77.32,24.7 l 347.77,17.6 c 0,0 0,0 -0.01,0 l -341.57,-17.3 c -30.9,-1.6 -59.38,-11.6 -83.35,-27.6" /><path
         id="path70"
         style="fill:#e1b796;fill-opacity:1;fill-rule:nonzero;stroke:none"
         d="m 5771.32,15011.8 c 0.01,0 0.01,0 0.01,0 l 199.78,10.1 v 0 l -199.79,-10.1" /><path
         id="path72"
         style="fill:#d5a98b;fill-opacity:1;fill-rule:nonzero;stroke:none"
         d="m 5273.14,14822.3 -0.26,5.1 c -3,59.2 26.75,112.4 73.36,142.1 l 0.16,-2.6 c -46.4,-31 -75.89,-84.8 -73.26,-144.6" /><path
         id="path74"
         style="fill:#929292;fill-opacity:1;fill-rule:nonzero;stroke:none"
         d="m 5884.1,14193.1 v 0 l 251.04,12.7 v 0 l -251.04,-12.7" /><path
         id="path76"
         style="fill:#bdbcba;fill-opacity:1;fill-rule:nonzero;stroke:none"
         d="m 5462.94,14171.9 c -87.36,0 -160.3,68.6 -164.77,156.8 l -12.49,246.3 -12.54,247.3 c -2.63,59.8 26.86,113.6 73.26,144.6 v 0 c 23.97,16 52.45,26 83.35,27.6 l 341.57,17.3 199.79,10.1 c 18.81,-124 36.77,-266.7 42.91,-335 9.77,-108.8 93.55,-297 121.12,-481.1 l -251.04,-12.7 -332.02,-16.8 -80.63,-4.1 c -2.85,-0.2 -5.69,-0.3 -8.51,-0.3" /><path
         id="path78"
         style="fill:#fbc398;fill-opacity:1;fill-rule:nonzero;stroke:none"
         d="m 3699.6,14457.5 c 0,0 -237.86,-235.6 -221.44,-575.9 16.42,-340.3 16.3,-709.3 260.87,-839.7 244.57,-130.4 407.61,0 407.61,0 0,0 252.72,-385.9 383.16,-510.9 130.44,-125 326.09,-228.2 532.61,-336.9 206.53,-108.7 380.44,-168.5 521.74,-76.1 141.31,92.4 125,228.3 201.09,429.3 76.09,201.1 125.01,505.5 135.87,896.8 10.87,391.3 0,500 0,500 l -478.26,16.3 c 0,0 -39.27,-353 -103.87,-494.4 0,0 -200.49,266.1 -379.83,347.7 0,0 -103.26,456 -402.18,643.8 -298.91,187.7 -671.26,127.5 -857.37,0" /><path
         id="path80"
         style="fill:#ecab7b;fill-opacity:1;fill-rule:nonzero;stroke:none"
         d="m 5177.68,13071.9 c 0,0 -17.44,192.8 36.9,366.8 16.67,53.3 28.83,95.5 37.35,131.8 52.79,-59.1 87.05,-104.5 87.05,-104.5 0,0 -111.25,-184.7 -161.3,-394.1" /><path
         id="path82"
         style="fill:#df9866;fill-opacity:1;fill-rule:nonzero;stroke:none"
         d="m 3980.88,13286.5 c -27.17,10.8 -271.74,86.9 -271.74,86.9 0,0 157.61,-146.7 152.17,-184.7 -2.87,-20.2 -39.24,-99.7 -72.85,-170.1 216.84,-89.6 358.18,23.3 358.18,23.3 0,0 -138.58,233.7 -165.76,244.6" /><path
         id="path84"
         style="fill:#fbc398;fill-opacity:1;fill-rule:nonzero;stroke:none"
         d="m 5442.85,13960.4 c 0,0 -135.87,161.2 -233.7,251.8 -97.83,90.6 -152.17,112.3 -152.17,148.6 0,36.2 61.59,474.6 79.7,507.2 18.12,32.6 113.23,39.9 113.23,39.9 0,0 44.98,97.8 89.06,108.7 44.1,10.8 87.57,0 87.57,0 0,0 65.22,29 105.08,25.3 39.85,-3.6 68.84,-18.1 68.84,-18.1 0,0 105.07,33.3 141.3,18.4 36.23,-14.8 65.22,-41.9 65.22,-41.9 0,0 -7.24,-403.2 0,-423.6 7.25,-20.3 141.31,-136.2 159.42,-215.9 18.12,-79.7 -45.29,-416.7 -45.29,-416.7 l -309.78,-170.3 -168.48,186.6" /><path
         id="path86"
         style="fill:#fbc398;fill-opacity:1;fill-rule:nonzero;stroke:none"
         d="m 5133.06,14494.8 c 0,0 -208.13,184.8 -196.46,224.7 11.68,39.8 196.46,39.8 196.46,39.8 v -264.5" /><path
         id="path88"
         style="fill:#df9866;fill-opacity:1;fill-rule:nonzero;stroke:none"
         d="m 5249.91,14907.9 -48.01,-442.1 v 434.8 z" /><path
         id="path90"
         style="fill:#df9866;fill-opacity:1;fill-rule:nonzero;stroke:none"
         d="m 5426.54,15016.6 -47.1,-460.2 v 465 z" /><path
         id="path92"
         style="fill:#df9866;fill-opacity:1;fill-rule:nonzero;stroke:none"
         d="m 5600.46,15023.8 -48.01,-396.7 v 411.9 z" /><path
         id="path94"
         style="fill:#100f0d;fill-opacity:1;fill-rule:nonzero;stroke:none"
         d="m 5491.76,9470.5 c 0,0 -97.82,-406.9 -135.87,-477.5 -38.04,-70.7 -168.48,-260.9 -173.91,-277.2 -5.44,-16.3 -119.57,-657.6 -119.57,-657.6 h 152.17 l 62.5,559.8 c 0,0 182.07,288 182.07,326.1 0,38 59.79,385.8 59.79,385.8 l 239.13,190.2 -266.31,-49.6" /><path
         id="path96"
         style="fill:#ebebea;fill-opacity:1;fill-rule:nonzero;stroke:none"
         d="m 4604.01,5081.7 c -222.45,-24.6 -553.32,-38.7 -789.6,-46.2 35.73,-174.3 67.05,-338.6 78.87,-488.2 25.1,-318 41.4,-505.5 41.4,-505.5 L 4081.43,3838 c 0,0 130.43,171.2 260.86,203.8 130.44,32.7 236.42,57.1 236.42,57.1 0,0 -37.93,500.9 25.3,982.8" /><path
         id="path98"
         style="fill:#ebebea;fill-opacity:1;fill-rule:nonzero;stroke:none"
         d="m 5346.65,5401.2 c 8.24,-43.3 16.02,-83.9 22.83,-120.2 48.91,-260.9 40.76,-937.5 40.76,-937.5 0,0 222.83,-154.9 347.83,-138.6 125,16.3 385.87,269 385.87,269 0,0 30.82,478.7 58.03,993.4 -300.97,-51.8 -637.8,-64.3 -855.32,-66.1" /><g
         transform="scale(1.0076)"
         id="g100"><path
           id="path102"
           style="fill:#3970c0;fill-opacity:1;fill-rule:nonzero;stroke:none"
           d="m 14706,4415.93 c 0,0 -299.2,-121.38 -339.7,-194.22 -40.4,-72.84 -89.6,-849.54 -85.3,-930.43 4.4,-80.88 481.3,32.36 882,-64.7 400.8,-97.17 1137,-105.21 1129,218.43 -8.2,323.64 -421.5,356 -639.7,461.2 -218,105.1 -528.7,485.41 -579.7,509.72 -50.9,24.22 -366.6,0 -366.6,0" /></g><path
         id="path104"
         style="fill:#3970c0;fill-opacity:1;fill-rule:nonzero;stroke:none"
         d="m 13146.7,4173.9 c 0,0 -220.1,-140.2 -244.6,-246.2 -24.4,-106 -146.7,-856 -81.5,-945.6 65.2,-89.7 241.7,-24.5 402.1,-122.3 160.4,-97.9 1195.8,-130.5 1277.3,73.3 81.5,203.8 -122.3,358.7 -415.8,603.3 -293.5,244.6 -570.6,637.5 -570.6,637.5 h -366.9" /><path
         id="path106"
         style="fill:#100f0d;fill-opacity:1;fill-rule:nonzero;stroke:none"
         d="m 12866.8,4596.2 c 0,0 152.2,-43.5 266.3,-27.2 114.2,16.3 375,114.2 750,103.3 375,-10.9 385.9,614.1 391.3,635.9 5.5,21.7 -614.1,342.3 -782.6,309.7 -168.5,-32.6 -927.3,-235.7 -950,-318.9 -22.8,-83.2 -120.6,-208.2 -66.3,-322.4 54.4,-114.1 391.3,-380.4 391.3,-380.4" /><g
         transform="scale(1.01477)"
         id="g108"><path
           id="path110"
           style="fill:#ecb088;fill-opacity:1;fill-rule:nonzero;stroke:none"
           d="m 13702.5,5171.99 c 21.4,10.65 407,53.12 669.4,155.11 262.4,101.9 348.1,187.63 348.1,187.63 0,0 -42.8,-353.48 -69.6,-535.59 -26.7,-182.1 -273.1,-798.01 -273.1,-798.01 0,0 128.5,-112.44 310.6,-48.19 182.1,64.25 368,235.62 368,235.62 0,0 563.8,648.13 729.9,1006.93 166,358.8 482.1,991.35 498.1,1226.68 16.1,235.42 -518.1,459.7 -518.1,459.7 0,0 -524.6,223.21 -743.6,227.05 -219.2,3.94 -696.3,100.71 -696.3,100.71 l -673.9,-940.3 -270.9,-964.06 321.4,-313.28" /></g><g
         transform="scale(1.00377)"
         id="g112"><path
           id="path114"
           style="fill:#fbc398;fill-opacity:1;fill-rule:nonzero;stroke:none"
           d="m 15181.8,9491.25 c 0,0 64.2,72.63 233.8,79.8 169.7,7.17 306.9,-36.47 321.3,-39.95 14.5,-3.39 68.6,-238.01 75.8,-256.04 7.2,-18.03 126.4,-198.55 126.4,-288.81 0,-90.16 -39.8,-270.68 -36.1,-350.08 3.6,-79.4 137.1,-516.56 202.1,-667.99 65,-151.43 194.9,-294.68 194.9,-599.34 0,-304.65 -75.8,-635.01 -292.4,-689.1 -216.6,-54.1 -610.3,335.73 -610.3,335.73 0,0 -261.4,200.25 -272.2,481.89 -10.8,281.54 95.9,1137.01 95.9,1137.01 l 61.1,445.62 -100.3,411.26" /></g><path
         id="path116"
         style="fill:#df9866;fill-opacity:1;fill-rule:nonzero;stroke:none"
         d="m 15730.6,6454.9 c 0,0 -437.1,-209.2 -793.1,-858.7 0,0 -217.4,-233.7 -1032.6,-347.8 l 48.9,157.4 c 0,0 682.1,161.4 809.8,254.7 127.7,93.3 453.1,664 967,794.4" /><path
         id="path118"
         style="fill:#fbc398;fill-opacity:1;fill-rule:nonzero;stroke:none"
         d="m 15102.1,9433.9 c 0,0 26.9,56.5 68.4,75.1 41.5,18.6 140.2,30.6 179.5,34.7 39.3,4 246.3,11 293.1,-10.7 46.7,-21.8 77.5,-70.8 77.5,-70.8 0,0 -13.2,-132.6 -226.7,-172.7 -213.5,-40.2 -258,-73.3 -304.1,-41.2 -46,32.1 -87.7,185.6 -87.7,185.6" /><path
         id="path120"
         style="fill:#3970c0;fill-opacity:1;fill-rule:nonzero;stroke:none"
         d="M 13953.8,9527 H 13644 l -309.8,-291.6 c 0,0 -461.9,-177.2 -573.6,-561.2 -96,-330.4 -363.9,-1280.4 -396.5,-1362.6 -32.6,-82.2 -269,-416 -317.9,-611.9 l 489.1,-89.9 c 0,0 1283.6,-146.7 1318.4,-65.2 34.9,81.5 390.5,735.1 440.9,767 50.5,31.9 350.7,176.9 487.9,278.3 137.1,101.4 451.7,551.6 398.8,791.7 -53,240.2 -292.1,539.5 -292.1,539.5 l -594.6,501.2 -340.8,104.7" /><path
         id="path122"
         style="fill:#df9866;fill-opacity:1;fill-rule:nonzero;stroke:none"
         d="m 15495.2,8235.5 c 0.3,-27.2 235.4,-615.9 235.4,-615.9 l -146.2,-40.7 c 0,0 -53.8,-47.7 -82,38 -28.2,85.7 -54.5,13.5 -45.1,141.9 9.3,128.5 37.9,476.7 37.9,476.7" /><path
         id="path124"
         style="fill:#929292;fill-opacity:1;fill-rule:nonzero;stroke:none"
         d="m 15242.6,7613.9 259.8,3 -13.4,1151.2 -259.9,-3.1 13.5,-1151.1" /><path
         id="path126"
         style="fill:#ecb088;fill-opacity:1;fill-rule:nonzero;stroke:none"
         d="m 13732.4,10135.2 c 0,0 33.9,-60.7 50.2,-272.7 16.3,-211.9 16.3,-211.9 16.3,-211.9 L 13644,9527 c 0,0 317.9,-174.7 464.7,-412.8 146.7,-238.1 278.5,-531.6 367.5,-580.5 89,-48.9 459.1,-11 461.2,32.6 2.1,43.7 32.8,421.3 -43.4,491.9 -76.1,70.6 -175.1,178.2 -175.4,206 -0.3,27.8 -63,262.8 -63,262.8 l -389.8,974.2 -458.8,176.6 c -40.7,-89.7 -74.6,-542.6 -74.6,-542.6" /><path
         id="path128"
         style="fill:#ccccc9;fill-opacity:1;fill-rule:nonzero;stroke:none"
         d="m 14925.8,7691.8 866,61 c 91,6.4 169.9,-62.2 176.3,-153.1 l 34.7,-491.9 c 6.4,-91 -62.2,-169.9 -153.1,-176.4 l -866,-61 c -91,-6.4 -169.9,62.2 -176.3,153.1 l -34.7,491.9 c -6.4,91 62.1,169.9 153.1,176.4" /><path
         id="path130"
         style="fill:#df9866;fill-opacity:1;fill-rule:nonzero;stroke:none"
         d="m 14035,10286.8 c 0,0 101.3,-532.8 149.6,-575.6 48.2,-42.9 471,-184.2 471,-184.2 l 0.7,452.4 -621.3,307.4" /><path
         id="path132"
         style="fill:#252323;fill-opacity:1;fill-rule:nonzero;stroke:none"
         d="m 13949.6,10466 c -0.8,-12.5 -54.9,-33.3 -54.9,-33.3 0,0 -25.9,-92.2 -45,-116.1 -19.1,-23.9 -117.7,-188.9 -117.3,-181.4 0.5,7.5 -195.1,404.7 -211.5,503.7 -16.3,99 -42.4,400.5 58.2,599.7 100.6,199.2 347.3,366.9 525,395.8 177.7,28.9 297.3,13.8 456.3,23.8 158.8,10 272.8,-95.2 378.3,-134.5 105.5,-39.4 201.2,-75.6 238.1,-206.1 37,-130.4 -48.8,-243.1 -48.8,-243.1 l -663.9,-748.3 c 0,0 -273.7,-89.8 -291.6,-55.2 -17.9,34.6 -222.9,195 -222.9,195" /><path
         id="path134"
         style="fill:#ecb088;fill-opacity:1;fill-rule:nonzero;stroke:none"
         d="m 14194.6,10671.5 c 0,0 -149.8,120.1 -250.3,119.8 -100.5,-0.4 -97.4,-161.3 -83.5,-259.4 13.9,-98 82.6,-176 121.4,-198.6 38.8,-22.5 52.8,-46.5 52.8,-46.5 0,0 118.2,-373 198.8,-475.2 80.6,-102.3 701.6,-199.5 735.4,-181.5 33.8,17.9 108.2,477.9 108.2,477.9 0,0 143.8,8.5 160.2,30.1 16.5,21.5 -120.1,324.1 -104.1,378.4 16,54.2 27.4,35.9 43.3,127.9 15.9,91.9 -49.6,445.3 -54.1,453.1 -4.6,7.8 -289.3,73.6 -410.3,66.2 -121.1,-7.4 -110.1,-181.4 -132.9,-247.8 -22.8,-66.4 -169.5,-162.6 -187.7,-211.7 -18.2,-49 -37.6,-196 -58.2,-204.8 -20.7,-8.7 -67.8,1.8 -67.8,1.8 l -71.2,170.3" /><path
         id="path136"
         style="fill:#ccccc9;fill-opacity:1;fill-rule:nonzero;stroke:none"
         d="m 14767.1,9424.2 866.4,54.1 c 91,5.6 169.4,-63.5 175.1,-154.6 l 30.7,-492.1 c 5.7,-91 -63.5,-169.4 -154.5,-175.1 l -866.5,-54.1 c -91,-5.7 -169.4,63.5 -175,154.5 l -30.8,492.2 c -5.6,91 63.5,169.4 154.6,175.1" /><path
         id="path138"
         style="fill:#d5a98b;fill-opacity:1;fill-rule:nonzero;stroke:none"
         d="m 15119.1,6880 v 0 l 200.1,14.1 v 0 l -200.1,-14.1" /><path
         id="path140"
         style="fill:#bdbcba;fill-opacity:1;fill-rule:nonzero;stroke:none"
         d="m 15119.1,6880 c 8.7,31.8 18.9,65.5 32,101.4 63.1,172.9 105.4,421.2 120.3,734.7 l 153.6,10.8 c -3.6,-277.9 -27.3,-579.3 -105.8,-832.8 l -200.1,-14.1" /><path
         id="path142"
         style="fill:#e7e7e6;fill-opacity:1;fill-rule:nonzero;stroke:none"
         d="m 15086.9,8619.2 v 0 l 143.8,9 v -0.1 l -143.8,-8.9 m -398.1,779.6 c -0.2,0.7 -0.4,1.5 -0.6,2.2 21.3,13 46,21.1 72.7,22.8 l 5.1,0.3 c -28.5,-1.9 -54.7,-11 -77.2,-25.3" /><path
         id="path144"
         style="fill:#467ab8;fill-opacity:1;fill-rule:nonzero;stroke:none"
         d="m 14940,8610 v 0 l 146.9,9.2 v 0 L 14940,8610" /><path
         id="path146"
         style="fill:#929292;fill-opacity:1;fill-rule:nonzero;stroke:none"
         d="m 15230.7,8628.1 v 0.1 l 181.2,11.3 v 0 l -181.2,-11.4" /><path
         id="path148"
         style="fill:#d5a98b;fill-opacity:1;fill-rule:nonzero;stroke:none"
         d="m 14802.1,8601.7 c -83.2,0 -153.2,64.8 -158.5,149 l -0.3,5.1 c 6,-87 78.5,-153.7 164.6,-153.7 3.5,0 6.9,0.1 10.4,0.3 l 121.7,7.6 v 0 l -127.8,-8 c -3.4,-0.2 -6.7,-0.3 -10.1,-0.3 m -189.7,648.7 -0.3,4.9 c -3.8,61 27.3,116 76.1,145.7 0.2,-0.7 0.4,-1.5 0.6,-2.2 -48.7,-31 -79.7,-86.7 -76.4,-148.4" /><path
         id="path150"
         style="fill:#bdbcba;fill-opacity:1;fill-rule:nonzero;stroke:none"
         d="m 14807.9,8602.1 c -86.1,0 -158.6,66.7 -164.6,153.7 l -30.9,494.6 c -3.3,61.7 27.7,117.4 76.4,148.4 22.5,14.3 48.7,23.4 77.2,25.3 l 370.7,23.2 230.8,14.4 -27.8,-347.5 c 0,0 62.4,-239.3 72.2,-474.7 l -181.2,-11.3 -143.8,-9 -146.9,-9.2 -121.7,-7.6 c -3.5,-0.2 -6.9,-0.3 -10.4,-0.3" /><path
         id="path152"
         style="fill:#fbc398;fill-opacity:1;fill-rule:nonzero;stroke:none"
         d="m 12942.9,8985.6 c 0,0 -256.8,-291.2 -236.4,-631.2 20.4,-340.1 146.7,-774.8 392.7,-902.4 246.1,-127.6 407.6,4.8 407.6,4.8 0,0 257.2,-382.9 389.1,-506.4 131.9,-123.5 328.8,-224.4 536.5,-330.7 207.8,-106.3 382.4,-164 522.6,-70 140.2,94 122.4,229.7 196.1,431.7 73.7,201.9 119.1,506.8 125.4,898.2 6.3,391.4 -5.9,500 -5.9,500 l -478.4,10.7 c 0,0 -35.1,-353.3 -98.1,-495.6 0,0 -203.5,263.8 -383.8,343.2 0,0 -218.5,569.2 -519.6,753.4 -301.1,184.3 -663.2,123.9 -847.8,-5.7" /><path
         id="path154"
         style="fill:#ecab7b;fill-opacity:1;fill-rule:nonzero;stroke:none"
         d="m 14537.5,7498.8 c 0,0 -19.7,192.6 32.6,367.1 16,53.6 27.7,95.9 35.8,132.3 53,-57.9 87.6,-102.7 88.2,-103.5 v 0 0 c 0,0 -109,-186 -156.6,-395.9" /><path
         id="path156"
         style="fill:#df9866;fill-opacity:1;fill-rule:nonzero;stroke:none"
         d="m 13338.2,7699.4 c -27.3,10.5 -272.7,83.8 -272.7,83.8 0,0 159.3,-144.9 154.3,-183 -2.6,-20.2 -38.1,-100.1 -70.9,-170.9 217.9,-87.1 357.9,27.5 357.9,27.5 0,0 -141.3,232 -168.6,242.6" /><path
         id="path158"
         style="fill:#fbc398;fill-opacity:1;fill-rule:nonzero;stroke:none"
         d="m 14792.2,8390.3 c 0,0 -137.7,159.7 -236.6,249.1 -98.9,89.4 -153.5,110.5 -153.9,146.8 -0.4,36.2 56.1,475.3 73.8,508.1 17.7,32.8 112.7,41.2 112.7,41.2 0,0 43.9,98.3 87.8,109.7 44,11.4 87.6,1 87.6,1 0,0 64.9,29.8 104.8,26.6 39.9,-3.1 69,-17.3 69,-17.3 0,0 104.7,34.5 141.1,20.1 36.4,-14.4 65.7,-41.2 65.7,-41.2 0,0 -2.5,-403.3 4.9,-423.5 7.5,-20.3 142.9,-134.6 162,-214.1 19,-79.5 -40.5,-417.2 -40.5,-417.2 l -307.7,-173.9 -170.7,184.6" /><path
         id="path160"
         style="fill:#fbc398;fill-opacity:1;fill-rule:nonzero;stroke:none"
         d="m 14476.2,8921.1 c 0,0 -210.3,182.3 -199.1,222.3 11.3,40 196,42.2 196,42.2 l 3.1,-264.5" /><path
         id="path162"
         style="fill:#df9866;fill-opacity:1;fill-rule:nonzero;stroke:none"
         d="m 14588.2,9335.5 -42.8,-442.6 -5.1,434.7 z" /><path
         id="path164"
         style="fill:#df9866;fill-opacity:1;fill-rule:nonzero;stroke:none"
         d="m 14763.6,9446.2 -41.7,-460.6 -5.5,464.9 z" /><path
         id="path166"
         style="fill:#df9866;fill-opacity:1;fill-rule:nonzero;stroke:none"
         d="m 14937.4,9455.5 -43.4,-397.3 -4.8,411.9 z" /><path
         id="path168"
         style="fill:#fbc398;fill-opacity:1;fill-rule:nonzero;stroke:none"
         d="m 12258.1,6569 186.4,57.5 c 0,0 509.3,279.5 1003.8,344.7 494.6,65.2 744.6,16.3 831.6,-59.8 86.9,-76.1 179.3,-413 32.6,-815.2 -146.8,-402.2 -402.2,-994.6 -521.8,-1396.7 -119.5,-402.2 -174,-690.3 -174,-690.3 0,0 -315.1,-32.6 -369.4,-70.6 -54.4,-38.1 -217.4,-163.1 -239.2,-119.6 -21.7,43.5 -21.7,70.7 21.8,326.1 43.4,255.4 59.7,989.1 59.7,989.1 l -358.7,-119.5 c 0,0 -375,59.8 -423.9,152.1 -48.9,92.4 -309.8,494.6 -239.1,728.3 70.7,233.7 190.2,673.9 190.2,673.9" /><path
         id="path170"
         style="fill:#df9866;fill-opacity:1;fill-rule:nonzero;stroke:none"
         d="m 12519,5215.8 c 59.6,25.3 385.9,119.5 391.3,135.8 5.4,16.3 59.8,293.5 119.6,440.3 59.7,146.7 385.8,364.1 385.8,364.1 0,0 -179.3,-168.5 -250,-407.6 -70.6,-239.2 -76.1,-614.2 -76.1,-614.2 l -358.7,-119.5 -255.4,-38.1 43.5,239.2" /><path
         id="path172"
         style="fill:#ebebea;fill-opacity:1;fill-rule:nonzero;stroke:none"
         d="m 13081.7,4875.4 c -8.7,-236.9 -25.2,-573.6 -51.8,-730.3 -43.5,-255.4 -43.5,-282.6 -21.8,-326.1 21.8,-43.5 184.8,81.5 239.2,119.6 54.3,38 369.4,70.6 369.4,70.6 0,0 54.5,288.1 174,690.3 14.8,49.6 31.7,102.2 50.1,157 -269.1,-2.6 -583.1,10.6 -759.1,18.9" /><path
         id="path174"
         style="fill:#ebebea;fill-opacity:1;fill-rule:nonzero;stroke:none"
         d="m 14877.1,5124.8 c -3.6,-25.9 -7.1,-50.2 -10.3,-72.1 -27.1,-184.8 -277.1,-809.8 -277.1,-809.8 0,0 130.4,-114.1 315.2,-48.9 184.8,65.2 373.4,239.1 373.4,239.1 0,0 274.1,315 498.7,629.7 -368.4,-11.4 -755.2,40.1 -899.9,62" /><path
         id="path176"
         style="fill:#63c435;fill-opacity:1;fill-rule:nonzero;stroke:none"
         d="m 11752.7,9747.2 h -391.3 V 8346.7 h -277.2 l 467,-515.6 495,515.6 h -293.5 v 1400.5" /><path
         id="path178"
         style="fill:#252323;fill-opacity:1;fill-rule:nonzero;stroke:none"
         d="m 12182,6726.6 -135.8,-26.9 c 0,0 -483.7,-375.2 -494.6,-907.8 -10.9,-532.7 206.5,-755.5 467.4,-847.9 260.9,-92.4 853.3,-375 847.8,-347.8 -5.4,27.2 -119.5,320.6 -135.9,418.5 -16.3,97.8 -260.8,244.5 -364.1,750 -103.2,505.4 77.7,861.8 77.7,861.8 l -262.5,100.1" /></g></g></svg>