<?xml version="1.0" encoding="UTF-8" standalone="no"?>
<svg
   xmlns:dc="http://purl.org/dc/elements/1.1/"
   xmlns:cc="http://creativecommons.org/ns#"
   xmlns:rdf="http://www.w3.org/1999/02/22-rdf-syntax-ns#"
   xmlns:svg="http://www.w3.org/2000/svg"
   xmlns="http://www.w3.org/2000/svg"
   viewBox="0 0 2666.6667 2666.6667"
   height="2666.6667"
   width="2666.6667"
   xml:space="preserve"
   id="svg2"
   version="1.1"><metadata
     id="metadata8"><rdf:RDF><cc:Work
         rdf:about=""><dc:format>image/svg+xml</dc:format><dc:type
           rdf:resource="http://purl.org/dc/dcmitype/StillImage" /></cc:Work></rdf:RDF></metadata><defs
     id="defs6" /><g
     transform="matrix(1.3333333,0,0,-1.3333333,0,2666.6667)"
     id="g10"><g
       transform="scale(0.1)"
       id="g12"><g
         transform="scale(1.22699)"
         id="g14"><path
           id="path16"
           style="fill:none;fill-opacity:1;fill-rule:nonzero;stroke:none"
           d="M 16300,0 H 0 V 16300 H 16300 V 0" /></g><path
         id="path18"
         style="fill:#2f1d16;fill-opacity:1;fill-rule:nonzero;stroke:none"
         d="m 11518.1,11265 c 0,0 -183.2,-139.2 -264.9,-341.4 -81.7,-202.3 1.1,-400.4 -141.9,-684.8 -143,-284.4 496.8,-254.3 496.8,-254.3 0,0 451.5,266.8 301.4,722.2 -150.1,455.4 -177.9,541.4 -177.9,541.4 l -213.5,16.9" /><path
         id="path20"
         style="fill:#e9eef1;fill-opacity:1;fill-rule:nonzero;stroke:none"
         d="m 11735.7,11299.8 c -87.9,67.5 -221.5,88.2 -221.5,88.2 l 3.9,-123 c 0,0 67.8,-101.7 164.8,-158.8 l 52.8,193.6" /><path
         id="path22"
         style="fill:#c37140;fill-opacity:1;fill-rule:nonzero;stroke:none"
         d="m 12066.5,7765.3 -219.1,178 c 0,0 1265.3,65.7 1566.6,-54.8 301.2,-120.5 367,-498.4 213.6,-739.4 -153.4,-241.1 -153.4,-241.1 -153.4,-241.1 0,0 11,-323.1 -377.9,-772.3 -388.9,-449.1 -646.4,-1079.1 -646.4,-1079.1 0,0 219.1,-213.6 514.9,-279.3 295.8,-65.8 460.1,-241 438.2,-268.4 -21.9,-27.4 -21.9,-27.4 -21.9,-27.4 0,0 -54.8,-76.7 -164.3,-82.2 -109.6,-5.5 -248.9,-32.9 -439.4,49.3 -190.5,82.2 -563,27.4 -798.6,82.2 -235.5,54.8 -125.9,273.9 -27.3,454.6 98.5,180.8 317.7,761.4 345,903.8 27.4,142.4 115.1,914.8 312.3,1128.4 l -394.4,-131.5 c 0,0 -186.3,191.8 -208.2,345.1 -21.9,153.4 60.3,534.1 60.3,534.1" /><path
         id="path24"
         style="fill:#a45330;fill-opacity:1;fill-rule:nonzero;stroke:none"
         d="m 12006.2,7231.2 c 21.9,-153.3 208.2,-345.1 208.2,-345.1 l 83.9,28 c 112.5,54.1 220,91 310.5,103.5 356,49.3 482,175.3 514.9,208.2 32.8,32.8 -32.9,-32.9 -252,-71.3 -219.1,-38.3 -290.3,-43.8 -290.3,-43.8 0,0 142.4,252 87.6,520.4 -25.2,123.5 -99.2,240.1 -171.6,329.9 -345.7,-1.9 -650,-17.7 -650,-17.7 l 219.1,-178 c 0,0 -82.2,-380.7 -60.3,-534.1" /><path
         id="path26"
         style="fill:#c37140;fill-opacity:1;fill-rule:nonzero;stroke:none"
         d="m 9618,6732.8 158.85,-175.3 c 0,0 438.25,-38.4 723.05,87.6 284.8,126 827.1,246.5 827.1,246.5 0,0 -202.7,-120.5 -268.4,-695.6 -65.7,-575.2 -399.9,-1413.3 -476.5,-1533.8 -76.7,-120.5 -164.4,-290.3 -65.8,-410.8 98.6,-120.5 213.7,-82.1 531.4,-158.8 317.7,-76.7 443.6,-82.2 547.7,-98.6 104.1,-16.5 137,32.8 137,32.8 0,0 71.2,-21.9 125.9,32.9 54.8,54.8 109.6,76.7 109.6,76.7 0,0 104.1,38.3 54.8,126 -49.3,87.6 -394.4,147.9 -525.9,219.1 -131.4,71.2 -350.5,219.1 -361.5,235.5 -11,16.4 246.5,706.6 520.4,1062.7 273.8,356 602.5,1029.8 602.5,1029.8 0,0 306.7,361.5 268.4,723 -38.3,361.5 -284.8,388.9 -679.2,410.8 -394.4,21.9 -1454.3,-95.8 -1454.3,-95.8 0,0 -599.81,-221.9 -775.1,-1114.7" /><path
         id="path28"
         style="fill:#252323;fill-opacity:1;fill-rule:nonzero;stroke:none"
         d="m 9809.72,8167.9 c 0,0 -525.85,-213.6 -649.1,-682 -123.24,-468.3 221.85,-870.9 616.23,-928.4 0,0 32.87,870.9 616.25,1290 -468.35,65.7 -583.38,320.4 -583.38,320.4" /><path
         id="path30"
         style="fill:#c37140;fill-opacity:1;fill-rule:nonzero;stroke:none"
         d="m 10297.2,8912.9 c 0,0 -76.7,-334.2 -282.1,-539.6 -205.38,-205.4 -205.38,-205.4 -205.38,-205.4 0,0 115.03,-254.7 583.38,-320.4 468.3,-65.8 953.1,-82.2 953.1,-82.2 l 534,528.6 -1216,695.6 -367,-76.6" /><g
         transform="scale(1.0444)"
         id="g32"><path
           id="path34"
           style="fill:#b05c36;fill-opacity:1;fill-rule:nonzero;stroke:none"
           d="m 15184.6,10163.3 c 31.5,-14 98,-125.3 220.3,-127.3 122.4,-2.1 122.4,2 234.2,0 112,-2.1 157.5,63.4 157.5,63.4 0,0 328.6,39.4 416,77.9 87.4,38.5 59.4,115.4 59.4,115.4 0,0 -835.7,21 -926.5,24.5 -91,3.5 -216.8,-31.5 -216.8,-31.5 l 55.9,-122.4" /></g><path
         id="path36"
         style="fill:#b05c36;fill-opacity:1;fill-rule:nonzero;stroke:none"
         d="m 12367.8,9641.4 372.4,360.4 c 0,0 542.3,-15.3 788.8,44.9 246.5,60.3 416.3,104.9 553.2,131.9 137,27 509.5,59.8 860,125.6 350.6,65.7 668.3,208.1 668.3,208.1 0,0 -104.1,175.3 -235.5,191.7 -131.5,16.4 -1040.8,16.4 -1128.4,0 -87.7,-16.4 -2079.4,-374.8 -2079.4,-374.8 0,0 -199.3,53 -78.8,-150.3 120.5,-203.4 279.4,-537.5 279.4,-537.5" /><path
         id="path38"
         style="fill:#e9eef1;fill-opacity:1;fill-rule:nonzero;stroke:none"
         d="m 10530.9,9592.1 -233.7,-679.2 c 0,0 186.3,-372.5 728.5,-504 542.3,-131.4 854.5,-115 854.5,-115 l 137,136.9 c 0,0 347.7,54.8 420.3,443.7 72.7,388.9 -17.8,586.1 0,777.8 17.9,191.7 -42.4,635.4 -42.4,635.4 0,0 -754.9,142.4 -780,115.1 -25.2,-27.4 -1084.2,-810.7 -1084.2,-810.7" /><path
         id="path40"
         style="fill:#c37140;fill-opacity:1;fill-rule:nonzero;stroke:none"
         d="m 11684.7,11177.6 c 0,0 14.8,-223.4 -102.1,-417 -116.8,-193.5 215.5,-471 241,-660.9 25.6,-189.9 -175.2,-986 197.2,-982.4 372.5,3.7 219.1,1380.4 219.1,1380.4 l 79.5,230.9 c 0,0 66.6,685.7 -17.4,725.8 -84,40.2 -329.9,131.5 -433.4,127.9 -103.4,-3.7 -96.1,32.8 -118,-40.2 -21.9,-73 -65.9,-364.5 -65.9,-364.5" /><path
         id="path42"
         style="fill:#b05c36;fill-opacity:1;fill-rule:nonzero;stroke:none"
         d="m 11698.7,10351.5 c 58.4,-90.5 115,-177.8 124.9,-251.8 25.6,-189.9 -175.2,-986 197.2,-982.4 297.2,3 259.7,879.6 232.3,1234.2 h -554.4" /><path
         id="path44"
         style="fill:#a45330;fill-opacity:1;fill-rule:nonzero;stroke:none"
         d="m 12043.4,11323.9 c 0,0 63.3,-245 103.6,-355.3 40.4,-110.4 172.4,-240 172.4,-240 l 268.5,353.1 -346.9,304.4 -197.6,-62.2" /><path
         id="path46"
         style="fill:#2f1d16;fill-opacity:1;fill-rule:nonzero;stroke:none"
         d="m 12716.5,12060.2 c 15.5,4.8 94.2,80.2 94.2,80.2 0,0 128.5,221.5 -282.3,340.7 -410.7,119.3 -730.4,54.2 -937.1,-106.6 -206.8,-160.9 -236.6,-735.9 -152.7,-926.3 83.8,-190.4 246.1,-270.6 246.1,-270.6 l 287.7,280.7 c 0,0 421.7,-59.8 441.5,-28.7 19.9,31.1 137.2,266.8 148.3,304.2 11,37.4 154.3,326.4 154.3,326.4" /><path
         id="path48"
         style="fill:#c37140;fill-opacity:1;fill-rule:nonzero;stroke:none"
         d="m 12133.2,11600.9 c 0,0 0.9,183.8 -121.6,155 -122.5,-28.9 -81.3,-344.6 -24.8,-388.3 56.6,-43.7 56.6,-43.7 56.6,-43.7 0,0 138.2,-326.2 208.4,-406.4 70.1,-80.2 393.6,-114.6 439.5,-103.8 45.9,10.9 109.7,397.9 109.7,397.9 0,0 135.9,43.5 141.9,57.3 5.9,13.7 -98.3,229.5 -105.5,252.7 -7.2,23.3 43.7,265 41.8,342.6 -2,77.6 -56.6,259.5 -68.5,276.2 -12,16.6 -204.1,11.5 -242.3,3.1 -38.2,-8.4 -161,-39.7 -200.9,-80.9 -39.9,-41.2 -72.4,-260.3 -116.9,-352.2 -44.6,-92 -66.7,-114.1 -117.4,-109.5" /><path
         id="path50"
         style="fill:#c37140;fill-opacity:1;fill-rule:nonzero;stroke:none"
         d="m 11444.8,10811.8 c 0,0 -384.4,-7.4 -559.7,-295.8 -175.2,-288.5 -354.2,-923.9 -354.2,-923.9 0,0 98.6,-277.6 573.4,-109.6 474.7,168 671.9,551.4 671.9,551.4 0,0 102.2,-25 781.4,78.8 679.3,103.8 1128.4,157.2 1573.9,240.1 445.6,82.8 913,291 913,291 l -87.7,284.8 c 0,0 -1040.7,0 -1259.8,-25.6 -219.1,-25.5 -661,-174.4 -661,-174.4 l -720.4,-106.7 c 0,0 -428.1,237.4 -870.8,189.9" /><path
         id="path52"
         style="fill:#a45330;fill-opacity:1;fill-rule:nonzero;stroke:none"
         d="m 11173.6,9975.5 c -29.1,7.7 131.5,-3.7 252,47.5 120.5,51.1 120.5,51.1 120.5,51.1 l 230.1,-40.2 -67.8,-104.3 -150.6,42.2 c 0,0 -190.6,-47.4 -384.2,3.7" /><path
         id="path54"
         style="fill:#ea9265;fill-opacity:1;fill-rule:nonzero;stroke:none"
         d="m 11681.2,10767.9 c 270.3,-25.5 589.9,-179.6 589.9,-179.6 l -67.7,-76 c 0,0 295.6,129.4 584.3,179.5 v 0 l -472.1,-69.9 c 0,0 -428.1,237.4 -870.8,189.9 0,0 -203.4,-3.9 -381.8,-117.1 0,0 348,98.8 618.2,73.2" /><g
         transform="scale(1.01012)"
         id="g56"><path
           id="path58"
           style="fill:#c37140;fill-opacity:1;fill-rule:nonzero;stroke:none"
           d="m 14806.9,10819.1 c 0,0 177.2,18.1 466.4,-36.2 289.2,-54.2 939.9,0 983.3,-28.9 43.4,-28.9 -14.4,-54.2 -104.8,-75.9 0,0 14.5,-47.9 -86.8,-69.1 -101.2,-21.3 -263.8,-35.7 -263.8,-35.7 0,0 155.4,-7.3 173.4,-39.8 18.1,-32.5 -46.9,-90.4 -122.9,-83.2 -75.9,7.3 -343.4,-86.7 -531.4,-72.3 -188,14.5 -249.5,126.6 -426.6,159.1 -177.2,32.5 -202.4,15 -202.4,43.4 0,28.4 115.6,238.6 115.6,238.6" /></g><path
         id="path60"
         style="fill:#a45330;fill-opacity:1;fill-rule:nonzero;stroke:none"
         d="m 15741.9,10665.7 c -10,-4.5 219.2,14.6 219.2,14.6 l 189.7,22.6 c 0,0 -225.1,44.7 -408.9,-37.2" /><g
         transform="scale(1.01711)"
         id="g62"><path
           id="path64"
           style="fill:#91472c;fill-opacity:1;fill-rule:nonzero;stroke:none"
           d="m 15908,10449.4 c 0,0 126.4,0.9 215.8,-24.2 89.4,-25.1 96.6,-54.9 96.6,-54.9 l 79.6,10.4 c 0,0 -132.6,133 -392,68.7" /></g><path
         id="path66"
         style="fill:#2f1d16;fill-opacity:1;fill-rule:nonzero;stroke:none"
         d="m 3589.75,14853.9 c 0,0 -180.58,-142.5 -258.57,-346.2 -78,-203.7 47.46,-522.4 -90.27,-809.3 -137.74,-287 462.39,-123 462.39,-123 0,0 446.49,275 288.06,727.5 -158.44,452.6 -187.82,538.1 -187.82,538.1 l -213.79,12.9" /><path
         id="path68"
         style="fill:#e9eef1;fill-opacity:1;fill-rule:nonzero;stroke:none"
         d="m 3806.69,14892.8 c -89.18,65.8 -223.14,84.1 -223.14,84.1 l 6.2,-123 c 0,0 69.67,-100.4 167.72,-155.6 l 49.22,194.5" /><path
         id="path70"
         style="fill:#c37140;fill-opacity:1;fill-rule:nonzero;stroke:none"
         d="m 5537.2,9572.9 c 0,0 -172.55,-944.9 -271.15,-1183.2 -98.59,-238.2 -41.07,-591.5 -115.02,-846.3 -73.95,-254.7 -98.6,-369.7 -98.6,-369.7 0,0 0,-534.1 -73.95,-1248.9 -73.94,-714.8 -41.08,-747.7 0,-870.9 41.09,-123.3 416.3,-430 679.23,-495.7 262.92,-65.8 308.56,-140.6 272.05,-184.5 -36.52,-43.8 -94.95,-51.1 -94.95,-51.1 0,0 -47.47,-25.5 -80.34,-32.8 -32.86,-7.3 -58.43,-18.3 -87.64,-25.6 -29.21,-7.3 -116.85,-7.3 -186.23,0 -69.39,7.3 -288.49,47.5 -467.43,65.7 -178.93,18.3 -558.71,47.5 -609.84,113.2 -51.12,65.8 69.39,186.3 69.39,409 0,222.8 -167.98,1146.7 -250.15,1678 -82.16,531.3 -38.34,558.7 54.78,816.2 93.12,257.4 -98.12,1101 -98.12,1101 l 273.4,1437.8 c 0,0 243.42,57 328.66,32.9 85.24,-24.1 755.91,-345.1 755.91,-345.1" /><path
         id="path72"
         style="fill:#a45330;fill-opacity:1;fill-rule:nonzero;stroke:none"
         d="m 4277.35,7346.3 c -93.12,-257.5 -136.94,-284.9 -54.78,-816.2 16.96,-109.6 37.56,-235.9 59.59,-369.4 -71.88,434.9 6.15,898 145.83,1111.6 139.67,213.6 41.08,262.9 139.67,731.3 98.6,468.3 313.19,1408 313.19,1408 0,0 150.67,162 319.31,320.6 -180.91,84.6 -375.54,173.6 -418.87,185.8 -85.24,24.1 -328.66,-32.9 -328.66,-32.9 l -273.4,-1437.8 c 0,0 191.24,-843.6 98.12,-1101" /><path
         id="path74"
         style="fill:#c37140;fill-opacity:1;fill-rule:nonzero;stroke:none"
         d="m 3343.42,9540 c 0,0 123.25,-1421.4 90.38,-1695.3 -32.86,-273.9 -388.91,-460.1 -427.25,-1122.9 -38.34,-662.8 136.94,-1895.2 131.46,-1928.1 -5.48,-32.9 -202.67,-509.4 -93.12,-646.4 109.55,-136.9 131.47,-60.2 482.03,-142.4 350.57,-82.1 449.16,-142.4 536.81,-142.4 87.64,0 104.07,38.3 104.07,38.3 0,0 125.98,-32.8 158.85,-5.4 32.87,27.4 38.35,49.3 54.78,49.3 16.43,0 54.77,-11 93.12,21.9 38.34,32.9 104.07,5.5 76.68,104.1 -27.39,98.6 -695.65,356 -843.55,640.8 -147.89,284.9 -9.95,1500.9 71.71,1709 81.66,208.2 224.08,783.3 224.08,783.3 0,0 251.97,610.8 457.38,1259.9 205.41,649.1 213.63,953.1 213.63,953.1 V 9540 L 3450.23,9737.2 3343.42,9540" /><path
         id="path76"
         style="fill:#252323;fill-opacity:1;fill-rule:nonzero;stroke:none"
         d="m 3996.16,11396.9 c -36.51,-24.6 -376.46,-369.7 -376.46,-369.7 l -86.35,-155.8 c 0,0 -312.33,-189.3 -341.51,-526.2 -29.18,-336.8 85.85,-443.6 118.72,-624.4 32.86,-180.8 32.86,-180.8 32.86,-180.8 0,0 829.86,-49.3 1331.06,0 v -123.2 c 0,0 550.5,-49.3 862.72,156.1 0,0 -146.11,1027 -299.01,1413.2 -152.89,386.2 -1242.03,410.8 -1242.03,410.8" /><path
         id="path78"
         style="fill:#c37140;fill-opacity:1;fill-rule:nonzero;stroke:none"
         d="m 3614.56,12169.3 c 0,0 130.79,-430 5.14,-1142.1 0,0 532.07,-197.2 1044.02,-147.9 511.95,49.3 574.47,106.8 574.47,106.8 0,0 -16.43,354.1 0,682.7 16.44,328.7 127.38,677.4 127.38,677.4 l -959.4,151.7 -791.61,-328.6" /><path
         id="path80"
         style="fill:#b05c36;fill-opacity:1;fill-rule:nonzero;stroke:none"
         d="m 7974.73,14021.6 c 0,0 -21.92,11 98.59,-32.8 120.51,-43.9 127.81,-40.2 211.8,-25.6 83.99,14.6 149.72,14.6 215.45,7.3 65.73,-7.3 175.28,62.1 332.31,69.4 157.02,7.3 423.6,98.6 419.95,160.7 -3.66,62 -1237.94,87.6 -1237.94,87.6 l -350.56,84 c 0,0 -255.62,-109.6 -83.99,-178.9 171.63,-69.4 394.39,-171.7 394.39,-171.7" /><path
         id="path82"
         style="fill:#b05c36;fill-opacity:1;fill-rule:nonzero;stroke:none"
         d="m 5046.04,13298.6 c 0,0 244.66,-11 547.76,69.3 303.09,80.4 587.93,259.3 785.12,310.5 197.19,51.1 650.01,109.5 967.71,175.2 317.7,65.8 628.1,168 628.1,168 l -94.95,288.5 c 0,0 -1146.64,-18.3 -1314.62,0 -167.98,18.3 -1650.58,-219.1 -1650.58,-219.1 0,0 -357.87,-398 -343.27,-412.6 14.61,-14.6 474.73,-379.8 474.73,-379.8" /><path
         id="path84"
         style="fill:#e9eef1;fill-opacity:1;fill-rule:nonzero;stroke:none"
         d="m 3379.03,12692.4 235.53,-523.1 c 0,0 77.58,-16.5 774.16,0 696.58,16.4 944.95,64.8 944.95,64.8 l 31.9,112.1 c 0,0 138.76,214.7 18.25,505 -120.5,290.4 -235.53,372.5 -246.49,416.3 -10.95,43.9 -290.31,531.4 -290.31,531.4 0,0 -492.98,394.4 -525.85,383.4 -32.86,-11 -775.85,-470.2 -781.95,-468.9 -6.1,1.2 -160.19,-648.5 -160.19,-648.5 v -372.5" /><path
         id="path86"
         style="fill:#b05c36;fill-opacity:1;fill-rule:nonzero;stroke:none"
         d="m 4337.6,13606.2 c 0,0 244.67,-472.6 478.38,-433.9 233.71,38.6 -239.19,615.6 -239.19,615.6 l -239.19,-181.7" /><path
         id="path88"
         style="fill:#c37140;fill-opacity:1;fill-rule:nonzero;stroke:none"
         d="m 3758.59,14762.3 c 0,0 7.09,-76.1 0,-213 -7.09,-136.9 -100.21,-361.5 -100.21,-361.5 l 730.34,-82.2 14.95,222.7 -224.7,958.3 c 0,0 -296.01,36.2 -317.92,0 -21.9,-36.2 -102.46,-524.3 -102.46,-524.3" /><path
         id="path90"
         style="fill:#a45330;fill-opacity:1;fill-rule:nonzero;stroke:none"
         d="m 4113.71,14917.1 c 0,0 69.04,-243.5 111.95,-352.9 42.91,-109.3 178.01,-235.9 178.01,-235.9 l 260.05,359.4 -353.95,296.2 -196.06,-66.8" /><path
         id="path92"
         style="fill:#2f1d16;fill-opacity:1;fill-rule:nonzero;stroke:none"
         d="m 4769.37,15668.9 c 15.38,5.2 92.22,82.4 92.22,82.4 0,0 123.25,224.5 -290.16,334 -413.4,109.6 -731.49,37.1 -934.41,-128.6 -202.92,-165.7 -219.22,-741.3 -130.9,-929.6 88.31,-188.4 252.47,-264.8 252.47,-264.8 l 280.94,287.4 c 0,0 423.04,-49.8 442.14,-18.3 19.1,31.5 130.86,269.9 141.04,307.6 10.2,37.6 146.66,329.9 146.66,329.9" /><path
         id="path94"
         style="fill:#c37140;fill-opacity:1;fill-rule:nonzero;stroke:none"
         d="m 4196.99,15196.1 c 0,0 -3.45,183.8 -125.21,152 -121.75,-31.7 -73.22,-346.4 -15.64,-388.7 57.57,-42.3 57.57,-42.3 57.57,-42.3 0,0 145.83,-322.9 217.85,-401.5 72.01,-78.5 396.18,-105.3 441.84,-93.4 45.66,11.9 100.35,400.3 100.35,400.3 0,0 134.86,46.7 140.48,60.6 5.62,13.9 -103.62,227.2 -111.37,250.3 -7.74,23 37.45,265.9 33.7,343.4 -3.75,77.5 -62.62,258.1 -74.97,274.5 -12.36,16.4 -204.3,6.7 -242.26,-2.6 -37.97,-9.3 -160.06,-43.4 -198.98,-85.6 -38.92,-42.2 -66.2,-261.9 -108.62,-354.9 -42.41,-93 -63.92,-115.6 -114.74,-112.1" /><path
         id="path96"
         style="fill:#c37140;fill-opacity:1;fill-rule:nonzero;stroke:none"
         d="m 3882.96,14328.3 c 0,0 -295.79,-25.5 -509.41,-222.7 -213.63,-197.2 -164.33,-432.7 -180.76,-717.6 -16.43,-284.8 186.24,-695.6 186.24,-695.6 0,0 312.51,126 542.43,410.8 229.91,284.8 268.25,443.7 268.25,443.7 0,0 271.68,8.1 689.07,149.2 417.4,141.1 554.35,157.5 554.35,157.5 0,0 460.11,-5.4 887.36,158.9 427.25,164.3 964.06,257.4 964.06,257.4 l -87.64,235.6 c 0,0 -1133.86,32.8 -1374.88,0 -241.01,-32.9 -575.15,-230.1 -859.98,-268.4 -284.83,-38.4 -555.88,-16.5 -555.88,-16.5 0,0 -335.79,149.3 -523.21,107.7" /><path
         id="path98"
         style="fill:#a45330;fill-opacity:1;fill-rule:nonzero;stroke:none"
         d="m 3614.56,13462.9 127.81,98.6 447.34,-14.6 -57.3,-133 c 0,0 -342.57,76.6 -368.13,73.8 -25.56,-2.9 -149.72,-24.8 -149.72,-24.8" /><path
         id="path100"
         style="fill:#c37140;fill-opacity:1;fill-rule:nonzero;stroke:none"
         d="m 7284.55,14269.9 c 0,0 230.05,-135.1 379.78,-131.4 149.72,3.6 215.45,47.4 416.3,32.8 200.84,-14.6 208.14,54.8 193.54,76.7 -14.61,21.9 -171.64,47.5 -171.64,47.5 0,0 270.23,2 306.75,15.6 36.52,13.6 62.08,42.8 62.08,42.8 0,0 131.46,11 135.11,73.1 3.66,62 -602.53,10.9 -712.09,36.5 -109.55,25.5 -496.63,69.4 -697.47,42 -200.85,-27.4 -230.06,-45.7 -222.76,-63.9 7.31,-18.3 310.4,-171.7 310.4,-171.7" /><path
         id="path102"
         style="fill:#91472c;fill-opacity:1;fill-rule:nonzero;stroke:none"
         d="m 8244.95,14120.2 c 0,0 226.41,-14.6 281.18,-47.5 54.78,-32.8 18.29,-98.7 18.29,-98.7 l 62.07,17.5 c 0,0 21.89,66.6 -18.28,103.2 -40.16,36.5 -343.26,25.5 -343.26,25.5" /><path
         id="path104"
         style="fill:#100f0d;fill-opacity:1;fill-rule:nonzero;stroke:none"
         d="m 5003.13,10263.1 -262.92,-238.3 -65.73,-484.8 v -123.2 l 206.37,-5.2 -17.4,585.8 139.68,265.7" /><path
         id="path106"
         style="fill:#ea9265;fill-opacity:1;fill-rule:nonzero;stroke:none"
         d="m 3996.16,14272.5 c 257.45,-25.6 345.75,-62.3 407.51,-82.3 61.75,-19.9 499.43,39.7 499.43,39.7 l 0.01,0.1 c -262.16,-28.3 -496.94,-9.4 -496.94,-9.4 0,0 -335.79,149.3 -523.21,107.7 0,0 -295.79,-25.5 -509.41,-222.7 0,0 365.16,192.5 622.61,166.9" /></g></g></svg>