<?xml version="1.0" encoding="UTF-8" standalone="no"?>
<svg
   xmlns:dc="http://purl.org/dc/elements/1.1/"
   xmlns:cc="http://creativecommons.org/ns#"
   xmlns:rdf="http://www.w3.org/1999/02/22-rdf-syntax-ns#"
   xmlns:svg="http://www.w3.org/2000/svg"
   xmlns="http://www.w3.org/2000/svg"
   viewBox="0 0 2666.6667 2666.6667"
   height="2666.6667"
   width="2666.6667"
   xml:space="preserve"
   id="svg2"
   version="1.1"><metadata
     id="metadata8"><rdf:RDF><cc:Work
         rdf:about=""><dc:format>image/svg+xml</dc:format><dc:type
           rdf:resource="http://purl.org/dc/dcmitype/StillImage" /></cc:Work></rdf:RDF></metadata><defs
     id="defs6"><clipPath
       id="clipPath104"
       clipPathUnits="userSpaceOnUse"><path
         id="path102"
         d="m 8352.88,14931.1 c 0,0 476.17,-422.9 549.54,-755.2 73.37,-332.3 -129.48,-561.1 -323.68,-694.8 -194.21,-133.8 -531.26,-111.9 -531.26,-111.9 l -181.02,-207.5 c 0,0 151.23,-198.5 371.33,-280.5 220.11,-82 479.05,-146.8 479.05,-146.8 l -34.53,-345.2 h -371.15 l -1065.99,548.1 c 0,0 -34.53,280.5 0,496.3 34.53,215.8 155.37,349.6 168.32,444.5 12.95,95 -21.58,309 107.89,482.5 129.47,173.5 345.08,294.3 345.08,294.3 l 325.3,356.8 z" /></clipPath></defs><g
     transform="matrix(1.3333333,0,0,-1.3333333,0,2666.6667)"
     id="g10"><g
       transform="scale(0.1)"
       id="g12"><g
         transform="scale(1.22699)"
         id="g14"><path
           id="path16"
           style="fill:#ffffff;fill-opacity:1;fill-rule:nonzero;stroke:none"
           d="M 16300,0 H 0 V 16300 H 16300 V 0" /></g><path
         id="path18"
         style="fill:#b1b1b0;fill-opacity:1;fill-rule:nonzero;stroke:none"
         d="m 3775.32,11478.6 363.47,43.9 2674.81,-223.8 -345.26,-43.4 -2693.02,223.3" /><path
         id="path20"
         style="fill:#b1b1b0;fill-opacity:1;fill-rule:nonzero;stroke:none"
         d="m 5570.66,11174.3 43.16,2289.5 2209.66,431.6 c 0,0 77.17,404.5 -211.72,418 -288.9,13.5 -1596.58,-230.8 -1859.84,-271.8 -263.25,-41 -483.36,-4.5 -509.25,-97 -25.9,-92.4 -73.37,-636.4 -73.37,-636.4 V 11154 l 401.36,20.3" /><path
         id="path22"
         style="fill:#8e908d;fill-opacity:1;fill-rule:nonzero;stroke:none"
         d="m 5346.25,11081.5 h -353.9 v 2813.9 h 353.9 v -2813.9" /><path
         id="path24"
         style="fill:#252323;fill-opacity:1;fill-rule:nonzero;stroke:none"
         d="m 3999.74,14188.8 4220.79,543.8 -354.07,-372 c 0,0 -1975.64,-371.9 -2295.8,-361.7 -320.15,10.3 -983.99,-26.3 -1096.19,-0.2 -112.21,26.1 -474.73,190.1 -474.73,190.1" /><path
         id="path26"
         style="fill:#838585;fill-opacity:1;fill-rule:nonzero;stroke:none"
         d="m 5104.57,13944.6 c 25.89,2.6 353.89,166.6 353.89,166.6 l 2459.97,353.8 -302.1,-401.3 -2045.67,-363.3 -466.09,244.2" /><path
         id="path28"
         style="fill:#494b4b;fill-opacity:1;fill-rule:nonzero;stroke:none"
         d="m 3999.74,14188.8 -94.95,-388.4 1665.87,-100 -112.2,410.8 -1458.72,77.6" /><path
         id="path30"
         style="fill:#8e908d;fill-opacity:1;fill-rule:nonzero;stroke:none"
         d="m 3775.32,11478.6 -77.69,-267.6 2813.87,-341 -43.16,385.3 -2693.02,223.3" /><path
         id="path32"
         style="fill:#d3d2d0;fill-opacity:1;fill-rule:nonzero;stroke:none"
         d="m 6468.34,11255.3 345.26,43.4 65.63,-320.8 -367.73,-107.9 -43.16,385.3" /><g
         transform="scale(1.00227)"
         id="g34"><path
           id="path36"
           style="fill:#2f64a7;fill-opacity:1;fill-rule:nonzero;stroke:none"
           d="m 14715.4,11886 c -23,-11.5 -281.4,-86.1 -292.8,-178 -11.5,-91.8 -68.9,-401.8 -68.9,-401.8 0,0 224.2,-310.1 287.3,-344.5 62.9,-34.5 554.6,-59.2 554.6,-59.2 0,0 472.8,-113.1 788.6,-67.1 315.8,45.9 310.1,133.2 246.9,293.4 -63.2,160.1 -378.9,125.7 -505.2,252 -126.3,126.3 -344.5,355.9 -344.5,355.9 0,0 -137.8,196.1 -195.2,210 -57.4,14 -470.8,-60.7 -470.8,-60.7" /></g><path
         id="path38"
         style="fill:#3a70c0;fill-opacity:1;fill-rule:nonzero;stroke:none"
         d="m 13448.3,11533.2 c 0,0 -103.5,-28.8 -120.8,-132.3 -17.3,-103.6 -158.4,-494.9 -131,-564 27.4,-69 94.6,-195.6 426.4,-224.4 331.8,-28.7 671.3,-161.1 1160.4,-138.1 489.2,23 535.2,120.9 500.7,322.3 -34.6,201.4 -138.1,172.6 -414.4,287.7 -276.2,115.1 -512.1,322.2 -517.8,345.2 -5.8,23.1 -103.6,208.1 -149.7,236.4 -46,28.3 -178.3,-86.7 -178.3,-86.7 l -575.5,-46.1" /><path
         id="path40"
         style="fill:#2e62a3;fill-opacity:1;fill-rule:nonzero;stroke:none"
         d="m 13583.1,13335.8 c -121.8,451.3 -488.3,750.2 -840.5,700.3 -0.1,0 -0.2,0.1 -0.3,0.1 -104.7,-4.8 -282.5,-72 -282.5,-72 l -324.7,-514.6 c 0,0 24.1,-62.8 64.3,-160.1 -1.9,-102.3 10.6,-209 39.5,-316.3 74.1,-274.5 238.8,-492.5 435.6,-610.1 69.2,-91.2 135.1,-149.3 190.7,-148.5 255.2,3.6 396.3,117.8 396.3,117.8 0,0 0.2,0.2 0.3,0.4 293.9,158 436.3,576.6 321.3,1003" /><path
         id="path42"
         style="fill:#3871c1;fill-opacity:1;fill-rule:nonzero;stroke:none"
         d="m 13366.1,13277.2 c 129.3,-479.5 -66.7,-949.4 -437.9,-1049.5 -371.1,-100.2 -776.9,207.4 -906.3,686.9 -129.3,479.6 66.7,949.5 437.9,1049.6 371.1,100.2 776.9,-207.4 906.3,-687" /><path
         id="path44"
         style="fill:#100f0d;fill-opacity:1;fill-rule:nonzero;stroke:none"
         d="m 12286,12085.6 c 0,0 103.5,152.5 0,471.9 -103.6,319.4 -467.8,504.4 -467.8,504.4 0,0 -411.1,-158.5 -385.4,-444 25.7,-285.5 115.1,-405.7 143.2,-440.2 28.1,-34.5 710,-92.1 710,-92.1" /><path
         id="path46"
         style="fill:#ecaf86;fill-opacity:1;fill-rule:nonzero;stroke:none"
         d="m 13196.5,13225 -798.3,-753.8 -345.7,590.7 466.5,624 c 0,0 284.8,242.5 440.2,62 155.4,-180.5 237.3,-522.9 237.3,-522.9" /><path
         id="path48"
         style="fill:#ecaf86;fill-opacity:1;fill-rule:nonzero;stroke:none"
         d="m 12070.2,12195 328,276.2 -328,319.3 -252,-30.2 c 0,0 -171.6,-141.5 -88.9,-267.5 82.6,-126 340.9,-297.8 340.9,-297.8" /><path
         id="path50"
         style="fill:#252323;fill-opacity:1;fill-rule:nonzero;stroke:none"
         d="m 10444.6,11533.2 c 17.2,-11.5 161.1,-218.6 161.1,-218.6 0,0 264.7,-63.3 540.9,63.3 276.2,126.5 1139.4,707.7 1139.4,707.7 0,0 -201.4,222.8 -299.3,347.3 -97.8,124.6 -212.9,441.1 -212.9,441.1 0,0 -218.6,-189.9 -500.6,-356.8 -282,-166.9 -552.4,-454.6 -627.2,-581.2 -74.8,-126.6 -201.4,-402.8 -201.4,-402.8" /><path
         id="path52"
         style="fill:#ecaf86;fill-opacity:1;fill-rule:nonzero;stroke:none"
         d="m 12052.5,13929.9 c 0,0 362.9,258.9 690.9,284.8 328,25.9 561.1,-258.9 630.1,-345.2 69.1,-86.3 552.4,-673.3 923.6,-1079 371.2,-405.6 759.6,-906.3 759.6,-906.3 0,0 -25.9,-189.9 -181.3,-215.8 -155.4,-25.8 -310.7,164 -310.7,164 0,0 -699.2,553.6 -863.2,600.5 -164,46.9 -414.3,193.6 -595.6,392.2 -181.2,198.5 -276.2,353.3 -612.8,483.1 -336.6,129.7 -440.6,621.7 -440.6,621.7" /><path
         id="path54"
         style="fill:#ecaf86;fill-opacity:1;fill-rule:nonzero;stroke:none"
         d="m 9955.46,13685.9 c 0,0 664.64,-334.8 1061.64,-377.7 397.1,-42.9 189.9,-595.3 -250.3,-573.8 -440.2,21.6 -1004.4,132.8 -994.19,327.5 10.22,194.7 182.85,624 182.85,624" /><path
         id="path56"
         style="fill:#100f0d;fill-opacity:1;fill-rule:nonzero;stroke:none"
         d="m 11699,12026.7 c 0,0 92.1,47.4 115.1,179.8 23,132.3 -57.5,477.6 -57.5,477.6 0,0 -351.1,-225.9 -391.3,-328.7 -40.3,-102.9 -34.6,-126.4 -23.1,-224 11.6,-97.6 97.9,-212.6 115.1,-183.9 17.3,28.8 241.7,79.2 241.7,79.2" /><path
         id="path58"
         style="fill:#3a70c0;fill-opacity:1;fill-rule:nonzero;stroke:none"
         d="m 8485.23,15080.8 -132.35,25.9 -161.12,-95 c 0,0 -320.8,-961 -325.12,-973.9 -4.32,-13 69.05,-574 69.05,-574 0,0 267.58,-233.1 509.26,-401.4 241.68,-168.3 694.84,-673.2 694.84,-673.2 0,0 595.57,276.2 794.09,358.2 198.52,82 198.52,82 198.52,82 l 250.3,189.9 c 0,0 -116.5,306.4 -172.6,487.6 -56.1,181.3 -172.6,444.6 -172.6,444.6 0,0 56.1,172.6 12.9,328 -43.2,155.3 -184.72,315 -239.09,384.1 -54.38,69 -359.1,307.7 -359.1,307.7 l -966.98,109.5" /><path
         id="path60"
         style="fill:#fbc398;fill-opacity:1;fill-rule:nonzero;stroke:none"
         d="m 10669,13409.1 c 0,0 650.2,448.9 938,564 287.7,115 512.1,80.5 638.7,-69.1 126.6,-149.6 189.9,-345.3 212.9,-379.8 23,-34.5 604.2,-1024.3 880.4,-1323.5 276.2,-299.2 684.8,-621.4 684.8,-621.4 0,0 34.5,-103.6 -189.9,-224.5 -224.4,-120.8 -287.7,-97.8 -287.7,-97.8 0,0 -97.9,218.6 -172.7,276.2 -74.8,57.6 -673.2,587.6 -949.4,748.4 -276.2,160.8 -452.5,209.1 -592.7,366.8 l -425.9,-649.1 c 0,0 -794,23 -840.1,247.5 -46,224.4 0,719.2 0,719.2 l 103.6,443.1" /><path
         id="path62"
         style="fill:#252323;fill-opacity:1;fill-rule:nonzero;stroke:none"
         d="m 9088.52,12292.8 c 0,0 38.32,-494.9 113.12,-684.8 74.81,-189.9 471.86,-517.9 1064.56,-443.1 592.7,74.9 1432.8,861.8 1432.8,861.8 0,0 -569.7,197 -765.3,530.8 -195.7,333.7 -264.7,851.6 -264.7,851.6 0,0 -221.5,-169.7 -536.6,-579.7 l -968.64,-429.1 -75.24,-107.5" /><path
         id="path64"
         style="fill:#fbc398;fill-opacity:1;fill-rule:nonzero;stroke:none"
         d="m 8642.54,15680.7 c 0,0 -27.84,-297.8 -62.36,-366.9 -34.53,-69 -227.3,-207.1 -227.3,-207.1 0,0 710.66,-595.6 1009.88,-713.6 299.23,-117.9 463.23,112.2 394.17,253.2 -69.05,141 -333.75,325.1 -399.92,431.6 -66.18,106.4 71.93,417.2 71.93,417.2 0,0 -359.65,552.4 -466.1,538 -106.46,-14.4 -302.1,-2.9 -322.24,-34.5 -20.15,-31.7 1.94,-317.9 1.94,-317.9" /><path
         id="path66"
         style="fill:#9d9d9c;fill-opacity:1;fill-rule:nonzero;stroke:none"
         d="m 8588.61,12250.5 1504.99,367.4 -141.02,-212.9 -1332.13,-319.4 -31.84,164.9" /><path
         id="path68"
         style="fill:#fbc398;fill-opacity:1;fill-rule:nonzero;stroke:none"
         d="m 8352.88,14931.1 c 0,0 476.17,-422.9 549.54,-755.2 73.37,-332.3 -129.48,-561.1 -323.68,-694.8 -194.21,-133.8 -531.26,-111.9 -531.26,-111.9 l -181.02,-207.5 c 0,0 151.23,-198.5 371.33,-280.5 220.11,-82 479.05,-146.8 479.05,-146.8 l -34.53,-345.2 h -371.15 l -1065.99,548.1 c 0,0 -34.53,280.5 0,496.3 34.53,215.8 155.37,349.6 168.32,444.5 12.95,95 -21.58,309 107.89,482.5 129.47,173.5 345.08,294.3 345.08,294.3 l 325.3,356.8 161.12,-80.6" /><path
         id="path70"
         style="fill:#fbc398;fill-opacity:1;fill-rule:nonzero;stroke:none"
         d="m 8716.84,12734.4 c 0,0 772.52,-51.8 819.99,-73.3 47.48,-21.6 58.98,-319.4 47.48,-351 -11.51,-31.7 -40.29,-46.1 -40.29,-46.1 0,0 -31.64,-43.1 -77.68,-54.6 0,0 -57.54,-54.7 -97.82,-57.6 -40.28,-2.9 -60.42,0 -60.42,0 0,0 -40.28,-23 -83.44,-20.1 -43.16,2.9 -100.08,74.8 -100.08,74.8 l 68.43,43.1 c 0,0 -5.27,161.8 -29.25,150.7 -23.97,-11.1 -23.97,-11.1 -23.97,-11.1 l -346.77,-88.8 -110.71,88.8 c 0,0 -113.64,153.9 -90.63,199.9 23.02,46.1 125.16,145.3 125.16,145.3" /><path
         id="path72"
         style="fill:#2e62a3;fill-opacity:1;fill-rule:nonzero;stroke:none"
         d="m 8624.15,12215.2 c -146.05,541.4 -585.81,900 -1008.27,840.2 -0.14,0 -0.31,0 -0.45,0 -125.64,-5.7 -338.92,-86.3 -338.92,-86.3 l -389.54,-617.3 c 0,0 28.93,-75.5 77.17,-192.1 -2.35,-122.8 12.7,-250.8 47.42,-379.5 88.84,-329.3 286.4,-590.8 522.56,-731.9 82.99,-109.5 162.1,-179.2 228.73,-178.3 306.21,4.4 475.53,141.4 475.53,141.4 0,0 0.15,0.2 0.34,0.5 352.6,189.5 523.43,691.7 385.43,1203.3" /><path
         id="path74"
         style="fill:#3871c1;fill-opacity:1;fill-rule:nonzero;stroke:none"
         d="m 8363.81,12144.9 c 155.19,-575.3 -79.99,-1139 -525.29,-1259.2 -445.3,-120.1 -932.1,248.9 -1087.3,824.2 -155.19,575.4 79.98,1139.1 525.29,1259.2 445.3,120.2 932.1,-248.8 1087.3,-824.2" /><path
         id="path76"
         style="fill:#d4d3d1;fill-opacity:1;fill-rule:nonzero;stroke:none"
         d="m 7806.2,11996.3 c 30.73,-109.4 -12.25,-217.1 -96,-240.6 -83.75,-23.5 -176.56,46 -207.29,155.3 -30.73,109.3 12.25,217 96,240.5 83.75,23.6 176.56,-45.9 207.29,-155.2" /><path
         id="path78"
         style="fill:#9d9d9c;fill-opacity:1;fill-rule:nonzero;stroke:none"
         d="m 6066.32,11670.8 1588.24,355.9 c 0,0 56.71,-60.5 30.82,-146.8 l -1575.18,-357.4 -43.88,148.3" /><path
         id="path80"
         style="fill:#d4d3d1;fill-opacity:1;fill-rule:nonzero;stroke:none"
         d="m 6147.58,11614.2 c 12.11,-41 -4.63,-82 -37.38,-91.7 -32.76,-9.7 -69.15,15.6 -81.26,56.6 -12.11,40.9 4.62,82 37.38,91.7 32.76,9.7 69.14,-15.7 81.26,-56.6" /><path
         id="path82"
         style="fill:#e4a376;fill-opacity:1;fill-rule:nonzero;stroke:none"
         d="m 11699,13225 c 0,0 -23,-361.1 132.4,-576.6 l -339.2,-517 -126.9,49.1 c 0,0 243.1,385.5 281.9,503.6 38.9,118.1 -40.2,379.8 51.8,540.9" /><path
         id="path84"
         style="fill:#e7e7e6;fill-opacity:1;fill-rule:nonzero;stroke:none"
         d="m 14023.8,11579.3 c 0,0 -227.4,179.3 -457.5,394.6 -95.8,-130.5 -259.9,-230.6 -369.8,-291.6 89.3,-75.7 155.3,-132.4 177,-149.1 74.8,-57.6 172.7,-276.2 172.7,-276.2 0,0 63.3,-23 287.7,97.8 224.4,120.9 189.9,224.5 189.9,224.5" /><path
         id="path86"
         style="fill:#e7e7e6;fill-opacity:1;fill-rule:nonzero;stroke:none"
         d="m 14691.2,12336.7 c -119.1,-128.1 -289.9,-233.7 -399.5,-294 152.5,-114.9 273,-210.3 273,-210.3 0,0 155.3,-189.8 310.7,-164 155.4,25.9 181.3,215.8 181.3,215.8 0,0 -156.4,201.6 -365.5,452.5" /><path
         id="path88"
         style="fill:#df9866;fill-opacity:1;fill-rule:nonzero;stroke:none"
         d="m 8906.49,15818.9 c 0,0 90.84,-388.8 107.68,-427.7 16.84,-38.8 333.6,-149.5 333.6,-149.5 0,0 38.13,151 67.74,221.2 29.62,70.2 -287.7,480.6 -290.93,491.9 -3.21,11.3 -218.09,-135.9 -218.09,-135.9" /><g
         transform="scale(1.03999)"
         id="g90"><path
           id="path92"
           style="fill:#252323;fill-opacity:1;fill-rule:nonzero;stroke:none"
           d="m 8438.46,15321.9 c 0.74,-9.4 -37.35,-30.7 -37.35,-30.7 0,0 -9.54,-71.4 -21.23,-91.3 -11.69,-19.8 -69.25,-127.8 -69.69,-122.2 -0.44,5.7 -186.94,255.4 -209.66,327.5 -22.71,72.1 -74.23,294 -20.47,453.2 53.77,159.2 219.88,310.5 349.25,350.9 129.38,40.5 220.16,42 337.54,66.3 117.39,24.4 213.49,-41.9 296.34,-60 82.85,-18.1 158.02,-34.9 199.45,-128.2 41.41,-93.4 -10.56,-186.5 -10.56,-186.5 l -415.23,-628.4 c 0,0 -194.43,-96.1 -211.46,-72.2 -17.03,23.9 -186.93,121.6 -186.93,121.6" /></g><g
         transform="scale(1.01713)"
         id="g94"><path
           id="path96"
           style="fill:#fbc398;fill-opacity:1;fill-rule:nonzero;stroke:none"
           d="m 8792.55,15849.7 c 0,0 -127.24,75.2 -203.81,64 -76.58,-11.2 -56.63,-133.5 -35.39,-206.7 21.24,-73.2 82.12,-125.2 114.12,-138.2 32,-12.9 89.06,-16.2 89.06,-16.2 0,0 86.93,-284.9 159.49,-354.1 72.55,-69.1 556.47,-75.6 580.28,-58.3 23.8,17.4 30.46,376.1 30.46,376.1 0,0 108.62,22.1 118.81,40.3 10.19,18.3 -126.82,234 -120.52,277.1 6.3,43.1 16.96,30.4 19.07,102.2 2.1,71.8 -86.27,334 -90.57,339.5 -4.31,5.4 -228.48,24.6 -319.93,5.8 -91.46,-18.8 -64.12,-150.3 -74.27,-203.3 -10.14,-53.1 -111.55,-142.4 -120.06,-181.8 -8.53,-39.4 -7.3,-153.5 -22.1,-162.4 -14.78,-8.9 -51.8,-6 -51.8,-6 l -72.84,122" /></g><g
         id="g98"><g
           clip-path="url(#clipPath104)"
           id="g100"><path
             id="path106"
             style="fill:#e4a376;fill-opacity:1;fill-rule:nonzero;stroke:none"
             d="m 8980.1,13809.1 c 0,0 -185.58,17.2 -405.68,103.5 -220.1,86.3 -271.89,151.1 -271.89,151.1 0,0 0,-182.7 -43.16,-363.3 -43.15,-180.5 -211.89,-331.2 -211.89,-331.2 0,0 190.31,-56.5 203.26,-60.8 12.95,-4.3 129.47,47.5 129.47,47.5 0,0 86.79,251.3 77.69,431.6 0,0 306.41,-43.2 522.2,21.6" /></g></g><path
         id="path108"
         style="fill:#9d9d9c;fill-opacity:1;fill-rule:nonzero;stroke:none"
         d="m 13836.7,8359 1334.5,172.9 c 0,0 92.3,-54.6 14.2,-129.5 l -1431.6,-207.4 82.9,164" /><path
         id="path110"
         style="fill:#2e62a3;fill-opacity:1;fill-rule:nonzero;stroke:none"
         d="m 14868.6,8410.7 c -86.3,478 -454.1,823.1 -842,806.9 -0.1,0 -0.3,0.1 -0.4,0.1 -114.3,5.5 -314.4,-46 -314.4,-46 L 13306.3,8673 c 0,0 19.8,-67.3 53.6,-171.7 -12.6,-105.4 -9.9,-216.9 10.6,-330.5 52.5,-290.7 209.2,-532.1 411.1,-673.2 65.9,-101.1 131.6,-167.6 192.1,-172.4 277.8,-21.8 442.8,82 442.8,82 0,0 0.2,0.2 0.4,0.5 335.6,133.6 533.1,551.4 451.7,1003" /><path
         id="path112"
         style="fill:#3871c1;fill-opacity:1;fill-rule:nonzero;stroke:none"
         d="m 14626.7,8372 c 91.6,-507.9 -169.5,-973.3 -583.1,-1039.6 -413.7,-66.2 -823.3,291.8 -914.9,799.7 -91.6,507.9 169.4,973.3 583.1,1039.6 413.7,66.2 823.3,-291.8 914.9,-799.7" /><path
         id="path114"
         style="fill:#d4d3d1;fill-opacity:1;fill-rule:nonzero;stroke:none"
         d="m 14045.1,8334.6 c 24.2,-129.3 -51.5,-251.1 -169.1,-271.9 -117.6,-20.9 -232.5,67.1 -256.6,196.4 -24.2,129.3 51.5,251.1 169.1,272 117.6,20.8 232.5,-67.1 256.6,-196.5" /><path
         id="path116"
         style="fill:#b1b1b0;fill-opacity:1;fill-rule:nonzero;stroke:none"
         d="m 9756.23,4923.7 h -402.81 v 2134.7 h 402.81 V 4923.7" /><path
         id="path118"
         style="fill:#b1b1b0;fill-opacity:1;fill-rule:nonzero;stroke:none"
         d="m 11071.2,4952.1 -2548.57,213.3 -230.13,-48.9 2462.9,-204.2 315.8,39.8" /><path
         id="path120"
         style="fill:#8e908d;fill-opacity:1;fill-rule:nonzero;stroke:none"
         d="m 8292.5,5116.5 -71.05,-244.7 2573.45,-311.8 -39.5,352.3 -2462.9,204.2" /><path
         id="path122"
         style="fill:#d3d2d0;fill-opacity:1;fill-rule:nonzero;stroke:none"
         d="m 10755.4,4912.3 315.8,39.8 60,-293.4 -336.3,-98.7 -39.5,352.3" /><path
         id="path124"
         style="fill:#8e908d;fill-opacity:1;fill-rule:nonzero;stroke:none"
         d="m 9638.97,4923.7 h -402.8 v 2134.7 h 402.8 V 4923.7" /><path
         id="path126"
         style="fill:#252323;fill-opacity:1;fill-rule:nonzero;stroke:none"
         d="M 3999.74,6782.2 8220.53,7326 7866.46,6954 c 0,0 -1975.64,-371.9 -2295.8,-361.7 -320.15,10.3 -983.99,-26.3 -1096.19,-0.2 -112.21,26.1 -474.73,190.1 -474.73,190.1" /><path
         id="path128"
         style="fill:#b1b1b0;fill-opacity:1;fill-rule:nonzero;stroke:none"
         d="m 5570.66,3767.7 43.16,2289.5 3426.79,669.3 c 0,0 -1139.96,166.8 -1428.85,180.3 -288.9,13.5 -1596.58,-230.9 -1859.84,-271.8 -263.25,-41.1 -483.36,-4.5 -509.25,-97 -25.9,-92.4 -73.37,-636.4 -73.37,-636.4 V 3747.4 l 401.36,20.3" /><path
         id="path130"
         style="fill:#838585;fill-opacity:1;fill-rule:nonzero;stroke:none"
         d="m 5104.57,6538 c 25.89,2.5 353.89,166.6 353.89,166.6 l 2459.97,353.8 545.52,-250.8 -2893.29,-513.8 -466.09,244.2" /><path
         id="path132"
         style="fill:#b1b1b0;fill-opacity:1;fill-rule:nonzero;stroke:none"
         d="m 3775.32,4071.9 363.47,44 2674.81,-223.8 -345.26,-43.4 -2693.02,223.2" /><path
         id="path134"
         style="fill:#8e908d;fill-opacity:1;fill-rule:nonzero;stroke:none"
         d="m 5346.25,3674.9 h -353.9 v 2813.9 h 353.9 V 3674.9" /><path
         id="path136"
         style="fill:#494b4b;fill-opacity:1;fill-rule:nonzero;stroke:none"
         d="m 3999.74,6782.2 -94.95,-388.4 1665.87,-100 -112.2,410.8 -1458.72,77.6" /><path
         id="path138"
         style="fill:#8e908d;fill-opacity:1;fill-rule:nonzero;stroke:none"
         d="m 3775.32,4071.9 -77.69,-267.5 2813.87,-341 -43.16,385.3 -2693.02,223.2" /><path
         id="path140"
         style="fill:#d3d2d0;fill-opacity:1;fill-rule:nonzero;stroke:none"
         d="m 6468.34,3848.7 345.26,43.4 65.63,-320.8 -367.73,-107.9 -43.16,385.3" /><path
         id="path142"
         style="fill:#2f64a7;fill-opacity:1;fill-rule:nonzero;stroke:none"
         d="m 14340.3,4595.7 c 0,0 -267.6,-69.1 -293.5,-146.7 -25.9,-77.7 -95,-538.3 -95,-538.3 0,0 250.3,-333.5 284.9,-333.5 34.5,0 176.4,69 545.7,0 369.2,-69.1 1051.1,-69.1 1154.7,69 103.6,138.1 -17.3,310.8 -138.1,345.3 -120.9,34.5 -189.9,6.4 -302.1,72.3 -112.2,65.8 -532.8,274.7 -532.8,274.7 0,0 -88.7,239.9 -131.9,257.2 -43.1,17.3 -310.7,129.5 -310.7,129.5 l -181.2,-129.5" /><path
         id="path144"
         style="fill:#100f0d;fill-opacity:1;fill-rule:nonzero;stroke:none"
         d="m 12648.5,6252.9 c 0,0 178.4,-34.5 235.9,405.7 57.6,440.2 -279.1,466.1 -520.8,353.9 -241.6,-112.2 -440.2,-155.4 -474.7,-233 -34.5,-77.7 -267.6,-25.9 0,-181.3 267.6,-155.4 759.6,-345.3 759.6,-345.3" /><path
         id="path146"
         style="fill:#ecaf86;fill-opacity:1;fill-rule:nonzero;stroke:none"
         d="m 13718.8,8052.6 c 0,0 984,-142.4 1254.4,-366.8 270.5,-224.5 259,-569.7 218.7,-811.4 -40.3,-241.7 -57.6,-811.4 -247.4,-1277.4 -189.9,-466.2 -236,-1012.8 -236,-1012.8 0,0 -155.3,-345.3 -322.2,-351 -166.9,-5.8 -195.7,155.3 -195.7,184.1 0,28.8 51.8,834.4 11.5,1242.9 -40.2,408.6 11.6,621.5 86.4,926.5 74.8,305 74.8,305 74.8,305 l -460.4,-120.9 c 0,0 -863.1,260.4 -719.3,717.2 143.9,456.7 86.4,433.4 86.4,433.4 l 448.8,131.2" /><path
         id="path148"
         style="fill:#fbc398;fill-opacity:1;fill-rule:nonzero;stroke:none"
         d="m 12447.1,6540.7 753.8,97.8 c 0,0 -218.7,-328 -207.2,-880.4 11.5,-552.4 115.1,-903.5 126.6,-1300.5 11.5,-397.1 -5.7,-437.3 -5.7,-437.3 0,0 5.7,-115.1 86.3,-109.4 80.6,5.8 443.1,425.9 443.1,425.9 0,0 46,863.1 166.8,1415.5 120.9,552.4 218.7,1150.2 189.9,1455.5 -28.7,305.3 -471.8,472.2 -471.8,472.2 0,0 -569.7,200.8 -1041.5,241.4 0,0 -250.1,-143.2 -310.8,-351 -80.5,-275.9 270.5,-1029.7 270.5,-1029.7" /><path
         id="path150"
         style="fill:#252323;fill-opacity:1;fill-rule:nonzero;stroke:none"
         d="m 10899.2,8157.6 c 0,0 1001.2,11.5 1087.5,0 86.3,-11.5 1145.1,-14.5 1271.7,-44.7 126.6,-30.1 460.4,-60.3 460.4,-60.3 0,0 -120.9,-165.4 -149.6,-223 -28.8,-57.5 -40.3,-149.6 -40.3,-149.6 l -644.5,181.9 -397,59.5 c 0,0 -276.2,-155.6 -310.8,-351 -34.5,-195.4 189.9,-874.4 270.5,-1029.7 80.5,-155.4 201.4,-287.8 201.4,-287.8 0,0 -195.7,57.6 -615.7,46.1 -420.1,-11.5 -897.7,-11.5 -1099.1,23 -201.4,34.5 -627.2,443.1 -627.2,443.1 0,0 -472.37,224.4 -457.74,351 14.63,126.6 118.31,355.5 175.74,454.3 57.5,98.8 314.4,291.5 314.4,291.5 l 560.3,295.7" /><path
         id="path152"
         style="fill:#3a70c0;fill-opacity:1;fill-rule:nonzero;stroke:none"
         d="m 8798.35,6540.7 c 81.05,0 765.82,97.8 806.09,97.8 40.29,0 230.18,-69.1 425.86,0 195.6,69 276.2,126.6 276.2,126.6 0,0 -172.7,299.2 -143.9,500.6 28.8,201.4 247.4,489.1 368.3,604.2 120.8,115.1 368.3,287.7 368.3,287.7 0,0 -57.6,-17.2 -362.6,0 -304.9,17.3 -512.6,51.8 -687.84,40.3 -175.26,-11.5 -549.29,-85 -549.29,-85 0,0 -103.58,-169 -172.63,-476.5 C 9057.78,7329 8798.35,6540.7 8798.35,6540.7" /><path
         id="path154"
         style="fill:none;stroke:#ed2023;stroke-width:10;stroke-linecap:butt;stroke-linejoin:miter;stroke-miterlimit:10;stroke-dasharray:none;stroke-opacity:1"
         d="m 7677.68,7756.9 240.75,-25.1 v 138.1 z" /><path
         id="path156"
         style="fill:#252323;fill-opacity:1;fill-rule:nonzero;stroke:none"
         d="m 7583.33,7610.1 c 9.55,2.3 37.5,-33.5 37.5,-33.5 0,0 74.97,1.7 97.24,-7.2 22.27,-8.8 142.45,-50.7 136.72,-52.1 -5.74,-1.3 -232.63,-232.9 -303.06,-267.7 -70.43,-34.9 -290.25,-123.3 -462.43,-93.5 -172.19,29.9 -354.2,176.4 -416.44,302.9 -62.25,126.5 -78.25,219.5 -122.05,336.3 -43.79,116.7 8.98,226.1 14.36,314.1 5.37,88 10.65,168 99.93,225.4 89.28,57.5 193.26,19 193.26,19 l 712.18,-326.4 c 0,0 129.79,-184.4 107.94,-205.7 -21.85,-21.4 -95.15,-211.6 -95.15,-211.6" /><path
         id="path158"
         style="fill:#ecaf86;fill-opacity:1;fill-rule:nonzero;stroke:none"
         d="m 7373.42,7746.7 c 0,0 -55.7,-139.6 -32.5,-214.9 23.2,-75.2 143.05,-36 213.3,-3.2 70.25,32.8 113.02,102.1 121.05,136.3 8.05,34.2 2.41,92 2.41,92 0,0 272.75,131.9 330.93,215.6 58.18,83.7 -10.89,571.1 -32.05,592.3 -21.17,21.2 -382.75,-28.1 -382.75,-28.1 0,0 -39.17,105.7 -59.07,113.1 -19.92,7.4 -215.37,-164 -259.66,-164.4 -44.3,-0.4 -33.19,12.3 -105.68,3.2 -72.5,-9.1 -322.21,-138.9 -327.03,-144.1 -4.83,-5.1 10.93,-233.4 44.11,-322.4 33.19,-89 161.03,-41 215.96,-42.9 54.93,-1.9 160.51,-89.9 201.44,-92.3 40.92,-2.4 155.45,16.7 166.71,3.2 11.26,-13.5 14.13,-51.1 14.13,-51.1 l -111.3,-92.3" /><path
         id="path160"
         style="fill:#d7996f;fill-opacity:1;fill-rule:nonzero;stroke:none"
         d="m 7990.52,8518.4 c 0,0 -124.43,-402.1 -171.63,-449 -47.2,-47 -248.26,-268.5 -248.26,-268.5 l 209.95,-93.6 293.21,283.4 c 0,0 -67.28,423.9 -83.27,527.7" /><path
         id="path162"
         style="fill:#e1a67c;fill-opacity:1;fill-rule:nonzero;stroke:none"
         d="m 10350.1,7655.4 c 0,0 -25.3,-41.5 0,-42.2 25.3,-0.8 166.4,-91.4 215.3,-91.4 48.9,0 69.1,-0.5 77.7,48.6 8.6,49.2 0,109.6 0,109.6 l -293,-24.6" /><path
         id="path164"
         style="fill:#fbc398;fill-opacity:1;fill-rule:nonzero;stroke:none"
         d="m 7774.57,7898.7 c 0,0 -324.91,-117.3 -438.66,-306.1 -113.75,-188.8 -24.66,-495.2 100.55,-638.3 125.2,-143.2 274.07,-172.1 274.07,-172.1 0,0 248.18,-143.7 510,-68.9 261.82,74.8 60.42,949.5 48.91,984 -11.51,34.5 -195.65,293.4 -195.65,293.4 l -299.22,-92" /><path
         id="path166"
         style="fill:#9d9d9c;fill-opacity:1;fill-rule:nonzero;stroke:none"
         d="m 8682.31,7563.6 85.07,72.8 2746.02,416.2 c 0,0 -43.1,-73.4 -90.6,-90.6 -47.5,-17.3 -211.5,-56.1 -241.7,-69.1 -30.2,-12.9 -107.9,-84.8 -107.9,-84.8 L 8788.18,7488 l -105.87,75.6" /><path
         id="path168"
         style="fill:#fbc398;fill-opacity:1;fill-rule:nonzero;stroke:none"
         d="m 9610.2,7990.7 c 25.89,10.1 194.21,-15.8 435.9,40.3 241.7,56.1 499.2,89.2 556.7,80.6 57.6,-8.6 132.4,-328 126.6,-376.9 -5.7,-48.9 -86.3,-54.7 -86.3,-54.7 0,0 -11.5,-37.4 -69,-37.4 -57.6,0 -60.5,0 -69.1,0 -8.6,0 -20.1,-34.5 -86.3,-31.6 -66.2,2.8 -175.5,2.8 -195.7,14.4 -20.1,11.5 -25.8,60 -25.8,60 l 78.2,10.9 -64.3,158.9 -528.99,-80.1 -117.94,198.4 46.03,17.2" /><path
         id="path170"
         style="fill:#100f0d;fill-opacity:1;fill-rule:nonzero;stroke:none"
         d="m 12884.4,7861.9 c 0,0 -17.3,183.5 -120.8,190.7 -103.6,7.2 -276.2,-131.2 -276.2,-131.2 l 397,-59.5" /><path
         id="path172"
         style="fill:#9d9d9c;fill-opacity:1;fill-rule:nonzero;stroke:none"
         d="m 11513.4,8052.6 2323.3,306.4 c 0,0 60.5,-82 0,-153.2 l -647.4,-84.2 -347.8,15.2 -247.7,-83.9 -874.6,-21.9 -205.8,21.6" /><path
         id="path174"
         style="fill:#fbc398;fill-opacity:1;fill-rule:nonzero;stroke:none"
         d="m 11703.3,8162.7 c 0,0 434.9,88.4 461.3,101.4 26.4,12.9 503.5,172.6 523.9,176.9 20.4,4.3 89.4,0 89.4,0 0,0 72.7,8.2 106.5,1.9 33.8,-6.2 66.2,-70.9 66.2,-70.9 0,0 69,-8.7 101.4,-38.9 32.4,-30.2 80,-170.9 43.2,-207.4 -36.7,-36.4 -69.1,0 -69.1,0 0,0 -56.1,-8.9 -79.8,-16.2 -23.8,-7.3 -36.7,-7.8 -49.7,0 -12.9,7.8 -21.5,-25.6 -94.9,-5.6 -73.4,19.9 -102.8,105.1 -115.8,103.3 -13.1,-1.7 -575.2,-75.8 -575.2,-75.8 l -293,-11.9 -114.4,43.2" /><path
         id="path176"
         style="fill:#e4a376;fill-opacity:1;fill-rule:nonzero;stroke:none"
         d="m 12777.9,8376.3 c 0,0 36.7,-30.8 79.9,-104.9 43.1,-74.2 38.8,-161.9 38.8,-161.9 h 49.7 c 0,0 -13,115.2 -38.9,161.9 -25.9,46.6 -129.5,104.9 -129.5,104.9" /><path
         id="path178"
         style="fill:#e4a376;fill-opacity:1;fill-rule:nonzero;stroke:none"
         d="m 12931.2,8337.4 c 0,0 43.1,-60.4 58.2,-105.7 15.1,-45.3 36.7,-106 36.7,-106 0,0 17.4,-30.5 43.3,-15.2 0,0 -34.2,119.9 -47.4,141.1 -13.2,21.1 -90.8,85.8 -90.8,85.8" /><path
         id="path180"
         style="fill:#3a70c0;fill-opacity:1;fill-rule:nonzero;stroke:none"
         d="m 13261.3,4086.4 c 0,25.9 -215.8,43.2 -293.5,0 -77.6,-43.1 -250.3,-681.8 -207.1,-742.3 43.1,-60.4 405.7,-138.1 500.6,-138.1 95,0 69.1,69.1 310.8,0 241.6,-69 699.1,-181.2 1009.8,-120.8 310.8,60.4 336.7,284.8 250.3,379.8 -86.3,94.9 -129.4,17.2 -328,164 -198.5,146.7 -552.4,371.1 -586.9,405.6 -34.5,34.6 31.7,276.3 -273.3,302.2 -305,25.8 -382.7,-250.4 -382.7,-250.4" /><path
         id="path182"
         style="fill:#e7e7e6;fill-opacity:1;fill-rule:nonzero;stroke:none"
         d="m 13091.8,4795.8 c 14.2,-112.8 25.2,-223.6 28.5,-338.2 11.5,-397.1 -5.7,-437.3 -5.7,-437.3 0,0 5.7,-115.1 86.3,-109.4 80.6,5.8 443.1,425.8 443.1,425.8 0,0 11.4,213.3 37.6,495.7 -191.3,-24.9 -439.7,-33.5 -589.8,-36.6" /><path
         id="path184"
         style="fill:#e7e7e6;fill-opacity:1;fill-rule:nonzero;stroke:none"
         d="m 14215.3,5045.8 c -6.4,-319.6 -24.7,-611.4 -24.7,-628.5 0,-28.8 28.8,-189.9 195.7,-184.1 166.9,5.7 322.2,351 322.2,351 0,0 17.3,203.9 73.9,468.7 -201.1,-11.8 -414.8,-10.6 -567.1,-7.1" /><path
         id="path186"
         style="fill:#2e62a3;fill-opacity:1;fill-rule:nonzero;stroke:none"
         d="m 9747.52,7758.8 c -109.01,550.1 -523.44,937.7 -948.98,906.7 -0.15,0 -0.31,0 -0.45,0 -125.74,2.8 -343.99,-63.1 -343.99,-63.1 l -430.51,-589.5 c 0,0 23.76,-77.3 63.97,-196.9 -10.65,-122.3 -4.32,-251.1 21.59,-381.9 66.31,-334.6 245.69,-608.8 471.74,-765.6 75.38,-114.9 149.58,-189.8 216.12,-193.4 305.8,-16.4 484.02,108.8 484.02,108.8 0,0 0.16,0.3 0.38,0.6 364.63,165.1 569.11,654.6 466.11,1174.3" /><path
         id="path188"
         style="fill:#3871c1;fill-opacity:1;fill-rule:nonzero;stroke:none"
         d="m 9483.02,7706.4 c 115.83,-584.5 -157.02,-1131 -609.45,-1220.7 -452.42,-89.7 -913.09,311.5 -1028.92,896 -115.84,584.5 157.02,1131 609.44,1220.7 452.43,89.7 913.09,-311.5 1028.93,-896" /><path
         id="path190"
         style="fill:#d4d3d1;fill-opacity:1;fill-rule:nonzero;stroke:none"
         d="m 8916.61,7595.8 c 23.25,-111.1 -26.93,-215.6 -112.09,-233.5 -85.15,-17.8 -173.04,57.9 -196.28,169 -23.25,111.2 26.93,215.7 112.09,233.5 85.15,17.8 173.03,-57.8 196.28,-169" /><path
         id="path192"
         style="fill:#9d9d9c;fill-opacity:1;fill-rule:nonzero;stroke:none"
         d="m 7158.67,7389.1 1608.71,247.3 c 0,0 52.49,-64.1 20.8,-148.4 l -1595.79,-249.9 -33.72,151" /><path
         id="path194"
         style="fill:#d4d3d1;fill-opacity:1;fill-rule:nonzero;stroke:none"
         d="m 7235.9,7327.1 c 9.31,-41.7 -10.17,-81.5 -43.51,-89 -33.34,-7.4 -67.92,20.3 -77.23,62 -9.31,41.7 10.17,81.5 43.51,89 33.34,7.4 67.92,-20.3 77.23,-62" /></g></g></svg>