<?xml version="1.0" encoding="UTF-8" standalone="no"?>
<svg
   xmlns:dc="http://purl.org/dc/elements/1.1/"
   xmlns:cc="http://creativecommons.org/ns#"
   xmlns:rdf="http://www.w3.org/1999/02/22-rdf-syntax-ns#"
   xmlns:svg="http://www.w3.org/2000/svg"
   xmlns="http://www.w3.org/2000/svg"
   viewBox="0 0 2666.6667 2666.6667"
   height="2666.6667"
   width="2666.6667"
   xml:space="preserve"
   id="svg2"
   version="1.1"><metadata
     id="metadata8"><rdf:RDF><cc:Work
         rdf:about=""><dc:format>image/svg+xml</dc:format><dc:type
           rdf:resource="http://purl.org/dc/dcmitype/StillImage" /></cc:Work></rdf:RDF></metadata><defs
     id="defs6" /><g
     transform="matrix(1.3333333,0,0,-1.3333333,0,2666.6667)"
     id="g10"><g
       transform="scale(0.1)"
       id="g12"><g
         transform="scale(1.22699)"
         id="g14"><path
           id="path16"
           style="fill:none;fill-opacity:1;fill-rule:nonzero;stroke:none"
           d="M 16300,0 H 0 V 16300 H 16300 V 0" /></g><path
         id="path18"
         style="fill:#797a7b;fill-opacity:1;fill-rule:nonzero;stroke:none"
         d="m 12747.8,12249.4 -98.4,58.2 v -291.4 l 302.1,-602.8 -15.7,366.1 -188,469.9" /><path
         id="path20"
         style="fill:#c1bfbd;fill-opacity:1;fill-rule:nonzero;stroke:none"
         d="m 12649.4,12307.6 286.4,-528.1 h 317.7 l -176.7,324.5 -208.1,203.6 h -219.3" /><path
         id="path22"
         style="fill:#8d8d8d;fill-opacity:1;fill-rule:nonzero;stroke:none"
         d="m 13253.5,11779.5 v -366.1 h -302 l -15.7,366.1 h 317.7" /><path
         id="path24"
         style="fill:#8d8d8d;fill-opacity:1;fill-rule:nonzero;stroke:none"
         d="m 5274.59,11886.9 c -13.42,-4.4 -118.58,-78.3 -118.58,-78.3 v -364.7 l 382.61,56 c 0,0 111.87,355.7 93.97,387 -17.9,31.4 -138.72,138.8 -192.42,111.9 -53.71,-26.8 -165.58,-111.9 -165.58,-111.9" /><path
         id="path26"
         style="fill:#ccccc9;fill-opacity:1;fill-rule:nonzero;stroke:none"
         d="m 5156.01,11808.6 315.42,-26.8 67.19,-281.9 382.61,624.2 -60.41,255.1 h -134.25 c 0,0 -73.84,912.9 -20.14,1268.7 53.7,355.7 389.33,557.1 778.65,577.2 389.32,20.2 5450.52,67.2 5725.72,20.2 275.3,-47 543.8,-288.7 577.3,-704.9 33.6,-416.1 53.7,-1436.4 53.7,-1436.4 h 235 c 0,0 46.9,1382.8 0,1725.1 -47,342.3 -342.5,697.5 -906.3,778.3 -563.8,80.9 -1409.6,174.9 -1510.2,154.7 -100.7,-20.1 -4343.03,-73.8 -4343.03,-73.8 0,0 -711.66,-188 -845.84,-678 -134.19,-490 -87.2,-1886.2 -87.2,-1886.2 l -228.22,-315.5" /><path
         id="path28"
         style="fill:#8d8d8d;fill-opacity:1;fill-rule:nonzero;stroke:none"
         d="m 5749.2,14997.1 v -352.4 c 0,0 6928.2,-40.3 6958.4,-40.3 30.2,0 80.5,293.2 80.5,293.2 0,0 -916.2,151.6 -1228.4,377.2 -312.1,225.7 -513.5,487.5 -1570.7,467.4 -1057.21,-20.2 -2397.48,-119.1 -2512.71,-140.1 -115.23,-21.1 -795.73,-117.9 -795.73,-117.9 l -504.1,-124.7 -427.26,-362.4" /><path
         id="path30"
         style="fill:#535456;fill-opacity:1;fill-rule:nonzero;stroke:none"
         d="m 11559.7,15274.8 c -312.1,225.7 -513.5,487.5 -1570.7,467.4 -1057.21,-20.2 -2397.48,-119.1 -2512.71,-140.1 -115.23,-21.1 -795.73,-117.9 -795.73,-117.9 l -504.1,-124.7 -427.25,-362.4 h 6560.29 c -272.4,66.2 -590.1,162.3 -749.8,277.7" /><path
         id="path32"
         style="fill:#100f0d;fill-opacity:1;fill-rule:nonzero;stroke:none"
         d="m 13593.6,12641 -167.8,-47 c 0,0 -122.5,-13.4 -128.4,-40.3 -5.8,-26.8 -86.4,-610.8 -66.3,-631 20.2,-20.1 980.1,-40.2 1221.7,-33.5 241.7,6.7 617.6,140.9 664.6,228.2 46.9,87.3 0,188 -141,241.7 -141,53.7 -879.3,328.9 -879.3,328.9 l -503.5,-47" /><path
         id="path34"
         style="fill:#252323;fill-opacity:1;fill-rule:nonzero;stroke:none"
         d="m 13727.9,12379.2 c 0,0 -174.6,-31.3 -201.4,-120.8 -26.9,-89.5 -71.6,-375.9 -152.2,-537 -80.5,-161.1 71.6,-264.1 246.2,-282 174.5,-17.9 295.3,58.2 680.2,0 384.8,-58.1 698.1,-8.9 944.2,49.3 246.1,58.1 259.5,174.5 134.2,295.3 -125.3,120.8 -344.5,80.6 -532.5,174.5 -187.9,94 -483.3,447.5 -545.9,492.3 -62.7,44.7 -125.3,17.9 -125.3,17.9 0,0 -147.7,49.2 -214.8,31.3 -67.2,-17.9 -232.7,-120.8 -232.7,-120.8" /><path
         id="path36"
         style="fill:#b55e37;fill-opacity:1;fill-rule:nonzero;stroke:none"
         d="m 13439.2,14909.8 c 0,0 -154.4,-369.2 -140.9,-724.9 13.4,-355.8 134.2,-792.1 140.9,-1087.5 6.7,-295.3 -26.8,-593.5 -26.8,-593.5 0,0 288.6,-56.5 396,0 107.4,56.5 288.7,1882.3 288.7,1882.3 0,0 -234.8,671.3 -342.3,664.6 -107.5,-6.7 -315.6,-141 -315.6,-141" /><path
         id="path38"
         style="fill:#e3e2e0;fill-opacity:1;fill-rule:nonzero;stroke:none"
         d="m 13440,12996.4 c -1.3,-258.6 -27.6,-492.5 -27.6,-492.5 0,0 288.6,-56.5 396,0 34.7,18.3 77,220.9 118.5,486.9 -162.2,-5.6 -357.3,0.1 -486.9,5.6" /><path
         id="path40"
         style="fill:#c37140;fill-opacity:1;fill-rule:nonzero;stroke:none"
         d="m 13222.2,14844.9 434.1,-58.2 c 0,0 -192.5,-451.9 -170.1,-832.3 22.4,-380.4 134.3,-666.8 152.2,-1078.5 17.9,-411.7 -44.8,-751.8 -44.8,-751.8 0,0 170.1,-116.3 210.3,-107.4 40.3,9 264.1,138.7 268.5,152.2 4.5,13.4 22.4,219.2 40.3,241.6 17.9,22.4 62.7,58.2 62.7,58.2 0,0 17.9,716 111.8,1190.3 94,474.4 201.4,1235.1 196.9,1521.5 -4.4,286.4 -335.6,657.9 -872.6,725 -537,67.1 -617.5,-143.2 -577.3,-367 40.3,-223.7 188,-693.6 188,-693.6" /><g
         transform="scale(1.00874)"
         id="g42"><path
           id="path44"
           style="fill:#252323;fill-opacity:1;fill-rule:nonzero;stroke:none"
           d="m 10441.4,15053.4 208.5,-53.2 c 0,0 403.8,-248.4 465.8,-257.3 62.2,-8.9 230.7,39.9 350.5,0 119.8,-40 683.2,-62.1 967.1,-115.4 283.9,-53.2 470.2,-141.9 514.6,-173 44.3,-31 75.5,-133.1 150.8,-93.1 75.4,39.9 399.3,1384.1 394.8,1406.2 -4.4,22.2 -1100.1,386 -1179.9,386 -79.9,0 -421.6,17.7 -483.6,26.6 -62.2,8.9 -275.1,84.3 -452.6,102 -177.4,17.8 -727.5,-102 -727.5,-102 0,0 -283.9,-212.9 -275,-412.6 8.8,-199.6 66.5,-714.2 66.5,-714.2" /></g><path
         id="path46"
         style="fill:#9f4d2d;fill-opacity:1;fill-rule:nonzero;stroke:none"
         d="m 6881.31,15348.6 219.08,140.7 c 0,0 -107.4,232.7 -183.47,299.8 -76.08,67.2 -31.33,170.1 -201.38,62.7 -170.05,-107.4 -329.54,31.9 -249.8,-205.6 79.75,-237.4 8.92,-250 102.51,-315.3 93.59,-65.3 313.06,17.7 313.06,17.7" /><g
         transform="scale(1.02743)"
         id="g48"><path
           id="path50"
           style="fill:#9f4d2d;fill-opacity:1;fill-rule:nonzero;stroke:none"
           d="m 5601.22,16064.8 -32.7,-83.5 c 0,0 -29.8,-37.3 -37.1,-55.3 -7.32,-18.1 3.08,-231.4 -8.39,-251.9 -11.48,-20.6 -86.53,-65.9 -86.53,-65.9 l -39.91,62.4 c 0,0 -244.37,-58.8 -275.46,-52.5 -31.07,6.3 -72.99,66.3 -84.71,76.3 -11.71,10 -92.35,62.6 -105.1,85.6 -12.75,23 -14.04,66.6 -22.09,85.6 -8.06,19 -37.57,60.4 -49.7,103.1 -12.14,42.7 -5.67,126.3 5.81,146.8 11.48,20.6 179.11,110.4 206.64,121.3 27.52,10.9 217.81,63.2 217.81,63.2 l 311.43,-235.2" /></g><g
         transform="scale(1.05838)"
         id="g52"><path
           id="path54"
           style="fill:#757879;fill-opacity:1;fill-rule:nonzero;stroke:none"
           d="m 4921.58,15480.6 h 293.16 c -26.07,79 -60.56,191.6 -47.84,209.6 19.07,26.9 65.24,210.7 67.26,212.3 2.01,1.6 -81.43,393.1 -107.04,395.3 -25.63,2.2 -327.43,-43 -364.69,-54.4 -37.27,-11.5 -266.27,-118.7 -272.35,-148.9 -6.09,-30.2 84.46,-315.7 107.2,-335.1 22.75,-19.4 221.32,-52.1 221.32,-52.1 l 102.98,-226.7" /></g><path
         id="path56"
         style="fill:#757879;fill-opacity:1;fill-rule:nonzero;stroke:none"
         d="m 5490.89,15364.5 c 0,0 531.37,176.9 548.52,215.3 17.15,38.4 -140.29,409.7 -161.43,421.5 -21.13,11.8 -254.27,-20.2 -254.27,-20.2 l -79.07,119.4 -206.44,-0.7 c 0,0 47.23,-169.9 42.13,-190.5 -5.1,-20.6 -144.28,-134.1 -153.15,-192.1 -8.86,-57.9 97.49,-313 137.21,-346.8 39.73,-33.9 126.5,-5.9 126.5,-5.9" /><g
         transform="scale(1.04506)"
         id="g58"><path
           id="path60"
           style="fill:#9f4d2d;fill-opacity:1;fill-rule:nonzero;stroke:none"
           d="m 5351.18,15512.1 c 0,0 65.94,0.1 84.35,17.2 18.42,17.1 474.6,155.7 474.6,155.7 l 271.76,-86.5 394.27,-476.4 286.57,562.9 c 0,0 47.11,615 -466.74,525.1 -513.84,-89.9 -646.58,-86.9 -852.12,-219 -205.54,-132.2 -325.56,-149.3 -308.37,-247.8 17.19,-98.5 115.68,-231.2 115.68,-231.2" /></g><path
         id="path62"
         style="fill:#2f1d16;fill-opacity:1;fill-rule:nonzero;stroke:none"
         d="m 5722.86,16112.3 c -177.97,36.5 -236.26,-108.9 -255.95,-169.9 -19.68,-61 -65.4,-82.2 -74.71,-269.5 -9.32,-187.2 76.76,-231 88.55,-290.2 11.78,-59.3 85.93,-179.8 144.79,-277.4 58.86,-97.6 155.46,-113.6 190.45,-141.6 0,0 101.46,-207.2 441.79,-117 340.32,90.2 590.37,452.2 623.53,495.3 0,0 -298.89,234.1 -379.03,280.6 -17.9,112.3 -48.24,290.1 -61.32,292.8 -19.13,4 -627.24,157.8 -627.24,157.8 l -73.92,37.3 c 0,0 -5.38,4.4 -14.93,10.1 l -2.01,-8.3" /><g
         transform="scale(1.01185)"
         id="g64"><path
           id="path66"
           style="fill:#b55e37;fill-opacity:1;fill-rule:nonzero;stroke:none"
           d="m 5655.85,15923.7 c 0,0 189.04,126.4 234.71,147.7 45.68,21.4 198.14,26.5 220.66,34.6 22.53,8 233.07,194 248.65,193.7 15.59,-0.3 51.69,-93 60.64,-94.6 8.95,-1.6 100.07,8.3 108.28,12.6 8.19,4.2 27.32,5.5 27.32,5.5 0,0 35.75,15.1 55.9,11.4 20.16,-3.7 52.96,0.4 65.9,0.4 12.92,0.1 147.83,30.1 171.07,17.6 23.25,-12.5 93.16,-363 90.67,-410.1 -2.5,-47.1 -179.58,-280.7 -222.9,-313.7 -43.32,-32.9 -188.41,-65.9 -188.41,-65.9 0,0 2.73,-123.6 -83.91,-189.5 -86.64,-66 -259.94,-87.4 -306.31,4.9 -46.38,92.4 73.39,165 105.8,183.7 32.43,18.7 73.45,46 75.76,51.6 2.29,5.6 -87.06,8 -145.77,16.7 -58.7,8.8 -213.17,-41.4 -275.83,-38.6 -62.66,2.8 -143.09,67.5 -163.75,101.2 -20.67,33.8 -78.48,330.8 -78.48,330.8" /></g><path
         id="path68"
         style="fill:#2f1d16;fill-opacity:1;fill-rule:nonzero;stroke:none"
         d="m 6394.55,15697.4 c 0,0 -13.18,32.2 -32.05,30.6 -18.87,-1.6 -162.84,-4.4 -162.84,-4.4 0,0 -50.08,36.4 -114.35,11.3 -64.27,-25.1 -74.78,-34.3 -113.73,-7.9 -38.95,26.4 -120.89,-6.2 -145.1,22.2 -24.21,28.5 -78.24,222.6 -78.24,222.6 0,0 -135.56,71.1 -107.35,-75.9 28.22,-147.1 85.24,-293.6 164.11,-350.3 78.88,-56.6 10.49,-103.1 131.69,-49.4 121.22,53.7 457.86,201.2 457.86,201.2" /><path
         id="path70"
         style="fill:#2f1d16;fill-opacity:1;fill-rule:nonzero;stroke:none"
         d="m 5915.8,14867.7 c 0,0 -68.8,27.8 -95.63,48.7 -26.83,21 -85.82,33.7 -109.15,57.7 -23.32,24 -49.24,58 -54.81,63 -5.57,5 -76.35,46.8 -98.36,99 -22.01,52.2 -34.83,85.3 -40.46,98.9 -5.64,13.6 -67.51,79.1 -85.05,138.9 -17.54,59.8 -14.03,62.8 -23.29,90.4 -9.26,27.6 -43.97,104.4 -42.3,222.8 1.66,118.3 100.16,255.3 100.16,255.3 l 276.21,-302.1 243.14,-428.2 -70.46,-344.4" /><g
         transform="scale(1.06771)"
         id="g72"><path
           id="path74"
           style="fill:#b55e37;fill-opacity:1;fill-rule:nonzero;stroke:none"
           d="m 6599.8,16184.7 71.25,92.2 c 0,0 161.36,23.1 264.05,-46.1 102.68,-69.1 224.23,-345.7 249.38,-385.6 25.14,-39.8 207.46,-427.5 201.18,-429.5 -6.3,-2.1 -257.77,-79.7 -303.87,-25.2 -46.11,54.5 -481.99,794.2 -481.99,794.2" /></g><g
         transform="scale(1.02803)"
         id="g76"><path
           id="path78"
           style="fill:#e9eef1;fill-opacity:1;fill-rule:nonzero;stroke:none"
           d="m 7459.66,16043.2 c 0,0 374.36,164.3 522.36,181.8 148,17.4 265.53,-17.5 265.53,-17.5 0,0 465.77,92.5 753.08,22.3 287.3,-70.1 526.7,-187.7 822.67,-213.8 296,-26.1 626.8,-139.3 626.8,-139.3 v -1157.9 c 0,0 -800.88,-69.6 -1227.48,-78.3 -426.59,-8.7 -1324.87,-181.2 -1565.37,-146.7 -240.5,34.6 -384.77,683 -384.77,683 l 187.18,866.4" /></g><path
         id="path80"
         style="fill:#c37140;fill-opacity:1;fill-rule:nonzero;stroke:none"
         d="m 6878.25,15602.1 c 0,0 2.87,-204.2 93.49,-391.6 90.61,-187.5 385.97,-213.4 396.03,-213.4 10.07,0 234.94,-104.1 453.1,-99.5 218.15,4.6 335.62,78.4 335.62,78.4 0,0 268.5,67.3 362.47,298.8 93.98,231.5 73.84,694.7 -43.62,781.9 -117.47,87.3 -288.01,105.3 -288.01,105.3 l -249,-71.7 -117.46,92.6 -369.19,-82.5 -573.43,-498.3" /><path
         id="path82"
         style="fill:#f2f2f2;fill-opacity:1;fill-rule:nonzero;stroke:none"
         d="m 13641.1,12780.6 c 5.7,-367.6 -47.5,-656.5 -47.5,-656.5 0,0 170.1,-116.3 210.3,-107.4 40.3,9 264.1,138.7 268.5,152.2 4.5,13.4 22.4,219.2 40.3,241.6 17.9,22.4 62.7,58.2 62.7,58.2 0,0 3.4,135 14.9,326.5 -207.6,-15 -429.9,-15.7 -549.2,-14.6" /><path
         id="path84"
         style="fill:#9f4d2d;fill-opacity:1;fill-rule:nonzero;stroke:none"
         d="m 7820.87,16182.9 c 0,0 4.47,-349 0,-389.3 -4.48,-40.3 80.55,-191.5 80.55,-191.5 0,0 -8.95,187 31.32,263.1 40.28,76.1 254.59,296.8 254.59,296.8 0,0 -236.69,29.9 -366.46,20.9" /><path
         id="path86"
         style="fill:#959698;fill-opacity:1;fill-rule:nonzero;stroke:none"
         d="m 5282.09,15221.4 c 0,0 531.37,176.9 548.52,215.3 17.15,38.3 -140.29,409.7 -161.43,421.4 -21.13,11.8 -254.27,-20.2 -254.27,-20.2 l -79.07,119.5 -206.44,-0.7 c 0,0 58.64,-187.3 53.54,-207.9 -5.09,-20.6 -155.69,-116.7 -164.56,-174.7 -8.86,-57.9 97.49,-313 137.22,-346.9 39.72,-33.9 126.49,-5.8 126.49,-5.8" /><g
         transform="scale(1.0496)"
         id="g88"><path
           id="path90"
           style="fill:#959698;fill-opacity:1;fill-rule:nonzero;stroke:none"
           d="m 4887,15202.6 -227.03,499.7 c 0,0 -200.22,33.1 -223.16,52.6 -22.94,19.6 -114.24,307.4 -108.1,337.9 6.13,30.4 237.05,138.6 274.62,150.1 37.58,11.5 341.9,57.1 367.73,54.9 25.85,-2.2 109.98,-397 107.94,-398.6 -2.03,-1.6 -48.58,-186.9 -67.81,-214.1 -19.22,-27.2 68.36,-268.3 74.3,-289.2 5.94,-20.9 -198.49,-193.3 -198.49,-193.3" /></g><g
         transform="scale(1.01865)"
         id="g92"><path
           id="path94"
           style="fill:#c37140;fill-opacity:1;fill-rule:nonzero;stroke:none"
           d="m 5444.52,16062.7 -32.98,-84.1 c 0,0 -30.06,-37.6 -37.42,-55.9 -7.37,-18.2 3.11,-233.3 -8.47,-254 -11.57,-20.8 -87.25,-66.5 -87.25,-66.5 l -40.27,63 c 0,0 -246.48,-59.3 -277.83,-53 -31.36,6.4 -73.62,66.9 -85.44,77 -11.82,10 -93.15,63.1 -106.01,86.3 -12.86,23.2 -14.16,67.2 -22.28,86.4 -8.15,19.2 -37.9,60.9 -50.14,104 -12.23,43.1 -5.71,127.3 5.86,148.1 11.57,20.7 180.66,111.3 208.42,122.3 27.78,11 219.7,63.7 219.7,63.7 l 314.11,-237.3" /></g><g
         transform="scale(1.06959)"
         id="g96"><path
           id="path98"
           style="fill:#c37140;fill-opacity:1;fill-rule:nonzero;stroke:none"
           d="m 5153.82,15217.6 c 0,0 405.16,143.8 559.97,156.3 154.8,12.6 577.36,82 577.36,82 l 129.53,-516.7 10.05,-352.2 471.27,29.7 c 0,0 301.24,213.2 309.6,242.6 8.37,29.3 100.42,270.7 100.42,270.7 0,0 -142.26,511.7 -263.59,637.2 -121.33,125.5 -238.47,429.5 -389.09,481.2 -150.62,51.6 -757.28,-159 -999.95,-305.5 -242.66,-146.4 -773.32,-419.2 -773.32,-419.2 0,0 -16.04,-233.4 0,-241.8 16.05,-8.4 267.75,-64.3 267.75,-64.3" /></g><path
         id="path100"
         style="fill:#797a7b;fill-opacity:1;fill-rule:nonzero;stroke:none"
         d="m 5860.82,12379.2 -389.39,-597.4 67.19,-281.9 382.61,624.2 -60.41,255.1" /><path
         id="path102"
         style="fill:#100f0d;fill-opacity:1;fill-rule:nonzero;stroke:none"
         d="m 13593.6,3840 -167.8,-47 c 0,0 -122.5,-13.4 -128.4,-40.3 -5.8,-26.8 -86.4,-610.8 -66.3,-630.9 20.2,-20.2 980.1,-40.3 1221.7,-33.6 241.7,6.7 617.6,141 664.6,228.2 46.9,87.3 0,188 -141,241.7 -141,53.7 -879.3,328.9 -879.3,328.9 l -503.5,-47" /><path
         id="path104"
         style="fill:#252323;fill-opacity:1;fill-rule:nonzero;stroke:none"
         d="m 13727.9,3578.2 c 0,0 -174.6,-31.3 -201.4,-120.8 -26.9,-89.5 -71.6,-375.9 -152.2,-537 -80.5,-161.1 71.6,-264 246.2,-281.9 174.5,-17.9 295.3,58.1 680.2,0 384.8,-58.2 698.1,-9 944.2,49.2 246.1,58.1 259.5,174.5 134.2,295.3 -125.3,120.9 -344.5,80.6 -532.5,174.6 -187.9,93.9 -483.3,447.5 -545.9,492.2 -62.7,44.8 -125.3,17.9 -125.3,17.9 0,0 -147.7,49.2 -214.8,31.3 -67.2,-17.9 -232.7,-120.8 -232.7,-120.8" /><path
         id="path106"
         style="fill:#8d8d8d;fill-opacity:1;fill-rule:nonzero;stroke:none"
         d="m 5274.59,3086 c -13.42,-4.5 -118.58,-78.4 -118.58,-78.4 v -364.7 l 382.61,56 c 0,0 111.87,355.7 93.97,387.1 -17.9,31.3 -138.72,138.7 -192.42,111.8 C 5386.46,3171 5274.59,3086 5274.59,3086" /><path
         id="path108"
         style="fill:#c1bfbd;fill-opacity:1;fill-rule:nonzero;stroke:none"
         d="m 12649.4,3506.6 286.4,-528 h 317.7 l -176.7,324.4 -208.1,203.6 h -219.3" /><path
         id="path110"
         style="fill:#797a7b;fill-opacity:1;fill-rule:nonzero;stroke:none"
         d="m 12747.8,3448.4 -98.4,58.2 v -291.4 l 302.1,-602.8 -15.7,366.2 -188,469.8" /><path
         id="path112"
         style="fill:#ccccc9;fill-opacity:1;fill-rule:nonzero;stroke:none"
         d="m 5156.01,3007.6 315.42,-26.8 67.19,-281.9 382.61,624.2 -60.41,255.1 h -134.25 c 0,0 -73.84,912.9 -20.14,1268.7 53.7,355.7 389.33,557.1 778.65,577.2 389.32,20.2 5450.52,67.2 5725.72,20.2 275.3,-47 543.8,-288.7 577.3,-704.8 33.6,-416.2 53.7,-1436.5 53.7,-1436.5 h 235 c 0,0 46.9,1382.8 0,1725.1 -47,342.3 -342.5,697.5 -906.3,778.3 -563.8,80.9 -1409.6,174.9 -1510.2,154.7 -100.7,-20.1 -4343.03,-73.8 -4343.03,-73.8 0,0 -711.66,-187.9 -845.84,-678 -134.19,-490 -87.2,-1886.2 -87.2,-1886.2 l -228.22,-315.5" /><path
         id="path114"
         style="fill:#b55e37;fill-opacity:1;fill-rule:nonzero;stroke:none"
         d="m 13439.2,6108.8 c 0,0 -154.4,-369.2 -140.9,-724.9 13.4,-355.8 134.2,-792.1 140.9,-1087.5 6.7,-295.3 -26.8,-593.5 -26.8,-593.5 0,0 288.6,-56.4 396,0 107.4,56.5 288.7,1882.3 288.7,1882.3 0,0 -234.8,671.3 -342.3,664.6 -107.5,-6.7 -315.6,-141 -315.6,-141" /><path
         id="path116"
         style="fill:#e3e2e0;fill-opacity:1;fill-rule:nonzero;stroke:none"
         d="m 13440,4195.4 c -1.3,-258.6 -27.6,-492.5 -27.6,-492.5 0,0 288.6,-56.4 396,0 34.7,18.3 77,221 118.5,487 -162.2,-5.7 -357.3,0.1 -486.9,5.5" /><path
         id="path118"
         style="fill:#c37140;fill-opacity:1;fill-rule:nonzero;stroke:none"
         d="m 13222.2,6043.9 434.1,-58.1 c 0,0 -192.5,-452 -170.1,-832.4 22.4,-380.4 134.3,-666.8 152.2,-1078.5 17.9,-411.7 -44.8,-751.8 -44.8,-751.8 0,0 170.1,-116.3 210.3,-107.4 40.3,9 264.1,138.8 268.5,152.2 4.5,13.4 22.4,219.3 40.3,241.6 17.9,22.4 62.7,58.2 62.7,58.2 0,0 17.9,716 111.8,1190.4 94,474.3 201.4,1235.1 196.9,1521.5 -4.4,286.4 -335.6,657.8 -872.6,724.9 -537,67.1 -617.5,-143.2 -577.3,-366.9 40.3,-223.8 188,-693.7 188,-693.7" /><path
         id="path120"
         style="fill:#8d8d8d;fill-opacity:1;fill-rule:nonzero;stroke:none"
         d="m 5749.2,6196.1 v -352.4 c 0,0 6928.2,-40.3 6958.4,-40.3 30.2,0 80.5,293.2 80.5,293.2 0,0 -916.2,151.6 -1228.4,377.2 -312.1,225.7 -513.5,487.5 -1570.7,467.4 -1057.21,-20.2 -2397.48,-119.1 -2512.71,-140.1 -115.23,-21 -795.73,-117.9 -795.73,-117.9 l -504.1,-124.6 -427.26,-362.5" /><path
         id="path122"
         style="fill:#535456;fill-opacity:1;fill-rule:nonzero;stroke:none"
         d="m 11559.7,6473.8 c -312.1,225.7 -513.5,487.5 -1570.7,467.4 -1057.21,-20.2 -2397.48,-119.1 -2512.71,-140.1 -115.23,-21 -795.73,-117.9 -795.73,-117.9 l -504.1,-124.6 -427.25,-362.5 h 6560.29 c -272.4,66.3 -590.1,162.3 -749.8,277.7" /><path
         id="path124"
         style="fill:#b55e37;fill-opacity:1;fill-rule:nonzero;stroke:none"
         d="m 6515.11,10124.2 c 0,0 416.35,-514.8 567.38,-692.7 151.03,-177.9 295.35,-661.2 302.07,-678 6.7,-16.7 214.8,-490 308.77,-694.7 93.97,-204.7 167.81,-416.2 167.81,-416.2 l -250.6,-59.3 -366.95,608.6 c 0,0 -1029.25,1602.1 -1042.67,1687.1 -13.43,85 75.25,268.1 75.25,268.1 0,0 54.52,125.7 108.22,94.4 53.7,-31.3 130.72,-117.3 130.72,-117.3" /><path
         id="path126"
         style="fill:#252323;fill-opacity:1;fill-rule:nonzero;stroke:none"
         d="m 10532.7,6384 210.3,-53.7 c 0,0 407.3,-250.6 469.9,-259.5 62.7,-9 232.7,40.3 353.5,0 120.9,-40.3 689.2,-62.7 975.6,-116.4 286.4,-53.7 474.3,-143.2 519.1,-174.5 44.7,-31.3 76.1,-134.2 152.1,-94 76.1,40.3 402.8,1396.2 398.3,1418.6 -4.5,22.4 -1109.8,389.3 -1190.3,389.3 -80.6,0 -425.2,17.9 -487.8,26.9 -62.7,8.9 -277.5,85 -456.5,102.9 -179,17.9 -733.9,-102.9 -733.9,-102.9 0,0 -286.4,-214.8 -277.4,-416.2 8.9,-201.4 67.1,-720.5 67.1,-720.5" /><path
         id="path128"
         style="fill:#757879;fill-opacity:1;fill-rule:nonzero;stroke:none"
         d="m 5092.21,10166.7 c 0,0 134.25,-543.7 171.17,-563.9 36.92,-20.1 419.53,107.4 432.96,127.6 13.42,20.1 0,255 0,255 l 125.3,69.4 15.66,205.9 c 0,0 -191.31,-43.7 -211.45,-36.9 -20.13,6.7 -104.04,164.4 -161.09,177.8 -57.06,13.5 -319.76,-72.4 -356.68,-109.3 -36.92,-36.9 -15.87,-125.6 -15.87,-125.6" /><path
         id="path130"
         style="fill:#757879;fill-opacity:1;fill-rule:nonzero;stroke:none"
         d="m 5837.3,10260.7 541.74,196 c 0,0 51.19,206.7 73.57,229.1 22.38,22.4 331.15,94 362.48,85 31.32,-8.9 125.3,-259.5 134.25,-299.8 8.95,-40.3 31.32,-362.5 26.85,-389.3 -4.48,-26.9 -424.48,-82.1 -426.02,-79.8 -1.54,2.2 -191.53,66.3 -218.38,88.7 -26.85,22.4 -286.4,-49.2 -308.78,-53.7 -22.38,-4.5 -185.71,223.8 -185.71,223.8" /><path
         id="path132"
         style="fill:#9f4d2d;fill-opacity:1;fill-rule:nonzero;stroke:none"
         d="m 6881.31,6547.6 219.08,140.7 c 0,0 -107.4,232.7 -183.47,299.9 -76.08,67.1 -31.33,170 -201.38,62.6 -170.05,-107.4 -329.54,31.9 -249.8,-205.6 79.75,-237.4 8.92,-250 102.51,-315.3 93.59,-65.3 313.06,17.7 313.06,17.7" /><path
         id="path134"
         style="fill:#e9eef1;fill-opacity:1;fill-rule:nonzero;stroke:none"
         d="m 7668.72,7691.8 c 0,0 384.85,169 537,186.9 152.15,17.9 272.97,-17.9 272.97,-17.9 0,0 478.82,95 774.18,22.9 295.35,-72.1 541.47,-193 845.73,-219.8 304.3,-26.9 644.4,-143.2 644.4,-143.2 V 6330.3 c 0,0 -823.36,-71.6 -1261.91,-80.5 -438.55,-9 -1188.12,-138.1 -1435.36,-102.6 -247.24,35.5 -569.44,653.9 -569.44,653.9 l 192.43,890.7" /><path
         id="path136"
         style="fill:#2f1d16;fill-opacity:1;fill-rule:nonzero;stroke:none"
         d="M 5722.86,7317.9 C 5544.89,7354.4 5486.6,7209 5466.91,7148 c -19.68,-61 -65.4,-82.2 -74.71,-269.5 -9.32,-187.2 76.76,-231 88.55,-290.2 11.78,-59.3 85.93,-179.8 144.79,-277.4 58.86,-97.6 155.46,-113.7 190.45,-141.7 0,0 101.46,-207.1 441.79,-116.9 340.32,90.1 590.37,452.2 623.53,495.3 0,0 -298.89,234.1 -379.03,280.6 -17.9,112.3 -48.24,290.1 -61.32,292.8 -19.13,4 -627.24,157.8 -627.24,157.8 l -73.92,37.3 c 0,0 -5.38,4.4 -14.93,10.1 l -2.01,-8.3" /><path
         id="path138"
         style="fill:#b55e37;fill-opacity:1;fill-rule:nonzero;stroke:none"
         d="m 5722.86,7317.9 c 0,0 191.28,127.9 237.49,149.6 46.22,21.6 200.49,26.8 223.28,34.9 22.79,8.1 235.83,196.3 251.59,196 15.77,-0.3 52.3,-94.1 61.36,-95.7 9.06,-1.7 101.26,8.4 109.56,12.7 8.29,4.3 27.65,5.6 27.65,5.6 0,0 36.17,15.3 56.56,11.5 20.4,-3.7 53.59,0.4 66.68,0.5 13.07,0 149.58,30.4 173.1,17.7 23.52,-12.6 94.26,-367.3 91.74,-414.9 -2.53,-47.7 -181.71,-284.1 -225.54,-317.4 -43.83,-33.3 -190.64,-66.7 -190.64,-66.7 0,0 2.76,-125.1 -84.91,-191.8 -87.66,-66.7 -263.02,-88.4 -309.94,5 -46.93,93.5 74.26,167 107.06,185.9 32.81,18.9 74.32,46.5 76.65,52.2 2.32,5.7 -88.09,8.1 -147.49,16.9 -59.4,8.9 -215.7,-41.9 -279.1,-39.1 -63.4,2.8 -144.79,68.3 -165.69,102.5 -20.91,34.1 -79.41,334.6 -79.41,334.6" /><path
         id="path140"
         style="fill:#2f1d16;fill-opacity:1;fill-rule:nonzero;stroke:none"
         d="m 6394.55,6903 c 0,0 -13.18,32.2 -32.05,30.6 -18.87,-1.7 -162.84,-4.4 -162.84,-4.4 0,0 -50.08,36.4 -114.35,11.3 -64.27,-25.2 -74.78,-34.3 -113.73,-7.9 -38.95,26.4 -120.89,-6.2 -145.1,22.2 -24.21,28.5 -78.24,222.5 -78.24,222.5 0,0 -135.56,71.2 -107.35,-75.8 28.22,-147.1 85.24,-293.6 164.11,-350.3 78.88,-56.6 10.49,-103.1 131.69,-49.4 121.22,53.7 457.86,201.2 457.86,201.2" /><path
         id="path142"
         style="fill:#2f1d16;fill-opacity:1;fill-rule:nonzero;stroke:none"
         d="m 5915.8,6073.3 c 0,0 -68.8,27.8 -95.63,48.7 -26.83,21 -85.82,33.6 -109.15,57.6 -23.32,24.1 -49.24,58.1 -54.81,63.1 -5.57,5 -76.35,46.8 -98.36,99 -22.01,52.2 -34.83,85.3 -40.46,98.9 -5.64,13.5 -67.51,79.1 -85.05,138.9 -17.54,59.7 -14.03,62.8 -23.29,90.4 -9.26,27.6 -43.97,104.4 -42.3,222.7 1.66,118.4 100.16,255.4 100.16,255.4 l 276.21,-302.1 243.14,-428.2 -70.46,-344.4" /><path
         id="path144"
         style="fill:#959698;fill-opacity:1;fill-rule:nonzero;stroke:none"
         d="m 4961.34,10277.3 c 0,0 134.25,-543.7 171.17,-563.9 36.92,-20.1 419.53,107.4 432.96,127.6 13.42,20.1 0,255 0,255 l 125.3,69.4 15.66,205.9 c 0,0 -191.31,-43.7 -211.44,-37 -20.14,6.8 -104.05,164.5 -161.1,177.9 -57.06,13.4 -319.76,-72.4 -356.68,-109.3 -36.92,-36.9 -15.87,-125.6 -15.87,-125.6" /><path
         id="path146"
         style="fill:#959698;fill-opacity:1;fill-rule:nonzero;stroke:none"
         d="m 5706.43,10371.3 541.74,196 c 0,0 51.2,206.7 73.57,229.1 22.38,22.4 331.15,94 362.48,85 31.32,-8.9 125.3,-259.5 134.25,-299.8 8.95,-40.3 31.32,-362.5 26.85,-389.3 -4.48,-26.9 -424.48,-82.1 -426.02,-79.8 -1.54,2.2 -191.53,66.3 -218.38,88.7 -26.85,22.4 -286.4,-49.2 -308.78,-53.7 -22.37,-4.5 -185.71,223.8 -185.71,223.8" /><path
         id="path148"
         style="fill:#f2f2f2;fill-opacity:1;fill-rule:nonzero;stroke:none"
         d="m 13641.1,3979.6 c 5.7,-367.5 -47.5,-656.5 -47.5,-656.5 0,0 170.1,-116.3 210.3,-107.4 40.3,9 264.1,138.8 268.5,152.2 4.5,13.4 22.4,219.3 40.3,241.6 17.9,22.4 62.7,58.2 62.7,58.2 0,0 3.4,135 14.9,326.5 -207.6,-15 -429.9,-15.6 -549.2,-14.6" /><path
         id="path150"
         style="fill:#8d8d8d;fill-opacity:1;fill-rule:nonzero;stroke:none"
         d="m 13253.5,2978.6 v -366.2 h -302 l -15.7,366.2 h 317.7" /><path
         id="path152"
         style="fill:#c37140;fill-opacity:1;fill-rule:nonzero;stroke:none"
         d="m 6077.86,9923.7 -82.79,40.3 c 0,0 -35.8,33.6 -53.7,42.5 -17.9,9 -237.18,15.7 -257.32,29.1 -20.13,13.5 -60.41,94 -60.41,94 l 67.13,35.8 c 0,0 -40.28,255.1 -31.33,286.4 8.95,31.3 73.84,69.4 85.03,80.6 11.18,11.1 71.6,89.5 96.21,100.6 24.61,11.2 69.36,9 89.5,15.7 20.14,6.7 64.89,33.6 109.64,42.5 44.75,9 129.77,-4.5 149.91,-17.9 20.14,-13.4 98.45,-192.4 107.4,-221.5 8.95,-29.1 46.99,-228.2 46.99,-228.2 l -266.26,-299.9" /><path
         id="path154"
         style="fill:#c37140;fill-opacity:1;fill-rule:nonzero;stroke:none"
         d="m 6854.27,7860.8 c 0,0 14.2,-890.5 27.23,-1132.2 13.04,-241.6 128,-366.9 128,-366.9 0,0 86.42,-143.2 243.04,-179 156.63,-35.8 179,-44.8 179,-44.8 0,0 192.42,-64.7 366.95,-41.3 174.53,23.4 322.2,72.6 322.2,72.6 0,0 196.9,-31.3 322.2,116.4 125.3,147.7 223.75,756.3 62.65,939.7 -161.1,183.5 -684.67,156.7 -684.67,156.7 0,0 -35.8,344.5 -187.95,622 -152.15,277.4 -340.1,657.8 -340.1,657.8 0,0 -174.53,501.2 -389.33,774.2 -214.8,273 -559.37,787.6 -559.37,787.6 L 5995.07,9964 c 0,0 307.64,-474.3 384.29,-711.5 76.63,-237.2 85.58,-483.3 188.51,-698.1 102.92,-214.8 232.7,-416.2 259.55,-478.8 26.85,-62.7 26.85,-214.8 26.85,-214.8" /><path
         id="path156"
         style="fill:#9f4d2d;fill-opacity:1;fill-rule:nonzero;stroke:none"
         d="m 7820.87,7382 c 0,0 4.47,-349.1 0,-389.4 -4.48,-40.2 80.55,-191.5 80.55,-191.5 0,0 -8.95,187.1 31.32,263.1 40.28,76.1 254.59,296.8 254.59,296.8 0,0 -236.69,29.9 -366.46,21" /><path
         id="path158"
         style="fill:#797a7b;fill-opacity:1;fill-rule:nonzero;stroke:none"
         d="m 5860.82,3578.2 -389.39,-597.4 67.19,-281.9 382.61,624.2 -60.41,255.1" /></g></g></svg>