<?xml version="1.0" encoding="UTF-8" standalone="no"?>
<svg
   xmlns:dc="http://purl.org/dc/elements/1.1/"
   xmlns:cc="http://creativecommons.org/ns#"
   xmlns:rdf="http://www.w3.org/1999/02/22-rdf-syntax-ns#"
   xmlns:svg="http://www.w3.org/2000/svg"
   xmlns="http://www.w3.org/2000/svg"
   viewBox="0 0 2666.6667 2666.6667"
   height="2666.6667"
   width="2666.6667"
   xml:space="preserve"
   id="svg2"
   version="1.1"><metadata
     id="metadata8"><rdf:RDF><cc:Work
         rdf:about=""><dc:format>image/svg+xml</dc:format><dc:type
           rdf:resource="http://purl.org/dc/dcmitype/StillImage" /></cc:Work></rdf:RDF></metadata><defs
     id="defs6" /><g
     transform="matrix(1.3333333,0,0,-1.3333333,0,2666.6667)"
     id="g10"><g
       transform="scale(0.1)"
       id="g12"><g
         transform="scale(1.22699)"
         id="g14"><path
           id="path16"
           style="fill:none;fill-opacity:1;fill-rule:nonzero;stroke:none"
           d="M 16300,0 H 0 V 16300 H 16300 V 0" /></g><path
         id="path18"
         style="fill:#606163;fill-opacity:1;fill-rule:nonzero;stroke:none"
         d="m 6027.02,13601.5 -921.03,54.5 c -32.1,1.9 -59.67,-22.6 -61.57,-54.7 l -15.45,-261.5 c -1.9,-32.1 22.59,-59.6 54.69,-61.5 l 921.03,-54.5 c 32.11,-1.9 59.67,22.6 61.57,54.7 l 15.45,261.4 c 1.9,32.2 -22.58,59.7 -54.69,61.6" /><path
         id="path20"
         style="fill:#252323;fill-opacity:1;fill-rule:nonzero;stroke:none"
         d="m 6633.93,13384.4 c 0,0 -310.59,-22.6 -395.3,-39.6 -84.7,-16.9 -163.76,-84.7 -186.35,-118.5 -22.59,-33.9 -135.53,-113 -169.41,-203.4 -33.88,-90.3 79.06,-671.9 96,-688.9 16.94,-16.9 525.18,-28.2 592.94,39.6 67.77,67.7 429.18,835.7 417.88,880.9 -11.29,45.2 -5.65,73.4 -28.23,84.7 -22.59,11.3 -124.24,96 -327.53,45.2" /><path
         id="path22"
         style="fill:#fbc398;fill-opacity:1;fill-rule:nonzero;stroke:none"
         d="m 5332.93,13052.9 -116.41,-295.4 c 0,0 -67.77,-59.2 -101.65,-287.9 -33.88,-228.8 29.7,-468.8 29.7,-468.8 0,0 -94.64,-264.6 -72.05,-417.8 22.59,-153.2 502.59,-132.7 502.59,-132.7 l 237.17,146.8 127.11,748.8 c 0,0 -56.52,149.1 -135.58,230.9 l -8.47,476.1 h -462.41" /><path
         id="path24"
         style="fill:#f1d4c2;fill-opacity:1;fill-rule:nonzero;stroke:none"
         d="m 5803.81,12576.8 -1.68,94.5 v 0 l 1.68,-94.5" /><path
         id="path26"
         style="fill:#edb185;fill-opacity:1;fill-rule:nonzero;stroke:none"
         d="m 5803.81,12576.8 c 0,0 -67.76,65 -248.47,90.4 -20.08,2.8 -39.83,4.1 -59.11,4.1 -154.17,0 -276.89,-80.3 -276.89,-80.3 85.75,117 199.26,151.5 303.32,151.5 149.1,0 278.77,-70.8 279.47,-71.2 l 1.68,-94.5" /><path
         id="path28"
         style="fill:#fbc398;fill-opacity:1;fill-rule:nonzero;stroke:none"
         d="m 7159.1,11701.6 c 0,0 -39.52,220.2 33.89,412.2 73.41,192 327.52,483.1 367.05,747 39.54,263.8 -33.88,676 -33.88,676 0,0 -22.59,186.4 -112.94,231.6 -90.35,45.1 -519.53,5.6 -649.41,-45.2 -129.88,-50.8 -304.94,-186.4 -525.18,-282.4 -220.23,-96 -259.76,-112.9 -259.76,-112.9 l 79.06,-237.2 c 0,0 259.76,90.4 429.17,84.7 169.42,-5.6 480.89,4.5 480.89,4.5 l -166.44,-376 c 0,0 -246.68,-21.5 -506.44,-379.5 -259.77,-358.1 28.23,-1089.9 28.23,-1089.9 0,0 768,-22.6 790.58,0 22.59,22.6 45.18,367.1 45.18,367.1" /><path
         id="path30"
         style="fill:#edcab2;fill-opacity:1;fill-rule:nonzero;stroke:none"
         d="m 5796.46,12989.8 -1.12,63.1 1.13,-63.1 c 0,0 0,0 -0.01,0" /><path
         id="path32"
         style="fill:#eaad81;fill-opacity:1;fill-rule:nonzero;stroke:none"
         d="m 5636.82,12896.5 c -51.71,0 -98.42,33 -98.42,33 0,0 -52.95,8.4 -93.17,11.3 -40.23,2.8 -144.88,29.4 -144.88,29.4 l 32.58,82.7 h 462.41 l 1.12,-63.1 c -0.64,-0.6 -79.72,-80.1 -138.77,-91.4 -6.98,-1.3 -13.97,-1.9 -20.87,-1.9" /><path
         id="path34"
         style="fill:#abaaa9;fill-opacity:1;fill-rule:nonzero;stroke:none"
         d="m 5427.73,13267.7 -77.32,-834.6 149.01,-13.8 77.32,834.6 -149.01,13.8" /><path
         id="path36"
         style="fill:#f5f6f5;fill-opacity:1;fill-rule:nonzero;stroke:none"
         d="m 6253.76,7008.8 -122.42,-93.1 V 6687 l 320.04,56.4 10.31,172.3 -207.93,93.1" /><path
         id="path38"
         style="fill:#fbc398;fill-opacity:1;fill-rule:nonzero;stroke:none"
         d="m 5851.81,7644.1 c 0,0 224.2,-521.6 279.53,-728.4 h 330.35 c 0,0 99.28,677.6 185.17,762.3 85.89,84.7 -481.62,81.9 -481.62,81.9 l -313.43,-115.8" /><path
         id="path40"
         style="fill:#3970c1;fill-opacity:1;fill-rule:nonzero;stroke:none"
         d="m 6038.16,6475.2 c 0,0 59.3,-419.8 258.36,-417.4 199.06,2.3 292.23,508 292.23,508 l -550.59,-90.6" /><path
         id="path42"
         style="fill:#3970c1;fill-opacity:1;fill-rule:nonzero;stroke:none"
         d="m 8497.46,6540.1 c -11.3,-50.8 -79.07,-163.7 -79.07,-163.7 0,0 -101.64,-553.4 -62.11,-593 39.53,-39.5 547.76,28.3 672,22.6 124.23,-5.6 643.76,33.9 649.41,163.8 5.64,129.9 -135.53,134.4 -344.47,185.8 -208.94,51.4 -406.59,170 -406.59,170 0,0 -11.29,186.3 -129.88,186.3 -118.59,0 -299.29,28.2 -299.29,28.2" /><path
         id="path44"
         style="fill:#fbc398;fill-opacity:1;fill-rule:nonzero;stroke:none"
         d="m 7611.81,8533.6 c 44.23,8.4 366.11,-398.2 366.11,-398.2 h 282.36 c 0,0 -223.84,-415 -142.98,-708.7 80.86,-293.6 216.39,-547.7 255.92,-756.7 39.53,-208.9 45.17,-293.6 45.17,-293.6 h 265.42 c 0,0 39.52,124.2 112.94,135.5 l 112.94,1533.6 c 0,0 141.17,262.2 28.23,550.2 -112.94,288 -875.29,547.7 -875.29,547.7 0,0 -333.17,-327.5 -338.82,-378.3 -5.65,-50.8 -112,-231.5 -112,-231.5" /><path
         id="path46"
         style="fill:#7c7d7f;fill-opacity:1;fill-rule:nonzero;stroke:none"
         d="m 1320.06,5170.7 -101.65,101.7 225.99,84.7 1815.42,-347.3 -135.53,-101.7 -1804.23,262.6" /><path
         id="path48"
         style="fill:#7c7d7f;fill-opacity:1;fill-rule:nonzero;stroke:none"
         d="m 2429.7,6218.2 4217.16,550.8 170.6,-82 -4387.76,-629.2 v 160.4" /><path
         id="path50"
         style="fill:#abaaa9;fill-opacity:1;fill-rule:nonzero;stroke:none"
         d="m 2328.06,6043.2 4489.4,643.8 -170.6,-203.3 -4395.04,-660.7 76.24,220.2" /><path
         id="path52"
         style="fill:#abaaa9;fill-opacity:1;fill-rule:nonzero;stroke:none"
         d="M 2040.05,7466.3 V 5153.8 l 135.54,-33.9 254.11,76.3 v 1871.9 l 4150.58,474.4 152.47,-1771.5 296.47,-49.7 152.47,49.7 -186.35,1822.3 542.12,84.7 v 254.1 L 2040.05,7466.3" /><path
         id="path54"
         style="fill:#656769;fill-opacity:1;fill-rule:nonzero;stroke:none"
         d="m 1650.41,7759.9 c 0,0 -118.59,-39.5 -169.41,-132.7 -50.82,-93.2 -33.89,-237.2 -33.89,-237.2 l 643.77,-67.7 5446.58,609.8 V 8254 L 1650.41,7759.9" /><path
         id="path56"
         style="fill:#abaaa9;fill-opacity:1;fill-rule:nonzero;stroke:none"
         d="m 1218.41,5272.4 v -152.5 l 1905.88,-372.7 135.53,101.7 v 160.9 l -135.53,-101.7 -1905.88,364.3" /><path
         id="path58"
         style="fill:#252323;fill-opacity:1;fill-rule:nonzero;stroke:none"
         d="m 5459.34,9527.4 c 0,0 -217.41,-129.9 -268.23,-528 -50.83,-398.1 28.23,-796.2 268.23,-864 240,-67.7 350.12,17 595.77,-50.8 245.64,-67.8 838.58,-33.9 940.23,0 101.65,33.9 669.18,-50.8 982.58,50.8 0,0 245.65,474.4 84.71,1008 0,0 -160.94,237.2 -1321.41,271.1 l -575.98,406.6 -705.9,-293.7" /><path
         id="path60"
         style="fill:#3970c1;fill-opacity:1;fill-rule:nonzero;stroke:none"
         d="m 6085.83,12294.5 209.28,129.9 c 0,0 -33.88,-491.3 231.53,-751.1 265.41,-259.7 632.46,28.3 632.46,28.3 0,0 118.59,-474.4 96,-655.1 -22.59,-180.7 -146.82,-344.5 -146.82,-389.6 0,-45.2 28.23,-434.9 -56.47,-587.3 -84.71,-152.5 -124.24,-367.1 -141.18,-468.8 -16.94,-101.6 -62.11,-231.5 -62.11,-231.5 0,0 0,-50.8 -265.41,0 -265.41,50.8 -400.95,45.2 -570.36,90.4 -169.41,45.1 -553.41,45.1 -553.41,67.7 0,22.6 45.18,485.7 33.88,547.8 -11.29,62.1 -169.41,333.2 -191.99,502.6 -22.59,169.4 -33.89,307.8 -33.89,307.8 0,0 -172.23,409.4 -194.82,697.4 0,0 223.06,-56.5 437.65,208.9 214.59,265.4 209.6,482.4 287.99,529.2 78.41,46.8 78.41,46.8 78.41,46.8 l 209.26,-73.4" /><path
         id="path62"
         style="fill:#fbc398;fill-opacity:1;fill-rule:nonzero;stroke:none"
         d="m 5876.57,12367.9 c 0,0 45.83,-107.3 79.71,-220.2 33.89,-113 -5.65,-90.4 33.89,-113 39.52,-22.6 90.35,135.6 129.88,197.7 39.53,62.1 175.06,192 175.06,192 0,0 -102.31,-22.6 -209.28,-56.5 -106.96,-33.9 -153.45,33.9 -209.26,0" /><path
         id="path64"
         style="fill:#dc9b70;fill-opacity:1;fill-rule:nonzero;stroke:none"
         d="m 7992.75,8135.4 h 267.53 l 208.94,237.2 c -160.94,-16.9 -338.82,-129.2 -476.47,-237.2" /><path
         id="path66"
         style="fill:#f5f6f5;fill-opacity:1;fill-rule:nonzero;stroke:none"
         d="m 8361.54,6722.1 c 4.41,-17.6 8.46,-35.1 11.68,-52.1 39.53,-208.9 45.18,-293.6 45.18,-293.6 h 265.41 c 0,0 39.52,124.2 112.94,135.5 l 17.92,243.4 c -146.59,-11.1 -339.41,-25.1 -453.13,-33.2" /><path
         id="path68"
         style="fill:#edb185;fill-opacity:1;fill-rule:nonzero;stroke:none"
         d="m 7029.22,12791.4 -227.67,12.5 26.85,56.9 200.82,-69.4" /><path
         id="path70"
         style="fill:#ecb088;fill-opacity:1;fill-rule:nonzero;stroke:none"
         d="m 5171.34,13265.8 c 0,0 -33.88,-20.9 -25.41,-58.5 8.47,-37.5 110.12,-127.9 149.65,-175.9 39.53,-48 225.72,-41.3 225.72,-41.3 l -349.96,275.7" /><path
         id="path72"
         style="fill:#dc9b70;fill-opacity:1;fill-rule:nonzero;stroke:none"
         d="m 6967.99,13179.9 c 0,0 196.76,6.8 377.46,181.9 0,0 -46.96,-295.9 -430.06,-308.9 l 52.6,127" /><path
         id="path74"
         style="fill:#fbc398;fill-opacity:1;fill-rule:nonzero;stroke:none"
         d="m 6057.93,13090.7 c 0,0 -231.53,-118.6 -336,-127 -104.47,-8.5 -146.82,-17 -163.77,0 -16.93,16.9 -383.99,251.3 -386.82,302.1 -2.82,50.8 64.94,50.8 93.18,39.5 0,0 22.59,65 73.41,56.5 50.82,-8.5 180.71,-96 248.47,-101.7 67.77,-5.6 192,48 254.12,67.8 62.12,19.8 138.35,0 138.35,0 l 79.06,-237.2" /><path
         id="path76"
         style="fill:#dc9b70;fill-opacity:1;fill-rule:nonzero;stroke:none"
         d="m 5555.34,13133.1 c -19.76,11.3 -290.82,172.2 -290.82,172.2 l 16.52,29.9 274.3,-202.1" /><path
         id="path78"
         style="fill:#dc9b70;fill-opacity:1;fill-rule:nonzero;stroke:none"
         d="m 5144.57,12000.8 c 0,0 46.54,-183.5 300.65,-203.2 0,0 -229.29,-33 -326.41,121.8 l 25.76,81.4" /><path
         id="path80"
         style="fill:#606163;fill-opacity:1;fill-rule:nonzero;stroke:none"
         d="m 5893.38,12464.7 -920.32,65.2 c -32.08,2.3 -59.93,-21.8 -62.21,-53.9 l -18.53,-261.2 c -2.27,-32.1 21.89,-60 53.97,-62.3 l 920.33,-65.2 c 32.08,-2.3 59.92,21.9 62.2,53.9 l 18.53,261.3 c 2.27,32.1 -21.89,59.9 -53.97,62.2" /><path
         id="path82"
         style="fill:#f5f6f5;fill-opacity:1;fill-rule:nonzero;stroke:none"
         d="m 15357.5,7008.8 -122.4,-93.1 V 6687 l 320,56.4 10.3,172.3 -207.9,93.1" /><path
         id="path84"
         style="fill:#fbc398;fill-opacity:1;fill-rule:nonzero;stroke:none"
         d="m 14955.6,7644.1 c 0,0 224.2,-521.6 279.5,-728.4 h 330.3 c 0,0 99.3,677.6 185.2,762.3 85.9,84.7 -481.6,81.9 -481.6,81.9 l -313.4,-115.8" /><path
         id="path86"
         style="fill:#3970c1;fill-opacity:1;fill-rule:nonzero;stroke:none"
         d="m 15141.9,6475.2 c 0,0 59.3,-419.8 258.4,-417.4 199,2.3 292.2,508 292.2,508 l -550.6,-90.6" /><path
         id="path88"
         style="fill:#7c7d7f;fill-opacity:1;fill-rule:nonzero;stroke:none"
         d="m 10423.8,5170.7 -101.7,101.7 226,84.7 1815.5,-347.3 -135.6,-101.7 -1804.2,262.6" /><path
         id="path90"
         style="fill:#7c7d7f;fill-opacity:1;fill-rule:nonzero;stroke:none"
         d="m 11533.4,6218.2 4217.2,550.8 170.6,-82 -4387.8,-629.2 v 160.4" /><g
         transform="scale(1.02093)"
         id="g92"><path
           id="path94"
           style="fill:#abaaa9;fill-opacity:1;fill-rule:nonzero;stroke:none"
           d="M 10915.3,7313.22 V 5048.13 l 132.7,-33.2 248.9,74.73 v 1833.52 l 4065.5,464.67 149.4,-1735.17 290.4,-48.68 149.3,48.68 -182.5,1784.93 531,82.97 v 248.89 l -5384.7,-456.25" /></g><g
         transform="scale(1.02093)"
         id="g96"><path
           id="path98"
           style="fill:#656769;fill-opacity:1;fill-rule:nonzero;stroke:none"
           d="m 10533.7,7600.8 c 0,0 -116.2,-38.69 -166,-129.98 -49.8,-91.29 -33.1,-232.34 -33.1,-232.34 l 630.5,-66.31 5334.9,597.3 v 315.3 L 10533.7,7600.8" /></g><g
         transform="scale(1.15258)"
         id="g100"><path
           id="path102"
           style="fill:#3970c1;fill-opacity:1;fill-rule:nonzero;stroke:none"
           d="m 15271.1,5674.3 c -9.8,-44.08 -68.6,-142.03 -68.6,-142.03 0,0 -88.2,-480.14 -53.9,-514.5 34.3,-34.27 475.3,24.56 583,19.61 107.9,-4.85 558.6,29.42 563.5,142.12 4.9,112.7 -117.6,116.6 -298.9,161.2 -181.3,44.6 -352.7,147.5 -352.7,147.5 0,0 -9.8,161.63 -112.7,161.63 -102.9,0 -259.7,24.47 -259.7,24.47" /></g><g
         transform="scale(1.11378)"
         id="g104"><path
           id="path106"
           style="fill:#fbc398;fill-opacity:1;fill-rule:nonzero;stroke:none"
           d="m 15007.9,7661.84 c 39.8,7.54 328.8,-357.52 328.8,-357.52 h 253.5 c 0,0 -201,-372.6 -128.4,-636.3 72.6,-263.61 194.3,-491.75 229.8,-679.4 35.5,-187.56 40.5,-263.61 40.5,-263.61 h 238.3 c 0,0 35.6,111.52 101.5,121.66 l 101.3,1376.93 c 0,0 126.8,235.42 25.4,494 -101.4,258.58 -785.8,491.75 -785.8,491.75 0,0 -299.2,-294.05 -304.3,-339.66 -5.1,-45.61 -100.6,-207.85 -100.6,-207.85" /></g><g
         transform="scale(1.06302)"
         id="g108"><path
           id="path110"
           style="fill:#252323;fill-opacity:1;fill-rule:nonzero;stroke:none"
           d="m 13699.7,8962.54 c 0,0 -204.5,-122.2 -252.4,-496.7 -47.8,-374.49 26.6,-748.99 252.4,-812.77 225.8,-63.69 329.3,15.99 560.4,-47.79 231.1,-63.78 788.8,-31.89 884.5,0 95.6,31.89 629.5,-47.79 924.4,47.79 0,0 231,446.27 79.6,948.23 0,0 -151.4,223.14 -1243,255.03 l -541.9,382.5 -664,-276.29" /></g><path
         id="path112"
         style="fill:#fbc398;fill-opacity:1;fill-rule:nonzero;stroke:none"
         d="m 14728.7,14379.2 c 0,0 -320,275.7 -338.8,304 -18.8,28.2 -67.8,321.9 -33.9,333.2 33.9,11.3 90.4,-71.6 113,-120.5 22.6,-49 120.4,-124.2 120.4,-124.2 l 139.3,-86.3 c 0,0 169.4,-222.5 158.1,-248.8 -11.2,-26.3 -158.1,-57.4 -158.1,-57.4" /><path
         id="path114"
         style="fill:#abaaa9;fill-opacity:1;fill-rule:nonzero;stroke:none"
         d="m 14800.3,14683.2 -184.5,-581.7 237.2,-26.3 199.5,515.7 -252.2,92.3" /><path
         id="path116"
         style="fill:#fbc398;fill-opacity:1;fill-rule:nonzero;stroke:none"
         d="m 14176.3,11583 c 0,0 -10.4,564.7 0,583.5 10.3,18.8 -80,286.1 -31.1,519.5 48.9,233.4 165.6,406.6 154.3,448 -11.2,41.4 -79,259.8 33.9,523.3 113,263.5 451.8,97.9 451.8,97.9 l 48.9,-523.3 c 0,0 30.2,-361.4 18.9,-560.9 0,0 85.2,-94.2 127.3,-335.1 42.1,-240.9 -451.1,-930.5 -451.1,-930.5 l -207.1,19.4 -145.8,158.2" /><path
         id="path118"
         style="fill:#252323;fill-opacity:1;fill-rule:nonzero;stroke:none"
         d="m 15737.7,13384.4 c 0,0 -310.6,-22.6 -395.3,-39.6 -84.7,-16.9 -163.8,-84.7 -186.4,-118.5 -22.6,-33.9 -135.5,-113 -169.4,-203.4 -33.9,-90.3 79.1,-671.9 96,-688.9 17,-16.9 525.2,-28.2 592.9,39.5 67.8,67.8 429.2,835.8 417.9,881 -11.3,45.2 -5.6,73.4 -28.2,84.7 -22.6,11.3 -124.2,96 -327.5,45.2" /><g
         transform="scale(1.02821)"
         id="g120"><path
           id="path122"
           style="fill:#fbc398;fill-opacity:1;fill-rule:nonzero;stroke:none"
           d="m 15816.6,11380.5 -71.4,321.9 c 0,0 329.7,425.1 428.5,683.2 98.9,258.1 65.9,681 65.9,681 0,0 60.4,192.2 -44,274.6 0,0 -142.7,357 -362.4,505.3 -219.7,148.3 -565.8,433.9 -565.8,433.9 l -156.7,-236.2 c 0,0 167.7,-159.3 211.7,-389.9 43.9,-230.7 361.5,-521.8 361.5,-521.8 0,0 -178.9,-217.7 -224.2,-505.3 0,0 -126.3,-170.2 -247.1,-280.1 -120.9,-109.8 -181.3,-131.8 -236.3,-263.6 -54.8,-131.8 -323.9,-576.7 -87.8,-703 236.2,-126.3 521.8,-280.1 582.2,-285.6 60.4,-5.5 159.2,0 159.2,0 l 186.7,285.6" /></g><path
         id="path124"
         style="fill:#dc9b70;fill-opacity:1;fill-rule:nonzero;stroke:none"
         d="m 15325.3,12269.4 c 62.4,23.1 130.3,48.9 130,51.7 -0.4,3.6 21.1,139.9 46.5,253.9 -41.5,-38.7 -73,-78.8 -103,-150.6 -14.3,-34.5 -42.9,-89.7 -73.5,-155" /><path
         id="path126"
         style="fill:#dc9b70;fill-opacity:1;fill-rule:nonzero;stroke:none"
         d="m 16228.1,11858.1 -38.7,174.4 -124.2,-325.3 c 0,0 87.2,102.2 162.9,150.9" /><g
         transform="scale(1.00499)"
         id="g128"><path
           id="path130"
           style="fill:#3970c1;fill-opacity:1;fill-rule:nonzero;stroke:none"
           d="m 15114.1,12233.4 208.2,129.2 c 0,0 -33.7,-488.8 230.4,-747.3 264.1,-258.5 629.3,28.1 629.3,28.1 0,0 118,-472 95.5,-651.8 -22.4,-179.8 -146.1,-342.8 -146.1,-387.7 0,-45 28.2,-432.7 -56.2,-584.4 -84.3,-151.68 -123.6,-365.21 -140.4,-466.41 -16.9,-101.09 -61.8,-230.35 -61.8,-230.35 0,0 0,-50.55 -264.2,0 -264,50.55 -398.9,44.98 -567.4,89.95 -168.6,44.88 -550.7,44.88 -550.7,67.37 0,22.48 45,483.26 33.8,545.04 -11.3,61.8 -168.7,331.5 -191.1,500.1 -22.5,168.6 -33.7,306.3 -33.7,306.3 0,0 -171.5,407.3 -193.8,693.9 0,0 221.8,-56.2 435.4,207.9 213.5,264.1 208.5,480 286.5,526.6 78.1,46.5 78.1,46.5 78.1,46.5 l 208.2,-73" /></g><path
         id="path132"
         style="fill:#fbc398;fill-opacity:1;fill-rule:nonzero;stroke:none"
         d="m 14980.3,12367.9 c 0,0 45.8,-107.3 79.7,-220.2 33.9,-113 -5.6,-90.4 33.9,-113 39.5,-22.6 90.4,135.6 129.9,197.7 39.5,62.1 175,192 175,192 0,0 -102.3,-22.6 -209.2,-56.5 -107,-33.9 -153.5,33.9 -209.3,0" /><g
         transform="scale(1.01019)"
         id="g134"><path
           id="path136"
           style="fill:#eaad81;fill-opacity:1;fill-rule:nonzero;stroke:none"
           d="m 15903.1,12824.5 c 279.5,218 218,475.2 218,475.2 178.9,-424.9 -218,-475.2 -218,-475.2" /></g><path
         id="path138"
         style="fill:#dc9b70;fill-opacity:1;fill-rule:nonzero;stroke:none"
         d="m 14472.7,11771.2 c 0,0 -190.1,41.4 -296.4,395.3 l -4.6,-169.4 c 0,0 48.8,-233.4 301,-225.9" /><path
         id="path140"
         style="fill:#eaad81;fill-opacity:1;fill-rule:nonzero;stroke:none"
         d="m 14853,12671 c 0,0 -89.2,122.2 -280,122.2 -12.9,0 -26.2,-0.6 -40,-1.8 0,0 67.9,26.9 152.5,26.9 53.4,0 113.5,-10.7 167.5,-45.7 v -101.6 0 0" /><g
         transform="scale(1.0781)"
         id="g142"><path
           id="path144"
           style="fill:#dc9b70;fill-opacity:1;fill-rule:nonzero;stroke:none"
           d="m 15858,7546.07 h 248.1 l 193.9,220.01 c -149.3,-15.67 -314.3,-119.84 -442,-220.01" /></g><g
         transform="scale(1.09929)"
         id="g146"><path
           id="path148"
           style="fill:#f5f6f5;fill-opacity:1;fill-rule:nonzero;stroke:none"
           d="m 15887.8,6114.96 c 4,-16.01 7.7,-31.93 10.7,-47.4 35.9,-190.03 41,-267.08 41,-267.08 h 241.4 c 0,0 36,112.98 102.8,123.26 l 16.3,221.42 c -133.4,-10.1 -308.7,-22.84 -412.2,-30.2" /></g><path
         id="path150"
         style="fill:#abaaa9;fill-opacity:1;fill-rule:nonzero;stroke:none"
         d="m 11431.8,6043.2 4489.4,643.8 -170.6,-203.3 -4395,-660.7 76.2,220.2" /><path
         id="path152"
         style="fill:#abaaa9;fill-opacity:1;fill-rule:nonzero;stroke:none"
         d="m 10322.1,5272.4 v -152.5 l 1905.9,-372.7 135.6,101.7 v 160.9 l -135.6,-101.7 -1905.9,364.3" /><path
         id="path154"
         style="fill:#606163;fill-opacity:1;fill-rule:nonzero;stroke:none"
         d="m 15092.8,15226.8 c -250.5,60.4 -477,12.1 -505.9,-107.9 l -69.7,-214.9 63.1,-15.3 843.9,-203.3 65.1,200.6 c 1.9,4.6 3.5,9.4 4.7,14.3 28.9,119.9 -150.7,266.1 -401.2,326.5" /><path
         id="path156"
         style="fill:#7c7d7f;fill-opacity:1;fill-rule:nonzero;stroke:none"
         d="m 15023.1,15011.9 c 250.4,-60.4 430,-206.6 401.1,-326.5 -28.9,-120 -255.4,-168.3 -505.9,-107.9 -250.4,60.4 -430,206.6 -401.1,326.5 28.9,120 255.4,168.3 505.9,107.9" /><path
         id="path158"
         style="fill:#fbc398;fill-opacity:1;fill-rule:nonzero;stroke:none"
         d="m 15537,14440.4 c 0,0 -149.5,37.6 -164.5,30.1 -15.1,-7.6 -112.9,-105.4 -210.8,-131.8 -97.9,-26.3 -211.9,-13.2 -211.9,-13.2 l 30.5,99.8 c -37,33.9 -436,252.2 -447.3,293.7 -11.3,41.4 11.3,56.4 56.4,52.7 45.2,-3.8 390.9,-158.2 390.9,-158.2 0,0 -345.7,263.6 -349.5,305 -3.7,41.4 0,52.7 62.2,45.2 62.1,-7.6 423.5,-241 423.5,-241 0,0 -308.7,259.8 -316.2,297.4 -7.6,37.7 37.6,52.7 52.7,56.5 15,3.8 127.3,-48.9 127.3,-48.9 0,0 0.4,60.2 53.2,64 52.9,3.7 237.3,-173.2 323.9,-214.6 86.6,-41.4 340.7,-193.9 340.7,-193.9 0,0 -4.1,-227.8 -161.1,-242.8" /><path
         id="path160"
         style="fill:#dc9b70;fill-opacity:1;fill-rule:nonzero;stroke:none"
         d="m 15244.5,14831.9 c -22.6,18.8 -264.2,195.8 -264.2,195.8 l 13.2,42.1 251,-237.9" /><path
         id="path162"
         style="fill:#606163;fill-opacity:1;fill-rule:nonzero;stroke:none"
         d="m 14766.9,14187.4 c -250.5,60.3 -476.9,12 -505.9,-107.9 l -69.7,-214.9 63.1,-15.3 843.9,-203.4 65.1,200.6 c 1.9,4.7 3.5,9.4 4.7,14.3 28.9,120 -150.7,266.2 -401.2,326.6" /><path
         id="path164"
         style="fill:#7c7d7f;fill-opacity:1;fill-rule:nonzero;stroke:none"
         d="m 14697.2,13972.5 c 250.4,-60.4 430,-206.6 401.1,-326.6 -28.9,-119.9 -255.4,-168.2 -505.8,-107.8 -250.5,60.3 -430.1,206.5 -401.2,326.5 28.9,119.9 255.4,168.2 505.9,107.9" /></g></g></svg>