<?xml version="1.0" encoding="UTF-8" standalone="no"?>
<svg
   xmlns:dc="http://purl.org/dc/elements/1.1/"
   xmlns:cc="http://creativecommons.org/ns#"
   xmlns:rdf="http://www.w3.org/1999/02/22-rdf-syntax-ns#"
   xmlns:svg="http://www.w3.org/2000/svg"
   xmlns="http://www.w3.org/2000/svg"
   viewBox="0 0 2666.6667 2666.6667"
   height="2666.6667"
   width="2666.6667"
   xml:space="preserve"
   id="svg2"
   version="1.1"><metadata
     id="metadata8"><rdf:RDF><cc:Work
         rdf:about=""><dc:format>image/svg+xml</dc:format><dc:type
           rdf:resource="http://purl.org/dc/dcmitype/StillImage" /></cc:Work></rdf:RDF></metadata><defs
     id="defs6"><clipPath
       id="clipPath60"
       clipPathUnits="userSpaceOnUse"><path
         id="path58"
         d="m 6878.91,10021.2 c -183.29,210.8 -64.15,554.5 -64.15,554.5 -13.75,-371.2 64.15,-554.5 64.15,-554.5" /></clipPath></defs><g
     transform="matrix(1.3333333,0,0,-1.3333333,0,2666.6667)"
     id="g10"><g
       transform="scale(0.1)"
       id="g12"><g
         transform="scale(1.22699)"
         id="g14"><path
           id="path16"
           style="fill:none;fill-opacity:1;fill-rule:nonzero;stroke:none"
           d="M 16300,0 H 0 V 16300 H 16300 V 0" /></g><path
         id="path18"
         style="fill:#606163;fill-opacity:1;fill-rule:nonzero;stroke:none"
         d="M 6057.49,10995 H 5932.61 V 9906.6 h 124.88 c 48.08,0 87.06,243.6 87.06,544.2 0,300.5 -38.98,544.2 -87.06,544.2" /><path
         id="path20"
         style="fill:#7c7d7f;fill-opacity:1;fill-rule:nonzero;stroke:none"
         d="m 6019.68,10450.8 c 0,-300.6 -38.99,-544.2 -87.07,-544.2 -48.09,0 -87.07,243.6 -87.07,544.2 0,300.5 38.98,544.2 87.07,544.2 48.08,0 87.07,-243.7 87.07,-544.2" /><path
         id="path22"
         style="fill:#7c7d7f;fill-opacity:1;fill-rule:nonzero;stroke:none"
         d="m 3054.73,7629.2 h 6014.68 v 231.3 H 3054.73 v -231.3" /><path
         id="path24"
         style="fill:#abaaa9;fill-opacity:1;fill-rule:nonzero;stroke:none"
         d="M 9151.89,7564.9 H 3054.73 v 178.7 h 6097.16 v -178.7" /><path
         id="path26"
         style="fill:#abaaa9;fill-opacity:1;fill-rule:nonzero;stroke:none"
         d="M 2879.44,8857.2 V 6966.8 h 292.14 V 8606.3 H 8828.82 L 9241.25,6740 h 384.95 l -433.06,2020.9 -6313.7,96.3" /><path
         id="path28"
         style="fill:#7c7d7f;fill-opacity:1;fill-rule:nonzero;stroke:none"
         d="m 2848.51,9262.3 -268.09,-247 v -281.9 l 6997.66,20.7 v 243.8 l -254.33,249.8 -6475.24,14.6" /><path
         id="path30"
         style="fill:#656769;fill-opacity:1;fill-rule:nonzero;stroke:none"
         d="m 2580.42,8980.9 v -247.5 l 6997.66,20.7 v 226.8 H 2580.42" /><path
         id="path32"
         style="fill:#fbc398;fill-opacity:1;fill-rule:nonzero;stroke:none"
         d="m 4130.57,9991.4 -250.98,-84.8 c 0,0 -268.08,59.6 -501.79,0 -233.71,-59.6 -563.66,-192.5 -749.26,-260.1 -185.6,-67.6 -261.21,-58.4 -268.08,-83.6 -6.88,-25.2 179.79,-373.5 179.79,-373.5 0,0 803.18,106.8 1140,72.9 336.83,-33.9 728.64,0 728.64,0 l -278.32,729.1" /><path
         id="path34"
         style="fill:#dc9b70;fill-opacity:1;fill-rule:nonzero;stroke:none"
         d="m 3997.24,9755.9 -117.65,150.7 -240.63,26.2 c 0,0 110.03,-200.3 240.63,-369.9 130.61,-169.6 75.7,-315.2 75.7,-315.2 0,0 423.15,12 391.53,10.1 -31.63,-1.9 -349.58,498.1 -349.58,498.1" /><path
         id="path36"
         style="fill:#fbc398;fill-opacity:1;fill-rule:nonzero;stroke:none"
         d="m 3879.59,9651.1 c 0,0 492.64,-583.1 510.97,-624.4 18.33,-41.2 -274.96,-444.5 -339.11,-769.8 -64.16,-325.4 71.85,-591.2 84.04,-875.3 12.19,-284.1 0,-476.6 0,-476.6 h 420.04 c 0,0 4.58,472 109.98,838.6 105.4,366.6 206.22,856.9 206.22,856.9 0,0 159.21,114.1 187.3,483.2 28.08,369.2 0,937.5 0,937.5 0,0 -645.56,77.9 -677.64,64.1 -32.07,-13.7 -501.8,-434.2 -501.8,-434.2" /><path
         id="path38"
         style="fill:#252323;fill-opacity:1;fill-rule:nonzero;stroke:none"
         d="m 4697.59,11118.7 34.37,-167.2 c 0,0 234.83,-605 327.07,-930.3 l -361.44,-114.6 c 0,0 -192.47,-94 -350.57,-148.9 -158.1,-55 -467.43,-130.6 -467.43,-106.6 0,24.1 -247.46,477.8 -323.07,766.5 0,0 -433.05,419.3 -336.82,976.1 96.23,556.7 433.06,749.2 996.72,793.9 563.66,44.7 481.17,-1068.9 481.17,-1068.9" /><path
         id="path40"
         style="fill:#fbc398;fill-opacity:1;fill-rule:nonzero;stroke:none"
         d="m 6347.33,11386.8 c 0,0 68.74,-330 137.49,-536.2 68.73,-206.2 68.73,-508.7 151.22,-682.8 82.49,-174.1 279.54,-604.9 279.54,-604.9 l 229.13,68.7 c 0,0 45.83,733.3 0,902.8 -45.83,169.6 -160.39,348.3 -169.56,412.5 -9.16,64.1 59.58,453.6 27.5,627.8 -32.08,174.1 -107.56,468 -107.56,468 l -389.66,-234.3 -158.1,-421.6" /><path
         id="path42"
         style="fill:#fbc398;fill-opacity:1;fill-rule:nonzero;stroke:none"
         d="m 7162.22,12760.2 -163.99,-111.3 -223.66,-371.2 107.29,-371.5 374.26,145 c 0,0 347.81,544.4 344.84,572.6 -2.96,28.2 -41.09,45.8 -79.99,118.1 -38.91,72.2 -358.75,18.3 -358.75,18.3" /><path
         id="path44"
         style="fill:#3970c1;fill-opacity:1;fill-rule:nonzero;stroke:none"
         d="m 7052.34,12521 c 0,0 37.38,-309.3 -38.23,-501.8 -75.62,-192.5 -103.11,-220 -103.11,-220 0,0 -144.35,-391.8 -405.57,-474.3 -261.21,-82.5 -494.92,-89.3 -549.91,-96.2 -54.99,-6.9 -288.7,-41.3 -405.56,-34.4 -116.86,6.9 -467.43,18.8 -515.55,-0.9 -48.11,-19.7 -336.82,-74.7 -336.82,-74.7 0,0 -274.95,323.1 -343.69,508.7 -68.74,185.6 -137.48,560.2 -137.48,560.2 0,0 673.64,111.4 1031.08,274 357.45,162.5 1024.22,138.5 1079.21,157.4 54.99,18.8 725.63,-98 725.63,-98" /><path
         id="path46"
         style="fill:#fbc398;fill-opacity:1;fill-rule:nonzero;stroke:none"
         d="m 6532.93,12743.4 c 0,0 274.96,86.9 453.68,-71.2 178.72,-158.1 -48.12,-769.9 -192.47,-859.2 -144.35,-89.4 -515.55,-89.4 -618.65,178.7 h -419.31 c 0,0 -20.62,-192.5 -75.61,-501.8 -55,-309.3 -55,-611.8 -55,-611.8 h -281.83 c 0,0 -89.36,343.7 -171.85,570.5 -82.48,226.9 -61.86,859.3 -54.99,879.9 6.87,20.6 -13.75,198.3 61.87,222.9 75.61,24.6 288.7,100.2 288.7,100.2 0,0 285.19,144.3 613.46,165 328.27,20.6 452,-73.2 452,-73.2" /><path
         id="path48"
         style="fill:#dc9b70;fill-opacity:1;fill-rule:nonzero;stroke:none"
         d="m 5627.87,12270.4 c 0,0 105.4,-104.6 128.31,-278.7 h 64.15 c 0,0 -13.74,213.8 -192.46,278.7" /><path
         id="path50"
         style="fill:#dc9b70;fill-opacity:1;fill-rule:nonzero;stroke:none"
         d="m 6175.49,11991.7 258.91,27.5 c 0,0 100.82,-119.2 288.71,-128.3 0,0 -164.98,-55 -329.95,41.2 l -167.62,-28.4 -50.05,88" /><path
         id="path52"
         style="fill:#e9ae86;fill-opacity:1;fill-rule:nonzero;stroke:none"
         d="m 7049.45,12160.5 c 0,0 -83.46,-288 -234.69,-439.2 -151.22,-151.2 -309.33,-396.4 -309.33,-396.4 0,0 148.29,-22.7 369.35,345.4 221.06,368.1 174.67,490.2 174.67,490.2" /><g
         id="g54"><g
           clip-path="url(#clipPath60)"
           id="g56"><path
             id="path62"
             style="fill:#eaad81;fill-opacity:1;fill-rule:nonzero;stroke:none"
             d="m 6695.62,10021.2 h 183.289 v 554.492 H 6695.62 Z" /></g></g><path
         id="path64"
         style="fill:#fbc398;fill-opacity:1;fill-rule:nonzero;stroke:none"
         d="m 6915.58,9562.9 c 0,0 77.9,-121.4 115.71,-224.6 37.81,-103.1 61.36,-140.9 133.79,-161.5 72.43,-20.6 213.34,-120.3 285.52,-85.9 72.18,34.4 0,99.7 0,99.7 0,0 415.87,-55 436.49,-37.8 20.62,17.1 17.19,58.4 17.19,58.4 0,0 79.05,0 58.43,48.1 -20.63,48.1 -254.34,44.7 -470.86,113.4 -216.54,68.8 -347.14,258.9 -347.14,258.9 l -127.17,19.5 -101.96,-88.2" /><path
         id="path66"
         style="fill:#dc9b70;fill-opacity:1;fill-rule:nonzero;stroke:none"
         d="m 7261.57,9367.4 65.3,-108.1 123.73,-68.7 147.27,-18.2 c 0,0 -243.5,66 -336.3,195" /><path
         id="path68"
         style="fill:#dc9b70;fill-opacity:1;fill-rule:nonzero;stroke:none"
         d="m 7904.28,9211.2 c 0,0 10.31,10.3 -120.3,34.3 -130.6,24.1 -271.51,72.2 -271.51,72.2 l 450.68,-84.7 c 0,0 -18.97,-39 -58.87,-21.8" /><path
         id="path70"
         style="fill:#abaaa9;fill-opacity:1;fill-rule:nonzero;stroke:none"
         d="m 5923.22,10375 -866.11,2.6 0.44,149.4 866.11,-2.6 -0.44,-149.4" /><path
         id="path72"
         style="fill:#606163;fill-opacity:1;fill-rule:nonzero;stroke:none"
         d="M 5005.62,10995 H 4880.74 V 9906.6 h 124.88 c 48.09,0 87.07,243.6 87.07,544.2 0,300.5 -38.98,544.2 -87.07,544.2" /><path
         id="path74"
         style="fill:#7c7d7f;fill-opacity:1;fill-rule:nonzero;stroke:none"
         d="m 4967.81,10450.8 c 0,-300.6 -38.98,-544.2 -87.07,-544.2 -48.08,0 -87.07,243.6 -87.07,544.2 0,300.5 38.99,544.2 87.07,544.2 48.09,0 87.07,-243.7 87.07,-544.2" /><path
         id="path76"
         style="fill:#dc9b70;fill-opacity:1;fill-rule:nonzero;stroke:none"
         d="m 4668.88,8692.2 c 0,0 97.45,-100.8 202.85,-91.7 l -16.93,-80.1 c 0,0 -118.41,6.8 -185.92,171.8" /><path
         id="path78"
         style="fill:#3970c1;fill-opacity:1;fill-rule:nonzero;stroke:none"
         d="m 4043.84,6673.5 c 0,0 -73.35,-447.8 5.49,-506.6 78.84,-58.8 332.17,-0.9 448.39,-50.5 116.23,-49.7 725.84,-60.2 892.58,128.3 166.74,188.6 -642.73,428 -688.51,473.2 -45.77,45.2 -31.01,103.4 -67.13,146.6 -36.12,43.3 -226.53,80.8 -226.53,80.8 0,0 -68.19,96.2 -128.23,38 -60.03,-58.1 -236.06,-309.8 -236.06,-309.8" /><path
         id="path80"
         style="fill:#f5f6f5;fill-opacity:1;fill-rule:nonzero;stroke:none"
         d="m 4487.99,6906.1 c 0,0 -56.78,-54.8 -82.54,-73.3 -36.41,-26.2 -67.09,-29.1 -67.09,-29.1 -78.43,-14.1 -202.7,-2.1 -202.7,-2.1 l -5.09,267.3 432.5,13 -6.31,-176.1 c 0,0 4.49,12.1 -68.77,0.3" /><path
         id="path82"
         style="fill:#3970c1;fill-opacity:1;fill-rule:nonzero;stroke:none"
         d="m 2111.78,9669.6 c 0,0 -450.54,54.3 -505.95,-27 -55.4,-81.2 13.14,-331.9 -31.51,-450.1 -44.64,-118.2 -29.38,-727.7 166.07,-886.3 195.45,-158.6 400.32,660.2 443.54,707.9 43.23,47.6 102.04,35.4 143.7,73.3 41.67,37.9 71.13,229.7 71.13,229.7 0,0 93.17,72.2 32.52,129.8 -60.65,57.5 -319.5,222.7 -319.5,222.7" /><path
         id="path84"
         style="fill:#f5f6f5;fill-opacity:1;fill-rule:nonzero;stroke:none"
         d="m 2362.94,9235.7 c 0,0 -57.15,54.4 -76.72,79.3 -27.69,35.3 -31.94,65.8 -31.94,65.8 -17.38,77.8 -10.69,202.5 -10.69,202.5 l 266.83,16.4 29.83,-410.3 -174.69,-22.4 c 0,0 12.31,-4 -2.62,68.7" /><path
         id="path86"
         style="fill:#abaaa9;fill-opacity:1;fill-rule:nonzero;stroke:none"
         d="m 2879.44,6966.8 -154.66,-261.2 v -199.3 h 281.83 l 268.08,495.7 v 171.1 h -219.96 l -175.29,-206.3" /><path
         id="path88"
         style="fill:#dc9b70;fill-opacity:1;fill-rule:nonzero;stroke:none"
         d="m 7511.48,12576.4 c 0,0 -138.33,-63.8 -197.55,-129.6 -59.23,-65.8 -57.81,-395.6 -57.81,-395.6 l 204.67,61.6 50.69,463.6" /><path
         id="path90"
         style="fill:#252323;fill-opacity:1;fill-rule:nonzero;stroke:none"
         d="m 8293.91,12477 c 133.83,-0.4 145.91,117 145.91,117 0,0 0,0 9.5,107.5 9.49,107.5 -60.64,276.7 -184.3,412.9 -123.67,136.1 -203.81,192.7 -203.81,192.7 -70.78,16.3 -155.39,-6.5 -155.39,-6.5 0,0 -132.6,125 -359.22,-36.3 -226.62,-161.2 -384.38,-504.1 -384.38,-504.1 0,0 76.94,-104.4 149.14,-116.5 72.2,-12.2 234.83,41.4 234.83,41.4 0,0 146.7,-264.4 161.95,-262 15.25,2.3 507.71,57.6 507.71,57.6 l 61.51,-6.7 c 4.83,2 10.33,3 16.55,3" /><path
         id="path92"
         style="fill:#fbc398;fill-opacity:1;fill-rule:nonzero;stroke:none"
         d="m 8293.91,12477 c 0,0 -105.9,-147.7 -134.08,-176.6 -28.16,-28.8 -140.81,-75.5 -155.4,-87.9 -14.59,-12.3 -119.85,-210.7 -131.59,-214.8 -11.73,-4.2 -64.82,55 -71.98,53.7 -7.15,-1.3 -72.53,-34.4 -77.48,-39.9 -4.94,-5.4 -18.88,-11.8 -18.88,-11.8 0,0 -22.52,-21.3 -38.64,-24.2 -16.12,-2.9 -39.52,-15.2 -49.18,-18.9 -9.66,-3.7 -102.16,-64 -123.08,-61.2 -20.91,2.8 -154.82,188.4 -166.19,224.3 -11.37,35.9 38.48,317.6 61.62,354.4 23.15,36.9 122.45,102.3 122.45,102.3 0,0 -36.81,91.8 9.49,165.5 46.29,73.7 169.93,138.4 230.6,82.4 60.67,-56.1 -8.52,-144.1 -27.53,-167.2 -19.01,-23.1 -42.02,-55 -42.16,-59.9 -0.14,-4.9 96.68,-1.6 143.07,8.4 46.39,9.9 118.56,111 166.23,126.5 47.67,15.6 126.05,-10.2 151,-29.7 24.95,-19.4 151.73,-225.4 151.73,-225.4" /><path
         id="path94"
         style="fill:#fbc398;fill-opacity:1;fill-rule:nonzero;stroke:none"
         d="m 5343.74,10878.1 c 0,0 -96.24,-165 -116.86,-226.8 -20.62,-61.9 2.29,-332.3 22.92,-350.6 20.62,-18.3 45.83,-11.5 45.83,-11.5 0,0 52.7,-41.2 75.61,-41.2 22.91,0 54.99,11.4 61.86,13.8 6.88,2.2 64.16,-34.4 93.95,-13.8 29.79,20.6 36.66,32.1 36.66,32.1 0,0 75.61,-25.2 100.82,0 25.2,25.2 71.03,100.8 71.03,100.8 0,0 -11.46,6.9 -16.04,32.1 -4.59,25.2 -9.17,105.4 -9.17,105.4 l 48.12,9.1 c 0,0 20.62,171.9 0,192.5 -20.62,20.6 -132.9,158.1 -132.9,158.1 0,0 -80.19,75.6 -105.4,73.3 -25.2,-2.3 -176.43,-73.3 -176.43,-73.3" /><g
         transform="scale(1.09753)"
         id="g96"><path
           id="path98"
           style="fill:#7c7d7f;fill-opacity:1;fill-rule:nonzero;stroke:none"
           d="M 10819.8,7528.83 H 16300 v 210.75 h -5480.2 v -210.75" /></g><g
         transform="scale(1.10259)"
         id="g100"><path
           id="path102"
           style="fill:#abaaa9;fill-opacity:1;fill-rule:nonzero;stroke:none"
           d="m 16300,7435.95 h -5529.9 v 162.08 H 16300 v -162.08" /></g><g
         transform="scale(1.13169)"
         id="g104"><path
           id="path106"
           style="fill:#abaaa9;fill-opacity:1;fill-rule:nonzero;stroke:none"
           d="M 10338.3,8386.68 V 6716.34 h 258.2 v 1448.64 h 4998.9 l 364.4,-1649.13 h 340.2 l -382.7,1785.83 -5579,85" /></g><g
         transform="scale(1.12873)"
         id="g108"><path
           id="path110"
           style="fill:#7c7d7f;fill-opacity:1;fill-rule:nonzero;stroke:none"
           d="m 10338,8767.55 -237.5,-218.83 v -249.66 l 6199.5,18.25 v 216 l -225.3,221.31 -5736.7,12.93" /></g><g
         transform="scale(1.12873)"
         id="g112"><path
           id="path114"
           style="fill:#656769;fill-opacity:1;fill-rule:nonzero;stroke:none"
           d="m 10100.5,8518.25 v -219.19 l 6199.5,18.25 v 200.94 h -6199.5" /></g><path
         id="path116"
         style="fill:#abaaa9;fill-opacity:1;fill-rule:nonzero;stroke:none"
         d="M 11699.7,7600.8 11545,7339.6 v -199.4 h 281.9 l 268.1,495.7 V 7807 h -220 l -175.3,-206.2" /><path
         id="path118"
         style="fill:#fbc398;fill-opacity:1;fill-rule:nonzero;stroke:none"
         d="m 12950.8,10625.3 -250.9,-84.8 c 0,0 -268.1,59.6 -501.8,0 -233.7,-59.6 -563.7,-192.5 -749.3,-260.1 -185.6,-67.5 -261.2,-58.4 -268.1,-83.6 -6.8,-25.2 179.8,-373.5 179.8,-373.5 0,0 803.2,106.8 1140,72.9 336.9,-33.9 728.7,0 728.7,0 l -278.4,729.1" /><path
         id="path120"
         style="fill:#dc9b70;fill-opacity:1;fill-rule:nonzero;stroke:none"
         d="m 12817.5,10389.8 -117.6,150.7 -240.7,26.2 c 0,0 110.1,-200.3 240.7,-369.9 130.6,-169.5 75.7,-315.2 75.7,-315.2 0,0 423.1,12 391.5,10.1 -31.6,-1.9 -349.6,498.1 -349.6,498.1" /><path
         id="path122"
         style="fill:#fbc398;fill-opacity:1;fill-rule:nonzero;stroke:none"
         d="m 12699.9,10285 c 0,0 492.6,-583.1 510.9,-624.4 18.4,-41.2 -274.9,-444.5 -339.1,-769.8 -64.1,-325.4 71.9,-591.2 84.1,-875.3 12.1,-284.1 0,-476.6 0,-476.6 h 420 c 0,0 4.6,472 110,838.6 105.4,366.6 206.2,857 206.2,857 0,0 159.2,114 187.3,483.2 28.1,369.1 0,937.4 0,937.4 0,0 -645.6,77.9 -677.6,64.1 -32.1,-13.7 -501.8,-434.2 -501.8,-434.2" /><path
         id="path124"
         style="fill:#252323;fill-opacity:1;fill-rule:nonzero;stroke:none"
         d="m 13517.9,11752.6 34.3,-167.2 c 0,0 234.9,-605 327.1,-930.3 l -361.4,-114.6 c 0,0 -192.5,-93.9 -350.6,-148.9 -158.1,-55 -467.4,-130.6 -467.4,-106.6 0,24.1 -247.5,477.8 -323.1,766.5 0,0 -433.1,419.3 -336.8,976.1 96.2,556.8 433,749.2 996.7,793.9 563.7,44.7 481.2,-1068.9 481.2,-1068.9" /><g
         transform="scale(1.00647)"
         id="g126"><path
           id="path128"
           style="fill:#fbc398;fill-opacity:1;fill-rule:nonzero;stroke:none"
           d="m 15871.8,13279.3 -303.4,-126 -110.1,-329.2 84.1,-374.9 379.8,121.3 c 0,0 377.8,519 376.5,547.1 -1.2,28.2 -37.9,47.9 -72.2,121.9 -34.2,74 -354.7,39.8 -354.7,39.8" /></g><path
         id="path130"
         style="fill:#fbc398;fill-opacity:1;fill-rule:nonzero;stroke:none"
         d="m 15167.6,12020.7 c 0,0 68.7,-329.9 137.5,-536.2 68.7,-206.2 68.7,-508.6 151.2,-682.8 82.5,-174.1 279.5,-604.9 279.5,-604.9 l 229.2,68.8 c 0,0 45.8,733.2 0,902.7 -45.8,169.6 -160.4,348.3 -169.6,412.5 -9.1,64.1 59.6,453.6 27.5,627.8 -32.1,174.1 -107.5,468 -107.5,468 l -389.7,-234.3 -158.1,-421.6" /><path
         id="path132"
         style="fill:#3970c1;fill-opacity:1;fill-rule:nonzero;stroke:none"
         d="m 15851.2,13208.8 c 0,0 58.8,-363.2 -16.8,-555.7 -75.6,-192.5 -103.1,-220 -103.1,-220 0,0 -144.4,-391.8 -405.6,-474.3 -261.2,-82.5 -494.9,-89.3 -549.9,-96.2 -55,-6.9 -288.7,-41.2 -405.6,-34.4 -116.8,6.9 -467.4,18.8 -515.5,-0.9 -48.1,-19.7 -336.8,-74.7 -336.8,-74.7 0,0 -275,323.1 -343.7,508.7 -68.8,185.6 -137.5,560.2 -137.5,560.2 0,0 673.6,111.4 1031.1,274 357.4,162.5 1024.2,138.5 1079.2,157.4 55,18.9 704.2,-44.1 704.2,-44.1" /><path
         id="path134"
         style="fill:#e9ae86;fill-opacity:1;fill-rule:nonzero;stroke:none"
         d="m 15869.7,12794.4 c 0,0 -83.4,-288 -234.7,-439.2 -151.2,-151.2 -309.3,-396.4 -309.3,-396.4 0,0 125.2,-51.4 346.2,316.7 221.1,368.1 197.8,518.9 197.8,518.9" /><g
         transform="scale(1.00074)"
         id="g136"><path
           id="path138"
           style="fill:#dc9b70;fill-opacity:1;fill-rule:nonzero;stroke:none"
           d="m 16300,13151 c 0,0 -141.8,-55.3 -204.8,-117.3 -63.1,-62.1 -81.7,-391.2 -81.7,-391.2 l 208,49.1 78.5,459.4" /></g><g
         transform="scale(1.05961)"
         id="g140"><path
           id="path142"
           style="fill:#252323;fill-opacity:1;fill-rule:nonzero;stroke:none"
           d="m 16125.7,12281.9 c 126.1,-8.1 144.1,101.9 144.1,101.9 0,0 0,0 15.1,100.7 15.1,100.7 -41.3,264.1 -150.1,399.5 -108.6,135.3 -180.9,193.2 -180.9,193.2 -65.8,19.3 -146.7,2.7 -146.7,2.7 0,0 -117.8,125.3 -340.5,-13.7 -222.7,-138.9 -390.9,-452.9 -390.9,-452.9 0,0 66.5,-102.7 133.8,-118.3 67.4,-15.5 223.7,25.7 223.7,25.7 0,0 123,-257.5 137.5,-256.2 14.5,1.4 481.6,25.3 481.6,25.3 l 57.5,-9.8 c 4.7,1.6 9.9,2.3 15.8,1.9" /></g><g
         transform="scale(1.04828)"
         id="g144"><path
           id="path146"
           style="fill:#fbc398;fill-opacity:1;fill-rule:nonzero;stroke:none"
           d="m 16300,12414.7 c 0,0 -109.3,-134.6 -137.8,-160.4 -28.6,-25.9 -138.5,-63.9 -153.2,-74.8 -14.5,-10.9 -126.2,-193.7 -137.6,-197 -11.5,-3.3 -58.6,56.2 -65.4,55.4 -6.9,-0.9 -71.1,-28.6 -76.2,-33.5 -4.9,-4.9 -18.6,-10.2 -18.6,-10.2 0,0 -22.7,-19 -38.2,-20.8 -15.5,-1.9 -38.5,-12.2 -47.9,-15.2 -9.5,-2.9 -100.9,-55.1 -120.7,-51.2 -19.8,4 -136.6,188.4 -145.4,223.2 -8.6,34.9 55.1,300.2 79.2,334 24.1,33.7 122.5,90.3 122.5,90.3 0,0 -29.8,89.5 18.6,157 48.4,67.5 169.8,122 224.4,65.2 54.4,-56.9 -16.4,-136.8 -35.9,-157.6 -19.5,-20.9 -43.2,-50.1 -43.6,-54.7 -0.5,-4.6 92,-7.1 136.7,-0.3 44.7,6.8 119.2,98.9 165.6,111 46.3,12 119.4,-17.1 142,-37 22.7,-20 131.5,-223.4 131.5,-223.4" /></g><path
         id="path148"
         style="fill:#eaad81;fill-opacity:1;fill-rule:nonzero;stroke:none"
         d="m 15699.2,10655.1 c -183.3,210.8 -64.2,554.5 -64.2,554.5 -13.7,-371.2 64.2,-554.5 64.2,-554.5" /><path
         id="path150"
         style="fill:#606163;fill-opacity:1;fill-rule:nonzero;stroke:none"
         d="m 13225.7,11984.6 -20.5,145.2 -34.7,-4.9 -1231,-173.8 20.5,-145.2 c 7.9,-56 297.6,-61.3 647.1,-11.9 349.6,49.3 626.5,134.7 618.6,190.6" /><path
         id="path152"
         style="fill:#7c7d7f;fill-opacity:1;fill-rule:nonzero;stroke:none"
         d="m 12586.6,11939.2 c -349.5,-49.4 -639.2,-44 -647.1,11.9 -7.9,55.9 269,141.3 618.5,190.6 349.5,49.4 639.3,44 647.2,-11.9 7.9,-55.9 -269.1,-141.3 -618.6,-190.6" /><g
         transform="scale(1.0309)"
         id="g154"><path
           id="path156"
           style="fill:#fbc398;fill-opacity:1;fill-rule:nonzero;stroke:none"
           d="m 15264.2,9891.22 c 0,0 75.7,-117.8 112.3,-217.79 36.7,-100.01 59.5,-136.77 129.8,-156.76 70.3,-19.98 206.9,-116.69 277,-83.32 69.9,33.37 0,96.71 0,96.71 0,0 403.3,-53.35 423.4,-36.67 20,16.69 16.7,56.66 16.7,56.66 0,0 76.6,0 56.6,46.65 -20,46.66 -246.8,43.36 -456.8,110.04 -210,66.68 -336.7,251.15 -336.7,251.15 l -123.4,18.9 -98.9,-85.57" /></g><g
         transform="scale(1.00725)"
         id="g158"><path
           id="path160"
           style="fill:#dc9b70;fill-opacity:1;fill-rule:nonzero;stroke:none"
           d="m 15966.1,9929.4 64.8,-107.37 123,-68.2 146.1,-18.07 c 0,0 -241.7,65.53 -333.9,193.64" /></g><g
         transform="scale(1.02966)"
         id="g162"><path
           id="path164"
           style="fill:#dc9b70;fill-opacity:1;fill-rule:nonzero;stroke:none"
           d="m 16242.9,9561.54 c 0,0 10,10 -116.8,33.41 -126.9,23.31 -263.8,70.02 -263.8,70.02 l 437.7,-82.26 c 0,0 -18.4,-37.88 -57.1,-21.17" /></g><path
         id="path166"
         style="fill:#abaaa9;fill-opacity:1;fill-rule:nonzero;stroke:none"
         d="m 12482.7,12038.9 -139.2,1007.7 173.8,24 139.2,-1007.7 -173.8,-24" /><path
         id="path168"
         style="fill:#606163;fill-opacity:1;fill-rule:nonzero;stroke:none"
         d="m 13052.9,13207.8 -20.5,145.2 -34.6,-4.9 -1231,-173.8 20.5,-145.2 c 7.9,-55.9 297.6,-61.3 647.1,-11.9 349.5,49.3 626.4,134.7 618.5,190.6" /><path
         id="path170"
         style="fill:#7c7d7f;fill-opacity:1;fill-rule:nonzero;stroke:none"
         d="m 12413.9,13162.4 c -349.5,-49.3 -639.2,-44 -647.1,11.9 -7.9,55.9 269,141.3 618.5,190.6 349.5,49.4 639.3,44 647.2,-11.9 7.8,-55.9 -269.1,-141.2 -618.6,-190.6" /><path
         id="path172"
         style="fill:#edcab2;fill-opacity:1;fill-rule:nonzero;stroke:none"
         d="m 13675.1,9154.3 v 0 c 0.2,0.9 0.4,1.8 0.5,2.7 l -0.5,-2.7 m 16.9,80.2 v 0 0 0" /><path
         id="path174"
         style="fill:#eaad81;fill-opacity:1;fill-rule:nonzero;stroke:none"
         d="m 13675.1,9154.3 c -1.2,0.1 -118.8,7.7 -185.9,171.8 0,0 89.1,-92.2 189.1,-92.2 4.6,0 9.1,0.2 13.7,0.6 v 0 l -16.4,-77.5 c -0.1,-0.9 -0.3,-1.8 -0.5,-2.7" /><path
         id="path176"
         style="fill:#3970c1;fill-opacity:1;fill-rule:nonzero;stroke:none"
         d="m 12864.1,7307.5 c 0,0 -73.3,-447.9 5.5,-506.7 78.8,-58.8 332.2,-0.9 448.4,-50.5 116.2,-49.6 725.8,-60.2 892.6,128.3 166.7,188.6 -642.7,428 -688.5,473.2 -45.8,45.2 -31,103.4 -67.2,146.7 -36.1,43.2 -226.5,80.8 -226.5,80.8 0,0 -68.2,96.1 -128.2,37.9 -60.1,-58.1 -236.1,-309.7 -236.1,-309.7" /><path
         id="path178"
         style="fill:#f5f6f5;fill-opacity:1;fill-rule:nonzero;stroke:none"
         d="m 13308.3,7540 c 0,0 -56.8,-54.8 -82.6,-73.3 -36.4,-26.1 -67.1,-29.1 -67.1,-29.1 -78.4,-14.1 -202.7,-2.1 -202.7,-2.1 l -5.1,267.3 432.5,13.1 -6.3,-176.2 c 0,0 4.5,12.2 -68.7,0.3" /><path
         id="path180"
         style="fill:#3970c1;fill-opacity:1;fill-rule:nonzero;stroke:none"
         d="m 10932.1,10303.5 c 0,0 -450.6,54.3 -506,-26.9 -55.4,-81.3 13.1,-332 -31.5,-450.2 -44.6,-118.2 -29.4,-727.7 166.1,-886.3 195.4,-158.6 400.3,660.3 443.5,707.9 43.2,47.7 102,35.4 143.7,73.3 41.7,37.9 71.1,229.7 71.1,229.7 0,0 93.2,72.3 32.6,129.8 -60.7,57.5 -319.5,222.7 -319.5,222.7" /><path
         id="path182"
         style="fill:#f5f6f5;fill-opacity:1;fill-rule:nonzero;stroke:none"
         d="m 11183.2,9869.6 c 0,0 -57.1,54.4 -76.7,79.4 -27.7,35.2 -31.9,65.8 -31.9,65.8 -17.4,77.7 -10.7,202.4 -10.7,202.4 l 266.8,16.4 29.8,-410.3 -174.7,-22.4 c 0,0 12.3,-4 -2.6,68.7" /><path
         id="path184"
         style="fill:#fbc398;fill-opacity:1;fill-rule:nonzero;stroke:none"
         d="m 12952.7,12554.8 66.2,-87.1 c 0,0 170.3,111.7 523.1,113.4 352.9,1.7 866.2,183.9 866.2,183.9 l 536.1,-26.3 c 0,0 188.4,-277.8 467.4,-297.9 279.1,-20.1 458.4,357.4 458.3,632.4 0,274.9 -176.7,356.2 -516.8,304.1 0,0 -156,83.9 -452,73.2 -296,-10.7 -761,-216.9 -761,-216.9 0,0 -327.8,-75.9 -511.1,-134.2 -183.3,-58.3 -552.3,-274.7 -656.5,-304 -104.2,-29.2 -19.9,-240.6 -19.9,-240.6" /><path
         id="path186"
         style="fill:#dc9b70;fill-opacity:1;fill-rule:nonzero;stroke:none"
         d="m 14944.3,12738.7 246.3,-18.4 110,-127.1 c 0,0 -123.7,63 -151.2,72.7 -27.5,9.7 -131.5,-15.4 -131.5,-15.4 l -73.6,88.2" /><path
         id="path188"
         style="fill:#eaad81;fill-opacity:1;fill-rule:nonzero;stroke:none"
         d="m 14610.3,13243.4 c -17,0 -28,1.6 -28,1.6 0,0 29.8,11.5 103.1,52.7 73.3,41.3 93.9,103.1 93.9,103.1 0,0 16.1,-64.1 -43.5,-116.8 -39.1,-34.6 -93.1,-40.6 -125.5,-40.6" /><path
         id="path190"
         style="fill:#fcd2b5;fill-opacity:1;fill-rule:nonzero;stroke:none"
         d="m 15815,13185.3 c 44.1,-161.7 -45.6,-462.7 -70.5,-540.7 80.3,126.5 125.6,290.5 125.5,428.6 0,206.5 -99.6,303.7 -293.4,317.3 3.4,-0.4 188,-20.1 238.4,-205.2" /><path
         id="path192"
         style="fill:#fbc398;fill-opacity:1;fill-rule:nonzero;stroke:none"
         d="m 12972.6,12795.4 c 0,0 -207.7,84.8 -283,98.7 -75.3,13.8 -386,-57.3 -403.9,-84.3 -17.9,-26.9 -5.8,-55.1 -5.8,-55.1 0,0 -39.3,-68.1 -35.6,-94.7 3.8,-26.7 22.4,-62.1 26.2,-69.7 3.8,-7.6 -29.4,-80.3 -0.6,-111.5 28.9,-31.3 43.4,-37.4 43.4,-37.4 0,0 -16.9,-92.1 16.5,-117.2 33.5,-25.2 128.9,-66.1 128.9,-66.1 0,0 6.1,14.5 34.7,23.9 28.5,9.5 121.1,28 121.1,28 l 18.5,-54.4 c 0,0 203.2,4.2 223.8,31.6 20.6,27.3 162.1,180.5 162.1,180.5 0,0 74.7,105.6 67.9,134.6 -6.8,28.9 -114.2,193.1 -114.2,193.1" /></g></g></svg>