<?xml version="1.0" encoding="UTF-8" standalone="no"?>
<svg
   xmlns:dc="http://purl.org/dc/elements/1.1/"
   xmlns:cc="http://creativecommons.org/ns#"
   xmlns:rdf="http://www.w3.org/1999/02/22-rdf-syntax-ns#"
   xmlns:svg="http://www.w3.org/2000/svg"
   xmlns="http://www.w3.org/2000/svg"
   viewBox="0 0 2666.6667 2666.6667"
   height="2666.6667"
   width="2666.6667"
   xml:space="preserve"
   id="svg2"
   version="1.1"><metadata
     id="metadata8"><rdf:RDF><cc:Work
         rdf:about=""><dc:format>image/svg+xml</dc:format><dc:type
           rdf:resource="http://purl.org/dc/dcmitype/StillImage" /></cc:Work></rdf:RDF></metadata><defs
     id="defs6" /><g
     transform="matrix(1.3333333,0,0,-1.3333333,0,2666.6667)"
     id="g10"><g
       transform="scale(0.1)"
       id="g12"><g
         transform="scale(1.22699)"
         id="g14"><path
           id="path16"
           style="fill:#ffffff;fill-opacity:1;fill-rule:nonzero;stroke:none"
           d="M 16300,0 H 0 V 16300 H 16300 V 0" /></g><path
         id="path18"
         style="fill:#3970c0;fill-opacity:1;fill-rule:nonzero;stroke:none"
         d="m 8119.56,7276.1 c 0,0 -201.94,-122.6 -216.36,-252.4 -14.42,-129.8 -182.7,-389.4 -115.39,-524 67.31,-134.7 629.83,-341.4 889.46,-471.2 259.62,-129.8 600.98,-28.9 658.67,129.8 57.7,158.7 -610.59,827 -610.59,827 0,0 4.8,230.7 -211.55,283.6 -216.35,52.9 -394.24,7.2 -394.24,7.2" /><path
         id="path20"
         style="fill:#3970c0;fill-opacity:1;fill-rule:nonzero;stroke:none"
         d="m 8528.22,7942 c 33.66,-4.8 288.47,-43.3 471.17,0 182.7,43.3 586.56,-33.6 735.61,0 149.04,33.7 192.31,206.8 158.66,269.3 -33.66,62.5 -497.77,225.9 -554.18,278.8 -56.42,52.9 -104.5,182.7 -147.77,201.9 -43.27,19.3 -153.85,24.1 -187.51,24.1 -33.65,0 -448.47,-62.5 -448.47,-62.5 0,0 -92.09,-105.8 -83.84,-230.8 8.25,-125 56.33,-480.8 56.33,-480.8" /><path
         id="path22"
         style="fill:#100f0d;fill-opacity:1;fill-rule:nonzero;stroke:none"
         d="m 8114.75,9201.7 55.29,-122.6 c 0,0 129.42,-7.2 169.28,36 39.86,43.3 212.94,418.3 87.94,442.4 -125.01,24 -375.01,19.2 -389.44,0 -14.42,-19.3 76.93,-355.8 76.93,-355.8" /><path
         id="path24"
         style="fill:#efb38d;fill-opacity:1;fill-rule:nonzero;stroke:none"
         d="m 8785.22,8474.4 c 3.86,10.5 60.32,-15.7 161.29,0 100.96,15.7 144.23,83.6 144.23,83.6 0,0 -1.69,374.4 145.8,807.1 147.48,432.8 344.6,1072.2 334.99,1254.9 -9.62,182.7 -231.8,370.2 -379.82,413.5 -148.02,43.2 -642.95,-427.9 -642.95,-427.9 l -188.81,-552.9 c 0,0 291.65,-1354.4 297.27,-1384 5.62,-29.5 128,-194.3 128,-194.3" /><path
         id="path26"
         style="fill:#df9866;fill-opacity:1;fill-rule:nonzero;stroke:none"
         d="m 8938.9,10271.3 84.53,-94 c 0,0 -120.19,-86.2 -283.66,-71.7 -163.47,14.4 199.13,165.7 199.13,165.7" /><path
         id="path28"
         style="fill:#f5f6f5;fill-opacity:1;fill-rule:nonzero;stroke:none"
         d="m 9178,9168.7 c -235.16,-22.5 -480.87,-11.2 -627.63,-1.1 56.71,-263.8 104.61,-487.1 106.85,-498.9 5.62,-29.5 128,-194.3 128,-194.3 3.86,10.5 60.32,-15.7 161.28,0 100.97,15.7 144.24,83.6 144.24,83.6 0,0 -1.2,267.1 87.26,610.7" /><path
         id="path30"
         style="fill:#fbc398;fill-opacity:1;fill-rule:nonzero;stroke:none"
         d="m 8119.56,9427.6 177.89,-211.5 c 0,0 -264.44,-423.1 -317.32,-716.4 -52.89,-293.3 28.84,-721.1 38.46,-1024 9.61,-302.9 0,-418.3 0,-418.3 0,0 64.06,-177.9 111.36,-182.7 47.3,-4.8 181.92,91.3 196.34,120.2 14.43,28.8 115.39,221.1 134.62,240.4 19.23,19.2 52.89,33.6 52.89,33.6 0,0 48.08,466.2 163.47,882.2 115.39,415.9 466.36,1151.5 461.55,1435.2 -4.81,283.7 -331.74,562.5 -331.74,562.5 0,0 -336.55,105.8 -379.82,91.4 -43.28,-14.4 -326.94,76.9 -408.67,-259.7 C 7936.86,9644 7962.45,9394 7962.45,9394 l 157.11,33.6" /><path
         id="path32"
         style="fill:#252323;fill-opacity:1;fill-rule:nonzero;stroke:none"
         d="m 5984.86,10254.6 c 0,0 274.05,-180.3 475.98,-346.2 201.93,-165.8 439.92,-115.4 728.39,-230.7 288.48,-115.4 980.81,-627.5 980.81,-598.6 0,28.8 21.63,293.3 79.33,445.9 57.69,152.7 206.73,537.3 326.93,595 120.2,57.7 230.78,28.8 230.78,28.8 0,0 221.16,139.5 293.28,447.2 72.12,307.7 91.35,437.5 91.35,437.5 0,0 -740.41,216.3 -1033.69,302.9 -293.28,86.5 -543.29,62.5 -644.26,100.9 -100.96,38.5 -158.66,48.1 -312.51,52.9 -153.85,4.8 -552.9,43.3 -552.9,43.3 0,0 -331.74,-86.6 -413.48,-197.1 -81.73,-110.6 -269.24,-389.5 -269.24,-389.5 l -139.42,-355.7 158.65,-336.6" /><path
         id="path34"
         style="fill:#224c73;fill-opacity:1;fill-rule:nonzero;stroke:none"
         d="m 2657.82,10059.3 c 0,-182.7 -148.09,-330.8 -330.78,-330.8 -182.68,0 -330.78,148.1 -330.78,330.8 0,182.7 148.1,330.8 330.78,330.8 182.69,0 330.78,-148.1 330.78,-330.8" /><path
         id="path36"
         style="fill:#2d60a0;fill-opacity:1;fill-rule:nonzero;stroke:none"
         d="m 2578.97,10033.7 c 0,-182.6 -148.09,-330.7 -330.78,-330.7 -182.68,0 -330.78,148.1 -330.78,330.7 0,182.7 148.1,330.8 330.78,330.8 182.69,0 330.78,-148.1 330.78,-330.8" /><path
         id="path38"
         style="fill:#224c73;fill-opacity:1;fill-rule:nonzero;stroke:none"
         d="m 2204.53,9900.3 c 0,-182.7 -148.09,-330.8 -330.78,-330.8 -182.69,0 -330.78,148.1 -330.78,330.8 0,182.7 148.09,330.8 330.78,330.8 182.69,0 330.78,-148.1 330.78,-330.8" /><path
         id="path40"
         style="fill:#2d60a0;fill-opacity:1;fill-rule:nonzero;stroke:none"
         d="m 2125.68,9874.7 c 0,-182.7 -148.09,-330.8 -330.78,-330.8 -182.68,0 -330.78,148.1 -330.78,330.8 0,182.7 148.1,330.8 330.78,330.8 182.69,0 330.78,-148.1 330.78,-330.8" /><path
         id="path42"
         style="fill:#969797;fill-opacity:1;fill-rule:nonzero;stroke:none"
         d="m 3561.7,9321.9 c 19.23,4.8 2192.39,-283.7 2192.39,-283.7 l 182.69,163.5 -91.35,163.4 -1050.51,163.5 v 971.2 l -185.11,-134.6 -4.81,-827 -783.68,101 -259.62,-317.3" /><path
         id="path44"
         style="fill:#d8d7d5;fill-opacity:1;fill-rule:nonzero;stroke:none"
         d="m 4605,9538.2 68.92,-13.2 v 886.8 l -64.11,-46.6 -4.81,-827" /><path
         id="path46"
         style="fill:#a8a8a6;fill-opacity:1;fill-rule:nonzero;stroke:none"
         d="m 2025.59,8869.9 53.37,-1875 -926,209.1 -288.472,-209.1 V 6742.5 L 3576.12,6143.9 3842.96,6367.4 3684.3,6641.5 2353.73,6930 c 0,0 25.23,1088.9 46.87,1161.1 21.64,72.1 2238.06,2144.3 2238.06,2144.3 l -28.85,129.8 c 0,0 -942.34,-293.3 -1125.03,-346.2 -182.7,-52.9 -1459.19,-1149.1 -1459.19,-1149.1" /><path
         id="path48"
         style="fill:#d8d7d5;fill-opacity:1;fill-rule:nonzero;stroke:none"
         d="m 2078.96,6994.9 85.25,-22.5 -26.09,1788.6 -109.91,16.8 50.75,-1782.9" /><path
         id="path50"
         style="fill:#252323;fill-opacity:1;fill-rule:nonzero;stroke:none"
         d="m 1431.82,9235.3 c 0,0 -24.04,-221.1 48.08,-312.5 72.11,-91.3 1091.38,-250 1250.04,-192.3 158.66,57.7 2064.98,1769.3 2064.98,1769.3 l -1911.13,-72.1 c 0,0 -1317.35,-985.6 -1451.97,-1192.4" /><path
         id="path52"
         style="fill:#100f0d;fill-opacity:1;fill-rule:nonzero;stroke:none"
         d="M 4384.56,10484.3 2705.9,9052.6 2602.53,8913.2 c 0,0 -143.49,-88.6 -342.77,-168.4 216.07,-26.4 408.39,-36.8 470.18,-14.3 158.66,57.7 2064.98,1769.3 2064.98,1769.3 l -410.36,-15.5" /><path
         id="path54"
         style="fill:#252323;fill-opacity:1;fill-rule:nonzero;stroke:none"
         d="m 2405.41,10812.3 c -2.41,31.3 -24.04,84.1 -33.66,165.9 -9.61,81.7 -36.06,218.7 -19.23,278.8 16.83,60.1 108.18,271.7 163.47,300.5 55.29,28.9 100.96,57.7 173.08,67.3 72.12,9.7 103.37,-7.2 120.2,-24 16.83,-16.8 172.28,-269.2 172.28,-269.2 0,0 217.16,-132.2 207.54,-250 -9.62,-117.8 84.14,-132.4 -96.16,-253.7 -180.29,-121.4 -362.99,-181.5 -362.99,-181.5 l -213.95,-17.7 -110.58,183.6" /><path
         id="path56"
         style="fill:#efb38d;fill-opacity:1;fill-rule:nonzero;stroke:none"
         d="m 2835.71,10800.3 c 0,0 -24.04,81.7 12.02,110.6 36.06,28.8 158.66,10.5 158.66,25.7 0,15.1 31.25,24.8 26.45,32 -4.81,7.2 -86.68,26.4 -102.24,36 -15.56,9.6 -76.93,43.3 -102.74,69.7 -25.8,26.5 -124.36,31.3 -138.79,52.9 -14.42,21.7 -16.82,81.8 -31.25,96.2 -14.42,14.4 -87.98,55.3 -78.85,91.3 9.14,36.1 88.47,230.8 126.93,259.7 38.47,28.8 161.06,79.9 204.33,91.6 43.28,11.7 71.32,16.5 71.32,16.5 0,0 135.42,103.4 159.46,105.8 24.04,2.4 76.93,-84.1 76.93,-84.1 0,0 192.31,-14.4 235.59,-24.1 43.26,-9.6 182.69,-12 228.36,-55.3 45.68,-43.2 93.76,-209.1 88.95,-230.7 -4.8,-21.7 -209.14,-389.5 -209.14,-389.5 0,0 -258.02,-200.3 -400.66,-285.2 -142.63,-85 -265.23,-104.2 -294.08,-82.6 -28.84,21.7 -31.25,163.5 -31.25,163.5" /><path
         id="path58"
         style="fill:#3970c0;fill-opacity:1;fill-rule:nonzero;stroke:none"
         d="m 3433.46,11206.5 c 0,0 190.74,250.1 450.37,394.3 259.62,144.2 923.11,322.1 1206.77,346.2 283.66,24 980.81,-192.3 1125.04,-245.2 144.24,-52.9 432.71,-168.3 432.71,-168.3 0,0 -254.82,-232.2 -403.86,-596.9 -149.05,-364.7 -259.63,-682 -259.63,-682 0,0 -288.47,109.3 -557.71,109.9 -269.24,0.7 -926.94,-172.2 -1173.12,-186.8 -246.18,-14.7 -677.91,418.3 -658.67,509.6 19.22,91.4 -161.9,519.2 -161.9,519.2" /><path
         id="path60"
         style="fill:#414042;fill-opacity:1;fill-rule:nonzero;stroke:none"
         d="m 1431.82,9235.3 c 0,0 -24.04,-221.1 48.08,-312.5 72.12,-91.3 1091.38,-250 1250.04,-192.3 l -24.04,322.1 -1274.08,182.7" /><path
         id="path62"
         style="fill:#fbc398;fill-opacity:1;fill-rule:nonzero;stroke:none"
         d="m 3111.45,10918.1 c 0,0 315.63,355.8 527.18,379.8 211.54,24 711.56,-43.3 841.37,-189.9 129.81,-146.6 128.34,-531.3 67.31,-656.3 -61.03,-124.9 -173.08,-240.4 -293.28,-274 -120.19,-33.7 -576.94,0 -576.94,0 0,0 -245.2,-62.5 -514.44,-38.5 -269.24,24.1 -370.21,91.4 -370.21,91.4 l -696.23,-9.7 c 0,0 -65.76,-126.6 -68,-193.9 -3.95,-118.6 48.04,-158 22.41,-164.4 -25.65,-6.4 -322.32,45.8 -322.32,45.8 0,0 -144.23,160.3 -173.08,282.1 -28.85,121.8 -48.08,346.2 -28.85,394.2 19.23,48.1 368.61,230.8 592.97,259.7 224.37,28.8 915.39,-12.9 933.67,3.2 18.29,16 58.44,70.5 58.44,70.5" /><path
         id="path64"
         style="fill:#df9866;fill-opacity:1;fill-rule:nonzero;stroke:none"
         d="m 2981.55,10754.6 c 0,0 169.88,-38.4 179.49,-35.2 9.62,3.2 269.24,166.6 493.61,214.7 0,0 -269.24,35.3 -493.61,-160.2 l -179.49,-19.3" /><path
         id="path66"
         style="fill:#df9866;fill-opacity:1;fill-rule:nonzero;stroke:none"
         d="m 2792.44,10230.6 c 0,0 38.46,59.3 92.96,81.7 0,0 -102.85,-12.5 -227.58,-81.7 h 134.62" /><path
         id="path68"
         style="fill:#fbc398;fill-opacity:1;fill-rule:nonzero;stroke:none"
         d="m 1728.3,9908.4 c 0,0 -41.66,-45.6 -65.71,-84.1 -24.04,-38.5 -33.65,-125 -43.27,-129.8 -9.61,-4.8 -102.82,9.6 -100.69,-9.6 2.13,-19.3 35.79,-38.5 59.83,-64.9 24.04,-26.5 122.6,-84.2 206.74,-74.6 84.13,9.7 360.59,172.1 360.59,181 0,9 9.61,42.6 0,54.6 -9.62,12 -116.2,178.7 -116.2,178.7 0,0 -157.85,64.1 -172.28,56.9 -14.42,-7.2 -129.01,-108.2 -129.01,-108.2" /><path
         id="path70"
         style="fill:#100f0d;fill-opacity:1;fill-rule:nonzero;stroke:none"
         d="m 7739.73,11201.8 4.81,-293.3 1062.54,-759.7 c 0,0 98.35,79.3 131.82,122.5 0,0 -1072.37,681 -1129.24,720.7 -12.46,8.7 -69.93,209.8 -69.93,209.8" /><path
         id="path72"
         style="fill:#f5f6f5;fill-opacity:1;fill-rule:nonzero;stroke:none"
         d="m 7999.72,7736.6 c 8.77,-92.5 16.33,-181.1 18.87,-260.9 9.61,-302.9 0,-418.3 0,-418.3 0,0 64.06,-177.9 111.36,-182.7 47.3,-4.8 181.92,91.3 196.34,120.2 14.43,28.8 115.39,221.1 134.62,240.4 19.24,19.2 52.89,33.6 52.89,33.6 0,0 19.26,186.7 62.62,429.1 -198.26,5.2 -433.78,25.1 -576.7,38.6" /><path
         id="path74"
         style="fill:#252323;fill-opacity:1;fill-rule:nonzero;stroke:none"
         d="M 2858.14,9994.4 H 2317.3 C 2023.02,9765 1691.19,9498.6 1526.01,9339.3 h 1332.13 v 655.1" /><g
         transform="scale(1.14262)"
         id="g76"><path
           id="path78"
           style="fill:#3970c0;fill-opacity:1;fill-rule:nonzero;stroke:none"
           d="m 15185,6437.31 c 0,0 -176.8,-107.29 -189.4,-220.89 -12.6,-113.6 -159.9,-340.89 -101,-458.68 58.9,-117.8 551.2,-298.79 778.5,-412.39 227.2,-113.6 525.9,-25.2 576.4,113.6 50.5,138.89 -534.4,723.77 -534.4,723.77 0,0 4.3,202 -185.1,248.29 -189.4,46.3 -345,6.3 -345,6.3" /></g><g
         transform="scale(1.17536)"
         id="g80"><path
           id="path82"
           style="fill:#3970c0;fill-opacity:1;fill-rule:nonzero;stroke:none"
           d="m 15109.6,6824.54 c 28.7,-4.09 245.5,-36.84 400.9,0 155.5,36.75 499.1,-28.68 625.9,0 126.8,28.58 163.6,175.86 135,229.03 -28.7,53.18 -423.5,192.28 -471.5,237.29 -48,45.01 -88.9,155.44 -125.8,171.78 -36.8,16.33 -130.8,20.42 -159.5,20.42 -28.6,0 -381.6,-53.18 -381.6,-53.18 0,0 -78.3,-89.93 -71.3,-196.28 7,-106.35 47.9,-409.06 47.9,-409.06" /></g><g
         transform="scale(1.09101)"
         id="g84"><path
           id="path86"
           style="fill:#100f0d;fill-opacity:1;fill-rule:nonzero;stroke:none"
           d="m 15898.9,8506.73 50.7,-112.37 c 0,0 118.7,-6.6 155.2,33.09 36.5,39.69 195.2,383.41 80.6,405.4 -114.6,22.1 -343.8,17.6 -357,0 -13.2,-17.59 70.5,-326.12 70.5,-326.12" /></g><g
         transform="scale(1.15412)"
         id="g88"><path
           id="path90"
           style="fill:#efb38d;fill-opacity:1;fill-rule:nonzero;stroke:none"
           d="m 15610.4,7411.34 c 3.4,9.1 52.2,-13.6 139.7,0 87.6,13.69 125,72.53 125,72.53 0,0 -1.5,324.4 126.3,699.31 127.8,374.92 298.6,928.98 290.3,1087.28 -8.3,158.3 -200.9,320.76 -329.1,358.26 -128.2,37.5 -557,-370.76 -557,-370.76 l -163.7,-479.07 c 0,0 252.7,-1173.55 257.6,-1199.11 4.8,-25.65 110.9,-168.44 110.9,-168.44" /></g><g
         transform="scale(1.12939)"
         id="g92"><path
           id="path94"
           style="fill:#f5f6f5;fill-opacity:1;fill-rule:nonzero;stroke:none"
           d="m 16300,8188.47 c -208.3,-19.92 -425.8,-10 -555.7,-0.97 50.2,-233.67 92.6,-431.3 94.6,-441.74 4.9,-26.21 113.3,-172.13 113.3,-172.13 3.5,9.3 53.4,-13.9 142.8,0 89.5,13.99 127.7,74.11 127.7,74.11 0,0 -1.1,236.41 77.3,540.73" /></g><g
         transform="scale(1.11991)"
         id="g96"><path
           id="path98"
           style="fill:#df9866;fill-opacity:1;fill-rule:nonzero;stroke:none"
           d="m 16224.5,9242.32 75.5,-83.92 c 0,0 -107.3,-76.95 -253.2,-64.07 -146,12.87 177.7,147.99 177.7,147.99" /></g><g
         transform="scale(1.12728)"
         id="g100"><path
           id="path102"
           style="fill:#fbc398;fill-opacity:1;fill-rule:nonzero;stroke:none"
           d="m 15391.6,8433.47 157.7,-187.62 c 0,0 -234.5,-375.33 -281.4,-635.51 -47,-260.18 25.6,-639.77 34.1,-908.47 8.5,-268.7 0,-371.07 0,-371.07 0,0 56.9,-157.81 98.8,-162.07 41.9,-4.26 161.4,81.08 174.2,106.63 12.8,25.64 102.4,196.22 119.4,213.26 17,17.03 46.9,29.89 46.9,29.89 0,0 42.7,413.56 145.1,782.5 102.3,369.03 413.6,1021.57 409.3,1273.24 -4.2,251.58 -294.2,498.97 -294.2,498.97 0,0 -298.6,93.83 -336.9,81.04 -38.4,-12.8 -290.1,68.23 -362.6,-230.32 -72.5,-298.5 -49.8,-520.37 -49.8,-520.37 l 139.4,29.9" /></g><g
         transform="scale(1.13023)"
         id="g104"><path
           id="path106"
           style="fill:#252323;fill-opacity:1;fill-rule:nonzero;stroke:none"
           d="m 13462.7,9143.11 c 0,0 242.4,-159.52 421.1,-306.26 178.7,-146.78 389.3,-102.1 644.4,-204.21 255.3,-102.1 867.8,-555.1 867.8,-529.62 0,25.57 19.2,259.5 70.3,394.61 51,135.01 182.9,475.33 289.2,526.38 106.4,51.04 204.2,25.52 204.2,25.52 0,0 195.6,123.36 259.5,395.61 63.8,272.25 80.8,387.1 80.8,387.1 0,0 -655.1,191.46 -914.6,267.96 -259.5,76.6 -480.7,55.3 -570,89.4 -89.3,34 -140.4,42.5 -276.5,46.8 -136.1,4.2 -489.2,38.2 -489.2,38.2 0,0 -293.5,-76.5 -365.8,-174.4 -72.4,-97.8 -238.3,-344.52 -238.3,-344.52 l -123.3,-314.8 140.4,-297.77" /></g><path
         id="path108"
         style="fill:#224c73;fill-opacity:1;fill-rule:nonzero;stroke:none"
         d="m 13737.9,12796.8 c 0,0 -174.9,81.7 -198.9,91.3 -24,9.6 -610.6,250 -629.8,259.6 -4.1,2 -9.8,4.4 -16.6,6.8 3.3,9.9 1.3,19.7 -16.5,23.3 -40,8 -66,14.4 -66,14.4 0,0 -16.8,-19.2 -31.7,-47.4 -5.3,-7.1 -8.9,-15.7 -11.5,-25.1 v 0 c -0.6,-1.6 -1,-3.3 -1.3,-5 -4.4,-19.4 -5,-41.5 -6.1,-60.4 -20.8,-48.7 170.1,-176.8 426.3,-285.9 256.2,-109.2 480.8,-158.2 501.6,-109.5 55.4,46.6 50.5,137.9 50.5,137.9" /><path
         id="path110"
         style="fill:#2d60a0;fill-opacity:1;fill-rule:nonzero;stroke:none"
         d="m 13311.6,13082.8 c 256.2,-109.2 447.1,-237.2 426.3,-286 -20.8,-48.7 -245.3,0.3 -501.5,109.4 -256.2,109.2 -447.1,237.2 -426.3,286 20.8,48.7 245.3,-0.3 501.5,-109.4" /><path
         id="path112"
         style="fill:#969797;fill-opacity:1;fill-rule:nonzero;stroke:none"
         d="m 13302,13374.4 -141.4,-343.3 c 0,0 36.1,-55.2 103.4,-64.9 67.3,-9.6 240.4,105.8 211.5,226 -28.8,120.2 -38.4,182.2 -38.4,182.2 H 13302" /><path
         id="path114"
         style="fill:#efb38d;fill-opacity:1;fill-rule:nonzero;stroke:none"
         d="m 13421,11898.9 c 3.2,22.4 362.2,461.5 359,480.8 -3.2,19.2 3.2,214.7 22.5,448.7 19.2,234 -67.4,525.7 -67.4,525.7 0,0 -137.8,70.5 -137.8,83.3 0,12.8 22.4,137.8 64.1,144.2 41.7,6.5 288.5,-38.4 288.5,-38.4 l 48.1,-112.2 c 0,0 234,-256.4 288.4,-471.2 54.5,-214.7 19.3,-641 19.3,-641 0,0 -60.9,-461.6 -86.6,-468 -25.6,-6.4 -89.7,-160.2 -426.3,-208.3 -336.5,-48.1 -426.3,0 -426.3,0 l 54.5,256.4" /><path
         id="path116"
         style="fill:#252323;fill-opacity:1;fill-rule:nonzero;stroke:none"
         d="m 12369.7,11035.9 c 0,0 67.9,-198.6 66.4,-209.9 -1.5,-11.3 -82.4,-118.1 -82.4,-118.1 l -57.7,-39.8 c 0,0 -212.4,62.5 -197.9,163.4 14.4,101 48,142.7 93.7,163.5 45.7,20.8 177.9,40.9 177.9,40.9" /><path
         id="path118"
         style="fill:#252323;fill-opacity:1;fill-rule:nonzero;stroke:none"
         d="m 11636.5,10891.6 c -2.4,31.2 -24,84.1 -33.6,165.8 -9.7,81.8 -36.1,218.8 -19.3,278.9 16.8,60.1 108.2,271.6 163.5,300.5 55.3,28.8 101,57.7 173.1,67.3 72.1,9.6 103.3,-7.2 120.2,-24 16.8,-16.9 172.2,-269.3 172.2,-269.3 0,0 217.2,-132.2 207.6,-250 -9.6,-117.8 84.1,-132.3 -96.2,-253.7 -180.3,-121.3 -363,-181.4 -363,-181.4 l -213.9,-17.8 -110.6,183.7" /><path
         id="path120"
         style="fill:#efb38d;fill-opacity:1;fill-rule:nonzero;stroke:none"
         d="m 12066.8,10879.6 c 0,0 -24,81.7 12,110.5 36.1,28.9 158.7,10.6 158.7,25.7 0,15.2 31.2,24.8 26.4,32 -4.8,7.2 -86.6,26.5 -102.2,36.1 -15.6,9.6 -76.9,43.3 -102.7,69.7 -25.8,26.4 -124.4,31.2 -138.8,52.9 -14.5,21.6 -16.9,81.7 -31.3,96.1 -14.4,14.5 -88,55.3 -78.8,91.4 9.1,36 88.4,230.8 126.9,259.6 38.5,28.9 161.1,79.9 204.3,91.7 43.3,11.7 71.3,16.5 71.3,16.5 0,0 135.5,103.4 159.5,105.8 24.1,2.4 76.9,-84.2 76.9,-84.2 0,0 192.3,-14.4 235.6,-24 43.3,-9.6 182.7,-12 228.4,-55.3 45.7,-43.3 93.7,-209.2 88.9,-230.8 -4.8,-21.6 -209.1,-389.4 -209.1,-389.4 0,0 -258,-200.3 -400.7,-285.3 -142.6,-84.9 -265.2,-104.2 -294,-82.5 -28.9,21.6 -31.3,163.5 -31.3,163.5" /><path
         id="path122"
         style="fill:#969797;fill-opacity:1;fill-rule:nonzero;stroke:none"
         d="m 12792.8,9401.1 c 19.2,4.8 2192.4,-283.6 2192.4,-283.6 l 182.7,163.4 -91.4,163.5 -1050.5,163.5 v 971.2 l -185.1,-134.7 -4.8,-826.9 -783.7,100.9 -259.6,-317.3" /><path
         id="path124"
         style="fill:#252323;fill-opacity:1;fill-rule:nonzero;stroke:none"
         d="m 11693.4,10907.1 -56.9,-15.5 c 0,0 50.5,-188.3 82.5,-223.5 32.1,-35.3 33.1,-118.6 90.3,-147.5 57.2,-28.8 424.1,9.4 446.2,25.3 22.2,15.8 116.6,83.2 123.8,88.2 7.2,5.1 -16,72 -25.6,73.8 -9.6,1.9 -144.3,56.3 -157.1,66 -12.8,9.6 -32,60.9 -32,60.9 0,0 -64.1,-13 -97.8,44.8 -33.6,57.7 -232.4,224.4 -296.5,166.7 -64.1,-57.7 -76.9,-139.2 -76.9,-139.2" /><path
         id="path126"
         style="fill:#d8d7d5;fill-opacity:1;fill-rule:nonzero;stroke:none"
         d="m 13836.1,9617.5 68.9,-13.2 v 886.8 l -64.1,-46.7 -4.8,-826.9" /><path
         id="path128"
         style="fill:#a8a8a6;fill-opacity:1;fill-rule:nonzero;stroke:none"
         d="m 11256.7,8949.2 53.3,-1875.1 -925.9,209.2 -288.5,-209.2 v -252.4 l 2711.6,-598.6 266.9,223.6 -158.7,274 -1330.6,288.5 c 0,0 25.3,1089 46.9,1161.1 21.6,72.1 2238.1,2144.3 2238.1,2144.3 l -28.9,129.8 c 0,0 -942.3,-293.2 -1125,-346.1 -182.7,-52.9 -1459.2,-1149.1 -1459.2,-1149.1" /><path
         id="path130"
         style="fill:#d8d7d5;fill-opacity:1;fill-rule:nonzero;stroke:none"
         d="m 11310,7074.1 85.3,-22.4 -26.1,1788.5 -109.9,16.9 50.7,-1783" /><path
         id="path132"
         style="fill:#252323;fill-opacity:1;fill-rule:nonzero;stroke:none"
         d="m 10662.9,9314.6 c 0,0 -24,-221.2 48.1,-312.5 72.1,-91.4 1091.4,-250 1250,-192.3 158.7,57.7 2065,1769.3 2065,1769.3 l -1476.8,175.4 c 0,0 -1751.7,-1233.2 -1886.3,-1439.9" /><path
         id="path134"
         style="fill:#100f0d;fill-opacity:1;fill-rule:nonzero;stroke:none"
         d="M 13615.7,10563.6 11937,9131.9 11833.6,8992.5 c 0,0 -143.5,-88.7 -342.7,-168.5 216,-26.4 408.3,-36.7 470.1,-14.2 158.7,57.7 2065,1769.3 2065,1769.3 l -410.3,-15.5" /><path
         id="path136"
         style="fill:#414042;fill-opacity:1;fill-rule:nonzero;stroke:none"
         d="m 10662.9,9314.6 c 0,0 -24,-221.2 48.1,-312.5 72.1,-91.4 1091.4,-250 1250,-192.3 l -24,322.1 -1274.1,182.7" /><path
         id="path138"
         style="fill:#3970c0;fill-opacity:1;fill-rule:nonzero;stroke:none"
         d="m 12664.6,11285.8 c 0,0 190.7,250 450.3,394.3 259.7,144.2 923.1,322.1 1206.8,346.1 283.7,24.1 980.8,-192.3 1125,-245.2 144.3,-52.9 432.7,-168.3 432.7,-168.3 0,0 -254.8,-232.2 -403.8,-596.9 -149.1,-364.6 -259.6,-681.9 -259.6,-681.9 0,0 -288.5,109.2 -557.7,109.9 -269.3,0.6 -927,-172.2 -1173.2,-186.9 -246.2,-14.6 -677.9,418.3 -658.6,509.7 19.2,91.3 -161.9,519.2 -161.9,519.2" /><g
         transform="scale(1.11472)"
         id="g140"><path
           id="path142"
           style="fill:#100f0d;fill-opacity:1;fill-rule:nonzero;stroke:none"
           d="m 15224.2,10120 4.3,-263.1 953.3,-681.46 c 0,0 88.1,71.13 118.2,109.86 0,0 -962,610.94 -1013,646.56 -11.2,7.81 -62.8,188.14 -62.8,188.14" /></g><g
         transform="scale(1.09248)"
         id="g144"><path
           id="path146"
           style="fill:#f5f6f5;fill-opacity:1;fill-rule:nonzero;stroke:none"
           d="m 15772.1,7154.24 c 8.1,-84.67 14.9,-165.77 17.3,-238.9 8.8,-277.26 0,-382.89 0,-382.89 0,0 58.6,-162.84 101.9,-167.23 43.3,-4.4 166.6,83.66 179.8,110.02 13.2,26.45 105.6,202.47 123.2,220.05 17.6,17.57 48.4,30.84 48.4,30.84 0,0 17.7,170.81 57.3,392.78 -181.4,4.67 -397.1,22.88 -527.9,35.33" /></g><path
         id="path148"
         style="fill:#df9866;fill-opacity:1;fill-rule:nonzero;stroke:none"
         d="m 12296,10966.2 c 0,0 -60.1,-109 -131.4,-131.4 l 32,-60.9 c 0,0 93,67.3 99.4,192.3" /><path
         id="path150"
         style="fill:#fbc398;fill-opacity:1;fill-rule:nonzero;stroke:none"
         d="m 12482.7,11127.2 c 0,0 -99.4,-105.4 -140.2,-240.4 -40.7,-134.9 60.9,-415.9 159.4,-533.6 98.6,-117.8 593.8,-144.3 860.6,-117.8 266.9,26.4 435.1,211.4 456.8,519.1 21.6,307.8 -226,500.1 -413.5,567.4 0,0 24.8,346.2 37.7,445.6 12.8,99.3 176.2,576.9 201.9,932.7 25.6,355.8 9.6,653.9 9.6,653.9 h -291.7 c 0,0 -22.4,-137.8 -128.2,-365.4 -105.8,-227.6 -310.9,-596.2 -342.9,-859 -32.1,-262.9 -70.6,-456.2 -80.2,-463.7 -9.6,-7.5 -134.6,-218.9 -182.7,-458.6 0,0 -91.3,-37.7 -146.6,-80.2" /><path
         id="path152"
         style="fill:#df9866;fill-opacity:1;fill-rule:nonzero;stroke:none"
         d="m 13122.9,10579.1 c 0,0 83.4,262.1 179.5,387.1 96.2,125 103.4,355.7 103.4,355.7 l 78.6,-34.1 c 0,0 -2.5,-180.6 -89,-289.6 0,0 182.7,-8.9 259.6,-47.7 0,0 -203.3,5.7 -310.9,-43.4 l -221.2,-328" /><path
         id="path154"
         style="fill:#df9866;fill-opacity:1;fill-rule:nonzero;stroke:none"
         d="m 12629.3,11207.4 v -94.6 c 0,0 -46.5,18.7 -180.7,-26.7 0,0 19.7,57.2 180.7,121.3" /><path
         id="path156"
         style="fill:#df9866;fill-opacity:1;fill-rule:nonzero;stroke:none"
         d="m 13998,12501.5 c 0,0 -141.1,-60.9 -218,-121.8 v 68.7 c 0,0 102.6,43.5 218,53.1" /><path
         id="path158"
         style="fill:#224c73;fill-opacity:1;fill-rule:nonzero;stroke:none"
         d="m 14054.3,13612.2 c 0,0 -174.9,81.6 -199,91.2 -24,9.7 -610.6,250 -629.8,259.7 -19.2,9.6 -73.7,27.2 -110.6,12.8 -36.8,-14.4 -36.8,-67.3 -39,-106.2 -20.8,-48.8 170.1,-176.8 426.3,-286 256.2,-109.2 480.7,-158.1 501.5,-109.4 55.4,46.5 50.6,137.9 50.6,137.9" /><path
         id="path160"
         style="fill:#2d60a0;fill-opacity:1;fill-rule:nonzero;stroke:none"
         d="m 13628,13898.1 c 256.2,-109.1 447,-237.2 426.3,-285.9 -20.8,-48.8 -245.3,0.2 -501.6,109.4 -256.2,109.2 -447,237.2 -426.3,286 20.8,48.7 245.3,-0.3 501.6,-109.5" /><path
         id="path162"
         style="fill:#969797;fill-opacity:1;fill-rule:nonzero;stroke:none"
         d="m 13600.3,13833.3 c 68.1,-29 118.7,-63 113.2,-75.9 -5.5,-13 -65.1,0 -133.1,29 -68.1,29 -118.7,63 -113.2,76 5.5,12.9 65.1,-0.1 133.1,-29.1" /><path
         id="path164"
         style="fill:#fbc398;fill-opacity:1;fill-rule:nonzero;stroke:none"
         d="m 13352.7,13306.3 c 0,0 -127.2,-9.9 -178.5,47.8 -51.3,57.7 -166.7,294.8 -179.5,346.1 -12.8,51.3 -16.8,222.8 0,261.3 16.9,38.4 77,67.3 98.6,67.3 21.6,0 21.6,0 21.6,0 0,0 55.3,4.8 72.1,0 16.9,-4.8 -40.8,-64.9 -40.8,-93.8 0,-28.8 7.2,-117.8 33.6,-137 26.5,-19.2 206.8,-52.9 257.3,-86.5 50.4,-33.7 62.5,-72.2 103.3,-115.4 40.9,-43.3 139.4,-55.3 158.7,-93.8 19.2,-38.4 -44.1,-148.2 -44.1,-148.2 0,0 -153,-104.2 -193.9,-89.8 -40.9,14.5 -108.4,42 -108.4,42" /><path
         id="path166"
         style="fill:#df9866;fill-opacity:1;fill-rule:nonzero;stroke:none"
         d="m 13363.3,13354.1 c 0,0 -8,95.3 -10.4,88.1 -2.4,-7.2 -50.9,-135.5 -50.9,-135.5 l 50.7,-0.4 10.6,47.8" /><path
         id="path168"
         style="fill:#df9866;fill-opacity:1;fill-rule:nonzero;stroke:none"
         d="m 13084.5,13748.3 c 0,0 -35.3,142.6 -20.9,185.9 14.5,43.3 51.3,94.6 51.3,94.6 h -21.6 c 0,0 -50.5,-52.9 -58.5,-97.8 -8,-44.9 30.4,-168.3 49.7,-182.7" /></g></g></svg>