<?xml version="1.0" encoding="UTF-8" standalone="no"?>
<svg
   xmlns:dc="http://purl.org/dc/elements/1.1/"
   xmlns:cc="http://creativecommons.org/ns#"
   xmlns:rdf="http://www.w3.org/1999/02/22-rdf-syntax-ns#"
   xmlns:svg="http://www.w3.org/2000/svg"
   xmlns="http://www.w3.org/2000/svg"
   viewBox="0 0 2666.6667 2666.6667"
   height="2666.6667"
   width="2666.6667"
   xml:space="preserve"
   id="svg2"
   version="1.1"><metadata
     id="metadata8"><rdf:RDF><cc:Work
         rdf:about=""><dc:format>image/svg+xml</dc:format><dc:type
           rdf:resource="http://purl.org/dc/dcmitype/StillImage" /></cc:Work></rdf:RDF></metadata><defs
     id="defs6" /><g
     transform="matrix(1.3333333,0,0,-1.3333333,0,2666.6667)"
     id="g10"><g
       transform="scale(0.1)"
       id="g12"><g
         transform="scale(1.22699)"
         id="g14"><path
           id="path16"
           style="fill:none;fill-opacity:1;fill-rule:nonzero;stroke:none"
           d="M 16300,0 H 0 V 16300 H 16300 V 0" /></g><path
         id="path18"
         style="fill:#b05d37;fill-opacity:1;fill-rule:nonzero;stroke:none"
         d="m 11784.3,10578.6 c 0,0 109.7,75.5 157,89.8 47.3,14.3 119.9,14.3 119.9,14.3 0,0 309.5,328 467,408.4 157.4,80.4 512.2,170.3 512.2,170.3 0,0 166.1,117.8 227.4,82.6 61.2,-35.3 179.5,-167.7 283.6,-428 104.1,-260.2 60.5,-608.9 60.5,-608.9 l -509.9,75.9 c 0,0 -71,319.1 -75.7,345.7 -4.8,26.5 -719.1,-252.6 -775.9,-266.8 -56.8,-14.2 -466.1,116.7 -466.1,116.7" /><path
         id="path20"
         style="fill:#c37140;fill-opacity:1;fill-rule:nonzero;stroke:none"
         d="m 15812.5,8512.8 v -402.1 c 0,0 198.7,-133.3 236.5,-121.1 37.9,12.3 61.5,50.1 61.5,50.1 0,0 0,151.4 0,165.6 0,14.2 0,392.6 0,392.6 l -298,-85.1" /><g
         transform="scale(1.13785)"
         id="g22"><path
           id="path24"
           style="fill:#c37140;fill-opacity:1;fill-rule:nonzero;stroke:none"
           d="m 15705.5,8321.33 c 0,0 -203.8,-311.81 -216.2,-515.53 -12.5,-203.72 -58.2,-494.8 -91.5,-656.94 -33.3,-162.15 -174.7,-494.8 -174.7,-494.8 0,0 50,-132.97 124.8,-128.84 74.8,4.13 199.5,79.01 199.5,79.01 0,0 33.3,133.06 50,162.15 16.6,29.09 58.1,49.83 58.1,49.83 0,0 149.7,307.68 282.8,623.72 133,315.95 245.3,752.56 257.8,773.31 12.4,20.82 103.9,290.54 78.9,432.13 -24.9,141.67 -266,241.43 -266,241.43 l -282.7,-278.61 -20.8,-286.86" /></g><g
         transform="scale(1.01764)"
         id="g26"><path
           id="path28"
           style="fill:#1e1c1b;fill-opacity:1;fill-rule:nonzero;stroke:none"
           d="m 15617.4,8025.84 -79,-55.72 c 0,0 -79,-58.17 -83.7,-119.78 -4.6,-61.52 -65,-366.73 -37.1,-393.07 27.9,-26.44 278.8,-45.01 330,-31.06 51.1,13.86 442.5,191.33 497.5,209.12 54.9,17.79 18.5,116.25 -37.3,144.15 -55.7,27.91 -269.6,134.83 -283.5,190.64 -13.9,55.72 -93,148.78 -93,148.78 l -213.9,-93.06" /></g><path
         id="path30"
         style="fill:#c37140;fill-opacity:1;fill-rule:nonzero;stroke:none"
         d="m 12356.9,10532.9 c 0,0 120.6,227 229.4,264.9 108.8,37.8 152.9,31 152.9,31 0,0 925.7,390 1067.6,408.9 142,19 667.1,37.9 733.3,0 66.3,-37.8 80.4,-302.7 80.4,-302.7 l -514.7,-373.8 c 0,0 -420,74.6 -484.8,107.2 -64.9,32.5 -386.5,27.7 -480,27.7 -93.5,0 -250.6,-68.6 -250.6,-68.6 l -13,-147.7 -520.5,53.1" /><g
         transform="scale(1.13641)"
         id="g32"><path
           id="path34"
           style="fill:#d3d2d0;fill-opacity:1;fill-rule:nonzero;stroke:none"
           d="m 10800.6,7657.48 -99.9,-1740.14 -466.3,83.34 -333,-83.34 v -191.48 l 1662.3,-466.2 386.1,91.51 -108.5,241.47 -774.3,249.82 c 0,0 69.7,915.87 143.1,990.76 73.4,74.97 3420.4,716.02 3537,682.76 116.5,-33.35 290.1,-733.98 290.1,-733.98 l -548.2,88.7 -149.9,-45.84 -74.9,-224.75 2035.8,-316.43 -79.2,316.43 -641.1,91.61 -288.5,90.28 -86.1,1433.29 -4404.5,-557.81" /></g><path
         id="path36"
         style="fill:#ececec;fill-opacity:1;fill-rule:nonzero;stroke:none"
         d="m 12210.7,6506.9 930.3,-255.5 315.5,104.1 -879.9,283.9 -365.9,-132.5" /><path
         id="path38"
         style="fill:#ececec;fill-opacity:1;fill-rule:nonzero;stroke:none"
         d="m 12160.3,6724.5 -529.9,94.7 -378.4,-94.7 870.5,-217.6 37.8,217.6" /><g
         transform="scale(1.04837)"
         id="g40"><path
           id="path42"
           style="fill:#ececec;fill-opacity:1;fill-rule:nonzero;stroke:none"
           d="m 15543.2,7397.97 631.8,-94.72 125,48.27 -594.3,96.15 -162.5,-49.7" /></g><g
         transform="scale(1.13088)"
         id="g44"><path
           id="path46"
           style="fill:#ececec;fill-opacity:1;fill-rule:nonzero;stroke:none"
           d="m 16300,6632.34 -276.2,-116.81 -270.8,194.98 547,-78.17" /></g><g
         transform="scale(1.08256)"
         id="g48"><path
           id="path50"
           style="fill:#535456;fill-opacity:1;fill-rule:nonzero;stroke:none"
           d="m 11703.6,8669.83 c -38.1,-13.11 -713.2,-294.95 -759.1,-353.97 -45.9,-58.94 -91.8,-209.78 -26.2,-294.95 65.5,-85.26 580.8,-216.34 785.3,-209.78 204.5,6.56 4596.4,786.65 4596.4,786.65 0,0 -458.8,414.21 -648.9,449.68 -190.1,35.38 -2499.8,36.03 -2499.8,36.03 l -1447.7,-413.66" /></g><g
         transform="scale(1.08256)"
         id="g52"><path
           id="path54"
           style="fill:#9c9c9b;fill-opacity:1;fill-rule:nonzero;stroke:none"
           d="m 16071.1,8790.2 c -837.5,-139.49 -4228.5,-702.14 -4367.5,-690.68 -158.6,13.02 -759.1,216.34 -759.1,216.34 -45.9,-58.94 -91.8,-209.78 -26.2,-294.95 65.5,-85.26 580.8,-216.34 785.3,-209.78 204.5,6.56 4596.4,786.65 4596.4,786.65 0,0 -101.5,91.64 -228.9,192.42" /></g><g
         transform="scale(1.08256)"
         id="g56"><path
           id="path58"
           style="fill:#bbbab8;fill-opacity:1;fill-rule:nonzero;stroke:none"
           d="m 11704.9,7811.22 c 219.5,9.42 4595.1,786.56 4595.1,786.56 0,0 -101.5,91.64 -228.9,192.42 -835.2,-139.12 -4210.3,-699.09 -4366.2,-690.77 v -288.21" /></g><g
         transform="scale(1.11753)"
         id="g60"><path
           id="path62"
           style="fill:#1e1c1b;fill-opacity:1;fill-rule:nonzero;stroke:none"
           d="m 13717.7,8574.24 c 21.1,-4.3 118.5,-119.28 118.5,-119.28 0,0 93.1,-122.06 317.5,-126.26 224.4,-4.3 660.3,50.73 795.8,50.73 135.5,0 232.9,4.3 283.7,-8.41 50.8,-12.71 338.7,-228.63 359.8,-215.92 21.2,12.71 304.8,131.27 495.3,313.28 190.5,182.01 211.7,579.95 211.7,579.95 0,0 -474.2,165.09 -808.6,203.19 -334.5,38.1 -897.5,21.17 -931.3,38.1 -33.9,16.94 -101.6,71.96 -148.2,84.67 -46.5,12.69 -118.6,16.92 -148.2,29.62 -29.6,12.71 -55,46.58 -186.2,46.58 -131.3,0 -465.7,-118.54 -465.7,-118.54 l 25.5,-207.43 80.4,-550.28" /></g><path
         id="path64"
         style="fill:#e9eef1;fill-opacity:1;fill-rule:nonzero;stroke:none"
         d="m 13333.5,9172.7 c 0,0 123,-160 375.4,-170.3 252.3,-10.2 829.4,298.9 946.1,343 116.7,44.2 359.6,105.6 542.5,103.3 182.9,-2.4 249.2,-3.8 264.9,0 15.8,3.9 239.7,89.1 331.2,354 91.4,265 41,422.5 -56.8,528.2 -97.8,105.8 -233.4,127.8 -252.3,134.1 -18.9,6.4 -88.3,28.4 -179.8,44.2 -91.4,15.8 -441.5,182.9 -750.6,214.5 -309.1,31.5 -1119.6,-94.7 -1267.9,-132.5 -148.2,-37.8 -416.3,-451 -416.3,-451 0,0 -184.5,-414.8 -198.7,-451 -14.2,-36.3 82,-293.3 91.5,-315.4 9.4,-22.1 400.5,56.8 400.5,56.8 l 170.3,-257.9" /><path
         id="path66"
         style="fill:#c37140;fill-opacity:1;fill-rule:nonzero;stroke:none"
         d="m 13603.4,9720.7 c 0,0 -71.6,-41.4 -114.7,-101.1 -43,-59.7 -24.1,-179.6 -24.1,-179.6 0,0 -20.1,-117.4 50.5,-268.4 70.6,-151 190.6,-184.7 258.6,-169.4 68,15.2 271.3,-3.7 438.4,40.4 167.2,44.2 353.3,285.5 476.3,592.2 123,306.7 -380,325.6 -499.1,322.5 -119.1,-3.2 -585.9,-236.6 -585.9,-236.6" /><path
         id="path68"
         style="fill:#a45634;fill-opacity:1;fill-rule:nonzero;stroke:none"
         d="m 13651.1,9666 c 0,0 -57.1,-89.6 -57.1,-206.7 0,0 -59.3,88.5 -29.7,234.9 29.7,146.4 86.8,-28.2 86.8,-28.2" /><path
         id="path70"
         style="fill:#c37140;fill-opacity:1;fill-rule:nonzero;stroke:none"
         d="m 13120.7,9319.4 20.3,0.4 c 0,0 192.5,-163.6 192.5,-147.1 0,16.6 50.5,442.2 44.2,458.9 -6.3,16.7 73.2,289.8 111,407.7 37.9,117.9 83.1,129.1 117.8,204.8 34.7,75.7 -33.3,211.5 -27,236.7 6.3,25.2 -91.4,22.1 -170.3,-47.3 -78.8,-69.4 -205,-239.9 -227,-263.4 -22.1,-23.6 -498.4,-199.5 -495.2,-280.3 3.1,-80.8 -15.8,-128.1 -15.8,-128.1 0,0 91.5,-302.7 151.4,-356.4 59.9,-53.6 298.1,-85.9 298.1,-85.9" /><path
         id="path72"
         style="fill:#2f1d16;fill-opacity:1;fill-rule:nonzero;stroke:none"
         d="m 12282.2,10104.2 c -121.6,65.2 -189.4,-35.7 -189.4,-35.7 0,0 0,0 -60.7,-93.2 -60.7,-93.2 -78.9,-281.1 -32.4,-464.8 46.6,-183.8 92,-274.1 92,-274.1 56.6,-49 144.5,-69.3 144.5,-69.3 0,0 60.1,-177.9 344.4,-141 284.2,36.9 602.3,256 598,262.2 -26.8,38.6 -37.8,85.4 -97.6,131.4 -59.8,46 -219.5,133 -219.5,133 0,0 -5.4,311.6 -20.4,316.9 -15,5.2 -489.7,193.5 -489.7,193.5 l -52.7,35.8 c -5.4,0.6 -10.9,2.3 -16.5,5.3" /><path
         id="path74"
         style="fill:#c37140;fill-opacity:1;fill-rule:nonzero;stroke:none"
         d="m 12282.2,10104.2 c 0,0 167.9,83.1 207.5,95.7 39.5,12.6 164.6,0.5 183.9,4.7 19.2,4.1 211.1,133.6 223.8,131.7 12.7,-1.9 32.3,-81.5 39.4,-83.8 7.1,-2.3 82.6,-3.8 89.8,-1.2 7.1,2.5 22.9,1.6 22.9,1.6 0,0 30.8,8.5 46.9,3.3 16,-5.2 43.3,-5.3 53.8,-6.7 10.6,-1.3 124,8.8 141.6,-3.9 17.7,-12.7 49.6,-246.4 42.5,-284.5 -7,-38.2 -188.8,-270.3 -227.7,-292.6 -38.9,-22.3 -160.9,-33.7 -160.9,-33.7 0,0 -11,-101.3 -88.8,-145.9 -77.8,-44.6 -221.6,-43.6 -249.6,36.8 -28.1,80.3 77.5,126.9 106,138.7 28.5,11.8 64.9,29.7 67.4,34.1 2.4,4.3 -104.6,5.3 -151.6,18.7 -47,13.4 -144.3,-0.6 -195.1,8.3 -50.9,9 -109.7,70.4 -123,100.2 -13.3,29.8 -28.8,278.5 -28.8,278.5" /><path
         id="path76"
         style="fill:#a45634;fill-opacity:1;fill-rule:nonzero;stroke:none"
         d="m 13293.1,9991.6 c 12.4,49.7 18.6,117.3 21.7,168.9 13.1,-74.9 24,-175.5 19.5,-199.4 -7,-38.2 -188.8,-270.3 -227.7,-292.6 -38.9,-22.3 -160.9,-33.7 -160.9,-33.7 0,0 110,42.7 159.9,77.6 49.9,35 164.7,187.6 187.5,279.2" /><path
         id="path78"
         style="fill:#a45634;fill-opacity:1;fill-rule:nonzero;stroke:none"
         d="m 13328.4,9957.5 110.5,222.4 -152.8,-193.3 z" /><path
         id="path80"
         style="fill:#bbbab8;fill-opacity:1;fill-rule:nonzero;stroke:none"
         d="m 15425.6,10218.7 c -3.2,1 -6.4,1.7 -9.8,2 l -5371.4,548.2 c -32.1,3.3 -61.14,-23.8 -64.89,-60.5 l -3.94,-38.6 c -3.74,-36.7 19.25,-69.1 51.33,-72.4 l 5371.4,-548.2 c 2.7,-0.3 5.4,-0.2 8,-0.1 l 19.3,169.6" /><path
         id="path82"
         style="fill:#535456;fill-opacity:1;fill-rule:nonzero;stroke:none"
         d="m 11413.3,10482.7 c 32.8,289.2 -56.7,555.1 -217.1,710.5 15.3,39.5 27.7,71.4 27.7,71.4 0,0 -241.4,144 -517.8,44 -239.3,-83.2 -434.2,-353.2 -472.7,-691.9 -37.9,-334 87.4,-637 296.7,-774.6 0,0 144.4,-138.2 480.4,-88.2 74.1,11 121.4,78.8 150.3,177.9 131.6,129.8 226.8,325.1 252.5,550.9" /><path
         id="path84"
         style="fill:#d3d2d0;fill-opacity:1;fill-rule:nonzero;stroke:none"
         d="m 15465,10129.3 c -5.3,-46.4 -34.2,-81.3 -64.6,-77.9 -30.4,3.5 -50.8,44 -45.5,90.4 5.3,46.5 34.2,81.4 64.6,77.9 30.4,-3.4 50.8,-43.9 45.5,-90.4" /><path
         id="path86"
         style="fill:#9c9c9b;fill-opacity:1;fill-rule:nonzero;stroke:none"
         d="m 11561.3,10465.9 c -49,-432.2 -353,-752.6 -678.8,-715.6 -325.8,37 -550.1,417.4 -501,849.6 49.1,432.2 353,752.7 678.8,715.7 325.8,-37 550.1,-417.4 501,-849.7" /><path
         id="path88"
         style="fill:#535456;fill-opacity:1;fill-rule:nonzero;stroke:none"
         d="m 11207.2,10534.2 c -15.9,-140.3 -114.1,-244.4 -219.2,-232.5 -105.1,11.9 -177.5,135.4 -161.5,275.8 15.9,140.3 114.1,244.4 219.2,232.5 105.2,-11.9 177.5,-135.4 161.5,-275.8" /><path
         id="path90"
         style="fill:#bbbab8;fill-opacity:1;fill-rule:nonzero;stroke:none"
         d="m 11029.6,10668.4 c 0,0 -49.3,-78 -19.4,-171.3 l 652.9,-66.7 -5.1,173.8 -628.4,64.2" /><path
         id="path92"
         style="fill:#535456;fill-opacity:1;fill-rule:nonzero;stroke:none"
         d="m 14765.1,10176.2 c 36.7,323.1 -63.4,620.3 -242.6,794.1 17.1,44.1 31,79.7 31,79.7 0,0 -269.9,161 -578.8,49.2 -267.4,-93 -485.3,-394.8 -528.3,-773.3 -42.3,-373.3 97.8,-711.9 331.6,-865.7 0,0 161.4,-154.5 537,-98.6 82.8,12.3 135.7,88 167.9,198.9 147.1,145 253.5,363.2 282.2,615.7" /><path
         id="path94"
         style="fill:#9c9c9b;fill-opacity:1;fill-rule:nonzero;stroke:none"
         d="m 14930.6,10157.4 c -54.9,-483.1 -394.5,-841.2 -758.7,-799.9 -364.1,41.4 -614.8,466.5 -560,949.6 54.9,483.1 394.5,841.2 758.7,799.9 364.1,-41.4 614.8,-466.5 560,-949.6" /><path
         id="path96"
         style="fill:#535456;fill-opacity:1;fill-rule:nonzero;stroke:none"
         d="m 14309.9,10240.3 c -9.7,-85.6 -71.6,-149 -138.2,-141.4 -66.7,7.6 -112.8,83.2 -103.1,168.8 9.8,85.7 71.7,149 138.3,141.4 66.6,-7.5 112.8,-83.1 103,-168.8" /><path
         id="path98"
         style="fill:#bbbab8;fill-opacity:1;fill-rule:nonzero;stroke:none"
         d="m 14201.2,10344.7 c 0,0 -58.2,-65.9 -19.4,-171.3 l 1047.9,-107 19.4,171.3 -1047.9,107" /><g
         transform="scale(1.14336)"
         id="g100"><path
           id="path102"
           style="fill:#1e1c1b;fill-opacity:1;fill-rule:nonzero;stroke:none"
           d="m 15323.5,6708.9 c -57.9,-16.53 -173.8,-86.94 -173.8,-86.94 0,0 -49.6,37.26 -91,-20.64 -41.4,-57.9 -124.1,-376.52 -111.7,-426.2 12.4,-49.59 135.3,-103.46 187.7,-99.27 52.3,4.12 168.2,45.04 366.8,-0.26 198.5,-45.3 600.1,16.79 699.3,70.58 99.2,53.79 99.2,198.63 20.6,256.53 -78.7,57.9 -182,24.66 -322.8,90.96 -140.6,66.29 -202.7,149.03 -202.7,149.03 l -115.9,140.64 -173.8,45.57 -82.7,-120" /></g><g
         transform="scale(1.09671)"
         id="g104"><path
           id="path106"
           style="fill:#f5f6f5;fill-opacity:1;fill-rule:nonzero;stroke:none"
           d="m 15938.8,7285.09 c -55.6,-172.06 -144.6,-381.41 -144.6,-381.41 0,0 51.8,-137.96 129.5,-133.68 77.6,4.29 207,81.98 207,81.98 0,0 34.5,138.05 51.8,168.23 17.2,30.18 60.3,51.7 60.3,51.7 0,0 22.2,45.59 57.2,119.9 -139.2,25.08 -279.6,66.93 -361.2,93.28" /></g><path
         id="path108"
         style="fill:#f5f6f5;fill-opacity:1;fill-rule:nonzero;stroke:none"
         d="m 15812.5,8337.7 v -227 c 0,0 198.7,-133.3 236.5,-121.1 37.9,12.3 61.5,50.1 61.5,50.1 0,0 0,151.4 0,165.6 V 8385 l -298,-47.3" /><path
         id="path110"
         style="fill:#b05d37;fill-opacity:1;fill-rule:nonzero;stroke:none"
         d="m 11772.6,10532.9 c 0,0 -15.8,6.4 -31.6,0 -15.7,-6.4 -42.5,-90 -36.2,-104.2 6.3,-14.1 47.3,-36.2 47.3,-36.2 0,0 72.5,-63.1 107.2,-72.5 34.7,-9.5 67.8,0 67.8,0 0,0 30,-19 85.2,-17.4 55.2,1.6 121.3,79.8 121.3,79.8 l -167.3,17.1 c 0,0 -28.1,35.6 -28.1,46.6 0,11.1 6.3,92.2 -22.9,97.4 -29.2,5.1 -43.4,-26.4 -43.4,-26.4 0,0 -14.2,37.8 -41,41 -26.8,3.1 -58.3,-25.2 -58.3,-25.2" /><path
         id="path112"
         style="fill:#a45634;fill-opacity:1;fill-rule:nonzero;stroke:none"
         d="m 12385.4,10582.2 h 52.1 c 0,0 36.7,15.6 53.6,12.4 17,-3.3 28.3,-6 28.3,-6 0,0 67.2,23.3 95,6 27.8,-17.4 39.1,-92 39.1,-92 l -296.6,30.3 28.5,49.3" /><path
         id="path114"
         style="fill:#c37140;fill-opacity:1;fill-rule:nonzero;stroke:none"
         d="m 12771.9,10317.3 c 0,0 -23.7,-28.9 -71.5,-43.1 -47.9,-14.2 -82.6,0 -82.6,0 0,0 -41,-33.5 -63,-30.1 -22.1,3.3 -22.1,3.3 -22.1,3.3 0,0 -44.2,-22.4 -63.1,-15.1 -18.9,7.2 -25.2,6.8 -34.7,11.8 -9.5,4.9 -6.3,-21.9 -71,12.8 -64.6,34.7 -69.3,151.4 -67.8,167.1 1.6,15.8 26.8,25.3 26.8,25.3 0,0 33.2,91.4 60,100.9 26.8,9.5 50.4,0 50.4,0 0,0 33.1,23.7 60,23.7 26.8,0 40.6,-25.3 40.6,-25.3 0,0 38.2,11.1 63.4,3.2 25.3,-7.9 1.6,-97.6 7.9,-121.4 6.3,-23.7 42.6,-63.1 56.8,-69.4 14.2,-6.3 109.9,-43.7 109.9,-43.7" /><path
         id="path116"
         style="fill:#2f1d16;fill-opacity:1;fill-rule:nonzero;stroke:none"
         d="m 12615,9657.9 141.8,44.1 c 0,0 -79.7,43.7 -122,50.6 -42.4,7 -32,-15.3 -110.6,0 -78.6,15.4 -39.1,23.9 -104,46.5 -65,22.6 -138,19.8 -138,19.8 0,0 -158.6,-133.8 13.7,-184.1 172.3,-50.3 319.1,23.1 319.1,23.1" /><path
         id="path118"
         style="fill:#bbbab8;fill-opacity:1;fill-rule:nonzero;stroke:none"
         d="m 6854.89,13242.3 c -3.25,0.6 -6.56,1 -9.96,1 l -5398.89,-61.4 c -32.28,-0.3 -58.11,-30.5 -57.69,-67.4 l 0.44,-38.8 c 0.42,-36.9 26.93,-66.5 59.21,-66.1 l 5398.88,61.3 c 2.73,0 5.39,0.3 8.01,0.8 v 170.6" /><path
         id="path120"
         style="fill:#b05d37;fill-opacity:1;fill-rule:nonzero;stroke:none"
         d="m 4204.14,10495.3 c 0,0 0.69,288.3 -49.77,455.4 -50.46,167.2 -91.46,268.1 -91.46,268.1 0,0 18.92,384.8 -88.31,637.1 -107.23,252.3 -233.39,520.4 -277.54,665.5 -44.16,145.1 -56.77,205 -56.77,205 l -227.08,-34.7 c 0,0 56.77,-902 88.3,-1157.5 31.54,-255.4 94.62,-410 94.62,-410 l 45.91,-930.4 250.56,-179.8 311.54,481.3" /><path
         id="path122"
         style="fill:#c37140;fill-opacity:1;fill-rule:nonzero;stroke:none"
         d="m 6715.33,8512.8 v -402.1 c 0,0 198.69,-133.3 236.54,-121.1 37.85,12.3 61.5,50.1 61.5,50.1 0,0 0,151.4 0,165.6 0,14.2 0,392.6 0,392.6 l -298.04,-85.1" /><path
         id="path124"
         style="fill:#1e1c1b;fill-opacity:1;fill-rule:nonzero;stroke:none"
         d="m 6795.75,8167.4 -80.42,-56.7 c 0,0 -80.43,-59.2 -85.16,-121.9 -4.73,-62.6 -66.23,-373.2 -37.85,-400 28.39,-26.9 283.86,-45.8 335.89,-31.6 52.04,14.1 450.33,194.7 506.2,212.8 55.87,18.1 18.92,118.3 -37.84,146.7 -56.78,28.4 -274.39,137.2 -288.59,194 -14.19,56.7 -94.61,151.4 -94.61,151.4 l -217.62,-94.7" /><path
         id="path126"
         style="fill:#d3d2d0;fill-opacity:1;fill-rule:nonzero;stroke:none"
         d="m 3176.67,8702 -113.54,-1977.5 -529.86,94.7 -378.47,-94.7 v -217.6 l 1889.06,-529.8 438.81,104 -123.3,274.4 -879.93,283.9 c 0,0 79.2,1040.8 162.6,1125.9 83.4,85.2 3886.99,813.7 4019.45,775.9 132.47,-37.9 329.73,-834.1 329.73,-834.1 l -623.04,100.8 -170.31,-52.1 -85.16,-255.4 2313.54,-359.6 -90.04,359.6 -728.55,104.1 -327.82,102.6 -97.96,1628.8 L 3176.67,8702" /><path
         id="path128"
         style="fill:#c37140;fill-opacity:1;fill-rule:nonzero;stroke:none"
         d="m 8773.24,9468.4 c 0,0 -231.81,-354.8 -246,-586.6 -14.2,-231.8 -66.23,-563 -104.08,-747.5 -37.85,-184.5 -198.7,-563 -198.7,-563 0,0 56.77,-151.3 141.93,-146.6 85.15,4.7 227.08,89.9 227.08,89.9 0,0 37.84,151.4 56.77,184.5 18.92,33.1 66.23,56.7 66.23,56.7 0,0 170.31,350.1 321.69,709.7 151.39,359.5 279.13,856.3 293.32,879.9 14.19,23.7 118.27,330.6 89.88,491.7 -28.38,161.2 -302.77,274.7 -302.77,274.7 l -321.7,-317 -23.65,-326.4" /><path
         id="path130"
         style="fill:#ececec;fill-opacity:1;fill-rule:nonzero;stroke:none"
         d="m 3113.48,6506.9 930.38,-255.5 315.51,104.1 -879.93,283.9 -365.96,-132.5" /><path
         id="path132"
         style="fill:#ececec;fill-opacity:1;fill-rule:nonzero;stroke:none"
         d="m 3063.13,6724.5 -529.86,94.7 -378.47,-94.7 870.48,-217.6 37.85,217.6" /><path
         id="path134"
         style="fill:#ececec;fill-opacity:1;fill-rule:nonzero;stroke:none"
         d="m 7197.87,7755.8 662.32,-99.3 131.03,50.6 -623.04,100.8 -170.31,-52.1" /><path
         id="path136"
         style="fill:#ececec;fill-opacity:1;fill-rule:nonzero;stroke:none"
         d="M 9336.21,7500.4 9023.97,7368.3 8717.6,7588.8 Z" /><path
         id="path138"
         style="fill:#1e1c1b;fill-opacity:1;fill-rule:nonzero;stroke:none"
         d="m 8423.16,7670.7 c -66.24,-18.9 -198.7,-99.4 -198.7,-99.4 0,0 -56.77,42.6 -104.07,-23.6 -47.31,-66.2 -141.93,-430.5 -127.74,-487.3 14.2,-56.7 154.68,-118.3 214.54,-113.5 59.85,4.7 192.31,51.5 419.39,-0.3 227.08,-51.8 686.27,19.2 799.67,80.7 113.38,61.5 113.38,227.1 23.5,293.3 -89.89,66.2 -208.16,28.2 -369.01,104 -160.85,75.8 -231.81,170.4 -231.81,170.4 l -132.46,160.8 -198.7,52.1 -94.61,-137.2" /><path
         id="path140"
         style="fill:#535456;fill-opacity:1;fill-rule:nonzero;stroke:none"
         d="m 3572.63,9385.6 c -41.16,-14.2 -772.07,-319.3 -821.74,-383.2 -49.67,-63.8 -99.35,-227.1 -28.39,-319.3 70.97,-92.3 628.72,-234.2 850.13,-227.1 221.41,7.1 4975.9,851.6 4975.9,851.6 0,0 -496.74,448.4 -702.53,486.8 -205.79,38.3 -2706.04,39 -2706.04,39 L 3572.63,9385.6" /><path
         id="path142"
         style="fill:#9c9c9b;fill-opacity:1;fill-rule:nonzero;stroke:none"
         d="m 8300.74,9515.9 c -906.57,-151 -4577.63,-760.1 -4728.11,-747.7 -171.74,14.1 -821.74,234.2 -821.74,234.2 -49.67,-63.8 -99.35,-227.1 -28.39,-319.3 70.97,-92.3 628.72,-234.2 850.13,-227.1 221.41,7.1 4975.9,851.6 4975.9,851.6 0,0 -109.94,99.2 -247.79,208.3" /><path
         id="path144"
         style="fill:#bbbab8;fill-opacity:1;fill-rule:nonzero;stroke:none"
         d="m 3574.05,8456.1 c 237.73,10.2 4974.48,851.5 4974.48,851.5 0,0 -109.94,99.2 -247.79,208.3 -904.15,-150.6 -4557.89,-756.8 -4726.69,-747.8 v -312" /><path
         id="path146"
         style="fill:#1e1c1b;fill-opacity:1;fill-rule:nonzero;stroke:none"
         d="m 6232.78,9582 c 23.66,-4.8 132.46,-133.3 132.46,-133.3 0,0 104.09,-136.4 354.82,-141.1 250.73,-4.8 738.01,56.7 889.39,56.7 151.39,0 260.2,4.8 316.97,-9.4 56.77,-14.2 378.47,-255.5 402.12,-241.3 23.65,14.2 340.62,146.7 553.51,350.1 212.89,203.4 236.54,648.1 236.54,648.1 0,0 -529.85,184.5 -903.59,227.1 -373.74,42.6 -1002.93,23.6 -1040.78,42.6 -37.85,18.9 -113.54,80.4 -165.58,94.6 -52.04,14.2 -132.46,18.9 -165.58,33.1 -33.12,14.2 -61.5,52 -208.16,52 -146.65,0 -520.39,-132.4 -520.39,-132.4 l 28.39,-231.8 89.88,-615" /><path
         id="path148"
         style="fill:#e9eef1;fill-opacity:1;fill-rule:nonzero;stroke:none"
         d="m 4236.37,9172.7 c 0,0 123,-160 375.31,-170.3 252.31,-10.2 829.48,298.9 946.17,343 116.7,44.2 359.54,105.6 542.47,103.3 182.92,-2.4 249.16,-3.8 264.92,0 15.78,3.9 239.7,89.1 331.17,354 91.46,265 40.99,422.5 -56.78,528.2 -97.76,105.8 -233.38,127.8 -252.31,134.1 -18.92,6.4 -88.31,28.4 -179.77,44.2 -91.46,15.8 -441.54,182.9 -750.63,214.5 -309.07,31.5 -1119.63,-94.7 -1267.86,-132.5 -148.23,-37.8 -416.31,-451 -416.31,-451 0,0 -184.51,-414.8 -198.7,-451 -14.19,-36.3 82,-293.3 91.47,-315.4 9.46,-22.1 400.54,56.8 400.54,56.8 l 170.31,-257.9" /><path
         id="path150"
         style="fill:#c37140;fill-opacity:1;fill-rule:nonzero;stroke:none"
         d="m 4023.48,9319.4 20.33,0.4 c 0,0 192.56,-163.6 192.56,-147.1 0,16.6 50.46,442.2 44.15,458.9 -6.3,16.7 -8.88,264.5 28.97,382.4 37.84,117.9 55.66,190.1 90.35,265.8 34.69,75.7 76.22,175.8 82.53,201 6.31,25.2 -91.46,22.1 -170.3,-47.3 -78.85,-69.4 -205.01,-239.9 -227.08,-263.4 -22.08,-23.6 -498.32,-199.5 -495.17,-280.3 3.16,-80.8 -15.77,-128.1 -15.77,-128.1 0,0 91.47,-302.7 151.39,-356.4 59.93,-53.6 298.04,-85.9 298.04,-85.9" /><path
         id="path152"
         style="fill:#a45634;fill-opacity:1;fill-rule:nonzero;stroke:none"
         d="m 4170.05,9971.4 110.47,222.4 -152.78,-193.3 z" /><path
         id="path154"
         style="fill:#c37140;fill-opacity:1;fill-rule:nonzero;stroke:none"
         d="m 4356.22,9471.6 c 0,0 -44.15,-167.2 91.46,-362.7 135.62,-195.6 438.39,-91.5 438.39,-91.5 0,0 227.08,-9.5 365.85,91.5 138.77,100.9 232.12,204 232.12,204 0,0 74.43,322.7 0,461.4 -74.42,138.8 -247.89,252.3 -251.04,265 -3.16,12.6 24.53,495.1 -74.47,753.8 -98.99,258.6 -102.15,334.3 -105.3,413.1 -3.16,78.9 -12.9,545.6 -119.99,823.2 -107.09,277.5 -403.56,794.8 -403.56,794.8 l -268.08,-37.9 c 0,0 88.31,-264.9 104.08,-646.5 15.77,-381.7 18.92,-542.5 50.46,-760.1 31.54,-217.6 34.69,-246 34.69,-246 0,0 -31.53,-397.4 -15.77,-589.8 15.77,-192.4 31.55,-287 31.55,-287 0,0 -69.84,-98.1 -119.48,-327.2 -49.63,-229.1 9.09,-458.1 9.09,-458.1" /><path
         id="path156"
         style="fill:#a45634;fill-opacity:1;fill-rule:nonzero;stroke:none"
         d="m 5233,10039.3 -93.04,-205.9 18.57,-284 c 0,0 33.47,245.3 55.55,284 22.07,38.7 138.82,101.4 138.82,101.4 l -119.9,104.5" /><path
         id="path158"
         style="fill:#a45634;fill-opacity:1;fill-rule:nonzero;stroke:none"
         d="m 4822.99,10600.7 c 0,0 182.93,-44.2 189.24,-217.7 0,0 69.38,271.3 -189.24,217.7" /><path
         id="path160"
         style="fill:#c37140;fill-opacity:1;fill-rule:nonzero;stroke:none"
         d="m 4419.3,12619.2 c -12.62,9.4 -144.81,123.9 -144.81,123.9 l -202.12,172.5 c 0,0 -201.85,201.9 -205,252.3 -3.16,50.5 137.19,177.4 156.11,184.5 18.93,7.1 40.22,0 40.22,0 0,0 55.14,30.8 79.61,23.7 24.46,-7.1 24.46,-7.1 24.46,-7.1 0,0 63.87,2.4 82.79,-14.2 18.93,-16.6 21.29,-26 21.29,-26 0,0 44.95,-7.1 70.96,-30.8 26.02,-23.6 40.22,-80.4 40.22,-80.4 0,0 -47.31,0 -78.06,-26 -30.75,-26 7.1,-134.8 16.56,-139.6 9.46,-4.7 175.04,-4.7 175.04,-4.7 0,0 52.03,-115.1 33.11,-223.1 -18.92,-108.1 -110.38,-205 -110.38,-205" /><path
         id="path162"
         style="fill:#b05d37;fill-opacity:1;fill-rule:nonzero;stroke:none"
         d="m 3655.03,12667.2 c -4.5,17.2 -32.55,105.7 0,167.2 32.56,61.5 65.3,201 65.3,201 l -238.53,11.9 c 0,0 -7.09,52 0,85.1 7.1,33.2 61.51,52.1 61.51,52.1 l 156.19,23.2 c 0,0 2.29,19.4 -16.64,38.3 -18.92,18.9 -66.23,16.5 -66.23,16.5 0,0 -78.06,52.1 -99.34,56.8 -21.29,4.7 -49.68,0 -49.68,0 0,0 -47.31,23.7 -96.98,14.2 -49.68,-9.5 -170.31,-115.9 -182.14,-141.9 -11.82,-26 -4.73,-104.1 11.83,-141.9 16.56,-37.9 175.04,-279.2 182.14,-291 7.09,-11.8 30.75,-67 30.75,-67 0,0 149.02,-79.6 156.11,-72.5 7.1,7.1 85.71,48 85.71,48" /><path
         id="path164"
         style="fill:#d3d2d0;fill-opacity:1;fill-rule:nonzero;stroke:none"
         d="m 6904.14,13158 c 0,-46.8 -24.81,-84.7 -55.4,-84.7 -30.6,0 -55.4,37.9 -55.4,84.7 0,46.8 24.8,84.7 55.4,84.7 30.59,0 55.4,-37.9 55.4,-84.7" /><path
         id="path166"
         style="fill:#535456;fill-opacity:1;fill-rule:nonzero;stroke:none"
         d="m 2838.41,13052 c 0,291 -118.95,545.1 -295.84,681.5 10.72,40.9 19.5,74 19.5,74 0,0 -256.18,115.9 -519.51,-14.6 -228.39,-109.8 -391.59,-400 -391.59,-740.9 0,-336.1 158.73,-623.1 382.17,-736.1 0,0 159.11,-121.1 487.31,-33.5 72.4,19.3 111.76,92 129.25,193.7 116.1,143.8 188.71,348.6 188.71,575.9" /><path
         id="path168"
         style="fill:#9c9c9b;fill-opacity:1;fill-rule:nonzero;stroke:none"
         d="m 2987.43,13052 c 0,-435 -265.82,-787.7 -593.72,-787.7 -327.9,0 -593.72,352.7 -593.72,787.7 0,435.1 265.82,787.7 593.72,787.7 327.9,0 593.72,-352.6 593.72,-787.7" /><path
         id="path170"
         style="fill:#535456;fill-opacity:1;fill-rule:nonzero;stroke:none"
         d="m 2627.89,13079.9 c 0,-141.2 -85.79,-255.7 -191.6,-255.7 -105.82,0 -191.6,114.5 -191.6,255.7 0,141.3 85.78,255.8 191.6,255.8 105.81,0 191.6,-114.5 191.6,-255.8" /><path
         id="path172"
         style="fill:#bbbab8;fill-opacity:1;fill-rule:nonzero;stroke:none"
         d="m 2436.29,13193.2 c 0,0 -40.21,-83 0,-172.4 h 605.55 l 26.05,179.6 -631.6,-7.2" /><path
         id="path174"
         style="fill:#535456;fill-opacity:1;fill-rule:nonzero;stroke:none"
         d="m 6203.43,13125.6 c 0,325.2 -132.94,609.2 -330.64,761.6 11.98,45.8 21.79,82.7 21.79,82.7 0,0 -286.31,129.6 -580.62,-16.4 -255.25,-122.6 -437.65,-447 -437.65,-827.9 0,-375.7 177.41,-696.4 427.12,-822.8 0.01,0 177.83,-135.3 544.64,-37.4 80.91,21.6 124.9,102.8 144.45,216.5 129.75,160.7 210.91,389.6 210.91,643.7" /><path
         id="path176"
         style="fill:#9c9c9b;fill-opacity:1;fill-rule:nonzero;stroke:none"
         d="m 6369.98,13125.6 c 0,-486.2 -297.09,-880.4 -663.56,-880.4 -366.47,0 -663.56,394.2 -663.56,880.4 0,486.2 297.09,880.3 663.56,880.3 366.47,0 663.56,-394.1 663.56,-880.3" /><path
         id="path178"
         style="fill:#535456;fill-opacity:1;fill-rule:nonzero;stroke:none"
         d="m 5743.93,13138 c 0,-86.3 -54.36,-156.1 -121.43,-156.1 -67.06,0 -121.42,69.8 -121.42,156.1 0,86.2 54.36,156.1 121.42,156.1 67.07,0 121.43,-69.9 121.43,-156.1" /><path
         id="path180"
         style="fill:#bbbab8;fill-opacity:1;fill-rule:nonzero;stroke:none"
         d="m 5624.14,13229.4 c 0,0 -50.41,-72.1 0,-172.4 l 1053.28,11.9 v 172.5 l -1053.28,-12" /><path
         id="path182"
         style="fill:#f5f6f5;fill-opacity:1;fill-rule:nonzero;stroke:none"
         d="m 8383.07,7989.6 c -61.04,-188.7 -158.61,-418.3 -158.61,-418.3 0,0 56.78,-151.3 141.93,-146.6 85.15,4.7 227.08,89.9 227.08,89.9 0,0 37.84,151.4 56.77,184.5 18.92,33.1 66.23,56.7 66.23,56.7 0,0 24.29,50 62.67,131.5 -152.67,27.5 -306.61,73.4 -396.07,102.3" /><path
         id="path184"
         style="fill:#f5f6f5;fill-opacity:1;fill-rule:nonzero;stroke:none"
         d="m 6715.33,8337.7 v -227 c 0,0 198.69,-133.3 236.54,-121.1 37.85,12.3 61.5,50.1 61.5,50.1 0,0 0,151.4 0,165.6 V 8385 l -298.04,-47.3" /><path
         id="path186"
         style="fill:#2f1d16;fill-opacity:1;fill-rule:nonzero;stroke:none"
         d="m 3113.48,10077.3 c -123.76,60.8 -188.02,-42.5 -188.02,-42.5 0,0 0,0 -57.36,-95.2 -57.37,-95.3 -68.89,-283.7 -15.9,-465.7 53,-182 101.65,-270.6 101.65,-270.6 58.22,-47 146.86,-64.2 146.86,-64.2 0,0 66.33,-175.6 349.08,-128.7 282.75,46.9 598.53,303.4 594.02,309.4 -28.1,37.7 -46.46,57.7 -107.84,101.6 -61.39,43.8 -224.05,125.2 -224.05,125.2 0,0 -16.36,311.2 -31.56,315.9 -15.2,4.7 -496.24,176.1 -496.24,176.1 l -53.95,34 c -5.37,0.3 -10.93,1.8 -16.69,4.7" /><path
         id="path188"
         style="fill:#c37140;fill-opacity:1;fill-rule:nonzero;stroke:none"
         d="m 3113.48,10077.3 c 0,0 164.85,89 203.97,102.9 39.12,14 164.56,6.3 183.64,11.2 19.1,4.8 206.22,141 218.98,139.5 12.76,-1.4 35.16,-80.2 42.38,-82.3 7.21,-2 82.71,-0.9 89.76,1.9 7.05,2.8 22.84,2.4 22.84,2.4 0,0 30.49,9.6 46.73,5 16.25,-4.6 43.46,-3.8 54.07,-4.7 10.61,-1 123.57,13.1 141.66,1.1 18.09,-12.1 58.25,-244.5 52.54,-282.9 -5.7,-38.4 -179.15,-276.7 -217.24,-300.4 -38.08,-23.7 -159.63,-39.4 -159.63,-39.4 0,0 -7.38,-101.6 -83.55,-148.9 -76.17,-47.4 -219.96,-51.5 -250.82,27.8 -30.85,79.4 73.01,129.6 101.05,142.4 28.05,12.8 63.81,32 66.13,36.5 2.33,4.4 -88.82,45.1 -136.28,56.9 -47.46,11.7 -159.98,-49.3 -211.16,-42.1 -51.17,7.1 -112.1,66.5 -126.42,95.7 -14.32,29.3 -38.65,277.4 -38.65,277.4" /><path
         id="path190"
         style="fill:#a45634;fill-opacity:1;fill-rule:nonzero;stroke:none"
         d="m 4127.74,10000.5 c 10.6,50.1 14.45,117.9 15.75,169.6 15.72,-74.5 30.14,-174.6 26.56,-198.7 -5.7,-38.4 -179.15,-276.7 -217.24,-300.4 -38.08,-23.7 -159.63,-39.4 -159.63,-39.4 0,0 108.46,46.6 157.06,83.2 48.6,36.7 157.94,193.3 177.5,285.7" /><path
         id="path192"
         style="fill:#2f1d16;fill-opacity:1;fill-rule:nonzero;stroke:none"
         d="m 3457.48,9665.5 168.51,23.9 c 0,0 -108.09,65.1 -150.57,71.2 -42.48,6.1 -31.69,-16 -110.56,-2.1 -78.88,13.9 -39.52,23.1 -104.88,44.5 -65.36,21.3 -138.36,17.1 -138.36,17.1 0,0 -155.97,-136.9 17.25,-183.8 173.22,-47 318.61,29.2 318.61,29.2" /></g></g></svg>