<?xml version="1.0" encoding="UTF-8" standalone="no"?>
<svg
   xmlns:dc="http://purl.org/dc/elements/1.1/"
   xmlns:cc="http://creativecommons.org/ns#"
   xmlns:rdf="http://www.w3.org/1999/02/22-rdf-syntax-ns#"
   xmlns:svg="http://www.w3.org/2000/svg"
   xmlns="http://www.w3.org/2000/svg"
   viewBox="0 0 2666.6667 2666.6667"
   height="2666.6667"
   width="2666.6667"
   xml:space="preserve"
   id="svg2"
   version="1.1"><metadata
     id="metadata8"><rdf:RDF><cc:Work
         rdf:about=""><dc:format>image/svg+xml</dc:format><dc:type
           rdf:resource="http://purl.org/dc/dcmitype/StillImage" /></cc:Work></rdf:RDF></metadata><defs
     id="defs6" /><g
     transform="matrix(1.3333333,0,0,-1.3333333,0,2666.6667)"
     id="g10"><g
       transform="scale(0.1)"
       id="g12"><g
         transform="scale(1.22699)"
         id="g14"><path
           id="path16"
           style="fill:none;fill-opacity:1;fill-rule:nonzero;stroke:none"
           d="M 16300,0 H 0 V 16300 H 16300 V 0" /></g><g
         transform="scale(1.14042)"
         id="g18"><path
           id="path20"
           style="fill:#fbc398;fill-opacity:1;fill-rule:nonzero;stroke:none"
           d="m 14962.9,5249.02 95.5,-175.38 c 0,0 96.1,-226.14 103,-228.42 6.8,-2.28 294.3,-162.31 294.3,-162.31 0,0 299,57.35 340,59.63 41.1,2.28 214.4,71.2 214.4,71.2 0,0 27.5,63.31 121,158.01 93.6,94.79 123.2,174.67 123.2,181.51 0,6.84 41.1,77.52 43.4,84.36 2.3,6.83 -9.1,25.16 -9.1,25.16 0,0 6.8,27.36 0,41.04 -6.8,13.68 -22.8,31.92 -27.4,41.04 -4.6,9.2 -25.1,95.84 -86.7,107.24 -61.6,11.49 -79.9,-82.43 -168.9,-123.29 -89,-40.95 -111.8,-13.59 -171.1,-66.03 -59.3,-52.52 -102.7,-121 -164.3,-132.4 -61.6,-11.4 -84.4,-12.81 -162,41.47 -77.5,54.37 -120.9,268.85 -120.9,268.85 l -225.9,-18.24 -198.5,-173.44" /></g><g
         transform="scale(1.14028)"
         id="g22"><path
           id="path24"
           style="fill:#f4dfcf;fill-opacity:1;fill-rule:nonzero;stroke:none"
           d="m 15457.6,4683.49 c 0,0 -31.2,17.36 -73.2,40.69 v 0 c 42,-23.33 73.2,-40.69 73.2,-40.69 0,0 299,57.35 340.1,59.63 41,2.29 214.4,71.21 214.4,71.21 0,0 27.4,63.32 121,158.04 93.6,94.8 123.2,174.69 123.2,181.53 0,6.84 41.2,77.52 43.4,84.37 0.2,0.61 0.3,1.31 0.3,2.1 0,-0.79 -0.1,-1.49 -0.3,-2.1 -2.2,-6.85 -43.4,-77.53 -43.4,-84.37 0,-6.93 -29.6,-86.73 -123.2,-181.53 -93.6,-94.72 -121,-158.04 -121,-158.04 0,0 -173.4,-68.92 -214.4,-71.21 -41.1,-2.28 -340.1,-59.63 -340.1,-59.63 m -36.3,641.86 c -0.1,0.17 -0.1,0.26 -0.2,0.35 0.1,-0.09 0.1,-0.18 0.2,-0.35 m -0.2,0.61 c -0.1,0.18 -0.2,0.35 -0.3,0.53 0.1,-0.18 0.2,-0.35 0.3,-0.53 m -0.3,0.62 c -0.1,0.26 -0.1,0.44 -0.2,0.7 v 0 c 0.1,-0.26 0.1,-0.44 0.2,-0.7" /></g><g
         transform="scale(1.14029)"
         id="g26"><path
           id="path28"
           style="fill:#f0b489;fill-opacity:1;fill-rule:nonzero;stroke:none"
           d="m 15457.5,4683.46 c 0,0 -31.1,17.37 -73.1,40.69 l -110.1,102.43 c 31.8,26.31 63.1,54.38 87.4,80.77 79.9,86.74 121,183.73 121,183.73 0,0 33.5,20.52 63.1,58.06 30.8,-18.25 51.8,-24.56 75,-24.56 15.2,0 31.1,2.72 51.3,6.4 61.6,11.4 105,79.89 164.2,132.43 59.4,52.44 82.2,25.08 171.2,66.03 84,38.59 105,124.27 158.8,124.27 3.3,0 6.6,-0.27 10.1,-0.97 61.6,-11.4 82.1,-98.04 86.7,-107.25 4.6,-9.12 20.6,-27.36 27.4,-41.04 2.3,-4.56 3,-10.61 3,-16.66 0.1,-12.2 -3,-24.38 -3,-24.38 v 0 0 c 0,0 9.5,-15.18 9.4,-23.07 0,-0.79 -0.1,-1.49 -0.3,-2.1 -2.2,-6.84 -43.4,-77.53 -43.4,-84.37 0,-6.84 -29.6,-86.73 -123.2,-181.53 -93.6,-94.72 -121,-158.03 -121,-158.03 0,0 -173.4,-68.93 -214.4,-71.21 -41.1,-2.28 -340.1,-59.64 -340.1,-59.64 m -414.3,421.83 -33.2,61.12 c 33,20.43 64.5,39.82 75.1,46.04 25.5,15.17 70.3,49.81 108.6,61.21 33.2,9.92 186.7,44.56 226.8,53.59 0.1,-0.26 0.2,-0.44 0.2,-0.7 v -0.09 c 0.1,-0.18 0.2,-0.35 0.3,-0.53 0,-0.09 0,-0.17 0,-0.26 0.1,-0.09 0.1,-0.17 0.2,-0.35 3.1,-9.3 6.6,-18.77 10.2,-28.24 -0.7,-1.14 -1.2,-1.75 -1.2,-1.75 0,0 -9.9,4.91 -22.8,4.91 -14.7,0 -33.5,-6.49 -45.7,-34.56 0,0 -17.2,8.6 -38.5,8.6 -19.8,0 -43.1,-7.46 -59.6,-36.04 0,0 -109.5,-6.84 -118.7,-61.57 0,0 -52.5,-20.52 -82.1,-52.53 -5.1,-5.44 -11.8,-11.84 -19.6,-18.85" /></g><g
         transform="scale(1.09093)"
         id="g30"><path
           id="path32"
           style="fill:#fbc398;fill-opacity:1;fill-rule:nonzero;stroke:none"
           d="m 15126.5,4993.43 c 0,0 32.2,-42.9 50.1,-232.55 17.8,-189.65 42.3,-287.73 167.7,-300.57 125.5,-12.83 242.9,130.35 242.9,130.35 l 223.9,338.33 c 0,0 162.1,109.73 245.6,200.38 83.5,90.66 126.4,192.04 126.4,192.04 0,0 107.4,65.63 112.1,177.74 4.8,112.1 -50,121.64 -81.1,116.87 -31,-4.77 -85.8,-81.12 -85.8,-81.12 0,0 -47.7,23.83 -71.6,-30.99 0,0 -66.8,33.37 -102.5,-28.68 0,0 -114.5,-7.15 -124.1,-64.35 0,0 -54.9,-21.45 -85.9,-54.91 -30.9,-33.37 -120.8,-102.57 -157,-109.72 -36.2,-7.15 -152.9,12.74 -181.7,62.05 -28.7,49.32 -131.1,36.39 -174.1,-4.49 -42.9,-40.88 -104.9,-310.38 -104.9,-310.38" /></g><g
         transform="scale(1.12956)"
         id="g34"><path
           id="path36"
           style="fill:#5b5c5e;fill-opacity:1;fill-rule:nonzero;stroke:none"
           d="m 15648.1,4847.98 592.1,13.81 c 0,0 59.8,-62.15 0,-115.18 l -580.6,-32.23 -11.5,133.6" /></g><g
         transform="scale(1.09883)"
         id="g38"><path
           id="path40"
           style="fill:#ccccc9;fill-opacity:1;fill-rule:nonzero;stroke:none"
           d="m 15806.3,5049.9 351.6,42.59 142.1,-213.14 -287.7,-152.7 c 0,0 -238,21.29 -230.9,60.33 7.1,39.14 24.9,262.92 24.9,262.92" /></g><g
         transform="scale(1.09883)"
         id="g42"><path
           id="path44"
           style="fill:#9c9c9b;fill-opacity:1;fill-rule:nonzero;stroke:none"
           d="m 16012.3,4858.06 287.7,21.29 c 0,0 -539.9,-728.13 -724.6,-856.09 -184.7,-127.86 -539.9,-140.87 -539.9,-140.87 l 351.6,307.87 625.2,667.8" /></g><path
         id="path46"
         style="fill:#9c9c9b;fill-opacity:1;fill-rule:nonzero;stroke:none"
         d="m 10721.3,4867.9 c 5.8,17.5 -99.6,146.3 -99.6,146.3 l 2884.9,470.2 458.2,-83.7 c 0,0 5.9,-23.5 -23.4,-58.6 -29.2,-35.1 -3144,-548.4 -3144,-548.4 l -76.1,74.2" /><g
         transform="scale(1.03107)"
         id="g48"><path
           id="path50"
           style="fill:#9c9c9b;fill-opacity:1;fill-rule:nonzero;stroke:none"
           d="m 13628.1,6846.98 c 0,0 211.2,-1313.78 444,-1699.89 232.9,-386.2 639.8,-448.56 1092.2,-550.78 452.4,-102.23 1135.7,-130.65 1135.7,-130.65 0,0 -30.3,-102.22 -166.5,-176.03 -136.3,-73.8 -664.5,-28.41 -880.2,0 -215.8,28.42 -1209.5,238.49 -1311.7,289.6 -102.3,51.12 -272.6,136.27 -284,198.73 -11.4,62.46 -193,440.8 -204.4,541.19 -11.3,100.48 -262.9,1338.41 -276.3,1372.46 -13.3,34.04 10.1,283.78 37.9,282.42 27.6,-1.45 413.3,-127.05 413.3,-127.05" /></g><g
         transform="scale(1.07944)"
         id="g52"><path
           id="path54"
           style="fill:#b9b8b7;fill-opacity:1;fill-rule:nonzero;stroke:none"
           d="m 12459.8,4948.95 238.6,596.6 86.8,-569.46 -325.4,-27.14 m 3630.5,191.67 c 0,0 -448.4,-773.83 -766.6,-903.99 -318.3,-130.16 -1475.3,101.26 -1750.2,224.19 -274.8,122.94 -499,453.2 -614.7,888.33 -115.7,435.14 -282.1,1210.72 -282.1,1210.72 0,0 1372.3,-81.34 1399.5,-70.5 27,10.84 59.6,314.61 59.6,314.61 l -1647.1,-57.9 43.4,-267.55 -694.2,-1634.45 -1583.9,-260.32 -115.7,-347.13 2755.4,441.16 c 0,0 154.5,-332.67 518.4,-470.15 363.9,-137.39 1521,-296.45 1933.2,-245.87 412.3,50.67 954.7,983.56 954.7,983.56 l -209.7,195.29" /></g><path
         id="path56"
         style="fill:#7e7f81;fill-opacity:1;fill-rule:nonzero;stroke:none"
         d="m 13371.8,7907 112.9,-439.6 316.2,37.2 -52.7,343.4 c 0,0 -181.5,82 -204.9,52.7 -23.4,-29.3 -171.5,6.3 -171.5,6.3" /><path
         id="path58"
         style="fill:#5b5c5e;fill-opacity:1;fill-rule:nonzero;stroke:none"
         d="m 13385.2,7504.6 c 0,0 -52.7,-230.4 29.3,-288.9 82,-58.6 2172.1,-46.9 2172.1,-46.9 v 503.5 l -743.5,146.4 -1109.4,-262.6 -348.5,-51.5" /><g
         transform="scale(1.07656)"
         id="g60"><path
           id="path62"
           style="fill:#fbc398;fill-opacity:1;fill-rule:nonzero;stroke:none"
           d="m 15016.6,8083.86 c 0,0 398.7,-79.79 594.5,-268.26 195.8,-188.56 688.9,-2052.17 688.9,-2052.17 l -449.6,-203.06 c 0,0 -159.5,188.57 -456.8,493.15 -297.3,304.58 -217.5,1109.45 -217.5,1109.45 l -340.9,7.25 c 0,0 -471.3,390.96 -471.3,481.9 0,90.94 73.1,231.48 94.6,237.33 21.5,5.85 275.2,161.81 275.2,161.81 l 282.9,32.6" /></g><g
         transform="scale(1.00233)"
         id="g64"><path
           id="path66"
           style="fill:#dc9b70;fill-opacity:1;fill-rule:nonzero;stroke:none"
           d="m 15683.6,8600.65 c 0,0 253.4,-139.18 335.2,-381.81 81.7,-242.63 281.2,-525.37 281.2,-525.37 l -366,7.78 -335,405.75 84.6,493.65" /></g><path
         id="path68"
         style="fill:#5b5c5e;fill-opacity:1;fill-rule:nonzero;stroke:none"
         d="m 12639,10897.7 c 0,0 61.2,-1305 143.2,-1843.6 81.9,-538.7 403.7,-1393.5 471.1,-1428.6 67.5,-35.1 572,128.8 572,128.8 l -47.8,2119.5 -450.4,690.8 -688.1,333.1" /><g
         transform="scale(1.03107)"
         id="g70"><path
           id="path72"
           style="fill:#fbc398;fill-opacity:1;fill-rule:nonzero;stroke:none"
           d="m 14028.7,7819.76 480.7,-503.56 h 397.5 c 0,0 -68.1,-548.84 113.6,-836.61 181.7,-287.66 575.4,-696.56 764.7,-916.13 189.2,-219.48 219.6,-280.1 219.6,-280.1 l 295.2,333.15 c 0,0 -280.1,461.85 -386.1,878.21 -106,416.46 -310.5,757.18 -355.8,923.71 -45.5,166.62 45.3,590.55 -265.1,779.87 -310.4,189.32 -704.1,189.32 -783.6,121.14 -79.5,-68.19 -480.7,-499.68 -480.7,-499.68" /></g><path
         id="path74"
         style="fill:#252323;fill-opacity:1;fill-rule:nonzero;stroke:none"
         d="m 13355.9,8667.7 c 0,0 -140.5,-831.4 199.1,-1042.2 339.6,-210.8 1405.2,-82 1405.2,-82 0,0 -43,370.8 66.3,667.5 109.3,296.6 273.3,335.7 273.3,335.7 l 468.3,-93.7 c 0,0 148.4,203 398.2,249.8 l -1206.1,175.6 c 0,0 -1003.2,113.2 -1057.8,89.8 -54.6,-23.4 -546.5,-300.5 -546.5,-300.5" /><path
         id="path76"
         style="fill:#abaaa9;fill-opacity:1;fill-rule:nonzero;stroke:none"
         d="m 14690.8,15156.2 710.4,-48.2 c 0,0 43,77.1 0,153.7 l -710.4,38.9 v -144.4" /><path
         id="path78"
         style="fill:#656769;fill-opacity:1;fill-rule:nonzero;stroke:none"
         d="m 15335.3,15288.1 c 0,419.3 -216.7,759.2 -484,759.2 h -225 l -23.4,-58.5 0.8,-48.3 c -141.6,-132.4 -236.4,-375 -236.4,-652.4 0,-291 104.4,-543.7 257.6,-671.1 l 1.4,-88.1 h 259.9 c 0,0 0.2,0.8 0.7,2.1 250.6,28.6 448.4,356.6 448.4,757.1" /><path
         id="path80"
         style="fill:#7c7d7f;fill-opacity:1;fill-rule:nonzero;stroke:none"
         d="m 15110.3,15288.1 c 0,-419.3 -216.7,-759.2 -484,-759.2 -267.3,0 -484,339.9 -484,759.2 0,419.3 216.7,759.2 484,759.2 267.3,0 484,-339.9 484,-759.2" /><path
         id="path82"
         style="fill:#656769;fill-opacity:1;fill-rule:nonzero;stroke:none"
         d="m 14735.1,15300.6 c 0,-79.8 -50.1,-144.4 -111.9,-144.4 -61.8,0 -111.9,64.6 -111.9,144.4 0,79.7 50.1,144.4 111.9,144.4 61.8,0 111.9,-64.7 111.9,-144.4" /><path
         id="path84"
         style="fill:#abaaa9;fill-opacity:1;fill-rule:nonzero;stroke:none"
         d="m 14115.8,15416.9 c 0,0 116.7,4.7 148.1,-13.5 31.4,-18.3 114.7,-130.1 182.4,-153.6 67.6,-23.4 180,0 180,0 0,0 30.7,83.3 -21.3,109.3 l -127.5,2.6 c 0,0 -127.3,119.7 -223.7,156.2 -96.4,36.4 -317.6,9.2 -317.6,9.2 l 109.3,-110.2 h 70.3" /><path
         id="path86"
         style="fill:#fbc398;fill-opacity:1;fill-rule:nonzero;stroke:none"
         d="m 14018,14959.7 c 0,0 -74,42.9 -193.7,97.6 -119.7,54.6 -234.2,96.2 -242,143.1 -7.8,46.8 -23.4,189.9 -23.4,189.9 0,0 -19.8,129.6 -20.8,136.8 -1,7.2 -23.4,107.8 36.4,113.1 59.9,5.2 107.4,-57.3 120.1,-59.9 12.6,-2.6 64.7,18.2 101.1,7.8 36.4,-10.4 49.4,-28.6 49.4,-28.6 0,0 72.9,17.9 106.7,11.5 33.9,-6.3 93.7,-154.1 93.7,-154.1 h 70.3 c 0,0 132.7,-211.3 137.9,-332.3 5.2,-121 -148.3,-201.7 -148.3,-201.7 l -87.4,76.8" /><path
         id="path88"
         style="fill:#dc9b70;fill-opacity:1;fill-rule:nonzero;stroke:none"
         d="m 13832.1,15179.6 c 12.8,-2.4 -113.6,109.3 -155.6,171.7 -42.1,62.5 -81.2,18.2 -81.2,18.2 0,0 122.3,-169.1 236.8,-189.9" /><path
         id="path90"
         style="fill:#dc9b70;fill-opacity:1;fill-rule:nonzero;stroke:none"
         d="m 13694.6,15580.3 c 0,0 126.3,-182.1 138.4,-184.7 12.1,-2.7 66.8,-5.7 150.1,-49.7 83.2,-44 96.2,-63.8 96.2,-63.8 l -28.6,63.8 -5.2,71 c 0,0 -23.4,-40.4 -41.6,-32.2 -18.2,8.2 -116.9,183.1 -116.9,183.1 l -41.9,-8.3 c 0,0 91.1,-131.6 83.3,-142.6 -7.8,-10.9 -44.2,-4.7 -75.4,14.3 -31.3,19 -119.5,155.4 -119.5,155.4 l -38.9,-6.3" /><path
         id="path92"
         style="fill:#abaaa9;fill-opacity:1;fill-rule:nonzero;stroke:none"
         d="m 12871.9,15571 c 72.9,4.1 104.1,11.9 174.4,43.1 70.2,31.3 127.5,84.7 247.2,41.1 119.7,-43.7 343.5,-179 343.5,-179 0,0 64.5,-39 56.9,-96.3 -7.5,-57.2 -122,-49.4 -122,-49.4 0,0 -242,150.8 -307,170.4 -65.1,19.5 -245,-66.3 -393,-66.3 -148,-0.1 0,136.4 0,136.4" /><path
         id="path94"
         style="fill:#abaaa9;fill-opacity:1;fill-rule:nonzero;stroke:none"
         d="m 12203.2,15783.3 346.1,-66.4 c 0,0 27.3,-79.8 12,-101.5 -15.2,-21.7 -149.2,-84.5 -149.2,-84.5 0,0 -253.1,-31.3 -263.6,85.8 -10.4,117.1 54.7,166.6 54.7,166.6" /><path
         id="path96"
         style="fill:#fbc398;fill-opacity:1;fill-rule:nonzero;stroke:none"
         d="m 14331.7,11224.3 c 15.7,39 312.3,359.1 312.3,359.1 v 288.8 c 0,0 242,1109.4 179.6,1475.9 -62.5,366.5 -148.4,667 -261.6,994.9 -113.2,327.9 -308.3,741.6 -308.3,741.6 l -235.7,-124.9 c 0,0 9.3,-327.9 44.4,-620.6 35.2,-292.8 93.7,-542.6 93.7,-542.6 0,0 -54.6,-202.9 -58.5,-519.1 -4,-316.2 -15.7,-546.5 -15.7,-546.5 l -256.6,-413.7 c 0,0 -317.1,-247.9 34.2,-675.3 351.3,-427.4 351.3,-427.4 351.3,-427.4 l 120.9,9.8" /><path
         id="path98"
         style="fill:#edc9b0;fill-opacity:1;fill-rule:nonzero;stroke:none"
         d="m 13805.5,12299 c -17.7,14.1 -36.6,24.9 -56.3,32.9 l 10.5,17.8 254.4,271.8 -188.8,-304.3 c 0,0 -7.9,-6.2 -19.8,-18.2" /><path
         id="path100"
         style="fill:#eaac82;fill-opacity:1;fill-rule:nonzero;stroke:none"
         d="m 14070.3,11936.2 -0.1,0.1 c -71.5,72.6 -136,157.6 -183.4,256 -22.7,47 -50.2,81.9 -81.3,106.7 11.9,12 19.8,18.2 19.8,18.2 l 188.8,304.3 v 0 c 0,0 70.1,-271.3 53.7,-436.1 -16.4,-164.9 2.5,-249.2 2.5,-249.2" /><path
         id="path102"
         style="fill:#3970c1;fill-opacity:1;fill-rule:nonzero;stroke:none"
         d="m 12594.8,10775.4 c 0,0 66.2,-386.4 320,-761.1 253.8,-374.7 417.7,-1253 429.4,-1299.8 11.7,-46.8 11.7,-46.8 11.7,-46.8 0,0 667.5,58.5 995.4,93.6 327.8,35.2 608.9,117.1 608.9,117.1 0,0 -167.9,1463.8 -167.9,1573 0,109.3 78.1,287.1 0,608.1 -78,320.9 -148.3,523.9 -148.3,523.9 0,0 -546.4,171.7 -757.2,608.9 -210.8,437.1 -843.1,-175.1 -843.1,-175.1 l -448.9,-1241.8" /><path
         id="path104"
         style="fill:#fbc398;fill-opacity:1;fill-rule:nonzero;stroke:none"
         d="m 13813.8,12025.4 98.4,-8.2 c 0,0 403.9,-422.1 298.6,-802.7 -105.4,-380.5 -673.4,480.1 -696.8,591.4 -23.4,111.2 -163.3,271.6 -194.7,358.6 -31.4,87 494.5,-139.1 494.5,-139.1" /><path
         id="path106"
         style="fill:#dc9b70;fill-opacity:1;fill-rule:nonzero;stroke:none"
         d="m 13811.9,12522 -111.6,-368.6 -559,368.6 c 0,0 42.8,-354.4 242,-427.3 229.1,-83.9 394.9,-85.9 430.5,-69.3 l -1.9,496.6" /><path
         id="path108"
         style="fill:#252323;fill-opacity:1;fill-rule:nonzero;stroke:none"
         d="m 13635.3,13649.3 c -204.7,57.8 -389.5,-7.9 -483.4,-57 -93.9,-49 -241,-148.8 -241,-148.8 -37.9,-27 -75.8,-56.6 -94.5,-90.8 -29.8,-54.7 -26.5,-99.6 -26.5,-99.6 0,0 -137.5,-59.3 -102.9,-260.7 34.7,-201.4 128,-368.3 199.1,-467.9 71.2,-99.6 182,-121.1 182,-121.1 l 52.7,198.3 c 0,0 250,382.7 255.3,406.4 5.4,23.7 366,211 366,211 l 82.5,70.9 c 0,0 13.1,136.7 -76.4,259.7 -28.1,38.6 -69.4,72 -112.9,99.6" /><path
         id="path110"
         style="fill:#fbc398;fill-opacity:1;fill-rule:nonzero;stroke:none"
         d="m 13754.2,13348.1 c 0,0 55.3,-40.3 70.4,-58.1 15,-17.7 76.2,-200.6 93,-246.5 16.8,-45.9 23.3,-112.8 30,-135.5 6.7,-22.6 50.5,-160.6 60.5,-216.7 9.9,-56.1 11.7,-285.2 8.5,-346.8 -3.2,-61.7 -10.1,-144.1 -32.9,-167.1 -22.7,-23.1 -140.2,-64.2 -255.2,-63.6 -115,0.6 -363,80.2 -440.6,137.7 -77.6,57.6 -115.4,213.7 -115.4,213.7 0,0 -40.2,-24.9 -98.8,7.1 -58.6,31.9 -159.9,108.7 -176.8,221.8 -16.8,113.2 77.7,98.3 132.9,67 55.1,-31.4 76.1,-97.3 85.6,-96.2 9.5,1.2 17.7,6.9 21.8,9.7 4.1,2.8 -7.6,120.8 -12.8,143.8 -5.1,23.1 -49.6,157.7 -47.9,163.1 1.7,5.4 74.2,174.3 106.4,198.5 32.2,24.3 571.3,168.1 571.3,168.1" /><path
         id="path112"
         style="fill:#fbc398;fill-opacity:1;fill-rule:nonzero;stroke:none"
         d="m 12483.6,15143.1 c 0,0 -23.5,-357.1 -29.3,-702.5 -5.9,-345.5 93.7,-831.4 93.7,-831.4 0,0 -123,-509.4 -134.7,-843.1 -11.7,-333.8 67.3,-652.3 67.3,-652.3 0,0 -115.3,-624.1 -0.6,-981.2 114.8,-357.2 114.8,-357.2 114.8,-357.2 0,0 438.9,11.7 658.5,409.9 219.7,398.1 155.3,831.9 155.3,831.9 0,0 -244.3,399.1 -236.1,448 40.8,242.2 107.3,798.5 107.3,956.6 0,158.1 -70.2,415.7 -70.2,415.7 0,0 35.1,357.2 -117.1,626.5 -152.3,269.3 -304.5,679.1 -304.5,679.1 h -304.4" /><path
         id="path114"
         style="fill:#eaad81;fill-opacity:1;fill-rule:nonzero;stroke:none"
         d="m 12629.9,13919.5 c 0,0 82,187.3 93.7,333.7 11.7,146.4 -42.2,345.4 -42.2,345.4 256.5,-398.1 -51.5,-679.1 -51.5,-679.1" /><path
         id="path116"
         style="fill:#dc9b70;fill-opacity:1;fill-rule:nonzero;stroke:none"
         d="m 13043.7,12017.2 c 0,0 0,-129.4 27.3,-230.8 27.3,-101.5 82,-335.7 70.3,-324 -11.7,11.7 32.7,155.6 -16.9,331.8 -49.7,176.2 -80.7,223 -80.7,223" /><path
         id="path118"
         style="fill:#eaac82;fill-opacity:1;fill-rule:nonzero;stroke:none"
         d="m 14644,11583.4 v 0 l -245.9,655.7 245.9,-366.9 v -288.8 0" /><path
         id="path120"
         style="fill:#ccccc9;fill-opacity:1;fill-rule:nonzero;stroke:none"
         d="m 10428.5,4739.1 515.2,-165.9 124.9,374.7 -446.9,66.3 -193.2,-275.1" /><g
         transform="scale(1.05948)"
         id="g122"><path
           id="path124"
           style="fill:#5b5c5e;fill-opacity:1;fill-rule:nonzero;stroke:none"
           d="m 15815,5001.68 c 0,0 -44.3,-77.4 18.4,-128.93 0,0 466.6,25.77 466.6,29.45 0,3.67 0,124.02 0,124.02 l -485,-24.54" /></g><g
         transform="scale(1.07141)"
         id="g126"><path
           id="path128"
           style="fill:#5b5c5e;fill-opacity:1;fill-rule:nonzero;stroke:none"
           d="m 16300,4923.13 c 0,-74.29 -45,-134.49 -100.4,-134.49 -55.6,0 -100.5,60.2 -100.5,134.49 0,74.3 44.9,134.6 100.5,134.6 55.4,0 100.4,-60.3 100.4,-134.6" /></g><g
         transform="scale(1.03471)"
         id="g130"><path
           id="path132"
           style="fill:#f2b68b;fill-opacity:1;fill-rule:nonzero;stroke:none"
           d="m 16292.9,5181.77 c -0.9,2.9 1.9,11.88 7.1,24.83 -4.3,-15.36 -7.1,-24.83 -7.1,-24.83" /></g><g
         transform="scale(1.04323)"
         id="g134"><path
           id="path136"
           style="fill:#f6e3d7;fill-opacity:1;fill-rule:nonzero;stroke:none"
           d="m 16281,5484.71 c -7.4,0 -15.8,0.48 -24.9,1.44 v 0 h 43.9 c -5,-0.96 -11.4,-1.44 -19,-1.44" /></g><g
         transform="scale(1.04384)"
         id="g138"><path
           id="path140"
           style="fill:#f2b68b;fill-opacity:1;fill-rule:nonzero;stroke:none"
           d="m 16157.4,5161.04 c 16,57 55.1,196.2 63.7,229.73 10.6,41.86 25.1,91.01 25.4,92.16 9.1,-0.96 17.6,-1.44 25,-1.44 7.5,0 13.9,0.48 18.9,1.44 v 0 c 0,0 9.6,-52.31 -20.4,-102.22 -24.1,-40.33 -90.7,-165.45 -112.6,-219.67" /></g><g
         transform="scale(1.06304)"
         id="g142"><path
           id="path144"
           style="fill:#e7a97d;fill-opacity:1;fill-rule:nonzero;stroke:none"
           d="m 16155.4,5333.68 c -0.2,0 -0.4,0 -0.5,0.1 -7.3,1.78 99.2,110.15 90.6,150.51 -8.5,40.36 -40,48.82 -40,48.82 l 40,19.76 c 0,0 54.5,-88.81 30.6,-129.16 -23.4,-39.7 -110.7,-90.03 -120.7,-90.03" /></g><g
         transform="scale(1.07052)"
         id="g146"><path
           id="path148"
           style="fill:#e7a97d;fill-opacity:1;fill-rule:nonzero;stroke:none"
           d="m 16257.6,5439.59 c -0.1,0 -0.3,0.28 -0.5,0.94 -0.3,1.02 0.6,3.17 2.1,6.44 -0.5,-4.76 -1,-7.38 -1.6,-7.38 m 1.6,7.38 c 1.2,12.15 1.6,37.84 -2.1,67.07 -5.5,44.37 -44.1,58.48 -44.1,58.48 l 45.3,7.1 c 41.7,-58.76 9.8,-113.59 0.9,-132.65" /></g><g
         transform="scale(1.07597)"
         id="g150"><path
           id="path152"
           style="fill:#e7a97d;fill-opacity:1;fill-rule:nonzero;stroke:none"
           d="m 16249.2,5449.23 c 21.7,70.72 0,139.68 0,139.68 l 30.8,-8.46 c 20,-93.77 -30.8,-131.22 -30.8,-131.22" /></g><g
         transform="scale(1.08314)"
         id="g154"><path
           id="path156"
           style="fill:#e7a97d;fill-opacity:1;fill-rule:nonzero;stroke:none"
           d="m 16244.3,5445.37 c 32.4,80.97 0,129.34 0,129.34 l 28.7,35.92 c 27,-130.55 -28.7,-165.26 -28.7,-165.26" /></g><g
         transform="scale(1.13771)"
         id="g158"><path
           id="path160"
           style="fill:#dc9b70;fill-opacity:1;fill-rule:nonzero;stroke:none"
           d="m 16071.3,5048.85 c -11.3,-1.85 86.9,69.52 86.9,135.36 0,0 124.8,102.22 125.4,215.6 l 16.4,-42.18 c 0,0 -22.9,-107.5 -93.7,-194.43 0,0 -38.9,-98.27 -135,-114.35" /></g><path
         id="path162"
         style="fill:#fbc398;fill-opacity:1;fill-rule:nonzero;stroke:none"
         d="m 12483.6,15143.1 c 0,0 -12.4,85.9 -38.4,122.3 -26,36.5 -208.2,231.6 -216,255 -7.8,23.5 0,145.8 0,145.8 l 234.2,-23.4 c 0,0 7.8,89.7 33.8,107.3 26.1,17.6 57.3,0 57.3,0 0,0 28.6,25.4 59.8,28 31.3,2.6 44.3,-13 44.3,-13 0,0 44.2,13.6 67.6,13.3 23.4,-0.3 23.4,-0.3 23.4,-0.3 0,0 44.3,40.3 59.9,22.7 15.6,-17.5 72.9,-142.4 78.1,-191.9 5.2,-49.4 18.2,-176.9 0,-216 -18.3,-39 -108,-161.3 -99.6,-249.8 8.5,-88.4 -111.2,-114.5 -111.2,-114.5 l -193.2,114.5" /><path
         id="path164"
         style="fill:#dc9b70;fill-opacity:1;fill-rule:nonzero;stroke:none"
         d="m 12463.4,15642.8 c 0,0 16.3,-44.9 28,-54.7 11.7,-9.7 48.2,-17.6 69.9,27.3 21.8,44.9 -6.8,134.7 -6.8,134.7 l 21.9,15.1 c 0,0 32.1,-71.7 24.3,-136.1 -7.8,-64.4 -13.7,-99.5 37,-99.5 50.8,0 20.9,235.5 20.9,235.5 l 31.5,8.2 c 0,0 21.8,-95.4 10.1,-163.7 -11.7,-68.3 0,-74.2 29.3,-80 29.3,-5.9 20.1,248.5 20.1,248.5 l 24.4,18.1 c 0,0 33.5,-208.1 16,-245.2 -17.6,-37.1 -33.2,-29.2 -52.7,-70.2 -19.5,-41 -23.4,-140.5 -25.4,-134.7 -1.9,5.9 -9.8,93.7 -58.5,126.9 -48.8,33.1 -92.1,66.3 -92.1,66.3 0,0 -90.7,-35.1 -97.9,103.5" /><path
         id="path166"
         style="fill:#fcd3b9;fill-opacity:1;fill-rule:nonzero;stroke:none"
         d="m 13172.5,12465.2 c 31.6,187.7 78.6,563.8 98.2,797.2 l -160.1,-835.2 198.3,-241.8 c -66.5,115.4 -141,252.4 -136.4,279.8" /><path
         id="path168"
         style="fill:#fcd3b9;fill-opacity:1;fill-rule:nonzero;stroke:none"
         d="m 13402.4,12027.4 8.6,-30.3 c -1.3,13.1 -2.4,20.1 -2.4,20.1 0,0 -2.2,3.6 -6.2,10.2" /><g
         transform="scale(1.01284)"
         id="g170"><path
           id="path172"
           style="fill:#656769;fill-opacity:1;fill-rule:nonzero;stroke:none"
           d="m 12110,15550.4 c 0,414 -213.9,749.6 -477.8,749.6 h -222.1 l -23.2,-57.8 0.8,-47.6 c -139.8,-130.8 -233.4,-370.3 -233.4,-644.2 0,-287.3 103.1,-536.8 254.3,-662.6 l 1.5,-86.9 h 256.5 c 0,0 0.3,0.7 0.7,2 247.5,28.2 442.7,352.1 442.7,747.5" /></g><g
         transform="scale(1.01284)"
         id="g174"><path
           id="path176"
           style="fill:#7c7d7f;fill-opacity:1;fill-rule:nonzero;stroke:none"
           d="m 11888,15550.4 c 0,-413.9 -214,-749.5 -477.9,-749.5 -264,0 -478,335.6 -478,749.5 0,414 214,749.6 478,749.6 263.9,0 477.9,-335.6 477.9,-749.6" /></g><path
         id="path178"
         style="fill:#abaaa9;fill-opacity:1;fill-rule:nonzero;stroke:none"
         d="m 10869.6,15884.8 c 0,0 -78.1,-82 0,-167.9 h 718.2 c 0,0 66.3,74.2 0,167.9 h -718.2" /><path
         id="path180"
         style="fill:#abaaa9;fill-opacity:1;fill-rule:nonzero;stroke:none"
         d="m 3807.5,12376.9 -1071.44,-12.2 -25.37,12.2 -62.45,-189.8 1225.62,15.6 -66.36,174.2" /><path
         id="path182"
         style="fill:#abaaa9;fill-opacity:1;fill-rule:nonzero;stroke:none"
         d="M 5923.87,12120.4 H 5629.5 c -51.29,0 -92.87,41.6 -92.87,92.9 0,51.3 41.58,92.9 92.87,92.9 h 294.37 c 51.28,0 92.87,-41.6 92.87,-92.9 0,-51.3 -41.59,-92.9 -92.87,-92.9" /><path
         id="path184"
         style="fill:#fbc398;fill-opacity:1;fill-rule:nonzero;stroke:none"
         d="m 5870.73,11590.1 c 0,0 -12.08,370 -23.78,530.3 -11.72,160.4 87.81,827.9 64.4,997.7 -23.42,169.8 -234.2,503.5 -240.05,532.7 -5.86,29.3 -234.2,310.4 -368.86,316.2 -134.66,5.9 -158.08,-140.5 -204.92,-187.3 -46.83,-46.9 -269.32,-310.3 -269.32,-310.3 l 23.42,-940.7 58.54,-504.8 c 0,0 210.78,-539.3 421.55,-603.7 210.78,-64.5 304.46,-82 304.46,-82 l 234.56,251.9" /><path
         id="path186"
         style="fill:#dc9b70;fill-opacity:1;fill-rule:nonzero;stroke:none"
         d="m 5308.29,13650.8 c 0,0 -93.67,-46.8 -134.66,-257.6 -40.98,-210.7 -23.42,-585.4 -23.42,-585.4 0,0 -151.48,99.5 -146,117 5.48,17.6 11.43,630 304.08,726" /><path
         id="path188"
         style="fill:#edc9b0;fill-opacity:1;fill-rule:nonzero;stroke:none"
         d="m 4870.8,12363.3 c -16.36,50 -29.65,123.5 -20.59,221.6 v 0 l 1.41,-56.2 19.18,-165.4" /><path
         id="path190"
         style="fill:#eaac82;fill-opacity:1;fill-rule:nonzero;stroke:none"
         d="m 5336.03,11905 h -122.18 l -303.69,377 c 0,0 -21.5,26.6 -39.36,81.3 l -19.18,165.4 -1.41,56.2 c 11.52,124.6 98.02,246.9 164.23,323.8 33.37,-33.7 135.77,-100.9 135.77,-100.9 v 0 0 c 0,0 -7.27,155.1 -1.53,322 h 0.02 c 0,0 153.74,-392.1 159.59,-477.1 5.86,-85 -5.85,-388.2 0,-532.3 5.86,-144 27.74,-215.4 27.74,-215.4" /><path
         id="path192"
         style="fill:#dc9b70;fill-opacity:1;fill-rule:nonzero;stroke:none"
         d="m 5150.21,12807.8 c 0,0 -102.4,67.2 -135.77,100.9 42.87,49.8 77.23,80.6 77.23,80.6 l 57.01,140.5 c -5.74,-166.9 1.53,-322 1.53,-322" /><path
         id="path194"
         style="fill:#fbc398;fill-opacity:1;fill-rule:nonzero;stroke:none"
         d="m 8290.74,5986.1 108.9,-200 c 0,0 109.68,-257.9 117.49,-260.5 7.81,-2.6 335.59,-185.1 335.59,-185.1 0,0 340.97,65.4 387.81,68 46.84,2.6 244.46,81.2 244.46,81.2 0,0 31.37,72.2 138.06,180.2 106.68,108.1 140.51,199.2 140.51,207 0,7.8 46.84,88.4 49.44,96.2 2.6,7.8 -10.41,28.7 -10.41,28.7 0,0 7.81,31.2 0,46.8 -7.8,15.6 -26.02,36.4 -31.22,46.8 -5.21,10.5 -28.63,109.3 -98.89,122.3 -70.25,13.1 -91.07,-94 -192.55,-140.6 -101.49,-46.7 -127.51,-15.5 -195.17,-75.3 -67.65,-59.9 -117.1,-138 -187.35,-151 -70.26,-13 -96.28,-14.6 -184.75,47.3 -88.48,62 -137.92,306.6 -137.92,306.6 l -257.61,-20.8 -226.39,-197.8" /><path
         id="path196"
         style="fill:#f4dfcf;fill-opacity:1;fill-rule:nonzero;stroke:none"
         d="m 8852.72,5340.5 c 0,0 -35.51,19.8 -83.44,46.4 v 0 c 47.93,-26.6 83.44,-46.4 83.44,-46.4 0,0 340.97,65.4 387.81,68 46.84,2.6 244.46,81.2 244.46,81.2 0,0 31.37,72.2 138.06,180.2 106.68,108.1 140.51,199.2 140.51,207 0,7.8 46.84,88.4 49.44,96.2 0.24,0.7 0.35,1.5 0.35,2.4 0,-0.9 -0.11,-1.7 -0.35,-2.4 -2.6,-7.8 -49.44,-88.4 -49.44,-96.2 0,-7.9 -33.83,-98.9 -140.51,-207 -106.69,-108 -138.06,-180.2 -138.06,-180.2 0,0 -197.62,-78.6 -244.46,-81.2 -46.84,-2.6 -387.81,-68 -387.81,-68" /><path
         id="path198"
         style="fill:#f0b489;fill-opacity:1;fill-rule:nonzero;stroke:none"
         d="m 8852.72,5340.5 c 0,0 -35.51,19.8 -83.44,46.4 l -125.42,116.8 c 36.23,30 71.92,62 99.65,92.1 91.08,98.9 137.92,209.5 137.92,209.5 0,0 38.22,23.4 71.96,66.2 35.11,-20.8 59.17,-28 85.58,-28 17.24,0 35.48,3.1 58.44,7.3 70.25,13 119.7,91.1 187.35,151 67.66,59.8 93.68,28.6 195.17,75.3 95.74,44 119.67,141.7 181.07,141.7 3.68,0 7.51,-0.3 11.48,-1.1 70.26,-13 93.68,-111.8 98.89,-122.3 5.2,-10.4 23.41,-31.2 31.22,-46.8 2.59,-5.2 3.46,-12.1 3.47,-19 0.01,-13.9 -3.47,-27.8 -3.47,-27.8 v 0 0 c 0,0 10.78,-17.3 10.76,-26.3 0,-0.9 -0.11,-1.7 -0.35,-2.4 -2.6,-7.8 -49.44,-88.4 -49.44,-96.2 0,-7.8 -33.83,-98.9 -140.51,-207 -106.69,-108 -138.06,-180.2 -138.06,-180.2 0,0 -197.62,-78.6 -244.46,-81.2 -46.84,-2.6 -387.81,-68 -387.81,-68" /><path
         id="path200"
         style="fill:#f4dfcf;fill-opacity:1;fill-rule:nonzero;stroke:none"
         d="m 8823.02,6040.2 c -0.44,1.1 -0.88,2.2 -1.31,3.4 0.44,-1.2 0.87,-2.3 1.31,-3.4 v 0 m -1.32,3.4 c -0.09,0.2 -0.18,0.5 -0.27,0.7 0.09,-0.2 0.18,-0.5 0.27,-0.7 m -0.33,0.9 c -0.07,0.1 -0.14,0.3 -0.2,0.5 0.06,-0.2 0.13,-0.4 0.2,-0.5 m -0.46,1.2 c -0.01,0 -0.01,0 -0.01,0 0,0 0,0 0.01,0" /><path
         id="path202"
         style="fill:#f0b489;fill-opacity:1;fill-rule:nonzero;stroke:none"
         d="m 8380.36,5821.5 -37.91,69.7 c 37.71,23.3 73.53,45.4 85.65,52.5 29.13,17.3 80.11,56.8 123.81,69.8 37.92,11.3 212.94,50.8 258.64,61.1 3.24,-9.5 6.69,-19.2 10.35,-28.9 0,0 0,0 0.01,0 0.08,-0.2 0.17,-0.5 0.26,-0.7 0.06,-0.2 0.13,-0.4 0.2,-0.5 0.02,-0.1 0.04,-0.1 0.06,-0.2 0.09,-0.2 0.18,-0.5 0.27,-0.7 0.01,0 0.01,0 0.01,0 0.43,-1.2 0.87,-2.3 1.31,-3.4 -0.94,-1.3 -1.44,-2 -1.44,-2 0,0 -11.26,5.6 -25.92,5.6 -16.86,0 -38.23,-7.4 -52.15,-39.4 0,0 -19.58,9.8 -43.88,9.8 -22.58,0 -49.21,-8.5 -68.01,-41.1 0,0 -124.9,-7.8 -135.31,-70.2 0,0 -59.85,-23.4 -93.68,-59.9 -5.76,-6.2 -13.39,-13.5 -22.27,-21.5" /><path
         id="path204"
         style="fill:#fbc398;fill-opacity:1;fill-rule:nonzero;stroke:none"
         d="m 7728.68,5447.5 c 0,0 35.12,-46.8 54.64,-253.7 19.52,-206.9 46.17,-313.9 183.01,-327.9 136.85,-14 264.99,142.2 264.99,142.2 l 244.17,369.1 c 0,0 176.95,119.7 268.02,218.6 91.08,98.9 137.92,209.5 137.92,209.5 0,0 117.09,71.6 122.3,193.9 5.2,122.3 -54.64,132.7 -88.47,127.5 -33.83,-5.2 -93.68,-88.5 -93.68,-88.5 0,0 -52.05,26 -78.07,-33.8 0,0 -72.86,36.4 -111.89,-31.3 0,0 -124.9,-7.8 -135.31,-70.2 0,0 -59.85,-23.4 -93.68,-59.9 -33.82,-36.4 -131.84,-111.9 -171.31,-119.7 -39.46,-7.8 -166.8,13.9 -198.19,67.7 -31.4,53.8 -143.12,39.7 -189.96,-4.9 -46.84,-44.6 -114.49,-338.6 -114.49,-338.6" /><path
         id="path206"
         style="fill:#5b5c5e;fill-opacity:1;fill-rule:nonzero;stroke:none"
         d="m 8902.25,5476.1 668.75,15.6 c 0,0 67.66,-70.2 0,-130.1 l -655.74,-36.4 -13.01,150.9" /><path
         id="path208"
         style="fill:#ccccc9;fill-opacity:1;fill-rule:nonzero;stroke:none"
         d="m 8595.2,5549 386.41,46.8 156.13,-234.2 -316.16,-167.8 c 0,0 -261.52,23.4 -253.71,66.3 7.81,43 27.33,288.9 27.33,288.9" /><path
         id="path210"
         style="fill:#9c9c9b;fill-opacity:1;fill-rule:nonzero;stroke:none"
         d="m 8821.58,5338.2 316.16,23.4 c 0,0 -593.29,-800.1 -796.26,-940.7 -202.96,-140.5 -593.29,-154.8 -593.29,-154.8 l 386.42,338.3 686.97,733.8" /><path
         id="path212"
         style="fill:#9c9c9b;fill-opacity:1;fill-rule:nonzero;stroke:none"
         d="m 1947.98,4867.9 c 5.86,17.5 -99.53,146.3 -99.53,146.3 l 2884.83,470.2 458.29,-83.7 c 0,0 5.86,-23.5 -23.42,-58.6 -29.27,-35.1 -3144.06,-548.4 -3144.06,-548.4 l -76.11,74.2" /><path
         id="path214"
         style="fill:#9c9c9b;fill-opacity:1;fill-rule:nonzero;stroke:none"
         d="m 5278.17,7059.7 c 0,0 217.86,-1354.6 457.9,-1752.7 240.05,-398.2 659.65,-462.5 1126.09,-567.9 466.43,-105.4 1170.97,-134.7 1170.97,-134.7 0,0 -31.23,-105.4 -171.74,-181.5 -140.52,-76.1 -685.02,-29.3 -907.51,0 -222.48,29.3 -1247.08,245.9 -1352.47,298.6 -105.38,52.7 -281.03,140.5 -292.74,204.9 -11.71,64.4 -199.07,454.5 -210.78,558 -11.71,103.6 -271.05,1380 -284.82,1415.1 -13.77,35.1 10.38,292.6 38.92,291.2 28.54,-1.5 426.18,-131 426.18,-131" /><path
         id="path216"
         style="fill:#b9b8b7;fill-opacity:1;fill-rule:nonzero;stroke:none"
         d="m 4676.34,5342.1 257.62,644 93.68,-614.7 -351.3,-29.3 M 8595.19,5549 c 0,0 -484,-835.3 -827.48,-975.8 -343.49,-140.5 -1592.52,109.3 -1889.17,242 -296.64,132.7 -538.65,489.2 -663.55,958.9 -124.9,469.7 -304.46,1306.9 -304.46,1306.9 0,0 1481.28,-87.8 1510.56,-76.1 29.27,11.7 64.4,339.6 64.4,339.6 l -1777.92,-62.5 46.84,-288.8 -749.42,-1764.3 -1709.62,-281 -124.91,-374.7 2974.27,476.2 c 0,0 166.78,-359.1 559.59,-507.5 392.8,-148.3 1641.84,-320 2086.81,-265.4 444.97,54.7 1030.45,1061.7 1030.45,1061.7 L 8595.19,5549" /><path
         id="path218"
         style="fill:#7e7f81;fill-opacity:1;fill-rule:nonzero;stroke:none"
         d="m 4598.5,7907 112.97,-439.6 316.17,37.2 -52.7,343.4 c 0,0 -181.5,82 -204.92,52.7 -23.42,-29.3 -171.52,6.3 -171.52,6.3" /><path
         id="path220"
         style="fill:#5b5c5e;fill-opacity:1;fill-rule:nonzero;stroke:none"
         d="m 4611.94,7504.6 c 0,0 -52.69,-230.4 29.28,-288.9 81.96,-58.6 2172.14,-46.9 2172.14,-46.9 v 503.5 l -743.56,146.4 -1109.36,-262.6 -348.5,-51.5" /><path
         id="path222"
         style="fill:#fbc398;fill-opacity:1;fill-rule:nonzero;stroke:none"
         d="m 7393,8702.8 c 0,0 429.35,-85.9 640.13,-288.8 210.77,-203 741.61,-2209.3 741.61,-2209.3 l -484,-218.6 c 0,0 -171.74,203 -491.81,530.9 -320.06,327.9 -234.19,1194.4 -234.19,1194.4 l -366.91,7.8 c 0,0 -507.41,420.9 -507.41,518.8 0,97.9 78.66,249.2 101.78,255.5 23.12,6.3 296.34,174.2 296.34,174.2 l 304.46,35.1" /><path
         id="path224"
         style="fill:#dc9b70;fill-opacity:1;fill-rule:nonzero;stroke:none"
         d="m 6946.89,8620.7 c 0,0 254,-139.5 335.94,-382.7 81.93,-243.2 281.91,-526.6 281.91,-526.6 l -366.91,7.8 -335.67,406.7 84.73,494.8" /><path
         id="path226"
         style="fill:#5b5c5e;fill-opacity:1;fill-rule:nonzero;stroke:none"
         d="m 3865.74,10897.7 c 0,0 61.18,-1305 143.15,-1843.6 81.97,-538.7 403.72,-1393.5 471.18,-1428.6 67.46,-35.1 571.91,128.8 571.91,128.8 l -47.77,2119.5 -450.36,690.8 -688.11,333.1" /><path
         id="path228"
         style="fill:#fbc398;fill-opacity:1;fill-rule:nonzero;stroke:none"
         d="m 5691.19,8062.7 495.7,-519.2 h 409.84 c 0,0 -70.25,-565.9 117.1,-862.6 187.36,-296.6 593.29,-718.2 788.46,-944.6 195.16,-226.3 226.39,-288.8 226.39,-288.8 l 304.45,343.5 c 0,0 -288.84,476.2 -398.13,905.5 -109.29,429.4 -320.07,780.7 -366.91,952.4 -46.84,171.8 46.84,608.9 -273.22,804.1 -320.07,195.2 -726.01,195.2 -807.98,124.9 -81.96,-70.3 -495.7,-515.2 -495.7,-515.2" /><path
         id="path230"
         style="fill:#252323;fill-opacity:1;fill-rule:nonzero;stroke:none"
         d="m 4582.67,8667.7 c 0,0 -140.52,-831.4 199.06,-1042.2 339.58,-210.8 1405.16,-82 1405.16,-82 0,0 -42.93,370.8 66.36,667.5 109.29,296.6 273.23,335.7 273.23,335.7 l 468.39,-93.7 c 0,0 148.32,203 398.13,249.8 l -1206.11,175.6 c 0,0 -1003.13,113.2 -1057.77,89.8 -54.65,-23.4 -546.45,-300.5 -546.45,-300.5" /><path
         id="path232"
         style="fill:#ccccc9;fill-opacity:1;fill-rule:nonzero;stroke:none"
         d="m 1655.24,4739.1 515.22,-165.9 124.91,374.7 -446.92,66.3 -193.21,-275.1" /><path
         id="path234"
         style="fill:#5b5c5e;fill-opacity:1;fill-rule:nonzero;stroke:none"
         d="m 7982.38,5299.2 c 0,0 -46.83,-82 19.52,-136.6 0,0 494.41,27.3 494.41,31.2 0,3.9 0,131.4 0,131.4 l -513.93,-26" /><path
         id="path236"
         style="fill:#5b5c5e;fill-opacity:1;fill-rule:nonzero;stroke:none"
         d="m 8690.67,5274.7 c 0,-79.6 -48.17,-144.1 -107.58,-144.1 -59.43,0 -107.6,64.5 -107.6,144.1 0,79.6 48.17,144.2 107.6,144.2 59.41,0 107.58,-64.6 107.58,-144.2" /><path
         id="path238"
         style="fill:#f2b68b;fill-opacity:1;fill-rule:nonzero;stroke:none"
         d="m 8085.17,5361.6 c -1,3 1.81,12.3 7.23,25.7 -4.47,-15.9 -7.23,-25.7 -7.23,-25.7" /><path
         id="path240"
         style="fill:#f6e3d7;fill-opacity:1;fill-rule:nonzero;stroke:none"
         d="m 8211.57,5721.8 c -7.75,0 -16.58,0.5 -26.08,1.5 v 0 h 45.83 c -5.19,-1 -11.93,-1.5 -19.75,-1.5" /><path
         id="path242"
         style="fill:#f2b68b;fill-opacity:1;fill-rule:nonzero;stroke:none"
         d="m 8092.4,5387.3 c 16.78,59.5 57.59,204.8 66.51,239.8 11.15,43.7 26.23,95 26.58,96.2 9.5,-1 18.33,-1.5 26.08,-1.5 7.82,0 14.56,0.5 19.75,1.5 v 0 c 0,0 9.98,-54.6 -21.24,-106.7 -25.26,-42 -94.77,-172.7 -117.68,-229.3" /><path
         id="path244"
         style="fill:#e7a97d;fill-opacity:1;fill-rule:nonzero;stroke:none"
         d="m 8400.52,5669.9 c -0.19,0 -0.36,0 -0.49,0.1 -7.8,1.9 105.39,117.1 96.28,160 -9.11,42.9 -42.62,51.9 -42.62,51.9 l 42.62,21 c 0,0 57.9,-94.4 32.53,-137.3 -24.93,-42.2 -117.69,-95.7 -128.32,-95.7" /><path
         id="path246"
         style="fill:#e7a97d;fill-opacity:1;fill-rule:nonzero;stroke:none"
         d="m 8630.86,5823.2 c -0.19,0 -0.37,0.3 -0.54,1 -0.28,1.1 0.62,3.4 2.22,6.9 -0.49,-5.1 -1.11,-7.9 -1.68,-7.9 m 1.68,7.9 c 1.26,13 1.63,40.6 -2.22,71.8 -5.85,47.5 -47.23,62.6 -47.23,62.6 l 48.53,7.6 c 44.56,-62.9 10.44,-121.5 0.92,-142" /><path
         id="path248"
         style="fill:#e7a97d;fill-opacity:1;fill-rule:nonzero;stroke:none"
         d="m 8710.35,5863.2 c 23.42,76.1 0,150.3 0,150.3 l 33.16,-9.1 c 21.47,-100.9 -33.16,-141.2 -33.16,-141.2" /><path
         id="path250"
         style="fill:#e7a97d;fill-opacity:1;fill-rule:nonzero;stroke:none"
         d="m 8821.58,5898.1 c 35.13,87.7 0,140.1 0,140.1 l 31.14,38.9 c 29.19,-141.4 -31.14,-179 -31.14,-179" /><path
         id="path252"
         style="fill:#dc9b70;fill-opacity:1;fill-rule:nonzero;stroke:none"
         d="m 9511.15,5744.1 c -12.83,-2.1 98.88,79.1 98.88,154 0,0 142.01,116.3 142.57,245.3 l 18.77,-48 c 0,0 -26.02,-122.3 -106.69,-221.2 0,0 -44.24,-111.8 -153.53,-130.1" /><path
         id="path254"
         style="fill:#3970c1;fill-opacity:1;fill-rule:nonzero;stroke:none"
         d="m 3821.53,10782.1 c 0,0 247.43,-556.3 501.24,-931.1 253.81,-374.7 236.48,-1083 248.19,-1129.8 11.71,-46.9 11.71,-46.9 11.71,-46.9 0,0 667.45,58.6 995.32,93.7 327.87,35.1 608.9,117.1 608.9,117.1 0,0 -167.83,1463.7 -167.83,1573 0,109.3 78.06,287.1 0,608 -78.07,321 -148.33,524 -148.33,524 0,0 -546.45,171.7 -757.22,608.9 -210.78,437.1 -843.1,-175.1 -843.1,-175.1 l -448.88,-1241.8" /><path
         id="path256"
         style="fill:#fbc398;fill-opacity:1;fill-rule:nonzero;stroke:none"
         d="m 5040.73,12040.5 98.39,-8.2 c 0,0 403.98,-422.1 298.59,-802.6 -105.39,-380.6 -673.31,480.1 -696.72,591.3 -23.43,111.2 -163.35,271.6 -194.75,358.6 -31.42,87 494.49,-139.1 494.49,-139.1" /><path
         id="path258"
         style="fill:#656769;fill-opacity:1;fill-rule:nonzero;stroke:none"
         d="m 2843.99,12410.1 c 0,419.3 -216.7,759.2 -484,759.2 h -224.95 l -23.42,-58.6 0.77,-48.2 c -141.56,-132.5 -236.4,-375.1 -236.4,-652.4 0,-291 104.4,-543.7 257.64,-671.2 l 1.41,-88 h 259.89 c 0,0 0.24,0.8 0.66,2.1 250.68,28.6 448.4,356.6 448.4,757.1" /><path
         id="path260"
         style="fill:#7c7d7f;fill-opacity:1;fill-rule:nonzero;stroke:none"
         d="m 2619.04,12410.1 c 0,-419.3 -216.69,-759.2 -484,-759.2 -267.31,0 -484,339.9 -484,759.2 0,419.3 216.69,759.2 484,759.2 267.31,0 484,-339.9 484,-759.2" /><path
         id="path262"
         style="fill:#dc9b70;fill-opacity:1;fill-rule:nonzero;stroke:none"
         d="m 5038.61,12528.7 -111.59,-368.6 -559.03,368.6 c 0,0 42.79,-354.4 242,-427.3 229.16,-83.9 394.92,-86 430.5,-69.3 l -1.88,496.6" /><path
         id="path264"
         style="fill:#252323;fill-opacity:1;fill-rule:nonzero;stroke:none"
         d="m 4862.01,13656 c -204.68,57.8 -389.53,-8 -483.4,-57 -93.85,-49.1 -241.01,-148.9 -241.02,-148.9 -37.85,-26.9 -75.8,-56.5 -94.46,-90.7 -29.83,-54.7 -26.46,-99.6 -26.46,-99.6 0,0 -137.54,-59.4 -102.92,-260.7 34.63,-201.4 127.99,-368.3 199.11,-467.9 71.12,-99.6 181.96,-121.1 181.96,-121.1 l 52.73,198.3 c 0,0 249.98,382.7 255.31,406.4 5.33,23.7 366.01,210.9 366.01,210.9 l 82.44,71 c 0,0 13.1,136.7 -76.36,259.6 -28.08,38.6 -69.43,72 -112.94,99.7" /><path
         id="path266"
         style="fill:#fbc398;fill-opacity:1;fill-rule:nonzero;stroke:none"
         d="m 4980.94,13354.7 c 0,0 55.32,-40.3 70.37,-58 15.05,-17.7 76.22,-200.6 93,-246.5 16.78,-45.9 23.35,-112.9 30.01,-135.5 6.66,-22.6 50.52,-160.6 60.47,-216.8 9.94,-56.1 11.71,-285.1 8.51,-346.8 -3.2,-61.6 -10.13,-144 -32.86,-167.1 -22.73,-23.1 -140.2,-64.2 -255.18,-63.6 -114.99,0.7 -363.07,80.2 -440.67,137.8 -77.6,57.5 -115.34,213.7 -115.34,213.7 0,0 -40.22,-25 -98.82,7 -58.6,32 -159.91,108.8 -176.78,221.9 -16.87,113.1 77.7,98.3 132.83,67 55.14,-31.4 76.19,-97.4 85.68,-96.2 9.51,1.2 17.67,6.8 21.76,9.7 4.08,2.8 -7.64,120.7 -12.79,143.8 -5.14,23.1 -49.63,157.6 -47.94,163 1.69,5.5 74.19,174.4 106.42,198.6 32.24,24.3 571.33,168 571.33,168" /><path
         id="path268"
         style="fill:#fbc398;fill-opacity:1;fill-rule:nonzero;stroke:none"
         d="m 4635.36,12023.9 c 0,0 -17.93,184.7 -84.29,332.5 -66.36,147.7 -113.19,402.6 -97.58,574.3 15.61,171.7 101.48,546.5 42.94,726 -58.55,179.6 -257.62,452.8 -421.56,425.5 -163.93,-27.4 -491.8,-402.1 -550.35,-511.4 -58.55,-109.3 -351.29,-741.6 -351.29,-741.6 l 265.42,-121 c 58.55,85.9 260.29,296.7 260.29,296.7 0,0 9.03,-121 -26.1,-199.1 -35.13,-78.1 -33.66,-138.6 -33.66,-138.6 5.06,-292.3 68.19,-546.8 68.19,-546.8 0,0 -115.36,-624 -0.6,-981.2 114.77,-357.1 114.77,-357.1 114.77,-357.1 0,0 438.85,11.7 658.53,409.8 219.7,398.2 155.29,832 155.29,832" /><path
         id="path270"
         style="fill:#fbc398;fill-opacity:1;fill-rule:nonzero;stroke:none"
         d="m 3173.23,12829.2 c 0,0 -121,-233.2 -136.62,-284.4 -15.61,-51.3 11.71,-236.7 0,-283.5 -11.71,-46.9 -40.98,-72.2 -40.98,-72.2 0,0 29.27,-37.1 62.45,-39 33.18,-2 52.7,15.6 52.7,15.6 0,0 37.08,-39.1 91.72,-29.3 54.64,9.8 70.26,21.5 70.26,21.5 0,0 68.3,-25.4 101.48,-7.8 33.18,17.5 52.7,35.1 52.7,35.1 0,0 52.69,-29.3 85.87,21.5 33.18,50.7 37.08,168.7 25.37,203.4 -11.71,34.7 -99.53,298.1 -99.53,298.1 l -91.73,140.5 -173.69,-19.5" /><path
         id="path272"
         style="fill:#dc9b70;fill-opacity:1;fill-rule:nonzero;stroke:none"
         d="m 3173.23,12329.6 c 0,0 -11.71,-83.9 -62.45,-163.9 l 31.22,-21.2 c 0,0 66.35,97.3 31.23,185.1" /><path
         id="path274"
         style="fill:#dc9b70;fill-opacity:1;fill-rule:nonzero;stroke:none"
         d="m 3272.76,12157.9 c 0,0 48.79,70.2 40.98,148.3 0,0 39.58,-71.9 -11.44,-156.9 l -29.54,8.6" /><path
         id="path276"
         style="fill:#dc9b70;fill-opacity:1;fill-rule:nonzero;stroke:none"
         d="m 3426.94,12185.2 c 0,0 27.32,52.7 19.52,103.4 0,0 27.87,-41.8 10.03,-111.6 l -29.55,8.2" /><path
         id="path278"
         style="fill:#dc9b70;fill-opacity:1;fill-rule:nonzero;stroke:none"
         d="m 3698.94,13004.9 c 0,0 186.63,201 274.45,458.6 0,0 42.53,-293 -280.26,-585.6 l 5.81,127" /><path
         id="path280"
         style="fill:#eaac82;fill-opacity:1;fill-rule:nonzero;stroke:none"
         d="m 5776.68,11905 c -94.04,314.9 -286.88,401.2 -286.88,401.2 246.5,-45 286.88,-401.2 286.88,-401.2" /><path
         id="path282"
         style="fill:#dc9b70;fill-opacity:1;fill-rule:nonzero;stroke:none"
         d="m 4367.99,11905 c 0,0 -160.41,-209.7 0,-531.7 0,0 -44.52,349.1 0,531.7" /><path
         id="path284"
         style="fill:#fcd3b9;fill-opacity:1;fill-rule:nonzero;stroke:none"
         d="m 4642.45,11941 c -2.56,52.3 -7.09,82.9 -7.09,82.9 0,0 -17.93,184.7 -84.29,332.5 -66.36,147.7 -113.19,402.6 -97.58,574.3 12.17,133.9 67.06,391.3 62.88,583.2 -0.01,0 -149.53,-491.7 -124.05,-742.9 25.5,-251.3 190.72,-552.9 250.13,-830" /><path
         id="path286"
         style="fill:#abaaa9;fill-opacity:1;fill-rule:nonzero;stroke:none"
         d="m 1448.07,12544.8 c 0,0 -78.07,-82 0,-167.9 h 718.19 c 0,0 66.36,74.2 0,167.9 h -718.19" /></g></g></svg>