<?xml version="1.0" encoding="UTF-8" standalone="no"?>
<svg
   xmlns:dc="http://purl.org/dc/elements/1.1/"
   xmlns:cc="http://creativecommons.org/ns#"
   xmlns:rdf="http://www.w3.org/1999/02/22-rdf-syntax-ns#"
   xmlns:svg="http://www.w3.org/2000/svg"
   xmlns="http://www.w3.org/2000/svg"
   viewBox="0 0 2666.6667 2666.6667"
   height="2666.6667"
   width="2666.6667"
   xml:space="preserve"
   id="svg2"
   version="1.1"><metadata
     id="metadata8"><rdf:RDF><cc:Work
         rdf:about=""><dc:format>image/svg+xml</dc:format><dc:type
           rdf:resource="http://purl.org/dc/dcmitype/StillImage" /></cc:Work></rdf:RDF></metadata><defs
     id="defs6" /><g
     transform="matrix(1.3333333,0,0,-1.3333333,0,2666.6667)"
     id="g10"><g
       transform="scale(0.1)"
       id="g12"><g
         transform="scale(1.22699)"
         id="g14"><path
           id="path16"
           style="fill:none;fill-opacity:1;fill-rule:nonzero;stroke:none"
           d="M 16300,0 H 0 V 16300 H 16300 V 0" /></g><path
         id="path18"
         style="fill:#efb38d;fill-opacity:1;fill-rule:nonzero;stroke:none"
         d="m 2364.05,8061.2 c 0,0 -227.65,-273.6 -374.31,-402.8 -146.66,-129.1 -363.37,-280.2 -363.37,-280.2 0,0 -50.34,-109.4 -166.36,-144.5 -116.01,-35 -376.5,-4.3 -415.9,46 -39.4,50.4 -28.46,229.4 -28.46,229.4 0,0 -40.002,103.3 -1.39,232.5 38.61,129.1 58.31,359 75.82,411.5 17.51,52.5 161.98,380.9 269.24,584.5 107.26,203.5 223.27,442.1 229.84,439.9 6.57,-2.1 262.59,-72.2 262.59,-72.2 l -67.78,-362.6 297.7,154.7 c 0,0 113.83,-182.5 166.36,-335 52.54,-152.4 116.02,-501.2 116.02,-501.2" /><g
         transform="scale(1.05052)"
         id="g20"><path
           id="path22"
           style="fill:#c4c2c1;fill-opacity:1;fill-rule:nonzero;stroke:none"
           d="m 5614.09,4368.81 -191.16,-107.76 c 0,0 -200.02,-100.62 -300.04,-100.62 -100.02,0 -325.05,38.93 -319.5,104.24 5.56,65.2 127.8,104.14 127.8,104.14 L 4922.86,16300 h 491.74 l 8.33,-11422.78 191.16,-508.41" /></g><path
         id="path24"
         style="fill:#dc9b70;fill-opacity:1;fill-rule:nonzero;stroke:none"
         d="m 1632.21,7613.2 c -18.31,-19.8 84.64,312.9 125.5,619 40.86,306.2 26.26,510.5 26.26,510.5 l 123.81,64.3 83.42,-332.8 -55.46,-61.3 c 0,0 -151.77,-636.3 -303.53,-799.7" /><path
         id="path26"
         style="fill:#969797;fill-opacity:1;fill-rule:nonzero;stroke:none"
         d="m 6432.37,5897 h -172.19 v 992.4 h 172.19 V 5897" /><path
         id="path28"
         style="fill:#969797;fill-opacity:1;fill-rule:nonzero;stroke:none"
         d="m 7748.66,5710.2 h -172.2 v 992.4 h 172.2 v -992.4" /><path
         id="path30"
         style="fill:#100f0d;fill-opacity:1;fill-rule:nonzero;stroke:none"
         d="M 5810.71,7960.5 V 6842.7 l 1879.58,-227.7 437.79,116.8 v 980.6 l -2317.37,248.1" /><path
         id="path32"
         style="fill:#373737;fill-opacity:1;fill-rule:nonzero;stroke:none"
         d="m 8128.08,7712.4 -551.62,-124 -1765.75,179.5 v 192.6 l 2317.37,-248.1" /><path
         id="path34"
         style="fill:#a8a8a6;fill-opacity:1;fill-rule:nonzero;stroke:none"
         d="m 8507.5,4055.4 -2810.62,420.9 v 647.3 l 2810.62,-374 v -694.2" /><path
         id="path36"
         style="fill:#252323;fill-opacity:1;fill-rule:nonzero;stroke:none"
         d="m 7194.13,5237.4 v -548.7 l 490.32,-52.5 c 0,0 20.45,179.7 188.26,197.8 v 362.6 l -678.58,40.8" /><path
         id="path38"
         style="fill:#252323;fill-opacity:1;fill-rule:nonzero;stroke:none"
         d="m 6768.01,5371.7 v -390.6 c 0,0 -157.6,11.2 -163.44,-210.6 l -507.84,52.5 v 577.9 l 671.28,-29.2" /><path
         id="path40"
         style="fill:#252323;fill-opacity:1;fill-rule:nonzero;stroke:none"
         d="m 6432.37,5272.5 h -172.19 v 992.3 h 172.19 v -992.3" /><path
         id="path42"
         style="fill:#252323;fill-opacity:1;fill-rule:nonzero;stroke:none"
         d="m 7748.66,5085.7 h -172.2 V 6078 h 172.2 v -992.3" /><path
         id="path44"
         style="fill:#c4c2c1;fill-opacity:1;fill-rule:nonzero;stroke:none"
         d="m 2864.52,10219.6 c -25.43,0 -47.82,11.3 -63.99,32.6 -32,42 -33.22,112.8 -20,143 16.82,38.4 121.51,108 153.19,128.4 l 25.18,-39.1 c -59.52,-38.4 -128.28,-90.9 -135.76,-108 -7.15,-16.3 -5.94,-69.4 14.41,-96.2 8.77,-11.5 19.02,-15.8 33.23,-13.7 41.73,5.9 94.16,139.5 116.45,227.8 l 45.11,-11.4 c -10.51,-41.6 -67.36,-250 -154.98,-262.5 -4.35,-0.6 -8.63,-0.9 -12.84,-0.9" /><path
         id="path46"
         style="fill:#c4c2c1;fill-opacity:1;fill-rule:nonzero;stroke:none"
         d="m 2595.78,9972 c 4.58,-7.8 37.07,-19.7 60.22,-10.9 30.42,13.8 195.03,204.3 208.45,267.6 8.28,39 -5.17,63 -14.33,74.1 -26.75,-12.4 -93.82,-55.3 -108.84,-74.4 -24.25,-30.7 -137.63,-224.6 -145.5,-256.4 z m 41.48,-60.4 c -22.88,0 -46.79,6.5 -63.93,18.5 -15.83,11.1 -24.45,26.1 -24.27,42.3 0.47,40.8 142.66,268.3 155.71,284.8 20.13,25.5 127.09,99.4 155.62,94.7 l 5.3,-0.9 4.38,-3.1 c 2.39,-1.7 58.16,-42.7 39.89,-128.9 -16.55,-77.9 -192.95,-284.6 -237.5,-301.5 -10.58,-4 -22.74,-5.9 -35.2,-5.9" /><path
         id="path48"
         style="fill:#252323;fill-opacity:1;fill-rule:nonzero;stroke:none"
         d="m 2522.3,9750.4 c -9.4,22.5 40.94,241.4 40.94,241.4 l 101,-52.5 c 0,0 17.81,-238.6 0,-238.6 -17.82,0 -175.42,-22.6 -175.42,-22.6 l 33.48,72.3" /><path
         id="path50"
         style="fill:#252323;fill-opacity:1;fill-rule:nonzero;stroke:none"
         d="m 7421.69,7691.3 -46.51,0.9 151.76,8151.8 46.51,-0.8 -151.76,-8151.9" /><path
         id="path52"
         style="fill:#252323;fill-opacity:1;fill-rule:nonzero;stroke:none"
         d="M 1448.95,9828.4 3733.6,9629.9 c 0,0 48.15,-83.2 -14.6,-169.3 l -2269.93,196.3 c 0,0 -68.11,54.7 -0.12,171.5" /><path
         id="path54"
         style="fill:#838585;fill-opacity:1;fill-rule:nonzero;stroke:none"
         d="m 2713.23,9718.6 -367.17,31.8 c -11.85,-46.7 -22.48,-113.9 -6.83,-170.4 l 357.68,-31 c -2.2,47 -0.69,111.5 16.32,169.6" /><path
         id="path56"
         style="fill:#797a7b;fill-opacity:1;fill-rule:nonzero;stroke:none"
         d="m 6869.07,9877.5 -30.99,1 200.67,6033.4 203.23,186 -40.18,-5928.1 -31.01,0.2 39.69,5857.1 -141.17,-129.2 -200.24,-6020.4" /><g
         transform="scale(1.03413)"
         id="g58"><path
           id="path60"
           style="fill:#969797;fill-opacity:1;fill-rule:nonzero;stroke:none"
           d="m 7625.55,15779.3 c 0,-287.6 -195.22,-520.7 -436.04,-520.7 -240.82,0 -436.03,233.1 -436.03,520.7 0,287.6 195.21,520.7 436.03,520.7 240.82,0 436.04,-233.1 436.04,-520.7" /></g><g
         transform="scale(1.02214)"
         id="g62"><path
           id="path64"
           style="fill:#969797;fill-opacity:1;fill-rule:nonzero;stroke:none"
           d="m 6254.52,11867.4 h -98.51 V 16300 h 98.51 v -4432.6" /></g><g
         transform="scale(1.02214)"
         id="g66"><path
           id="path68"
           style="fill:#969797;fill-opacity:1;fill-rule:nonzero;stroke:none"
           d="m 7565.15,11066.8 h -98.52 V 16300 h 98.52 v -5233.2" /></g><path
         id="path70"
         style="fill:#373737;fill-opacity:1;fill-rule:nonzero;stroke:none"
         d="m 7084.68,9082.2 h -140.1 v 362.4 h 140.1 v -362.4" /><path
         id="path72"
         style="fill:#969797;fill-opacity:1;fill-rule:nonzero;stroke:none"
         d="m 6392.97,7805 h -100.69 v 4325.1 h 100.69 V 7805" /><path
         id="path74"
         style="fill:#969797;fill-opacity:1;fill-rule:nonzero;stroke:none"
         d="m 7732.61,7691.7 h -100.7 V 11349 h 100.7 V 7691.7" /><path
         id="path76"
         style="fill:#100f0d;fill-opacity:1;fill-rule:nonzero;stroke:none"
         d="m 5897.69,9165.5 v -502 l 1967.72,-105.1 332.72,75.9 v 484.5 l -2150.19,104 -150.25,-57.3" /><path
         id="path78"
         style="fill:#fbc398;fill-opacity:1;fill-rule:nonzero;stroke:none"
         d="m 4249.98,6615 c 0,0 -256.63,-172.2 -455.09,-283.1 -198.46,-110.9 -283.11,-143 -283.11,-143 0,0 224.74,-364.8 221.82,-624.6 -2.92,-259.7 -35.03,-481.6 -67.13,-612.9 -32.1,-131.3 -96.31,-653.8 -70.04,-718 26.26,-64.2 151.76,-248 107.98,-426.1 -43.78,-178 -405.68,-103.6 -459.68,-135.7 -53.99,-32.1 -78.8,-176.6 -161.98,-195.5 -83.18,-19 -167.82,-19 -167.82,-19 0,0 -65.67,-37.9 -121.12,-43.8 -55.46,-5.8 -80.26,27.7 -80.26,27.7 0,0 -40.86,10.2 -51.08,13.2 -10.21,2.9 -36.48,30.6 -36.48,30.6 0,0 -30.64,11.7 -36.48,23.4 -5.84,11.6 -11.68,26.2 -11.68,26.2 0,0 -24.8,14.6 -18.97,52.6 5.84,37.9 112.37,150.3 229.11,197 116.75,46.7 350.23,286 370.66,402.7 20.43,116.8 -175.11,713.6 -218.89,1002.6 -43.78,288.9 -39.4,538.5 -39.4,538.5 0,0 -144.47,376.5 -96.32,634.7 48.16,258.3 245.16,538.5 258.3,556 13.13,17.6 290.39,483.2 290.39,483.2 0,0 587.7,20.2 608.25,-27.9 20.55,-48 289.02,-758.8 289.02,-758.8" /><path
         id="path80"
         style="fill:#dc9b70;fill-opacity:1;fill-rule:nonzero;stroke:none"
         d="m 3211.54,7165.2 c 0,0 302.97,-347.9 434.3,-350.8 131.34,-2.9 208.3,98.9 208.3,98.9 l -584.23,349.5 -58.37,-97.6" /><path
         id="path82"
         style="fill:#fbc398;fill-opacity:1;fill-rule:nonzero;stroke:none"
         d="m 5003.18,6644.2 c 0,0 23.48,-229.1 42.75,-360.5 19.28,-131.3 -9.18,-328.3 41.16,-466.2 50.35,-137.9 126.97,-166.4 183.88,-229.8 56.91,-63.5 561.1,-986.5 750.81,-1298.8 189.7,-312.3 230.56,-537 218.89,-653.8 -11.67,-116.7 -461.14,-490.3 -522.43,-522.4 -61.29,-32.1 -171.46,-118.9 -105.8,-182.4 65.67,-63.5 142.29,-39.4 142.29,-39.4 0,0 26.26,-24.8 61.29,-24.8 35.02,0 70.04,10.2 70.04,10.2 0,0 11.67,-23.4 61.29,-19 49.62,4.4 64.21,10.2 68.59,10.2 4.38,0 43.78,-21.9 68.59,-17.5 24.81,4.4 58.37,11.7 58.37,11.7 0,0 37.94,-36.5 81.72,-20.4 43.78,16 70.04,58.3 83.18,62.7 13.13,4.4 114.55,-26.3 204.3,83.2 89.75,109.4 116.02,135.7 212.33,192.6 96.31,56.9 87.56,181.7 54.72,267.1 -32.83,85.3 -35.02,177.3 -72.23,306.4 -37.21,129.2 -78.08,153.3 -121.86,404.2 -43.77,251.1 -83.57,887.3 -152.69,1115 -69.12,227.6 -393.08,560.3 -480.64,609.9 -87.56,49.7 -201.38,93.4 -201.38,134.3 0,40.9 186.79,277.3 251,487.4 64.21,210.1 -210.14,265.6 -475.73,300.6 -265.6,35 -303.54,75.9 -373.58,29.2 -70.05,-46.7 -148.86,-189.7 -148.86,-189.7" /><path
         id="path84"
         style="fill:#252323;fill-opacity:1;fill-rule:nonzero;stroke:none"
         d="m 3352.71,7262.9 c 0,0 394.9,-216.5 608.25,-400.1 213.35,-183.6 289.02,-247.8 289.02,-247.8 0,0 315.42,274.4 379.62,373.6 64.21,99.2 469.17,437.8 469.17,437.8 0,0 -4.25,-280.2 -52.84,-490.3 -48.58,-210.2 -42.75,-291.9 -42.75,-291.9 0,0 297.7,110.9 998.17,-210.1 0,0 140.09,326.8 215.97,548.7 75.89,221.8 122.19,245.1 125.31,262.6 3.11,17.5 224.39,432 137.37,799.7 -87.03,367.8 -247.76,487.7 -388.18,551.6 -140.42,63.9 -358.98,81.8 -358.98,81.8 0,0 -713.6,-451.5 -928.12,-538.8 -214.51,-87.3 -404.23,-135.5 -484.49,-334.7 -80.25,-199.1 -967.52,-542.1 -967.52,-542.1" /><path
         id="path86"
         style="fill:#100f0d;fill-opacity:1;fill-rule:nonzero;stroke:none"
         d="m 4839.75,7688.9 c 75.88,-29 268.51,-142.9 271.43,-160.4 2.91,-17.5 -12.41,-102.1 -12.41,-102.1 l -352.62,-312 c 0,0 181.32,262.4 182.7,309.1 1.37,46.7 -77.43,84.6 -92.02,119.6 -14.6,35 2.92,145.8 2.92,145.8" /><path
         id="path88"
         style="fill:#3a70c0;fill-opacity:1;fill-rule:nonzero;stroke:none"
         d="m 2720.84,9278.2 c 0,0 164.45,103.2 419.33,150.1 254.87,46.9 742.28,5.6 829.83,0 87.56,-5.6 268.52,-14.4 417.36,-23.1 148.85,-8.8 527.4,-110.9 658.57,-183.9 131.18,-72.9 377.54,-461.1 473.85,-481.6 96.31,-20.4 213.06,-61.2 213.06,-61.2 0,0 -240.79,-407.2 -345.86,-521 -105.07,-113.8 -222.41,-534.1 -341.05,-569.1 -118.63,-35.1 -506.8,-272.9 -506.8,-272.9 0,0 -852.43,134.9 -1126.58,398.2 -274.15,263.4 -449.47,454.9 -647.2,666.1 -197.73,211.1 -44.51,898.4 -44.51,898.4" /><path
         id="path90"
         style="fill:#efb38d;fill-opacity:1;fill-rule:nonzero;stroke:none"
         d="m 2895.96,7820.4 c 0,0 205.76,-293.3 328.34,-310.8 122.58,-17.5 54,462.6 33.57,535.5 -20.43,73 -216.46,94.4 -242.34,70.3 -25.89,-24 -119.57,-295 -119.57,-295" /><path
         id="path92"
         style="fill:#dc9b70;fill-opacity:1;fill-rule:nonzero;stroke:none"
         d="m 2992.28,7840.8 201.38,-151.9 64.21,356.2 c 0,0 49.61,166.4 -52.54,154.7 -102.15,-11.7 -233.48,-99.2 -236.4,-145.9 -2.92,-46.7 23.35,-213.1 23.35,-213.1" /><path
         id="path94"
         style="fill:#fbc398;fill-opacity:1;fill-rule:nonzero;stroke:none"
         d="m 2183.82,8071.4 c 0,0 64.21,-78.1 136.45,-110.9 72.23,-32.9 183.87,-61.3 183.87,-61.3 0,0 107.26,-205.8 137.9,-210.1 30.65,-4.4 102.88,87.5 102.88,87.5 0,0 216.71,-10.9 262.68,2.2 45.96,13.1 165.63,251.7 212.33,394.7 46.69,143.1 145.92,274.4 131.33,420.3 -14.59,145.9 -119.66,178.1 -119.66,178.1 0,0 -502,20.4 -633.34,-35.1 -131.33,-55.4 -344.39,-189.7 -391.09,-347.3 -46.7,-157.6 -23.35,-318.1 -23.35,-318.1" /><g
         transform="scale(1.05293)"
         id="g96"><path
           id="path98"
           style="fill:#c4c2c1;fill-opacity:1;fill-rule:nonzero;stroke:none"
           d="m 7942.59,3679.53 c 0,0 432.42,-43.12 519.73,0 87.31,43.12 74.84,122.14 62.37,134.57 -12.47,12.45 -108.11,41.6 -108.11,41.6 L 8517.75,16300 H 8041 L 7942.59,3679.53" /></g><path
         id="path100"
         style="fill:#fcd5ba;fill-opacity:1;fill-rule:nonzero;stroke:none"
         d="m 3036.05,8617.2 c 0,0 70.83,63.4 168.55,83.2 97.73,19.7 148.11,-138 148.11,-138 0,0 8.08,75.7 -37.18,139.7 -45.26,63.9 -83.93,69.8 -83.93,69.8 0,0 -105.79,24 -184.6,3.6 -78.8,-20.4 -135.72,1.8 -116.02,-61.9 19.7,-63.6 105.07,-96.4 105.07,-96.4" /><path
         id="path102"
         style="fill:#252323;fill-opacity:1;fill-rule:nonzero;stroke:none"
         d="m 2210.09,8018.9 c 0,0 221.81,122.5 291.86,204.3 70.05,81.7 49.62,96.3 72.97,93.4 23.34,-3 178.03,8.7 189.7,14.5 11.68,5.9 113.83,49.7 113.83,49.7 0,0 218.89,-32.1 233.49,-23.4 14.59,8.8 35.02,23.4 35.02,23.4 0,0 -84.64,119.6 -87.56,169.2 -2.92,49.7 11.67,163.5 67.13,183.9 55.45,20.4 113.72,41 113.72,41 l 52.64,212.9 c 0,0 -148.85,99.3 -186.79,146 -37.94,46.7 -195.55,265.5 -475.73,291.8 -280.18,26.3 -420.28,-148.8 -420.28,-148.8 0,0 -186.79,-52.6 -286.02,-262.7 -99.24,-210.1 -84.64,-627.5 -26.27,-799.7 58.37,-172.2 208.83,-256.8 312.29,-195.5" /><path
         id="path104"
         style="fill:#fbc398;fill-opacity:1;fill-rule:nonzero;stroke:none"
         d="m 3592.05,9002.4 c 0,0 61.28,120.4 89.74,192.6 28.46,72.3 120.39,350.3 116.02,411.6 -4.38,61.3 -143.02,185.3 -156.15,195.5 -13.13,10.2 -40.86,10.2 -40.86,10.2 0,0 -8.75,26.3 -43.78,40.9 -35.02,14.6 -74.42,7.3 -74.42,7.3 0,0 -67.13,30.6 -90.48,32.1 -23.35,1.5 -75.88,-14.6 -75.88,-14.6 0,0 -90.48,7.3 -124.04,-10.2 -33.57,-17.5 -121.13,-145.9 -122.58,-170.7 -1.46,-24.9 26.26,-92 27.72,-96.4 1.46,-4.3 -58.68,-80.2 -67.85,-140.1 -9.18,-59.8 74.42,-254.6 85.36,-272.1 10.95,-17.5 125.51,-212.3 125.51,-212.3 0,0 165.63,-76.7 189.7,-63.5 24.08,13.1 161.99,89.7 161.99,89.7" /><path
         id="path106"
         style="fill:#373737;fill-opacity:1;fill-rule:nonzero;stroke:none"
         d="M 6436.75,9153.8 H 6248.5 v 437.8 h 188.25 v -437.8" /><path
         id="path108"
         style="fill:#373737;fill-opacity:1;fill-rule:nonzero;stroke:none"
         d="M 7793.9,9123.2 H 7605.65 V 9561 h 188.25 v -437.8" /><path
         id="path110"
         style="fill:#373737;fill-opacity:1;fill-rule:nonzero;stroke:none"
         d="m 5897.69,9165.5 2036.3,-108 264.14,61.3 -2150.19,104 -150.25,-57.3" /><path
         id="path112"
         style="fill:#252323;fill-opacity:1;fill-rule:nonzero;stroke:none"
         d="m 7593.97,16230.3 c 0,-36.2 -29.39,-65.6 -65.66,-65.6 -36.27,0 -65.67,29.4 -65.67,65.6 0,36.3 29.4,65.7 65.67,65.7 36.27,0 65.66,-29.4 65.66,-65.7" /><path
         id="path114"
         style="fill:#fbc398;fill-opacity:1;fill-rule:nonzero;stroke:none"
         d="m 3240.36,8976.2 c 0,0 5.83,-499.1 -26.27,-718 -32.11,-218.9 -35.03,-551.6 -35.03,-677.1 0,-125.5 122.59,-420.3 148.86,-467 26.26,-46.7 291.85,-259.8 391.08,-251 99.24,8.7 163.45,73 163.45,73 0,0 248.08,61.2 405.68,180.9 157.61,119.7 251,198.5 251,198.5 0,0 138.63,119.6 178.03,251 39.41,131.3 131.34,402.7 188.26,503.4 56.9,100.7 97.77,313.8 97.77,313.8 0,0 221.81,-46 296.23,174.7 74.43,220.8 -56.91,536 -205.76,623.5 -148.85,87.6 -236.4,118.2 -293.31,131.4 -56.92,13.1 -354.61,33.6 -450.93,-90.5 0,0 -210.14,-119.7 -271.43,-312.3 -61.29,-192.6 -13.13,-551.6 -13.13,-551.6 0,0 -113.82,-203.2 -161.98,-359.9 0,0 -148.85,399.3 -179.5,482.5 -30.64,83.1 -131.33,520.9 -131.33,520.9 l -351.69,-26.2" /><path
         id="path116"
         style="fill:#dc9b70;fill-opacity:1;fill-rule:nonzero;stroke:none"
         d="m 3902.88,7999 c 0,0 80.75,-388.8 78.8,-711.3 0,0 58.37,263.2 29.18,529.3 -29.18,266.1 -54.4,322.7 -54.4,322.7 L 3902.88,7999" /><path
         id="path118"
         style="fill:#dc9b70;fill-opacity:1;fill-rule:nonzero;stroke:none"
         d="m 5117.73,8387 c 7.3,68 15.54,123.5 17.52,144.8 9.44,101.1 59.11,207.9 59.11,207.9 0,0 -137.91,-197 -148.42,-221 -10.52,-24.1 -42.76,-135 -42.76,-135 0,0 52.27,-10.8 114.55,3.3" /><path
         id="path120"
         style="fill:#fcd5ba;fill-opacity:1;fill-rule:nonzero;stroke:none"
         d="m 3999.27,8232.2 c 0.11,0.1 84.58,49.4 124.45,90.2 39.88,40.9 196.51,236 196.51,236 l -192.62,-104.7 c 0,0 -8.76,186.8 0,373.6 5.81,123.9 43.65,220.8 68.52,272.2 -47.82,-50.1 -94.27,-114 -118.14,-189 -61.29,-192.6 -13.13,-551.6 -13.13,-551.6 0,0 -29.94,-53.5 -65.59,-126.7" /><path
         id="path122"
         style="fill:#dc9b70;fill-opacity:1;fill-rule:nonzero;stroke:none"
         d="m 4320.23,8124.9 c 0,0 198.47,37 338.56,182.9 0,0 -40.86,-225.8 -338.56,-182.9" /><path
         id="path124"
         style="fill:#dc9b70;fill-opacity:1;fill-rule:nonzero;stroke:none"
         d="m 5829.15,3085.7 c 0,0 0,0 -60.2,-72.2 -36.02,-43.3 -63.72,-91.8 -80.23,-124 37.29,-7.5 66.01,1.4 66.01,1.4 8.75,47 74.42,194.8 74.42,194.8" /><path
         id="path126"
         style="fill:#dc9b70;fill-opacity:1;fill-rule:nonzero;stroke:none"
         d="m 5877.3,2985 c -29.79,-41.4 -42.3,-87.8 -49.6,-118.5 30.72,1.8 58.36,9.8 58.36,9.8 0,48.9 52.54,190.8 52.54,190.8 0,0 -10.95,-12.1 -61.3,-82.1" /><path
         id="path128"
         style="fill:#dc9b70;fill-opacity:1;fill-rule:nonzero;stroke:none"
         d="m 6152.02,2864.6 c -2.19,67.9 38.31,159.8 38.31,159.8 0,0 -52.54,-68.9 -65.67,-94.1 -6.51,-12.5 -13.53,-45.6 -19.91,-76.5 19.67,3.9 38.15,7.9 38.15,7.9 0,0 6.07,-5.8 16.05,-11.7 -4.37,6 -6.82,11 -6.93,14.6" /><path
         id="path130"
         style="fill:#dc9b70;fill-opacity:1;fill-rule:nonzero;stroke:none"
         d="m 6061.18,3038.6 c 0,0 0,0 -47.06,-65.6 -25.34,-35.4 -33.49,-78.3 -36.01,-112.3 25.43,3.5 34.54,6.8 37.83,6.8 -9.12,46.7 45.24,171.1 45.24,171.1" /><path
         id="path132"
         style="fill:#252323;fill-opacity:1;fill-rule:nonzero;stroke:none"
         d="m 7325.46,9841.2 c 0,-258.7 -136.22,-468.5 -304.26,-468.5 -168.04,0 -304.26,209.8 -304.26,468.5 0,258.7 136.22,468.4 304.26,468.4 168.04,0 304.26,-209.7 304.26,-468.4" /><path
         id="path134"
         style="fill:#797a7b;fill-opacity:1;fill-rule:nonzero;stroke:none"
         d="m 3083.98,10622.4 -25.8,17.2 3645.85,5465.2 25.8,-17.2 -3645.85,-5465.2" /><g
         transform="scale(1.01882)"
         id="g136"><path
           id="path138"
           style="fill:#252323;fill-opacity:1;fill-rule:nonzero;stroke:none"
           d="m 7147.15,15893.9 c 0,-224.2 -151.33,-406 -338.03,-406 -186.69,0 -338.03,181.8 -338.03,406 0,224.3 151.34,406.1 338.03,406.1 186.7,0 338.03,-181.8 338.03,-406.1" /></g><g
         transform="scale(1.04183)"
         id="g140"><path
           id="path142"
           style="fill:#a8a8a6;fill-opacity:1;fill-rule:nonzero;stroke:none"
           d="M 8125.32,16300 H 5358.89 c 0,0 -106.46,-50.4 -140.07,-123.3 -33.62,-72.8 0,-257.7 0,-257.7 h 2902.96 l 3.54,381" /></g><path
         id="path144"
         style="fill:#dc9b70;fill-opacity:1;fill-rule:nonzero;stroke:none"
         d="m 3451.93,9483.7 c 0,0 -20.41,-56.6 -67.11,-66.8 -46.69,-10.2 -210.35,-15 -210.35,-15 l 198.24,88.7 79.22,-6.9" /><path
         id="path146"
         style="fill:#252323;fill-opacity:1;fill-rule:nonzero;stroke:none"
         d="m 3047.73,10733.2 -160.52,-227.7 141.57,-100.9 164.88,261.4 -145.93,67.2" /><path
         id="path148"
         style="fill:#252323;fill-opacity:1;fill-rule:nonzero;stroke:none"
         d="m 3733.6,9629.9 -849.51,73.8 V 9532.8 L 3719,9460.6 c 62.75,86.1 14.6,169.3 14.6,169.3" /><path
         id="path150"
         style="fill:#fbc398;fill-opacity:1;fill-rule:nonzero;stroke:none"
         d="m 3576.72,9649.7 c 0,0 -35.02,-66.3 -61.29,-100.7 -26.26,-34.4 -102.06,-47.5 -102.06,-47.5 0,0 1.4,-50.9 -38.04,-52.3 -39.43,-1.4 -260.48,-63.7 -260.48,-63.7 l -72.18,-9.7 c 0,0 -14.12,66.6 -10.92,96.1 3.21,29.6 65.59,128.8 65.59,128.8 0,0 -26.67,77.4 -27.2,86.8 -0.52,9.6 2.13,19.8 4.41,24.6 2.29,4.9 365.73,21.4 377.4,14.1 11.68,-7.3 124.77,-76.5 124.77,-76.5" /><path
         id="path152"
         style="fill:#dc9b70;fill-opacity:1;fill-rule:nonzero;stroke:none"
         d="m 3097.34,9600.7 c 0,0 248.08,-17.5 280.19,-35 32.1,-17.5 35.84,-64.2 35.84,-64.2 l 13.77,99.2 c 0,0 26.67,83.9 52.74,108.4 26.07,24.4 111.26,119.3 111.26,119.3 0,0 -140.65,-96.3 -152.32,-113.8 -11.68,-17.5 -43.78,-118.2 -52.54,-118.2 -8.75,0 -48.15,-7.3 -55.45,14.5 -7.29,21.9 -7.46,88.6 1.46,102.2 8.92,13.6 106.53,132.8 106.53,132.8 0,0 -118.44,-107.2 -125.62,-117.8 -7.17,-10.6 -17.39,-92.3 -30.52,-98.2 -13.14,-5.8 -68.59,-5.8 -71.51,0 -2.92,5.9 -1.59,80.1 4.31,91.9 5.9,11.7 65.74,132.8 65.74,132.8 0,0 -86.1,-108.7 -94.86,-126.5 -8.75,-17.9 -4.38,-89.4 -18.97,-92.3 -14.59,-3 -81.27,-1.8 -81.27,-1.8 l 11.22,-33.3" /><path
         id="path154"
         style="fill:#efb38d;fill-opacity:1;fill-rule:nonzero;stroke:none"
         d="m 1851.75,9105.3 c 0,0 116.1,109.4 192.71,258.3 76.61,148.8 87.56,240.8 87.56,240.8 0,0 43.78,170.7 37.21,192.6 -6.57,21.9 -164.9,175.9 -202.84,191.9 -37.94,16.1 -65.67,8.8 -65.67,8.8 0,0 -55.45,24.8 -89.02,24.8 -33.56,0 -70.04,-16.1 -70.04,-16.1 0,0 -43.78,1.5 -62.75,-4.4 -18.97,-5.8 -58.38,-30.6 -58.38,-30.6 0,0 -89.01,-11.7 -103.61,-26.3 -14.59,-14.6 -42.32,-180.9 -42.32,-180.9 0,0 -27.72,-70.1 -25.53,-107.3 2.18,-37.2 56.91,-93 56.91,-93 0,0 0,-158.7 28.45,-217.8 28.46,-59.1 54.73,-168.6 54.73,-168.6 0,0 78.8,-146.6 116.02,-140.1 37.21,6.6 146.57,67.9 146.57,67.9" /><path
         id="path156"
         style="fill:#dc9b70;fill-opacity:1;fill-rule:nonzero;stroke:none"
         d="m 1461.43,9725.8 c 0,0 217.48,-14.2 263.44,-29.5 45.97,-15.3 113.83,-52.5 146.66,-67.8 32.84,-15.4 131.34,-52.6 131.34,-52.6 l -124.77,87.6 c 0,0 -100.69,59.1 -102.88,72.2 -2.19,13.1 16.42,95.2 19.7,107.3 3.28,12 84.27,129.1 84.27,129.1 0,0 -113.82,-112.7 -118.2,-123.7 -4.37,-10.9 -12.04,-116 -35.02,-114.9 -22.99,1.1 -90.84,2.2 -91.94,18.6 -1.09,16.5 5.48,70.1 16.42,88.7 10.95,18.6 110.54,159.8 110.54,159.8 0,0 -133.52,-136.8 -137.9,-147.8 -4.38,-10.9 -17.51,-110.5 -31.74,-110.5 -14.23,0 -50.35,-1.1 -51.44,9.8 -1.1,11 3.28,70.1 12.04,83.2 8.75,13.1 55.81,117.1 55.81,117.1 0,0 -80.99,-108.3 -83.18,-113.8 -2.18,-5.5 -12.04,-84.3 -16.41,-88.6 -4.38,-4.4 -33.57,14.2 -33.57,14.2 l -13.17,-38.4" /><path
         id="path158"
         style="fill:#dc9b70;fill-opacity:1;fill-rule:nonzero;stroke:none"
         d="m 1505.98,9563.9 184.6,-59.5 93.39,-162 c 0,0 -110.9,127 -128.41,138.7 -17.51,11.6 -148.32,35 -148.32,35 l -1.26,47.8" /><path
         id="path160"
         style="fill:#252323;fill-opacity:1;fill-rule:nonzero;stroke:none"
         d="m 1784.96,9799.2 442.45,-38.4 v -171.2 l -278.34,24.1 -173.85,122 9.74,63.5" /><path
         id="path162"
         style="fill:#dc9b70;fill-opacity:1;fill-rule:nonzero;stroke:none"
         d="m 3192.79,8758 12.54,-558.2 c 0,0 25.03,179.2 29.24,326.2 4.21,146.9 5.68,248.9 5.68,248.9 l -47.46,-16.9" /><path
         id="path164"
         style="fill:#efb38d;fill-opacity:1;fill-rule:nonzero;stroke:none"
         d="m 12006.1,8866.7 c 0,0 -153.2,-76.2 -232,-156.3 -78.8,-80.1 -148.8,-246.5 -148.8,-246.5 0,0 -236.4,-113.8 -341.5,-402.7 0,0 -317.4,-17.5 -459.7,-65.7 -142.3,-48.1 -457.5,-105.1 -457.5,-105.1 l -45.9,-332.7 c 0,0 589.5,-216 805.5,-213 216,2.9 420.3,29.2 458.2,35 37.9,5.8 620.7,541.8 620.7,541.8 0,0 33.2,783.2 -17.9,841.6 -51.2,58.4 -181.1,103.6 -181.1,103.6" /><path
         id="path166"
         style="fill:#fde5d4;fill-opacity:1;fill-rule:nonzero;stroke:none"
         d="m 11774.7,8710.9 c 0,0.1 0.1,0.1 0.1,0.2 0,-0.1 -0.1,-0.1 -0.1,-0.2 m 0.5,0.6 c 0.1,0.1 0.1,0.1 0.2,0.2 -0.1,-0.1 -0.1,-0.1 -0.2,-0.2 m 0.7,0.7 v 0 0 m 0.6,0.6 c 0.1,0 0.1,0.1 0.1,0.1 0,0 0,-0.1 -0.1,-0.1 m 0.6,0.6 0.1,0.1 -0.1,-0.1 m 0.6,0.6 c 0,0 0.1,0 0.1,0.1 0,-0.1 -0.1,-0.1 -0.1,-0.1 m 0.7,0.6 c 0,0.1 0.1,0.1 0.1,0.1 0,0 -0.1,0 -0.1,-0.1 m 0.6,0.6 c 0,0.1 0.1,0.1 0.1,0.2 0,-0.1 -0.1,-0.1 -0.1,-0.2 m 0.6,0.6 0.1,0.1 -0.1,-0.1 m 0.7,0.7 c 0,0 0,0 0.1,0.1 -0.1,-0.1 -0.1,-0.1 -0.1,-0.1 m 0.6,0.5 c 0,0.1 0.1,0.2 0.1,0.2 0,0 -0.1,-0.1 -0.1,-0.2 m 0.6,0.6 c 0,0.1 0.1,0.1 0.1,0.2 0,-0.1 -0.1,-0.1 -0.1,-0.2 m 1.3,1.3 c 0,0.1 0.1,0.1 0.1,0.1 0,0 -0.1,0 -0.1,-0.1 m 0.6,0.6 c 0.1,0 0.1,0.1 0.1,0.1 0,0 0,-0.1 -0.1,-0.1 m 1.4,1.3 c 0,0 0,0 0.1,0.1 -0.1,-0.1 -0.1,-0.1 -0.1,-0.1 m 0.6,0.5 c 0,0.1 0.1,0.1 0.1,0.2 0,-0.1 -0.1,-0.1 -0.1,-0.2 m 0.7,0.7 v 0 0 m 0.6,0.6 c 0.1,0 0.1,0 0.1,0.1 0,-0.1 0,-0.1 -0.1,-0.1 m 0.6,0.6 c 0.1,0 0.1,0.1 0.2,0.1 -0.1,0 -0.1,-0.1 -0.2,-0.1 m 0.7,0.6 c 0.1,0 0.1,0 0.1,0.1 0,-0.1 0,-0.1 -0.1,-0.1 m 0.7,0.6 c 0.1,0.1 0.1,0.1 0.1,0.1 0,0 0,0 -0.1,-0.1 m 0.7,0.6 c 0,0.1 0,0.1 0.1,0.1 -0.1,0 -0.1,0 -0.1,-0.1 m 0.6,0.6 0.1,0.1 -0.1,-0.1 m 1.4,1.2 c 0,0.1 0.1,0.1 0.1,0.1 0,0 -0.1,0 -0.1,-0.1 m 0.7,0.7 v 0 0 m 1.3,1.2 c 0.1,0 0.1,0 0.1,0 0,0 0,0 -0.1,0 m 0.7,0.6 c 0,0 0,0 0.1,0 -0.1,0 -0.1,0 -0.1,0" /><path
         id="path168"
         style="fill:#f8caab;fill-opacity:1;fill-rule:nonzero;stroke:none"
         d="m 11283.8,8061.2 c 105.1,288.9 341.5,402.7 341.5,402.7 0,0 70,166.4 148.8,246.5 0.2,0.2 0.4,0.3 0.6,0.5 0,0.1 0.1,0.1 0.1,0.2 0.2,0.1 0.3,0.3 0.4,0.4 0.1,0.1 0.1,0.1 0.2,0.2 0.1,0.1 0.3,0.3 0.5,0.5 v 0 c 0.2,0.2 0.4,0.4 0.6,0.6 0.1,0 0.1,0.1 0.1,0.1 0.2,0.2 0.3,0.3 0.5,0.5 l 0.1,0.1 c 0.2,0.2 0.3,0.3 0.5,0.5 0,0 0.1,0 0.1,0.1 0.2,0.2 0.4,0.4 0.6,0.5 0,0.1 0.1,0.1 0.1,0.1 0.1,0.2 0.3,0.4 0.5,0.5 0,0.1 0.1,0.1 0.1,0.2 0.2,0.1 0.3,0.2 0.5,0.4 l 0.1,0.1 c 0.2,0.2 0.4,0.4 0.6,0.6 0,0 0,0 0.1,0.1 0.1,0.1 0.3,0.3 0.5,0.4 0,0.1 0.1,0.2 0.1,0.2 0.2,0.2 0.3,0.3 0.5,0.4 0,0.1 0.1,0.1 0.1,0.2 0.4,0.4 0.8,0.7 1.2,1.1 0,0.1 0.1,0.1 0.1,0.1 0.2,0.2 0.4,0.3 0.5,0.5 0.1,0 0.1,0.1 0.1,0.1 0.5,0.4 0.9,0.8 1.3,1.2 0,0 0,0 0.1,0.1 0.1,0.1 0.3,0.3 0.5,0.4 0,0.1 0.1,0.1 0.1,0.2 0.2,0.1 0.4,0.3 0.6,0.5 v 0 c 0.2,0.2 0.4,0.4 0.6,0.6 0.1,0 0.1,0 0.1,0.1 0.2,0.1 0.4,0.3 0.5,0.5 0.1,0 0.1,0.1 0.2,0.1 0.2,0.2 0.4,0.3 0.5,0.5 0.1,0 0.1,0 0.1,0.1 0.2,0.2 0.4,0.3 0.6,0.5 0.1,0.1 0.1,0.1 0.1,0.1 0.2,0.2 0.4,0.3 0.6,0.5 0,0.1 0,0.1 0.1,0.1 0.2,0.2 0.3,0.3 0.5,0.5 l 0.1,0.1 c 0.4,0.4 0.9,0.8 1.3,1.1 0,0.1 0.1,0.1 0.1,0.1 0.2,0.2 0.4,0.4 0.6,0.6 v 0 c 0.5,0.4 0.9,0.8 1.3,1.2 0.1,0 0.1,0 0.1,0 0.2,0.2 0.4,0.4 0.6,0.6 0,0 0,0 0.1,0 51.3,45.5 121.3,87.8 166.5,113.1 -19.6,-46.3 -29,-79.3 -29,-79.3 -29.2,-20.4 -84.6,-54.4 -160.5,-149.8 -75.9,-95.4 -145.9,-308.4 -145.9,-308.4 v 75.9 c 0,0 -55.5,-17.5 -146,-110.9 -90.4,-93.4 -195.5,-208.7 -195.5,-208.7" /><g
         transform="scale(1.00918)"
         id="g170"><path
           id="path172"
           style="fill:#969797;fill-opacity:1;fill-rule:nonzero;stroke:none"
           d="m 16300,5843.33 h -170.6 v 983.37 h 170.6 v -983.37" /></g><g
         transform="scale(1.08994)"
         id="g174"><path
           id="path176"
           style="fill:#969797;fill-opacity:1;fill-rule:nonzero;stroke:none"
           d="m 16300,5239.01 h -158 v 910.51 h 158 v -910.51" /></g><g
         transform="scale(1.00918)"
         id="g178"><path
           id="path180"
           style="fill:#252323;fill-opacity:1;fill-rule:nonzero;stroke:none"
           d="m 16300,5224.52 h -170.6 v 983.27 h 170.6 v -983.27" /></g><g
         transform="scale(1.08994)"
         id="g182"><path
           id="path184"
           style="fill:#252323;fill-opacity:1;fill-rule:nonzero;stroke:none"
           d="m 16300,4666.04 h -158 v 910.42 h 158 v -910.42" /></g><g
         transform="scale(1.07919)"
         id="g186"><path
           id="path188"
           style="fill:#252323;fill-opacity:1;fill-rule:nonzero;stroke:none"
           d="m 16159.3,7126.92 -43,0.83 140.6,7553.65 43.1,-0.8 -140.7,-7553.68" /></g><g
         transform="scale(1.05888)"
         id="g190"><path
           id="path192"
           style="fill:#797a7b;fill-opacity:1;fill-rule:nonzero;stroke:none"
           d="m 16244.3,12084.8 -29.3,0.5 54.5,3050.3 -133.1,-121.9 -173.3,-2911.6 -29.2,1.8 174,2923.4 192.1,175.9 -0.6,-34.1 -55.1,-3084.3" /></g><g
         transform="scale(1.0492)"
         id="g194"><path
           id="path196"
           style="fill:#373737;fill-opacity:1;fill-rule:nonzero;stroke:none"
           d="m 16300,11215.8 h -133.5 v 345.4 h 133.5 v -345.4" /></g><g
         transform="scale(1.00677)"
         id="g198"><path
           id="path200"
           style="fill:#969797;fill-opacity:1;fill-rule:nonzero;stroke:none"
           d="m 16300,7752.54 h -100 v 3520.16 h 100 V 7752.54" /></g><g
         transform="scale(1.08895)"
         id="g202"><path
           id="path204"
           style="fill:#969797;fill-opacity:1;fill-rule:nonzero;stroke:none"
           d="m 16300,7063.4 h -92.5 v 3358.5 h 92.5 V 7063.4" /></g><g
         transform="scale(1.11751)"
         id="g206"><path
           id="path208"
           style="fill:#100f0d;fill-opacity:1;fill-rule:nonzero;stroke:none"
           d="m 14241.5,10604.8 v -449.2 l 1760.8,-94 297.7,67.9 v 433.5 l -1924,93.1 -134.5,-51.3" /></g><g
         transform="scale(1.02214)"
         id="g210"><path
           id="path212"
           style="fill:#969797;fill-opacity:1;fill-rule:nonzero;stroke:none"
           d="m 16054.9,11867.4 h -98.5 V 16300 h 98.5 v -4432.6" /></g><g
         transform="scale(1.11751)"
         id="g214"><path
           id="path216"
           style="fill:#373737;fill-opacity:1;fill-rule:nonzero;stroke:none"
           d="m 14241.5,10604.8 1822.2,-96.6 236.3,54.8 -1924,93.1 -134.5,-51.3" /></g><g
         transform="scale(1.08895)"
         id="g218"><path
           id="path220"
           style="fill:#969797;fill-opacity:1;fill-rule:nonzero;stroke:none"
           d="m 16300,11006.2 h -92.5 v 4293.7 h 92.5 v -4293.7" /></g><g
         transform="scale(1.09836)"
         id="g222"><path
           id="path224"
           style="fill:#969797;fill-opacity:1;fill-rule:nonzero;stroke:none"
           d="m 16300,14856.6 c 0,-270.7 -183.8,-490.2 -410.6,-490.2 -226.7,0 -410.5,219.5 -410.5,490.2 0,270.8 183.8,490.3 410.5,490.3 226.8,0 410.6,-219.5 410.6,-490.3" /></g><g
         transform="scale(1.06129)"
         id="g226"><path
           id="path228"
           style="fill:#252323;fill-opacity:1;fill-rule:nonzero;stroke:none"
           d="m 16300,15258 c 0,-215.3 -145.3,-389.8 -324.5,-389.8 -179.2,0 -324.5,174.5 -324.5,389.8 0,215.3 145.3,389.8 324.5,389.8 179.2,0 324.5,-174.5 324.5,-389.8" /></g><g
         transform="scale(1.05052)"
         id="g230"><path
           id="path232"
           style="fill:#c4c2c1;fill-opacity:1;fill-rule:nonzero;stroke:none"
           d="m 15149.7,4368.81 -191.1,-107.76 c 0,0 -200,-100.62 -300.1,-100.62 -100,0 -325.1,38.93 -319.5,104.24 5.6,65.2 127.8,104.14 127.8,104.14 l -8.3,11931.19 h 491.8 l 8.3,-11422.78 191.1,-508.41" /></g><g
         transform="scale(1.13649)"
         id="g234"><path
           id="path236"
           style="fill:#a8a8a6;fill-opacity:1;fill-rule:nonzero;stroke:none"
           d="m 16300,3568.35 -2473.1,370.35 v 569.56 L 16300,4179.18 v -610.83" /></g><g
         transform="scale(1.16684)"
         id="g238"><path
           id="path240"
           style="fill:#c4c2c1;fill-opacity:1;fill-rule:nonzero;stroke:none"
           d="m 15752.3,3320.33 c 0,0 390.2,-38.9 468.9,0 78.8,38.91 67.6,110.22 56.3,121.44 -11.3,11.23 -97.6,37.54 -97.6,37.54 l 91.4,11229.49 h -430.2 l -88.8,-11388.47" /></g><g
         transform="scale(1.11321)"
         id="g242"><path
           id="path244"
           style="fill:#100f0d;fill-opacity:1;fill-rule:nonzero;stroke:none"
           d="M 14218.3,7150.91 V 6146.79 l 1688.4,-204.54 393.3,104.92 v 880.87 l -2081.7,222.87" /></g><g
         transform="scale(1.11321)"
         id="g246"><path
           id="path248"
           style="fill:#373737;fill-opacity:1;fill-rule:nonzero;stroke:none"
           d="m 16300,6928.04 -495.5,-111.39 -1586.2,161.25 v 173.01 L 16300,6928.04" /></g><g
         transform="scale(1.00945)"
         id="g250"><path
           id="path252"
           style="fill:#373737;fill-opacity:1;fill-rule:nonzero;stroke:none"
           d="m 16300,11728.4 h -186.5 v 433.7 h 186.5 v -433.7" /></g><g
         transform="scale(1.09271)"
         id="g254"><path
           id="path256"
           style="fill:#373737;fill-opacity:1;fill-rule:nonzero;stroke:none"
           d="m 16300,10806.7 h -172.2 v 400.7 h 172.2 v -400.7" /></g><g
         transform="scale(1.1339)"
         id="g258"><path
           id="path260"
           style="fill:#a8a8a6;fill-opacity:1;fill-rule:nonzero;stroke:none"
           d="m 16300,14976.6 h -2541.8 c 0,0 -97.8,-46.4 -128.6,-113.3 -31,-66.9 0,-236.8 0,-236.8 h 2665.7 l 4.7,350.1" /></g><g
         transform="scale(1.08045)"
         id="g262"><path
           id="path264"
           style="fill:#252323;fill-opacity:1;fill-rule:nonzero;stroke:none"
           d="m 16300,15021.8 c 0,-33.5 -27.2,-60.7 -60.8,-60.7 -33.5,0 -60.7,27.2 -60.7,60.7 0,33.6 27.2,60.8 60.7,60.8 33.6,0 60.8,-27.2 60.8,-60.8" /></g><g
         transform="scale(1.06398)"
         id="g266"><path
           id="path268"
           style="fill:#252323;fill-opacity:1;fill-rule:nonzero;stroke:none"
           d="m 16300,11773.4 c 0,-243.1 -128,-440.3 -286,-440.3 -157.9,0 -285.9,197.2 -285.9,440.3 0,243.2 128,440.3 285.9,440.3 158,0 286,-197.1 286,-440.3" /></g><g
         transform="scale(1.02742)"
         id="g270"><path
           id="path272"
           style="fill:#797a7b;fill-opacity:1;fill-rule:nonzero;stroke:none"
           d="m 11185.2,8492.07 -24.5,17.52 5114.8,7165.81 24.5,-17.5 -5114.8,-7165.83" /></g><g
         transform="scale(1.06129)"
         id="g274"><path
           id="path276"
           style="fill:#252323;fill-opacity:1;fill-rule:nonzero;stroke:none"
           d="m 15667.5,15380.5 c -10.7,-38.5 -16.5,-79.7 -16.5,-122.5 0,-215.3 145.3,-389.8 324.5,-389.8 179.2,0 324.5,174.5 324.5,389.8 0,42.8 -5.8,84 -16.5,122.5 h -616" /></g><g
         transform="scale(1.08895)"
         id="g278"><path
           id="path280"
           style="fill:#969797;fill-opacity:1;fill-rule:nonzero;stroke:none"
           d="M 16207.5,8907.1 V 7063.4 h 92.5 v 1843.7 h -92.5" /></g><g
         transform="scale(1.09755)"
         id="g282"><path
           id="path284"
           style="fill:#252323;fill-opacity:1;fill-rule:nonzero;stroke:none"
           d="m 15681.8,4771.92 v -499.94 l 446.7,-47.83 c 0,0 18.6,163.73 171.5,180.22 v 330.38 l -618.2,37.17" /></g><g
         transform="scale(1.02977)"
         id="g286"><path
           id="path288"
           style="fill:#252323;fill-opacity:1;fill-rule:nonzero;stroke:none"
           d="m 16300,5216.39 v -379.3 c 0,0 -153,10.87 -158.7,-204.52 l -493.1,50.99 v 561.19 l 651.8,-28.36" /></g><path
         id="path290"
         style="fill:#fbc398;fill-opacity:1;fill-rule:nonzero;stroke:none"
         d="m 14265.3,6615 c 0,0 -256.6,-172.2 -455.1,-283.1 -198.4,-110.9 -283.1,-143 -283.1,-143 0,0 224.8,-364.8 221.8,-624.6 -2.9,-259.7 -35,-481.6 -67.1,-612.9 -32.1,-131.3 -96.3,-653.8 -70,-718 26.2,-64.2 151.7,-248 108,-426.1 -43.8,-178 -405.7,-103.6 -459.7,-135.7 -54,-32.1 -78.8,-176.6 -162,-195.5 -83.2,-19 -167.8,-19 -167.8,-19 0,0 -65.7,-37.9 -121.1,-43.8 -55.5,-5.8 -80.3,27.7 -80.3,27.7 0,0 -40.9,10.2 -51.1,13.2 -10.2,2.9 -36.5,30.6 -36.5,30.6 0,0 -30.6,11.7 -36.4,23.4 -5.9,11.6 -11.7,26.2 -11.7,26.2 0,0 -24.8,14.6 -19,52.6 5.8,37.9 112.4,150.3 229.1,197 116.8,46.7 350.2,286 370.7,402.7 20.4,116.8 -175.1,713.6 -218.9,1002.6 -43.8,288.9 -39.4,538.5 -39.4,538.5 0,0 -144.5,376.5 -96.3,634.7 48.1,258.3 245.1,538.5 258.3,556 13.1,17.6 290.4,483.2 290.4,483.2 0,0 587.6,20.2 608.2,-27.9 20.5,-48 289,-758.8 289,-758.8" /><g
         transform="scale(1.03289)"
         id="g292"><path
           id="path294"
           style="fill:#fbc398;fill-opacity:1;fill-rule:nonzero;stroke:none"
           d="m 14540.3,6432.63 c 0,0 22.7,-221.8 41.4,-349.02 18.6,-127.12 -8.9,-317.84 39.8,-451.35 48.8,-133.51 123,-161.1 178,-222.49 55.1,-61.47 543.3,-955.08 726.9,-1257.44 183.7,-302.35 223.3,-519.9 212,-632.98 -11.4,-112.98 -446.4,-474.69 -505.8,-505.77 -59.3,-31.07 -166,-115.11 -102.4,-176.59 63.6,-61.48 137.7,-38.14 137.7,-38.14 0,0 25.4,-24.01 59.4,-24.01 33.9,0 67.8,9.87 67.8,9.87 0,0 11.3,-22.65 59.3,-18.39 48,4.26 62.2,9.87 66.4,9.87 4.3,0 42.4,-21.2 66.4,-16.94 24,4.26 56.5,11.33 56.5,11.33 0,0 36.8,-35.34 79.2,-19.75 42.3,15.49 67.7,56.44 80.4,60.7 12.8,4.26 111,-25.46 197.8,80.55 87,105.92 112.4,131.38 205.7,186.47 93.2,55.09 84.7,175.91 52.9,258.59 -31.7,82.59 -33.9,171.66 -69.9,296.65 -36.1,125.08 -75.6,148.42 -118,391.33 -42.4,243.1 -80.9,859.04 -147.8,1079.49 -66.9,220.35 -380.6,542.46 -465.3,590.48 -84.8,48.12 -195,90.43 -195,130.02 0,39.6 180.8,268.47 243,471.89 62.1,203.4 -203.4,257.14 -460.6,291.02 -257.1,33.89 -293.9,73.49 -361.7,28.27 -67.8,-45.21 -144.1,-183.66 -144.1,-183.66" /></g><g
         transform="scale(1.01733)"
         id="g296"><path
           id="path298"
           style="fill:#252323;fill-opacity:1;fill-rule:nonzero;stroke:none"
           d="m 13140.4,7139.21 c 0,0 388.1,-212.81 597.9,-393.28 209.6,-180.48 284.1,-243.58 284.1,-243.58 0,0 310,269.72 373.2,367.23 63.1,97.51 461.1,430.35 461.1,430.35 0,0 -4.1,-275.43 -51.9,-481.95 -47.8,-206.63 -42.1,-286.93 -42.1,-286.93 0,0 292.7,109.01 981.2,-206.52 0,0 137.7,321.23 212.4,539.35 74.5,218.03 120.1,240.93 123.1,258.13 3.1,17.2 220.6,424.64 135,786.08 -85.5,361.54 -243.5,479.4 -381.5,542.21 -138.1,62.81 -352.9,80.4 -352.9,80.4 0,0 -701.4,-443.81 -912.3,-529.62 -210.9,-85.81 -397.4,-133.19 -476.2,-329 -79,-195.71 -951.1,-532.87 -951.1,-532.87" /></g><path
         id="path300"
         style="fill:#dc9b70;fill-opacity:1;fill-rule:nonzero;stroke:none"
         d="m 13136.2,7014.1 c 0,0 238.6,12.6 297.7,30.1 59.1,17.5 157.2,88.2 157.2,88.2 l -52.1,45.4 -371.8,-112.2 -31,-51.5" /><path
         id="path302"
         style="fill:#100f0d;fill-opacity:1;fill-rule:nonzero;stroke:none"
         d="m 14855.1,7688.9 c 75.9,-29 268.5,-142.9 271.4,-160.4 2.9,-17.5 -12.4,-102.1 -12.4,-102.1 l -352.6,-312 c 0,0 181.3,262.4 182.7,309.1 1.4,46.7 -77.4,84.6 -92,119.6 -14.6,35 2.9,145.8 2.9,145.8" /><path
         id="path304"
         style="fill:#3a70c0;fill-opacity:1;fill-rule:nonzero;stroke:none"
         d="m 12573.3,8996.6 c 0,0 282.9,303.3 537.8,350.2 254.8,46.9 732.3,-46.9 819.9,-52.5 87.5,-5.6 347.3,-43.8 496.1,-52.6 148.9,-8.7 568.6,-125.5 699.8,-198.4 131.2,-73 311.9,-283.1 408.2,-303.6 96.3,-20.4 213.1,-61.2 213.1,-61.2 0,0 -240.8,-407.2 -345.9,-521 -105,-113.8 -225.6,-524.7 -341,-569.1 -299.8,-115.3 -879.3,-186.7 -879.3,-186.7 0,0 -480,48.7 -754.1,312 -274.2,263.4 -449.5,454.9 -647.2,666.1 -197.7,211.1 -207.4,616.8 -207.4,616.8" /><path
         id="path306"
         style="fill:#fbc398;fill-opacity:1;fill-rule:nonzero;stroke:none"
         d="m 13107.3,8897.4 -11.2,113.6 c 0,0 275.9,48.3 407.3,96.5 131.3,48.1 175.1,26.3 183.9,0 8.7,-26.3 -65.7,-397.3 -113.9,-494.2 -48.1,-96.8 -102.1,-471.2 -65.6,-731.6 36.5,-260.4 -277.5,-83.2 -277.5,-83.2 0,0 -385.6,66.8 -427.4,249.5 -41.8,182.8 304.4,849.4 304.4,849.4" /><path
         id="path308"
         style="fill:#dc9b70;fill-opacity:1;fill-rule:nonzero;stroke:none"
         d="m 13266.9,8237.9 c 0,0 5.6,-251.2 -36.6,-439.4 0,0 -186.6,-30.6 -199.7,-24.1 -13.2,6.6 -87.6,132 -78.8,231.3 8.7,99.3 315.1,232.2 315.1,232.2" /><path
         id="path310"
         style="fill:#fbc398;fill-opacity:1;fill-rule:nonzero;stroke:none"
         d="m 12205.1,7921.5 c 0,0 70.7,-72.2 145.6,-98.6 74.8,-26.5 188.5,-45.1 188.5,-45.1 0,0 124.7,-195.7 155.6,-197.4 30.9,-1.7 94.9,96.2 94.9,96.2 0,0 216.8,7.9 261.5,25 44.6,17.1 143.1,265.2 177.2,411.7 34.1,146.5 121.5,286 94.3,430.1 -27.2,144.1 -134.7,167 -134.7,167 0,0 -501.9,-23.3 -627.9,-90 -126,-66.6 -326.6,-218.9 -359.4,-380 -32.8,-161 4.4,-318.9 4.4,-318.9" /><path
         id="path312"
         style="fill:#fcd5ba;fill-opacity:1;fill-rule:nonzero;stroke:none"
         d="m 13006.7,8539.3 c 0,0 65,69.3 160.6,97.5 95.7,28.2 159.6,-124.5 159.6,-124.5 0,0 1.4,76.1 -49.2,135.8 -50.6,59.8 -89.7,62.3 -89.7,62.3 0,0 -107.5,14.7 -184.2,-12.5 -76.7,-27.1 -135.4,-10 -110.2,-71.7 25.2,-61.6 113.1,-86.9 113.1,-86.9" /><path
         id="path314"
         style="fill:#252323;fill-opacity:1;fill-rule:nonzero;stroke:none"
         d="m 12235.8,7871.4 c 0,0 210.3,141.4 273,228.9 62.7,87.5 41.1,100.3 64.6,99.4 23.5,-0.9 176.6,24.2 187.7,31.1 11.1,6.8 109.1,59.3 109.1,59.3 0,0 220.9,-13 234.6,-3 13.8,10 32.9,26.3 32.9,26.3 0,0 -94.7,111.9 -101.9,161 -7.3,49.2 -2.6,163.9 50.9,189 53.4,25.2 101.3,47 101.3,47 l 42.3,220.5 c 0,0 -156.9,85.9 -198.8,129.1 -41.8,43.2 -217.8,247.6 -499.3,249.4 -281.4,1.8 -405.7,-184.8 -405.7,-184.8 0,0 -181.5,-68.6 -262.1,-286.5 -80.6,-218 -29.8,-632.5 43.3,-799 73.1,-166.5 230.4,-237.7 328.1,-167.7" /><path
         id="path316"
         style="fill:#dc9b70;fill-opacity:1;fill-rule:nonzero;stroke:none"
         d="m 15844.5,3085.7 c 0,0 0,0 -60.2,-72.2 -36,-43.3 -63.7,-91.8 -80.2,-124 37.2,-7.5 66,1.4 66,1.4 8.7,47 74.4,194.8 74.4,194.8" /><path
         id="path318"
         style="fill:#dc9b70;fill-opacity:1;fill-rule:nonzero;stroke:none"
         d="m 15892.6,2985 c -29.7,-41.4 -42.2,-87.8 -49.6,-118.5 30.8,1.8 58.4,9.8 58.4,9.8 0,48.9 52.5,190.8 52.5,190.8 0,0 -10.9,-12.1 -61.3,-82.1" /><path
         id="path320"
         style="fill:#dc9b70;fill-opacity:1;fill-rule:nonzero;stroke:none"
         d="m 16167.4,2864.6 c -2.2,67.9 38.3,159.8 38.3,159.8 0,0 -52.6,-68.9 -65.7,-94.1 -6.5,-12.5 -13.5,-45.6 -19.9,-76.5 19.7,3.9 38.1,7.9 38.1,7.9 0,0 6.1,-5.8 16.1,-11.7 -4.4,6 -6.8,11 -6.9,14.6" /><path
         id="path322"
         style="fill:#dc9b70;fill-opacity:1;fill-rule:nonzero;stroke:none"
         d="m 16076.5,3038.6 c 0,0 0,0 -47,-65.6 -25.4,-35.4 -33.5,-78.3 -36.1,-112.3 25.5,3.5 34.6,6.8 37.9,6.8 -9.1,46.7 45.2,171.1 45.2,171.1" /><path
         id="path324"
         style="fill:#fbc398;fill-opacity:1;fill-rule:nonzero;stroke:none"
         d="m 12187.2,7648.2 c 0,0 380.8,90.1 625.9,125.3 245.2,35.2 513.8,23.5 513.8,23.5 0,0 189.6,122.5 297.6,208.7 108,86.1 218.9,159.1 218.9,159.1 0,0 58.4,353.1 286,513.7 227.7,160.5 531.2,171.8 735.5,31.9 204.3,-139.9 239.1,-402.6 198.4,-501.8 -40.8,-99.3 -250.9,-169.3 -250.9,-169.3 0,0 -204.3,-493.3 -286.1,-566.2 -81.7,-73 -443.6,-207.2 -607,-259.8 -163.5,-52.5 -352.5,-66 -352.5,-66 0,0 -67.8,-62.4 -254.6,-79.9 -186.8,-17.5 -312.3,29.2 -312.3,29.2 0,0 -214,23.3 -426.6,75.9 -212.5,52.5 -440.2,169.2 -440.2,169.2 l 54.1,306.5" /><path
         id="path326"
         style="fill:#fcd5ba;fill-opacity:1;fill-rule:nonzero;stroke:none"
         d="m 12526.8,7722.3 c 0,0 562.9,21.9 751.1,17.3 188.3,-4.6 286.8,-8.3 286.8,-8.3 l -118.2,54.1 c 0,0 317.4,269.1 461.8,360 144.5,90.9 168.6,92.5 168.6,92.5 l -168.6,-21.3 76.8,308.4 c -109.5,-165.9 -141.7,-360.2 -141.7,-360.2 0,0 -110.9,-73 -218.9,-159.1 -108,-86.2 -297.6,-208.7 -297.6,-208.7 0,0 -268.6,11.7 -513.8,-23.5 -86.1,-12.4 -189,-31.5 -286.3,-51.2" /><path
         id="path328"
         style="fill:#dc9b70;fill-opacity:1;fill-rule:nonzero;stroke:none"
         d="m 14944.2,8199.8 c 19.9,131.3 25.8,157.6 25.8,157.6 0,0 -134.3,-210.1 -157.6,-318.1 0,0 60.6,20.2 123,54.3 -0.3,25.5 1.8,59.9 8.8,106.2" /><path
         id="path330"
         style="fill:#c4c2c1;fill-opacity:1;fill-rule:nonzero;stroke:none"
         d="m 11376.1,8567.4 c -41.6,-18.8 -153.1,-80.8 -165.4,-106.8 -8.3,-17.5 1.8,-72.9 26.6,-98.8 11.6,-12.1 18.5,-9.2 21.8,-7.8 31.7,13.4 89,124.1 123,205.2 z m -122.8,-261.2 c -17.6,0 -34.9,8 -49.6,23.4 -35.3,36.9 -53,113 -35.1,150.9 23,48.5 192.8,138 215.9,138 h 11.8 l 38.7,-52.7 -4.9,-12.1 c -14.5,-35.8 -90,-216 -152.9,-242.5 -7.9,-3.4 -15.9,-5 -23.9,-5" /><path
         id="path332"
         style="fill:#c4c2c1;fill-opacity:1;fill-rule:nonzero;stroke:none"
         d="m 10930.6,8009.3 c 3.1,-7.7 11.6,-18.5 46.4,-8.9 41,14.3 253.2,302.8 269.7,341.1 3.6,8.6 -7.1,26 -17.7,37.7 -11.6,-0.1 -46.6,-5.1 -109.3,-52.1 -81.7,-61.3 -182,-278.3 -189.1,-317.8 z m 22.9,-59.1 c -49,0 -64.5,35.7 -68.4,48.6 -12.5,40.4 118.8,299.6 206.7,365.5 98.4,73.8 147.2,61.9 156,58.8 l 4.5,-1.6 3.5,-3.3 c 5.4,-5 52.2,-50.2 33.9,-94.5 -12.1,-29.2 -234.8,-349.9 -300.3,-368.1 -13.6,-3.8 -25.5,-5.4 -35.9,-5.4" /><path
         id="path334"
         style="fill:#dc9b70;fill-opacity:1;fill-rule:nonzero;stroke:none"
         d="m 13605.7,7556.3 c 0,0 185.1,-33.9 326.7,0 0,0 -193.8,-159.1 -326.7,0" /><path
         id="path336"
         style="fill:#252323;fill-opacity:1;fill-rule:nonzero;stroke:none"
         d="m 11463.3,8842.4 c 0,0 -192.6,-231.8 -179.5,-238.4 13.1,-6.5 124.8,-120.4 124.8,-120.4 l 197,250.3 -142.3,108.5" /><path
         id="path338"
         style="fill:#252323;fill-opacity:1;fill-rule:nonzero;stroke:none"
         d="m 10889.8,8061.2 c 26.2,-21.4 143,-87.8 143,-87.8 l -87.6,-153 h -160.5 l 105.1,240.8" /><path
         id="path340"
         style="fill:#fbc398;fill-opacity:1;fill-rule:nonzero;stroke:none"
         d="m 12230.2,7658.2 c 0,0 -163,247.6 -171.6,258.5 -8.7,10.9 -43.7,24.1 -43.7,24.1 0,0 -36.1,87.5 -54.2,96.3 -18,8.7 -79.3,24.1 -79.3,24.1 0,0 -39.4,40.8 -96.3,44.5 -57,3.6 -170.8,-44.5 -170.8,-44.5 0,0 -85.4,4.4 -144.5,-28.5 -59.1,-32.8 -96.3,-54.7 -111.6,-78.8 -15.3,-24.1 2.2,-339.3 0,-350.2 -2.2,-11 86.2,-59.1 86.2,-59.1 l 25.4,-54.7 c 0,0 -29.3,-79.6 10.6,-123 39.8,-43.4 142.7,-39 212.7,-41.2 70.1,-2.2 120.4,89.7 186.1,89.7 65.7,0 278,-70.8 278,-70.8 0,0 140.1,38 129.1,119 -10.9,81 -56.1,194.6 -56.1,194.6" /><path
         id="path342"
         style="fill:#dc9b70;fill-opacity:1;fill-rule:nonzero;stroke:none"
         d="m 11461.1,7452.6 c 0,0 98,-21.6 171.9,-39.2 74,-17.7 148.4,-15.9 154.2,0 5.9,15.9 17.6,21.7 52.6,39.2 35,17.6 52.5,96.4 52.5,96.4 0,0 -50.9,5.9 -58.2,6.8 -7.4,0.9 -364.3,-65.9 -364.3,-65.9 l -8.7,-37.3" /><path
         id="path344"
         style="fill:#252323;fill-opacity:1;fill-rule:nonzero;stroke:none"
         d="m 9707.74,7973.4 2337.76,-252.2 c 0,0 43.8,-110.9 -29.1,-186.8 l -2308.66,271.4 c 0,0 -81.71,101.8 0,167.6" /><path
         id="path346"
         style="fill:#fbc398;fill-opacity:1;fill-rule:nonzero;stroke:none"
         d="m 11973.3,7789.7 c 0,0 -96.3,-48.1 -120.4,-83.1 -24.1,-35.1 -1.8,-199.2 -7.3,-214.5 -5.4,-15.4 -58.4,-17.6 -64.9,-21.9 -6.6,-4.4 -6.6,-24.1 -46,-26.3 -39.4,-2.2 -112.4,28.4 -112.4,28.4 0,0 -56.1,8.8 -67.1,13.2 -10.9,4.4 -85.4,4.4 -85.4,4.4 l -25.4,54.7 c 0,0 -77.3,48 -86.1,72.2 -8.8,24.1 -13.2,244.4 -13.2,244.4 0,0 160.5,112.4 172.2,125.5 11.6,13.2 257.5,24.9 306,19 48.6,-5.8 77.8,-27.7 112.8,-81.7 35,-54 37.2,-134.3 37.2,-134.3" /><path
         id="path348"
         style="fill:#dc9b70;fill-opacity:1;fill-rule:nonzero;stroke:none"
         d="m 11714.2,7756.9 c -30.2,-77.6 38.7,-310.2 38.7,-310.2 l 27.8,23.5 c 0,0 -46,268.5 -19.7,323.9 19.7,41.6 62.4,69.2 82.5,80.5 6.7,3.7 10.9,5.6 10.9,5.6 0,0 -98,-14.6 -140.2,-123.3" /><path
         id="path350"
         style="fill:#dc9b70;fill-opacity:1;fill-rule:nonzero;stroke:none"
         d="m 11670.5,7922.5 c 0,0 -51.3,-68.5 -61.3,-110.9 -9.9,-42.3 -4.4,-176.5 0,-217.4 4.4,-40.9 50,-141.6 50,-141.6 l -36.9,19.7 c 0,0 -44.9,88.5 -47.2,113.9 -2.4,25.5 -19.9,148.1 -9.7,193.3 10.2,45.3 105.1,143 105.1,143" /><path
         id="path352"
         style="fill:#dc9b70;fill-opacity:1;fill-rule:nonzero;stroke:none"
         d="m 11530.4,7922.5 c 0,0 -40.8,-70 -51.1,-110.9 -10.2,-40.8 8.8,-321.9 8.8,-321.9 l -18.3,0.2 -25.4,54.7 c 0,0 -21.9,204.3 0,249.5 21.8,45.3 86,128.4 86,128.4" /><path
         id="path354"
         style="fill:#efb38d;fill-opacity:1;fill-rule:nonzero;stroke:none"
         d="m 10511.2,7886.7 c 0,0 -118.3,310.2 -151.2,329.9 -32.8,19.7 -166.3,28.4 -166.3,28.4 0,0 -26.3,26.3 -46,26.3 -19.7,0 -100.7,-17.5 -100.7,-17.5 0,0 -98.47,-10.9 -107.22,-19.7 -8.76,-8.8 -63.49,-63.5 -70.05,-63.5 -6.57,0 -2.19,24.1 -70.05,-13.1 -67.85,-37.2 -105.07,-142.9 -105.07,-150.2 0,-7.4 62.75,-204.4 87.56,-241.6 24.81,-37.2 107.99,-81 107.99,-81 0,0 -56.91,-36.5 -35.02,-70.1 21.89,-33.5 96.31,-70 164.86,-80.2 68.6,-10.2 315.2,26.2 315.2,26.2 0,0 42.4,5.9 97.8,42.4 55.5,36.4 127.5,102.5 127.5,102.5 l -372.6,48.4 c 0,0 -23.4,32.9 -23.4,75.3 0,42.3 11.6,93.7 11.6,93.7 l 335.1,-36.2" /><path
         id="path356"
         style="fill:#dc9b70;fill-opacity:1;fill-rule:nonzero;stroke:none"
         d="m 9890.16,7684.7 c 0,0 68.59,-20.5 103.61,-20.5 35.03,0 87.53,20.5 87.53,20.5 0,0 75.9,-26.3 113.9,0 37.9,26.2 30.8,64.2 30.8,64.2 l 38.9,-5 c 0,0 -11.4,-61.1 -40.6,-85.7 -29.1,-24.6 -131.6,-8.6 -146.8,-11.5 -15.1,-2.9 -41.4,-18.9 -92.49,-14.6 -51.07,4.4 -114.94,36.1 -114.94,36.1 l 20.09,16.5" /><path
         id="path358"
         style="fill:#dc9b70;fill-opacity:1;fill-rule:nonzero;stroke:none"
         d="m 9830.33,8116.6 c 0,0 -58.38,-46.7 -61.29,-106.5 -2.92,-59.8 121.12,-325.4 121.12,-325.4 l -47.64,28.5 c 0,0 -99.75,209.3 -95.37,277.9 4.37,68.6 83.18,125.5 83.18,125.5" /><path
         id="path360"
         style="fill:#dc9b70;fill-opacity:1;fill-rule:nonzero;stroke:none"
         d="m 9974.8,8173.5 c 0,0 -108.76,-103.6 -104.73,-150.3 4.04,-46.7 104.73,-375 104.73,-375 l -26.27,10 c 0,0 -106.53,292.1 -103.61,366.5 2.92,74.4 129.88,148.8 129.88,148.8" /><path
         id="path362"
         style="fill:#dc9b70;fill-opacity:1;fill-rule:nonzero;stroke:none"
         d="m 10133.9,8157.5 c 0,0 -106.6,-64.2 -116.8,-125.5 -10.2,-61.3 64.2,-347.3 64.2,-347.3 l -32.1,-26.5 c 0,0 -90.45,281.8 -74.4,350.4 16.05,68.6 159.1,148.9 159.1,148.9" /><path
         id="path364"
         style="fill:#dc9b70;fill-opacity:1;fill-rule:nonzero;stroke:none"
         d="m 10176.1,7922.9 c 2.4,12 96.4,160.2 96.4,160.2 l -49.4,-165.3 -47,5.1" /><path
         id="path366"
         style="fill:#838585;fill-opacity:1;fill-rule:nonzero;stroke:none"
         d="m 10636.6,7873.2 c -7.2,-46.5 -14.9,-121 -1.5,-176.4 l 328.2,-38.6 c 1.8,52.6 7.3,122.1 23.1,177.2 l -349.8,37.8" /></g></g></svg>