<?xml version="1.0" encoding="UTF-8" standalone="no"?>
<svg
   xmlns:dc="http://purl.org/dc/elements/1.1/"
   xmlns:cc="http://creativecommons.org/ns#"
   xmlns:rdf="http://www.w3.org/1999/02/22-rdf-syntax-ns#"
   xmlns:svg="http://www.w3.org/2000/svg"
   xmlns="http://www.w3.org/2000/svg"
   viewBox="0 0 2666.6667 2666.6667"
   height="2666.6667"
   width="2666.6667"
   xml:space="preserve"
   id="svg2"
   version="1.1"><metadata
     id="metadata8"><rdf:RDF><cc:Work
         rdf:about=""><dc:format>image/svg+xml</dc:format><dc:type
           rdf:resource="http://purl.org/dc/dcmitype/StillImage" /></cc:Work></rdf:RDF></metadata><defs
     id="defs6" /><g
     transform="matrix(1.3333333,0,0,-1.3333333,0,2666.6667)"
     id="g10"><g
       transform="scale(0.1)"
       id="g12"><g
         transform="scale(1.22699)"
         id="g14"><path
           id="path16"
           style="fill:#ffffff;fill-opacity:1;fill-rule:nonzero;stroke:none"
           d="M 16300,0 H 0 V 16300 H 16300 V 0" /></g><path
         id="path18"
         style="fill:#6b6c6e;fill-opacity:1;fill-rule:nonzero;stroke:none"
         d="m 5934.05,15479 911.1,-10810.7 628.89,-74.4 v -115 l -757.37,60.9 -905.7,10929.3 123.08,9.9" /><path
         id="path20"
         style="fill:#6b6c6e;fill-opacity:1;fill-rule:nonzero;stroke:none"
         d="m 4724.05,15645.7 -191.6,-184.8 v -94.7 l 2941.59,236.7 v 81.1 l -1920.49,-162.3 -829.5,124" /><path
         id="path22"
         style="fill:#929292;fill-opacity:1;fill-rule:nonzero;stroke:none"
         d="m 7474.04,15602.9 v -11124 l -757.37,60.9 -905.7,11003.7 1663.07,140.5 z m 304.3,-11543.2 9.02,12208.1 -306.55,-36 -27.06,-252.5 -2921.3,-227.7 v -290.7 l 1021.1,60.8 908.4,-11371.9 h 270.5 v 99.2 l 748.36,-54.1 v -459.8 c 0,0 288.52,-18.1 378.68,36 90.16,54.1 937.7,667.2 937.7,667.2 v 261.5 L 7778.34,4059.7" /><path
         id="path24"
         style="fill:#565759;fill-opacity:1;fill-rule:nonzero;stroke:none"
         d="m 4667.93,11778.2 -65.39,3419.2 7.68,9.5 c 16.02,19.7 157.08,193.6 178.27,214.6 l 46.94,-47.5 c -13.4,-13.2 -105.57,-125.6 -165.69,-199.7 l 64.92,-3394.9 -66.73,-1.2" /><path
         id="path26"
         style="fill:#c37140;fill-opacity:1;fill-rule:nonzero;stroke:none"
         d="m 3603.76,7846.5 c -31.55,-54.1 -81.14,-419.2 -157.78,-649.1 -76.64,-230 -99.18,-275 -99.18,-275 0,0 -45.08,-545.5 -117.22,-919.7 -72.12,-374.2 -67.62,-743.9 -67.62,-743.9 0,0 -356.14,-9 -356.14,0 0,9.1 22.53,193.9 -49.59,374.2 -72.13,180.3 -148.77,545.5 -148.77,604.1 0,58.6 180.32,1532.8 193.85,1568.9 13.52,36 119.67,347 275,284 155.33,-63.1 527.45,-243.5 527.45,-243.5" /><path
         id="path28"
         style="fill:#a45634;fill-opacity:1;fill-rule:nonzero;stroke:none"
         d="m 3238.6,7711.3 c 0,0 -54.1,-293 -132.99,-441.8 -78.89,-148.8 -209.63,-392.9 -308.81,-793.8 -99.18,-400.9 -100.85,-657.1 -100.85,-657.1 l -88.49,418.5 238.93,1474.2 c 0,0 339.41,76.4 365.16,67.6 25.75,-8.7 27.05,-67.6 27.05,-67.6" /><path
         id="path30"
         style="fill:#c37140;fill-opacity:1;fill-rule:nonzero;stroke:none"
         d="m 2242.29,7801.4 c 0,0 4.51,-482.3 0,-631.1 -4.51,-148.8 -207.37,-568 -193.85,-901.6 13.53,-333.6 135.74,-506.5 174.32,-844.6 38.57,-338.1 60.11,-381.7 60.11,-381.7 l 345.3,246.8 c 0,0 5.35,514.4 45.4,802.1 58.88,423 64.62,673.3 64.62,673.3 0,0 99.18,58.6 139.76,270.5 40.57,211.8 22.54,175.8 40.57,211.8 18.03,36.1 149.9,235.1 157.79,464.4 7.88,229.3 -369.67,198.3 -486.89,193.8 -117.21,-4.5 -347.13,-103.7 -347.13,-103.7" /><path
         id="path32"
         style="fill:#252323;fill-opacity:1;fill-rule:nonzero;stroke:none"
         d="m 2309.92,9888.7 c 0,0 -160.79,-175.8 -199.87,-500.4 -39.07,-324.6 33.07,-568 55.6,-730.3 22.54,-162.3 0,-725.8 4.51,-987.3 0,0 193.85,-13.5 464.35,0 270.49,13.5 441.8,40.6 441.8,40.6 h 622.13 c 0,0 45.08,545.5 0,1045.9 -45.09,500.4 -153.28,1104.5 -153.28,1104.5 0,0 -1136.06,94.7 -1163.11,85.6 -27.05,-9 -72.13,-58.6 -72.13,-58.6" /><path
         id="path34"
         style="fill:#565759;fill-opacity:1;fill-rule:nonzero;stroke:none"
         d="m 4606.08,10324.5 c 0,0 7.52,-105.2 0,-124.7 -7.51,-19.5 -78.14,-27 -48.08,-81.1 30.05,-54.1 268.99,-6.1 261.47,48 -7.51,54.1 -82.39,28.6 -86.27,70.7 -3.89,42 -37.46,138.2 -37.46,138.2 l -89.66,-51.1" /><path
         id="path36"
         style="fill:#b5613b;fill-opacity:1;fill-rule:nonzero;stroke:none"
         d="m 3576.71,11529.7 c 0,0 297.55,-378.7 428.29,-563.5 0,0 410.24,-121.7 554.5,-252.5 144.26,-130.7 211.89,-249.4 9.02,-249.4 -202.87,0 -631.15,64.6 -775.41,105.2 -144.26,40.6 -383.2,108.2 -383.2,108.2 0,0 -171.31,180.2 -130.74,365.1 40.58,184.9 76.65,302.1 76.65,302.1 l 220.89,184.8" /><path
         id="path38"
         style="fill:#e9eef1;fill-opacity:1;fill-rule:nonzero;stroke:none"
         d="m 2509.78,12474.9 c -36.07,0 -152.53,39.1 -176.95,27.1 -24.42,-12 -222.78,-126.2 -222.78,-126.2 l 87.16,-819 c 0,0 42.83,-836.3 56.35,-903.9 13.53,-67.6 38.32,-770.9 56.36,-764.2 18.03,6.8 680.73,-284 924.17,-223.1 243.44,60.8 297.55,162.3 311.07,196.1 13.52,33.8 -4.51,784.4 -27.05,969.2 -22.54,184.9 -9.02,396.8 -9.02,396.8 0,0 121.73,76.6 126.23,238.9 4.51,162.3 -31.56,397.8 -135.24,575.3 -103.69,177.6 -344.13,288.8 -344.13,288.8 l -646.17,144.2" /><path
         id="path40"
         style="fill:#c37140;fill-opacity:1;fill-rule:nonzero;stroke:none"
         d="m 2426.9,13068.1 c 0,0 19.77,-316.7 -13.3,-424.9 -33.06,-108.2 -80.77,-141.2 -80.77,-141.2 0,0 630.77,-503.4 901.26,-467.2 83.45,11.2 -78.14,295.9 -78.14,295.9 0,0 -75.13,81.1 -84.15,111.2 -9.02,30 -42.45,231 -42.45,231 l -283.61,532.4 c 0,0 -257,31.4 -278.04,23.2 -21.03,-8.2 -40.8,-160.4 -40.8,-160.4" /><path
         id="path42"
         style="fill:#a45634;fill-opacity:1;fill-rule:nonzero;stroke:none"
         d="m 3099.13,13061.5 -140.16,-272.2 -428.78,232.2 c 0,0 16.86,-203.2 162.18,-288.8 167.17,-98.5 306.75,-67.7 336.98,-59.8 l 69.78,388.6" /><path
         id="path44"
         style="fill:#c37140;fill-opacity:1;fill-rule:nonzero;stroke:none"
         d="m 2110.05,12375.8 c 0,0 -169.81,-21.1 -282.51,-242 -112.71,-220.9 49.59,-541 49.59,-541 0,0 77.34,-622.7 232.92,-856.5 155.58,-233.9 434.29,-320.1 434.29,-320.1 0,0 234.42,-63.1 640.16,-58.6 405.74,4.5 743.85,27 743.85,27 v 302.1 c 0,0 -243.44,-45.1 -518.44,94.7 -275,139.7 -537.04,148.7 -537.04,148.7 0,0 -12.96,311.1 -62.55,414.8 -49.59,103.7 -64.58,139.7 -64.58,139.7 0,0 101.06,234.5 21.97,450.8 -79.11,216.5 -534.58,510.9 -534.58,510.9 l -123.08,-70.5" /><path
         id="path46"
         style="fill:#a45634;fill-opacity:1;fill-rule:nonzero;stroke:none"
         d="m 2670.57,11940 c 0,0 13.53,-162.3 -31.56,-297.6 l 106.73,-157.8 31.76,101.6 -69.24,74.2 c 0,0 11.9,162.4 -37.69,279.6" /><path
         id="path48"
         style="fill:#a45634;fill-opacity:1;fill-rule:nonzero;stroke:none"
         d="m 1877.13,11592.8 c 0,0 57.09,-130.7 323.83,-108.2 0,0 -115.88,-122.4 -307.76,-2.6 l -16.07,110.8" /><path
         id="path50"
         style="fill:#a45634;fill-opacity:1;fill-rule:nonzero;stroke:none"
         d="m 2872.87,10930.1 c 0,0 -157.22,4.5 -296.97,-90.1 0,0 53.4,139.7 292.68,162.2 l 4.29,-72.1" /><path
         id="path52"
         style="fill:#a15032;fill-opacity:1;fill-rule:nonzero;stroke:none"
         d="m 4005,10966.2 c 0,0 -108.2,-45.1 -193.86,-243.4 0,0 -3.05,211.9 144.99,311.1 l 48.87,-67.7" /><path
         id="path54"
         style="fill:#100f0d;fill-opacity:1;fill-rule:nonzero;stroke:none"
         d="m 3346.8,9126.9 c -18.04,-9.1 -193.86,-126.3 -211.89,-153.3 -18.03,-27.1 -58.6,-1262.3 -58.6,-1262.3 h 162.29 l -27.05,1226.2 135.25,189.4" /><path
         id="path56"
         style="fill:#565759;fill-opacity:1;fill-rule:nonzero;stroke:none"
         d="m 4566.26,11457.6 c 0,0 -237.19,-517.7 -290.78,-698.8 -53.58,-181.1 -171.31,-117.2 -171.31,-94.7 0,22.6 225.41,581.6 356.15,793.5 130.74,211.9 180.33,311.1 216.39,315.6 36.07,4.5 36.07,-13.6 54.1,-40.6 18.03,-27.1 -72.13,-978.3 -72.13,-978.3 l -144.26,-63.1 51.84,766.4" /><path
         id="path58"
         style="fill:#565759;fill-opacity:1;fill-rule:nonzero;stroke:none"
         d="m 4104.17,10389.1 23.09,-225.4 c 0,0 -87.7,-105.2 -48.63,-138.2 39.07,-33.1 297.54,30 294.53,78.1 -3,48.1 -108.19,60.1 -111.2,81.2 -3,21 -41.07,228.4 -41.07,228.4 l -116.72,-24.1" /><path
         id="path60"
         style="fill:#c37140;fill-opacity:1;fill-rule:nonzero;stroke:none"
         d="m 4514.42,10691.2 c 0,0 -54.1,-48.1 -63.12,-73.6 -9.01,-25.6 31.56,-42.1 31.56,-42.1 0,0 -40.57,-84.2 31.56,-93.2 0,0 -36.07,-63.1 30.05,-69.1 0,0 -15.02,-75.1 36.07,-93.2 51.09,-18 186.34,-12 210.38,21.1 24.05,33 18.04,72.1 18.04,72.1 0,0 39.06,6 45.07,60.1 6.01,54.1 9.02,75 0,82.6 -9.01,7.6 15.03,35.8 -6.01,78.8 -21.03,43 -48.08,43 -51.09,56.5 -3,13.5 -15.03,56.7 -39.07,93.7 -24.04,37 -91.19,55.1 -91.19,55.1 l -7.99,-85.7 -144.26,-63.1" /><path
         id="path62"
         style="fill:#a45634;fill-opacity:1;fill-rule:nonzero;stroke:none"
         d="m 4718.79,10680.7 -235.93,-105.2 -8.69,-25.6 z" /><path
         id="path64"
         style="fill:#a45634;fill-opacity:1;fill-rule:nonzero;stroke:none"
         d="M 4514.42,10482.3 4781.9,10568 4505,10454 Z" /><path
         id="path66"
         style="fill:#a45634;fill-opacity:1;fill-rule:nonzero;stroke:none"
         d="m 4544.47,10413.2 216.39,27 -218.42,-52.5 z" /><path
         id="path68"
         style="fill:#c6c5c3;fill-opacity:1;fill-rule:nonzero;stroke:none"
         d="m 5238.32,15312.1 c 0,-160.6 -130.19,-290.8 -290.79,-290.8 -160.59,0 -290.77,130.2 -290.77,290.8 0,160.6 130.18,290.8 290.77,290.8 160.6,0 290.79,-130.2 290.79,-290.8" /><path
         id="path70"
         style="fill:#414042;fill-opacity:1;fill-rule:nonzero;stroke:none"
         d="m 5019.34,15321.1 c 0,-42.3 -34.32,-76.6 -76.64,-76.6 -42.33,0 -76.65,34.3 -76.65,76.6 0,42.3 34.32,76.6 76.65,76.6 42.32,0 76.64,-34.3 76.64,-76.6" /><path
         id="path72"
         style="fill:#929292;fill-opacity:1;fill-rule:nonzero;stroke:none"
         d="m 7787.36,16267.8 477.87,-238.9 v 67.6 l 236.68,-13.5 87.91,-54.1 v -175.8 h 121.72 l 108.2,-169.1 v -286.3 l -60.86,-31.5 38.31,-10206.6 V 4699.8 L 7778.34,4059.7 c 0,0 -0.99,1244.2 0,1298.3 1.01,54.1 459.84,1740.2 459.84,1740.2 l 6.76,8585.8 h -81.15 -155.53 l -221.39,-81.1 0.49,664.9" /><path
         id="path74"
         style="fill:#6b6c6e;fill-opacity:1;fill-rule:nonzero;stroke:none"
         d="m 8120.97,15578.1 c 0,0 -67.63,20.3 -85.66,-53 -18.03,-73.3 209.29,-276.1 209.29,-276.1 v 331.6 l -123.63,-2.5" /><path
         id="path76"
         style="fill:#6b6c6e;fill-opacity:1;fill-rule:nonzero;stroke:none"
         d="m 8265.23,16028.9 -20.29,-344.9 h -81.15 l 20.29,385.5 81.15,-40.6" /><path
         id="path78"
         style="fill:#414042;fill-opacity:1;fill-rule:nonzero;stroke:none"
         d="m 7777.9,7080.1 460.39,157.8 128.38,-78.9 422.42,160.1 v -119.5 h 125.32 l 27.05,-2822.1 -1163.56,27 v 2675.6" /><path
         id="path80"
         style="fill:#100f0d;fill-opacity:1;fill-rule:nonzero;stroke:none"
         d="m 2786.35,5216.3 c 0,0 -104.58,-423.5 -40.71,-478.9 63.87,-55.3 250.16,-18.4 346.64,-68.3 96.47,-49.8 533.95,-115.4 688.7,35.7 154.75,151.1 -439.61,425.4 -475.99,467 -36.39,41.6 -74.15,123.4 -102.38,162.7 -28.23,39.3 -134.97,50.7 -134.97,50.7 0,0 -52.4,86.7 -107.5,40.6 -55.11,-46.1 -173.79,-209.5 -173.79,-209.5" /><path
         id="path82"
         style="fill:#f5f6f5;fill-opacity:1;fill-rule:nonzero;stroke:none"
         d="m 3053.01,5386.7 c 0,0 -41.16,-5.8 -48.07,-32.1 -6.91,-26.4 -16.99,-79 -27.2,-105.5 -10.22,-26.5 -182.55,-20.7 -182.55,-20.7 l -6.29,304.2 h 382.41 l 8.1,-176.3 c 0,0 -29.28,16.7 -126.4,30.4" /><path
         id="path84"
         style="fill:#252323;fill-opacity:1;fill-rule:nonzero;stroke:none"
         d="m 2233.77,4965.1 c 0,0 -107.14,-433.9 -41.71,-490.6 65.43,-56.7 256.29,-18.9 355.13,-70 98.85,-51 547.05,-118.3 705.59,36.5 158.54,154.8 -450.38,435.8 -487.66,478.5 -37.28,42.6 -75.96,126.4 -104.89,166.7 -28.92,40.3 -138.28,51.9 -138.28,51.9 0,0 -53.67,88.8 -110.13,41.6 -56.46,-47.2 -178.05,-214.6 -178.05,-214.6" /><path
         id="path86"
         style="fill:#f5f6f5;fill-opacity:1;fill-rule:nonzero;stroke:none"
         d="m 2506.96,5139.6 c 0,0 -42.17,-5.8 -49.25,-32.8 -7.08,-27 -17.4,-80.9 -27.86,-108.1 -10.47,-27.1 -187.02,-21.2 -187.02,-21.2 l -6.46,311.7 h 391.8 l 8.29,-180.7 c 0,0 -30,17.1 -129.5,31.1" /><path
         id="path88"
         style="fill:#c37140;fill-opacity:1;fill-rule:nonzero;stroke:none"
         d="m 3928.35,10686.7 c 0,0 157.79,85.6 175.82,94.7 18.04,9 256.97,0 270.49,-18.1 13.53,-18 20.42,-45.4 44.03,-128.6 23.6,-83.3 -2.57,-158.4 0,-203.5 2.56,-45.1 11.57,-159.3 -36.51,-168.3 -48.09,-9 -270.5,6 -306.56,27.1 -36.06,21 -147.27,94.6 -147.27,94.6 0,0 -108.75,99.2 -102.18,138 6.56,38.8 102.18,164.1 102.18,164.1" /><path
         id="path90"
         style="fill:#252323;fill-opacity:1;fill-rule:nonzero;stroke:none"
         d="m 4806.11,11778.8 c 0,-57.9 -46.93,-104.8 -104.81,-104.8 -57.89,0 -104.82,46.9 -104.82,104.8 0,57.9 46.93,104.8 104.82,104.8 57.88,0 104.81,-46.9 104.81,-104.8" /><path
         id="path92"
         style="fill:#2f1d16;fill-opacity:1;fill-rule:nonzero;stroke:none"
         d="m 3152.02,13695.3 c 0.01,0 19.59,80.4 15.33,121.3 -4.25,40.9 -21.05,52.4 -30.27,86.8 -9.23,34.3 -28.94,64.4 -63.96,79.3 -35.03,15 -81.74,52.3 -112.92,56.9 -31.19,4.6 -81.03,2 -143.43,13.5 -62.41,11.4 -89.09,-20.6 -137.08,-11 -47.99,9.6 -84.4,-9.6 -113.73,-27.4 -29.33,-17.9 -51.35,-23.7 -78.49,-31.4 -27.15,-7.6 -76.84,-47.8 -91.23,-61.2 -14.4,-13.4 -16.24,-12.6 -43.47,-35.7 -21.83,-18.5 -64.6,-99.5 -80.69,-130.9 -31.46,-26.1 -65.68,-74.8 -66.31,-163.1 -1.17,-164 48.95,-309.1 91.02,-397.8 42.08,-88.8 133.85,-175.5 133.85,-175.5 l 62.5,203.2 c 0,0 251.71,266.9 259.27,284.9 7.57,18 319.05,114.8 319.05,114.8 l 75.18,44.4 c 0,0 3,10.8 5.38,28.9" /><path
         id="path94"
         style="fill:#c37140;fill-opacity:1;fill-rule:nonzero;stroke:none"
         d="m 3099.27,13722.2 c 0,0 37.99,-39.6 47.37,-55.8 9.38,-16.1 31.8,-169.3 38.56,-207.9 6.75,-38.7 2.46,-92.5 4.51,-111.3 2.05,-18.8 17.16,-134.1 17.07,-179.8 -0.1,-45.7 -31.15,-227 -42.4,-275.2 -11.26,-48.2 -28.4,-112.4 -49.63,-127.4 -21.23,-15 -119.86,-30.8 -210.61,-14 -90.76,16.7 -275.48,114.7 -328.64,171.2 -53.16,56.4 -60.85,185.2 -60.85,185.2 0,0 -35.3,-14 -77.07,19.5 -41.77,33.6 -110.93,108.6 -108.23,200.4 2.7,91.7 75.3,66.6 114.42,34 39.12,-32.5 46.4,-87.7 54.07,-88.1 7.67,-0.4 14.93,2.9 18.56,4.6 3.63,1.7 11.08,96.5 10.27,115.4 -0.79,19 -16.88,131.6 -14.78,135.6 2.1,4.1 83.31,127.2 112.21,141.8 28.89,14.6 475.17,51.8 475.17,51.8" /><g
         transform="scale(1.10847)"
         id="g96"><path
           id="path98"
           style="fill:#929292;fill-opacity:1;fill-rule:nonzero;stroke:none"
           d="m 15998.9,5614.61 c 8.1,-32.57 0,-1350.25 0,-1350.25 l 301.1,-24.45 v 1472.31 l -301.1,-97.61" /></g><g
         transform="scale(1.09296)"
         id="g100"><path
           id="path102"
           style="fill:#929292;fill-opacity:1;fill-rule:nonzero;stroke:none"
           d="m 16300,5133.29 h -224.8 v 536.16 h 224.8 v -536.16" /></g><g
         transform="scale(1.02729)"
         id="g104"><path
           id="path106"
           style="fill:#6b6c6e;fill-opacity:1;fill-rule:nonzero;stroke:none"
           d="m 13623.1,15230 -186.5,-179.9 v -92.2 l 2863.4,230.4 v 79 l -1869.5,-158 -807.4,120.7" /></g><g
         transform="scale(1.02729)"
         id="g108"><path
           id="path110"
           style="fill:#6b6c6e;fill-opacity:1;fill-rule:nonzero;stroke:none"
           d="m 14800.9,15067.7 886.9,-10523.43 612.2,-72.43 V 4359.9 l -737.3,59.28 -881.6,10638.92 119.8,9.6" /></g><g
         transform="scale(1.10847)"
         id="g112"><path
           id="path114"
           style="fill:#929292;fill-opacity:1;fill-rule:nonzero;stroke:none"
           d="M 15106.4,14076.1 V 4040.63 l -683.3,54.94 -817.1,9926.93 1500.4,126.8 z m 274.5,-10413.65 8.1,11013.55 -276.6,-32.6 -24.3,-227.7 -2635.5,-205.4 V 13948 l 921.2,54.9 819.5,-10259.17 h 244 v 89.49 l 675.1,-48.8 v -414.81 c 0,0 260.4,-16.33 341.7,32.48 81.3,48.8 845.9,601.91 845.9,601.91 v 235.91 l -919.1,-577.46" /></g><path
         id="path116"
         style="fill:#c37140;fill-opacity:1;fill-rule:nonzero;stroke:none"
         d="m 12958.5,9400.4 20.2,47.3 c 0,0 133.1,-95.4 160.1,-143.5 27.1,-48.1 69.1,-189.4 48.1,-264.5 -21,-75.1 -92.1,-162.3 -137.7,-177.3 -45.6,-15.1 -181.3,-30.1 -181.1,-15.1 0.2,15.1 -12.2,279.6 0,324.6 12.3,45.1 90.4,228.5 90.4,228.5" /><path
         id="path118"
         style="fill:#c37140;fill-opacity:1;fill-rule:nonzero;stroke:none"
         d="m 12874.6,7846.5 c -31.6,-54.1 -81.2,-419.2 -157.8,-649.1 -76.6,-230 -99.2,-275 -99.2,-275 0,0 -45.1,-545.5 -117.2,-919.7 -72.1,-374.2 -67.6,-743.9 -67.6,-743.9 0,0 -356.1,-9 -356.1,0 0,9.1 22.5,193.9 -49.6,374.2 -72.2,180.3 -148.8,545.5 -148.8,604.1 0,58.6 180.3,1532.8 193.8,1568.9 13.6,36 119.7,347 275,284 155.4,-63.1 527.5,-243.5 527.5,-243.5" /><path
         id="path120"
         style="fill:#a45634;fill-opacity:1;fill-rule:nonzero;stroke:none"
         d="m 12509.4,7711.3 c 0,0 -54.1,-293 -133,-441.8 -78.9,-148.8 -209.6,-392.9 -308.8,-793.8 -99.2,-400.9 -100.8,-657.1 -100.8,-657.1 l -88.5,418.5 238.9,1474.2 c 0,0 339.4,76.4 365.2,67.6 25.7,-8.7 27,-67.6 27,-67.6" /><path
         id="path122"
         style="fill:#c37140;fill-opacity:1;fill-rule:nonzero;stroke:none"
         d="m 11513.1,7801.4 c 0,0 4.5,-482.3 0,-631.1 -4.5,-148.8 -207.3,-568 -193.8,-901.6 13.5,-333.6 135.7,-506.5 174.3,-844.6 38.6,-338.1 60.1,-381.7 60.1,-381.7 l 345.3,246.8 c 0,0 5.4,514.4 45.4,802.1 58.9,423 64.6,673.3 64.6,673.3 0,0 99.2,58.6 139.8,270.5 40.6,211.8 22.5,175.8 40.6,211.8 18,36.1 149.8,235.1 157.7,464.4 7.9,229.3 -369.6,198.3 -486.8,193.8 -117.3,-4.5 -347.2,-103.7 -347.2,-103.7" /><path
         id="path124"
         style="fill:#252323;fill-opacity:1;fill-rule:nonzero;stroke:none"
         d="m 11648.1,10081.5 c 0,0 -290.4,-361.8 -329.5,-686.4 -39,-324.6 39.7,-649.2 62.3,-811.5 22.5,-162.3 55.6,-651.4 60.1,-912.9 0,0 193.8,-13.5 464.3,0 270.5,13.5 441.8,40.6 441.8,40.6 h 622.2 c 0,0 45,545.5 0,1045.9 -45.1,500.4 -153.3,1104.5 -153.3,1104.5 0,0 -1136.1,94.7 -1163.1,85.6 -27.1,-9 -4.8,134.2 -4.8,134.2" /><path
         id="path126"
         style="fill:#e9eef1;fill-opacity:1;fill-rule:nonzero;stroke:none"
         d="m 11995.2,12530.5 -215.3,-4.5 -226.5,-117.2 c 0,0 0,-403.5 -4.5,-430.5 -4.5,-27.1 -15.7,-259.8 51.9,-642.4 67.6,-382.7 -155.5,-951.3 -115,-1154.1 40.6,-202.9 94.9,-293.1 94.9,-293.1 0,0 491.2,-175.8 793.2,-193.8 302.1,-18 466.8,22.2 463.7,40.5 -3,18.2 41.3,1271.4 72.8,1415.6 31.6,144.3 103.7,63.1 117.2,320.1 13.5,257 -107.1,572.6 -159.5,662.7 -52.4,90.2 -315.3,287 -315.3,287 l -557.6,109.7" /><path
         id="path128"
         style="fill:#c37140;fill-opacity:1;fill-rule:nonzero;stroke:none"
         d="m 11959.2,13565.9 c 4.5,-21 2.9,-457.9 2.9,-457.9 0,0 -7.4,-240.6 -41.2,-365.1 -33.8,-124.5 -141,-216.9 -141,-216.9 0,0 283,-141.2 454.3,-279.5 171.3,-138.2 288.5,-156.3 336.6,-132.2 48.1,24 68.6,183.3 61.4,192.3 -7.3,9 -70.4,87.2 -79.4,114.2 -9.1,27.1 -18.1,249.8 -18.1,249.8 0,0 -176.8,648.9 -279.2,663.9 -102.5,15 -253.7,56.7 -253.7,56.7 l -42.6,174.7" /><path
         id="path130"
         style="fill:#a45634;fill-opacity:1;fill-rule:nonzero;stroke:none"
         d="m 12632.2,13053.2 -159.3,-261.5 -411.1,262.3 c 0,0 2.3,-203.9 141.1,-299.7 159.7,-110.2 301.1,-89.5 331.8,-83.7 l 97.5,382.6" /><path
         id="path132"
         style="fill:#100f0d;fill-opacity:1;fill-rule:nonzero;stroke:none"
         d="m 12617.6,9126.9 c -18,-9.1 -193.8,-126.3 -211.9,-153.3 -18,-27.1 -58.6,-1262.3 -58.6,-1262.3 h 162.3 l -27,1226.2 135.2,189.4" /><path
         id="path134"
         style="fill:#565759;fill-opacity:1;fill-rule:nonzero;stroke:none"
         d="m 12900.9,9540.2 -65.6,12.1 1040.4,5648 5.3,6.6 c 16.1,19.7 157.1,193.6 178.3,214.6 l 47,-47.5 c -13.6,-13.4 -108,-128.6 -168.1,-202.6 L 12900.9,9540.2" /><path
         id="path136"
         style="fill:#c6c5c3;fill-opacity:1;fill-rule:nonzero;stroke:none"
         d="m 14509.1,15312.1 c 0,-160.6 -130.1,-290.8 -290.7,-290.8 -160.6,0 -290.8,130.2 -290.8,290.8 0,160.6 130.2,290.8 290.8,290.8 160.6,0 290.7,-130.2 290.7,-290.8" /><path
         id="path138"
         style="fill:#414042;fill-opacity:1;fill-rule:nonzero;stroke:none"
         d="m 14290.2,15321.1 c 0,-42.3 -34.4,-76.6 -76.7,-76.6 -42.3,0 -76.6,34.3 -76.6,76.6 0,42.3 34.3,76.6 76.6,76.6 42.3,0 76.7,-34.3 76.7,-76.6" /><g
         transform="scale(1.10985)"
         id="g140"><path
           id="path142"
           style="fill:#929292;fill-opacity:1;fill-rule:nonzero;stroke:none"
           d="m 16300,14131.6 -97.5,152.3 h -109.7 v 158.5 l -79.2,48.7 -213.2,12.2 v -60.9 l -430.6,215.2 -0.5,-599.1 199.5,73.1 h 213.3 l -5.7,-7199.78 h 243 V 4071.17 l 260.2,163.45 v 414.29 l -34.5,9196.29 54.9,28.5 v 257.9" /></g><g
         transform="scale(1.07456)"
         id="g144"><path
           id="path146"
           style="fill:#6b6c6e;fill-opacity:1;fill-rule:nonzero;stroke:none"
           d="m 16185,14497.1 c 0,0 -62.9,18.9 -79.8,-49.3 -16.7,-68.2 194.8,-257 194.8,-257 v 308.7 l -115,-2.4" /></g><g
         transform="scale(1.07583)"
         id="g148"><path
           id="path150"
           style="fill:#6b6c6e;fill-opacity:1;fill-rule:nonzero;stroke:none"
           d="m 16300,14899 -18.9,-320.5 h -75.4 l 18.8,358.2 75.5,-37.7" /></g><g
         transform="scale(1.11732)"
         id="g152"><path
           id="path154"
           style="fill:#414042;fill-opacity:1;fill-rule:nonzero;stroke:none"
           d="m 15258.6,7715.61 412,141.23 115,-70.61 378,143.29 v -106.96 h 112.1 l 24.3,-2525.77 -1041.4,24.16 v 2394.66" /></g><path
         id="path156"
         style="fill:#252323;fill-opacity:1;fill-rule:nonzero;stroke:none"
         d="m 12057.2,5216.3 c 0,0 -104.6,-423.5 -40.7,-478.9 63.8,-55.3 250.1,-18.4 346.6,-68.3 96.5,-49.8 534,-115.4 688.7,35.7 154.8,151.1 -439.6,425.4 -476,467 -36.4,41.6 -74.1,123.4 -102.4,162.7 -28.2,39.3 -134.9,50.7 -134.9,50.7 0,0 -52.4,86.7 -107.5,40.6 -55.1,-46.1 -173.8,-209.5 -173.8,-209.5" /><path
         id="path158"
         style="fill:#f5f6f5;fill-opacity:1;fill-rule:nonzero;stroke:none"
         d="m 12323.8,5386.7 c 0,0 -41.1,-5.8 -48,-32.1 -6.9,-26.4 -17,-79 -27.2,-105.5 -10.2,-26.5 -182.6,-20.7 -182.6,-20.7 l -6.3,304.2 h 382.4 l 8.1,-176.3 c 0,0 -29.2,16.7 -126.4,30.4" /><path
         id="path160"
         style="fill:#252323;fill-opacity:1;fill-rule:nonzero;stroke:none"
         d="m 11504.6,4965.1 c 0,0 -107.1,-433.9 -41.7,-490.6 65.4,-56.7 256.3,-18.9 355.1,-70 98.9,-51 547.1,-118.3 705.6,36.5 158.6,154.8 -450.4,435.8 -487.7,478.5 -37.2,42.6 -75.9,126.4 -104.8,166.7 -29,40.3 -138.3,51.9 -138.3,51.9 0,0 -53.7,88.8 -110.2,41.6 -56.4,-47.2 -178,-214.6 -178,-214.6" /><path
         id="path162"
         style="fill:#f5f6f5;fill-opacity:1;fill-rule:nonzero;stroke:none"
         d="m 11777.8,5139.6 c 0,0 -42.2,-5.8 -49.3,-32.8 -7,-27 -17.4,-80.9 -27.8,-108.1 -10.5,-27.1 -187,-21.2 -187,-21.2 l -6.5,311.7 h 391.8 l 8.3,-180.7 c 0,0 -30,17.1 -129.5,31.1" /><path
         id="path164"
         style="fill:#c37140;fill-opacity:1;fill-rule:nonzero;stroke:none"
         d="m 11410.3,11029.3 c 0,0 -39.4,-211.9 0,-293 0,0 2.5,5.7 51,-455.3 48.4,-461.1 186.8,-716.8 213.9,-852.1 l 247.9,18 c 0,0 99.2,626.7 94.7,906.2 -4.5,279.5 -45.1,342.6 -31.6,428.3 13.6,85.6 153.5,229.9 162.4,518.4 8.9,288.5 8.9,288.5 8.9,288.5 0,0 143.8,248.6 90.2,468.9 -53.6,220.2 -572.2,414.8 -572.2,414.8 l -54.1,-28 c -10.7,-5.6 -149.1,27.9 -288.9,-161.4 -139.7,-189.4 -49.5,-644.7 -49.5,-644.7 0,0 -17.7,-135.2 24.9,-311 42.7,-175.9 102.4,-297.6 102.4,-297.6" /><path
         id="path166"
         style="fill:#a45634;fill-opacity:1;fill-rule:nonzero;stroke:none"
         d="m 12148.6,12030.1 -41.6,-216.4 50.5,-225.4 49.3,107 -58.2,113.9 v 220.9" /><path
         id="path168"
         style="fill:#a45634;fill-opacity:1;fill-rule:nonzero;stroke:none"
         d="m 11548.9,11511.7 c 0,0 -130.7,-18 -265.9,126.2 l -3.6,-63.5 c 0,0 93.7,-170.9 269.5,-62.7" /><path
         id="path170"
         style="fill:#565759;fill-opacity:1;fill-rule:nonzero;stroke:none"
         d="m 11757,9072.8 c -6.7,-3 -95,-111.2 -95,-111.2 l -146.1,-162.3 c 0,0 -105.2,-21.1 -123.2,-36.1 -18.1,-15 153.9,-237.4 182.1,-219.4 28.2,18 13.2,141.2 19.2,153.3 6,12 163,123.2 163,123.2 0,0 982.7,640.3 1051.2,655.2 68.5,14.9 118.1,-334.7 118.1,-334.7 0,0 50.2,-20 83.3,1.1 33,21 42.1,99.2 39.1,120.2 -3,21 -114.7,333.6 -180.6,360.7 -65.9,27 -919.4,-474.9 -919.4,-474.9 l -191.7,-75.1" /><g
         transform="scale(1.10847)"
         id="g172"><path
           id="path174"
           style="fill:#929292;fill-opacity:1;fill-rule:nonzero;stroke:none"
           d="m 15380.4,3849.46 c 0.3,32.57 618.5,414.9 618.5,414.9 l 301.1,-24.45 -919.1,-577.46 -0.5,187.01" /></g><path
         id="path176"
         style="fill:#c37140;fill-opacity:1;fill-rule:nonzero;stroke:none"
         d="m 11675.2,9428.9 c 0,0 15,-157.8 0,-208.9 -15.1,-51.1 -30.1,-129.2 -33.1,-168.3 -3,-39.1 19.9,-90.1 19.9,-90.1 0,0 61.3,42 79.3,39 18,-3 69.1,-72.1 63.1,-102.2 -6,-30 -47.4,-78.1 -47.4,-78.1 0,0 74.5,-120.2 137.6,-99.2 63.1,21.1 78.1,48.1 78.1,48.1 0,0 87.2,15 102.2,42.1 15,27 57.3,51.1 73.7,75.1 16.5,24.1 13.5,39.1 16.5,48.1 3,9 60.1,36.1 57.1,69.1 -3,33.1 -81.2,171.3 -114.3,207.4 -33,36.1 -141.2,102.2 -162.2,123.2 -21.1,21.1 -22.6,112.7 -22.6,112.7 l -199.8,58.6 -48.1,-76.6" /><path
         id="path178"
         style="fill:#252323;fill-opacity:1;fill-rule:nonzero;stroke:none"
         d="m 12989.3,9645 c 0,-57.9 -46.9,-104.8 -104.8,-104.8 -57.9,0 -104.8,46.9 -104.8,104.8 0,57.9 46.9,104.9 104.8,104.9 57.9,0 104.8,-47 104.8,-104.9" /><path
         id="path180"
         style="fill:#2f1d16;fill-opacity:1;fill-rule:nonzero;stroke:none"
         d="m 12717.7,13686.1 c 0,0 24.3,79.2 22.5,120.2 -1.9,41.1 -18,53.6 -25.2,88.4 -7.2,34.8 -25.1,66 -59.2,83 -34.1,17 -78.5,56.9 -109.4,63.4 -30.8,6.4 -80.7,6.7 -142.4,21.8 -61.6,15.1 -90.1,-15.3 -137.4,-2.9 -47.4,12.4 -84.9,-4.6 -115.2,-20.7 -30.3,-16.1 -52.6,-20.6 -80.2,-26.7 -27.5,-6.1 -79.5,-43.2 -94.6,-55.7 -15.2,-12.6 -17,-11.7 -45.5,-33.2 -22.9,-17.2 -70.3,-95.5 -88.3,-125.9 -32.9,-24.3 -69.9,-70.8 -75.7,-158.9 -10.8,-163.7 30.7,-311.4 67.5,-402.5 36.8,-91.1 123.4,-183.1 123.4,-183.1 l 74.3,199.2 c 0,0 266.9,251.8 275.5,269.3 8.6,17.5 325.2,95.9 325.2,95.9 l 77.7,39.9 c 0,0 3.6,10.5 7,28.5" /><path
         id="path182"
         style="fill:#c37140;fill-opacity:1;fill-rule:nonzero;stroke:none"
         d="m 12666.7,13716.1 c 0,0 35.6,-41.8 44,-58.5 8.4,-16.7 21.8,-170.9 26.3,-209.8 4.5,-39 -3,-92.5 -2,-111.4 0.9,-18.9 9.2,-134.8 6.5,-180.5 -2.8,-45.7 -44.4,-224.8 -58.5,-272.2 -14.1,-47.5 -34.9,-110.5 -57,-124.3 -22.1,-13.7 -121.5,-23.8 -211.1,-1.7 -89.6,22.1 -268.3,130.7 -318,190.2 -49.8,59.5 -49.9,188.4 -49.9,188.4 0,0 -36.1,-11.9 -75.8,24.1 -39.7,35.9 -104.4,114.9 -96.3,206.3 8.1,91.5 79.1,62.1 116.2,27.3 37.2,-34.8 41.2,-90.2 48.8,-91.1 7.7,-0.9 15.1,2 18.8,3.5 3.8,1.4 16.7,95.6 17.1,114.6 0.3,19 -9.2,132.3 -6.9,136.2 2.4,3.9 90.7,122.2 120.4,135 29.7,12.9 477.4,23.9 477.4,23.9" /></g></g></svg>