<?xml version="1.0" encoding="UTF-8" standalone="no"?>
<svg
   xmlns:dc="http://purl.org/dc/elements/1.1/"
   xmlns:cc="http://creativecommons.org/ns#"
   xmlns:rdf="http://www.w3.org/1999/02/22-rdf-syntax-ns#"
   xmlns:svg="http://www.w3.org/2000/svg"
   xmlns="http://www.w3.org/2000/svg"
   viewBox="0 0 2666.6667 2666.6667"
   height="2666.6667"
   width="2666.6667"
   xml:space="preserve"
   id="svg2"
   version="1.1"><metadata
     id="metadata8"><rdf:RDF><cc:Work
         rdf:about=""><dc:format>image/svg+xml</dc:format><dc:type
           rdf:resource="http://purl.org/dc/dcmitype/StillImage" /></cc:Work></rdf:RDF></metadata><defs
     id="defs6"><clipPath
       id="clipPath64"
       clipPathUnits="userSpaceOnUse"><path
         id="path62"
         d="m 3716.04,15269.5 c -0.03,0.1 -0.07,0.1 -0.1,0.2 0.04,-0.1 0.07,-0.1 0.1,-0.2 m -0.43,0.8 c -0.03,0 -0.06,0.1 -0.09,0.1 0.03,0 0.06,-0.1 0.09,-0.1 m -0.93,1.6 c -0.02,0.1 -0.05,0.1 -0.07,0.2 0.02,-0.1 0.05,-0.1 0.07,-0.2 m -0.43,0.8 c -0.02,0.1 -0.05,0.1 -0.07,0.1 0.02,0 0.05,-0.1 0.07,-0.1 m -0.93,1.7 c -0.01,0 -0.01,0 -0.03,0.1 0.02,-0.1 0.02,-0.1 0.03,-0.1 m -0.43,0.8 c -0.01,0 -0.03,0.1 -0.04,0.1 0.02,-0.1 0.02,-0.1 0.04,-0.1 m -0.91,1.7 c 0,0 0,0 -0.01,0 0.01,0 0.01,0 0.01,0 m -0.44,0.8 c 0,0 0,0 -0.01,0 0.01,0 0.01,0 0.01,0" /></clipPath></defs><g
     transform="matrix(1.3333333,0,0,-1.3333333,0,2666.6667)"
     id="g10"><g
       transform="scale(0.1)"
       id="g12"><g
         transform="scale(1.22699)"
         id="g14"><path
           id="path16"
           style="fill:none;fill-opacity:1;fill-rule:nonzero;stroke:none"
           d="M 16300,0 H 0 V 16300 H 16300 V 0" /></g><path
         id="path18"
         style="fill:#3067ac;fill-opacity:1;fill-rule:nonzero;stroke:none"
         d="m 4662.21,4149.7 c 0,0 194.46,-24 308.38,-209.8 113.93,-185.9 101.93,-209.9 341.77,-359.8 239.83,-149.9 557.62,-245.8 611.58,-431.7 53.96,-185.9 -119.92,-329.8 -425.71,-317.8 -305.79,12 -1031.29,455.7 -1031.29,455.7 l -303.45,498.3 153.55,503 345.17,-137.9" /><path
         id="path20"
         style="fill:#3970c0;fill-opacity:1;fill-rule:nonzero;stroke:none"
         d="m 4233.1,3879.9 -239.83,-95.3 c 0,0 -221.85,-666.2 -203.87,-738.1 17.99,-72 248.72,-84 403.17,-209.9 154.45,-125.9 304.35,-347.7 825.99,-341.7 521.64,5.9 545.62,323.7 503.65,443.7 -41.97,119.9 -323.77,197.8 -539.63,413.7 -215.85,215.8 -320.37,347.7 -320.37,347.7 0,0 -160.6,233.9 -228.9,275.8 -68.3,42 -166.6,0 -166.6,0 l -33.61,-95.9" /><path
         id="path22"
         style="fill:#eeb186;fill-opacity:1;fill-rule:nonzero;stroke:none"
         d="m 5336.34,8916.4 c 0,0 107.93,-659.5 -29.98,-1115.2 -137.9,-455.7 -113.92,-935.4 -221.84,-1181.2 -107.93,-245.8 -281.81,-1049.3 -335.77,-1510.9 -53.96,-461.7 0,-1169.2 0,-1169.2 l -131.91,-126 -121.21,137.9 c 0,0 -346.47,731.5 -298.51,947.4 47.97,215.8 227.85,3093.9 227.85,3093.9 0,0 119.92,1175.2 137.91,1175.2 17.98,0 437.69,29.9 443.69,23.9 5.99,-6 329.77,-275.8 329.77,-275.8" /><path
         id="path24"
         style="fill:#df9866;fill-opacity:1;fill-rule:nonzero;stroke:none"
         d="m 4901.04,8826.5 c 0,0 87.54,-1163.2 51.57,-1594.9 -35.98,-431.7 -168.06,-659.5 -168.06,-659.5 l -359.58,1421 110.52,1005.5 365.55,-172.1" /><path
         id="path26"
         style="fill:#fbc398;fill-opacity:1;fill-rule:nonzero;stroke:none"
         d="m 3459.63,8388.8 c 0,0 509.65,-1403 479.67,-1702.8 -29.97,-299.8 -215.85,-935.4 -155.89,-1445 59.96,-509.7 233.84,-917.4 257.83,-1235.2 23.97,-317.8 0,-521.6 0,-521.6 0,0 197.86,-24 215.84,0 17.99,24 35.98,221.8 89.94,275.8 53.97,53.9 149.9,113.9 149.9,113.9 0,0 -29.98,1397 95.93,1840.7 125.91,443.7 305.79,1043.3 269.82,1577 -35.98,533.6 -67.16,1456.9 -67.16,1456.9 0,0 -238.63,114 -436.5,138 -197.86,23.9 -209.85,239.8 -491.66,0 -281.8,-239.9 -407.72,-497.7 -407.72,-497.7" /><path
         id="path28"
         style="fill:#252323;fill-opacity:1;fill-rule:nonzero;stroke:none"
         d="m 3645.51,10775.2 -215.86,-341.8 c 0,0 -263.82,-191.9 -359.75,-755.5 -95.93,-563.6 209.86,-953.3 287.81,-1067.3 77.94,-113.9 77.94,-113.9 77.94,-113.9 l 23.98,-107.9 c 0,0 293.8,185.9 701.52,257.8 407.72,72 634.36,101.9 634.36,101.9 v 60 c 0,0 540.83,89.9 540.83,107.9 0,18 -143.9,1253.2 -143.9,1253.2 l 47.97,383.7 c 0,0 -623.57,329.8 -779.47,347.8 -155.89,18 -815.43,-125.9 -815.43,-125.9" /><path
         id="path30"
         style="fill:#eeb186;fill-opacity:1;fill-rule:nonzero;stroke:none"
         d="m 6387.62,12587.9 71.95,171.9 c 0,0 35.97,28.4 87.93,164.1 51.97,135.7 115.93,163.7 219.85,193.7 103.93,29.9 271.82,61.9 315.79,53.9 43.97,-8 -15.99,-107.9 -15.99,-107.9 l -111.93,-76 c 0,0 -47.96,-135.9 -51.96,-155.9 -4,-19.9 11.99,-313.6 11.99,-313.6 l -307.78,-50.1 -219.85,119.9" /><path
         id="path32"
         style="fill:#818283;fill-opacity:1;fill-rule:nonzero;stroke:none"
         d="m 6663.43,13687.2 275.81,823.4 h 64.24 l -260.05,-855.4 -80,32" /><path
         id="path34"
         style="fill:#818283;fill-opacity:1;fill-rule:nonzero;stroke:none"
         d="m 6685.41,12518.1 c 0,0 77.95,-311.9 443.7,-206 365.74,105.9 125.66,345.1 -29.86,375.7 -155.52,30.7 -413.84,-169.7 -413.84,-169.7" /><path
         id="path36"
         style="fill:#a1a1a0;fill-opacity:1;fill-rule:nonzero;stroke:none"
         d="m 6871.28,12522.4 c 0,0 0,-134.4 197.87,-113.4 197.86,21 114.6,167.9 114.6,167.9 l -312.47,-54.5" /><path
         id="path38"
         style="fill:#eeb186;fill-opacity:1;fill-rule:nonzero;stroke:none"
         d="m 5466.27,11756.5 c 0,0 473.77,214.5 709.55,391 235.78,176.6 431.65,320.5 431.65,320.5 l -147.9,291.8 -425.81,-182.9 -413.61,-167.9 c 0,0 -163.85,-376.7 -153.88,-408.7 9.98,-32 0,-243.8 0,-243.8" /><path
         id="path40"
         style="fill:#fbc398;fill-opacity:1;fill-rule:nonzero;stroke:none"
         d="m 3795.4,11512.7 -149.89,-737.5 c 0,0 305.78,-131.9 821.43,-191.9 515.64,-60 773.47,-30 773.47,-30 0,0 157.79,929.3 269.81,1235.2 112.02,305.9 -603.06,531.6 -844.16,547.6 -241.09,16 -894.64,-579.6 -894.64,-579.6 l 23.98,-243.8" /><path
         id="path42"
         style="fill:#df9866;fill-opacity:1;fill-rule:nonzero;stroke:none"
         d="m 4795.51,11801.7 c 0,0 -322.58,-317.9 -598.39,-441.4 -275.81,-123.5 -460.04,-134.6 -460.04,-134.6 l 58.32,287 1000.11,289" /><path
         id="path44"
         style="fill:#3970c0;fill-opacity:1;fill-rule:nonzero;stroke:none"
         d="m 4221.11,14446.7 -249.7,-20.1 -106.05,-163.8 31.97,-2444.4 1612.89,-29.9 155.89,425.7 c 0,0 281.81,407.7 239.84,839.4 -41.97,431.7 -455.69,581.6 -497.66,629.6 -41.97,47.9 -839.42,763.5 -839.42,763.5 h -347.76" /><path
         id="path46"
         style="fill:#372a23;fill-opacity:1;fill-rule:nonzero;stroke:none"
         d="m 3761.77,16274.3 c 0,0 -400.07,-76.9 -456.03,-404.7 -55.96,-327.7 127.91,-847.4 167.88,-1207.1 39.98,-359.8 15.99,-511.7 15.99,-511.7 0,0 384.64,34.6 513.1,646.9 128.46,612.3 102.48,929.7 70.5,1004.8 -31.97,75.1 -311.44,471.8 -311.44,471.8" /><path
         id="path48"
         style="fill:#fbc398;fill-opacity:1;fill-rule:nonzero;stroke:none"
         d="m 3971.41,15023.9 c 0,0 74.08,-261.5 0,-597.3 0,0 501.53,-443.7 819.31,-707.5 317.78,-263.8 581.6,-323.7 569.61,-197.8 -12,125.9 -621.38,647.5 -634.47,695.5 -13.09,48 -3.88,361.7 -3.88,361.7 l -101.3,716.1 c 0,0 -135.75,109.4 -171.73,115.4 -35.97,6 -305.79,53.9 -317.78,0 -11.99,-54 -159.76,-386.1 -159.76,-386.1" /><path
         id="path50"
         style="fill:#3970c0;fill-opacity:1;fill-rule:nonzero;stroke:none"
         d="m 3761.77,16274.3 -118.8,-74 c 0,0 -114.31,-208.8 -19.02,-402.4 95.28,-193.6 137.82,476.4 137.82,476.4" /><path
         id="path52"
         style="fill:#df9866;fill-opacity:1;fill-rule:nonzero;stroke:none"
         d="m 4407.22,15201.6 c 0,0 0.06,-278.8 58.21,-397.3 58.15,-118.5 256.55,-225.8 256.55,-225.8 l 322.52,416.9 -423.82,299.2 -213.46,-93" /><g
         transform="scale(1.02068)"
         id="g54"><path
           id="path56"
           style="fill:#523d38;fill-opacity:1;fill-rule:nonzero;stroke:none"
           d="m 4969.56,15778.1 c 16.41,7 93.76,98.6 93.76,98.6 0,0 114.99,257.6 -348.63,340.5 -463.61,82.8 -806.14,-25.5 -1013.89,-225.7 -207.73,-200.2 -173.6,-833.3 -59.64,-1032.1 113.94,-198.7 249.78,-239.9 249.78,-239.9 l 333.58,313 c 0,0 468.79,-16.5 486.9,19.9 18.12,36.3 119.24,308 127.02,350.2 7.77,42.3 131.12,375.5 131.12,375.5" /></g><g
         id="g58"><g
           clip-path="url(#clipPath64)"
           id="g60"><path
             id="path66"
             style="fill:#372a23;fill-opacity:1;fill-rule:nonzero;stroke:none"
             d="m 3711.53,15269.5 h 4.5078 v 8.223 h -4.5078 z" /></g></g><path
         id="path68"
         style="fill:#8b6b55;fill-opacity:1;fill-rule:nonzero;stroke:none"
         d="m 3971.41,15023.9 v 0 l 340.48,319.4 c 0,0 0,0 0.01,0 l -340.49,-319.4" /><path
         id="path70"
         style="fill:#42322c;fill-opacity:1;fill-rule:nonzero;stroke:none"
         d="m 3971.41,15023.9 c 0,0 -138.65,42 -254.95,244.9 v 0 c -0.14,0.2 -0.28,0.5 -0.42,0.7 -0.03,0.1 -0.06,0.1 -0.1,0.2 -0.11,0.2 -0.22,0.4 -0.33,0.6 -0.03,0 -0.06,0.1 -0.09,0.1 -0.28,0.5 -0.56,1 -0.84,1.5 -0.02,0.1 -0.05,0.1 -0.07,0.2 -0.12,0.2 -0.24,0.4 -0.36,0.6 -0.02,0 -0.05,0.1 -0.07,0.1 -0.29,0.6 -0.57,1.1 -0.86,1.6 -0.01,0 -0.01,0 -0.03,0.1 -0.13,0.2 -0.27,0.4 -0.4,0.7 -0.02,0 -0.02,0 -0.04,0.1 -0.29,0.5 -0.58,1 -0.87,1.6 0,0 0,0 -0.01,0 -0.14,0.3 -0.29,0.5 -0.43,0.8 0,0 0,0 -0.01,0 -73.91,139.7 -112.46,460.5 -70.7,721.1 40.5,-56.6 279.21,-368.8 702.11,-495.5 230.74,-69.2 320.66,-129.6 382.31,-158.3 -52.49,-4.1 -122.71,-5.4 -190.38,-5.4 -115.21,0 -222.97,3.7 -222.97,3.7 v 0 c -0.01,0 -0.01,0 -0.01,0 l -340.48,-319.4" /><path
         id="path72"
         style="fill:#fbc398;fill-opacity:1;fill-rule:nonzero;stroke:none"
         d="m 4474.77,15521.9 c 0,0 -20.81,205.5 -154.27,158.7 -133.46,-46.7 -50.07,-394.8 18.33,-436.9 68.39,-42.1 68.39,-42.1 68.39,-42.1 0,0 193.15,-348.2 281.07,-429.5 87.91,-81.4 453.51,-81.5 503.56,-63.9 50.04,17.5 75.49,457.7 75.49,457.7 0,0 146.76,64.7 151.77,80.8 5.02,16 -137.03,244.9 -147.84,270 -10.8,25.2 17.43,301.4 6.08,387.9 -11.35,86.4 -93.95,283.3 -109.3,300.5 -15.35,17.2 -229.48,-11.3 -271.15,-25.2 -41.67,-14 -175.28,-63.4 -215,-114.3 -39.71,-50.8 -50,-299.4 -88.93,-407.5 -38.94,-108.1 -60.95,-135.4 -118.2,-136.2" /><path
         id="path74"
         style="fill:#a1a1a0;fill-opacity:1;fill-rule:nonzero;stroke:none"
         d="m 6671.42,13172.8 c 0,0 63.96,-33.3 99.93,-185.2 35.98,-151.9 99.93,-465.2 99.93,-465.2 h 79.95 c 0,0 94.18,91.5 91.06,136.5 -3.12,44.9 0,184.8 0,184.8 l -39.94,175.9 c 0,0 -150.93,359.8 -258.92,399.7 -107.99,40 -259.88,4 -395.78,-39.9 -135.91,-44 -414.72,-567.9 -414.72,-567.9 l 254.82,-115.7 c 0,0 127.92,514.2 483.67,477" /><path
         id="path76"
         style="fill:#fbc398;fill-opacity:1;fill-rule:nonzero;stroke:none"
         d="m 3865.36,14262.8 c 0,0 607.57,-327.8 695.51,-703.6 87.94,-375.7 -311.32,-695.5 -311.32,-695.5 l -208.31,-663.5 c 0,0 386.25,8 624.82,135.9 238.58,127.9 514.89,199.8 514.89,199.8 l 59.46,-423.7 c 0,0 -557.07,-415.7 -838.15,-535.6 -281.08,-119.9 -776.74,-223.8 -912.65,-215.8 0,0 -63.95,71.9 -143.9,287.8 -79.94,215.8 8,1359 0,1383 -7.99,24 0,591.6 125.92,753.5 125.91,161.9 393.73,477.7 393.73,477.7" /><path
         id="path78"
         style="fill:#a1a1a0;fill-opacity:1;fill-rule:nonzero;stroke:none"
         d="m 5585.17,12175.2 -118.6,27.3 c 0,0 -10.31,104.6 91.62,131.6 101.93,27 401.72,-63 479.67,-194.9 77.95,-131.9 -79.87,-183 -79.87,-183 l -372.82,219" /><path
         id="path80"
         style="fill:#818283;fill-opacity:1;fill-rule:nonzero;stroke:none"
         d="m 5766.9,12184.3 c 144.42,-60.9 244.12,-151.5 222.68,-202.3 -21.45,-50.9 -155.91,-42.7 -300.34,18.2 -144.42,60.9 -244.12,151.5 -222.67,202.3 21.44,50.9 155.91,42.7 300.33,-18.2" /><path
         id="path82"
         style="fill:#df9866;fill-opacity:1;fill-rule:nonzero;stroke:none"
         d="m 4249.55,12863.7 139.44,399.7 v -257.5 z" /><path
         id="path84"
         style="fill:#eeb186;fill-opacity:1;fill-rule:nonzero;stroke:none"
         d="m 5792.03,12863.7 c 11.99,4 123.91,123.9 175.88,123.9 51.96,0 134.98,-67.9 189.4,-83.9 54.43,-16 19.07,-94.6 -71.18,-103.3 -90.24,-8.6 -294.1,63.3 -294.1,63.3" /><path
         id="path86"
         style="fill:#df9866;fill-opacity:1;fill-rule:nonzero;stroke:none"
         d="m 4041.24,12200.2 -395.73,-111.9 436.68,242.3 z" /><path
         id="path88"
         style="fill:#fbc398;fill-opacity:1;fill-rule:nonzero;stroke:none"
         d="m 5180.95,12535.9 c 0,0 179.37,92 267.31,159.9 87.94,68 298.11,220.4 379.74,227.9 81.63,7.4 351.76,-167.9 359.75,-227.9 8,-59.9 -39.97,-107.9 -39.97,-107.9 0,0 31.98,-56 -4,-119.9 0,0 -11.99,-111.9 -51.96,-155.9 -39.97,-44 4,-83.9 -75.95,-127.9 -79.94,-44 -487.66,-52 -499.65,-52 -12,0 -275.81,-20 -275.81,-20 0,0 -55.97,4 -99.94,120 -43.97,115.9 40.48,303.7 40.48,303.7" /><path
         id="path90"
         style="fill:#df9866;fill-opacity:1;fill-rule:nonzero;stroke:none"
         d="m 6091.82,12312.1 -197.86,96.9 224.94,-48.4 z" /><path
         id="path92"
         style="fill:#df9866;fill-opacity:1;fill-rule:nonzero;stroke:none"
         d="m 6143.78,12468 -233.57,108.9 247.1,-74.8 z" /><path
         id="path94"
         style="fill:#df9866;fill-opacity:1;fill-rule:nonzero;stroke:none"
         d="m 6147.78,12587.9 -214.85,141.9 242.89,-100.6 z" /><path
         id="path96"
         style="fill:#eeb186;fill-opacity:1;fill-rule:nonzero;stroke:none"
         d="m 7099.25,13019.6 c 0,0 87.82,-147.9 83.82,-155.9 -4,-8 -4,-8 -4,-8 l -11.99,-35.3 c 0,0 20.25,-48.6 16.12,-108.6 0,0 9.24,-97.9 0.55,-134.9 -8.68,-37 -230.94,-152.9 -268.5,-108.9 -37.55,44 0,87.9 0,87.9 0,0 -24.26,19.9 -16.69,84 7.57,64 150.84,175.9 143.73,203.8 -7.12,28 -39.94,175.9 -39.94,175.9 l 64.8,44 32.1,-44" /><path
         id="path98"
         style="fill:#a1a1a0;fill-opacity:1;fill-rule:nonzero;stroke:none"
         d="m 6447.58,13387.4 c 0,0 39.97,315.7 119.92,343.7 79.94,28 227.84,0 239.83,-43.9 11.99,-44 -23.99,-335.8 -23.99,-335.8 l -39.91,20 c 0,0 -44.03,235.8 -58.02,247.8 -13.99,12 -77.94,16 -113.92,-24 -35.97,-40 -63.96,-243.8 -63.96,-243.8 l -59.95,36" /><g
         transform="scale(1.07394)"
         id="g100"><path
           id="path102"
           style="fill:#818283;fill-opacity:1;fill-rule:nonzero;stroke:none"
           d="m 6550.06,13574.3 -54.37,23.7 1178.03,2702 54.37,-23.7 -1178.03,-2702" /></g><path
         id="path104"
         style="fill:#100f0d;fill-opacity:1;fill-rule:nonzero;stroke:none"
         d="m 5006.57,9306.2 -211.06,-263.9 v -233.8 l 105.53,18 v 230.8 l 105.53,248.9" /><path
         id="path106"
         style="fill:#ffffff;fill-opacity:1;fill-rule:nonzero;stroke:none"
         d="m 4036.5,4052.2 c 1.8,-15.6 3.59,-31.2 4.73,-46.4 23.98,-317.8 0,-521.6 0,-521.6 0,0 197.87,-24 215.85,0 17.99,24 35.98,221.8 89.94,275.8 53.97,53.9 149.9,113.9 149.9,113.9 0,0 -1.84,85.9 -2.7,221.8 l -457.72,-43.5" /><path
         id="path108"
         style="fill:#f2f2f2;fill-opacity:1;fill-rule:nonzero;stroke:none"
         d="m 4494.22,4197.7 v -102 l -60.91,-5.8 c 36.48,-83.5 62.32,-138.1 62.32,-138.1 l 121.21,-137.9 131.91,126 c 0,0 -9.5,124.9 -16.55,303.7 l -237.98,-45.9" /><path
         id="path110"
         style="fill:#48484a;fill-opacity:1;fill-rule:nonzero;stroke:none"
         d="m 7069.46,14563.1 c -23.58,-54.9 -71.46,-87 -106.96,-71.7 -35.49,15.2 -45.15,72.1 -21.58,126.9 23.58,54.9 71.46,87 106.96,71.7 35.49,-15.2 45.16,-72.1 21.58,-126.9" /><path
         id="path112"
         style="fill:#3067ac;fill-opacity:1;fill-rule:nonzero;stroke:none"
         d="m 13146.3,4149.7 c 0,0 194.5,-24 308.4,-209.8 113.9,-185.9 101.9,-209.9 341.7,-359.8 239.9,-149.9 557.7,-245.8 611.6,-431.7 54,-185.9 -119.9,-329.8 -425.7,-317.8 -305.8,12 -1031.3,455.7 -1031.3,455.7 l -303.4,498.3 153.5,503 345.2,-137.9" /><path
         id="path114"
         style="fill:#3970c0;fill-opacity:1;fill-rule:nonzero;stroke:none"
         d="m 12717.2,3879.9 -239.8,-95.3 c 0,0 -221.9,-666.2 -203.9,-738.1 18,-72 248.7,-84 403.2,-209.9 154.4,-125.9 304.3,-347.7 825.9,-341.7 521.7,5.9 545.7,323.7 503.7,443.7 -42,119.9 -323.8,197.8 -539.6,413.7 -215.9,215.8 -320.4,347.7 -320.4,347.7 0,0 -160.6,233.9 -228.9,275.8 -68.3,42 -166.6,0 -166.6,0 l -33.6,-95.9" /><path
         id="path116"
         style="fill:#eeb186;fill-opacity:1;fill-rule:nonzero;stroke:none"
         d="m 13820.4,8916.4 c 0,0 108,-659.5 -30,-1115.2 -137.9,-455.7 -113.9,-935.3 -221.8,-1181.2 -107.9,-245.8 -281.8,-1049.3 -335.8,-1510.9 -53.9,-461.7 0,-1169.2 0,-1169.2 l -131.9,-126 -121.2,137.9 c 0,0 -346.5,731.6 -298.5,947.4 48,215.9 227.9,3093.9 227.9,3093.9 0,0 119.9,1175.2 137.9,1175.2 17.9,0 437.7,29.9 443.7,23.9 6,-6 329.7,-275.8 329.7,-275.8" /><path
         id="path118"
         style="fill:#f2f2f2;fill-opacity:1;fill-rule:nonzero;stroke:none"
         d="m 12978.3,4197.7 v -102 l -60.9,-5.8 c 36.5,-83.5 62.3,-138.1 62.3,-138.1 l 121.2,-137.9 131.9,126 c 0,0 -9.5,124.9 -16.5,303.7 l -238,-45.9" /><path
         id="path120"
         style="fill:#df9866;fill-opacity:1;fill-rule:nonzero;stroke:none"
         d="m 13385.1,8826.5 c 0,0 87.6,-1163.2 51.6,-1594.9 -36,-431.7 -168.1,-659.5 -168.1,-659.5 l -359.5,1421 110.5,1005.5 365.5,-172.1" /><path
         id="path122"
         style="fill:#fbc398;fill-opacity:1;fill-rule:nonzero;stroke:none"
         d="m 11943.7,8388.8 c 0,0 509.7,-1403 479.7,-1702.8 -30,-299.8 -215.9,-935.4 -155.9,-1445 60,-509.7 233.8,-917.4 257.8,-1235.2 24,-317.8 0,-521.6 0,-521.6 0,0 197.9,-24 215.9,0 18,24 35.9,221.8 89.9,275.8 54,53.9 149.9,113.9 149.9,113.9 0,0 -30,1397 95.9,1840.7 126,443.7 305.8,1043.3 269.9,1577 -36,533.6 -67.2,1456.9 -67.2,1456.9 0,0 -238.6,114 -436.5,138 -197.9,23.9 -209.8,239.8 -491.7,0 -281.8,-239.9 -407.7,-497.7 -407.7,-497.7" /><path
         id="path124"
         style="fill:#eeb186;fill-opacity:1;fill-rule:nonzero;stroke:none"
         d="m 14099.3,12336.4 -122.1,-1129.5 c 0,0 -12.8,-441.6 -60.8,-814.4 -47.9,-372.8 0,-746.8 0,-746.8 l -323.7,-69.7 c 0,0 -192.7,563.6 -147.3,1031.3 45.3,467.6 75.3,671.5 147.3,863.4 71.9,191.8 506.6,865.7 506.6,865.7" /><path
         id="path126"
         style="fill:#252323;fill-opacity:1;fill-rule:nonzero;stroke:none"
         d="m 12129.6,10775.2 -215.9,-341.8 c 0,0 -263.8,-191.9 -359.7,-755.5 -95.9,-563.6 209.8,-953.3 287.8,-1067.3 77.9,-113.9 77.9,-113.9 77.9,-113.9 l 24,-107.9 c 0,0 293.8,185.9 701.5,257.8 407.8,72 634.4,101.9 634.4,101.9 v 60 c 0,0 540.8,89.9 540.8,107.9 0,18 -143.9,1253.2 -143.9,1253.2 l 48,383.7 c 0,0 -623.6,329.8 -779.5,347.8 -155.9,18 -815.4,-125.9 -815.4,-125.9" /><path
         id="path128"
         style="fill:#fbc398;fill-opacity:1;fill-rule:nonzero;stroke:none"
         d="m 12279.5,11512.7 -149.9,-737.5 c 0,0 305.8,-131.9 821.4,-191.9 515.7,-60 773.5,-30 773.5,-30 0,0 157.8,929.3 269.8,1235.2 112,305.9 -603,531.6 -844.1,547.6 -241.1,16 -894.7,-579.6 -894.7,-579.6 l 24,-243.8" /><path
         id="path130"
         style="fill:#df9866;fill-opacity:1;fill-rule:nonzero;stroke:none"
         d="m 12569.1,10646.2 v 1372.7 c -174,-135.2 -313.6,-262.4 -313.6,-262.4 l 24,-243.8 -149.9,-737.5 c 0,0 158.4,-68.4 439.5,-129" /><path
         id="path132"
         style="fill:#df9866;fill-opacity:1;fill-rule:nonzero;stroke:none"
         d="m 13047,11809.3 -206.1,-538.2 v -627.6 c 0,0 -183.9,467.7 -191.9,615.6 -8,147.9 223,550.2 223,550.2 h 175" /><path
         id="path134"
         style="fill:#3970c0;fill-opacity:1;fill-rule:nonzero;stroke:none"
         d="m 12705.2,14446.7 -249.7,-20.1 -106.1,-163.8 32,-2444.4 1612.9,-29.9 155.9,425.7 c 0,0 281.8,407.7 239.8,839.4 -41.9,431.7 -455.6,581.6 -497.6,629.6 -42,47.9 -839.4,763.5 -839.4,763.5 h -347.8" /><path
         id="path136"
         style="fill:#fbc398;fill-opacity:1;fill-rule:nonzero;stroke:none"
         d="m 13682.6,9398 c 0,0 45,-97.8 62.9,-127.8 18,-30 -11.9,-69 0,-101.9 12,-33 117,-99 152.9,-99 36,0 81,48 81,48 0,0 62.9,3 95.9,27 33,24 48,48.7 48,48.7 0,0 80.9,-16.9 119.9,40.7 39,57.5 110.9,249.3 113.9,315.3 3,66 -176.8,96.7 -176.8,96.7 0,0 -302.8,-54.7 -347.8,-78.7 -45,-24 -149.9,-169 -149.9,-169" /><path
         id="path138"
         style="fill:#372a23;fill-opacity:1;fill-rule:nonzero;stroke:none"
         d="m 12245.9,16274.3 c 0,0 -400.1,-76.9 -456.1,-404.7 -55.9,-327.7 127.9,-847.4 167.9,-1207.1 40,-359.8 16,-511.7 16,-511.7 0,0 384.7,34.6 513.1,646.9 128.5,612.3 102.5,929.7 70.5,1004.8 -32,75.1 -311.4,471.8 -311.4,471.8" /><path
         id="path140"
         style="fill:#fbc398;fill-opacity:1;fill-rule:nonzero;stroke:none"
         d="m 12455.5,15023.9 c 0,0 74.1,-261.5 0,-597.3 0,0 501.5,-443.7 819.3,-707.5 317.8,-263.8 581.6,-323.7 569.6,-197.8 -12,125.9 -621.4,647.5 -634.4,695.5 -13.1,48 -3.9,361.7 -3.9,361.7 l -101.3,716.1 c 0,0 -135.8,109.4 -171.8,115.4 -35.9,6 -305.7,53.9 -317.7,0 -12,-54 -159.8,-386.1 -159.8,-386.1" /><g
         transform="scale(1.06787)"
         id="g142"><path
           id="path144"
           style="fill:#818283;fill-opacity:1;fill-rule:nonzero;stroke:none"
           d="m 13503.9,10068 -55.7,21.3 2367.4,6210.7 55.7,-21.2 -2367.4,-6210.8" /></g><path
         id="path146"
         style="fill:#3970c0;fill-opacity:1;fill-rule:nonzero;stroke:none"
         d="m 12245.9,16274.3 -118.8,-74 c 0,0 -114.4,-208.8 -19.1,-402.4 95.3,-193.6 137.9,476.4 137.9,476.4" /><path
         id="path148"
         style="fill:#df9866;fill-opacity:1;fill-rule:nonzero;stroke:none"
         d="m 12891.3,15201.6 c 0,0 0.1,-278.8 58.2,-397.3 58.2,-118.5 256.6,-225.8 256.6,-225.8 l 322.5,416.9 -423.8,299.2 -213.5,-93" /><g
         transform="scale(1.02068)"
         id="g150"><path
           id="path152"
           style="fill:#523d38;fill-opacity:1;fill-rule:nonzero;stroke:none"
           d="m 13281.7,15778.1 c 16.5,7 93.8,98.6 93.8,98.6 0,0 115,257.6 -348.6,340.5 -463.6,82.8 -806.1,-25.5 -1013.9,-225.7 -207.7,-200.2 -173.7,-833.3 -59.7,-1032.1 114,-198.7 249.8,-239.9 249.8,-239.9 l 333.6,313 c 0,0 468.8,-16.5 486.9,19.9 18.1,36.3 119.2,308 127,350.2 7.8,42.3 131.1,375.5 131.1,375.5" /></g><path
         id="path154"
         style="fill:#372a23;fill-opacity:1;fill-rule:nonzero;stroke:none"
         d="m 12200.1,15269.5 c 0,0.1 0,0.1 -0.1,0.2 0.1,-0.1 0.1,-0.1 0.1,-0.2 m -0.4,0.8 c 0,0.1 -0.1,0.1 -0.1,0.1 0,0 0.1,-0.1 0.1,-0.1 m -0.9,1.7 c -0.1,0 -0.1,0 -0.1,0 h 0.1" /><path
         id="path156"
         style="fill:#42322c;fill-opacity:1;fill-rule:nonzero;stroke:none"
         d="m 12455.5,15023.9 c 0,0 -138.6,42 -255,244.9 v 0 c -0.1,0.2 -0.2,0.5 -0.4,0.7 0,0.1 0,0.1 -0.1,0.2 -0.1,0.2 -0.2,0.4 -0.3,0.6 0,0 -0.1,0.1 -0.1,0.1 -0.3,0.5 -0.6,1 -0.8,1.6 h -0.1 c -75.9,136.4 -116.1,462.6 -73.8,726.8 40.5,-56.6 279.2,-368.8 702.1,-495.5 230.8,-69.2 320.7,-129.6 382.3,-158.3 -52.4,-4.1 -122.7,-5.4 -190.3,-5.4 -110.9,0 -214.9,3.5 -222.6,3.7 v 0 c -0.1,0 -0.1,0 -0.2,0 -0.1,0 -0.2,0 -0.2,0 l -340.5,-319.4" /><path
         id="path158"
         style="fill:#fbc398;fill-opacity:1;fill-rule:nonzero;stroke:none"
         d="m 12958.9,15521.9 c 0,0 -20.9,205.5 -154.3,158.7 -133.5,-46.7 -50.1,-394.8 18.3,-436.9 68.4,-42.1 68.4,-42.1 68.4,-42.1 0,0 193.2,-348.2 281.1,-429.5 87.9,-81.4 453.5,-81.5 503.5,-63.9 50.1,17.5 75.5,457.7 75.5,457.7 0,0 146.8,64.7 151.8,80.8 5,16 -137,244.9 -147.8,270 -10.8,25.2 17.4,301.4 6,387.9 -11.3,86.4 -93.9,283.3 -109.3,300.5 -15.3,17.2 -229.4,-11.3 -271.1,-25.2 -41.7,-14 -175.3,-63.4 -215,-114.3 -39.7,-50.8 -50,-299.4 -88.9,-407.5 -39,-108.1 -61,-135.4 -118.2,-136.2" /><path
         id="path160"
         style="fill:#ffffff;fill-opacity:1;fill-rule:nonzero;stroke:none"
         d="m 12520.6,4052.2 c 1.8,-15.6 3.6,-31.2 4.7,-46.4 24,-317.8 0,-521.6 0,-521.6 0,0 197.9,-24 215.9,0 18,24 35.9,221.8 89.9,275.8 54,53.9 149.9,113.9 149.9,113.9 0,0 -1.8,85.9 -2.7,221.8 l -457.7,-43.5" /><path
         id="path162"
         style="fill:#fbc398;fill-opacity:1;fill-rule:nonzero;stroke:none"
         d="m 12349.4,14262.8 c 0,0 433.8,-163.9 693.6,-603.6 259.9,-439.7 -20.1,-687.6 -169.9,-795.5 0,0 -22.1,-351.7 0,-759.5 22,-407.7 -69.7,-843.4 -69.7,-843.4 0,0 63.8,-471.7 27.8,-891.4 -36,-419.7 77.9,-991.3 77.9,-991.3 l -445.7,-43.9 c 0,0 -163.9,784.4 -179.8,1211.6 -16,427.2 -44,906.9 -76,1158.7 -32,251.8 -163.9,551.6 -211.8,915.4 -48,363.7 -88,791.4 -28,1043.3 59.9,251.8 381.6,599.6 381.6,599.6" /><path
         id="path164"
         style="fill:#df9866;fill-opacity:1;fill-rule:nonzero;stroke:none"
         d="m 13047,13207.5 -173.9,-343.8 87,69.8 z" /><path
         id="path166"
         style="fill:#818283;fill-opacity:1;fill-rule:nonzero;stroke:none"
         d="m 12600.3,8970.4 c 0,0 -110.9,-107.9 -104.9,-161.9 6,-54 224.9,-299.8 260.8,-311.8 36,-12 189.6,75 178.7,90 -10.8,15 -79.7,215.8 -139.7,284.8 -60,68.9 -194.9,98.9 -194.9,98.9" /><path
         id="path168"
         style="fill:#a1a1a0;fill-opacity:1;fill-rule:nonzero;stroke:none"
         d="m 13177.2,9282.2 c 0,0 445.4,428.7 610.3,491.7 164.9,62.9 428.7,-128.2 428.7,-128.2 0,0 3,-102.7 -47.9,-186.6 -51,-84 -108,-75 -108,-75 0,0 18,66 -158.9,45 -176.8,-21 -550,-419.7 -550,-419.7 l -174.2,272.8" /><path
         id="path170"
         style="fill:#818283;fill-opacity:1;fill-rule:nonzero;stroke:none"
         d="m 14099.3,10109.6 257.9,620.6 62.9,-33 -245.8,-642.4 -75,54.8" /><path
         id="path172"
         style="fill:#df9866;fill-opacity:1;fill-rule:nonzero;stroke:none"
         d="m 13279.6,8668.9 c 0,0 -37.9,-28 -102.4,-72 -64.5,-43.9 -168.4,-40.9 -188.4,-58.4 -20,-17.5 -113.7,0.2 -113.7,0.2 l 112.2,165.7 292.3,44.1 v -79.6" /><path
         id="path174"
         style="fill:#fbc398;fill-opacity:1;fill-rule:nonzero;stroke:none"
         d="m 12463.4,9378.1 c 0,-44 -4,-339.3 16,-379.5 20,-40.2 167.9,-176.1 235.9,-272 67.9,-96 123.9,-183.9 159.8,-187.9 36,-4 124,48 124,48 0,0 55.9,-8 91.9,39.9 36,48 36,48 36,48 0,0 55.2,46 103.9,60 48.7,13.9 91.9,59.9 99.9,73.9 8,14 76,50 76,89.9 0,40 -7.3,223.9 -21.7,247.9 -14.3,24 -182.2,203.8 -182.2,203.8 0,0 -259.9,-8 -293.8,28 -34,36 -105.9,152.1 -133.9,146 -28,-6.1 -311.8,-146 -311.8,-146" /><path
         id="path176"
         style="fill:#df9866;fill-opacity:1;fill-rule:nonzero;stroke:none"
         d="m 13330.8,8808.5 v 0 0 c 1.6,2.7 5.3,6.2 10.4,10.4 0.6,0.1 1.2,0.2 1.8,0.3 l -12.2,-10.7" /><path
         id="path178"
         style="fill:#89634a;fill-opacity:1;fill-rule:nonzero;stroke:none"
         d="m 13341.2,8818.9 c 4.2,3.4 9.1,7.3 14.5,11.6 l -12.7,-11.3 c -0.6,-0.1 -1.2,-0.2 -1.8,-0.3" /><path
         id="path180"
         style="fill:#ecab7b;fill-opacity:1;fill-rule:nonzero;stroke:none"
         d="m 13330.8,8808.5 -79.9,277.8 c 3.8,0.4 7.6,0.6 11.2,0.6 126.5,0 123,-230.5 123,-230.5 l -29.4,-25.9 c -5.4,-4.3 -10.3,-8.2 -14.5,-11.6 -5.1,-4.2 -8.8,-7.7 -10.4,-10.4 v 0" /><path
         id="path182"
         style="fill:#df9866;fill-opacity:1;fill-rule:nonzero;stroke:none"
         d="m 13922.4,9420.1 c 0,0 -24,-52 -12,-85.9 12,-34 212.9,-141.2 212.9,-141.2 l -26.7,-31.1 c 0,0 -172.2,98.3 -208.2,144.3 -35.9,45.9 34,113.9 34,113.9" /><path
         id="path184"
         style="fill:#df9866;fill-opacity:1;fill-rule:nonzero;stroke:none"
         d="m 13745.5,9270.2 233.9,-152.9 -36,-30.4 c 0,0 -164.7,118.7 -197.9,183.3" /><path
         id="path186"
         style="fill:#48484a;fill-opacity:1;fill-rule:nonzero;stroke:none"
         d="m 14454.9,10735 c -23.6,-54.8 -71.5,-86.9 -107,-71.7 -35.4,15.3 -45.1,72.1 -21.5,127 23.5,54.8 71.4,86.9 106.9,71.7 35.5,-15.3 45.2,-72.1 21.6,-127" /><path
         id="path188"
         style="fill:#a1a1a0;fill-opacity:1;fill-rule:nonzero;stroke:none"
         d="m 14093.3,9824.8 c -15,-9 -98.9,12 -113.9,55.3 -15,43.3 51.1,166.6 51.1,166.6 13.2,26.2 122.8,-15 131.8,-63 9,-48 -54,-149.9 -69,-158.9 z m 146.9,161.9 c -9,113.9 -134.6,152.9 -209.7,146.9 -75.1,-6 -138,-287.8 -138,-287.8 l -72.1,-59.2 c 0,0 61.7,-20.9 159,-90.7 97.3,-69.8 97.3,-69.8 97.3,-69.8 0,0 34.3,83.8 29.4,86.4 -4.9,2.5 143.1,160.3 134.1,274.2" /></g></g></svg>