<?xml version="1.0" encoding="UTF-8" standalone="no"?>
<svg
   xmlns:dc="http://purl.org/dc/elements/1.1/"
   xmlns:cc="http://creativecommons.org/ns#"
   xmlns:rdf="http://www.w3.org/1999/02/22-rdf-syntax-ns#"
   xmlns:svg="http://www.w3.org/2000/svg"
   xmlns="http://www.w3.org/2000/svg"
   viewBox="0 0 2666.6667 2666.6667"
   height="2666.6667"
   width="2666.6667"
   xml:space="preserve"
   id="svg2"
   version="1.1"><metadata
     id="metadata8"><rdf:RDF><cc:Work
         rdf:about=""><dc:format>image/svg+xml</dc:format><dc:type
           rdf:resource="http://purl.org/dc/dcmitype/StillImage" /></cc:Work></rdf:RDF></metadata><defs
     id="defs6" /><g
     transform="matrix(1.3333333,0,0,-1.3333333,0,2666.6667)"
     id="g10"><g
       transform="scale(0.1)"
       id="g12"><g
         transform="scale(1.22699)"
         id="g14"><path
           id="path16"
           style="fill:none;fill-opacity:1;fill-rule:nonzero;stroke:none"
           d="M 16300,0 H 0 V 16300 H 16300 V 0" /></g><path
         id="path18"
         style="fill:#9c9c9b;fill-opacity:1;fill-rule:nonzero;stroke:none"
         d="m 4956.83,5270.9 821.98,273.8 -41.05,351.6 -724.24,-152.3 -217.84,-117.2 c 0,0 -84.18,-114.4 -110.56,-155.4 -26.39,-41.1 271.71,-200.5 271.71,-200.5" /><path
         id="path20"
         style="fill:#e4e4e3;fill-opacity:1;fill-rule:nonzero;stroke:none"
         d="m 2697.12,5330.6 -54.74,-428.8 450.58,-125.4 c 0,0 268.78,392.9 260.96,404.7 -7.82,11.7 -97.74,130.9 -148.56,149.5 -50.83,18.6 -508.24,0 -508.24,0" /><path
         id="path22"
         style="fill:#d4d4d2;fill-opacity:1;fill-rule:nonzero;stroke:none"
         d="m 3937.42,5673.7 1190.45,281.5 609.89,-58.9 -1158.2,-398.6 -642.14,176" /><path
         id="path24"
         style="fill:#9c9c9b;fill-opacity:1;fill-rule:nonzero;stroke:none"
         d="m 3272.8,5357 -125.06,-158.3 -54.78,-422.3 1863.87,494.5 780.93,625.4 -1046.78,-287.1 1.67,2902.8 c 0,0 -219.34,73 -242.97,50.8 -23.63,-22.1 -428.21,-162.2 -424.79,-179.8 3.42,-17.6 249.72,-2603.8 249.72,-2603.8 0,0 -175.93,-185.4 -228.7,-198.3 C 3993.13,5568.1 3272.8,5357 3272.8,5357" /><path
         id="path26"
         style="fill:#d4d4d2;fill-opacity:1;fill-rule:nonzero;stroke:none"
         d="m 4108.4,5744 -170.98,-70.3 -1240.3,-343.1 450.62,-131.9 1255.89,382.2 -295.23,163.1" /><path
         id="path28"
         style="fill:#c1bfbd;fill-opacity:1;fill-rule:nonzero;stroke:none"
         d="M 1588.76,8648.3 V 7732 l 1926.43,-334.2 c 0,0 247.75,-26.4 321.8,-211.1 74.04,-184.8 100.43,-1513 100.43,-1513 l 466.21,-92.8 -14.6,3117.6 -2800.27,-50.2" /><path
         id="path30"
         style="fill:#333232;fill-opacity:1;fill-rule:nonzero;stroke:none"
         d="m 1852.66,8830.6 -263.9,259.7 1853.12,85.3 513.13,-212 c 0,0 274.65,8.7 88.94,-211.2 -185.7,-219.9 -264.87,-318.4 -405.61,-260.3 -140.75,58 -1785.68,338.5 -1785.68,338.5" /><path
         id="path32"
         style="fill:#48484a;fill-opacity:1;fill-rule:nonzero;stroke:none"
         d="m 1588.76,9090.3 v -442 c 0,0 2433.69,-347.4 2586.16,-341.5 152.47,5.8 781.91,228.7 781.91,228.7 l -54.74,342 -858.3,-60.6 -445.07,-46.9 -2009.96,320.3" /><path
         id="path34"
         style="fill:#100f0d;fill-opacity:1;fill-rule:nonzero;stroke:none"
         d="m 4157.33,8512 c 0,0 121.19,-39.1 213.07,-7.8 91.87,31.3 269.76,301 269.76,301 0,0 -418.32,113.4 -433.96,105.6 -15.64,-7.8 -168.11,-105.6 -162.25,-158.4 5.87,-52.7 113.38,-240.4 113.38,-240.4" /><path
         id="path36"
         style="fill:#252323;fill-opacity:1;fill-rule:nonzero;stroke:none"
         d="m 6353.51,6189.7 c -11.73,0 -190.59,-37 -214.05,-81.5 -23.45,-44.5 -316.67,-671.3 -222.84,-837.3 93.83,-166.1 671.46,-127.9 826.87,-189.5 155.4,-61.6 777.02,-190.6 1079.03,-178.9 302.01,11.8 369.45,246.3 343.06,322.6 -26.39,76.2 -577.63,346 -759.43,536.5 -181.79,190.6 -302.01,404.7 -331.33,448.7 -29.32,43.9 -143.68,49.8 -143.68,49.8 l -577.63,-70.4" /><path
         id="path38"
         style="fill:#252323;fill-opacity:1;fill-rule:nonzero;stroke:none"
         d="m 5036.97,5782.2 c 0,0 -187.65,-108.5 -202.31,-120.3 -14.67,-11.7 -240.44,-545.3 -219.92,-665.5 20.53,-120.3 428.1,-284.5 656.81,-387.1 228.7,-102.6 606.95,-146.6 876.71,-143.7 269.76,3 431.02,70.4 392.91,287.4 -38.12,217 -202.32,234.6 -433.96,445.7 -231.64,211.1 -419.3,562.9 -433.96,606.9 -14.66,44 -143.68,143.7 -143.68,143.7 0,0 -120.21,161.3 -214.04,120.2 -93.83,-41 -278.56,-287.3 -278.56,-287.3" /><path
         id="path40"
         style="fill:#bb643e;fill-opacity:1;fill-rule:nonzero;stroke:none"
         d="m 7236.09,9540.2 c 3.91,289.3 -234.57,484.8 -234.57,484.8 0,0 -178.11,125 -374.51,249.2 h -908.04 c -118.47,-99.9 -120.18,-286.2 -93.61,-362.6 31.27,-89.9 602.07,-715.4 605.98,-910.9 3.91,-195.5 -43.01,-582.5 -101.66,-887.5 -58.63,-304.9 46.92,-465.2 113.38,-797.5 66.46,-332.3 23.46,-1223.7 19.55,-1239.3 -3.9,-15.7 74.29,-187.7 172.02,-179.9 97.74,7.8 336.22,82.1 367.5,97.8 31.27,15.6 31.27,54.7 43.01,121.2 11.72,66.4 86,144.6 86,144.6 0,0 7.82,547.3 113.38,1008.7 105.56,461.3 207.21,914.8 168.11,1305.8 -39.09,390.9 19.55,676.3 23.46,965.6" /><path
         id="path42"
         style="fill:#a45330;fill-opacity:1;fill-rule:nonzero;stroke:none"
         d="m 6042.97,10172.3 c 6.08,4.6 286.11,-217.7 634.05,-303.7 347.95,-86 559.07,-328.4 559.07,-328.4 0,0 113.37,84.8 93.83,203.3 -19.55,118.5 -311.59,279.2 -545.57,428.8 -233.98,149.7 -615.57,317.9 -650.75,290.6 -35.19,-27.4 -90.63,-290.6 -90.63,-290.6" /><path
         id="path44"
         style="fill:#c37140;fill-opacity:1;fill-rule:nonzero;stroke:none"
         d="m 4256.76,8717.6 c 0,0 363.85,-57 496.77,-51.2 0,0 -123.15,-258 -160.29,-586.4 -37.14,-328.4 89.92,-600.1 117.29,-838.6 27.36,-238.5 113.37,-901.1 136.83,-1188.5 23.46,-287.3 39.1,-484.8 64.51,-516.1 25.41,-31.2 201.34,15.7 222.84,47 21.5,31.2 1.96,173.9 95.79,275.6 93.83,101.6 299.07,89.9 299.07,89.9 0,0 -95.78,248.3 -56.68,572.7 39.09,324.5 113.37,735 148.56,1079.1 35.19,344 105.56,989.1 105.56,989.1 l 27.36,590.3 -207.25,715 c 0,0 -596.31,396.3 -786.33,396.3 -190.03,0 -216.58,167.1 -418.82,-96.7 -202.24,-263.9 -531.61,-580.6 -503.27,-800.5 28.35,-219.9 116.31,-431 116.31,-431 l 301.75,-246" /><path
         id="path46"
         style="fill:#ececec;fill-opacity:1;fill-rule:nonzero;stroke:none"
         d="m 4847.73,6048.5 c 23.25,-285 38.86,-480.5 64.14,-511.7 25.41,-31.2 201.34,15.7 222.84,47 21.5,31.2 1.96,173.9 95.79,275.6 93.82,101.6 299.07,89.9 299.07,89.9 0,0 -23.02,59.8 -41.88,158.9 -210.88,-31.1 -480.07,-50.2 -639.96,-59.7" /><path
         id="path48"
         style="fill:#ececec;fill-opacity:1;fill-rule:nonzero;stroke:none"
         d="m 6272.12,6272.1 c -4.05,-114.7 -8.38,-191.3 -9.51,-195.7 -3.91,-15.7 74.29,-187.7 172.02,-179.9 97.74,7.8 336.22,82.1 367.5,97.8 31.27,15.6 31.27,54.7 43,121.2 11.73,66.4 86.01,144.6 86.01,144.6 0,0 0.26,17.6 1.27,49.1 -253.58,-44.2 -530.04,-41.7 -660.29,-37.1" /><path
         id="path50"
         style="fill:#a45330;fill-opacity:1;fill-rule:nonzero;stroke:none"
         d="m 4403.63,9868.6 c 0,0 623.57,-195.5 795.59,-281.5 172.02,-86 291.26,-99.7 352.84,-335.2 17.02,-65.1 91.55,-168.8 191.78,-298.5 l 10.53,227.1 -207.25,715 c 0,0 -596.31,396.3 -786.33,396.3 -190.03,0 -216.58,167.1 -418.82,-96.7 -57.24,-74.7 -124.67,-153.7 -191.3,-233.4 139.24,-34.3 252.96,-93.1 252.96,-93.1" /><path
         id="path52"
         style="fill:#bb643e;fill-opacity:1;fill-rule:nonzero;stroke:none"
         d="m 6317.35,13293.4 c 0,0 71.35,-233.6 71.35,-488.7 0,-255.1 -71.35,-463.3 -71.35,-463.3 0,0 115.33,-287.4 112.4,-565.9 -2.94,-278.6 -87.97,-563 -87.97,-563 0,0 343.06,-293.2 477.94,-466.2 134.88,-173 759.43,-803.4 759.43,-803.4 l -378.25,-261 c 0,0 -281.49,193.6 -712.51,372.4 -431.03,178.9 -659.74,365.1 -774.09,566.7 -114.35,201.5 -246.3,711.7 -246.3,711.7 l -64.51,475 c 0,0 250.84,1529.2 277.41,1560.2 26.56,31 253.31,289 362.78,187.4 109.47,-101.6 273.67,-261.9 273.67,-261.9" /><path
         id="path54"
         style="fill:#252323;fill-opacity:1;fill-rule:nonzero;stroke:none"
         d="m 2411.72,10975 -107.51,-296.1 c 0,0 -161.27,-296.2 -120.22,-563 41.05,-266.8 117.29,-680.3 345.99,-891.4 228.71,-211.1 1070.24,-428.1 1252.03,-530.7 181.8,-102.6 375.32,-181.8 375.32,-181.8 0,0 96.76,146.6 99.69,187.7 2.93,41 -49.85,516 49.85,788.7 99.69,272.7 453.92,486.7 453.92,486.7 l 1052.23,-106.5 c 0,0 152.94,309.2 327.66,355.9 174.71,46.8 -172.22,115.4 -172.22,115.4 0,0 -685.75,89.7 -993.34,124.9 -307.6,35.2 -718.1,369.5 -864.71,404.6 -146.6,35.2 -1698.69,105.6 -1698.69,105.6" /><path
         id="path56"
         style="fill:#a45330;fill-opacity:1;fill-rule:nonzero;stroke:none"
         d="m 6139.46,12690.3 -52.78,-343 -51.42,103.4 z" /><path
         id="path58"
         style="fill:#a45330;fill-opacity:1;fill-rule:nonzero;stroke:none"
         d="m 5735.55,11867 c 0,0 66.72,-364.2 160.54,-502 0,0 -187.89,208.8 -246.42,438.7 l 85.88,63.3" /><path
         id="path60"
         style="fill:#100f0d;fill-opacity:1;fill-rule:nonzero;stroke:none"
         d="m 2585.69,10582.1 c 0,0 920.7,123.2 1419.17,-41 498.46,-164.2 872.66,41 369.45,172 -503.21,130.9 -850.33,138.8 -944.16,150.5 -93.83,11.7 -917.71,37 -917.71,37 l 214,-187.5 c 0,0 -82.1,-31.3 -140.75,-131" /><path
         id="path62"
         style="fill:#e9eef1;fill-opacity:1;fill-rule:nonzero;stroke:none"
         d="m 4585.42,13989.3 c 0,0 -308.85,27.3 -531.69,-35.2 -222.85,-62.6 -598.16,-339.4 -605.98,-365.2 -7.82,-25.8 -269.76,-229.1 -359.68,-438.2 -89.92,-209.2 -285.4,-768.3 -351.86,-1010.6 -66.46,-242.4 -273.66,-840.6 -324.49,-1165.1 0,0 230.66,-207.2 559.06,-246.3 328.41,-39.1 508.24,-11.7 809.28,-78.2 301.03,-66.4 805.36,0 805.36,0 0,0 383.14,586.4 535.61,750.7 152.47,164.2 277.58,250.2 277.58,250.2 0,0 265.84,136.8 426.14,293.2 160.29,156.3 261.93,402.7 261.93,402.7 0,0 -142.69,255.1 -181.79,513.1 -39.1,258 47.92,659.7 47.92,659.7 0,0 -980.34,269.8 -995.98,277.6 -15.64,7.8 -371.41,191.6 -371.41,191.6" /><path
         id="path64"
         style="fill:#c2c7ca;fill-opacity:1;fill-rule:nonzero;stroke:none"
         d="m 4760.79,11725.7 c 0,0 108.07,-5.9 194.08,15.6 86.01,21.5 234.57,89.9 234.57,89.9 0,0 -95.78,-109.5 -197.43,-164.2 -101.64,-54.7 -225.26,-58.7 -225.26,-58.7 l -5.96,117.4" /><path
         id="path66"
         style="fill:#c37140;fill-opacity:1;fill-rule:nonzero;stroke:none"
         d="m 5110.05,14190.4 c 0,0 -198.18,-156.2 -243.14,-171.8 -44.96,-15.7 -281.49,-29.3 -281.49,-29.3 0,0 523.13,-1545.3 847.39,-1545.3 190.59,0 162.48,687.1 178.12,706.7 15.64,19.5 241.69,123 241.69,123 0,0 151.96,723.4 81.59,821.1 -70.37,97.8 39.1,168.1 -211.11,269.8 -250.21,101.6 -613.05,-174.2 -613.05,-174.2" /><path
         id="path68"
         style="fill:#a45330;fill-opacity:1;fill-rule:nonzero;stroke:none"
         d="m 5705.97,14027.1 c 0,0 -158.8,-215.7 -190.08,-272.4 -31.27,-56.7 95.04,-604 95.04,-604 l 268.55,25.4 -173.51,851" /><path
         id="path70"
         style="fill:#c37140;fill-opacity:1;fill-rule:nonzero;stroke:none"
         d="m 3582.62,12212.4 c 0,0 -5.86,-480.9 117.29,-821 97.98,-270.6 195.96,-674.8 296.89,-911.5 l 1165.72,-54.9 c -41.17,34.2 -147.05,132.2 -177.19,153.6 -215.02,152.5 -359.63,322 -359.63,322 0,0 159.11,391.1 139.56,754.7 -19.54,363.6 -89.92,652.8 -89.92,652.8 0,0 307.12,416.4 93.94,931.5 -213.18,515.1 -725.91,739.3 -1217.24,436.6 0,0 -426.83,-343.7 -403.37,-801.2 23.45,-457.4 433.95,-662.6 433.95,-662.6" /><path
         id="path72"
         style="fill:#a45330;fill-opacity:1;fill-rule:nonzero;stroke:none"
         d="m 3582.63,12212.4 c 0,0 7.82,244.3 -15.64,351.8 -23.46,107.6 -151.5,299.1 -151.5,299.1 0,0 65.76,-179.8 84.2,-301 18.43,-121.2 -8.37,-291.8 -8.37,-291.8 l 91.31,-58.1" /><path
         id="path74"
         style="fill:#a45330;fill-opacity:1;fill-rule:nonzero;stroke:none"
         d="m 3764.42,11815.6 c 0,0 7.82,-113.4 74.28,-262 0,0 -148.56,105.6 -74.28,262" /><path
         id="path76"
         style="fill:#da8155;fill-opacity:1;fill-rule:nonzero;stroke:none"
         d="m 4769.17,12886.8 c -19.55,-348 -288.79,-674.4 -288.79,-674.4 l 105.04,38.9 c 0,0 113.38,-260.1 109.47,-635.3 -3.91,-374.9 -42.96,-616.8 -43,-617.1 49.49,140.9 126.83,406 113.37,656.4 -19.55,363.6 -89.92,652.8 -89.92,652.8 0,0 307.12,416.4 93.94,931.5 -46.84,113.2 -108.16,212.3 -180.53,294.9 86.72,-177.5 192.1,-439.8 180.42,-647.7" /><path
         id="path78"
         style="fill:#7e7f81;fill-opacity:1;fill-rule:nonzero;stroke:none"
         d="m 8390.57,9704.2 -166.74,38.8 c 0,0 179.32,97 387.5,102.9 0,0 319.61,-32.2 363.59,-322.5 43.98,-290.3 -194.99,-401.3 -194.99,-401.3 0,0 -64.45,-59.7 -427.33,-93.6 -362.88,-33.9 37.97,675.7 37.97,675.7" /><path
         id="path80"
         style="fill:#7e7f81;fill-opacity:1;fill-rule:nonzero;stroke:none"
         d="m 7289.91,9233.5 c -15.64,49.4 -157.97,233.4 -157.97,233.4 0,0 131.58,72.1 393.52,94.6 0,0 235.47,33.2 279.52,31.5 44.04,-1.6 85.05,21.2 152.48,-95.1 67.44,-116.3 108.49,-119.2 96.77,-245.3 -11.73,-126.1 -111.3,-290.3 -120.16,-310.8 -8.86,-20.5 -147.65,-55.7 -147.65,-55.7 0,0 -172.99,-106.6 -519.97,-131 l 23.46,478.4" /><path
         id="path82"
         style="fill:#9c9c9b;fill-opacity:1;fill-rule:nonzero;stroke:none"
         d="m 7602.67,9126.5 c 0,-205.1 -150.53,-371.4 -336.22,-371.4 -185.68,0 -336.22,166.3 -336.22,371.4 0,205.1 150.54,371.4 336.22,371.4 185.69,0 336.22,-166.3 336.22,-371.4" /><path
         id="path84"
         style="fill:#7e7f81;fill-opacity:1;fill-rule:nonzero;stroke:none"
         d="m 6411.75,9410.8 -166.74,38.9 c 0,0 179.32,97 387.51,102.8 0,0 319.6,-32.1 363.58,-322.4 43.98,-290.3 -194.98,-401.3 -194.98,-401.3 0,0 -64.46,-59.8 -427.34,-93.7 -362.88,-33.9 37.97,675.7 37.97,675.7" /><path
         id="path86"
         style="fill:#9c9c9b;fill-opacity:1;fill-rule:nonzero;stroke:none"
         d="m 6710,9106.5 c 0,-205.1 -150.53,-371.4 -336.22,-371.4 -185.69,0 -336.22,166.3 -336.22,371.4 0,205.2 150.53,371.4 336.22,371.4 185.69,0 336.22,-166.2 336.22,-371.4" /><path
         id="path88"
         style="fill:#58595b;fill-opacity:1;fill-rule:nonzero;stroke:none"
         d="m 6485.91,9093.9 c 0,-75.3 -55.79,-136.2 -124.62,-136.2 -68.82,0 -124.61,60.9 -124.61,136.2 0,75.2 55.79,136.2 124.61,136.2 68.83,0 124.62,-61 124.62,-136.2" /><path
         id="path90"
         style="fill:#7e7f81;fill-opacity:1;fill-rule:nonzero;stroke:none"
         d="m 5311.09,8940.2 c -15.63,49.4 -157.97,233.4 -157.97,233.4 0,0 131.58,72 393.52,94.5 0,0 235.48,33.3 279.52,31.6 44.04,-1.7 85.05,21.2 152.49,-95.1 67.43,-116.3 108.49,-119.2 96.76,-245.3 -11.73,-126.1 -111.3,-290.3 -120.16,-310.8 -8.86,-20.6 -147.65,-55.8 -147.65,-55.8 0,0 -172.99,-106.5 -519.96,-130.9 l 23.45,478.4" /><path
         id="path92"
         style="fill:#9c9c9b;fill-opacity:1;fill-rule:nonzero;stroke:none"
         d="m 5623.86,8833.2 c 0,-205.1 -150.54,-371.4 -336.22,-371.4 -185.69,0 -336.23,166.3 -336.23,371.4 0,205.1 150.54,371.4 336.23,371.4 185.68,0 336.22,-166.3 336.22,-371.4" /><path
         id="path94"
         style="fill:#58595b;fill-opacity:1;fill-rule:nonzero;stroke:none"
         d="m 5924.15,8805 c 0,0 27.79,132.1 -11.24,248.6 l 167.5,40.3 c 0,0 94.11,-103.5 100.06,-117.4 5.96,-14 14.64,-150 -44.22,-164.3 -58.85,-14.3 -212.1,-7.2 -212.1,-7.2" /><path
         id="path96"
         style="fill:#c37140;fill-opacity:1;fill-rule:nonzero;stroke:none"
         d="m 5434.87,9566.9 c 0,0 62.04,-81.9 95.44,-129.6 33.4,-47.7 55.41,-163.8 55.41,-163.8 0,0 87.74,-19.9 99.67,-24.7 11.93,-4.8 107.37,-93 195.64,-169.4 88.28,-76.3 188.49,-121.8 255.29,-121.7 66.81,0 57.26,66.8 54.88,114.5 -2.39,47.8 -38.18,81.2 -38.18,81.2 l 147.93,27.2 c 0,0 -26.25,337.8 -50.1,399.8 -23.86,62.1 -229.05,155.1 -291.08,205.2 -62.03,50.1 -159.86,152.7 -159.86,152.7 l -365.04,-371.4" /><path
         id="path98"
         style="fill:#a45330;fill-opacity:1;fill-rule:nonzero;stroke:none"
         d="m 5924.15,9276.2 228.87,-122.8 83.66,15.4 -199.12,94.3 c 0,0 65.36,57.3 91.61,152.7 26.24,95.5 26.24,95.5 26.24,95.5 0,0 -128.84,-199.7 -155.08,-210.8 -26.25,-11.1 -76.18,-24.3 -76.18,-24.3" /><path
         id="path100"
         style="fill:#c37140;fill-opacity:1;fill-rule:nonzero;stroke:none"
         d="m 5807.6,8592.7 c 0,0 44.8,33.4 78.2,102.6 33.41,69.2 38.35,109.7 38.35,109.7 0,0 70.21,95.3 108.39,108.6 38.17,13.3 87.08,0 87.08,0 0,0 50.1,82.3 52.49,89.5 2.39,7.1 7.63,112.3 7.63,112.3 l -26.72,38 c 0,0 30.17,23.7 68.77,12.6 38.6,-11 43.37,-22.8 43.37,-22.8 0,0 74.76,22.9 90.67,10.2 15.9,-12.8 52.48,-85.9 52.48,-85.9 0,0 44.05,3.4 54.08,-15.9 10.03,-19.3 -11.13,-237 -42.94,-284.7 -31.82,-47.8 -106.57,-57.3 -106.57,-57.3 0,0 -28.63,-17.5 -49.31,-20.7 -20.68,-3.2 -44.53,-3.2 -49.31,-3.2 -4.77,0 -30.36,-12.7 -78.01,-19 -47.65,-6.4 -98.69,-8 -98.69,-8 0,0 -50.75,-41.4 -103.24,-47.7 -52.49,-6.4 -126.72,-18.3 -126.72,-18.3" /><path
         id="path102"
         style="fill:#91553a;fill-opacity:1;fill-rule:nonzero;stroke:none"
         d="m 6265.16,9143.2 v 0 c 0.05,0.1 0.56,0.2 1.46,0.5 -0.95,-0.3 -1.46,-0.5 -1.46,-0.5" /><path
         id="path104"
         style="fill:#ac5b34;fill-opacity:1;fill-rule:nonzero;stroke:none"
         d="m 6214.26,8685.7 c 0,0 55.67,132.1 65.21,251.3 9.55,119.3 -14.31,206.2 -14.31,206.2 v 0 0 c 0,0 0.51,0.2 1.46,0.5 4.58,1.3 19.37,5.6 35.79,8.9 4.14,-71.3 8.42,-186.8 -1.46,-258.5 -15.11,-109.7 -86.69,-208.4 -86.69,-208.4" /><path
         id="path106"
         style="fill:#ac5b34;fill-opacity:1;fill-rule:nonzero;stroke:none"
         d="m 6312.88,8709.6 c 0,0 28.63,65.2 60.9,155.9 32.27,90.6 34.53,202 34.53,202 0,0 2.9,0.2 7.38,0.2 4.81,0 11.43,-0.3 18.25,-1.3 -5.67,-52.4 -14.8,-128.1 -25.63,-185.3 -18.33,-96.7 -95.43,-171.5 -95.43,-171.5" /><path
         id="path108"
         style="fill:#ac5b34;fill-opacity:1;fill-rule:nonzero;stroke:none"
         d="m 6037.56,8658.7 c 0,0 20.75,54.9 39.84,139.2 7.12,31.4 7.34,76.8 4.81,121.3 21.1,-1.2 37.41,-5.6 37.41,-5.6 5.57,-184.1 -82.06,-254.9 -82.06,-254.9" /><path
         id="path110"
         style="fill:#9c9c9b;fill-opacity:1;fill-rule:nonzero;stroke:none"
         d="m 8688.82,9399.9 c 0,-205.2 -150.53,-371.4 -336.22,-371.4 -185.69,0 -336.22,166.2 -336.22,371.4 0,205.1 150.53,371.4 336.22,371.4 185.69,0 336.22,-166.3 336.22,-371.4" /><path
         id="path112"
         style="fill:#58595b;fill-opacity:1;fill-rule:nonzero;stroke:none"
         d="m 8464.73,9387.2 c 0,-75.2 -55.8,-136.2 -124.62,-136.2 -68.82,0 -124.62,61 -124.62,136.2 0,75.2 55.8,136.2 124.62,136.2 68.82,0 124.62,-61 124.62,-136.2" /><path
         id="path114"
         style="fill:#ecb088;fill-opacity:1;fill-rule:nonzero;stroke:none"
         d="m 7602.67,9571.9 c 2.86,0.4 103.56,-1 177.53,-106 73.96,-105 107.36,-171.8 104.97,-272 -2.38,-100.2 -98.75,-307.8 -98.75,-307.8 0,0 137.72,12.8 179.08,41.4 0,0 42.94,-43.1 103.39,-41.4 60.44,1.6 79.53,22.3 79.53,22.3 0,0 58.85,-32 90.66,-22.4 31.81,9.7 50.9,36.7 50.9,36.7 0,0 42.94,-6.3 84.3,17.5 41.35,23.9 54.08,205.2 52.49,245 -1.59,39.7 0.13,109.7 0.13,109.7 0,0 98.48,74.8 108.03,124.1 9.54,49.3 -141.98,209.2 -182.33,240.2 -40.35,31 -231.22,76.3 -307.57,100.2 -76.35,23.8 -374.59,164.6 -374.59,164.6 l -422.3,-330.2 61.45,-66.3 293.08,44.4" /><path
         id="path116"
         style="fill:#a45330;fill-opacity:1;fill-rule:nonzero;stroke:none"
         d="m 7602.67,9571.9 c 2.86,0.4 103.56,-1 177.53,-106 73.96,-105 107.36,-171.8 104.97,-272 -2.38,-100.2 -98.75,-307.8 -98.75,-307.8 0,0 137.72,12.8 179.08,41.4 0,0 42.94,-43.1 103.39,-41.4 60.44,1.6 79.53,22.3 79.53,22.3 0,0 58.85,-32 90.66,-22.4 31.81,9.7 50.9,36.7 50.9,36.7 0,0 42.94,-6.3 84.3,17.5 41.35,23.9 54.08,205.2 52.49,245 -1.59,39.7 0.13,109.7 0.13,109.7 0,0 98.48,74.8 108.03,124.1 9.54,49.3 -141.98,209.2 -182.33,240.2 -40.35,31 -231.22,76.3 -307.57,100.2 -76.35,23.8 -374.59,164.6 -374.59,164.6 l -422.3,-330.2 61.45,-66.3 293.08,44.4" /><path
         id="path118"
         style="fill:#bb643e;fill-opacity:1;fill-rule:nonzero;stroke:none"
         d="m 8258.17,9387.2 c -41.36,15.9 -63.63,0 -63.63,0 0,0 31.82,-152.7 14.97,-282.4 -10.35,-79.6 -26.82,-158.3 -38,-207.2 19.99,-8.2 48.57,-17.3 67.57,-11.6 31.81,9.7 50.9,36.7 50.9,36.7 0,0 23.86,346.8 23.86,367.5 0,20.6 -14.32,81.1 -55.67,97" /><path
         id="path120"
         style="fill:#bb643e;fill-opacity:1;fill-rule:nonzero;stroke:none"
         d="m 8002.08,9306.1 c -14.14,-3.3 -72.72,-72.8 -118.09,-128.9 -11.12,-104.8 -97.57,-291.1 -97.57,-291.1 0,0 137.72,12.8 179.08,41.4 0,0 117.16,250.9 120.09,323.5 2.93,72.5 -59.65,60.6 -83.51,55.1" /><path
         id="path122"
         style="fill:#bb643e;fill-opacity:1;fill-rule:nonzero;stroke:none"
         d="m 8186.59,9244 c -1.59,82.7 -1.59,146.4 -63.62,155.9 -62.04,9.5 -103.35,-51.5 -103.35,-51.5 0,0 103.35,-13.7 103.35,-67.8 0,-44.5 -85.12,-294.2 -115.24,-381.2 16.74,-7.8 37.59,-14 61.16,-13.3 60.44,1.6 79.53,22.3 79.53,22.3 0,0 39.76,252.9 38.17,335.6" /><path
         id="path124"
         style="fill:#bb643e;fill-opacity:1;fill-rule:nonzero;stroke:none"
         d="m 8318.92,8922.8 c 15.61,1.6 35.64,6.1 55.36,17.4 41.35,23.9 54.08,205.2 52.49,245 -1.59,39.7 0.13,109.7 0.13,109.7 l -74.3,8 -33.68,-380.1" /><path
         id="path126"
         style="fill:#bb643e;fill-opacity:1;fill-rule:nonzero;stroke:none"
         d="m 8352.6,9659.2 c -40.35,31 -231.23,76.3 -307.57,100.2 -76.35,23.8 -374.58,164.6 -374.58,164.6 l -422.31,-330.2 61.45,-66.3 293.08,44.4 c 2.86,0.4 103.56,-1 177.52,-106 61.09,-86.7 94.43,-147.4 102.88,-222.3 43.72,49.2 108.53,126 115.83,156.3 11.14,46.1 -95.43,211.6 -95.43,211.6 65.21,-47.8 132.01,-168.6 152.75,-174.9 20.73,-6.3 111.28,-8.1 111.28,-8.1 0,0 104.98,0 112.93,1.6 7.96,1.6 138.39,93.3 138.39,93.3 0,0 -98.62,-91.7 -78.71,-148.9 19.91,-57.3 86.79,-79.6 86.79,-79.6 0,0 98.48,74.8 108.03,124.1 9.54,49.3 -141.98,209.2 -182.33,240.2" /><path
         id="path128"
         style="fill:#c37140;fill-opacity:1;fill-rule:nonzero;stroke:none"
         d="m 3962.79,10556.3 c 0,0 35.78,-126.5 88.27,-221.9 52.49,-95.5 276.77,-238.6 510.58,-377 233.82,-138.4 873.23,-390.5 873.23,-390.5 0,0 229.05,-58 281.54,11.2 52.49,69.1 83.5,360.2 83.5,360.2 0,0 -682.36,553.6 -782.56,618 -100.21,64.4 -360.27,303 -360.27,303 l -694.29,-303" /><path
         id="path130"
         style="fill:#bb643e;fill-opacity:1;fill-rule:nonzero;stroke:none"
         d="m 7248.14,9593.8 c 0,0 -310.16,251.5 -720.53,413.7 -410.37,162.3 -620.33,319.7 -727.7,429.5 -107.36,109.7 -178.16,386.1 -216.33,505.4 -38.18,119.3 -49,147.8 -49,147.8 l 811.92,138.9 c 0,0 438.78,-439 706,-753.9 267.22,-315 617.95,-551.2 617.95,-551.2 v -250.5 l -422.31,-79.7" /><path
         id="path132"
         style="fill:#a45330;fill-opacity:1;fill-rule:nonzero;stroke:none"
         d="m 4174.92,10713.1 c 0,0 50.83,-121.2 175.93,-203.3 0,0 -172.02,-35.2 -175.93,203.3" /><path
         id="path134"
         style="fill:#a45330;fill-opacity:1;fill-rule:nonzero;stroke:none"
         d="m 6153.02,9153.4 c 0,0 26.92,-35.8 25.6,-59.5 -1.32,-23.8 -0.02,-110 -32.08,-135.6 h -24.28 c 0,0 28.02,59.5 33.98,109.4 5.96,49.9 -3.22,85.7 -3.22,85.7" /><path
         id="path136"
         style="fill:#58595b;fill-opacity:1;fill-rule:nonzero;stroke:none"
         d="m 6355.33,9229.9 -297.74,-25.3 95.43,-51.2 c 0,0 14.75,18.4 53.72,15.6 38.97,-2.9 58.42,-25.8 58.42,-25.8 l 52.19,12.1 37.98,74.6" /><path
         id="path138"
         style="fill:#2f1d16;fill-opacity:1;fill-rule:nonzero;stroke:none"
         d="m 7209.19,14670.4 c 15.68,86.4 -43.8,170.5 -85.52,242 -41.71,71.4 -15.81,116.8 -56.52,173.8 -40.71,57 -93.95,72.9 -134.61,118.4 -40.67,45.5 -136.88,148.1 -175.5,187.3 -38.61,39.2 -118.51,57.5 -158.46,66.7 -39.95,9.2 -139.49,76.6 -179.27,108.1 -39.79,31.4 -128.79,20.9 -177.89,12.8 -49.1,-8.2 -121.72,56 -192.76,69.9 -71.04,13.9 -150.25,-26.7 -208.08,-30.7 -57.83,-4 -146.15,-73.4 -185.25,-100.9 -39.11,-27.5 -62.34,-12.9 -150.42,-48.9 -70.47,-28.9 -123.86,-125.2 -142.4,-162.5 -37.35,-41.6 -74.55,-92.7 -110.37,-155.6 -237.44,-417.2 -180.84,-985.1 -174.89,-996.2 18.86,-35.2 309.5,-77.8 435.07,-63.7 266.38,29.9 278.29,68 278.29,68 0,0 303.94,-222.1 326.07,-207.3 10.3,6.9 174.07,106.9 346.22,211.8 200.52,119.1 414.31,245.8 414.31,245.8 l 101.46,33.1 c 6.19,6.5 14.1,12 23.91,16.4 33.61,15 60.17,32.6 81.17,51.4 0.03,0.1 109.77,73.9 125.44,160.3" /><path
         id="path140"
         style="fill:#c37140;fill-opacity:1;fill-rule:nonzero;stroke:none"
         d="m 6994.26,14461.9 c 0,0 -58.33,-308.2 -81.45,-373.8 -23.13,-65.6 -165.47,-220.6 -179.33,-250.6 -13.86,-29.9 -34.35,-416.9 -49.69,-432 -15.34,-15 -141.48,39 -151.73,31.8 -10.26,-7.2 -88.53,-106.5 -92.3,-118.7 -3.77,-12.2 -20.95,-32.3 -20.95,-32.3 0,0 -19.73,-49.7 -42.85,-66 -23.12,-16.2 -50.81,-52.5 -63.26,-65.2 -12.46,-12.8 -113.32,-174.6 -148.11,-185.4 -34.8,-10.8 -379.3,182.3 -423.23,230.3 -43.92,47.9 -170.7,525 -161.26,599.5 9.44,74.5 117.25,249.1 117.25,249.1 0,0 -124.32,116.9 -105.45,265.9 18.88,149 165.3,340.3 301.01,296.6 135.71,-43.6 91.44,-231.7 78.47,-281.6 -12.97,-50 -25.74,-116.8 -22.41,-124.5 3.33,-7.7 152.46,67.8 217.83,117.2 65.36,49.3 104.83,259.9 168.14,318.9 63.3,59 204.75,75.6 257.94,63.3 53.18,-12.2 401.38,-242.5 401.38,-242.5" /><path
         id="path142"
         style="fill:#100f0d;fill-opacity:1;fill-rule:nonzero;stroke:none"
         d="m 14872.4,8567 c 0,0 196.9,46.3 256.6,258.6 59.7,212.3 -137.1,209.7 -234.5,195.9 -97.4,-13.7 -180.2,27.7 -157.6,-171.8 22.6,-199.6 135.5,-282.7 135.5,-282.7" /><path
         id="path144"
         style="fill:#bb643e;fill-opacity:1;fill-rule:nonzero;stroke:none"
         d="m 14606.1,8773.4 c 0,0 700.5,-5.7 1020.3,52.2 319.9,58 128.6,808.9 0,823.1 -128.5,14.1 -755.4,228.9 -816,237.9 -60.6,8.9 -177,115.7 -253.3,-54 -76.2,-169.8 49,-1059.2 49,-1059.2" /><g
         transform="scale(1.01406)"
         id="g146"><path
           id="path148"
           style="fill:#bb643e;fill-opacity:1;fill-rule:nonzero;stroke:none"
           d="m 14570.7,10822.9 c 0,0 80.6,-277.6 193.5,-411.8 112.9,-134.2 577.7,-384.4 577.7,-384.4 0,0 549.3,-4.6 567,19.3 17.6,23.9 290.5,122.9 290.5,122.9 l 100.6,139 c 0,0 -227.7,96.1 -439.4,270.2 -211.7,174.1 -526.9,495.3 -526.9,495.3 l -763,-250.5" /></g><path
         id="path150"
         style="fill:#9c9c9b;fill-opacity:1;fill-rule:nonzero;stroke:none"
         d="m 14159.5,5270.9 822,273.8 -41.1,351.6 -724.2,-152.3 -217.9,-117.2 c 0,0 -84.1,-114.4 -110.5,-155.4 -26.4,-41.1 271.7,-200.5 271.7,-200.5" /><path
         id="path152"
         style="fill:#e4e4e3;fill-opacity:1;fill-rule:nonzero;stroke:none"
         d="m 11899.8,5330.6 -54.8,-428.8 450.6,-125.4 c 0,0 268.8,392.9 261,404.7 -7.8,11.7 -97.8,130.9 -148.6,149.5 -50.8,18.6 -508.2,0 -508.2,0" /><path
         id="path154"
         style="fill:#d4d4d2;fill-opacity:1;fill-rule:nonzero;stroke:none"
         d="m 13140.1,5673.7 1190.4,281.5 609.9,-58.9 -1158.2,-398.6 -642.1,176" /><path
         id="path156"
         style="fill:#9c9c9b;fill-opacity:1;fill-rule:nonzero;stroke:none"
         d="m 12475.5,5357 -125.1,-158.3 -54.8,-422.3 1863.9,494.5 780.9,625.4 -1046.8,-287.1 1.7,2902.8 c 0,0 -219.3,73 -243,50.8 -23.6,-22.1 -428.2,-162.2 -424.8,-179.8 3.5,-17.6 249.8,-2603.8 249.8,-2603.8 0,0 -176,-185.4 -228.7,-198.3 -52.8,-12.8 -773.1,-223.9 -773.1,-223.9" /><path
         id="path158"
         style="fill:#d4d4d2;fill-opacity:1;fill-rule:nonzero;stroke:none"
         d="m 13311.1,5744 -171,-70.3 -1240.3,-343.1 450.6,-131.9 1255.9,382.2 -295.2,163.1" /><path
         id="path160"
         style="fill:#c1bfbd;fill-opacity:1;fill-rule:nonzero;stroke:none"
         d="M 10791.4,8648.3 V 7732 l 1926.4,-334.2 c 0,0 247.8,-26.4 321.8,-211.1 74.1,-184.8 100.5,-1513 100.5,-1513 l 466.2,-92.8 -14.6,3117.6 -2800.3,-50.2" /><path
         id="path162"
         style="fill:#333232;fill-opacity:1;fill-rule:nonzero;stroke:none"
         d="m 11055.3,8830.6 -263.9,259.7 1853.1,85.3 513.2,-212 c 0,0 274.6,8.7 88.9,-211.2 -185.7,-219.9 -264.9,-318.4 -405.6,-260.3 -140.7,58 -1785.7,338.5 -1785.7,338.5" /><path
         id="path164"
         style="fill:#48484a;fill-opacity:1;fill-rule:nonzero;stroke:none"
         d="m 10791.4,9090.3 v -442 c 0,0 2433.7,-347.4 2586.2,-341.5 152.5,5.8 781.9,228.7 781.9,228.7 l -54.7,342 -858.4,-60.6 -445,-46.9 -2010,320.3" /><path
         id="path166"
         style="fill:#100f0d;fill-opacity:1;fill-rule:nonzero;stroke:none"
         d="m 13360,8512 c 0,0 121.2,-39.1 213.1,-7.8 91.8,31.3 269.7,301 269.7,301 0,0 -418.3,113.4 -433.9,105.6 -15.7,-7.8 -168.2,-105.6 -162.3,-158.4 5.9,-52.7 113.4,-240.4 113.4,-240.4" /><g
         transform="scale(1.06715)"
         id="g168"><path
           id="path170"
           style="fill:#252323;fill-opacity:1;fill-rule:nonzero;stroke:none"
           d="m 14577.3,5800.2 c -11.1,0 -178.6,-34.68 -200.6,-76.38 -22,-41.7 -296.8,-629.05 -208.8,-784.61 87.9,-155.64 629.1,-119.85 774.8,-177.57 145.6,-57.72 728.1,-178.61 1011.1,-167.64 283,11.06 346.2,230.8 321.5,302.3 -24.8,71.4 -541.3,324.23 -711.7,502.74 -170.3,178.6 -282.9,379.23 -310.4,420.46 -27.5,41.14 -134.7,46.67 -134.7,46.67 l -541.2,-65.97" /></g><path
         id="path172"
         style="fill:#252323;fill-opacity:1;fill-rule:nonzero;stroke:none"
         d="m 14239.6,5782.2 c 0,0 -187.6,-108.5 -202.3,-120.3 -14.6,-11.7 -240.4,-545.3 -219.9,-665.5 20.5,-120.3 428.1,-284.5 656.8,-387.1 228.7,-102.6 607,-146.6 876.7,-143.7 269.8,3 431,70.4 392.9,287.4 -38.1,217 -202.3,234.6 -433.9,445.7 -231.7,211.1 -419.3,562.9 -434,606.9 -14.7,44 -143.7,143.7 -143.7,143.7 0,0 -120.2,161.3 -214,120.2 -93.8,-41 -278.6,-287.3 -278.6,-287.3" /><g
         transform="scale(1.00947)"
         id="g174"><path
           id="path176"
           style="fill:#bb643e;fill-opacity:1;fill-rule:nonzero;stroke:none"
           d="m 16284.4,9450.68 c 4,286.59 -206.8,628.32 -206.8,628.32 0,0 -201.9,-24.2 -396.4,98.8 h -899.6 c -117.3,-99 -119,-283.52 -92.7,-359.2 31,-89.06 596.4,-708.69 600.3,-902.36 3.8,-193.66 -42.6,-577.03 -100.8,-879.17 -58,-302.04 46.6,-460.83 112.4,-790.02 65.8,-329.18 23.2,-1212.21 19.4,-1227.66 -3.9,-15.56 73.6,-185.95 170.4,-178.22 96.8,7.73 333,81.33 364,96.88 31,15.46 31,54.19 42.6,120.07 11.6,65.77 85.2,143.24 85.2,143.24 0,0 7.7,542.17 112.3,999.23 104.6,456.98 205.3,906.22 166.6,1293.55 -38.8,387.23 19.3,669.95 23.1,956.54" /></g><path
         id="path178"
         style="fill:#c37140;fill-opacity:1;fill-rule:nonzero;stroke:none"
         d="m 13459.4,8717.6 c 0,0 363.9,-57 496.8,-51.2 0,0 -123.2,-258 -160.3,-586.4 -37.1,-328.4 89.9,-600.1 117.3,-838.6 27.4,-238.5 113.4,-901.1 136.8,-1188.5 23.5,-287.3 39.1,-484.8 64.5,-516.1 25.4,-31.2 201.4,15.7 222.9,47 21.5,31.2 1.9,173.9 95.8,275.6 93.8,101.6 299,89.9 299,89.9 0,0 -95.8,248.3 -56.7,572.7 39.1,324.5 113.4,735 148.6,1079.1 35.2,344 105.6,989.1 105.6,989.1 l 27.3,590.3 -207.2,715 c 0,0 -596.3,396.3 -786.4,396.3 -190,0 -216.5,167.1 -418.8,-96.7 -202.2,-263.9 -531.6,-580.6 -503.2,-800.5 28.3,-219.9 116.3,-431 116.3,-431 l 301.7,-246" /><path
         id="path180"
         style="fill:#ececec;fill-opacity:1;fill-rule:nonzero;stroke:none"
         d="m 14050.4,6048.5 c 23.2,-285 38.8,-480.5 64.1,-511.7 25.4,-31.2 201.4,15.7 222.9,47 21.5,31.2 1.9,173.9 95.8,275.6 93.8,101.6 299,89.9 299,89.9 0,0 -23,59.8 -41.9,158.9 -210.8,-31.1 -480,-50.2 -639.9,-59.7" /><path
         id="path182"
         style="fill:#ececec;fill-opacity:1;fill-rule:nonzero;stroke:none"
         d="m 15474.8,6272.1 c -4.1,-114.7 -8.4,-191.3 -9.5,-195.7 -3.9,-15.7 74.3,-187.7 172,-179.9 97.7,7.8 336.2,82.1 367.5,97.8 31.3,15.6 31.3,54.7 43,121.2 11.7,66.4 86,144.6 86,144.6 0,0 0.3,17.6 1.3,49.1 -253.6,-44.2 -530.1,-41.7 -660.3,-37.1" /><path
         id="path184"
         style="fill:#a45330;fill-opacity:1;fill-rule:nonzero;stroke:none"
         d="m 13606.3,9868.6 c 0,0 623.6,-195.5 795.6,-281.5 172,-86 291.2,-99.7 352.8,-335.2 17,-65.1 91.6,-168.8 191.8,-298.5 l 10.5,227.1 -207.2,715 c 0,0 -596.3,396.3 -786.4,396.3 -190,0 -216.5,167.1 -418.8,-96.7 -57.2,-74.7 -124.6,-153.7 -191.3,-233.4 139.3,-34.3 253,-93.1 253,-93.1" /><path
         id="path186"
         style="fill:#bb643e;fill-opacity:1;fill-rule:nonzero;stroke:none"
         d="m 15994.4,10780.5 c -149,174.8 -450,432 -450,432 0,0 85.1,284.4 88,563 2.9,278.5 -112.4,565.9 -112.4,565.9 0,0 71.4,208.2 71.4,463.3 0,255.1 -71.4,488.7 -71.4,488.7 0,0 -164.2,160.3 -273.7,261.9 -109.4,101.6 -336.2,-156.4 -362.7,-187.4 -26.6,-31 -277.5,-1560.2 -277.5,-1560.2 l 64.6,-475 c 0,0 82.5,-319 173.5,-552.2 h 1150.2" /><path
         id="path188"
         style="fill:#252323;fill-opacity:1;fill-rule:nonzero;stroke:none"
         d="m 11614.4,10975 -107.5,-296.1 c 0,0 -161.3,-296.2 -120.3,-563 41.1,-266.8 117.3,-680.3 346,-891.4 228.7,-211.1 1070.3,-428.1 1252.1,-530.7 181.8,-102.6 375.3,-181.8 375.3,-181.8 0,0 96.7,146.6 99.7,187.7 2.9,41 -49.9,516 49.8,788.7 99.7,272.7 453.9,486.7 453.9,486.7 l 1052.3,-106.5 c 0,0 152.9,309.2 327.6,355.9 174.7,46.8 -172.2,115.4 -172.2,115.4 0,0 -685.7,89.7 -993.3,124.9 -307.6,35.2 -718.1,369.5 -864.7,404.6 -146.6,35.2 -1698.7,105.6 -1698.7,105.6" /><path
         id="path190"
         style="fill:#a45330;fill-opacity:1;fill-rule:nonzero;stroke:none"
         d="m 15342.1,12690.3 -52.8,-343 -51.4,103.4 z" /><path
         id="path192"
         style="fill:#a45330;fill-opacity:1;fill-rule:nonzero;stroke:none"
         d="m 14938.2,11867 c 0,0 66.7,-364.2 160.6,-502 0,0 -187.9,208.8 -246.5,438.7 l 85.9,63.3" /><path
         id="path194"
         style="fill:#100f0d;fill-opacity:1;fill-rule:nonzero;stroke:none"
         d="m 11788.4,10582.1 c 0,0 920.6,123.2 1419.1,-41 498.5,-164.2 872.7,41 369.5,172 -503.2,130.9 -850.4,138.8 -944.2,150.5 -93.8,11.7 -917.7,37 -917.7,37 l 214,-187.5 c 0,0 -82.1,-31.3 -140.7,-131" /><path
         id="path196"
         style="fill:#e9eef1;fill-opacity:1;fill-rule:nonzero;stroke:none"
         d="m 13788.1,13989.3 c 0,0 -308.9,27.3 -531.7,-35.2 -222.9,-62.6 -598.2,-339.4 -606,-365.2 -7.8,-25.8 -269.8,-229.1 -359.7,-438.2 -89.9,-209.2 -285.4,-768.3 -351.8,-1010.6 -66.5,-242.4 -273.7,-840.6 -324.5,-1165.1 0,0 230.6,-207.2 559,-246.3 328.4,-39.1 508.3,-11.7 809.3,-78.2 301,-66.4 805.4,0 805.4,0 0,0 383.1,586.4 535.6,750.7 152.5,164.2 277.6,250.2 277.6,250.2 0,0 265.8,136.8 426.1,293.2 160.3,156.3 261.9,402.7 261.9,402.7 0,0 -142.7,255.1 -181.8,513.1 -39,258 48,659.7 48,659.7 0,0 -980.4,269.8 -996,277.6 -15.7,7.8 -371.4,191.6 -371.4,191.6" /><path
         id="path198"
         style="fill:#c2c7ca;fill-opacity:1;fill-rule:nonzero;stroke:none"
         d="m 13963.4,11725.7 c 0,0 108.1,-5.9 194.1,15.6 86,21.5 234.6,89.9 234.6,89.9 0,0 -95.8,-109.5 -197.4,-164.2 -101.7,-54.7 -225.3,-58.7 -225.3,-58.7 l -6,117.4" /><path
         id="path200"
         style="fill:#c37140;fill-opacity:1;fill-rule:nonzero;stroke:none"
         d="m 14312.7,14190.4 c 0,0 -198.2,-156.2 -243.1,-171.8 -45,-15.7 -281.5,-29.3 -281.5,-29.3 0,0 523.1,-1545.3 847.4,-1545.3 190.6,0 162.5,687.1 178.1,706.7 15.6,19.5 241.7,123 241.7,123 0,0 151.9,723.4 81.6,821.1 -70.4,97.8 39.1,168.1 -211.1,269.8 -250.3,101.6 -613.1,-174.2 -613.1,-174.2" /><path
         id="path202"
         style="fill:#a45330;fill-opacity:1;fill-rule:nonzero;stroke:none"
         d="m 14908.6,14027.1 c 0,0 -158.8,-215.7 -190.1,-272.4 -31.2,-56.7 95.1,-604 95.1,-604 l 268.5,25.4 -173.5,851" /><path
         id="path204"
         style="fill:#c37140;fill-opacity:1;fill-rule:nonzero;stroke:none"
         d="m 12785.3,12212.4 c 0,0 -5.9,-480.9 117.3,-821 97.9,-270.6 177.1,-646.8 278,-883.5 l 1184.6,-82.9 c -41.2,34.2 -147.1,132.2 -177.2,153.6 -215,152.5 -359.6,322 -359.6,322 0,0 159.1,391.1 139.5,754.7 -19.5,363.6 -89.9,652.8 -89.9,652.8 0,0 307.1,416.4 93.9,931.5 -213.1,515.1 -725.9,739.3 -1217.2,436.6 0,0 -426.8,-343.7 -403.4,-801.2 23.5,-457.4 434,-662.6 434,-662.6" /><path
         id="path206"
         style="fill:#a45330;fill-opacity:1;fill-rule:nonzero;stroke:none"
         d="m 12785.3,12212.4 c 0,0 7.8,244.3 -15.7,351.8 -23.4,107.6 -151.5,299.1 -151.5,299.1 0,0 65.8,-179.8 84.2,-301 18.5,-121.2 -8.3,-291.8 -8.3,-291.8 l 91.3,-58.1" /><path
         id="path208"
         style="fill:#a45330;fill-opacity:1;fill-rule:nonzero;stroke:none"
         d="m 12967.1,11815.6 c 0,0 7.8,-113.4 74.3,-262 0,0 -148.6,105.6 -74.3,262" /><path
         id="path210"
         style="fill:#da8155;fill-opacity:1;fill-rule:nonzero;stroke:none"
         d="m 13971.8,12886.8 c -19.5,-348 -288.8,-674.4 -288.8,-674.4 l 105.1,38.9 c 0,0 113.4,-260.1 109.4,-635.3 -3.9,-374.9 -42.9,-616.8 -43,-617.1 49.5,140.9 126.9,406 113.4,656.4 -19.5,363.6 -89.9,652.8 -89.9,652.8 0,0 307.1,416.4 93.9,931.5 -46.8,113.2 -108.1,212.3 -180.5,294.9 86.7,-177.5 192.1,-439.8 180.4,-647.7" /><path
         id="path212"
         style="fill:#c37140;fill-opacity:1;fill-rule:nonzero;stroke:none"
         d="m 13180.6,10507.9 c 0,0 132.9,-244.7 469.3,-423.6 214.7,-114.2 949.6,-369.1 949.6,-369.1 l 152.7,458 c 0,0 -262.5,245.9 -458.1,380.7 -195.6,134.7 -465.7,346.7 -465.7,346.7 l -647.8,-392.7" /><path
         id="path214"
         style="fill:#a45330;fill-opacity:1;fill-rule:nonzero;stroke:none"
         d="m 13377.6,10713.1 c 0,0 50.8,-121.2 175.9,-203.3 0,0 -172,-35.2 -175.9,203.3" /><g
         transform="scale(1.1309)"
         id="g216"><path
           id="path218"
           style="fill:#7e7f81;fill-opacity:1;fill-rule:nonzero;stroke:none"
           d="m 16023.3,9625.11 c -221,35.62 -428,-106.15 -428,-106.15 l 31.6,-41.85 122.7,-577.76 c 314.5,21.23 423.2,152.92 423.2,152.92 v 0.01 c 55,51.92 93.9,125.32 104.6,209.94 22.6,179.96 -91.2,342.43 -254.1,362.89" /></g><g
         transform="scale(1.11271)"
         id="g220"><path
           id="path222"
           style="fill:#9c9c9b;fill-opacity:1;fill-rule:nonzero;stroke:none"
           d="m 16277.1,9337.95 c -23,-182.9 -175.9,-314.32 -341.4,-293.53 -165.6,20.8 -281.2,185.93 -258.2,368.84 22.9,182.91 175.8,314.33 341.4,293.53 165.5,-20.8 281.1,-185.92 258.2,-368.84" /></g><g
         transform="scale(1.07728)"
         id="g224"><path
           id="path226"
           style="fill:#a45330;fill-opacity:1;fill-rule:nonzero;stroke:none"
           d="m 16007.6,9762.47 c 14.8,16.06 75.7,153.5 95.4,180.08 19.8,26.57 78.8,76.75 120.2,88.55 41.3,11.9 68.7,-112.08 68.7,-112.08 0,0 8.1,-171.87 -53.9,-189.08 -62,-17.21 -230.4,32.53 -230.4,32.53" /></g><g
         transform="scale(1.09914)"
         id="g228"><path
           id="path230"
           style="fill:#bb643e;fill-opacity:1;fill-rule:nonzero;stroke:none"
           d="m 15599.5,9603 c 0,0 49.3,72.36 105.7,82.49 56.5,10.12 77.6,0 77.6,0 0,0 30.9,28.94 80.1,28.94 49.2,0 65.2,-8.68 65.2,-8.68 0,0 53.5,27.5 99.8,26.05 46.3,-1.45 68,-15.92 68,-15.92 0,0 46.3,23.26 73.8,15.97 27.5,-7.29 99.9,-148.63 108.6,-182.15 8.7,-33.53 21.7,-199.95 7.2,-240.46 -14.4,-40.53 -351.6,-235.92 -379.2,-246.02 -27.5,-10.1 -133.1,-60.78 -195.3,-69.42 -62.2,-8.74 -243.1,-14.47 -243.1,-14.47 0,0 -50.7,154.81 -18.8,282.15 31.8,127.35 150.4,341.52 150.4,341.52" /></g><g
         transform="scale(1.06447)"
         id="g232"><path
           id="path234"
           style="fill:#7e7f81;fill-opacity:1;fill-rule:nonzero;stroke:none"
           d="m 15776.5,9863.92 -150.2,57.76 c 0,0 310.7,71.28 505.2,49.76 0,0 161.9,-75.62 165.2,-351.42 3.3,-275.77 -233.4,-348.1 -233.4,-348.1 0,0 -67.8,-47.26 -409.7,-31.75 -342.1,15.5 122.9,623.75 122.9,623.75" /></g><g
         transform="scale(1.04756)"
         id="g236"><path
           id="path238"
           style="fill:#9c9c9b;fill-opacity:1;fill-rule:nonzero;stroke:none"
           d="m 16273,9696.17 c -27,-193.94 -191.2,-331.3 -366.8,-306.87 -175.6,24.44 -296,201.47 -269,395.4 27,193.94 191.2,331.3 366.8,306.9 175.5,-24.5 296,-201.5 269,-395.43" /></g><g
         transform="scale(1.01344)"
         id="g240"><path
           id="path242"
           style="fill:#7e7f81;fill-opacity:1;fill-rule:nonzero;stroke:none"
           d="m 15724.4,10302.9 -157.5,46.7 c 0,0 177.3,82.8 377.2,76.6 0,0 304.5,-48.9 330.2,-329.7 25.7,-280.74 -209.6,-373.59 -209.6,-373.59 0,0 -65.2,-53.58 -415,-65.52 -349.7,-11.94 74.7,645.51 74.7,645.51" /></g><path
         id="path244"
         style="fill:#9c9c9b;fill-opacity:1;fill-rule:nonzero;stroke:none"
         d="m 16208.1,10128.7 c -11.8,-199.3 -167.6,-352.2 -348,-341.5 -180.3,10.7 -317,180.8 -305.2,380.1 11.7,199.2 167.5,352.1 347.9,341.4 180.4,-10.6 317,-180.8 305.3,-380" /><path
         id="path246"
         style="fill:#58595b;fill-opacity:1;fill-rule:nonzero;stroke:none"
         d="m 15989.7,10129.2 c -4.4,-73 -62.1,-129.1 -128.9,-125.1 -66.9,3.9 -117.6,66.3 -113.2,139.4 4.3,73.1 62,129.1 128.8,125.2 66.9,-4 117.6,-66.4 113.3,-139.5" /><path
         id="path248"
         style="fill:#c37140;fill-opacity:1;fill-rule:nonzero;stroke:none"
         d="m 15215.1,10209 16.7,114.6 c 0,0 158.2,15.1 198,11.9 39.7,-3.2 82.7,-15.9 82.7,-15.9 0,0 42.9,25.4 93.8,25.4 50.9,0 85.9,-17.4 85.9,-17.4 0,0 66.8,17.4 108.2,17.4 41.3,0 65.5,-51.6 65.5,-51.6 0,0 44.2,-8.8 64.9,-39 20.7,-30.3 57.8,-418.9 34.5,-446.5 -23.3,-27.5 -180.8,-67.3 -201.5,-72.1 -20.7,-4.7 -360.4,-98.6 -366.3,-101.8 -5.9,-3.1 -128.9,-14.6 -128.9,-14.6 0,0 -134.7,165 -139.4,198.4 -4.8,33.4 85.9,391.2 85.9,391.2" /><path
         id="path250"
         style="fill:#a45330;fill-opacity:1;fill-rule:nonzero;stroke:none"
         d="m 15854.5,10039.7 24.9,249.9 c -7.9,2.7 -13.5,3.8 -13.5,3.8 0,0 -12.4,26.3 -34.5,41.4 l 23.1,-295.1" /><path
         id="path252"
         style="fill:#a45330;fill-opacity:1;fill-rule:nonzero;stroke:none"
         d="m 15730.4,10012.8 -38.2,314.8 c 0,0 -12.9,6.4 -34.4,11.5 l 72.6,-326.3" /><path
         id="path254"
         style="fill:#a45330;fill-opacity:1;fill-rule:nonzero;stroke:none"
         d="m 15484.7,10263.9 c 45.3,-95.4 63.1,-262.4 66.1,-250.5 3,11.9 -8.1,197.2 -38.3,306.2 0,0 -31.6,9.3 -65.7,14 12.4,-20.1 25.4,-43.4 37.9,-69.7" /><path
         id="path256"
         style="fill:#7e7f81;fill-opacity:1;fill-rule:nonzero;stroke:none"
         d="m 15268.6,9619.4 c 118.8,95.8 159.5,287.5 115.9,451.3 -41.5,155.5 -98.5,219.5 -152.7,252.9 -78.8,8.7 -166.9,0.6 -166.9,0.6 -261.7,-25.2 -392.5,-98.6 -392.5,-98.6 0,0 144.2,-182.6 160.4,-231.8 l -18.6,-478.6 c 224.6,18.1 375.7,69.9 454.4,104.2" /><path
         id="path258"
         style="fill:#9c9c9b;fill-opacity:1;fill-rule:nonzero;stroke:none"
         d="m 15146.6,9890 c 2.1,-205.1 -146.7,-372.9 -332.4,-374.8 -185.7,-1.9 -337.9,162.8 -340,367.9 -2.1,205.2 146.7,373 332.4,374.9 185.7,1.9 337.9,-162.8 340,-368" /><g
         transform="scale(1.09263)"
         id="g260"><path
           id="path262"
           style="fill:#a45330;fill-opacity:1;fill-rule:nonzero;stroke:none"
           d="m 16237.3,9789.43 c -23.1,-4.43 -45.6,-15.73 -45.6,-15.73 0,0 97.4,-218.5 108.3,-244.88 -6.8,21.82 -42.1,172.27 -62.7,260.61" /></g><g
         transform="scale(1.08269)"
         id="g264"><path
           id="path266"
           style="fill:#a45330;fill-opacity:1;fill-rule:nonzero;stroke:none"
           d="m 16210.4,9869.39 c -23.4,-7.46 -40.4,-16.25 -40.4,-16.25 0,0 112.5,-188.69 130,-220.34 -11.7,26.53 -64.9,165.98 -89.6,236.59" /></g><g
         transform="scale(1.07176)"
         id="g268"><path
           id="path270"
           style="fill:#a45330;fill-opacity:1;fill-rule:nonzero;stroke:none"
           d="m 16293.1,9688.41 c -8.7,12.95 -107.2,244.46 -107.2,244.46 0,0 -17.6,8.37 -63.4,2.47 54.5,-77.57 177.5,-257.26 170.6,-246.93" /></g><g
         transform="scale(1.007)"
         id="g272"><path
           id="path274"
           style="fill:#2f1d16;fill-opacity:1;fill-rule:nonzero;stroke:none"
           d="m 16284.5,14568.4 c 15.5,85.8 -43.5,169.4 -85,240.3 -41.4,71 -15.7,116 -56.1,172.6 -40.4,56.6 -93.3,72.4 -133.7,117.6 -40.4,45.2 -135.9,147.1 -174.2,186 -38.4,38.9 -117.7,57.2 -157.3,66.3 -39.8,9.1 -138.6,76.1 -178.1,107.2 -39.5,31.2 -127.9,20.9 -176.7,12.8 -48.7,-8.1 -120.8,55.6 -191.4,69.4 -70.5,13.8 -149.2,-26.5 -206.7,-30.5 -57.4,-4 -145.1,-72.9 -183.9,-100.2 -38.8,-27.3 -61.9,-12.8 -149.3,-48.6 -70.1,-28.6 -123.1,-124.2 -141.5,-161.3 -37.1,-41.3 -74,-92 -109.6,-154.5 -235.7,-414.3 -179.5,-978.2 -173.7,-989.3 18.8,-35 307.4,-77.3 432.1,-63.3 264.6,29.7 276.4,67.6 276.4,67.6 0,0 301.8,-220.6 323.7,-205.9 10.2,6.9 172.9,106.1 343.9,210.3 199.1,118.3 411.4,244.1 411.4,244.1 l 100.7,32.9 c 6.2,6.4 14,11.9 23.7,16.3 33.5,14.9 59.8,32.3 80.7,51.1 0.1,0 109,73.3 124.6,159.1" /></g><path
         id="path276"
         style="fill:#c37140;fill-opacity:1;fill-rule:nonzero;stroke:none"
         d="m 16183.5,14461.9 c 0,0 -58.3,-308.2 -81.4,-373.8 -23.2,-65.6 -165.5,-220.6 -179.3,-250.6 -13.9,-29.9 -34.4,-416.9 -49.7,-432 -15.4,-15 -141.5,39 -151.8,31.8 -10.2,-7.2 -88.5,-106.5 -92.3,-118.7 -3.7,-12.2 -20.9,-32.3 -20.9,-32.3 0,0 -19.7,-49.7 -42.9,-66 -23.1,-16.2 -50.8,-52.5 -63.2,-65.2 -12.5,-12.8 -113.4,-174.6 -148.1,-185.4 -34.8,-10.8 -379.3,182.3 -423.3,230.3 -43.9,47.9 -170.7,525 -161.2,599.5 9.4,74.5 117.2,249.1 117.2,249.1 0,0 -124.3,116.9 -105.4,265.9 18.9,149 165.3,340.3 301,296.6 135.7,-43.6 91.4,-231.7 78.5,-281.6 -13,-50 -25.8,-116.8 -22.5,-124.5 3.4,-7.7 152.5,67.8 217.9,117.2 65.3,49.3 104.8,259.9 168.1,318.9 63.3,59 204.8,75.6 257.9,63.3 53.2,-12.2 401.4,-242.5 401.4,-242.5" /></g></g></svg>