<?xml version="1.0" encoding="UTF-8" standalone="no"?>
<svg
   xmlns:dc="http://purl.org/dc/elements/1.1/"
   xmlns:cc="http://creativecommons.org/ns#"
   xmlns:rdf="http://www.w3.org/1999/02/22-rdf-syntax-ns#"
   xmlns:svg="http://www.w3.org/2000/svg"
   xmlns="http://www.w3.org/2000/svg"
   viewBox="0 0 2666.6667 2666.6667"
   height="2666.6667"
   width="2666.6667"
   xml:space="preserve"
   id="svg2"
   version="1.1"><metadata
     id="metadata8"><rdf:RDF><cc:Work
         rdf:about=""><dc:format>image/svg+xml</dc:format><dc:type
           rdf:resource="http://purl.org/dc/dcmitype/StillImage" /></cc:Work></rdf:RDF></metadata><defs
     id="defs6"><clipPath
       id="clipPath124"
       clipPathUnits="userSpaceOnUse"><path
         id="path122"
         d="m 14801.7,10615.3 v 0 h 0.1 -0.1" /></clipPath></defs><g
     transform="matrix(1.3333333,0,0,-1.3333333,0,2666.6667)"
     id="g10"><g
       transform="scale(0.1)"
       id="g12"><g
         transform="scale(1.22699)"
         id="g14"><path
           id="path16"
           style="fill:none;fill-opacity:1;fill-rule:nonzero;stroke:none"
           d="M 16300,0 H 0 V 16300 H 16300 V 0" /></g><g
         transform="scale(1.03002)"
         id="g18"><path
           id="path20"
           style="fill:#974d32;fill-opacity:1;fill-rule:nonzero;stroke:none"
           d="m 16028.5,10568.8 c 0,0 89.3,86.8 114,114 24.8,27.3 69.5,69.4 99.2,62 29.8,-7.4 58.3,-154.3 58.3,-154.3 l -135.7,-99.5 -135.8,77.8" /></g><path
         id="path22"
         style="fill:#7c7d7f;fill-opacity:1;fill-rule:nonzero;stroke:none"
         d="m 12320.1,9088.5 -171.1,717.3 -1410.1,150 v -803.3 c 94.8,-63.3 239.7,-161.8 292.1,-206.7 80.4,-68.9 310.2,-114.9 932.6,-68.9 622.4,46 356.5,211.6 356.5,211.6" /><path
         id="path24"
         style="fill:#b9b8b7;fill-opacity:1;fill-rule:nonzero;stroke:none"
         d="m 13373.2,6094.7 h -136.4 c 0,0 -919.1,1828.7 -930.6,2012.5 -11.5,183.8 712,432.7 712,432.7 l -585.4,532.3 -1693.9,245 V 7257.8 c 259.2,160.3 717.5,429 855.1,412.8 195.3,-22.9 1194.7,-1688.7 1194.7,-1688.7 l -425,-172.4 504.7,-114.2 873.2,183.2 -368.4,216.2" /><path
         id="path26"
         style="fill:#252323;fill-opacity:1;fill-rule:nonzero;stroke:none"
         d="m 13603.4,6219.3 c 0,0 -251.7,-666.3 -228.8,-727.6 23,-61.3 1125.9,-520.8 1386.3,-528.5 260.4,-7.6 459.5,137.9 444.2,306.4 -15.3,168.5 -222.1,160.8 -467.2,444.2 -245.1,283.4 -409.7,505.5 -409.7,505.5 0,0 34.4,137.8 -134.1,199.1 -168.5,61.3 -590.7,-199.1 -590.7,-199.1" /><g
         transform="scale(1.02915)"
         id="g28"><path
           id="path30"
           style="fill:#252323;fill-opacity:1;fill-rule:nonzero;stroke:none"
           d="m 14729.8,6534.3 c -59.6,-14.96 -246.6,-96.78 -246.6,-96.78 0,0 -53.7,-44.69 -100.8,-156.24 -47.1,-111.65 -123,-663.85 -62,-729.34 61,-65.49 476.3,-52.08 677.3,-104.16 200.9,-52.08 595.3,-156.34 863.2,-141.38 267.9,14.87 439.1,126.41 357.2,275.27 -81.8,148.87 -483.7,320.08 -610.2,439.11 -126.5,119.02 -171.2,156.24 -193.5,193.46 -22.3,37.21 -126.5,174.9 -264.2,262.35 -137.7,87.45 -420.4,57.71 -420.4,57.71" /></g><path
         id="path32"
         style="fill:#b8633d;fill-opacity:1;fill-rule:nonzero;stroke:none"
         d="m 14464.5,9343.6 440.9,-254.2 c 0,0 -203.9,-516.9 -157.9,-844.4 45.9,-327.4 155.1,-545.6 157.9,-913.3 2.9,-367.6 0,-706.5 0,-706.5 0,0 71.9,-270 181,-293 109.1,-22.9 189.5,40.3 292.9,160.9 103.4,120.6 212.6,172.3 212.6,172.3 0,0 212.5,1556.7 224,1901.3 11.5,344.7 0,442.3 0,442.3 0,0 46,627 -40.2,887.9 -86.2,260.9 -730.3,458.2 -730.3,458.2 l -402.8,-248.9 -268.2,-300.4 c 0,0 -96.4,-196.7 -69.8,-236.4 26.6,-39.7 159.9,-225.8 159.9,-225.8" /><path
         id="path34"
         style="fill:#100f0d;fill-opacity:1;fill-rule:nonzero;stroke:none"
         d="m 12938.1,8302.5 c 0,0 80.4,-109.2 281.5,80.4 201,189.6 453.7,700.8 465.2,752.5 11.5,51.7 206.8,172.3 -201,172.3 -407.9,0 -505.5,120.6 -545.7,-80.4 -40.2,-201.1 -84.2,-585.9 -65.1,-603.1 19.1,-17.3 65.1,-321.7 65.1,-321.7" /><path
         id="path36"
         style="fill:#ac5a35;fill-opacity:1;fill-rule:nonzero;stroke:none"
         d="m 14579.5,9635.8 c 0,0 24.4,-158.7 104.8,-292.2 80.4,-133.5 117.4,-194.4 117.4,-194.4 l -337.2,194.4 -136.3,119.8 c 0,0 57.4,217.7 80.4,223.4 23,5.8 170.9,-51 170.9,-51" /><path
         id="path38"
         style="fill:#252323;fill-opacity:1;fill-rule:nonzero;stroke:none"
         d="m 15051.7,10148.3 c 0,0 -344.4,-283.4 -535.9,-612.7 -191.5,-329.4 -408.5,575.4 -408.5,575.4 l 944.4,37.3" /><path
         id="path40"
         style="fill:#c37140;fill-opacity:1;fill-rule:nonzero;stroke:none"
         d="m 13175.5,9206.2 c -20.5,-82.8 256.6,-153.1 256.6,-153.1 0,0 -111.1,-390.6 0,-1133.6 111,-742.9 149.3,-1202.4 164.6,-1470.5 15.4,-268 0,-344.6 0,-344.6 0,0 23,-122.5 69,-122.5 45.9,0 145.5,61.2 145.5,61.2 0,0 61.3,199.2 137.9,275.7 76.5,76.6 245,99.6 245,99.6 0,0 -68.9,566.8 30.7,1087.6 99.5,520.8 291,1891.7 291,2182.7 0,291.1 -823,317.6 -823,317.6 0,0 -417.7,-398 -517.3,-800.1" /><path
         id="path42"
         style="fill:#252323;fill-opacity:1;fill-rule:nonzero;stroke:none"
         d="m 11283.8,11120.9 c 0,0 -91.9,-235.6 -126.4,-315 -34.5,-79.4 -137,-210.3 0,-722.7 137,-512.5 371.7,-574.4 806.2,-804.2 434.5,-229.8 515,-482.5 664.3,-666.3 149.3,-183.8 310.2,-310.2 310.2,-310.2 0,0 497.7,1543.1 794.5,1736.6 296.9,193.4 -978.3,1227.4 -978.3,1227.4 l -861.7,68.9 -608.8,-214.5" /><path
         id="path44"
         style="fill:#b8633d;fill-opacity:1;fill-rule:nonzero;stroke:none"
         d="m 15023.2,13334.6 c 11.5,-11.7 46,-310.4 40.2,-528.7 -5.7,-218.3 -23,-340.3 -40.2,-359.7 -17.2,-19.4 41.5,-266.4 40.9,-559.4 -0.7,-292.9 -22,-505.4 -22,-505.4 0,0 343,-390.3 613,-548.5 269.9,-158.1 344.6,-221.3 344.6,-221.3 0,0 -1033.9,-235.5 -1051.2,-206.7 -17.2,28.7 -476.7,275.7 -574.4,505.4 -97.6,229.8 -283,1034 -283,1034 0,0 111,1204.9 122.3,1280.2 11.4,75.4 543.4,232 543.4,232 l 266.4,-121.9" /><path
         id="path46"
         style="fill:#ac5a35;fill-opacity:1;fill-rule:nonzero;stroke:none"
         d="m 14462.2,12223.8 c 0,0 118.7,231.7 187.6,294.9 69,63.2 69,63.2 69,63.2 0,0 -109.2,-28.7 -166.6,-91.9 -57.5,-63.2 -137.9,-149.4 -137.9,-149.4 l 47.9,-116.8" /><path
         id="path48"
         style="fill:#974d32;fill-opacity:1;fill-rule:nonzero;stroke:none"
         d="m 14343.5,12116.6 c 0,0 57.4,-259.1 172.3,-506.7 0,0 -84.2,476.1 -101.5,636.9 -17.2,160.8 -70.8,-130.2 -70.8,-130.2" /><path
         id="path50"
         style="fill:#e9eef1;fill-opacity:1;fill-rule:nonzero;stroke:none"
         d="m 13432.1,14029.4 h -264.2 l -1165.8,-793.6 c 0,0 -274.1,-613.7 -473.2,-1126.9 -199.2,-513.1 -260.5,-957.3 -245.1,-988 15.3,-30.6 337,-206.7 742.9,-260.3 405.9,-53.7 1148.8,-15.4 1233.1,0 84.2,15.3 556.9,628 600.1,696.9 43.2,68.9 479.8,497.8 602.3,666.3 0,0 -46,742.9 0,1011 45.9,268.1 -602.3,642.5 -602.3,642.5 l -427.8,152.1" /><path
         id="path52"
         style="fill:#c37140;fill-opacity:1;fill-rule:nonzero;stroke:none"
         d="m 13859.9,14155.8 c 0,0 -20,-69 -175.1,-91.9 -155.1,-23 -252.7,-34.5 -252.7,-34.5 0,0 91.9,-293 160.8,-735.2 68.9,-442.3 270,-855.9 459.6,-884.6 189.5,-28.8 229.7,448 224,626.1 -5.8,178 45.9,304.4 45.9,350.4 0,45.9 0,631.8 0,631.8 0,0 -126.3,224 -183.8,241.3 -57.4,17.2 -278.7,-103.4 -278.7,-103.4" /><path
         id="path54"
         style="fill:#ac5a35;fill-opacity:1;fill-rule:nonzero;stroke:none"
         d="m 14224.8,13299.9 58.1,-126 -6.4,-138.2 -169.2,210.6 -208,-145.5 c 0,0 126.3,233.6 134,252.7 7.7,19.2 27.5,180 57.8,298.7 30.3,118.7 76.1,225.1 76.1,225.1 0,0 88.2,-305.5 88.2,-317 0,-11.5 -30.6,-260.4 -30.6,-260.4" /><path
         id="path56"
         style="fill:#c37140;fill-opacity:1;fill-rule:nonzero;stroke:none"
         d="m 12873,13985.4 c 0,0 -227.9,-40.7 -474.9,-279.8 0,0 -400.1,-235.3 -432.7,-639.3 -32.5,-404 386.8,-783.1 386.8,-783.1 0,0 172.3,-712.3 264.2,-1062.7 91.9,-350.4 522.7,-1011 746.8,-1120.1 224,-109.1 585.9,-120.6 585.9,-120.6 l 275.7,442.3 c 0,0 -758.3,522.7 -821.4,660.6 0,0 114.8,373.3 103.3,775.4 -11.4,402.1 -103.3,573.1 -103.3,573.1 0,0 160.8,437.9 86.1,845.7 -74.7,407.9 -321.6,752.5 -321.6,752.5 0,0 -183,-8.1 -294.9,-44" /><path
         id="path58"
         style="fill:#c37140;fill-opacity:1;fill-rule:nonzero;stroke:none"
         d="m 14224.8,10422.1 c 0,0 38.3,70.8 79.1,109.1 40.9,38.3 217.8,150.2 258.2,152.8 81.3,5.1 159.4,-98.6 45.6,-130.9 -11.4,-3.3 12.8,-112.5 12.8,-112.5 0,0 97,-47.2 -114.9,-85.5 -211.9,-38.3 -212.7,-75.2 -280.8,-58.8 -68.2,16.5 -118.7,53.2 -118.7,53.2 l 118.7,72.6" /><path
         id="path60"
         style="fill:#ac5a35;fill-opacity:1;fill-rule:nonzero;stroke:none"
         d="m 12352.2,12283.2 c -23,281.4 -11.5,367.6 -11.5,367.6 0,0 -126.4,379.1 -112.3,626.1 14,247 169.7,428.7 169.7,428.7 0,0 -400.1,-235.3 -432.7,-639.3 -32.5,-404 386.8,-783.1 386.8,-783.1" /><path
         id="path62"
         style="fill:#ac5a35;fill-opacity:1;fill-rule:nonzero;stroke:none"
         d="m 12478.6,12775.3 c 0,0 88,-141.7 206.7,-214.5 118.8,-72.7 252.8,-103.4 252.8,-103.4 0,0 -344.7,-103.4 -459.5,317.9" /><g
         transform="scale(1.18797)"
         id="g64"><path
           id="path66"
           style="fill:#d4d4d2;fill-opacity:1;fill-rule:nonzero;stroke:none"
           d="m 8918.16,8187.92 c 0,0 -90.32,-174.08 32.24,-238.47 l 7317.4,1405.41 c 0,0 32.2,109.6 -38.8,128.94 L 8918.16,8187.92" /></g><g
         transform="scale(1.05233)"
         id="g68"><path
           id="path70"
           style="fill:#b8633d;fill-opacity:1;fill-rule:nonzero;stroke:none"
           d="m 14341.5,9787.94 c 0,0 360.3,-64.27 644.2,-69.74 283.8,-5.45 620.5,-45.48 773.3,-16.37 152.8,29.12 367.6,200.15 429.4,236.54 61.9,36.39 111.6,49.73 99.4,158.93 -12,109.1 -94.5,305.6 -111.5,327.5 -17,21.8 -72.8,0 -72.8,0 0,0 -94.7,17 -169.8,-26.7 0,0 -104.4,19.4 -155.3,-24.3 0,0 -99.4,-4.8 -157.7,-24.2 -58.2,-19.4 -57.5,-132.2 -57.5,-132.2 l 102,18.1 c 0,0 61.1,-61.2 58.1,-182.2 l -1191.9,-228.89 -189.9,-36.47" /></g><g
         transform="scale(1.02646)"
         id="g72"><path
           id="path74"
           style="fill:#974d32;fill-opacity:1;fill-rule:nonzero;stroke:none"
           d="m 16298,10401.5 c 2,-23.4 -64.7,186.5 -121.9,233.8 l 36.6,19.7 c 0,0 75.3,-139.1 85.3,-253.5" /></g><g
         transform="scale(1.03557)"
         id="g76"><path
           id="path78"
           style="fill:#974d32;fill-opacity:1;fill-rule:nonzero;stroke:none"
           d="m 16191.6,10566.4 c 0,0 54.2,-74 108.4,-217 0,0 -22.7,152.2 -66.8,235.1 l -41.6,-18.1" /></g><g
         transform="scale(1.04575)"
         id="g80"><path
           id="path82"
           style="fill:#974d32;fill-opacity:1;fill-rule:nonzero;stroke:none"
           d="m 16204.8,10490.3 c 0,0 61,-58.6 75.7,-224.6 0,0 19.5,114.8 -37.9,234.4 0,0 -1.2,0 -37.8,-9.8" /></g><path
         id="path84"
         style="fill:#f5f6f5;fill-opacity:1;fill-rule:nonzero;stroke:none"
         d="m 14172.8,6999.1 c -222.8,-2 -474.5,5.7 -622.9,11.3 25.6,-243.3 39.1,-426.6 46.8,-561.4 15.4,-268 0,-344.6 0,-344.6 0,0 23,-122.5 69,-122.5 45.9,0 145.5,61.2 145.5,61.2 0,0 61.3,199.2 137.9,275.7 76.5,76.6 245,99.6 245,99.6 0,0 -31,255.3 -21.3,580.7" /><path
         id="path86"
         style="fill:#f5f6f5;fill-opacity:1;fill-rule:nonzero;stroke:none"
         d="m 14905.5,7323 c 2.8,-364.3 -0.1,-697.8 -0.1,-697.8 0,0 71.9,-270 181,-293 109.1,-22.9 189.5,40.3 292.9,160.9 103.4,120.6 212.6,172.3 212.6,172.3 0,0 39.3,288.2 85.1,644 -264.5,-13.2 -647.5,6.4 -771.5,13.6" /><path
         id="path88"
         style="fill:#4c4d4e;fill-opacity:1;fill-rule:nonzero;stroke:none"
         d="m 13258.2,10095.4 c -90.9,516.6 -391.4,895.4 -671.3,846.2 -75.8,-3.1 -224.2,-26.6 -224.2,-26.6 0,0 -87.1,-169.3 -136.9,-211.5 -13.8,-11.6 -5.8,-111.9 12.9,-250.8 -28,-158.3 -28.1,-342.9 5.8,-535.5 39.8,-226.3 119.9,-426.1 220.8,-575.2 60.4,-123.3 157.4,-296.6 226.4,-297.5 107.2,-1.4 224.1,26.6 224.1,26.6 280,49.2 433.2,507.8 342.4,1024.3" /><path
         id="path90"
         style="fill:#6b6c6e;fill-opacity:1;fill-rule:nonzero;stroke:none"
         d="m 13034,10068.9 c 90.9,-516.5 -62.4,-975.1 -342.3,-1024.4 -279.9,-49.2 -580.5,329.6 -671.3,846.1 -90.9,516.6 62.4,975.2 342.3,1024.4 279.9,49.3 580.5,-329.6 671.3,-846.1" /><path
         id="path92"
         style="fill:#898b8b;fill-opacity:1;fill-rule:nonzero;stroke:none"
         d="m 12620.9,9960.7 c 26.9,-134.8 -23.6,-258.5 -112.7,-276.3 -89.2,-17.8 -183.3,77 -210.3,211.8 -26.9,134.8 23.6,258.6 112.7,276.4 89.2,17.8 183.3,-77 210.3,-211.9" /><path
         id="path94"
         style="fill:#d4d4d2;fill-opacity:1;fill-rule:nonzero;stroke:none"
         d="m 12442.2,10054.5 c 0,0 96.1,-78.6 59.5,-251.9 l -514.4,-98.8 -23.7,265.9 478.6,84.8" /><g
         transform="scale(1.16061)"
         id="g96"><path
           id="path98"
           style="fill:#4c4d4e;fill-opacity:1;fill-rule:nonzero;stroke:none"
           d="m 16232.4,9564.76 c -67.7,384.59 -291.5,666.64 -499.9,629.94 -56.4,-2.2 -166.9,-19.7 -166.9,-19.7 0,0 -64.8,-126.1 -102,-157.5 -10.2,-8.7 -4.3,-83.33 9.6,-186.78 -20.8,-117.86 -20.9,-255.28 4.4,-398.7 29.6,-168.48 89.2,-317.28 164.4,-428.23 45,-91.85 117.2,-220.86 168.5,-221.52 79.9,-1.04 166.9,19.75 166.9,19.75 208.4,36.66 322.6,378.15 255,762.74" /></g><g
         transform="scale(1.14872)"
         id="g100"><path
           id="path102"
           style="fill:#6b6c6e;fill-opacity:1;fill-rule:nonzero;stroke:none"
           d="m 16231.7,9643.75 c 68.3,-388.57 -47,-733.59 -257.6,-770.63 -210.6,-37.04 -436.7,247.94 -505,636.51 -68.4,388.57 46.9,733.57 257.5,770.67 210.6,37 436.7,-248 505.1,-636.55" /></g><g
         transform="scale(1.12343)"
         id="g104"><path
           id="path106"
           style="fill:#898b8b;fill-opacity:1;fill-rule:nonzero;stroke:none"
           d="m 16279.3,9777.67 c 20.7,-103.69 -18.1,-198.87 -86.7,-212.57 -68.6,-13.7 -141,59.25 -161.7,162.94 -20.7,103.7 18.1,198.87 86.7,212.58 68.6,13.69 141,-59.25 161.7,-162.95" /></g><g
         transform="scale(1.1169)"
         id="g108"><path
           id="path110"
           style="fill:#d4d4d2;fill-opacity:1;fill-rule:nonzero;stroke:none"
           d="m 16249.6,9907.89 c 0,0 50.4,-86.37 34.2,-153.49 l -454.8,-87.35 -21.9,162.42 442.5,78.42" /></g><path
         id="path112"
         style="fill:#2f1d16;fill-opacity:1;fill-rule:nonzero;stroke:none"
         d="m 14179.5,14072.8 c -6.7,-10.4 -63.3,-2.4 -63.3,-2.4 0,0 -66.6,-67 -94.5,-78.5 -27.9,-11.5 -76.7,29.3 -72.6,35.6 2.3,3.7 -107.3,137.8 -86.6,211.2 27.1,96.2 16.7,150.8 30.3,188.7 33.4,93.2 155.4,365.6 337.7,489.1 182.2,123.5 475.3,149.8 642.4,89.5 167.1,-60.2 262.9,-130.6 404.7,-198.2 141.8,-67.5 189.6,-212.9 261.7,-297.4 72.1,-84.5 137.2,-161.6 106.5,-291.8 -30.7,-130.2 -158.7,-186.2 -158.7,-186.2 l -931.1,-326.8 c 0,0 -279,53.8 -277.8,92.2 1.1,38.4 -98.7,275 -98.7,275" /><path
         id="path114"
         style="fill:#c37140;fill-opacity:1;fill-rule:nonzero;stroke:none"
         d="m 14489.2,14132.5 c 0,0 -71.6,175.4 -158.4,223.3 -86.8,47.9 -161.2,-92.4 -196.2,-183.6 -35.1,-91.2 -13.2,-191.4 9.4,-229.4 22.6,-38.1 23.2,-65.5 23.2,-65.5 0,0 -76.9,-378.2 -56.5,-505 20.5,-126.8 509.3,-508.3 547.1,-509.1 37.7,-0.7 322.4,360.2 322.4,360.2 0,0 128,-61.6 152.5,-50.9 24.5,10.7 51.9,337.1 91.7,376.2 39.8,39.1 40.8,17.8 98.6,89.5 57.8,71.6 170.7,407.7 170.6,416.6 -0.2,8.9 -214.1,202.1 -322,253.8 -107.9,51.7 -181.9,-103.7 -233.3,-149.9 -51.5,-46.4 -224.2,-58.9 -263.4,-92.5 -39.2,-33.6 -126.4,-151 -148.4,-148.7 -22,2.4 -57.5,34 -57.5,34 l 20.2,181" /><path
         id="path116"
         style="fill:#c37140;fill-opacity:1;fill-rule:nonzero;stroke:none"
         d="m 13949.1,9979.8 c 0,0 490.1,-99.6 605,-80.4 114.9,19.1 268.1,107.2 444.2,126.3 176.2,19.2 256.6,61.3 283.4,114.9 26.8,53.6 -5.1,408.5 -28.1,449.3 -23,40.9 -66.4,35.8 -66.4,35.8 0,0 -30.6,28.1 -79.1,25.5 -48.5,-2.5 -62.7,-17.9 -62.7,-17.9 0,0 -72.6,20.8 -110.9,18.1 -38.3,-2.7 -68.9,-35.9 -68.9,-35.9 0,0 -209.4,2.5 -245.1,-17.9 -35.8,-20.4 -56.5,-167 -56.5,-167 l 56.5,10 v -220.8 l -600,-125.5 -71.4,-114.5" /><g
         id="g118"><g
           clip-path="url(#clipPath124)"
           id="g120"><path
             id="path126"
             style="fill:#b25d38;fill-opacity:1;fill-rule:nonzero;stroke:none"
             d="m 14801.7,10615.3 h 0.1 v 0 z" /></g></g><path
         id="path128"
         style="fill:#b7643a;fill-opacity:1;fill-rule:nonzero;stroke:none"
         d="m 14888.9,10261.1 c 0,0 -20.7,223.5 -33.5,272.7 -12.9,49 -53.4,81.2 -53.7,81.5 h 0.1 l 63.8,0.2 c 0,0 30.6,-33.2 38.3,-89.4 7.6,-56.2 -15,-265 -15,-265" /><path
         id="path130"
         style="fill:#b7643a;fill-opacity:1;fill-rule:nonzero;stroke:none"
         d="m 15091.8,10300.1 c -9.6,0 -12,132.2 -34.7,217.9 -22.9,86.4 -53.7,125.6 -53.7,125.6 l 42,-10.3 34.3,14.4 c 27.7,-156.6 22.2,-345.7 12.3,-347.5 0,-0.1 -0.1,-0.1 -0.2,-0.1" /><path
         id="path132"
         style="fill:#b25d38;fill-opacity:1;fill-rule:nonzero;stroke:none"
         d="m 15217.3,10621.3 c -7.6,2.8 -14.7,4 -20.1,4.4 h 19.3 c 0.3,-1.5 0.6,-2.9 0.8,-4.4" /><path
         id="path134"
         style="fill:#b7643a;fill-opacity:1;fill-rule:nonzero;stroke:none"
         d="m 15216.2,10324 c -4.4,0 -1,27.5 -7.1,117.9 -6.1,91.9 -21.9,183.8 -21.9,183.8 h 10 c 5.4,-0.4 12.5,-1.6 20.1,-4.4 25.4,-129.6 3.9,-296.3 -0.8,-297.2 -0.1,-0.1 -0.2,-0.1 -0.3,-0.1" /><path
         id="path136"
         style="fill:#ac5a35;fill-opacity:1;fill-rule:nonzero;stroke:none"
         d="m 14564,10430.6 c 0,0 22.4,126.3 39.4,146.7 17.1,20.3 61.3,30.6 61.3,30.6 0,0 -59.1,12.9 -100.7,-45 -41.5,-57.9 -61.3,-98.8 -65.5,-104.5 -4.3,-5.6 -93.7,-56 -93.7,-56 l 159.2,28.2" /><path
         id="path138"
         style="fill:#252323;fill-opacity:1;fill-rule:nonzero;stroke:none"
         d="m 3482.05,11197.5 c 0,0 686.86,-119 1281.05,-400.4 594.19,-281.4 830.08,-817.3 779.06,-817.3 -51.02,0 -1119.22,-174 -1119.22,-174 l -672.27,438.2 -614.63,588.9 346.01,364.6" /><path
         id="path140"
         style="fill:#b8633d;fill-opacity:1;fill-rule:nonzero;stroke:none"
         d="m 4513.12,9343.6 440.91,-254.2 c 0,0 -203.91,-516.9 -157.96,-844.4 45.96,-327.4 155.07,-545.6 157.96,-913.3 2.88,-367.6 0,-706.5 0,-706.5 0,0 71.81,-270 180.94,-293 109.15,-22.9 189.57,40.3 292.96,160.9 103.39,120.6 212.54,172.3 212.54,172.3 0,0 212.53,1556.7 224.01,1901.3 11.49,344.7 0,442.3 0,442.3 0,0 45.96,627 -40.21,887.9 -86.16,260.9 -730.28,458.2 -730.28,458.2 l -402.76,-248.9 -268.29,-300.4 c 0,0 -96.38,-196.7 -69.77,-236.4 26.61,-39.7 159.95,-225.8 159.95,-225.8" /><path
         id="path142"
         style="fill:#b8633d;fill-opacity:1;fill-rule:nonzero;stroke:none"
         d="m 4449.16,10860.6 h 1210.13 c -261.7,171.5 -568.66,520.8 -568.66,520.8 0,0 21.37,212.5 22.01,505.4 0.64,293 -58.08,540 -40.85,559.4 17.23,19.4 34.46,141.4 40.21,359.7 5.74,218.3 -28.72,517 -40.21,528.7 l -266.43,121.9 c 0,0 -532.01,-156.6 -543.33,-232 -11.33,-75.3 -122.34,-1280.2 -122.34,-1280.2 0,0 185.36,-804.2 283.02,-1034 7.02,-16.5 15.98,-33.1 26.45,-49.7" /><path
         id="path144"
         style="fill:#7c7d7f;fill-opacity:1;fill-rule:nonzero;stroke:none"
         d="m 2368.66,9088.5 -171.09,717.3 -1443.082,153.6 v -785 c 89.848,-59.5 266.142,-178 325.122,-228.6 80.42,-68.9 310.18,-114.9 932.58,-68.9 622.4,46 356.47,211.6 356.47,211.6" /><path
         id="path146"
         style="fill:#ac5a35;fill-opacity:1;fill-rule:nonzero;stroke:none"
         d="m 4510.78,12223.8 c 0,0 118.71,231.7 187.64,294.9 68.93,63.2 68.93,63.2 68.93,63.2 0,0 -109.14,-28.7 -166.58,-91.9 -57.44,-63.2 -137.85,-149.4 -137.85,-149.4 l 47.86,-116.8" /><path
         id="path148"
         style="fill:#974d32;fill-opacity:1;fill-rule:nonzero;stroke:none"
         d="m 4392.07,12116.6 c 0,0 57.44,-259.1 172.32,-506.7 0,0 -84.24,476.1 -101.47,636.9 -17.24,160.8 -70.85,-130.2 -70.85,-130.2" /><path
         id="path150"
         style="fill:#100f0d;fill-opacity:1;fill-rule:nonzero;stroke:none"
         d="m 2986.67,8302.5 c 0,0 80.41,-109.2 281.46,80.4 201.04,189.6 453.79,700.8 465.28,752.5 11.49,51.7 206.79,172.3 -201.05,172.3 -407.83,0 -505.48,120.6 -545.69,-80.4 -40.21,-201.1 -84.16,-585.9 -65.05,-603.1 19.09,-17.3 65.05,-321.7 65.05,-321.7" /><path
         id="path152"
         style="fill:#b9b8b7;fill-opacity:1;fill-rule:nonzero;stroke:none"
         d="m 3421.74,6094.7 h -136.37 c 0,0 -919.07,1828.7 -930.56,2012.5 -11.48,183.8 711.92,432.7 711.92,432.7 L 2481.36,9072.2 754.488,9322 V 7237.2 c 251.142,156.7 744.462,450.3 888.052,433.4 195.3,-22.9 1194.78,-1688.7 1194.78,-1688.7 l -425.06,-172.4 504.75,-114.2 873.13,183.2 -368.4,216.2" /><path
         id="path154"
         style="fill:#c37140;fill-opacity:1;fill-rule:nonzero;stroke:none"
         d="m 3224.09,9206.2 c -20.5,-82.8 256.57,-153.1 256.57,-153.1 0,0 -111.05,-390.6 0,-1133.6 111.06,-742.9 149.35,-1202.4 164.67,-1470.5 15.32,-268 0,-344.6 0,-344.6 0,0 22.98,-122.5 68.93,-122.5 45.95,0 145.52,61.2 145.52,61.2 0,0 61.27,199.2 137.86,275.7 76.58,76.6 245.08,99.6 245.08,99.6 0,0 -68.93,566.8 30.63,1087.6 99.57,520.8 291.04,1891.7 291.04,2182.7 0,291.1 -813.72,555.3 -813.72,555.3 0,0 -427.01,-635.7 -526.58,-1037.8" /><path
         id="path156"
         style="fill:#ac5a35;fill-opacity:1;fill-rule:nonzero;stroke:none"
         d="m 3702.25,10000 c 0,0 366.66,-212.9 437.44,-312.8 70.79,-99.9 93.75,-357.2 93.75,-357.2 0,0 42.82,-173.7 77.69,-226.4 34.88,-52.7 182.22,-95.3 182.22,-95.3 0,0 -3.15,448.7 -44.19,506.3 -41.03,57.7 -309.47,444.8 -309.47,444.8 l -375.32,188.9 -62.12,-148.3" /><path
         id="path158"
         style="fill:#252323;fill-opacity:1;fill-rule:nonzero;stroke:none"
         d="m 1332.35,11120.9 c 0,0 -91.9,-235.6 -126.37,-315 -34.46,-79.4 -136.99,-210.3 0,-722.7 136.99,-512.5 371.69,-574.4 806.21,-804.2 434.53,-229.8 514.95,-482.5 664.29,-666.3 149.35,-183.8 310.19,-310.2 310.19,-310.2 0,0 497.71,1543.1 794.55,1736.6 296.84,193.4 -978.36,1227.4 -978.36,1227.4 l -861.62,68.9 -608.89,-214.5" /><path
         id="path160"
         style="fill:#e9eef1;fill-opacity:1;fill-rule:nonzero;stroke:none"
         d="m 3480.66,14029.4 h -264.22 l -1165.75,-793.6 c 0,0 -274.12,-613.7 -473.25,-1126.9 -199.13,-513.1 -260.4,-957.3 -245.09,-988 15.32,-30.6 337,-206.7 742.91,-260.3 405.92,-53.7 1148.83,-15.4 1233.08,0 84.25,15.3 556.99,628 600.17,696.9 43.17,68.9 479.73,497.8 602.27,666.3 0,0 -45.95,742.9 0,1011 45.95,268.1 -602.27,642.5 -602.27,642.5 l -427.85,152.1" /><path
         id="path162"
         style="fill:#974d32;fill-opacity:1;fill-rule:nonzero;stroke:none"
         d="m 5027.1,10313.7 c 0,0 420.08,-260.9 555.61,-414.6 135.53,-153.6 220.15,-384.5 220.15,-384.5 l 71.24,8.4 c 0,0 1.26,312.7 -85.77,442.6 -87.03,130 -634.79,435.5 -634.79,435.5 l -126.44,-87.4" /><path
         id="path164"
         style="fill:#c37140;fill-opacity:1;fill-rule:nonzero;stroke:none"
         d="m 3908.51,14155.8 c 0,0 -20.01,-69 -175.1,-91.9 -155.09,-23 -252.75,-34.5 -252.75,-34.5 0,0 91.91,-293 160.84,-735.2 68.93,-442.3 269.97,-855.9 459.53,-884.6 189.56,-28.8 229.77,448 224.02,626.1 -5.74,178 45.96,304.4 45.96,350.4 0,45.9 0,631.8 0,631.8 0,0 -126.38,224 -183.82,241.3 -57.44,17.2 -278.68,-103.4 -278.68,-103.4" /><path
         id="path166"
         style="fill:#ac5a35;fill-opacity:1;fill-rule:nonzero;stroke:none"
         d="m 4273.35,13299.9 58.18,-126 -6.48,-138.2 -169.2,210.6 -207.99,-145.5 c 0,0 126.36,233.6 134.02,252.7 7.67,19.2 27.54,180 57.81,298.7 30.27,118.7 76.14,225.1 76.14,225.1 0,0 88.16,-305.5 88.16,-317 0,-11.5 -30.64,-260.4 -30.64,-260.4" /><path
         id="path168"
         style="fill:#c37140;fill-opacity:1;fill-rule:nonzero;stroke:none"
         d="m 2400.76,12283.2 c 0,0 172.33,-712.3 264.24,-1062.7 1.96,-7.5 4.14,-15.2 6.42,-23 h 810.63 c 33.16,141.1 80.89,394.5 73.29,660.6 -11.49,402.1 -103.4,573.1 -103.4,573.1 0,0 160.84,437.9 86.17,845.7 -74.68,407.9 -321.67,752.5 -321.67,752.5 0,0 -182.92,-8.1 -294.82,-44 0,0 -227.9,-40.7 -474.9,-279.8 0,0 -400.18,-235.3 -432.73,-639.3 -32.55,-404 386.77,-783.1 386.77,-783.1" /><path
         id="path170"
         style="fill:#ac5a35;fill-opacity:1;fill-rule:nonzero;stroke:none"
         d="m 2400.77,12283.2 c -22.98,281.4 -11.49,367.6 -11.49,367.6 0,0 -126.37,379.1 -112.33,626.1 14.05,247 169.77,428.7 169.77,428.7 0,0 -400.18,-235.3 -432.73,-639.3 -32.55,-404 386.78,-783.1 386.78,-783.1" /><path
         id="path172"
         style="fill:#ac5a35;fill-opacity:1;fill-rule:nonzero;stroke:none"
         d="m 2527.14,12775.3 c 0,0 88.07,-141.7 206.79,-214.5 118.71,-72.7 252.74,-103.4 252.74,-103.4 0,0 -344.65,-103.4 -459.53,317.9" /><path
         id="path174"
         style="fill:#d4d4d2;fill-opacity:1;fill-rule:nonzero;stroke:none"
         d="m 712.785,8915.9 c 0,0 -119.094,-200.1 21.711,-285.1 L 9509.86,9790.7 c 0,0 45.83,127.8 -36.94,155.6 L 712.785,8915.9" /><path
         id="path176"
         style="fill:#b5b5b4;fill-opacity:1;fill-rule:nonzero;stroke:none"
         d="m 4628.09,9635.8 c 0,0 24.38,-158.7 104.8,-292.2 80.42,-133.5 117.4,-194.4 117.4,-194.4 l -337.17,194.4 -136.37,119.8 c 0,0 57.44,217.7 80.42,223.4 22.98,5.8 170.92,-51 170.92,-51" /><path
         id="path178"
         style="fill:#252323;fill-opacity:1;fill-rule:nonzero;stroke:none"
         d="m 3652.03,6219.3 c 0,0 -251.78,-666.3 -228.81,-727.6 22.98,-61.3 1125.86,-520.8 1386.26,-528.5 260.4,-7.6 459.53,137.9 444.21,306.4 -15.32,168.5 -222.11,160.8 -467.19,444.2 -245.08,283.4 -409.75,505.5 -409.75,505.5 0,0 34.47,137.8 -134.03,199.1 -168.5,61.3 -590.69,-199.1 -590.69,-199.1" /><path
         id="path180"
         style="fill:#f5f6f5;fill-opacity:1;fill-rule:nonzero;stroke:none"
         d="m 4221.36,6999.1 c -222.8,-2 -474.49,5.7 -622.9,11.3 25.65,-243.3 39.17,-426.6 46.87,-561.4 15.32,-268 0,-344.6 0,-344.6 0,0 22.98,-122.5 68.93,-122.5 45.95,0 145.52,61.2 145.52,61.2 0,0 61.27,199.2 137.86,275.7 76.58,76.6 245.08,99.6 245.08,99.6 0,0 -31.05,255.3 -21.36,580.7" /><path
         id="path182"
         style="fill:#252323;fill-opacity:1;fill-rule:nonzero;stroke:none"
         d="m 5207.73,6724.8 c -61.27,-15.4 -253.7,-99.6 -253.7,-99.6 0,0 -55.27,-46 -103.74,-160.8 -48.47,-114.9 -126.56,-683.2 -63.79,-750.6 62.77,-67.4 490.17,-53.6 696.96,-107.2 206.78,-53.6 612.71,-160.9 888.42,-145.5 275.72,15.3 451.87,130.1 367.63,283.3 -84.25,153.2 -497.83,329.4 -628.03,451.9 -130.2,122.5 -176.15,160.8 -199.13,199.1 -22.97,38.3 -130.2,180 -271.89,270 -141.69,90 -432.73,59.4 -432.73,59.4" /><path
         id="path184"
         style="fill:#f5f6f5;fill-opacity:1;fill-rule:nonzero;stroke:none"
         d="m 4954.09,7323 c 2.77,-364.3 -0.06,-697.8 -0.06,-697.8 0,0 71.81,-270 180.95,-293 109.14,-22.9 189.56,40.3 292.95,160.9 103.39,120.6 212.53,172.3 212.53,172.3 0,0 39.35,288.2 85.1,644 -264.49,-13.2 -647.5,6.4 -771.47,13.6" /><path
         id="path186"
         style="fill:#4c4d4e;fill-opacity:1;fill-rule:nonzero;stroke:none"
         d="m 3393.45,9128.4 c -60.57,520.9 -338.53,916.7 -620.84,883.8 -75.85,1.4 -225.33,-13.4 -225.33,-13.4 0,0 -96.83,-164 -148.99,-203.1 -14.44,-10.9 -12.35,-111.5 -1.8,-251.2 -37.11,-156.4 -47.96,-340.7 -25.37,-535 26.54,-228.2 94.79,-432.3 186.85,-587 53.09,-126.7 139.84,-305.3 208.66,-310.2 106.94,-7.6 225.33,13.4 225.33,13.4 282.31,32.8 462.06,481.8 401.49,1002.7" /><path
         id="path188"
         style="fill:#6b6c6e;fill-opacity:1;fill-rule:nonzero;stroke:none"
         d="m 3168.12,9115 c 60.57,-520.9 -119.18,-969.9 -401.49,-1002.7 -282.3,-32.8 -560.27,362.9 -620.84,883.8 -60.58,521 119.18,969.9 401.49,1002.7 282.3,32.8 560.26,-362.9 620.84,-883.8" /><path
         id="path190"
         style="fill:#898b8b;fill-opacity:1;fill-rule:nonzero;stroke:none"
         d="m 2749.38,9031.1 c 19.02,-136.2 -38.57,-256.7 -128.64,-269.3 -90.07,-12.6 -178.5,87.6 -197.53,223.7 -19.02,136.2 38.57,256.7 128.64,269.3 90.07,12.6 178.5,-87.6 197.53,-223.7" /><path
         id="path192"
         style="fill:#d4d4d2;fill-opacity:1;fill-rule:nonzero;stroke:none"
         d="m 2576.43,9135.1 c 0,0 91.38,-84.1 44.77,-254.9 l -519.28,-68.6 -8.17,266.8 482.68,56.7" /><path
         id="path194"
         style="fill:#4c4d4e;fill-opacity:1;fill-rule:nonzero;stroke:none"
         d="m 9023.77,9806.7 c -52.34,450.2 -292.54,792.2 -536.5,763.8 -65.54,1.2 -194.72,-11.6 -194.72,-11.6 0,0 -83.67,-141.7 -128.75,-175.5 -12.47,-9.4 -10.67,-96.3 -1.55,-217.1 -32.07,-135.2 -41.44,-294.4 -21.93,-462.3 22.93,-197.2 81.92,-373.6 161.47,-507.3 45.88,-109.4 120.84,-263.8 180.32,-268 92.41,-6.6 194.72,11.6 194.72,11.6 243.96,28.3 399.29,416.3 346.94,866.4" /><path
         id="path196"
         style="fill:#6b6c6e;fill-opacity:1;fill-rule:nonzero;stroke:none"
         d="M 8829.05,9795.1 C 8881.4,9345 8726.06,8957 8482.11,8928.7 c -243.96,-28.4 -484.16,313.5 -536.5,763.7 -52.35,450.2 102.98,838.1 346.94,866.5 243.96,28.4 484.16,-313.6 536.5,-763.8" /><path
         id="path198"
         style="fill:#898b8b;fill-opacity:1;fill-rule:nonzero;stroke:none"
         d="m 8467.2,9722.6 c 16.44,-117.6 -33.33,-221.8 -111.16,-232.7 -77.84,-10.9 -154.26,75.7 -170.7,193.4 -16.44,117.6 33.33,221.8 111.16,232.7 77.84,10.8 154.26,-75.7 170.7,-193.4" /><path
         id="path200"
         style="fill:#d4d4d2;fill-opacity:1;fill-rule:nonzero;stroke:none"
         d="m 8332.65,9812.2 c 0,0 50.63,-99.6 28.1,-173.4 l -512.76,-67.7 -13.77,182.5 498.43,58.6" /><path
         id="path202"
         style="fill:#c37140;fill-opacity:1;fill-rule:nonzero;stroke:none"
         d="m 3997.64,9979.8 c 0,0 241.22,-168.5 275.72,-248.9 34.49,-80.5 68.95,-249.9 26.83,-387.3 l 313.33,31.1 c 0,0 181.82,-118.7 236.77,-118.7 54.95,0 101.15,51.6 47.41,152.2 l 168.42,19.8 c 0,0 -0.04,287.5 -57.48,425.4 -57.44,137.9 -317.41,252.8 -317.41,252.8 l -417.87,315.9 c 0,0 -321.65,-40.2 -329.3,-67 -7.67,-26.8 -15.32,-57.5 -22.98,-149.4 -7.66,-91.9 76.56,-225.9 76.56,-225.9" /><path
         id="path204"
         style="fill:#c37140;fill-opacity:1;fill-rule:nonzero;stroke:none"
         d="m 2802.86,11266.5 -131.44,-69 c 0,0 108.43,-471 315.25,-672 206.82,-201.1 1118.76,-626.4 1118.76,-626.4 l 167.92,523 c 0,0 -721.92,573.6 -765.9,628.5 -43.99,55 -25.4,146.9 -25.4,146.9 0,0 -437.91,287.2 -472.38,281.5 -34.46,-5.7 -206.81,-212.5 -206.81,-212.5" /><path
         id="path206"
         style="fill:#c37140;fill-opacity:1;fill-rule:nonzero;stroke:none"
         d="m 4405.67,9116.1 c 0,0 200.88,-188.1 280.02,-177.9 79.14,10.2 109.77,61.2 109.77,61.2 0,0 89.83,-41.8 118.96,-20.9 29.11,20.9 41.88,48.4 41.88,48.4 0,0 33.19,-9.6 63.83,13.4 0,0 86.79,5.9 104.67,22.1 17.86,16.2 86.8,145.1 66.37,226.2 -20.42,81 -78.54,86.1 -78.54,86.1 0,0 -36.34,63.9 -84.85,63.9 -48.5,0 -56.61,-21.8 -56.61,-21.8 0,0 -59.66,22.1 -95.98,-11.3 -36.32,-33.3 -74.9,-84.4 -74.9,-84.4 l -96.44,-165.6 -298.18,-39.4" /><path
         id="path208"
         style="fill:#ac5a35;fill-opacity:1;fill-rule:nonzero;stroke:none"
         d="m 4775.04,9520.2 c 7.66,0 122.66,-112 122.66,-112 l 73.47,8.6 -142.52,141.7 c 0,0 27.64,38.3 44.45,109.8 16.83,71.5 0,150.6 0,150.6 0,0 -45.01,-181 -72.81,-205.3 -27.8,-24.4 -25.25,-93.4 -25.25,-93.4" /><path
         id="path210"
         style="fill:#b8633d;fill-opacity:1;fill-rule:nonzero;stroke:none"
         d="m 4564.39,11021.4 -115.23,-160.8 c 0,0 168.99,-298.5 644.83,-505.5 475.85,-207.1 703.51,-402.1 837.54,-490.2 134.03,-88.1 179.98,-130.2 179.98,-130.2 l 283.38,413.6 -735.6,712.3 c 0,0 -566.4,214.4 -650.65,206.7 -84.25,-7.6 -444.25,-45.9 -444.25,-45.9" /><path
         id="path212"
         style="fill:#b8633d;fill-opacity:1;fill-rule:nonzero;stroke:none"
         d="m 6096.2,9887.9 15.31,-153.2 69.32,-175.6 826.08,97.2 c 0,0 42.81,-45.2 73.45,-42.7 30.63,2.4 114.88,48.3 99.56,121.1 -15.32,72.8 -195.3,229.8 -229.76,245.1 -34.47,15.3 -555.27,168.5 -555.27,168.5 0,0 -264.23,-111.1 -268.06,-122.6 -3.83,-11.5 -30.63,-137.8 -30.63,-137.8" /><path
         id="path214"
         style="fill:#974d32;fill-opacity:1;fill-rule:nonzero;stroke:none"
         d="m 6779.11,9635.1 c 0,0 -66.38,174.2 -158.28,218.6 0,0 197.51,-73.9 232.31,-191.1 34.81,-117.2 -74.03,-27.5 -74.03,-27.5" /><path
         id="path216"
         style="fill:#974d32;fill-opacity:1;fill-rule:nonzero;stroke:none"
         d="m 7006.91,9656.3 c 0,0 -15.9,54.8 14.73,71.7 30.64,16.9 104.67,15.8 104.67,15.8 0,0 -54.89,42 -124.45,31.7 -69.57,-10.2 -69.64,-61.5 -111.73,-58.8 -42.09,2.7 -119.34,12.6 -104.97,0 14.37,-12.6 41.21,-89.6 49.46,-102 8.24,-12.4 79.79,-43.6 79.79,-43.6 l 92.5,85.2" /><path
         id="path218"
         style="fill:#b8633d;fill-opacity:1;fill-rule:nonzero;stroke:none"
         d="m 6242.99,9358.9 c 0,0 97.01,-119.5 209.34,-134.8 112.33,-15.3 168.5,31.9 168.5,31.9 0,0 80.78,-29.8 158.28,-35 30.64,-2 71.48,-49 148.07,0 0,0 79.14,-24.8 125.1,50.4 45.95,75.2 3.73,362.6 -45.37,384.9 -49.09,22.2 -61.86,-21.2 -61.86,-21.2 0,0 -58.72,47.3 -91.91,27.5 0,0 -68.93,49.8 -109.77,29 -40.85,-20.7 -50.7,-72.3 -50.7,-72.3 0,0 -43.76,-15.3 -71.84,-48.2 -28.09,-33 -55.33,-169.6 -55.33,-169.6 l -322.51,-42.6" /><path
         id="path220"
         style="fill:#974d32;fill-opacity:1;fill-rule:nonzero;stroke:none"
         d="m 6779.11,9221 c 0,0 53.61,108.3 81.7,226.7 28.08,118.5 -7.67,214.9 -7.67,214.9 0,0 51.06,-80.6 33.19,-214.9 -17.87,-134.2 -73.62,-237.9 -73.62,-237.9 l -33.6,11.2" /><path
         id="path222"
         style="fill:#974d32;fill-opacity:1;fill-rule:nonzero;stroke:none"
         d="m 6620.83,9256 c 0,0 97.01,128.9 117.43,220.8 20.43,91.9 -45.59,142.5 -45.59,142.5 l 12.27,32.7 c 0,0 66.51,-14.3 79.27,-108.8 12.77,-94.4 -107.22,-257.8 -163.38,-287.2" /><path
         id="path224"
         style="fill:#974d32;fill-opacity:1;fill-rule:nonzero;stroke:none"
         d="m 6927.18,9221 c 0,0 45.95,97.8 51.06,233 5.1,135.2 -33.19,181.1 -33.19,181.1 0,0 63.83,-97.5 56.17,-207 -7.66,-109.5 -36.7,-207.1 -36.7,-207.1 h -37.34" /><path
         id="path226"
         style="fill:#2f1d16;fill-opacity:1;fill-rule:nonzero;stroke:none"
         d="m 4228.06,14072.8 c -6.68,-10.4 -63.29,-2.4 -63.29,-2.4 0,0 -66.55,-67 -94.49,-78.5 -27.93,-11.5 -76.65,29.3 -72.64,35.6 2.37,3.7 -107.22,137.8 -86.53,211.2 27.11,96.2 16.71,150.8 30.3,188.7 33.39,93.2 155.42,365.6 337.63,489.1 182.21,123.5 475.39,149.8 642.45,89.5 167.05,-60.2 262.93,-130.6 404.73,-198.2 141.8,-67.5 189.56,-212.9 261.67,-297.4 72.11,-84.5 137.23,-161.6 106.52,-291.8 -30.7,-130.2 -158.69,-186.2 -158.69,-186.2 l -931.14,-326.8 c 0,0 -279,53.8 -277.83,92.2 1.17,38.4 -98.69,275 -98.69,275" /><path
         id="path228"
         style="fill:#c37140;fill-opacity:1;fill-rule:nonzero;stroke:none"
         d="m 4537.83,14132.5 c 0,0 -71.6,175.4 -158.41,223.3 -86.81,47.9 -161.25,-92.4 -196.28,-183.6 -35.03,-91.2 -13.19,-191.4 9.41,-229.4 22.61,-38.1 23.28,-65.5 23.28,-65.5 0,0 -76.98,-378.2 -56.52,-505 20.47,-126.8 509.28,-508.3 547.03,-509.1 37.75,-0.7 322.46,360.2 322.46,360.2 0,0 127.97,-61.6 152.49,-50.9 24.52,10.7 51.86,337.1 91.68,376.2 39.8,39.1 40.85,17.8 98.63,89.5 57.78,71.6 170.71,407.7 170.56,416.6 -0.15,8.9 -214.07,202.1 -321.97,253.8 -107.91,51.7 -181.86,-103.7 -233.32,-149.9 -51.47,-46.4 -224.15,-58.9 -263.36,-92.5 -39.22,-33.6 -126.4,-151 -148.39,-148.7 -21.99,2.4 -57.53,34 -57.53,34 l 20.24,181" /><path
         id="path230"
         style="fill:#b7643a;fill-opacity:1;fill-rule:nonzero;stroke:none"
         d="m 4826.38,8987 -30.92,12.4 v 0 c 0,0 103.96,192.7 123.73,268.9 19.76,76.2 -21.49,139.9 -21.49,139.9 0,0 52.54,-40.1 52.54,-119.6 0,-79.6 -123.86,-301.6 -123.86,-301.6" /><path
         id="path232"
         style="fill:#b7643a;fill-opacity:1;fill-rule:nonzero;stroke:none"
         d="m 4982.71,9026.9 h -26.41 v 0 c 0,0 57.48,140.6 64.53,229.1 7.06,88.5 -49.66,160.8 -49.66,160.8 0,0 65.19,-62.8 72.25,-128.2 7.06,-65.5 -60.71,-261.7 -60.71,-261.7" /><path
         id="path234"
         style="fill:#b25f39;fill-opacity:1;fill-rule:nonzero;stroke:none"
         d="m 5066.12,9045.3 v 0 c 0,0 0.01,0 0.02,0 h -0.02" /><path
         id="path236"
         style="fill:#b7643a;fill-opacity:1;fill-rule:nonzero;stroke:none"
         d="m 5066.12,9045.3 c 0.1,0.4 32.37,104.5 39.41,191.9 7.07,87.6 7.1,137.5 7.1,137.5 0,0 18.32,-77.8 11.26,-152.8 -7.06,-75 -28.07,-171 -28.07,-171 l -29.68,-5.6 c -0.01,0 -0.02,0 -0.02,0" /></g></g></svg>