<?xml version="1.0" encoding="UTF-8" standalone="no"?>
<svg
   xmlns:dc="http://purl.org/dc/elements/1.1/"
   xmlns:cc="http://creativecommons.org/ns#"
   xmlns:rdf="http://www.w3.org/1999/02/22-rdf-syntax-ns#"
   xmlns:svg="http://www.w3.org/2000/svg"
   xmlns="http://www.w3.org/2000/svg"
   viewBox="0 0 2666.6667 2666.6667"
   height="2666.6667"
   width="2666.6667"
   xml:space="preserve"
   id="svg2"
   version="1.1"><metadata
     id="metadata8"><rdf:RDF><cc:Work
         rdf:about=""><dc:format>image/svg+xml</dc:format><dc:type
           rdf:resource="http://purl.org/dc/dcmitype/StillImage" /></cc:Work></rdf:RDF></metadata><defs
     id="defs6" /><g
     transform="matrix(1.3333333,0,0,-1.3333333,0,2666.6667)"
     id="g10"><g
       transform="scale(0.1)"
       id="g12"><g
         transform="scale(1.22699)"
         id="g14"><path
           id="path16"
           style="fill:none;fill-opacity:1;fill-rule:nonzero;stroke:none"
           d="M 16300,0 H 0 V 16300 H 16300 V 0" /></g><path
         id="path18"
         style="fill:#3a70c0;fill-opacity:1;fill-rule:nonzero;stroke:none"
         d="m 3876.4,3569 c 0,0 -115.39,-62.1 -124.27,-84.3 -8.87,-22.2 -221.89,-568.1 -173.07,-585.8 48.81,-17.8 816.57,-44.4 1034.03,-40 217.46,4.5 323.97,57.7 346.15,146.5 22.2,88.7 -44.38,119.8 -199.7,181.9 -155.33,62.2 -323.97,148.9 -399.41,252 -75.45,103.1 -92.53,209.6 -92.53,209.6 L 4120.48,3737.6 3876.4,3569" /><path
         id="path20"
         style="fill:#fbc398;fill-opacity:1;fill-rule:nonzero;stroke:none"
         d="m 4799.33,7123.7 c 0,0 -120.29,-465.9 -208.74,-838.7 -88.45,-372.8 -123.95,-581.4 -199.4,-701.2 -75.44,-119.8 -275.15,-324 -323.96,-581.4 -48.82,-257.4 -252.97,-1455.6 -252.97,-1455.6 0,0 48.82,-119.8 146.46,-106.5 97.63,13.3 204.14,137.6 204.14,137.6 0,0 217.45,634.6 381.66,945.2 164.2,310.7 177.51,643.5 350.59,790 173.08,146.4 186.4,346.1 186.4,346.1 0,0 368.34,417.2 550.29,838.8 181.96,421.6 208.59,616.9 208.59,616.9 0,0 -625.75,230.7 -718.94,186.4 -93.2,-44.4 -324.12,-177.6 -324.12,-177.6" /><path
         id="path22"
         style="fill:#fbc398;fill-opacity:1;fill-rule:nonzero;stroke:none"
         d="m 6055.41,7589.7 c 0,0 532.54,265.3 725.59,377.8 193.05,112.6 386.1,165.9 386.1,165.9 0,0 -39.94,-361.7 79.88,-596.9 119.83,-235.2 319.53,-674.6 352.81,-841 33.29,-166.4 33.29,-166.4 33.29,-166.4 0,0 153.11,-166.5 186.39,-133.2 33.28,33.3 159.77,233 159.77,233 0,0 -159.77,1191.6 -239.65,1437.9 -79.88,246.3 -159.77,415.1 -159.77,415.1 0,0 13.32,283.9 -173.07,363.8 -186.39,79.8 -975.09,-26.7 -1418,-233 -442.91,-206.4 -463.15,-438.5 -421.25,-552.1 41.89,-113.6 487.91,-470.9 487.91,-470.9" /><path
         id="path24"
         style="fill:#8f908f;fill-opacity:1;fill-rule:nonzero;stroke:none"
         d="M 7246.98,5164.4 7107.19,3979.5 c 0,0 -133.14,-46.6 -139.8,0 -6.65,46.6 139.8,1220 139.8,1220 l 139.79,-35.1" /><path
         id="path26"
         style="fill:#b0b0ae;fill-opacity:1;fill-rule:nonzero;stroke:none"
         d="M 7040.62,5796.8 6874.2,4079.3 H 5722.56 l -133.14,-252.9 166.43,-66.6 h 2549.57 l -86.54,279.6 -1179.56,39.9 81.18,832.2 c 0,0 19.97,79.8 66.57,86.5 46.6,6.6 1637.59,-585.8 1637.59,-585.8 0,0 119.82,-66.6 146.45,-179.7 26.62,-113.2 23.76,-1211.2 23.76,-1211.2 l -1355.13,-33.7 -139.8,-226.3 186.39,-126.5 3035.57,53.3 -106.5,279.6 -158.8,84.3 -1193.98,-27.3 54.65,2465.9 -2276.65,306.2" /><path
         id="path28"
         style="fill:#8f908f;fill-opacity:1;fill-rule:nonzero;stroke:none"
         d="m 5755.85,3759.8 v 0 l 113.16,193.1 -146.45,126.4 -133.14,-252.9 166.43,-66.6" /><path
         id="path30"
         style="fill:#8f908f;fill-opacity:1;fill-rule:nonzero;stroke:none"
         d="m 7639.74,2987.6 159.76,-79.9 -113.17,-272.9 -186.39,126.5 139.8,226.3" /><path
         id="path32"
         style="fill:#d4d4d2;fill-opacity:1;fill-rule:nonzero;stroke:none"
         d="m 7799.5,2907.7 2815.9,60 -158.8,84.3 -2816.86,-64.4 159.76,-79.9" /><path
         id="path34"
         style="fill:#d4d4d2;fill-opacity:1;fill-rule:nonzero;stroke:none"
         d="m 5722.56,4079.3 146.45,-126.4 h 2376.66 l -26.79,86.5 -1344.68,39.9 H 5722.56" /><path
         id="path36"
         style="fill:#8f908f;fill-opacity:1;fill-rule:nonzero;stroke:none"
         d="m 9210.95,5534.2 -46.79,-2597.4 96.55,2 56.56,2551.8 -106.32,43.6" /><path
         id="path38"
         style="fill:#252323;fill-opacity:1;fill-rule:nonzero;stroke:none"
         d="m 6488.1,6176.3 c 0,0 -39.94,-253 -26.63,-279.6 13.32,-26.7 1997.06,-652.4 2136.86,-685.7 139.79,-33.3 1238.17,13.3 1271.46,40 33.28,26.6 26.62,306.2 0,366.1 -26.64,59.9 -1897.21,605.8 -1977.09,625.7 -79.88,20 -1131.67,40 -1404.6,-66.5" /><path
         id="path40"
         style="fill:#5b5c5e;fill-opacity:1;fill-rule:nonzero;stroke:none"
         d="m 8758.09,5510.6 c -86.54,6.6 -2269.99,665.7 -2269.99,665.7 0,0 -39.94,-253 -26.63,-279.6 13.32,-26.7 1997.06,-652.4 2136.86,-685.7 139.79,-33.3 1238.17,13.3 1271.45,40 28.7,22.9 27.69,233.8 9.8,329.9 -306.25,-22.3 -1052.87,-75.6 -1121.49,-70.3" /><path
         id="path42"
         style="fill:#b0b0ae;fill-opacity:1;fill-rule:nonzero;stroke:none"
         d="m 7039.32,4079.3 -11.12,-126.4 -154,126.4 v 0 c 0,0 75.65,112.9 92.97,98.9 17.33,-13.9 72.15,-98.9 72.15,-98.9" /><path
         id="path44"
         style="fill:#8f908f;fill-opacity:1;fill-rule:nonzero;stroke:none"
         d="m 7118.97,4079.3 -16.49,-126.4 h -74.28 l 24.44,262.9 66.33,-136.5" /><path
         id="path46"
         style="fill:#b0b0ae;fill-opacity:1;fill-rule:nonzero;stroke:none"
         d="m 9164.16,3087.5 v -150.7 l -169.29,84.5 0.08,54.5 169.21,11.7" /><path
         id="path48"
         style="fill:#252323;fill-opacity:1;fill-rule:nonzero;stroke:none"
         d="m 5008.06,8361.9 -93.54,-53.2 c 0,0 -314.74,-324 -323.62,-608 -8.88,-284 177.51,-421.6 181.95,-439.4 4.44,-17.7 26.48,-137.6 26.48,-137.6 0,0 244.23,-150.8 506.07,-155.3 261.84,-4.4 536.99,146.5 536.99,146.5 0,0 13.31,479.3 39.94,585.8 26.63,106.5 106.42,474.8 106.42,474.8 0,0 -567.96,301.8 -603.47,306.2 -35.5,4.5 -377.22,-119.8 -377.22,-119.8" /><path
         id="path50"
         style="fill:#252323;fill-opacity:1;fill-rule:nonzero;stroke:none"
         d="m 5505.11,7771.7 c 106.51,-57.7 328.4,-235.2 328.4,-235.2 l 221.9,53.2 c 0,0 48.64,479.3 -66.66,719 -115.3,239.6 -383.96,-75.5 -383.96,-75.5 l -99.68,-461.5" /><path
         id="path52"
         style="fill:#3a70c0;fill-opacity:1;fill-rule:nonzero;stroke:none"
         d="m 7746.25,6589 -139.8,-133.2 c 0,0 13.32,-406 0,-446 -13.31,-39.9 957.89,19.8 1051.79,0 93.89,-19.7 199.7,133.2 133.13,213.1 -66.57,79.8 -259.62,79.8 -399.41,199.7 -139.79,119.8 -525.89,392.7 -525.89,392.7 L 7746.25,6589" /><path
         id="path54"
         style="fill:#f5f6f5;fill-opacity:1;fill-rule:nonzero;stroke:none"
         d="m 3883.22,3949.9 c -39.35,-229.3 -68.95,-403.1 -68.95,-403.1 0,0 48.81,-119.8 146.45,-106.5 97.63,13.3 204.14,137.6 204.14,137.6 0,0 52.36,152.8 125.08,345.1 -152.88,6.1 -309.84,18.4 -406.72,26.9" /><path
         id="path56"
         style="fill:#f5f6f5;fill-opacity:1;fill-rule:nonzero;stroke:none"
         d="m 7531.73,6905.5 c 33.17,-85.9 58.1,-160.2 68.06,-210 33.29,-166.4 33.29,-166.4 33.29,-166.4 0,0 153.11,-166.5 186.39,-133.2 33.28,33.3 159.77,233 159.77,233 0,0 -21.66,161.5 -53,377.8 -138.75,-44.8 -298.85,-81.1 -394.51,-101.2" /><path
         id="path58"
         style="fill:#fbc398;fill-opacity:1;fill-rule:nonzero;stroke:none"
         d="m 4995.31,9307.2 c 0,0 -13.87,-417.2 -31.63,-643.5 -17.75,-226.3 -49.16,-355 -49.16,-355 0,0 262.18,-119.9 621.65,-133.2 359.47,-13.3 452.58,133.2 452.58,133.2 0,0 40.03,244.1 133.22,537 93.2,292.9 173.08,550.3 173.08,550.3 0,0 -763.32,204.1 -838.76,190.8 -75.45,-13.3 -460.98,-279.6 -460.98,-279.6" /><path
         id="path60"
         style="fill:#ecaf86;fill-opacity:1;fill-rule:nonzero;stroke:none"
         d="m 5120.12,10862.7 -63.1,81.4 c 0,0 -93.34,-101.4 -119.96,-172.4 -26.64,-71 -190.83,-541.4 -190.83,-541.4 l -79.89,319.5 -195.27,-57.7 c 0,0 22.2,-608 26.63,-750 4.44,-142 119.82,-439.3 266.27,-417.1 146.45,22.1 297.34,541.4 297.34,541.4 0,0 168.65,812.1 159.77,825.4 -8.88,13.3 -100.96,170.9 -100.96,170.9" /><path
         id="path62"
         style="fill:#fbc398;fill-opacity:1;fill-rule:nonzero;stroke:none"
         d="m 5383.06,11558.3 c -9.98,-6.6 -89.86,-79.9 -89.86,-79.9 v -336.1 c 0,0 -173.08,-256.3 -173.08,-279.6 0,-23.3 59.91,-49.9 131.47,0 71.56,49.9 118.16,169.7 241.31,223 123.15,53.2 299.56,94.8 319.53,110.7 19.97,15.8 213.02,225.7 203.03,280.5 -9.98,54.8 -139.79,304.9 -139.79,304.9 0,0 -96.96,148.6 -146.67,162.3 -49.71,13.6 -146.23,0 -146.23,0 l -199.71,-385.8" /><path
         id="path64"
         style="fill:#e19665;fill-opacity:1;fill-rule:nonzero;stroke:none"
         d="m 5759.17,11638.2 16.65,-245.9 83.21,-96.9 77.54,149.8 -177.4,193" /><path
         id="path66"
         style="fill:#372a23;fill-opacity:1;fill-rule:nonzero;stroke:none"
         d="m 5446.3,12417.1 c 0,0 -73.22,156.4 -312.87,123.1 -239.65,-33.3 -312.87,-336.2 -269.6,-612.4 43.27,-276.3 79.88,-456 46.59,-609.1 -33.28,-153.1 -76.55,-216.4 -76.55,-216.4 0,0 256.29,10 306.22,243 49.92,233 -36.61,474.1 86.54,604.9 123.15,130.7 219.67,466.9 219.67,466.9" /><path
         id="path68"
         style="fill:#3a70c0;fill-opacity:1;fill-rule:nonzero;stroke:none"
         d="m 5233.29,12291.7 c 0,0 -30.91,2.9 -28.24,8 2.67,5.1 -1.72,56.3 28.24,102.9 29.95,46.6 140.9,77.7 174.18,76.6 33.29,-1.1 75.36,-18.4 75.36,-18.4 0,0 26.72,-73.7 -22.1,-91.4 -48.82,-17.8 -227.44,-77.7 -227.44,-77.7" /><path
         id="path70"
         style="fill:#523d38;fill-opacity:1;fill-rule:nonzero;stroke:none"
         d="m 6073.16,12127.5 c 0,11.1 115.38,-68.8 115.38,-68.8 0,0 61.1,233 -251.97,361.7 -160.78,66.1 -446.99,76.5 -640.05,-23.3 -193.04,-99.9 -153.1,-525.9 -113.16,-655.7 39.94,-129.8 96.52,-253 109.84,-263 13.31,-9.9 193.05,30 223,63.3 29.96,33.3 129.81,216.3 129.81,216.3 0,0 186.39,-39.9 199.7,-36.6 13.32,3.4 196.38,166.4 203.04,199.7 6.66,33.3 24.41,206.4 24.41,206.4" /><path
         id="path72"
         style="fill:#fbc398;fill-opacity:1;fill-rule:nonzero;stroke:none"
         d="m 5785.8,11887.8 c 0,0 -56.58,79.9 -106.51,69.9 -49.92,-9.9 -46.59,-176.4 -33.28,-199.7 13.31,-23.3 113.16,-119.8 113.16,-119.8 0,0 46.6,-163.1 59.92,-196.4 13.31,-33.3 249.63,-176.4 272.93,-169.7 23.3,6.6 69.89,262.9 69.89,262.9 0,0 66.58,22.2 73.23,33.3 6.66,11.1 -59.91,195.3 -59.91,215.2 0,20 31.06,157.6 13.31,275.2 -17.75,117.6 -161.98,233 -175.29,233 -13.32,0 0,-62.1 -17.76,-82.1 -17.75,-20 -115.38,-53.3 -126.48,-77.7 -11.09,-24.4 24.41,-157.5 15.54,-177.5 -8.88,-20 -33.29,-33.3 -42.16,-53.2 -8.88,-20 -35.51,-73.3 -35.51,-73.3 l -21.08,59.9" /><path
         id="path74"
         style="fill:#3a70c0;fill-opacity:1;fill-rule:nonzero;stroke:none"
         d="m 5070.19,11029.1 c 13.32,0 0,-44.4 0,-44.4 0,0 -164.2,-492.6 -155.33,-674.5 8.88,-182 72.14,-559.2 80.45,-750 8.31,-190.9 0,-253 0,-253 48.25,4.4 1299.74,88.8 1299.74,88.8 l 71.01,239.6 c 0,0 276.3,168.6 204.72,488.2 -71.59,319.5 -554.94,710.6 -554.94,710.6 0,0 -200.08,443.2 -231.15,461 -31.06,17.7 -312.87,-124.3 -338.39,-142 -25.51,-17.8 -220.78,-75.5 -238.53,-88.8 -17.76,-13.3 -137.58,-35.5 -137.58,-35.5" /><path
         id="path76"
         style="fill:#c9c8c6;fill-opacity:1;fill-rule:nonzero;stroke:none"
         d="m 4195.92,10816.1 c 0,0 -22.18,-71 39.94,-97.7 l 2325.47,639.1 c 0,0 39.94,119.8 -44.38,146.5 l -2321.03,-687.9" /><path
         id="path78"
         style="fill:#e4e4e3;fill-opacity:1;fill-rule:nonzero;stroke:none"
         d="m 6580.92,11432.3 c 4.63,-43.3 -21.26,-81.5 -57.81,-85.4 -36.56,-4 -69.95,28 -74.57,71.2 -4.63,43.3 21.25,81.5 57.81,85.4 36.56,3.9 69.94,-28 74.57,-71.2" /><path
         id="path80"
         style="fill:#e19665;fill-opacity:1;fill-rule:nonzero;stroke:none"
         d="m 4621.96,9764.3 c 0,0 84.32,217.5 124.27,466 l -79.89,319.5 v 0 c 0,0 1.11,-193 1.11,-329.5 0,-136.5 -45.49,-456 -45.49,-456" /><path
         id="path82"
         style="fill:#ecaf86;fill-opacity:1;fill-rule:nonzero;stroke:none"
         d="m 4471.07,10492.1 c 0,0 -51.03,159.8 -59.91,177.5 -8.87,17.8 -79.88,166.5 -82.1,215.3 -2.22,48.8 95.42,108.7 95.42,108.7 0,0 8.87,53.3 28.85,59.9 19.97,6.7 53.25,-26.6 53.25,-26.6 0,0 75.44,8.9 95.41,2.2 19.97,-6.7 61.58,-74.4 61.58,-74.4 l -89.44,-26.5 c 0,0 14.55,-47.8 25.65,-63.3 11.09,-15.5 73.22,-71 84.31,-135.3 11.1,-64.4 -17.75,-179.8 -17.75,-179.8 l -124.26,-87.1 -71.01,29.4" /><path
         id="path84"
         style="fill:#7e7f81;fill-opacity:1;fill-rule:nonzero;stroke:none"
         d="m 5936.57,11445.2 96.65,12.2 c 0,0 121.92,24.8 177.45,-44.2 l -78.67,-23.3 c 0,0 -1.01,-105.5 49.95,-136.6 l 67.69,18.6 c 0,0 -14.5,-145.2 -172.04,-136.3 -157.55,8.9 -184.27,159.5 -189.9,181.9 -5.63,22.4 48.87,127.7 48.87,127.7" /><path
         id="path86"
         style="fill:#ecaf86;fill-opacity:1;fill-rule:nonzero;stroke:none"
         d="m 5970.05,10769.5 c 12.58,-5.9 107.55,-51.1 107.55,-51.1 0,0 115.52,-125.4 104.35,-255.7 -11.16,-130.3 -102.39,-316.7 -245.38,-305.6 -143,11.1 -169.63,126.4 -116.37,277.3 53.25,150.9 149.85,335.1 149.85,335.1" /><path
         id="path88"
         style="fill:#ecaf86;fill-opacity:1;fill-rule:nonzero;stroke:none"
         d="m 4471.07,10818.3 -46.59,175.3 118.16,-7.8 31.49,-57.6 25.65,-63.3 39.96,-46.6 -107.63,-68.8 c 0,0 -26.08,13.1 -32.74,9 -6.66,-4 -16.65,14.3 -16.65,14.3 l -11.65,45.5" /><path
         id="path90"
         style="fill:#fbc398;fill-opacity:1;fill-rule:nonzero;stroke:none"
         d="m 5847.87,11439.6 c 0,0 -116.43,-79.9 -123.09,-97.6 -6.65,-17.8 -4.13,-173.4 12.36,-211 16.49,-37.6 111.78,-179.6 110.73,-199.5 -1.04,-20 -14.36,-97.1 -14.36,-97.1 l 244.09,-116 c 0,0 102.07,88.8 104.28,182 2.23,93.2 -51.03,193 -104.28,235.2 -53.26,42.2 -135.34,140 -125.94,186.4 9.39,46.4 99.31,115.8 81.56,135.4 -17.76,19.5 -22.19,53.2 -48.82,46.6 -26.63,-6.7 -136.53,-64.4 -136.53,-64.4" /><path
         id="path92"
         style="fill:#fbc398;fill-opacity:1;fill-rule:nonzero;stroke:none"
         d="m 5887.29,10993.6 c 0,0 -228.65,-0.4 -391.06,-22.2 -162.41,-21.7 -319.11,-328.4 -345.95,-479.3 -26.83,-150.9 71.14,-275.1 71.14,-275.1 0,0 -70.93,-341.7 -71.14,-426.1 -0.21,-84.3 141.8,-328.4 199.5,-341.7 57.69,-13.3 146.45,-26.6 266.27,128.7 119.83,155.3 250.49,377.2 320.52,579.2 70.02,201.9 49.41,436.5 141.03,561.3 91.61,124.9 -190.31,275.2 -190.31,275.2" /><path
         id="path94"
         style="fill:#e19665;fill-opacity:1;fill-rule:nonzero;stroke:none"
         d="m 5247.71,10462.7 39.94,-103.7 -66.23,-142 -40.28,68.9 53.25,53.9 13.32,122.9" /><path
         id="path96"
         style="fill:#e19665;fill-opacity:1;fill-rule:nonzero;stroke:none"
         d="m 5833.51,10834.4 c 0,0 -146.45,-297.9 -244.09,-422.2 -97.63,-124.2 -301.77,-363.9 -301.77,-363.9 0,0 252.96,417.2 272.93,448.3 19.97,31 272.93,468.8 272.93,468.8 v -131" /><path
         id="path98"
         style="fill:#e19665;fill-opacity:1;fill-rule:nonzero;stroke:none"
         d="m 4431.96,10965.4 50.76,-192.6 -97.39,192.6 39.15,28.2 7.48,-28.2" /><path
         id="path100"
         style="fill:#fbc398;fill-opacity:1;fill-rule:nonzero;stroke:none"
         d="m 13870.1,14126.7 c 0,0 -13.9,-417.2 -31.7,-643.5 -17.7,-226.4 -49.1,-274.8 -49.1,-274.8 0,0 262.1,-200.1 621.6,-213.4 359.5,-13.3 559.8,62.1 559.8,62.1 0,0 60.7,215.3 86.8,623.6 19.5,306.7 112.3,534.7 112.3,534.7 0,0 -763.3,204.2 -838.8,190.9 -75.4,-13.4 -460.9,-279.6 -460.9,-279.6" /><path
         id="path102"
         style="fill:#8f908f;fill-opacity:1;fill-rule:nonzero;stroke:none"
         d="m 12953.3,7052.6 -139.8,-1184.9 c 0,0 -133.1,-46.6 -139.8,0 -6.6,46.6 139.8,1220 139.8,1220 l 139.8,-35.1" /><g
         transform="scale(1.00786)"
         id="g104"><path
           id="path106"
           style="fill:#b0b0ae;fill-opacity:1;fill-rule:nonzero;stroke:none"
           d="m 12647.5,7625.03 -165.2,-1704 h -1142.6 l -132,-251.02 165.1,-66.08 h 2529.7 l -86,277.42 -1170.3,39.68 80.5,825.61 c 0,0 19.8,79.28 66.1,85.82 46.2,6.65 1624.8,-581.22 1624.8,-581.22 0,0 118.9,-66.09 145.4,-178.3 26.4,-112.32 23.5,-1201.75 23.5,-1201.75 l -1344.5,-33.44 -138.8,-224.53 185,-125.52 3011.8,52.89 -105.7,277.42 -157.5,83.64 -1184.6,-27.09 54.2,2446.66 -2258.9,303.81" /></g><path
         id="path108"
         style="fill:#8f908f;fill-opacity:1;fill-rule:nonzero;stroke:none"
         d="m 11462.2,5648 v 0 l 113.2,193.1 -146.5,126.5 -133.1,-253 166.4,-66.6" /><path
         id="path110"
         style="fill:#8f908f;fill-opacity:1;fill-rule:nonzero;stroke:none"
         d="m 13346.1,4875.8 159.7,-79.8 -113.1,-273 -186.4,126.5 139.8,226.3" /><g
         transform="scale(1.00133)"
         id="g112"><path
           id="path114"
           style="fill:#d4d4d2;fill-opacity:1;fill-rule:nonzero;stroke:none"
           d="m 13487.8,4789.62 2812.2,59.82 -158.6,84.19 -2813,-64.31 159.4,-79.7" /></g><path
         id="path116"
         style="fill:#d4d4d2;fill-opacity:1;fill-rule:nonzero;stroke:none"
         d="m 11428.9,5967.6 146.5,-126.5 H 13952 l -26.8,86.5 -1344.7,40 h -1151.6" /><path
         id="path118"
         style="fill:#8f908f;fill-opacity:1;fill-rule:nonzero;stroke:none"
         d="m 14917.3,7422.4 -46.8,-2597.4 96.6,2.1 56.5,2551.7 -106.3,43.6" /><path
         id="path120"
         style="fill:#252323;fill-opacity:1;fill-rule:nonzero;stroke:none"
         d="m 12194.4,8064.5 c 0,0 -39.9,-253 -26.6,-279.6 13.3,-26.6 1997.1,-652.4 2136.9,-685.7 139.8,-33.2 1238.1,13.3 1271.4,40 33.3,26.6 26.7,306.2 0,366.1 -26.6,59.9 -1897.2,605.8 -1977.1,625.8 -79.8,19.9 -1131.6,39.9 -1404.6,-66.6" /><path
         id="path122"
         style="fill:#5b5c5e;fill-opacity:1;fill-rule:nonzero;stroke:none"
         d="m 14464.4,7398.8 c -86.5,6.6 -2270,665.7 -2270,665.7 0,0 -39.9,-253 -26.6,-279.6 13.3,-26.6 1997.1,-652.4 2136.9,-685.7 139.8,-33.2 1238.1,13.3 1271.4,40 28.7,22.9 27.7,233.8 9.8,329.9 -306.2,-22.3 -1052.8,-75.6 -1121.5,-70.3" /><path
         id="path124"
         style="fill:#b0b0ae;fill-opacity:1;fill-rule:nonzero;stroke:none"
         d="m 12745.7,5967.6 -11.2,-126.5 -154,126.5 v 0 c 0,0 75.7,112.8 93,98.9 17.3,-14 72.2,-98.9 72.2,-98.9" /><path
         id="path126"
         style="fill:#8f908f;fill-opacity:1;fill-rule:nonzero;stroke:none"
         d="m 12825.3,5967.6 -16.5,-126.5 h -74.3 l 24.5,262.9 66.3,-136.4" /><path
         id="path128"
         style="fill:#b0b0ae;fill-opacity:1;fill-rule:nonzero;stroke:none"
         d="M 14870.5,4975.7 V 4825 l -169.3,84.5 0.1,54.5 169.2,11.7" /><path
         id="path130"
         style="fill:#2e619f;fill-opacity:1;fill-rule:nonzero;stroke:none"
         d="m 13395.4,8333 c 0,0 -58.2,-136.9 -58.2,-186.1 0,-49.1 -3.9,-311 29.1,-324.3 33,-13.3 259.4,-22.2 259.4,-22.2 l 256.2,146.5 c 0,0 109.2,363.9 19.7,430.5 -89.5,66.5 -329.2,84.3 -351.4,79.8 -22.2,-4.4 -154.8,-124.2 -154.8,-124.2" /><path
         id="path132"
         style="fill:#3a70c0;fill-opacity:1;fill-rule:nonzero;stroke:none"
         d="m 13781,8257.5 c 0,0 -186.1,-488.1 -144.1,-523.6 42,-35.5 410.4,-44.4 676.6,-79.9 266.3,-35.5 619.1,37.9 633.6,74.4 14.4,36.5 5.5,134.2 -47.8,183 -53.2,48.8 -230.7,106.5 -310.6,153.1 -79.9,46.6 -426,304 -439.4,308.4 -13.3,4.5 -368.3,-115.4 -368.3,-115.4" /><path
         id="path134"
         style="fill:#fbc398;fill-opacity:1;fill-rule:nonzero;stroke:none"
         d="m 13568,11963.2 v -1273.7 c 0,0 -159.8,-426 -168.7,-741.1 -8.8,-315.1 0,-892 0,-1207.1 0,-315.1 -3.9,-408.3 -3.9,-408.3 0,0 52.8,13.3 110.4,0 57.7,-13.3 177.6,-119.8 195.3,-111 17.8,8.9 79.9,35.5 79.9,35.5 0,0 133.1,-115.4 217.5,-75.4 84.3,39.9 181.9,137.6 181.9,137.6 0,0 -71,323.9 106.5,785.5 177.5,461.5 190.8,971.9 270.7,1118.3 79.9,146.5 115.4,288.5 115.4,288.5 0,0 186.4,377.2 257.4,798.8 71,421.6 71,585.8 71,585.8 0,0 -573.2,478.2 -763.7,454.3 -190.4,-23.8 -231.8,-4 -390.9,-91.6 -159,-87.5 -278.8,-296.1 -278.8,-296.1" /><path
         id="path136"
         style="fill:#f5f6f5;fill-opacity:1;fill-rule:nonzero;stroke:none"
         d="m 14191.1,8763.9 c -208.5,-20.1 -389.4,-4.8 -389.4,-4.8 l -1.6,-40 c -71.5,-9.9 -291.9,-5.1 -400.8,-2 -0.2,-295.6 -3.9,-384.1 -3.9,-384.1 0,0 52.8,13.3 110.4,0 57.7,-13.3 177.6,-119.8 195.3,-111 17.8,8.9 79.9,35.5 79.9,35.5 0,0 133.1,-115.4 217.5,-75.4 84.3,39.9 181.9,137.6 181.9,137.6 0,0 -37.6,172.2 10.7,444.2" /><path
         id="path138"
         style="fill:#df9866;fill-opacity:1;fill-rule:nonzero;stroke:none"
         d="m 13798.1,8671.2 h -80.5 c 16.8,446.3 41.6,1070.5 50.1,1113 13.3,66.5 252.9,732.2 252.9,732.2 l 17.8,1442.3 57.7,26.7 c 0,0 -13.3,-492.6 0,-918.7 13.3,-426 0,-621.3 0,-621.3 0,0 -248.5,-461.5 -257.4,-741.1 -5.4,-170.1 -25.6,-668.7 -40.6,-1033.1" /><path
         id="path140"
         style="fill:#d3d2d0;fill-opacity:1;fill-rule:nonzero;stroke:none"
         d="m 13801.9,8763.4 c -11.4,-278.3 -20.9,-505.9 -20.9,-505.9 l -79.9,-35.5 c 0,0 8.7,245.2 20,541.4 h 80.8" /><path
         id="path142"
         style="fill:#252323;fill-opacity:1;fill-rule:nonzero;stroke:none"
         d="m 13818,13292 c 0,0 687.7,109.8 1164.1,-187.9 l 19.3,-248.9 c 0,0 0,-288.5 0,-559.2 0,-270.7 0,-399.4 0,-399.4 0,0 -328.4,88.8 -541.4,93.2 -213,4.4 -421.6,-31.1 -421.6,-31.1 0,0 -155.3,13.4 -292.9,8.9 -137.6,-4.4 -177.5,-4.4 -177.5,-4.4 0,0 -119.8,350.1 -88.8,641 31.1,290.9 321.5,534.2 338.8,687.8" /><path
         id="path144"
         style="fill:#100f0d;fill-opacity:1;fill-rule:nonzero;stroke:none"
         d="m 13829.8,12633.3 c 0,0 -8.9,-181.9 111,-328.4 119.8,-146.5 155.3,-173.1 155.3,-173.1 v -146.4 l -57.7,-26.7 -44.4,133.2 c 0,0 -248.7,92.7 -164.2,541.4" /><path
         id="path146"
         style="fill:#ecaf86;fill-opacity:1;fill-rule:nonzero;stroke:none"
         d="m 13994.9,15683 -63.1,81.4 c 0,0 -93.4,-101.4 -120,-172.4 -26.6,-71 -190.8,-541.4 -190.8,-541.4 l -79.9,319.5 -195.3,-57.7 c 0,0 22.2,-607.9 26.7,-750 4.4,-142 119.8,-439.3 266.2,-417.1 146.5,22.2 297.4,541.4 297.4,541.4 0,0 168.6,812.1 159.7,825.5 -8.8,13.3 -100.9,170.8 -100.9,170.8" /><g
         transform="scale(1.02933)"
         id="g148"><path
           id="path150"
           style="fill:#fbc398;fill-opacity:1;fill-rule:nonzero;stroke:none"
           d="m 13851.5,15912 c -9.7,-6.5 -87.3,-77.6 -87.3,-77.6 v -326.6 c 0,0 -168.1,-249 -168.1,-271.7 0,-22.6 58.2,-48.5 127.7,0 69.6,48.6 114.8,165 234.4,216.7 119.7,51.7 291.1,92.1 310.5,107.5 19.3,15.4 206.9,219.3 197.2,272.5 -9.7,53.3 -135.8,296.2 -135.8,296.2 0,0 -94.1,144.5 -142.4,157.7 -48.4,13.3 -142.1,0 -142.1,0 l -194.1,-374.7" /></g><g
         transform="scale(1.00973)"
         id="g152"><path
           id="path154"
           style="fill:#e19665;fill-opacity:1;fill-rule:nonzero;stroke:none"
           d="m 14492.9,16300 16.6,-243.6 82.4,-95.9 76.7,148.3 -175.7,191.2" /></g><g
         transform="scale(1.06711)"
         id="g156"><path
           id="path158"
           style="fill:#372a23;fill-opacity:1;fill-rule:nonzero;stroke:none"
           d="m 13420.4,16153.4 c 0,0 -68.6,146.6 -293.1,115.4 -224.6,-31.2 -293.2,-315 -252.7,-573.9 40.5,-258.9 74.9,-427.3 43.7,-570.8 -31.2,-143.5 -71.8,-202.8 -71.8,-202.8 0,0 240.2,9.4 287,227.7 46.8,218.4 -34.3,444.3 81.1,566.8 115.4,122.6 205.8,437.6 205.8,437.6" /></g><g
         transform="scale(1.06139)"
         id="g160"><path
           id="path162"
           style="fill:#3a70c0;fill-opacity:1;fill-rule:nonzero;stroke:none"
           d="m 13292,16122.3 c 0,0 -29.1,2.7 -26.5,7.5 2.5,4.8 -1.6,53.1 26.5,97 28.3,43.9 132.8,73.2 164.1,72.2 31.4,-1.1 71.1,-17.4 71.1,-17.4 0,0 25.1,-69.4 -20.8,-86.1 -46,-16.8 -214.4,-73.2 -214.4,-73.2" /></g><g
         transform="scale(1.06241)"
         id="g164"><path
           id="path166"
           style="fill:#523d38;fill-opacity:1;fill-rule:nonzero;stroke:none"
           d="m 14069.8,15952.3 c 0,10.4 108.6,-64.8 108.6,-64.8 0,0 57.5,219.3 -237.2,340.4 -151.3,62.3 -420.7,72.1 -602.4,-21.9 -181.7,-94 -144.1,-495 -106.5,-617.2 37.5,-122.2 90.8,-238.1 103.3,-247.5 12.6,-9.4 181.8,28.2 209.9,59.6 28.3,31.3 122.3,203.6 122.3,203.6 0,0 175.4,-37.6 188,-34.5 12.5,3.2 184.7,156.7 191,188 6.4,31.3 23,194.3 23,194.3" /></g><g
         transform="scale(1.04982)"
         id="g168"><path
           id="path170"
           style="fill:#fbc398;fill-opacity:1;fill-rule:nonzero;stroke:none"
           d="m 13964.8,15915.3 c 0,0 -53.8,76.1 -101.4,66.6 -47.6,-9.5 -44.4,-168 -31.7,-190.2 12.7,-22.2 107.8,-114.2 107.8,-114.2 0,0 44.4,-155.3 57,-187 12.7,-31.7 237.9,-168.1 260.1,-161.7 22.2,6.3 66.6,250.4 66.6,250.4 0,0 63.3,21.2 69.7,31.7 6.3,10.6 -57.1,186.1 -57.1,205.1 0,19 29.6,150 12.7,262.1 -17,112 -154.3,221.9 -167,221.9 -12.7,0 0,-59.2 -16.9,-78.2 -16.9,-19 -109.9,-50.7 -120.4,-74 -10.6,-23.2 23.2,-150.1 14.7,-169.1 -8.5,-19 -31.7,-31.7 -40.2,-50.7 -8.4,-19 -33.8,-69.8 -33.8,-69.8 l -20.1,57.1" /></g><path
         id="path172"
         style="fill:#3a70c0;fill-opacity:1;fill-rule:nonzero;stroke:none"
         d="m 13944.9,15849.4 c 13.4,0 0,-44.3 0,-44.3 0,0 -164.2,-492.7 -155.3,-674.6 8.9,-182 72.1,-559.2 80.5,-750 8.3,-190.8 0,-253 0,-253 48.2,4.5 1299.7,88.8 1299.7,88.8 l 71,239.6 c 0,0 276.3,168.7 204.7,488.2 -71.6,319.5 -554.9,710.6 -554.9,710.6 0,0 -200.1,443.3 -231.2,461 -31,17.8 -312.8,-124.3 -338.4,-142 -25.5,-17.8 -220.7,-75.4 -238.5,-88.8 -17.7,-13.3 -137.6,-35.5 -137.6,-35.5" /><g
         transform="scale(1.00149)"
         id="g174"><path
           id="path176"
           style="fill:#c9c8c6;fill-opacity:1;fill-rule:nonzero;stroke:none"
           d="m 13051.3,15613.2 c 0,0 -22.2,-70.9 39.8,-97.5 l 2322,638.1 c 0,0 39.9,119.6 -44.3,146.2 l -2317.5,-686.8" /></g><g
         transform="scale(1.0017)"
         id="g178"><path
           id="path180"
           style="fill:#e4e4e3;fill-opacity:1;fill-rule:nonzero;stroke:none"
           d="m 15429.4,16225 c 4.6,-43.2 -21.2,-81.4 -57.7,-85.3 -36.5,-3.9 -69.8,28 -74.4,71.1 -4.6,43.2 21.1,81.4 57.7,85.3 36.5,3.9 69.7,-27.9 74.4,-71.1" /></g><path
         id="path182"
         style="fill:#e19665;fill-opacity:1;fill-rule:nonzero;stroke:none"
         d="m 13496.7,14584.6 c 0,0 84.3,217.5 124.3,466 l -79.9,319.5 v 0 c 0,0 1.1,-193 1.1,-329.5 0,-136.4 -45.5,-456 -45.5,-456" /><path
         id="path184"
         style="fill:#ecaf86;fill-opacity:1;fill-rule:nonzero;stroke:none"
         d="m 13345.8,15312.4 c 0,0 -51,159.8 -59.9,177.6 -8.9,17.7 -79.9,166.4 -82.1,215.2 -2.2,48.8 95.4,108.7 95.4,108.7 0,0 8.9,53.3 28.9,59.9 19.9,6.7 53.2,-26.6 53.2,-26.6 0,0 75.5,8.9 95.4,2.2 20,-6.6 61.6,-74.4 61.6,-74.4 l -89.4,-26.5 c 0,0 14.5,-47.7 25.6,-63.3 11.1,-15.5 73.2,-71 84.3,-135.3 11.1,-64.4 -17.7,-179.8 -17.7,-179.8 l -124.3,-87.1 -71,29.4" /><g
         transform="scale(1.00015)"
         id="g186"><path
           id="path188"
           style="fill:#7e7f81;fill-opacity:1;fill-rule:nonzero;stroke:none"
           d="m 14809,16263 96.7,12.2 c 0,0 121.9,24.8 177.4,-44.2 l -78.7,-23.3 c 0,0 -1,-105.5 50,-136.6 l 67.7,18.6 c 0,0 -14.5,-145.1 -172.1,-136.2 -157.5,8.9 -184.2,159.4 -189.9,181.8 -5.6,22.4 48.9,127.7 48.9,127.7" /></g><path
         id="path190"
         style="fill:#ecaf86;fill-opacity:1;fill-rule:nonzero;stroke:none"
         d="m 14844.8,15589.9 c 12.6,-6 107.5,-51.1 107.5,-51.1 0,0 115.6,-125.4 104.4,-255.8 -11.2,-130.3 -102.4,-316.7 -245.4,-305.6 -143,11.1 -169.6,126.5 -116.4,277.4 53.3,150.8 149.9,335.1 149.9,335.1" /><path
         id="path192"
         style="fill:#ecaf86;fill-opacity:1;fill-rule:nonzero;stroke:none"
         d="m 13345.8,15638.6 -46.6,175.3 118.2,-7.7 31.5,-57.7 25.6,-63.3 40,-46.6 -107.6,-68.7 c 0,0 -26.1,13 -32.8,9 -6.6,-4.1 -16.6,14.2 -16.6,14.2 l -11.7,45.5" /><g
         transform="scale(1.0019)"
         id="g194"><path
           id="path196"
           style="fill:#fbc398;fill-opacity:1;fill-rule:nonzero;stroke:none"
           d="m 14694.7,16229.1 c 0,0 -116.2,-79.7 -122.9,-97.4 -6.6,-17.7 -4.1,-173.1 12.4,-210.6 16.5,-37.5 111.6,-179.2 110.5,-199.2 -1,-19.9 -14.3,-96.9 -14.3,-96.9 l 243.6,-115.7 c 0,0 101.9,88.6 104.1,181.6 2.2,93.1 -50.9,192.7 -104.1,234.8 -53.1,42.1 -135.1,139.7 -125.7,186 9.4,46.4 99.1,115.7 81.4,135.2 -17.7,19.4 -22.1,53.1 -48.8,46.5 -26.5,-6.7 -136.2,-64.3 -136.2,-64.3" /></g><path
         id="path198"
         style="fill:#fbc398;fill-opacity:1;fill-rule:nonzero;stroke:none"
         d="m 14762,15813.9 c 0,0 -228.6,-0.4 -391,-22.2 -162.4,-21.7 -319.1,-328.4 -346,-479.3 -26.8,-150.8 71.2,-275.1 71.2,-275.1 0,0 -71,-341.7 -71.2,-426 -0.2,-84.4 141.8,-328.4 199.5,-341.8 57.7,-13.3 146.5,-26.6 266.3,128.7 119.8,155.4 250.5,377.3 320.5,579.2 70,201.9 49.4,436.5 141,561.4 91.7,124.9 -190.3,275.1 -190.3,275.1" /><path
         id="path200"
         style="fill:#e19665;fill-opacity:1;fill-rule:nonzero;stroke:none"
         d="m 14122.5,15283 39.9,-103.7 -66.2,-142 -40.3,68.9 53.2,54 13.4,122.8" /><path
         id="path202"
         style="fill:#e19665;fill-opacity:1;fill-rule:nonzero;stroke:none"
         d="m 14708.3,15654.7 c 0,0 -146.5,-297.9 -244.1,-422.1 -97.7,-124.3 -301.8,-363.9 -301.8,-363.9 0,0 253,417.1 272.9,448.2 20,31 273,468.9 273,468.9 v -131.1" /><path
         id="path204"
         style="fill:#e19665;fill-opacity:1;fill-rule:nonzero;stroke:none"
         d="m 13306.7,15785.8 50.8,-192.7 -97.4,192.7 39.1,28.1 7.5,-28.1" /></g></g></svg>