<?xml version="1.0" encoding="UTF-8" standalone="no"?>
<svg
   xmlns:dc="http://purl.org/dc/elements/1.1/"
   xmlns:cc="http://creativecommons.org/ns#"
   xmlns:rdf="http://www.w3.org/1999/02/22-rdf-syntax-ns#"
   xmlns:svg="http://www.w3.org/2000/svg"
   xmlns="http://www.w3.org/2000/svg"
   viewBox="0 0 2666.6667 2666.6667"
   height="2666.6667"
   width="2666.6667"
   xml:space="preserve"
   id="svg2"
   version="1.1"><metadata
     id="metadata8"><rdf:RDF><cc:Work
         rdf:about=""><dc:format>image/svg+xml</dc:format><dc:type
           rdf:resource="http://purl.org/dc/dcmitype/StillImage" /></cc:Work></rdf:RDF></metadata><defs
     id="defs6" /><g
     transform="matrix(1.3333333,0,0,-1.3333333,0,2666.6667)"
     id="g10"><g
       transform="scale(0.1)"
       id="g12"><g
         transform="scale(1.22699)"
         id="g14"><path
           id="path16"
           style="fill:none;fill-opacity:1;fill-rule:nonzero;stroke:none"
           d="M 16300,0 H 0 V 16300 H 16300 V 0" /></g><path
         id="path18"
         style="fill:#bbbab8;fill-opacity:1;fill-rule:nonzero;stroke:none"
         d="m 13878.7,3980 -114.6,-83.3 -119.8,41.7 v 317.7 h 119.8 l 114.6,-276.1" /><g
         transform="scale(1.00067)"
         id="g20"><path
           id="path22"
           style="fill:#abaaa9;fill-opacity:1;fill-rule:nonzero;stroke:none"
           d="M 16300,4253.23 H 13754.8 V 3894.07 H 16300 v 359.16" /></g><path
         id="path24"
         style="fill:#abaaa9;fill-opacity:1;fill-rule:nonzero;stroke:none"
         d="m 15230.1,4153.8 h -362.5 v 1108.8 h 362.5 V 4153.8" /><path
         id="path26"
         style="fill:#bbbab8;fill-opacity:1;fill-rule:nonzero;stroke:none"
         d="m 15617.2,2766.2 h -458.4 v 2496.4 h 458.4 V 2766.2" /><path
         id="path28"
         style="fill:#1e1c1b;fill-opacity:1;fill-rule:nonzero;stroke:none"
         d="m 14588.5,5887 -213.3,44.7 v -297.4 l 275.6,-433.6 43.4,365.5 -105.7,320.8" /><path
         id="path30"
         style="fill:#686a6c;fill-opacity:1;fill-rule:nonzero;stroke:none"
         d="m 16261.4,5566.2 v -328.3 l -1610.6,-37.2 43.4,365.5 h 1567.2" /><path
         id="path32"
         style="fill:#535456;fill-opacity:1;fill-rule:nonzero;stroke:none"
         d="m 14375.2,5931.7 319,-365.5 h 1567.2 l -377.8,501.7 c 0,0 -923,117.7 -972.6,99.2 -49.6,-18.6 -535.8,-235.4 -535.8,-235.4" /><path
         id="path34"
         style="fill:#1e1c1b;fill-opacity:1;fill-rule:nonzero;stroke:none"
         d="m 13353.1,7288.3 c -43.3,-12.4 -210.6,-68.2 -210.6,-68.2 0,0 -6.2,68.2 -99.1,34.1 -92.9,-34.1 -582.3,-232.3 -594.7,-288 -12.4,-55.8 167.3,-446 365.5,-588.5 198.2,-142.5 179.6,-346.9 415,-613.3 235.4,-266.4 551.4,-241.6 644.3,-198.2 92.9,43.4 31,161 -74.3,365.5 -105.4,204.4 -130.1,613.2 -111.6,675.2 18.6,61.9 117.7,216.8 -80.5,291.1 -198.2,74.4 -254,390.3 -254,390.3" /><path
         id="path36"
         style="fill:#1e1c1b;fill-opacity:1;fill-rule:nonzero;stroke:none"
         d="m 14506.7,6606.9 c 0,0 -95.8,-43.4 -132.2,-86.7 -36.4,-43.4 -154.1,-520.4 -123.1,-588.5 30.9,-68.2 588.4,-80.6 724.7,-31 136.3,49.6 260.2,55.7 563.7,31 303.6,-24.8 594.7,105.3 638.1,179.6 43.3,74.3 -24.8,167.3 -198.3,204.4 -173.4,37.2 -291.1,68.2 -489.3,192.1 -198.2,123.9 -285,235.4 -297.4,253.9 -12.4,18.6 -30.9,48.2 -173.4,117.1 -142.5,68.8 -512.8,-271.9 -512.8,-271.9" /><path
         id="path38"
         style="fill:#b8613a;fill-opacity:1;fill-rule:nonzero;stroke:none"
         d="m 15658.9,9660.8 c 0,0 23.4,-284.9 -38.5,-483.2 -62,-198.2 -96.3,-315.9 -144.2,-495.5 -47.9,-179.7 -97.4,-415.1 -258.5,-929.2 -161,-514.2 -179.6,-960.2 -179.6,-960.2 0,0 -130.1,-185.8 -241.6,-223 -111.5,-37.2 -289.8,37.2 -289.8,37.2 0,0 128.7,712.4 85.4,1195.5 -43.4,483.2 83.1,1040.7 97.3,1096.5 14.2,55.7 113.3,737.1 169,761.9 55.8,24.8 216.8,192.1 377.9,148.7 161.1,-43.4 422.6,-148.7 422.6,-148.7" /><path
         id="path40"
         style="fill:#c37140;fill-opacity:1;fill-rule:nonzero;stroke:none"
         d="m 14689.4,10034.7 c 1.8,-76.5 -41.6,-652.6 -41.6,-652.6 0,0 -501.8,-216.8 -681.4,-600.9 -179.6,-384.1 -508,-1177 -644.2,-1350.4 -136.3,-173.5 -179.7,-192.1 -179.7,-210.7 0,-18.5 -55.7,-278.7 55.8,-322.1 111.5,-43.3 408.8,0 408.8,0 0,0 138.7,458.4 490.6,842.5 351.9,384.1 785.5,817.7 977.5,991.1 192.1,173.5 359.3,272.6 427.5,415.1 68.1,142.5 117.7,687.6 117.7,687.6 l -931,200.4" /><path
         id="path42"
         style="fill:#1e1c1b;fill-opacity:1;fill-rule:nonzero;stroke:none"
         d="m 14386.2,12274.6 c 0,0 -209.2,-228.8 -277.3,-538.6 -68.2,-309.7 197,-796.1 219.3,-1036.1 22.3,-240 -6,-1138.2 -4.3,-1144.4 1.8,-6.2 416.8,-80.5 838.1,-92.9 421.2,-12.4 631.8,37.2 631.8,37.2 0,0 77.1,2062.8 47.9,2186.7 -29.3,123.9 -150.9,510.1 -150.9,510.1 0,0 -324.4,282.8 -466.9,289 -142.5,6.2 -837.7,-211 -837.7,-211" /><path
         id="path44"
         style="fill:#e9eef1;fill-opacity:1;fill-rule:nonzero;stroke:none"
         d="m 14623.8,15318.7 c -18.6,-12.4 -155.8,-123.9 -155.8,-123.9 l -175.6,-315.9 -41.8,-600.9 v -290.6 c 0,0 9.3,-320.8 18.6,-426.3 9.3,-105.4 121.5,-1336.6 121.5,-1336.6 0,0 422,37.2 784.4,-27.9 362.4,-65 473.9,-46.5 515.7,0 41.8,46.5 41.8,664.4 65.1,817.7 23.2,153.3 60.4,748 60.4,748 0,0 116.1,153.3 111.5,367 -4.7,213.7 -329.9,622.6 -348.5,659.8 -18.6,37.1 -146.6,250.8 -146.6,250.8 0,0 -187.9,367.5 -243.6,369.6 -55.8,2.1 -264.9,-2.1 -297.4,0 -32.5,2.1 -267.9,-90.8 -267.9,-90.8" /><path
         id="path46"
         style="fill:#c37140;fill-opacity:1;fill-rule:nonzero;stroke:none"
         d="m 14594.4,15081.7 c 0,0 -149,-60.7 -260.3,-127.9 -111.4,-67.2 -181.1,-327.4 -176.4,-406.3 0,0 -34.2,-319.1 15.4,-560.1 0,0 31,-241.8 96.1,-426.3 0,0 36.4,-402 57.2,-630.3 20.8,-228.3 3.2,-590.2 137.9,-920 134.7,-329.9 297.3,-766.6 297.3,-766.6 l 385.6,55.7 c 0,0 -92.9,371.7 -92.9,706.2 0,334.5 -41.8,892 -83.6,1054.7 0,0 199.8,408.8 246.2,682.9 0,0 288.1,162.6 311.3,538.9 23.2,376.4 -55.7,599.4 -241.6,734.1 -185.8,134.7 -432,250.9 -692.2,65" /><path
         id="path48"
         style="fill:#a45634;fill-opacity:1;fill-rule:nonzero;stroke:none"
         d="m 15405.7,13926.2 c -70.5,83.1 -137.7,166.9 -137.7,184.5 0,37.2 55.8,176.6 55.8,176.6 l -148.7,-158 c 0,0 27.9,-65 41.8,-181.2 14,-116.1 0,-204.4 0,-204.4 0,0 101.5,57.3 188.8,182.5" /><path
         id="path50"
         style="fill:#a45634;fill-opacity:1;fill-rule:nonzero;stroke:none"
         d="m 14187,13897.5 c -15.7,310.3 34.2,501.3 15.6,538.4 -2.6,5.1 -21.4,12.9 -51.8,22.5 -6.6,-112 -11.1,-309 22.3,-471 0,0 4.6,-35.6 13.9,-89.9" /><path
         id="path52"
         style="fill:#535456;fill-opacity:1;fill-rule:nonzero;stroke:none"
         d="m 15744.1,10053.9 c 57.5,77.2 98.8,330.2 97.5,630.5 -1.2,290.6 -42,536.7 -97.2,621.8 -4.5,8.8 -9.8,15.7 -16.4,20 0,0 -0.1,0.1 -0.2,0.1 -5.9,5.4 -12,9.1 -18.2,10.7 -98.7,52.6 -182.3,4.9 -182.3,4.9 l -11.5,-117.5 c 0,0 -99.6,-1141 17,-1191.1 92.8,-39.8 152.6,-21.1 184.2,-1.9 9.2,3.1 18.2,10.6 26.8,22 0.2,0.3 0.4,0.5 0.4,0.5 h -0.1" /><path
         id="path54"
         style="fill:#9c9c9b;fill-opacity:1;fill-rule:nonzero;stroke:none"
         d="m 15667.1,10688.2 c 1.6,-361.4 -58.5,-654.6 -134.3,-654.9 -75.7,-0.3 -138.3,292.4 -139.8,653.7 -1.5,361.4 58.6,654.6 134.3,654.9 75.7,0.3 138.3,-292.4 139.8,-653.7" /><path
         id="path56"
         style="fill:#bbbab8;fill-opacity:1;fill-rule:nonzero;stroke:none"
         d="m 15532.9,10525.9 -877.8,19 c -17.9,0.4 -32.2,15.3 -31.8,33.2 l 4.7,218.3 c 0.4,18 15.3,32.2 33.3,31.9 l 877.7,-19 c 18,-0.4 32.2,-15.3 31.8,-33.3 l -4.7,-218.2 c -0.4,-18 -15.3,-32.3 -33.2,-31.9" /><path
         id="path58"
         style="fill:#e3e2e0;fill-opacity:1;fill-rule:nonzero;stroke:none"
         d="m 14080.9,2865.3 -136.3,-99.1 -142.4,49.6 v 377.9 h 142.4 l 136.3,-328.4" /><g
         transform="scale(1.04134)"
         id="g60"><path
           id="path62"
           style="fill:#bbbab8;fill-opacity:1;fill-rule:nonzero;stroke:none"
           d="m 16300,3066.92 h -2909 v -410.53 h 2909 v 410.53" /></g><path
         id="path64"
         style="fill:#f5f6f5;fill-opacity:1;fill-rule:nonzero;stroke:none"
         d="m 13433.6,7618.9 c -43.8,-84.5 -82.1,-150.8 -111.4,-188.1 -136.3,-173.5 -179.7,-192.1 -179.7,-210.7 0,-18.5 -55.7,-278.7 55.8,-322.1 111.5,-43.3 408.8,0 408.8,0 0,0 58.8,194.1 196.7,435.4 -125.5,84 -271.4,202.3 -370.2,285.5" /><path
         id="path66"
         style="fill:#f5f6f5;fill-opacity:1;fill-rule:nonzero;stroke:none"
         d="m 14584.9,7222.3 c -26.9,-331.2 -78.2,-615.4 -78.2,-615.4 0,0 178.3,-74.4 289.8,-37.2 111.5,37.2 241.6,223 241.6,223 0,0 6.7,160.8 46.9,400.3 -193.6,3.5 -381.3,18.4 -500.1,29.3" /><path
         id="path68"
         style="fill:#c37140;fill-opacity:1;fill-rule:nonzero;stroke:none"
         d="m 14694.5,15779.1 c 0,0 -5.7,-203.3 -58.3,-296.3 -52.7,-92.9 -168.2,-288 -168.2,-288 0,0 261.1,77.4 521.3,46.5 260.2,-31 443.4,-201.4 443.4,-201.4 l -7.9,311 c 0,0 -181.5,348.8 -209.4,370.4 -27.9,21.7 -520.9,57.8 -520.9,57.8" /><g
         transform="scale(1.00937)"
         id="g70"><path
           id="path72"
           style="fill:#c37140;fill-opacity:1;fill-rule:nonzero;stroke:none"
           d="m 15298,15527.3 -4.7,-34.8 c 0,0 -13.6,-41.5 -11.7,-284.1 0,0 -294.2,111.4 -463.4,167 -169.3,55.5 -223.3,29.3 -223.3,29.3 l -52.1,322.1 281.8,506.4 c 0,0 102.1,66.8 266.4,-51.3 164.1,-118.1 207,-654.6 207,-654.6" /></g><path
         id="path74"
         style="fill:#dc9b70;fill-opacity:1;fill-rule:nonzero;stroke:none"
         d="m 15477.1,15680.8 c 55.2,-20.8 131.7,-37.1 190.3,-47.6 -87.5,-4.9 -204.1,-3.8 -230.8,4.5 -42.8,13.2 -283.8,252.3 -304.1,299.9 -20.3,47.5 -17,188.6 -17,188.6 0,0 34,-131.6 67.3,-193.4 33.3,-61.7 192.5,-213.6 294.3,-252" /><path
         id="path76"
         style="fill:#c37140;fill-opacity:1;fill-rule:nonzero;stroke:none"
         d="m 14877.8,11337.1 -116.2,-92.9 c 0,0 -10.8,-441.4 -23.2,-515.7 -12.4,-74.4 41.2,-149.4 25.8,-164.9 -15.5,-15.5 -88.1,-19.2 -88.1,-19.2 0,0 34.4,-147.3 80.9,-153.5 46.4,-6.2 96,0 96,0 0,0 40.3,-52.7 111.5,-40.3 71.2,12.4 55.8,6.2 71.2,12.4 15.5,6.2 52.7,-15.5 120.8,3.1 68.2,18.6 77.5,43.4 77.5,43.4 0,0 105.3,-9.3 139.3,6.2 34.1,15.4 18.6,356.1 0,446 -18.5,89.8 -204.5,341.8 -226.1,438.2 -21.5,96.5 -269.4,37.2 -269.4,37.2" /><path
         id="path78"
         style="fill:#535456;fill-opacity:1;fill-rule:nonzero;stroke:none"
         d="m 14591.9,10078.8 c 57.4,77.2 98.7,330.2 97.5,630.5 -1.3,290.6 -42,536.6 -97.3,621.7 -4.5,8.9 -9.8,15.8 -16.3,20.1 -0.1,0 -0.2,0.1 -0.2,0.1 -6,5.4 -12.1,9.1 -18.3,10.7 -98.7,52.5 -182.3,4.9 -182.3,4.9 l -11.4,-117.4 c 0,0 -99.6,-1141.1 17,-1191.2 92.7,-39.8 152.6,-21.1 184.1,-1.9 9.3,3.1 18.2,10.6 26.8,22 0.2,0.3 0.4,0.5 0.4,0.5 v 0" /><path
         id="path80"
         style="fill:#9c9c9b;fill-opacity:1;fill-rule:nonzero;stroke:none"
         d="m 14514.9,10713.1 c 1.5,-361.4 -58.6,-654.6 -134.3,-654.9 -75.7,-0.3 -138.4,292.4 -139.9,653.7 -1.5,361.4 58.6,654.6 134.3,654.9 75.7,0.3 138.3,-292.4 139.9,-653.7" /><path
         id="path82"
         style="fill:#535456;fill-opacity:1;fill-rule:nonzero;stroke:none"
         d="m 14424.5,10698.6 c -1.3,-98 -23.9,-177.1 -50.5,-176.8 -26.6,0.4 -47.1,80.1 -45.8,178.1 1.3,98 23.9,177.2 50.5,176.8 26.6,-0.3 47.1,-80.1 45.8,-178.1" /><g
         transform="scale(1.00989)"
         id="g84"><path
           id="path86"
           style="fill:#c37140;fill-opacity:1;fill-rule:nonzero;stroke:none"
           d="m 15260.4,15135.5 c -4.9,7.6 -7.8,13.3 -8.3,16.6 -5.7,40.7 55.3,332.1 55.3,332.1 0,0 -169.5,454 -189.9,470.9 -20.3,17 -284.6,186.4 -338.7,169.4 -54.3,-16.9 -183,175.5 -196.6,-83.3 -13.4,-258.9 -13.4,-455.4 -13.4,-455.4 0,0 -17.1,-152.4 -44.1,-213.4 -27.1,-61 -91.5,-152.5 -91.5,-152.5 0,0 20.3,-10.2 369.2,-54.2 43.9,-5.5 87.5,-16 130.3,-30.2 h 327.7" /></g><path
         id="path88"
         style="fill:#a45634;fill-opacity:1;fill-rule:nonzero;stroke:none"
         d="m 15120.7,16176.1 c 0,0 -49.1,-268.4 -26.6,-354 22.5,-85.5 329.7,-363.8 329.7,-363.8 l 35,179.1 -338.1,538.7" /><g
         transform="scale(1.05538)"
         id="g90"><path
           id="path92"
           style="fill:#2f1d16;fill-opacity:1;fill-rule:nonzero;stroke:none"
           d="m 14884.8,15897.2 c 63.5,144 -48.8,220 -96.9,247.9 -48,27.8 -57.6,70.4 -214.4,112.7 -156.8,42.2 -209.7,-22.6 -262,-21.8 -52.3,0.9 -167.9,-39.7 -261.3,-71.7 -93.5,-31.9 -124.8,-110.7 -154.9,-135.2 0,0 -194,-47.9 -180.1,-352.5 13.9,-304.7 222.7,-685.8 227.4,-692.2 0,0 330.5,283.5 384.6,342.9 98.4,-5.5 254.4,-12.4 259.2,-1.8 6.8,15.4 248.6,502 248.6,502 l 45.1,55.7 c 0,0 4.7,3.8 11.3,10.8 l -6.6,3.2" /></g><g
         transform="scale(1.02967)"
         id="g94"><path
           id="path96"
           style="fill:#c37140;fill-opacity:1;fill-rule:nonzero;stroke:none"
           d="m 15256.5,16294.3 c 0,0 75.1,-190.1 85.1,-234.2 10.1,-44.2 -14.4,-179 -11.7,-200.3 2.8,-21.3 126.1,-241.6 122.9,-255.2 -3.2,-13.6 -91.5,-27.7 -94.6,-35.2 -3.2,-7.6 -11.8,-89.5 -9.7,-97.5 2.2,-8 -0.2,-25 -0.2,-25 0,0 6.4,-34.3 -0.7,-51.3 -7.1,-17 -9.7,-46.5 -12.2,-57.9 -2.4,-11.4 -1.7,-135.5 -17.2,-153.5 -15.3,-18.1 -336.4,-12.8 -377.3,-1.6 -40.8,11.1 -212.2,211 -232.9,255.3 -20.6,44.3 -22,178 -22,178 0,0 -109.1,21.1 -150.4,109.7 -41.5,88.6 -27.3,244.9 62.6,268 89.8,23.2 130.8,-95.8 141.1,-127.8 10.2,-32 26.4,-73.3 30.9,-76.3 4.5,-3.1 23.6,74.9 42.4,124.7 18.9,49.9 4.2,195.1 18.6,249.6 14.3,54.4 86.4,112.8 120,124.5 33.5,11.7 305.3,6 305.3,6" /></g><g
         transform="scale(1.03657)"
         id="g98"><path
           id="path100"
           style="fill:#2f1d16;fill-opacity:1;fill-rule:nonzero;stroke:none"
           d="m 14671.9,15684.3 c 0,0 30.2,5.4 32.3,22 2.1,16.5 26.6,141.1 26.6,141.1 0,0 40.7,36.4 31.1,96.5 -9.7,60.1 -15.5,70.8 14.5,99.5 30.1,28.6 17.1,105.3 46.2,120.9 29.1,15.5 206.4,25.9 206.4,25.9 0,0 86.7,103.5 -45.3,106.7 -132,3.1 -269,-18.7 -332.6,-76.1 -63.4,-57.4 -90.8,10.2 -67.1,-104.3 23.6,-114.5 87.9,-432.2 87.9,-432.2" /></g><g
         transform="scale(1.05537)"
         id="g102"><path
           id="path104"
           style="fill:#2f1d16;fill-opacity:1;fill-rule:nonzero;stroke:none"
           d="m 13795.9,15962.4 c 0,0 36.1,53.1 58.8,72 22.6,18.9 44.2,66.5 68.7,81.8 24.7,15.4 58.2,31.1 63.5,34.9 5.2,3.8 53.7,56 101.9,65.1 48.2,9 78.6,13.8 91.1,16.1 12.5,2.3 79.3,42.6 133.2,46.5 53.8,3.9 55.7,0.4 80.8,3.1 25.1,2.8 96.5,18.1 196.3,-5 99.9,-23.1 197.9,-131.7 197.9,-131.7 l -306.5,-178.4 -407.1,-127.2 -278.6,122.8" /></g><path
         id="path106"
         style="fill:#bbbab8;fill-opacity:1;fill-rule:nonzero;stroke:none"
         d="m 6274.88,3980 -114.59,-83.3 -119.79,41.7 v 317.7 h 119.79 L 6274.88,3980" /><path
         id="path108"
         style="fill:#abaaa9;fill-opacity:1;fill-rule:nonzero;stroke:none"
         d="M 8707.18,4256.1 H 6160.29 v -359.4 h 2546.89 v 359.4" /><path
         id="path110"
         style="fill:#abaaa9;fill-opacity:1;fill-rule:nonzero;stroke:none"
         d="m 7626.32,4153.8 h -362.49 v 1108.8 h 362.49 V 4153.8" /><path
         id="path112"
         style="fill:#bbbab8;fill-opacity:1;fill-rule:nonzero;stroke:none"
         d="m 8013.38,2766.2 h -458.4 v 2496.4 h 458.4 V 2766.2" /><path
         id="path114"
         style="fill:#1e1c1b;fill-opacity:1;fill-rule:nonzero;stroke:none"
         d="m 6984.7,5887 -213.34,44.7 v -297.4 l 275.66,-433.6 43.37,365.5 -105.69,320.8" /><path
         id="path116"
         style="fill:#686a6c;fill-opacity:1;fill-rule:nonzero;stroke:none"
         d="m 8657.62,5566.2 v -328.3 l -1610.6,-37.2 43.37,365.5 h 1567.23" /><path
         id="path118"
         style="fill:#535456;fill-opacity:1;fill-rule:nonzero;stroke:none"
         d="m 6771.36,5931.7 319.03,-365.5 h 1567.23 l -377.87,501.7 c 0,0 -923,117.7 -972.55,99.2 -49.56,-18.6 -535.84,-235.4 -535.84,-235.4" /><path
         id="path120"
         style="fill:#1e1c1b;fill-opacity:1;fill-rule:nonzero;stroke:none"
         d="m 3460.34,3726.4 c 0,0 -223,-31 -278.75,-136.3 -55.76,-105.3 -37.17,-210.6 -74.34,-340.7 -37.17,-130.1 -86.72,-278.8 -80.53,-340.7 6.2,-62 241.59,-130.1 470.79,-111.5 229.2,18.6 123.9,74.3 483.18,31 359.29,-43.4 935.39,-6.2 991.14,136.3 55.75,142.4 -37.17,201.3 -241.59,295.7 -204.42,94.5 -563.71,398 -603.98,416.6 -40.26,18.6 -40.26,123.9 -213.71,142.5 -173.45,18.6 -452.21,-92.9 -452.21,-92.9" /><path
         id="path122"
         style="fill:#1e1c1b;fill-opacity:1;fill-rule:nonzero;stroke:none"
         d="m 6906.31,6625.6 c 0,0 -100.88,-31.1 -134.95,-99.3 -34.07,-68.1 -120.79,-569.9 -102.21,-600.8 18.58,-31 588.49,-62 737.16,-31 148.67,31 712.38,-18.6 904.41,37.2 192.04,55.7 309.73,167.2 266.37,272.5 -43.36,105.3 -415.04,92.9 -557.51,185.9 -142.48,92.9 -427.43,353.1 -427.43,353.1 0,0 -12.39,154.8 -185.84,161 -173.45,6.2 -500,-278.6 -500,-278.6" /><path
         id="path124"
         style="fill:#100f0d;fill-opacity:1;fill-rule:nonzero;stroke:none"
         d="m 6179.78,8508.6 c 24.78,-30.9 294.24,-241.6 294.24,-241.6 0,0 108.96,190.3 102.21,588.5 -6.74,398.2 -396.45,87.8 -396.45,87.8 v -434.7" /><path
         id="path126"
         style="fill:#c37140;fill-opacity:1;fill-rule:nonzero;stroke:none"
         d="m 6328.45,8651.1 c 0,0 495.57,185.8 545.12,179.6 49.56,-6.1 30.98,-46.4 0,-243.1 -30.97,-196.7 -13.15,-419.7 30.6,-741.8 43.74,-322.1 0,-1269.9 0,-1269.9 0,0 155.24,-31 266.75,0 111.5,31 260.17,210.6 260.17,210.6 0,0 30.97,780.5 161.06,1307.1 130.09,526.5 105.31,1247.6 74.33,1404.3 -30.97,156.7 -613.26,299.2 -895.12,283.7 -281.85,-15.5 -678.31,-585.4 -672.11,-647.3 6.19,-62 229.2,-483.2 229.2,-483.2" /><path
         id="path128"
         style="fill:#c37140;fill-opacity:1;fill-rule:nonzero;stroke:none"
         d="m 3830.71,7105.5 c 0,0 -29.66,-560.6 -153.55,-814.5 -123.9,-254 -284.96,-489.4 -272.57,-1046.9 12.39,-557.5 -99.11,-1728.3 -99.11,-1728.3 0,0 136.28,-68.2 216.81,-37.2 80.53,31 390.26,340.7 390.26,340.7 0,0 -18.59,508 148.67,923 167.26,415 247.78,1127.4 291.15,1226.5 43.36,99.1 167.25,266.4 260.17,439.9 92.92,173.4 61.95,185.8 167.25,371.6 105.31,185.9 167.26,421.3 167.26,421.3 l -1116.34,-96.1" /><path
         id="path130"
         style="fill:#1e1c1b;fill-opacity:1;fill-rule:nonzero;stroke:none"
         d="m 4044.96,9567.9 c 0,0 -228.43,-288 -293.47,-501.8 -65.04,-213.7 111.5,-734 153.32,-845.5 41.81,-111.5 -74.1,-1115.1 -74.1,-1115.1 0,0 403.96,-139.3 719.89,-139.3 315.92,0 678.31,297.3 678.31,297.3 l 83.62,789.8 c 0,0 176.55,158 511.06,167.3 334.51,9.3 650.43,46.4 650.43,46.4 0,0 -111.5,408.9 0,724.8 111.5,315.9 297.34,789.8 297.34,789.8 0,0 -571.45,46.5 -864.14,37.2 -292.7,-9.3 -682.96,-144 -682.96,-144 0,0 -780.52,190.4 -854.86,176.5 -74.33,-13.9 -324.44,-283.4 -324.44,-283.4" /><path
         id="path132"
         style="fill:#e9eef1;fill-opacity:1;fill-rule:nonzero;stroke:none"
         d="m 4278.03,12662.1 c -18.58,-12.4 -155.77,-123.9 -155.77,-123.9 l -175.64,-315.9 -41.81,-600.9 v -290.6 c 0,0 9.29,-320.8 18.58,-426.2 9.29,-105.5 121.57,-1336.7 121.57,-1336.7 0,0 422.01,37.2 784.39,-27.9 362.39,-65 473.89,-46.4 515.7,0 41.82,46.5 41.82,664.4 65.05,817.7 23.23,153.3 60.39,748 60.39,748 0,0 116.16,153.3 111.51,367.1 -4.65,213.7 -329.87,622.5 -348.45,659.7 -18.58,37.1 -146.6,250.9 -146.6,250.9 0,0 -187.91,367.4 -243.66,369.5 -55.75,2.1 -264.82,-2.1 -297.34,0 -32.52,2.1 -267.92,-90.8 -267.92,-90.8" /><path
         id="path134"
         style="fill:#c37140;fill-opacity:1;fill-rule:nonzero;stroke:none"
         d="m 4348.7,13122.5 c 0,0 -5.62,-203.3 -58.28,-296.2 -52.65,-92.9 -168.16,-288.1 -168.16,-288.1 0,0 261.08,77.5 521.26,46.5 260.17,-31 443.43,-201.3 443.43,-201.3 l -7.95,311 c 0,0 -181.5,348.7 -209.38,370.4 -27.88,21.6 -520.92,57.7 -520.92,57.7" /><path
         id="path136"
         style="fill:#c37140;fill-opacity:1;fill-rule:nonzero;stroke:none"
         d="m 5095.64,13016.2 -4.83,-35.1 c 0,0 -13.64,-41.9 -11.81,-286.7 0,0 -296.87,112.4 -467.71,168.5 -170.84,56 -225.4,29.6 -225.4,29.6 l -52.56,325.1 284.53,511.2 c 0,0 102.98,67.4 268.75,-51.8 165.76,-119.2 209.03,-660.8 209.03,-660.8" /><path
         id="path138"
         style="fill:#c37140;fill-opacity:1;fill-rule:nonzero;stroke:none"
         d="m 4248.61,12425.2 c 0,0 -148.98,-60.8 -260.33,-128 -111.35,-67.2 -181.04,-327.3 -176.39,-406.3 0,0 -34.2,-319 15.42,-560.1 0,0 31.04,-241.8 96.08,-426.2 0,0 36.41,-402.1 57.21,-630.4 20.79,-228.3 3.19,-590.1 137.92,-920 134.73,-329.9 297.34,-766.6 297.34,-766.6 l 385.61,55.8 c 0,0 -92.91,371.6 -92.91,706.1 0,334.6 -41.82,892.1 -83.63,1054.7 0,0 199.78,408.8 246.24,682.9 0,0 288.04,162.6 311.28,539 23.22,376.3 -55.76,599.3 -241.6,734 -185.83,134.8 -432.07,250.9 -692.24,65.1" /><path
         id="path140"
         style="fill:#a45634;fill-opacity:1;fill-rule:nonzero;stroke:none"
         d="m 5059.96,11269.6 c -70.5,83.1 -137.69,166.9 -137.69,184.6 0,37.1 55.75,176.5 55.75,176.5 l -148.67,-157.9 c 0,0 27.88,-65.1 41.82,-181.2 13.94,-116.2 0,-204.5 0,-204.5 0,0 101.44,57.3 188.79,182.5" /><path
         id="path142"
         style="fill:#a45634;fill-opacity:1;fill-rule:nonzero;stroke:none"
         d="m 3841.18,11241 c -15.61,310.2 34.21,501.2 15.62,538.4 -2.54,5 -21.35,12.8 -51.78,22.4 -6.55,-112 -11.06,-309 22.29,-471 0,0 4.58,-35.6 13.87,-89.8" /><path
         id="path144"
         style="fill:#535456;fill-opacity:1;fill-rule:nonzero;stroke:none"
         d="m 5398.37,7397.3 c 57.45,77.2 98.77,330.3 97.49,630.5 -1.23,290.6 -41.98,536.7 -97.26,621.8 -4.46,8.8 -9.79,15.8 -16.32,20 -0.07,0.1 -0.14,0.1 -0.21,0.1 -5.96,5.5 -12.04,9.1 -18.24,10.7 -98.7,52.6 -182.31,4.9 -182.31,4.9 l -11.46,-117.4 c 0,0 -99.6,-1141.1 17.02,-1191.2 92.71,-39.8 152.6,-21.1 184.15,-1.9 9.22,3.1 18.17,10.6 26.76,22 0.23,0.3 0.39,0.5 0.39,0.5 h -0.01" /><path
         id="path146"
         style="fill:#9c9c9b;fill-opacity:1;fill-rule:nonzero;stroke:none"
         d="m 5321.38,8031.6 c 1.54,-361.3 -58.6,-654.5 -134.3,-654.9 -75.71,-0.3 -138.33,292.4 -139.86,653.7 -1.54,361.4 58.6,654.6 134.3,654.9 75.71,0.3 138.33,-292.3 139.86,-653.7" /><path
         id="path148"
         style="fill:#bbbab8;fill-opacity:1;fill-rule:nonzero;stroke:none"
         d="m 5187.08,7869.3 -877.71,19 c -17.98,0.4 -32.24,15.3 -31.85,33.3 l 4.72,218.2 c 0.39,18 15.27,32.3 33.25,31.9 l 877.72,-19 c 17.97,-0.4 32.23,-15.3 31.84,-33.2 l -4.71,-218.3 c -0.39,-18 -15.28,-32.2 -33.26,-31.9" /><path
         id="path150"
         style="fill:#f5f6f5;fill-opacity:1;fill-rule:nonzero;stroke:none"
         d="m 3936.83,4239.3 c -199.9,-11.8 -398.16,-10.1 -572.45,-2.7 -27.59,-392.1 -58.9,-720.8 -58.9,-720.8 0,0 136.28,-68.2 216.81,-37.2 80.53,31 390.26,340.7 390.26,340.7 0,0 -6.66,183.5 24.28,420" /><path
         id="path152"
         style="fill:#f5f6f5;fill-opacity:1;fill-rule:nonzero;stroke:none"
         d="m 6921.22,7124.7 c -5.2,-291.8 -17.05,-548.8 -17.05,-548.8 0,0 155.24,-31 266.74,0 111.51,31 260.18,210.6 260.18,210.6 0,0 6.13,154.4 24.38,372.1 -172.48,-13.6 -366.47,-25.1 -534.25,-33.9" /><path
         id="path154"
         style="fill:#e3e2e0;fill-opacity:1;fill-rule:nonzero;stroke:none"
         d="m 6477.12,2865.3 -136.28,-99.1 -142.48,49.6 v 377.9 h 142.48 l 136.28,-328.4" /><path
         id="path156"
         style="fill:#bbbab8;fill-opacity:1;fill-rule:nonzero;stroke:none"
         d="M 9370,3193.7 H 6340.84 V 2766.2 H 9370 v 427.5" /><path
         id="path158"
         style="fill:#c37140;fill-opacity:1;fill-rule:nonzero;stroke:none"
         d="m 4532.01,8680.5 -116.15,-92.9 c 0,0 -10.84,-441.4 -23.23,-515.7 -12.39,-74.3 41.24,-149.4 25.75,-164.9 -15.48,-15.5 -88,-19.1 -88,-19.1 0,0 34.38,-147.4 80.84,-153.6 46.46,-6.2 96.01,0 96.01,0 0,0 40.27,-52.7 111.51,-40.3 71.24,12.4 55.75,6.2 71.24,12.4 15.48,6.2 52.65,-15.5 120.79,3.1 68.14,18.6 77.43,43.4 77.43,43.4 0,0 105.31,-9.3 139.38,6.2 34.07,15.5 18.59,356.2 0,446 -18.58,89.8 -204.55,341.8 -226.11,438.3 -21.54,96.4 -269.46,37.1 -269.46,37.1" /><path
         id="path160"
         style="fill:#535456;fill-opacity:1;fill-rule:nonzero;stroke:none"
         d="m 4246.1,7422.2 c 57.44,77.2 98.76,330.3 97.49,630.5 -1.23,290.6 -41.98,536.7 -97.26,621.8 -4.46,8.8 -9.79,15.7 -16.33,20 -0.06,0.1 -0.13,0.1 -0.2,0.1 -5.96,5.5 -12.05,9.1 -18.24,10.7 -98.7,52.6 -182.31,4.9 -182.31,4.9 l -11.46,-117.4 c 0,0 -99.6,-1141.1 17.01,-1191.2 92.71,-39.8 152.61,-21.1 184.16,-1.9 9.22,3.1 18.16,10.6 26.76,22 0.23,0.3 0.38,0.5 0.38,0.5 v 0" /><path
         id="path162"
         style="fill:#9c9c9b;fill-opacity:1;fill-rule:nonzero;stroke:none"
         d="m 4169.11,8056.5 c 1.53,-361.4 -58.6,-654.5 -134.31,-654.9 -75.71,-0.3 -138.33,292.4 -139.86,653.7 -1.53,361.4 58.6,654.6 134.31,654.9 75.71,0.3 138.33,-292.3 139.86,-653.7" /><path
         id="path164"
         style="fill:#535456;fill-opacity:1;fill-rule:nonzero;stroke:none"
         d="m 4078.75,8042.1 c -1.3,-98 -23.93,-177.2 -50.54,-176.9 -26.61,0.4 -47.12,80.1 -45.81,178.1 1.31,98.1 23.94,177.2 50.55,176.9 26.61,-0.4 47.11,-80.1 45.8,-178.1" /><path
         id="path166"
         style="fill:#c37140;fill-opacity:1;fill-rule:nonzero;stroke:none"
         d="m 5059.58,12644.9 c -4.93,7.7 -7.87,13.5 -8.34,16.8 -5.85,41.1 55.73,335.4 55.73,335.4 0,0 -171.08,458.4 -191.61,475.6 -20.53,17.1 -287.41,188.1 -342.16,171 -54.74,-17.1 -184.76,177.2 -198.45,-84.1 -13.69,-261.4 -13.69,-459.9 -13.69,-459.9 0,0 -17.1,-154 -44.48,-215.6 -27.37,-61.6 -92.38,-189.7 -92.38,-189.7 0,0 20.53,25.5 372.95,-19 44.28,-5.6 88.27,-16.2 131.43,-30.5 h 331" /><path
         id="path168"
         style="fill:#a45634;fill-opacity:1;fill-rule:nonzero;stroke:none"
         d="m 4768.95,13535.8 c 0,0 -49.18,-268.4 -26.66,-354 22.52,-85.5 329.71,-363.8 329.71,-363.8 l 34.97,179.1 -338.02,538.7" /><path
         id="path170"
         style="fill:#2f1d16;fill-opacity:1;fill-rule:nonzero;stroke:none"
         d="m 5357.33,14137.3 c 67.06,152 -51.55,232.2 -102.24,261.6 -50.69,29.4 -60.79,74.4 -226.3,118.9 -165.51,44.6 -221.28,-23.8 -276.48,-22.9 -55.2,0.9 -177.22,-42 -275.83,-75.7 -98.59,-33.7 -131.65,-116.9 -163.44,-142.7 0,0 -204.7,-50.5 -190.03,-372.1 14.68,-321.5 235.05,-723.7 240.04,-730.5 0,0 348.81,299.3 405.9,361.9 103.75,-5.8 268.5,-13.1 273.45,-1.9 7.24,16.3 262.39,529.8 262.39,529.8 l 47.66,58.9 c 0,0 4.94,3.9 11.89,11.3 l -7.01,3.4" /><path
         id="path172"
         style="fill:#c37140;fill-opacity:1;fill-rule:nonzero;stroke:none"
         d="m 5357.33,14137.3 c 0,0 77.25,-195.6 87.62,-241.1 10.37,-45.5 -14.85,-184.3 -12.01,-206.2 2.85,-22 129.75,-248.7 126.44,-262.8 -3.31,-14 -94.18,-28.5 -97.41,-36.3 -3.22,-7.7 -12.06,-92 -9.85,-100.3 2.22,-8.2 -0.32,-25.8 -0.32,-25.8 0,0 6.61,-35.2 -0.67,-52.7 -7.3,-17.5 -10.03,-48 -12.52,-59.7 -2.49,-11.7 -1.77,-139.5 -17.65,-158.1 -15.87,-18.5 -346.42,-13.1 -388.5,-1.6 -42.06,11.5 -218.57,217.3 -239.88,262.9 -21.31,45.6 -22.68,183.3 -22.68,183.3 0,0 -112.31,21.7 -154.92,112.9 -42.62,91.3 -28.07,252.1 64.49,276 92.56,23.8 134.78,-98.7 145.31,-131.6 10.52,-33 27.18,-75.4 31.83,-78.6 4.65,-3.2 24.26,77.1 43.68,128.5 19.41,51.3 4.29,200.8 19.08,256.9 14.79,56.1 89.04,116.1 123.6,128.2 34.54,12.1 314.36,6.1 314.36,6.1" /><path
         id="path174"
         style="fill:#2f1d16;fill-opacity:1;fill-rule:nonzero;stroke:none"
         d="m 4856.61,13617.6 c 0,0 31.33,5.5 33.52,22.7 2.18,17.1 27.58,146.3 27.58,146.3 0,0 42.22,37.7 32.22,100 -10,62.3 -16.13,73.4 15.01,103.1 31.13,29.7 17.82,109.2 47.92,125.4 30.11,16.1 213.96,26.8 213.96,26.8 0,0 89.85,107.3 -47,110.6 -136.85,3.2 -278.83,-19.3 -344.68,-78.8 -65.85,-59.5 -94.19,10.6 -69.67,-108.1 24.52,-118.7 91.14,-448 91.14,-448" /><path
         id="path176"
         style="fill:#2f1d16;fill-opacity:1;fill-rule:nonzero;stroke:none"
         d="m 4207.97,14205.9 c 0,0 38.14,56.1 62.06,76 23.92,19.9 46.66,70.2 72.63,86.4 25.95,16.2 61.4,32.7 66.94,36.7 5.54,4.1 56.58,59.2 107.48,68.8 50.91,9.5 82.99,14.6 96.2,17 13.19,2.4 83.71,45 140.52,49.1 56.81,4.1 58.86,0.3 85.33,3.3 26.47,2.9 101.81,19 207.19,-5.4 105.38,-24.4 208.77,-138.9 208.77,-138.9 l -323.37,-188.3 -429.67,-134.3 -294.08,129.6" /></g></g></svg>