<?xml version="1.0" encoding="UTF-8" standalone="no"?>
<svg
   xmlns:dc="http://purl.org/dc/elements/1.1/"
   xmlns:cc="http://creativecommons.org/ns#"
   xmlns:rdf="http://www.w3.org/1999/02/22-rdf-syntax-ns#"
   xmlns:svg="http://www.w3.org/2000/svg"
   xmlns="http://www.w3.org/2000/svg"
   viewBox="0 0 2666.6667 2666.6667"
   height="2666.6667"
   width="2666.6667"
   xml:space="preserve"
   id="svg2"
   version="1.1"><metadata
     id="metadata8"><rdf:RDF><cc:Work
         rdf:about=""><dc:format>image/svg+xml</dc:format><dc:type
           rdf:resource="http://purl.org/dc/dcmitype/StillImage" /></cc:Work></rdf:RDF></metadata><defs
     id="defs6" /><g
     transform="matrix(1.3333333,0,0,-1.3333333,0,2666.6667)"
     id="g10"><g
       transform="scale(0.1)"
       id="g12"><g
         transform="scale(1.22699)"
         id="g14"><path
           id="path16"
           style="fill:none;fill-opacity:1;fill-rule:nonzero;stroke:none"
           d="M 16300,0 H 0 V 16300 H 16300 V 0" /></g><path
         id="path18"
         style="fill:#edaa7f;fill-opacity:1;fill-rule:nonzero;stroke:none"
         d="m 8206.47,14515.6 c 0,0 113.2,-211.7 108.28,-406 -4.92,-194.4 -58.91,-376.5 -54.06,-445.4 4.85,-68.9 54.06,-462.6 83.59,-669.3 29.52,-206.7 95.36,-408.5 170.71,-575.8 75.35,-167.3 154.09,-462.6 222.99,-782.5 68.9,-319.8 191.93,-880.9 191.93,-880.9 l -361.72,-100.9 -573.18,782.5 c 0,0 -248.74,1159.8 -280.66,1528.1 -31.92,368.3 0,1587.1 0,1587.1 0,0 250.99,371.6 324.81,337.1 73.81,-34.4 175.22,97.4 167.31,9.9 -7.89,-87.6 0,-383.9 0,-383.9" /><path
         id="path20"
         style="fill:#2f64a7;fill-opacity:1;fill-rule:nonzero;stroke:none"
         d="m 3876.69,10503.3 c 0,0 3.96,80.2 -25.56,104.8 -29.53,24.6 -78.74,14.8 -187.01,132.9 -108.27,118.1 -393.7,428.1 -452.76,433 -59.06,4.9 -221.46,-216.5 -241.15,-236.2 -19.68,-19.7 -29.1,-434.5 -29.1,-434.5 0,0 188.14,-298.8 467.88,-328.3 279.74,-29.5 467.7,328.3 467.7,328.3" /><path
         id="path22"
         style="fill:#5e6061;fill-opacity:1;fill-rule:nonzero;stroke:none"
         d="m 9611.51,10049.5 c 0,-432.1 -332.15,-782.5 -741.89,-782.5 -409.73,0 -741.88,350.4 -741.88,782.5 0,432.2 332.15,782.5 741.88,782.5 409.74,0 741.89,-350.3 741.89,-782.5" /><path
         id="path24"
         style="fill:#3a70c0;fill-opacity:1;fill-rule:nonzero;stroke:none"
         d="m 3319.63,10366.9 h 59.05 c 0,0 0,207.2 -29.52,273.4 -29.53,66.2 -119.99,194.2 -173.19,248.3 -53.19,54.1 -141.78,221.1 -200.83,211.4 -59.06,-9.6 -467.53,-354.1 -497.05,-398.4 -29.53,-44.3 -29.53,-142.7 -157.48,-265.8 -127.96,-123 -255.91,-187 -452.77,-383.8 -196.85,-196.9 -221.45,-590.6 -201.77,-644.7 19.69,-54.2 388.78,-24.6 639.77,83.6 250.99,108.3 698.82,192 757.88,241.2 59.06,49.2 106.39,162.4 112.25,182.1 5.86,19.7 143.66,452.7 143.66,452.7" /><path
         id="path26"
         style="fill:#edaa7f;fill-opacity:1;fill-rule:nonzero;stroke:none"
         d="m 3378.68,10440.8 c 0,0 68.9,93.5 177.17,78.7 108.27,-14.8 265.75,1.6 265.75,1.6 0,0 809.29,-262.4 921.38,-282.1 112.09,-19.7 -423.57,-255.9 -423.57,-255.9 0,0 -483.04,275.6 -561.79,300.2 -78.74,24.6 -378.94,157.5 -378.94,157.5" /><path
         id="path28"
         style="fill:#ffffff;fill-opacity:1;fill-rule:nonzero;stroke:none"
         d="m 3878.59,10502.7 c -35.82,11.5 -56.99,18.4 -56.99,18.4 0,0 -157.48,-16.4 -265.75,-1.6 -108.27,14.8 -177.16,-78.7 -177.16,-78.7 0,0 300.19,-132.9 378.93,-157.5 12.84,-4 36.54,-14.8 67.01,-29.9 8.52,92.1 32.71,183.1 53.96,249.3" /><path
         id="path30"
         style="fill:#edaa7f;fill-opacity:1;fill-rule:nonzero;stroke:none"
         d="m 5462.85,11858.1 c 0,0 501.98,-457.7 789.87,-863.7 287.9,-406 450.3,-930.1 472.45,-1026.1 22.14,-96 -161.23,-280.5 -161.23,-280.5 0,0 -414.56,140.3 -990.36,804.6 -575.79,664.4 -679.14,686.5 -952.27,1085.2 -273.13,398.6 -472.44,605.3 -155.02,657 317.43,51.7 996.56,-376.5 996.56,-376.5" /><path
         id="path32"
         style="fill:#df9866;fill-opacity:1;fill-rule:nonzero;stroke:none"
         d="m 5232.67,11762.1 c 0,0 754.3,-651.7 1079.11,-1359.3 324.81,-707.6 -1136.82,679.7 -1136.82,679.7 0,0 -420.78,377 -487.21,583.7 -66.44,206.7 94.57,332.2 94.57,332.2 l 450.35,-236.3" /><path
         id="path34"
         style="fill:#fbc294;fill-opacity:1;fill-rule:nonzero;stroke:none"
         d="m 3573.08,11260.2 c 0,0 243.08,-287.9 638.27,-568.5 395.2,-280.5 531.63,-408.4 531.63,-408.4 0,0 -302.66,-61.5 -584.95,0 -282.29,61.5 -887.61,305.1 -909.76,297.7 -22.15,-7.4 -273.13,-36.9 -302.66,-132.9 -29.53,-95.9 95.96,-553.6 95.96,-553.6 0,0 538.89,-129.2 959.66,-249.1 420.77,-120 1550.21,-496.5 2000.51,-459.6 450.3,36.9 642.22,275 620.08,606.3 -22.15,331.2 -797.25,1276.1 -1107.29,1564 -310.04,287.9 -564.58,454.2 -564.58,454.2 0,0 -542.71,402.1 -867.52,254.5 -324.81,-147.6 -465.06,-177.2 -457.68,-302.7 7.38,-125.5 -51.67,-501.9 -51.67,-501.9" /><path
         id="path36"
         style="fill:#252323;fill-opacity:1;fill-rule:nonzero;stroke:none"
         d="m 4171.01,13046.6 -169.78,103.3 c 0,0 -568.41,-125.3 -767.72,-575.7 -199.32,-450.4 169.78,-1100 339.57,-1314 0,0 324.8,287.9 524.11,398.6 199.31,110.7 767.73,103.3 767.73,103.3 l 126.54,16.3 117.06,-90.1 c 0,0 199.31,132.9 354.33,169.8 0,0 -310.04,391.2 -324.8,413.4 -14.76,22.1 -383.87,738.2 -524.12,775.1 -140.26,36.9 -442.92,0 -442.92,0" /><path
         id="path38"
         style="fill:#fbc294;fill-opacity:1;fill-rule:nonzero;stroke:none"
         d="m 6725.17,12689.8 c 0,0 -435.54,-137.8 -752.96,-241.1 -317.42,-103.4 -812.01,-383.9 -812.01,-383.9 0,0 -679.15,525.1 -915.37,727.6 -236.22,202.5 -243.6,357.5 -243.6,357.5 0,0 442.92,81.2 922.74,354.4 479.83,273.1 789.87,524.1 789.87,524.1 0,0 634.85,-236.2 679.14,-310.1 44.29,-73.8 273.13,-494.5 273.13,-568.4 0,-73.8 59.06,-460.1 59.06,-460.1" /><path
         id="path40"
         style="fill:#3a70c0;fill-opacity:1;fill-rule:nonzero;stroke:none"
         d="m 7556.87,15086.5 c 0,0 -433.08,-54.2 -794.79,-231.3 -361.72,-177.2 -1048.24,-826.8 -1048.24,-826.8 0,0 258.37,-531.5 410.93,-792.3 152.56,-260.9 600.4,-546.3 600.4,-546.3 l 182.09,78.7 c 0,0 246.06,-172.2 531.49,-103.3 285.44,68.9 228.5,872.8 246.07,890.7 260.83,265.8 260.83,881 260.83,881 0,0 118.36,449 93.51,452.7 -24.86,3.8 -482.29,196.9 -482.29,196.9" /><path
         id="path42"
         style="fill:#fbc294;fill-opacity:1;fill-rule:nonzero;stroke:none"
         d="m 8580.5,14436.9 c -29.53,0 -634.85,0 -634.85,0 0,0 -24.61,157.4 -137.8,329.7 -113.19,172.2 -250.98,319.9 -250.98,319.9 l 679.14,187 c 0,0 241.14,108.2 275.59,118.1 34.45,9.8 49.21,64 152.56,0 103.35,-64 204.23,-14.8 190.7,-189.5 -13.53,-174.7 -274.36,-765.2 -274.36,-765.2" /><path
         id="path44"
         style="fill:#fbc294;fill-opacity:1;fill-rule:nonzero;stroke:none"
         d="m 7187.77,14855.2 c 0,0 -300.2,-88.6 -526.58,-418.3 -226.38,-329.8 -4.92,-728.4 132.88,-812.1 137.8,-83.6 280.51,-73.8 280.51,-73.8 0,0 68.9,-452.7 196.85,-752.9 127.95,-300.2 206.7,-585.7 206.7,-585.7 0,0 0,-147.6 44.29,-260.8 44.29,-113.2 98.42,-201.8 98.42,-201.8 0,0 34.45,-241.1 285.44,-644.7 250.99,-403.5 570.87,-821.8 570.87,-821.8 l 226.38,142.7 c 0,0 -255.91,620.1 -334.65,1003.9 -78.74,383.9 -295.28,821.9 -295.28,851.4 0,29.6 -29.52,418.3 -68.89,689 -39.37,270.7 -78.74,408.5 -78.74,408.5 0,0 79.04,359.2 69.04,708.6 -9.99,349.5 -230.68,855.5 -807.24,767.8" /><path
         id="path46"
         style="fill:#fbc294;fill-opacity:1;fill-rule:nonzero;stroke:none"
         d="m 8477.15,10283.3 c 0,0 34.45,-52.9 41.83,-123.1 7.38,-70.1 84.9,-166 92.27,-221.4 7.39,-55.4 55.37,-136.6 55.37,-136.6 0,0 70.13,114.4 92.28,114.4 22.14,0 114.42,0 129.18,-95.9 14.76,-96 0,-114.5 -18.46,-140.3 -18.45,-25.8 -55.36,-48 -55.36,-48 0,0 22.15,-40.6 55.36,-40.6 33.22,0 188.25,44.3 214.08,73.9 25.84,29.5 59.06,218.9 70.13,271.9 11.07,52.9 25.84,137.8 0,178.3 -25.84,40.7 -313.73,184.6 -450.3,310.1 -136.57,125.5 -173.48,129.2 -180.86,107 -7.38,-22.1 -45.52,-249.7 -45.52,-249.7" /><path
         id="path48"
         style="fill:#100f0d;fill-opacity:1;fill-rule:nonzero;stroke:none"
         d="m 4211.62,12234.6 c -11.48,2.1 358.02,-184.6 461.37,-251 103.34,-66.4 191.93,-221.5 191.93,-221.5 l 126.54,16.3 -41.51,31.9 c 0,0 58.91,44.1 151.19,66.3 92.27,22.1 173.47,40.6 173.47,40.6 0,0 -103.35,29.5 -191.92,33.2 -88.59,3.7 -199.32,-25.9 -199.32,-25.9 0,0 -394.93,258.4 -671.75,310.1" /><path
         id="path50"
         style="fill:#ffffff;fill-opacity:1;fill-rule:nonzero;stroke:none"
         d="m 3415.11,10526.6 c -94.71,34.1 -159.85,56.7 -166.84,54.4 -22.15,-7.4 -273.13,-36.9 -302.66,-132.9 -29.53,-95.9 95.96,-553.6 95.96,-553.6 0,0 106.61,-25.6 261.97,-64.5 -18.53,293.6 61.59,561.8 111.57,696.6" /><path
         id="path52"
         style="fill:#df9866;fill-opacity:1;fill-rule:nonzero;stroke:none"
         d="m 7074.58,13551 c 0,0 -59.06,159.7 -118.11,243.3 -59.06,83.7 -59.06,83.7 -59.06,83.7 0,0 56.21,-217.9 35.49,-310.7 0,0 58.02,-18.4 141.68,-16.3" /><path
         id="path54"
         style="fill:#adadab;fill-opacity:1;fill-rule:nonzero;stroke:none"
         d="m 8948.98,9792.1 c 0,-81.1 -65.68,-146.7 -146.71,-146.7 -81.03,0 -146.72,65.6 -146.72,146.7 0,81 65.69,146.7 146.72,146.7 81.03,0 146.71,-65.7 146.71,-146.7" /><path
         id="path56"
         style="fill:#df9866;fill-opacity:1;fill-rule:nonzero;stroke:none"
         d="m 8619.91,15029.7 c 0,0 -151,-246 -209.62,-366.4 -58.62,-120.4 -16.8,-226.4 -16.8,-226.4 l 320.17,29.5 113.67,450.3 -207.42,113" /><path
         id="path58"
         style="fill:#3a74c2;fill-opacity:1;fill-rule:nonzero;stroke:none"
         d="m 8378.44,15256.6 c -4.92,14.3 -91.57,125.3 -141.41,230.1 0,0 -104.45,-34.6 -112.11,-71.8 -6.53,-31.6 -4,-116.4 30.7,-167.4 l 222.82,9.1" /><path
         id="path60"
         style="fill:#523d38;fill-opacity:1;fill-rule:nonzero;stroke:none"
         d="m 9756.93,15060 c 16.22,-8.9 140.26,-13.8 140.26,-13.8 0,0 283.51,69.9 56.28,501.4 -227.25,431.4 -533.65,642.3 -829.32,684.6 -295.67,42.4 -791.18,-388.3 -881.03,-607.8 -89.86,-219.6 9.6,-372.9 9.6,-372.9 l 421.19,-57.2 c 0,0 284.82,-393.4 326,-385.1 41.19,8.3 327.48,98.6 366.94,119.1 39.47,20.5 390.08,131.7 390.08,131.7" /><path
         id="path62"
         style="fill:#8b6b54;fill-opacity:1;fill-rule:nonzero;stroke:none"
         d="m 8674.2,15193.9 c -0.01,0 -0.01,0 -0.01,0 0,0 0,0 0.01,0 m -0.12,0.1 c -0.01,0.1 -0.03,0.1 -0.05,0.1 0.02,0 0.04,0 0.05,-0.1 m -0.09,0.2 c 0,0 0,0 0,0 0,0 0,0 0,0 m -0.06,0 c 0,0.1 -0.01,0.1 -0.01,0.1 0,0 0.01,0 0.01,-0.1 m -0.02,0.1 v 0 l -421.17,57.2 421.17,-57.2 v 0" /><path
         id="path64"
         style="fill:#8d8681;fill-opacity:1;fill-rule:nonzero;stroke:none"
         d="m 8243.44,15625.1 c 0.02,0.1 0.04,0.1 0.07,0.2 -0.03,-0.1 -0.05,-0.1 -0.07,-0.2 m 0.36,0.9 c 0.01,0 0.02,0.1 0.03,0.1 -0.01,0 -0.02,-0.1 -0.03,-0.1 m 0.38,0.9 c 0,0 0.01,0 0.01,0 -0.01,0 -0.01,0 -0.01,0 m 0.35,0.9 c 0.01,0 0.02,0 0.02,0 0,0 -0.01,0 -0.02,0 m 0.75,1.7 v 0 0" /><path
         id="path66"
         style="fill:#42322c;fill-opacity:1;fill-rule:nonzero;stroke:none"
         d="m 8932.87,14864.5 c -94.97,104 -251.09,318.9 -258.67,329.4 -0.01,0 -0.01,0 -0.01,0 -0.04,0 -0.08,0.1 -0.11,0.1 -0.01,0.1 -0.03,0.1 -0.05,0.1 -0.01,0 -0.03,0 -0.04,0.1 0,0 0,0 0,0 -0.03,0 -0.05,0 -0.06,0 0,0.1 -0.01,0.1 -0.01,0.1 0,0 -0.01,0 -0.01,0 v 0 l -421.17,57.2 h -0.02 c 0,0 -47.28,72.9 -47.19,190.1 0.03,52.8 9.68,114.6 37.59,182.8 0.1,0.2 0.21,0.5 0.32,0.7 0.02,0.1 0.04,0.1 0.07,0.2 0.09,0.2 0.2,0.5 0.29,0.7 0.01,0 0.02,0.1 0.03,0.1 0.11,0.3 0.23,0.5 0.35,0.8 0,0 0,0 0.01,0 0.11,0.3 0.23,0.6 0.34,0.9 0.01,0 0.02,0 0.02,0 0.24,0.6 0.49,1.1 0.73,1.7 v 0 c 62.98,145.9 298.02,380.1 534.9,510.4 -20.05,-67.7 -121.11,-453.4 41.06,-870.8 88.49,-227.7 96.19,-337.4 111.63,-404.6" /><path
         id="path68"
         style="fill:#372a23;fill-opacity:1;fill-rule:nonzero;stroke:none"
         d="m 9708.03,15247.5 c 0,0 -47.05,183.7 -167.23,322 0,0 57.26,-191.8 19.45,-268.1 -37.81,-76.4 -143.42,-3.5 -143.42,-3.5 0,0 -131.98,286 -321.96,466.7 0,0 143.22,-388.9 85.55,-564.4 -57.68,-175.5 280.35,-111.7 286.24,-98.3 5.88,13.3 241.37,145.6 241.37,145.6" /><path
         id="path70"
         style="fill:#fbc398;fill-opacity:1;fill-rule:nonzero;stroke:none"
         d="m 8918.32,15175.2 c 0,0 151.5,144.8 30.89,222.4 -120.61,77.7 -347.19,-206 -338.25,-287 8.95,-80.9 8.95,-80.9 8.95,-80.9 0,0 -132.44,-332.7 -142.75,-453.8 -10.31,-121.1 191.63,-452.6 236.86,-481.8 45.23,-29.1 413.35,224.9 413.35,224.9 0,0 143.3,-77.1 159.27,-71.1 15.98,6 110.6,262.3 123.99,286.6 13.39,24.4 252.05,173.9 314.17,236.9 62.13,63 168.17,251.8 172.39,274.8 4.23,23 -152.03,176.6 -189.16,201.3 -37.12,24.7 -160.01,100.8 -225.44,100.9 -65.42,0.1 -270.84,-146.7 -381.61,-182.9 -110.76,-36.2 -146.35,-35.6 -182.66,9.7" /><path
         id="path72"
         style="fill:#372a23;fill-opacity:1;fill-rule:nonzero;stroke:none"
         d="m 9644.85,15286.1 c 0,0 -147.86,-86.3 -301.52,3.6 -153.68,90 -88.07,-49.2 -88.07,-49.2 0,0 127.41,-67.4 228.68,-65.4 101.27,2 224.09,72.4 224.09,72.4 l -63.18,38.6" /><path
         id="path74"
         style="fill:#523d38;fill-opacity:1;fill-rule:nonzero;stroke:none"
         d="m 8124.92,15414.9 c 0,0 -388.96,51.1 -739.08,-47.8 -350.12,-98.8 -436.7,-272 -576,-358.6 -139.29,-86.6 -172.01,-224 -172.01,-224 0,0 220.95,141.5 473.19,145.1 252.23,3.6 1044.6,317.9 1044.6,317.9 0,0 -44.56,103.3 -30.7,167.4" /><g
         transform="scale(1.0516)"
         id="g76"><path
           id="path78"
           style="fill:#edaa7f;fill-opacity:1;fill-rule:nonzero;stroke:none"
           d="m 13734.3,5881.6 c 21,-7.04 445.7,-214.15 614.2,-252.75 168.5,-38.61 523,-126.38 796.8,-284.33 273.8,-157.95 691.4,-336.92 884.4,-421.17 193.1,-84.25 270.3,-119.34 270.3,-119.34 l -80.7,-287.75 c 0,0 35.1,-140.46 -421.2,0 -456.3,140.35 -737.1,35.08 -1042.4,312.38 -305.4,277.29 -937.2,694.94 -937.2,694.94 l -84.2,358.02" /></g><g
         transform="scale(1.12814)"
         id="g80"><path
           id="path82"
           style="fill:#414042;fill-opacity:1;fill-rule:nonzero;stroke:none"
           d="m 16300,4131.31 c 0,-383.11 -278.5,-820.11 -641.7,-820.11 -363.1,0 -728.6,348.98 -728.6,732.09 0,383.02 294.5,693.62 657.6,693.62 363.2,0 712.7,-222.58 712.7,-605.6" /></g><g
         transform="scale(1.10482)"
         id="g84"><path
           id="path86"
           style="fill:#fbc294;fill-opacity:1;fill-rule:nonzero;stroke:none"
           d="m 16002.7,3944.55 c 0,0 23.3,-93.5 23.3,-133.6 0,-40.09 70.2,-56.84 100.3,-56.84 30.1,0 90.2,43.45 96.9,56.84 6.7,13.4 76.8,163.65 16.6,187.09 -60.1,23.36 -237.1,-53.49 -237.1,-53.49" /></g><path
         id="path88"
         style="fill:#fbc294;fill-opacity:1;fill-rule:nonzero;stroke:none"
         d="m 14614,6552.9 -130.3,52.4 -278.2,-52.4 c 0,0 -158,-132.8 -216.8,-118.1 -58.7,14.8 -378.6,73.8 -442.6,123.1 -64,49.2 -334.7,497 -334.7,497 0,0 497.8,106.5 642.4,216.5 144.6,110.1 144.6,110.1 144.6,110.1 0,0 -14.3,165.5 167.8,214.7 182.1,49.3 360.7,63.7 394.7,0 10.9,-20.4 12.1,-20.2 12.6,-20.1 0.9,0.3 -1.9,0.6 75,-194.6 113.2,-287.2 -34.5,-828.6 -34.5,-828.6" /><path
         id="path90"
         style="fill:#edaa7f;fill-opacity:1;fill-rule:nonzero;stroke:none"
         d="m 3654.28,5155.3 269.97,-96.7 c 0,0 507.59,-90.3 793.03,-75.6 285.43,14.8 876.22,73.9 1181.23,39.4 305,-34.4 526.46,-123 806.97,-88.6 280.52,34.5 1176.19,408.5 1569.9,442.9 393.7,34.5 538.88,-533.9 487.21,-577 -51.68,-43 73.82,-345.7 -1018.71,-486 -1092.53,-140.2 -1520.68,-287.9 -2310.55,-125.5 -789.87,162.4 -2332.7,509.4 -2332.7,509.4 0,0 -8.28,264 36.91,310 45.18,46.1 516.74,147.7 516.74,147.7" /><path
         id="path92"
         style="fill:#ffffff;fill-opacity:1;fill-rule:nonzero;stroke:none"
         d="m 3986.46,4747.7 c -8.58,82.9 5.14,189.8 27.39,296.1 -55.46,8.7 -89.6,14.8 -89.6,14.8 l -269.97,96.7 c 0,0 -471.56,-101.6 -516.74,-147.7 -45.19,-46 -36.91,-310 -36.91,-310 0,0 755.6,-169.9 1479.95,-327.6 -326.84,124.6 -582.52,265.7 -594.12,377.7" /><path
         id="path94"
         style="fill:#2f64a7;fill-opacity:1;fill-rule:nonzero;stroke:none"
         d="m 2807.81,5352.1 c 24.61,34.5 147.64,201.8 177.17,226.4 29.53,24.6 123.03,64 162.4,68.9 39.37,4.9 285.44,-162.4 374.02,-255.9 88.59,-93.5 369.1,-221.5 393.7,-270.7 24.61,-49.2 39.38,-73.8 -103.34,-108.2 -142.72,-34.5 -364.18,-78.8 -383.86,-78.8 -19.69,0 -629.93,315 -620.09,329.7 9.85,14.8 0,88.6 0,88.6" /><path
         id="path96"
         style="fill:#3a70c0;fill-opacity:1;fill-rule:nonzero;stroke:none"
         d="m 3703.49,4722.2 c 4.92,14.8 -24.61,180.6 -24.61,180.6 0,0 -334.65,286.9 -408.46,341.1 -73.82,54.1 -388.79,260.8 -457.69,231.3 -68.89,-29.6 -275.59,-322 -310.04,-375.1 -34.45,-53.1 -68.9,-136.8 -68.9,-136.8 0,0 -314.96,-196.8 -447.83,-314.9 -132.88,-118.1 -408.47,-610.3 -438,-708.7 -29.53,-98.4 78.74,-201.8 275.59,-182.1 196.86,19.7 334.65,211.6 703.75,241.2 369.1,29.5 693.9,103.3 713.59,123 19.68,19.7 54.13,207.9 78.74,222 24.6,14.2 383.86,378.4 383.86,378.4" /><path
         id="path98"
         style="fill:#fbc294;fill-opacity:1;fill-rule:nonzero;stroke:none"
         d="m 8432.86,4884.6 -209.15,198.7 c 0,0 -681.61,-70.7 -957.2,-169.2 -275.59,-98.4 -605.32,-191.9 -703.75,-191.9 -98.42,0 -728.35,241.1 -1235.24,255.9 -506.89,14.8 -654.53,-142.7 -1028.56,-152.5 -374.01,-9.9 -620.08,77.2 -620.08,77.2 0,0 0,-67.4 -123.03,-77.2 -123.03,-9.9 -511.82,4.9 -536.42,4.9 -24.61,0 -78.74,-201.8 -68.9,-260.9 9.84,-59 182.09,-364.1 226.38,-359.2 44.29,4.9 595.48,59 1102.37,-54.1 506.9,-113.2 1155.32,-315 1411.82,-349.5 256.5,-34.4 1398.25,-191.9 2077.38,-201.7 679.14,-9.9 927.67,88.6 927.67,88.6 0,0 219,752.9 130.41,846.4 -88.58,93.5 -393.7,344.5 -393.7,344.5" /><path
         id="path100"
         style="fill:#252323;fill-opacity:1;fill-rule:nonzero;stroke:none"
         d="m 10578.5,5509.6 c -22.1,0 -354.3,137.8 -354.3,137.8 0,0 -398.61,263.2 -871.06,258.3 -472.44,-4.8 -819.39,-425.6 -930.12,-466.2 -110.73,-40.6 -147.64,-62.8 -147.64,-62.8 l 29.53,-228.8 -81.2,-64.6 c 0,0 103.34,-548.1 258.37,-902.4 155.01,-354.4 214.07,-487.2 214.07,-487.2 0,0 428.15,0 974.42,155 546.23,155 671.73,214.1 671.73,214.1 l 450.3,736.9 -214.1,709.9" /><path
         id="path102"
         style="fill:#fbc294;fill-opacity:1;fill-rule:nonzero;stroke:none"
         d="m 11708,6103.9 c 0,0 -502,-284.2 -782.5,-350.7 -280.5,-66.4 -701.3,-105.8 -701.3,-105.8 0,0 125.5,-499.5 125.5,-905.5 0,-406 -7.4,-679.1 -7.4,-679.1 0,0 797.3,295.2 1195.9,354.3 398.6,59 1011.3,125.5 1144.2,269.4 132.9,144 -214.1,1150.3 -280.5,1219.2 -66.5,69 -693.9,198.2 -693.9,198.2" /><path
         id="path104"
         style="fill:#3a70c0;fill-opacity:1;fill-rule:nonzero;stroke:none"
         d="m 13826.6,6738.7 c 0,0 -239.9,169.8 -339.6,228.8 -99.6,59.1 -225.1,114.5 -361.7,107.1 -136.5,-7.4 -435.5,-254.7 -535.2,-313.8 -99.6,-59 -391.2,-269.5 -568.4,-402.3 -177.1,-132.8 -313.7,-254.6 -313.7,-254.6 0,0 92.3,-372.8 299,-682.9 206.7,-310 675.4,-734.5 675.4,-734.5 l 243.6,103.4 c 0,0 191.9,-228.9 568.4,-129.2 376.5,99.6 406,387.5 439.2,586.9 33.3,199.3 44.3,516.7 44.3,516.7 l 164.7,740.2 -316,234.2" /><g
         transform="scale(1.13232)"
         id="g106"><path
           id="path108"
           style="fill:#5e6061;fill-opacity:1;fill-rule:nonzero;stroke:none"
           d="m 16300,3988.36 c 0,-381.6 -293.3,-690.97 -655.1,-690.97 -361.9,0 -655.2,309.37 -655.2,690.97 0,381.7 293.3,691.06 655.2,691.06 361.8,0 655.1,-309.36 655.1,-691.06" /></g><g
         transform="scale(1.07244)"
         id="g110"><path
           id="path112"
           style="fill:#fbc294;fill-opacity:1;fill-rule:nonzero;stroke:none"
           d="m 12861.8,6249.14 c 0,0 -175.6,106.67 -426.8,55.02 -251.2,-51.57 -499.1,-402.64 -502.5,-763.97 -3.5,-361.41 368.3,-678.08 633.3,-626.42 265,51.66 333.8,337.27 333.8,337.27 0,0 382.2,-306.31 605.8,-440.49 223.6,-134.28 629.8,-258.2 884.5,-395.83 254.6,-137.63 760.6,-220.25 1128.8,-254.65 368.3,-34.41 757.2,-41.31 757.2,-41.31 l 24.1,278.8 c 0,0 -540.4,144.53 -888,295.96 -347.6,151.43 -681.4,247.76 -922.4,323.47 -240.9,75.72 -588.4,354.52 -660.8,468.1 -72.3,113.57 -268.4,351.07 -461.1,530 -192.7,178.94 -505.9,234.05 -505.9,234.05" /></g><path
         id="path114"
         style="fill:#edaa7f;fill-opacity:1;fill-rule:nonzero;stroke:none"
         d="m 13564.6,6616.9 c 11,7.4 169.7,18.5 273.1,22.2 103.3,3.6 259.8,-35.2 259.8,-35.2 0,0 -149.1,83.1 -304.1,97.9 -155,14.8 -228.8,-84.9 -228.8,-84.9" /><path
         id="path116"
         style="fill:#df9866;fill-opacity:1;fill-rule:nonzero;stroke:none"
         d="m 13834,5631.4 -295.3,224 c 0,0 162.4,-201.8 169.8,-224 0,0 -81.2,-51.7 -125.5,-92.3 -44.3,-40.6 -92.3,-99.6 -92.3,-99.6 0,0 172.5,103.1 249.4,121.8 76.8,18.7 76.8,18.7 76.8,18.7 l 17.1,51.4" /><path
         id="path118"
         style="fill:#df9866;fill-opacity:1;fill-rule:nonzero;stroke:none"
         d="m 13250.8,6019 c -6.5,8.9 162.4,-84.9 273.1,-96 0,0 -147.6,-77.5 -273.1,96" /><g
         transform="scale(1.11953)"
         id="g120"><path
           id="path122"
           style="fill:#fbc294;fill-opacity:1;fill-rule:nonzero;stroke:none"
           d="m 15591.1,3945.48 c 0,0 75.9,-29.65 161.6,-69.22 85.8,-39.57 234.1,-19.83 283.5,0 49.5,19.74 52.8,46.35 82.5,23.13 29.6,-23.13 49.5,-66.01 46.2,-95.67 -3.4,-29.65 -72.6,-79.13 -79.2,-102.18 -6.6,-23.13 36.3,-42.87 65.9,-29.74 29.7,13.22 92.3,62.7 115.4,108.79 23.1,46.18 33,352.83 0,379.18 -32.9,26.35 -135.1,36.26 -158.2,46.18 -23.1,9.82 -59.4,23.04 -89,29.65 -29.8,6.61 -405.5,-23.04 -405.5,-23.04 0,0 -164.9,-19.83 -151.7,-59.4 13.2,-39.57 128.5,-207.68 128.5,-207.68" /></g><path
         id="path124"
         style="fill:#100f0d;fill-opacity:1;fill-rule:nonzero;stroke:none"
         d="m 9195.66,5686.8 c 0,0 -285.44,-83.7 -462.6,-187 -177.17,-103.4 -275.59,-319.9 -275.59,-319.9 v -241.2 l -68.9,144.6 -155.57,-46.7 -9.29,46.7 81.2,64.6 73.82,56.6 c 0,0 201.77,477.4 816.93,482.3" /><path
         id="path126"
         style="fill:#ffffff;fill-opacity:1;fill-rule:nonzero;stroke:none"
         d="m 3468.51,4822.4 c -162.48,-1.9 -428.85,8.1 -449.08,8.1 -24.61,0 -78.74,-201.8 -68.9,-260.9 9.85,-59 182.09,-364.1 226.38,-359.2 17.89,2 118.48,12 265.41,15.8 -50.29,274.3 -4.91,492 26.19,596.2" /><g
         transform="scale(1.11138)"
         id="g128"><path
           id="path130"
           style="fill:#adadab;fill-opacity:1;fill-rule:nonzero;stroke:none"
           d="m 16300,3855.39 c 0,-72.89 -59.1,-132 -132,-132 -73,0 -132.1,59.11 -132.1,132 0,72.88 59.1,131.99 132.1,131.99 72.9,0 132,-59.11 132,-131.99" /></g><path
         id="path132"
         style="fill:#df9866;fill-opacity:1;fill-rule:nonzero;stroke:none"
         d="m 14473.1,7168.4 c 0,0 -121.8,-261.6 -166.2,-388 -44.4,-126.3 1.2,-208.2 1.2,-208.2 l 322.8,47.5 61.2,460.3 -219,88.4" /><path
         id="path134"
         style="fill:#3a74c2;fill-opacity:1;fill-rule:nonzero;stroke:none"
         d="m 14207.3,7366.1 c -6.6,13.8 -105.4,114.1 -166.9,212.5 0,0 -99.8,-46.4 -103.2,-84.2 -2.8,-32.2 9.4,-116.1 49.7,-162.8 l 220.4,34.5" /><path
         id="path136"
         style="fill:#523d38;fill-opacity:1;fill-rule:nonzero;stroke:none"
         d="m 15599.2,7328.9 c 17.1,-7 140.9,2.4 140.9,2.4 0,0 273.7,102 -1.6,504.5 -275.2,402.5 -603.7,576.9 -902.3,585.1 -298.6,8.1 -741.5,-476.5 -805.6,-704.9 -64,-228.4 52.4,-369.4 52.4,-369.4 l 424.9,-8.5 c 0,0 328.1,-358.1 368,-345.1 40,13 314,135.5 350.9,160.4 36.8,24.9 372.4,175.5 372.4,175.5" /><path
         id="path138"
         style="fill:#8d8681;fill-opacity:1;fill-rule:nonzero;stroke:none"
         d="m 14030.9,7716.8 c 0,0.1 0,0.1 0,0.2 0,-0.1 0,-0.1 0,-0.2 m 0.2,0.8 c 0,0.1 0.1,0.2 0.1,0.3 0,-0.1 -0.1,-0.2 -0.1,-0.3 m 0.3,0.9 c 0,0.1 0,0.2 0.1,0.3 -0.1,-0.1 -0.1,-0.2 -0.1,-0.3 m 0.2,0.9 c 0.1,0.1 0.1,0.2 0.1,0.3 0,-0.1 0,-0.2 -0.1,-0.3 m 0.3,0.8 c 0,0.1 0,0.3 0.1,0.4 -0.1,-0.1 -0.1,-0.3 -0.1,-0.4 m 0.2,0.9 c 0.1,0.2 0.1,0.4 0.2,0.5 -0.1,-0.1 -0.1,-0.3 -0.2,-0.5 m 0.3,1 c 0.1,0.1 0.1,0.3 0.2,0.4 -0.1,-0.1 -0.1,-0.3 -0.2,-0.4 m 0.3,0.8 c 0,0.1 0.1,0.3 0.1,0.4 0,-0.1 -0.1,-0.3 -0.1,-0.4 m 0.2,0.8 c 0.1,0.3 0.2,0.5 0.3,0.7 -0.1,-0.2 -0.2,-0.4 -0.3,-0.7 m 0.4,1.1 c 0,0.2 0.1,0.3 0.1,0.5 0,-0.2 -0.1,-0.3 -0.1,-0.5 m 0.2,0.8 c 0.1,0.1 0.1,0.3 0.2,0.5 -0.1,-0.2 -0.1,-0.4 -0.2,-0.5 m 0.3,0.7 c 0.1,0.3 0.1,0.6 0.2,0.9 -0.1,-0.3 -0.1,-0.6 -0.2,-0.9 m 0.3,1.2 c 0.1,0.2 0.1,0.4 0.2,0.5 -0.1,-0.1 -0.1,-0.3 -0.2,-0.5 m 0.3,0.8 c 0,0.2 0.1,0.3 0.2,0.5 -0.1,-0.2 -0.2,-0.3 -0.2,-0.5 m 0.3,0.8 c 0,0.3 0.1,0.6 0.2,0.9 -0.1,-0.3 -0.2,-0.6 -0.2,-0.9 m 0.4,1.2 c 0,0.2 0.1,0.3 0.1,0.5 0,-0.2 -0.1,-0.3 -0.1,-0.5 m 0.2,0.8 c 0.1,0.2 0.1,0.3 0.2,0.5 -0.1,-0.2 -0.1,-0.3 -0.2,-0.5 m 0.3,0.8 c 0.1,0.3 0.2,0.6 0.3,0.9 -0.1,-0.3 -0.2,-0.6 -0.3,-0.9 m 0.4,1.2 c 0,0.1 0.1,0.3 0.2,0.5 -0.1,-0.2 -0.2,-0.4 -0.2,-0.5 m 0.3,0.8 c 0,0.1 0.1,0.3 0.1,0.5 0,-0.2 -0.1,-0.3 -0.1,-0.5 m 0.3,0.8 c 0,0.3 0.1,0.6 0.2,0.8 -0.1,-0.2 -0.2,-0.5 -0.2,-0.8 m 0.4,1.2 c 0,0.1 0.1,0.3 0.1,0.4 0,-0.1 -0.1,-0.2 -0.1,-0.4 m 0.3,0.8 c 0,0.2 0.1,0.3 0.1,0.5 0,-0.2 -0.1,-0.3 -0.1,-0.5 m 0.3,1 c 0.1,0.2 0.1,0.4 0.2,0.6 -0.1,-0.2 -0.1,-0.4 -0.2,-0.6 m 0.4,1.1 c 0,0.1 0.1,0.2 0.1,0.3 0,-0.1 -0.1,-0.2 -0.1,-0.3 m 0.3,0.9 c 0,0.1 0.1,0.2 0.1,0.3 0,-0.1 -0.1,-0.2 -0.1,-0.3 m 0.4,1.1 c 0,0.1 0.1,0.1 0.1,0.2 0,-0.1 -0.1,-0.1 -0.1,-0.2 m 0.3,0.9 c 0.1,0.1 0.1,0.1 0.1,0.2 0,-0.1 0,-0.1 -0.1,-0.2 m 0.4,0.9 c 0,0.1 0,0.1 0.1,0.2 -0.1,-0.1 -0.1,-0.1 -0.1,-0.2 m 0.4,1.1 v 0.1 -0.1 m 0.3,0.9 c 0.1,0 0.1,0.1 0.1,0.2 0,-0.1 0,-0.2 -0.1,-0.2 m 0.4,1 v 0 0 m 0.8,2 v 0 0" /><path
         id="path140"
         style="fill:#8b6b54;fill-opacity:1;fill-rule:nonzero;stroke:none"
         d="m 14508.1,7338 c -0.1,0.1 -0.2,0.1 -0.2,0.1 0,0 0.1,0 0.2,-0.1 m -0.2,0.1 v 0 l -424.9,8.5 -0.1,0.1 v 0 l 0.1,-0.1 424.9,-8.5 v 0" /><path
         id="path142"
         style="fill:#42322c;fill-opacity:1;fill-rule:nonzero;stroke:none"
         d="m 14803,7040.2 c -107.2,93.2 -289,291.3 -294.9,297.8 -0.1,0.1 -0.2,0.1 -0.2,0.1 v 0 0 l -424.9,8.5 -0.1,0.1 c -0.5,0.6 -66,80.5 -71.2,217 -0.2,5.4 -0.3,11 -0.3,16.6 -0.1,40.8 5.3,86.2 19.2,135.7 0.1,0.2 0.2,0.5 0.3,0.8 0,0.1 0,0.1 0,0.2 0.1,0.2 0.1,0.4 0.2,0.6 0,0.1 0.1,0.2 0.1,0.3 0,0.2 0.1,0.4 0.2,0.6 0,0.1 0,0.2 0.1,0.3 0,0.2 0.1,0.4 0.1,0.6 0.1,0.1 0.1,0.2 0.1,0.3 0.1,0.2 0.1,0.4 0.2,0.5 0,0.1 0,0.3 0.1,0.4 0,0.2 0.1,0.3 0.1,0.5 0.1,0.2 0.1,0.4 0.2,0.5 0,0.2 0.1,0.4 0.1,0.5 0.1,0.1 0.1,0.3 0.2,0.4 0,0.1 0,0.3 0.1,0.4 0,0.1 0.1,0.3 0.1,0.4 0,0.1 0.1,0.3 0.1,0.4 0.1,0.3 0.2,0.5 0.3,0.7 0,0.2 0,0.3 0.1,0.4 0,0.2 0.1,0.3 0.1,0.5 0,0.1 0.1,0.2 0.1,0.3 0.1,0.1 0.1,0.3 0.2,0.5 0,0 0,0.1 0.1,0.2 0.1,0.3 0.1,0.6 0.2,0.9 0.1,0.1 0.1,0.2 0.1,0.3 0.1,0.2 0.1,0.4 0.2,0.5 0,0.1 0.1,0.2 0.1,0.3 0,0.2 0.1,0.3 0.2,0.5 0,0.1 0,0.2 0.1,0.3 0,0.3 0.1,0.6 0.2,0.9 0.1,0.1 0.1,0.2 0.2,0.3 0,0.2 0.1,0.3 0.1,0.5 0,0.1 0.1,0.2 0.1,0.3 0.1,0.2 0.1,0.3 0.2,0.5 0,0.1 0,0.2 0.1,0.3 0.1,0.3 0.2,0.6 0.3,0.9 0,0.1 0,0.2 0.1,0.3 0,0.1 0.1,0.3 0.2,0.5 0,0.1 0,0.2 0.1,0.3 0,0.2 0.1,0.3 0.1,0.5 0.1,0.1 0.1,0.2 0.2,0.3 0,0.3 0.1,0.6 0.2,0.8 0.1,0.2 0.1,0.3 0.2,0.4 0,0.2 0.1,0.3 0.1,0.4 0.1,0.2 0.1,0.3 0.2,0.4 0,0.2 0.1,0.3 0.1,0.5 0.1,0.1 0.1,0.3 0.2,0.5 0.1,0.2 0.1,0.4 0.2,0.6 0.1,0.2 0.1,0.3 0.2,0.5 0,0.1 0.1,0.2 0.1,0.3 0.1,0.2 0.1,0.4 0.2,0.6 0,0.1 0.1,0.2 0.1,0.3 0.1,0.2 0.2,0.5 0.3,0.8 0,0.1 0.1,0.1 0.1,0.2 0.1,0.2 0.2,0.5 0.2,0.7 0.1,0.1 0.1,0.1 0.1,0.2 0.1,0.2 0.2,0.5 0.3,0.7 0,0.1 0,0.1 0.1,0.2 0.1,0.3 0.2,0.6 0.3,0.9 v 0.1 c 0.1,0.3 0.2,0.5 0.3,0.8 0.1,0 0.1,0.1 0.1,0.2 0.1,0.3 0.2,0.5 0.3,0.8 v 0 c 0.3,0.7 0.5,1.3 0.8,2 v 0 c 59.6,154.4 255.6,394.2 463.8,542.1 -12.2,-69.6 -68.4,-464.2 140.6,-860.3 114,-216.1 134.2,-324.2 157.3,-389.2" /><path
         id="path144"
         style="fill:#372a23;fill-opacity:1;fill-rule:nonzero;stroke:none"
         d="m 15529.1,7509.6 c 0,0 -67.8,177.1 -203,300.7 0,0 78.8,-184 50,-264.1 -28.8,-80.2 -142.1,-19.9 -142.1,-19.9 0,0 -163.9,269 -373.3,426.6 0,0 186.9,-369.8 149.7,-550.8 -37.2,-181 291.3,-78.8 295.6,-64.9 4.3,13.9 223.1,172.4 223.1,172.4" /><path
         id="path146"
         style="fill:#fbc398;fill-opacity:1;fill-rule:nonzero;stroke:none"
         d="m 14752.9,7347.2 c 0,0 133.9,161.2 5.2,224.5 -128.7,63.3 -321.3,-244.5 -303.1,-323.9 18.1,-79.4 18.1,-79.4 18.1,-79.4 0,0 -93.4,-345.7 -89.7,-467.1 3.6,-121.5 242.2,-427.7 290.5,-451.5 48.3,-23.7 384.8,270.8 384.8,270.8 0,0 151.2,-60.1 166.4,-52.4 15.2,7.8 79.8,273.3 90.3,299 10.5,25.7 230.5,201.7 285,271.3 54.5,69.7 138.2,269.4 139.7,292.8 1.6,23.3 -171.3,158 -211,178.3 -39.7,20.2 -170.5,81.7 -235.5,74.3 -65,-7.4 -252.3,-176.7 -358.1,-225.4 -105.9,-48.6 -141.3,-52.2 -182.6,-11.3" /><path
         id="path148"
         style="fill:#372a23;fill-opacity:1;fill-rule:nonzero;stroke:none"
         d="m 15461.9,7540.7 c 0,0 -137,-102.7 -299.9,-31 -163,71.7 -81.9,-59 -81.9,-59 0,0 134.3,-52.4 234.7,-38.7 100.4,13.6 214.3,97.6 214.3,97.6 l -67.2,31.1" /><path
         id="path150"
         style="fill:#523d38;fill-opacity:1;fill-rule:nonzero;stroke:none"
         d="m 13937.2,7494.4 c 0,0 -392.2,6.1 -728.7,-132.2 -336.5,-138.4 -402.6,-320.4 -531.1,-422.3 -128.4,-102 -145.2,-242.3 -145.2,-242.3 0,0 203.3,165.9 453.5,198.4 250.1,32.5 1001.2,435.6 1001.2,435.6 0,0 -56.1,97.5 -49.7,162.8" /></g></g></svg>