<?xml version="1.0" encoding="UTF-8" standalone="no"?>
<svg
   xmlns:dc="http://purl.org/dc/elements/1.1/"
   xmlns:cc="http://creativecommons.org/ns#"
   xmlns:rdf="http://www.w3.org/1999/02/22-rdf-syntax-ns#"
   xmlns:svg="http://www.w3.org/2000/svg"
   xmlns="http://www.w3.org/2000/svg"
   viewBox="0 0 2666.6667 2666.6667"
   height="2666.6667"
   width="2666.6667"
   xml:space="preserve"
   id="svg2"
   version="1.1"><metadata
     id="metadata8"><rdf:RDF><cc:Work
         rdf:about=""><dc:format>image/svg+xml</dc:format><dc:type
           rdf:resource="http://purl.org/dc/dcmitype/StillImage" /></cc:Work></rdf:RDF></metadata><defs
     id="defs6" /><g
     transform="matrix(1.3333333,0,0,-1.3333333,0,2666.6667)"
     id="g10"><g
       transform="scale(0.1)"
       id="g12"><g
         transform="scale(1.22699)"
         id="g14"><path
           id="path16"
           style="fill:none;fill-opacity:1;fill-rule:nonzero;stroke:none"
           d="M 16300,0 H 0 V 16300 H 16300 V 0" /></g><g
         transform="scale(1.12078)"
         id="g18"><path
           id="path20"
           style="fill:#2f1d16;fill-opacity:1;fill-rule:nonzero;stroke:none"
           d="m 8331.84,15774.4 c 0,0 -65.21,129.1 0,231.6 65.2,102.5 58.48,142.8 115.58,163 57.11,20.1 113.43,40.3 113.43,40.3 0,0 71.32,53.7 121.71,63.8 50.38,10.1 67.17,-13.4 137.71,0 70.54,13.5 127.68,26.9 188.09,23.5 60.49,-3.3 120.98,-20.1 161.22,-26.8 40.33,-6.8 130.98,-16.8 208.25,-63.9 77.27,-47 144.45,-114.2 171.31,-137.7 26.94,-23.5 84.05,-167.9 84.05,-228.4 0,-60.4 -43.1,-346 -43.1,-346 0,0 -262.58,-117.7 -457.45,0 -194.77,117.6 -800.8,280.6 -800.8,280.6" /></g><path
         id="path22"
         style="fill:#8d8d8d;fill-opacity:1;fill-rule:nonzero;stroke:none"
         d="m 9662.54,2191.5 -2980.95,875.2 c 0,0 -342.79,185.1 -397.63,665 -54.84,479.9 239.95,2173.3 239.95,2173.3 L 9662.54,2191.5" /><path
         id="path24"
         style="fill:#adadab;fill-opacity:1;fill-rule:nonzero;stroke:none"
         d="M 6784.42,5424.6 6578.75,3896.3 c 0,0 41.14,-425.1 263.95,-582.8 222.81,-157.7 2646.66,-783.7 2646.66,-783.7 L 8847.99,4199.9 6784.42,5424.6" /><path
         id="path26"
         style="fill:#adadab;fill-opacity:1;fill-rule:nonzero;stroke:none"
         d="m 9125.64,8661 347.25,51.7 c 0,0 1915.11,-1357.7 3221.11,-2602.1 1306,-1244.3 1542.6,-1768.7 1594,-2272.6 51.4,-503.9 -370.2,-987.2 -843.3,-1131.2 -473,-144 -853.5,205.7 -853.5,205.7 L 9125.64,8661" /><path
         id="path28"
         style="fill:#8d8d8d;fill-opacity:1;fill-rule:nonzero;stroke:none"
         d="m 14288,3838 c -51.4,503.9 -288,1028.3 -1594,2272.6 C 11388,7355 9472.89,8712.7 9472.89,8712.7 l -347.25,-51.7 10.14,-16.8 67.61,10 c 0,0 1915.11,-1357.7 3221.11,-2602 1306,-1244.3 1542.6,-1768.8 1594,-2272.7 48.8,-478.3 -328.8,-938.2 -771.9,-1106.7 63.5,2.8 129.9,13.2 198.1,34 473.1,144 894.7,627.3 843.3,1131.2" /><path
         id="path30"
         style="fill:#686a6c;fill-opacity:1;fill-rule:nonzero;stroke:none"
         d="m 11370.9,2244 1720.8,527.9 -243.2,294.8 -1445.3,-116.5 -32.3,-706.2" /><path
         id="path32"
         style="fill:#797a7b;fill-opacity:1;fill-rule:nonzero;stroke:none"
         d="m 6842.7,8455.3 c 0,0 459.33,267.4 1319.72,257.1 860.39,-10.3 963.22,-51.4 963.22,-51.4 0,0 2210.96,-1995 2920.56,-2653.2 709.5,-658.1 1367.7,-1439.7 1511.7,-1799.6 143.9,-359.9 113.1,-956.4 -164.6,-1203.2 -277.6,-246.8 -606.7,-174.8 -802.1,-92.5 -195.4,82.2 -545,421.6 -545,421.6 l -382.5,-51.4 c 0,0 -221.4,636.1 -1026.4,1665.9 C 9832.39,5978.4 8661.27,7036.2 8075.92,7540.1 7490.56,8043.9 6842.7,8455.3 6842.7,8455.3" /><path
         id="path34"
         style="fill:#48484a;fill-opacity:1;fill-rule:nonzero;stroke:none"
         d="m 7243.75,13262.2 26.98,-325.6 496.32,-102.7 105.62,165.4 -281.56,437.8 -347.36,-174.9" /><path
         id="path36"
         style="fill:#cfcecd;fill-opacity:1;fill-rule:nonzero;stroke:none"
         d="m 11466.9,2401.7 1695.5,514.2 -546.3,490.2 -1550.9,-226.2 401.7,-778.2" /><path
         id="path38"
         style="fill:#cfcecd;fill-opacity:1;fill-rule:nonzero;stroke:none"
         d="m 13162.4,3795.6 c 0,-173.4 -140.6,-313.9 -313.9,-313.9 -173.4,0 -313.9,140.5 -313.9,313.9 0,173.3 140.5,313.8 313.9,313.8 173.3,0 313.9,-140.5 313.9,-313.8" /><path
         id="path40"
         style="fill:#898b8b;fill-opacity:1;fill-rule:nonzero;stroke:none"
         d="m 11439.4,2593.7 1480.9,428.4 -562.2,709.6 c 0,0 -1029.4,120.8 -1224.3,-90.4 -194.8,-211.2 305.6,-1047.6 305.6,-1047.6" /><path
         id="path42"
         style="fill:#434244;fill-opacity:1;fill-rule:nonzero;stroke:none"
         d="m 13009.4,3795.6 c 0,-85.2 -69.1,-154.3 -154.3,-154.3 -85.1,0 -154.2,69.1 -154.2,154.3 0,85.2 69.1,154.2 154.2,154.2 85.2,0 154.3,-69 154.3,-154.2" /><path
         id="path44"
         style="fill:#cfcecd;fill-opacity:1;fill-rule:nonzero;stroke:none"
         d="m 7780.53,7783.4 c 0,0 244.78,192 587.56,274.3 342.78,82.2 1032.84,81.1 1342.53,74.8 l 129.59,-117.2 V 7872.6 L 7986.37,7616 7780.53,7783.4" /><path
         id="path46"
         style="fill:#686a6c;fill-opacity:1;fill-rule:nonzero;stroke:none"
         d="m 11403.2,3818.4 1688.5,434.4 -130.3,-384 -322.2,-137.1 -1060.8,-250 -175.2,336.7" /><path
         id="path48"
         style="fill:#898b8b;fill-opacity:1;fill-rule:nonzero;stroke:none"
         d="m 10695.7,6480.8 531.2,-397.6 -1329.86,-276.9 -347.58,361.4 1146.24,313.1" /><path
         id="path50"
         style="fill:#686a6c;fill-opacity:1;fill-rule:nonzero;stroke:none"
         d="m 10695.7,6803.1 -44.7,-587.3 -988.46,-163.6 -446.55,446.1 1479.71,304.8" /><path
         id="path52"
         style="fill:#898b8b;fill-opacity:1;fill-rule:nonzero;stroke:none"
         d="m 9725.52,7111.6 c 75.78,6.8 1110.58,-126.9 1110.58,-126.9 v -181.6 h -140.4 l -1479.71,-304.8 -244.75,234.3 c 0,0 123.55,193.9 205.82,252.1 82.27,58.3 548.46,126.9 548.46,126.9" /><path
         id="path54"
         style="fill:#686a6c;fill-opacity:1;fill-rule:nonzero;stroke:none"
         d="m 7730.69,8693.4 c 0,0 67.71,-142.1 174.31,-176.4 106.59,-34.3 476.8,-34.3 538.5,0 61.71,34.3 74.77,55.6 47.67,65.5 -27.1,9.9 -260.2,129 -260.2,129 0,0 -368.51,-2 -500.28,-18.1" /><path
         id="path56"
         style="fill:#cfcecd;fill-opacity:1;fill-rule:nonzero;stroke:none"
         d="m 9125.64,6585.6 1710.46,399.1 v -181.6 h -140.4 l -1479.71,-304.8 -90.35,87.3" /><path
         id="path58"
         style="fill:#686a6c;fill-opacity:1;fill-rule:nonzero;stroke:none"
         d="m 7986.37,7616 c 0,0 361.15,181.1 834.2,256.6 473.04,75.4 1019.64,0 1019.64,0 V 7560 L 8491.49,7166.4 7986.37,7616" /><path
         id="path60"
         style="fill:#969797;fill-opacity:1;fill-rule:nonzero;stroke:none"
         d="m 7513.41,12874.9 38.85,125.7 v 102.8 l 373.28,-18.7 c 0,0 282.59,-1567.2 337.43,-2353.3 54.84,-786.1 26.07,-2134.4 26.07,-2134.4 0,0 -158.62,-50.3 -364.28,36.5 0,0 36.56,1389.5 4.57,1988.2 -32,598.7 -351.93,2231.5 -351.93,2231.5 l -63.99,21.7" /><path
         id="path62"
         style="fill:#1a1918;fill-opacity:1;fill-rule:nonzero;stroke:none"
         d="m 9348.45,7783.4 c -20.56,0 -185.1,-34.2 -349.64,-253.6 -164.53,-219.4 -123.4,-219.4 -233.09,-253.7 -109.69,-34.3 -267.37,-82.3 -274.23,-109.7 -6.85,-27.4 95.98,-335.9 308.51,-404.5 212.52,-68.5 1028.35,-48 1048.92,0 20.57,48 123.4,617 82.27,761 -41.14,144 -268.65,164.6 -268.65,164.6 l -314.09,95.9" /><path
         id="path64"
         style="fill:#686a6c;fill-opacity:1;fill-rule:nonzero;stroke:none"
         d="m 6818.71,14195.8 c -13.71,13.7 -255.95,255.9 -255.95,255.9 v -255.9 l 397.63,-882.1 c 0,0 73.13,-118.8 219.38,-160 146.26,-41.1 372.49,-50.3 372.49,-50.3 l 373.28,-18.7 305.43,137.6 -146.25,545.9 -687.85,598.7 -578.16,-171.1" /><path
         id="path66"
         style="fill:#adadab;fill-opacity:1;fill-rule:nonzero;stroke:none"
         d="m 8162.42,12760.7 c 0,0 665.76,-27.5 1803.42,-548.5 1137.66,-521 2172.86,-1839.3 2447.06,-2619.9 274.3,-780.5 137.2,-1877.4 0,-2446.4 -137.1,-569.1 -253.6,-706.2 -253.6,-706.2 0,0 34.3,-164.5 226.2,-109.7 0,0 329.1,521.1 418.2,1618 89.2,1096.9 -130.2,1960.7 -582.7,2564 -452.5,603.3 -966.7,1151.8 -966.7,1151.8 l -1672.75,994 c 0,0 -685.57,288 -1048.92,336 -363.36,48 -370.21,-233.1 -370.21,-233.1" /><path
         id="path68"
         style="fill:#100f0d;fill-opacity:1;fill-rule:nonzero;stroke:none"
         d="m 10226,9593.3 c 0,0 102.8,-75.4 473,-82.2 370.2,-6.9 713,123.4 788.4,239.9 75.4,116.6 -815.8,506.8 -891.2,486.5 -75.4,-20.3 -370.2,-644.2 -370.2,-644.2" /><path
         id="path70"
         style="fill:#c37140;fill-opacity:1;fill-rule:nonzero;stroke:none"
         d="m 8230.98,10566.9 c 0,0 -185.11,-274.3 -150.83,-473.1 34.28,-198.8 178.25,-363.4 191.96,-390.8 13.71,-27.4 143.97,-630.7 404.49,-1000.9 260.51,-370.2 404.48,-658.2 459.33,-829.5 54.84,-171.4 68.55,-281.1 68.55,-281.1 0,0 54.85,-137.1 185.11,-123.4 130.26,13.7 143.97,157.7 171.39,171.4 27.42,13.7 101.56,48 101.56,48 0,0 -128.98,507.3 -176.97,918.6 -47.99,411.4 -89.12,706.2 -239.95,911.8 -150.83,205.7 -219.38,192 -281.08,445.6 -61.71,253.7 61.7,534.8 61.7,534.8 l -795.26,68.6" /><path
         id="path72"
         style="fill:#1a1918;fill-opacity:1;fill-rule:nonzero;stroke:none"
         d="m 9725.52,13062.3 c 0,0 -164.54,-390.8 -287.94,-514.2 -123.41,-123.4 -226.24,-171.3 -356.5,-356.4 -130.25,-185.2 -850.1,-1624.8 -850.1,-1624.8 0,0 -6.86,-240 390.77,-329.1 397.63,-89.1 877.53,-205.7 877.53,-205.7 0,0 445.62,541.6 459.33,514.2 13.71,-27.4 102.79,-754.2 143.99,-795.3 41.1,-41.1 102.8,-171.4 123.4,-157.7 20.6,13.8 137.1,185.1 562.2,164.6 425,-20.6 699.2,-6.9 699.2,-6.9 0,0 0,1404.4 61.7,1576.3 61.7,171.9 205.7,487.3 130.3,912.3 -75.4,425.1 -287.9,761 -287.9,761 0,0 -658.2,198.8 -836.4,253.7 -178.3,54.8 -829.58,-192 -829.58,-192" /><path
         id="path74"
         style="fill:#c37140;fill-opacity:1;fill-rule:nonzero;stroke:none"
         d="m 11124.1,15989.9 c 0,0 143.9,-137.3 267.4,-253.9 123.4,-116.5 178.2,-274.2 191.9,-527.8 0,0 96,-294.8 96,-596.5 0,-301.6 -13.7,-932.4 -61.7,-1158.6 -48,-226.2 -226.2,-452.5 -226.2,-452.5 0,0 -425.1,137.1 -459.4,747.3 -34.3,610.1 61.7,726.7 96,1035.2 34.3,308.5 96,1206.8 96,1206.8" /><g
         transform="scale(1.01224)"
         id="g76"><path
           id="path78"
           style="fill:#e9eef1;fill-opacity:1;fill-rule:nonzero;stroke:none"
           d="m 9685.83,16165.5 -140.11,-98.2 -222.23,-1720.3 c 0,0 193.89,-447 222.23,-494.4 28.36,-47.4 30.22,-704.4 30.22,-704.4 l 32,-243.8 c 0,0 101.59,81.3 623.06,-61 521.5,-142.2 1022.8,0 1022.8,0 v 1036.3 l 189.6,1144.6 c 0,0 -189.6,243.8 -243.9,345.4 -54.1,101.6 -121.9,305.3 -209.9,426.9 -88,121.7 -477.8,503.4 -477.8,503.4 l -825.97,-134.5" /></g><g
         transform="scale(1.06908)"
         id="g80"><path
           id="path82"
           style="fill:#c37140;fill-opacity:1;fill-rule:nonzero;stroke:none"
           d="m 8924.21,15433.4 c 20.59,5.8 192.13,2.2 204.96,0 12.83,-2.3 41.69,-127.4 41.69,-127.4 0,0 378.3,-96.2 551.45,-214.8 173.23,-118.6 301.49,-163.5 407.29,-115.4 105.8,48.1 73.7,166.7 -25.7,278.9 -99.4,112.2 -176.37,198.8 -182.73,237.3 -6.46,38.5 -3.28,137.9 -3.28,137.9 0,0 -410.35,535.4 -423.16,541.8 -12.82,6.5 -291.81,128.3 -317.46,38.5 -25.65,-89.8 -166.74,-365.5 -166.74,-365.5 l -86.32,-411.3" /></g><g
         transform="scale(1.04531)"
         id="g84"><path
           id="path86"
           style="fill:#a45634;fill-opacity:1;fill-rule:nonzero;stroke:none"
           d="m 9399.02,16300 c 0,0 29.51,-206.6 16.4,-318.1 -13.13,-111.5 -78.72,-197.7 -78.72,-197.7 h -209.61 l 271.93,515.8" /></g><g
         transform="scale(1.11871)"
         id="g88"><path
           id="path90"
           style="fill:#2f1d16;fill-opacity:1;fill-rule:nonzero;stroke:none"
           d="m 8356.47,15717.8 -9.19,85.8 c 0,0 -49.02,159.3 36.78,254.3 85.78,95 283.45,211.5 541.59,226.8 258.16,15.3 481.81,-91.9 576.83,-183.9 94.93,-91.9 116.38,-327.8 119.51,-450.4 3.04,-122.6 -107.26,-539.3 -116.47,-612.8 -9.21,-73.6 -12.25,-88.9 -27.62,-101.1 -15.29,-12.3 -165.46,-95 -254.31,-24.5 -88.85,70.4 -297.94,318.6 -297.94,318.6 l -69.73,223.7 c 0,0 -153.2,-131.7 -180.78,-137.9 -27.57,-6.1 3.07,-76.6 -79.66,9.2 -82.73,85.8 -239.01,392.2 -239.01,392.2" /></g><g
         transform="scale(1.08758)"
         id="g92"><path
           id="path94"
           style="fill:#c37140;fill-opacity:1;fill-rule:nonzero;stroke:none"
           d="m 8586.16,16255.9 c 0,0 -28.37,-233.3 -28.37,-264.8 0,-31.5 12.61,-75.6 0,-116.6 -12.6,-41 -94.55,-182.8 -94.55,-211.2 0,-28.3 122.92,-69.3 122.92,-69.3 0,0 -15.76,-412.9 25.22,-431.8 40.97,-18.9 233.22,-3.2 327.78,100.9 94.56,104 88.25,393.9 94.56,403.4 6.3,9.4 81.94,44.1 132.38,167 50.38,122.9 -34.68,227 -132.38,214.4 -97.71,-12.7 -110.32,-233.3 -135.53,-236.4 -25.22,-3.2 -40.98,3.1 -44.13,12.6 -3.15,9.4 -34.67,104 -53.58,151.3 -18.91,47.2 -31.51,63 -31.51,129.2 0,66.2 -15.76,122.9 -34.67,151.3 -18.92,28.3 -100.86,44.1 -148.14,0" /></g><path
         id="path96"
         style="fill:#100f0d;fill-opacity:1;fill-rule:nonzero;stroke:none"
         d="m 11025.2,11570.3 c 0,0 -79.4,-112.2 -353.6,-290.5 -274.2,-178.2 -712.99,-733.5 -712.99,-733.5 0,0 52.69,-333.2 48.89,-307.4 -3.9,25.9 232.2,485.6 431,650.2 198.8,164.5 555.3,473.1 617,538.2 61.7,65.1 383.9,167.9 383.9,167.9 l -414.2,-24.9" /><path
         id="path98"
         style="fill:#ececec;fill-opacity:1;fill-rule:nonzero;stroke:none"
         d="m 9074.84,8028.6 c 26.61,-59.4 46.9,-111.7 61.09,-156 54.84,-171.4 68.55,-281.1 68.55,-281.1 0,0 54.85,-137.1 185.1,-123.4 130.27,13.7 143.98,157.7 171.4,171.4 27.42,13.7 101.56,48 101.56,48 0,0 -46.61,183.3 -94.22,418.9 -158.19,-31 -350.57,-58.8 -493.48,-77.8" /><path
         id="path100"
         style="fill:#cfcecd;fill-opacity:1;fill-rule:nonzero;stroke:none"
         d="m 7243.75,13000.6 c 0,0 48,-198.8 0,-294.8 h -459.33 c 0,0 1295.73,-829.5 1796.2,-1206.6 500.46,-377 973.51,-939.2 1234.02,-1494.5 260.56,-555.3 349.66,-1069.5 370.26,-2029.3 20.5,-959.8 -192.01,-1768.8 -404.54,-2084.1 0,0 -75.41,-102.9 -212.52,-82.3 -137.12,20.6 -130.26,198.8 -130.26,198.8 0,0 425.05,644.3 404.49,1779 -20.57,1134.7 -175.81,1895.7 -626.08,2574.4 -450.27,678.7 -1453.49,1293.4 -1743.71,1476.2 -290.22,182.9 -1030.64,710.7 -1071.77,861.6 -41.13,150.8 68.55,226.2 239.94,267.3 171.4,41.2 603.3,34.3 603.3,34.3" /><path
         id="path102"
         style="fill:#686a6c;fill-opacity:1;fill-rule:nonzero;stroke:none"
         d="m 7243.75,13000.6 h 308.51 c 0,0 177.89,-46.6 172.93,-230.7 l -35.7,-53.9 -445.74,-10.2 v 294.8" /><path
         id="path104"
         style="fill:#cfcecd;fill-opacity:1;fill-rule:nonzero;stroke:none"
         d="m 13269.9,4506.4 v -198.8 l -178.2,-54.8 -1688.5,-434.4 -73.5,153.3 1940.2,534.7" /><path
         id="path106"
         style="fill:#898b8b;fill-opacity:1;fill-rule:nonzero;stroke:none"
         d="m 12214.1,4897.2 1055.8,-390.8 -1940.2,-534.7 -418.1,610.1 1302.5,315.4" /><path
         id="path108"
         style="fill:#898b8b;fill-opacity:1;fill-rule:nonzero;stroke:none"
         d="m 11789.1,5164.6 425,-267.4 -1302.5,-315.4 -215.9,291.4 1093.4,291.4" /><path
         id="path110"
         style="fill:#686a6c;fill-opacity:1;fill-rule:nonzero;stroke:none"
         d="m 10379.7,5265.1 1508.3,331.4 -98.9,-431.9 -1093.4,-291.4 -316,391.9" /><path
         id="path112"
         style="fill:#cfcecd;fill-opacity:1;fill-rule:nonzero;stroke:none"
         d="m 10242.5,5424.6 1466.4,273.3 179.1,-101.4 -1508.3,-331.4 -137.2,159.5" /><path
         id="path114"
         style="fill:#898b8b;fill-opacity:1;fill-rule:nonzero;stroke:none"
         d="m 9897.04,5806.3 1329.86,276.9 482,-385.3 -1466.4,-273.3 -345.46,381.7" /><path
         id="path116"
         style="fill:#898b8b;fill-opacity:1;fill-rule:nonzero;stroke:none"
         d="m 11578.4,3481.7 85.3,-199 382.5,51.4 593,147.6 v 250 l -1060.8,-250" /><path
         id="path118"
         style="fill:#cfcecd;fill-opacity:1;fill-rule:nonzero;stroke:none"
         d="m 6704.44,14675.7 c 0,0 -141.68,-205.7 -141.68,-224 0,-18.2 493.61,-1046.6 493.61,-1046.6 0,0 86.84,-130.3 187.38,-142.9 100.56,-12.5 918.67,-39.9 918.67,-39.9 l 397.15,831 -196.05,435 c 0,0 -63.99,86.8 -201.1,132.5 -137.11,45.8 -1179.18,123.5 -1457.98,54.9" /><path
         id="path120"
         style="fill:#969797;fill-opacity:1;fill-rule:nonzero;stroke:none"
         d="m 6893.45,14239.1 c 0,0 -187.29,60.5 -319.06,237.6 -7.2,-12.7 -11.63,-21.8 -11.63,-25 0,-18.2 493.61,-1046.6 493.61,-1046.6 0,0 86.84,-130.3 187.38,-142.9 100.56,-12.5 918.67,-39.9 918.67,-39.9 l 397.15,831 -61.84,137.2 -1604.28,48.6" /><path
         id="path122"
         style="fill:#878888;fill-opacity:1;fill-rule:nonzero;stroke:none"
         d="m 7271.18,13455.4 c -73.13,68.5 -548.46,1174.6 -548.46,1174.6 l -24.23,37 c -26.87,-39.2 -135.73,-199.2 -135.73,-215.3 0,-18.2 493.61,-1046.6 493.61,-1046.6 0,0 86.84,-130.3 187.38,-142.9 100.56,-12.5 918.67,-39.9 918.67,-39.9 l 86.33,180.6 c -394.95,0.7 -931.78,9.5 -977.57,52.5" /><path
         id="path124"
         style="fill:#ebebea;fill-opacity:1;fill-rule:nonzero;stroke:none"
         d="m 7751.08,14506.6 55.49,162.2 c -171.88,15.1 -380.39,27.6 -573.61,32.2 l 172.8,-194.4 h 345.32" /><path
         id="path126"
         style="fill:#1a1918;fill-opacity:1;fill-rule:nonzero;stroke:none"
         d="m 7396.87,14366.9 c 0,0 -98.27,-2 -87.98,-98 4.41,-41.1 175.63,-402.2 175.63,-402.2 h 719.03 l -150.82,402.2 c 0,0 -18.28,91.4 -54.85,96 -36.56,4.6 -601.01,2 -601.01,2" /><path
         id="path128"
         style="fill:#c37140;fill-opacity:1;fill-rule:nonzero;stroke:none"
         d="m 7552.26,12513.9 c 0,0 -491.32,-155.4 -518.74,-187.4 -27.43,-32 -4.57,-219.4 0,-251.4 4.57,-32 164.53,-205.7 223.95,-237.7 59.41,-32 214.81,0 214.81,0 l -68.56,109.7 c 0,0 251.38,91.4 292.51,146.3 41.14,54.8 41.14,180.5 41.14,180.5 l -185.11,240" /><path
         id="path130"
         style="fill:#c37140;fill-opacity:1;fill-rule:nonzero;stroke:none"
         d="m 9662.54,16263.9 c 0,0 177.84,-75.4 322.65,-390.7 144.81,-315.4 213.41,-637.6 144.81,-905 -68.6,-267.4 -436.87,-404.5 -436.87,-404.5 0,0 -211.34,-301.6 -370.56,-445.6 0,0 -275.77,-486.8 -289.48,-521 -13.71,-34.3 -198.81,-288 -500.46,-603.3 -301.65,-315.4 -795.26,-719.9 -795.26,-719.9 l -185.11,240 c 0,0 445.62,637.5 610.16,1000.9 164.54,363.3 445.62,541.6 486.75,665 41.14,123.4 47.99,287.9 137.12,493.6 89.12,205.7 198.81,425.1 198.81,425.1 0,0 -109.69,438.7 34.28,651.3 143.97,212.5 363.35,294.7 383.92,315.3 20.57,20.6 259.24,198.8 259.24,198.8" /><path
         id="path132"
         style="fill:#a45634;fill-opacity:1;fill-rule:nonzero;stroke:none"
         d="m 9845.58,14947.6 -152.45,-383.9 152.45,76.3 c 0,0 3.51,218.5 0,307.6" /><path
         id="path134"
         style="fill:#1a1918;fill-opacity:1;fill-rule:nonzero;stroke:none"
         d="m 11439.4,6576.8 c 0,0 -68.5,48 -164.5,-82.2 -96,-130.3 -96,-178.3 -192,-219.4 -95.9,-41.1 -246.8,-68.6 -301.6,-144 -54.9,-75.4 -105.1,-349.6 341.6,-425 446.8,-75.5 1091.2,41.1 1146.1,185.1 54.8,143.9 -164.6,661.7 -219.4,694.2 -54.8,32.5 -185.1,39.3 -185.1,39.3 0,0 -144,137.1 -192,123.4 -48,-13.7 -233.1,-171.4 -233.1,-171.4" /><path
         id="path136"
         style="fill:#c37140;fill-opacity:1;fill-rule:nonzero;stroke:none"
         d="m 10335.7,9922.4 c 0,0 137.1,-253.7 198.8,-473 61.7,-219.4 89.1,-281.1 212.5,-507.3 123.4,-226.3 109.7,-205.7 226.3,-671.9 116.5,-466.2 226.2,-493.6 377,-884.4 150.8,-390.8 89.1,-809 89.1,-809 0,0 130.3,-137.1 192,-137.1 61.7,0 144,144 144,144 l 89.1,41.1 c 0,0 102.8,1288.9 0,1672.8 -102.8,383.9 -418.2,815.8 -459.3,966.7 -41.2,150.8 -68.6,932.3 -68.6,932.3 l -1000.9,-274.2" /><path
         id="path138"
         style="fill:#ececec;fill-opacity:1;fill-rule:nonzero;stroke:none"
         d="m 11442.4,6983.1 c 22.9,-230.2 -3,-406.3 -3,-406.3 0,0 130.3,-137.1 192,-137.1 61.7,0 144,144 144,144 l 89.1,41.1 c 0,0 11.8,148.7 23.5,359.9 -174.1,-9.7 -332.5,-6.7 -445.6,-1.6" /><path
         id="path140"
         style="fill:#1a1918;fill-opacity:1;fill-rule:nonzero;stroke:none"
         d="m 10143.7,10423.7 v -727.8 c 33.5,-51.5 67.9,-112.1 82.3,-102.6 20.6,13.8 137.1,185.1 562.2,164.6 425,-20.6 699.2,-6.9 699.2,-6.9 0,0 0,319.7 6.7,672.7 h -1350.4" /><path
         id="path142"
         style="fill:#adadab;fill-opacity:1;fill-rule:nonzero;stroke:none"
         d="M 10637.3,4948.6 C 9832.39,5978.4 8661.27,7036.2 8075.92,7540.1 7490.56,8043.9 6842.7,8455.3 6842.7,8455.3 h -723.28 c 0,0 -425.05,-303.6 -411.34,-988.2 13.71,-684.6 54.84,-1000 438.77,-1315.3 383.92,-315.4 658.15,-946.1 1275.16,-1741.4 617.01,-795.2 1974.44,-2043 2372.06,-2317.2 397.63,-274.2 754.13,-342.8 1124.33,-301.6 370.2,41.1 887.3,692.4 745.3,1491.1 0,0 -221.4,636.1 -1026.4,1665.9" /><path
         id="path144"
         style="fill:#8d8d8d;fill-opacity:1;fill-rule:nonzero;stroke:none"
         d="m 11663.7,3282.7 c 0,0 -221.4,636.1 -1026.4,1665.9 C 9832.39,5978.4 8661.27,7036.2 8075.92,7540.1 7490.56,8043.9 6842.7,8455.3 6842.7,8455.3 h -408.73 c 0,0 647.87,-411.4 1233.22,-915.2 585.36,-503.9 1756.48,-1561.7 2561.41,-2591.5 804.9,-1029.8 1026.4,-1665.9 1026.4,-1665.9 139.9,-787.2 -360.3,-1431.1 -729.2,-1488.9 130.8,-17.5 260.8,-16.9 392.6,-2.2 370.2,41.1 887.3,692.4 745.3,1491.1" /><path
         id="path146"
         style="fill:#8d8d8d;fill-opacity:1;fill-rule:nonzero;stroke:none"
         d="m 10945.8,3176.4 c -150.8,809 -699.2,1247.7 -1870.96,2506.1 -1171.7,1258.4 -2653.77,2567.1 -2845.72,2539.7 -118.24,-16.9 -340.49,-262.6 -500.19,-471.6 -14.89,-86.1 -22.91,-180.4 -20.85,-283.5 13.71,-684.6 54.84,-1000 438.77,-1315.3 383.92,-315.4 658.15,-946.1 1275.16,-1741.4 617.01,-795.2 1974.44,-2043 2372.06,-2317.2 172.89,-119.2 338.03,-199.5 499.83,-248.9 296.5,172.3 773.7,678.9 651.9,1332.1" /><path
         id="path148"
         style="fill:#686a6c;fill-opacity:1;fill-rule:nonzero;stroke:none"
         d="m 6338.8,7783.4 c 0,0 -233.09,0 -287.94,-233.1 -54.84,-233.1 27.43,-1037 233.1,-1231.5 205.67,-194.4 329.07,-331.6 754.13,-852.6 425.05,-521 1371.13,-1823.6 1590.52,-1947 219.38,-123.4 342.78,82.3 315.36,260.5 C 8916.55,3958 8244.69,5740.4 7668.81,6563.1 7092.93,7385.8 6338.8,7783.4 6338.8,7783.4" /><path
         id="path150"
         style="fill:#686a6c;fill-opacity:1;fill-rule:nonzero;stroke:none"
         d="m 9940.81,4191.1 c 0,0 -394.19,95.9 -572.11,-342.8 -177.93,-438.8 52.63,-1325.4 293.84,-1656.8 241.22,-331.4 631.36,-347.2 631.36,-347.2 0,0 663.5,197.3 671.4,990.9 8,793.7 -439,1383.3 -1024.49,1355.9" /><path
         id="path152"
         style="fill:#cfcecd;fill-opacity:1;fill-rule:nonzero;stroke:none"
         d="m 10182.3,8079 h -349.02 c 4.03,-94.7 6.96,-191.9 8.79,-292.2 20.56,-1134.7 -404.49,-1779 -404.49,-1779 0,0 -6.86,-178.2 130.26,-198.8 137.11,-20.6 212.52,82.3 212.52,82.3 212.53,315.3 425.04,1124.3 404.44,2084.1 -0.7,35.2 -1.6,69.6 -2.5,103.6" /></g></g></svg>