<?xml version="1.0" encoding="UTF-8" standalone="no"?>
<svg
   xmlns:dc="http://purl.org/dc/elements/1.1/"
   xmlns:cc="http://creativecommons.org/ns#"
   xmlns:rdf="http://www.w3.org/1999/02/22-rdf-syntax-ns#"
   xmlns:svg="http://www.w3.org/2000/svg"
   xmlns="http://www.w3.org/2000/svg"
   viewBox="0 0 2666.6667 2666.6667"
   height="2666.6667"
   width="2666.6667"
   xml:space="preserve"
   id="svg2"
   version="1.1"><metadata
     id="metadata8"><rdf:RDF><cc:Work
         rdf:about=""><dc:format>image/svg+xml</dc:format><dc:type
           rdf:resource="http://purl.org/dc/dcmitype/StillImage" /></cc:Work></rdf:RDF></metadata><defs
     id="defs6"><clipPath
       id="clipPath104"
       clipPathUnits="userSpaceOnUse"><path
         id="path102"
         d="m 7300.57,10086.3 v 0 h 0.11 v 0 h -0.11" /></clipPath></defs><g
     transform="matrix(1.3333333,0,0,-1.3333333,0,2666.6667)"
     id="g10"><g
       transform="scale(0.1)"
       id="g12"><g
         transform="scale(1.22699)"
         id="g14"><path
           id="path16"
           style="fill:none;fill-opacity:1;fill-rule:nonzero;stroke:none"
           d="M 16300,0 H 0 V 16300 H 16300 V 0" /></g><path
         id="path18"
         style="fill:#dfdfdd;fill-opacity:1;fill-rule:nonzero;stroke:none"
         d="m 10329.6,10221 1028.9,41.1 c 0,0 115.4,-127.6 10.3,-256.4 l -1028.9,-41.1 -10.3,256.4" /><path
         id="path20"
         style="fill:#373737;fill-opacity:1;fill-rule:nonzero;stroke:none"
         d="m 9927.33,11060.1 -291.22,-11.6 4.05,-101.1 5.15,-129 c -90.5,-182.1 -141.91,-450.5 -130.03,-747.8 11.88,-297.2 84.55,-560.7 189.28,-735 l 9.19,-230.1 291.25,11.7 c 249,9.9 433.4,452.9 412,989.5 -21.4,536.5 -240.7,963.4 -489.67,953.4" /><path
         id="path22"
         style="fill:#494a4b;fill-opacity:1;fill-rule:nonzero;stroke:none"
         d="m 10125.8,10095 c 21.4,-536.5 -163.04,-979.5 -412.05,-989.5 -249,-9.9 -468.24,417 -489.67,953.5 -21.44,536.5 163.03,979.6 412.03,989.5 249.01,9.9 468.29,-416.9 489.69,-953.5" /><path
         id="path24"
         style="fill:#797a7b;fill-opacity:1;fill-rule:nonzero;stroke:none"
         d="m 9847.78,10087.9 c 4.82,-120.5 -63.09,-221.1 -151.67,-224.6 -88.58,-3.6 -164.29,91.2 -169.11,211.7 -4.81,120.5 63.09,221.1 151.67,224.6 88.59,3.6 164.3,-91.3 169.11,-211.7" /><path
         id="path26"
         style="fill:#c37140;fill-opacity:1;fill-rule:nonzero;stroke:none"
         d="m 5084.64,8602.1 v -766.3 c 0,0 -249.05,-517.3 -268.2,-775.9 -19.16,-258.6 67.05,-728 134.1,-1044.1 67.05,-316.1 67.05,-316.1 67.05,-316.1 l 393.65,67.8 c 0,0 8.67,328.1 123.61,673 114.95,344.8 114.95,996.2 114.95,996.2 0,0 76.63,114.9 102.17,242.6 25.54,127.8 191.58,562 197.97,651.4 6.38,89.4 -613.05,159.7 -613.05,159.7 l -252.25,111.7" /><path
         id="path28"
         style="fill:#a45634;fill-opacity:1;fill-rule:nonzero;stroke:none"
         d="m 5317.73,7150.9 c 0,0 -38.32,-499.7 -166.04,-825.4 0,0 268.22,322.5 166.04,825.4" /><path
         id="path30"
         style="fill:#a45634;fill-opacity:1;fill-rule:nonzero;stroke:none"
         d="m 5340.94,7609.1 c 0,0 136.44,-261.8 308.86,-172.4 v -115 c 0,0 -260.1,-83 -308.86,287.4" /><path
         id="path32"
         style="fill:#c37140;fill-opacity:1;fill-rule:nonzero;stroke:none"
         d="m 6288.39,8369 c 0,0 166.03,-402.3 166.03,-466.1 0,-63.9 -172.41,-504.5 -127.72,-862.2 44.71,-357.6 242.67,-600.2 293.76,-798.2 51.09,-198 63.86,-459.8 63.86,-459.8 l 370.38,31.9 c 0,0 25.54,510.9 76.63,772.7 51.09,261.9 -51.09,1175.1 -51.09,1175.1 0,0 86.09,542.8 65.39,715.2 C 7124.95,8650 6288.39,8369 6288.39,8369" /><path
         id="path34"
         style="fill:#a45634;fill-opacity:1;fill-rule:nonzero;stroke:none"
         d="m 6786.49,7666.6 c 0,0 197.97,-38.3 293.75,95.8 l 10.6,-100.9 c 0,0 -131.93,-116.3 -304.35,5.1" /><path
         id="path36"
         style="fill:#a45634;fill-opacity:1;fill-rule:nonzero;stroke:none"
         d="m 6786.49,7372.8 c -16.95,27.1 153.27,-478.9 0,-964.3 0,0 332.07,434.3 0,964.3" /><path
         id="path38"
         style="fill:#252323;fill-opacity:1;fill-rule:nonzero;stroke:none"
         d="m 5126.15,10891.5 c 0,0 -89.4,-182 -156.45,-862.1 -67.05,-680.1 0,-1762.6 0,-1762.6 0,0 431.05,-95.7 574.73,-76.6 143.69,19.2 496.1,57.5 496.1,57.5 l 78.64,574.7 105.36,-555.6 c 0,0 373.58,47.9 536.42,38.4 162.84,-9.6 507.68,28.7 507.68,28.7 0,0 57.47,718.4 -67.05,1293.2 -124.53,574.7 -312.91,1187.7 -312.91,1187.7 l -1459.19,373.6 -303.33,-296.9" /><path
         id="path40"
         style="fill:#100f0d;fill-opacity:1;fill-rule:nonzero;stroke:none"
         d="m 5831.8,10288 c 9.58,-38.3 197.14,-335.3 208.73,-469.4 11.58,-134.1 78.64,-996.2 78.64,-996.2 l 105.36,-555.6 200.87,22.2 -239.18,1567.9 159.64,239.5 -234.98,-47.9 -279.08,239.5" /><path
         id="path42"
         style="fill:#e9eef1;fill-opacity:1;fill-rule:nonzero;stroke:none"
         d="m 5971.97,13809.8 -532.91,170.9 -127.72,-85.5 c 0,0 226.7,-476.9 213.93,-853.6 -12.77,-376.8 -290.56,-1019.8 -290.56,-1019.8 0,0 44.7,-728 0,-823.8 -44.7,-95.8 -108.56,-306.5 -108.56,-306.5 0,0 651.36,-287.4 1104.77,-268.2 453.4,19.1 657.75,191.5 657.75,191.5 0,0 25.54,689.7 0,951.5 -25.54,261.9 -57.48,696.1 -57.48,696.1 0,0 102.18,178.8 121.33,421.5 19.16,242.6 -83.01,498.1 -114.94,530 -31.93,31.9 -210.73,146.9 -242.66,389.5 l -126.46,95.8 -496.49,-89.4" /><path
         id="path44"
         style="fill:#cdd0d1;fill-opacity:1;fill-rule:nonzero;stroke:none"
         d="m 5738.57,12590.1 c 19.79,0 185,-22.3 301.96,0 116.95,22.4 184,60.7 184,60.7 0,0 -64.68,-105.4 -184,-127.7 -119.33,-22.4 -363.86,16.6 -363.86,16.6 l 61.9,50.4" /><path
         id="path46"
         style="fill:#cdd0d1;fill-opacity:1;fill-rule:nonzero;stroke:none"
         d="m 6345.86,12625.2 c 0,0 153.27,-89.4 280.99,-92.6 127.71,-3.2 246,19.1 246,19.1 l -41.66,-89.3 c 0,0 -332.06,-60.7 -485.33,162.8" /><path
         id="path48"
         style="fill:#c37140;fill-opacity:1;fill-rule:nonzero;stroke:none"
         d="m 6594.92,13803.4 114.94,-54.2 c 0,0 274.6,-16 475.76,-274.6 201.15,-258.7 127.71,-710 67.05,-934.5 l -31.93,-700.3 c 0,0 108.56,-194.8 114.94,-479 6.39,-284.2 -41.51,-512 -41.51,-666.3 0,-154.3 42.1,-272.4 42.1,-272.4 l -317.25,-60.3 c 0,0 -229.33,649.4 -253.28,927.2 -23.95,277.8 14.37,536.4 14.37,536.4 l 9.19,714.7 c 0,0 162.78,147.5 165.4,420.5 2.61,272.9 -117.12,453.3 -117.12,453.3 0,0 -231.49,135.7 -242.66,389.5" /><path
         id="path50"
         style="fill:#c37140;fill-opacity:1;fill-rule:nonzero;stroke:none"
         d="m 5638.41,14514.1 c 0,0 -22.14,-319.3 -55.67,-392.8 -33.52,-73.6 -143.68,-140.6 -143.68,-140.6 0,0 263.42,-402.4 359.21,-579.6 95.79,-177.2 290.8,-368.8 507,-359.2 216.2,9.6 202.52,402.3 197.39,526.9 -5.13,124.5 -34.2,330.4 -34.2,330.4 l -163.19,105.4 -2.73,137.5 c 0,0 -499.48,602.9 -518.64,627.8 -19.15,25 -238.67,1.8 -237.72,0 0.94,-1.7 92.23,-255.8 92.23,-255.8" /><path
         id="path52"
         style="fill:#dfdfdd;fill-opacity:1;fill-rule:nonzero;stroke:none"
         d="M 3119.55,9766.8 9610.81,9977 c 0,0 117.92,87.8 -7.14,178.7 l -6491.85,-195.5 7.73,-193.4" /><path
         id="path54"
         style="fill:#a45634;fill-opacity:1;fill-rule:nonzero;stroke:none"
         d="m 5676.67,13607.3 c 0,0 150.29,42.9 197.41,39.7 47.12,-3.2 139.88,-39.7 139.88,-39.7 0,0 -60.92,68.4 -110.37,90.8 -49.44,22.3 -255.05,-45.4 -255.05,-45.4 l 28.13,-45.4" /><path
         id="path56"
         style="fill:#a45634;fill-opacity:1;fill-rule:nonzero;stroke:none"
         d="m 6500.48,13607.3 c 0,0 -181.52,23.7 -195.21,20.5 -13.69,-3.2 -80.74,-20.5 -80.74,-20.5 0,0 30.57,78 80.74,81.2 50.17,3.2 195.21,-33.5 195.21,-33.5 v -47.7" /><path
         id="path58"
         style="fill:#373737;fill-opacity:1;fill-rule:nonzero;stroke:none"
         d="m 2754.03,10942.9 -265.84,-10.7 4.4,-109.9 5.6,-140.2 c -81.36,-197.3 -126.45,-488.6 -113.54,-811.7 12.92,-323.2 81.1,-610 177.95,-800.1 l 9.99,-250.1 265.83,10.6 c 227.3,9.1 392.67,489.2 369.37,1072.5 -23.31,583.2 -226.46,1048.6 -453.76,1039.6" /><path
         id="path60"
         style="fill:#494a4b;fill-opacity:1;fill-rule:nonzero;stroke:none"
         d="m 2941.96,9892.6 c 23.3,-583.2 -142.07,-1063.3 -369.37,-1072.4 -227.3,-9.1 -430.46,456.3 -453.76,1039.6 -23.31,583.2 142.06,1063.3 369.36,1072.4 227.3,9.1 430.46,-456.3 453.77,-1039.6" /><path
         id="path62"
         style="fill:#797a7b;fill-opacity:1;fill-rule:nonzero;stroke:none"
         d="m 2688.15,9886.8 c 5.23,-131 -56.07,-239.8 -136.93,-243 -80.87,-3.3 -150.66,100.3 -155.89,231.3 -5.24,130.9 56.07,239.7 136.93,243 80.86,3.2 150.66,-100.4 155.89,-231.3" /><path
         id="path64"
         style="fill:#dfdfdd;fill-opacity:1;fill-rule:nonzero;stroke:none"
         d="m 511.758,9893 c 0,0 -61.645,-136.7 9.176,-229.7 l 2014.746,80.5 c 0,0 71.89,137.3 -9.18,229.7 L 511.758,9893" /><path
         id="path66"
         style="fill:#252323;fill-opacity:1;fill-rule:nonzero;stroke:none"
         d="m 6602.3,5571.8 c 0,0 -116.33,-529.2 -35.28,-595.9 81.06,-66.7 311.16,-14.9 432.53,-73.7 121.36,-58.8 666.59,-126.4 853.9,66.2 187.31,192.5 -559.33,514.1 -605.83,564.6 -46.51,50.5 -95.98,150.8 -132.29,198.8 -36.3,47.9 -169.19,58.6 -169.19,58.6 0,0 -67.81,105.9 -134.75,47 -66.95,-59 -209.09,-265.6 -209.09,-265.6" /><path
         id="path68"
         style="fill:#f5f6f5;fill-opacity:1;fill-rule:nonzero;stroke:none"
         d="m 6927.93,5791.7 c 0,0 -50.92,-8.4 -58.66,-41.3 -7.74,-33 -18.56,-98.6 -30.4,-131.8 -11.84,-33.3 -159.48,-24.8 -159.48,-24.8 l -9.28,342.3 392.85,11.8 5.14,-196.6 c 0,0 -19.15,26.6 -140.17,40.4" /><path
         id="path70"
         style="fill:#252323;fill-opacity:1;fill-rule:nonzero;stroke:none"
         d="m 5026.72,5438.2 -49.59,-107.6 c 0,0 -47.92,-568.9 -30.05,-634 17.87,-65.1 209.39,-291.1 392.84,-357.7 183.43,-66.7 539.67,26.2 558.48,131.7 18.81,105.6 -328.37,649.5 -366.26,753.7 -37.89,104.1 -7.74,335 -53.26,371.1 -45.52,36.1 -105.55,18.8 -105.55,18.8 l -351.37,88.6 4.76,-264.6" /><path
         id="path72"
         style="fill:#f5f6f5;fill-opacity:1;fill-rule:nonzero;stroke:none"
         d="m 5369.02,5609.3 c 0,0 -44.36,-0.9 -60.95,-54.8 -16.59,-53.9 -23.23,-75.4 -44.3,-90.2 -21.06,-14.8 -233.72,-10 -233.72,-10 l -24.7,302.7 405.89,10.5 -1.96,-148.5 -40.26,-9.7" /><path
         id="path74"
         style="fill:#a45634;fill-opacity:1;fill-rule:nonzero;stroke:none"
         d="m 7067.48,11461.4 c 0,0 46.66,-410 138.89,-632.2 0,0 -215.53,196.4 -138.89,632.2" /><path
         id="path76"
         style="fill:#a45634;fill-opacity:1;fill-rule:nonzero;stroke:none"
         d="m 6894.38,11686 c 0,0 138.79,-65.7 234.3,81.9 0,0 -105.03,-73.9 -234.3,-81.9" /><path
         id="path78"
         style="fill:#c37140;fill-opacity:1;fill-rule:nonzero;stroke:none"
         d="m 7336.27,10422.1 c 0,0 31.34,-51.1 107.97,-86.2 76.64,-35.1 114.95,-60.7 169.23,-105.4 54.28,-44.7 108.56,-223.5 98.98,-242.6 -9.58,-19.2 -67.05,-25.6 -86.21,0 -19.16,25.5 -63.79,106.3 -63.79,106.3 l -468.67,-14.1 -74.76,281.7 317.25,60.3" /><path
         id="path80"
         style="fill:#c37140;fill-opacity:1;fill-rule:nonzero;stroke:none"
         d="m 7281.87,10026.2 c -9.19,-4.6 -75.5,-127.1 -75.5,-127.1 l -66.93,-2.1 30.82,-130.2 c 0,0 37.71,-37.6 72.82,-18.4 0,0 49.08,-66.4 93.19,-60.4 44.12,6.1 69.66,25.3 69.66,25.3 0,0 38.31,-34.5 98.98,-25.3 60.67,9.3 73.44,54 73.44,54 0,0 44.7,-4.7 63.86,24.8 19.16,29.5 0.66,240.6 -25.54,259.4 -26.21,18.7 -63.87,-19.2 -63.87,-19.2 0,0 -38.31,38.3 -70.24,-9.6 0,0 -72.89,63.9 -116.26,3.2 0,0 -32.87,51.1 -84.43,25.6" /><path
         id="path82"
         style="fill:#c37140;fill-opacity:1;fill-rule:nonzero;stroke:none"
         d="m 5311.34,13895.2 -102.17,-110.9 c 0,0 -306.52,-52.7 -407.1,-292.2 -100.58,-239.4 -52.69,-660.9 -52.69,-660.9 0,0 -38.32,-273 71.85,-570 110.15,-296.9 203.43,-454.9 203.43,-454.9 0,0 -64.54,-311.4 55.19,-661 119.74,-349.6 311.32,-569.9 349.63,-742.4 l 277.79,19.2 c 0,0 28.74,517.3 0,785.5 -28.73,268.2 -100.58,512.1 -100.58,512.1 0,0 0,364.3 -14.37,608.6 -14.37,244.3 -111.2,422.8 -111.2,422.8 0,0 119.4,218.4 17.12,577.6 -102.28,359.2 -186.9,566.5 -186.9,566.5" /><path
         id="path84"
         style="fill:#a45634;fill-opacity:1;fill-rule:nonzero;stroke:none"
         d="m 5338.48,12650.8 c 0,0 -52.68,-21.7 -47.89,-349.3 4.79,-327.6 86.21,-576.7 148.47,-662.9 0,0 -194.99,196.4 -210.05,546 -15.05,349.6 109.47,466.2 109.47,466.2" /><path
         id="path86"
         style="fill:#a45634;fill-opacity:1;fill-rule:nonzero;stroke:none"
         d="m 5333.41,11499.7 c 0,0 105.65,-301.7 48.18,-670.5 0,0 138.32,311.3 -48.18,670.5" /><path
         id="path88"
         style="fill:#c37140;fill-opacity:1;fill-rule:nonzero;stroke:none"
         d="m 5429.48,10402.9 c 0,0 28.74,-144.5 16.77,-206.3 -11.98,-61.9 -39.4,-167.3 -39.4,-167.3 h 60.95 v -186.5 c 0,0 6.38,-128.8 67.05,-156.3 60.67,-27.5 105.37,1.5 105.37,1.5 0,0 38.32,-13.7 79.82,-13.4 41.51,0.3 57.47,13.4 57.47,13.4 0,0 76.64,6.1 95.8,28.4 19.15,22.4 19.15,22.4 19.15,22.4 0,0 41.51,11.3 44.7,28 3.2,16.7 0,93.1 0,93.1 h 44.71 c 0,0 3.42,110.7 -63.74,184.8 -67.17,74.1 -159.77,198.6 -178.93,243.3 -19.16,44.7 -31.93,134.1 -31.93,134.1 l -204.35,105.4 -73.44,-124.6" /><path
         id="path90"
         style="fill:#a45634;fill-opacity:1;fill-rule:nonzero;stroke:none"
         d="m 5633.83,9961.2 c 0,0 60.37,10.2 73.44,-50 13.07,-60.2 -67.05,-223.2 -67.05,-223.2 l 31.05,-13.4 c 0,0 91.08,165.6 69.53,251.8 -21.56,86.2 -106.97,34.8 -106.97,34.8" /><path
         id="path92"
         style="fill:#a45634;fill-opacity:1;fill-rule:nonzero;stroke:none"
         d="m 5767.14,9976.4 c 0,0 38.08,2.8 47.89,-59.6 9.82,-62.4 -37.52,-228.8 -37.52,-228.8 l 38.86,5.5 c 0,0 39.37,153.9 27.4,228.1 -11.97,74.2 -76.63,54.8 -76.63,54.8" /><path
         id="path94"
         style="fill:#a45634;fill-opacity:1;fill-rule:nonzero;stroke:none"
         d="m 5872.5,9978.7 c 0,0 42.31,-68.3 19.96,-239.9 l 24.77,9.5 c 0,0 16.72,167.7 -44.73,230.4" /><path
         id="path96"
         style="fill:#a45634;fill-opacity:1;fill-rule:nonzero;stroke:none"
         d="m 5618.67,10019.8 c 0,0 -9.58,-71.9 -33.53,-107.8 -23.95,-35.9 -62.26,-86.5 -62.26,-86.5 0,0 118.49,98.7 131.08,135.7 12.6,37 8.06,38.4 17.51,76 9.46,37.7 23.83,131.1 -21.67,174.2 -45.5,43.1 -100.58,43.1 -100.58,43.1 0,0 66.25,-40.7 84.61,-86.2 18.36,-45.5 -15.16,-148.5 -15.16,-148.5" /><g
         id="g98"><g
           clip-path="url(#clipPath104)"
           id="g100"><path
             id="path106"
             style="fill:#cda28a;fill-opacity:1;fill-rule:nonzero;stroke:none"
             d="m 7300.57,10086.3 h 0.11 v 0 z" /></g></g><path
         id="path108"
         style="fill:#bc927b;fill-opacity:1;fill-rule:nonzero;stroke:none"
         d="m 7300.58,10086.3 c 0,0 0,0 -0.01,0 h 0.11 -0.1" /><path
         id="path110"
         style="fill:#b36239;fill-opacity:1;fill-rule:nonzero;stroke:none"
         d="m 7300.57,10086.3 c -0.33,0.4 -47.87,54.1 -38.33,110.3 0,0 92.6,-77.8 172.42,-103.4 l -133.98,-6.9 h -0.11" /><path
         id="path112"
         style="fill:#b36239;fill-opacity:1;fill-rule:nonzero;stroke:none"
         d="m 7270.52,9718.4 c 0,0 -0.02,0 -0.05,0 -0.02,0 -0.03,0.1 -0.03,0.1 0.06,-0.1 0.09,-0.1 0.08,-0.1" /><path
         id="path114"
         style="fill:#b36239;fill-opacity:1;fill-rule:nonzero;stroke:none"
         d="m 7270.44,9718.5 c -1.62,2 -27.36,29.9 -27.36,29.9 v 0 c 0,0 78.23,73.4 104.74,155.3 23.61,73 19.82,92.8 18.71,96.3 2.1,-5.6 17.4,-50.9 -0.23,-123.9 -18.71,-77.5 -95.89,-154.8 -95.86,-157.6 m 96.09,281.5 c -0.15,0.4 -0.23,0.6 -0.23,0.6 0,0 0.09,-0.2 0.23,-0.6" /><path
         id="path116"
         style="fill:#b36239;fill-opacity:1;fill-rule:nonzero;stroke:none"
         d="m 7429.02,9698.9 -23.09,14.4 v 0 c 0,0 23.94,57.4 51.08,146.2 27.15,88.8 25.55,137.9 25.55,137.9 0,0 25.54,-51.1 9.58,-130.9 -15.97,-79.8 -63.12,-167.6 -63.12,-167.6" /><path
         id="path118"
         style="fill:#cda28a;fill-opacity:1;fill-rule:nonzero;stroke:none"
         d="m 7610.28,9742 h -17.7 c 5.27,0.4 11.55,1.3 18,3.1 -0.18,-2 -0.3,-3.1 -0.3,-3.1" /><path
         id="path120"
         style="fill:#b36239;fill-opacity:1;fill-rule:nonzero;stroke:none"
         d="m 7592.58,9742 h -14.23 v 0 c 9.58,110.1 -25.55,265 -25.55,265 70.58,-86.7 59.91,-238.5 57.78,-261.9 -6.45,-1.8 -12.73,-2.7 -18,-3.1" /><path
         id="path122"
         style="fill:#a45634;fill-opacity:1;fill-rule:nonzero;stroke:none"
         d="m 5773.02,14556 c 0,0 172.66,-70.3 102.61,-89.3 -60,-16.3 -36.46,-38.6 -36.46,-38.6 0,0 77.89,-168.2 269.33,-246.9 122.87,-50.5 194.04,-39.1 194.04,-39.1 0,0 -12.63,346.7 25.08,428.7 37.72,82 -329.73,-75 -359.59,-37.8 -29.85,37.2 -195.01,23 -195.01,23" /><path
         id="path124"
         style="fill:#2f1d16;fill-opacity:1;fill-rule:nonzero;stroke:none"
         d="m 6462.77,15511.2 c -11.85,21.8 1.4,62.1 -37.16,95.7 -38.56,33.7 -83.78,41.4 -83.78,41.4 0,0 -39.55,37.3 -86.75,41.2 -47.2,3.8 -88.29,-3.2 -88.29,-3.2 0,0 -36.79,17.3 -97.33,15 -60.54,-2.3 -112.3,-35.5 -135.98,-39.9 -23.69,-4.4 -71.45,-8.2 -98.71,-15.4 -27.25,-7.2 -79.41,-35.4 -87.71,-42.4 -8.3,-7 -55.9,-6.4 -108.31,-32.4 -52.4,-26.1 -82.79,-94 -82.79,-94 0,0 -36,-24.4 -49.33,-31.8 l -0.44,-0.3 c -0.78,-0.5 -2.66,-1.9 -5.39,-4.2 -8.81,-8.3 -21.41,-24.9 -34.69,-43.5 -25.41,-43.1 -52.92,-120 -50.28,-250 4.82,-237.3 38.5,-468 222.58,-633.3 l 142.12,276.2 709.33,502.1 c 0,0 7.53,37.5 0.86,57.8 -6.67,20.3 9.95,55.3 5.83,95.3 -4.12,40 -21.93,43.8 -33.78,65.7" /><path
         id="path126"
         style="fill:#c37140;fill-opacity:1;fill-rule:nonzero;stroke:none"
         d="m 6436.74,15357.7 c 0,0 42.72,-46.6 53.12,-65.3 10.39,-18.8 32.49,-195.4 39.33,-239.9 6.85,-44.6 0.62,-106.4 2.53,-128.1 1.91,-21.7 16.52,-154.4 15.32,-207 -1.21,-52.6 -41.22,-260.1 -55.32,-315.3 -14.09,-55.2 -35.32,-128.4 -60.08,-145.2 -24.76,-16.7 -138.5,-32.6 -242.4,-11.1 -103.9,21.4 -313.87,138.5 -373.61,204.6 -59.75,66.2 -65.51,214.3 -65.51,214.3 0,0 -40.92,-15.3 -88.12,24.3 -47.21,39.6 -124.9,127.5 -119.6,232.9 5.3,105.4 88.14,74.8 132.33,36.4 44.18,-38.4 51.23,-101.9 60.03,-102.6 8.8,-0.6 17.23,3 21.44,4.8 4.21,1.9 15.04,110.7 14.57,132.5 -0.46,21.8 -16.26,151.6 -13.75,156.2 2.51,4.6 98.8,144.2 132.36,160.3 33.56,16 547.36,48.2 547.36,48.2" /><path
         id="path128"
         style="fill:#2f1d16;fill-opacity:1;fill-rule:nonzero;stroke:none"
         d="m 5756.2,14860.5 c 0,0 19.65,77.5 28.93,120 9.28,42.5 -6.42,96.9 4.19,106.6 10.62,9.7 29.99,36.5 24.98,67.7 -5,31.3 -5,31.3 -5,31.3 0,0 -3.46,27.5 38.08,46 41.55,18.5 56.31,71.5 56.31,71.5 0,0 108.2,7.3 149.59,11.9 41.38,4.5 130.63,11.6 179.75,14.3 49.13,2.6 195.24,10.4 200.37,9.5 5.13,-0.8 56.46,-46.9 56.46,-46.9 0,0 -6.86,91.4 -18.37,93 -11.51,1.6 -4.25,37.6 -160.72,32.7 -156.47,-4.8 -255.6,32.9 -378.36,-30 -122.78,-62.9 -143.73,-38 -186.61,-103.3 -42.88,-65.4 -80.9,-176 -64.94,-217.7 15.96,-41.7 75.34,-206.6 75.34,-206.6" /><g
         transform="scale(1.20088)"
         id="g130"><path
           id="path132"
           style="fill:#dfdfdd;fill-opacity:1;fill-rule:nonzero;stroke:none"
           d="m 15350.8,10998.3 h 857.5 c 0,0 91.7,-110.1 0,-213.7 h -857.5 v 213.7" /></g><g
         transform="scale(1.13602)"
         id="g134"><path
           id="path136"
           style="fill:#373737;fill-opacity:1;fill-rule:nonzero;stroke:none"
           d="m 15902.7,12378.3 h -256.5 v -89.1 -113.6 c -86,-157 -140.6,-391.2 -140.6,-653.1 0,-261.9 54.6,-496.2 140.6,-653.2 v -202.7 h 256.5 c 219.4,0 397.3,383.2 397.3,855.9 0,472.6 -177.9,855.8 -397.3,855.8" /></g><g
         transform="scale(1.11814)"
         id="g138"><path
           id="path140"
           style="fill:#494a4b;fill-opacity:1;fill-rule:nonzero;stroke:none"
           d="m 16300,11706.8 c 0,-480.3 -180.7,-869.6 -403.5,-869.6 -222.9,0 -403.6,389.3 -403.6,869.6 0,480.2 180.7,869.5 403.6,869.5 222.8,0 403.5,-389.3 403.5,-869.5" /></g><g
         transform="scale(1.10108)"
         id="g142"><path
           id="path144"
           style="fill:#797a7b;fill-opacity:1;fill-rule:nonzero;stroke:none"
           d="m 16300,11891.7 c 0,-109.5 -65.2,-198.3 -145.8,-198.3 -80.4,0 -145.7,88.8 -145.7,198.3 0,109.5 65.3,198.3 145.7,198.3 80.6,0 145.8,-88.8 145.8,-198.3" /></g><path
         id="path146"
         style="fill:#c37140;fill-opacity:1;fill-rule:nonzero;stroke:none"
         d="m 13453.4,13841.8 -127.7,53.4 -185.2,-98.1 c 0,0 -338.5,-83.1 -459.8,-281 -121.3,-198 -83,-530 -89.4,-555.6 -6.4,-25.5 -53,-338.4 -1,-619.4 52.1,-281 52.1,-613.1 77.6,-664.2 25.6,-51.1 70.3,-89.4 146.9,-166 76.6,-76.6 210.7,-108.6 300.1,-44.7 89.4,63.9 338.5,408.7 338.5,408.7 0,0 338.5,906.8 325.7,977 -12.8,70.3 -325.7,989.9 -325.7,989.9" /><path
         id="path148"
         style="fill:#b55f39;fill-opacity:1;fill-rule:nonzero;stroke:none"
         d="m 15587.1,13269.4 c 2.4,9.6 24.4,37.3 19.7,47 -4.7,9.6 1.8,170.9 45,175.7 43.1,4.8 55,-69.4 100.5,-122.1 45.5,-52.7 72.2,-180.3 72.2,-180.3 l -139.2,-64 -98.2,66.4 v 77.3" /><path
         id="path150"
         style="fill:#e9eef1;fill-opacity:1;fill-rule:nonzero;stroke:none"
         d="m 13446.3,13492.4 c 0,0 -40,-758 -209.5,-1092 l 88.9,-282.8 c 0,0 300.8,102.4 266.9,288.2 -33.9,185.8 -146.3,1086.6 -146.3,1086.6" /><path
         id="path152"
         style="fill:#a45634;fill-opacity:1;fill-rule:nonzero;stroke:none"
         d="m 13446.3,13492.4 c 0,0 -6.3,-170 -120.6,-318 -114.3,-148 -221.6,-109.6 -221.6,-109.6 l 371.7,1.1 48.1,233.7 -77.6,192.8" /><path
         id="path154"
         style="fill:#e9eef1;fill-opacity:1;fill-rule:nonzero;stroke:none"
         d="m 13325.7,13895.2 c 0,0 166.4,-326.7 127.7,-688.1 -38.7,-361.4 70.5,-513.9 70.5,-513.9 l 101.9,689.1 c 0,0 -33.2,64.8 -58.6,149.5 -25.4,84.7 -241.5,363.4 -241.5,363.4" /><path
         id="path156"
         style="fill:#c37140;fill-opacity:1;fill-rule:nonzero;stroke:none"
         d="m 14609.2,13803.4 108.6,-43.1 c 0,0 311.3,-67 431.1,-182 119.7,-114.9 182,-269.8 182,-269.8 l 220.3,-644.8 c 0,0 47.9,-516.3 0,-732.4 -47.9,-216.1 -277.8,-499.8 -378.4,-499.2 -100.6,0.6 -325.7,340.6 -325.7,340.6 l -327.9,1125.5 90,905.2" /><path
         id="path158"
         style="fill:#c37140;fill-opacity:1;fill-rule:nonzero;stroke:none"
         d="m 13099,8602.1 v -766.3 c 0,0 -249.1,-517.3 -268.2,-775.9 -19.2,-258.6 67,-728 134.1,-1044.1 67,-316.1 67,-316.1 67,-316.1 l 393.7,67.8 c 0,0 8.6,328.1 123.6,673 114.9,344.8 114.9,996.2 114.9,996.2 0,0 76.7,114.9 102.2,242.6 25.6,127.8 191.6,562 198,651.4 6.4,89.4 -613.1,159.7 -613.1,159.7 l -252.2,111.7" /><path
         id="path160"
         style="fill:#a45634;fill-opacity:1;fill-rule:nonzero;stroke:none"
         d="m 15313.8,13345.9 c 0,0 -93.1,-86.1 -100.3,-174.7 -7.2,-88.6 75.8,-74.2 75.8,-64.6 0,9.6 54.8,163.2 54.8,163.2 l -30.3,76.1" /><path
         id="path162"
         style="fill:#a45634;fill-opacity:1;fill-rule:nonzero;stroke:none"
         d="m 13332.1,7150.9 c 0,0 -38.3,-499.7 -166.1,-825.4 0,0 268.2,322.5 166.1,825.4" /><path
         id="path164"
         style="fill:#a45634;fill-opacity:1;fill-rule:nonzero;stroke:none"
         d="m 13355.3,7609.1 c 0,0 136.4,-261.8 308.8,-172.4 v -115 c 0,0 -260.1,-83 -308.8,287.4" /><path
         id="path166"
         style="fill:#c37140;fill-opacity:1;fill-rule:nonzero;stroke:none"
         d="m 14302.7,8369 c 0,0 166.1,-402.3 166.1,-466.1 0,-63.9 -172.5,-504.5 -127.8,-862.2 44.7,-357.6 242.7,-600.2 293.8,-798.2 51.1,-198 63.9,-459.8 63.9,-459.8 l 370.3,31.9 c 0,0 25.6,510.9 76.7,772.7 51.1,261.9 -51.1,1175.1 -51.1,1175.1 0,0 86.1,542.8 65.4,715.2 -20.7,172.4 -857.3,-108.6 -857.3,-108.6" /><path
         id="path168"
         style="fill:#a45634;fill-opacity:1;fill-rule:nonzero;stroke:none"
         d="m 14800.8,7666.6 c 0,0 198,-38.3 293.8,95.8 l 10.6,-100.9 c 0,0 -131.9,-116.3 -304.4,5.1" /><path
         id="path170"
         style="fill:#a45634;fill-opacity:1;fill-rule:nonzero;stroke:none"
         d="m 14800.8,7372.8 c -16.9,27.1 153.3,-478.9 0,-964.3 0,0 332.1,434.3 0,964.3" /><path
         id="path172"
         style="fill:#252323;fill-opacity:1;fill-rule:nonzero;stroke:none"
         d="m 13140.5,10891.5 c 0,0 -89.4,-182 -156.5,-862.1 -67,-680.1 0,-1762.6 0,-1762.6 0,0 431.1,-95.7 574.8,-76.6 143.7,19.2 496.1,57.5 496.1,57.5 l 78.6,574.7 105.4,-555.6 c 0,0 373.5,47.9 536.4,38.4 162.8,-9.6 507.7,28.7 507.7,28.7 0,0 57.4,718.4 -67.1,1293.2 -124.5,574.7 -312.9,1187.7 -312.9,1187.7 l -1459.2,373.6 -303.3,-296.9" /><path
         id="path174"
         style="fill:#e9eef1;fill-opacity:1;fill-rule:nonzero;stroke:none"
         d="m 13986.3,13809.8 -532.9,170.9 -127.7,-85.5 c 0,0 226.7,-476.9 213.9,-853.6 -12.8,-376.8 -290.5,-1019.8 -290.5,-1019.8 0,0 44.7,-728 0,-823.8 -44.8,-95.8 -108.6,-306.5 -108.6,-306.5 0,0 651.4,-287.4 1104.8,-268.2 453.3,19.1 657.7,191.5 657.7,191.5 0,0 25.5,689.7 0,951.5 -25.5,261.9 -57.5,696.1 -57.5,696.1 0,0 102.2,178.8 121.4,421.5 19.1,242.6 -83.1,498.1 -115,530 -31.9,31.9 -210.7,146.9 -242.7,389.5 l -126.4,95.8 -496.5,-89.4" /><path
         id="path176"
         style="fill:#c37140;fill-opacity:1;fill-rule:nonzero;stroke:none"
         d="m 13652.8,14514.1 c 0,0 -22.2,-319.3 -55.7,-392.8 -33.5,-73.6 -143.7,-140.6 -143.7,-140.6 0,0 263.4,-402.4 359.2,-579.6 95.8,-177.2 290.8,-368.8 507,-359.2 216.2,9.6 202.5,402.3 197.4,526.9 -5.1,124.5 -34.2,330.4 -34.2,330.4 l -163.2,105.4 -4.1,125.5 c 0,0 -498.1,614.9 -517.3,639.8 -19.1,25 -238.6,1.7 -237.7,0 1,-1.7 92.3,-255.8 92.3,-255.8" /><path
         id="path178"
         style="fill:#a45634;fill-opacity:1;fill-rule:nonzero;stroke:none"
         d="m 13299.9,13025.8 c 0,0 53.1,-363.5 94.3,-410.1 41.2,-46.7 10.1,410.1 10.1,410.1 h -104.4" /><path
         id="path180"
         style="fill:#b05c36;fill-opacity:1;fill-rule:nonzero;stroke:none"
         d="m 13394.2,13207.6 c -10.1,-21.5 78.4,160.5 129.4,178.6 51.1,18.1 102.2,-3.9 102.2,-3.9 l -9.6,-176.5 -222,1.8" /><path
         id="path182"
         style="fill:#a45634;fill-opacity:1;fill-rule:nonzero;stroke:none"
         d="m 13394.2,12615.7 -405.4,-229.9 c 0,0 -9.6,187 0,277.9 9.6,90.9 110.2,205.8 110.2,205.8 0,0 -129.3,-86 -177.2,-205.8 -47.9,-119.9 0,-340.2 0,-340.2 0,0 -150,-182.4 -169,-341.4 -18.9,-159.1 446.8,106.7 446.8,106.7 l 194.6,526.9" /><g
         transform="scale(1.09373)"
         id="g184"><path
           id="path186"
           style="fill:#dfdfdd;fill-opacity:1;fill-rule:nonzero;stroke:none"
           d="M 10251.1,11923.9 16189,11879 c 0,0 111,75.9 0,163.5 l -5937.9,58.4 v -177" /></g><path
         id="path188"
         style="fill:#cdd0d1;fill-opacity:1;fill-rule:nonzero;stroke:none"
         d="m 13752.9,12590.1 c 19.8,0 185,-22.3 302,0 116.9,22.4 184,60.7 184,60.7 0,0 -64.7,-105.4 -184,-127.7 -119.4,-22.4 -363.9,16.6 -363.9,16.6 l 61.9,50.4" /><path
         id="path190"
         style="fill:#a45634;fill-opacity:1;fill-rule:nonzero;stroke:none"
         d="m 15196.7,13011.4 c 0,0 -38.3,-70.1 -35.1,-98.8 3.2,-28.7 51.1,-150.1 47.9,-204.3 -3.2,-54.3 0.2,-70.3 0.2,-70.3 l -163.9,153.3 c 0,0 93.5,-182.6 99.9,-207.8 6.4,-25.3 -162.9,-172.2 -198,-360.6 -35.1,-188.4 21.5,-311.3 21.5,-311.3 0,0 202,247.5 224.4,295.4 22.3,47.9 140.5,123.4 146.8,309.1 6.4,185.8 73.2,153.8 35,240.1 -38.2,86.2 -86.1,254.5 -86.1,254.5 l -92.6,0.7" /><path
         id="path192"
         style="fill:#cdd0d1;fill-opacity:1;fill-rule:nonzero;stroke:none"
         d="m 14360.2,12625.2 c 0,0 153.3,-89.4 281,-92.6 127.7,-3.2 246,19.1 246,19.1 l -41.7,-89.3 c 0,0 -332,-60.7 -485.3,162.8" /><path
         id="path194"
         style="fill:#a45634;fill-opacity:1;fill-rule:nonzero;stroke:none"
         d="m 13691,13607.3 c 0,0 150.3,42.9 197.4,39.7 47.1,-3.2 139.9,-39.7 139.9,-39.7 0,0 -60.9,68.4 -110.4,90.8 -49.4,22.3 -255,-45.4 -255,-45.4 l 28.1,-45.4" /><path
         id="path196"
         style="fill:#a45634;fill-opacity:1;fill-rule:nonzero;stroke:none"
         d="m 14514.8,13607.3 c 0,0 -181.5,23.7 -195.2,20.5 -13.7,-3.2 -80.7,-20.5 -80.7,-20.5 0,0 30.5,78 80.7,81.2 50.2,3.2 195.2,-33.5 195.2,-33.5 v -47.7" /><path
         id="path198"
         style="fill:#c37140;fill-opacity:1;fill-rule:nonzero;stroke:none"
         d="m 14969.2,11911.6 c -2.3,33.5 -21.6,249.1 76.6,368.8 98.3,119.7 189.3,266.1 198.8,303.1 9.6,36.9 24,147.1 24,147.1 0,0 -43.1,140.5 -36.7,175.6 6.4,35.1 57.4,104.5 57.4,104.5 v 184.3 c 0,0 22.4,119.1 72.7,113.5 0,0 16.8,63.9 52.7,54.3 35.9,-9.6 50.3,-21.5 50.3,-21.5 0,0 16.7,57.4 45.5,59.8 28.7,2.4 55,-14.9 55,-14.9 0,0 45.5,25 79.1,15.2 33.5,-9.8 167.6,-288.7 179.6,-394.7 12,-106.1 -273,-343 -273,-343 0,0 -67.1,-705.8 -83,-724.9 -16,-19.2 -140.5,-146.9 -236.3,-182 -95.8,-35.2 -262.7,154.8 -262.7,154.8" /><path
         id="path200"
         style="fill:#a45634;fill-opacity:1;fill-rule:nonzero;stroke:none"
         d="m 15423.5,12500.7 c 0,0 -63.9,-226.7 -73.5,-517.3 0,0 -84.7,328.1 73.5,517.3" /><path
         id="path202"
         style="fill:#b36239;fill-opacity:1;fill-rule:nonzero;stroke:none"
         d="m 15412.3,13011.4 c 0,0 1.8,53.5 -16.9,157.5 -18.8,103.9 -33.4,139.6 -33.4,139.6 l 25.1,46.5 c 58.7,-194.6 25.2,-343.6 25.2,-343.6" /><path
         id="path204"
         style="fill:#b36239;fill-opacity:1;fill-rule:nonzero;stroke:none"
         d="m 15560.7,13041.6 c -16.7,184 -95.7,299.7 -95.7,299.7 l 19.3,41 c 120,-184 76.4,-340.7 76.4,-340.7" /><path
         id="path206"
         style="fill:#b36239;fill-opacity:1;fill-rule:nonzero;stroke:none"
         d="m 15682.9,13065.9 c -43.1,234 -117.4,320.3 -117.4,320.3 l 38.5,14.5 c 103.1,-168.1 78.9,-334.8 78.9,-334.8" /><path
         id="path208"
         style="fill:#100f0d;fill-opacity:1;fill-rule:nonzero;stroke:none"
         d="m 13846.1,10288 c 9.6,-38.3 197.2,-335.3 208.8,-469.4 11.5,-134.1 78.6,-996.2 78.6,-996.2 l 105.4,-555.6 200.8,22.2 -239.1,1567.9 159.6,239.5 -235,-47.9 -279.1,239.5" /><path
         id="path210"
         style="fill:#252323;fill-opacity:1;fill-rule:nonzero;stroke:none"
         d="m 14616.6,5571.8 c 0,0 -116.3,-529.2 -35.2,-595.9 81,-66.7 311.1,-14.9 432.5,-73.7 121.4,-58.8 666.6,-126.4 853.9,66.2 187.3,192.5 -559.3,514.1 -605.8,564.6 -46.6,50.5 -96,150.8 -132.3,198.8 -36.3,47.9 -169.2,58.6 -169.2,58.6 0,0 -67.8,105.9 -134.8,47 -66.9,-59 -209.1,-265.6 -209.1,-265.6" /><path
         id="path212"
         style="fill:#f5f6f5;fill-opacity:1;fill-rule:nonzero;stroke:none"
         d="m 14942.3,5791.7 c 0,0 -51,-8.4 -58.7,-41.3 -7.7,-33 -18.6,-98.6 -30.4,-131.8 -11.8,-33.3 -159.5,-24.8 -159.5,-24.8 l -9.3,342.3 392.9,11.8 5.1,-196.6 c 0,0 -19.1,26.6 -140.1,40.4" /><path
         id="path214"
         style="fill:#252323;fill-opacity:1;fill-rule:nonzero;stroke:none"
         d="m 13041.1,5438.2 -49.6,-107.6 c 0,0 -48,-568.9 -30.1,-634 17.9,-65.1 209.4,-291.1 392.8,-357.7 183.5,-66.7 539.7,26.2 558.5,131.7 18.8,105.6 -328.3,649.5 -366.2,753.7 -37.9,104.1 -7.8,335 -53.3,371.1 -45.5,36.1 -105.5,18.8 -105.5,18.8 l -351.4,88.6 4.8,-264.6" /><path
         id="path216"
         style="fill:#f5f6f5;fill-opacity:1;fill-rule:nonzero;stroke:none"
         d="m 13383.4,5609.3 c 0,0 -44.4,-0.9 -61,-54.8 -16.6,-53.9 -23.2,-75.4 -44.3,-90.2 -21,-14.8 -233.7,-10 -233.7,-10 l -24.7,302.7 405.9,10.5 -2,-148.5 -40.2,-9.7" /><path
         id="path218"
         style="fill:#c37140;fill-opacity:1;fill-rule:nonzero;stroke:none"
         d="m 13394.2,12615.7 c 0,0 -368.7,-332.1 -464.4,-402.4 -95.8,-70.2 -191.6,-236.2 -204.4,-306.5 -12.8,-70.2 89.4,-413.1 249.1,-474.7 159.6,-61.7 402.3,315.1 478.9,532.2 76.6,217.1 215.5,435.8 258.6,493.3 43.1,57.5 105.4,158.1 105.4,158.1 0,0 231.5,285 258.6,383.1 27.2,98.1 -19.1,255.5 -44.7,281 -25.5,25.5 -45,28.7 -45,28.7 0,0 -28.4,54.3 -69.9,54.3 -41.5,0 -57.5,0 -57.5,0 0,0 -31.2,16 -79.5,19.2 -48.2,3.2 -73.8,-22.4 -73.8,-22.4 0,0 -28.7,38.9 -79.8,22.6 -51.1,-16.2 -61.1,-62.4 -54.5,-102.4 6.5,-40.1 -15.7,-221 -31.7,-238.2 -16,-17.2 -184.4,-16.2 -184.4,-16.2 0,0 -10.4,-103.2 5.6,-215 16,-111.7 33.4,-194.7 33.4,-194.7" /><path
         id="path220"
         style="fill:#b36239;fill-opacity:1;fill-rule:nonzero;stroke:none"
         d="m 13713.5,13064.8 c 11.1,142.6 -7.9,294.8 -7.9,294.8 l 41.7,20.2 c 23.3,-145.9 -33.8,-315 -33.8,-315" /><path
         id="path222"
         style="fill:#b36239;fill-opacity:1;fill-rule:nonzero;stroke:none"
         d="m 13858.9,13085 c 17.6,141.3 0,277.8 0,277.8 h 57.5 c 12.8,-138.9 -57.5,-277.8 -57.5,-277.8" /><path
         id="path224"
         style="fill:#b36239;fill-opacity:1;fill-rule:nonzero;stroke:none"
         d="m 13997,13106.6 c 2.4,88.6 -10.7,201.9 -10.7,201.9 l 45,-28.7 c 8,-111.8 -34.3,-173.2 -34.3,-173.2" /><path
         id="path226"
         style="fill:#373737;fill-opacity:1;fill-rule:nonzero;stroke:none"
         d="m 10893.7,14231.3 h -266.1 V 13981 c -89.2,-193.9 -145.8,-483.2 -145.8,-806.6 0,-323.4 56.6,-612.7 145.8,-806.5 v -250.3 h 266.1 c 227.5,0 411.9,473.1 411.9,1056.8 0,583.7 -184.4,1056.9 -411.9,1056.9" /><path
         id="path228"
         style="fill:#494a4b;fill-opacity:1;fill-rule:nonzero;stroke:none"
         d="m 11039.5,13174.4 c 0,-583.7 -184.4,-1056.8 -411.9,-1056.8 -227.5,0 -411.9,473.1 -411.9,1056.8 0,583.7 184.4,1056.9 411.9,1056.9 227.5,0 411.9,-473.2 411.9,-1056.9" /><path
         id="path230"
         style="fill:#797a7b;fill-opacity:1;fill-rule:nonzero;stroke:none"
         d="m 10785.7,13178.7 c 0,-131.1 -65.6,-237.4 -146.5,-237.4 -81,0 -146.6,106.3 -146.6,237.4 0,131.1 65.6,237.3 146.6,237.3 80.9,0 146.5,-106.2 146.5,-237.3" /><path
         id="path232"
         style="fill:#dfdfdd;fill-opacity:1;fill-rule:nonzero;stroke:none"
         d="m 8611.27,13271.8 c 0,0 -67.05,-134.1 0,-229.9 h 2016.33 c 0,0 77.3,134.3 0,229.9 H 8611.27" /><path
         id="path234"
         style="fill:#a45634;fill-opacity:1;fill-rule:nonzero;stroke:none"
         d="m 13784.5,14536.3 c 0,0 172.7,-70.3 102.6,-89.3 -60,-16.3 -36.4,-38.6 -36.4,-38.6 0,0 77.9,-168.2 269.3,-246.9 122.9,-50.5 194,-39.1 194,-39.1 0,0 -12.6,346.6 25.1,428.6 37.7,82 -329.7,-74.9 -359.6,-37.7 -29.8,37.1 -195,23 -195,23" /><path
         id="path236"
         style="fill:#2f1d16;fill-opacity:1;fill-rule:nonzero;stroke:none"
         d="m 14474.3,15491.4 c -11.9,21.9 1.4,62.1 -37.2,95.8 -38.5,33.7 -83.8,41.4 -83.8,41.4 0,0 -39.5,37.3 -86.7,41.2 -47.2,3.8 -88.3,-3.2 -88.3,-3.2 0,0 -36.8,17.3 -97.3,15 -60.6,-2.3 -112.3,-35.5 -136,-39.9 -23.7,-4.4 -71.5,-8.2 -98.7,-15.4 -27.3,-7.2 -79.4,-35.4 -87.7,-42.4 -8.3,-7 -55.9,-6.4 -108.3,-32.5 -52.4,-26 -82.8,-94 -82.8,-94 0,0 -36,-24.3 -49.4,-31.7 l -0.4,-0.3 c -0.8,-0.6 -2.7,-1.9 -5.4,-4.3 -8.8,-8.2 -21.4,-24.8 -34.7,-43.4 -25.4,-43.1 -52.9,-120 -50.3,-250 4.9,-237.3 38.5,-468.1 222.6,-633.3 l 142.1,276.2 709.4,502.1 c 0,0 7.5,37.5 0.8,57.8 -6.6,20.3 10,55.3 5.9,95.3 -4.2,40 -22,43.8 -33.8,65.6" /><path
         id="path238"
         style="fill:#c37140;fill-opacity:1;fill-rule:nonzero;stroke:none"
         d="m 14448.3,15337.9 c 0,0 42.7,-46.5 53.1,-65.2 10.4,-18.8 32.5,-195.4 39.3,-240 6.8,-44.5 0.6,-106.3 2.5,-128 1.9,-21.7 16.5,-154.5 15.3,-207 -1.2,-52.6 -41.2,-260.2 -55.3,-315.3 -14.1,-55.2 -35.3,-128.5 -60.1,-145.2 -24.7,-16.8 -138.5,-32.6 -242.3,-11.2 -104,21.5 -313.9,138.6 -373.7,204.7 -59.7,66.2 -65.5,214.3 -65.5,214.3 0,0 -40.9,-15.3 -88.1,24.3 -47.2,39.6 -124.9,127.5 -119.6,232.8 5.3,105.4 88.2,74.8 132.3,36.5 44.2,-38.4 51.3,-101.9 60.1,-102.6 8.8,-0.7 17.2,3 21.4,4.8 4.2,1.8 15,110.6 14.6,132.5 -0.5,21.8 -16.3,151.6 -13.8,156.1 2.5,4.6 98.8,144.3 132.4,160.3 33.5,16.1 547.4,48.2 547.4,48.2" /><path
         id="path240"
         style="fill:#2f1d16;fill-opacity:1;fill-rule:nonzero;stroke:none"
         d="m 13767.7,14840.8 c 0,0 19.7,77.5 28.9,120 9.3,42.5 -6.4,96.9 4.2,106.6 10.6,9.7 30,36.5 25,67.7 -5,31.3 -5,31.3 -5,31.3 0,0 -3.4,27.5 38.1,46 41.5,18.5 56.3,71.5 56.3,71.5 0,0 108.2,7.3 149.6,11.9 41.4,4.5 130.6,11.6 179.7,14.2 49.2,2.7 195.3,10.5 200.4,9.6 5.1,-0.8 56.5,-46.9 56.5,-46.9 0,0 -6.9,91.3 -18.4,92.9 -11.5,1.7 -4.2,37.7 -160.7,32.8 -156.5,-4.8 -255.6,32.9 -378.4,-30 -122.8,-62.9 -143.7,-38 -186.6,-103.4 -42.9,-65.3 -80.9,-175.9 -64.9,-217.6 15.9,-41.8 75.3,-206.6 75.3,-206.6" /></g></g></svg>