<?xml version="1.0" encoding="UTF-8" standalone="no"?>
<svg
   xmlns:dc="http://purl.org/dc/elements/1.1/"
   xmlns:cc="http://creativecommons.org/ns#"
   xmlns:rdf="http://www.w3.org/1999/02/22-rdf-syntax-ns#"
   xmlns:svg="http://www.w3.org/2000/svg"
   xmlns="http://www.w3.org/2000/svg"
   viewBox="0 0 2666.6667 2666.6667"
   height="2666.6667"
   width="2666.6667"
   xml:space="preserve"
   id="svg2"
   version="1.1"><metadata
     id="metadata8"><rdf:RDF><cc:Work
         rdf:about=""><dc:format>image/svg+xml</dc:format><dc:type
           rdf:resource="http://purl.org/dc/dcmitype/StillImage" /></cc:Work></rdf:RDF></metadata><defs
     id="defs6"><clipPath
       id="clipPath112"
       clipPathUnits="userSpaceOnUse"><path
         id="path110"
         d="m 14195,11097 c 0,0 82.3,210.7 92.1,404.8 9.9,194.2 -75.7,375.2 -75.7,375.2 0,0 154.7,-82.3 151.4,-365.3 -3.3,-283 -167.8,-414.7 -167.8,-414.7" /></clipPath></defs><g
     transform="matrix(1.3333333,0,0,-1.3333333,0,2666.6667)"
     id="g10"><g
       transform="scale(0.1)"
       id="g12"><g
         transform="scale(1.22699)"
         id="g14"><path
           id="path16"
           style="fill:none;fill-opacity:1;fill-rule:nonzero;stroke:none"
           d="M 16300,0 H 0 V 16300 H 16300 V 0" /></g><path
         id="path18"
         style="fill:#5b5f5f;fill-opacity:1;fill-rule:nonzero;stroke:none"
         d="m 4960.64,15438.2 c 201.54,267 435.38,154.5 435.38,154.5 l 0.06,-0.1 c 159.12,-41 309.26,-231.1 364.12,-482.9 34.05,-156.3 24.95,-306.7 -17.28,-423.4 -8.26,-28.6 -20.4,-55.5 -37.3,-80.1 h -0.01 c -24.24,-41.1 -53.89,-75 -88.1,-99.9 -173.56,-150.6 -360.32,-78 -360.32,-78 l -83.92,227.4 c -41.45,60 -76.57,131.4 -101.98,211 -86.61,103.1 -268.32,362.7 -110.65,571.5" /><path
         id="path20"
         style="fill:#8d8d8d;fill-opacity:1;fill-rule:nonzero;stroke:none"
         d="m 4891.44,14911.8 c 68.01,-312.2 282.39,-529.6 478.84,-485.7 196.45,44 300.57,332.6 232.56,644.8 -68.01,312.1 -282.4,529.5 -478.85,485.6 -196.45,-43.9 -300.57,-332.6 -232.55,-644.7" /><path
         id="path22"
         style="fill:#494a4b;fill-opacity:1;fill-rule:nonzero;stroke:none"
         d="m 5361.83,10256.9 -391.46,279.2 98.05,125.6 360.05,-323.5 -66.64,-81.3 m -655.31,467.3 -317.19,226.3 165.38,172.7 281.41,-252.8 -129.6,-146.2 m -1413.1,907.5 704.29,343.9 707.56,-289.7 -582.51,-498.5 -829.34,444.3 m -700.99,641.7 779.98,-42.1 -562.77,-286.6 -217.21,328.7 M 6995.82,8916.6 c 0,0 -49.36,315.9 -78.98,385.1 -29.62,69.1 -246.82,276.4 -246.82,276.4 l 148.09,133.1 -19.74,212.5 -157.97,78.9 -49.37,194.8 c 0,0 296.19,22.4 276.44,289 -19.74,266.6 -2658.16,1885.8 -2658.16,1885.8 0,0 -1127.93,485.9 -1216.88,463.5 -88.96,-22.4 -345.7,-88.3 -345.7,-88.3 l -646.68,-256.7 325.81,-868.9 -1149.89,-434.4 53.98,-236.9 177.71,-49.4 1382.23,543 3218.62,-1885.8 49.37,-651.6 750.36,-503.5 434.41,355.4 -246.83,158" /><path
         id="path24"
         style="fill:#c37140;fill-opacity:1;fill-rule:nonzero;stroke:none"
         d="m 4978.43,13685.3 c 0,9.9 82.27,204 88.85,276.5 6.59,72.3 -16.45,539.7 -16.45,539.7 0,0 -102.02,88.8 -105.31,121.7 -3.29,33 3.51,113 3.51,113 l 148.28,59.7 127.94,41.3 c 0,0 59.24,-128.4 59.24,-167.9 0,-39.5 0,-92.1 0,-92.1 0,0 180.8,-516.7 248.36,-740.5 67.58,-223.8 28.09,-487.1 28.09,-487.1 0,0 -345.56,-92.1 -450.87,26.3 -105.31,118.5 -131.64,309.4 -131.64,309.4" /><path
         id="path26"
         style="fill:#797a7b;fill-opacity:1;fill-rule:nonzero;stroke:none"
         d="m 2646.73,12747.4 c 0,0 4220.75,-2428.8 4368.84,-2409.1 148.1,19.8 760.23,434.4 760.23,434.4 0,0 88.86,128.4 0,237 -88.86,108.6 -2873.07,1619.2 -2873.07,1619.2 0,0 -809.59,404.8 -987.31,404.8 -177.71,0 -1268.69,-286.3 -1268.69,-286.3" /><path
         id="path28"
         style="fill:#c37140;fill-opacity:1;fill-rule:nonzero;stroke:none"
         d="m 4902.73,11412 c 59.24,-59.2 167.85,-402.3 167.85,-402.3 l 513.39,-397.4 c 0,0 -192.52,-599.8 -103.66,-970 88.86,-370.3 199.93,-747.9 229.55,-970.1 29.62,-222.1 29.62,-222.1 29.62,-222.1 l 444.28,29.6 c 0,0 -44.42,318.4 29.62,718.3 74.05,399.8 88.86,977.4 96.27,1058.9 7.4,81.4 162.9,350.5 140.69,752.8 -22.21,402.3 -441.82,789.8 -441.82,789.8 0,0 -587.45,182.7 -654.1,138.3 -66.64,-44.5 -451.69,-525.8 -451.69,-525.8" /><path
         id="path30"
         style="fill:#c37140;fill-opacity:1;fill-rule:nonzero;stroke:none"
         d="m 7173.54,11671.2 c 76.52,0 787.38,-185.1 787.38,-185.1 0,0 -44.43,-311 0,-636.8 44.43,-325.9 118.47,-355.9 148.09,-651.9 29.62,-296 0,-486.2 0,-486.2 l 547.96,42.1 c 0,0 -51.83,511 59.24,822 111.07,311 140.69,866.3 140.69,866.3 0,0 133.29,281.4 -59.24,696.1 -192.52,414.7 -873.76,649.2 -873.76,649.2 0,0 -562.77,61.7 -688.65,-145.7 -125.88,-207.3 -61.71,-970 -61.71,-970" /><path
         id="path32"
         style="fill:#252323;fill-opacity:1;fill-rule:nonzero;stroke:none"
         d="m 3818.29,13078.1 292.13,-644.2 c 0,0 180.18,-476.4 308.53,-822 128.35,-345.5 651.63,-602.2 651.63,-602.2 0,0 157.96,543 414.66,661.5 256.7,118.5 523.28,128.3 523.28,128.3 0,0 9.87,167.9 0,197.5 -9.88,29.6 98.73,46.9 98.73,46.9 0,0 779.97,-353 1066.29,-372.7 0,0 157.97,478.8 375.18,762.7 217.21,283.8 375.18,353 375.18,353 0,0 -673.84,343 -1125.54,402.3 -451.69,59.2 -1266.22,236.9 -1266.22,236.9 0,0 -799.72,71.8 -955.22,-19.6 -155.5,-91.4 -758.63,-328.4 -758.63,-328.4" /><path
         id="path34"
         style="fill:#c37140;fill-opacity:1;fill-rule:nonzero;stroke:none"
         d="m 2873.81,12604.2 h -370.23 c 0,0 -232.02,-449.2 -399.86,-602.3 -167.84,-153 -360.37,-217.2 -360.37,-217.2 0,0 -177.72,-118.4 -286.32,-128.3 -108.61,-9.9 -182.66,143.1 -182.66,143.1 0,0 -157.97,207.4 -138.22,473.9 19.75,266.6 25.35,508.5 39.82,681.3 14.48,172.8 44.1,424.5 44.1,424.5 l 360.37,27.3 c 0,0 29.62,-392.6 49.37,-590 0,0 123.41,217.2 217.21,296.2 0,0 57.79,449.9 256.7,676.3 198.9,226.3 854.02,39.4 962.62,-59.3 108.61,-98.7 350.49,-557.8 350.49,-557.8 l -177.71,-395.8 -365.31,-171.9" /><path
         id="path36"
         style="fill:#2f1d16;fill-opacity:1;fill-rule:nonzero;stroke:none"
         d="m 2167.89,14628.2 -34.56,113.5 c 0,0 -57.88,7.7 -112.18,12.7 -54.31,4.9 -165.58,-20.3 -224.82,-69.6 -59.24,-49.4 -87.54,-184.7 -87.54,-184.7 0,0 120.18,-153.7 192.53,-148.4 72.34,5.4 212.27,-14.8 222.14,19.8 9.87,34.5 44.43,256.7 44.43,256.7" /><path
         id="path38"
         style="fill:#e9eef1;fill-opacity:1;fill-rule:nonzero;stroke:none"
         d="m 2103.72,13789 c 0,0 451.69,0 681.24,-237 229.55,-236.9 88.85,-947.8 88.85,-947.8 0,0 444.3,-7.4 673.84,-74.1 229.55,-66.6 562.77,-96.2 562.77,-96.2 0,0 140.69,436.9 348.02,525.7 207.34,88.9 1103.32,422.1 1073.7,466.5 -29.62,44.5 -103.67,66.7 -281.38,155.5 -177.72,88.9 -488.72,281.4 -599.79,377.7 -111.07,96.2 -340.62,316.2 -555.36,391.4 -214.74,75.1 -684.91,-22.3 -684.91,-22.3 L 3239.12,14253 2251.9,14002.4 2103.72,13789" /><path
         id="path40"
         style="fill:#b8623c;fill-opacity:1;fill-rule:nonzero;stroke:none"
         d="m 2523.32,14722 c 14.81,4.9 197.46,4.9 197.46,4.9 0,0 98.73,-14.8 148.1,-74 49.36,-59.3 78.98,-227.1 118.47,-271.5 39.5,-44.5 251.77,-128.4 251.77,-128.4 l 84.93,31.9 c 0,0 295.18,-41.8 329.74,-130.6 34.55,-88.9 -98.73,-261.7 -404.8,-232 -306.07,29.6 -543.02,3.1 -666.43,-3.4 -123.41,-6.5 -281.38,-36.1 -281.38,-36.1 l -103.67,251.7 118.48,345.6 207.33,241.9" /><path
         id="path42"
         style="fill:#c37140;fill-opacity:1;fill-rule:nonzero;stroke:none"
         d="m 1955.62,14492.4 c 0,0 128.35,244.4 177.71,249.3 49.37,5 98.74,-14.8 133.29,0 34.56,14.8 157.97,113.6 197.46,123.4 39.49,9.9 74.05,-64.2 118.48,-83.9 44.43,-19.7 138.22,-54.3 138.22,-54.3 0,0 -74.05,-39.5 -128.35,-172.8 -54.3,-133.3 -118.47,-301.1 -167.84,-340.6 -49.37,-39.5 -202.4,-69.1 -227.08,-79 -24.68,-9.8 -217.21,172.8 -217.21,172.8 l -24.68,185.1" /><path
         id="path44"
         style="fill:#a45634;fill-opacity:1;fill-rule:nonzero;stroke:none"
         d="m 2646.73,13981.5 c 0,0 153.04,29.6 238.6,92.1 85.57,62.6 118.94,119.8 166.94,132 47.99,12.2 186.85,47.4 186.85,47.4 0,0 -228.73,-24.7 -248.48,-28 -19.74,-3.3 -91.54,-58.3 -91.54,-58.3 l -207.94,-7.5 177.72,-42 -222.15,-135.7" /><path
         id="path46"
         style="fill:#252323;fill-opacity:1;fill-rule:nonzero;stroke:none"
         d="m 8011.1,9522.6 c 0,0 -152.31,-588.1 -54.35,-676 97.95,-88 442.71,-41.7 591.62,-122 148.9,-80.3 828.54,-194.7 1073.79,36.4 245.24,231.1 -672.99,674.8 -728.52,740.6 -55.52,65.9 -112.06,194.3 -154.95,256.4 -42.89,62 -208.85,82.6 -208.85,82.6 0,0 -79.21,136.5 -166.32,66.3 -87.12,-70.2 -352.42,-384.3 -352.42,-384.3" /><path
         id="path48"
         style="fill:#f5f6f5;fill-opacity:1;fill-rule:nonzero;stroke:none"
         d="m 8532.02,9826.2 c 0,0 -64.58,-4.7 -78.01,-44.9 -13.42,-40.3 -34.43,-121 -53.01,-161.2 -18.58,-40.2 -304.33,-28.4 -304.33,-28.4 l 23.35,450.7 524.95,-31.9 36.64,-215.4 c 0,0 0,0 -149.59,31.1" /><path
         id="path50"
         style="fill:#252323;fill-opacity:1;fill-rule:nonzero;stroke:none"
         d="m 5771.16,8101 -78.7,-194 c 0,0 -35.4,-715.3 -10.17,-796.2 25.22,-80.9 275.14,-355.8 508.02,-431.5 232.88,-75.6 675.47,56.3 694.47,189.5 19,133.1 -439.85,800 -491.87,928.9 -52.02,129 -24.23,419.8 -82.87,463 -58.64,43.3 -133.15,19 -133.15,19 l -325.44,70.2 -80.29,-248.9" /><path
         id="path52"
         style="fill:#f5f6f5;fill-opacity:1;fill-rule:nonzero;stroke:none"
         d="m 6176.89,8279.7 c 0,0 -55.65,0.3 -78.03,-66.9 -22.38,-67.1 -31.33,-93.9 -58.17,-111.8 -26.85,-17.9 -269.53,0 -269.53,0 l -31.68,349.1 444.28,29.6 15.18,-195.2 -22.05,-4.8" /><path
         id="path54"
         style="fill:#a45634;fill-opacity:1;fill-rule:nonzero;stroke:none"
         d="m 2338.2,13171.9 c -23.7,19.2 160.44,-192.5 165.37,-567.7 h 108.61 c 0,0 -24.68,365.3 -273.98,567.7" /><path
         id="path56"
         style="fill:#a45634;fill-opacity:1;fill-rule:nonzero;stroke:none"
         d="m 1629.8,12816.5 c 0,0 143.17,-375.2 98.74,-740.5 0,0 106.85,356.6 -55.18,812.7 l -43.56,-72.2" /><path
         id="path58"
         style="fill:#b36239;fill-opacity:1;fill-rule:nonzero;stroke:none"
         d="m 1773.41,12337.4 c -6.67,0 -10.31,0.2 -10.31,0.2 v 64.2 c 0,0 4.6,-0.5 13.04,-0.5 43.24,0 187.14,13.8 327.58,183.1 167.84,202.5 113.54,404.8 113.54,404.8 0,0 138.22,-172.7 -19.75,-420.2 -139.86,-219 -372.59,-231.6 -424.1,-231.6" /><path
         id="path60"
         style="fill:#a45634;fill-opacity:1;fill-rule:nonzero;stroke:none"
         d="m 1506.39,12109.1 c 0,0 0,-166.4 -167.84,-230.6 0,0 241.89,-81.9 167.84,230.6" /><path
         id="path62"
         style="fill:#d0d0cb;fill-opacity:1;fill-rule:nonzero;stroke:none"
         d="m 5144.77,14951.5 c 11.78,-62.5 59.24,-105.7 105.99,-96.6 46.75,9.2 75.1,67.2 63.31,129.7 -11.78,62.5 -59.24,105.7 -105.99,96.5 -46.76,-9.1 -75.1,-67.1 -63.31,-129.6" /><path
         id="path64"
         style="fill:#b36239;fill-opacity:1;fill-rule:nonzero;stroke:none"
         d="m 5366.77,13744.5 c -25.94,178.4 -211.69,490.6 -204.51,490.6 0.11,0 0.26,-0.1 0.46,-0.2 230.37,-167.8 204.05,-490.4 204.05,-490.4" /><path
         id="path66"
         style="fill:#d0d0cb;fill-opacity:1;fill-rule:nonzero;stroke:none"
         d="m 5211.26,15003.4 -3.18,77.7 -389.27,-161.7 130.22,-183.2 301.73,118.7 -39.5,148.5" /><path
         id="path68"
         style="fill:#c37140;fill-opacity:1;fill-rule:nonzero;stroke:none"
         d="m 4848.43,15045.3 h 70.69 c 0,0 37.92,37.1 72.47,35.8 34.56,-1.2 88.12,-139.5 71.58,-161.7 -16.54,-22.1 -56.77,0 -56.77,0 0,0 30.25,-56.7 -49.05,-54.3 -79.3,2.5 -150.88,12.4 -138.54,54.3 12.34,42 29.62,125.9 29.62,125.9" /><path
         id="path70"
         style="fill:#5b5f5f;fill-opacity:1;fill-rule:nonzero;stroke:none"
         d="m 1470.84,14374.3 c 213.26,293.6 472.09,181.1 472.09,181.1 l 0.07,-0.1 c 175.18,-38.5 344.55,-237.4 411.38,-505.8 41.48,-166.6 35.58,-328.3 -7.46,-455.1 -8.25,-31 -20.81,-60.3 -38.63,-87.3 h -0.02 c -25.4,-44.9 -56.92,-82.4 -93.66,-110.3 -185.8,-167.7 -392.06,-96.2 -392.06,-96.2 l -97.95,241.1 c -46.96,63 -87.31,138.4 -117.26,222.9 -97.53,107.7 -303.33,380 -136.5,609.7" /><path
         id="path72"
         style="fill:#d0d0cb;fill-opacity:1;fill-rule:nonzero;stroke:none"
         d="m 1638.41,13877.8 c 14.58,-66.7 67.67,-111.4 118.56,-100 50.9,11.5 80.34,74.8 65.76,141.4 -14.59,66.7 -67.67,111.4 -118.56,100 -50.9,-11.5 -80.34,-74.8 -65.76,-141.4" /><path
         id="path74"
         style="fill:#8d8d8d;fill-opacity:1;fill-rule:nonzero;stroke:none"
         d="m 1409.37,13806.8 c 82.84,-332.7 323.24,-558.7 536.95,-504.7 213.71,54 319.81,367.5 236.97,700.3 -82.84,332.7 -323.24,558.6 -536.95,504.6 -213.71,-54 -319.81,-367.5 -236.97,-700.2" /><path
         id="path76"
         style="fill:#b8623c;fill-opacity:1;fill-rule:nonzero;stroke:none"
         d="m 1210.2,13961.7 61.71,-14.8 c 0,0 81.81,50.1 110.02,49.7 28.2,-0.3 57.82,-15.1 57.82,-15.1 0,0 44.43,54.3 93.79,54.3 49.37,0 64.18,-37 64.18,-37 0,0 127.86,-88.5 132.85,-155.5 4.99,-67 31.65,-123.4 0,-170.4 -31.65,-46.8 -18.62,-81.5 -150.13,-135.7 -131.51,-54.2 -293.72,-19.9 -293.72,-19.9 l -76.52,444.4" /><path
         id="path78"
         style="fill:#a45634;fill-opacity:1;fill-rule:nonzero;stroke:none"
         d="m 1610.17,13689.3 c 0,0 -61.82,139.1 -170.42,292.2 l 29.96,28.3 c 0,0 128.22,-166 140.46,-320.5" /><path
         id="path80"
         style="fill:#a45634;fill-opacity:1;fill-rule:nonzero;stroke:none"
         d="m 1271.91,13946.9 c 0,0 145.74,-150.7 222.2,-328.3 0,0 -16.65,187.1 -181.86,351.2 l -40.34,-22.9" /><path
         id="path82"
         style="fill:#c37140;fill-opacity:1;fill-rule:nonzero;stroke:none"
         d="m 1585.56,13339.8 c 0,0 111.73,134.6 177.54,184.1 65.82,49.5 95.44,102.2 98.73,217.3 3.29,115.2 -32.56,132.1 -35.83,155.1 -3.27,22.9 -25.49,26 -102.2,102.5 -76.72,76.5 -69.31,98.7 -94,103.6 -24.67,5 -39.48,-54.3 -32.08,-103.6 7.41,-49.4 98.74,-135.8 98.74,-162.9 -0.01,-27.2 24.19,-72.1 -19.76,-103.7 -43.94,-31.6 -256.7,-158 -256.7,-158 l -61.7,-167.7 77.88,-121.1 149.38,54.4" /><path
         id="path84"
         style="fill:#5b5f5f;fill-opacity:1;fill-rule:nonzero;stroke:none"
         d="m 427.117,14033.6 c 239.274,318.5 529.699,196.4 529.699,196.4 l 0.075,-0.1 c 196.549,-41.8 386.589,-257.5 461.569,-548.7 46.54,-180.8 39.92,-356.3 -8.37,-493.9 -9.26,-33.6 -23.35,-65.4 -43.34,-94.6 l -0.02,-0.1 c -28.51,-48.7 -63.87,-89.3 -105.09,-119.7 -208.47,-181.9 -439.902,-104.4 -439.902,-104.4 l -109.89,261.7 c -52.7,68.3 -97.969,150.1 -131.575,241.8 -109.429,116.9 -340.332,412.4 -153.156,661.6" /><path
         id="path86"
         style="fill:#8d8d8d;fill-opacity:1;fill-rule:nonzero;stroke:none"
         d="m 358.148,13417.8 c 92.95,-361 362.68,-606.2 602.465,-547.6 239.797,58.6 358.827,398.8 265.877,759.8 -92.95,361 -362.677,606.1 -602.463,547.5 -239.789,-58.6 -358.824,-398.7 -265.879,-759.7" /><path
         id="path88"
         style="fill:#d0d0cb;fill-opacity:1;fill-rule:nonzero;stroke:none"
         d="m 615.137,13494.8 c 16.363,-72.3 75.918,-120.8 133.027,-108.4 57.109,12.4 90.137,81.1 73.774,153.4 -16.364,72.3 -75.918,120.8 -133.028,108.4 -57.109,-12.4 -90.137,-81.1 -73.773,-153.4" /><path
         id="path90"
         style="fill:#5b5f5f;fill-opacity:1;fill-rule:nonzero;stroke:none"
         d="m 4138.4,15173.9 c 205.07,287.1 454.75,175.1 454.75,175.1 l 0.06,-0.1 c 168.91,-38.9 332.5,-235.1 397.36,-499.1 40.26,-163.8 34.84,-322.6 -6.43,-446.9 -7.91,-30.4 -19.97,-59.1 -37.09,-85.5 h -0.02 c -24.41,-44 -54.73,-80.5 -90.1,-107.8 -178.81,-163.6 -377.75,-92.2 -377.75,-92.2 l -94.8,237.4 c -45.37,62.1 -84.38,136.4 -113.4,219.6 -94.18,106.3 -293,374.9 -132.58,599.5" /><path
         id="path92"
         style="fill:#8d8d8d;fill-opacity:1;fill-rule:nonzero;stroke:none"
         d="m 4080.09,14616.9 c 80.4,-327.2 312.5,-550.5 518.4,-498.7 205.9,51.8 307.65,359.1 227.25,686.3 -80.4,327.2 -312.49,550.5 -518.4,498.7 -205.9,-51.8 -307.64,-359 -227.25,-686.3" /><path
         id="path94"
         style="fill:#d0d0cb;fill-opacity:1;fill-rule:nonzero;stroke:none"
         d="m 4300.75,14685.3 c 14.16,-65.5 65.4,-109.8 114.44,-98.8 49.04,10.9 77.31,72.9 63.14,138.4 -14.16,65.6 -65.4,109.8 -114.44,98.9 -49.04,-11 -77.31,-72.9 -63.14,-138.5" /><path
         id="path96"
         style="fill:#5b5f5f;fill-opacity:1;fill-rule:nonzero;stroke:none"
         d="m 14036.4,14364.5 c 208.3,261.7 439.2,143.4 439.2,143.4 l 0.1,-0.1 c 158,-45.1 303.2,-239 351.7,-492.1 30,-157.1 17.1,-307.2 -28.1,-422.8 -9,-28.4 -21.8,-55 -39.3,-79.1 l -0.1,-0.1 c -25.2,-40.4 -55.7,-73.5 -90.6,-97.6 -177.3,-146.1 -362.2,-68.7 -362.2,-68.7 l -78.1,229.4 c -39.9,61.1 -73.2,133.3 -96.5,213.5 -84,105.3 -259,369.4 -96.1,574.2" /><path
         id="path98"
         style="fill:#8d8d8d;fill-opacity:1;fill-rule:nonzero;stroke:none"
         d="m 13953.8,13840 c 60,-313.8 268.8,-536.6 466.3,-497.7 197.5,38.9 309,324.8 249,638.6 -60.1,313.8 -268.9,536.6 -466.4,497.7 -197.5,-38.9 -308.9,-324.8 -248.9,-638.6" /><path
         id="path100"
         style="fill:#d0d0cb;fill-opacity:1;fill-rule:nonzero;stroke:none"
         d="m 14208.1,13873.2 c 10.2,-62.7 56.5,-107.1 103.5,-99.2 47,8 76.8,65.3 66.6,128 -10.2,62.8 -56.5,107.2 -103.5,99.2 -47,-7.9 -76.8,-65.2 -66.6,-128" /><path
         id="path102"
         style="fill:#d0d0cb;fill-opacity:1;fill-rule:nonzero;stroke:none"
         d="m 14274.7,14001.2 -925.4,-234.6 43.3,-238.9 919,246.3 -36.9,227.2" /><path
         id="path104"
         style="fill:#c37140;fill-opacity:1;fill-rule:nonzero;stroke:none"
         d="m 13563.1,10935 c 15.5,5.5 433.9,225.9 433.9,225.9 0,0 -4.4,633.8 54.8,846.1 0,0 -69.1,241.9 -24.7,518.3 44.5,276.5 24.7,834.3 24.7,834.3 l -138.2,153.3 -32.4,516.2 h 88.2 c 0,0 50,12.9 86.8,0 36.8,-12.9 79.5,-210.4 79.5,-210.4 0,0 150.7,-59.2 175.7,-115.2 25.1,-55.9 0,-266.6 0,-266.6 0,0 114,-437.6 179.8,-592.3 65.8,-154.7 98.7,-464.1 75.7,-704.3 0,0 32.9,-213.9 98.7,-566.1 65.8,-352.1 43.3,-717.8 -103.4,-951.3 -146.7,-233.4 -551.5,-36 -551.5,-36 l -447.6,348.1" /><g
         id="g106"><g
           clip-path="url(#clipPath112)"
           id="g108"><path
             id="path114"
             style="fill:#b36239;fill-opacity:1;fill-rule:nonzero;stroke:none"
             d="m 14195,11097 h 171.102 v 779.98 H 14195 Z" /></g></g><path
         id="path116"
         style="fill:#a45634;fill-opacity:1;fill-rule:nonzero;stroke:none"
         d="m 14250.9,12271.9 c 0,0 -29.1,-85.2 -119,-154.6 0,0 148.6,-10 119,154.6" /><path
         id="path118"
         style="fill:#a45634;fill-opacity:1;fill-rule:nonzero;stroke:none"
         d="m 14061.7,13722.4 c 0,0 102.9,-7.3 148,-114.2 0,0 -22.1,173.5 -148,114.2" /><path
         id="path120"
         style="fill:#5b5f5f;fill-opacity:1;fill-rule:nonzero;stroke:none"
         d="m 13135.7,14124.1 c 214.6,280 460.4,159.7 460.4,159.7 v -0.1 c 167.5,-44.5 324.4,-246.1 380.4,-512.1 34.7,-165.1 24,-323.7 -21.4,-446.5 -9,-30 -22,-58.3 -40,-84.2 v 0 c -25.9,-43.1 -57.4,-78.6 -93.7,-104.7 -184.2,-157.5 -380.6,-79.4 -380.6,-79.4 l -86.8,240.4 c -43.2,63.6 -79.7,139.1 -105.9,223.2 -90.6,109.5 -280.3,384.6 -112.4,603.7" /><path
         id="path122"
         style="fill:#8d8d8d;fill-opacity:1;fill-rule:nonzero;stroke:none"
         d="m 13058.7,13569.4 c 69.4,-329.7 293.8,-560.7 501.4,-515.8 207.5,44.8 319.5,348.5 250.1,678.2 -69.3,329.7 -293.8,560.7 -501.3,515.8 -207.5,-44.8 -319.5,-348.5 -250.2,-678.2" /><path
         id="path124"
         style="fill:#d0d0cb;fill-opacity:1;fill-rule:nonzero;stroke:none"
         d="m 13281.5,13630.3 c 12,-65.9 61.7,-111.9 111.1,-102.6 49.4,9.3 79.7,70.3 67.8,136.3 -12,65.9 -61.7,111.9 -111.1,102.6 -49.4,-9.3 -79.7,-70.3 -67.8,-136.3" /><path
         id="path126"
         style="fill:#5b5f5f;fill-opacity:1;fill-rule:nonzero;stroke:none"
         d="m 12351,14009.8 c 252.9,260.2 493.1,111.9 493.1,111.9 v -0.1 c 167.9,-63.1 307.2,-284.1 335.1,-559.3 17.3,-170.7 -11.6,-330 -72.3,-449.4 -12.6,-29.5 -29.2,-56.7 -50.7,-80.8 v -0.1 c -31.6,-40.8 -68.1,-73.4 -108.4,-95.8 -207.8,-139.5 -401.8,-39.3 -401.8,-39.3 l -62.6,252.6 c -37.5,69.1 -66.7,149.4 -84.2,237.4 -81.2,120.5 -246.1,419.4 -48.2,622.9" /><path
         id="path128"
         style="fill:#8d8d8d;fill-opacity:1;fill-rule:nonzero;stroke:none"
         d="m 12209.2,13456.8 c 34.6,-341.1 240.3,-599 459.5,-576 219.2,23 369,318.1 334.4,659.2 -34.5,341.2 -240.3,599.1 -459.5,576.1 -219.2,-23 -368.9,-318.1 -334.4,-659.3" /><path
         id="path130"
         style="fill:#d0d0cb;fill-opacity:1;fill-rule:nonzero;stroke:none"
         d="m 12446,13494.4 c 5,-68 51.1,-119.8 103.1,-115.8 52.1,4.1 90.2,62.5 85.3,130.6 -4.9,68 -51.1,119.9 -103.1,115.8 -52,-4.1 -90.2,-62.5 -85.3,-130.6" /><path
         id="path132"
         style="fill:#797a7b;fill-opacity:1;fill-rule:nonzero;stroke:none"
         d="m 12008.1,10516.2 -385.1,-241.9 c 0,0 -69.1,-83.9 0,-192.5 69.2,-108.6 546,-429.5 546,-429.5 l 170.3,236.9 -331.2,627" /><path
         id="path134"
         style="fill:#2f1d16;fill-opacity:1;fill-rule:nonzero;stroke:none"
         d="m 12169,11212.5 -34.6,113.5 c 0,0 -71.2,82.3 -125.5,87.2 -54.3,5 -136.1,-27.9 -195.3,-77.3 -59.3,-49.4 -103.7,-251.5 -103.7,-251.5 0,0 120.2,-153.7 192.5,-148.4 23.1,1.8 52.9,0.9 83.3,0 65,-1.9 132.1,-3.8 138.9,19.8 9.8,34.5 44.4,256.7 44.4,256.7" /><path
         id="path136"
         style="fill:#2f1d16;fill-opacity:1;fill-rule:nonzero;stroke:none"
         d="m 11709.9,11084.4 c 0,0 -20.1,-158 0,-247.1 20.1,-89.1 72.8,-125.3 85.9,-217.5 13.2,-92.1 109.6,-213.9 170,-230.3 60.4,-16.5 248,217.2 248,217.2 0,0 -296.2,455.2 -325.8,477.7 -29.7,22.5 -178.1,0 -178.1,0" /><g
         transform="scale(1.05843)"
         id="g138"><path
           id="path140"
           style="fill:#494a4b;fill-opacity:1;fill-rule:nonzero;stroke:none"
           d="m 14523,6450.78 -369.9,263.79 92.7,118.67 340.1,-305.64 z m -619.1,441.6 -299.7,213.71 156.3,163.27 265.8,-238.95 z m -1335.1,857.31 665.4,324.92 668.5,-273.62 -550.4,-471.07 z m -662.3,606.37 736.9,-39.87 -531.7,-270.78 z m 4160.3,-3171.58 c 0,0 -46.7,298.55 -74.6,363.83 -28,65.29 -233.2,261.15 -233.2,261.15 l 139.9,125.84 -18.7,200.68 -149.3,74.64 -46.5,183.95 c 0,0 279.8,21.26 261.1,273.04 -18.6,251.89 -2511.4,1781.7 -2511.4,1781.7 0,0 -1065.7,459.08 -1149.7,437.91 -84.1,-21.07 -326.6,-83.42 -326.6,-83.42 l -318.5,-126.42 c -162.4,-64.52 -243.4,-247.15 -181.9,-410.79 l 197.2,-526.25 -1086.4,-410.42 51,-223.83 167.9,-46.67 1305.9,513.03 3041,-1781.61 46.6,-615.72 709,-475.7 410.4,335.87 -233.2,149.19" /></g><g
         transform="scale(1.09659)"
         id="g142"><path
           id="path144"
           style="fill:#797a7b;fill-opacity:1;fill-rule:nonzero;stroke:none"
           d="m 11541.7,8497.44 c 0,0 3848.9,-2214.87 3984,-2196.9 135,18.06 693.2,396.23 693.2,396.23 0,0 81.1,116.99 0,216.03 -80.9,99.04 -2619.9,1476.58 -2619.9,1476.58 0,0 -738.3,369.14 -900.3,369.14 -162.1,0 -1157,-261.08 -1157,-261.08" /></g><g
         transform="scale(1.01118)"
         id="g146"><path
           id="path148"
           style="fill:#c37140;fill-opacity:1;fill-rule:nonzero;stroke:none"
           d="m 14747.6,7894.51 c 58.5,-58.55 165.9,-397.85 165.9,-397.85 l 507.7,-393.01 c 0,0 -190.3,-593.16 -102.4,-959.27 87.8,-366.1 197.7,-739.63 226.9,-959.27 29.3,-219.74 29.3,-219.74 29.3,-219.74 l 439.4,29.27 c 0,0 -43.9,314.88 29.3,710.36 73.2,395.47 87.9,966.58 95.2,1047.18 7.3,80.5 161.1,346.63 139.1,744.48 -21.9,397.85 -436.9,781.16 -436.9,781.16 0,0 -581,180.58 -646.8,136.67 -66,-43.91 -446.7,-519.98 -446.7,-519.98" /></g><g
         transform="scale(1.16564)"
         id="g150"><path
           id="path152"
           style="fill:#c37140;fill-opacity:1;fill-rule:nonzero;stroke:none"
           d="m 14741.5,7070.8 c 65.7,0 675.5,-158.79 675.5,-158.79 0,0 -38.1,-266.81 0,-546.31 38.1,-279.51 101.6,-305.33 127.1,-559.27 25.4,-253.85 0,-417.02 0,-417.02 l 470,36.11 c 0,0 -44.4,438.31 50.9,705.11 95.2,266.81 120.7,743.29 120.7,743.29 0,0 114.3,241.32 -50.8,597.09 -165.2,355.77 -749.7,556.95 -749.7,556.95 0,0 -482.7,52.93 -590.7,-124.99 -108,-177.85 -53,-832.17 -53,-832.17" /></g><g
         transform="scale(1.10022)"
         id="g154"><path
           id="path156"
           style="fill:#252323;fill-opacity:1;fill-rule:nonzero;stroke:none"
           d="m 12568.4,8769.97 265.6,-585.52 c 0,0 163.8,-433.01 280.4,-747.03 116.7,-314.12 592.2,-547.44 592.2,-547.44 0,0 143.6,493.54 376.9,601.24 233.4,107.71 475.7,116.71 475.7,116.71 0,0 8.9,152.51 0,179.42 -9,26.9 89.7,42.62 89.7,42.62 0,0 708.9,-320.75 969.1,-338.75 0,0 143.7,435.19 341.1,693.23 197.4,258.04 340.9,320.84 340.9,320.84 0,0 -612.4,311.85 -1023,365.66 -410.5,53.8 -1150.8,215.32 -1150.8,215.32 0,0 -726.9,65.31 -868.2,-17.82 -141.4,-83.07 -689.6,-298.48 -689.6,-298.48" /></g><g
         transform="scale(1.21945)"
         id="g158"><path
           id="path160"
           style="fill:#252323;fill-opacity:1;fill-rule:nonzero;stroke:none"
           d="m 14777.8,4996.91 c 0,0 -124.9,-482.26 -44.6,-554.43 80.3,-72.16 363.1,-34.2 485.2,-100.04 122.1,-65.85 679.5,-159.58 880.5,29.85 201.1,189.51 -551.9,553.36 -597.4,607.4 -45.5,53.96 -91.9,159.33 -127.1,210.17 -35.2,50.85 -171.2,67.82 -171.2,67.82 0,0 -64.9,111.86 -136.4,54.29 -71.4,-57.57 -289,-315.06 -289,-315.06" /></g><g
         transform="scale(1.14671)"
         id="g162"><path
           id="path164"
           style="fill:#f5f6f5;fill-opacity:1;fill-rule:nonzero;stroke:none"
           d="m 16169.5,5578.65 c 0,0 -56.3,-4.1 -68,-39.24 -11.8,-35.15 -30.1,-105.52 -46.2,-140.58 -16.2,-35.06 -265.5,-24.77 -265.5,-24.77 l 20.5,393.13 457.7,-27.91 32,-187.75 c 0,0 0,0 -130.5,27.12" /></g><g
         transform="scale(1.03764)"
         id="g166"><path
           id="path168"
           style="fill:#252323;fill-opacity:1;fill-rule:nonzero;stroke:none"
           d="m 15208.5,4502.34 -75.9,-186.86 c 0,0 -34.1,-689.46 -9.8,-767.42 24.4,-77.97 265.2,-342.9 489.7,-415.75 224.3,-72.86 650.9,54.25 669.2,182.53 18.3,128.27 -423.9,770.98 -474,895.2 -50.2,124.32 -23.4,404.58 -79.9,446.31 -56.4,41.63 -128.3,18.31 -128.3,18.31 l -313.6,67.55 -77.4,-239.87" /></g><path
         id="path170"
         style="fill:#f5f6f5;fill-opacity:1;fill-rule:nonzero;stroke:none"
         d="m 16186.6,4850.6 c 0,0 -55.6,0.2 -78,-66.9 -22.4,-67.2 -31.3,-94 -58.2,-111.9 -26.8,-17.9 -269.5,0 -269.5,0 l -31.7,349.1 444.3,29.6 15.2,-195.2 -22.1,-4.7" /><path
         id="path172"
         style="fill:#e9eef1;fill-opacity:1;fill-rule:nonzero;stroke:none"
         d="m 12104.8,10373.3 c 0,0 451.7,0 681.3,-237 229.5,-236.9 88.8,-947.8 88.8,-947.8 0,0 444.3,-7.4 673.9,-74 229.5,-66.7 562.7,-96.3 562.7,-96.3 0,0 140.7,436.9 348.1,525.7 207.3,88.9 1103.3,422.1 1073.7,466.5 -29.7,44.5 -103.7,66.7 -281.4,155.5 -177.7,88.9 -488.7,281.4 -599.8,377.7 -111.1,96.3 -340.6,316.3 -555.4,391.4 -214.7,75.1 -684.9,-22.3 -684.9,-22.3 l -171.6,-75.4 -987.2,-250.5 -148.2,-213.5" /><path
         id="path174"
         style="fill:#b8623c;fill-opacity:1;fill-rule:nonzero;stroke:none"
         d="m 12524.4,11306.3 c 14.8,4.9 197.5,4.9 197.5,4.9 0,0 98.7,-14.8 148.1,-74 49.4,-59.3 79,-227.1 118.5,-271.5 39.5,-44.5 251.7,-128.4 251.7,-128.4 l 85,31.9 c 0,0 295.1,-41.8 329.7,-130.6 34.6,-88.9 -98.7,-261.7 -404.8,-232 -306.1,29.6 -543,3.1 -666.4,-3.4 -123.4,-6.5 -281.4,-36.1 -281.4,-36.1 l -103.7,251.7 118.5,345.6 207.3,241.9" /><path
         id="path176"
         style="fill:#b8623c;fill-opacity:1;fill-rule:nonzero;stroke:none"
         d="m 11956.7,11076.7 c 0,0 128.4,244.4 177.7,249.3 20.6,2.1 41.2,-0.1 60.7,-2.4 27.3,-3.1 52.5,-6.2 72.6,2.4 34.6,14.8 158,113.6 197.5,123.4 39.5,9.9 74,-64.1 118.5,-83.9 44.4,-19.7 138.2,-54.3 138.2,-54.3 0,0 -74.1,-39.5 -128.4,-172.8 -54.3,-133.2 -118.4,-301.1 -167.8,-340.6 -49.4,-39.5 -202.4,-69.1 -227.1,-79 -24.7,-9.8 -217.2,172.8 -217.2,172.8 l -24.7,185.1" /><path
         id="path178"
         style="fill:#a45634;fill-opacity:1;fill-rule:nonzero;stroke:none"
         d="m 12647.9,10565.8 c 0,0 153,29.6 238.5,92.1 85.6,62.6 119,119.8 167,132 48,12.2 186.8,47.4 186.8,47.4 0,0 -228.7,-24.7 -248.4,-28 -19.8,-3.3 -91.6,-58.3 -91.6,-58.3 l -207.9,-7.5 177.7,-41.9 -222.1,-135.8" /><path
         id="path180"
         style="fill:#b05d37;fill-opacity:1;fill-rule:nonzero;stroke:none"
         d="m 12034.2,13638.6 58.9,-23.4 c 0,0 88.2,37.8 116,33.5 27.9,-4.4 55.1,-23.3 55.1,-23.3 0,0 51.7,47.4 100.6,40.4 48.8,-7 58.2,-45.8 58.2,-45.8 0,0 114,-105.8 109.3,-172.9 -4.6,-67 13.8,-126.6 -24.3,-168.5 -38,-41.9 -30,-78.1 -167.9,-113 -137.9,-34.9 -293.6,22.2 -293.6,22.2 l -12.3,450.8" /><path
         id="path182"
         style="fill:#c37140;fill-opacity:1;fill-rule:nonzero;stroke:none"
         d="m 12317,12969.4 c 0,0 129.8,117.3 202,157 72.2,39.6 109,87.5 128.7,201 19.7,113.6 -13.4,135.4 -13.4,158.6 0.1,23.2 -21.5,29.3 -86.5,116 -65,86.7 -54.5,107.6 -78.2,116 -23.8,8.4 -46.9,-48.1 -46.6,-98 0.3,-49.9 78.4,-148.4 74.5,-175.3 -3.9,-26.9 13.7,-74.8 -34.3,-99.8 -48,-25 -276.6,-119.8 -276.6,-119.8 l -85,-157.2 59.8,-130.9 155.6,32.4" /><path
         id="path184"
         style="fill:#a45634;fill-opacity:1;fill-rule:nonzero;stroke:none"
         d="m 12391.2,13311.9 c 0,0 -41.3,146.6 -127,313.5 l 33.7,23.8 c 0,0 103.2,-182.6 93.3,-337.3" /><path
         id="path186"
         style="fill:#a45634;fill-opacity:1;fill-rule:nonzero;stroke:none"
         d="m 12093.1,13615.2 c 0,0 122.8,-170 173.2,-356.8 0,0 10.2,187.6 -130,373.6 l -43.2,-16.8" /><path
         id="path188"
         style="fill:#c37140;fill-opacity:1;fill-rule:nonzero;stroke:none"
         d="m 12874.9,9188.5 c 0,0 -274.4,59 -383,157.7 -108.6,98.7 -118.5,113.5 -123.4,128.4 -5,14.8 -315,138.2 -411.8,385 -96.7,246.8 -17.2,464 -17.2,464 0,0 -29.2,544 17.2,837.3 46.5,293.2 32.6,278.4 0,470.9 -32.5,192.6 -51.3,409.8 0,701 51.4,291.3 51.4,775.1 51.4,775.1 l 369.7,-24.7 c 0,0 -14.3,-424.6 59.8,-770.1 74,-345.6 123.4,-592.4 133.3,-819.5 9.8,-227.1 79.9,-330.7 76.9,-676.3 -2.9,-345.6 -49,-551.4 -49,-551.4 0,0 239.5,-31.4 298.3,-379.3 58.8,-347.9 -22.2,-698.1 -22.2,-698.1" /><path
         id="path190"
         style="fill:#a45634;fill-opacity:1;fill-rule:nonzero;stroke:none"
         d="m 12393.1,9751 c 0,0 167.9,-187.6 98.8,-404.8 l 46.3,-34.3 c 0,0 126.4,246.6 -145.1,439.1" /><path
         id="path192"
         style="fill:#b36239;fill-opacity:1;fill-rule:nonzero;stroke:none"
         d="m 12104.8,10467.1 c 141.2,395.2 0,769.8 0,769.8 254.7,-360.4 0,-769.8 0,-769.8" /><path
         id="path194"
         style="fill:#a45634;fill-opacity:1;fill-rule:nonzero;stroke:none"
         d="m 12269.7,11720.7 c 0,0 -49.3,-123.4 -197.4,-207.3 0,0 217.2,-29.7 197.4,207.3" /><path
         id="path196"
         style="fill:#5b5f5f;fill-opacity:1;fill-rule:nonzero;stroke:none"
         d="m 11215.6,13850.7 c 278.2,285.2 550.6,126.8 550.6,126.8 v -0.1 c 189.6,-66.6 350.4,-305 387.4,-603.4 22.9,-185.2 -6.2,-358.4 -71.7,-488.6 -13.5,-32.2 -31.6,-61.9 -55.1,-88.4 h -0.1 c -34.5,-44.7 -74.8,-80.5 -119.5,-105.2 -230.1,-153.8 -449.7,-47.1 -449.7,-47.1 l -75.4,273.6 c -43.5,74.5 -77.9,161.4 -99.5,256.7 -93.5,129.9 -284.6,452.6 -67,675.7" /><path
         id="path198"
         style="fill:#8d8d8d;fill-opacity:1;fill-rule:nonzero;stroke:none"
         d="m 11068.2,13248.9 c 45.9,-370 281.9,-647.7 527.2,-620.4 245.4,27.4 407.1,349.4 361.2,719.4 -45.8,369.9 -281.9,647.6 -527.2,620.3 -245.3,-27.3 -407,-349.4 -361.2,-719.3" /><path
         id="path200"
         style="fill:#d0d0cb;fill-opacity:1;fill-rule:nonzero;stroke:none"
         d="m 11333,13292.3 c 6.9,-73.8 59.7,-129.6 118,-124.6 58.2,5 99.8,68.8 92.8,142.6 -6.9,73.8 -59.8,129.6 -118,124.6 -58.2,-4.9 -99.8,-68.8 -92.8,-142.6" /></g></g></svg>