<?xml version="1.0" encoding="UTF-8" standalone="no"?>
<svg
   xmlns:dc="http://purl.org/dc/elements/1.1/"
   xmlns:cc="http://creativecommons.org/ns#"
   xmlns:rdf="http://www.w3.org/1999/02/22-rdf-syntax-ns#"
   xmlns:svg="http://www.w3.org/2000/svg"
   xmlns="http://www.w3.org/2000/svg"
   viewBox="0 0 2666.6667 2666.6667"
   height="2666.6667"
   width="2666.6667"
   xml:space="preserve"
   id="svg2"
   version="1.1"><metadata
     id="metadata8"><rdf:RDF><cc:Work
         rdf:about=""><dc:format>image/svg+xml</dc:format><dc:type
           rdf:resource="http://purl.org/dc/dcmitype/StillImage" /></cc:Work></rdf:RDF></metadata><defs
     id="defs6" /><g
     transform="matrix(1.3333333,0,0,-1.3333333,0,2666.6667)"
     id="g10"><g
       transform="scale(0.1)"
       id="g12"><g
         transform="scale(1.22699)"
         id="g14"><path
           id="path16"
           style="fill:none;fill-opacity:1;fill-rule:nonzero;stroke:none"
           d="M 16300,0 H 0 V 16300 H 16300 V 0" /></g><path
         id="path18"
         style="fill:#2f1d16;fill-opacity:1;fill-rule:nonzero;stroke:none"
         d="m 2357.15,12501.2 c 0,0 15.74,127.1 51.75,176.6 36.01,49.6 92.71,124.2 92.71,124.2 0,0 54.39,70.4 97.44,88.7 43.05,18.4 88.7,30.9 88.7,30.9 0,0 39.01,60.8 106.76,76.3 67.74,15.6 88.88,7.5 102.91,9.8 14.03,2.3 50.94,42.5 115.51,48.6 64.57,6.2 97.52,-19.2 109.63,-18 12.11,1.1 68.03,12.6 103.78,0.7 35.74,-11.9 59.24,-18.7 74.75,-51 15.51,-32.2 56.43,-36.7 83.46,-64 27.03,-27.2 14.54,-52.9 22.41,-92.8 7.88,-40 18.25,-92 7.41,-161.1 0,0 -59.43,108.6 -63.59,109.6 -4.17,0.9 -293.46,-11.7 -293.46,-11.7 0,0 -489.12,-230.7 -500.09,-236.7 -10.97,-6 -200.08,-30.1 -200.08,-30.1" /><path
         id="path20"
         style="fill:#2f1d16;fill-opacity:1;fill-rule:nonzero;stroke:none"
         d="m 3208.11,13012.8 c -207.19,42.3 -385.69,-36.4 -475.17,-92 -89.48,-55.5 -228.09,-165.2 -228.1,-165.2 -35.56,-29.5 -71.02,-61.7 -87.02,-96.9 -25.57,-56.5 -18.94,-100.8 -18.94,-100.8 0,0 -132.04,-68.9 -82.94,-266 49.09,-197.2 149.28,-335.3 227.11,-428.9 77.83,-93.5 293.18,-222 293.18,-222 l -2.48,294.9 c 147.2,-15 191.26,395 164.38,422 -17.05,17.2 347.48,236.1 347.48,236.1 l 76.55,76.4 c 0,0 2.97,136.5 -94.75,251.9 -30.67,36.2 -74.12,66.3 -119.3,90.5" /><path
         id="path22"
         style="fill:#c37140;fill-opacity:1;fill-rule:nonzero;stroke:none"
         d="m 3348.13,12722.8 c 0,0 57.81,-35.9 74.03,-52.4 16.22,-16.5 90.29,-193.4 110.29,-237.6 20.01,-44.4 31.42,-110.2 39.69,-132.2 8.26,-22 61.87,-155.6 75.84,-210.5 13.97,-54.9 32.52,-282 33.86,-343.3 1.35,-61.4 0.52,-143.6 -20.33,-168.1 -20.85,-24.6 -134.33,-73.9 -248.39,-81.8 -114.07,-7.8 -365.91,53 -447.08,104.3 -81.17,51.4 -130.03,203.5 -130.03,203.5 0,0 -38.06,-27.7 -98.52,-0.3 -60.45,27.4 -166.54,96.2 -191.56,207.1 -25.01,110.9 69.85,103.2 126.82,76.1 56.97,-27 82.68,-90.9 92.02,-89.1 9.33,1.9 17.01,8.1 20.86,11.2 3.84,3.2 -16.42,119.2 -23.23,141.7 -6.79,22.5 -60.76,152.7 -59.48,158.2 1.27,5.5 60.79,178.3 90.97,204.7 30.19,26.4 554.24,208.5 554.24,208.5" /><path
         id="path24"
         style="fill:#2f1d16;fill-opacity:1;fill-rule:nonzero;stroke:none"
         d="m 2779.3,12035.8 c 0,0 -12.37,74.8 -6.22,124.2 6.16,49.5 -17.42,68.9 -28.75,116.7 -11.33,47.8 45.74,83.5 36.21,147.4 -9.52,63.9 37.35,102.5 37.35,102.5 0,0 -72.89,28.5 -77.62,21.2 -4.75,-7.2 -110.2,-97.3 -127.44,-158.7 -17.24,-61.4 -60.03,-68.2 -10.91,-142.2 49.13,-74.1 177.38,-211.1 177.38,-211.1" /><path
         id="path26"
         style="fill:#c1bfbd;fill-opacity:1;fill-rule:nonzero;stroke:none"
         d="m 6269.78,6671.3 734.49,-1013.6 c 0,0 -315.83,-85.5 -499.45,-384.3 -183.63,-298.8 -39.99,-1330.3 -39.99,-1330.3 h 319.09 c 0,0 -51.41,1019.3 66.1,1227.4 117.52,208.1 690.42,303.6 947.49,252.2 257.08,-51.5 624.32,-1087.1 624.32,-1087.1 l 358.19,21.2 c 0,0 -240.67,757.4 -563.85,1146.7 -323.17,389.2 -844.66,271.7 -844.66,271.7 l -1161.02,1491 59.29,-594.9" /><path
         id="path28"
         style="fill:#c1bfbd;fill-opacity:1;fill-rule:nonzero;stroke:none"
         d="m 3728.45,6406.9 3459.44,-602.3 v -199.9 l -3731.2,647.9 271.76,154.3" /><path
         id="path30"
         style="fill:#c1bfbd;fill-opacity:1;fill-rule:nonzero;stroke:none"
         d="m 4862.44,7495.5 -20.02,-160.7 c 0,0 -886.28,-413.8 -1745.63,-1111.5 L 2421.06,5665 1319.33,5430 v -330.5 l 2186.48,448 -34.43,279.1 -482.16,-95.5 c 0,0 665.78,528.9 1275.41,925.5 609.62,396.6 886.28,457.8 1473.87,467.6 587.59,9.8 1566.91,181.2 1566.91,181.2 0,0 58.76,78.3 0,191 -58.76,112.6 -670.84,127.3 -807.94,117.5 -137.1,-9.8 -1683.43,-113.2 -1635.03,-118.4" /><path
         id="path32"
         style="fill:#c1bfbd;fill-opacity:1;fill-rule:nonzero;stroke:none"
         d="m 3785.07,8318.2 -323.49,-1815.8 -235.03,-191 421.1,2325.9 137.42,-319.1" /><path
         id="path34"
         style="fill:#48484a;fill-opacity:1;fill-rule:nonzero;stroke:none"
         d="m 4448.25,7817.1 156.47,-58.8 401.74,359.9 c 0,0 -697.77,1106.5 -793.25,1265.7 -95.48,159.2 -800.59,404.1 -800.59,404.1 0,0 -241.38,39.1 -328.07,0 -86.7,-39.2 -119.97,-222.8 -75.9,-311 44.07,-88.1 1439.6,-1659.9 1439.6,-1659.9" /><path
         id="path36"
         style="fill:#48484a;fill-opacity:1;fill-rule:nonzero;stroke:none"
         d="m 4692.26,7698.8 c -3.26,19.5 -110.99,88.6 -110.99,88.6 0,0 -22.85,57.4 35.91,88.9 58.76,31.4 264.6,130.2 264.6,130.2 0,0 933.43,113.4 1080.33,116.6 146.9,3.3 483.13,-35.9 652.88,-55.5 169.75,-19.5 332.97,-13 414.58,-52.2 81.61,-39.2 251.35,-117.5 251.35,-117.5 l 24.49,-186.1 c 0,0 -337.87,-117.5 -494.56,-117.5 -156.69,0 -1090.31,-39.2 -1279.64,-19.6 -189.33,19.6 -838.95,124.1 -838.95,124.1" /><path
         id="path38"
         style="fill:#343434;fill-opacity:1;fill-rule:nonzero;stroke:none"
         d="m 4581.27,7525.7 v 261.7 l 1651.78,-80.5 1054.64,51.4 17.72,-46.5 v -215.4 l -1266.54,-127.3 -1457.6,156.6" /><path
         id="path40"
         style="fill:#343434;fill-opacity:1;fill-rule:nonzero;stroke:none"
         d="m 2301.09,10708.5 -235.03,-249.7 2316.08,-2884.1 222.58,183.6 -2205.7,2732.3 -97.93,217.9" /><path
         id="path42"
         style="fill:#1d1b1a;fill-opacity:1;fill-rule:nonzero;stroke:none"
         d="m 5992.53,12302.5 -173.48,3.1 -1.47,-42.9 c -172.94,-84.6 -297.73,-295.6 -302.14,-544.7 -4.24,-240.2 104.67,-448.9 264.76,-544.8 l -1.81,-52.7 193.19,-3.4 c 257.7,-4.6 471.31,257.1 477.09,584.4 5.79,327.4 -198.43,596.4 -456.14,601" /><path
         id="path44"
         style="fill:#343434;fill-opacity:1;fill-rule:nonzero;stroke:none"
         d="m 6275.19,11704.6 c -5.79,-327.3 -219.39,-589 -477.09,-584.5 -257.71,4.6 -461.93,273.7 -456.14,601 5.79,327.3 219.39,589 477.09,584.5 257.71,-4.6 461.93,-273.7 456.14,-601" /><path
         id="path46"
         style="fill:#c37140;fill-opacity:1;fill-rule:nonzero;stroke:none"
         d="m 5576.91,11090.5 -39.17,221.9 58.76,310.2 114.25,153.4 71.82,88.1 c 0,0 117.52,-81.5 130.57,-114.2 13.06,-32.7 -133.84,-669.2 -133.84,-669.2 0,0 -81.61,-111 -94.66,-98 -13.06,13.1 -107.73,107.8 -107.73,107.8" /><path
         id="path48"
         style="fill:#c37140;fill-opacity:1;fill-rule:nonzero;stroke:none"
         d="m 4019.8,11469.1 c 0,0 284,-6.5 512.51,-143.6 228.5,-137.1 372.14,-649.6 372.14,-649.6 l 378.66,-342.8 c 0,0 52.24,150.2 159.96,355.8 107.73,205.7 133.84,401.6 133.84,401.6 l 202.39,-9.8 c 0,0 19.59,-395 22.85,-600.7 3.27,-205.6 -45.7,-408 -55.49,-515.7 -9.79,-107.8 -46.75,-300.8 -121.31,-354.5 -74.55,-53.6 -551.16,63.9 -583.8,125.9 -32.64,62.1 -267.68,169.8 -375.4,430.9 -107.73,261.2 -541.6,946 -540.12,998.6 1.49,52.6 -106.23,303.9 -106.23,303.9" /><path
         id="path50"
         style="fill:#c37140;fill-opacity:1;fill-rule:nonzero;stroke:none"
         d="m 5465.92,7548.6 c 0,0 169.75,-94.7 267.68,-120.8 0,0 3.27,-71.8 -71.82,-225.2 -75.08,-153.5 -127.31,-280.8 -140.36,-597.4 -13.06,-316.7 124.04,-966.3 166.48,-1220.9 42.44,-254.6 35.95,-447.2 45.72,-502.7 9.78,-55.5 -14.71,-146.9 -14.71,-198.3 0,-51.4 26.93,-142 29.38,-151.8 2.45,-9.8 -36.72,-193.4 -9.79,-254.6 26.93,-61.2 143.63,-381.2 171.38,-422 27.75,-40.8 110.99,-76.7 138.74,-94.6 27.74,-18 32.64,-44.1 75.08,-45.7 42.43,-1.7 42.43,-1.7 42.43,-1.7 0,0 34.28,-22.8 75.08,-19.5 40.81,3.2 40.81,3.2 40.81,3.2 0,0 40.81,-17.9 73.45,-14.7 32.64,3.3 42.44,13.1 42.44,13.1 0,0 40.8,-22 84.87,-13.5 44.07,8.6 66.92,21.6 66.92,21.6 0,0 57.13,-40.8 128.94,-11.4 71.82,29.4 62.03,135.5 31.01,176.3 -31.01,40.8 -269.31,298.7 -287.26,354.2 -17.95,55.5 -169.75,301.9 -177.91,421.1 -8.16,119.1 -34.28,208.9 -53.86,339.5 -19.59,130.6 -9.8,499.4 97.93,910.8 107.72,411.3 91.4,796.5 81.61,1044.6 -9.79,248.1 117.52,394.9 127.31,675.7 9.79,280.7 -102.83,450.5 -102.83,450.5 0,0 -127.4,146.9 -265.28,150.1 -137.87,3.3 -774.43,-195.8 -784.22,-297 -9.79,-101.2 120.78,-368.9 120.78,-368.9" /><path
         id="path52"
         style="fill:#c37140;fill-opacity:1;fill-rule:nonzero;stroke:none"
         d="m 7677.55,7785.3 c 0,0 430.9,-14.7 465.17,-39.2 34.28,-24.5 34.28,-142 -107.72,-284 -142,-142 -298.69,-323.2 -323.18,-626.8 -24.48,-303.6 137.11,-788.3 156.7,-1106.6 19.58,-318.3 4.89,-558.2 4.89,-558.2 h 430.9 c 0,0 137.11,1165.4 288.9,1650.1 151.8,484.8 137.11,759 137.11,759 0,0 83.24,284 34.27,455.4 -48.96,171.4 -288.9,416.2 -744.28,634.1 -455.38,217.9 -592.49,-100.4 -558.21,-310.9 34.27,-210.6 215.45,-572.9 215.45,-572.9" /><path
         id="path54"
         style="fill:#252323;fill-opacity:1;fill-rule:nonzero;stroke:none"
         d="m 4019.8,8989.8 c 0,0 94.66,-164.8 104.46,-197.5 9.79,-32.6 62.02,-254.6 117.51,-359.1 55.5,-104.4 430.9,-434.1 522.31,-502.7 91.4,-68.5 259.52,-96.3 318.27,-184.4 58.76,-88.1 406.42,-284 406.42,-284 0,0 112.62,303.6 411.32,475 298.69,171.3 494.55,127.3 494.55,127.3 l 55.09,-120 816.5,-129.8 39.18,-102.8 445.59,-73.4 c 0,0 24.48,318.2 137.1,651.2 112.62,333 132.21,379.5 132.21,379.5 0,0 -416.21,247.3 -768.76,374.6 -352.56,127.3 -1003.81,296.1 -1180.08,340.2 -176.28,44.1 -793.25,438.3 -793.25,438.3 l -523.94,53.9 c 0,0 -631.66,-308.5 -636.55,-333 -4.9,-24.4 -97.93,-553.3 -97.93,-553.3" /><path
         id="path56"
         style="fill:#e9eef1;fill-opacity:1;fill-rule:nonzero;stroke:none"
         d="m 3781.49,11312.4 c -6.52,13.1 -159.95,143.3 -159.95,143.3 0,0 231.77,20 365.61,16.7 133.84,-3.3 463.55,-164.8 571.27,-310.1 107.72,-145.3 142,-414.6 156.69,-458.7 14.69,-44 205.66,-347.6 249.72,-411.3 44.07,-63.6 214.84,-392.5 264.42,-430.9 63.52,-49.1 192.9,-136.6 192.9,-136.6 0,0 -354.49,-85.4 -746.21,-305.7 -391.73,-220.3 -656.15,-429.3 -656.15,-429.3 0,0 -151.79,102.9 -161.58,137.1 -9.79,34.3 -225.25,274.2 -470.07,430.9 -244.84,156.7 -303.59,230.2 -303.59,230.2 l -254.63,1052.7 c 0,0 9.45,607.2 48.8,661.1 39.34,53.8 164.96,231.1 262.14,207.3 97.17,-23.7 640.63,-396.7 640.63,-396.7" /><path
         id="path58"
         style="fill:#c37140;fill-opacity:1;fill-rule:nonzero;stroke:none"
         d="m 3202.06,11256.9 c 0,0 362.35,-73.4 577.8,-171.3 215.45,-98 347.66,-269.3 479.87,-186.1 132.21,83.2 -421.11,523.9 -421.11,523.9 l -303.59,102.9 -332.97,-269.4" /><path
         id="path60"
         style="fill:#a45330;fill-opacity:1;fill-rule:nonzero;stroke:none"
         d="m 2627.09,12110.2 c 0,0 -33.05,-9.4 -56.89,-26.8 -23.85,-17.4 -65.44,-111.5 -65.44,-111.5 h 99.92 l 22.41,138.3" /><path
         id="path62"
         style="fill:#1d1b1a;fill-opacity:1;fill-rule:nonzero;stroke:none"
         d="m 3502.39,12494.2 h -259.87 v -1331.9 h 259.87 c 132.51,0 239.93,298.1 239.93,665.9 0,367.8 -107.42,666 -239.93,666" /><path
         id="path64"
         style="fill:#343434;fill-opacity:1;fill-rule:nonzero;stroke:none"
         d="m 3482.45,11828.2 c 0,-367.8 -107.42,-665.9 -239.93,-665.9 -132.51,0 -239.93,298.1 -239.93,665.9 0,367.8 107.42,666 239.93,666 132.51,0 239.93,-298.2 239.93,-666" /><path
         id="path66"
         style="fill:#abaaa9;fill-opacity:1;fill-rule:nonzero;stroke:none"
         d="m 3312.71,11828.6 c 0,-79.1 -33.44,-143.2 -74.68,-143.2 -41.24,0 -74.67,64.1 -74.67,143.2 0,79.1 33.43,143.3 74.67,143.3 41.24,0 74.68,-64.2 74.68,-143.3" /><path
         id="path68"
         style="fill:#abaaa9;fill-opacity:1;fill-rule:nonzero;stroke:none"
         d="m 2006.07,11685.4 h 1231.96 v 286.461 H 2006.07 Z" /><path
         id="path70"
         style="fill:#c37140;fill-opacity:1;fill-rule:nonzero;stroke:none"
         d="m 2536.05,11359.6 c 0,0 -200.68,-105.9 -311.67,-295.2 -110.99,-189.4 26.11,-646.4 26.11,-646.4 0,0 8.98,-157.5 33.46,-250.5 24.49,-93.1 151.8,-320.8 151.8,-320.8 0,0 61.21,-190.9 139.55,-286.4 78.34,-95.5 215.45,-107.7 301.14,-137.1 85.69,-29.4 117.52,-49 176.28,-34.3 58.76,14.7 154.24,112.6 188.52,281.6 34.27,168.9 -79.98,672.4 -135.48,972.7 -55.49,300.4 -81.6,649.7 -81.6,682.3 0,32.7 91.16,304.4 116.7,383.6 25.54,79.3 -28.57,287.2 -43.26,310.1 -14.69,22.8 -84.99,0 -84.99,0 0,0 -21.35,55.1 -55.5,75.7 -34.15,20.6 -83.12,0 -83.12,0 0,0 -50.6,32 -75.08,40.2 -24.48,8.1 -84.63,-24.5 -84.63,-24.5 0,0 -3.5,14.4 -44.31,13.1 -101.25,-3.5 -87.32,-151.8 -87.32,-151.8 0,0 9.79,-134.7 -4.9,-161.6 -14.69,-27 -71.24,-101.2 -71.24,-101.2 l -22.21,-182.8 51.75,-166.7" /><path
         id="path72"
         style="fill:#a45330;fill-opacity:1;fill-rule:nonzero;stroke:none"
         d="m 2536.05,11359.6 c 0,0 67,-230 73.53,-331.2 6.53,-101.1 35.91,-212.1 0,-607.1 -35.91,-395 -28.01,-633.3 -28.01,-633.3 0,0 -65.03,287.2 -30.75,623.5 34.27,336.2 4.89,563.1 4.89,625.1 0,62 -45.35,308.1 -45.35,308.1 l 25.69,14.9" /><path
         id="path74"
         style="fill:#a45330;fill-opacity:1;fill-rule:nonzero;stroke:none"
         d="m 2335.37,10404.9 c 0,0 159.14,-34.2 222.79,-85.6 l 10.57,66.1 c 0,0 -151.95,53.5 -233.36,19.5" /><path
         id="path76"
         style="fill:#a45330;fill-opacity:1;fill-rule:nonzero;stroke:none"
         d="m 3003.81,11848.2 18.53,173.8 c -5.9,-1.6 -9.73,-2.8 -9.73,-2.8 0,0 -7.71,19.8 -21.2,40 l 12.4,-211" /><path
         id="path78"
         style="fill:#a45330;fill-opacity:1;fill-rule:nonzero;stroke:none"
         d="m 2878.72,11922.7 c -1.98,13.2 -3.91,131.3 -4.52,172.2 h -0.21 c 0,0 -21.46,13.5 -43.19,25.3 0.04,-0.2 44.17,-181 47.92,-197.5" /><path
         id="path80"
         style="fill:#a45330;fill-opacity:1;fill-rule:nonzero;stroke:none"
         d="m 2714.28,12003.7 c 31.18,-94.3 32.4,-101.6 31.18,-94.3 -1.23,7.4 -24.42,188.1 -31.18,201.2 0,0 -3.51,11.4 -44.31,13.1 -1.34,0 -2.69,-0.1 -4.03,-0.1 13.13,-27.2 31.36,-68.6 48.34,-119.9" /><path
         id="path82"
         style="fill:#100f0d;fill-opacity:1;fill-rule:nonzero;stroke:none"
         d="m 5415.32,9171 c 0,0 460.28,-386.8 651.25,-631.7 190.97,-244.8 328.07,-474.9 328.07,-474.9 l 55.09,-120 361.55,-57.5 c 0,0 -235.46,427.2 -504.78,686.7 -269.31,259.5 -744.28,572.9 -758.97,602.3 -14.69,29.4 -22.03,149.3 -22.03,149.3 L 5415.32,9171" /><path
         id="path84"
         style="fill:#a45330;fill-opacity:1;fill-rule:nonzero;stroke:none"
         d="m 6293.45,3765.2 c -32.65,63.6 -97.94,109.3 -97.94,109.3 0,0 48.97,-75.1 65.29,-104.4 16.32,-29.4 21.22,-73.5 21.22,-73.5 0,0 20.1,-8.8 43.36,-12.9 -7.32,24.4 -17.78,53.9 -31.93,81.5" /><path
         id="path86"
         style="fill:#a45330;fill-opacity:1;fill-rule:nonzero;stroke:none"
         d="m 6210.49,3695.4 c -8.06,28.4 -17.71,59.1 -26.4,77.9 -19.59,42.5 -75.08,88.2 -75.08,88.2 0,0 29.38,-57.2 47.33,-89.8 17.95,-32.6 9.79,-58.8 9.79,-58.8 0,0 18.45,-12.2 44.36,-17.5" /><path
         id="path88"
         style="fill:#a45330;fill-opacity:1;fill-rule:nonzero;stroke:none"
         d="m 6564.39,3801.1 c -39.17,96.3 -99.56,142 -99.56,142 0,0 40.8,-81.6 62.02,-137.1 21.22,-55.5 22.85,-102.9 22.85,-102.9 0,0 19.29,-13.6 49.44,-19.4 -7.53,35.8 -18.66,77.8 -34.75,117.4" /><path
         id="path90"
         style="fill:#a45330;fill-opacity:1;fill-rule:nonzero;stroke:none"
         d="m 6440.02,3681.4 c -6.05,36.7 -17.36,93.8 -33.95,131.1 -26.12,58.8 -93.04,130.6 -93.04,130.6 0,0 57.13,-91.4 73.45,-143.7 16.32,-52.2 11.43,-104.4 11.43,-104.4 0,0 17.6,-9.4 42.11,-13.6" /><path
         id="path92"
         style="fill:#c37140;fill-opacity:1;fill-rule:nonzero;stroke:none"
         d="m 7873.41,5170.5 c 0,0 -31.83,-97.9 -102.83,-244.8 -71,-146.9 -146.89,-374.6 88.14,-438.3 235.04,-63.6 421.11,2.5 604.73,-24.5 183.62,-26.9 301.14,-115 423.56,-142 122.41,-26.9 193.41,4.9 244.83,-14.7 51.41,-19.5 83.24,-36.7 168.93,-39.1 85.69,-2.5 151.79,61.2 142,97.9 -9.79,36.7 -75.9,22 -119.97,51.4 -44.07,29.4 -48.96,49 -134.65,102.8 -85.69,53.9 -257.07,93.1 -330.52,146.9 -73.45,53.9 -580.25,558.3 -580.25,558.3 0,0 -193.41,51.4 -200.76,48.9 -7.34,-2.4 -203.21,-102.8 -203.21,-102.8" /><path
         id="path94"
         style="fill:#a45330;fill-opacity:1;fill-rule:nonzero;stroke:none"
         d="m 5322.29,9967.5 c 0,0 -65.29,143.7 -39.18,365.6 l -59.9,54.3 c 0,0 -31.5,-240.3 99.08,-419.9" /><path
         id="path96"
         style="fill:#1d1b1a;fill-opacity:1;fill-rule:nonzero;stroke:none"
         d="m 5368.07,12399.5 h -179.62 l -0.74,-44.4 c -177.46,-90.8 -302.77,-311.4 -302.77,-569.3 0,-248.7 116.55,-462.7 284.01,-559.1 l -0.91,-54.6 h 200.03 c 266.83,0 483.13,274.8 483.13,613.7 0,338.9 -216.3,613.7 -483.13,613.7" /><path
         id="path98"
         style="fill:#343434;fill-opacity:1;fill-rule:nonzero;stroke:none"
         d="m 5671.58,11785.8 c 0,-338.9 -216.31,-613.7 -483.13,-613.7 -266.83,0 -483.13,274.8 -483.13,613.7 0,338.9 216.3,613.7 483.13,613.7 266.82,0 483.13,-274.8 483.13,-613.7" /><path
         id="path100"
         style="fill:#d5d7d3;fill-opacity:1;fill-rule:nonzero;stroke:none"
         d="m 5188.45,11805.1 c 0,-79.1 -45.17,-143.2 -100.89,-143.2 -55.72,0 -100.89,64.1 -100.89,143.2 0,79.1 45.17,143.2 100.89,143.2 55.72,0 100.89,-64.1 100.89,-143.2" /><path
         id="path102"
         style="fill:#724632;fill-opacity:1;fill-rule:nonzero;stroke:none"
         d="m 3076.34,11510.6 c 0,0 0,0 0.01,0 16.46,51.7 33.85,104.8 47.31,145.8 -13.46,-41 -30.85,-94.1 -47.32,-145.8 m 47.46,146.3 h 0.01 c 0,0 -0.01,0 -0.01,0 m -9.54,315 v 0 c -6.78,24.1 -12.97,41.5 -16.66,47.3 -4.89,7.6 -15.97,10.1 -28.56,10.1 -21.76,0 -48.03,-7.5 -54.79,-9.6 -1,-0.3 -1.57,-0.5 -1.63,-0.5 0.47,0.1 31.43,10.1 56.42,10.1 12.59,0 23.67,-2.5 28.56,-10.1 3.7,-5.8 9.88,-23.2 16.66,-47.3" /><path
         id="path104"
         style="fill:#a67961;fill-opacity:1;fill-rule:nonzero;stroke:none"
         d="m 3146.97,11744.8 c 4.53,66.4 -15.93,167.3 -32.71,227.1 v 0 c 16.79,-59.8 37.24,-160.7 32.71,-227.1" /><path
         id="path106"
         style="fill:#b36037;fill-opacity:1;fill-rule:nonzero;stroke:none"
         d="m 3012.6,12019.2 c -0.03,0.1 -0.15,0.4 -0.36,0.9 -2.85,7 -22.12,52.3 -51.77,72.6 31.78,-21.8 51.64,-72.2 52.13,-73.5 v 0" /><path
         id="path108"
         style="fill:#b36037;fill-opacity:1;fill-rule:nonzero;stroke:none"
         d="m 3076.35,11510.6 c 0.54,2.4 50.85,229.6 50.85,247.4 0,18 -30.6,202.8 -55.08,221.2 -14.85,11.1 -37.25,15.1 -52.59,16.4 l 2.81,26.4 c -3.6,-1 -6.43,-1.8 -8.09,-2.3 6.76,2.1 33.03,9.6 54.79,9.6 12.59,0 23.67,-2.5 28.56,-10.1 3.69,-5.8 9.88,-23.2 16.66,-47.3 16.78,-59.8 37.24,-160.7 32.71,-227.1 -0.93,-13.5 -2.88,-25.6 -6.11,-35.7 -4.17,-12.9 -10.08,-30.9 -17.05,-52.2 h -0.01 c -0.05,-0.2 -0.09,-0.3 -0.14,-0.5 -13.46,-41 -30.85,-94.1 -47.31,-145.8 m -81.74,494.3 c -14.52,15.2 -46.03,45.8 -70.61,54.3 -11.02,3.9 -20.82,5.2 -28.98,5.2 -8.86,0 -15.8,-1.6 -20.29,-2.9 -0.22,13.3 -0.4,25 -0.53,33.4 h -0.21 c 0,0 21.77,9.1 46.39,9.1 12.32,0 25.35,-2.3 36.73,-9.1 1.14,-0.7 2.26,-1.4 3.36,-2.2 29.65,-20.3 48.92,-65.6 51.77,-72.6 -1.68,4.1 -9.05,21.4 -20.83,39.1 l 3.2,-54.3 m -154.57,77.4 c -10.54,6.8 -23.07,13 -36.01,15.6 -5.78,1.2 -12.04,1.7 -18.46,1.7 -31.07,0 -65.75,-11.4 -66.07,-11.5 -2.14,11.8 -3.97,20.1 -5.22,22.5 0,0 47.52,25.8 75.28,25.8 3.47,0 6.63,-0.4 9.35,-1.3 24.26,-8.1 74.15,-39.6 75.07,-40.2 -0.6,0.4 -21.76,13.7 -43.18,25.3 0.02,-0.1 3.8,-15.6 9.24,-37.9" /><path
         id="path110"
         style="fill:#a45330;fill-opacity:1;fill-rule:nonzero;stroke:none"
         d="m 3019.53,11995.6 c -6.99,0.7 -12.51,0.8 -15.18,0.8 -1.14,0 -1.76,-0.1 -1.76,-0.1 0,0 -2.99,3.4 -7.98,8.6 l -3.2,54.3 c 11.78,-17.7 19.15,-35 20.83,-39.1 0.21,-0.5 0.33,-0.8 0.36,-0.9 0,0 0,0 0.01,0 v 0 0 0 0 0 c 0,0 0,0 0.01,0 0.06,0 0.63,0.2 1.63,0.5 1.66,0.5 4.49,1.3 8.09,2.3 l -2.81,-26.4" /><path
         id="path112"
         style="fill:#a45330;fill-opacity:1;fill-rule:nonzero;stroke:none"
         d="m 2868.91,12059.2 c 0,0 -11.84,12.2 -28.87,23.1 -5.44,22.3 -9.22,37.8 -9.24,37.9 21.42,-11.6 42.58,-24.9 43.18,-25.3 0.01,0 0.01,0 0.01,0 v 0 h 0.21 c 0.13,-8.4 0.31,-20.1 0.53,-33.4 -3.78,-1.2 -5.82,-2.3 -5.82,-2.3" /><path
         id="path114"
         style="fill:#703b25;fill-opacity:1;fill-rule:nonzero;stroke:none"
         d="m 2662.17,12123.1 c 0.01,0 0.02,0 0.03,0 -0.01,0 -0.02,0 -0.03,0 m 0.48,0 c 0.01,0 0.03,0 0.04,0 -0.01,0 -0.03,0 -0.04,0 m 1.79,0.2 c 0.06,0 0.11,0 0.17,0 -0.05,0 -0.11,0 -0.17,0 m 0.49,0.1 c 0.07,0 0.14,0 0.22,0 -0.07,0 -0.15,0 -0.22,0 m 0.51,0 c 0.08,0 0.16,0 0.25,0 -0.09,0 -0.17,0 -0.25,0 m 0.53,0 c 0.01,0 0.02,0 0.04,0 v 0 c -0.02,0 -0.03,0 -0.04,0" /><path
         id="path116"
         style="fill:#b36037;fill-opacity:1;fill-rule:nonzero;stroke:none"
         d="m 2593.62,12063.8 c 10.68,29.1 30.83,54.9 68.55,59.3 0.01,0 0.02,0 0.03,0 0.15,0 0.3,0 0.45,0 0.01,0 0.03,0 0.04,0 0.58,0.1 1.16,0.2 1.75,0.2 0.06,0 0.12,0 0.17,0 0.11,0 0.21,0 0.32,0.1 0.07,0 0.15,0 0.22,0 0.09,0 0.19,0 0.29,0 0.08,0 0.16,0 0.25,0 0.09,0 0.18,0 0.28,0 0.01,0 0.02,0 0.04,0 4.92,-10.2 10.55,-22.3 16.56,-36.3 -2.22,0 -4.58,-0.1 -7.08,-0.2 -32.51,-0.9 -66.37,-15.5 -81.87,-23.1" /><path
         id="path118"
         style="fill:#703b25;fill-opacity:1;fill-rule:nonzero;stroke:none"
         d="m 2704.02,12119.3 c -5.78,2.5 -14.75,4.4 -28.64,4.4 -1.73,0 -3.53,0 -5.41,0 v 0 c 1.89,0 3.69,0 5.42,0 13.88,0 22.85,-1.9 28.62,-4.4 h 0.01" /><path
         id="path120"
         style="fill:#703b25;fill-opacity:1;fill-rule:nonzero;stroke:none"
         d="m 2714.27,12110.6 c -0.1,0.4 -1.53,5 -10.25,8.7 h -0.01 c 8.73,-3.6 10.16,-8.3 10.26,-8.7" /><path
         id="path122"
         style="fill:#b36037;fill-opacity:1;fill-rule:nonzero;stroke:none"
         d="m 2714.28,12110.6 c 0,0 -3.51,11.4 -44.31,13.1 v 0 c 1.88,0 3.68,0 5.41,0 13.89,0 22.86,-1.9 28.64,-4.4 8.72,-3.7 10.15,-8.3 10.25,-8.7 0.01,0 0.01,0 0.01,0" /><path
         id="path124"
         style="fill:#a45330;fill-opacity:1;fill-rule:nonzero;stroke:none"
         d="m 2682.57,12087.1 c -6.01,14 -11.64,26.1 -16.56,36.3 v 0 c 1.3,0.1 2.62,0.2 3.96,0.3 v 0 0 0 c 40.8,-1.7 44.31,-13.1 44.31,-13.1 v 0 0 c 1.25,-2.4 3.08,-10.7 5.22,-22.5 v 0 c 0,0 0,0 -36.93,-1" /><path
         id="path126"
         style="fill:#c1bfbd;fill-opacity:1;fill-rule:nonzero;stroke:none"
         d="m 8216.17,5503.5 c -323.17,389.2 -844.66,271.7 -844.66,271.7 l -317.24,407.4 v -857.7 c 224.95,97.4 562.32,133.9 743.24,97.8 257.07,-51.5 624.32,-1087.1 624.32,-1087.1 l 358.19,21.2 c 0,0 -240.67,757.4 -563.85,1146.7" /><path
         id="path128"
         style="fill:#1d1b1a;fill-opacity:1;fill-rule:nonzero;stroke:none"
         d="m 2270.43,12494.2 h -259.87 v -1331.9 h 259.87 c 132.51,0 239.93,298.1 239.93,665.9 0,367.8 -107.42,666 -239.93,666" /><path
         id="path130"
         style="fill:#343434;fill-opacity:1;fill-rule:nonzero;stroke:none"
         d="m 2250.49,11828.2 c 0,-367.8 -107.42,-665.9 -239.93,-665.9 -132.51,0 -239.93,298.1 -239.93,665.9 0,367.8 107.42,666 239.93,666 132.51,0 239.93,-298.2 239.93,-666" /><path
         id="path132"
         style="fill:#d5d7d3;fill-opacity:1;fill-rule:nonzero;stroke:none"
         d="m 2080.75,11828.6 c 0,-79.1 -33.44,-143.2 -74.68,-143.2 -41.24,0 -74.67,64.1 -74.67,143.2 0,79.1 33.43,143.3 74.67,143.3 41.24,0 74.68,-64.2 74.68,-143.3" /><path
         id="path134"
         style="fill:#2f1d16;fill-opacity:1;fill-rule:nonzero;stroke:none"
         d="m 11539.3,12542.1 c 0,0 11.1,127.5 45.3,178.4 34.2,50.8 88.1,127.4 88.1,127.4 0,0 51.8,72.3 94.2,92.2 42.3,19.9 87.5,34 87.5,34 0,0 36.8,62.2 103.9,80.2 67.2,18 88.6,10.7 102.5,13.5 14,2.8 49.4,44.3 113.7,52.8 64.3,8.5 98.2,-15.7 110.2,-14.1 12.1,1.6 67.5,15.1 103.7,4.5 36.1,-10.6 59.9,-16.6 76.5,-48.2 16.7,-31.7 57.8,-34.7 85.8,-61 28,-26.3 16.4,-52.3 25.7,-92 9.3,-39.6 21.6,-91.2 13.3,-160.6 0,0 -63.4,106.3 -67.6,107.1 -4.2,0.8 -292.8,-22.2 -292.8,-22.2 0,0 -480.4,-248.3 -491.2,-254.7 -10.7,-6.4 -198.8,-37.3 -198.8,-37.3" /><path
         id="path136"
         style="fill:#1d1b1a;fill-opacity:1;fill-rule:nonzero;stroke:none"
         d="M 14375.4,15738.9 H 14117 v -262.8 c -37.3,-103 -59.3,-229.1 -59.3,-365.5 0,-136.4 22,-262.6 59.3,-365.6 v -262.7 h 258.4 c 175.5,0 317.7,281.3 317.7,628.3 0,347 -142.2,628.3 -317.7,628.3" /><path
         id="path138"
         style="fill:#343434;fill-opacity:1;fill-rule:nonzero;stroke:none"
         d="m 14434.8,15110.6 c 0,-347 -142.3,-628.3 -317.8,-628.3 -175.4,0 -317.7,281.3 -317.7,628.3 0,347 142.3,628.3 317.7,628.3 175.5,0 317.8,-281.3 317.8,-628.3" /><path
         id="path140"
         style="fill:#abaaa9;fill-opacity:1;fill-rule:nonzero;stroke:none"
         d="m 14220.4,15104.4 c 0,-77.2 -32.6,-139.8 -72.8,-139.8 -40.3,0 -72.9,62.6 -72.9,139.8 0,77.2 32.6,139.8 72.9,139.8 40.2,0 72.8,-62.6 72.8,-139.8" /><path
         id="path142"
         style="fill:#abaaa9;fill-opacity:1;fill-rule:nonzero;stroke:none"
         d="m 14147.6,15135.1 v 109.1 l -973.1,87.8 v -279.5 l 973.1,-87.9 v 170.5" /><path
         id="path144"
         style="fill:#c37140;fill-opacity:1;fill-rule:nonzero;stroke:none"
         d="m 13799.3,14599.7 c 0,0 -10.9,91.3 -53.2,143.6 -42.3,52.3 -88,184.5 -71.6,235.1 16.3,50.6 79.9,318.2 86.5,329.7 6.5,11.4 74.8,25.1 80.6,23.9 5.9,-1.1 98.9,-10.9 121.8,-17.4 22.8,-6.5 62.6,-47.3 62.6,-47.3 0,0 76.1,-45.7 82.6,-55.5 6.6,-9.8 -3.2,-302 -9.7,-339.5 -6.6,-37.6 -67,-222 -67,-222 0,0 -102.8,-60.4 -124,-62 -21.3,-1.7 -108.6,11.4 -108.6,11.4" /><path
         id="path146"
         style="fill:#a45330;fill-opacity:1;fill-rule:nonzero;stroke:none"
         d="m 13953.1,15156.3 c -2.8,4.9 -24,62 -37.1,75.1 -13,13 -95.6,75.5 -95.6,75.5 l 21.2,25.1 77.7,-71.3 33.8,-104.4" /><path
         id="path148"
         style="fill:#a45330;fill-opacity:1;fill-rule:nonzero;stroke:none"
         d="m 13963.4,15314.6 c -23.9,4.7 31,-57.7 37.5,-70.4 6.5,-12.8 32.6,-133.6 32.6,-133.6 l -7.5,156.7 c 0,0 -39.5,42.7 -62.6,47.3" /><path
         id="path150"
         style="fill:#1d1b1a;fill-opacity:1;fill-rule:nonzero;stroke:none"
         d="m 13523.9,15820.6 h -258.4 v -262.8 c -37.3,-103 -59.3,-229.1 -59.3,-365.5 0,-136.4 22,-262.5 59.3,-365.5 V 14564 h 258.4 c 175.5,0 317.7,281.3 317.7,628.3 0,347 -142.2,628.3 -317.7,628.3" /><path
         id="path152"
         style="fill:#343434;fill-opacity:1;fill-rule:nonzero;stroke:none"
         d="m 13583.3,15192.3 c 0,-347 -142.3,-628.3 -317.8,-628.3 -175.4,0 -317.7,281.3 -317.7,628.3 0,347 142.3,628.3 317.7,628.3 175.5,0 317.8,-281.3 317.8,-628.3" /><path
         id="path154"
         style="fill:#d5d7d3;fill-opacity:1;fill-rule:nonzero;stroke:none"
         d="m 13247.3,15192.3 c 0,-77.2 -32.6,-139.8 -72.8,-139.8 -40.3,0 -72.9,62.6 -72.9,139.8 0,77.2 32.6,139.7 72.9,139.7 40.2,0 72.8,-62.5 72.8,-139.7" /><path
         id="path156"
         style="fill:#1d1b1a;fill-opacity:1;fill-rule:nonzero;stroke:none"
         d="m 12690.3,15966.8 h -264.8 v -269.3 c -38.2,-105.6 -60.8,-234.9 -60.8,-374.6 0,-139.8 22.6,-269.1 60.8,-374.7 v -269.3 h 264.8 c 179.8,0 325.6,288.3 325.6,644 0,355.6 -145.8,643.9 -325.6,643.9" /><path
         id="path158"
         style="fill:#343434;fill-opacity:1;fill-rule:nonzero;stroke:none"
         d="m 12751.2,15322.9 c 0,-355.7 -145.8,-644 -325.7,-644 -179.8,0 -325.6,288.3 -325.6,644 0,355.6 145.8,643.9 325.6,643.9 179.9,0 325.7,-288.3 325.7,-643.9" /><path
         id="path160"
         style="fill:#abaaa9;fill-opacity:1;fill-rule:nonzero;stroke:none"
         d="m 12454,15382.3 v 83.8 l -1142.4,59.5 v -286.5 l 1142.4,-59.5 v 202.7" /><g
         transform="scale(1.10534)"
         id="g162"><path
           id="path164"
           style="fill:#c1bfbd;fill-opacity:1;fill-rule:nonzero;stroke:none"
           d="m 14028.9,6035.53 664.5,-917 c 0,0 -285.7,-77.35 -451.8,-347.68 -166.2,-270.32 -36.2,-1203.52 -36.2,-1203.52 h 288.7 c 0,0 -46.6,922.16 59.8,1110.43 106.3,188.27 624.6,274.67 857.2,228.16 232.5,-46.59 564.8,-983.5 564.8,-983.5 l 324.1,19.18 c 0,0 -217.8,685.22 -510.2,1037.42 -292.4,352.11 -764.1,245.81 -764.1,245.81 l -1050.4,1348.91 53.6,-538.21" /></g><path
         id="path166"
         style="fill:#c1bfbd;fill-opacity:1;fill-rule:nonzero;stroke:none"
         d="m 13022,8318.2 -323.5,-1815.8 -235,-191 421.1,2325.9 137.4,-319.1" /><g
         transform="scale(1.01847)"
         id="g168"><path
           id="path170"
           style="fill:#c1bfbd;fill-opacity:1;fill-rule:nonzero;stroke:none"
           d="m 13843.7,7359.55 -19.7,-157.78 c 0,0 -870.2,-406.3 -1714,-1091.34 l -663.4,-548.18 -1081.8,-230.74 v -324.5 l 2146.9,439.87 -33.9,274.04 -473.4,-93.77 c 0,0 653.7,519.31 1252.3,908.72 598.6,389.4 870.2,449.49 1447.1,459.11 576.9,9.63 1538.5,177.92 1538.5,177.92 0,0 57.7,76.88 0,187.54 -57.7,110.55 -658.7,124.99 -793.3,115.37 -134.6,-9.63 -1652.8,-111.15 -1605.3,-116.26" /></g><g
         transform="scale(1.00766)"
         id="g172"><path
           id="path174"
           style="fill:#c1bfbd;fill-opacity:1;fill-rule:nonzero;stroke:none"
           d="M 12866.9,6358.22 16300,5760.5 v -198.39 l -3702.8,642.98 269.7,153.13" /></g><g
         transform="scale(1.01487)"
         id="g176"><path
           id="path178"
           style="fill:#48484a;fill-opacity:1;fill-rule:nonzero;stroke:none"
           d="m 13725.2,7586.03 c -3.3,19.22 -109.4,87.31 -109.4,87.31 0,0 -22.5,56.56 35.4,87.59 57.9,30.94 260.7,128.3 260.7,128.3 0,0 919.8,111.74 1064.6,114.89 144.6,3.25 476,-35.38 643.2,-54.69 167.3,-19.21 328.1,-12.81 408.5,-51.43 80.4,-38.63 247.8,-115.78 247.8,-115.78 l 24,-183.38 c 0,0 -332.9,-115.78 -487.3,-115.78 -154.4,0 -1074.3,-38.62 -1260.8,-19.31 -186.6,19.31 -826.7,122.28 -826.7,122.28" /></g><g
         transform="scale(1.01487)"
         id="g180"><path
           id="path182"
           style="fill:#343434;fill-opacity:1;fill-rule:nonzero;stroke:none"
           d="m 13615.8,7415.47 v 257.87 l 1627.6,-79.33 1039.2,50.65 17.4,-45.82 V 7386.6 l -1247.9,-125.44 -1436.3,154.31" /></g><path
         id="path184"
         style="fill:#48484a;fill-opacity:1;fill-rule:nonzero;stroke:none"
         d="m 13685.2,7817.1 156.5,-58.8 401.7,359.9 c 0,0 -697.8,1106.5 -793.2,1265.7 -95.5,159.2 -800.6,404.1 -800.6,404.1 0,0 -241.4,39.1 -328.1,0 -86.7,-39.2 -120,-222.8 -75.9,-311 44.1,-88.1 1439.6,-1659.9 1439.6,-1659.9" /><path
         id="path186"
         style="fill:#48484a;fill-opacity:1;fill-rule:nonzero;stroke:none"
         d="m 11466.1,10583.7 -2,101.4 337.7,29.4 2252.1,-2113.8 c 0,0 -1597.2,766.2 -1665.3,817.6 -68,51.4 -922.5,1165.4 -922.5,1165.4" /><path
         id="path188"
         style="fill:#c37140;fill-opacity:1;fill-rule:nonzero;stroke:none"
         d="m 14702.9,7548.6 c 0,0 169.7,-94.7 267.6,-120.8 0,0 3.3,-71.8 -71.8,-225.2 -75.1,-153.5 -127.3,-280.8 -140.3,-597.4 -13.1,-316.7 124,-966.3 166.4,-1220.9 42.5,-254.6 36,-447.2 45.8,-502.7 9.7,-55.5 -14.7,-146.9 -14.7,-198.3 0,-51.4 26.9,-142 29.3,-151.8 2.5,-9.8 -36.7,-193.4 -9.8,-254.6 27,-61.2 143.7,-381.2 171.4,-422 27.8,-40.8 111,-76.7 138.8,-94.6 27.7,-18 32.6,-44.1 75,-45.7 42.5,-1.7 42.5,-1.7 42.5,-1.7 0,0 34.3,-22.8 75.1,-19.5 40.8,3.2 40.8,3.2 40.8,3.2 0,0 40.8,-17.9 73.4,-14.7 32.7,3.3 42.4,13.1 42.4,13.1 0,0 40.9,-22 84.9,-13.5 44.1,8.6 66.9,21.6 66.9,21.6 0,0 57.2,-40.8 129,-11.4 71.8,29.4 62,135.5 31,176.3 -31,40.8 -269.3,298.7 -287.3,354.2 -17.9,55.5 -169.7,301.9 -177.9,421.1 -8.1,119.1 -34.3,208.9 -53.8,339.5 -19.6,130.6 -9.8,499.4 97.9,910.8 107.7,411.3 91.4,796.5 81.6,1044.6 -9.8,248.1 117.5,394.9 127.3,675.7 9.8,280.7 -102.8,450.5 -102.8,450.5 0,0 -127.4,146.9 -265.3,150.1 -137.9,3.3 -774.4,-195.8 -784.2,-297 -9.8,-101.2 120.8,-368.9 120.8,-368.9" /><path
         id="path190"
         style="fill:#e9eef1;fill-opacity:1;fill-rule:nonzero;stroke:none"
         d="m 11692.3,11118.5 c 0,0 28.4,-235.3 101.9,-478.5 73.4,-243.2 431.2,-734.1 580.2,-859.4 149,-125.2 280.8,-46.5 197.9,203.2 -82.8,249.8 -264,612.1 -288.5,661.1 -24.5,48.9 -106.1,215.4 -141.2,264.4 -35,49 -450.3,209.2 -450.3,209.2" /><g
         transform="scale(1.10739)"
         id="g192"><path
           id="path194"
           style="fill:#c37140;fill-opacity:1;fill-rule:nonzero;stroke:none"
           d="m 15274.2,7030.3 c 0,0 389.1,-13.28 420.1,-35.4 30.8,-22.12 30.8,-128.23 -97.4,-256.46 -128.2,-128.23 -269.6,-291.85 -291.8,-566.01 -22.1,-274.16 123.8,-711.86 141.5,-999.29 17.7,-287.43 4.5,-504.06 4.5,-504.06 h 389.1 c 0,0 123.8,1052.38 260.9,1490.07 137,437.79 123.8,685.4 123.8,685.4 0,0 75.1,256.46 30.9,411.23 -44.2,154.78 -260.9,375.84 -672.1,572.61 -411.2,196.77 -535,-90.67 -504.1,-280.75 30.9,-190.18 194.6,-517.34 194.6,-517.34" /></g><g
         transform="scale(1.05873)"
         id="g196"><path
           id="path198"
           style="fill:#252323;fill-opacity:1;fill-rule:nonzero;stroke:none"
           d="m 12521.3,8491.12 c 0,0 89.5,-155.66 98.7,-186.55 9.3,-30.79 58.6,-240.48 111,-339.18 52.4,-98.61 407,-410.02 493.3,-474.81 86.4,-64.7 245.1,-90.96 300.7,-174.17 55.5,-83.22 383.8,-268.25 383.8,-268.25 0,0 106.4,286.76 388.5,448.65 282.1,161.8 467.2,120.24 467.2,120.24 l 52,-113.35 771.2,-122.59 37,-97.1 420.8,-69.33 c 0,0 23.2,300.55 129.5,615.08 106.5,314.53 125,358.45 125,358.45 0,0 -393.2,233.58 -726.2,353.82 -333,120.23 -948.1,279.67 -1114.6,321.33 -166.5,41.65 -749.2,413.98 -749.2,413.98 l -494.9,50.91 c 0,0 -596.6,-291.38 -601.2,-314.53 -4.6,-23.04 -92.6,-522.6 -92.6,-522.6" /></g><path
         id="path200"
         style="fill:#c37140;fill-opacity:1;fill-rule:nonzero;stroke:none"
         d="m 13235.4,11433.2 c -1.6,11.5 89.8,125.7 89.8,125.7 0,0 -0.8,92.2 87.3,248.9 88.1,156.7 127.3,284 127.3,284 0,0 16.7,286.5 68.4,619.4 51.6,333 85.8,460.3 85.8,460.3 0,0 -97.9,298.7 -19.5,646.4 78.3,347.6 122.4,832.4 122.4,832.4 h 235 c 0,0 109.4,-628.4 142,-896.1 32.7,-267.7 13.1,-566.4 13.1,-712.4 0,-146.1 48.9,-413.8 68.5,-658.6 19.6,-244.9 -26.1,-440.7 -84.9,-587.6 -58.7,-146.9 -116.7,-362.4 -116.7,-362.4 0,0 10.7,-173 0,-362.3 -10.6,-189.4 -101.8,-367.3 -101.8,-367.3 0,0 -189.5,69.8 -264.6,135.3 -75.1,65.5 -81.6,85.1 -159.9,183 -78.4,98 -292.2,411.3 -292.2,411.3" /><path
         id="path202"
         style="fill:#a45330;fill-opacity:1;fill-rule:nonzero;stroke:none"
         d="m 13664.7,11178.6 c 26.1,55.5 94.6,251.4 120.7,391.7 26.2,140.4 39.2,225.3 39.2,225.3 0,0 13.1,-146.9 -19.6,-355.8 -32.6,-209 -59.1,-346.1 -59.1,-346.1 l -81.2,84.9" /><path
         id="path204"
         style="fill:#e9eef1;fill-opacity:1;fill-rule:nonzero;stroke:none"
         d="m 13018.4,11312.4 c -6.5,13.1 -159.9,143.3 -159.9,143.3 0,0 231.8,20 365.6,16.7 133.8,-3.3 463.5,-164.8 571.3,-310.1 107.7,-145.3 142,-414.6 156.7,-458.7 14.6,-44 205.6,-347.6 249.7,-411.3 44,-63.6 214.8,-392.5 264.4,-430.9 63.5,-49.1 192.9,-136.6 192.9,-136.6 0,0 -354.5,-85.4 -746.2,-305.7 -391.7,-220.3 -656.2,-429.3 -656.2,-429.3 0,0 -151.8,102.9 -161.5,137.1 -9.8,34.3 -225.3,274.2 -470.1,430.9 -244.9,156.7 -324.9,318.3 -324.9,318.3 l -233.3,964.6 c 0,0 9.4,607.2 48.8,661.1 39.3,53.8 164.9,231.1 262.1,207.3 97.2,-23.7 640.6,-396.7 640.6,-396.7" /><path
         id="path206"
         style="fill:#c37140;fill-opacity:1;fill-rule:nonzero;stroke:none"
         d="m 12692.4,11711.3 c 0,0 244.3,-225.8 260.6,-229.1 16.4,-3.3 127,-12.2 127,-12.2 0,0 385.5,-209.8 410,-479.1 24.5,-269.3 -156.7,-160 -341.1,-52.2 -184.4,107.7 -463.6,357.4 -488,396.6 -24.5,39.2 -203.4,354.9 -203.4,354.9 l 234.9,21.1" /><path
         id="path208"
         style="fill:#a45330;fill-opacity:1;fill-rule:nonzero;stroke:none"
         d="m 12084.9,11704.9 c 0,0 346.2,-180.3 487.4,-177 141.2,3.3 262.1,54.1 262.1,54.1 l -113.1,236.4 c 0,0 -287.3,26.1 -349.3,32.7 -62.1,6.5 -287.1,-146.2 -287.1,-146.2" /><path
         id="path210"
         style="fill:#2f1d16;fill-opacity:1;fill-rule:nonzero;stroke:none"
         d="m 12371.1,13084.1 c -208.6,34.8 -384.1,-50.3 -471.5,-109.1 -87.4,-58.7 -222,-173.4 -222,-173.4 -34.4,-30.7 -68.7,-64.2 -83.4,-100 -23.5,-57.3 -15.3,-101.3 -15.3,-101.3 0,0 -129.5,-73.7 -73.3,-268.9 56.2,-195.3 161.4,-329.6 242.5,-420.3 81.2,-90.7 301.1,-211.3 301.1,-211.3 l -13.2,294.6 c 147.7,-9.7 176.8,401.7 149,427.7 -17.7,16.5 338.7,248.5 338.7,248.5 l 73.7,79.1 c 0,0 -1.9,136.6 -103.8,248.3 -31.9,35.1 -76.5,63.6 -122.5,86.1" /><path
         id="path212"
         style="fill:#c37140;fill-opacity:1;fill-rule:nonzero;stroke:none"
         d="m 12521.6,12799.4 c 0,0 59,-33.8 75.8,-49.7 16.8,-15.8 97.3,-189.9 118.9,-233.5 21.6,-43.5 35.4,-109 44.4,-130.6 9.1,-21.7 67.5,-153.2 83.4,-207.6 16,-54.4 42.7,-280.6 46.3,-341.9 3.6,-61.2 5.7,-143.4 -14.2,-168.7 -20,-25.3 -131.6,-78.8 -245.3,-90.7 -113.7,-11.9 -367.6,39.6 -450.6,88 -82.9,48.4 -137.3,198.7 -137.3,198.7 0,0 -37,-29.1 -98.4,-3.9 -61.4,25.2 -169.9,90.1 -199,200 -29,110 66.1,105.6 124,80.7 57.9,-25 85.9,-87.9 95.2,-85.7 9.3,2.2 16.7,8.7 20.4,11.9 3.8,3.3 -20.7,118.5 -28.3,140.8 -7.6,22.3 -66.2,150.4 -65.2,155.9 1.1,5.5 54.3,180.4 83.5,207.9 29.2,27.4 546.4,228.4 546.4,228.4" /><path
         id="path214"
         style="fill:#2f1d16;fill-opacity:1;fill-rule:nonzero;stroke:none"
         d="m 11978,12092.3 c 0,0 -15.1,74.2 -10.7,123.9 4.3,49.6 -19.9,68.2 -33,115.6 -13,47.3 42.7,85 30.9,148.5 -11.9,63.5 33.6,103.9 33.6,103.9 0,0 -73.9,25.7 -78.4,18.3 -4.5,-7.4 -106.6,-101.2 -121.6,-163.2 -15,-61.9 -57.5,-70.3 -5.7,-142.5 51.8,-72.2 184.9,-204.5 184.9,-204.5" /><path
         id="path216"
         style="fill:#a45330;fill-opacity:1;fill-rule:nonzero;stroke:none"
         d="m 12653.3,12511.1 c 0,0 -14.5,-167.1 -56.1,-323.8 -41.6,-156.7 -168.9,-401.5 -168.9,-401.5 l 0.1,-63.1 -56.4,63.1 c 0,0 -53.9,374.6 0,438.2 53.8,63.7 281.3,287.1 281.3,287.1" /><path
         id="path218"
         style="fill:#100f0d;fill-opacity:1;fill-rule:nonzero;stroke:none"
         d="m 14652.3,9171 c 0,0 460.2,-386.8 651.2,-631.7 191,-244.8 328.1,-474.9 328.1,-474.9 l 55.1,-120 393.6,-68.1 c 0,0 -267.5,437.8 -536.9,697.3 -269.3,259.5 -744.2,572.9 -758.9,602.3 -14.7,29.4 -22.1,149.3 -22.1,149.3 L 14652.3,9171" /><path
         id="path220"
         style="fill:#a45330;fill-opacity:1;fill-rule:nonzero;stroke:none"
         d="m 15530.4,3765.2 c -32.7,63.6 -97.9,109.3 -97.9,109.3 0,0 48.9,-75.1 65.2,-104.4 16.4,-29.4 21.3,-73.5 21.3,-73.5 0,0 20.1,-8.8 43.3,-12.9 -7.3,24.4 -17.8,53.9 -31.9,81.5" /><path
         id="path222"
         style="fill:#a45330;fill-opacity:1;fill-rule:nonzero;stroke:none"
         d="m 15447.4,3695.4 c -8,28.4 -17.7,59.1 -26.4,77.9 -19.6,42.5 -75.1,88.2 -75.1,88.2 0,0 29.4,-57.2 47.4,-89.8 17.9,-32.6 9.8,-58.8 9.8,-58.8 0,0 18.4,-12.2 44.3,-17.5" /><path
         id="path224"
         style="fill:#a45330;fill-opacity:1;fill-rule:nonzero;stroke:none"
         d="m 15801.3,3801.1 c -39.1,96.3 -99.5,142 -99.5,142 0,0 40.8,-81.6 62,-137.1 21.2,-55.5 22.8,-102.9 22.8,-102.9 0,0 19.3,-13.6 49.5,-19.4 -7.5,35.8 -18.7,77.8 -34.8,117.4" /><path
         id="path226"
         style="fill:#a45330;fill-opacity:1;fill-rule:nonzero;stroke:none"
         d="m 15677,3681.4 c -6.1,36.7 -17.4,93.8 -34,131.1 -26.1,58.8 -93,130.6 -93,130.6 0,0 57.1,-91.4 73.4,-143.7 16.3,-52.2 11.4,-104.4 11.4,-104.4 0,0 17.6,-9.4 42.2,-13.6" /><g
         transform="scale(1.1466)"
         id="g228"><path
           id="path230"
           style="fill:#c37140;fill-opacity:1;fill-rule:nonzero;stroke:none"
           d="m 14922.8,4509.44 c 0,0 -27.8,-85.38 -89.8,-213.5 -61.9,-128.12 -128.1,-326.71 77,-382.26 204.9,-55.47 367.2,2.18 527.4,-21.37 160.1,-23.46 262.6,-100.3 369.3,-123.85 106.9,-23.46 168.8,4.28 213.6,-12.82 44.8,-17.01 72.6,-32.01 147.3,-34.1 74.8,-2.18 132.4,53.38 123.9,85.38 -8.6,32.01 -66.2,19.19 -104.7,44.83 -38.4,25.64 -42.7,42.74 -117.4,89.66 -74.7,47.01 -224.2,81.2 -288.2,128.12 -64.1,47.01 -506.1,486.92 -506.1,486.92 0,0 -168.7,44.83 -175.1,42.65 -6.4,-2.1 -177.2,-89.66 -177.2,-89.66" /></g><path
         id="path232"
         style="fill:#343434;fill-opacity:1;fill-rule:nonzero;stroke:none"
         d="m 11464.1,10685.1 -161.1,-226.3 2316.1,-2884.1 222.6,183.6 -2205.7,2732.3 -171.9,194.5" /><path
         id="path234"
         style="fill:#c37140;fill-opacity:1;fill-rule:nonzero;stroke:none"
         d="m 12048.8,14702 c 0,0 6.5,-425.5 -16.3,-680.1 -22.9,-254.6 -75.1,-339.5 -19.6,-581.1 55.5,-241.5 97.9,-300.3 91.4,-460.2 -6.5,-160 -130.6,-483.2 -173,-581.1 -42.5,-97.9 -102,-140.5 -186.1,-287.3 -84.1,-146.8 -52.2,-404.8 -49,-385.2 3.3,19.6 -55.5,-133.8 -58.7,-261.1 -3.3,-127.3 75.1,-430.9 75.1,-430.9 0,0 -13.8,-537 517.4,-522.3 531.2,14.7 482.6,979.5 142,1273.1 0,0 249.7,467.6 298.7,821.4 48.9,353.8 0,539.8 0,539.8 0,0 34.2,318.3 -39.2,651.3 -73.5,333 -230.2,940.1 -230.2,940.1 l -352.5,-36.4" /><path
         id="path236"
         style="fill:#a45330;fill-opacity:1;fill-rule:nonzero;stroke:none"
         d="m 12372,11785.8 c 0,0 -6.6,-189.4 -22.9,-336.2 -16.3,-146.9 -29.4,-231.8 -29.4,-231.8 0,0 122.9,260 137.8,480.5 l -85.5,87.5" /><path
         id="path238"
         style="fill:#da8257;fill-opacity:1;fill-rule:nonzero;stroke:none"
         d="m 12012.9,12477.8 c 57.2,169 81.2,387.5 88.7,469.5 -19.7,-167.8 -130.7,-456.2 -170.3,-547.8 -42.5,-97.9 -102,-140.5 -186.1,-287.3 -78,-136 -56.3,-367.3 -50.1,-385 -8.2,-15.1 -54.7,-148.4 -57.6,-261.3 -0.7,-26.6 2.2,-60.9 7.2,-98.5 21.8,113.5 84.2,261.7 84.2,261.7 l 42.4,-58.8 c 0,0 -42.4,359.1 0,453.8 42.5,94.7 169.8,241.6 241.6,453.7" /><path
         id="path240"
         style="fill:#a45330;fill-opacity:1;fill-rule:nonzero;stroke:none"
         d="m 12457.5,13328.2 c 0,0 -43.4,-113.7 -137.8,-156.7 0,0 184.1,-4.9 137.8,156.7" /><path
         id="path242"
         style="fill:#a45330;fill-opacity:1;fill-rule:nonzero;stroke:none"
         d="m 13827.2,13054 c 0,0 101.9,-19.6 180.2,0 0,0 -71.5,-156.7 -180.2,0" /><path
         id="path244"
         style="fill:#abaaa9;fill-opacity:1;fill-rule:nonzero;stroke:none"
         d="m 12528.7,15322.9 c 0,-79.1 -33.5,-143.3 -74.7,-143.3 -41.3,0 -74.7,64.2 -74.7,143.3 0,79 33.4,143.2 74.7,143.2 41.2,0 74.7,-64.2 74.7,-143.2" /><path
         id="path246"
         style="fill:#c37140;fill-opacity:1;fill-rule:nonzero;stroke:none"
         d="m 12048.8,14702 c 0,0 -34.3,65.8 -34.3,78.1 0,12.2 0,73.4 0,73.4 l -142,208.1 c 0,0 90.6,345.2 88.2,357.5 -2.5,12.2 0,176.2 0,176.2 0,0 67.3,-8.5 82,-11 14.7,-2.4 14.7,-2.4 14.7,-2.4 0,0 37.9,20.8 71,13.4 33,-7.3 58.7,-15.9 58.7,-15.9 0,0 78.4,-2.4 93.1,-7.3 14.6,-4.9 29.3,-19.6 29.3,-19.6 0,0 58.8,-4.9 82.1,-28.2 23.2,-23.2 56.3,-149.3 36.7,-285.2 -19.6,-135.9 -53.9,-326.8 -53.9,-358.7 0,-31.8 26.9,-142 26.9,-142 0,0 -97.9,-137.1 -142,-142 -44,-4.9 -159.1,-17.1 -171.3,0 -12.3,17.2 -39.2,105.6 -39.2,105.6" /><path
         id="path248"
         style="fill:#a45330;fill-opacity:1;fill-rule:nonzero;stroke:none"
         d="m 12295.3,15396.2 14.2,156.3 c 0,0 -14.7,14.7 -29.3,19.6 -3.1,1 -9,1.9 -16.4,2.7 15,-76.6 31.5,-178.6 31.5,-178.6" /><path
         id="path250"
         style="fill:#a45330;fill-opacity:1;fill-rule:nonzero;stroke:none"
         d="m 12020.9,15587.4 c 26.3,-89.5 58.9,-205.1 58.9,-205.1 l -22.4,199.6 c 0,0 0,0 -14.7,2.4 -4.1,0.7 -12.2,1.8 -21.8,3.1" /><path
         id="path252"
         style="fill:#a45330;fill-opacity:1;fill-rule:nonzero;stroke:none"
         d="m 12202.2,15382.3 -15.1,197.1 c 0,0 -20.3,6.8 -48.1,13.5 24.1,-83.3 63.2,-210.6 63.2,-210.6" /><g
         transform="scale(1.10534)"
         id="g254"><path
           id="path256"
           style="fill:#c1bfbd;fill-opacity:1;fill-rule:nonzero;stroke:none"
           d="m 15789.8,4979.02 c -292.4,352.11 -764.1,245.81 -764.1,245.81 l -244.5,314.02 v -704.31 c 201.6,75.18 477.2,101.87 629.9,71.38 232.5,-46.59 564.8,-983.5 564.8,-983.5 l 324.1,19.18 c 0,0 -217.8,685.22 -510.2,1037.42" /></g><path
         id="path258"
         style="fill:#1d1b1a;fill-opacity:1;fill-rule:nonzero;stroke:none"
         d="m 11669.7,16026.2 h -264.8 v -269.3 c -38.3,-105.5 -60.9,-234.8 -60.9,-374.6 0,-139.7 22.6,-269 60.9,-374.6 v -269.3 h 264.8 c 179.8,0 325.6,288.3 325.6,643.9 0,355.6 -145.8,643.9 -325.6,643.9" /><path
         id="path260"
         style="fill:#343434;fill-opacity:1;fill-rule:nonzero;stroke:none"
         d="m 11730.5,15382.3 c 0,-355.6 -145.8,-643.9 -325.6,-643.9 -179.8,0 -325.6,288.3 -325.6,643.9 0,355.6 145.8,643.9 325.6,643.9 179.8,0 325.6,-288.3 325.6,-643.9" /><path
         id="path262"
         style="fill:#d5d7d3;fill-opacity:1;fill-rule:nonzero;stroke:none"
         d="m 11386.2,15382.3 c 0,-79.1 -33.4,-143.2 -74.6,-143.2 -41.3,0 -74.7,64.1 -74.7,143.2 0,79.1 33.4,143.3 74.7,143.3 41.2,0 74.6,-64.2 74.6,-143.3" /></g></g></svg>