<?xml version="1.0" encoding="UTF-8" standalone="no"?>
<svg
   xmlns:dc="http://purl.org/dc/elements/1.1/"
   xmlns:cc="http://creativecommons.org/ns#"
   xmlns:rdf="http://www.w3.org/1999/02/22-rdf-syntax-ns#"
   xmlns:svg="http://www.w3.org/2000/svg"
   xmlns="http://www.w3.org/2000/svg"
   viewBox="0 0 2666.6667 2666.6667"
   height="2666.6667"
   width="2666.6667"
   xml:space="preserve"
   id="svg2"
   version="1.1"><metadata
     id="metadata8"><rdf:RDF><cc:Work
         rdf:about=""><dc:format>image/svg+xml</dc:format><dc:type
           rdf:resource="http://purl.org/dc/dcmitype/StillImage" /></cc:Work></rdf:RDF></metadata><defs
     id="defs6" /><g
     transform="matrix(1.3333333,0,0,-1.3333333,0,2666.6667)"
     id="g10"><g
       transform="scale(0.1)"
       id="g12"><g
         transform="scale(1.22699)"
         id="g14"><path
           id="path16"
           style="fill:#ffffff;fill-opacity:1;fill-rule:nonzero;stroke:none"
           d="M 16300,0 H 0 V 16300 H 16300 V 0" /></g><path
         id="path18"
         style="fill:#bbbab8;fill-opacity:1;fill-rule:nonzero;stroke:none"
         d="m 13484.4,15106.7 c 0,0 998.3,167.2 1019.3,167.2 20.9,0 59.9,-6 74.9,-45 15,-38.9 -36,-77.9 -36,-77.9 l -1085.6,-187.5 27.4,143.2" /><path
         id="path20"
         style="fill:#2a5a98;fill-opacity:1;fill-rule:nonzero;stroke:none"
         d="m 14316.6,15197.6 c 86.2,-426.2 -122.6,-828.1 -466.5,-897.7 -343.8,-69.6 -692.5,219.5 -778.7,645.7 -86.3,426.3 122.6,828.2 466.4,897.8 343.9,69.5 692.5,-219.6 778.8,-645.8" /><path
         id="path22"
         style="fill:#3a70c0;fill-opacity:1;fill-rule:nonzero;stroke:none"
         d="m 14182.2,15165 c 86.3,-426.2 -92.2,-822 -398.7,-884 -306.5,-62 -624.8,233.2 -711.1,659.4 -86.2,426.2 92.3,822 398.8,884 306.4,62 624.8,-233.2 711,-659.4" /><g
         transform="scale(1.01151)"
         id="g24"><path
           id="path26"
           style="fill:#373737;fill-opacity:1;fill-rule:nonzero;stroke:none"
           d="m 16119.3,11343.2 180.7,-562.9 v -83 h -234 l -77,106.7 -108.2,438.2 238.5,101" /></g><path
         id="path28"
         style="fill:#dfdfdd;fill-opacity:1;fill-rule:nonzero;stroke:none"
         d="m 13736.2,15080.8 c 22.8,-128.3 -29,-244.9 -115.8,-260.3 -86.8,-15.4 -175.6,76.1 -198.4,204.4 -22.8,128.4 29,244.9 115.8,260.3 86.8,15.5 175.6,-76.1 198.4,-204.4" /><g
         transform="scale(1.15125)"
         id="g30"><path
           id="path32"
           style="fill:#326ab1;fill-opacity:1;fill-rule:nonzero;stroke:none"
           d="m 15594.6,9476.99 c 0,0 213.4,-122.36 413.9,-152.3 200.4,-29.93 291.5,-190.15 286.3,-254.51 -5.2,-64.38 -609.2,-171.11 -609.2,-171.11 h -442.5 l -205.6,197.84 72.8,227.78 484.3,152.3" /></g><g
         transform="scale(1.05215)"
         id="g34"><path
           id="path36"
           style="fill:#252323;fill-opacity:1;fill-rule:nonzero;stroke:none"
           d="m 15160.6,10774.1 166.1,-603.9 973.3,96.9 v 182.2 l -865.9,-79.7 -107.4,457.2 -166.1,-52.7" /></g><g
         transform="scale(1.12826)"
         id="g38"><path
           id="path40"
           style="fill:#3a70c0;fill-opacity:1;fill-rule:nonzero;stroke:none"
           d="m 14791.2,9207.24 c 0,0 -31.8,-23.31 -26.5,-71.12 5.3,-47.82 47.8,-143.43 47.8,-143.43 0,0 -24.5,-191.29 -24.2,-284.27 0.3,-92.97 45.5,-151.38 260.6,-132.76 215.2,18.61 289.5,95.63 385.2,90.31 95.6,-5.32 366.6,-13.29 581.7,50.43 215.2,63.82 284.2,180.66 282.9,286.91 -1.4,106.25 -142.1,100.94 -333.4,140.78 -191.2,39.84 -512.6,187.27 -512.6,187.27 h -305.4 l -200.1,-38.52 -156,-85.6" /></g><g
         transform="scale(1.05012)"
         id="g42"><path
           id="path44"
           style="fill:#ffffff;fill-opacity:1;fill-rule:nonzero;stroke:none"
           d="m 15961.8,9773.14 52.8,-111.3 c 0,0 94.2,14.27 185.5,94.17 91.3,79.92 99.9,168.39 99.9,168.39 l -195.6,19.2 -142.6,-170.46" /></g><g
         transform="scale(1.05426)"
         id="g46"><path
           id="path48"
           style="fill:#373737;fill-opacity:1;fill-rule:nonzero;stroke:none"
           d="m 15762.8,10459.7 c 38.4,4.3 537.2,55.4 537.2,55.4 l -32.6,-86.7 c 0,0 -214.7,-83.8 -236,-88.1 -21.3,-4.3 -272.9,-34.1 -268.6,-21.3 4.2,12.8 0,140.7 0,140.7" /></g><path
         id="path50"
         style="fill:#252323;fill-opacity:1;fill-rule:nonzero;stroke:none"
         d="m 9829.79,10374.4 1524.11,697.8 -89.9,251.7 -1478.78,-667.4 44.57,-282.1" /><path
         id="path52"
         style="fill:#656769;fill-opacity:1;fill-rule:nonzero;stroke:none"
         d="m 12675.9,10993.5 50.6,-292.9 205.3,-33 -58.5,422.6 -197.4,-96.7" /><g
         transform="scale(1.03468)"
         id="g54"><path
           id="path56"
           style="fill:#8d8d8d;fill-opacity:1;fill-rule:nonzero;stroke:none"
           d="m 15166,11743.8 c 0,0 -246.5,-113 -286.7,-169.5 -40.3,-56.4 221.5,-665.5 308.4,-708.6 86.9,-43 312.8,-43 504,78.7 191.2,121.6 608.3,464.4 604,490.7 -4.4,26.3 -360.7,569.4 -360.7,569.4 0,0 -338.9,-100 -769,-260.7" /></g><g
         transform="scale(1.01151)"
         id="g58"><path
           id="path60"
           style="fill:#373737;fill-opacity:1;fill-rule:nonzero;stroke:none"
           d="m 15091.2,8839.56 157,103.71 -788.1,2654.73 788.1,201.5 1051.8,408.9 -97.8,177.7 -1564.3,-391.1 -444.5,-248.8 897.8,-2906.64" /></g><path
         id="path62"
         style="fill:#656769;fill-opacity:1;fill-rule:nonzero;stroke:none"
         d="m 12976.7,11391.4 -502,3918.5 h -119.8 l 518.4,-4219.7 103.4,301.2" /><path
         id="path64"
         style="fill:#252323;fill-opacity:1;fill-rule:nonzero;stroke:none"
         d="m 11344.9,10433.8 3425.5,-809.2 179.8,-620.3 314.7,-63 -908.1,2940.1 -3092.8,-557.5 89.9,-251.7 2787.1,530.4 530.5,-1672.3 -2751.5,693.2 -575.1,-189.7" /><path
         id="path66"
         style="fill:#8d8d8d;fill-opacity:1;fill-rule:nonzero;stroke:none"
         d="m 11120.1,11431.8 -193.3,-40.4 c 0,0 18,184.3 96.7,301.1 78.6,116.9 1571.1,566.5 1867.8,620.4 296.7,54 1384.6,368.6 1384.6,368.6 l 1276.7,89.9 c 0,0 368.6,-89.9 341.6,-179.8 -26.9,-89.9 -233.7,-170.8 -233.7,-170.8 l -449.6,-242.7 -593.4,-96.7 -1353.1,-249.7 -2144.3,-399.9" /><path
         id="path68"
         style="fill:#8d8d8d;fill-opacity:1;fill-rule:nonzero;stroke:none"
         d="m 9879.37,9624.6 2993.93,1465.6 58.5,-422.6 121.3,80.9 -76.4,642.9 -3087.14,-1395.3 -10.19,-371.5" /><path
         id="path70"
         style="fill:#656769;fill-opacity:1;fill-rule:nonzero;stroke:none"
         d="m 11030.2,11539.7 c 0,0 -112.4,-103.4 -103.4,-148.3 9,-45 40.5,-134.9 292.2,-148.4 251.8,-13.5 1582.4,296.7 1802.7,341.7 220.2,44.9 1230.8,238.2 1335.1,296.7 104.4,58.4 202.3,35.9 472,76.4 269.8,40.4 939.6,268.2 939.6,268.2 l -107.9,194.8 c 0,0 -656.3,-191.8 -800.2,-194.8 -143.9,-3 -3830.1,-686.3 -3830.1,-686.3" /><path
         id="path72"
         style="fill:#656769;fill-opacity:1;fill-rule:nonzero;stroke:none"
         d="m 9834.41,9004.3 194.79,107.9 -1000.97,6335.5 -191.8,-32.9 997.98,-6410.5" /><path
         id="path74"
         style="fill:#8d8d8d;fill-opacity:1;fill-rule:nonzero;stroke:none"
         d="m 9528.73,9112.2 305.68,-107.9 -997.98,6410.5 H 8526.25 L 9528.73,9112.2" /><path
         id="path76"
         style="fill:#8d8d8d;fill-opacity:1;fill-rule:nonzero;stroke:none"
         d="m 12354.9,13200 -275.8,2109.9 h 275.8 l 223,-1779.2 v -396.2 l -157.1,28.1 -65.9,37.4" /><g
         transform="scale(1.07577)"
         id="g78"><path
           id="path80"
           style="fill:#edaa7f;fill-opacity:1;fill-rule:nonzero;stroke:none"
           d="m 14961.3,12401.2 c 0,0 289.8,-9.1 390.1,-60.3 100.3,-51.1 162.9,-235 217.3,-310.2 54.3,-75.3 275.8,-493.1 405.3,-800.3 129.6,-307.1 326,-750.1 326,-750.1 l -326,-175.5 c 0,0 -204.7,390.5 -359.4,540 -154.6,149.5 -299.4,433.7 -332.8,534 -33.5,100.3 -235.4,288.3 -256.3,300.8 -20.9,12.6 -326,313.5 -326,313.5 0,0 -97.6,203.2 -80.2,247.8 17.5,44.7 342,160.3 342,160.3" /></g><g
         transform="scale(1.05371)"
         id="g82"><path
           id="path84"
           style="fill:#fbc295;fill-opacity:1;fill-rule:nonzero;stroke:none"
           d="m 14606.4,11733.7 c 0,0 213.2,-35.6 247.4,-65.4 34.1,-29.9 128.5,-530.8 231.7,-712.5 103.2,-181.6 296.8,-353.2 446.4,-590.4 149.5,-237.3 375.7,-625.49 375.7,-625.49 0,0 179.1,38.4 285.8,140.79 106.6,102.39 -153.6,499.2 -153.6,499.2 0,0 -213.3,298.6 -290.1,674 -76.8,375.5 -253.2,593 -303.6,708.2 -50.5,115.2 -171.4,401.1 -236.8,477.9 -65.4,76.8 -65.4,76.8 -65.4,76.8 l -392.5,130.8 c 0,0 -298.3,-98.1 -145,-713.9" /></g><path
         id="path86"
         style="fill:#252323;fill-opacity:1;fill-rule:nonzero;stroke:none"
         d="m 13176,12420.8 c 33.8,-33.4 299.7,-269.8 299.7,-269.8 0,0 116.9,-49.4 391.1,-22.4 274.2,27 606.9,95.3 795.7,142.1 188.8,46.7 458.5,63.2 536.5,69.2 77.9,6 191.9,24 191.9,24 0,0 -30.1,287.7 -18.1,428.5 12,140.9 170.8,323.7 170.8,323.7 l 413.6,-137.9 c 0,0 95.9,299.7 137.8,362.7 0,0 -524.4,47.9 -672.8,59.9 -148.3,12 -202.3,9 -394.1,0 -191.8,-9 -719.2,-95.9 -839.1,-104.9 -119.9,-9 -322.2,-61.4 -322.2,-61.4 L 13176,12909 c 0,0 -284.7,-263.4 -275.7,-308.4 9,-44.9 275.7,-179.8 275.7,-179.8" /><path
         id="path88"
         style="fill:#252323;fill-opacity:1;fill-rule:nonzero;stroke:none"
         d="m 10926.3,12474.8 c 0,0 -34,47.9 -105.9,50.9 -71.9,3 -98.9,6 -140.8,-25.5 -42,-31.4 -98.9,-136.3 -92.9,-202.3 5.9,-65.9 -24.9,-173.8 -0.5,-275.7 24.4,-101.9 3.4,-143.8 27.4,-206.8 24,-62.9 48,-176.8 116.9,-200.8 68.9,-24 93.9,-39.3 237.3,-39.1 143.3,0.2 236.2,63.1 278.2,81.1 41.9,18 86.9,47.9 86.9,47.9 0,0 -110.9,584.4 -125.9,602.4 -15,18 -185.8,77.9 -185.8,77.9 l -94.9,90" /><path
         id="path90"
         style="fill:#100f0d;fill-opacity:1;fill-rule:nonzero;stroke:none"
         d="m 14174,13173 c 33,0 281.7,0 341.7,0 59.9,0 218.7,-20.9 260.7,-17.9 41.9,3 632.3,-15 767.2,-39 l 413.6,-137.9 36.8,110.6 c 0,0 -345.5,114.2 -480.4,123.2 -134.8,9 -997.9,15 -997.9,15 v 49 c 0,0 -99,-43 -158.9,-52 -59.9,-9 -182.8,-51 -182.8,-51" /><path
         id="path92"
         style="fill:#edaa7f;fill-opacity:1;fill-rule:nonzero;stroke:none"
         d="m 11021.2,12481.5 -94.9,-6.7 c 0,0 -64.7,-36 -78.2,-87.7 -13.5,-51.7 -24.7,-126.6 -11.2,-161.1 13.5,-34.5 60.4,-88.4 117.9,-97.4 57.4,-9 52.9,-45 66.4,-47.2 13.5,-2.2 60.7,-45 60.7,-45 0,0 -87.7,-13.5 -110.1,-51.6 -22.5,-38.3 17.9,-107.9 128.1,-103.4 110.1,4.4 110.1,4.4 110.1,4.4 0,0 -53.9,415.9 -58.4,424.9 -4.5,9 -130.4,170.8 -130.4,170.8" /><path
         id="path94"
         style="fill:#fbc295;fill-opacity:1;fill-rule:nonzero;stroke:none"
         d="m 12420.8,13162.6 c 0,0 56.9,164.1 110.9,246.1 53.9,82 107.9,414.7 167.8,597.5 59.9,182.8 59.9,545.4 59.9,545.4 h 275.8 c 0,0 107.8,-371.6 89.9,-656.3 -18,-284.7 -119.9,-536.4 -140.9,-650.3 -21,-113.9 -290.7,-124.8 -353.6,-117.9 -63,7 -209.8,35.5 -209.8,35.5" /><path
         id="path96"
         style="fill:#3a70c0;fill-opacity:1;fill-rule:nonzero;stroke:none"
         d="m 11904,11659.8 c 47.5,17.8 371.4,100.2 564.7,199.1 193.3,98.9 364.2,157.3 584.4,222.5 220.3,65.2 422.6,69.6 422.6,69.6 0,0 -144.4,224.9 -128.4,449.6 16,224.8 218.3,413.6 303.7,485.5 85.4,72 215.8,148.4 215.8,148.4 0,0 -1007,49.4 -1213.8,40.4 -206.7,-9 -665.3,-287.7 -831.6,-341.6 -166.3,-54 -267.3,-161.9 -267.3,-161.9 0,0 -159.8,-684.7 -123.8,-719.9 36,-35.3 184.3,-170.4 184.3,-170.4 l 289.4,-221.3" /><path
         id="path98"
         style="fill:#fbc295;fill-opacity:1;fill-rule:nonzero;stroke:none"
         d="m 11045.2,12300.9 32.9,-176.8 c 0,0 -11.9,-117.3 78,-292.4 89.9,-175.1 242.7,-247 500.5,-226.1 257.7,21 557.4,170.9 599.3,311.7 42,140.9 -14.9,365.6 -194.7,473.5 -179.9,107.9 -452.6,116.9 -452.6,116.9 0,0 -44.9,407.6 -47.9,437.6 -3,29.9 11.9,500.5 -57,728.2 -68.9,227.8 -122.9,428.6 -125.9,485.5 -3,57 -3,57 -3,57 l -359.6,-48 c 0,0 -3,-632.3 0,-872.1 3,-239.7 24,-437.5 27,-473.5 3,-36 -30,-215.8 3,-521.5" /><path
         id="path100"
         style="fill:#bbbab8;fill-opacity:1;fill-rule:nonzero;stroke:none"
         d="m 8515.06,14289.1 5038.54,829 c 0,0 54.7,2.6 66,-44.8 11.2,-47.4 -45,-90.1 -45,-90.1 l -5030.21,-840.9 -29.33,146.8" /><path
         id="path102"
         style="fill:#3a70c0;fill-opacity:1;fill-rule:nonzero;stroke:none"
         d="m 10411.3,14478.6 c 54.9,-533.9 -207.5,-998.3 -586.09,-1037.2 -378.57,-39 -730,362.3 -784.92,896.1 -54.91,533.9 207.46,998.3 586.04,1037.2 378.57,39 729.97,-362.3 784.97,-896.1" /><path
         id="path104"
         style="fill:#4d92d5;fill-opacity:1;fill-rule:nonzero;stroke:none"
         d="m 10411.3,14478.6 c -55,533.8 -406.4,935.1 -784.97,896.1 -378.58,-38.9 -640.95,-503.3 -586.04,-1037.2 54.92,-533.8 406.35,-935.1 784.93,-896.1 378.58,38.9 640.98,503.3 586.08,1037.2 z m -607.56,-945.8 c -326.69,-33.6 -631.81,330.7 -681.5,813.8 -49.69,483 174.86,901.8 501.56,935.4 326.69,33.6 631.8,-330.7 681.5,-813.7 49.7,-483.1 -174.9,-901.9 -501.56,-935.5" /><path
         id="path106"
         style="fill:#2a5a98;fill-opacity:1;fill-rule:nonzero;stroke:none"
         d="m 10411.3,14478.6 c -55,533.8 -406.4,935.1 -784.97,896.1 -12.35,-1.3 -24.56,-3 -36.66,-5.2 322.28,-57.1 598.13,-423.1 646.23,-890.9 53.2,-516.5 -190.7,-967.9 -549.34,-1032 45.47,-8.1 91.85,-10 138.66,-5.2 378.58,38.9 640.98,503.3 586.08,1037.2" /><path
         id="path108"
         style="fill:#edaa7f;fill-opacity:1;fill-rule:nonzero;stroke:none"
         d="m 12523.8,14941.6 c 4.5,6.8 86.5,111.3 115.8,120.3 29.2,9 53.9,-15.8 56.2,-9 2.2,6.7 37.2,22.5 78.1,20.2 41,-2.2 70.2,-13.5 81.4,-15.7 11.3,-2.3 56.2,-31.3 69.7,-38.1 13.5,-6.9 31.5,-132.7 20.2,-157.5 -11.2,-24.7 -44.3,-9 -44.3,-9 0,0 -149.9,-22.4 -158.4,-18 -8.5,4.5 -52.5,119 -52.5,119 l -166.2,-12.2" /><path
         id="path110"
         style="fill:#fbc295;fill-opacity:1;fill-rule:nonzero;stroke:none"
         d="m 11015.2,14168 c 0,0 -146.8,251 -158.1,293.7 -11.2,42.7 6,68.2 6,68.2 l 386.5,64.6 c 0,0 99.8,60.5 102,87.5 2.3,27 0,60.7 0,60.7 0,0 -42.7,29.2 -44.9,74.2 -2.3,44.9 13.5,89.9 29.2,92.1 15.7,2.3 65.2,-74.2 87.6,-96.6 22.5,-22.5 33.8,-119.2 29.3,-177.6 -4.5,-58.4 -47.2,-101.1 -69.7,-209 -22.5,-107.9 -8.3,-209.8 -8.3,-209.8 l -359.6,-48" /><path
         id="path112"
         style="fill:#fbc295;fill-opacity:1;fill-rule:nonzero;stroke:none"
         d="m 12837.4,14497.7 c -12,6 -78,53.9 -78,53.9 l -11.9,58.5 c 0,0 -130.4,98.9 -146.2,128.1 -15.7,29.2 -29.2,74.2 -29.2,74.2 l 85.4,20.2 c 0,0 22.5,125.9 47.2,143.8 24.8,18 116.9,31.5 155.1,20.3 38.2,-11.3 27,-49.5 0,-62.9 -26.9,-13.5 -53.9,-27 -53.9,-27 l 4.5,-24.7 c 0,0 110.1,-24.8 164.1,-72 53.9,-47.2 60.7,-258.5 60.7,-258.5 l -197.8,-53.9" /><path
         id="path114"
         style="fill:#dfdfdd;fill-opacity:1;fill-rule:nonzero;stroke:none"
         d="m 8586.85,14220.2 c 4.17,-40.9 -18.98,-76.8 -51.71,-80.1 -32.73,-3.4 -62.64,27.1 -66.81,68 -4.16,41 18.98,76.8 51.71,80.2 32.73,3.3 62.64,-27.2 66.81,-68.1" /><path
         id="path116"
         style="fill:#dfdfdd;fill-opacity:1;fill-rule:nonzero;stroke:none"
         d="m 9801.4,14425.4 c 13.8,-82.7 -25.14,-158.1 -86.97,-168.4 -61.83,-10.3 -123.15,48.3 -136.95,130.9 -13.81,82.7 25.13,158.1 86.96,168.4 61.83,10.3 123.15,-48.3 136.96,-130.9" /><path
         id="path118"
         style="fill:#bbbab8;fill-opacity:1;fill-rule:nonzero;stroke:none"
         d="m 9674.8,14479.9 c 0,0 67.77,-62.8 21.54,-145 l -798.54,-133.5 -27.72,146.1 804.72,132.4" /><path
         id="path120"
         style="fill:#edaa7f;fill-opacity:1;fill-rule:nonzero;stroke:none"
         d="m 10847,14672.7 c 0,0 39.3,90.2 86.5,119.4 47.3,29.3 128.2,29.3 128.2,29.3 0,0 51.7,20.2 78.6,22.4 27,2.3 63,-13.4 63,-13.4 0,0 13.5,22.4 49.4,24.7 36,2.2 65.2,0 65.2,0 0,0 31.5,6.7 45,-38.2 13.4,-45 29.2,-51.7 20.2,-87.7 -9,-36 -53.6,-81 -56.9,-84.4 -3.3,-3.5 -80.2,0 -80.2,0 0,0 -49.5,-23.5 -71.9,-12.2 -22.5,11.2 -114.7,67.4 -123.7,71.9 l -203.4,-31.8" /><path
         id="path122"
         style="fill:#8d8d8d;fill-opacity:1;fill-rule:nonzero;stroke:none"
         d="m 8162.11,9615.7 1366.62,-503.5 v 251.7 l -1366.62,467.5 v -215.7" /><g
         transform="scale(1.11742)"
         id="g124"><path
           id="path126"
           style="fill:#252323;fill-opacity:1;fill-rule:nonzero;stroke:none"
           d="m 15559.7,10077.7 c -26.9,-11.5 -314.6,-119.06 -406.7,-256.67 -92.1,-137.6 -68.8,-427.26 0,-503.7 68.8,-76.44 282.1,-68.39 382.6,0 100.5,68.39 181.1,168.97 181.1,168.97 0,0 510.9,812.7 519,824.7 7.9,12.1 64.3,108.6 -92.6,128.8 -157,20.1 -447.4,-304.4 -583.4,-362.1" /></g><g
         transform="scale(1.12817)"
         id="g128"><path
           id="path130"
           style="fill:#8d8d8d;fill-opacity:1;fill-rule:nonzero;stroke:none"
           d="m 15419.4,9515.4 -135.5,47.82 813.2,689.38 h 202.9 l -757.1,-689.38 -123.5,-47.82" /></g><g
         transform="scale(1.13258)"
         id="g132"><path
           id="path134"
           style="fill:#656769;fill-opacity:1;fill-rule:nonzero;stroke:none"
           d="m 15526,9295.77 774,710.53 -63.5,206.3 -754.1,-686.62 43.6,-230.21" /></g><g
         transform="scale(1.0788)"
         id="g136"><path
           id="path138"
           style="fill:#9f9f9e;fill-opacity:1;fill-rule:nonzero;stroke:none"
           d="m 15983.4,10000.9 62.4,-241.73 h 254.2 l -45.8,241.73 h -270.8" /></g><path
         id="path140"
         style="fill:#d2946b;fill-opacity:1;fill-rule:nonzero;stroke:none"
         d="m 11554.7,12151.1 c -8.5,-3 76.4,152.3 53.9,356.6 0,0 119.4,-10.3 275.5,-44.1 l -164.7,-30.8 c 0,0 -8.9,-227.8 -164.7,-281.7" /><path
         id="path142"
         style="fill:#e4a87c;fill-opacity:1;fill-rule:nonzero;stroke:none"
         d="m 11332.9,12909 c -231.8,1.4 -244.3,253.6 -244.3,253.6 94.4,-200.1 244.3,-253.6 244.3,-253.6" /><path
         id="path144"
         style="fill:#bbbab8;fill-opacity:1;fill-rule:nonzero;stroke:none"
         d="m 6880.28,8372.2 c 0,0 971.92,282.8 992.76,285.3 20.83,2.4 60.23,1 79.67,-35.9 19.43,-37 -26.61,-81.6 -26.61,-81.6 l -1056.24,-313.2 10.42,145.4" /><path
         id="path146"
         style="fill:#373737;fill-opacity:1;fill-rule:nonzero;stroke:none"
         d="m 9394.98,5992.1 181.64,-565.8 v -83.4 h -235.24 l -77.42,107.2 -108.71,440.4 239.73,101.6" /><path
         id="path148"
         style="fill:#2a5a98;fill-opacity:1;fill-rule:nonzero;stroke:none"
         d="m 7696.13,8559.8 c 135.5,-413.2 -24.89,-836.8 -358.24,-946.1 -333.35,-109.3 -713.43,137.1 -848.93,550.3 -135.5,413.2 24.89,836.7 358.25,946.1 333.35,109.3 713.42,-137.1 848.92,-550.3" /><path
         id="path150"
         style="fill:#3a70c0;fill-opacity:1;fill-rule:nonzero;stroke:none"
         d="m 7566.54,8511.7 c 135.5,-413.2 4.5,-827.1 -292.61,-924.6 -297.11,-97.4 -647.81,158.6 -783.3,571.8 -135.5,413.2 -4.49,827.1 292.61,924.6 297.11,97.4 647.8,-158.6 783.3,-571.8" /><path
         id="path152"
         style="fill:#8d8d8d;fill-opacity:1;fill-rule:nonzero;stroke:none"
         d="m 5480.53,7629.6 -284.1,2173.9 h 273.95 l 221.65,-1767.8 51.68,-442.3 -207.82,76.6 -55.36,-40.4" /><path
         id="path154"
         style="fill:#326ab1;fill-opacity:1;fill-rule:nonzero;stroke:none"
         d="m 11032.7,5432.2 c 0,0 244.2,-139.9 473.5,-174.2 229.2,-34.2 333.5,-217.5 327.5,-291.1 -5.9,-73.6 -696.8,-195.7 -696.8,-195.7 h -506.2 l -235.2,226.3 83.4,260.5 553.8,174.2" /><path
         id="path156"
         style="fill:#dfdfdd;fill-opacity:1;fill-rule:nonzero;stroke:none"
         d="m 7133.45,8375.9 c 37.66,-124.7 -0.21,-246.5 -84.58,-272 -84.38,-25.5 -183.32,55 -220.98,179.8 -37.67,124.8 0.21,246.6 84.59,272.1 84.37,25.4 183.31,-55.1 220.97,-179.9" /><path
         id="path158"
         style="fill:#656769;fill-opacity:1;fill-rule:nonzero;stroke:none"
         d="m 6088.25,5910.2 -498.76,3893.3 h -119.11 l 515.14,-4192.6 102.73,299.3" /><path
         id="path160"
         style="fill:#3a70c0;fill-opacity:1;fill-rule:nonzero;stroke:none"
         d="m 9776.12,4913.5 c 0,0 -35.73,-26.2 -29.77,-79.8 5.95,-53.6 53.6,-160.8 53.6,-160.8 0,0 -27.47,-214.4 -27.14,-318.6 0.33,-104.2 50.95,-169.7 292.19,-148.9 241.2,20.9 324.5,107.2 431.7,101.3 107.2,-6 410.9,-14.9 652.1,56.6 241.2,71.4 318.7,202.4 317.2,321.5 -1.5,119.2 -159.3,113.2 -373.7,157.9 -214.4,44.6 -574.7,209.9 -574.7,209.9 h -342.4 l -224.23,-43.2 -174.85,-95.9" /><path
         id="path162"
         style="fill:#252323;fill-opacity:1;fill-rule:nonzero;stroke:none"
         d="m 9043.61,5855.1 173.56,-631.3 1017.53,101.2 v 190.6 l -905.23,-83.4 -112.3,478 -173.56,-55.1" /><path
         id="path164"
         style="fill:#ffffff;fill-opacity:1;fill-rule:nonzero;stroke:none"
         d="m 9849.08,4789.1 55.09,-116.2 c 0,0 98.23,14.9 193.53,98.3 95.3,83.4 104.2,175.7 104.2,175.7 l -204.02,20 -148.8,-177.8" /><path
         id="path166"
         style="fill:#8d8d8d;fill-opacity:1;fill-rule:nonzero;stroke:none"
         d="m 8786.04,6665 c 0,0 -253.44,-116.2 -294.79,-174.2 -41.36,-58 227.79,-684.2 317.12,-728.5 89.34,-44.2 321.59,-44.2 518.12,80.9 196.53,125 625.32,477.5 620.85,504.5 -4.47,27 -370.72,585.3 -370.72,585.3 0,0 -348.39,-102.7 -790.58,-268" /><path
         id="path168"
         style="fill:#373737;fill-opacity:1;fill-rule:nonzero;stroke:none"
         d="m 8361.72,3475.9 157.82,104.2 -792.07,2668 792.07,202.5 1057.08,410.9 -98.27,178.7 L 7906.13,6647.1 7459.48,6397 8361.72,3475.9" /><path
         id="path170"
         style="fill:#252323;fill-opacity:1;fill-rule:nonzero;stroke:none"
         d="M 2961.54,4899.8 4475.83,5593 4386.5,5843.2 2917.26,5180 l 44.28,-280.2" /><path
         id="path172"
         style="fill:#8d8d8d;fill-opacity:1;fill-rule:nonzero;stroke:none"
         d="m 4243.57,5950.4 -192.06,-40.2 c 0,0 17.87,183.1 96.03,299.2 78.16,116.2 1561.05,562.8 1855.85,616.4 294.79,53.6 1375.69,366.3 1375.69,366.3 l 1268.5,89.3 c 0,0 366.25,-89.3 339.46,-178.7 -26.81,-89.3 -232.26,-169.7 -232.26,-169.7 l -446.66,-241.2 -589.58,-96 -1344.43,-248.1 -2130.54,-397.3" /><path
         id="path174"
         style="fill:#252323;fill-opacity:1;fill-rule:nonzero;stroke:none"
         d="m 4466.9,4958.8 3403.5,-804 178.66,-616.4 312.66,-62.5 L 7459.48,6397 4386.5,5843.2 4475.83,5593 7245.08,6120.1 7772.13,4458.5 5038.36,5147.3 4466.9,4958.8" /><path
         id="path176"
         style="fill:#656769;fill-opacity:1;fill-rule:nonzero;stroke:none"
         d="m 4154.24,6057.6 c 0,0 -111.66,-102.8 -102.73,-147.4 8.93,-44.7 40.2,-134 290.33,-147.4 250.12,-13.4 1572.22,294.8 1791.08,339.4 218.86,44.7 1222.87,236.8 1326.56,294.8 103.68,58.1 200.99,35.8 468.99,75.9 267.99,40.2 933.5,266.6 933.5,266.6 L 8754.78,6933 c 0,0 -652.12,-190.6 -795.05,-193.5 -142.93,-3 -3805.49,-681.9 -3805.49,-681.9" /><path
         id="path178"
         style="fill:#656769;fill-opacity:1;fill-rule:nonzero;stroke:none"
         d="m 5789.35,5514.9 50.26,-291.1 203.97,-32.7 -58.06,419.8 -196.17,-96" /><path
         id="path180"
         style="fill:#656769;fill-opacity:1;fill-rule:nonzero;stroke:none"
         d="m 2966.14,3538.4 193.55,107.2 -994.55,6294.9 -190.57,-32.8 991.57,-6369.3" /><path
         id="path182"
         style="fill:#8d8d8d;fill-opacity:1;fill-rule:nonzero;stroke:none"
         d="m 3074.33,4185.9 2911.19,1425 58.06,-419.8 120.6,80.4 -75.93,638.7 -3067.32,-1386.3 53.4,-338" /><path
         id="path184"
         style="fill:#8d8d8d;fill-opacity:1;fill-rule:nonzero;stroke:none"
         d="m 2662.42,3645.6 303.72,-107.2 -991.57,6369.3 h -308.19 l 996.04,-6262.1" /><path
         id="path186"
         style="fill:#8d8d8d;fill-opacity:1;fill-rule:nonzero;stroke:none"
         d="m 1304.59,4145.9 1357.83,-500.3 v 250.2 l -1357.83,464.5 v -214.4" /><path
         id="path188"
         style="fill:#edaa7f;fill-opacity:1;fill-rule:nonzero;stroke:none"
         d="m 5945.62,8095.9 c 3.68,7.2 72.93,120.6 100.9,133 27.97,12.3 55.42,-9.3 56.86,-2.4 1.44,7 34.35,26.7 75.28,29.3 40.93,2.5 71.26,-5.2 82.69,-6.1 11.42,-1 59.46,-24.5 73.65,-29.7 14.2,-5.3 46.78,-128.2 38.51,-154 -8.28,-25.9 -43.01,-14.2 -43.01,-14.2 0,0 -146.24,-39.8 -155.22,-36.3 -8.98,3.4 -66.01,112 -66.01,112 l -163.65,-31.6" /><path
         id="path190"
         style="fill:#edaa7f;fill-opacity:1;fill-rule:nonzero;stroke:none"
         d="m 4316.04,7634 c 0,0 24.26,93 67.72,127.5 43.46,34.5 123.82,44 123.82,44 0,0 48.98,26.1 75.5,31.5 26.53,5.4 64.08,-6 64.08,-6 0,0 10.77,23.9 46.22,30.3 35.46,6.5 64.74,7.6 64.74,7.6 0,0 30.46,10.4 49.12,-32.6 18.64,-43.1 35.06,-48 30.34,-84.7 -4.73,-36.8 -43.73,-86.7 -46.63,-90.6 -2.89,-3.8 -79.67,-9.3 -79.67,-9.3 0,0 -46.36,-29.1 -70,-20.6 -23.64,8.6 -100.56,51.9 -110.01,55.3 -9.45,3.5 -215.23,-52.4 -215.23,-52.4" /><path
         id="path192"
         style="fill:#bbbab8;fill-opacity:1;fill-rule:nonzero;stroke:none"
         d="m 2040.71,6979 4907.04,1412.6 c 0,0 54,9.1 70.71,-36.7 16.71,-45.8 -34.1,-94.8 -34.1,-94.8 L 2086.99,6836.7 2040.71,6979" /><path
         id="path194"
         style="fill:#fbc295;fill-opacity:1;fill-rule:nonzero;stroke:none"
         d="m 6308.95,7691.7 c -12.61,4.6 -83.7,44.5 -83.7,44.5 l -18.74,56.6 c 0,0 -141.04,83 -160.08,110.2 -19.05,27.1 -37.7,70.2 -37.7,70.2 l 82.46,30.1 c 0,0 7.6,127.6 30.06,148.4 22.45,20.7 112.4,44.9 151.66,38.2 39.26,-6.7 32.57,-45.9 7.36,-62.5 -25.21,-16.5 -50.42,-33.1 -50.42,-33.1 l 7.36,-24 c 0,0 112.27,-11.7 171.36,-52.3 59.1,-40.5 90.51,-249.6 90.51,-249.6 l -190.13,-76.7" /><path
         id="path196"
         style="fill:#373737;fill-opacity:1;fill-rule:nonzero;stroke:none"
         d="m 9706.15,5548.4 c 40.2,4.4 562.75,58 562.75,58 l -34.2,-90.8 c 0,0 -224.8,-87.8 -247.16,-92.3 -22.33,-4.5 -285.86,-35.7 -281.39,-22.3 4.47,13.4 0,147.4 0,147.4" /><path
         id="path198"
         style="fill:#252323;fill-opacity:1;fill-rule:nonzero;stroke:none"
         d="m 4051,6986.6 c 0,0 -33.73,47.6 -105.2,50.6 -71.46,3 -98.26,6 -139.95,-25.3 -41.69,-31.3 -98.26,-135.5 -92.31,-201 5.96,-65.5 -24.69,-172.7 -0.43,-273.9 24.25,-101.3 3.41,-143 27.23,-205.5 23.82,-62.5 47.64,-175.7 116.13,-199.5 68.49,-23.8 93.33,-39.1 235.75,-38.9 142.42,0.2 234.73,62.7 276.41,80.6 41.69,17.9 86.36,47.6 86.36,47.6 0,0 -110.18,580.7 -125.07,598.6 -14.89,17.8 -184.61,77.4 -184.61,77.4 l -94.31,89.3" /><path
         id="path200"
         style="fill:#edaa7f;fill-opacity:1;fill-rule:nonzero;stroke:none"
         d="M 4171.49,7031.4 4051,6986.6 c 0,0 -64.26,-35.7 -77.66,-87.1 -13.39,-51.4 -24.56,-125.8 -11.16,-160 13.4,-34.3 60.06,-87.9 117.13,-96.8 57.06,-9 52.6,-44.7 66,-46.9 13.4,-2.3 60.3,-44.7 60.3,-44.7 0,0 -87.1,-13.4 -109.43,-51.4 -22.34,-37.9 17.86,-107.2 127.29,-102.7 109.43,4.5 109.43,4.5 109.43,4.5 0,0 -53.6,413.1 -58.07,422.1 -4.46,8.9 -103.34,207.8 -103.34,207.8" /><path
         id="path202"
         style="fill:#edaa7f;fill-opacity:1;fill-rule:nonzero;stroke:none"
         d="m 9186.54,7847.2 c 0,0 309.68,-9.8 416.88,-64.5 107.2,-54.7 174.19,-251.2 232.25,-331.6 58.07,-80.4 294.83,-527 433.23,-855.3 138.5,-328.3 348.4,-801.8 348.4,-801.8 l -348.4,-187.6 c 0,0 -218.8,417.4 -384.09,577.2 -165.26,159.8 -320.1,463.5 -355.84,570.7 -35.73,107.2 -251.61,308.2 -273.95,321.6 -22.32,13.4 -348.38,335 -348.38,335 0,0 -104.37,217.3 -85.68,265 18.68,47.7 365.58,171.3 365.58,171.3" /><path
         id="path204"
         style="fill:#252323;fill-opacity:1;fill-rule:nonzero;stroke:none"
         d="m 6286.27,6933 c 33.56,-33.2 297.77,-268 297.77,-268 0,0 116.13,-49.1 388.59,-22.3 272.45,26.8 602.98,94.7 790.57,141.1 187.6,46.5 455.59,62.9 533.01,68.8 77.42,6 190.75,23.8 190.75,23.8 0,0 -29.95,285.9 -18.04,425.8 11.91,140 169.72,321.6 169.72,321.6 l 410.93,-136.9 c 0,0 95.28,297.7 136.97,360.3 0,0 -521.1,47.6 -668.49,59.5 -147.4,11.9 -200.99,8.9 -391.57,0 -190.57,-8.9 -714.64,-95.3 -833.75,-104.2 -119.11,-8.9 -320.1,-61.1 -320.1,-61.1 l -686.36,-323.3 c 0,0 -282.88,-261.8 -273.95,-306.4 8.93,-44.7 273.95,-178.7 273.95,-178.7" /><path
         id="path206"
         style="fill:#3a70c0;fill-opacity:1;fill-rule:nonzero;stroke:none"
         d="m 5022.46,6176.9 c 47.18,17.7 369.01,99.5 561.07,197.8 192.06,98.2 361.79,156.3 580.65,221.1 218.86,64.7 419.86,69.2 419.86,69.2 0,0 -143.44,223.3 -127.56,446.7 15.89,223.3 216.89,410.9 301.75,482.4 84.87,71.4 214.4,147.3 214.4,147.3 0,0 -1000.51,49.2 -1205.97,40.2 -205.46,-8.9 -661.05,-285.8 -826.31,-339.4 -165.26,-53.6 -265.61,-160.8 -265.61,-160.8 0,0 -158.71,-680.3 -122.98,-715.4 35.74,-35 183.13,-169.2 183.13,-169.2 l 287.57,-219.9" /><path
         id="path208"
         style="fill:#3a70c0;fill-opacity:1;fill-rule:nonzero;stroke:none"
         d="m 5058.21,6212 c 77.56,14.8 432.69,158.6 563.06,239.5 130.37,81 711.79,243.7 962.77,213.5 0,0 -161.14,429.9 -64.07,609.6 97.08,179.7 238.26,319.5 238.26,319.5 0,0 -311.59,60.9 -384.12,48 -72.53,-12.8 -1229.35,-540.2 -1229.35,-540.2 L 4929.65,6634.7 5058.21,6212" /><path
         id="path210"
         style="fill:#edaa7f;fill-opacity:1;fill-rule:nonzero;stroke:none"
         d="m 4838.7,7039 c 0,0 220.6,-3.1 357.73,-133.4 137.13,-130.4 191.08,-382.1 146.12,-449.6 -44.95,-67.4 -168.25,-169.5 -244.17,-224.3 -75.92,-54.8 -341.63,-62.9 -347.93,-64 -6.28,-1.2 -104.69,229.1 -104.69,229.1 L 4838.7,7039" /><path
         id="path212"
         style="fill:#fbc295;fill-opacity:1;fill-rule:nonzero;stroke:none"
         d="m 8486.96,6876.4 c 0,0 223.15,-37.2 258.88,-68.5 35.73,-31.2 134.57,-555.7 242.6,-745.9 108.02,-190.1 310.75,-369.8 467.33,-618.1 156.58,-248.4 393.31,-654.8 393.31,-654.8 0,0 187.62,40.2 299.22,147.4 111.7,107.2 -160.79,522.5 -160.79,522.5 0,0 -223.3,312.7 -303.7,705.8 -80.39,393 -265.03,620.8 -317.88,741.4 -52.84,120.6 -179.39,419.9 -247.88,500.3 -68.48,80.4 -68.48,80.4 -68.48,80.4 l -410.93,136.9 c 0,0 -312.3,-102.7 -151.68,-747.4" /><path
         id="path214"
         style="fill:#edaa7f;fill-opacity:1;fill-rule:nonzero;stroke:none"
         d="m 4144.52,7000 c 3.38,2.2 26.97,31.4 26.97,31.4 0,0 42.71,22.5 60.69,33.8 17.99,11.2 81.18,86.5 100.72,91 19.54,4.5 57.75,-33.7 75.73,-54 17.98,-20.2 113.51,-12.3 113.51,-12.3 l -84.66,-437.6 -130.15,-56.5 c 0,0 -37.69,-101 -64.66,-29.8 -26.97,71.3 -56.94,137.3 -71.92,215.2 -14.99,77.9 -26.23,218.8 -26.23,218.8" /><path
         id="path216"
         style="fill:#dc936b;fill-opacity:1;fill-rule:nonzero;stroke:none"
         d="m 4863.04,6933 c 0,0 53.4,-423.6 35.96,-536 -17.43,-112.4 -25.07,-220.1 -25.07,-220.1 l -106.08,-8.7 -39.67,179.5 134.86,585.3" /><path
         id="path218"
         style="fill:#fbc295;fill-opacity:1;fill-rule:nonzero;stroke:none"
         d="m 4485.42,7274.6 c 0,0 -92.9,73 -122.87,118 -29.97,44.9 -63.92,85.3 -48.94,91.3 14.98,6 312.67,91.5 332.15,97.5 19.48,6 107.89,32.2 112.39,38.9 4.5,6.8 62.68,63 57.19,76.5 -5.5,13.4 -57.19,67.4 -72.92,96.6 -15.74,29.2 -11.24,71.9 8.99,80.9 20.23,9 81.66,-49.4 111.63,-74.1 29.97,-24.8 59.19,-87.7 65.93,-128.2 6.75,-40.4 -38.89,-164.8 -49.44,-211.2 -10.56,-46.5 -16.49,-186.2 -16.49,-186.2 h -377.62" /><path
         id="path220"
         style="fill:#100f0d;fill-opacity:1;fill-rule:nonzero;stroke:none"
         d="m 7277.84,7680.4 c 32.76,0 279.9,0 339.45,0 59.56,0 217.38,-20.8 259.06,-17.9 41.69,3 628.3,-14.9 762.29,-38.7 l 410.93,-136.9 36.57,109.8 c 0,0 -343.28,113.5 -477.27,122.4 -134,8.9 -991.58,14.9 -991.58,14.9 v 48.7 c 0,0 -98.26,-42.7 -157.81,-51.7 -59.56,-8.9 -181.64,-50.6 -181.64,-50.6" /><path
         id="path222"
         style="fill:#fbc295;fill-opacity:1;fill-rule:nonzero;stroke:none"
         d="m 4485.42,7274.6 c 0,0 -101.71,-438 -134.77,-532.8 -33.05,-94.7 -98.24,-216.1 -109.47,-231.8 -11.24,-15.8 -95.12,-86.4 -93.64,-300.6 1.48,-214.2 184.55,-403.8 275.7,-418.7 91.15,-14.9 250.99,16.5 310.93,187.3 59.94,170.8 95.16,432.4 104.53,617.8 9.36,185.4 24.34,678.8 24.34,678.8 h -377.62" /><path
         id="path224"
         style="fill:#3a70c0;fill-opacity:1;fill-rule:nonzero;stroke:none"
         d="m 3901.72,7389 c 116.99,-523.8 -89.29,-1015.7 -460.71,-1098.6 -371.43,-83 -767.36,274.4 -884.34,798.2 -116.98,523.8 89.29,1015.6 460.71,1098.6 371.43,82.9 767.37,-274.4 884.34,-798.2" /><path
         id="path226"
         style="fill:#4d92d5;fill-opacity:1;fill-rule:nonzero;stroke:none"
         d="m 3408.98,6378.7 c -320.51,-71.6 -666.15,254.6 -771.99,728.5 -105.84,473.9 68.2,916.1 388.71,987.7 320.53,71.5 666.16,-254.6 772,-728.5 105.84,-473.9 -68.19,-916.1 -388.72,-987.7 z M 3901.72,7389 c -116.97,523.8 -512.91,881.1 -884.34,798.2 -371.42,-83 -577.69,-574.8 -460.71,-1098.6 116.97,-523.8 512.91,-881.2 884.34,-798.2 371.42,82.9 577.7,574.8 460.71,1098.6" /><path
         id="path228"
         style="fill:#2a5a98;fill-opacity:1;fill-rule:nonzero;stroke:none"
         d="m 3901.72,7389 c -116.97,523.8 -512.91,881.1 -884.34,798.2 -12.11,-2.7 -24.04,-5.9 -35.8,-9.5 326.75,-19 643.51,-350.2 746.03,-809.2 113.16,-506.7 -76.2,-983.5 -424.92,-1089.2 46.1,-2.6 92.39,0.8 138.32,11.1 371.42,82.9 577.7,574.8 460.71,1098.6" /><path
         id="path230"
         style="fill:#dfdfdd;fill-opacity:1;fill-rule:nonzero;stroke:none"
         d="m 2120.05,6919 c 8.93,-40.1 -9.87,-78.5 -41.98,-85.6 -32.11,-7.1 -65.38,19.6 -74.31,59.8 -8.93,40.1 9.87,78.5 41.98,85.6 32.12,7.2 65.39,-19.6 74.31,-59.8" /><path
         id="path232"
         style="fill:#dfdfdd;fill-opacity:1;fill-rule:nonzero;stroke:none"
         d="m 3302.27,7264.8 c 23.38,-80.4 -6.47,-159.8 -66.67,-177.3 -60.21,-17.5 -127.96,33.5 -151.33,114 -23.38,80.5 6.47,159.9 66.67,177.4 60.21,17.4 127.96,-33.6 151.33,-114.1" /><path
         id="path234"
         style="fill:#bbbab8;fill-opacity:1;fill-rule:nonzero;stroke:none"
         d="m 3170.17,7304.2 c 0,0 74.65,-54.5 38.35,-141.5 l -777.45,-226 -44.61,141.9 783.71,225.6" /><path
         id="path236"
         style="fill:#252323;fill-opacity:1;fill-rule:nonzero;stroke:none"
         d="m 10469.9,5780.6 c -29.9,-12.7 -349.4,-132.1 -451.6,-284.9 -102.23,-152.8 -76.42,-474.4 0,-559.2 76.4,-84.9 313.2,-76 424.8,0 111.7,75.9 201,187.6 201,187.6 0,0 567.3,902.2 576.2,915.6 8.9,13.4 71.5,120.6 -102.7,142.9 -174.2,22.4 -496.6,-337.9 -647.7,-402" /><path
         id="path238"
         style="fill:#8d8d8d;fill-opacity:1;fill-rule:nonzero;stroke:none"
         d="m 10478.9,5258 -151.9,53.7 911.5,772.7 h 227.5 l -848.7,-772.7 -138.4,-53.7" /><path
         id="path240"
         style="fill:#656769;fill-opacity:1;fill-rule:nonzero;stroke:none"
         d="m 10666.5,5052.6 870.9,799.5 -71.4,232.3 -848.7,-772.7 49.2,-259.1" /><path
         id="path242"
         style="fill:#9f9f9e;fill-opacity:1;fill-rule:nonzero;stroke:none"
         d="m 10327,5311.7 67,-259.1 h 272.5 l -49.2,259.1 H 10327" /></g></g></svg>