<?xml version="1.0" encoding="UTF-8" standalone="no"?>
<svg
   xmlns:dc="http://purl.org/dc/elements/1.1/"
   xmlns:cc="http://creativecommons.org/ns#"
   xmlns:rdf="http://www.w3.org/1999/02/22-rdf-syntax-ns#"
   xmlns:svg="http://www.w3.org/2000/svg"
   xmlns="http://www.w3.org/2000/svg"
   viewBox="0 0 2666.6667 2666.6667"
   height="2666.6667"
   width="2666.6667"
   xml:space="preserve"
   id="svg2"
   version="1.1"><metadata
     id="metadata8"><rdf:RDF><cc:Work
         rdf:about=""><dc:format>image/svg+xml</dc:format><dc:type
           rdf:resource="http://purl.org/dc/dcmitype/StillImage" /></cc:Work></rdf:RDF></metadata><defs
     id="defs6" /><g
     transform="matrix(1.3333333,0,0,-1.3333333,0,2666.6667)"
     id="g10"><g
       transform="scale(0.1)"
       id="g12"><g
         transform="scale(1.22699)"
         id="g14"><path
           id="path16"
           style="fill:none;fill-opacity:1;fill-rule:nonzero;stroke:none"
           d="M 16300,0 H 0 V 16300 H 16300 V 0" /></g><path
         id="path18"
         style="fill:#9c9c9b;fill-opacity:1;fill-rule:nonzero;stroke:none"
         d="m 6137.44,15952.3 -340.49,-8077.5 170.24,60.1 366.3,8017.4 h -196.05" /><path
         id="path20"
         style="fill:#7e7f81;fill-opacity:1;fill-rule:nonzero;stroke:none"
         d="M 6336.71,15952.3 5967.19,7934.9 h 199.28 l 366.29,8017.4 h -196.05" /><path
         id="path22"
         style="fill:#535456;fill-opacity:1;fill-rule:nonzero;stroke:none"
         d="m 8298.57,9511.7 131.64,192.7 -949.64,268 h -947.81 l 1220.48,-317.3 545.33,-143.4" /><path
         id="path24"
         style="fill:#373737;fill-opacity:1;fill-rule:nonzero;stroke:none"
         d="m 7548.74,6039.4 691.07,207 190.4,3458 -676.97,-49.3 -204.5,-3615.7" /><path
         id="path26"
         style="fill:#1a1918;fill-opacity:1;fill-rule:nonzero;stroke:none"
         d="m 7548.74,6039.4 -1184.69,384 168.71,3549 1220.48,-317.3 -204.5,-3615.7" /><path
         id="path28"
         style="fill:#9c9c9b;fill-opacity:1;fill-rule:nonzero;stroke:none"
         d="m 8564.19,5536.8 v -304.2 l -641.7,-263.3 66.98,398.3 574.72,169.2" /><path
         id="path30"
         style="fill:#9c9c9b;fill-opacity:1;fill-rule:nonzero;stroke:none"
         d="m 5045.37,6492.2 c 0,-97.4 -28.21,-948.5 0,-955.4 28.2,-7 88.04,-176.3 194.45,-185.7 106.43,-9.4 1093.41,185.7 1093.41,185.7 l 432.1,-148.1 c 0,0 -1225.62,-379.5 -1388.17,-377.8 -162.55,1.8 -578.94,179.8 -652.81,443.4 -73.88,263.5 -31.57,1391.8 -31.57,1391.8 l 352.59,-353.9" /><path
         id="path32"
         style="fill:#cfcecd;fill-opacity:1;fill-rule:nonzero;stroke:none"
         d="m 4692.78,6846.1 122.26,-122.7 c -3.86,-426.7 -0.58,-1180.6 63.54,-1490.8 -73.1,63.4 -130.85,138.2 -154.23,221.7 -73.88,263.5 -31.57,1391.8 -31.57,1391.8" /><path
         id="path34"
         style="fill:#b8613a;fill-opacity:1;fill-rule:nonzero;stroke:none"
         d="m 5414.41,14259.9 c 4.7,7 4.7,89.3 -21.15,101 -25.86,11.8 -65.82,9.4 -68.17,16.5 -2.35,7 -48.3,65.8 -85.27,72.9 -36.96,7 -177.03,11.7 -195.14,0 -18.12,-11.8 -53.38,-44.7 -53.38,-44.7 0,0 -61.11,9.4 -101.07,-11.8 -39.96,-21.1 -39.7,-63.4 -39.7,-63.4 0,0 -75.48,-9.4 -84.88,-37.6 -9.4,-28.2 -11.75,-152.9 51.71,-181 63.47,-28.1 72.87,49.3 96.38,70.5 23.5,21.1 225.65,70.5 225.65,70.5 l 275.02,7.1" /><path
         id="path36"
         style="fill:#c37140;fill-opacity:1;fill-rule:nonzero;stroke:none"
         d="m 3696.13,12146.7 c 0,16.4 65.82,357.3 41.14,755.7 -24.68,398.4 -66.99,807.4 -66.99,807.4 h -349.06 c 0,0 -17.64,-296.1 -70.52,-518.3 -52.89,-222.1 -59.94,-997.8 -59.94,-997.8 l 141.03,-47 h 364.34" /><path
         id="path38"
         style="fill:#c37140;fill-opacity:1;fill-rule:nonzero;stroke:none"
         d="m 2880.48,9880.7 c 0,0 -157.49,416.1 -119.88,740.5 37.61,324.3 230.36,648.7 230.36,648.7 0,0 286.77,-18.8 319.68,-56.4 32.9,-37.6 145.73,-517.1 145.73,-517.1 l -150.43,-568.9 -425.46,-246.8" /><path
         id="path40"
         style="fill:#a45634;fill-opacity:1;fill-rule:nonzero;stroke:none"
         d="m 3216.62,10644.7 c 0,0 -136.34,189.2 -310.28,212.1 l 98.72,38.1 -126.27,146.3 112.17,228.7 c 0,0 399.6,-23.5 427.8,-141 28.21,-117.5 -18.8,-404.3 -28.2,-484.2 -9.4,-80 -173.94,0 -173.94,0" /><path
         id="path42"
         style="fill:#1a1918;fill-opacity:1;fill-rule:nonzero;stroke:none"
         d="m 4138.62,5536.8 c 38.07,-12.4 352.22,-210.5 459.3,-247.7 107.07,-37.1 284.55,-8.2 317.56,-94.9 33.02,-86.7 -90.8,-177.5 -206.36,-224.9 -115.57,-47.5 -313.68,-76.4 -367.34,-125.9 -53.65,-49.6 -127.95,-177.5 -375.58,-156.9 -247.65,20.7 -251.77,114.2 -239.39,218.1 12.38,103.9 8.25,4.8 37.15,153.4 28.89,148.6 -49.53,194 49.52,255.9 99.06,61.9 173.35,61.9 202.24,74.3 28.89,12.4 122.9,148.6 122.9,148.6" /><path
         id="path44"
         style="fill:#c37140;fill-opacity:1;fill-rule:nonzero;stroke:none"
         d="m 4593.55,6552.1 c 0,0 33.02,-243.5 -82.54,-491.2 -115.57,-247.6 -136.21,-305.4 -173.35,-458.1 -37.15,-152.7 -37.15,-354.9 -37.15,-354.9 0,0 -103.19,-95 -173.35,-70.2 -70.16,24.8 -160.96,156.8 -160.96,156.8 l 70.16,1283.6 350.82,86.7 206.37,-152.7" /><path
         id="path46"
         style="fill:#f7f7f7;fill-opacity:1;fill-rule:nonzero;stroke:none"
         d="m 4311.05,5437.9 c -10.47,-103 -10.54,-190 -10.54,-190 0,0 -103.18,-95 -173.35,-70.2 -70.16,24.8 -160.96,156.8 -160.96,156.8 l 6.54,119.8 c 105.73,-22.5 232.4,-22.2 338.31,-16.4" /><path
         id="path48"
         style="fill:#5e6061;fill-opacity:1;fill-rule:nonzero;stroke:none"
         d="m 4724.35,6398.1 c -7.19,1.3 -942.31,-229.8 -942.31,-229.8 l -117.14,78.4 383.84,421 c 0,0 369.88,55.6 416.87,0 46.97,-55.7 214.61,-144.5 214.61,-175.5 0,-30.9 44.13,-94.1 44.13,-94.1" /><path
         id="path50"
         style="fill:#1a1918;fill-opacity:1;fill-rule:nonzero;stroke:none"
         d="m 5707.93,4969.3 c -12.38,-18.6 24.77,-64.7 24.77,-64.7 0,0 233.71,-226.3 404.74,-263.5 171.02,-37.1 331.99,-74.3 406.28,-185.7 74.29,-111.4 -267.75,-278.6 -406.28,-328.1 -138.53,-49.5 -324.75,-49.5 -621.68,-74.3 -296.92,-24.8 -507.41,-55.7 -550.75,117.6 -43.34,173.4 136.21,408.6 154.78,495.3 18.57,86.7 210.42,132.8 205.46,185.7 -4.95,53 382.68,117.7 382.68,117.7" /><path
         id="path52"
         style="fill:#373737;fill-opacity:1;fill-rule:nonzero;stroke:none"
         d="m 4548.15,6465.4 c -33.02,-16.5 -846.1,-227 -883.25,-218.7 -37.15,8.2 -482.9,264.1 -482.9,264.1 l -53.66,235.3 709.91,205.3 c 0,0 652.12,157.9 674.82,-32 22.7,-189.8 35.08,-454 35.08,-454" /><path
         id="path54"
         style="fill:#c37140;fill-opacity:1;fill-rule:nonzero;stroke:none"
         d="m 5952.74,7105.2 c 49.53,74.3 100.15,193 100.15,193 0,0 184.63,-24.7 345.6,-96.5 160.97,-71.8 352.89,-245.1 365.27,-430.9 12.38,-185.7 -49.53,-142.3 -154.78,-439.5 -105.24,-297.2 -160.96,-544.8 -414.79,-829.6 -253.83,-284.8 -365.27,-563.4 -420.99,-792.5 0,0 -179.54,-123.8 -297.17,-123.8 -117.63,0 -241.45,136.2 -241.45,161 0,24.8 278.59,439.5 334.32,780.1 55.71,340.5 84.75,678.8 274.53,921.9 189.79,243.1 109.31,656.8 109.31,656.8" /><path
         id="path56"
         style="fill:#7e7f81;fill-opacity:1;fill-rule:nonzero;stroke:none"
         d="m 4391.31,6593.4 c -165.09,-28.9 -726.41,-128 -726.41,-128 0,0 -107.31,260 -82.55,367.4 24.76,107.3 668.63,198.1 668.63,198.1 l 140.33,-437.5" /><path
         id="path58"
         style="fill:#5e6061;fill-opacity:1;fill-rule:nonzero;stroke:none"
         d="m 3128.34,6969 v -222.9 l 536.56,-280.7 v 379.7 L 3128.34,6969" /><path
         id="path60"
         style="fill:#1a1918;fill-opacity:1;fill-rule:nonzero;stroke:none"
         d="m 6067.01,7439.5 c 0,0 148.59,-297.2 136.21,-421 -12.39,-123.8 -148.59,-260 -266.22,-427.2 -117.62,-167.1 -334.31,-365.3 -334.31,-365.3 0,0 -352.89,-24.7 -588.15,37.2 -235.26,61.9 -142.39,123.8 -346.7,142.4 -204.3,18.6 -774.86,148.6 -885.8,179.5 -110.95,31 -606.23,266.2 -631,291 -24.76,24.8 -247.64,340.5 -229.06,643.9 18.57,303.3 117.62,513.8 117.62,513.8 l 742.44,92.9 c 0,0 1573.01,-284.8 1610.15,-309.6 37.15,-24.7 674.82,-377.6 674.82,-377.6" /><path
         id="path62"
         style="fill:#373737;fill-opacity:1;fill-rule:nonzero;stroke:none"
         d="m 4526.11,8451.3 1611.33,-469.7 -256.47,-683.4 -771.5,240.3 c 0,0 -165.09,107.3 -268.28,119.7 -103.18,12.4 -249.71,87.3 -278.6,124.7 -28.89,37.3 -153.41,111.4 -153.41,111.4 l 116.93,557" /><path
         id="path64"
         style="fill:#5e6061;fill-opacity:1;fill-rule:nonzero;stroke:none"
         d="m 5809.95,7736.4 c -88.49,-183.9 -72.8,-375 35.04,-426.9 107.83,-51.9 266.98,55.1 355.46,238.9 88.49,183.9 72.8,375 -35.03,426.9 -107.83,51.9 -266.98,-55.1 -355.47,-238.9" /><path
         id="path66"
         style="fill:#a8a8a6;fill-opacity:1;fill-rule:nonzero;stroke:none"
         d="m 5980.31,7664.6 c -21.04,-48.1 -15.42,-96.9 12.56,-109.2 27.97,-12.2 67.71,16.8 88.75,64.8 21.03,48.1 15.41,96.9 -12.57,109.2 -27.98,12.2 -67.71,-16.8 -88.74,-64.8" /><path
         id="path68"
         style="fill:#a45634;fill-opacity:1;fill-rule:nonzero;stroke:none"
         d="m 6333.23,6492.2 c 0,0 -280.52,-69.2 -511.72,-43.8 l -62.64,-93.2 c 0,0 351.48,-17.7 574.36,137" /><path
         id="path70"
         style="fill:#f7f7f7;fill-opacity:1;fill-rule:nonzero;stroke:none"
         d="m 5796.95,4797.6 c -8.9,-30.2 -16.76,-59.7 -23.75,-88.4 0,0 -179.54,-123.8 -297.17,-123.8 -117.63,0 -241.45,136.2 -241.45,161 0,8.9 36.54,69.1 85.72,158.2 167.11,-67.4 347.19,-95.4 476.65,-107" /><path
         id="path72"
         style="fill:#e9eef1;fill-opacity:1;fill-rule:nonzero;stroke:none"
         d="m 3451.67,10776.3 c -28.2,7 -303.61,0 -303.61,0 0,0 -105.39,-126.9 -154.75,-345.5 -49.36,-218.6 -126.93,-394.9 -112.83,-550.1 14.1,-155.1 133.98,-535.9 162.19,-1008.4 28.21,-472.4 -3.07,-838.5 -3.07,-838.5 0,0 271.04,-198.1 665.94,-254.5 394.89,-56.4 783.57,63.7 783.57,63.7 0,0 51.07,126.7 73.3,399.4 22.24,272.6 130.37,893.2 130.37,893.2 l -715.58,1499.7 -525.53,141" /><path
         id="path74"
         style="fill:#c37140;fill-opacity:1;fill-rule:nonzero;stroke:none"
         d="m 3977.2,11040.1 c 0,0 -16.66,-36.5 -24.97,-77 -8.3,-40.4 24.97,-327.8 24.97,-327.8 0,0 -156.96,37.2 -278.72,-49.4 -121.75,-86.6 -297.41,-318.5 -420.74,-340 -123.33,-21.6 -143.69,139.8 -122.24,276.5 21.45,136.8 152.98,428.2 158.64,450 5.66,21.8 139.84,489.5 161.05,508.6 21.21,19.1 117.53,132.9 216.62,5.3 99.09,-127.6 159.99,-212.9 198.86,-283.1 38.86,-70.3 86.53,-163.1 86.53,-163.1" /><path
         id="path76"
         style="fill:#c37140;fill-opacity:1;fill-rule:nonzero;stroke:none"
         d="m 4883.18,10550.6 -91.68,-599.4 c 0,0 7.05,-474.8 -98.72,-815.6 0,0 -230.75,-256.2 -534.95,-108.1 -304.21,148 -613.87,428.4 -649.62,888.5 -35.75,460.1 411.86,634.6 411.86,634.6 0,0 48.73,225.7 109.85,390.2 61.11,164.6 258.56,399.2 272.66,437.1 14.11,37.8 70.52,333.9 183.35,517.3 112.83,183.3 126.93,202.1 131.63,216.2 4.71,14.1 -18.8,451.3 32.91,822.7 51.71,371.4 94.02,818 94.02,818 h 394.9 c 0,0 -28.2,-343.2 37.61,-719.2 65.82,-376.1 79.92,-583 42.31,-846.3 -37.61,-263.2 -56.41,-352.5 -56.41,-352.5 0,0 14.1,-483.2 -70.52,-794 -84.62,-310.8 -209.2,-489.5 -209.2,-489.5" /><path
         id="path78"
         style="fill:#a45634;fill-opacity:1;fill-rule:nonzero;stroke:none"
         d="m 4673.97,10734 c 0,0 56.42,-174 -28.2,-427.8 0,0 173.94,258.5 28.2,427.8" /><path
         id="path80"
         style="fill:#a45634;fill-opacity:1;fill-rule:nonzero;stroke:none"
         d="m 3920.07,9511.7 c 0,0 -7.68,-155.2 95.74,-277.4 0,0 -243.2,65.8 -95.74,277.4" /><path
         id="path82"
         style="fill:#a45634;fill-opacity:1;fill-rule:nonzero;stroke:none"
         d="m 4815.01,12233.7 c 0,0 12.95,-136.4 -82.85,-174 l 82.85,174" /><path
         id="path84"
         style="fill:#b8613a;fill-opacity:1;fill-rule:nonzero;stroke:none"
         d="m 3864.2,14199.9 c 0,0 -19.98,125.8 -36.44,144.6 -16.45,18.8 -110.47,21.1 -110.47,21.1 0,0 -32.91,32.9 -75.22,40 -42.31,7.1 -63.47,0 -63.47,0 0,0 -65.81,-0.8 -89.32,3.1 -23.5,4 -23.5,4 -23.5,4 0,0 -119.88,-2.4 -155.14,-16.5 -35.26,-14.1 -57.93,-118.4 -54.82,-134.4 3.11,-16 -39.2,-126.5 -36.86,-143 2.35,-16.4 101.08,-84.6 108.13,-84.6 7.06,0 58.34,11.5 58.34,11.5 0,0 33.33,-56.2 35.68,-63.2 2.36,-7.1 98.73,-9.7 98.73,-9.7 0,0 96.37,-7.4 103.43,0 7.05,7.3 -21.16,56.7 -21.16,56.7 0,0 70.52,23.5 89.32,42.3 18.8,18.8 51.38,119.3 51.38,119.3 l 121.39,8.8" /><path
         id="path86"
         style="fill:#9c9c9b;fill-opacity:1;fill-rule:nonzero;stroke:none"
         d="m 2192.93,13494.7 c 0,0 557.09,581.8 592.35,595.9 35.26,14.1 957.53,100.5 957.53,100.5 l 121.39,8.8 1550.21,60 c 0,0 325.56,10.5 459.54,-21.2 133.98,-31.7 988.58,-540.2 988.58,-540.2 0,0 -94.35,-217.1 -97.87,-199.4 -3.53,17.6 -1014.12,566.8 -1014.12,566.8 l -385.49,-1.1 -1584.3,-54.1 c 0,0 -865.01,-43.9 -886.17,-54.3 -21.15,-10.3 -574.71,-585.1 -574.71,-585.1 0,0 -31.74,-24.6 -91.68,21.2 -46.61,35.6 -35.26,102.2 -35.26,102.2" /><path
         id="path88"
         style="fill:#7e7f81;fill-opacity:1;fill-rule:nonzero;stroke:none"
         d="m 7696.83,4838.7 119.88,-93.7 172.76,46.9 631.14,11160.4 H 8402 L 7696.83,4838.7" /><path
         id="path90"
         style="fill:#9c9c9b;fill-opacity:1;fill-rule:nonzero;stroke:none"
         d="m 6765.33,5388.7 839.83,-338.4 v -112.9 l -98.73,-119.8 218.6,-72.6 h 91.68 L 8402,15952.3 h -211.55 l -564.14,-10563.6 -1293.08,479.6 -195.79,-260.9 195.79,-70.6 432.1,-148.1" /><path
         id="path92"
         style="fill:#7e7f81;fill-opacity:1;fill-rule:nonzero;stroke:none"
         d="m 7644.21,9837.2 293.82,6113.9 -49.9,2.4 -293.82,-6113.9 49.9,-2.4" /><path
         id="path94"
         style="fill:#7e7f81;fill-opacity:1;fill-rule:nonzero;stroke:none"
         d="m 7192.91,9922.1 218.6,6029.3 -49.93,1.8 -218.6,-6029.3 49.93,-1.8" /><path
         id="path96"
         style="fill:#1a1918;fill-opacity:1;fill-rule:nonzero;stroke:none"
         d="m 7696.83,9792.6 -148.09,31.7 v 278.6 l 148.09,-17.7 v -292.6" /><path
         id="path98"
         style="fill:#1a1918;fill-opacity:1;fill-rule:nonzero;stroke:none"
         d="m 7241.99,10173.4 v -292.7 l -148.09,31.8 v 278.5 l 148.09,-17.6" /><path
         id="path100"
         style="fill:#7e7f81;fill-opacity:1;fill-rule:nonzero;stroke:none"
         d="m 4353.48,15966.4 -51.27,-835.4 -68.95,-0.4 45.73,835.8 h 74.49" /><path
         id="path102"
         style="fill:#7e7f81;fill-opacity:1;fill-rule:nonzero;stroke:none"
         d="m 4266.69,14899 c 0.23,-32.1 0.57,-80.9 0.57,-80.9 l -63.72,15.1 2.53,65.8 h 60.62" /><path
         id="path104"
         style="fill:#7e7f81;fill-opacity:1;fill-rule:nonzero;stroke:none"
         d="m 4320.98,14221.1 c 0,0 -22.04,53.1 -56.31,83.5 -34.26,30.4 -235.47,29 -263.24,16.4 -27.77,-12.6 -57.08,-56.7 -51.31,-92 5.77,-35.2 -43.76,-35.6 83.18,-37.8 126.93,-2.2 287.68,29.9 287.68,29.9" /><path
         id="path106"
         style="fill:#7e7f81;fill-opacity:1;fill-rule:nonzero;stroke:none"
         d="m 4110.03,14284.6 80.48,0.6 -1.02,145.4 -80.48,-0.5 1.02,-145.5" /><path
         id="path108"
         style="fill:#9c9c9b;fill-opacity:1;fill-rule:nonzero;stroke:none"
         d="m 4233.88,14721.9 c 20.71,-1.5 31.74,-111.2 19.81,-176.3 -11.92,-65.1 -39.52,-102.4 -79.98,-71.7 -40.46,30.7 23.01,250.9 60.17,248 z m -102.09,-319.5 c 78.7,-55.2 166.24,1.1 187.06,122 20.82,120.9 -51.59,293.7 -51.59,293.7 l -63.72,15.1 c 0,0 -44.53,-28.2 -73.9,-124.4 -29.36,-96.1 -76.54,-251.2 2.15,-306.4" /><path
         id="path110"
         style="fill:#9c9c9b;fill-opacity:1;fill-rule:nonzero;stroke:none"
         d="m 4202.3,15009.6 c 7.66,34.1 53.15,49.9 53.15,49.9 0,0 7,-157.8 -20.66,-145.6 -27.68,12.2 -40.14,61.6 -32.49,95.7 z m 32.77,-136.1 c 101.38,-11.9 79.94,198.8 79.94,198.8 l -12.8,58.7 -68.94,-0.4 c 0,0 -45.43,-22 -76.22,-90.3 -30.8,-68.4 -23.37,-155 78.02,-166.8" /><path
         id="path112"
         style="fill:#e3e2e0;fill-opacity:1;fill-rule:nonzero;stroke:none"
         d="m 6745.54,13632.2 c -27.02,-55.1 -18.46,-114.7 19.12,-133.1 37.58,-18.5 89.96,11.2 116.99,66.3 27.02,55 18.47,114.6 -19.12,133.1 -37.58,18.4 -89.96,-11.3 -116.99,-66.3" /><path
         id="path114"
         style="fill:#c37140;fill-opacity:1;fill-rule:nonzero;stroke:none"
         d="m 5139.39,13752.1 c 0,0 19.87,54.1 100.43,115.2 80.57,61.1 125.23,197.5 125.23,197.5 l -136.33,11.7 c 0,0 -28.21,141.1 -32.91,152.8 -4.71,11.8 -72.87,72.9 -98.73,75.2 -25.85,2.4 -145.74,-9.4 -164.54,-28.2 -18.8,-18.8 -42.31,-82.3 -18.8,-94 23.5,-11.8 75.22,2.3 75.22,2.3 l 2.34,-94 c 0,0 -256.21,-14.1 -258.56,-23.5 -2.35,-9.4 -23.51,-185.7 11.75,-315 35.26,-129.2 129.28,-169.2 199.8,-129.2 70.52,39.9 195.1,129.2 195.1,129.2" /><path
         id="path116"
         style="fill:#c37140;fill-opacity:1;fill-rule:nonzero;stroke:none"
         d="m 4880.83,13855.6 c 7.76,-11.8 39.96,152.7 110.47,235 l -110.47,-6.9 c 0,0 -68.17,-124.7 0,-228.1" /><path
         id="path118"
         style="fill:#c37140;fill-opacity:1;fill-rule:nonzero;stroke:none"
         d="m 3670.28,13709.8 c 0,0 101.07,202.2 110.47,300.9 h -376.09 c 0,0 -27.03,87 -153.96,122.2 0,0 116.35,128 91.67,148.7 -24.68,20.6 -179.82,-60.5 -197.45,-95.8 -17.63,-35.2 -10.57,-140.7 0,-188.5 10.58,-47.7 95.2,-118.2 112.83,-157 17.63,-38.8 63.47,-130.5 63.47,-130.5 l 145.56,-123.4 203.5,123.4" /><path
         id="path120"
         style="fill:#c37140;fill-opacity:1;fill-rule:nonzero;stroke:none"
         d="m 5959.1,5177.2 h -502.22 c 49.76,113.2 93.37,235.3 112.02,349.3 19.68,120.3 36.14,240.2 57.43,355.9 h 817.55 c -57.19,-124.7 -132.04,-248.7 -249.69,-380.7 -97.98,-109.9 -174.57,-218.9 -235.09,-324.5" /><g
         transform="scale(1.04279)"
         id="g122"><path
           id="path124"
           style="fill:#7e7f81;fill-opacity:1;fill-rule:nonzero;stroke:none"
           d="m 16168.7,11848 131.3,3448.8 -47.9,1.8 -131.2,-3448.8 47.8,-1.8" /></g><g
         transform="scale(1.01049)"
         id="g126"><path
           id="path128"
           style="fill:#7e7f81;fill-opacity:1;fill-rule:nonzero;stroke:none"
           d="m 16235.4,12303.5 64.6,3482.7 -49.5,0.9 -64.5,-3482.7 49.4,-0.9" /></g><g
         transform="scale(1.03439)"
         id="g130"><path
           id="path132"
           style="fill:#7e7f81;fill-opacity:1;fill-rule:nonzero;stroke:none"
           d="m 16121.1,8495.28 178.9,3291.72 -48.1,2.6 -179,-3291.71 48.2,-2.61" /></g><g
         transform="scale(1.08077)"
         id="g134"><path
           id="path136"
           style="fill:#535456;fill-opacity:1;fill-rule:nonzero;stroke:none"
           d="m 15938.2,11320.4 361.8,-103.7 -537.4,-165.7 175.6,269.4" /></g><g
         transform="scale(1.07674)"
         id="g138"><path
           id="path140"
           style="fill:#535456;fill-opacity:1;fill-rule:nonzero;stroke:none"
           d="m 15326.6,8251.05 973.4,-270.08 v -115.35 l -753.7,-103.36 -1119.9,351.33 900.2,137.46" /></g><g
         transform="scale(1.05679)"
         id="g142"><path
           id="path144"
           style="fill:#535456;fill-opacity:1;fill-rule:nonzero;stroke:none"
           d="m 16300,11577.4 -397.4,63.4 H 14875 l 1245.4,-339 179.6,275.6" /></g><g
         transform="scale(1.07674)"
         id="g146"><path
           id="path148"
           style="fill:#373737;fill-opacity:1;fill-rule:nonzero;stroke:none"
           d="m 16189.7,5838.2 -765.1,-229.21 121.7,2153.27 753.7,103.36 -110.3,-2027.42" /></g><g
         transform="scale(1.08077)"
         id="g150"><path
           id="path152"
           style="fill:#373737;fill-opacity:1;fill-rule:nonzero;stroke:none"
           d="m 15738.8,9964.39 528.5,81.01 32.7,1171.3 -537.4,-165.7 -23.8,-1086.61" /></g><g
         transform="scale(1.02695)"
         id="g154"><path
           id="path156"
           style="fill:#1a1918;fill-opacity:1;fill-rule:nonzero;stroke:none"
           d="m 16172.3,5880.9 -1153.6,373.92 107,2252.11 1174.3,-368.37 -127.7,-2257.66" /></g><g
         transform="scale(1.04514)"
         id="g158"><path
           id="path160"
           style="fill:#1a1918;fill-opacity:1;fill-rule:nonzero;stroke:none"
           d="m 15040.7,11770.5 v -1129 l 1234.7,-337.4 24.6,1123.6 -1259.3,342.8" /></g><path
         id="path162"
         style="fill:#9c9c9b;fill-opacity:1;fill-rule:nonzero;stroke:none"
         d="m 15196.9,15952.3 -340.5,-8077.5 170.2,60.1 366.3,8017.4 h -196" /><path
         id="path164"
         style="fill:#7e7f81;fill-opacity:1;fill-rule:nonzero;stroke:none"
         d="m 15396.2,15952.3 -369.6,-8017.4 h 199.3 l 366.3,8017.4 h -196" /><path
         id="path166"
         style="fill:#7e7f81;fill-opacity:1;fill-rule:nonzero;stroke:none"
         d="m 13530.2,15952.3 -286.1,-4661.3 -68.9,-0.5 255,4661.8 h 100" /><path
         id="path168"
         style="fill:#7e7f81;fill-opacity:1;fill-rule:nonzero;stroke:none"
         d="m 13208.6,11059 c 0.2,-32.1 0.6,-80.9 0.6,-80.9 l -63.8,15 2.6,65.9 h 60.6" /><path
         id="path170"
         style="fill:#7e7f81;fill-opacity:1;fill-rule:nonzero;stroke:none"
         d="m 13262.9,10381 c 0,0 -22.1,53.1 -56.3,83.5 -34.3,30.4 -235.5,29 -263.3,16.4 -27.7,-12.5 -57,-56.7 -51.3,-91.9 5.8,-35.3 -43.7,-35.6 83.2,-37.8 126.9,-2.3 287.7,29.8 287.7,29.8" /><path
         id="path172"
         style="fill:#7e7f81;fill-opacity:1;fill-rule:nonzero;stroke:none"
         d="m 13051.9,10444.6 80.5,0.5 -1,145.5 -80.5,-0.6 1,-145.4" /><path
         id="path174"
         style="fill:#9c9c9b;fill-opacity:1;fill-rule:nonzero;stroke:none"
         d="m 13175.8,10881.9 c 20.7,-1.6 31.7,-111.2 19.8,-176.3 -11.9,-65.1 -39.5,-102.4 -80,-71.8 -40.4,30.7 23,250.9 60.2,248.1 z m -102.1,-319.6 c 78.7,-55.1 166.2,1.2 187.1,122.1 20.8,120.9 -51.6,293.7 -51.6,293.7 l -63.8,15 c 0,0 -44.5,-28.2 -73.8,-124.3 -29.4,-96.2 -76.6,-251.3 2.1,-306.5" /><path
         id="path176"
         style="fill:#9c9c9b;fill-opacity:1;fill-rule:nonzero;stroke:none"
         d="m 13144.2,11169.6 c 7.7,34.1 53.2,49.9 53.2,49.9 0,0 7,-157.9 -20.7,-145.7 -27.7,12.2 -40.1,61.7 -32.5,95.8 z m 32.8,-136.2 c 101.4,-11.8 79.9,198.9 79.9,198.9 l -12.8,58.7 -68.9,-0.5 c 0,0 -45.5,-22 -76.2,-90.3 -30.8,-68.3 -23.4,-154.9 78,-166.8" /><path
         id="path178"
         style="fill:#9c9c9b;fill-opacity:1;fill-rule:nonzero;stroke:none"
         d="m 12145.5,10522.4 c -15.2,-4.7 -230.3,3.6 -314.9,-21.1 -84.6,-24.7 -273.8,-345.6 -273.8,-345.6 h 270.3 c 0,0 227.5,82.4 243.3,183.4 15.8,101 75.1,183.3 75.1,183.3" /><path
         id="path180"
         style="fill:#9c9c9b;fill-opacity:1;fill-rule:nonzero;stroke:none"
         d="m 15698.5,9387.1 -148.1,-119.9 c 0,0 -855.6,725.7 -867.4,728.4 -11.7,2.6 -350.9,66.8 -350.9,66.8 0,0 -269.6,-5.4 -279,1.7 -9.4,7 -277.4,81.1 -277.4,81.1 l -763.9,95.2 c 0,0 -213,88.6 -212.4,88.9 0.6,0.2 29,125 36.1,125 7,0 237.4,-18.8 282.1,-30.6 44.6,-11.8 61.1,-41.5 152.8,-47.8 91.6,-6.3 899.9,-67.4 899.9,-67.4 l 320,-94 c 0,0 260.9,-61.1 310.3,-82.3 49.3,-21.1 897.9,-745.1 897.9,-745.1" /><path
         id="path182"
         style="fill:#7e7f81;fill-opacity:1;fill-rule:nonzero;stroke:none"
         d="m 11980.3,10419.4 h -129.1 l -87.6,-175.5 c 0,0 165.7,-17.6 169.3,0 3.5,17.6 47.4,175.5 47.4,175.5" /><path
         id="path184"
         style="fill:#c37140;fill-opacity:1;fill-rule:nonzero;stroke:none"
         d="m 11980.3,10107.4 -198.4,165.9 c 0,0 -149.9,-23.5 -225.1,-117.6 -75.2,-94 -117.6,-333.7 -117.6,-460.7 0,-126.9 197.5,-554.7 216.3,-582.9 18.8,-28.2 145.2,-313.3 281.8,-384.7 136.6,-71.3 150.7,798.4 150.7,798.4 l -107.7,581.6" /><g
         transform="scale(1.0812)"
         id="g186"><path
           id="path188"
           style="fill:#9c9c9b;fill-opacity:1;fill-rule:nonzero;stroke:none"
           d="m 16300,5120.97 v -281.36 l -593.5,-243.52 62,368.38 531.5,156.5" /></g><path
         id="path190"
         style="fill:#a45634;fill-opacity:1;fill-rule:nonzero;stroke:none"
         d="m 11566.2,9583.3 225.6,-450.1 56.4,190.4 z" /><g
         transform="scale(1.08466)"
         id="g192"><path
           id="path194"
           style="fill:#7e7f81;fill-opacity:1;fill-rule:nonzero;stroke:none"
           d="m 15448.4,4461.02 110.4,-86.39 159.4,43.24 581.8,10289.23 h -201.5 L 15448.4,4461.02" /></g><path
         id="path196"
         style="fill:#9c9c9b;fill-opacity:1;fill-rule:nonzero;stroke:none"
         d="m 14104.8,6492.2 c 0,-97.4 -28.2,-948.5 0,-955.4 28.2,-7 88.1,-176.3 194.5,-185.7 106.4,-9.4 1093.4,185.7 1093.4,185.7 l 432.1,-148.1 c 0,0 -1225.6,-379.5 -1388.2,-377.8 -162.5,1.8 -578.9,179.8 -652.8,443.4 -73.9,263.5 -31.6,1391.8 -31.6,1391.8 l 352.6,-353.9" /><path
         id="path198"
         style="fill:#cfcecd;fill-opacity:1;fill-rule:nonzero;stroke:none"
         d="m 13752.2,6846.1 122.3,-122.7 c -3.9,-426.7 -0.6,-1180.6 63.5,-1490.8 -73.1,63.4 -130.8,138.2 -154.2,221.7 -73.9,263.5 -31.6,1391.8 -31.6,1391.8" /><g
         transform="scale(1.07125)"
         id="g200"><path
           id="path202"
           style="fill:#9c9c9b;fill-opacity:1;fill-rule:nonzero;stroke:none"
           d="m 14772.3,5030.28 783.9,-315.89 V 4609 l -92.1,-111.83 204,-67.77 h 85.5 l 546.4,10461.9 h -197.4 l -526.6,-9861.02 -1207.1,447.71 -182.8,-243.55 182.8,-65.91 403.4,-138.25" /></g><path
         id="path204"
         style="fill:#1a1918;fill-opacity:1;fill-rule:nonzero;stroke:none"
         d="m 13198.1,5536.8 c 38,-12.4 352.2,-210.5 459.3,-247.7 107,-37.1 284.5,-8.2 317.5,-94.9 33,-86.7 -90.8,-177.5 -206.3,-224.9 -115.6,-47.5 -313.7,-76.4 -367.4,-125.9 -53.6,-49.6 -127.9,-177.5 -375.6,-156.9 -247.6,20.7 -251.7,114.2 -239.3,218.1 12.3,103.9 8.2,4.8 37.1,153.4 28.9,148.6 -49.5,194 49.5,255.9 99.1,61.9 173.4,61.9 202.3,74.3 28.9,12.4 122.9,148.6 122.9,148.6" /><path
         id="path206"
         style="fill:#c37140;fill-opacity:1;fill-rule:nonzero;stroke:none"
         d="m 13653,6552.1 c 0,0 33,-243.5 -82.6,-491.2 -115.5,-247.6 -136.2,-305.4 -173.3,-458.1 -37.1,-152.7 -37.1,-354.9 -37.1,-354.9 0,0 -103.2,-95 -173.4,-70.2 -70.2,24.8 -161,156.8 -161,156.8 l 70.2,1283.6 350.8,86.7 206.4,-152.7" /><path
         id="path208"
         style="fill:#f7f7f7;fill-opacity:1;fill-rule:nonzero;stroke:none"
         d="m 13370.5,5437.9 c -10.5,-103 -10.5,-190 -10.5,-190 0,0 -103.2,-95 -173.4,-70.2 -70.2,24.8 -161,156.8 -161,156.8 l 6.6,119.8 c 105.7,-22.5 232.4,-22.2 338.3,-16.4" /><path
         id="path210"
         style="fill:#5e6061;fill-opacity:1;fill-rule:nonzero;stroke:none"
         d="m 13783.8,6398.1 c -7.2,1.3 -942.3,-229.8 -942.3,-229.8 l -117.2,78.4 383.9,421 c 0,0 369.9,55.6 416.8,0 47,-55.7 214.7,-144.5 214.7,-175.5 0,-30.9 44.1,-94.1 44.1,-94.1" /><path
         id="path212"
         style="fill:#1a1918;fill-opacity:1;fill-rule:nonzero;stroke:none"
         d="m 14767.4,4969.3 c -12.4,-18.6 24.7,-64.7 24.7,-64.7 0,0 233.7,-226.3 404.8,-263.5 171,-37.1 332,-74.3 406.3,-185.7 74.3,-111.4 -267.8,-278.6 -406.3,-328.1 -138.6,-49.5 -324.8,-49.5 -621.7,-74.3 -296.9,-24.8 -507.4,-55.7 -550.7,117.6 -43.4,173.4 136.2,408.6 154.7,495.3 18.6,86.7 210.4,132.8 205.5,185.7 -5,53 382.7,117.7 382.7,117.7" /><path
         id="path214"
         style="fill:#373737;fill-opacity:1;fill-rule:nonzero;stroke:none"
         d="m 13607.6,6465.4 c -33,-16.5 -846.1,-227 -883.3,-218.7 -37.1,8.2 -482.9,264.1 -482.9,264.1 l -53.6,235.3 709.9,205.3 c 0,0 652.1,157.9 674.8,-32 22.7,-189.8 35.1,-454 35.1,-454" /><path
         id="path216"
         style="fill:#c37140;fill-opacity:1;fill-rule:nonzero;stroke:none"
         d="m 15012.2,7105.2 c 49.5,74.3 100.1,193 100.1,193 0,0 184.7,-24.7 345.6,-96.5 161,-71.8 352.9,-245.1 365.3,-430.9 12.4,-185.7 -49.5,-142.3 -154.8,-439.5 -105.2,-297.2 -160.9,-544.8 -414.8,-829.6 -253.8,-284.8 -365.2,-563.4 -421,-792.5 0,0 -179.5,-123.8 -297.1,-123.8 -117.7,0 -241.5,136.2 -241.5,161 0,24.8 278.6,439.5 334.3,780.1 55.8,340.5 84.8,678.8 274.6,921.9 189.8,243.1 109.3,656.8 109.3,656.8" /><path
         id="path218"
         style="fill:#7e7f81;fill-opacity:1;fill-rule:nonzero;stroke:none"
         d="m 13450.8,6593.4 c -165.1,-28.9 -726.5,-128 -726.5,-128 0,0 -107.3,260 -82.5,367.4 24.8,107.3 668.6,198.1 668.6,198.1 l 140.4,-437.5" /><path
         id="path220"
         style="fill:#5e6061;fill-opacity:1;fill-rule:nonzero;stroke:none"
         d="m 12187.8,6969 v -222.9 l 536.5,-280.7 v 379.7 l -536.5,123.9" /><path
         id="path222"
         style="fill:#1a1918;fill-opacity:1;fill-rule:nonzero;stroke:none"
         d="m 15126.5,7439.5 c 0,0 148.5,-297.2 136.2,-421 -12.4,-123.8 -148.6,-260 -266.3,-427.2 -117.6,-167.1 -334.3,-365.3 -334.3,-365.3 0,0 -352.9,-24.7 -588.1,37.2 -235.3,61.9 -142.4,123.8 -346.7,142.4 -204.3,18.6 -774.9,148.6 -885.8,179.5 -111,31 -606.3,266.2 -631,291 -24.8,24.8 -247.7,340.5 -229.1,643.9 18.6,303.3 117.6,513.8 117.6,513.8 l 742.5,92.9 c 0,0 1573,-284.8 1610.1,-309.6 37.2,-24.7 674.9,-377.6 674.9,-377.6" /><path
         id="path224"
         style="fill:#373737;fill-opacity:1;fill-rule:nonzero;stroke:none"
         d="m 13585.6,8451.3 1611.3,-469.7 -256.5,-683.4 -771.5,240.3 c 0,0 -165.1,107.3 -268.3,119.7 -103.1,12.4 -249.7,87.3 -278.6,124.7 -28.9,37.3 -153.4,111.4 -153.4,111.4 l 117,557" /><path
         id="path226"
         style="fill:#5e6061;fill-opacity:1;fill-rule:nonzero;stroke:none"
         d="m 14869.4,7736.4 c -88.5,-183.9 -72.8,-375 35,-426.9 107.9,-51.9 267,55.1 355.5,238.9 88.5,183.9 72.8,375 -35,426.9 -107.9,51.9 -267,-55.1 -355.5,-238.9" /><path
         id="path228"
         style="fill:#a8a8a6;fill-opacity:1;fill-rule:nonzero;stroke:none"
         d="m 15039.7,7664.6 c -21,-48.1 -15.4,-96.9 12.6,-109.2 28,-12.2 67.7,16.8 88.8,64.8 21,48.1 15.4,96.9 -12.6,109.2 -28,12.2 -67.7,-16.8 -88.8,-64.8" /><path
         id="path230"
         style="fill:#a45634;fill-opacity:1;fill-rule:nonzero;stroke:none"
         d="m 15392.7,6492.2 c 0,0 -280.6,-69.2 -511.8,-43.8 l -62.6,-93.2 c 0,0 351.5,-17.7 574.4,137" /><path
         id="path232"
         style="fill:#f7f7f7;fill-opacity:1;fill-rule:nonzero;stroke:none"
         d="m 14856.4,4797.6 c -8.9,-30.2 -16.8,-59.7 -23.8,-88.4 0,0 -179.5,-123.8 -297.1,-123.8 -117.7,0 -241.5,136.2 -241.5,161 0,8.9 36.6,69.1 85.7,158.2 167.2,-67.4 347.2,-95.4 476.7,-107" /><path
         id="path234"
         style="fill:#e9eef1;fill-opacity:1;fill-rule:nonzero;stroke:none"
         d="m 12700.8,10560 c 7.8,-9.4 186.4,-117.5 186.4,-117.5 l 178.6,-197.4 c 0,0 467.8,-1118.9 467.8,-1161.2 0,-42.3 74,-957.2 74,-957.2 L 13563,7833 c 0,0 -635.8,-96 -960.2,-32.6 -324.4,63.5 -503.8,233.4 -503.8,233.4 0,0 10.2,243.7 -60.4,435.4 -70.5,191.6 -218.6,530 -246.8,664 -28.2,134 14.1,425.5 0,618.2 -14.1,192.8 -9.9,521.9 -9.9,521.9 l 198.4,146.1 720.5,140.6" /><g
         transform="scale(1.0374)"
         id="g236"><path
           id="path238"
           style="fill:#1a1918;fill-opacity:1;fill-rule:nonzero;stroke:none"
           d="m 16300,11708.8 -142.7,30.6 v 268.5 l 142.7,-17 v -282.1" /></g><g
         transform="scale(1.0095)"
         id="g240"><path
           id="path242"
           style="fill:#1a1918;fill-opacity:1;fill-rule:nonzero;stroke:none"
           d="m 16300,12409.6 v -289.9 l -146.7,31.5 v 275.9 l 146.7,-17.5" /></g><g
         transform="scale(1.02626)"
         id="g244"><path
           id="path246"
           style="fill:#1a1918;fill-opacity:1;fill-rule:nonzero;stroke:none"
           d="m 16300,8689.58 v -285.12 l -144.3,30.89 v 271.38 l 144.3,-17.15" /></g><path
         id="path248"
         style="fill:#c37140;fill-opacity:1;fill-rule:nonzero;stroke:none"
         d="m 12820,10755.1 c 0,0 -10.7,-96.3 0,-176.3 10.8,-79.9 67.2,-136.3 67.2,-136.3 0,0 -183.3,-37.6 -362,-117.5 -178.6,-79.9 -366.7,-272.7 -503,-235.1 -136.3,37.6 -141,197.5 -131.6,216.3 9.4,18.8 150.4,178.6 164.5,220.9 14.1,42.3 42.3,352.6 47,390.2 4.7,37.6 324.8,310.3 357.5,319.7 32.7,9.4 271.3,-20.5 328.3,-92.5 57,-72 32.1,-389.4 32.1,-389.4" /><path
         id="path250"
         style="fill:#c37140;fill-opacity:1;fill-rule:nonzero;stroke:none"
         d="m 12947.5,10375.9 c 0,0 -365.4,-60.3 -487.9,-380 -122.4,-319.7 46.8,-719.3 169,-862.7 122.3,-143.3 318.9,-195.1 318.9,-195.1 0,0 33.7,-385.5 207.7,-658.1 173.9,-272.7 444.5,-401.2 550,-366.7 105.5,34.5 221,319.7 221,319.7 0,0 136.3,211.5 145.7,456 9.4,244.4 -32.9,681.6 0,841.5 32.9,159.8 32.9,159.8 32.9,159.8 l -329.1,56.4 c 0,0 -65.8,244.5 -220.9,362 -155.2,117.6 -343.2,127.4 -343.2,127.4 0,0 -166.3,110.8 -264.1,139.8" /><path
         id="path252"
         style="fill:#a45634;fill-opacity:1;fill-rule:nonzero;stroke:none"
         d="m 12787.9,9358.3 136.9,-156.9 22.7,-263.3 -117.4,45.7 37.6,208.2 -79.8,166.3" /><path
         id="path254"
         style="fill:#a45634;fill-opacity:1;fill-rule:nonzero;stroke:none"
         d="m 12947.5,9544.6 c 0,0 14.9,-159.9 188.9,-343.2 0,0 -255.6,79.9 -188.9,343.2" /><path
         id="path256"
         style="fill:#b8613a;fill-opacity:1;fill-rule:nonzero;stroke:none"
         d="m 14330.1,10261.6 c 9.9,35.1 -22.2,85.1 -22.2,85.1 -36.8,26.1 -61.7,51.5 -61.7,51.5 0,0 -52.7,54.9 -67.3,63.5 -14.6,8.6 -180.6,29.6 -204,25.9 -23.3,-3.7 -50.3,-26.4 -50.3,-26.4 0,0 -80.6,9.5 -110.3,-6.4 -29.7,-15.8 -69.1,-67.5 -69.1,-67.5 0,0 -75.6,15.3 -90.3,-20.1 -14.8,-35.4 18,-174.8 57.6,-177.2 39.5,-2.4 61.5,63 83.5,71 22,8.1 221,26.6 228.2,24.6 7.2,-1.9 305.9,-24 305.9,-24" /><path
         id="path258"
         style="fill:#e3e2e0;fill-opacity:1;fill-rule:nonzero;stroke:none"
         d="m 15578.7,9369.2 c -34.7,-39.5 -43.2,-88.8 -19,-110.2 24.3,-21.4 72.2,-6.7 106.9,32.8 34.8,39.5 43.3,88.9 19,110.2 -24.3,21.4 -72.1,6.7 -106.9,-32.8" /><path
         id="path260"
         style="fill:#c37140;fill-opacity:1;fill-rule:nonzero;stroke:none"
         d="m 14090.8,9622.4 c 0,0 109.5,271.7 151.7,314.3 42.1,42.6 60.1,151.7 60.1,151.7 l -127.9,19.3 c 0,0 -51,176.1 -73,187.7 -22.1,11.6 -117.7,46.3 -145,38.9 -27.2,-7.4 -169.9,-59 -153.2,-112.9 16.7,-53.9 101.9,-31.1 101.9,-31.1 l 6.3,-65.6 -259.2,35.8 c 0,0 14.5,-332.2 75,-479.5 60.4,-147.4 162.1,-168.8 162.1,-168.8 l 201.2,110.2" /><path
         id="path262"
         style="fill:#a45634;fill-opacity:1;fill-rule:nonzero;stroke:none"
         d="m 13871.8,9784.8 c 5.4,-9.1 -88.3,181.9 39.9,339.9 l -72.2,9.9 c 0,0 -100.7,-125.2 32.3,-349.8" /><path
         id="path264"
         style="fill:#a45634;fill-opacity:1;fill-rule:nonzero;stroke:none"
         d="m 13775.7,9746.7 c 0,0 37.6,-131.6 28.2,-282 -9.4,-150.5 -28.2,-295.3 -28.2,-295.3 0,0 56.4,-284.9 56.4,-446.1 0,-161.3 -28.2,-335.6 -28.2,-335.6 0,0 108.2,185.9 98.8,401.1 -9.4,215.2 -42.4,380.6 -42.4,380.6 0,0 61.2,417.5 -84.6,577.3" /><path
         id="path266"
         style="fill:#2f1d16;fill-opacity:1;fill-rule:nonzero;stroke:none"
         d="m 3852.06,12027.9 c 0,0 2.49,111.9 -35.16,142 -37.64,30.1 -52.7,11.3 -97.88,45.2 -45.17,33.9 -62.42,52.7 -127.2,71.5 -64.79,18.8 -55.51,11.3 -135.45,0 -79.93,-11.3 -172.84,-13 -219.23,-52.9 -46.38,-40 -120.47,-63.8 -199.53,-135.3 -79.06,-71.5 -139.29,-150.6 -188.23,-240.9 -48.94,-90.4 -60.23,-180.7 -60.23,-180.7 0,0 -67.77,-101.7 -52.71,-259.8 15.04,-158 104.58,-293.1 160.42,-333.5 0.2,-0.1 0.4,-0.3 0.6,-0.4 27.79,-20.1 55.7,-40 76.7,-55 12.3,-8.7 24.09,-17 35.14,-25 0,0 0.06,0 0.06,0 v 0 c 24.5,-17.8 45.46,-34 60.61,-49 82.49,-81.6 160.3,-98.3 203.63,-97.2 43.32,1 277.76,37.7 277.76,37.7 l 7.01,391.3 361.7,66.6 c -10.13,77.2 -92.98,598.4 -92.98,598.4 l 24.97,77" /><path
         id="path268"
         style="fill:#a45634;fill-opacity:1;fill-rule:nonzero;stroke:none"
         d="m 3591.81,11254.4 c 14.27,-13.4 68.04,-109.5 130.31,-123.5 62.26,-13.9 96.45,-19.3 96.45,-19.3 0,0 35.7,-67.2 133.66,-148.5 l 24.97,77 -55.25,235 c 0,0 -218.37,109.3 -246.08,102.4 -27.7,-6.8 -84.06,-123.1 -84.06,-123.1" /><path
         id="path270"
         style="fill:#c37140;fill-opacity:1;fill-rule:nonzero;stroke:none"
         d="m 3852.06,12027.9 c 0,0 86.38,-156.8 102.08,-208 15.69,-51.3 23.38,-113 28.01,-133.5 4.62,-20.6 151.6,-122.3 152.04,-140.8 0.45,-18.6 -56.26,-63.3 -56.26,-63.3 0,0 27.56,-115 50.2,-197 22.63,-82 43.8,-188.8 17.54,-212.2 -26.27,-23.3 -141.65,-32.3 -168.47,-33 -26.82,-0.6 -204.78,187 -204.78,187 0,0 9.76,-61.7 -58.72,-46.8 -68.49,14.8 -94.1,49.3 -155.33,105.6 -61.23,56.3 -82.04,233.4 28.81,258.8 110.86,25.4 157.24,-99.4 169.76,-105.3 12.53,-5.9 72.16,-6.5 72.16,-6.5 0,0 -53.27,163.8 -84.01,239.4 -30.73,75.7 -27,176.9 -7.62,229 19.38,52.1 114.59,126.6 114.59,126.6" /><path
         id="path272"
         style="fill:#2f1d16;fill-opacity:1;fill-rule:nonzero;stroke:none"
         d="m 12719.9,11819.9 c 0,0 2.5,111.9 -35.2,142 -37.6,30.1 -52.7,11.3 -97.9,45.2 -45.1,33.8 -62.4,52.7 -127.2,71.5 -64.8,18.8 -55.5,11.3 -135.4,0 -80,-11.3 -172.9,-13 -219.2,-53 -46.4,-39.9 -120.5,-63.7 -199.6,-135.2 -79,-71.6 -139.3,-150.6 -188.2,-241 -49,-90.3 -60.2,-180.7 -60.2,-180.7 0,0 -67.8,-101.6 -52.8,-259.8 15.1,-157.9 104.6,-293 160.5,-333.4 0.2,-0.2 0.4,-0.3 0.6,-0.5 27.8,-20 55.7,-40 76.7,-55 12.3,-8.6 24.1,-16.9 35.1,-24.9 l 0.1,-0.1 v 0 c 24.5,-17.7 45.4,-34 60.6,-48.9 82.5,-81.6 160.3,-98.3 203.6,-97.3 43.3,1.1 277.8,37.7 277.8,37.7 l 7,391.4 361.7,66.6 c -10.2,77.1 -93,598.4 -93,598.4 l 25,77" /><path
         id="path274"
         style="fill:#a45634;fill-opacity:1;fill-rule:nonzero;stroke:none"
         d="m 12459.6,11046.4 c 14.3,-13.5 68.1,-109.5 130.3,-123.5 62.3,-14 96.5,-19.3 96.5,-19.3 0,0 35.7,-67.3 133.6,-148.5 l 25,77 -55.2,235 c 0,0 -218.4,109.3 -246.1,102.4 -27.7,-6.9 -84.1,-123.1 -84.1,-123.1" /><path
         id="path276"
         style="fill:#c37140;fill-opacity:1;fill-rule:nonzero;stroke:none"
         d="m 12719.9,11819.9 c 0,0 86.4,-156.8 102,-208.1 15.7,-51.2 23.4,-112.9 28.1,-133.5 4.6,-20.5 151.6,-122.2 152,-140.8 0.5,-18.6 -56.3,-63.3 -56.3,-63.3 0,0 27.6,-114.9 50.2,-196.9 22.7,-82.1 43.8,-188.9 17.6,-212.2 -26.3,-23.4 -141.7,-32.4 -168.5,-33 -26.8,-0.7 -204.8,187 -204.8,187 0,0 9.8,-61.7 -58.7,-46.8 -68.5,14.8 -94.1,49.3 -155.3,105.6 -61.2,56.3 -82.1,233.3 28.8,258.7 110.8,25.4 157.2,-99.4 169.8,-105.3 12.5,-5.9 72.1,-6.5 72.1,-6.5 0,0 -53.3,163.9 -84,239.5 -30.7,75.6 -27,176.9 -7.6,229 19.4,52 114.6,126.6 114.6,126.6" /></g></g></svg>