<?xml version="1.0" encoding="UTF-8" standalone="no"?>
<svg
   xmlns:dc="http://purl.org/dc/elements/1.1/"
   xmlns:cc="http://creativecommons.org/ns#"
   xmlns:rdf="http://www.w3.org/1999/02/22-rdf-syntax-ns#"
   xmlns:svg="http://www.w3.org/2000/svg"
   xmlns="http://www.w3.org/2000/svg"
   viewBox="0 0 2666.6667 2666.6667"
   height="2666.6667"
   width="2666.6667"
   xml:space="preserve"
   id="svg2"
   version="1.1"><metadata
     id="metadata8"><rdf:RDF><cc:Work
         rdf:about=""><dc:format>image/svg+xml</dc:format><dc:type
           rdf:resource="http://purl.org/dc/dcmitype/StillImage" /></cc:Work></rdf:RDF></metadata><defs
     id="defs6"><clipPath
       id="clipPath214"
       clipPathUnits="userSpaceOnUse"><path
         id="path212"
         d="m 4831.07,9724.1 c 0,0 -1.45,88.1 -19.99,139 -18.54,50.9 -113.56,113.6 -113.56,113.6 l 22.25,23.8 c 0,0 95.94,-74.8 111.3,-125.8 15.37,-50.9 0,-150.6 0,-150.6 v 0 0" /></clipPath></defs><g
     transform="matrix(1.3333333,0,0,-1.3333333,0,2666.6667)"
     id="g10"><g
       transform="scale(0.1)"
       id="g12"><g
         transform="scale(1.22699)"
         id="g14"><path
           id="path16"
           style="fill:#ffffff;fill-opacity:1;fill-rule:nonzero;stroke:none"
           d="M 16300,0 H 0 V 16300 H 16300 V 0" /></g><path
         id="path18"
         style="fill:#898b8b;fill-opacity:1;fill-rule:nonzero;stroke:none"
         d="m 11162.8,9642.2 618.8,208.1 v 173.8 l -166.9,27.8 -451.9,-104.3 625.3,1084.9 c 0,0 222.9,-1801 222.9,-1821.8 0,-20.9 -848.2,431.5 -848.2,431.5 z m 1175,-549.7 -730,6299 h -292.1 l -100.8,-114.7 469.3,-3733.5 -1035.9,-1720.8 -931.65,-236.4 v -153 l 201.63,-146 782.12,215.6 1477.5,-771.8 271.1,125.2 v 173.8 l -111.2,62.6" /><path
         id="path20"
         style="fill:#606163;fill-opacity:1;fill-rule:nonzero;stroke:none"
         d="m 10794.3,9586.1 c 13.9,11.6 1330.3,-692.9 1330.3,-692.9 l 324.4,136.7 v -173.8 l -271.1,-125.2 -1477.5,771.8 93.9,83.4" /><path
         id="path22"
         style="fill:#606163;fill-opacity:1;fill-rule:nonzero;stroke:none"
         d="m 9716.65,9586.1 192.35,-146 9.28,-153 -201.63,146 v 153" /><path
         id="path24"
         style="fill:#9f9f9e;fill-opacity:1;fill-rule:nonzero;stroke:none"
         d="m 11781.6,10024.1 -1872.6,-584 9.28,-153 782.12,215.6 462.4,139.5 618.8,208.1 v 173.8" /><path
         id="path26"
         style="fill:#898b8b;fill-opacity:1;fill-rule:nonzero;stroke:none"
         d="m 15376,15808.7 166.9,125.1 h 292 l 375.5,-4244.5 -365.1,83.4 -469.3,4036" /><path
         id="path28"
         style="fill:#606163;fill-opacity:1;fill-rule:nonzero;stroke:none"
         d="m 15542.9,15933.8 438.1,-4192.1 -135.7,31 -469.3,4036 166.9,125.1" /><path
         id="path30"
         style="fill:#b35f38;fill-opacity:1;fill-rule:nonzero;stroke:none"
         d="m 12938.4,14841.3 c 0,0 16,66.6 37.4,80.5 21.4,13.9 162.8,51 162.8,51 0,0 83.4,55.6 122.8,39.4 39.4,-16.3 74.2,19.8 83.5,2.9 9.2,-16.8 74.1,-91 78.7,-121.1 4.7,-30.2 -46.3,-141.4 -46.3,-141.4 l -57.9,-34.8 c 0,0 -18.6,-4.6 -55.7,0 0,0 -57.6,-27.3 -82.1,-2 -24.5,25.2 -36.1,66.9 -52.3,87.8 -16.2,20.8 -67.2,56 -67.2,56 l -123.7,-18.3" /><path
         id="path32"
         style="fill:#b35f38;fill-opacity:1;fill-rule:nonzero;stroke:none"
         d="m 14854.8,15124.5 c 0,0 42.8,117.1 70.6,131 27.8,13.9 78.8,16.2 78.8,16.2 0,0 85.3,-6.4 133.5,-11.6 21.8,-2.3 61.2,-11.3 109.8,-32.3 48.7,-21 60.5,-36.3 60.5,-36.3 0,0 -65.1,-86.6 -106.8,-119.1 -41.7,-32.4 -27.2,-27.8 -86.6,-25.5 -59.4,2.3 -103.4,0 -115,34.8 -11.6,34.7 -17.3,61.7 -17.3,61.7 l -127.5,-18.9" /><path
         id="path34"
         style="fill:#252323;fill-opacity:1;fill-rule:nonzero;stroke:none"
         d="m 13252.1,12803.6 c -6.9,-10.5 -150.6,-107.8 -169.1,-226 -18.6,-118.2 26.6,-316.3 33.6,-333.7 6.9,-17.4 114.7,-114.7 114.7,-114.7 0,0 90.4,38.2 125.1,152.9 34.8,114.7 -104.3,521.5 -104.3,521.5" /><path
         id="path36"
         style="fill:#b35f38;fill-opacity:1;fill-rule:nonzero;stroke:none"
         d="m 13645,12866.1 c 0,0 192.3,-45.2 235.2,-66 42.9,-20.9 46.4,-226 46.4,-226 l -191.2,-135.3 -119.4,49.6 29,377.7" /><path
         id="path38"
         style="fill:#c37140;fill-opacity:1;fill-rule:nonzero;stroke:none"
         d="m 14716.5,12743.3 -20.7,159.2 83.6,77.2 c 0,0 0,259.6 78.8,435.7 78.8,176.1 92.7,254.9 92.7,254.9 0,0 -27.8,327.6 64.9,585.6 92.7,258 102,475.8 102,475.8 h 231.7 c 0,0 32.5,-380 51,-662.8 18.5,-282.7 0,-477.4 0,-477.4 0,0 25.8,-367.1 8.2,-688.8 -17.5,-321.6 -59.2,-460.7 -59.2,-460.7 0,0 -310.5,-23.1 -389.3,55.6 -78.8,78.8 -243.7,245.7 -243.7,245.7" /><g
         transform="scale(1.15083)"
         id="g40"><path
           id="path42"
           style="fill:#c37140;fill-opacity:1;fill-rule:nonzero;stroke:none"
           d="m 15140.1,9572.83 392.6,-138.94 c 0,0 -108.7,-187.29 -114.8,-531.65 -6,-344.36 60.4,-622.25 24.2,-785.35 h 374.6 c 0,0 320.2,1123.67 338.3,1171.99 18.1,48.34 145,398.73 102.7,507.48 -42.2,108.75 -332.3,320.24 -368.5,353.44 -36.3,33.2 -303.5,250.7 -537.7,335.3 -234.2,84.6 -441,-362.5 -435,-398.8 6.1,-36.2 223.6,-513.47 223.6,-513.47" /></g><g
         transform="scale(1.08003)"
         id="g44"><path
           id="path46"
           style="fill:#abaaa9;fill-opacity:1;fill-rule:nonzero;stroke:none"
           d="m 12418.3,9361.39 v 296.12 l 454.9,-148.06 z m 3656.3,195.26 -431.2,-128.73 51.4,-675.94 -3257.3,1313.22 v 547.2 l -324,128.7 V 9447.22 l -667.3,-173.35 v -148.48 l 263.9,-115.92 1339,412 2684.3,-1080.04 96.6,-825.44 231.8,-102.96 238.2,122.31 -225.4,2021.31" /></g><g
         transform="scale(1.10464)"
         id="g48"><path
           id="path50"
           style="fill:#656769;fill-opacity:1;fill-rule:nonzero;stroke:none"
           d="m 12175.3,11005.4 c -40.1,6.2 -719.8,-151.1 -719.8,-151.1 0,0 -81.9,-44.1 -75.5,-182.6 6.3,-138.4 900,-434.2 1586,-698.59 686.1,-264.33 2209.2,-816.12 2398,-858.07 188.9,-41.96 827,234.98 879.2,297.91 52.4,62.94 56.8,212.48 -115.4,282.47 -172.2,70 -1594.6,542.08 -1594.6,542.08 l -1069.9,623.1 -1288,144.8" /></g><g
         transform="scale(1.08387)"
         id="g52"><path
           id="path54"
           style="fill:#252323;fill-opacity:1;fill-rule:nonzero;stroke:none"
           d="m 13815.5,10529.9 310,-365.6 h 904.4 c 0,0 404.1,128.3 449.1,128.3 44.9,0 596.5,-128.3 596.5,-128.3 0,0 12.9,211.7 83.4,538.8 70.6,327.2 141.1,429.8 141.1,429.8 0,0 -340,141.1 -577.3,166.8 -237.3,25.7 -1000.7,89.8 -1000.7,89.8 l -858.6,-25.7 c 0,0 -167.7,-160.3 -212.6,-269.4 -44.9,-109 164.7,-564.5 164.7,-564.5" /></g><path
         id="path56"
         style="fill:#e9eef1;fill-opacity:1;fill-rule:nonzero;stroke:none"
         d="m 14218.6,12729.4 -338.4,-120.5 -264.2,-120.5 c 0,0 -171.5,-913.1 -134.4,-922.4 37.1,-9.3 162.2,-60.3 495.9,-74.2 333.8,-13.9 991.9,-92.7 996.6,-78.8 4.6,13.9 -9.3,407.9 101.9,588.7 111.3,180.8 880.7,343 880.7,343 0,0 -194.7,27.8 -347.6,92.7 -153,64.9 -565.5,304.9 -602.6,347.1 -37.1,42.2 -157.6,102.5 -268.8,116.4 -111.3,13.9 -254.9,-55.6 -301.3,-64.9 -46.3,-9.3 -236.4,-60.2 -236.4,-60.2 l 18.6,-46.4" /><path
         id="path58"
         style="fill:#a45634;fill-opacity:1;fill-rule:nonzero;stroke:none"
         d="m 15055.3,13322.7 c 0,0 70.7,-270.6 -118.8,-487.6 l 70,-50.6 c 0,0 208.9,264.7 48.8,538.2" /><path
         id="path60"
         style="fill:#c37140;fill-opacity:1;fill-rule:nonzero;stroke:none"
         d="m 13083,14347 c 0,0 51,-217.8 23.1,-393.9 -27.8,-176.2 0,-509.9 51,-718.5 51,-208.6 37.1,-519.1 37.1,-519.1 0,0 -38.2,-301.3 1.7,-477.4 0,0 -43.4,-356.9 72.5,-519.1 115.8,-162.3 213.2,-153 213.2,-153 0,0 329.1,-27.8 463.5,190 134.4,217.9 -64.9,472.8 -64.9,472.8 0,0 -83.4,426.4 -176.1,602.6 0,0 -18.6,551.5 -83.5,801.8 -64.9,250.3 -148.3,403.3 -176.1,542.3 -27.8,139.1 -37.1,171.5 -37.1,171.5 H 13083" /><path
         id="path62"
         style="fill:#a45634;fill-opacity:1;fill-rule:nonzero;stroke:none"
         d="m 13708.7,11941.4 c 27.8,13.9 100.1,106 258.6,120.2 l -41.8,95.5 -87.5,-30.3 12,241.6 -81,-297.2 -60.3,-129.8" /><path
         id="path64"
         style="fill:#a45634;fill-opacity:1;fill-rule:nonzero;stroke:none"
         d="m 13449.1,13712 c 0,0 -142,-268.7 51,-468.1 0,0 -106.6,282.7 -51,468.1" /><g
         transform="scale(1.01181)"
         id="g66"><path
           id="path68"
           style="fill:#100f0d;fill-opacity:1;fill-rule:nonzero;stroke:none"
           d="m 15502.4,11918.9 c 0,0 295.5,-164.9 364.2,-374.5 68.8,-209.6 -41.2,-333.3 0,-367.6 41.3,-34.4 233.7,-288.6 233.7,-288.6 l 199.7,61.8 c 0,0 -295.8,336.7 -261.5,364.2 34.3,27.5 54.9,487.9 54.9,487.9 l -110,-158.1 c 0,0 -199.2,226.8 -481,274.9" /></g><g
         transform="scale(1.11628)"
         id="g70"><path
           id="path72"
           style="fill:#a45634;fill-opacity:1;fill-rule:nonzero;stroke:none"
           d="m 16300,9825.54 c 0,0 -205.5,-18.69 -286.5,-99.65 l -87.2,30.88 c 0,0 81,112.37 373.7,68.77" /></g><g
         transform="scale(1.16861)"
         id="g74"><path
           id="path76"
           style="fill:#c37140;fill-opacity:1;fill-rule:nonzero;stroke:none"
           d="m 15207.2,7993.45 c 0,0 2,-67.43 -61.4,-230.11 -63.5,-162.58 -55.5,-253.8 91.2,-301.38 146.8,-47.58 368.8,-4.02 460.1,-47.58 91.3,-43.64 154.7,-103.2 238,-103.2 83.3,0 138.8,11.98 226.1,-15.83 87.2,-27.73 138.8,59.47 118.9,95.16 -19.8,35.76 -122.9,31.74 -158.6,55.53 -35.7,23.79 -483.9,313.37 -507.7,357.01 -23.8,43.64 -37.7,190.4 -37.7,190.4 0,0 -77.3,138.79 -124.9,134.86 -47.6,-4.02 -244,-134.86 -244,-134.86" /></g><path
         id="path78"
         style="fill:#c37140;fill-opacity:1;fill-rule:nonzero;stroke:none"
         d="m 15609.1,8409.5 c 0,0 -4.7,-88 -32.5,-166.8 -27.8,-78.8 23.2,-115.9 32.5,-199.3 9.2,-83.5 -21.1,-306 -40.7,-421.8 -19.6,-115.9 -12.2,-202.8 21.2,-227.1 33.4,-24.4 71.6,0 71.6,0 0,0 10.5,-52.2 52.2,-55.7 41.7,-3.4 69.5,17.4 69.5,17.4 0,0 24.3,-59.1 69.5,-52.1 45.2,6.9 52.2,24.3 52.2,24.3 0,0 41.7,-38.2 86.9,-3.5 0,0 79.9,-73 128.6,10.5 48.7,83.4 -24.3,132.1 -27.8,198.1 -3.5,66.1 -83.5,215.5 -97.4,278.1 -13.9,62.6 -31.2,285.1 -13.9,340.7 17.4,55.6 3.5,257.2 3.5,257.2 0,0 -62.6,125.2 -86.9,132.1 -24.3,7 -288.5,-132.1 -288.5,-132.1" /><g
         transform="scale(1.04178)"
         id="g80"><path
           id="path82"
           style="fill:#7c7d7f;fill-opacity:1;fill-rule:nonzero;stroke:none"
           d="m 12696.3,10363.6 3603.7,-1499.34 -28.9,209.07 -3376.9,1361.47 -197.9,-71.2" /></g><path
         id="path84"
         style="fill:#7c7d7f;fill-opacity:1;fill-rule:nonzero;stroke:none"
         d="m 13696.4,10337.9 -36.6,-8.7 -247.7,-58.7 v -159.9 l 491.3,159.9" /><path
         id="path86"
         style="fill:#7c7d7f;fill-opacity:1;fill-rule:nonzero;stroke:none"
         d="m 12362.2,10016.1 278.1,-122.2 657,170.2 -214.3,139.2 -720.8,-187.2" /><path
         id="path88"
         style="fill:#dad9d8;fill-opacity:1;fill-rule:nonzero;stroke:none"
         d="m 12647.3,9730.5 -7,163.4 -278.1,122.2 v -160.4 l 285.1,-125.2" /><g
         transform="scale(1.09012)"
         id="g90"><path
           id="path92"
           style="fill:#abaaa9;fill-opacity:1;fill-rule:nonzero;stroke:none"
           d="m 8790.74,13159.5 7432.76,1098.4 c 0,0 76.5,-72.3 21.3,-187.1 l -7439.7,-1119.9 -14.36,208.6" /></g><path
         id="path94"
         style="fill:#d8d7d5;fill-opacity:1;fill-rule:nonzero;stroke:none"
         d="m 9671.74,14237.4 c 4.32,-62.8 -28.41,-116.2 -73.1,-119.3 -44.68,-3.1 -84.42,45.3 -88.75,108.1 -4.32,62.8 28.41,116.2 73.09,119.3 44.7,3.1 84.43,-45.4 88.76,-108.1" /><path
         id="path96"
         style="fill:#333232;fill-opacity:1;fill-rule:nonzero;stroke:none"
         d="m 11909.7,14533.3 c -36.4,471.6 -269.4,842.7 -531.3,862.2 l -0.1,0.2 h -3.2 c -13.5,0.9 -27,1.1 -40.5,0 h -257.3 c 0,0 -94,-121.7 -107.9,-135.6 l 24.3,-164.3 c -76.4,-169.3 -114.2,-395.6 -95.3,-640.5 25.1,-325.6 144,-603.4 301.4,-750.7 l 16.5,-111.8 h 216.8 c 13.4,-0.8 26.9,-1 40.5,0 279.3,21.6 474.5,442.6 436.1,940.5" /><path
         id="path98"
         style="fill:#4c4d4e;fill-opacity:1;fill-rule:nonzero;stroke:none"
         d="m 11652.5,14533.3 c 38.4,-497.9 -156.9,-918.9 -436.2,-940.5 -279.2,-21.5 -536.7,364.6 -575.1,862.5 -38.4,497.8 156.8,918.9 436.1,940.4 279.3,21.6 536.8,-364.6 575.2,-862.4" /><g
         transform="scale(1.05239)"
         id="g100"><path
           id="path102"
           style="fill:#333232;fill-opacity:1;fill-rule:nonzero;stroke:none"
           d="m 16268.2,14571.5 c -30.2,379.8 -223.3,678.7 -440.5,694.4 l -0.1,0.2 h -2.6 c -11.2,0.7 -22.4,0.8 -33.7,0 h -213.2 c 0,0 -78,-98 -89.5,-109.2 l 20.2,-132.4 c -63.3,-136.3 -94.7,-318.6 -79,-515.9 20.8,-262.2 119.3,-485.9 249.8,-604.5 l 13.8,-90.1 h 179.7 c 11.1,-0.6 22.3,-0.8 33.5,0 231.6,17.4 393.4,356.5 361.6,757.5" /></g><g
         transform="scale(1.03863)"
         id="g104"><path
           id="path106"
           style="fill:#4c4d4e;fill-opacity:1;fill-rule:nonzero;stroke:none"
           d="m 16267.7,14764.6 c 32.3,-406.3 -131.8,-749.9 -366.3,-767.5 -234.6,-17.5 -451,297.6 -483.2,703.9 -32.3,406.2 131.8,749.9 366.4,767.4 234.5,17.6 450.9,-297.5 483.1,-703.8" /></g><path
         id="path108"
         style="fill:#c8cccb;fill-opacity:1;fill-rule:nonzero;stroke:none"
         d="m 11302.3,14487.3 c 12,-131.2 -62,-245.1 -165.2,-254.5 -103.3,-9.5 -196.7,89.2 -208.7,220.3 -11.9,131.1 62.1,245 165.3,254.5 103.2,9.4 196.7,-89.2 208.6,-220.3" /><path
         id="path110"
         style="fill:#abaaa9;fill-opacity:1;fill-rule:nonzero;stroke:none"
         d="m 11115.4,14571.9 c 0,0 90.4,-48.7 49.7,-218 l -651,-98 32.5,232 568.8,84" /><g
         transform="scale(1.02018)"
         id="g112"><path
           id="path114"
           style="fill:#c8cccb;fill-opacity:1;fill-rule:nonzero;stroke:none"
           d="m 16290,14981.6 c 10,-104.9 -49.8,-196.3 -133.5,-204.3 -83.7,-7.9 -159.6,70.7 -169.5,175.7 -10,104.9 49.8,196.3 133.5,204.3 83.7,7.9 159.6,-70.7 169.5,-175.7" /></g><g
         transform="scale(1.01181)"
         id="g116"><path
           id="path118"
           style="fill:#abaaa9;fill-opacity:1;fill-rule:nonzero;stroke:none"
           d="m 16206.1,15173.3 c 0,0 93.9,-84.1 30.2,-204 l -556,-83.6 -30,205.5 555.8,82.1" /></g><path
         id="path120"
         style="fill:#c37140;fill-opacity:1;fill-rule:nonzero;stroke:none"
         d="m 13407.4,14347 c 0,0 7,148.4 23.2,190.1 16.2,41.7 53.3,368.5 46.4,400.9 -7,32.4 -125.2,127.5 -148.4,127.5 -23.2,0 -44,-30.2 -27.8,-69.6 16.2,-39.4 62.6,-62.5 69.5,-104.2 7,-41.8 -49.9,-213.4 -49.9,-213.4 l -344.6,-51.8 c 0,0 81.7,-263.2 107.2,-279.5 25.5,-16.2 275.8,-103.5 273.4,-91.1 -2.3,12.3 51,91.1 51,91.1" /><path
         id="path122"
         style="fill:#c37140;fill-opacity:1;fill-rule:nonzero;stroke:none"
         d="m 15117.8,14731.7 c 0,0 18.5,46.4 -81.2,81.2 -99.6,34.7 -142.4,102.3 -142.4,102.3 l 112.4,17 c 0,0 -41.8,93.9 -37.2,140.2 4.7,46.4 23.2,150.7 74.2,155.3 51,4.6 37.1,-127.5 34.8,-139.1 -2.4,-11.5 48.6,-50.9 71.8,-74.1 23.2,-23.2 44.1,-54.1 44.1,-54.1 l 171.5,25.8 c 0,0 44,-131.6 -16.3,-254.5 -60.2,-122.8 -231.7,0 -231.7,0" /><g
         transform="scale(1.00709)"
         id="g124"><path
           id="path126"
           style="fill:#c37140;fill-opacity:1;fill-rule:nonzero;stroke:none"
           d="m 15575,11415.5 c 0,0 -164.7,-27.6 -268.8,-131.2 -103.9,-103.5 -103.9,-345.1 -103.9,-345.1 0,0 276.1,-504 283.1,-669.7 6.8,-165.7 -200.3,-469.4 -221,-780.1 -20.7,-310.7 158.8,-724.86 193.4,-890.58 34.4,-165.63 41.4,-248.54 41.4,-248.54 h 372.7 c 0,0 0.4,434.91 103.8,814.62 103.4,379.71 96.4,828.47 96.4,828.47 0,0 131.2,186.43 138.1,462.53 0,0 89.8,407.3 -158.7,787 0,0 -138.2,207.1 -476.5,172.6" /></g><path
         id="path128"
         style="fill:#a45634;fill-opacity:1;fill-rule:nonzero;stroke:none"
         d="m 15924.3,10068.9 c 0,0 106.6,-78.8 261.8,-4.7 v -74.1 c 0,0 -173.8,-97.4 -261.8,78.8" /><path
         id="path130"
         style="fill:#c37140;fill-opacity:1;fill-rule:nonzero;stroke:none"
         d="m 13880.2,12608.9 c 0,0 176.1,51 329.1,60.2 152.9,9.3 250.3,92.7 250.3,106.7 0,13.9 -204,9.2 -259.6,0 -55.6,-9.3 -319.8,-166.9 -319.8,-166.9" /><path
         id="path132"
         style="fill:#c37140;fill-opacity:1;fill-rule:nonzero;stroke:none"
         d="m 8084.88,7925.4 451.92,-159.9 c 0,0 -125.15,-215.5 -132.1,-611.8 -6.95,-396.3 69.52,-716.1 27.81,-903.8 h 431.06 c 0,0 368.49,1293.1 389.35,1348.8 20.85,55.6 166.86,458.8 118.19,584 -48.67,125.1 -382.39,368.5 -424.11,406.7 -41.71,38.2 -349.24,288.5 -618.78,385.9 -269.54,97.3 -507.54,-417.2 -500.58,-458.9 6.95,-41.7 257.24,-591 257.24,-591" /><path
         id="path134"
         style="fill:#abaaa9;fill-opacity:1;fill-rule:nonzero;stroke:none"
         d="m 4073.24,7019.3 v 319.8 l 491.32,-159.9 z m 3949.07,210.9 -465.83,-139.1 55.62,-730 -3518,1418.3 v 591 l -349.94,139 V 7112 l -720.75,-187.3 v -160.4 l 285.05,-125.1 1446.14,445 2899.22,-1166.5 104.29,-891.5 250.29,-111.2 257.25,132.1 -243.34,2183.1" /><path
         id="path136"
         style="fill:#656769;fill-opacity:1;fill-rule:nonzero;stroke:none"
         d="m 4110.63,9065.7 c -44.34,6.9 -795.21,-166.9 -795.21,-166.9 0,0 -90.39,-48.7 -83.44,-201.6 6.96,-153 994.22,-479.8 1752.05,-771.8 757.84,-292 2440.35,-901.5 2648.93,-947.8 208.58,-46.4 913.56,259.5 971.27,329 57.71,69.6 62.66,234.7 -127.53,312.1 -190.19,77.3 -1761.48,598.7 -1761.48,598.7 l -1181.93,688.3 -1422.66,160" /><path
         id="path138"
         style="fill:#252323;fill-opacity:1;fill-rule:nonzero;stroke:none"
         d="m 3790.2,9520.5 c 14.01,-34.5 -6.95,-145.2 27.81,-287.7 34.76,-142.5 159.91,-260.4 222.48,-241.5 62.58,19 405.39,106.6 405.39,106.6 0,0 206.28,239.9 174.56,393.3 -31.72,153.4 -155.42,328.7 -173.01,320.2 -17.59,-8.5 -78.19,43.6 -218.23,33.2 -140.03,-10.4 -317.33,-99.2 -355.57,-134.7 -38.23,-35.6 -83.43,-189.4 -83.43,-189.4" /><path
         id="path140"
         style="fill:#b35f38;fill-opacity:1;fill-rule:nonzero;stroke:none"
         d="m 4009.21,9605.4 c 0,0 -10.43,-104.9 20.85,-125.8 31.29,-20.9 93.87,-11 132.1,-35 38.25,-24.1 52.15,-107.5 34.77,-152.7 -17.38,-45.2 -86.43,-135.6 -60.6,-170.4 25.83,-34.7 252.46,-20.8 252.46,-20.8 l 341.17,419.8 -60.26,226.8 c 0,0 -198.15,55.6 -319.82,0 -121.67,-55.6 -340.67,-141.9 -340.67,-141.9" /><path
         id="path142"
         style="fill:#898b8b;fill-opacity:1;fill-rule:nonzero;stroke:none"
         d="m 1840,6542.6 618.78,208.1 v 173.8 l -166.86,27.8 -451.92,-104.2 625.3,1084.8 c 0,0 222.92,-1801 222.92,-1821.8 0,-20.9 -848.22,431.5 -848.22,431.5 z m 1174.99,-549.7 -730.02,6299 H 1992.96 L 1892.15,12177.2 2361.45,8443.7 1325.51,6722.9 393.867,6486.5 v -152.9 l 201.625,-146 782.168,215.5 1477.42,-771.7 271.15,125.1 v 173.8 l -111.24,62.6" /><path
         id="path144"
         style="fill:#606163;fill-opacity:1;fill-rule:nonzero;stroke:none"
         d="m 1471.52,6486.5 c 13.9,11.6 1330.26,-692.9 1330.26,-692.9 l 324.45,136.7 v -173.8 l -271.15,-125.1 -1477.42,771.7 93.86,83.4" /><path
         id="path146"
         style="fill:#9f9f9e;fill-opacity:1;fill-rule:nonzero;stroke:none"
         d="m 2458.78,6924.5 -1872.557,-584 9.269,-152.9 782.168,215.5 462.34,139.5 618.78,208.1 v 173.8" /><path
         id="path148"
         style="fill:#898b8b;fill-opacity:1;fill-rule:nonzero;stroke:none"
         d="m 6053.26,12709.1 166.87,125.1 h 292 l 375.44,-4244.5 -365.01,83.4 -469.3,4036" /><path
         id="path150"
         style="fill:#606163;fill-opacity:1;fill-rule:nonzero;stroke:none"
         d="m 6220.13,12834.2 438.07,-4192.1 -135.64,31 -469.3,4036 166.87,125.1" /><path
         id="path152"
         style="fill:#606163;fill-opacity:1;fill-rule:nonzero;stroke:none"
         d="m 393.867,6486.5 192.356,-146 9.269,-152.9 -201.625,146 v 152.9" /><path
         id="path154"
         style="fill:#252323;fill-opacity:1;fill-rule:nonzero;stroke:none"
         d="m 5635.26,8321.7 336.04,-396.3 h 980.31 c 0,0 438.01,139.1 486.68,139.1 48.67,0 646.59,-139.1 646.59,-139.1 0,0 13.91,229.5 90.38,584 76.48,354.6 152.96,465.9 152.96,465.9 0,0 -368.48,152.9 -625.73,180.7 -257.25,27.8 -1084.6,97.4 -1084.6,97.4 l -930.61,-27.8 c 0,0 -181.81,-173.9 -230.47,-292.1 -48.67,-118.1 178.45,-611.8 178.45,-611.8" /><path
         id="path156"
         style="fill:#3970c1;fill-opacity:1;fill-rule:nonzero;stroke:none"
         d="m 4879.75,9638.1 -338.37,-120.5 -300.46,-319.3 c 0,0 -135.23,-714.4 -98.15,-723.6 37.08,-9.3 162.23,-60.3 495.95,-74.2 333.72,-13.9 991.9,-92.7 996.54,-78.8 4.63,13.9 -9.27,407.9 101.97,588.7 111.24,180.7 880.66,343 880.66,343 0,0 -194.67,27.8 -347.63,92.7 -152.95,64.9 -565.47,304.9 -602.55,347.1 -37.09,42.2 -157.6,102.5 -268.84,116.4 -111.24,13.9 -412.73,-28.3 -459.09,-37.6 -46.35,-9.3 -78.57,-87.6 -78.57,-87.6 l 18.54,-46.3" /><path
         id="path158"
         style="fill:#e9eef1;fill-opacity:1;fill-rule:nonzero;stroke:none"
         d="m 4890.3,9638.1 -338.36,-120.5 -300.46,-319.3 c 0,0 -135.24,-714.4 -98.16,-723.6 37.09,-9.3 162.23,-60.3 495.96,-74.2 333.72,-13.9 991.9,-92.7 996.54,-78.8 4.63,13.9 -9.28,407.9 101.96,588.7 111.24,180.7 880.66,343 880.66,343 0,0 -194.67,27.8 -347.63,92.7 -152.95,64.9 -565.47,304.9 -602.55,347.1 -37.08,42.2 -157.59,102.5 -268.84,116.4 -111.23,13.9 -412.73,-28.3 -459.08,-37.6 -46.34,-9.3 -78.58,-87.6 -78.58,-87.6 l 18.54,-46.3" /><path
         id="path160"
         style="fill:#b35f38;fill-opacity:1;fill-rule:nonzero;stroke:none"
         d="m 4541.39,9517.6 c 0,0 176.12,50.9 329.08,60.2 152.96,9.3 250.3,92.7 250.3,106.6 0,13.9 -203.94,9.3 -259.56,0 -55.63,-9.2 -319.82,-166.8 -319.82,-166.8" /><path
         id="path162"
         style="fill:#100f0d;fill-opacity:1;fill-rule:nonzero;stroke:none"
         d="m 6346.74,8968.3 c 0,0 298.96,-166.9 368.48,-378.9 69.53,-212.1 -41.71,-337.2 0,-372 41.72,-34.7 236.39,-292 236.39,-292 l 202.05,62.6 c 0,0 -299.27,340.7 -264.56,368.5 34.7,27.8 55.56,493.6 55.56,493.6 l -111.24,-159.9 c 0,0 -201.63,229.4 -486.68,278.1" /><path
         id="path164"
         style="fill:#a45634;fill-opacity:1;fill-rule:nonzero;stroke:none"
         d="m 8856.62,7876.8 c 0,0 -229.44,-20.9 -319.82,-111.3 l -97.44,34.5 c 0,0 90.49,125.4 417.26,76.8" /><path
         id="path166"
         style="fill:#c37140;fill-opacity:1;fill-rule:nonzero;stroke:none"
         d="m 8432.51,6249.9 c 0,0 2.32,-78.8 -71.84,-268.9 -74.16,-190 -64.89,-296.6 106.61,-352.3 171.49,-55.6 431.05,-4.6 537.66,-55.6 106.61,-51 180.77,-120.5 278.1,-120.5 97.34,0 162.23,13.9 264.2,-18.5 101.97,-32.5 162.23,69.5 139.05,111.2 -23.17,41.7 -143.68,37.1 -185.4,64.9 -41.72,27.8 -565.47,366.2 -593.29,417.2 -27.81,50.9 -44.03,222.5 -44.03,222.5 0,0 -90.38,162.2 -146.01,157.5 -55.62,-4.6 -285.05,-157.5 -285.05,-157.5" /><path
         id="path168"
         style="fill:#c37140;fill-opacity:1;fill-rule:nonzero;stroke:none"
         d="m 6270.26,5318.2 c 0,0 -4.63,-88.1 -32.45,-166.9 -27.81,-78.8 23.18,-115.8 32.45,-199.3 9.27,-83.4 -21.06,-305.9 -40.66,-421.8 -19.6,-115.8 -12.18,-202.7 21.19,-227.1 33.38,-24.3 71.61,0 71.61,0 0,0 10.43,-52.1 52.15,-55.6 41.71,-3.5 69.52,17.4 69.52,17.4 0,0 24.34,-59.1 69.53,-52.2 45.19,7 52.14,24.4 52.14,24.4 0,0 41.72,-38.3 86.91,-3.5 0,0 79.96,-73 128.62,10.4 48.67,83.5 -24.33,132.1 -27.81,198.2 -3.47,66 -83.43,215.5 -97.33,278.1 -13.91,62.6 -31.29,285 -13.91,340.7 17.38,55.6 3.48,257.2 3.48,257.2 0,0 -62.57,125.1 -86.91,132.1 -24.33,7 -288.53,-132.1 -288.53,-132.1" /><path
         id="path170"
         style="fill:#7c7d7f;fill-opacity:1;fill-rule:nonzero;stroke:none"
         d="m 3887.84,7705.3 3754.4,-1562.1 -30.14,217.9 -3518,1418.3 -206.26,-74.1" /><path
         id="path172"
         style="fill:#7c7d7f;fill-opacity:1;fill-rule:nonzero;stroke:none"
         d="m 4357.55,7246.6 -36.59,-8.7 -247.72,-58.7 v -159.9 l 491.32,159.9" /><path
         id="path174"
         style="fill:#7c7d7f;fill-opacity:1;fill-rule:nonzero;stroke:none"
         d="m 3023.41,6924.7 278.1,-122.1 657.02,170.2 -214.37,139.2 -720.75,-187.3" /><path
         id="path176"
         style="fill:#dad9d8;fill-opacity:1;fill-rule:nonzero;stroke:none"
         d="m 3308.46,6639.2 -6.95,163.4 -278.1,122.1 v -160.4 l 285.05,-125.1" /><path
         id="path178"
         style="fill:#abaaa9;fill-opacity:1;fill-rule:nonzero;stroke:none"
         d="m 1330.29,9217.7 8032.5,1601.4 c 0,0 87.27,-74.5 33.35,-202.5 l -8038.82,-1625.3 -27.03,226.4" /><path
         id="path180"
         style="fill:#d8d7d5;fill-opacity:1;fill-rule:nonzero;stroke:none"
         d="m 1424.34,9114.1 c 7.47,-62.5 -22.54,-117.4 -67.03,-122.8 -44.48,-5.3 -86.59,41.1 -94.05,103.6 -7.46,62.5 22.55,117.5 67.03,122.8 44.49,5.3 86.59,-41.1 94.05,-103.6" /><path
         id="path182"
         style="fill:#333232;fill-opacity:1;fill-rule:nonzero;stroke:none"
         d="m 3644.7,9521.7 c -59.93,469.2 -311.27,828.2 -573.79,834.6 l -0.13,0.1 -3.22,-0.1 c -13.47,0.2 -26.96,-0.3 -40.47,-2 l -256.92,-12.9 c 0,0 -87.81,-126.2 -101,-140.8 l 32.53,-162.9 c -67.84,-173 -94.24,-400.8 -63.11,-644.5 41.38,-324 174,-595.5 338.54,-734.6 l 22.14,-110.9 216.46,10.9 c 13.47,-0.2 26.97,0.3 40.47,2 277.83,35.5 451.77,465.8 388.5,961.1" /><path
         id="path184"
         style="fill:#4c4d4e;fill-opacity:1;fill-rule:nonzero;stroke:none"
         d="m 3387.77,9508.8 c 63.27,-495.3 -110.67,-925.6 -388.5,-961.1 -277.83,-35.5 -554.34,337.3 -617.61,832.6 -63.27,495.3 110.67,925.6 388.51,961.1 277.83,35.5 554.34,-337.3 617.6,-832.6" /><path
         id="path186"
         style="fill:#333232;fill-opacity:1;fill-rule:nonzero;stroke:none"
         d="m 8808.86,10583.1 c -51.7,397.7 -270.53,701.7 -499.55,706.8 l -0.12,0.1 -2.8,-0.1 c -11.76,0.1 -23.53,-0.3 -35.31,-1.8 l -224.17,-11.2 c 0,0 -76.76,-107.1 -88.29,-119.5 l 28.19,-138 c -59.41,-146.7 -82.73,-339.9 -55.87,-546.5 35.7,-274.5 151.07,-504.5 294.44,-622.2 l 19.18,-94 188.85,9.5 c 11.76,-0.1 23.53,0.3 35.32,1.8 242.43,30.4 394.71,395.4 340.13,815.1" /><path
         id="path188"
         style="fill:#4c4d4e;fill-opacity:1;fill-rule:nonzero;stroke:none"
         d="m 8584.69,10571.9 c 54.58,-419.8 -97.7,-784.7 -340.13,-815.2 -242.44,-30.4 -483.21,285.2 -537.79,705 -54.58,419.8 97.71,784.7 340.14,815.2 242.43,30.4 483.21,-285.2 537.78,-705" /><path
         id="path190"
         style="fill:#c8cccb;fill-opacity:1;fill-rule:nonzero;stroke:none"
         d="m 3040.39,9445.3 c 18.52,-130.3 -49.67,-247.8 -152.31,-262.4 -102.65,-14.6 -200.87,79.2 -219.4,209.6 -18.52,130.3 49.66,247.8 152.31,262.4 102.64,14.6 200.87,-79.2 219.4,-209.6" /><path
         id="path192"
         style="fill:#abaaa9;fill-opacity:1;fill-rule:nonzero;stroke:none"
         d="m 2849.44,9520.5 c 0,0 92.71,-44.2 60.58,-215.2 l -645.29,-130.5 20.89,233.3 563.82,112.4" /><path
         id="path194"
         style="fill:#c8cccb;fill-opacity:1;fill-rule:nonzero;stroke:none"
         d="m 8310.33,10507.2 c 15.48,-106.4 -40.76,-202.6 -125.62,-215 -84.87,-12.3 -166.21,63.9 -181.69,170.3 -15.49,106.4 40.75,202.7 125.62,215 84.86,12.4 166.2,-63.9 181.69,-170.3" /><path
         id="path196"
         style="fill:#c37140;fill-opacity:1;fill-rule:nonzero;stroke:none"
         d="m 4240.92,9198.3 -104.59,-76.8 c 0,0 -198.97,-55.6 -212.87,-296.6 -13.9,-241 219.31,-350.2 219.31,-350.2 0,0 162.78,-182.8 356.44,-192.1 193.67,-9.3 314.18,10.1 360.53,37.5 46.35,27.4 101.97,314.2 111.24,530 9.27,215.8 -47.51,393.1 -50.98,466.1 -3.48,73 3.47,135.9 3.47,135.9 h -294.93 c 0,0 6.4,-52.5 -21.41,-128.9 -27.81,-76.5 -104.15,-211.6 -104.15,-211.6 0,0 -44.36,29.5 -180.9,37.8 l -81.16,48.9" /><path
         id="path198"
         style="fill:#a45634;fill-opacity:1;fill-rule:nonzero;stroke:none"
         d="m 4464.6,8572.3 c 0,0 -65.77,327.8 38.38,539.3 l -55.55,20.2 c 0,0 -142.73,-267.8 17.17,-559.5" /><path
         id="path200"
         style="fill:#a45634;fill-opacity:1;fill-rule:nonzero;stroke:none"
         d="m 4322.08,9149.4 -185.75,-27.9 104.59,76.8 z" /><path
         id="path202"
         style="fill:#c37140;fill-opacity:1;fill-rule:nonzero;stroke:none"
         d="m 4923.47,9452.1 c 0,0 64.92,162.6 78.82,276.2 l -413.57,-83.7 39.82,-192.5 h 294.93" /><path
         id="path204"
         style="fill:#a45634;fill-opacity:1;fill-rule:nonzero;stroke:none"
         d="m 4866.69,9517.6 c 0,0 -23.17,116.1 -136.73,155.5 l 85.92,15.3 c 0,0 80.94,-59.9 50.81,-170.8" /><path
         id="path206"
         style="fill:#c37140;fill-opacity:1;fill-rule:nonzero;stroke:none"
         d="m 4502.98,9850.2 c 0,0 16.08,73.2 60.11,103.3 44.04,30.2 134.43,23.2 134.43,23.2 0,0 11.58,37.1 85.74,39.4 74.16,2.3 90.15,-20.8 90.15,-20.8 0,0 67.17,20.8 98.59,11.5 31.43,-9.2 77.77,-116.2 73.14,-156.6 -4.63,-40.3 -46.63,-128.4 -73.14,-136.5 -26.51,-8.1 -49.68,10.4 -49.68,10.4 0,0 -37.08,-8.7 -57.95,-12.5 -20.86,-3.7 -33.3,12.5 -33.3,12.5 0,0 -38.53,-19.1 -68.67,-13 -30.13,6 -16.22,87.9 -23.17,100.3 -6.96,12.4 -59.16,74.1 -59.16,74.1 l -177.09,-35.3" /><g
         id="g208"><g
           clip-path="url(#clipPath214)"
           id="g210"><path
             id="path216"
             style="fill:#b36239;fill-opacity:1;fill-rule:nonzero;stroke:none"
             d="m 4697.52,9724.1 h 148.922 v 276.379 H 4697.52 Z" /></g></g><path
         id="path218"
         style="fill:#b36239;fill-opacity:1;fill-rule:nonzero;stroke:none"
         d="m 4922.32,9724.1 c 0,0 9.26,97.3 0,153 -9.28,55.6 -48.91,118.2 -48.91,118.2 l 39.53,9.6 c 0,0 38.56,-65.3 39.5,-141.8 0.94,-76.6 -30.12,-139 -30.12,-139" /><path
         id="path220"
         style="fill:#b35f38;fill-opacity:1;fill-rule:nonzero;stroke:none"
         d="m 6225.41,10193.6 c 0,0 36.43,133.1 52.65,147 16.23,13.9 67.21,20.8 67.21,20.8 0,0 35.29,20.9 83.43,18.6 48.14,-2.4 57.94,-18.6 64.89,-18.6 6.96,0 46.36,-2.3 62.58,-9.2 16.22,-7 27.81,-34.3 27.81,-34.3 0,0 58.06,-5.9 74.22,-31 16.17,-25.1 -4.7,-159.5 -30.19,-168.8 -25.49,-9.3 -50.98,0 -50.98,0 0,0 -48.67,-51 -106.61,-32.5 -57.94,18.6 -142.35,128.5 -142.35,128.5 l -102.66,-20.5" /><path
         id="path222"
         style="fill:#9d4e31;fill-opacity:1;fill-rule:nonzero;stroke:none"
         d="m 6577.03,10118.1 c 11.58,104.3 6.95,199.8 6.95,199.8 l 33.91,-7 c -0.86,-126.9 -40.86,-192.8 -40.86,-192.8" /><path
         id="path224"
         style="fill:#9d4e31;fill-opacity:1;fill-rule:nonzero;stroke:none"
         d="m 6515.88,10083.9 c 3.74,151.1 -22.29,277.5 -22.29,277.5 l 22.49,-1.4 c 31.76,-168.4 -0.2,-276.1 -0.2,-276.1" /><path
         id="path226"
         style="fill:#80503c;fill-opacity:1;fill-rule:nonzero;stroke:none"
         d="m 6345.27,10361.4 28.47,18.8 c 0.72,-2.2 1.4,-4.3 2.06,-6.5 -18.94,-5.4 -30.53,-12.3 -30.53,-12.3" /><path
         id="path228"
         style="fill:#9d4e31;fill-opacity:1;fill-rule:nonzero;stroke:none"
         d="m 6370.77,10187.6 c 13.9,118.2 -25.5,173.8 -25.5,173.8 v 0 c 0,0 11.59,6.9 30.53,12.3 31.81,-103.4 -5.03,-186.1 -5.03,-186.1" /><path
         id="path230"
         style="fill:#c37140;fill-opacity:1;fill-rule:nonzero;stroke:none"
         d="m 6346.74,8405.1 c 0,0 -165.99,-27.8 -270.72,-132.1 -104.72,-104.2 -104.72,-347.6 -104.72,-347.6 0,0 278.1,-507.5 285.05,-674.4 6.96,-166.8 -201.62,-472.8 -222.48,-785.6 -20.86,-312.9 159.91,-730 194.67,-896.9 34.77,-166.9 41.72,-250.3 41.72,-250.3 h 375.44 c 0,0 0.42,438 104.5,820.4 104.08,382.4 97.12,834.3 97.12,834.3 0,0 132.1,187.7 139.06,465.8 0,0 90.38,410.2 -159.92,792.6 0,0 -139.05,208.6 -479.72,173.8" /><path
         id="path232"
         style="fill:#a45634;fill-opacity:1;fill-rule:nonzero;stroke:none"
         d="m 6585.44,6977.6 c 0,0 106.61,-78.8 261.88,-4.7 v -74.1 c 0,0 -173.81,-97.4 -261.88,78.8" /><path
         id="path234"
         style="fill:#c37140;fill-opacity:1;fill-rule:nonzero;stroke:none"
         d="m 6658.2,10076.4 c -7.4,11.8 -125.21,-11.6 -148.38,-14.3 -23.17,-2.7 -1.5,14.4 -20.86,42.1 -19.36,27.7 -81.11,92.7 -81.11,92.7 0,0 32.44,129.8 -11.59,120.5 -44.03,-9.3 -81.11,-129.8 -78.8,-157.6 2.32,-27.8 53.1,-154.9 53.1,-154.9 l -89.21,-18 c 40.37,-49 126.5,-122.4 126.5,-122.4 -14.29,-152.2 -97.96,-404.2 -130.73,-521.3 151.85,-62.8 340.77,-89.8 340.77,-89.8 l 5.49,544.9 c 0,0 0,0 18.54,64.9 18.54,64.8 23.69,201.4 23.69,201.4 0,0 0,0 -7.41,11.8" /><path
         id="path236"
         style="fill:#abaaa9;fill-opacity:1;fill-rule:nonzero;stroke:none"
         d="m 8145.73,10576.5 c 0,0 63.15,-52.2 55.2,-199.2 l -624.46,-128.6 -58.02,202.7 627.28,125.1" /></g></g></svg>