<?xml version="1.0" encoding="UTF-8" standalone="no"?>
<svg
   xmlns:dc="http://purl.org/dc/elements/1.1/"
   xmlns:cc="http://creativecommons.org/ns#"
   xmlns:rdf="http://www.w3.org/1999/02/22-rdf-syntax-ns#"
   xmlns:svg="http://www.w3.org/2000/svg"
   xmlns="http://www.w3.org/2000/svg"
   viewBox="0 0 2666.6667 2666.6667"
   height="2666.6667"
   width="2666.6667"
   xml:space="preserve"
   id="svg2"
   version="1.1"><metadata
     id="metadata8"><rdf:RDF><cc:Work
         rdf:about=""><dc:format>image/svg+xml</dc:format><dc:type
           rdf:resource="http://purl.org/dc/dcmitype/StillImage" /></cc:Work></rdf:RDF></metadata><defs
     id="defs6" /><g
     transform="matrix(1.3333333,0,0,-1.3333333,0,2666.6667)"
     id="g10"><g
       transform="scale(0.1)"
       id="g12"><g
         transform="scale(1.22699)"
         id="g14"><path
           id="path16"
           style="fill:#ffffff;fill-opacity:1;fill-rule:nonzero;stroke:none"
           d="M 16300,0 H 0 V 16300 H 16300 V 0" /></g><path
         id="path18"
         style="fill:#797a7b;fill-opacity:1;fill-rule:nonzero;stroke:none"
         d="m 4151.68,6657.7 794.62,1850.1 -263.63,102.6 -791.62,-1952.7 119.62,-181.6 141.01,181.6" /><path
         id="path20"
         style="fill:#bbbab8;fill-opacity:1;fill-rule:nonzero;stroke:none"
         d="m 3750.07,6636.6 970.38,2254.7 48.3,-362.6 -805.07,-1896.4 -9.81,-51.3 -203.8,55.6" /><path
         id="path22"
         style="fill:#959595;fill-opacity:1;fill-rule:nonzero;stroke:none"
         d="m 2981.05,6440 -170.88,8.6 -179.44,-290.5 260.61,-72.7 119.62,269.2 -29.91,85.4" /><path
         id="path24"
         style="fill:#bbbab8;fill-opacity:1;fill-rule:nonzero;stroke:none"
         d="m 3963.68,6632.3 1136.43,153.8 301.54,-107.4 -280.18,-251.5 c 0,0 -892.91,0 -939.9,21.4 -47,21.3 -217.89,183.7 -217.89,183.7" /><path
         id="path26"
         style="fill:#bbbab8;fill-opacity:1;fill-rule:nonzero;stroke:none"
         d="m 3057.96,6315.6 -47,39 -200.79,94 939.9,188 333.24,-90.8 c 0,0 -170.9,-110 -243.52,-131.4 -72.63,-21.4 -781.83,-98.8 -781.83,-98.8" /><path
         id="path28"
         style="fill:#959595;fill-opacity:1;fill-rule:nonzero;stroke:none"
         d="m 6924.37,4974.6 1658.41,371.7 -73.4,205.9 -1597.83,-346.8 -76.44,-153.9 89.26,-76.9" /><path
         id="path30"
         style="fill:#797a7b;fill-opacity:1;fill-rule:nonzero;stroke:none"
         d="m 6821.84,5899 200.79,-484.3 -345.29,-105.1 234.21,-104.2 1597.83,346.8 -294.78,88.9 -645.11,-119.6 -358.87,333.2 -322.72,168.1 -66.06,-123.8" /><path
         id="path32"
         style="fill:#959595;fill-opacity:1;fill-rule:nonzero;stroke:none"
         d="m 6069.12,7405.1 309.63,-357.6 45.77,-141.8 c 0,0 -525.5,-183.7 -1102.25,-235 -576.76,-51.2 -1358.59,-38.4 -1358.59,-38.4 l -38.45,-200.8 2524.92,-316.2 850.18,-656.4 129.24,30.5 -500.93,1229 -352.46,724 c 0,0 -198.66,202.4 -267.01,189.6 -68.36,-12.8 -240.05,-226.9 -240.05,-226.9" /><path
         id="path34"
         style="fill:#3a70c0;fill-opacity:1;fill-rule:nonzero;stroke:none"
         d="m 6467.24,5342.1 c 0,0 -115.35,-132.5 -115.36,-132.5 0,0 -38.44,-8.5 -64.08,-68.3 -25.63,-59.8 -72.63,-538.3 -29.9,-572.5 42.72,-34.2 128.16,-59.8 158.07,-81.2 29.9,-21.4 209.34,-243.5 593.84,-264.9 384.51,-21.3 440.05,102.6 414.42,179.5 -25.64,76.9 -179.44,115.3 -213.61,175.1 -34.18,59.8 -222.16,371.7 -243.53,427.3 -21.36,55.5 -38.45,166.6 -55.54,200.8 -17.09,34.1 -111.08,106.8 -111.08,106.8 0,0 -59.81,59.8 -85.44,72.6 -25.64,12.8 -247.79,-42.7 -247.79,-42.7" /><path
         id="path36"
         style="fill:#3a70c0;fill-opacity:1;fill-rule:nonzero;stroke:none"
         d="m 8877.04,5863.7 c -48.51,2.9 -124.13,-77.3 -149.76,-124.3 -25.64,-47 -215.08,-311.9 -116.09,-538.3 99,-226.5 359.61,-81.2 761.2,-166.6 401.59,-85.5 572.48,-102.6 764.71,-42.8 192.3,59.8 183.7,247.8 29.9,329 -153.8,81.2 -149.5,76.9 -375.93,222.2 -226.43,145.2 -311.88,196.5 -324.69,256.3 -12.82,59.8 -196.53,162.3 -196.53,162.3 l -392.81,-97.8" /><path
         id="path38"
         style="fill:#100f0d;fill-opacity:1;fill-rule:nonzero;stroke:none"
         d="m 7672.02,7644.8 c 0,0 81.17,-85.4 230.7,-42.7 149.53,42.7 226.44,235 226.44,235 l -491.32,115.3 c 0,0 74.42,-332.1 34.18,-307.6" /><path
         id="path40"
         style="fill:#fbc398;fill-opacity:1;fill-rule:nonzero;stroke:none"
         d="m 7725.91,7794.9 -24.05,-66.8 c 0,0 205.14,-79 521.28,-66.2 316.15,12.8 572.49,-21.4 606.67,-47 0,0 -123.9,-444.3 -81.18,-704.9 42.73,-260.6 94,-303.3 106.81,-593.9 12.82,-290.5 -55.54,-598.1 -46.99,-619.4 8.54,-21.4 98.26,-230.7 230.7,-205.1 132.44,25.6 132.44,145.2 166.62,170.9 34.18,25.6 119.62,29.9 119.62,29.9 0,0 -21.36,487 51.27,845.9 72.63,358.9 149.53,892.9 140.99,1119.3 -8.55,226.5 42.72,350.4 -89.72,495.6 -132.44,145.3 -845.91,491.3 -1140.7,555.4 -294.79,64.1 -585.37,-504.1 -585.37,-504.1 l 24.05,-409.6" /><path
         id="path42"
         style="fill:#252323;fill-opacity:1;fill-rule:nonzero;stroke:none"
         d="m 7115.86,8035.2 h -256 v 331.6 h 256 v -331.6" /><path
         id="path44"
         style="fill:#494a4b;fill-opacity:1;fill-rule:nonzero;stroke:none"
         d="m 4185.84,10740.1 c 0,0 -422.95,-51.5 -480.63,-83.4 -57.68,-32 -64.09,-123.8 -57.68,-170.8 6.41,-47 1723.87,-2539.9 1980.2,-2815.4 256.34,-275.6 243.52,-224.3 397.33,-224.3 153.8,0 23.02,1461.1 23.02,1461.1 l -1862.24,1832.8" /><path
         id="path46"
         style="fill:#959595;fill-opacity:1;fill-rule:nonzero;stroke:none"
         d="m 3705.21,10656.7 c -57.68,-32 -64.09,-123.8 -57.68,-170.8 6.41,-47 1723.87,-2539.9 1980.2,-2815.4 220.35,-236.9 241.89,-232.3 341.26,-226.3 -600.36,724.7 -2263.78,3212.5 -2263.78,3212.5" /><path
         id="path48"
         style="fill:#fbc398;fill-opacity:1;fill-rule:nonzero;stroke:none"
         d="m 6178.86,7446.2 166.62,-153.8 h 102.53 c 0,0 -102.53,-307.6 -134.57,-596 -32.05,-288.4 64.08,-820.3 57.67,-1095.9 -6.41,-275.5 -19.23,-390.9 -19.23,-390.9 0,0 64.09,-115.3 96.13,-115.3 32.04,0 102.54,44.8 102.54,44.8 0,0 44.86,141 83.31,160.2 38.44,19.3 166.61,12.9 166.61,12.9 0,0 -83.3,269.1 70.5,666.4 153.8,397.4 166.62,525.5 179.44,878 12.81,352.5 44.85,314 70.49,525.5 25.63,211.5 76.9,390.9 0,578.9 -76.91,188 -160.22,331.1 -160.22,331.1 0,0 -168.75,87.6 -425.08,32 -256.34,-55.5 -448.6,-235 -457.14,-256.3 -8.54,-21.4 -34.18,-136.7 -29.91,-230.7 4.28,-94 130.31,-390.9 130.31,-390.9" /><path
         id="path50"
         style="fill:#e1a37a;fill-opacity:1;fill-rule:nonzero;stroke:none"
         d="m 4543.52,10695.7 -202.48,-131.9 139.59,-244.6 c 0,0 114.77,-31.3 176.88,0 62.12,31.3 113.28,19.6 53.82,141.2 -59.46,121.7 -31.23,87.8 -59.46,121.7 -28.24,33.8 -108.35,113.6 -108.35,113.6" /><path
         id="path52"
         style="fill:#fbc398;fill-opacity:1;fill-rule:nonzero;stroke:none"
         d="m 6409.59,10039.5 c 0,0 -21.39,269.4 -23.53,317.3 -2.13,47.9 23.58,164.9 -29.86,225 l -217.56,-38.2 c 0,0 -34.55,10.2 -43.09,38.2 -8.55,28 -36.23,106.5 -61.91,113.2 -25.67,6.6 -53.44,-20.3 -51.31,-93.3 2.14,-73.1 12.38,-83.4 12.38,-83.4 l -97.87,-17.2 c 0,0 62,-73 104.72,-107.1 42.72,-34.1 108.94,-49.1 108.94,-49.1 l -19.23,-198.7 c 0,0 36.32,-61.9 134.58,-115.3 98.27,-53.4 183.74,8.6 183.74,8.6" /><path
         id="path54"
         style="fill:#252323;fill-opacity:1;fill-rule:nonzero;stroke:none"
         d="m 5736.68,8366.8 c 0,0 -32.05,-311.8 0,-529.7 32.04,-217.9 205.07,-314 288.38,-390.9 83.3,-76.9 128.16,-128.2 224.29,-141 96.13,-12.8 96.13,-12.8 96.13,-12.8 0,0 -153.81,243.5 -160.21,461.4 -6.41,217.9 0.05,390.9 224.32,467.8 224.27,76.9 205.04,121.7 378.07,96.1 173.02,-25.6 173.02,-25.6 173.02,-25.6 0,0 43.63,-42.4 109.3,-105.5 193.44,-185.9 578.12,-551.3 602.04,-541.8 32.04,12.8 12.82,106.8 76.9,184.8 64.09,78 153.8,161.3 217.89,321.5 64.08,160.2 140.98,326.8 192.25,416.5 51.27,89.8 128.17,141 128.17,141 0,0 -591.71,190.1 -1068.07,264.9 -476.36,74.8 -732.7,113.2 -1021.07,68.4 -288.38,-44.9 -506.27,-166.3 -506.27,-166.3 l 44.86,-508.8" /><path
         id="path56"
         style="fill:#3a70c0;fill-opacity:1;fill-rule:nonzero;stroke:none"
         d="m 4730.27,10296.3 c -49.29,-8.7 -193.93,-15.9 -193.93,-15.9 l -141.16,-132 c 0,0 166.62,-640.9 217.89,-675 51.27,-34.2 645.11,-692.2 687.83,-717.8 42.73,-25.6 153.81,-111.1 226.43,-196.5 72.64,-85.5 209.35,-192.3 209.35,-192.3 0,0 247.79,358.9 431.5,401.6 183.7,42.8 358.87,25.7 478.49,72.7 119.63,47 170.89,72.6 269.16,89.7 98.26,17.1 303.33,42.7 303.33,42.7 0,0 -328.96,376 -397.32,512.7 -68.36,136.7 -111.08,226.4 -222.16,371.7 -111.08,145.2 -299.06,255.8 -371.69,311.6 -72.63,55.8 -222.16,162.6 -324.69,209.6 -102.54,47 -452.87,106.8 -452.87,106.8 l -720.16,-189.6" /><path
         id="path58"
         style="fill:#e1a37a;fill-opacity:1;fill-rule:nonzero;stroke:none"
         d="m 4480.63,10319.2 c 0,0 115.35,-81.1 132.44,-89.6 17.09,-8.6 226.43,-64.1 299.06,-59.9 72.63,4.3 320.42,46.8 341.78,74.7 21.36,27.9 183.71,98.7 196.52,112.4 12.82,13.7 0,129.1 0,129.1 0,0 -370.98,-18.6 -423.76,-43.8 -52.78,-25.2 -546.04,-122.9 -546.04,-122.9" /><path
         id="path60"
         style="fill:#fbc398;fill-opacity:1;fill-rule:nonzero;stroke:none"
         d="m 4536.34,10536.5 c 0,0 198.49,-203.4 230.8,-215.3 32.3,-12 252.84,35.8 252.84,35.8 l 28.3,176.1 c 0,0 -212.47,68.6 -249.34,68.6 -36.87,-0.1 -262.6,-65.2 -262.6,-65.2" /><path
         id="path62"
         style="fill:#252323;fill-opacity:1;fill-rule:nonzero;stroke:none"
         d="m 4406.82,10564.7 c 4.15,-6.2 129.89,-18 129.89,-18 0,0 -28,-76 -46.43,-120.8 -6.93,-16.8 -59.38,-121.5 -61.87,-117.7 -2.49,3.7 -243.12,142.4 -286.62,183.3 -43.51,40.8 -164.8,173.8 -189.29,304.3 -24.5,130.5 31.47,298.9 104.97,376.8 73.5,77.9 135.48,114 206.94,176.2 71.46,62.1 163.3,53.6 227.39,73.2 64.08,19.5 122.38,37 186.99,-11.3 64.62,-48.3 64.8,-132.5 64.8,-132.5 l -43.14,-593.6 c 0,0 -96.83,-141.3 -117.8,-131.4 -20.98,9.9 -175.83,11.5 -175.83,11.5" /><path
         id="path64"
         style="fill:#efb38d;fill-opacity:1;fill-rule:nonzero;stroke:none"
         d="m 4448.28,10750.4 c 0,0 -114.17,2.5 -161.55,-33.9 -47.36,-36.5 12.33,-111.4 54.31,-152.7 42,-41.3 102.69,-53.4 129.16,-50 26.47,3.4 66.14,22.7 66.14,22.7 0,0 166.29,-159.1 241.34,-178.2 75.04,-19.2 403.59,159.4 413.07,180.1 9.48,20.7 -121.66,264.9 -121.66,264.9 0,0 64.85,56 64.83,72.1 -0.03,16.1 -173.93,109.7 -185.98,141.1 -12.05,31.4 -0.05,26.9 -25.78,76.1 -25.73,49.2 -184.41,192.5 -189.38,194.5 -4.96,2.1 -163.27,-69.8 -217.79,-117 -54.53,-47.3 13.59,-125.5 26.83,-165.1 13.23,-39.6 -21.35,-138.1 -12.2,-167.9 9.15,-29.7 53.13,-106.2 46.53,-117.8 -6.59,-11.6 -32.63,-23.6 -32.63,-23.6 l -95.24,54.7" /><path
         id="path66"
         style="fill:#6b6c6e;fill-opacity:1;fill-rule:nonzero;stroke:none"
         d="m 968.813,9804.5 8164.327,1435.4 c 0,0 105.74,-57.6 22.43,-166.6 L 1016.88,9644.2 968.813,9804.5" /><path
         id="path68"
         style="fill:#969797;fill-opacity:1;fill-rule:nonzero;stroke:none"
         d="m 1044.68,9732.1 c 8.11,-45.8 -14.99,-88.1 -51.578,-94.6 -36.594,-6.5 -72.829,25.4 -80.934,71.1 -8.105,45.7 14.988,88.1 51.582,94.6 36.59,6.4 72.83,-25.4 80.93,-71.1" /><path
         id="path70"
         style="fill:#fbc398;fill-opacity:1;fill-rule:nonzero;stroke:none"
         d="m 4822.41,10092.8 c 0,0 -320.42,94 -508.4,55.6 -187.98,-38.5 -286.25,-282 -260.61,-504.2 25.63,-222.1 218.2,-363.1 215.9,-388.7 -2.29,-25.7 121.96,-376 267.04,-542.6 145.09,-166.6 344.76,-260.6 541.84,-269.2 197.09,-8.5 222.72,-29.9 252.63,68.4 29.91,98.3 98.26,311.9 34.18,602.4 -64.09,290.5 -111.08,504.1 -132.44,683.5 -21.36,179.5 -41.3,359.6 -41.3,359.6 l -370.98,-26.3 2.14,-38.5" /><path
         id="path72"
         style="fill:#dc9d71;fill-opacity:1;fill-rule:nonzero;stroke:none"
         d="m 4720.45,8891.3 c 10.58,-77.4 19.72,144.3 96.62,405.4 76.9,261 5.34,796.1 5.34,796.1 l -60.62,16 45.67,-464.6 c 0,0 -80.11,38.5 -173.03,60.9 -92.92,22.5 -123.74,32.2 -123.74,32.2 0,0 93.29,-45 171,-93.1 77.7,-48 110.62,-83.3 110.62,-83.3 0,0 -13.25,-144 -48.72,-264.2 -35.46,-120.3 -42.86,-261.3 -23.14,-405.4" /><path
         id="path74"
         style="fill:#fbc398;fill-opacity:1;fill-rule:nonzero;stroke:none"
         d="m 5193.31,10139.1 c 0,0 19.48,86.7 53.13,122 33.64,35.2 59.27,41.6 81.7,86.5 22.43,44.8 6.41,200 0,223.3 -6.41,23.4 -102.53,65 -121.76,82.7 -19.23,17.6 -48.18,-43.3 -20.89,-89.8 27.3,-46.4 46.53,-68.8 46.53,-68.8 l -2.78,-67.3 -498.97,-131.4 c 0,0 -9.33,-38.4 30.73,-91.3 40.05,-52.9 59.27,-73.7 59.27,-73.7 l 373.04,7.8" /><path
         id="path76"
         style="fill:#959595;fill-opacity:1;fill-rule:nonzero;stroke:none"
         d="m 7629.3,8302.8 c 4.27,12.8 175.16,153.8 175.16,153.8 0,0 -21.36,260.6 -337.51,269.1 -316.15,8.5 -450.72,-183.3 -477.43,-260.4 -26.7,-77.1 32.77,-288.6 32.77,-288.6 l 607.01,126.1" /><path
         id="path78"
         style="fill:#fbc398;fill-opacity:1;fill-rule:nonzero;stroke:none"
         d="m 4711.33,10460.4 c 0,0 37.43,129.4 87.61,141.3 50.17,11.8 64.59,8.6 64.59,8.6 0,0 12.82,24.1 49.66,28.9 36.85,4.8 68.89,-12.9 68.89,-12.9 0,0 8.02,25.7 72.1,13.7 0,0 33.17,15.4 78.51,3.2 45.33,-12.2 75.29,-122.6 67.28,-138.6 -8.01,-16 -54.52,1.7 -54.52,1.7 0,0 0.05,-57.8 -31.99,-64.2 -32.04,-6.4 -50.69,18.3 -50.69,18.3 0,0 15.91,-31.4 -31.59,-33.7 -47.49,-2.2 -62.8,26.6 -62.8,26.6 0,0 -40.77,-12.8 -71.21,-11.2 -30.44,1.6 -61,42.3 -61,42.3 l -124.84,-24" /><path
         id="path80"
         style="fill:#ececec;fill-opacity:1;fill-rule:nonzero;stroke:none"
         d="m 9322.6,5899 c -161.26,-44.3 -360.94,-41.5 -494.07,-32.4 -12.62,-95.1 -23.86,-160.5 -20.08,-169.9 8.54,-21.4 98.26,-230.7 230.7,-205.1 132.44,25.6 132.44,145.2 166.62,170.9 34.18,25.6 119.62,29.9 119.62,29.9 0,0 -3.65,83.4 -2.79,206.6" /><path
         id="path82"
         style="fill:#ececec;fill-opacity:1;fill-rule:nonzero;stroke:none"
         d="m 6366.37,5446.9 c -6.52,-165.5 -14.49,-237.3 -14.49,-237.3 0,0 64.09,-115.3 96.13,-115.3 32.04,0 102.54,44.8 102.54,44.8 0,0 44.86,141 83.31,160.2 38.44,19.3 166.61,12.9 166.61,12.9 0,0 -16.65,54 -21.3,149.2 -152.35,-19.8 -306.69,-19 -412.8,-14.5" /><path
         id="path84"
         style="fill:#797a7b;fill-opacity:1;fill-rule:nonzero;stroke:none"
         d="m 3010.96,6354.6 -119.62,-269.2 2298.48,388.8 -1221.87,71.6 -956.99,-191.2" /><path
         id="path86"
         style="fill:#c1bfbd;fill-opacity:1;fill-rule:nonzero;stroke:none"
         d="m 3531.38,10119.5 c -71.8,592.9 -419.27,1051 -810.63,1105.9 h -0.01 c -0.01,0 -0.02,0 -0.03,0.1 -0.09,0 -0.18,0 -0.28,0 -345.56,55.9 -534.28,-59.5 -534.28,-59.5 l -42.46,-103.3 -65.84,-197.4 c -143.45,-241.6 -211.64,-579.7 -167.75,-942.1 42.92,-354.4 184.34,-660.6 374.74,-861.4 63.66,-165 137.67,-276.3 222.14,-281.8 346.19,-22.7 552.64,95.6 552.64,95.6 l 0.01,0.1 c 336.51,173.7 540.14,679.2 471.75,1243.8" /><path
         id="path88"
         style="fill:#969797;fill-opacity:1;fill-rule:nonzero;stroke:none"
         d="m 3263.79,10087.1 c 80.64,-665.8 -216.93,-1249.5 -664.63,-1303.7 -447.71,-54.3 -876.02,441.5 -956.66,1107.4 -80.63,665.8 216.93,1249.5 664.63,1303.7 447.71,54.3 876.02,-441.6 956.66,-1107.4" /><path
         id="path90"
         style="fill:#4c4d4e;fill-opacity:1;fill-rule:nonzero;stroke:none"
         d="m 2718.43,10016.8 c 18.81,-115.3 -44.35,-221.6 -141.07,-237.3 -96.73,-15.8 -190.38,64.8 -209.2,180.1 -18.8,115.3 44.35,221.5 141.07,237.3 96.73,15.8 190.38,-64.9 209.2,-180.1" /><path
         id="path92"
         style="fill:#6b6c6e;fill-opacity:1;fill-rule:nonzero;stroke:none"
         d="m 2526.36,10078.3 c 0,0 78.92,-50.9 37.71,-162.4 l -999.29,-175.4 -28.82,168.9 990.4,168.9" /><path
         id="path94"
         style="fill:#c1bfbd;fill-opacity:1;fill-rule:nonzero;stroke:none"
         d="m 8693.1,11043.4 c -67.42,486.7 -359.73,858.7 -682.48,898.4 v 0 c -0.01,0 -0.02,0 -0.03,0 -0.08,0 -0.15,0 -0.23,0 -285.08,41.1 -438.72,-56.5 -438.72,-56.5 l -33.48,-85.6 -51.39,-163.2 c -114.62,-200.8 -165.96,-479.9 -124.75,-777.5 40.3,-290.9 160.95,-540.9 320.43,-703.4 54.69,-134.9 117.15,-225.4 186.72,-228.7 285.13,-13.8 453.32,86.5 453.32,86.5 v 0 c 274.4,147.6 434.81,566.4 370.61,1030" /><path
         id="path96"
         style="fill:#969797;fill-opacity:1;fill-rule:nonzero;stroke:none"
         d="m 8473.4,11012.9 c 75.71,-546.6 -160.88,-1031 -528.44,-1081.9 -367.57,-50.9 -726.92,350.9 -802.64,897.6 -75.71,546.6 160.89,1031 528.45,1081.9 367.57,50.9 726.92,-350.9 802.63,-897.6" /><path
         id="path98"
         style="fill:#4c4d4e;fill-opacity:1;fill-rule:nonzero;stroke:none"
         d="m 8025.72,10947.4 c 17.1,-94.6 -33.37,-182.9 -112.72,-197.2 -79.35,-14.4 -157.54,50.6 -174.64,145.2 -17.1,94.6 33.37,182.9 112.72,197.2 79.35,14.4 157.54,-50.7 174.64,-145.2" /><path
         id="path100"
         style="fill:#6b6c6e;fill-opacity:1;fill-rule:nonzero;stroke:none"
         d="m 7855.05,11015.2 c 0,0 77.44,-60.7 45.1,-153 l -1027.55,-189.7 91.55,186.1 890.9,156.6" /><path
         id="path102"
         style="fill:#fbc398;fill-opacity:1;fill-rule:nonzero;stroke:none"
         d="m 5906.41,10672.6 c 0,0 18.25,84.6 56.7,97.4 38.45,12.8 61.95,0 61.95,0 0,0 44.86,34.2 72.63,25.6 27.76,-8.5 38.45,-19.2 38.45,-19.2 0,0 49.13,15 64.08,-6.4 0,0 63.24,19.8 81.17,-4.3 17.94,-24 53.4,-92 32.05,-109 -21.36,-17 -32.05,-8.8 -32.05,-8.8 0,0 4.27,-41.5 -32.04,-46.2 -36.31,-4.7 -36.31,-4.7 -36.31,-4.7 0,0 -42.75,-6.4 -59.83,0 -17.07,6.4 -39.97,19.2 -39.97,19.2 0,0 -8.75,-11 -27.1,-6.6 -18.36,4.5 -76.53,81.2 -76.53,81.2 l -103.2,-18.2" /><path
         id="path104"
         style="fill:#494a4b;fill-opacity:1;fill-rule:nonzero;stroke:none"
         d="m 7804.46,8456.6 c 0,0 -76.9,29.9 -346.05,-20.9 -269.16,-50.8 -436.12,-259 -436.12,-259 v 0 c 28.86,-57.3 64.36,-132 98.61,-215.7 76.9,-188 25.63,-367.4 0,-578.9 -18.32,-151.2 -39.91,-174.7 -55.43,-304.4 h 0.01 l 713.35,1216.5 c 65.18,111.2 25.63,162.4 25.63,162.4" /><path
         id="path106"
         style="fill:#797a7b;fill-opacity:1;fill-rule:nonzero;stroke:none"
         d="m 12959.2,8535.2 852.6,1985.3 -205.3,221.1 -908,-2206.4 119.7,-181.6 141,181.6" /><path
         id="path108"
         style="fill:#bbbab8;fill-opacity:1;fill-rule:nonzero;stroke:none"
         d="m 12557.5,8514.1 975.8,2267.1 126,-179.3 -888.1,-2092.1 -9.9,-51.3 -203.8,55.6" /><path
         id="path110"
         style="fill:#959595;fill-opacity:1;fill-rule:nonzero;stroke:none"
         d="m 11788.5,8317.5 -170.9,8.6 -179.4,-290.5 260.6,-72.7 119.6,269.2 -29.9,85.4" /><path
         id="path112"
         style="fill:#bbbab8;fill-opacity:1;fill-rule:nonzero;stroke:none"
         d="m 12771.2,8509.8 1136.4,153.8 301.5,-107.4 -280.2,-251.5 c 0,0 -892.9,0 -939.9,21.4 -46.9,21.4 -217.8,183.7 -217.8,183.7" /><path
         id="path114"
         style="fill:#bbbab8;fill-opacity:1;fill-rule:nonzero;stroke:none"
         d="m 11865.4,8193.1 -47,39 -200.8,94 939.9,188 333.3,-90.8 c 0,0 -170.9,-110 -243.5,-131.4 -72.7,-21.3 -781.9,-98.8 -781.9,-98.8" /><g
         transform="scale(1.06689)"
         id="g116"><path
           id="path118"
           style="fill:#959595;fill-opacity:1;fill-rule:nonzero;stroke:none"
           d="m 14745.5,6422.59 1554.5,348.31 -68.8,192.99 -1497.7,-325.06 -71.6,-144.15 83.6,-72.09" /></g><g
         transform="scale(1.06239)"
         id="g120"><path
           id="path122"
           style="fill:#797a7b;fill-opacity:1;fill-rule:nonzero;stroke:none"
           d="m 14711.5,7319.84 189,-455.86 -325,-98.93 220.4,-98.08 1504.1,326.44 -277.5,83.68 -607.2,-112.58 -337.8,313.63 -303.8,158.23 -62.2,-116.53" /></g><path
         id="path124"
         style="fill:#959595;fill-opacity:1;fill-rule:nonzero;stroke:none"
         d="m 14876.6,9282.6 309.6,-357.6 45.8,-141.8 c 0,0 -525.5,-183.7 -1102.3,-234.9 -576.7,-51.3 -1358.5,-38.5 -1358.5,-38.5 l -38.5,-200.8 2524.9,-316.1 850.2,-656.5 129.2,30.5 -500.9,1229 -352.4,724 c 0,0 -198.7,202.4 -267.1,189.6 -68.3,-12.8 -240,-226.9 -240,-226.9" /><path
         id="path126"
         style="fill:#3a70c0;fill-opacity:1;fill-rule:nonzero;stroke:none"
         d="m 15274.7,7219.6 -115.3,-132.5 c 0,0 -38.5,-8.5 -64.1,-68.3 -25.7,-59.8 -72.7,-538.3 -29.9,-572.5 42.7,-34.2 128.1,-59.8 158,-81.2 29.9,-21.4 209.4,-243.5 593.9,-264.9 384.5,-21.3 440,102.6 414.4,179.5 -25.6,76.9 -179.4,115.3 -213.6,175.1 -34.2,59.8 -222.2,371.7 -243.5,427.3 -21.4,55.5 -38.5,166.6 -55.6,200.8 -17.1,34.1 -111.1,106.8 -111.1,106.8 0,0 -59.8,59.8 -85.4,72.6 -25.6,12.8 -247.8,-42.7 -247.8,-42.7" /><g
         transform="scale(1.17404)"
         id="g128"><path
           id="path130"
           style="fill:#3a70c0;fill-opacity:1;fill-rule:nonzero;stroke:none"
           d="m 15062.9,6593.71 c -41.3,2.39 -105.7,-65.92 -127.5,-105.96 -21.9,-40.03 -183.2,-265.66 -98.9,-458.5 84.3,-192.84 306.3,-69.16 648.4,-141.9 342,-72.83 487.6,-87.39 651.3,-36.46 163.8,51.03 156.5,211.07 25.5,280.23 -131,69.16 -127.4,65.5 -320.3,189.26 -192.8,123.68 -265.6,167.37 -276.5,218.31 -11,50.93 -167.4,138.33 -167.4,138.33 l -334.6,-83.31" /></g><g
         transform="scale(1.03906)"
         id="g132"><path
           id="path134"
           style="fill:#100f0d;fill-opacity:1;fill-rule:nonzero;stroke:none"
           d="m 15860.1,9164.38 c 0,0 78.1,-82.19 222,-41.09 143.9,41.09 217.9,226.17 217.9,226.17 l -472.8,110.96 c 0,0 71.6,-319.62 32.9,-296.04" /></g><g
         transform="scale(1.12686)"
         id="g136"><path
           id="path138"
           style="fill:#fbc398;fill-opacity:1;fill-rule:nonzero;stroke:none"
           d="m 14672.1,8583.51 -21.4,-59.28 c 0,0 182.1,-70.11 462.6,-58.75 280.6,11.36 508.1,-18.9 538.4,-41.71 0,0 -109.9,-394.28 -72,-625.54 37.9,-231.27 83.4,-269.16 94.8,-526.96 11.3,-257.88 -49.3,-530.85 -41.8,-549.76 7.7,-18.98 87.3,-204.72 204.8,-182 117.6,22.71 117.6,128.94 147.8,151.66 30.4,22.72 106.2,26.53 106.2,26.53 0,0 -18.9,432.17 45.5,750.67 64.5,318.5 132.7,792.38 125.1,993.29 -7.5,201 37.9,310.96 -79.6,439.84 -117.5,128.9 -750.7,436 -1012.3,492.87 -261.6,56.87 -519.5,-447.38 -519.5,-447.38 l 21.4,-363.48" /></g><path
         id="path140"
         style="fill:#252323;fill-opacity:1;fill-rule:nonzero;stroke:none"
         d="m 15923.3,9912.7 h -256 v 331.7 h 256 v -331.7" /><path
         id="path142"
         style="fill:#494a4b;fill-opacity:1;fill-rule:nonzero;stroke:none"
         d="m 12993.3,12617.6 c 0,0 -422.9,-51.4 -480.6,-83.4 -57.7,-31.9 -64.1,-123.8 -57.7,-170.8 6.4,-47 1723.9,-2539.9 1980.2,-2815.4 256.4,-275.6 243.5,-224.3 397.3,-224.3 153.8,0 23.1,1461.1 23.1,1461.1 l -1862.3,1832.8" /><path
         id="path144"
         style="fill:#959595;fill-opacity:1;fill-rule:nonzero;stroke:none"
         d="m 12512.7,12534.2 c -57.7,-31.9 -64.1,-123.8 -57.7,-170.8 6.4,-47 1723.9,-2539.9 1980.2,-2815.4 220.4,-236.9 241.9,-232.3 341.3,-226.3 -600.4,724.8 -2263.8,3212.5 -2263.8,3212.5" /><path
         id="path146"
         style="fill:#fbc398;fill-opacity:1;fill-rule:nonzero;stroke:none"
         d="m 14986.3,9323.7 166.7,-153.8 h 102.5 c 0,0 -102.5,-307.6 -134.6,-596 -32,-288.4 64.1,-820.3 57.7,-1095.9 -6.4,-275.5 -19.2,-390.9 -19.2,-390.9 0,0 64,-115.3 96.1,-115.3 32,0 102.5,44.8 102.5,44.8 0,0 44.9,141 83.3,160.2 38.5,19.3 166.6,12.9 166.6,12.9 0,0 -83.3,269.1 70.5,666.4 153.8,397.4 166.7,525.5 179.5,878 12.8,352.5 44.8,314 70.5,525.5 25.6,211.5 76.9,390.9 0,578.9 -76.9,188 -160.2,331.1 -160.2,331.1 0,0 -168.8,87.6 -425.1,32 -256.4,-55.5 -448.6,-234.9 -457.2,-256.3 -8.5,-21.4 -34.1,-136.7 -29.9,-230.7 4.3,-94 130.3,-390.9 130.3,-390.9" /><g
         transform="scale(1.04875)"
         id="g148"><path
           id="path150"
           style="fill:#252323;fill-opacity:1;fill-rule:nonzero;stroke:none"
           d="m 13868.1,9768.11 c 0,0 -30.6,-297.35 0,-505.12 30.5,-207.77 195.4,-299.4 274.9,-372.73 79.4,-73.33 122.2,-122.24 213.8,-134.45 91.8,-12.2 91.8,-12.2 91.8,-12.2 0,0 -146.7,232.18 -152.9,439.95 -6.1,207.77 0.1,372.72 214,446.04 213.8,73.33 195.5,116.1 360.4,91.66 165.1,-24.44 165.1,-24.44 165.1,-24.44 0,0 41.5,-40.42 104.2,-100.58 184.4,-177.26 551.2,-525.67 574,-516.61 30.5,12.2 12.2,101.83 73.3,176.21 61.1,74.37 146.7,153.8 207.8,306.54 61.1,152.76 134.4,311.64 183.3,397.19 48.9,85.53 122.2,134.43 122.2,134.43 0,0 -564.2,181.3 -1018.4,252.6 -454.2,71.3 -698.7,107.9 -973.6,65.2 -275,-42.8 -482.7,-158.5 -482.7,-158.5 l 42.8,-485.19" /></g><g
         transform="scale(1.01913)"
         id="g152"><path
           id="path154"
           style="fill:#959595;fill-opacity:1;fill-rule:nonzero;stroke:none"
           d="m 16128.2,9989.12 c 4.1,12.58 171.8,150.88 171.8,150.88 0,0 -20.9,255.8 -331.2,264.1 -310.1,8.4 -442.2,-179.8 -468.4,-255.5 -26.2,-75.6 32.2,-283.18 32.2,-283.18 l 595.6,123.7" /></g><g
         transform="scale(1.11245)"
         id="g156"><path
           id="path158"
           style="fill:#ececec;fill-opacity:1;fill-rule:nonzero;stroke:none"
           d="m 16297.5,6990.44 c -145,-39.82 -324.5,-37.21 -444.2,-29.12 -11.3,-85.49 -21.5,-144.28 -18,-152.73 7.7,-19.24 88.3,-207.38 207.3,-184.37 119.1,23.01 119.1,130.61 149.8,153.63 30.7,23.01 107.6,26.87 107.6,26.87 0,0 -3.3,74.97 -2.5,185.72" /></g><path
         id="path160"
         style="fill:#ececec;fill-opacity:1;fill-rule:nonzero;stroke:none"
         d="m 15173.8,7324.4 c -6.5,-165.5 -14.4,-237.3 -14.4,-237.3 0,0 64,-115.3 96.1,-115.3 32,0 102.5,44.8 102.5,44.8 0,0 44.9,141 83.3,160.2 38.5,19.3 166.6,12.9 166.6,12.9 0,0 -16.6,54 -21.2,149.2 -152.4,-19.8 -306.7,-19 -412.9,-14.5" /><path
         id="path162"
         style="fill:#797a7b;fill-opacity:1;fill-rule:nonzero;stroke:none"
         d="m 11818.4,8232.1 -119.6,-269.2 2298.5,388.8 -1221.9,71.6 -957,-191.2" /><g
         transform="scale(1.02156)"
         id="g164"><path
           id="path166"
           style="fill:#494a4b;fill-opacity:1;fill-rule:nonzero;stroke:none"
           d="m 16261.2,10115.9 c 0,0 -75.2,29.3 -338.7,-20.4 -263.5,-49.7 -426.9,-253.54 -426.9,-253.54 v 0 c 28.2,-55.99 63,-129.21 96.6,-211.14 75.2,-184.03 25,-359.65 0,-566.68 -17.9,-148.01 -39.1,-171.01 -54.4,-297.98 h 0.1 L 16236.2,9957 c 63.8,108.8 25,158.9 25,158.9" /></g><path
         id="path168"
         style="fill:#3a70c0;fill-opacity:1;fill-rule:nonzero;stroke:none"
         d="m 13711.8,12046.3 h -258.4 v 258.5 h 258.4 v -258.5" /><path
         id="path170"
         style="fill:#fbc398;fill-opacity:1;fill-rule:nonzero;stroke:none"
         d="m 14337.1,12232 c 0,0 102.5,153.8 108.9,158.1 6.4,4.4 2.1,314.1 44.9,540.5 42.7,226.5 51.2,282.2 51.2,282.2 0,0 -21.3,175 21.4,401.4 42.7,226.4 51.1,747.7 51.1,747.7 h 256.5 c 0,0 55.5,-132.5 132.4,-495.6 76.9,-363.2 -4.2,-786.1 0,-803.2 4.3,-17.1 38.2,-580.7 4.3,-758.3 -33.9,-177.7 -100.4,-258.5 -100.4,-258.5 h -480.6 l -89.7,185.7" /><path
         id="path172"
         style="fill:#3a70c0;fill-opacity:1;fill-rule:nonzero;stroke:none"
         d="m 13537.8,12173.8 c -49.3,-8.7 -194,-15.9 -194,-15.9 l -141.1,-132 c 0,0 64.1,-718.7 115.4,-752.9 51.3,-34.2 747.6,-614.2 790.3,-639.9 42.7,-25.6 153.8,-111 226.4,-196.5 72.6,-85.4 209.4,-192.2 209.4,-192.2 0,0 247.7,358.8 431.5,401.5 183.7,42.8 358.8,25.7 478.5,72.7 119.6,47 170.8,72.6 269.1,89.7 98.3,17.1 303.3,42.7 303.3,42.7 0,0 -328.9,376 -397.3,512.7 -68.3,136.7 -111.1,226.4 -222.1,371.7 -111.1,145.2 -247.7,266.9 -320.4,322.6 -72.6,55.8 -194.3,109.6 -296.9,156.6 -102.5,47 -495.6,90.2 -495.6,90.2 l -323.4,-17 -433.1,-114" /><path
         id="path174"
         style="fill:#efb38d;fill-opacity:1;fill-rule:nonzero;stroke:none"
         d="m 13343.8,12414 c 0,0 198.5,-203.4 230.8,-215.3 32.3,-12 252.9,35.8 252.9,35.8 l 28.3,176.1 c 0,0 -212.5,68.6 -249.4,68.6 -36.9,0 -262.6,-65.2 -262.6,-65.2" /><path
         id="path176"
         style="fill:#252323;fill-opacity:1;fill-rule:nonzero;stroke:none"
         d="m 13214.3,12442.2 c 4.1,-6.2 129.9,-18 129.9,-18 0,0 -28,-76 -46.4,-120.8 -7,-16.8 -59.4,-121.4 -61.9,-117.7 -2.5,3.7 -243.1,142.4 -286.6,183.3 -43.5,40.8 -164.8,173.8 -189.3,304.3 -24.5,130.5 31.4,298.9 105,376.8 73.4,77.9 135.4,114 206.9,176.2 71.4,62.1 163.3,53.6 227.4,73.2 64.1,19.5 122.4,37 187,-11.3 64.6,-48.3 64.8,-132.5 64.8,-132.5 l -43.2,-593.6 c 0,0 -96.8,-141.3 -117.8,-131.4 -20.9,9.9 -175.8,11.5 -175.8,11.5" /><path
         id="path178"
         style="fill:#efb38d;fill-opacity:1;fill-rule:nonzero;stroke:none"
         d="m 13255.8,12627.9 c 0,0 -114.2,2.5 -161.6,-33.9 -47.4,-36.5 12.3,-111.4 54.3,-152.7 42,-41.3 102.7,-53.3 129.2,-50 26.4,3.4 66.1,22.7 66.1,22.7 0,0 166.3,-159.1 241.4,-178.2 75,-19.2 403.6,159.4 413,180.1 9.5,20.7 -121.6,264.9 -121.6,264.9 0,0 64.8,56 64.8,72.1 0,16.1 -173.9,109.7 -186,141.2 -12,31.4 0,26.8 -25.8,76 -25.7,49.2 -184.4,192.5 -189.3,194.5 -5,2.1 -163.3,-69.7 -217.8,-117 -54.6,-47.2 13.6,-125.5 26.8,-165.1 13.2,-39.6 -21.4,-138.1 -12.2,-167.9 9.2,-29.7 53.1,-106.2 46.5,-117.8 -6.6,-11.6 -32.6,-23.6 -32.6,-23.6 l -95.2,54.7" /><g
         transform="scale(1.08993)"
         id="g180"><path
           id="path182"
           style="fill:#6b6c6e;fill-opacity:1;fill-rule:nonzero;stroke:none"
           d="m 8617.76,13236.5 7591.94,455.6 c 0,0 90.3,-63.6 3,-154.2 l -7567.86,-452.5 -27.08,151.1" /></g><path
         id="path184"
         style="fill:#969797;fill-opacity:1;fill-rule:nonzero;stroke:none"
         d="m 9459.92,14346.3 c 2.84,-46.4 -24.92,-85.8 -62.01,-88 -37.1,-2.3 -69.47,33.4 -72.31,79.8 -2.85,46.3 24.91,85.8 62.01,88.1 37.09,2.2 69.47,-33.5 72.31,-79.9" /><path
         id="path186"
         style="fill:#c1bfbd;fill-opacity:1;fill-rule:nonzero;stroke:none"
         d="m 11974.6,14448.1 c -3.9,597.2 -296.9,1091.9 -679.5,1191.1 v 0 c 0,0 0,0 0,0 -0.1,0 -0.2,0 -0.3,0 -337,94.9 -537.6,1.7 -537.6,1.7 l -53.9,-97.8 -87.9,-188.6 c -170,-223.7 -276.3,-551.8 -273.9,-916.9 2.3,-356.9 107.9,-677.2 274.2,-898.4 44.5,-171.2 105.3,-290.2 188.6,-305.3 341.4,-61.9 560,32.1 560,32.1 v 0.1 c 354.1,134.2 613.9,613.3 610.3,1182" /><path
         id="path188"
         style="fill:#969797;fill-opacity:1;fill-rule:nonzero;stroke:none"
         d="m 11705,14446.4 c 4.3,-670.7 -357.8,-1216.7 -808.7,-1219.6 -451,-2.9 -820.1,538.4 -824.4,1209.1 -4.3,670.7 357.8,1216.7 808.8,1219.6 450.9,2.9 820,-538.4 824.3,-1209.1" /><path
         id="path190"
         style="fill:#4c4d4e;fill-opacity:1;fill-rule:nonzero;stroke:none"
         d="m 11155.2,14438.6 c 5.6,-116.7 -69.3,-215 -167.2,-219.7 -97.9,-4.7 -181.7,86.1 -187.3,202.8 -5.6,116.6 69.3,215 167.2,219.7 97.9,4.6 181.7,-86.2 187.3,-202.8" /><path
         id="path192"
         style="fill:#6b6c6e;fill-opacity:1;fill-rule:nonzero;stroke:none"
         d="m 10971.4,14521.6 c 0,0 72.6,-59.6 19,-165.6 l -1012.81,-60.6 -269.4,150.4 1263.21,75.8" /><g
         transform="scale(1.05637)"
         id="g194"><path
           id="path196"
           style="fill:#c1bfbd;fill-opacity:1;fill-rule:nonzero;stroke:none"
           d="m 16289.6,13989.7 c -11,465 -245.8,846.3 -545.1,918.5 v 0 c 0,0 0,0 0,0 -0.1,0 -0.1,0 -0.2,0 -263.7,69.4 -418.7,-5.8 -418.7,-5.8 l -40.7,-76.9 -66,-148.1 c -129.4,-176.4 -207.7,-433.4 -201,-717.7 6.5,-278 93,-526 225.5,-696 36.9,-132.8 85.9,-224.6 151,-235.3 266.6,-43.7 435.6,32.5 435.6,32.5 v 0 c 274,109.3 470,485.9 459.6,928.8" /></g><g
         transform="scale(1.04289)"
         id="g198"><path
           id="path200"
           style="fill:#969797;fill-opacity:1;fill-rule:nonzero;stroke:none"
           d="m 16287.6,14165.5 c 12.4,-529 -265.9,-964.6 -621.5,-973 -355.8,-8.4 -654.3,413.7 -666.6,942.7 -12.5,529 265.8,964.7 621.4,973.1 355.8,8.3 654.3,-413.7 666.7,-942.8" /></g><g
         transform="scale(1.01473)"
         id="g202"><path
           id="path204"
           style="fill:#4c4d4e;fill-opacity:1;fill-rule:nonzero;stroke:none"
           d="m 16293.9,14544.7 c 6.1,-94.5 -53.1,-175.3 -132.5,-180.5 -79.3,-5.1 -148.6,67.3 -154.7,161.8 -6.1,94.5 53.2,175.3 132.6,180.5 79.2,5.1 148.5,-67.3 154.6,-161.8" /></g><g
         transform="scale(1.00872)"
         id="g206"><path
           id="path208"
           style="fill:#6b6c6e;fill-opacity:1;fill-rule:nonzero;stroke:none"
           d="m 16230.6,14717.5 c 0,0 69.4,-68.6 27.2,-155.8 l -1033.5,-70.9 111.1,172.9 895.2,53.8" /></g><path
         id="path210"
         style="fill:#efb38d;fill-opacity:1;fill-rule:nonzero;stroke:none"
         d="m 13954.9,12384.9 c 0,0 -7.3,-22.5 0,-60.9 7.2,-38.5 59.6,-89.7 59.6,-89.7 0,0 -254.3,-44.9 -269.3,-47 -14.9,-2.2 -150,9.4 -150,9.4 0,0 -23.5,58.9 4.6,101.6 28.1,42.8 6.7,75 64.4,86.6 57.6,11.7 290.7,0 290.7,0" /><path
         id="path212"
         style="fill:#efb38d;fill-opacity:1;fill-rule:nonzero;stroke:none"
         d="m 13855.8,12221.4 c 0,0 -120.1,-16.8 -123.7,-34.1 0,0 282.4,-11.9 340.1,-1.7 57.7,10.2 143.1,59.3 141,70 -2.2,10.7 -242.3,32.2 -242.3,32.2 l -115.1,-66.4" /><path
         id="path214"
         style="fill:#fbc398;fill-opacity:1;fill-rule:nonzero;stroke:none"
         d="m 13576.2,12003.6 c 0,0 188.4,-132.5 243.9,-418.7 55.6,-286.3 -190.9,-504.5 -243.9,-520 -53,-15.5 -392.7,203.8 -473.8,255.1 -81.2,51.3 -200.8,191.7 -209.4,427.2 -8.5,235.6 0,358.9 0,358.9 0,0 29.9,148 51.3,373.1 21.4,225 0,541.2 0,541.2 0,0 -47,346 -17.1,628 29.9,282 72.6,647 72.6,647 l 320.5,-33.2 c 0,0 -29.9,-92.6 38.4,-408.8 68.4,-316.1 68.4,-769 68.4,-769 0,0 90,-270.2 110.7,-497.7 20.6,-227.5 38.4,-583.1 38.4,-583.1" /><path
         id="path216"
         style="fill:#dc9d71;fill-opacity:1;fill-rule:nonzero;stroke:none"
         d="m 13423.9,11804.9 c -7.6,-6.8 55.7,136.8 29.4,360 0,0 121.2,-225.4 -29.4,-360" /><path
         id="path218"
         style="fill:#dc9d71;fill-opacity:1;fill-rule:nonzero;stroke:none"
         d="m 13576.2,12003.6 v -304.5 c 0,0 25.7,169.1 52.7,198.7 27,29.7 27,29.7 27,29.7 l -79.7,76.1" /><path
         id="path220"
         style="fill:#dc9d71;fill-opacity:1;fill-rule:nonzero;stroke:none"
         d="m 13115.2,12994.7 c 0,0 85.5,-108.9 64.1,-242.2 0,0 115.5,140.1 -64.1,242.2" /><path
         id="path222"
         style="fill:#dc9d71;fill-opacity:1;fill-rule:nonzero;stroke:none"
         d="m 14686.9,13503.1 c 0,0 21.8,-162.3 -50.8,-273.4 0,0 161.8,81.1 50.8,273.4" /><path
         id="path224"
         style="fill:#fbc398;fill-opacity:1;fill-rule:nonzero;stroke:none"
         d="m 13320.3,14262.2 c 0,0 33.1,74 97.2,99.7 64,25.6 77.8,42.7 88.6,93.9 10.8,51.3 49.1,121.8 32,162.4 -17,40.6 -115.3,98.2 -147.4,98.2 -32,0 -32,-38.4 0,-81.1 32.1,-42.7 40.7,-57.7 40.7,-57.7 0,0 -25.7,-38.4 -55.6,-38.4 -29.9,0 -115.3,-47.5 -115.3,-47.5 l -295,-17.6 34.3,-178.7 c 0,0 53.4,-132.2 113.2,-119.4 59.9,12.8 207.3,86.2 207.3,86.2" /><path
         id="path226"
         style="fill:#fbc398;fill-opacity:1;fill-rule:nonzero;stroke:none"
         d="m 12952.9,14640.5 c 0,0 19.2,83.4 40,97.8 20.8,14.5 76.9,0 76.9,0 0,0 36.8,33.7 59.3,35.3 22.4,1.6 36.8,0 36.8,0 0,0 28.9,17.6 51.3,19.2 22.4,1.6 54.5,-12.8 54.5,-12.8 0,0 36.8,29.1 68.8,12.9 32.1,-16.1 70.4,-167.8 69.7,-184 -0.8,-16.3 -51.5,-9.9 -51.5,-9.9 0,0 -2.1,-35.3 -37.4,-46.5 -35.2,-11.2 -54.5,0 -54.5,0 0,0 -12.8,-2 -40,-5 -27.2,-3 -62.5,38.6 -62.5,38.6 0,0 -38.4,-0.9 -62.5,6.8 -24,7.7 -51.3,53.5 -51.3,53.5 l -97.6,-5.9" /><path
         id="path228"
         style="fill:#fbc398;fill-opacity:1;fill-rule:nonzero;stroke:none"
         d="m 14614.6,14361.9 c 0,0 -113.1,100.4 -140.8,128.1 -27.8,27.8 -38.2,72 -38.2,72 l 59.6,3.6 c 0,0 44.8,123.1 59.7,135.9 15,12.8 108.3,60.3 147.1,44 38.8,-16.2 -42.4,-61.2 -48.8,-72.9 -6.4,-11.7 -25.4,-99.1 -25.4,-99.1 l 260.1,15.5 c 0,0 8.8,-158.8 -16.8,-227.1 -25.6,-68.4 -256.5,0 -256.5,0" /><path
         id="path230"
         style="fill:#fbc398;fill-opacity:1;fill-rule:nonzero;stroke:none"
         d="m 14435.6,14731.4 c 0,0 55.3,109.1 83,114.4 27.8,5.2 79.1,0 79.1,0 0,0 46,11.6 89.2,-7.6 0,0 51.8,21.4 88.1,-10.7 0,0 49.1,2.2 64.1,-14.9 14.9,-17.1 36.3,-119.7 19.2,-160.2 -17.1,-40.6 -47,-25.7 -47,-25.7 0,0 -25.7,-35.3 -57.7,-2.7 0,0 -47.9,-5.8 -66.7,11.3 -18.7,17.1 -33.7,37.3 -33.7,37.3 l -57.7,57.2 -159.9,1.6" /><path
         id="path232"
         style="fill:#dc9d71;fill-opacity:1;fill-rule:nonzero;stroke:none"
         d="m 13954.9,12384.9 c 0,0 -16,-24.8 0,-60.9 l -325.4,-89.4 325.4,150.3" /></g></g></svg>