<?xml version="1.0" encoding="UTF-8" standalone="no"?>
<svg
   xmlns:dc="http://purl.org/dc/elements/1.1/"
   xmlns:cc="http://creativecommons.org/ns#"
   xmlns:rdf="http://www.w3.org/1999/02/22-rdf-syntax-ns#"
   xmlns:svg="http://www.w3.org/2000/svg"
   xmlns="http://www.w3.org/2000/svg"
   viewBox="0 0 2666.6667 2666.6667"
   height="2666.6667"
   width="2666.6667"
   xml:space="preserve"
   id="svg2"
   version="1.1"><metadata
     id="metadata8"><rdf:RDF><cc:Work
         rdf:about=""><dc:format>image/svg+xml</dc:format><dc:type
           rdf:resource="http://purl.org/dc/dcmitype/StillImage" /></cc:Work></rdf:RDF></metadata><defs
     id="defs6" /><g
     transform="matrix(1.3333333,0,0,-1.3333333,0,2666.6667)"
     id="g10"><g
       transform="scale(0.1)"
       id="g12"><g
         transform="scale(1.22699)"
         id="g14"><path
           id="path16"
           style="fill:none;fill-opacity:1;fill-rule:nonzero;stroke:none"
           d="M 16300,0 H 0 V 16300 H 16300 V 0" /></g><g
         transform="scale(1.06019)"
         id="g18"><path
           id="path20"
           style="fill:#3871c1;fill-opacity:1;fill-rule:nonzero;stroke:none"
           d="m 15078,4213.96 c -5,0 -91.3,-20.28 -187.6,-96.3 -96.3,-76.12 -187.6,-461.43 -187.6,-491.8 0,-30.47 278.9,-172.42 400.6,-162.33 121.7,10.19 96.3,19.34 172.3,-0.47 76.2,-19.81 334.7,-207.32 628.8,-202.32 294,5.09 395.5,147.05 395.5,248.44 0,101.4 -418,258.64 -510.8,329.57 -92.6,71.02 -287.8,263.63 -287.8,263.63 0,0 -149.5,167.32 -180,172.42 -30.4,5.09 -243.4,-60.84 -243.4,-60.84" /></g><path
         id="path22"
         style="fill:#3871c1;fill-opacity:1;fill-rule:nonzero;stroke:none"
         d="m 14383.8,3661.3 c 0,0 -182.8,-43 -220.4,-134.4 -37.7,-91.4 -209.7,-467.6 -188.2,-532.1 21.5,-64.6 231.5,-145.2 320,-231.2 88.6,-86 335.8,-392.4 583.1,-473 247.2,-80.6 489.1,53.7 473,198.9 -16.1,145.1 -188.1,317.1 -274.1,424.6 -86,107.5 -284.9,435.4 -284.9,451.6 0,16.1 10.7,177.3 -118.3,215 -129,37.6 -290.2,80.6 -290.2,80.6" /><path
         id="path24"
         style="fill:#fbc398;fill-opacity:1;fill-rule:nonzero;stroke:none"
         d="m 12303.5,7579.9 c -3.6,50.2 118.2,318.9 247.3,519.6 129,200.7 211.4,319 211.4,329.7 0,10.8 100.3,480.2 114.7,709.6 14.3,229.3 -28.7,347.6 -28.7,347.6 h 333.3 c 0,0 100.3,-369.1 107.5,-652.2 7.1,-283.1 -64.5,-602.1 -64.5,-602.1 0,0 -39.5,-154.1 -104,-336.8 -64.5,-182.8 -175.5,-448 -250.8,-422.9 -75.3,25.1 -376.3,53.8 -376.3,53.8 l -189.9,53.7" /><path
         id="path26"
         style="fill:#e8a175;fill-opacity:1;fill-rule:nonzero;stroke:none"
         d="m 12811.5,7705.7 205.1,232.6 -164.8,-304.6 z" /><path
         id="path28"
         style="fill:#bebdbb;fill-opacity:1;fill-rule:nonzero;stroke:none"
         d="M 10599.5,6445.7 V 4951.4 l 327.9,-110.7 26.9,1605 h -354.8" /><path
         id="path30"
         style="fill:#ececec;fill-opacity:1;fill-rule:nonzero;stroke:none"
         d="m 11110.2,6300 -48.4,-1359.4 -134.4,-99.9 26.9,1605 155.9,-145.7" /><path
         id="path32"
         style="fill:#bebdbb;fill-opacity:1;fill-rule:nonzero;stroke:none"
         d="M 14059.3,5413.5 V 3919.1 l 327.9,-110.7 26.8,1605.1 h -354.7" /><path
         id="path34"
         style="fill:#ececec;fill-opacity:1;fill-rule:nonzero;stroke:none"
         d="m 14569.9,5267.7 -48.3,-1359.3 -134.4,-100 26.8,1605.1 155.9,-145.8" /><path
         id="path36"
         style="fill:#494b4b;fill-opacity:1;fill-rule:nonzero;stroke:none"
         d="m 10201.7,6840.6 c 0,0 24.2,-298.1 32.3,-322.3 8.1,-24.2 4261.6,-1459.4 4261.6,-1459.4 l 503.6,32.2 697.9,446.2 11.7,494.6 c 0,0 -4910.4,1003.3 -4924.7,1003.3 -14.4,0 -582.4,-194.6 -582.4,-194.6" /><path
         id="path38"
         style="fill:#717575;fill-opacity:1;fill-rule:nonzero;stroke:none"
         d="m 15014.6,6173.7 -254.6,-889.1 -4527.8,1556 c 0,0 -7.3,1.7 -18.1,4.2 -7.9,-2.7 -12.4,-4.2 -12.4,-4.2 0,0 24.2,-298.1 32.3,-322.3 8.1,-24.2 4261.6,-1459.4 4261.6,-1459.4 l 503.6,32.2 697.9,446.2 11.7,494.6 c 0,0 -274.7,56.1 -694.2,141.8" /><path
         id="path40"
         style="fill:#100f0d;fill-opacity:1;fill-rule:nonzero;stroke:none"
         d="m 14061.2,5408.3 155.9,-236.5 c 0,0 247.3,-68.4 284.9,-2 37.6,66.5 37.6,512.6 37.6,512.6 0,0 -456.9,139.8 -478.4,129 -21.5,-10.7 -86,-207.5 -86,-207.5 l 86,-195.6" /><path
         id="path42"
         style="fill:#100f0d;fill-opacity:1;fill-rule:nonzero;stroke:none"
         d="m 15485.7,5537.3 c 0,0 161.3,80.6 284.9,204.3 123.6,123.6 215,420.3 215,420.3 l -456.9,47.3 c 0,0 -112.9,0 -112.9,-215 0,-215 -16.1,-258 0,-274.2 16.1,-16.1 69.9,-182.7 69.9,-182.7" /><g
         transform="scale(1.0282)"
         id="g44"><path
           id="path46"
           style="fill:#fbc398;fill-opacity:1;fill-rule:nonzero;stroke:none"
           d="m 15165.6,5829.82 c 15.6,5.25 355.9,-41.82 355.9,-41.82 0,0 -105,-334.57 -78.8,-622.16 26.1,-287.49 -41.8,-956.72 -41.8,-956.72 0,0 0,-235.27 193.4,-198.6 193.4,36.57 240.4,271.83 240.4,271.83 0,0 371.3,1202.4 418.3,1479.49 47,277.08 41.8,512.35 -78.5,632.56 -120.2,120.31 -653.4,258.61 -653.4,258.61 0,0 -439.2,-127.89 -444.4,-274.27 -5.3,-146.37 26.2,-339.82 26.2,-339.82 l 62.7,-209.1" /></g><path
         id="path48"
         style="fill:#252323;fill-opacity:1;fill-rule:nonzero;stroke:none"
         d="m 12991.5,5951.2 c 0,0 564.4,-303.7 604.8,-368.2 40.3,-64.5 620.8,-443.5 620.8,-411.2 0,32.2 -177.4,378.9 0,701.4 177.4,322.6 475.7,500 475.7,500 l 422,-717.7 370.9,-118.2 c 0,0 -10.8,247.3 161.3,413.9 172,166.6 112.8,462.3 188.1,612.8 75.2,150.5 129,252.1 123.6,276.6 -5.4,24.4 -655.8,105 -929.9,158.8 -274.2,53.7 -1053.6,102.1 -1053.6,102.1 0,0 -548.3,112.9 -720.3,37.6 -172,-75.2 -602,-204.2 -618.1,-370.9 -16.2,-166.6 0,-247.2 96.7,-392.4 96.8,-145.1 258,-424.6 258,-424.6" /><path
         id="path50"
         style="fill:#252323;fill-opacity:1;fill-rule:nonzero;stroke:none"
         d="m 10855.7,7633.7 c 0,0 69,41.1 47.1,61.7 -22,20.7 -111.6,74.4 -143.8,74.4 -32.3,0 -186.4,-32.2 -250.9,-86 -64.5,-53.7 -121.8,-222.1 -129,-258 -7.1,-35.8 -3.6,-265.2 0,-293.8 3.6,-28.7 100.4,-211.5 168.4,-240.1 68.1,-28.7 325.2,-32.3 325.2,-32.3 0,0 131.5,162.8 125.4,266 -6.2,103.1 -20.5,214.2 -42,289.5 -21.5,75.2 -100.4,218.6 -100.4,218.6" /><path
         id="path52"
         style="fill:#e7ab83;fill-opacity:1;fill-rule:nonzero;stroke:none"
         d="m 10726.7,7705.3 c 0,0 -46.6,-132.6 -43,-168.4 3.6,-35.8 154.1,-179.2 168.5,-211.4 14.3,-32.3 0,-82.4 0,-82.4 0,0 -57.4,17.9 -96.8,-25.1 -39.4,-43 45,-125.5 103.1,-147 58.2,-21.4 158.5,18 194.3,179.2 35.9,161.3 -46.5,430.1 -57.3,433.6 -10.8,3.6 -197.1,25.1 -268.8,21.5" /><path
         id="path54"
         style="fill:#3871c1;fill-opacity:1;fill-rule:nonzero;stroke:none"
         d="M 11647.7,6424.2 V 6300 c 0,0 338.6,-10.2 569.8,-80 231.1,-69.9 774,-268.8 774,-268.8 0,0 -48.3,413.9 32.3,650.4 80.6,236.5 419.3,391.9 542.9,413.6 123.6,21.8 408.5,86.3 408.5,86.3 0,0 -654,320.7 -783,381.7 -129,60.9 -274.1,190.7 -380.7,222.5 -106.6,31.9 -701.5,32.7 -855.6,0 -154.1,-32.6 -659.4,-233.3 -659.4,-233.3 0,0 -129,-354.8 -129,-406.7 0,-52 401.4,-564.4 412.1,-575.2 10.8,-10.7 68.1,-66.3 68.1,-66.3" /><path
         id="path56"
         style="fill:#fbc398;fill-opacity:1;fill-rule:nonzero;stroke:none"
         d="m 10902.3,7769.8 c 0,0 -101.9,-265.1 -43.8,-698.8 0,0 -61.7,-232.9 -17.9,-404.9 43.8,-172 330.5,-236.5 330.5,-236.5 0,0 412.1,-139.8 533.9,-129 121.9,10.7 229.4,240.1 186.4,430 -43,189.9 -501.7,415.7 -498.1,440.8 3.6,25.1 43,813.5 64.5,860 21.5,46.6 60.9,487.4 68.1,698.8 7.1,211.5 -10.8,465.9 -10.8,465.9 h -387 c 0,0 -28.7,-261.6 -100.4,-548.3 -71.6,-286.7 -145.9,-608.1 -125.4,-878" /><path
         id="path58"
         style="fill:#bcbbb9;fill-opacity:1;fill-rule:nonzero;stroke:none"
         d="m 6956.83,9074.3 c 0,0 -70.24,-189.7 19.35,-261.3 L 15371,10238.9 c 0,0 71.7,86 0,146.9 L 6956.83,9074.3" /><path
         id="path60"
         style="fill:#fbc398;fill-opacity:1;fill-rule:nonzero;stroke:none"
         d="m 11253.5,9117.3 c -17.9,10.7 -125.4,78.8 -125.4,78.8 0,0 17.9,139.8 0,150.5 -17.9,10.8 -107.5,143.4 -107.5,143.4 0,0 250.8,50.1 261.6,60.9 10.7,10.7 247.2,146.9 247.2,146.9 0,0 -100.3,118.3 -43,136.2 57.4,17.9 175.6,-17.9 200.7,-32.3 25.1,-14.3 17.9,-89.6 28.7,-139.7 10.7,-50.2 -14.3,-102.6 -57.3,-183.9 -43.1,-81.3 -143.4,-282 -143.4,-282 0,0 -189.9,-146.9 -204.3,-139.8 -14.3,7.2 -57.3,61 -57.3,61" /><path
         id="path62"
         style="fill:#e8a175;fill-opacity:1;fill-rule:nonzero;stroke:none"
         d="m 11274.1,6859.6 c 0,0 108.3,133.1 119.2,311.8 l 101.4,-72.7 c 0,0 -140,-252.5 -220.6,-239.1" /><path
         id="path64"
         style="fill:#fbc398;fill-opacity:1;fill-rule:nonzero;stroke:none"
         d="m 12848.2,9486.4 c 0,0 -74.4,122.7 -163.1,163 -88.6,40.3 -161.2,99.5 -161.2,99.5 l 77.9,16.1 c 0,0 16.1,150.5 51.1,185.4 34.9,35 125.8,45.7 143.5,26.9 17.8,-18.8 -52.1,-56.4 -52.1,-56.4 l 32.2,-61.8 c 0,0 172,-10.8 182.8,-20.2 h 139.7 c 0,0 48.4,-65.9 56.5,-143.8 8,-77.9 26,-208.7 26,-208.7 0,0 -163.1,-151.4 -181.9,-140.7 -18.8,10.8 -151.4,140.7 -151.4,140.7" /><path
         id="path66"
         style="fill:#fbc398;fill-opacity:1;fill-rule:nonzero;stroke:none"
         d="m 12534.6,9963 c -1.8,7.1 12.6,62.7 34.1,80.6 21.5,17.9 80.6,0 80.6,0 0,0 53.8,41.2 84.2,37.6 30.5,-3.5 30.5,-3.5 30.5,-3.5 0,0 87.8,21.5 116.4,16.1 28.7,-5.4 98.6,-109.3 96.8,-130.8 -1.8,-21.5 -52,-10.8 -52,-10.8 0,0 -10.7,-44.8 -39.4,-44.8 -28.6,0 -43,14.4 -43,14.4 0,0 3.6,-36.8 -35.8,-41.2 -39.4,-4.5 -93.2,41.2 -93.2,41.2 0,0 -22.7,52.1 -31.3,47.9 -8.5,-4.1 -147.9,-6.7 -147.9,-6.7" /><path
         id="path68"
         style="fill:#fbc398;fill-opacity:1;fill-rule:nonzero;stroke:none"
         d="m 11020.6,9726.5 c -2.9,-10.4 231.1,0 231.1,0 0,0 60.9,-75.3 91.4,-87.8 30.5,-12.6 55.5,19.7 55.5,19.7 0,0 35.9,-34.5 84.3,-22.6 48.3,11.8 75.2,11.8 77,44.1 1.8,32.2 -17.9,116.4 -26.9,125.4 -8.9,9 -43,55.5 -69.8,60.9 -26.9,5.4 -53.8,-12.5 -53.8,-12.5 0,0 -34,18.1 -78.8,13.5 -44.8,-4.6 -82.5,-28.3 -82.5,-28.3 0,0 -204.2,-28.2 -227.5,-112.4" /><path
         id="path70"
         style="fill:#dbe0da;fill-opacity:1;fill-rule:nonzero;stroke:none"
         d="m 7028.8,8949.2 c 6.42,-72.1 -17.13,-133.1 -52.62,-136.2 -35.48,-3.2 -69.45,52.7 -75.87,124.7 -6.42,72.1 17.14,133.1 52.62,136.2 35.48,3.2 69.45,-52.7 75.87,-124.7" /><path
         id="path72"
         style="fill:#2a5b9a;fill-opacity:1;fill-rule:nonzero;stroke:none"
         d="m 9539.46,9427 c -94.83,477.2 -393.57,820 -667.26,765.6 l -229.15,-46.8 12.68,-105.9 c -124.67,-177.2 -172.41,-482.6 -107.39,-809.8 63.19,-318.1 216.96,-576.3 393.52,-697.2 l 50.52,-145.1 233.47,78.9 c 267.04,63 407.25,489.1 313.61,960.3" /><path
         id="path74"
         style="fill:#3970c0;fill-opacity:1;fill-rule:nonzero;stroke:none"
         d="m 9321.84,9366.9 c 96.47,-485.4 -51.03,-923.8 -329.46,-979.1 -278.42,-55.4 -582.32,293.3 -678.79,778.8 -96.47,485.5 51.04,923.8 329.46,979.2 278.42,55.3 582.33,-293.4 678.79,-778.9" /><path
         id="path76"
         style="fill:#dededa;fill-opacity:1;fill-rule:nonzero;stroke:none"
         d="m 8933.84,9269.8 c 12.98,-107.3 -48.42,-203 -137.13,-213.7 -88.7,-10.8 -171.13,67.5 -184.1,174.8 -12.97,107.3 48.43,203 137.13,213.7 88.71,10.8 171.13,-67.5 184.1,-174.8" /><path
         id="path78"
         style="fill:#2a5b9a;fill-opacity:1;fill-rule:nonzero;stroke:none"
         d="m 14880.4,10250.1 c -53,372.1 -268.9,649.1 -482.3,618.8 l -178.7,-26.4 5.3,-82.2 c -103.7,-131.4 -153.5,-365 -117.2,-620.1 35.3,-248 142.9,-453.8 274,-554.5 l 32.8,-114.1 183.4,51.1 c 208.7,37.2 334.9,359.9 282.7,727.4" /><path
         id="path80"
         style="fill:#3970c0;fill-opacity:1;fill-rule:nonzero;stroke:none"
         d="m 14709.9,10212.9 c 53.9,-378.5 -78.5,-710.4 -295.6,-741.3 -217.1,-30.8 -436.7,251 -490.6,629.6 -53.8,378.5 78.6,710.4 295.7,741.3 217.1,30.9 436.7,-251 490.5,-629.6" /><path
         id="path82"
         style="fill:#dededa;fill-opacity:1;fill-rule:nonzero;stroke:none"
         d="m 14406.5,10154.4 c 5.5,-83.3 -45.9,-154.5 -114.8,-159 -68.9,-4.5 -129.1,59.4 -134.6,142.7 -5.4,83.3 46,154.5 114.9,159 68.8,4.5 129.1,-59.3 134.5,-142.7" /><path
         id="path84"
         style="fill:#bcbbb9;fill-opacity:1;fill-rule:nonzero;stroke:none"
         d="m 8758.86,9355.2 c 0,0 88.29,-87.4 50.67,-221.8 l -552.06,-102.8 -44.14,239.5 545.53,85.1" /><path
         id="path86"
         style="fill:#bcbbb9;fill-opacity:1;fill-rule:nonzero;stroke:none"
         d="m 14268.6,10214 c 0,0 53.6,-44.9 32,-156.9 l -507.9,-86.3 v 169 l 475.9,74.2" /><path
         id="path88"
         style="fill:#100f0d;fill-opacity:1;fill-rule:nonzero;stroke:none"
         d="m 13830.1,6719.9 c -27.4,1 720.3,-231.2 862.7,-346.7 l 303.7,-325.3 170,-408.8 110.2,-35.2 c 0,0 76,255.9 0,438.7 -75.9,182.7 -339.3,327.9 -468.3,408.5 -129,80.6 -129,80.6 -129,80.6 0,0 -564.4,177.4 -849.3,188.2" /><path
         id="path90"
         style="fill:#fbc398;fill-opacity:1;fill-rule:nonzero;stroke:none"
         d="m 14139.9,5603.9 243.9,-158 c 0,0 -139.8,-295.6 -147.9,-559 -8,-263.4 24.2,-811.7 24.2,-1064.4 0,-252.6 -26.9,-494.5 -24.2,-489.1 2.7,5.4 72.6,-59.3 147.9,-0.1 75.2,59.2 112.8,156 145.1,182.9 32.2,26.8 145.1,64.5 145.1,64.5 0,0 21.5,553.6 182.8,833.1 161.2,279.6 193.5,758 209.6,854.7 16.1,96.8 164.9,494.5 96.8,682.7 -68.1,188.1 -470.4,422 -470.4,422 0,0 -407.8,-79.1 -552.9,-769.3" /><g
         transform="scale(1.00876)"
         id="g92"><path
           id="path94"
           style="fill:#f5f6f5;fill-opacity:1;fill-rule:nonzero;stroke:none"
           d="m 15741.8,4901.86 c -12,-294.62 -44.2,-611.64 -44.2,-611.64 0,0 0,-239.81 197.1,-202.43 197.2,37.27 245.1,277.07 245.1,277.07 0,0 73.8,238.81 160.2,529.86 -191.9,-0.7 -407.8,4.26 -558.2,7.14" /></g><path
         id="path96"
         style="fill:#f5f6f5;fill-opacity:1;fill-rule:nonzero;stroke:none"
         d="m 14249.9,4214.3 c 5.4,-152.4 10.2,-294.2 10.2,-391.7 0,-252.7 -26.9,-494.6 -24.2,-489.2 2.7,5.4 72.6,-59.3 147.9,-0.1 75.2,59.2 112.8,156 145.1,182.9 32.2,26.8 145.1,64.5 145.1,64.5 0,0 11.6,298.2 81.5,567.4 -190,11.2 -387.2,43.8 -505.6,66.2" /><g
         transform="scale(1.0166)"
         id="g98"><path
           id="path100"
           style="fill:#e7ab83;fill-opacity:1;fill-rule:nonzero;stroke:none"
           d="m 8555.05,16300 17.62,-128.7 299.63,-419.4 -363.08,-47.6 c 0,0 -310.18,137.4 -326.07,232.6 -15.88,95.3 58.16,267.9 58.16,267.9 l 44.07,37 269.67,58.2" /></g><path
         id="path102"
         style="fill:#e7ab83;fill-opacity:1;fill-rule:nonzero;stroke:none"
         d="m 6989.37,15629.9 h -482.94 v 271.8 h 482.94 v -271.8" /><path
         id="path104"
         style="fill:#3871c1;fill-opacity:1;fill-rule:nonzero;stroke:none"
         d="m 11609.9,13121.9 c -5.3,0 -96.7,-21.5 -198.9,-102.1 -102.1,-80.6 -198.8,-489.2 -198.8,-521.4 0,-32.3 295.6,-182.8 424.6,-172 129,10.7 102.1,20.4 182.8,-0.6 80.6,-20.9 354.7,-219.8 666.5,-214.5 311.8,5.4 419.3,155.9 419.3,263.4 0,107.5 -443.2,274.2 -541.4,349.4 -98.3,75.3 -305.2,279.6 -305.2,279.6 0,0 -158.6,177.3 -190.9,182.7 -32.2,5.4 -258,-64.5 -258,-64.5" /><path
         id="path106"
         style="fill:#3871c1;fill-opacity:1;fill-rule:nonzero;stroke:none"
         d="m 10008.1,12315.6 c 0,0 -182.78,-43 -220.41,-134.4 -37.63,-91.4 -209.64,-467.6 -188.13,-532.1 21.49,-64.5 231.43,-145.2 319.98,-231.2 88.56,-86 335.76,-392.4 583.06,-473 247.3,-80.6 489.2,53.8 473,198.9 -16.1,145.1 -188.1,317.1 -274.1,424.6 -86,107.5 -284.9,435.4 -284.9,451.6 0,16.1 10.8,177.4 -118.3,215 -129,37.6 -290.2,80.6 -290.2,80.6" /><path
         id="path108"
         style="fill:#ececec;fill-opacity:1;fill-rule:nonzero;stroke:none"
         d="m 6734.5,14954.3 -48.37,-1359.4 -134.39,-99.9 26.88,1605 155.88,-145.7" /><path
         id="path110"
         style="fill:#bebdbb;fill-opacity:1;fill-rule:nonzero;stroke:none"
         d="m 6223.84,15100 v -1494.3 l 327.9,-110.7 26.88,1605 h -354.78" /><path
         id="path112"
         style="fill:#ececec;fill-opacity:1;fill-rule:nonzero;stroke:none"
         d="m 10194.2,13922.1 -48.3,-1359.4 -134.4,-100 26.9,1605.1 155.8,-145.7" /><path
         id="path114"
         style="fill:#bebdbb;fill-opacity:1;fill-rule:nonzero;stroke:none"
         d="m 9683.59,14067.8 v -1494.4 l 327.91,-110.7 26.9,1605.1 h -354.81" /><path
         id="path116"
         style="fill:#494b4b;fill-opacity:1;fill-rule:nonzero;stroke:none"
         d="m 5826.07,15494.9 c 0,0 24.19,-298.1 32.25,-322.3 8.07,-24.2 4261.68,-1459.4 4261.68,-1459.4 l 503.6,32.2 697.9,446.2 11.6,494.6 c 0,0 -4910.37,1003.3 -4924.7,1003.3 -14.34,0 -582.33,-194.6 -582.33,-194.6" /><path
         id="path118"
         style="fill:#717575;fill-opacity:1;fill-rule:nonzero;stroke:none"
         d="m 10639,14828 -254.6,-889 -4527.87,1555.9 c 0,0 -7.26,1.7 -18.11,4.2 -7.93,-2.7 -12.35,-4.2 -12.35,-4.2 0,0 24.19,-298.1 32.26,-322.3 8.06,-24.2 4261.67,-1459.4 4261.67,-1459.4 l 503.6,32.2 697.9,446.2 11.6,494.6 c 0,0 -274.6,56.2 -694.1,141.8" /><path
         id="path120"
         style="fill:#100f0d;fill-opacity:1;fill-rule:nonzero;stroke:none"
         d="m 9685.56,14062.6 155.89,-236.5 c 0,0 247.25,-68.4 284.85,-2 37.7,66.5 37.7,512.6 37.7,512.6 0,0 -456.94,139.8 -478.44,129 -21.5,-10.7 -86,-207.5 -86,-207.5 l 86,-195.6" /><path
         id="path122"
         style="fill:#100f0d;fill-opacity:1;fill-rule:nonzero;stroke:none"
         d="m 11110,14191.6 c 0,0 161.3,80.6 284.9,204.3 123.7,123.6 215,420.3 215,420.3 l -456.9,47.3 c 0,0 -112.9,0 -112.9,-215 0,-215 -16.1,-258 0,-274.1 16.2,-16.2 69.9,-182.8 69.9,-182.8" /><g
         transform="scale(1.00777)"
         id="g124"><path
           id="path126"
           style="fill:#252323;fill-opacity:1;fill-rule:nonzero;stroke:none"
           d="m 6493.06,16162.4 c 0,0 69.24,39.4 47.86,60.3 -21.36,20.9 -109.18,76 -141.18,76.7 -31.99,0.6 -185.51,-28.4 -250.55,-80.4 -65.05,-52.1 -125.24,-218.1 -133.06,-253.5 -7.81,-35.4 -8.76,-263 -5.77,-291.5 2.99,-28.5 95.39,-211.7 162.38,-241.5 66.99,-29.8 321.91,-38.4 321.91,-38.4 0,0 222.13,213.9 218.08,316.3 -4.07,102.5 -104.56,158 -124.42,233.1 -19.85,75.1 -95.25,218.9 -95.25,218.9" /></g><g
         transform="scale(1.00382)"
         id="g128"><path
           id="path130"
           style="fill:#e7ab83;fill-opacity:1;fill-rule:nonzero;stroke:none"
           d="m 6980.64,16179.7 c -2.46,10.8 -76.3,68.1 -76.3,68.1 0,0 -31.32,41.2 -47.35,43.2 -16.04,2.1 -198.21,-17.9 -198.21,-17.9 -10.64,3.8 -135.54,26.9 -206.99,24.8 0,0 -109.29,-129.2 -106.44,-165 2.88,-35.7 149.95,-181.5 163.59,-213.9 13.64,-32.4 -1.62,-82.1 -1.62,-82.1 0,0 -56.76,19 -96.86,-23 -40.11,-42.1 42.33,-125.8 99.81,-148.4 37.92,-14.9 94.66,-3.7 140.05,51.5 v 0 l 208.5,79.2 64.19,41.9 c 0,0 68.18,232.2 72.75,233.8 4.58,1.7 -12.65,97 -15.12,107.8" /></g><path
         id="path132"
         style="fill:#fbc398;fill-opacity:1;fill-rule:nonzero;stroke:none"
         d="m 11217.5,14648.5 c 16.2,5.4 365.9,-43 365.9,-43 0,0 -107.9,-344 -81,-639.7 26.9,-295.6 -43,-983.6 -43,-983.6 0,0 0,-241.9 198.9,-204.3 198.9,37.6 247.3,279.5 247.3,279.5 0,0 381.6,1236.3 430,1521.2 48.4,284.9 43,526.8 -80.6,650.4 -123.7,123.7 -671.9,265.9 -671.9,265.9 0,0 -451.6,-131.5 -456.9,-282 -5.4,-150.5 26.8,-349.4 26.8,-349.4 l 64.5,-215" /><path
         id="path134"
         style="fill:#252323;fill-opacity:1;fill-rule:nonzero;stroke:none"
         d="m 8615.87,14605.5 c 0,0 564.41,-303.7 604.73,-368.2 40.31,-64.5 620.85,-443.5 620.85,-411.2 0,32.2 -177.39,378.9 0,701.5 177.35,322.5 475.75,499.9 475.75,499.9 l 421.9,-717.6 370.9,-118.3 c 0,0 -10.7,247.3 161.3,413.9 172,166.6 112.9,462.3 188.1,612.8 75.3,150.5 129,252.1 123.7,276.6 -5.4,24.4 -655.8,105 -930,158.8 -274.1,53.7 -1053.54,102.1 -1053.54,102.1 0,0 -548.29,112.9 -720.3,37.6 -172.01,-75.2 -602.04,-204.2 -618.16,-370.8 -16.13,-166.7 0,-247.3 96.75,-392.4 96.76,-145.2 258.02,-424.7 258.02,-424.7" /><g
         transform="scale(1.00569)"
         id="g136"><path
           id="path138"
           style="fill:#3871c1;fill-opacity:1;fill-rule:nonzero;stroke:none"
           d="m 7230.91,14993.3 v -123.6 c 0,0 336.73,-10.1 566.56,-79.6 229.83,-69.4 769.67,-267.2 769.67,-267.2 0,0 -48.1,411.6 32.07,646.7 80.17,235.2 416.91,389.7 539.84,411.3 122.93,21.7 406.22,85.8 406.22,85.8 0,0 -650.3,318.9 -778.58,379.5 -128.28,60.6 -272.59,189.7 -378.6,221.3 -106.02,31.7 -697.52,32.5 -850.74,0 -153.22,-32.4 -655.65,-232 -655.65,-232 0,0 -128.27,-352.8 -128.27,-404.4 0,-51.7 399.09,-561.2 409.78,-571.9 10.69,-10.7 67.7,-65.9 67.7,-65.9" /></g><g
         transform="scale(1.06647)"
         id="g140"><path
           id="path142"
           style="fill:#bcbbb9;fill-opacity:1;fill-rule:nonzero;stroke:none"
           d="m 2590.26,13970.8 c 0,0 -40.15,-185.4 52.5,-240.1 l 7604.74,2432.9 c 0,0 55.1,89.3 -19.4,136.4 L 2590.26,13970.8" /></g><path
         id="path144"
         style="fill:#dbe0da;fill-opacity:1;fill-rule:nonzero;stroke:none"
         d="m 2851.32,14785.6 c 16.51,-70.4 1.77,-134.1 -32.91,-142.2 -34.69,-8.1 -76.19,42.4 -92.7,112.8 -16.51,70.4 -1.77,134.1 32.91,142.2 34.69,8.2 76.18,-42.3 92.7,-112.8" /><g
         transform="scale(1.00422)"
         id="g146"><path
           id="path148"
           style="fill:#2a5b9a;fill-opacity:1;fill-rule:nonzero;stroke:none"
           d="M 5247.43,15546.8 C 5087,16004 4744.38,16300 4482.2,16208 l -219.35,-78.3 27.36,-102.6 c -98.04,-192.2 -102.26,-500 7.75,-813.5 106.93,-304.7 294.76,-537.7 485.78,-632.1 l 70.16,-136 219.1,110.6 c 254.42,99.6 332.87,539.3 174.43,990.7" /></g><path
         id="path150"
         style="fill:#3970c0;fill-opacity:1;fill-rule:nonzero;stroke:none"
         d="m 5062.61,15522.3 c 163.9,-467 79.64,-921.8 -188.21,-1015.8 -267.84,-94 -617.85,208.4 -781.75,675.4 -163.91,467 -79.65,921.9 188.2,1015.9 267.85,94 617.86,-208.4 781.76,-675.5" /><path
         id="path152"
         style="fill:#dededa;fill-opacity:1;fill-rule:nonzero;stroke:none"
         d="m 4692.18,15371.5 c 27.96,-104.4 -19.34,-207.8 -105.66,-230.9 -86.31,-23.1 -178.94,42.8 -206.9,147.2 -27.96,104.4 19.34,207.7 105.65,230.8 86.31,23.2 178.95,-42.7 206.91,-147.1" /><g
         transform="scale(1.09108)"
         id="g154"><path
           id="path156"
           style="fill:#2a5b9a;fill-opacity:1;fill-rule:nonzero;stroke:none"
           d="m 9569.56,15745.7 c -96.04,330.8 -327.74,554.3 -517.44,499.2 l -158.76,-47 15.4,-73.9 c -77.09,-132.6 -92.11,-351 -26.23,-577.9 64.01,-220.4 188.26,-393.2 320.15,-467.6 l 44.54,-99.3 159.85,69.9 c 184.49,60.8 257.35,369.9 162.49,696.6" /></g><g
         transform="scale(1.088)"
         id="g158"><path
           id="path160"
           style="fill:#3970c0;fill-opacity:1;fill-rule:nonzero;stroke:none"
           d="m 9446.52,15734.5 c 97.97,-337.5 20.49,-656.7 -173.07,-712.9 -193.55,-56.2 -429.9,171.9 -527.9,509.3 -97.99,337.5 -20.53,656.7 173.02,712.9 193.55,56.2 429.88,-171.8 527.95,-509.3" /></g><g
         transform="scale(1.05245)"
         id="g162"><path
           id="path164"
           style="fill:#dededa;fill-opacity:1;fill-rule:nonzero;stroke:none"
           d="m 9488,16170.3 c 16.32,-77.6 -22.55,-151.5 -86.74,-164.9 -64.18,-13.5 -129.42,38.5 -145.7,116.2 -16.29,77.6 22.54,151.5 86.74,164.9 64.18,13.5 129.42,-38.5 145.7,-116.2" /></g><path
         id="path166"
         style="fill:#bcbbb9;fill-opacity:1;fill-rule:nonzero;stroke:none"
         d="m 4506.91,15431.3 c 0,0 99.72,-74 81.41,-212.4 l -532.07,-179.5 -77.44,230.9 528.1,161" /><g
         transform="scale(1.0465)"
         id="g168"><path
           id="path170"
           style="fill:#bcbbb9;fill-opacity:1;fill-rule:nonzero;stroke:none"
           d="m 9403.39,16300 c 0,0 56.8,-35.2 51.41,-144.1 l -468.89,-150 -22.76,159.8 440.24,134.3" /></g><path
         id="path172"
         style="fill:#100f0d;fill-opacity:1;fill-rule:nonzero;stroke:none"
         d="m 9454.42,15374.2 c -27.39,1 720.28,-231.2 862.78,-346.7 l 303.7,-325.2 169.9,-408.9 110.3,-35.2 c 0,0 75.9,255.9 0,438.7 -76,182.7 -339.4,327.9 -468.4,408.5 -129,80.6 -129,80.6 -129,80.6 0,0 -564.38,177.4 -849.28,188.2" /><path
         id="path174"
         style="fill:#fbc398;fill-opacity:1;fill-rule:nonzero;stroke:none"
         d="m 9764.2,14258.2 243.9,-158 c 0,0 -139.78,-295.6 -147.84,-559 -8.06,-263.4 24.19,-811.7 24.19,-1064.3 0,-252.7 -26.88,-494.6 -24.19,-489.2 2.68,5.4 72.57,-59.3 147.84,-0.1 75.2,59.2 112.9,156 145.1,182.9 32.3,26.9 145.1,64.5 145.1,64.5 0,0 21.6,553.6 182.8,833.2 161.3,279.5 193.5,757.9 209.7,854.6 16.1,96.8 164.8,494.6 96.7,682.7 -68.1,188.1 -470.3,422 -470.3,422 0,0 -407.86,-79.1 -553,-769.3" /><path
         id="path176"
         style="fill:#f5f6f5;fill-opacity:1;fill-rule:nonzero;stroke:none"
         d="m 11504,13599.1 c -12.1,-297.2 -44.6,-616.9 -44.6,-616.9 0,0 0,-241.9 198.9,-204.3 198.9,37.6 247.3,279.5 247.3,279.5 0,0 74.3,240.9 161.6,534.5 -193.7,-0.6 -411.5,4.3 -563.2,7.2" /><path
         id="path178"
         style="fill:#f5f6f5;fill-opacity:1;fill-rule:nonzero;stroke:none"
         d="m 9874.19,12868.6 c 5.44,-152.4 10.26,-294.1 10.26,-391.7 0,-252.7 -26.88,-494.6 -24.19,-489.2 2.68,5.4 72.57,-59.3 147.84,-0.1 75.2,59.2 112.9,156 145.1,182.9 32.3,26.9 145.1,64.5 145.1,64.5 0,0 11.6,298.2 81.6,567.4 -190.1,11.2 -387.23,43.9 -505.71,66.2" /><path
         id="path180"
         style="fill:#e7ab83;fill-opacity:1;fill-rule:nonzero;stroke:none"
         d="m 6791.84,15720 c 0,0 -151.76,36.9 -285.23,-49.9 -133.47,-86.7 -129.88,-520.4 -129.88,-520.4 0,0 609.2,-143.3 619.95,-154.1 10.76,-10.7 275.36,-41.3 275.36,-41.3 0,0 215.59,-19.6 283.68,209.8 68.08,229.3 -189.93,511 -394.19,563.7 -204.26,52.6 -369.69,-7.8 -369.69,-7.8" /><path
         id="path182"
         style="fill:#fbc398;fill-opacity:1;fill-rule:nonzero;stroke:none"
         d="m 6682.33,15363.2 c -8.18,-12.8 -230.35,-141.8 -305.6,-213.5 -75.26,-71.6 -106.46,-268.7 -65.77,-387 40.69,-118.2 40.69,-118.2 40.69,-118.2 0,0 90.37,-240.1 270.95,-247.3 180.57,-7.2 372.68,218.2 406.34,401.4 33.65,183.1 75.25,795.5 75.25,795.5 l -252.83,20.6 c 0,0 -112.28,-162.6 -169.03,-251.5" /><g
         transform="scale(1.00352)"
         id="g184"><path
           id="path186"
           style="fill:#fbc398;fill-opacity:1;fill-rule:nonzero;stroke:none"
           d="m 6936.42,15407.1 142.84,132.3 c 0,0 95.52,236.6 170.51,335.6 75,99.1 96.93,312.9 80.61,368.1 -16.33,55.1 -187.75,56.9 -194.44,42.6 -6.69,-14.3 10.5,-58.9 48.67,-75 38.15,-16.1 48.2,-50 48.2,-50 0,0 -62.49,-41 -116.05,-94.6 -53.56,-53.6 -62.49,-108.9 -62.49,-108.9 l -244.77,-85.2 17.82,-312.1 109.1,-152.8" /></g><g
         transform="scale(1.00561)"
         id="g188"><path
           id="path190"
           style="fill:#fbc398;fill-opacity:1;fill-rule:nonzero;stroke:none"
           d="m 6690.96,16019 c 2.48,0.8 -21.93,127.8 19.05,154.5 40.98,26.8 156.5,23.7 156.5,23.7 0,0 9.21,45.8 35.94,47.6 26.72,1.8 39.2,0 39.2,0 0,0 30.28,30.3 65.92,32.1 35.64,1.8 50.25,-8 50.25,-8 0,0 44.19,31.1 74.48,24 30.28,-7.1 82.29,-99 82.53,-114.1 0.24,-15.1 -50.46,-42.7 -52.25,-49.8 -1.77,-7.1 -21.37,-41 -49.88,-49.9 -28.51,-8.9 -48.11,3.6 -48.11,3.6 0,0 -21.38,-32.1 -57.02,-33.9 -35.64,-1.7 -83.66,41.3 -83.66,41.3 l -232.95,-71.1" /></g><g
         transform="scale(1.0011)"
         id="g192"><path
           id="path194"
           style="fill:#dba47d;fill-opacity:1;fill-rule:nonzero;stroke:none"
           d="m 6955.06,16162.5 c 0,0 19.98,37 9.05,66.7 -10.93,29.6 -66.72,40.9 -66.72,40.9 l 11.68,29.9 c 0,0 56.35,-25.1 72.6,-60.8 16.25,-35.9 -26.61,-76.7 -26.61,-76.7" /></g><g
         transform="scale(1.00369)"
         id="g196"><path
           id="path198"
           style="fill:#dba47d;fill-opacity:1;fill-rule:nonzero;stroke:none"
           d="m 6954.9,16275.8 c 0,0 87.51,-26.7 116.39,-66 28.88,-39.3 6.78,-96.4 6.78,-96.4 0,0 42.84,58.9 23.22,99.9 -19.65,41.1 -121.41,86.7 -121.41,86.7 l -24.98,-24.2" /></g><g
         transform="scale(1.00483)"
         id="g200"><path
           id="path202"
           style="fill:#dba47d;fill-opacity:1;fill-rule:nonzero;stroke:none"
           d="m 7063.26,16281.5 c 0,0 78.09,-43.8 104.84,-140.1 0,0 13.86,72.9 -69.75,158.6 l -35.09,-18.5" /></g><g
         transform="scale(1.02867)"
         id="g204"><path
           id="path206"
           style="fill:#e7ab83;fill-opacity:1;fill-rule:nonzero;stroke:none"
           d="m 7871.56,16065.6 c 0,0 20.5,154.6 60.57,175.5 40.06,20.9 60.96,0 60.96,0 0,0 17.42,45.3 52.26,50.5 34.83,5.3 69.67,-20.8 69.67,-20.8 0,0 41.81,29.2 69.67,21.6 27.87,-7.7 81.87,-100 69.68,-126.2 -12.19,-26.1 -43.55,-19.1 -43.55,-19.1 0,0 -19.16,-40.1 -43.54,-34.9 -24.39,5.3 -62.72,10.5 -80.14,7 -17.41,-3.5 -83.77,-13.4 -83.77,-13.4 l -131.81,-40.2" /></g><g
         transform="scale(1.02609)"
         id="g208"><path
           id="path210"
           style="fill:#cb936c;fill-opacity:1;fill-rule:nonzero;stroke:none"
           d="m 8013.21,16282 c 0,0 40.1,-22.7 66.76,-45 26.66,-22.2 25.32,-52.3 25.32,-52.3 l 32.73,-3.4 20.51,6.2 c 0,0 -24.4,46.9 -38.8,60 -14.41,13.1 -97.07,52.5 -97.07,52.5 l -9.45,-18" /></g><g
         transform="scale(1.02745)"
         id="g212"><path
           id="path214"
           style="fill:#cb936c;fill-opacity:1;fill-rule:nonzero;stroke:none"
           d="m 8124.69,16290.2 c 0,0 36.62,-23.6 57.55,-48.5 20.93,-24.8 38.36,-75.4 38.36,-75.4 h 18.28 c 0,0 -14.79,53.2 -30.48,76.8 -15.7,23.5 -67.07,56.9 -67.07,56.9 l -16.64,-9.8" /></g><g
         transform="scale(1.02708)"
         id="g216"><path
           id="path218"
           style="fill:#e7ab83;fill-opacity:1;fill-rule:nonzero;stroke:none"
           d="m 8227.07,16291.9 c 0,0 17.47,8.1 41.87,0 24.41,-8.1 41.85,-73.8 31.38,-87.2 -10.47,-13.4 -34.37,-29.9 -33.14,-13.4 1.22,16.6 -40.11,100.6 -40.11,100.6" /></g><g
         transform="scale(1.02045)"
         id="g220"><path
           id="path222"
           style="fill:#e7ab83;fill-opacity:1;fill-rule:nonzero;stroke:none"
           d="m 8217.78,16041.2 c -0.01,17 -0.58,35.6 -2.27,53.4 -5.15,53.8 -61.45,108.8 -61.45,108.8 0,0 52.67,22.9 54.43,43.9 1.75,21.1 -86.04,52.7 -128.18,31.6 -33.18,-16.6 -44.39,-163.8 -47.67,-225.6 74.49,-2.4 139.9,-6.5 185.14,-12.1" /></g></g></g></svg>