<?xml version="1.0" encoding="UTF-8" standalone="no"?>
<svg
   xmlns:dc="http://purl.org/dc/elements/1.1/"
   xmlns:cc="http://creativecommons.org/ns#"
   xmlns:rdf="http://www.w3.org/1999/02/22-rdf-syntax-ns#"
   xmlns:svg="http://www.w3.org/2000/svg"
   xmlns="http://www.w3.org/2000/svg"
   viewBox="0 0 2666.6667 2666.6667"
   height="2666.6667"
   width="2666.6667"
   xml:space="preserve"
   id="svg2"
   version="1.1"><metadata
     id="metadata8"><rdf:RDF><cc:Work
         rdf:about=""><dc:format>image/svg+xml</dc:format><dc:type
           rdf:resource="http://purl.org/dc/dcmitype/StillImage" /></cc:Work></rdf:RDF></metadata><defs
     id="defs6" /><g
     transform="matrix(1.3333333,0,0,-1.3333333,0,2666.6667)"
     id="g10"><g
       transform="scale(0.1)"
       id="g12"><g
         transform="scale(1.22699)"
         id="g14"><path
           id="path16"
           style="fill:none;fill-opacity:1;fill-rule:nonzero;stroke:none"
           d="M 16300,0 H 0 V 16300 H 16300 V 0" /></g><g
         transform="scale(1.12538)"
         id="g18"><path
           id="path20"
           style="fill:#5e6061;fill-opacity:1;fill-rule:nonzero;stroke:none"
           d="m 16022.7,7916.44 c 0,0 -27,-74.47 -18.3,-152.22 l 295.6,-28.88 -12.5,175.23 -264.8,5.87" /></g><g
         transform="scale(1.12482)"
         id="g22"><path
           id="path24"
           style="fill:#5e6061;fill-opacity:1;fill-rule:nonzero;stroke:none"
           d="m 16268.7,7982.29 c -3.4,-3.21 -97.3,-9.08 -126.2,-36.46 -28.9,-27.29 -30.9,-249.99 -9.6,-276.04 21.1,-25.96 164.2,-37.78 165.7,-31.92 1.4,5.96 -29.9,344.42 -29.9,344.42" /></g><g
         transform="scale(1.12391)"
         id="g26"><path
           id="path28"
           style="fill:#797a7b;fill-opacity:1;fill-rule:nonzero;stroke:none"
           d="m 16276.9,8075.26 c 0,0 -57.9,1.34 -68,-17.44 -10.1,-18.77 -10.1,-427.61 0,-453.24 10.1,-25.53 88.3,-42.88 89.7,-38.52 1.4,4.36 -21.7,509.2 -21.7,509.2" /></g><g
         transform="scale(1.08828)"
         id="g30"><path
           id="path32"
           style="fill:#797a7b;fill-opacity:1;fill-rule:nonzero;stroke:none"
           d="m 16041.2,8431.18 c 0,0 14,-318.67 0,-426.18 -14.1,-107.6 -70.9,-253.98 -70.9,-253.98 0,0 257.1,-47.78 266,-35.83 8.9,11.94 45.1,184.6 54.4,275.02 9.3,90.41 0,395.21 0,395.21 l -249.5,45.76" /></g><path
         id="path34"
         style="fill:#100f0d;fill-opacity:1;fill-rule:nonzero;stroke:none"
         d="m 14802,13188.6 379.3,436.8 c 0,0 54.2,82.3 199.4,84.5 145.3,2.2 802,-114.9 828,-140.9 26,-26 26,-138.7 -23.8,-143.1 -49.9,-4.3 -704.5,125.8 -823.7,114.9 -119.2,-10.8 -509,-554.7 -509,-554.7 0,0 -130.4,108.5 -128.2,128.9 2.2,20.5 78,73.6 78,73.6" /><g
         transform="scale(1.01807)"
         id="g36"><path
           id="path38"
           style="fill:#100f0d;fill-opacity:1;fill-rule:nonzero;stroke:none"
           d="m 14865.4,12679.8 c 14.6,-3.1 578.8,-16 700.2,0 121.3,16.1 570.5,599.4 619.5,603.7 48.9,4.2 114.9,-36.2 102.1,-91.6 -12.7,-55.3 -462.5,-579.1 -571.8,-632.3 -109.5,-53.2 -469.3,-51.1 -822.7,-55.3 -353.4,-4.3 -27.3,175.5 -27.3,175.5" /></g><g
         transform="scale(1.03097)"
         id="g40"><path
           id="path42"
           style="fill:#343434;fill-opacity:1;fill-rule:nonzero;stroke:none"
           d="m 15372.8,12637.9 c 0,0 -94.6,-31.5 -81.9,-148.2 0,0 744.2,-309.1 788.3,-406.8 44.2,-97.8 -19.6,-790.4 -19.6,-790.4 h 180.5 c 0,0 59.9,680 34.7,771.5 -25.2,91.4 -50.6,160.8 -141.9,223.9 -91.5,63 -760.1,350 -760.1,350" /></g><path
         id="path44"
         style="fill:#adadab;fill-opacity:1;fill-rule:nonzero;stroke:none"
         d="m 14704.5,13162.6 97.5,26 169.1,-299.1 -364.1,-22.8 c 0,0 6.5,22.8 -6.5,61.8 -13.1,39 104,234.1 104,234.1" /><path
         id="path46"
         style="fill:#343434;fill-opacity:1;fill-rule:nonzero;stroke:none"
         d="m 14545.2,13074.8 c 0,9.8 123.5,159.3 123.5,159.3 l 133.3,-45.5 -201.5,-260.1 -55.3,146.3" /><path
         id="path48"
         style="fill:#48484a;fill-opacity:1;fill-rule:nonzero;stroke:none"
         d="m 14954.8,10997.3 h 380.4 V 12006 h -380.4 v -1008.7" /><path
         id="path50"
         style="fill:#343434;fill-opacity:1;fill-rule:nonzero;stroke:none"
         d="m 14421.6,13013 c 0,0 718.5,-87.7 803.1,-152.8 84.5,-65 -104.1,-2035.2 -149.6,-2035.2 -45.5,0 -637.2,-143.1 -702.2,117 -65.1,260.1 -188.6,1255 -169.1,1365.5 19.5,110.6 217.8,705.5 217.8,705.5" /><g
         transform="scale(1.19047)"
         id="g52"><path
           id="path54"
           style="fill:#343434;fill-opacity:1;fill-rule:nonzero;stroke:none"
           d="m 15941.3,6254.57 c -9.1,-1.84 -192.9,-131.12 -192.9,-131.12 v -65.52 l 192.9,-56.45 358.7,253.09 v 60.07 l -222.1,40.07 -136.6,-100.14" /></g><g
         transform="scale(1.18329)"
         id="g56"><path
           id="path58"
           style="fill:#797a7b;fill-opacity:1;fill-rule:nonzero;stroke:none"
           d="m 16202,6213.75 98,53.08 -10.1,249.13 h -151.1 c 0,0 -49.5,64.14 -18.3,-34.82 31.1,-98.87 81.5,-267.39 81.5,-267.39" /></g><g
         transform="scale(1.18256)"
         id="g60"><path
           id="path62"
           style="fill:#9d9d9c;fill-opacity:1;fill-rule:nonzero;stroke:none"
           d="m 16151.5,6423.75 60.5,60.46 88,35.77 -1102.5,272.21 -74.2,-63.25 c 0,0 2.7,-72.39 30.2,-84.31 27.5,-11.92 998,-220.88 998,-220.88" /></g><g
         transform="scale(1.17618)"
         id="g64"><path
           id="path66"
           style="fill:#c1bfbd;fill-opacity:1;fill-rule:nonzero;stroke:none"
           d="M 15069.9,6544.33 16300,6251.35 v 268.07 l -1094.6,246.05 -182.4,-84.76 46.9,-136.38" /></g><g
         transform="scale(1.13237)"
         id="g68"><path
           id="path70"
           style="fill:#343434;fill-opacity:1;fill-rule:nonzero;stroke:none"
           d="m 16300,6764.94 c 0,-26.41 -21.5,-47.78 -47.9,-47.78 -26.5,0 -47.8,21.37 -47.8,47.78 0,26.49 21.3,47.86 47.8,47.86 26.4,0 47.9,-21.37 47.9,-47.86" /></g><g
         transform="scale(1.12266)"
         id="g72"><path
           id="path74"
           style="fill:#343434;fill-opacity:1;fill-rule:nonzero;stroke:none"
           d="m 15930.3,7088.01 v -183.4 l 309.8,-15.15 59.9,71.08 v 173.79 c 0,0 -170.8,57.9 -184.8,52.11 -14,-5.79 -184.9,-98.43 -184.9,-98.43" /></g><g
         transform="scale(1.09181)"
         id="g76"><path
           id="path78"
           style="fill:#343434;fill-opacity:1;fill-rule:nonzero;stroke:none"
           d="m 16300,7228.73 -65.6,-431.85 c 0,0 -166.7,-95.26 -181.6,14.93 -14.8,110.18 -96.7,328.35 -48.4,342.82 48.4,14.48 295.6,74.1 295.6,74.1" /></g><g
         transform="scale(1.08742)"
         id="g80"><path
           id="path82"
           style="fill:#8f908f;fill-opacity:1;fill-rule:nonzero;stroke:none"
           d="m 16153.5,7114.38 146.5,-290.05 -128.6,-161.38 c 0,0 -77.7,-17.94 -128.5,77.7 -50.8,95.64 -107.6,251.15 -107.6,251.15 l 218.2,122.58" /></g><g
         transform="scale(1.07884)"
         id="g84"><path
           id="path86"
           style="fill:#797a7b;fill-opacity:1;fill-rule:nonzero;stroke:none"
           d="m 15980.6,6990.1 229,-353.72 90.4,79.54 -235.1,373.64 -84.3,-99.46" /></g><path
         id="path88"
         style="fill:#48484a;fill-opacity:1;fill-rule:nonzero;stroke:none"
         d="m 14897.6,10124.9 -35.9,-1019.8 c 0,0 30.3,-571.2 73.7,-601.5 43.3,-30.4 72.5,-165 133.8,-121.5 61.3,43.5 226.8,-20.2 284.9,185 58.1,205.3 67.4,342.6 38.9,592.6 -28.4,249.9 24.6,1042.9 24.1,1108.1 -0.5,65.1 -87.2,212.5 -228.1,108.5 -140.9,-104 -291.4,-251.4 -291.4,-251.4" /><g
         transform="scale(1.08734)"
         id="g90"><path
           id="path92"
           style="fill:#9d9d9c;fill-opacity:1;fill-rule:nonzero;stroke:none"
           d="m 14608.8,7898.24 1691.2,-407.05 -36.6,-89.94 -1805.4,370.44 150.8,126.55" /></g><g
         transform="scale(1.0771)"
         id="g94"><path
           id="path96"
           style="fill:#797a7b;fill-opacity:1;fill-rule:nonzero;stroke:none"
           d="m 14646,7892.46 1654,-356.51 -236.3,-184.39 -957.4,253.55 -165.5,-120.78 c 0,0 -599.7,102.21 -672.1,137.68 -72.4,35.37 -305.9,119.95 -334,140.01 -28.2,20.14 -164.1,20.14 -160.5,52.36 3.5,32.22 92.1,281.68 108.1,334.04 16.2,52.37 100.1,370.25 148.7,370.25 48.6,0 173.3,0 173.3,0 0,0 241.5,-217.34 277.7,-257.54 36.3,-40.29 164,-368.67 164,-368.67" /></g><path
         id="path98"
         style="fill:#797a7b;fill-opacity:1;fill-rule:nonzero;stroke:none"
         d="m 13656.3,8731.2 863,-752.1 c 0,0 403.1,88.8 377.1,114.8 -26,26.1 -377.1,370.7 -377.1,370.7 l -640.5,312.1 -222.5,-45.5" /><path
         id="path100"
         style="fill:#343434;fill-opacity:1;fill-rule:nonzero;stroke:none"
         d="m 15160.8,4892.6 -164.7,-177.8 v -95.3 l 888.7,-173.4 164.7,190.7 v 82.4 l -888.7,173.4" /><path
         id="path102"
         style="fill:#adadab;fill-opacity:1;fill-rule:nonzero;stroke:none"
         d="m 15316.9,4987.9 v -368.4 l 177.7,-30.4 c 0,0 129,359.8 120.8,398.8 -8.1,39.1 -120.8,60.7 -120.8,60.7 l -177.7,-60.7" /><path
         id="path104"
         style="fill:#343434;fill-opacity:1;fill-rule:nonzero;stroke:none"
         d="m 10511.6,6216.9 -123.6,2.2 v -90 l 613.4,-272 320.8,145.2 v 82.4 l -810.6,132.2" /><g
         transform="scale(1.03693)"
         id="g106"><path
           id="path108"
           style="fill:#c1bfbd;fill-opacity:1;fill-rule:nonzero;stroke:none"
           d="m 16209.5,9120.51 -154.6,-196.73 77.3,-1082.53 167.8,196.45 -90.5,1082.81" /></g><path
         id="path110"
         style="fill:#343434;fill-opacity:1;fill-rule:nonzero;stroke:none"
         d="m 10602.6,6312.3 c 0,0 -236.3,-88.9 -214.6,-93.2 21.7,-4.4 602.6,-273.1 602.6,-273.1 l 331.6,138.7 c 0,0 -314.3,147.4 -322.9,147.4 -8.7,0 -396.7,80.2 -396.7,80.2" /><path
         id="path112"
         style="fill:#535456;fill-opacity:1;fill-rule:nonzero;stroke:none"
         d="m 13444,9285.1 51.1,-326.3 -120.3,-182.1 c 0,0 -172.3,-3.3 -165.8,146.3 6.5,149.6 -29.3,320.8 3.3,339.2 32.5,18.4 231.7,22.9 231.7,22.9" /><path
         id="path114"
         style="fill:#797a7b;fill-opacity:1;fill-rule:nonzero;stroke:none"
         d="m 13114.7,9176.6 126.8,-640.5 133.3,240.6 -87,492.7 -173.1,-92.8" /><g
         transform="scale(1.03942)"
         id="g116"><path
           id="path118"
           style="fill:#5e6061;fill-opacity:1;fill-rule:nonzero;stroke:none"
           d="m 16300,8671.5 c 0,-139.6 -46.7,-252.65 -104.3,-252.65 -57.5,0 -104.3,113.05 -104.3,252.65 0,139.5 46.8,252.54 104.3,252.54 57.6,0 104.3,-113.04 104.3,-252.54" /></g><g
         transform="scale(1.05338)"
         id="g120"><path
           id="path122"
           style="fill:#5e6061;fill-opacity:1;fill-rule:nonzero;stroke:none"
           d="m 16300,8605.63 -244.9,10.34 c 0,0 -31.8,-47.37 -9.7,-146.19 l 185.7,-18.51 68.9,154.36" /></g><path
         id="path124"
         style="fill:#8f908f;fill-opacity:1;fill-rule:nonzero;stroke:none"
         d="m 12610.8,7326.7 v -120.3 l 380.4,97.5 780.3,1381.8 243.8,-149.6 91,726.1 c 0,0 -201.5,64 -237.3,51 -35.8,-13.1 -120.3,-48.8 -136.6,-68.3 -16.2,-19.5 -1121.6,-1918.2 -1121.6,-1918.2" /><path
         id="path126"
         style="fill:#797a7b;fill-opacity:1;fill-rule:nonzero;stroke:none"
         d="m 13241.5,8536.1 -770.5,-1310.2 139.8,-19.5 1189.9,2022.2 h -159.3 l -399.9,-692.5" /><path
         id="path128"
         style="fill:#adadab;fill-opacity:1;fill-rule:nonzero;stroke:none"
         d="M 12343.5,6727.7 15951.3,5658.6 15821.9,5493 c 0,0 -3860.3,1062.2 -3882,1082.7 -21.6,20.5 -112.7,7.5 -91,81.2 21.7,73.7 364.1,117 364.1,117 l 130.5,-46.2" /><path
         id="path130"
         style="fill:#adadab;fill-opacity:1;fill-rule:nonzero;stroke:none"
         d="m 13992.5,8604.4 -256.8,-2253.1 305.6,-97.6 377.2,2997.7 c 0,0 -150,55.1 -172.6,4.8 -22.5,-50.3 -253.4,-651.8 -253.4,-651.8" /><path
         id="path132"
         style="fill:#797a7b;fill-opacity:1;fill-rule:nonzero;stroke:none"
         d="m 11792.6,6516.1 3862.4,-1159.7 166.9,136.6 -3882,1163.9 -147.3,-140.8" /><path
         id="path134"
         style="fill:#343434;fill-opacity:1;fill-rule:nonzero;stroke:none"
         d="m 12056.2,6622.5 228.5,126.1 1003,-300.7 -211.2,-127.7 -1020.3,302.3" /><path
         id="path136"
         style="fill:#343434;fill-opacity:1;fill-rule:nonzero;stroke:none"
         d="m 14543.2,6075.9 c -8,2.4 -203.5,-130.1 -203.5,-130.1 l 1093.1,-323.8 182.6,136.1 -1072.2,317.8" /><path
         id="path138"
         style="fill:#797a7b;fill-opacity:1;fill-rule:nonzero;stroke:none"
         d="m 12545.8,7274.6 -74.8,-48.7 -1915,-770.6 146.3,-65 1908.5,816.1 -65,68.2" /><path
         id="path140"
         style="fill:#343434;fill-opacity:1;fill-rule:nonzero;stroke:none"
         d="m 14021.2,9308.3 -100.1,-714.4 315.3,-92.9 110.5,854.4 -325.7,-47.1" /><path
         id="path142"
         style="fill:#8f908f;fill-opacity:1;fill-rule:nonzero;stroke:none"
         d="m 10647,6252.1 52.1,-203.2 4733.7,1954 -35.7,331.6 -2786.3,-1128.1 -1908.5,-816.1 -55.3,-138.2" /><path
         id="path144"
         style="fill:#9d9d9c;fill-opacity:1;fill-rule:nonzero;stroke:none"
         d="m 12883.9,9342.4 v -165.8 l 276.7,-71.5 1261.1,175.5 c 0,0 45.5,237.4 -94.3,240.6 -139.8,3.3 -1443.5,-178.8 -1443.5,-178.8" /><g
         transform="scale(1.12)"
         id="g146"><path
           id="path148"
           style="fill:#8f908f;fill-opacity:1;fill-rule:nonzero;stroke:none"
           d="M 13834.5,4418.66 V 4097.41 L 16300,6740.98 V 7015.8 L 14813.8,5485 13834.5,4418.66" /></g><g
         transform="scale(1.12266)"
         id="g150"><path
           id="path152"
           style="fill:#9d9d9c;fill-opacity:1;fill-rule:nonzero;stroke:none"
           d="m 13643.4,4442.95 158.3,-34.74 977,1063.81 392.4,1256.84 951.3,553.87 177.6,-8.91 -15.4,184.83 -1342.5,191.15 v -183.49 l 863.7,-135.04 -795.4,-498.1 -421,-1390.1 -946,-1000.12" /></g><path
         id="path154"
         style="fill:#9d9d9c;fill-opacity:1;fill-rule:nonzero;stroke:none"
         d="m 12820.2,9981.3 37.7,-304 c 0,0 315.3,-120.3 302.3,0 -13,120.3 -74.7,282.8 -126.8,304 -52,21.1 -213.2,0 -213.2,0" /><path
         id="path156"
         style="fill:#797a7b;fill-opacity:1;fill-rule:nonzero;stroke:none"
         d="m 15401.9,8007.8 65.1,-118.7 245.4,151.2 c 0,0 -151.1,134.9 -212.9,125.2 -61.8,-9.8 -118,-40.4 -116.8,-40.7 1.3,-0.4 19.2,-117 19.2,-117" /><path
         id="path158"
         style="fill:#adadab;fill-opacity:1;fill-rule:nonzero;stroke:none"
         d="m 15280,8152.5 v -212.7 l 187,-50.7 v 213 l -187,50.4" /><path
         id="path160"
         style="fill:#343434;fill-opacity:1;fill-rule:nonzero;stroke:none"
         d="m 13147.2,9797.6 c 0,0 -550.5,-91.1 -574.4,-130.1 -23.8,-39 -45.5,-231.9 0,-277.4 45.6,-45.5 609.1,-130.1 639.5,-127.9 30.3,2.2 1179.1,114.9 1263.6,153.9 84.5,39 19.5,411.8 19.5,411.8 l -1348.2,-30.3" /><path
         id="path162"
         style="fill:#343434;fill-opacity:1;fill-rule:nonzero;stroke:none"
         d="m 15289.8,9002.1 -271.9,-551.6 -192.1,50.5 c 0,0 18.6,135.9 34.8,225.3 16.3,89.4 97.6,356 169.1,424.3 71.5,68.3 67,111.2 132.6,84.8 65.7,-26.3 150.2,-159.5 150.2,-159.5 l -22.7,-73.8" /><path
         id="path164"
         style="fill:#343434;fill-opacity:1;fill-rule:nonzero;stroke:none"
         d="m 15413.5,8846.9 3.6,-205.2 -146.8,-173.9 h -126.8 l -50,-37.1 -75.6,19.8 94.9,124.6 160.7,66.6 -19.5,161 100.8,185.3 58.7,-141.1" /><g
         transform="scale(1.00195)"
         id="g166"><path
           id="path168"
           style="fill:#c37140;fill-opacity:1;fill-rule:nonzero;stroke:none"
           d="m 15234.1,11245.2 c 0,0 98.4,8.6 223.8,0 125.5,-8.7 242.4,32.4 361.3,-45.4 119,-77.9 173.1,-155.8 181.7,-257.5 8.7,-101.6 10.9,-160 0,-272.5 -10.8,-112.5 -21.6,-190.4 -21.6,-190.4 0,0 14.1,-496.47 -50.9,-798.29 -64.8,-301.71 -64.8,-301.71 -64.8,-301.71 0,0 98.4,158.99 169.8,156.8 71.4,-2.1 77.9,-56.2 80.1,-62.68 2.1,-6.49 43.7,-3.3 59.9,-14.67 16.3,-11.28 24.4,-47.01 24.4,-47.01 0,0 27.5,-6.49 37.3,-32.44 9.7,-25.95 0,-50.3 0,-50.3 0,0 27.6,-11.38 32.5,-38.92 4.9,-27.65 4.9,-27.65 4.9,-27.65 0,0 27.5,-22.65 24.2,-63.28 -3.2,-40.52 -50.2,-102.2 -50.2,-102.2 0,0 1,-105.99 -59.6,-183.84 -60.5,-77.85 -205.5,-248.81 -281.1,-333.15 -75.8,-84.33 -125.5,-309.4 -324.5,-296.32 -199.1,12.98 -190.4,311.49 -196.9,389.34 -6.5,77.85 23.8,428.36 -88.7,770.1 -112.5,341.83 -43.3,817.72 -43.3,817.72 0,0 -177.3,367.8 -168.7,493.2 8.7,125.5 150.4,491.1 150.4,491.1" /></g><path
         id="path170"
         style="fill:#9d4a30;fill-opacity:1;fill-rule:nonzero;stroke:none"
         d="m 15936.8,10762.1 c 0,0 -226.2,-323.5 -461.7,-460.6 l -203.6,-118.5 v -97.1 c 0,0 173.4,43.3 332.6,169 159.3,125.7 332.7,507.2 332.7,507.2" /><path
         id="path172"
         style="fill:#c37140;fill-opacity:1;fill-rule:nonzero;stroke:none"
         d="m 14720.8,9969.9 c 0,0 48.8,-172.3 81.3,-305.6 32.5,-133.3 113.8,-435.7 113.8,-435.7 l 178.8,217.8 159.3,-308.9 c 0,0 -78,-195 -94.3,-250.3 -16.2,-55.2 -113.8,-367.3 -224.3,-383.6 -110.5,-16.3 -204.8,42.3 -240.6,195.1 -35.8,152.8 -13,144.8 -39,204.1 -26,59.2 -237.3,469.3 -237.3,469.3 0,0 20.5,297.6 48.7,376.7 28.2,79.1 253.6,221.1 253.6,221.1" /><path
         id="path174"
         style="fill:#adadab;fill-opacity:1;fill-rule:nonzero;stroke:none"
         d="m 15043.8,10085.9 355.4,-565.2 56.4,-415.6 c 0,0 165.3,-182.3 -62.6,54.6 -227.8,236.9 -510.9,856.4 -510.9,856.4 l 161.7,69.8" /><path
         id="path176"
         style="fill:#797a7b;fill-opacity:1;fill-rule:nonzero;stroke:none"
         d="m 14796.7,9904.9 658.9,-1206.3 v 406.5 l -533.2,963.4 -125.7,-163.6" /><g
         transform="scale(1.00195)"
         id="g178"><path
           id="path180"
           style="fill:#c37140;fill-opacity:1;fill-rule:nonzero;stroke:none"
           d="m 16272.5,9262.53 c 0,0 0,0 -4.9,27.65 -4.9,27.54 -32.5,38.92 -32.5,38.92 0,0 9.7,24.35 0,50.3 -9.8,25.95 -37.3,32.44 -37.3,32.44 0,0 -8.1,35.73 -24.4,47.01 -16.2,11.37 -57.8,8.18 -59.9,14.67 -2.2,6.48 -8.7,60.58 -80.1,62.68 -71.4,2.19 -169.8,-156.8 -169.8,-156.8 0,0 0,0 64.8,301.71 13.2,61.08 23.1,130.05 30.5,201.21 h -727.1 c 2.7,-141.52 18.5,-301.21 63.9,-439.14 112.5,-341.74 82.2,-692.25 88.7,-770.1 6.5,-77.85 -2.2,-376.36 196.9,-389.34 199,-13.08 248.7,211.99 324.5,296.32 75.6,84.34 220.6,255.3 281.1,333.15 60.6,77.85 59.6,183.84 59.6,183.84 0,0 47,61.68 50.2,102.2 3.3,40.63 -24.2,63.28 -24.2,63.28" /></g><path
         id="path182"
         style="fill:#c1bfbd;fill-opacity:1;fill-rule:nonzero;stroke:none"
         d="m 14218.6,9372.1 c 0,0 -209.8,-237.8 -196.8,-234.5 13,3.2 611.2,124.6 611.2,124.6 l 87.8,642.7 c 0,0 -399.9,-71.7 -409.6,-97.7 -9.8,-25.9 -92.6,-435.1 -92.6,-435.1" /><path
         id="path184"
         style="fill:#252322;fill-opacity:1;fill-rule:nonzero;stroke:none"
         d="m 12861.1,10757.8 -75.8,-199.4 c 0,0 -67.2,-409.7 59.6,-627.5 126.8,-217.9 471.4,-263.4 471.4,-263.4 0,0 887.6,-169 1196.4,13 308.9,182.1 360.9,269.9 432.5,312.2 71.5,42.2 529.9,308.8 529.9,308.8 0,0 71.5,347.9 0,591.7 -71.5,243.9 -211.3,373.9 -211.3,373.9 0,0 -399.9,-113.8 -409.7,-117 -9.7,-3.3 -260.1,-100.8 -260.1,-100.8 l -1550.8,-169.1 -182.1,-122.4" /><path
         id="path186"
         style="fill:#e9eef1;fill-opacity:1;fill-rule:nonzero;stroke:none"
         d="m 12903.3,11624.8 c 21,-123.2 71.3,-340.3 47.7,-424.9 -33.9,-121.3 -89.9,-442.1 -89.9,-442.1 0,0 370.7,91 656.8,0 286.1,-91.1 403.1,-164.7 550.5,-221.1 147.4,-56.4 294.8,0 294.8,0 0,0 225.4,299.1 238.4,325.1 13,26 54.2,314.3 67.2,363.1 6.3,23.5 75.5,220.6 148.6,425.9 l -1914.1,-26" /><path
         id="path188"
         style="fill:#adadab;fill-opacity:1;fill-rule:nonzero;stroke:none"
         d="m 10556,6455.3 v -354.4 l 143.1,-52 3.2,341.4 -146.3,65" /><path
         id="path190"
         style="fill:#343434;fill-opacity:1;fill-rule:nonzero;stroke:none"
         d="m 11714.6,6575.7 c 0,-32.9 -26.7,-59.6 -59.7,-59.6 -32.9,0 -59.6,26.7 -59.6,59.6 0,33 26.7,59.7 59.6,59.7 33,0 59.7,-26.7 59.7,-59.7" /><path
         id="path192"
         style="fill:#9d4a30;fill-opacity:1;fill-rule:nonzero;stroke:none"
         d="m 15894.5,9397.7 c 0,0 -87.8,-384.7 -100.8,-447.6 -13,-62.9 -21.7,-283.9 -17.3,-266.6 4.3,17.3 73.7,366.3 88.8,420.5 15.2,54.2 81,365.2 81,365.2 l -51.7,-71.5" /><path
         id="path194"
         style="fill:#9d4a30;fill-opacity:1;fill-rule:nonzero;stroke:none"
         d="m 16144.9,9492 c 0,0 -38,-12 -58.6,-27.1 -20.6,-15.2 -98.6,-100.8 -93.2,-92.1 5.4,8.6 23.9,70.4 59.6,104 35.8,33.6 81,43.9 81,43.9 l 11.2,-28.7" /><path
         id="path196"
         style="fill:#9d4a30;fill-opacity:1;fill-rule:nonzero;stroke:none"
         d="m 16229.4,9430.2 c 0,0 -36.9,-5.4 -64,-17.3 -27,-12 -94.2,-73.7 -91,-71.6 3.3,2.2 47.7,68.3 70.5,84.6 22.7,16.2 75,31.4 75,31.4 l 9.5,-27.1" /><path
         id="path198"
         style="fill:#9d4a30;fill-opacity:1;fill-rule:nonzero;stroke:none"
         d="m 16266.8,9347.3 c 0,0 -27.7,-1.6 -67.8,-25.5 -40.1,-23.8 -73.7,-49.8 -69.3,-45.5 4.3,4.3 30.3,53.1 62.8,71 32.5,17.9 78.6,24.8 78.6,24.8 l -4.3,-24.8" /><g
         transform="scale(1.00026)"
         id="g200"><path
           id="path202"
           style="fill:#9d4a30;fill-opacity:1;fill-rule:nonzero;stroke:none"
           d="m 16300,9278.21 c 0,0 -33.6,-18.4 -44.5,-28.09 -10.8,-9.8 -59.5,-54.19 -59.5,-54.19 0,0 22.7,55.39 47.6,77.48 24.9,22.2 51.5,32.49 51.5,32.49 l 4.9,-27.69" /></g><path
         id="path204"
         style="fill:#252322;fill-opacity:1;fill-rule:nonzero;stroke:none"
         d="m 14655.8,9505.9 c 0,-42.5 -30.6,-77 -68.3,-77 -37.7,0 -68.2,34.5 -68.2,77 0,42.6 30.5,77.1 68.2,77.1 37.7,0 68.3,-34.5 68.3,-77.1" /><path
         id="path206"
         style="fill:#252322;fill-opacity:1;fill-rule:nonzero;stroke:none"
         d="m 14125.8,8641.7 c 0,-31.4 -20.1,-56.8 -45,-56.8 -24.9,0 -45.1,25.4 -45.1,56.8 0,31.4 20.2,56.9 45.1,56.9 24.9,0 45,-25.5 45,-56.9" /><path
         id="path208"
         style="fill:#8f908f;fill-opacity:1;fill-rule:nonzero;stroke:none"
         d="m 13468,6297.1 c 13,-2.2 656.8,-190.7 656.8,-190.7 0,0 171.2,84.5 164.7,95.3 -6.5,10.9 -663.3,190.8 -663.3,190.8 l -158.2,-95.4" /><path
         id="path210"
         style="fill:#343434;fill-opacity:1;fill-rule:nonzero;stroke:none"
         d="m 13684.8,6361.7 c 0,-22.9 -28.7,-41.5 -64,-41.5 -35.3,0 -63.9,18.6 -63.9,41.5 0,23 28.6,41.6 63.9,41.6 35.3,0 64,-18.6 64,-41.6" /><path
         id="path212"
         style="fill:#343434;fill-opacity:1;fill-rule:nonzero;stroke:none"
         d="m 14174.9,6230.3 c 0,-23 -28.7,-41.6 -64,-41.6 -35.3,0 -63.9,18.6 -63.9,41.6 0,23 28.6,41.6 63.9,41.6 35.3,0 64,-18.6 64,-41.6" /><g
         transform="scale(1.05439)"
         id="g214"><path
           id="path216"
           style="fill:#adadab;fill-opacity:1;fill-rule:nonzero;stroke:none"
           d="m 13492.7,7953.96 2550.1,-643.78 257.2,164.45 -2747.5,721.27 -59.8,-241.94" /></g><path
         id="path218"
         style="fill:#343434;fill-opacity:1;fill-rule:nonzero;stroke:none"
         d="m 16064,5301.7 c -14.1,-61 -50.4,-104.7 -81.1,-97.6 -30.7,7.1 -44.2,62.3 -30.1,123.3 14,61 50.3,104.7 81.1,97.6 30.7,-7.1 44.2,-62.3 30.1,-123.3" /><g
         transform="scale(1.00174)"
         id="g220"><path
           id="path222"
           style="fill:#343434;fill-opacity:1;fill-rule:nonzero;stroke:none"
           d="m 16285.9,5525.87 c -13.9,-60.89 -50.2,-104.51 -80.9,-97.43 -30.7,7.09 -44.2,62.19 -30.1,123.09 14.1,60.89 50.3,104.51 81,97.43 30.6,-7.09 44.1,-62.19 30,-123.09" /></g><g
         transform="scale(1.12266)"
         id="g224"><path
           id="path226"
           style="fill:#797a7b;fill-opacity:1;fill-rule:nonzero;stroke:none"
           d="m 15207.2,6585.99 -196.8,-706.63 988.4,1042.62 262.6,77.22 -1482.7,-1527.18 392.4,1256.84 951.3,553.87 177.6,-8.91 v -139.49 l -178.6,5.79 -914.2,-554.13" /></g><g
         transform="scale(1.13489)"
         id="g228"><path
           id="path230"
           style="fill:#c1bfbd;fill-opacity:1;fill-rule:nonzero;stroke:none"
           d="m 16093.9,7972.76 19.3,-963.71 118.1,-31.81 68.7,100.28 -36.2,1042.74 h -66.8 l -103.1,-147.5" /></g><g
         transform="scale(1.13237)"
         id="g232"><path
           id="path234"
           style="fill:#343434;fill-opacity:1;fill-rule:nonzero;stroke:none"
           d="m 16300,7929.05 c 0,-34 -18.3,-61.47 -40.7,-61.47 -22.4,0 -40.7,27.47 -40.7,61.47 0,33.91 18.3,61.46 40.7,61.46 22.4,0 40.7,-27.55 40.7,-61.46" /></g><g
         transform="scale(1.13237)"
         id="g236"><path
           id="path238"
           style="fill:#343434;fill-opacity:1;fill-rule:nonzero;stroke:none"
           d="m 16300,7525.47 c 0,-33.91 -18.3,-61.47 -40.7,-61.47 -22.4,0 -40.7,27.56 -40.7,61.47 0,34 18.3,61.46 40.7,61.46 22.4,0 40.7,-27.46 40.7,-61.46" /></g><path
         id="path240"
         style="fill:#adadab;fill-opacity:1;fill-rule:nonzero;stroke:none"
         d="m 13911.4,7892.4 -175.7,-1541.1 305.6,-97.5 206.2,1638.6 h -336.1" /><g
         transform="scale(1.12266)"
         id="g242"><path
           id="path244"
           style="fill:#343434;fill-opacity:1;fill-rule:nonzero;stroke:none"
           d="m 15930.3,7009.8 v -105.19 l 309.8,-15.15 59.9,71.08 v 49.26 h -369.7" /></g><g
         transform="scale(1.12538)"
         id="g246"><path
           id="path248"
           style="fill:#9d9d9c;fill-opacity:1;fill-rule:nonzero;stroke:none"
           d="m 15075.1,10087 80.8,30.8 706.5,-1140.22 c 0,0 -463.8,-462.24 -463.8,-480.9 0,0 7.7,665.8 -19.3,755.66 -26.9,89.86 -304.2,834.66 -304.2,834.66 z M 16300,8962.18 c 0,0 -835.7,1417.52 -941.7,1498.42 -106,80.9 -306.3,46.2 -317.9,46.2 -11.5,0 -385.2,-181 -385.2,-200.3 0,-19.2 454.5,-1118.33 462.3,-1148.51 7.6,-30.18 16.8,-1312.91 16.8,-1312.91 l 179.5,-30.83 63.7,75.97 518.5,-88.5 38.1,114.72 -539.3,92.68 905.2,953.06" /></g><g
         transform="scale(1.10012)"
         id="g250"><path
           id="path252"
           style="fill:#797a7b;fill-opacity:1;fill-rule:nonzero;stroke:none"
           d="m 15752.2,8691.81 v -162.26 l 547.8,533.04 -73.4,121.16 -474.4,-491.94" /></g><g
         transform="scale(1.10623)"
         id="g254"><path
           id="path256"
           style="fill:#797a7b;fill-opacity:1;fill-rule:nonzero;stroke:none"
           d="m 15418.3,10292.9 h 134.2 l 747.5,-1204.01 -90.1,-76.41 -73,120.49 -718.6,1159.93" /></g><g
         transform="scale(1.13871)"
         id="g258"><path
           id="path260"
           style="fill:#1d1b1a;fill-opacity:1;fill-rule:nonzero;stroke:none"
           d="m 16273.4,9537.51 5.9,242.72 -151.9,23.83 c -147.4,23.15 -328.1,-347.88 -403.7,-828.72 -75.4,-480.83 -17,-889.45 130.4,-912.54 l 151.8,-23.8 68.7,232.36 c 76.5,150.61 144.1,370.6 183.2,620.14 39.1,249.4 42.2,479.19 15.6,646.01" /></g><g
         transform="scale(1.15164)"
         id="g262"><path
           id="path264"
           style="fill:#343434;fill-opacity:1;fill-rule:nonzero;stroke:none"
           d="m 16225.3,8768.1 c -74.6,-475.44 -253.3,-842.3 -399.1,-819.38 -145.8,22.84 -203.5,426.78 -128.9,902.27 74.6,475.43 253.4,842.3 399.2,819.41 145.8,-22.89 203.5,-426.86 128.8,-902.3" /></g><g
         transform="scale(1.02349)"
         id="g266"><path
           id="path268"
           style="fill:#343434;fill-opacity:1;fill-rule:nonzero;stroke:none"
           d="m 15010.8,12789.5 c 0,0 65.6,55.1 152.5,0 l -40.3,-986.8 991.2,-470.2 185.8,-19 -27.3,-381.3 c 0,0 -182.4,28.7 -182.4,35 0,6.4 -3.2,181.1 -3.2,181.1 0,0 -1078.5,498.7 -1113.3,536.8 -35,38.2 37,1104.4 37,1104.4" /></g><path
         id="path270"
         style="fill:#e9eef1;fill-opacity:1;fill-rule:nonzero;stroke:none"
         d="m 14069.9,13501.8 225.8,-153.8 c 0,0 -18.7,-858.4 0,-877.9 18.6,-19.5 428.3,-865.1 428.3,-865.1 0,0 -162.6,-332.6 -247.1,-523.8 -84.5,-191.2 -676.2,-355.9 -767.3,-319.1 -91,36.9 -806.3,862.7 -806.3,862.7 0,0 -165.8,295.8 -195.1,435.6 -29.2,139.8 -42.2,396.7 -42.2,396.7 0,0 -143.1,123.5 -178.8,471.4 -35.8,347.9 58.5,578.7 146.3,692.5 87.7,113.8 341.3,198.3 341.3,198.3 0,0 637.3,-78 653.5,-81.2 16.3,-3.3 441.6,-236.3 441.6,-236.3" /><path
         id="path272"
         style="fill:#b9bdbe;fill-opacity:1;fill-rule:nonzero;stroke:none"
         d="m 13114.7,13081.3 c 0,0 -158.4,-468.2 45.9,-1033.9 0,0 -328.7,539.7 -45.9,1033.9" /><path
         id="path274"
         style="fill:#b9bdbe;fill-opacity:1;fill-rule:nonzero;stroke:none"
         d="m 13404,12203.5 c 0,0 265.8,-143.1 435.3,-156.1 0,0 -207.7,-162.5 -435.3,156.1" /><path
         id="path276"
         style="fill:#b9bdbe;fill-opacity:1;fill-rule:nonzero;stroke:none"
         d="m 12666,12457.1 c 0,0 133.3,-113.8 217.8,-133.3 0,0 -115.3,-6.5 -213.7,66.6 l -4.1,66.7" /><path
         id="path278"
         style="fill:#c37140;fill-opacity:1;fill-rule:nonzero;stroke:none"
         d="m 14117.1,13404 c 0,0 302.5,-65.8 482.3,-322.7 179.9,-256.8 193,-507.2 162.1,-660 -31,-152.8 -125.3,-316.6 -125.3,-316.6 0,0 55.2,-54 87.8,-219.8 l 409.7,318.6 191.8,-243.9 c 0,0 -110.6,-295.8 -198.4,-422.6 -87.7,-126.8 -149.5,-185.3 -149.5,-185.3 0,0 -208.5,-262.8 -339.9,-302.1 -131.5,-39.3 -219.3,-0.3 -264.8,55 -45.6,55.2 -55.3,84.4 -55.3,84.4 0,0 -269.9,354.5 -357.6,559.3 0,0 -165.9,227.6 -146.3,494.2 0,0 -279.7,260.1 -260.1,591.7 19.5,331.6 441,590.2 563.5,569.8" /><path
         id="path280"
         style="fill:#9d4a30;fill-opacity:1;fill-rule:nonzero;stroke:none"
         d="m 13813.7,12242.5 25.6,276.4 -145.9,185.3 c 0,0 71.1,-172.3 72.9,-191.8 1.8,-19.6 -55.3,-149.5 -55.3,-149.5 l 102.7,-120.4" /><path
         id="path282"
         style="fill:#9d4a30;fill-opacity:1;fill-rule:nonzero;stroke:none"
         d="m 14051,12323.6 c 0,0 156.1,-129.9 312.1,-188.4 0,0 -230.8,-55.6 -312.1,188.4" /><path
         id="path284"
         style="fill:#9d4a30;fill-opacity:1;fill-rule:nonzero;stroke:none"
         d="m 14817.4,11650.8 -14.1,295.7 -79.3,-61.6 c 0,0 66.6,-120.3 93.4,-234.1" /><path
         id="path286"
         style="fill:#e28c61;fill-opacity:1;fill-rule:nonzero;stroke:none"
         d="m 14724,12577.4 c -22.8,-260.1 -178.8,-530 -178.8,-530 l 54.2,19.5 103.1,-96.1 c -30.8,99.1 -66.3,133.9 -66.3,133.9 0,0 94.3,163.8 125.3,316.6 26.5,130.9 20.5,333.4 -94.7,550.1 35.3,-111.7 68.9,-259.6 57.2,-394" /><path
         id="path288"
         style="fill:#c37140;fill-opacity:1;fill-rule:nonzero;stroke:none"
         d="m 15133.7,12203.5 c 0,0 -61.8,165.8 -61.8,227.6 0,61.7 56.9,175.5 76.4,188.5 19.5,13 188.3,25.8 188.3,25.8 l -11.1,-42 c 0,0 188.5,69.9 229.2,73.1 40.6,3.3 97.5,-29.2 110.5,-56.9 13,-27.6 13,-86.1 13,-86.1 0,0 29.3,-28.8 39,-62.4 9.8,-33.5 -11.3,-90.4 -11.3,-90.4 0,0 21.4,-74.6 13.9,-92.6 -7.4,-18 -61.1,-68.7 -61.1,-68.7 0,0 14.7,-61.4 -11.4,-87.4 -26,-26.1 -203.2,-68.3 -203.2,-68.3 l -118.6,-104.1 c 0,0 -162.6,48.8 -172.3,68.3 -9.8,19.5 -19.5,175.6 -19.5,175.6" /><path
         id="path290"
         style="fill:#c37140;fill-opacity:1;fill-rule:nonzero;stroke:none"
         d="m 13159.6,14190.5 c 0,0 11.7,-204.8 -35.8,-286.2 -47.4,-81.4 -149,-85 -149,-85 0,0 178.9,-123.8 217.9,-247 38.9,-123.3 -17.9,-169 21,-168.2 38.8,0.7 104.7,71.8 343.1,119.7 238.4,47.9 513.1,-22 513.1,-22 0,0 -78.7,206.1 -103.7,248.3 -25,42.2 -10.1,144.4 -10.1,144.4 0,0 112,7 137.7,49.4 25.8,42.5 113.5,464.1 115.7,523.6 2.3,59.5 -22.2,166.8 -22.2,166.8 0,0 22.4,47 24.8,79.4 2.3,32.4 -65.1,367.9 -65.1,367.9 0,0 -493.1,-226.3 -525.7,-251 -32.5,-24.8 -461.7,-640.1 -461.7,-640.1" /><path
         id="path292"
         style="fill:#e28c61;fill-opacity:1;fill-rule:nonzero;stroke:none"
         d="m 14018.9,14680.4 c 0,0 -8.2,-304.8 -1.7,-319.5 6.4,-14.6 33.2,-14.5 34.7,-8.9 1.4,5.6 30.4,313.7 11.7,330.4 -18.7,16.6 -23,26.4 -44.7,-2" /><path
         id="path294"
         style="fill:#9d4a30;fill-opacity:1;fill-rule:nonzero;stroke:none"
         d="m 13956.1,13894.5 -9.3,234.4 57.6,-227.9 z" /><path
         id="path296"
         style="fill:#2f1d16;fill-opacity:1;fill-rule:nonzero;stroke:none"
         d="m 14107.1,14477.6 c 0,0 19.9,106.8 19.2,110.2 -0.7,3.4 20.8,173.1 19.4,179.9 -1.4,6.8 -6.4,193.6 -6.8,213 -0.3,19.4 13.3,75.3 13.3,75.3 0,0 37.3,52.4 27.7,147.3 -9.7,94.9 -217.4,306 -554.4,278.4 -337,-27.5 -505.8,-292.9 -505.8,-292.9 0,0 -128.8,-134.6 -131.4,-309.9 -2.6,-175.3 164.5,-618.9 171.3,-688.4 0,0 133.2,-39.4 297.6,-34.8 164.4,4.7 241.1,46.1 258.8,52 17.7,6 196.9,278.2 216.4,322.3 19.5,44 76.2,161.7 112.5,169 36.4,7.3 62.2,-221.4 62.2,-221.4" /><g
         transform="scale(1.12564)"
         id="g298"><path
           id="path300"
           style="fill:#c1bfbd;fill-opacity:1;fill-rule:nonzero;stroke:none"
           d="m 15896.6,7812.95 -13,-49.13 70.8,-99.67 h 49.1 c 0,0 296.5,1049.44 292.7,1120.69 -3.8,71.25 -500.7,735.57 -500.7,735.57 l -53.8,-61.62 c 0,0 417.8,-550.71 425.5,-614.25 7.6,-63.52 -236.9,-929.96 -236.9,-929.96 l -33.7,-101.63" /></g><g
         transform="scale(1.12564)"
         id="g302"><path
           id="path304"
           style="fill:#9d9d9c;fill-opacity:1;fill-rule:nonzero;stroke:none"
           d="m 16230.9,8907.26 c 0.2,-36.69 -1,-77.12 -4.8,-114.43 -10.9,-104.92 -280.4,-1018.88 -280.4,-1018.88 l 57.8,-109.8 c 0,0 296.5,1049.44 292.7,1120.69 -0.9,15.9 -26.3,61.38 -65.3,122.42" /></g><g
         transform="scale(1.18444)"
         id="g306"><path
           id="path308"
           style="fill:#9d9d9c;fill-opacity:1;fill-rule:nonzero;stroke:none"
           d="m 16291.5,8490.45 8.5,68.26 -755.5,131.7 c 0,0 -74.6,-89.72 -39,-199.51 l 777.4,-134.56 8.6,134.11" /></g><g
         transform="scale(1.18833)"
         id="g310"><path
           id="path312"
           style="fill:#c1bfbd;fill-opacity:1;fill-rule:nonzero;stroke:none"
           d="m 16295.3,8425.04 c -4.7,-55.7 -34.1,-98.7 -65.6,-96 -31.5,2.6 -53.2,49.98 -48.5,105.67 4.7,55.7 34.1,98.7 65.5,96.03 31.6,-2.67 53.3,-49.99 48.6,-105.7" /></g><path
         id="path314"
         style="fill:#2f1d16;fill-opacity:1;fill-rule:nonzero;stroke:none"
         d="m 13138.3,15196.7 c -6.5,9.1 8.9,92.7 51.3,119.6 42.3,26.8 59.3,76.2 108.7,93.1 49.4,17 110.1,71.9 165.2,74.8 55,2.9 111.5,4.3 200.4,22.7 89,18.3 108.8,-20 156.8,-22.7 48,-2.8 83.2,12.8 139.7,-21.1 56.5,-33.9 66.5,-64.9 109.5,-76.2 43,-11.3 89.6,-55.1 96.6,-93.2 7.1,-38.1 38.2,-74.8 39.6,-134.1 1.4,-59.3 -53.9,-103.6 -53.9,-103.6 0,0 -411.5,-23 -454.8,-15.5 -43.3,7.5 -559.1,156.2 -559.1,156.2" /><path
         id="path316"
         style="fill:#343434;fill-opacity:1;fill-rule:nonzero;stroke:none"
         d="m 9186.39,7445.9 c -10.84,-2.2 -229.76,-156.1 -229.76,-156.1 v -78 l 229.76,-67.2 426.99,301.3 v 71.5 l -264.43,47.7 -162.56,-119.2" /><path
         id="path318"
         style="fill:#797a7b;fill-opacity:1;fill-rule:nonzero;stroke:none"
         d="m 9380.38,7352.7 115.96,62.8 -11.92,294.8 H 9305.6 c 0,0 -58.52,75.9 -21.68,-41.2 36.85,-117 96.46,-316.4 96.46,-316.4" /><path
         id="path320"
         style="fill:#9d9d9c;fill-opacity:1;fill-rule:nonzero;stroke:none"
         d="m 9308.85,7596.5 71.53,71.5 104.04,42.3 -1303.74,321.9 -87.79,-74.8 c 0,0 3.26,-85.6 35.77,-99.7 32.51,-14.1 1180.19,-261.2 1180.19,-261.2" /><path
         id="path322"
         style="fill:#c1bfbd;fill-opacity:1;fill-rule:nonzero;stroke:none"
         d="m 7933.58,7697.3 1446.8,-344.6 V 7668 l -1287.49,289.4 -214.58,-99.7 55.27,-160.4" /><path
         id="path324"
         style="fill:#343434;fill-opacity:1;fill-rule:nonzero;stroke:none"
         d="m 8666.19,7660.4 c 0,-29.9 -24.26,-54.1 -54.18,-54.1 -29.93,0 -54.19,24.2 -54.19,54.1 0,30 24.26,54.2 54.19,54.2 29.92,0 54.18,-24.2 54.18,-54.2" /><path
         id="path326"
         style="fill:#343434;fill-opacity:1;fill-rule:nonzero;stroke:none"
         d="m 8092.89,7957.4 v -205.9 l 347.88,-17 67.2,79.8 v 195.1 c 0,0 -191.83,65 -207.54,58.5 -15.71,-6.5 -207.54,-110.5 -207.54,-110.5" /><path
         id="path328"
         style="fill:#343434;fill-opacity:1;fill-rule:nonzero;stroke:none"
         d="m 8005.11,7892.4 -71.53,-471.5 c 0,0 -182.06,-104 -198.32,16.3 -16.26,120.3 -105.62,358.5 -52.81,374.3 52.81,15.8 322.66,80.9 322.66,80.9" /><path
         id="path330"
         style="fill:#5e6061;fill-opacity:1;fill-rule:nonzero;stroke:none"
         d="m 7876.69,8610.9 c 0,0 -87.78,-144.7 -53.65,-187 34.14,-42.2 35.18,-100.7 113.5,-68.2 78.32,32.5 146.6,88 115.71,165.9 -30.88,77.9 32.78,68.6 -45.38,96 -78.16,27.4 -130.18,-6.7 -130.18,-6.7" /><path
         id="path332"
         style="fill:#5e6061;fill-opacity:1;fill-rule:nonzero;stroke:none"
         d="m 7911.57,8563.1 106.55,-51.4 c 0,0 102.41,180.5 74.77,230.9 -27.63,50.4 -76.4,104.1 -99.16,108.9 -22.76,4.9 -53.64,59.7 -68.27,1.4 -14.64,-58.3 -13.89,-289.8 -13.89,-289.8" /><path
         id="path334"
         style="fill:#1d1b1a;fill-opacity:1;fill-rule:nonzero;stroke:none"
         d="m 8600.27,8805.4 c -76.15,-451.6 -263.95,-796.4 -419.45,-770.2 -155.51,26.2 -219.84,413.6 -143.69,865.2 76.15,451.6 263.94,796.4 419.45,770.2 155.51,-26.2 219.84,-413.6 143.69,-865.2" /><path
         id="path336"
         style="fill:#343434;fill-opacity:1;fill-rule:nonzero;stroke:none"
         d="m 8695.7,9670.6 c 0,0 -161.72,42.4 -252.76,40.3 -91.03,-2.2 -95.37,-104.1 -86.7,-108.4 8.67,-4.3 43.63,-34.7 117.18,-67.2 6.44,-2.8 12.96,-6 19.51,-9.3 -91.02,-138.6 -172.58,-364.1 -216.68,-625.6 -76.15,-451.6 -11.82,-839 143.69,-865.2 155.5,-26.2 343.3,318.6 419.45,770.2 76.14,451.6 11.82,839 -143.69,865.2" /><path
         id="path338"
         style="fill:#8f908f;fill-opacity:1;fill-rule:nonzero;stroke:none"
         d="m 7774.27,7736.3 159.31,-315.4 -139.8,-175.5 c 0,0 -84.53,-19.5 -139.8,84.5 -55.27,104 -117.04,273.1 -117.04,273.1 l 237.33,133.3" /><path
         id="path340"
         style="fill:#797a7b;fill-opacity:1;fill-rule:nonzero;stroke:none"
         d="m 7449.15,7541.2 247.09,-381.6 97.54,85.8 -253.59,403.1 -91.04,-107.3" /><path
         id="path342"
         style="fill:#48484a;fill-opacity:1;fill-rule:nonzero;stroke:none"
         d="m 5106.23,10124.9 -35.89,-1019.8 c 0,0 30.35,-571.2 73.7,-601.5 43.35,-30.4 72.47,-165 133.77,-121.5 61.3,43.5 226.8,-20.2 284.94,185 58.13,205.3 67.39,342.6 38.92,592.6 -28.47,249.9 24.53,1042.9 24.04,1108.1 -0.49,65.1 -87.19,212.5 -228.08,108.5 -140.88,-104 -291.4,-251.4 -291.4,-251.4" /><path
         id="path344"
         style="fill:#9d9d9c;fill-opacity:1;fill-rule:nonzero;stroke:none"
         d="m 6093.39,8588.1 1882.57,-457.3 -64.4,-113.3 -1982.1,433 163.93,137.6" /><path
         id="path346"
         style="fill:#797a7b;fill-opacity:1;fill-rule:nonzero;stroke:none"
         d="m 5983.89,8501 1851.64,-399.1 -324.61,-183.5 -1031.2,273.1 -178.25,-130.1 c 0,0 -645.91,110.1 -723.94,148.3 -78.03,38.1 -329.45,129.2 -359.8,150.8 -30.34,21.7 -176.65,21.7 -172.86,56.4 3.8,34.7 99.17,303.4 116.51,359.8 17.34,56.4 107.76,398.8 160.08,398.8 52.33,0 186.71,0 186.71,0 0,0 260.1,-234.1 299.12,-277.4 39.01,-43.4 176.6,-397.1 176.6,-397.1" /><path
         id="path348"
         style="fill:#797a7b;fill-opacity:1;fill-rule:nonzero;stroke:none"
         d="m 3864.97,8731.2 862.95,-752.1 c 0,0 403.11,88.8 377.1,114.8 -26.01,26.1 -377.1,370.7 -377.1,370.7 l -640.44,312.1 -222.51,-45.5" /><path
         id="path350"
         style="fill:#343434;fill-opacity:1;fill-rule:nonzero;stroke:none"
         d="m 5369.46,4892.6 -164.73,-177.8 v -95.3 l 888.66,-173.4 164.73,190.7 v 82.4 l -888.66,173.4" /><path
         id="path352"
         style="fill:#adadab;fill-opacity:1;fill-rule:nonzero;stroke:none"
         d="m 5525.51,4987.9 v -368.4 l 177.74,-30.4 c 0,0 128.96,359.8 120.83,398.8 -8.12,39.1 -120.83,60.7 -120.83,60.7 l -177.74,-60.7" /><path
         id="path354"
         style="fill:#343434;fill-opacity:1;fill-rule:nonzero;stroke:none"
         d="m 720.211,6216.9 -123.547,2.2 v -90 l 613.396,-272 320.79,145.2 v 82.4 l -810.639,132.2" /><path
         id="path356"
         style="fill:#c1bfbd;fill-opacity:1;fill-rule:nonzero;stroke:none"
         d="m 7016.74,9457.3 -160.39,-204 80.19,-1122.5 173.96,203.7 -93.76,1122.8" /><path
         id="path358"
         style="fill:#343434;fill-opacity:1;fill-rule:nonzero;stroke:none"
         d="m 811.242,6312.3 c 0,0 -236.254,-88.9 -214.578,-93.2 21.676,-4.4 602.556,-273.1 602.556,-273.1 l 331.63,138.7 c 0,0 -314.29,147.4 -322.96,147.4 -8.67,0 -396.648,80.2 -396.648,80.2" /><path
         id="path360"
         style="fill:#535456;fill-opacity:1;fill-rule:nonzero;stroke:none"
         d="m 3652.6,9285.1 51.15,-326.3 -120.3,-182.1 c 0,0 -172.31,-3.3 -165.81,146.3 6.5,149.6 -29.26,320.8 3.25,339.2 32.51,18.4 231.71,22.9 231.71,22.9" /><path
         id="path362"
         style="fill:#797a7b;fill-opacity:1;fill-rule:nonzero;stroke:none"
         d="m 3323.35,9176.6 126.8,-640.5 133.3,240.6 -87,492.7 -173.1,-92.8" /><path
         id="path364"
         style="fill:#5e6061;fill-opacity:1;fill-rule:nonzero;stroke:none"
         d="m 7151.12,9013.3 c 0,-145.1 -48.52,-262.6 -108.37,-262.6 -59.85,0 -108.37,117.5 -108.37,262.6 0,145 48.52,262.5 108.37,262.5 59.85,0 108.37,-117.5 108.37,-262.5" /><path
         id="path366"
         style="fill:#5e6061;fill-opacity:1;fill-rule:nonzero;stroke:none"
         d="m 7378.71,9065 -257.93,10.9 c 0,0 -33.56,-49.9 -10.28,-154 l 195.6,-19.5 72.61,162.6" /><path
         id="path368"
         style="fill:#8f908f;fill-opacity:1;fill-rule:nonzero;stroke:none"
         d="m 2819.41,7326.7 v -120.3 l 380.4,97.5 780.29,1381.8 243.84,-149.6 91.04,726.1 c 0,0 -201.58,64 -237.34,51 -35.77,-13.1 -120.3,-48.8 -136.55,-68.3 -16.26,-19.5 -1121.68,-1918.2 -1121.68,-1918.2" /><path
         id="path370"
         style="fill:#797a7b;fill-opacity:1;fill-rule:nonzero;stroke:none"
         d="m 3450.15,8536.1 -770.54,-1310.2 139.8,-19.5 1189.95,2022.2 h -159.31 l -399.9,-692.5" /><path
         id="path372"
         style="fill:#adadab;fill-opacity:1;fill-rule:nonzero;stroke:none"
         d="M 2552.16,6727.7 6159.93,5658.6 6030.54,5493 c 0,0 -3860.29,1062.2 -3881.96,1082.7 -21.68,20.5 -112.71,7.5 -91.03,81.2 21.67,73.7 364.13,117 364.13,117 l 130.48,-46.2" /><path
         id="path374"
         style="fill:#adadab;fill-opacity:1;fill-rule:nonzero;stroke:none"
         d="m 4201.18,8604.4 -256.84,-2253.1 305.61,-97.6 377.14,2997.7 c 0,0 -149.98,55.1 -172.53,4.8 -22.54,-50.3 -253.38,-651.8 -253.38,-651.8" /><path
         id="path376"
         style="fill:#797a7b;fill-opacity:1;fill-rule:nonzero;stroke:none"
         d="M 2001.19,6516.1 5863.64,5356.4 6030.54,5493 2148.58,6656.9 2001.19,6516.1" /><path
         id="path378"
         style="fill:#343434;fill-opacity:1;fill-rule:nonzero;stroke:none"
         d="m 2264.81,6622.5 228.55,126.1 1003,-300.7 -211.25,-127.7 -1020.3,302.3" /><path
         id="path380"
         style="fill:#343434;fill-opacity:1;fill-rule:nonzero;stroke:none"
         d="m 4751.88,6075.9 c -8.08,2.4 -203.49,-130.1 -203.49,-130.1 l 1093.08,-323.8 182.61,136.1 -1072.2,317.8" /><path
         id="path382"
         style="fill:#797a7b;fill-opacity:1;fill-rule:nonzero;stroke:none"
         d="m 2754.39,7274.6 -74.78,-48.7 -1914.965,-770.6 146.304,-65 1908.461,816.1 -65.02,68.2" /><path
         id="path384"
         style="fill:#343434;fill-opacity:1;fill-rule:nonzero;stroke:none"
         d="m 4229.86,9308.3 -100.13,-714.4 315.29,-92.9 110.55,854.4 -325.71,-47.1" /><path
         id="path386"
         style="fill:#8f908f;fill-opacity:1;fill-rule:nonzero;stroke:none"
         d="m 855.676,6252.1 52.019,-203.2 4733.775,1954 -35.76,331.6 L 2819.41,7206.4 910.949,6390.3 855.676,6252.1" /><path
         id="path388"
         style="fill:#9d9d9c;fill-opacity:1;fill-rule:nonzero;stroke:none"
         d="m 3092.52,9342.4 v -165.8 l 276.74,-71.5 1261.08,175.5 c 0,0 45.52,237.4 -94.28,240.6 -139.8,3.3 -1443.54,-178.8 -1443.54,-178.8" /><path
         id="path390"
         style="fill:#8f908f;fill-opacity:1;fill-rule:nonzero;stroke:none"
         d="m 5703.25,4948.9 v -359.8 l 2761.37,2960.8 v 307.8 L 6799.99,6143.2 5703.25,4948.9" /><path
         id="path392"
         style="fill:#9d9d9c;fill-opacity:1;fill-rule:nonzero;stroke:none"
         d="m 5525.51,4987.9 177.74,-39 1096.74,1194.3 440.5,1411 1068.07,621.8 199.41,-10 -17.34,207.5 -1507.21,214.6 v -206 l 969.67,-151.6 -893,-559.2 L 6587.58,6110.7 5525.51,4987.9" /><path
         id="path394"
         style="fill:#9d9d9c;fill-opacity:1;fill-rule:nonzero;stroke:none"
         d="m 3028.83,9981.3 37.68,-304 c 0,0 315.37,-120.3 302.36,0 -13,120.3 -74.78,282.8 -126.8,304 -52.02,21.1 -213.24,0 -213.24,0" /><path
         id="path396"
         style="fill:#797a7b;fill-opacity:1;fill-rule:nonzero;stroke:none"
         d="m 5610.59,8007.8 65.02,-118.7 245.47,151.2 c 0,0 -151.18,134.9 -212.96,125.2 -61.77,-9.8 -117.97,-40.4 -116.74,-40.7 1.22,-0.4 19.21,-117 19.21,-117" /><path
         id="path398"
         style="fill:#adadab;fill-opacity:1;fill-rule:nonzero;stroke:none"
         d="m 5488.67,8152.5 v -212.7 l 186.94,-50.7 v 213 l -186.94,50.4" /><path
         id="path400"
         style="fill:#343434;fill-opacity:1;fill-rule:nonzero;stroke:none"
         d="m 3355.87,9797.6 c 0,0 -550.54,-91.1 -574.39,-130.1 -23.84,-39 -45.51,-231.9 0,-277.4 45.52,-45.5 609.07,-130.1 639.41,-127.9 30.35,2.2 1179.11,114.9 1263.64,153.9 84.53,39 19.51,411.8 19.51,411.8 l -1348.17,-30.3" /><path
         id="path402"
         style="fill:#9d9d9c;fill-opacity:1;fill-rule:nonzero;stroke:none"
         d="m 7936.54,8952.3 -19.21,178.8 -215.67,44.4 -95.37,132.8 c 0,0 169.07,677.9 216.75,1003 47.69,325.1 26.01,693.6 26.01,693.6 l 23.85,13 99.7,-2065.6 z m 302.66,972.1 c 0,0 -94.29,1921.5 -126.8,2054.8 -32.51,133.2 -312.12,656.7 -312.12,656.7 l -107.29,-325.1 -149.55,3.2 55.27,-175.5 c 0,0 26.01,-1436 -32.51,-1714.5 -58.53,-278.5 -325.71,-1515 -325.71,-1515 l 181.99,-25 243.46,-201.5 -70.48,-331.7 198.32,-51.5 c 0,0 126.8,275.8 126.8,288.8 0,13 35.76,205.9 35.76,205.9 l 136.55,-20.6 v -149.5 l 74.78,-13 464.93,664.9 v 277.9 l -393.4,370.7" /><path
         id="path404"
         style="fill:#5e6061;fill-opacity:1;fill-rule:nonzero;stroke:none"
         d="m 7587.33,9053.1 75.32,-64 273.89,-36.8 -19.21,178.8 -215.67,44.4 -47.68,-10.8 -66.65,-111.6" /><path
         id="path406"
         style="fill:#797a7b;fill-opacity:1;fill-rule:nonzero;stroke:none"
         d="m 7701.66,9175.5 -47.68,-10.8 8.67,-175.6 -199.41,54.2 c 0,0 281.77,1216.5 307.78,1424.3 26.01,207.8 86.7,1412.9 86.7,1412.9 l 157.25,-312.1 133.19,-2514.3 -34.68,-125.7 -140.88,23.9 -99.7,2065.6 -23.85,-13 c 0,0 15.35,-269.8 -2.71,-462.7 -18.07,-192.9 -23.3,-230.9 -23.3,-230.9 0,0 -19.09,-132.8 -57.66,-311.6 -38.57,-178.9 -159.09,-691.4 -159.09,-691.4 l 95.37,-132.8" /><path
         id="path408"
         style="fill:#48484a;fill-opacity:1;fill-rule:nonzero;stroke:none"
         d="m 5397.63,12522.1 c 0,0 110.54,-203.7 132.22,-424.8 21.67,-221.1 0,-958 0,-958 0,0 -261.18,-331.7 -364.14,-160.4 -102.95,171.2 -164.73,-30.4 -190.74,225.4 -26.01,255.7 0,459.5 69.36,871.3 69.36,411.8 182.07,554.9 186.41,580.9 4.33,26 166.89,-134.4 166.89,-134.4" /><path
         id="path410"
         style="fill:#797a7b;fill-opacity:1;fill-rule:nonzero;stroke:none"
         d="m 5184.6,11371.1 c 0,0 128.5,-93.1 150.18,-223.2 21.67,-130 -162.15,-171.6 -217.09,-84.7 -54.93,86.9 -95.03,43 -56.02,131.1 39.02,88 122.93,176.8 122.93,176.8" /><path
         id="path412"
         style="fill:#343434;fill-opacity:1;fill-rule:nonzero;stroke:none"
         d="m 5443.15,12561.1 -338.13,-1556.2 c 0,0 -307.78,-195.1 -372.8,-82.4 -65.03,112.7 -446.51,60.7 -186.41,723.9 260.1,663.3 390.15,1053.4 468.18,1116.3 78.03,62.9 119.21,344.6 251.43,175.6 132.21,-169.1 177.73,-377.2 177.73,-377.2" /><path
         id="path414"
         style="fill:#343434;fill-opacity:1;fill-rule:nonzero;stroke:none"
         d="m 5498.42,9002.1 -271.83,-551.6 -192.15,50.5 c 0,0 18.56,135.9 34.82,225.3 16.25,89.4 97.54,356 169.06,424.3 71.53,68.3 66.99,111.2 132.66,84.8 65.67,-26.3 150.2,-159.5 150.2,-159.5 l -22.76,-73.8" /><path
         id="path416"
         style="fill:#343434;fill-opacity:1;fill-rule:nonzero;stroke:none"
         d="m 5622.17,8846.9 3.54,-205.2 -146.8,-173.9 h -126.79 l -49.99,-37.1 -75.54,19.8 94.87,124.6 160.7,66.6 -19.5,161 100.78,185.3 58.73,-141.1" /><path
         id="path418"
         style="fill:#c37140;fill-opacity:1;fill-rule:nonzero;stroke:none"
         d="m 5472.41,11267.1 c 0,0 98.62,8.7 224.33,0 125.72,-8.6 242.76,32.5 361.97,-45.5 119.22,-78 173.4,-156 182.07,-257.9 8.67,-101.9 10.84,-160.4 0,-273.1 -10.84,-112.7 -21.67,-190.8 -21.67,-190.8 0,0 14.09,-497.4 -50.94,-799.8 -65.02,-302.3 -65.02,-302.3 -65.02,-302.3 0,0 98.62,159.3 170.14,157.1 71.53,-2.1 78.03,-56.3 80.2,-62.8 2.17,-6.5 43.89,-3.3 60.15,-14.7 16.25,-11.3 24.38,-47.1 24.38,-47.1 0,0 27.64,-6.5 37.39,-32.5 9.76,-26 0,-50.4 0,-50.4 0,0 27.64,-11.4 32.51,-39 4.88,-27.7 4.88,-27.7 4.88,-27.7 0,0 27.64,-22.7 24.39,-63.4 -3.26,-40.6 -50.4,-102.4 -50.4,-102.4 0,0 1.08,-106.2 -59.6,-184.2 -60.69,-78 -205.92,-249.3 -281.78,-333.8 -75.86,-84.5 -125.71,-310 -325.12,-296.9 -199.41,13 -190.74,312.1 -197.24,390.1 -6.5,78 23.84,429.2 -88.87,771.6 -112.71,342.5 -43.35,819.3 -43.35,819.3 0,0 -177.73,368.5 -169.06,494.2 8.67,125.7 150.64,492 150.64,492" /><path
         id="path420"
         style="fill:#9d4a30;fill-opacity:1;fill-rule:nonzero;stroke:none"
         d="m 6145.41,10762.1 c 0,0 -226.17,-323.5 -461.67,-460.6 L 5480.12,10183 v -97.1 c 0,0 173.4,43.3 332.64,169 159.25,125.7 332.65,507.2 332.65,507.2" /><path
         id="path422"
         style="fill:#c37140;fill-opacity:1;fill-rule:nonzero;stroke:none"
         d="m 4929.46,9969.9 c 0,0 48.76,-172.3 81.28,-305.6 32.51,-133.3 113.79,-435.7 113.79,-435.7 l 178.82,217.8 159.31,-308.9 c 0,0 -78.03,-195 -94.29,-250.3 -16.25,-55.2 -113.79,-367.3 -224.33,-383.6 -110.54,-16.3 -204.83,42.3 -240.59,195.1 -35.77,152.8 -12.99,144.8 -39.01,204.1 -26.02,59.2 -237.35,469.3 -237.35,469.3 0,0 20.59,297.6 48.77,376.7 28.18,79.1 253.6,221.1 253.6,221.1" /><path
         id="path424"
         style="fill:#adadab;fill-opacity:1;fill-rule:nonzero;stroke:none"
         d="m 5252.41,10085.9 355.47,-565.2 56.35,-415.6 c 0,0 165.31,-182.3 -62.56,54.6 -227.88,236.9 -510.89,856.4 -510.89,856.4 l 161.63,69.8" /><path
         id="path426"
         style="fill:#797a7b;fill-opacity:1;fill-rule:nonzero;stroke:none"
         d="m 5005.32,9904.9 658.91,-1206.3 v 406.5 l -533.2,963.4 -125.71,-163.6" /><path
         id="path428"
         style="fill:#c37140;fill-opacity:1;fill-rule:nonzero;stroke:none"
         d="m 6512.8,9280.6 c 0,0 0,0 -4.88,27.7 -4.87,27.6 -32.51,39 -32.51,39 0,0 9.76,24.4 0,50.4 -9.75,26 -37.39,32.5 -37.39,32.5 0,0 -8.12,35.8 -24.38,47.1 -16.26,11.4 -57.98,8.2 -60.15,14.7 -2.17,6.5 -8.67,60.7 -80.2,62.8 -71.52,2.2 -170.14,-157.1 -170.14,-157.1 0,0 0,0 65.02,302.3 13.15,61.2 23.06,130.3 30.51,201.6 h -728.51 c 2.71,-141.8 18.54,-301.8 64.01,-440 112.71,-342.4 82.37,-693.6 88.87,-771.6 6.5,-78 -2.17,-377.1 197.24,-390.1 199.41,-13.1 249.26,212.4 325.12,296.9 75.87,84.5 221.08,255.8 281.78,333.8 60.68,78 59.6,184.2 59.6,184.2 0,0 47.14,61.8 50.4,102.4 3.24,40.7 -24.39,63.4 -24.39,63.4" /><path
         id="path430"
         style="fill:#c1bfbd;fill-opacity:1;fill-rule:nonzero;stroke:none"
         d="m 4427.22,9372.1 c 0,0 -209.78,-237.8 -196.78,-234.5 13.01,3.2 611.23,124.6 611.23,124.6 l 87.79,642.7 c 0,0 -399.9,-71.7 -409.66,-97.7 -9.75,-25.9 -92.58,-435.1 -92.58,-435.1" /><path
         id="path432"
         style="fill:#252322;fill-opacity:1;fill-rule:nonzero;stroke:none"
         d="m 3069.75,10757.8 -75.85,-199.4 c 0,0 -67.2,-409.7 59.6,-627.5 126.8,-217.9 471.43,-263.4 471.43,-263.4 0,0 887.58,-169 1196.45,13 308.86,182.1 360.88,269.9 432.41,312.2 71.53,42.2 529.95,308.8 529.95,308.8 0,0 71.53,347.9 0,591.7 -71.53,243.9 -211.33,373.9 -211.33,373.9 0,0 -399.9,-113.8 -409.65,-117 -9.76,-3.3 -260.1,-100.8 -260.1,-100.8 l -1550.83,-169.1 -182.08,-122.4" /><path
         id="path434"
         style="fill:#343434;fill-opacity:1;fill-rule:nonzero;stroke:none"
         d="m 6532.31,13347.9 c 9.75,9.8 150.64,177.8 150.64,177.8 0,0 56.35,156 84.53,171.2 28.18,15.2 95.37,-6.5 108.37,-47.7 13.01,-41.2 -95.37,-362.2 -95.37,-362.2 l -248.17,60.9" /><path
         id="path436"
         style="fill:#343434;fill-opacity:1;fill-rule:nonzero;stroke:none"
         d="m 6508.16,12997.5 c 0,0 -39.79,-163.3 14.39,-265.1 54.19,-101.9 1108.67,-522.4 1147.69,-522.4 39.01,0 152.8,344.6 152.8,344.6 0,0 188.57,526.7 191.82,653.5 3.26,126.8 -68.27,170.6 -156.05,218.6 -87.79,48 -642.66,194.3 -683.84,190 -41.19,-4.3 -97.54,-86.7 -32.52,-138.7 65.03,-52.1 648.08,-184.3 678.42,-234.1 30.35,-49.9 -227.58,-828 -227.58,-828 l -891.92,386.9 c 0,0 -5.42,239.5 -14.09,246 -8.67,6.5 -179.12,-51.3 -179.12,-51.3" /><path
         id="path438"
         style="fill:#343434;fill-opacity:1;fill-rule:nonzero;stroke:none"
         d="m 6438.02,13578.8 c 0,0 8.13,-130.2 -50.39,-152.1 0,0 -653.5,113 -778.67,106.5 -125.17,-6.5 -240.59,-131.6 -242.21,-136.5 -1.63,-4.9 -177.2,42.2 -177.2,42.2 0,0 156.06,241.1 372.27,262.8 216.21,21.7 876.2,-122.9 876.2,-122.9" /><path
         id="path440"
         style="fill:#e9eef1;fill-opacity:1;fill-rule:nonzero;stroke:none"
         d="m 3814.29,13926.6 -347.88,-87 c 0,0 -247.1,-75.6 -372.81,-255.4 -125.71,-179.9 -130.05,-275.5 -134.38,-297.2 -4.34,-21.6 -56.36,-325.3 -39.02,-426.8 17.34,-101.4 60.69,-234.1 86.7,-286.1 26.01,-52 108.38,-650.2 177.73,-780.3 69.36,-130 68.59,-372.8 34.68,-494.2 -33.9,-121.3 -149.56,-541.8 -149.56,-541.8 0,0 370.65,91 656.75,0 286.11,-91.1 403.16,-164.7 550.55,-221.1 147.38,-56.4 294.77,0 294.77,0 0,0 225.42,299.1 238.42,325.1 13.01,26 54.19,314.3 67.2,363.1 13,48.7 295.86,842 325.12,910.3 29.26,68.3 136.55,247.1 143.05,282.9 6.51,35.7 52.02,351.1 52.02,351.1 l -250.34,695.8 -237.19,153.4 c 0,0 -682.91,246.5 -715.42,253 -32.51,6.5 -380.39,55.2 -380.39,55.2" /><path
         id="path442"
         style="fill:#c37140;fill-opacity:1;fill-rule:nonzero;stroke:none"
         d="m 4011.03,14348.8 c 0,0 -20.33,-204.1 -79.83,-277.1 -59.49,-73 -244.66,-177 -244.66,-177 0,0 188.9,-66.3 208.23,-194.1 19.32,-127.8 9.05,-131.7 47.53,-137.1 38.47,-5.3 141.66,103.4 384.62,113.7 242.97,10.3 583.18,-58.8 583.18,-58.8 0,0 -152.48,124.5 -170.64,170.1 -18.15,45.6 12.44,144.3 12.44,144.3 0,0 111.71,-10.5 143.72,27.4 32,38 184.15,440.8 195.59,499.3 11.43,58.4 3.88,168.2 3.88,168.2 0,0 29.47,43 36.83,74.6 7.35,31.6 -7.13,373.5 -7.13,373.5 0,0 -522.28,-147 -558.27,-166.4 -35.99,-19.3 -555.49,-560.6 -555.49,-560.6" /><path
         id="path444"
         style="fill:#e28c61;fill-opacity:1;fill-rule:nonzero;stroke:none"
         d="m 4935.93,14699.4 c 0,0 -55.45,-299.9 -51.32,-315.3 4.14,-15.5 30.61,-19.6 32.88,-14.3 2.27,5.3 78.82,305.2 62.93,324.6 -15.89,19.3 -18.68,29.7 -44.49,5" /><path
         id="path446"
         style="fill:#9d4a30;fill-opacity:1;fill-rule:nonzero;stroke:none"
         d="m 4751.9,13932.8 27.22,233 21.5,-234.1 z" /><path
         id="path448"
         style="fill:#b9bdbe;fill-opacity:1;fill-rule:nonzero;stroke:none"
         d="m 3826.17,13267.7 c 0,0 -91.04,-190.8 -125.71,-541.9 -34.69,-351.1 0,-619.9 0,-619.9 0,0 -98.63,319.7 -53.11,631.8 45.52,312.2 178.82,530 178.82,530" /><path
         id="path450"
         style="fill:#c37140;fill-opacity:1;fill-rule:nonzero;stroke:none"
         d="m 5147.29,13465 c 0,0 -419.41,-19.6 -592.81,-249.3 -173.4,-229.8 -273.1,-880 138.72,-971 411.82,-91.1 611.23,342.4 611.23,342.4 0,0 174.48,-123.5 385.81,-107.3 211.33,16.3 331.63,139.8 331.63,139.8 0,0 139.8,107.3 286.1,182.1 146.31,74.8 224.34,169.1 224.34,169.1 l -113.79,364.1 c 0,0 -84.54,13 -170.69,3.3 -86.16,-9.8 -177.2,-69.9 -177.2,-69.9 l -225.96,-6.5 c 0,0 -87.78,117 -261.72,154.4 -173.94,37.4 -325.12,32.5 -325.12,32.5 l -110.54,16.3" /><path
         id="path452"
         style="fill:#e28c61;fill-opacity:1;fill-rule:nonzero;stroke:none"
         d="m 5310.83,13448.4 c 0,0 243.94,-51.7 365.32,-114.6 121.38,-62.8 231.92,-211.3 229.76,-208 -2.17,3.2 -26.01,92.1 -26.01,92.1 l 190.74,50.4 -225.97,-6.5 c 0,0 -87.78,117 -261.72,154.4 -111.23,23.9 -213.08,30.5 -272.12,32.2 v 0" /><path
         id="path454"
         style="fill:#9d4a30;fill-opacity:1;fill-rule:nonzero;stroke:none"
         d="m 4974.97,12434.3 185.32,84.6 57.1,-66.9 c 58.24,72.6 87.04,135.1 87.04,135.1 l -157.14,22.8 -172.32,-175.6" /><path
         id="path456"
         style="fill:#9d4a30;fill-opacity:1;fill-rule:nonzero;stroke:none"
         d="m 6002.36,12957.8 c 0,0 13,-104.1 -61.77,-195.1 0,0 156.05,61.8 61.77,195.1" /><path
         id="path458"
         style="fill:#c37140;fill-opacity:1;fill-rule:nonzero;stroke:none"
         d="m 6357.21,13340.7 c 0,0 81.9,58.2 105.74,70.1 23.84,11.9 162.56,21.6 223.25,11.9 60.69,-9.8 237.34,-131.1 250.34,-160.4 13.01,-29.3 0,-65 0,-76.9 0,-12 19.51,-51 16.26,-82.4 -3.25,-31.4 -34.68,-83.5 -34.68,-83.5 0,0 7.59,-57.4 -5.42,-75.8 -13,-18.4 -74.78,-45.5 -75.86,-48.8 -1.08,-3.2 9.75,-34.7 -14.09,-53.1 -23.84,-18.4 -121.38,-39 -121.38,-39 0,0 -28.18,20.6 -32.51,27.1 -4.34,6.5 -13.67,33.6 -13.67,33.6 l -122.88,107.3 c 0,0 -193.99,212.4 -193.99,237.3 0,24.9 18.89,132.6 18.89,132.6" /><path
         id="path460"
         style="fill:#100f0d;fill-opacity:1;fill-rule:nonzero;stroke:none"
         d="m 7597.62,12652.2 -105.09,-379 177.71,-63.2 c 0,0 74.77,-54.2 100.78,32.5 26.01,86.7 52.02,312.1 52.02,312.1 0,0 -84.53,78 -225.42,97.6" /><path
         id="path462"
         style="fill:#adadab;fill-opacity:1;fill-rule:nonzero;stroke:none"
         d="m 764.645,6455.3 v -354.4 l 143.05,-52 3.254,341.4 -146.304,65" /><path
         id="path464"
         style="fill:#343434;fill-opacity:1;fill-rule:nonzero;stroke:none"
         d="m 1923.23,6575.7 c 0,-32.9 -26.7,-59.6 -59.64,-59.6 -32.94,0 -59.64,26.7 -59.64,59.6 0,33 26.7,59.7 59.64,59.7 32.94,0 59.64,-26.7 59.64,-59.7" /><path
         id="path466"
         style="fill:#9d4a30;fill-opacity:1;fill-rule:nonzero;stroke:none"
         d="m 6103.15,9397.7 c 0,0 -87.79,-384.7 -100.79,-447.6 -13.01,-62.9 -21.68,-283.9 -17.34,-266.6 4.33,17.3 73.69,366.3 88.87,420.5 15.17,54.2 80.98,365.2 80.98,365.2 l -51.72,-71.5" /><path
         id="path468"
         style="fill:#9d4a30;fill-opacity:1;fill-rule:nonzero;stroke:none"
         d="m 6353.49,9492 c 0,0 -37.93,-12 -58.52,-27.1 -20.59,-15.2 -98.62,-100.8 -93.2,-92.1 5.42,8.6 23.84,70.4 59.6,104 35.77,33.6 80.95,43.9 80.95,43.9 l 11.17,-28.7" /><path
         id="path470"
         style="fill:#9d4a30;fill-opacity:1;fill-rule:nonzero;stroke:none"
         d="m 6438.02,9430.2 c 0,0 -36.84,-5.4 -63.94,-17.3 -27.09,-12 -94.28,-73.7 -91.03,-71.6 3.25,2.2 47.68,68.3 70.44,84.6 22.76,16.2 75.06,31.4 75.06,31.4 l 9.47,-27.1" /><path
         id="path472"
         style="fill:#9d4a30;fill-opacity:1;fill-rule:nonzero;stroke:none"
         d="m 6475.41,9347.3 c 0,0 -27.63,-1.6 -67.73,-25.5 -40.1,-23.8 -73.7,-49.8 -69.36,-45.5 4.33,4.3 30.34,53.1 62.86,71 32.51,17.9 78.54,24.8 78.54,24.8 l -4.31,-24.8" /><path
         id="path474"
         style="fill:#9d4a30;fill-opacity:1;fill-rule:nonzero;stroke:none"
         d="m 6512.8,9280.6 c 0,0 -33.59,-18.4 -44.43,-28.1 -10.84,-9.8 -59.54,-54.2 -59.54,-54.2 0,0 22.69,55.4 47.62,77.5 24.92,22.2 51.47,32.5 51.47,32.5 l 4.88,-27.7" /><path
         id="path476"
         style="fill:#252322;fill-opacity:1;fill-rule:nonzero;stroke:none"
         d="m 4864.44,9505.9 c 0,-42.5 -30.56,-77 -68.26,-77 -37.7,0 -68.26,34.5 -68.26,77 0,42.6 30.56,77.1 68.26,77.1 37.7,0 68.26,-34.5 68.26,-77.1" /><path
         id="path478"
         style="fill:#252322;fill-opacity:1;fill-rule:nonzero;stroke:none"
         d="m 4334.48,8641.7 c 0,-31.4 -20.18,-56.8 -45.08,-56.8 -24.9,0 -45.09,25.4 -45.09,56.8 0,31.4 20.19,56.9 45.09,56.9 24.9,0 45.08,-25.5 45.08,-56.9" /><path
         id="path480"
         style="fill:#8f908f;fill-opacity:1;fill-rule:nonzero;stroke:none"
         d="m 3676.65,6297.1 c 13.01,-2.2 656.75,-190.7 656.75,-190.7 0,0 171.23,84.5 164.73,95.3 -6.51,10.9 -663.25,190.8 -663.25,190.8 l -158.23,-95.4" /><path
         id="path482"
         style="fill:#343434;fill-opacity:1;fill-rule:nonzero;stroke:none"
         d="m 3893.4,6361.7 c 0,-22.9 -28.63,-41.5 -63.94,-41.5 -35.31,0 -63.94,18.6 -63.94,41.5 0,23 28.63,41.6 63.94,41.6 35.31,0 63.94,-18.6 63.94,-41.6" /><path
         id="path484"
         style="fill:#343434;fill-opacity:1;fill-rule:nonzero;stroke:none"
         d="m 4383.5,6230.3 c 0,-23 -28.63,-41.6 -63.94,-41.6 -35.32,0 -63.94,18.6 -63.94,41.6 0,23 28.62,41.6 63.94,41.6 35.31,0 63.94,-18.6 63.94,-41.6" /><path
         id="path486"
         style="fill:#adadab;fill-opacity:1;fill-rule:nonzero;stroke:none"
         d="m 4435.27,8386.6 2684.79,-677.8 275.22,172.4 -2896.97,760.5 -63.04,-255.1" /><path
         id="path488"
         style="fill:#343434;fill-opacity:1;fill-rule:nonzero;stroke:none"
         d="m 6272.63,5301.7 c -14.08,-61 -50.4,-104.7 -81.11,-97.6 -30.72,7.1 -44.21,62.3 -30.13,123.3 14.08,61 50.4,104.7 81.11,97.6 30.72,-7.1 44.21,-62.3 30.13,-123.3" /><path
         id="path490"
         style="fill:#343434;fill-opacity:1;fill-rule:nonzero;stroke:none"
         d="m 6522.99,5535.5 c -14.08,-61 -50.4,-104.7 -81.12,-97.6 -30.71,7.1 -44.2,62.3 -30.12,123.3 14.08,61 50.39,104.7 81.11,97.6 30.72,-7.1 44.21,-62.3 30.13,-123.3" /><path
         id="path492"
         style="fill:#797a7b;fill-opacity:1;fill-rule:nonzero;stroke:none"
         d="m 7281.17,7393.8 -221.08,-793.3 1109.75,1170.5 294.78,86.7 -1664.63,-1714.5 440.5,1411 1068.07,621.8 199.41,-10 v -156.6 l -200.5,6.5 -1026.3,-622.1" /><path
         id="path494"
         style="fill:#797a7b;fill-opacity:1;fill-rule:nonzero;stroke:none"
         d="m 7422.48,8884 533.86,-90 -44.77,-230.9 -245.63,119.4 -243.46,201.5" /><path
         id="path496"
         style="fill:#797a7b;fill-opacity:1;fill-rule:nonzero;stroke:none"
         d="m 7240.49,8909 65.61,-86.8 225.07,-28.1 -108.69,89.9 -181.99,25" /><path
         id="path498"
         style="fill:#797a7b;fill-opacity:1;fill-rule:nonzero;stroke:none"
         d="m 8167.67,8610.9 v 240.6 l 461.67,634 3.26,-209.7 -464.93,-664.9" /><path
         id="path500"
         style="fill:#9d9d9c;fill-opacity:1;fill-rule:nonzero;stroke:none"
         d="m 9452.11,8610.9 10.15,80.8 -686.61,102.4 c 0,0 -68.28,-92.2 -26.01,-222.2 l 692.32,-119.9 10.15,158.9" /><path
         id="path502"
         style="fill:#c1bfbd;fill-opacity:1;fill-rule:nonzero;stroke:none"
         d="m 8473.42,9048.2 21.87,-1093.7 134.05,-36.1 78.03,113.8 -41.18,1183.4 h -75.79 l -116.98,-167.4" /><path
         id="path504"
         style="fill:#343434;fill-opacity:1;fill-rule:nonzero;stroke:none"
         d="m 8666.19,8978.6 c 0,-38.5 -20.62,-69.6 -46.06,-69.6 -25.43,0 -46.06,31.1 -46.06,69.6 0,38.4 20.63,69.6 46.06,69.6 25.44,0 46.06,-31.2 46.06,-69.6" /><path
         id="path506"
         style="fill:#343434;fill-opacity:1;fill-rule:nonzero;stroke:none"
         d="m 8666.19,8521.6 c 0,-38.4 -20.62,-69.6 -46.06,-69.6 -25.43,0 -46.06,31.2 -46.06,69.6 0,38.5 20.63,69.6 46.06,69.6 25.44,0 46.06,-31.1 46.06,-69.6" /><path
         id="path508"
         style="fill:#2f1d16;fill-opacity:1;fill-rule:nonzero;stroke:none"
         d="m 4991.59,14485.4 c 0,0 36.23,102.4 36.08,105.8 -0.14,3.5 47.37,167.8 47.08,174.7 -0.3,7 23.73,192.3 26.39,211.5 2.66,19.2 24.75,72.3 24.75,72.3 0,0 45,46 50.23,141.2 5.24,95.3 -167.23,336 -504.41,361.2 -337.19,25.1 -545.1,-210.9 -545.1,-210.9 0,0 -148.21,-112.9 -177.97,-285.7 -29.77,-172.8 66.39,-637 62.39,-706.7 0,0 125.38,-59.6 288.53,-80.5 163.16,-20.9 245.38,8.1 263.79,11.2 18.42,3.1 237.69,244.2 263.79,284.7 26.11,40.5 100.37,148 137.39,149.5 37.02,1.6 27.06,-228.3 27.06,-228.3" /><path
         id="path510"
         style="fill:#adadab;fill-opacity:1;fill-rule:nonzero;stroke:none"
         d="m 4120.02,7892.4 -175.68,-1541.1 305.61,-97.5 206.16,1638.6 h -336.09" /><path
         id="path512"
         style="fill:#c1bfbd;fill-opacity:1;fill-rule:nonzero;stroke:none"
         d="m 9519.94,8566.1 c -5.61,-66.2 -40.52,-117.3 -77.98,-114.1 -37.46,3.2 -63.28,59.4 -57.68,125.6 5.61,66.2 40.52,117.3 77.98,114.1 37.46,-3.1 63.28,-59.4 57.68,-125.6" /><path
         id="path514"
         style="fill:#343434;fill-opacity:1;fill-rule:nonzero;stroke:none"
         d="m 8092.89,7869.6 v -118.1 l 347.89,-17 67.19,79.8 v 55.3 h -415.08" /><path
         id="path516"
         style="fill:#2f1d16;fill-opacity:1;fill-rule:nonzero;stroke:none"
         d="m 4136.26,15347.8 c -4.75,10.1 25.86,89.4 72.43,108 46.57,18.6 72.32,64 124,71.6 51.69,7.5 121.46,50.3 176.11,43 54.66,-7.3 110.42,-16.3 201.22,-14.6 90.8,1.6 103.18,-39.6 149.85,-51.2 46.68,-11.5 84.23,-2.7 133.5,-46.4 49.26,-43.7 53.36,-76.1 93.55,-95.1 40.19,-19 77.93,-70.6 77.85,-109.4 -0.08,-38.8 23.68,-80.5 14.15,-139.1 -9.53,-58.5 -72.05,-91.9 -72.05,-91.9 0,0 -408.71,53.2 -449.87,68.6 -41.17,15.3 -520.74,256.5 -520.74,256.5" /></g></g></svg>