<?xml version="1.0" encoding="UTF-8" standalone="no"?>
<svg
   xmlns:dc="http://purl.org/dc/elements/1.1/"
   xmlns:cc="http://creativecommons.org/ns#"
   xmlns:rdf="http://www.w3.org/1999/02/22-rdf-syntax-ns#"
   xmlns:svg="http://www.w3.org/2000/svg"
   xmlns="http://www.w3.org/2000/svg"
   viewBox="0 0 2666.6667 2666.6667"
   height="2666.6667"
   width="2666.6667"
   xml:space="preserve"
   id="svg2"
   version="1.1"><metadata
     id="metadata8"><rdf:RDF><cc:Work
         rdf:about=""><dc:format>image/svg+xml</dc:format><dc:type
           rdf:resource="http://purl.org/dc/dcmitype/StillImage" /></cc:Work></rdf:RDF></metadata><defs
     id="defs6" /><g
     transform="matrix(1.3333333,0,0,-1.3333333,0,2666.6667)"
     id="g10"><g
       transform="scale(0.1)"
       id="g12"><g
         transform="scale(1.22699)"
         id="g14"><path
           id="path16"
           style="fill:none;fill-opacity:1;fill-rule:nonzero;stroke:none"
           d="M 16300,0 H 0 V 16300 H 16300 V 0" /></g><path
         id="path18"
         style="fill:#252323;fill-opacity:1;fill-rule:nonzero;stroke:none"
         d="m 4756.71,4559.6 -102,80.4 c 0,0 -50.75,-47.6 -76.13,-120.5 -25.37,-73 -31.71,-276 -38.06,-310.9 -6.34,-34.9 -104.67,-187.1 -69.78,-247.4 34.89,-60.2 228.38,-47.6 507.49,-98.3 279.12,-50.8 583.61,-50.8 640.71,-19 57.09,31.7 34.89,139.5 -28.55,199.8 -63.44,60.3 -171.28,63.4 -279.12,152.2 -107.84,88.8 -237.84,363.7 -253.72,382.8 -15.88,19 -74.5,37.2 -74.5,37.2 l -179.27,81.2 -47.07,-137.5" /><path
         id="path20"
         style="fill:#252323;fill-opacity:1;fill-rule:nonzero;stroke:none"
         d="m 5954.09,4749.9 c 0,0 -107.84,-16.9 -118.42,-93 -10.57,-76.1 -10.57,-173.4 -19.02,-285.5 -8.46,-112 -50.76,-196.6 -29.61,-249.5 21.15,-52.8 306.61,-71.9 410.22,-48.6 103.61,23.3 101.5,59.2 154.36,50.7 52.86,-8.4 50.75,-59.2 207.23,-101.5 156.47,-42.2 469.42,-40.1 532.86,0 63.43,40.2 2.11,145.9 -71.9,175.5 -74,29.6 -262.2,81.2 -370.04,172.8 -107.84,91.6 -266.43,347.4 -312.95,393.9 -46.52,46.6 -107.84,63.5 -116.3,61.4 -8.46,-2.2 -266.43,-76.2 -266.43,-76.2" /><path
         id="path22"
         style="fill:#ffffff;fill-opacity:1;fill-rule:nonzero;stroke:none"
         d="m 4748.8,4618.8 -77.01,-42.2 -1.25,-177.7 c 0,0 136.41,76.1 139.59,85.7 3.17,9.5 32.76,75 32.76,75 l -48.62,80.4 -45.47,-21.2" /><path
         id="path24"
         style="fill:#ffffff;fill-opacity:1;fill-rule:nonzero;stroke:none"
         d="m 6004.84,4711.9 -60.48,-42.3 c 0,0 -13.95,-101.5 0,-126.9 13.96,-25.4 85.85,-33.8 140.83,-16.9 54.98,16.9 126.87,143.8 126.87,143.8 l -136.95,80.3 -70.27,-38" /><path
         id="path26"
         style="fill:#c37140;fill-opacity:1;fill-rule:nonzero;stroke:none"
         d="m 5015.23,7295.8 c 0,0 -12.68,-329.8 -50.74,-482.1 -38.06,-152.2 -207.22,-452.5 -257.98,-702 -50.74,-249.5 -29.6,-1015 -33.83,-1171.5 -4.23,-156.4 -0.89,-363.6 -0.89,-363.6 l 171.1,-17 c 0,0 41.25,38.1 96.22,55 54.98,16.9 38.06,-16.9 54.98,16.9 16.92,33.9 59.21,482.1 190.31,879.7 131.1,397.5 135.33,752.7 181.85,841.6 46.52,88.8 215.68,448.2 270.66,613.2 54.97,164.9 88.81,329.8 71.89,346.8 -16.92,16.9 -492.56,67.6 -516.94,67.6 -24.38,0 -176.63,-84.6 -176.63,-84.6" /><path
         id="path28"
         style="fill:#c37140;fill-opacity:1;fill-rule:nonzero;stroke:none"
         d="m 5910.8,7205.8 c 0,0 26.37,-151 41.17,-337.1 14.81,-186.1 27.49,-236.8 27.49,-236.8 0,0 -82.36,-355.3 -68.66,-579.4 13.69,-224.2 28.06,-367.9 33.56,-718.9 5.5,-351.1 0,-664 0,-664 h 267.7 l 42.29,71.9 c 0,0 236.83,1154.5 262.2,1463.2 25.38,308.8 16.92,351.1 50.75,461 33.84,110 63.44,634.4 46.52,638.6 -16.91,4.2 -236.12,118.4 -469.07,76.1 -232.95,-42.3 -211.81,-12.7 -232.95,-42.3 -21.15,-29.6 -1,-132.3 -1,-132.3" /><path
         id="path30"
         style="fill:#9a9a9a;fill-opacity:1;fill-rule:nonzero;stroke:none"
         d="m 1987.53,15708.5 6927.06,-1743.4 c 0,0 50.75,-27.5 33.84,-69.8 -16.92,-42.3 -54.98,-44.4 -54.98,-44.4 l -6935.67,1738.2 29.75,119.4" /><path
         id="path32"
         style="fill:#3e3d3f;fill-opacity:1;fill-rule:nonzero;stroke:none"
         d="m 8552.03,14679.1 c -3.47,2.6 -6.98,5.2 -10.61,7.5 -0.64,0.4 -1.28,0.8 -1.93,1.2 -2.99,2 -6.04,3.9 -9.08,5.7 -175.18,109 -333.35,83.7 -333.35,83.7 l -11.94,-58.9 c -184.17,-69.5 -355.44,-257.1 -438.16,-506.7 -77.77,-234.7 -58.28,-467.1 34.96,-624.7 -8.84,-64.2 1.31,-114.5 41.97,-138.1 184.63,-107 312.37,-58.4 312.37,-58.4 0,0 0.17,0 0.21,0.1 228.8,15 464.28,228.2 565.96,535.1 103.4,312 35.01,620.1 -150.4,753.5" /><path
         id="path34"
         style="fill:#5e6061;fill-opacity:1;fill-rule:nonzero;stroke:none"
         d="m 8560.84,13955.2 c -121.45,-366.6 -433.8,-599.7 -697.65,-520.8 -263.84,79 -379.27,440.2 -257.81,806.7 121.45,366.6 433.8,599.7 697.64,520.7 263.85,-78.9 379.28,-440.1 257.82,-806.6" /><path
         id="path36"
         style="fill:#252323;fill-opacity:1;fill-rule:nonzero;stroke:none"
         d="m 5209.78,9507.6 c 0,0 -76.7,-60.2 -92.28,-110.5 -15.57,-50.2 0,-151.7 0,-151.7 0,0 -79,-158.6 -110.72,-355.2 -31.72,-196.7 -114.19,-1611.3 -114.19,-1611.3 l 1059.38,-76.1 c 0,0 190.32,-12.7 450.4,0 260.09,12.7 355.24,50.7 355.24,50.7 0,0 -70.24,1528.9 -82.69,1693.8 -12.46,164.9 -82.24,327.7 -221.8,484.2 -139.56,156.5 -444.05,258 -577.27,251.6 -133.21,-6.3 -507.49,-50.7 -507.49,-50.7 l -158.58,-124.8" /><path
         id="path38"
         style="fill:#9a9a9a;fill-opacity:1;fill-rule:nonzero;stroke:none"
         d="m 7933.72,14212 -5946.19,1496.5 -29.75,-119.4 5975.94,-1497.7 v 120.6" /><path
         id="path40"
         style="fill:#a45634;fill-opacity:1;fill-rule:nonzero;stroke:none"
         d="m 7254.97,14382.8 c 0,0 54.69,44.9 102.27,44.9 47.57,0 68.19,-19.5 74.54,-22.5 6.34,-2.9 39.65,8.2 71.36,-7.7 31.72,-15.8 65.02,-31.7 65.02,-31.7 0,0 47.29,-3.2 70.43,-20.6 23.14,-17.5 39.69,-99 17.94,-116.1 -21.76,-17.1 -72.51,32 -72.51,32 0,0 4.22,-30.5 -51.02,-16 -55.23,14.4 -94.88,33.2 -94.88,33.2 l -38.68,68.1 -144.47,36.4" /><path
         id="path42"
         style="fill:#3e3d3f;fill-opacity:1;fill-rule:nonzero;stroke:none"
         d="m 3464.11,16077.9 c -3.9,3.1 -7.84,6.1 -11.91,8.9 -0.72,0.4 -1.44,0.9 -2.16,1.4 -3.36,2.3 -6.78,4.5 -10.19,6.7 -196.57,128.7 -374.05,98.7 -374.05,98.7 l -13.4,-69.5 c -206.66,-82 -398.84,-303.5 -491.65,-598.2 -87.26,-277.1 -65.4,-551.4 39.22,-737.5 -9.92,-75.8 1.48,-135.2 47.1,-163 207.16,-126.3 350.51,-69 350.51,-69 0,0 0.18,0.1 0.24,0.1 256.73,17.7 520.95,269.5 635.05,631.8 116.03,368.4 39.29,732.1 -168.76,889.6" /><path
         id="path44"
         style="fill:#767779;fill-opacity:1;fill-rule:nonzero;stroke:none"
         d="m 3474,15223.2 c -136.29,-432.8 -486.77,-708 -782.83,-614.8 -296.06,93.3 -425.58,519.7 -289.29,952.4 136.28,432.8 486.76,708 782.82,614.8 296.06,-93.3 425.58,-519.7 289.3,-952.4" /><path
         id="path46"
         style="fill:#5e6061;fill-opacity:1;fill-rule:nonzero;stroke:none"
         d="m 3474,15223.2 c -125.05,-397.1 -446.63,-649.6 -718.27,-564.1 -271.64,85.6 -390.48,476.8 -265.44,873.9 125.05,397 446.63,649.6 718.27,564 271.64,-85.5 390.48,-476.8 265.44,-873.8" /><path
         id="path48"
         style="fill:#c37140;fill-opacity:1;fill-rule:nonzero;stroke:none"
         d="m 6646.06,11437.7 c -3.27,24.9 137.08,184.5 302.02,332.5 164.93,148 304.49,444.1 363.7,613.2 59.21,169.2 105.72,287.6 160.7,384.9 54.98,97.2 131.1,410.2 156.48,663.9 25.37,253.8 33.83,363.7 33.83,363.7 l -190.31,42.3 c 0,0 -50.75,-270.6 -177.62,-414.4 -126.87,-143.8 -177.62,-411.1 -190.3,-488.9 -12.69,-77.8 -54.98,-158.2 -109.96,-225.8 -54.98,-67.7 -203,-228.4 -257.97,-329.9 -54.98,-101.5 -24.76,-140.8 -90.62,-186.7 -65.86,-45.9 -332.01,-208.7 -332.01,-208.7 0,0 12.41,-480 25.09,-484.2 12.69,-4.3 306.97,-61.9 306.97,-61.9" /><path
         id="path50"
         style="fill:#c37140;fill-opacity:1;fill-rule:nonzero;stroke:none"
         d="m 4953.23,11063 c 0,0 -28.76,502.1 -47.79,571.9 -19.03,69.8 -190.31,247.4 -253.75,485.3 -63.43,237.9 -109.95,618.5 -135.32,698.8 -25.38,80.4 -38.07,122.7 -50.75,228.4 -12.69,105.7 -97.27,279.1 -143.79,596.3 -46.52,317.2 -29.61,1044.6 -29.61,1044.6 h 279.12 c 0,0 12.69,-414.5 71.9,-634.4 59.2,-219.9 143.79,-351 181.85,-486.3 38.06,-135.4 29.6,-283.4 71.89,-342.6 42.29,-59.2 139.56,-287.6 215.68,-477.9 76.12,-190.3 109.96,-304.5 114.19,-321.4 4.23,-16.9 391.06,-338.3 391.06,-338.3 l 327.88,-807.8 -564.58,-678.7 -427.98,462.1" /><path
         id="path52"
         style="fill:#a45634;fill-opacity:1;fill-rule:nonzero;stroke:none"
         d="m 5374.86,11983.8 c 0,0 -19.03,-187.2 0,-237.9 19.04,-50.8 47.58,-111 60.27,-164.9 12.69,-54 28.55,-183.2 28.55,-183.2 0,0 9.51,176.8 0,230.7 -9.52,54 -46.52,149.1 -46.52,149.1 l -42.3,206.2" /><path
         id="path54"
         style="fill:#a45634;fill-opacity:1;fill-rule:nonzero;stroke:none"
         d="m 6526.57,11668.7 c -1.4,16.9 46.15,76.1 130.22,114.2 84.06,38.1 181.33,118.4 181.33,118.4 0,0 -87.44,-131.1 -155.79,-181.8 -68.35,-50.8 -114.87,-186.1 -114.87,-186.1 l -40.89,135.3" /><path
         id="path56"
         style="fill:#c37140;fill-opacity:1;fill-rule:nonzero;stroke:none"
         d="m 5765.08,12529.3 c 0,0 -1.3,-198.7 -11.87,-264.3 -10.57,-65.5 -70.84,-177.6 -70.84,-177.6 0,0 100.44,-137.5 252.69,-302.4 152.24,-164.9 287.86,-495.9 410.5,-487.4 122.65,8.5 69.12,412.3 50.09,498 -19.03,85.6 -107.47,154.2 -107.47,164.9 0,10.7 -44.4,305.6 -44.4,305.6 l -225.45,222 -186.88,155.4 -66.37,-114.2" /><path
         id="path58"
         style="fill:#e9eef1;fill-opacity:1;fill-rule:nonzero;stroke:none"
         d="m 4953.23,11063 c 0,0 180.42,-307.8 197.34,-362.8 16.91,-54.9 67.66,-338.3 101.5,-528.6 33.83,-190.3 21.14,-452.5 0,-515.9 -21.15,-63.5 -42.29,-148.1 -42.29,-148.1 0,0 173.38,84.6 545.54,-33.8 372.16,-118.4 524.41,-67.7 596.3,-55 71.9,12.7 88.81,0 101.5,12.7 12.69,12.7 181.85,778.2 198.76,1082.7 16.92,304.5 42.03,795.2 0,1019.2 -42.02,223.9 -308.85,468.4 -337.88,493.7 -39.87,34.8 -28.99,25.4 -28.99,25.4 l 3.17,-92 c 0,0 41.24,-95.1 76.13,-206.2 34.89,-111 38.95,-345.7 -50.31,-399.6 -89.25,-53.9 -311.28,367.9 -396.92,469.4 -85.63,101.5 -234.71,263.3 -234.71,263.3 h -64.46 c 0,0 83.49,-191.4 58.12,-554 -25.38,-362.7 -241.06,-527.6 -348.9,-556.2 -107.84,-28.5 -319.61,25.7 -373.9,85.8" /><path
         id="path60"
         style="fill:#c37140;fill-opacity:1;fill-rule:nonzero;stroke:none"
         d="m 4292.22,14688.3 c 0,0 -101.49,126.8 -114.18,188.2 -12.69,61.3 -5.64,157.6 -5.64,157.6 l 356.65,-77.3 c 0,0 67.67,23.3 97.27,31.7 29.6,8.5 27.49,0 29.6,8.5 2.12,8.4 4.23,33.8 0,40.2 -4.23,6.3 -63.19,-5 -73.76,18.3 -10.57,23.3 -47.87,9.3 -22.18,51.5 6.6,10.8 100.17,25.3 140.35,-2.2 40.17,-27.5 65.55,-61.3 71.89,-105.7 6.34,-44.4 16.92,-84.6 -27.49,-109.9 -44.4,-25.4 -93.04,-52.9 -122.64,-91 -29.6,-38 -50.75,-109.9 -50.75,-109.9 h -279.12" /><path
         id="path62"
         style="fill:#a45634;fill-opacity:1;fill-rule:nonzero;stroke:none"
         d="m 4455.04,14899.7 c -10.57,8.5 -108.22,95.8 -99.88,94.8 8.34,-1 173.89,-37.7 173.89,-37.7 l 45,15.2 c 0,0 -28.08,-23.6 -42.88,-46.9 -14.8,-23.3 -76.13,-25.4 -76.13,-25.4" /><path
         id="path64"
         style="fill:#c37140;fill-opacity:1;fill-rule:nonzero;stroke:none"
         d="m 7472.48,13838.2 c 0,0 -20.09,118.4 -35.95,156.5 -15.86,38.1 -152.24,130 -183.96,158.6 -31.72,28.5 -76.12,125 -76.12,125 l 142.73,-36.2 95.15,123.7 c 0,0 98.33,22.2 120.53,15.9 22.21,-6.4 41.23,-34.9 0,-50.8 -41.23,-15.8 -41.23,-34.9 -41.23,-34.9 l 107.84,-139.5 111.01,-25.4 c 0,0 3.17,-104.7 -19.03,-184 -22.2,-79.3 -30.66,-151.2 -30.66,-151.2 l -190.31,42.3" /><path
         id="path66"
         style="fill:#a45634;fill-opacity:1;fill-rule:nonzero;stroke:none"
         d="m 4245.07,15140.3 c 0,0 40.28,-18 59.31,-26 19.03,-7.9 38.46,-61.8 77.91,-74.5 39.45,-12.7 50.55,7.9 50.55,7.9 0,0 7.09,-26.9 42.4,-26.9 35.31,0 35.31,19 35.31,19 0,0 19.03,-23.8 50.75,-19 31.72,4.7 23.91,101.1 12.75,119.5 -11.16,18.5 -68.26,0 -68.26,0 0,0 -11.1,31.1 -44.4,35.9 -33.31,4.7 -55.51,-7.9 -55.51,-7.9 0,0 -41.23,11.6 -98.33,9 -57.09,-2.7 -86.72,-30.9 -86.72,-30.9 l 24.24,-6.1" /><path
         id="path68"
         style="fill:#9a9a9a;fill-opacity:1;fill-rule:nonzero;stroke:none"
         d="m 8168.94,14296.5 c 0,0.1 -0.03,0.2 -0.03,0.2 l -0.79,0.2 c -2.8,1.2 -5.7,2.1 -8.62,3 l -73.24,24.9 c 0,0 -3.22,-15.6 -8.04,-37.5 -45.79,-27.1 -85.46,-85.5 -101.91,-158.7 -16.16,-72 -5.89,-140.6 22.73,-184.8 -2.35,-15 -3.78,-24.5 -3.78,-24.5 l 50.61,-17.3 c 5.3,-2.4 10.73,-4.4 16.47,-5.7 72.64,-16.3 151.9,61.3 177.03,173.2 23.26,103.6 -8.07,200.3 -70.43,227" /><path
         id="path70"
         style="fill:#d3d2d0;fill-opacity:1;fill-rule:nonzero;stroke:none"
         d="m 3086.12,15342.4 c -32.85,-69.7 -104.95,-104.8 -161.03,-78.4 -56.09,26.5 -74.92,104.4 -42.07,174.1 32.85,69.8 104.95,104.9 161.03,78.4 56.09,-26.4 74.92,-104.3 42.07,-174.1" /><path
         id="path72"
         style="fill:#d3d2d0;fill-opacity:1;fill-rule:nonzero;stroke:none"
         d="m 8172.29,14092.5 c -25.13,-111.9 -104.39,-189.5 -177.03,-173.2 -72.64,16.3 -111.16,120.3 -86.03,232.3 25.14,111.9 104.39,189.5 177.03,173.2 72.65,-16.4 111.16,-120.3 86.03,-232.3" /><path
         id="path74"
         style="fill:#9a9a9a;fill-opacity:1;fill-rule:nonzero;stroke:none"
         d="m 8060.66,14180 c 0,0 24.51,-19.4 19.75,-58 -4.76,-38.5 -39.65,-57.4 -39.65,-57.4 l -402.17,100.8 31.78,112.9 390.29,-98.3" /><path
         id="path76"
         style="fill:#100f0d;fill-opacity:1;fill-rule:nonzero;stroke:none"
         d="m 6326.25,8731.6 c 0,0 -133.22,-729.5 -158.59,-831 -25.37,-101.5 -215.69,-697.8 -215.69,-697.8 h 285.47 c 0,0 63.43,735.9 88.81,875.4 25.37,139.6 0,653.4 0,653.4" /><path
         id="path78"
         style="fill:#9a9a9a;fill-opacity:1;fill-rule:nonzero;stroke:none"
         d="m 2984.57,15457.6 c 0,0 36.82,-27.9 34.7,-65.6 -2.11,-37.7 -31.24,-61.1 -61.58,-53.5 l -999.91,250.6 29.75,119.4 997.04,-250.9" /><path
         id="path80"
         style="fill:#d3d2d0;fill-opacity:1;fill-rule:nonzero;stroke:none"
         d="m 2021.22,15652.5 c 0,-35 -28.41,-63.4 -63.44,-63.4 -35.04,0 -63.43,28.4 -63.43,63.4 0,35 28.39,63.4 63.43,63.4 35.03,0 63.44,-28.4 63.44,-63.4" /><path
         id="path82"
         style="fill:#a45634;fill-opacity:1;fill-rule:nonzero;stroke:none"
         d="m 5844.83,12429 c 0,0 137.67,-68.9 78.78,-80.1 -50.44,-9.5 -32.49,-29.4 -32.49,-29.4 0,0 78.98,-172.6 231.57,-249.6 97.93,-49.4 157.65,-50.8 157.65,-50.8 0,0 21.69,269.1 57.97,334.2 36.29,65.1 -312.18,11.8 -334.39,44.3 -22.21,32.5 -159.09,31.4 -159.09,31.4" /><path
         id="path84"
         style="fill:#2f1d16;fill-opacity:1;fill-rule:nonzero;stroke:none"
         d="m 6473.7,13171.4 c -8.36,18.7 5.12,51 -24.48,81.2 -29.59,30.2 -66.32,39.4 -66.32,39.4 0,0 -30.19,33.3 -68.8,39.4 -38.61,6.2 -72.9,3 -72.9,3 0,0 -29.18,16.6 -79.17,18.6 -49.99,2 -94.72,-22 -114.5,-24.1 -19.78,-2.1 -59.35,-2.2 -82.25,-6.4 -22.9,-4.2 -67.64,-24.1 -74.92,-29.3 -7.28,-5.2 -46.43,-1.7 -91.24,-19.8 -44.81,-18.1 -74.17,-72.1 -74.17,-72.1 0,0 -31.2,-17.8 -42.65,-23 -0.11,-0.1 -0.25,-0.2 -0.38,-0.2 -0.67,-0.4 -2.31,-1.4 -4.7,-3.2 -7.78,-6.2 -19.21,-19.1 -31.34,-33.6 -23.67,-33.8 -51.23,-95.4 -57.35,-202.5 -11.19,-195.7 29.87,-437.7 170.88,-585.5 l 106.57,268.2 616.05,368 c 0,0 8.6,30.4 4.41,47.6 -4.2,17.1 11.72,44.9 10.88,78.1 -0.84,33.1 -15.25,37.4 -23.62,56.2" /><path
         id="path86"
         style="fill:#c37140;fill-opacity:1;fill-rule:nonzero;stroke:none"
         d="m 6442.47,13046.7 c 0,0 32.2,-41.1 39.56,-57.2 7.36,-16.1 14.28,-162.9 17.07,-200 2.78,-37.2 -6.28,-87.6 -6.1,-105.6 0.19,-18 3.73,-128.2 -0.61,-171.4 -4.35,-43.2 -50.55,-211.6 -65.68,-256.1 -15.12,-44.5 -37.28,-103.5 -58.74,-115.7 -21.45,-12.2 -116.1,-18 -200.27,6.3 -84.18,24.3 -249.57,134.1 -294.53,192.4 -44.97,58.3 -40.25,180.6 -40.25,180.6 0,0 -34.66,-10 -71,25.6 -36.33,35.6 -94.69,112.9 -83.59,199.4 11.08,86.4 77.34,55.9 111.26,21.5 33.93,-34.4 35.68,-87.1 42.89,-88.3 7.2,-1.1 14.37,1.4 17.95,2.6 3.59,1.3 19.45,90.1 20.46,108.1 1.01,18 -3.71,125.9 -1.35,129.5 2.36,3.6 90.54,112.4 119.21,123.5 28.65,11.1 453.72,4.8 453.72,4.8" /><path
         id="path88"
         style="fill:#2f1d16;fill-opacity:1;fill-rule:nonzero;stroke:none"
         d="m 5850.43,12680.8 c 0,0 21.13,62.6 31.48,96.9 10.36,34.4 0.9,80.2 10.26,87.5 9.35,7.3 27.02,28.2 24.89,54.2 -2.13,26 -2.13,26 -2.13,26 0,0 -1.08,23 34.3,35.5 35.38,12.6 50.93,55.3 50.93,55.3 0,0 89.55,-0.9 123.91,0.2 34.36,1.1 108.29,1.3 148.9,0.3 40.62,-1 161.41,-3.9 165.58,-4.9 4.16,-1.1 43.48,-42.3 43.48,-42.3 0,0 0.2,75.7 -9.18,77.7 -9.38,2.1 -1.1,31.3 -130.23,37.3 -129.13,6 -208.34,43.4 -313.43,-0.6 -105.09,-43.9 -120.75,-22 -160.23,-73.1 -39.48,-51.1 -77.85,-139.7 -67.37,-175.1 10.48,-35.4 48.84,-174.9 48.84,-174.9" /><g
         transform="scale(1.1116)"
         id="g90"><path
           id="path92"
           style="fill:#9a9a9a;fill-opacity:1;fill-rule:nonzero;stroke:none"
           d="m 10022.7,11408.3 6231.7,-1568.42 c 0,0 45.6,-24.73 30.4,-62.78 -15.2,-38.04 -49.5,-39.95 -49.5,-39.95 l -6239.27,1563.65 26.67,107.5" /></g><g
         transform="scale(1.10182)"
         id="g94"><path
           id="path96"
           style="fill:#3e3d3f;fill-opacity:1;fill-rule:nonzero;stroke:none"
           d="m 16069.7,10575.3 c -3.2,2.4 -6.4,4.7 -9.7,6.8 -0.5,0.4 -1.1,0.7 -1.7,1.1 -2.7,1.8 -5.5,3.5 -8.2,5.2 -159.1,98.9 -302.6,75.9 -302.6,75.9 l -10.8,-53.5 c -167.2,-63 -322.6,-233.3 -397.8,-459.8 -70.5,-213.05 -52.8,-423.94 31.8,-567 -8,-58.25 1.2,-103.94 38.1,-125.33 167.6,-97.12 283.5,-53.02 283.5,-53.02 0,0 0.2,0.07 0.2,0.1 207.7,13.61 421.4,207.13 513.7,485.64 93.8,283.21 31.7,562.81 -136.5,683.91" /></g><g
         transform="scale(1.09424)"
         id="g98"><path
           id="path100"
           style="fill:#5e6061;fill-opacity:1;fill-rule:nonzero;stroke:none"
           d="m 16189,9986.91 c -111,-334.98 -396.5,-548.03 -637.6,-475.85 -241.1,72.16 -346.6,402.23 -235.6,737.24 111,335 396.5,548 637.6,475.8 241,-72.1 346.6,-402.2 235.6,-737.19" /></g><g
         transform="scale(1.04579)"
         id="g102"><path
           id="path104"
           style="fill:#9a9a9a;fill-opacity:1;fill-rule:nonzero;stroke:none"
           d="m 16300,10705.1 -5646.5,1421.2 -28.4,-114.3 5674.9,-1422.2 v 115.3" /></g><path
         id="path106"
         style="fill:#3a70c0;fill-opacity:1;fill-rule:nonzero;stroke:none"
         d="m 12627.8,12196.1 c -136.3,-432.7 -486.8,-708 -782.8,-614.7 -296.1,93.2 -425.6,519.6 -289.3,952.4 136.2,432.7 486.7,707.9 782.8,614.7 296,-93.3 425.6,-519.6 289.3,-952.4" /><path
         id="path108"
         style="fill:#3e3d3f;fill-opacity:1;fill-rule:nonzero;stroke:none"
         d="m 12617.9,13050.8 c -3.9,3.1 -7.9,6.1 -11.9,8.9 -0.7,0.5 -1.5,0.9 -2.2,1.4 -3.3,2.3 -6.8,4.5 -10.2,6.8 -196.5,128.6 -374,98.7 -374,98.7 l -13.4,-69.6 c -206.7,-81.9 -398.9,-303.5 -491.7,-598.2 -87.2,-277.1 -65.4,-551.4 39.3,-737.5 -10,-75.7 1.4,-135.2 47,-163 207.2,-126.3 350.6,-69 350.6,-69 0,0 0.1,0.1 0.2,0.2 256.7,17.7 520.9,269.4 635.1,631.7 116,368.4 39.2,732.1 -168.8,889.6" /><g
         transform="scale(1.03169)"
         id="g110"><path
           id="path112"
           style="fill:#c37140;fill-opacity:1;fill-rule:nonzero;stroke:none"
           d="m 15314.4,8152.32 c -3.1,24.04 132.9,178.74 292.9,322.2 159.8,143.54 295,430.45 352.5,594.36 57.4,164 102.4,278.76 155.7,373.07 53.3,94.31 127.1,397.61 151.6,643.55 24.7,246 32.9,352.5 32.9,352.5 l -184.5,41 c 0,0 -49.2,-262.3 -172.2,-401.7 -122.9,-139.36 -172.1,-398.45 -184.4,-473.86 -12.4,-75.41 -53.4,-153.34 -106.6,-218.87 -53.3,-65.62 -196.7,-221.38 -250,-319.76 -53.4,-98.38 -24.1,-136.48 -87.9,-180.97 -63.8,-44.49 -321.8,-202.29 -321.8,-202.29 0,0 12.1,-465.25 24.4,-469.32 12.3,-4.17 297.4,-59.91 297.4,-59.91" /></g><path
         id="path114"
         style="fill:#a45634;fill-opacity:1;fill-rule:nonzero;stroke:none"
         d="m 15680.4,8641.6 c -1.5,17 46.1,76.2 130.2,114.2 84,38.1 181.3,118.4 181.3,118.4 0,0 -87.4,-131.1 -155.8,-181.8 -68.3,-50.8 -114.9,-186.1 -114.9,-186.1 l -40.8,135.3" /><path
         id="path116"
         style="fill:#c37140;fill-opacity:1;fill-rule:nonzero;stroke:none"
         d="m 14110,7986.1 c 0,0 -31.8,551.9 -50.8,621.7 -19,69.8 -190.3,247.4 -253.7,485.3 -63.5,237.9 -110,618.5 -135.4,698.8 -25.3,80.4 -38,122.7 -50.7,228.4 -12.7,105.7 -97.3,279.1 -143.8,596.3 -46.5,317.2 -29.6,1044.6 -29.6,1044.6 h 279.1 c 0,0 12.7,-414.5 71.9,-634.4 59.2,-219.9 143.8,-351 181.9,-486.3 38,-135.3 29.6,-283.4 71.9,-342.6 42.2,-59.2 139.5,-287.5 215.6,-477.9 76.2,-190.3 110,-304.4 114.2,-321.4 4.3,-16.9 391.1,-338.3 391.1,-338.3 l 327.9,-807.7 -564.6,-678.8 -425,412.3" /><path
         id="path118"
         style="fill:#100f0d;fill-opacity:1;fill-rule:nonzero;stroke:none"
         d="m 15645.1,5607.3 c 0,0 56.1,19.1 281.8,177.6 225.7,158.6 289.1,234.7 246.9,264.3 -42.3,29.6 -380.7,122.7 -528.7,0 -148,-122.6 -148,-190.1 -148,-190.1 l 148,-251.8" /><path
         id="path120"
         style="fill:#252323;fill-opacity:1;fill-rule:nonzero;stroke:none"
         d="m 13849.9,4725.5 c 0,0 -63.8,-9.5 -81.1,-38 -17.2,-28.6 -26.8,-85.7 -49,-126.9 -22.2,-41.2 -47.5,-60.3 -66.6,-104.7 -19,-44.4 -31.7,-348.9 -38,-367.9 -6.4,-19 -60.3,-114.2 -25.4,-180.8 34.9,-66.6 386.9,-126.9 574.1,-95.2 187.1,31.8 34.9,361.6 0,428.2 -34.9,66.6 -76.1,196.7 -79.3,260.1 -3.2,63.5 -63.4,187.2 -63.4,187.2 0,0 -28.6,41.2 -171.3,38" /><g
         transform="scale(1.02287)"
         id="g122"><path
           id="path124"
           style="fill:#252323;fill-opacity:1;fill-rule:nonzero;stroke:none"
           d="m 15150.6,4606.06 v 42.32 c 0,0 -124.1,17.31 -173.6,-28.35 -49.7,-45.65 -24.9,-82.9 -37.3,-144.88 -12.4,-61.98 -111.6,-244.02 -103.3,-306 8.3,-61.98 180.1,-144.69 367,-115.75 187,28.93 124.5,41.35 284,-20.63 159.3,-61.99 696.8,-57.88 754.7,0 57.9,57.87 -107.5,214.98 -215,243.92 -107.5,28.94 -387,173.63 -381.6,231.5 5.3,57.88 -60.7,181.94 -122.8,206.77 -62,24.83 -372.1,-108.9 -372.1,-108.9" /></g><path
         id="path126"
         style="fill:#ffffff;fill-opacity:1;fill-rule:nonzero;stroke:none"
         d="m 15450.6,4738.2 c 0,0 -42.3,-50.7 0,-126.9 42.3,-76.1 219.9,0 219.9,0 l -88.8,173.4 -131.1,-46.5" /><g
         transform="scale(1.03455)"
         id="g128"><path
           id="path130"
           style="fill:#c37140;fill-opacity:1;fill-rule:nonzero;stroke:none"
           d="m 15218.7,5697.18 333.2,75.01 c 0,0 -159.5,-117.15 -249.3,-370.5 -89.9,-253.54 -110.4,-425.21 -175.9,-531.44 -65.3,-106.33 -192,-290.27 -192,-290.27 l 212.5,-122.66 c 0,0 167.6,106.32 188,130.87 20.5,24.46 147.2,327.01 421.1,580.45 273.9,253.45 372,600.95 433.3,666.29 61.3,65.43 110.4,294.33 36.8,412.93 -73.6,118.51 -441.5,200.28 -564.2,196.22 -122.5,-4.15 -445.5,-265.72 -445.5,-265.72 l -57.2,-273.94 59.2,-207.24" /></g><path
         id="path132"
         style="fill:#a45634;fill-opacity:1;fill-rule:nonzero;stroke:none"
         d="m 15958.1,5701.7 c 135.3,231.8 329.8,339.1 329.8,339.1 l -198.7,-69.2 c 0,0 -165,-121.2 -258,-383.3 -54.1,-152.4 -83.8,-275.9 -112.6,-374.5 h 0.1 c 0,0 104,256 239.4,487.9" /><path
         id="path134"
         style="fill:#252323;fill-opacity:1;fill-rule:nonzero;stroke:none"
         d="m 13951.9,7006.9 c 0,0 -374.8,-188 -450.9,-264.1 -76.1,-76.1 -171.3,-444.1 -126.9,-647.1 44.4,-203 367.9,-348.9 418.7,-355.2 50.7,-6.3 528.6,63.4 727.4,38.1 198.8,-25.4 1124.9,-171.3 1124.9,-171.3 0,0 102.9,348.9 191,469.4 88.1,120.5 367.2,590 367.2,590 0,0 -538.6,88.8 -735.5,57 -197,-31.7 -238.1,-38 -344.6,-57 -106.5,-19.1 -250.6,38 -250.6,38 0,0 -344,228.4 -439.1,253.8 -95.2,25.3 -481.6,48.4 -481.6,48.4" /><path
         id="path136"
         style="fill:#100f0d;fill-opacity:1;fill-rule:nonzero;stroke:none"
         d="m 13768,6032.4 c 0,0 -33,21 -73.9,84.5 -40.9,63.4 -62,97.3 -62,97.3 0,0 17.8,-231.8 99.8,-304.1 82,-72.3 36.1,122.3 36.1,122.3" /><path
         id="path138"
         style="fill:#100f0d;fill-opacity:1;fill-rule:nonzero;stroke:none"
         d="m 14404.9,6241.6 c 9.6,-3.1 66.7,-41.2 79.3,-50.7 12.7,-9.5 44.4,-244.2 38.1,-291.8 -6.3,-47.6 -168.1,-197.4 -168.1,-197.4 l -261.2,224.9 177.7,258 134.2,57" /><path
         id="path140"
         style="fill:#e9eef1;fill-opacity:1;fill-rule:nonzero;stroke:none"
         d="m 14813.3,9060.3 h -41.6 c 0,0 68.3,-262.2 41.6,-524.4 -26.7,-262.2 -242.4,-558.2 -318.5,-596.3 -76.1,-38 -384.8,46.5 -384.8,46.5 0,0 -29.6,-351 -59.2,-600.5 -29.6,-249.5 -131.1,-418.7 -114.2,-461 16.9,-42.3 410.2,-164.9 494.8,-236.8 84.6,-71.9 139.5,-173.4 152.2,-173.4 12.7,0 143.8,-42.3 313,46.5 169.1,88.8 270.6,274.9 359.4,380.7 88.9,105.7 190.3,194.5 262.2,376.3 71.9,181.9 253.8,579.4 279.2,727.4 25.3,148.1 12.6,384.9 -25.4,507.5 -38.1,122.7 -422.4,583 -422.4,583 0,0 -245.8,49.3 -294.4,20.7 -48.7,-28.5 -241.9,-96.2 -241.9,-96.2" /><path
         id="path142"
         style="fill:#c37140;fill-opacity:1;fill-rule:nonzero;stroke:none"
         d="m 14887.3,9495.9 c 0,0 -1.3,-198.8 -11.9,-264.3 -10.5,-65.6 -62.1,-171.3 -62.1,-171.3 0,0 91.7,-143.8 244,-308.7 152.2,-164.9 215.7,-389.1 338.3,-380.6 122.6,8.4 56,338.3 37,423.9 -19,85.7 -44.4,127.7 -44.4,138.4 0,10.7 -22.2,299.3 -22.2,299.3 l -225.5,222.1 -186.8,155.4 -66.4,-114.2" /><path
         id="path144"
         style="fill:#c4cacd;fill-opacity:1;fill-rule:nonzero;stroke:none"
         d="m 14680.9,8167.9 c 0,0 102.2,-114.1 191.7,-169.1 89.5,-55 241.8,-69.8 250.2,-65.5 8.5,4.2 -145.9,59.2 -232.6,126.8 -86.7,67.7 -166.4,187.9 -166.4,187.9 l -42.9,-80.1" /><path
         id="path146"
         style="fill:#a45634;fill-opacity:1;fill-rule:nonzero;stroke:none"
         d="m 14528.6,8956.7 c 0,0 -19,-187.1 0,-237.9 19.1,-50.7 47.6,-111 60.3,-164.9 12.7,-53.9 28.6,-183.2 28.6,-183.2 0,0 9.5,176.8 0,230.8 -9.6,53.9 -46.6,149 -46.6,149 l -42.3,206.2" /><path
         id="path148"
         style="fill:#c37140;fill-opacity:1;fill-rule:nonzero;stroke:none"
         d="m 13452.7,11656.2 c 0,0 -105,124 -119.4,184.9 -14.4,61 6.2,162.6 6.2,162.6 l 342.4,-72.5 c 0,0 67,25.2 96.4,34.4 29.3,9.3 27.5,0.8 29.3,9.3 1.9,8.5 -0.1,24.1 -4.5,30.3 -4.4,6.2 -88.7,6.4 -99.9,29.4 -11.2,22.9 7.6,57.5 20.3,57.9 12.6,0.3 84.6,17.8 125.5,-8.6 40.9,-26.3 67.3,-59.4 74.8,-103.6 7.6,-44.2 19.3,-84.1 -24.4,-110.7 -43.7,-26.6 -91.5,-55.4 -120.1,-94.3 -28.5,-38.9 -47.6,-111.3 -47.6,-111.3 l -279,-7.8" /><path
         id="path150"
         style="fill:#a45532;fill-opacity:1;fill-rule:nonzero;stroke:none"
         d="m 13608.8,11872.6 c -10.5,8.5 -80.4,75.7 -72,74.7 8.3,-1 146,-17.6 146,-17.6 l 45,15.2 c 0,0 -28.1,-23.6 -42.9,-46.9 -14.8,-23.2 -76.1,-25.4 -76.1,-25.4" /><g
         transform="scale(1.06849)"
         id="g152"><path
           id="path154"
           style="fill:#9a9a9a;fill-opacity:1;fill-rule:nonzero;stroke:none"
           d="m 16212.3,10547.1 c 0,0 0,0.1 0,0.1 l -0.7,0.3 c -2.7,1.1 -5.4,1.9 -8.1,2.7 l -68.6,23.3 c 0,0 -3,-14.6 -7.5,-35.1 -42.8,-25.4 -80,-79.9 -95.3,-148.5 -15.2,-67.4 -5.6,-131.5 21.2,-172.9 -2.2,-14.1 -3.6,-22.9 -3.6,-22.9 l 47.4,-16.3 c 5,-2.2 10.1,-4.1 15.4,-5.3 68.1,-15.2 142.2,57.3 165.7,162.1 21.8,97 -7.5,187.4 -65.9,212.5" /></g><path
         id="path156"
         style="fill:#c37140;fill-opacity:1;fill-rule:nonzero;stroke:none"
         d="m 13843.5,6615.9 c 0,0 -101.5,-179.9 -101.5,-308.8 0,-128.9 50.8,-211.4 50.8,-211.4 0,0 -120.5,-260 -95.2,-583.6 25.4,-323.5 71.2,-824.6 71.2,-824.6 0,0 144.5,6.3 252.4,0 0,0 69.7,342.5 171.2,501.1 101.5,158.6 196.5,397.4 183.9,595.2 l 19.1,235.8 c 0,0 95.2,69.8 117.4,133.2 22.2,63.5 98.3,326.7 12.7,463.1 -85.7,136.4 -507.5,130.1 -682,0" /><g
         transform="scale(1.06449)"
         id="g158"><path
           id="path160"
           style="fill:#d3d2d0;fill-opacity:1;fill-rule:nonzero;stroke:none"
           d="m 16276.4,10395.1 c -23.7,-105.2 -98.1,-178.1 -166.3,-162.7 -68.2,15.3 -104.4,113 -80.8,218.1 23.5,105.2 98,178 166.2,162.7 68.3,-15.3 104.5,-113 80.9,-218.1" /></g><g
         transform="scale(1.0576)"
         id="g162"><path
           id="path164"
           style="fill:#9a9a9a;fill-opacity:1;fill-rule:nonzero;stroke:none"
           d="m 16276.8,10545.5 c 0,0 23.2,-18.4 18.8,-54.8 -4.6,-36.4 -37.6,-54.3 -37.6,-54.3 l -380.2,95.3 30.1,106.7 368.9,-92.9" /></g><path
         id="path166"
         style="fill:#c37140;fill-opacity:1;fill-rule:nonzero;stroke:none"
         d="m 13398.8,12113.3 c 0,0 40.3,-18.1 59.4,-26 19,-8 38.4,-61.9 77.9,-74.6 39.4,-12.7 50.5,8 50.5,8 0,0 7.1,-27 42.4,-27 35.3,0 35.3,19 35.3,19 0,0 19.1,-23.8 50.8,-19 31.7,4.8 23.9,101.2 12.7,119.6 -11.1,18.4 -68.2,0 -68.2,0 0,0 -11.1,31.1 -44.4,35.8 -33.3,4.8 -55.5,-7.9 -55.5,-7.9 0,0 -41.3,11.6 -98.4,9 -57.1,-2.7 -86.7,-30.8 -86.7,-30.8 l 24.2,-6.1" /><g
         transform="scale(1.03264)"
         id="g168"><path
           id="path170"
           style="fill:#a45532;fill-opacity:1;fill-rule:nonzero;stroke:none"
           d="m 15890.1,10996.7 c 0,0 52.9,43.5 98.9,43.5 46.1,0 66.1,-18.9 72.3,-21.7 6.1,-2.9 38.3,7.9 69,-7.5 30.7,-15.4 63,-30.7 63,-30.7 0,0 45.8,-3.1 68.3,-20 22.3,-16.9 38.4,-95.8 17.3,-112.4 -21,-16.6 -70.2,31 -70.2,31 0,0 4,-29.6 -49.4,-15.5 -53.6,14 -91.9,32.1 -91.9,32.1 l -37.5,66 -139.8,35.2" /></g><g
         transform="scale(1.03493)"
         id="g172"><path
           id="path174"
           style="fill:#c37140;fill-opacity:1;fill-rule:nonzero;stroke:none"
           d="m 16065.1,10446.2 c 0,0 -19.4,114.5 -34.8,151.2 -15.2,36.8 -147,125.7 -177.8,153.3 -30.6,27.6 -74.3,123.8 -74.3,123.8 l 140.8,-35.3 89.9,116.8 c 0,0 95,21.5 116.4,15.3 21.5,-6.1 39.9,-33.7 0,-49 -39.8,-15.3 -39.8,-33.7 -39.8,-33.7 l 89.6,-115.9 122,-28.3 c 0,0 2.9,-116.3 -18.5,-192.9 -21.5,-76.7 -29.6,-146.1 -29.6,-146.1 l -183.9,40.8" /></g><path
         id="path176"
         style="fill:#767779;fill-opacity:1;fill-rule:nonzero;stroke:none"
         d="m 12627.8,12196.1 c -136.3,-432.7 -486.8,-708 -782.8,-614.7 -296.1,93.2 -425.6,519.6 -289.3,952.4 136.2,432.7 486.7,707.9 782.8,614.7 296,-93.3 425.6,-519.6 289.3,-952.4" /><path
         id="path178"
         style="fill:#5e6061;fill-opacity:1;fill-rule:nonzero;stroke:none"
         d="m 12627.8,12196.1 c -125.1,-397 -446.6,-649.6 -718.3,-564 -271.6,85.5 -390.5,476.7 -265.4,873.8 125,397.1 446.6,649.6 718.2,564 271.7,-85.5 390.5,-476.7 265.5,-873.8" /><path
         id="path180"
         style="fill:#d3d2d0;fill-opacity:1;fill-rule:nonzero;stroke:none"
         d="m 12239.9,12315.4 c -32.9,-69.8 -104.9,-104.9 -161,-78.4 -56.1,26.4 -75,104.3 -42.1,174.1 32.8,69.7 104.9,104.8 161,78.4 56.1,-26.5 74.9,-104.4 42.1,-174.1" /><path
         id="path182"
         style="fill:#9a9a9a;fill-opacity:1;fill-rule:nonzero;stroke:none"
         d="m 12138.3,12430.5 c 0,0 36.9,-27.9 34.8,-65.6 -2.2,-37.6 -31.3,-61.1 -61.6,-53.5 l -999.9,250.6 29.7,119.5 997,-251" /><path
         id="path184"
         style="fill:#d3d2d0;fill-opacity:1;fill-rule:nonzero;stroke:none"
         d="m 11175,12625.4 c 0,-35 -28.4,-63.4 -63.4,-63.4 -35.1,0 -63.5,28.4 -63.5,63.4 0,35 28.4,63.5 63.5,63.5 35,0 63.4,-28.5 63.4,-63.5" /><path
         id="path186"
         style="fill:#a45634;fill-opacity:1;fill-rule:nonzero;stroke:none"
         d="m 14949.3,9400.4 c 0,0 137.6,-68.9 78.7,-80.1 -50.4,-9.6 -32.5,-29.5 -32.5,-29.5 0,0 79,-172.5 231.6,-249.6 97.9,-49.4 157.7,-50.8 157.7,-50.8 0,0 21.7,269.2 57.9,334.3 36.3,65.1 -312.2,11.8 -334.4,44.3 -22.2,32.5 -159,31.4 -159,31.4" /><path
         id="path188"
         style="fill:#2f1d16;fill-opacity:1;fill-rule:nonzero;stroke:none"
         d="m 15578.1,10142.7 c -8.3,18.7 5.1,51.1 -24.5,81.2 -29.5,30.2 -66.3,39.4 -66.3,39.4 0,0 -30.2,33.3 -68.8,39.5 -38.6,6.2 -72.9,3 -72.9,3 0,0 -29.2,16.6 -79.1,18.6 -50,2 -94.8,-22.1 -114.5,-24.2 -19.8,-2.1 -59.4,-2.2 -82.3,-6.4 -22.9,-4.2 -67.6,-24 -74.9,-29.3 -7.3,-5.2 -46.5,-1.7 -91.3,-19.8 -44.8,-18.1 -74.1,-72.1 -74.1,-72.1 0,0 -31.2,-17.7 -42.7,-23 -0.1,0 -0.2,-0.1 -0.4,-0.2 -0.6,-0.4 -2.3,-1.4 -4.7,-3.1 -7.7,-6.3 -19.2,-19.1 -31.3,-33.6 -23.7,-33.8 -51.2,-95.4 -57.4,-202.6 -11.1,-195.7 48.3,-452.6 189.3,-600.4 l 88.2,283.1 616.1,368 c 0,0 8.6,30.5 4.4,47.6 -4.2,17.1 11.7,44.9 10.8,78.1 -0.8,33.2 -15.2,37.5 -23.6,56.2" /><path
         id="path190"
         style="fill:#c37140;fill-opacity:1;fill-rule:nonzero;stroke:none"
         d="m 15546.9,10018 c 0,0 32.2,-41 39.6,-57.2 7.3,-16.1 14.2,-162.9 17,-200 2.8,-37.1 -6.3,-87.6 -6.1,-105.6 0.2,-17.9 3.8,-128.2 -0.6,-171.4 -4.3,-43.2 -50.5,-211.5 -65.7,-256 -15.1,-44.6 -37.2,-103.5 -58.7,-115.7 -21.5,-12.3 -116.1,-18 -200.3,6.3 -84.2,24.3 -249.5,134 -294.5,192.3 -45,58.3 -40.3,180.6 -40.3,180.6 0,0 -34.6,-9.9 -71,25.7 -36.3,35.5 -94.6,112.9 -83.6,199.3 11.1,86.4 77.4,56 111.3,21.6 33.9,-34.5 35.7,-87.2 42.9,-88.3 7.2,-1.1 14.4,1.3 18,2.6 3.5,1.2 19.4,90.1 20.4,108.1 1,18 -3.7,125.8 -1.3,129.4 2.3,3.7 90.5,112.5 119.2,123.6 28.6,11.1 453.7,4.7 453.7,4.7" /><path
         id="path192"
         style="fill:#2f1d16;fill-opacity:1;fill-rule:nonzero;stroke:none"
         d="m 14954.9,9652.2 c 0,0 21.1,62.5 31.4,96.9 10.4,34.4 0.9,80.2 10.3,87.5 9.3,7.3 27,28.1 24.9,54.2 -2.1,26 -2.1,26 -2.1,26 0,0 -1.1,22.9 34.3,35.5 35.3,12.5 50.9,55.2 50.9,55.2 0,0 89.5,-0.9 123.9,0.3 34.4,1.1 108.3,1.2 148.9,0.2 40.6,-0.9 161.4,-3.9 165.6,-4.9 4.1,-1 43.5,-42.3 43.5,-42.3 0,0 0.2,75.7 -9.2,77.8 -9.4,2 -1.1,31.2 -130.3,37.2 -129.1,6.1 -208.3,43.4 -313.4,-0.5 -105.1,-43.9 -120.7,-22.1 -160.2,-73.2 -39.5,-51.1 -77.9,-139.7 -67.4,-175.1 10.5,-35.3 48.9,-174.8 48.9,-174.8" /></g></g></svg>