<?xml version="1.0" encoding="UTF-8" standalone="no"?>
<svg
   xmlns:dc="http://purl.org/dc/elements/1.1/"
   xmlns:cc="http://creativecommons.org/ns#"
   xmlns:rdf="http://www.w3.org/1999/02/22-rdf-syntax-ns#"
   xmlns:svg="http://www.w3.org/2000/svg"
   xmlns="http://www.w3.org/2000/svg"
   viewBox="0 0 2666.6667 2666.6667"
   height="2666.6667"
   width="2666.6667"
   xml:space="preserve"
   id="svg2"
   version="1.1"><metadata
     id="metadata8"><rdf:RDF><cc:Work
         rdf:about=""><dc:format>image/svg+xml</dc:format><dc:type
           rdf:resource="http://purl.org/dc/dcmitype/StillImage" /></cc:Work></rdf:RDF></metadata><defs
     id="defs6" /><g
     transform="matrix(1.3333333,0,0,-1.3333333,0,2666.6667)"
     id="g10"><g
       transform="scale(0.1)"
       id="g12"><g
         transform="scale(1.22699)"
         id="g14"><path
           id="path16"
           style="fill:none;fill-opacity:1;fill-rule:nonzero;stroke:none"
           d="M 16300,0 H 0 V 16300 H 16300 V 0" /></g><g
         transform="scale(1.11213)"
         id="g18"><path
           id="path20"
           style="fill:#100f0d;fill-opacity:1;fill-rule:nonzero;stroke:none"
           d="m 15902.7,7810.07 c 0,0 93.2,87.22 211.9,180.1 118.6,92.89 185.4,377.12 185.4,377.12 0,0 -308.6,75.08 -461.6,0 -153,-75.08 -248.4,-44.78 -158.3,-195.03 90.1,-150.26 222.6,-362.19 222.6,-362.19" /></g><g
         transform="scale(1.07598)"
         id="g22"><path
           id="path24"
           style="fill:#3970c0;fill-opacity:1;fill-rule:nonzero;stroke:none"
           d="m 15392.6,6293.04 -109,63.39 c 0,0 -56.9,-58.37 -95.3,-113.11 -38.3,-54.74 -153.4,-350.47 -142.4,-416.17 11,-65.71 192.8,-136.9 285.3,-213.58 92.6,-76.67 259.7,-312.18 474.6,-399.73 214.8,-87.64 494.2,-65.8 466.8,147.78 -27.4,213.57 -175.3,207.34 -284.8,399.35 -109.6,192.11 -202.6,383.84 -224.5,471.38 -22,87.65 -125.1,176.68 -147,178.08 -21.7,1.39 -223.7,-117.39 -223.7,-117.39" /></g><g
         transform="scale(1.19419)"
         id="g26"><path
           id="path28"
           style="fill:#3970c0;fill-opacity:1;fill-rule:nonzero;stroke:none"
           d="m 15259.4,6330.9 -143.6,24.7 c 0,0 -118.4,-28.05 -138.2,-73.27 -19.8,-45.13 -116.4,-336.29 -102.6,-385.61 13.7,-49.32 201.3,-128.21 304.9,-120.84 103.6,7.37 145.4,46.81 287.3,-46.89 142,-93.79 477.5,-112.72 625.5,-58.87 148.1,53.93 207.3,201.89 0,275.92 -207.2,74.02 -268.3,108.61 -324.1,148.05 -55.8,39.44 -238.4,162.28 -248.2,221.74 -9.9,59.53 -167.8,173 -167.8,173 l -93.2,-157.93" /></g><g
         transform="scale(1.0626)"
         id="g30"><path
           id="path32"
           style="fill:#deddda;fill-opacity:1;fill-rule:nonzero;stroke:none"
           d="m 15524.3,7848.66 480.5,-1454.63 295.2,-121.97 -526.7,1502.73 -249,73.87" /></g><g
         transform="scale(1.06983)"
         id="g34"><path
           id="path36"
           style="fill:#b5b5b4;fill-opacity:1;fill-rule:nonzero;stroke:none"
           d="m 15804.6,7668.57 495.4,-1378.34 -110.2,-60.57 -523.2,1492.56 138,-53.65" /></g><g
         transform="scale(1.10779)"
         id="g38"><path
           id="path40"
           style="fill:#deddda;fill-opacity:1;fill-rule:nonzero;stroke:none"
           d="m 15477.3,7377.83 c 28.4,-12.37 456.1,-104.62 557.8,-101.01 101.8,3.52 193.7,-11.46 229.2,194.62 35.7,206.09 -84.9,252.13 -84.9,252.13 0,0 -404.2,82.5 -414.9,85.57 -10.6,3.07 -337.1,-142.35 -375.9,-174.22 -38.7,-31.86 -36.7,-106.43 -36.7,-106.43 l 125.4,-150.66" /></g><g
         transform="scale(1.15623)"
         id="g42"><path
           id="path44"
           style="fill:#fbc398;fill-opacity:1;fill-rule:nonzero;stroke:none"
           d="m 15326.6,7841.33 300.7,30.09 -66.3,-481.65 c 0,0 45.9,-310.83 15.3,-555.42 -30.6,-244.68 -30.6,-345.78 -30.6,-345.78 0,0 0,-112.87 81.6,-117.97 81.5,-5.1 219.1,25.43 219.1,25.43 l 117.2,244.67 c 0,0 76.4,232.57 158,572.38 81.5,339.81 178.4,606.54 163.1,835.04 -15.3,228.41 5.1,238.62 -117.2,350.7 -122.4,112.18 -489.3,195.21 -489.3,195.21 0,0 -326.1,3.54 -402.6,-128.95 -76.4,-132.51 -168.2,-168.14 -86.6,-326.15 81.5,-157.93 137.6,-297.6 137.6,-297.6" /></g><g
         transform="scale(1.01031)"
         id="g46"><path
           id="path48"
           style="fill:#a1a1a0;fill-opacity:1;fill-rule:nonzero;stroke:none"
           d="m 16300,14514.6 -133,4 -136.2,-4504.8 133,-4 136.2,4504.8" /></g><path
         id="path50"
         style="fill:#a1a1a0;fill-opacity:1;fill-rule:nonzero;stroke:none"
         d="m 16029.9,10026.7 -365.3,5.6 70.9,4619.1 365.3,-5.6 -70.9,-4619.1" /><path
         id="path52"
         style="fill:#deddda;fill-opacity:1;fill-rule:nonzero;stroke:none"
         d="m 15896.3,10026.7 -365.3,5.6 70.9,4619.1 365.3,-5.6 -70.9,-4619.1" /><path
         id="path54"
         style="fill:#a1a1a0;fill-opacity:1;fill-rule:nonzero;stroke:none"
         d="m 15817.8,14330.9 -78.2,-11.5 c -28.6,-4.3 -55.1,15.4 -59.4,44 -4.2,28.5 15.5,55.1 44,59.3 l 78.3,11.6 c 28.5,4.2 55.1,-15.5 59.3,-44 4.2,-28.6 -15.5,-55.1 -44,-59.4" /><path
         id="path56"
         style="fill:#a1a1a0;fill-opacity:1;fill-rule:nonzero;stroke:none"
         d="m 15812.4,13930.1 -78.2,-11.6 c -28.5,-4.2 -55.1,15.5 -59.3,44.1 -4.2,28.5 15.5,55.1 44,59.3 l 78.2,11.5 c 28.5,4.3 55.1,-15.4 59.3,-44 4.3,-28.5 -15.5,-55.1 -44,-59.3" /><path
         id="path58"
         style="fill:#a1a1a0;fill-opacity:1;fill-rule:nonzero;stroke:none"
         d="m 15807.1,13529.3 -78.3,-11.6 c -28.5,-4.2 -55.1,15.5 -59.3,44 -4.2,28.6 15.5,55.1 44,59.4 l 78.2,11.5 c 28.6,4.3 55.1,-15.5 59.4,-44 4.2,-28.5 -15.5,-55.1 -44,-59.3" /><path
         id="path60"
         style="fill:#a1a1a0;fill-opacity:1;fill-rule:nonzero;stroke:none"
         d="m 15801.7,13128.5 -78.2,-11.6 c -28.5,-4.2 -55.1,15.5 -59.3,44 -4.3,28.5 15.4,55.1 44,59.3 l 78.2,11.6 c 28.5,4.2 55.1,-15.5 59.3,-44 4.2,-28.6 -15.5,-55.1 -44,-59.3" /><path
         id="path62"
         style="fill:#a1a1a0;fill-opacity:1;fill-rule:nonzero;stroke:none"
         d="m 15796.3,12727.6 -78.2,-11.5 c -28.5,-4.3 -55.1,15.4 -59.3,44 -4.2,28.5 15.5,55.1 44,59.3 l 78.2,11.6 c 28.6,4.2 55.1,-15.5 59.4,-44.1 4.2,-28.5 -15.5,-55 -44.1,-59.3" /><path
         id="path64"
         style="fill:#a1a1a0;fill-opacity:1;fill-rule:nonzero;stroke:none"
         d="m 15791,12326.8 -78.2,-11.6 c -28.6,-4.2 -55.1,15.5 -59.3,44.1 -4.3,28.5 15.4,55.1 44,59.3 l 78.2,11.6 c 28.5,4.2 55.1,-15.5 59.3,-44.1 4.2,-28.5 -15.5,-55.1 -44,-59.3" /><path
         id="path66"
         style="fill:#a1a1a0;fill-opacity:1;fill-rule:nonzero;stroke:none"
         d="m 15785.6,11926 -78.2,-11.6 c -28.5,-4.2 -55.1,15.5 -59.3,44 -4.2,28.6 15.5,55.1 44,59.3 l 78.2,11.6 c 28.6,4.2 55.1,-15.5 59.3,-44 4.3,-28.5 -15.4,-55.1 -44,-59.3" /><path
         id="path68"
         style="fill:#a1a1a0;fill-opacity:1;fill-rule:nonzero;stroke:none"
         d="m 15780.3,11525.2 -78.2,-11.6 c -28.6,-4.2 -55.1,15.5 -59.4,44 -4.2,28.5 15.5,55.1 44.1,59.3 l 78.2,11.6 c 28.5,4.2 55.1,-15.5 59.3,-44 4.2,-28.6 -15.5,-55.1 -44,-59.3" /><path
         id="path70"
         style="fill:#a1a1a0;fill-opacity:1;fill-rule:nonzero;stroke:none"
         d="m 15774.9,11124.3 -78.2,-11.5 c -28.5,-4.3 -55.1,15.4 -59.3,44 -4.2,28.5 15.5,55.1 44,59.3 l 78.2,11.6 c 28.6,4.2 55.1,-15.5 59.3,-44 4.3,-28.6 -15.4,-55.1 -44,-59.4" /><path
         id="path72"
         style="fill:#a1a1a0;fill-opacity:1;fill-rule:nonzero;stroke:none"
         d="m 15769.6,10723.5 -78.2,-11.6 c -28.6,-4.2 -55.1,15.5 -59.4,44 -4.2,28.6 15.5,55.1 44.1,59.4 l 78.2,11.6 c 28.5,4.2 55.1,-15.5 59.3,-44.1 4.2,-28.5 -15.5,-55.1 -44,-59.3" /><path
         id="path74"
         style="fill:#a1a1a0;fill-opacity:1;fill-rule:nonzero;stroke:none"
         d="m 15764.2,10322.7 -78.2,-11.6 c -28.5,-4.2 -55.1,15.5 -59.3,44 -4.2,28.6 15.5,55.1 44,59.3 l 78.2,11.6 c 28.6,4.2 55.1,-15.5 59.3,-44 4.3,-28.5 -15.5,-55.1 -44,-59.3" /><path
         id="path76"
         style="fill:#deddda;fill-opacity:1;fill-rule:nonzero;stroke:none"
         d="m 10314.4,8273.3 3771.1,1154.9 v -98.4 l -3706.3,-1156.7 -64.8,100.2" /><path
         id="path78"
         style="fill:#b5b5b4;fill-opacity:1;fill-rule:nonzero;stroke:none"
         d="m 10379.2,8173.1 4342.7,1355.3 V 9280.9 L 10719,8093.5 l -339.8,79.6" /><path
         id="path80"
         style="fill:#deddda;fill-opacity:1;fill-rule:nonzero;stroke:none"
         d="m 12983.7,9528.4 -47.2,-1434.9 312.3,-73.6 29.5,1508.5 h -294.6" /><path
         id="path82"
         style="fill:#b5b5b4;fill-opacity:1;fill-rule:nonzero;stroke:none"
         d="m 13402,9421.2 -27.2,-1327.7 -126,-73.6 29.5,1508.5 123.7,-107.2" /><g
         transform="scale(1.09731)"
         id="g84"><path
           id="path86"
           style="fill:#515254;fill-opacity:1;fill-rule:nonzero;stroke:none"
           d="m 11601.4,9139.85 v -408.11 l 3893.1,-1283.41 708.8,424.22 c 0,0 96.7,136.97 64.5,241.68 -32.2,104.71 -3600.5,1272.63 -3600.5,1272.63 0,0 -875.2,-139.61 -1065.9,-247.01" /></g><g
         transform="scale(1.04336)"
         id="g88"><path
           id="path90"
           style="fill:#767779;fill-opacity:1;fill-rule:nonzero;stroke:none"
           d="m 12201.3,9612.46 v -429.21 l 4094.4,-1349.78 4.3,468.01 -4098.7,1310.98" /></g><g
         transform="scale(1.02506)"
         id="g92"><path
           id="path94"
           style="fill:#100f0d;fill-opacity:1;fill-rule:nonzero;stroke:none"
           d="m 15879.6,8312.53 213.3,-176.38 207.1,88.19 -142.7,479.09 c 0,0 -300.7,-66.24 -312.2,-107.9 -11.4,-41.55 34.5,-283 34.5,-283" /></g><g
         transform="scale(1.11213)"
         id="g96"><path
           id="path98"
           style="fill:#252323;fill-opacity:1;fill-rule:nonzero;stroke:none"
           d="m 13698.5,8154.45 c 0,0 429.2,-137.75 556.3,-264.9 127.3,-127.23 228.1,-275.05 403.1,-332.69 175,-57.73 175,-57.73 175,-57.73 0,0 -154.2,358.59 -69.4,602.27 84.8,243.77 440,423.87 440,423.87 l 370.6,-611.89 c 0,0 333.9,-124.53 328.6,-103.31 -5.3,21.13 -16,201.32 95.3,373.51 111.3,172.2 68.8,341.69 153.6,532.5 84.8,190.71 148.4,218.77 148.4,218.77 0,0 -328.5,167.96 -821.2,162.67 -492.8,-5.3 -1033.2,79.48 -1033.2,79.48 0,0 -513.9,95.36 -598.7,42.37 -84.8,-52.98 -238.4,-124.07 -302,-284.52 -63.6,-160.51 -63.6,-65.19 -58.3,-213.56 5.3,-148.27 -5.3,-264.89 26.5,-286.02 31.8,-21.23 185.4,-280.82 185.4,-280.82" /></g><path
         id="path100"
         style="fill:#deddda;fill-opacity:1;fill-rule:nonzero;stroke:none"
         d="m 11375,7801.9 -553.8,6788 h 412.4 l 651.1,-7029.6 c 0,0 1582.1,-618.7 1688.2,-760.1 106.1,-141.4 -53,-450.8 -247.5,-486.1 -194.4,-35.4 -3155.3,1520.2 -3208.4,1564.4 -53,44.2 -44.2,347.7 197.4,394.8 L 11375,7801.9" /><path
         id="path102"
         style="fill:#b5b5b4;fill-opacity:1;fill-rule:nonzero;stroke:none"
         d="m 11233.6,14589.9 h 129.7 l 521.4,-7029.6 -85.4,58.9 -565.7,6970.7" /><path
         id="path104"
         style="fill:#b5b5b4;fill-opacity:1;fill-rule:nonzero;stroke:none"
         d="m 11487,14589.9 500.9,-7294.7 c 0,0 86.4,-59 133.5,0 l -483.2,7294.7 H 11487" /><path
         id="path106"
         style="fill:#767779;fill-opacity:1;fill-rule:nonzero;stroke:none"
         d="m 11884.7,8797 c 0,0 -51.9,-13.9 -59.8,-61.1 -7.9,-47.2 80.5,-853 80.5,-853 0,0 4.7,-28 45,-42.7 40.4,-14.7 100.6,-13.7 135.3,-6.1 34.7,7.6 56.8,37 64.2,59.1 7.4,22.1 -20.6,833.8 -28.5,877 -7.8,43.2 -101.6,58.6 -101.6,58.6 l 3,-44.9 c 0,0 -43.2,-34.4 -135.8,-19.7 l -2.3,32.8" /><path
         id="path108"
         style="fill:#9c9c9b;fill-opacity:1;fill-rule:nonzero;stroke:none"
         d="m 11845,9332.9 c 0,0 54.5,-35.3 143,0 0,0 65.5,137.5 -15.4,318.2 0,0 -110.6,17.5 -148.8,-9.9 0,0 -60.9,-135.4 21.2,-308.3" /><path
         id="path110"
         style="fill:#767779;fill-opacity:1;fill-rule:nonzero;stroke:none"
         d="m 11736.6,10911.7 c 0,0 79.5,-24 146.8,0 0,0 18.2,4.3 44.7,-62.5 26.5,-66.8 84.9,-1099.9 84.9,-1099.9 0,0 13,-66.8 -40.4,-98.2 l -148.8,-9.9 c 0,0 -45,2 -56.8,66.8 l -83.9,1154.9 c 0,0 5.4,38.5 53.5,48.8" /><path
         id="path112"
         style="fill:#b5b5b4;fill-opacity:1;fill-rule:nonzero;stroke:none"
         d="m 13383,6920.1 c -72.4,-51.6 -142,-121.1 -193.1,-214.2 -40.6,-73.9 -51.7,-197.3 -45.7,-340.6 94,-36.5 157.8,-55.5 181.2,-51.2 194.5,35.3 353.6,344.7 247.5,486.1 -19.5,26.1 -89.3,68.3 -189.9,119.9" /><g
         transform="scale(1.0626)"
         id="g114"><path
           id="path116"
           style="fill:#100f0d;fill-opacity:1;fill-rule:nonzero;stroke:none"
           d="m 15179.9,9227.64 c 0,0 471.9,-110.86 732.3,-305.01 l 257.8,-279.97 h 85.7 c 0,0 44.3,150.48 -33.3,223.51 -77.7,73.12 -521.2,283.83 -554.5,311.59 -33.3,27.67 -81.5,260.6 -81.5,260.6 0,0 -7.3,-216.27 -34.9,-221.83 -27.8,-5.55 -371.6,11.11 -371.6,11.11" /></g><g
         transform="scale(1.06479)"
         id="g118"><path
           id="path120"
           style="fill:#fbc398;fill-opacity:1;fill-rule:nonzero;stroke:none"
           d="m 15408,8124.88 183.4,-61.7 c 0,0 -182.7,-143.88 -155,-581.06 27.7,-437.17 44.3,-713.85 22.2,-935.2 -22.2,-221.36 -50.6,-332.75 -50.6,-332.75 0,0 109.2,-38.03 146.3,-21.41 37.1,16.62 26,71.94 75.8,94.1 49.8,22.07 188.2,55.32 188.2,55.32 0,0 2.8,430.32 153.6,757.43 150.7,327.2 189.5,459.99 206.1,764.37 16.5,304.29 122,415.57 88.5,650.74 -33.5,235.25 -387.1,389.56 -387.1,389.56 0,0 -582.8,-131.01 -471.4,-779.4" /></g><g
         transform="scale(1.03379)"
         id="g122"><path
           id="path124"
           style="fill:#ececec;fill-opacity:1;fill-rule:nonzero;stroke:none"
           d="m 15920.3,6725.63 c -22.5,-216.29 -50.3,-325.11 -50.3,-325.11 0,0 112.5,-39.18 150.7,-22.06 38.2,17.12 26.8,74.1 78.1,96.93 51.3,22.73 193.8,56.97 193.8,56.97 0,0 0.3,53.69 7.4,137.94 -141.7,2.61 -278.1,29.79 -379.7,55.33" /></g><g
         transform="scale(1.10779)"
         id="g126"><path
           id="path128"
           style="fill:#b5b5b4;fill-opacity:1;fill-rule:nonzero;stroke:none"
           d="m 16179.4,7723.57 c 0,0 -49.2,10.11 -113.7,23.28 -40.4,-33.03 -92.6,-94.78 -116.8,-203.91 -22.6,-101.92 -5.1,-195.8 16.2,-261.33 29.6,-3.52 53.9,-5.33 70,-4.79 101.8,3.52 193.7,-11.46 229.2,194.62 35.7,206.09 -84.9,252.13 -84.9,252.13" /></g><g
         transform="scale(1.13318)"
         id="g130"><path
           id="path132"
           style="fill:#ececec;fill-opacity:1;fill-rule:nonzero;stroke:none"
           d="m 15872.6,6785.87 c -10.6,-114.98 -10.6,-165.29 -10.6,-165.29 0,0 0,-115.16 83.2,-120.37 83.2,-5.2 223.6,25.95 223.6,25.95 l 119.6,249.65 c 0,0 4.2,12.71 11.6,36.45 -125.8,-31.68 -291.1,-33.19 -427.4,-26.39" /></g><path
         id="path134"
         style="fill:#fbc398;fill-opacity:1;fill-rule:nonzero;stroke:none"
         d="m 15626.5,10949.2 c 0,0 18.1,-67.9 -35.3,-191.5 -53.4,-123.6 -106.1,-291.7 -106.1,-291.7 0,0 14.8,-120.8 85.5,-147.3 70.7,-26.5 330.8,-89.1 309.7,-44.5 -21,44.5 -32.8,707.4 -32.8,707.4 l -221,-32.4" /><path
         id="path136"
         style="fill:#e4a981;fill-opacity:1;fill-rule:nonzero;stroke:none"
         d="m 13876.9,10630.5 c 0,8.8 -17.6,100.2 -76.6,135.5 -37.8,22.8 -103.7,52.7 -164.7,76 1.3,28.4 0.8,66 -10.1,68.4 -17.6,3.9 -168.5,-14.5 -168.5,-14.5 -33.6,9.8 -57.4,17.4 -57.4,17.4 l -138.4,19.4 c 0,0 -85.5,-57.7 -109,-90.1 -23.6,-32.4 -67.8,-82.5 -70.7,-153.7 -3,-71.3 2.9,-82 129.6,-279.4 126.7,-197.4 32.4,-32.4 282.8,-66.7 250.5,-34.4 91.4,0 91.4,0 l 256.3,128.6 c 0,0 35.3,150.3 35.3,159.1" /><path
         id="path138"
         style="fill:#252323;fill-opacity:1;fill-rule:nonzero;stroke:none"
         d="m 13017.4,10247.9 c 0,0 107.8,-79.5 205.1,-85.4 97.2,-5.9 258.1,18.9 256.5,42.7 -1.7,23.8 14.9,137.6 14.9,137.6 0,0 -133.1,58 -199.9,49.9 -66.8,-8.1 -77.8,17.7 -133.4,-23.7 -55.6,-41.5 -143.2,-121.1 -143.2,-121.1" /><path
         id="path140"
         style="fill:#e4a981;fill-opacity:1;fill-rule:nonzero;stroke:none"
         d="m 13105,10327.5 c 0,0 136,-82.5 170.9,-79.5 34.9,2.9 56.6,55.5 56.6,55.5 h 109 l 129.1,125.1 -294.7,26.3 -170.9,-127.4" /><path
         id="path142"
         style="fill:#252323;fill-opacity:1;fill-rule:nonzero;stroke:none"
         d="m 13017.4,10849 c 11.8,14.7 58.2,76.1 117.1,108.5 58.9,32.4 109,38.3 165,20.7 56,-17.7 108.9,-61.9 100.1,-64.9 -8.8,-2.9 -67.7,3 -103.1,-14.7 -35.3,-17.7 -109,-73.9 -111.9,-88.5 -3,-14.6 81.4,-151.3 81.4,-151.3 l -181.6,-51.9 c 0,0 -143.5,-11.3 -128.8,47.7 14.7,58.9 61.8,194.4 61.8,194.4" /><g
         transform="scale(1.07745)"
         id="g144"><path
           id="path146"
           style="fill:#bebdbb;fill-opacity:1;fill-rule:nonzero;stroke:none"
           d="m 15291.8,10584.3 987.8,244.3 c 0,0 20.4,63.9 -29.2,89.1 l -965.7,-247 7.1,-86.4" /></g><path
         id="path148"
         style="fill:#3970c0;fill-opacity:1;fill-rule:nonzero;stroke:none"
         d="m 13441.5,10303.5 c 0,0 282.2,365.3 547.4,418.3 265.2,53.1 783.7,106.1 1001.7,82.5 218,-23.5 465.5,-288.7 701.2,-418.3 235.7,-129.7 371.2,-176.8 371.2,-176.8 0,0 -447.8,-70.7 -654,-282.8 -206.3,-212.2 -194.5,-388.9 -200.4,-553.9 -5.9,-165 41.3,-324.1 23.6,-300.5 -17.7,23.5 -476.3,272.6 -742.5,288.7 -266.1,16.1 -463.6,44.9 -617.7,81.4 -154.2,36.4 -442.9,537.3 -448.8,590.3 -5.9,53 18.3,271.1 18.3,271.1" /><g
         transform="scale(1.05805)"
         id="g150"><path
           id="path152"
           style="fill:#535456;fill-opacity:1;fill-rule:nonzero;stroke:none"
           d="m 16259.2,10909 c -42.3,333.8 -245.9,592.7 -482.7,641.6 l -0.4,0.1 c -176.4,56.2 -363.5,-30.5 -363.5,-30.5 l -96,-109.3 c 0,0 -1.1,-43.9 -5.5,-97.1 -83.6,-142.5 -122.9,-333.7 -97.2,-537 25.2,-198.5 107.3,-370.5 219.6,-487.6 47.6,-106.7 106.1,-181.1 175.9,-186.9 219.3,-18.3 362.9,76 362.9,76 l 0.1,0.1 c 204.7,115 327.6,407.6 286.8,730.6" /></g><g
         transform="scale(1.04784)"
         id="g154"><path
           id="path156"
           style="fill:#767779;fill-opacity:1;fill-rule:nonzero;stroke:none"
           d="m 16249.7,10994 c -50.3,397.7 -327.3,690.1 -618.8,653.3 -172.5,-21.8 -311.4,-154.2 -385.5,-341.1 v -657.3 c 103.9,-284.4 331,-471.6 567.7,-441.6 291.4,36.8 486.9,389.1 436.6,786.7" /></g><g
         transform="scale(1.01594)"
         id="g158"><path
           id="path160"
           style="fill:#535456;fill-opacity:1;fill-rule:nonzero;stroke:none"
           d="m 16288,11287.6 c 12,-60.7 -13.1,-116.9 -56.1,-125.4 -43,-8.5 -87.6,33.8 -99.6,94.6 -12,60.7 13.1,116.8 56.1,125.3 43,8.6 87.6,-33.8 99.6,-94.5" /></g><g
         transform="scale(1.01191)"
         id="g162"><path
           id="path164"
           style="fill:#bebdbb;fill-opacity:1;fill-rule:nonzero;stroke:none"
           d="m 10068.9,9739.96 c 11.2,0.89 5771.9,1508.24 6182.7,1615.74 13,3.4 26.5,-3.7 31,-16.4 l 11.1,-30.9 c 6.3,-17.5 -3.7,-36.5 -21.6,-41.4 l -6191.7,-1668.26 -11.5,141.22" /></g><path
         id="path166"
         style="fill:#e3e2e0;fill-opacity:1;fill-rule:nonzero;stroke:none"
         d="m 10250.5,9789.1 c 3.2,-39.5 -19.2,-73.5 -50,-76 -30.8,-2.6 -58.4,27.4 -61.6,66.9 -3.2,39.4 19.1,73.5 50,76 30.8,2.5 58.4,-27.5 61.6,-66.9" /><path
         id="path168"
         style="fill:#fbc398;fill-opacity:1;fill-rule:nonzero;stroke:none"
         d="m 13441.5,10303.5 -66.8,-71.7 c 0,0 -113.4,-45.7 -184.4,-159.6 -71,-113.9 -85.3,-282.9 -85.3,-282.9 l -125,-62.8 21.5,443.9 -255.3,31.4 c 0,0 -90.4,-345.7 -172.9,-648.1 -82.5,-302.5 11.8,-636.4 62.9,-691.4 51,-55 214.9,-78.6 354.9,0 140,78.6 572.1,640.3 572.1,640.3 0,0 281,-102.6 456.7,-90.6 0,0 191.5,122 191.5,326.3 0,204.2 -381,604 -769.9,565.2" /><path
         id="path170"
         style="fill:#f0ae82;fill-opacity:1;fill-rule:nonzero;stroke:none"
         d="m 13466.7,9951.2 c -52.4,0 -90.6,13.9 -90.6,13.9 221.7,69.2 329.5,149.4 329.5,149.4 -62.2,-135.3 -164.7,-163.3 -238.9,-163.3" /><path
         id="path172"
         style="fill:#df9866;fill-opacity:1;fill-rule:nonzero;stroke:none"
         d="m 12980,9726.5 c 0,0 3.8,-77.6 33.3,-194.9 29.4,-117.4 38.3,-276.5 38.3,-276.5 0,0 41.2,180.5 17.7,303.9 -23.6,123.3 11.7,218.2 11.7,218.2 l -101,-50.7" /><path
         id="path174"
         style="fill:#fbc398;fill-opacity:1;fill-rule:nonzero;stroke:none"
         d="m 12746.2,10201.8 -18.3,192.3 482.2,129.9 c 0,0 -27,75.8 0,81.1 27.1,5.3 91.9,-89 95.8,-118.5 4,-29.4 -3.9,-110 -37.3,-129.6 -33.4,-19.7 -127.8,-72.7 -187.6,-117.9 -59.9,-45.1 -79.5,-68.7 -79.5,-68.7 0,0 -70.7,-53 -108,-33.4 -37.3,19.6 -147.3,64.8 -147.3,64.8" /><path
         id="path176"
         style="fill:#fbc398;fill-opacity:1;fill-rule:nonzero;stroke:none"
         d="m 12727.9,10518.7 c -8.4,12.1 24.2,89.7 57.5,115.2 33.4,25.6 94.3,15.7 94.3,15.7 0,0 25.7,31.4 66.8,33.4 41.1,2 33.5,-9.8 33.5,-9.8 0,0 47,29.9 68.6,10.1 0,0 57,9.6 78.6,-8.1 21.6,-17.7 72.7,-130.1 53,-147.3 -19.6,-17.3 -46.5,3.9 -46.5,3.9 0,0 -2.7,-53.8 -52.7,-42.6 0,0 -19.5,-18.7 -50.5,-13.6 -31,5.1 -31,5.1 -31,5.1 0,0 -47.1,-17.9 -70.7,-6 -23.5,11.9 -72.8,77.4 -72.8,77.4 l -128.1,-33.4" /><path
         id="path178"
         style="fill:#fbc398;fill-opacity:1;fill-rule:nonzero;stroke:none"
         d="m 15683.3,10919.7 -56.8,29.5 c 0,0 -111.9,70.7 -141.4,88.4 -29.4,17.6 -66.1,81.6 -66.1,81.6 l 86.4,23.3 c 0,0 20.9,108.1 42,113.6 21,5.5 64,27.6 79.9,20.9 15.9,-6.7 -41,-67.6 -41,-67.6 l 11.6,-42 245,66 c 0,0 20.3,-59.3 16.4,-112.4 -3.9,-53 -11.8,-139.4 -11.8,-139.4 l -100.8,-100.2 -63.4,38.3" /><path
         id="path180"
         style="fill:#fbc398;fill-opacity:1;fill-rule:nonzero;stroke:none"
         d="m 15403.3,11218.4 c 0,0 1.3,3.4 3.6,9 8.4,20.8 29.9,71.3 43.9,82.2 17.6,13.7 45.1,13.7 45.1,13.7 0,0 33.4,29.5 66.8,29.5 33.4,0 49.1,-9.8 49.1,-9.8 0,0 35.4,5.8 53,9.8 17.7,4 85.3,-51.1 81.9,-90.4 -3.3,-39.2 -22.9,-27.5 -22.9,-27.5 0,0 -27.9,-21.6 -40.5,-25.5 -12.6,-3.9 -28.3,0 -28.3,0 0,0 -17.7,-27.5 -43.2,-13.7 -25.5,13.7 -65,23.5 -65,23.5 l -22.7,30.8" /><path
         id="path182"
         style="fill:#535456;fill-opacity:1;fill-rule:nonzero;stroke:none"
         d="m 12118.8,10199.9 c -52.1,409.3 -294.6,727.5 -575,788.6 l -0.5,0.1 c -209,69.7 -429.7,-35.7 -429.7,-35.7 l -112.8,-133.6 c 0,0 -1,-53.8 -5.8,-118.9 -98,-174.3 -143.2,-408.5 -111.5,-657.8 31,-243.4 129.4,-454.5 262.9,-598.6 57,-130.9 126.6,-222.3 209.2,-229.8 259.4,-23.4 428.7,91.4 428.7,91.4 l 0.1,0.2 c 241.4,140.1 384.8,498.1 334.4,894.1" /><path
         id="path184"
         style="fill:#767779;fill-opacity:1;fill-rule:nonzero;stroke:none"
         d="m 11922.3,10174.9 c 61.5,-482.9 -165.1,-909.6 -506.3,-953 -341.1,-43.4 -667.4,312.8 -728.9,795.7 -61.5,482.9 165.2,909.5 506.3,953 341.1,43.4 667.5,-312.8 728.9,-795.7" /><path
         id="path186"
         style="fill:#8f908f;fill-opacity:1;fill-rule:nonzero;stroke:none"
         d="m 11855.2,10174.8 c 54.8,-430.7 -147.3,-811.2 -451.6,-849.9 -304.2,-38.8 -595.3,278.9 -650.2,709.6 -54.8,430.7 147.4,811.3 451.6,850 304.3,38.8 595.4,-279 650.2,-709.7" /><path
         id="path188"
         style="fill:#767779;fill-opacity:1;fill-rule:nonzero;stroke:none"
         d="m 11454.6,10122.7 c 16.6,-76.6 -23.5,-150.3 -89.6,-164.6 -66.1,-14.3 -133,36.2 -149.6,112.8 -16.6,76.6 23.5,150.3 89.6,164.6 66.1,14.3 133,-36.2 149.6,-112.8" /><path
         id="path190"
         style="fill:#bebdbb;fill-opacity:1;fill-rule:nonzero;stroke:none"
         d="m 11331.1,10154.3 c 0,0 63.1,-53.5 28.2,-127.9 l -758.7,-204.4 -38.8,131.4 769.3,200.9" /><g
         transform="scale(1.00588)"
         id="g192"><path
           id="path194"
           style="fill:#a1a1a0;fill-opacity:1;fill-rule:nonzero;stroke:none"
           d="m 16166.3,12205.1 -60.1,-1987.3 h 133.8 l 60,1987.3 h -133.7" /></g><path
         id="path196"
         style="fill:#a1a1a0;fill-opacity:1;fill-rule:nonzero;stroke:none"
         d="m 15933.3,12124.5 v -1321.4 h 108.5 l 20.3,1321.4 h -128.8" /><g
         transform="scale(1.00748)"
         id="g198"><path
           id="path200"
           style="fill:#bebdbb;fill-opacity:1;fill-rule:nonzero;stroke:none"
           d="m 15688.5,11239.6 585.6,153.2 25.9,-88 -536.4,-144.5 -75.1,79.3" /></g><g
         transform="scale(1.0076)"
         id="g202"><path
           id="path204"
           style="fill:#535456;fill-opacity:1;fill-rule:nonzero;stroke:none"
           d="m 16196,10831.1 -52,1.1 c -47,0.9 -84.3,39.8 -83.4,86.8 l 16.3,802.5 c 1,47 39.8,84.4 86.8,83.4 l 51.9,-1 c 47.1,-1 84.4,-39.8 83.5,-86.9 l -16.3,-802.5 c -1,-47 -39.9,-84.3 -86.8,-83.4" /></g><path
         id="path206"
         style="fill:#bebdbb;fill-opacity:1;fill-rule:nonzero;stroke:none"
         d="m 7070.25,12608.5 1082.23,175.9 c 0,0 27.5,66.8 -23.57,98.2 l -1058.66,-180.7 v -93.4" /><path
         id="path208"
         style="fill:#535456;fill-opacity:1;fill-rule:nonzero;stroke:none"
         d="m 7870.37,12668 c -15.83,355.7 -208.28,646.2 -453.84,718.1 l -0.39,0.2 c -181.25,74.4 -385.98,-0.9 -385.98,-0.9 l -110.63,-107.1 c 0,0 -4.88,-46.2 -14.1,-101.8 -100.44,-143.2 -158.31,-341.4 -148.66,-558.1 9.42,-211.5 81.32,-399.9 189.65,-533 41.03,-116.6 96.31,-200 169.42,-212.2 229.58,-38.1 389.2,48.9 389.2,48.9 l 0.1,0.2 c 225.78,103.6 380.55,401.6 365.23,745.7" /><path
         id="path210"
         style="fill:#767779;fill-opacity:1;fill-rule:nonzero;stroke:none"
         d="m 7693.27,12660.1 c 18.69,-419.5 -215.46,-770.8 -522.97,-784.5 -307.52,-13.7 -571.95,315.4 -590.63,735 -18.68,419.5 215.46,770.8 522.97,784.5 307.52,13.6 571.95,-315.4 590.63,-735" /><path
         id="path212"
         style="fill:#100f0d;fill-opacity:1;fill-rule:nonzero;stroke:none"
         d="m 8449.06,8459.4 c 0,0 103.76,97 235.7,200.3 131.93,103.3 206.23,419.4 206.23,419.4 0,0 -343.18,83.5 -513.35,0 -170.16,-83.5 -276.23,-49.8 -176.06,-216.9 100.17,-167.1 247.48,-402.8 247.48,-402.8" /><path
         id="path214"
         style="fill:#3970c0;fill-opacity:1;fill-rule:nonzero;stroke:none"
         d="m 7325.39,6544.9 -117.17,68.2 c 0,0 -61.37,-62.8 -102.62,-121.8 -41.24,-58.9 -164.98,-377.1 -153.2,-447.8 11.78,-70.7 207.46,-147.3 307.02,-229.8 99.55,-82.5 279.35,-335.8 510.59,-430.1 231.23,-94.3 531.74,-70.7 502.28,159.1 -29.46,229.8 -188.55,223 -306.4,429.7 -117.85,206.7 -218.02,412.9 -241.59,507.2 -23.57,94.2 -134.58,190 -158.05,191.5 -23.48,1.5 -240.86,-126.2 -240.86,-126.2" /><path
         id="path216"
         style="fill:#3970c0;fill-opacity:1;fill-rule:nonzero;stroke:none"
         d="m 8985.94,7334 -171.56,29.4 c 0,0 -141.41,-33.5 -164.98,-87.4 -23.57,-54 -139,-401.7 -122.53,-460.6 16.47,-58.9 240.38,-153 364.12,-144.3 123.74,8.8 173.59,55.9 343.11,-56 169.52,-112 570.2,-134.6 746.97,-70.2 176.73,64.3 247.53,241.1 0,329.4 -247.48,88.4 -320.36,129.7 -387.03,176.8 -66.68,47.2 -284.69,193.9 -296.48,264.9 -11.78,71 -200.34,206.5 -200.34,206.5 L 8985.94,7334" /><path
         id="path218"
         style="fill:#deddda;fill-opacity:1;fill-rule:nonzero;stroke:none"
         d="m 7259.42,8113.6 510.59,-1545.7 313.73,-129.6 -559.78,1596.8 -264.54,78.5" /><path
         id="path220"
         style="fill:#b5b5b4;fill-opacity:1;fill-rule:nonzero;stroke:none"
         d="m 7671.58,7977.7 530,-1474.6 -117.84,-64.8 -559.78,1596.8 147.62,-57.4" /><path
         id="path222"
         style="fill:#deddda;fill-opacity:1;fill-rule:nonzero;stroke:none"
         d="m 7908.93,7946.8 c 31.42,-13.8 505.23,-115.9 617.94,-112 112.71,3.9 214.54,-12.6 253.97,215.6 39.44,228.3 -94.12,279.4 -94.12,279.4 0,0 -447.82,91.4 -459.61,94.8 -11.78,3.4 -373.5,-157.8 -416.39,-193 -42.89,-35.3 -40.71,-118 -40.71,-118 l 138.92,-166.8" /><path
         id="path224"
         style="fill:#fbc398;fill-opacity:1;fill-rule:nonzero;stroke:none"
         d="m 8484.41,8840.1 347.66,34.7 -76.61,-556.8 c 0,0 53.04,-359.5 17.68,-642.3 -35.35,-282.8 -35.35,-399.7 -35.35,-399.7 0,0 0,-130.6 94.28,-136.5 94.27,-5.9 253.36,29.5 253.36,29.5 l 135.53,282.8 c 0,0 88.39,268.9 182.66,661.8 94.28,392.9 206.23,701.3 188.56,965.5 -17.68,264.2 5.89,275.9 -135.52,405.6 -141.42,129.6 -565.67,225.6 -565.67,225.6 0,0 -377.11,4.2 -465.5,-149 -88.39,-153.2 -194.45,-194.5 -100.17,-377.1 94.28,-182.7 159.09,-344.1 159.09,-344.1" /><path
         id="path226"
         style="fill:#a1a1a0;fill-opacity:1;fill-rule:nonzero;stroke:none"
         d="m 7231.37,14437.9 -134.35,4 -137.58,-4551.2 134.35,-4.1 137.58,4551.3" /><path
         id="path228"
         style="fill:#e4a981;fill-opacity:1;fill-rule:nonzero;stroke:none"
         d="m 4642.59,10400.9 c 0,8.9 -17.67,100.2 -76.59,135.5 -37.88,22.8 -103.73,52.8 -164.74,76 1.26,28.5 0.82,66 -10.07,68.4 -17.68,4 -168.53,-14.5 -168.56,-14.5 -33.52,9.8 -57.35,17.5 -57.35,17.5 l -138.44,19.3 c 0,0 -85.44,-57.6 -109.01,-90 -23.57,-32.5 -67.76,-82.5 -70.71,-153.8 -2.94,-71.2 2.95,-81.9 129.64,-279.3 126.68,-197.4 32.41,-32.4 282.83,-66.8 250.42,-34.4 91.33,0 91.33,0 l 256.32,128.6 c 0,0 35.35,150.3 35.35,159.1" /><path
         id="path230"
         style="fill:#252323;fill-opacity:1;fill-rule:nonzero;stroke:none"
         d="m 3773.47,10654.3 c 11.78,14.7 67.77,41.3 126.69,73.6 58.92,32.5 109.01,38.4 164.98,20.7 55.98,-17.7 108.95,-61.9 100.14,-64.8 -8.81,-3 -67.73,2.9 -103.08,-14.8 -35.36,-17.6 -109.01,-73.9 -111.96,-88.5 -2.95,-14.6 81.42,-151.3 81.42,-151.3 l -181.59,-51.8 c 0,0 -117.84,55.9 -103.12,114.9 14.73,58.9 26.52,162 26.52,162" /><path
         id="path232"
         style="fill:#a1a1a0;fill-opacity:1;fill-rule:nonzero;stroke:none"
         d="m 6793.15,9800.3 -365.28,5.6 70.97,4619.1 365.28,-5.6 -70.97,-4619.1" /><path
         id="path234"
         style="fill:#deddda;fill-opacity:1;fill-rule:nonzero;stroke:none"
         d="m 6659.56,9800.3 -365.29,5.6 70.97,4619.1 365.28,-5.6 -70.96,-4619.1" /><path
         id="path236"
         style="fill:#deddda;fill-opacity:1;fill-rule:nonzero;stroke:none"
         d="m 1077.71,8046.9 3771.12,1154.9 v -98.4 l -3706.3,-1156.6 -64.82,100.1" /><path
         id="path238"
         style="fill:#a1a1a0;fill-opacity:1;fill-rule:nonzero;stroke:none"
         d="m 6581.05,14103.8 -78.2,-11.6 c -28.54,-4.3 -55.1,15.5 -59.32,44 -4.23,28.5 15.48,55.1 44.02,59.3 l 78.21,11.6 c 28.53,4.2 55.09,-15.5 59.32,-44 4.22,-28.6 -15.49,-55.1 -44.03,-59.3" /><path
         id="path240"
         style="fill:#a1a1a0;fill-opacity:1;fill-rule:nonzero;stroke:none"
         d="m 6575.7,13702.9 -78.2,-11.5 c -28.54,-4.3 -55.1,15.4 -59.33,44 -4.22,28.5 15.49,55.1 44.03,59.3 l 78.2,11.6 c 28.54,4.2 55.1,-15.5 59.32,-44 4.23,-28.6 -15.48,-55.1 -44.02,-59.4" /><path
         id="path242"
         style="fill:#a1a1a0;fill-opacity:1;fill-rule:nonzero;stroke:none"
         d="m 6570.35,13302.1 -78.21,-11.6 c -28.54,-4.2 -55.1,15.5 -59.32,44.1 -4.23,28.5 15.48,55 44.02,59.3 l 78.2,11.5 c 28.54,4.3 55.1,-15.4 59.33,-44 v 0 c 4.22,-28.5 -15.49,-55.1 -44.02,-59.3" /><path
         id="path244"
         style="fill:#a1a1a0;fill-opacity:1;fill-rule:nonzero;stroke:none"
         d="m 6564.99,12901.3 -78.21,-11.6 c -28.53,-4.2 -55.1,15.5 -59.32,44 -4.22,28.6 15.49,55.1 44.02,59.3 l 78.21,11.6 c 28.54,4.2 55.1,-15.5 59.32,-44 4.23,-28.5 -15.48,-55.1 -44.02,-59.3" /><path
         id="path246"
         style="fill:#a1a1a0;fill-opacity:1;fill-rule:nonzero;stroke:none"
         d="m 6559.63,12500.4 -78.2,-11.5 c -28.54,-4.2 -55.1,15.5 -59.33,44 -4.22,28.5 15.49,55.1 44.03,59.3 l 78.21,11.6 c 28.54,4.2 55.09,-15.5 59.32,-44 4.22,-28.6 -15.49,-55.1 -44.03,-59.4" /><path
         id="path248"
         style="fill:#a1a1a0;fill-opacity:1;fill-rule:nonzero;stroke:none"
         d="m 6554.28,12099.6 -78.21,-11.5 c -28.54,-4.3 -55.09,15.4 -59.32,44 -4.22,28.5 15.49,55.1 44.03,59.3 l 78.2,11.6 c 28.54,4.2 55.1,-15.5 59.32,-44.1 4.22,-28.5 -15.48,-55 -44.02,-59.3" /><path
         id="path250"
         style="fill:#a1a1a0;fill-opacity:1;fill-rule:nonzero;stroke:none"
         d="m 6548.93,11698.8 -78.21,-11.6 c -28.54,-4.2 -55.1,15.5 -59.32,44.1 -4.23,28.5 15.48,55 44.02,59.3 l 78.21,11.5 c 28.53,4.3 55.09,-15.4 59.32,-44 4.22,-28.5 -15.49,-55.1 -44.02,-59.3" /><path
         id="path252"
         style="fill:#a1a1a0;fill-opacity:1;fill-rule:nonzero;stroke:none"
         d="m 6543.57,11298 -78.21,-11.6 c -28.53,-4.2 -55.1,15.5 -59.32,44 -4.22,28.6 15.49,55.1 44.02,59.3 l 78.21,11.6 c 28.54,4.2 55.1,-15.5 59.32,-44 4.23,-28.5 -15.49,-55.1 -44.02,-59.3" /><path
         id="path254"
         style="fill:#a1a1a0;fill-opacity:1;fill-rule:nonzero;stroke:none"
         d="m 6538.21,10897.2 -78.21,-11.6 c -28.53,-4.2 -55.09,15.5 -59.31,44 -4.23,28.5 15.48,55.1 44.02,59.3 l 78.21,11.6 c 28.54,4.2 55.09,-15.5 59.32,-44 4.22,-28.6 -15.49,-55.1 -44.03,-59.3" /><path
         id="path256"
         style="fill:#a1a1a0;fill-opacity:1;fill-rule:nonzero;stroke:none"
         d="m 6532.86,10496.3 -78.21,-11.5 c -28.54,-4.3 -55.09,15.4 -59.32,44 -4.22,28.5 15.49,55.1 44.03,59.3 l 78.2,11.6 c 28.54,4.2 55.1,-15.5 59.32,-44.1 4.23,-28.5 -15.48,-55 -44.02,-59.3" /><path
         id="path258"
         style="fill:#a1a1a0;fill-opacity:1;fill-rule:nonzero;stroke:none"
         d="m 6527.5,10095.5 -78.2,-11.6 c -28.54,-4.2 -55.1,15.5 -59.32,44 -4.23,28.6 15.48,55.1 44.02,59.4 l 78.21,11.5 c 28.53,4.3 55.09,-15.4 59.32,-44 4.22,-28.5 -15.49,-55.1 -44.03,-59.3" /><path
         id="path260"
         style="fill:#b5b5b4;fill-opacity:1;fill-rule:nonzero;stroke:none"
         d="M 1142.53,7946.8 5485.2,9302 v -247.5 l -4002.91,-1187.4 -339.76,79.7" /><path
         id="path262"
         style="fill:#fbc398;fill-opacity:1;fill-rule:nonzero;stroke:none"
         d="m 5455.74,10459.3 c 0,44.7 200.34,416 329.97,551.5 129.64,135.5 123.74,94.3 129.64,135.5 5.89,41.3 23.57,212.1 212.12,495 188.56,282.8 241.59,571.5 241.59,571.5 l 212.12,-47.1 c 0,0 -5.89,-518.5 -117.85,-754.2 -111.95,-235.7 -206.23,-353.6 -241.58,-430.2 -35.36,-76.6 -182.67,-589.2 -203.29,-601 -20.62,-11.8 -386.66,-111.9 -386.66,-111.9 l -176.06,190.9" /><path
         id="path264"
         style="fill:#deddda;fill-opacity:1;fill-rule:nonzero;stroke:none"
         d="m 3746.95,9302 -47.14,-1434.9 312.3,-73.5 29.46,1508.4 h -294.62" /><path
         id="path266"
         style="fill:#b5b5b4;fill-opacity:1;fill-rule:nonzero;stroke:none"
         d="m 4165.28,9194.9 -27.22,-1327.8 -125.95,-73.5 29.46,1508.4 123.71,-107.1" /><path
         id="path268"
         style="fill:#515254;fill-opacity:1;fill-rule:nonzero;stroke:none"
         d="M 3493.58,9802.9 V 9355 l 4271.97,-1408.2 777.79,465.5 c 0,0 106.06,150.2 70.71,265.1 -35.36,114.9 -3950.83,1396.5 -3950.83,1396.5 0,0 -960.46,-153.2 -1169.64,-271" /><path
         id="path270"
         style="fill:#767779;fill-opacity:1;fill-rule:nonzero;stroke:none"
         d="M 3493.58,9802.9 V 9355 l 4271.97,-1408.2 4.46,488.2 -4276.43,1367.9" /><path
         id="path272"
         style="fill:#100f0d;fill-opacity:1;fill-rule:nonzero;stroke:none"
         d="m 7040.79,8294.4 218.63,-180.8 212.32,90.4 -146.35,491.1 c 0,0 -308.17,-67.9 -319.96,-110.5 -11.78,-42.7 35.36,-290.2 35.36,-290.2" /><path
         id="path274"
         style="fill:#252323;fill-opacity:1;fill-rule:nonzero;stroke:none"
         d="m 5997.84,8842.4 c 0,0 477.28,-153.2 618.69,-294.6 141.42,-141.4 253.57,-305.8 448.23,-370 194.66,-64.2 194.66,-64.2 194.66,-64.2 0,0 -171.5,398.8 -77.22,669.9 94.28,271 489.38,471.4 489.38,471.4 l 412.16,-680.6 c 0,0 371.21,-138.5 365.32,-114.9 -5.89,23.6 -17.68,223.9 106.06,415.4 123.74,191.5 76.6,380.1 170.88,592.2 94.28,212.1 164.99,243.3 164.99,243.3 0,0 -365.33,186.8 -913.32,180.9 -547.99,-5.8 -1149.01,88.4 -1149.01,88.4 0,0 -571.56,106.1 -665.84,47.2 -94.28,-59 -265.15,-138 -335.86,-316.5 -70.71,-178.5 -70.71,-72.4 -64.82,-237.4 5.9,-165 -5.89,-294.6 29.47,-318.2 35.35,-23.6 206.23,-312.3 206.23,-312.3" /><path
         id="path276"
         style="fill:#df9866;fill-opacity:1;fill-rule:nonzero;stroke:none"
         d="m 5756.25,10574.8 c 0,0 135.53,135.5 188.55,218 l -94.27,-300.5 -94.28,82.5" /><path
         id="path278"
         style="fill:#3970c0;fill-opacity:1;fill-rule:nonzero;stroke:none"
         d="m 4165.28,10121 c 0,0 324.11,318.2 589.27,371.3 265.16,53 783.68,106 1001.7,82.5 218.02,-23.6 465.5,-288.8 701.19,-418.4 235.69,-129.6 371.22,-176.8 371.22,-176.8 0,0 -447.82,-70.7 -654.05,-282.8 -206.24,-212.1 -194.45,-388.9 -200.34,-553.9 -5.9,-165 41.24,-324.1 23.57,-300.5 -17.68,23.6 -476.31,272.6 -742.44,288.7 -266.13,16.1 -463.66,45 -617.78,81.4 -154.12,36.5 -442.84,537.3 -448.74,590.4 -5.89,53 -23.6,318.1 -23.6,318.1" /><path
         id="path280"
         style="fill:#deddda;fill-opacity:1;fill-rule:nonzero;stroke:none"
         d="m 2138.34,7575.5 -553.88,6788 h 412.46 L 2648.03,7334 c 0,0 1582.1,-618.7 1688.16,-760.2 106.07,-141.4 -53.03,-450.7 -247.48,-486.1 -194.45,-35.3 -3155.355,1520.2 -3208.39,1564.4 -53.031,44.2 -44.191,347.7 197.39,394.8 l 1060.63,-471.4" /><path
         id="path282"
         style="fill:#fbc398;fill-opacity:1;fill-rule:nonzero;stroke:none"
         d="m 3654.64,11668.8 c 0,0 -35.35,-168.9 66.78,-459.6 102.13,-290.7 121.78,-608.9 121.78,-608.9 0,0 149.27,-106.1 271.05,-271.1 121.77,-164.9 145.34,-216 145.34,-216 0,0 388.9,-74.6 608.88,-314.3 219.98,-239.6 78.65,-567 -19.64,-597.1 -98.3,-30.1 -365.33,47.2 -365.33,47.2 0,0 -365.33,35.3 -443.89,106 -78.57,70.7 -90.35,141.5 -90.35,141.5 0,0 -161.06,208.1 -255.33,369.2 -94.28,161.1 -145.35,334.3 -145.35,359.6 0,25.4 -188.56,268.9 -200.34,602.8 -11.78,333.9 19.64,895.7 19.64,895.7 l 286.76,-55" /><path
         id="path284"
         style="fill:#b5b5b4;fill-opacity:1;fill-rule:nonzero;stroke:none"
         d="m 1996.92,14363.5 h 129.64 l 521.47,-7029.5 -85.44,58.9 -565.67,6970.6" /><path
         id="path286"
         style="fill:#b5b5b4;fill-opacity:1;fill-rule:nonzero;stroke:none"
         d="m 2250.29,14363.5 500.86,-7294.7 c 0,0 86.42,-58.9 133.56,0 l -483.18,7294.7 h -151.24" /><path
         id="path288"
         style="fill:#767779;fill-opacity:1;fill-rule:nonzero;stroke:none"
         d="m 2648.03,8570.7 c 0,0 -51.91,-14 -59.84,-61.2 -7.92,-47.2 80.46,-852.9 80.46,-852.9 0,0 4.71,-28.1 45.08,-42.8 40.36,-14.7 100.57,-13.7 135.28,-6.1 34.72,7.6 56.81,37.1 64.17,59.2 7.37,22.1 -20.62,833.7 -28.47,876.9 -7.86,43.3 -101.58,58.6 -101.58,58.6 l 2.96,-44.8 c 0,0 -43.16,-34.5 -135.81,-19.8 l -2.25,32.9" /><path
         id="path290"
         style="fill:#9c9c9b;fill-opacity:1;fill-rule:nonzero;stroke:none"
         d="m 2484.4,10953.9 c 0,0 54.56,-35.4 142.98,0 0,0 65.51,137.4 -15.35,318.1 0,0 -110.66,17.5 -148.79,-9.9 0,0 -60.95,-135.4 21.16,-308.2" /><path
         id="path292"
         style="fill:#767779;fill-opacity:1;fill-rule:nonzero;stroke:none"
         d="m 2376.01,12532.6 c 0,0 79.52,-24 146.8,0 0,0 18.18,4.3 44.69,-62.5 26.52,-66.7 84.93,-1099.9 84.93,-1099.9 0,0 12.96,-66.8 -40.4,-98.2 l -148.79,-9.9 c 0,0 -45.01,2.1 -56.8,66.9 l -83.96,1154.9 c 0,0 5.42,38.5 53.53,48.7" /><path
         id="path294"
         style="fill:#b5b5b4;fill-opacity:1;fill-rule:nonzero;stroke:none"
         d="m 4146.31,6693.8 c -72.42,-51.7 -142.06,-121.2 -193.12,-214.2 -40.56,-73.9 -51.7,-197.4 -45.69,-340.6 93.97,-36.6 157.76,-55.5 181.21,-51.3 194.45,35.4 353.55,344.7 247.48,486.1 -19.53,26.1 -89.28,68.4 -189.88,120" /><path
         id="path296"
         style="fill:#df9866;fill-opacity:1;fill-rule:nonzero;stroke:none"
         d="m 4259.59,10113.2 135.53,-145.4 212.12,-76.6 c 0,0 -165.81,76.6 -203.7,182.7 l -143.95,39.3" /><path
         id="path298"
         style="fill:#100f0d;fill-opacity:1;fill-rule:nonzero;stroke:none"
         d="m 6893.48,9578.9 c 0,0 501.46,-117.8 778.1,-324 l 273.97,-297.6 h 91.05 c 0,0 47.14,159.9 -35.36,237.6 -82.49,77.6 -553.88,301.6 -589.24,331 -35.35,29.5 -86.61,277 -86.61,277 0,0 -7.67,-229.9 -37.12,-235.7 -29.47,-5.9 -394.79,11.7 -394.79,11.7" /><path
         id="path300"
         style="fill:#fbc398;fill-opacity:1;fill-rule:nonzero;stroke:none"
         d="m 7169.61,8425 195.25,-65.8 c 0,0 -194.44,-153.2 -164.98,-618.7 29.46,-465.5 47.14,-760.1 23.57,-995.8 -23.57,-235.7 -53.84,-354.3 -53.84,-354.3 0,0 116.31,-40.5 155.78,-22.8 39.47,17.7 27.69,76.6 80.72,100.2 53.04,23.5 200.34,58.9 200.34,58.9 0,0 3.03,458.2 163.56,806.6 160.52,348.3 201.77,489.7 219.45,813.8 17.67,324.1 129.9,442.5 94.28,693 -35.63,250.4 -412.16,414.8 -412.16,414.8 0,0 -620.62,-139.6 -501.97,-829.9" /><path
         id="path302"
         style="fill:#ececec;fill-opacity:1;fill-rule:nonzero;stroke:none"
         d="m 7221.59,6726.6 c -23.27,-223.6 -51.98,-336.2 -51.98,-336.2 0,0 116.31,-40.5 155.78,-22.8 39.47,17.7 27.69,76.6 80.72,100.2 53.04,23.5 200.34,58.9 200.34,58.9 0,0 0.38,55.5 7.62,142.6 -146.49,2.8 -287.48,30.8 -392.48,57.3" /><path
         id="path304"
         style="fill:#b5b5b4;fill-opacity:1;fill-rule:nonzero;stroke:none"
         d="m 8686.72,8329.8 c 0,0 -54.47,11.1 -125.9,25.7 -44.82,-36.6 -102.61,-105 -129.44,-225.8 -25.06,-113 -5.7,-216.9 17.93,-289.5 32.78,-4 59.7,-6 77.56,-5.4 112.71,3.9 214.54,-12.6 253.97,215.6 39.44,228.3 -94.12,279.4 -94.12,279.4" /><path
         id="path306"
         style="fill:#ececec;fill-opacity:1;fill-rule:nonzero;stroke:none"
         d="m 8749.79,7463.2 c -11.99,-130.3 -12.01,-187.2 -12.01,-187.2 0,0 0,-130.6 94.29,-136.5 94.27,-5.9 253.36,29.5 253.36,29.5 l 135.53,282.8 c 0,0 4.75,14.5 13.14,41.3 -142.64,-35.9 -329.89,-37.6 -484.31,-29.9" /><path
         id="path308"
         style="fill:#535456;fill-opacity:1;fill-rule:nonzero;stroke:none"
         d="m 7135.72,12665.3 c 8.54,-62.3 -20.32,-117.7 -64.45,-123.8 -44.14,-6 -86.83,39.6 -95.36,101.9 -8.54,62.3 20.33,117.7 64.46,123.8 44.13,6 86.82,-39.6 95.35,-101.9" /><path
         id="path310"
         style="fill:#bebdbb;fill-opacity:1;fill-rule:nonzero;stroke:none"
         d="m 678.02,11576.5 c 11.355,0 5939.08,1045.5 6367.8,1121.1 13.51,2.4 26.37,-6.7 28.77,-20.2 l 7.34,-41.2 c 2.43,-13.7 -6.64,-26.8 -20.3,-29.3 L 678.02,11433.1 v 143.4" /><path
         id="path312"
         style="fill:#e3e2e0;fill-opacity:1;fill-rule:nonzero;stroke:none"
         d="m 733.992,11504.8 c 0,-39.6 -25.062,-71.7 -55.972,-71.7 -30.918,0 -55.977,32.1 -55.977,71.7 0,39.6 25.059,71.7 55.977,71.7 30.91,0 55.972,-32.1 55.972,-71.7" /><path
         id="path314"
         style="fill:#fbc398;fill-opacity:1;fill-rule:nonzero;stroke:none"
         d="m 3352.92,12046.6 c 0,0 47.86,95.5 103.84,132.3 55.97,36.9 101.64,17.7 101.64,17.7 0,0 26.52,32.4 54.51,26.5 27.98,-5.8 27.98,-5.8 27.98,-5.8 0,0 29.47,26.5 44.19,25 14.73,-1.5 22.1,-7.4 22.1,-7.4 0,0 44.19,17.8 69.24,7.5 25.04,-10.4 82.49,-157.7 53.03,-181.3 -29.46,-23.6 -57.45,-14.5 -57.45,-14.5 0,0 -4.42,-32.6 -41.25,-34.1 -36.82,-1.5 -42.72,13.3 -42.72,13.3 0,0 1.48,-29.5 -36.82,-25.1 -38.3,4.4 -44.2,17.7 -44.2,17.7 0,0 7.37,-19.2 -32.41,1.5 -39.77,20.6 -51.68,56.6 -51.68,56.6 l -170,-29.9" /><path
         id="path316"
         style="fill:#535456;fill-opacity:1;fill-rule:nonzero;stroke:none"
         d="m 2661.53,11767.8 c -21.55,412.1 -239.69,747.5 -514.81,829.2 l -0.44,0.2 c -203.29,85 -431.2,-3.8 -431.2,-3.8 l -122.43,-124.7 c 0,0 -4.94,-53.6 -14.64,-118.2 -110.66,-166.6 -173.16,-396.7 -160.03,-647.7 12.81,-245 95.18,-462.9 217.65,-616.5 47.1,-134.8 109.77,-231.1 191.58,-244.7 256.9,-42.6 434.27,59.3 434.27,59.3 l 0.11,0.2 c 251.11,121.7 420.79,468.1 399.94,866.7" /><path
         id="path318"
         style="fill:#767779;fill-opacity:1;fill-rule:nonzero;stroke:none"
         d="m 2463.76,11757.5 c 25.42,-486.1 -232.34,-894.8 -575.74,-912.7 -343.4,-18 -642.39,361.5 -667.81,847.7 -25.42,486.1 232.35,894.7 575.75,912.7 343.4,17.9 642.38,-361.6 667.8,-847.7" /><path
         id="path320"
         style="fill:#8f908f;fill-opacity:1;fill-rule:nonzero;stroke:none"
         d="m 2396.56,11754 c 22.67,-433.6 -207.24,-798.1 -513.52,-814.1 -306.28,-16 -572.95,322.5 -595.62,756.1 -22.67,433.6 207.23,798 513.51,814 306.28,16.1 572.95,-322.4 595.63,-756" /><path
         id="path322"
         style="fill:#767779;fill-opacity:1;fill-rule:nonzero;stroke:none"
         d="m 2031.48,11745.3 c 8.85,-77.9 -38.41,-147.2 -105.57,-154.8 -67.16,-7.6 -128.77,49.3 -137.62,127.1 -8.86,77.9 38.41,147.2 105.57,154.8 67.15,7.7 128.77,-49.3 137.62,-127.1" /><path
         id="path324"
         style="fill:#bebdbb;fill-opacity:1;fill-rule:nonzero;stroke:none"
         d="m 1886.23,11788.5 c 0,0 55.81,-43.2 23.67,-128.9 l -902.1,-165.9 v 140.2 l 878.43,154.6" /><path
         id="path326"
         style="fill:#fbc398;fill-opacity:1;fill-rule:nonzero;stroke:none"
         d="m 3367.88,11723.8 v 203.9 l 245.66,45.2 c 0,0 68.9,17.3 142.55,26.2 73.66,8.8 100.57,18.5 100.57,18.5 l 40.55,3.7 c 0,0 -38.3,114.9 0,123.8 38.3,8.8 91.33,-117.9 85.44,-150.3 -5.89,-32.4 -41.25,-126.7 -88.39,-170.9 -47.14,-44.2 -239.62,-155.1 -239.62,-155.1 0,0 -125.7,-39.3 -152.22,-45.2 -26.51,-5.9 -134.54,100.2 -134.54,100.2" /><path
         id="path328"
         style="fill:#fbc398;fill-opacity:1;fill-rule:nonzero;stroke:none"
         d="m 6369.06,12212.8 c 0,0 -2.95,29.5 -70.71,59 -67.76,29.4 -156.15,88.3 -167.93,109 -11.79,20.6 -23.57,50.1 -23.57,50.1 l 173.82,41.2 c 0,0 -26.51,112 -11.78,147.3 14.73,35.4 58.92,17.7 61.87,0 2.94,-17.7 0,-53 14.73,-82.5 14.73,-29.5 36.5,-51.7 36.5,-51.7 l 166.74,27.4 c 0,0 26.56,-87.6 32.45,-146.6 5.9,-58.9 0,-200.3 0,-200.3 0,0 -141.41,-61.9 -153.2,-44.2 -11.78,17.7 -58.92,91.3 -58.92,91.3" /><path
         id="path330"
         style="fill:#100f0d;fill-opacity:1;fill-rule:nonzero;stroke:none"
         d="m 8449.06,8459.4 235.7,200.3 -41.84,128.1 h -135.19 c 0,0 -84.52,-118.5 -58.67,-328.4" /><path
         id="path332"
         style="fill:#535456;fill-opacity:1;fill-rule:nonzero;stroke:none"
         d="m 7133.63,12117.9 -52.34,1 c -47.36,1 -84.98,40.2 -84.02,87.5 l 16.37,808.7 c 0.96,47.3 40.13,84.9 87.5,84 l 52.34,-1.1 c 47.36,-0.9 84.99,-40.1 84.02,-87.5 l -16.37,-808.6 c -0.96,-47.3 -40.13,-85 -87.5,-84" /></g></g></svg>