<?xml version="1.0" encoding="UTF-8" standalone="no"?>
<svg
   xmlns:dc="http://purl.org/dc/elements/1.1/"
   xmlns:cc="http://creativecommons.org/ns#"
   xmlns:rdf="http://www.w3.org/1999/02/22-rdf-syntax-ns#"
   xmlns:svg="http://www.w3.org/2000/svg"
   xmlns="http://www.w3.org/2000/svg"
   viewBox="0 0 2666.6667 2666.6667"
   height="2666.6667"
   width="2666.6667"
   xml:space="preserve"
   id="svg2"
   version="1.1"><metadata
     id="metadata8"><rdf:RDF><cc:Work
         rdf:about=""><dc:format>image/svg+xml</dc:format><dc:type
           rdf:resource="http://purl.org/dc/dcmitype/StillImage" /></cc:Work></rdf:RDF></metadata><defs
     id="defs6" /><g
     transform="matrix(1.3333333,0,0,-1.3333333,0,2666.6667)"
     id="g10"><g
       transform="scale(0.1)"
       id="g12"><g
         transform="scale(1.22699)"
         id="g14"><path
           id="path16"
           style="fill:none;fill-opacity:1;fill-rule:nonzero;stroke:none"
           d="M 16300,0 H 0 V 16300 H 16300 V 0" /></g><path
         id="path18"
         style="fill:#3a70c0;fill-opacity:1;fill-rule:nonzero;stroke:none"
         d="m 2938.01,5769.5 c 0,0 -96.1,-17.5 -158.54,-74.6 -62.44,-57 -65.15,-78.7 -116.74,-135.7 -51.58,-57 -184.61,-195.5 -181.9,-233.5 2.71,-38 78.73,-149.3 206.33,-247 127.61,-97.8 160.19,-184.7 214.49,-317.7 54.29,-133 176.47,-173.8 355.65,-200.9 179.19,-27.2 485.98,2.7 518.55,32.6 32.59,29.8 24.44,130.3 -97.73,219.9 -122.17,89.6 -160.19,165.6 -200.91,255.2 -40.72,89.6 -67.87,304.1 -67.87,344.8 0,40.7 -32.58,92.3 -32.58,92.3 0,0 -146.61,19 -181.9,38 -35.29,19 -122.17,65.2 -122.17,65.2 L 2958.66,5532 c 0,0 -83.51,81.5 -92.31,146.7 l 71.66,90.8" /><path
         id="path20"
         style="fill:#3a70c0;fill-opacity:1;fill-rule:nonzero;stroke:none"
         d="m 7850.79,5002.6 -75.82,29.9 c 0,0 -40.73,-43.4 -59.74,-108.6 -19,-65.2 5.43,-263.4 -27.14,-393.7 -32.58,-130.3 -73.3,-171 -19.01,-209 54.3,-38 350.23,24.4 502.27,-57 152.03,-81.5 475.11,-111.3 730.32,-127.6 255.2,-16.3 298.64,152 214.48,260.6 -84.17,108.6 -187.34,127.6 -320.37,228.1 -133.03,100.4 -375.73,469.6 -396.91,504.9 -21.19,35.3 -135.22,38 -135.22,38 0,0 -310.34,-64.4 -339.36,-76 -29.03,-11.6 -73.5,-89.6 -73.5,-89.6" /><path
         id="path22"
         style="fill:#ffffff;fill-opacity:1;fill-rule:nonzero;stroke:none"
         d="m 2931.51,5681.4 -65.16,-2.7 -86.88,-108.6 c 0,0 19.01,-60.2 76.02,-77.6 57.01,-17.5 103.17,39.5 103.17,39.5 l -27.15,149.4" /><path
         id="path24"
         style="fill:#ffffff;fill-opacity:1;fill-rule:nonzero;stroke:none"
         d="m 7774.97,5032.5 v -40.7 l 168.32,-130.3 c 0,0 179.19,24.4 181.9,35.2 2.72,10.9 46.16,108.6 46.16,108.6 l -247.06,86.9 -149.32,-59.7" /><path
         id="path26"
         style="fill:#100f0d;fill-opacity:1;fill-rule:nonzero;stroke:none"
         d="m 6455.5,7834.3 c 0,0 59.73,-97.7 211.77,-141.2 152.04,-43.4 423.53,76.1 423.53,92.3 0,16.3 -521.27,494.2 -521.27,494.2 L 6455.5,7834.3" /><path
         id="path28"
         style="fill:#fbc295;fill-opacity:1;fill-rule:nonzero;stroke:none"
         d="m 4636.55,7878.3 c 0,0 -114.08,-500.1 -157.52,-543.5 -43.44,-43.5 -559.28,-184.7 -705.89,-374.7 -146.61,-190 -428.96,-651.6 -542.99,-809 -114.03,-157.5 -363.8,-472.4 -363.8,-472.4 0,0 16.29,-103.2 92.31,-146.7 76.02,-43.4 423.53,-48.8 418.1,-27.1 -5.43,21.7 152.04,401.8 526.7,640.7 374.66,238.9 564.82,483.3 733.09,559.3 168.27,76 625.62,455.3 798.76,841.2 173.13,386 -798.76,332.2 -798.76,332.2" /><path
         id="path30"
         style="fill:#fbc295;fill-opacity:1;fill-rule:nonzero;stroke:none"
         d="m 6569.53,7986.3 c 0,0 217.2,-195.4 428.96,-282.3 211.77,-86.9 293.21,-217.2 363.8,-342.1 70.59,-124.9 5.43,-575.6 81.45,-819.9 76.02,-244.3 211.77,-662.4 266.06,-879.6 54.31,-217.2 65.17,-629.9 65.17,-629.9 0,0 130.31,-65.2 249.77,-54.3 119.45,10.9 146.61,10.9 146.61,27.1 0,16.3 5.43,86.9 27.15,103.2 21.71,16.3 65.15,59.7 65.15,59.7 0,0 -43.44,488.7 -54.29,1031.7 -10.86,543 -135.75,1145.7 -130.32,1308.6 5.43,162.9 -27.15,261.5 -103.17,372.4 -76.02,110.9 -298.64,534.4 -298.64,534.4 l -749.32,21.7 -238.92,-92.3 -119.46,-358.4" /><path
         id="path32"
         style="fill:#252323;fill-opacity:1;fill-rule:nonzero;stroke:none"
         d="m 5244.64,10163.7 c 0,0 -276.93,-380.1 -347.51,-488.7 -70.59,-108.6 -27.15,-477.8 -54.3,-635.3 -27.15,-157.4 -124.89,-602.7 -168.33,-771 -43.44,-168.3 -86.88,-336.6 -86.88,-336.6 0,0 233.49,-277 472.4,-358.4 238.92,-81.5 776.48,21.7 776.48,21.7 l 266.06,635.3 352.94,-396.4 c 0,0 195.48,211.8 515.84,353 320.36,141.1 515.84,190 515.84,190 l 190.05,38 c 0,0 -103.17,336.7 -336.65,608.2 -233.49,271.5 -298.65,358.3 -298.65,358.3 l -86.88,184.6 -119.45,97.8 -304.08,369.2 -591.86,162.9 -695.02,-32.6" /><path
         id="path34"
         style="fill:#3a70c0;fill-opacity:1;fill-rule:nonzero;stroke:none"
         d="m 4157.3,13384.7 c 0,-653.2 -423.91,-1182.7 -946.83,-1182.7 -522.92,0 -946.84,529.5 -946.84,1182.7 0,653.2 423.92,1182.7 946.84,1182.7 522.92,0 946.83,-529.5 946.83,-1182.7" /><path
         id="path36"
         style="fill:#5096d7;fill-opacity:1;fill-rule:nonzero;stroke:none"
         d="m 3237.43,12320.9 c -470.34,0 -851.62,476.3 -851.62,1063.8 0,587.5 381.28,1063.7 851.62,1063.7 470.34,0 851.62,-476.2 851.62,-1063.7 0,-587.5 -381.28,-1063.8 -851.62,-1063.8 z m -26.96,2246.5 c -522.92,0 -946.84,-529.5 -946.84,-1182.7 0,-653.2 423.92,-1182.7 946.84,-1182.7 522.92,0 946.83,529.5 946.83,1182.7 0,653.2 -423.91,1182.7 -946.83,1182.7" /><path
         id="path38"
         style="fill:#9a9a9a;fill-opacity:1;fill-rule:nonzero;stroke:none"
         d="m 8176.78,12834.4 1364.26,-189.2 c 0,0 52.93,-19 61.08,-70.6 8.14,-51.6 -54.3,-84.2 -54.3,-84.2 l -1512.22,172 141.18,172" /><path
         id="path40"
         style="fill:#3a70c0;fill-opacity:1;fill-rule:nonzero;stroke:none"
         d="m 9219.31,12681.8 c 0,-525.5 -392.9,-951.5 -877.57,-951.5 -484.67,0 -877.57,426 -877.57,951.5 0,525.5 392.9,951.6 877.57,951.6 484.67,0 877.57,-426.1 877.57,-951.6" /><path
         id="path42"
         style="fill:#ccccc9;fill-opacity:1;fill-rule:nonzero;stroke:none"
         d="m 8426.55,12738.7 c 0,-151.3 -98.45,-274 -219.91,-274 -121.45,0 -219.91,122.7 -219.91,274 0,151.4 98.46,274 219.91,274 121.46,0 219.91,-122.6 219.91,-274" /><path
         id="path44"
         style="fill:#9a9a9a;fill-opacity:1;fill-rule:nonzero;stroke:none"
         d="m 4157.3,13332.8 4019.48,-498.4 c 0,0 76.01,-34.5 81.44,-88.8 5.43,-54.2 -70.58,-100.4 -70.58,-100.4 l -4030.34,514.5 v 173.1" /><path
         id="path46"
         style="fill:#fbc295;fill-opacity:1;fill-rule:nonzero;stroke:none"
         d="m 5680.38,13045.6 -158.82,-88.2 c 0,0 -168.32,5.4 -380.09,-138.5 -211.76,-143.8 -304.07,-431.6 -304.07,-431.6 0,0 -240.28,-152.1 -236.2,-135.8 4.07,16.3 -4.08,207.7 24.43,346.2 28.51,138.4 40.73,196.8 40.73,196.8 h -338.01 c 0,0 -12.22,-176.5 -57.02,-266.1 -44.79,-89.5 -166.96,-325.7 -207.69,-447.9 -40.72,-122.2 -52.94,-464.3 -77.37,-594.6 -24.44,-130.3 8.14,-187.3 248.41,-207.7 240.27,-20.3 281,137.7 525.35,235.8 244.34,98.2 399.09,191.8 399.09,191.8 l 32.58,-118.1 c 0,0 77.37,-158.8 158.82,-158.8 81.45,0 268.78,32.6 268.78,32.6 0,0 480.54,720.8 431.68,961.1 -48.87,240.2 -65.16,321.7 -65.16,321.7 l -305.44,301.3" /><path
         id="path48"
         style="fill:#fbc295;fill-opacity:1;fill-rule:nonzero;stroke:none"
         d="m 6930.62,12251.5 c 24.43,32.6 236.2,191.4 244.34,228.1 8.15,36.6 -16.29,124.2 -32.58,152.7 -16.29,28.5 -122.17,93.7 -132.35,101.8 -10.18,8.2 -32.58,60.4 -32.58,60.4 h 181.22 c 0,0 6.11,188 26.47,206.4 20.37,18.3 65.16,38.6 83.49,40.7 18.32,2 6.11,-40.7 0,-65.2 -6.11,-24.4 8.14,-88.1 22.4,-102.1 14.25,-13.9 138.46,-132 138.46,-132 l 18.32,-12.3 c 0,0 30.55,-99.7 8.15,-183.2 -22.4,-83.5 -61.09,-122.2 -71.27,-140.5 -10.18,-18.4 -326.47,-518.6 -326.47,-518.6 l -127.6,363.8" /><path
         id="path50"
         style="fill:#3a70c0;fill-opacity:1;fill-rule:nonzero;stroke:none"
         d="m 5765.91,13090.4 -85.53,-44.8 c 0,0 166.98,-280.9 166.98,-745.2 0,-464.3 -281,-647.5 -386.88,-684.2 -105.89,-36.6 -268.78,-28.5 -268.78,-28.5 0,0 89.59,-293.2 105.88,-431.7 16.29,-138.4 42.08,-794.1 23.08,-845.7 -19,-51.5 -76.02,-146.6 -76.02,-146.6 0,0 720.82,-241.6 969.23,-225.3 248.42,16.3 362.45,61.1 362.45,61.1 0,0 36.65,439.8 109.95,578.3 73.3,138.4 118.1,362.4 146.61,525.3 28.51,162.9 86.88,458.8 114.03,494.1 27.15,35.3 122.17,46.2 141.17,217.2 19.01,171.1 -70.59,532.2 -84.16,594.6 -13.57,62.4 -228.06,425.4 -228.06,425.4 0,0 -162.89,93.1 -162.89,85 0,-8.1 -847.06,171 -847.06,171" /><path
         id="path52"
         style="fill:#fbc295;fill-opacity:1;fill-rule:nonzero;stroke:none"
         d="m 6045.54,13633.4 -133.03,-450.4 -146.6,-92.6 c 0,0 175.11,-183.2 350.23,-476.4 175.11,-293.2 199.54,-370.6 415.38,-403.2 215.84,-32.6 313.58,24.4 325.8,187.3 12.21,162.9 -227.64,464.3 -227.64,464.3 l 32.16,228 c 0,0 -105.88,676.1 -142.53,692.4 -36.66,16.2 -355.97,40.7 -355.97,40.7 l -117.8,-190.1" /><path
         id="path54"
         style="fill:#d2946b;fill-opacity:1;fill-rule:nonzero;stroke:none"
         d="m 6227.5,13703.4 94.97,-140.6 c 0,0 78.74,-214.4 124.89,-285 46.15,-70.6 214.48,-187.4 214.48,-187.4 l 51.58,220 -200.91,342 -143.89,51 H 6227.5" /><path
         id="path56"
         style="fill:#252323;fill-opacity:1;fill-rule:nonzero;stroke:none"
         d="m 6243.74,13799 c 0,0 -24.44,-16.2 -29.87,-24.4 -5.43,-8.1 -100.45,-103.2 -114.03,-111.3 -13.57,-8.1 -43.43,-24.4 -54.29,-29.9 -10.86,-5.4 -62.44,271.5 -43.44,377.4 19,105.9 19,374.7 65.16,439.8 46.15,65.2 152.03,181.9 211.76,219.9 59.73,38 165.61,76.1 247.06,76.1 81.45,0 260.64,0 339.37,-38.1 78.73,-38 233.49,-70.5 304.07,-138.4 70.59,-67.9 162.9,-238.9 5.43,-347.5 -157.46,-108.6 -423.53,-382.8 -510.4,-445.3 -86.88,-62.4 -5.43,-80 -168.33,-73.9 -162.9,6 -252.49,95.6 -252.49,95.6" /><path
         id="path58"
         style="fill:#fbc295;fill-opacity:1;fill-rule:nonzero;stroke:none"
         d="m 6417.5,13884.6 c 0,0 -85.53,154.7 -175.12,138.4 -89.59,-16.3 -93.66,-172.4 -58.37,-259.2 35.29,-86.9 157.46,-127.7 171.04,-141.2 13.57,-13.6 48.87,-119.5 89.59,-206.4 40.73,-86.8 209.06,-179.1 266.07,-211.7 57.01,-32.6 244.34,-24.5 271.49,0 27.15,24.4 32.58,135.7 43.44,168.3 10.86,32.6 29.86,76 38.01,108.6 8.15,32.6 16.29,67.9 16.29,67.9 0,0 97.74,-13.6 116.74,21.7 19.01,35.3 -40.72,195.5 -46.15,252.5 -5.43,57 29.86,92.3 38.01,141.2 8.14,48.8 -13.58,257.9 -13.58,257.9 0,0 -86.87,2.7 -122.17,0 -35.29,-2.7 -46.15,-19 -103.17,-29.9 -57.01,-10.8 -51.58,-5.4 -111.31,-35.3 -59.73,-29.8 -171.04,-92.3 -187.33,-116.7 -16.29,-24.5 -32.58,-67.9 -62.44,-97.8 -29.87,-29.8 -38.01,-16.2 -51.59,-48.8 -13.57,-32.6 -35.29,-81.5 -54.3,-95.1 -19,-13.5 -51.58,13.6 -51.58,13.6 l -13.57,72" /><path
         id="path60"
         style="fill:#7d8797;fill-opacity:1;fill-rule:nonzero;stroke:none"
         d="m 5986.21,12814 c -0.02,0 -0.03,0.1 -0.05,0.1 l -43.46,60.2 v 0 c 14.05,-19 28.59,-39.1 43.51,-60.3" /><path
         id="path62"
         style="fill:#e4a87c;fill-opacity:1;fill-rule:nonzero;stroke:none"
         d="m 6401.21,12794.5 c 0,0 0,0 -133.04,5.4 -132.73,5.5 -275.1,5.2 -281.96,14.1 -14.92,21.2 -29.46,41.3 -43.51,60.3 0.02,0 0.36,0 1.01,0 15.26,0 199.75,-0.2 266.09,-11.9 69.23,-12.2 191.41,-67.9 191.41,-67.9" /><path
         id="path64"
         style="fill:#edad82;fill-opacity:1;fill-rule:nonzero;stroke:none"
         d="m 7031.29,12976.4 c 8.14,14.3 76.48,93.7 98.88,101.8 22.39,8.2 42.75,2.1 50.9,0 8.14,-2 34.62,14.4 69.23,4.1 34.62,-10.2 54.98,-39 54.98,-39 0,0 42.76,-20 67.2,-42.4 24.43,-22.5 30.54,-105.9 24.43,-136.5 -6.11,-30.5 -42.76,-18.3 -42.76,-18.3 l -59.05,-11.7 -30.54,54.5 -49.36,67.3 -183.91,20.2" /><path
         id="path66"
         style="fill:#e4a87c;fill-opacity:1;fill-rule:nonzero;stroke:none"
         d="m 5191.7,11587.7 v 0 0 l -32.58,118.1 232.13,338 -109.96,248.5 c 0,0 199.55,-240.3 195.48,-252.5 -4.07,-12.3 -285.07,-452.1 -285.07,-452.1" /><path
         id="path68"
         style="fill:#ecd0be;fill-opacity:1;fill-rule:nonzero;stroke:none"
         d="m 4602.41,12250.3 c -0.67,0 -1.08,0.2 -1.22,0.6 0.01,0.4 0.01,0.6 0.01,0.6 l 174.2,97.1 c 0,0 -0.01,0 -0.01,-0.1 -65.48,-40.5 -160.94,-98.2 -172.98,-98.2" /><path
         id="path70"
         style="fill:#e9ad81;fill-opacity:1;fill-rule:nonzero;stroke:none"
         d="m 4507.53,11620.3 c 0,0 28.51,81.5 61.09,267.4 31.41,179.3 32.53,351.1 32.57,363.2 0.14,-0.4 0.55,-0.6 1.22,-0.6 12.04,0 107.5,57.7 172.98,98.2 -0.89,-1.4 -60.27,-99.9 -73.74,-129.6 -13.57,-29.8 -27.15,-146.6 -70.58,-309.5 -43.45,-162.8 -123.54,-289.1 -123.54,-289.1" /><path
         id="path72"
         style="fill:#edad82;fill-opacity:1;fill-rule:nonzero;stroke:none"
         d="m 4397.17,13303 c 0,0 87.97,1.2 100.18,-23.2 12.22,-24.4 22.4,-97.7 38.69,-114 16.29,-16.3 50.9,-18.3 50.9,-18.3 0,0 4.37,-39.2 35.78,-48.1 31.42,-9 61.96,25.7 61.96,25.7 0,0 20.36,-10.2 50.91,0 30.54,10.1 48.87,57 48.87,57 0,0 23.06,21.8 38.84,36.6 15.79,14.9 -12.37,215.9 -38.84,228.1 -26.47,12.2 -67.2,-16.3 -67.2,-16.3 0,0 -32.58,10.2 -59.05,6.1 -26.47,-4.1 -50.91,-22.4 -50.91,-22.4 0,0 -46.83,-5.6 -69.22,-9.9 -22.4,-4.4 -24.44,-14.5 -32.58,-16.6 -8.15,-2 -114.44,-31.8 -108.33,-84.7" /><path
         id="path74"
         style="fill:#ccccc9;fill-opacity:1;fill-rule:nonzero;stroke:none"
         d="m 3309.08,13354.5 c -12.55,-101.6 -91.48,-175.4 -176.3,-164.9 -84.82,10.5 -143.41,101.3 -130.87,202.8 12.54,101.6 91.47,175.5 176.29,165 84.83,-10.5 143.42,-101.3 130.88,-202.9" /><path
         id="path76"
         style="fill:#285793;fill-opacity:1;fill-rule:nonzero;stroke:none"
         d="m 3210.47,14567.4 c -23.1,0 -46,-1.1 -68.69,-3.1 434.21,-107.6 761.55,-586.1 761.55,-1160 0,-624.3 -387.29,-1135.6 -878.13,-1179.6 59.92,-14.8 121.86,-22.7 185.27,-22.7 522.92,0 946.83,529.5 946.83,1182.7 0,653.2 -423.91,1182.7 -946.83,1182.7" /><path
         id="path78"
         style="fill:#9a9a9a;fill-opacity:1;fill-rule:nonzero;stroke:none"
         d="m 1628.34,13680.9 1523.08,-231.1 c 0,0 63.8,1.1 59.05,-65.1 -4.75,-66.2 -67.19,-90.6 -67.19,-90.6 l -1536.66,222.6 21.72,164.2" /><path
         id="path80"
         style="fill:#ccccc9;fill-opacity:1;fill-rule:nonzero;stroke:none"
         d="m 1673.74,13588.1 c -7.56,-46.2 -46.6,-78.2 -87.19,-71.5 -40.59,6.6 -67.37,49.4 -59.8,95.6 7.56,46.1 46.59,78.2 87.19,71.5 40.59,-6.6 67.36,-49.4 59.8,-95.6" /><path
         id="path82"
         style="fill:#285793;fill-opacity:1;fill-rule:nonzero;stroke:none"
         d="m 8341.74,13633.4 c -15.41,0 -30.72,-0.5 -45.94,-1.3 417.22,-26 748.9,-441.5 748.9,-950.3 0,-508.8 -331.68,-924.3 -748.9,-950.2 15.22,-0.9 30.53,-1.3 45.94,-1.3 484.67,0 877.58,426 877.58,951.5 0,525.5 -392.91,951.6 -877.58,951.6" /><path
         id="path84"
         style="fill:#fbc295;fill-opacity:1;fill-rule:nonzero;stroke:none"
         d="m 7010.03,12734.1 c 10.18,-8.1 116.06,-73.3 132.35,-101.8 16.29,-28.5 40.73,-116.1 32.58,-152.7 -1.74,-7.9 -12.88,-21.4 -29.47,-38 h 263.55 c 15.26,23.1 33.85,56.5 46.92,105.2 22.4,83.5 -8.15,183.2 -8.15,183.2 l -18.32,12.3 c 0,0 -124.21,118.1 -138.46,132 -14.26,14 -28.51,77.7 -22.4,102.1 6.11,24.5 18.32,67.2 0,65.2 -18.33,-2.1 -63.12,-22.4 -83.49,-40.7 -20.36,-18.4 -26.47,-206.4 -26.47,-206.4 h -181.22 c 0,0 22.4,-52.2 32.58,-60.4" /><path
         id="path86"
         style="fill:#fbc295;fill-opacity:1;fill-rule:nonzero;stroke:none"
         d="m 4328.34,12794.5 c 0,0 26.48,41.4 20.37,72 -6.11,30.5 -69.23,278.9 -69.23,278.9 l 405.2,-20.3 c 0,0 63.13,22.4 99.78,57 36.65,34.6 71.26,67.2 71.26,67.2 0,0 -52.94,42.7 -65.15,67.2 -12.22,24.4 -22.4,81.4 -2.04,87.5 20.36,6.1 154.75,-99.8 169,-122.1 14.26,-22.5 10.18,-211.8 -10.18,-236.3 -20.36,-24.4 -132.35,-105.8 -179.18,-150.6 -46.84,-44.8 -101.81,-100.5 -101.81,-100.5 h -338.02" /><path
         id="path88"
         style="fill:#100f0d;fill-opacity:1;fill-rule:nonzero;stroke:none"
         d="m 6645.55,9039.7 c 0,0 -347.51,-472.3 -396.38,-532.1 -48.87,-59.7 -146.61,-276.9 -146.61,-276.9 l 352.94,-396.4 c 0,0 72.05,68.9 86.88,81.5 14.82,12.6 -217.19,347.5 -222.62,396.3 -5.43,48.9 325.79,727.6 325.79,727.6" /><g
         transform="scale(1.00566)"
         id="g90"><path
           id="path92"
           style="fill:#100f0d;fill-opacity:1;fill-rule:nonzero;stroke:none"
           d="m 15754.7,6688.77 c 0,0 145.8,-48.53 313.1,32.41 167.4,80.95 232.2,334.71 232.2,334.71 l -642.6,-26.25 -32.3,-141.1 129.6,-199.77" /></g><path
         id="path94"
         style="fill:#3a70c0;fill-opacity:1;fill-rule:nonzero;stroke:none"
         d="m 12029.3,5943.4 c 0,0 -91.2,50.2 -150.1,55.6 -59,5.4 -243.6,14.9 -379.3,-27.8 -135.8,-42.8 -146.6,-239.5 -152.1,-325.7 -5.4,-86.3 59.8,-216.6 0,-406.7 -59.7,-190 -27.1,-380.1 114.1,-537.5 141.1,-157.5 408.1,-114.1 478.2,-59.8 70.2,54.3 -78,162.9 -60.9,255.2 17.1,92.4 207.1,304.1 266.8,347.6 59.8,43.4 -10.8,114 0,162.9 10.9,48.8 -116.7,536.2 -116.7,536.2" /><g
         transform="scale(1.07828)"
         id="g96"><path
           id="path98"
           style="fill:#3a70c0;fill-opacity:1;fill-rule:nonzero;stroke:none"
           d="m 15156.9,4692.31 c 0,0 -141,-19.02 -171.2,-64.83 -30.3,-45.91 -30.3,-234.73 -60.5,-349.36 -30.1,-114.53 -45.2,-185.01 -45.2,-220.25 0,-35.25 488.4,-50.36 533.7,-75.59 45.3,-25.13 125.9,-115.83 402.8,-130.85 277.1,-15.12 423,-5.1 453.3,35.23 30.2,40.26 10.1,176.21 -40.3,226.57 -50.3,50.36 -337.4,206.44 -392.7,276.93 -55.5,70.57 -292.2,443.2 -292.2,443.2 l -130.9,-95.71 -256.8,-45.34" /></g><path
         id="path100"
         style="fill:#ffffff;fill-opacity:1;fill-rule:nonzero;stroke:none"
         d="m 11999.4,5814.4 -55.6,100.5 c 0,0 -161.6,-57.1 -183.3,-127.7 -21.7,-70.5 183.3,-198.1 183.3,-198.1 l 55.6,225.3" /><g
         transform="scale(1.01964)"
         id="g102"><path
           id="path104"
           style="fill:#ffffff;fill-opacity:1;fill-rule:nonzero;stroke:none"
           d="m 15927.3,4898.28 c 0,0 90.5,-111.81 133.1,-117.2 42.6,-5.29 144,37.27 144,37.27 l 95.6,111.9 -372.7,-31.97" /></g><path
         id="path106"
         style="fill:#fbc295;fill-opacity:1;fill-rule:nonzero;stroke:none"
         d="m 13805.6,5752 c -8.9,4 -46.9,-346.2 -46.9,-346.2 0,0 -405.9,240.3 -699.1,293.2 -293.2,53 -431.7,40.7 -562,77.4 -130.3,36.6 -443.9,167 -468.3,167 -24.5,0 -77.4,-12.3 -85.5,-28.5 -8.2,-16.3 0,-325.8 0,-325.8 0,0 199.5,-228.1 232.1,-236.2 32.6,-8.2 118.1,4 382.8,-85.6 264.7,-89.6 545.7,-358.3 916.3,-484.6 370.6,-126.2 525.3,-183.2 635.3,-166.9 109.9,16.2 289.1,171 386.9,333.9 97.7,162.9 293.2,908.1 293.2,908.1 l -608.2,85.6 -376.6,-191.4" /><g
         transform="scale(1.07194)"
         id="g108"><path
           id="path110"
           style="fill:#fbc295;fill-opacity:1;fill-rule:nonzero;stroke:none"
           d="m 14587.9,6396.69 c 20.3,0 385,-10.07 552.2,35.45 167.1,45.62 405.2,86.2 405.2,86.2 0,0 -172.3,-364.76 -192.5,-633.24 -20.3,-268.49 40.5,-385 0,-562.25 -40.5,-177.25 -202.6,-663.56 -202.6,-663.56 0,0 187.7,-10.17 263.6,0 75.8,10.07 90.9,30.41 90.9,30.41 l 131.7,172.21 c 0,0 425.5,987.74 496.4,1271.43 71,283.69 167.2,623.07 86.2,835.77 -81,212.79 -866.2,440.7 -866.2,440.7 0,0 -30.4,65.86 -324.2,-151.97 -293.8,-217.83 -465.3,-445.74 -465.3,-445.74 l 24.6,-415.41" /></g><g
         transform="scale(1.01432)"
         id="g112"><path
           id="path114"
           style="fill:#252323;fill-opacity:1;fill-rule:nonzero;stroke:none"
           d="m 13885.9,7860.25 c 0,0 -165.1,-265.01 -224.5,-489.89 -59.5,-224.78 5.9,-508.51 0,-818.97 -5.9,-310.55 -96.9,-845.89 -96.9,-845.89 0,0 133.8,-128.46 401.4,-139.1 267.7,-10.75 621,123.13 696,181.99 74.9,58.86 144.5,155.27 160.6,198.06 16,42.79 37.4,454.99 112.4,562.05 75,107.07 58.9,205.56 139.2,204.48 80.3,-0.99 546,-81.34 546,-81.34 0,0 80.3,428.27 235.6,685.19 155.2,257.02 422.9,519.26 433.6,543.42 10.7,24.05 -487.2,82.91 -647.8,98.98 -160.6,16.07 -198,32.14 -198,32.14 0,0 37.4,21.39 -58.9,48.21 -96.4,26.72 -176.7,58.86 -406.9,53.53 -230.2,-5.42 -1091.8,-232.86 -1091.8,-232.86" /></g><path
         id="path116"
         style="fill:#3a70c0;fill-opacity:1;fill-rule:nonzero;stroke:none"
         d="m 12991.9,11193.7 c 0,-653.1 -424,-1182.6 -946.9,-1182.6 -522.9,0 -946.8,529.5 -946.8,1182.6 0,653.2 423.9,1182.7 946.8,1182.7 522.9,0 946.9,-529.5 946.9,-1182.7" /><path
         id="path118"
         style="fill:#5096d7;fill-opacity:1;fill-rule:nonzero;stroke:none"
         d="m 12072,10130 c -470.4,0 -851.6,476.3 -851.6,1063.7 0,587.5 381.2,1063.8 851.6,1063.8 470.3,0 851.6,-476.3 851.6,-1063.8 0,-587.4 -381.3,-1063.7 -851.6,-1063.7 z m -27,2246.4 c -522.9,0 -946.8,-529.5 -946.8,-1182.7 0,-653.1 423.9,-1182.6 946.8,-1182.6 522.9,0 946.9,529.5 946.9,1182.6 0,653.2 -424,1182.7 -946.9,1182.7" /><g
         transform="scale(1.13158)"
         id="g120"><path
           id="path122"
           style="fill:#9a9a9a;fill-opacity:1;fill-rule:nonzero;stroke:none"
           d="m 15033.2,9405.83 1205.6,-167.23 c 0,0 46.8,-16.79 54,-62.38 7.2,-45.58 -47.9,-74.37 -47.9,-74.37 l -1336.5,151.98 124.8,152" /></g><g
         transform="scale(1.1076)"
         id="g124"><path
           id="path126"
           style="fill:#3a70c0;fill-opacity:1;fill-rule:nonzero;stroke:none"
           d="m 16300,9471.68 c 0,-474.49 -354.7,-859.1 -792.3,-859.1 -437.7,0 -792.4,384.61 -792.4,859.1 0,474.48 354.7,859.12 792.4,859.12 437.6,0 792.3,-384.64 792.3,-859.12" /></g><g
         transform="scale(1.05896)"
         id="g128"><path
           id="path130"
           style="fill:#ccccc9;fill-opacity:1;fill-rule:nonzero;stroke:none"
           d="m 16300,9960.46 c 0,-142.91 -93,-258.76 -207.7,-258.76 -114.7,0 -207.6,115.85 -207.6,258.76 0,142.94 92.9,258.74 207.6,258.74 114.7,0 207.7,-115.8 207.7,-258.74" /></g><g
         transform="scale(1.04897)"
         id="g132"><path
           id="path134"
           style="fill:#9a9a9a;fill-opacity:1;fill-rule:nonzero;stroke:none"
           d="m 12385.4,10621.7 3831.8,-475.1 c 0,0 72.4,-32.9 77.7,-84.6 5.1,-51.8 -67.4,-95.8 -67.4,-95.8 l -3842.1,490.5 v 165" /></g><path
         id="path136"
         style="fill:#fbc295;fill-opacity:1;fill-rule:nonzero;stroke:none"
         d="m 14514.9,10854.7 -158.8,-88.2 c 0,0 -168.3,5.4 -380.1,-138.5 -211.7,-143.9 -304.1,-431.7 -304.1,-431.7 0,0 -240.2,-152 -236.1,-135.7 4,16.3 -4.1,207.7 24.4,346.1 28.5,138.5 40.7,196.9 40.7,196.9 h -338 c 0,0 -12.2,-176.5 -57,-266.1 -44.8,-89.6 -167,-325.8 -207.7,-448 -40.7,-122.1 -53,-464.2 -77.4,-594.5 -24.4,-130.4 8.2,-187.4 248.4,-207.7 240.3,-20.4 281,137.6 525.4,235.8 244.3,98.1 399.1,191.8 399.1,191.8 l 32.5,-118.1 c 0,0 77.4,-158.9 158.9,-158.9 81.4,0 268.7,32.6 268.7,32.6 0,0 480.6,720.8 431.7,961.1 -48.8,240.3 -65.1,321.7 -65.1,321.7 l -305.5,301.4" /><g
         transform="scale(1.00079)"
         id="g138"><path
           id="path140"
           style="fill:#fbc295;fill-opacity:1;fill-rule:nonzero;stroke:none"
           d="m 15752.7,10052.6 c 24.4,32.6 236,191.3 244.1,227.9 8.2,36.6 -16.3,124.1 -32.5,152.6 -16.3,28.5 -122,93.6 -132.2,101.7 -10.2,8.2 -32.6,60.4 -32.6,60.4 h 181 c 0,0 6.1,187.8 26.5,206.2 20.4,18.3 65.2,38.6 83.5,40.6 18.2,2.1 6.1,-40.6 0,-65.1 -6.1,-24.4 8.1,-88 22.3,-102 14.2,-13.9 138.3,-131.9 138.3,-131.9 l 18.4,-12.3 c 0,0 30.5,-99.6 8.1,-183.1 -22.4,-83.4 -61,-122 -71.2,-140.3 -10.1,-18.4 -326.2,-518.17 -326.2,-518.17 l -127.5,363.47" /></g><path
         id="path142"
         style="fill:#3a70c0;fill-opacity:1;fill-rule:nonzero;stroke:none"
         d="m 14600.5,10899.5 -85.6,-44.8 c 0,0 167,-281 167,-745.3 0,-464.2 -281,-647.5 -386.9,-684.1 -105.9,-36.7 -268.8,-28.5 -268.8,-28.5 0,0 89.6,-293.2 105.9,-431.7 16.3,-138.5 42.1,-794.1 23.1,-845.7 -19,-51.6 -76,-146.6 -76,-146.6 0,0 517.9,-132.5 766.3,-116.2 248.4,16.2 607,245.6 607,245.6 0,0 -5,146.2 68.3,284.6 73.3,138.5 118.1,362.5 146.6,525.4 28.5,162.8 86.9,458.8 114.1,494.1 27.1,35.3 122.1,46.1 141.1,217.2 19,171 -70.6,532.1 -84.1,594.5 -13.6,62.5 -228.1,425.5 -228.1,425.5 0,0 -162.9,93.1 -162.9,84.9 0,-8.1 -847,171.1 -847,171.1" /><path
         id="path144"
         style="fill:#fbc295;fill-opacity:1;fill-rule:nonzero;stroke:none"
         d="m 14880.1,11442.5 -133,-450.5 -146.6,-92.5 c 0,0 175.1,-183.3 350.2,-476.5 175.1,-293.2 199.5,-370.6 415.4,-403.1 215.8,-32.6 313.5,24.4 325.8,187.3 12.2,162.9 -227.7,464.2 -227.7,464.2 l 32.2,228.1 c 0,0 -105.9,676 -142.5,692.3 -36.7,16.3 -356,40.7 -356,40.7 l -117.8,-190" /><path
         id="path146"
         style="fill:#d2946b;fill-opacity:1;fill-rule:nonzero;stroke:none"
         d="m 15062.1,11512.4 94.9,-140.5 c 0,0 78.8,-214.5 124.9,-285.1 46.2,-70.6 214.5,-187.3 214.5,-187.3 l 51.6,219.9 -200.9,342.1 -143.9,50.9 h -141.1" /><path
         id="path148"
         style="fill:#252323;fill-opacity:1;fill-rule:nonzero;stroke:none"
         d="m 15078.3,11608.1 c 0,0 -24.4,-16.3 -29.9,-24.4 -5.4,-8.2 -100.4,-103.2 -114,-111.4 -13.6,-8.1 -43.4,-24.4 -54.3,-29.8 -10.9,-5.4 -62.4,271.5 -43.4,377.4 19,105.8 19,374.6 65.1,439.8 46.2,65.1 152.1,181.9 211.8,219.9 59.7,38 165.6,76 247,76 81.5,0 260.7,0 339.4,-38 78.7,-38 233.5,-70.6 304.1,-138.5 70.6,-67.8 162.9,-238.9 5.4,-347.5 -157.5,-108.6 -423.5,-382.8 -510.4,-445.2 -86.9,-62.5 -5.4,-80 -168.3,-74 -162.9,6.1 -252.5,95.7 -252.5,95.7" /><path
         id="path150"
         style="fill:#fbc295;fill-opacity:1;fill-rule:nonzero;stroke:none"
         d="m 15252,11693.6 c 0,0 -85.5,154.8 -175.1,138.5 -89.6,-16.3 -93.6,-172.4 -58.3,-259.3 35.3,-86.9 157.4,-127.6 171,-141.2 13.6,-13.5 48.9,-119.4 89.6,-206.3 40.7,-86.9 209,-179.2 266.1,-211.8 57,-32.6 244.3,-24.4 271.4,0 27.2,24.4 32.6,135.8 43.5,168.4 10.9,32.5 29.9,76 38,108.5 8.1,32.6 16.3,67.9 16.3,67.9 0,0 97.7,-13.6 116.7,21.7 19,35.3 -40.7,195.5 -46.1,252.5 -5.5,57 29.8,92.3 38,141.2 8.1,48.9 -13.6,257.9 -13.6,257.9 0,0 -86.9,2.7 -122.2,0 -35.3,-2.7 -46.1,-19 -103.1,-29.8 -57,-10.9 -51.6,-5.5 -111.3,-35.3 -59.8,-29.9 -171.1,-92.3 -187.4,-116.8 -16.3,-24.4 -32.6,-67.8 -62.4,-97.7 -29.9,-29.9 -38,-16.3 -51.6,-48.9 -13.6,-32.6 -35.3,-81.4 -54.3,-95 -19,-13.6 -51.6,13.6 -51.6,13.6 l -13.6,71.9" /><path
         id="path152"
         style="fill:#7d8797;fill-opacity:1;fill-rule:nonzero;stroke:none"
         d="m 14820.7,10623.2 -43.4,60.1 c 14,-18.9 28.5,-39 43.4,-60.1" /><path
         id="path154"
         style="fill:#e4a87c;fill-opacity:1;fill-rule:nonzero;stroke:none"
         d="m 15235.7,10603.6 c 0,0 0,0 -133,5.4 -133,5.4 -275.7,5.2 -282,14.1 v 0.1 c -14.9,21.1 -29.4,41.2 -43.4,60.1 l -0.1,0.1 c 0,0 0.4,0 1.1,0 15.2,0 199.7,-0.2 266,-12 69.3,-12.2 191.4,-67.8 191.4,-67.8" /><path
         id="path156"
         style="fill:#edad82;fill-opacity:1;fill-rule:nonzero;stroke:none"
         d="m 15865.8,10785.5 c 8.2,14.3 76.5,93.6 98.9,101.8 22.4,8.1 42.8,2 50.9,0 8.2,-2.1 34.6,14.3 69.3,4.1 34.6,-10.2 54.9,-39.1 54.9,-39.1 0,0 42.8,-20 67.2,-42.4 24.5,-22.4 30.6,-105.9 24.5,-136.4 -6.1,-30.6 -42.8,-18.3 -42.8,-18.3 l -59.1,-11.7 -30.5,54.4 -49.4,67.4 -183.9,20.2" /><path
         id="path158"
         style="fill:#e4a87c;fill-opacity:1;fill-rule:nonzero;stroke:none"
         d="m 14026.2,9396.8 v 0 0 l -32.5,118.1 232.1,338 -110,248.4 c 0,0 199.6,-240.3 195.5,-252.5 -4.1,-12.2 -285.1,-452 -285.1,-452" /><path
         id="path160"
         style="fill:#ecd0be;fill-opacity:1;fill-rule:nonzero;stroke:none"
         d="m 13437,10059.4 c -0.7,0 -1.1,0.1 -1.2,0.5 0,0.5 0,0.7 0,0.7 l 174.1,97 c -65.5,-40.5 -160.9,-98.2 -172.9,-98.2" /><path
         id="path162"
         style="fill:#e9ad81;fill-opacity:1;fill-rule:nonzero;stroke:none"
         d="m 13342.1,9429.4 c 0,0 28.5,81.4 61.1,267.4 31.4,179.3 32.5,351 32.6,363.1 0.1,-0.4 0.5,-0.5 1.2,-0.5 12,0 107.4,57.7 172.9,98.2 v 0 c 0,0 -60.1,-99.7 -73.7,-129.6 -13.6,-29.9 -27.1,-146.6 -70.6,-309.5 -43.4,-162.9 -123.5,-289.1 -123.5,-289.1" /><path
         id="path164"
         style="fill:#edad82;fill-opacity:1;fill-rule:nonzero;stroke:none"
         d="m 13231.7,11112.1 c 0,0 88,1.2 100.2,-23.2 12.2,-24.5 22.4,-97.8 38.7,-114.1 16.3,-16.3 50.9,-18.3 50.9,-18.3 0,0 4.4,-39.1 35.8,-48.1 31.4,-8.9 61.9,25.7 61.9,25.7 0,0 20.4,-10.2 50.9,0 30.6,10.2 48.9,57 48.9,57 0,0 23.1,21.8 38.9,36.7 15.7,14.9 -12.4,215.8 -38.9,228 -26.5,12.3 -67.2,-16.3 -67.2,-16.3 0,0 -32.6,10.2 -59,6.2 -26.5,-4.1 -50.9,-22.4 -50.9,-22.4 0,0 -46.9,-5.6 -69.3,-10 -22.4,-4.3 -24.4,-14.5 -32.6,-16.5 -8.1,-2.1 -114.4,-31.8 -108.3,-84.7" /><path
         id="path166"
         style="fill:#ccccc9;fill-opacity:1;fill-rule:nonzero;stroke:none"
         d="m 12143.6,11163.6 c -12.5,-101.6 -91.5,-175.4 -176.3,-165 -84.8,10.5 -143.4,101.3 -130.8,202.9 12.5,101.6 91.4,175.4 176.3,164.9 84.8,-10.5 143.4,-101.3 130.8,-202.8" /><path
         id="path168"
         style="fill:#285793;fill-opacity:1;fill-rule:nonzero;stroke:none"
         d="m 12045,12376.4 c -23.1,0 -46,-1.1 -68.7,-3.1 434.2,-107.6 761.6,-586 761.6,-1160 0,-624.3 -387.3,-1135.6 -878.2,-1179.5 60,-14.9 121.9,-22.7 185.3,-22.7 522.9,0 946.9,529.5 946.9,1182.6 0,653.2 -424,1182.7 -946.9,1182.7" /><path
         id="path170"
         style="fill:#9a9a9a;fill-opacity:1;fill-rule:nonzero;stroke:none"
         d="m 10462.9,11490 1523.1,-231.1 c 0,0 63.8,1 59,-65.2 -4.7,-66.1 -67.2,-90.6 -67.2,-90.6 l -1536.6,222.6 21.7,164.3" /><path
         id="path172"
         style="fill:#ccccc9;fill-opacity:1;fill-rule:nonzero;stroke:none"
         d="m 10508.3,11397.2 c -7.6,-46.2 -46.6,-78.2 -87.2,-71.6 -40.6,6.7 -67.4,49.5 -59.8,95.6 7.6,46.2 46.6,78.2 87.2,71.6 40.6,-6.7 67.3,-49.5 59.8,-95.6" /><g
         transform="scale(1.1076)"
         id="g174"><path
           id="path176"
           style="fill:#285793;fill-opacity:1;fill-rule:nonzero;stroke:none"
           d="m 15507.7,10330.8 c -13.9,0 -27.8,-0.4 -41.5,-1.2 376.7,-23.4 676.1,-398.53 676.1,-857.92 0,-459.41 -299.4,-834.55 -676.1,-857.93 13.7,-0.72 27.6,-1.17 41.5,-1.17 437.6,0 792.3,384.61 792.3,859.1 0,474.48 -354.7,859.12 -792.3,859.12" /></g><g
         transform="scale(1.00079)"
         id="g178"><path
           id="path180"
           style="fill:#fbc295;fill-opacity:1;fill-rule:nonzero;stroke:none"
           d="m 15832.1,10534.8 c 10.2,-8.1 115.9,-73.2 132.2,-101.7 16.2,-28.5 40.7,-116 32.5,-152.6 -1.7,-7.9 -12.9,-21.3 -29.4,-37.9 h 263.4 c 15.1,23 33.7,56.4 46.8,105 22.4,83.5 -8.1,183.1 -8.1,183.1 l -18.4,12.3 c 0,0 -124.1,118 -138.3,131.9 -14.2,14 -28.4,77.6 -22.3,102 6.1,24.5 18.2,67.2 0,65.1 -18.3,-2 -63.1,-22.3 -83.5,-40.6 -20.4,-18.4 -26.5,-206.2 -26.5,-206.2 h -181 c 0,0 22.4,-52.2 32.6,-60.4" /></g><path
         id="path182"
         style="fill:#fbc295;fill-opacity:1;fill-rule:nonzero;stroke:none"
         d="m 13162.9,10603.6 c 0,0 26.5,41.4 20.4,71.9 -6.2,30.6 -69.3,279 -69.3,279 l 405.2,-20.4 c 0,0 63.2,22.4 99.8,57 36.7,34.6 71.3,67.2 71.3,67.2 0,0 -53,42.8 -65.2,67.2 -12.2,24.4 -22.4,81.5 -2,87.6 20.3,6.1 154.7,-99.8 169,-122.2 14.2,-22.4 10.2,-211.8 -10.2,-236.2 -20.4,-24.4 -132.3,-105.9 -179.2,-150.7 -46.8,-44.8 -101.8,-100.4 -101.8,-100.4 h -338" /><path
         id="path184"
         style="fill:#100f0d;fill-opacity:1;fill-rule:nonzero;stroke:none"
         d="m 15289.9,6809.1 c 0,0 135.8,194.4 217.2,237.9 81.5,43.4 450.9,331.2 423.6,298.6 -27.2,-32.6 -282.4,-309.5 -363.9,-380.1 -81.4,-70.6 -120.4,-174.8 -120.4,-174.8 l -156.5,18.4" /></g></g></svg>