<?xml version="1.0" encoding="UTF-8" standalone="no"?>
<svg
   xmlns:dc="http://purl.org/dc/elements/1.1/"
   xmlns:cc="http://creativecommons.org/ns#"
   xmlns:rdf="http://www.w3.org/1999/02/22-rdf-syntax-ns#"
   xmlns:svg="http://www.w3.org/2000/svg"
   xmlns="http://www.w3.org/2000/svg"
   viewBox="0 0 2666.6667 2666.6667"
   height="2666.6667"
   width="2666.6667"
   xml:space="preserve"
   id="svg2"
   version="1.1"><metadata
     id="metadata8"><rdf:RDF><cc:Work
         rdf:about=""><dc:format>image/svg+xml</dc:format><dc:type
           rdf:resource="http://purl.org/dc/dcmitype/StillImage" /></cc:Work></rdf:RDF></metadata><defs
     id="defs6" /><g
     transform="matrix(1.3333333,0,0,-1.3333333,0,2666.6667)"
     id="g10"><g
       transform="scale(0.1)"
       id="g12"><g
         transform="scale(1.22699)"
         id="g14"><path
           id="path16"
           style="fill:none;fill-opacity:1;fill-rule:nonzero;stroke:none"
           d="M 16300,0 H 0 V 16300 H 16300 V 0" /></g><path
         id="path18"
         style="fill:#361c19;fill-opacity:1;fill-rule:nonzero;stroke:none"
         d="m 3828.2,5199.6 c 0,0 -259.76,-254.1 -197.65,-417.9 62.12,-163.8 312.54,-163.8 526.15,-90.4 213.62,73.5 344.22,-129.8 645.98,-79 301.75,50.8 236.46,277.8 526.05,257.5 289.59,-20.3 221.82,375 182.29,397.6 -39.53,22.5 -903.52,273.1 -903.52,273.1 l -491.3,-52.9 -288,-288" /><path
         id="path20"
         style="fill:#ebebea;fill-opacity:1;fill-rule:nonzero;stroke:none"
         d="m 14343.5,6476 131.7,-432.2 c 0,0 202.9,-147 387.3,-39.8 184.3,107.2 -259.5,622.6 -259.5,622.6 L 14343.5,6476" /><g
         transform="scale(1.02926)"
         id="g22"><path
           id="path24"
           style="fill:#100f0d;fill-opacity:1;fill-rule:nonzero;stroke:none"
           d="m 16203.3,5285.46 c -96.7,215.69 -877.6,185.96 -877.6,185.96 0,0 -584.3,-136.41 -696.2,46.54 0,0 41.7,68.69 41.7,146.9 0,78.21 -245.5,646.97 -231.2,669.32 14.3,22.25 -505.1,104.05 -505.1,104.05 l 230.2,-364.43 c 0,0 -193.1,-106.1 -215.3,-201.8 -22.4,-95.7 -96.8,-497.35 -156.3,-586.54 -59.4,-89.29 -119,-319.84 290.1,-379.3 409.1,-59.56 2082.5,81.81 2082.5,81.81 0,0 133.9,81.8 37.2,297.49" /></g><g
         transform="scale(1.07152)"
         id="g26"><path
           id="path28"
           style="fill:#252323;fill-opacity:1;fill-rule:nonzero;stroke:none"
           d="m 14092.5,5366.3 c 0,0 -150.1,-229.96 -182.2,-406.06 -32.1,-176.2 -160.7,-561.91 -117.9,-669.15 42.9,-107.13 685.9,-75.03 1028.8,-75.03 342.9,0 1157.3,42.93 1318.1,171.53 160.7,128.6 -10.7,321.42 -107.1,353.61 -96.5,32.11 -718.1,170.14 -803.8,219.04 -85.7,48.9 -514.4,502.55 -585.9,516.83 -71.4,14.28 -257.1,-42.93 -292.8,-42.93 -35.8,0 -257.2,-67.84 -257.2,-67.84" /></g><path
         id="path30"
         style="fill:#b05d37;fill-opacity:1;fill-rule:nonzero;stroke:none"
         d="m 10525.2,8790.4 c 0,0 1525.9,806.4 2204.7,1005.4 678.7,199 944.1,-45.9 1010.5,-117.4 66.3,-71.4 142.9,-413.3 142.9,-413.3 l -3143.7,-1306.5 -607.3,132.7 392.9,699.1" /><path
         id="path32"
         style="fill:#c37140;fill-opacity:1;fill-rule:nonzero;stroke:none"
         d="m 11352,6989 c 0,0 705.5,452.9 1141.9,824.2 436.3,371.2 857.3,612.4 857.3,612.4 0,0 130.2,-945.4 394.3,-1270.8 264.1,-325.3 877.7,-962 1071.7,-1247.8 193.9,-285.7 214.3,-341.9 214.3,-341.9 0,0 347,-255.1 387.9,-250.1 40.8,5.2 270.4,71.5 270.4,112.3 0,40.9 -112.2,357.3 -112.2,357.3 0,0 -627.7,1143.1 -918.6,1883.1 -290.9,740 -444,1005.4 -469.5,1133 -25.6,127.5 -188.9,658.3 -638,714.4 -449.1,56.2 -2381.4,-561.3 -2949.7,-995.1 -568.3,-433.8 -403.2,-1199.3 -239.9,-1260.6 163.3,-61.2 990.1,-270.4 990.1,-270.4" /><path
         id="path34"
         style="fill:#252323;fill-opacity:1;fill-rule:nonzero;stroke:none"
         d="m 8963.6,6580.7 c 30.62,-10.2 224.55,-153.1 224.55,-153.1 0,0 387.86,-336.8 964.55,-229.7 576.7,107.2 1219.7,801.3 1199.3,791.1 -20.4,-10.3 -331.7,306.2 -500.2,760.4 -168.4,454.2 -250,770.6 -250,770.6 l 30.6,51 c 0,0 -86.8,209.2 -107.2,219.4 -20.4,10.3 -444,-341.9 -796.09,-489.9 -352.13,-148 -862.47,-403.1 -862.47,-403.1 0,0 -418.48,-336.9 -479.72,-520.6 -61.24,-183.7 -40.83,-617.5 -40.83,-617.5 l 617.51,-178.6" /><path
         id="path36"
         style="fill:#c37140;fill-opacity:1;fill-rule:nonzero;stroke:none"
         d="m 7743.9,5750.1 c 0,0 739.99,570.3 954.33,652 214.34,81.6 489.92,25.5 489.92,25.5 0,0 -234.75,556.3 -265.37,893.1 -30.63,336.8 -56.14,561.4 -56.14,576.7 0,15.3 -699.16,-209.3 -882.89,-336.9 -183.72,-127.6 -831.85,-280.6 -875.22,-344.4 -43.38,-63.8 -216.89,-533.3 -222,-599.7 -5.1,-66.3 -194.56,45.9 37.96,-234.7 232.52,-280.7 819.41,-631.6 819.41,-631.6" /><path
         id="path38"
         style="fill:#c37140;fill-opacity:1;fill-rule:nonzero;stroke:none"
         d="m 6646.67,3921.8 c 0,0 -15.31,-40.8 -61.24,-117.3 -45.93,-76.6 -64.11,-127.6 -62.67,-188.9 1.43,-61.2 83.08,-178.6 123.91,-199 40.83,-20.4 107.17,0 107.17,0 0,0 148,-204.1 250.07,-270.5 102.07,-66.3 173.51,0 173.51,0 0,0 40.26,-71.4 104.34,-51 64.07,20.4 79.38,45.9 79.38,45.9 0,0 76.56,-45.9 86.76,30.6 10.21,76.6 -45.93,245 -56.14,275.6 -10.2,30.6 239.86,-224.5 285.79,-199 45.93,25.5 -30.62,137.8 -91.86,219.4 -61.24,81.7 -107.17,91.9 -163.31,229.7 -56.13,137.8 -81.65,168.4 -163.3,224.5 -81.66,56.2 -266.01,204.2 -334.59,194 -68.58,-10.2 -196.16,-30.7 -196.16,-30.7 l -81.66,-163.3" /><path
         id="path40"
         style="fill:#ececec;fill-opacity:1;fill-rule:nonzero;stroke:none"
         d="m 4900.04,5199 72.73,-150.2 355.96,-179 h 1446.8 c 0,0 401.89,306.2 597.1,497.6 195.2,191.3 371.27,382.7 371.27,382.7 0,0 -333,578 -459.31,891.8 -126.3,313.9 -176.06,574.2 -176.06,574.2 0,0 -348.31,-99.6 -363.62,-95.7 -15.31,3.8 -225.82,199 -558.82,137.8 -332.99,-61.3 -451.65,-424.9 -574.13,-654.5 -122.48,-229.7 -240.63,-594.3 -240.63,-594.3 l -585.1,-597.4 113.81,-213" /><path
         id="path42"
         style="fill:#c37140;fill-opacity:1;fill-rule:nonzero;stroke:none"
         d="m 4779.9,6032.3 c 0,0 295.44,-135.2 591.43,-22.9 0,0 -66.84,-212.6 -184.22,-407.5 -117.38,-195 -214.34,-553.1 -214.34,-553.1 0,0 -240.24,184.5 -709.75,242.1 -469.51,57.6 -490.96,114.8 -508.12,143.5 -17.15,28.6 -71.28,299.1 62.96,426.7 134.23,127.6 134.23,127.6 134.23,127.6 l 827.81,43.6" /><path
         id="path44"
         style="fill:#c37140;fill-opacity:1;fill-rule:nonzero;stroke:none"
         d="m 5513.73,5840.7 c 0,0 -193.94,-99.5 -275.59,-312.6 -81.65,-213.1 -71.45,-514.1 66.35,-743.8 137.79,-229.7 454.2,-270.5 653.22,-290.9 199.04,-20.4 449.1,-137.8 464.41,-142.9 15.31,-5.1 224.55,-428.7 224.55,-428.7 0,0 168.41,61.3 362.34,46 193.93,-15.3 250.07,-46 250.07,-46 0,0 51.03,413.4 0,607.3 -51.04,194 -411.82,396.1 -411.82,396.1 0,0 115.82,42.8 95.41,384.8 -20.41,341.9 -321.51,469.5 -474.62,556.2 -153.1,86.8 -239.86,148 -464.4,142.9 -224.55,-5.1 -489.92,-168.4 -489.92,-168.4" /><path
         id="path46"
         style="fill:#9c4b2e;fill-opacity:1;fill-rule:nonzero;stroke:none"
         d="m 6121.03,5412 c 0,0 52.68,-130.5 113.1,-185.2 60.41,-54.6 613.13,-301.6 613.13,-301.6 0,0 62.44,45.2 77.23,123.6 0,0 -642.98,205 -659.43,225.4 -16.45,20.4 -144.03,137.8 -144.03,137.8" /><path
         id="path48"
         style="fill:#9c4b2e;fill-opacity:1;fill-rule:nonzero;stroke:none"
         d="m 6621.16,3648.8 c -9.78,2.9 58.68,-45.9 84.2,-89.3 25.52,-43.4 48.48,-142.9 48.48,-142.9 l 59.37,-77 c 0,0 4.43,250.5 -192.05,309.2" /><path
         id="path50"
         style="fill:#9c4b2e;fill-opacity:1;fill-rule:nonzero;stroke:none"
         d="m 6998.8,3373.2 c -1.68,11.3 178.62,-227.1 178.62,-227.1 l -56.4,-26.7 c 0,0 -104.35,133.9 -122.22,253.8" /><path
         id="path52"
         style="fill:#9c4b2e;fill-opacity:1;fill-rule:nonzero;stroke:none"
         d="m 7157.01,3424.3 c 0,0 181.17,-209.3 204.13,-283.3 l 53.61,-12.9 c 0,0 -51.05,181.3 -257.74,296.2" /><path
         id="path54"
         style="fill:#9c4b2e;fill-opacity:1;fill-rule:nonzero;stroke:none"
         d="m 6522.68,4168.4 c 0,0 -53.66,211.5 0.08,399 0,0 -100.65,-91.9 -100.64,-216.9 l 100.56,-182.1" /><path
         id="path56"
         style="fill:#100f0d;fill-opacity:1;fill-rule:nonzero;stroke:none"
         d="m 9829.9,7996.9 c 0,0 306.2,130.1 321.5,149.3 15.3,19.1 181.2,207.9 450.4,373.8 l 30.6,51 -47.5,109.4 c 0,0 -429.7,-407.9 -471.8,-442.4 -42.1,-34.4 -283.2,-241.1 -283.2,-241.1" /><path
         id="path58"
         style="fill:#ffffff;fill-opacity:1;fill-rule:nonzero;stroke:none"
         d="m 15438.2,6043.8 c -193.3,-75 -416,-147.4 -575.7,-204.1 151.8,-227.4 169,-274.6 169,-274.6 0,0 347,-255.1 387.9,-250.1 40.8,5.2 270.5,71.5 270.5,112.3 0,40.9 -112.3,357.3 -112.3,357.3 0,0 -54.8,99.7 -139.4,259.2" /><path
         id="path60"
         style="fill:#ececec;fill-opacity:1;fill-rule:nonzero;stroke:none"
         d="m 3988.3,5114.5 72.42,-56.7 c 0,0 195.54,17.6 264.39,233.1 0,0 -178.91,-124.3 -336.81,-176.4" /><path
         id="path62"
         style="fill:#9c4b2e;fill-opacity:1;fill-rule:nonzero;stroke:none"
         d="m 4066.99,5722.4 c 0,0 452.63,92.6 528.95,123 97.03,38.5 206.74,180.5 206.74,180.5 0,0 -312.18,335.9 -383.42,375.8 -71.24,39.9 -269.01,-433.2 -295.14,-466.9 -26.11,-33.6 -57.13,-212.4 -57.13,-212.4" /><path
         id="path64"
         style="fill:#361c19;fill-opacity:1;fill-rule:nonzero;stroke:none"
         d="m 3342.15,6499.1 c -5.47,17.5 -90.86,106.3 -90.86,106.3 0,0 -250.97,144.9 -384.93,-320.1 -133.96,-464.9 -59.7,-826.5 122.76,-1060 182.45,-233.6 766.2,-250.1 981.57,-155.2 315.32,139.1 354.42,220.8 354.42,220.8 L 4120.03,5750 c 0,0 -28.58,385.7 -63.77,408.1 -35.18,22.4 -302.09,154.6 -344.44,167 -42.35,12.5 -369.67,174 -369.67,174" /><path
         id="path66"
         style="fill:#c37140;fill-opacity:1;fill-rule:nonzero;stroke:none"
         d="m 3863.04,5840.1 c 0,0 -207.92,0.6 -175.01,-137.9 32.92,-138.5 390.08,-91.2 439.34,-27.2 49.26,64.1 49.26,64.1 49.26,64.1 0,0 323.47,147 414.08,226.6 90.62,79.5 174.05,455.6 161.7,507.6 -12.34,51.9 -450.35,123.2 -450.35,123.2 0,0 -49.54,153.7 -65.09,160.4 -15.55,6.7 -259.47,-111.7 -285.78,-119.9 -26.29,-8.2 -299.89,48.8 -387.64,46.5 -87.75,-2.4 -293.4,-64.6 -312.26,-78.1 -18.85,-13.6 -12.64,-230.9 -3.02,-274.1 9.61,-43.2 229.72,-3 276.48,-48 46.74,-45.1 110.11,-260.4 214.25,-310.7 104.16,-50.2 129.23,-75.1 124.04,-132.5" /><path
         id="path68"
         style="fill:#361c19;fill-opacity:1;fill-rule:nonzero;stroke:none"
         d="m 3975.42,12593.1 c 0,0 -235.33,-276.9 -158.43,-434.3 76.89,-157.3 326.25,-134.3 532.22,-41.6 205.97,92.7 354.69,-97.7 650.5,-19.4 295.82,78.3 209.95,298.3 500.18,304.7 290.23,6.4 186.45,393.8 145.01,412.6 -41.44,18.9 -924.8,189.1 -924.8,189.1 l -484.35,-97.9 -260.33,-313.2" /><g
         transform="scale(1.02972)"
         id="g70"><path
           id="path72"
           style="fill:#100f0d;fill-opacity:1;fill-rule:nonzero;stroke:none"
           d="m 13980.5,13311.9 c 0,0 -51.9,-639.4 -118.8,-810.3 -66.9,-171 -104.1,-244.8 -74.4,-319.4 29.7,-74.7 780.6,-156.4 862.4,-163.9 81.7,-7.4 1338.1,22.3 1375.3,37.2 37.2,14.9 267.8,111.5 267.8,111.5 0,0 7.2,282.5 -126.6,356.9 -133.8,74.3 -676.5,96.6 -676.5,96.6 0,0 -282.5,-75.5 -542.7,44 -260.2,119.5 -401.4,372.3 -490.6,439.2 -89.2,66.9 -475.9,208.2 -475.9,208.2" /></g><g
         transform="scale(1.07246)"
         id="g74"><path
           id="path76"
           style="fill:#252323;fill-opacity:1;fill-rule:nonzero;stroke:none"
           d="m 13987.4,12010.5 c 0,0 -100,-471.1 -135.7,-585.3 -35.6,-114.2 -207,-278.4 67.9,-342.6 274.8,-64.2 938.6,42.8 1266.9,0 328.4,-42.8 942.2,128.5 1027.9,207 85.6,78.5 -7.2,299.8 -285.5,342.6 -278.4,42.8 -556.8,95.6 -692.4,194.1 -135.6,98.6 -335.5,269.9 -364.1,291.3 -28.5,21.4 -227.5,207 -252.9,214.1 -25.4,7.2 -89.6,-171.3 -89.6,-171.3 h -321.3 l -221.2,-149.9" /></g><g
         transform="scale(1.03914)"
         id="g78"><path
           id="path80"
           style="fill:#b05d37;fill-opacity:1;fill-rule:nonzero;stroke:none"
           d="m 9951.98,13753.6 c 0,0 947.92,1205.7 1191.02,1596.1 243.1,390.4 965,891.4 1237.5,920.8 272.7,29.5 532.3,-506.2 532.3,-506.2 L 11747,14627.8 c 0,0 -228.3,-250.5 -493.6,-640.9 -265.2,-390.5 -751.3,-699.9 -898.7,-729.3 -147.3,-29.5 -434.67,44.1 -434.67,44.1 l 31.95,451.9" /></g><g
         transform="scale(1.02035)"
         id="g82"><path
           id="path84"
           style="fill:#c37140;fill-opacity:1;fill-rule:nonzero;stroke:none"
           d="M 11540.7,12761.4 12781,14672 c 0,0 292.6,-525.2 622.8,-787.8 330.1,-262.5 832.7,-755.2 1050.3,-981.5 217.6,-226.3 247.6,-278.9 247.6,-278.9 0,0 142.5,-7.4 277.5,-120 135.1,-112.5 360.2,-82.5 382.6,0 22.6,82.5 -52.4,343.9 -52.4,343.9 0,0 -885.3,1201.6 -1140.4,1666.7 -255.1,465.2 -952.8,1650.6 -1260.4,1718.1 -307.6,67.5 -780.3,-345.1 -1260.4,-772.8 -480.1,-427.6 -1290.4,-1492.9 -1290.4,-1492.9 0,0 202.5,-1395.5 262.5,-1410.5 60.1,-15 920.4,205.1 920.4,205.1" /></g><path
         id="path86"
         style="fill:#252323;fill-opacity:1;fill-rule:nonzero;stroke:none"
         d="m 9361.67,12429.2 301.09,-201.6 c 0,0 816.54,-257.7 1367.74,-171 551.1,86.8 745.1,964.6 745.1,964.6 0,0 -306.2,214.3 -612.4,535.8 -306.2,321.5 -594.6,694.1 -594.6,694.1 l -104.6,-107.2 -122.5,148 c 0,0 -183.7,-234.8 -423.57,-398.1 -239.85,-163.3 -387.85,-199 -387.85,-199 l -321.52,-551.2 153.11,-714.4" /><path
         id="path88"
         style="fill:#c37140;fill-opacity:1;fill-rule:nonzero;stroke:none"
         d="m 7825.55,12227.6 c 0,0 566.48,84.2 990.06,68.9 423.57,-15.3 847.15,-68.9 847.15,-68.9 0,0 -86.75,451.6 -107.16,798.7 -20.42,347 -25.52,668.5 -25.52,668.5 0,0 -433.79,25.4 -785.92,153.1 -352.13,127.6 -964.54,142.9 -964.54,142.9 0,0 -382.75,-479.7 -387.86,-694.1 -5.1,-214.3 0,-398 0,-398 l 433.79,-671.1" /><path
         id="path90"
         style="fill:#c37140;fill-opacity:1;fill-rule:nonzero;stroke:none"
         d="m 6682.4,11275.8 c 0,0 -178.62,-188.8 -168.42,-255.2 10.21,-66.3 76.56,-239.8 168.42,-250 91.86,-10.2 91.86,-10.2 91.86,-10.2 0,0 192.65,-195.2 250.06,-237.3 57.41,-42.2 160.76,-19.2 160.76,-19.2 0,0 84.2,-57.4 126.31,-49.8 42.1,7.7 61.24,46 61.24,46 0,0 91.86,-34.5 91.86,38.3 0,72.7 -91.86,310 -91.86,310 0,0 271.75,-241.1 317.68,-218.2 45.93,23 -22.97,118.7 -88.03,199.1 -65.07,80.3 -88.04,61.2 -130.14,172.2 -42.1,111 -40.83,116.1 -192.65,274.3 -151.82,158.2 -121.2,196.5 -220.72,196.5 -99.52,0 -233.48,-15.3 -260.27,-38.3 -26.8,-23 -116.1,-158.2 -116.1,-158.2" /><path
         id="path92"
         style="fill:#ececec;fill-opacity:1;fill-rule:nonzero;stroke:none"
         d="m 5008.49,12837.4 102.07,-163.3 132.68,-91.8 c 0,0 1694.32,-484.9 1740.26,-469.6 45.92,15.4 847.15,71.5 842.05,114.9 -5.1,43.3 -15.31,1421.3 -45.93,1763.2 0,0 -341.92,10.2 -438.89,35.7 -96.97,25.5 -204.13,265.4 -643.02,265.4 -438.9,0 -603.68,-337.6 -789.21,-498 -185.54,-160.3 -425.39,-456.3 -476.43,-492.1 -51.03,-35.7 -270.48,-183.7 -301.1,-219.4 -30.62,-35.7 -122.48,-245 -122.48,-245" /><path
         id="path94"
         style="fill:#c37140;fill-opacity:1;fill-rule:nonzero;stroke:none"
         d="m 4410.17,12737.9 c 0,0 233.39,38.2 420.96,0 187.57,-38.3 279.43,-63.8 279.43,-63.8 0,0 367.44,479.7 505.23,678.8 137.79,199 413.38,450.1 408.27,490.4 -5.1,40.3 -336.82,-199.8 -423.58,-248.1 -86.75,-48.4 -214.34,-83.9 -352.13,-109.5 -137.79,-25.7 -417.22,26.4 -417.22,26.4 0,0 -378.31,55 -537.11,14.3 -158.8,-40.7 -362.34,-127.6 -413.38,-265.4 -51.03,-137.8 -33.81,-193.9 -33.81,-193.9 l 477.81,-393 85.53,63.8" /><path
         id="path96"
         style="fill:#c37140;fill-opacity:1;fill-rule:nonzero;stroke:none"
         d="m 5590.27,13062 c 0,0 -320.04,-242.9 -407.53,-437.8 -87.5,-195 101.33,-567.6 407.53,-679.9 306.2,-112.2 826.75,-188.8 882.89,-224.5 l 209.24,-444 c 0,0 117.38,56.1 321.51,61.2 204.13,5.1 275.58,-61.2 275.58,-61.2 0,0 107.17,444 45.93,627.7 -61.24,183.7 -382.75,324.1 -382.75,324.1 0,0 81.65,165.8 -20.41,446.5 -102.07,280.7 -316.42,505.3 -581.79,561.4 -265.38,56.1 -750.2,-173.5 -750.2,-173.5" /><path
         id="path98"
         style="fill:#9c4b2e;fill-opacity:1;fill-rule:nonzero;stroke:none"
         d="m 6207.78,12704.7 c 0,0 71.45,-112.2 168.41,-188.8 96.97,-76.5 566.48,-288.3 566.48,-288.3 0,0 35.72,95.5 30.87,176.1 0,0 -617.76,158.1 -765.76,301" /><path
         id="path100"
         style="fill:#9c4b2e;fill-opacity:1;fill-rule:nonzero;stroke:none"
         d="m 6473.16,11719.8 c 0,0 -5.11,132.7 40.82,224.5 0,0 -94.52,-71.6 -121.26,-199.1 l 80.44,-25.4" /><path
         id="path102"
         style="fill:#9c4b2e;fill-opacity:1;fill-rule:nonzero;stroke:none"
         d="m 6659.43,11010.4 c 0,0 28.07,-28 63.79,-109.7 35.73,-81.7 0,-134.7 0,-134.7 l 51.04,-5.6 c 0,0 0,86.7 0,137.7 0,51.1 -114.83,112.3 -114.83,112.3" /><path
         id="path104"
         style="fill:#9c4b2e;fill-opacity:1;fill-rule:nonzero;stroke:none"
         d="m 7014.12,10760.4 170.96,-256.5 c 0,0 -57.45,-7.5 -75.69,-6 0,0 -82.51,198.7 -95.27,262.5" /><path
         id="path106"
         style="fill:#9c4b2e;fill-opacity:1;fill-rule:nonzero;stroke:none"
         d="m 7172.32,10775.7 c 0,0 168.41,-168.4 200.31,-275.6 l 56.47,-7.2 c 0,0 -78.16,221.5 -256.78,282.8" /><path
         id="path108"
         style="fill:#100f0d;fill-opacity:1;fill-rule:nonzero;stroke:none"
         d="m 9866.9,13694.8 c 0,0 199,81.6 301.1,142.9 102.1,61.2 296,306.2 296,306.2 l -122.5,148 c 0,0 10.2,-224.6 -474.6,-597.1" /><path
         id="path110"
         style="fill:#9c4b2e;fill-opacity:1;fill-rule:nonzero;stroke:none"
         d="m 13025.9,15506.5 c 0,0 -68.9,-183.7 15.3,-535.9 0,0 -100.7,-155 -90.2,-138.9 10.5,16.2 -139.5,276.7 74.9,674.8" /><path
         id="path112"
         style="fill:#ffffff;fill-opacity:1;fill-rule:nonzero;stroke:none"
         d="m 15620.9,13109.2 c 0,0 -111.3,151.1 -267,367.7 -169.8,-140.5 -428.1,-264.7 -584.9,-333.2 203.2,-212.7 231.9,-262.9 231.9,-262.9 0,0 145.4,-7.6 283.2,-122.5 137.8,-114.8 367.5,-84.2 390.4,0 23,84.2 -53.6,350.9 -53.6,350.9" /><path
         id="path114"
         style="fill:#ececec;fill-opacity:1;fill-rule:nonzero;stroke:none"
         d="m 4142.65,12523.1 77.33,-49.8 c 0,0 193.1,35.4 241.86,256.3 0,0 -166.74,-140.2 -319.19,-206.5" /><path
         id="path116"
         style="fill:#9c4b2e;fill-opacity:1;fill-rule:nonzero;stroke:none"
         d="m 4165.18,13135.6 c 0,0 442.21,133.8 515.42,171.1 93.08,47.3 189.28,198.7 189.28,198.7 0,0 -341.71,305.9 -416.31,339 -74.6,33.2 -228.09,-456.1 -251.01,-492 -22.91,-35.9 -37.38,-216.8 -37.38,-216.8" /><path
         id="path118"
         style="fill:#361c19;fill-opacity:1;fill-rule:nonzero;stroke:none"
         d="m 3372.07,13842.4 c -7.06,17 -100.23,97.5 -100.23,97.5 0,0 -263.23,121.3 -353.92,-354 -90.68,-475.3 16.46,-828.5 219.6,-1044.3 203.13,-215.8 785.94,-178.6 991.67,-64.3 301.22,167.4 332.65,252.3 332.65,252.3 l -246.37,438.4 c 0,0 -63.9,381.5 -100.99,400.5 -37.08,19.1 -315.01,126.2 -358.33,134.7 -43.31,8.5 -384.08,139.2 -384.08,139.2" /><path
         id="path120"
         style="fill:#c37140;fill-opacity:1;fill-rule:nonzero;stroke:none"
         d="m 3951.28,13234.1 c 0,0 -207.09,-18.5 -161.6,-153.4 45.5,-134.9 396.8,-55 439.97,13.3 43.17,68.4 43.17,68.4 43.17,68.4 0,0 308.61,176.1 391.52,263.6 82.93,87.5 131.47,469.7 114.41,520.3 -17.07,50.5 -459.77,81.3 -459.77,81.3 0,0 -63.44,148.5 -79.55,153.7 -16.1,5.3 -248.12,-135 -273.56,-145.6 -25.43,-10.5 -303.11,21.1 -390.27,10.7 -87.16,-10.4 -286.23,-91.2 -303.76,-106.5 -17.53,-15.2 8.61,-231 22.15,-273.1 13.54,-42.1 229.04,18.1 279.73,-22.5 50.69,-40.6 133.56,-249.1 241.88,-289.6 108.33,-40.5 135.57,-62.9 135.68,-120.6" /></g></g></svg>