<?xml version="1.0" encoding="UTF-8" standalone="no"?>
<svg
   xmlns:dc="http://purl.org/dc/elements/1.1/"
   xmlns:cc="http://creativecommons.org/ns#"
   xmlns:rdf="http://www.w3.org/1999/02/22-rdf-syntax-ns#"
   xmlns:svg="http://www.w3.org/2000/svg"
   xmlns="http://www.w3.org/2000/svg"
   viewBox="0 0 2666.6667 2666.6667"
   height="2666.6667"
   width="2666.6667"
   xml:space="preserve"
   id="svg2"
   version="1.1"><metadata
     id="metadata8"><rdf:RDF><cc:Work
         rdf:about=""><dc:format>image/svg+xml</dc:format><dc:type
           rdf:resource="http://purl.org/dc/dcmitype/StillImage" /></cc:Work></rdf:RDF></metadata><defs
     id="defs6" /><g
     transform="matrix(1.3333333,0,0,-1.3333333,0,2666.6667)"
     id="g10"><g
       transform="scale(0.1)"
       id="g12"><g
         transform="scale(1.22699)"
         id="g14"><path
           id="path16"
           style="fill:none;fill-opacity:1;fill-rule:nonzero;stroke:none"
           d="M 16300,0 H 0 V 16300 H 16300 V 0" /></g><path
         id="path18"
         style="fill:#b8b7b7;fill-opacity:1;fill-rule:nonzero;stroke:none"
         d="m 14840.3,4303.1 c 0,0 -35.8,35.9 -42.4,46.1 -6.7,10.1 -159.3,-65.8 -159.3,-65.8 l 344.1,-475.7 c 0,0 193,85.5 206.1,85.5 13.2,0 -13,166.6 -70.1,282.8 -57.2,116.2 -278.4,127.1 -278.4,127.1" /><g
         transform="scale(1.04183)"
         id="g20"><path
           id="path22"
           style="fill:#b8b7b7;fill-opacity:1;fill-rule:nonzero;stroke:none"
           d="m 16070.7,5598.97 c 21,-14.68 86.3,-115.66 157.8,-109.42 71.5,6.33 52.6,239.87 52.6,239.87 l -210.4,-130.45" /></g><g
         transform="scale(1.05139)"
         id="g24"><path
           id="path26"
           style="fill:#252322;fill-opacity:1;fill-rule:nonzero;stroke:none"
           d="m 16098.5,5124.85 86.1,28.25 c 0,0 -9.8,67.72 47.3,57.92 57,-9.7 68.1,-145.9 44.4,-151.51 -23.6,-5.52 -54.2,23.68 -59.7,22.26 -5.6,-1.34 -118.1,-36.15 -118.1,-36.15 v 79.23" /></g><g
         transform="scale(1.04287)"
         id="g28"><path
           id="path30"
           style="fill:#929393;fill-opacity:1;fill-rule:nonzero;stroke:none"
           d="m 15931.6,5082.73 308.6,103.65 c 0,0 59.8,-30.87 45.8,-110.75 l -344.7,-120.43 -9.7,127.53" /></g><g
         transform="scale(1.02691)"
         id="g32"><path
           id="path34"
           style="fill:#d7d6d4;fill-opacity:1;fill-rule:nonzero;stroke:none"
           d="m 16139.9,4734.7 c 6.4,-4.29 160.1,-301 153.7,-301 -6.4,0 -309,-162.23 -309,-162.23 l -167,34.17 -1329.2,-514.45 -15.6,234.87 314.5,249.01 1194.8,321.35 74.5,108.39 83.3,29.89" /></g><g
         transform="scale(1.09684)"
         id="g36"><path
           id="path38"
           style="fill:#d7d6d4;fill-opacity:1;fill-rule:nonzero;stroke:none"
           d="m 16300,4808.54 -9.3,-205.14 -1106.6,-417.01 c 0,0 -185.8,255.83 -111.3,287.74 74.7,31.99 1105.3,389.11 1105.3,389.11 l 121.9,-54.7" /></g><path
         id="path40"
         style="fill:#4f5052;fill-opacity:1;fill-rule:nonzero;stroke:none"
         d="m 13808.7,7780.5 c 0,0 10.2,-121.3 10.2,-127.1 0,-5.9 -68.6,-24.9 -93.5,49.7 -24.8,74.5 83.3,77.4 83.3,77.4" /><g
         transform="scale(1.11845)"
         id="g42"><path
           id="path44"
           style="fill:#929393;fill-opacity:1;fill-rule:nonzero;stroke:none"
           d="m 15918.5,5662.94 v -162.01 c 0,0 107.1,-107.12 177.6,-129.29 70.6,-22.26 203.9,6.53 200,13.05 -4,6.53 -130.7,143.69 -207.8,210.3 -77.1,66.7 -169.8,67.95 -169.8,67.95" /></g><g
         transform="scale(1.14714)"
         id="g46"><path
           id="path48"
           style="fill:#d7d6d4;fill-opacity:1;fill-rule:nonzero;stroke:none"
           d="m 16021,5560.81 279,-267.45 -309.6,-244.61 -351.5,324.81 -1853.7,1192.45 c 0,0 179.7,343.9 202.6,324.81 22.9,-19.09 1299.7,-859.88 1299.7,-859.88 l 733.5,-470.13" /></g><path
         id="path50"
         style="fill:#b8b7b7;fill-opacity:1;fill-rule:nonzero;stroke:none"
         d="m 16237,8903.9 -11.6,42.8 c -10.5,38.8 -50.3,61.6 -89,51.2 l -507.5,-137.2 c -38.7,-10.5 -61.6,-50.4 -51.2,-89.1 l 11.6,-42.8 c 10.5,-38.7 50.4,-61.6 89.1,-51.2 l 507.5,137.3 c 38.7,10.4 61.6,50.3 51.1,89" /><path
         id="path52"
         style="fill:#161514;fill-opacity:1;fill-rule:nonzero;stroke:none"
         d="m 15590.2,8907.2 c 0,0 45.3,-39.7 62.7,-64.6 17.4,-25 73.4,-167.9 41.5,-215.1 -31.9,-47.2 -213.4,-55.8 -224.8,7.2 -11.5,63 92.3,134.9 92.3,134.9 l 28.3,137.6" /><g
         transform="scale(1.09684)"
         id="g54"><path
           id="path56"
           style="fill:#b8b7b7;fill-opacity:1;fill-rule:nonzero;stroke:none"
           d="m 13837.7,6223.51 c 16.1,-19.96 172,-663.45 172,-663.45 0,0 623.5,-691.53 635.5,-695.54 12,-4.01 171.9,-19.97 195.9,-19.97 24,0 351.7,-227.83 351.7,-227.83 l 946,343.71 161.2,-151.89 -2750,-1039.17 -131.9,179.79 1139.2,427.68 -1966.6,2346.29 -20,484.48 76,39.21 28,271.77 c 0,0 331.7,203.86 407.6,131.93 75.9,-71.93 283.8,-511.65 295.9,-535.63 11.9,-23.98 459.5,-891.38 459.5,-891.38" /></g><g
         transform="scale(1.04381)"
         id="g58"><path
           id="path60"
           style="fill:#c37140;fill-opacity:1;fill-rule:nonzero;stroke:none"
           d="m 15966.1,10152.7 c 0,0 -6.6,-254.96 -103.2,-439.76 -96.6,-184.77 -155.4,-512.41 -182.7,-642.61 -27.3,-130.2 -104,-168.04 -152.8,-359.16 -48.8,-191.04 -84.6,-594.27 -84.6,-594.27 l -30.8,-37.84 c 0,0 -109.9,-117.55 -101.5,-146.96 8.5,-29.41 283.5,-574.92 283.5,-574.92 0,0 226.9,58.25 313,306.09 86,247.84 75.6,421.25 75.6,421.25 0,0 67.2,105.86 69.3,328.51 2.1,222.55 0,356.96 0,356.96 0,0 42,147.05 84,354.95 42,207.89 63,306.57 63,489.29 0,182.71 10.5,436.97 10.5,436.97 l 90.6,249.8 c 0,0 -202,-6.3 -225,-31.5 -23.1,-25.2 -108.9,-116.8 -108.9,-116.8" /></g><path
         id="path62"
         style="fill:#929393;fill-opacity:1;fill-rule:nonzero;stroke:none"
         d="m 14682.9,7234.6 -136.4,-456.6 451.6,-530.5 -258.7,1069.8 -56.5,-82.7" /><path
         id="path64"
         style="fill:#d7d6d4;fill-opacity:1;fill-rule:nonzero;stroke:none"
         d="m 14873.4,7030.8 260.6,-967.4 232.4,35.1 -173.6,683.9 -319.4,248.4" /><g
         transform="scale(1.0085)"
         id="g66"><path
           id="path68"
           style="fill:#9d4a30;fill-opacity:1;fill-rule:nonzero;stroke:none"
           d="m 16036.9,8414.11 c 0,0 180.5,115.22 221.8,163.01 41.3,47.9 41.3,47.9 41.3,47.9 0,0 -43.5,-100.05 -121.8,-169.56 -78.2,-69.61 -102.1,-84.78 -110.8,-91.33 -8.7,-6.54 -83.8,-84.68 -83.8,-84.68 l -36.8,41.25 36.8,80.42 53.3,12.99" /></g><g
         transform="scale(1.018)"
         id="g70"><path
           id="path72"
           style="fill:#929393;fill-opacity:1;fill-rule:nonzero;stroke:none"
           d="m 15779.4,5241.26 -198.1,-30.16 271.4,-198.04 269.2,-376.42 75.2,109.33 c 0,0 102.9,276.72 40.3,318.76 -62.4,42.05 -294.2,193.72 -318,245.49 -23.7,51.66 -38.7,-81.44 -38.7,-81.44 l -101.3,12.48" /></g><g
         transform="scale(1.04349)"
         id="g74"><path
           id="path76"
           style="fill:#4f5052;fill-opacity:1;fill-rule:nonzero;stroke:none"
           d="m 16282.4,4640.58 c 17.6,-45.33 8.6,-91.14 -20.1,-102.26 -28.6,-11.11 -66.2,16.58 -83.7,61.91 -17.7,45.43 -8.6,91.14 20,102.25 28.7,11.22 66.1,-16.57 83.8,-61.9" /></g><g
         transform="scale(1.04287)"
         id="g78"><path
           id="path80"
           style="fill:#d7d6d4;fill-opacity:1;fill-rule:nonzero;stroke:none"
           d="m 16073,4701.47 100.9,57.54 c 0,0 126.1,-280.29 121.9,-280.29 -4.1,0 -106.5,-56.1 -106.5,-56.1 l -116.3,278.85" /></g><g
         transform="scale(1.03904)"
         id="g82"><path
           id="path84"
           style="fill:#4f5052;fill-opacity:1;fill-rule:nonzero;stroke:none"
           d="m 15824.9,4892.51 -26.9,-81.8 290.7,-451.96 c 0,0 160.3,73.91 160.3,80.17 0,6.35 51,27.72 51,27.72 l -260.4,495.94 -214.7,-70.07" /></g><g
         transform="scale(1.02368)"
         id="g86"><path
           id="path88"
           style="fill:#b8b7b7;fill-opacity:1;fill-rule:nonzero;stroke:none"
           d="m 15948.8,5696.11 351.2,-646.69 -299.8,-188.43 -582.4,950.78 -1207.8,1319.06 c 0,0 368.4,154.15 441.1,128.46 72.8,-25.69 1297.7,-1563.18 1297.7,-1563.18" /></g><path
         id="path90"
         style="fill:#c37140;fill-opacity:1;fill-rule:nonzero;stroke:none"
         d="m 13130.4,8861.9 c -8.7,5.9 73.1,-166.6 52.7,-336.1 -20.5,-169.5 -5.9,-551.4 40.9,-684.9 46.7,-133.5 100.8,-238.7 76,-284 -24.9,-45.3 -73.1,-68.7 -157.9,-55.5 -84.7,13.1 -255.7,95 -255.7,95 0,0 -144.7,738.1 -173.9,811.8 -29.2,73.8 -29.2,660.4 -52.6,771.9 -23.4,111.5 49.7,319 49.7,319 0,0 65.7,174.6 429.6,89.1 0,0 70.2,-366.8 73.1,-390.1 2.9,-23.4 -81.9,-336.2 -81.9,-336.2" /><path
         id="path92"
         style="fill:#9d4a30;fill-opacity:1;fill-rule:nonzero;stroke:none"
         d="m 12867.4,8921.9 -191,48.5 c 0,0 220.2,-128.9 269.9,-161.1 49.7,-32.1 237.7,-175.7 237.7,-175.7 0,0 -30.2,126 -53.6,228.3 -23.3,102.3 -263,60 -263,60" /><path
         id="path94"
         style="fill:#9d4a30;fill-opacity:1;fill-rule:nonzero;stroke:none"
         d="m 13005.5,8606.2 c 0,0 37.3,-144.7 -59.2,-263.1 0,0 145.1,43.3 59.2,263.1" /><path
         id="path96"
         style="fill:#c37140;fill-opacity:1;fill-rule:nonzero;stroke:none"
         d="m 14108.1,9783.3 c 0,0 72.3,160.1 188.5,201.7 116.2,41.7 296,-43.8 296,-43.8 0,0 -35.1,-133.7 -120.6,-146.9 -85.5,-13.2 -363.9,-11 -363.9,-11" /><path
         id="path98"
         style="fill:#252322;fill-opacity:1;fill-rule:nonzero;stroke:none"
         d="m 15033.2,9169.6 c -6.6,6.5 14.1,74.5 14.1,74.5 0,0 -68.9,61.4 -75.5,81.1 -6.6,19.7 -13.2,175.4 -54.8,263 -41.7,87.7 -96.5,197.3 -162.2,254.3 -65.8,57 -162.2,98.7 -162.2,98.7 0,0 -135.9,0 -269.7,-43.9 -133.7,-43.8 -214.8,-114 -214.8,-114 0,0 -24.1,-41.6 -15.3,-103 8.7,-61.4 13.1,-114 13.1,-114 0,0 -65.7,-98.6 -78.9,-118.3 -13.1,-19.8 -168.8,-89.9 -179.7,-85.5 -11,4.3 -214.9,92 -344.2,140.3 -129.3,48.2 -363.9,85.4 -363.9,85.4 0,0 -127.1,-63.5 -192.9,-208.2 -65.8,-144.7 -78.9,-458.1 -78.9,-458.1 0,0 171,-105.3 252.1,-133.8 81.1,-28.5 241.1,-89.8 263,-103 22,-13.1 162.3,-183.6 326.3,-244.5 164,-60.9 330.6,23.8 386.2,47.2 55.5,23.4 844.6,610.9 841.7,622.6 -2.9,11.7 96.5,59.2 96.5,59.2" /><g
         transform="scale(1.18779)"
         id="g100"><path
           id="path102"
           style="fill:#929393;fill-opacity:1;fill-rule:nonzero;stroke:none"
           d="m 15832.8,9684.06 392.4,103.26 c 0,0 74.8,-55.74 36.2,-162.59 l -479.3,-128.05 50.7,187.38" /></g><g
         transform="scale(1.16395)"
         id="g104"><path
           id="path106"
           style="fill:#252322;fill-opacity:1;fill-rule:nonzero;stroke:none"
           d="m 16207.8,9752.16 c -92.3,452.54 -351.3,781.74 -578.5,735.44 -227.3,-46.3 -336.7,-450.7 -244.5,-903.2 74.2,-364.08 256.3,-648.33 443.1,-721.41 l -4.6,-41.31 140,27.25 c 227.2,46.32 336.7,450.72 244.5,903.23" /></g><g
         transform="scale(1.15237)"
         id="g108"><path
           id="path110"
           style="fill:#3d3c3e;fill-opacity:1;fill-rule:nonzero;stroke:none"
           d="m 16206.9,9816.74 c 93.1,-457.05 -17.5,-865.5 -247,-912.29 -229.6,-46.79 -491.1,285.8 -584.3,742.85 -93.2,457.1 17.4,865.5 246.9,912.3 229.6,46.8 491.2,-285.8 584.4,-742.86" /></g><g
         transform="scale(1.06981)"
         id="g112"><path
           id="path114"
           style="fill:#636567;fill-opacity:1;fill-rule:nonzero;stroke:none"
           d="m 16300,6716.8 -177.2,129.09 c 0,0 -52.3,-13.27 -45.2,-64.5 l 168.1,-140.4 54.3,75.81" /></g><g
         transform="scale(1.07595)"
         id="g116"><path
           id="path118"
           style="fill:#464548;fill-opacity:1;fill-rule:nonzero;stroke:none"
           d="m 16122,6601.05 c -6.8,5.48 -44.8,63.85 -44.8,63.85 l 186.3,42.1 c 0,0 33.8,-101.86 35.1,-126.31 1.4,-24.44 0,-50.28 -57.1,-66.54 -56.9,-16.27 -119.5,86.9 -119.5,86.9" /></g><g
         transform="scale(1.08707)"
         id="g120"><path
           id="path122"
           style="fill:#929393;fill-opacity:1;fill-rule:nonzero;stroke:none"
           d="m 16300,7150.57 c -8,5.43 -43.4,48.76 -57.5,88.04 -14.2,39.37 -16.1,68.62 -29.2,67.61 -13.1,-1.01 -16.1,-105.88 0,-166.41 16.1,-60.44 78.3,-149.21 78.3,-149.21 l 8.4,159.97" /></g><g
         transform="scale(1.08662)"
         id="g124"><path
           id="path126"
           style="fill:#929393;fill-opacity:1;fill-rule:nonzero;stroke:none"
           d="m 16300,7644.72 c -8,5.43 -43.3,48.78 -57.5,88.07 -14.1,39.39 -16.1,68.65 -29.3,67.64 -13,-1.01 -16.1,-105.92 0,-166.48 16.2,-60.46 78.4,-149.27 78.4,-149.27 l 8.4,160.04" /></g><g
         transform="scale(1.0879)"
         id="g128"><path
           id="path130"
           style="fill:#929393;fill-opacity:1;fill-rule:nonzero;stroke:none"
           d="m 16300,8153.36 c -7.9,5.33 -43.3,48.71 -57.4,87.96 -14.1,39.25 -16.1,68.48 -29.2,67.47 -13.1,-1.01 -16.2,-105.8 0,-166.19 16.1,-60.48 78.2,-149.09 78.2,-149.09 l 8.4,159.85" /></g><g
         transform="scale(1.0879)"
         id="g132"><path
           id="path134"
           style="fill:#929393;fill-opacity:1;fill-rule:nonzero;stroke:none"
           d="m 16300,8675 c -7.9,5.34 -43.3,48.72 -57.4,87.97 -14.1,39.34 -16.1,68.48 -29.2,67.47 -13.1,-1.01 -16.2,-105.7 0,-166.19 16.1,-60.48 78.2,-149.09 78.2,-149.09 l 8.4,159.84" /></g><g
         transform="scale(1.08735)"
         id="g136"><path
           id="path138"
           style="fill:#929393;fill-opacity:1;fill-rule:nonzero;stroke:none"
           d="m 16300,9278.52 c -7.9,5.39 -43.3,48.73 -57.4,88.03 -14.2,39.32 -16.2,68.55 -29.2,67.54 -13.2,-1.01 -16.2,-105.84 0,-166.32 16.1,-60.47 78.3,-149.18 78.3,-149.18 l 8.3,159.93" /></g><g
         transform="scale(1.08735)"
         id="g140"><path
           id="path142"
           style="fill:#929393;fill-opacity:1;fill-rule:nonzero;stroke:none"
           d="m 16300,9847.33 c -7.9,5.39 -43.3,48.72 -57.4,88.03 -14.2,39.32 -16.2,68.54 -29.2,67.54 -13.2,-1 -16.2,-105.84 0,-166.32 16.1,-60.48 78.3,-149.18 78.3,-149.18 l 8.3,159.93" /></g><g
         transform="scale(1.08735)"
         id="g144"><path
           id="path146"
           style="fill:#929393;fill-opacity:1;fill-rule:nonzero;stroke:none"
           d="m 16300,10420.3 c -7.9,5.4 -43.3,48.7 -57.4,88 -14.2,39.3 -16.2,68.6 -29.2,67.6 -13.2,-1.1 -16.2,-105.9 0,-166.4 16.1,-60.4 78.3,-149.1 78.3,-149.1 l 8.3,159.9" /></g><g
         transform="scale(1.08794)"
         id="g148"><path
           id="path150"
           style="fill:#929393;fill-opacity:1;fill-rule:nonzero;stroke:none"
           d="m 16300,11015.1 c -7.9,5.4 -43.3,48.7 -57.4,88 -14.1,39.2 -16.1,68.5 -29.2,67.4 -13.1,-1 -16.2,-105.7 0,-166.2 16.1,-60.4 78.3,-149.1 78.3,-149.1 l 8.3,159.9" /></g><g
         transform="scale(1.08794)"
         id="g152"><path
           id="path154"
           style="fill:#929393;fill-opacity:1;fill-rule:nonzero;stroke:none"
           d="m 16300,11640.8 c -7.9,5.4 -43.3,48.7 -57.4,88 -14.1,39.3 -16.1,68.5 -29.2,67.5 -13.1,-1 -16.2,-105.8 0,-166.3 16.1,-60.4 78.3,-149.1 78.3,-149.1 l 8.3,159.9" /></g><g
         transform="scale(1.08794)"
         id="g156"><path
           id="path158"
           style="fill:#929393;fill-opacity:1;fill-rule:nonzero;stroke:none"
           d="m 16300,12268.1 c -7.9,5.4 -43.3,48.7 -57.4,88 -14.1,39.3 -16.1,68.5 -29.2,67.5 -13.1,-1 -16.2,-105.8 0,-166.3 16.1,-60.4 78.3,-149.1 78.3,-149.1 l 8.3,159.9" /></g><g
         transform="scale(1.08734)"
         id="g160"><path
           id="path162"
           style="fill:#929393;fill-opacity:1;fill-rule:nonzero;stroke:none"
           d="m 16300,12943.4 c -8.2,5 -45.2,46.9 -61,85.6 -15.7,38.7 -18.8,67.8 -31.9,66.3 -13,-1.5 -11.8,-106.4 6.7,-166.2 18.6,-59.8 84.4,-145.9 84.4,-145.9 l 1.8,160.2" /></g><g
         transform="scale(1.08777)"
         id="g164"><path
           id="path166"
           style="fill:#929393;fill-opacity:1;fill-rule:nonzero;stroke:none"
           d="m 16300,13601.1 c -8.2,5 -45.3,46.9 -61,85.6 -15.7,38.7 -18.8,67.8 -31.9,66.2 -13,-1.5 -11.8,-106.3 6.8,-166.1 18.5,-59.7 84.3,-145.8 84.3,-145.8 l 1.8,160.1" /></g><g
         transform="scale(1.08662)"
         id="g168"><path
           id="path170"
           style="fill:#929393;fill-opacity:1;fill-rule:nonzero;stroke:none"
           d="m 16300,6651.92 c -8,5.42 -43.3,48.77 -57.5,88.07 -14.1,39.39 -16.1,68.65 -29.3,67.64 -13,-1.02 -16.1,-105.93 0,-166.48 16.2,-60.47 78.4,-149.27 78.4,-149.27 l 8.4,160.04" /></g><g
         transform="scale(1.13706)"
         id="g172"><path
           id="path174"
           style="fill:#161514;fill-opacity:1;fill-rule:nonzero;stroke:none"
           d="m 15729.8,14078.5 -41.1,120.8 v 54 l 496.1,41.1 c 0,0 115.2,-115.2 113.1,-245.3 -2,-130.1 -102.8,-222.5 -239,-222.5 -136.3,0 -272.5,23.1 -285.3,61.7 -12.9,38.5 -43.8,190.2 -43.8,190.2" /></g><g
         transform="scale(1.0694)"
         id="g176"><path
           id="path178"
           style="fill:#b8b7b7;fill-opacity:1;fill-rule:nonzero;stroke:none"
           d="m 15164.4,14832.5 c 0,0 229.6,205 552.1,235.1 322.5,30 583.5,-50.6 583.5,-50.6 0,0 -91.5,-135.3 -321.1,-157.1 -229.6,-21.9 -349.8,-38.3 -538.4,-54.7 -188.7,-16.4 -276.1,27.3 -276.1,27.3" /></g><path
         id="path180"
         style="fill:#929393;fill-opacity:1;fill-rule:nonzero;stroke:none"
         d="m 15923.2,14871.2 -3884.4,-587.5 266.4,-507.4 3771.4,619.2 -153.4,475.7" /><g
         transform="scale(1.01212)"
         id="g182"><path
           id="path184"
           style="fill:#b8b7b7;fill-opacity:1;fill-rule:nonzero;stroke:none"
           d="m 16300,15412.2 c 0,0 -112.6,-177.6 -173.3,-519.8 C 16066,14550.2 15373,8290.94 15373,8290.94 l -329.2,337.81 c 0,0 524.2,5631.25 589.1,6012.45 65,381.1 160.2,727.7 160.2,727.7 l 506.9,43.3" /></g><path
         id="path186"
         style="fill:#929393;fill-opacity:1;fill-rule:nonzero;stroke:none"
         d="m 15991.1,14660.5 c 98.6,685.9 224,914.3 224,914.3 l -230.6,-19.7 c 0,0 -96.4,-350.7 -162.2,-736.5 -65.7,-385.9 -596.2,-6085.3 -596.2,-6085.3 l 148.1,-152 c 122,1262.4 533.1,5496.6 616.9,6079.2" /><g
         transform="scale(1.03846)"
         id="g188"><path
           id="path190"
           style="fill:#b8b7b7;fill-opacity:1;fill-rule:nonzero;stroke:none"
           d="m 16293.9,13539.4 -6.7,45 c -6.1,40.6 -44,68.6 -84.7,62.5 l -532.6,-79.9 c -40.6,-6.1 -68.6,-44 -62.5,-84.7 l 6.8,-44.9 c 6,-40.7 44,-68.7 84.5,-62.5 l 532.7,79.9 c 40.7,6.1 68.6,44 62.5,84.6" /></g><g
         transform="scale(1.00324)"
         id="g192"><path
           id="path194"
           style="fill:#161514;fill-opacity:1;fill-rule:nonzero;stroke:none"
           d="m 16155.2,14098.9 c 0,0 72.7,-49.3 88,-77.7 15.2,-28.4 56.8,-185.7 17.4,-231.6 -39.2,-45.9 -231.5,-32.7 -235.9,35 -4.4,67.7 113.7,130.8 113.7,130.8 l 16.8,143.5" /></g><g
         transform="scale(1.02407)"
         id="g196"><path
           id="path198"
           style="fill:#b8b7b7;fill-opacity:1;fill-rule:nonzero;stroke:none"
           d="m 16292.3,11886.9 -8.7,45.3 c -7.8,40.9 -47.3,67.8 -88.2,60 l -536.6,-102.1 c -40.9,-7.8 -67.7,-47.3 -59.9,-88.3 l 8.6,-45.3 c 7.8,-40.9 47.2,-67.7 88.2,-60 l 536.5,102.2 c 40.9,7.8 67.8,47.3 60.1,88.2" /></g><path
         id="path200"
         style="fill:#161514;fill-opacity:1;fill-rule:nonzero;stroke:none"
         d="m 15988.4,12229.5 c 0,0 55,-46.5 71.5,-74.4 16.4,-27.8 64.2,-183.9 26.6,-231.4 -37.6,-47.6 -230.9,-42 -237.9,25.7 -7.1,67.8 108.8,135.7 108.8,135.7 l 31,144.4" /><g
         transform="scale(1.0091)"
         id="g202"><path
           id="path204"
           style="fill:#b8b7b7;fill-opacity:1;fill-rule:nonzero;stroke:none"
           d="m 16289.6,10375.6 -11.5,42.5 c -10.3,38.4 -49.8,61.1 -88.2,50.7 l -502.9,-136 c -38.4,-10.4 -61.1,-49.9 -50.7,-88.2 l 11.5,-42.5 c 10.3,-38.4 49.9,-61.1 88.2,-50.7 l 503,136 c 38.3,10.4 61,49.9 50.6,88.2" /></g><path
         id="path206"
         style="fill:#161514;fill-opacity:1;fill-rule:nonzero;stroke:none"
         d="m 15791.1,10473.4 c 0,0 45.4,-39.7 62.8,-64.6 17.4,-25 73.3,-167.9 41.4,-215.1 -31.9,-47.2 -213.4,-55.8 -224.8,7.2 -11.4,63 92.3,134.9 92.3,134.9 l 28.3,137.6" /><g
         transform="scale(1.09442)"
         id="g208"><path
           id="path210"
           style="fill:#929393;fill-opacity:1;fill-rule:nonzero;stroke:none"
           d="m 11020.2,14050.2 4907.3,623.6 372.5,-68.1 v -344.5 l -464.6,64.1 -4815.2,-689 c 0,0 -132.2,104.1 -112.1,176.2 20,72.1 112.1,237.7 112.1,237.7" /></g><g
         transform="scale(1.05353)"
         id="g212"><path
           id="path214"
           style="fill:#4f5052;fill-opacity:1;fill-rule:nonzero;stroke:none"
           d="m 13674.2,7786.08 c 0,0 -262.2,0 -299.6,-174.84 -37.5,-174.74 41.6,-191.45 262.2,-424.47 220.5,-233.03 1560.4,-1668.67 1573,-1689.46 12.4,-20.88 124.8,-145.7 307.9,-124.91 183.1,20.88 676.9,251.15 676.9,251.15 0,0 105.4,67.49 63.8,229.32 -41.5,161.84 -1197.8,1263.84 -1197.8,1263.84 0,0 -778.9,552.81 -937,586.13 -158.1,33.22 -449.4,83.24 -449.4,83.24" /></g><g
         transform="scale(1.00056)"
         id="g216"><path
           id="path218"
           style="fill:#e9eef1;fill-opacity:1;fill-rule:nonzero;stroke:none"
           d="m 15436.7,7319.71 -41.7,-89.75 -130.7,-14.69 c 0,0 9.8,318.43 -152.8,560.89 -162.6,242.46 -609.6,233.67 -609.6,233.67 0,0 -187,222.07 -222,260.05 -35.1,37.98 -267.5,185.3 -289.2,213.18 -21.7,27.99 -46.8,379.79 289.2,592.97 335.9,213.28 680.6,184.1 709.8,181.2 29.2,-3 73.1,-29.28 96.4,-55.57 23.4,-26.28 38,-58.37 38,-58.37 0,0 233.7,-186.79 312.6,-220.47 78.8,-33.68 251.1,-68.76 368,-153.42 116.9,-84.75 281,-220.97 310.6,-250.16 l -4.9,-51.47 c 0,0 -12.1,-186.2 44.2,-376.09 56.1,-189.89 145.4,-416.47 145.4,-416.47 l -162.1,-123.93 -701.2,-231.57" /></g><g
         transform="scale(1.12575)"
         id="g220"><path
           id="path222"
           style="fill:#929393;fill-opacity:1;fill-rule:nonzero;stroke:none"
           d="m 15804.9,13761.1 -62.4,-44.8 -18.1,-7900.52 160.9,-149.33 c 0,0 57.2,144.17 59.7,151.9 2.6,7.82 355,7999.15 272.3,8038.15 -82.7,38.9 -293.2,82.8 -293.2,82.8 l -119.2,-178.2" /></g><path
         id="path224"
         style="fill:#b8b7b7;fill-opacity:1;fill-rule:nonzero;stroke:none"
         d="m 11569.7,15300.8 c -70.2,4.4 -236.8,35.1 -236.8,35.1 l 666.4,-8391.3 624.8,-2268.8 c 0,0 4.4,-320 72.3,-436.2 68,-116.2 190.7,-142.5 190.7,-142.5 l 166.6,-256.5 c 0,0 -24.1,81.1 57,149.1 81.1,67.9 368.3,142.5 390.2,140.3 21.9,-2.2 52.6,-32.9 52.6,-32.9 l -280.6,429.6 -1119.2,10697.5 -584,76.6" /><g
         transform="scale(1.13691)"
         id="g226"><path
           id="path228"
           style="fill:#b8b7b7;fill-opacity:1;fill-rule:nonzero;stroke:none"
           d="m 15690.7,13728.1 v -169.7 l 74.6,-17.9 -36,-7929.7 c 0,0 223.7,-134.92 435.8,0 l 134.9,8440.1 c 0,0 -59.1,-76 -239.1,-65.7 -179.9,10.3 -370.2,215.9 -370.2,215.9 v -141.3 -331.7" /></g><g
         transform="scale(1.13691)"
         id="g230"><path
           id="path232"
           style="fill:#d7d6d4;fill-opacity:1;fill-rule:nonzero;stroke:none"
           d="m 16060.9,13985.2 c -30.8,1.8 30.6,-11.3 0,0 l -92.5,-8434.21 c 61.7,1.58 129.8,17.33 196.7,59.81 l 134.9,8440.1 c 0,0 -59.1,-76 -239.1,-65.7" /></g><path
         id="path234"
         style="fill:#929393;fill-opacity:1;fill-rule:nonzero;stroke:none"
         d="m 12571.1,4868.2 -1238.2,10467.7 666.4,-8391.3 z" /><g
         transform="scale(1.07129)"
         id="g236"><path
           id="path238"
           style="fill:#161514;fill-opacity:1;fill-rule:nonzero;stroke:none"
           d="m 16300,14741 c 0,-23.8 -17.2,-43 -38.4,-43 -21.2,0 -38.3,19.2 -38.3,43 0,23.7 17.1,42.9 38.3,42.9 21.2,0 38.4,-19.2 38.4,-42.9" /></g><path
         id="path240"
         style="fill:#b8b7b7;fill-opacity:1;fill-rule:nonzero;stroke:none"
         d="m 11376.8,15309.6 c 0,0 -16.1,86.2 71.6,116.9 87.7,30.7 328.8,43.8 384.3,32.1 55.6,-11.7 116.9,-71.7 115.5,-72.4 -1.5,-0.6 -295.2,-119 -330.3,-119 -35.1,0 -241.1,42.4 -241.1,42.4" /><g
         transform="scale(1.08438)"
         id="g242"><path
           id="path244"
           style="fill:#d7d6d4;fill-opacity:1;fill-rule:nonzero;stroke:none"
           d="m 15930.7,14809.6 c 8.1,4.1 369.3,17.5 369.3,17.5 v -657.6 h -225.1 v 504 l -144.2,136.1" /></g><g
         transform="scale(1.10009)"
         id="g246"><path
           id="path248"
           style="fill:#6bc62f;fill-opacity:1;fill-rule:nonzero;stroke:none"
           d="m 16109.7,14243.4 h -4.6 v -210.8 l 112.5,-25.3 1.8,1.9 c 0,0.1 20,22.5 40.1,51.9 10,14.6 20,31 27.6,47.3 7.6,16.4 12.8,32.6 12.9,47.2 0,10 -2.5,19.4 -8.8,26.9 -37.6,45.8 -78.3,73 -119.3,83.9 -6.4,1.7 -12.5,2.5 -18.2,2.5 -15.5,0 -27.5,-5.7 -35.4,-11.3 -8,-5.6 -12.1,-11.2 -12.3,-11.5 l -0.9,-1.2 v -1.5 h 4.6 l 3.7,-2.7 v 0.1 c 0.2,0.3 3.9,5.2 10.8,9.8 6.8,4.7 16.6,9.2 29.5,9.2 4.9,0 10.1,-0.6 15.9,-2.2 38.8,-10.3 77.9,-36.2 114.6,-80.8 4.6,-5.6 6.6,-12.7 6.7,-21.2 0,-12.4 -4.7,-27.7 -12,-43.3 -11,-23.5 -27.6,-47.8 -41.4,-66.2 -6.9,-9.2 -13.2,-16.9 -17.7,-22.3 -2.2,-2.7 -4.1,-4.9 -5.3,-6.3 -1.3,-1.5 -1.9,-2.2 -1.9,-2.2 l 3.3,-3 1,4.4 -102.7,23.1 v 203.6 h -4.5 l 3.7,-2.7 -3.7,2.7" /></g><g
         transform="scale(1.08528)"
         id="g250"><path
           id="path252"
           style="fill:#636567;fill-opacity:1;fill-rule:nonzero;stroke:none"
           d="m 16300,14070.3 h -258.6 v 100.9 h 258.6 v -100.9" /></g><g
         transform="scale(1.08528)"
         id="g254"><path
           id="path256"
           style="fill:#161514;fill-opacity:1;fill-rule:nonzero;stroke:none"
           d="m 16300,14070.3 h -258.6 v -66.7 h 258.6 v 66.7" /></g><g
         transform="scale(1.08083)"
         id="g258"><path
           id="path260"
           style="fill:#636567;fill-opacity:1;fill-rule:nonzero;stroke:none"
           d="m 16300,6676.69 h -110 v 7410.81 h 110 V 6676.69" /></g><g
         transform="scale(1.08599)"
         id="g262"><path
           id="path264"
           style="fill:#161514;fill-opacity:1;fill-rule:nonzero;stroke:none"
           d="m 16139.9,6541.38 c -6.8,-4.05 -57.9,-45.76 -57.9,-45.76 l -153.5,107.64 -6.7,-250.28 323,-215.28 h 55.2 v 247.6 l -44.5,21.55 v 88.77 l -115.6,45.76" /></g><g
         transform="scale(1.1509)"
         id="g266"><path
           id="path268"
           style="fill:#161514;fill-opacity:1;fill-rule:nonzero;stroke:none"
           d="m 15938.1,5032.23 c 0,0 10.2,-35.63 66,-35.63 55.9,0 235,73.69 265.4,121.91 30.5,48.31 9,124.51 7.7,130.85 -1.4,6.35 -30.5,26.68 -30.5,26.68 0,0 -255.2,-74.99 -295.9,-119.39 -40.6,-44.48 -12.7,-124.42 -12.7,-124.42" /></g><path
         id="path270"
         style="fill:#808184;fill-opacity:1;fill-rule:nonzero;stroke:none"
         d="m 14090.7,8019.4 c 0,0.1 0.1,0.1 0.1,0.2 0,-0.1 -0.1,-0.1 -0.1,-0.2 m 0.4,1.7 v 0 0" /><g
         transform="scale(1.05322)"
         id="g272"><path
           id="path274"
           style="fill:#414041;fill-opacity:1;fill-rule:nonzero;stroke:none"
           d="m 15481.6,5371.71 c -155.7,0 -251.7,103.4 -266.5,125.81 -0.2,0.57 -0.6,0.95 -0.8,1.42 -12.5,20.79 -1352.9,1456.87 -1573.5,1689.96 v 0 c -220.6,233.09 -299.7,249.81 -262.2,424.6 0,0.29 0.1,0.48 0.1,0.67 0,0.09 0.1,0.09 0.1,0.19 0.1,0.47 0.2,0.95 0.3,1.42 v 0 c 3.4,15.1 8.5,28.87 15.1,41.4 37.2,-63.14 117.7,-125.42 246.6,-261.67 220.6,-233.1 1561,-1669.17 1573.5,-1690.06 11.5,-19.18 108.2,-127.23 267.3,-127.13 13.2,0 26.7,0.66 40.7,2.28 183.1,20.79 677.2,251.13 677.2,251.13 0,0 27,17.47 48.4,55.73 7.9,-13.38 13.2,-24.4 15.4,-32.85 36.7,-142.99 -41.2,-212.3 -60,-226.64 -2.4,-1.89 -3.8,-2.75 -3.8,-2.75 0,0 -0.3,-0.19 -0.8,-0.38 -21.3,-9.87 -497.3,-230.43 -676.4,-250.85 v 0 0 c -14,-1.52 -27.5,-2.28 -40.7,-2.28" /></g><g
         transform="scale(1.01986)"
         id="g276"><path
           id="path278"
           style="fill:#4f5052;fill-opacity:1;fill-rule:nonzero;stroke:none"
           d="m 16281.3,4591.62 c 18.7,-45.79 12.4,-91.78 -14.1,-102.66 -26.6,-10.89 -63.3,17.55 -82,63.44 -18.7,45.79 -12.5,91.77 14.1,102.66 26.6,10.88 63.2,-17.55 82,-63.44" /></g><path
         id="path280"
         style="fill:#929393;fill-opacity:1;fill-rule:nonzero;stroke:none"
         d="m 14717.5,4331.6 v -256.4 l 160.8,-182 -16.1,241.2 -144.7,197.2" /><path
         id="path282"
         style="fill:#161514;fill-opacity:1;fill-rule:nonzero;stroke:none"
         d="m 15210.7,4112.4 162.2,50.5 c 0,0 37.3,-2.2 68,-28.5 30.7,-26.4 97.9,-179.3 105.2,-232.2 7.3,-52.8 -17.5,-94.5 -17.5,-94.5 0,0 -100.9,-55.8 -134.5,-60.4 -33.6,-4.6 -90.6,8.6 -96.4,20.2 -5.9,11.7 -73.7,134.5 -105.6,229.5 -31.8,95 18.6,115.4 18.6,115.4" /><path
         id="path284"
         style="fill:#d7d6d4;fill-opacity:1;fill-rule:nonzero;stroke:none"
         d="m 15173.5,4180.4 184.1,-223.6 v -192.9 c 0,0 -61.4,-21.9 -61.4,-15.4 0,6.6 -191.2,232.5 -191.2,232.5 l 13.7,195 54.8,4.4" /><path
         id="path286"
         style="fill:#4f5052;fill-opacity:1;fill-rule:nonzero;stroke:none"
         d="m 15291,3917.2 c 13.3,-31.3 8.2,-63.4 -11.3,-71.7 -19.5,-8.3 -46.1,10.4 -59.4,41.8 -13.2,31.3 -8.2,63.4 11.3,71.7 19.5,8.2 46.1,-10.5 59.4,-41.8" /><g
         transform="scale(1.09621)"
         id="g288"><path
           id="path290"
           style="fill:#d7d6d4;fill-opacity:1;fill-rule:nonzero;stroke:none"
           d="m 16074.7,4688.68 c 5.3,0 91.9,-1.37 85.3,0 -6.7,1.28 140,-174.69 140,-174.69 l -9.4,-165.3 c 0,0 -49.3,-41.32 -52,-33.29 -2.6,8.02 -91.9,287.99 -91.9,287.99 l -72,85.29" /></g><g
         transform="scale(1.09388)"
         id="g292"><path
           id="path294"
           style="fill:#161514;fill-opacity:1;fill-rule:nonzero;stroke:none"
           d="m 16027.4,4581.11 c 0,0 103,58.96 135,54.21 32,-4.75 97.5,-91.6 117.5,-145.08 20.1,-53.39 18.7,-157.6 9.4,-173.69 -9.4,-16 -91,-57.41 -127.7,-57.41 -36.7,0 -86.1,49.46 -127.5,144.25 -41.4,94.9 -31.9,164.01 -6.7,177.72" /></g><g
         transform="scale(1.08329)"
         id="g296"><path
           id="path298"
           style="fill:#d7d6d4;fill-opacity:1;fill-rule:nonzero;stroke:none"
           d="m 16290.2,4469.79 c 9.8,-27.78 4.3,-55.02 -12.3,-60.83 -16.5,-5.72 -37.7,12 -47.5,39.79 -9.8,27.78 -4.2,55.01 12.3,60.83 16.5,5.81 37.7,-12 47.5,-39.79" /></g><path
         id="path300"
         style="fill:#161514;fill-opacity:1;fill-rule:nonzero;stroke:none"
         d="m 11379.7,13187.6 c 0,4.4 14.6,86.3 14.6,86.3 l 100.7,20.8 85.7,-53.5 c 0,0 50.4,-271.5 32.1,-271.4 -18.3,0.1 -129.3,0 -129.3,0 0,0 -128.6,83.4 -125.7,90.7 2.9,7.3 21.9,127.1 21.9,127.1" /><path
         id="path302"
         style="fill:#b8b7b7;fill-opacity:1;fill-rule:nonzero;stroke:none"
         d="m 11691.1,11107.8 c -13.4,58.7 -41.8,102.3 -63.4,97.4 l -779.9,-156.5 48.7,-212.6 779.9,156.5 c 21.5,4.9 28.1,56.5 14.7,115.2" /><path
         id="path304"
         style="fill:#d9d8d7;fill-opacity:1;fill-rule:nonzero;stroke:none"
         d="m 10911.2,10951.4 c 13.5,-58.7 6.9,-110.3 -14.7,-115.3 -21.6,-4.9 -50,38.7 -63.4,97.4 -13.4,58.7 -6.8,110.3 14.7,115.2 21.6,5 50,-38.6 63.4,-97.3" /><path
         id="path306"
         style="fill:#161514;fill-opacity:1;fill-rule:nonzero;stroke:none"
         d="m 11654.9,11282.3 c 0,0 -53.1,-17.8 -64.8,-33.9 -11.6,-16.1 -18.9,-54.5 -18.9,-54.5 0,0 25.3,1.9 41.8,-24.4 16.6,-26.3 23.5,-184.9 23.5,-184.9 0,0 15,-28.5 36.9,-34.3 22,-5.9 184.2,42.3 184.2,42.3 l -24.9,187.1 c 0,0 -113.1,16.6 -177.8,102.6" /><path
         id="path308"
         style="fill:#b8b7b7;fill-opacity:1;fill-rule:nonzero;stroke:none"
         d="m 11859.3,9313.8 c -16.1,56.7 -46.1,97.8 -66.9,91.9 l -754.4,-192.3 58.3,-205.3 754.4,192.3 c 20.8,5.9 24.7,56.6 8.6,113.4" /><path
         id="path310"
         style="fill:#d9d8d7;fill-opacity:1;fill-rule:nonzero;stroke:none"
         d="m 11104.9,9121.5 c 16.1,-56.7 12.2,-107.5 -8.6,-113.4 -20.8,-5.9 -50.8,35.2 -66.9,91.9 -16.1,56.7 -12.3,107.5 8.6,113.4 20.8,6 50.8,-35.2 66.9,-91.9" /><path
         id="path312"
         style="fill:#161514;fill-opacity:1;fill-rule:nonzero;stroke:none"
         d="m 11803.1,9482.4 c 0,0 -39,-20 -49.6,-36.3 -10.6,-16.3 -15.7,-54.3 -15.7,-54.3 0,0 24.6,3.2 42.1,-21.7 17.5,-24.9 32.2,-179.6 32.2,-179.6 0,0 16.2,-27 37.9,-31.6 21.7,-4.7 177.8,50.7 177.8,50.7 l -33.7,181.6 c 0,0 -123.4,10.5 -191,91.2" /><path
         id="path314"
         style="fill:#b8b7b7;fill-opacity:1;fill-rule:nonzero;stroke:none"
         d="m 11973.5,7692.9 c -14.7,52.3 -42.3,90.2 -61.5,84.8 l -695.2,-176 53.4,-189.3 695.2,176 c 19.2,5.5 22.9,52.2 8.1,104.5" /><path
         id="path316"
         style="fill:#d9d8d7;fill-opacity:1;fill-rule:nonzero;stroke:none"
         d="m 11278.3,7516.9 c 14.7,-52.3 11.1,-99 -8.1,-104.5 -19.2,-5.4 -46.8,32.6 -61.5,84.9 -14.8,52.2 -11.1,99 8.1,104.4 19.2,5.4 46.7,-32.5 61.5,-84.8" /><path
         id="path318"
         style="fill:#161514;fill-opacity:1;fill-rule:nonzero;stroke:none"
         d="m 11922,7848.4 c 0,0 -35.9,-18.5 -45.7,-33.5 -9.8,-15 -14.6,-49.9 -14.6,-49.9 0,0 22.7,2.8 38.7,-20.1 16.1,-23 29.5,-165.5 29.5,-165.5 0,0 14.8,-24.9 34.8,-29.2 20,-4.3 163.9,46.5 163.9,46.5 l -30.8,167.3 c 0,0 -113.6,9.9 -175.8,84.4" /><path
         id="path320"
         style="fill:#252322;fill-opacity:1;fill-rule:nonzero;stroke:none"
         d="m 12148.6,9753.9 c -161.4,642 -442.2,1124.6 -627.2,1078.1 l -224.4,-57.5 75.2,-299.4 c -14.2,-229.7 20.6,-547.7 106.5,-889.6 85.9,-341.8 205.8,-638.5 326.9,-834.1 l 75.8,-301.5 224.5,57.5 c 185,46.6 204.1,604.6 42.7,1246.5" /><path
         id="path322"
         style="fill:#3d3c3e;fill-opacity:1;fill-rule:nonzero;stroke:none"
         d="m 11924.2,9696.4 c 161.3,-641.9 142.2,-1200 -42.8,-1246.5 -185,-46.5 -465.8,436.2 -627.2,1078.1 -161.3,641.9 -142.2,1200 42.8,1246.5 185,46.5 465.8,-436.2 627.2,-1078.1" /><path
         id="path324"
         style="fill:#6b6d6f;fill-opacity:1;fill-rule:nonzero;stroke:none"
         d="m 11629.2,9653.7 c 33.2,-112.8 15.5,-217.4 -39.6,-233.6 -55,-16.2 -126.5,62.2 -159.7,175.1 -33.2,112.8 -15.4,217.4 39.6,233.6 55,16.2 126.6,-62.2 159.7,-175.1" /><path
         id="path326"
         style="fill:#929393;fill-opacity:1;fill-rule:nonzero;stroke:none"
         d="m 11551.7,9620.8 c -17.4,65.4 -47.7,114.1 -67.7,108.8 l -1382.4,-367.9 63,-236.7 1382.4,367.8 c 20,5.3 22.1,62.6 4.7,128" /><path
         id="path328"
         style="fill:#b8b7b7;fill-opacity:1;fill-rule:nonzero;stroke:none"
         d="m 10169.3,9253 c 17.4,-65.4 15.3,-122.7 -4.7,-128 -20,-5.4 -50.3,43.3 -67.7,108.7 -17.4,65.4 -15.3,122.7 4.7,128 20,5.4 50.3,-43.3 67.7,-108.7" /><g
         transform="scale(1.08667)"
         id="g330"><path
           id="path332"
           style="fill:#252322;fill-opacity:1;fill-rule:nonzero;stroke:none"
           d="m 16300,9849.73 h -167.6 v 941.37 h 167.6 v -941.37" /></g><g
         transform="scale(1.08223)"
         id="g334"><path
           id="path336"
           style="fill:#161514;fill-opacity:1;fill-rule:nonzero;stroke:none"
           d="m 16300,9890.21 h -168.4 v 945.29 h 168.4 v -945.29" /></g><path
         id="path338"
         style="fill:#c37140;fill-opacity:1;fill-rule:nonzero;stroke:none"
         d="m 15660.1,7095.9 c -11,19.7 -98.6,131.5 -127.1,149 -28.5,17.6 -129.4,-10.9 -129.4,-10.9 0,0 -201,864.1 144,968.9 404.4,122.7 667.5,-586.1 667.5,-586.1 0,0 -205.7,-330.2 -237.9,-327.3 -32.1,2.9 -317.1,-193.6 -317.1,-193.6" /><g
         transform="scale(1.07947)"
         id="g340"><path
           id="path342"
           style="fill:#929393;fill-opacity:1;fill-rule:nonzero;stroke:none"
           d="m 11766.8,9249.15 4495.9,1102.45 c 0,0 37.3,-72.6 -2.9,-139.5 l -4474.6,-1138.87 -18.4,175.92" /></g><g
         transform="scale(1.02214)"
         id="g344"><path
           id="path346"
           style="fill:#2f1d16;fill-opacity:1;fill-rule:nonzero;stroke:none"
           d="m 15335.8,6749.17 c 0,0 46.5,-232.75 193.1,-276.68 21.5,-6.46 107.2,-135.11 398.9,-92.26 291.7,42.96 372.2,348.59 362.4,518.33 -9.7,169.74 -45.7,211.61 -160.7,219.64 -63.7,4.5 -750.7,-32.39 -759.3,-36.69 -8.5,-4.21 -34.4,-111.44 -34.4,-111.44 v -220.9" /></g><path
         id="path348"
         style="fill:#9d4a30;fill-opacity:1;fill-rule:nonzero;stroke:none"
         d="m 15625.7,7356.9 c 0,0 -36.7,137.9 0,254.1 36.6,116.2 142.5,254.3 158.6,271.8 16.1,17.5 96.5,30.7 143.2,14.6 46.8,-16.1 148.7,-127.1 148.7,-127.1 l -118.2,-359.9 -332.3,-53.5" /><path
         id="path350"
         style="fill:#9d4a30;fill-opacity:1;fill-rule:nonzero;stroke:none"
         d="m 15894.7,7857.8 c 0,0 -116.2,191.6 -109.7,189.4 6.6,-2.2 169.4,-164.5 169.4,-164.5 l -59.7,-24.9" /><g
         transform="scale(1.04976)"
         id="g352"><path
           id="path354"
           style="fill:#c37140;fill-opacity:1;fill-rule:nonzero;stroke:none"
           d="m 15893.5,10035.8 -108.1,227.5 108.1,30.9 c 0,0 -22.9,139.4 -28.6,137.7 -5.7,-1.7 -88.5,-19.5 -88.5,-19.5 0,0 24.5,70 42.4,88.4 18,18.5 74.7,27.9 74.7,27.9 0,0 39.1,22 62.6,24.5 23.5,2.5 71.7,-4.2 71.7,-4.2 0,0 50.2,5.8 69.5,6.8 19.2,1 39.7,-7.3 43,-7.2 3.2,0 33,6.5 52.4,-3.5 19.5,-10 107.3,-157.3 97.6,-218.7 -9.7,-61.4 -150.3,-168.2 -169.5,-249.4 -19.1,-81.19 -54.3,-89.22 -121.8,-79.57 -67.7,9.67 -105.5,38.37 -105.5,38.37" /></g><g
         transform="scale(1.04343)"
         id="g356"><path
           id="path358"
           style="fill:#9d4a30;fill-opacity:1;fill-rule:nonzero;stroke:none"
           d="m 16300,10468.7 c -4.8,13.1 -33.9,105.3 -46.6,145.7 -7.8,-0.7 -13.9,-1.8 -15.2,-1.8 -1.2,0 -4.7,1.1 -9.6,2.4 0,0 64.1,-130.4 71.4,-146.3" /></g><g
         transform="scale(1.03795)"
         id="g360"><path
           id="path362"
           style="fill:#9d4a30;fill-opacity:1;fill-rule:nonzero;stroke:none"
           d="m 16300,10466.9 -29.3,142.4 c 0,0 -11.6,34.5 -20.3,64.1 -19.9,-2 -40.2,-4.4 -40.2,-4.4 0,0 34.2,-53.6 37.1,-58.4 2.9,-4.8 52.7,-143.7 52.7,-143.7" /></g><g
         transform="scale(1.02174)"
         id="g364"><path
           id="path366"
           style="fill:#9d4a30;fill-opacity:1;fill-rule:nonzero;stroke:none"
           d="m 16256.8,10736.1 c -4.2,1.5 -12.4,14.9 -19.7,28.3 -14.5,-28.1 -28,-66.4 -28,-66.4 0,0 85.1,18.3 90.9,20 0,0 -34.3,15 -43.2,18.1" /></g><g
         transform="scale(1.03313)"
         id="g368"><path
           id="path370"
           style="fill:#9d4a30;fill-opacity:1;fill-rule:nonzero;stroke:none"
           d="m 16216.5,10639.5 c 25.5,-34.4 83.5,-207.5 76.5,-178.3 -6.8,29.3 -31.6,157.2 -54.9,187.3 -14.5,18.6 -37.8,47.1 -52.5,66.9 -18.7,-7.3 -36.2,-17.2 -36.2,-17.2 0,0 41.5,-24.3 67.1,-58.7" /></g><path
         id="path372"
         style="fill:#b8b7b7;fill-opacity:1;fill-rule:nonzero;stroke:none"
         d="m 13810,7374.2 c 0,0 -135.7,-43.8 -135.7,-56.9 0,-13.2 135.7,-157.9 135.7,-157.9 l 250.1,59.9 -250.1,154.9" /><path
         id="path374"
         style="fill:#929393;fill-opacity:1;fill-rule:nonzero;stroke:none"
         d="m 14546.5,7239.8 -126.9,-345.4 -532,603.3 v 360.1 c 0,0 365.4,-220.5 388.8,-241 23.3,-20.4 270.1,-377 270.1,-377" /><path
         id="path376"
         style="fill:#c37140;fill-opacity:1;fill-rule:nonzero;stroke:none"
         d="m 13589.9,9666.1 7.6,62.4 c 0,0 104.7,166.6 118.4,244.5 13.7,77.8 -92.8,288.2 -126,305.8 -33.3,17.5 -98.3,-11.7 -98.3,-11.7 0,0 -49.7,-0.8 -77.5,-12.5 -27.7,-11.7 -38.7,-19 -39.4,-21.2 -0.8,-2.1 -51.2,-3.6 -84.1,-18.2 -32.8,-14.6 -40.9,-46.1 -40.9,-46.1 0,0 -46,-2.9 -55.5,-25.5 -9.5,-22.7 -7,-30.5 3.1,-37.9 10,-7.4 9.3,-162.3 19.5,-247.1 10.3,-84.8 54.1,-135.9 64.3,-172.4 10.3,-36.6 14.7,-90.6 14.7,-90.6 l 294.1,70.5" /><path
         id="path378"
         style="fill:#9d4a30;fill-opacity:1;fill-rule:nonzero;stroke:none"
         d="m 13560.3,10091 c 0,5.3 -21.1,124.5 -32.4,188.4 -20.3,-5.1 -36.3,-12.3 -36.3,-12.3 0,0 15.5,-36.7 34.4,-80.8 18.9,-44.2 34.3,-102.6 34.3,-95.3" /><path
         id="path380"
         style="fill:#9d4a30;fill-opacity:1;fill-rule:nonzero;stroke:none"
         d="m 13295.8,10104.1 c 12.4,-44.6 24.1,-113.2 24.8,-116.2 0.7,-2.9 -3.6,112.6 -13.9,154.9 -5.3,22.1 -19.3,45.4 -31.4,63.2 -20.1,-15.7 -25.6,-36.9 -25.6,-36.9 0,0 33.6,-20.4 46.1,-65" /><path
         id="path382"
         style="fill:#9d4a30;fill-opacity:1;fill-rule:nonzero;stroke:none"
         d="m 13409.7,10169.9 c 22,-53.4 46.1,-123.5 46.1,-119.9 0,3.2 -26.3,137.2 -51,200.6 -20.9,-9.3 -29.5,-15.2 -30.1,-17.2 -0.2,-0.4 -2.5,-0.8 -6.3,-1.3 6.3,1.3 19.4,-8.9 41.3,-62.2" /><path
         id="path384"
         style="fill:#c37140;fill-opacity:1;fill-rule:nonzero;stroke:none"
         d="m 13589.9,9666.1 c 0,0 145.7,-498.7 187.4,-643.4 41.6,-144.7 110.3,-357.2 110.3,-357.2 0,0 197.3,-177.6 329.5,-274.1 132.1,-96.6 366.2,-379.5 366.2,-379.5 0,0 348.4,17 536.6,-231.4 188.2,-248.4 152.9,-561.2 152.9,-561.2 0,0 -176.4,-24.2 -274.7,-11.7 0,0 -403.2,-81.8 -599,35.1 -195.8,116.9 -317.9,321.5 -317.9,321.5 0,0 -78.1,59.9 -154.9,134.5 -76.7,74.5 -138.2,227.9 -138.2,227.9 0,0 -188.4,225.8 -284.8,416.5 -96.5,190.8 -118.4,378.5 -118.4,378.5 0,0 -85.3,215 -78.7,379.4 6.6,164.4 -10.4,494.6 -10.4,494.6 0,0 95.7,89.1 115.4,100.1 19.7,10.9 178.7,-29.6 178.7,-29.6" /><path
         id="path386"
         style="fill:#da8257;fill-opacity:1;fill-rule:nonzero;stroke:none"
         d="m 14447.2,7219.4 c -0.2,0.2 -253.4,260.1 -312.6,347.8 -59.2,87.6 -99.6,267.4 -99.6,267.4 v -178.1 c 0,0 -120.4,79.2 -221.1,212.9 25,-51.4 65.9,-125.5 112.4,-170.7 76.8,-74.6 154.9,-134.5 154.9,-134.5 0,0 122.1,-204.6 317.9,-321.5 14.9,-8.9 31.1,-16.6 48.1,-23.3" /><path
         id="path388"
         style="fill:#da8257;fill-opacity:1;fill-rule:nonzero;stroke:none"
         d="m 15197.8,7247.1 c -74.6,-6.6 -168.8,-6.6 -168.8,-6.6 0,0 50.4,59.2 41.6,59.2 -8.8,0 -71.2,-54.9 -210.4,-80.4 -139.2,-25.4 -252.7,-35 -252.7,-35 v 0 c 187.8,-17.8 390.6,23.3 390.6,23.3 98.3,-12.5 274.7,11.7 274.7,11.7 0,0 2,17.6 2.5,47.7 -21.8,-9.1 -48.5,-17.3 -77.5,-19.9" /><path
         id="path390"
         style="fill:#9d4a30;fill-opacity:1;fill-rule:nonzero;stroke:none"
         d="m 14191.6,8064.7 c 0,0 -52.6,-123.4 -29.2,-237.4 0,0 -128.6,170.8 29.2,237.4" /><g
         transform="scale(1.01952)"
         id="g392"><path
           id="path394"
           style="fill:#9d4a30;fill-opacity:1;fill-rule:nonzero;stroke:none"
           d="m 16244.1,9299.27 c 0,0 19.4,-92.4 55.9,-154.78 0,0 -98.9,38.74 -55.9,154.78" /></g><path
         id="path396"
         style="fill:#d7d6d4;fill-opacity:1;fill-rule:nonzero;stroke:none"
         d="m 13272.9,4526.7 c 0,0 -54.8,-86.9 -233.1,-113.2 -178.3,-26.3 -271.8,-17.6 -271.8,-17.6 23.4,-29.2 119.1,-298.8 119.1,-298.8 l 166.6,-256.5 c 0,0 351.5,102.3 357.3,119.8 5.9,17.6 142.5,136.7 142.5,136.7 l -280.6,429.6" /><path
         id="path398"
         style="fill:#161514;fill-opacity:1;fill-rule:nonzero;stroke:none"
         d="m 13532.9,4118.1 c -15.9,2.1 -33.8,3.3 -53.6,2.3 -71.5,-3.7 -337.2,-106.3 -395.9,-163.2 -43.9,-42.5 -38.7,-86.6 -33.3,-106.2 2.3,-6.5 3.6,-10.4 3.6,-10.4 0,0 52.6,-81.1 116.2,-87.7 63.6,-6.5 357.3,114 392.4,173.2 35.1,59.2 32.9,126.1 -8.8,171 -6.1,6.6 -13.2,13.7 -20.6,21" /><path
         id="path400"
         style="fill:#161514;fill-opacity:1;fill-rule:nonzero;stroke:none"
         d="m 11332.9,15335.9 c 0,0 171,-390.2 565.6,-342 394.6,48.2 241.1,372.7 140.3,464.7 l -705.9,-122.7" /><path
         id="path402"
         style="fill:#b8b7b7;fill-opacity:1;fill-rule:nonzero;stroke:none"
         d="m 11463.1,13128.7 c -11.9,59.1 -39.1,103.4 -60.8,99.1 l -783.7,-135.5 42.9,-213.9 783.8,135.5 c 21.7,4.4 29.7,55.8 17.8,114.8" /><path
         id="path404"
         style="fill:#d9d8d7;fill-opacity:1;fill-rule:nonzero;stroke:none"
         d="m 10679.3,12993.3 c 11.9,-59.1 3.9,-110.5 -17.8,-114.9 -21.7,-4.3 -48.9,40 -60.8,99.1 -11.8,59 -3.8,110.4 17.9,114.8 21.7,4.3 48.9,-40 60.7,-99" /><g
         transform="scale(1.08303)"
         id="g406"><path
           id="path408"
           style="fill:#636567;fill-opacity:1;fill-rule:nonzero;stroke:none"
           d="m 16300,6513.39 h -174 v 192.97 h 174 v -192.97" /></g><g
         transform="scale(1.014)"
         id="g410"><path
           id="path412"
           style="fill:#c37140;fill-opacity:1;fill-rule:nonzero;stroke:none"
           d="m 15595.2,7719.92 c 0,0 80,36.79 136.2,28.11 56.2,-8.68 337.2,-276.73 408.6,-354.54 71.3,-77.81 160,-316.37 155.7,-321.4 -4.4,-5.03 -69.3,-74.16 -170.8,-102.26 -101.6,-28.11 -358.9,-75.75 -358.9,-75.75 0,0 -86.5,33.83 -92.9,39.65 -6.5,5.82 -142.7,148.42 -151.4,149.9 -8.7,1.48 -24.5,-1.48 -24.5,-1.48 0,0 23.1,-69.13 27.4,-149.8 4.3,-80.77 -22.3,-150.69 -76.4,-152.76 -54,-2.17 -71.4,99.41 -73.4,166.37 -2.2,67.06 41,134.12 51.8,151.38 10.8,17.26 10.8,17.26 10.8,17.26 0,0 -45.4,123.27 -21.6,248.62 23.7,125.44 134,315.68 179.4,356.7" /></g><g
         transform="scale(1.03188)"
         id="g414"><path
           id="path416"
           style="fill:#da8257;fill-opacity:1;fill-rule:nonzero;stroke:none"
           d="m 16300,9124.58 -122.7,-346.55 35.6,28.49 c 0,0 3.5,-294.41 -10.7,-399.46 -14.2,-105.06 -72.9,-240.05 -72.9,-240.05 l 21.4,10.66 -8.3,-239.76 c 30.5,147.11 24.9,240.05 24.9,240.05 0,0 68,107.08 70.1,332.31 2.1,225.12 0,361.08 0,361.08 0,0 28.8,100.59 62.6,253.23" /></g><path
         id="path418"
         style="fill:#9d4a30;fill-opacity:1;fill-rule:nonzero;stroke:none"
         d="m 14583.3,8011.9 104.7,-90.3 227.3,-63.8 -210.8,104.1 -21.9,44.9 c 0,0 -55.6,14.7 -99.3,5.1" /><path
         id="path420"
         style="fill:#bdc1c4;fill-opacity:1;fill-rule:nonzero;stroke:none"
         d="m 15148.2,8524 c 0,0 184.1,-133.8 265.6,-239.5 0,0 -62,215.1 -265.6,239.5" /><g
         transform="scale(1.02354)"
         id="g422"><path
           id="path424"
           style="fill:#2f1d16;fill-opacity:1;fill-rule:nonzero;stroke:none"
           d="m 15507.7,6463.65 c 0,0 50.3,-84.22 110.9,-100.83 60.7,-16.61 75.9,-4.2 153.1,-19.34 77.3,-15.25 127,20.81 191.7,19.34 64.9,-1.46 128.3,33.03 160.1,81.29 31.7,48.26 86.2,68.39 103.4,108.93 17.1,40.55 10.6,81.39 41.8,111.77 31.3,30.39 13.4,66.24 17.5,128.28 4.1,62.04 5.7,117.24 1.5,158.57 -4.2,41.42 -23.6,69.47 -33.2,101.61 -9.7,32.24 -132.2,53.93 -132.2,53.93 l 45.3,-104.44 c 0,0 -175.5,-201.36 -233.6,-219.83 -57.9,-18.37 -26.7,45.14 -159,-66.63 -132.4,-111.67 -267.3,-252.65 -267.3,-252.65" /></g><path
         id="path426"
         style="fill:#b8b7b7;fill-opacity:1;fill-rule:nonzero;stroke:none"
         d="m 6492.92,15862 c 0,0 245.52,219.2 590.4,251.3 344.89,32.2 624.01,-54 624.01,-54 0,0 -97.91,-144.7 -343.42,-168.1 -245.51,-23.4 -374.11,-40.9 -575.79,-58.4 -201.67,-17.6 -295.2,29.2 -295.2,29.2" /><path
         id="path428"
         style="fill:#636567;fill-opacity:1;fill-rule:nonzero;stroke:none"
         d="m 7713.91,7185.7 -189.61,138.1 c 0,0 -55.9,-14.2 -48.23,-69 l 179.75,-150.2 58.09,81.1" /><path
         id="path430"
         style="fill:#464548;fill-opacity:1;fill-rule:nonzero;stroke:none"
         d="m 7622.58,7102.4 c -7.31,5.9 -48.23,68.7 -48.23,68.7 l 200.34,45.3 c 0,0 36.4,-109.6 37.87,-135.9 1.46,-26.3 0,-54.1 -61.38,-71.6 -61.38,-17.5 -128.6,93.5 -128.6,93.5" /><path
         id="path432"
         style="fill:#929393;fill-opacity:1;fill-rule:nonzero;stroke:none"
         d="m 9037.93,9897.3 465.45,125 c 0,0 89.14,-65.8 43.84,-192.9 l -568.48,-154.9 59.19,222.8" /><path
         id="path434"
         style="fill:#252322;fill-opacity:1;fill-rule:nonzero;stroke:none"
         d="m 9097.74,9746.1 c -109.96,526.1 -413.33,907.9 -677.6,852.7 -264.27,-55.3 -389.35,-526.6 -279.4,-1052.7 88.47,-423.4 302.15,-753.2 519.92,-837.2 l -5.08,-48.1 162.76,32.6 c 264.27,55.2 389.36,526.5 279.4,1052.7" /><path
         id="path436"
         style="fill:#3d3c3e;fill-opacity:1;fill-rule:nonzero;stroke:none"
         d="m 8909.22,9706.7 c 109.96,-526.2 -15.13,-997.5 -279.4,-1052.7 -264.26,-55.3 -567.63,326.5 -677.59,852.7 -109.96,526.1 15.13,997.4 279.39,1052.7 264.27,55.2 567.64,-326.6 677.6,-852.7" /><path
         id="path438"
         style="fill:#929393;fill-opacity:1;fill-rule:nonzero;stroke:none"
         d="m 7999.87,10707.5 c -8.65,5.9 -47.13,53 -62.47,95.7 -15.35,42.8 -17.54,74.6 -31.79,73.4 -14.24,-1 -17.53,-115 0,-180.8 17.54,-65.8 85.2,-162.2 85.2,-162.2 l 9.06,173.9" /><path
         id="path440"
         style="fill:#929393;fill-opacity:1;fill-rule:nonzero;stroke:none"
         d="m 7987.92,7228.1 c -8.65,5.9 -47.13,53 -62.47,95.7 -15.35,42.8 -17.54,74.6 -31.79,73.5 -14.25,-1.1 -17.53,-115.1 0,-180.9 17.54,-65.7 85.2,-162.2 85.2,-162.2 l 9.06,173.9" /><path
         id="path442"
         style="fill:#929393;fill-opacity:1;fill-rule:nonzero;stroke:none"
         d="m 7995.3,7773.2 c -8.65,5.9 -47.13,53 -62.47,95.7 -15.35,42.8 -17.54,74.6 -31.79,73.5 -14.25,-1.1 -17.54,-115.1 0,-180.9 17.54,-65.7 85.2,-162.2 85.2,-162.2 l 9.06,173.9" /><path
         id="path444"
         style="fill:#929393;fill-opacity:1;fill-rule:nonzero;stroke:none"
         d="m 7987.92,8306.9 c -8.65,5.9 -47.13,53 -62.47,95.7 -15.35,42.8 -17.54,74.6 -31.79,73.5 -14.25,-1.1 -17.53,-115.1 0,-180.9 17.54,-65.7 85.2,-162.2 85.2,-162.2 l 9.06,173.9" /><path
         id="path446"
         style="fill:#929393;fill-opacity:1;fill-rule:nonzero;stroke:none"
         d="m 8008.75,8870 c -8.65,5.8 -47.13,53 -62.48,95.7 -15.34,42.7 -17.53,74.5 -31.78,73.4 -14.25,-1.1 -17.54,-115.1 0,-180.8 17.53,-65.8 85.19,-162.2 85.19,-162.2 l 9.07,173.9" /><path
         id="path448"
         style="fill:#929393;fill-opacity:1;fill-rule:nonzero;stroke:none"
         d="m 8008.75,9437.5 c -8.65,5.8 -47.13,53 -62.48,95.7 -15.34,42.8 -17.53,74.5 -31.78,73.4 -14.25,-1.1 -17.54,-115 0,-180.8 17.53,-65.8 85.19,-162.2 85.19,-162.2 l 9.07,173.9" /><path
         id="path450"
         style="fill:#929393;fill-opacity:1;fill-rule:nonzero;stroke:none"
         d="m 7999.87,10089 c -8.65,5.9 -47.13,53 -62.47,95.7 -15.35,42.8 -17.54,74.6 -31.79,73.5 -14.24,-1.1 -17.53,-115.1 0,-180.9 17.54,-65.7 85.2,-162.2 85.2,-162.2 l 9.06,173.9" /><path
         id="path452"
         style="fill:#929393;fill-opacity:1;fill-rule:nonzero;stroke:none"
         d="m 7999.87,11330.5 c -8.65,5.9 -47.13,53 -62.47,95.7 -15.35,42.8 -17.54,74.5 -31.79,73.5 -14.24,-1.1 -17.53,-115.1 0,-180.9 17.54,-65.8 85.2,-162.2 85.2,-162.2 l 9.06,173.9" /><path
         id="path454"
         style="fill:#929393;fill-opacity:1;fill-rule:nonzero;stroke:none"
         d="m 8009.46,11983.7 c -8.65,5.9 -47.13,53 -62.47,95.7 -15.35,42.8 -17.54,74.6 -31.79,73.5 -14.25,-1.1 -17.53,-115.1 0,-180.9 17.54,-65.7 85.2,-162.2 85.2,-162.2 l 9.06,173.9" /><path
         id="path456"
         style="fill:#929393;fill-opacity:1;fill-rule:nonzero;stroke:none"
         d="m 8009.46,12664.5 c -8.65,5.8 -47.13,52.9 -62.47,95.7 -15.35,42.7 -17.54,74.5 -31.79,73.4 -14.25,-1.1 -17.53,-115.1 0,-180.8 17.54,-65.8 85.2,-162.2 85.2,-162.2 l 9.06,173.9" /><path
         id="path458"
         style="fill:#929393;fill-opacity:1;fill-rule:nonzero;stroke:none"
         d="m 8009.46,13346.9 c -8.65,5.9 -47.13,53 -62.47,95.8 -15.35,42.7 -17.54,74.5 -31.79,73.4 -14.25,-1.1 -17.53,-115.1 0,-180.9 17.54,-65.7 85.2,-162.2 85.2,-162.2 l 9.06,173.9" /><path
         id="path460"
         style="fill:#929393;fill-opacity:1;fill-rule:nonzero;stroke:none"
         d="m 7999.73,14073.9 c -8.88,5.5 -49.23,51 -66.29,93.1 -17.06,42.1 -20.53,73.8 -34.73,72.1 -14.19,-1.7 -12.87,-115.7 7.31,-180.7 20.18,-65 91.69,-158.6 91.69,-158.6 l 2.02,174.1" /><path
         id="path462"
         style="fill:#929393;fill-opacity:1;fill-rule:nonzero;stroke:none"
         d="m 8006.62,14794.8 c -8.88,5.5 -49.24,51 -66.3,93.1 -17.06,42.1 -20.53,73.8 -34.72,72.1 -14.2,-1.7 -12.87,-115.7 7.31,-180.7 20.18,-65 91.68,-158.6 91.68,-158.6 l 2.03,174.1" /><path
         id="path464"
         style="fill:#929393;fill-opacity:1;fill-rule:nonzero;stroke:none"
         d="m 6199.18,14871.2 -3884.36,-587.5 266.41,-507.4 3771.4,619.2 -153.45,475.7" /><path
         id="path466"
         style="fill:#b8b7b7;fill-opacity:1;fill-rule:nonzero;stroke:none"
         d="m 6773.51,15598.9 c 0,0 -113.99,-179.7 -175.37,-526.1 -61.37,-346.3 -762.84,-6681.4 -762.84,-6681.4 l -333.2,341.9 c 0,0 530.49,5699.4 596.25,6085.3 65.76,385.8 162.21,736.5 162.21,736.5 l 512.95,43.8" /><path
         id="path468"
         style="fill:#929393;fill-opacity:1;fill-rule:nonzero;stroke:none"
         d="m 6267.14,14660.5 c 98.64,685.9 223.97,914.3 223.97,914.3 l -230.55,-19.7 c 0,0 -96.45,-350.7 -162.21,-736.5 -65.76,-385.9 -596.25,-6085.3 -596.25,-6085.3 l 148.16,-152 c 121.96,1262.4 533.09,5496.6 616.88,6079.2" /><path
         id="path470"
         style="fill:#161514;fill-opacity:1;fill-rule:nonzero;stroke:none"
         d="m 8161.83,16008.1 -46.77,137.4 v 61.4 l 564.1,46.7 c 0,0 130.96,-131 128.6,-278.9 -2.37,-147.9 -116.91,-253 -271.82,-253 -154.91,0 -309.81,26.3 -324.43,70.1 -14.61,43.9 -49.68,216.3 -49.68,216.3" /><path
         id="path472"
         style="fill:#b8b7b7;fill-opacity:1;fill-rule:nonzero;stroke:none"
         d="m 1652.81,15309.6 c 0,0 -16.07,86.2 71.61,116.9 87.69,30.7 328.81,43.8 384.35,32.1 55.53,-11.7 116.91,-71.7 115.45,-72.4 -1.46,-0.6 -295.2,-119 -330.28,-119 -35.07,0 -241.13,42.4 -241.13,42.4" /><path
         id="path474"
         style="fill:#929393;fill-opacity:1;fill-rule:nonzero;stroke:none"
         d="m 2336.74,15376.8 5370.59,682.5 407.73,-74.6 v -377 l -508.56,70.1 -5269.76,-754 c 0,0 -144.67,114 -122.75,192.9 21.92,78.9 122.75,260.1 122.75,260.1" /><path
         id="path476"
         style="fill:#929393;fill-opacity:1;fill-rule:nonzero;stroke:none"
         d="m 8079.99,6333.7 v -181.2 c 0,0 119.83,-119.8 198.75,-144.6 78.91,-24.9 227.97,7.3 223.59,14.6 -4.38,7.3 -146.14,160.7 -232.36,235.2 -86.22,74.6 -189.98,76 -189.98,76" /><path
         id="path478"
         style="fill:#d7d6d4;fill-opacity:1;fill-rule:nonzero;stroke:none"
         d="m 8654.31,6379 320.05,-306.8 -355.12,-280.6 -403.34,372.6 -2126.32,1367.9 c 0,0 206.06,394.5 232.36,372.6 26.31,-21.9 1490.92,-986.4 1490.92,-986.4 L 8654.31,6379" /><path
         id="path480"
         style="fill:#b8b7b7;fill-opacity:1;fill-rule:nonzero;stroke:none"
         d="m 7019.02,5833.2 c 21.93,-15.3 89.88,-120.5 164.41,-114 74.53,6.6 54.8,249.9 54.8,249.9 l -219.21,-135.9" /><path
         id="path482"
         style="fill:#929393;fill-opacity:1;fill-rule:nonzero;stroke:none"
         d="m 8068.3,15491.5 -70.15,-50.4 -20.46,-8894 181.21,-168.1 c 0,0 64.31,162.3 67.23,171 2.92,8.8 399.65,9005.1 306.51,9048.9 -93.15,43.9 -330.15,93.2 -330.15,93.2 l -134.19,-200.6" /><path
         id="path484"
         style="fill:#161514;fill-opacity:1;fill-rule:nonzero;stroke:none"
         d="m 8173.02,15622.1 h -174.87 v -181 l 116.91,-26.3 c 0,0 119.84,134.4 78.92,184.1 -6.9,8.4 -13.91,16 -20.96,23.2" /><path
         id="path486"
         style="fill:#b8b7b7;fill-opacity:1;fill-rule:nonzero;stroke:none"
         d="m 8115.06,15607.7 v -192.9 l 84.76,-20.5 L 8158.9,6379 c 0,0 254.29,-153.4 495.41,0 l 153.45,9595.7 c 0,0 -67.23,-86.4 -271.82,-74.7 -204.59,11.7 -420.88,245.5 -420.88,245.5 v -160.8 -377" /><path
         id="path488"
         style="fill:#d7d6d4;fill-opacity:1;fill-rule:nonzero;stroke:none"
         d="m 8535.94,15900 c -35.12,2 34.66,-12.8 0,0 L 8430.72,6311 c 70.26,1.8 147.57,19.7 223.59,68 l 153.45,9595.7 c 0,0 -67.23,-86.4 -271.82,-74.7" /><path
         id="path490"
         style="fill:#b8b7b7;fill-opacity:1;fill-rule:nonzero;stroke:none"
         d="m 7196.64,14060.2 -7.01,46.7 c -6.34,42.1 -45.67,71.2 -87.86,64.9 l -553.14,-83.1 c -42.19,-6.3 -71.25,-45.6 -64.92,-87.8 l 7.01,-46.7 c 6.34,-42.2 45.67,-71.3 87.86,-64.9 l 553.14,83 c 42.19,6.3 71.26,45.7 64.92,87.9" /><path
         id="path492"
         style="fill:#161514;fill-opacity:1;fill-rule:nonzero;stroke:none"
         d="m 6483.49,14144.6 c 0,0 73,-49.4 88.35,-77.9 15.34,-28.5 56.99,-186.4 17.54,-232.4 -39.46,-46 -232.36,-32.9 -236.75,35.1 -4.38,67.9 114.1,131.2 114.1,131.2 l 16.76,144" /><path
         id="path494"
         style="fill:#b8b7b7;fill-opacity:1;fill-rule:nonzero;stroke:none"
         d="m 6960.49,12173.1 -8.84,46.4 c -7.98,41.9 -48.42,69.4 -90.33,61.4 l -549.46,-104.6 c -41.91,-8 -69.42,-48.4 -61.44,-90.3 l 8.83,-46.4 c 7.98,-41.9 48.43,-69.4 90.34,-61.5 l 549.46,104.6 c 41.91,8 69.42,48.5 61.44,90.4" /><path
         id="path496"
         style="fill:#161514;fill-opacity:1;fill-rule:nonzero;stroke:none"
         d="m 6264.43,12229.5 c 0,0 55.03,-46.5 71.48,-74.4 16.45,-27.8 64.24,-183.9 26.61,-231.4 -37.62,-47.6 -230.89,-42 -237.93,25.7 -7.04,67.8 108.87,135.7 108.87,135.7 l 30.97,144.4" /><path
         id="path498"
         style="fill:#b8b7b7;fill-opacity:1;fill-rule:nonzero;stroke:none"
         d="m 6713.95,10470.1 -11.59,42.9 c -10.46,38.7 -50.33,61.6 -89.04,51.1 l -507.47,-137.2 c -38.71,-10.5 -61.61,-50.4 -51.14,-89.1 l 11.59,-42.8 c 10.46,-38.7 50.33,-61.6 89.04,-51.1 l 507.47,137.2 c 38.71,10.4 61.61,50.3 51.14,89" /><path
         id="path500"
         style="fill:#161514;fill-opacity:1;fill-rule:nonzero;stroke:none"
         d="m 6067.11,10473.4 c 0,0 45.38,-39.7 62.78,-64.6 17.41,-25 73.32,-167.9 41.45,-215.1 -31.87,-47.2 -213.4,-55.8 -224.82,7.2 -11.43,63 92.36,134.9 92.36,134.9 l 28.23,137.6" /><path
         id="path502"
         style="fill:#b8b7b7;fill-opacity:1;fill-rule:nonzero;stroke:none"
         d="m 5866.19,8907.2 c 0,0 45.37,-39.7 62.78,-64.6 17.4,-25 73.32,-167.9 41.45,-215.1 -31.88,-47.2 -213.4,-55.8 -224.83,7.2 -11.43,63 92.36,134.9 92.36,134.9 l 28.24,137.6" /><path
         id="path504"
         style="fill:#b8b7b7;fill-opacity:1;fill-rule:nonzero;stroke:none"
         d="m 6513.02,8903.9 -11.58,42.8 c -10.47,38.8 -50.33,61.6 -89.04,51.2 l -507.48,-137.2 c -38.71,-10.5 -61.6,-50.4 -51.14,-89.1 l 11.59,-42.8 c 10.47,-38.7 50.33,-61.6 89.04,-51.2 l 507.48,137.3 c 38.71,10.4 61.6,50.3 51.13,89" /><path
         id="path506"
         style="fill:#252322;fill-opacity:1;fill-rule:nonzero;stroke:none"
         d="m 7201.7,5388.2 90.6,29.7 c 0,0 -10.23,71.2 49.69,60.9 59.92,-10.2 71.61,-153.4 46.76,-159.3 -24.84,-5.8 -56.99,24.9 -62.84,23.4 -5.84,-1.4 -124.21,-38 -124.21,-38 v 83.3" /><path
         id="path508"
         style="fill:#929393;fill-opacity:1;fill-rule:nonzero;stroke:none"
         d="m 6890.58,5300.6 321.79,108.1 c 0,0 62.4,-32.2 47.78,-115.5 l -359.5,-125.6 -10.07,133" /><path
         id="path510"
         style="fill:#b8b7b7;fill-opacity:1;fill-rule:nonzero;stroke:none"
         d="m 5116.3,4303.1 c 0,0 -35.74,35.9 -42.38,46.1 -6.64,10.1 -159.29,-65.8 -159.29,-65.8 l 344.15,-475.7 c 0,0 192.91,85.5 206.06,85.5 13.15,0 -12.99,166.6 -70.15,282.8 -57.15,116.2 -278.39,127.1 -278.39,127.1" /><path
         id="path512"
         style="fill:#d7d6d4;fill-opacity:1;fill-rule:nonzero;stroke:none"
         d="m 8154.52,5274.2 -10.23,-225 -1213.78,-457.4 c 0,0 -203.76,280.6 -121.93,315.6 81.84,35.1 1212.22,426.8 1212.22,426.8 l 133.72,-60" /><path
         id="path514"
         style="fill:#d7d6d4;fill-opacity:1;fill-rule:nonzero;stroke:none"
         d="m 6850.23,4862.1 c 6.58,-4.4 164.41,-309.1 157.83,-309.1 -6.57,0 -317.32,-166.6 -317.32,-166.6 l -171.51,35.1 -1364.93,-528.3 -16.08,241.2 322.97,255.7 1226.95,330 76.6,111.3 85.49,30.7" /><path
         id="path516"
         style="fill:#4f5052;fill-opacity:1;fill-rule:nonzero;stroke:none"
         d="m 7266.55,4842.4 c 18.37,-47.3 9,-95.1 -20.92,-106.7 -29.92,-11.6 -69.07,17.3 -87.44,64.6 -18.36,47.4 -9,95.1 20.92,106.7 29.92,11.7 69.07,-17.3 87.44,-64.6" /><path
         id="path518"
         style="fill:#b8b7b7;fill-opacity:1;fill-rule:nonzero;stroke:none"
         d="m 5453.88,6826.2 c 17.54,-21.9 188.52,-727.7 188.52,-727.7 0,0 683.93,-758.5 697.08,-762.9 13.15,-4.4 188.52,-21.9 214.82,-21.9 26.31,0 385.81,-249.9 385.81,-249.9 l 1037.58,377 176.83,-166.6 -3016.3,-1139.8 -144.68,197.2 1249.49,469.1 -2157.01,2573.5 -21.92,531.4 83.3,43 30.69,298.1 c 0,0 363.89,223.6 447.18,144.7 83.3,-78.9 311.28,-561.2 324.43,-587.5 13.15,-26.3 504.18,-977.7 504.18,-977.7" /><path
         id="path520"
         style="fill:#929393;fill-opacity:1;fill-rule:nonzero;stroke:none"
         d="m 6339.48,5335.6 -201.67,-30.7 276.2,-201.6 274.13,-383.2 76.6,111.3 c 0,0 104.66,281.7 41.04,324.5 -63.62,42.8 -299.53,197.2 -323.73,249.9 -24.2,52.6 -39.38,-82.9 -39.38,-82.9 l -103.19,12.7" /><path
         id="path522"
         style="fill:#d7d6d4;fill-opacity:1;fill-rule:nonzero;stroke:none"
         d="m 5149.47,7030.8 260.57,-967.4 232.36,35.1 -173.54,683.9 -319.39,248.4" /><path
         id="path524"
         style="fill:#d7d6d4;fill-opacity:1;fill-rule:nonzero;stroke:none"
         d="m 7038.02,4903 105.22,60 c 0,0 131.53,-292.3 127.14,-292.3 -4.38,0 -111.06,-58.5 -111.06,-58.5 l -121.3,290.8" /><path
         id="path526"
         style="fill:#929393;fill-opacity:1;fill-rule:nonzero;stroke:none"
         d="M 4958.9,7234.6 4822.56,6778 5274.13,6247.5 5015.46,7317.3 4958.9,7234.6" /><path
         id="path528"
         style="fill:#4f5052;fill-opacity:1;fill-rule:nonzero;stroke:none"
         d="m 6718.71,5083.5 -27.97,-85 301.98,-469.6 c 0,0 166.6,76.8 166.6,83.3 0,6.6 53.05,28.8 53.05,28.8 l -270.59,515.3 -223.07,-72.8" /><path
         id="path530"
         style="fill:#4f5052;fill-opacity:1;fill-rule:nonzero;stroke:none"
         d="m 3932.58,8303.7 c 0,0 151.46,-166.6 300.78,-163.7 149.32,2.9 456.21,102.3 456.21,102.3 l -125.67,268.9 -631.32,-207.5" /><path
         id="path532"
         style="fill:#b8b7b7;fill-opacity:1;fill-rule:nonzero;stroke:none"
         d="m 6602.53,5831 359.5,-662 -306.89,-192.9 -596.25,973.3 -1236.33,1350.3 c 0,0 377.04,157.8 451.57,131.5 74.53,-26.3 1328.4,-1600.2 1328.4,-1600.2" /><path
         id="path534"
         style="fill:#4f5052;fill-opacity:1;fill-rule:nonzero;stroke:none"
         d="m 4682.27,8202.9 c 0,0 -276.2,0 -315.66,-184.2 -39.46,-184.1 43.84,-201.7 276.2,-447.2 232.36,-245.5 1644.06,-1758 1657.21,-1779.9 13.15,-22 131.52,-153.5 324.43,-131.6 192.9,22 713.15,264.6 713.15,264.6 0,0 111.07,71.1 67.23,241.6 -43.85,170.5 -1261.86,1331.5 -1261.86,1331.5 0,0 -820.61,582.4 -987.22,617.5 -166.59,35 -473.48,87.7 -473.48,87.7" /><path
         id="path536"
         style="fill:#808184;fill-opacity:1;fill-rule:nonzero;stroke:none"
         d="m 4366.76,8019.4 c 0.01,0.1 0.03,0.1 0.04,0.2 -0.01,-0.1 -0.03,-0.1 -0.04,-0.2 m 0.37,1.7 v 0 0" /><path
         id="path538"
         style="fill:#414041;fill-opacity:1;fill-rule:nonzero;stroke:none"
         d="m 6581.53,5657.6 c -163.86,0 -264.95,108.9 -280.6,132.5 -0.35,0.6 -0.65,1 -0.91,1.5 -13.15,21.9 -1424.85,1534.4 -1657.21,1779.9 v 0 c -232.36,245.5 -315.66,263.1 -276.2,447.2 0.05,0.3 0.1,0.5 0.15,0.7 0.01,0.1 0.03,0.1 0.04,0.2 0.11,0.5 0.21,1 0.33,1.5 v 0 c 3.62,15.9 9.04,30.4 15.87,43.6 39.23,-66.5 124.03,-132.1 259.81,-275.6 232.36,-245.5 1644.06,-1758 1657.21,-1780 12.15,-20.2 114.04,-134 281.51,-133.9 13.86,0 28.18,0.7 42.92,2.4 192.9,21.9 713.15,264.5 713.15,264.5 0,0 28.58,18.4 51.02,58.7 8.37,-14.1 13.92,-25.7 16.2,-34.6 38.71,-150.6 -43.31,-223.6 -63.07,-238.7 -2.62,-2 -4.15,-2.9 -4.15,-2.9 0,0 -6.91,-3.3 -19.42,-9 -96.13,-44 -523.06,-236.2 -693.73,-255.6 -14.76,-1.6 -29.05,-2.4 -42.92,-2.4" /><path
         id="path540"
         style="fill:#c37140;fill-opacity:1;fill-rule:nonzero;stroke:none"
         d="m 3406.48,8861.9 c -8.77,5.9 73.07,-166.6 52.61,-336.1 -20.46,-169.5 -5.85,-551.4 40.92,-684.9 46.76,-133.5 100.83,-238.7 75.99,-284 -24.85,-45.3 -73.07,-68.7 -157.83,-55.5 -84.76,13.1 -255.74,95 -255.74,95 0,0 -144.68,738.1 -173.91,811.8 -29.23,73.8 -29.23,660.4 -52.61,771.9 -23.38,111.5 49.69,319 49.69,319 0,0 65.76,174.6 429.65,89.1 0,0 70.14,-366.8 73.06,-390.1 2.93,-23.4 -81.83,-336.2 -81.83,-336.2" /><path
         id="path542"
         style="fill:#9d4a30;fill-opacity:1;fill-rule:nonzero;stroke:none"
         d="m 3143.43,8921.9 -191.02,48.5 c 0,0 220.25,-128.9 269.93,-161.1 49.69,-32.1 237.67,-175.7 237.67,-175.7 0,0 -30.15,126 -53.53,228.3 -23.39,102.3 -263.05,60 -263.05,60" /><path
         id="path544"
         style="fill:#c37140;fill-opacity:1;fill-rule:nonzero;stroke:none"
         d="m 4384.14,9783.3 c 0,0 72.34,160.1 188.52,201.7 116.18,41.7 295.93,-43.8 295.93,-43.8 0,0 -35.07,-133.7 -120.56,-146.9 -85.49,-13.2 -363.89,-11 -363.89,-11" /><path
         id="path546"
         style="fill:#252322;fill-opacity:1;fill-rule:nonzero;stroke:none"
         d="m 5309.2,9169.6 c -6.57,6.5 14.1,74.5 14.1,74.5 0,0 -68.9,61.4 -75.48,81.1 -6.57,19.7 -13.15,175.4 -54.8,263 -41.65,87.7 -96.45,197.3 -162.21,254.3 -65.76,57 -162.22,98.7 -162.22,98.7 0,0 -135.9,0 -269.62,-43.9 -133.72,-43.8 -214.83,-114 -214.83,-114 0,0 -24.11,-41.6 -15.34,-103 8.77,-61.4 13.15,-114 13.15,-114 0,0 -65.76,-98.6 -78.91,-118.3 -13.15,-19.8 -168.79,-89.9 -179.75,-85.5 -10.96,4.3 -214.83,92 -344.16,140.3 -129.33,48.2 -363.88,85.4 -363.88,85.4 0,0 -127.14,-63.5 -192.91,-208.2 -65.76,-144.7 -78.91,-458.1 -78.91,-458.1 0,0 170.98,-105.3 252.09,-133.8 81.1,-28.5 241.13,-89.8 263.05,-103 21.92,-13.1 162.28,-183.6 326.29,-244.5 164,-60.9 330.6,23.8 386.13,47.2 55.53,23.4 844.68,610.9 841.76,622.6 -2.92,11.7 96.45,59.2 96.45,59.2" /><path
         id="path548"
         style="fill:#c37140;fill-opacity:1;fill-rule:nonzero;stroke:none"
         d="m 6603.99,7630.8 c 0,0 86.22,-24.2 169.52,15.3 0,0 78.92,0 166.6,85.5 87.68,85.4 173.17,120.5 206.05,201.6 32.89,81.1 21.92,234.6 21.92,234.6 0,0 48.23,76.7 46.04,335.4 -2.19,258.6 0.07,404 0.07,404 l -274.08,14.7 c 0,0 8.77,-129.7 -43.84,-246.8 -52.61,-117.1 -83.3,-182.9 -122.76,-358.3 0,0 -175.37,66.7 -241.13,91.4 -65.76,24.8 -135.91,70.9 -135.91,70.9 0,0 -209.85,-187.1 -213.07,-312.8 -3.21,-125.7 23.09,-315.6 102.01,-415 78.91,-99.4 318.58,-120.5 318.58,-120.5" /><path
         id="path550"
         style="fill:#c37140;fill-opacity:1;fill-rule:nonzero;stroke:none"
         d="m 3669.53,7814.9 c 0,0 173.17,-46.1 306.89,17.5 0,0 7.31,-127.9 33.61,-205.3 26.3,-77.5 30.69,-192.9 30.69,-192.9 0,0 113.99,26.3 191.44,78.9 77.45,52.6 277.66,92 277.66,92 0,0 132.99,185.6 282.05,299.6 l -5.85,109.6 c 0,0 130.8,68 192.18,72.4 61.38,4.4 78.91,15.3 219.2,-50.4 140.3,-65.8 324.43,-225.8 357.31,-311.3 32.88,-85.5 48.23,-390.2 48.23,-390.2 l -54.07,-115.5 c 0,0 -205.15,-44.6 -341.88,-32.5 0,0 -206.87,-137 -384.43,-167.7 0,0 -81.11,-70.1 -230.17,-103 -149.06,-32.9 -320.04,-26.3 -425.26,-46 -105.22,-19.8 -265.24,-31 -320.04,-9 -54.81,22.1 -81.11,46.2 -81.11,46.2 0,0 -92.07,32.9 -146.87,265.3 -54.8,232.3 50.42,482.2 50.42,642.3" /><path
         id="path552"
         style="fill:#e9eef1;fill-opacity:1;fill-rule:nonzero;stroke:none"
         d="m 5721.31,7323.8 -41.65,-89.8 -130.79,-14.7 c 0,0 -23.44,137.4 -186.16,380 -162.73,242.6 -570.84,305.4 -570.84,305.4 0,0 -192.9,331.8 -227.97,369.8 -35.08,38 -267.62,185.4 -289.36,213.3 -21.74,28 -46.76,380 289.36,593.3 336.11,213.4 681,184.2 710.23,181.3 29.23,-3 73.07,-29.3 96.45,-55.6 23.38,-26.3 38,-58.4 38,-58.4 0,0 233.82,-186.9 312.73,-220.6 78.92,-33.7 251.36,-68.8 368.27,-153.5 116.91,-84.8 233,-219.3 262.64,-248.5 29.64,-29.2 180.16,-117.6 180.16,-117.6 0,0 -31.48,-157.1 -16.82,-361 14.21,-197.6 88.43,-416.4 88.43,-416.4 l -112.88,-95.8 -769.8,-211.2" /><path
         id="path554"
         style="fill:#c37140;fill-opacity:1;fill-rule:nonzero;stroke:none"
         d="m 5936.14,7095.9 c -10.96,19.7 -98.65,131.5 -127.14,149 -28.5,17.6 -129.34,-10.9 -129.34,-10.9 0,0 -201.01,864.1 143.95,968.9 404.44,122.7 667.5,-586.1 667.5,-586.1 0,0 -205.7,-330.2 -237.85,-327.3 -32.15,2.9 -317.12,-193.6 -317.12,-193.6" /><path
         id="path556"
         style="fill:#9d4a30;fill-opacity:1;fill-rule:nonzero;stroke:none"
         d="m 6170.69,7857.8 c 0,0 -116.18,191.6 -109.61,189.4 6.58,-2.2 169.36,-164.5 169.36,-164.5 l -59.75,-24.9" /><path
         id="path558"
         style="fill:#9d4a30;fill-opacity:1;fill-rule:nonzero;stroke:none"
         d="m 5901.7,7356.9 c 0,0 -36.63,137.9 0,254.1 36.63,116.2 142.58,254.3 158.65,271.8 16.08,17.5 96.46,30.7 143.22,14.6 46.76,-16.1 148.65,-127.1 148.65,-127.1 L 6234,7410.4 5901.7,7356.9" /><path
         id="path560"
         style="fill:#2f1d16;fill-opacity:1;fill-rule:nonzero;stroke:none"
         d="m 5951.48,6898.6 c 0,0 47.49,-237.9 197.29,-282.8 21.92,-6.6 109.6,-138.1 407.72,-94.3 298.13,43.9 380.42,356.3 370.47,529.8 -9.96,173.5 -46.77,216.3 -164.3,224.5 -65.12,4.6 -767.34,-33.1 -776.11,-37.5 -8.76,-4.3 -35.07,-113.9 -35.07,-113.9 v -225.8" /><path
         id="path562"
         style="fill:#b8b7b7;fill-opacity:1;fill-rule:nonzero;stroke:none"
         d="m 1845.72,15300.8 c -70.15,4.4 -236.75,35.1 -236.75,35.1 l 666.4,-8391.3 624.74,-2268.8 c 0,0 4.38,-320 72.34,-436.2 67.95,-116.2 190.71,-142.5 190.71,-142.5 l 166.59,-256.5 c 0,0 -24.11,81.1 57,149.1 81.11,67.9 368.27,142.5 390.19,140.3 21.92,-2.2 52.61,-32.9 52.61,-32.9 l -280.59,429.6 -1119.22,10697.5 -584.02,76.6" /><path
         id="path564"
         style="fill:#161514;fill-opacity:1;fill-rule:nonzero;stroke:none"
         d="m 7738.03,15791.8 c 0,-25.4 -18.41,-46 -41.11,-46 -22.7,0 -41.1,20.6 -41.1,46 0,25.5 18.4,46.1 41.1,46.1 22.7,0 41.11,-20.6 41.11,-46.1" /><path
         id="path566"
         style="fill:#929393;fill-opacity:1;fill-rule:nonzero;stroke:none"
         d="M 2847.12,4868.2 1608.97,15335.9 2275.37,6944.6 Z" /><path
         id="path568"
         style="fill:#b8b7b7;fill-opacity:1;fill-rule:nonzero;stroke:none"
         d="m 1967.13,11107.8 c -13.44,58.7 -41.83,102.3 -63.41,97.4 l -779.85,-156.5 48.67,-212.6 779.86,156.5 c 21.57,4.9 28.17,56.5 14.73,115.2" /><path
         id="path570"
         style="fill:#d9d8d7;fill-opacity:1;fill-rule:nonzero;stroke:none"
         d="m 1187.28,10951.4 c 13.44,-58.7 6.84,-110.3 -14.74,-115.3 -21.58,-4.9 -49.97,38.7 -63.41,97.4 -13.44,58.7 -6.84,110.3 14.74,115.2 21.57,5 49.96,-38.6 63.41,-97.3" /><path
         id="path572"
         style="fill:#161514;fill-opacity:1;fill-rule:nonzero;stroke:none"
         d="m 1930.89,11282.3 c 0,0 -53.02,-17.8 -64.71,-33.9 -11.69,-16.1 -18.91,-54.5 -18.91,-54.5 0,0 25.26,1.9 41.81,-24.4 16.55,-26.3 23.43,-184.9 23.43,-184.9 0,0 15.05,-28.5 36.97,-34.3 21.92,-5.9 184.13,42.3 184.13,42.3 l -24.84,187.1 c 0,0 -113.17,16.6 -177.88,102.6" /><path
         id="path574"
         style="fill:#b8b7b7;fill-opacity:1;fill-rule:nonzero;stroke:none"
         d="m 2135.31,9313.8 c -16.1,56.7 -46.05,97.8 -66.89,91.9 l -754.4,-192.3 58.32,-205.3 754.39,192.3 c 20.85,5.9 24.69,56.6 8.58,113.4" /><path
         id="path576"
         style="fill:#d9d8d7;fill-opacity:1;fill-rule:nonzero;stroke:none"
         d="m 1380.92,9121.5 c 16.1,-56.7 12.26,-107.5 -8.58,-113.4 -20.85,-5.9 -50.8,35.2 -66.9,91.9 -16.1,56.7 -12.26,107.5 8.58,113.4 20.85,6 50.8,-35.2 66.9,-91.9" /><path
         id="path578"
         style="fill:#161514;fill-opacity:1;fill-rule:nonzero;stroke:none"
         d="m 2079.17,9482.4 c 0,0 -39.02,-20 -49.63,-36.3 -10.62,-16.3 -15.73,-54.3 -15.73,-54.3 0,0 24.59,3.2 42.1,-21.7 17.51,-24.9 32.24,-179.6 32.24,-179.6 0,0 16.14,-27 37.86,-31.6 21.73,-4.7 177.85,50.7 177.85,50.7 l -33.73,181.6 c 0,0 -123.36,10.5 -190.96,91.2" /><path
         id="path580"
         style="fill:#b8b7b7;fill-opacity:1;fill-rule:nonzero;stroke:none"
         d="m 2249.55,7692.9 c -14.75,52.3 -42.28,90.2 -61.49,84.8 l -695.26,-176 53.41,-189.3 695.26,176 c 19.21,5.5 22.83,52.2 8.08,104.5" /><path
         id="path582"
         style="fill:#d9d8d7;fill-opacity:1;fill-rule:nonzero;stroke:none"
         d="m 1554.29,7516.9 c 14.75,-52.3 11.13,-99 -8.08,-104.5 -19.21,-5.4 -46.74,32.6 -61.49,84.9 -14.75,52.2 -11.13,99 8.08,104.4 19.21,5.4 46.74,-32.5 61.49,-84.8" /><path
         id="path584"
         style="fill:#161514;fill-opacity:1;fill-rule:nonzero;stroke:none"
         d="m 2198.08,7848.4 c 0,0 -35.97,-18.5 -45.78,-33.5 -9.8,-15 -14.57,-49.9 -14.57,-49.9 0,0 22.66,2.8 38.75,-20.1 16.09,-23 29.43,-165.5 29.43,-165.5 0,0 14.83,-24.9 34.83,-29.2 20.01,-4.3 163.92,46.5 163.92,46.5 l -30.8,167.3 c 0,0 -113.63,9.9 -175.78,84.4" /><path
         id="path586"
         style="fill:#d7d6d4;fill-opacity:1;fill-rule:nonzero;stroke:none"
         d="m 3548.96,4526.7 c 0,0 -54.8,-86.9 -233.09,-113.2 -178.29,-26.3 -271.82,-17.6 -271.82,-17.6 23.39,-29.2 119.11,-298.8 119.11,-298.8 l 166.59,-256.5 c 0,0 351.47,102.3 357.31,119.8 5.85,17.6 142.49,136.7 142.49,136.7 l -280.59,429.6" /><path
         id="path588"
         style="fill:#252322;fill-opacity:1;fill-rule:nonzero;stroke:none"
         d="m 7984.76,9104.5 h -182.19 v 1023 h 182.19 v -1023" /><path
         id="path590"
         style="fill:#636567;fill-opacity:1;fill-rule:nonzero;stroke:none"
         d="m 7893.66,7216.4 h -118.97 v 8009.9 h 118.97 V 7216.4" /><path
         id="path592"
         style="fill:#161514;fill-opacity:1;fill-rule:nonzero;stroke:none"
         d="m 7916.31,9104.5 h -182.19 v 1023 h 182.19 v -1023" /><path
         id="path594"
         style="fill:#161514;fill-opacity:1;fill-rule:nonzero;stroke:none"
         d="m 7803.79,7103.9 c -7.31,-4.4 -62.84,-49.7 -62.84,-49.7 l -166.6,116.9 -7.31,-271.8 350.73,-233.8 h 59.92 v 268.9 l -48.22,23.4 v 96.4 l -125.68,49.7" /><path
         id="path596"
         style="fill:#161514;fill-opacity:1;fill-rule:nonzero;stroke:none"
         d="m 8619.24,5791.6 c 0,0 11.69,-41 75.99,-41 64.3,0 270.36,84.8 305.43,140.3 35.08,55.6 10.23,143.3 8.77,150.6 -1.46,7.3 -35.07,30.7 -35.07,30.7 0,0 -293.74,-86.3 -340.51,-137.4 -46.76,-51.2 -14.61,-143.2 -14.61,-143.2" /><path
         id="path598"
         style="fill:#4f5052;fill-opacity:1;fill-rule:nonzero;stroke:none"
         d="m 6880.64,4682.8 c 19.12,-46.7 12.67,-93.6 -14.4,-104.7 -27.07,-11.1 -64.51,17.9 -83.62,64.7 -19.12,46.7 -12.67,93.6 14.4,104.7 27.07,11.1 64.5,-17.9 83.62,-64.7" /><path
         id="path600"
         style="fill:#161514;fill-opacity:1;fill-rule:nonzero;stroke:none"
         d="m 5486.76,4112.4 162.21,50.5 c 0,0 37.27,-2.2 67.96,-28.5 30.69,-26.4 97.91,-179.3 105.22,-232.2 7.31,-52.8 -17.54,-94.5 -17.54,-94.5 0,0 -100.83,-55.8 -134.45,-60.4 -33.61,-4.6 -90.6,8.6 -96.45,20.2 -5.84,11.7 -73.69,134.5 -105.53,229.5 -31.84,95 18.58,115.4 18.58,115.4" /><path
         id="path602"
         style="fill:#929393;fill-opacity:1;fill-rule:nonzero;stroke:none"
         d="m 4993.54,4331.6 v -256.4 l 160.76,-182 -16.08,241.2 -144.68,197.2" /><path
         id="path604"
         style="fill:#929393;fill-opacity:1;fill-rule:nonzero;stroke:none"
         d="m 3163.59,8210.1 4661.63,1308 c 0,0 41.89,-77.5 0,-150.5 l -4643.16,-1334 -18.47,176.5" /><path
         id="path606"
         style="fill:#d7d6d4;fill-opacity:1;fill-rule:nonzero;stroke:none"
         d="m 5449.49,4180.4 184.14,-223.6 v -192.9 c 0,0 -61.38,-21.9 -61.38,-15.4 0,6.6 -191.23,232.5 -191.23,232.5 l 13.67,195 54.8,4.4" /><path
         id="path608"
         style="fill:#4f5052;fill-opacity:1;fill-rule:nonzero;stroke:none"
         d="m 5567.01,3917.2 c 13.29,-31.3 8.26,-63.4 -11.25,-71.7 -19.5,-8.3 -46.09,10.4 -59.38,41.8 -13.29,31.3 -8.25,63.4 11.25,71.7 19.51,8.2 46.09,-10.5 59.38,-41.8" /><path
         id="path610"
         style="fill:#d7d6d4;fill-opacity:1;fill-rule:nonzero;stroke:none"
         d="m 7897.32,5139.8 c 5.84,0 100.83,-1.5 93.52,0 -7.3,1.4 153.45,-191.5 153.45,-191.5 l -10.23,-181.2 c 0,0 -54.07,-45.3 -56.99,-36.5 -2.93,8.8 -100.84,315.7 -100.84,315.7 l -78.91,93.5" /><path
         id="path612"
         style="fill:#161514;fill-opacity:1;fill-rule:nonzero;stroke:none"
         d="m 7808.17,5011.2 c 0,0 112.62,64.5 147.65,59.3 35.02,-5.2 106.63,-100.2 128.55,-158.7 21.92,-58.4 20.46,-172.4 10.23,-190 -10.23,-17.5 -99.51,-62.8 -139.63,-62.8 -40.12,0 -94.19,54.1 -139.49,157.8 -45.31,103.8 -34.93,179.4 -7.31,194.4" /><path
         id="path614"
         style="fill:#d7d6d4;fill-opacity:1;fill-rule:nonzero;stroke:none"
         d="m 7923.14,4842.1 c 10.57,-30.1 4.63,-59.6 -13.27,-65.9 -17.89,-6.2 -40.97,13 -51.53,43.1 -10.57,30.1 -4.63,59.6 13.27,65.9 17.89,6.3 40.97,-13 51.53,-43.1" /><path
         id="path616"
         style="fill:#161514;fill-opacity:1;fill-rule:nonzero;stroke:none"
         d="m 1655.74,13187.6 c 0,4.4 14.61,86.3 14.61,86.3 l 100.73,20.8 85.66,-53.5 c 0,0 50.38,-271.5 32.1,-271.4 -18.28,0.1 -129.34,0 -129.34,0 0,0 -128.61,83.4 -125.68,90.7 2.92,7.3 21.92,127.1 21.92,127.1" /><path
         id="path618"
         style="fill:#252322;fill-opacity:1;fill-rule:nonzero;stroke:none"
         d="m 2621.58,7960.4 c -173.41,605.7 -455.5,1056.2 -630.06,1006.3 l -211.78,-61.7 80.88,-282.5 c -6.44,-219 36.46,-520.5 128.8,-843.1 92.35,-322.6 215.52,-601.1 336.86,-783.5 l 81.43,-284.5 211.78,61.7 c 174.56,50 175.5,581.5 2.09,1187.3" /><path
         id="path620"
         style="fill:#3d3c3e;fill-opacity:1;fill-rule:nonzero;stroke:none"
         d="m 2409.81,7898.7 c 173.4,-605.7 172.47,-1137.3 -2.1,-1187.3 -174.56,-49.9 -456.65,400.6 -630.06,1006.3 -173.41,605.7 -172.47,1137.3 2.09,1187.3 174.57,49.9 456.66,-400.6 630.07,-1006.3" /><path
         id="path622"
         style="fill:#c37140;fill-opacity:1;fill-rule:nonzero;stroke:none"
         d="m 6089.58,7828 c 0,0 81.11,37.3 138.1,28.5 57,-8.8 341.97,-280.6 414.31,-359.5 72.33,-78.9 162.21,-320.8 157.83,-325.9 -4.39,-5.1 -70.15,-75.2 -173.18,-103.7 -103.03,-28.5 -363.88,-76.8 -363.88,-76.8 0,0 -87.69,34.3 -94.26,40.2 -6.58,5.9 -144.68,150.5 -153.45,152 -8.77,1.5 -24.84,-1.5 -24.84,-1.5 0,0 23.38,-70.1 27.76,-151.9 4.39,-81.9 -22.65,-152.8 -77.45,-154.9 -54.8,-2.2 -72.34,100.8 -74.53,168.7 -2.19,68 41.65,136 52.61,153.5 10.96,17.5 10.96,17.5 10.96,17.5 0,0 -46.03,125 -21.92,252.1 24.11,127.2 135.91,320.1 181.94,361.7" /><path
         id="path624"
         style="fill:#9d4a30;fill-opacity:1;fill-rule:nonzero;stroke:none"
         d="m 3281.53,8606.2 c 0,0 37.26,-144.7 -59.19,-263.1 0,0 145.14,43.3 59.19,263.1" /><path
         id="path626"
         style="fill:#9d4a30;fill-opacity:1;fill-rule:nonzero;stroke:none"
         d="m 3932.58,7016.9 c 0,0 102.29,223 108.14,417.3 l 77,23.3 c 0,0 14.33,-282.7 -185.14,-440.6" /><path
         id="path628"
         style="fill:#da8257;fill-opacity:1;fill-rule:nonzero;stroke:none"
         d="m 5136,7144 c 0,0 -199.45,-73.7 -333.9,-84 -134.45,-10.2 -249.9,17.6 -241.13,11.7 8.77,-5.8 57,-40.9 132.99,-61.3 0,0 -32.15,-45.3 -211.9,-70.2 -87.28,-12 -184.14,-38.6 -260.1,-62.5 104.23,11 245.01,10.7 370.43,38.4 149.06,32.9 230.17,103 230.17,103 112.89,19.5 237.55,82 313.44,124.9" /><path
         id="path630"
         style="fill:#9d4a30;fill-opacity:1;fill-rule:nonzero;stroke:none"
         d="m 4443.33,7554 -43.84,-72.3 c 0,0 107.41,48.2 160.02,109.6 36.46,42.5 84.84,145 111.11,204 -93.01,-95.6 -160.8,-190.2 -160.8,-190.2 0,0 -200.21,-39.4 -277.66,-92 25.77,14.9 211.17,40.9 211.17,40.9" /><path
         id="path632"
         style="fill:#9d4a30;fill-opacity:1;fill-rule:nonzero;stroke:none"
         d="m 6837.08,8351.9 c -17.71,21.4 -30.12,43.8 -39.07,64.3 -7.96,-29.1 -16.03,-61.7 -24.5,-99.4 0,0 96.45,-48.2 201.67,-149 0,0 -85.49,120.5 -138.1,184.1" /><path
         id="path634"
         style="fill:#da8257;fill-opacity:1;fill-rule:nonzero;stroke:none"
         d="m 7213.17,8426.1 c -5.81,-22.2 -62.62,-209 -62.62,-209 l -39.46,40.6 c 0,0 17.54,-114 26.31,-219.3 4.58,-55 -0.44,-101.9 -6.26,-134.1 5.78,9 10.84,18.6 15.02,28.9 32.89,81.1 21.92,234.6 21.92,234.6 0,0 38.4,61.2 45.09,258.3" /><path
         id="path636"
         style="fill:#da8257;fill-opacity:1;fill-rule:nonzero;stroke:none"
         d="m 6962.03,7752 46.03,105.8 c 0,0 -30.69,-64.9 -129.33,-121.9 -98.64,-57 -161.86,-91.2 -274.74,-105.1 0,0 86.22,-24.2 169.52,15.3 0,0 78.92,0 166.6,85.5 7.34,7.1 14.64,13.8 21.93,20.3 l -0.01,0.1" /><path
         id="path638"
         style="fill:#c37140;fill-opacity:1;fill-rule:nonzero;stroke:none"
         d="m 3669.53,7814.9 c 0,0 10.96,101.9 12.05,128.2 1.1,26.3 -8.76,57 -6.03,61.4 2.75,4.4 -31.23,82.2 -26.85,110.7 4.39,28.5 11.7,55.8 16.29,57.1 4.59,1.4 13.31,70 6.73,111.7 -6.58,41.6 -32.08,52.6 -34.12,59.1 -2.05,6.6 -3.15,26.4 4.53,34 7.67,7.7 32.88,24.1 32.88,24.1 0,0 -9.7,31.8 6.66,45 16.35,13.1 51.43,13.1 51.43,13.1 0,0 36.17,37.3 53.7,37.3 17.54,0 71.25,-7.7 71.25,-7.7 0,0 44.93,40.6 95.35,36.2 50.42,-4.4 88.78,-28.5 100.84,-38.4 12.05,-9.8 100.83,-260.8 93.16,-295.9 -7.67,-35.1 -163.31,-196.9 -167.69,-208.6 -4.39,-11.7 -3.29,-149.8 -3.29,-149.8 0,0 -39.46,-59.2 -105.22,-68 -65.76,-8.7 -87.68,-5.4 -128.24,0 -40.55,5.5 -73.43,50.5 -73.43,50.5" /><path
         id="path640"
         style="fill:#9d4a30;fill-opacity:1;fill-rule:nonzero;stroke:none"
         d="m 3899.69,8279.6 c 0,0 -30.68,100.1 -59.18,139.4 -16.9,23.2 -51.12,48.3 -76.65,67 -15.5,-11 -30.76,-26.7 -30.76,-26.7 0,0 56.99,-18.8 90.97,-51.1 33.98,-32.2 75.62,-128.6 75.62,-128.6" /><path
         id="path642"
         style="fill:#9d4a30;fill-opacity:1;fill-rule:nonzero;stroke:none"
         d="m 3687.06,8368.4 c 40.56,-40.6 77.82,-120.6 76.73,-117.3 -1.1,3.3 -25.46,87.9 -45.62,114.7 -20.15,26.7 -43.16,35.4 -43.16,35.4 0,0 -6.71,-4.3 -14.26,-9.6 7.73,-5.9 16.5,-13.4 26.31,-23.2" /><path
         id="path644"
         style="fill:#9d4a30;fill-opacity:1;fill-rule:nonzero;stroke:none"
         d="m 4023.55,8265.3 c 0,3.3 -2.85,140.1 -38.69,175.3 -19.83,19.4 -51.83,52.3 -76.47,77.8 -29.36,-10.6 -50.34,-29.5 -50.34,-29.5 0,0 85.49,-47.1 100.83,-61.4 15.35,-14.2 64.67,-165.5 64.67,-162.2" /><path
         id="path646"
         style="fill:#c37140;fill-opacity:1;fill-rule:nonzero;stroke:none"
         d="m 6940.11,8921.9 -62.9,173.3 111.33,32 c 0,0 -25.06,149.1 -30.87,147.5 -5.81,-1.6 -91,-18.6 -91,-18.6 0,0 26.31,71.3 44.94,89.9 18.63,18.7 76.93,27.4 76.93,27.4 0,0 40.35,21.9 64.46,24.1 24.11,2.2 73.44,-5.4 73.44,-5.4 0,0 51.51,5.1 71.24,5.8 19.73,0.7 40.55,-8 43.84,-8 3.29,0 33.96,6.1 53.7,-4.4 19.75,-10.6 107.42,-162.9 96.46,-225.6 -10.96,-62.7 -156.59,-169.9 -177.49,-252.7 -20.9,-82.9 -57.07,-90.6 -126.12,-79.6 -69.05,11 -147.96,94.3 -147.96,94.3" /><path
         id="path648"
         style="fill:#9d4a30;fill-opacity:1;fill-rule:nonzero;stroke:none"
         d="m 7302.25,9242.4 c -4.77,13.4 -32.88,107.7 -45.15,149 -8.08,-0.5 -14.21,-1.5 -15.58,-1.5 -1.2,0 -4.77,1.1 -9.74,2.6 0,0 63.29,-133.8 70.47,-150.1" /><path
         id="path650"
         style="fill:#9d4a30;fill-opacity:1;fill-rule:nonzero;stroke:none"
         d="m 7214.19,9186 -27.47,144.7 c 0,0 -11.12,35 -19.53,65.1 -20.15,-1.7 -40.76,-3.7 -40.76,-3.7 0,0 33.81,-54.9 36.64,-59.8 2.82,-4.9 51.12,-146.3 51.12,-146.3" /><path
         id="path652"
         style="fill:#9d4a30;fill-opacity:1;fill-rule:nonzero;stroke:none"
         d="m 6914.9,9293.4 c -4.2,1.6 -12.16,15 -19.33,28.5 -14.84,-27.7 -28.9,-65.8 -28.9,-65.8 0,0 85.19,17 91,18.6 0,0 -34,15.4 -42.77,18.7" /><path
         id="path654"
         style="fill:#9d4a30;fill-opacity:1;fill-rule:nonzero;stroke:none"
         d="m 7055.19,9313.1 c 25.21,-35 80.96,-210.4 74.46,-180.8 -6.5,29.6 -29.52,158.9 -52.54,189.6 -14.26,19 -37.33,48.1 -51.8,68.3 -19,-7.1 -36.77,-16.8 -36.77,-16.8 0,0 41.44,-25.2 66.65,-60.3" /><path
         id="path656"
         style="fill:#161514;fill-opacity:1;fill-rule:nonzero;stroke:none"
         d="m 3808.89,4118.1 c -15.82,2.1 -33.8,3.3 -53.55,2.3 -71.48,-3.7 -337.24,-106.3 -395.89,-163.2 -43.88,-42.5 -38.72,-86.6 -33.34,-106.2 2.29,-6.5 3.64,-10.4 3.64,-10.4 0,0 52.61,-81.1 116.18,-87.7 63.58,-6.5 357.31,114 392.39,173.2 35.07,59.2 32.88,126.1 -8.77,171 -6.12,6.6 -13.17,13.7 -20.66,21" /><path
         id="path658"
         style="fill:#161514;fill-opacity:1;fill-rule:nonzero;stroke:none"
         d="m 1608.97,15335.9 c 0,0 170.99,-390.2 565.56,-342 394.57,48.2 241.13,372.7 140.29,464.7 l -705.85,-122.7" /><path
         id="path660"
         style="fill:#b8b7b7;fill-opacity:1;fill-rule:nonzero;stroke:none"
         d="m 1739.14,13128.7 c -11.86,59.1 -39.08,103.4 -60.78,99.1 l -783.766,-135.5 42.957,-213.9 783.769,135.5 c 21.7,4.4 29.68,55.8 17.82,114.8" /><path
         id="path662"
         style="fill:#d9d8d7;fill-opacity:1;fill-rule:nonzero;stroke:none"
         d="m 955.371,12993.3 c 11.863,-59.1 3.887,-110.5 -17.82,-114.9 -21.703,-4.3 -48.914,40 -60.778,99.1 -11.863,59 -3.882,110.4 17.821,114.8 21.703,4.3 48.914,-40 60.777,-99" /><path
         id="path664"
         style="fill:#6b6d6f;fill-opacity:1;fill-rule:nonzero;stroke:none"
         d="m 2130.52,7849 c 35.05,-106.4 21.42,-206.4 -30.45,-223.5 -51.86,-17.1 -122.32,55.2 -157.37,161.6 -35.04,106.3 -21.41,206.4 30.45,223.5 51.87,17.1 122.32,-55.3 157.37,-161.6" /><path
         id="path666"
         style="fill:#929393;fill-opacity:1;fill-rule:nonzero;stroke:none"
         d="m 2057.82,7815.3 c -18.58,61.6 -48.92,107 -67.78,101.4 l -1303.899,-392.8 67.269,-223.3 1303.9,392.7 c 18.86,5.7 19.09,60.3 0.51,122" /><path
         id="path668"
         style="fill:#b8b7b7;fill-opacity:1;fill-rule:nonzero;stroke:none"
         d="m 753.922,7422.5 c 18.578,-61.7 18.348,-116.3 -0.512,-121.9 -18.859,-5.7 -49.207,39.7 -67.781,101.4 -18.574,61.6 -18.348,116.2 0.512,121.9 18.859,5.7 49.207,-39.7 67.781,-101.4" /><path
         id="path670"
         style="fill:#636567;fill-opacity:1;fill-rule:nonzero;stroke:none"
         d="m 7929.47,7054.2 h -188.52 v 209 h 188.52 v -209" /><path
         id="path672"
         style="fill:#d7d6d4;fill-opacity:1;fill-rule:nonzero;stroke:none"
         d="m 7550.97,16059.3 c 8.77,4.4 400.42,19 400.42,19 v -713.2 h -244.06 v 546.6 l -156.36,147.6" /><path
         id="path674"
         style="fill:#636567;fill-opacity:1;fill-rule:nonzero;stroke:none"
         d="m 7966,15270.1 h -280.58 v 109.6 H 7966 v -109.6" /><path
         id="path676"
         style="fill:#161514;fill-opacity:1;fill-rule:nonzero;stroke:none"
         d="m 7966,15270.1 h -280.58 v -72.3 H 7966 v 72.3" /><path
         id="path678"
         style="fill:#2f1d16;fill-opacity:1;fill-rule:nonzero;stroke:none"
         d="m 6148.77,6615.8 c 0,0 51.44,-86.2 113.56,-103.2 62.12,-17 77.65,-4.3 156.7,-19.8 79.06,-15.6 129.89,21.3 196.24,19.8 66.35,-1.5 131.29,33.8 163.76,83.2 32.47,49.4 88.34,70 105.89,111.5 17.54,41.5 10.83,83.3 42.82,114.4 32,31.1 13.65,67.8 17.88,131.3 4.24,63.5 5.77,120 1.47,162.3 -4.29,42.4 -24.06,71.1 -33.94,104 -9.88,33 -135.27,55.2 -135.27,55.2 l 46.33,-106.9 c 0,0 -179.72,-206.1 -239.04,-225 -59.31,-18.8 -27.31,46.2 -162.84,-68.2 -135.53,-114.3 -273.56,-258.6 -273.56,-258.6" /></g></g></svg>