<?xml version="1.0" encoding="UTF-8" standalone="no"?>
<svg
   xmlns:dc="http://purl.org/dc/elements/1.1/"
   xmlns:cc="http://creativecommons.org/ns#"
   xmlns:rdf="http://www.w3.org/1999/02/22-rdf-syntax-ns#"
   xmlns:svg="http://www.w3.org/2000/svg"
   xmlns="http://www.w3.org/2000/svg"
   viewBox="0 0 2666.6667 2666.6667"
   height="2666.6667"
   width="2666.6667"
   xml:space="preserve"
   id="svg2"
   version="1.1"><metadata
     id="metadata8"><rdf:RDF><cc:Work
         rdf:about=""><dc:format>image/svg+xml</dc:format><dc:type
           rdf:resource="http://purl.org/dc/dcmitype/StillImage" /></cc:Work></rdf:RDF></metadata><defs
     id="defs6" /><g
     transform="matrix(1.3333333,0,0,-1.3333333,0,2666.6667)"
     id="g10"><g
       transform="scale(0.1)"
       id="g12"><g
         transform="scale(1.22699)"
         id="g14"><path
           id="path16"
           style="fill:none;fill-opacity:1;fill-rule:nonzero;stroke:none"
           d="M 16300,0 H 0 V 16300 H 16300 V 0" /></g><path
         id="path18"
         style="fill:#b7b6b6;fill-opacity:1;fill-rule:nonzero;stroke:none"
         d="m 7266.24,15237.4 c 0,0 -236.32,-201.9 -315.09,-566.2 -78.77,-364.4 -610.49,-6006.5 -610.49,-6006.5 l -345.16,201.9 c 0,0 443.62,5472.2 517.47,5782.4 73.85,310.2 206.78,460.3 206.78,460.3 l 546.49,128.1" /><path
         id="path20"
         style="fill:#929292;fill-opacity:1;fill-rule:nonzero;stroke:none"
         d="m 9232.63,10108.8 452.52,83.9 c 0,0 79.91,-69.3 27.21,-187 l -552.86,-104.6 73.13,207.7" /><path
         id="path22"
         style="fill:#252322;fill-opacity:1;fill-rule:nonzero;stroke:none"
         d="m 9278.18,9960.3 c -65.07,509.2 -325.15,895.5 -580.89,862.8 -255.74,-32.7 -410.31,-472 -345.24,-981.2 52.35,-409.7 230.94,-739.7 431.95,-836.1 l -8.47,-45.4 157.4,18.7 c 255.75,32.7 410.32,472 345.25,981.2" /><path
         id="path24"
         style="fill:#3d3c3e;fill-opacity:1;fill-rule:nonzero;stroke:none"
         d="m 9095.74,9937 c 65.07,-509.2 -89.5,-948.5 -345.24,-981.2 -255.75,-32.7 -515.82,353.6 -580.89,862.8 -65.07,509.2 89.5,948.5 345.24,981.2 255.75,32.6 515.82,-353.6 580.89,-862.8" /><path
         id="path26"
         style="fill:#fac297;fill-opacity:1;fill-rule:nonzero;stroke:none"
         d="m 6397.28,9486.9 c 12.3,-4.9 82.87,-49.2 151.8,-117.4 68.93,-68.1 106.67,-233.8 105.03,-238.7 -1.64,-5 205.14,-134.6 244.53,-185.5 0,0 185.44,198.6 257.65,246.2 72.21,47.6 193.65,178 193.65,178 l 178.88,-81.2 c 0,0 -67.28,-129.6 -98.46,-256 -31.18,-126.4 -108.32,-315.1 -164.12,-393.9 -55.79,-78.7 -128,-200.2 -198.57,-209.2 -70.57,-9 -230.3,20.5 -244.8,22.1 -14.5,1.7 -140.86,11.5 -275.43,67.3 -134.57,55.8 -344.64,571.1 -329.87,640.1 14.77,68.9 -108.31,285.5 -68.92,301.9 39.38,16.4 248.63,26.3 248.63,26.3" /><path
         id="path28"
         style="fill:#da9971;fill-opacity:1;fill-rule:nonzero;stroke:none"
         d="m 6988.9,8846.9 c 47.59,-87 75.49,-149.4 72.21,-136.3 -3.29,13.2 -19.7,121.5 -57.44,198.6 -19.65,40.2 -35.25,74.4 -45.74,98.2 -34.7,-35.8 -59.29,-62.1 -59.29,-62.1 0,0 42.66,-11.5 90.26,-98.4" /><path
         id="path30"
         style="fill:#fbd9c3;fill-opacity:1;fill-rule:nonzero;stroke:none"
         d="m 6396.46,9447.5 c 0,0 82.05,-44.3 132.93,-111.6 50.87,-67.3 83.69,-160.8 83.69,-160.8 l -98.47,16.4 208.76,-110.2 c -39.65,27.2 -69.89,47.6 -69.26,49.5 1.64,4.9 -36.1,170.6 -105.03,238.7 -68.93,68.2 -139.5,112.5 -151.8,117.4 0,0 -5.67,-0.3 -15.19,-0.8 l 14.37,-38.6" /><path
         id="path32"
         style="fill:#d5d5d3;fill-opacity:1;fill-rule:nonzero;stroke:none"
         d="m 6847.76,5872.4 241.24,-791.9 -34.46,-167.4 9.85,-290.5 108.31,-108.3 v -93.5 l -571.11,-152.6 c 0,0 -211.7,960 -226.47,1014.2 -14.77,54.1 -156.97,163.3 -56.33,293.3 100.64,130.1 199.11,592.9 199.11,592.9 l 329.86,-296.2" /><path
         id="path34"
         style="fill:#929292;fill-opacity:1;fill-rule:nonzero;stroke:none"
         d="m 4400.86,7554.5 c 0,0 391.41,108.3 384.02,108.3 -7.38,0 -105.85,59.1 -105.85,59.1 l -334.79,-71.4 56.62,-96" /><path
         id="path36"
         style="fill:#b7b6b6;fill-opacity:1;fill-rule:nonzero;stroke:none"
         d="m 5562.77,6715 44.31,-280.6 -300.32,-246.1 726.6,-654.9 c 0,0 235.53,-42.2 260.48,0 24.95,42.3 125.59,521.9 81.28,664.7 -44.31,142.8 -39.39,241.2 -310.17,379.1 C 5794.17,6715 5562.77,6715 5562.77,6715" /><path
         id="path38"
         style="fill:#b7b6b6;fill-opacity:1;fill-rule:nonzero;stroke:none"
         d="m 4376.25,7699.7 320.01,87 27.08,-87 -347.09,-86.1 v 86.1" /><path
         id="path40"
         style="fill:#4f5052;fill-opacity:1;fill-rule:nonzero;stroke:none"
         d="m 4723.34,9959.5 c 0,0 -386.48,-88.6 -379.1,-206.8 7.39,-118.1 379.1,-925.5 379.1,-925.5 0,0 519.41,83.2 544.03,211.4 24.62,128.3 -68.93,507.4 -221.55,630.5 -152.62,123 -322.48,290.4 -322.48,290.4" /><path
         id="path42"
         style="fill:#161514;fill-opacity:1;fill-rule:nonzero;stroke:none"
         d="m 5846.5,6467.2 c 0,0 -83.51,-32.8 -96.64,-59 -13.13,-26.3 6.56,-177.3 19.69,-193.7 13.13,-16.4 475.92,-200.2 475.92,-200.2 l -398.97,452.9" /><path
         id="path44"
         style="fill:#161514;fill-opacity:1;fill-rule:nonzero;stroke:none"
         d="m 6927.31,5611.3 c 0,0 161.69,-20.4 263.44,-12.2 101.75,8.2 425.05,101.1 425.05,101.1 0,0 65.65,-40.4 34.47,-117.5 0,0 -318.38,-108.3 -426.69,-119.8 -108.32,-11.5 -255.42,14.3 -255.42,14.3 0,0 -46.55,-4.5 -71.17,44.8 -24.61,49.2 30.32,89.3 30.32,89.3" /><path
         id="path46"
         style="fill:#929292;fill-opacity:1;fill-rule:nonzero;stroke:none"
         d="m 6995.46,5876.6 c 0,0 295.4,-172 374.17,-176.3 78.78,-4.4 108.32,344.4 108.32,344.4 l -482.49,-168.1" /><path
         id="path48"
         style="fill:#b7b6b6;fill-opacity:1;fill-rule:nonzero;stroke:none"
         d="m 6860.07,13452.6 49.23,41.9 578.5,41.3 c 0,0 51.69,-73.3 12.3,-191.5 l -640.03,-51.7 v 160" /><path
         id="path50"
         style="fill:#b7b6b6;fill-opacity:1;fill-rule:nonzero;stroke:none"
         d="m 6690.91,11585.9 43.68,39 523.41,50.6 c 0,0 48.51,-65.3 15.49,-173.3 l -578.96,-61.4 -3.62,145.1" /><path
         id="path52"
         style="fill:#b7b6b6;fill-opacity:1;fill-rule:nonzero;stroke:none"
         d="m 6498.82,9862.4 40.23,39.4 500.49,71.8 c 0,0 49.48,-60.6 22.54,-165.8 l -553.36,-84.5 -9.9,139.1" /><path
         id="path54"
         style="fill:#161514;fill-opacity:1;fill-rule:nonzero;stroke:none"
         d="m 3679.59,6614.1 c 7.39,-9.8 108.32,-155.1 100.93,-192 -7.38,-36.9 -278.17,-86.1 -278.17,-86.1 0,0 -34.46,162.4 -27.07,187 7.38,24.7 204.31,91.1 204.31,91.1" /><path
         id="path56"
         style="fill:#929292;fill-opacity:1;fill-rule:nonzero;stroke:none"
         d="m 3672.21,6482.4 c 0,-22.4 -27.55,-40.6 -61.54,-40.6 -33.99,0 -61.54,18.2 -61.54,40.6 0,22.5 27.55,40.6 61.54,40.6 33.99,0 61.54,-18.1 61.54,-40.6" /><path
         id="path58"
         style="fill:#929292;fill-opacity:1;fill-rule:nonzero;stroke:none"
         d="m 3549.13,6523 2053.03,477.6 105.59,295.6 -2321.1,-492.5 162.48,-280.7" /><path
         id="path60"
         style="fill:#707273;fill-opacity:1;fill-rule:nonzero;stroke:none"
         d="m 3366.96,6887.4 2281.97,472.6 100.93,-54.1 -2412.44,-551.5 29.54,133" /><path
         id="path62"
         style="fill:#929292;fill-opacity:1;fill-rule:nonzero;stroke:none"
         d="m 8836.79,5799.3 4.92,-98.5 -4.92,-167.4 -470.18,305.3 v 177.2 l 470.18,-216.6" /><path
         id="path64"
         style="fill:#d5d5d3;fill-opacity:1;fill-rule:nonzero;stroke:none"
         d="m 8114.29,14852.1 h -227.7 v 364.3 h 227.7 v -364.3" /><path
         id="path66"
         style="fill:#b7b6b6;fill-opacity:1;fill-rule:nonzero;stroke:none"
         d="m 4981.82,7128.6 95.92,-250 c 0,0 1435.23,-1492.9 1410.62,-1492.9 -24.62,0 -300.33,-29.5 -300.33,-29.5 l -1326.66,1472.1 120.45,300.3" /><path
         id="path68"
         style="fill:#636567;fill-opacity:1;fill-rule:nonzero;stroke:none"
         d="m 8131.03,6989.2 -134.57,-0.9 -52.35,7761.1 134.56,0.9 52.36,-7761.1" /><path
         id="path70"
         style="fill:#929292;fill-opacity:1;fill-rule:nonzero;stroke:none"
         d="m 8189.37,15072.4 -24.62,-49.2 h -29.54 l 66.47,-8401.7 164.93,-605.6 140.32,9179.6 -317.56,-123.1" /><path
         id="path72"
         style="fill:#929292;fill-opacity:1;fill-rule:nonzero;stroke:none"
         d="m 2761.39,15254.6 5472.29,251.1 19.82,-337.2 -5492.11,-283.2 v 369.3" /><path
         id="path74"
         style="fill:#636567;fill-opacity:1;fill-rule:nonzero;stroke:none"
         d="m 8164.75,15163.9 v -140.7 h 66.47 c 0,0 73.85,66.5 71.39,103.4 -2.46,36.9 -71.39,40.8 -71.39,40.8 l -66.47,-3.5" /><path
         id="path76"
         style="fill:#929292;fill-opacity:1;fill-rule:nonzero;stroke:none"
         d="m 2932.07,14021.3 3699.06,295.4 c 0,0 88.62,-206.8 0,-443.1 l -3699.06,-354.5 v 502.2" /><path
         id="path78"
         style="fill:#d5d5d3;fill-opacity:1;fill-rule:nonzero;stroke:none"
         d="m 3283.26,4696.5 c -7.38,-4.9 -130.46,-115.7 -130.46,-115.7 l 214.16,-285.6 125.55,-204.3 467.71,258.5 -209.24,329.8 -467.72,17.3" /><path
         id="path80"
         style="fill:#b7b6b6;fill-opacity:1;fill-rule:nonzero;stroke:none"
         d="m 2251.01,15406.4 c -54.16,14.8 -137.86,49.2 -137.86,49.2 l 640.86,-8494.4 -59.08,-73.8 450.48,-2200.8 73.85,-125.5 c 0,0 332.33,0 531.72,118.1 l -891.12,10671.4 -608.85,55.8" /><path
         id="path82"
         style="fill:#161514;fill-opacity:1;fill-rule:nonzero;stroke:none"
         d="m 2113.15,15455.6 c 0,0 133.75,-252.7 446.38,-284.7 312.64,-32 312.64,120.6 300.33,179.7 -12.31,59.1 -68.93,130.5 -68.93,130.5 l -677.78,-25.5" /><path
         id="path84"
         style="fill:#b7b6b6;fill-opacity:1;fill-rule:nonzero;stroke:none"
         d="m 8231.22,15714.9 v -691.7 h 83.7 l 51.69,-9007.3 c 0,0 251.09,-22.1 509.57,37 v 9499.5 l -644.96,162.5" /><path
         id="path86"
         style="fill:#161514;fill-opacity:1;fill-rule:nonzero;stroke:none"
         d="m 8765.4,15783.8 c 7.39,-4.9 123.08,-120.6 110.78,-231.4 0,0 -120.63,-64 -322.48,-24.6 -201.86,39.4 -322.48,187.1 -322.48,187.1 v 39.4 l 534.18,29.5" /><path
         id="path88"
         style="fill:#d5d5d3;fill-opacity:1;fill-rule:nonzero;stroke:none"
         d="m 8876.18,6052.9 265.86,-238.8 c 0,0 -275.71,-123.1 -300.33,-113.3 -24.61,9.9 -475.1,315.1 -475.1,315.1 l 509.57,37" /><path
         id="path90"
         style="fill:#161514;fill-opacity:1;fill-rule:nonzero;stroke:none"
         d="m 8804.89,5723.2 c 0,0 -19.8,-51.9 -22.26,-79 -2.46,-27.1 0,-75.6 0,-75.6 0,0 22.16,-49.9 93.55,-59.8 71.38,-9.8 267.5,63.4 303.6,107.2 36.11,43.8 3.28,148.8 0,173.5 -3.28,24.6 -37.74,24.6 -37.74,24.6 0,0 -296.84,-37.4 -337.15,-90.9" /><path
         id="path92"
         style="fill:#929292;fill-opacity:1;fill-rule:nonzero;stroke:none"
         d="m 8231.22,10438.9 c -13.13,9.8 -118.16,118.1 -141.14,147.7 -22.97,29.5 -52.51,59.1 -52.51,59.1 0,0 0,-170.7 22.97,-206.8 22.98,-36.1 141.14,-197 141.14,-197 l 29.54,197" /><path
         id="path94"
         style="fill:#929292;fill-opacity:1;fill-rule:nonzero;stroke:none"
         d="m 8231.22,9811.4 c -13.13,9.8 -118.16,118.1 -141.14,147.7 -22.97,29.5 -52.51,59 -52.51,59 0,0 0,-170.6 22.97,-206.7 22.98,-36.1 141.14,-197 141.14,-197 l 29.54,197" /><path
         id="path96"
         style="fill:#929292;fill-opacity:1;fill-rule:nonzero;stroke:none"
         d="m 8231.22,9235.6 c -13.13,9.8 -118.16,118.1 -141.14,147.7 -22.97,29.5 -52.51,59 -52.51,59 0,0 0,-170.6 22.97,-206.7 22.98,-36.1 141.14,-197 141.14,-197 l 29.54,197" /><path
         id="path98"
         style="fill:#929292;fill-opacity:1;fill-rule:nonzero;stroke:none"
         d="m 8231.22,8659.8 c -13.13,9.8 -118.16,118.1 -141.14,147.7 -22.97,29.5 -52.51,59.1 -52.51,59.1 0,0 0,-170.7 22.97,-206.8 22.98,-36.1 141.14,-196.9 141.14,-196.9 l 29.54,196.9" /><path
         id="path100"
         style="fill:#929292;fill-opacity:1;fill-rule:nonzero;stroke:none"
         d="m 8231.22,8084 c -13.13,9.8 -118.16,118.2 -141.14,147.7 -22.97,29.5 -52.51,59.1 -52.51,59.1 0,0 0,-170.7 22.97,-206.8 22.98,-36.1 141.14,-196.9 141.14,-196.9 l 29.54,196.9" /><path
         id="path102"
         style="fill:#929292;fill-opacity:1;fill-rule:nonzero;stroke:none"
         d="m 8231.22,7508.2 c -13.13,9.9 -118.16,118.2 -141.14,147.7 -22.97,29.6 -52.51,59.1 -52.51,59.1 0,0 0,-170.7 22.97,-206.8 22.98,-36.1 141.14,-196.9 141.14,-196.9 l 29.54,196.9" /><path
         id="path104"
         style="fill:#929292;fill-opacity:1;fill-rule:nonzero;stroke:none"
         d="m 8231.22,14380.7 c -13.13,9.8 -118.16,118.2 -141.14,147.7 -22.97,29.5 -52.51,59.1 -52.51,59.1 0,0 0,-170.7 22.97,-206.8 22.98,-36.1 141.14,-196.9 141.14,-196.9 l 29.54,196.9" /><path
         id="path106"
         style="fill:#929292;fill-opacity:1;fill-rule:nonzero;stroke:none"
         d="m 8231.22,13711.1 c -13.13,9.9 -118.16,118.2 -141.14,147.7 -22.97,29.6 -52.51,59.1 -52.51,59.1 0,0 0,-170.7 22.97,-206.8 22.98,-36.1 141.14,-196.9 141.14,-196.9 l 29.54,196.9" /><path
         id="path108"
         style="fill:#929292;fill-opacity:1;fill-rule:nonzero;stroke:none"
         d="m 8231.22,13041.5 c -13.13,9.9 -118.16,118.2 -141.14,147.7 -22.97,29.6 -52.51,59.1 -52.51,59.1 0,0 0,-170.7 22.97,-206.8 22.98,-36.1 141.14,-196.9 141.14,-196.9 l 29.54,196.9" /><path
         id="path110"
         style="fill:#929292;fill-opacity:1;fill-rule:nonzero;stroke:none"
         d="m 8231.22,12372 c -13.13,9.8 -118.16,118.1 -141.14,147.7 -22.97,29.5 -52.51,59 -52.51,59 0,0 0,-170.6 22.97,-206.7 22.98,-36.1 141.14,-197 141.14,-197 l 29.54,197" /><path
         id="path112"
         style="fill:#929292;fill-opacity:1;fill-rule:nonzero;stroke:none"
         d="m 8231.22,11702.4 c -13.13,9.8 -118.16,118.2 -141.14,147.7 -22.97,29.5 -52.51,59.1 -52.51,59.1 0,0 0,-170.7 22.97,-206.8 22.98,-36.1 141.14,-196.9 141.14,-196.9 l 29.54,196.9" /><path
         id="path114"
         style="fill:#929292;fill-opacity:1;fill-rule:nonzero;stroke:none"
         d="m 8231.22,11032.8 c -13.13,9.9 -118.16,118.2 -141.14,147.7 -22.97,29.6 -52.51,59.1 -52.51,59.1 0,0 0,-170.7 22.97,-206.8 22.98,-36.1 141.14,-196.9 141.14,-196.9 l 29.54,196.9" /><path
         id="path116"
         style="fill:#636567;fill-opacity:1;fill-rule:nonzero;stroke:none"
         d="m 8141.37,14875.5 h -273.25 v -89.9 h 273.25 v 89.9" /><path
         id="path118"
         style="fill:#161514;fill-opacity:1;fill-rule:nonzero;stroke:none"
         d="m 8141.37,14785.6 h -273.25 v -51.7 h 273.25 v 51.7" /><path
         id="path120"
         style="fill:#252322;fill-opacity:1;fill-rule:nonzero;stroke:none"
         d="m 8177.49,9418.6 -254.31,-1 -4.25,1061 254.3,1 4.26,-1061" /><path
         id="path122"
         style="fill:#929292;fill-opacity:1;fill-rule:nonzero;stroke:none"
         d="m 3132.43,4750.1 c -9.17,-19.2 -16.56,-225.9 37.6,-312.1 54.15,-86.2 196.93,-142.8 196.93,-142.8 l -147.7,265.9 -86.83,189" /><path
         id="path124"
         style="fill:#161514;fill-opacity:1;fill-rule:nonzero;stroke:none"
         d="m 3773.14,4354.3 c -17.51,-3.8 -241.25,-83.7 -265.86,-113.2 -24.62,-29.6 -14.77,-150.2 -14.77,-150.2 0,0 0,-78.8 100.93,-76.3 100.92,2.5 369.25,91.1 401.25,142.8 32,51.7 -34.47,192 -34.47,192 0,0 -29.54,39.4 -187.08,4.9" /><path
         id="path126"
         style="fill:#d5d5d3;fill-opacity:1;fill-rule:nonzero;stroke:none"
         d="m 4289.27,7711.2 105.03,29.5 101.75,-423.4 216.62,-249.4 -252.27,45.9 -46.41,141.2 -124.72,456.2" /><path
         id="path128"
         style="fill:#b7b6b6;fill-opacity:1;fill-rule:nonzero;stroke:none"
         d="m 4561.08,7675.1 151.59,-554.7 226.48,62.4 -203.5,201.8 -78.77,356.1 -95.8,-65.6" /><path
         id="path130"
         style="fill:#707273;fill-opacity:1;fill-rule:nonzero;stroke:none"
         d="m 4617.49,7813 49.23,-210.1 659.73,187.1 -147.7,180.5 -561.26,-157.5" /><path
         id="path132"
         style="fill:#161514;fill-opacity:1;fill-rule:nonzero;stroke:none"
         d="m 4288.36,7648.7 c 5.92,-25.9 -4.94,-50.4 -24.26,-54.9 -19.33,-4.4 -39.8,13 -45.72,38.8 -5.93,25.9 4.93,50.4 24.26,54.8 19.32,4.5 39.79,-12.9 45.72,-38.7" /><path
         id="path134"
         style="fill:#161514;fill-opacity:1;fill-rule:nonzero;stroke:none"
         d="m 4384.25,7674.7 c -3.76,16.7 -17.82,27.7 -31.41,24.7 l -99.47,-30.2 4.72,-55.6 108.33,25.3 c 13.6,3.1 21.58,19.1 17.83,35.8" /><path
         id="path136"
         style="fill:#d5d5d3;fill-opacity:1;fill-rule:nonzero;stroke:none"
         d="m 4630.62,7051.5 22.56,-271.6 1555.27,-1758.5 c 0,0 -15.49,315.1 -20.42,334.8 -4.92,19.7 -1326.66,1472.1 -1326.66,1472.1 l -148.7,239.6 -82.05,-16.4" /><path
         id="path138"
         style="fill:#4f5052;fill-opacity:1;fill-rule:nonzero;stroke:none"
         d="m 4971.97,8088.9 c 0,0 566.18,-1344.3 590.8,-1373.9 24.62,-29.5 1122.52,-866.5 1122.52,-866.5 0,0 201.86,-39.3 275.71,-34.4 73.85,4.9 610.49,128 625.26,147.7 14.77,19.7 14.77,226.5 -34.46,280.6 -49.23,54.2 -1713.32,2058.5 -1737.94,2048.4 -24.62,-10.1 -841.89,-201.9 -841.89,-201.9" /><path
         id="path140"
         style="fill:#161514;fill-opacity:1;fill-rule:nonzero;stroke:none"
         d="m 6640.98,5179 390.86,89.2 43.56,-143 -513.19,-133.3 78.77,187.1" /><path
         id="path142"
         style="fill:#929292;fill-opacity:1;fill-rule:nonzero;stroke:none"
         d="M 2694.93,6887.4 3145.41,4686.6 2113.15,15455.6 2754,6961.2 2694.93,6887.4" /><path
         id="path144"
         style="fill:#b7b6b6;fill-opacity:1;fill-rule:nonzero;stroke:none"
         d="m 8053.98,15505.7 c 0,0 -66.47,-51.7 -96.01,-140.3 -29.54,-88.7 0,-212.1 0,-212.1 l -145.21,-7.5 c 0,0 -29.51,140.8 0,229.4 29.52,88.6 73.83,114.5 73.83,114.5 0,0 68.92,55.4 167.39,16" /><path
         id="path146"
         style="fill:#161514;fill-opacity:1;fill-rule:nonzero;stroke:none"
         d="m 7916.13,15323.5 c 0,-28.6 -18.19,-51.7 -40.62,-51.7 -22.43,0 -40.62,23.1 -40.62,51.7 0,28.6 18.19,51.7 40.62,51.7 22.43,0 40.62,-23.1 40.62,-51.7" /><path
         id="path148"
         style="fill:#b7b6b6;fill-opacity:1;fill-rule:nonzero;stroke:none"
         d="m 6639.34,4425.7 c 0,13.1 88.52,792.7 88.52,792.7 l -88.52,421.7 c 0,0 -147.07,-436.5 -150.67,-446.4 -3.59,-9.8 48.92,-436.5 52.2,-475.9 3.29,-39.4 98.47,-292.1 98.47,-292.1" /><path
         id="path150"
         style="fill:#b7b6b6;fill-opacity:1;fill-rule:nonzero;stroke:none"
         d="m 6488.36,8320.1 c 14.77,9.8 356.94,49.2 356.94,49.2 0,0 54.16,-64 29.54,-142.8 l -344.63,-61.5 -41.85,155.1" /><path
         id="path152"
         style="fill:#b7b6b6;fill-opacity:1;fill-rule:nonzero;stroke:none"
         d="m 1548.15,12933.2 -10.75,42.1 775.97,64.6 14.77,-216.6 -769.23,-64.8 -10.76,174.7" /><path
         id="path154"
         style="fill:#d8d7d5;fill-opacity:1;fill-rule:nonzero;stroke:none"
         d="m 1585.03,12870.5 c 5.95,-59.8 -5.75,-110 -26.12,-112 -20.37,-2 -41.7,44.9 -47.64,104.7 -5.94,59.9 5.76,110.1 26.13,112.1 20.37,2 41.69,-44.9 47.63,-104.8" /><path
         id="path156"
         style="fill:#b7b6b6;fill-opacity:1;fill-rule:nonzero;stroke:none"
         d="m 1878.52,9065.2 -11.87,39.9 741.38,90.7 22.18,-207.1 -734.91,-90.6 -16.78,167.1" /><path
         id="path158"
         style="fill:#d8d7d5;fill-opacity:1;fill-rule:nonzero;stroke:none"
         d="m 1916.19,9006.5 c 7.91,-57.2 -1.44,-105.7 -20.89,-108.4 -19.45,-2.7 -41.63,41.4 -49.54,98.6 -7.91,57.2 1.44,105.7 20.89,108.4 19.45,2.7 41.63,-41.5 49.54,-98.6" /><path
         id="path160"
         style="fill:#b7b6b6;fill-opacity:1;fill-rule:nonzero;stroke:none"
         d="m 1993.73,7355.6 -13.16,35.7 669.64,126.3 32.41,-187.3 -663.75,-125.8 -25.14,151.1" /><path
         id="path162"
         style="fill:#d8d7d5;fill-opacity:1;fill-rule:nonzero;stroke:none"
         d="m 2031.49,7304.4 c 10.58,-51.6 4.92,-96.3 -12.62,-99.9 -17.55,-3.6 -40.35,35.3 -50.93,86.9 -10.57,51.6 -4.92,96.3 12.63,99.9 17.55,3.6 40.35,-35.3 50.92,-86.9" /><path
         id="path164"
         style="fill:#161514;fill-opacity:1;fill-rule:nonzero;stroke:none"
         d="m 2228.96,13032.9 63.69,43.5 h 48.56 l 26.78,-279.3 -53.79,-6.3 -61.16,26.1 -24.08,216" /><path
         id="path166"
         style="fill:#161514;fill-opacity:1;fill-rule:nonzero;stroke:none"
         d="m 2355.22,10984.8 87.14,107.3 92.74,-38.5 24.64,-257 -94.45,-8.5 -63.3,37.9 -46.77,158.8" /><path
         id="path168"
         style="fill:#161514;fill-opacity:1;fill-rule:nonzero;stroke:none"
         d="m 2706.2,7594.9 c 0,0 -72.82,-33 -76.92,-41.2 -4.1,-8.2 -16.13,-43.1 -16.13,-43.1 l 42.94,-212.7 h 26.53 c 0,0 16.41,24.4 24.61,26 8.21,1.6 144.42,23 144.42,27.9 0,4.9 0,118.2 0,118.2 0,0 -112.13,62.3 -119.25,67.2 -7.11,5 -26.2,57.7 -26.2,57.7" /><path
         id="path170"
         style="fill:#161514;fill-opacity:1;fill-rule:nonzero;stroke:none"
         d="m 6818.01,13535.8 -8.5,-81.3 c 0,0 -119.3,-75.7 -116.83,-129.9 2.46,-54.1 94.02,-90.6 94.02,-90.6 0,0 110.29,-20.1 122.6,70.9 12.31,91.1 0,189.6 0,189.6 l -91.29,41.3" /><path
         id="path172"
         style="fill:#161514;fill-opacity:1;fill-rule:nonzero;stroke:none"
         d="m 6621.11,11579.7 c 0,0 -104.85,-98.9 -116.34,-125.1 -11.49,-26.3 -9.85,-57.5 13.13,-70.6 22.97,-13.1 162.22,3.3 173.01,11.5 10.79,8.2 26.24,37.9 25.9,47.7 -0.34,9.7 17.78,181.7 17.78,181.7 l -108.35,7.1 -5.13,-52.3" /><path
         id="path174"
         style="fill:#161514;fill-opacity:1;fill-rule:nonzero;stroke:none"
         d="m 6461.47,9933.2 77.58,-31.4 -21.15,-53.4 c 0,0 21.33,-120.3 -1.64,-161.3 -22.98,-41 -208.42,-47.6 -205.14,0 3.28,47.6 141.54,154.2 141.54,154.2 l 8.81,91.9" /><path
         id="path176"
         style="fill:#b7b6b6;fill-opacity:1;fill-rule:nonzero;stroke:none"
         d="m 1708.24,10903.6 -11.26,40.1 742.68,79.4 19.02,-207.4 -736.2,-79.4 -14.24,167.3" /><path
         id="path178"
         style="fill:#d8d7d5;fill-opacity:1;fill-rule:nonzero;stroke:none"
         d="m 1745.02,10844.3 c 7.04,-57.2 -3.05,-105.6 -22.54,-108 -19.49,-2.4 -40.99,42.1 -48.03,99.4 -7.04,57.2 3.05,105.6 22.53,108 19.49,2.4 41,-42.1 48.04,-99.4" /><path
         id="path180"
         style="fill:#fac297;fill-opacity:1;fill-rule:nonzero;stroke:none"
         d="m 7709.35,6168.6 253.55,-69 c 0,0 -155.09,-182.1 -211.71,-337.2 -56.62,-155.1 0,-364.3 -41.84,-657.3 -41.85,-292.9 -103.4,-444.7 -162.47,-520.2 -59.08,-75.5 -68.93,-203.5 80.41,-287.2 149.34,-83.7 208.42,-36.1 277.35,-126.4 68.92,-90.2 139.49,-214.6 197.34,-252.7 57.85,-38.2 128.01,-36.9 148.93,-46.8 20.93,-9.8 43.49,-98.4 146.06,-102.5 102.57,-4.2 96.01,85.3 96.01,85.3 0,0 27.89,7.4 30.36,37.7 0,0 13.95,32 0,58.3 0,0 9.84,22.2 -5.75,45.1 0,0 15.59,13.2 -7.38,50.1 -22.98,36.9 -118.16,155.1 -234.68,232.2 -116.52,77.1 -256.01,223.2 -282.27,282.3 -26.26,59 59.08,215 121.44,344.6 62.36,129.6 306.07,574.4 352.84,736.9 46.77,162.4 182.16,322.4 204.32,489.8 22.15,167.4 -22.16,317.6 -118.16,435.7 -96.01,118.2 -241.25,211.8 -273.25,246.2 -32,34.5 -93.54,152.6 -93.54,152.6 0,0 -253.55,-22.1 -354.48,-103.4 -100.93,-81.2 -152.62,-256 -147.7,-374.1 4.92,-118.2 24.62,-320 24.62,-320" /><path
         id="path182"
         style="fill:#fac297;fill-opacity:1;fill-rule:nonzero;stroke:none"
         d="m 3535.35,8906.2 c 0,0 31.83,-106.9 38.39,-131.6 6.57,-24.6 54.16,-124.7 54.16,-124.7 0,0 -11.49,-310.2 -8.21,-456.2 3.28,-146.1 32.82,-244.5 82.06,-306.9 49.23,-62.4 165.75,-116.5 206.78,-111.6 41.03,4.9 141.13,85.3 141.13,85.3 0,0 193.66,137.9 349.56,223.2 155.91,85.4 300.32,256.9 300.32,256.9 l 128.01,-94.4 c 0,0 257.66,141.1 274.07,175.6 16.41,34.5 116.52,203.5 57.44,313.5 -59.08,109.9 -155.91,382.3 -169.04,385.6 -13.13,3.3 -200.21,129.7 -200.21,129.7 0,0 -216.63,-14.8 -329.87,-91.9 -113.23,-77.2 -173.96,-172.4 -210.06,-257.7 -36.1,-85.3 -52.52,-254.4 -52.52,-254.4 0,0 -195.29,-149.3 -246.16,-208.4 0,0 -34.47,208.4 -34.47,228.1 0,19.7 21.34,98.5 26.26,106.7 4.93,8.2 59.08,54.2 98.47,87 39.39,32.8 19.61,117 -23.02,133.1 l -483.09,-86.9" /><path
         id="path184"
         style="fill:#fac297;fill-opacity:1;fill-rule:nonzero;stroke:none"
         d="m 4789.81,9719.1 c 0,-7.4 0,-84.6 0,-84.6 0,0 175.6,-175.5 201.85,-208.3 26.26,-32.9 -32,-109.2 -32,-109.2 0,0 297.86,-93.5 487.41,-179.7 189.55,-86.1 329.87,-160 440.64,-115.7 110.78,44.3 -29.54,416.1 -29.54,416.1 0,0 -73.85,2.4 -123.08,17.2 -49.24,14.8 -288.84,260.1 -288.84,260.1 0,0 -65.21,79.9 -194.66,78.5 -129.46,-1.4 -422.4,-40.8 -422.4,-40.8 l -39.38,-33.6" /><path
         id="path186"
         style="fill:#3970bf;fill-opacity:1;fill-rule:nonzero;stroke:none"
         d="m 4959.66,9317 -169.85,-66.4 c 0,0 144.41,-242.9 169.85,-521.9 25.44,-279 -132.11,-482.5 -132.11,-482.5 0,0 91.4,-168.2 281.33,-295.3 189.93,-127.1 355.42,-226.2 371.83,-251 16.42,-24.8 34.47,-144.6 41.03,-159.4 6.57,-14.7 36.11,-42.6 36.11,-42.6 0,0 462.79,-59.1 502.18,-49.3 39.38,9.9 233.86,61.6 320.01,105.9 86.16,44.3 430.8,270.8 430.8,270.8 0,0 27.07,41.8 0,110.7 -27.08,69 -101.9,200.5 -126.03,256.6 -24.14,56.1 -75.83,196.4 -90.6,309.6 -14.77,113.3 -105.85,325 -105.85,325 0,0 24.61,123 0,224 -24.62,100.9 -105.03,294.6 -262.58,342.1 -157.55,47.6 -452.95,-16.4 -518.59,-23.8 -65.65,-7.3 -747.53,-52.5 -747.53,-52.5" /><path
         id="path188"
         style="fill:#fac297;fill-opacity:1;fill-rule:nonzero;stroke:none"
         d="m 6707.45,6306.4 c 0,0 68.1,-346.3 59.9,-502.2 -8.21,-155.9 -83.7,-336.4 -95.19,-361 -11.49,-24.6 -62.32,-315.1 -63.98,-361.1 -1.66,-45.9 86.96,-648.2 108.29,-740.1 21.34,-91.9 22.98,-236.3 22.98,-236.3 0,0 54.15,-279.3 86.98,-336.6 31.92,-55.7 98,-185.3 102.35,-273.9 0.12,-2.5 0.19,-5 0.22,-7.4 0.82,-88.6 39.38,-87 18.87,-152.6 -20.51,-65.7 -130.47,-23 -130.47,-23 0,0 -23.8,-12.5 -57.44,-13.6 -33.64,-1.2 -57.44,16.1 -57.44,16.1 0,0 -38.56,-14 -60.72,0.8 -22.15,14.8 -33.64,23.8 -33.64,23.8 0,0 -31.18,2.4 -42.67,9.8 -11.49,7.4 -17.23,13.2 -22.16,14 -4.92,0.8 -9.84,-16.4 -41.02,5.7 -31.18,22.2 -52.52,81.3 -53.34,84.5 -0.82,3.3 -55.39,22.2 -83.7,165 -28.3,142.7 34.47,365.9 16.42,471 -18.06,105 -34.47,119.8 -37.75,178.9 -3.28,59 0,114.8 0,114.8 0,0 30.17,37.8 -135.49,347.9 -165.65,310.2 -126.27,662.2 -79.5,807.5 46.78,145.2 56.65,179.3 56.65,179.3 0,0 -224.04,272.8 -211.73,296.6 12.31,23.8 172.32,287.2 216.63,304.4 44.31,17.3 100.7,-14.7 273.13,17.3 172.43,32 243.82,-29.6 243.82,-29.6" /><path
         id="path190"
         style="fill:#252322;fill-opacity:1;fill-rule:nonzero;stroke:none"
         d="m 4752.06,9752.7 c -14.77,8.3 -73.91,16.5 -73.91,16.5 0,0 -62.3,108.3 -52.46,190.3 9.85,82.1 24.62,118.2 24.62,123.1 0,4.9 -14.77,142.8 82.06,241.3 96.82,98.4 277.35,141.1 377.45,103.4 100.11,-37.8 141.77,-142.2 141.77,-142.2 0,0 -230.39,-246.8 -243.52,-310.8 -13.12,-64 -50.8,-189.9 -86.94,-199.2 -36.14,-9.2 -57.47,-19.1 -91.94,-22.4 -34.46,-3.2 -77.13,0 -77.13,0" /><path
         id="path192"
         style="fill:#fbd9c3;fill-opacity:1;fill-rule:nonzero;stroke:none"
         d="m 4389.37,9116 c 0,0 -55.79,-96.8 -98.46,-203.5 -42.67,-106.7 -52.52,-244.5 -52.52,-244.5 l 118.05,26.2 -254.12,-122.4 95.04,74.8 c 0,0 8.46,119.8 42.8,228.2 34.34,108.3 100.4,176.3 100.4,176.3 0,0 4.3,71.5 3.58,79.7 -0.72,8.2 45.23,-14.8 45.23,-14.8" /><path
         id="path194"
         style="fill:#252322;fill-opacity:1;fill-rule:nonzero;stroke:none"
         d="m 5557.85,7497.9 c 0,0 194.47,81.2 349.55,115.7 155.09,34.4 413.56,86.1 622.81,142.7 209.24,56.7 270.78,69 280.63,69 9.84,0 113.23,-179.7 160,-211.7 46.78,-32 376.64,-83.7 635.11,-204.4 258.48,-120.6 580.96,-443.1 580.96,-443.1 0,0 -224.01,-157.5 -320.02,-305.2 -96,-147.7 -157.54,-492.3 -157.54,-492.3 0,0 -329.87,192 -499.72,260.9 -169.86,68.9 -164.94,76.3 -241.25,88.6 -76.31,12.3 -280.63,-7.4 -280.63,-7.4 l 19.7,-204.3 c 0,0 -196.94,4.9 -371.72,-64 -174.77,-68.9 -361.86,-228.1 -361.86,-228.1 0,0 -183.62,374.3 -241.97,565.8 -58.35,191.6 -87.89,383.6 -90.36,420.5 -2.46,36.9 -55.94,346.3 -55.94,346.3 l -27.75,151" /><path
         id="path196"
         style="fill:#100f0d;fill-opacity:1;fill-rule:nonzero;stroke:none"
         d="m 6436.66,7035.1 c 0,0 83.7,-78.8 142.78,-204.4 59.08,-125.5 108.31,-320 108.31,-320 l 280.63,7.4 c 0,0 -34.46,64 -61.54,150.2 -27.08,86.1 49.23,347.1 49.23,347.1 0,0 -86.15,-177.3 -182.16,-179.7 -96,-2.5 -184.62,160 -337.25,199.4" /><path
         id="path198"
         style="fill:#da9971;fill-opacity:1;fill-rule:nonzero;stroke:none"
         d="m 8231.22,6119.3 c 12.92,8.7 -167.39,-22.1 -268.32,-19.7 l -37.54,-46.7 c 0,0 155.7,-34.5 305.86,66.4" /><path
         id="path200"
         style="fill:#da9971;fill-opacity:1;fill-rule:nonzero;stroke:none"
         d="m 8523.34,3950.6 c 0,0 4.19,9.5 2.72,22.6 -28.21,21.5 -71.93,55.3 -80.68,58.6 -13.12,5 77.96,-81.2 77.96,-81.2" /><path
         id="path202"
         style="fill:#da9971;fill-opacity:1;fill-rule:nonzero;stroke:none"
         d="m 8517.59,3995.7 c 0,0 8.24,7.1 3.8,25.2 -25.23,16.1 -60.03,38.5 -64.91,42.1 -7.78,5.8 61.11,-67.3 61.11,-67.3" /><path
         id="path204"
         style="fill:#da9971;fill-opacity:1;fill-rule:nonzero;stroke:none"
         d="m 8425.89,4009.5 c 4.88,-5.6 97.45,-117.2 97.45,-117.2 0,0 5.4,12.4 6.11,28.1 -35.7,30.4 -99.93,85.2 -103.56,89.1" /><path
         id="path206"
         style="fill:#da9971;fill-opacity:1;fill-rule:nonzero;stroke:none"
         d="m 8348.56,3997.4 c -8.21,3.2 144.42,-142.8 144.42,-142.8 0,0 11.68,3.1 20.6,13.6 -48.1,38.5 -158.61,126.6 -165.02,129.2" /><path
         id="path208"
         style="fill:#da9971;fill-opacity:1;fill-rule:nonzero;stroke:none"
         d="m 6421.89,5609.8 c 0,0 29.75,-82.8 140.32,-105.9 0,0 -145.24,-51.7 -140.32,105.9" /><path
         id="path210"
         style="fill:#da9971;fill-opacity:1;fill-rule:nonzero;stroke:none"
         d="m 7832.76,5303.9 c 0,0 123.56,-42.3 242.19,57.5 0,0 -57.56,-205.1 -242.19,-57.5" /><path
         id="path212"
         style="fill:#da9971;fill-opacity:1;fill-rule:nonzero;stroke:none"
         d="m 6608.59,3501.3 c -0.38,2.5 -0.43,-162 -0.43,-162 0,0 10.63,-8.3 30.94,-22 -10.71,61.7 -30.22,182.2 -30.51,184" /><path
         id="path214"
         style="fill:#da9971;fill-opacity:1;fill-rule:nonzero;stroke:none"
         d="m 6690.21,3519.2 c -1.36,1.8 8.31,-131.4 14.23,-205.8 5.47,-3.5 22.51,-13 45.65,-14.6 -18.76,70.2 -58.47,218.5 -59.88,220.4" /><path
         id="path216"
         style="fill:#da9971;fill-opacity:1;fill-rule:nonzero;stroke:none"
         d="m 6533.28,3498.9 4.93,-132.3 -1.85,-7.2 c 3.26,1.7 5.12,4 6.97,3.7 4.02,-0.7 8.64,-4.7 16.43,-10.1 l -26.48,145.9" /><path
         id="path218"
         style="fill:#da9971;fill-opacity:1;fill-rule:nonzero;stroke:none"
         d="m 6776.46,3541 c 1.78,-8.7 30.31,-157.8 42.49,-229.4 7.5,-2.7 41.63,-14.3 73.36,-12.9 -52.83,43.4 -113.75,232.7 -115.85,242.3" /><path
         id="path220"
         style="fill:#929292;fill-opacity:1;fill-rule:nonzero;stroke:none"
         d="m 3385.99,9050 4617.11,814.3 c 0,0 39.39,-78.7 0,-154.2 L 3400.04,8881.9 3385.99,9050" /><path
         id="path222"
         style="fill:#fac297;fill-opacity:1;fill-rule:nonzero;stroke:none"
         d="m 4796.37,9810.2 c 0,0 -70.57,8.2 -106.67,-23 -36.11,-31.2 1.64,-123.1 53.33,-147.7 51.7,-24.6 148.53,49.2 148.53,49.2 0,0 110.21,-43.9 181.47,-44.9 71.26,-1 361.73,53.2 373.22,71.2 11.49,18.1 27.9,137.9 11.49,203.5 -16.41,65.6 -32.82,132.9 -68.93,182.2 -36.1,49.2 -44.31,55.8 -57.44,77.1 -13.13,21.3 -52.51,98.5 -134.57,151 -82.05,52.5 -154.26,49.2 -231.39,32.8 -77.14,-16.4 -192.02,-126.4 -198.58,-137.8 -6.56,-11.5 -14.77,-144.5 -14.77,-144.5 0,0 16.41,-101.7 24.62,-129.6 8.2,-27.9 93.54,-152.6 93.54,-152.6 0,0 -16.41,-16.5 -27.9,-6.6 -11.49,9.8 -45.95,19.7 -45.95,19.7" /><path
         id="path224"
         style="fill:#fbd9c3;fill-opacity:1;fill-rule:nonzero;stroke:none"
         d="m 4711.03,9708.4 c -31.86,68.7 9.44,95.1 9.81,95.3 -11.42,-3.6 -22.32,-8.9 -31.14,-16.5 -36.11,-31.2 1.64,-123.1 53.33,-147.7 34.97,-16.6 90.53,11.7 122.87,31.9 -0.02,0 -122.87,-31.9 -154.87,37" /><path
         id="path226"
         style="fill:#da9971;fill-opacity:1;fill-rule:nonzero;stroke:none"
         d="m 5019.87,9650.3 c 148.83,8.2 181.04,58.1 281.96,85.2 100.93,27.1 144.42,-20.5 144.42,-20.5 11.49,18.1 27.9,137.9 11.49,203.5 -2.6,10.4 -5.24,20.9 -7.92,31.3 -100.23,-3.6 -235.99,-37.8 -308,-101.4 -81.23,-71.7 -250.27,-159.7 -250.27,-159.7 0,0 65.53,-26 128.19,-38.5 l 0.13,0.1" /><path
         id="path228"
         style="fill:#929292;fill-opacity:1;fill-rule:nonzero;stroke:none"
         d="M 5484,9420.1 4125.16,9180.4 v -168 L 5484,9256.8 v 163.3" /><path
         id="path230"
         style="fill:#da9971;fill-opacity:1;fill-rule:nonzero;stroke:none"
         d="m 3771.41,8948.7 c 0,0 -23.88,-36.2 0,-73.9 23.88,-37.8 179.79,-47.6 179.79,-47.6 0,0 -139.5,-23 -169.04,0 -29.54,22.9 -42.67,47.6 -42.67,47.6 0,0 -16.41,-6.9 -41.02,8 -24.62,14.9 -43.36,45 -43.36,45 l 116.3,20.9" /><path
         id="path232"
         style="fill:#da9971;fill-opacity:1;fill-rule:nonzero;stroke:none"
         d="m 3951.2,8438.2 c 0,0 27.9,-70.6 39.38,-173.9 11.49,-103.4 27.9,-265.9 27.9,-261 0,4.9 18.06,192 11.49,302 -6.56,109.9 -38.67,172.7 -38.67,172.7 l -40.1,-39.8" /><path
         id="path234"
         style="fill:#da9971;fill-opacity:1;fill-rule:nonzero;stroke:none"
         d="m 4955.2,8768 c -2.27,14.2 -145.7,118.2 -157.19,116.6 -11.49,-1.6 -80.41,-78.8 -80.41,-78.8 0,0 81.76,19.7 90.11,11.5 8.35,-8.2 154.01,-180.4 154.01,-180.4 0,0 3.32,69.5 -6.52,131.1" /><path
         id="path236"
         style="fill:#da9971;fill-opacity:1;fill-rule:nonzero;stroke:none"
         d="m 4699.54,8340.6 c 0,0 22.98,123.1 13.13,137.4 -9.84,14.4 -37.25,63.6 -37.25,63.6 0,0 -18.54,-105 -149.83,-172.3 l 149.83,254.4 c 0,0 74.18,-133 78.28,-145.7 4.1,-12.7 6.57,-86.6 36.11,-138.2 29.54,-51.7 37.74,-93.6 37.74,-93.6 l -128.01,94.4" /><path
         id="path238"
         style="fill:#e8ab82;fill-opacity:1;fill-rule:nonzero;stroke:none"
         d="m 4229.62,8133.9 c -7.18,0 -14.65,0.2 -22.41,0.7 0,0 121.44,40 203.5,156.2 0,0 0.58,-156.9 -181.09,-156.9" /><path
         id="path240"
         style="fill:#da9971;fill-opacity:1;fill-rule:nonzero;stroke:none"
         d="m 6583.54,8794.3 c 0,0 99.89,-85.3 200.93,-111.6 0,0 -151.69,-52.5 -200.93,111.6" /><path
         id="path242"
         style="fill:#fac297;fill-opacity:1;fill-rule:nonzero;stroke:none"
         d="m 7349.94,9369.5 -76.46,209.3 361.34,65 c 0,0 46.22,-10.4 57.29,-42.4 11.08,-32 -54.15,-75.1 -54.15,-75.1 0,0 -38.16,-98.5 -51.7,-117 -13.54,-18.4 -57.44,-121 -57.44,-121 0,0 -106.26,-32.4 -128.41,0 -22.16,32.4 -50.47,81.2 -50.47,81.2" /><path
         id="path244"
         style="fill:#da9971;fill-opacity:1;fill-rule:nonzero;stroke:none"
         d="m 7431.18,9458.9 c -3.7,-5.2 88.01,12.3 97.64,28 12.41,20.1 106.88,45.9 109.14,39.4 l -15.75,-39.4 c 0,0 -64.26,-31.4 -70.41,-28 -6.16,3.4 -120.62,0 -120.62,0" /><path
         id="path246"
         style="fill:#da9971;fill-opacity:1;fill-rule:nonzero;stroke:none"
         d="m 7380.3,9598 c 0,0 60.96,-47.9 100.64,-38.9 39.68,9 42.96,31.9 80.71,33.6 37.74,1.7 66.46,17.3 66.46,17.3 l 31.53,24.4 -24.82,9.4 -254.52,-45.8" /><path
         id="path248"
         style="fill:#da9971;fill-opacity:1;fill-rule:nonzero;stroke:none"
         d="m 3760.83,8911.7 c 0,0 50.87,-0.8 61.54,0 10.67,0.8 41.05,12 46.78,11.3 5.74,-0.7 62.35,-9.9 75.48,0 13.13,10 9.03,17.6 41.03,22.4 32,4.8 32.78,47.8 32.78,47.8 l -247.03,-44.5 -20.43,-30.5 9.85,-6.5" /><path
         id="path250"
         style="fill:#252322;fill-opacity:1;fill-rule:nonzero;stroke:none"
         d="M 2876.89,8854.6 C 2775.67,9440.7 2556.68,9892.2 2387.78,9863 l -205.01,-36.4 47.2,-273.3 c -28.27,-204.9 -18.64,-492.2 35.26,-804.3 53.91,-312.1 141.21,-586 236.56,-769.6 l 47.53,-275.2 205.02,36.4 c 168.9,29.2 223.77,527.9 122.55,1114" /><path
         id="path252"
         style="fill:#3d3c3e;fill-opacity:1;fill-rule:nonzero;stroke:none"
         d="m 2671.87,8818.2 c 101.22,-586.1 46.36,-1084.8 -122.55,-1114 -168.9,-29.2 -387.88,422.3 -489.1,1008.4 -101.22,586.1 -46.36,1084.8 122.55,1114 168.9,29.2 387.88,-422.3 489.1,-1008.4" /><path
         id="path254"
         style="fill:#6b6d6f;fill-opacity:1;fill-rule:nonzero;stroke:none"
         d="m 2404.72,8800 c 22.09,-103.4 -0.87,-195.9 -51.28,-206.7 -50.41,-10.8 -109.18,64.3 -131.27,167.6 -22.1,103.4 0.86,195.9 51.27,206.7 50.41,10.8 109.19,-64.3 131.28,-167.6" /><path
         id="path256"
         style="fill:#929292;fill-opacity:1;fill-rule:nonzero;stroke:none"
         d="m 2333.06,8775.7 c -11.17,59.8 -35.04,105.4 -53.31,102 l -1263.59,-236.1 40.45,-216.5 1263.59,236.2 c 18.27,3.4 24.03,54.6 12.86,114.4" /><path
         id="path258"
         style="fill:#b7b6b6;fill-opacity:1;fill-rule:nonzero;stroke:none"
         d="m 1069.47,8539.5 c 11.17,-59.7 5.41,-110.9 -12.86,-114.4 -18.28,-3.4 -42.15,42.3 -53.32,102.1 -11.169,59.7 -5.407,111 12.87,114.4 18.27,3.4 42.14,-42.3 53.31,-102.1" /><path
         id="path260"
         style="fill:#2e63a1;fill-opacity:1;fill-rule:nonzero;stroke:none"
         d="m 4955.2,8768 c 0,0 121.8,-96.7 238.32,-103.3 116.52,-6.6 246.17,16.4 246.17,16.4 0,0 -139.86,-70.6 -242.25,-80.4 -102.39,-9.9 -235.72,36.2 -235.72,36.2 l -6.52,131.1" /><path
         id="path262"
         style="fill:#2e63a1;fill-opacity:1;fill-rule:nonzero;stroke:none"
         d="m 6499.19,8937.1 c 0,0 -45.3,-26.2 -107.66,-32.8 -62.36,-6.6 -150.98,0 -150.98,0 0,0 69.74,-30 141.54,-46.2 71.8,-16.2 106.27,-30.9 106.27,-30.9 0,0 11.27,73.7 10.83,109.9" /><path
         id="path264"
         style="fill:#fac297;fill-opacity:1;fill-rule:nonzero;stroke:none"
         d="m 3517.2,9073.2 c 0,0 47.52,83 71.31,100.2 23.8,17.3 66.6,10.7 66.6,10.7 0,0 38.43,33.6 72.9,37.7 34.46,4.2 51.69,0 51.69,0 0,0 59.08,21.4 77.95,20.6 18.88,-0.9 46.78,-12.3 46.78,-12.3 0,0 36.92,14.7 73.85,-0.9 36.92,-15.6 31.18,-236.3 19.69,-256 -11.49,-19.7 -54.98,-9 -54.98,-9 0,0 -18.87,-8 -46.77,-15.5 -27.9,-7.5 -50.05,0 -50.05,0 0,0 -19.7,-9.1 -38.57,-9.9 -18.87,-0.9 -36.19,9.9 -36.19,9.9 0,0 -33.56,-28 -56.53,-25.5 -22.98,2.4 -32,23.8 -39.39,45.1 -7.38,21.3 -44.49,124.9 -44.49,124.9 l -113.8,-20" /><path
         id="path266"
         style="fill:#da9971;fill-opacity:1;fill-rule:nonzero;stroke:none"
         d="m 3686.98,9175.1 c 0,0 20.51,-37.1 43.49,-92.4 22.97,-55.3 44.31,-141.5 44.31,-141.5 l 24.61,-5.7 c 0,0 -18.05,78.7 -26.25,100.1 -8.21,21.3 -86.16,139.5 -86.16,139.5" /><path
         id="path268"
         style="fill:#da9971;fill-opacity:1;fill-rule:nonzero;stroke:none"
         d="m 3791.19,9187.4 c 0,0 22.97,-55 32,-96.8 9.03,-41.9 22.98,-141.9 22.98,-141.9 l 22.98,-3.3 c 0,0 -11.5,110.6 -18.88,137.3 -7.39,26.7 -59.08,104.7 -59.08,104.7" /><path
         id="path270"
         style="fill:#da9971;fill-opacity:1;fill-rule:nonzero;stroke:none"
         d="m 3911.81,9201.3 c 0,0 9.85,-80.4 13.95,-101.7 4.1,-21.3 17.23,-135.4 17.23,-135.4 l 24.61,-2.9 c 0,0 -13.12,135 -16.4,140.7 -3.28,5.8 -39.39,99.3 -39.39,99.3" /><path
         id="path272"
         style="fill:#fac297;fill-opacity:1;fill-rule:nonzero;stroke:none"
         d="m 7247.34,9731.1 10.29,52.4 c 0,0 144.83,101.4 156.32,100.5 11.48,-0.8 35.28,-4.1 37.74,-4.1 2.46,0 24.62,11.5 45.13,12.3 20.51,0.9 37.69,-4.1 37.69,-4.1 0,0 32.06,3.5 50.11,4.2 18.05,0.8 34.46,-9.9 34.46,-9.9 0,0 41.85,6.6 59.08,-0.8 17.24,-7.4 41.85,-174.8 35.29,-192 -6.57,-17.3 -40.21,-25.5 -40.21,-25.5 0,0 -9.03,-13.5 -29.54,-20.3 -20.51,-6.7 -41.2,-5.8 -43.58,-6.2 -2.39,-0.5 -16.32,-16.1 -40.12,-19.4 -23.79,-3.3 -42.18,-3.6 -45.13,0 -2.95,3.5 -33.64,-38.6 -65.64,-21.4 -32,17.3 -18.87,62.4 -29.54,91.1 -10.67,28.7 -30.79,68.1 -30.79,68.1 l -141.56,-24.9" /><path
         id="path274"
         style="fill:#da9971;fill-opacity:1;fill-rule:nonzero;stroke:none"
         d="m 7459.9,9851.2 c 4.1,-4.1 28.72,-77.9 41.84,-108.7 13.13,-30.8 13.13,-124.3 13.13,-124.3 l 22.86,-2.3 c 0,0 7.06,57.6 -8.91,109.8 -15.97,52.2 -68.92,125.5 -68.92,125.5" /><path
         id="path276"
         style="fill:#da9971;fill-opacity:1;fill-rule:nonzero;stroke:none"
         d="m 7549.34,9851.2 c 3.28,-0.8 30.36,-60.7 38.56,-100.1 8.21,-39.4 12.22,-113.5 12.22,-113.5 0,0 13.22,-7.9 15.68,-7.9 2.46,0 15.59,62.3 0,118.1 -15.59,55.8 -66.46,103.4 -66.46,103.4" /><path
         id="path278"
         style="fill:#da9971;fill-opacity:1;fill-rule:nonzero;stroke:none"
         d="m 7646.98,9841.4 c 0,0 13.13,-47.6 17.23,-79.6 4.11,-32 9.03,-97.7 9.03,-97.7 l 25.73,10.5 c 0,0 -15.06,83.1 -16.7,100.3 -1.64,17.2 -35.29,66.5 -35.29,66.5" /><path
         id="path280"
         style="fill:#4f5052;fill-opacity:1;fill-rule:nonzero;stroke:none"
         d="m 13964.2,9959.5 c 0,0 -386.5,-88.6 -379.1,-206.8 7.3,-118.1 379.1,-925.5 379.1,-925.5 0,0 519.4,83.2 544,211.4 24.6,128.3 -68.9,507.4 -221.6,630.5 -152.6,123 -322.4,290.4 -322.4,290.4" /><g
         transform="scale(1.16818)"
         id="g282"><path
           id="path284"
           style="fill:#929292;fill-opacity:1;fill-rule:nonzero;stroke:none"
           d="m 15816,10311.1 414.8,53.7 c 0,0 69.2,-66.9 15.4,-171.1 l -506.9,-67.5 76.7,184.9" /></g><g
         transform="scale(1.13834)"
         id="g286"><path
           id="path288"
           style="fill:#252322;fill-opacity:1;fill-rule:nonzero;stroke:none"
           d="m 16265.4,10440.8 c -34.6,477.6 -257.1,850.6 -497,833.2 -239.9,-17.3 -406.3,-418.6 -371.6,-896.2 27.8,-384.26 177.3,-700.79 359.6,-800.81 l -10.2,-41.87 147.6,9.4 c 239.8,17.39 406.2,418.65 371.6,896.28" /></g><g
         transform="scale(1.12639)"
         id="g290"><path
           id="path292"
           style="fill:#3d3c3e;fill-opacity:1;fill-rule:nonzero;stroke:none"
           d="m 16265,10539 c 35,-482.7 -133.2,-888.22 -375.6,-905.8 -242.5,-17.58 -467.3,359.46 -502.3,842.1 -35,482.7 133.2,888.2 375.6,905.8 242.4,17.5 467.3,-359.5 502.3,-842.1" /></g><g
         transform="scale(1.00696)"
         id="g294"><path
           id="path296"
           style="fill:#d5d5d3;fill-opacity:1;fill-rule:nonzero;stroke:none"
           d="m 15977.3,5831.79 239.6,-786.42 -34.2,-166.24 9.7,-288.49 107.6,-107.56 v -92.85 l -567.1,-151.55 c 0,0 -210.3,953.37 -225,1007.19 -14.6,53.73 -155.8,162.17 -55.9,291.27 100,129.21 197.7,588.81 197.7,588.81 l 327.6,-294.16" /></g><g
         transform="scale(1.00099)"
         id="g298"><path
           id="path300"
           style="fill:#161514;fill-opacity:1;fill-rule:nonzero;stroke:none"
           d="m 15866,5173.86 390.5,89.11 43.5,-142.86 -512.7,-133.17 78.7,186.92" /></g><path
         id="path302"
         style="fill:#929292;fill-opacity:1;fill-rule:nonzero;stroke:none"
         d="m 13641.7,7554.5 c 0,0 391.4,108.3 384,108.3 -7.4,0 -105.8,59.1 -105.8,59.1 l -334.8,-71.4 56.6,-96" /><path
         id="path304"
         style="fill:#b7b6b6;fill-opacity:1;fill-rule:nonzero;stroke:none"
         d="m 15880.2,4425.7 c 0,13.1 88.5,792.7 88.5,792.7 l -88.5,421.7 c 0,0 -147.1,-436.5 -150.7,-446.4 -3.6,-9.8 48.9,-436.5 52.2,-475.9 3.3,-39.4 98.5,-292.1 98.5,-292.1" /><path
         id="path306"
         style="fill:#b7b6b6;fill-opacity:1;fill-rule:nonzero;stroke:none"
         d="m 14803.6,6715 44.3,-280.6 -300.3,-246.1 726.6,-654.9 c 0,0 235.5,-42.2 260.5,0 24.9,42.3 125.6,521.9 81.2,664.7 -44.3,142.8 -39.3,241.2 -310.1,379.1 -270.8,137.8 -502.2,137.8 -502.2,137.8" /><path
         id="path308"
         style="fill:#fac297;fill-opacity:1;fill-rule:nonzero;stroke:none"
         d="m 14141.4,9240.7 -84.5,29.3 -94.2,19.8 c 0,0 -201.2,238.2 -312,360.4 -110.7,122.2 -315.1,214.1 -315.1,214.1 0,0 -49.2,270 -160,486.6 -110.7,216.7 -177.2,376.7 -177.2,376.7 l -280.6,-98.5 c 0,0 81.2,-462.8 115.7,-576 34.4,-113.3 147.1,-381.6 153.5,-391.4 6.5,-9.9 200.9,-507.1 279.7,-613 78.8,-105.8 248.6,-204.3 248.6,-204.3 0,0 113.3,-142.8 172.4,-189.6 59,-46.7 103.4,-98.3 177.2,-194.4 73.9,-96 180.2,-214.2 180.2,-214.2 0,0 110.3,-61.5 216.1,73.9 105.9,135.4 128,228.9 81.3,462.7 -46.8,233.9 -201.1,457.9 -201.1,457.9" /><path
         id="path310"
         style="fill:#b7b6b6;fill-opacity:1;fill-rule:nonzero;stroke:none"
         d="m 13617.1,7699.7 320,87 27.1,-87 -347.1,-86.1 v 86.1" /><path
         id="path312"
         style="fill:#161514;fill-opacity:1;fill-rule:nonzero;stroke:none"
         d="m 15087.3,6467.2 c 0,0 -83.5,-32.8 -96.6,-59 -13.2,-26.3 6.5,-177.3 19.7,-193.7 13.1,-16.4 475.9,-200.2 475.9,-200.2 l -399,452.9" /><g
         transform="scale(1.03818)"
         id="g314"><path
           id="path316"
           style="fill:#161514;fill-opacity:1;fill-rule:nonzero;stroke:none"
           d="m 15573.5,5404.95 c 0,0 155.8,-19.65 253.8,-11.75 98,7.9 409.4,97.38 409.4,97.38 0,0 63.3,-38.91 33.2,-113.18 0,0 -306.6,-104.32 -411,-115.39 -104.3,-11.08 -246,13.77 -246,13.77 0,0 -44.9,-4.33 -68.6,43.15 -23.6,47.39 29.2,86.02 29.2,86.02" /></g><g
         transform="scale(1.02569)"
         id="g318"><path
           id="path320"
           style="fill:#929292;fill-opacity:1;fill-rule:nonzero;stroke:none"
           d="m 15829.6,5729.39 c 0,0 288,-167.69 364.8,-171.88 76.7,-4.29 105.6,335.77 105.6,335.77 l -470.4,-163.89" /></g><g
         transform="scale(1.02947)"
         id="g322"><path
           id="path324"
           style="fill:#b7b6b6;fill-opacity:1;fill-rule:nonzero;stroke:none"
           d="m 15640,13067.6 47.8,40.6 562,40.2 c 0,0 50.2,-71.3 11.9,-186 l -621.7,-50.2 v 155.4" /></g><g
         transform="scale(1.01517)"
         id="g326"><path
           id="path328"
           style="fill:#b7b6b6;fill-opacity:1;fill-rule:nonzero;stroke:none"
           d="m 15693.6,11412.7 43,38.5 515.6,49.8 c 0,0 47.8,-64.3 15.3,-170.7 l -570.3,-60.5 -3.6,142.9" /></g><g
         transform="scale(1.00183)"
         id="g330"><path
           id="path332"
           style="fill:#b7b6b6;fill-opacity:1;fill-rule:nonzero;stroke:none"
           d="m 15710.9,9844.4 40.2,39.33 499.6,71.67 c 0,0 49.3,-60.49 22.4,-165.5 l -552.3,-84.34 -9.9,138.84" /></g><g
         transform="scale(1.01271)"
         id="g334"><path
           id="path336"
           style="fill:#b7b6b6;fill-opacity:1;fill-rule:nonzero;stroke:none"
           d="m 16300,15046.2 c 0,0 -233.4,-199.3 -311.1,-559.1 C 15911,14127.3 15386,8555.99 15386,8555.99 l -340.9,199.37 c 0,0 438.1,5403.54 511.1,5709.84 72.8,306.3 204.2,454.6 204.2,454.6 l 539.6,126.4" /></g><path
         id="path338"
         style="fill:#161514;fill-opacity:1;fill-rule:nonzero;stroke:none"
         d="m 12920.4,6614.1 c 7.4,-9.8 108.3,-155.1 100.9,-192 -7.3,-36.9 -278.1,-86.1 -278.1,-86.1 0,0 -34.5,162.4 -27.1,187 7.4,24.7 204.3,91.1 204.3,91.1" /><path
         id="path340"
         style="fill:#929292;fill-opacity:1;fill-rule:nonzero;stroke:none"
         d="m 12913,6482.4 c 0,-22.4 -27.5,-40.6 -61.5,-40.6 -34,0 -61.6,18.2 -61.6,40.6 0,22.5 27.6,40.6 61.6,40.6 34,0 61.5,-18.1 61.5,-40.6" /><path
         id="path342"
         style="fill:#929292;fill-opacity:1;fill-rule:nonzero;stroke:none"
         d="m 12789.9,6523 2053.1,477.6 105.6,295.6 -2321.1,-492.5 162.4,-280.7" /><path
         id="path344"
         style="fill:#707273;fill-opacity:1;fill-rule:nonzero;stroke:none"
         d="m 12607.8,6887.4 2281.9,472.6 101,-54.1 -2412.5,-551.5 29.6,133" /><g
         transform="scale(1.10936)"
         id="g346"><path
           id="path348"
           style="fill:#929292;fill-opacity:1;fill-rule:nonzero;stroke:none"
           d="m 16295.6,5227.63 4.4,-88.79 -4.4,-150.9 -423.9,275.2 v 159.74 l 423.9,-195.25" /></g><g
         transform="scale(1.06473)"
         id="g350"><path
           id="path352"
           style="fill:#d5d5d3;fill-opacity:1;fill-rule:nonzero;stroke:none"
           d="m 16300,13949.2 h -213.9 v 342.1 h 213.9 v -342.1" /></g><path
         id="path354"
         style="fill:#b7b6b6;fill-opacity:1;fill-rule:nonzero;stroke:none"
         d="m 14222.6,7128.6 96,-250 c 0,0 1435.2,-1492.9 1410.6,-1492.9 -24.6,0 -300.3,-29.5 -300.3,-29.5 l -1326.7,1472.1 120.4,300.3" /><g
         transform="scale(1.06576)"
         id="g356"><path
           id="path358"
           style="fill:#636567;fill-opacity:1;fill-rule:nonzero;stroke:none"
           d="m 16300,6557.94 -126.3,-0.84 -49.2,7282.2 126.3,0.9 49.2,-7282.26" /></g><g
         transform="scale(1.08882)"
         id="g360"><path
           id="path362"
           style="fill:#929292;fill-opacity:1;fill-rule:nonzero;stroke:none"
           d="m 16008.4,13842.9 -22.6,-45.2 h -27.2 l 61.1,-7716.32 151.4,-556.21 128.9,8430.83 -291.6,-113.1" /></g><g
         transform="scale(1.07327)"
         id="g364"><path
           id="path366"
           style="fill:#929292;fill-opacity:1;fill-rule:nonzero;stroke:none"
           d="m 11182.8,14213.2 5098.8,233.9 18.4,-314.1 -5117.2,-263.9 v 344.1" /></g><g
         transform="scale(1.07644)"
         id="g368"><path
           id="path370"
           style="fill:#636567;fill-opacity:1;fill-rule:nonzero;stroke:none"
           d="m 16169.7,14087.2 v -130.8 h 61.6 c 0,0 68.7,61.8 66.4,96.1 -2.3,34.3 -66.4,37.8 -66.4,37.8 l -61.6,-3.1" /></g><path
         id="path372"
         style="fill:#929292;fill-opacity:1;fill-rule:nonzero;stroke:none"
         d="m 12172.9,14021.3 3699.1,295.4 c 0,0 88.6,-206.8 0,-443.1 l -3699.1,-354.5 v 502.2" /><path
         id="path374"
         style="fill:#d5d5d3;fill-opacity:1;fill-rule:nonzero;stroke:none"
         d="m 12524.1,4696.5 c -7.4,-4.9 -130.5,-115.7 -130.5,-115.7 l 214.2,-285.6 125.5,-204.3 467.7,258.5 -209.2,329.8 -467.7,17.3" /><path
         id="path376"
         style="fill:#b7b6b6;fill-opacity:1;fill-rule:nonzero;stroke:none"
         d="m 11491.8,15406.4 c -54.1,14.8 -137.8,49.2 -137.8,49.2 l 640.8,-8494.4 -59.1,-73.8 450.5,-2200.8 73.9,-125.5 c 0,0 332.3,0 531.7,118.1 l -891.1,10671.4 -608.9,55.8" /><path
         id="path378"
         style="fill:#161514;fill-opacity:1;fill-rule:nonzero;stroke:none"
         d="m 11354,15455.6 c 0,0 133.7,-252.7 446.4,-284.7 312.6,-32 312.6,120.6 300.3,179.7 -12.3,59.1 -68.9,130.5 -68.9,130.5 l -677.8,-25.5" /><g
         transform="scale(1.11147)"
         id="g380"><path
           id="path382"
           style="fill:#b7b6b6;fill-opacity:1;fill-rule:nonzero;stroke:none"
           d="m 15719.7,14138.8 v -622.3 h 75.3 l 46.5,-8103.95 c 0,0 225.9,-19.88 458.5,33.29 v 8546.76 l -580.3,146.2" /></g><g
         transform="scale(1.06861)"
         id="g384"><path
           id="path386"
           style="fill:#252322;fill-opacity:1;fill-rule:nonzero;stroke:none"
           d="m 16300,10542.4 -238,-0.9 -4,992.8 238.1,1 3.9,-992.9" /></g><g
         transform="scale(1.11223)"
         id="g388"><path
           id="path390"
           style="fill:#161514;fill-opacity:1;fill-rule:nonzero;stroke:none"
           d="m 16189.3,14191.2 c 6.7,-4.4 110.7,-108.4 99.6,-208 0,0 -108.4,-57.6 -289.9,-22.2 -181.5,35.4 -290,168.2 -290,168.2 v 35.4 l 480.3,26.6" /></g><g
         transform="scale(1.12779)"
         id="g392"><path
           id="path394"
           style="fill:#d5d5d3;fill-opacity:1;fill-rule:nonzero;stroke:none"
           d="m 16064.2,5367.07 235.8,-211.74 c 0,0 -244.6,-109.16 -266.4,-100.47 -21.8,8.78 -421.2,279.4 -421.2,279.4 l 451.8,32.81" /></g><g
         transform="scale(1.13231)"
         id="g396"><path
           id="path398"
           style="fill:#161514;fill-opacity:1;fill-rule:nonzero;stroke:none"
           d="m 15937,5054.43 c 0,0 -17.5,-45.83 -19.6,-69.77 -2.2,-23.93 0,-66.76 0,-66.76 0,0 19.5,-44.07 82.6,-52.81 63,-8.66 236.2,55.99 268.1,94.67 31.9,38.68 2.9,131.41 0,153.22 -2.9,21.73 -33.3,21.73 -33.3,21.73 0,0 -262.2,-33.03 -297.8,-80.28" /></g><g
         transform="scale(1.0719)"
         id="g400"><path
           id="path402"
           style="fill:#929292;fill-opacity:1;fill-rule:nonzero;stroke:none"
           d="m 16300,9738.65 c -12.2,9.19 -110.2,110.24 -131.6,137.8 -21.5,27.56 -49,55.11 -49,55.11 0,0 0,-159.22 21.4,-192.91 21.4,-33.67 131.7,-183.72 131.7,-183.72 l 27.5,183.72" /></g><g
         transform="scale(1.0719)"
         id="g404"><path
           id="path406"
           style="fill:#929292;fill-opacity:1;fill-rule:nonzero;stroke:none"
           d="m 16300,9153.27 c -12.2,9.14 -110.2,110.17 -131.6,137.79 -21.5,27.52 -49,55.08 -49,55.08 0,0 0,-159.2 21.4,-192.87 21.4,-33.68 131.7,-183.79 131.7,-183.79 l 27.5,183.79" /></g><g
         transform="scale(1.0719)"
         id="g408"><path
           id="path410"
           style="fill:#929292;fill-opacity:1;fill-rule:nonzero;stroke:none"
           d="m 16300,8616.09 c -12.2,9.14 -110.2,110.18 -131.6,137.79 -21.5,27.52 -49,55.04 -49,55.04 0,0 0,-159.15 21.4,-192.83 21.4,-33.68 131.7,-183.79 131.7,-183.79 l 27.5,183.79" /></g><g
         transform="scale(1.0719)"
         id="g412"><path
           id="path414"
           style="fill:#929292;fill-opacity:1;fill-rule:nonzero;stroke:none"
           d="m 16300,8078.91 c -12.2,9.15 -110.2,110.18 -131.6,137.79 -21.5,27.53 -49,55.14 -49,55.14 0,0 0,-159.25 21.4,-192.93 21.4,-33.68 131.7,-183.69 131.7,-183.69 l 27.5,183.69" /></g><g
         transform="scale(1.0719)"
         id="g416"><path
           id="path418"
           style="fill:#929292;fill-opacity:1;fill-rule:nonzero;stroke:none"
           d="m 16300,7541.74 c -12.2,9.14 -110.2,110.27 -131.6,137.79 -21.5,27.52 -49,55.13 -49,55.13 0,0 0,-159.24 21.4,-192.92 21.4,-33.68 131.7,-183.7 131.7,-183.7 l 27.5,183.7" /></g><g
         transform="scale(1.0719)"
         id="g420"><path
           id="path422"
           style="fill:#929292;fill-opacity:1;fill-rule:nonzero;stroke:none"
           d="m 16300,7004.56 c -12.2,9.24 -110.2,110.27 -131.6,137.79 -21.5,27.62 -49,55.14 -49,55.14 0,0 0,-159.25 21.4,-192.93 21.4,-33.68 131.7,-183.69 131.7,-183.69 l 27.5,183.69" /></g><g
         transform="scale(1.0719)"
         id="g424"><path
           id="path426"
           style="fill:#929292;fill-opacity:1;fill-rule:nonzero;stroke:none"
           d="m 16300,13416.1 c -12.2,9.1 -110.2,110.2 -131.6,137.7 -21.5,27.6 -49,55.2 -49,55.2 0,0 0,-159.3 21.4,-192.9 21.4,-33.7 131.7,-183.8 131.7,-183.8 l 27.5,183.8" /></g><g
         transform="scale(1.0719)"
         id="g428"><path
           id="path430"
           style="fill:#929292;fill-opacity:1;fill-rule:nonzero;stroke:none"
           d="m 16300,12791.4 c -12.2,9.2 -110.2,110.2 -131.6,137.8 -21.5,27.5 -49,55.1 -49,55.1 0,0 0,-159.2 21.4,-192.9 21.4,-33.7 131.7,-183.7 131.7,-183.7 l 27.5,183.7" /></g><g
         transform="scale(1.0719)"
         id="g432"><path
           id="path434"
           style="fill:#929292;fill-opacity:1;fill-rule:nonzero;stroke:none"
           d="m 16300,12166.7 c -12.2,9.2 -110.2,110.3 -131.6,137.8 -21.5,27.6 -49,55.1 -49,55.1 0,0 0,-159.2 21.4,-192.9 21.4,-33.7 131.7,-183.7 131.7,-183.7 l 27.5,183.7" /></g><g
         transform="scale(1.0719)"
         id="g436"><path
           id="path438"
           style="fill:#929292;fill-opacity:1;fill-rule:nonzero;stroke:none"
           d="m 16300,11542.1 c -12.2,9.2 -110.2,110.2 -131.6,137.8 -21.5,27.5 -49,55.1 -49,55.1 0,0 0,-159.2 21.4,-192.9 21.4,-33.7 131.7,-183.8 131.7,-183.8 l 27.5,183.8" /></g><g
         transform="scale(1.0719)"
         id="g440"><path
           id="path442"
           style="fill:#929292;fill-opacity:1;fill-rule:nonzero;stroke:none"
           d="m 16300,10917.4 c -12.2,9.2 -110.2,110.2 -131.6,137.8 -21.5,27.6 -49,55.1 -49,55.1 0,0 0,-159.2 21.4,-192.9 21.4,-33.7 131.7,-183.7 131.7,-183.7 l 27.5,183.7" /></g><g
         transform="scale(1.0719)"
         id="g444"><path
           id="path446"
           style="fill:#929292;fill-opacity:1;fill-rule:nonzero;stroke:none"
           d="m 16300,10292.8 c -12.2,9.1 -110.2,110.2 -131.6,137.7 -21.5,27.6 -49,55.2 -49,55.2 0,0 0,-159.3 21.4,-192.9 21.4,-33.7 131.7,-183.8 131.7,-183.8 l 27.5,183.8" /></g><g
         transform="scale(1.06639)"
         id="g448"><path
           id="path450"
           style="fill:#636567;fill-opacity:1;fill-rule:nonzero;stroke:none"
           d="m 16300,13949.3 h -256.3 v -84.2 h 256.3 v 84.2" /></g><g
         transform="scale(1.06639)"
         id="g452"><path
           id="path454"
           style="fill:#161514;fill-opacity:1;fill-rule:nonzero;stroke:none"
           d="m 16300,13865.1 h -256.3 v -48.5 h 256.3 v 48.5" /></g><g
         transform="scale(1.06271)"
         id="g456"><path
           id="path458"
           style="fill:#252322;fill-opacity:1;fill-rule:nonzero;stroke:none"
           d="m 16300,10601 -239.3,-1 -4,998.4 239.3,0.9 4,-998.3" /></g><path
         id="path460"
         style="fill:#929292;fill-opacity:1;fill-rule:nonzero;stroke:none"
         d="m 12373.2,4750.1 c -9.1,-19.2 -16.5,-225.9 37.6,-312.1 54.2,-86.2 197,-142.8 197,-142.8 l -147.7,265.9 -86.9,189" /><path
         id="path462"
         style="fill:#161514;fill-opacity:1;fill-rule:nonzero;stroke:none"
         d="m 13014,4354.3 c -17.6,-3.8 -241.3,-83.7 -265.9,-113.2 -24.6,-29.6 -14.8,-150.2 -14.8,-150.2 0,0 0,-78.8 101,-76.3 100.9,2.5 369.2,91.1 401.2,142.8 32,51.7 -34.5,192 -34.5,192 0,0 -29.5,39.4 -187,4.9" /><path
         id="path464"
         style="fill:#d5d5d3;fill-opacity:1;fill-rule:nonzero;stroke:none"
         d="m 13530.1,7711.2 105,29.5 101.8,-423.4 216.6,-249.4 -252.3,45.9 -46.4,141.2 -124.7,456.2" /><path
         id="path466"
         style="fill:#b7b6b6;fill-opacity:1;fill-rule:nonzero;stroke:none"
         d="m 13801.9,7675.1 151.6,-554.7 226.5,62.4 -203.5,201.8 -78.8,356.1 -95.8,-65.6" /><path
         id="path468"
         style="fill:#707273;fill-opacity:1;fill-rule:nonzero;stroke:none"
         d="m 13858.3,7813 49.2,-210.1 659.8,187.1 -147.7,180.5 -561.3,-157.5" /><path
         id="path470"
         style="fill:#161514;fill-opacity:1;fill-rule:nonzero;stroke:none"
         d="m 13529.2,7648.7 c 5.9,-25.9 -5,-50.4 -24.3,-54.9 -19.3,-4.4 -39.8,13 -45.7,38.8 -5.9,25.9 4.9,50.4 24.3,54.8 19.3,4.5 39.8,-12.9 45.7,-38.7" /><path
         id="path472"
         style="fill:#161514;fill-opacity:1;fill-rule:nonzero;stroke:none"
         d="m 13625.1,7674.7 c -3.8,16.7 -17.8,27.7 -31.4,24.7 l -99.5,-30.2 4.7,-55.6 108.3,25.3 c 13.6,3.1 21.6,19.1 17.9,35.8" /><path
         id="path474"
         style="fill:#d5d5d3;fill-opacity:1;fill-rule:nonzero;stroke:none"
         d="m 13871.4,7051.5 22.6,-271.6 1555.3,-1758.5 c 0,0 -15.5,315.1 -20.4,334.8 -5,19.7 -1326.7,1472.1 -1326.7,1472.1 l -148.7,239.6 -82.1,-16.4" /><g
         transform="scale(1.03325)"
         id="g476"><path
           id="path478"
           style="fill:#4f5052;fill-opacity:1;fill-rule:nonzero;stroke:none"
           d="m 13755.5,7828.64 c 0,0 548,-1301.05 571.8,-1329.7 23.8,-28.55 1086.4,-838.62 1086.4,-838.62 0,0 195.4,-38.04 266.8,-33.29 71.5,4.74 590.9,123.88 605.2,142.95 14.3,19.06 14.3,219.21 -33.4,271.57 -47.6,52.45 -1658.2,1992.26 -1682,1982.49 -23.8,-9.78 -814.8,-195.4 -814.8,-195.4" /></g><path
         id="path480"
         style="fill:#929292;fill-opacity:1;fill-rule:nonzero;stroke:none"
         d="m 11935.7,6887.4 450.5,-2200.8 -1032.2,10769 640.8,-8494.4 -59.1,-73.8" /><g
         transform="scale(1.06103)"
         id="g482"><path
           id="path484"
           style="fill:#b7b6b6;fill-opacity:1;fill-rule:nonzero;stroke:none"
           d="m 16300,14613.8 c 0,0 -62.7,-48.7 -90.5,-132.3 -27.8,-83.5 0,-199.9 0,-199.9 l -136.8,-7 c 0,0 -27.8,132.7 0,216.2 27.8,83.5 69.5,108 69.5,108 0,0 65,52.1 157.8,15" /></g><g
         transform="scale(1.05257)"
         id="g486"><path
           id="path488"
           style="fill:#161514;fill-opacity:1;fill-rule:nonzero;stroke:none"
           d="m 16300,14558.2 c 0,-27.2 -17.2,-49.1 -38.6,-49.1 -21.2,0 -38.5,21.9 -38.5,49.1 0,27.1 17.3,49.1 38.5,49.1 21.4,0 38.6,-22 38.6,-49.1" /></g><path
         id="path490"
         style="fill:#b7b6b6;fill-opacity:1;fill-rule:nonzero;stroke:none"
         d="m 15729.2,8320.1 c 14.7,9.8 356.9,49.2 356.9,49.2 0,0 54.2,-64 29.6,-142.8 l -344.7,-61.5 -41.8,155.1" /><path
         id="path492"
         style="fill:#b7b6b6;fill-opacity:1;fill-rule:nonzero;stroke:none"
         d="m 10789,12933.2 -10.8,42.1 776,64.6 14.8,-216.6 -769.3,-64.8 -10.7,174.7" /><path
         id="path494"
         style="fill:#d8d7d5;fill-opacity:1;fill-rule:nonzero;stroke:none"
         d="m 10825.9,12870.5 c 5.9,-59.8 -5.8,-110 -26.2,-112 -20.3,-2 -41.7,44.9 -47.6,104.7 -5.9,59.9 5.7,110.1 26.1,112.1 20.4,2 41.7,-44.9 47.7,-104.8" /><path
         id="path496"
         style="fill:#b7b6b6;fill-opacity:1;fill-rule:nonzero;stroke:none"
         d="m 11800.9,9193.9 -693.4,-84.8 11.8,-39.9 16.8,-167.1 664.8,82 v 209.8" /><path
         id="path498"
         style="fill:#d8d7d5;fill-opacity:1;fill-rule:nonzero;stroke:none"
         d="m 11157,9010.5 c 7.9,-57.2 -1.4,-105.7 -20.9,-108.4 -19.4,-2.7 -41.6,41.5 -49.5,98.6 -7.9,57.2 1.4,105.7 20.9,108.4 19.4,2.7 41.6,-41.5 49.5,-98.6" /><path
         id="path500"
         style="fill:#b7b6b6;fill-opacity:1;fill-rule:nonzero;stroke:none"
         d="m 11234.6,7355.6 -13.2,35.7 669.6,126.3 32.4,-187.3 -663.7,-125.8 -25.1,151.1" /><path
         id="path502"
         style="fill:#d8d7d5;fill-opacity:1;fill-rule:nonzero;stroke:none"
         d="m 11272.3,7304.4 c 10.6,-51.6 4.9,-96.3 -12.6,-99.9 -17.6,-3.6 -40.4,35.3 -50.9,86.9 -10.6,51.6 -5,96.3 12.6,99.9 17.5,3.6 40.3,-35.3 50.9,-86.9" /><path
         id="path504"
         style="fill:#161514;fill-opacity:1;fill-rule:nonzero;stroke:none"
         d="m 11469.8,13032.9 63.7,43.5 h 48.5 l 26.8,-279.3 -53.8,-6.3 -61.1,26.1 -24.1,216" /><path
         id="path506"
         style="fill:#161514;fill-opacity:1;fill-rule:nonzero;stroke:none"
         d="m 11596,10984.8 87.2,107.3 92.7,-38.5 24.7,-257 -94.5,-8.5 -63.3,37.9 -46.8,158.8" /><path
         id="path508"
         style="fill:#161514;fill-opacity:1;fill-rule:nonzero;stroke:none"
         d="m 11947,7594.9 c 0,0 -72.8,-33 -76.9,-41.2 -4.1,-8.2 -16.1,-43.1 -16.1,-43.1 l 42.9,-212.7 h 26.5 c 0,0 16.4,24.4 24.7,26 8.2,1.6 144.4,23 144.4,27.9 0,4.9 0,118.2 0,118.2 0,0 -112.2,62.3 -119.3,67.2 -7.1,5 -26.2,57.7 -26.2,57.7" /><path
         id="path510"
         style="fill:#161514;fill-opacity:1;fill-rule:nonzero;stroke:none"
         d="m 11822.2,9251.4 c 0,0 -72.8,-33 -76.9,-41.2 -4.1,-8.2 -16.1,-43.1 -16.1,-43.1 l 42.9,-212.7 h 26.5 c 0,0 16.5,24.4 24.7,26 8.2,1.7 124.5,17.2 124.5,22.1 0,4.9 -14.5,137.3 -14.5,137.3 0,0 -77.8,49.1 -84.9,54 -7.1,4.9 -26.2,57.6 -26.2,57.6" /><path
         id="path512"
         style="fill:#161514;fill-opacity:1;fill-rule:nonzero;stroke:none"
         d="m 16058.8,13535.8 -8.5,-81.3 c 0,0 -119.3,-75.7 -116.8,-129.9 2.5,-54.1 94,-90.6 94,-90.6 0,0 110.3,-20.1 122.6,70.9 12.3,91.1 0,189.6 0,189.6 l -91.3,41.3" /><path
         id="path514"
         style="fill:#161514;fill-opacity:1;fill-rule:nonzero;stroke:none"
         d="m 15861.9,11579.7 c 0,0 -104.8,-98.9 -116.3,-125.1 -11.5,-26.3 -9.9,-57.5 13.1,-70.6 23,-13.1 162.2,3.3 173,11.5 10.8,8.2 26.3,37.9 25.9,47.7 -0.3,9.7 17.8,181.7 17.8,181.7 l -108.3,7.1 -5.2,-52.3" /><path
         id="path516"
         style="fill:#161514;fill-opacity:1;fill-rule:nonzero;stroke:none"
         d="m 15702.3,9933.2 77.6,-31.4 -21.2,-53.4 c 0,0 21.4,-120.3 -1.6,-161.3 -23,-41 -208.4,-47.6 -205.2,0 3.3,47.6 141.6,154.2 141.6,154.2 l 8.8,91.9" /><path
         id="path518"
         style="fill:#b7b6b6;fill-opacity:1;fill-rule:nonzero;stroke:none"
         d="m 10949.1,10903.6 -11.3,40.1 742.7,79.4 19,-207.4 -736.2,-79.4 -14.2,167.3" /><path
         id="path520"
         style="fill:#d8d7d5;fill-opacity:1;fill-rule:nonzero;stroke:none"
         d="m 10985.8,10844.3 c 7.1,-57.2 -3,-105.6 -22.5,-108 -19.5,-2.4 -41,42.1 -48,99.4 -7.1,57.2 3,105.6 22.5,108 19.5,2.4 41,-42.1 48,-99.4" /><g
         transform="scale(1.09877)"
         id="g522"><path
           id="path524"
           style="fill:#fac297;fill-opacity:1;fill-rule:nonzero;stroke:none"
           d="m 15403.8,5614.11 230.8,-62.8 c 0,0 -141.1,-165.73 -192.7,-306.88 -51.6,-141.16 0,-331.56 -38.1,-598.22 -38,-266.57 -94.1,-404.73 -147.9,-473.44 -53.7,-68.72 -62.7,-185.21 73.3,-261.39 135.9,-76.17 189.7,-32.85 252.4,-115.03 62.7,-82.09 126.9,-195.31 179.5,-229.99 52.7,-34.76 116.5,-33.58 135.6,-42.59 19,-8.92 39.6,-89.56 132.9,-93.29 93.4,-3.82 87.4,77.64 87.4,77.64 0,0 25.4,6.73 27.6,34.31 0,0 12.7,29.12 0,53.06 0,0 9,20.2 -5.1,41.04 0,0 14.1,12.02 -6.8,45.6 -20.9,33.58 -107.6,141.15 -213.6,211.32 -106,70.18 -233,203.14 -256.9,256.93 -23.9,53.7 53.8,195.67 110.6,313.63 56.7,117.94 278.5,522.76 321.1,670.66 42.5,147.8 165.8,293.41 185.9,445.77 20.2,152.35 -20.1,289.05 -107.5,396.53 -87.4,107.58 -219.6,192.77 -248.7,224.07 -29.1,31.4 -85.1,138.89 -85.1,138.89 0,0 -230.8,-20.12 -322.7,-94.11 -91.8,-73.9 -138.8,-232.99 -134.4,-340.47 4.5,-107.58 22.4,-291.24 22.4,-291.24" /></g><path
         id="path526"
         style="fill:#fac297;fill-opacity:1;fill-rule:nonzero;stroke:none"
         d="m 15923.3,6306.4 c 0,0 68.1,-346.3 59.9,-502.2 -8.2,-155.9 -83.7,-336.4 -95.2,-361 -11.5,-24.6 -62.3,-315.1 -64,-361.1 -1.6,-45.9 87,-648.2 108.3,-740.1 21.4,-91.9 23,-236.3 23,-236.3 0,0 54.2,-279.3 87,-336.6 31.9,-55.7 98,-185.3 102.3,-273.9 0.2,-2.5 0.2,-5 0.3,-7.4 0.8,-88.6 39.3,-87 18.8,-152.6 -20.5,-65.7 -130.4,-23 -130.4,-23 0,0 -23.8,-12.5 -57.5,-13.6 -33.6,-1.2 -57.4,16.1 -57.4,16.1 0,0 -38.6,-14 -60.7,0.8 -22.2,14.8 -33.7,23.8 -33.7,23.8 0,0 -31.2,2.4 -42.7,9.8 -11.4,7.4 -17.2,13.2 -22.1,14 -4.9,0.8 -9.9,-16.4 -41,5.7 -31.2,22.2 -52.5,81.3 -53.4,84.5 -0.8,3.3 -55.4,22.2 -83.7,165 -28.3,142.7 34.5,365.9 16.4,471 -18,105 -34.4,119.8 -37.7,178.9 -3.3,59 0,114.8 0,114.8 0,0 30.2,37.8 -135.5,347.9 -165.6,310.2 -126.3,662.2 -79.5,807.5 46.8,145.2 56.7,179.3 56.7,179.3 0,0 -224.1,272.8 -211.8,296.6 12.3,23.8 172.3,287.2 216.7,304.4 44.3,17.3 100.7,-14.7 273.1,17.3 172.4,32 243.8,-29.6 243.8,-29.6" /><g
         transform="scale(1.06766)"
         id="g528"><path
           id="path530"
           style="fill:#252322;fill-opacity:1;fill-rule:nonzero;stroke:none"
           d="m 13837.5,7022.77 c 0,0 182.2,76.05 327.4,108.36 145.2,32.22 387.3,80.65 583.4,133.66 195.9,53.11 253.6,64.63 262.8,64.63 9.2,0 106,-168.31 149.9,-198.29 43.8,-29.97 352.7,-78.39 594.8,-191.45 242.1,-112.95 544.2,-415.01 544.2,-415.01 0,0 -209.8,-147.52 -299.7,-285.87 -90,-138.34 -147.6,-461.1 -147.6,-461.1 0,0 -309,179.84 -468.1,244.37 -159.1,64.53 -154.4,71.46 -226,82.98 -71.4,11.53 -262.8,-6.93 -262.8,-6.93 l 18.5,-191.35 c 0,0 -184.5,4.59 -348.2,-59.94 -163.7,-64.54 -339,-213.65 -339,-213.65 0,0 -171.9,350.58 -226.5,529.95 -54.7,179.45 -82.4,359.29 -84.7,393.85 -2.3,34.56 -52.4,324.35 -52.4,324.35 l -26,141.44" /></g><path
         id="path532"
         style="fill:#100f0d;fill-opacity:1;fill-rule:nonzero;stroke:none"
         d="m 15652.5,7035.1 c 0,0 83.7,-78.8 142.8,-204.4 59.1,-125.5 108.3,-320 108.3,-320 l 280.6,7.4 c 0,0 -34.4,64 -61.5,150.2 -27.1,86.1 49.2,347.1 49.2,347.1 0,0 -86.1,-177.3 -182.1,-179.7 -96,-2.5 -184.7,160 -337.3,199.4" /><g
         transform="scale(1.07117)"
         id="g534"><path
           id="path536"
           style="fill:#da9971;fill-opacity:1;fill-rule:nonzero;stroke:none"
           d="m 16288,5712.75 c 12,8.12 -156.3,-20.63 -250.5,-18.39 l -35.1,-43.6 c 0,0 145.3,-32.21 285.6,61.99" /></g><g
         transform="scale(1.08855)"
         id="g538"><path
           id="path540"
           style="fill:#da9971;fill-opacity:1;fill-rule:nonzero;stroke:none"
           d="m 16296.1,3629.23 c 0,0 3.9,8.72 2.5,20.75 -25.9,19.76 -66,50.81 -74.1,53.84 -12,4.59 71.6,-74.59 71.6,-74.59" /></g><g
         transform="scale(1.08845)"
         id="g542"><path
           id="path544"
           style="fill:#da9971;fill-opacity:1;fill-rule:nonzero;stroke:none"
           d="m 16292.5,3671.01 c 0,0 7.5,6.52 3.5,23.15 -23.3,14.79 -55.3,35.37 -59.8,38.68 -7,5.33 56.3,-61.83 56.3,-61.83" /></g><g
         transform="scale(1.08867)"
         id="g546"><path
           id="path548"
           style="fill:#da9971;fill-opacity:1;fill-rule:nonzero;stroke:none"
           d="m 16204.9,3682.94 c 4.4,-5.14 89.5,-107.66 89.5,-107.66 0,0 5,11.39 5.6,25.82 -32.8,27.92 -91.8,78.26 -95.1,81.84" /></g><g
         transform="scale(1.08769)"
         id="g550"><path
           id="path552"
           style="fill:#da9971;fill-opacity:1;fill-rule:nonzero;stroke:none"
           d="m 16148.3,3675.12 c -7.5,2.94 132.8,-131.29 132.8,-131.29 0,0 10.7,2.85 18.9,12.5 -44.2,35.4 -145.8,116.4 -151.7,118.79" /></g><path
         id="path554"
         style="fill:#da9971;fill-opacity:1;fill-rule:nonzero;stroke:none"
         d="m 15637.8,5609.8 c 0,0 29.7,-82.8 140.3,-105.9 0,0 -145.3,-51.7 -140.3,105.9" /><g
         transform="scale(1.06079)"
         id="g556"><path
           id="path558"
           style="fill:#da9971;fill-opacity:1;fill-rule:nonzero;stroke:none"
           d="m 16071.7,4999.98 c 0,0 116.5,-39.88 228.3,54.2 0,0 -54.3,-193.35 -228.3,-54.2" /></g><path
         id="path560"
         style="fill:#da9971;fill-opacity:1;fill-rule:nonzero;stroke:none"
         d="m 15824.5,3501.3 c -0.4,2.5 -0.5,-162 -0.5,-162 0,0 10.6,-8.3 31,-22 -10.8,61.7 -30.3,182.2 -30.5,184" /><path
         id="path562"
         style="fill:#da9971;fill-opacity:1;fill-rule:nonzero;stroke:none"
         d="m 15906.1,3519.2 c -1.4,1.8 8.3,-131.4 14.2,-205.8 5.5,-3.5 22.5,-13 45.7,-14.6 -18.8,70.2 -58.5,218.5 -59.9,220.4" /><path
         id="path564"
         style="fill:#da9971;fill-opacity:1;fill-rule:nonzero;stroke:none"
         d="m 15749.1,3498.9 5,-132.3 -1.9,-7.2 c 3.3,1.7 5.1,4 7,3.7 4,-0.7 8.6,-4.7 16.4,-10.1 l -26.5,145.9" /><path
         id="path566"
         style="fill:#da9971;fill-opacity:1;fill-rule:nonzero;stroke:none"
         d="m 15992.3,3541 c 1.8,-8.7 30.3,-157.8 42.5,-229.4 7.5,-2.7 41.6,-14.3 73.4,-12.9 -52.9,43.4 -113.8,232.7 -115.9,242.3" /><g
         transform="scale(1.02826)"
         id="g568"><path
           id="path570"
           style="fill:#fac297;fill-opacity:1;fill-rule:nonzero;stroke:none"
           d="m 16121.3,11055.1 -47.7,-40.8 c 0,0 -97.6,-280.3 -207.7,-458.5 -110.2,-178.2 -162.8,-290.7 -179.7,-364.9 -16.7,-74.2 -26.2,-181.9 -26.2,-181.9 0,0 -117.4,-112.55 -191.6,-201.14 -74.2,-88.56 -177.1,-244.17 -177.1,-244.17 0,0 -205.9,-83.83 -275.3,-153.26 -69.4,-69.44 -165.2,-169.9 -165.2,-169.9 l -186.8,-45.51 466.8,-553.08 c 0,0 83.9,-76.53 83.9,-57.37 0,19.15 126.8,241.76 126.8,241.76 0,0 225.1,162.8 366.3,335.13 141.2,172.43 299.3,576.99 299.3,576.99 0,0 112.5,153.2 170,347.15 57.5,193.9 76.2,648.7 79.9,670.3 3.8,21.5 43,278.7 43,278.7 l -178.7,20.5" /></g><path
         id="path572"
         style="fill:#da9971;fill-opacity:1;fill-rule:nonzero;stroke:none"
         d="m 15547.1,9026.6 c 16.4,19.6 171.4,342.9 171.4,342.9 l 236.4,206 c 0,0 -172.5,-231.4 -179.8,-238.8 -7.3,-7.4 -114,-354.5 -114,-354.5 l -114,44.4" /><path
         id="path574"
         style="fill:#3970bf;fill-opacity:1;fill-rule:nonzero;stroke:none"
         d="m 14177.2,9317 -120.3,-47 c 0,0 94.9,-262.3 120.3,-541.3 25.4,-279 -132.1,-482.5 -132.1,-482.5 0,0 91.4,-168.2 281.3,-295.3 189.9,-127.1 355.4,-226.2 371.8,-251 16.5,-24.8 34.5,-144.6 41.1,-159.4 6.5,-14.7 36.1,-42.6 36.1,-42.6 0,0 462.8,-59.1 502.2,-49.3 39.3,9.9 233.8,61.6 320,105.9 86.1,44.3 430.8,270.8 430.8,270.8 0,0 27,41.8 0,110.7 -27.1,69 -101.9,200.5 -126.1,256.6 -24.1,56.1 -75.8,196.4 -90.6,309.6 -14.7,113.3 -105.8,325 -105.8,325 0,0 -20.2,155 -44.8,256 -24.6,100.9 -119.8,301.9 -277.3,349.5 -157.6,47.6 -280.7,43.5 -346.3,36.1 -65.7,-7.3 -860.3,-151.8 -860.3,-151.8" /><path
         id="path576"
         style="fill:#252322;fill-opacity:1;fill-rule:nonzero;stroke:none"
         d="m 13969.6,9752.7 c -14.8,8.3 -73.9,16.5 -73.9,16.5 0,0 -62.3,108.3 -52.5,190.3 9.9,82.1 24.6,118.2 24.6,123.1 0,4.9 -14.7,142.8 82.1,241.3 96.8,98.4 277.3,141.1 377.4,103.4 100.2,-37.8 141.8,-142.2 141.8,-142.2 0,0 -230.4,-246.8 -243.5,-310.8 -13.1,-64 -50.8,-189.9 -86.9,-199.2 -36.2,-9.2 -57.5,-19.1 -92,-22.4 -34.4,-3.2 -77.1,0 -77.1,0" /><path
         id="path578"
         style="fill:#fac297;fill-opacity:1;fill-rule:nonzero;stroke:none"
         d="m 14007.3,9719.1 c 0,-7.4 0,-84.6 0,-84.6 0,0 175.6,-175.5 201.9,-208.3 26.2,-32.9 -32,-109.2 -32,-109.2 0,0 297.8,-93.5 487.4,-179.7 189.5,-86.1 329.9,-160 440.6,-115.7 110.8,44.3 -67.7,447.2 -67.7,447.2 0,0 -85.2,4.5 -134.4,19.3 -49.2,14.7 -239.3,226.9 -239.3,226.9 0,0 -65.2,79.9 -194.7,78.5 -129.4,-1.4 -422.4,-40.8 -422.4,-40.8 l -39.4,-33.6" /><path
         id="path580"
         style="fill:#fac297;fill-opacity:1;fill-rule:nonzero;stroke:none"
         d="m 14013.9,9810.2 c 0,0 -70.6,8.2 -106.7,-23 -36.1,-31.2 1.7,-123.1 53.4,-147.7 51.7,-24.6 148.5,49.2 148.5,49.2 0,0 110.2,-43.9 181.5,-44.9 71.2,-1 361.7,53.2 373.2,71.2 11.5,18.1 27.9,137.9 11.5,203.5 -16.4,65.6 -32.9,132.9 -69,182.2 -36.1,49.2 -44.3,55.8 -57.4,77.1 -13.1,21.3 -52.5,98.5 -134.6,151 -82,52.5 -154.2,49.2 -231.4,32.8 -77.1,-16.4 -192,-126.4 -198.5,-137.8 -6.6,-11.5 -14.8,-144.5 -14.8,-144.5 0,0 16.4,-101.7 24.6,-129.6 8.2,-27.9 93.5,-152.6 93.5,-152.6 0,0 -16.4,-16.5 -27.9,-6.6 -11.4,9.8 -45.9,19.7 -45.9,19.7" /><path
         id="path582"
         style="fill:#fbd9c3;fill-opacity:1;fill-rule:nonzero;stroke:none"
         d="m 13928.6,9708.4 c -31.9,68.7 9.4,95.1 9.8,95.3 -11.5,-3.6 -22.3,-8.9 -31.2,-16.5 -36.1,-31.2 1.7,-123.1 53.4,-147.7 34.9,-16.6 90.5,11.7 122.8,31.9 0,0 -122.8,-31.9 -154.8,37" /><path
         id="path584"
         style="fill:#da9971;fill-opacity:1;fill-rule:nonzero;stroke:none"
         d="m 14237.4,9650.3 c 148.8,8.2 181,58.1 282,85.2 100.9,27.1 144.4,-20.5 144.4,-20.5 11.5,18.1 27.9,137.9 11.5,203.5 -2.6,10.4 -5.3,20.9 -8,31.3 -100.2,-3.6 -235.9,-37.8 -307.9,-101.4 -81.3,-71.7 -250.3,-159.7 -250.3,-159.7 0,0 65.5,-26 128.2,-38.5 l 0.1,0.1" /><path
         id="path586"
         style="fill:#252322;fill-opacity:1;fill-rule:nonzero;stroke:none"
         d="m 11922.5,11039.6 c -89,632.7 -309,1124.8 -491.3,1099.1 l -221.3,-32.1 41.5,-295.1 c -37.3,-219 -36.6,-527.8 10.9,-864.8 47.4,-336.9 131.9,-633.9 228.1,-834.1 l 41.8,-297.1 221.4,32.1 c 182.3,25.7 257.9,559.4 168.9,1192" /><path
         id="path588"
         style="fill:#3d3c3e;fill-opacity:1;fill-rule:nonzero;stroke:none"
         d="m 11701.2,11007.4 c 89,-632.6 13.3,-1166.3 -169,-1191.9 -182.3,-25.7 -402.3,466.4 -491.3,1099.1 -89,632.6 -13.4,1166.3 169,1192 182.3,25.6 402.3,-466.5 491.3,-1099.2" /><path
         id="path590"
         style="fill:#6b6d6f;fill-opacity:1;fill-rule:nonzero;stroke:none"
         d="m 11413.7,10996.8 c 20.3,-111.7 -7.5,-210.3 -62,-220.2 -54.5,-9.9 -115,72.7 -135.3,184.4 -20.2,111.8 7.5,210.3 62,220.2 54.5,9.9 115.1,-72.7 135.3,-184.4" /><path
         id="path592"
         style="fill:#929292;fill-opacity:1;fill-rule:nonzero;stroke:none"
         d="m 11336,10973.2 c -10,64.5 -34.1,114.3 -53.8,111.3 l -1364.67,-211.2 36.17,-233.7 1364.6,211.2 c 19.8,3 27.7,57.8 17.7,122.4" /><path
         id="path594"
         style="fill:#b7b6b6;fill-opacity:1;fill-rule:nonzero;stroke:none"
         d="m 9971.35,10762 c 9.99,-64.6 2.09,-119.4 -17.65,-122.4 -19.74,-3.1 -43.83,46.8 -53.82,111.3 -9.99,64.6 -2.08,119.4 17.65,122.4 19.74,3.1 43.84,-46.8 53.82,-111.3" /><g
         transform="scale(1.0368)"
         id="g596"><path
           id="path598"
           style="fill:#fac297;fill-opacity:1;fill-rule:nonzero;stroke:none"
           d="m 15946.6,10900 -61,271.7 348.4,62.7 c 0,0 44.6,-10.1 55.3,-41 10.7,-30.8 -52.3,-72.4 -52.3,-72.4 0,0 -36.7,-128 -49.8,-145.8 -13,-17.8 -55.4,-83.7 -55.4,-83.7 0,0 -102.5,-31.3 -123.9,0 -21.4,31.3 -61.3,8.5 -61.3,8.5" /></g><g
         transform="scale(1.03279)"
         id="g600"><path
           id="path602"
           style="fill:#da9971;fill-opacity:1;fill-rule:nonzero;stroke:none"
           d="m 16099.9,11098.9 c -3.6,-5.1 78.2,20 94.5,27.1 16.2,7.2 105.6,38.2 105.6,38.2 l -15.2,-38.2 c 0,0 -62.3,-30.4 -68.2,-27.1 -6,3.3 -116.7,0 -116.7,0" /></g><g
         transform="scale(1.03412)"
         id="g604"><path
           id="path606"
           style="fill:#da9971;fill-opacity:1;fill-rule:nonzero;stroke:none"
           d="m 16029.9,11219.2 c 0,0 58.9,-46.4 97.3,-37.7 38.4,8.8 41.6,30.9 78,32.5 36.6,1.7 64.3,16.7 64.3,16.7 l 30.5,23.7 -24,9 -246.1,-44.2" /></g><g
         transform="scale(1.00691)"
         id="g608"><path
           id="path610"
           style="fill:#da9971;fill-opacity:1;fill-rule:nonzero;stroke:none"
           d="m 16116.7,10238.3 c 0,0 95.3,-48.9 183.3,-26.9 0,0 -95.3,-83.1 -183.3,26.9" /></g><path
         id="path612"
         style="fill:#da9971;fill-opacity:1;fill-rule:nonzero;stroke:none"
         d="m 13184.8,9667.9 c 0,0 104.6,26.5 156.4,101.7 0,0 -16.7,-126.2 -156.4,-101.7" /><path
         id="path614"
         style="fill:#fbd9c3;fill-opacity:1;fill-rule:nonzero;stroke:none"
         d="m 15721,9803.2 v -55.4 c 0,0 156.3,243.7 208,316.3 28.9,40.6 64.2,99.8 89.8,144.3 -36.8,-37.8 -79.4,-83 -113.2,-123.3 -76.3,-91.1 -182.1,-251.1 -182.1,-251.1 0,0 -211.7,-86.2 -283.1,-157.6 -71.4,-71.4 -169.9,-174.7 -169.9,-174.7 0,0 190.8,172.4 288,221.6 97.3,49.1 162.5,79.9 162.5,79.9" /><path
         id="path616"
         style="fill:#da9971;fill-opacity:1;fill-rule:nonzero;stroke:none"
         d="m 13777.4,9090.6 267.7,-266.6 128.8,-62.9 -18.3,113.7 c 0,0 -106.8,18 -110.5,22.9 -3.8,5 -267.7,192.9 -267.7,192.9" /><path
         id="path618"
         style="fill:#f0d3bf;fill-opacity:1;fill-rule:nonzero;stroke:none"
         d="m 13864.9,8460.4 c -48.1,62.6 -83.6,106.3 -118.9,142 35.3,-35.7 70.8,-79.4 118.9,-141.9 v -0.1 m -229.1,243.8 c -56.8,59.9 -120.5,140.2 -120.5,140.2 v 0 0 c 0,0 63.7,-80.3 120.5,-140.2" /><path
         id="path620"
         style="fill:#ecaf85;fill-opacity:1;fill-rule:nonzero;stroke:none"
         d="m 13864.9,8460.5 c -48.1,62.5 -83.6,106.2 -118.9,141.9 -18.9,19.2 -37.7,36.1 -58.3,52.4 -14.8,11.7 -33,29.4 -51.9,49.4 -56.8,59.9 -120.5,140.2 -120.5,140.2 v 0 l -150.1,233.9 226.5,-203.5 273.2,-414.3" /><path
         id="path622"
         style="fill:#fbd9c3;fill-opacity:1;fill-rule:nonzero;stroke:none"
         d="m 13249.5,10023.6 c 49.2,-142.8 49.2,-159.3 49.2,-159.3 0,0 -12.3,-100.1 -2.4,-78.7 9.8,21.3 28.7,46.7 36.1,44.3 6.5,-2.2 195.8,-89.8 238.8,-107.2 -108.2,84.3 -235.6,141.6 -235.6,141.6 0,0 -49.2,270 -160,486.6 -48.8,95.5 -89,180 -118.7,244.6 0,-0.1 143.4,-429 192.6,-571.9" /><g
         transform="scale(1.05373)"
         id="g624"><path
           id="path626"
           style="fill:#929292;fill-opacity:1;fill-rule:nonzero;stroke:none"
           d="m 11811.8,10637.8 4457.1,584.7 c 0,0 31.1,-93.1 0,-149.4 l -4442,-615.6 -15.1,180.3" /></g><path
         id="path628"
         style="fill:#fac297;fill-opacity:1;fill-rule:nonzero;stroke:none"
         d="m 12998.4,10727.6 c 0,0 7.4,114.8 33.6,154.2 26.3,39.4 106.7,87 110,137.9 3.3,50.9 -71.8,83.9 -71.8,83.9 l -475.4,-65.8 c 0,0 7.3,-96.9 35.2,-165.8 27.9,-68.9 87.8,-242.9 87.8,-242.9 0,0 92.7,-39.4 140.3,-21.3 47.6,18 140.3,119.8 140.3,119.8" /><path
         id="path630"
         style="fill:#da9971;fill-opacity:1;fill-rule:nonzero;stroke:none"
         d="m 12820.3,11069 c 0,0 -24.6,-28 19.7,-65.7 44.3,-37.8 188.8,-50.9 188.8,-50.9 0,0 -157.6,-11.5 -178.9,0 -21.4,11.5 -52.5,55.8 -52.5,55.8 0,0 -47.6,8.2 -54.2,16.4 -6.6,8.2 -25.4,30.2 -25.4,30.2 l 102.5,14.2" /><path
         id="path632"
         style="fill:#da9971;fill-opacity:1;fill-rule:nonzero;stroke:none"
         d="m 12675.9,11050.1 c 3.6,-0.6 97.4,-33.3 134.9,-28.4 37.4,5 -2.4,13.1 62.5,13.9 64.8,0.9 76.5,9.5 113.7,14.5 37.2,4.9 107.6,39.8 107.6,39.8 l -24.4,13.7 -394.3,-53.5" /><path
         id="path634"
         style="fill:#2e63a1;fill-opacity:1;fill-rule:nonzero;stroke:none"
         d="m 14155.6,8874.8 c 0,0 172.1,-101 322.3,-113.7 150.1,-12.7 339.7,24.2 339.7,24.2 0,0 -150.4,-98.5 -310.3,-98.5 -159.9,0 -333.4,74.3 -333.4,74.3 l -18.3,113.7" /><path
         id="path636"
         style="fill:#2e63a1;fill-opacity:1;fill-rule:nonzero;stroke:none"
         d="m 15666.8,9033.9 c 0,0 -12.3,-46.7 -96,-78.7 -83.7,-32 -150.1,-39.4 -150.1,-39.4 0,0 149.9,-26.7 270.7,10 l -24.6,108.1" /><g
         transform="scale(1.03783)"
         id="g638"><path
           id="path640"
           style="fill:#fac297;fill-opacity:1;fill-rule:nonzero;stroke:none"
           d="m 15844.3,11306 10.2,51.8 c 0,0 139.5,97.7 150.6,96.9 11,-0.8 34,-4 36.4,-4 2.3,0 23.7,11.1 43.4,11.9 19.8,0.8 36.4,-3.9 36.4,-3.9 0,0 30.8,3.3 48.2,4 17.5,0.7 33.3,-9.6 33.3,-9.6 0,0 40.3,6.3 56.8,-0.8 16.7,-7.1 40.4,-168.4 34,-185 -6.2,-16.6 -38.7,-24.5 -38.7,-24.5 0,0 -8.7,-13 -28.4,-19.6 -19.8,-6.5 -39.7,-5.6 -42,-6 -2.3,-0.4 -15.7,-15.5 -38.7,-18.7 -22.9,-3.1 -40.6,-3.4 -43.4,0 -2.9,3.4 -32.5,-37.1 -63.3,-20.5 -30.9,16.6 -18.2,60.1 -28.5,87.7 -10.3,27.7 -30.1,58.2 -30.1,58.2 l -136.2,-17.9" /></g><g
         transform="scale(1.02708)"
         id="g642"><path
           id="path644"
           style="fill:#da9971;fill-opacity:1;fill-rule:nonzero;stroke:none"
           d="m 16217.3,11542.6 c 4,-4 28,-75.8 40.7,-105.8 12.9,-30 12.9,-121.1 12.9,-121.1 l 22.2,-2.2 c 0,0 6.9,56.1 -8.7,106.9 -15.6,50.8 -67.1,122.2 -67.1,122.2" /></g><g
         transform="scale(1.03239)"
         id="g646"><path
           id="path648"
           style="fill:#da9971;fill-opacity:1;fill-rule:nonzero;stroke:none"
           d="m 16220.5,11483.2 c 3.2,-0.8 29.4,-58.8 37.4,-96.9 7.9,-38.2 11.8,-110 11.8,-110 0,0 15.6,1 18,1 2.3,0 12.3,51.7 -2.8,105.8 -15.1,54 -64.4,100.1 -64.4,100.1" /></g><g
         transform="scale(1.03653)"
         id="g650"><path
           id="path652"
           style="fill:#da9971;fill-opacity:1;fill-rule:nonzero;stroke:none"
           d="m 16249.9,11427.8 c 0,0 12.7,-45.9 16.6,-76.7 4,-30.9 8.7,-94.3 8.7,-94.3 l 24.8,10.2 c 0,0 -14.5,80.1 -16.1,96.7 -1.6,16.6 -34,64.1 -34,64.1" /></g><path
         id="path654"
         style="fill:#fac297;fill-opacity:1;fill-rule:nonzero;stroke:none"
         d="m 12567.3,11224.3 c 0,0 51.2,80.6 76.9,99.2 25.6,18.6 71.7,11.5 71.7,11.5 0,0 41.4,36.3 78.5,40.7 37.2,4.4 55.7,0 55.7,0 0,0 63.7,23 84,22.1 20.3,-0.9 50.4,-13.3 50.4,-13.3 0,0 39.8,15.9 79.5,-0.9 39.8,-16.8 33.6,-254.6 21.3,-275.8 -12.4,-21.2 -59.3,-9.7 -59.3,-9.7 0,0 -20.3,-8.6 -50.4,-16.7 -30,-8 -53.9,0 -53.9,0 0,0 -21.2,-9.8 -41.5,-10.7 -20.4,-0.9 -39,10.7 -39,10.7 0,0 -36.2,-30.1 -60.9,-27.5 -24.8,2.7 -34.5,25.6 -42.4,48.6 -8,23 -48,134.6 -48,134.6 l -122.6,-12.8" /><path
         id="path656"
         style="fill:#da9971;fill-opacity:1;fill-rule:nonzero;stroke:none"
         d="m 12750.2,11325.3 c 0,0 22.1,-39.9 46.9,-99.5 24.7,-59.6 47.7,-152.4 47.7,-152.4 l 26.5,-6.2 c 0,0 -19.4,84.8 -28.3,107.8 -8.8,23 -92.8,150.3 -92.8,150.3" /><path
         id="path658"
         style="fill:#da9971;fill-opacity:1;fill-rule:nonzero;stroke:none"
         d="m 12862.5,11338.5 c 0,0 24.7,-59.2 34.5,-104.3 9.7,-45.1 24.7,-152.8 24.7,-152.8 l 24.8,-3.5 c 0,0 -12.4,119.1 -20.4,147.9 -7.9,28.8 -63.6,112.7 -63.6,112.7" /><path
         id="path660"
         style="fill:#da9971;fill-opacity:1;fill-rule:nonzero;stroke:none"
         d="m 12992.4,11353.6 c 0,0 10.6,-86.7 15.1,-109.6 4.4,-23 18.5,-145.9 18.5,-145.9 l 26.5,-3.1 c 0,0 -14.1,145.4 -17.6,151.6 -3.6,6.2 -42.5,107 -42.5,107" /></g></g></svg>