<?xml version="1.0" encoding="UTF-8" standalone="no"?>
<svg
   xmlns:dc="http://purl.org/dc/elements/1.1/"
   xmlns:cc="http://creativecommons.org/ns#"
   xmlns:rdf="http://www.w3.org/1999/02/22-rdf-syntax-ns#"
   xmlns:svg="http://www.w3.org/2000/svg"
   xmlns="http://www.w3.org/2000/svg"
   viewBox="0 0 2666.6667 2666.6667"
   height="2666.6667"
   width="2666.6667"
   xml:space="preserve"
   id="svg2"
   version="1.1"><metadata
     id="metadata8"><rdf:RDF><cc:Work
         rdf:about=""><dc:format>image/svg+xml</dc:format><dc:type
           rdf:resource="http://purl.org/dc/dcmitype/StillImage" /></cc:Work></rdf:RDF></metadata><defs
     id="defs6" /><g
     transform="matrix(1.3333333,0,0,-1.3333333,0,2666.6667)"
     id="g10"><g
       transform="scale(0.1)"
       id="g12"><g
         transform="scale(1.22699)"
         id="g14"><path
           id="path16"
           style="fill:none;fill-opacity:1;fill-rule:nonzero;stroke:none"
           d="M 16300,0 H 0 V 16300 H 16300 V 0" /></g><g
         transform="scale(1.0422)"
         id="g18"><path
           id="path20"
           style="fill:#7e7f81;fill-opacity:1;fill-rule:nonzero;stroke:none"
           d="m 14141.3,11157.5 -55.6,5142.5 111.9,-5.7 21.6,-5141.3 -77.9,4.5" /></g><path
         id="path22"
         style="fill:#7e7f81;fill-opacity:1;fill-rule:nonzero;stroke:none"
         d="m 14766.1,11353.1 c -2.2,-37.8 -5.5,-95.2 -5.5,-95.2 l 75.9,13.9 0.9,77.7 -71.3,3.6" /><path
         id="path24"
         style="fill:#7e7f81;fill-opacity:1;fill-rule:nonzero;stroke:none"
         d="m 14661.9,10558.4 c 0,0 29.1,61.2 71.2,94.9 42.1,33.8 278.9,20.1 310.8,3.7 31.9,-16.5 63.8,-70.1 54.9,-111.3 -8.9,-41.2 49.4,-44.5 -100.1,-39.6 -149.6,5 -336.8,52.3 -336.8,52.3" /><path
         id="path26"
         style="fill:#7e7f81;fill-opacity:1;fill-rule:nonzero;stroke:none"
         d="m 14913.9,10620.6 -94.7,5.5 9.9,171.1 94.7,-5.4 -9.9,-171.2" /><path
         id="path28"
         style="fill:#9c9c9b;fill-opacity:1;fill-rule:nonzero;stroke:none"
         d="m 14850.2,10847.2 c -49.4,-33.7 -79.7,11.9 -89.9,89.2 -10.1,77.3 9.4,205.7 33.8,206.3 44,1.2 105.6,-261.8 56.1,-295.5 z m 65.8,273.9 c -28.8,114.9 -79.5,150.7 -79.5,150.7 l -75.9,-13.9 c 0,0 -95.5,-199.1 -78.2,-342.6 17.3,-143.5 117,-215 212.9,-154.7 95.9,60.2 49.6,245.6 20.7,360.5" /><path
         id="path30"
         style="fill:#9c9c9b;fill-opacity:1;fill-rule:nonzero;stroke:none"
         d="m 14804.5,11368.7 c -33.3,-12.7 -15.7,172.6 -15.7,172.6 0,0 52.6,-21.3 59.6,-61.9 7,-40.6 -10.6,-98 -43.9,-110.7 z m 99,144.1 c -32.2,82.2 -84.3,110.8 -84.3,110.8 l -81.2,4.7 -18.5,-68.4 c 0,0 -37.8,-246.7 82.3,-238.8 120,8 133.9,109.5 101.7,191.7" /><path
         id="path32"
         style="fill:#9c9c9b;fill-opacity:1;fill-rule:nonzero;stroke:none"
         d="m 15511.9,10643.8 c 0,0 -2231.3,-195.1 -2331.1,-241.6 -99.7,-46.5 -1115.1,-847.9 -1115.1,-847.9 l 131,-217.8 c 0,0 1064,815.3 1080.1,843.7 16,28.4 2026.9,261.7 2074.6,264.8 47.7,3 288.2,80.5 288.2,80.5 l -127.7,118.3" /><path
         id="path34"
         style="fill:#e3e2e0;fill-opacity:1;fill-rule:nonzero;stroke:none"
         d="m 12209.3,9492.4 c 36.2,-60.1 30.5,-129.9 -12.6,-155.9 -43.2,-25.9 -107.5,1.8 -143.7,61.9 -36.2,60.1 -30.5,129.9 12.7,155.9 43.1,25.9 107.4,-1.8 143.6,-61.9" /><path
         id="path36"
         style="fill:#c37140;fill-opacity:1;fill-rule:nonzero;stroke:none"
         d="m 12723.3,9341.3 c 0,0 -57.8,17.5 -123.4,69.5 -65.5,52 -145.9,148.6 -150.3,158.6 -4.3,9.9 -31.5,99 -78,142.7 -46.5,43.8 -114.6,44.8 -114.6,44.8 0,0 -5.2,90.3 5.5,109.3 10.7,18.9 35.7,32.2 35.7,32.2 0,0 15,55.3 60.3,84.7 45.3,29.3 111,28.5 111,28.5 0,0 27.6,64.3 84,71.2 56.4,6.9 75.3,-3.8 75.3,-3.8 0,0 123.2,76.6 157.2,74.9 34,-1.8 152.7,-110 175.3,-145.3 22.6,-35.2 19.8,-186 38.1,-257.6 18.3,-71.5 54.3,-178.1 54.3,-178.1 0,0 -122.9,-264 -140,-265.6 -17.1,-1.6 -190.4,34 -190.4,34" /><path
         id="path38"
         style="fill:#1a1918;fill-opacity:1;fill-rule:nonzero;stroke:none"
         d="m 14736.3,4661.1 c -44.9,-14.6 -415.1,-248.1 -541.3,-291.9 -126.2,-43.8 -335.3,-9.7 -374.2,-111.9 -38.9,-102.1 107,-209.1 243.2,-265 136.2,-56 369.6,-90 432.9,-148.4 63.2,-58.4 150.8,-209.1 442.6,-184.8 291.8,24.3 296.7,134.5 282.1,256.9 -14.6,122.5 -9.7,5.7 -43.8,180.8 -34,175.1 58.4,228.7 -58.3,301.6 -116.8,73 -204.3,73 -238.4,87.5 -34,14.6 -144.8,175.2 -144.8,175.2" /><path
         id="path40"
         style="fill:#c37140;fill-opacity:1;fill-rule:nonzero;stroke:none"
         d="m 14200.2,5857.6 c 0,0 -38.9,-287 97.3,-578.8 136.1,-291.9 160.5,-360 204.2,-539.9 43.8,-180 43.8,-418.3 43.8,-418.3 0,0 121.6,-111.9 204.3,-82.7 82.7,29.2 189.7,184.8 189.7,184.8 l -82.7,1512.7 -413.4,102.1 -243.2,-179.9" /><path
         id="path42"
         style="fill:#f7f7f7;fill-opacity:1;fill-rule:nonzero;stroke:none"
         d="m 14533.1,4544.5 c 12.3,-121.3 12.4,-223.9 12.4,-223.9 0,0 121.6,-111.9 204.3,-82.7 82.7,29.2 189.7,184.8 189.7,184.8 l -7.7,141.1 c -124.6,-26.4 -273.9,-26.1 -398.7,-19.3" /><path
         id="path44"
         style="fill:#5e6061;fill-opacity:1;fill-rule:nonzero;stroke:none"
         d="m 14046,5676 c 8.5,1.6 1110.5,-270.8 1110.5,-270.8 l 138.1,92.5 -452.4,496.1 c 0,0 -435.9,65.6 -491.2,0 -55.4,-65.6 -253,-170.3 -253,-206.7 0,-36.5 -52,-111.1 -52,-111.1" /><path
         id="path46"
         style="fill:#1a1918;fill-opacity:1;fill-rule:nonzero;stroke:none"
         d="m 12886.9,3992.3 c 14.6,-21.9 -29.2,-76.3 -29.2,-76.3 0,0 -275.4,-266.7 -477,-310.4 -201.5,-43.8 -391.2,-87.6 -478.8,-218.9 -87.5,-131.3 315.6,-328.3 478.8,-386.7 163.3,-58.4 382.8,-58.4 732.7,-87.5 349.9,-29.2 597.9,-65.7 649,138.6 51.1,204.3 -160.5,481.5 -182.4,583.7 -21.9,102.1 -247.9,156.4 -242.1,218.8 5.8,62.4 -451,138.7 -451,138.7" /><path
         id="path48"
         style="fill:#373737;fill-opacity:1;fill-rule:nonzero;stroke:none"
         d="m 14253.7,5755.4 c 38.9,-19.4 997.1,-267.5 1040.9,-257.7 43.7,9.7 569.1,311.2 569.1,311.2 l 63.2,277.3 -836.6,241.9 c 0,0 -768.5,186.1 -795.3,-37.6 -26.7,-223.8 -41.3,-535.1 -41.3,-535.1" /><path
         id="path50"
         style="fill:#c37140;fill-opacity:1;fill-rule:nonzero;stroke:none"
         d="m 12598.4,6509.4 c -58.4,87.5 -118,227.5 -118,227.5 0,0 -217.6,-29.2 -407.3,-113.8 -189.7,-84.6 -415.9,-288.8 -430.5,-507.7 -14.6,-218.9 58.4,-167.8 182.4,-518 124.1,-350.2 189.7,-642.1 488.9,-977.7 299.1,-335.6 430.4,-663.9 496.1,-933.9 0,0 211.6,-145.9 350.2,-145.9 138.6,0 284.5,160.5 284.5,189.7 0,29.2 -328.3,518 -393.9,919.3 -65.7,401.3 -246.2,1249.1 -469.9,1535.6 -223.6,286.5 17.5,324.9 17.5,324.9" /><path
         id="path52"
         style="fill:#7e7f81;fill-opacity:1;fill-rule:nonzero;stroke:none"
         d="m 14438.5,5906.2 c 194.6,-34 856.1,-150.8 856.1,-150.8 0,0 126.4,306.5 97.2,432.9 -29.1,126.5 -787.9,233.5 -787.9,233.5 l -165.4,-515.6" /><path
         id="path54"
         style="fill:#5e6061;fill-opacity:1;fill-rule:nonzero;stroke:none"
         d="m 15926.9,6348.8 v -262.6 l -632.3,-330.8 v 447.5 l 632.3,145.9" /><g
         transform="scale(1.04167)"
         id="g56"><path
           id="path58"
           style="fill:#9c9c9b;fill-opacity:1;fill-rule:nonzero;stroke:none"
           d="m 15374.5,10185.3 c 0,0 320,-23 366.7,-41.9 46.7,-18.8 154.1,-112.2 154.1,-112.2 h 58.3 c 0,0 138.7,-191.46 147.6,-205.47 8.9,-14 198.8,31.41 -23.1,-121.4 -221.9,-152.83 -483.9,-113.18 -483.9,-113.18 l -124,385.89 -95.7,208.26" /></g><g
         transform="scale(1.05848)"
         id="g60"><path
           id="path62"
           style="fill:#b35f38;fill-opacity:1;fill-rule:nonzero;stroke:none"
           d="m 15647.5,9614.55 c 12.4,22.97 101,105.69 105.7,137.86 4.5,32.16 -52.9,119.47 -52.9,119.47 0,0 25.3,32.17 85,22.98 59.8,-9.2 110.3,12.48 151.6,1.65 41.4,-10.85 96.6,-24.63 110.4,-33.82 13.8,-9.19 119.4,-156.24 128.7,-248.14 9.1,-91.91 -59.8,-381.39 -50.6,-413.61 9.2,-32.12 101.1,-289.47 137.9,-574.41 36.7,-284.84 -81,-601.9 -81,-601.9 0,0 -23.8,30.33 -254.5,418.15 -230.7,387.72 -360.5,771.86 -360.5,771.86 l 80.2,399.91" /></g><g
         transform="scale(1.05191)"
         id="g64"><path
           id="path66"
           style="fill:#c37140;fill-opacity:1;fill-rule:nonzero;stroke:none"
           d="m 15652.6,9767.02 c 0,0 176.5,-97.1 291.8,-249.68 115.2,-152.6 115.2,-471.64 119.7,-513.28 4.7,-41.64 111.1,-212.66 161.9,-356.02 50.9,-143.35 74,-406.87 69.3,-494.81 -4.5,-87.84 -41.6,-198.78 -110.9,-217.31 -69.4,-18.45 -171.1,-4.57 -277.4,83.27 -106.4,87.84 -328.3,403.55 -342.2,453.75 -13.9,50.28 -254.3,397.08 -245.1,683.7 9.3,286.72 332.9,610.38 332.9,610.38" /></g><g
         transform="scale(1.0282)"
         id="g68"><path
           id="path70"
           style="fill:#a45634;fill-opacity:1;fill-rule:nonzero;stroke:none"
           d="m 16287.9,9263.74 c 12.1,20.42 -127.7,-443.49 -274.3,-640.44 -146.6,-196.84 -177.6,63.32 -177.6,63.32 0,0 404.7,496.69 451.9,577.12" /></g><path
         id="path72"
         style="fill:#1a1918;fill-opacity:1;fill-rule:nonzero;stroke:none"
         d="m 12463.7,6903.3 c 0,0 -175.1,-350.2 -160.5,-496.1 14.6,-145.9 175.1,-306.4 313.8,-503.4 138.6,-197 393.9,-430.5 393.9,-430.5 0,0 415.9,-29.1 693.2,43.8 277.2,73 167.8,145.9 408.5,167.8 240.8,21.9 913.2,175.1 1043.9,211.6 130.8,36.5 714.4,313.7 743.6,342.9 29.2,29.2 291.9,401.3 270,758.8 -21.9,357.5 -138.6,605.5 -138.6,605.5 l -875,109.5 c 0,0 -1853.7,-335.6 -1897.5,-364.8 -43.8,-29.2 -795.3,-445.1 -795.3,-445.1" /><path
         id="path74"
         style="fill:#373737;fill-opacity:1;fill-rule:nonzero;stroke:none"
         d="m 14173.2,8064.8 -1792.5,-522.5 302.3,-805.4 909.2,283.2 c 0,0 194.5,126.4 316.1,141 121.6,14.6 294.3,102.9 328.4,146.9 34,44 180.7,131.3 180.7,131.3 l -244.2,625.5" /><path
         id="path76"
         style="fill:#5e6061;fill-opacity:1;fill-rule:nonzero;stroke:none"
         d="m 12766.7,7253.2 c 104.3,-216.7 85.8,-441.9 -41.3,-503 -127.1,-61.2 -314.6,64.9 -418.9,281.5 -104.3,216.7 -85.8,442 41.3,503.1 127,61.2 314.6,-64.9 418.9,-281.6" /><path
         id="path78"
         style="fill:#a8a8a6;fill-opacity:1;fill-rule:nonzero;stroke:none"
         d="m 12565.9,7168.6 c 24.8,-56.6 18.2,-114.2 -14.8,-128.6 -33,-14.5 -79.8,19.7 -104.6,76.3 -24.8,56.7 -18.1,114.3 14.8,128.7 33,14.4 79.8,-19.8 104.6,-76.4" /><g
         transform="scale(1.01237)"
         id="g80"><path
           id="path82"
           style="fill:#e9eef1;fill-opacity:1;fill-rule:nonzero;stroke:none"
           d="m 14928.3,10345.5 c 0,0 -456.5,-259.8 -687.1,-569.67 -230.6,-309.96 -174.2,-513.74 -178.3,-787.65 -4.2,-273.82 57.4,-1715.18 57.4,-1715.18 0,0 494,-136.91 987.4,-93.74 493.2,43.26 727.8,331.5 727.8,331.5 0,0 73.4,520.95 176.4,766.02 102.8,245.07 252,445.98 252,481.34 0,35.47 -35.9,453.49 0,734.52 36.1,281.11 0,655.86 0,655.86 0,0 -310,282.3 -380.3,311.3 -70.3,29.1 -597.4,3.4 -955.3,-114.3" /></g><g
         transform="scale(1.00005)"
         id="g84"><path
           id="path86"
           style="fill:#c37140;fill-opacity:1;fill-rule:nonzero;stroke:none"
           d="m 15190.1,10967.4 c 0,0 19.7,-43.1 29.5,-90.8 9.8,-47.6 -107.3,-403.6 -107.3,-403.6 0,0 294.2,-19.6 437.7,-121.6 143.5,-102 418.9,-290.7 564.2,-316.2 145.4,-25.4 185.8,77.2 160.5,238.4 -14,89.4 -129,196.3 -207.3,335.6 -62.8,111.6 17.1,353.5 14.1,365 -6.7,25.7 -274.8,490.2 -299.8,512.7 -25,22.5 -138.6,156.7 -255.3,6.2 -116.8,-150.4 -188.6,-250.8 -234.4,-333.6 -45.7,-82.8 -101.9,-192.1 -101.9,-192.1" /></g><path
         id="path88"
         style="fill:#a45634;fill-opacity:1;fill-rule:nonzero;stroke:none"
         d="m 12150,5787.1 c 0,0 330.6,-81.6 603.1,-51.8 l 73.8,-109.7 c 0,0 -414.2,-20.9 -676.9,161.5" /><path
         id="path90"
         style="fill:#f7f7f7;fill-opacity:1;fill-rule:nonzero;stroke:none"
         d="m 12782,3790 c 10.5,-35.6 19.8,-70.3 28,-104.2 0,0 211.6,-145.9 350.2,-145.9 138.6,0 284.5,160.5 284.5,189.7 0,10.6 -43,81.5 -101,186.4 -196.9,-79.4 -409.1,-112.4 -561.7,-126" /><path
         id="path92"
         style="fill:#c37140;fill-opacity:1;fill-rule:nonzero;stroke:none"
         d="m 15468.9,10236.3 c 0,0 254.8,-179.4 258.5,-549 3.7,-369.6 -545.3,-821.1 -545.3,-821.1 0,0 -294.8,-430.3 -532.7,-681.7 -237.8,-251.4 -458.3,-446.4 -650.9,-446.4 -192.6,0 -442,247.9 -568.3,371.2 -237,231.1 -523,899.8 -700.6,1185.4 -177.6,285.6 -78.1,306.4 -78.1,306.4 l 268,248.8 c 0,0 434.2,-729.7 556.3,-800.1 122.1,-70.4 422.3,-277.7 422.3,-277.7 0,0 65,231.2 212.5,390.6 147.4,159.5 241.7,228.7 241.7,228.7 0,0 21.5,417.4 200.9,571.9 179.4,154.6 253.6,209.1 253.6,209.1 0,0 199.6,133.7 295.1,184.8 95.6,51.1 367,-120.9 367,-120.9" /><path
         id="path94"
         style="fill:#a45634;fill-opacity:1;fill-rule:nonzero;stroke:none"
         d="m 15158.5,10123.9 c 237.8,-85.6 310.7,-274 310.7,-274 0,0 -4.1,187.6 -156.9,314.4 -73.1,60.7 -158.4,128.8 -227.7,183.4 -100.3,-56.4 -277.8,-175.3 -277.8,-175.3 0,0 -1.8,-1.3 -5.1,-3.8 69.4,14.7 178.1,19.7 356.8,-44.7" /><path
         id="path96"
         style="fill:#a45634;fill-opacity:1;fill-rule:nonzero;stroke:none"
         d="m 13898.1,8772.1 c 0,0 167.1,-69.9 243.6,-170.2 0,0 -9.8,149 -204.4,278.6 l -39.2,-108.4" /><path
         id="path98"
         style="fill:#a45634;fill-opacity:1;fill-rule:nonzero;stroke:none"
         d="m 14635.8,9087.1 c 8.5,0.1 -265.5,-117.7 -396,-253 0,0 66.3,249.4 396,253" /><path
         id="path100"
         style="fill:#a45634;fill-opacity:1;fill-rule:nonzero;stroke:none"
         d="m 15558.9,11382.3 c 0,0 -33.6,-204.2 -79.3,-305.8 -45.6,-101.6 -259.3,-199.3 -259.3,-199.3 l -72.4,98.1 411,407" /><g
         transform="scale(1.02277)"
         id="g102"><path
           id="path104"
           style="fill:#2f1d16;fill-opacity:1;fill-rule:nonzero;stroke:none"
           d="m 16281.1,11402 c 18.9,60 -2.2,309.3 -21.6,341 -19.2,31.8 -64.9,119.4 -126.9,190.2 -62,70.7 -148.7,109 -186.5,128.3 -38,19.2 -92.7,54.8 -151.6,77 -58.9,22.2 -119.8,26.7 -194,35.4 -74.1,8.7 -83.4,37.3 -136.6,43 -53,5.8 -140.6,-25.2 -140.6,-25.2 0,0 -62.1,-2.4 -125.1,-4.6 -62.9,-2.1 -68.8,-44.2 -165.5,-125.5 -96.7,-81.3 -72.4,-229.8 -72.4,-229.8 l -17.6,-87.8 c 0,0 59.2,-352.1 114.3,-462.8 55.2,-110.8 46.8,-31.4 76.1,-34 29.1,-2.5 221.9,80.2 221.9,80.2 l -0.7,-243.2 c 0,0 129.7,-310.9 195.7,-408.4 66,-97.4 125.8,-125.6 144.8,-118.3 19,7.4 63.6,31.3 125.1,77.5 80.5,60.5 284.8,311.1 353.4,465.3 40.4,84.2 95,261.2 107.8,301.7" /></g><path
         id="path106"
         style="fill:#c37140;fill-opacity:1;fill-rule:nonzero;stroke:none"
         d="m 15301,12101.2 c 0,0 -100.2,-220.8 -110,-251.8 -9.7,-31 -11,-78.4 -36.1,-114.8 -25.1,-36.4 -149.8,-150.6 -158.6,-178.6 -8.8,-27.9 99.5,-106.3 99.5,-106.3 0,0 -143.5,-401.6 -109,-432.9 34.5,-31.3 228.6,-75.4 354,-2.3 125.3,73.1 209,360.5 218.1,367.8 9.1,7.4 94.3,18 182.1,123.4 87.7,105.4 36.2,234.2 -63.9,252 -100.1,17.9 -180.9,-195.4 -206.7,-190.7 -25.8,4.8 -39.3,15.9 -39.5,26.1 -0.2,10.3 -1.9,113.2 -5.9,165.6 -3.9,52.4 -11.4,71.8 9.1,136.9 20.5,65.2 22.6,125.9 12.7,159.7 -9.8,33.8 -85.6,74.7 -145.8,45.9" /><g
         transform="scale(1.04972)"
         id="g108"><path
           id="path110"
           style="fill:#7e7f81;fill-opacity:1;fill-rule:nonzero;stroke:none"
           d="M 5615.84,14746.6 5500.7,16300 h 96.63 l 95.91,-1553.4 h -77.4" /></g><path
         id="path112"
         style="fill:#7e7f81;fill-opacity:1;fill-rule:nonzero;stroke:none"
         d="m 5938.81,15197.4 c 0,-37.4 0,-86.1 0,-86.1 l 74.97,18.2 -3.09,67.9 h -71.88" /><path
         id="path114"
         style="fill:#7e7f81;fill-opacity:1;fill-rule:nonzero;stroke:none"
         d="m 5880.45,14407.2 c 0,0 25.53,62.8 65.66,98.9 40.13,36.1 277.24,36.1 310.08,21.5 32.83,-14.6 67.74,-66.3 61.23,-107.9 -6.51,-41.7 51.86,-41.7 -97.71,-45.3 -149.57,-3.6 -339.26,32.8 -339.26,32.8" /><path
         id="path116"
         style="fill:#7e7f81;fill-opacity:1;fill-rule:nonzero;stroke:none"
         d="m 6128.51,14483.8 h -94.85 v 171.5 h 94.85 v -171.5" /><path
         id="path118"
         style="fill:#9c9c9b;fill-opacity:1;fill-rule:nonzero;stroke:none"
         d="m 6051.9,14706.4 c -47.42,-36.5 -80.25,7.3 -94.84,83.9 -14.6,76.6 -2.5,205.9 21.88,207.9 43.78,3.7 120.39,-255.4 72.96,-291.8 z m 49.99,277.2 c -35.4,113.1 -88.11,145.9 -88.11,145.9 l -74.97,-18.2 c 0,0 -83.9,-204.3 -58.36,-346.6 25.53,-142.2 129.16,-207.9 221.44,-142.2 92.28,65.6 35.4,248 0,361.1" /><path
         id="path120"
         style="fill:#9c9c9b;fill-opacity:1;fill-rule:nonzero;stroke:none"
         d="m 5976.29,15224.4 c -32.5,-14.6 -25.55,171.4 -25.55,171.4 0,0 53.74,-18.2 63.04,-58.3 9.31,-40.2 -4.98,-98.5 -37.49,-113.1 z m 90.57,149.5 c -36.85,80.3 -90.57,105.8 -90.57,105.8 h -81.25 l -14.59,-69.3 c 0,0 -23.53,-248.5 95.84,-233.6 119.39,14.7 127.43,116.9 90.57,197.1" /><path
         id="path122"
         style="fill:#1a1918;fill-opacity:1;fill-rule:nonzero;stroke:none"
         d="m 6056.21,4661.1 c -44.86,-14.6 -415.08,-248.1 -541.26,-291.9 -126.19,-43.8 -335.34,-9.7 -374.25,-111.9 -38.91,-102.1 107.01,-209.1 243.2,-265 136.19,-56 369.66,-90 432.89,-148.4 63.23,-58.4 150.79,-209.1 442.62,-184.8 291.84,24.3 296.71,134.5 282.11,256.9 -14.59,122.5 -9.72,5.7 -43.77,180.8 -34.05,175.1 58.37,228.7 -58.37,301.6 -116.73,73 -204.29,73 -238.34,87.5 -34.04,14.6 -144.83,175.2 -144.83,175.2" /><path
         id="path124"
         style="fill:#c37140;fill-opacity:1;fill-rule:nonzero;stroke:none"
         d="m 5520.09,5857.6 c 0,0 -38.91,-287 97.28,-578.8 136.19,-291.9 160.51,-360 204.29,-539.9 43.77,-180 43.77,-418.3 43.77,-418.3 0,0 121.6,-111.9 204.29,-82.7 82.69,29.2 189.69,184.8 189.69,184.8 l -82.68,1512.7 -413.44,102.1 -243.2,-179.9" /><path
         id="path126"
         style="fill:#f7f7f7;fill-opacity:1;fill-rule:nonzero;stroke:none"
         d="m 5853.01,4544.5 c 12.34,-121.3 12.42,-223.9 12.42,-223.9 0,0 121.6,-111.9 204.29,-82.7 82.69,29.2 189.69,184.8 189.69,184.8 l -7.71,141.1 c -124.6,-26.4 -273.88,-26.1 -398.69,-19.3" /><path
         id="path128"
         style="fill:#5e6061;fill-opacity:1;fill-rule:nonzero;stroke:none"
         d="m 5365.96,5676 c 8.46,1.6 1110.48,-270.8 1110.48,-270.8 l 138.04,92.5 -452.35,496.1 c 0,0 -435.89,65.6 -491.26,0 -55.36,-65.6 -252.92,-170.3 -252.92,-206.7 0,-36.5 -51.99,-111.1 -51.99,-111.1" /><path
         id="path130"
         style="fill:#1a1918;fill-opacity:1;fill-rule:nonzero;stroke:none"
         d="m 4206.82,3992.3 c 14.59,-21.9 -29.18,-76.3 -29.18,-76.3 0,0 -275.43,-266.7 -476.98,-310.4 -201.55,-43.8 -391.24,-87.6 -478.79,-218.9 -87.55,-131.3 315.54,-328.3 478.79,-386.7 163.25,-58.4 382.72,-58.4 732.63,-87.5 349.91,-29.2 597.97,-65.7 649.04,138.6 51.08,204.3 -160.5,481.5 -182.39,583.7 -21.89,102.1 -247.98,156.4 -242.14,218.8 5.84,62.4 -450.98,138.7 -450.98,138.7" /><path
         id="path132"
         style="fill:#373737;fill-opacity:1;fill-rule:nonzero;stroke:none"
         d="m 5573.59,5755.4 c 38.91,-19.4 997.12,-267.5 1040.89,-257.7 43.78,9.7 569.09,311.2 569.09,311.2 l 63.23,277.3 -836.6,241.9 c 0,0 -768.51,186.1 -795.26,-37.6 -26.75,-223.8 -41.35,-535.1 -41.35,-535.1" /><path
         id="path134"
         style="fill:#c37140;fill-opacity:1;fill-rule:nonzero;stroke:none"
         d="m 3918.33,6509.4 c -58.37,87.5 -118.03,227.5 -118.03,227.5 0,0 -217.59,-29.2 -407.28,-113.8 -189.69,-84.6 -415.87,-288.8 -430.47,-507.7 -14.59,-218.9 58.37,-167.8 182.41,-518 124.02,-350.2 189.69,-642.1 488.82,-977.7 299.14,-335.6 430.46,-663.9 496.13,-933.9 0,0 211.58,-145.9 350.2,-145.9 138.63,0 284.55,160.5 284.55,189.7 0,29.2 -328.32,518 -393.99,919.3 -65.66,401.3 -99.87,799.9 -323.53,1086.4 -223.66,286.5 -128.81,774.1 -128.81,774.1" /><path
         id="path136"
         style="fill:#7e7f81;fill-opacity:1;fill-rule:nonzero;stroke:none"
         d="m 5758.43,5906.2 c 194.55,-34 856.05,-150.8 856.05,-150.8 0,0 126.47,306.5 97.28,432.9 -29.18,126.5 -787.96,233.5 -787.96,233.5 l -165.37,-515.6" /><path
         id="path138"
         style="fill:#5e6061;fill-opacity:1;fill-rule:nonzero;stroke:none"
         d="m 7246.8,6348.8 v -262.6 l -632.32,-330.8 v 447.5 l 632.32,145.9" /><path
         id="path140"
         style="fill:#1a1918;fill-opacity:1;fill-rule:nonzero;stroke:none"
         d="m 3783.66,6903.3 c 0,0 -175.11,-350.2 -160.52,-496.1 14.59,-145.9 175.11,-306.4 313.73,-503.4 138.62,-197 393.98,-430.5 393.98,-430.5 0,0 415.87,-29.1 693.11,43.8 277.25,73 167.81,145.9 408.58,167.8 240.77,21.9 913.15,175.1 1043.9,211.6 130.75,36.5 714.42,313.7 743.61,342.9 29.18,29.2 291.83,401.3 269.95,758.8 -21.89,357.5 -138.62,605.5 -138.62,605.5 l -874.94,109.5 c 0,0 -1853.75,-335.6 -1897.52,-364.8 -43.78,-29.2 -795.26,-445.1 -795.26,-445.1" /><path
         id="path142"
         style="fill:#373737;fill-opacity:1;fill-rule:nonzero;stroke:none"
         d="m 5493.16,8064.8 -1792.5,-522.5 302.25,-805.4 909.18,283.2 c 0,0 194.57,126.4 316.16,141 121.6,14.6 294.28,102.9 328.33,146.9 34.05,44 180.78,131.3 180.78,131.3 l -244.2,625.5" /><path
         id="path144"
         style="fill:#5e6061;fill-opacity:1;fill-rule:nonzero;stroke:none"
         d="m 4086.6,7253.2 c 104.27,-216.7 85.79,-441.9 -41.29,-503 -127.08,-61.2 -314.63,64.9 -418.91,281.5 -104.28,216.7 -85.79,442 41.29,503.1 127.08,61.2 314.63,-64.9 418.91,-281.6" /><path
         id="path146"
         style="fill:#a8a8a6;fill-opacity:1;fill-rule:nonzero;stroke:none"
         d="m 3885.84,7168.6 c 24.79,-56.6 18.16,-114.2 -14.81,-128.6 -32.97,-14.5 -79.79,19.7 -104.58,76.3 -24.79,56.7 -18.16,114.3 14.8,128.7 32.97,14.4 79.79,-19.8 104.59,-76.4" /><path
         id="path148"
         style="fill:#a45634;fill-opacity:1;fill-rule:nonzero;stroke:none"
         d="m 3469.93,5787.1 c 0,0 330.58,-81.6 603.05,-51.8 l 73.81,-109.7 c 0,0 -414.21,-20.9 -676.86,161.5" /><path
         id="path150"
         style="fill:#f7f7f7;fill-opacity:1;fill-rule:nonzero;stroke:none"
         d="m 4101.92,3790 c 10.49,-35.6 19.75,-70.3 27.99,-104.2 0,0 211.58,-145.9 350.2,-145.9 138.63,0 284.55,160.5 284.55,189.7 0,10.6 -43.06,81.5 -101.02,186.4 -196.94,-79.4 -409.16,-112.4 -561.72,-126" /><path
         id="path152"
         style="fill:#c37140;fill-opacity:1;fill-rule:nonzero;stroke:none"
         d="m 7638.77,11976.5 c -4.86,53.5 107.01,272.3 107.01,272.3 0,0 48.64,257.8 165.37,508.3 116.74,250.5 150.79,600.7 150.79,600.7 h 316.16 c 0,0 63.23,-890.1 -38.92,-1274.3 -102.14,-384.3 -214.01,-549.7 -228.6,-603.2 -14.59,-53.5 43.77,-364.8 -63.24,-598.2 -107,-233.5 -212.96,-408.6 -274.29,-491.3 -61.32,-82.7 -221.83,-564.2 -221.83,-564.2 l -578.81,194.5 -145.92,891.4 335.61,509.5 476.67,554.5" /><path
         id="path154"
         style="fill:#a45634;fill-opacity:1;fill-rule:nonzero;stroke:none"
         d="m 7137.78,10736.2 c 24.15,19.6 99.59,141 414.6,214 l -161.67,68.1 38.91,321 c 0,0 -286.97,-82.2 -364.8,-132.7 -77.82,-50.5 -139.59,-220.7 -108.7,-287.2 30.88,-66.5 181.66,-183.2 181.66,-183.2" /><path
         id="path156"
         style="fill:#e9eef1;fill-opacity:1;fill-rule:nonzero;stroke:none"
         d="m 6398.46,10823.7 -133.76,-122.8 c 0,0 -581.24,-1047 -588.54,-1068.9 -7.3,-21.9 -299.13,-656.6 -299.13,-678.5 0,-21.9 80.25,-802.6 145.91,-1145.5 65.67,-342.9 80.26,-445 80.26,-445 0,0 481.53,-153.2 1006.84,-80.3 525.31,73 729.6,321 729.6,321 0,0 -99.71,987.4 0,1420.3 99.71,432.9 226.17,710.2 211.58,802.6 -14.59,92.4 -150.79,588.5 -209.15,788 -58.37,199.4 -238.33,371.2 -257.79,382.6 -19.46,11.3 -685.82,-173.5 -685.82,-173.5" /><path
         id="path158"
         style="fill:#c37140;fill-opacity:1;fill-rule:nonzero;stroke:none"
         d="m 5420.8,11178.8 c 0,0 355.07,-97.3 549.63,-223.8 194.56,-126.4 294.27,-325.9 294.27,-325.9 0,0 284.54,-116.7 425.6,-500.9 141.05,-384.3 -189.7,-1138.2 -680.96,-1303.6 -491.26,-165.4 -588.54,43.8 -656.63,170.2 -68.1,126.5 -72.96,535.1 -68.1,797.7 4.86,262.7 -1.37,486.6 -1.37,486.6 0,0 -392.61,116.6 -596.9,340.3 -204.28,223.8 -286.97,559.4 -311.29,608 -24.32,48.6 -379.39,398.9 -496.12,763.7 -116.74,364.7 -359.94,1454.3 -359.94,1454.3 l 350.2,204.3 c 0,0 330.76,-734.5 564.23,-1031.2 233.46,-296.7 432.89,-831.7 432.89,-831.7 0,0 364.8,-291.9 554.49,-608" /><path
         id="path160"
         style="fill:#a45634;fill-opacity:1;fill-rule:nonzero;stroke:none"
         d="m 5121.02,11266.5 c 0,0 153.86,-185 197.64,-413.6 0,0 86.26,287.2 -197.64,413.6" /><path
         id="path162"
         style="fill:#a45634;fill-opacity:1;fill-rule:nonzero;stroke:none"
         d="m 7930.61,12375.3 c 0,0 -57.38,-244.7 -211.58,-364.8 -154.21,-120.1 -26.67,-120.3 0,-102.1 26.66,18.1 294.27,145.9 211.58,466.9" /><path
         id="path164"
         style="fill:#9c9c9b;fill-opacity:1;fill-rule:nonzero;stroke:none"
         d="m 8317.29,13444.2 h 60.28 c 0,0 136.72,69.3 129.42,94.8 -7.3,25.5 -576.38,572.7 -576.38,572.7 0,0 -167.81,178.8 -204.29,204.3 -36.48,25.6 -3322.09,238.4 -3638.24,180 -316.16,-58.4 -1268.62,-619.2 -1268.62,-619.2 l 117.32,-225.4 c 0,0 1209.67,650 1224.26,659.8 14.59,9.7 3390.18,-150.8 3409.63,-155.7 19.46,-4.8 144.71,-171.4 144.71,-171.4 l 231.02,-280.9 c 0,0 53.21,-58.4 103.83,0 50.62,58.3 47.93,106.3 50.62,173.8 2.69,67.6 216.44,-432.8 216.44,-432.8" /><path
         id="path166"
         style="fill:#e3e2e0;fill-opacity:1;fill-rule:nonzero;stroke:none"
         d="m 2959.02,13806.2 c 32.4,-62.3 22.44,-131.6 -22.24,-154.8 -44.68,-23.3 -107.16,8.3 -139.56,70.6 -32.4,62.2 -22.44,131.5 22.24,154.8 44.68,23.2 107.16,-8.4 139.56,-70.6" /><path
         id="path168"
         style="fill:#a45634;fill-opacity:1;fill-rule:nonzero;stroke:none"
         d="m 6464.7,9826.6 c 0,0 -12.74,-121.6 -168.39,-272.4 -155.64,-150.8 -340.47,-252.9 -321.02,-252.9 19.46,0 267.52,38.9 403.71,194.5 136.2,155.7 85.7,330.8 85.7,330.8" /><path
         id="path170"
         style="fill:#a45634;fill-opacity:1;fill-rule:nonzero;stroke:none"
         d="m 7611.97,10653.5 c 0,0 114.35,-145.7 26.8,-374.4 0,0 223.64,228.4 -26.8,374.4" /><path
         id="path172"
         style="fill:#c37140;fill-opacity:1;fill-rule:nonzero;stroke:none"
         d="m 6206.33,11108.2 c 0,0 20.68,-42.5 31.62,-89.9 10.94,-47.5 26.75,-317.4 26.75,-317.4 0,0 184.83,21.9 330.75,-76.6 145.92,-98.5 331.97,-321 477.88,-342.9 145.92,-21.9 197,116.7 167.81,277.2 -29.18,160.5 -244.41,463.3 -251.71,488.8 -7.3,25.6 -178.75,572.8 -204.28,594.7 -25.54,21.8 -142.27,153.2 -255.36,0 -113.09,-153.3 -182.4,-255.4 -226.18,-339.3 -43.77,-83.9 -97.28,-194.6 -97.28,-194.6" /><path
         id="path174"
         style="fill:#df9866;fill-opacity:1;fill-rule:nonzero;stroke:none"
         d="m 6654.23,11371.7 c -16.43,-16.2 -77.02,-130.9 -149.98,-149.2 -72.96,-18.2 -113.09,-25.5 -113.09,-25.5 0,0 -40.12,-80.2 -153.21,-178.7 l -31.62,89.9 58.37,278.5 c 0,0 254.14,135 286.97,127.7 32.84,-7.3 102.56,-142.7 102.56,-142.7" /><path
         id="path176"
         style="fill:#c37140;fill-opacity:1;fill-rule:nonzero;stroke:none"
         d="m 3518.99,13445.4 c 0,0 -34.05,34 -148.35,143.5 -114.3,109.4 -160.51,197 -165.38,206.7 -4.86,9.7 -17.02,116.7 -60.8,167.8 -43.77,51.1 -85.11,65.7 -85.11,65.7 0,0 0,109.4 34.04,136.1 34.05,26.8 43.78,31.7 51.07,34.1 7.3,2.4 48.65,43.8 94.85,55.9 46.21,12.2 89.99,41.4 189.7,65.7 99.71,24.3 155.64,34 201.85,26.7 46.21,-7.2 138.63,-107 182.4,-272.3 43.78,-165.4 31.62,-294.3 43.78,-360 12.15,-65.6 12.15,-65.6 12.15,-65.6 l -121.59,-245.7 -228.61,41.4" /><path
         id="path178"
         style="fill:#c37140;fill-opacity:1;fill-rule:nonzero;stroke:none"
         d="m 8061.94,13357.8 c 0,0 -29.19,38.9 -62.02,90 -32.83,51.1 -134.97,127.7 -153.22,164.2 -18.23,36.4 -65.66,145.9 -102.14,204.3 -36.48,58.3 -69.31,134.9 -29.18,167.8 0,0 102,-98.5 164.08,-94.9 62.09,3.7 131.4,76.6 127.76,94.9 -3.65,18.2 -76.61,127.6 -76.61,127.6 0,0 116.73,-3.6 196.99,-21.8 80.26,-18.3 182.4,-54.8 207.94,-76.7 25.53,-21.8 87.34,-186 61.91,-306.4 -25.43,-120.4 -19.35,-349 -19.35,-349 0,0 -97.28,-136.2 -137.41,-125.2 -40.13,10.9 -178.75,125.2 -178.75,125.2" /><path
         id="path180"
         style="fill:#c37140;fill-opacity:1;fill-rule:nonzero;stroke:none"
         d="m 6276.2,10778.9 837.07,33.9 c -58.17,112.6 -1.04,341 -4.69,351.8 -8.51,25.1 -309.62,469.1 -336.18,489.7 -26.56,20.6 -149.49,146.2 -255.06,-12.3 -105.58,-158.5 -169.89,-263.8 -209.57,-349.8 -39.68,-85.9 -87.79,-199 -87.79,-199 0,0 22.7,-41.5 35.91,-88.3 5.91,-21 38.61,-139.2 20.31,-226" /><path
         id="path182"
         style="fill:#a45634;fill-opacity:1;fill-rule:nonzero;stroke:none"
         d="m 6557.05,11533.2 c 0,0 -18.75,-206.2 -56.91,-310.8 -38.15,-104.6 -244.25,-217.5 -244.25,-217.5 l -79.25,92.6 380.41,435.7" /><path
         id="path184"
         style="fill:#2f1d16;fill-opacity:1;fill-rule:nonzero;stroke:none"
         d="m 7626.94,11891 c 14.82,62.6 -25.22,315.3 -47.27,346.2 -22.04,31 -75.09,117 -143.56,184.6 -68.47,67.6 -159.78,100.2 -199.85,117.1 -40.06,16.8 -98.52,49 -160.27,67.3 -61.75,18.3 -124.14,18.4 -200.43,21.8 -76.3,3.4 -87.91,31.8 -142.53,33.7 -54.62,2 -141.6,-36.2 -141.6,-36.2 0,0 -63.23,-7 -127.27,-13.9 -64.03,-6.8 -66.96,-50.2 -159.58,-140.3 -92.6,-90.1 -56.79,-239.7 -56.79,-239.7 l -11.5,-90.9 c 0,0 86.45,-354.8 150.92,-463.6 64.47,-108.9 50.06,-28.6 80.05,-29 29.98,-0.5 220.48,98.2 220.48,98.2 l 17.3,-248.2 c 0,0 155.28,-307.5 229.82,-402.1 74.55,-94.5 137.66,-118.8 156.48,-109.9 18.83,8.9 62.6,36.6 121.93,88.3 77.69,67.6 267.56,338.4 326,500.8 34.97,88.9 77.66,273.5 87.67,315.8" /><path
         id="path186"
         style="fill:#c37140;fill-opacity:1;fill-rule:nonzero;stroke:none"
         d="m 6247.79,12231.6 c 0,0 -83.97,-227.5 -91.47,-259.2 -7.49,-31.6 -5.33,-78.9 -27.74,-117.1 -22.4,-38.1 -138.44,-161.1 -145.19,-189.6 -6.75,-28.4 106.95,-98.8 106.95,-98.8 0,0 -114.05,-410.9 -77.4,-439.7 36.65,-28.7 233.48,-58.6 353.18,23.3 119.7,82 182.35,374.7 190.93,382.7 8.58,8 92.79,24.8 172.68,136.2 79.88,111.5 19.16,236.2 -81.96,246.8 -101.12,10.6 -166.27,-208 -192.34,-205.2 -26.07,2.9 -40.4,12.9 -41.31,23.2 -0.92,10.2 -10.08,112.7 -17.82,164.7 -7.75,51.9 -16.66,70.8 -0.91,137.2 15.74,66.5 13.41,127.2 1.17,160.2 -12.24,33 -90.79,68.3 -148.77,35.3" /></g></g></svg>