<?xml version="1.0" encoding="UTF-8" standalone="no"?>
<svg
   xmlns:dc="http://purl.org/dc/elements/1.1/"
   xmlns:cc="http://creativecommons.org/ns#"
   xmlns:rdf="http://www.w3.org/1999/02/22-rdf-syntax-ns#"
   xmlns:svg="http://www.w3.org/2000/svg"
   xmlns="http://www.w3.org/2000/svg"
   viewBox="0 0 2666.6667 2666.6667"
   height="2666.6667"
   width="2666.6667"
   xml:space="preserve"
   id="svg2"
   version="1.1"><metadata
     id="metadata8"><rdf:RDF><cc:Work
         rdf:about=""><dc:format>image/svg+xml</dc:format><dc:type
           rdf:resource="http://purl.org/dc/dcmitype/StillImage" /></cc:Work></rdf:RDF></metadata><defs
     id="defs6" /><g
     transform="matrix(1.3333333,0,0,-1.3333333,0,2666.6667)"
     id="g10"><g
       transform="scale(0.1)"
       id="g12"><g
         transform="scale(1.22699)"
         id="g14"><path
           id="path16"
           style="fill:none;fill-opacity:1;fill-rule:nonzero;stroke:none"
           d="M 16300,0 H 0 V 16300 H 16300 V 0" /></g><path
         id="path18"
         style="fill:#c1bfbd;fill-opacity:1;fill-rule:nonzero;stroke:none"
         d="m 988.949,7717.3 v -176.1 l 1777.261,282.9 v 181.4 L 988.949,7717.3" /><path
         id="path20"
         style="fill:#969797;fill-opacity:1;fill-rule:nonzero;stroke:none"
         d="m 812.82,7621.3 -128.09,152.1 824.59,184.1 979.36,112.1 277.53,-64.1 -1777.261,-288.2 -176.129,-96" /><path
         id="path22"
         style="fill:#969797;fill-opacity:1;fill-rule:nonzero;stroke:none"
         d="m 1917.61,8622 -165.45,106 165.45,78.1 L 6932.64,8137 6960.9,7929.6 1917.61,8622" /><path
         id="path24"
         style="fill:#969797;fill-opacity:1;fill-rule:nonzero;stroke:none"
         d="m 1685.44,7898.8 232.17,64 V 9713.4 L 1586.7,9676 1685.44,7898.8" /><path
         id="path26"
         style="fill:#c1bfbd;fill-opacity:1;fill-rule:nonzero;stroke:none"
         d="m 1826.87,8491.2 5105.77,-773.9 -246.09,302.6 -4934.39,708.1 74.71,-236.8" /><path
         id="path28"
         style="fill:#969797;fill-opacity:1;fill-rule:nonzero;stroke:none"
         d="m 7235.92,6596.5 277.65,152.1 -376.26,2698 -362.93,-67.6 461.54,-2782.5" /><path
         id="path30"
         style="fill:#c1bfbd;fill-opacity:1;fill-rule:nonzero;stroke:none"
         d="m 1509.32,7957.5 v 1844.3 l 4995.16,-536.2 184.78,-14.5 164.25,28.7 382.41,-2683.3 -338.78,80.1 -375.25,2393.7 -4844.45,544.4 8,-1715.9 -176.12,58.7" /><path
         id="path32"
         style="fill:#797a7b;fill-opacity:1;fill-rule:nonzero;stroke:none"
         d="m 1245.13,10036.3 -288.208,154.8 c 0,0 1112.798,152.1 1144.818,144.1 32.02,-8 4672.64,-476.5 4672.64,-476.5 0,0 253.52,99.4 312.23,154.5 58.7,55.1 515.03,-16 515.03,-16 l 176.12,-296 -128.09,-178.1 c 0,0 -1737.23,-76.5 -1813.28,-76.5 -76.06,0 -4591.26,589.7 -4591.26,589.7" /><path
         id="path34"
         style="fill:#969797;fill-opacity:1;fill-rule:nonzero;stroke:none"
         d="m 956.922,10191.1 c 0,0 0,-248.2 0,-304.2 0,-56.1 5476.268,-632.5 5628.188,-640.5 151.92,-8 1160.63,142.8 1160.63,142.8 l 32.02,312 -1629.59,-126.6 -5191.248,616.5" /><path
         id="path36"
         style="fill:#58595b;fill-opacity:1;fill-rule:nonzero;stroke:none"
         d="m 7769.04,9109.4 h -269.51 c -46.4,-2.3 -69.94,-289.7 -52.57,-641.9 17.37,-352.1 69.08,-635.8 115.47,-633.5 h 269.51 l -62.9,1275.4" /><path
         id="path38"
         style="fill:#797a7b;fill-opacity:1;fill-rule:nonzero;stroke:none"
         d="m 7884.51,8475.8 c 17.37,-352.2 -6.17,-639.5 -52.57,-641.8 -46.4,-2.3 -98.09,281.4 -115.47,633.5 -17.36,352.2 6.17,639.6 52.57,641.9 46.4,2.2 98.1,-281.4 115.47,-633.6" /><path
         id="path40"
         style="fill:#c37140;fill-opacity:1;fill-rule:nonzero;stroke:none"
         d="m 7929.87,9709.5 461.66,-94.8 c 0,0 -117.41,-355 -96.06,-824.6 21.34,-469.7 149.43,-757.9 176.12,-950 26.68,-192.2 26.68,-192.2 26.68,-192.2 h 464.33 c 0,0 154.78,966.1 181.47,1457.1 26.68,491 26.68,491 26.68,491 0,0 160.12,378.9 -42.7,736.5 -202.8,357.6 -973.03,579.1 -973.03,579.1 0,0 -398.61,-66.7 -403.94,-221.5 -5.34,-154.8 -53.37,-213.5 -26.69,-427 26.69,-213.5 205.48,-553.6 205.48,-553.6" /><path
         id="path42"
         style="fill:#a45634;fill-opacity:1;fill-rule:nonzero;stroke:none"
         d="m 8295.47,8790.1 c 12.13,-267 58.75,-475.3 101.63,-640.6 255.94,178.9 246.38,457.4 253.82,578.5 7.67,124.9 -158.63,430.3 -158.63,430.3 0,0 82.77,446.1 199.64,838.9 61.61,207.1 91.69,447.6 105.86,637.1 -290.75,176 -642.77,277.3 -642.77,277.3 0,0 -398.61,-66.7 -403.94,-221.5 -5.34,-154.8 -53.37,-213.5 -26.69,-427 26.69,-213.5 205.48,-553.6 205.48,-553.6 l 461.66,-94.8 c 0,0 -117.41,-355 -96.06,-824.6" /><path
         id="path44"
         style="fill:#c37140;fill-opacity:1;fill-rule:nonzero;stroke:none"
         d="m 5736.31,9934.9 100.08,-320.2 316.22,-336.3 c 0,0 -224.16,-248.1 -208.15,-680.4 16.01,-432.4 64.05,-859.3 56.04,-1154.2 -8.01,-294.9 8.01,-423 8.01,-423 h 456.32 c 0,0 -16.01,290.7 168.12,877.9 184.13,587.2 232.17,995.5 240.17,1155.6 8.01,160.1 160.11,333.7 168.12,655.2 8.01,321.5 -421.63,820.5 -421.63,820.5 0,0 -238.52,312.8 -322.07,316.5 -83.55,3.7 -529.2,-351.2 -529.2,-399.2 0,-48.1 -32.03,-512.4 -32.03,-512.4" /><path
         id="path46"
         style="fill:#252323;fill-opacity:1;fill-rule:nonzero;stroke:none"
         d="m 5480.13,11624.1 c -32.02,0 -480.33,-114.2 -632.45,-777.6 -152.11,-663.4 296.22,-895.6 504.36,-1023.7 208.15,-128.1 484.35,-208.1 484.35,-208.1 0,0 158.78,773.9 396.28,1004.7 237.5,230.8 504.36,-468.3 504.36,-468.3 l 240.17,-288.3 952.67,-153.3 c 0,0 -22.42,740.7 190.23,1137 34.92,65.1 34.92,65.1 34.92,65.1 0,0 -561.39,125.4 -1225.86,194.8 -664.47,69.4 -1449.03,517.7 -1449.03,517.7" /><path
         id="path48"
         style="fill:#a45634;fill-opacity:1;fill-rule:nonzero;stroke:none"
         d="m 6148.17,10511.1 217.92,-175.9 c 0,0 -16.01,-162.8 45.37,-269.5 61.38,-106.8 189.47,-107.6 261.52,-286 72.05,-178.4 77.63,-241.4 130.88,-256.6 53.25,-15.2 122.63,-145.9 202.69,-100.6 80.06,45.4 -176.13,701.9 -176.13,701.9 l -245.31,320.2 -404.11,136.9 -32.83,-70.4" /><path
         id="path50"
         style="fill:#252323;fill-opacity:1;fill-rule:nonzero;stroke:none"
         d="m 5480.13,11624.1 c -32.02,0 -480.33,-114.2 -632.45,-777.6 -152.11,-663.4 296.22,-895.6 504.36,-1023.7 208.15,-128.1 484.35,-208.1 484.35,-208.1 0,0 158.78,773.9 396.28,1004.7 237.5,230.8 504.36,-468.3 504.36,-468.3 l 240.17,-288.3 952.67,-153.3 c 0,0 -22.42,740.7 190.23,1137 34.92,65.1 34.92,65.1 34.92,65.1 0,0 -561.39,125.4 -1225.86,194.8 -664.47,69.4 -1449.03,517.7 -1449.03,517.7" /><path
         id="path52"
         style="fill:#c37140;fill-opacity:1;fill-rule:nonzero;stroke:none"
         d="m 7814.84,11869.8 147.27,-378 c 0,0 -61.48,-463.6 39.92,-797.5 0,0 -91.05,-294.4 -68.21,-733.1 22.85,-438.8 130.92,-678.9 134.92,-783 4,-104.1 4,-104.1 4,-104.1 H 8433 c 0,0 -44.03,121.4 20.02,449 64.04,327.6 188.13,677.5 216.15,948.8 28.02,271.4 0,531.6 0,531.6 0,0 56.04,260.2 56.04,512.3 0,252.2 -20.01,354 -20.01,354 0,0 120.08,459 -76.06,799 -196.14,340.1 -628.53,83.6 -628.53,83.6 l -185.77,-882.6" /><path
         id="path54"
         style="fill:#aa5632;fill-opacity:1;fill-rule:nonzero;stroke:none"
         d="m 8629.14,12668.8 c -196.14,340.1 -628.53,83.6 -628.53,83.6 l -114.03,-541.8 c 90.33,-28.8 36.97,-30.7 75.53,-53.7 l 77.55,-57.5 -224.82,-229.6 430.03,283.8 -112.55,-29.7 c 35.22,70.6 135.8,272.5 152.68,309.4 20.53,44.9 194.06,51.1 282.48,97.1 31.04,16.2 77.38,10.7 124.45,-3.2 -15.97,48.4 -36.52,96.1 -62.79,141.6" /><path
         id="path56"
         style="fill:#c37140;fill-opacity:1;fill-rule:nonzero;stroke:none"
         d="m 8253.39,13715.3 c 0,0 -292.37,-46.7 -398.45,-50.7 -106.07,-4 -333.36,68.5 -333.36,68.5 0,0 -80.06,-358.4 -144.1,-571.9 -64.05,-213.5 -74.72,-592.4 58.71,-720.5 133.42,-128.1 651.68,81.1 848.87,286.1 197.2,204.9 440.15,690.6 440.15,690.6 0,0 -82.83,160.1 -146.88,234.8 -64.04,74.7 -324.94,63.1 -324.94,63.1" /><path
         id="path58"
         style="fill:#e9eef1;fill-opacity:1;fill-rule:nonzero;stroke:none"
         d="m 8285.06,12726.8 c -197.2,-205 -715.45,-414.2 -848.87,-286.1 -133.43,128.1 -122.76,507 -58.71,720.5 64.04,213.5 144.1,571.9 144.1,571.9 l -189.91,31.2 c 0,0 -63.6,-423.7 -238.39,-769.6 -174.79,-345.9 -564.4,-541.8 -633.78,-593.3 -69.39,-51.5 -416.3,-483.8 -416.3,-483.8 0,0 -133.43,-304.2 -138.77,-325.5 -5.33,-21.4 261.52,-725.9 309.56,-741.9 48.03,-16 202.81,26.7 256.18,0 53.37,-26.7 330.9,213.5 394.95,234.8 64.04,21.4 64.04,21.4 64.04,21.4 0,0 0,213.5 64.05,304.2 64.04,90.7 288.2,245.5 368.26,266.9 80.05,21.3 282.87,80 384.27,138.7 101.4,58.7 374.48,373.6 374.48,373.6 0,0 63.16,306.9 292.66,479 135.7,101.8 170.39,299.6 148.57,450 -82.57,-139.9 -184.45,-296.5 -276.39,-392" /><path
         id="path60"
         style="fill:#252323;fill-opacity:1;fill-rule:nonzero;stroke:none"
         d="m 9330.2,13000.5 c 154.8,-34.7 198.75,98.2 198.75,98.2 0,0 0,0 38.42,122 38.42,122 0.42,335.7 -107.98,524.9 -108.39,189.2 -186.72,275.1 -186.72,275.1 -77.79,36.9 -181.53,32.1 -181.53,32.1 0,0 -121.59,178.5 -425.06,49.7 -303.45,-128.8 -508.39,-361 -510.49,-369.4 -2.1,-8.4 -2.57,-188.9 77.91,-221.4 80.48,-32.5 284.32,-79.5 284.32,-79.5 0,0 102.32,-343.6 120.58,-344.7 18.27,-1.1 602.38,-62.8 602.38,-62.8 l 69.49,-23.5 c 6.1,1.1 12.73,0.9 19.93,-0.7" /><path
         id="path62"
         style="fill:#fbc398;fill-opacity:1;fill-rule:nonzero;stroke:none"
         d="m 9330.2,13000.5 c 0,0 -160.29,-144 -200.25,-170.2 -39.96,-26.2 -182.27,-51.5 -202.31,-62.1 -20.04,-10.5 -192.49,-213.3 -207.14,-215.1 -14.65,-1.9 -60.98,80.2 -69.6,80.5 -8.62,0.4 -92.74,-21.2 -99.86,-26.3 -7.11,-5.1 -24.88,-8.9 -24.88,-8.9 0,0 -31.5,-18.9 -50.9,-18.2 -19.4,0.8 -49.62,-7.5 -61.74,-9.3 -12.12,-1.7 -134.6,-48 -158.09,-39.4 -23.48,8.6 -131.13,257.5 -135.12,302 -3.99,44.5 125.57,357.8 161.77,394.6 36.19,36.7 167.83,87.1 167.83,87.1 0,0 -19.19,115.6 53.2,189.1 72.38,73.5 232.03,116.9 287.95,36.5 55.92,-80.3 -46.63,-164.6 -74.53,-186.4 -27.9,-21.9 -62.69,-53.1 -64.09,-58.7 -1.4,-5.6 111.5,-26.4 167.74,-26.8 56.23,-0.3 165.57,98.3 224.71,104.1 59.14,5.9 143.28,-44 167.2,-72.9 23.92,-28.8 118.11,-299.6 118.11,-299.6" /><path
         id="path64"
         style="fill:#aa5632;fill-opacity:1;fill-rule:nonzero;stroke:none"
         d="m 8175.47,12812.4 c 1.67,-58.8 -13.12,-120.4 -0.62,-178.5 -37.68,79 -121.1,183.4 -123.6,211.3 -3.99,44.4 118.62,319.3 154.81,356 36.2,36.7 243.85,114 243.85,114 0,0 -108.69,-81.3 -153.12,-135.5 -44.44,-54.1 -124.4,-258.7 -121.32,-367.3" /><path
         id="path66"
         style="fill:#aa5632;fill-opacity:1;fill-rule:nonzero;stroke:none"
         d="m 8134.01,12897 -388.27,-164.1 c 0,0 288.21,44 388.27,0 100.08,-44 0,164.1 0,164.1" /><path
         id="path68"
         style="fill:#c4c8ca;fill-opacity:1;fill-rule:nonzero;stroke:none"
         d="m 7067.92,13417.4 c 0,0 77.39,-256.2 101.41,-292.2 24.02,-36.1 252.18,-168.2 304.22,-228.2 52.04,-60.1 76.05,-128.1 76.05,-128.1 v 180.1 c 0,0 -292.21,212.2 -304.21,220.2 -12.01,8 -177.47,248.2 -177.47,248.2" /><path
         id="path70"
         style="fill:#a45634;fill-opacity:1;fill-rule:nonzero;stroke:none"
         d="m 7853.82,13417.4 c 20.31,10 -240.17,-232.2 -304.22,-548.4 l -60.04,97.9 c 0,0 104.07,322.4 364.26,450.5" /><path
         id="path72"
         style="fill:#c4c8ca;fill-opacity:1;fill-rule:nonzero;stroke:none"
         d="m 7489.56,12668.8 c 0,0 -136.1,-348.2 -396.28,-632.4 0,0 344.24,215.1 396.28,632.4" /><path
         id="path74"
         style="fill:#c37140;fill-opacity:1;fill-rule:nonzero;stroke:none"
         d="m 7331.66,13764.3 h -461.21 c 0,0 -304.21,85.4 -555.06,0 -250.84,-85.4 -496.35,-671.2 -496.35,-671.2 0,0 -256.19,-172.1 -394.95,-540.3 -138.76,-368.3 -149.44,-661.9 -160.11,-800.6 -10.67,-138.8 133.43,-314.9 133.43,-314.9 0,0 106.74,-336.2 362.92,-528.4 256.18,-192.1 651.13,-512.3 651.13,-512.3 l 208.15,133.4 c 0,0 -163.8,368.3 -322.07,715.2 -158.27,346.9 -243.67,469.6 -243.67,469.6 l 454.92,718.5 c 0,0 380.34,158.8 584.49,561.4 204.14,402.7 238.38,769.6 238.38,769.6" /><path
         id="path76"
         style="fill:#a45634;fill-opacity:1;fill-rule:nonzero;stroke:none"
         d="m 6865.12,12897 c 0,0 -264.19,-176.1 -268.2,-192.1 -4,-16 -88.13,-271.6 -88.13,-271.6 l 137.48,75.6 22.7,156.3 196.15,231.8" /><path
         id="path78"
         style="fill:#b36239;fill-opacity:1;fill-rule:nonzero;stroke:none"
         d="m 5836.39,11944.3 c 0,0 37.65,703.6 532.37,720.9 0,0 -84.06,-4.4 -240.17,-176.5 -156.11,-172.1 -292.2,-544.4 -292.2,-544.4" /><path
         id="path80"
         style="fill:#a45634;fill-opacity:1;fill-rule:nonzero;stroke:none"
         d="m 5836.39,11808.2 c 0,0 146.77,-34.7 217.48,-93.4 l 48.7,76.9 c 0,0 -142.1,92.6 -266.18,16.5" /><path
         id="path82"
         style="fill:#c37140;fill-opacity:1;fill-rule:nonzero;stroke:none"
         d="m 6411.46,10396.6 c 0,0 40.03,0 42.7,-149.5 2.67,-149.4 74.72,-186.8 181.46,-301.5 106.74,-114.8 122.75,-149.5 154.78,-248.2 32.02,-98.7 104.07,-93.4 104.07,-93.4 0,0 34.69,-123.8 66.71,-152.1 32.03,-28.3 45.37,-29.4 45.37,-29.4 0,0 32.02,-50.7 80.06,-42.7 48.03,8 50.7,66.8 50.7,66.8 0,0 32.02,-8.1 53.37,58.7 21.35,66.7 -24.01,512.3 -45.37,563 -21.35,50.7 -525.7,461.7 -525.7,461.7 l -130.76,13.3 -77.39,-146.7" /><path
         id="path84"
         style="fill:#a45634;fill-opacity:1;fill-rule:nonzero;stroke:none"
         d="m 6774.38,10036.3 c 0,0 64.05,-82.7 93.4,-208.1 29.36,-125.5 26.69,-224.2 26.69,-224.2 l 27.24,-80.9 c 0,0 24.58,112.1 0,256.6 -24.57,144.5 -147.33,256.6 -147.33,256.6" /><path
         id="path86"
         style="fill:#a45634;fill-opacity:1;fill-rule:nonzero;stroke:none"
         d="m 6960.9,10013.2 c 0,0 77.67,-425.2 45.65,-590.7 l 34.8,-33.3 c 0,0 58.04,328.7 -80.45,624" /><path
         id="path88"
         style="fill:#a45634;fill-opacity:1;fill-rule:nonzero;stroke:none"
         d="m 7086.61,10013.2 c -9.53,17.4 50.7,-329.1 50.7,-566.6 l 38.79,25.7 c 0,0 6.58,365.7 -89.49,540.9" /><path
         id="path90"
         style="fill:#b36239;fill-opacity:1;fill-rule:nonzero;stroke:none"
         d="m 6297.54,9413 c -129.94,297.4 -379.29,526.7 -379.29,526.7 l 22.09,74.2 c 292.09,-270.7 357.2,-600.9 357.2,-600.9" /><path
         id="path92"
         style="fill:#b36239;fill-opacity:1;fill-rule:nonzero;stroke:none"
         d="m 6148.17,7898.8 c 258.5,395.5 258.42,972.5 262.93,972.5 0.12,0 0.24,-0.4 0.36,-1.2 112.08,-683.1 -263.29,-971.3 -263.29,-971.3" /><path
         id="path94"
         style="fill:#ececec;fill-opacity:1;fill-rule:nonzero;stroke:none"
         d="m 684.73,7773.4 v -146.8 l 304.219,-85.4 v 176.1 l -304.219,56.1" /><path
         id="path96"
         style="fill:#252323;fill-opacity:1;fill-rule:nonzero;stroke:none"
         d="m 8478.89,7389.5 c 0,0 -127.28,-515.5 -49.55,-582.8 77.73,-67.4 304.45,-22.5 421.88,-83.1 117.41,-60.7 649.85,-140.6 838.19,43.3 188.34,183.9 -535.03,517.7 -579.31,568.4 -44.29,50.6 -90.24,150.2 -124.6,198 -34.36,47.9 -164.27,61.7 -164.27,61.7 0,0 -63.76,105.5 -130.83,49.5 -67.07,-56.1 -211.51,-255 -211.51,-255" /><path
         id="path98"
         style="fill:#f5f6f5;fill-opacity:1;fill-rule:nonzero;stroke:none"
         d="m 8803.42,7596.8 c 0,0 -50.09,-6.9 -58.5,-39 -8.41,-32.1 -20.67,-96.1 -33.1,-128.4 -12.44,-32.3 -222.18,-25.2 -222.18,-25.2 l -7.66,370.3 496.32,-26.2 -21.03,-188.4 c 0,0 -35.64,20.3 -153.85,36.9" /><path
         id="path100"
         style="fill:#252323;fill-opacity:1;fill-rule:nonzero;stroke:none"
         d="m 6004.76,6924.5 -16.21,-109.9 c 0,0 -58.63,-532.4 -43.44,-593.9 15.19,-61.5 189.37,-278.1 359.8,-345 170.43,-66.9 506.75,11.6 526.93,110.2 20.18,98.5 -292.32,616.9 -325.34,715.5 -33.03,98.6 0.81,314.5 -41.02,349.4 -41.82,34.9 -98.53,20.2 -98.53,20.2 l -327.39,91.5 -34.8,-238" /><path
         id="path102"
         style="fill:#f5f6f5;fill-opacity:1;fill-rule:nonzero;stroke:none"
         d="m 6362.79,7066.5 c 0,0 -41.63,0.2 -58.48,-49.9 -16.86,-50.2 -23.6,-70.3 -43.71,-83.6 -20.11,-13.3 -255.84,-8.5 -255.84,-8.5 l -3.16,289.3 h 475.03 l -11.15,-163 -102.69,15.7" /><path
         id="path104"
         style="fill:#b36239;fill-opacity:1;fill-rule:nonzero;stroke:none"
         d="m 8372.96,10807.3 c 98.31,302.8 37.04,672.9 43.61,672.9 0.12,0 0.26,-0.1 0.42,-0.4 192.14,-284.2 -44.03,-672.5 -44.03,-672.5" /><path
         id="path106"
         style="fill:#c37140;fill-opacity:1;fill-rule:nonzero;stroke:none"
         d="m 8034.05,8599.1 c 0,0 -24.02,0 -34.69,-18.7 -10.67,-18.7 -37.36,-194.8 -24.02,-226.8 13.35,-32 58.71,0 58.71,0 0,0 16.01,-48 61.38,-53.4 45.37,-5.3 58.71,13.4 58.71,13.4 0,0 8,-34.7 50.7,-40.1 42.7,-5.3 90.73,0 90.73,0 0,0 74.72,-18.6 152.11,13.4 77.39,32 82.73,145.7 82.73,145.7 l -130.77,1 c 0,0 -8,141.5 -18.67,149.5 -10.68,8 -210.82,66.7 -242.84,64 -32.03,-2.6 -104.08,-48 -104.08,-48" /><path
         id="path108"
         style="fill:#b36239;fill-opacity:1;fill-rule:nonzero;stroke:none"
         d="m 8244.87,9730.2 c 0,0 -196.14,308.6 0,716.9 0,0 -72.06,-373 0,-716.9" /><path
         id="path110"
         style="fill:#a8a8a6;fill-opacity:1;fill-rule:nonzero;stroke:none"
         d="m 8646.85,8435.1 -883.09,-18.9 -3.6,168.1 883.09,18.9 3.6,-168.1" /><path
         id="path112"
         style="fill:#58595b;fill-opacity:1;fill-rule:nonzero;stroke:none"
         d="m 8941.23,9109.4 h -269.52 c -46.39,-2.3 -69.93,-289.7 -52.56,-641.9 17.36,-352.1 69.07,-635.8 115.47,-633.5 h 269.51 l -62.9,1275.4" /><path
         id="path114"
         style="fill:#797a7b;fill-opacity:1;fill-rule:nonzero;stroke:none"
         d="m 9056.69,8475.8 c 17.37,-352.2 -6.16,-639.5 -52.56,-641.8 -46.4,-2.3 -98.1,281.4 -115.47,633.5 -17.37,352.2 6.16,639.6 52.57,641.9 46.4,2.2 98.1,-281.4 115.46,-633.6" /><path
         id="path116"
         style="fill:#a45634;fill-opacity:1;fill-rule:nonzero;stroke:none"
         d="m 7402.04,12483.6 c 8.45,-13.6 17.83,-25.7 28.01,-36.5 27.83,66.2 49.32,140 59.51,221.7 0,0 -29.6,-75.7 -87.52,-185.2" /><path
         id="path118"
         style="fill:#a45634;fill-opacity:1;fill-rule:nonzero;stroke:none"
         d="m 7343.58,12997.9 c 55.58,-38 108.2,-75.8 129.97,-100.9 52.04,-60.1 76.05,-128.1 76.05,-128.1 v 180.1 c 0,0 -104.19,75.7 -190.7,138.3 -6,-28.4 -11.17,-58.4 -15.32,-89.4" /><path
         id="path120"
         style="fill:#a45634;fill-opacity:1;fill-rule:nonzero;stroke:none"
         d="m 7195.28,13235.4 c -52.66,73.5 -127.36,182 -127.36,182 0,0 62.12,-205.6 92.32,-274.3 12.45,30.8 24.11,61.7 35.04,92.3" /><path
         id="path122"
         style="fill:#c37140;fill-opacity:1;fill-rule:nonzero;stroke:none"
         d="m 8072.74,9074.1 c 0,0 -94.73,-218.8 -113.41,-256.2 -18.68,-37.3 -16.14,-229.7 -16.14,-229.7 l 408.42,-26.5 c 0,0 17.25,-42.9 0,-85.4 -17.25,-42.4 -56.04,-133.4 -13.34,-146.7 42.7,-13.4 112.08,77.4 122.75,96 10.67,18.7 20.96,162.8 20.96,162.8 l 72.44,12.9 v 235.3 l -121.42,237.5 -302.88,133.4 -57.38,-133.4" /><path
         id="path124"
         style="fill:#2f1d16;fill-opacity:1;fill-rule:nonzero;stroke:none"
         d="m 9589.21,13192.1 c 7.09,57.2 40.65,71.4 42.18,120.2 1.52,48.9 -21.25,80.2 -24.57,122.6 -3.31,42.5 -13.26,140.1 -18.1,178.2 -4.84,38 -41.38,82 -59.64,104 -18.27,22 -44.96,101.5 -53.74,135.7 -8.77,34.3 -62.56,66.1 -93.22,82.4 -30.67,16.2 -43.79,82.5 -77.33,120.3 -33.53,37.7 -94.61,48.7 -128.38,70.9 -33.77,22.3 -112.09,21.2 -145.41,22.5 -33.32,1.2 -40.02,19.2 -104.11,36.4 -64.08,17.3 -158.01,-35.2 -158.01,-35.2 l 0.04,-0.1 c -30.94,-7.1 -64.2,-17.6 -100.11,-32.4 -309.43,-127.2 -490.97,-323.7 -591.73,-420.9 -33.36,-32.2 65.84,-208.4 147.14,-242.3 81.3,-33.8 286.45,-15.3 286.45,-15.3 0,0 99.91,-349.8 118.43,-351.2 18.52,-1.3 610.6,-70.7 610.6,-70.7 l 70.26,-24.5 c 6.19,1 12.92,0.7 20.21,-1 24.99,-5.9 47.14,-7.4 66.77,-5.8 0.03,0 92.11,-5.5 137.34,35.8 45.24,41.3 47.85,113.1 54.93,170.4" /><path
         id="path126"
         style="fill:#c37140;fill-opacity:1;fill-rule:nonzero;stroke:none"
         d="m 9330.17,12991.7 c 0,0 -164.32,-144.3 -205.17,-170.4 -40.86,-26.1 -185.57,-50.2 -206.03,-60.7 -20.45,-10.5 -197.78,-214.3 -212.68,-216 -14.88,-1.7 -60.96,82.2 -69.71,82.6 -8.74,0.4 -94.35,-20.6 -101.63,-25.6 -7.28,-5.1 -25.36,-8.8 -25.36,-8.8 0,0 -32.18,-18.8 -51.87,-17.8 -19.67,0.9 -50.43,-7.1 -62.75,-8.7 -12.32,-1.7 -137.15,-47.3 -160.89,-38.3 -23.74,9 -130.13,262.9 -133.67,308.1 -3.54,45.2 131.53,361.7 168.68,398.5 37.15,36.9 171.33,86.6 171.33,86.6 0,0 -18.16,117.5 56.14,191.2 74.3,73.8 236.82,116 292.65,33.8 55.83,-82.1 -49.2,-166.5 -77.76,-188.4 -28.57,-21.8 -64.24,-53 -65.72,-58.7 -1.49,-5.7 112.85,-28.2 169.92,-29.1 57.06,-1 169.15,97.8 229.24,103 60.09,5.3 144.9,-46.3 168.85,-75.9 23.95,-29.6 116.43,-305.4 116.43,-305.4" /><g
         transform="scale(1.12409)"
         id="g128"><path
           id="path130"
           style="fill:#c37140;fill-opacity:1;fill-rule:nonzero;stroke:none"
           d="m 16200.1,11321.9 c 4.8,-7.6 99.9,-265.2 97.4,-507.4 -2.4,-242.1 -66.5,-447.7 -66.5,-447.7 0,0 51.1,-403.29 -8.3,-636.56 -59.3,-233.26 -644,-147.35 -644,-147.35 0,0 14.9,160.84 -31.4,302.76 -46.4,141.95 -147.2,424.25 -147.2,424.25 l -30.9,312.3 505.7,737.2 325.2,-37.5" /></g><g
         transform="scale(1.1209)"
         id="g132"><path
           id="path134"
           style="fill:#aa5632;fill-opacity:1;fill-rule:nonzero;stroke:none"
           d="m 16152.9,11568.3 c -43.7,50.9 -16.8,-151.7 -16.8,-151.7 0,0 -288.9,-89 -450.1,-312 -116.2,-160.7 -48.2,-238.3 -1.2,-269 -27.3,-11.5 -52.2,-24.5 -65.6,-38 -40.1,-40.5 -82.7,-203.8 -82.7,-203.8 0,0 112.1,48 185.8,76.5 73.6,28.6 177.1,0 177.1,0 l -129.3,92.9 108.4,111.9 c 0,0 49.4,165.4 72.7,217.2 23.3,51.8 164.8,62.4 198.3,86.6 33.6,24.3 123.6,13.1 150.5,0 0,0 -103.5,338.5 -147.1,389.4" /></g><path
         id="path136"
         style="fill:#c1bfbd;fill-opacity:1;fill-rule:nonzero;stroke:none"
         d="m 10583.6,7717.3 v -176.1 l 1777.2,282.9 v 181.4 l -1777.2,-288.2" /><path
         id="path138"
         style="fill:#969797;fill-opacity:1;fill-rule:nonzero;stroke:none"
         d="m 10407.5,7621.3 -128.1,152.1 824.5,184.1 979.4,112.1 277.5,-64.1 -1777.2,-288.2 -176.1,-96" /><g
         transform="scale(1.01567)"
         id="g140"><path
           id="path142"
           style="fill:#969797;fill-opacity:1;fill-rule:nonzero;stroke:none"
           d="m 11334.5,8488.94 -162.8,104.36 162.8,76.9 4937.7,-658.78 27.8,-204.2 -4965.5,681.72" /></g><path
         id="path144"
         style="fill:#969797;fill-opacity:1;fill-rule:nonzero;stroke:none"
         d="m 11280.1,7898.8 232.1,64 v 1750.6 l -330.9,-37.4 98.8,-1777.2" /><g
         transform="scale(1.01394)"
         id="g146"><path
           id="path148"
           style="fill:#c1bfbd;fill-opacity:1;fill-rule:nonzero;stroke:none"
           d="m 11264.4,8374.42 5035.6,-763.26 -242.7,298.44 -4866.6,698.36 73.7,-233.54" /></g><g
         transform="scale(1.04958)"
         id="g150"><path
           id="path152"
           style="fill:#969797;fill-opacity:1;fill-rule:nonzero;stroke:none"
           d="m 16035.5,6284.88 264.5,144.91 -358.5,2570.55 -345.8,-64.41 439.8,-2651.05" /></g><g
         transform="scale(1.03255)"
         id="g154"><path
           id="path156"
           style="fill:#c1bfbd;fill-opacity:1;fill-rule:nonzero;stroke:none"
           d="m 10753.8,7706.63 v 1786.16 l 4837.8,-519.3 178.9,-14.04 159.1,27.8 370.4,-2598.71 -328.1,77.58 -363.5,2318.23 -4691.7,527.24 7.8,-1661.81 -170.7,56.85" /></g><g
         transform="scale(1.06579)"
         id="g158"><path
           id="path160"
           style="fill:#797a7b;fill-opacity:1;fill-rule:nonzero;stroke:none"
           d="m 10170.7,9416.76 -270.45,145.22 c 0,0 1044.05,142.71 1074.15,135.21 30,-7.52 4384.1,-447.07 4384.1,-447.07 0,0 237.9,93.27 293,144.98 55,51.7 483.3,-15.03 483.3,-15.03 l 165.2,-277.73 -120.2,-167.1 c 0,0 -1630,-71.78 -1701.4,-71.78 -71.3,0 -4307.7,553.3 -4307.7,553.3" /></g><g
         transform="scale(1.06579)"
         id="g162"><path
           id="path164"
           style="fill:#969797;fill-opacity:1;fill-rule:nonzero;stroke:none"
           d="m 9900.25,9561.98 c 0,0 0,-232.86 0,-285.4 0,-52.64 5138.15,-593.46 5280.65,-600.96 142.6,-7.51 1089.1,133.98 1089.1,133.98 l 30,292.74 -1529,-118.78 -4870.75,578.42" /></g><g
         transform="scale(1.16107)"
         id="g166"><path
           id="path168"
           style="fill:#c37140;fill-opacity:1;fill-rule:nonzero;stroke:none"
           d="m 15093.4,8362.52 397.6,-81.65 c 0,0 -101.2,-305.75 -82.8,-710.2 18.4,-404.54 128.7,-652.76 151.7,-818.21 23,-165.54 23,-165.54 23,-165.54 h 399.9 c 0,0 133.3,832.08 156.3,1254.96 23,422.88 23,422.88 23,422.88 0,0 137.9,326.34 -36.8,634.34 -174.6,307.98 -838.1,498.75 -838.1,498.75 0,0 -343.3,-57.47 -347.8,-190.77 -4.6,-133.3 -46,-183.87 -23,-367.74 23,-183.87 177,-476.82 177,-476.82" /></g><g
         transform="scale(1.0211)"
         id="g170"><path
           id="path172"
           style="fill:#c37140;fill-opacity:1;fill-rule:nonzero;stroke:none"
           d="m 15014.1,9729.62 98.1,-313.58 309.6,-329.35 c 0,0 -219.4,-242.98 -203.8,-666.34 15.7,-423.47 62.7,-841.55 54.9,-1130.36 -7.9,-288.8 7.8,-414.26 7.8,-414.26 h 447 c 0,0 -15.8,284.7 164.6,859.76 180.3,575.07 227.3,974.93 235.2,1131.73 7.9,156.79 156.8,326.8 164.7,641.66 7.8,314.82 -413,803.52 -413,803.52 0,0 -233.6,306.4 -315.4,310 -81.8,3.6 -518.2,-344 -518.2,-391 0,-47.1 -31.5,-501.78 -31.5,-501.78" /></g><g
         transform="scale(1.08893)"
         id="g174"><path
           id="path176"
           style="fill:#252323;fill-opacity:1;fill-rule:nonzero;stroke:none"
           d="m 13843.6,10674.8 c -29.4,0 -441.1,-104.9 -580.8,-714.12 -139.7,-609.26 272,-822.46 463.2,-940.1 191.1,-117.64 444.8,-191.11 444.8,-191.11 0,0 145.8,710.66 363.9,922.64 218.1,211.97 463.2,-430.09 463.2,-430.09 l 220.5,-264.71 874.9,-140.78 c 0,0 -20.6,680.23 174.6,1044.15 32.1,59.72 32.1,59.72 32.1,59.72 0,0 -515.5,115.2 -1125.7,178.9 -610.2,63.8 -1330.7,475.5 -1330.7,475.5" /></g><g
         transform="scale(1.02339)"
         id="g178"><path
           id="path180"
           style="fill:#aa5632;fill-opacity:1;fill-rule:nonzero;stroke:none"
           d="m 15383,10270.9 213,-171.9 c 0,0 -15.7,-159.06 44.3,-263.37 60,-104.31 185.2,-105.09 255.6,-279.42 70.4,-174.32 75.8,-235.88 127.9,-250.73 51.9,-14.85 119.8,-142.57 198,-98.3 78.2,44.36 -172,685.83 -172,685.83 l -239.8,312.89 -394.9,133.8 -32.1,-68.8" /></g><g
         transform="scale(1.08893)"
         id="g182"><path
           id="path184"
           style="fill:#252323;fill-opacity:1;fill-rule:nonzero;stroke:none"
           d="m 13843.6,10674.8 c -29.4,0 -441.1,-104.9 -580.8,-714.12 -139.7,-609.26 272,-822.46 463.2,-940.1 191.1,-117.64 444.8,-191.11 444.8,-191.11 0,0 145.8,710.66 363.9,922.64 218.1,211.97 463.2,-430.09 463.2,-430.09 l 220.5,-264.71 874.9,-140.78 c 0,0 -20.6,680.23 174.6,1044.15 32.1,59.72 32.1,59.72 32.1,59.72 0,0 -515.5,115.2 -1125.7,178.9 -610.2,63.8 -1330.7,475.5 -1330.7,475.5" /></g><g
         transform="scale(1.12391)"
         id="g186"><path
           id="path188"
           style="fill:#c37140;fill-opacity:1;fill-rule:nonzero;stroke:none"
           d="m 15863.8,12180.6 c 0,0 -218.1,-30.2 -338.1,-22.5 -94.3,6 -296.6,60.9 -296.6,60.9 0,0 -71.2,-318.9 -128.2,-508.9 -57,-189.9 -66.5,-527.1 52.2,-641 118.7,-114 579.9,72.2 755.3,254.5 175.5,182.3 391.6,614.5 391.6,614.5 0,0 -73.7,142.4 -130.6,208.9 -57,66.5 -305.6,33.6 -305.6,33.6" /></g><g
         transform="scale(1.11521)"
         id="g190"><path
           id="path192"
           style="fill:#e9eef1;fill-opacity:1;fill-rule:nonzero;stroke:none"
           d="m 16032.6,11412 c -176.8,-183.8 -641.6,-371.4 -761.2,-256.5 -119.6,114.8 -110,454.6 -52.6,646 57.4,191.5 129.2,512.9 129.2,512.9 l -170.3,27.9 c 0,0 -57,-379.9 -213.8,-690 -156.7,-310.2 -506.1,-485.8 -568.3,-532 -62.2,-46.2 -373.3,-433.8 -373.3,-433.8 0,0 -119.6,-272.8 -124.4,-292 -4.8,-19.1 234.5,-650.84 277.6,-665.19 19.7,-6.58 59.6,-2.1 101.6,2.37 49.5,5.3 102.2,10.6 128.1,-2.37 47.9,-23.93 296.7,191.43 354.1,210.57 57.5,19.14 57.5,19.14 57.5,19.14 0,0 0,191.48 57.4,272.78 57.4,81.4 258.4,220.2 330.2,239.3 71.8,19.2 253.7,71.8 344.6,124.4 90.9,52.7 335.8,335 335.8,335 0,0 56.6,275.2 262.4,429.6 121.7,91.2 152.8,268.6 133.3,403.4 -74.1,-125.4 -165.5,-265.8 -247.9,-351.5" /></g><g
         transform="scale(1.05179)"
         id="g194"><path
           id="path196"
           style="fill:#c4c8ca;fill-opacity:1;fill-rule:nonzero;stroke:none"
           d="m 15842.1,12756.7 c 0,0 73.5,-243.6 96.4,-277.8 22.8,-34.3 239.7,-159.9 289.2,-217 49.5,-57.1 72.3,-121.7 72.3,-121.7 v 171.2 c 0,0 -277.8,201.7 -289.2,209.3 -11.4,7.6 -168.7,236 -168.7,236" /></g><g
         transform="scale(1.07171)"
         id="g198"><path
           id="path200"
           style="fill:#aa5632;fill-opacity:1;fill-rule:nonzero;stroke:none"
           d="m 16281,12519.6 c 19,9.4 -224.1,-216.6 -283.9,-511.7 l -56,91.4 c 0,0 97.2,300.8 339.9,420.3" /></g><g
         transform="scale(1.04811)"
         id="g202"><path
           id="path204"
           style="fill:#c4c8ca;fill-opacity:1;fill-rule:nonzero;stroke:none"
           d="m 16300,12087.3 c 0,0 -129.9,-332.3 -378.1,-603.4 0,0 328.4,205.2 378.1,603.4" /></g><g
         transform="scale(1.03842)"
         id="g206"><path
           id="path208"
           style="fill:#c37140;fill-opacity:1;fill-rule:nonzero;stroke:none"
           d="m 16300,13255 h -444.1 c 0,0 -293,82.2 -534.6,0 -241.5,-82.3 -477.9,-646.3 -477.9,-646.3 0,0 -246.8,-165.8 -380.4,-520.4 -133.6,-354.7 -143.9,-637.3 -154.2,-771 -10.3,-133.6 128.5,-303.2 128.5,-303.2 0,0 102.8,-323.8 349.5,-508.8 246.7,-185.1 627,-493.4 627,-493.4 l 200.4,128.5 c 0,0 -157.7,354.6 -310,688.7 -152.5,334 -234.7,452.3 -234.7,452.3 l 438,691.8 c 0,0 366.4,153 562.9,540.7 196.7,387.7 229.6,741.1 229.6,741.1" /></g><g
         transform="scale(1.0098)"
         id="g210"><path
           id="path212"
           style="fill:#aa5632;fill-opacity:1;fill-rule:nonzero;stroke:none"
           d="m 16300,12771.9 c 0,0 -261.5,-174.5 -265.5,-190.3 -4.1,-15.9 -87.3,-268.9 -87.3,-268.9 l 136.1,74.8 22.5,154.8 194.2,229.6" /></g><path
         id="path214"
         style="fill:#aa5632;fill-opacity:1;fill-rule:nonzero;stroke:none"
         d="m 15963.4,12665.2 c 0,0 -84.1,-4.4 -240.2,-176.5 -156.1,-172.1 -292.2,-544.4 -292.2,-544.4 0,0 37.7,703.6 532.4,720.9" /><path
         id="path216"
         style="fill:#aa5632;fill-opacity:1;fill-rule:nonzero;stroke:none"
         d="m 15431,11808.2 c 0,0 146.8,-34.7 217.5,-93.4 l 48.7,76.9 c 0,0 -142.1,92.6 -266.2,16.5" /><g
         transform="scale(1.03109)"
         id="g218"><path
           id="path220"
           style="fill:#c37140;fill-opacity:1;fill-rule:nonzero;stroke:none"
           d="m 15523.5,10083.1 c 0,0 38.8,0 41.4,-144.92 2.7,-144.93 72.5,-181.17 176.1,-292.43 103.5,-111.34 119,-144.99 150,-240.71 31.1,-95.73 101,-90.59 101,-90.59 0,0 33.6,-120.07 64.7,-147.52 31,-27.44 44,-28.51 44,-28.51 0,0 31,-49.17 77.6,-41.41 46.6,7.76 49.2,64.79 49.2,64.79 0,0 31.1,-7.86 51.7,56.93 20.8,64.68 -23.2,496.87 -44,546.05 -20.6,49.17 -509.8,447.72 -509.8,447.72 l -126.8,13 -75.1,-142.4" /></g><g
         transform="scale(1.01478)"
         id="g222"><path
           id="path224"
           style="fill:#aa5632;fill-opacity:1;fill-rule:nonzero;stroke:none"
           d="m 16130.6,9890.13 c 0,0 63.2,-81.49 92,-205.07 29,-123.67 26.4,-220.93 26.4,-220.93 l 26.8,-79.72 c 0,0 24.2,110.46 0,252.86 -24.2,142.39 -145.2,252.86 -145.2,252.86" /></g><g
         transform="scale(1.02417)"
         id="g226"><path
           id="path228"
           style="fill:#aa5632;fill-opacity:1;fill-rule:nonzero;stroke:none"
           d="m 16164.8,9776.9 c 0,0 75.8,-415.19 44.6,-576.78 l 34,-32.52 c 0,0 56.6,320.95 -78.6,609.3" /></g><g
         transform="scale(1.02928)"
         id="g230"><path
           id="path232"
           style="fill:#aa5632;fill-opacity:1;fill-rule:nonzero;stroke:none"
           d="m 16206.6,9728.35 c -9.2,16.87 49.3,-319.75 49.3,-550.5 l 37.7,24.97 c 0,0 6.4,355.3 -87,525.53" /></g><path
         id="path234"
         style="fill:#b66238;fill-opacity:1;fill-rule:nonzero;stroke:none"
         d="m 15892.2,9413 c -130,297.4 -379.3,526.7 -379.3,526.7 l 22.1,74.2 c 292.1,-270.7 357.2,-600.9 357.2,-600.9" /><path
         id="path236"
         style="fill:#b66238;fill-opacity:1;fill-rule:nonzero;stroke:none"
         d="m 15742.8,7898.8 c 258.5,395.5 258.4,972.5 262.9,972.5 0.1,0 0.3,-0.4 0.4,-1.2 112.1,-683.1 -263.3,-971.3 -263.3,-971.3" /><path
         id="path238"
         style="fill:#ececec;fill-opacity:1;fill-rule:nonzero;stroke:none"
         d="m 10279.4,7773.4 v -146.8 l 304.2,-85.4 v 176.1 l -304.2,56.1" /><g
         transform="scale(1.19463)"
         id="g240"><path
           id="path242"
           style="fill:#252323;fill-opacity:1;fill-rule:nonzero;stroke:none"
           d="m 15129,6185.62 c 0,0 -106.6,-431.52 -41.4,-487.85 65,-56.42 254.8,-18.84 353.1,-69.56 98.3,-50.81 544,-117.7 701.6,36.24 157.7,153.94 -447.8,433.36 -484.9,475.8 -37.1,42.35 -75.5,125.73 -104.3,165.74 -28.7,40.1 -137.5,51.65 -137.5,51.65 0,0 -53.4,88.31 -109.6,41.43 -56,-46.96 -177,-213.45 -177,-213.45" /></g><g
         transform="scale(1.13944)"
         id="g244"><path
           id="path246"
           style="fill:#f5f6f5;fill-opacity:1;fill-rule:nonzero;stroke:none"
           d="m 16146.6,6667.12 c 0,0 -44,-6.05 -51.3,-34.22 -7.5,-28.18 -18.2,-84.34 -29.2,-112.69 -10.9,-28.35 -194.9,-22.12 -194.9,-22.12 l -6.8,324.99 435.6,-23 -18.4,-165.34 c 0,0 -31.3,17.81 -135,32.38" /></g><g
         transform="scale(1.009)"
         id="g248"><path
           id="path250"
           style="fill:#252323;fill-opacity:1;fill-rule:nonzero;stroke:none"
           d="m 15460.3,6862.73 -16.1,-108.91 c 0,0 -58.1,-527.66 -43.1,-588.61 15.1,-60.95 187.7,-275.62 356.6,-341.92 169,-66.3 502.3,11.5 522.3,109.21 20,97.63 -289.7,611.4 -322.5,709.13 -32.7,97.71 0.8,311.69 -40.7,346.28 -41.4,34.59 -97.6,20.02 -97.6,20.02 l -324.5,90.68 -34.4,-235.88" /></g><path
         id="path252"
         style="fill:#f5f6f5;fill-opacity:1;fill-rule:nonzero;stroke:none"
         d="m 15957.4,7066.5 c 0,0 -41.6,0.2 -58.5,-49.9 -16.8,-50.2 -23.6,-70.3 -43.7,-83.6 -20.1,-13.3 -255.8,-8.5 -255.8,-8.5 l -3.2,289.3 h 475.1 l -11.2,-163 -102.7,15.7" /><g
         transform="scale(1.04811)"
         id="g254"><path
           id="path256"
           style="fill:#aa5632;fill-opacity:1;fill-rule:nonzero;stroke:none"
           d="m 16216.5,11910.5 c 8,-12.9 17,-24.5 26.7,-34.7 26.6,63.1 47.1,133.5 56.8,211.5 0,0 -28.2,-72.2 -83.5,-176.8" /></g><g
         transform="scale(1.05179)"
         id="g258"><path
           id="path260"
           style="fill:#aa5632;fill-opacity:1;fill-rule:nonzero;stroke:none"
           d="m 16104.1,12357.9 c 52.9,-36.2 102.9,-72.1 123.6,-96 49.5,-57.1 72.3,-121.7 72.3,-121.7 v 171.2 c 0,0 -99.1,71.9 -181.3,131.5 -5.7,-27 -10.6,-55.5 -14.6,-85" /></g><g
         transform="scale(1.03006)"
         id="g262"><path
           id="path264"
           style="fill:#aa5632;fill-opacity:1;fill-rule:nonzero;stroke:none"
           d="m 16300,12849.2 c -51.1,71.4 -123.6,176.7 -123.6,176.7 0,0 60.3,-199.6 89.6,-266.3 12.1,29.9 23.4,59.9 34,89.6" /></g><g
         transform="scale(1.12197)"
         id="g266"><path
           id="path268"
           style="fill:#aa5632;fill-opacity:1;fill-rule:nonzero;stroke:none"
           d="m 16300,9530.71 c 0,0 -74.1,-311.94 -240.6,-369.02 -166.5,-57.08 -406.7,50.22 -406.7,50.22 l 28.1,150.68 619.2,168.12" /></g><g
         transform="scale(1.12065)"
         id="g270"><path
           id="path272"
           style="fill:#c37140;fill-opacity:1;fill-rule:nonzero;stroke:none"
           d="m 15571.4,9986.35 c 8.8,-25.58 16.7,-49.53 23.6,-70.39 46.4,-142.36 31.5,-303.69 31.5,-303.69 0,0 586.4,-86.18 645.9,147.8 16.9,66.14 24.8,145.89 27.6,226.28 h -728.6" /></g><g
         transform="scale(1.09884)"
         id="g274"><path
           id="path276"
           style="fill:#d68d60;fill-opacity:1;fill-rule:nonzero;stroke:none"
           d="m 16225.8,11600.2 13.8,20.1 60.4,-6.9 c -2.3,-2.6 -4.5,-5.1 -6.6,-7.6 -24.8,-1.5 -47.5,-3.5 -67.6,-5.6" /></g><g
         transform="scale(1.10196)"
         id="g278"><path
           id="path280"
           style="fill:#dfac8e;fill-opacity:1;fill-rule:nonzero;stroke:none"
           d="m 16247.3,11573 c 2.2,2.5 4.3,5 6.6,7.5 l 46.1,-5.3 c -18.4,-0.4 -36,-1.2 -52.7,-2.2" /></g><g
         transform="scale(1.07411)"
         id="g282"><path
           id="path284"
           style="fill:#bf815f;fill-opacity:1;fill-rule:nonzero;stroke:none"
           d="m 16300,10204.2 h -0.1 c -3.3,30 -8.4,61.7 -15.9,93.5 0,0 0,0 0,0 7.5,-31.7 12.6,-63.5 16,-93.5" /></g><g
         transform="scale(1.07482)"
         id="g286"><path
           id="path288"
           style="fill:#874a2f;fill-opacity:1;fill-rule:nonzero;stroke:none"
           d="m 16292.7,10022.1 c 0,0 7.3,78.4 -3.6,175.4 h 0.1 c 10.8,-97 3.5,-175.4 3.5,-175.4" /></g><g
         transform="scale(1.11877)"
         id="g290"><path
           id="path292"
           style="fill:#bf815f;fill-opacity:1;fill-rule:nonzero;stroke:none"
           d="m 16300,9777.48 c 0,0.01 0,0.05 0,0.07 0,-0.02 0,-0.05 0,-0.07" /></g><g
         transform="scale(1.11877)"
         id="g294"><path
           id="path296"
           style="fill:#b15c36;fill-opacity:1;fill-rule:nonzero;stroke:none"
           d="m 16300,9777.45 c 0,0.05 0,0.1 0,0.15 0,-0.02 0,-0.04 0,-0.05 0,-0.02 0,-0.06 0,-0.07 0,-0.01 0,-0.02 0,-0.03 m -12.2,225.65 h -121.6 c 3.9,85.9 -11.8,176.7 -66.8,258 -0.1,0.2 -0.2,0.3 -0.3,0.3 -3.4,0 13.6,-111.6 11.2,-258.3 h -422.4 c 5.7,16.1 9.3,30.3 9.6,41.1 1.5,58.2 -43.9,194.7 -50,217.2 -6.1,22.5 44.2,223.8 50,231.3 5.7,7.6 101.6,20.4 101.6,20.4 0,0 99.5,35.1 130.5,40.2 31,5 114.3,39.2 114.3,39.2 0,0 64.5,23.3 105.4,23.3 6.5,0 12.4,-0.6 17.4,-1.9 36.1,-10.1 67.2,-146.4 67.2,-146.4 l 54.7,-108.7 c 0,0 -20.1,-181.5 -32.8,-234.5 -5.5,-23.3 11.3,-72.9 32,-121.2" /></g><g
         transform="scale(1.10986)"
         id="g298"><path
           id="path300"
           style="fill:#b5623b;fill-opacity:1;fill-rule:nonzero;stroke:none"
           d="m 16296,10083.5 h -56.3 c 2.5,147.8 -14.8,260.3 -11.3,260.3 0.1,0 0.2,-0.1 0.3,-0.3 55.4,-81.9 71.3,-173.4 67.3,-260" /></g><g
         transform="scale(1.12036)"
         id="g302"><path
           id="path304"
           style="fill:#b15c36;fill-opacity:1;fill-rule:nonzero;stroke:none"
           d="m 15862.2,9599.29 c -31,0 -60.6,0.93 -87.8,2.34 -83.8,4.34 -143.8,13.17 -143.8,13.17 v 0 c 0,0 6.9,75.19 -3.4,168.22 v 0 c -3.2,28.75 -8.1,59.2 -15.4,89.65 19.4,37.5 41.6,81.37 53.9,116.31 h 421.9 55.8 121.3 c 11.7,-27.32 24.6,-54.21 35.3,-75.67 -4.4,-53.38 -11.7,-104.57 -23,-149.53 0,-0.04 0,-0.1 0,-0.14 -0.1,-0.33 -0.2,-0.66 -0.3,-1 v 0 c -34.3,-134.78 -243.3,-163.36 -414.5,-163.35" /></g><g
         transform="scale(1.15576)"
         id="g306"><path
           id="path308"
           style="fill:#58595b;fill-opacity:1;fill-rule:nonzero;stroke:none"
           d="m 15945.3,10621.6 231.7,25.1 c 40.2,2.4 87.3,-242.6 105.1,-547.2 17.9,-304.54 -0.2,-553.35 -40.2,-555.7 l -231.9,-25.12 -64.7,1102.92" /></g><g
         transform="scale(1.13933)"
         id="g310"><path
           id="path312"
           style="fill:#797a7b;fill-opacity:1;fill-rule:nonzero;stroke:none"
           d="m 16134.4,10211.1 c 18.1,-308.97 65.9,-557.5 106.5,-555.1 40.8,2.38 59.1,254.78 40.9,563.7 -18.1,309 -65.8,557.5 -106.5,555.1 -40.7,-2.4 -59,-254.8 -40.9,-563.7" /></g><g
         transform="scale(1.1331)"
         id="g314"><path
           id="path316"
           style="fill:#a8a8a6;fill-opacity:1;fill-rule:nonzero;stroke:none"
           d="m 16300,10194.9 -1034.9,-49.6 -6.8,142.1 1034.9,49.6 6.8,-142.1" /></g><g
         transform="scale(1.1226)"
         id="g318"><path
           id="path320"
           style="fill:#c37140;fill-opacity:1;fill-rule:nonzero;stroke:none"
           d="m 15729.4,10442.6 c 0,0 -83.5,4.8 -87.9,-21.4 -4.4,-26.3 -14.2,-206.8 0,-233 14.3,-26.1 78.5,-121.2 87.9,-156.9 9.6,-35.64 -4.7,-90.31 -11.8,-118.84 -7.1,-28.52 -107,-135.5 -121.2,-349.44 -14.3,-213.94 156.7,-270.99 330.3,-316.15 173.6,-45.17 373.3,185.41 363.8,339.93 -9.6,154.51 -152.2,318.53 -166.4,337.54 -14.3,19.02 -45.2,85.56 -45.2,85.56 0,0 94.8,111.7 99.7,126 4.9,14.3 26.4,142.4 26.4,142.4 l -49.8,-2.3 c 0,0 -13.3,207 -18.7,224.8 -5.3,17.8 -32,51.7 -62.3,55.3 -30.4,3.5 -55.3,-30.3 -55.3,-30.3 0,0 -32.1,0 -51.7,-7.2 -19.6,-7.1 -40.5,-30.3 -40.5,-30.3 0,0 -68.3,7.2 -96.8,-5.3 -28.5,-12.5 -42.8,-28.6 -42.8,-28.6 l -57.7,-11.8" /></g><g
         transform="scale(1.10848)"
         id="g322"><path
           id="path324"
           style="fill:#aa5632;fill-opacity:1;fill-rule:nonzero;stroke:none"
           d="m 16046.1,10089.3 c 0,0 145,-22.9 237.7,48.2 l 16.2,-51.7 c 0,0 -105.9,-65.1 -253.9,3.5" /></g><g
         transform="scale(1.06849)"
         id="g326"><path
           id="path328"
           style="fill:#58595b;fill-opacity:1;fill-rule:nonzero;stroke:none"
           d="m 15919.4,11429.8 250.9,26.3 c 43.3,2.3 93.3,-262.8 111.4,-592.3 18.3,-329.5 -2.2,-598.6 -45.6,-601 l -250.8,-26.3 -65.9,1193.3" /></g><g
         transform="scale(1.05204)"
         id="g330"><path
           id="path332"
           style="fill:#797a7b;fill-opacity:1;fill-rule:nonzero;stroke:none"
           d="m 16121.9,10998.1 c 18.4,-334.7 69.2,-604 113.3,-601.5 44.1,2.4 64.8,275.7 46.4,610.3 -18.5,334.7 -69.2,604 -113.3,601.6 -44.1,-2.5 -64.9,-275.7 -46.4,-610.4" /></g><g
         transform="scale(1.10702)"
         id="g334"><path
           id="path336"
           style="fill:#aa5632;fill-opacity:1;fill-rule:nonzero;stroke:none"
           d="m 16052.1,11560.3 c 1.6,-53.2 -11.8,-108.8 -0.5,-161.3 -34.1,71.3 -109.4,165.7 -111.7,190.8 -3.6,40.2 107.2,288.5 139.9,321.7 32.7,33.2 220.2,103 220.2,103 0,0 -98.2,-73.5 -138.3,-122.4 -40.1,-48.9 -112.4,-233.7 -109.6,-331.8" /></g><g
         transform="scale(1.09379)"
         id="g338"><path
           id="path340"
           style="fill:#aa5632;fill-opacity:1;fill-rule:nonzero;stroke:none"
           d="m 16208.5,11777.5 -354.9,-150 c 0,0 263.5,40.2 354.9,0 91.5,-40.3 0,150 0,150" /></g><g
         transform="scale(1.1796)"
         id="g342"><path
           id="path344"
           style="fill:#2f1d16;fill-opacity:1;fill-rule:nonzero;stroke:none"
           d="m 16263,11170.8 c 6,48.6 34.5,60.6 35.7,102 1.3,41.4 -17.9,68 -20.7,104 -2.9,35.9 -11.3,118.7 -15.5,150.9 -4,32.3 -35,69.6 -50.5,88.2 -15.5,18.7 -38.1,86.1 -45.5,115.1 -7.5,29 -53.1,56 -79.1,69.8 -26,13.8 -37.1,70 -65.5,102 -28.4,32 -80.2,41.3 -108.9,60.2 -28.6,18.8 -95,17.9 -123.3,19 -28.2,1.1 -33.9,16.3 -88.2,30.9 -54.3,14.6 -134,-29.9 -134,-29.9 h 0.1 c -26.2,-6.1 -54.5,-15 -84.9,-27.5 -262.3,-107.9 -416.2,-274.5 -501.6,-356.8 -28.3,-27.3 55.8,-176.7 124.7,-205.4 68.9,-28.7 242.9,-13 242.9,-13 0,0 84.7,-296.6 100.3,-297.7 15.7,-1.2 517.7,-59.9 517.7,-59.9 l 59.6,-20.9 c 5.2,0.9 10.9,0.6 17.1,-0.8 21.2,-5 39.9,-6.3 56.6,-4.9 0,0 78.1,-4.7 116.4,30.3 38.4,35 40.6,95.9 46.6,144.4" /></g><g
         transform="scale(1.16103)"
         id="g346"><path
           id="path348"
           style="fill:#c37140;fill-opacity:1;fill-rule:nonzero;stroke:none"
           d="m 16300,11176.9 c 0,0 -141.5,-124.2 -176.7,-146.7 -35.2,-22.5 -159.8,-43.3 -177.5,-52.3 -17.6,-9 -170.3,-184.6 -183.2,-186 -12.8,-1.5 -52.4,70.7 -60,71.1 -7.5,0.4 -81.2,-17.7 -87.5,-22.1 -6.3,-4.3 -21.9,-7.5 -21.9,-7.5 0,0 -27.7,-16.2 -44.6,-15.4 -17,0.9 -43.5,-6 -54.1,-7.5 -10.6,-1.4 -118.2,-40.7 -138.6,-32.9 -20.4,7.7 -112,226.4 -115.1,265.3 -3,39 113.3,311.5 145.3,343.3 32,31.7 147.5,74.5 147.5,74.5 0,0 -15.6,101.3 48.4,164.8 64,63.5 204,99.9 252,29.1 48.2,-70.8 -42.3,-143.4 -66.9,-162.3 -24.6,-18.8 -55.4,-45.7 -56.6,-50.6 -1.3,-4.9 97.2,-24.2 146.4,-25.1 49.1,-0.8 145.6,84.3 197.4,88.8 51.7,4.5 124.8,-39.9 145.4,-65.4 20.6,-25.5 100.3,-263.1 100.3,-263.1" /></g></g></g></svg>