<?xml version="1.0" encoding="UTF-8" standalone="no"?>
<svg
   xmlns:dc="http://purl.org/dc/elements/1.1/"
   xmlns:cc="http://creativecommons.org/ns#"
   xmlns:rdf="http://www.w3.org/1999/02/22-rdf-syntax-ns#"
   xmlns:svg="http://www.w3.org/2000/svg"
   xmlns="http://www.w3.org/2000/svg"
   viewBox="0 0 2666.6667 2666.6667"
   height="2666.6667"
   width="2666.6667"
   xml:space="preserve"
   id="svg2"
   version="1.1"><metadata
     id="metadata8"><rdf:RDF><cc:Work
         rdf:about=""><dc:format>image/svg+xml</dc:format><dc:type
           rdf:resource="http://purl.org/dc/dcmitype/StillImage" /></cc:Work></rdf:RDF></metadata><defs
     id="defs6" /><g
     transform="matrix(1.3333333,0,0,-1.3333333,0,2666.6667)"
     id="g10"><g
       transform="scale(0.1)"
       id="g12"><g
         transform="scale(1.22699)"
         id="g14"><path
           id="path16"
           style="fill:none;fill-opacity:1;fill-rule:nonzero;stroke:none"
           d="M 16300,0 H 0 V 16300 H 16300 V 0" /></g><g
         transform="scale(1.0292)"
         id="g18"><path
           id="path20"
           style="fill:#31808e;fill-opacity:1;fill-rule:nonzero;stroke:none"
           d="m 14422.5,15424.8 c 0,0 -34.7,202.2 0,240 34.8,37.8 236.2,-3.9 507.1,93.4 270.9,97.2 708.5,361.2 847.4,451.5 139,90.3 416.8,13.9 451.5,-145.9 34.7,-159.7 -652.9,-745.4 -861.3,-793 -208.4,-47.5 -288.5,-48.5 -508.9,-37.5 -220.5,10.9 -411.1,59.5 -451.3,94.2 -40.1,34.8 15.5,97.3 15.5,97.3" /></g><g
         transform="scale(1.04706)"
         id="g22"><path
           id="path24"
           style="fill:#3b96ac;fill-opacity:1;fill-rule:nonzero;stroke:none"
           d="m 14128.8,14745.2 c 0,0 109.2,-148.1 129.7,-200.4 20.4,-52.2 402.8,-303.5 457.4,-352 54.7,-48.4 143.4,-67.6 245.9,0 102.4,67.6 402.8,504.6 505.2,593.4 102.4,88.8 614.5,471.1 723.7,723.7 109.3,252.7 -20.4,361.9 -163.8,361.9 -143.4,0 -143.4,-136.5 -546.2,-259.4 -402.9,-122.9 -1092.5,-239 -1126.6,-273.2 -34.2,-34.1 79.6,-179.8 79.6,-179.8 0,0 -59.2,-109.1 -120.6,-149 -61.4,-39.9 -184.3,-265.2 -184.3,-265.2" /></g><path
         id="path26"
         style="fill:#e9ad84;fill-opacity:1;fill-rule:nonzero;stroke:none"
         d="m 11805.3,14974.4 c 0,0 501.4,-193.6 922.7,-75.3 421.4,118.3 -336.5,733.1 -536.6,697.3 -200.2,-35.7 -457.6,85.8 -457.6,-143 0,-228.7 71.5,-479 71.5,-479" /><path
         id="path28"
         style="fill:#e9ad84;fill-opacity:1;fill-rule:nonzero;stroke:none"
         d="m 10308.7,12441.3 c 0,0 66.1,1267.8 137.9,1939.8 71.8,672 436.5,1465.6 529.4,1579.9 92.9,114.4 357.5,57.2 357.5,57.2 0,0 78.6,-1022.3 28.6,-1444.1 -50.1,-421.8 -572,-2384.7 -657.8,-2366.4 -85.8,18.3 -395.6,233.6 -395.6,233.6" /><path
         id="path30"
         style="fill:#100f0d;fill-opacity:1;fill-rule:nonzero;stroke:none"
         d="m 10604.2,12729.6 -277.8,28.3 c -11.2,-191.9 -17.7,-316.6 -17.7,-316.6 0,0 309.8,-215.3 395.6,-233.6 24.4,-5.2 84.1,150 158.2,384.4 -141.9,64.1 -258.3,137.5 -258.3,137.5" /><path
         id="path32"
         style="fill:#fbc398;fill-opacity:1;fill-rule:nonzero;stroke:none"
         d="m 10547.1,12417.4 -100.1,277.9 c 0,0 -14.3,680.1 147.7,1709.6 162.1,1029.5 390.8,1444.1 643.4,1620.5 252.6,176.3 648.2,61.9 705.4,42.9 57.2,-19.1 505.2,-23.9 1468,-62 962.7,-38.1 1687.2,-114.4 1701.5,-133.4 14.3,-19.1 204.9,-166.8 204.9,-271.7 0,-104.9 -395.5,-290.7 -395.5,-290.7 0,0 -662.5,-66.8 -977.1,-157.3 -314.6,-90.6 -638.7,-266.9 -986.6,-271.7 -347.9,-4.7 -1000.9,195.4 -1000.9,195.4 0,0 -31,-631.5 76.3,-1289.2 107.2,-657.7 -4.8,-2004.2 -4.8,-2004.2 0,0 4.8,-397.9 -295.5,-333.6 -300.3,64.3 -793.5,82.4 -900.8,277.1 -107.2,194.8 -285.9,690.4 -285.9,690.4" /><path
         id="path34"
         style="fill:#e9ad84;fill-opacity:1;fill-rule:nonzero;stroke:none"
         d="m 5132.88,12085.4 c 0,0 281.05,-8 414.5,30.2 133.45,38.1 343.16,311.4 397.18,355.8 54.02,44.5 76.26,54.1 76.26,54.1 0,0 -120.74,-222.7 -228.77,-389.4 -108.04,-166.7 -651.08,-541.6 -659.17,-548 -8.09,-6.3 -645.74,-2 -678.02,0.6 -32.28,2.6 -91.03,281.8 -91.03,281.8 l 769.05,214.9" /><path
         id="path36"
         style="fill:#252323;fill-opacity:1;fill-rule:nonzero;stroke:none"
         d="m 9889.32,10959 c 28.6,-14.3 223.98,-200.2 223.98,-200.2 0,0 190.7,-266.9 781.7,-243.1 591,23.9 1039,357.5 1134.3,653 95.3,295.5 0,614.8 0,614.8 0,0 -224,-19 -443.2,147.8 -219.3,166.8 -824.6,655.7 -1139.1,764 0,0 -90.6,-220.7 -138.3,-254 -47.6,-33.4 -371.72,-85.8 -371.72,-85.8 0,0 -238.3,-295.5 -247.83,-514.8 -9.54,-219.2 28.59,-438.5 28.59,-438.5 l 171.58,-443.2" /><path
         id="path38"
         style="fill:#fbc398;fill-opacity:1;fill-rule:nonzero;stroke:none"
         d="m 7801.76,10758.8 c 0,0 324.1,104.9 829.3,162.1 505.21,57.2 729.22,66.7 962.76,0 233.54,-66.8 519.48,-162.1 519.48,-162.1 0,0 -81,533.8 -123.89,872.2 -42.89,338.4 -52.43,724.5 -52.43,724.5 0,0 -1005.65,57.2 -1229.66,114.4 -224,57.2 -347.92,171.5 -481.37,204.9 -133.45,33.4 -546.52,15.9 -546.52,15.9 l -301.86,-544.9 c 0,0 -19.06,-734 -23.82,-748.3 -4.77,-14.3 448.01,-638.7 448.01,-638.7" /><path
         id="path40"
         style="fill:#3b96ac;fill-opacity:1;fill-rule:nonzero;stroke:none"
         d="m 5820.64,12264.9 200.18,260.6 c 0,0 209.71,400.3 648.19,505.2 438.48,104.8 619.6,-69.9 673.61,-149.4 54.02,-79.4 98.5,-181.1 108.03,-181.1 9.54,0 228.78,-9.5 228.78,-9.5 0,0 -17.48,-421 0,-864.3 17.47,-443.2 122.33,-1067.6 122.33,-1067.6 0,0 -853.14,-76.2 -1139.1,-42.9 -285.97,33.4 -1372.65,552.9 -1386.95,595.8 -14.29,42.9 -162.04,328.9 -162.04,328.9 0,0 57.19,165.5 181.11,244.8 123.91,79.2 525.86,379.5 525.86,379.5" /><path
         id="path42"
         style="fill:#df9866;fill-opacity:1;fill-rule:nonzero;stroke:none"
         d="m 4504.43,11660.9 c 0,0 372.64,96.6 445.04,147.5 72.4,50.9 183.41,277 183.41,277 0,0 -85.37,27.6 -164.26,66.6 -78.9,39 -505.71,-235.9 -531.95,-273.6 -26.24,-37.7 67.76,-217.5 67.76,-217.5" /><path
         id="path44"
         style="fill:#523d38;fill-opacity:1;fill-rule:nonzero;stroke:none"
         d="m 3556.96,12434.6 c -6.94,18.7 -104.53,109.8 -104.53,109.8 0,0 -280.08,142.1 -397.91,-368.9 -117.84,-510.9 -16.37,-897.9 194.72,-1140 211.1,-242.1 917.14,-239.3 1144.49,-123.6 227.35,115.7 292.45,384.7 292.45,384.7 l -341.33,268.1 c 0,0 44.25,520.5 4.86,542.6 -39.38,22.2 -335.97,149.7 -382.52,160.7 -46.56,11 -410.23,166.6 -410.23,166.6" /><path
         id="path46"
         style="fill:#42322c;fill-opacity:1;fill-rule:nonzero;stroke:none"
         d="m 3732.97,10846.9 c -47.28,5.4 -93.89,12.8 -138.7,22.3 63.86,41 416.98,284.2 578.01,738.1 87.88,247.6 158.57,342.3 193.21,407.9 4.06,-141.3 -16.39,-398.8 -20.08,-443.7 l -137.31,-21.5 -475.13,-703.1" /><path
         id="path48"
         style="fill:#372a23;fill-opacity:1;fill-rule:nonzero;stroke:none"
         d="m 3465.15,12247.6 c 0,0 -90.69,-182.7 -89.91,-379.7 0,0 88.02,196.4 172.44,232 84.42,35.7 119.24,-97.9 119.24,-97.9 0,0 -93.35,-325.6 -65.45,-606.2 0,0 156.42,417.3 326.66,519.8 170.23,102.5 -149.94,287.8 -164.1,281.1 -14.15,-6.7 -298.88,50.9 -298.88,50.9" /><path
         id="path50"
         style="fill:#e9ad84;fill-opacity:1;fill-rule:nonzero;stroke:none"
         d="m 4159.15,11751.9 c 0,0 -225.05,-11.5 -181.34,-159.5 43.71,-147.9 427.47,-76 477.05,-3.7 49.57,72.2 49.57,72.2 49.57,72.2 0,0 341.5,178 434.92,269.4 93.42,91.4 161.76,503.2 145.37,558.7 -16.39,55.5 -494.58,107.1 -494.58,107.1 0,0 -62.58,163.5 -79.8,169.8 -17.22,6.3 -274.3,-136 -302.28,-146.4 -27.99,-10.4 -327.43,35.3 -422.25,27.7 -94.83,-7.7 -313.77,-87 -333.38,-102.8 -19.61,-15.8 -0.2,-250.6 12.72,-296.8 12.92,-46.2 59.58,-194.4 112.8,-240.5 53.22,-46 323.6,-70.7 439.24,-119 115.64,-48.3 144.22,-73.8 141.96,-136.2" /><path
         id="path52"
         style="fill:#372a23;fill-opacity:1;fill-rule:nonzero;stroke:none"
         d="m 3489.49,12171.8 c 0,0 181.05,-33.6 243.06,-214.7 62.01,-181.2 106.33,-21.7 106.33,-21.7 0,0 -56.45,144.3 -140.36,213.8 -83.93,69.5 -233.37,98.4 -233.37,98.4 l 24.34,-75.8" /><path
         id="path54"
         style="fill:#fbc398;fill-opacity:1;fill-rule:nonzero;stroke:none"
         d="m 5571.22,11845.5 c 18.75,5.9 490.9,128.8 924.63,-23.8 433.71,-152.6 505.2,-548.1 500.43,-772.1 -4.76,-224.1 -180.9,-383.9 -712.42,-342.1 0,0 -412.38,-77.4 -674.52,-72.6 -262.13,4.8 -462.02,78.4 -476.46,72.6 -14.45,-5.9 -524.42,-25.4 -881.88,-72.8 -357.46,-47.5 -629.13,47.9 -629.13,47.9 l 586.23,867.4 246.76,38.7 678.02,-0.6 c 0,0 209.56,185.9 438.34,257.4" /><path
         id="path56"
         style="fill:#fbc398;fill-opacity:1;fill-rule:nonzero;stroke:none"
         d="m 4208.1,11550 c 0,0 -386.05,28.6 -471.85,0 -85.79,-28.6 -264.48,-123.9 -361.01,-190.6 -96.53,-66.8 -101.3,-176.4 -91.76,-252.7 9.53,-76.2 152.51,-184.8 200.17,-271.1 47.66,-86.3 90.5,-139 138.22,-153 47.72,-14.1 586.23,247.8 586.23,247.8 0,0 81.03,191.4 81.03,329.2 0,137.9 -81.03,290.4 -81.03,290.4" /><path
         id="path58"
         style="fill:#ecab7b;fill-opacity:1;fill-rule:nonzero;stroke:none"
         d="m 6719.85,11335.5 c -298.45,177.5 -566.17,191.1 -641.47,191.1 -13.69,0 -21.02,-0.4 -21.02,-0.4 0,0 -227.41,113.7 -284.9,132.2 l 308.73,-73.6 c 1.13,0 2.23,0 3.35,0 384.15,0 635.31,-249.3 635.31,-249.3 m -947.39,322.9 -10.6,2.5 c 2.2,-0.1 5.81,-1 10.6,-2.5" /><path
         id="path60"
         style="fill:#f5f6f5;fill-opacity:1;fill-rule:nonzero;stroke:none"
         d="m 15113,15872.9 c -6.4,8.5 -156.3,28.6 -406.6,51.7 26.2,-146.5 64.8,-423.7 29.2,-635.2 111.6,13.5 186.8,21.1 186.8,21.1 0,0 395.5,185.8 395.5,290.7 0,104.9 -190.6,252.6 -204.9,271.7" /><path
         id="path62"
         style="fill:#31808e;fill-opacity:1;fill-rule:nonzero;stroke:none"
         d="m 7335.01,12482.7 c 0,0 -28.23,-263.8 -254.11,-427.6 0,0 327.53,-3.1 254.11,427.6" /><path
         id="path64"
         style="fill:#31808e;fill-opacity:1;fill-rule:nonzero;stroke:none"
         d="m 12791.9,7689.4 c 0,0 35.7,243.1 107.2,264.5 71.5,21.5 443.3,0 772.1,35.8 328.9,35.7 743.6,200.2 915.1,185.9 171.6,-14.3 207.4,-300.3 207.4,-300.3 0,0 -50.1,-378.9 -579.1,-486.1 -529.1,-107.3 -1101,-125.5 -1101,-125.5 0,0 -278.8,146.9 -350.3,197 -71.5,50 28.6,228.7 28.6,228.7" /><path
         id="path66"
         style="fill:#e9ad84;fill-opacity:1;fill-rule:nonzero;stroke:none"
         d="m 10311.1,7196.1 c 0,0 486.2,-142.9 850.8,-92.9 364.6,50 697.3,138 1101,92.9 403.6,-45.1 420.3,-55.3 474.7,-45.5 54.3,9.8 426.1,224.3 25.7,310.1 -400.4,85.7 -786.4,232.9 -1437,259.4 -650.6,26.5 -1072.4,40.8 -1072.4,40.8 0,0 -357.43,178.7 -271.64,-107.2 85.84,-286 328.84,-457.6 328.84,-457.6" /><path
         id="path68"
         style="fill:#e3e2e0;fill-opacity:1;fill-rule:nonzero;stroke:none"
         d="m 12763.3,7460.7 c -98.8,21.1 -173.6,166.6 -274.8,192.5 l -23.1,-480.5 c 209.3,-25 228.9,-29.9 272.1,-22.1 54.4,9.8 426.2,224.3 25.8,310.1" /><path
         id="path70"
         style="fill:#e9ad84;fill-opacity:1;fill-rule:nonzero;stroke:none"
         d="m 9110.06,8681.1 c 0,0 -314.56,-176.7 -371.75,-605.6 -57.2,-429 478.99,-1665.8 736.36,-2130.5 257.37,-464.7 627.83,-904.4 618.43,-888.6 -9.5,15.7 396.8,902.9 75,1560.7 -321.67,657.7 -450.36,1243.9 -500.4,1329.7 -50.04,85.8 -557.64,734.3 -557.64,734.3" /><path
         id="path72"
         style="fill:#372a23;fill-opacity:1;fill-rule:nonzero;stroke:none"
         d="m 5410.76,6949.1 -12.71,-378.1 82.61,-260.6 212.89,25 c 0,0 49.87,406 26.84,476.5 -23.02,70.5 -309.63,137.2 -309.63,137.2" /><path
         id="path74"
         style="fill:#3b96ac;fill-opacity:1;fill-rule:nonzero;stroke:none"
         d="m 12648.9,7239 35.8,-178.7 c 0,0 264.5,-257.4 371.7,-357.5 107.3,-100 185.9,-193 321.7,-157.2 135.9,35.7 371.8,457.5 707.8,514.7 336,57.2 907.9,586.2 929.4,729.2 21.4,143 -114.4,200.2 -228.8,200.2 -114.4,0 -257.3,-143 -593.4,-150.1 -336,-7.2 -1058,64.3 -1122.4,42.9 -64.3,-21.5 -14.3,-200.2 -14.3,-200.2 0,0 -250.2,-207.3 -293.1,-221.6 -42.9,-14.3 -114.4,-221.7 -114.4,-221.7" /><path
         id="path76"
         style="fill:#fbc398;fill-opacity:1;fill-rule:nonzero;stroke:none"
         d="m 10582.8,4500.9 -443.3,479 c 0,0 -843.56,1365.5 -1100.93,2216.2 -257.37,850.8 -228.78,1344.1 157.28,1537.1 386.06,193 986.55,-143 1294.05,-257.4 307.4,-114.3 893.6,-235.9 1444.1,-407.5 550.5,-171.5 1122.4,-386 1122.4,-386 0,0 200.2,-264.5 121.5,-328.9 -78.6,-64.3 -529,-114.4 -529,-114.4 0,0 -386,78.7 -915.1,50.1 -529,-28.6 -865,-135.9 -1358.3,100.1 0,0 714.9,-768.6 1000.9,-1145.7 285.9,-377.1 667.2,-1169.7 700.6,-1392.3 33.3,-222.6 -12.8,-586.7 -786.4,-614.8 -773.7,-28.2 -894.3,33.5 -894.3,33.5 l 186.5,231" /><path
         id="path78"
         style="fill:#e9ad84;fill-opacity:1;fill-rule:nonzero;stroke:none"
         d="m 6772.28,6571 c 0,0 -193.03,-235.1 114.39,-416.3 307.41,-181.1 -174.22,-442.9 -174.22,-442.9 l -690.84,375.3 c 0,0 -128.75,865.3 53.58,965.7 182.34,100.4 253.11,290.3 439.35,134.6 186.25,-155.7 257.74,-616.4 257.74,-616.4" /><path
         id="path80"
         style="fill:#252323;fill-opacity:1;fill-rule:nonzero;stroke:none"
         d="m 10010.9,3527.9 c 85.8,-27.9 514.7,-242.4 514.7,-242.4 0,0 1108.1,-92.9 1415.5,343.2 307.5,436.1 135.9,1222.5 135.9,1222.5 0,0 -357.5,-171.6 -922.3,-157.3 -564.8,14.3 -1015.2,286 -1015.2,286 l -192.98,-21.5 c 0,0 -307.42,-693.4 -307.42,-736.3 0,-42.9 -214.48,128.7 0,-135.9 214.48,-264.5 371.8,-558.3 371.8,-558.3" /><path
         id="path82"
         style="fill:#fbc398;fill-opacity:1;fill-rule:nonzero;stroke:none"
         d="m 7694.52,3850.3 285.97,-321.7 c 0,0 457.55,-100.1 1215.36,-164.4 757.82,-64.4 1329.75,-78.7 1329.75,-78.7 0,0 -135.8,357.5 -371.8,672.1 -235.88,314.5 -207.28,1000.8 -207.28,1000.8 l -1322.6,307.5 c 0,0 -336.01,35.7 -586.23,-135.9 -250.23,-171.6 -343.17,-536.2 -343.17,-536.2 v -743.5" /><path
         id="path84"
         style="fill:#3b96ac;fill-opacity:1;fill-rule:nonzero;stroke:none"
         d="m 6271.84,6154.7 c 71.48,-16.6 614.83,0 614.83,0 0,0 800.7,147.8 1179.61,62 378.9,-85.8 393.21,-500.4 364.61,-729.2 l 193.03,-221.6 c 0,0 -393.21,-543.4 -493.3,-908 -100.09,-364.6 -150.13,-850.7 -150.13,-829.3 0,21.4 -757.81,228.8 -1143.87,386.1 -386.06,157.2 -847.3,618.3 -847.3,618.3 0,0 218.17,1083.2 246.77,1133.2 28.6,50.1 35.75,488.5 35.75,488.5" /><path
         id="path86"
         style="fill:#df9866;fill-opacity:1;fill-rule:nonzero;stroke:none"
         d="m 6965.31,6731.4 c -138.14,75.7 -499.39,320.7 -526.09,321.4 -45.89,1.3 -144.67,-176 -144.67,-176 0,0 285.18,-258.5 367.46,-291.1 25.1,-10 65.82,-14 110.27,-14.7 l 193.03,160.4" /><path
         id="path88"
         style="fill:#523d38;fill-opacity:1;fill-rule:nonzero;stroke:none"
         d="m 6421.62,8093.5 c 11.8,16 34.43,147.6 34.43,147.6 0,0 -34.82,312.1 -526.68,130.3 -491.88,-181.8 -759.73,-478.9 -846.35,-788.2 -86.62,-309.4 303.11,-898.1 524.58,-1024.7 221.47,-126.6 482.06,-33.5 482.06,-33.5 l 36.93,432.5 c 0,0 459.39,248.5 456.31,293.6 -3.08,45.1 -59.18,363 -75.54,408 -16.35,44.9 -85.74,434.4 -85.74,434.4" /><path
         id="path90"
         style="fill:#42322c;fill-opacity:1;fill-rule:nonzero;stroke:none"
         d="m 5523.9,6620.8 c -40.16,35.8 -82.68,81.2 -124.94,133 1.2,24.1 2.53,48.3 3.86,71.1 v 0 l 7.94,124.2 v 0 0 c 0,0 48.34,-211 113.14,-328.3 m 818.43,458.6 c -5.24,29.4 -10.86,60.9 -16.77,94 89.41,10.6 146.5,9.9 188.98,14 -46.14,-32.2 -109.8,-71.3 -172.21,-108" /><path
         id="path92"
         style="fill:#372a23;fill-opacity:1;fill-rule:nonzero;stroke:none"
         d="m 6214.88,8067.6 c 0,0 -202.49,-24.4 -366.79,-133.1 0,0 212.49,34.1 288.6,-16.9 76.12,-51 -16.45,-153.4 -16.45,-153.4 0,0 -323.46,-100.6 -542.7,-277.8 0,0 434.7,98.1 613.78,12 179.07,-86.1 158.39,283.3 145,291.4 -13.39,8.2 -121.44,277.8 -121.44,277.8" /><path
         id="path94"
         style="fill:#e9ad84;fill-opacity:1;fill-rule:nonzero;stroke:none"
         d="m 6181.2,7215.4 c 0,0 -133.09,181.9 -232.82,64.2 -99.72,-117.7 170.99,-399.1 258.58,-400.9 87.59,-1.9 87.59,-1.9 87.59,-1.9 0,0 336.16,-187.8 463.8,-215.8 127.65,-28 509.52,140.9 546.91,185 37.4,44.1 -181.79,472.3 -181.79,472.3 0,0 102.3,141.9 98.15,159.8 -4.15,17.9 -264.19,154.7 -288.25,172.4 -24.05,17.7 -150.07,293.2 -208.5,368.2 -58.43,75.1 -244.87,214.6 -268.82,222.4 -23.96,7.7 -209.67,-137.4 -241.17,-173.5 -31.5,-36.1 -129.87,-156.5 -139.16,-226.2 -9.28,-69.8 118.39,-309.4 141.45,-432.6 23.06,-123.1 17.45,-161 -35.97,-193.4" /><path
         id="path96"
         style="fill:#372a23;fill-opacity:1;fill-rule:nonzero;stroke:none"
         d="m 6164.83,8005.7 c 0,0 71.31,-169.8 -46.14,-321 -117.45,-151.3 40.18,-100.8 40.18,-100.8 0,0 89.73,126.4 101.77,234.6 12.04,108.3 -45.76,249.1 -45.76,249.1 l -50.05,-61.9" /><path
         id="path98"
         style="fill:#fbc398;fill-opacity:1;fill-rule:nonzero;stroke:none"
         d="m 4984.98,6949.1 c 0,0 -171.58,-127.1 -181.11,-184.3 -9.53,-57.2 25.41,-98.5 57.19,-117.6 31.78,-19 50.84,-25.4 60.37,-50.8 9.54,-25.4 -19.06,-89 19.07,-146.2 38.13,-57.2 104.85,-54 120.74,-63.5 15.89,-9.5 41.31,-69.9 63.55,-89 22.24,-19 85.79,-19 108.03,-34.9 22.24,-15.9 117.57,-60.4 158.87,-38.2 41.31,22.3 66.73,66.8 88.97,85.8 22.24,19.1 38.13,85.8 28.59,120.8 -9.53,34.9 -98.49,120.7 -111.2,139.8 -12.71,19 12.71,378.1 12.71,378.1 0,0 60.37,-263.5 136.62,-365.3 0,0 -76.25,-308.3 -47.66,-575.2 28.6,-266.9 146.16,-517.9 146.16,-517.9 0,0 9.54,-308.2 114.39,-603.7 104.85,-295.6 422.6,-584.7 689.5,-613.3 266.9,-28.6 651.37,98.5 816.6,505.2 165.22,406.7 -3.18,838.9 -181.12,1035.9 -177.93,197 -556.04,327.2 -556.04,339.9 0,12.8 -130.28,638.7 -149.34,721.3 -19.07,82.6 -142.99,835.7 -212.89,1089.9 -69.91,254.2 -206.53,444.8 -266.9,492.5 -60.37,47.6 -200.18,130.2 -349.52,111.2 -149.34,-19.1 -320.92,-559.2 -327.28,-568.8 -6.34,-9.5 -88.96,-120.7 -111.21,-352.7 -22.24,-231.9 -47.66,-584.6 -57.19,-616.4 -9.53,-31.8 -69.9,-82.6 -69.9,-82.6" /><path
         id="path100"
         style="fill:#996a4e;fill-opacity:1;fill-rule:nonzero;stroke:none"
         d="m 5402.82,6824.9 v 0 c 4,68.6 7.94,124.2 7.94,124.2 v 0 l -7.94,-124.2" /><path
         id="path102"
         style="fill:#ecab7b;fill-opacity:1;fill-rule:nonzero;stroke:none"
         d="m 5402.82,6824.9 c -0.4,0.7 -163.57,302.6 -106.45,683.4 0,0 44.48,-374.9 114.39,-559.2 0,0 -3.94,-55.6 -7.94,-124.2" /><path
         id="path104"
         style="fill:#ecab7b;fill-opacity:1;fill-rule:nonzero;stroke:none"
         d="m 5915.77,6087.1 c -0.45,0 -1.71,3.6 -3.96,10.3 2.73,-4.6 4.15,-7.8 4.15,-9.4 0,-0.6 -0.06,-0.9 -0.19,-0.9" /><path
         id="path106"
         style="fill:#926749;fill-opacity:1;fill-rule:nonzero;stroke:none"
         d="m 5524.83,6472.5 c -0.01,0 -0.01,0 -0.01,0 l 0.02,0.1 c 0,0 -0.01,0 -0.01,-0.1" /><path
         id="path108"
         style="fill:#ecab7b;fill-opacity:1;fill-rule:nonzero;stroke:none"
         d="m 5911.81,6097.4 c -19.63,33.3 -106.71,140.1 -218.26,238 -126.53,111.2 -168.35,136.9 -168.72,137.1 0,0.1 0.01,0.1 0.01,0.1 l 22.54,111.2 c 0,0 165.23,-143.1 254.2,-267 69.25,-96.5 100,-189.1 110.23,-219.4" /><path
         id="path110"
         style="fill:#e3a273;fill-opacity:1;fill-rule:nonzero;stroke:none"
         d="m 6539.49,6147.7 c -6.47,3.3 -10.07,5.7 -10.27,6.9 l -0.01,0.1 v 0 l 14.01,-7 c -1.26,0 -2.48,0 -3.73,0" /><path
         id="path112"
         style="fill:#829c87;fill-opacity:1;fill-rule:nonzero;stroke:none"
         d="m 6588.05,6125.3 c -21.82,9.8 -38.6,17.3 -48.56,22.4 1.25,0 2.47,0 3.73,0 l 44.83,-22.4" /><path
         id="path114"
         style="fill:#ecab7b;fill-opacity:1;fill-rule:nonzero;stroke:none"
         d="m 7058.25,5377.9 c -138.22,209.7 -500.45,443.2 -500.45,443.2 l -28.58,333.5 c 0.2,-1.2 3.8,-3.6 10.27,-6.9 9.96,-5.1 26.74,-12.6 48.56,-22.4 h 0.09 l 41.15,-261.3 c 243.08,-147.7 428.96,-486.1 428.96,-486.1 m -529.04,776.8 v 0 0" /><path
         id="path116"
         style="fill:#100f0d;fill-opacity:1;fill-rule:nonzero;stroke:none"
         d="m 10775.8,3828.9 c 30.6,-19.9 -500.4,590.9 -500.4,1056.8 l -135.9,94.2 -123.9,-13.8 c 0,0 188.3,-765.5 760.2,-1137.2" /><path
         id="path118"
         style="fill:#e3a273;fill-opacity:1;fill-rule:nonzero;stroke:none"
         d="m 10956.2,7237.5 c -350.6,0 -580.7,151.7 -580.7,151.7 v 0 c 243.3,-116.4 448.4,-149.3 657.2,-149.3 0.2,0 0.3,0 0.4,0 -26.2,-1.7 -51.9,-2.4 -76.9,-2.4" /><path
         id="path120"
         style="fill:#ecab7b;fill-opacity:1;fill-rule:nonzero;stroke:none"
         d="m 11032.7,7239.9 c -208.8,0 -413.9,32.9 -657.2,149.3 v 0 0 c 0,0 -350.3,428.9 -359.9,450.4 0,0 352.7,-286 380.7,-301.1 28,-15.1 637.3,-298.6 637.3,-298.6 -0.2,0 -0.3,0 -0.5,0 -0.1,0 -0.2,0 -0.4,0" /><path
         id="path122"
         style="fill:#f5f6f5;fill-opacity:1;fill-rule:nonzero;stroke:none"
         d="m 13056.4,7682.3 c 0,0 -247,92.6 -572.7,204.8 7.2,-168.7 8.8,-392.7 -12.6,-621.2 112.9,-13.7 177.8,-26.9 177.8,-26.9 0,0 450.4,50.1 529,114.4 78.7,64.4 -121.5,328.9 -121.5,328.9" /><path
         id="path124"
         style="fill:#31808e;fill-opacity:1;fill-rule:nonzero;stroke:none"
         d="m 8226.94,5411.6 c 0,0 -199.43,-175 -476.55,-142.5 0,0 238.86,-224.1 476.55,142.5" /></g></g></svg>