<?xml version="1.0" encoding="UTF-8" standalone="no"?>
<svg
   xmlns:dc="http://purl.org/dc/elements/1.1/"
   xmlns:cc="http://creativecommons.org/ns#"
   xmlns:rdf="http://www.w3.org/1999/02/22-rdf-syntax-ns#"
   xmlns:svg="http://www.w3.org/2000/svg"
   xmlns="http://www.w3.org/2000/svg"
   viewBox="0 0 2666.6667 2666.6667"
   height="2666.6667"
   width="2666.6667"
   xml:space="preserve"
   id="svg2"
   version="1.1"><metadata
     id="metadata8"><rdf:RDF><cc:Work
         rdf:about=""><dc:format>image/svg+xml</dc:format><dc:type
           rdf:resource="http://purl.org/dc/dcmitype/StillImage" /></cc:Work></rdf:RDF></metadata><defs
     id="defs6" /><g
     transform="matrix(1.3333333,0,0,-1.3333333,0,2666.6667)"
     id="g10"><g
       transform="scale(0.1)"
       id="g12"><g
         transform="scale(1.22699)"
         id="g14"><path
           id="path16"
           style="fill:none;fill-opacity:1;fill-rule:nonzero;stroke:none"
           d="M 16300,0 H 0 V 16300 H 16300 V 0" /></g><path
         id="path18"
         style="fill:#abaaa9;fill-opacity:1;fill-rule:nonzero;stroke:none"
         d="m 2320.63,6184.7 h 406.88 c 135.13,72.6 227.02,215.3 227.02,379.4 0,237.7 -192.73,430.4 -430.45,430.4 -237.74,0 -430.46,-192.7 -430.46,-430.4 0,-164.1 91.89,-306.8 227.01,-379.4" /><path
         id="path20"
         style="fill:#ecb088;fill-opacity:1;fill-rule:nonzero;stroke:none"
         d="m 4017.83,7409.9 c 0,0 113.1,-188.5 134.64,-218.1 21.54,-29.6 142.72,-172.3 185.81,-360.8 43.08,-188.5 -94.25,-358.2 -134.64,-444.3 -40.4,-86.2 -296.22,-581.7 -417.39,-805.2 -121.18,-223.5 -212.74,-484.7 -210.04,-535.9 2.69,-51.1 250.56,-212.7 385.14,-263.9 134.57,-51.1 146.69,-94.2 172.95,-106.3 26.25,-12.1 80.78,-20.2 96.94,-40.4 16.15,-20.2 -16.16,-72.7 -109.06,-80.8 -92.91,-8.1 -16.16,-4.1 -127.24,0 -111.08,4 -169.65,18.2 -240.34,52.5 -70.68,34.3 -124.65,48.5 -178.45,48.5 -53.8,0 -162.86,-52.5 -304.24,-34.4 -141.37,18.2 -228.21,111.1 -163.58,246.4 64.62,135.3 117.13,343.4 149.45,507 32.31,163.5 22.22,613.9 103,791.6 80.78,177.8 222.16,303 311.02,379.7 88.86,76.8 117.14,117.2 117.14,117.2 0,0 -319.1,129.2 -420.08,262.5 -100.98,133.3 648.97,484.7 648.97,484.7" /><path
         id="path22"
         style="fill:#abaaa9;fill-opacity:1;fill-rule:nonzero;stroke:none"
         d="m 2710.46,7260.5 v -313.1 l -167.81,-32.6 c 0,0 -127.05,54.9 -120.99,155.8 6.05,101 42.41,151.5 107.04,189.9 64.62,38.4 181.76,0 181.76,0" /><path
         id="path24"
         style="fill:#fbc398;fill-opacity:1;fill-rule:nonzero;stroke:none"
         d="m 1797.5,6801.9 c 0,0 68.76,-135.2 125.31,-211.9 56.55,-76.8 64.63,-36.4 56.55,-76.8 -8.08,-40.4 -286.79,-149.4 -424.13,-347.4 -137.33,-197.9 -166.29,-529.1 -220.48,-852.2 -54.18,-323.2 -90.54,-500.9 -90.54,-500.9 l 278.71,-76.7 c 0,0 149.45,367.5 343.34,630.1 193.88,262.5 319.1,565.5 379.69,694.7 60.58,129.3 214.08,222.2 246.39,363.6 32.31,141.3 28.28,235.6 40.39,350 12.12,114.5 14.81,290.9 14.81,290.9 l -337.95,183.1 -412.09,-446.5" /><path
         id="path26"
         style="fill:#ecb088;fill-opacity:1;fill-rule:nonzero;stroke:none"
         d="m 3669.19,8300.6 c 0,0 4.13,-150.1 0,-206.7 -4.12,-56.5 -98.37,-175 -98.37,-183.1 0,-8.1 121.85,-296.2 145.75,-298.9 23.9,-2.7 212.39,-123.9 209.7,-107.7 -2.69,16.1 56.55,134.6 56.55,218.1 0,83.5 -56.55,387.8 -64.63,414.7 -8.07,26.9 -44.43,157.5 -44.43,157.5 l -204.57,6.1" /><path
         id="path28"
         style="fill:#ecb088;fill-opacity:1;fill-rule:nonzero;stroke:none"
         d="m 3312.31,10889.1 c 0,0 181.76,-146.8 246.39,-328.5 64.63,-181.8 0,-444.4 0,-444.4 0,0 68.67,-347.3 72.71,-573.5 l 36.35,-88.9 c 0,0 100.99,-88.9 121.18,-323.1 20.2,-234.3 84.82,-836.2 84.82,-836.2 l -177.72,-48.4 c 0,0 -153.5,319.1 -278.71,504.9 -125.22,185.8 -214.08,553.3 -214.08,553.3 0,0 -64.63,771.5 -56.55,795.8 8.08,24.2 165.61,789 165.61,789" /><path
         id="path30"
         style="fill:#252323;fill-opacity:1;fill-rule:nonzero;stroke:none"
         d="m 1831.25,8917.9 -188.5,-140 c 0,0 -161.57,-164.4 -236.97,-356.9 -75.39,-192.4 -86.17,-531.7 -53.85,-698.7 32.31,-166.9 113.09,-263.9 145.41,-317.7 32.31,-53.9 258.51,-630.2 258.51,-630.2 0,0 188.5,134.7 441.63,210.1 253.12,75.4 350.06,80.8 350.06,80.8 l -75.4,377 c 0,0 274.67,-290.9 473.94,-414.7 199.27,-123.9 484.71,-253.2 484.71,-253.2 0,0 301.6,414.7 587.04,635.5 0,0 -156.18,344.7 -414.7,522.4 -258.51,177.8 -608.57,328.6 -630.12,355.5 -21.54,26.9 -10.77,150.8 -10.77,150.8 l -1130.99,479.3" /><path
         id="path32"
         style="fill:#3a70c0;fill-opacity:1;fill-rule:nonzero;stroke:none"
         d="m 2496.38,11033.1 -109.06,54.6 c 0,0 -137.33,-135.3 -311.02,-321.1 -173.69,-185.8 -164.26,-1046.2 -153.49,-1121.6 10.77,-75.4 -21.55,-554.7 -26.93,-576.3 -5.39,-21.5 -59.24,-134.6 -64.63,-150.8 -5.39,-16.1 277.36,-371.6 556.07,-452.4 278.71,-80.8 574.92,-26.9 574.92,-26.9 0,0 64.63,150.8 75.4,242.4 10.77,91.5 21.54,172.3 48.47,236.9 26.93,64.6 123.87,228.9 177.73,403.9 53.86,175.1 80.78,320.5 80.78,320.5 0,0 110.41,83.5 158.88,193.9 48.47,110.4 -18.85,543.9 -40.39,614 -21.55,70 -75.4,166.9 -107.71,261.2 -32.32,94.2 -43.09,177.7 -43.09,177.7 l -199.27,145.4 -616.66,-1.4" /><path
         id="path34"
         style="fill:#fbc398;fill-opacity:1;fill-rule:nonzero;stroke:none"
         d="m 2666.03,11519.2 c 0,0 -22.22,-189.2 -90.88,-270 -68.67,-80.7 -187.83,-161.5 -187.83,-161.5 0,0 238.31,-175.7 428.16,-377.7 189.85,-202 286.79,-436.2 424.12,-379.7 137.34,56.6 0,590.2 0,590.2 l -52.51,62.2 0.4,90.8 c 0,0 -216.5,448.4 -254.87,480.7 -38.37,32.3 -187.83,115.1 -193.88,117.1 -6.06,2.1 -58.7,-26.5 -58.7,-26.5 l -14.01,-125.6" /><path
         id="path36"
         style="fill:#db986b;fill-opacity:1;fill-rule:nonzero;stroke:none"
         d="m 2727.76,11586.3 c 0,0 -24.7,-133.2 42.22,-256.7 66.92,-123.4 305.17,-264.4 417.51,-256.1 l 96.54,256.1 -556.27,256.7" /><path
         id="path38"
         style="fill:#252323;fill-opacity:1;fill-rule:nonzero;stroke:none"
         d="m 3468.77,12516.2 c -158.3,109.7 -335.98,107.7 -430.8,93.3 -94.81,-14.4 -250.2,-56.6 -250.21,-56.6 -40.34,-11.9 -81.56,-26.1 -107.59,-49.9 -41.64,-38.1 -51.97,-77.6 -51.97,-77.6 0,0 -135.25,-10.3 -164.81,-193 -29.57,-182.6 4.81,-334.2 36.43,-440.4 31.61,-106.3 166.21,-272.8 166.21,-272.8 l 121.3,266.2 c 117.86,-65.3 283.72,225.5 270.9,257.8 -8.14,20.5 375.52,73.1 375.52,73.1 l 91.5,36.5 c 0,0 51.42,113.2 10.95,244.8 -12.7,41.3 -38.29,82.1 -67.43,118.6" /><path
         id="path40"
         style="fill:#fbc398;fill-opacity:1;fill-rule:nonzero;stroke:none"
         d="m 3482.04,12223.2 c 0,0 35.52,-50.8 43.21,-70.4 7.67,-19.6 6.28,-194.3 7.15,-238.5 0.87,-44.3 -13.2,-103.5 -14.15,-124.9 -0.96,-21.3 -3.97,-152.4 -11.95,-203.4 -7.99,-51 -73.85,-247.7 -94.71,-299.6 -20.86,-51.8 -51.02,-120.3 -77.28,-133.4 -26.26,-13.1 -138.97,-13.8 -237.27,20.6 -98.3,34.3 -287.39,175.4 -336.93,247.5 -49.54,72.1 -35.93,217 -35.93,217 0,0 -41.79,-9.5 -82.58,35.1 -40.79,44.6 -104.97,140.2 -86.16,242 18.83,101.9 95.46,61.4 133.47,18.3 38,-43.1 36.63,-105.8 45.1,-107.6 8.48,-1.8 17.15,0.7 21.48,1.9 4.34,1.3 28.98,105.7 31.36,127 2.38,21.3 3.84,149.6 6.88,153.7 3.03,4.2 114.81,127.5 149.55,138.8 34.73,11.3 538.76,-24.1 538.76,-24.1" /><path
         id="path42"
         style="fill:#fbc398;fill-opacity:1;fill-rule:nonzero;stroke:none"
         d="m 1353.27,4942 -109.06,-129.3 c 0,0 -67.32,-106.4 -80.78,-160.2 -13.46,-53.9 21.54,-161.6 0,-196.6 -21.55,-35 -21.55,-150.8 10.77,-204.7 32.31,-53.8 78.09,-44.4 146.76,-117.1 68.66,-72.7 119.16,-80.8 159.55,-82.8 0,0 35.68,-51.8 74.72,-54.5 39.05,-2.7 63.29,0 63.29,0 0,0 12.11,-16.2 48.47,-18.9 36.35,-2.7 49.82,6.8 49.82,6.8 0,0 35,-26.6 75.4,-7.3 0,0 18.84,-14.3 57.89,-12.9 39.05,1.3 49.82,10.7 49.82,10.7 0,0 105.02,-10.7 113.1,37.7 8.07,48.5 -21.55,66 -32.32,80.8 -10.77,14.8 -154.84,192.5 -235.62,253.1 -80.78,60.6 -170.99,123.9 -199.27,184.5 -28.28,60.6 -20.19,226.2 -20.19,239.7 0,13.4 -172.35,171 -172.35,171" /><path
         id="path44"
         style="fill:#db986b;fill-opacity:1;fill-rule:nonzero;stroke:none"
         d="m 3409.25,9227.6 c 0,0 101.66,68.7 111.42,181.8 0,0 54.19,-173.7 -111.42,-181.8" /><path
         id="path46"
         style="fill:#fbc398;fill-opacity:1;fill-rule:nonzero;stroke:none"
         d="m 2223.93,10921.9 c 0,0 414.13,-86.7 519.67,-490.6 105.54,-403.9 -222.98,-705.5 -222.98,-705.5 0,0 19.9,-441.6 -26.41,-789 0,0 91.03,-137.4 107.19,-460.5 16.16,-323.1 74.89,-735.1 74.89,-735.1 l -224.34,-48.5 c 0,0 -246.39,452.4 -327.18,666.5 -80.79,214 -137.33,558.7 -137.33,558.7 0,0 -122.68,358.2 -156.26,564.2 -33.59,206 0,484.7 0,484.7 0,0 -37.63,292.2 64.7,542.6 102.33,250.4 328.05,412.5 328.05,412.5" /><path
         id="path48"
         style="fill:#db986b;fill-opacity:1;fill-rule:nonzero;stroke:none"
         d="m 2520.62,9725.8 44.43,269.3 129.25,173.7 -65.97,-192.6 4.91,-112.8 c 0,0 -61.46,-89.2 -112.62,-137.6" /><path
         id="path50"
         style="fill:#db986b;fill-opacity:1;fill-rule:nonzero;stroke:none"
         d="m 1919.93,9424.3 c 0,0 86.35,-40.5 137.52,-164.4 0,0 7.71,186.1 -137.52,164.4" /><path
         id="path52"
         style="fill:#fbd7c3;fill-opacity:1;fill-rule:nonzero;stroke:none"
         d="m 1884.15,9868.5 73.66,-86.2 c 0,0 -83.47,215.4 -72.7,452.4 10.71,235.6 107.81,447.5 108.93,450 -36.95,-51.7 -71.69,-110.5 -98.16,-175.3 -102.33,-250.4 -64.7,-542.6 -64.7,-542.6 0,0 -33.59,-278.7 0,-484.7 3.76,-23.1 8.7,-48.2 14.42,-74.5 7.04,244.4 38.55,460.9 38.55,460.9" /><path
         id="path54"
         style="fill:#fbc398;fill-opacity:1;fill-rule:nonzero;stroke:none"
         d="m 2451.95,7692.7 c 0,0 14.13,-62.6 0,-80.8 -14.14,-18.2 -30.29,-52.5 -30.29,-52.5 l 125.88,-474.6 c 0,0 239.67,129.2 253.8,230.2 14.14,101 -125.05,426.2 -125.05,426.2 0,0 -70.85,54.5 -95.08,46.4 -24.24,-8.1 -129.26,-94.9 -129.26,-94.9" /><path
         id="path56"
         style="fill:#abaaa9;fill-opacity:1;fill-rule:nonzero;stroke:none"
         d="m 12053.2,13367.4 c 0,-251.3 -203.7,-455 -455,-455 -251.3,0 -455,203.7 -455,455 0,251.3 203.7,455 455,455 251.3,0 455,-203.7 455,-455" /><path
         id="path58"
         style="fill:#efb38d;fill-opacity:1;fill-rule:nonzero;stroke:none"
         d="m 11625.1,13903.4 c -4,29.9 -2,122.8 32.4,161.2 34.3,38.4 100.9,82.8 133.2,84.8 32.4,2 88.9,0 88.9,0 0,0 43.1,29 53.9,30.3 10.7,1.4 57.2,0 57.2,0 0,0 12.8,14.8 37,16.2 24.3,1.3 44.4,0 44.4,0 0,0 62,-4.1 74.1,-60.6 12.1,-56.6 37.7,-154.9 -6.7,-153.5 -44.5,1.3 -203.3,-2.7 -285.5,-41.7 -82.1,-39.1 -68.6,-91.6 -142.7,-98.3 -74,-6.8 -86.5,1.3 -87.7,20.2 -1.2,18.8 1.5,41.4 1.5,41.4" /><path
         id="path60"
         style="fill:#abaaa9;fill-opacity:1;fill-rule:nonzero;stroke:none"
         d="m 12095.7,14086.8 c 0,0 -241.5,-18.8 -314.9,-40.4 -73.5,-21.5 -183.9,-243.7 -183.9,-243.7 l 183.9,-43.1 c 0,0 255.3,-1.2 286.1,11.5 30.8,12.8 82,104.3 84.7,124.5 2.7,20.2 13,63.4 13,97 -0.1,33.6 0,41.7 0,41.7 l -68.9,52.5" /><path
         id="path62"
         style="fill:#ecb088;fill-opacity:1;fill-rule:nonzero;stroke:none"
         d="m 13261,6674.8 c 12.1,-12.1 185.8,-153.5 185.8,-153.5 0,0 -173.7,-105 -258.5,-270.6 -84.8,-165.6 -206,-440.3 -323.1,-609.9 -117.2,-169.7 -313.7,-377.1 -311,-509 2.7,-131.9 96.9,-188.5 258.5,-199.3 161.5,-10.7 253.1,37.7 360.8,0 107.7,-37.7 121.2,-90.2 222.2,-84.8 101,5.4 113.1,24.2 193.9,12.1 80.7,-12.1 129.2,57.9 117.1,94.3 -12.1,36.3 -71.4,17.5 -117.1,36.3 -45.8,18.9 -443.7,238.3 -472,305 -28.2,66.6 640.3,646.9 831.5,781.6 191.1,134.6 401.2,285.4 438.9,465.8 37.7,180.5 -164.3,360.9 -274.7,503.6 -110.4,142.7 -193.9,242.4 -193.9,242.4 0,0 -541.2,-29.7 -589.7,-177.8 -48.5,-148.1 -68.7,-436.2 -68.7,-436.2" /><path
         id="path64"
         style="fill:#db986b;fill-opacity:1;fill-rule:nonzero;stroke:none"
         d="m 13967.9,6470.1 c 10.8,-0.6 -288.1,-26.9 -521.1,51.2 l -124.8,102.2 48.1,86.3 c 0,0 177.7,-212.7 597.8,-239.7" /><path
         id="path66"
         style="fill:#fbc398;fill-opacity:1;fill-rule:nonzero;stroke:none"
         d="m 11540.3,6533.4 153.5,-214.1 c 0,0 -173.7,-12.1 -274.7,-133.3 -100.9,-121.1 -210,-448.3 -335.2,-723 -125.2,-274.7 -234.3,-432.2 -234.3,-432.2 l 282.7,-117.1 c 0,0 448.4,496.8 670.6,719 222.1,222.1 290.8,306.9 387.7,383.7 97,76.7 169.7,206 173.7,294.9 4.1,88.8 44.5,391.8 44.5,391.8 0,0 -367.6,226.2 -420.1,201.9 -52.5,-24.2 -448.4,-371.6 -448.4,-371.6" /><path
         id="path68"
         style="fill:#fbc398;fill-opacity:1;fill-rule:nonzero;stroke:none"
         d="m 11003.1,5083.3 c -24.2,-8 -153.5,-52.5 -153.5,-52.5 0,0 -80.8,-70.7 -64.6,-129.2 16.1,-58.6 -10.4,-260.6 -2.2,-296.9 8.2,-36.4 119.3,-66.7 190,-139.4 70.7,-72.7 183.8,-74.7 183.8,-74.7 0,0 40.4,-34.3 76.7,-34.3 36.4,0 36.4,0 36.4,0 0,0 60.6,-12.1 84.8,0 0,0 60.6,-37.1 88.9,-5.4 0,0 50.5,-33 72.7,-12.8 0,0 103,-30.3 141.4,30.3 38.3,60.6 -60.6,139.3 -60.6,139.3 0,0 -278.7,212.1 -351.5,276.7 -72.7,64.7 -113.1,129.3 -113.1,129.3 l -129.2,169.6" /><path
         id="path70"
         style="fill:#ecb088;fill-opacity:1;fill-rule:nonzero;stroke:none"
         d="m 12982.3,10405 c 0,0 162.4,-42.4 269,-195.9 106.7,-153.5 151.1,-403.9 151.1,-403.9 0,0 92.9,-121.2 109.1,-286.8 16.1,-165.6 44.4,-297.4 44.4,-297.4 0,0 121.2,-155 141.4,-466 20.2,-311 44.4,-762.3 44.4,-762.3 0,0 8.1,-259.6 0,-336.4 -8.1,-76.7 -84.8,-230.2 -84.8,-230.2 0,0 -303.4,177.7 -293.1,197.9 10.3,20.2 123.4,214.1 131.5,294.9 8.1,80.8 -88.9,371.6 -202,601.8 -113.1,230.3 -117.1,496.9 -117.1,496.9 0,0 -113.1,214 -177.7,399.8 -64.7,185.9 -327.2,678.6 -327.2,690.8 0,12.1 311,296.8 311,296.8" /><path
         id="path72"
         style="fill:#252323;fill-opacity:1;fill-rule:nonzero;stroke:none"
         d="m 11556.5,8500.5 c 0,0 -129.3,-153.5 -153.5,-173.7 -24.3,-20.1 -149.5,-137.3 -218.1,-371.6 -68.7,-234.2 -149.5,-613.9 -105.1,-771.5 44.5,-157.5 282.8,-278.7 286.8,-302.9 4.1,-24.2 153.5,-428.2 153.5,-428.2 0,0 169.7,137.4 464.5,214.1 294.9,76.8 424.2,36.4 424.2,36.4 l -28.3,278.7 c 0,0 64.6,4 145.4,-52.5 80.8,-56.6 355.4,-234.3 533.2,-307 177.7,-72.7 242.3,-76.8 242.3,-76.8 0,0 117.2,250.5 298.9,452.4 181.8,202 319.1,290.9 319.1,290.9 0,0 -323.1,302.9 -561.4,420 -238.3,117.2 -573.6,117.2 -601.9,141.4 -28.2,24.3 -51.1,149.5 -51.1,149.5 l -825.4,472.6 -323.1,28.2" /><path
         id="path74"
         style="fill:#db986b;fill-opacity:1;fill-rule:nonzero;stroke:none"
         d="m 13483.2,9082.2 c 0,0 -16.2,-86.9 -121.2,-166.6 0,0 181.8,-43.5 121.2,166.6" /><path
         id="path76"
         style="fill:#db986b;fill-opacity:1;fill-rule:nonzero;stroke:none"
         d="m 13232.8,9841.6 -44.5,339.3 -56.5,-262.6 z" /><path
         id="path78"
         style="fill:#3a70c0;fill-opacity:1;fill-rule:nonzero;stroke:none"
         d="m 12843,10405 20.8,31.7 118.5,-31.7 c 0,0 49.4,-216.1 69.1,-248.4 19.8,-32.3 136.9,-222.1 181.4,-315 44.4,-92.9 0,-387.8 -37.7,-465.9 -37.7,-78.1 -91.6,-134.6 -91.6,-134.6 0,0 -64.6,-317.8 -169.7,-527.8 -105,-210.1 -110.4,-339.3 -126.5,-444.3 -16.2,-105.1 -80.8,-261.3 -102.3,-269.3 -21.6,-8.1 -371.7,-24.3 -640.9,56.5 -269.3,80.8 -533.2,339.3 -541.3,350.1 -8.1,10.8 -21.5,94.2 0,129.2 21.5,35 83.5,156.2 80.8,199.3 -2.7,43.1 -56.6,377 -132,600.5 -75.4,223.5 -105,789 -105,789 l 820.5,1022.3 520.6,-849.9 135.3,108.3" /><path
         id="path80"
         style="fill:#fbc398;fill-opacity:1;fill-rule:nonzero;stroke:none"
         d="m 12720.6,10715.3 c 0,0 3.2,-160.1 16.7,-187.1 13.4,-26.9 126.5,-91.5 126.5,-91.5 0,0 219.8,-652 -83.4,-651.7 -367.7,0.4 -417.4,608.6 -460.5,813.3 -43.1,204.6 -132.8,548.3 -132.8,548.3 0,0 -8.9,227.2 0,254.1 8.9,26.9 -12.6,188.5 154.3,80.8 167,-107.7 379.2,-766.2 379.2,-766.2" /><path
         id="path82"
         style="fill:#db986b;fill-opacity:1;fill-rule:nonzero;stroke:none"
         d="m 12247,11215.3 c 0,0 -21,-133.8 49.2,-255.4 70.3,-121.5 312.3,-256 424.4,-244.6 l 89.5,258.7 -563.1,241.3" /><path
         id="path84"
         style="fill:#252323;fill-opacity:1;fill-rule:nonzero;stroke:none"
         d="m 12962.2,12165.2 c -161.2,105.3 -338.8,98.5 -433.1,81.5 -94.4,-17 -248.6,-63.4 -248.6,-63.4 -40,-13.1 -80.8,-28.4 -106.2,-52.9 -40.6,-39.2 -49.8,-79 -49.8,-79 0,0 -134.9,-14 -159.5,-197.4 -24.5,-183.4 14,-334 48.5,-439.3 34.5,-105.3 173.6,-268.1 173.6,-268.1 l 114,269.4 c 119.6,-62.1 277.4,233.3 263.7,265.1 -8.7,20.3 373.4,83.3 373.4,83.3 l 90.5,39.1 c 0,0 48.3,114.6 4.2,245 -13.8,41 -40.5,81 -70.7,116.7" /><path
         id="path86"
         style="fill:#fbc398;fill-opacity:1;fill-rule:nonzero;stroke:none"
         d="m 12983.5,11872.7 c 0,0 36.9,-49.8 45.2,-69.2 8.2,-19.4 11.6,-194 13.6,-238.2 2.1,-44.2 -10.3,-103.9 -10.7,-125.2 -0.3,-21.4 0.2,-152.5 -6.4,-203.7 -6.5,-51.2 -67,-249.7 -86.4,-302.1 -19.4,-52.4 -47.7,-121.7 -73.6,-135.5 -25.9,-13.8 -138.5,-17.5 -237.8,14.1 -99.2,31.7 -292,167.5 -343.5,238.2 -51.5,70.8 -41.9,216 -41.9,216 0,0 -41.5,-10.7 -83.5,32.7 -42,43.5 -108.8,137.3 -92.8,239.6 16.1,102.4 93.8,64 132.9,22 39.2,-42 39.6,-104.8 48.1,-106.3 8.5,-1.6 17.1,1.1 21.4,2.5 4.3,1.3 26.1,106.4 27.9,127.7 1.8,21.4 -0.3,149.7 2.6,153.9 3,4.2 111.3,130.6 145.7,142.8 34.4,12.2 539.2,-9.3 539.2,-9.3" /><path
         id="path88"
         style="fill:#fbc398;fill-opacity:1;fill-rule:nonzero;stroke:none"
         d="m 11847.3,13569.8 h 307 c 0,0 20.2,-902.8 22.2,-1030 2,-127.2 -24.2,-242.4 -26.3,-248.4 0,0 48.5,-230.2 48.5,-405.6 0,-175.4 -17.1,-401.5 -15.5,-533.5 1.6,-132.1 3.9,-205.7 3.9,-205.7 0,0 62.8,-876.9 -206.5,-1216.2 -269.3,-339.3 -581.7,-32.3 -614,193.9 -32.3,226.2 150.8,614 161.6,770.2 10.8,156.2 5.4,183.1 5.4,183.1 0,0 -43.1,305.9 0,490.1 43.1,184.2 172.3,503.5 196.6,624.7 24.2,121.2 -16.2,298.9 20.2,614 36.3,315 96.9,763.4 96.9,763.4" /><path
         id="path90"
         style="fill:#db986b;fill-opacity:1;fill-rule:nonzero;stroke:none"
         d="m 11879.6,11045.3 c 4,-28.3 32.3,-759.4 32.3,-759.4 l 20.8,-408.6 86.5,109.1 -30.5,339.9 -109.1,719" /><path
         id="path92"
         style="fill:#db986b;fill-opacity:1;fill-rule:nonzero;stroke:none"
         d="m 11862.1,12222 c 0,0 110.4,-35 188.5,-37.7 0,0 -110.4,-75.4 -188.5,37.7" /><path
         id="path94"
         style="fill:#fbd7c3;fill-opacity:1;fill-rule:nonzero;stroke:none"
         d="m 12183.2,11352.3 c -1.6,132 15.5,358.1 15.5,533.5 0,175.4 -48.5,405.6 -48.5,405.6 2.1,6 28.3,121.2 26.3,248.4 -1.1,68.5 -7.5,361.9 -13.1,618.1 0,-0.1 -21.2,-607.3 -45.5,-752.8 -24.2,-145.4 -37.7,-183.1 -37.7,-183.1 l 41.6,34.6 c 0,0 33.8,-308 25.7,-555 -8,-247 35.7,-578.2 35.7,-578.2 0,0 1.9,-0.2 5.4,-0.6 -0.9,15.3 -1.5,23.8 -1.5,23.8 0,0 -2.3,73.6 -3.9,205.7" /><path
         id="path96"
         style="fill:#fbc398;fill-opacity:1;fill-rule:nonzero;stroke:none"
         d="m 11847.3,13569.8 c 0,0 14.8,98.3 0,125.2 -14.8,26.9 -66.5,64.6 -66.5,64.6 0,0 62.5,119.2 86.7,131.3 24.2,12.1 202,18.2 202,18.2 l 70,72.7 c 0,0 -41.8,90.9 -43.8,105 -2,14.1 -2,66.7 24.2,76.8 26.3,10.1 97,-113.1 121.2,-175.7 24.3,-62.7 -22.2,-200 -42.4,-246.4 -20.2,-46.5 -44.4,-171.7 -44.4,-171.7 0,0 -177.7,-58.6 -218.1,-64.6 -40.4,-6.1 -88.9,64.6 -88.9,64.6" /><path
         id="path98"
         style="fill:#db986b;fill-opacity:1;fill-rule:nonzero;stroke:none"
         d="m 12113.9,13741.5 c -12.1,10.1 -246.4,149.4 -246.4,149.4 l 92.9,12.5 153.5,-161.9" /><path
         id="path100"
         style="fill:#100f0d;fill-opacity:1;fill-rule:nonzero;stroke:none"
         d="m 12170.4,7405.9 c 0,0 280.4,161.6 291.7,173.7 11.3,12.1 -145.4,-177.7 -145.8,-266.6 -0.5,-88.9 209.6,-383.7 209.6,-383.7 l -145.4,52.5 -210.1,424.1" /><g
         transform="scale(1.03723)"
         id="g102"><path
           id="path104"
           style="fill:#efb38d;fill-opacity:1;fill-rule:nonzero;stroke:none"
           d="m 15761.4,15177.4 c -4,28.9 -2,118.5 31.1,155.5 33.1,37 97.4,79.8 128.5,81.7 31.2,2 85.6,0 85.6,0 0,0 41.6,28 52,29.3 10.4,1.2 55.1,0 55.1,0 0,0 12.4,14.2 35.8,15.5 23.3,1.3 42.8,0 42.8,0 0,0 59.7,-3.9 71.4,-58.4 11.7,-54.5 36.3,-149.3 -6.5,-148 -42.8,1.3 -196,-2.6 -275.2,-40.2 -79.2,-37.6 -66.2,-88.3 -137.6,-94.8 -71.4,-6.5 -83.3,1.3 -84.5,19.5 -1.1,18.2 1.5,39.9 1.5,39.9" /></g><g
         transform="scale(1.03606)"
         id="g106"><path
           id="path108"
           style="fill:#abaaa9;fill-opacity:1;fill-rule:nonzero;stroke:none"
           d="m 16233.5,15371.7 c 0,0 -233.1,-18.2 -304,-38.9 -71,-20.8 -177.5,-235.3 -177.5,-235.3 l 177.5,-41.6 c 0,0 246.4,-1.2 276.1,11.1 29.8,12.3 79.1,100.7 81.8,120.2 2.6,19.5 12.6,61.1 12.5,93.6 0,32.4 0,40.3 0,40.3 l -66.4,50.6" /></g><g
         transform="scale(1.02921)"
         id="g110"><path
           id="path112"
           style="fill:#abaaa9;fill-opacity:1;fill-rule:nonzero;stroke:none"
           d="m 16300,14774.9 c 0,-244.1 -197.9,-442 -442.1,-442 -244.1,0 -442,197.9 -442,442 0,244.2 197.9,442.1 442,442.1 244.2,0 442.1,-197.9 442.1,-442.1" /></g><g
         transform="scale(1.12095)"
         id="g114"><path
           id="path116"
           style="fill:#ecb088;fill-opacity:1;fill-rule:nonzero;stroke:none"
           d="m 15756.4,7099.95 -266.1,-105.62 c 0,0 242.1,-475.67 246.9,-591.02 4.8,-115.25 -136.3,-355.5 -113.9,-614.92 22.6,-259.51 128.3,-317.14 210,-619.83 81.7,-302.69 96,-403.59 96,-403.59 h 235.5 c 0,0 19.2,345.96 48,788 28.9,441.94 0,701.45 0,701.45 0,0 13.6,187.34 12.8,338.73 -0.8,151.3 -2.7,201.71 0.1,212.59 2.8,10.79 53.7,130.07 64,273.79 10.3,143.8 -533.3,20.42 -533.3,20.42" /></g><g
         transform="scale(1.05259)"
         id="g118"><path
           id="path120"
           style="fill:#fbc398;fill-opacity:1;fill-rule:nonzero;stroke:none"
           d="m 16300,7431.96 c 0,0 -26.8,-230.29 -92.1,-379.92 -65.2,-149.72 -122.8,-199.6 -122.8,-199.6 0,0 -61.4,-195.71 -126.6,-306.96 -65.2,-111.34 -168.9,-307.05 -188.1,-410.61 -19.1,-103.65 -76.7,-460.48 -168.8,-717.65 -92,-257.09 -111.2,-644.61 -111.2,-644.61 h -307.1 c 0,0 -7.7,590.93 -30.7,894.08 -23,303.16 49.9,602.52 157.4,748.35 107.4,145.74 218.8,329.95 226.4,483.48 7.7,153.52 -80.6,498.86 -84.4,548.74 -3.9,49.88 46,191.9 57.6,191.9 11.5,0 790.4,-207.2 790.4,-207.2" /></g><g
         transform="scale(1.15791)"
         id="g122"><path
           id="path124"
           style="fill:#ecb088;fill-opacity:1;fill-rule:nonzero;stroke:none"
           d="m 15466.3,4732.67 -45.4,-119.78 c 0,0 -37.2,-107 -69.8,-169.79 -32.5,-62.79 -44.1,-237.15 115.2,-246.48 159.3,-9.33 252.3,46.46 324.4,30.23 72.1,-16.32 125.6,-91.89 206.9,-94.23 81.5,-2.33 81.5,15.12 134.9,14 53.6,-1.21 167.5,-9.33 145.4,58.12 -22,67.45 -75.6,41.88 -166.3,87.22 -90.6,45.34 -295.3,176.79 -379,248.82 -83.8,72.11 -95.3,169.78 -95.3,169.78 l -171,22.11" /></g><g
         transform="scale(1.03269)"
         id="g126"><path
           id="path128"
           style="fill:#fbc398;fill-opacity:1;fill-rule:nonzero;stroke:none"
           d="m 15788.9,4864.59 c 0,0 11.7,-142.83 46.9,-205.39 35.2,-62.55 333.8,-281.01 374.1,-320.13 40.5,-39.02 90.1,-62.56 78.3,-118.63 -11.7,-56.06 -110.8,-39.12 -110.8,-39.12 0,0 -43,-18.2 -73,-20.82 -30,-2.61 -41.7,0 -41.7,0 0,0 -40.4,-8.8 -61.3,-1.16 -20.9,7.65 -20.9,7.65 -20.9,7.65 0,0 -33.8,-16.36 -56,-10.74 -22.2,5.51 -30,14.71 -30,14.71 0,0 -67.8,-11.81 -100.5,-3.97 -32.5,7.85 -11.7,22.18 -66.4,31.28 -54.8,9.2 -71.7,6.59 -117.4,43.09 -45.6,36.51 -10.4,37.77 -75.6,56.07 -65.2,18.2 -123.8,11.72 -148.6,125.11 -24.8,113.49 28.6,165.59 37.8,220.39 9.1,54.72 52.1,221.66 52.1,221.66 0,0 106.9,87.35 138.2,80.76 31.3,-6.49 174.8,-80.76 174.8,-80.76" /></g><g
         transform="scale(1.12148)"
         id="g130"><path
           id="path132"
           style="fill:#252323;fill-opacity:1;fill-rule:nonzero;stroke:none"
           d="m 14776.5,8967.14 c 0,0 -133.2,-234.11 -147.7,-288.15 -14.3,-54.04 -90,-551.06 -97.2,-630.33 -7.2,-79.18 -95.3,-697.47 -80.9,-1120.13 0,0 174.5,-18.01 477.1,-32.36 302.5,-14.45 392.6,28.79 403.4,21.57 10.8,-7.22 -3.6,335.01 -3.6,335.01 l 112,-333.67 c 0,0 298.6,-8.56 572.3,20.33 273.7,28.8 288.1,86.4 288.1,86.4 0,0 -14.4,547.5 -64.8,752.76 -50.4,205.26 -241.3,605.1 -255.7,648.34 -14.4,43.16 -68.5,396.18 -68.5,396.18 0,0 -450.2,129.64 -590.6,144.05 -140.5,14.4 -543.9,0 -543.9,0" /></g><g
         transform="scale(1.1445)"
         id="g134"><path
           id="path136"
           style="fill:#ecb088;fill-opacity:1;fill-rule:nonzero;stroke:none"
           d="m 16072.4,8511.38 c -2.2,-46.14 -41,-136.04 -70,-198.26 h 297.5 c 0.1,83.19 -16,274.01 -16,274.01 0,0 -42,392.68 -74,663.12 -32,270.44 -144.9,400.06 -144.9,400.06 0,0 -30.7,113.7 -52.5,257.45 -21.7,143.74 -108.4,245.14 -108.4,245.14 0,0 -50.3,216.5 -150.5,345.5 -100.1,129 -240.7,175.8 -240.7,175.8 0,0 -261.2,-280.1 -260.7,-290.7 0.6,-10.6 252.4,-428.41 317.4,-587.55 65,-159.13 173.6,-340.69 173.6,-340.69 0,0 15.8,-232.42 125.1,-428.09 109.4,-195.65 207.4,-444.93 204.1,-515.79" /></g><g
         transform="scale(1.12839)"
         id="g138"><path
           id="path140"
           style="fill:#db986b;fill-opacity:1;fill-rule:nonzero;stroke:none"
           d="m 16236.5,9661.83 c 0,0 -10.1,-77.6 -99.4,-153.13 0,0 162.9,-29.91 99.4,153.13" /></g><g
         transform="scale(1.1062)"
         id="g142"><path
           id="path144"
           style="fill:#db986b;fill-opacity:1;fill-rule:nonzero;stroke:none"
           d="m 16300,10529.2 -56.3,304.2 -38.5,-239.7 94.8,-64.5" /></g><g
         transform="scale(1.10896)"
         id="g146"><path
           id="path148"
           style="fill:#3a70c0;fill-opacity:1;fill-rule:nonzero;stroke:none"
           d="m 14508.9,10788 c 0,0 36.7,-298.6 85.2,-405.4 48.6,-106.9 87.4,-286.6 179.7,-427.41 92.2,-140.84 210.6,-514.8 197.6,-558.51 -13,-43.7 -40.6,-199.26 -37.4,-233.1 9.3,-95.18 9.3,-95.18 9.3,-95.18 0,0 343,-105.11 714.6,-116.12 371.5,-10.9 425.5,-40.48 432.8,-29.57 7.3,10.91 59.9,192.3 52.7,225.08 -7.3,32.78 -14.6,98.35 -21.9,149.34 -7.3,51 58.3,757.57 58.3,757.57 0,0 76.5,134.8 98.3,225.9 21.9,91 -62,415.2 -62,415.2 0,0 -175.2,251.3 -205.9,320.5 l -214.5,130.9 c 0,0 -475.8,755.4 -550.6,748.1 -74.6,-7.3 -157.6,27.8 -157.6,27.8 0,0 -129.6,-568 -205.2,-768.3 -75.7,-200.4 -373.4,-366.8 -373.4,-366.8" /></g><g
         transform="scale(1.09589)"
         id="g150"><path
           id="path152"
           style="fill:#fbc398;fill-opacity:1;fill-rule:nonzero;stroke:none"
           d="m 15968.8,11450.8 c 0,0 2.9,-146.1 15.2,-170.6 12.3,-24.6 115.5,-83.6 115.5,-83.6 0,0 200.5,-594.9 -76.2,-594.6 -335.5,0.3 -422.2,603.9 -461.5,790.7 -39.3,186.7 -158.2,572.9 -158.2,572.9 0,0 70.3,86.1 78.4,110.7 8.1,24.6 -11.6,172 140.8,73.7 152.3,-98.3 346,-699.2 346,-699.2" /></g><g
         transform="scale(1.07634)"
         id="g154"><path
           id="path156"
           style="fill:#db986b;fill-opacity:1;fill-rule:nonzero;stroke:none"
           d="m 15768.7,12107.6 c 0,0 -14.8,-125 54.8,-235.3 69.6,-110.4 334.7,-235.6 438.4,-221.1 l 38.1,252.5 -531.3,203.9" /></g><g
         transform="scale(1.09048)"
         id="g158"><path
           id="path160"
           style="fill:#252323;fill-opacity:1;fill-rule:nonzero;stroke:none"
           d="m 16186.2,12846.2 c -151.4,90.8 -313.9,78.3 -399.8,59.4 -85.9,-18.9 -225.5,-66.8 -225.5,-66.8 -36.2,-13.4 -73.1,-28.9 -95.5,-52.2 -35.8,-37.4 -42.9,-74.1 -42.9,-74.1 0,0 -123.1,-17.6 -139.1,-186.5 -16.1,-169 24.5,-305.6 59.8,-400.9 35.4,-95.3 168.5,-239.6 168.5,-239.6 l 95,250.9 c 111.8,-52.7 246.1,223.5 232.3,252.2 -8.6,18.3 339.3,89.5 339.3,89.5 l 81.5,39 c 0,0 40.2,106.7 -4.7,224.7 -14.2,37 -40,72.8 -68.9,104.4" /></g><g
         transform="scale(1.08942)"
         id="g162"><path
           id="path164"
           style="fill:#fbc398;fill-opacity:1;fill-rule:nonzero;stroke:none"
           d="m 16231.8,12591.1 c 0,0 35.6,-44.4 43.9,-61.8 8.1,-17.5 17.4,-177.6 20.9,-218.1 3.4,-40.4 -5.9,-95.6 -5.5,-115.2 0.5,-19.6 5.6,-139.9 1.4,-187 -4.3,-47.2 -52.7,-231.4 -68.7,-280.1 -16,-48.8 -39.5,-113.4 -62.8,-126.9 -23.2,-13.6 -126.5,-21 -218.5,4.5 -92.1,25.6 -273.8,143.4 -323.6,206.5 -49.7,63 -46,196.5 -46,196.5 0,0 -37.6,-11.2 -77.7,27.2 -40.1,38.4 -104.6,122.1 -93.5,216.5 11,94.4 83.7,61.9 121.1,24.8 37.4,-37.2 39.9,-94.7 47.8,-95.8 7.9,-1.2 15.7,1.6 19.6,3 3.9,1.4 20.2,98.5 21.1,118.2 0.8,19.6 -5.5,137.2 -3,141.2 2.5,4 97.4,123.7 128.6,136.1 31.2,12.5 494.9,10.4 494.9,10.4" /></g><g
         transform="scale(1.04128)"
         id="g166"><path
           id="path168"
           style="fill:#fbc398;fill-opacity:1;fill-rule:nonzero;stroke:none"
           d="m 15913.4,14798.1 h 294.8 c 0,0 19.4,-867 21.3,-989.2 2,-122.2 -23.2,-232.8 -25.2,-238.6 0,0 46.5,-221.1 46.5,-389.5 0,-168.4 -16.4,-385.6 -14.9,-512.4 1.6,-126.8 3.9,-197.5 3.9,-197.5 0,0 60.2,-842.1 -198.4,-1167.9 -258.6,-325.9 -558.6,-31.1 -589.6,186.2 -31.1,217.2 144.8,589.6 155.1,739.6 10.4,150 5.2,175.8 5.2,175.8 0,0 -41.4,293.8 0,470.7 41.4,176.9 165.6,483.6 188.8,600 23.2,116.3 -15.6,287 19.4,589.6 34.9,302.6 93.1,733.2 93.1,733.2" /></g><g
         transform="scale(1.02713)"
         id="g170"><path
           id="path172"
           style="fill:#db986b;fill-opacity:1;fill-rule:nonzero;stroke:none"
           d="m 16164.1,12544.1 c 4,-27.5 31.5,-739.3 31.5,-739.3 l 20.3,-397.8 84.1,106.2 -29.7,330.9 -106.2,700" /></g><g
         transform="scale(1.02906)"
         id="g174"><path
           id="path176"
           style="fill:#db986b;fill-opacity:1;fill-rule:nonzero;stroke:none"
           d="m 16116.8,13664.2 c 0,0 107.3,-34 183.2,-36.7 0,0 -107.3,-73.2 -183.2,36.7" /></g><g
         transform="scale(1.03814)"
         id="g178"><path
           id="path180"
           style="fill:#fbd7c3;fill-opacity:1;fill-rule:nonzero;stroke:none"
           d="m 16285.1,12706.8 c -1.6,127.1 14.9,344.9 14.9,513.9 0,168.9 -46.6,390.7 -46.6,390.7 1.9,5.8 27.2,116.7 25.2,239.3 -1,66 -7.1,348.6 -12.6,595.4 0,-0.1 -20.4,-585.1 -43.7,-725.1 -23.4,-140.1 -36.4,-176.4 -36.4,-176.4 l 40.1,33.2 c 0,0 32.6,-296.6 24.8,-534.6 -7.8,-237.9 34.3,-556.9 34.3,-556.9 0,0 1.8,-0.2 5.2,-0.6 -0.8,14.8 -1.4,22.9 -1.4,22.9 0,0 -2.3,71 -3.8,198.2" /></g><g
         transform="scale(1.04223)"
         id="g182"><path
           id="path184"
           style="fill:#fbc398;fill-opacity:1;fill-rule:nonzero;stroke:none"
           d="m 15898.8,14784.5 c 0,0 14.2,94.4 0,120.2 -14.2,25.8 -63.8,62 -63.8,62 0,0 60,114.3 83.2,126 23.3,11.6 193.8,17.4 193.8,17.4 l 67.2,69.8 c 0,0 -40,87.2 -41.9,100.7 -2,13.6 -2,64 23.2,73.7 25.1,9.6 93,-108.6 116.3,-168.6 23.2,-60.1 -21.4,-191.9 -40.8,-236.4 -19.3,-44.6 -42.6,-164.8 -42.6,-164.8 0,0 -170.5,-56.1 -209.3,-62 -38.7,-5.8 -85.3,62 -85.3,62" /></g><g
         transform="scale(1.03294)"
         id="g186"><path
           id="path188"
           style="fill:#db986b;fill-opacity:1;fill-rule:nonzero;stroke:none"
           d="m 16300,15083.8 c -11.7,9.8 -238.5,144.7 -238.5,144.7 l 89.9,12 148.6,-156.7" /></g><g
         transform="scale(1.07597)"
         id="g190"><path
           id="path192"
           style="fill:#100f0d;fill-opacity:1;fill-rule:nonzero;stroke:none"
           d="m 16024.9,8322.82 275.1,145.17 c 0,0 -90.2,-150.19 -175.2,-325.38 -85.1,-175.19 100.1,-932.09 100.1,-932.09 l -132.2,1.21 -116.8,347.78 49,763.31" /></g><g
         transform="scale(1.14724)"
         id="g194"><path
           id="path196"
           style="fill:#ecb088;fill-opacity:1;fill-rule:nonzero;stroke:none"
           d="m 16076.4,8353.19 -60.5,63.54 c 0,0 -60.6,-104.08 -81.9,-192.11 -21.3,-88.04 -17.8,-128.49 -75.8,-204.23 -58.2,-75.67 1.7,-95.02 45.7,-87.95 44,6.97 98.6,156.63 112.7,156.63 14.1,0 123.2,-332.71 151.3,-360.86 28.3,-28.16 49.4,17.6 49.4,17.6 0,0 26.4,10.55 35.2,42.28 8.8,31.64 8.5,43.93 8.5,43.93 0,0 17.9,29.99 28.5,66.94 10.5,36.96 -28.5,394.34 -28.5,394.34 l -63.1,112.62 -121.5,-52.73" /></g><g
         transform="scale(1.1431)"
         id="g198"><path
           id="path200"
           style="fill:#db986b;fill-opacity:1;fill-rule:nonzero;stroke:none"
           d="m 16191.2,8111.24 c 3.5,-6.99 84.7,-337.41 84.7,-337.41 l 24.1,19.6 -108.8,317.81" /></g><g
         transform="scale(1.14558)"
         id="g202"><path
           id="path204"
           style="fill:#db986b;fill-opacity:1;fill-rule:nonzero;stroke:none"
           d="m 16284.6,7843.34 -47.4,202.17 62.8,-171.09 -15.4,-31.08" /></g><path
         id="path206"
         style="fill:#ecb088;fill-opacity:1;fill-rule:nonzero;stroke:none"
         d="m 8012.22,7679.2 -298.23,-118.5 c 0,0 271.3,-533.1 276.69,-662.4 5.38,-129.3 -152.82,-398.5 -127.57,-689.4 25.24,-290.8 143.73,-355.4 235.28,-694.7 91.56,-339.3 107.71,-452.4 107.71,-452.4 H 8470 c 0,0 21.54,387.8 53.86,883.2 32.31,495.5 0,786.3 0,786.3 0,0 15.26,210.1 14.36,379.7 -0.9,169.7 -3.06,226.2 0.04,238.3 3.1,12.2 60.23,145.9 71.77,307 11.54,161.2 -597.81,22.9 -597.81,22.9" /><path
         id="path208"
         style="fill:#fbc398;fill-opacity:1;fill-rule:nonzero;stroke:none"
         d="m 7507.31,7543.2 c 0,0 -28.27,-242.3 -96.94,-399.9 -68.67,-157.5 -129.25,-210 -129.25,-210 0,0 -64.63,-206 -133.3,-323.1 C 7079.16,6493 6970.09,6287 6949.9,6178 6929.7,6068.9 6869.11,5693.3 6772.17,5422.6 6675.23,5152 6655.03,4744 6655.03,4744 h -323.14 c 0,0 -8.08,622.1 -32.31,941.2 -24.24,319.1 52.51,634.1 165.61,787.6 113.1,153.5 230.23,347.4 238.32,509 8.07,161.5 -84.83,525.1 -88.87,577.6 -4.04,52.5 48.47,202 60.59,202 12.12,0 832.08,-218.2 832.08,-218.2" /><path
         id="path210"
         style="fill:#ecb088;fill-opacity:1;fill-rule:nonzero;stroke:none"
         d="m 8258.61,5200.5 -52.51,-138.7 c 0,0 -43.08,-123.9 -80.78,-196.6 -37.7,-72.7 -51.16,-274.7 133.29,-285.4 184.46,-10.8 292.18,53.8 375.65,35 83.48,-18.9 145.42,-106.4 239.67,-109.1 94.24,-2.7 94.24,17.5 156.18,16.2 61.94,-1.4 193.88,-10.8 168.3,67.3 -25.58,78.1 -87.52,48.5 -192.54,101 -105.02,52.5 -341.98,204.6 -438.93,288.1 -96.94,83.5 -110.4,196.6 -110.4,196.6 l -197.93,25.6" /><path
         id="path212"
         style="fill:#fbc398;fill-opacity:1;fill-rule:nonzero;stroke:none"
         d="m 6655.03,4744 c 0,0 12.12,-147.4 48.48,-212 36.35,-64.7 344.68,-290.2 386.42,-330.6 41.74,-40.4 92.9,-64.6 80.78,-122.5 -12.12,-57.9 -114.45,-40.4 -114.45,-40.4 0,0 -44.43,-18.8 -75.4,-21.5 -30.96,-2.7 -43.08,0 -43.08,0 0,0 -41.74,-9.2 -63.28,-1.2 -21.55,7.9 -21.55,7.9 -21.55,7.9 0,0 -35,-16.9 -57.89,-11.2 -22.89,5.8 -30.97,15.2 -30.97,15.2 0,0 -70.01,-12.1 -103.67,-4 -33.66,8.1 -12.12,22.9 -68.67,32.3 -56.55,9.4 -74.05,6.7 -121.17,44.4 -47.13,37.7 -10.78,39.1 -78.1,57.9 -67.32,18.9 -127.91,12.2 -153.49,129.3 -25.58,117.1 29.62,171 39.05,227.5 9.42,56.6 53.85,228.9 53.85,228.9 0,0 110.41,90.2 142.72,83.5 32.32,-6.7 180.42,-83.5 180.42,-83.5" /><path
         id="path214"
         style="fill:#ecb088;fill-opacity:1;fill-rule:nonzero;stroke:none"
         d="m 8066,11942 99.71,-35 c 0,0 158.88,-56.6 266.59,-199.3 107.71,-142.7 102.33,-557.4 102.33,-557.4 0,0 64.63,-148.1 80.79,-325.9 16.15,-177.7 48.47,-417.3 48.47,-417.3 0,0 72.7,-129.3 75.4,-382.4 2.69,-253.1 21.54,-883.3 21.54,-883.3 H 8545.4 c 0,0 -115.79,342 -188.5,509 -72.71,166.9 -188.5,754 -188.5,754 0,0 -43.08,846.9 -43.08,887.3 0,40.4 -59.32,650.3 -59.32,650.3" /><path
         id="path216"
         style="fill:#ecb088;fill-opacity:1;fill-rule:nonzero;stroke:none"
         d="m 8545.4,9141.4 c 0,0 -18.85,-115.8 -63.28,-175 -44.43,-59.3 -98.29,-184.5 -99.63,-180.4 -1.35,4 92.23,-418.8 92.23,-418.8 l 126.44,-240.5 c 0,0 101.77,171.9 142.17,325.4 40.39,153.5 17.5,689.3 17.5,689.3 0,0 -160.9,55.2 -215.43,0" /><path
         id="path218"
         style="fill:#252323;fill-opacity:1;fill-rule:nonzero;stroke:none"
         d="m 6921.63,9776.9 c 0,0 -149.46,-262.5 -165.61,-323.1 -16.16,-60.6 -100.99,-618 -109.07,-706.9 -8.07,-88.8 -106.83,-782.2 -90.67,-1256.2 0,0 195.7,-20.2 534.99,-36.3 339.3,-16.2 440.28,32.3 452.4,24.2 12.12,-8.1 -4.04,375.7 -4.04,375.7 l 125.67,-374.2 c 0,0 334.8,-9.6 641.78,22.7 306.99,32.4 323.14,97 323.14,97 0,0 -16.15,613.9 -72.7,844.2 -56.55,230.2 -270.63,678.6 -286.79,727.1 -16.15,48.4 -76.75,444.3 -76.75,444.3 0,0 -504.9,145.4 -662.43,161.5 -157.53,16.2 -609.92,0 -609.92,0" /><path
         id="path220"
         style="fill:#3a70c0;fill-opacity:1;fill-rule:nonzero;stroke:none"
         d="m 7891.04,11857.2 72.71,106.3 102.25,-21.5 c 0,0 99.71,-153.5 123.95,-185.8 24.23,-32.3 149.45,-173.7 169.64,-250.5 20.2,-76.7 68.67,-323.1 28.28,-432.2 -40.39,-109 -96.94,-193.8 -96.94,-193.8 0,0 4.04,-359.5 -32.32,-517.1 -36.35,-157.5 -32.31,-581.6 -40.39,-678.6 -8.08,-96.9 -4.04,-141.3 -32.31,-149.4 -28.28,-8.1 -339.3,-12.1 -650.32,36.3 -311.02,48.5 -609.93,189.9 -613.96,206 -4.05,16.2 32.31,363.6 -24.24,500.9 -56.55,137.3 -169.65,452.4 -222.16,614 -52.51,161.5 -121.18,420.1 -125.22,448.3 -4.04,28.3 391.81,589.8 391.81,589.8 l 327.18,331.2 622.04,-403.9" /><path
         id="path222"
         style="fill:#fbc398;fill-opacity:1;fill-rule:nonzero;stroke:none"
         d="m 7827.76,12279.4 c 0,0 31.81,-218.3 45.27,-245.3 13.47,-26.9 90.72,-70.6 90.72,-70.6 0,0 180.42,-368.9 61.93,-535.9 -118.48,-166.9 -463.16,80.8 -543.95,237 -80.78,156.2 -255.82,613.6 -255.82,613.6 l 13.77,421.5 c 0,0 -59.63,443.1 -4.38,414.9 55.24,-28.2 205.06,61.2 396.74,-204.3 191.68,-265.5 195.72,-630.9 195.72,-630.9" /><path
         id="path224"
         style="fill:#db986b;fill-opacity:1;fill-rule:nonzero;stroke:none"
         d="m 7296.88,12770.7 c 0,0 -15.9,-134.5 58.98,-253.3 74.89,-118.8 360.35,-253.6 471.9,-238 l 41.05,271.7 -571.93,219.6" /><path
         id="path226"
         style="fill:#252323;fill-opacity:1;fill-rule:nonzero;stroke:none"
         d="m 7975.2,13747.3 c -165.17,99.1 -342.33,85.4 -436,64.8 -93.66,-20.6 -245.94,-72.9 -245.95,-72.9 -39.48,-14.6 -79.67,-31.5 -104.08,-56.9 -39.05,-40.8 -46.76,-80.8 -46.76,-80.8 0,0 -134.28,-19.2 -151.78,-203.4 -17.5,-184.3 26.76,-333.2 65.28,-437.1 38.53,-104 183.77,-261.3 183.77,-261.3 l 103.56,273.6 c 121.89,-57.5 268.29,243.7 253.38,275 -9.46,19.9 369.91,97.6 369.91,97.6 l 88.89,42.5 c 0,0 43.88,116.3 -5.15,245 -15.39,40.4 -43.6,79.4 -75.07,113.9" /><path
         id="path228"
         style="fill:#fbc398;fill-opacity:1;fill-rule:nonzero;stroke:none"
         d="m 8007.69,13455.8 c 0,0 38.78,-48.4 47.73,-67.4 8.95,-19.1 19.03,-193.5 22.81,-237.6 3.78,-44.1 -6.36,-104.1 -5.91,-125.5 0.44,-21.4 6.05,-152.4 1.43,-203.8 -4.62,-51.4 -57.41,-252 -74.82,-305.1 -17.41,-53.1 -43.01,-123.5 -68.35,-138.2 -25.35,-14.8 -137.77,-22.9 -238.11,4.9 -100.35,27.8 -298.29,156.2 -352.47,224.9 -54.17,68.7 -50.1,214.2 -50.1,214.2 0,0 -41.07,-12.3 -84.71,29.5 -43.63,41.9 -113.95,133 -101.86,235.9 12.09,102.9 91.22,67.5 131.97,27 40.75,-40.5 43.49,-103.1 52.07,-104.4 8.58,-1.2 17.07,1.8 21.31,3.3 4.24,1.6 21.97,107.4 22.95,128.8 0.97,21.4 -6,149.5 -3.23,153.8 2.75,4.4 106.18,134.8 140.11,148.3 33.92,13.6 539.18,11.4 539.18,11.4" /><path
         id="path230"
         style="fill:#100f0d;fill-opacity:1;fill-rule:nonzero;stroke:none"
         d="m 7592.36,8675.6 295.99,156.2 c 0,0 -96.94,-161.6 -188.5,-350.1 -91.55,-188.5 107.75,-1002.9 107.75,-1002.9 l -142.3,1.3 -125.67,374.2 52.73,821.3" /><path
         id="path232"
         style="fill:#db986b;fill-opacity:1;fill-rule:nonzero;stroke:none"
         d="m 8529.24,10431.3 c 0,0 -41.5,-113.1 -125.77,-161.6 0,0 186.36,-24.2 125.77,161.6" /><path
         id="path234"
         style="fill:#fbc398;fill-opacity:1;fill-rule:nonzero;stroke:none"
         d="m 7406.33,12261.1 c 0,0 -10.09,94.9 -30.29,143.4 -20.2,48.4 -80.58,62.6 -80.58,62.6 0,0 -60.8,123.2 -119.37,117.1 -58.56,-6 -151.47,-26.2 -163.59,-80.8 -12.11,-54.5 -56.54,-278.7 -54.52,-298.9 2.02,-20.2 208.45,-31.4 208.45,-31.4 l 45.41,30.1 194.49,57.9" /><path
         id="path236"
         style="fill:#fbc398;fill-opacity:1;fill-rule:nonzero;stroke:none"
         d="m 7172.06,12200.5 234.27,60.6 c 0,0 101.17,-222.2 175.81,-416.1 74.63,-193.8 125.79,-471.2 109.63,-595.1 -16.15,-123.9 -16.15,-196.6 -16.15,-196.6 0,0 -35.01,-212.7 -148.11,-269.2 -113.1,-56.6 -302.83,40.3 -315.67,43 -12.86,2.7 -236.36,110.5 -236.36,110.5 0,0 -134.64,53.8 -220.81,145.4 -86.17,91.5 -107.72,137.3 -107.72,137.3 l -68.88,6.2 c 0,0 -54.98,50.4 -100.77,182.3 -45.77,131.9 -43.08,323.1 -43.08,323.1 l 355.45,161.6 382.39,307" /><path
         id="path238"
         style="fill:#db986b;fill-opacity:1;fill-rule:nonzero;stroke:none"
         d="m 7142.44,11602.7 c 0,0 5.38,-150.8 -26.93,-266.6 -32.32,-115.8 -29.62,-296.2 -29.62,-296.2 0,0 -29.36,156.2 -21.41,298.9 7.94,142.7 0,219.6 0,219.6 l 77.96,44.3" /><path
         id="path240"
         style="fill:#db986b;fill-opacity:1;fill-rule:nonzero;stroke:none"
         d="m 6646.95,11220.3 -20.19,101 -159.41,119.9 c 0,0 31.74,-130.4 110.72,-214.7 l 68.88,-6.2" /><path
         id="path242"
         style="fill:#db986b;fill-opacity:1;fill-rule:nonzero;stroke:none"
         d="m 7190.91,12157.4 20.93,162.2 c 0,0 -39.78,-52.5 -69.07,-58.5 -29.28,-6.1 -113.43,0 -113.43,0 l 161.57,-103.7" /><path
         id="path244"
         style="fill:#fbd7c3;fill-opacity:1;fill-rule:nonzero;stroke:none"
         d="m 7351.13,12393.7 c 16.83,-34.3 26.93,-139.7 26.93,-139.7 0,0 329.86,-807.5 313.72,-1004.1 16.14,123.9 -35.02,401.3 -109.64,595.1 -74.64,193.9 -175.81,416.1 -175.81,416.1 0,0 -10.09,94.9 -30.29,143.4 -20.2,48.4 -80.56,62.6 -80.58,62.6 0.01,0 38.84,-39.1 55.67,-73.4" /><path
         id="path246"
         style="fill:#fbc398;fill-opacity:1;fill-rule:nonzero;stroke:none"
         d="m 6891.33,12390.3 v 189.9 c 0,0 84.82,107 125.22,131.2 40.39,24.3 76.74,12.2 76.74,12.2 0,0 50.49,30.1 86.85,16.1 36.35,-13.9 111.75,-43.5 124.54,-91.8 12.79,-48.4 0,-100 0,-100 0,0 -170.94,10.1 -184.09,-2.1 -13.16,-12.1 -229.26,-155.5 -229.26,-155.5" /><path
         id="path248"
         style="fill:#abaaa9;fill-opacity:1;fill-rule:nonzero;stroke:none"
         d="m 6821.99,12292 c 0,0 -290.83,8.1 -425.47,-228.8 -134.64,-237 43.55,-460.5 43.55,-460.5 0,0 346.91,-188.5 354.99,-191.2 8.08,-2.7 347.38,191.2 347.38,191.2 l 48.47,554.7 -161.57,103.7 c 0,0 70.01,216.8 126.56,246.4 56.55,29.6 139.56,-40.4 139.56,-40.4 0,0 10.31,86.2 0,107.7 -10.3,21.5 -107.43,99.6 -193.51,88.9 -86.08,-10.8 -279.96,-371.7 -279.96,-371.7" /></g></g></svg>