<?xml version="1.0" encoding="UTF-8" standalone="no"?>
<svg
   xmlns:dc="http://purl.org/dc/elements/1.1/"
   xmlns:cc="http://creativecommons.org/ns#"
   xmlns:rdf="http://www.w3.org/1999/02/22-rdf-syntax-ns#"
   xmlns:svg="http://www.w3.org/2000/svg"
   xmlns="http://www.w3.org/2000/svg"
   viewBox="0 0 2666.6667 2666.6667"
   height="2666.6667"
   width="2666.6667"
   xml:space="preserve"
   id="svg2"
   version="1.1"><metadata
     id="metadata8"><rdf:RDF><cc:Work
         rdf:about=""><dc:format>image/svg+xml</dc:format><dc:type
           rdf:resource="http://purl.org/dc/dcmitype/StillImage" /></cc:Work></rdf:RDF></metadata><defs
     id="defs6" /><g
     transform="matrix(1.3333333,0,0,-1.3333333,0,2666.6667)"
     id="g10"><g
       transform="scale(0.1)"
       id="g12"><g
         transform="scale(1.22699)"
         id="g14"><path
           id="path16"
           style="fill:none;fill-opacity:1;fill-rule:nonzero;stroke:none"
           d="M 16300,0 H 0 V 16300 H 16300 V 0" /></g><path
         id="path18"
         style="fill:#3a70c0;fill-opacity:1;fill-rule:nonzero;stroke:none"
         d="m 3229.37,9112.8 78.51,63.6 c 0,0 2.4,118.5 -78.51,239.8 -80.91,121.4 -65.74,308.5 -136.53,384.3 -70.79,75.9 -197.21,86 -434.87,-85.9 -237.67,-172 -212.38,-268 -470.27,-359.1 -257.9,-91 -444.99,-187.1 -374.19,-424.7 70.79,-237.7 308.45,-60.7 662.42,-166.9 353.96,-106.2 404.53,-166.9 591.63,0 187.09,166.9 161.81,348.9 161.81,348.9" /><path
         id="path20"
         style="fill:#3a70c0;fill-opacity:1;fill-rule:nonzero;stroke:none"
         d="m 7148.29,4693.3 c 0,0 22.75,182 -106.19,265.5 -128.95,83.4 -288.23,189.6 -371.67,257.9 -83.43,68.2 -128.94,75.8 -128.94,75.8 0,0 -219.97,-83.4 -295.82,-189.6 -75.85,-106.2 -83.43,-386.8 -189.62,-409.6 -106.19,-22.8 -546.12,-311 -568.88,-379.3 -22.75,-68.2 83.44,-153.2 159.29,-186.6 75.85,-33.3 -15.17,-7.8 348.91,6 364.08,13.8 451.2,135.1 809.64,127.5 358.45,-7.5 373.62,129 373.62,129 l -30.34,303.4" /><path
         id="path22"
         style="fill:#fbc398;fill-opacity:1;fill-rule:nonzero;stroke:none"
         d="m 7653.96,8141.9 c 0,0 -798.96,86 -1107.42,86 -308.45,0 -374.19,-50.6 -647.25,0 -273.06,50.6 -627.02,399.5 -1117.52,561.3 -490.5,161.8 -662.42,111.2 -1092.24,222.5 -429.82,111.2 -409.59,217.4 -409.59,217.4 l -146.64,-55.6 c 0,0 -161.82,116.3 -303.41,55.6 -141.58,-60.7 -106.18,-333.7 -80.9,-384.3 25.28,-50.5 182.04,-121.3 182.04,-121.3 0,0 212.38,60.6 551.17,-177 338.8,-237.7 743.33,-434.9 1021.45,-556.3 278.12,-121.3 591.63,-197.2 869.75,-394.4 278.11,-197.2 480.38,-202.2 480.38,-202.2 0,0 748.39,-376.7 1198.43,-476.6 450.05,-99.9 692.77,-64.5 692.77,-64.5 0,0 146.64,419.7 136.52,632.1 -10.11,212.4 -227.54,657.3 -227.54,657.3" /><path
         id="path24"
         style="fill:#fbc398;fill-opacity:1;fill-rule:nonzero;stroke:none"
         d="m 8349.12,6604.7 c 0,0 88.62,-553.7 240.32,-857.1 151.7,-303.4 227.55,-864.7 227.55,-864.7 0,0 -242.72,60.7 -652.31,30.4 -409.59,-30.4 -1115,-30.4 -1115,-30.4 0,0 -212.38,-128.9 -242.72,-257.9 -30.34,-128.9 303.4,-295.8 303.4,-295.8 l 68.27,60.7 c 0,0 265.47,-30.3 895.03,-151.7 629.55,-121.4 1289.45,-159.3 1471.49,-30.3 182.04,128.9 318.57,857.1 265.48,1441.1 -53.1,584 -103.67,1006.3 -103.67,1006.3 0,0 -677.34,469.5 -673.58,479.7 3.75,10.2 -117.78,97.9 -239.15,0 -121.35,-97.9 -445.11,-530.3 -445.11,-530.3" /><path
         id="path26"
         style="fill:#100f0d;fill-opacity:1;fill-rule:nonzero;stroke:none"
         d="m 8265.81,7054.8 83.31,-450.1 c 0,0 301,151.7 654.97,166.9 353.96,15.2 702.87,-116.3 702.87,-116.3 l -50.56,657.3 c 0,0 -627.03,75.9 -859.64,40.5 -232.6,-35.4 -530.95,-298.3 -530.95,-298.3" /><path
         id="path28"
         style="fill:#252323;fill-opacity:1;fill-rule:nonzero;stroke:none"
         d="m 9155.79,8111.6 55.62,127.6 c 0,0 -379.25,378.1 -768.62,327.5 -389.36,-50.6 -788.83,-424.8 -788.83,-424.8 0,0 -182.05,-313.5 -192.16,-556.2 -10.11,-242.7 283.18,-733.2 283.18,-733.2 l 1208.54,65.7 283.17,768.6 -80.9,424.8" /><g
         transform="scale(1.01991)"
         id="g30"><path
           id="path32"
           style="fill:#fbc398;fill-opacity:1;fill-rule:nonzero;stroke:none"
           d="m 13851,8584.4 c 0,0 847.6,251.2 1095.4,236.4 247.9,-14.81 957,-89.32 1155.2,-84.32 198.4,5.09 198.4,5.09 198.4,5.09 l -24.8,-243.94 c 0,0 -649.5,-137.86 -971.8,-222.08 -322.2,-84.32 -694,-157.56 -1056,-120.89 -361.9,36.57 -396.4,429.74 -396.4,429.74" /></g><g
         transform="scale(1.11747)"
         id="g34"><path
           id="path36"
           style="fill:#fbc398;fill-opacity:1;fill-rule:nonzero;stroke:none"
           d="m 14803.3,7926.37 73.6,51.99 c 0,0 294.1,15.84 418.5,40.72 124.5,24.88 276.1,101.84 319,110.87 43.1,9.04 205.9,33.92 319.1,70.16 113.1,36.16 307.7,117.68 337.1,115.35 29.4,-2.23 29.4,-65.59 -58.8,-115.35 -88.3,-49.75 -224,-90.47 -253.5,-110.87 -29.3,-20.41 -135.7,-106.31 -135.7,-106.31 0,0 74.7,-20.4 74.7,-47.52 0,-27.21 13.5,-58.88 -129,-67.92 -142.5,-9.04 -156.1,-2.24 -235.3,-18.08 -79.2,-15.84 -251.1,-115.44 -386.9,-122.15 -135.7,-6.8 -291.9,28.46 -291.9,28.46 0,0 -99.6,68.81 -88.2,86.89 11.3,18.08 37.3,83.76 37.3,83.76" /></g><path
         id="path38"
         style="fill:#fbc398;fill-opacity:1;fill-rule:nonzero;stroke:none"
         d="m 10642.4,7201.4 c 0,0 -874.76,-146.6 -1066.91,-222.5 -192.16,-75.8 -621.97,-60.7 -621.97,-60.7 0,0 -202.27,263 -222.49,627.1 -20.23,364 480.38,693.9 480.38,693.9 0,0 287.63,44.3 475.03,150.5 187.39,106.2 609.66,338.8 609.66,338.8 0,0 175.4,-510.7 190.1,-601.7 14.7,-91 156.2,-925.4 156.2,-925.4" /><path
         id="path40"
         style="fill:#3a70c0;fill-opacity:1;fill-rule:nonzero;stroke:none"
         d="m 12829.5,8963.7 v 83.4 c 0,0 -177.1,170.7 -382.5,216.2 -205.4,45.5 -633.9,-7.6 -910.8,-87.3 -276.8,-79.6 -625.8,-151.9 -902.6,-265.6 -276.9,-113.6 -337.5,-181.9 -337.5,-181.9 0,0 -189.7,-212.4 -154.3,-657.3 35.4,-445 500.6,-869.8 500.6,-869.8 0,0 333.8,20.2 354,20.2 20.2,0 834.4,-149.1 1120.1,168.2 0,0 -27.9,544.8 37.9,696.5 65.7,151.7 292.6,580.5 292.6,580.5 l 382.5,183.1 v 113.8" /><path
         id="path42"
         style="fill:#372a23;fill-opacity:1;fill-rule:nonzero;stroke:none"
         d="m 13533.2,9517.3 c 0,0 307.5,341.4 545.2,303.5 237.7,-38 347.1,-234.4 326.5,-720.3 -20.5,-485.8 -225.3,-1374.4 -240.5,-1722.7 -15.2,-348.3 22.8,-651.7 22.8,-651.7 l -108.8,174.4 c 0,0 -40.5,-189.6 0,-364 0,0 -339.3,371.6 -414.9,735.7 -75.5,364.1 -60.4,1190.8 -60.4,1190.8 l -69.9,1054.3" /><path
         id="path44"
         style="fill:#fbc398;fill-opacity:1;fill-rule:nonzero;stroke:none"
         d="m 12773.7,8265.8 h -114.9 c 0,0 -227.6,-165.4 -261.7,-232.5 -34.1,-67.1 -144.1,-586.7 -280.6,-643.5 -136.6,-56.9 -402.2,120.6 -402.2,135.8 0,15.1 43.6,119.5 62.5,256 0,0 297.9,381.8 351,700.4 53.1,318.6 56.9,455.1 110,538.5 53.1,83.5 766.1,41.8 766.1,41.8 l 56.3,34.8 c 0,0 415.4,36.3 459.5,-125.9 44.1,-162.1 231.3,-238.9 94.8,-356.5 -136.5,-117.5 -322.4,-322.3 -322.4,-322.3 l -341.3,-117.6 -177.1,91" /><path
         id="path46"
         style="fill:#eec6ab;fill-opacity:1;fill-rule:nonzero;stroke:none"
         d="m 12519,8156.8 v 0 c 68.7,57.3 139.8,109 139.8,109 v 0 l -139.8,-109" /><path
         id="path48"
         style="fill:#ecab7b;fill-opacity:1;fill-rule:nonzero;stroke:none"
         d="m 12519,8156.8 c -0.4,0.6 -47,78.9 -281.2,160.2 -4.1,1.4 -3.2,2 1.6,2 43.9,0 419.4,-53.2 419.4,-53.2 0,0 -71.1,-51.7 -139.8,-109" /><path
         id="path50"
         style="fill:#fbc398;fill-opacity:1;fill-rule:nonzero;stroke:none"
         d="m 11380.7,8996.4 c 0,0 -465.2,23.3 -768.6,-329.6 -303.4,-352.9 5.1,-747.3 257.9,-853.5 0,0 45.5,-571.4 91,-829.3 45.5,-257.9 156.8,-783.8 156.8,-864.7 0,-80.9 50.5,-263 50.5,-263 0,0 187.1,-1400.7 212.4,-1633.3 25.3,-232.6 30.4,-262.9 30.4,-262.9 l 293.2,146.6 c 0,0 60.7,1228.8 30.4,1426 -30.4,197.2 -60.7,263 -55.6,369.1 5,106.2 50.5,505.7 15.1,874.8 -35.4,369.2 -30.3,662.5 -30.3,662.5 0,0 182,241.4 182,714.9 0,0 281.9,928.5 -465.2,842.4" /><path
         id="path52"
         style="fill:#df9866;fill-opacity:1;fill-rule:nonzero;stroke:none"
         d="m 10703.1,8182.4 131.5,-187.1 35.4,-182 -114.7,65.8 -52.2,303.3" /><path
         id="path54"
         style="fill:#fbc398;fill-opacity:1;fill-rule:nonzero;stroke:none"
         d="m 11411.1,3960.1 c 0,0 -19,-279.4 144.1,-351.5 163.1,-72 280.6,-22.7 322.3,-37.9 41.8,-15.2 144.2,-102.4 185.9,-94.8 41.7,7.6 37.9,68.3 0,98.6 -38,30.3 -38,30.3 -38,30.3 l 250.4,-26.5 c 0,0 273,-53.1 318.5,-43 45.5,10.1 55.6,55.6 55.6,55.6 0,0 151.7,-7.5 174.5,5.1 22.7,12.6 25.3,37.9 25.3,37.9 0,0 80.9,56.4 58.1,83.9 -22.7,27.4 -462.7,153.8 -510.7,166.4 -48,12.7 -199.7,27.8 -270.5,38 -70.8,10.1 -308.5,35.3 -328.7,37.9 -20.2,2.5 -93.6,146.6 -93.6,146.6 0,0 -131.4,48.1 -192.1,15.2 -60.7,-32.9 -101.1,-161.8 -101.1,-161.8" /><path
         id="path56"
         style="fill:#df9866;fill-opacity:1;fill-rule:nonzero;stroke:none"
         d="m 12187.3,3724.9 c -15.2,-0.5 462.6,-134 462.6,-134 h 106.2 c 0,0 -429.8,139.1 -568.8,134" /><path
         id="path58"
         style="fill:#df9866;fill-opacity:1;fill-rule:nonzero;stroke:none"
         d="m 12399.6,3775.5 c -25.3,1.7 450.1,-141.6 450.1,-141.6 l 39.5,33.7 c 0,0 -451.6,105.4 -489.6,107.9" /><g
         transform="scale(1.08799)"
         id="g60"><path
           id="path62"
           style="fill:#df9866;fill-opacity:1;fill-rule:nonzero;stroke:none"
           d="m 15977.1,8210.8 c 0,0 111.5,-30.24 146.4,-30.24 34.9,0 127.8,18.66 127.8,18.66 l 48.7,39.06 -322.9,-27.48" /></g><path
         id="path64"
         style="fill:#f2f2f2;fill-opacity:1;fill-rule:nonzero;stroke:none"
         d="m 7285.45,4884.4 c -140.62,-1.5 -235.77,-1.5 -235.77,-1.5 0,0 -212.38,-128.9 -242.72,-257.9 -30.34,-128.9 303.4,-295.8 303.4,-295.8 l 68.27,60.7 c 0,0 32.5,-3.7 101.44,-13.7 -9.51,161.8 -2.76,360.6 5.38,508.2" /><path
         id="path66"
         style="fill:#df9866;fill-opacity:1;fill-rule:nonzero;stroke:none"
         d="m 13286.7,8687 c 0,0 -236,-149.2 -338.3,-228.8 -102.3,-79.6 -174.7,-192.4 -174.7,-192.4 l 442.3,-232.5 202.7,467.1 -132,186.6" /><path
         id="path68"
         style="fill:#523d38;fill-opacity:1;fill-rule:nonzero;stroke:none"
         d="m 14287.3,8228.3 c 10.3,-14.7 115.9,-71.9 115.9,-71.9 0,0 276.1,-60.2 262.8,411.5 -13.4,471.7 -189.5,785.6 -428.3,948.5 -238.7,162.9 -852.8,0.2 -1024.5,-152.1 -171.7,-152.4 -153,-267.2 -153,-267.2 l 343.7,-290.2 c 0,0 79.5,-463.2 118.9,-473.5 39.3,-10.4 326.4,-54.1 369.5,-53.1 43,1 395,-52 395,-52" /><path
         id="path70"
         style="fill:#8d8681;fill-opacity:1;fill-rule:nonzero;stroke:none"
         d="m 13059.6,9107.7 c 0,31.9 12.7,131.6 153.6,256.6 20.9,18.5 48.4,37.3 81.1,55.6 -32.7,-18.3 -60.2,-37.1 -81.1,-55.6 -140.9,-125 -153.6,-224.7 -153.6,-256.6 m 235.3,312.5 c 0.1,0.1 0.1,0.1 0.2,0.1 0,0 -0.1,0 -0.2,-0.1" /><path
         id="path72"
         style="fill:#8b6b55;fill-opacity:1;fill-rule:nonzero;stroke:none"
         d="m 13404,8805.9 v 0 0 m -0.1,0.5 v 0 0 m 0,0.1 c 0,0.1 0,0.1 0,0.1 0,0 0,0 0,-0.1 m 0,0.1 c 0,0.1 0,0.1 0,0.1 0,0 0,0 0,-0.1 m 0,0.2 v 0 0 m 0,0 v 0 0 m 0,0.1 v 0 0 m 0,0 v 0 0" /><path
         id="path74"
         style="fill:#42322c;fill-opacity:1;fill-rule:nonzero;stroke:none"
         d="m 13488.1,8410 c -37.7,129.2 -81,377.9 -84.1,395.9 v 0 c 0,0.2 0,0.4 -0.1,0.5 v 0 0.1 c 0,0.1 0,0.1 0,0.1 v 0 c 0,0.1 0,0.1 0,0.1 0,0 0,0 0,0.1 v 0 0 0 c 0,0.1 0,0.1 0,0.1 v 0 0 0 0 0 l -343.7,290.2 c 0,0 -0.1,0.5 -0.2,1.5 -0.2,1.7 -0.4,4.8 -0.4,9.1 0,31.9 12.7,131.6 153.6,256.6 20.9,18.5 48.4,37.3 81.1,55.6 0.2,0.1 0.4,0.2 0.6,0.3 0.1,0.1 0.2,0.1 0.2,0.1 144.8,80.9 389.1,152.6 604.5,162.6 -46.3,-50.2 -298.6,-342.1 -335.8,-773.8 -20.4,-235.6 -60.4,-334.1 -75.7,-399.1" /><path
         id="path76"
         style="fill:#372a23;fill-opacity:1;fill-rule:nonzero;stroke:none"
         d="m 14324.8,8412 c 0,0 37.5,179.6 -7.9,351 0,0 -32.1,-191 -97.5,-241.2 -65.4,-50.2 -126,58.2 -126,58.2 0,0 7.4,304.8 -80.6,542.7 0,0 -41.5,-398.9 -166.5,-526.7 -125,-127.9 195.9,-216.6 206.7,-207.5 10.8,9 271.8,23.5 271.8,23.5" /><path
         id="path78"
         style="fill:#fbc398;fill-opacity:1;fill-rule:nonzero;stroke:none"
         d="m 13608,8686.1 c 0,0 193.4,61.1 121.7,180 -71.6,118.9 -389.4,-30.8 -416.2,-105 -26.8,-74.1 -26.8,-74.1 -26.8,-74.1 0,0 -296,-255.3 -356.6,-356 -60.6,-100.8 12.4,-452.2 39.3,-496.8 26.8,-44.6 454.9,19 454.9,19 0,0 91.6,-128.1 108,-129.7 16.5,-1.6 208,180.7 230,196.1 22,15.4 293.1,43.5 374,71.7 80.8,28.2 253.4,147 266.9,165.1 13.5,18.2 -56.7,218.3 -78.4,255.6 -21.7,37.2 -96,155.8 -152.8,183.8 -56.8,28 -297.8,-11.9 -409.5,3.9 -111.6,15.8 -142.3,31.5 -154.5,86.4" /><path
         id="path80"
         style="fill:#372a23;fill-opacity:1;fill-rule:nonzero;stroke:none"
         d="m 14286.4,8472.5 c 0,0 -165.3,-11.9 -260.4,131.8 -95.1,143.6 -97.5,-5.3 -97.5,-5.3 0,0 81.9,-112.9 170.8,-154.3 88.8,-41.4 225.5,-32.7 225.5,-32.7 l -38.4,60.5" /><path
         id="path82"
         style="fill:#f2f2f2;fill-opacity:1;fill-rule:nonzero;stroke:none"
         d="m 3425.55,9101 c -156.07,72.7 -145.61,128.1 -145.61,128.1 l -146.64,-55.6 c 0,0 -161.82,116.3 -303.41,55.6 -141.58,-60.7 -106.18,-333.7 -80.9,-384.3 25.28,-50.5 182.04,-121.3 182.04,-121.3 0,0 114.1,32.4 308.3,-43.7 43.67,182.6 125.36,329.8 186.22,421.2" /><path
         id="path84"
         style="fill:#3065a6;fill-opacity:1;fill-rule:nonzero;stroke:none"
         d="m 5904.35,11641.2 c 0,0 310.98,382.5 417.17,407.4 106.19,24.9 128.95,78 242.72,55.2 113.78,-22.7 257.89,-273 599.22,-379.2 341.33,-106.2 -204.8,-371.7 -386.84,-402 -182.04,-30.3 -629.55,-30.3 -712.99,0 -83.43,30.3 -159.28,318.6 -159.28,318.6" /><path
         id="path86"
         style="fill:#3a70c0;fill-opacity:1;fill-rule:nonzero;stroke:none"
         d="m 6185,11443.9 c 0,22.8 68.26,151.8 -45.52,288.3 -113.77,136.5 -359.69,523.3 -449.11,538.5 -89.42,15.2 -241.12,-60.7 -400.41,-182 -159.28,-121.4 -128.94,-227.6 -265.47,-341.3 -136.53,-113.8 -303.4,-204.8 -485.44,-341.4 -182.04,-136.5 -174.46,-462.7 -106.19,-508.2 68.26,-45.5 993.63,159.3 1198.43,159.3 204.79,0 341.8,95.5 341.8,95.5 l 211.91,291.3" /><path
         id="path88"
         style="fill:#efb38d;fill-opacity:1;fill-rule:nonzero;stroke:none"
         d="m 8349.12,11857.3 -609.2,-275.4 c 0,0 22.76,-350.3 238.93,-282.1 216.17,68.3 504.4,274.4 504.4,274.4 l -134.13,283.1" /><path
         id="path90"
         style="fill:#efb38d;fill-opacity:1;fill-rule:nonzero;stroke:none"
         d="m 9681.68,13514.7 c 0,0 121.36,-963.3 91.02,-1683.9 -30.34,-720.6 -174.48,-960.2 -876.08,-882.1 -701.6,78.1 -428.54,1246.2 -428.54,1405.5 0,159.2 -106.19,1471.4 -106.19,1471.4 l 764.4,383.9 555.39,-694.8" /><path
         id="path92"
         style="fill:#df9866;fill-opacity:1;fill-rule:nonzero;stroke:none"
         d="m 9332.77,13598.1 -273.09,-83.4 c 0,0 190.45,-750.2 61.11,-1304.3 -129.34,-554.1 -637.54,492.7 -637.54,492.7 l 151.7,1334.9 c 0,0 781.26,341.4 841.93,235.2 60.68,-106.2 -144.11,-675.1 -144.11,-675.1" /><path
         id="path94"
         style="fill:#fbc398;fill-opacity:1;fill-rule:nonzero;stroke:none"
         d="m 7550.29,13598.1 621.98,-2010 c 0,0 -295.82,204.8 -621.98,227.5 -326.15,22.8 -371.66,-91 -819.18,-136.5 -447.51,-45.5 -766.08,-37.9 -826.76,-37.9 -60.68,0 -189.63,-113.8 -212.38,-204.8 -22.76,-91.1 204.79,-288.3 204.79,-288.3 0,0 629.56,53.1 1319.79,-106.2 690.24,-159.2 1380.47,-273 1592.85,-204.7 212.38,68.2 364.08,705.4 303.4,1501.8 -60.68,796.4 -265.47,1259.1 -265.47,1259.1 l -439.93,356.5 c 0,0 -326.15,37.9 -477.85,-53.1 -151.71,-91 -379.26,-303.4 -379.26,-303.4" /><path
         id="path96"
         style="fill:#252323;fill-opacity:1;fill-rule:nonzero;stroke:none"
         d="m 9029.37,14719.2 -68.27,327.4 c 0,0 -409.59,128.8 -879.85,0 -470.28,-128.7 -523.37,-476 -584.05,-837.1 -60.68,-361.1 53.09,-611.4 53.09,-611.4 h 1297.04 c 0,0 273.06,37.9 485.44,0 212.38,-37.9 348.91,-83.4 348.91,-83.4 v 694.8 l -652.31,509.7" /><path
         id="path98"
         style="fill:#efb38d;fill-opacity:1;fill-rule:nonzero;stroke:none"
         d="m 12194.8,14599.3 c 0,0 91.1,-1158 80.9,-1249 -10.1,-91 -49,-364.1 0.8,-783.8 49.8,-419.7 95.3,-1304.6 95.3,-1304.6 l 268,35.4 c 0,0 222.5,1562.5 207.3,1795.1 -15.1,232.6 -121.3,409.6 -116.3,465.2 5.1,55.7 3.5,935.5 3.5,935.5 0,0 119.4,328.3 113.6,576.3 -5.8,248 -369.9,263.1 -369.9,263.1 0,0 -379.2,-126.8 -364.1,-263.1 15.2,-136.3 80.9,-470.1 80.9,-470.1" /><path
         id="path100"
         style="fill:#100f0d;fill-opacity:1;fill-rule:nonzero;stroke:none"
         d="m 8733.55,14060.8 113.78,-462.7 212.35,16.1 c 0,0 -128.94,145.7 -163.06,383.4 -34.12,237.6 -163.07,63.2 -163.07,63.2" /><path
         id="path102"
         style="fill:#fbc398;fill-opacity:1;fill-rule:nonzero;stroke:none"
         d="m 10718.3,13997.6 -1127.64,-225.1 c 0,0 -561.29,-121.3 -857.11,288.3 -295.81,409.6 -185.44,713 227.55,985.8 0,0 633.06,-108.5 1222.9,215.1 0,0 385.1,-434.8 430.6,-495.5 45.5,-60.7 103.7,-768.6 103.7,-768.6" /><path
         id="path104"
         style="fill:#3a70c0;fill-opacity:1;fill-rule:nonzero;stroke:none"
         d="m 12478,15603.9 c -5,6.7 -20.2,178.7 -20.2,178.7 0,0 -217.4,141.6 -662.4,146.6 -445,5.1 -844.5,-197.2 -1183.3,-394.4 -338.8,-197.2 -428.1,-273.1 -428.1,-273.1 0,0 -32,-429.8 64,-753.4 96.1,-323.6 470.3,-510.7 470.3,-510.7 0,0 515.8,91 642.2,85.9 126.4,-5 485.6,-115.1 735.8,154.9 250.2,269.9 113.7,790.3 133.9,831 20.3,40.6 247.8,534.5 247.8,534.5" /><g
         transform="scale(1.01569)"
         id="g106"><path
           id="path108"
           style="fill:#372a23;fill-opacity:1;fill-rule:nonzero;stroke:none"
           d="m 13262.4,15958.4 c 0,0 296.5,341.6 531.1,308.6 234.7,-33 346,-224.4 334.6,-703 -11.4,-478.6 -196.8,-1357.2 -205.4,-1700.3 -8.7,-343.1 34.2,-641.1 34.2,-641.1 l -110.2,169.8 c 0,0 -36.4,-187.4 6.6,-358.4 0,0 -340.8,359.7 -421.8,716.7 -81,357 -81.1,1171.1 -81.1,1171.1 l -88,1036.6" /></g><path
         id="path110"
         style="fill:#fbc398;fill-opacity:1;fill-rule:nonzero;stroke:none"
         d="m 11406.5,15811.7 c 0,0 -465.2,23.3 -768.6,-329.6 -303.4,-352.9 5,-747.4 257.9,-853.5 0,0 45.5,-571.4 91,-829.3 45.5,-257.9 156.7,-783.8 156.7,-864.7 0,-80.9 50.6,-263 50.6,-263 0,0 187.1,-1400.7 212.4,-1633.3 25.3,-232.6 30.3,-262.9 30.3,-262.9 l 293.3,146.6 c 0,0 60.7,1228.8 30.4,1426 -30.4,197.2 -60.7,262.9 -55.7,369.1 5.1,106.2 50.6,505.7 15.2,874.8 -35.4,369.2 -30.3,662.5 -30.3,662.5 0,0 182,241.4 182,714.8 0,0 281.9,928.5 -465.2,842.5" /><path
         id="path112"
         style="fill:#fbc398;fill-opacity:1;fill-rule:nonzero;stroke:none"
         d="m 11436.8,10775.4 c 0,0 -18.9,-279.4 144.1,-351.5 163.1,-72 280.7,-22.7 322.4,-37.9 41.7,-15.2 144.1,-102.4 185.8,-94.8 41.8,7.6 38,68.3 0,98.6 -37.9,30.3 -37.9,30.3 -37.9,30.3 l 250.3,-26.5 c 0,0 273.1,-53.1 318.6,-43 45.5,10.1 55.6,55.6 55.6,55.6 0,0 151.7,-7.5 174.5,5.1 22.7,12.6 25.2,37.9 25.2,37.9 0,0 81,56.4 58.2,83.9 -22.8,27.4 -462.7,153.8 -510.7,166.4 -48.1,12.7 -199.8,27.8 -270.5,37.9 -70.8,10.2 -308.5,35.4 -328.7,38 -20.3,2.5 -93.6,146.6 -93.6,146.6 0,0 -131.5,48.1 -192.1,15.2 -60.7,-32.9 -101.2,-161.8 -101.2,-161.8" /><path
         id="path114"
         style="fill:#df9866;fill-opacity:1;fill-rule:nonzero;stroke:none"
         d="m 12213,10540.2 c -15.1,-0.5 462.7,-134 462.7,-134 h 106.2 c 0,0 -429.8,139.1 -568.9,134" /><path
         id="path116"
         style="fill:#df9866;fill-opacity:1;fill-rule:nonzero;stroke:none"
         d="m 12425.4,10590.8 c -25.3,1.7 450,-141.6 450,-141.6 l 39.6,33.7 c 0,0 -451.7,105.4 -489.6,107.9" /><path
         id="path118"
         style="fill:#df9866;fill-opacity:1;fill-rule:nonzero;stroke:none"
         d="m 10895.8,14628.6 v 147.7 l -177.5,210.6 c 0,0 96.6,-218.1 88.7,-310.4 l 88.8,-47.9" /><path
         id="path120"
         style="fill:#fbc398;fill-opacity:1;fill-rule:nonzero;stroke:none"
         d="m 13140.4,15929.2 c 0,0 -126.4,-146.6 -247.7,-146.6 -121.4,0 -546.2,0 -546.2,0 0,0 -171.9,-55.3 -187.1,-209.7 -15.1,-154.4 -79.6,-483 -192.1,-664.6 -112.5,-181.6 -232.6,-349.4 -232.6,-349.4 l -45.5,-187.1 c 0,0 222.5,-172 348.9,-161.9 126.4,10.2 399.5,497 470.3,777 l 225.9,-43.4 c 0,0 350.5,19.6 401.1,72.8 50.5,53.3 257.9,285.9 257.9,285.9 0,0 -16.6,253.2 -18.4,270.7 -1.9,17.5 -52.4,184.4 -118.2,194.5 -65.7,10.1 -116.3,161.8 -116.3,161.8" /><path
         id="path122"
         style="fill:#ecab7b;fill-opacity:1;fill-rule:nonzero;stroke:none"
         d="m 12475.8,14881.6 -245.6,128 278.2,-22.7 v 0 l -32.6,-105.3" /><path
         id="path124"
         style="fill:#efb38d;fill-opacity:1;fill-rule:nonzero;stroke:none"
         d="m 12480.8,11393.4 c -23,-20.2 -109,-131.5 -109,-131.5 0,0 -12.6,-288.2 78.4,-364.1 91,-75.8 227.6,-22.7 346.4,-70.8 118.8,-48 174.4,-62.8 197.2,-51.6 22.8,11.2 -12.6,87 -12.6,87 0,0 371.6,-68.2 417.1,-70.8 45.5,-2.5 55.7,35.4 55.7,35.4 0,0 166.8,-20.2 184.5,-7.6 17.7,12.7 53.1,40.5 -30.3,68.3 -83.5,27.8 -384.3,129 -391.9,131.5 -7.6,2.5 -169.4,15.2 -169.4,15.2 0,0 -356.5,156.7 -364.1,169.4 -7.6,12.6 -43,93.5 -43,93.5 l -159,96.1" /><path
         id="path126"
         style="fill:#df9866;fill-opacity:1;fill-rule:nonzero;stroke:none"
         d="m 13226.4,10948.7 c -10.5,-0.9 227.6,-121.7 227.6,-121.7 l 85.6,-8.5 c 0,0 -191.8,140.6 -313.2,130.2" /><path
         id="path128"
         style="fill:#df9866;fill-opacity:1;fill-rule:nonzero;stroke:none"
         d="m 13239.4,15374.1 c 0,0 -233.2,-153.6 -334,-235 -100.8,-81.5 -171.1,-195.6 -171.1,-195.6 l 446.5,-224.3 194.1,470.8 -135.5,184.1" /><g
         transform="scale(1.00487)"
         id="g130"><path
           id="path132"
           style="fill:#523d38;fill-opacity:1;fill-rule:nonzero;stroke:none"
           d="m 14179.3,14861.6 c 10.4,-14.4 116.6,-69.4 116.6,-69.4 0,0 275.8,-54.8 254,414.2 -22,469.1 -203.1,778.2 -443.7,935.9 -240.5,157.7 -848.6,-15.5 -1016.5,-170.2 -168.1,-154.7 -147.4,-268.7 -147.4,-268.7 l 347.3,-282.3 c 0,0 87.8,-459.4 127.1,-469 39.3,-9.6 325.8,-47.8 368.6,-46 42.8,1.7 394,-44.5 394,-44.5" /></g><path
         id="path134"
         style="fill:#8b6b55;fill-opacity:1;fill-rule:nonzero;stroke:none"
         d="m 13360,15467.2 c 0,0.1 0,0.1 0,0.2 0,-0.1 0,-0.1 0,-0.2 m -0.1,0.4 c -3.5,18 -5.6,28.6 -5.6,28.6 l -349,283.7 c 0,0 -0.3,1.6 -0.5,4.8 0.2,-3.2 0.5,-4.8 0.5,-4.8 l 349,-283.7 c 0,0 2.1,-10.6 5.6,-28.6" /><path
         id="path136"
         style="fill:#8d8681;fill-opacity:1;fill-rule:nonzero;stroke:none"
         d="m 13006.6,15818.1 c 7.1,46.1 36.4,130.2 146.8,231.8 11.2,10.3 24.4,20.8 39.4,31.2 -15,-10.4 -28.2,-20.9 -39.4,-31.2 -110.4,-101.6 -139.7,-185.7 -146.8,-231.8 v 0" /><path
         id="path138"
         style="fill:#8d8681;fill-opacity:1;fill-rule:nonzero;stroke:none"
         d="m 13193,16081.2 c 0.1,0.1 0.3,0.2 0.4,0.3 -0.2,-0.1 -0.3,-0.2 -0.4,-0.3 m 1,0.7 c 0.1,0.1 0.1,0.2 0.2,0.2 -0.1,-0.1 -0.1,-0.1 -0.2,-0.2" /><path
         id="path140"
         style="fill:#42322c;fill-opacity:1;fill-rule:nonzero;stroke:none"
         d="m 13445.9,15100.9 c -33.1,106.4 -71.7,294.6 -85.9,366.3 0,0.1 0,0.1 0,0.2 0,0 -0.1,0.1 -0.1,0.2 -3.5,18 -5.6,28.6 -5.6,28.6 l -349,283.7 c 0,0 -0.3,1.6 -0.5,4.8 -0.1,2 -0.3,4.7 -0.3,8 0,6.3 0.5,14.9 2.1,25.4 7.1,46.1 36.4,130.2 146.8,231.8 11.2,10.3 24.4,20.8 39.4,31.2 0,0.1 0.1,0.1 0.2,0.1 0.1,0.1 0.2,0.2 0.4,0.3 0.2,0.2 0.4,0.3 0.6,0.4 0.1,0.1 0.1,0.1 0.2,0.2 134.2,92.9 404.7,183.7 641.4,199.1 -45.3,-51.1 -292.2,-347.6 -321.4,-779.9 -16,-236 -54.2,-335.2 -68.3,-400.4" /><path
         id="path142"
         style="fill:#372a23;fill-opacity:1;fill-rule:nonzero;stroke:none"
         d="m 14282.4,15118.3 c 0,0 34.2,180.3 -14.4,350.8 0,0 -28.5,-191.5 -93,-242.9 -64.5,-51.4 -127.1,55.9 -127.1,55.9 0,0 1.8,304.8 -90.6,541 0,0 -34.1,-399.5 -156.7,-529.7 -122.6,-130.1 199.9,-212.9 210.5,-203.6 10.6,9.2 271.3,28.5 271.3,28.5" /><path
         id="path144"
         style="fill:#fbc398;fill-opacity:1;fill-rule:nonzero;stroke:none"
         d="m 13560.7,15379.1 c 0,0 192.2,64.7 118.4,182.2 -73.9,117.6 -388.9,-38 -414.3,-112.6 -25.4,-74.6 -25.4,-74.6 -25.4,-74.6 0,0 -291.2,-260.7 -350,-362.6 -58.7,-101.8 20.8,-451.8 48.5,-495.9 27.7,-44.1 454.5,27.4 454.5,27.4 0,0 93.9,-126.4 110.4,-127.7 16.5,-1.3 204.6,184.5 226.3,200.3 21.7,15.8 292.3,48.9 372.6,78.6 80.3,29.7 250.7,151.6 263.8,170.1 13.2,18.4 -60.7,217.1 -83.1,254 -22.4,36.9 -98.9,154 -156.1,180.9 -57.3,27 -297.6,-17.3 -409.5,-3.6 -111.9,13.8 -142.9,28.9 -156.1,83.5" /><path
         id="path146"
         style="fill:#372a23;fill-opacity:1;fill-rule:nonzero;stroke:none"
         d="m 14242.9,15178.1 c 0,0 -165,-15 -262.8,126.9 -97.7,141.9 -97.4,-7 -97.4,-7 0,0 84,-111.4 173.6,-151.1 89.6,-39.8 226.1,-28.6 226.1,-28.6 l -39.5,59.8" /><path
         id="path148"
         style="fill:#f2f2f2;fill-opacity:1;fill-rule:nonzero;stroke:none"
         d="m 6301.11,11647.6 c -214.65,-9.5 -358.1,-6.4 -396.76,-6.4 -60.68,0 -189.63,-113.8 -212.38,-204.8 -22.76,-91.1 204.79,-288.3 204.79,-288.3 0,0 156.48,13.2 398.9,6.7 -26.83,162.7 -13.16,351.8 5.45,492.8" /></g></g></svg>