<?xml version="1.0" encoding="UTF-8" standalone="no"?>
<svg
   xmlns:dc="http://purl.org/dc/elements/1.1/"
   xmlns:cc="http://creativecommons.org/ns#"
   xmlns:rdf="http://www.w3.org/1999/02/22-rdf-syntax-ns#"
   xmlns:svg="http://www.w3.org/2000/svg"
   xmlns="http://www.w3.org/2000/svg"
   viewBox="0 0 2666.6667 2666.6667"
   height="2666.6667"
   width="2666.6667"
   xml:space="preserve"
   id="svg2"
   version="1.1"><metadata
     id="metadata8"><rdf:RDF><cc:Work
         rdf:about=""><dc:format>image/svg+xml</dc:format><dc:type
           rdf:resource="http://purl.org/dc/dcmitype/StillImage" /></cc:Work></rdf:RDF></metadata><defs
     id="defs6" /><g
     transform="matrix(1.3333333,0,0,-1.3333333,0,2666.6667)"
     id="g10"><g
       transform="scale(0.1)"
       id="g12"><g
         transform="scale(1.22699)"
         id="g14"><path
           id="path16"
           style="fill:none;fill-opacity:1;fill-rule:nonzero;stroke:none"
           d="M 16300,0 H 0 V 16300 H 16300 V 0" /></g><g
         transform="scale(1.0823)"
         id="g18"><path
           id="path20"
           style="fill:#c37140;fill-opacity:1;fill-rule:nonzero;stroke:none"
           d="m 14877.2,13198.9 165.1,-34.8 c 0,0 370.7,-34.9 614.9,-269.1 244.2,-234.2 274,-657.8 274,-657.8 l 368.8,-812.3 c 0,0 -72.9,-388.7 -156.1,-538.2 -83,-149.5 -142.9,-294 -342.2,-348.8 -199.3,-54.9 -428.5,6.6 -448.5,24.9 -19.9,18.3 -57.4,96.3 -57.4,96.3 0,0 -107,302.3 -160.2,478.4 -53.2,176.1 -445.2,1019.9 -462.6,1159.5 -17.5,139.5 -109.2,380 -62.3,523.2 46.9,143.3 266.5,378.7 266.5,378.7" /></g><path
         id="path22"
         style="fill:#252323;fill-opacity:1;fill-rule:nonzero;stroke:none"
         d="m 10948.1,9803.3 c -2.7,13.5 0,169.9 0,169.9 h 64.8 l 105.1,-169.9 c 0,0 -21.5,-27 -64.7,-37.8 -43.1,-10.8 -105.2,37.8 -105.2,37.8" /><g
         transform="scale(1.02578)"
         id="g24"><path
           id="path26"
           style="fill:#9d4a30;fill-opacity:1;fill-rule:nonzero;stroke:none"
           d="m 16243.1,12507.1 56.9,552.8 c 0,0 -140.9,-262.2 -284.9,-435.5 -143.9,-173.4 228,-117.3 228,-117.3" /></g><g
         transform="scale(1.06212)"
         id="g28"><path
           id="path30"
           style="fill:#9d4a30;fill-opacity:1;fill-rule:nonzero;stroke:none"
           d="m 16223.3,12553.4 -86.9,-116.8 c 0,0 -72.6,-44.3 -72.6,-75.4 0,-31.2 17.8,-104.8 17.8,-104.8 l -48.2,-91.4 c 0,0 190.3,-27.5 177.7,0 -12.7,27.4 88.9,159.1 75.7,188.1 -13.1,28.9 -52.9,116.6 -52.9,116.6 l -10.6,83.7" /></g><path
         id="path32"
         style="fill:#b5b5b4;fill-opacity:1;fill-rule:nonzero;stroke:none"
         d="m 11032.5,9897.7 -19.6,75.5 272.3,21.6 83.6,-172.6 c 0,0 -237.3,-83.6 -250.8,-75.5 -13.5,8 -64.7,35 -64.7,43.1 0,8.1 -20.8,107.9 -20.8,107.9" /><path
         id="path34"
         style="fill:#8f908f;fill-opacity:1;fill-rule:nonzero;stroke:none"
         d="m 10778.2,9235.2 183.4,-327.2 366.8,37.3 v 75.9 l -154.6,312.9 -395.6,-98.9" /><path
         id="path36"
         style="fill:#252323;fill-opacity:1;fill-rule:nonzero;stroke:none"
         d="m 11177.4,9103.5 c 0,-30.5 -41.1,-55.3 -91.7,-55.3 -50.7,0 -91.7,24.8 -91.7,55.3 0,30.5 41,55.3 91.7,55.3 50.6,0 91.7,-24.8 91.7,-55.3" /><path
         id="path38"
         style="fill:#8f908f;fill-opacity:1;fill-rule:nonzero;stroke:none"
         d="m 10656.9,9636.1 -36.9,167.2 3439.2,373.9 30.6,-373.9 c 0,0 134.8,-815.3 27,-858 -107.9,-42.7 -275.8,-123.9 -318.6,-96.8 -42.8,27.1 -598.3,766 -679.2,776.8 -80.9,10.8 -1429.3,-53.9 -1736.7,-70.1 -307.4,-16.2 -697.5,-75.5 -707.4,-56.6 -9.9,18.8 -18,137.5 -18,137.5" /><path
         id="path40"
         style="fill:#a5a5a4;fill-opacity:1;fill-rule:nonzero;stroke:none"
         d="m 13183.7,11130.1 172.6,-1014 604.1,-1094.9 c 0,0 -102.5,685 -102.5,701.2 0,16.2 -442.3,722.8 -442.3,722.8 l -129.4,803.5 -102.5,-118.6" /><path
         id="path42"
         style="fill:#b5b5b4;fill-opacity:1;fill-rule:nonzero;stroke:none"
         d="m 12905.9,9641.5 169.9,-202.3 1633.7,-2718.3 -12.2,517.8 -1734.7,3163.3 -131.3,767.6 -140.2,-25.2 129.5,-801.8 56.7,-450.7 28.6,-250.4" /><path
         id="path44"
         style="fill:#b5b5b4;fill-opacity:1;fill-rule:nonzero;stroke:none"
         d="m 15260.2,5634.2 819.8,86.3 -134.8,323.6 h -97.1 l -5.4,544.7 70.1,59.3 -4.8,647.2 172,91.7 v 453.1 l -652.6,-97.1 c 0,0 -231.9,-97.1 -258.9,-280.5 -27,-183.3 -27,-129.4 -32.4,-614.8 -5.4,-485.4 124.1,-1213.5 124.1,-1213.5" /><g
         transform="scale(1.00371)"
         id="g46"><path
           id="path48"
           style="fill:#3e3d3f;fill-opacity:1;fill-rule:nonzero;stroke:none"
           d="m 13973.3,9159.86 c 0,0 -290.2,-118.17 -300.9,-182.72 -10.7,-64.47 -48.4,-284.75 0,-365.35 48.4,-80.6 1268.1,-1074.72 1467,-1090.86 198.8,-16.14 1064,139.78 1112.3,209.62 48.3,69.85 0,811.4 0,811.4 0,0 -1381,693.23 -1660.5,757.69 -279.3,64.46 -617.9,-139.78 -617.9,-139.78" /></g><g
         transform="scale(1.00206)"
         id="g50"><path
           id="path52"
           style="fill:#bebdbb;fill-opacity:1;fill-rule:nonzero;stroke:none"
           d="m 16298.1,8122.51 c -0.8,32.83 -1.8,65.76 -3,98.2 l 4.9,-98.01 -1.9,-0.19" /></g><g
         transform="scale(1.00194)"
         id="g54"><path
           id="path56"
           style="fill:#2e2d2d;fill-opacity:1;fill-rule:nonzero;stroke:none"
           d="m 15203.7,8007.87 c 0,0 27,317.69 53.9,597.55 18.9,196.71 133.5,225.96 218.6,225.96 36,0 66.9,-5.19 82.8,-5.19 53.8,0 721.3,-269.18 721.3,-269.18 l 16.7,-335.35 c 1.2,-32.43 2.2,-65.37 3,-98.21 l -1096.3,-115.58" /></g><path
         id="path58"
         style="fill:#3e3d3f;fill-opacity:1;fill-rule:nonzero;stroke:none"
         d="m 15405.8,6869.3 c 27,10.7 504.8,75.4 504.8,75.4 l -2.6,350.6 -674.8,-70.1 172.6,-355.9" /><g
         transform="scale(1.12746)"
         id="g60"><path
           id="path62"
           style="fill:#c37140;fill-opacity:1;fill-rule:nonzero;stroke:none"
           d="m 14750.1,7322.12 239.2,-28.74 c 0,0 -57.4,-440.1 -52.6,-741.49 4.8,-301.38 181.7,-760.55 267.8,-1061.94 86.2,-301.38 129.2,-624.32 131.6,-705.66 2.4,-81.24 -26.3,-212.86 -26.3,-265.46 0,-52.6 4.7,-78.94 4.7,-78.94 0,0 -76.5,-162.66 -33.4,-284.62 43,-121.95 162.6,-184.13 181.7,-222.45 19.2,-38.23 59.9,-279.83 98.1,-377.93 38.3,-98.01 90.9,-150.69 90.9,-150.69 0,0 31.1,-149.45 143.5,-160.18 112.4,-10.82 171,57.38 171,57.38 0,0 64.6,-10.82 81.4,-3.63 16.7,7.18 51.4,41.86 51.4,41.86 0,0 22.7,1.24 45.4,18.01 22.7,16.67 44.3,44.17 44.3,44.17 0,0 34.7,10.82 47.8,29.97 13.2,19.07 13.2,19.07 13.2,19.07 0,0 43,-5.94 46.6,51.45 3.6,57.38 -52.6,178.19 -52.6,178.19 0,0 37,-13.13 -130.4,197.34 -167.4,210.47 -265.5,437.71 -279.8,521.44 -14.3,83.72 16.7,138.72 -12,248.7 -28.7,110.07 -33.5,550.17 52.7,1105.05 86.1,554.96 -19.2,1018.93 -57.4,1301.15 -38.3,282.23 4.7,492.79 -43.1,655.37 -47.8,162.67 -229.7,430.53 -229.7,430.53 0,0 -430.5,143.59 -492.7,138.8 -62.1,-4.79 -483.1,153 -550,-196.19 -67,-349.19 248.7,-760.56 248.7,-760.56" /></g><path
         id="path64"
         style="fill:#c37140;fill-opacity:1;fill-rule:nonzero;stroke:none"
         d="m 14359.5,8223 261.6,-199.5 c 0,0 -150.2,-607.7 -200.5,-1060.8 -50.3,-453 187,-981.6 291.3,-1387.9 104.2,-406.3 82.7,-809 89.8,-852.1 7.2,-43.2 28.8,-133.1 28.8,-133.1 0,0 3.6,-735.3 41.4,-848.5 37.7,-113.3 132.1,-172.6 132.1,-172.6 0,0 54.8,-124.1 74.6,-134.9 19.8,-10.8 84.5,12.6 84.5,12.6 0,0 32.4,-30.5 80.9,-37.7 48.5,-7.2 70.1,9 70.1,9 0,0 39.6,-43.2 80.9,-43.2 41.4,0 54,16.2 54,16.2 0,0 48.5,-14.4 107.8,-16.2 59.4,-1.8 89.9,41.4 89.9,41.4 0,0 89.9,-136.7 197.8,-28.8 107.8,107.9 -19.8,244.5 -48.6,320 -28.7,75.5 -48.5,242.7 -138.4,386.5 -89.9,143.9 -248.1,456.7 -226.5,661.6 21.6,205 -50.4,284.1 -71.9,388.4 -21.6,104.2 -71.9,528.5 35.9,992.3 107.9,463.9 124.1,852.2 91.7,1208.2 -32.4,355.9 -16.2,510.6 70.1,791 86.3,280.5 80.9,471 80.9,471 0,0 70.1,377.6 54,399.2 -16.2,21.5 -124.1,167.2 -458.5,129.4 -334.4,-37.8 -749.7,129.4 -852.1,-215.7 -102.5,-345.2 -156.5,-446.5 -156.5,-446.5 l 134.9,-249.3" /><g
         transform="scale(1.04871)"
         id="g66"><path
           id="path68"
           style="fill:#9d4a30;fill-opacity:1;fill-rule:nonzero;stroke:none"
           d="m 15905.2,8078.77 c 0,0 250.7,-145.13 271.3,-155.43 20.6,-10.3 123.5,0 123.5,0 l -185.2,-82.29 -257.2,30.9 c 0,0 -65.7,95.35 -84,126.44 -18.3,31.08 131.6,80.38 131.6,80.38" /></g><path
         id="path70"
         style="fill:#9d4a30;fill-opacity:1;fill-rule:nonzero;stroke:none"
         d="m 14672.3,8255.4 -51.2,-231.9 -95.3,72.6 c 0,0 60.2,8.3 146.5,159.3" /><g
         transform="scale(1.00114)"
         id="g72"><path
           id="path74"
           style="fill:#3e3d3f;fill-opacity:1;fill-rule:nonzero;stroke:none"
           d="m 14553.2,16300 c -26.8,0 -700.3,-91.6 -856.5,-264 -156.2,-172.4 29.6,-6545.5 45.8,-6658.68 16.1,-113.17 115.8,-193.98 115.8,-193.98 0,0 761.1,1497.66 822.3,1594.66 61.2,97 -127.4,5522 -127.4,5522" /></g><g
         transform="scale(1.07518)"
         id="g76"><path
           id="path78"
           style="fill:#252323;fill-opacity:1;fill-rule:nonzero;stroke:none"
           d="m 12981.8,9502.02 c 0,0 -143,-329.03 -148,-650.09 -5,-320.97 45.1,-476.48 148,-712.25 102.7,-235.78 373.7,-491.64 373.7,-491.64 0,0 165.5,416.39 511.6,551.81 346.2,135.42 581.9,25.11 581.9,25.11 l 95.3,-220.8 c 0,0 311,-135.42 466.5,-210.66 155.5,-75.24 456.5,-115.33 456.5,-115.33 0,0 45.2,371.19 265.9,596.92 220.7,225.74 566.8,260.8 566.8,260.8 0,0 -185.6,411.37 -376.2,592 -190.6,180.56 -672.2,321.01 -727.3,346.09 -55.3,25.09 -200.7,150.49 -215.7,165.54 -15.1,15.05 -913.1,70.23 -1083.6,75.24 -170.5,5.03 -915.4,-212.74 -915.4,-212.74" /></g><g
         transform="scale(1.01562)"
         id="g80"><path
           id="path82"
           style="fill:#e9eef1;fill-opacity:1;fill-rule:nonzero;stroke:none"
           d="m 13915.6,14007.1 -308,-180.5 c 0,0 148.7,-509.8 116.8,-1051.5 -31.9,-541.7 -318.6,-1040.9 -318.6,-1040.9 0,0 400.9,-966.5 385,-1173.6 -16,-207.1 -55.7,-461.1 -47.8,-501.4 8,-40.3 645.3,-159.75 1218.8,-151.78 573.5,7.97 955.9,191.18 977.1,207.08 21.2,16 53.1,148.7 42.5,191.2 -10.7,42.5 2,249.6 2,249.6 0,0 29.9,706.3 114.8,908.1 85,201.8 127.5,276.1 159.4,663.8 31.8,387.7 42.4,600.1 42.4,600.1 0,0 -323.9,361.1 -403.6,669.1 -79.7,308 -42.4,669.1 -42.4,669.1 l -217.8,63.8 -1720.6,-122.2" /></g><path
         id="path84"
         style="fill:#c37140;fill-opacity:1;fill-rule:nonzero;stroke:none"
         d="m 14429.3,14859.8 c 0,0 41.6,-303.1 12.6,-417.8 -10.9,-43.1 -308.9,-216.1 -308.9,-216.1 0,0 366.7,-1170.4 1070.6,-1186.5 703.8,-16.2 625.8,1336.1 625.8,1336.1 l -412.8,206.4 c 0,0 -644,635.2 -807.4,689.8 -163.4,54.5 -228.1,156.9 -212,49.1 16.2,-107.9 32.1,-461 32.1,-461" /><path
         id="path86"
         style="fill:#9d4a30;fill-opacity:1;fill-rule:nonzero;stroke:none"
         d="m 14597,14754.6 c 0,0 124.4,-350.7 385.4,-512.5 261.1,-161.8 439.6,-38.4 439.6,-38.4 l 121.3,211 c 0,0 -442.1,275.2 -536.5,339.9 -94.5,64.6 -409.8,0 -409.8,0" /><g
         transform="scale(1.02331)"
         id="g88"><path
           id="path90"
           style="fill:#100f0d;fill-opacity:1;fill-rule:nonzero;stroke:none"
           d="m 15249.9,9052.85 c -205.6,258.28 -458.6,411.12 -458.6,411.12 0,0 179.2,-268.74 247.7,-368.9 68.5,-100.17 142.4,-453.24 142.4,-453.24 l 100,-231.99 c 0,0 326.8,-142.28 490.2,-221.34 163.4,-79.05 479.6,-121.17 479.6,-121.17 0,0 11.2,91.08 48.8,211.96 -371.1,125.47 -868,544.7 -1050.1,773.56" /></g><path
         id="path92"
         style="fill:#9d4a30;fill-opacity:1;fill-rule:nonzero;stroke:none"
         d="m 15184.7,3537.9 c -18,95.3 -62.9,147.4 -62.9,147.4 0,0 21.5,-102.4 26.9,-129.4 5.4,-27 14.4,-109.7 14.4,-109.7 0,0 13.8,-13 36.9,-24 -4,33 -7.4,73.4 -15.3,115.7" /><path
         id="path94"
         style="fill:#9d4a30;fill-opacity:1;fill-rule:nonzero;stroke:none"
         d="m 15283.6,3685.3 c -14.4,27 30.5,-267.8 30.5,-267.8 0,0 26.6,-29 59,-39.5 -34.3,94.8 -78.7,287 -89.5,307.3" /><path
         id="path96"
         style="fill:#9d4a30;fill-opacity:1;fill-rule:nonzero;stroke:none"
         d="m 15409.4,3656.6 c -3.6,7.2 39.6,-266.1 39.6,-266.1 0,0 24.3,-7.2 59.4,-12 -34.6,79.8 -96,272.1 -99,278.1" /><path
         id="path98"
         style="fill:#9d4a30;fill-opacity:1;fill-rule:nonzero;stroke:none"
         d="m 15574.8,3670.9 71.9,-255.2 c 0,0 51.3,-78 122.9,-69.6 -119,129.8 -194.8,324.8 -194.8,324.8" /><g
         transform="scale(1.12613)"
         id="g100"><path
           id="path102"
           style="fill:#9d4a30;fill-opacity:1;fill-rule:nonzero;stroke:none"
           d="m 16210.6,3641.31 58.3,-186.4 c 0,0 17.5,-2.3 31.1,10.75 l -89.4,175.65" /></g><g
         transform="scale(1.12149)"
         id="g104"><path
           id="path106"
           style="fill:#9d4a30;fill-opacity:1;fill-rule:nonzero;stroke:none"
           d="m 16191.2,3634 83.7,-214.09 c 0,0 12.3,3.93 25.1,11.06 L 16191.2,3634" /></g><g
         transform="scale(1.10861)"
         id="g108"><path
           id="path110"
           style="fill:#9d4a30;fill-opacity:1;fill-rule:nonzero;stroke:none"
           d="m 16238.3,3469.4 c -24.4,59.26 -133.1,216.48 -133.1,216.48 0,0 45.5,-142.7 86,-212.42 40.6,-69.73 46.7,-115.92 46.7,-115.92 0,0 36.5,-6.13 62.1,-6.13 -20.5,33.65 -47.2,82.63 -61.7,117.99" /></g><g
         transform="scale(1.1158)"
         id="g112"><path
           id="path114"
           style="fill:#9d4a30;fill-opacity:1;fill-rule:nonzero;stroke:none"
           d="m 16170.7,3662.13 96.7,-287.59 c 0,0 14.9,0.8 32.6,9.95 -44,91.32 -129.3,277.64 -129.3,277.64" /></g><path
         id="path116"
         style="fill:#b5b5b4;fill-opacity:1;fill-rule:nonzero;stroke:none"
         d="m 10729.7,9625.3 2346.1,291.2 v -477.3 l -2346.1,-245.4 v 431.5" /><path
         id="path118"
         style="fill:#d4d4d2;fill-opacity:1;fill-rule:nonzero;stroke:none"
         d="m 10620,9803.3 v -455.8 l 109.7,-153.7 v 431.5 l -109.7,178" /><path
         id="path120"
         style="fill:#3c3c3d;fill-opacity:1;fill-rule:nonzero;stroke:none"
         d="m 12797.5,9818.9 c -309.8,122.7 -644.9,10.4 -748.3,-250.9 l -86.6,-218.6 65.8,-37.1 c 37.7,-183.8 182.7,-355.7 394.4,-439.5 208.7,-82.6 428.7,-58.6 581.8,45.7 47.8,-8.1 80,-13.5 80,-13.5 l 86.6,218.6 c 103.4,261.3 -63.8,572.6 -373.7,695.3" /><path
         id="path122"
         style="fill:#494a4b;fill-opacity:1;fill-rule:nonzero;stroke:none"
         d="m 13084.6,8905 c -103.5,-261.2 -438.5,-373.5 -748.4,-250.8 -309.8,122.7 -477.1,433.9 -373.6,695.2 103.4,261.2 438.5,373.5 748.3,250.8 309.9,-122.7 477.2,-433.9 373.7,-695.2" /><path
         id="path124"
         style="fill:#a5a5a4;fill-opacity:1;fill-rule:nonzero;stroke:none"
         d="m 12476.4,9213.6 c 0,0 143.9,-52.1 178.9,-92.6 l -107.9,-515 c 0,0 -183.3,159.3 -221.1,217.1 -37.7,57.9 150.1,390.5 150.1,390.5" /><path
         id="path126"
         style="fill:#c37140;fill-opacity:1;fill-rule:nonzero;stroke:none"
         d="m 13820.1,14042.5 -204.9,-57.5 c 0,0 -455.6,-25.2 -657,-323.6 -201.3,-298.5 -244.5,-794.6 -244.5,-794.6 0,0 -75.5,-244.5 -100.6,-507 -25.2,-262.5 -39.6,-661.6 -39.6,-661.6 0,0 -158.2,-330.8 -215.7,-607.7 -57.6,-276.8 -190.6,-1628.8 -190.6,-1628.8 l -187,-658 676,-255.3 c 0,0 122.3,71.9 143.8,115.1 21.6,43.1 36,233.7 10.8,244.5 -25.2,10.8 -119.7,-39.6 -119.7,-39.6 0,0 -49.3,97.1 -88.8,152.8 -39.6,55.8 -89.9,121.5 -89.9,121.5 l 14.4,110.5 c 0,0 77.3,426 276.8,663.3 199.6,237.4 453.1,737.2 436.9,1253.1 0,0 188.5,327.8 374.7,747.9 0,0 247.1,405.9 319.1,998.5 72.1,592.6 -114.2,1126.5 -114.2,1126.5" /><path
         id="path128"
         style="fill:#9d4a30;fill-opacity:1;fill-rule:nonzero;stroke:none"
         d="m 13615.2,11917.5 c 0,0 56.8,288.6 -80.8,838.7 0,0 166.2,-276.4 284,-366 0,0 -55,-230 -203.2,-472.7" /><path
         id="path130"
         style="fill:#b05f3b;fill-opacity:1;fill-rule:nonzero;stroke:none"
         d="m 12800,8663.5 c 21.6,43.1 36,233.7 10.8,244.5 -25.2,10.8 -119.7,-39.6 -119.7,-39.6 l 48.4,-264.5 c 26.8,20.2 51.8,42.2 60.5,59.6" /><path
         id="path132"
         style="fill:#da8155;fill-opacity:1;fill-rule:nonzero;stroke:none"
         d="m 12591.7,12072.7 125.6,421.9 c 0,0 64.8,-145.6 64.8,-129.4 0,16.2 -68.4,501.6 124,954.6 192.4,453.1 436.9,609 436.9,609 v 0.1 c -134.7,-44.9 -288.7,-125.1 -384.8,-267.5 -201.3,-298.5 -244.5,-794.6 -244.5,-794.6 0,0 -75.5,-244.5 -100.6,-507 -8.4,-87.2 -15.6,-189.4 -21.4,-287.1 v 0" /><g
         transform="scale(1.05837)"
         id="g134"><path
           id="path136"
           style="fill:#c37140;fill-opacity:1;fill-rule:nonzero;stroke:none"
           d="m 16215.1,12368.3 -124.9,-160.2 c 0,0 2.6,-129.1 36.5,-115.5 34,13.6 167.2,57.1 170.3,105 3,47.9 -81.9,170.7 -81.9,170.7" /></g><path
         id="path138"
         style="fill:#9d4a30;fill-opacity:1;fill-rule:nonzero;stroke:none"
         d="m 12691.1,11295.5 c 0,0 150.5,-118.7 274.5,-125.9 0,0 -219.8,-145.6 -274.5,125.9" /><g
         transform="scale(1.15375)"
         id="g140"><path
           id="path142"
           style="fill:#3c3c3d;fill-opacity:1;fill-rule:nonzero;stroke:none"
           d="m 16036.3,11994.1 c -182.7,213.8 -397.4,330.1 -480,259.7 l -340,-255.3 661.2,-774.4 340,255.3 c 82.5,70.4 1.3,300.9 -181.2,514.7" /></g><g
         transform="scale(1.12968)"
         id="g144"><path
           id="path146"
           style="fill:#494a4b;fill-opacity:1;fill-rule:nonzero;stroke:none"
           d="m 16030.6,11988.9 c 186.5,-218.4 269.4,-453.7 185.1,-525.6 -84.2,-71.9 -303.6,46.8 -490,265.2 -186.5,218.4 -269.4,453.7 -185.2,525.6 84.3,71.9 303.7,-46.8 490.1,-265.2" /></g><g
         transform="scale(1.10845)"
         id="g148"><path
           id="path150"
           style="fill:#a5a5a4;fill-opacity:1;fill-rule:nonzero;stroke:none"
           d="m 16136.8,12169.8 -736.9,-552.6 -22.1,-16.7 -14.6,-155.7 c 17.1,-36.5 255.6,-51.8 255.6,-51.8 l 681.2,582.7 c -14.8,145.5 -163.2,194.1 -163.2,194.1" /></g><g
         transform="scale(1.10728)"
         id="g152"><path
           id="path154"
           style="fill:#c37140;fill-opacity:1;fill-rule:nonzero;stroke:none"
           d="m 15631.9,11347.4 c -6.4,38.9 26,155.8 19.5,194.8 -6.5,39 -74.7,125.7 -113.6,153 -39,27.2 -39,93 -39,93 0,0 -46.3,13 -41.4,50.3 4.9,37.3 58.4,69 58.4,69 0,0 20.2,53.7 53.9,75.5 33.8,21.9 124,34.1 124,34.1 0,0 48.6,75.3 107.1,81.5 58.4,6.2 197.3,-10.9 219.1,-23.1 22,-12.1 207.9,-239.4 244,-313.3 36.1,-73.9 6.9,-161.6 -32.1,-205.4 -38.9,-43.8 -299.5,-389.7 -299.5,-389.7 0,0 -382.3,-26.8 -409.2,17.1 -26.8,43.8 108.8,163.2 108.8,163.2" /></g><g
         transform="scale(1.0823)"
         id="g156"><path
           id="path158"
           style="fill:#9d4a30;fill-opacity:1;fill-rule:nonzero;stroke:none"
           d="m 16113.2,12174.9 c 49.8,-19.9 186.8,-147 186.8,-147 0,0 -77.9,139.5 -156.1,171.9 -56.9,23.6 -177.9,30.1 -241.6,33.8 -13.1,-17.4 -22.1,-36.4 -26,-45.6 57.3,1.3 197.5,2.6 236.9,-13.1" /></g><g
         transform="scale(1.07287)"
         id="g160"><path
           id="path162"
           style="fill:#9d4a30;fill-opacity:1;fill-rule:nonzero;stroke:none"
           d="m 16300,11987.8 c 0,0 -114.7,167.6 -150.3,184.4 -35.6,16.7 -153.8,-5.9 -153.8,-5.9 0,0 0.1,-15.8 4.5,-35.3 0,0 123.7,7.4 158.9,-25.1 35.2,-32.5 140.7,-118.1 140.7,-118.1" /></g><g
         transform="scale(1.09206)"
         id="g164"><path
           id="path166"
           style="fill:#9d4a30;fill-opacity:1;fill-rule:nonzero;stroke:none"
           d="m 16089.8,12162.4 c 79.3,-27.2 210.2,-204.1 210.2,-204.1 0,0 -123.4,189.3 -158,216.4 -19.1,15 -95.2,50.2 -159.7,78.8 -40.5,-23.6 -69.9,-68.9 -69.9,-68.9 0,0 98.1,4.9 177.4,-22.2" /></g><g
         transform="scale(1.04475)"
         id="g168"><path
           id="path170"
           style="fill:#9d4a30;fill-opacity:1;fill-rule:nonzero;stroke:none"
           d="m 16300,11497.4 -296,-410.4 61.1,247.8 -160,263.3 394.9,-100.7" /></g><path
         id="path172"
         style="fill:#3c3c3d;fill-opacity:1;fill-rule:nonzero;stroke:none"
         d="m 12478,8849.4 c -309.8,122.7 -644.9,10.4 -748.3,-250.9 l -86.6,-218.6 65.8,-37.1 c 37.7,-183.8 182.8,-355.7 394.4,-439.5 208.7,-82.6 428.7,-58.5 581.8,45.7 47.8,-8.1 80,-13.5 80,-13.5 l 86.6,218.7 c 103.5,261.2 -63.8,572.5 -373.7,695.2" /><path
         id="path174"
         style="fill:#494a4b;fill-opacity:1;fill-rule:nonzero;stroke:none"
         d="m 12765.1,7935.5 c -103.5,-261.2 -438.5,-373.5 -748.4,-250.8 -309.8,122.7 -477.1,433.9 -373.6,695.2 103.5,261.2 438.5,373.5 748.3,250.8 309.9,-122.7 477.2,-433.9 373.7,-695.2" /><path
         id="path176"
         style="fill:#a5a5a4;fill-opacity:1;fill-rule:nonzero;stroke:none"
         d="m 12277.4,8081.8 c -8,-29.4 -51.2,-43.3 -96.5,-30.9 -45.2,12.4 -75.4,46.3 -67.3,75.8 8,29.4 51.3,43.2 96.5,30.9 45.3,-12.4 75.4,-46.3 67.3,-75.8" /><g
         transform="scale(1.0755)"
         id="g178"><path
           id="path180"
           style="fill:#3c3c3d;fill-opacity:1;fill-rule:nonzero;stroke:none"
           d="m 16017.1,11870.7 c -195.9,229.4 -426.4,354.1 -514.9,278.6 l -364.7,-273.8 709.3,-830.8 364.7,273.9 c 88.5,75.5 1.5,322.7 -194.4,552.1" /></g><g
         transform="scale(1.05143)"
         id="g182"><path
           id="path184"
           style="fill:#494a4b;fill-opacity:1;fill-rule:nonzero;stroke:none"
           d="m 16010.6,11862.3 c 200.4,-234.6 289.4,-487.5 199,-564.7 -90.6,-77.3 -326.4,50.3 -526.7,284.9 -200.4,234.7 -289.4,487.5 -198.9,564.8 90.5,77.2 326.3,-50.3 526.6,-285" /></g><g
         transform="scale(1.02659)"
         id="g186"><path
           id="path188"
           style="fill:#a5a5a4;fill-opacity:1;fill-rule:nonzero;stroke:none"
           d="m 16268,12020.8 c 27,-36 32,-77.9 11.2,-93.5 -21,-15.7 -59.8,0.7 -86.8,36.7 -27,35.9 -32,77.8 -11,93.5 20.8,15.7 59.6,-0.8 86.6,-36.7" /></g><g
         transform="scale(1.02479)"
         id="g190"><path
           id="path192"
           style="fill:#2f1d16;fill-opacity:1;fill-rule:nonzero;stroke:none"
           d="m 15154.6,16160.5 c -264.7,139.5 -538.3,103.1 -681.8,63.2 -143.5,-40 -375.2,-134.2 -375.2,-134.2 -59.9,-26 -120.8,-55.6 -156.5,-97.2 -57.1,-66.5 -65.6,-129.3 -65.6,-129.3 0,0 -206.6,-41.3 -217.9,-328.5 -11.4,-287.2 70.1,-514.4 138.8,-672.3 68.6,-157.9 283.9,-361.8 283.9,-361.8 l 280,301.3 c 194,-78.7 275.7,505.2 249.9,552.5 -16.3,30 565.4,183.1 565.4,183.1 l 134.1,73.5 c 0,0 58.1,184.2 -28.9,379.5 -27.4,61.4 -74.5,119.4 -126.2,170.2" /></g><path
         id="path194"
         style="fill:#c37140;fill-opacity:1;fill-rule:nonzero;stroke:none"
         d="m 15607.4,16100.6 c 0,0 65.9,-73.4 81.8,-102.9 15.9,-29.5 47.3,-305.7 57.1,-375.5 9.9,-69.7 -0.9,-166.1 1.7,-200 2.6,-33.9 23,-241.6 20.2,-323.7 -2.9,-82.1 -69.1,-405.6 -92.1,-491.6 -23,-85.9 -57.5,-200 -96.5,-225.7 -39,-25.7 -216.9,-48.4 -378.9,-13 -161.9,35.4 -487.8,222 -579.9,326.4 -92.1,104.4 -98.5,335.9 -98.5,335.9 0,0 -64.2,-23.1 -137.2,39.6 -73,62.7 -192.8,201.3 -182.6,365.9 10.2,164.5 139,115.2 207.3,54.5 68.4,-60.7 78.2,-160.1 92,-161.3 13.7,-1.2 26.9,4.4 33.6,7.1 6.6,2.8 25.4,172.6 25.1,206.7 -0.3,34.1 -22.7,237.1 -18.7,244.2 4,7.1 157,223.5 209.7,248 52.7,24.5 855.9,65.4 855.9,65.4" /><path
         id="path196"
         style="fill:#2f1d16;fill-opacity:1;fill-rule:nonzero;stroke:none"
         d="m 14544.1,15378.3 c 0,0 13.7,109 42.7,175.2 29,66.2 4.3,103 8.3,174.2 4,71.1 98,97 111.2,189.8 13.2,92.8 94.3,127.2 94.3,127.2 0,0 -89.6,69.7 -99.1,61.6 -9.6,-8.1 -193.5,-89.9 -242.8,-168.1 -49.3,-78.2 -111.6,-69.9 -73.9,-193.2 37.7,-123.2 159.3,-366.7 159.3,-366.7" /><g
         transform="scale(1.02569)"
         id="g198"><path
           id="path200"
           style="fill:#2f1d16;fill-opacity:1;fill-rule:nonzero;stroke:none"
           d="m 14078.5,15754.2 c -17.3,-3.7 -283.4,39.8 -283.4,39.8 0,0 72.6,165.9 141.4,218.6 68.7,52.7 175.7,131 175.7,131 0,0 102.1,73.5 167.8,81 65.8,7.5 132.7,6 132.7,6 0,0 77.3,66.7 175.5,60.5 98.1,-6.1 123.4,-25.6 143.4,-28.1 20,-2.6 86.2,37 176.2,19.3 90,-17.7 124.4,-65.3 141.2,-68.7 16.9,-3.3 97.3,-10.2 141,-40.8 43.7,-30.5 72.8,-49.2 80.8,-99.2 8,-49.9 61.8,-72.5 87.4,-120.3 25.6,-47.9 -1.7,-77.6 -7,-135 -5.5,-57.3 -12.4,-131.9 -54.9,-221.2 0,0 -36.8,171.1 -42,174.1" /></g><path
         id="path202"
         style="fill:#252323;fill-opacity:1;fill-rule:nonzero;stroke:none"
         d="m 1579.97,9803.3 c -2.69,13.5 0,169.9 0,169.9 h 64.73 l 105.17,-169.9 c 0,0 -21.58,-27 -64.72,-37.8 -43.15,-10.8 -105.18,37.8 -105.18,37.8" /><path
         id="path204"
         style="fill:#b5b5b4;fill-opacity:1;fill-rule:nonzero;stroke:none"
         d="m 1664.32,9897.7 -19.62,75.5 272.36,21.6 83.6,-172.6 c 0,0 -237.31,-83.6 -250.79,-75.5 -13.49,8 -64.72,35 -64.72,43.1 0,8.1 -20.83,107.9 -20.83,107.9" /><path
         id="path206"
         style="fill:#b5b5b4;fill-opacity:1;fill-rule:nonzero;stroke:none"
         d="m 5892.03,5634.2 819.8,86.3 -134.84,323.6 h -97.08 l -5.39,544.7 70.11,59.3 -4.74,647.2 171.94,91.7 v 453.1 l -652.6,-97.1 c 0,0 -231.92,-97.1 -258.89,-280.5 -26.97,-183.3 -26.97,-129.4 -32.36,-614.8 -5.39,-485.4 124.05,-1213.5 124.05,-1213.5" /><path
         id="path208"
         style="fill:#3e3d3f;fill-opacity:1;fill-rule:nonzero;stroke:none"
         d="m 6037.65,6869.3 c 26.97,10.7 504.81,75.4 504.81,75.4 l -2.57,350.6 -674.83,-70.1 172.59,-355.9" /><path
         id="path210"
         style="fill:#8f908f;fill-opacity:1;fill-rule:nonzero;stroke:none"
         d="m 1410.08,9235.2 183.38,-327.2 366.75,37.3 v 75.9 l -154.61,312.9 -395.52,-98.9" /><path
         id="path212"
         style="fill:#8f908f;fill-opacity:1;fill-rule:nonzero;stroke:none"
         d="m 1288.73,9636.1 -36.86,167.2 3439.13,373.9 30.65,-373.9 c 0,0 134.84,-815.3 26.97,-858 -107.87,-42.7 -275.8,-123.9 -318.58,-96.8 -42.78,27.1 -598.3,766 -679.21,776.8 -80.9,10.8 -1429.26,-53.9 -1736.68,-70.1 -307.43,-16.2 -697.55,-75.5 -707.44,-56.6 -9.89,18.8 -17.98,137.5 -17.98,137.5" /><path
         id="path214"
         style="fill:#a5a5a4;fill-opacity:1;fill-rule:nonzero;stroke:none"
         d="m 3815.55,11130.1 172.59,-1014 604.07,-1094.9 c 0,0 -102.48,685 -102.48,701.2 0,16.2 -442.26,722.8 -442.26,722.8 l -129.44,803.5 -102.48,-118.6" /><path
         id="path216"
         style="fill:#b5b5b4;fill-opacity:1;fill-rule:nonzero;stroke:none"
         d="m 3537.79,9641.5 169.9,-202.3 1633.7,-2718.3 -12.25,517.8 -1734.72,3163.3 -131.24,767.6 -140.23,-25.2 129.45,-801.8 56.79,-450.7 28.6,-250.4" /><path
         id="path218"
         style="fill:#3e3d3f;fill-opacity:1;fill-rule:nonzero;stroke:none"
         d="m 4656.93,9193.8 c 0,0 -291.24,-118.6 -302.03,-183.4 -10.79,-64.7 -48.54,-285.8 0,-366.7 48.54,-80.9 1272.85,-1078.7 1472.41,-1094.9 199.56,-16.2 1067.9,140.3 1116.44,210.4 48.54,70.1 0,814.4 0,814.4 0,0 -1386.12,695.8 -1666.57,760.5 -280.46,64.7 -620.25,-140.3 -620.25,-140.3" /><path
         id="path220"
         style="fill:#bebdbb;fill-opacity:1;fill-rule:nonzero;stroke:none"
         d="m 6963.45,8139.2 c -0.81,32.9 -1.84,65.9 -3,98.4 l 4.87,-98.2 -1.87,-0.2" /><path
         id="path222"
         style="fill:#2e2d2d;fill-opacity:1;fill-rule:nonzero;stroke:none"
         d="m 5865.06,8023.4 c 0,0 26.97,318.3 53.93,598.7 18.96,197.1 133.78,226.4 219.1,226.4 36.09,0 66.9,-5.2 82.94,-5.2 53.93,0 722.72,-269.7 722.72,-269.7 l 16.7,-336 c 1.16,-32.5 2.19,-65.5 3,-98.4 L 5865.06,8023.4" /><path
         id="path224"
         style="fill:#3c3c3d;fill-opacity:1;fill-rule:nonzero;stroke:none"
         d="m 8092.62,10055 -316.55,236.3 c -152.17,121.3 -434.64,19.9 -630.91,-226.4 -196.27,-246.3 -232.02,-544.2 -79.85,-665.5 152.18,-121.3 434.65,-19.9 630.92,226.4 17.97,22.5 59.29,-20 99.34,-62.6 40.37,-42.8 79.45,-85.7 92.03,-61.9 34.77,11.7 70.11,248.1 70.11,248.1 l 134.91,305.6" /><path
         id="path226"
         style="fill:#c37140;fill-opacity:1;fill-rule:nonzero;stroke:none"
         d="m 6733.4,14285.2 c 0,0 668.79,-10.8 922.29,-393.7 253.48,-382.9 75.5,-968 75.5,-968 0,0 102.48,-509.8 102.48,-849.6 0,0 226.52,-285.8 275.06,-749.7 48.55,-463.8 248.1,-1380.7 248.1,-1380.7 l 183.38,-399.1 c 0,0 -124.05,-323.6 -151.02,-329 -26.97,-5.4 -384.93,-68.2 -400.91,-72.8 -15.98,-4.6 -100.68,358.7 -100.68,358.7 0,0 10.79,296.6 43.15,372.1 32.36,75.5 57.53,97.1 57.53,97.1 0,0 -170.8,291.2 -418.89,566.3 -248.1,275.1 -431.48,889.9 -431.48,889.9 l -226.52,738.9 c 0,0 -546.75,1409.5 -496.2,1531.8 50.55,122.2 318.21,587.8 318.21,587.8" /><path
         id="path228"
         style="fill:#aa5735;fill-opacity:1;fill-rule:nonzero;stroke:none"
         d="m 7924.83,9348.2 c -20.21,80.1 -37.23,153.1 -37.23,153.1 0,0 2.12,58 7.27,129.3 11.04,-0.5 23.09,-0.9 35.22,-0.9 10.56,0 21.17,0.3 31.22,1 50.34,3.6 176.19,89.9 176.19,89.9 0,0 0,0 -39.56,-97.1 -39.54,-97.1 -14.37,-190.6 -14.37,-190.6 l -131.25,-63.3 c 0,0 -10.25,-7.6 -27.49,-21.4" /><path
         id="path230"
         style="fill:#e8ad8f;fill-opacity:1;fill-rule:nonzero;stroke:none"
         d="m 7731.73,12920.8 c -0.01,0 -0.01,0 -0.02,0.1 0.01,-0.1 0.01,-0.1 0.02,-0.1 m -0.27,1.3 c -0.04,0.2 -0.07,0.4 -0.1,0.5 0.03,-0.1 0.06,-0.3 0.1,-0.5 m -0.1,0.6 c -0.01,0 -0.02,0 -0.03,0.1 0.01,-0.1 0.02,-0.1 0.03,-0.1 m -0.03,0.1 c -0.01,0.1 -0.03,0.1 -0.04,0.2 0.01,-0.1 0.03,-0.1 0.04,-0.2 m -0.05,0.3 c 0,0 -0.01,0 -0.01,0 0,0 0.01,0 0.01,0 m -0.03,0.1 c -0.01,0 -0.01,0 -0.01,0.1 0,-0.1 0,-0.1 0.01,-0.1 m -0.03,0.1 v 0 0 m -0.01,0.1 c -0.01,0 -0.01,0 -0.01,0 0,0 0,0 0.01,0 m -0.01,0 v 0 0 m -0.01,0.1 c 0,0 0,0 0,0 0,0 0,0 0,0" /><path
         id="path232"
         style="fill:#d27c4e;fill-opacity:1;fill-rule:nonzero;stroke:none"
         d="m 7825.87,12257.5 h -0.04 l -129.7,599 -83.59,-65.2 c 0,0 91.69,323.6 83.59,668.7 -5.6,239.2 -87.27,423.6 -152.02,557.6 42.21,-36.7 80.1,-78.5 111.57,-126.1 213.14,-322 121.24,-786.9 86.58,-926.7 -6.56,-26.5 -11.07,-41.3 -11.07,-41.3 v 0 0 0 c 0,0 0,0 0,0 0,0 0,0 0.01,-0.1 v 0 c 0,0 0,0 0,0 0,0 0,0 0.01,0 0,0 0.01,0 0.01,-0.1 v 0 c 0.01,0 0.01,0 0.02,0 0,-0.1 0,-0.1 0.01,-0.1 0.01,0 0.01,-0.1 0.02,-0.1 0,0 0.01,0 0.01,0 0,-0.1 0,-0.1 0.01,-0.1 0.01,-0.1 0.03,-0.1 0.04,-0.2 v 0 c 0.01,-0.1 0.02,-0.1 0.03,-0.1 0,-0.1 0,-0.1 0,-0.1 0.03,-0.1 0.06,-0.3 0.1,-0.5 0.07,-0.3 0.15,-0.7 0.25,-1.2 0.01,-0.1 0.01,-0.1 0.02,-0.1 6.55,-33.1 71.44,-365.3 94.14,-663.3" /><path
         id="path234"
         style="fill:#9d4a30;fill-opacity:1;fill-rule:nonzero;stroke:none"
         d="m 7186.45,12926.1 v 501.6 l -137.53,-431.5 z" /><path
         id="path236"
         style="fill:#9d4a30;fill-opacity:1;fill-rule:nonzero;stroke:none"
         d="m 7421.07,11607.4 c 0,0 129.44,83.5 275.06,106.5 0,0 -202.25,144.3 -275.06,-106.5" /><path
         id="path238"
         style="fill:#3c3c3d;fill-opacity:1;fill-rule:nonzero;stroke:none"
         d="m 9134.18,9302.5 -316.54,236.3 c -152.18,121.3 -434.65,19.9 -630.92,-226.4 -196.27,-246.3 -232.02,-544.2 -79.85,-665.5 152.18,-121.3 434.65,-19.9 630.92,226.4 36.09,45.3 66.71,92.3 91.77,139.7 34.78,11.7 58.52,21.7 58.52,21.7 l 246.1,267.8" /><path
         id="path240"
         style="fill:#494a4b;fill-opacity:1;fill-rule:nonzero;stroke:none"
         d="m 9054.33,8637 c -196.27,-246.3 -478.74,-347.7 -630.91,-226.4 -152.18,121.3 -116.43,419.2 79.84,665.5 196.27,246.3 478.74,347.7 630.92,226.4 152.17,-121.2 116.42,-419.2 -79.85,-665.5" /><path
         id="path242"
         style="fill:#c37140;fill-opacity:1;fill-rule:nonzero;stroke:none"
         d="m 7261.96,8255.4 269.67,-32.4 c 0,0 -64.72,-496.2 -59.32,-836 5.39,-339.8 204.95,-857.5 302.03,-1197.3 97.08,-339.8 145.62,-703.9 148.32,-795.6 2.69,-91.6 -29.67,-240 -29.67,-299.3 0,-59.3 5.4,-89 5.4,-89 0,0 -86.3,-183.4 -37.76,-320.9 48.54,-137.5 183.38,-207.6 204.95,-250.8 21.58,-43.1 67.42,-315.5 110.57,-426.1 43.15,-110.5 102.48,-169.9 102.48,-169.9 0,0 35.05,-168.5 161.8,-180.6 126.74,-12.2 192.81,64.7 192.81,64.7 0,0 72.82,-12.2 91.69,-4.1 18.88,8.1 57.98,47.2 57.98,47.2 0,0 25.62,1.4 51.24,20.3 25.62,18.8 49.89,49.8 49.89,49.8 0,0 39.1,12.2 53.93,33.8 14.83,21.5 14.83,21.5 14.83,21.5 0,0 48.55,-6.7 52.59,58 4.05,64.7 -59.33,200.9 -59.33,200.9 0,0 41.8,-14.8 -146.97,222.5 -188.77,237.3 -299.33,493.5 -315.51,587.9 -16.18,94.4 18.87,156.4 -13.49,280.4 -32.36,124.1 -37.75,620.3 59.33,1245.9 97.08,625.7 -21.57,1148.8 -64.72,1467 -43.15,318.2 5.39,555.6 -48.54,738.9 -53.94,183.4 -258.89,485.4 -258.89,485.4 0,0 -485.41,161.9 -555.52,156.5 -70.12,-5.4 -544.74,172.5 -620.25,-221.2 -75.5,-393.7 280.46,-857.5 280.46,-857.5" /><path
         id="path244"
         style="fill:#c37140;fill-opacity:1;fill-rule:nonzero;stroke:none"
         d="m 4991.32,8223 261.59,-199.5 c 0,0 -150.12,-607.7 -200.46,-1060.8 -50.34,-453 186.97,-981.6 291.25,-1387.9 104.27,-406.3 82.69,-809 89.89,-852.1 7.19,-43.2 28.76,-133.1 28.76,-133.1 0,0 3.6,-735.3 41.35,-848.5 37.76,-113.3 132.14,-172.6 132.14,-172.6 0,0 54.83,-124.1 74.61,-134.9 19.77,-10.8 84.5,12.6 84.5,12.6 0,0 32.36,-30.5 80.9,-37.7 48.54,-7.2 70.11,9 70.11,9 0,0 39.56,-43.2 80.9,-43.2 41.35,0 53.94,16.2 53.94,16.2 0,0 48.54,-14.4 107.87,-16.2 59.33,-1.8 89.89,41.4 89.89,41.4 0,0 89.89,-136.7 197.76,-28.8 107.87,107.9 -19.78,244.5 -48.54,320 -28.77,75.5 -48.54,242.7 -138.43,386.5 -89.9,143.9 -248.1,456.7 -226.53,661.6 21.57,205 -50.34,284.1 -71.91,388.4 -21.58,104.2 -71.91,528.5 35.95,992.3 107.87,463.9 124.05,852.2 91.69,1208.2 -32.36,355.9 -16.18,510.6 70.12,791 86.29,280.5 80.9,471 80.9,471 0,0 70.11,377.6 53.93,399.2 -16.18,21.5 -124.05,167.2 -458.44,129.4 -334.39,-37.8 -749.69,129.4 -852.16,-215.7 -102.48,-345.2 -156.41,-446.5 -156.41,-446.5 L 4991.32,8223" /><path
         id="path246"
         style="fill:#9d4a30;fill-opacity:1;fill-rule:nonzero;stroke:none"
         d="m 5816.52,3537.9 c -17.98,95.3 -62.92,147.4 -62.92,147.4 0,0 21.57,-102.4 26.96,-129.4 5.4,-27 14.39,-109.7 14.39,-109.7 0,0 13.83,-13 36.88,-24 -3.96,33 -7.34,73.4 -15.31,115.7" /><path
         id="path248"
         style="fill:#9d4a30;fill-opacity:1;fill-rule:nonzero;stroke:none"
         d="m 5915.4,3685.3 c -14.38,27 30.56,-267.8 30.56,-267.8 0,0 26.63,-29 59.02,-39.5 -34.35,94.8 -78.76,287 -89.58,307.3" /><path
         id="path250"
         style="fill:#9d4a30;fill-opacity:1;fill-rule:nonzero;stroke:none"
         d="m 6041.25,3656.6 c -3.6,7.2 39.55,-266.1 39.55,-266.1 0,0 24.3,-7.2 59.47,-12 -34.67,79.8 -96.06,272.1 -99.02,278.1" /><path
         id="path252"
         style="fill:#9d4a30;fill-opacity:1;fill-rule:nonzero;stroke:none"
         d="m 6206.65,3670.9 71.91,-255.2 c 0,0 51.32,-78 122.92,-69.6 -119.06,129.8 -194.83,324.8 -194.83,324.8" /><path
         id="path254"
         style="fill:#9d4a30;fill-opacity:1;fill-rule:nonzero;stroke:none"
         d="m 8887.18,4100.6 65.62,-209.9 c 0,0 19.7,-2.6 35.05,12.1 l -100.67,197.8" /><path
         id="path256"
         style="fill:#9d4a30;fill-opacity:1;fill-rule:nonzero;stroke:none"
         d="m 8790.1,4075.5 93.94,-240.1 c 0,0 13.82,4.4 28.15,12.4 l -122.09,227.7" /><path
         id="path258"
         style="fill:#9d4a30;fill-opacity:1;fill-rule:nonzero;stroke:none"
         d="m 8633.69,3846.2 c -26.96,65.7 -147.42,240 -147.42,240 0,0 50.34,-158.2 95.29,-235.5 44.94,-77.3 51.68,-128.5 51.68,-128.5 0,0 40.49,-6.8 68.91,-6.8 -22.74,37.3 -52.34,91.6 -68.46,130.8" /><path
         id="path260"
         style="fill:#9d4a30;fill-opacity:1;fill-rule:nonzero;stroke:none"
         d="m 8675.04,4086.2 107.87,-320.9 c 0,0 16.59,0.9 36.41,11.1 -49.03,101.9 -144.28,309.8 -144.28,309.8" /><g
         transform="scale(1.00114)"
         id="g262"><path
           id="path264"
           style="fill:#3e3d3f;fill-opacity:1;fill-rule:nonzero;stroke:none"
           d="m 5195.76,16300 c -26.95,0 -700.36,-91.6 -856.59,-264 -156.23,-172.4 29.64,-6545.5 45.8,-6658.68 16.16,-113.17 115.83,-193.98 115.83,-193.98 0,0 761.06,1497.66 822.28,1594.66 61.23,97 -127.32,5522 -127.32,5522" /></g><path
         id="path266"
         style="fill:#252323;fill-opacity:1;fill-rule:nonzero;stroke:none"
         d="m 4589.51,10216.4 c 0,0 -153.71,-353.8 -159.1,-699 -5.4,-345.1 48.54,-512.3 159.1,-765.8 110.57,-253.5 401.81,-528.6 401.81,-528.6 0,0 177.99,447.7 550.14,593.3 372.14,145.6 625.63,27 625.63,27 l 102.48,-237.4 c 0,0 334.39,-145.6 501.59,-226.5 167.2,-80.9 490.8,-124 490.8,-124 0,0 48.54,399.1 285.85,641.8 237.31,242.7 609.46,280.4 609.46,280.4 0,0 -199.55,442.3 -404.5,636.5 -204.96,194.1 -722.73,345.2 -782.05,372.1 -59.33,27 -215.74,161.8 -231.92,178 -16.18,16.2 -981.61,75.5 -1164.98,80.9 -183.38,5.4 -984.31,-228.7 -984.31,-228.7" /><path
         id="path268"
         style="fill:#e9eef1;fill-opacity:1;fill-rule:nonzero;stroke:none"
         d="m 4764.8,14225.9 -312.82,-183.4 c 0,0 151.02,-517.7 118.66,-1067.9 -32.37,-550.1 -323.61,-1057.1 -323.61,-1057.1 0,0 407.2,-981.6 391.02,-1191.9 -16.18,-210.4 -56.63,-468.3 -48.54,-509.2 8.09,-41 655.31,-162.3 1237.8,-154.2 582.49,8.1 970.82,194.1 992.39,210.3 21.57,16.2 53.93,151 43.15,194.2 -10.79,43.1 2.14,253.5 2.14,253.5 0,0 30.22,717.3 116.51,922.2 86.3,205 129.45,280.5 161.81,674.2 32.36,393.8 43.14,609.5 43.14,609.5 0,0 -329,366.7 -409.9,679.6 -80.9,312.8 -43.15,679.5 -43.15,679.5 l -272.18,90.3 -1696.42,-149.6" /><path
         id="path270"
         style="fill:#9d4a30;fill-opacity:1;fill-rule:nonzero;stroke:none"
         d="m 7311.81,8472.3 c 0,0 262.97,-152.2 284.55,-163 21.57,-10.8 129.44,0 129.44,0 l -194.17,-86.3 -269.67,32.4 c 0,0 -68.97,100 -88.15,132.6 -19.17,32.6 138,84.3 138,84.3" /><path
         id="path272"
         style="fill:#9d4a30;fill-opacity:1;fill-rule:nonzero;stroke:none"
         d="m 5304.14,8255.4 -51.23,-231.9 -95.27,72.6 c 0,0 60.21,8.3 146.5,159.3" /><path
         id="path274"
         style="fill:#c37140;fill-opacity:1;fill-rule:nonzero;stroke:none"
         d="m 5061.13,14859.8 c 0,0 41.66,-303.1 12.62,-417.8 -10.91,-43.1 -308.95,-216.1 -308.95,-216.1 0,0 366.75,-1170.4 1070.6,-1186.5 703.84,-16.2 625.82,1336.1 625.82,1336.1 l -412.78,206.4 c 0,0 -644.02,635.2 -807.42,689.8 -163.4,54.5 -228.12,156.9 -211.94,49.1 16.18,-107.9 32.05,-461 32.05,-461" /><path
         id="path276"
         style="fill:#9d4a30;fill-opacity:1;fill-rule:nonzero;stroke:none"
         d="m 5228.83,14754.6 c 0,0 110.93,-329.1 371.95,-490.9 261.03,-161.8 453.05,-60 453.05,-60 l 121.35,211 c 0,0 -442.12,275.2 -536.57,339.9 -94.46,64.6 -409.78,0 -409.78,0" /><path
         id="path278"
         style="fill:#100f0d;fill-opacity:1;fill-rule:nonzero;stroke:none"
         d="m 6237.21,9263.9 c -210.35,264.3 -469.23,420.7 -469.23,420.7 0,0 183.38,-275 253.49,-377.5 70.12,-102.5 145.63,-463.8 145.63,-463.8 l 102.47,-237.4 c 0,0 334.39,-145.6 501.59,-226.5 167.2,-80.9 490.8,-124 490.8,-124 0,0 11.34,93.2 49.85,216.9 -379.81,128.4 -888.18,557.4 -1074.6,791.6" /><path
         id="path280"
         style="fill:#b5b5b4;fill-opacity:1;fill-rule:nonzero;stroke:none"
         d="m 1361.54,9625.3 2346.15,291.2 V 9439.2 L 1361.54,9193.8 v 431.5" /><path
         id="path282"
         style="fill:#d4d4d2;fill-opacity:1;fill-rule:nonzero;stroke:none"
         d="m 1251.87,9803.3 v -455.8 l 109.67,-153.7 v 431.5 l -109.67,178" /><path
         id="path284"
         style="fill:#252323;fill-opacity:1;fill-rule:nonzero;stroke:none"
         d="m 1809.2,9103.5 c 0,-30.5 -41.05,-55.3 -91.69,-55.3 -50.64,0 -91.69,24.8 -91.69,55.3 0,30.5 41.05,55.3 91.69,55.3 50.64,0 91.69,-24.8 91.69,-55.3" /><path
         id="path286"
         style="fill:#b55f3d;fill-opacity:1;fill-rule:nonzero;stroke:none"
         d="m 4451.98,14042.5 -147.42,-64.7 c 0,0 -413.5,-21.6 -645.41,-291.2 -231.92,-269.7 -252.64,-995.5 -252.64,-995.5 0,0 -123.11,-671.1 -83.56,-1016.3 39.56,-345.2 665.19,-571.7 665.19,-571.7 l 151.02,66.5 c 0,0 69.58,61.8 142.78,269.7 73.21,207.8 38.24,366.6 38.24,366.6 0,0 97.79,235.9 78.84,439.8 0,0 146.45,272.3 171.62,728.9 25.16,456.7 -68.32,888.2 -118.66,1067.9" /><path
         id="path288"
         style="fill:#9d4a30;fill-opacity:1;fill-rule:nonzero;stroke:none"
         d="m 4399.02,12245.7 -151.99,750.5 265.57,-423.4 -57.57,-194.1 -56.01,-133" /><path
         id="path290"
         style="fill:#a5a5a4;fill-opacity:1;fill-rule:nonzero;stroke:none"
         d="m 3506.33,12939.5 1139.81,-522.2 -111.46,-240.9 -1190.15,542.9 161.8,220.2" /><path
         id="path292"
         style="fill:#c37140;fill-opacity:1;fill-rule:nonzero;stroke:none"
         d="m 3406.51,12691.1 c 0,0 -20.73,-137.2 0,-155.1 20.72,-18 74.65,-107.9 74.65,-107.9 0,0 21.58,-89.9 57.53,-169 35.96,-79.1 86.3,-176.2 86.3,-176.2 0,0 -309.23,-402.7 -366.76,-499.8 -57.53,-97.1 -43.15,-323.6 -21.57,-377.5 21.57,-54 107.87,-140.2 107.87,-140.2 0,0 208.54,-176.2 327.2,-190.6 118.65,-14.4 341.58,-36 431.48,197.7 89.88,233.8 0,550.2 0,589.7 0,39.6 -93.49,284.1 -93.49,284.1 0,0 174.39,163.6 251.69,230.1 77.31,66.5 136.64,429.7 124.05,467.4 -12.58,37.8 -83.01,47.3 -83.01,47.3 0,0 17.81,77 -1.73,98.4 -19.53,21.5 -102.23,28.7 -102.23,28.7 0,0 -70.12,73.7 -104.27,89.9 -34.16,16.2 -86.3,0 -86.3,0 0,0 -97.08,43 -133.04,31.4 -35.95,-11.6 -302.38,-324.2 -309.56,-320.9 -7.18,3.3 -158.81,72.5 -158.81,72.5" /><path
         id="path294"
         style="fill:#9d4a30;fill-opacity:1;fill-rule:nonzero;stroke:none"
         d="m 3783.19,12544.9 224.73,363.2 -39.21,15.4 z" /><path
         id="path296"
         style="fill:#9d4a30;fill-opacity:1;fill-rule:nonzero;stroke:none"
         d="m 4198.49,12818.2 -177.99,-311 139.28,349.3 z" /><path
         id="path298"
         style="fill:#9d4a30;fill-opacity:1;fill-rule:nonzero;stroke:none"
         d="m 4302.45,12691.1 c 0,0 -105.76,-331.3 -103.96,-311.5 1.8,19.7 140.03,302.3 140.03,302.3 l -36.07,9.2" /><path
         id="path300"
         style="fill:#a5a5a4;fill-opacity:1;fill-rule:nonzero;stroke:none"
         d="m 8850.59,8814 c -28.65,-34 -70.14,-46.3 -92.66,-27.3 -22.52,18.9 -17.55,61.9 11.11,95.9 28.65,34.1 70.13,46.3 92.65,27.4 22.52,-19 17.55,-62 -11.1,-96" /><path
         id="path302"
         style="fill:#3c3c3d;fill-opacity:1;fill-rule:nonzero;stroke:none"
         d="m 5305.7,12656.3 -447.41,199.4 c -37.18,16.6 -177.09,-216.3 -312.5,-520.1 -135.41,-303.8 -215.03,-563.6 -177.85,-580.1 l 447.4,-199.4 c 37.18,-16.6 177.1,216.3 312.5,520.1 135.41,303.8 215.04,563.5 177.86,580.1" /><path
         id="path304"
         style="fill:#3c3c3d;fill-opacity:1;fill-rule:nonzero;stroke:none"
         d="m 3639.19,13389.9 -447.4,199.4 c -37.19,16.6 -177.1,-216.3 -312.51,-520.1 -135.4,-303.8 -215.03,-563.5 -177.85,-580.1 l 447.4,-199.4 c 37.19,-16.6 177.1,216.3 312.51,520.1 135.41,303.8 215.03,563.5 177.85,580.1" /><g
         transform="scale(1.02479)"
         id="g306"><path
           id="path308"
           style="fill:#2f1d16;fill-opacity:1;fill-rule:nonzero;stroke:none"
           d="m 6029.54,16160.5 c -264.65,139.5 -538.24,103.1 -681.74,63.2 -143.49,-40 -375.18,-134.2 -375.18,-134.2 -59.97,-26 -120.85,-55.6 -156.54,-97.2 -57.06,-66.5 -65.58,-129.3 -65.58,-129.3 0,0 -206.59,-41.3 -217.94,-328.5 -11.35,-287.2 70.08,-514.4 138.75,-672.3 68.67,-157.9 267.41,-361.8 267.41,-361.8 l 296.58,301.3 c 193.97,-78.7 275.73,505.2 249.91,552.5 -16.38,30 565.33,183.1 565.33,183.1 l 134.21,73.5 c 0,0 58.05,184.2 -29.01,379.5 -27.34,61.4 -74.45,119.4 -126.2,170.2" /></g><path
         id="path310"
         style="fill:#c37140;fill-opacity:1;fill-rule:nonzero;stroke:none"
         d="m 6256.24,16100.6 c 0,0 65.89,-73.4 81.8,-102.9 15.89,-29.5 47.24,-305.7 57.12,-375.5 9.88,-69.7 -0.96,-166.1 1.65,-200 2.58,-33.9 23,-241.6 20.18,-323.7 -2.83,-82.1 -69.08,-405.6 -92.09,-491.6 -22.99,-85.9 -57.49,-200 -96.48,-225.7 -38.97,-25.7 -216.93,-48.4 -378.85,-13 -161.93,35.4 -487.81,222 -579.94,326.4 -92.15,104.4 -98.47,335.9 -98.47,335.9 0,0 -64.19,-23.1 -137.22,39.6 -73.02,62.7 -192.8,201.3 -182.64,365.9 10.18,164.5 139.05,115.2 207.38,54.5 68.33,-60.7 78.19,-160.1 91.94,-161.3 13.73,-1.2 26.96,4.4 33.57,7.1 6.61,2.8 25.48,172.6 25.15,206.7 -0.33,34.1 -22.67,237.1 -18.66,244.2 4,7.1 156.92,223.5 209.63,248 52.72,24.5 855.93,65.4 855.93,65.4" /><path
         id="path312"
         style="fill:#2f1d16;fill-opacity:1;fill-rule:nonzero;stroke:none"
         d="m 5192.97,15378.3 c 0,0 13.68,109 42.67,175.2 29,66.2 4.27,103 8.27,174.2 3.99,71.1 98.06,97 111.23,189.8 13.16,92.8 94.3,127.2 94.3,127.2 0,0 -89.58,69.7 -99.16,61.6 -9.58,-8.1 -193.43,-89.9 -242.76,-168.1 -49.33,-78.2 -111.63,-69.9 -73.94,-193.2 37.7,-123.2 159.39,-366.7 159.39,-366.7" /><g
         transform="scale(1.02569)"
         id="g314"><path
           id="path316"
           style="fill:#2f1d16;fill-opacity:1;fill-rule:nonzero;stroke:none"
           d="m 4961.52,15754.2 c -17.28,-3.7 -283.32,39.8 -283.32,39.8 0,0 72.53,165.9 141.31,218.6 68.78,52.7 175.71,131 175.71,131 0,0 102.06,73.5 167.81,81 65.75,7.5 132.65,6 132.65,6 0,0 77.37,66.7 175.48,60.5 98.1,-6.1 123.49,-25.6 143.44,-28.1 19.95,-2.6 86.16,37 176.16,19.3 90.01,-17.7 124.46,-65.3 141.33,-68.7 16.87,-3.3 97.3,-10.2 140.96,-40.8 43.66,-30.5 72.77,-49.2 80.81,-99.2 8.03,-49.9 61.69,-72.5 87.34,-120.3 25.64,-47.9 -1.62,-77.6 -7.05,-135 -5.43,-57.3 -12.3,-131.9 -54.84,-221.2 0,0 -36.81,171.1 -42.07,174.1" /></g></g></g></svg>