<?xml version="1.0" encoding="UTF-8" standalone="no"?>
<svg
   xmlns:dc="http://purl.org/dc/elements/1.1/"
   xmlns:cc="http://creativecommons.org/ns#"
   xmlns:rdf="http://www.w3.org/1999/02/22-rdf-syntax-ns#"
   xmlns:svg="http://www.w3.org/2000/svg"
   xmlns="http://www.w3.org/2000/svg"
   viewBox="0 0 2666.6667 2666.6667"
   height="2666.6667"
   width="2666.6667"
   xml:space="preserve"
   id="svg2"
   version="1.1"><metadata
     id="metadata8"><rdf:RDF><cc:Work
         rdf:about=""><dc:format>image/svg+xml</dc:format><dc:type
           rdf:resource="http://purl.org/dc/dcmitype/StillImage" /></cc:Work></rdf:RDF></metadata><defs
     id="defs6" /><g
     transform="matrix(1.3333333,0,0,-1.3333333,0,2666.6667)"
     id="g10"><g
       transform="scale(0.1)"
       id="g12"><g
         transform="scale(1.22699)"
         id="g14"><path
           id="path16"
           style="fill:#ffffff;fill-opacity:1;fill-rule:nonzero;stroke:none"
           d="M 16300,0 H 0 V 16300 H 16300 V 0" /></g><path
         id="path18"
         style="fill:#3a70c0;fill-opacity:1;fill-rule:nonzero;stroke:none"
         d="m 6395.96,3861.6 -93.62,-57 c 0,0 -88.15,-39.9 -82.96,-121.1 5.18,-81.1 -31.12,-252.3 -31.12,-252.3 0,0 -77.78,-321.5 -41.48,-388.9 36.3,-67.4 264.46,-124.4 383.72,-140 119.27,-15.5 57.04,-238.5 430.39,-264.4 373.36,-26 653.37,114 668.93,233.3 15.56,119.3 -601.51,860.8 -601.51,860.8 0,0 -92.11,217.8 -103.1,248.9 -10.98,31.1 -114.69,15.5 -114.69,15.5 l -222.98,41.5 -191.58,-176.3" /><path
         id="path20"
         style="fill:#f0f0ef;fill-opacity:1;fill-rule:nonzero;stroke:none"
         d="m 4197.47,3804.6 v -242 c 0,0 68.71,-55.3 124.02,-17.3 55.32,38 62.23,328.4 62.23,328.4 l -93.13,10.4 -93.12,-79.5" /><path
         id="path22"
         style="fill:#fbc295;fill-opacity:1;fill-rule:nonzero;stroke:none"
         d="m 4131.36,7766.3 c 0,0 3.46,-224.7 34.57,-383.7 31.11,-159.1 41.48,-383.8 20.74,-473.7 -20.74,-89.8 -228.16,-423.4 -222.97,-926.4 5.18,-503 171.12,-1534.9 212.6,-1820.1 41.48,-285.2 21.17,-357.8 21.17,-357.8 l 455.89,57 c 0,0 -57.04,414.9 103.72,917.9 160.74,502.9 191.86,980 186.67,1353.4 -5.19,373.3 0.53,523.7 0.53,523.7 0,0 113.55,228.1 123.92,321.5 10.37,93.3 31.12,217.8 31.12,217.8 l 197.04,762.2 -1165,-191.8" /><path
         id="path24"
         style="fill:#f0f0ef;fill-opacity:1;fill-rule:nonzero;stroke:none"
         d="M 6302.34,4037.9 V 3732 c 0,0 129.64,-77.8 202.24,-36.3 72.59,41.5 41.48,201.9 51.85,233.2 10.37,31.2 254.09,67.5 254.09,67.5 v 124.5 c 0,0 -212.6,155.6 -274.83,119.3 -62.23,-36.3 -233.35,-202.3 -233.35,-202.3" /><path
         id="path26"
         style="fill:#fbc295;fill-opacity:1;fill-rule:nonzero;stroke:none"
         d="m 5866.76,7870 c 0,-31.1 -5.18,-259.3 82.97,-648.2 88.15,-388.9 77.78,-591.1 72.6,-715.6 -5.19,-124.4 -123.04,-373.3 3.3,-891.9 126.33,-518.5 266.34,-1441.5 276.71,-1576.4 l 508.18,83 c 0,0 124.45,1602.3 114.08,1991.2 -10.37,388.9 -77.78,679.3 -67.41,803.8 10.37,124.4 68.02,933.3 68.02,933.3 l -617.68,108.9 -440.77,-88.1" /><path
         id="path28"
         style="fill:#252323;fill-opacity:1;fill-rule:nonzero;stroke:none"
         d="m 4373.35,11347.7 c 0,0 -36.3,-159 -31.11,-216.1 5.18,-57 14.54,-67.4 -0.51,-98.5 -15.05,-31.1 -175.8,-995.6 -269.14,-1597.1 -93.34,-601.5 -103.71,-1177.1 -82.97,-1358.6 20.75,-181.5 -20.74,-347.4 15.56,-388.9 36.3,-41.5 1249.7,20.7 1384.52,36.3 134.82,15.6 160.75,108.9 171.12,321.5 10.37,212.6 67.41,352.6 67.41,352.6 l 31.12,-134.8 41.48,-518.6 c 0,0 430.39,-124.4 757.08,-134.8 326.68,-10.4 777.82,46.7 777.82,46.7 0,0 -46.67,886.7 -67.41,1177.1 -20.75,290.4 -133.1,1310.2 -146.93,1503.8 -13.83,193.6 -373.35,974.8 -373.35,974.8 l -1334.39,325 c 0,0 -255.82,-55.3 -511.63,-110.6 -255.82,-55.3 -428.67,-179.8 -428.67,-179.8" /><path
         id="path30"
         style="fill:#fbc295;fill-opacity:1;fill-rule:nonzero;stroke:none"
         d="m 6177.89,15020.8 c 10.37,15.5 152.11,157.2 152.11,157.2 0,0 241.99,-110.6 407.92,-157.2 165.94,-46.7 440.77,-264.5 528.92,-549.7 88.15,-285.2 41.48,-653.4 41.48,-674.1 0,-20.8 77.78,-243.7 88.15,-518.6 10.38,-274.8 25.93,-544.4 25.93,-544.4 0,0 62.23,-238.6 88.16,-440.8 25.92,-202.2 82.96,-565.2 98.52,-871.2 15.55,-305.9 62.22,-700 46.67,-700 -15.56,0 -300.76,-36.3 -305.95,0 -5.18,36.3 -295.57,663.7 -368.16,980.1 -72.6,316.3 -140.01,840 -145.19,855.6 -5.19,15.5 -217.79,388.9 -254.09,580.7 -36.3,191.9 -237.8,802 -317.68,1044 -79.88,242 -86.79,838.4 -86.79,838.4" /><path
         id="path32"
         style="fill:#3a70c0;fill-opacity:1;fill-rule:nonzero;stroke:none"
         d="m 4923.01,15487.4 -134.82,-72.6 c 0,0 129.63,-736.3 134.82,-1068.2 5.18,-331.8 -435.58,-596.3 -492.62,-643 -57.04,-46.6 -155.57,-82.9 -155.57,-82.9 0,0 -46.67,-409.7 -31.11,-523.8 15.56,-114 103.71,-378.5 114.08,-435.5 10.37,-57.1 15.56,-1313.7 15.56,-1313.7 0,0 850.41,27.7 1417.36,0 566.94,-27.6 857.33,-34.6 857.33,-34.6 0,0 -34.57,781.3 0,1037.1 34.57,255.8 43.21,814.2 74.32,959.3 31.12,145.2 62.23,274.9 57.04,342.3 -5.18,67.4 -186.67,337 -269.64,694.8 C 6426.79,14704.4 6330,15178 6330,15178 l -141.74,87.3 c 0,0 -909.18,102.9 -919.55,102.9 -10.38,0 -345.7,119.2 -345.7,119.2" /><path
         id="path34"
         style="fill:#6e6f71;fill-opacity:1;fill-rule:nonzero;stroke:none"
         d="m 4444.69,10166.7 c 173.74,-407.9 6.42,-869.9 -373.74,-1031.8 -380.15,-161.9 -829.18,37.6 -1002.92,445.5 -173.75,407.9 -6.42,869.9 373.73,1031.8 380.15,161.9 829.18,-37.5 1002.93,-445.5" /><path
         id="path36"
         style="fill:#535456;fill-opacity:1;fill-rule:nonzero;stroke:none"
         d="m 4188.51,9280.5 c -349.97,-149.1 -763.33,34.5 -923.28,410.1 -159.95,375.5 -5.9,800.8 344.06,949.9 25.5,10.8 51.37,19.7 77.42,27.1 -82.56,-3.6 -165.26,-21.5 -244.95,-55.4 -380.15,-161.9 -547.48,-623.9 -373.73,-1031.8 173.74,-407.9 622.77,-607.4 1002.92,-445.5 145.53,62 259.72,168 335.68,298.1 -60.12,-63.9 -133.3,-116.4 -218.12,-152.5" /><path
         id="path38"
         style="fill:#e4a57a;fill-opacity:1;fill-rule:nonzero;stroke:none"
         d="m 6779.98,13698.4 c -16.13,2.3 154.99,321.5 165.36,622.3 0,0 34.24,-254.1 -26.96,-487.4 -61.19,-233.4 -129.3,-332.8 -139.48,-316.3 -10.17,16.4 1.08,181.4 1.08,181.4" /><path
         id="path40"
         style="fill:#b3b3b2;fill-opacity:1;fill-rule:nonzero;stroke:none"
         d="m 3732.11,9912.9 c 22.88,-61.7 0.85,-126.8 -49.2,-145.4 -50.06,-18.5 -109.18,16.5 -132.07,78.3 -22.88,61.7 -0.84,126.9 49.21,145.4 50.06,18.5 109.18,-16.5 132.06,-78.3" /><path
         id="path42"
         style="fill:#e4a57a;fill-opacity:1;fill-rule:nonzero;stroke:none"
         d="m 7225.36,13117.7 c 0,0 0,-207.4 -48.4,-325 -48.4,-117.5 -110.63,-207.4 -110.63,-207.4 0,0 94.21,6.1 159.03,197.9 64.81,191.9 0,334.5 0,334.5" /><g
         transform="scale(1.00158)"
         id="g44"><path
           id="path46"
           style="fill:#fbc295;fill-opacity:1;fill-rule:nonzero;stroke:none"
           d="m 5181.67,16064.7 c 0,0 -13.89,-368.7 -41.79,-430.8 -27.9,-62.2 -224.63,-170.9 -224.63,-170.9 0,0 258.86,-875 409,-1118.3 150.14,-243.3 657.52,-326.2 833.54,-103.5 176.02,222.6 62.13,857.7 44.87,919.8 -17.25,62.1 -24.16,80.2 -24.16,80.2 l -116.9,116.5 -31.52,276.2 -659.23,666.1 h -157.19 l -31.99,-235.3" /></g><path
         id="path48"
         style="fill:#e4a57a;fill-opacity:1;fill-rule:nonzero;stroke:none"
         d="m 5301.66,16188 c 0,0 1.07,-219.3 151.01,-406.6 149.94,-187.3 610.02,-325 610.02,-325 l -22.54,292.4 -371.65,275.9 -366.84,163.3" /><path
         id="path50"
         style="fill:#e4a57a;fill-opacity:1;fill-rule:nonzero;stroke:none"
         d="m 5509.98,15784.2 -57.31,-2.8 c 0,0 280.73,-525.7 278.17,-516 -2.55,9.7 -146.67,437.8 -146.67,437.8 l -74.19,81" /><g
         transform="scale(1.05119)"
         id="g52"><path
           id="path54"
           style="fill:#252323;fill-opacity:1;fill-rule:nonzero;stroke:none"
           d="m 5026.65,15473.2 -89.52,-166.6 c 0,0 -244.63,527.5 -163.92,760.5 80.7,232.9 264.52,-70.8 264.52,-70.8 l -3.05,-397 -8.03,-126.1" /></g><g
         transform="scale(1.08015)"
         id="g56"><path
           id="path58"
           style="fill:#252323;fill-opacity:1;fill-rule:nonzero;stroke:none"
           d="m 4836.39,15205.6 -70.87,4.6 c 0,0 -110.2,159.8 -122.72,302.7 -12.53,142.9 50.08,398.4 113.64,474.7 63.54,76.3 104.97,144.7 174.62,171.1 69.65,26.5 244.74,108 323.04,124.7 78.29,16.6 342.29,-9.5 450.96,-0.9 108.66,8.5 195.93,-28 244.85,-133 48.91,-105.1 32.09,-223.8 -52.63,-292.9 -84.72,-69.1 -359.96,-267.8 -359.96,-267.8 l -504.97,-459 -195.96,75.8" /></g><g
         transform="scale(1.05181)"
         id="g60"><path
           id="path62"
           style="fill:#fbc295;fill-opacity:1;fill-rule:nonzero;stroke:none"
           d="m 5078.81,15682.6 c 0,0 -29.4,185.8 -95.96,186.9 -66.55,1.1 -106.33,-75.7 -101.13,-193.4 5.19,-117.7 130.9,-186 141.94,-212.1 11.03,-26.1 30,-176.4 71.76,-267.9 41.77,-91.5 288.45,-253.1 411.01,-321.2 122.55,-68.1 301.1,-54.1 366.51,-23.3 65.4,30.7 140.12,257.5 179.74,531 39.63,273.5 -0.79,336.3 25.36,398.1 26.13,61.8 33.38,175.6 10.98,272.2 -22.4,96.6 -32.89,230.8 -32.89,230.8 0,0 -100.48,16.3 -189.57,12.1 -89.1,-4.2 -127.42,-8.1 -206.81,-9.4 -79.39,-1.3 -93.04,-16.3 -112.59,-24.5 -19.57,-8.3 -63.32,-97.5 -87.65,-130.9 -24.33,-33.3 -74.74,-77.7 -97.66,-88.9 -22.92,-11.3 -65.81,-37.1 -76.7,-58.6 -10.88,-21.5 -55.25,-120.2 -77.02,-163.2 -21.77,-43.1 -60.61,-154.8 -60.61,-154.8 l -68.71,17.1" /></g><path
         id="path64"
         style="fill:#e4a57a;fill-opacity:1;fill-rule:nonzero;stroke:none"
         d="m 5384.52,14930 c 10.37,0 240.26,-82.1 288.65,-95.9 48.4,-13.9 105.44,-64 145.19,-67.4 39.76,-3.5 22.47,38 134.83,69.1 112.35,31.1 207.42,51.9 200.5,55.3 -6.91,3.5 -241.99,-1.7 -262.73,-8.6 -20.74,-6.9 -43.21,-49.5 -74.32,-34.3 -31.12,15.2 -74.33,32.5 -107.17,44.6 -32.84,12.1 -324.95,37.2 -324.95,37.2" /><path
         id="path66"
         style="fill:#fbc295;fill-opacity:1;fill-rule:nonzero;stroke:none"
         d="m 4788.19,15414.8 c 0,0 -466.7,-203.9 -518.55,-236.8 -51.86,-32.8 -430.39,-136.9 -539.29,-411.5 -108.89,-274.7 -25.93,-679.1 -46.67,-756.9 -20.74,-77.8 -129.63,-264.5 -155.56,-539.3 -25.93,-274.8 -82.97,-624 -98.53,-885 -15.55,-261 -5.18,-784.7 72.6,-1163.3 77.78,-378.5 254.09,-876.3 254.09,-876.3 l 191.86,186.7 c 0,0 57.04,248.9 114.08,674.1 57.04,425.2 -34.57,1133.9 -34.57,1158.1 0,24.2 172.85,228.1 286.93,508.1 114.08,280.1 115.81,630.9 115.81,630.9 0,0 426.93,223 492.62,513.4 65.68,290.4 -93.34,1026.7 -134.82,1197.8" /><path
         id="path68"
         style="fill:#e4a57a;fill-opacity:1;fill-rule:nonzero;stroke:none"
         d="m 4458.91,14069.2 c -11.56,1 -31.11,-207.4 -28.52,-365.6 0,0 84.92,56.9 196.72,128.3 0,0 -68.81,20.4 -89.56,79.2 -20.74,58.7 -46.66,155.5 -78.64,158.1" /><path
         id="path70"
         style="fill:#e4a57a;fill-opacity:1;fill-rule:nonzero;stroke:none"
         d="m 4386.31,14253.3 c 0,0 -75.19,-114.1 -181.49,-210 -106.3,-95.9 -171.12,-132.2 -163.34,-134.8 7.78,-2.6 129.64,7.7 264.46,132.2 134.82,124.4 80.37,212.6 80.37,212.6" /><path
         id="path72"
         style="fill:#3067ac;fill-opacity:1;fill-rule:nonzero;stroke:none"
         d="m 4627.11,13831.9 c 0,0 88.48,-97.1 259.6,-128.3 171.12,-31.1 554.84,-51.8 663.74,-36.3 108.9,15.6 145.19,36.3 145.19,36.3 0,0 -171.12,-129.6 -373.35,-150.3 -202.24,-20.8 -555.49,20.7 -695.18,41.4 -139.68,20.8 -196.72,108.9 -196.72,108.9 l 196.72,128.3" /><path
         id="path74"
         style="fill:#3067ac;fill-opacity:1;fill-rule:nonzero;stroke:none"
         d="m 6122.58,13643.1 c 0,0 169.39,-80.4 273.1,-95.5 103.71,-15.1 383.22,-30.6 383.22,-30.6 l -36.89,-116.7 c 0,0 -170.02,0.9 -349.79,42.3 -179.76,41.5 -269.64,200.5 -269.64,200.5" /><path
         id="path76"
         style="fill:#191716;fill-opacity:1;fill-rule:nonzero;stroke:none"
         d="m 5859.85,10165.4 c 0,-34.5 -27.66,-525.4 -62.23,-705.2 -34.57,-179.8 -169.39,-1061.3 -169.39,-1061.3 l 31.12,-134.8 c 0,0 124.44,401 200.5,746.7 76.05,345.7 0,1154.6 0,1154.6" /><path
         id="path78"
         style="fill:#e4a57a;fill-opacity:1;fill-rule:nonzero;stroke:none"
         d="m 4401.87,7289.2 c 0,0 108.8,-31.1 228.11,0 119.32,31.1 223.02,127.1 223.02,127.1 0,0 -77.78,-217.8 -243.71,-256.7 -165.94,-38.9 -207.42,129.6 -207.42,129.6" /><path
         id="path80"
         style="fill:#e4a57a;fill-opacity:1;fill-rule:nonzero;stroke:none"
         d="m 6382.71,7203.7 c 0,0 160.76,20.7 222.98,54.4 62.23,33.7 57.04,59.6 88.15,59.6 31.12,0 -7.78,-124.4 -142.59,-178.9 -134.83,-54.4 -168.54,64.9 -168.54,64.9" /><path
         id="path82"
         style="fill:#6e6f71;fill-opacity:1;fill-rule:nonzero;stroke:none"
         d="m 5052.46,10439.3 c 181.24,-425.6 6.7,-907.4 -389.85,-1076.3 -396.54,-168.9 -864.92,39.1 -1046.15,464.6 -181.24,425.6 -6.7,907.4 389.84,1076.3 396.54,168.9 864.93,-39.1 1046.16,-464.6" /><path
         id="path84"
         style="fill:#535456;fill-opacity:1;fill-rule:nonzero;stroke:none"
         d="m 4785.24,9514.8 c -365.05,-155.5 -796.23,36.1 -963.08,427.8 -166.84,391.7 -6.16,835.3 358.89,990.8 26.61,11.3 53.59,20.6 80.76,28.3 -86.12,-3.7 -172.39,-22.4 -255.51,-57.8 -396.54,-168.9 -571.08,-650.7 -389.84,-1076.3 181.24,-425.5 649.61,-633.5 1046.16,-464.6 151.79,64.6 270.91,175.2 350.14,310.9 -62.71,-66.7 -139.05,-121.4 -227.52,-159.1" /><path
         id="path86"
         style="fill:#b3b3b2;fill-opacity:1;fill-rule:nonzero;stroke:none"
         d="m 4590.9,10299.5 c 54.1,-84.4 41.75,-188.9 -27.56,-233.3 -69.32,-44.4 -169.36,-12 -223.46,72.4 -54.09,84.3 -41.75,188.8 27.57,233.2 69.31,44.4 169.36,12.1 223.45,-72.3" /><path
         id="path88"
         style="fill:#6e6f71;fill-opacity:1;fill-rule:nonzero;stroke:none"
         d="m 8345.82,10349.7 c 181.23,-425.5 6.69,-907.4 -389.85,-1076.3 -396.54,-168.8 -864.92,39.2 -1046.16,464.7 -181.23,425.5 -6.69,907.4 389.85,1076.3 396.54,168.9 864.92,-39.1 1046.16,-464.7" /><path
         id="path90"
         style="fill:#535456;fill-opacity:1;fill-rule:nonzero;stroke:none"
         d="m 8078.6,9425.3 c -365.05,-155.5 -796.24,36 -963.08,427.8 -166.84,391.7 -6.16,835.3 358.89,990.8 26.6,11.3 53.58,20.6 80.76,28.3 -86.12,-3.8 -172.4,-22.4 -255.51,-57.8 -396.54,-168.9 -571.08,-650.8 -389.85,-1076.3 181.24,-425.5 649.62,-633.5 1046.16,-464.7 151.8,64.7 270.91,175.3 350.14,311 -62.7,-66.7 -139.04,-121.4 -227.51,-159.1" /><path
         id="path92"
         style="fill:#b3b3b2;fill-opacity:1;fill-rule:nonzero;stroke:none"
         d="m 7884.26,10209.9 c 54.09,-84.3 41.75,-188.8 -27.57,-233.2 -69.31,-44.4 -169.36,-12.1 -223.45,72.3 -54.09,84.4 -41.76,188.8 27.56,233.3 69.32,44.4 169.36,12 223.46,-72.4" /><path
         id="path94"
         style="fill:#3a70c0;fill-opacity:1;fill-rule:nonzero;stroke:none"
         d="m 4647.3,3928.9 c 0,0 -224.97,-4.5 -263.58,-55.2 -38.61,-50.6 -62.23,-328.4 -62.23,-328.4 l -124.02,17.3 c 0,0 -28.08,-62.2 -31.54,-165.9 -3.45,-103.8 -27.65,-297.3 -51.85,-359.6 -24.2,-62.2 -44.1,-217.8 83.39,-356 127.48,-138.3 127.48,-200.5 279.59,-252.4 152.11,-51.8 649.91,-10.4 674.11,58.8 24.2,69.1 -345.7,871.1 -349.15,943.7 -3.46,72.6 20.73,373.4 -13.83,432.1 -34.57,58.8 -140.89,65.6 -140.89,65.6" /><path
         id="path96"
         style="fill:#3a70c0;fill-opacity:1;fill-rule:nonzero;stroke:none"
         d="m 14193.2,3861.6 -93.7,-57 c 0,0 -88.1,-39.9 -82.9,-121.1 5.2,-81.1 -31.1,-252.3 -31.1,-252.3 0,0 -77.8,-321.5 -41.5,-388.9 36.3,-67.4 264.4,-124.4 383.7,-140 119.3,-15.5 57,-238.5 430.4,-264.4 373.4,-26 653.4,114 668.9,233.3 15.6,119.3 -601.5,860.8 -601.5,860.8 0,0 -92.1,217.8 -103.1,248.9 -11,31.1 -114.7,15.5 -114.7,15.5 l -223,41.5 -191.5,-176.3" /><path
         id="path98"
         style="fill:#f0f0ef;fill-opacity:1;fill-rule:nonzero;stroke:none"
         d="m 11994.7,3804.6 v -242 c 0,0 68.7,-55.3 124,-17.3 55.3,38 62.2,328.4 62.2,328.4 l -93.1,10.4 -93.1,-79.5" /><path
         id="path100"
         style="fill:#f0f0ef;fill-opacity:1;fill-rule:nonzero;stroke:none"
         d="M 14099.5,4037.9 V 3732 c 0,0 129.7,-77.8 202.3,-36.3 72.6,41.5 41.5,201.9 51.8,233.2 10.4,31.2 254.1,67.5 254.1,67.5 v 124.5 c 0,0 -212.6,155.6 -274.8,119.3 -62.2,-36.3 -233.4,-202.3 -233.4,-202.3" /><path
         id="path102"
         style="fill:#fbc295;fill-opacity:1;fill-rule:nonzero;stroke:none"
         d="m 11928.6,7766.3 c 0,0 3.4,-224.7 34.5,-383.7 31.1,-159.1 41.5,-383.8 20.8,-473.7 -20.8,-89.8 -228.2,-423.4 -223,-926.4 5.2,-503 171.1,-1534.9 212.6,-1820.1 41.5,-285.2 21.2,-357.8 21.2,-357.8 l 455.9,57 c 0,0 -57.1,414.9 103.7,917.9 160.7,502.9 191.8,980 186.7,1353.4 -5.2,373.3 0.5,523.7 0.5,523.7 0,0 113.5,228.1 123.9,321.5 10.4,93.3 31.1,217.8 31.1,217.8 l 197.1,762.2 -1165,-191.8" /><path
         id="path104"
         style="fill:#fbc295;fill-opacity:1;fill-rule:nonzero;stroke:none"
         d="m 13664,7870 c 0,-31.1 -5.2,-259.3 82.9,-648.2 88.2,-388.9 77.8,-591.1 72.6,-715.6 -5.2,-124.4 -123,-373.3 3.3,-891.9 126.4,-518.5 266.4,-1441.5 276.7,-1576.4 l 508.2,83 c 0,0 124.5,1602.3 114.1,1991.2 -10.4,388.9 -77.8,679.3 -67.4,803.8 10.4,124.4 68,933.3 68,933.3 l -617.7,108.9 -440.7,-88.1" /><path
         id="path106"
         style="fill:#252323;fill-opacity:1;fill-rule:nonzero;stroke:none"
         d="m 12170.5,11347.7 c 0,0 -36.2,-159 -31.1,-216.1 5.2,-57 14.6,-67.4 -0.5,-98.5 -15,-31.1 -175.8,-995.6 -269.1,-1597.1 -93.3,-601.5 -103.7,-1177.1 -83,-1358.6 20.8,-181.5 -20.7,-347.4 15.6,-388.9 36.3,-41.5 1249.7,20.7 1384.5,36.3 134.8,15.6 160.8,108.9 171.1,321.5 10.4,212.6 67.4,352.6 67.4,352.6 l 31.1,-134.8 41.5,-518.6 c 0,0 430.4,-124.4 757.1,-134.8 326.7,-10.4 777.8,46.7 777.8,46.7 0,0 -46.6,886.7 -67.4,1177.1 -20.7,290.4 -133.1,1310.2 -146.9,1503.8 -13.8,193.6 -373.4,974.8 -373.4,974.8 l -1334.4,325 c 0,0 -255.8,-55.3 -511.6,-110.6 -255.8,-55.3 -428.7,-179.8 -428.7,-179.8" /><path
         id="path108"
         style="fill:#fbc295;fill-opacity:1;fill-rule:nonzero;stroke:none"
         d="m 14127.2,15178 250.6,-134.8 c 0,0 454.6,-32.8 630.9,-369.9 176.3,-337 0,-788.2 0,-788.2 l 129.7,-611.9 c 0,0 134.8,-31.1 172.8,-27.6 38,3.4 207.4,86.4 207.4,86.4 0,0 -24.2,116.6 0,215.6 24.2,99 16.5,246.8 32,267.5 15.6,20.8 173.7,75.2 217.8,77.8 44.1,2.6 83,-227.3 64.8,-249.8 -18.1,-22.4 -49.2,-17.2 -49.2,-17.2 l 197.9,-549.7 -413.1,-383.7 c 0,0 -171.2,-217.8 -357.8,-269.7 -186.7,-51.8 -311.1,-108.9 -458.9,-77.8 -147.8,31.2 -474.5,440.8 -474.5,461.6 0,20.7 -357.8,1610.9 -357.8,1610.9 l 207.4,760.5" /><path
         id="path110"
         style="fill:#e4a57a;fill-opacity:1;fill-rule:nonzero;stroke:none"
         d="m 14627.6,13583.2 c 0,0 38.9,-195.9 0,-268.5 -38.9,-72.6 -82.7,-134.8 -50.4,-217.8 32.3,-82.9 67.7,-119.2 67.7,-119.2 0,0 -92.5,-41.5 -108,-166 -15.6,-124.4 -41.9,-269.9 -41.9,-269.9 l -47.3,50.8 -92.3,566.6 41.5,369.3 230.7,54.7" /><path
         id="path112"
         style="fill:#3a70c0;fill-opacity:1;fill-rule:nonzero;stroke:none"
         d="m 12720.2,15487.4 -134.8,-72.6 c 0,0 129.6,-736.3 134.8,-1068.2 5.2,-331.8 -435.6,-596.3 -492.6,-643 -57.1,-46.6 -155.6,-82.9 -155.6,-82.9 0,0 -46.6,-409.7 -31.1,-523.8 15.6,-114 103.7,-378.5 114.1,-435.5 10.4,-57.1 15.5,-1313.7 15.5,-1313.7 0,0 850.5,27.7 1417.4,0 567,-27.6 857.3,-34.6 857.3,-34.6 0,0 -34.5,781.3 0,1037.1 34.6,255.8 43.3,814.2 74.4,959.3 31.1,145.2 62.2,274.9 57,342.3 -5.2,67.4 -186.7,337 -269.6,694.8 -83,357.8 -179.8,831.4 -179.8,831.4 l -141.7,87.3 c 0,0 -909.2,102.9 -919.6,102.9 -10.4,0 -345.7,119.2 -345.7,119.2" /><path
         id="path114"
         style="fill:#fbc295;fill-opacity:1;fill-rule:nonzero;stroke:none"
         d="m 12585.4,15414.8 c 0,0 -447.7,-222.9 -641.3,-312.8 -193.6,-89.9 -490.9,-407.9 -553.1,-677.6 -62.2,-269.6 -27.6,-437.9 -48.4,-505.9 -20.7,-67.9 -127.9,-248.6 -131.3,-396.8 -3.5,-148.2 0,-314.1 0,-314.1 l 165.9,-327.6 663.7,216.9 c 0,0 157.5,187.8 214.4,424.8 56.8,237.1 56.8,237.1 56.8,237.1 0,0 380.4,167.8 408.1,473.8 27.7,305.9 -134.8,1182.2 -134.8,1182.2" /><g
         transform="scale(1.00158)"
         id="g116"><path
           id="path118"
           style="fill:#fbc295;fill-opacity:1;fill-rule:nonzero;stroke:none"
           d="m 12966.6,16064.7 c 0,0 -14,-368.7 -41.8,-430.8 -27.9,-62.2 -224.7,-170.9 -224.7,-170.9 0,0 258.9,-875 409.1,-1118.3 150.1,-243.3 657.5,-326.2 833.5,-103.5 176,222.6 62.1,857.7 44.9,919.8 -17.3,62.1 -24.2,80.2 -24.2,80.2 l -116.9,116.5 -31.5,276.2 -659.3,666.1 h -157.1 l -32,-235.3" /></g><path
         id="path120"
         style="fill:#e4a57a;fill-opacity:1;fill-rule:nonzero;stroke:none"
         d="m 13098.9,16188 c 0,0 1,-219.3 151,-406.6 149.9,-187.3 610,-325 610,-325 l -38.3,288.1 -355.9,280.2 -366.8,163.3" /><path
         id="path122"
         style="fill:#e4a57a;fill-opacity:1;fill-rule:nonzero;stroke:none"
         d="m 13307.2,15784.2 -57.3,-2.8 c 0,0 280.7,-525.7 278.1,-516 -2.5,9.7 -146.6,437.8 -146.6,437.8 l -74.2,81" /><g
         transform="scale(1.05119)"
         id="g124"><path
           id="path126"
           style="fill:#252323;fill-opacity:1;fill-rule:nonzero;stroke:none"
           d="m 12444.2,15473.2 -89.5,-166.6 c 0,0 -244.7,527.5 -163.9,760.5 80.6,232.9 264.4,-70.8 264.4,-70.8 l -3,-397 -8,-126.1" /></g><g
         transform="scale(1.08015)"
         id="g128"><path
           id="path130"
           style="fill:#252323;fill-opacity:1;fill-rule:nonzero;stroke:none"
           d="m 12055,15205.6 -70.8,4.6 c 0,0 -110.3,159.8 -122.8,302.7 -12.5,142.9 50.1,398.4 113.7,474.7 63.5,76.3 104.9,144.7 174.6,171.1 69.7,26.5 244.7,108 323,124.7 78.4,16.6 342.3,-9.5 451,-0.9 108.7,8.5 195.9,-28 244.9,-133 48.9,-105.1 32,-223.8 -52.7,-292.9 -84.7,-69.1 -360,-267.8 -360,-267.8 l -504.9,-459 -196,75.8" /></g><g
         transform="scale(1.05181)"
         id="g132"><path
           id="path134"
           style="fill:#fbc295;fill-opacity:1;fill-rule:nonzero;stroke:none"
           d="m 12491.9,15682.6 c 0,0 -29.4,185.8 -96,186.9 -66.5,1.1 -106.3,-75.7 -101.1,-193.4 5.2,-117.7 131,-186 142,-212.1 11,-26.1 29.9,-176.4 71.8,-267.9 41.7,-91.5 288.3,-253.1 410.9,-321.2 122.6,-68.1 301.2,-54.1 366.5,-23.3 65.4,30.7 140.1,257.5 179.8,531 39.6,273.5 -0.8,336.3 25.4,398.1 26.1,61.8 33.3,175.6 10.9,272.2 -22.4,96.6 -32.9,230.8 -32.9,230.8 0,0 -100.5,16.3 -189.6,12.1 -89.1,-4.2 -127.4,-8.1 -206.8,-9.4 -79.4,-1.3 -92.9,-16.3 -112.5,-24.5 -19.6,-8.3 -63.4,-97.5 -87.7,-130.9 -24.3,-33.3 -74.7,-77.7 -97.6,-88.9 -22.9,-11.3 -65.8,-37.1 -76.8,-58.6 -10.9,-21.5 -55.2,-120.2 -77,-163.2 -21.7,-43.1 -60.6,-154.8 -60.6,-154.8 l -68.7,17.1" /></g><path
         id="path136"
         style="fill:#e4a57a;fill-opacity:1;fill-rule:nonzero;stroke:none"
         d="m 13181.7,14930 c 10.4,0 240.3,-82.1 288.7,-95.9 48.4,-13.9 105.4,-64 145.2,-67.4 39.7,-3.5 22.4,38 134.8,69.1 112.3,31.1 207.4,51.9 200.5,55.3 -6.9,3.5 -242,-1.7 -262.7,-8.6 -20.8,-6.9 -43.2,-49.5 -74.4,-34.3 -31.1,15.2 -74.3,32.5 -107.1,44.6 -32.9,12.1 -325,37.2 -325,37.2" /><path
         id="path138"
         style="fill:#e4a57a;fill-opacity:1;fill-rule:nonzero;stroke:none"
         d="m 14577.2,13698.4 c -16.1,2.3 155,321.5 165.3,622.3 0,0 34.3,-254.1 -26.9,-487.4 -61.2,-233.4 -129.3,-332.8 -139.5,-316.3 -10.2,16.4 1.1,181.4 1.1,181.4" /><path
         id="path140"
         style="fill:#3067ac;fill-opacity:1;fill-rule:nonzero;stroke:none"
         d="m 13919.8,13643.1 c 0,0 169.4,-80.4 273.1,-95.5 103.7,-15.1 383.2,-30.6 383.2,-30.6 l -36.9,-116.7 c 0,0 -170,0.9 -349.8,42.3 -179.7,41.5 -269.6,200.5 -269.6,200.5" /><g
         transform="scale(1.01972)"
         id="g142"><path
           id="path144"
           style="fill:#535456;fill-opacity:1;fill-rule:nonzero;stroke:none"
           d="m 14710,13764.2 c 0,0 27.1,-166.8 91.6,-212.2 64.4,-45.5 576.3,39.3 867.8,127.4 291.6,88.2 569.5,237.3 600.1,311.9 30.5,74.6 -20.4,175.9 -78.1,218.4 -57.5,42.6 -464.4,8.7 -793.2,-82.8 -328.8,-91.5 -630.6,-237.3 -688.2,-362.7" /></g><g
         transform="scale(1.01837)"
         id="g146"><path
           id="path148"
           style="fill:#6e6f71;fill-opacity:1;fill-rule:nonzero;stroke:none"
           d="m 15514.8,13967.4 c -480.1,-137 -664.9,-324.7 -711.5,-380.9 5.6,-6.5 11.6,-12.1 17.9,-16.6 64.5,-45.5 577.1,39.4 869,127.6 291.9,88.3 570.2,237.7 600.9,312.3 5.5,13.7 8.3,28.2 8.9,43.1 -138,16.4 -406.4,22.6 -785.2,-85.5" /></g><path
         id="path150"
         style="fill:#191716;fill-opacity:1;fill-rule:nonzero;stroke:none"
         d="m 13657.1,10165.4 c 0,-34.5 -27.7,-525.4 -62.3,-705.2 -34.5,-179.8 -169.4,-1061.3 -169.4,-1061.3 l 31.1,-134.8 c 0,0 124.5,401 200.6,746.7 76,345.7 0,1154.6 0,1154.6" /><path
         id="path152"
         style="fill:#e4a57a;fill-opacity:1;fill-rule:nonzero;stroke:none"
         d="m 12199.1,7289.2 c 0,0 108.8,-31.1 228.1,0 119.3,31.1 223,127.1 223,127.1 0,0 -77.8,-217.8 -243.7,-256.7 -165.9,-38.9 -207.4,129.6 -207.4,129.6" /><path
         id="path154"
         style="fill:#e4a57a;fill-opacity:1;fill-rule:nonzero;stroke:none"
         d="m 14179.9,7203.7 c 0,0 160.8,20.7 223,54.4 62.2,33.7 57,59.6 88.1,59.6 31.2,0 -7.7,-124.4 -142.6,-178.9 -134.8,-54.4 -168.5,64.9 -168.5,64.9" /><path
         id="path156"
         style="fill:#b3b3b2;fill-opacity:1;fill-rule:nonzero;stroke:none"
         d="m 15923.1,14151.3 c 0,0 -197,-51.8 -217.8,-89.9 -20.7,-38 69.2,-328.4 69.2,-328.4 l 172.8,-649.9 34.6,-93.3 307.7,93.3 c 0,0 -269.7,1054.4 -280.1,1068.2 -10.3,13.8 -86.4,0 -86.4,0" /><path
         id="path158"
         style="fill:#e4a57a;fill-opacity:1;fill-rule:nonzero;stroke:none"
         d="m 15138.4,13273.2 c 0,0 -32.8,0 -138.3,-51.8 -105.4,-51.9 -185.8,-124.5 -183.2,-116.7 2.6,7.8 44.9,101.1 133.9,158.2 89.1,57 160.7,137.4 160.7,137.4 l 26.9,-127.1" /><path
         id="path160"
         style="fill:#e4a57a;fill-opacity:1;fill-rule:nonzero;stroke:none"
         d="m 15561,13212.5 c 0,0 46.7,-6.7 67.4,-22.2 20.7,-15.6 43.9,-59.7 73.8,-111.5 29.9,-51.9 51.4,-73.1 51.4,-73.1 l 144.4,37.3 c 0,0 -128.1,51.4 -144.4,85.1 -16.3,33.7 -37,52.3 -65.6,84.4 -28.5,32.2 -90.7,35.3 -127,0" /><path
         id="path162"
         style="fill:#e4a57a;fill-opacity:1;fill-rule:nonzero;stroke:none"
         d="m 12227.4,15077.8 c 0,0 -158.8,-65 -293.6,-229.6 0,0 1.2,271.1 293.6,229.6" /><path
         id="path164"
         style="fill:#e4a57a;fill-opacity:1;fill-rule:nonzero;stroke:none"
         d="m 12193.3,13345.7 50.1,132 c 0,0 -154.1,-35.9 -353.7,-38.5 -199.7,-2.6 -446.2,-26.7 -535.5,-152.1 -89.4,-125.3 639.2,-138.3 672.9,-125.3 33.7,12.9 165.9,70 165.9,70 l 0.3,113.9" /><path
         id="path166"
         style="fill:#6e6f71;fill-opacity:1;fill-rule:nonzero;stroke:none"
         d="m 12975.9,14871.2 c 0,0 -470.7,-65.9 -706,-309.4 -235.3,-243.4 -116.3,-548 -49.9,-713.8 66.4,-165.8 420.1,-336.1 981,-219.3 560.9,116.7 666.1,506.2 663.6,669.2 -2.5,163.1 -125.5,629.1 -888.7,573.3" /><path
         id="path168"
         style="fill:#535456;fill-opacity:1;fill-rule:nonzero;stroke:none"
         d="m 12132.2,14171 c 0,0 178.8,438.6 818.2,513.1 500.9,58.3 752.1,-120.4 899.2,-278.3 -49.5,201.1 -242.8,511.5 -873.7,465.4 0,0 -470.7,-65.9 -706,-309.4 -119.2,-123.2 -147.4,-262.1 -137.7,-390.8 v 0" /><path
         id="path170"
         style="fill:#eeb289;fill-opacity:1;fill-rule:nonzero;stroke:none"
         d="m 13284.2,14124.7 c 0,0 106.7,67.5 158.5,60.5 51.9,-7.1 26,-136.9 0,-177 -25.9,-40.1 -85.5,-53.1 -85.5,-53.1 l -73,169.6" /><path
         id="path172"
         style="fill:#fbc295;fill-opacity:1;fill-rule:nonzero;stroke:none"
         d="m 11477.4,13340.7 c 0,0 -305.9,-89.1 -362.9,-335 -57.1,-245.8 31.1,-308 41.4,-427.3 10.4,-119.3 31.2,-342.2 285.2,-347.4 254.1,-5.2 492.7,150.3 834.9,445.9 342.2,295.6 539.3,492.6 539.3,492.6 l -225.6,404.1 c 0,0 -306.8,-172.4 -496.9,-189.7 -190.2,-17.3 -477.1,-10.4 -615.4,-43.2" /><path
         id="path174"
         style="fill:#3a70c0;fill-opacity:1;fill-rule:nonzero;stroke:none"
         d="m 12444.5,3928.9 c 0,0 -225,-4.5 -263.6,-55.2 -38.6,-50.6 -62.2,-328.4 -62.2,-328.4 l -124,17.3 c 0,0 -28.1,-62.2 -31.6,-165.9 -3.4,-103.8 -27.6,-297.3 -51.8,-359.6 -24.2,-62.2 -44.1,-217.8 83.4,-356 127.5,-138.3 127.5,-200.5 279.6,-252.4 152.1,-51.8 649.9,-10.4 674.1,58.8 24.2,69.1 -345.7,871.1 -349.2,943.7 -3.4,72.6 20.8,373.4 -13.8,432.1 -34.6,58.8 -140.9,65.6 -140.9,65.6" /><path
         id="path176"
         style="fill:#fbc295;fill-opacity:1;fill-rule:nonzero;stroke:none"
         d="m 12589.7,13573.6 c 0,0 98.8,106.6 133.7,258.3 34.8,151.8 16.7,255.5 32.3,289.2 15.5,33.7 69.1,80.3 104.5,101.1 35.5,20.7 312.9,0 346.6,0 33.7,0 49.2,-74.8 49.2,-74.8 0,0 62.3,-47.1 83,-78.2 20.8,-31.1 18.2,-114.1 18.2,-114.1 0,0 10.7,-17.1 33.8,-52.6 23.2,-35.5 0,-102.9 0,-102.9 0,0 -3.9,-74.5 10.3,-109.8 14.3,-35.4 -405.8,-395.8 -405.8,-395.8 l -180.2,-124.5 -225.6,148.2 v 255.9" /><path
         id="path178"
         style="fill:#e4a57a;fill-opacity:1;fill-rule:nonzero;stroke:none"
         d="m 12995.7,13955.1 h 361.5 c 0,0 0.7,25.3 -2,53.1 -113.9,-6.8 -335.7,-20 -359.5,-21.9 -32.2,-2.6 0,-31.2 0,-31.2" /><path
         id="path180"
         style="fill:#e4a57a;fill-opacity:1;fill-rule:nonzero;stroke:none"
         d="m 13033.1,13804.8 c -7.8,-20.8 357.9,-5.2 357.9,-5.2 0,0 11.1,32.2 10.3,63.8 -97.8,-7 -300.7,-22.6 -308.6,-31.5 -10.4,-11.7 -51.8,-6.4 -59.6,-27.1" /><path
         id="path182"
         style="fill:#e4a57a;fill-opacity:1;fill-rule:nonzero;stroke:none"
         d="m 12955.3,14110.7 328.9,14 c -15.6,13.2 -28.2,22.7 -28.2,22.7 0,0 -3.9,18.9 -12.1,37.8 l -317.1,-60.5 28.5,-14" /><path
         id="path184"
         style="fill:#6e6f71;fill-opacity:1;fill-rule:nonzero;stroke:none"
         d="m 13181.7,13703.6 c 0,0 -464.9,-98.5 -682.7,-357.8 -217.8,-259.2 -77.8,-554.8 0,-715.6 77.8,-160.7 442.4,-305.9 993.8,-150.3 551.4,155.5 629.2,551.4 615.4,713.8 -13.8,162.5 -169.1,618.8 -926.5,509.9" /><path
         id="path186"
         style="fill:#535456;fill-opacity:1;fill-rule:nonzero;stroke:none"
         d="m 12388.9,12946.4 c 0,0 147.8,450 780.4,568.8 495.7,93.1 758.7,-67.7 916.4,-214.9 -63.4,197.2 -277.8,493.4 -904,403.3 0,0 -464.9,-98.5 -682.7,-357.8 -110.3,-131.2 -128.8,-271.8 -110.1,-399.4 v 0" /><path
         id="path188"
         style="fill:#b3b3b2;fill-opacity:1;fill-rule:nonzero;stroke:none"
         d="m 13528,12909 c 12.2,-71.2 -65.9,-144 -174.5,-162.8 -108.7,-18.7 -206.7,23.8 -219,94.9 -12.3,71.1 65.9,144 174.5,162.7 108.7,18.8 206.7,-23.7 219,-94.8" /><g
         transform="scale(1.00466)"
         id="g190"><path
           id="path192"
           style="fill:#fbc295;fill-opacity:1;fill-rule:nonzero;stroke:none"
           d="m 15990.2,13853.4 c 0,0 -175.4,-84.3 -220.1,-132.5 -44.7,-48.2 -10.4,-141.1 -10.4,-141.1 0,0 -82.5,-30.9 -79.1,-89.4 3.5,-58.5 79.1,-64 79.1,-64 0,0 -79.1,-94.3 -48.2,-132.2 31,-37.8 79.2,-24.1 79.2,-24.1 0,0 -19.8,-82.5 27.5,-110.1 47.4,-27.5 392.3,13.8 437,65.4 44.8,51.6 0,112.7 0,112.7 0,0 20.7,90.3 10.4,135 -10.4,44.8 -68.8,89.5 -74,101.6 -5.2,12 -3.5,41.3 -20.7,89.4 -17.1,48.2 -87.7,87.8 -87.7,87.8 0,0 29.3,110.9 -93,101.5" /></g><g
         transform="scale(1.04432)"
         id="g194"><path
           id="path196"
           style="fill:#535456;fill-opacity:1;fill-rule:nonzero;stroke:none"
           d="m 14747.5,12216.7 c 0,0 26.5,-162.8 89.3,-207.2 63,-44.4 562.8,38.4 847.5,124.5 284.7,86 556.1,231.7 585.9,304.5 29.8,72.8 -19.8,171.7 -76.1,213.3 -56.3,41.6 -453.5,8.5 -774.6,-80.9 -321.1,-89.4 -615.7,-231.7 -672,-354.2" /></g><g
         transform="scale(1.04297)"
         id="g198"><path
           id="path200"
           style="fill:#6e6f71;fill-opacity:1;fill-rule:nonzero;stroke:none"
           d="m 15533.4,12413.2 c -468.8,-133.8 -649.2,-317.1 -694.7,-371.9 5.5,-6.4 11.2,-11.9 17.3,-16.2 63,-44.5 563.5,38.4 848.6,124.6 285,86.1 556.9,232 586.7,304.9 5.4,13.3 8.1,27.5 8.7,42 -134.6,16.1 -396.8,22.1 -766.6,-83.4" /></g><g
         transform="scale(1.00328)"
         id="g202"><path
           id="path204"
           style="fill:#b3b3b2;fill-opacity:1;fill-rule:nonzero;stroke:none"
           d="m 16293.9,12780.8 c 6.1,-27.9 -58.2,-65.8 -143.7,-84.6 -85.5,-18.9 -159.8,-11.6 -166,16.3 -6.1,27.9 58.2,65.8 143.8,84.6 85.5,18.9 159.7,11.6 165.9,-16.3" /></g></g></g></svg>