<?xml version="1.0" encoding="UTF-8" standalone="no"?>
<svg
   xmlns:dc="http://purl.org/dc/elements/1.1/"
   xmlns:cc="http://creativecommons.org/ns#"
   xmlns:rdf="http://www.w3.org/1999/02/22-rdf-syntax-ns#"
   xmlns:svg="http://www.w3.org/2000/svg"
   xmlns="http://www.w3.org/2000/svg"
   viewBox="0 0 2666.6667 2666.6667"
   height="2666.6667"
   width="2666.6667"
   xml:space="preserve"
   id="svg2"
   version="1.1"><metadata
     id="metadata8"><rdf:RDF><cc:Work
         rdf:about=""><dc:format>image/svg+xml</dc:format><dc:type
           rdf:resource="http://purl.org/dc/dcmitype/StillImage" /></cc:Work></rdf:RDF></metadata><defs
     id="defs6"><clipPath
       id="clipPath136"
       clipPathUnits="userSpaceOnUse"><path
         id="path134"
         d="m 13888.6,8100.3 v 0 l -261.8,21.7 127.4,81.3 c 0,0 1.6,-0.1 4.7,-0.1 15.3,0 66.7,1.5 129.7,19 75.7,21 151.3,84 151.3,84 0,0 -16.8,-63 -151.3,-205.9" /></clipPath></defs><g
     transform="matrix(1.3333333,0,0,-1.3333333,0,2666.6667)"
     id="g10"><g
       transform="scale(0.1)"
       id="g12"><g
         transform="scale(1.22699)"
         id="g14"><path
           id="path16"
           style="fill:#ffffff;fill-opacity:1;fill-rule:nonzero;stroke:none"
           d="M 16300,0 H 0 V 16300 H 16300 V 0" /></g><path
         id="path18"
         style="fill:#3a70c0;fill-opacity:1;fill-rule:nonzero;stroke:none"
         d="m 5380.68,13817.9 c -23.06,10.3 -190.27,-47.4 -320.01,-168.5 -129.74,-121 -221.99,-363.2 -366.14,-501.6 -144.15,-138.4 -242.18,-253.7 -317.13,-409.4 -74.96,-155.7 -57.66,-377.2 0,-430.8 57.66,-53.5 351.8,247.2 443.98,286.7 92.18,39.4 351.73,-17.3 455.51,51.9 103.79,69.2 317.14,113 334.43,414 17.3,301 -16.73,359.9 0,404.7 16.74,44.9 -230.64,353 -230.64,353" /><path
         id="path20"
         style="fill:#e4ab84;fill-opacity:1;fill-rule:nonzero;stroke:none"
         d="m 6782.27,13476.6 c 0,0 -179.64,50.5 -523.14,0 -343.51,-50.4 -939.13,-170.1 -958.04,-195.3 -18.91,-25.3 0,-308.9 0,-308.9 0,0 573.56,-35.7 1096.7,-128.1 523.14,-92.5 705.92,-149.2 1153.43,-149.2 447.5,0 617.68,63 661.8,220.6 44.11,157.6 -88.24,693.3 -88.24,693.3 0,0 -693.32,327.8 -756.35,302.5 -63.03,-25.2 -586.16,-434.9 -586.16,-434.9" /><path
         id="path22"
         style="fill:#ececec;fill-opacity:1;fill-rule:nonzero;stroke:none"
         d="m 6085.8,13449.1 c -339.72,-57.5 -768.71,-146.5 -784.71,-167.8 -18.91,-25.3 0,-308.9 0,-308.9 0,0 368.83,-23 784.71,-79.7 v 556.4" /><path
         id="path24"
         style="fill:#dc9d71;fill-opacity:1;fill-rule:nonzero;stroke:none"
         d="m 7046.98,13583.8 c 0,0 75.64,-157 283.64,-355.8 207.99,-198.9 233.2,-224.1 233.2,-224.1 0,0 -340.35,165.3 -472.72,300.1 -132.35,134.8 -308.83,172.6 -308.83,172.6 l 264.71,107.2" /><path
         id="path26"
         style="fill:#7e7f81;fill-opacity:1;fill-rule:nonzero;stroke:none"
         d="m 11388.7,12228.8 h -6732 v 253.8 h 6732 v -253.8" /><path
         id="path28"
         style="fill:#7e7f81;fill-opacity:1;fill-rule:nonzero;stroke:none"
         d="m 11020.1,12355.7 c 22,22 109.9,-126.9 109.9,-126.9 0,0 227,17.1 446.6,-349 219.7,-366.2 241.7,-1808.7 241.7,-1808.7 h 296.2 c 0,0 33.3,1376.6 -186.4,1874.6 -219.7,497.9 -659,607.7 -659,607.7 l -249,-197.7" /><path
         id="path30"
         style="fill:#7e7f81;fill-opacity:1;fill-rule:nonzero;stroke:none"
         d="m 5008.49,12355.7 c -21.97,22 -109.84,-126.9 -109.84,-126.9 0,0 -227,17.1 -446.68,-349 -219.68,-366.2 -241.65,-1808.7 -241.65,-1808.7 h -296.2 c 0,0 -33.31,1376.6 186.36,1874.6 219.68,497.9 659.04,607.7 659.04,607.7 l 248.97,-197.7" /><path
         id="path32"
         style="fill:#4e4f51;fill-opacity:1;fill-rule:nonzero;stroke:none"
         d="M 12044.9,12795.1 H 4057.54 c -38.41,0 -69.56,-31.2 -69.56,-69.6 v -173.3 c 0,-38.4 31.15,-69.6 69.56,-69.6 h 7987.36 c 38.4,0 69.6,31.2 69.6,69.6 v 173.3 c 0,38.4 -31.2,69.6 -69.6,69.6" /><path
         id="path34"
         style="fill:#3a70c0;fill-opacity:1;fill-rule:nonzero;stroke:none"
         d="m 3662.34,10779 c 0,0 -31.51,6.3 -144.96,-132.4 -113.45,-138.6 -277.33,-283.6 -264.72,-371.8 12.6,-88.3 189.08,-214.3 378.17,-321.5 189.09,-107.1 321.45,-264.7 630.29,-315.1 308.84,-50.4 743.73,-25.2 753.19,170.2 9.45,195.4 -267.87,176.5 -387.63,271 -119.75,94.5 -296.23,390.8 -289.93,472.7 6.3,82 -75.63,208 -75.63,208 l -233.21,176.5 -365.57,-157.6" /><path
         id="path36"
         style="fill:#fbc398;fill-opacity:1;fill-rule:nonzero;stroke:none"
         d="m 5408.88,13684.6 v -586.1 c 0,0 -498.57,-340.4 -738.08,-712.2 -239.51,-371.9 -397.08,-813.1 -661.8,-1159.8 -264.72,-346.6 -346.66,-447.5 -346.66,-447.5 0,0 18.91,-277.3 81.94,-283.6 63.03,-6.3 245.81,25.2 245.81,25.2 0,0 56.73,157.6 107.15,182.8 50.43,25.2 163.88,56.7 163.88,56.7 0,0 214.3,441.2 617.68,800.5 403.38,359.2 825.67,787.8 825.67,787.8 0,0 308.85,233.2 447.51,409.7 138.66,176.5 214.29,472.7 214.29,472.7 0,0 -226.9,346.7 -264.72,371.9 -37.81,25.2 -692.67,81.9 -692.67,81.9" /><path
         id="path38"
         style="fill:#252323;fill-opacity:1;fill-rule:nonzero;stroke:none"
         d="m 6656.21,16082.9 c 0,0 -548.35,38.8 -825.68,-341.5 -277.33,-380.2 -334.05,-752.1 -397.08,-1016.8 -63.03,-264.7 -258.42,-932.8 -258.42,-932.8 0,0 510.54,-226.9 740.59,-365.6 230.05,-138.6 438.05,-214.3 450.65,-195.4 12.61,18.9 214.3,523.2 214.3,523.2 l 201.7,-277.4 c 0,0 277.32,100.9 674.4,94.6 397.08,-6.3 668.11,37.8 668.11,37.8 0,0 -315.15,689.4 -352.96,776.5 -37.82,87 -37.82,99.6 -37.82,131.1 0,31.5 69.33,132.4 25.21,201.7 -44.12,69.3 -390.78,384.5 -397.08,416 -6.3,31.5 -195.39,573.6 -195.39,573.6 l -510.53,375" /><path
         id="path40"
         style="fill:#969797;fill-opacity:1;fill-rule:nonzero;stroke:none"
         d="m 8031.59,12271 c -109.92,-12.5 -234.78,-257.9 -221.59,-565.1 12.25,-285.6 100.75,-511.2 220.82,-549.5 l 0.34,-0.2 c 112.98,-50.7 427.34,-27.3 427.34,-27.3 l -47.73,1112.5 c -221.08,68.8 -379.18,29.6 -379.18,29.6" /><path
         id="path42"
         style="fill:#c1bfbd;fill-opacity:1;fill-rule:nonzero;stroke:none"
         d="m 8625.87,11693.4 c 13.19,-307.2 -61.75,-559.9 -167.37,-564.5 -105.63,-4.5 -201.93,240.9 -215.11,548.1 -13.19,307.2 61.75,559.9 167.38,564.4 105.62,4.6 201.93,-240.8 215.1,-548" /><path
         id="path44"
         style="fill:#959595;fill-opacity:1;fill-rule:nonzero;stroke:none"
         d="m 8468.78,11475.4 c -35.8,0 -68.98,100 -74.32,224.6 -5.4,125.6 19.52,228.7 55.64,230.3 0.27,0 0.55,0 0.82,0 35.81,0 68.99,-100 74.33,-224.7 5.4,-125.6 -19.52,-228.7 -55.64,-230.2 -0.28,0 -0.55,0 -0.83,0" /><path
         id="path46"
         style="fill:#6b6c6e;fill-opacity:1;fill-rule:nonzero;stroke:none"
         d="m 9201.99,11577 -697.04,-10.2 c -42.49,-0.6 -77.44,33.4 -78.06,75.8 l -2.22,152.9 c -0.62,42.5 33.32,77.4 75.81,78 l 697.04,10.2 c 42.49,0.6 77.43,-33.3 78.05,-75.8 l 2.23,-152.9 c 0.62,-42.5 -33.32,-77.4 -75.81,-78" /><path
         id="path48"
         style="fill:#fbc398;fill-opacity:1;fill-rule:nonzero;stroke:none"
         d="m 9344.61,15214.1 c 0,0 57.11,-222.7 157.12,-399.2 100.02,-176.4 175.65,-294.1 226.07,-373.9 50.43,-79.9 117.66,-441.2 285.7,-739.6 168.1,-298.3 651.3,-857.1 651.3,-857.1 l 176.5,134.4 c 0,0 -243.7,344.6 -289.9,546.3 -46.2,201.7 -184.9,722.7 -332,920.2 0,0 -166.6,558.8 -186.2,680.7 -19.7,121.9 -63.34,323.5 -63.34,323.5 0,0 73.14,201.7 45.74,428.6 -27.27,226.9 -539.91,-63 -539.91,-63 l -189.08,-310.9 58,-290" /><g
         transform="scale(1.01433)"
         id="g50"><path
           id="path52"
           style="fill:#3a70c0;fill-opacity:1;fill-rule:nonzero;stroke:none"
           d="m 9715.71,15616.5 158.42,-46.9 c 0,0 -142.88,-204.8 -198.8,-282.4 -55.93,-77.7 -198.85,-279.7 -357.3,-348 -158.45,-68.4 -605.85,-152.3 -748.77,-164.7 -142.91,-12.4 -441.18,-40.4 -615.17,-28 -173.99,12.5 -323.12,28 -497.11,18.7 -173.98,-9.3 -394.57,-21.8 -394.57,-21.8 0,0 -83.89,65.3 -136.71,338.7 -52.82,273.4 -363.51,773.6 -363.51,773.6 0,0 487.79,43.5 652.46,83.9 164.66,40.4 742.55,202 854.4,226.8 111.84,24.9 180.2,37.3 180.2,37.3 0,0 180.2,77.7 419.43,87 119.63,4.6 220.6,2.3 292.85,0 72.21,-2.3 115.71,-4.7 120.37,0 9.32,9.3 279.63,6.2 462.93,-46.6 183.31,-52.8 170.88,-627.6 170.88,-627.6" /></g><g
         transform="scale(1.02587)"
         id="g54"><path
           id="path56"
           style="fill:#fbc398;fill-opacity:1;fill-rule:nonzero;stroke:none"
           d="m 9725.69,16159.2 c 0,0 -189.95,-70.2 -288.25,-97.9 -98.3,-27.6 -98.3,-27.6 -98.3,-27.6 0,0 12.28,-248.9 -24.58,-486.4 -36.86,-237.6 -114.69,-376.9 -135.16,-421.9 -20.49,-45.1 -77.83,-221.2 -69.64,-237.6 8.19,-16.4 176.12,12.3 204.8,32.8 28.67,20.5 282.62,348.1 335.87,393.2 53.25,45 205.59,96.5 205.59,96.5 0,0 504.48,548.1 470.28,661.2 -34.3,113.2 47,213.9 -118.9,221.2 -165.8,7.3 -481.71,-133.5 -481.71,-133.5" /></g><g
         transform="scale(1.01)"
         id="g58"><path
           id="path60"
           style="fill:#dc9d71;fill-opacity:1;fill-rule:nonzero;stroke:none"
           d="m 10187,16300 c 0,0 -240.32,-280.9 -252.01,-324.2 -11.78,-43.2 75.91,-323.3 75.91,-323.3 l 231.5,-16.1 c 0,0 64,283.3 59.7,331 -4.3,47.8 -115.1,332.6 -115.1,332.6" /></g><g
         transform="scale(1.06165)"
         id="g62"><path
           id="path64"
           style="fill:#252323;fill-opacity:1;fill-rule:nonzero;stroke:none"
           d="m 9711.66,15669.7 c -7.16,-5.8 -7.72,-162.1 -7.72,-162.1 0,0 -96.83,26 -154.01,43.8 -21.47,6.7 -156.34,59.7 -152.04,63.1 4.32,3.5 148.46,315.5 194.05,373.7 45.5,58.1 195.92,222.4 353.98,267.1 158.18,44.7 371.98,-5.6 476.18,-87.5 104.1,-81.9 155.5,-154.3 240.1,-235.4 84.5,-81.2 84.3,-195.3 115.4,-272.2 31.3,-76.8 59.3,-146.7 7,-231.7 -52.4,-85 -156.2,-94.6 -156.2,-94.6 l -736.27,-12.8 c 0,0 -184.99,103.6 -175.1,130.6 9.79,26.9 -5.37,218 -5.37,218" /></g><g
         transform="scale(1.03487)"
         id="g66"><path
           id="path68"
           style="fill:#fbc398;fill-opacity:1;fill-rule:nonzero;stroke:none"
           d="m 10202.5,16043.9 c 0,0 -9.9,144.6 -61.4,200.4 -51.5,55.7 -139.4,-28.3 -186.84,-86.1 -47.35,-57.8 -55.66,-135.9 -48.42,-169 7.25,-33.1 36.24,-81.1 36.24,-81.1 0,0 -182.15,-228.4 -197.8,-325.4 -15.75,-97.1 247.56,-492.1 274.82,-501.8 27.2,-9.6 321.1,184.1 321.1,184.1 0,0 78.2,-75.6 98.6,-73.7 20.3,1.8 118.8,232.4 157.2,251.2 38.3,18.8 34,3.1 93.2,41.3 59.3,38.1 222.3,255.1 224.3,261.6 2,6.5 -106.8,198.5 -172.8,262 -66,63.6 -157.1,-31.5 -205.7,-52.7 -48.5,-21.3 -177,11.2 -213.6,-3.8 -36.6,-14.9 -128.3,-79.3 -143.6,-72.2 -15.5,7 -33.7,38.5 -33.7,38.5 l 58.4,126.7" /></g><path
         id="path70"
         style="fill:#fbc398;fill-opacity:1;fill-rule:nonzero;stroke:none"
         d="m 10633.5,12893.2 c 0,0 44.2,-115.6 161.8,-124 117.7,-8.4 355.1,27.3 449.6,16.8 94.6,-10.5 121.9,10.5 176.5,10.5 54.6,0 329.9,-14.7 344.6,-8.4 14.7,6.3 18.9,52.5 0,71.5 -19,18.9 -134.5,60.9 -180.7,67.2 -46.2,6.3 -214.3,18.9 -222.7,16.8 -8.4,-2.1 -23.1,25.2 -90.4,29.4 -67.2,4.2 -229,0 -285.7,0 -56.7,0 -214.5,65.6 -214.5,65.6 0,0 -73.3,-21.5 -81.7,-27.8 -8.4,-6.3 -56.8,-117.6 -56.8,-117.6" /><path
         id="path72"
         style="fill:#dc9d71;fill-opacity:1;fill-rule:nonzero;stroke:none"
         d="m 11135.7,12937.3 c 0,0 134.4,-6.3 170.1,-29.4 35.8,-23.1 108.4,-68 91,-112.8 l 70.8,0.3 c 0,0 -29.4,67.8 -60.9,95.4 -31.5,27.6 -75.7,48.6 -105.1,54.9 -29.4,6.3 -165.9,-8.4 -165.9,-8.4" /><g
         transform="scale(1.01524)"
         id="g74"><path
           id="path76"
           style="fill:#fbc398;fill-opacity:1;fill-rule:nonzero;stroke:none"
           d="m 8499.5,16215.9 c 0,0 -105.54,-24.2 -186.24,-241.2 -80.71,-217 155.2,-502.6 155.2,-502.6 0,0 -111.75,-533.9 -105.54,-794.6 6.21,-260.8 39.06,-565 35.05,-658.1 -4.01,-93.1 -66.08,-502.9 -41.26,-993.3 24.84,-490.5 142.79,-1148.6 142.79,-1148.6 0,0 304.22,12.4 316.62,31.1 12.43,18.6 0,692.2 93.13,1126.8 93.13,434.5 43.47,841.2 43.47,884.7 0,43.4 40.34,266.9 55.86,515.2 15.53,248.4 21.73,381.9 21.73,381.9 0,0 261.79,301.1 236.95,760.5 0,0 145.42,329.7 70.36,513.2 -75.06,183.5 -355.68,185.3 -430.33,186.5 -74.67,1.2 -304.25,22.6 -407.79,-61.5" /></g><path
         id="path78"
         style="fill:#dc9d71;fill-opacity:1;fill-rule:nonzero;stroke:none"
         d="m 8689.93,16127.8 c 0,0 -4.2,-48.6 -29.41,-136.6 -25.21,-87.9 -135.39,-178.5 -135.39,-178.5 l 72.36,-104.8 c 0,0 100.84,98.5 126.06,209.9 25.21,111.5 -33.62,210 -33.62,210" /><path
         id="path80"
         style="fill:#eaad81;fill-opacity:1;fill-rule:nonzero;stroke:none"
         d="m 9408.46,15815 c 0,0 -8.41,113.5 -37.82,201.7 -29.41,88.2 -54.62,111.1 -54.62,111.1 0,0 66.22,-58 141.46,-176.7 l -49.02,-136.1 v 0 0" /><path
         id="path82"
         style="fill:#edc9b1;fill-opacity:1;fill-rule:nonzero;stroke:none"
         d="m 9986.11,15372.5 v 0 c -0.01,0 -0.02,0.1 -0.03,0.1 l 0.03,-0.1" /><path
         id="path84"
         style="fill:#eaad81;fill-opacity:1;fill-rule:nonzero;stroke:none"
         d="m 9727.8,15268 c 77.61,178.9 233.06,181.4 241.69,181.4 0.25,0 0.37,0 0.37,0 l 16.22,-76.8 c 0.01,0 0.02,-0.1 0.03,-0.1 -15.31,3.4 -30.26,4.9 -44.78,4.9 -122.93,0 -213.53,-109.4 -213.53,-109.4" /><path
         id="path86"
         style="fill:#dc9d71;fill-opacity:1;fill-rule:nonzero;stroke:none"
         d="m 10064,14340.1 c 0,0 92.4,21 155.4,105.1 l 45.5,-71.3 c 0,0 -45.5,-80 -200.9,-33.8" /><path
         id="path88"
         style="fill:#fbc398;fill-opacity:1;fill-rule:nonzero;stroke:none"
         d="m 8564.5,12110.2 c 0,0 -61.31,-222.8 -66.84,-262.3 -5.54,-39.5 68.94,-323.8 91.74,-342 22.79,-18.2 64.81,-4.1 89.48,-15.5 24.66,-11.5 82.47,-29.5 125.31,-18.6 42.85,11 76.43,-14.7 133.35,-10.6 56.93,4.1 145.09,29.9 157.73,48.3 12.64,18.4 -35.22,208.2 -47.47,257.2 -12.25,49 -14.1,114.6 -14.1,114.6 l 81.04,1.2 c 0,0 -74.12,241.8 -157.06,332.3 -82.95,90.4 -231.47,79 -263.51,44.3 -32.04,-34.8 -129.67,-148.9 -129.67,-148.9" /><path
         id="path90"
         style="fill:#151312;fill-opacity:1;fill-rule:nonzero;stroke:none"
         d="m 7254.98,14445.2 c 0,0 -220.6,-2.1 -321.45,0 -100.84,2.1 -352.96,-691.2 -352.96,-691.2 l 201.7,-277.4 206.18,53.2 c 0,0 -67.52,438.5 -23.4,596 44.12,157.6 44.12,157.6 44.12,157.6 l 245.81,161.8" /><path
         id="path92"
         style="fill:#ececec;fill-opacity:1;fill-rule:nonzero;stroke:none"
         d="m 3890.59,11071.9 c -171.43,-223 -228.25,-292.9 -228.25,-292.9 0,0 18.91,-277.3 81.94,-283.6 63.03,-6.3 245.81,25.2 245.81,25.2 0,0 56.73,157.6 107.15,182.8 50.42,25.2 163.88,56.7 163.88,56.7 0,0 16.28,33.5 48.24,89.5 -190.1,61.2 -332.52,154.5 -418.77,222.3" /><path
         id="path94"
         style="fill:#969797;fill-opacity:1;fill-rule:nonzero;stroke:none"
         d="m 9274.17,12271 c -109.91,-12.5 -234.77,-257.9 -221.59,-565.1 12.25,-285.6 100.75,-511.2 220.82,-549.5 l 0.35,-0.2 c 112.97,-50.7 427.33,-27.2 427.33,-27.2 l -47.73,1112.4 c -221.08,68.8 -379.18,29.6 -379.18,29.6" /><path
         id="path96"
         style="fill:#c1bfbd;fill-opacity:1;fill-rule:nonzero;stroke:none"
         d="m 9868.46,11693.4 c 13.18,-307.2 -61.76,-559.9 -167.38,-564.4 -105.63,-4.6 -201.93,240.8 -215.11,548 -13.18,307.2 61.75,559.9 167.37,564.4 105.63,4.6 201.94,-240.8 215.12,-548" /><path
         id="path98"
         style="fill:#3a70c0;fill-opacity:1;fill-rule:nonzero;stroke:none"
         d="m 9854.79,6632.7 c -16.83,-24.2 -163.87,-318.2 -361.36,-507.3 -197.49,-189.1 -319.35,-281.5 -394.98,-483.2 -75.64,-201.7 -54.63,-361.4 0,-403.4 54.62,-42 312.2,50.4 353.59,75.6 41.39,25.3 705.26,492.3 738.86,616 33.7,123.6 88.4,238.5 63.1,392.5 -25.4,154 -109.3,420.2 -147.1,437 -37.8,16.8 -252.11,-127.2 -252.11,-127.2" /><path
         id="path100"
         style="fill:#7e7f81;fill-opacity:1;fill-rule:nonzero;stroke:none"
         d="M 16020.4,5040.8 H 9288.44 v 253.9 h 6731.96 v -253.9" /><g
         transform="scale(1.02942)"
         id="g102"><path
           id="path104"
           style="fill:#7e7f81;fill-opacity:1;fill-rule:nonzero;stroke:none"
           d="m 15204.6,5020.12 c 21.3,21.28 106.7,-123.37 106.7,-123.37 0,0 220.5,16.62 433.9,-339.02 213.4,-355.64 234.7,-1757.02 234.7,-1757.02 h 287.8 c 0,0 32.3,1337.36 -181,1821.03 -213.4,483.67 -640.3,590.43 -640.3,590.43 l -241.8,-192.05" /></g><path
         id="path106"
         style="fill:#7e7f81;fill-opacity:1;fill-rule:nonzero;stroke:none"
         d="m 9640.22,5167.8 c -21.97,21.9 -109.84,-127 -109.84,-127 0,0 -227,17.1 -446.67,-349 -219.69,-366.1 -241.65,-1808.7 -241.65,-1808.7 h -296.21 c 0,0 -33.31,1376.7 186.37,1874.6 219.68,497.9 659.03,607.8 659.03,607.8 l 248.97,-197.7" /><g
         transform="scale(1.02737)"
         id="g108"><path
           id="path110"
           style="fill:#4e4f51;fill-opacity:1;fill-rule:nonzero;stroke:none"
           d="M 16232.4,5457.7 H 8457.76 c -37.4,0 -67.71,-30.27 -67.71,-67.65 v -168.68 c 0,-37.47 30.31,-67.75 67.71,-67.75 h 7774.64 c 37.3,0 67.6,30.28 67.6,67.75 v 168.68 c 0,37.38 -30.3,67.65 -67.6,67.65" /></g><path
         id="path112"
         style="fill:#3a70c0;fill-opacity:1;fill-rule:nonzero;stroke:none"
         d="m 8581.61,3806 c 0,0 -151.27,-33.7 -243.71,-100.9 -92.44,-67.2 -319.35,-437 -315.14,-512.6 4.2,-75.7 285.73,-222.7 428.59,-268.9 142.87,-46.3 365.57,-193.3 747.94,-197.5 382.38,-4.2 563.06,-8.4 596.67,168 33.62,176.5 -252.11,117.7 -386.57,214.3 -134.46,96.7 -319.35,407.6 -319.35,466.5 0,58.8 29.42,96.6 -46.22,210.1 -75.63,113.4 -75.63,113.4 -75.63,113.4 L 8581.61,3806" /><path
         id="path114"
         style="fill:#fbc398;fill-opacity:1;fill-rule:nonzero;stroke:none"
         d="m 10653.2,5793.5 c 21,-4.2 214.3,-4.2 571.4,-105.1 357.2,-100.8 701.7,-84 1000.1,-96.6 298.3,-12.6 554.6,-29.4 613.4,0 58.9,29.4 134.5,105 105.1,315.1 -29.4,210.1 -161.8,552.6 -161.8,552.6 0,0 -426.5,167.9 -577.7,173.2 -151.3,5.3 -403.4,-74.5 -462.3,-108.1 -58.8,-33.6 -239.5,-134.5 -239.5,-134.5 l -16.8,-37.8 c 0,0 -510.4,-32 -658.6,-131.6 -148.1,-99.5 -173.3,-427.2 -173.3,-427.2" /><path
         id="path116"
         style="fill:#dc9d71;fill-opacity:1;fill-rule:nonzero;stroke:none"
         d="m 11195.4,6321.5 c 0,0 -96.8,-70.5 -201.9,-217.3 -105,-146.9 -104.1,-338.8 -104.1,-338.8 l -140.2,19.6 c 0,0 -72.7,88.3 -41.4,209.6 31.3,121.4 250.8,279.9 250.8,279.9 0,0 60,25.7 236.8,47" /><path
         id="path118"
         style="fill:#fbc398;fill-opacity:1;fill-rule:nonzero;stroke:none"
         d="m 9976.65,6671.7 33.65,-630.3 c 0,0 -462.25,-252.1 -689.15,-605.1 -226.91,-353 -310.94,-659.7 -428.6,-882.4 -117.65,-222.7 -462.21,-806.8 -462.21,-806.8 0,0 12.61,-79.8 142.87,-117.6 130.26,-37.8 218.49,100.8 298.33,138.6 79.84,37.9 172.28,16.9 172.28,16.9 0,0 -4.2,100.8 46.22,197.4 50.42,96.7 546.25,668.1 823.58,953.9 277.28,285.7 508.48,521 638.68,630.3 130.3,109.2 235.3,247.9 281.5,390.7 46.3,142.9 82,237.4 82,237.4 0,0 -220.6,363.5 -355.1,401.3 -134.4,37.8 -584.05,75.7 -584.05,75.7" /><path
         id="path120"
         style="fill:#dc9d71;fill-opacity:1;fill-rule:nonzero;stroke:none"
         d="m 12325.5,5927.9 c 0,0 -204.3,197.6 -378.2,336.2 -173.8,138.5 -217.3,133.3 -217.3,133.3 l -223.9,43.2 -21,-88.3 c 0,0 166.3,-16.8 316.4,-92.4 150,-75.7 524,-332 524,-332" /><path
         id="path122"
         style="fill:#252323;fill-opacity:1;fill-rule:nonzero;stroke:none"
         d="m 12378,7688.5 c 0,0 -18.9,-214.3 0,-289.9 18.9,-75.6 37.9,-107.2 37.9,-107.2 0,0 126,-271 233.2,-441.2 107.1,-170.1 132.3,-390.7 132.3,-390.7 0,0 -469.2,18.9 -820.8,-31.6 -351.5,-50.4 -484.1,-56.7 -499.7,-37.8 -15.7,18.9 -311.9,384.5 -311.9,384.5 0,0 -201.7,-567.2 -233.2,-579.9 -31.5,-12.6 -542.1,220.6 -806.8,334.1 -264.71,113.4 -334.04,62.8 -334.04,103.9 0,41.1 296.24,1074.7 340.34,1169.3 44.1,94.5 157.6,548.3 340.4,787.8 182.7,239.5 485.3,290 485.3,290 l 271,-149.2 163.9,58.8 c 0,0 756.3,-268.9 768.9,-287.8 12.6,-18.9 233.2,-813.1 233.2,-813.1" /><path
         id="path124"
         style="fill:#fbc398;fill-opacity:1;fill-rule:nonzero;stroke:none"
         d="m 12081.8,9886.1 c 0,0 159.7,-163.9 319.3,-285.7 l -58.8,-218.5 c 0,0 184.9,-180.7 218.5,-197.5 33.6,-16.8 260.5,-63 500,-46.2 239.6,16.8 479.1,105 500.1,151.3 21,46.2 327.7,466.4 327.7,466.4 l -54.6,184.9 -125.6,46.5 c 0,0 -151.7,172 -315.6,222.4 -163.9,50.4 -462.2,46.2 -462.2,46.2 0,0 -142.9,142.9 -382.4,163.9 -239.5,21 -592.4,29.4 -718.5,25.2 -126.1,-4.2 -231.1,-37.8 -268.9,-92.5 -37.9,-54.6 -21,-231.1 -75.7,-432.8 -54.6,-201.6 0,-491.6 0,-731.1 0,-239.5 -24.2,-550.4 -24.2,-550.4 0,0 406.6,-12.7 406.6,0 0,12.6 -12.6,449.6 50.4,651.3 63.1,201.6 147.1,357.1 163.9,596.6" /><path
         id="path126"
         style="fill:#dc9d71;fill-opacity:1;fill-rule:nonzero;stroke:none"
         d="m 12960,9684.4 c 0,0 42,-159.6 71.4,-197.5 29.4,-37.8 0,-193.2 0,-193.2 l -134.4,-38.3 25.2,97.1 c 0,0 -267.4,129.1 -497.2,133.9 l -23.8,114 c 0,0 344.5,-155.5 512.6,-105 l 46.2,189" /><path
         id="path128"
         style="fill:#fbc398;fill-opacity:1;fill-rule:nonzero;stroke:none"
         d="m 14350.8,8730.6 c 0,0 46.3,-138.7 58.9,-298.3 12.6,-159.7 16.8,-264.8 16.8,-264.8 0,0 88.2,-327.7 172.3,-529.4 84,-201.7 138.6,-382.4 138.6,-382.4 0,0 172.3,-239.5 306.7,-605 134.5,-365.6 453.9,-827.8 453.9,-827.8 l -205.9,-117.7 c 0,0 -382.4,332 -613.5,621.9 -231.1,289.9 -369.8,731.1 -369.8,731.1 0,0 -243.7,306.8 -319.3,500.1 -75.7,193.3 -100.9,542 -100.9,542 l -261.8,21.7 c 0,0 -131.5,335.5 0,398.5 131.6,63 724,210.1 724,210.1" /><g
         id="g130"><g
           clip-path="url(#clipPath136)"
           id="g132"><path
             id="path138"
             style="fill:#eaad82;fill-opacity:1;fill-rule:nonzero;stroke:none"
             d="m 13626.8,8100.3 h 413.102 v 205.898 H 13626.8 Z" /></g></g><path
         id="path140"
         style="fill:#3a70c0;fill-opacity:1;fill-rule:nonzero;stroke:none"
         d="m 14174.4,8865.1 117.6,63 58.8,-197.5 c 0,0 -319.3,-357.2 -369.7,-390.8 -50.5,-33.6 -67.3,-63.9 -235.3,-172.3 -108.8,-70.1 -483.3,-88.2 -521.1,-100.8 -37.8,-12.6 -210.1,-67.2 -575.6,-180.7 -365.6,-113.4 -655.5,-197.5 -655.5,-197.5 0,0 -151.3,42 -260.6,147.1 -109.2,105 -365.5,932.8 -357.1,953.8 8.4,21 609.3,453.8 768.9,588.3 159.7,134.5 256.4,222.7 256.4,222.7 0,0 -4.3,-205.9 201.6,-289.9 205.9,-84.1 424.4,-48.4 655.5,68.2 231.1,116.7 575.7,562.1 575.7,562.1 0,0 188.7,-47 260.5,-126.1 l 121.9,-479 -42,-470.6" /><path
         id="path142"
         style="fill:#fbc398;fill-opacity:1;fill-rule:nonzero;stroke:none"
         d="m 14420.2,9760.6 c 0,0 0,0 -195.4,-63.6 -27.1,-8.8 -130.3,117.7 -130.3,117.7 0,0 -226.9,-277.3 -315.1,-399.2 -88.3,-121.8 -202.9,-319.8 -102,-517.3 100.8,-197.5 320.5,-155 362.5,-167.6 42,-12.6 277.8,111.3 277.8,111.3 0,0 -25.7,73.6 -25.7,86.2 0,12.6 220.4,58.1 220.4,58.1 0,0 296.4,321.1 338.5,406.7 42,85.6 121.8,333.6 42,371.4 -79.9,37.8 -472.7,-3.7 -472.7,-3.7" /><path
         id="path144"
         style="fill:#eaad82;fill-opacity:1;fill-rule:nonzero;stroke:none"
         d="m 12722.8,10058.4 c 0,0 -82.3,139.2 140.5,250.3 l 67.3,-52.8 c 0,0 -188.6,-16.8 -207.8,-197.5" /><path
         id="path146"
         style="fill:#dc9d71;fill-opacity:1;fill-rule:nonzero;stroke:none"
         d="m 12081.8,9886.1 50.4,172.3 22.2,-243.7 z" /><path
         id="path148"
         style="fill:#3168ac;fill-opacity:1;fill-rule:nonzero;stroke:none"
         d="m 13031.4,9293.7 c 0,0 -48.3,-253.2 -57.7,-357.2 -9.5,-104 26.2,-277 28.8,-303.9 2.7,-27 -104.5,121.1 -107.6,247.2 -3.2,126 2.1,375.6 2.1,375.6 l 134.4,38.3" /><path
         id="path150"
         style="fill:#dc9d71;fill-opacity:1;fill-rule:nonzero;stroke:none"
         d="m 14737.4,7255.7 c 0,0 -25.2,-54.6 -126,-79.8 -100.9,-25.2 -130.3,-29.4 -130.3,-29.4 0,0 88.2,-42 172.3,-33.6 84,8.4 120.8,87.6 120.8,87.6 l -36.8,55.2" /><g
         transform="scale(1.0088)"
         id="g152"><path
           id="path154"
           style="fill:#fbc398;fill-opacity:1;fill-rule:nonzero;stroke:none"
           d="m 15158.7,5655.44 c 0,0 43.8,-114.49 160.3,-122.81 116.7,-8.33 352,27.06 445.7,16.65 93.8,-10.41 120.8,10.41 175,10.41 54.2,0 327,-14.57 341.6,-8.33 14.5,6.25 18.7,52.04 0,70.78 -18.8,18.73 -133.4,60.37 -179.2,66.61 -45.8,6.25 -212.4,18.74 -220.7,16.66 -8.3,-2.09 -22.9,25.07 -89.5,29.24 -66.7,4.16 -227.1,0 -283.3,0 -56.2,0 -145.8,37.47 -145.8,37.47 0,0 -139.5,6.24 -147.9,0 -8.3,-6.24 -56.2,-116.68 -56.2,-116.68" /></g><path
         id="path156"
         style="fill:#dc9d71;fill-opacity:1;fill-rule:nonzero;stroke:none"
         d="m 15794.2,5749.3 c 0,0 134.5,-6.3 170.2,-29.4 35.7,-23.1 108.4,-68 90.9,-112.8 l 70.8,0.3 c 0,0 -29.4,67.8 -60.9,95.4 -31.5,27.6 -75.7,48.6 -105.1,54.9 -29.3,6.3 -165.9,-8.4 -165.9,-8.4" /><path
         id="path158"
         style="fill:#969797;fill-opacity:1;fill-rule:nonzero;stroke:none"
         d="m 11026,8980.7 c -110.1,10.6 -283.2,-203.5 -334.1,-506.8 -47.3,-281.9 -7.6,-521 101.9,-583.4 l 0.3,-0.2 c 100,-73.1 412.4,-115.4 412.4,-115.4 l 184.3,1098.1 c -202,113.2 -364.8,107.7 -364.8,107.7" /><path
         id="path160"
         style="fill:#c1bfbd;fill-opacity:1;fill-rule:nonzero;stroke:none"
         d="m 11487.4,8292.3 c -50.9,-303.3 -176.7,-534.9 -280.9,-517.4 -104.3,17.5 -147.6,277.5 -96.7,580.8 50.9,303.2 176.7,534.8 281,517.3 104.2,-17.5 147.5,-277.5 96.6,-580.7" /><path
         id="path162"
         style="fill:#959595;fill-opacity:1;fill-rule:nonzero;stroke:none"
         d="m 11277.6,8099.8 c -1.5,0 -3,0.1 -4.5,0.3 -45,7.1 -64.9,119 -44.3,250.1 19.9,126.6 70.3,224.7 114.4,224.7 1.5,0 3,-0.1 4.5,-0.3 45,-7.1 64.9,-119.1 44.3,-250.1 -19.9,-126.6 -70.3,-224.7 -114.4,-224.7" /><path
         id="path164"
         style="fill:#6b6c6e;fill-opacity:1;fill-rule:nonzero;stroke:none"
         d="m 11991,8066.4 -687.3,116.5 c -41.9,7.1 -70.1,46.8 -63,88.7 l 25.5,150.8 c 7.1,41.8 46.9,70.1 88.8,63 l 687.3,-116.6 c 41.9,-7.1 70.1,-46.8 63,-88.7 l -25.6,-150.7 c -7.1,-41.9 -46.8,-70.1 -88.7,-63" /><path
         id="path166"
         style="fill:#151312;fill-opacity:1;fill-rule:nonzero;stroke:none"
         d="m 11609.1,7183.7 c 0,0 -217.1,-75 -275.6,-106.6 -58.5,-31.5 -184.5,-302.5 -184.5,-302.5 l 311.9,-384.5 h 148.2 c 0,0 -182.8,428.6 -189.1,498 -6.3,69.3 189.1,295.6 189.1,295.6" /><path
         id="path168"
         style="fill:#ececec;fill-opacity:1;fill-rule:nonzero;stroke:none"
         d="m 9062.14,3912.7 c -172.18,65.9 -327.56,156.6 -412.54,210 -114.01,-197.2 -219.26,-375.6 -219.26,-375.6 0,0 12.61,-79.8 142.87,-117.6 130.26,-37.8 218.5,100.8 298.33,138.6 79.84,37.9 172.28,16.9 172.28,16.9 0,0 -2.36,57.7 18.32,127.7" /><path
         id="path170"
         style="fill:#dc9d71;fill-opacity:1;fill-rule:nonzero;stroke:none"
         d="m 14725.1,9629.7 c 0,0 -257.6,-270.2 -271.8,-313.2 -14.2,-43 59.1,-330.3 59.1,-330.3 l 232.6,-28.7 c 0,0 79.9,282.2 78.1,330.6 -1.8,48.4 -98,341.6 -98,341.6" /><path
         id="path172"
         style="fill:#252323;fill-opacity:1;fill-rule:nonzero;stroke:none"
         d="m 14756,9801.1 c -8,-5.7 -17.5,-171.4 -17.5,-171.4 0,0 -101.2,33.2 -160.8,55.3 -22.4,8.3 -162.3,72.1 -157.5,75.6 4.7,3.4 175.4,326 227,385 51.6,59.1 220.4,224.6 390.6,263 170.1,38.4 393.9,-27.1 499.7,-119.9 105.7,-92.8 156.1,-172.5 241.1,-263.3 85,-90.9 78.2,-211.9 106.9,-295.1 28.7,-83.2 54.4,-158.9 -5.9,-246 -60.3,-87.2 -170.9,-91.4 -170.9,-91.4 l -781.3,28.4 c 0,0 -190.2,120.4 -178.2,148.4 11.9,28.1 6.8,231.4 6.8,231.4" /><path
         id="path174"
         style="fill:#fbc398;fill-opacity:1;fill-rule:nonzero;stroke:none"
         d="m 15001.7,9755.5 c 0,0 -2.1,150 -52.2,210.5 -50.2,60.5 -145.7,-21.5 -197.9,-78.6 -52.2,-57 -65.1,-137.3 -59.5,-171.9 5.7,-34.6 33,-85.8 33,-85.8 0,0 -201,-225.8 -222.6,-325.3 -21.6,-99.4 228.5,-522.3 256.1,-533.7 27.6,-11.5 342.1,172.3 342.1,172.3 0,0 76.5,-82.5 97.7,-81.7 21.2,0.8 135.8,233.6 176.5,250.9 40.7,17.3 35.3,1.3 98.6,37.4 63.4,36.2 243.9,251.3 246.4,257.9 2.5,6.6 -99.4,211.1 -164,280.4 -64.6,69.3 -164.1,-23.8 -215.5,-43.1 -51.3,-19.2 -182.3,21.5 -221,8.1 -38.6,-13.5 -136.9,-74.9 -152.4,-66.7 -15.6,8.1 -32.6,41.7 -32.6,41.7 l 67.3,127.6" /><path
         id="path176"
         style="fill:#fbc398;fill-opacity:1;fill-rule:nonzero;stroke:none"
         d="m 12006.4,9541.6 h -540.2 c 7.1,-119.3 18.9,-241.6 18.9,-353 0,-239.5 -24.2,-550.4 -24.2,-550.4 0,0 406.6,-12.7 406.6,0 0,12.6 -12.6,449.6 50.4,651.3 27.9,89.3 60,169.6 88.5,252.1" /><path
         id="path178"
         style="fill:#fbc398;fill-opacity:1;fill-rule:nonzero;stroke:none"
         d="m 11460.9,8706.4 c 0,0 -100.8,-208 -113.4,-245.8 -12.6,-37.8 9.1,-330.9 28.2,-352.9 19.1,-22.1 63,-15.8 85.2,-31.5 22.1,-15.8 75.7,-44 119.8,-41 44.1,3 72.5,-28.4 129.2,-34.7 56.8,-6.3 148.2,3.2 163.9,18.9 15.8,15.8 3.2,211.2 0,261.6 -3.1,50.4 6.9,115.2 6.9,115.2 l 79.9,-13.5 c 0,0 -29,251.2 -94.1,355.2 -65.2,104.1 -213.3,119.8 -251.1,91.4 -37.8,-28.3 -154.5,-122.9 -154.5,-122.9" /><path
         id="path180"
         style="fill:#969797;fill-opacity:1;fill-rule:nonzero;stroke:none"
         d="m 12238.2,8738.2 c -110.3,7.7 -277.6,-211 -320.4,-515.5 -39.8,-283.1 6.3,-521 117.4,-580.5 l 0.3,-0.2 c 101.9,-70.3 415.3,-104.3 415.3,-104.3 l 154.9,1102.6 c -204.9,107.7 -367.5,97.9 -367.5,97.9" /><path
         id="path182"
         style="fill:#c1bfbd;fill-opacity:1;fill-rule:nonzero;stroke:none"
         d="m 12717.8,8062.4 c -42.8,-304.5 -162.3,-539.5 -267,-524.7 -104.7,14.7 -154.9,273.4 -112.1,577.9 42.8,304.5 162.3,539.4 267,524.7 104.7,-14.7 154.9,-273.4 112.1,-577.9" /></g></g></svg>