<?xml version="1.0" encoding="UTF-8" standalone="no"?>
<svg
   xmlns:dc="http://purl.org/dc/elements/1.1/"
   xmlns:cc="http://creativecommons.org/ns#"
   xmlns:rdf="http://www.w3.org/1999/02/22-rdf-syntax-ns#"
   xmlns:svg="http://www.w3.org/2000/svg"
   xmlns="http://www.w3.org/2000/svg"
   viewBox="0 0 2666.6667 2666.6667"
   height="2666.6667"
   width="2666.6667"
   xml:space="preserve"
   id="svg2"
   version="1.1"><metadata
     id="metadata8"><rdf:RDF><cc:Work
         rdf:about=""><dc:format>image/svg+xml</dc:format><dc:type
           rdf:resource="http://purl.org/dc/dcmitype/StillImage" /></cc:Work></rdf:RDF></metadata><defs
     id="defs6" /><g
     transform="matrix(1.3333333,0,0,-1.3333333,0,2666.6667)"
     id="g10"><g
       transform="scale(0.1)"
       id="g12"><g
         transform="scale(1.22699)"
         id="g14"><path
           id="path16"
           style="fill:none;fill-opacity:1;fill-rule:nonzero;stroke:none"
           d="M 16300,0 H 0 V 16300 H 16300 V 0" /></g><path
         id="path18"
         style="fill:#c37140;fill-opacity:1;fill-rule:nonzero;stroke:none"
         d="m 4134.3,9569.8 c 0,0 31.63,-302.3 37.06,-329.4 5.42,-27.2 70.5,-120 100.33,-153.6 29.83,-33.6 81.35,-41.7 89.49,-47.1 8.14,-5.4 40.68,-54.2 81.36,-57 40.67,-2.7 59.65,0 59.65,0 0,0 56.94,-10.5 111.18,-1.2 54.24,9.4 65.08,44.6 65.08,44.6 0,0 59.67,13.6 97.63,35.3 37.96,21.7 65.08,108.5 65.08,108.5 0,0 62.37,-5.5 67.79,59.6 5.43,65.1 -2.71,73.2 -78.64,170.9 -75.93,97.6 -92.19,162.7 -135.58,197.9 -43.39,35.3 -233.22,69.2 -233.22,69.2 0,0 -252.19,-1.4 -268.46,0 -16.27,1.3 -58.75,-97.7 -58.75,-97.7" /><path
         id="path20"
         style="fill:#c37140;fill-opacity:1;fill-rule:nonzero;stroke:none"
         d="m 2054.5,7767.9 c 0,0 23.39,-707.8 -33.56,-919.3 -56.95,-211.5 -276.6,-553.2 -276.6,-927.4 0,-374.2 103.4,-846.1 157.46,-1090.1 54.06,-244.1 54.06,-390.5 54.06,-390.5 h 390.49 c 0,0 24.41,650.8 122.03,1106.4 97.62,455.5 154.57,919.2 154.57,951.8 0,32.5 138.3,235.9 187.11,388.4 48.81,152.6 61.01,244.1 61.01,244.1 0,0 170.84,223.7 170.84,514.5 0,290.9 -987.41,122.1 -987.41,122.1" /><path
         id="path22"
         style="fill:#a45634;fill-opacity:1;fill-rule:nonzero;stroke:none"
         d="m 2169.41,6179.5 c 0,0 -1.66,-364 -158.64,-744.4 0,0 280.67,225.7 158.64,744.4" /><path
         id="path24"
         style="fill:#c37140;fill-opacity:1;fill-rule:nonzero;stroke:none"
         d="m 3084.62,7747.5 c 6.1,-18.3 152.54,-567.4 158.64,-695.5 6.11,-128.2 -329.95,-482 -268.7,-872.5 61.25,-390.5 213.95,-781 268.78,-1031.2 54.83,-250.1 34.5,-384.4 34.5,-384.4 h 404.72 c 0,0 73.22,1104.4 109.83,1415.6 36.61,311.1 61.01,683.3 61.01,683.3 0,0 109.83,280.7 97.63,396.6 -12.21,116 0.94,557.2 0.94,557.2 l -867.35,-69.1" /><path
         id="path26"
         style="fill:#a45634;fill-opacity:1;fill-rule:nonzero;stroke:none"
         d="m 2443.97,7070.3 c 0,0 -89.48,-164.8 -50.84,-378.3 0,0 -168.81,176.9 50.84,378.3" /><path
         id="path28"
         style="fill:#a45634;fill-opacity:1;fill-rule:nonzero;stroke:none"
         d="m 3538.02,7266.3 c 0,0 -60.04,-177.6 14.5,-381.4 0,0 -196.54,145.5 -14.5,381.4" /><path
         id="path30"
         style="fill:#252323;fill-opacity:1;fill-rule:nonzero;stroke:none"
         d="m 2053.48,10444.4 c 0,0 -268.46,-301 -235.92,-764.7 32.54,-463.8 48.81,-797.3 65.08,-1147.1 16.27,-349.8 89.49,-968.1 89.49,-968.1 0,0 349.81,-56.9 675.23,-40.7 325.4,16.3 512.51,-2.9 512.51,-2.9 v 124.9 c 0,0 650.82,8.2 927.42,73.3 0,0 105.76,919.3 0,1505 -105.75,585.7 -333.54,1122.7 -333.54,1122.7 0,0 -1025.04,325.4 -1057.58,305 -32.55,-20.3 -642.69,-207.4 -642.69,-207.4" /><path
         id="path32"
         style="fill:#100f0d;fill-opacity:1;fill-rule:nonzero;stroke:none"
         d="m 3395.8,9517 c 0,0 -235.93,-203.4 -235.93,-252.2 0,-48.9 0,-1619 0,-1619 l 117.97,2.7 V 9232.2 L 3395.8,9517" /><path
         id="path34"
         style="fill:#c37140;fill-opacity:1;fill-rule:nonzero;stroke:none"
         d="m 3432.41,13369 142.36,-59.3 c 0,0 279.31,-7.1 398.63,-267.5 119.32,-260.3 70.5,-702.3 70.5,-710.4 0,-8.2 51.53,-252.2 65.09,-583.1 13.55,-330.8 13.55,-382.3 13.55,-382.3 0,0 221.02,-299.7 204.74,-661.7 -16.27,-362 134.23,-1037.2 134.23,-1037.2 l -327.21,-97.7 -470.04,988.5 -326.85,2037.8 95,772.9" /><path
         id="path36"
         style="fill:#c37140;fill-opacity:1;fill-rule:nonzero;stroke:none"
         d="m 2480.58,14119.3 c 0,0 -36.61,-355.7 -65.08,-400.5 -28.47,-44.7 -122.03,-89.5 -187.11,-146.4 0,0 246.09,-236 465.74,-473.9 219.65,-238 464.42,-238 604.4,-189.1 139.97,48.8 37.45,494.2 37.45,494.2 0,0 -92.72,49.3 -98.82,97.9 -6.1,48.5 2.31,259 2.31,259 0,0 -545.34,771.8 -569.74,790.1 -24.41,18.3 -219.66,-36.9 -231.86,-82.5 -12.2,-45.6 42.71,-348.8 42.71,-348.8" /><path
         id="path38"
         style="fill:#a45634;fill-opacity:1;fill-rule:nonzero;stroke:none"
         d="m 3672.39,13185.9 c 4.07,-12.1 166.78,-382.3 166.78,-382.3 0,0 -73.22,4.1 -83.39,20.3 -10.16,16.3 -83.39,362 -83.39,362" /><path
         id="path40"
         style="fill:#b36239;fill-opacity:1;fill-rule:nonzero;stroke:none"
         d="m 3143.65,13239.5 c -6.91,0 -129.19,60.5 -157.32,63.1 -4,0.3 -8.68,0.5 -14.14,0.5 -35.28,0 -103.12,-7.1 -229.93,-14.1 -23.12,-1.3 -47.91,-1.8 -73.3,-1.8 -54.07,0 -110.77,2.4 -159.38,5.4 -7.64,7.8 -15.24,15.6 -22.74,23.2 69.76,8.4 156.8,17.8 203.9,19.3 52.97,1.7 123.06,20.5 184.17,32.4 -50.98,97.4 -200.18,387.4 -224.84,489.5 0,0 304.9,-463 346.05,-488.4 62.03,-28 140.24,-121.2 147.48,-128.4 0.46,-0.5 0.46,-0.7 0.05,-0.7" /><path
         id="path42"
         style="fill:#b36239;fill-opacity:1;fill-rule:nonzero;stroke:none"
         d="m 3233.09,13259.2 c 0,0 37.97,94.9 65.44,100.3 2.29,0.5 5.19,0.7 8.59,0.7 9.72,0 23.5,-1.7 38.57,-4.3 1.66,-8.8 3.45,-18.7 5.27,-29.3 -16.25,-1.4 -30.08,-2.3 -36.51,-2.3 -21.7,0 -81.36,-65.1 -81.36,-65.1" /><path
         id="path44"
         style="fill:#e9eef1;fill-opacity:1;fill-rule:nonzero;stroke:none"
         d="m 3887.98,12331.8 c 20.34,199.3 -8.14,366 -48.81,471.8 -40.68,105.8 -257.55,259.1 -306.37,340.5 -48.81,81.3 -100.39,224.9 -100.39,224.9 l -96.43,34.6 c 0,0 102.52,-445.4 -37.45,-494.2 -139.98,-48.9 -384.75,-48.9 -604.4,189.1 -219.65,237.9 -465.74,473.9 -465.74,473.9 l -134.23,-118 c 0,0 333.54,-357.9 423.03,-748.4 89.49,-390.5 -73.22,-756.6 -73.22,-756.6 l -390.49,-1505 c 0,0 231.44,-309.2 900.77,-301 669.33,8.1 799.5,170.8 799.5,203.4 0,32.5 -34.58,1232.4 -34.58,1232.4 l 6.1,433.2 c 0,0 142.37,120 162.71,319.4" /><path
         id="path46"
         style="fill:#a45634;fill-opacity:1;fill-rule:nonzero;stroke:none"
         d="m 3162.72,13913.4 135.81,255.1 -59.06,-408 c 0,0 -108.21,-58.9 -370.37,76.5 -187.82,97 -259.13,337.1 -259.13,337.1 l 552.75,-260.7" /><path
         id="path48"
         style="fill:#c37140;fill-opacity:1;fill-rule:nonzero;stroke:none"
         d="m 2094.16,13454.4 -81.36,-77.1 c 0,0 -368.12,-77.5 -459.64,-327.6 -91.52,-250.2 0,-640.7 0,-640.7 0,0 6.1,-500.3 109.83,-799.2 103.73,-299 140.34,-414.9 140.34,-414.9 0,0 91.51,-555.3 250.15,-878.7 158.64,-323.3 317.28,-695.5 317.28,-695.5 l 225.75,36.6 c 0,0 -42.71,579.6 -97.63,964 -54.91,384.4 -109.82,591.9 -109.82,591.9 0,0 67.12,244 95.59,488.1 28.47,244 2.11,370.7 2.11,370.7 0,0 142.2,325.1 -1.14,743.9 -143.33,418.9 -391.46,638.5 -391.46,638.5" /><path
         id="path50"
         style="fill:#b36239;fill-opacity:1;fill-rule:nonzero;stroke:none"
         d="m 2004.72,12128.3 c -160.16,0 -248.18,240.1 -248.18,240.1 0,0 150.78,-158.7 252.47,-158.7 1.28,0 2.53,0 3.79,0 101.7,4.1 248.13,158.7 248.13,158.7 0,0 -89.48,-236 -252.19,-240 -1.34,-0.1 -2.69,-0.1 -4.02,-0.1" /><path
         id="path52"
         style="fill:#b36239;fill-opacity:1;fill-rule:nonzero;stroke:none"
         d="m 2191.78,11327.1 c 0,0 -260.33,248.1 -69.15,630.4 0,0 -73.22,-374.2 69.15,-630.4" /><path
         id="path54"
         style="fill:#b36239;fill-opacity:1;fill-rule:nonzero;stroke:none"
         d="m 2366.69,10175.9 c 0,0 -248.13,69.2 -174.91,475.9 0,0 48.81,-333.5 174.91,-475.9" /><path
         id="path56"
         style="fill:#c8cfd2;fill-opacity:1;fill-rule:nonzero;stroke:none"
         d="m 2543.34,12315.7 c 0,0 149.56,-126.3 256.95,-154.8 107.39,-28.5 404.33,32.5 404.33,32.5 0,0 -116.21,-122 -330.64,-109.8 -214.42,12.2 -349.29,115.6 -349.29,115.6 l 18.65,116.5" /><path
         id="path58"
         style="fill:#c8cfd2;fill-opacity:1;fill-rule:nonzero;stroke:none"
         d="m 3818.97,12128.3 c 3.08,6.3 -69.29,-32.5 -175.05,-20.3 -105.76,12.2 -231.85,91.2 -231.85,91.2 0,0 122.03,-184.7 313.2,-186.8 0,0 53.59,33.5 93.7,115.9" /><path
         id="path60"
         style="fill:#797a7b;fill-opacity:1;fill-rule:nonzero;stroke:none"
         d="m 2283.98,9229.5 c 0,0 -48.81,-65.1 25.76,-168.1 l 2066.36,113.9 c 0,0 85.41,89.5 85.41,101.7 0,12.2 -44.74,81.3 -44.74,81.3 L 2283.98,9229.5" /><path
         id="path62"
         style="fill:#b36239;fill-opacity:1;fill-rule:nonzero;stroke:none"
         d="m 3952.96,11139.5 c -77.24,0 -133.89,106.2 -133.89,106.2 0,0 62.81,-34.7 113.92,-34.7 6.98,0 13.72,0.7 20.07,2.2 52.88,12.2 150.51,113.9 150.51,113.9 0,0 -60.78,-179 -142.25,-187.2 -2.81,-0.2 -5.6,-0.4 -8.36,-0.4" /><path
         id="path64"
         style="fill:#b36239;fill-opacity:1;fill-rule:nonzero;stroke:none"
         d="m 4134.3,10293.9 c -242.23,247.7 -200.78,631 -190.8,631 0.62,0 1.12,-1.5 1.43,-4.6 32.53,-333.6 189.37,-626.4 189.37,-626.4" /><path
         id="path66"
         style="fill:#ac5d36;fill-opacity:1;fill-rule:nonzero;stroke:none"
         d="m 4841.16,9169.9 v 0 0 c 0,0 -17.62,104.7 -31.86,152.7 -13.88,46.7 -120.48,121.3 -146.59,121.3 -0.69,0 -1.31,-0.1 -1.88,-0.2 -7.96,-1.4 -13.6,-7.2 -17.56,-14.1 -5.5,6.3 -8.88,10.1 -8.88,10.1 v -38.7 0 c 0,0 -10.06,0.8 -22.47,0.8 -15.51,0 -34.7,-1.2 -42.61,-6.9 v 0 l -47.02,4.1 c 0,0 11.29,-15.6 23.26,-39.6 -8.52,1.6 -25.52,4.3 -39.75,4.3 -9.94,0 -18.53,-1.3 -21.91,-5.4 -10.17,-12.2 -22.38,-81.3 -22.38,-81.3 v 0 0 c 0,12.2 -44.74,81.3 -44.74,81.3 l -77.25,-4.6 c -2.07,10.7 -18.33,75.8 18.27,147 0,0 -6.1,-101.7 10.17,-101.7 16.27,0 54.91,-2 61.01,-4.1 6.11,-2 16.27,-16.2 16.27,-16.2 0,0 10.17,24.4 34.58,24.4 24.4,0 42.47,-4.1 42.47,-4.1 0,0 22.61,38.6 47.02,38.6 18.3,0 26.3,-3.4 31.74,-3.4 1.81,0 3.34,0.4 4.86,1.4 5.72,3.8 54.23,43.3 83.75,43.3 2.01,0 3.93,-0.2 5.74,-0.6 28.48,-6.1 95.59,-71.2 124.06,-120 28.48,-48.8 21.7,-188.4 21.7,-188.4" /><path
         id="path68"
         style="fill:#995f44;fill-opacity:1;fill-rule:nonzero;stroke:none"
         d="m 4461.51,9277 -44.74,81.3 c 0,0 -41.33,-8.5 -63.54,-8.5 -7.75,0 -13.17,1.1 -13.71,3.9 v 0 l 77.25,4.6 c 0,0 44.74,-69.1 44.74,-81.3 v 0" /><path
         id="path70"
         style="fill:#ac5d36;fill-opacity:1;fill-rule:nonzero;stroke:none"
         d="m 4699.47,9124.4 c -2.03,8.2 10.17,132.2 0,166.8 -10.17,34.6 -65.08,109.8 -65.08,109.8 v 0 38.7 c 0,0 3.38,-3.8 8.88,-10.1 21.1,-24.5 73.38,-87.9 84.67,-128.2 14.24,-50.9 -28.47,-177 -28.47,-177" /><path
         id="path72"
         style="fill:#ac5d36;fill-opacity:1;fill-rule:nonzero;stroke:none"
         d="m 4532.02,9060.4 c -2.15,0 25.86,96.8 39.32,171.8 1.5,8.4 2.14,16.8 2.08,25.2 6.15,15.1 8.09,24.7 8.09,24.7 l -19.44,40.5 c -0.01,-0.9 -0.03,-1.7 -0.06,-2.5 -4.87,14.5 -10.74,27.8 -16.46,39.3 -11.97,24 -23.26,39.6 -23.26,39.6 l 47.02,-4.1 c 0,0 32.54,-71.2 32.54,-152.5 0,-81.4 -63.05,-168.8 -69.15,-181 -0.33,-0.7 -0.56,-1 -0.68,-1" /><path
         id="path74"
         style="fill:#ac5d36;fill-opacity:1;fill-rule:nonzero;stroke:none"
         d="m 4423.57,9111.8 c -7.72,0 134.81,115.1 138.44,208.3 0.03,0.8 0.05,1.6 0.06,2.5 l 19.44,-40.5 c 0,0 -1.94,-9.6 -8.09,-24.7 -14.76,-36.1 -53.77,-103.5 -148.51,-145.2 -0.63,-0.2 -1.08,-0.4 -1.34,-0.4" /><path
         id="path76"
         style="fill:#c37140;fill-opacity:1;fill-rule:nonzero;stroke:none"
         d="m 2370.76,9620.7 c 0,0 13.56,-111.9 16.27,-231.2 2.71,-119.3 0,-153.8 0,-153.8 l 174.79,10.6 c 0,0 124.18,-189 142.48,-205.3 18.3,-16.2 73.22,-24.4 65.08,55 -8.13,79.3 -34.82,160.7 -34.82,160.7 l 160.69,9.7 c 0,0 -87.22,161.1 -131.97,195.6 -44.74,34.6 -166.77,195.3 -166.77,195.3 0,0 -115.93,42.7 -122.03,38.6 -6.1,-4 -103.72,-75.2 -103.72,-75.2" /><path
         id="path78"
         style="fill:#a45634;fill-opacity:1;fill-rule:nonzero;stroke:none"
         d="m 2653.46,9453.9 c -9.84,3.3 76.78,-115.7 81.1,-197.2 l 41.02,2.5 c 0,0 -36.7,166.2 -122.12,194.7" /><path
         id="path80"
         style="fill:#c37140;fill-opacity:1;fill-rule:nonzero;stroke:none"
         d="m 2391.52,9065.9 c 0,0 -6.52,-92 42.28,-128.6 48.82,-36.6 218.88,-24.4 218.88,-24.4 0,0 59.94,-22.4 122.9,-18.3 62.96,4.1 109.73,42.7 109.73,42.7 0,0 82.91,18.3 89.25,57 6.34,38.6 -42.47,242 -60.78,246.1 -18.3,4 -50.84,-2.1 -54.91,-30.5 0,0 -20.33,44.9 -58.98,31.6 -38.64,-13.3 -52.88,-98.8 -52.88,-98.8 l -32.88,-55.9 -322.61,-20.9" /><path
         id="path82"
         style="fill:#a45634;fill-opacity:1;fill-rule:nonzero;stroke:none"
         d="m 2816.16,8967.8 c 8.14,12.2 32.54,52.9 42.71,83.4 10.17,30.5 0,158.7 0,158.7 l 15.36,23.8 c 0,0 27.35,-111.3 13.11,-172.3 -14.23,-61 -71.18,-93.6 -71.18,-93.6" /><path
         id="path84"
         style="fill:#100f0d;fill-opacity:1;fill-rule:nonzero;stroke:none"
         d="m 6447.13,5050.5 -2858.52,4069.9 35.37,24.9 2858.52,-4070 -35.37,-24.8" /><path
         id="path86"
         style="fill:#797a7b;fill-opacity:1;fill-rule:nonzero;stroke:none"
         d="m 3426.3,9169.9 126.22,-109.5 233.77,8.6 -128.13,160.7 -231.86,-59.8" /><g
         transform="scale(1.03565)"
         id="g88"><path
           id="path90"
           style="fill:#969797;fill-opacity:1;fill-rule:nonzero;stroke:none"
           d="m 7750.09,6221.8 -352.87,34.38 17.22,189.35 17.21,8873.37 223.77,146.3 v 223.7 l 111.88,68.9 z m 275.4,-2379.66 12.92,12135.16 h 73.16 l -11.47,322.7 h -258.2 l 5.73,-74.6 -309.83,-436 -2472.93,11.4 v -378.7 l 2111.46,17.3 -20.09,-10758.18 -154.92,-8.59 v -292.67 l 938.11,-1368.41 h 395.91 v 447.54 l -309.85,383.05" /></g><path
         id="path92"
         style="fill:#969797;fill-opacity:1;fill-rule:nonzero;stroke:none"
         d="M 7812.45,4366.8 H 5263.24 v -528.9 h 2549.21 v 528.9" /><path
         id="path94"
         style="fill:#252323;fill-opacity:1;fill-rule:nonzero;stroke:none"
         d="m 6748.79,3837.9 h -219.85 v 1176.6 h 219.85 V 3837.9" /><path
         id="path96"
         style="fill:#252323;fill-opacity:1;fill-rule:nonzero;stroke:none"
         d="M 8026.37,6443.6 V 4102.4 h -213.92 l -418.92,514 17.82,231.7 3.41,1827.2 h 263.99 l 347.62,-231.7" /><g
         transform="scale(1.00365)"
         id="g98"><path
           id="path100"
           style="fill:#252323;fill-opacity:1;fill-rule:nonzero;stroke:none"
           d="m 6443.03,15780.6 h -222.09 v 519.4 h 222.09 v -519.4" /></g><path
         id="path102"
         style="fill:#100f0d;fill-opacity:1;fill-rule:nonzero;stroke:none"
         d="m 6728.66,5305.9 -656.61,10352.8 40.27,2.5 656.62,-10352.8 -40.28,-2.5" /><path
         id="path104"
         style="fill:#252323;fill-opacity:1;fill-rule:nonzero;stroke:none"
         d="m 3259.86,4416 c 0,0 -113.37,-459.1 -44.13,-519.1 69.24,-60 271.19,-20 375.78,-74 104.59,-54.1 578.84,-125.2 746.61,38.6 167.75,163.8 -476.57,461.1 -516.02,506.2 -39.44,45.2 -80.37,133.8 -110.98,176.5 -30.6,42.6 -146.32,54.9 -146.32,54.9 0,0 -56.8,93.9 -116.53,44 -59.74,-49.9 -188.41,-227.1 -188.41,-227.1" /><path
         id="path106"
         style="fill:#f5f6f5;fill-opacity:1;fill-rule:nonzero;stroke:none"
         d="m 3548.94,4600.7 c 0,0 -44.62,-6.2 -52.11,-34.8 -7.49,-28.6 -18.41,-85.6 -29.49,-114.3 -11.07,-28.8 -197.89,-22.5 -197.89,-22.5 l 8.39,334.8 h 404.72 v -196.8 c 0,0 -28.33,18.8 -133.62,33.6" /><path
         id="path108"
         style="fill:#252323;fill-opacity:1;fill-rule:nonzero;stroke:none"
         d="m 1960.85,4217 -13.32,-98 c 0,0 -46.83,-474.8 -32.68,-529.4 14.15,-54.6 171.48,-245.7 323.96,-303.6 152.48,-57.9 451.23,15.5 468.21,103.4 16.97,88 -266.61,546.6 -297.03,634.1 -30.41,87.5 -2.46,280 -40.07,310.7 -37.6,30.7 -87.96,17 -87.96,17 l -292.53,78.2 -28.58,-212.4" /><path
         id="path110"
         style="fill:#f5f6f5;fill-opacity:1;fill-rule:nonzero;stroke:none"
         d="m 2278.3,4347.1 c 0,0 -37.08,-0.1 -51.59,-45 -14.5,-44.8 -20.3,-62.8 -38.08,-74.9 -17.78,-12 -227.78,-10.2 -227.78,-10.2 l -5.75,257.7 392.95,4.5 -2.45,-131.2 -67.3,-0.9" /><path
         id="path112"
         style="fill:#797a7b;fill-opacity:1;fill-rule:nonzero;stroke:none"
         d="m 6649.26,15746.9 c 0,-173.6 -140.67,-314.2 -314.19,-314.2 -173.53,0 -314.2,140.6 -314.2,314.2 0,173.5 140.67,314.2 314.2,314.2 173.52,0 314.19,-140.7 314.19,-314.2" /><path
         id="path114"
         style="fill:#797a7b;fill-opacity:1;fill-rule:nonzero;stroke:none"
         d="m 6941.18,5250.3 c 0,-179 -145.16,-324.2 -324.23,-324.2 -179.06,0 -324.22,145.2 -324.22,324.2 0,179.1 145.16,324.2 324.22,324.2 179.07,0 324.23,-145.1 324.23,-324.2" /><path
         id="path116"
         style="fill:#a45634;fill-opacity:1;fill-rule:nonzero;stroke:none"
         d="m 3392.09,6239.6 c 0,0 41.32,-361.6 -69.65,-757.9 0,0 252.05,257.3 69.65,757.9" /><path
         id="path118"
         style="fill:#2f1d16;fill-opacity:1;fill-rule:nonzero;stroke:none"
         d="m 3327.3,15025.9 c 0,0 1.84,8.5 3.38,23.3 6.04,45.1 16.86,144.6 3.69,198.5 -17.39,71.1 -89.09,97.5 -122.13,151.7 -33.04,54.1 -129.76,61.1 -170.16,71.2 -40.39,10 -124.06,40.3 -173.83,40.7 -49.77,0.3 -108.69,1.3 -127.05,-8.4 -18.36,-9.6 -108.11,-5.3 -138.18,-11.1 -30.07,-5.8 -82.1,-41.9 -104.52,-53.3 -22.42,-11.4 -43.01,-17.2 -78.54,-30.6 -35.53,-13.4 -42.67,-64.1 -58.39,-93.3 -15.73,-29.1 -16.78,-13.2 -62.47,-48.2 -45.69,-35.1 -46.91,-125.1 -46.91,-125.1 0,0 -62.47,-48.2 -67.97,-65.2 -5.5,-16.9 0,0 -42.53,-82.8 -42.52,-82.8 10.31,-133.1 -14.97,-180.2 -25.28,-47.1 23.51,-90.7 26.98,-99.2 3.47,-8.5 11.1,-61.7 16.24,-122.6 4.65,-55.3 65.71,-113.3 113.15,-197.3 4.7,-9.1 9.37,-17.9 13.95,-26.2 48.39,-98.5 183.54,-248.5 183.54,-248.5 0,0 85.11,289.2 146.46,362.8 61.35,73.6 373.83,209.9 385.62,254.1 11.78,44.1 314.64,289.7 314.64,289.7" /><path
         id="path120"
         style="fill:#c37140;fill-opacity:1;fill-rule:nonzero;stroke:none"
         d="m 3263.53,15092.3 c 0,0 50.75,-46.9 63.77,-66.4 13.03,-19.6 53.02,-210.1 64.49,-258.1 11.47,-48 10.24,-115.9 14.27,-139.3 4.04,-23.5 31.92,-167 35.34,-224.4 3.42,-57.4 -21.53,-287.3 -31.93,-348.7 -10.4,-61.5 -26.96,-143.3 -52.44,-163.8 -25.49,-20.5 -148.07,-48 -263.28,-33.9 -115.22,14 -354.68,122.7 -425.77,189.5 -71.1,66.7 -90.7,227.7 -90.7,227.7 0,0 -43.25,-20.3 -98.28,18.6 -55.02,38.9 -147.64,127.7 -151.35,243.1 -3.71,115.4 89.37,89.5 141,51.6 51.62,-37.8 65.02,-106.4 74.68,-106.4 9.66,0.1 18.52,4.8 22.94,7.2 4.43,2.4 6.44,121.9 3.97,145.7 -2.47,23.7 -31.37,163.8 -29.04,169.1 2.32,5.2 94.72,166.1 129.87,186.6 35.15,20.6 592.46,101.9 592.46,101.9" /><path
         id="path122"
         style="fill:#c37140;fill-opacity:1;fill-rule:nonzero;stroke:none"
         d="m 11620.4,7767.9 c 0,0 23.4,-707.8 -33.6,-919.3 -56.9,-211.5 -276.6,-553.2 -276.6,-927.4 0,-374.2 103.4,-846.1 157.5,-1090.1 54.1,-244.1 54.1,-390.5 54.1,-390.5 h 390.4 c 0,0 24.4,650.8 122.1,1106.4 97.6,455.5 154.5,919.2 154.5,951.8 0,32.5 138.3,235.9 187.2,388.4 48.8,152.6 61,244.1 61,244.1 0,0 170.8,223.7 170.8,514.5 0,290.9 -987.4,122.1 -987.4,122.1" /><path
         id="path124"
         style="fill:#b36239;fill-opacity:1;fill-rule:nonzero;stroke:none"
         d="m 11576.7,5435.1 c 157,380.4 158.6,744.4 158.6,744.4 122,-518.6 -158.6,-744.4 -158.6,-744.4" /><path
         id="path126"
         style="fill:#c37140;fill-opacity:1;fill-rule:nonzero;stroke:none"
         d="m 12650.5,7747.5 c 6.1,-18.3 152.6,-567.4 158.7,-695.5 6.1,-128.1 -330,-482 -268.7,-872.5 61.2,-390.5 213.9,-781 268.7,-1031.2 54.9,-250.1 34.5,-384.4 34.5,-384.4 h 404.8 c 0,0 73.2,1104.4 109.8,1415.6 36.6,311.1 61,683.3 61,683.3 0,0 109.8,280.7 97.6,396.6 -12.2,116 1,557.2 1,557.2 l -867.4,-69.1" /><path
         id="path128"
         style="fill:#b36239;fill-opacity:1;fill-rule:nonzero;stroke:none"
         d="m 11959,6692 c 0,0 -168.8,176.9 50.9,378.3 0,0 -89.5,-164.8 -50.9,-378.3" /><path
         id="path130"
         style="fill:#b36239;fill-opacity:1;fill-rule:nonzero;stroke:none"
         d="m 13118.4,6884.9 c 0,0 -196.5,145.5 -14.5,381.4 0,0 -60,-177.6 14.5,-381.4" /><path
         id="path132"
         style="fill:#252323;fill-opacity:1;fill-rule:nonzero;stroke:none"
         d="m 11619.4,10444.4 c 0,0 -268.5,-301 -235.9,-764.7 32.5,-463.8 48.8,-797.3 65,-1147.1 16.3,-349.8 89.5,-968.1 89.5,-968.1 0,0 349.8,-57 675.3,-40.7 325.4,16.3 512.5,-2.9 512.5,-2.9 v 124.9 c 0,0 650.8,8.2 927.4,73.3 0,0 105.7,919.2 0,1505 -105.8,585.7 -333.6,1122.7 -333.6,1122.7 0,0 -1025,325.4 -1057.5,305 -32.6,-20.3 -642.7,-207.4 -642.7,-207.4" /><path
         id="path134"
         style="fill:#c37140;fill-opacity:1;fill-rule:nonzero;stroke:none"
         d="m 12998.3,13369 135.4,-59.3 c 0,0 288.8,10.5 414.9,-217.3 126.1,-227.8 97.6,-703.7 97.6,-703.7 l 93.6,-530.9 447.4,323.5 183,-207.5 c 0,0 -203.3,-480 -353.8,-691.5 -150.5,-211.5 -370.2,-357.9 -447.5,-374.2 -77.3,-16.3 -330.6,166.8 -330.6,166.8 l -335,1521.2 95,772.9" /><path
         id="path136"
         style="fill:#a45634;fill-opacity:1;fill-rule:nonzero;stroke:none"
         d="m 13238.3,13185.9 c 4.1,-12.1 166.8,-382.3 166.8,-382.3 0,0 -73.3,4.1 -83.4,20.3 -10.2,16.3 -83.4,362 -83.4,362" /><path
         id="path138"
         style="fill:#c37140;fill-opacity:1;fill-rule:nonzero;stroke:none"
         d="m 12046.5,14119.3 c 0,0 -36.6,-355.7 -65.1,-400.5 -28.5,-44.7 -122,-89.5 -187.1,-146.4 0,0 246.1,-236 465.7,-473.9 219.7,-238 464.5,-238 604.4,-189.1 140,48.8 37.5,494.2 37.5,494.2 0,0 -92.7,49.3 -98.8,97.9 -6.1,48.5 2.3,259 2.3,259 0,0 -545.4,771.8 -569.8,790.1 -24.4,18.3 -219.6,-36.9 -231.8,-82.5 -12.2,-45.6 42.7,-348.8 42.7,-348.8" /><path
         id="path140"
         style="fill:#a45634;fill-opacity:1;fill-rule:nonzero;stroke:none"
         d="m 13405.1,11497.9 c -6.5,-49.4 147.5,224.6 334.7,359.9 l -17.6,99.7 c 0,0 -281.7,-187.1 -317.1,-459.6" /><path
         id="path142"
         style="fill:#b36239;fill-opacity:1;fill-rule:nonzero;stroke:none"
         d="m 13693.5,11343.2 c -14.5,0 242.6,210.5 335.1,451.6 0,0 -1.7,-370.1 -334.4,-451.5 -0.3,0 -0.5,-0.1 -0.7,-0.1" /><path
         id="path144"
         style="fill:#a45634;fill-opacity:1;fill-rule:nonzero;stroke:none"
         d="m 12799,13259.2 c 0,0 59.6,65.1 81.3,65.1 21.7,0 127.3,10.8 127.3,10.8 0,0 -115.7,29.8 -143.2,24.4 -27.4,-5.4 -65.4,-100.3 -65.4,-100.3" /><path
         id="path146"
         style="fill:#a45634;fill-opacity:1;fill-rule:nonzero;stroke:none"
         d="m 12709.5,13240.2 c -7.2,7.2 -85.5,100.4 -147.5,128.4 v 0 c -41.1,25.4 -346,488.4 -346,488.4 24.6,-102.1 173.8,-392.1 224.8,-489.5 -61.1,-11.9 -131.2,-30.7 -184.2,-32.4 -86.7,-2.7 -309.1,-32.5 -309.1,-32.5 0,0 214.2,-21.7 360.7,-13.6 146.4,8.1 214.2,16.3 244,13.6 29.9,-2.8 165.4,-70.5 157.3,-62.4" /><g
         transform="scale(1.00247)"
         id="g148"><path
           id="path150"
           style="fill:#100f0d;fill-opacity:1;fill-rule:nonzero;stroke:none"
           d="m 16259.4,5043.26 -2619.2,7407.14 40.7,14.4 2619.1,-7407.17 -40.6,-14.37" /></g><path
         id="path152"
         style="fill:#a45634;fill-opacity:1;fill-rule:nonzero;stroke:none"
         d="m 12430.5,12959.9 c 0,0 110.5,16.6 141.9,14.5 31.3,-2 69.9,-46.7 69.9,-46.7 0,0 71.2,2 91.5,0 20.4,-2.1 80,-32.5 80,-32.5 0,0 -114.9,-25.4 -238.6,5.2 -105.8,26.3 -144.7,59.5 -144.7,59.5" /><path
         id="path154"
         style="fill:#e9eef1;fill-opacity:1;fill-rule:nonzero;stroke:none"
         d="m 13453.9,12331.8 c 20.3,199.3 -8.2,366 -48.8,471.8 -40.7,105.8 -257.6,259.1 -306.4,340.5 -48.8,81.3 -100.4,224.9 -100.4,224.9 l -96.4,34.6 c 0,0 102.5,-445.4 -37.5,-494.2 -139.9,-48.9 -384.7,-48.9 -604.4,189.1 -219.6,237.9 -465.7,473.9 -465.7,473.9 l -134.2,-118 c 0,0 333.5,-357.9 423,-748.4 89.5,-390.5 -73.2,-756.6 -73.2,-756.6 l -390.5,-1505 c 0,0 231.4,-309.2 900.7,-301 669.4,8.1 799.5,170.8 799.5,203.4 0,32.5 -34.5,1232.4 -34.5,1232.4 l 6.1,433.2 c 0,0 142.3,120 162.7,319.4" /><path
         id="path156"
         style="fill:#c37140;fill-opacity:1;fill-rule:nonzero;stroke:none"
         d="m 12401.5,12724.3 c 4.1,18.3 24.4,120 42.7,136.2 18.3,16.3 101.7,109.9 128.2,113.9 26.4,4.1 40.6,-45.2 36.6,-90.7 -4.1,-45.5 0.6,-141.1 0.6,-141.1 0,0 107.2,-6.1 -12.8,-18.3 -120,-12.2 -148.5,-30.5 -154.6,-22.4 -6.1,8.1 -40.7,22.4 -40.7,22.4" /><path
         id="path158"
         style="fill:#c8cfd2;fill-opacity:1;fill-rule:nonzero;stroke:none"
         d="m 12109.2,12315.7 c 0,0 149.6,-126.3 257,-154.8 107.4,-28.5 404.3,32.5 404.3,32.5 0,0 -116.2,-122 -330.6,-109.8 -214.5,12.2 -349.3,115.6 -349.3,115.6 l 18.6,116.5" /><path
         id="path160"
         style="fill:#c8cfd2;fill-opacity:1;fill-rule:nonzero;stroke:none"
         d="m 13384.9,12128.3 c 3,6.3 -69.3,-32.5 -175.1,-20.3 -105.7,12.2 -231.8,91.2 -231.8,91.2 0,0 122,-184.7 313.2,-186.8 0,0 53.6,33.5 93.7,115.9" /><path
         id="path162"
         style="fill:#c37140;fill-opacity:1;fill-rule:nonzero;stroke:none"
         d="m 11660.1,13454.4 -104.7,-48.8 c 0,0 -366,-52.9 -427.1,-349.8 -61,-296.9 -24.4,-687.4 -24.4,-687.4 0,0 -24.4,-297 48.9,-573.6 73.2,-276.6 130.1,-504.4 150.5,-593.9 20.3,-89.4 302.7,-390.4 454.4,-357.9 151.6,32.5 245.2,276.6 416,447.4 170.9,170.9 532.9,792.4 532.9,792.4 l -340.4,165.5 c 0,0 -154.1,-176.9 -356.3,-298.9 0,0 196.2,362.7 60,807.7 -136.2,445.1 -409.8,697.3 -409.8,697.3" /><path
         id="path164"
         style="fill:#a45634;fill-opacity:1;fill-rule:nonzero;stroke:none"
         d="m 12728.6,13913.4 135.8,255.1 -59,-408 c 0,0 -108.2,-58.9 -370.4,76.5 -187.8,97 -259.1,337.1 -259.1,337.1 l 552.7,-260.7" /><path
         id="path166"
         style="fill:#b36239;fill-opacity:1;fill-rule:nonzero;stroke:none"
         d="m 11570.6,12128.3 c -160.1,0 -248.2,240.1 -248.2,240.1 0,0 150.8,-158.7 252.5,-158.7 1.3,0 2.5,0 3.8,0 101.7,4.1 248.1,158.7 248.1,158.7 0,0 -89.5,-236 -252.2,-240 -1.3,-0.1 -2.6,-0.1 -4,-0.1" /><path
         id="path168"
         style="fill:#b36239;fill-opacity:1;fill-rule:nonzero;stroke:none"
         d="m 11842.6,11313.1 c 0,0 306.6,226.7 374.6,511.8 0,0 24.6,-358.7 -374.6,-511.8" /><path
         id="path170"
         style="fill:#a45634;fill-opacity:1;fill-rule:nonzero;stroke:none"
         d="m 12055.8,12616.5 -108.3,-128.1 62.4,-539 45.9,133.4 -25.8,165.5 60.6,-49.1 18.6,116.5 c 0,0 -75.7,104.6 -80.8,107.1 -5.2,2.5 27.4,193.7 27.4,193.7" /><path
         id="path172"
         style="fill:#100f0d;fill-opacity:1;fill-rule:nonzero;stroke:none"
         d="m 12961.7,9517 c 0,0 -235.9,-203.4 -235.9,-252.2 0,-48.9 0,-1619 0,-1619 l 117.9,2.7 v 1583.7 l 118,284.8" /><g
         transform="scale(1.1342)"
         id="g174"><path
           id="path176"
           style="fill:#969797;fill-opacity:1;fill-rule:nonzero;stroke:none"
           d="m 15763.6,4539.22 -320.1,375.69 15.6,970.55 15.7,8102.34 204.4,133.6 v 204.3 l 102.1,62.9 z m 253.5,-1030.94 11.8,11080.72 h 66.8 l -10.5,294.6 h -235.7 l 5.2,-68.1 -282.9,-398.1 -2258.1,10.4 v -345.7 l 1928,15.7 -18.3,-9823.34 -141.5,-7.85 v -267.23 l 856.6,-1249.52 h 361.5 v 408.66 l -282.9,349.76" /></g><g
         transform="scale(1.0839)"
         id="g178"><path
           id="path180"
           style="fill:#969797;fill-opacity:1;fill-rule:nonzero;stroke:none"
           d="M 16300,4028.8 H 13948.1 V 3540.84 H 16300 v 487.96" /></g><g
         transform="scale(1.01864)"
         id="g182"><path
           id="path184"
           style="fill:#252323;fill-opacity:1;fill-rule:nonzero;stroke:none"
           d="m 16300,3767.68 h -215.8 V 4922.75 H 16300 V 3767.68" /></g><g
         transform="scale(1.00365)"
         id="g186"><path
           id="path188"
           style="fill:#252323;fill-opacity:1;fill-rule:nonzero;stroke:none"
           d="m 16262.3,15780.6 h -222.1 v 519.4 h 222.1 v -519.4" /></g><g
         transform="scale(1.01988)"
         id="g190"><path
           id="path192"
           style="fill:#100f0d;fill-opacity:1;fill-rule:nonzero;stroke:none"
           d="m 16260.5,5202.49 -643.8,10151.01 39.5,2.5 643.8,-10151.06 -39.5,-2.45" /></g><path
         id="path194"
         style="fill:#252323;fill-opacity:1;fill-rule:nonzero;stroke:none"
         d="m 12825.8,4416 c 0,0 -113.4,-459.1 -44.2,-519.1 69.3,-60 271.2,-20 375.8,-74 104.6,-54.1 578.9,-125.2 746.6,38.6 167.8,163.8 -476.6,461.1 -516,506.2 -39.4,45.2 -80.4,133.8 -111,176.5 -30.6,42.6 -146.3,54.9 -146.3,54.9 0,0 -56.8,93.9 -116.5,44 -59.8,-49.9 -188.4,-227.1 -188.4,-227.1" /><path
         id="path196"
         style="fill:#f5f6f5;fill-opacity:1;fill-rule:nonzero;stroke:none"
         d="m 13114.8,4600.7 c 0,0 -44.6,-6.2 -52.1,-34.8 -7.5,-28.6 -18.4,-85.6 -29.5,-114.3 -11,-28.8 -197.8,-22.5 -197.8,-22.5 l 8.3,334.8 h 404.8 v -196.8 c 0,0 -28.4,18.8 -133.7,33.6" /><path
         id="path198"
         style="fill:#252323;fill-opacity:1;fill-rule:nonzero;stroke:none"
         d="m 11526.7,4217 -13.3,-98 c 0,0 -46.8,-474.8 -32.6,-529.4 14.1,-54.6 171.4,-245.7 323.9,-303.6 152.5,-57.9 451.2,15.5 468.2,103.4 17,88 -266.6,546.6 -297,634.1 -30.4,87.5 -2.5,280 -40.1,310.7 -37.6,30.7 -87.9,17 -87.9,17 l -292.6,78.2 -28.6,-212.4" /><path
         id="path200"
         style="fill:#f5f6f5;fill-opacity:1;fill-rule:nonzero;stroke:none"
         d="m 11844.2,4347.1 c 0,0 -37.1,-0.1 -51.6,-45 -14.5,-44.8 -20.3,-62.8 -38.1,-74.9 -17.8,-12 -227.8,-10.2 -227.8,-10.2 l -5.7,257.7 392.9,4.5 -2.4,-131.2 -67.3,-0.9" /><g
         transform="scale(1.01253)"
         id="g202"><path
           id="path204"
           style="fill:#797a7b;fill-opacity:1;fill-rule:nonzero;stroke:none"
           d="m 16300,15551.9 c 0,-171.3 -139,-310.3 -310.3,-310.3 -171.4,0 -310.3,139 -310.3,310.3 0,171.4 138.9,310.3 310.3,310.3 171.3,0 310.3,-138.9 310.3,-310.3" /></g><g
         transform="scale(1.03044)"
         id="g206"><path
           id="path208"
           style="fill:#797a7b;fill-opacity:1;fill-rule:nonzero;stroke:none"
           d="m 16300,5095.19 c 0,-173.71 -140.8,-314.62 -314.6,-314.62 -173.8,0 -314.6,140.91 -314.6,314.62 0,173.81 140.8,314.63 314.6,314.63 173.8,0 314.6,-140.82 314.6,-314.63" /></g><g
         transform="scale(1.09959)"
         id="g210"><path
           id="path212"
           style="fill:#252323;fill-opacity:1;fill-rule:nonzero;stroke:none"
           d="m 15703.8,5069.62 v -833.77 l 363.6,-505 h 232.6 v 966 l -370.4,372.77 h -225.8" /></g><g
         transform="scale(1.10021)"
         id="g214"><path
           id="path216"
           style="fill:#252323;fill-opacity:1;fill-rule:nonzero;stroke:none"
           d="m 15730.7,6516.82 340.1,-284.67 h 229.2 v 1286.66 l -369.7,166.33 h -199.6 V 6516.82" /></g><path
         id="path218"
         style="fill:#c37140;fill-opacity:1;fill-rule:nonzero;stroke:none"
         d="m 14187.2,12181.3 c 0,0 33.9,31.1 33.9,42 0,10.8 29.8,179 78.6,227.8 48.8,48.8 108.5,84 116.6,94.9 8.2,10.8 21.7,62.4 13.6,97.6 -8.1,35.3 -56.9,51.5 -46.1,94.9 10.8,43.4 75.9,29.8 75.9,29.8 0,0 8.2,48.9 48.8,57 40.7,8.1 62.4,0 62.4,0 0,0 27.1,51.5 65.1,46.1 38,-5.4 89.5,-43.4 89.5,-43.4 0,0 21.7,24.4 56.9,10.9 35.3,-13.6 127.5,-282.1 119.3,-363.4 -8.1,-81.4 -531.5,-501.7 -531.5,-501.7 l -183,38.6 v 168.9" /><path
         id="path220"
         style="fill:#a45634;fill-opacity:1;fill-rule:nonzero;stroke:none"
         d="m 14555.3,12551.4 c -2.2,-9.9 -14.2,151.2 -95.6,216.9 l 15.4,35.3 c 0,0 112.8,-103.7 80.2,-252.2" /><path
         id="path222"
         style="fill:#a45634;fill-opacity:1;fill-rule:nonzero;stroke:none"
         d="m 14570.9,12825.3 c 0,0 86.1,-50.2 90.2,-221 0,0 38,163.4 -71.5,246.4 l -18.7,-25.4" /><path
         id="path224"
         style="fill:#a45634;fill-opacity:1;fill-rule:nonzero;stroke:none"
         d="m 14725.5,12828 c 0,0 43.4,-69.1 57.6,-211.5 0,0 19.7,134.6 -28.8,225.9 l -28.8,-14.4" /><path
         id="path226"
         style="fill:#a45634;fill-opacity:1;fill-rule:nonzero;stroke:none"
         d="m 11352.1,11327.1 c -6.1,-15.7 126.1,215.5 301,357.9 174.9,142.4 356.8,264.4 356.8,264.4 l 45.9,133.4 c 0,0 -516.6,-271.7 -703.7,-755.7" /><path
         id="path228"
         style="fill:#797a7b;fill-opacity:1;fill-rule:nonzero;stroke:none"
         d="m 12366.2,12803.6 c 0,0 -84,-94.9 0,-223.7 l 2093.5,-61 c 0,0 90,68 81.5,97.6 -8.4,29.6 -157,96.8 -157,96.8 l -2018,90.3" /><path
         id="path230"
         style="fill:#c37140;fill-opacity:1;fill-rule:nonzero;stroke:none"
         d="m 12366.2,12248.3 c 0,0 24.3,50.9 0,135 -24.3,84 0,196.6 0,196.6 0,0 241.4,-17.6 249.5,0 8.2,17.6 32.6,14.9 43.4,81.3 10.9,66.5 0,129.3 0,129.3 h -37.9 c 0,0 -5.5,97.2 67.8,113.4 73.2,16.3 124.8,-8.7 124.8,-8.7 0,0 51.6,19.1 89.5,14.2 37.9,-4.8 74.7,-48.9 74.7,-48.9 0,0 71.3,-51.5 85,-88.1 13.7,-36.6 20.9,-196.2 -43.2,-305.1 -64.2,-108.8 -313.2,-384.5 -313.2,-384.5 l -202,-11.4 -138.4,176.9" /><path
         id="path232"
         style="fill:#a45634;fill-opacity:1;fill-rule:nonzero;stroke:none"
         d="m 12770.5,12472.8 c 0,0 33.4,46.2 43.9,178.3 10.4,132 -0.6,244.1 -0.6,244.1 l 50.6,14.2 c 0,0 10.7,-275.3 -93.9,-436.6" /><path
         id="path234"
         style="fill:#a45634;fill-opacity:1;fill-rule:nonzero;stroke:none"
         d="m 12978,12860.5 c 0,0 7.2,-158.6 -11.1,-256.2 -18.3,-97.6 -59,-172.9 -50.8,-160.7 8.1,12.2 65.1,83.4 83.4,172.9 18.3,89.5 15.9,213.6 15.9,213.6 l -37.4,30.4" /><path
         id="path236"
         style="fill:#797a7b;fill-opacity:1;fill-rule:nonzero;stroke:none"
         d="m 13536.4,12551 c 12.1,-5.6 56.9,-134.8 181,-128.2 124.1,6.6 174.9,163.2 168.8,163.2 -6.1,0 -349.8,-35 -349.8,-35" /><path
         id="path238"
         style="fill:#b36239;fill-opacity:1;fill-rule:nonzero;stroke:none"
         d="m 12888.3,5481.7 c 111,396.3 69.7,757.9 69.7,757.9 182.4,-500.6 -69.7,-757.9 -69.7,-757.9" /><g
         transform="scale(1.1342)"
         id="g240"><path
           id="path242"
           style="fill:#969797;fill-opacity:1;fill-rule:nonzero;stroke:none"
           d="m 16017.1,3508.28 11.8,11080.72 h 66.8 l -10.5,294.6 h -235.7 l 5.2,-68.1 -282.9,-398.1 h -3.4 v -368.5 l 110.8,72.5 v 204.3 l 102.1,62.9 -17.7,-9849.38 -12.3,-1516.3 187.2,-273.06 h 361.5 v 408.66 l -282.9,349.76" /></g><path
         id="path244"
         style="fill:#2f1d16;fill-opacity:1;fill-rule:nonzero;stroke:none"
         d="m 12893.2,15025.9 c 0,0 1.8,8.5 3.4,23.3 6,45.1 16.8,144.6 3.7,198.5 -17.4,71.1 -89.1,97.5 -122.2,151.7 -33,54.1 -129.7,61.1 -170.1,71.2 -40.4,10 -124.1,40.3 -173.8,40.7 -49.8,0.3 -108.8,1.3 -127.1,-8.4 -18.4,-9.6 -108.1,-5.3 -138.2,-11.1 -30.1,-5.8 -82.1,-41.9 -104.5,-53.3 -22.4,-11.4 -43,-17.2 -78.5,-30.6 -35.6,-13.4 -42.7,-64.1 -58.4,-93.3 -15.8,-29.1 -16.8,-13.2 -62.5,-48.2 -45.7,-35.1 -46.9,-125.1 -46.9,-125.1 0,0 -62.5,-48.2 -68,-65.2 -5.5,-16.9 0,0 -42.5,-82.8 -42.5,-82.8 10.3,-133.1 -15,-180.2 -25.3,-47.1 23.5,-90.7 27,-99.2 3.5,-8.5 11.1,-61.7 16.2,-122.6 4.7,-55.3 65.7,-113.3 113.2,-197.3 4.7,-9.1 9.4,-17.9 13.9,-26.2 48.4,-98.5 183.6,-248.5 183.6,-248.5 0,0 85.1,289.2 146.4,362.8 61.4,73.6 373.9,209.9 385.7,254.1 11.7,44.1 314.6,289.7 314.6,289.7" /><path
         id="path246"
         style="fill:#c37140;fill-opacity:1;fill-rule:nonzero;stroke:none"
         d="m 12829.4,15092.3 c 0,0 50.8,-46.9 63.8,-66.4 13,-19.6 53,-210.1 64.5,-258.1 11.5,-48 10.2,-115.9 14.3,-139.3 4,-23.5 31.9,-167 35.3,-224.4 3.4,-57.4 -21.5,-287.3 -31.9,-348.7 -10.4,-61.5 -27,-143.3 -52.5,-163.8 -25.5,-20.5 -148,-48 -263.3,-33.9 -115.2,14 -354.6,122.7 -425.7,189.5 -71.1,66.7 -90.7,227.7 -90.7,227.7 0,0 -43.3,-20.3 -98.3,18.6 -55,38.9 -147.6,127.7 -151.4,243.1 -3.7,115.4 89.4,89.5 141,51.6 51.7,-37.8 65.1,-106.4 74.7,-106.4 9.7,0.1 18.5,4.8 23,7.2 4.4,2.4 6.4,121.9 3.9,145.7 -2.4,23.7 -31.3,163.8 -29,169.1 2.3,5.2 94.7,166.1 129.9,186.6 35.1,20.6 592.4,101.9 592.4,101.9" /></g></g></svg>