<?xml version="1.0" encoding="UTF-8" standalone="no"?>
<svg
   xmlns:dc="http://purl.org/dc/elements/1.1/"
   xmlns:cc="http://creativecommons.org/ns#"
   xmlns:rdf="http://www.w3.org/1999/02/22-rdf-syntax-ns#"
   xmlns:svg="http://www.w3.org/2000/svg"
   xmlns="http://www.w3.org/2000/svg"
   viewBox="0 0 2666.6667 2666.6667"
   height="2666.6667"
   width="2666.6667"
   xml:space="preserve"
   id="svg2"
   version="1.1"><metadata
     id="metadata8"><rdf:RDF><cc:Work
         rdf:about=""><dc:format>image/svg+xml</dc:format><dc:type
           rdf:resource="http://purl.org/dc/dcmitype/StillImage" /></cc:Work></rdf:RDF></metadata><defs
     id="defs6" /><g
     transform="matrix(1.3333333,0,0,-1.3333333,0,2666.6667)"
     id="g10"><g
       transform="scale(0.1)"
       id="g12"><g
         transform="scale(1.22699)"
         id="g14"><path
           id="path16"
           style="fill:none;fill-opacity:1;fill-rule:nonzero;stroke:none"
           d="M 16300,0 H 0 V 16300 H 16300 V 0" /></g><path
         id="path18"
         style="fill:#100f0d;fill-opacity:1;fill-rule:nonzero;stroke:none"
         d="m 7668.55,9979.4 -1032.17,221.7 c 0,0 -20.34,106.7 37.77,159 L 7782.7,10116 7668.55,9979.4" /><path
         id="path20"
         style="fill:#c1bfbd;fill-opacity:1;fill-rule:nonzero;stroke:none"
         d="m 6674.15,10360.1 94.04,-20.7 c -15.08,-35.6 -34.7,-89.7 -48.59,-156.2 l -83.22,17.9 c 0,0 -20.34,106.7 37.77,159" /><path
         id="path22"
         style="fill:#434244;fill-opacity:1;fill-rule:nonzero;stroke:none"
         d="m 7801.59,10749.5 366.12,-825.3 c 0,0 -20.34,-188.8 -113.32,-241.1 -92.99,-52.3 -256.29,-32 -298.13,23.2 -41.85,55.2 -358.57,810.7 -358.57,810.7 l 403.9,232.5" /><path
         id="path24"
         style="fill:#4c4d4e;fill-opacity:1;fill-rule:nonzero;stroke:none"
         d="m 7801.59,10749.5 6.77,-15.3 -268.34,-154.4 c 0,0 316.73,-755.5 358.57,-810.7 28.58,-37.7 113.82,-59.2 194.63,-52.3 -11.28,-13.8 -24.14,-25.5 -38.83,-33.7 -92.99,-52.3 -256.28,-32 -298.13,23.2 -41.85,55.2 -358.57,810.7 -358.57,810.7 l 403.9,232.5" /><path
         id="path26"
         style="fill:#302f2f;fill-opacity:1;fill-rule:nonzero;stroke:none"
         d="m 7839.36,14137.6 c 0,0 -35.51,234.4 -88.46,280.9 -52.95,46.5 -165.31,62 -227.3,23.2 -61.99,-38.7 -846.54,-2780.1 -834.92,-2963 11.62,-182.9 139.48,-316.6 360.32,-316.6 0,0 662.51,1563.3 668.32,1592.3 5.81,29.1 33.58,790.4 33.58,790.4 l 144.64,616 -56.18,-23.2" /><path
         id="path28"
         style="fill:#434244;fill-opacity:1;fill-rule:nonzero;stroke:none"
         d="m 7523.6,14441.7 c 61.99,38.8 174.35,23.3 227.3,-23.2 0,0 -806.51,-2735.7 -800.7,-2876.9 4.01,-97.4 104.73,-178 166.87,-218.7 -41.9,-99 -68.07,-160.8 -68.07,-160.8 -220.84,0 -348.7,133.7 -360.32,316.6 -11.62,182.9 772.93,2924.3 834.92,2963" /><path
         id="path30"
         style="fill:#100f0d;fill-opacity:1;fill-rule:nonzero;stroke:none"
         d="m 2916.35,9979.4 1032.17,221.7 c 0,0 20.34,106.7 -37.77,159 L 2802.2,10116 2916.35,9979.4" /><path
         id="path32"
         style="fill:#c1bfbd;fill-opacity:1;fill-rule:nonzero;stroke:none"
         d="m 3910.75,10360.1 -94.04,-20.7 c 15.08,-35.6 34.7,-89.7 48.59,-156.2 l 83.22,17.9 c 0,0 20.34,106.7 -37.77,159" /><path
         id="path34"
         style="fill:#c37140;fill-opacity:1;fill-rule:nonzero;stroke:none"
         d="m 3156.22,10287.9 c 0,0 -50.37,-32.4 -60.05,-51.8 -9.69,-19.3 0,-52.9 0,-52.9 l 27.87,3.7 c 0,0 83.51,-198.7 108.21,-207.5 24.7,-8.7 69.74,0 69.74,0 0,0 10.17,-53.7 36.32,-55.2 26.15,-1.4 135.12,-4.3 164.18,16 29.05,20.4 100.88,93 104.92,123.5 4.04,30.5 0,64.2 0,64.2 l -24.85,-5.4 c 0,0 -7.43,188.2 -37.94,237.6 -30.51,49.4 -158.95,90.1 -161.56,90.1 -2.61,0 -136.28,-71.2 -145,-74.1 -8.71,-2.9 -81.84,-88.2 -81.84,-88.2" /><path
         id="path36"
         style="fill:#434244;fill-opacity:1;fill-rule:nonzero;stroke:none"
         d="m 2783.31,10749.5 -366.12,-825.3 c 0,0 20.34,-188.8 113.32,-241.1 92.99,-52.3 256.29,-32 298.13,23.2 41.85,55.2 358.57,810.7 358.57,810.7 l -403.9,232.5" /><path
         id="path38"
         style="fill:#4c4d4e;fill-opacity:1;fill-rule:nonzero;stroke:none"
         d="m 2783.31,10749.5 -6.77,-15.3 268.34,-154.4 c 0,0 -316.73,-755.5 -358.57,-810.7 -28.58,-37.7 -113.83,-59.2 -194.63,-52.3 11.28,-13.8 24.14,-25.5 38.83,-33.7 92.99,-52.3 256.28,-32 298.13,23.2 41.85,55.2 358.57,810.7 358.57,810.7 l -403.9,232.5" /><path
         id="path40"
         style="fill:#302f2f;fill-opacity:1;fill-rule:nonzero;stroke:none"
         d="m 2745.54,14137.6 c 0,0 35.51,234.4 88.46,280.9 52.95,46.5 165.31,62 227.3,23.2 61.99,-38.7 846.54,-2780.1 834.92,-2963 -11.62,-182.9 -139.48,-316.6 -360.32,-316.6 0,0 -662.51,1563.3 -668.32,1592.3 -5.81,29.1 -33.58,790.4 -33.58,790.4 l -144.64,616 56.18,-23.2" /><path
         id="path42"
         style="fill:#c37140;fill-opacity:1;fill-rule:nonzero;stroke:none"
         d="m 6221.82,10505.4 77.49,278.9 c 0,0 286.7,-143.3 453.3,-193.7 166.6,-50.3 422.3,-62 422.3,-62 l 26.93,428.6 c 0,0 -278.95,179.7 -490.01,241.7 0,0 -243.98,195.7 -427.05,204.4 -183.06,8.7 -325.47,-43 -406.84,-57.2 -81.36,-14.2 -182.15,-128.8 -186.94,-201.4 -4.8,-72.7 9.73,-441.7 70.75,-523.1 61.02,-81.3 52.3,-110.4 168.53,-116.2 116.23,-5.8 291.54,0 291.54,0" /><path
         id="path44"
         style="fill:#a45330;fill-opacity:1;fill-rule:nonzero;stroke:none"
         d="m 6299.31,10784.3 c 0,0 -72.64,64 -113.32,107.6 0,0 -63.66,-153.8 -127.72,-244 l 75.22,-60.3 88.33,211.3 72.26,-33.4 5.23,18.8" /><path
         id="path46"
         style="fill:#c37140;fill-opacity:1;fill-rule:nonzero;stroke:none"
         d="m 4363.08,10505.4 -77.49,278.9 c 0,0 -286.7,-143.3 -453.3,-193.7 -166.6,-50.3 -422.3,-62 -422.3,-62 l -26.93,428.6 c 0,0 278.95,179.7 490.01,241.7 0,0 243.98,195.7 427.05,204.4 183.06,8.7 322.54,-58.8 403.9,-73 81.36,-14.2 185.09,-113 189.88,-185.6 4.8,-72.7 -9.73,-441.7 -70.75,-523.1 -61.02,-81.3 -52.3,-110.4 -168.53,-116.2 -116.23,-5.8 -291.54,0 -291.54,0" /><path
         id="path48"
         style="fill:#dc8458;fill-opacity:1;fill-rule:nonzero;stroke:none"
         d="m 3828.42,11148.5 -89.11,-153 c 0,0 185.97,216.9 364.19,308 172.38,88.1 358.09,86.9 370.06,86.8 -52.26,9.8 -110.18,16 -173.44,13 -183.07,-8.7 -427.05,-204.4 -427.05,-204.4 -211.06,-62 -490.01,-241.7 -490.01,-241.7 l 0.95,-15 444.41,206.3" /><path
         id="path50"
         style="fill:#adadab;fill-opacity:1;fill-rule:nonzero;stroke:none"
         d="m 2658.37,15282.4 c 0,0 1449.05,-104.6 2648.14,-104.6 1199.08,0 2617.09,104.6 2617.09,104.6 v -639.2 c 0,0 -1131.26,-58.1 -2617.09,-58.1 -1485.84,0 -2648.14,69.7 -2648.14,69.7 v 627.6" /><path
         id="path52"
         style="fill:#adadab;fill-opacity:1;fill-rule:nonzero;stroke:none"
         d="m 1899.96,14268.3 897.88,-14.5 c 0,0 81.36,-206.3 0,-421.3 h -883.35 c 0,0 -116.23,209.2 -14.53,435.8" /><path
         id="path54"
         style="fill:#adadab;fill-opacity:1;fill-rule:nonzero;stroke:none"
         d="m 8692.72,14268.3 -897.87,-14.5 c 0,0 -81.37,-206.3 0,-421.3 h 883.35 c 0,0 116.23,209.2 14.52,435.8" /><path
         id="path56"
         style="fill:#252323;fill-opacity:1;fill-rule:nonzero;stroke:none"
         d="m 8453.48,15247.6 79.43,93 v 89.1 l -629.58,158.8 V 15480 l 550.15,-232.4" /><path
         id="path58"
         style="fill:#adadab;fill-opacity:1;fill-rule:nonzero;stroke:none"
         d="m 9747.51,7030.1 c 0,0 23.25,-151.1 0,-251.8 h -953.08 v 251.8 h 953.08" /><path
         id="path60"
         style="fill:#252323;fill-opacity:1;fill-rule:nonzero;stroke:none"
         d="m 8678.2,6704.7 h 209.21 V 7096 H 8678.2 v -391.3" /><path
         id="path62"
         style="fill:#adadab;fill-opacity:1;fill-rule:nonzero;stroke:none"
         d="m 9710.71,9501.8 c 0,0 23.24,-151.1 0,-251.8 h -953.09 v 251.8 h 953.09" /><path
         id="path64"
         style="fill:#252323;fill-opacity:1;fill-rule:nonzero;stroke:none"
         d="m 8641.39,9176.4 h 209.21 v 391.3 h -209.21 v -391.3" /><path
         id="path66"
         style="fill:#adadab;fill-opacity:1;fill-rule:nonzero;stroke:none"
         d="m 9660.34,12039.4 c 0,0 23.25,-151.1 0,-251.9 h -953.09 v 251.9 h 953.09" /><path
         id="path68"
         style="fill:#252323;fill-opacity:1;fill-rule:nonzero;stroke:none"
         d="m 8591.02,11713.9 h 209.22 v 391.3 h -209.22 v -391.3" /><path
         id="path70"
         style="fill:#252323;fill-opacity:1;fill-rule:nonzero;stroke:none"
         d="m 8672.38,5745.8 75.55,-40.7 c 0,0 113.33,2.9 171.44,-127.9 58.12,-130.7 -156.91,-264.4 -156.91,-264.4 0,0 -156.61,-30.2 -174.19,76.4 -17.59,106.7 84.11,356.6 84.11,356.6" /><path
         id="path72"
         style="fill:#adadab;fill-opacity:1;fill-rule:nonzero;stroke:none"
         d="m 8747.93,5705.1 c 0,0 98.8,-87.2 101.71,-159.8 2.9,-72.7 -116.24,-171.5 -124.95,-154 -8.72,17.4 -122.04,55.2 -119.14,139.4 2.91,84.3 142.38,174.4 142.38,174.4" /><path
         id="path74"
         style="fill:#c1bfbd;fill-opacity:1;fill-rule:nonzero;stroke:none"
         d="m 7903.33,15480 205.34,-10106.2 100.73,-238.3 67.8,-505.6 627.65,58.2 c 0,0 -151.11,987.9 -156.92,1017 -5.81,29 -215.02,9635.5 -215.02,9635.5 l -629.58,139.4" /><path
         id="path76"
         style="fill:#252323;fill-opacity:1;fill-rule:nonzero;stroke:none"
         d="m 8904.85,4688.1 v -168.6 c 0,0 -83.3,-96.8 -145.29,-104.6 -61.99,-7.7 -355.47,0 -355.47,0 0,0 -90.08,65.9 -117.2,112.4 -27.12,46.5 -9.69,102.6 -9.69,102.6 0,0 -17.43,71.7 48.43,122.1 65.86,50.4 488.17,0 488.17,0 0,0 61.99,0 91.05,-63.9" /><path
         id="path78"
         style="fill:#adadab;fill-opacity:1;fill-rule:nonzero;stroke:none"
         d="m 8428.63,14264.1 264.09,4.2 c 101.71,-226.6 -14.52,-435.8 -14.52,-435.8 h -247.96 c -92.3,169.3 -13.87,398.2 -1.61,431.6" /><path
         id="path80"
         style="fill:#252323;fill-opacity:1;fill-rule:nonzero;stroke:none"
         d="m 8618.14,14058.2 c 0,-86.7 19.08,-156.9 42.62,-156.9 23.54,0 42.62,70.2 42.62,156.9 0,86.6 -19.08,156.9 -42.62,156.9 -23.54,0 -42.62,-70.3 -42.62,-156.9" /><path
         id="path82"
         style="fill:#adadab;fill-opacity:1;fill-rule:nonzero;stroke:none"
         d="m 4332.08,5906.5 c 11.62,0 123.98,-96.8 123.98,-96.8 0,0 -350.53,-31 -553.01,-77.5 -202.49,-46.5 -1519.76,-596.7 -1519.76,-596.7 l 46.49,385.5 c 0,0 1154.55,443.7 1371.52,490.1 216.96,46.5 654.76,65.9 654.76,65.9 l -123.98,-170.5" /><path
         id="path84"
         style="fill:#adadab;fill-opacity:1;fill-rule:nonzero;stroke:none"
         d="m 2484.02,7541.5 58.12,604.4 1772.51,360.3 -277.02,-592.7 -1553.61,-372" /><path
         id="path86"
         style="fill:#adadab;fill-opacity:1;fill-rule:nonzero;stroke:none"
         d="m 6287.04,5906.5 c -11.62,0 -123.98,-96.8 -123.98,-96.8 0,0 350.54,-31 553.02,-77.5 202.48,-46.5 1519.76,-596.7 1519.76,-596.7 l -46.49,385.5 c 0,0 -1154.56,443.7 -1371.52,490.1 -216.96,46.5 -654.77,65.9 -654.77,65.9 l 123.98,-170.5" /><path
         id="path88"
         style="fill:#adadab;fill-opacity:1;fill-rule:nonzero;stroke:none"
         d="m 8135.11,7541.5 -58.12,604.4 -1772.51,360.3 277.01,-592.7 1553.62,-372" /><path
         id="path90"
         style="fill:#adadab;fill-opacity:1;fill-rule:nonzero;stroke:none"
         d="m 5430.46,6077 h -238.27 v 395.2 h 238.27 V 6077" /><path
         id="path92"
         style="fill:#adadab;fill-opacity:1;fill-rule:nonzero;stroke:none"
         d="M 6235.54,5809.7 H 4456.06 V 6077 h 1779.48 v -267.3" /><path
         id="path94"
         style="fill:#252323;fill-opacity:1;fill-rule:nonzero;stroke:none"
         d="m 5459.52,7061.1 h -302.2 v -588.9 h 302.2 v 588.9" /><path
         id="path96"
         style="fill:#838585;fill-opacity:1;fill-rule:nonzero;stroke:none"
         d="m 5533.13,7037.8 h -464.92 v 910.5 h 464.92 v -910.5" /><path
         id="path98"
         style="fill:#c37140;fill-opacity:1;fill-rule:nonzero;stroke:none"
         d="m 4037.63,8149.8 -42.62,-313.4 c 0,0 -43.58,-122 -39.22,-251.3 4.35,-129.3 27.6,-215 27.6,-215 0,0 -20.34,-447.5 2.91,-645.1 23.24,-197.6 200.49,-783.6 210.18,-876.6 9.69,-93 -8.72,-183 -2.91,-235.3 5.81,-52.3 10.66,-84.3 10.66,-84.3 0,0 -134.63,-219.9 -208.25,-294.5 -73.61,-74.5 -100.73,-178.2 -91.04,-202.4 9.68,-24.2 38.74,-25.2 38.74,-25.2 0,0 10.65,-25.2 29.06,-32.9 18.4,-7.8 46.49,-7.8 46.49,-7.8 0,0 13.56,-17.4 39.71,-19.3 26.15,-2 56.18,0 56.18,0 0,0 16.46,-27.1 67.8,-29.1 51.33,-1.9 81.36,34.9 111.39,55.2 30.02,20.4 95.89,62.5 116.23,135.1 20.34,72.7 43.58,110.5 103.15,151.1 59.57,40.7 82.81,135.2 69.74,191.8 -13.08,56.7 -26.15,48 -26.15,122.1 0,74.1 -11.63,145.3 -33.42,203.4 -21.79,58.1 0,437.3 37.78,614.5 37.77,177.3 59.36,470.8 25.32,700.3 -34.04,229.6 -106.68,409.7 -103.78,444.6 2.91,34.9 281.86,229.6 310.92,305.1 29.05,75.6 -130.76,441.7 -287.67,470.7 -156.91,29.1 -325.45,23.3 -366.13,0 -40.68,-23.2 -102.67,-161.7 -102.67,-161.7" /><path
         id="path100"
         style="fill:#c37140;fill-opacity:1;fill-rule:nonzero;stroke:none"
         d="m 6548.21,8149.8 42.61,-313.4 c 0,0 43.59,-122 39.23,-251.3 -4.36,-129.3 -27.6,-215 -27.6,-215 0,0 20.34,-447.5 -2.91,-645.1 -23.25,-197.6 -200.5,-783.6 -210.18,-876.6 -9.69,-93 8.71,-183 2.9,-235.3 -5.81,-52.3 -10.65,-84.3 -10.65,-84.3 0,0 134.63,-219.9 208.24,-294.5 73.62,-74.5 100.74,-178.2 91.05,-202.4 -9.69,-24.2 -38.74,-25.2 -38.74,-25.2 0,0 -10.66,-25.2 -29.06,-32.9 -18.4,-7.8 -46.49,-7.8 -46.49,-7.8 0,0 -13.56,-17.4 -39.71,-19.3 -26.16,-2 -56.18,0 -56.18,0 0,0 -16.47,-27.1 -67.8,-29.1 -51.34,-1.9 -81.36,34.9 -111.39,55.2 -30.03,20.4 -95.89,62.5 -116.23,135.1 -20.34,72.7 -43.59,110.5 -103.15,151.1 -59.57,40.7 -82.82,135.2 -69.74,191.8 13.07,56.7 26.15,48 26.15,122.1 0,74.1 11.62,145.3 33.42,203.4 21.79,58.1 0,437.3 -37.78,614.5 -37.78,177.3 -59.37,470.8 -25.32,700.3 34.04,229.6 106.68,409.7 103.78,444.6 -2.91,34.9 -281.86,229.6 -310.92,305.1 -29.06,75.6 130.76,441.7 287.67,470.7 156.91,29.1 325.44,23.3 366.12,0 40.68,-23.2 102.68,-161.7 102.68,-161.7" /><path
         id="path102"
         style="fill:#100f0d;fill-opacity:1;fill-rule:nonzero;stroke:none"
         d="m 4794.1,7840.8 c 0,0 223.74,-10.6 281.86,0 58.11,10.7 116.22,53.3 154.97,64.9 38.74,11.6 139.47,23.3 182.09,0 42.62,-23.2 108.48,-69.5 182.1,-69.6 73.61,-0.1 298.32,41.5 298.32,41.5 0,0 -4.95,403.9 -105.14,504.6 -100.2,100.8 -282.29,209.3 -514.75,155 -232.46,-54.2 -503.67,-82.7 -542.41,-206 -38.74,-123.3 62.96,-490.4 62.96,-490.4" /><path
         id="path104"
         style="fill:#252323;fill-opacity:1;fill-rule:nonzero;stroke:none"
         d="m 4591.66,9285 -112.35,-251.9 c 0,0 -255.71,-286.7 -309.95,-395.1 -54.24,-108.5 -131.73,-488.2 -131.73,-488.2 0,0 185.97,0 368.07,-65.9 182.09,-65.8 391.3,-302.2 391.3,-302.2 0,0 116.23,151.1 178.22,275.1 61.99,124 189.85,240.2 201.47,248 11.62,7.7 251.83,23.2 282.83,11.6 30.99,-11.6 147.22,-182.1 185.96,-290.6 38.75,-108.5 255.71,-313.8 255.71,-313.8 0,0 236.34,317.7 674.13,255.7 0,0 -50.36,395.2 -65.86,472.7 -15.5,77.4 -209.1,406.8 -259.53,480.4 -50.42,73.6 -143.4,166.6 -166.65,193.7 -23.24,27.1 -58.11,135.6 -58.11,135.6 0,0 -631.52,178.2 -678.01,178.2 -46.49,0 -755.5,-143.3 -755.5,-143.3" /><path
         id="path106"
         style="fill:#e9eef1;fill-opacity:1;fill-rule:nonzero;stroke:none"
         d="m 4855.12,11397.4 -151.1,-67.1 c 0,0 23.24,-220.5 -34.87,-441.4 -58.12,-220.8 -306.07,-383.5 -306.07,-383.5 0,0 34.87,-220.8 112.35,-406.8 77.49,-186 92.99,-302.2 100.74,-348.7 7.74,-46.5 -19.38,-430.1 15.49,-464.9 34.87,-34.9 426.18,-116.3 736.13,-112.4 309.94,3.9 681.88,54.3 697.38,77.5 15.5,23.2 -7.75,511.4 0,554 7.75,42.6 112.36,333.2 170.47,519.2 58.12,186 45.92,190.6 45.92,190.6 0,0 -226.41,125.5 -324.91,324.3 -110.61,223.1 -38.71,507.9 -38.71,507.9 l -133.66,57.2 -889.16,-5.9" /><path
         id="path108"
         style="fill:#c37140;fill-opacity:1;fill-rule:nonzero;stroke:none"
         d="m 5025.59,11834.3 c 0,0 3.87,-234.4 0,-275.1 -3.88,-40.7 -170.47,-161.8 -170.47,-161.8 0,0 142.55,-459.3 446.28,-444.5 318.9,15.5 442.88,450.4 442.88,450.4 0,0 -116.23,97.4 -135.6,138.3 -19.37,40.8 -21.31,337.2 -21.31,337.2 l -561.78,-44.5" /><path
         id="path110"
         style="fill:#a45330;fill-opacity:1;fill-rule:nonzero;stroke:none"
         d="m 4942.29,11324.8 c 0,0 188.87,0 225.2,0 36.32,0 137.57,-30.5 137.57,-30.5 0,0 -88.18,66.8 -117.23,68.3 -29.06,1.4 -245.54,-37.8 -245.54,-37.8" /><path
         id="path112"
         style="fill:#a45330;fill-opacity:1;fill-rule:nonzero;stroke:none"
         d="m 5662.92,11337.9 c -4.36,0 -168.54,-4.3 -197.59,-9.4 -29.06,-5.1 -91.53,-34.2 -91.53,-34.2 0,0 24.69,52.4 77,68.3 52.3,16 212.12,-24.7 212.12,-24.7" /><path
         id="path114"
         style="fill:#100f0d;fill-opacity:1;fill-rule:nonzero;stroke:none"
         d="m 5617.05,8091 c -35.13,70.3 -85.55,147.5 -121.44,191 35.88,-43.5 86.29,-120.6 121.42,-191 0.02,0 0.02,0 0.02,0 m -121.48,191.1 c -0.08,0.1 -0.16,0.2 -0.24,0.3 0.08,-0.1 0.16,-0.2 0.24,-0.3 m -0.36,0.4 c -0.06,0.1 -0.12,0.2 -0.19,0.3 0.06,-0.1 0.13,-0.2 0.19,-0.3 m -0.35,0.5 c -0.06,0 -0.11,0.1 -0.18,0.2 0.06,-0.1 0.13,-0.2 0.18,-0.2 m -0.37,0.4 c -0.09,0.1 -0.18,0.2 -0.26,0.3 0.08,-0.1 0.17,-0.2 0.26,-0.3 m -0.45,0.5 c -0.05,0.1 -0.1,0.2 -0.15,0.2 0.05,0 0.1,-0.1 0.15,-0.2 m -0.34,0.4 c -0.05,0.1 -0.09,0.2 -0.14,0.2 0.05,0 0.1,-0.1 0.14,-0.2 m -0.39,0.5 c -0.02,0 -0.04,0.1 -0.07,0.1 0.02,0 0.05,-0.1 0.07,-0.1 m -0.76,0.9 c -0.01,0 -0.03,0.1 -0.04,0.1 0.01,0 0.03,-0.1 0.04,-0.1 m -0.37,0.5 h -0.01 0.01 m -28.64,28.1 c -0.01,0 -0.02,0 -0.02,0 0,0 0.01,0 0.02,0 m -0.22,0.1 c 0,0 -0.01,0 -0.02,0 0.01,0 0.01,0 0.02,0 m -0.64,0.4 c -0.01,0 -0.02,0 -0.03,0 0.01,0 0.02,0 0.03,0 m -0.21,0.1 c -0.01,0.1 -0.02,0.1 -0.03,0.1 0.01,0 0.02,0 0.03,-0.1 m -0.21,0.2 c -0.01,0 -0.01,0 -0.02,0 0.01,0 0.01,0 0.02,0 m -0.41,0.2 c -0.02,0 -0.03,0 -0.05,0 0.02,0 0.03,0 0.05,0 m -0.2,0.1 c -0.01,0 -0.03,0 -0.04,0 0.01,0 0.03,0 0.04,0 m -0.19,0.1 c -0.02,0 -0.03,0 -0.05,0 0.02,0 0.03,0 0.05,0 m -0.22,0.1 c -0.01,0 -0.01,0 -0.01,0 0,0 0,0 0.01,0 m -0.2,0.1 c -0.01,0 -0.03,0 -0.04,0 0.01,0 0.03,0 0.04,0 m -0.18,0.1 c -0.02,0 -0.04,0 -0.06,0 0.02,0 0.04,0 0.06,0 m -0.18,0.1 c -0.02,0 -0.04,0 -0.06,0 0.02,0 0.04,0 0.06,0 m -0.2,0.1 c -0.01,0 -0.02,0 -0.04,0 0.01,0 0.03,0 0.04,0 m -0.22,0.1 c -0.01,0 -0.02,0 -0.03,0 0.01,0 0.02,0 0.03,0 m -0.17,0.1 c -0.02,0 -0.04,0 -0.06,0 0.02,0 0.04,0 0.06,0 m -0.17,0 c -0.02,0 -0.05,0 -0.07,0 0.03,0 0.04,0 0.07,0 m -0.18,0.1 c -0.02,0 -0.04,0 -0.06,0 0.02,0 0.04,0 0.06,0" /><path
         id="path116"
         style="fill:#1e1c1b;fill-opacity:1;fill-rule:nonzero;stroke:none"
         d="m 4975.22,8056.8 c 0,0 154.98,344.8 158.85,360.3 3.87,15.5 -69.74,120.1 -69.74,120.1 0,0 108.93,-39.6 229.3,-39.6 10.03,0 20.15,0.3 30.28,0.9 131.73,7.7 216.97,38.7 216.97,38.7 0,0 -46.5,-62 -42.62,-89.1 3.84,-26.9 116.85,-351.6 118.77,-357.1 -35.13,70.4 -85.54,147.5 -121.42,191 -0.01,0.1 -0.03,0.1 -0.04,0.1 -0.08,0.1 -0.16,0.2 -0.24,0.3 -0.04,0 -0.08,0.1 -0.12,0.1 -0.06,0.1 -0.13,0.2 -0.19,0.3 -0.05,0 -0.11,0.1 -0.16,0.2 -0.05,0 -0.12,0.1 -0.18,0.2 -0.06,0 -0.13,0.1 -0.19,0.2 -0.09,0.1 -0.18,0.2 -0.26,0.3 -0.06,0.1 -0.13,0.2 -0.19,0.2 -0.05,0.1 -0.1,0.2 -0.15,0.2 -0.06,0.1 -0.13,0.2 -0.19,0.2 -0.04,0.1 -0.09,0.2 -0.14,0.2 -0.08,0.1 -0.17,0.2 -0.25,0.3 -0.02,0 -0.05,0.1 -0.07,0.1 -0.23,0.3 -0.46,0.5 -0.69,0.8 -0.01,0 -0.03,0.1 -0.04,0.1 -0.11,0.1 -0.22,0.2 -0.33,0.4 h -0.01 c -11.64,13.7 -21.55,23.6 -28.63,28.1 -0.01,0 -0.02,0 -0.02,0 -0.07,0.1 -0.13,0.1 -0.2,0.1 -0.01,0 -0.01,0 -0.02,0 -0.21,0.2 -0.42,0.3 -0.62,0.4 -0.01,0 -0.02,0 -0.03,0 -0.06,0.1 -0.12,0.1 -0.18,0.1 -0.01,0.1 -0.02,0.1 -0.03,0.1 -0.06,0 -0.12,0 -0.18,0.1 -0.01,0 -0.01,0 -0.02,0 -0.13,0.1 -0.26,0.1 -0.39,0.2 -0.02,0 -0.03,0 -0.05,0 -0.05,0 -0.1,0.1 -0.15,0.1 -0.01,0 -0.03,0 -0.04,0 -0.05,0.1 -0.1,0.1 -0.15,0.1 -0.02,0 -0.03,0 -0.05,0 -0.06,0.1 -0.11,0.1 -0.17,0.1 -0.01,0 -0.01,0 -0.01,0 -0.07,0.1 -0.13,0.1 -0.19,0.1 -0.01,0 -0.03,0 -0.04,0 -0.05,0.1 -0.09,0.1 -0.14,0.1 -0.02,0 -0.04,0 -0.06,0 -0.04,0.1 -0.08,0.1 -0.12,0.1 -0.02,0 -0.04,0 -0.06,0 -0.05,0 -0.09,0.1 -0.14,0.1 -0.01,0 -0.03,0 -0.04,0 -0.06,0 -0.12,0.1 -0.18,0.1 -0.01,0 -0.02,0 -0.03,0 -0.05,0 -0.09,0 -0.14,0.1 -0.02,0 -0.04,0 -0.06,0 -0.04,0 -0.07,0 -0.11,0 -0.03,0 -0.04,0 -0.07,0 -0.03,0.1 -0.07,0.1 -0.11,0.1 -0.02,0 -0.04,0 -0.06,0 -0.05,0 -0.11,0.1 -0.16,0.1 v 0 c -7.96,3 -29.69,4.2 -57.8,4.2 -81.44,0 -216.39,-10.1 -225.03,-15.8 -1.41,-1 -4.52,-3.5 -9.01,-7.4 -32.61,-28.7 -137.97,-131.6 -192.46,-240.6" /><path
         id="path118"
         style="fill:#252323;fill-opacity:1;fill-rule:nonzero;stroke:none"
         d="m 2139.2,15247.6 -79.42,93 v 89.1 l 629.58,158.8 V 15480 l -550.16,-232.4" /><path
         id="path120"
         style="fill:#adadab;fill-opacity:1;fill-rule:nonzero;stroke:none"
         d="m 845.176,7030.1 c 0,0 -23.246,-151.1 0,-251.8 h 953.084 v 251.8 H 845.176" /><path
         id="path122"
         style="fill:#252323;fill-opacity:1;fill-rule:nonzero;stroke:none"
         d="M 1914.49,6704.7 H 1705.28 V 7096 h 209.21 v -391.3" /><path
         id="path124"
         style="fill:#adadab;fill-opacity:1;fill-rule:nonzero;stroke:none"
         d="m 881.98,9501.8 c 0,0 -23.246,-151.1 0,-251.8 h 953.09 v 251.8 H 881.98" /><path
         id="path126"
         style="fill:#252323;fill-opacity:1;fill-rule:nonzero;stroke:none"
         d="m 1951.3,9176.4 h -209.22 v 391.3 h 209.22 v -391.3" /><path
         id="path128"
         style="fill:#adadab;fill-opacity:1;fill-rule:nonzero;stroke:none"
         d="m 932.348,12039.4 c 0,0 -23.246,-151.1 0,-251.9 h 953.082 v 251.9 H 932.348" /><path
         id="path130"
         style="fill:#252323;fill-opacity:1;fill-rule:nonzero;stroke:none"
         d="m 2001.66,11713.9 h -209.21 v 391.3 h 209.21 v -391.3" /><path
         id="path132"
         style="fill:#252323;fill-opacity:1;fill-rule:nonzero;stroke:none"
         d="m 1920.3,5745.8 -75.55,-40.7 c 0,0 -113.32,2.9 -171.44,-127.9 -58.11,-130.7 156.91,-264.4 156.91,-264.4 0,0 156.62,-30.2 174.2,76.4 17.59,106.7 -84.12,356.6 -84.12,356.6" /><path
         id="path134"
         style="fill:#adadab;fill-opacity:1;fill-rule:nonzero;stroke:none"
         d="m 1844.75,5705.1 c 0,0 -98.79,-87.2 -101.7,-159.8 -2.9,-72.7 116.23,-171.5 124.95,-154 8.72,17.4 122.04,55.2 119.14,139.4 -2.91,84.3 -142.39,174.4 -142.39,174.4" /><path
         id="path136"
         style="fill:#c1bfbd;fill-opacity:1;fill-rule:nonzero;stroke:none"
         d="m 2689.36,15480 -205.34,-10106.2 -100.73,-238.3 -67.8,-505.6 -627.65,58.2 c 0,0 151.1,987.9 156.91,1017 5.81,29 215.03,9635.5 215.03,9635.5 l 629.58,139.4" /><path
         id="path138"
         style="fill:#252323;fill-opacity:1;fill-rule:nonzero;stroke:none"
         d="m 1687.84,4688.1 v -168.6 c 0,0 83.3,-96.8 145.29,-104.6 61.99,-7.7 355.47,0 355.47,0 0,0 90.08,65.9 117.2,112.4 27.12,46.5 9.69,102.6 9.69,102.6 0,0 17.43,71.7 -48.43,122.1 -65.87,50.4 -488.17,0 -488.17,0 0,0 -61.99,0 -91.05,-63.9" /><path
         id="path140"
         style="fill:#adadab;fill-opacity:1;fill-rule:nonzero;stroke:none"
         d="m 2164.05,14264.1 -264.09,4.2 c -101.7,-226.6 14.53,-435.8 14.53,-435.8 h 247.96 c 92.3,169.3 13.87,398.2 1.6,431.6" /><path
         id="path142"
         style="fill:#252323;fill-opacity:1;fill-rule:nonzero;stroke:none"
         d="m 1974.54,14058.2 c 0,-86.7 -19.08,-156.9 -42.61,-156.9 -23.54,0 -42.62,70.2 -42.62,156.9 0,86.6 19.08,156.9 42.62,156.9 23.53,0 42.61,-70.3 42.61,-156.9" /><path
         id="path144"
         style="fill:#434244;fill-opacity:1;fill-rule:nonzero;stroke:none"
         d="m 3061.3,14441.7 c -61.99,38.8 -174.35,23.3 -227.3,-23.2 0,0 806.51,-2735.7 800.7,-2876.9 -4.01,-97.4 -104.73,-178 -166.87,-218.7 41.9,-99 68.07,-160.8 68.07,-160.8 220.84,0 348.7,133.7 360.32,316.6 11.62,182.9 -772.93,2924.3 -834.92,2963" /><path
         id="path146"
         style="fill:#100f0d;fill-opacity:1;fill-rule:nonzero;stroke:none"
         d="m 2594.44,10673.9 h -235.37 v 645.1 h 245.75 l -10.38,-645.1" /><path
         id="path148"
         style="fill:#a45330;fill-opacity:1;fill-rule:nonzero;stroke:none"
         d="m 4285.59,10784.3 c 0,0 72.64,64 113.32,107.6 0,0 63.66,-153.8 127.72,-244 l -71.73,-70.3 -91.82,221.3 -72.26,-33.4 -5.23,18.8" /><path
         id="path150"
         style="fill:#a45330;fill-opacity:1;fill-rule:nonzero;stroke:none"
         d="m 3700.56,10868.6 c 0,0 125.28,2.1 242.8,84.8 0,0 -37.46,-159.4 -242.8,-84.8" /><path
         id="path152"
         style="fill:#a45330;fill-opacity:1;fill-rule:nonzero;stroke:none"
         d="m 3229.35,10217.7 c 0,0 58.11,-168.5 63.92,-191.8 5.81,-23.2 8.72,-46.5 8.72,-46.5 l 7.7,-25.4 c 0,0 49.51,-6.5 67.4,10.9 17.89,17.4 20.79,33.4 20.79,33.4 0,0 29.06,-23.2 53.76,-18.9 24.7,4.4 29.06,27.7 29.06,27.7 0,0 45.03,0 58.11,10.1 13.08,10.2 43.75,105.3 43.75,105.3 0,0 -39.39,-73.3 -61.19,-79.1 -21.79,-5.8 -20.33,-10.2 -30.5,-5.8 -10.17,4.3 -49.4,235.7 -49.4,234.1 0,-1.7 26.15,-234.1 17.43,-239.9 -8.72,-5.9 -43.42,-16 -52.95,-4.4 -9.52,11.6 -76.35,236.8 -73.45,226.6 2.91,-10.1 79,-228.1 44.59,-244.1 -34.42,-15.9 -44.59,-20.3 -51.85,-13 -7.27,7.2 -95.89,220.8 -95.89,220.8" /><path
         id="path154"
         style="fill:#dc8458;fill-opacity:1;fill-rule:nonzero;stroke:none"
         d="m 6756.48,11148.5 89.11,-153 c 0,0 -185.97,216.9 -364.18,308 -172.39,88.1 -392.82,86.1 -404.79,85.9 52.26,9.9 144.9,16.9 208.16,13.9 183.07,-8.7 427.05,-204.4 427.05,-204.4 211.06,-62 490.01,-241.7 490.01,-241.7 l -0.95,-15 -444.41,206.3" /><path
         id="path156"
         style="fill:#a45330;fill-opacity:1;fill-rule:nonzero;stroke:none"
         d="m 6884.34,10868.6 c 0,0 -125.28,2.1 -242.8,84.8 0,0 37.46,-159.4 242.8,-84.8" /><path
         id="path158"
         style="fill:#c37140;fill-opacity:1;fill-rule:nonzero;stroke:none"
         d="m 7428.68,10287.9 c 0,0 50.37,-32.4 60.05,-51.8 9.69,-19.3 0,-52.9 0,-52.9 l -27.87,3.7 c 0,0 -83.51,-198.7 -108.21,-207.5 -24.7,-8.7 -69.74,0 -69.74,0 0,0 -10.17,-53.7 -36.32,-55.2 -26.15,-1.4 -135.12,-4.3 -164.18,16 -29.05,20.4 -100.88,93 -104.92,123.5 -4.04,30.5 0,64.2 0,64.2 l 24.85,-5.4 c 0,0 7.43,188.2 37.94,237.6 30.51,49.4 158.95,90.1 161.56,90.1 2.61,0 136.28,-71.2 145,-74.1 8.71,-2.9 81.84,-88.2 81.84,-88.2" /><path
         id="path160"
         style="fill:#a45330;fill-opacity:1;fill-rule:nonzero;stroke:none"
         d="m 7355.55,10217.7 c 0,0 -58.11,-168.5 -63.92,-191.8 -5.81,-23.2 -8.72,-46.5 -8.72,-46.5 l -7.7,-25.4 c 0,0 -49.51,-6.5 -67.39,10.9 -17.89,17.4 -20.8,33.4 -20.8,33.4 0,0 -29.06,-23.2 -53.76,-18.9 -24.7,4.4 -29.05,27.7 -29.05,27.7 0,0 -45.04,0 -58.12,10.1 -13.08,10.2 -43.75,105.3 -43.75,105.3 0,0 39.39,-73.3 61.19,-79.1 21.79,-5.8 20.34,-10.2 30.51,-5.8 10.17,4.3 49.39,235.7 49.39,234.1 0,-1.7 -26.15,-234.1 -17.43,-239.9 8.72,-5.9 43.42,-16 52.95,-4.4 9.52,11.6 76.35,236.8 73.45,226.6 -2.91,-10.1 -79,-228.1 -44.58,-244.1 34.41,-15.9 44.58,-20.3 51.84,-13 7.27,7.2 95.89,220.8 95.89,220.8" /><path
         id="path162"
         style="fill:#a45330;fill-opacity:1;fill-rule:nonzero;stroke:none"
         d="m 5152.14,11782.9 c -16.5,-2.4 -152.13,35 -135.57,7.7 16.57,-27.4 85.05,-174.6 129.99,-245.1 44.94,-70.6 165.22,-84.3 267.55,-45.6 102.32,38.7 170.8,272.5 170.8,272.5 l 12.52,180.9 -445.29,-170.4" /><path
         id="path164"
         style="fill:#2f1d16;fill-opacity:1;fill-rule:nonzero;stroke:none"
         d="m 4928.93,12186.3 c 9.04,16.8 -31.4,61.8 -41.19,108.5 -9.8,46.7 2.68,233.4 1.11,255 -1.57,21.7 36.29,88.2 43.43,108.2 7.14,20 52.49,99.8 80.93,121.3 28.42,21.6 111.82,34.5 146.88,46 35.05,11.6 101.84,39.6 163.49,32.7 61.64,-7 54.91,-21.9 98.23,-25.5 43.32,-3.5 109.84,-40.5 133.07,-63.9 23.23,-23.4 104.66,-78.8 131.18,-113.9 26.52,-35.1 37.11,-198.5 31.19,-260.2 -5.93,-61.6 -29.67,-153.2 -29.67,-153.2 l -13.51,-41 c 0,0 4.63,-84 -0.38,-85.6 -5,-1.7 78.17,-40.4 -118.54,-44.5 -196.7,-4.1 -423.37,1.9 -423.37,1.9 0,0 -148.37,-6.1 -181.55,29.1 -33.18,35.1 -21.3,85.1 -21.3,85.1" /><path
         id="path166"
         style="fill:#c37140;fill-opacity:1;fill-rule:nonzero;stroke:none"
         d="m 4937.97,12203.1 c 0,0 -12.28,3.2 -33.97,-1.7 -21.69,-4.9 -3.87,-121.7 11,-151.7 14.87,-30.1 36.33,-78.5 39.59,-95.2 3.26,-16.7 34.85,-33.5 34.85,-33.5 0,0 7.94,-90.1 21.12,-125.1 13.19,-35.1 102.81,-123.8 144.21,-184 41.41,-60.2 147.98,-85.6 223.09,-61 75.12,24.7 120.49,107.8 135.57,126.1 15.08,18.3 82.13,103 93.93,134.6 11.8,31.6 18.87,121.6 18.87,121.6 0,0 28.36,6.6 41.84,38.2 13.47,31.6 25.36,81.5 33.76,96.5 8.39,15 22.13,106.6 8.87,123.3 -13.26,16.7 -36.63,9.1 -36.63,9.1 0,0 -6.78,-25.6 -10.14,-30.6 -3.35,-4.9 -23.38,-11.5 -23.38,-11.5 l -2.98,81.7 c 0,0 -18.26,18.4 -26.49,40.1 -8.24,21.7 -9.62,86.7 -9.55,103.4 0.07,16.6 1.85,41.6 -9.64,81.7 -11.5,40 -59.69,71.9 -84.67,77 -24.98,5.1 -149.97,10.7 -169.97,12.4 -19.99,1.8 -30.03,-6.5 -83.4,-12.9 -53.37,-6.5 -218.43,-17.4 -236.81,-27.3 -18.37,-10 -35.3,-68.2 -38.72,-88.2 -3.42,-20 9.5,-115.1 7.75,-133.4 -1.74,-18.3 -15.17,-38.3 -13.56,-51.6 1.61,-13.3 1.24,-96.7 1.24,-96.7 l -15.02,-4.9 -20.76,63.6" /><path
         id="path168"
         style="fill:#c2c7ca;fill-opacity:1;fill-rule:nonzero;stroke:none"
         d="m 4526.63,10647.9 c 0,0 49.25,-72.9 127.99,-142.5 78.74,-69.6 98.77,-80.6 98.77,-80.6 0,0 -150.4,22.4 -298.49,152.8 l 71.73,70.3" /><path
         id="path170"
         style="fill:#c2c7ca;fill-opacity:1;fill-rule:nonzero;stroke:none"
         d="m 6057.55,10647.9 c 0,0 -49.25,-72.9 -127.99,-142.5 -78.75,-69.6 -98.77,-80.6 -98.77,-80.6 0,0 154.62,32.4 302.7,162.8 l -75.94,60.3" /><path
         id="path172"
         style="fill:#1e1c1b;fill-opacity:1;fill-rule:nonzero;stroke:none"
         d="m 2421.04,11050.8 c 0,0 -39.73,-95 0,-182.2 h 472.09 l -2.05,182.2 h -470.04" /><path
         id="path174"
         style="fill:#1e1c1b;fill-opacity:1;fill-rule:nonzero;stroke:none"
         d="m 2942.71,10959.7 c 0,-50.3 -23.12,-91.1 -51.63,-91.1 -28.52,0 -51.63,40.8 -51.63,91.1 0,50.3 23.11,91.1 51.63,91.1 28.51,0 51.63,-40.8 51.63,-91.1" /><path
         id="path176"
         style="fill:#333232;fill-opacity:1;fill-rule:nonzero;stroke:none"
         d="m 2472.67,10959.7 c 0,-50.3 -23.11,-91.1 -51.63,-91.1 -28.51,0 -51.63,40.8 -51.63,91.1 0,50.3 23.12,91.1 51.63,91.1 28.52,0 51.63,-40.8 51.63,-91.1" /><path
         id="path178"
         style="fill:#100f0d;fill-opacity:1;fill-rule:nonzero;stroke:none"
         d="m 8000.51,10673.9 h 235.37 v 645.1 h -245.75 l 10.38,-645.1" /><path
         id="path180"
         style="fill:#1e1c1b;fill-opacity:1;fill-rule:nonzero;stroke:none"
         d="m 7652.24,10959.7 c 0,-50.3 23.12,-91.1 51.63,-91.1 28.51,0 51.63,40.8 51.63,91.1 0,50.3 -23.12,91.1 -51.63,91.1 -28.51,0 -51.63,-40.8 -51.63,-91.1" /><path
         id="path182"
         style="fill:#1e1c1b;fill-opacity:1;fill-rule:nonzero;stroke:none"
         d="m 8173.91,11050.8 c 0,0 43.67,-95 3.94,-182.2 h -476.03 l 2.05,182.2 h 470.04" /><path
         id="path184"
         style="fill:#1e1c1b;fill-opacity:1;fill-rule:nonzero;stroke:none"
         d="m 7652.24,10959.7 c 0,-50.3 23.12,-91.1 51.63,-91.1 28.51,0 51.63,40.8 51.63,91.1 0,50.3 -23.12,91.1 -51.63,91.1 -28.51,0 -51.63,-40.8 -51.63,-91.1" /><path
         id="path186"
         style="fill:#333232;fill-opacity:1;fill-rule:nonzero;stroke:none"
         d="m 8122.28,10959.7 c 0,-50.3 23.11,-91.1 51.63,-91.1 28.51,0 51.63,40.8 51.63,91.1 0,50.3 -23.12,91.1 -51.63,91.1 -28.52,0 -51.63,-40.8 -51.63,-91.1" /><path
         id="path188"
         style="fill:#100f0d;fill-opacity:1;fill-rule:nonzero;stroke:none"
         d="m 3605.54,11622.5 c -20.9,731.3 -211.34,1319.3 -425.36,1313.1 h -189.32 l -30.3,-76.5 6.71,-162.8 c -94.61,-241.7 -149.7,-643.2 -136.76,-1096 14.11,-493.6 105.46,-921.9 229.17,-1146.2 l 6.87,-166.9 h 189.32 c 214.02,6.1 370.57,603.9 349.67,1335.3" /><path
         id="path190"
         style="fill:#333232;fill-opacity:1;fill-rule:nonzero;stroke:none"
         d="m 3416.22,11622.5 c 20.9,-731.4 -135.65,-1329.2 -349.67,-1335.3 -214.01,-6.2 -404.45,581.8 -425.35,1313.1 -20.91,731.4 135.64,1329.2 349.66,1335.3 214.02,6.2 404.46,-581.8 425.36,-1313.1" /><path
         id="path192"
         style="fill:#252323;fill-opacity:1;fill-rule:nonzero;stroke:none"
         d="m 3416.3,11619.6 c 18.22,-637.4 -118.22,-1158.4 -304.74,-1163.7 -186.52,-5.4 -352.5,507 -370.71,1144.4 -18.22,637.4 118.22,1158.5 304.74,1163.8 186.52,5.3 352.5,-507.1 370.71,-1144.5" /><path
         id="path194"
         style="fill:#adadab;fill-opacity:1;fill-rule:nonzero;stroke:none"
         d="m 3085.51,11590 c 0.47,-109.3 -45.98,-198.1 -103.75,-198.4 -57.77,-0.2 -104.99,88.2 -105.46,197.5 -0.47,109.3 45.98,198.2 103.75,198.4 57.77,0.3 104.99,-88.1 105.46,-197.5" /><path
         id="path196"
         style="fill:#767779;fill-opacity:1;fill-rule:nonzero;stroke:none"
         d="m 1885.43,11696.8 c 0,0 -95.89,-104.7 0,-238.3 l 1101.29,20.2 c 0,0 34.86,147.8 -11.63,235.2 l -1089.66,-17.1" /><path
         id="path198"
         style="fill:#100f0d;fill-opacity:1;fill-rule:nonzero;stroke:none"
         d="m 6979.36,11622.5 c 20.9,731.3 211.34,1319.3 425.36,1313.1 h 189.32 l 30.3,-76.5 -6.71,-162.8 c 94.61,-241.7 149.7,-643.2 136.76,-1096 -14.11,-493.6 -105.46,-921.9 -229.17,-1146.2 l -6.87,-166.9 h -189.32 c -214.02,6.1 -370.57,603.9 -349.67,1335.3" /><path
         id="path200"
         style="fill:#333232;fill-opacity:1;fill-rule:nonzero;stroke:none"
         d="m 7168.68,11622.5 c -20.9,-731.4 135.65,-1329.2 349.67,-1335.3 214.01,-6.2 404.45,581.8 425.35,1313.1 20.91,731.4 -135.64,1329.2 -349.66,1335.3 -214.02,6.2 -404.46,-581.8 -425.36,-1313.1" /><path
         id="path202"
         style="fill:#252323;fill-opacity:1;fill-rule:nonzero;stroke:none"
         d="m 7168.6,11619.6 c -18.22,-637.4 118.22,-1158.4 304.74,-1163.7 186.52,-5.4 352.5,507 370.71,1144.4 18.22,637.4 -118.22,1158.5 -304.74,1163.8 -186.52,5.3 -352.5,-507.1 -370.71,-1144.5" /><path
         id="path204"
         style="fill:#adadab;fill-opacity:1;fill-rule:nonzero;stroke:none"
         d="m 7499.39,11590 c -0.47,-109.3 45.98,-198.1 103.75,-198.4 57.77,-0.2 104.99,88.2 105.46,197.5 0.47,109.3 -45.98,198.2 -103.75,198.4 -57.77,0.3 -104.99,-88.1 -105.46,-197.5" /><path
         id="path206"
         style="fill:#767779;fill-opacity:1;fill-rule:nonzero;stroke:none"
         d="m 8699.47,11696.8 c 0,0 95.88,-104.7 0,-238.3 l -1101.29,20.2 c 0,0 -34.86,147.8 11.63,235.2 l 1089.66,-17.1" /><path
         id="path208"
         style="fill:#adadab;fill-opacity:1;fill-rule:nonzero;stroke:none"
         d="M 15642.9,5809.7 H 13863.4 V 6077 h 1779.5 v -267.3" /><path
         id="path210"
         style="fill:#adadab;fill-opacity:1;fill-rule:nonzero;stroke:none"
         d="m 13739.4,5906.5 c 11.6,0 124,-96.8 124,-96.8 0,0 -350.6,-31 -553,-77.5 -202.5,-46.5 -1519.8,-596.7 -1519.8,-596.7 l 46.5,385.5 c 0,0 1154.5,443.7 1371.5,490.1 217,46.5 654.8,65.9 654.8,65.9 l -124,-170.5" /><path
         id="path212"
         style="fill:#adadab;fill-opacity:1;fill-rule:nonzero;stroke:none"
         d="m 11891.3,7541.5 58.1,604.4 1772.6,360.3 -277.1,-592.7 -1553.6,-372" /><g
         transform="scale(1.0824)"
         id="g214"><path
           id="path216"
           style="fill:#adadab;fill-opacity:1;fill-rule:nonzero;stroke:none"
           d="m 14499.6,5456.83 c -10.8,0 -114.6,-89.43 -114.6,-89.43 0,0 323.8,-28.64 510.9,-71.6 187.1,-42.96 1404.1,-551.27 1404.1,-551.27 l -43,356.15 c 0,0 -1066.7,409.92 -1267.1,452.79 -200.4,42.96 -604.9,60.88 -604.9,60.88 l 114.6,-157.52" /></g><g
         transform="scale(1.07622)"
         id="g218"><path
           id="path220"
           style="fill:#adadab;fill-opacity:1;fill-rule:nonzero;stroke:none"
           d="m 16300,7007.39 -54,561.59 -1647,334.79 257.4,-550.73 1443.6,-345.65" /></g><path
         id="path222"
         style="fill:#252323;fill-opacity:1;fill-rule:nonzero;stroke:none"
         d="m 14866.8,7061.1 h -302.2 v -588.9 h 302.2 v 588.9" /><path
         id="path224"
         style="fill:#adadab;fill-opacity:1;fill-rule:nonzero;stroke:none"
         d="m 14837.8,6077 h -238.3 v 395.2 h 238.3 V 6077" /><path
         id="path226"
         style="fill:#838585;fill-opacity:1;fill-rule:nonzero;stroke:none"
         d="m 14940.4,7037.8 h -464.9 v 910.5 h 464.9 v -910.5" /><path
         id="path228"
         style="fill:#c37140;fill-opacity:1;fill-rule:nonzero;stroke:none"
         d="m 13444.9,8149.8 -42.6,-313.4 c 0,0 -43.6,-122 -39.2,-251.3 4.4,-129.3 27.6,-215 27.6,-215 0,0 -20.3,-447.5 2.9,-645.1 23.3,-197.6 200.5,-783.6 210.2,-876.6 9.7,-93 -8.7,-183 -2.9,-235.3 5.8,-52.3 10.6,-84.3 10.6,-84.3 0,0 -134.6,-219.9 -208.2,-294.5 -73.6,-74.5 -100.7,-178.2 -91.1,-202.4 9.7,-24.2 38.8,-25.2 38.8,-25.2 0,0 10.6,-25.2 29,-32.9 18.5,-7.8 46.5,-7.8 46.5,-7.8 0,0 13.6,-17.4 39.8,-19.3 26.1,-2 56.1,0 56.1,0 0,0 16.5,-27.1 67.8,-29.1 51.4,-1.9 81.4,34.9 111.4,55.2 30,20.4 95.9,62.5 116.2,135.1 20.4,72.7 43.6,110.5 103.2,151.1 59.6,40.7 82.8,135.2 69.7,191.8 -13,56.7 -26.1,48 -26.1,122.1 0,74.1 -11.6,145.3 -33.4,203.4 -21.8,58.1 0,437.3 37.7,614.5 37.8,177.3 59.4,470.8 25.4,700.3 -34.1,229.6 -106.7,409.7 -103.8,444.6 2.9,34.9 281.9,229.6 310.9,305.1 29.1,75.6 -130.7,441.7 -287.7,470.7 -156.9,29.1 -325.4,23.3 -366.1,0 -40.7,-23.2 -102.7,-161.7 -102.7,-161.7" /><path
         id="path230"
         style="fill:#c37140;fill-opacity:1;fill-rule:nonzero;stroke:none"
         d="m 15955.5,8149.8 42.6,-313.4 c 0,0 43.6,-122 39.3,-251.3 -4.4,-129.3 -27.6,-215 -27.6,-215 0,0 20.3,-447.5 -2.9,-645.1 -23.3,-197.6 -200.5,-783.6 -210.2,-876.6 -9.7,-93 8.7,-183 2.9,-235.3 -5.8,-52.3 -10.7,-84.3 -10.7,-84.3 0,0 134.7,-219.9 208.3,-294.5 73.6,-74.5 100.7,-178.2 91,-202.4 -9.7,-24.2 -38.7,-25.2 -38.7,-25.2 0,0 -10.7,-25.2 -29.1,-32.9 -18.4,-7.8 -46.5,-7.8 -46.5,-7.8 0,0 -13.5,-17.4 -39.7,-19.3 -26.1,-2 -56.2,0 -56.2,0 0,0 -16.4,-27.1 -67.8,-29.1 -51.3,-1.9 -81.3,34.9 -111.4,55.2 -30,20.4 -95.8,62.5 -116.2,135.1 -20.3,72.7 -43.6,110.5 -103.1,151.1 -59.6,40.7 -82.9,135.2 -69.8,191.8 13.1,56.7 26.2,48 26.2,122.1 0,74.1 11.6,145.3 33.4,203.4 21.8,58.1 0,437.3 -37.8,614.5 -37.8,177.3 -59.4,470.8 -25.3,700.3 34,229.6 106.7,409.7 103.8,444.6 -2.9,34.9 -281.9,229.6 -310.9,305.1 -29.1,75.6 130.7,441.7 287.6,470.7 156.9,29.1 325.5,23.3 366.1,0 40.7,-23.2 102.7,-161.7 102.7,-161.7" /><path
         id="path232"
         style="fill:#100f0d;fill-opacity:1;fill-rule:nonzero;stroke:none"
         d="m 14201.4,7840.8 c 0,0 223.8,-10.6 281.9,0 58.1,10.7 116.2,53.3 154.9,64.9 38.8,11.6 139.5,23.3 182.1,0 42.7,-23.2 108.5,-69.5 182.1,-69.6 73.6,-0.1 298.4,41.5 298.4,41.5 0,0 -5,403.9 -105.2,504.6 -100.2,100.8 -282.3,209.3 -514.7,155 -232.5,-54.2 -503.7,-82.7 -542.4,-206 -38.8,-123.3 62.9,-490.4 62.9,-490.4" /><path
         id="path234"
         style="fill:#252323;fill-opacity:1;fill-rule:nonzero;stroke:none"
         d="m 13999,9285 -112.4,-251.9 c 0,0 -255.7,-286.7 -309.9,-395.1 -54.3,-108.5 -131.8,-488.2 -131.8,-488.2 0,0 186,0 368.1,-65.9 182.1,-65.8 391.3,-302.2 391.3,-302.2 0,0 116.2,151.1 178.2,275.1 62,124 189.9,240.2 201.5,248 11.6,7.7 251.8,23.2 282.8,11.6 31,-11.6 147.3,-182.1 186,-290.6 38.7,-108.5 255.7,-313.8 255.7,-313.8 0,0 236.3,317.7 674.1,255.7 0,0 -50.3,395.2 -65.8,472.7 -15.5,77.4 -209.1,406.8 -259.6,480.4 -50.4,73.6 -143.4,166.6 -166.6,193.7 -23.2,27.1 -58.1,135.6 -58.1,135.6 0,0 -631.5,178.2 -678,178.2 -46.5,0 -755.5,-143.3 -755.5,-143.3" /><path
         id="path236"
         style="fill:#100f0d;fill-opacity:1;fill-rule:nonzero;stroke:none"
         d="m 15024.4,8091 c -47.5,95 -122.8,202.5 -152.6,222.6 29.8,-20.1 105.1,-127.6 152.6,-222.6 v 0 m -152.6,222.7 c 0,0 -0.1,0 -0.1,0.1 0,-0.1 0.1,-0.1 0.1,-0.1 m -0.2,0.1 c -0.2,0.1 -0.4,0.3 -0.7,0.4 0.3,-0.1 0.5,-0.3 0.7,-0.4 m -0.7,0.5 c 0,0 -0.1,0 -0.1,0.1 0,-0.1 0.1,-0.1 0.1,-0.1 m -0.2,0.1 c 0,0 -0.1,0 -0.1,0.1 0,-0.1 0.1,-0.1 0.1,-0.1 m -0.2,0.1 c -0.1,0.1 -0.3,0.2 -0.4,0.3 0.1,-0.1 0.3,-0.2 0.4,-0.3 m -0.5,0.3 -0.1,0.1 0.1,-0.1 m -0.2,0.1 c 0,0 0,0.1 -0.1,0.1 0.1,0 0.1,-0.1 0.1,-0.1 m -0.2,0.1 c 0,0 0,0.1 -0.1,0.1 0.1,0 0.1,-0.1 0.1,-0.1 m -0.1,0.1 c -0.1,0.1 -0.2,0.1 -0.3,0.2 0.1,-0.1 0.2,-0.1 0.3,-0.2 m -0.3,0.2 c -0.1,0 -0.1,0 -0.1,0 0,0 0,0 0.1,0 m -0.2,0.1 h -0.1 0.1 m -0.2,0.1 h -0.1 0.1 m -0.2,0.1 c 0,0 -0.1,0 -0.1,0.1 0,-0.1 0.1,-0.1 0.1,-0.1 m -0.2,0.1 c -0.1,0 -0.1,0 -0.1,0.1 0,-0.1 0,-0.1 0.1,-0.1 m -0.2,0.1 h -0.1 0.1 m -0.2,0.1 h -0.1 0.1 m -0.2,0.1 c 0,0 0,0 -0.1,0 0.1,0 0.1,0 0.1,0 m -0.2,0.1 h -0.1 0.1 m -0.2,0.1 c 0,0 0,0 -0.1,0 0.1,0 0.1,0 0.1,0 m -0.2,0 c 0,0 0,0 0,0.1 0,-0.1 0,-0.1 0,-0.1 m -0.1,0.1 c -0.1,0 -0.1,0 -0.1,0 0,0 0,0 0.1,0" /><path
         id="path238"
         style="fill:#1e1c1b;fill-opacity:1;fill-rule:nonzero;stroke:none"
         d="m 14382.5,8056.8 c 0,0 155,344.8 158.9,360.3 3.9,15.5 -69.8,120.1 -69.8,120.1 0,0 109,-39.6 229.3,-39.6 10.1,0 20.2,0.3 30.3,0.9 131.8,7.7 217,38.7 217,38.7 0,0 -46.5,-62 -42.6,-89.1 3.8,-26.9 117.3,-352.9 118.8,-357.1 -47.5,95 -122.8,202.5 -152.6,222.6 0,0.1 0,0.1 0,0.1 0,0 -0.1,0 -0.1,0.1 -0.1,0 -0.1,0 -0.1,0 -0.2,0.1 -0.4,0.3 -0.7,0.4 v 0.1 c 0,0 -0.1,0 -0.1,0.1 -0.1,0 -0.1,0 -0.1,0 0,0 -0.1,0 -0.1,0.1 0,0 0,0 -0.1,0 -0.1,0.1 -0.3,0.2 -0.4,0.3 h -0.1 l -0.1,0.1 c 0,0 0,0 -0.1,0 0,0 0,0.1 -0.1,0.1 0,0 0,0 -0.1,0 0,0 0,0.1 -0.1,0.1 v 0 c -0.1,0.1 -0.2,0.1 -0.3,0.2 v 0 c -0.1,0 -0.1,0 -0.1,0 -0.1,0.1 -0.1,0.1 -0.1,0.1 h -0.1 c 0,0.1 -0.1,0.1 -0.1,0.1 h -0.1 c 0,0.1 0,0.1 -0.1,0.1 0,0 -0.1,0 -0.1,0.1 -0.1,0 -0.1,0 -0.1,0 -0.1,0 -0.1,0 -0.1,0.1 -0.1,0 -0.1,0 -0.1,0 h -0.1 c 0,0.1 -0.1,0.1 -0.1,0.1 h -0.1 c 0,0 0,0.1 -0.1,0.1 0,0 0,0 -0.1,0 l -0.1,0.1 h -0.1 c 0,0 -0.1,0 -0.1,0.1 0,0 0,0 -0.1,0 0,0 0,0 -0.1,0 0,0 0,0 0,0.1 -0.1,0 -0.1,0 -0.1,0 -0.1,0 -0.1,0 -0.1,0 -0.1,0 -0.1,0.1 -0.2,0.1 v 0 c -7.9,3 -29.7,4.2 -57.8,4.2 -81.4,0 -216.4,-10.1 -225,-15.8 -1.7,-1.1 -5.7,-4.5 -11.5,-9.7 -35.2,-31.4 -136.8,-132 -190,-238.3" /><path
         id="path240"
         style="fill:#c37140;fill-opacity:1;fill-rule:nonzero;stroke:none"
         d="m 14117.9,11366.3 h -71.7 c 0,0 -134.6,77.6 -300.3,74.7 -165.6,-2.9 -348.7,-238.2 -348.7,-238.2 0,0 -93.8,-100.8 -130.2,-162.7 -36.4,-62 -48,-180.2 -59.6,-219 -11.6,-38.7 -93,-216.9 -127.9,-327.3 -34.8,-110.5 0,-310 0,-310 0,0 79.5,21.3 170.5,33 91.1,11.6 153.1,0 153.1,0 l 87.1,166.5 c 0,0 241.5,178.4 276.4,291.8 l 43.4,-169.7 c 0,0 226.5,-78.5 264.3,-14.5 37.8,63.9 226.9,514.3 226.9,514.3 l -183.3,361.1" /><g
         transform="scale(1.00443)"
         id="g242"><path
           id="path244"
           style="fill:#c37140;fill-opacity:1;fill-rule:nonzero;stroke:none"
           d="m 15231.5,11316.2 h 71.4 c 0,0 134,77.3 298.9,74.4 165,-2.9 347.2,-237.2 347.2,-237.2 0,0 93.4,-100.3 129.7,-162 36.1,-61.7 47.8,-179.4 59.3,-218 11.6,-38.5 92.6,-216 127.3,-325.9 34.7,-109.9 0,-308.6 0,-308.6 0,0 -79.1,21.2 -169.7,32.8 -90.7,11.6 -152.4,0 -152.4,0 l -86.7,165.9 c 0,0 -240.5,177.6 -275.2,290.4 l -43.3,-168.9 c 0,0 -225.4,-78.2 -263.1,-14.5 -37.6,63.6 -225.9,512 -225.9,512 l 182.5,359.6" /></g><path
         id="path246"
         style="fill:#e9eef1;fill-opacity:1;fill-rule:nonzero;stroke:none"
         d="m 14262.4,11429.4 -144.5,-63.1 c 0,0 16.7,-256.5 -41.4,-477.4 -58.2,-220.8 -266.5,-354.6 -266.5,-354.6 0,0 11.5,-290.1 89,-476.1 77.5,-186 76.7,-261.8 84.5,-308.3 7.7,-46.5 -19.4,-430.1 15.5,-464.9 34.8,-34.9 426.2,-116.3 736.1,-112.4 309.9,3.9 681.9,54.3 697.4,77.5 15.5,23.2 -7.8,511.4 0,554 7.7,42.6 44.6,265.5 102.7,451.5 58.1,185.9 71.6,278.7 71.6,278.7 0,0 -169.6,131.5 -270.4,329.1 -100.7,197.6 -35.6,502.9 -35.6,502.9 l -149.2,37 -889.2,26.1" /><g
         transform="scale(1.06325)"
         id="g248"><path
           id="path250"
           style="fill:#adadab;fill-opacity:1;fill-rule:nonzero;stroke:none"
           d="m 11348,14373.4 c 0,0 1362.8,-98.4 2490.6,-98.4 1127.7,0 2461.4,98.4 2461.4,98.4 v -601.2 c 0,0 -1063.9,-54.7 -2461.4,-54.7 -1397.4,0 -2490.6,65.6 -2490.6,65.6 v 590.3" /></g><g
         transform="scale(1.10063)"
         id="g252"><path
           id="path254"
           style="fill:#252323;fill-opacity:1;fill-rule:nonzero;stroke:none"
           d="m 16227.9,13853.6 72.1,84.4 v 81 l -572,144.3 v -98.5 l 499.9,-211.2" /></g><g
         transform="scale(1.12345)"
         id="g256"><path
           id="path258"
           style="fill:#252323;fill-opacity:1;fill-rule:nonzero;stroke:none"
           d="m 16300,4172.96 v -150.08 c 0,0 -74.1,-86.16 -129.3,-93.1 -55.2,-6.86 -316.5,0 -316.5,0 0,0 -80.2,58.66 -104.3,100.05 -24.1,41.39 -8.6,91.32 -8.6,91.32 0,0 -15.5,63.83 43.1,108.69 58.6,44.86 434.5,0 434.5,0 0,0 55.2,0 81.1,-56.88" /></g><g
         transform="scale(1.12024)"
         id="g260"><path
           id="path262"
           style="fill:#252323;fill-opacity:1;fill-rule:nonzero;stroke:none"
           d="m 16206.5,5092.75 c 0,0 88.2,-77.84 90.8,-142.65 2.7,-64.89 -103.7,-153.09 -111.5,-137.47 -7.7,15.53 -108.9,49.28 -106.3,124.44 2.6,75.25 127,155.68 127,155.68" /></g><g
         transform="scale(1.1279)"
         id="g264"><path
           id="path266"
           style="fill:#252323;fill-opacity:1;fill-rule:nonzero;stroke:none"
           d="m 16029.5,5094.24 66.9,-36.09 c 0,0 100.6,2.57 152.1,-113.39 51.5,-115.88 -139.1,-234.42 -139.1,-234.42 0,0 -138.9,-26.78 -154.5,67.73 -15.6,94.6 74.6,316.17 74.6,316.17" /></g><g
         transform="scale(1.17657)"
         id="g268"><path
           id="path270"
           style="fill:#adadab;fill-opacity:1;fill-rule:nonzero;stroke:none"
           d="m 16280.2,5975.08 c 0,0 19.8,-128.43 0,-214.01 h -810.1 v 214.01 h 810.1" /></g><g
         transform="scale(1.12237)"
         id="g272"><path
           id="path274"
           style="fill:#252323;fill-opacity:1;fill-rule:nonzero;stroke:none"
           d="m 16113.6,5973.68 h 186.4 v 348.63 h -186.4 v -348.63" /></g><g
         transform="scale(1.17431)"
         id="g276"><path
           id="path278"
           style="fill:#adadab;fill-opacity:1;fill-rule:nonzero;stroke:none"
           d="m 16280.2,8091.37 c 0,0 19.8,-128.67 0,-214.42 h -811.7 v 214.42 h 811.7" /></g><g
         transform="scale(1.12012)"
         id="g280"><path
           id="path282"
           style="fill:#252323;fill-opacity:1;fill-rule:nonzero;stroke:none"
           d="m 16113.2,8192.36 h 186.8 v 349.34 h -186.8 v -349.34" /></g><g
         transform="scale(1.17122)"
         id="g284"><path
           id="path286"
           style="fill:#adadab;fill-opacity:1;fill-rule:nonzero;stroke:none"
           d="m 16280.2,10279.3 c 0,0 19.8,-129 0,-215 h -813.8 v 215 h 813.8" /></g><g
         transform="scale(1.11703)"
         id="g288"><path
           id="path290"
           style="fill:#252323;fill-opacity:1;fill-rule:nonzero;stroke:none"
           d="m 16112.6,10486.6 h 187.4 v 350.4 h -187.4 v -350.4" /></g><g
         transform="scale(1.11667)"
         id="g292"><path
           id="path294"
           style="fill:#adadab;fill-opacity:1;fill-rule:nonzero;stroke:none"
           d="m 16208.9,12777.6 -804,-13 c 0,0 -72.9,-184.8 0,-377.3 h 791 c 0,0 104.1,187.3 13,390.3" /></g><g
         transform="scale(1.12345)"
         id="g296"><path
           id="path298"
           style="fill:#c1bfbd;fill-opacity:1;fill-rule:nonzero;stroke:none"
           d="m 15408.5,13779 182.8,-8995.69 89.6,-212.11 60.4,-450.05 558.7,51.81 c 0,0 -134.5,879.34 -139.7,905.25 -5.2,25.81 -191.4,8576.69 -191.4,8576.69 l -560.4,124.1" /></g><path
         id="path300"
         style="fill:#c37140;fill-opacity:1;fill-rule:nonzero;stroke:none"
         d="m 14432.9,11834.3 c 0,0 3.9,-234.4 0,-275.1 -3.9,-40.7 -170.5,-129.8 -170.5,-129.8 0,0 142.6,-491.3 446.3,-476.5 318.9,15.5 442.9,450.4 442.9,450.4 0,0 -116.2,97.4 -135.6,138.3 -19.4,40.8 -21.3,337.2 -21.3,337.2 l -561.8,-44.5" /><path
         id="path302"
         style="fill:#a45330;fill-opacity:1;fill-rule:nonzero;stroke:none"
         d="m 14349.6,11324.8 c 0,0 188.9,0 225.2,0 36.3,0 137.6,-30.5 137.6,-30.5 0,0 -88.2,66.8 -117.3,68.3 -29,1.4 -245.5,-37.8 -245.5,-37.8" /><path
         id="path304"
         style="fill:#a45330;fill-opacity:1;fill-rule:nonzero;stroke:none"
         d="m 15070.2,11337.9 c -4.3,0 -168.5,-4.3 -197.6,-9.4 -29,-5.1 -91.5,-34.2 -91.5,-34.2 0,0 24.7,52.4 77,68.3 52.3,16 212.1,-24.7 212.1,-24.7" /><path
         id="path306"
         style="fill:#252323;fill-opacity:1;fill-rule:nonzero;stroke:none"
         d="m 11546.5,15247.6 -79.4,93 v 89.1 l 629.6,158.8 V 15480 l -550.2,-232.4" /><path
         id="path308"
         style="fill:#252323;fill-opacity:1;fill-rule:nonzero;stroke:none"
         d="m 11095.2,4688.1 v -168.6 c 0,0 83.3,-96.8 145.2,-104.6 62,-7.7 355.5,0 355.5,0 0,0 90.1,65.9 117.2,112.4 27.1,46.5 9.7,102.6 9.7,102.6 0,0 17.4,71.7 -48.4,122.1 -65.9,50.4 -488.2,0 -488.2,0 0,0 -62,0 -91,-63.9" /><path
         id="path310"
         style="fill:#252323;fill-opacity:1;fill-rule:nonzero;stroke:none"
         d="m 11252.1,5705.1 c 0,0 -98.8,-87.2 -101.7,-159.8 -2.9,-72.7 116.2,-171.5 124.9,-154 8.7,17.4 122.1,55.2 119.1,139.4 -2.9,84.3 -142.3,174.4 -142.3,174.4" /><path
         id="path312"
         style="fill:#252323;fill-opacity:1;fill-rule:nonzero;stroke:none"
         d="m 11327.6,5745.8 -75.5,-40.7 c 0,0 -113.4,2.9 -171.5,-127.9 -58.1,-130.7 156.9,-264.4 156.9,-264.4 0,0 156.7,-30.2 174.2,76.4 17.6,106.7 -84.1,356.6 -84.1,356.6" /><path
         id="path314"
         style="fill:#adadab;fill-opacity:1;fill-rule:nonzero;stroke:none"
         d="m 10252.5,7030.1 c 0,0 -23.3,-151.1 0,-251.8 h 953.1 v 251.8 h -953.1" /><path
         id="path316"
         style="fill:#252323;fill-opacity:1;fill-rule:nonzero;stroke:none"
         d="m 11321.8,6704.7 h -209.2 V 7096 h 209.2 v -391.3" /><path
         id="path318"
         style="fill:#adadab;fill-opacity:1;fill-rule:nonzero;stroke:none"
         d="m 10289.3,9501.8 c 0,0 -23.3,-151.1 0,-251.8 h 953.1 v 251.8 h -953.1" /><path
         id="path320"
         style="fill:#252323;fill-opacity:1;fill-rule:nonzero;stroke:none"
         d="m 11358.6,9176.4 h -209.2 v 391.3 h 209.2 v -391.3" /><path
         id="path322"
         style="fill:#adadab;fill-opacity:1;fill-rule:nonzero;stroke:none"
         d="m 10339.7,12039.4 c 0,0 -23.3,-151.1 0,-251.9 h 953 v 251.9 h -953" /><path
         id="path324"
         style="fill:#252323;fill-opacity:1;fill-rule:nonzero;stroke:none"
         d="m 11409,11713.9 h -209.2 v 391.3 h 209.2 v -391.3" /><path
         id="path326"
         style="fill:#adadab;fill-opacity:1;fill-rule:nonzero;stroke:none"
         d="m 11307.3,14268.3 897.9,-14.5 c 0,0 81.3,-206.3 0,-421.3 h -883.4 c 0,0 -116.2,209.2 -14.5,435.8" /><path
         id="path328"
         style="fill:#c1bfbd;fill-opacity:1;fill-rule:nonzero;stroke:none"
         d="m 12096.7,15480 -205.4,-10106.2 -100.7,-238.3 -67.8,-505.6 -627.6,58.2 c 0,0 151.1,987.9 156.9,1017 5.8,29 215,9635.5 215,9635.5 l 629.6,139.4" /><path
         id="path330"
         style="fill:#100f0d;fill-opacity:1;fill-rule:nonzero;stroke:none"
         d="m 12866.1,9836.8 934.1,312.1 c 0,0 71.6,-46.5 50.3,-154.9 l -1020.8,-356 36.4,198.8" /><path
         id="path332"
         style="fill:#1e1c1b;fill-opacity:1;fill-rule:nonzero;stroke:none"
         d="m 13143.5,11721.9 112.3,-8.4 c 0,0 25.2,-96.2 0,-181.4 h -131.7 l 19.4,189.8" /><path
         id="path334"
         style="fill:#434244;fill-opacity:1;fill-rule:nonzero;stroke:none"
         d="m 13379.8,12760.3 c 0,0 -525.9,-3463.7 -555,-3495.7 -29.1,-31.9 -206.3,-40.7 -267.3,0 -61,40.7 -110.4,174.4 -110.4,247 0,72.7 217.9,1782.7 217.9,1782.7 l -81.4,640.7 635.4,972.5 160.8,-147.2" /><path
         id="path336"
         style="fill:#4c4d4e;fill-opacity:1;fill-rule:nonzero;stroke:none"
         d="m 13219,12907.5 -76.6,-117.3 32.7,-29.9 c 0,0 -525.9,-3463.7 -555,-3495.7 -5.2,-5.7 -15.3,-10.7 -28.7,-14.8 76.4,-22.7 208.7,-12.4 233.4,14.8 29.1,32 555,3495.7 555,3495.7 l -160.8,147.2" /><path
         id="path338"
         style="fill:#302f2f;fill-opacity:1;fill-rule:nonzero;stroke:none"
         d="m 12153.6,14215.1 c 0,0 -11.6,149.1 40.7,218.9 52.3,69.7 212.1,55.2 276,0 63.9,-55.2 1072.2,-1081 1110,-1153.6 37.8,-72.7 49.4,-218 -37.8,-273.2 0,0 32,-177.2 -63.9,-270.2 -95.9,-93 -412.6,14.5 -412.6,14.5 0,0 -687.1,958.4 -701,970.3 -13.8,11.9 -159.8,110.7 -159.8,110.7 l -51.6,382.6" /><path
         id="path340"
         style="fill:#434244;fill-opacity:1;fill-rule:nonzero;stroke:none"
         d="m 12990.4,13590.1 c 11.7,-10.4 270.3,-329.7 270.3,-329.7 0,0 74.2,135.3 253.6,99.4 l -297.2,315.7 -226.7,-85.4" /><path
         id="path342"
         style="fill:#c1bfbd;fill-opacity:1;fill-rule:nonzero;stroke:none"
         d="m 13800.2,10148.9 -116.4,-38.8 2.1,-1.3 c 1.9,-1.2 71.2,-47.8 50.2,-154.7 l 114.4,39.9 c 21.3,108.5 -50.3,154.9 -50.3,154.9" /><path
         id="path344"
         style="fill:#100f0d;fill-opacity:1;fill-rule:nonzero;stroke:none"
         d="m 13276.4,13160.7 c -22,792.9 -227.9,1430.4 -459.9,1423.9 l -205.2,0.2 -32.9,-83 7.1,-176.4 c -102.8,-262 -162.9,-697.2 -149.2,-1188 14.8,-535.1 113.5,-999.5 247.4,-1242.8 l 7.3,-180.9 205.2,-0.2 c 232,6.4 402.2,654.4 380.2,1447.2" /><path
         id="path346"
         style="fill:#333232;fill-opacity:1;fill-rule:nonzero;stroke:none"
         d="m 13071.2,13160.9 c 22,-792.9 -148.2,-1440.8 -380.2,-1447.2 -232,-6.5 -438,631 -460,1423.9 -22,792.8 148.3,1440.7 380.3,1447.2 232,6.4 437.9,-631.1 459.9,-1423.9" /><path
         id="path348"
         style="fill:#252323;fill-opacity:1;fill-rule:nonzero;stroke:none"
         d="m 13071.3,13157.8 c 19.2,-691 -129.2,-1255.7 -331.4,-1261.3 -202.2,-5.6 -381.7,550 -400.8,1241 -19.2,690.9 129.1,1255.7 331.4,1261.3 202.2,5.6 381.6,-550 400.8,-1241" /><path
         id="path350"
         style="fill:#adadab;fill-opacity:1;fill-rule:nonzero;stroke:none"
         d="m 12712.7,13126 c 0.4,-118.5 -50,-214.7 -112.7,-215 -62.6,-0.2 -113.7,95.7 -114.1,214.2 -0.4,118.5 50,214.8 112.6,215 62.7,0.2 113.8,-95.7 114.2,-214.2" /><path
         id="path352"
         style="fill:#767779;fill-opacity:1;fill-rule:nonzero;stroke:none"
         d="m 11411.8,13242.8 c 0,0 -104,-113.4 -0.2,-258.3 l 1193.9,20.9 c 0,0 37.9,160.2 -12.4,255 l -1181.3,-17.6" /><path
         id="path354"
         style="fill:#1e1c1b;fill-opacity:1;fill-rule:nonzero;stroke:none"
         d="m 12150.3,11632.8 v 60.1 h 594.1 c 0,0 32.9,-98.8 0,-172.4 l -594.1,-21.4 v 133.7" /><path
         id="path356"
         style="fill:#100f0d;fill-opacity:1;fill-rule:nonzero;stroke:none"
         d="m 12475.2,9771.1 -11.4,52.9 h 96.6 c 0,0 31.9,-84.3 0,-186 l -96.6,5.8 11.4,127.3" /><path
         id="path358"
         style="fill:#a45330;fill-opacity:1;fill-rule:nonzero;stroke:none"
         d="m 13934.8,10912.2 c 0,0 -54.3,-134.5 -107.5,-186 -44.3,-42.8 -48,-44.3 -48,-44.3 l -12.7,-6.8 43.4,-140.8 c 0,0 116.7,92.6 164.3,160.9 0,0 -56.9,74.6 -39.5,217" /><path
         id="path360"
         style="fill:#c2c7ca;fill-opacity:1;fill-rule:nonzero;stroke:none"
         d="m 13974.3,10695.2 c 0,0 27.3,-67.8 108.7,-99.7 81.4,-32 374.8,-29.1 374.8,-29.1 0,0 -188.8,-110.4 -383.5,-75.5 -194.7,34.8 -232.5,69.7 -232.5,69.7 l 132.5,134.6" /><path
         id="path362"
         style="fill:#dc8458;fill-opacity:1;fill-rule:nonzero;stroke:none"
         d="m 13408.9,11146.6 v -74.2 c 0,0 128,271.8 257.6,314 129.6,42.3 335.5,1.3 335.5,1.3 l -39.4,-1.3 c -50.9,27.1 -126.9,56.2 -216.7,54.6 -165.6,-2.9 -348.7,-238.2 -348.7,-238.2 0,0 -92.7,-99.6 -129.5,-161.7 l 141.2,105.5" /><path
         id="path364"
         style="fill:#c37140;fill-opacity:1;fill-rule:nonzero;stroke:none"
         d="m 13101.6,10218.4 -28.2,-34.6 c 0,0 -12.7,-109.9 -9.4,-134.6 3.4,-24.7 16.2,-98.8 18.5,-104.6 2.4,-5.8 34.5,-22.4 34.5,-22.4 0,0 27.4,-27 65.2,-98.2 37.8,-71.2 82.8,-78.5 82.8,-78.5 0,0 0,-43.6 40.7,-46.5 40.7,-2.9 154,1.5 180.2,14.6 26.1,13 101.7,97.3 119.1,132.2 17.4,34.8 -29.1,274.6 -65.4,319.6 -36.3,45 -136.5,51.4 -136.5,51.4 0,0 -87.2,69.2 -127.9,82.3 -40.7,13.1 -173.6,-80.7 -173.6,-80.7" /><path
         id="path366"
         style="fill:#a45330;fill-opacity:1;fill-rule:nonzero;stroke:none"
         d="m 13368.1,9731 c 50.7,-1.5 61.1,27.6 72.7,34.9 11.7,7.2 55.2,0 64,5.8 8.7,5.8 30.5,34.9 30.5,101.7 0,66.8 -42.2,215 -42.2,215 0,0 23.3,-139.5 18.9,-201.9 -4.3,-62.5 -18.9,-93 -46.5,-93 -27.6,0 -31.9,24.7 -42.1,71.2 -10.2,46.5 -69.7,184.5 -74.1,188.8 -4.4,4.4 69.7,-236.8 49.4,-274.6 -20.3,-37.7 -53.8,-18.8 -71.2,-10.1 -17.4,8.7 -16,16 -24.7,72.6 -8.7,56.7 -95.9,193.3 -101.7,194.7 -5.8,1.5 87.2,-188.9 87.2,-223.7 0,-34.9 -23.3,-66.9 -23.3,-66.9 0,0 0.1,-26.2 19.2,-39.3 8.9,11.4 17.5,22.3 20.1,24.8 5.8,5.8 13,1.5 63.8,0" /><path
         id="path368"
         style="fill:#a45330;fill-opacity:1;fill-rule:nonzero;stroke:none"
         d="m 13368.1,10575.1 c 0,0 -2.8,-95.9 -52.2,-212.1 0,0 118.9,72.7 52.2,212.1" /><path
         id="path370"
         style="fill:#a45330;fill-opacity:1;fill-rule:nonzero;stroke:none"
         d="m 13490.2,10383.3 c 0,0 32,98.8 23.3,218 -8.7,119.1 -43.6,211.2 -43.6,211.2 0,0 58.1,-115.3 68.3,-198.1 10.1,-82.9 5.5,-190 5.5,-190 l -53.5,-41.1" /><path
         id="path372"
         style="fill:#100f0d;fill-opacity:1;fill-rule:nonzero;stroke:none"
         d="m 11758.4,11319 c 0,-23.2 0,-627.6 0,-627.6 h 241 l 12.7,627.6 h -253.7" /><path
         id="path374"
         style="fill:#a45330;fill-opacity:1;fill-rule:nonzero;stroke:none"
         d="m 13073.4,10226.6 c 0,0 124.3,31.1 242.5,-4.9 0,0 -116.3,-10.8 -236.4,-37.9 l -6.1,42.8" /><path
         id="path376"
         style="fill:#333232;fill-opacity:1;fill-rule:nonzero;stroke:none"
         d="m 12203.9,11596 c 0,-53.5 -24,-96.9 -53.6,-96.9 -29.6,0 -53.6,43.4 -53.6,96.9 0,53.5 24,96.9 53.6,96.9 29.6,0 53.6,-43.4 53.6,-96.9" /><path
         id="path378"
         style="fill:#434244;fill-opacity:1;fill-rule:nonzero;stroke:none"
         d="m 12515.3,9733.9 c 0,-49.7 -23,-90.1 -51.5,-90.1 -28.5,0 -51.6,40.4 -51.6,90.1 0,49.8 23.1,90.1 51.6,90.1 28.5,0 51.5,-40.3 51.5,-90.1" /><g
         transform="scale(1.11667)"
         id="g380"><path
           id="path382"
           style="fill:#adadab;fill-opacity:1;fill-rule:nonzero;stroke:none"
           d="m 15972.4,12773.8 236.5,3.8 c 91.1,-203 -13,-390.3 -13,-390.3 h -222 c -82.6,151.6 -12.4,356.6 -1.5,386.5" /></g><g
         transform="scale(1.11109)"
         id="g384"><path
           id="path386"
           style="fill:#252323;fill-opacity:1;fill-rule:nonzero;stroke:none"
           d="m 16223.3,12652.6 c 0,-78 17.1,-141.2 38.4,-141.2 21.1,0 38.3,63.2 38.3,141.2 0,78 -17.2,141.3 -38.3,141.3 -21.3,0 -38.4,-63.3 -38.4,-141.3" /></g><path
         id="path388"
         style="fill:#adadab;fill-opacity:1;fill-rule:nonzero;stroke:none"
         d="m 11571.4,14264.1 -264.1,4.2 c -101.7,-226.6 14.5,-435.8 14.5,-435.8 h 248 c 92.3,169.3 13.8,398.2 1.6,431.6" /><path
         id="path390"
         style="fill:#252323;fill-opacity:1;fill-rule:nonzero;stroke:none"
         d="m 11381.9,14058.2 c 0,-86.7 -19.1,-156.9 -42.7,-156.9 -23.5,0 -42.6,70.2 -42.6,156.9 0,86.6 19.1,156.9 42.6,156.9 23.6,0 42.7,-70.3 42.7,-156.9" /><path
         id="path392"
         style="fill:#a45330;fill-opacity:1;fill-rule:nonzero;stroke:none"
         d="m 14559.5,11782.9 c -16.5,-2.4 -152.2,35 -135.6,7.7 16.6,-27.4 85,-174.6 130,-245.1 44.9,-70.6 165.2,-84.3 267.5,-45.6 102.3,38.7 170.8,272.5 170.8,272.5 l 12.5,180.9 -445.2,-170.4" /><path
         id="path394"
         style="fill:#2f1d16;fill-opacity:1;fill-rule:nonzero;stroke:none"
         d="m 14336.2,12186.3 c 9.1,16.8 -31.4,61.8 -41.2,108.5 -9.7,46.7 2.7,233.4 1.2,255 -1.6,21.7 36.2,88.2 43.4,108.2 7.1,20 52.5,99.8 80.9,121.3 28.4,21.6 111.8,34.5 146.9,46 35.1,11.6 101.8,39.6 163.5,32.7 61.6,-7 54.9,-21.9 98.2,-25.5 43.3,-3.5 109.9,-40.5 133.1,-63.9 23.2,-23.4 104.7,-78.8 131.2,-113.9 26.5,-35.1 37.1,-198.5 31.2,-260.2 -6,-61.6 -29.7,-153.2 -29.7,-153.2 l -13.5,-41 c 0,0 4.6,-84 -0.4,-85.6 -5,-1.7 78.2,-40.4 -118.5,-44.5 -196.7,-4.1 -423.4,1.9 -423.4,1.9 0,0 -148.4,-6.1 -181.6,29.1 -33.1,35.1 -21.3,85.1 -21.3,85.1" /><path
         id="path396"
         style="fill:#c37140;fill-opacity:1;fill-rule:nonzero;stroke:none"
         d="m 14345.3,12203.1 c 0,0 -12.3,3.2 -34,-1.7 -21.7,-4.9 -3.9,-121.7 11,-151.7 14.9,-30.1 36.3,-78.5 39.6,-95.2 3.3,-16.7 34.9,-33.5 34.9,-33.5 0,0 7.9,-90.1 21.1,-125.1 13.2,-35.1 102.8,-123.8 144.2,-184 41.4,-60.2 148,-85.6 223.1,-61 75.1,24.7 120.5,107.8 135.5,126.1 15.1,18.3 82.2,103 94,134.6 11.8,31.6 18.8,121.6 18.8,121.6 0,0 28.4,6.6 41.9,38.2 13.5,31.6 25.3,81.5 33.7,96.5 8.4,15 22.2,106.6 8.9,123.3 -13.2,16.7 -36.6,9.1 -36.6,9.1 0,0 -6.8,-25.6 -10.2,-30.6 -3.3,-4.9 -23.3,-11.5 -23.3,-11.5 l -3,81.7 c 0,0 -18.3,18.4 -26.5,40.1 -8.2,21.7 -9.6,86.7 -9.6,103.4 0.1,16.6 1.9,41.6 -9.6,81.7 -11.5,40 -59.7,71.9 -84.7,77 -25,5.1 -149.9,10.7 -169.9,12.4 -20,1.8 -30.1,-6.5 -83.4,-12.9 -53.4,-6.5 -218.5,-17.4 -236.8,-27.3 -18.4,-10 -35.3,-68.2 -38.8,-88.2 -3.4,-20 9.5,-115.1 7.8,-133.4 -1.8,-18.3 -15.2,-38.3 -13.6,-51.6 1.6,-13.3 1.3,-96.7 1.3,-96.7 l -15.1,-4.9 -20.7,63.6" /><g
         transform="scale(1.01762)"
         id="g398"><path
           id="path400"
           style="fill:#100f0d;fill-opacity:1;fill-rule:nonzero;stroke:none"
           d="m 16264.2,9666.48 -917.9,306.74 c 0,0 -70.5,-45.69 -49.5,-152.26 l 1003.2,-349.84 -35.8,195.36" /></g><path
         id="path402"
         style="fill:#1e1c1b;fill-opacity:1;fill-rule:nonzero;stroke:none"
         d="m 16273.4,11721.9 -112.3,-8.4 c 0,0 -25.2,-96.2 0,-181.4 h 131.7 l -19.4,189.8" /><g
         transform="scale(1.04109)"
         id="g404"><path
           id="path406"
           style="fill:#434244;fill-opacity:1;fill-rule:nonzero;stroke:none"
           d="m 15404.1,12256.6 c 0,0 505.2,-3326.94 533.1,-3357.67 27.9,-30.65 198.2,-39.1 256.8,0 58.6,39.09 106,167.51 106,237.25 0,69.83 -209.3,1712.32 -209.3,1712.32 l 78.2,615.4 -610.3,934.1 -154.5,-141.4" /></g><g
         transform="scale(1.03224)"
         id="g408"><path
           id="path410"
           style="fill:#4c4d4e;fill-opacity:1;fill-rule:nonzero;stroke:none"
           d="m 15692,12504.3 74.2,-113.5 -31.8,-29.1 c 0,0 509.6,-3355.45 537.7,-3386.45 5.1,-5.53 14.9,-10.37 27.9,-14.34 -74,-21.99 -202.2,-12.01 -226.1,14.34 -28.2,31 -537.7,3386.45 -537.7,3386.45 l 155.8,142.6" /></g><g
         transform="scale(1.05981)"
         id="g412"><path
           id="path414"
           style="fill:#302f2f;fill-opacity:1;fill-rule:nonzero;stroke:none"
           d="m 16289.1,13412.8 c 0,0 10.9,140.8 -38.4,206.6 -49.4,65.8 -200.2,52.1 -260.5,0 -60.3,-52.1 -1011.7,-1019.9 -1047.3,-1088.5 -35.7,-68.5 -46.6,-205.6 35.6,-257.7 0,0 -30.2,-167.3 60.3,-255 90.5,-87.7 389.3,13.7 389.3,13.7 0,0 648.4,904.3 661.5,915.5 13,11.2 150.8,104.5 150.8,104.5 l 48.7,360.9" /></g><g
         transform="scale(1.00775)"
         id="g416"><path
           id="path418"
           style="fill:#434244;fill-opacity:1;fill-rule:nonzero;stroke:none"
           d="m 16300,13485.5 c -11.5,-10.3 -268.1,-327.1 -268.1,-327.1 0,0 -73.7,134.2 -251.7,98.6 l 294.9,313.3 224.9,-84.8" /></g><path
         id="path420"
         style="fill:#c1bfbd;fill-opacity:1;fill-rule:nonzero;stroke:none"
         d="m 15616.7,10148.9 116.3,-38.8 -2,-1.3 c -1.9,-1.2 -71.2,-47.8 -50.3,-154.7 l -114.4,39.9 c -21.3,108.5 50.4,154.9 50.4,154.9" /><g
         transform="scale(1.04259)"
         id="g422"><path
           id="path424"
           style="fill:#100f0d;fill-opacity:1;fill-rule:nonzero;stroke:none"
           d="m 15481.1,12623.1 c 21.1,760.5 218.7,1371.9 441.2,1365.7 l 196.8,0.2 31.6,-79.6 -6.9,-169.2 c 98.7,-251.3 156.2,-668.7 143.2,-1139.5 -14.2,-513.2 -108.9,-958.6 -237.3,-1192 l -7,-173.5 -196.9,-0.2 c -222.5,6.2 -385.8,627.7 -364.7,1388.1" /></g><g
         transform="scale(1.0557)"
         id="g426"><path
           id="path428"
           style="fill:#333232;fill-opacity:1;fill-rule:nonzero;stroke:none"
           d="m 15483.3,12466.5 c -20.9,-751 140.4,-1364.8 360.1,-1370.9 219.8,-6.1 414.8,597.8 435.7,1348.8 20.9,751 -140.4,1364.8 -360.2,1370.9 -219.7,6.1 -414.8,-597.8 -435.6,-1348.8" /></g><g
         transform="scale(1.0489)"
         id="g430"><path
           id="path432"
           style="fill:#252323;fill-opacity:1;fill-rule:nonzero;stroke:none"
           d="m 15583.6,12544.4 c -18.3,-658.7 123.2,-1197.1 316,-1202.5 192.8,-5.3 363.8,524.4 382.1,1183.2 18.3,658.7 -123.2,1197.1 -316,1202.4 -192.7,5.4 -363.8,-524.3 -382.1,-1183.1" /></g><g
         transform="scale(1.03874)"
         id="g434"><path
           id="path436"
           style="fill:#adadab;fill-opacity:1;fill-rule:nonzero;stroke:none"
           d="m 16081.3,12636.5 c -0.4,-114.1 48.1,-206.7 108.4,-206.9 60.3,-0.2 109.5,92.1 109.9,206.2 0.4,114 -48.1,206.7 -108.4,206.9 -60.4,0.2 -109.5,-92.1 -109.9,-206.2" /></g><g
         transform="scale(1.11099)"
         id="g438"><path
           id="path440"
           style="fill:#767779;fill-opacity:1;fill-rule:nonzero;stroke:none"
           d="m 16206.3,11919.8 c 0,0 93.7,-102 0.2,-232.5 l -1074.6,18.8 c 0,0 -34.1,144.2 11.2,229.6 l 1063.2,-15.9" /></g><g
         transform="scale(1.0593)"
         id="g442"><path
           id="path444"
           style="fill:#1e1c1b;fill-opacity:1;fill-rule:nonzero;stroke:none"
           d="m 16300,10981.6 v 56.7 h -560.8 c 0,0 -31.2,-93.3 0,-162.8 l 560.8,-20.1 v 126.2" /></g><g
         transform="scale(1.04007)"
         id="g446"><path
           id="path448"
           style="fill:#100f0d;fill-opacity:1;fill-rule:nonzero;stroke:none"
           d="m 16289,9394.68 11,50.86 h -92.9 c 0,0 -30.7,-81.05 0,-178.83 l 92.9,5.57 -11,122.4" /></g><path
         id="path450"
         style="fill:#a45330;fill-opacity:1;fill-rule:nonzero;stroke:none"
         d="m 15482.1,10912.2 c 0,0 54.2,-134.5 107.5,-186 44.3,-42.8 47.9,-44.3 47.9,-44.3 l 12.8,-6.8 -43.5,-140.8 c 0,0 -116.6,92.6 -164.2,160.9 0,0 56.9,74.6 39.5,217" /><path
         id="path452"
         style="fill:#c2c7ca;fill-opacity:1;fill-rule:nonzero;stroke:none"
         d="m 15442.6,10695.2 c 0,0 -27.4,-67.8 -108.7,-99.7 -81.4,-32 -374.9,-29.1 -374.9,-29.1 0,0 188.9,-110.4 383.6,-75.5 194.7,34.8 232.5,69.7 232.5,69.7 l -132.5,134.6" /><path
         id="path454"
         style="fill:#dc8458;fill-opacity:1;fill-rule:nonzero;stroke:none"
         d="m 16008,11146.6 v -74.2 c 0,0 -128,271.8 -257.6,314 -129.7,42.3 -335.5,1.3 -335.5,1.3 l 39.4,-1.3 c 50.8,27.1 126.9,56.2 216.6,54.6 165.7,-2.9 348.7,-238.2 348.7,-238.2 0,0 92.8,-99.6 129.6,-161.7 l -141.2,105.5" /><g
         transform="scale(1.00345)"
         id="g456"><path
           id="path458"
           style="fill:#c37140;fill-opacity:1;fill-rule:nonzero;stroke:none"
           d="m 16259.2,10183.3 28.1,-34.5 c 0,0 12.7,-109.5 9.3,-134.1 -3.4,-24.66 -16,-98.49 -18.3,-104.27 -2.4,-5.78 -34.5,-22.32 -34.5,-22.32 0,0 -27.3,-26.91 -64.9,-97.86 -37.7,-70.96 -82.5,-78.23 -82.5,-78.23 0,0 0,-43.46 -40.6,-46.35 -40.5,-2.88 -153.4,1.5 -179.5,14.56 -26,12.95 -101.4,96.96 -118.7,131.74 -17.5,34.68 28.9,273.63 65.1,318.53 36.2,44.9 136.1,51.1 136.1,51.1 0,0 86.9,69.1 127.4,82.1 40.6,13 173,-80.4 173,-80.4" /></g><path
         id="path460"
         style="fill:#a45330;fill-opacity:1;fill-rule:nonzero;stroke:none"
         d="m 16048.8,9731 c -50.7,-1.5 -61.1,27.6 -72.7,34.9 -11.7,7.2 -55.3,0 -64,5.8 -8.7,5.8 -30.5,34.9 -30.5,101.7 0,66.8 42.2,215 42.2,215 0,0 -23.3,-139.5 -18.9,-201.9 4.3,-62.5 18.9,-93 46.5,-93 27.6,0 31.9,24.7 42.1,71.2 10.2,46.5 69.7,184.5 74.1,188.8 4.3,4.4 -69.8,-236.8 -49.4,-274.6 20.3,-37.7 53.7,-18.8 71.2,-10.1 17.4,8.7 16,16 24.7,72.6 8.7,56.7 95.9,193.3 101.7,194.7 5.8,1.5 -87.2,-188.9 -87.2,-223.7 0,-34.9 23.3,-66.9 23.3,-66.9 0,0 -0.1,-26.2 -19.2,-39.3 -8.9,11.4 -17.5,22.3 -20.1,24.8 -5.8,5.8 -13.1,1.5 -63.8,0" /><path
         id="path462"
         style="fill:#a45330;fill-opacity:1;fill-rule:nonzero;stroke:none"
         d="m 16048.8,10575.1 c 0,0 2.8,-95.9 52.2,-212.1 0,0 -118.9,72.7 -52.2,212.1" /><path
         id="path464"
         style="fill:#a45330;fill-opacity:1;fill-rule:nonzero;stroke:none"
         d="m 15926.7,10383.3 c 0,0 -32,98.8 -23.3,218 8.7,119.1 43.6,211.2 43.6,211.2 0,0 -58.1,-115.3 -68.3,-198.1 -10.2,-82.9 -5.5,-190 -5.5,-190 l 53.5,-41.1" /><g
         transform="scale(1.08334)"
         id="g466"><path
           id="path468"
           style="fill:#100f0d;fill-opacity:1;fill-rule:nonzero;stroke:none"
           d="m 16300,10448.2 c 0,-21.5 0,-579.35 0,-579.35 h -222.5 l -11.7,579.35 h 234.2" /></g><g
         transform="scale(1.00267)"
         id="g470"><path
           id="path472"
           style="fill:#a45330;fill-opacity:1;fill-rule:nonzero;stroke:none"
           d="m 16300,10199.4 c 0,0 -124.1,31 -241.9,-4.9 0,0 115.9,-10.7 235.7,-37.8 l 6.2,42.7" /></g><g
         transform="scale(1.06259)"
         id="g474"><path
           id="path476"
           style="fill:#333232;fill-opacity:1;fill-rule:nonzero;stroke:none"
           d="m 16199,10913 c 0,-50.4 22.7,-91.2 50.6,-91.2 27.8,0 50.4,40.8 50.4,91.2 0,50.3 -22.6,91.1 -50.4,91.1 -27.9,0 -50.6,-40.8 -50.6,-91.1" /></g><g
         transform="scale(1.04323)"
         id="g478"><path
           id="path480"
           style="fill:#434244;fill-opacity:1;fill-rule:nonzero;stroke:none"
           d="m 16201.1,9330.52 c 0,-47.65 22.1,-86.37 49.4,-86.37 27.4,0 49.5,38.72 49.5,86.37 0,47.73 -22.1,86.36 -49.5,86.36 -27.3,0 -49.4,-38.63 -49.4,-86.36" /></g></g></g></svg>