<?xml version="1.0" encoding="UTF-8" standalone="no"?>
<svg
   xmlns:dc="http://purl.org/dc/elements/1.1/"
   xmlns:cc="http://creativecommons.org/ns#"
   xmlns:rdf="http://www.w3.org/1999/02/22-rdf-syntax-ns#"
   xmlns:svg="http://www.w3.org/2000/svg"
   xmlns="http://www.w3.org/2000/svg"
   viewBox="0 0 2666.6667 2666.6667"
   height="2666.6667"
   width="2666.6667"
   xml:space="preserve"
   id="svg2"
   version="1.1"><metadata
     id="metadata8"><rdf:RDF><cc:Work
         rdf:about=""><dc:format>image/svg+xml</dc:format><dc:type
           rdf:resource="http://purl.org/dc/dcmitype/StillImage" /></cc:Work></rdf:RDF></metadata><defs
     id="defs6" /><g
     transform="matrix(1.3333333,0,0,-1.3333333,0,2666.6667)"
     id="g10"><g
       transform="scale(0.1)"
       id="g12"><g
         transform="scale(1.22699)"
         id="g14"><path
           id="path16"
           style="fill:none;fill-opacity:1;fill-rule:nonzero;stroke:none"
           d="M 16300,0 H 0 V 16300 H 16300 V 0" /></g><path
         id="path18"
         style="fill:#39393a;fill-opacity:1;fill-rule:nonzero;stroke:none"
         d="m 13356.2,14026 c 41,0 2015.7,-396.3 2015.7,-396.3 l -1489.6,-75.1 -778,235.7 -28.3,64.9 280.2,170.8" /><path
         id="path20"
         style="fill:#555658;fill-opacity:1;fill-rule:nonzero;stroke:none"
         d="m 15283.1,13124.1 396.3,109.3 v 321.2 c 0,0 -245.4,78.3 -307.5,75.1 -62,-3.1 -170,-75.1 -170,-75.1 -14.5,-97.9 81.2,-430.5 81.2,-430.5" /><path
         id="path22"
         style="fill:#555658;fill-opacity:1;fill-rule:nonzero;stroke:none"
         d="m 8832.77,11805.3 437.31,136.7 v 389.5 l -437.31,20.5 -252.82,-218.7 252.82,-328" /><path
         id="path24"
         style="fill:#555658;fill-opacity:1;fill-rule:nonzero;stroke:none"
         d="m 14406.6,15064.7 v -984 c 0,0 11.8,-205 0,-239.1 -11.8,-34.2 -155.3,-143.5 -155.3,-143.5 l -111.5,27.3 v 1482.7 l 266.8,-143.4" /><path
         id="path26"
         style="fill:#838585;fill-opacity:1;fill-rule:nonzero;stroke:none"
         d="m 13861.8,15044.2 123,-129.9 c 0,0 -27.3,-713.5 -34.1,-746.2 -6.9,-32.7 -157.2,-374.4 -157.2,-374.4 l -615,102.5 -182,-259.6 2286.6,-512.5 v 410 l -1055,266.2 23.2,1407.8 H 13855 l 6.8,-163.9" /><path
         id="path28"
         style="fill:#39393a;fill-opacity:1;fill-rule:nonzero;stroke:none"
         d="m 6936.62,12748.3 -102.49,174.2 399.72,71.8 2036.23,-662.8 -437.31,-136.7 -1229.94,232.3 -666.21,321.2" /><path
         id="path30"
         style="fill:#224b76;fill-opacity:1;fill-rule:nonzero;stroke:none"
         d="m 4945.04,15395.4 c 0,-326.4 -247.47,-590.9 -552.75,-590.9 -305.27,0 -552.75,264.5 -552.75,590.9 0,326.4 247.48,590.9 552.75,590.9 305.28,0 552.75,-264.5 552.75,-590.9" /><path
         id="path32"
         style="fill:#2c5e9f;fill-opacity:1;fill-rule:nonzero;stroke:none"
         d="m 4945.04,15395.4 c 0,-326.4 -225.1,-590.9 -502.78,-590.9 -277.68,0 -502.78,264.5 -502.78,590.9 0,326.4 225.1,590.9 502.78,590.9 277.68,0 502.78,-264.5 502.78,-590.9" /><path
         id="path34"
         style="fill:#c6c5c3;fill-opacity:1;fill-rule:nonzero;stroke:none"
         d="m 4595.44,15401.4 c 0,-97 -73.42,-175.6 -163.99,-175.6 -90.57,0 -163.99,78.6 -163.99,175.6 0,96.9 73.42,175.5 163.99,175.5 90.57,0 163.99,-78.6 163.99,-175.5" /><g
         transform="scale(1.02608)"
         id="g36"><path
           id="path38"
           style="fill:#4c4d4e;fill-opacity:1;fill-rule:nonzero;stroke:none"
           d="m 8095.51,15847.2 c -66.59,-65.7 -846.88,-387.4 -771.39,-481.7 75.49,-94.4 132.1,-244.2 523.34,-274.2 391.23,-29.9 1310.22,-69.9 1310.22,-69.9 l 1897.92,249.7 1019.3,237.8 c 0,0 399.1,81.9 289.3,211.7 -110,129.9 -629.3,339.7 -629.3,339.7 0,0 -759.2,239.7 -1368.5,159.8 -609.34,-79.9 -1650.3,-269.7 -1650.3,-269.7 l -620.59,-103.2" /></g><path
         id="path40"
         style="fill:#3a70c0;fill-opacity:1;fill-rule:nonzero;stroke:none"
         d="m 14480.2,14275.4 c 0,0 -88.8,-3.4 -112.7,-58 -23.9,-54.7 27.3,-85.5 -75.2,-280.2 -102.5,-194.7 -133.2,-331.4 -95.6,-392.9 37.5,-61.5 519.3,-119.6 789.2,-92.2 269.9,27.3 625.2,-51.5 881.4,-7 256.3,44.6 314.3,194.9 287,300.8 -27.3,105.9 -54.7,119.6 -287,153.7 -232.3,34.2 -454.4,191.4 -498.8,252.8 -44.4,61.5 -326.5,287 -326.5,287 0,0 -186,-34.1 -278.2,-64.9 -92.3,-30.7 -283.6,-99.1 -283.6,-99.1" /><path
         id="path42"
         style="fill:#3a70c0;fill-opacity:1;fill-rule:nonzero;stroke:none"
         d="m 12912.1,14475.3 -128.2,-100.8 c 0,0 -42.7,3.4 -77.7,-73.4 -35,-76.9 -9.4,-227.2 -19.6,-275.1 -10.3,-47.8 -133.3,-234 -82,-327.9 51.2,-94 379.2,-90.6 543.2,0 164,90.5 215.2,240.5 271.6,237.2 56.4,-3.2 384.4,78.8 445.9,196.6 61.4,117.9 51.2,246 0,271.7 -51.3,25.6 -287,5.1 -343.4,71.7 -56.4,66.6 -261.4,169.1 -307.5,169.1 -46.1,0 -302.3,-169.1 -302.3,-169.1" /><path
         id="path44"
         style="fill:#ffffff;fill-opacity:1;fill-rule:nonzero;stroke:none"
         d="m 12953.1,14418.9 c -17.3,22.9 61.5,-156.7 97.3,-178.3 35.9,-21.5 189.6,58.8 246,133.9 56.4,75.2 56.4,44.4 56.4,75.2 0,30.7 -138.4,194.7 -138.4,194.7 0,0 -133.2,-82 -138.4,-102.5 -5.1,-20.5 -122.9,-123 -122.9,-123" /><path
         id="path46"
         style="fill:#fbc295;fill-opacity:1;fill-rule:nonzero;stroke:none"
         d="m 12753.2,14880.2 30.7,-505.7 c 0,0 225.5,8.6 317.8,64.9 92.2,56.4 133.2,153.8 133.2,153.8 v 531.3 c 0,0 -307.5,-34.2 -348.5,-65 -41,-30.7 -133.2,-179.3 -133.2,-179.3" /><path
         id="path48"
         style="fill:#ffffff;fill-opacity:1;fill-rule:nonzero;stroke:none"
         d="m 14538.9,14296.3 c 0,0 71.1,-287.3 91.6,-328.3 20.5,-41 399.8,129.2 406.6,136.3 6.8,7.2 6.8,232.6 6.8,232.6 l -280.1,37.6 -224.9,-78.2" /><path
         id="path50"
         style="fill:#555658;fill-opacity:1;fill-rule:nonzero;stroke:none"
         d="m 8469.75,12594.5 c 7.71,44.4 171.7,1602.4 199.03,1643.4 27.33,41 5737.82,826.8 5737.82,826.8 v 848.6 c 0,0 -3243.3,-356.7 -4360.5,-500.2 -1117.15,-143.5 -1625.82,-266.4 -1625.82,-266.4 0,0 -243.48,-430.5 -243.48,-471.5 0,-41 -124.7,-2183.2 -124.7,-2183.2 l 417.65,102.5" /><path
         id="path52"
         style="fill:#838585;fill-opacity:1;fill-rule:nonzero;stroke:none"
         d="m 8420.28,15146.7 -212.73,-2675.2 625.22,-276.7 v -389.5 c 0,0 -1998.64,748.2 -1998.64,779 0,30.7 0,338.2 0,338.2 l 999.32,-256.2 251.11,2634.1 335.72,-153.7" /><g
         transform="scale(1.0789)"
         id="g54"><path
           id="path56"
           style="fill:#fbc295;fill-opacity:1;fill-rule:nonzero;stroke:none"
           d="m 13316.8,16300 c 0,0 470.2,-85.5 622.3,-156.7 152,-71.3 190,-185.3 190,-242.3 0,-57 0,-136.4 0,-136.4 0,0 4.7,-319.6 0,-633.1 -4.8,-313.5 -104.5,-783.7 -152,-1125.7 -47.5,-342 -33.3,-703 -33.3,-717.3 0,-14.2 -47.5,-52.2 -194.8,-80.7 -147.1,-28.5 -327.7,23.7 -327.7,23.7 0,0 33.3,631.8 -4.7,878.8 -38,247 -144.2,574.7 -169.5,834.4 -25.3,259.6 11.3,433.9 11.3,433.9 0,0 -213.9,326.1 -213.9,357.7 0,31.7 272.3,563.7 272.3,563.7" /></g><path
         id="path58"
         style="fill:#9a9a9a;fill-opacity:1;fill-rule:nonzero;stroke:none"
         d="m 7534.5,15413.1 c 0,0 189.55,-370 1276.88,-272.1 1087.34,97.9 5595.22,772.3 5595.22,772.3 l -435.4,50.5 -1284.6,166.8 c 0,0 -2798.14,-410 -3659.09,-440.7 -860.96,-30.8 -1137.69,41 -1137.69,41 l -355.32,-317.8" /><g
         transform="scale(1.0898)"
         id="g60"><path
           id="path62"
           style="fill:#252323;fill-opacity:1;fill-rule:nonzero;stroke:none"
           d="m 11030,14914.3 c 0,0 266.4,-94 416.8,-163 150.5,-69 514.2,-125.4 696,-94 181.9,31.3 677.2,-8.9 677.2,-8.9 0,0 232,366.3 326,629.6 94.1,263.3 87.8,783.7 37.7,859 -50.2,75.2 -1040.9,37.6 -1185.1,68.9 -144.2,31.4 -338.5,81.6 -514.2,87.8 -175.5,6.3 -852.6,-43.9 -852.6,-43.9 v -589.3 l 398.2,-746.2" /></g><g
         transform="scale(1.03362)"
         id="g64"><path
           id="path66"
           style="fill:#e19f72;fill-opacity:1;fill-rule:nonzero;stroke:none"
           d="m 14495.1,16146.3 c 0,0 -208.3,-14.9 -381.8,-128.9 -173.5,-114 -295.1,-242.9 -295.1,-242.9 l 20.9,277.6 c 0,0 264.3,247.9 656,94.2" /></g><g
         transform="scale(1.0898)"
         id="g68"><path
           id="path70"
           style="fill:#141211;fill-opacity:1;fill-rule:nonzero;stroke:none"
           d="m 10882.6,16137 c 0,0 275.8,87.8 645.8,69 369.9,-18.9 470.2,0 470.2,0 -144.2,31.3 -338.5,81.5 -514.2,87.7 -175.5,6.3 -852.6,-43.9 -852.6,-43.9 v -589.3 l 28.5,-53.6 222.3,530.1" /></g><g
         transform="scale(1.11285)"
         id="g72"><path
           id="path74"
           style="fill:#3a70c0;fill-opacity:1;fill-rule:nonzero;stroke:none"
           d="m 7089.73,15397.4 c 0,0 564.88,417.5 641.64,460.5 76.74,43 666.19,368.4 752.15,405.3 85.96,36.8 1046.85,-101.4 1083.7,-101.4 36.84,0 884.18,-193.4 1003.88,-248.6 119.8,-55.3 552.7,-335.5 561.8,-674.3 9.3,-338.8 -138.1,-578.3 -331.5,-633.6 -193.4,-55.2 -442.1,73.7 -672.4,101.4 -230.2,27.6 -405.16,9.2 -460.42,-27.7 -55.27,-36.8 -322.42,-405.2 -810.52,-478.9 -488.13,-73.7 -884.16,0 -884.16,0 l -242.53,571 -365.34,184.2 -276.3,442.1" /></g><g
         transform="scale(1.08057)"
         id="g76"><path
           id="path78"
           style="fill:#efac80;fill-opacity:1;fill-rule:nonzero;stroke:none"
           d="m 7529.15,14731.8 c 18.97,0 233.98,6.3 233.98,6.3 0,0 158.08,-75.9 303.52,-94.9 145.44,-18.9 145.44,-18.9 145.44,-18.9 0,0 -37.94,570.4 25.3,708.9 63.23,138.4 189.7,404 208.67,638 18.97,234 -25.29,328.8 -221.33,316.2 -196.02,-12.7 -562.79,-458.2 -594.4,-542.1 -31.62,-84 -363.6,-450 -411.02,-501.3 -47.43,-51.3 -56.92,-258.4 -56.92,-258.4 l 366.76,-253.8" /></g><g
         transform="scale(1.08333)"
         id="g80"><path
           id="path82"
           style="fill:#e19f72;fill-opacity:1;fill-rule:nonzero;stroke:none"
           d="m 5554.89,13801.4 c -11.59,4.2 -26.98,204.3 -64.82,294.2 -37.84,89.8 -61.5,160.8 -66.22,208.1 -4.74,47.3 31.71,591.3 65.52,704.9 33.82,113.5 241.96,444.8 241.96,444.8 0,0 271.66,-95.9 459.88,-159.2 188.21,-63.3 681.76,159.2 681.76,159.2 l 271.21,284.1 c 0,0 -305.9,146.2 -465.16,247.1 -159.26,100.9 -304.33,151.4 -556.63,189.3 -252.3,37.8 -698.96,126.1 -698.96,126.1 0,0 -184.07,-45.1 -284.99,-218.1 -100.92,-173 -233.38,-646.9 -220.76,-829.4 12.61,-182.4 75.69,-794.3 75.69,-794.3 0,0 -71.06,-264 -76.53,-428.4 l 638.05,-228.4" /></g><g
         transform="scale(1.04041)"
         id="g84"><path
           id="path86"
           style="fill:#d69264;fill-opacity:1;fill-rule:nonzero;stroke:none"
           d="m 8083.89,16300 136.58,-129.2 118.21,108.3 c 0,0 -62.39,-108.3 -82.09,-187.2 -19.71,-78.8 -45.3,-210.1 -45.3,-210.1 0,0 -13.81,174 -20.38,190.4 -6.57,16.5 -124.79,131.4 -124.79,131.4 l 17.77,96.4" /></g><path
         id="path88"
         style="fill:#d69264;fill-opacity:1;fill-rule:nonzero;stroke:none"
         d="m 8456.96,16001.7 c 0,0 51.24,12.7 99.08,98.2 47.83,85.4 47.83,85.4 47.83,85.4 0,0 -17.09,-107.5 -51.25,-183.6 -34.17,-76.1 -68.02,-116.3 -68.02,-116.3 l -95.97,40.2 -20.5,61.5 88.83,14.6" /><g
         transform="scale(1.04452)"
         id="g90"><path
           id="path92"
           style="fill:#252323;fill-opacity:1;fill-rule:nonzero;stroke:none"
           d="m 7056.34,16188.8 -111.21,49.1 c 0,0 -111.2,62.1 -209.33,49 -98.13,-13.1 -130.83,-32.7 -222.42,-98.1 -91.59,-65.4 -130.83,-124.3 -157.01,-229 -26.16,-104.6 -52.33,-209.3 -71.95,-268.2 -19.63,-58.9 45.79,-516.8 98.13,-647.6 52.33,-130.8 127.27,-196.3 286.06,-287.9 158.77,-91.5 335.4,6.6 544.73,0 209.34,-6.5 294.38,170.1 464.46,229 170.09,58.9 274.76,242.1 353.26,261.7 78.5,19.6 91.59,47.6 65.42,72.8 -26.17,25.3 -209.34,151.4 -209.34,183.2 0,31.8 32.71,260.8 -45.79,332.7 -78.49,72 -294.37,170.1 -385.96,196.3 -91.58,26.2 -399.05,157 -399.05,157" /></g><g
         transform="scale(1.05165)"
         id="g94"><path
           id="path96"
           style="fill:#efac80;fill-opacity:1;fill-rule:nonzero;stroke:none"
           d="m 6898.07,16127.8 c 0,0 155.94,55.3 207.92,61.7 51.98,6.5 123.45,-19.4 172.18,-16.2 48.73,3.2 178.68,113.7 224.16,120.2 45.49,6.5 107.2,-61.7 107.2,-61.7 0,0 282.65,13 347.62,-6.5 64.98,-19.5 51.98,-386.6 38.99,-458.1 -13,-71.5 -97.47,-305.4 -97.47,-305.4 0,0 -19.49,-168.9 -168.93,-233.9 -149.43,-64.9 -168.94,149.5 -97.46,220.9 71.47,71.5 90.96,78 77.97,117 -13,39 -32.49,52 -71.48,45.5 -38.98,-6.5 -119.33,-65 -186.36,-45.5 -67.03,19.5 -112.52,78 -190.48,110.4 -77.97,32.5 -214.42,27.4 -246.91,78.7 -32.48,51.3 -58.47,317.7 -116.95,372.9" /></g><g
         transform="scale(1.07912)"
         id="g98"><path
           id="path100"
           style="fill:#e7a476;fill-opacity:1;fill-rule:nonzero;stroke:none"
           d="m 8182.66,15916.8 c -5.75,1.1 -11.51,2.1 -17.22,3.1 -0.89,40.1 5.12,105.7 41.89,177.3 60.16,117.1 142.53,202.8 142.53,202.8 l 60.17,-34.9 c 0,0 -129.88,-158.4 -177.36,-243.9 -24.18,-43.5 -40.15,-79.5 -50.01,-104.4" /></g><path
         id="path102"
         style="fill:#fbc295;fill-opacity:1;fill-rule:nonzero;stroke:none"
         d="m 7056.2,15239.4 c 0,0 -85.42,-198.2 -222.08,-266.5 -136.66,-68.4 -280.76,-194.8 -273.62,-240.9 7.14,-46.1 104.51,-169.1 140.38,-179.4 35.87,-10.2 194.74,-107.6 271.61,-102.4 76.88,5.1 83.71,81.9 83.71,81.9 l 505.64,-148.6 c 0,0 -16.86,210.1 -51.98,348.5 -35.14,138.4 0,302.4 0,302.4 l -453.66,205" /><path
         id="path104"
         style="fill:#d69264;fill-opacity:1;fill-rule:nonzero;stroke:none"
         d="m 5326.55,15198.8 c 0,0 59.57,142.8 123.9,153.3 l 89.97,-229.8 -213.87,76.5" /><path
         id="path106"
         style="fill:#d69264;fill-opacity:1;fill-rule:nonzero;stroke:none"
         d="m 6878.54,14774.7 c 0,0 -3.42,-78.6 13.67,-105.9 17.08,-27.3 163.99,-136.7 163.99,-136.7 0,0 165.36,-48.6 152.23,-44.7 -13.13,3.9 -254.73,195.1 -268.4,215.6 -13.66,20.5 -61.49,71.7 -61.49,71.7" /><path
         id="path108"
         style="fill:#9a9a9a;fill-opacity:1;fill-rule:nonzero;stroke:none"
         d="m 4415.25,15300.4 3592.44,-1326.8 102.49,229.1 -3612.94,1292.9 c 0,0 -163.98,-21.4 -81.99,-195.2" /><g
         transform="scale(1.04581)"
         id="g110"><path
           id="path112"
           style="fill:#d69264;fill-opacity:1;fill-rule:nonzero;stroke:none"
           d="m 5936.95,16007.8 c 0,0 -78.41,66.8 -120.87,171.3 -42.48,104.6 -49.01,120.9 -49.01,120.9 0,0 -35.93,-107.8 0,-199.3 35.94,-91.4 -5.83,-392.4 -5.83,-392.4 l 175.71,299.5" /></g><path
         id="path114"
         style="fill:#e19f72;fill-opacity:1;fill-rule:nonzero;stroke:none"
         d="m 5290.22,14977.2 c 0,0 16.73,-55.6 64.57,-100 47.83,-44.4 105.91,-65.8 105.91,-65.8 0,0 47.83,-19.6 64.91,-36.7 17.08,-17.1 75.16,-68.3 174.24,-78.6 99.08,-10.2 208.92,52.7 208.92,52.7 l -198.67,87.3 c 0,0 -32.49,140.2 -67.49,157.3 -35,17 -102.19,128.9 -102.19,128.9 0,0 -100.22,36.7 -148.05,0 -47.83,-36.7 -102.15,-145.1 -102.15,-145.1" /><g
         transform="scale(1.0565)"
         id="g116"><path
           id="path118"
           style="fill:#fbc295;fill-opacity:1;fill-rule:nonzero;stroke:none"
           d="m 8897.23,16051.7 c 0,0 462.86,68.6 700.33,0 237.48,-68.6 134.02,-463.1 56.41,-599 -77.62,-135.8 -297.54,-219.8 -426.89,-232.8 -129.36,-12.9 -213.44,-36.8 -271.64,-41 -58.21,-4.3 -77.61,-22.8 -278.11,-32.9 -200.49,-10.2 -337.16,173.7 -337.16,173.7 l -196.41,68.4 c 0,0 -514.18,-446.4 -675.86,-640.4 -161.7,-194 -359.64,-517.3 -359.64,-517.3 l -429.4,194 c 0,0 407.45,1093 575.61,1293.5 168.15,200.5 607.95,575.7 688.79,578.9 80.85,3.2 643.52,-14.8 953.97,-245.1" /></g><g
         transform="scale(1.04041)"
         id="g120"><path
           id="path122"
           style="fill:#5a7fa7;fill-opacity:1;fill-rule:nonzero;stroke:none"
           d="m 9034.86,16300 c 0,0 0.02,0 0.02,0 0,0 -0.02,0 -0.02,0" /></g><g
         transform="scale(1.04238)"
         id="g124"><path
           id="path126"
           style="fill:#f0b182;fill-opacity:1;fill-rule:nonzero;stroke:none"
           d="m 9279.93,15911.1 c 0,0 0,0 -72.1,111.6 -72.11,111.6 -190.1,246.4 -190.1,246.4 0,0 0,0 0.02,0 0,0 0.01,0 0.02,0 3.34,0.5 210.12,30.9 418.72,30.9 24.47,0 48.97,-0.4 73.17,-1.4 -102.33,-29.4 -262.32,-79 -275.61,-105.6 -19.67,-39.3 45.88,-281.9 45.88,-281.9" /></g><path
         id="path128"
         style="fill:#e7a476;fill-opacity:1;fill-rule:nonzero;stroke:none"
         d="m 8640.81,16244.6 -36.94,12.9 v 0 l 36.94,-12.9" /><g
         transform="scale(1.01205)"
         id="g130"><path
           id="path132"
           style="fill:#f0b182;fill-opacity:1;fill-rule:nonzero;stroke:none"
           d="m 8592.9,16032 -55.01,19.1 -36.49,12.7 v 0 h -0.02 c 0,0 33.77,224.5 70.94,234.6 3.85,1.1 7.48,1.6 11.05,1.6 30.9,0 57.2,-37.8 180.68,-89 137.76,-57 328.1,-69.5 328.1,-69.5 0,0 -83.8,-41.9 -182.8,-41.9 -9.82,0 -19.81,0.4 -29.87,1.3 -111.4,10.1 -230.2,39.3 -230.2,39.3 L 8592.9,16032" /></g><path
         id="path134"
         style="fill:#e19f72;fill-opacity:1;fill-rule:nonzero;stroke:none"
         d="m 5450.45,15352.1 89.97,-229.8 c 0,0 -3.41,-57.2 -44.99,-67.4 -41.57,-10.3 -94.61,-43.5 -82.56,-85.5 12.04,-41.9 194.74,-47.8 269.9,-34.1 75.16,13.6 160.57,85.4 167.41,99.1 6.83,13.6 23.91,106 23.91,106 l -300.65,231.7 -122.99,-20" /><path
         id="path136"
         style="fill:#fbc295;fill-opacity:1;fill-rule:nonzero;stroke:none"
         d="m 6707.71,14327.2 c 1.17,-12.3 34.17,-47.9 71.75,-58.1 37.58,-10.3 54.66,0 54.66,0 0,0 41,-50.8 71.75,-66.4 30.75,-15.6 58.08,-15.6 58.08,-15.6 0,0 39.95,-34.2 79.76,-51.3 20.65,-8.8 37.02,-4.8 49.91,-0.8 11.95,3.7 20.9,7.4 27.49,0.8 13.67,-13.6 54.66,-82 150.33,-78.5 95.66,3.4 174.23,92.2 174.23,92.2 0,0 -105.9,41.5 -109.32,53.2 -3.42,11.7 -68.33,172.3 -99.08,180.8 -30.75,8.6 -75.16,0 -75.16,0 0,0 -27.33,49.6 -54.67,59.8 -27.33,10.3 -51.24,0 -51.24,0 0,0 -54.67,29.7 -85.42,43.9 -30.75,14.2 -75.16,0 -75.16,0 0,0 -61.74,54.7 -102.5,48.4 -40.74,-6.4 -92.24,-136.7 -85.41,-208.4" /><path
         id="path138"
         style="fill:#b49782;fill-opacity:1;fill-rule:nonzero;stroke:none"
         d="m 7056.2,14443.3 c 0,0 -10.61,5.8 -25.1,13.4 14.48,-7.6 25.1,-13.4 25.1,-13.4 0,0 2.93,1.3 7.91,2.5 -4.98,-1.2 -7.91,-2.5 -7.91,-2.5" /><path
         id="path140"
         style="fill:#ecac7e;fill-opacity:1;fill-rule:nonzero;stroke:none"
         d="m 6963.95,14187.1 v 0 0 l -28.69,4.5 -0.44,0.1 c 0.08,0.6 14.69,104.9 42.8,171.3 28.19,66.7 48.2,96.5 48.2,96.5 1.81,-1 3.57,-1.9 5.28,-2.8 14.49,-7.6 25.1,-13.4 25.1,-13.4 0,0 2.93,1.3 7.91,2.5 4.5,1 10.68,2.1 17.88,2.1 4.8,0 10.07,-0.5 15.59,-1.7 -9.93,-13 -25.3,-31.2 -53.87,-54.1 -63.71,-51.3 -79.76,-205 -79.76,-205" /><path
         id="path142"
         style="fill:#eecfba;fill-opacity:1;fill-rule:nonzero;stroke:none"
         d="m 7121.76,14135.2 c -0.01,0 -0.01,0 -0.02,0 0.01,0 0.01,0 0.02,0 m -0.12,0.1 c -0.03,0 -0.05,0 -0.08,0.1 0.03,-0.1 0.05,-0.1 0.08,-0.1 m -0.12,0.1 c -0.04,0.1 -0.08,0.1 -0.12,0.1 0.04,0 0.08,0 0.12,-0.1 m -0.14,0.2 c -0.04,0 -0.09,0 -0.13,0.1 0.04,-0.1 0.08,-0.1 0.13,-0.1 m -0.14,0.1 c -0.05,0.1 -0.09,0.1 -0.13,0.1 v 0 0 c 0.04,0 0.08,0 0.13,-0.1" /><path
         id="path144"
         style="fill:#ecac7e;fill-opacity:1;fill-rule:nonzero;stroke:none"
         d="m 7235.56,14059.6 c -69.06,11.6 -101.47,62.6 -113.8,75.6 -0.01,0 -0.01,0 -0.02,0 -0.03,0 -0.07,0.1 -0.1,0.1 -0.03,0 -0.05,0 -0.08,0.1 -0.01,0 -0.03,0 -0.04,0 -0.04,0.1 -0.08,0.1 -0.12,0.1 -0.01,0 -0.02,0.1 -0.02,0.1 -0.05,0 -0.09,0 -0.13,0.1 0,0 -0.01,0 -0.01,0 -0.05,0.1 -0.09,0.1 -0.13,0.1 v 0 c 0,0 -15.37,68.4 -5.12,147.8 10.24,79.4 46.12,99.9 46.12,99.9 0,0 19.73,3.8 41.98,3.8 1.51,0 3.03,0 4.55,-0.1 -18.6,-49.2 -41.58,-126.8 -28.6,-184.5 11.29,-50.2 35.78,-104.4 55.52,-143.1" /><path
         id="path146"
         style="fill:#b49782;fill-opacity:1;fill-rule:nonzero;stroke:none"
         d="m 6895.62,14487.2 c -0.01,0 -0.01,0 -0.02,0 0.01,0 0.02,0 0.02,0" /><path
         id="path148"
         style="fill:#ecac7e;fill-opacity:1;fill-rule:nonzero;stroke:none"
         d="m 6862.5,14237.6 -28.38,31.5 v 0 c 0,0 15.37,42.7 10.25,114.4 -4.11,57.6 -8.22,121 -9.69,143.8 31.21,-14 60.23,-39.5 60.92,-40.1 0.01,0 0.01,0 0.02,0 v 0 l -33.12,-249.6" /><path
         id="path150"
         style="fill:#2c5e9f;fill-opacity:1;fill-rule:nonzero;stroke:none"
         d="m 9269.88,13716.9 c -100.6,-384.5 -473.68,-619.8 -833.29,-525.7 -359.61,94.1 -569.57,482 -468.97,866.5 100.61,384.4 473.69,619.7 833.3,525.6 359.61,-94.1 569.57,-482 468.96,-866.4" /><path
         id="path152"
         style="fill:#224b76;fill-opacity:1;fill-rule:nonzero;stroke:none"
         d="m 8125.43,14016.4 c 93.13,355.8 419.74,583.7 753.01,541 -25,10.1 -50.79,19 -77.52,25.9 -359.61,94.1 -732.69,-141.2 -833.3,-525.6 -100.6,-384.5 109.36,-772.4 468.97,-866.5 26.73,-7 53.53,-12 80.29,-15.4 -311.47,126 -484.58,484.7 -391.45,840.6" /><path
         id="path154"
         style="fill:#c6c5c3;fill-opacity:1;fill-rule:nonzero;stroke:none"
         d="m 8867.24,13793.5 c -29.06,-111.1 -128.64,-181.2 -222.42,-156.7 -93.77,24.6 -146.23,134.5 -117.17,245.6 29.06,111 128.64,181.1 222.42,156.6 93.77,-24.6 146.23,-134.5 117.17,-245.5" /><path
         id="path156"
         style="fill:#9a9a9a;fill-opacity:1;fill-rule:nonzero;stroke:none"
         d="m 8673.62,13711.7 604.94,-225.4 64.01,244.6 -583.69,198.6 c 0,0 -112.29,-37.7 -85.26,-217.8" /><path
         id="path158"
         style="fill:#c6c5c3;fill-opacity:1;fill-rule:nonzero;stroke:none"
         d="m 9443.52,13576.8 c -18.09,-69.1 -80.07,-112.7 -138.43,-97.4 -58.37,15.2 -91.02,83.6 -72.93,152.8 18.09,69.1 80.07,112.7 138.43,97.5 58.37,-15.3 91.02,-83.7 72.93,-152.9" /><path
         id="path160"
         style="fill:#fbc295;fill-opacity:1;fill-rule:nonzero;stroke:none"
         d="m 15229.3,16100.9 h -934.4 c 31.1,-276.4 140.3,-618 180.2,-877.4 41,-266.5 5.1,-948.1 5.1,-948.1 0,0 194.8,-56.3 353.6,-25.6 158.9,30.8 210.1,71.8 210.1,87.1 0,15.4 -15.3,404.9 35.9,773.9 40.9,294 117.4,675.9 149.5,990.1" /><path
         id="path162"
         style="fill:#39393a;fill-opacity:1;fill-rule:nonzero;stroke:none"
         d="m 11995.7,4115.3 c 41,0 2015.7,-396.3 2015.7,-396.3 l -1489.5,-75.2 -778.1,235.7 -28.2,64.9 280.1,170.9" /><path
         id="path164"
         style="fill:#224b76;fill-opacity:1;fill-rule:nonzero;stroke:none"
         d="m 7091.62,10727.5 c 0,-326.4 -247.48,-590.9 -552.75,-590.9 -305.28,0 -552.76,264.5 -552.76,590.9 0,326.3 247.48,590.9 552.76,590.9 305.27,0 552.75,-264.6 552.75,-590.9" /><path
         id="path166"
         style="fill:#2c5e9f;fill-opacity:1;fill-rule:nonzero;stroke:none"
         d="m 7091.62,10727.5 c 0,-326.4 -225.11,-590.9 -502.79,-590.9 -277.68,0 -502.78,264.5 -502.78,590.9 0,326.3 225.1,590.9 502.78,590.9 277.68,0 502.79,-264.6 502.79,-590.9" /><path
         id="path168"
         style="fill:#c6c5c3;fill-opacity:1;fill-rule:nonzero;stroke:none"
         d="m 6742.02,10733.4 c 0,-96.9 -73.43,-175.5 -164,-175.5 -90.56,0 -163.99,78.6 -163.99,175.5 0,97 73.43,175.6 163.99,175.6 90.57,0 164,-78.6 164,-175.6" /><path
         id="path170"
         style="fill:#e19f72;fill-opacity:1;fill-rule:nonzero;stroke:none"
         d="m 9148.08,10540 c 0,7.7 64.06,176.8 148.61,189.6 84.56,12.8 88.83,-33.8 112.75,-109.2 23.91,-75.3 87.12,-103.5 87.12,-103.5 l -348.48,23.1" /><path
         id="path172"
         style="fill:#fbc295;fill-opacity:1;fill-rule:nonzero;stroke:none"
         d="m 8217.32,8192.8 c 0,0 7.07,849 0,999.4 -7.06,150.3 -150.56,901.9 -150.56,901.9 h -416.81 c 0,0 -17.89,-415.1 -67.03,-599.6 -49.13,-184.5 -64.51,-486.8 -59.39,-743.1 5.13,-256.2 -0.93,-286.9 -0.93,-286.9 0,0 -209.18,-133.3 -250.17,-338.3 -41,-205 -212.62,-538.1 -212.62,-538.1 0,0 446.8,-52.8 655.13,53.1 208.33,105.8 502.38,551.6 502.38,551.6" /><path
         id="path174"
         style="fill:#555658;fill-opacity:1;fill-rule:nonzero;stroke:none"
         d="m 13922.6,3213.3 396.3,109.3 v 321.2 c 0,0 -245.4,78.3 -307.5,75.2 -62,-3.2 -170,-75.2 -170,-75.2 -14.5,-97.9 81.2,-430.5 81.2,-430.5" /><path
         id="path176"
         style="fill:#555658;fill-opacity:1;fill-rule:nonzero;stroke:none"
         d="m 13046.1,5153.9 v -984 c 0,0 11.8,-205 0,-239.1 -11.8,-34.2 -155.3,-143.5 -155.3,-143.5 l -111.5,27.3 v 1482.8 l 266.8,-143.5" /><path
         id="path178"
         style="fill:#fbc295;fill-opacity:1;fill-rule:nonzero;stroke:none"
         d="m 13007,7675.3 c 0,0 507.3,-92.3 671.3,-169.2 164,-76.8 205,-199.8 205,-261.3 0,-61.5 0,-147.2 0,-147.2 0,0 5.2,-344.8 0,-683 -5.1,-338.3 -112.7,-845.6 -164,-1214.6 -51.2,-369 -35.8,-758.5 -35.8,-773.8 0,-15.4 -51.3,-56.4 -210.2,-87.1 -158.8,-30.8 -353.6,25.6 -353.6,25.6 0,0 35.9,681.6 -5.1,948.1 -41,266.4 -155.4,620 -182.8,900.2 -27.3,280.1 12.1,468.1 12.1,468.1 0,0 -230.7,351.8 -230.7,386 0,34.2 293.8,608.2 293.8,608.2" /><path
         id="path180"
         style="fill:#e19f72;fill-opacity:1;fill-rule:nonzero;stroke:none"
         d="m 13622,6778.4 c 0,0 -215.3,-15.4 -394.6,-133.2 -179.4,-117.9 -305.1,-251.1 -305.1,-251.1 l 21.6,287 c 0,0 273.2,256.2 678.1,97.3" /><path
         id="path182"
         style="fill:#838585;fill-opacity:1;fill-rule:nonzero;stroke:none"
         d="m 12501.4,5133.4 123,-129.8 c 0,0 -27.4,-713.6 -34.2,-746.3 -6.8,-32.7 -157.2,-374.4 -157.2,-374.4 l -614.9,102.5 -182,-259.6 2286.5,-512.5 v 410 l -1055,266.3 23.2,1407.8 h -396.3 l 6.9,-164" /><path
         id="path184"
         style="fill:#555658;fill-opacity:1;fill-rule:nonzero;stroke:none"
         d="m 7472.29,1894.6 437.31,136.6 v 389.5 l -437.31,20.5 -252.82,-218.7 252.82,-327.9" /><path
         id="path186"
         style="fill:#39393a;fill-opacity:1;fill-rule:nonzero;stroke:none"
         d="m 5576.14,2837.5 -102.49,174.2 399.72,71.8 2036.23,-662.8 -437.31,-136.7 -1229.94,232.4 -666.21,321.1" /><path
         id="path188"
         style="fill:#3a70c0;fill-opacity:1;fill-rule:nonzero;stroke:none"
         d="m 11551.6,4564.5 -128.1,-100.8 c 0,0 -42.8,3.5 -77.8,-73.4 -35,-76.9 -9.4,-227.2 -19.6,-275 -10.3,-47.9 -133.3,-234.1 -82,-328 51.2,-94 379.2,-90.6 543.2,0 164,90.5 215.2,240.5 271.6,237.3 56.4,-3.3 384.4,78.7 445.9,196.6 61.5,117.9 51.2,246 0,271.6 -51.3,25.6 -287,5.1 -343.4,71.7 -56.4,66.7 -261.3,169.2 -307.5,169.2 -46.1,0 -302.3,-169.2 -302.3,-169.2" /><path
         id="path190"
         style="fill:#ffffff;fill-opacity:1;fill-rule:nonzero;stroke:none"
         d="m 11592.6,4508.2 c -17.2,22.8 61.5,-156.8 97.3,-178.3 35.9,-21.6 189.7,58.7 246,133.8 56.4,75.2 56.4,44.5 56.4,75.2 0,30.8 -138.4,194.8 -138.4,194.8 0,0 -133.2,-82 -138.3,-102.5 -5.2,-20.5 -123,-123 -123,-123" /><path
         id="path192"
         style="fill:#fbc295;fill-opacity:1;fill-rule:nonzero;stroke:none"
         d="m 11392.7,4969.4 30.8,-505.7 c 0,0 225.4,8.6 317.7,65 92.2,56.3 133.2,153.7 133.2,153.7 v 531.3 c 0,0 -307.4,-34.2 -348.4,-64.9 -41,-30.8 -133.3,-179.4 -133.3,-179.4" /><path
         id="path194"
         style="fill:#555658;fill-opacity:1;fill-rule:nonzero;stroke:none"
         d="m 7109.27,2683.8 c 7.71,44.4 171.7,1602.3 199.03,1643.3 27.33,41 5737.8,826.8 5737.8,826.8 v 848.7 c 0,0 -3149.59,-258.9 -4266.77,-402.4 -1117.2,-143.5 -1719.53,-364.3 -1719.53,-364.3 0,0 -243.48,-430.5 -243.48,-471.5 0,-41 -124.7,-2183.1 -124.7,-2183.1 l 417.65,102.5" /><path
         id="path196"
         style="fill:#838585;fill-opacity:1;fill-rule:nonzero;stroke:none"
         d="M 7059.8,5235.9 6847.08,2560.8 7472.29,2284 v -389.4 c 0,0 -1998.64,748.2 -1998.64,778.9 0,30.8 0,338.2 0,338.2 l 999.32,-256.2 251.11,2634.1 335.72,-153.7" /><path
         id="path198"
         style="fill:#4c4d4e;fill-opacity:1;fill-rule:nonzero;stroke:none"
         d="m 6946.15,6349.7 c -68.33,-67.5 -868.97,-397.5 -791.51,-494.3 77.46,-96.8 135.55,-250.5 536.98,-281.3 401.44,-30.7 1344.39,-71.7 1344.39,-71.7 l 1947.4,256.2 1045.89,244 c 0,0 409.5,84 296.8,217.2 -112.8,133.3 -645.7,348.5 -645.7,348.5 0,0 -778.99,246 -1404.2,164 -625.22,-82 -1693.28,-276.7 -1693.28,-276.7 l -636.77,-105.9" /><path
         id="path200"
         style="fill:#9a9a9a;fill-opacity:1;fill-rule:nonzero;stroke:none"
         d="m 6174.02,5502.4 c 0,0 189.55,-370.1 1276.88,-272.2 1087.33,97.9 5595.2,772.4 5595.2,772.4 l -435.4,50.4 -1284.6,166.8 c 0,0 -2798.12,-409.9 -3659.07,-440.7 -860.96,-30.8 -1137.69,41 -1137.69,41 l -355.32,-317.7" /><path
         id="path202"
         style="fill:#252323;fill-opacity:1;fill-rule:nonzero;stroke:none"
         d="m 10659.9,6342.8 c 0,0 290.4,-102.5 454.4,-177.6 164,-75.2 560.3,-136.7 758.4,-102.5 198.2,34.1 738,-9.7 738,-9.7 0,0 252.8,399.1 355.3,686.1 102.5,287 95.7,854.2 41,936.2 -54.7,81.9 -1134.3,40.9 -1291.4,75.1 -157.2,34.2 -369,88.8 -560.3,95.7 -191.4,6.8 -929.3,-47.9 -929.3,-47.9 v -642.3 l 433.9,-813.1" /><path
         id="path204"
         style="fill:#141211;fill-opacity:1;fill-rule:nonzero;stroke:none"
         d="m 10499.3,7675.3 c 0,0 300.7,95.6 703.8,75.1 403.1,-20.5 512.5,0 512.5,0 -157.2,34.2 -369,88.8 -560.3,95.7 -191.4,6.8 -929.3,-47.9 -929.3,-47.9 v -642.3 l 31.1,-58.3 242.2,577.7" /><path
         id="path206"
         style="fill:#3a70c0;fill-opacity:1;fill-rule:nonzero;stroke:none"
         d="m 6529.34,7224.3 c 0,0 628.63,464.6 714.04,512.4 85.42,47.9 741.38,410 837.04,451 95.67,41 1165.03,-112.7 1206.03,-112.7 40.99,0 983.95,-215.3 1117.15,-276.8 133.3,-61.5 615,-373.3 625.3,-750.4 10.2,-377 -153.8,-643.5 -369,-705 -215.3,-61.5 -492,82 -748.24,112.8 -256.23,30.7 -450.98,10.2 -512.47,-30.8 -61.5,-41 -358.73,-451 -901.96,-533 -543.22,-81.9 -983.95,0 -983.95,0 l -269.9,635.5 -406.56,205 -307.48,492" /><path
         id="path208"
         style="fill:#ecaf86;fill-opacity:1;fill-rule:nonzero;stroke:none"
         d="m 6775.33,6008 c 20.5,0 252.81,6.8 252.81,6.8 0,0 170.83,-82 327.99,-102.5 157.15,-20.5 157.15,-20.5 157.15,-20.5 0,0 -40.99,616.4 27.34,766 68.33,149.7 204.99,436.6 225.49,689.5 20.5,252.8 -27.33,355.3 -239.16,341.6 -211.82,-13.6 -608.13,-495 -642.3,-585.7 -34.16,-90.8 -392.89,-486.3 -444.14,-541.7 -51.25,-55.4 -61.5,-279.3 -61.5,-279.3 L 6775.33,6008" /><path
         id="path210"
         style="fill:#d99d75;fill-opacity:1;fill-rule:nonzero;stroke:none"
         d="m 7182.59,6612.7 c 0,0 -14.37,181.1 -21.2,198.2 -6.84,17.1 -129.83,136.6 -129.83,136.6 l 18.48,100.3 142.1,-134.4 122.99,112.7 c 0,0 -64.91,-112.7 -85.41,-194.7 -20.5,-82 -47.13,-218.7 -47.13,-218.7" /><path
         id="path212"
         style="fill:#d99d75;fill-opacity:1;fill-rule:nonzero;stroke:none"
         d="m 7124.12,5974.7 -95.98,40.1 v 0 0 l -20.5,61.5 88.83,14.6 c 0,0 51.25,12.8 99.08,98.2 47.83,85.4 47.83,85.4 47.83,85.4 0,0 -17.07,-107.5 -51.24,-183.6 -34.17,-76.1 -68.02,-116.2 -68.02,-116.2" /><path
         id="path214"
         style="fill:#252323;fill-opacity:1;fill-rule:nonzero;stroke:none"
         d="m 6010.03,6998.8 -116.16,51.2 c 0,0 -116.16,65 -218.65,51.3 -102.5,-13.7 -136.66,-34.2 -232.32,-102.5 -95.66,-68.3 -136.66,-129.8 -163.99,-239.2 -27.34,-109.3 -54.67,-218.6 -75.16,-280.1 -20.51,-61.5 47.82,-539.8 102.49,-676.5 54.66,-136.6 132.93,-205 298.78,-300.6 165.86,-95.7 350.35,6.8 569,0 218.66,-6.9 307.49,177.6 485.15,239.1 177.65,61.5 301.1,223 368.97,273.3 66.18,49.1 68.33,76.1 68.33,76.1 -27.32,26.4 -218.65,158.1 -218.65,191.3 0,33.3 34.17,272.4 -47.83,347.6 -82,75.2 -307.49,177.7 -403.14,205 -95.67,27.3 -416.82,164 -416.82,164" /><path
         id="path216"
         style="fill:#fbc295;fill-opacity:1;fill-rule:nonzero;stroke:none"
         d="m 5893.87,7050 c 0,0 164,58.1 218.66,65 54.66,6.8 129.82,-20.6 181.07,-17.1 51.25,3.4 187.91,119.5 235.74,126.4 47.83,6.8 112.74,-64.9 112.74,-64.9 0,0 297.24,13.6 365.57,-6.9 68.33,-20.5 54.66,-406.5 41,-481.7 -13.67,-75.2 -102.5,-321.1 -102.5,-321.1 0,0 -20.5,-177.7 -177.65,-246 -157.16,-68.4 -177.67,157.1 -102.5,232.3 75.16,75.2 95.66,82 81.99,123 -13.66,41 -34.16,54.6 -75.16,47.8 -40.99,-6.8 -125.5,-68.3 -195.99,-47.8 -70.49,20.5 -118.32,82 -200.32,116.1 -81.99,34.2 -225.49,28.8 -259.65,82.7 -34.17,54 -61.5,334.2 -123,392.2" /><path
         id="path218"
         style="fill:#3a70c0;fill-opacity:1;fill-rule:nonzero;stroke:none"
         d="m 13119.7,4364.7 c 0,0 -88.8,-3.4 -112.7,-58.1 -23.9,-54.7 27.3,-85.4 -75.2,-280.2 -102.5,-194.7 -133.2,-331.4 -95.6,-392.9 37.6,-61.4 519.3,-119.5 789.2,-92.2 269.9,27.3 625.2,-51.5 881.4,-6.9 256.3,44.5 314.4,194.8 287,300.7 -27.3,105.9 -54.6,119.6 -287,153.8 -232.3,34.1 -454.4,191.3 -498.8,252.8 -44.4,61.5 -326.4,287 -326.4,287 0,0 -186,-34.2 -278.3,-65 -92.2,-30.7 -283.6,-99 -283.6,-99" /><path
         id="path220"
         style="fill:#d99d75;fill-opacity:1;fill-rule:nonzero;stroke:none"
         d="m 7455.21,7224.7 c 0,0 -23.92,108.9 41,235.3 64.91,126.4 153.8,218.8 153.8,218.8 l 64.93,-37.6 c 0,0 -140.16,-170.9 -191.41,-263.2 -51.24,-92.2 -68.32,-153.3 -68.32,-153.3" /><path
         id="path222"
         style="fill:#ffffff;fill-opacity:1;fill-rule:nonzero;stroke:none"
         d="m 13178.5,4385.5 c 0,0 71.1,-287.3 91.6,-328.3 20.5,-41 399.7,129.2 406.5,136.3 6.9,7.2 6.9,232.7 6.9,232.7 l -280.2,37.5 -224.8,-78.2" /><path
         id="path224"
         style="fill:#fbc295;fill-opacity:1;fill-rule:nonzero;stroke:none"
         d="m 8568.98,7593.3 c 0,0 -322.86,-42.1 -440.72,-141.5 -117.87,-99.4 -174.25,-304.4 -286.99,-473.5 -112.74,-169.1 -179.39,-651.9 0,-887.4 179.39,-235.4 830.21,-97.1 989.07,-37.9 158.87,59.2 461.23,300.1 497.1,402.6 35.88,102.5 -81.99,335.4 -81.99,335.4 0,0 548.34,370.4 722.58,681.1 174.27,310.8 389.47,596.3 409.97,722.6 20.5,126.3 -51.2,264.6 -92.2,408.1 -41,143.5 -41,440.8 -174.3,753.4 -133.22,312.6 -163.97,553.4 -163.97,553.4 l -440.72,-112.7 c 0,0 56.37,-512.5 76.87,-850.7 20.5,-338.3 -15.37,-635.5 -15.37,-635.5 0,0 -584.22,-297.2 -999.33,-717.4" /><path
         id="path226"
         style="fill:#e19f72;fill-opacity:1;fill-rule:nonzero;stroke:none"
         d="m 8920.88,6431.7 c 6.83,20.4 214.24,280.4 324.57,359.3 l 78.13,-209.1 c 0,0 -40.55,20.6 -156.71,-13.6 -116.16,-34.2 -245.99,-136.6 -245.99,-136.6" /><path
         id="path228"
         style="fill:#e19f72;fill-opacity:1;fill-rule:nonzero;stroke:none"
         d="m 8046.26,6791 c 0,0 34.16,-77.8 102.49,-133.2 68.33,-55.3 170.83,-75.8 239.16,-130.5 68.33,-54.7 259.65,-41 259.65,-61.5 0,-20.5 -152.84,-67.5 -389.48,0 -236.63,67.5 -211.82,325.2 -211.82,325.2" /><path
         id="path230"
         style="fill:#e19f72;fill-opacity:1;fill-rule:nonzero;stroke:none"
         d="m 7864.33,8546.5 c 0,0 -194.05,28.1 -341.73,-82 v 130.6 c 0,0 187.99,100 341.73,-48.6" /><path
         id="path232"
         style="fill:#fbc295;fill-opacity:1;fill-rule:nonzero;stroke:none"
         d="m 8066.76,10094.1 c 0,0 46.12,333.1 51.25,379.3 5.12,46.1 -27.34,192.8 -25.63,210.8 1.71,18.1 -157.6,92.4 -202.01,99.2 -44.42,6.8 -145.91,-13.3 -21.15,-93.6 43.46,-28 -138.89,-131.9 -138.89,-131.9 l -463.96,-17.1 c 0,0 18.01,-139.2 28.26,-169.9 10.25,-30.8 177.66,-119.6 201.58,-133.3 23.91,-13.7 153.74,-143.5 153.74,-143.5 h 416.81" /><path
         id="path234"
         style="fill:#9a9a9a;fill-opacity:1;fill-rule:nonzero;stroke:none"
         d="m 6570.34,10624.3 3811.26,-457.5 69.9,268.5 -3857.25,407 c 0,0 -41.85,-12.8 -70.04,-76.8 -28.18,-64.1 46.13,-141.2 46.13,-141.2" /><path
         id="path236"
         style="fill:#2c5e9f;fill-opacity:1;fill-rule:nonzero;stroke:none"
         d="m 11686.4,10222.7 c 0,-397.3 -301.4,-719.5 -673.1,-719.5 -371.7,0 -673,322.2 -673,719.5 0,397.4 301.3,719.6 673,719.6 371.7,0 673.1,-322.2 673.1,-719.6" /><path
         id="path238"
         style="fill:#224b76;fill-opacity:1;fill-rule:nonzero;stroke:none"
         d="m 10503.4,10222.7 c 0,367.9 258.3,671.1 591.5,714.1 -26.8,3.5 -53.9,5.5 -81.6,5.5 -371.7,0 -673,-322.2 -673,-719.6 0,-397.3 301.3,-719.5 673,-719.5 27.7,0 54.8,2 81.6,5.5 -333.2,43 -591.5,346.2 -591.5,714" /><path
         id="path240"
         style="fill:#c6c5c3;fill-opacity:1;fill-rule:nonzero;stroke:none"
         d="m 11277.5,10194.9 c 0,-114.8 -78.6,-207.8 -175.6,-207.8 -96.9,0 -175.5,93 -175.5,207.8 0,114.8 78.6,207.9 175.5,207.9 97,0 175.6,-93.1 175.6,-207.9" /><path
         id="path242"
         style="fill:#9a9a9a;fill-opacity:1;fill-rule:nonzero;stroke:none"
         d="m 11110.8,10066.8 642.3,-64.9 v 252.8 l -614.9,44.4 c 0,0 -99.1,-64.9 -27.4,-232.3" /><path
         id="path244"
         style="fill:#c6c5c3;fill-opacity:1;fill-rule:nonzero;stroke:none"
         d="m 11889.8,10131.3 c 0,-71.5 -48.9,-129.4 -109.2,-129.4 -60.4,0 -109.3,57.9 -109.3,129.4 0,71.4 48.9,129.3 109.3,129.3 60.3,0 109.2,-57.9 109.2,-129.3" /><path
         id="path246"
         style="fill:#fbc295;fill-opacity:1;fill-rule:nonzero;stroke:none"
         d="m 7308.3,10490.4 -41.93,50.4 c 0,0 17.08,206.5 20.96,228.4 3.89,21.9 82.46,32.1 96.13,28.7 13.67,-3.4 45.27,0.5 81.14,0.7 35.88,0.2 51.25,10 64.06,0 12.81,-10.1 71.75,-2.4 99.93,-15.2 28.19,-12.8 17.94,-23.1 43.56,-25.6 25.63,-2.6 105.06,5.1 135.81,-10.3 30.75,-15.3 38.29,-37.3 38.29,-37.3 l -51.1,-6.2 c 0,0 -10.1,-139.7 -15.3,-224.9 -5.2,-85.2 -294.75,-77.5 -325.49,-69.8 -30.76,7.7 -146.06,81.1 -146.06,81.1" /><path
         id="path248"
         style="fill:#e19f72;fill-opacity:1;fill-rule:nonzero;stroke:none"
         d="m 7356.98,10491.3 c -5.12,22 0,311.8 0,311.8 l 26.48,-5.2 37.58,5.2 -64.06,-311.8" /><path
         id="path250"
         style="fill:#e19f72;fill-opacity:1;fill-rule:nonzero;stroke:none"
         d="m 7505.12,10802.4 c 0,0 -25.14,-49.7 -35.39,-103.6 -10.25,-53.8 -15.37,-243 0,-230.4 15.37,12.6 33.31,198 43.56,230.4 10.25,32.5 34.72,94.7 34.72,94.7 0,0 -21.77,11.7 -42.89,8.9" /><path
         id="path252"
         style="fill:#e19f72;fill-opacity:1;fill-rule:nonzero;stroke:none"
         d="m 7628.59,10783.4 c 0,0 -36.72,-57.2 -41.85,-129 -5.12,-71.7 -5.12,-187.5 6.83,-186 11.96,1.5 25.63,170.7 35.02,199.7 9.4,29 43.56,89.7 43.56,89.7 l -43.56,25.6" /><path
         id="path254"
         style="fill:#fbc295;fill-opacity:1;fill-rule:nonzero;stroke:none"
         d="m 13875.9,6268.3 h -948.7 c 1.3,-18 2.8,-36.4 4.6,-55.3 27.4,-280.2 141.8,-633.8 182.8,-900.2 41,-266.5 5.1,-948.1 5.1,-948.1 0,0 194.8,-56.4 353.6,-25.6 158.9,30.7 210.2,71.7 210.2,87.1 0,15.3 -15.4,404.8 35.8,773.8 44.3,318.9 130.7,741.2 156.6,1068.3" /><path
         id="path256"
         style="fill:#fbc295;fill-opacity:1;fill-rule:nonzero;stroke:none"
         d="m 9506.81,9796.9 c 0,0 -128.12,102.5 -276.74,133.2 -148.61,30.8 -276.73,133.3 -307.48,184.5 -30.75,51.3 -46.13,324.6 -22.21,362.2 23.92,37.6 109.33,143.5 140.08,143.5 30.75,0 75.16,-41 75.16,-41 0,0 48.08,44.4 82.12,41 34.04,-3.4 61.37,-23.9 61.37,-23.9 0,0 82,20.5 102.5,10.2 20.49,-10.2 30.75,-30.7 30.75,-30.7 0,0 30.75,3.4 40.99,-30.8 10.25,-34.2 -3.41,-58.1 -3.41,-119.6 0,-61.5 3.41,-146.9 3.41,-146.9 l 444.15,-47.8 c 0,0 92.24,-146.9 70.03,-321.2 -22.2,-174.2 -158.86,-205 -186.19,-194.7 -27.34,10.2 -254.53,82 -254.53,82" /><path
         id="path258"
         style="fill:#e19f72;fill-opacity:1;fill-rule:nonzero;stroke:none"
         d="m 9025.08,10237.6 c 0,0 -13.66,179.4 0,234 13.67,54.7 60.84,130.6 60.84,130.6 l 29.7,-22.9 c 0,0 -40.24,-59.8 -48.31,-124.7 -8.06,-64.9 -42.23,-217 -42.23,-217" /><path
         id="path260"
         style="fill:#e19f72;fill-opacity:1;fill-rule:nonzero;stroke:none"
         d="m 9163.45,10268.4 c -1.71,8.5 -11.96,160.5 10.25,206.7 22.21,46.1 85.41,121.3 85.41,121.3 l 42.71,5.8 c 0,0 -82,-110.1 -95.66,-149.3 -13.67,-39.3 -6.83,-123 -10.25,-143.5 -3.42,-20.5 -32.46,-41 -32.46,-41" /><path
         id="path262"
         style="fill:#e19f72;fill-opacity:1;fill-rule:nonzero;stroke:none"
         d="m 9301.82,10268.4 c -26.57,-6.7 1.71,186.2 11.95,205 10.26,18.7 78.59,102.5 78.59,102.5 l 27.47,-9 c 0,0 -66.76,-97 -70.18,-117.5 -3.41,-20.5 -27.33,-175.9 -47.83,-181" /></g></g></svg>