<?xml version="1.0" encoding="UTF-8" standalone="no"?>
<svg
   xmlns:dc="http://purl.org/dc/elements/1.1/"
   xmlns:cc="http://creativecommons.org/ns#"
   xmlns:rdf="http://www.w3.org/1999/02/22-rdf-syntax-ns#"
   xmlns:svg="http://www.w3.org/2000/svg"
   xmlns="http://www.w3.org/2000/svg"
   viewBox="0 0 2666.6667 2666.6667"
   height="2666.6667"
   width="2666.6667"
   xml:space="preserve"
   id="svg2"
   version="1.1"><metadata
     id="metadata8"><rdf:RDF><cc:Work
         rdf:about=""><dc:format>image/svg+xml</dc:format><dc:type
           rdf:resource="http://purl.org/dc/dcmitype/StillImage" /></cc:Work></rdf:RDF></metadata><defs
     id="defs6" /><g
     transform="matrix(1.3333333,0,0,-1.3333333,0,2666.6667)"
     id="g10"><g
       transform="scale(0.1)"
       id="g12"><g
         transform="scale(1.22699)"
         id="g14"><path
           id="path16"
           style="fill:none;fill-opacity:1;fill-rule:nonzero;stroke:none"
           d="M 16300,0 H 0 V 16300 H 16300 V 0" /></g><g
         transform="scale(1.0567)"
         id="g18"><path
           id="path20"
           style="fill:#c1bfbd;fill-opacity:1;fill-rule:nonzero;stroke:none"
           d="m 16225,12586.5 h -422.7 c -41.4,0 -75,-33.5 -75,-75 v -98 c 0,-41.5 33.6,-75 75,-75 h 422.7 c 41.4,0 75,33.5 75,75 v 98 c 0,41.5 -33.6,75 -75,75" /></g><g
         transform="scale(1.04496)"
         id="g22"><path
           id="path24"
           style="fill:#2e2d2d;fill-opacity:1;fill-rule:nonzero;stroke:none"
           d="M 15800.7,13304.7 H 15541 l -61.2,-75.4 3.9,-88.8 c -111.2,-132.4 -182.2,-333.1 -182.2,-557.7 0,-258.1 93.8,-484.4 234.6,-612 l 4.9,-109.8 h 259.7 c 275.8,0 499.3,323.2 499.3,721.8 0,398.7 -223.5,721.9 -499.3,721.9" /></g><g
         transform="scale(1.02831)"
         id="g26"><path
           id="path28"
           style="fill:#494a4b;fill-opacity:1;fill-rule:nonzero;stroke:none"
           d="m 16300,12786.6 c 0,-405.1 -227.1,-733.6 -507.3,-733.6 -280.2,0 -507.3,328.5 -507.3,733.6 0,405.1 227.1,733.5 507.3,733.5 280.2,0 507.3,-328.4 507.3,-733.5" /></g><g
         transform="scale(1.00071)"
         id="g30"><path
           id="path32"
           style="fill:#7e7f81;fill-opacity:1;fill-rule:nonzero;stroke:none"
           d="m 16300,13139.2 c 0,-103.7 -68.1,-187.7 -152,-187.7 -83.9,0 -152,84 -152,187.7 0,103.6 68.1,187.6 152,187.6 83.9,0 152,-84 152,-187.6" /></g><path
         id="path34"
         style="fill:#c1bfbd;fill-opacity:1;fill-rule:nonzero;stroke:none"
         d="m 15403.3,13263.5 c 0,0 77.7,88.6 246,-50.6 168.2,-139.2 237.3,-151.4 332.2,-154 94.9,-2.5 159.7,27.7 159.7,27.7 0,0 47.4,45.5 0,126.3 0,0 -159.7,-16.1 -202.9,0 -43.1,16.1 -189.8,160.2 -349.4,196 -159.7,35.8 -315,-24.3 -315,-24.3 l 129.4,-121.1" /><path
         id="path36"
         style="fill:#3970c1;fill-opacity:1;fill-rule:nonzero;stroke:none"
         d="m 13326.2,4781.3 c 0,0 -137.1,-623.6 -41.6,-702.2 95.5,-78.6 366.7,-17.6 509.8,-86.9 143,-69.3 785.5,-148.9 1006.3,78 220.7,226.9 -659.2,605.9 -714,665.4 -54.8,59.5 -113.1,177.8 -155.9,234.3 -42.8,56.4 -199.4,69 -199.4,69 0,0 -79.9,124.9 -158.8,55.4 -78.9,-69.4 -246.4,-313 -246.4,-313" /><path
         id="path38"
         style="fill:#3970c1;fill-opacity:1;fill-rule:nonzero;stroke:none"
         d="m 11469.4,4623.9 -58.5,-126.7 c 0,0 -56.4,-670.5 -35.4,-747.2 21.1,-76.8 246.8,-343.1 463,-421.6 216.2,-78.6 636,30.9 658.2,155.3 22.1,124.4 -387,765.4 -431.7,888.1 -44.6,122.8 -9.1,394.9 -62.7,437.4 -53.7,42.5 -124.4,22.2 -124.4,22.2 l -414.1,104.4 5.6,-311.9" /><path
         id="path40"
         style="fill:#fbc398;fill-opacity:1;fill-rule:nonzero;stroke:none"
         d="m 11537.7,8352.6 v -903.1 c 0,0 -293.5,-609.6 -316.1,-914.4 -22.6,-304.8 79,-857.9 158,-1230.5 79,-372.5 79,-372.5 79,-372.5 l 464,79.8 c 0,0 10.2,386.8 145.6,793.2 135.5,406.4 135.5,1174 135.5,1174 0,0 90.3,135.5 120.4,286 30.1,150.5 225.8,662.3 233.3,767.6 7.5,105.4 -722.5,188.2 -722.5,188.2 l -297.2,131.7" /><path
         id="path42"
         style="fill:#fbc398;fill-opacity:1;fill-rule:nonzero;stroke:none"
         d="m 12956.3,8077.9 c 0,0 195.6,-474.1 195.6,-549.4 0,-75.2 -203.2,-594.5 -150.5,-1016 52.7,-421.4 286,-707.4 346.2,-940.7 60.2,-233.3 75.3,-541.9 75.3,-541.9 l 436.5,37.7 c 0,0 30.1,602 90.3,910.6 60.2,308.6 -60.2,1384.7 -60.2,1384.7 0,0 101.4,639.7 77,842.9 -24.4,203.2 -1010.2,-127.9 -1010.2,-127.9" /><path
         id="path44"
         style="fill:#252323;fill-opacity:1;fill-rule:nonzero;stroke:none"
         d="m 11586.6,11050.6 c 0,0 -105.4,-214.5 -184.4,-1016 -79,-801.5 0,-2077.1 0,-2077.1 0,0 508,-112.9 677.3,-90.3 169.3,22.5 584.7,67.7 584.7,67.7 l 92.6,677.3 124.2,-654.7 c 0,0 440.3,56.4 632.2,45.1 191.9,-11.3 598.3,33.9 598.3,33.9 0,0 67.7,846.7 -79,1524 -146.8,677.3 -368.8,1399.8 -368.8,1399.8 l -1719.7,440.2 -357.4,-349.9" /><path
         id="path46"
         style="fill:#fbc398;fill-opacity:1;fill-rule:nonzero;stroke:none"
         d="m 13547.9,12473.9 c 17.3,-12.9 241.7,-336.5 384.1,-414.2 142.4,-77.7 234.5,-233 393.4,-237.3 158.9,-4.3 340.1,237.3 353,241.6 13,4.3 142.4,112.2 271.9,293.4 129.4,181.2 202.8,323.6 202.8,323.6 l -263.2,181.2 -237.4,-116.5 -211.4,-81.9 c 0,0 -97.3,418.1 -284.8,522.2 l -25.8,103.5 c 0,0 17.2,441.6 -181.3,753.7 -198.5,312 -614.8,355.5 -614.8,355.5 0,0 -308.6,-479.3 -304.2,-492.3 4.3,-12.9 178.6,-494.5 178.6,-494.5 0,0 252.8,-385.7 270.1,-385.7 17.3,0 69,-552.3 69,-552.3" /><path
         id="path48"
         style="fill:#eaac82;fill-opacity:1;fill-rule:nonzero;stroke:none"
         d="m 13688.8,13542.7 -66.6,79.8 194,232.9 -127.4,-312.7" /><path
         id="path50"
         style="fill:#eaac82;fill-opacity:1;fill-rule:nonzero;stroke:none"
         d="m 14031.2,12409.2 c 0,0 -345.9,24.8 -478.9,358.1 -60.7,152.1 -56.9,193.4 -34.9,193.4 26.3,0 78.6,-58.8 78.6,-58.8 0,0 137.5,-359 435.2,-492.7" /><path
         id="path52"
         style="fill:#eaac82;fill-opacity:1;fill-rule:nonzero;stroke:none"
         d="m 14121.8,12232.3 c 0,0 -73.4,277.3 295.5,517.1 l 23.8,-85.6 c 0,0 -289.6,-138 -319.3,-431.5" /><path
         id="path54"
         style="fill:#3970c1;fill-opacity:1;fill-rule:nonzero;stroke:none"
         d="m 12583.4,14489.9 -628.1,201.3 -150.5,-100.7 c 0,0 267.2,-562 252.1,-1006 -15,-444 -342.4,-1201.8 -342.4,-1201.8 0,0 52.7,-858 0,-970.9 -52.7,-112.9 -127.9,-361.2 -127.9,-361.2 0,0 767.6,-338.7 1301.9,-316.1 534.4,22.6 775.2,225.8 775.2,225.8 0,0 30.1,812.8 0,1121.3 -30.1,308.6 -67.7,820.3 -67.7,820.3 0,0 120.4,210.8 142.9,496.7 22.6,286 -97.8,587 -135.4,624.7 -37.7,37.6 -231.5,89.5 -269.1,375.4 l -193.6,73.4 -557.4,17.8" /><path
         id="path56"
         style="fill:#c1bfbd;fill-opacity:1;fill-rule:nonzero;stroke:none"
         d="m 13622.2,13146.9 c 0,0 547.1,228.8 590.2,237.4 43.2,8.7 457.4,-220.2 548,-237.4 90.6,-17.1 185.5,21.7 185.5,21.7 0,0 90.7,-56.1 82,-146.7 0,0 -120.8,-43.8 -241.6,-32.7 -120.8,11.1 -457.4,188.3 -565.2,196.8 -107.9,8.5 -598.9,-198.6 -598.9,-198.6 v 159.5" /><path
         id="path58"
         style="fill:#fbc398;fill-opacity:1;fill-rule:nonzero;stroke:none"
         d="m 11804.8,14590.5 -218.2,-164.1 c 0,0 -297.3,-58.3 -443,-336.6 -145.7,-278.3 -139.2,-642.1 -139.2,-642.1 0,0 -71.2,-361.1 -64.8,-574.7 6.5,-213.6 64.8,-634.2 71.2,-679.6 6.5,-45.3 129.5,-407.7 291.3,-478.9 161.8,-71.2 679.6,213.6 1016.1,414.2 336.6,200.7 491.4,304.2 491.4,304.2 0,0 168.8,36.7 272.3,140.2 103.6,103.6 561,315 591.2,353.9 30.2,38.8 0,285.9 0,285.9 0,0 -15.1,77.6 -24.8,90.5 -9.7,13 -64.8,32.9 -64.8,32.9 0,0 9.8,44.8 -29.1,73.9 -38.8,29.2 -126.2,37.5 -126.2,37.5 0,0 -100.3,53.1 -110,62.8 -9.7,9.7 3.2,103.6 -58.3,119.8 -61.5,16.2 -216.8,-93.9 -239.4,-110.1 -22.7,-16.1 -106.8,-152 -139.2,-258.8 -32.4,-106.8 32.4,-268.6 -87.4,-365.7 -119.7,-97.1 -626.7,-296.7 -626.7,-296.7 l -156.7,1392.4 c 0,0 -37.3,239 -205.7,599.1" /><path
         id="path60"
         style="fill:#eaad81;fill-opacity:1;fill-rule:nonzero;stroke:none"
         d="m 11616.7,5669.6 c 150.5,383.9 195.6,972.7 195.6,972.7 120.5,-592.6 -195.6,-972.7 -195.6,-972.7" /><path
         id="path62"
         style="fill:#edcab2;fill-opacity:1;fill-rule:nonzero;stroke:none"
         d="m 12201.3,6843 c 2.4,84.1 2.4,136.1 2.4,136.1 v 0 -135.4 c 0,0 -0.8,-0.3 -2.4,-0.7" /><path
         id="path64"
         style="fill:#eaad81;fill-opacity:1;fill-rule:nonzero;stroke:none"
         d="m 12132.1,6834.3 c -94.3,0 -252.7,46.6 -292.4,348 0,0 117.3,-225.1 278.2,-225.1 27.4,0 56.1,6.6 85.8,21.9 0,0 0,-52 -2.4,-136.1 -7.8,-2.2 -34.1,-8.7 -69.2,-8.7" /><path
         id="path66"
         style="fill:#edcab2;fill-opacity:1;fill-rule:nonzero;stroke:none"
         d="m 13889.5,7362.9 v 0 0" /><path
         id="path68"
         style="fill:#eaad81;fill-opacity:1;fill-rule:nonzero;stroke:none"
         d="m 13731.1,7184.9 c -54.1,0 -118.1,16.1 -187.8,65.2 0,0 30.8,-6 75.5,-6 78.2,0 198.8,18.3 270.7,118.8 v 0 0 l 12.5,-118.8 c 0,0 -67.2,-59.2 -170.9,-59.2" /><path
         id="path70"
         style="fill:#eaad81;fill-opacity:1;fill-rule:nonzero;stroke:none"
         d="m 13543.3,5767.5 c 176,557.2 -9.9,1137.6 -1.1,1137.6 0.2,0 0.6,-0.4 1.1,-1.2 391.3,-624.7 0,-1136.4 0,-1136.4" /><path
         id="path72"
         style="fill:#100f0d;fill-opacity:1;fill-rule:nonzero;stroke:none"
         d="m 12418.2,10339.4 c 11.3,-45.2 232.3,-395.1 246,-553.2 13.6,-158 92.6,-1174 92.6,-1174 l 124.2,-654.7 236.7,26.1 -281.9,1847.8 188.2,282.2 -276.9,-56.4 -328.9,282.2" /><path
         id="path74"
         style="fill:#fbc398;fill-opacity:1;fill-rule:nonzero;stroke:none"
         d="m 12190.3,15319.9 c 0,0 -26.1,-376.3 -65.6,-463 -39.5,-86.7 -169.4,-165.7 -169.4,-165.7 0,0 309.5,-347.4 422.4,-556.3 112.9,-208.8 464,-561.7 718.8,-550.4 254.8,11.3 209.9,378.1 166.6,643.6 -23.6,145 -122.3,244 -122.3,244 l -164.6,247.3 -4.9,147.9 c 0,0 -587,724.7 -609.6,754.1 -22.5,29.3 -281.3,2 -280.1,0 1.1,-2.1 108.7,-301.5 108.7,-301.5" /><path
         id="path76"
         style="fill:#dc9b70;fill-opacity:1;fill-rule:nonzero;stroke:none"
         d="m 12299,14260.7 c 0,0 290.3,32.8 345.8,29.1 55.5,-3.8 164.8,-46.8 164.8,-46.8 0,0 -71.7,80.6 -130,107 -58.3,26.3 -425.8,-26 -425.8,-26 l 45.2,-63.3" /><path
         id="path78"
         style="fill:#dc9b70;fill-opacity:1;fill-rule:nonzero;stroke:none"
         d="m 13253.3,14272.4 c 0,0 -84.2,-1.4 -100.4,-5.2 -16.1,-3.8 -156.3,-52.4 -156.3,-52.4 0,0 65.4,109.7 124.5,113.5 59.1,3.8 112.4,0.3 112.4,0.3 l 19.8,-56.2" /><path
         id="path80"
         style="fill:#f5f6f5;fill-opacity:1;fill-rule:nonzero;stroke:none"
         d="m 13710,5040.5 c 0,0 -60,-9.9 -69.2,-48.7 -9.1,-38.8 -21.8,-116.1 -35.8,-155.3 -14,-39.2 -187.9,-29.1 -187.9,-29.1 l -11,403.3 463,13.9 6,-231.6 c 0,0 -22.5,31.2 -165.1,47.5" /><path
         id="path82"
         style="fill:#f5f6f5;fill-opacity:1;fill-rule:nonzero;stroke:none"
         d="m 11872.8,4825.6 c 0,0 -52.3,-1.1 -71.8,-64.6 -19.6,-63.5 -27.4,-88.9 -52.2,-106.3 -24.9,-17.4 -275.5,-11.8 -275.5,-11.8 l -29.1,356.8 478.3,12.2 -2.3,-174.9 -47.4,-11.4" /><g
         transform="scale(1.02627)"
         id="g84"><path
           id="path86"
           style="fill:#252323;fill-opacity:1;fill-rule:nonzero;stroke:none"
           d="m 12702.9,16194.7 c -197,105.3 -401.4,79.3 -508.8,50.1 -107.3,-29.3 -280.7,-98.6 -280.7,-98.6 -44.9,-19.2 -90.5,-41.1 -117.3,-72 -43,-49.4 -49.6,-96.3 -49.6,-96.3 0,0 -154.5,-29.9 -164.1,-244.4 -9.8,-214.4 48.6,-406.6 99.2,-524.8 50.5,-118.2 196.6,-281 196.6,-281 l 61.6,307.5 c 0,0 342.4,336.6 353.2,359.7 10.8,23.1 423,134.3 423,134.3 l 100.5,54.3 c 0,0 44.2,137.3 -20,283.6 -20.2,45.9 -55.1,89.4 -93.6,127.6" /></g><path
         id="path88"
         style="fill:#dc9b70;fill-opacity:1;fill-rule:nonzero;stroke:none"
         d="m 12857.4,15031.2 118.8,178.7 -4.9,-342.6 c 0,0 -170,-60.9 -438.1,112.4 -192,124.1 -243.7,390.1 -243.7,390.1 l 567.9,-338.6" /><path
         id="path90"
         style="fill:#fbc398;fill-opacity:1;fill-rule:nonzero;stroke:none"
         d="m 13092.5,16275.5 c 0,0 49,-55.2 60.8,-77.3 11.7,-22.1 34,-228.8 41.1,-281.1 7.1,-52.2 -1.4,-124.2 0.4,-149.6 1.8,-25.4 16.2,-180.8 13.7,-242.2 -2.5,-61.4 -53.4,-303 -71,-367.2 -17.5,-64.1 -43.8,-149.3 -73.1,-168.4 -29.3,-19.1 -162.4,-35.3 -283.4,-8.1 -120.9,27.1 -363.9,168.1 -432.3,246.6 -68.5,78.5 -72.2,251.7 -72.2,251.7 0,0 -48.2,-17 -102.5,30.1 -54.4,47.2 -143.3,151.4 -135,274.4 8.3,123.1 104.4,85.7 155.3,39.9 50.8,-45.7 57.8,-120 68.1,-121 10.2,-1 20.1,3.1 25.1,5.2 5,2.1 19.8,128.9 19.7,154.4 -0.1,25.5 -15.9,177.5 -12.9,182.8 3,5.3 118.3,166.5 157.8,184.6 39.6,18.1 640.4,45.2 640.4,45.2" /><path
         id="path92"
         style="fill:#dc9b70;fill-opacity:1;fill-rule:nonzero;stroke:none"
         d="m 11568.9,12572.2 c 0,0 -261.4,-101.3 -389.8,-301.1 0,0 -50.3,237.3 194.9,384 245.2,146.7 194.9,-82.9 194.9,-82.9" /><path
         id="path94"
         style="fill:#dc9b70;fill-opacity:1;fill-rule:nonzero;stroke:none"
         d="m 13318.2,13510.5 -193.2,-174.2 c 0,0 -43.1,13.5 -43.1,26.5 0,12.9 192,153.3 214.7,238.4 0,0 16.2,-20.5 21.6,-90.7" /><path
         id="path96"
         style="fill:#e4a77e;fill-opacity:1;fill-rule:nonzero;stroke:none"
         d="m 15006.4,13233.3 c 0,17.3 -70.7,96.1 -65.8,99.3 5,3.1 26.9,99.8 130.5,136.2 103.5,36.4 138.1,121.2 189.8,115.4 51.8,-5.7 47.5,-226.8 34.5,-247.9 -12.9,-21 -289,-103 -289,-103" /><path
         id="path98"
         style="fill:#fbc398;fill-opacity:1;fill-rule:nonzero;stroke:none"
         d="m 14889.9,12862.2 c 0,0 -30.3,43.7 51.7,125.2 l 86.3,34.5 c 0,0 0,77.7 -82,146.7 l -61.5,-21.7 c 0,0 -18.4,116.9 0,142.6 18.4,25.8 144.1,95.1 144.1,95.1 0,0 258.3,68.8 314.4,60.1 56.1,-8.6 228.7,-314.9 202.8,-396.9 -25.9,-82 -129.4,-358.2 -392.6,-366.8 -263.2,-8.6 -263.2,-8.6 -263.2,-8.6 v 189.8" /><path
         id="path100"
         style="fill:#c1bfbd;fill-opacity:1;fill-rule:nonzero;stroke:none"
         d="m 12452,13086.6 c 12.9,13 353.1,210 401.3,220.1 48.2,10.1 284.7,-159.8 284.7,-159.8 0,0 114.1,35.5 115.3,160.2 0,0 -270.6,176.5 -369.8,185.1 -99.3,8.6 -504.9,-202.8 -504.9,-202.8 l 73.4,-202.8" /><path
         id="path102"
         style="fill:#2e2d2d;fill-opacity:1;fill-rule:nonzero;stroke:none"
         d="m 11933.9,14043.2 h -298.7 l -70.5,-86.8 4.6,-102.1 c -128,-152.3 -209.7,-383 -209.7,-641.4 0,-296.9 107.9,-557.2 269.9,-704 l 5.7,-126.2 h 298.7 c 317.1,0 574.2,371.7 574.2,830.2 0,458.5 -257.1,830.3 -574.2,830.3" /><path
         id="path104"
         style="fill:#494a4b;fill-opacity:1;fill-rule:nonzero;stroke:none"
         d="m 12209.4,13212.9 c 0,-458.5 -257.1,-830.2 -574.2,-830.2 -317.1,0 -574.2,371.7 -574.2,830.2 0,458.5 257.1,830.3 574.2,830.3 317.1,0 574.2,-371.8 574.2,-830.3" /><path
         id="path106"
         style="fill:#7e7f81;fill-opacity:1;fill-rule:nonzero;stroke:none"
         d="m 11847.3,13218.4 c 0,-126.6 -79.6,-229.2 -177.8,-229.2 -98.2,0 -177.7,102.6 -177.7,229.2 0,126.7 79.5,229.3 177.7,229.3 98.2,0 177.8,-102.6 177.8,-229.3" /><path
         id="path108"
         style="fill:#c1bfbd;fill-opacity:1;fill-rule:nonzero;stroke:none"
         d="m 10616,13336.3 c 4.2,-10.4 -133.8,-131.5 0,-282 l 1076.5,22.7 c 0,0 83.7,100.4 0,259.3 H 10616" /><path
         id="path110"
         style="fill:#c1bfbd;fill-opacity:1;fill-rule:nonzero;stroke:none"
         d="m 7897.54,10002.6 1030.17,64.7 c 0,0 77.67,-90.2 0,-183.2 L 7897.54,9789 v 213.6" /><path
         id="path112"
         style="fill:#2e2d2d;fill-opacity:1;fill-rule:nonzero;stroke:none"
         d="m 8298.62,10670.3 h -287.83 l -67.95,-77.7 4.41,-91.4 c -123.34,-136.3 -202,-342.9 -202,-574.1 0,-265.8 103.92,-498.8 260.09,-630.2 l 5.45,-113 h 287.83 c 305.62,0 553.38,332.7 553.38,743.2 0,410.4 -247.76,743.2 -553.38,743.2" /><path
         id="path114"
         style="fill:#494a4b;fill-opacity:1;fill-rule:nonzero;stroke:none"
         d="m 8564.17,9927.1 c 0,-410.5 -247.75,-743.2 -553.37,-743.2 -305.62,0 -553.38,332.7 -553.38,743.2 0,410.4 247.76,743.2 553.38,743.2 305.62,0 553.37,-332.8 553.37,-743.2" /><path
         id="path116"
         style="fill:#7e7f81;fill-opacity:1;fill-rule:nonzero;stroke:none"
         d="m 8091.7,9926.3 c 0,-99.1 -66.65,-179.4 -148.86,-179.4 -82.21,0 -148.87,80.3 -148.87,179.4 0,99 66.66,179.3 148.87,179.3 82.21,0 148.86,-80.3 148.86,-179.3" /><path
         id="path118"
         style="fill:#c1bfbd;fill-opacity:1;fill-rule:nonzero;stroke:none"
         d="m 6997.27,9731.8 c 0,0 188.32,170.7 231.47,187.8 43.14,17.2 183.37,-37.4 345.18,-58.1 161.81,-20.7 346.27,0 346.27,0 0,0 61.48,82.8 0,118.4 0,0 -249.18,-6.4 -326.85,0 -77.67,6.5 -300.96,93.9 -385.1,87.4 -84.14,-6.5 -297.72,-229.8 -297.72,-229.8 l 86.75,-105.7" /><path
         id="path120"
         style="fill:#3970c1;fill-opacity:1;fill-rule:nonzero;stroke:none"
         d="m 5803.91,4740.7 c 0,0 -133.34,-606.5 -40.44,-682.9 92.9,-76.5 356.63,-17.2 495.73,-84.5 139.11,-67.4 764,-144.8 978.68,75.8 214.68,220.7 -641.06,589.2 -694.36,647.1 -53.3,57.9 -110.01,173 -151.62,227.9 -41.6,54.9 -193.9,67.1 -193.9,67.1 0,0 -77.73,121.5 -154.45,53.9 -76.73,-67.6 -239.64,-304.4 -239.64,-304.4" /><path
         id="path122"
         style="fill:#3970c1;fill-opacity:1;fill-rule:nonzero;stroke:none"
         d="m 3998.09,4587.6 -56.84,-123.3 c 0,0 -54.92,-652 -34.44,-726.7 20.48,-74.6 240,-333.6 450.25,-410 210.24,-76.4 618.53,30.1 640.08,151.1 21.56,120.9 -376.34,744.3 -419.77,863.7 -43.42,119.4 -8.87,384 -61.04,425.4 -52.17,41.4 -120.97,21.6 -120.97,21.6 l -402.72,101.5 5.45,-303.3" /><path
         id="path124"
         style="fill:#fbc398;fill-opacity:1;fill-rule:nonzero;stroke:none"
         d="m 4064.48,8213.9 v -878.3 c 0,0 -285.44,-592.9 -307.4,-889.3 -21.96,-296.4 76.85,-834.4 153.7,-1196.7 76.85,-362.3 76.85,-362.3 76.85,-362.3 l 451.18,77.7 c 0,0 9.92,376.1 141.66,771.4 131.75,395.2 131.75,1141.7 131.75,1141.7 0,0 87.83,131.8 117.1,278.1 29.28,146.4 219.58,644.1 226.9,746.6 7.31,102.5 -702.64,183 -702.64,183 l -289.1,128.1" /><path
         id="path126"
         style="fill:#fbc398;fill-opacity:1;fill-rule:nonzero;stroke:none"
         d="m 5444.12,7946.7 c 0,0 190.3,-461.1 190.3,-534.3 0,-73.2 -197.61,-578.2 -146.38,-988.1 51.23,-409.8 278.13,-687.9 336.67,-914.8 58.56,-226.9 73.2,-527 73.2,-527 l 424.51,36.6 c 0,0 29.27,585.5 87.82,885.6 58.56,300.1 -58.55,1346.7 -58.55,1346.7 0,0 98.66,622.1 74.95,819.7 -23.72,197.6 -982.52,-124.4 -982.52,-124.4" /><path
         id="path128"
         style="fill:#252323;fill-opacity:1;fill-rule:nonzero;stroke:none"
         d="m 4112.06,10837.7 c 0,0 -102.47,-208.6 -179.32,-988 -76.85,-779.5 0,-2020.1 0,-2020.1 0,0 494.04,-109.8 658.72,-87.8 164.67,21.9 568.58,65.8 568.58,65.8 l 90.13,658.8 120.77,-636.8 c 0,0 428.16,54.9 614.8,43.9 186.63,-11 581.86,32.9 581.86,32.9 0,0 65.88,823.4 -76.85,1482.2 -142.72,658.7 -358.63,1361.3 -358.63,1361.3 l -1672.41,428.2 -347.65,-340.4" /><path
         id="path130"
         style="fill:#3970c1;fill-opacity:1;fill-rule:nonzero;stroke:none"
         d="m 5081.47,14182.6 -610.78,195.7 -146.38,-97.9 c 0,0 259.83,-546.5 245.19,-978.4 -14.64,-431.8 -333.02,-1168.8 -333.02,-1168.8 0,0 51.23,-834.4 0,-944.1 -51.23,-109.8 -124.42,-351.4 -124.42,-351.4 0,0 746.54,-329.3 1266.19,-307.4 519.66,22 753.87,219.6 753.87,219.6 0,0 29.28,790.5 0,1090.5 -29.28,300.1 -65.88,797.8 -65.88,797.8 0,0 117.12,205 139.07,483.1 21.96,278.1 -95.15,570.9 -131.75,607.5 -36.59,36.6 -225.13,87 -261.72,365.1 l -188.22,71.4 -542.15,17.3" /><path
         id="path132"
         style="fill:#eaad81;fill-opacity:1;fill-rule:nonzero;stroke:none"
         d="m 4141.33,5604.6 c 146.38,373.3 190.3,946 190.3,946 117.1,-576.4 -190.3,-946 -190.3,-946" /><path
         id="path134"
         style="fill:#edcab2;fill-opacity:1;fill-rule:nonzero;stroke:none"
         d="m 4709.89,6745.7 c 2.33,81.8 2.33,132.4 2.33,132.4 v 0 -131.7 c 0,0 -0.8,-0.3 -2.33,-0.7" /><path
         id="path136"
         style="fill:#eaad81;fill-opacity:1;fill-rule:nonzero;stroke:none"
         d="m 4642.56,6737.3 c -91.68,0 -245.74,45.3 -284.33,338.4 0,0 114.1,-218.9 270.52,-218.9 26.71,0 54.64,6.4 83.47,21.3 0,0 0,-50.6 -2.33,-132.4 -7.59,-2.1 -33.12,-8.4 -67.33,-8.4" /><path
         id="path138"
         style="fill:#eaad81;fill-opacity:1;fill-rule:nonzero;stroke:none"
         d="m 6197.69,7078.3 c -52.63,0 -114.92,15.6 -182.68,63.3 0,0 30.01,-5.8 73.45,-5.8 76.06,0 193.36,17.8 263.23,115.6 v 0 0 l 12.15,-115.6 c 0,0 -65.31,-57.5 -166.15,-57.5" /><path
         id="path140"
         style="fill:#eaad81;fill-opacity:1;fill-rule:nonzero;stroke:none"
         d="m 6015.01,5699.7 c 171.15,542 -9.64,1106.4 -1.08,1106.4 0.23,0 0.58,-0.4 1.08,-1.2 380.59,-607.5 0,-1105.2 0,-1105.2" /><path
         id="path142"
         style="fill:#100f0d;fill-opacity:1;fill-rule:nonzero;stroke:none"
         d="m 4920.81,10146.1 c 10.98,-43.9 225.95,-384.3 239.23,-538 13.28,-153.7 90.13,-1141.7 90.13,-1141.7 l 120.77,-636.8 230.22,25.4 -274.14,1797.1 182.98,274.4 -269.32,-54.9 -319.87,274.5" /><path
         id="path144"
         style="fill:#fbc398;fill-opacity:1;fill-rule:nonzero;stroke:none"
         d="m 4699.17,14989.8 c 0,0 -25.38,-366 -63.8,-450.3 -38.43,-84.3 -164.68,-161.2 -164.68,-161.2 0,0 301,-337.8 410.78,-540.9 109.79,-203.1 451.21,-546.3 699,-535.4 247.8,11 204.13,367.7 162.09,626 -22.96,141 -118.94,237.3 -118.94,237.3 l -160.14,240.5 -4.7,143.8 c 0,0 -570.9,704.8 -592.86,733.4 -21.96,28.5 -273.55,1.9 -272.47,0 1.09,-2 105.72,-293.2 105.72,-293.2" /><path
         id="path146"
         style="fill:#dc9b70;fill-opacity:1;fill-rule:nonzero;stroke:none"
         d="m 4804.88,13959.7 c 0,0 282.33,31.9 336.34,28.2 53.99,-3.6 160.31,-45.4 160.31,-45.4 0,0 -69.82,78.4 -126.49,104 -56.67,25.6 -414.08,-25.2 -414.08,-25.2 l 43.92,-61.6" /><path
         id="path148"
         style="fill:#dc9b70;fill-opacity:1;fill-rule:nonzero;stroke:none"
         d="m 5733,13971.1 c 0,0 -81.9,-1.4 -97.59,-5.1 -15.69,-3.7 -152.02,-50.9 -152.02,-50.9 0,0 63.54,106.7 121.04,110.3 57.51,3.7 109.35,0.3 109.35,0.3 l 19.22,-54.6" /><path
         id="path150"
         style="fill:#f5f6f5;fill-opacity:1;fill-rule:nonzero;stroke:none"
         d="m 6177.12,4992.8 c 0,0 -58.37,-9.6 -67.23,-47.4 -8.87,-37.8 -21.28,-112.9 -34.85,-151.1 -13.57,-38.1 -182.78,-28.3 -182.78,-28.3 l -10.63,392.2 450.25,13.6 5.89,-225.3 c 0,0 -21.95,30.4 -160.65,46.3" /><path
         id="path152"
         style="fill:#f5f6f5;fill-opacity:1;fill-rule:nonzero;stroke:none"
         d="m 4390.41,4783.7 c 0,0 -50.84,-1 -69.86,-62.8 -19.01,-61.7 -26.61,-86.5 -50.76,-103.4 -24.15,-16.9 -267.89,-11.4 -267.89,-11.4 l -28.3,346.9 465.2,12 -2.25,-170.2 -46.14,-11.1" /><path
         id="path154"
         style="fill:#fbc398;fill-opacity:1;fill-rule:nonzero;stroke:none"
         d="m 4324.31,14280.4 -141.83,-115.1 c 0,0 -241.63,-12.9 -366.76,-349.5 -125.13,-336.5 -25.89,-655.8 -25.89,-655.8 0,0 43.14,-522.1 189.85,-798.3 146.7,-276.1 448.74,-802.5 448.74,-802.5 0,0 181.22,-599.8 375.39,-897.5 194.16,-297.7 356.23,-515.6 356.23,-515.6 l 256.47,62.5 c 0,0 -51.78,168.3 -120.81,664.5 -69.04,496.2 -327.93,897.5 -327.93,897.5 0,0 69.04,280.5 38.83,591.1 -30.2,310.7 -210.88,731.4 -210.88,731.4 0,0 -96.58,581.9 -471.41,1187.3" /><path
         id="path156"
         style="fill:#eaad81;fill-opacity:1;fill-rule:nonzero;stroke:none"
         d="m 4967.77,11770.6 c -269.67,185.5 -345.19,558.8 -345.19,558.8 213.59,-369 364.59,-458.9 364.59,-458.9 l -19.4,-99.9 v 0 0" /><path
         id="path158"
         style="fill:#eaad81;fill-opacity:1;fill-rule:nonzero;stroke:none"
         d="m 4158.89,12808.1 c -94.41,0 -231.59,32 -349.41,184.3 l -19.65,167.6 c 0,0 120.81,-299.1 483.26,-335.1 0,0 -45.93,-16.8 -114.2,-16.8" /><path
         id="path160"
         style="fill:#eaad81;fill-opacity:1;fill-rule:nonzero;stroke:none"
         d="m 4622.58,12777 c 0,0 -26.23,236.7 145.46,444.7 l 27.68,-128.6 c 0,0 -121.36,-114.4 -173.14,-316.1" /><path
         id="path162"
         style="fill:#fbc398;fill-opacity:1;fill-rule:nonzero;stroke:none"
         d="m 5811.84,14093.9 c 0,0 441.74,-75.3 627.28,-390.3 185.54,-315 21.58,-895.4 21.58,-895.4 l 122.08,-758.2 c 0,0 240.36,-244.9 143.28,-756.2 -97.08,-511.3 -32.37,-1029.1 -32.37,-1029.1 l -413.19,-71.2 c 0,0 -279.34,1132.7 -285.8,1197.4 -6.48,64.7 53.97,486.2 104.65,822.4 l -33.11,424.9 c 0,0 133.91,215.4 141.21,521.8 7.3,306.3 -133.89,568.8 -133.89,568.8 0,0 -267.68,116.8 -261.72,365.1" /><path
         id="path164"
         style="fill:#edcab2;fill-opacity:1;fill-rule:nonzero;stroke:none"
         d="m 6483.4,12903.7 c 0.01,0 0.01,0 0.01,0 v 0 h -0.01" /><path
         id="path166"
         style="fill:#eaad81;fill-opacity:1;fill-rule:nonzero;stroke:none"
         d="m 6460.7,12808.2 c -16.54,102.7 -151.02,191.1 -151.02,191.1 4.55,0.7 9.1,1 13.64,1 81.46,0 159.78,-96.2 160.09,-96.6 0,0 0,0 -0.01,0 l -22.7,-95.5 v 0" /><path
         id="path168"
         style="fill:#eaad81;fill-opacity:1;fill-rule:nonzero;stroke:none"
         d="m 6396.54,11753.3 c 0,0 141.1,277.5 163.04,440.8 l 23.2,-144.1 c 0,0 -47.59,-171.6 -186.24,-296.7" /><path
         id="path170"
         style="fill:#dc9b70;fill-opacity:1;fill-rule:nonzero;stroke:none"
         d="m 6452.07,11101.8 c 0,0 -69.04,297.7 -77.67,556.6 0,0 -94.92,-280.5 77.67,-556.6" /><path
         id="path172"
         style="fill:#fbc398;fill-opacity:1;fill-rule:nonzero;stroke:none"
         d="m 6280.5,10193.5 c 0,0 34.57,-126.2 21.63,-213.6 -12.95,-87.3 -21.63,-141.2 -21.63,-141.2 l 12.26,-212.6 c 0,0 94.4,-87.8 129.11,-86.3 34.69,1.6 45.3,0 45.3,0 0,0 21.58,-60.4 60.41,-60.4 38.83,0 55.2,8.6 55.2,8.6 0,0 15.99,-24.6 56.98,-29.5 40.99,-5 51.78,0 51.78,0 0,0 71.19,-54.6 101.4,-41.6 30.2,12.9 110.03,118.6 116.5,118.6 6.47,0 86.3,-116.5 153.18,-90.6 66.87,25.9 -2.16,92.8 -21.58,155.3 -19.41,62.6 -107.87,332.3 -159.65,401.3 -51.78,69.1 -178.23,163.4 -187.69,263.2 -9.46,99.9 -197.64,133.8 -200.22,120.8 -2.58,-12.9 -212.98,-192 -212.98,-192" /><path
         id="path174"
         style="fill:#dc9b70;fill-opacity:1;fill-rule:nonzero;stroke:none"
         d="m 6467.17,9799.9 c 0,0 40.99,48.4 73.35,29 32.36,-19.4 32.36,-57.2 28.05,-113.8 -4.32,-56.6 -101.4,-175.3 -101.4,-175.3 l 26.31,-29.2 c 0,0 92.35,141.4 109.61,182.4 17.26,41 2.15,172.6 19.41,194.2 17.26,21.5 48.98,-7.6 63.33,-21.1 14.34,-13.5 0,-163.4 0,-163.4 l -103.05,-214.7 21.8,-18.5 c 0,0 108.54,197.6 115,221.3 6.48,23.8 2.16,183.8 19.42,204.1 17.26,20.3 51.78,7.4 60.41,-53 8.63,-60.4 0,-142.1 0,-155.2 0,-13.1 -107.87,-228.2 -107.87,-228.2 0,0 133.76,161.1 144.55,208.6 10.79,47.5 17.25,112.2 28.04,110 10.79,-2.1 38.84,-45.2 43.15,-95.9 4.32,-50.8 2.16,-145.7 2.16,-145.7 l 23.73,-24.9 c 0,0 19.42,102.6 8.63,170.6 -10.79,67.9 -75.51,145.6 -81.98,152 -6.48,6.5 -23.73,6.5 -28.05,13 -4.31,6.4 -23.73,73.3 -45.31,94.9 -21.57,21.6 -100.63,-31 -100.63,-31 0,0 -46.07,33.2 -71.96,26.7 -25.89,-6.5 -66.88,-58.3 -66.88,-58.3 0,0 58.25,90.7 60.41,137 2.16,46.4 -4.31,96 -10.78,89.6 -6.48,-6.5 -23.74,-79.9 -60.41,-153.2 -36.68,-73.4 -134.49,-137.1 -134.49,-137.1 l 65.45,-14.9" /><path
         id="path176"
         style="fill:#dc9b70;fill-opacity:1;fill-rule:nonzero;stroke:none"
         d="m 5348,14709 115.48,173.9 -4.7,-333.3 c 0,0 -165.34,-59.2 -426.07,109.3 -186.79,120.7 -236.99,379.5 -236.99,379.5 L 5348,14709" /><g
         transform="scale(1.00365)"
         id="g178"><path
           id="path180"
           style="fill:#252323;fill-opacity:1;fill-rule:nonzero;stroke:none"
           d="m 5502.3,16195.3 c -195.94,104.7 -399.29,78.9 -506.03,49.8 -106.74,-29.1 -279.2,-98.1 -279.2,-98.1 -44.65,-19 -89.99,-40.8 -116.68,-71.5 -42.65,-49.2 -49.25,-95.8 -49.25,-95.8 0,0 -153.61,-29.8 -163.24,-243 -9.65,-213.3 48.35,-404.4 98.68,-522 50.33,-117.5 195.51,-279.4 195.51,-279.4 l 61.23,305.8 c 0,0 340.58,334.7 351.32,357.7 10.72,23 420.61,133.5 420.61,133.5 l 100,54.1 c 0,0 43.89,136.5 -19.94,282 -20.03,45.6 -54.78,88.9 -93.01,126.9" /></g><path
         id="path182"
         style="fill:#fbc398;fill-opacity:1;fill-rule:nonzero;stroke:none"
         d="m 5576.67,15919.2 c 0,0 47.62,-53.7 59.07,-75.2 11.44,-21.6 33.09,-222.6 39.99,-273.4 6.89,-50.8 -1.38,-120.8 0.36,-145.5 1.74,-24.7 15.74,-175.8 13.34,-235.5 -2.39,-59.7 -51.93,-294.8 -69.02,-357.2 -17.09,-62.4 -42.65,-145.2 -71.11,-163.7 -28.46,-18.6 -157.99,-34.4 -275.62,-7.9 -117.63,26.4 -353.88,163.5 -420.46,239.8 -66.59,76.3 -70.23,244.7 -70.23,244.7 0,0 -46.78,-16.5 -99.64,29.4 -52.86,45.9 -139.4,147.2 -131.32,266.9 8.08,119.6 101.61,83.2 151.06,38.8 49.44,-44.5 56.21,-116.8 66.2,-117.7 9.99,-1 19.63,3 24.45,5 4.82,2 19.25,125.4 19.15,150.2 -0.1,24.8 -15.51,172.5 -12.56,177.7 2.94,5.2 115.06,161.9 153.51,179.6 38.45,17.6 622.83,44 622.83,44" /><path
         id="path184"
         style="fill:#dc9b70;fill-opacity:1;fill-rule:nonzero;stroke:none"
         d="m 6179.11,13443.9 c 6.15,-28.1 11.64,-57.4 16.13,-87.5 l 85.21,209.2 -101.34,-121.7" /><path
         id="path186"
         style="fill:#c1bfbd;fill-opacity:1;fill-rule:nonzero;stroke:none"
         d="m 5696.97,9600.2 c 0,0 282.62,115.4 407.76,114.9 125.12,-0.5 312.82,-76.7 312.82,-76.7 0,0 71.2,31.9 75.51,76.7 4.31,44.8 -25.89,84.8 -25.89,84.8 0,0 -269.67,65.7 -399.12,61.4 -129.45,-4.3 -429.32,-130.4 -429.32,-130.4 l 58.24,-130.7" /><path
         id="path188"
         style="fill:#e7ab83;fill-opacity:1;fill-rule:nonzero;stroke:none"
         d="m 5151.15,9572.2 c 0,0 -14.58,-75.5 8.89,-103.6 23.47,-28 215.74,-118.6 243.66,-99.2 27.91,19.4 66.74,36.7 66.74,36.7 l 53.51,52.4 c 0,0 56.9,-1.2 77.21,10.9 20.3,12.2 20.3,51 20.3,51 0,0 73.36,21.6 86.3,51.8 12.95,30.2 0,213.6 -60.41,265.3 -60.4,51.8 -217.85,72.6 -217.85,72.6 l -159.69,-44.5 -109.77,-118.7 -8.89,-174.7" /><path
         id="path190"
         style="fill:#c1bfbd;fill-opacity:1;fill-rule:nonzero;stroke:none"
         d="m 5370.67,9510.6 c 0,0 -40.46,1.2 -129.99,31.4 -89.53,30.2 -421.77,230.8 -510.23,239.5 -88.45,8.6 -377.54,-143.1 -377.54,-143.1 l -12.94,161.5 c 0,0 304.19,123.9 375.38,119.6 71.2,-4.3 444.69,-172.6 444.69,-172.6 l 163.71,38.9 79.95,-70.7 -33.03,-204.5" /><path
         id="path192"
         style="fill:#fbc398;fill-opacity:1;fill-rule:nonzero;stroke:none"
         d="m 5160.04,10146.1 c 0,0 19.15,-90.7 14.84,-164 -4.31,-73.4 -14.84,-235.2 -14.84,-235.2 0,0 114.08,-19.4 124.87,-36.6 10.79,-17.3 101.4,-252.5 146.7,-321.5 45.31,-69 88.46,-43.1 99.24,-21.6 10.79,21.6 -10.78,116.5 -28.04,176.9 -17.26,60.5 -38.84,172.6 -38.84,172.6 l 84.15,15.1 c 0,0 6.46,79.9 34.51,99.3 28.05,19.4 64.72,6.4 64.72,6.4 0,0 -12.94,110.1 -75.5,200.7 -62.57,90.6 -155.34,170.4 -155.34,170.4 0,0 -172.59,58.3 -189.85,45.3 -17.26,-12.9 -66.62,-107.8 -66.62,-107.8" /><path
         id="path194"
         style="fill:#d1986f;fill-opacity:1;fill-rule:nonzero;stroke:none"
         d="m 5548.12,9731.8 c 0,0 56.08,-97 73.34,-211.4 l 47.62,19.1 c 0,0 -38.99,168.6 -120.96,192.3" /><path
         id="path196"
         style="fill:#dc9b70;fill-opacity:1;fill-rule:nonzero;stroke:none"
         d="m 5476.92,10015.5 c 0,0 -3.24,-126.2 -16.18,-197.4 -12.95,-71.2 3.23,-101.4 3.23,-101.4 l 84.15,15.1 -46.21,41 c 0,0 23.55,148.9 -24.99,242.7" /><path
         id="path198"
         style="fill:#2e2d2d;fill-opacity:1;fill-rule:nonzero;stroke:none"
         d="m 3797.18,10480.5 h -308.12 l -72.75,-89.5 4.72,-105.4 c -132.04,-157.1 -216.24,-395.2 -216.24,-661.7 0,-306.2 111.25,-574.8 278.43,-726.2 l 5.84,-130.3 h 308.12 c 327.18,0 592.4,383.5 592.4,856.5 0,473.1 -265.22,856.6 -592.4,856.6" /><path
         id="path200"
         style="fill:#494a4b;fill-opacity:1;fill-rule:nonzero;stroke:none"
         d="m 4081.46,9623.9 c 0,-473 -265.23,-856.5 -592.4,-856.5 -327.18,0 -592.4,383.5 -592.4,856.5 0,473.1 265.22,856.6 592.4,856.6 327.17,0 592.4,-383.5 592.4,-856.6" /><path
         id="path202"
         style="fill:#7e7f81;fill-opacity:1;fill-rule:nonzero;stroke:none"
         d="m 3707.84,9629.6 c 0,-130.6 -82.1,-236.5 -183.38,-236.5 -101.28,0 -183.38,105.9 -183.38,236.5 0,130.6 82.1,236.5 183.38,236.5 101.28,0 183.38,-105.9 183.38,-236.5" /><path
         id="path204"
         style="fill:#c1bfbd;fill-opacity:1;fill-rule:nonzero;stroke:none"
         d="m 2836.25,9731.8 c 4.32,-10.8 -138.08,-144.5 0,-299.8 l 711.94,51.7 c 0,0 86.3,103.6 0,267.5 l -711.94,-19.4" /></g></g></svg>