<?xml version="1.0" encoding="UTF-8" standalone="no"?>
<svg
   xmlns:dc="http://purl.org/dc/elements/1.1/"
   xmlns:cc="http://creativecommons.org/ns#"
   xmlns:rdf="http://www.w3.org/1999/02/22-rdf-syntax-ns#"
   xmlns:svg="http://www.w3.org/2000/svg"
   xmlns="http://www.w3.org/2000/svg"
   viewBox="0 0 2666.6667 2666.6667"
   height="2666.6667"
   width="2666.6667"
   xml:space="preserve"
   id="svg2"
   version="1.1"><metadata
     id="metadata8"><rdf:RDF><cc:Work
         rdf:about=""><dc:format>image/svg+xml</dc:format><dc:type
           rdf:resource="http://purl.org/dc/dcmitype/StillImage" /></cc:Work></rdf:RDF></metadata><defs
     id="defs6" /><g
     transform="matrix(1.3333333,0,0,-1.3333333,0,2666.6667)"
     id="g10"><g
       transform="scale(0.1)"
       id="g12"><g
         transform="scale(1.22699)"
         id="g14"><path
           id="path16"
           style="fill:none;fill-opacity:1;fill-rule:nonzero;stroke:none"
           d="M 16300,0 H 0 V 16300 H 16300 V 0" /></g><g
         transform="scale(1.05139)"
         id="g18"><path
           id="path20"
           style="fill:#48484a;fill-opacity:1;fill-rule:nonzero;stroke:none"
           d="m 15813.2,6238.11 c 0,0 90.7,-45.66 260.2,-288.95 169.5,-243.39 226.6,-562.78 226.6,-562.78 l -319.4,-25.21 c 0,0 -496.3,226.66 -507.7,407.37 -11.4,180.62 340.3,469.57 340.3,469.57" /></g><g
         transform="scale(1.03079)"
         id="g22"><path
           id="path24"
           style="fill:#252323;fill-opacity:1;fill-rule:nonzero;stroke:none"
           d="m 16090.6,5434.56 209.4,33.76 c 0,0 -3.9,287.26 -170.7,360.12 -166.8,72.76 -38.7,-393.88 -38.7,-393.88" /></g><g
         transform="scale(1.10721)"
         id="g26"><path
           id="path28"
           style="fill:#7e7f81;fill-opacity:1;fill-rule:nonzero;stroke:none"
           d="m 15449.7,11159.4 h 650 c 0,0 135.4,0.2 167.9,-157 32.4,-157.1 -151.7,-240.2 -151.7,-240.2 l -1146.4,-108.8 480.2,506" /></g><path
         id="path30"
         style="fill:#7e7f81;fill-opacity:1;fill-rule:nonzero;stroke:none"
         d="m 15314.6,13203.4 h -319.8 v 1231.4 h 319.8 v -1231.4" /><path
         id="path32"
         style="fill:#b5b5b4;fill-opacity:1;fill-rule:nonzero;stroke:none"
         d="m 15029.7,13136.8 h -682.6 v 1298 h 682.6 v -1298" /><path
         id="path34"
         style="fill:#7e7f81;fill-opacity:1;fill-rule:nonzero;stroke:none"
         d="M 12858.7,13059.4 H 12572 v 1319.4 h 286.7 v -1319.4" /><g
         transform="scale(1.01999)"
         id="g36"><path
           id="path38"
           style="fill:#7e7f81;fill-opacity:1;fill-rule:nonzero;stroke:none"
           d="m 15994.3,6132.29 305.7,297.84 v 4037.27 l -650.6,-101.9 103.5,-4233.21 h 241.4" /></g><g
         transform="scale(1.04034)"
         id="g40"><path
           id="path42"
           style="fill:#7e7f81;fill-opacity:1;fill-rule:nonzero;stroke:none"
           d="m 11823.1,12637.6 v 1475.7 c 0,0 318.3,883.8 949.2,1014.5 631,130.7 1579.5,330.5 2225.1,0 645.6,-330.5 707.1,-684 853.1,-1314.3 146,-630.2 449.5,-3189.2 449.5,-3189.2 0,0 -365.1,-171.5 -461,-131.1 -95.9,40.3 -207.5,138.3 -253.6,196 -46.1,57.6 -23,1475.7 -23,1475.7 0,0 -253.7,2167.4 -322.9,2351.9 -69.1,184.4 -226.8,480.3 -734,557.2 -507.2,76.9 -1389.3,-130.7 -1893.6,-376.6 -504.4,-246 -488.7,-970.2 -489,-1491.9 -0.4,-521.7 30.7,-1059.8 30.7,-1059.8 l -289.5,-20.7 -41,512.6" /></g><g
         transform="scale(1.01999)"
         id="g44"><path
           id="path46"
           style="fill:#5e6263;fill-opacity:1;fill-rule:nonzero;stroke:none"
           d="m 16300,6430.13 v -870.19 c 0,0 -18.4,-164.62 -118.9,-195.99 -100.5,-31.27 -367.1,0 -367.1,0 l -203.8,43.14 c 0,0 -156.8,113.73 -109.7,450.79 46.9,337.06 164.6,485.98 164.6,485.98 0,0 454.6,7.84 634.9,86.27" /></g><path
         id="path48"
         style="fill:#505556;fill-opacity:1;fill-rule:nonzero;stroke:none"
         d="m 15666.4,14470.4 h -2918.5 c 271.8,803.3 1079.4,850.4 1079.4,850.4 0,0 1063.9,364.3 1487.3,0 423.4,-364.4 351.8,-850.4 351.8,-850.4 z m -384.8,1168.7 c -782.6,171 -2149.9,-127.9 -2597.7,-682.1 0,0 -231.9,-346.3 -247.9,-682.2 l 3590.3,40 c 0,0 37.9,1153.4 -744.7,1324.3" /><path
         id="path50"
         style="fill:#7e7f81;fill-opacity:1;fill-rule:nonzero;stroke:none"
         d="m 11740.4,8373.8 527.7,-943.5 -175.9,-1255.4 567.7,-143.9 287.9,-207.9 h 255.9 c 0,0 623.6,1940.2 559.7,2085.5 -64,145.4 -515.6,656.2 -877.5,632.7 -361.9,-23.6 -1145.5,-167.5 -1145.5,-167.5" /><path
         id="path52"
         style="fill:#959595;fill-opacity:1;fill-rule:nonzero;stroke:none"
         d="m 12520,8157.9 36,-335.8 263.9,-173.9 -485.8,-2147 h 137.9 l 221.9,321.9 641.7,2472.7 -815.6,-137.9" /><path
         id="path54"
         style="fill:#5e6263;fill-opacity:1;fill-rule:nonzero;stroke:none"
         d="m 13172.5,8009.6 c 0,0 -71.8,-483.8 -47.3,-524.6 24.5,-40.7 120.4,-190.7 120.4,-190.7 l -62.7,-431.8 c 0,0 212.7,-197.9 224.7,-179.9 12,18 350,652.4 360.4,833.6 10.4,181.2 111.8,402.1 -97.3,530.9 -209.2,128.8 -498.2,-37.5 -498.2,-37.5" /><path
         id="path56"
         style="fill:#b5b5b4;fill-opacity:1;fill-rule:nonzero;stroke:none"
         d="m 13515.5,7636.2 -641.7,-2781.5 132,-120.5 455.1,-0.7 108.6,78.1 857.6,3681.1 -911.6,-856.5" /><path
         id="path58"
         style="fill:#34231f;fill-opacity:1;fill-rule:nonzero;stroke:none"
         d="m 15552.1,15275.1 c -20.7,73.5 -23.9,101.4 -23.9,101.4 0,0 25.1,94.2 0.1,148.3 -25.1,54.1 -83.6,95.1 -83.6,95.1 0,0 -29.1,107.6 -95.5,166.5 -66.5,58.8 -88.4,59.8 -88.4,59.8 0,0 -69.9,78.7 -137.3,115.7 -67.4,37 -135.7,52.1 -135.7,52.1 0,0 -70.9,56.9 -175.6,93.3 -104.7,36.5 -148.2,19.8 -148.2,19.8 0,0 -111.2,48.4 -197.7,45.3 -86.5,-3.1 -156.8,-80 -156.8,-80 0,0 -161.8,-3.9 -250.6,-120.4 v 0 c -47.7,-26.8 -98.5,-68.1 -147.8,-130.8 -56.1,-59.9 -108.9,-144.1 -142,-262.5 -7,-25.1 -13.3,-50.3 -18.9,-75.6 -87.8,-332.4 -35,-687.3 -35,-687.3 0,0 174.1,-46.9 279.8,-14.3 4,1.2 8.1,2.6 12.1,4 -2.2,-38.6 -4.1,-72.6 -4.1,-79.7 0,-18 66,-209.9 287.9,-179.9 221.9,30 407.8,66 455.7,78 48,11.9 569.8,411.7 569.8,411.7 0,0 66.3,8.6 123.3,42.2 0,0 150.5,61.7 112.4,197.3" /><path
         id="path60"
         style="fill:#7e7f81;fill-opacity:1;fill-rule:nonzero;stroke:none"
         d="m 11092.7,8489.7 163.9,-115.9 387.8,58 c 0,0 -79.9,157.9 -135.9,177.9 -56,20 -415.8,-120 -415.8,-120" /><path
         id="path62"
         style="fill:#959595;fill-opacity:1;fill-rule:nonzero;stroke:none"
         d="m 11228.6,8629.7 c 0,0 -439.7,-52 -427.7,-80 12,-28 211.9,-97.6 231.8,-96.8 20,0.8 427.8,24.8 427.8,24.8 l -231.9,152" /><path
         id="path64"
         style="fill:#b5b5b4;fill-opacity:1;fill-rule:nonzero;stroke:none"
         d="m 10908.8,9413.3 -251.9,-24 -107.9,-443.8 c 0,0 -8,-127.9 83.9,-187.9 92,-60 2095,-831.6 2306.9,-847.6 211.9,-16 395.8,108 395.8,120 0,12 -815.6,923.4 -931.5,1039.4 -116,116 -1495.3,343.9 -1495.3,343.9" /><path
         id="path66"
         style="fill:#505556;fill-opacity:1;fill-rule:nonzero;stroke:none"
         d="m 11980.3,9609.6 c 0,0 -1315.4,-188.3 -1323.4,-220.3 -8,-32 1543.3,-583.7 1543.3,-583.7 l -219.9,804" /><path
         id="path68"
         style="fill:#11100e;fill-opacity:1;fill-rule:nonzero;stroke:none"
         d="m 13556.2,7566.2 c 0,0 583,295.9 750.9,655.7 167.9,359.8 -791.6,191.9 -791.6,191.9 l 40.7,-847.6" /><g
         transform="scale(1.06761)"
         id="g70"><path
           id="path72"
           style="fill:#11100e;fill-opacity:1;fill-rule:nonzero;stroke:none"
           d="m 14673.7,4793.21 c 0,0 140.9,46.27 148.6,153.24 7.7,106.97 -27.8,117.08 10.9,137.69 38.8,20.52 234.3,82.05 288.3,74.47 54,-7.59 215.9,-298.71 262.8,-363.9 47,-65.28 349.6,-227.05 436.8,-282.87 87.3,-55.83 319.7,-68.57 374.1,-132.73 54.4,-64.25 104.8,-234.92 0.8,-302.45 -103.9,-67.53 -556.4,-183.96 -585.6,-165.41 -29,18.64 -372.9,-37.19 -603.1,229.2 -230.3,266.48 -333.6,652.76 -333.6,652.76" /></g><path
         id="path74"
         style="fill:#b5b5b4;fill-opacity:1;fill-rule:nonzero;stroke:none"
         d="m 15716.4,9069.4 h -209.9 v 1271.7 h 209.9 V 9069.4" /><path
         id="path76"
         style="fill:#7e7f81;fill-opacity:1;fill-rule:nonzero;stroke:none"
         d="m 15716.4,9015.5 h 137.9 v 1355.3 h -137.9 V 9015.5" /><path
         id="path78"
         style="fill:#b5b5b4;fill-opacity:1;fill-rule:nonzero;stroke:none"
         d="m 16064.2,9069.4 h -209.9 v 1271.7 h 209.9 V 9069.4" /><path
         id="path80"
         style="fill:#5e6263;fill-opacity:1;fill-rule:nonzero;stroke:none"
         d="m 16064.2,9015.5 h 138 v 1355.3 h -138 V 9015.5" /><g
         transform="scale(1.00822)"
         id="g82"><path
           id="path84"
           style="fill:#b5613d;fill-opacity:1;fill-rule:nonzero;stroke:none"
           d="m 15586.3,9503.08 c 0,0 428.2,-301.43 571,-578.94 142.7,-277.62 71.4,-801.02 55.5,-943.75 -15.9,-142.82 -39.7,-579.04 -182.4,-1197.55 -142.7,-618.61 -150.6,-1498.38 -150.6,-1498.38 0,0 -47.7,-254.41 -222.1,-270.28 -174.6,-15.77 -380.7,-364.8 -531.4,27.77 -150.7,392.57 -222.1,353 -245.8,947.81 -23.8,594.81 -47.6,2379.24 -39.7,2736.11 7.9,356.86 -31.7,713.73 87.2,777.21 119,63.47 658.3,0 658.3,0" /></g><path
         id="path86"
         style="fill:#cfcecd;fill-opacity:1;fill-rule:nonzero;stroke:none"
         d="m 15024.6,5735.8 c 36,-298.7 106,-339.8 226,-652.4 152,-395.8 359.9,-43.9 535.8,-28 175.9,16 223.9,272.5 223.9,272.5 0,0 2.1,232.4 23.4,542.9 -311.9,-51.8 -707.9,-100.7 -1009.1,-135" /><g
         transform="scale(1.04526)"
         id="g88"><path
           id="path90"
           style="fill:#252323;fill-opacity:1;fill-rule:nonzero;stroke:none"
           d="m 14238.4,5322.32 c 0,0 -221.9,-107.05 -221.9,-168.28 0,-61.23 -114.7,-921.78 -61.1,-1028.93 53.5,-107.06 585.2,-122.36 696.1,-179.76 110.9,-57.41 585.2,-286.82 1116.9,-191.25 531.6,95.67 393.9,401.62 351.8,443.72 -42,42.09 -244.7,99.4 -351.8,179.76 -107.1,80.27 -577.6,624.44 -657.9,719.63 -80.3,95.1 -88,148.58 -141.6,163.88 -53.4,15.31 -202.7,-22.96 -202.7,-22.96 0,0 -167,72.71 -217.9,84.19 -51,11.48 -309.9,0 -309.9,0" /></g><path
         id="path92"
         style="fill:#c37140;fill-opacity:1;fill-rule:nonzero;stroke:none"
         d="m 13813.4,8132.5 c 0,0 417.7,49.4 581.7,65.4 163.9,16 223.8,-72 163.9,-267.9 -60,-195.9 -195.9,-587.7 -155.9,-899.5 39.9,-311.9 223.8,-791.6 331.8,-1219.4 107.9,-427.8 135.9,-771.6 135.9,-771.6 0,0 363.8,-68 379.8,43.9 16,112 16,315.9 20,327.9 4,12 171.9,40 163.9,63.9 -8,24 -111.9,223.9 -55.9,771.7 55.9,547.7 103.9,1607.2 103.9,1619.1 0,12 108,775.7 24,1003.6 -84,227.8 -319.8,375.8 -319.8,375.8 l -223.9,111.9 c 0,0 -687.7,-91.9 -743.6,-199.9 -56,-107.9 -68,-131.9 -136,-403.8 -67.9,-271.9 -291.7,-514.5 -269.8,-621.1" /><path
         id="path94"
         style="fill:#252323;fill-opacity:1;fill-rule:nonzero;stroke:none"
         d="m 11980.3,10572.7 -96,-167.9 c 0,0 -327.8,-351.9 -183.9,-911.6 143.9,-559.7 303.9,-695.6 823.6,-975.5 519.7,-279.8 783.6,-655.6 863.6,-807.6 79.9,-151.9 168.6,-143.9 168.6,-143.9 0,0 127.2,455.8 383.1,727.6 255.9,271.9 215.9,463.8 519.7,687.7 303.9,223.9 503.8,375.8 503.8,375.8 l 223.9,-111.9 c 0,0 119.9,215.8 215.9,247.8 95.9,32 311.8,88 311.8,88 0,0 -447.8,279.9 -639.7,351.8 -191.9,72 -943.5,407.8 -975.5,415.8 -32,8 -991.5,223.9 -991.5,223.9 h -1127.4" /><g
         transform="scale(1.16066)"
         id="g96"><path
           id="path98"
           style="fill:#7e7f81;fill-opacity:1;fill-rule:nonzero;stroke:none"
           d="m 14324.5,7147.47 1975.5,2877.93 -2188.9,55.8 c 0,0 -501.5,-336.4 -553.5,-604.92 -52,-268.51 766.9,-2328.81 766.9,-2328.81" /></g><g
         transform="scale(1.17599)"
         id="g100"><path
           id="path102"
           style="fill:#ccccc9;fill-opacity:1;fill-rule:nonzero;stroke:none"
           d="m 14654.5,9819.96 c -20.3,27.19 -108.8,911.14 244.8,1285.04 353.6,374 1060.7,238 1230.7,-339.9 170,-578 -42.5,-870.35 -42.5,-870.35 0,0 -243.1,-367.17 -583.1,-475.95 -339.9,-108.79 -849.9,401.16 -849.9,401.16" /></g><g
         transform="scale(1.17599)"
         id="g104"><path
           id="path106"
           style="fill:#6e6f71;fill-opacity:1;fill-rule:nonzero;stroke:none"
           d="m 16130,10765.1 c -170,577.9 -877.1,713.9 -1230.7,339.9 -58.4,-61.7 -104.7,-137.4 -141.2,-220.8 l 0.1,-0.1 c 0,0 285.2,346.1 753.4,254.8 468,-91.2 644.7,-911.2 522.8,-1315.65 34.3,43.17 53.1,71.5 53.1,71.5 0,0 212.5,292.35 42.5,870.35" /></g><g
         transform="scale(1.07066)"
         id="g108"><path
           id="path110"
           style="fill:#b5b5b4;fill-opacity:1;fill-rule:nonzero;stroke:none"
           d="m 15768.4,11129.6 c 0,0 427.1,-310 460.7,-373.4 33.6,-63.5 70.9,-549.7 41.1,-566.1 -29.9,-16.5 -293.4,-30.7 -455.6,-156.5 -162.2,-125.8 -526.5,-918.59 -560.1,-929.8 -33.6,-11.21 -230.9,0 -230.9,0 l -21.2,1226.7 566.9,761.7 199.1,37.4" /></g><path
         id="path112"
         style="fill:#b5b5b4;fill-opacity:1;fill-rule:nonzero;stroke:none"
         d="m 15716.4,9783.1 v 558 h -209.9 v -558 h 209.9" /><path
         id="path114"
         style="fill:#7e7f81;fill-opacity:1;fill-rule:nonzero;stroke:none"
         d="m 15854.3,9783.1 v 587.7 h -137.9 v -587.7 h 137.9" /><path
         id="path116"
         style="fill:#b5b5b4;fill-opacity:1;fill-rule:nonzero;stroke:none"
         d="m 15854.3,10341.1 v -791.9 h 209.9 v 791.9 h -209.9" /><path
         id="path118"
         style="fill:#5e6263;fill-opacity:1;fill-rule:nonzero;stroke:none"
         d="m 16202.2,9435.4 v 935.4 h -138 v -947.5 l 138,12.1" /><g
         transform="scale(1.10609)"
         id="g120"><path
           id="path122"
           style="fill:#7e7f81;fill-opacity:1;fill-rule:nonzero;stroke:none"
           d="m 15443.4,11178 h 675.9 c 0,0 151.9,-35.8 166.3,-167.9 14.4,-132.1 -126.6,-247.8 -126.6,-247.8 0,0 -701.2,-69.1 -715.6,-47 -14.5,22.1 -75.9,32.5 -61.4,115.7 14.4,83.1 61.4,347 61.4,347" /></g><g
         transform="scale(1.0238)"
         id="g124"><path
           id="path126"
           style="fill:#505556;fill-opacity:1;fill-rule:nonzero;stroke:none"
           d="m 12615.6,12027.6 2164.8,126.9 1519.6,-906 h -2536.3 l -1148.1,779.1" /></g><path
         id="path128"
         style="fill:#e9eef1;fill-opacity:1;fill-rule:nonzero;stroke:none"
         d="m 13287.6,14058.9 -310,-71.9 -662.6,-1025.4 c 0,0 -246.8,-901.7 -238.8,-1197.5 8,-295.8 -95.9,-1191.4 -95.9,-1191.4 0,0 471.7,-215.9 1071.4,-351.8 599.7,-136 871.6,-88 1079.5,0 0,0 487.7,1767.1 511.7,1791.1 24,24 399.8,431.8 415.8,471.7 16,40 112,335.9 56,479.8 -56,143.9 -543.7,1007.5 -543.7,1007.5 l -1283.4,87.9" /><path
         id="path130"
         style="fill:#505556;fill-opacity:1;fill-rule:nonzero;stroke:none"
         d="m 15392.6,11980 -326.5,459.9 -2150.3,-126.1 1175.4,-797.6 h 1671.2 l -369.8,463.8" /><path
         id="path132"
         style="fill:#c37140;fill-opacity:1;fill-rule:nonzero;stroke:none"
         d="m 13713.4,14814.6 c 0,0 -48,-485.8 -143.9,-593.7 -96,-108 -281.9,-162 -281.9,-162 0,0 437.8,-305.8 605.7,-575.7 167.9,-269.8 221.9,-485.7 221.9,-485.7 l 353.8,-197.9 c 0,0 263.9,203.9 275.9,329.8 12,126 -173.9,725.7 -173.9,725.7 0,0 -473.8,1001.5 -557.7,1079.4 -84,78 -123.3,126.4 -139.4,91.2 -16,-35.2 -160.5,-211.1 -160.5,-211.1" /><g
         transform="scale(1.05497)"
         id="g134"><path
           id="path136"
           style="fill:#505556;fill-opacity:1;fill-rule:nonzero;stroke:none"
           d="m 16296.2,11643 c 0,0 3.8,-166 -45.5,-230.4 -49.3,-64.4 -208.4,-56.8 -208.4,-56.8 l 253.9,287.2" /></g><path
         id="path138"
         style="fill:#a45330;fill-opacity:1;fill-rule:nonzero;stroke:none"
         d="m 14010.3,14570.7 c 0,0 -15,-475.8 50.9,-619.7 66,-143.9 317.9,-212.7 317.9,-212.7 l -10.3,-212.3 202.2,281.1 c 0,0 -200.2,463.5 -240.8,545.2 -40.7,81.7 -319.9,218.4 -319.9,218.4" /><path
         id="path140"
         style="fill:#c37140;fill-opacity:1;fill-rule:nonzero;stroke:none"
         d="m 14193.2,14868.5 c 0,0 -34,233.9 -174,245.9 -139.9,12 -191.9,-163.9 -191.9,-299.8 0,-136 183,-243.9 183,-243.9 0,0 -7,-227.9 68.9,-431.8 76,-203.9 531.8,-415.8 615.7,-399.8 84,16 267.9,383.8 267.9,383.8 0,0 90.9,-25 120.9,-13 30,12 27,147 30,263.9 3,116.9 87,170.9 137.9,263.9 51,92.9 63,396.8 63,396.8 0,0 -451.8,163.9 -507.7,167.9 -56,4 -227.9,-52 -279.9,-80 -52,-28 -107.9,-207.9 -151.9,-247.8 -44,-40 -243.9,-164 -243.9,-164 l 62,157.9" /><path
         id="path142"
         style="fill:#34231f;fill-opacity:1;fill-rule:nonzero;stroke:none"
         d="m 14343.8,14849.9 c 0,0 90.2,58.1 112.8,97.7 22.6,39.5 35.7,129.8 103.5,156.2 67.8,26.4 130.1,126.1 130.1,126.1 0,0 -190.3,28.3 -224.2,11.3 -33.9,-16.9 -118.6,-56.5 -133.7,-112.9 -15,-56.5 11.5,-278.4 11.5,-278.4" /><path
         id="path144"
         style="fill:#11100e;fill-opacity:1;fill-rule:nonzero;stroke:none"
         d="m 13283.6,9973 c 0,0 519.8,-111.9 855.6,-223.9 335.8,-111.9 823.6,-391.8 823.6,-391.8 l -117.5,-88.6 c 0,0 -474.2,304.5 -1561.7,704.3" /><g
         transform="scale(1.05728)"
         id="g146"><path
           id="path148"
           style="fill:#5e6263;fill-opacity:1;fill-rule:nonzero;stroke:none"
           d="m 12131,9780.86 h 3942.2 l 226.8,219.08 c 0,0 -3964.8,291.16 -4044.2,296.86 -79.4,5.6 -124.8,-515.94 -124.8,-515.94" /></g><path
         id="path150"
         style="fill:#ececec;fill-opacity:1;fill-rule:nonzero;stroke:none"
         d="m 14801.1,5512.8 c 53.9,-278.6 69.7,-473.3 69.7,-473.3 0,0 363.8,-68 379.8,43.9 16,112 16,315.9 20,327.9 4,12 171.9,40 163.9,63.9 -3.6,11.1 -27.6,59.4 -46.9,161.5 -200.8,-62.7 -425.1,-101.6 -586.5,-123.9" /><path
         id="path152"
         style="fill:#959595;fill-opacity:1;fill-rule:nonzero;stroke:none"
         d="m 13460.9,5459.3 c -156.7,13.4 -315.6,87.6 -414.7,142.6 l -172.4,-747.2 132,-120.5 455.1,-0.7 108.6,78.1 151.4,649.9 c -80,-7 -170.6,-9.9 -260,-2.2" /><g
         transform="scale(1.08303)"
         id="g154"><path
           id="path156"
           style="fill:#7e7f81;fill-opacity:1;fill-rule:nonzero;stroke:none"
           d="m 12058.5,10549 -171.7,-491.5 c 0,0 -49.7,-155.08 38.8,-192 88.6,-36.92 3986.8,-103.36 3986.8,-103.36 l 387.6,356.26 -144,83 -1328.9,11.1 -2768.6,336.5" /></g><path
         id="path158"
         style="fill:#5e6263;fill-opacity:1;fill-rule:nonzero;stroke:none"
         d="m 13179.7,11516.2 c 0,0 -283.9,-543.2 -353.9,-1175.1 0,0 -165.9,33.9 -261.8,152.8 -96,118.8 -231.9,50.9 -151.9,392.7 79.9,341.8 294.7,557.4 303.2,665.5 8.6,108.1 -67.4,260 158.5,260 225.9,0 305.9,-295.9 305.9,-295.9" /><g
         transform="scale(1.0238)"
         id="g160"><path
           id="path162"
           style="fill:#11100e;fill-opacity:1;fill-rule:nonzero;stroke:none"
           d="m 13570.4,11159.3 c 23.4,-4.5 193.3,89.2 193.3,89.2 H 16300 l -302.5,-544.7 h -2444.7 l 17.6,455.5" /></g><path
         id="path164"
         style="fill:#252323;fill-opacity:1;fill-rule:nonzero;stroke:none"
         d="m 13217.6,5332.3 c 0,-39.2 -31.7,-71 -70.9,-71 -39.2,0 -71,31.8 -71,71 0,39.2 31.8,71 71,71 39.2,0 70.9,-31.8 70.9,-71" /><path
         id="path166"
         style="fill:#b5b5b4;fill-opacity:1;fill-rule:nonzero;stroke:none"
         d="m 14564.2,9567.7 c -27.7,13.5 328.5,1390.8 328.5,1390.8 h -635.2 l -285.5,-1157.6 592.2,-233.2" /><path
         id="path168"
         style="fill:#3b3e3e;fill-opacity:1;fill-rule:nonzero;stroke:none"
         d="m 14091.2,11516.2 c -24,24 -1007.5,809.6 -1175.4,797.6 -167.9,-12 -335.8,-119.9 -395.8,-155.9 -60,-36 -317.8,-1281.4 -353.8,-1433.3 -36,-151.9 0,-229.3 0,-229.3 l 439.7,-154.2 h 219.9 c 0,0 -167.9,155.6 -167.9,395.5 0,239.9 233.9,791.6 299.9,803.6 66,12 785.6,-635.7 917.5,-581.7 132,54 215.9,557.7 215.9,557.7" /><g
         transform="scale(1.13738)"
         id="g170"><path
           id="path172"
           style="fill:#b5b5b4;fill-opacity:1;fill-rule:nonzero;stroke:none"
           d="m 14843.4,12507.7 c 0,0 1006.7,-122.3 1077,-168 70.3,-45.7 -21.1,-217.9 -126.6,-326.9 -105.4,-108.9 -1096.7,-1196.5 -1096.7,-1213.4 0,-16.9 -52.7,-414.1 -38.7,-410.6 14.1,3.6 91.5,-42.2 144.2,0 52.7,42.2 1283,1441.2 1370.9,1620.5 87.8,179.3 126.5,464 -80.9,590.5 -207.4,126.6 -1249.2,213.5 -1249.2,213.5 v -305.6" /></g><g
         transform="scale(1.03657)"
         id="g174"><path
           id="path176"
           style="fill:#b5613d;fill-opacity:1;fill-rule:nonzero;stroke:none"
           d="m 14419.8,13158 c 0,0 360.6,-15.5 511,-135 150.5,-119.6 270,-387.6 270,-387.6 l 455.2,-337.5 c 0,0 185.1,485.9 196.7,755.9 11.4,270 11.4,270 11.4,270 h 370.4 c 0,0 65.5,-624.8 50.1,-1025.9 -15.5,-401.2 -104.1,-943.6 -181.3,-1009.9 -77.1,-66.2 -412.7,-61 -551.5,0 -138.9,61.1 -540,342.6 -555.4,358 -15.5,15.5 -543.8,408.9 -543.8,408.9 0,0 -179.4,497.7 -168.8,580.5 10.6,82.9 136,522.6 136,522.6" /></g><path
         id="path178"
         style="fill:#c37140;fill-opacity:1;fill-rule:nonzero;stroke:none"
         d="m 12981.9,13987 c 0,0 -272.7,-50.7 -405.6,-248.7 -133,-198.1 -135.9,-399 -135.9,-399 0,0 -135,-284.7 -162,-608.7 -27,-323.9 245.9,-572.7 245.9,-572.7 0,0 287.9,134.9 395.8,155.9 l 367.5,-131.8 136.3,-36.1 c 0,0 497,-353.8 785.6,-491.7 288.5,-138 623.7,-174 763.6,-38 139.9,135.9 56,167.9 111.9,427.8 56,259.8 32,955.5 0,1311.3 -32,355.8 -159.9,779.6 -187.9,783.6 -28,4 -507.7,-80 -507.7,-80 0,0 -12,-459.7 -76,-711.6 -64,-251.9 -77.8,-287.9 -77.8,-287.9 l -374,96 c 0,0 -95.9,263.9 -335.8,527.7 -239.9,263.9 -543.9,303.9 -543.9,303.9" /><path
         id="path180"
         style="fill:#a45330;fill-opacity:1;fill-rule:nonzero;stroke:none"
         d="m 12650.2,12543.7 h 351.9 l 421.8,-397.8 -136.3,36.1 -321.5,261.8 -315.9,99.9" /><path
         id="path182"
         style="fill:#a45330;fill-opacity:1;fill-rule:nonzero;stroke:none"
         d="m 14235.6,13059.4 c 0,0 -94.1,-315.8 -110.1,-515.7 -16,-199.9 0,-523.7 0,-523.7 0,0 -123.9,295.8 -75.9,571.7 47.9,275.9 37.7,505.8 37.7,505.8 l 148.3,-38.1" /><path
         id="path184"
         style="fill:#b36137;fill-opacity:1;fill-rule:nonzero;stroke:none"
         d="m 12966.7,12791.1 c -243.2,0 -356.4,160.4 -356.4,160.4 155.9,-83.9 455.7,-151.9 455.7,-151.9 -35.2,-5.9 -68.3,-8.5 -99.3,-8.5" /><g
         transform="scale(1.04669)"
         id="g186"><path
           id="path188"
           style="fill:#b5613d;fill-opacity:1;fill-rule:nonzero;stroke:none"
           d="m 15492.2,13923.6 c 0,0 19.9,95.5 40,107 20.1,11.4 80.3,17.2 80.3,17.2 0,0 68.8,51.5 111.7,48.7 43,-2.9 89.8,-28.7 89.8,-28.7 0,0 113.6,31.5 159.4,11.5 45.9,-20.1 36.4,-28.7 48.3,-31.5 11.9,-2.9 91.4,-43 116.2,-54.4 24.6,-11.5 67.3,-123 67.4,-123.1 0.2,-0.1 94.7,-46 -125.8,-88.9 -220.6,-43 -298,-60.1 -386.7,-27.2 -88.9,32.9 -200.6,169.4 -200.6,169.4" /></g><path
         id="path190"
         style="fill:#b36137;fill-opacity:1;fill-rule:nonzero;stroke:none"
         d="m 13677.7,13163.4 c -75.9,199.9 -271.8,287.9 -271.8,287.9 307.8,0 271.8,-287.9 271.8,-287.9" /><g
         transform="scale(1.03902)"
         id="g192"><path
           id="path194"
           style="fill:#b5613d;fill-opacity:1;fill-rule:nonzero;stroke:none"
           d="m 15826.7,13292.3 c 0,0 -30.7,88.5 -46.1,138.6 -15.4,50 -133.8,327.3 -133.8,327.3 l 653.2,-46.4 -77,-180.9 -26.8,-238.6 c 0,0 -230.9,-219.3 -265.6,-184.6 -34.6,34.6 -103.9,184.6 -103.9,184.6" /></g><path
         id="path196"
         style="fill:#a45330;fill-opacity:1;fill-rule:nonzero;stroke:none"
         d="m 15844.1,12283.8 c 0.9,-20.4 160.5,347.9 384.4,463.8 l -117.7,87.2 c 0,0 -275.2,-351.1 -266.7,-551" /><g
         transform="scale(1.03069)"
         id="g198"><path
           id="path200"
           style="fill:#252323;fill-opacity:1;fill-rule:nonzero;stroke:none"
           d="m 14379.9,14039.6 c 8.8,5.1 340.4,16.8 340.4,16.8 0,0 203.6,-87.3 619.7,-136.7 416,-49.5 855.2,-97 855.2,-97 l 104.8,284.2 c 0,0 -209.5,-36.3 -407.3,1.7 -197.8,38 -1099.8,140.8 -1146.2,173.8 -46.6,32.9 -302.6,32.9 -302.6,32.9 l -64,-275.7" /></g><g
         transform="scale(1.03069)"
         id="g202"><path
           id="path204"
           style="fill:#b5b5b4;fill-opacity:1;fill-rule:nonzero;stroke:none"
           d="m 15892.7,14108.6 c -197.8,38 -1099.7,140.8 -1146.2,173.8 -3,2.1 -6.9,4.1 -11.6,5.9 v -237.7 c 53.5,-20.3 253.4,-89.1 605.1,-130.9 416,-49.5 855.2,-97 855.2,-97 l 104.8,284.2 c 0,0 -209.5,-36.3 -407.3,1.7" /></g><path
         id="path206"
         style="fill:#252323;fill-opacity:1;fill-rule:nonzero;stroke:none"
         d="m 13717.7,14814.6 -3,86.9 404.8,-21 c 0,0 179.9,-17.9 200.9,-65.9 21,-48 78,-78 0,-164.9 -77.9,-87 -18.4,-122.2 -106.6,-106.1 -88.3,16.1 -200.7,70.1 -200.7,70.1 l -298.4,77.9 3,123" /><path
         id="path208"
         style="fill:#a45330;fill-opacity:1;fill-rule:nonzero;stroke:none"
         d="m 15229,12755.6 c 0,0 59.9,-363.8 339.8,-495.7 0,0 -319.9,395.8 -339.8,495.7" /><path
         id="path210"
         style="fill:#a45330;fill-opacity:1;fill-rule:nonzero;stroke:none"
         d="m 15268.9,13043.5 c 0,0 279.9,116 487.8,54 l -53.7,105.9 c 0,0 -430.1,-104 -434.1,-159.9" /><path
         id="path212"
         style="fill:#c37140;fill-opacity:1;fill-rule:nonzero;stroke:none"
         d="m 14389.4,14058.9 c 0,0 -69,132 -114,165 -44.9,33 -176.9,89.9 -215.9,137.9 -38.9,48 -46.4,251.9 -46.4,251.9 h 106.4 c 0,0 91.5,51 81.7,122.9 -9.7,72 -81.7,143.9 -81.7,143.9 0,0 87,57 131.9,60 45,3 126,0 126,0 0,0 110.9,39.2 155.9,36.1 45,-3.1 79.8,-39.1 99.9,-39.1 20,0 113,15 143,3 30,-12 89.9,-54 89.9,-54 l 81,-14.9 c 0,0 48,-392.9 27,-488.8 -21,-96 -60,-296.9 -60,-296.9 l -524.7,-27" /><path
         id="path214"
         style="fill:#7d8382;fill-opacity:1;fill-rule:nonzero;stroke:none"
         d="m 13792.7,14796.6 c 0,-58 -34.9,-105 -78,-105 -43,0 -77.9,47 -77.9,105 0,58 34.9,104.9 77.9,104.9 43.1,0 78,-46.9 78,-104.9" /><g
         transform="scale(1.04136)"
         id="g216"><path
           id="path218"
           style="fill:#7d8382;fill-opacity:1;fill-rule:nonzero;stroke:none"
           d="m 16300,13827.9 c 0,-111.8 -90.7,-202.5 -202.5,-202.5 -111.9,0 -202.6,90.7 -202.6,202.5 0,111.9 90.7,202.5 202.6,202.5 111.8,0 202.5,-90.6 202.5,-202.5" /></g><g
         transform="scale(1.03628)"
         id="g220"><path
           id="path222"
           style="fill:#11100e;fill-opacity:1;fill-rule:nonzero;stroke:none"
           d="m 16300,13892.4 c 0,-64.8 -52.5,-117.3 -117.3,-117.3 -64.8,0 -117.3,52.5 -117.3,117.3 0,64.7 52.5,117.2 117.3,117.2 64.8,0 117.3,-52.5 117.3,-117.2" /></g><path
         id="path224"
         style="fill:#e28b5f;fill-opacity:1;fill-rule:nonzero;stroke:none"
         d="m 14395.9,14901.5 c 44.4,-7 105.5,19 121.5,13 16,-6 56,-20 128,-28 71.9,-8 107.9,0 121.9,-11.9 14,-12 131.9,-54 131.9,-54 0,0 13,-135 25,-279.1 12,-144.1 -10.1,-455.6 -10.1,-455.6 0,0 39,200.9 60,296.9 21,96 -27,488.8 -27,488.8 l -81,14.9 c 0,0 -59.9,42 -89.9,54 -30,12 -123,-3 -143,-3 -20.1,0 -54.9,36 -99.9,39.1 -45,3.1 -155.9,-36.1 -155.9,-36.1 0,0 -81,3 -126,0 -44.9,-3 -131.9,-60 -131.9,-60 0,0 232,28 276.4,21" /><path
         id="path226"
         style="fill:#e28b5f;fill-opacity:1;fill-rule:nonzero;stroke:none"
         d="m 14275.4,14223.9 c 45,-33 114,-165 114,-165 l 46.2,2.4 c -21.2,37.1 -95.4,165.3 -126.1,198.6 -35.9,38.9 -131.9,113.9 -194.9,152.9 -62.9,39 -76.1,189.3 -76.1,189.3 l 3.4,11.6 h -28.8 c 0,0 7.5,-203.9 46.4,-251.9 39,-48 171,-104.9 215.9,-137.9" /><path
         id="path228"
         style="fill:#e28b5f;fill-opacity:1;fill-rule:nonzero;stroke:none"
         d="m 14439.3,14067.6 c -30.7,-5.3 -49.9,-8.7 -49.9,-8.7 0,0 -12,-459.7 -76,-711.6 -64,-251.9 -77.8,-287.9 -77.8,-287.9 164.7,317.6 200,1001.9 200,1001.9 0,0 1.3,2.3 3.7,6.3" /><path
         id="path230"
         style="fill:#a45330;fill-opacity:1;fill-rule:nonzero;stroke:none"
         d="m 14137.1,13024.5 -400.3,112.3 63,26.6 -84.5,272.2 c 0,0 82.2,-116.3 146.3,-280.2 l 275.5,-70.7 v -60.2" /><path
         id="path232"
         style="fill:#df9866;fill-opacity:1;fill-rule:nonzero;stroke:none"
         d="m 5797.47,11980 h -704.15 v 751.2 h 704.15 V 11980" /><path
         id="path234"
         style="fill:#48484a;fill-opacity:1;fill-rule:nonzero;stroke:none"
         d="m 7030.85,6558.7 c 0,0 95.26,-48 273.52,-303.8 178.25,-255.9 238.22,-591.7 238.22,-591.7 l -335.83,-26.5 c 0,0 -521.74,238.3 -533.73,428.3 -11.99,189.9 357.82,493.7 357.82,493.7" /><path
         id="path236"
         style="fill:#252323;fill-opacity:1;fill-rule:nonzero;stroke:none"
         d="m 6990.87,5601.9 215.89,34.8 c 0,0 -4,296.1 -175.91,371.2 -171.91,75 -39.98,-406 -39.98,-406" /><path
         id="path238"
         style="fill:#7e7f81;fill-opacity:1;fill-rule:nonzero;stroke:none"
         d="m 5719.51,13203.4 h -319.85 v 1231.4 h 319.85 v -1231.4" /><path
         id="path240"
         style="fill:#b5b5b4;fill-opacity:1;fill-rule:nonzero;stroke:none"
         d="m 5434.65,13136.8 h -682.66 v 1298 h 682.66 v -1298" /><path
         id="path242"
         style="fill:#7e7f81;fill-opacity:1;fill-rule:nonzero;stroke:none"
         d="m 3263.6,13059.4 h -286.72 v 1319.4 h 286.72 v -1319.4" /><path
         id="path244"
         style="fill:#7e7f81;fill-opacity:1;fill-rule:nonzero;stroke:none"
         d="m 6719,6254.9 311.85,303.8 v 4117.9 l -663.67,-103.9 105.61,-4317.8 H 6719" /><path
         id="path246"
         style="fill:#7e7f81;fill-opacity:1;fill-rule:nonzero;stroke:none"
         d="m 2705.01,13147.4 v 1535.2 c 0,0 331.08,919.6 987.51,1055.5 656.43,135.9 1643.18,343.8 2314.84,0 671.66,-343.8 735.63,-711.6 887.56,-1367.3 151.92,-655.7 467.6,-3317.9 467.6,-3317.9 0,0 -379.79,-178.3 -479.6,-136.4 -99.8,42 -215.89,143.9 -263.86,203.9 -47.98,60 -23.99,1535.3 -23.99,1535.3 0,0 -263.87,2254.8 -335.83,2446.7 -71.97,191.9 -235.89,499.8 -763.62,579.7 -527.74,80 -1445.28,-135.9 -1970.02,-391.8 -524.74,-255.8 -508.36,-1009.3 -508.74,-1552 -0.38,-542.7 31.98,-1102.6 31.98,-1102.6 l -301.24,-21.5 -42.59,533.2" /><path
         id="path248"
         style="fill:#5e6263;fill-opacity:1;fill-rule:nonzero;stroke:none"
         d="m 7030.85,6558.7 v -887.6 c 0,0 -18.85,-167.9 -121.37,-199.9 -102.52,-31.9 -374.38,0 -374.38,0 l -207.9,44 c 0,0 -159.92,116 -111.94,459.8 47.97,343.8 167.91,495.7 167.91,495.7 0,0 463.77,8 647.68,88" /><path
         id="path250"
         style="fill:#505556;fill-opacity:1;fill-rule:nonzero;stroke:none"
         d="M 6071.33,14470.4 H 3152.79 c 271.86,803.3 1079.46,850.4 1079.46,850.4 0,0 1063.9,364.3 1487.26,0 423.35,-364.4 351.82,-850.4 351.82,-850.4 z m -384.81,1168.7 c -782.6,171 -2149.92,-127.9 -2597.7,-682.1 0,0 -231.88,-346.3 -247.87,-682.2 l 3590.2,40 c 0,0 37.98,1153.4 -744.63,1324.3" /><path
         id="path252"
         style="fill:#7e7f81;fill-opacity:1;fill-rule:nonzero;stroke:none"
         d="m 2145.29,8373.8 527.74,-943.5 -175.91,-1255.4 567.71,-143.9 287.86,-207.9 h 255.87 c 0,0 623.69,1940.2 559.72,2085.5 -63.97,145.4 -515.6,656.2 -877.49,632.7 -361.89,-23.6 -1145.5,-167.5 -1145.5,-167.5" /><path
         id="path254"
         style="fill:#959595;fill-opacity:1;fill-rule:nonzero;stroke:none"
         d="m 2924.9,8157.9 35.98,-335.8 263.87,-173.9 -485.76,-2147 h 137.94 l 221.89,321.9 641.67,2472.7 -815.59,-137.9" /><path
         id="path256"
         style="fill:#5e6263;fill-opacity:1;fill-rule:nonzero;stroke:none"
         d="m 3577.42,8009.6 c 0,0 -71.82,-483.8 -47.33,-524.6 24.5,-40.7 120.45,-190.7 120.45,-190.7 l -62.77,-431.8 c 0,0 212.69,-197.9 224.69,-179.9 11.99,18 350.04,652.4 360.43,833.6 10.38,181.2 111.85,402.1 -97.3,530.9 -209.16,128.8 -498.17,-37.5 -498.17,-37.5" /><path
         id="path258"
         style="fill:#b5b5b4;fill-opacity:1;fill-rule:nonzero;stroke:none"
         d="m 3920.41,7636.2 -641.68,-2781.5 131.93,-120.5 455.13,-0.7 108.59,78.1 857.57,3681.1 -911.54,-856.5" /><path
         id="path260"
         style="fill:#7e7f81;fill-opacity:1;fill-rule:nonzero;stroke:none"
         d="m 1497.62,8489.7 163.91,-115.9 387.81,58 c 0,0 -79.96,157.9 -135.93,177.9 -55.97,20 -415.79,-120 -415.79,-120" /><path
         id="path262"
         style="fill:#959595;fill-opacity:1;fill-rule:nonzero;stroke:none"
         d="m 1633.55,8629.7 c 0,0 -439.78,-52 -427.79,-80 11.99,-28 211.9,-97.6 231.89,-96.8 19.99,0.8 427.78,24.8 427.78,24.8 l -231.88,152" /><path
         id="path264"
         style="fill:#b5b5b4;fill-opacity:1;fill-rule:nonzero;stroke:none"
         d="m 1313.71,9413.3 -251.87,-24 -107.953,-443.8 c 0,0 -7.992,-127.9 83.963,-187.9 91.95,-60 2094.95,-831.6 2306.84,-847.6 211.9,-16 395.8,108 395.8,120 0,12 -815.59,923.4 -931.53,1039.4 -115.94,116 -1495.25,343.9 -1495.25,343.9" /><path
         id="path266"
         style="fill:#505556;fill-opacity:1;fill-rule:nonzero;stroke:none"
         d="m 2385.17,9609.6 c 0,0 -1315.34,-188.3 -1323.33,-220.3 -8,-32 1543.22,-583.7 1543.22,-583.7 l -219.89,804" /><path
         id="path268"
         style="fill:#11100e;fill-opacity:1;fill-rule:nonzero;stroke:none"
         d="m 3961.06,7566.2 c 0,0 583.03,295.9 750.95,655.7 167.92,359.8 -791.6,191.9 -791.6,191.9 l 40.65,-847.6" /><path
         id="path270"
         style="fill:#11100e;fill-opacity:1;fill-rule:nonzero;stroke:none"
         d="m 6070.66,5117.3 c 0,0 150.52,49.4 158.71,163.6 8.19,114.2 -29.66,125 11.67,147 41.32,21.9 250.12,87.6 307.77,79.5 57.65,-8.1 230.47,-318.9 280.62,-388.5 50.15,-69.7 373.15,-242.4 466.29,-302 93.15,-59.6 341.33,-73.2 399.4,-141.7 58.07,-68.6 111.91,-250.8 0.91,-322.9 -111,-72.1 -594.15,-196.4 -625.2,-176.6 -31.05,19.9 -398.14,-39.7 -643.96,244.7 -245.83,284.5 -356.21,696.9 -356.21,696.9" /><path
         id="path272"
         style="fill:#b5b5b4;fill-opacity:1;fill-rule:nonzero;stroke:none"
         d="m 6121.3,9069.4 h -209.89 v 1271.7 H 6121.3 V 9069.4" /><path
         id="path274"
         style="fill:#7e7f81;fill-opacity:1;fill-rule:nonzero;stroke:none"
         d="m 6121.3,9015.5 h 137.94 v 1355.3 H 6121.3 V 9015.5" /><path
         id="path276"
         style="fill:#b5b5b4;fill-opacity:1;fill-rule:nonzero;stroke:none"
         d="m 6469.13,9069.4 h -209.89 v 1271.7 h 209.89 V 9069.4" /><path
         id="path278"
         style="fill:#5e6263;fill-opacity:1;fill-rule:nonzero;stroke:none"
         d="m 6469.13,9015.5 h 137.93 v 1355.3 H 6469.13 V 9015.5" /><path
         id="path280"
         style="fill:#b5613d;fill-opacity:1;fill-rule:nonzero;stroke:none"
         d="m 6119.31,9581.2 c 0,0 431.78,-303.9 575.71,-583.7 143.93,-279.9 71.96,-807.6 55.97,-951.5 -15.99,-144 -39.98,-583.8 -183.91,-1207.4 -143.93,-623.7 -151.92,-1510.7 -151.92,-1510.7 0,0 -47.98,-256.5 -223.89,-272.5 -175.91,-15.9 -383.81,-367.8 -535.73,28 -151.93,395.8 -223.89,355.9 -247.88,955.6 -23.99,599.7 -47.98,2398.8 -39.98,2758.6 8,359.8 -31.98,719.6 87.95,783.6 119.95,64 663.68,0 663.68,0" /><path
         id="path282"
         style="fill:#cfcecd;fill-opacity:1;fill-rule:nonzero;stroke:none"
         d="m 5429.47,5735.8 c 36,-298.7 106.08,-339.8 226.07,-652.4 151.92,-395.8 359.82,-43.9 535.73,-28 175.91,16 223.89,272.5 223.89,272.5 0,0 2.11,232.4 23.45,542.9 -311.86,-51.8 -707.94,-100.7 -1009.14,-135" /><path
         id="path284"
         style="fill:#252323;fill-opacity:1;fill-rule:nonzero;stroke:none"
         d="m 5287.72,5563.2 c 0,0 -231.89,-111.9 -231.89,-175.9 0,-64 -119.93,-963.5 -63.96,-1075.5 55.97,-111.9 611.69,-127.9 727.64,-187.9 115.94,-60 611.69,-299.8 1167.41,-199.9 555.72,100 411.8,419.8 367.82,463.8 -43.98,44 -255.87,103.9 -367.82,187.9 -111.94,83.9 -603.7,652.7 -687.65,752.2 -83.96,99.4 -91.96,155.3 -147.93,171.3 -55.97,16 -211.9,-24 -211.9,-24 0,0 -174.65,76 -227.88,88 -53.24,12 -323.84,0 -323.84,0" /><path
         id="path286"
         style="fill:#c37140;fill-opacity:1;fill-rule:nonzero;stroke:none"
         d="m 4218.34,8132.5 c 0,0 417.7,49.4 581.63,65.4 163.91,16 223.88,-72 163.91,-267.9 -59.97,-195.9 -195.9,-587.7 -155.92,-899.5 39.98,-311.9 223.89,-791.6 331.83,-1219.4 107.95,-427.8 135.94,-771.6 135.94,-771.6 0,0 363.82,-68 379.81,43.9 15.99,112 15.99,315.9 19.99,327.9 4,12 171.91,40 163.92,63.9 -8,24 -111.95,223.9 -55.98,771.7 55.98,547.7 103.95,1607.2 103.95,1619.1 0,12 107.95,775.7 23.99,1003.6 -83.96,227.8 -319.84,375.8 -319.84,375.8 l -223.89,111.9 c 0,0 -687.66,-91.9 -743.63,-199.9 -55.97,-107.9 -67.96,-131.9 -135.93,-403.8 -67.96,-271.9 -291.68,-514.5 -269.78,-621.1" /><path
         id="path288"
         style="fill:#252323;fill-opacity:1;fill-rule:nonzero;stroke:none"
         d="m 2385.17,10572.7 -95.95,-167.9 c 0,0 -327.83,-351.9 -183.91,-911.6 143.93,-559.7 303.85,-695.6 823.59,-975.5 519.74,-279.8 783.61,-655.6 863.57,-807.6 79.96,-151.9 168.59,-143.9 168.59,-143.9 0,0 127.26,455.8 383.13,727.6 255.87,271.9 215.89,463.8 519.74,687.7 303.85,223.9 503.75,375.8 503.75,375.8 l 223.89,-111.9 c 0,0 119.94,215.8 215.89,247.8 95.95,32 311.85,88 311.85,88 0,0 -447.78,279.9 -639.69,351.8 -191.9,72 -943.52,407.8 -975.51,415.8 -31.98,8 -991.5,223.9 -991.5,223.9 H 2385.17" /><path
         id="path290"
         style="fill:#7e7f81;fill-opacity:1;fill-rule:nonzero;stroke:none"
         d="m 7030.85,8295.8 2292.85,3340.4 -2540.58,64.7 c 0,0 -582.13,-390.5 -642.44,-702.1 -60.31,-311.7 890.17,-2703 890.17,-2703" /><path
         id="path292"
         style="fill:#b5b5b4;fill-opacity:1;fill-rule:nonzero;stroke:none"
         d="m 6121.3,9783.1 v 558 h -209.89 v -558 h 209.89" /><path
         id="path294"
         style="fill:#7e7f81;fill-opacity:1;fill-rule:nonzero;stroke:none"
         d="m 6259.23,9783.1 v 587.7 H 6121.3 v -587.7 h 137.93" /><path
         id="path296"
         style="fill:#b5b5b4;fill-opacity:1;fill-rule:nonzero;stroke:none"
         d="m 6259.23,10341.1 v -791.9 h 209.9 v 791.9 h -209.9" /><path
         id="path298"
         style="fill:#5e6263;fill-opacity:1;fill-rule:nonzero;stroke:none"
         d="m 6607.06,9435.4 v 935.4 h -137.93 v -947.5 l 137.93,12.1" /><path
         id="path300"
         style="fill:#b5b5b4;fill-opacity:1;fill-rule:nonzero;stroke:none"
         d="m 7959.38,9417.3 c 50.98,-15 98.95,-151.8 98.95,-151.8 0,0 284.86,282.4 305.85,732.8 20.99,450.5 -239.88,1013.7 -239.88,1013.7 l -393.48,-101.9 c 0,0 207.57,-345.6 237.56,-718.3 29.98,-372.7 -161.92,-559.9 -161.92,-559.9 l 152.92,-214.6" /><path
         id="path302"
         style="fill:#ccccc9;fill-opacity:1;fill-rule:nonzero;stroke:none"
         d="m 7638.54,11548.2 c -23.98,32 -127.93,1071.5 287.86,1511.2 415.79,439.8 1247.38,279.9 1447.28,-399.7 199.9,-679.7 -49.98,-1023.5 -49.98,-1023.5 0,0 -285.85,-431.8 -685.65,-559.8 -399.8,-127.9 -999.51,471.8 -999.51,471.8" /><path
         id="path304"
         style="fill:#6e6f71;fill-opacity:1;fill-rule:nonzero;stroke:none"
         d="m 9373.68,12659.7 c -199.9,679.6 -1031.48,839.5 -1447.28,399.7 -68.65,-72.6 -123.07,-161.6 -166.08,-259.7 h 0.14 c 0,0 335.36,406.9 885.95,299.6 550.44,-107.3 758.18,-1071.6 614.87,-1547.2 40.34,50.8 62.43,84.1 62.43,84.1 0,0 249.87,343.8 49.97,1023.5" /><path
         id="path306"
         style="fill:#7e7f81;fill-opacity:1;fill-rule:nonzero;stroke:none"
         d="m 7486.62,12363.8 h 747.63 c 0,0 167.91,-39.6 183.9,-185.7 16,-146.1 -139.92,-274.1 -139.92,-274.1 0,0 -775.59,-76.4 -791.61,-51.9 -16.02,24.4 -83.95,35.9 -67.96,127.9 15.99,91.9 67.96,383.8 67.96,383.8" /><path
         id="path308"
         style="fill:#959595;fill-opacity:1;fill-rule:nonzero;stroke:none"
         d="m 7506.61,12224 -19.99,139.8 h 151.92 c 0,0 84.59,-71.5 92.28,-185.7 7.68,-114.2 -76.28,-298.1 -76.28,-298.1 0,0 -10.64,12 -87.28,76 -76.64,64 -60.65,268 -60.65,268" /><path
         id="path310"
         style="fill:#b5b5b4;fill-opacity:1;fill-rule:nonzero;stroke:none"
         d="m 6445.25,8971.5 c 0,0 1577.1,286.2 1613.08,294 35.99,7.8 9,202.7 -29.98,259.7 -38.98,57 -206.89,188.9 -215.89,167.9 -9,-21 -395.8,-119.9 -395.8,-119.9 l -545.73,-66 c 0,0 -344.83,-137.9 -350.83,-149.9 -5.99,-12 -74.85,-385.8 -74.85,-385.8" /><path
         id="path312"
         style="fill:#959595;fill-opacity:1;fill-rule:nonzero;stroke:none"
         d="m 7241.32,12034.8 c 0,0 -178.49,409 -148.5,433 29.98,23.9 285.86,75.9 345.83,75.9 59.97,0 215.89,-663.7 215.89,-663.7 0,0 -260.2,-7.9 -292.02,0 -31.82,8 -121.2,154.8 -121.2,154.8" /><path
         id="path314"
         style="fill:#7e7f81;fill-opacity:1;fill-rule:nonzero;stroke:none"
         d="m 7310.77,12178.1 c 0,-44.5 -36.1,-80.6 -80.64,-80.6 -44.54,0 -80.64,36.1 -80.64,80.6 0,44.5 36.1,80.7 80.64,80.7 44.54,0 80.64,-36.2 80.64,-80.7" /><path
         id="path316"
         style="fill:#505556;fill-opacity:1;fill-rule:nonzero;stroke:none"
         d="m 3320.7,12313.8 2216.26,130 1555.86,-927.6 h -2596.7 l -1175.42,797.6" /><path
         id="path318"
         style="fill:#c37140;fill-opacity:1;fill-rule:nonzero;stroke:none"
         d="m 5463.63,12483.7 c 0,0 135.94,-211.8 463.77,-439.7 327.84,-227.9 587.71,-303.7 587.71,-303.7 0,0 327.51,-352 847.41,-579.9 519.9,-227.9 1191.57,-527.7 1199.56,-483.8 8,44 223.89,322.2 223.89,322.2 0,0 -811.59,661.4 -983.5,817.3 -171.92,155.9 -651.68,280.1 -771.62,407.9 -119.94,127.8 -163.92,371.7 -423.79,551.6 -259.87,179.9 -462.51,307.8 -469.14,331.8 -6.62,24 -82.58,287.9 -222.51,395.8 -139.93,108 -599.7,116 -639.68,124 -39.98,8 -241.97,111.1 -241.97,111.1 0,0 -1.91,-391 38.07,-463 39.98,-71.9 391.8,-791.6 391.8,-791.6" /><path
         id="path320"
         style="fill:#a45330;fill-opacity:1;fill-rule:nonzero;stroke:none"
         d="m 5959.38,13039.5 c 0,0 -91.95,-60 -239.87,-259.9 -147.93,-199.9 -195.27,-375.3 -195.27,-375.3 l -124.58,175.4 136.26,235 c 0,0 189.17,205.5 423.46,224.8" /><path
         id="path322"
         style="fill:#a45330;fill-opacity:1;fill-rule:nonzero;stroke:none"
         d="m 5887.42,12671.7 c 0,0 267.87,-279.6 391.8,-447.7 0,0 -197.29,376.9 -391.8,447.7" /><path
         id="path324"
         style="fill:#e9eef1;fill-opacity:1;fill-rule:nonzero;stroke:none"
         d="m 3692.52,14058.9 -310.03,-71.9 -673.02,-1455.3 c 0,0 -236.34,-471.8 -228.35,-767.6 8,-295.8 -95.95,-1191.4 -95.95,-1191.4 0,0 471.77,-215.9 1071.47,-351.8 599.7,-136 871.56,-88 1079.46,0 0,0 487.75,1767.1 511.74,1791.1 23.99,24 399.8,431.8 415.79,471.7 15.99,40 111.95,335.9 55.97,479.8 -55.97,143.9 -543.72,1007.5 -543.72,1007.5 l -1283.36,87.9" /><path
         id="path326"
         style="fill:#505556;fill-opacity:1;fill-rule:nonzero;stroke:none"
         d="m 5797.47,11980 -326.5,459.9 -2150.27,-126.1 1175.42,-797.6 h 1671.16 l -369.81,463.8" /><path
         id="path328"
         style="fill:#c37140;fill-opacity:1;fill-rule:nonzero;stroke:none"
         d="m 4118.31,14814.6 c 0,0 -47.98,-485.8 -143.93,-593.7 -95.95,-108 -281.86,-162 -281.86,-162 0,0 437.78,-305.8 605.7,-575.7 167.91,-269.8 221.88,-485.7 221.88,-485.7 l 353.83,-197.9 c 0,0 263.87,203.9 275.86,329.8 11.99,126 -173.91,725.7 -173.91,725.7 0,0 -473.77,1001.5 -557.73,1079.4 -83.95,78 -123.23,126.4 -139.31,91.2 -16.08,-35.2 -160.53,-211.1 -160.53,-211.1" /><path
         id="path330"
         style="fill:#a45330;fill-opacity:1;fill-rule:nonzero;stroke:none"
         d="m 4415.16,14570.7 c 0,0 -14.99,-475.8 50.97,-619.7 65.97,-143.9 317.84,-212.7 317.84,-212.7 l -47.97,-207.1 239.88,275.9 c 0,0 -200.19,463.5 -240.82,545.2 -40.62,81.7 -319.9,218.4 -319.9,218.4" /><path
         id="path332"
         style="fill:#34231f;fill-opacity:1;fill-rule:nonzero;stroke:none"
         d="m 5955.25,15273.9 c -20.66,73.6 -23.93,101.4 -23.93,101.4 0,0 25.13,94.2 0.09,148.3 -25.05,54.1 -83.5,95.1 -83.5,95.1 0,0 -29.18,107.6 -95.61,166.5 -66.43,58.8 -88.3,59.8 -88.3,59.8 0,0 -69.92,78.8 -137.32,115.7 -67.4,37 -135.78,52.1 -135.78,52.1 0,0 -70.9,56.9 -175.58,93.3 -104.69,36.5 -148.18,19.8 -148.18,19.8 0,0 -111.22,48.4 -197.7,45.3 -86.47,-3 -156.75,-79.9 -156.75,-79.9 0,0 -161.87,-4 -250.62,-120.5 v 0 c -47.75,-26.8 -98.5,-68.1 -147.87,-130.8 -56.08,-59.9 -108.81,-144.1 -141.92,-262.5 -7.02,-25.1 -13.3,-50.3 -18.96,-75.6 -87.74,-332.4 -35.01,-687.3 -35.01,-687.3 0,0 174.15,-46.9 279.88,-14.3 4,1.2 8.04,2.6 12.08,4 -2.25,-38.6 -4.11,-72.6 -4.11,-79.7 0,-18 65.97,-209.9 287.86,-179.9 221.89,30 407.8,66 455.77,78 47.97,12 569.72,411.8 569.72,411.8 0,0 66.36,8.5 123.38,42.1 0.01,0.1 150.45,61.7 112.36,197.3" /><path
         id="path334"
         style="fill:#c37140;fill-opacity:1;fill-rule:nonzero;stroke:none"
         d="m 4598.07,14868.5 c 0,0 -33.99,233.9 -173.91,245.9 -139.94,12 -191.91,-163.9 -191.91,-299.8 0,-136 182.91,-243.9 182.91,-243.9 0,0 -7,-227.9 68.96,-431.8 75.96,-203.9 531.73,-415.8 615.69,-399.8 83.96,16 267.87,383.8 267.87,383.8 0,0 90.96,-25 120.94,-13 29.98,12 26.99,147 29.98,263.9 3,116.9 86.96,170.9 137.94,263.9 50.97,92.9 62.97,396.8 62.97,396.8 0,0 -451.78,163.9 -507.75,167.9 -55.97,4 -227.89,-52 -279.86,-80 -51.97,-28 -107.94,-207.9 -151.92,-247.8 -43.98,-40 -243.88,-164 -243.88,-164 l 61.97,157.9" /><path
         id="path336"
         style="fill:#11100e;fill-opacity:1;fill-rule:nonzero;stroke:none"
         d="m 3688.52,9973 c 0,0 519.74,-111.9 855.57,-223.9 335.84,-111.9 823.59,-391.8 823.59,-391.8 l -117.47,-88.6 c 0,0 -474.23,304.5 -1561.69,704.3" /><path
         id="path338"
         style="fill:#5e6263;fill-opacity:1;fill-rule:nonzero;stroke:none"
         d="m 3230.75,10341.1 h 4167.92 l 239.87,231.6 c 0,0 -4191.9,307.8 -4275.85,313.8 -83.96,6 -131.94,-545.4 -131.94,-545.4" /><path
         id="path340"
         style="fill:#ececec;fill-opacity:1;fill-rule:nonzero;stroke:none"
         d="m 5206.04,5512.8 c 53.83,-278.6 69.69,-473.3 69.69,-473.3 0,0 363.82,-68 379.81,43.9 15.99,112 15.99,315.9 19.99,327.9 4,12 171.91,40 163.91,63.9 -3.67,11.1 -27.6,59.4 -46.97,161.5 -200.8,-62.7 -425.02,-101.6 -586.43,-123.9" /><path
         id="path342"
         style="fill:#959595;fill-opacity:1;fill-rule:nonzero;stroke:none"
         d="m 3865.79,5459.3 c -156.65,13.4 -315.6,87.6 -414.69,142.6 l -172.37,-747.2 131.93,-120.5 455.13,-0.7 108.59,78.1 151.41,649.9 c -79.94,-7 -170.54,-9.9 -260,-2.2" /><path
         id="path344"
         style="fill:#7e7f81;fill-opacity:1;fill-rule:nonzero;stroke:none"
         d="m 3464.63,11424.8 -185.9,-532.3 c 0,0 -53.98,-167.9 41.97,-207.9 95.96,-39.9 4317.84,-111.9 4317.84,-111.9 l 419.79,385.8 -155.92,90 -1439.28,11.9 -2998.5,364.4" /><path
         id="path346"
         style="fill:#5e6263;fill-opacity:1;fill-rule:nonzero;stroke:none"
         d="m 3584.58,11516.2 c 0,0 -283.87,-543.2 -353.83,-1175.1 0,0 -165.92,33.9 -261.87,152.8 -95.95,118.8 -231.88,50.9 -151.92,392.7 79.96,341.8 294.71,557.4 303.28,665.5 8.56,108.1 -67.4,260 158.49,260 225.88,0 305.85,-295.9 305.85,-295.9" /><path
         id="path348"
         style="fill:#11100e;fill-opacity:1;fill-rule:nonzero;stroke:none"
         d="m 4298.22,11424.8 c 23.98,-4.5 197.9,91.4 197.9,91.4 h 2596.7 l -309.7,-557.7 h -2502.9 l 18,466.3" /><path
         id="path350"
         style="fill:#252323;fill-opacity:1;fill-rule:nonzero;stroke:none"
         d="m 3622.55,5332.3 c 0,-39.2 -31.77,-71 -70.96,-71 -39.19,0 -70.96,31.8 -70.96,71 0,39.2 31.77,71 70.96,71 39.19,0 70.96,-31.8 70.96,-71" /><path
         id="path352"
         style="fill:#b5b5b4;fill-opacity:1;fill-rule:nonzero;stroke:none"
         d="m 4969.1,9567.7 c -27.65,13.5 328.54,1390.8 328.54,1390.8 H 4662.39 L 4376.86,9800.9 4969.1,9567.7" /><path
         id="path354"
         style="fill:#3b3e3e;fill-opacity:1;fill-rule:nonzero;stroke:none"
         d="m 4496.12,11516.2 c -23.99,24 -1007.5,809.6 -1175.42,797.6 -167.91,-12 -335.83,-119.9 -395.8,-155.9 -59.97,-36 -317.84,-1281.4 -353.82,-1433.3 -35.98,-151.9 0,-229.3 0,-229.3 l 439.73,-154.2 h 219.94 c 0,0 -167.92,155.6 -167.92,395.5 0,239.9 233.89,791.6 299.86,803.6 65.96,12 785.6,-635.7 917.53,-581.7 131.94,54 215.9,557.7 215.9,557.7" /><path
         id="path356"
         style="fill:#c37140;fill-opacity:1;fill-rule:nonzero;stroke:none"
         d="m 3382.49,13987 c 0,0 -229.7,-73.7 -365.63,-248.7 -135.94,-175.1 -175.91,-431 -175.91,-431 0,0 -103.95,-211.9 -151.93,-507.7 -47.98,-295.9 235.88,-641.7 235.88,-641.7 0,0 273.51,197.9 395.8,155.9 122.3,-41.9 531.1,-245.9 640.36,-257.9 0,0 223.21,-149.9 505.07,-263.8 281.86,-114 521.74,-459.2 1001.5,-793.3 479.76,-334.1 1031.49,-538 1031.49,-538 l 257.87,281.8 c 0,0 -399.23,425.8 -682.38,773.6 -283.14,347.9 -674.95,463.8 -674.95,463.8 0,0 -55.97,307.8 -347.82,623.7 -291.85,315.8 -771.62,533.1 -771.62,533.1 0,0 -492.12,868.2 -897.73,850.2" /><path
         id="path358"
         style="fill:#a45330;fill-opacity:1;fill-rule:nonzero;stroke:none"
         d="m 3120.24,12567.7 c 0,0 426.35,-12 405.36,-16 -20.99,-4 200.26,-319.8 435.46,-495.8 0,0 -132.26,11.6 -246.38,87.8 l -250.05,300.1 -344.39,123.9" /><path
         id="path360"
         style="fill:#a45330;fill-opacity:1;fill-rule:nonzero;stroke:none"
         d="m 4643.04,11980 c 0,0 137.94,-181.1 320.84,-237 0,0 -305.84,-45.9 -320.84,237" /><path
         id="path362"
         style="fill:#252323;fill-opacity:1;fill-rule:nonzero;stroke:none"
         d="m 6586.07,9381.3 c 0,0 73.26,-138.2 197.05,-112.6 123.79,25.6 693.51,729.6 693.51,729.6 L 7138.37,9960 c 0,0 -398.37,-479.8 -439.36,-497.8 -40.97,-17.9 -160.91,-41.9 -160.91,-41.9 l 47.97,-39" /><path
         id="path364"
         style="fill:#a45330;fill-opacity:1;fill-rule:nonzero;stroke:none"
         d="m 5399.66,11980 -327.83,171.9 297.41,-65.5 z" /><path
         id="path366"
         style="fill:#c37140;fill-opacity:1;fill-rule:nonzero;stroke:none"
         d="m 6499.12,10460.8 c 0,0 141.92,-92 227.88,-187.9 85.96,-96 267.87,-317.9 355.82,-343.9 87.96,-26 263.87,-24 327.84,0 63.97,24 235.88,153.9 259.87,269.9 23.99,115.9 -43.98,165.5 -43.98,165.5 0,0 25.99,14.4 19.99,72.4 -5.99,57.9 -349.82,321.8 -503.75,369.8 -153.92,48 -385.8,-64 -385.8,-64 0,0 -83.96,-28 -109.95,-54 -25.99,-25.9 -147.92,-227.8 -147.92,-227.8" /><path
         id="path368"
         style="fill:#252323;fill-opacity:1;fill-rule:nonzero;stroke:none"
         d="m 7016.86,10394.8 c -13.99,0 -128.15,-14.4 -128.15,-14.4 0,0 140.14,-167.5 288.07,-189.5 147.92,-22 277.51,203.9 277.51,203.9 0,0 -252.4,186.4 -406.86,209.5 -154.46,23.1 -30.57,-209.5 -30.57,-209.5" /><path
         id="path370"
         style="fill:#a45330;fill-opacity:1;fill-rule:nonzero;stroke:none"
         d="m 7454.29,10394.8 c 0,0 92.3,-40.8 172.26,-30.4 0,0 -19.99,-26.4 -101.95,-34 -81.96,-7.6 -161.55,-57.8 -157.39,-49.8 4.16,8 87.08,114.2 87.08,114.2" /><path
         id="path372"
         style="fill:#c37140;fill-opacity:1;fill-rule:nonzero;stroke:none"
         d="m 8562.08,10676.6 99.9,-171.7 c 0,0 559.77,-11.9 575.76,0 16,11.8 251.88,94.3 375.82,101 123.94,6.8 359.82,30.8 335.83,186.7 -23.99,155.9 -159.92,56.1 -307.85,94 -147.92,37.9 -251.87,82.5 -339.83,112.2 -87.95,29.7 -591.7,0 -591.7,0 l -215.89,-243 67.96,-79.2" /><path
         id="path374"
         style="fill:#b5613d;fill-opacity:1;fill-rule:nonzero;stroke:none"
         d="m 8851.93,10310.4 c 0,0 87.96,-122.5 184.92,-118.5 96.95,4 208.89,50.5 224.88,59.2 15.99,8.8 89.96,1.8 128.94,21.8 38.98,19.9 55.97,44.9 55.97,44.9 0,0 50.98,-2 81.96,20 30.98,22 30.98,22 30.98,22 0,0 79.97,5 90.96,49 10.99,44 -10.99,182.9 -38.98,246.9 -27.99,63.9 -77.96,103.9 -101.95,113.9 -23.99,10 -59.97,-5 -59.97,-5 0,0 -14,35 -68.97,31 -54.97,-4 -78.96,-34 -78.96,-34 0,0 -23.99,16 -66.96,13 -42.98,-3 -51.98,-64 -51.98,-64 l -53.97,-60.9 -41.98,-43.8 c 0,0 -11.64,-47.2 -8.5,-112 3.14,-64.9 8.5,-151.6 8.5,-151.6 l -206.89,-11.9 -28,-20" /><path
         id="path376"
         style="fill:#252323;fill-opacity:1;fill-rule:nonzero;stroke:none"
         d="m 7416.66,9573.2 c 0,0 155.92,-197.9 155.92,-185.9 0,12 1307.35,943.1 1307.35,943.1 0,0 206.89,-10.6 206.89,11.9 0,22.5 -20.99,249.9 0,263.6 20.99,13.8 41.98,43.8 41.98,43.8 0,0 -230.88,-60 -389.81,-111 -158.92,-51 -1004.49,-575.7 -1322.33,-965.5" /><path
         id="path378"
         style="fill:#a45330;fill-opacity:1;fill-rule:nonzero;stroke:none"
         d="m 9268.23,10318.3 c 0,0 14.99,157.4 -23.99,250.4 -38.98,92.9 -104.7,93.1 -93.4,105.9 11.31,12.7 31.93,36 31.93,36 0,0 64.47,-35.5 106.45,-116.4 41.98,-81 -20.99,-275.9 -20.99,-275.9" /><path
         id="path380"
         style="fill:#a45330;fill-opacity:1;fill-rule:nonzero;stroke:none"
         d="m 9301.71,10761.6 c 0,0 68.47,-80.5 93.96,-149.4 25.48,-69 71.96,-271.4 71.96,-271.4 0,0 -7.49,215.9 -32.98,293.9 -25.49,77.9 -94.51,152 -94.51,152 l -38.43,-25.1" /><path
         id="path382"
         style="fill:#a45330;fill-opacity:1;fill-rule:nonzero;stroke:none"
         d="m 9449.64,10764.6 c 0,0 50.98,-85 77.96,-152.4 26.99,-67.5 58.47,-175.4 58.47,-175.4 0,0 -10.49,145.4 -31.48,203.9 -20.99,58.4 -63.12,132.2 -63.12,132.2 l -41.83,-8.3" /><path
         id="path384"
         style="fill:#5e6263;fill-opacity:1;fill-rule:nonzero;stroke:none"
         d="m 6657.04,9219.4 c 0,-136.9 -94.82,-247.9 -211.79,-247.9 -116.96,0 -211.78,111 -211.78,247.9 0,136.9 94.82,247.8 211.78,247.8 116.97,0 211.79,-110.9 211.79,-247.8" /><path
         id="path386"
         style="fill:#11100e;fill-opacity:1;fill-rule:nonzero;stroke:none"
         d="m 6549.09,9223.4 c 0,-74 -50.12,-134 -111.94,-134 -61.83,0 -111.94,60 -111.94,134 0,73.9 50.11,133.9 111.94,133.9 61.82,0 111.94,-60 111.94,-133.9" /><path
         id="path388"
         style="fill:#7d8382;fill-opacity:1;fill-rule:nonzero;stroke:none"
         d="m 7138.37,10472.1 c 0,-78.3 -63.45,-141.7 -141.71,-141.7 -78.27,0 -141.72,63.4 -141.72,141.7 0,78.3 63.45,141.7 141.72,141.7 78.26,0 141.71,-63.4 141.71,-141.7" /><path
         id="path390"
         style="fill:#c37140;fill-opacity:1;fill-rule:nonzero;stroke:none"
         d="m 7802.46,11816.1 c -171.91,155.9 -651.67,280.1 -771.61,407.9 -119.94,127.8 -163.92,371.7 -423.79,551.6 -12.17,8.4 -24.08,16.6 -35.98,24.8 v -1115.5 c 114.28,-108.1 397.57,-351.8 791.44,-524.5 519.9,-227.9 1191.57,-527.7 1199.56,-483.8 8,44 223.89,322.2 223.89,322.2 0,0 -811.59,661.4 -983.51,817.3" /><path
         id="path392"
         style="fill:#34231f;fill-opacity:1;fill-rule:nonzero;stroke:none"
         d="m 4746.93,14848.7 c 0,0 90.21,58.2 112.8,97.7 22.58,39.5 35.76,129.9 103.53,156.2 67.76,26.4 130.06,126.2 130.06,126.2 0,0 -190.3,28.2 -224.18,11.2 -33.88,-16.9 -118.59,-56.4 -133.65,-112.9 -15.06,-56.5 11.44,-278.4 11.44,-278.4" /></g></g></svg>