<?xml version="1.0" encoding="UTF-8" standalone="no"?>
<svg
   xmlns:dc="http://purl.org/dc/elements/1.1/"
   xmlns:cc="http://creativecommons.org/ns#"
   xmlns:rdf="http://www.w3.org/1999/02/22-rdf-syntax-ns#"
   xmlns:svg="http://www.w3.org/2000/svg"
   xmlns="http://www.w3.org/2000/svg"
   viewBox="0 0 2666.6667 2666.6667"
   height="2666.6667"
   width="2666.6667"
   xml:space="preserve"
   id="svg2"
   version="1.1"><metadata
     id="metadata8"><rdf:RDF><cc:Work
         rdf:about=""><dc:format>image/svg+xml</dc:format><dc:type
           rdf:resource="http://purl.org/dc/dcmitype/StillImage" /></cc:Work></rdf:RDF></metadata><defs
     id="defs6" /><g
     transform="matrix(1.3333333,0,0,-1.3333333,0,2666.6667)"
     id="g10"><g
       transform="scale(0.1)"
       id="g12"><g
         transform="scale(1.22699)"
         id="g14"><path
           id="path16"
           style="fill:#ffffff;fill-opacity:1;fill-rule:nonzero;stroke:none"
           d="M 16300,0 H 0 V 16300 H 16300 V 0" /></g><g
         transform="scale(1.12235)"
         id="g18"><path
           id="path20"
           style="fill:#959595;fill-opacity:1;fill-rule:nonzero;stroke:none"
           d="m 15578,5125.23 c 0,0 375.4,415.29 393.9,419.74 18.6,4.46 91.2,-37.6 98.8,-22.27 7.7,15.33 229.3,236.91 229.3,236.91 l -1914.3,317.2 60.7,-280.67 1131.6,-221.67 -321.3,-357.47 321.3,-91.77" /></g><path
         id="path22"
         style="fill:#707274;fill-opacity:1;fill-rule:nonzero;stroke:none"
         d="m 14508.6,15535.4 -125.8,-5499.9 -97.2,10.1 -271.6,248.7 58.6,638.6 112.9,4636.8 323.1,-34.3" /><path
         id="path24"
         style="fill:#100f0d;fill-opacity:1;fill-rule:nonzero;stroke:none"
         d="m 15266.3,6648.7 c -1.7,122.1 406.7,421.7 442.7,476.8 36.1,55.2 110.1,876.5 110.1,876.5 l -707.2,-6.5 -256.5,-258.3 410.9,-1088.5" /><g
         transform="scale(1.1128)"
         id="g26"><path
           id="path28"
           style="fill:#707274;fill-opacity:1;fill-rule:nonzero;stroke:none"
           d="m 14936.8,14122.5 200.4,-30.9 1162.8,-8259.39 -142.4,-125.54 -1220.8,8415.83" /></g><g
         transform="scale(1.10308)"
         id="g30"><path
           id="path32"
           style="fill:#959595;fill-opacity:1;fill-rule:nonzero;stroke:none"
           d="m 12735.5,14246.9 h 2333 l 1231.5,-8489.92 -271.2,64.36 -1134,8148.26 -1894.9,41.5 -158.1,-4473.97 -212.5,357.7 106.2,4352.07" /></g><g
         transform="scale(1.0821)"
         id="g34"><path
           id="path36"
           style="fill:#959595;fill-opacity:1;fill-rule:nonzero;stroke:none"
           d="m 15081.2,5345.6 c -37.7,-38.63 -125,-291.28 -125,-291.28 l 253.7,-596.8 c 0,0 554.2,-113.02 590.6,-121.52 36.3,-8.51 113,0 113,0 l 364.1,359.76 22.4,163.48 -884,535.06 -334.8,-48.7" /></g><g
         transform="scale(1.10209)"
         id="g38"><path
           id="path40"
           style="fill:#959595;fill-opacity:1;fill-rule:nonzero;stroke:none"
           d="m 16300,5044.32 -558.1,58.43 176.7,-321.93 c 0,0 197.6,-39.56 205.6,-34.94 7.9,4.63 175.8,298.44 175.8,298.44" /></g><g
         transform="scale(1.1034)"
         id="g42"><path
           id="path44"
           style="fill:#bbbab8;fill-opacity:1;fill-rule:nonzero;stroke:none"
           d="m 16183.5,4785.73 36,-74.5 80.5,107.04 -19.4,220.04 -569.4,-567.06 472.3,314.48" /></g><g
         transform="scale(1.09796)"
         id="g46"><path
           id="path48"
           style="fill:#bbbab8;fill-opacity:1;fill-rule:nonzero;stroke:none"
           d="m 14995.5,3795.14 -5.2,-135.44 57.3,-276.05 1252.4,1350.96 -102.7,208.02 -806,-887.1 -395.8,-260.39" /></g><path
         id="path50"
         style="fill:#707274;fill-opacity:1;fill-rule:nonzero;stroke:none"
         d="m 16144.2,9639.5 97.2,308.8 -1343.9,201.6 -611.9,-104.3 826.3,-509 597.1,-45.7 406.6,45.7 28.6,102.9" /><g
         transform="scale(1.03675)"
         id="g52"><path
           id="path54"
           style="fill:#959595;fill-opacity:1;fill-rule:nonzero;stroke:none"
           d="m 14551.5,4266.03 1323.8,-390.26 424.7,419.2 -726.5,275.76 -525.6,-38.58 c 0,0 -816.7,193.3 -855.3,198.8 -38.5,5.49 358.9,-464.92 358.9,-464.92" /></g><path
         id="path56"
         style="fill:#bbbab8;fill-opacity:1;fill-rule:nonzero;stroke:none"
         d="m 11420.6,5973.9 -168.7,-11.4 v -248.8 l 3834.3,-1290.9 -62.9,184.4 -3602.7,1366.7" /><path
         id="path58"
         style="fill:#707274;fill-opacity:1;fill-rule:nonzero;stroke:none"
         d="m 12654.4,5871 c 41.6,14.9 754.8,567.6 754.8,567.6 0,0 -488.9,81.5 -540.4,64.3 -51.4,-17.1 -531.8,-334.5 -531.8,-334.5 l -81.5,-154.4 205.9,-300.3 193,157.3" /><path
         id="path60"
         style="fill:#959595;fill-opacity:1;fill-rule:nonzero;stroke:none"
         d="m 16058.4,9759.6 -348.9,-560.4 c 0,0 -17.1,-440.3 148.7,-457.5 165.9,-17.1 257.4,0 257.4,0 l 125.8,263.1 v 51.4 892.1 l -183,-188.7" /><g
         transform="scale(1.01706)"
         id="g62"><path
           id="path64"
           style="fill:#bbbab8;fill-opacity:1;fill-rule:nonzero;stroke:none"
           d="m 16182.6,3950.79 -1349.5,397.82 -61.8,181.3 1528.7,-463.29 -117.4,-115.83" /></g><path
         id="path66"
         style="fill:#959595;fill-opacity:1;fill-rule:nonzero;stroke:none"
         d="m 11590.7,6189.8 -338.8,-227.3 4329.7,-1555.9 -110.4,524.4 -2981.2,1025.8 857.8,640.5 -461.9,132 -859.1,-515.2 -316.3,-54.3 -119.8,30" /><path
         id="path68"
         style="fill:#48484a;fill-opacity:1;fill-rule:nonzero;stroke:none"
         d="m 13559.4,6395.7 c 12.8,0 351.6,-1068 351.6,-1068 l -120,-154.4 c 0,0 -474.4,1103.7 -476.1,1134.4 -1.7,30.7 244.5,88 244.5,88" /><path
         id="path70"
         style="fill:#707274;fill-opacity:1;fill-rule:nonzero;stroke:none"
         d="m 13137.6,6312.1 331.7,-1027.2 c 0,0 330.2,-128.7 321.7,-111.6 -8.6,17.2 -381.8,1179.5 -381.8,1179.5 l -271.6,-40.7" /><g
         transform="scale(1.10051)"
         id="g72"><path
           id="path74"
           style="fill:#252323;fill-opacity:1;fill-rule:nonzero;stroke:none"
           d="m 14903.6,5670.01 -42.3,37.71 c 0,0 -124,-35.17 -147.4,-89.69 -23.4,-54.6 -70.1,-659.96 -70.1,-659.96 0,0 296.1,27.26 491,-35.08 194.8,-62.33 498.8,-257.24 728.8,-296.13 229.9,-38.98 413,46.7 424.8,159.74 11.6,113.04 -151.5,268.88 -401.2,440.34 -249.7,171.56 -292.5,253.34 -304.2,292.32 -11.8,38.98 -63.7,246.89 -105.3,265.06 -41.6,18.17 -205.1,-98.32 -205.1,-98.32 l -369,-15.99" /></g><g
         transform="scale(1.07446)"
         id="g76"><path
           id="path78"
           style="fill:#252323;fill-opacity:1;fill-rule:nonzero;stroke:none"
           d="m 14532.6,5113.08 c 0,2.23 -156.5,-61.43 -175.2,-125.27 -18.6,-63.85 -26.6,-135.7 -37.3,-255.48 -10.6,-119.78 -171.6,-484.34 -107.8,-548.18 64,-63.85 427.2,-99.77 654.7,-67.85 227.6,31.92 239.6,4 271.5,0 31.9,-4 239.5,-139.7 554.8,-139.7 315.4,0 505.6,122.39 556.2,210.25 50.5,87.76 23.9,175.62 -146.3,228.86 -170.4,53.14 -348.7,167.62 -513.7,300.61 -165,133.09 -340.6,428.5 -367.2,436.5 -26.7,7.91 -135.7,-87.86 -159.7,-62.54 -24,25.22 -186.3,38.53 -202.2,38.53 -16,0 -327.8,-15.73 -327.8,-15.73" /></g><g
         transform="scale(1.03114)"
         id="g80"><path
           id="path82"
           style="fill:#ffffff;fill-opacity:1;fill-rule:nonzero;stroke:none"
           d="m 15861.1,6091.7 -34.6,-101.25 c 0,0 69.8,-113.76 169,-127.62 99.2,-13.87 257.3,77.68 257.3,77.68 l 47.2,128.01 -174.8,140.91 -264.1,-117.73" /></g><path
         id="path84"
         style="fill:#ffffff;fill-opacity:1;fill-rule:nonzero;stroke:none"
         d="m 15600.9,5224.8 c 0,0 31.4,-91.5 120.1,-163 88.6,-71.4 220.1,-31.4 285.9,0 65.8,31.5 74.3,111.5 74.3,111.5 0,0 -283,148.7 -303,143 -20.1,-5.7 -177.3,-91.5 -177.3,-91.5" /><g
         transform="scale(1.08658)"
         id="g86"><path
           id="path88"
           style="fill:#707274;fill-opacity:1;fill-rule:nonzero;stroke:none"
           d="m 15882.2,10003 417.8,-4480 -107.4,-117.06 -503,4604.96 192.6,-7.9" /></g><g
         transform="scale(1.07942)"
         id="g90"><path
           id="path92"
           style="fill:#959595;fill-opacity:1;fill-rule:nonzero;stroke:none"
           d="m 15665.9,10077.3 -66.3,-55.7 353.5,-4517.64 146.8,-222.53 54.7,-19.92 42.9,67.54 102.5,112.74 -408.9,4579.81 -225.2,55.7" /></g><g
         transform="scale(1.05873)"
         id="g94"><path
           id="path96"
           style="fill:#707274;fill-opacity:1;fill-rule:nonzero;stroke:none"
           d="m 15935.6,10383.6 -31.1,-166.1 h 297.2 l 98.3,48.6 -28.1,117.5 -156.6,37.3 -179.7,-37.3" /></g><g
         transform="scale(1.06745)"
         id="g98"><path
           id="path100"
           style="fill:#b8633d;fill-opacity:1;fill-rule:nonzero;stroke:none"
           d="m 15627.7,8435.82 c 0,0 388.4,-16.11 530.3,-104.45 142,-88.44 83.1,-412.57 80.4,-471.5 -2.7,-58.92 -8.1,-190.17 -59,-326.76 -50.8,-136.59 -69.6,-320.11 -202.2,-685.75 -132.6,-365.64 -136.6,-502.22 -168.7,-735.21 -32.2,-233.08 -32.2,-249.19 -32.2,-249.19 0,0 -80.4,-3.94 -305.4,0 -225,4.02 -273.2,104.55 -273.2,104.55 l -100.4,1536.18 230.4,535.67 300,396.46" /></g><g
         transform="scale(1.01184)"
         id="g102"><path
           id="path104"
           style="fill:#a45634;fill-opacity:1;fill-rule:nonzero;stroke:none"
           d="m 16300,7876.44 c 0,0 -4.3,-411.13 -38.1,-750.22 -33.9,-339.08 -38.2,-515.69 -49.6,-662.65 -11.2,-146.96 -48.7,-255.67 -48.7,-255.67 0,0 -61.5,15.51 -110.9,62.16 -49.4,46.55 -114.9,1052.73 -90.6,1109.17 24.2,56.43 337.9,497.21 337.9,497.21" /></g><path
         id="path106"
         style="fill:#bbbab8;fill-opacity:1;fill-rule:nonzero;stroke:none"
         d="m 14285.6,10045.6 c 46.3,11.4 1772.8,-286 1772.8,-286 0,0 -62.9,-926.4 -57.2,-949.2 5.7,-22.9 -1091.3,-236.3 -1200.9,-194.5 -109.6,41.9 -869.2,223 -869.2,223 l 354.5,1206.7" /><path
         id="path108"
         style="fill:#48484a;fill-opacity:1;fill-rule:nonzero;stroke:none"
         d="m 11871.7,6005.4 c 21.4,-27.9 63.6,-134.4 63.6,-134.4 l 144.4,100.1 28.9,3122.1 -273.4,-47 36.5,-3040.8" /><path
         id="path110"
         style="fill:#707274;fill-opacity:1;fill-rule:nonzero;stroke:none"
         d="m 12118.3,9347.9 h -434.6 l 28.6,-3396.8 223,-80.1 35,3061.6 250.9,6.4 -102.9,408.9" /><g
         transform="scale(1.02045)"
         id="g112"><path
           id="path114"
           style="fill:#302f2f;fill-opacity:1;fill-rule:nonzero;stroke:none"
           d="m 15237.6,15923.8 c 0,-207.7 -168.4,-376.1 -376.1,-376.1 -207.8,0 -376.2,168.4 -376.2,376.1 0,207.8 168.4,376.2 376.2,376.2 207.7,0 376.1,-168.4 376.1,-376.2" /></g><g
         transform="scale(1.01237)"
         id="g116"><path
           id="path118"
           style="fill:#c37140;fill-opacity:1;fill-rule:nonzero;stroke:none"
           d="m 15111.5,7386.84 338.3,50.57 c 0,0 -153.9,-416.64 -137,-641.17 17,-224.52 84.8,-635.44 106,-953.21 21.1,-317.67 -8.5,-682.06 -8.5,-682.06 0,0 118.6,-38.13 266.9,-50.87 148.3,-12.65 207.5,0 207.5,0 0,0 -4.1,203.38 21.3,228.77 25.4,25.48 80.5,63.61 80.5,63.61 0,0 0,665.08 80.5,915.08 80.5,249.91 127,864.22 139.8,923.58 12.7,59.27 93.2,474.43 84.7,631.19 -8.5,156.76 -110.1,266.9 -144,326.27 -34,59.27 -210.5,257.02 -675.1,238.65 -464.6,-18.38 -545.1,-539.43 -545.1,-539.43 l 21.2,-385.53 163,-125.45" /></g><path
         id="path120"
         style="fill:#302f2f;fill-opacity:1;fill-rule:nonzero;stroke:none"
         d="m 15116.2,15509.7 -121.5,-5374.3 121.5,-18.3 124.4,5392.6 h -124.4" /><path
         id="path122"
         style="fill:#302f2f;fill-opacity:1;fill-rule:nonzero;stroke:none"
         d="m 15467.5,15509.7 -122.7,-5426.9 121.5,-18.2 125.6,5445.1 h -124.4" /><path
         id="path124"
         style="fill:#302f2f;fill-opacity:1;fill-rule:nonzero;stroke:none"
         d="m 15818.8,15509.7 -123.8,-5474.2 121.4,-23.4 126.8,5497.6 h -124.4" /><path
         id="path126"
         style="fill:#302f2f;fill-opacity:1;fill-rule:nonzero;stroke:none"
         d="m 15736.4,12402.9 c 18.2,0 235.6,-217.3 235.6,-217.3 l 326.2,34.3 V 13042 H 15972 l -235.6,-639.1" /><path
         id="path128"
         style="fill:#535456;fill-opacity:1;fill-rule:nonzero;stroke:none"
         d="m 14588.7,13089.2 v -777.8 l 1383.3,-125.8 v 856.4 l -1383.3,47.2" /><path
         id="path130"
         style="fill:#a45634;fill-opacity:1;fill-rule:nonzero;stroke:none"
         d="m 15283.5,7769.6 334.5,25.7 c 0,0 -240.1,-51.5 -334.5,-154.4 -94.3,-102.9 0,128.7 0,128.7" /><g
         transform="scale(1.01234)"
         id="g132"><path
           id="path134"
           style="fill:#b8633d;fill-opacity:1;fill-rule:nonzero;stroke:none"
           d="m 12957.5,11835.2 c 0,0 311.9,87.6 515.3,70.6 203.4,-16.9 370.3,-128.1 370.3,-128.1 0,0 318.9,15.1 519.4,15.1 200.5,0 285.3,-15.1 285.3,-15.1 0,0 353,193.1 793.6,221.3 440.7,28.3 819.1,101.7 819.1,101.7 l 39.5,-217.5 c 0,0 -536.5,-302.2 -755.5,-395.4 -218.9,-93.2 -580.4,-98.6 -580.4,-98.6 0,0 -279.1,-82.3 -451.6,-102 -172.6,-19.7 -892.8,-96 -892.8,-96 l -491.4,265.5 -170.8,378.5" /></g><path
         id="path136"
         style="fill:#bbbab8;fill-opacity:1;fill-rule:nonzero;stroke:none"
         d="m 11453.5,12421.6 -81.5,77.2 c 0,0 -223,-90 -240.2,-253 -17.1,-163 1861.4,-5871.6 1890,-5911.6 28.6,-40 514.7,-22.9 514.7,-22.9 l 803.4,817.8 -1776.2,4527 -1110.2,765.5" /><path
         id="path138"
         style="fill:#707274;fill-opacity:1;fill-rule:nonzero;stroke:none"
         d="m 13058.8,7271.2 50.2,-335.1 1767.1,-317.4 -75.8,398.9 c 0,0 -794.9,467.5 -1030.8,433.2 -235.9,-34.3 -710.7,-179.6 -710.7,-179.6" /><g
         transform="scale(1.02342)"
         id="g140"><path
           id="path142"
           style="fill:#252323;fill-opacity:1;fill-rule:nonzero;stroke:none"
           d="m 12623.3,8228.8 c 0,0 22.3,-600.73 39.1,-793.42 16.8,-192.78 134.1,-452.7 234.7,-511.32 100.5,-58.63 1709.8,-326.85 2019.9,-427.49 0,0 25.2,1162.28 92.2,1385.75 67.1,223.56 296.2,463.84 296.2,463.84 0,0 558.7,-363.2 581.1,-363.2 22.4,0 184.4,-39.18 184.4,-39.18 0,0 111.7,670.6 229.1,854.98 0,0 -1352.2,11.13 -1519.9,0 -167.6,-11.24 -446.9,21.1 -536.4,4.98 -89.4,-16.22 -273.7,4.59 -273.7,4.59 0,0 -1173.5,-233.14 -1223.8,-260.99 -50.3,-27.94 -122.9,-318.54 -122.9,-318.54" /></g><path
         id="path144"
         style="fill:#a45634;fill-opacity:1;fill-rule:nonzero;stroke:none"
         d="m 13643.2,11667.7 c 7.5,-4.9 201.8,-43.8 201.8,-43.8 l -69.2,203 c 0,0 172.1,-200.1 206.4,-217.3 34.3,-17.2 257.3,-61.2 257.3,-61.2 l -22.8,-121.9 -400.3,-57.6 -173.2,298.8" /><path
         id="path146"
         style="fill:#959595;fill-opacity:1;fill-rule:nonzero;stroke:none"
         d="m 12063.9,12759 -691.9,-260.2 909.3,-2633.4 707.8,-42.9 210,669.1 c 0,0 -686.2,1915.7 -746.3,1944.3 -60,28.6 -388.9,323.1 -388.9,323.1" /><path
         id="path148"
         style="fill:#e9eef1;fill-opacity:1;fill-rule:nonzero;stroke:none"
         d="m 12002.5,11761.1 -127.8,-172.2 233.9,-1524.3 c 0,0 386.7,-430.8 492.5,-573.7 105.9,-143 197.4,-509 214.5,-674.8 17.2,-165.9 103.3,-394.6 103.3,-394.6 0,0 457.1,194.4 748.8,257.3 291.6,62.9 915,414.4 915,414.4 0,0 -186.9,1090 -297.1,1398.4 -110.2,308.5 -80.4,318.6 -109,342.3 -28.6,23.7 -48.6,394 -122.9,513.4 -74.4,119.3 -600.5,441.5 -600.5,441.5 l -335.8,192.5 -200.5,40 -914.4,-260.2" /><path
         id="path150"
         style="fill:#c37140;fill-opacity:1;fill-rule:nonzero;stroke:none"
         d="m 12244.1,12498.8 -46.5,-45 c 0,0 20.4,-271.6 -56.8,-440.3 -77.2,-168.7 -138.3,-252.4 -138.3,-252.4 0,0 510.1,-207.3 838.9,-321.6 328.8,-114.4 596.6,-148.5 630.9,51.7 34.3,200.1 -499.1,498.7 -499.1,515.8 0,17.2 0,168.7 0,168.7 0,0 -420.3,260.2 -520.4,260.2 -100.1,0 -208.7,62.9 -208.7,62.9" /><path
         id="path152"
         style="fill:#a45634;fill-opacity:1;fill-rule:nonzero;stroke:none"
         d="m 12239.8,12399 c 0,0 52.9,-211.8 181.6,-329.1 128.6,-117.2 474.6,-151.5 474.6,-151.5 l 77.2,-157.3 v 117.3 177.2 l -733.4,343.4" /><path
         id="path154"
         style="fill:#494a4b;fill-opacity:1;fill-rule:nonzero;stroke:none"
         d="m 14057.9,9522.3 -60,43.2 218.5,146.3 311.2,-37.8 c 0,0 -44.8,-250.9 -87.9,-257.5 -43.1,-6.5 -211.6,-13.2 -211.6,-13.2 l -170.2,119" /><path
         id="path156"
         style="fill:#a45634;fill-opacity:1;fill-rule:nonzero;stroke:none"
         d="m 12549.8,11653.6 c 1,-13.4 388.8,6.5 457.4,-8.5 68.6,-15 83.6,-25.8 96.5,-19.3 12.9,6.4 -57.2,48.6 -144.4,76.5 -87.2,27.8 -412.3,-12.2 -409.5,-48.7" /><path
         id="path158"
         style="fill:#a45634;fill-opacity:1;fill-rule:nonzero;stroke:none"
         d="m 13185.2,11788.8 c 0,0 -62.1,-38.7 -65.8,-53.7 -3.7,-15 -2.8,-85.7 7.9,-81.5 10.7,4.3 19.3,53.5 34.3,67.5 15,14 23.6,67.7 23.6,67.7" /><path
         id="path160"
         style="fill:#100f0d;fill-opacity:1;fill-rule:nonzero;stroke:none"
         d="m 13633.7,8141.3 c 62.9,22.9 247.3,163 448.9,235.9 201.6,72.9 343.1,201.5 386,205.8 42.9,4.3 1195.2,-41.4 1195.2,-41.4 l 122.6,-79.3 c 0,0 -44,142.2 -56.8,146.5 -12.9,4.3 -1192.4,55.7 -1192.4,55.7 0,0 85.8,103 72.9,107.3 -12.8,4.2 -51.4,21.4 -77.2,0 -25.7,-21.5 -94.3,-111.6 -98.6,-128.7 -4.3,-17.2 -330.2,-185.9 -433.2,-221.6 -102.9,-35.7 -367.4,-280.2 -367.4,-280.2" /><g
         transform="scale(1.04183)"
         id="g162"><path
           id="path164"
           style="fill:#a45634;fill-opacity:1;fill-rule:nonzero;stroke:none"
           d="m 15925.4,8122.02 c 0,0 127.6,-46.93 229.2,-24.95 101.5,21.98 145.4,52.12 145.4,52.12 0,0 -45.3,-117.97 -187.3,-137.26 -142,-19.2 -187.3,110.09 -187.3,110.09" /></g><g
         transform="scale(1.12367)"
         id="g166"><path
           id="path168"
           style="fill:#707274;fill-opacity:1;fill-rule:nonzero;stroke:none"
           d="m 16070.9,5594.44 -19,-78.23 v -137.49 l 248.1,215.72 -19.1,158.41 -210,-158.41" /></g><g
         transform="scale(1.11309)"
         id="g170"><path
           id="path172"
           style="fill:#959595;fill-opacity:1;fill-rule:nonzero;stroke:none"
           d="m 15977,5503.14 c 29.8,-9.71 227.4,-73.31 227.4,-73.31 l 95.6,275.36 -257.4,15.63 -65.6,-217.68" /></g><path
         id="path174"
         style="fill:#b8633d;fill-opacity:1;fill-rule:nonzero;stroke:none"
         d="m 11711.9,10800.4 c 0,0 149.6,-218.7 162.8,-295.9 13.1,-77.2 233.9,-439.9 233.9,-439.9 0,0 306.7,-6.2 456.8,156.8 150.1,163 72.9,536.1 72.9,536.1 l -613.3,158.7 -313.1,-115.8" /><path
         id="path176"
         style="fill:#494a4b;fill-opacity:1;fill-rule:nonzero;stroke:none"
         d="m 14251,9764.6 -85.8,17.9 c 0,0 -105.1,-54.3 -107.2,-73.6 -2.2,-19.3 87.2,-141.1 86.6,-143.3 -0.7,-2.2 141,38.2 141,38.2 l -34.6,160.8" /><path
         id="path178"
         style="fill:#a45634;fill-opacity:1;fill-rule:nonzero;stroke:none"
         d="m 11982.1,10620.1 c 0,0 195.9,-154.2 353.2,-177.1 157.2,-22.9 203,-20 203,-20 0,0 22.8,-71.5 0,-148.7 -22.9,-77.2 -40.9,-110.3 -29.3,-101.9 11.5,8.3 111,78.5 135.9,223.2 24.9,144.6 13.3,173.2 13.3,173.2 l -676.1,51.3" /><g
         transform="scale(1.00414)"
         id="g180"><path
           id="path182"
           style="fill:#959595;fill-opacity:1;fill-rule:nonzero;stroke:none"
           d="m 15075.3,16300 c 0,0 -139.5,-106.8 -142.4,-166.6 -2.8,-59.8 432.8,-482.6 432.8,-482.6 h 388.2 l -678.6,649.2" /></g><path
         id="path184"
         style="fill:#c37140;fill-opacity:1;fill-rule:nonzero;stroke:none"
         d="m 11817.7,11572.4 c 0,0 -144.4,-81.5 -195.8,-257.3 -51.5,-175.9 24.3,-434.6 90,-514.7 65.8,-80 83,-71.5 90.1,-80 7.2,-8.6 207.9,-157.3 483.5,-168.7 275.6,-11.5 430,11.4 430,11.4 0,0 211.6,-17.2 526.2,82.9 314.5,100.1 577.5,334.6 586.1,346 8.6,11.4 77.2,148.7 77.2,165.8 0,17.2 -117.2,133 -117.2,133 0,0 -248.8,4.3 -520.4,0 -271.6,-4.3 -497.9,-80.4 -529.2,-79.5 -31.2,0.9 -306.3,136 -306.3,136 0,0 -50.9,90.7 -242.5,195.1 -191.5,104.4 -371.7,30 -371.7,30" /><path
         id="path186"
         style="fill:#252323;fill-opacity:1;fill-rule:nonzero;stroke:none"
         d="m 14611.3,11216.4 h 140.1 c 0,0 -28.6,-952.1 -41.5,-995 -12.9,-42.9 -19.2,-71.3 -153.5,-175.5 -134.2,-104.2 -399.8,-263.4 -391.2,-263.4 8.6,0 120.4,-178.7 120.4,-178.7 0,0 505.8,350.3 563,487.5 57.2,137.3 94.3,1180.9 85.7,1238.1 -8.5,57.2 -104.4,120.2 -121,116.9 -16.6,-3.2 -244.9,-77.4 -244.9,-77.4 l 42.9,-152.5" /><path
         id="path188"
         style="fill:#252323;fill-opacity:1;fill-rule:nonzero;stroke:none"
         d="m 14444,11169.3 -368.2,-106 c 0,0 10.6,141.7 -61.8,212.3 l 325.9,199.6 75.5,-16.5 93.2,-87 47.8,-50.9 -112.4,-151.5" /><path
         id="path190"
         style="fill:#a45634;fill-opacity:1;fill-rule:nonzero;stroke:none"
         d="m 12472.5,10740.4 c 0,0 94,-54.4 185.7,-28.6 91.7,25.7 140.3,57.2 140.3,57.2 0,0 -54.4,-140.5 -185.9,-148.9 -131.5,-8.4 -140.1,120.3 -140.1,120.3" /><path
         id="path192"
         style="fill:#a45634;fill-opacity:1;fill-rule:nonzero;stroke:none"
         d="m 12431.9,11347.3 c 0,0 -162.4,22.1 -351.1,-78 0,0 109.3,143.5 300.5,137.5 l 50.6,-59.5" /><path
         id="path194"
         style="fill:#c37140;fill-opacity:1;fill-rule:nonzero;stroke:none"
         d="m 13787.8,11290.8 c 0,0 215.6,174.7 257.3,200.1 41.8,25.5 267.5,231.3 321.7,220.7 54.1,-10.7 139.3,-28.6 221.9,-43.9 82.6,-15.2 179.1,-106 217.7,-148.9 38.6,-42.9 -38.6,-220.9 -68.6,-238 -30,-17.2 -36.5,-8.6 -42.9,-10.7 -6.5,-2.2 -32.2,-36.5 -57.9,-45.1 -25.7,-8.6 -25.7,-8.6 -25.7,-8.6 0,0 -83.7,-72.9 -113.7,-75 -30,-2.2 -60.1,6.4 -53.6,27.9 6.4,21.4 30,102.9 25.7,124.3 -4.3,21.5 -34.3,66.5 -40.7,70.8 -6.5,4.3 -588.1,-127.8 -588.1,-127.8 l -53.1,54.2" /><path
         id="path196"
         style="fill:#a45634;fill-opacity:1;fill-rule:nonzero;stroke:none"
         d="m 14727.9,11275.6 c 4.5,25.1 7.4,49.5 6.3,68.1 -3.6,62.9 -12.9,174.4 -25.7,168.7 -12.9,-5.7 5.7,-124.4 -7.2,-168.7 -7.7,-26.5 -32.7,-76.9 -52.5,-113 21.3,12.8 40.6,37.5 46.1,39.4 5.6,1.8 11.3,-4.5 33,5.5" /><path
         id="path198"
         style="fill:#a45634;fill-opacity:1;fill-rule:nonzero;stroke:none"
         d="m 14622.7,11389.4 c -17.2,21.5 -128.7,165.9 -138.7,158.7 -10,-7.1 113,-173 114.4,-191.5 1,-13.8 -8.1,-111.9 -12.9,-161.5 15,12 25.8,21.3 25.8,21.3 0,0 0.1,0.1 12.1,4.1 3.6,52.2 12,153.1 -0.7,168.9" /><g
         transform="scale(1.0136)"
         id="g200"><path
           id="path202"
           style="fill:#707274;fill-opacity:1;fill-rule:nonzero;stroke:none"
           d="m 14161.4,9437.2 1684.1,-6140.03 c 0,0 50.8,-16.96 71.9,0 21.2,16.88 382.6,368.1 382.6,368.1 l -53.6,257.89 -252.8,-207.08 -1660.9,5828.16 -171.3,-107.04" /></g><path
         id="path204"
         style="fill:#a45634;fill-opacity:1;fill-rule:nonzero;stroke:none"
         d="m 14556.4,11548.4 c 1.2,0.4 17.8,-124.7 26.3,-121.9 8.5,2.9 53.5,-72.6 46.7,-54.9 -6.7,17.8 -73,176.8 -73,176.8" /><path
         id="path206"
         style="fill:#252323;fill-opacity:1;fill-rule:nonzero;stroke:none"
         d="m 14187.5,11141.1 -111.7,-77.8 -248,-71.3 -78.7,212.1 264.9,71.5 173.5,-134.5" /><path
         id="path208"
         style="fill:#959595;fill-opacity:1;fill-rule:nonzero;stroke:none"
         d="m 13997.9,9565.5 h 356 l 1707,-6223.5 -295.9,98.6 -1767.1,6124.9" /><g
         transform="scale(1.05111)"
         id="g210"><path
           id="path212"
           style="fill:#a45634;fill-opacity:1;fill-rule:nonzero;stroke:none"
           d="m 16085.4,11396.8 c 0,0 108.5,-3.5 161.6,23.7 53,27.2 51.2,189.1 51.2,189.1 h -145.1 l -54.3,-47.7 -13.4,-165.1" /></g><g
         transform="scale(1.05993)"
         id="g214"><path
           id="path216"
           style="fill:#252323;fill-opacity:1;fill-rule:nonzero;stroke:none"
           d="m 16124.5,11474.3 c 0,0 -111,-39 -143.5,-94.9 -32.4,-55.9 -95.7,-865.9 -89.7,-886.1 6.1,-20.3 307.6,-14.2 358.1,-34.4 50.6,-20.3 34.5,-121.4 0,-139.6 -34.4,-18.2 -325.7,-10.1 -414.7,18.2 -89.1,28.3 -125.5,48.5 -135.6,165.9 -10.1,117.3 55.4,815 70.2,908.2 14.8,93.3 129.3,216.7 158,219.7 28.8,3.1 119.9,23.3 148.2,15.2 28.3,-8.1 42.1,-38.1 60.6,-58.3 18.5,-20.3 26.5,-75.2 26.5,-75.2 l -38.1,-38.7" /></g><g
         transform="scale(1.07848)"
         id="g218"><path
           id="path220"
           style="fill:#959595;fill-opacity:1;fill-rule:nonzero;stroke:none"
           d="m 16001.5,11577.4 c 10.1,2 165.3,31.8 197.1,23.8 31.8,-7.9 101.4,-121.5 65.6,-153.2 -35.8,-31.7 -79.5,-7.8 -107.4,-16.8 -27.8,-8.9 -96.3,-27.4 -96.3,-27.4 l -59,173.6" /></g><path
         id="path222"
         style="fill:#959595;fill-opacity:1;fill-rule:nonzero;stroke:none"
         d="m 13872,11126.6 c 20.8,-59.9 -5.5,-123.4 -58.6,-141.8 -53.2,-18.4 -113.1,15.2 -133.9,75 -20.7,59.9 5.5,123.4 58.7,141.8 53.1,18.5 113.1,-15.1 133.8,-75" /><g
         transform="scale(1.06637)"
         id="g224"><path
           id="path226"
           style="fill:#b8633d;fill-opacity:1;fill-rule:nonzero;stroke:none"
           d="m 15436.6,11487.6 c 0,0 227.1,106.6 285.8,142.8 58.7,36.2 284,152.8 324.2,154.8 40.3,2 152.9,-32.2 203.1,-108.6 50.3,-76.4 36.2,-150.8 24.1,-168.9 -12,-18.1 -40.2,-20.1 -40.2,-20.1 0,0 -16,-22.1 -32.2,-34.2 -16,-12.1 -42.2,-12.1 -42.2,-12.1 0,0 -20.1,-72.4 -58.3,-84.4 -38.2,-12.1 -64.3,-6.1 -70.4,10 -6,16.1 4,46.3 -18.1,74.4 -22,28.2 -46.2,62.4 -80.4,68.4 -34.2,6 -164.9,-52.5 -195.1,-82.5 -30.1,-30.1 -72.4,-98.5 -78.4,-110.5 -6,-12.1 -184.4,-35.6 -184.4,-35.6 0,0 -121.2,21.5 -93.1,63.7 28.1,42.2 55.6,142.8 55.6,142.8" /></g><g
         transform="scale(1.05717)"
         id="g228"><path
           id="path230"
           style="fill:#a45634;fill-opacity:1;fill-rule:nonzero;stroke:none"
           d="m 16153.9,11758.1 c 0,0 81.2,-90.6 95.4,-124.4 14.2,-33.9 16.6,-161 21.1,-154.6 4.4,6.3 29.6,61.9 29.6,61.9 0,0 -14.2,101.4 -24.3,119.7 -10.2,18.2 -121.8,97.4 -121.8,97.4" /></g><g
         transform="scale(1.06203)"
         id="g232"><path
           id="path234"
           style="fill:#a45634;fill-opacity:1;fill-rule:nonzero;stroke:none"
           d="m 16189,11716.3 c 0,0 52.4,-86.8 64.6,-111.1 12.1,-24.2 14.1,-104.9 14.1,-104.9 l 32.3,34.3 c 0,0 0,66.6 -20.2,103 -20.2,36.3 -90.8,78.7 -90.8,78.7" /></g><g
         transform="scale(1.01189)"
         id="g236"><path
           id="path238"
           style="fill:#c37140;fill-opacity:1;fill-rule:nonzero;stroke:none"
           d="m 16299.4,7829.51 c 0.6,17.2 0.5,32.91 -0.2,46.55 -8.5,156.83 -110.2,267.02 -144.1,326.42 -33.9,59.19 -209.7,256.05 -671.8,238.86 v -611.83 h 816.1" /></g><g
         transform="scale(1.10051)"
         id="g240"><path
           id="path242"
           style="fill:#252323;fill-opacity:1;fill-rule:nonzero;stroke:none"
           d="m 15887.2,5226.94 c -249.7,171.56 -292.5,253.34 -304.2,292.32 -11.8,38.98 -63.7,246.8 -105.3,265.06 -25,11 -94.6,-27.17 -145.8,-59.06 v -885.05 c 171.3,-81.32 369.8,-186 531.7,-213.35 229.9,-38.98 413,46.7 424.8,159.74 11.6,113.04 -151.5,268.88 -401.2,440.34" /></g><path
         id="path244"
         style="fill:#2f1d16;fill-opacity:1;fill-rule:nonzero;stroke:none"
         d="m 12944.3,13481.8 c -15.5,23.3 -4.8,70 -51.6,104 -46.9,33.9 -98.5,37.9 -98.5,37.9 0,0 -48.4,38 -101.9,37.5 -53.5,-0.5 -99,-12.6 -99,-12.6 0,0 -43.2,15.7 -111.1,6.9 -67.9,-8.7 -122.8,-51.4 -149,-58.8 -26.2,-7.3 -79.6,-16.5 -109.5,-27.4 -30,-10.9 -85.8,-48 -94.4,-56.7 -8.6,-8.7 -62.3,-13 -118.6,-47.6 -56.3,-34.7 -83.6,-114.3 -83.6,-114.3 0,0 -38,-31.1 -52.2,-40.8 -0.2,-0.1 -0.4,-0.3 -0.5,-0.4 -0.8,-0.6 -2.8,-2.4 -5.6,-5.3 -9.1,-10.2 -21.6,-30.1 -34.6,-52.5 -24.2,-51 -47.3,-140.4 -31,-286.5 29.7,-266.6 272.5,-625.5 388.3,-749 l 58.7,384.4 747,637.7 c 0,0 4.6,43 -5,65.1 -9.5,22.2 5.6,63.3 -3.1,107.9 -8.8,44.6 -29.2,47.1 -44.8,70.5" /><path
         id="path246"
         style="fill:#c37140;fill-opacity:1;fill-rule:nonzero;stroke:none"
         d="m 12930.7,13306.3 c 0,0 52.9,-48 66.5,-68 13.6,-20.1 56.6,-216.6 68.8,-266 12.3,-49.5 11.6,-119.7 16,-143.9 4.3,-24.2 34.3,-172.2 38.4,-231.5 4,-59.3 -19.8,-297 -30,-360.5 -10.2,-63.5 -26.6,-148.2 -52.8,-169.6 -26.2,-21.4 -152.6,-50.8 -271.7,-37.3 -119.1,13.5 -367.4,123.8 -441.5,192.1 -74,68.4 -95.6,234.5 -95.6,234.5 0,0 -44.5,-21.3 -101.7,18.4 -57.2,39.7 -153.6,130.6 -158.4,249.8 -4.8,119.2 91.5,93.2 145.2,54.6 53.7,-38.7 68.1,-109.5 78.1,-109.3 9.9,0.1 19.1,5.1 23.6,7.6 4.6,2.4 5.6,126 2.9,150.5 -2.8,24.5 -33.9,169 -31.5,174.4 2.4,5.4 96.4,172.5 132.6,194 36.1,21.5 611.1,110.2 611.1,110.2" /><path
         id="path248"
         style="fill:#2f1d16;fill-opacity:1;fill-rule:nonzero;stroke:none"
         d="m 12215.6,12677.2 c 0,0 14.2,89.2 20.3,137.9 6.1,48.8 -17.1,108.4 -6.2,120.4 11,12 30,44.2 21.2,78.9 -8.8,34.6 -8.8,34.6 -8.8,34.6 0,0 -6.7,30.7 38.1,55.7 44.9,25.1 56.1,86.2 56.1,86.2 0,0 121,19.4 167.1,28.7 46.2,9.4 145.9,26.5 200.9,34.5 55,8 218.7,31.7 224.5,31.3 5.9,-0.5 68.4,-47.1 68.4,-47.1 0,0 -17.1,102.1 -30.2,102.8 -13.1,0.6 -8.6,41.8 -184.2,20.4 -175.7,-21.4 -291.1,10.8 -422.8,-72.5 -131.8,-83.3 -157.9,-57.4 -199.5,-135.4 -41.6,-78 -73.1,-206.3 -50.8,-251.7 22.2,-45.3 105.9,-224.7 105.9,-224.7" /><path
         id="path250"
         style="fill:#100f0d;fill-opacity:1;fill-rule:nonzero;stroke:none"
         d="m 6700.66,6681 c 0,0 170.82,40 419.89,354.6 249.06,314.7 268.52,611.2 100.16,701.6 -168.36,90.4 -502.89,-64 -502.89,-64 L 6551.98,7452.6 6700.66,6681" /><g
         transform="scale(1.02243)"
         id="g252"><path
           id="path254"
           style="fill:#302f2f;fill-opacity:1;fill-rule:nonzero;stroke:none"
           d="m 6830.32,15924.6 c 0,-207.4 -168.09,-375.5 -375.43,-375.5 -207.35,0 -375.44,168.1 -375.44,375.5 0,207.3 168.09,375.4 375.44,375.4 207.34,0 375.43,-168.1 375.43,-375.4" /></g><path
         id="path256"
         style="fill:#302f2f;fill-opacity:1;fill-rule:nonzero;stroke:none"
         d="m 7109.54,10684 c 17.15,0 223.02,-217.3 223.02,-217.3 l 308.81,34.3 v 822.1 H 7332.56 L 7109.54,10684" /><path
         id="path258"
         style="fill:#302f2f;fill-opacity:1;fill-rule:nonzero;stroke:none"
         d="m 6550.55,15541.9 -121.52,-5374.3 121.52,-18.2 124.38,5392.5 h -124.38" /><path
         id="path260"
         style="fill:#302f2f;fill-opacity:1;fill-rule:nonzero;stroke:none"
         d="m 6901.83,15541.9 -122.71,-5426.8 121.5,-18.2 125.58,5445 h -124.37" /><path
         id="path262"
         style="fill:#302f2f;fill-opacity:1;fill-rule:nonzero;stroke:none"
         d="m 7253.1,15541.9 -123.78,-5474.1 121.36,-23.4 126.8,5497.5 H 7253.1" /><path
         id="path264"
         style="fill:#707274;fill-opacity:1;fill-rule:nonzero;stroke:none"
         d="m 5942.95,15567.7 -125.81,-5499.9 -97.21,10.1 -271.63,248.7 58.66,638.6 112.89,4636.8 323.1,-34.3" /><path
         id="path266"
         style="fill:#535456;fill-opacity:1;fill-rule:nonzero;stroke:none"
         d="m 6023.01,11370.3 v -777.8 l 1309.55,-125.8 v 856.4 l -1309.55,47.2" /><path
         id="path268"
         style="fill:#707274;fill-opacity:1;fill-rule:nonzero;stroke:none"
         d="m 9492.75,6318.6 -21.44,-87.9 v -154.5 l 278.78,242.4 -21.45,178 -235.89,-178" /><path
         id="path270"
         style="fill:#959595;fill-opacity:1;fill-rule:nonzero;stroke:none"
         d="m 9218.26,6157.8 c 33.1,-10.8 253.05,-81.6 253.05,-81.6 l 108.97,273 -289.11,50.9 -72.91,-242.3" /><path
         id="path272"
         style="fill:#959595;fill-opacity:1;fill-rule:nonzero;stroke:none"
         d="m 5482.61,15747.8 h 2573.35 l 1358.52,-9365.1 -299.15,71 -1250.94,8988.2 -2090.14,45.7 -174.41,-4935.1 -234.46,394.6 117.23,4800.7" /><path
         id="path274"
         style="fill:#959595;fill-opacity:1;fill-rule:nonzero;stroke:none"
         d="m 8918.33,5784.6 c 0,0 421.32,466.1 442.11,471.1 20.8,5 102.29,-42.2 110.87,-25 8.58,17.2 257.33,265.9 257.33,265.9 l -2148.53,356 68.13,-315 1270.09,-248.8 -360.56,-401.2 360.56,-103" /><path
         id="path276"
         style="fill:#707274;fill-opacity:1;fill-rule:nonzero;stroke:none"
         d="m 9398.4,5591.6 -615.13,64.4 194.81,-354.8 c 0,0 217.76,-43.6 226.56,-38.5 8.79,5.1 193.76,328.9 193.76,328.9" /><path
         id="path278"
         style="fill:#959595;fill-opacity:1;fill-rule:nonzero;stroke:none"
         d="m 7803.62,5756.9 c -4.72,-41.9 -288.06,-551.3 -288.06,-551.3 l 288.06,-434.6 529.69,-285.9 c 0,0 154.23,17.2 278.7,154.4 124.46,137.2 306.32,213.4 306.32,213.4 l 59.75,448.3 c -91,165.7 -644.77,354.8 -644.77,354.8 l -529.69,100.9" /><path
         id="path280"
         style="fill:#707274;fill-opacity:1;fill-rule:nonzero;stroke:none"
         d="m 8379.06,7157.8 c 0,0 470.35,-1098.7 470.35,-1111.5 0,-12.9 -135.8,-105.1 -135.8,-105.1 0,0 -194.44,37.9 -203.02,65 -8.58,27.2 -117.35,122.5 -193,203 -75.66,80.6 -146.25,225.9 -146.25,225.9 l -4.77,597.6 212.49,125.1" /><path
         id="path282"
         style="fill:#959595;fill-opacity:1;fill-rule:nonzero;stroke:none"
         d="m 8334.74,6887.5 319.64,-768.3 c 0,0 -13.87,-61.1 -42.37,-69.2 -28.51,-8 -320.15,26.2 -320.15,26.2 0,0 -195.93,90.4 -158.7,283.3 37.24,192.9 201.58,528 201.58,528" /><path
         id="path284"
         style="fill:#bbbab8;fill-opacity:1;fill-rule:nonzero;stroke:none"
         d="m 9291.17,5312.9 39.87,-82.2 88.8,118.1 -21.44,242.8 -628.28,-623.7 521.05,345" /><path
         id="path286"
         style="fill:#bbbab8;fill-opacity:1;fill-rule:nonzero;stroke:none"
         d="m 7898.7,4199.2 -5.72,-148.7 62.91,-303.1 1375.15,1483.3 -352.96,-47.5 29.84,47.5 -674.61,-745.6 -434.61,-285.9" /><path
         id="path288"
         style="fill:#959595;fill-opacity:1;fill-rule:nonzero;stroke:none"
         d="m 6520.53,4455.1 1372.45,-404.6 440.33,434.6 -753.2,285.9 -544.91,-40 c 0,0 -343.12,-143 -383.14,-137.2 -40.03,5.7 -131.53,-138.7 -131.53,-138.7" /><path
         id="path290"
         style="fill:#252323;fill-opacity:1;fill-rule:nonzero;stroke:none"
         d="m 7835.8,6272.2 -187.56,265.4 c 0,0 4.56,-262.6 -21.17,-322.6 -25.73,-60.1 -77.2,-726.3 -77.2,-726.3 0,0 325.96,30 540.4,-38.6 214.45,-68.6 548.99,-283.1 802.03,-325.9 253.05,-42.9 454.63,51.4 467.49,175.8 12.87,124.4 -166.67,295.9 -441.46,484.6 -274.79,188.8 -321.96,278.8 -334.83,321.7 -12.87,42.9 -70.05,271.6 -115.8,291.7 -45.75,20 -225.77,-108.2 -225.77,-108.2 l -406.13,-17.6" /><path
         id="path292"
         style="fill:#ffffff;fill-opacity:1;fill-rule:nonzero;stroke:none"
         d="m 7677.07,6376.6 76.64,-167.4 c 0,0 71.92,-117.2 174.21,-131.5 102.31,-14.3 265.29,80.1 265.29,80.1 l 48.72,132 -180.25,145.3 -384.61,-58.5" /><path
         id="path294"
         style="fill:#b8633d;fill-opacity:1;fill-rule:nonzero;stroke:none"
         d="m 8116.01,9037.1 c 0,0 414.6,-17.2 566.13,-111.5 151.55,-94.4 88.65,-440.4 85.78,-503.3 -2.86,-62.9 -8.57,-203 -62.9,-348.8 -54.33,-145.8 -74.34,-341.7 -215.87,-732 -141.54,-390.3 -145.83,-536.1 -180.14,-784.8 -34.31,-248.8 -34.31,-266 -34.31,-266 0,0 -85.78,-4.2 -325.96,0 -240.18,4.3 -291.65,111.6 -291.65,111.6 l -107.22,1639.8 245.9,571.8 320.24,423.2" /><path
         id="path296"
         style="fill:#252323;fill-opacity:1;fill-rule:nonzero;stroke:none"
         d="m 7048.98,5526.1 c 0.07,2.4 -168.18,-66 -188.2,-134.6 -20.01,-68.6 -28.59,-145.8 -40.03,-274.5 -11.43,-128.7 -184.42,-520.4 -115.8,-589 68.62,-68.6 458.92,-107.2 703.38,-72.9 244.47,34.3 257.34,4.3 291.65,0 34.31,-4.3 257.34,-150.1 596.16,-150.1 338.83,0 543.27,131.5 597.59,225.8 54.33,94.4 25.74,188.8 -157.26,245.9 -182.99,57.2 -374.57,180.2 -551.84,323.1 -177.28,143 -365.99,460.4 -394.58,469 -28.59,8.6 -145.83,-94.4 -171.56,-67.2 -25.73,27.1 -200.15,41.4 -217.3,41.4 -17.16,0 -352.21,-16.9 -352.21,-16.9" /><path
         id="path298"
         style="fill:#a45634;fill-opacity:1;fill-rule:nonzero;stroke:none"
         d="m 7927.29,8002 c 0,0 -4.28,-416 -38.59,-759.1 -34.32,-343.1 -38.61,-521.8 -50.04,-670.5 -11.44,-148.7 -49.32,-258.7 -49.32,-258.7 0,0 -62.27,15.7 -112.27,62.9 -50,47.1 -116.21,1065.2 -91.68,1122.3 24.52,57.1 341.9,503.1 341.9,503.1" /><path
         id="path300"
         style="fill:#707274;fill-opacity:1;fill-rule:nonzero;stroke:none"
         d="m 7578.46,9671.8 97.22,308.8 -1343.87,201.6 -611.88,-104.3 826.33,-509 597.09,-45.7 406.52,45.7 28.59,102.9" /><path
         id="path302"
         style="fill:#959595;fill-opacity:1;fill-rule:nonzero;stroke:none"
         d="m 7492.68,9791.9 -348.83,-560.4 c 0,0 -17.16,-440.3 148.68,-457.5 165.84,-17.1 257.34,0 257.34,0 l 125.81,263.1 v 51.5 892 l -183,-188.7" /><path
         id="path304"
         style="fill:#ffffff;fill-opacity:1;fill-rule:nonzero;stroke:none"
         d="m 7035.2,5257.1 c 0,0 31.45,-91.5 120.09,-163 88.64,-71.5 220.16,-31.4 285.93,0 65.76,31.5 74.34,111.5 74.34,111.5 0,0 -283.07,148.7 -303.08,143 -20.02,-5.7 -177.28,-91.5 -177.28,-91.5" /><path
         id="path306"
         style="fill:#bbbab8;fill-opacity:1;fill-rule:nonzero;stroke:none"
         d="m 5719.93,10077.9 c 46.26,11.4 1772.76,-286 1772.76,-286 0,0 -62.91,-926.4 -57.19,-949.3 5.72,-22.8 -1091.32,-236.3 -1200.9,-194.4 -109.58,41.9 -869.22,223 -869.22,223 l 354.55,1206.7" /><path
         id="path308"
         style="fill:#707274;fill-opacity:1;fill-rule:nonzero;stroke:none"
         d="m 4088.71,5903.3 c 41.61,14.9 754.84,567.6 754.84,567.6 0,0 -488.93,81.5 -540.4,64.3 -51.47,-17.1 -531.83,-334.5 -531.83,-334.5 l -81.49,-154.4 205.87,-300.3 193.01,157.3" /><path
         id="path310"
         style="fill:#bbbab8;fill-opacity:1;fill-rule:nonzero;stroke:none"
         d="m 2854.93,6006.2 -168.7,-11.4 V 5746 l 3834.3,-1290.9 -62.91,184.4 -3602.69,1366.7" /><path
         id="path312"
         style="fill:#959595;fill-opacity:1;fill-rule:nonzero;stroke:none"
         d="m 6516.3,10545.1 704.41,-1570.9 271.98,-28.6 22.87,125.8 -694.81,1564 -304.45,-90.3" /><path
         id="path314"
         style="fill:#707274;fill-opacity:1;fill-rule:nonzero;stroke:none"
         d="m 6726.4,10549.6 714.89,-1562 h 51.4 l 47.26,28.9 -719.2,1618.9 -94.35,-85.8" /><path
         id="path316"
         style="fill:#959595;fill-opacity:1;fill-rule:nonzero;stroke:none"
         d="m 3025.05,6222.1 -338.82,-227.3 3771.39,-1355.3 -406.01,617.6 -2127.31,732 857.78,640.5 -461.87,132 -859.12,-515.2 -316.28,-54.3 -119.76,30" /><path
         id="path318"
         style="fill:#48484a;fill-opacity:1;fill-rule:nonzero;stroke:none"
         d="m 3305.98,6037.7 c 21.44,-27.9 63.61,-134.4 63.61,-134.4 l 144.4,100.1 28.91,3122.1 -273.38,-47 36.46,-3040.8" /><path
         id="path320"
         style="fill:#707274;fill-opacity:1;fill-rule:nonzero;stroke:none"
         d="m 3552.59,9380.2 h -434.61 l 28.59,-3396.8 223.02,-80.1 35.03,3061.6 250.9,6.4 -102.93,408.9" /><path
         id="path322"
         style="fill:#c37140;fill-opacity:1;fill-rule:nonzero;stroke:none"
         d="m 6196.71,11518.9 c 10.73,0 83.64,-47.1 124.38,-34.3 40.75,12.9 19.3,100.7 12.87,105 -6.44,4.4 -40.75,40.8 -40.75,40.8 l -122.23,-40.8 25.73,-70.7" /><path
         id="path324"
         style="fill:#959595;fill-opacity:1;fill-rule:nonzero;stroke:none"
         d="m 6566.94,11884.9 c -0.07,0.1 236.65,54.4 279.54,51.5 42.9,-2.9 63.74,-114.4 56.18,-125.8 -7.57,-11.5 -303.26,-117.4 -303.26,-117.4 l -32.46,191.7" /><path
         id="path326"
         style="fill:#bbbab8;fill-opacity:1;fill-rule:nonzero;stroke:none"
         d="m 2887.81,12453.9 -81.49,77.2 c 0,0 -223.03,-90 -240.18,-253 -17.16,-163 1861.39,-5871.6 1889.98,-5911.6 28.6,-40 514.68,-22.9 514.68,-22.9 l 803.45,817.8 -1776.24,4527 -1110.2,765.5" /><path
         id="path328"
         style="fill:#959595;fill-opacity:1;fill-rule:nonzero;stroke:none"
         d="m 3498.26,12791.3 -691.94,-260.2 909.25,-2633.4 707.85,-42.9 209.98,669.1 c 0,0 -686.23,1915.7 -746.28,1944.3 -60.04,28.6 -388.86,323.1 -388.86,323.1" /><path
         id="path330"
         style="fill:#959595;fill-opacity:1;fill-rule:nonzero;stroke:none"
         d="m 3632.65,9980.6 142.97,-620.1 303.08,225.6 -278.3,353.9 -167.75,40.6" /><path
         id="path332"
         style="fill:#707274;fill-opacity:1;fill-rule:nonzero;stroke:none"
         d="m 4493.11,7303.5 50.22,-335.1 1767.04,-317.4 306.12,201.6 c 0,0 -1176.77,664.8 -1412.66,630.5 -235.9,-34.4 -710.72,-179.6 -710.72,-179.6" /><path
         id="path334"
         style="fill:#c37140;fill-opacity:1;fill-rule:nonzero;stroke:none"
         d="m 6732.71,7510.5 342.52,51.2 c 0,0 -155.84,-421.7 -138.68,-649.1 17.16,-227.3 85.78,-643.3 107.22,-965 21.45,-321.6 -8.57,-690.5 -8.57,-690.5 0,0 120.09,-38.6 270.2,-51.5 150.11,-12.8 210.16,0 210.16,0 0,0 -4.29,205.9 21.44,231.6 25.73,25.8 81.49,64.4 81.49,64.4 0,0 0,673.3 81.49,926.4 81.49,253 128.67,874.9 141.53,935 12.87,60 94.36,480.3 85.78,639 -8.57,158.7 -111.51,270.2 -145.82,330.3 -34.31,60 -213.01,260.2 -683.37,241.6 -470.35,-18.6 -551.84,-546.1 -551.84,-546.1 l 21.45,-390.3 165,-127" /><path
         id="path336"
         style="fill:#a45634;fill-opacity:1;fill-rule:nonzero;stroke:none"
         d="m 6717.82,7801.9 334.53,25.7 c 0,0 -240.18,-51.5 -334.53,-154.4 -94.36,-102.9 0,128.7 0,128.7" /><path
         id="path338"
         style="fill:#252323;fill-opacity:1;fill-rule:nonzero;stroke:none"
         d="m 4353.19,8453.8 c 0,0 22.87,-614.8 40.03,-812.1 17.16,-197.2 137.24,-463.2 240.18,-523.2 102.93,-60 1749.88,-334.5 2067.26,-437.5 0,0 25.74,1189.5 94.36,1418.2 68.62,228.8 303.08,474.7 303.08,474.7 0,0 571.86,-371.7 594.73,-371.7 22.88,0 188.72,-40.1 188.72,-40.1 0,0 114.37,686.3 234.46,875 0,0 -1383.9,11.4 -1555.45,0 -171.56,-11.5 -457.49,21.6 -548.98,5.1 -91.5,-16.6 -280.21,4.7 -280.21,4.7 0,0 -1200.91,-238.6 -1252.37,-267.2 -51.47,-28.5 -125.81,-325.9 -125.81,-325.9" /><path
         id="path340"
         style="fill:#100f0d;fill-opacity:1;fill-rule:nonzero;stroke:none"
         d="m 5068.01,8173.6 c 62.9,22.9 247.33,163 448.91,235.9 201.58,72.9 343.11,201.5 386,205.8 42.89,4.3 1195.18,-41.4 1195.18,-41.4 l 122.61,-79.3 c 0,0 -43.98,142.2 -56.84,146.5 -12.87,4.3 -1192.33,55.7 -1192.33,55.7 0,0 85.78,103 72.92,107.3 -12.87,4.2 -51.47,21.4 -77.2,0 -25.74,-21.5 -94.36,-111.6 -98.65,-128.7 -4.29,-17.2 -330.25,-185.9 -433.18,-221.6 -102.93,-35.8 -367.42,-280.2 -367.42,-280.2" /><path
         id="path342"
         style="fill:#c37140;fill-opacity:1;fill-rule:nonzero;stroke:none"
         d="m 3269.52,11523.5 c 0,0 -211.59,-13.1 -391.72,-101.8 -180.13,-88.6 -343.12,-466 -343.12,-466 0,0 -471.77,-426.1 -483.22,-431.8 -11.43,-5.7 -194.42,-100.1 -248.75,-214.4 -54.33,-114.4 -77.2,-194.5 -94.36,-240.2 -17.15,-45.8 -31.45,-183 -20.02,-265.9 11.45,-83 20.02,-160.1 200.16,-165.9 180.13,-5.7 428.89,42.9 540.4,105.8 111.52,62.9 345.97,337.4 477.5,463.2 131.53,125.8 314.52,200.2 314.52,200.2 0,0 94.36,-91.5 145.83,-185.9 51.46,-94.3 156.72,-179.6 203.01,-234.4 46.29,-54.9 705.96,-74.4 705.96,-74.4 l 214.55,155.8 9.13,827.1 -223.68,346.8 c 0,0 -310.01,162.5 -328.54,202.9 -18.52,40.4 -490.64,122.7 -490.64,122.7 l -187.01,-43.8" /><path
         id="path344"
         style="fill:#c37140;fill-opacity:1;fill-rule:nonzero;stroke:none"
         d="m 4487.58,11910.7 c 0,0 240.17,0 365.98,-65.8 125.82,-65.8 191.58,-291.8 191.58,-291.8 0,0 251.61,-42.7 437.47,-17 185.85,25.7 566.14,148.7 566.14,148.7 l 85.78,-280.2 c 0,0 -460.35,-157.3 -686.23,-291.7 -225.89,-134.4 -893.33,359.6 -894.86,386 -1.53,26.5 -65.86,411.8 -65.86,411.8" /><path
         id="path346"
         style="fill:#e9eef1;fill-opacity:1;fill-rule:nonzero;stroke:none"
         d="m 3435.36,11670.5 -165.84,-147 c 0,0 304.51,-47.4 471.78,-159 167.27,-111.5 371.71,-731.9 337.4,-1000.7 -34.32,-268.8 -508.95,-377.4 -508.95,-377.4 0,0 114.37,-131.6 354.55,-440.4 240.18,-308.8 245.9,-457.4 308.8,-772 62.91,-314.5 120.09,-320.2 120.09,-320.2 0,0 726.26,240.2 932.13,297.4 205.87,57.1 531.82,268.7 531.82,268.7 0,0 -51.47,1069.4 -57.18,1206.6 -5.72,137.3 -148.69,400.4 -177.28,537.6 -28.59,137.2 -194.43,463.2 -370.27,656.2 -175.85,193 -724.83,490.4 -724.83,490.4 l -337.4,-24.3 -714.82,-215.9" /><path
         id="path348"
         style="fill:#c37140;fill-opacity:1;fill-rule:nonzero;stroke:none"
         d="m 3678.4,12531.1 -46.47,-45 c 0,0 23.59,-309.5 -53.6,-478.2 -77.21,-168.7 -142.97,-337.4 -142.97,-337.4 0,0 537.55,-205.9 866.36,-320.3 328.82,-114.3 569,-180.1 603.31,20.1 34.31,200.1 -497.52,523.2 -497.52,540.4 0,17.1 -31.45,274.5 -31.45,274.5 0,0 -388.86,283 -488.94,283 -100.07,0 -208.72,62.9 -208.72,62.9" /><path
         id="path350"
         style="fill:#707274;fill-opacity:1;fill-rule:nonzero;stroke:none"
         d="m 3719.86,9225.8 3830.01,-5867.3 406.02,388.9 -62.91,303.1 -343.11,-268.8 -3658.45,5578.8 -171.56,-134.7" /><path
         id="path352"
         style="fill:#959595;fill-opacity:1;fill-rule:nonzero;stroke:none"
         d="M 3593.52,8969.7 7146.71,3455.8 7549.87,3358.5 3740.74,9193.8 H 3520.7 l 72.82,-224.1" /><path
         id="path354"
         style="fill:#a45634;fill-opacity:1;fill-rule:nonzero;stroke:none"
         d="m 3663.34,12423.7 c 0,0 63.67,-204.2 192.33,-321.5 128.67,-117.2 474.65,-151.5 474.65,-151.5 l 77.19,-157.3 v 117.3 177.2 l -744.17,335.8" /><path
         id="path356"
         style="fill:#48484a;fill-opacity:1;fill-rule:nonzero;stroke:none"
         d="m 4993.67,6428 c 12.87,0 351.69,-1068 351.69,-1068 l -120.09,-154.4 c 0,0 -474.37,1103.7 -476.07,1134.4 -1.7,30.7 244.47,88 244.47,88" /><path
         id="path358"
         style="fill:#a45634;fill-opacity:1;fill-rule:nonzero;stroke:none"
         d="m 3998.01,11553.3 c 1.02,-13.5 388.78,6.4 457.4,-8.6 68.62,-15 83.63,-25.8 96.5,-19.3 12.87,6.4 -57.19,48.6 -144.4,76.5 -87.2,27.8 -412.28,-12.2 -409.5,-48.6" /><path
         id="path360"
         style="fill:#a45634;fill-opacity:1;fill-rule:nonzero;stroke:none"
         d="m 4633.4,11688.4 c 0,0 -62.09,-38.6 -65.76,-53.7 -3.68,-15 -2.86,-85.7 7.86,-81.4 10.72,4.2 19.3,53.4 34.31,67.4 15.01,14 23.59,67.7 23.59,67.7" /><path
         id="path362"
         style="fill:#707274;fill-opacity:1;fill-rule:nonzero;stroke:none"
         d="M 4571.92,6344.4 4903.6,5317.2 c 0,0 330.25,-128.7 321.67,-111.6 -8.58,17.2 -381.72,1179.5 -381.72,1179.5 l -271.63,-40.7" /><path
         id="path364"
         style="fill:#a45634;fill-opacity:1;fill-rule:nonzero;stroke:none"
         d="m 8025.94,8494.1 c 0,0 132.96,-48.9 238.75,-26 105.79,22.9 151.54,54.3 151.54,54.3 0,0 -47.18,-122.9 -195.15,-143 -147.96,-20 -195.14,114.7 -195.14,114.7" /><path
         id="path366"
         style="fill:#707274;fill-opacity:1;fill-rule:nonzero;stroke:none"
         d="m 8055.96,15747.8 223.03,-34.3 1293.97,-9191.1 -158.48,-139.7 -1358.52,9365.1" /><g
         transform="scale(1.00612)"
         id="g368"><path
           id="path370"
           style="fill:#959595;fill-opacity:1;fill-rule:nonzero;stroke:none"
           d="m 6532.02,16300 c 0,0 -139.25,-106.6 -142.09,-166.3 -2.84,-59.6 431.97,-481.7 431.97,-481.7 h 387.39 l -677.27,648" /></g><path
         id="path372"
         style="fill:#a45634;fill-opacity:1;fill-rule:nonzero;stroke:none"
         d="m 2930.7,11255.2 c 0,0 100.78,111.5 223.02,128.6 122.23,17.2 167.27,23.6 167.27,23.6 0,0 -90.63,44.1 -145.03,53.2 -54.41,9 -54.41,9 -54.41,9 l 14.42,35.2 -188.7,-52.9 90.65,-33.7 c 0,0 -102.93,-32.2 -107.22,-163" /><path
         id="path374"
         style="fill:#a45634;fill-opacity:1;fill-rule:nonzero;stroke:none"
         d="m 3220.91,10406.7 c 0,0 130.1,65.7 166.56,72.2 36.45,6.4 98.64,12.8 98.64,12.8 0,0 51.47,70.8 68.63,81.5 17.15,10.8 255.19,-39.6 255.19,-39.6 l 85.77,11.8 c 0,0 -240.04,122.2 -273.35,132.9 -33.3,10.7 -252.04,8.6 -252.04,8.6 l -17.16,-113.7 -132.24,-166.5" /><path
         id="path376"
         style="fill:#a45634;fill-opacity:1;fill-rule:nonzero;stroke:none"
         d="m 2145.82,10489.6 c 0,0 274.49,-57.2 297.37,-45.7 22.87,11.4 120.09,42.8 200.15,65.7 80.06,22.9 80.06,22.9 80.06,22.9 l 14.3,69.7 -295.94,-66.8 -295.94,-45.8" /><path
         id="path378"
         style="fill:#494a4b;fill-opacity:1;fill-rule:nonzero;stroke:none"
         d="m 3629.79,9274.4 -54.33,14.9 c 0,0 -63.23,-44.5 -65.21,-63.3 -1.98,-18.8 73.15,-122.6 93.81,-127.4 20.65,-4.9 77.2,58.6 77.2,58.6 l -51.47,117.2" /><path
         id="path380"
         style="fill:#252323;fill-opacity:1;fill-rule:nonzero;stroke:none"
         d="m 3800.35,10725.5 68.19,17.2 c 0,0 61.47,-75.8 101.5,-247.4 40.04,-171.5 97.22,-406 100.08,-597.6 2.86,-191.5 -37.17,-214.4 -108.65,-288.8 -71.48,-74.3 -386.01,-319.6 -386.01,-319.6 0,0 97.22,-132.1 105.8,-132.1 8.57,0 531.83,402.2 566.14,479.9 34.31,77.6 -37.18,606.6 -114.37,881.1 -77.2,274.5 -87.21,366 -142.97,428.2 -55.75,62.2 -223.02,38.6 -223.02,38.6 0,0 -49.33,-96.5 -47.18,-122.3 2.14,-25.7 80.49,-137.2 80.49,-137.2" /><path
         id="path382"
         style="fill:#959595;fill-opacity:1;fill-rule:nonzero;stroke:none"
         d="m 2930.7,10621.1 -58.62,42.9 c 0,0 -181.18,-53.4 -197.65,-68.2 -16.47,-14.9 18.23,-166.2 37.53,-187.7 19.3,-21.4 188.71,34.2 188.71,34.2 l 30.03,178.8" /><path
         id="path384"
         style="fill:#252323;fill-opacity:1;fill-rule:nonzero;stroke:none"
         d="m 2872.08,10664 c -13.22,23.5 563.28,177.3 563.28,177.3 0,0 51.47,-14.3 60.05,-88.6 8.57,-74.4 0,-117.3 0,-117.3 l -594.74,-193.1 c 0,0 22.88,130.2 -28.59,221.7" /><path
         id="path386"
         style="fill:#48484a;fill-opacity:1;fill-rule:nonzero;stroke:none"
         d="m 4543.33,6968.4 102.93,-386 289.04,305.1 -7.64,11.9 -384.33,69" /><path
         id="path388"
         style="fill:#252323;fill-opacity:1;fill-rule:nonzero;stroke:none"
         d="m 6380.42,11810.6 c 0,0 -331.67,-108.7 -357.41,-160.1 -25.73,-51.5 248.76,-1032.2 308.8,-1115.1 60.05,-83 574.72,11.4 600.46,31.4 25.73,20 0,102.9 -45.76,123 -45.74,20 -345.97,-14.4 -383.14,0 -37.17,14.2 -154.4,291.6 -211.59,500.3 -57.18,208.8 -65.04,343.9 -62.9,367.4 2.15,23.6 126.53,70.8 126.53,70.8 l 25.01,182.3" /><path
         id="path390"
         style="fill:#c37140;fill-opacity:1;fill-rule:nonzero;stroke:none"
         d="m 6134.53,11926.4 c 0,0 42.88,12.9 68.61,19.3 25.74,6.4 55.76,30 81.49,36.4 25.74,6.5 47.18,0 47.18,0 0,0 87.93,-5 120.09,2.9 32.17,7.9 165.13,-150.8 182.28,-200.1 17.16,-49.4 -36.45,-100.8 -60.04,-107.3 -23.59,-6.4 -23.59,-6.4 -23.59,-6.4 0,0 -15.01,-34.3 -42.89,-40.8 -27.88,-6.4 -45.56,0 -45.56,0 0,0 -31.64,-38.5 -59.52,-40.7 -27.88,-2.1 -47.17,38.6 -47.17,38.6 0,0 -6.44,45 -32.17,72.9 -25.74,27.9 -75.22,62.6 -75.22,62.6 l -214.1,-100.7 c 0,0 19.11,134.6 44.85,181.8 25.73,47.2 55.76,81.5 55.76,81.5" /><path
         id="path392"
         style="fill:#a45634;fill-opacity:1;fill-rule:nonzero;stroke:none"
         d="m 6564.85,11779.1 c -22.21,47.2 -96.76,115.8 -111.86,104.6 -15.1,-11.3 48.95,-57.4 71.82,-107.4 22.88,-50.1 25.74,-105.1 25.74,-105.1 0,0 0,0 23.59,6.4 6.75,1.9 15.96,7.5 25.26,15.6 -10.65,29 -23.76,63 -34.55,85.9" /><path
         id="path394"
         style="fill:#a45634;fill-opacity:1;fill-rule:nonzero;stroke:none"
         d="m 6474.78,11756.3 c -30.02,47.1 -140.11,131.5 -151.54,127.2 -11.44,-4.3 75.77,-82.9 105.79,-125.8 30.02,-42.9 33.08,-127.3 33.08,-127.3 0,0 17.67,-6.4 45.55,0 0.12,0.1 0.24,0.1 0.36,0.2 -4.76,39.1 -14.58,96.3 -33.24,125.7" /><path
         id="path396"
         style="fill:#c37140;fill-opacity:1;fill-rule:nonzero;stroke:none"
         d="m 7927.29,8002 c -8.57,158.7 -111.51,270.2 -145.82,330.3 -33.76,59 -207.47,253.5 -660.92,242.2 V 7198.9 h 701.88 c 9.09,85.4 15.46,147.1 19.08,164.1 12.87,60 94.36,480.3 85.78,639" /><path
         id="path398"
         style="fill:#2f1d16;fill-opacity:1;fill-rule:nonzero;stroke:none"
         d="m 4376.93,13481.8 c -15.57,23.3 -4.78,70 -51.63,104 -46.84,33.9 -98.51,37.9 -98.51,37.9 0,0 -48.35,38 -101.87,37.5 -53.51,-0.5 -99.05,-12.6 -99.05,-12.6 0,0 -43.17,15.7 -111.08,6.9 -67.91,-8.7 -122.77,-51.4 -148.97,-58.8 -26.21,-7.3 -79.58,-16.5 -109.53,-27.4 -29.93,-10.9 -85.76,-48 -94.39,-56.7 -8.62,-8.7 -62.25,-13 -118.57,-47.6 -56.33,-34.7 -83.58,-114.3 -83.58,-114.3 0,0 -38.03,-31.1 -52.27,-40.8 -0.15,-0.1 -0.32,-0.3 -0.47,-0.4 -0.82,-0.6 -2.8,-2.4 -5.63,-5.3 -9.08,-10.2 -21.55,-30.1 -34.6,-52.5 -24.2,-51 -47.29,-140.4 -31.01,-286.5 29.69,-266.6 272.5,-625.5 388.33,-749 l 58.68,384.4 747.02,637.7 c 0,0 4.64,43 -4.94,65.1 -9.58,22.2 5.55,63.3 -3.19,107.9 -8.73,44.6 -29.17,47.1 -44.74,70.5" /><path
         id="path400"
         style="fill:#c37140;fill-opacity:1;fill-rule:nonzero;stroke:none"
         d="m 4363.34,13306.3 c 0,0 52.84,-48 66.46,-68 13.62,-20.1 56.56,-216.6 68.83,-266 12.25,-49.5 11.57,-119.7 15.94,-143.9 4.37,-24.2 34.39,-172.2 38.42,-231.5 4.02,-59.3 -19.79,-297 -30.01,-360.5 -10.21,-63.5 -26.62,-148.2 -52.77,-169.6 -26.15,-21.4 -152.54,-50.8 -271.69,-37.3 -119.14,13.5 -367.45,123.8 -441.46,192.1 -74.02,68.4 -95.65,234.5 -95.65,234.5 0,0 -44.5,-21.3 -101.67,18.4 -57.19,39.7 -153.62,130.6 -158.45,249.8 -4.82,119.2 91.56,93.2 145.22,54.6 53.66,-38.7 68.09,-109.5 78.07,-109.3 9.98,0.1 19.08,5.1 23.63,7.6 4.56,2.4 5.61,126 2.86,150.5 -2.75,24.5 -33.81,169 -31.46,174.4 2.36,5.4 96.44,172.5 132.57,194 36.14,21.5 611.16,110.2 611.16,110.2" /><path
         id="path402"
         style="fill:#2f1d16;fill-opacity:1;fill-rule:nonzero;stroke:none"
         d="m 3648.21,12677.2 c 0,0 14.2,89.2 20.3,137.9 6.09,48.8 -17.15,108.4 -6.19,120.4 10.95,12 30.01,44.2 21.18,78.9 -8.83,34.6 -8.83,34.6 -8.83,34.6 0,0 -6.7,30.7 38.17,55.7 44.87,25.1 56.06,86.2 56.06,86.2 0,0 121.04,19.4 167.15,28.7 46.11,9.4 145.84,26.5 200.86,34.5 55.02,8 218.69,31.7 224.55,31.3 5.85,-0.5 68.34,-47.1 68.34,-47.1 0,0 -17.06,102.1 -30.18,102.8 -13.13,0.6 -8.63,41.8 -184.25,20.4 -175.62,-21.4 -291.05,10.8 -422.8,-72.5 -131.75,-83.3 -157.88,-57.4 -199.46,-135.4 -41.57,-78 -73.07,-206.3 -50.82,-251.7 22.23,-45.3 105.92,-224.7 105.92,-224.7" /><path
         id="path404"
         style="fill:#a45634;fill-opacity:1;fill-rule:nonzero;stroke:none"
         d="m 2983.07,10711.1 c 0,0 92.35,152.5 108.74,175.1 16.39,22.6 141.38,141.1 177.71,163.7 36.33,22.6 182.66,90.4 288.79,90.4 106.12,0 190.83,-13.9 216.25,-35.2 25.41,-21.3 69.68,-103 69.68,-103 l -752.43,-257.4 -108.74,-33.6" /><path
         id="path406"
         style="fill:#c37140;fill-opacity:1;fill-rule:nonzero;stroke:none"
         d="m 3091.81,10744.7 c 0,0 25.46,73 44.75,96.6 19.3,23.6 223.03,216.6 244.48,218.7 21.44,2.2 81.48,0 81.48,0 0,0 4.29,30.1 57.9,40.8 53.61,10.7 68.63,-2.2 79.35,0 10.72,2.1 105.08,4.3 120.09,4.3 15.01,0 111.51,-85.8 124.38,-103 12.86,-17.1 -6.44,-280.9 -17.16,-300.2 -10.72,-19.3 -70.77,-23.6 -70.77,-23.6 0,0 -38.6,-49.3 -72.91,-47.2 -34.31,2.2 -57.9,10.7 -57.9,10.7 0,0 -62.19,-49.3 -96.5,-49.3 -34.31,0 -79.34,49.3 -79.34,49.3 0,0 -154.41,27.9 -240.18,45.1 -85.78,17.1 -117.67,57.8 -117.67,57.8 v 0" /><path
         id="path408"
         style="fill:#a45634;fill-opacity:1;fill-rule:nonzero;stroke:none"
         d="m 3499.22,10946.4 c 0,0 76.96,-51.5 94.11,-81.5 17.16,-30 32.17,-223.1 32.17,-223.1 l 57.9,-10.7 c 0,0 -21.44,220.9 -38.6,250.9 -17.15,30.1 -145.58,64.4 -145.58,64.4" /><path
         id="path410"
         style="fill:#a45634;fill-opacity:1;fill-rule:nonzero;stroke:none"
         d="m 3659.81,10985 c 0,0 60.05,-66.5 77.2,-94.4 17.16,-27.9 19.3,-212.3 19.3,-212.3 l 43.87,7.7 c 0,0 3.31,159.6 -15.99,206.8 -19.3,47.1 -124.38,92.2 -124.38,92.2" /></g></g></svg>