<?xml version="1.0" encoding="UTF-8" standalone="no"?>
<svg
   xmlns:dc="http://purl.org/dc/elements/1.1/"
   xmlns:cc="http://creativecommons.org/ns#"
   xmlns:rdf="http://www.w3.org/1999/02/22-rdf-syntax-ns#"
   xmlns:svg="http://www.w3.org/2000/svg"
   xmlns="http://www.w3.org/2000/svg"
   viewBox="0 0 2666.6667 2666.6667"
   height="2666.6667"
   width="2666.6667"
   xml:space="preserve"
   id="svg2"
   version="1.1"><metadata
     id="metadata8"><rdf:RDF><cc:Work
         rdf:about=""><dc:format>image/svg+xml</dc:format><dc:type
           rdf:resource="http://purl.org/dc/dcmitype/StillImage" /></cc:Work></rdf:RDF></metadata><defs
     id="defs6" /><g
     transform="matrix(1.3333333,0,0,-1.3333333,0,2666.6667)"
     id="g10"><g
       transform="scale(0.1)"
       id="g12"><g
         transform="scale(1.22699)"
         id="g14"><path
           id="path16"
           style="fill:none;fill-opacity:1;fill-rule:nonzero;stroke:none"
           d="M 16300,0 H 0 V 16300 H 16300 V 0" /></g><g
         transform="scale(1.02491)"
         id="g18"><path
           id="path20"
           style="fill:#434244;fill-opacity:1;fill-rule:nonzero;stroke:none"
           d="m 2544.75,16226 15.24,58.5 97.19,15.5 24.69,-181 -137.12,107" /></g><g
         transform="scale(1.04509)"
         id="g22"><path
           id="path24"
           style="fill:#434244;fill-opacity:1;fill-rule:nonzero;stroke:none"
           d="m 1758.81,16031.1 c 0,0 -40.33,-147.9 69.92,-169.4 l 777.16,123.7 24.21,192.2 c 0,0 -56.47,122.4 -91.44,117 -34.95,-5.4 -779.85,-263.5 -779.85,-263.5" /></g><g
         transform="scale(1.04836)"
         id="g26"><path
           id="path28"
           style="fill:#c37140;fill-opacity:1;fill-rule:nonzero;stroke:none"
           d="m 2521.35,15601.7 100.53,156.8 c 0,0 -126,142.1 -150.13,230.5 -24.12,88.5 2.68,134.1 0,142.1 -2.68,8.1 150.13,93.8 150.13,93.8 0,0 -83.11,53.6 -128.68,64.4 -45.57,10.7 -377.98,-64.4 -399.43,-101.9 -21.44,-37.5 -32.17,-40.2 -37.53,-93.8 -5.37,-53.6 135.38,-491.9 135.38,-491.9 0,0 143.41,-95.2 167.55,-95.2 24.12,0 162.18,95.2 162.18,95.2" /></g><g
         transform="scale(1.06319)"
         id="g30"><path
           id="path32"
           style="fill:#838585;fill-opacity:1;fill-rule:nonzero;stroke:none"
           d="m 2585.31,15998.7 134.82,-26.5 1564.85,253.8 206.19,74 h -248.48 l -1657.38,-301.3" /></g><g
         transform="scale(1.04405)"
         id="g34"><path
           id="path36"
           style="fill:#e7e7e6;fill-opacity:1;fill-rule:nonzero;stroke:none"
           d="m 2580.21,15831.6 c -4.03,12.1 0,468.4 0,468.4 l 52.5,-8.1 137.28,-26.9 v -433.4 h -189.78" /></g><g
         transform="scale(1.05836)"
         id="g38"><path
           id="path40"
           style="fill:#ccccc9;fill-opacity:1;fill-rule:nonzero;stroke:none"
           d="m 4023.06,15924.5 c 55.76,-24.1 281.47,-75.9 281.47,-75.9 l 1642.37,-199.2 991.79,219.1 33.84,59.7 -2668,371.8 -281.47,-375.5" /></g><path
         id="path42"
         style="fill:#100f0d;fill-opacity:1;fill-rule:nonzero;stroke:none"
         d="m 6882.81,10047.6 c -1.08,0 -2.16,0 -3.25,0.1 -32.92,1.7 -58.21,29.9 -56.44,62.8 l 217.45,4069.4 c 1.77,33 29.26,58.1 62.82,56.5 32.92,-1.8 58.21,-29.9 56.44,-62.9 l -217.45,-4069.4 c -1.7,-31.8 -28.06,-56.5 -59.57,-56.5" /><path
         id="path44"
         style="fill:#939494;fill-opacity:1;fill-rule:nonzero;stroke:none"
         d="M 7486.98,14236.4 6995.16,6763 l 281.04,-147.7 514.46,7774.5 -303.68,-153.4" /><path
         id="path46"
         style="fill:#7e7f81;fill-opacity:1;fill-rule:nonzero;stroke:none"
         d="m 7562.86,16049.8 320.38,-91.3 -101.17,-1714.3 -1354.61,-489 c 0,0 -124.18,613.1 -109.03,832.4 15.16,219.3 142.76,1101.1 182.1,1191.1 39.35,89.9 1062.33,271.1 1062.33,271.1" /><path
         id="path48"
         style="fill:#5e6061;fill-opacity:1;fill-rule:nonzero;stroke:none"
         d="M 5893.49,4863.7 8119.31,3587.2 v 342.9 L 5893.49,5172.3 v -308.6" /><path
         id="path50"
         style="fill:#515254;fill-opacity:1;fill-rule:nonzero;stroke:none"
         d="m 7564.06,16268.4 319.18,-309.9 -1330.1,-337 26.08,403.8 984.84,243.1" /><path
         id="path52"
         style="fill:#7e7f81;fill-opacity:1;fill-rule:nonzero;stroke:none"
         d="M 5992.71,5529.5 8467.8,4188.7 8119.31,3930.1 5893.49,5172.3 l 99.22,357.2" /><path
         id="path54"
         style="fill:#7e7f81;fill-opacity:1;fill-rule:nonzero;stroke:none"
         d="m 3633.95,4354.5 -81.78,303.5 385.3,119.7 3996.36,-2320.2 h -691.35 l -3608.53,1897" /><path
         id="path56"
         style="fill:#100f0d;fill-opacity:1;fill-rule:nonzero;stroke:none"
         d="m 7495.41,4582.1 365.35,195.6 73.07,1563.7 -370.97,-275.4 -67.45,-1483.9" /><path
         id="path58"
         style="fill:#7e7f81;fill-opacity:1;fill-rule:nonzero;stroke:none"
         d="m 5552.31,3465.3 c 0,0 415.72,133.5 383.34,152.3 -32.38,18.8 101.17,2912.1 101.17,2912.1 L 5743,6262 5552.31,3465.3" /><path
         id="path60"
         style="fill:#7e7f81;fill-opacity:1;fill-rule:nonzero;stroke:none"
         d="m 6579.22,16080.8 -542.4,-9551.1 -413.12,480.6 670.27,9039.5 285.25,31" /><path
         id="path62"
         style="fill:#ccccc9;fill-opacity:1;fill-rule:nonzero;stroke:none"
         d="m 6201.23,7431.8 c -16.86,-8.4 -206.57,10.6 -206.57,10.6 l 31.05,-1157.5 c 0,0 141.8,-126.7 318.85,0 l -21.08,1157.5 -122.25,-10.6" /><path
         id="path64"
         style="fill:#939494;fill-opacity:1;fill-rule:nonzero;stroke:none"
         d="M 5842.91,15958.5 5059.25,3759.3 5552.31,3465.3 5743,6262 l 684.46,9903.1 -584.55,-206.6" /><path
         id="path66"
         style="fill:#797a7b;fill-opacity:1;fill-rule:nonzero;stroke:none"
         d="M 3071.87,6365.4 4370.26,5577 c 0,0 165.7,-106.8 403.24,0 237.53,106.8 1460.5,927.4 1460.5,927.4 0,0 58.56,27.8 52.94,110.9 -5.62,83 -56.2,198.2 -56.2,198.2 L 3588.98,6881 3071.87,6365.4" /><path
         id="path68"
         style="fill:#515254;fill-opacity:1;fill-rule:nonzero;stroke:none"
         d="m 3203.96,6453.8 1302.2,-654 c 0,0 136.6,-20.5 267.34,24.5 130.74,45 1378.55,876.8 1378.55,876.8 0,0 101.17,56.2 78.69,112.4 -22.49,56.3 -978.01,618.3 -978.01,618.3 0,0 -947.02,23.4 -1080.55,-50.1 -133.54,-73.5 -543.85,-433.3 -583.2,-500.7 -39.35,-67.5 -385.02,-427.2 -385.02,-427.2" /><path
         id="path70"
         style="fill:#252323;fill-opacity:1;fill-rule:nonzero;stroke:none"
         d="m 3309.35,5693.1 c -16.86,6.1 -88.53,39.8 -88.53,39.8 0,0 -90.63,27.5 -130.68,21.1 -40.05,-6.3 -550.13,-35.8 -596.51,-69.5 -46.37,-33.7 -145.44,-236.1 -109.6,-396.3 35.83,-160.2 69.55,-156 6.32,-339.3 -63.23,-183.4 -130.68,-184.1 -206.56,-490.5 -75.88,-306.3 67.45,-621 264.17,-623.9 196.73,-2.8 536.79,621.1 615.48,739.2 78.69,118 210.06,320.4 272.25,452.4 62.18,132.1 112.77,323.2 115.58,331.7 2.81,8.4 -141.92,335.3 -141.92,335.3" /><path
         id="path72"
         style="fill:#565759;fill-opacity:1;fill-rule:nonzero;stroke:none"
         d="m 2782.4,4733.9 c 11.24,241.7 106.79,281 101.17,562 -3.39,169.6 -101.93,326.9 -179.58,425 -103.68,-10.8 -192.29,-23.3 -210.36,-36.4 -46.37,-33.7 -145.44,-236.1 -109.6,-396.3 35.83,-160.2 69.55,-156 6.32,-339.3 -63.24,-183.4 -130.68,-184.1 -206.56,-490.5 -75.88,-306.3 67.45,-621 264.17,-623.9 70.83,-1 160.25,79.3 249.36,187.9 26.4,178 76.84,534.4 85.08,711.5" /><g
         transform="scale(1.03422)"
         id="g74"><path
           id="path76"
           style="fill:#ccccc9;fill-opacity:1;fill-rule:nonzero;stroke:none"
           d="m 5714.77,15711.7 110.06,124.1 1658.95,464.2 -24.45,-534 -1634.5,-403.5 -110.06,349.2" /></g><path
         id="path78"
         style="fill:#c37140;fill-opacity:1;fill-rule:nonzero;stroke:none"
         d="m 4624.61,7044 c 0,0 -476.37,-134.9 -598.62,-257.2 -122.25,-122.2 -387.83,-636.5 -531.16,-805.1 -143.33,-168.7 -290.87,-244.5 -290.87,-244.5 0,0 29.51,-134.9 25.29,-189.7 -4.22,-54.8 -118.03,-202.4 -109.61,-219.2 8.44,-16.9 172.85,-236.1 172.85,-236.1 0,0 546.77,649.2 1019.54,813.6 472.77,164.4 620.31,413.1 856.38,577.5 236.08,164.4 185.49,948.5 185.49,948.5 L 4624.61,7044" /><path
         id="path80"
         style="fill:#a45330;fill-opacity:1;fill-rule:nonzero;stroke:none"
         d="m 4548.91,6953.4 c -181.89,-147.1 -310.09,-352.3 -310.09,-352.3 246.56,206.3 495.39,358.6 529.12,375.4 22.84,11.5 -29.73,71.2 -66.04,108.6 l -77.29,-41.1 c 0,0 -10.1,-2.9 -27.33,-8 -0.63,-27.4 -14.67,-55.4 -48.37,-82.6" /><path
         id="path82"
         style="fill:#f4f3f3;fill-opacity:1;fill-rule:nonzero;stroke:none"
         d="m 3300.56,5799.8 c -57.47,-42.5 -96.6,-62.6 -96.6,-62.6 0,0 29.51,-134.9 25.29,-189.7 -4.22,-54.8 -118.03,-202.4 -109.61,-219.2 8.44,-16.9 172.84,-236.1 172.84,-236.1 0,0 103.66,123 259.69,275.6 -80.99,165.9 -183.17,328.8 -251.61,432" /><path
         id="path84"
         style="fill:#252323;fill-opacity:1;fill-rule:nonzero;stroke:none"
         d="m 2402.87,5867.9 c 0,0 50.71,-194 -75.75,-295.1 -126.47,-101.2 -236.07,-172.9 -349.89,-328.9 -113.83,-155.9 -400.49,-611.2 -573.32,-632.3 -172.84,-21.1 -337.25,206.6 -236.07,628.1 101.17,421.6 261.36,480.6 307.73,750.4 46.37,269.8 198.13,341.5 358.33,312 160.19,-29.6 446.85,-75.9 446.85,-75.9 0,0 181.27,-59 193.91,-105.4 12.65,-46.4 -71.79,-252.9 -71.79,-252.9" /><path
         id="path86"
         style="fill:#565759;fill-opacity:1;fill-rule:nonzero;stroke:none"
         d="m 1520.54,5301.6 c 134.9,264.1 421.56,444 449.66,680.1 14.31,120.2 -28.41,230.1 -73.8,309.1 -22.17,3.9 -43.26,7.7 -62.5,11.3 -160.19,29.5 -311.96,-42.2 -358.33,-312 -46.37,-269.8 -206.56,-328.8 -307.73,-750.4 -101.18,-421.5 63.23,-649.2 236.07,-628.1 27.6,3.4 58.14,17.9 90.38,40.4 -31.01,166.3 -67.43,466.1 26.25,649.6" /><path
         id="path88"
         style="fill:#c37140;fill-opacity:1;fill-rule:nonzero;stroke:none"
         d="m 3536.99,7461.3 c 0,0 -366.76,-96.9 -556.46,-278.2 -189.7,-181.3 -699.78,-956.9 -699.78,-956.9 0,0 37.94,-151.8 0,-274 -37.94,-122.3 -126.47,-244.5 -101.18,-257.2 25.29,-12.6 193.92,42.2 193.92,42.2 0,0 417.34,446.8 906.34,678.7 489.01,231.8 594.4,497.4 695.58,552.2 101.17,54.8 366.75,299.3 366.75,299.3 0,0 50.59,261.4 -333.03,307.8 -383.62,46.3 -472.14,-113.9 -472.14,-113.9" /><path
         id="path90"
         style="fill:#a45330;fill-opacity:1;fill-rule:nonzero;stroke:none"
         d="m 3940.13,7301.7 c 66.5,-179.8 11.8,-316.7 -32.59,-393.8 25.14,27.8 46.62,48.7 67.87,60.2 101.17,54.8 366.75,299.3 366.75,299.3 0,0 50.59,261.4 -333.03,307.8 -89.2,10.7 -162.26,10.3 -222.15,3.3 59.34,-66.7 109.41,-158.4 153.15,-276.8" /><path
         id="path92"
         style="fill:#f4f3f3;fill-opacity:1;fill-rule:nonzero;stroke:none"
         d="m 2373.64,6365.4 c -56.69,-84.2 -92.89,-139.2 -92.89,-139.2 0,0 37.94,-151.8 0,-274 -37.94,-122.3 -126.47,-244.5 -101.18,-257.2 25.29,-12.6 193.92,42.2 193.92,42.2 0,0 99.14,106 257.16,241.5 -73.01,146.2 -181.13,292.2 -257.01,386.7" /><path
         id="path94"
         style="fill:#252323;fill-opacity:1;fill-rule:nonzero;stroke:none"
         d="m 3468.14,10281.6 c 0,0 -318.98,-379.5 -424.37,-763.1 -105.4,-383.6 8.43,-611.2 54.8,-1020.1 46.37,-408.9 135.68,-978 135.68,-978 0,0 340.68,-185.5 458.71,-215 118.04,-29.6 484.79,21 484.79,21 l 59.02,-244.5 c 0,0 560.67,-248.7 716.65,-244.5 155.98,4.3 354.11,261.4 400.48,286.7 46.37,25.3 269.8,105.4 269.8,105.4 0,0 -113.83,1429.1 -122.25,1559.7 -8.44,130.7 -29.52,569.1 -71.67,649.2 -42.16,80.1 -265.58,240.3 -295.09,328.9 -29.51,88.5 -33.73,337.2 -33.73,337.2 l -1632.82,177.1" /><g
         transform="scale(1.00345)"
         id="g96"><path
           id="path98"
           style="fill:#c37140;fill-opacity:1;fill-rule:nonzero;stroke:none"
           d="m 3271.37,12021.9 c 0,0 -91.02,613.4 -95.22,637.2 -4.21,23.8 -126.04,196 -121.84,498.5 0,0 -264.67,302.5 -348.69,684.8 -84.02,382.3 -113.43,593 -113.43,593 0,0 -231.06,268.2 -256.26,730.3 -25.2,462.1 -46.21,1134.3 -46.21,1134.3 h 344.49 c 0,0 28,-441.1 146.33,-684.8 118.34,-243.6 290.57,-613.3 315.79,-1016.6 0,0 315.07,-273.1 399.1,-466.4 84.02,-193.2 126.03,-340.2 126.03,-340.2 0,0 424.31,-264.7 541.94,-529.4 117.63,-264.7 -323.49,-1159.5 -394.9,-1176.3 -71.42,-16.8 -497.13,-64.4 -497.13,-64.4" /></g><path
         id="path100"
         style="fill:#c37140;fill-opacity:1;fill-rule:nonzero;stroke:none"
         d="m 5648.99,12039.4 v 378 c 0,0 299.3,283.9 463.71,435.7 164.41,151.7 476.36,749.7 484.79,775.3 8.43,25.6 134.9,423.3 248.72,856.8 113.82,433.5 168.62,880.3 168.62,880.3 l -324.6,92.8 c 0,0 -105.39,-333.1 -261.36,-569.1 -155.98,-236.1 -248.72,-463.7 -354.11,-661.9 -105.39,-198.1 -172.84,-430 -172.84,-430 0,0 -278.22,-54.8 -438.42,-189.7 -160.19,-134.9 -336.78,-290.8 -336.78,-290.8 l -98.82,2.8 c 0,0 -175.65,153.1 -192.52,165.8 -16.86,12.6 -664.01,-425.8 -743.02,-510.1 -79.01,-84.3 -254.88,-395.5 -209.11,-705.7 45.78,-310.2 -0.59,-609.5 286.07,-757.1 286.66,-147.5 366.76,-252.9 514.3,-269.8 147.55,-16.9 46.38,-88.5 328.82,-33.7 282.44,54.8 345.68,134.9 413.12,210.8 67.45,75.8 223.43,434.2 223.43,434.2 v 185.4" /><path
         id="path102"
         style="fill:#a45330;fill-opacity:1;fill-rule:nonzero;stroke:none"
         d="m 3469.54,13236.7 c -41.65,-20.9 434.03,-12.6 514.3,-21.1 80.26,-8.5 108.52,122.3 108.52,122.3 0,0 -420.47,0 -622.82,-101.2" /><path
         id="path104"
         style="fill:#a45330;fill-opacity:1;fill-rule:nonzero;stroke:none"
         d="m 5096.75,12178.6 c 0,0 116.63,112.4 125.06,115.2 8.43,2.8 427.18,123.6 427.18,123.6 v -148.9 l -203.69,-14.1 c 0,0 -243.16,-359.7 -243.16,-337.2 0,22.5 89.93,300.7 89.93,300.7 l -195.32,-39.3" /><path
         id="path106"
         style="fill:#e9eef1;fill-opacity:1;fill-rule:nonzero;stroke:none"
         d="m 4156.68,13384.2 c 0,0 -323.2,-227.6 -399.08,-328.8 -75.88,-101.2 -272.6,-351.3 -306.33,-491.8 -33.73,-140.5 -168.62,-500.3 -168.62,-500.3 0,0 300.71,-747.5 306.33,-770 5.62,-22.5 -11.24,-545.2 -53.4,-733.5 -42.15,-188.3 -67.44,-278.2 -67.44,-278.2 0,0 340.05,-323.2 865.59,-317.6 525.54,5.6 767.23,140.5 767.23,140.5 0,0 320.39,674.5 358.33,838.9 37.94,164.4 63.23,354.1 84.31,400.5 21.08,46.4 118.04,250.1 139.11,382.2 21.08,132.1 -33.72,313.3 -33.72,313.3 0,0 -227.64,-531.1 -518.52,-569 -290.87,-38 -640.76,345.6 -796.74,779.8 -155.98,434.2 -96.99,746.6 122.25,927.5 219.25,180.8 571.92,141.9 571.92,141.9 0,0 -386.43,267 -470.75,250.1 -84.31,-16.9 -400.47,-185.5 -400.47,-185.5" /><path
         id="path108"
         style="fill:#c37140;fill-opacity:1;fill-rule:nonzero;stroke:none"
         d="m 4125.83,13736.5 v -459.1 c 0,0 -81.57,-70.2 -160.26,-236 -78.69,-165.9 -73.07,-357 36.54,-337.3 109.6,19.7 292.28,534 533.97,623.9 241.69,89.9 494.62,-36.5 491.82,-8.4 -2.82,28.1 19.67,311.9 19.67,311.9 0,0 103.98,-17.5 133.49,30.9 29.51,48.5 54.8,145.5 82.2,360.5 27.4,215 -21.07,303.5 0,430 21.08,126.4 17.57,271.9 3.52,364.6 -14.05,92.8 -51.99,126.5 -111.01,113.8 -59.02,-12.6 -185.49,48.5 -288.77,-105.4 -103.28,-153.8 -522.73,-881 -550.13,-923.2 -27.4,-42.1 -191.04,-166.2 -191.04,-166.2" /><path
         id="path110"
         style="fill:#a45330;fill-opacity:1;fill-rule:nonzero;stroke:none"
         d="m 5011.03,13929.4 c 0,0 12.65,-247.3 36.54,-297.9 0,0 36.05,-7 79.15,0 0,0 -88.99,144.8 -115.69,297.9" /><path
         id="path112"
         style="fill:#c0c4c7;fill-opacity:1;fill-rule:nonzero;stroke:none"
         d="m 3811,12321.9 c 0,0 -42.16,-451.1 50.59,-809.4 0,0 -231.86,349.9 -50.59,809.4" /><path
         id="path114"
         style="fill:#100f0d;fill-opacity:1;fill-rule:nonzero;stroke:none"
         d="m 3621.3,8637.5 c 12.65,-21.1 455.28,-636.6 480.58,-716.7 25.29,-80.1 75.87,-594.4 75.87,-594.4 l -237.62,-24.7 c 0,0 -39.2,478.6 -40.6,582.6 -1.41,104 -278.23,753.2 -278.23,753.2" /><path
         id="path116"
         style="fill:#a45330;fill-opacity:1;fill-rule:nonzero;stroke:none"
         d="m 3064.84,13202.9 c -8.43,71.7 0,206.6 33.73,349.9 0,0 -86.3,-103.1 -106.38,-256 l 72.65,-93.9" /><path
         id="path118"
         style="fill:#df7f55;fill-opacity:1;fill-rule:nonzero;stroke:none"
         d="m 3507.48,14181 c -60.39,138.9 -239.73,318.8 -336.63,409.8 v 0 c 8.55,-8.1 197.51,-272.8 271.29,-420.4 73.77,-147.5 115.93,-290.8 115.93,-290.8 l -128.58,-35.9 c 0,0 196.02,-61.1 387.83,-198.1 127.04,-90.8 224.2,-162.8 275.53,-201.2 -167.47,213.2 -458.9,395.1 -458.9,395.1 0,0 -42.16,147.5 -126.47,341.5" /><path
         id="path120"
         style="fill:#a45330;fill-opacity:1;fill-rule:nonzero;stroke:none"
         d="m 5519.71,13038.5 c 0,0 -53.4,-289.4 -300.71,-474.9 0,0 401.88,98.3 300.71,474.9" /><g
         transform="scale(1.00574)"
         id="g122"><path
           id="path124"
           style="fill:#434244;fill-opacity:1;fill-rule:nonzero;stroke:none"
           d="m 6455.07,16283.8 c 36.45,16.2 864.84,-366 864.84,-366 0,0 101.09,-52 101.8,-52.6 0.7,-0.5 -73.85,-132.5 -73.85,-132.5 l -50.3,-100.6 -936.8,373 c 0,0 -108.98,188.6 94.31,278.7" /></g><path
         id="path126"
         style="fill:#5e6061;fill-opacity:1;fill-rule:nonzero;stroke:none"
         d="M 3552.17,4658 3335.69,4270.1 6492.11,2457.5 h 750.37 L 3552.17,4658" /><path
         id="path128"
         style="fill:#939494;fill-opacity:1;fill-rule:nonzero;stroke:none"
         d="m 8119.31,3587.2 348.49,264.2 v 337.3 l -348.49,-258.6 v -342.9" /><path
         id="path130"
         style="fill:#252323;fill-opacity:1;fill-rule:nonzero;stroke:none"
         d="M 6234,5290.3 7495.41,4582.1 7562.86,6066 6287.32,6667.4 6234,5290.3" /><path
         id="path132"
         style="fill:#100f0d;fill-opacity:1;fill-rule:nonzero;stroke:none"
         d="M 6287.32,6667.4 6742.23,6926 7933.83,6341.4 7562.86,6066 6287.32,6667.4" /><g
         transform="scale(1.00965)"
         id="g134"><path
           id="path136"
           style="fill:#e7e7e6;fill-opacity:1;fill-rule:nonzero;stroke:none"
           d="m 5674.3,16300 v -517.7 l 292.27,-46 v 484.9 l -292.27,78.8" /></g><g
         transform="scale(1.06319)"
         id="g138"><path
           id="path140"
           style="fill:#a1a1a0;fill-opacity:1;fill-rule:nonzero;stroke:none"
           d="m 5388.58,15479.2 1478.95,376.7 -2582.55,370.1 206.19,74 2788.73,-444.1 -1613.76,-451.5 -277.56,74.8" /></g><path
         id="path142"
         style="fill:#100f0d;fill-opacity:1;fill-rule:nonzero;stroke:none"
         d="M 6765.35,9472.2 6618.83,6730.3 c -1.76,-32.9 23.52,-61 56.44,-62.8 1.1,-0.1 2.18,-0.1 3.26,-0.1 31.5,0 57.86,24.7 59.57,56.5 l 146.85,2748.3 h -119.6" /><path
         id="path144"
         style="fill:#100f0d;fill-opacity:1;fill-rule:nonzero;stroke:none"
         d="m 7900.16,9586.7 c -1.53,0 -3.07,0 -4.65,0.2 -32.88,2.5 -57.49,31.2 -54.95,64.1 l 417.34,5417.7 c 2.54,32.9 30.67,57.4 64.14,55 32.88,-2.6 57.49,-31.3 54.95,-64.2 L 7959.65,9641.8 c -2.42,-31.3 -28.58,-55.1 -59.49,-55.1" /><path
         id="path146"
         style="fill:#100f0d;fill-opacity:1;fill-rule:nonzero;stroke:none"
         d="M 7756.37,8717.6 7572.16,6326.3 c -2.54,-32.9 22.07,-61.6 54.95,-64.1 1.58,-0.1 3.12,-0.2 4.65,-0.2 30.91,0 57.07,23.8 59.49,55.1 l 184.91,2400.5 h -119.79" /><path
         id="path148"
         style="fill:#f0f0ef;fill-opacity:1;fill-rule:nonzero;stroke:none"
         d="m 6323.48,7442.4 c 0,-57.1 -73.61,-103.3 -164.41,-103.3 -90.8,0 -164.41,46.2 -164.41,103.3 0,57 73.61,103.2 164.41,103.2 90.8,0 164.41,-46.2 164.41,-103.2" /><g
         transform="scale(1.00784)"
         id="g150"><path
           id="path152"
           style="fill:#c37140;fill-opacity:1;fill-rule:nonzero;stroke:none"
           d="m 6638.16,15338 c 0,0 31.38,119.2 16.74,227.9 -14.65,108.8 -75.29,317.9 -75.29,451.8 0,133.8 -14.65,133.8 0,144.3 14.63,10.4 228.66,126.8 267.7,132.4 39.03,5.6 68.31,-33.4 68.31,-33.4 0,0 94.81,-15.4 115.73,-29.3 20.91,-14 40.43,-46 40.43,-46 0,0 72.5,-29.3 96.19,-62.8 23.72,-33.4 30.68,-53 30.68,-53 0,0 43.22,-23.7 68.33,-76.6 25.09,-53 40.43,-114.4 37.63,-108.8 -2.78,5.6 -131.05,-7 -157.54,-55.8 -26.49,-48.8 22.3,-263.5 -11.15,-362.5 -33.47,-99 -214.72,-266.3 -220.3,-266.3 -5.57,0 -92.02,9.8 -133.85,27.9 -41.83,18.1 -143.61,110.2 -143.61,110.2" /></g><path
         id="path154"
         style="fill:#a45330;fill-opacity:1;fill-rule:nonzero;stroke:none"
         d="m 7071.04,16080.8 184.08,115.2 -30.92,53.4 z" /><g
         transform="scale(1.00278)"
         id="g156"><path
           id="path158"
           style="fill:#a45330;fill-opacity:1;fill-rule:nonzero;stroke:none"
           d="m 7118.48,16262.7 -187.52,-86.3 151.67,123.6 35.85,-37.3" /></g><g
         transform="scale(1.00685)"
         id="g160"><path
           id="path162"
           style="fill:#a45330;fill-opacity:1;fill-rule:nonzero;stroke:none"
           d="m 6922.47,16277.1 c 0,0 -173.06,-112.8 -167.48,-104.6 5.58,8.2 141.88,127.5 141.88,127.5 l 25.6,-22.9" /></g><path
         id="path164"
         style="fill:#100f0d;fill-opacity:1;fill-rule:nonzero;stroke:none"
         d="m 6475.24,10047.6 474.85,200.8 1291.47,-489.6 -37.94,-348.5 -631.64,-207.9 -1096.74,845.2" /><path
         id="path166"
         style="fill:#100f0d;fill-opacity:1;fill-rule:nonzero;stroke:none"
         d="m 7630.31,8415.5 c 22.48,-39.4 160.35,-345.7 160.35,-345.7 l 283.69,172.8 85.88,1344.1 -284.07,-176.4 -245.85,-994.8" /><path
         id="path168"
         style="fill:#252323;fill-opacity:1;fill-rule:nonzero;stroke:none"
         d="m 6475.24,10047.6 -109.6,-1410.1 1425.02,-567.7 85.5,1340.5 -1400.92,637.3" /><path
         id="path170"
         style="fill:#939494;fill-opacity:1;fill-rule:nonzero;stroke:none"
         d="m 7714.62,4337.6 c 0,0 138.87,-72.4 241.69,0 L 8768.51,15062 8612.53,14914.5 7714.62,4337.6" /><path
         id="path172"
         style="fill:#7e7f81;fill-opacity:1;fill-rule:nonzero;stroke:none"
         d="m 8612.53,14914.5 v 0 l -931.64,172.8 143.33,134.9 944.29,-160.2 -155.98,-147.5" /><path
         id="path174"
         style="fill:#636567;fill-opacity:1;fill-rule:nonzero;stroke:none"
         d="m 7512.07,15854.4 c 0,-73.3 -59.37,-132.6 -132.61,-132.6 -73.24,0 -132.61,59.3 -132.61,132.6 0,73.2 59.37,132.6 132.61,132.6 73.24,0 132.61,-59.4 132.61,-132.6" /><g
         transform="scale(1.05836)"
         id="g176"><path
           id="path178"
           style="fill:#a1a1a0;fill-opacity:1;fill-rule:nonzero;stroke:none"
           d="m 2732.54,16045.1 v -427.5 l 1571.99,231 v 451.4 l -1571.99,-254.9" /></g><path
         id="path180"
         style="fill:#34231f;fill-opacity:1;fill-rule:nonzero;stroke:none"
         d="m 5283.95,15018.4 c -15.53,33.9 -44.01,57.9 -55.3,73.4 -11.3,15.6 -26.82,42.4 -62.12,70.6 -35.29,28.2 -33.88,25.4 -63.53,38.1 -29.64,12.7 -57.88,31.1 -84.7,43.8 -26.82,12.7 -57.88,11.3 -108.71,22.6 -50.82,11.3 -49.54,30.7 -104.6,44.8 -55.06,14.1 -101.52,3.2 -146.69,3.2 -45.18,0 -76.24,25.4 -135.53,22.6 -59.3,-2.9 -98.12,-3.6 -160.24,-21.9 -54.42,-16.1 -76.94,-51.5 -129.17,-65.7 -52.24,-14.1 -73.41,-66.3 -101.65,-97.4 -28.23,-31 -35.29,-40.9 -64.94,-59.3 -29.65,-18.3 -45.18,-74.8 -49.41,-84.7 -4.24,-9.9 -18.36,-31.2 -50.83,-66.3 -32.47,-35.1 -31.06,-56.5 -54.19,-124.3 -23.14,-67.7 -5.78,-22.5 -23.14,-67.7 -17.35,-45.2 -21.49,-107.3 -21.49,-128.5 0,-21.2 -9.07,-53.4 -2.82,-115.8 4.81,-48.1 23.92,-111.7 43.7,-167.6 38.53,-133.7 99.14,-243.1 99.14,-243.1 l 118.1,-358.7 c 0,0 219.14,-54.4 300.65,-51.6 81.49,2.8 275.41,78.7 323.19,106.8 47.77,28.1 194.84,165.8 194.84,165.8 0,0 -102.1,132.1 -104.91,205.2 -2.81,73.1 -5.62,258.5 89.93,283.8 95.55,25.3 112.41,-181.2 112.41,-181.2 0,0 50.59,237.5 50.59,302.1 0,64.6 -5.62,233.3 28.11,247.3 33.72,14.1 146.14,2.8 146.14,2.8 0,0 3.6,4.1 7.5,13.8 7.86,15.3 19.4,41.1 21.81,63.8 6.6,62.1 3.39,89.4 -12.14,123.3" /><g
         transform="scale(1.05654)"
         id="g182"><path
           id="path184"
           style="fill:#a1a1a0;fill-opacity:1;fill-rule:nonzero;stroke:none"
           d="m 12197,15716.1 94.6,-99.7 1574.8,231.4 v 452.2 l -1574.8,-255.4 -94.6,-328.5" /></g><g
         transform="scale(1.07203)"
         id="g186"><path
           id="path188"
           style="fill:#ccccc9;fill-opacity:1;fill-rule:nonzero;stroke:none"
           d="m 13388.1,15693.7 c 55.1,-23.8 277.9,-74.9 277.9,-74.9 l 1621.4,-196.6 979.2,216.3 33.4,59 -2634,367 -277.9,-370.8" /></g><g
         transform="scale(1.05866)"
         id="g190"><path
           id="path192"
           style="fill:#100f0d;fill-opacity:1;fill-rule:nonzero;stroke:none"
           d="m 16036.7,9462.78 c -1,0 -2,0.03 -3.1,0.08 -31,1.68 -54.9,28.24 -53.2,59.35 l 205.3,3843.89 c 1.7,31.1 27.7,54.9 59.3,53.4 31.2,-1.7 55,-28.3 53.4,-59.4 l -205.5,-3843.92 c -1.6,-30.08 -26.4,-53.4 -56.2,-53.4" /></g><g
         transform="scale(1.13339)"
         id="g194"><path
           id="path196"
           style="fill:#100f0d;fill-opacity:1;fill-rule:nonzero;stroke:none"
           d="m 15877,8432.25 c -1.3,0 -2.7,0 -4.1,0.18 -29,2.2 -50.7,27.52 -48.5,56.55 l 368.2,4780.12 c 2.3,29 27.1,50.6 56.7,48.5 29,-2.3 50.7,-27.6 48.4,-56.6 l -368.2,-4780.13 c -2.1,-27.62 -25.2,-48.62 -52.5,-48.62" /></g><g
         transform="scale(1.11742)"
         id="g198"><path
           id="path200"
           style="fill:#5e6061;fill-opacity:1;fill-rule:nonzero;stroke:none"
           d="m 14308,4326.02 1992,-1142.36 v 306.87 L 14308,4602.2 v -276.18" /></g><g
         transform="scale(1.1388)"
         id="g202"><path
           id="path204"
           style="fill:#7e7f81;fill-opacity:1;fill-rule:nonzero;stroke:none"
           d="m 14126.6,4829.48 2173.4,-1177.47 -305.9,-226.99 -1954.6,1090.8 87.1,313.66" /></g><g
         transform="scale(1.1388)"
         id="g206"><path
           id="path208"
           style="fill:#939494;fill-opacity:1;fill-rule:nonzero;stroke:none"
           d="m 15994.1,3123.91 305.9,232 v 296.1 l -305.9,-226.99 v -301.11" /></g><g
         transform="scale(1.15725)"
         id="g210"><path
           id="path212"
           style="fill:#7e7f81;fill-opacity:1;fill-rule:nonzero;stroke:none"
           d="m 16230.8,12854.9 -65.6,7.3 -805.1,149.3 123.9,116.6 816,-138.4 -69.2,-134.8" /></g><g
         transform="scale(1.02294)"
         id="g214"><path
           id="path216"
           style="fill:#7e7f81;fill-opacity:1;fill-rule:nonzero;stroke:none"
           d="m 16300,15691.1 -530.2,-9336.86 -404,469.83 655.3,8836.73 278.9,30.3" /></g><g
         transform="scale(1.10604)"
         id="g218"><path
           id="path220"
           style="fill:#7e7f81;fill-opacity:1;fill-rule:nonzero;stroke:none"
           d="m 12412.4,3910.16 -74,274.4 348.4,108.22 3613.2,-2097.75 h -625.1 l -3262.5,1715.13" /></g><g
         transform="scale(1.0079)"
         id="g222"><path
           id="path224"
           style="fill:#ccccc9;fill-opacity:1;fill-rule:nonzero;stroke:none"
           d="m 16157.7,9748.33 c -16.6,-8.43 -204.9,10.42 -204.9,10.42 l 30.8,-1148.34 c 0,0 140.7,-125.8 316.4,0 l -20.9,1148.34 -121.4,-10.42" /></g><g
         transform="scale(1.0066)"
         id="g226"><path
           id="path228"
           style="fill:#f0f0ef;fill-opacity:1;fill-rule:nonzero;stroke:none"
           d="m 16300,9771.3 c 0,-56.73 -73.1,-102.63 -163.3,-102.63 -90.2,0 -163.3,45.9 -163.3,102.63 0,56.62 73.1,102.62 163.3,102.62 90.2,0 163.3,-46 163.3,-102.62" /></g><path
         id="path230"
         style="fill:#7e7f81;fill-opacity:1;fill-rule:nonzero;stroke:none"
         d="m 15646.9,3435.6 c 0,0 415.8,133.5 383.4,152.3 -32.4,18.8 101.2,2912.1 101.2,2912.1 l -233.4,619.2 -251.2,-3683.6" /><g
         transform="scale(1.01363)"
         id="g232"><path
           id="path234"
           style="fill:#939494;fill-opacity:1;fill-rule:nonzero;stroke:none"
           d="m 15723.3,15714.7 -773.1,-12035.23 486.4,-290.05 188.1,2759.1 675.3,9769.98 -576.7,-203.8" /></g><g
         transform="scale(1.09726)"
         id="g236"><path
           id="path238"
           style="fill:#939494;fill-opacity:1;fill-rule:nonzero;stroke:none"
           d="m 16023.2,12947.5 -448.2,-6811.02 256.1,-134.61 468.9,7085.43 -276.8,-139.8" /></g><g
         transform="scale(1.00535)"
         id="g240"><path
           id="path242"
           style="fill:#797a7b;fill-opacity:1;fill-rule:nonzero;stroke:none"
           d="m 13096.4,8718.36 1291.5,-784.3 c 0,0 164.8,-106.24 401.1,0 236.3,106.23 1452.7,922.56 1452.7,922.56 0,0 58.3,27.65 52.7,110.21 -5.5,82.66 -55.9,197.25 -55.9,197.25 l -2627.7,67.14 -514.4,-512.86" /></g><g
         transform="scale(1.00294)"
         id="g244"><path
           id="path246"
           style="fill:#515254;fill-opacity:1;fill-rule:nonzero;stroke:none"
           d="M 13259.6,8827.46 14558,8175.37 c 0,0 136.2,-20.43 266.5,24.44 130.5,44.76 1374.6,874.22 1374.6,874.22 0,0 100.9,56.04 78.5,112.08 -22.5,56.03 -975.2,616.48 -975.2,616.48 0,0 -944.2,23.23 -1077.4,-50.05 -133.1,-73.29 -542.2,-431.93 -581.5,-499.13 -39.2,-67.3 -383.9,-425.95 -383.9,-425.95" /></g><g
         transform="scale(1.09415)"
         id="g248"><path
           id="path250"
           style="fill:#ccccc9;fill-opacity:1;fill-rule:nonzero;stroke:none"
           d="m 14627.8,14824.1 104,117.3 1568.2,438.8 -23.1,-504.8 -1545.1,-381.4 -104,330.1" /></g><g
         transform="scale(1.10294)"
         id="g252"><path
           id="path254"
           style="fill:#7e7f81;fill-opacity:1;fill-rule:nonzero;stroke:none"
           d="m 16009.5,14524.9 290.5,-82.7 -91.8,-1554.4 -1228.1,-443.3 c 0,0 -112.6,555.8 -98.9,754.7 13.7,198.9 129.4,998.4 165.1,1079.9 35.7,81.5 963.2,245.8 963.2,245.8" /></g><g
         transform="scale(1.10604)"
         id="g256"><path
           id="path258"
           style="fill:#100f0d;fill-opacity:1;fill-rule:nonzero;stroke:none"
           d="m 15903.5,4115.94 330.4,176.84 66.1,1413.78 -335.4,-249 -61.1,-1341.62" /></g><g
         transform="scale(1.08328)"
         id="g260"><path
           id="path262"
           style="fill:#252323;fill-opacity:1;fill-rule:nonzero;stroke:none"
           d="m 15073.3,4856.17 1164.4,-653.75 62.3,1369.81 -1177.4,555.17 -49.3,-1271.23" /></g><g
         transform="scale(1.11645)"
         id="g264"><path
           id="path266"
           style="fill:#100f0d;fill-opacity:1;fill-rule:nonzero;stroke:none"
           d="m 15865.5,6177 c -0.7,-9.32 94.7,-315.82 94.7,-315.82 l 229.1,130.95 110.7,1238.48 -257.6,-149.85 -176.9,-903.76" /></g><g
         transform="scale(1.10294)"
         id="g268"><path
           id="path270"
           style="fill:#515254;fill-opacity:1;fill-rule:nonzero;stroke:none"
           d="m 16010.6,14723.1 289.4,-280.9 -1206,-305.6 23.7,366.1 892.9,220.4" /></g><g
         transform="scale(1.11852)"
         id="g272"><path
           id="path274"
           style="fill:#100f0d;fill-opacity:1;fill-rule:nonzero;stroke:none"
           d="m 16269.8,7217.21 -257.1,-149.57 -1252.9,575.22 432.7,162.27 1107.5,-457.3 -30.2,-130.62" /></g><g
         transform="scale(1.10604)"
         id="g276"><path
           id="path278"
           style="fill:#100f0d;fill-opacity:1;fill-rule:nonzero;stroke:none"
           d="m 14811.4,6001.3 411.2,233.81 1077.4,-528.55 -335.4,-249 -1153.2,543.74" /></g><path
         id="path280"
         style="fill:#252323;fill-opacity:1;fill-rule:nonzero;stroke:none"
         d="m 13359.3,7979.8 c -16.8,6.1 -88.5,39.8 -88.5,39.8 0,0 -90.6,27.4 -130.7,21.1 -40,-6.3 -550.1,-35.9 -596.5,-69.6 -46.4,-33.7 -145.4,-236.1 -109.6,-396.2 35.8,-160.2 69.6,-156 6.3,-339.4 -63.2,-183.4 -130.6,-184.1 -206.5,-490.4 -75.9,-306.3 67.4,-621.1 264.1,-623.9 196.8,-2.8 536.8,621.1 615.5,739.1 78.7,118 210.1,320.4 272.3,452.5 62.2,132.1 112.7,323.2 115.6,331.6 2.8,8.4 -142,335.4 -142,335.4" /><path
         id="path282"
         style="fill:#252323;fill-opacity:1;fill-rule:nonzero;stroke:none"
         d="m 12452.9,8154.5 c 0,0 50.7,-193.9 -75.8,-295.1 -126.5,-101.2 -236.1,-172.8 -349.9,-328.8 -113.8,-156 -400.5,-611.3 -573.3,-632.3 -172.8,-21.1 -337.2,206.5 -236.1,628.1 101.2,421.5 261.4,480.6 307.8,750.3 46.3,269.8 198.1,341.5 358.3,312 160.2,-29.5 446.8,-75.9 446.8,-75.9 0,0 181.3,-59 193.9,-105.4 12.7,-46.3 -71.7,-252.9 -71.7,-252.9" /><path
         id="path284"
         style="fill:#c37140;fill-opacity:1;fill-rule:nonzero;stroke:none"
         d="m 13587,9748 c 0,0 -366.8,-97 -556.5,-278.2 -189.7,-181.3 -699.8,-957 -699.8,-957 0,0 38,-151.7 0,-274 -37.9,-122.2 -126.4,-244.5 -101.1,-257.1 25.3,-12.7 193.9,42.1 193.9,42.1 0,0 417.3,446.9 906.3,678.7 489,231.9 594.4,497.5 695.6,552.3 101.2,54.8 366.7,299.3 366.7,299.3 0,0 50.6,261.3 -333,307.7 C 13675.5,9908.2 13587,9748 13587,9748" /><path
         id="path286"
         style="fill:#c37140;fill-opacity:1;fill-rule:nonzero;stroke:none"
         d="m 14674.6,9330.6 c 0,0 -476.4,-134.9 -598.6,-257.1 -122.3,-122.3 -387.9,-636.6 -531.2,-805.2 -143.3,-168.6 -290.9,-244.5 -290.9,-244.5 0,0 29.5,-134.9 25.3,-189.7 -4.2,-54.8 -118,-202.3 -109.6,-219.2 8.5,-16.9 172.9,-236.1 172.9,-236.1 0,0 546.7,649.2 1019.5,813.6 472.8,164.4 620.3,413.2 856.4,577.6 236.1,164.4 185.5,948.5 185.5,948.5 l -729.3,-387.9" /><path
         id="path288"
         style="fill:#f4f3f3;fill-opacity:1;fill-rule:nonzero;stroke:none"
         d="m 13350.5,8086.5 c -57.4,-42.5 -96.6,-62.7 -96.6,-62.7 0,0 29.5,-134.9 25.3,-189.7 -4.2,-54.8 -118,-202.3 -109.6,-219.2 8.5,-16.9 172.9,-236.1 172.9,-236.1 0,0 103.6,123.1 259.7,275.6 -81,166 -183.2,328.8 -251.7,432.1" /><path
         id="path290"
         style="fill:#a45330;fill-opacity:1;fill-rule:nonzero;stroke:none"
         d="m 14598.9,9240 c -181.9,-147.1 -310.1,-352.2 -310.1,-352.2 246.6,206.3 495.4,358.5 529.1,375.4 22.9,11.4 -29.7,71.2 -66,108.5 l -77.3,-41.1 c 0,0 -10.1,-2.8 -27.3,-8 -0.7,-27.4 -14.7,-55.3 -48.4,-82.6" /><path
         id="path292"
         style="fill:#f4f3f3;fill-opacity:1;fill-rule:nonzero;stroke:none"
         d="m 12423.6,8652.1 c -56.7,-84.2 -92.9,-139.3 -92.9,-139.3 0,0 38,-151.7 0,-274 -37.9,-122.2 -126.4,-244.5 -101.1,-257.1 25.3,-12.7 193.9,42.1 193.9,42.1 0,0 99.1,106.1 257.1,241.6 -73,146.1 -181.1,292.1 -257,386.7" /><path
         id="path294"
         style="fill:#a45330;fill-opacity:1;fill-rule:nonzero;stroke:none"
         d="m 13990.1,9588.4 c 66.5,-179.9 11.8,-316.7 -32.6,-393.9 25.2,27.9 46.7,48.8 67.9,60.3 101.2,54.8 366.7,299.3 366.7,299.3 0,0 50.6,261.3 -333,307.7 -89.2,10.8 -162.2,10.3 -222.1,3.4 59.3,-66.7 109.4,-158.5 153.1,-276.8" /><path
         id="path296"
         style="fill:#565759;fill-opacity:1;fill-rule:nonzero;stroke:none"
         d="m 11570.5,7588.2 c 134.9,264.2 421.6,444 449.7,680.1 14.3,120.2 -28.4,230.1 -73.8,309.2 -22.2,3.9 -43.3,7.7 -62.5,11.2 -160.2,29.5 -312,-42.2 -358.3,-312 -46.4,-269.7 -206.6,-328.8 -307.8,-750.3 -101.1,-421.6 63.3,-649.2 236.1,-628.1 27.6,3.3 58.1,17.9 90.4,40.4 -31,166.2 -67.5,466.1 26.2,649.5" /><path
         id="path298"
         style="fill:#252323;fill-opacity:1;fill-rule:nonzero;stroke:none"
         d="m 13569.5,12562.6 c 0,0 -370.4,-373.8 -475.7,-757.4 -105.4,-383.6 8.4,-611.3 54.8,-1020.2 46.3,-408.9 135.6,-978 135.6,-978 0,0 340.7,-185.5 458.7,-215 118.1,-29.5 484.8,21.1 484.8,21.1 l 59.1,-244.5 c 0,0 560.6,-248.7 716.6,-244.5 156,4.2 354.1,261.3 400.5,286.6 46.4,25.3 269.8,105.4 269.8,105.4 0,0 -113.8,1429.1 -122.3,1559.8 -8.4,130.7 -29.5,569.1 -71.6,649.2 -42.2,80.1 -265.6,240.3 -295.1,328.8 -29.5,88.5 -33.8,337.3 -33.8,337.3 l -1581.4,171.4" /><path
         id="path300"
         style="fill:#100f0d;fill-opacity:1;fill-rule:nonzero;stroke:none"
         d="m 13671.3,10924.1 c 12.6,-21 455.3,-636.5 480.6,-716.6 25.3,-80.1 75.8,-594.4 75.8,-594.4 l -237.6,-24.7 c 0,0 -39.2,478.6 -40.6,582.5 -1.4,104 -278.2,753.2 -278.2,753.2" /><g
         transform="scale(1.00241)"
         id="g302"><path
           id="path304"
           style="fill:#c37140;fill-opacity:1;fill-rule:nonzero;stroke:none"
           d="m 13465.3,14512.7 c 0,0 -395.3,-47.7 -736,-70.1 -340.6,-22.4 -365.8,70.1 -428.9,181.5 -63.1,111.5 -143,515.2 -58.9,822.2 84.2,307 96.7,853.7 96.7,853.7 h 336.4 c 0,0 -4.2,-257.9 59,-503.2 63,-245.4 134.5,-468.3 134.5,-468.3 0,0 122,42.1 214.5,21.1 0,0 193.5,368.7 475.2,447.2 281.7,78.5 447.8,-39.3 447.8,-39.3 0,0 86.3,-403.7 48.4,-563.5 -37.8,-159.8 43.5,-231.3 -175.9,-395.3 -219.4,-164 -412.8,-286 -412.8,-286" /></g><g
         transform="scale(1.03836)"
         id="g306"><path
           id="path308"
           style="fill:#434244;fill-opacity:1;fill-rule:nonzero;stroke:none"
           d="m 12221,16300 -676.7,-147.8 c 0,0 -86.5,-193.2 73.1,-250.1 l 644.1,132 -40.5,265.9" /></g><path
         id="path310"
         style="fill:#e9eef1;fill-opacity:1;fill-rule:nonzero;stroke:none"
         d="m 14243.9,15795.5 h -204.5 c 0,0 -288.7,-244.5 -470,-446.8 -181.2,-202.4 -290.8,-586 -290.8,-632.4 0,-46.3 366.7,-1070.7 375.1,-1159.2 8.5,-88.6 -21,-758.8 -37.9,-822.1 -16.9,-63.2 -46.3,-172.4 -46.3,-172.4 0,0 290.8,-261.8 767.2,-282.9 476.3,-21 814.2,111.5 814.2,111.5 0,0 290.2,601 315.5,685.3 25.3,84.3 290.9,982.2 290.9,994.9 0,12.6 -501.6,1601.9 -501.6,1601.9 l -136.8,74.4 -875,47.8" /><path
         id="path312"
         style="fill:#c0c4c7;fill-opacity:1;fill-rule:nonzero;stroke:none"
         d="m 13861,14608.5 c 0,0 -42.2,-451 50.6,-809.3 0,0 -231.9,349.8 -50.6,809.3" /><path
         id="path314"
         style="fill:#565759;fill-opacity:1;fill-rule:nonzero;stroke:none"
         d="m 12832.4,7020.5 c 11.2,241.7 106.8,281 101.2,562.1 -3.4,169.6 -102,326.8 -179.6,424.9 -103.7,-10.7 -192.3,-23.2 -210.4,-36.4 -46.4,-33.7 -145.4,-236.1 -109.6,-396.2 35.8,-160.2 69.6,-156 6.3,-339.4 -63.2,-183.4 -130.6,-184.1 -206.5,-490.4 -75.9,-306.3 67.4,-621.1 264.1,-623.9 70.9,-1 160.3,79.2 249.4,187.8 26.4,178 76.9,534.4 85.1,711.5" /><path
         id="path316"
         style="fill:#c37140;fill-opacity:1;fill-rule:nonzero;stroke:none"
         d="m 14175.8,15834.9 v -56.2 c 0,0 -64,-39.4 -114.5,-143.4 -50.6,-103.9 -11.3,-373.7 95.5,-365.3 106.8,8.4 438.4,289.4 618.3,370.9 179.9,81.5 343.8,106.8 343.8,106.8 l -27.7,87.2 c 0,0 -336.2,176.5 -431.5,183.8 -95.4,7.3 -483.9,-183.8 -483.9,-183.8" /><g
         transform="scale(1.03834)"
         id="g318"><path
           id="path320"
           style="fill:#c37140;fill-opacity:1;fill-rule:nonzero;stroke:none"
           d="m 14560.6,15166.2 c 0,0 -304.7,-18.9 -470.2,-579.2 -165.4,-560.3 -3.1,-1157.1 313.7,-1266.7 316.7,-109.6 572.4,197.9 572.4,197.9 0,0 531.9,-299.4 803.8,-356.2 272.1,-56.9 398,397.8 438.5,726.7 40.7,328.9 81.2,990.6 81.2,990.6 l -324.7,48.7 c 0,0 8,-162.4 -105.6,-349.1 -113.7,-186.8 -272.1,-377.6 -272.1,-377.6 0,0 -170.4,150.2 -288.2,211.1 0,0 -141.7,687.5 -748.8,753.8" /></g><path
         id="path322"
         style="fill:#a45330;fill-opacity:1;fill-rule:nonzero;stroke:none"
         d="m 15191,14477.4 c 0,0 177.1,-274.8 359.8,-440.9 l -63.1,-58.8 -130.9,170.9 v 0 c 0,0 -55,86.1 -63.5,96.3 -8.4,10.2 -102.3,232.5 -102.3,232.5" /><path
         id="path324"
         style="fill:#a45330;fill-opacity:1;fill-rule:nonzero;stroke:none"
         d="m 14918.4,14716.3 c 0,0 269.8,-64.6 587.4,36.6 0,0 -242.3,-183.3 -587.4,-36.6" /><path
         id="path326"
         style="fill:#df7f55;fill-opacity:1;fill-rule:nonzero;stroke:none"
         d="m 15873.9,14859.7 c 0,0 67.5,11.2 81.5,0 14.1,-11.3 118.1,-101.2 118.1,-101.2 0,0 0,0 -33.7,-174.2 -33.8,-174.3 50.5,-375.6 50.5,-375.6 -47.7,279.2 105.4,537.1 105.4,537.1 0,0 -177,156 -299.3,219.3 0,0 -75.7,367.3 -351.3,600.4 168.1,-259.3 328.8,-705.8 328.8,-705.8" /><path
         id="path328"
         style="fill:#df7f55;fill-opacity:1;fill-rule:nonzero;stroke:none"
         d="m 12899.2,15365.5 c 0,0 -71.7,223.5 -134.9,469.4 -23.9,92.6 -38.1,187 -46.6,268.8 v 0 c 0,0 21.3,-506.3 105.6,-763.5 l -160.2,-210.7 c 0,0 164.4,139.1 333,164.4 168.6,25.3 168.6,25.3 168.6,25.3 0,0 182.8,389.7 481.8,529 -18.2,-3.6 -36.8,-8 -56,-13.3 -282.4,-78.7 -476.3,-448.3 -476.3,-448.3 -92.8,21.1 -215,-21.1 -215,-21.1" /><g
         transform="scale(1.06543)"
         id="g330"><path
           id="path332"
           style="fill:#434244;fill-opacity:1;fill-rule:nonzero;stroke:none"
           d="m 15369.8,15342.7 c 33.7,16.8 831.3,-307.9 831.3,-307.9 0,0 97.5,-44.6 98.2,-45.1 0.7,-0.5 -63.9,-128.2 -63.9,-128.2 l -43.1,-97.1 -899.5,311.4 c 0,0 -110.8,173.2 77,266.9" /></g><g
         transform="scale(1.04716)"
         id="g334"><path
           id="path336"
           style="fill:#c37140;fill-opacity:1;fill-rule:nonzero;stroke:none"
           d="m 12133.1,15603.5 c 0,0 96.6,201.3 104.6,217.4 8.1,16.1 0,326.1 0,326.1 0,0 -52.3,144.9 -72.4,149 -20.1,4 -285.8,-60.4 -309.9,-63.1 -24.2,-2.7 -190.7,-91.3 -198.7,-120.8 -8,-29.5 104.7,-297.9 120.8,-343.5 16.1,-45.6 33.5,-165.1 33.5,-165.1 0,0 111.4,-106 124.9,-100.6 13.3,5.4 197.2,100.6 197.2,100.6" /></g><g
         transform="scale(1.04049)"
         id="g338"><path
           id="path340"
           style="fill:#434244;fill-opacity:1;fill-rule:nonzero;stroke:none"
           d="m 12196,16266.7 c 0,0 -43.4,-9.5 -43.3,-105.4 0.3,-121.6 83.8,-160 83.8,-160 h 64.8 l -4.1,298.7 -101.2,-33.3" /></g><g
         transform="scale(1.05915)"
         id="g342"><path
           id="path344"
           style="fill:#c37140;fill-opacity:1;fill-rule:nonzero;stroke:none"
           d="m 15655.5,14556.4 c 0,0 19.2,134.8 0.6,237.5 -18.7,102.8 -48.2,297.8 -54,425.1 -5.8,127.2 -19.7,126.6 -6.2,137.1 13.4,10.6 211.8,130.6 248.6,137.6 36.9,7 66.4,-28.9 66.4,-28.9 0,0 90.8,-10.4 111.3,-22.8 20.5,-12.3 40.4,-41.9 40.4,-41.9 0,0 70.2,-24.7 94.2,-55.5 24,-30.8 31.5,-49 31.5,-49 0,0 42.1,-20.7 68.3,-69.9 26.1,-49.3 43.4,-107 40.5,-101.8 -3,5.2 -170.1,-35.7 -193.1,-83.2 -23.1,-47.5 27.5,-193.7 0,-289.2 -27.6,-95.6 -141.6,-295 -146.9,-295.2 -5.3,-0.3 -87.9,5.2 -128.4,20.7 -40.6,15.4 -173.2,79.4 -173.2,79.4" /></g><g
         transform="scale(1.0519)"
         id="g346"><path
           id="path348"
           style="fill:#a45330;fill-opacity:1;fill-rule:nonzero;stroke:none"
           d="m 16130.2,15283.7 169.8,117.4 -31.8,49.4 -138,-166.8" /></g><g
         transform="scale(1.04442)"
         id="g350"><path
           id="path352"
           style="fill:#a45330;fill-opacity:1;fill-rule:nonzero;stroke:none"
           d="m 16300,15613.3 -176.1,-91.1 140.1,125.3 36,-34.2" /></g><g
         transform="scale(1.03387)"
         id="g354"><path
           id="path356"
           style="fill:#a45330;fill-opacity:1;fill-rule:nonzero;stroke:none"
           d="m 16300,15843 c 0,0 -163.4,-117.4 -158.2,-109.1 5,8.2 132.3,130.3 132.3,130.3 l 25.9,-21.2" /></g><g
         transform="scale(1.0688)"
         id="g358"><path
           id="path360"
           style="fill:#636567;fill-opacity:1;fill-rule:nonzero;stroke:none"
           d="m 16296.9,14849.2 c 3.1,-68.5 -49.9,-126.5 -118.3,-129.7 -68.4,-3.1 -126.4,49.9 -129.6,118.3 -3.1,68.5 49.8,126.5 118.2,129.6 68.5,3.2 126.5,-49.8 129.7,-118.2" /></g><g
         transform="scale(1.06363)"
         id="g362"><path
           id="path364"
           style="fill:#5e6061;fill-opacity:1;fill-rule:nonzero;stroke:none"
           d="m 12830.5,4351.44 -203.6,-364.7 2967.6,-1704.17 h 705.5 l -3469.5,2068.87" /></g><g
         transform="scale(1.15725)"
         id="g366"><path
           id="path368"
           style="fill:#939494;fill-opacity:1;fill-rule:nonzero;stroke:none"
           d="m 15389.3,3722.53 c 0,0 119.9,-62.56 208.8,0 l 701.9,9267.17 -134.8,-127.5 -775.9,-9139.67" /></g><g
         transform="scale(1.00783)"
         id="g370"><path
           id="path372"
           style="fill:#e7e7e6;fill-opacity:1;fill-rule:nonzero;stroke:none"
           d="m 15700.7,16300 v -518.7 l 292.8,-46 v 485.7 l -292.8,79" /></g><g
         transform="scale(1.09415)"
         id="g374"><path
           id="path376"
           style="fill:#a1a1a0;fill-opacity:1;fill-rule:nonzero;stroke:none"
           d="m 14462.1,15014.1 1437.1,366.1 -2509.4,359.5 200.3,72 2709.9,-431.5 -1568.2,-438.8 -269.7,72.7" /></g><g
         transform="scale(1.06137)"
         id="g378"><path
           id="path380"
           style="fill:#838585;fill-opacity:1;fill-rule:nonzero;stroke:none"
           d="m 12100.7,15998.1 135,-26.4 1567.6,254.2 206.6,74.1 h -249 l -1660.2,-301.9" /></g><g
         transform="scale(1.05384)"
         id="g382"><path
           id="path384"
           style="fill:#100f0d;fill-opacity:1;fill-rule:nonzero;stroke:none"
           d="m 16035.4,8111.19 c -1,0 -2,0.09 -3.1,0.09 -31.2,1.71 -55.2,28.38 -53.5,59.69 l 206.4,3861.53 c 1.6,31.2 27.7,55.1 59.6,53.5 31.2,-1.7 55.2,-28.3 53.5,-59.6 L 16092,8164.9 c -1.6,-30.27 -26.7,-53.71 -56.6,-53.71" /></g><g
         transform="scale(1.03588)"
         id="g386"><path
           id="path388"
           style="fill:#100f0d;fill-opacity:1;fill-rule:nonzero;stroke:none"
           d="m 16184.5,7402.33 -49.9,-933.8 c -1.7,-31.76 22.7,-58.89 54.5,-60.63 1,-0.1 2.1,-0.1 3.2,-0.1 30.4,0 55.8,23.85 57.4,54.55 l 50.3,939.98 h -115.5" /></g><g
         transform="scale(1.12649)"
         id="g390"><path
           id="path392"
           style="fill:#100f0d;fill-opacity:1;fill-rule:nonzero;stroke:none"
           d="m 15874.4,7191.54 c -1.4,0 -2.7,0.09 -4.1,0.18 -29.2,2.22 -51.1,27.69 -48.8,56.9 L 16192,12058 c 2.3,29.2 27.2,50.9 57,48.8 29.1,-2.3 51,-27.7 48.7,-56.9 l -370.5,-4809.45 c -2.1,-27.79 -25.3,-48.91 -52.8,-48.91" /></g><g
         transform="scale(1.09768)"
         id="g394"><path
           id="path396"
           style="fill:#100f0d;fill-opacity:1;fill-rule:nonzero;stroke:none"
           d="m 16190.9,6985.55 -96.2,-1249.27 c -2.3,-29.98 20.1,-56.12 50,-58.4 1.4,-0.09 2.9,-0.18 4.3,-0.18 28.1,0 52,21.68 54.2,50.2 l 96.8,1257.65 h -109.1" /></g><g
         transform="scale(1.0988)"
         id="g398"><path
           id="path400"
           style="fill:#252323;fill-opacity:1;fill-rule:nonzero;stroke:none"
           d="m 15024.6,7780.01 -73.2,-1272.2 1265.1,-552.52 83.5,1239.17 -1275.4,585.55" /></g><g
         transform="scale(1.04223)"
         id="g402"><path
           id="path404"
           style="fill:#e7e7e6;fill-opacity:1;fill-rule:nonzero;stroke:none"
           d="m 12270.3,15830.8 c -4,12.1 0,469.2 0,469.2 l 52.6,-8.1 137.5,-26.9 v -434.2 h -190.1" /></g><g
         transform="scale(1.05929)"
         id="g406"><path
           id="path408"
           style="fill:#c37140;fill-opacity:1;fill-rule:nonzero;stroke:none"
           d="m 14246.5,14948.5 c 3.3,44.8 6,78.7 6,78.7 0,0 98.1,-16.6 126,29.2 27.9,45.7 51.7,137.3 77.7,340.2 25.8,203 -20,286.6 0,405.9 19.8,119.4 16.5,256.7 3.3,344.3 -13.3,87.5 -49.1,119.4 -104.8,107.4 -55.8,-11.9 -175.1,45.8 -272.7,-99.5 -97.5,-145.2 -493.4,-831.7 -519.3,-871.5 -25.8,-39.8 -180.4,-156.9 -180.4,-156.9 v -177.8 h 864.2" /></g><path
         id="path410"
         style="fill:#a45330;fill-opacity:1;fill-rule:nonzero;stroke:none"
         d="m 15061,16216.1 c 0,0 12.7,-247.3 36.5,-297.9 0,0 36.1,-7 79.2,0 0,0 -89,144.7 -115.7,297.9" /><g
         transform="scale(1.08141)"
         id="g412"><path
           id="path414"
           style="fill:#34231f;fill-opacity:1;fill-rule:nonzero;stroke:none"
           d="m 14179.3,16002.4 c -14.3,31.3 -40.7,53.5 -51.1,67.8 -10.5,14.4 -24.8,39.2 -57.5,65.3 -32.6,26.1 -31.3,23.5 -58.7,35.3 -27.4,11.7 -53.5,28.7 -78.3,40.4 -24.8,11.8 -53.5,10.5 -100.5,20.9 -47,10.5 -45.9,28.4 -96.7,41.5 -51,13 -93.9,2.9 -135.7,2.9 -41.8,0 -70.6,23.5 -125.3,20.9 -54.8,-2.6 -90.8,-3.3 -148.2,-20.3 -50.3,-14.8 -71.1,-47.6 -119.5,-60.6 -48.3,-13.1 -67.9,-61.4 -94,-90.1 -26,-28.8 -32.6,-37.9 -60,-54.9 -27.4,-16.9 -41.8,-69.1 -45.7,-78.3 -3.9,-9.1 -17,-28.9 -47,-61.4 -30,-32.4 -28.7,-52.2 -50.1,-114.8 -21.4,-62.7 -5.3,-20.9 -21.4,-62.7 -16.1,-41.8 -19.9,-99.2 -19.9,-118.8 0,-19.6 -8.4,-49.4 -2.6,-107 4.6,-45.8 23.1,-106.7 42,-159.5 35.7,-121.6 90.3,-220.3 90.3,-220.3 l 109.3,-331.7 c 0,0 202.7,-50.4 278,-47.8 75.4,2.6 254.7,72.8 298.8,98.8 44.2,26 180.2,153.3 180.2,153.3 0,0 -94.4,122.2 -97,189.7 -2.6,67.6 -5.2,239.1 83.2,262.5 88.4,23.4 103.9,-167.6 103.9,-167.6 0,0 46.8,219.6 46.8,279.4 0,59.7 -5.2,215.7 26,228.7 30.2,12.6 128.5,3.2 134.8,2.6 h 0.1 v 0 c 0.1,0 0.3,0 0.3,0 0,0 3.8,4.4 7.8,15.1 7.1,14.4 16.9,36.7 19,56.6 6.1,57.4 3.1,82.7 -11.3,114.1" /></g></g></g></svg>