<?xml version="1.0" encoding="UTF-8" standalone="no"?>
<svg
   xmlns:dc="http://purl.org/dc/elements/1.1/"
   xmlns:cc="http://creativecommons.org/ns#"
   xmlns:rdf="http://www.w3.org/1999/02/22-rdf-syntax-ns#"
   xmlns:svg="http://www.w3.org/2000/svg"
   xmlns="http://www.w3.org/2000/svg"
   viewBox="0 0 2666.6667 2666.6667"
   height="2666.6667"
   width="2666.6667"
   xml:space="preserve"
   id="svg2"
   version="1.1"><metadata
     id="metadata8"><rdf:RDF><cc:Work
         rdf:about=""><dc:format>image/svg+xml</dc:format><dc:type
           rdf:resource="http://purl.org/dc/dcmitype/StillImage" /></cc:Work></rdf:RDF></metadata><defs
     id="defs6" /><g
     transform="matrix(1.3333333,0,0,-1.3333333,0,2666.6667)"
     id="g10"><g
       transform="scale(0.1)"
       id="g12"><g
         transform="scale(1.22699)"
         id="g14"><path
           id="path16"
           style="fill:none;fill-opacity:1;fill-rule:nonzero;stroke:none"
           d="M 16300,0 H 0 V 16300 H 16300 V 0" /></g><path
         id="path18"
         style="fill:#2e2d2d;fill-opacity:1;fill-rule:nonzero;stroke:none"
         d="m 915.582,13809.3 30.117,128 c 0,0 -37.648,33.7 -97.883,24.4 -60.238,-9.4 -286.117,-133.9 -293.644,-190.2 -7.531,-56.3 75.293,-293.5 90.348,-481.7 15.058,-188.3 17.875,-380.3 311.996,-448 294.114,-67.8 376.944,37.6 271.534,229.6 -105.41,192 -92.81,628.7 -93.46,643.8 -0.66,15 -219.008,94.1 -219.008,94.1" /><path
         id="path20"
         style="fill:#2e2d2d;fill-opacity:1;fill-rule:nonzero;stroke:none"
         d="m 3040.75,13291.6 118.59,100.6 c 0,0 1.26,390.7 -157.49,413.3 -158.74,22.6 -424.15,-169.4 -576.63,-256.9 -152.47,-87.5 -423.53,-67.1 -519.53,-156.4 -95.99,-89.3 -110.78,-394.2 97.08,-388.6 207.86,5.7 405.51,121.6 603.16,120.1 197.64,-1.5 434.82,167.9 434.82,167.9" /><path
         id="path22"
         style="fill:#c37140;fill-opacity:1;fill-rule:nonzero;stroke:none"
         d="m 2718.87,14934.9 c 0,0 -579.76,-609.9 -613.65,-628.7 -33.88,-18.8 -282.35,82.9 -534.59,0 -252.23,-82.8 -523.29,-297.4 -624.931,-368.9 -101.652,-71.5 -150.594,-101.7 -158.121,-131.8 -7.527,-30.1 -26.351,-109.2 30.117,-169.4 56.469,-60.2 112.946,-72.2 112.946,-72.2 0,0 37.644,60.9 101.649,60.9 63.99,0 86.58,-3.8 86.58,-3.8 0,0 75.3,105.5 259.77,113 184.47,7.5 425.41,82.8 425.41,82.8 0,0 414.11,-79 752.94,3.8 338.82,82.8 670.11,261.6 670.11,261.6 0,0 -184.47,690.9 -225.88,721 -41.41,30.1 -282.35,131.7 -282.35,131.7" /><path
         id="path24"
         style="fill:#bb633d;fill-opacity:1;fill-rule:nonzero;stroke:none"
         d="m 3486.87,13794.2 c 0,0 48.94,-391.5 0,-557.1 0,0 -293.65,150.5 -399.06,207 -105.41,56.5 -218.35,94.1 -282.35,71.5 -64,-22.5 -128,-154.3 -128,-154.3 0,0 37.64,3.8 41.41,-41.4 3.76,-45.2 48.94,-124.3 48.94,-124.3 0,0 131.77,-82.8 301.18,-286.1 169.41,-203.3 387.76,-489.4 658.82,-508.2 271.06,-18.8 508.23,463 602.35,696.5 94.12,233.4 174.46,568.2 47.7,673.7 -126.76,105.6 -382.76,211.7 -510.76,207.6 -128,-4.2 -380.23,-184.9 -380.23,-184.9" /><path
         id="path26"
         style="fill:#2e2d2d;fill-opacity:1;fill-rule:nonzero;stroke:none"
         d="m 4108.04,15183.4 -254.11,218.4 c 0,0 -282.36,51.8 -609.89,-91.7 -327.52,-143.6 -525.17,-375.2 -525.17,-375.2 0,0 0,-251.2 129.88,-461.6 129.88,-210.4 378.35,-391.1 378.35,-391.1 l 225.89,77.2 33.88,-365.2 c 0,0 321.88,-197.6 592.94,-220.2 271.06,-22.6 372.7,0 372.7,0 0,0 99.64,536.7 62.12,585.4 -37.52,48.7 -259.76,656.9 -423.53,848.9 -163.76,192 16.94,175.1 16.94,175.1" /><path
         id="path28"
         style="fill:#c37140;fill-opacity:1;fill-rule:nonzero;stroke:none"
         d="m 4292.51,15401.8 h -438.58 c 0,0 -73.42,-71.6 0,-376.5 73.41,-305 327.53,-672 513.88,-847.1 l 146.82,-18.8 c -73.41,854.6 -62.12,764.2 -62.12,764.2 l -160,478.2" /><path
         id="path30"
         style="fill:#bb633d;fill-opacity:1;fill-rule:nonzero;stroke:none"
         d="m 6218.88,14050.2 v -470.6 c 0,0 -70.37,-248.4 -32.72,-515.7 37.64,-267.3 64,-1009 64,-1009 0,0 244.7,-11.3 244.7,0 0,11.3 3.77,338.9 105.41,756.7 101.65,417.9 56.47,666.4 52.71,786.9 -3.77,120.4 1.34,610.7 1.34,610.7 l -435.44,-159" /><path
         id="path32"
         style="fill:#e9eef1;fill-opacity:1;fill-rule:nonzero;stroke:none"
         d="m 5480.27,14356.8 c 16.95,-9.2 356.04,133 378.49,116.5 22.46,-16.5 85.62,-174.1 85.62,-174.1 0,0 -145.99,-173.7 -394.46,-264 -248.46,-90.4 -602.35,-45.2 -602.35,-45.2 0,0 -432.94,150.6 -432.94,169.4 0,18.8 -248.47,236.3 -301.17,649 -52.71,412.6 79.05,593.4 79.05,593.4 0,0 158.12,30.1 350.12,105.4 192,75.3 485.65,120.4 813.18,0 327.52,-120.5 463.91,-378.5 502.16,-423.5 38.26,-45.1 -477.7,-726.9 -477.7,-726.9" /><path
         id="path34"
         style="fill:#34231f;fill-opacity:1;fill-rule:nonzero;stroke:none"
         d="m 6769.48,15269 129.44,44.9 c 0,0 16.79,282.6 -300.14,331.2 -316.92,48.5 -489.66,-160.2 -710.98,-188.1 -221.32,-27.9 -372.8,120.7 -599.52,99.1 0,0 281.03,-128.8 383.6,-287.1 102.56,-158.4 280.69,-341.9 458.83,-293.3 178.13,48.6 143.95,241.1 638.77,293.3" /><path
         id="path36"
         style="fill:#a45532;fill-opacity:1;fill-rule:nonzero;stroke:none"
         d="m 5051.1,14047.2 c 0,0 296.43,-7 403.41,25.1 106.97,32.1 -79.02,126.7 -115.73,118.2 -36.7,-8.5 -104.46,-25.5 -112.94,-31.1 -8.47,-5.6 -174.74,-112.2 -174.74,-112.2" /><path
         id="path38"
         style="fill:#361c19;fill-opacity:1;fill-rule:nonzero;stroke:none"
         d="m 6779.48,15269 129.44,44.9 c 0,0 16.79,282.6 -300.14,331.2 -316.92,48.5 -489.66,-160.2 -710.98,-188.1 -221.32,-27.9 -372.8,120.7 -599.52,99.1 0,0 281.03,-128.8 383.6,-287.1 102.56,-158.4 280.69,-341.9 458.83,-293.3 178.13,48.6 143.95,241.1 638.77,293.3" /><path
         id="path40"
         style="fill:#e9eef1;fill-opacity:1;fill-rule:nonzero;stroke:none"
         d="m 6535.56,15207.8 43.32,57 c 0,0 7.07,69 133.02,87 125.95,18 223.12,-43.2 255.51,-115.2 32.38,-72 -215.93,-115.2 -215.93,-115.2 l -215.92,86.4" /><path
         id="path42"
         style="fill:#361c19;fill-opacity:1;fill-rule:nonzero;stroke:none"
         d="m 6017.35,14846.1 113.36,129.6 c 0,0 210.53,329.3 674.75,307.7 464.24,-21.6 653.17,-388.7 626.18,-750.3 -26.99,-361.7 -388.66,-529.1 -388.66,-529.1 0,0 -431.84,-48.5 -523.61,-26.9 -91.77,21.6 -188.94,145.7 -237.51,194.3 -48.59,48.6 -242.92,199.7 -264.51,199.7 -21.59,0 -205.12,-43.2 -226.72,0 -21.59,43.2 -48.58,199.7 0,286.1 48.58,86.4 226.72,188.9 226.72,188.9" /><path
         id="path44"
         style="fill:#c37140;fill-opacity:1;fill-rule:nonzero;stroke:none"
         d="m 6160.4,14808.4 58.48,-93.6 -58.48,-305.9 c 0,0 -114.92,-72 -202.76,-46.8 -87.84,25.2 -91.43,10.8 -109.43,36 -17.99,25.2 79.17,277.1 93.57,302.3 14.39,25.2 218.62,108 218.62,108" /><path
         id="path46"
         style="fill:#c37140;fill-opacity:1;fill-rule:nonzero;stroke:none"
         d="m 6654.32,14209.2 c -37.79,102.5 -134.95,145.7 -210.53,178.1 -75.57,32.4 -210.52,21.6 -221.31,48.6 -10.8,27 43.18,75.6 70.17,175.4 26.99,99.9 0,197.1 -134.95,132.3 -134.95,-64.8 -97.16,-248.3 -86.37,-264.5 l -148.44,-75.6 c 0,0 8.09,89.1 56.68,207.8 48.57,118.8 180.83,197.1 180.83,197.1 -51.28,64.7 -29.69,167.3 -29.69,167.3 -84.62,-23.1 -169.23,6.3 -245.74,60.4 -97.59,-88.2 -174.34,-255.6 -261.68,-373.5 -107.96,-145.7 -464.23,-431.8 -464.23,-431.8 l -107.96,-183.6 c 86.37,-16.2 161.94,43.2 161.94,43.2 0,0 145.75,-43.2 280.7,-10.8 134.95,32.4 394.06,234.1 394.06,234.1 l 91.77,-23.6 c -37.79,-199.7 -21.6,-356.2 302.29,-415.6 323.88,-59.4 761.12,129.5 761.12,129.5 -151.15,-5.3 -350.88,102.6 -388.66,205.2" /><path
         id="path48"
         style="fill:#100f0d;fill-opacity:1;fill-rule:nonzero;stroke:none"
         d="m 3821.3,14093.5 c 0,0 -193.25,7.5 -368.31,65.9 l 33.88,-365.2 52.8,-30.3 37.55,244.9 c 0,0 143.69,-50.8 244.08,84.7" /><path
         id="path50"
         style="fill:#c37140;fill-opacity:1;fill-rule:nonzero;stroke:none"
         d="m 4909.92,15354.9 c 0,0 -207.05,-2.1 -331.29,-182.8 -124.24,-180.7 0,-440.5 0,-440.5 0,0 -180.71,-557.1 -203.29,-1001.4 0,0 -67.77,-222.1 -71.53,-504.4 -3.77,-282.4 -124.23,-640 -124.23,-963.8 0,-323.8 75.29,-794.4 75.29,-794.4 l 289.88,18.9 c 0,0 -3.77,391.5 67.76,692.7 71.53,301.1 82.83,640 82.83,640 0,0 90.35,218.3 131.76,534.6 41.41,316.2 45.18,410.1 45.18,410.1 0,0 301.17,391.7 387.76,628.9 0,0 361.41,305 387.76,613.7 26.36,308.7 -289.88,407 -737.88,348.4" /><path
         id="path52"
         style="fill:#a45532;fill-opacity:1;fill-rule:nonzero;stroke:none"
         d="m 4732.98,14983.9 -154.35,-252.3 -37.54,110.2 z" /><path
         id="path54"
         style="fill:#f0f0ef;fill-opacity:1;fill-rule:nonzero;stroke:none"
         d="m 1003.41,13979.1 c -22.722,-16.6 -42.211,-30.9 -57.711,-41.8 -101.652,-71.5 -150.594,-101.7 -158.121,-131.8 -7.527,-30.1 -26.351,-109.2 30.117,-169.4 56.477,-60.2 112.946,-72.2 112.946,-72.2 0,0 37.644,60.9 101.649,60.9 63.99,0 86.58,-3.8 86.58,-3.8 0,0 5.08,7.1 15.72,17.7 -84.18,132.6 -117.83,262.1 -131.18,340.4" /><path
         id="path56"
         style="fill:#f0f0ef;fill-opacity:1;fill-rule:nonzero;stroke:none"
         d="m 3001.85,13484.9 c -76.89,31.5 -149.68,47.2 -196.39,30.7 -64,-22.5 -128,-154.3 -128,-154.3 0,0 37.64,3.8 41.41,-41.4 3.77,-45.2 48.94,-124.3 48.94,-124.3 0,0 35.38,-22.2 92.97,-71.9 26.83,169.6 96,293.6 141.07,361.2" /><path
         id="path58"
         style="fill:#c37140;fill-opacity:1;fill-rule:nonzero;stroke:none"
         d="m 4254.87,11467.6 c 0,0 -1.89,-73.4 -7.53,-225.8 -5.65,-152.5 75.29,-203.3 171.29,-233.5 96,-30.1 114.82,-33.8 152.47,-71.5 37.65,-37.6 146.82,-178.8 195.77,-160 48.94,18.8 -94.12,216.5 -94.12,216.5 0,0 126.12,-20.7 257.88,-105.4 131.76,-84.7 171.29,-88.5 201.41,-77.2 30.12,11.3 11.29,54.6 11.29,54.6 0,0 144.95,-77.2 175.06,-30.1 30.12,47 -111.06,144.9 -101.64,144.9 9.41,0 152.47,-32 178.82,-3.7 26.35,28.2 -69.65,92.2 -152.47,126.1 -82.83,33.9 -308.71,97.9 -310.59,107.3 -1.88,9.4 48.95,7.5 96,1.8 47.06,-5.6 109.18,15.1 111.06,32 1.89,17 -118.94,101.7 -225.12,114.9 -106.17,13.1 -307.58,-43.3 -335.82,-22.6 -28.23,20.7 -33.88,150.6 -33.88,150.6 l -148.71,56.4 -141.17,-75.3" /><path
         id="path60"
         style="fill:#a45532;fill-opacity:1;fill-rule:nonzero;stroke:none"
         d="m 4836.51,11079.9 c 0,0 265.41,-178.8 306.82,-214.6 l 64.12,-28.4 c 0,0 -131.88,180.9 -370.94,243" /><path
         id="path62"
         style="fill:#a45532;fill-opacity:1;fill-rule:nonzero;stroke:none"
         d="m 4934.39,11121.3 c -5.62,0.5 282.36,-141.2 282.36,-141.2 l 80.83,-12.2 c 0,0 -210.71,138.3 -363.19,153.4" /><path
         id="path64"
         style="fill:#bb633d;fill-opacity:1;fill-rule:nonzero;stroke:none"
         d="m 6324.51,12179.2 c -8.47,-2.9 -74.35,-124.3 -74.35,-124.3 0,0 -26.87,-64.9 -75.08,-112.9 -48.21,-48 -56.69,-144 -51.04,-245.7 5.65,-101.6 69.06,-101.6 99.47,-73.4 30.41,28.3 30.41,146.9 30.41,146.9 0,0 115.77,-28.3 211.76,-79.1 96,-50.8 259.77,-225.9 293.65,-189.2 33.88,36.7 -73.41,177.9 -73.41,177.9 0,0 63.06,-32.9 145.88,-74.3 82.82,-41.5 107.3,-65.9 154.36,-65.9 47.05,0 43.29,43.3 43.29,43.3 0,0 47.06,13.1 33.88,47 -13.17,33.9 -135.53,107.3 -135.53,107.3 0,0 111.06,-41.4 124.24,0 13.17,41.4 -56.47,59 -193.89,101 -137.41,42.1 -335.05,132.4 -350.11,155 -15.06,22.6 -13.18,62.1 -13.18,62.1 l -52.7,86.6 -117.65,37.7" /><path
         id="path66"
         style="fill:#a45532;fill-opacity:1;fill-rule:nonzero;stroke:none"
         d="m 6694.39,11806.5 c 0,0 232.94,-149.7 273.88,-175.1 40.94,-25.4 61.18,-48.9 61.18,-48.9 l 27.31,15.5 c 0,0 -32.02,40.5 -81.43,68.7 -49.41,28.2 -280.94,139.8 -280.94,139.8" /><path
         id="path68"
         style="fill:#a45532;fill-opacity:1;fill-rule:nonzero;stroke:none"
         d="m 6927.8,11736.8 -161.41,85.2 255.28,-103.3 c 0,0 -46.81,2.1 -93.87,18.1" /><path
         id="path70"
         style="fill:#a45532;fill-opacity:1;fill-rule:nonzero;stroke:none"
         d="m 6192.22,14757.4 c 0,0 -94.06,-43.6 -120.8,-111.8 -26.75,-68.3 -0.09,-166.5 -0.09,-166.5 l -91.76,-189 -91.77,23.6 83.45,159.6 c 0,0 24.05,269.4 220.97,284.1" /><path
         id="path72"
         style="fill:#2e2d2d;fill-opacity:1;fill-rule:nonzero;stroke:none"
         d="m 7075.57,10818.2 c 0,0 -121.41,17 -152.47,17 -31.06,0 -299.3,-110.1 -319.06,-175.1 -19.77,-64.9 98.82,-242.8 107.29,-423.5 8.47,-180.7 2.83,-384 192,-471.5 189.18,-87.6 406.59,-8.5 415.06,67.7 8.47,76.3 -33.88,129.9 -96,288 -62.12,158.1 -5.65,369.9 -50.82,471.6 -45.18,101.6 -96,225.8 -96,225.8" /><path
         id="path74"
         style="fill:#2e2d2d;fill-opacity:1;fill-rule:nonzero;stroke:none"
         d="m 7601.68,10625 c 0,0 131.77,-166.3 165.65,-264.2 33.88,-97.9 33.88,-233.4 109.17,-320 75.3,-86.6 304.95,-67.7 357.65,-26.3 52.71,41.4 48.95,111.2 -64,266.4 -112.94,155.2 -112.94,385.4 -112.94,385.4 0,0 -271.06,59.7 -293.65,48.4 -22.58,-11.3 -161.88,-89.7 -161.88,-89.7" /><path
         id="path76"
         style="fill:#eeb289;fill-opacity:1;fill-rule:nonzero;stroke:none"
         d="m 9435.09,10714.7 -256.01,-89.7 c 0,0 -180.41,9 -56.46,114.2 123.96,105.1 336,214.6 344.47,172.2 8.47,-42.3 -32,-196.7 -32,-196.7" /><path
         id="path78"
         style="fill:#c37140;fill-opacity:1;fill-rule:nonzero;stroke:none"
         d="m 8746.15,11470.5 c 0,0 -329.41,-336 -524.23,-386.9 -194.83,-50.8 -288,19.8 -584.47,-14.1 -296.47,-33.9 -573.18,-231.5 -708.7,-290.8 0,0 -90.36,-56.5 -81.89,-172.2 8.47,-115.8 112.94,-144 112.94,-144 0,0 70.59,53.6 138.35,56.4 67.77,2.9 84.71,-8.4 84.71,-8.4 0,0 135.53,53.6 299.29,50.8 163.77,-2.8 917.65,-84.7 1279.06,-45.2 361.41,39.5 640.91,220.2 640.91,220.2 0,0 -64.91,144.1 -231.5,307.8 -166.59,163.8 -424.47,426.4 -424.47,426.4" /><path
         id="path80"
         style="fill:#2e2d2d;fill-opacity:1;fill-rule:nonzero;stroke:none"
         d="m 10297.2,11953.3 c 11.3,16.9 112.9,165.6 112.9,165.6 0,0 -139.3,109.2 -335,88.5 -195.77,-20.7 -338.84,-92.2 -410.36,-103.5 -71.53,-11.3 -301.18,-22.6 -489.41,-150.6 -188.24,-128 -372.71,-421.7 -387.77,-436.7 -15.06,-15.1 -41.41,-46.1 -41.41,-46.1 0,0 22.59,-187.3 188.23,-364.3 165.65,-176.9 500.71,-391.5 500.71,-391.5 0,0 240.77,7.5 489.33,79.1 248.58,71.5 334.98,192 436.68,239 101.8,47.1 -63.9,920.5 -63.9,920.5" /><path
         id="path82"
         style="fill:#c37140;fill-opacity:1;fill-rule:nonzero;stroke:none"
         d="m 10540,12207.4 c 0,0 -186.3,-58.3 -338.8,-88.5 0,0 -282.35,-86.6 -276.7,-391.5 5.65,-304.9 436.6,-694.6 436.6,-694.6 l 226.9,46.4 c 0,0 81.9,857.1 81.9,879.7 0,22.6 -129.9,248.5 -129.9,248.5" /><path
         id="path84"
         style="fill:#bb633d;fill-opacity:1;fill-rule:nonzero;stroke:none"
         d="m 12305.9,11407.2 c -0.3,-43.2 43.1,-982.4 43.1,-982.4 0,0 -33.5,-112.9 -43.1,-466.8 -9.6,-353.9 0,-1035.3 0,-1035.3 h 231.3 c 0,0 48.9,368.9 150.6,756.7 101.6,387.8 86.6,689 75.3,794.4 -11.3,105.4 41.4,662.6 41.4,662.6 l -301.2,240.2 -197.4,30.6" /><path
         id="path86"
         style="fill:#bb633d;fill-opacity:1;fill-rule:nonzero;stroke:none"
         d="m 12401.8,9067.6 c -8.5,-2.8 -74.4,-124.3 -74.4,-124.3 0,0 -26.9,-64.9 -75.1,-112.9 -48.2,-48 -56.7,-144 -51,-245.6 5.6,-101.7 69,-101.7 99.5,-73.5 30.4,28.3 30.4,146.9 30.4,146.9 0,0 115.7,-28.3 211.7,-79.1 96,-50.8 259.8,-225.9 293.7,-189.2 33.9,36.8 -73.4,177.9 -73.4,177.9 0,0 63,-32.9 145.8,-74.3 82.9,-41.4 107.3,-65.9 154.4,-65.9 47.1,0 43.3,43.3 43.3,43.3 0,0 47.1,13.2 33.9,47 -13.2,33.9 -135.6,107.3 -135.6,107.3 0,0 111.1,-41.4 124.3,0 13.2,41.5 -56.5,59 -193.9,101.1 -137.4,42 -335.1,132.3 -350.1,154.9 -15.1,22.6 -100.3,205.2 -100.3,205.2 l 34.4,-56.5 -117.6,37.7" /><path
         id="path88"
         style="fill:#a45532;fill-opacity:1;fill-rule:nonzero;stroke:none"
         d="m 12771.6,8694.9 c 0,0 233,-149.7 273.9,-175.1 41,-25.4 61.2,-48.9 61.2,-48.9 l 27.3,15.5 c 0,0 -32,40.5 -81.4,68.7 -49.4,28.2 -281,139.8 -281,139.8" /><path
         id="path90"
         style="fill:#a45532;fill-opacity:1;fill-rule:nonzero;stroke:none"
         d="m 13005,8625.2 -161.4,85.2 255.3,-103.3 c 0,0 -46.8,2.1 -93.9,18.1" /><path
         id="path92"
         style="fill:#e9eef1;fill-opacity:1;fill-rule:nonzero;stroke:none"
         d="m 12302.6,11317.2 c 0,0 -201.2,-182.7 -432.7,-326.7 -231.5,-144 -491.3,-161 -629.6,-144 -138.4,16.9 -440.5,233.9 -449,232.7 -8.4,-1.2 -203.3,0 -203.3,0 0,0 -208.9,220.6 -225.9,509.2 -16.9,288.7 177.9,619 177.9,619 0,0 299.3,135.5 561.9,189.2 262.6,53.6 621.2,33.9 886.6,-36.7 265.4,-70.6 336,-451.8 336,-451.8 l -21.9,-590.9" /><path
         id="path94"
         style="fill:#c37140;fill-opacity:1;fill-rule:nonzero;stroke:none"
         d="m 12228.7,12118.9 c 0,0 -105.6,-56.4 -139.5,-154.3 -33.9,-97.9 -90.4,-327.5 -180.7,-463.1 -90.4,-135.5 -380.2,-426.3 -425.4,-485.6 -45.2,-59.3 -39.5,-127.1 -28.2,-135.5 11.2,-8.5 107.2,51.6 107.2,51.6 0,0 33.9,2 144,18.9 110.2,17 522.6,361.6 522.6,361.6 0,0 92.9,621.5 95.7,649.5 2.9,28 -95.7,156.9 -95.7,156.9" /><path
         id="path96"
         style="fill:#c37140;fill-opacity:1;fill-rule:nonzero;stroke:none"
         d="m 11511.3,10953.8 -56.4,-73.4 c 0,0 153,-0.2 293.4,85.2 140.4,85.3 90.5,95.5 14.3,103.9 -76.2,8.5 -251.3,-115.7 -251.3,-115.7" /><path
         id="path98"
         style="fill:#c37140;fill-opacity:1;fill-rule:nonzero;stroke:none"
         d="m 11138.6,12244.9 c 0,0 -290.8,-91.1 -375.5,-345.3 -84.7,-254.1 70.6,-429.1 70.6,-429.1 0,0 -73.4,-248.5 -121.4,-437.7 -48,-189.2 -70.6,-440.4 -70.6,-440.4 0,0 -73.4,-205.2 -107.3,-521.5 -33.9,-316.2 -52.7,-391.5 -52.7,-391.5 0,0 -131.8,-293.6 -131.8,-632.5 0,-338.8 0,-809.4 0,-809.4 l 237.2,30.1 c 0,0 28.2,342.6 157.2,711.6 128.9,368.9 140.2,707.7 140.2,707.7 0,0 131.8,286.2 195.8,576 64,289.9 82.8,421.7 82.8,421.7 0,0 297.4,240.9 372.7,534.6 0,0 342.2,320 349.9,598.6 7.7,278.5 -188,534.4 -747.1,427.1" /><path
         id="path100"
         style="fill:#a45532;fill-opacity:1;fill-rule:nonzero;stroke:none"
         d="m 10839.3,11697.3 c -28.7,-27.4 -55.5,-61.1 -77.9,-92.8 28.4,-84.6 72.3,-134 72.3,-134 l 99.7,320.9 c 0,0 -15,-18.8 -94.1,-94.1" /><path
         id="path102"
         style="fill:#a45532;fill-opacity:1;fill-rule:nonzero;stroke:none"
         d="m 11562.1,11377.3 -26.3,-158.1 c 0,0 149.3,139.7 252.9,314.9 -112.7,-114.7 -226.6,-156.8 -226.6,-156.8" /><path
         id="path104"
         style="fill:#c37140;fill-opacity:1;fill-rule:nonzero;stroke:none"
         d="m 10410.1,8658.8 c 0,0 -79.9,-376.2 -85.5,-528.6 -5.7,-152.5 75.3,-203.3 171.3,-233.4 96,-30.1 114.8,-33.9 152.4,-71.6 37.7,-37.6 146.9,-178.8 195.8,-160 48.9,18.9 -94.1,216.5 -94.1,216.5 0,0 126.1,-20.7 257.9,-105.4 131.7,-84.7 171.3,-88.5 201.4,-77.2 30.1,11.3 11.3,54.6 11.3,54.6 0,0 144.9,-77.2 175,-30.1 30.2,47 -111,144.9 -101.6,144.9 9.4,0 152.5,-32 178.8,-3.7 26.4,28.2 -69.6,92.2 -152.5,126.1 -82.8,33.9 -308.7,97.9 -310.5,107.3 -1.9,9.4 48.9,7.5 96,1.9 47,-5.7 109.1,15 111,32 1.9,16.9 -118.9,101.6 -225.1,114.8 -106.2,13.2 -307.6,-43.3 -335.8,-22.6 -28.3,20.7 -47.6,207.1 -47.6,207.1 h -135 l -63.2,227.4" /><path
         id="path106"
         style="fill:#a45532;fill-opacity:1;fill-rule:nonzero;stroke:none"
         d="m 10913.8,7968.3 c 0,0 265.4,-178.8 306.8,-214.6 l 64.1,-28.4 c 0,0 -131.9,180.9 -370.9,243" /><path
         id="path108"
         style="fill:#a45532;fill-opacity:1;fill-rule:nonzero;stroke:none"
         d="m 11011.6,8009.7 c -5.6,0.6 282.4,-141.2 282.4,-141.2 l 80.8,-12.2 c 0,0 -210.7,138.3 -363.2,153.4" /><path
         id="path110"
         style="fill:#100f0d;fill-opacity:1;fill-rule:nonzero;stroke:none"
         d="m 9964.03,10925.5 c 0,0 -158.12,-8.4 -177.88,-14.1 -19.76,-5.6 -384.03,-175.1 -384.03,-175.1 l 32.97,-21.6 156.22,13.3 194.84,113.1 177.88,84.4" /><path
         id="path112"
         style="fill:#f0f0ef;fill-opacity:1;fill-rule:nonzero;stroke:none"
         d="m 7101.65,10870.1 c -69.76,-38.2 -128.83,-72.1 -172.9,-91.4 0,0 -90.36,-56.5 -81.89,-172.2 8.47,-115.8 112.94,-144 112.94,-144 0,0 70.59,53.6 138.35,56.4 67.77,2.9 84.71,-8.4 84.71,-8.4 0,0 3.27,1.3 9.38,3.4 -76.51,155.2 -89.91,287.4 -90.59,356.2" /><path
         id="path114"
         style="fill:#361c19;fill-opacity:1;fill-rule:nonzero;stroke:none"
         d="m 13162.2,12229.4 129.5,45 c 0,0 16.7,282.5 -300.2,331.1 -316.9,48.6 -489.6,-160.1 -711,-188 -221.3,-27.9 -491.7,43 -718.4,21.4 0,0 309.9,-168 506.2,-294.7 158.5,-102.4 277,-256.6 455.1,-208 178.2,48.5 144,241.1 638.8,293.2" /><path
         id="path116"
         style="fill:#e9eef1;fill-opacity:1;fill-rule:nonzero;stroke:none"
         d="m 12918.3,12168.3 43.3,57 c 0,0 7.1,68.9 133,86.9 126,18 223.2,-43.2 255.5,-115.1 32.4,-72 -215.9,-115.2 -215.9,-115.2 l -215.9,86.4" /><path
         id="path118"
         style="fill:#361c19;fill-opacity:1;fill-rule:nonzero;stroke:none"
         d="m 13188.2,12243.9 c -464.2,21.5 -674.8,-307.7 -674.8,-307.7 l -113.3,-129.6 c 0,0 -178.1,-102.6 -226.7,-188.9 -8.6,-15.2 -14.8,-32.6 -19.1,-51.2 h 144.5 v -249.7 c 47,5.6 91.3,14.8 101.3,14.8 21.6,0 215.9,-151.2 264.5,-199.7 48.6,-48.6 145.7,-172.8 237.5,-194.4 91.8,-21.6 523.6,27 523.6,27 0,0 361.7,167.4 388.7,529 27,361.7 -162,728.8 -626.2,750.4" /><path
         id="path120"
         style="fill:#c37140;fill-opacity:1;fill-rule:nonzero;stroke:none"
         d="m 12543.1,11768.8 58.5,-93.5 -58.5,-305.9 c 0,0 -114.9,-72 -202.7,-46.8 -87.9,25.2 -91.5,10.8 -109.5,36 -18,25.2 79.2,277.1 93.6,302.3 14.4,25.2 218.6,107.9 218.6,107.9" /><path
         id="path122"
         style="fill:#c37140;fill-opacity:1;fill-rule:nonzero;stroke:none"
         d="m 13037.1,11169.6 c -37.8,102.6 -135,145.8 -210.6,178.2 -75.5,32.4 -210.5,21.6 -221.3,48.6 -10.8,26.9 43.2,75.5 70.2,175.4 27,99.9 0,197 -135,132.2 -134.9,-64.7 -97.1,-248.3 -86.3,-264.5 l -148.5,-75.5 c 0,0 8.1,89 56.7,207.8 48.6,118.8 180.8,197 180.8,197 -51.2,64.8 -29.7,167.4 -29.7,167.4 -84.6,-23.1 -169.2,6.2 -245.7,60.3 -57.4,-51.8 -72.2,-227.2 -121.6,-307.6 l -35.3,-312.3 c 87.8,57.7 31.7,-71.7 31.7,-71.7 l 219.8,-54.3 c -37.8,-199.7 -21.6,-356.3 302.3,-415.6 323.9,-59.4 761.1,129.5 761.1,129.5 -151.1,-5.4 -350.9,102.6 -388.6,205.1" /><path
         id="path124"
         style="fill:#a45532;fill-opacity:1;fill-rule:nonzero;stroke:none"
         d="m 12575,11717.9 c 0,0 -94.1,-43.6 -120.8,-111.9 -26.8,-68.2 -0.1,-166.5 -0.1,-166.5 l -91.8,-188.9 -91.8,23.6 83.5,159.6 c 0,0 24,269.4 221,284.1" /><path
         id="path126"
         style="fill:#2e2d2d;fill-opacity:1;fill-rule:nonzero;stroke:none"
         d="m 15334.4,6848.4 c 0,15 -41.4,108.1 -41.4,108.1 0,0 -263.6,249.5 -316.3,264.6 -52.7,15 -203.3,37.6 -240.9,0 -37.7,-37.7 -207.1,-353.9 -188.3,-391.6 18.9,-37.6 259.8,-18.8 376.5,-30.1 116.7,-11.3 203.3,-33.9 203.3,-33.9 h 180.7 l 26.4,82.9" /><path
         id="path128"
         style="fill:#2e2d2d;fill-opacity:1;fill-rule:nonzero;stroke:none"
         d="m 13681.7,7605.1 c 0,0 -164.8,124.2 -255.6,101.6 -90.8,-22.6 -252.7,-146.8 -264,-229.6 -11.3,-82.9 192,-301.2 214.6,-399.1 22.6,-97.9 26.4,-233.4 124.3,-338.8 97.8,-105.4 308.7,-33.9 361.4,0 52.7,33.9 -82.8,263.5 -124.3,357.6 -41.4,94.1 -18.8,421.9 -18.8,421.9 l -37.6,86.4" /><g
         transform="scale(1.07125)"
         id="g130"><path
           id="path132"
           style="fill:#c37140;fill-opacity:1;fill-rule:nonzero;stroke:none"
           d="m 14490.2,6898.94 -49.2,-175.78 309.2,-252.97 c 0,0 -344.3,-5.51 -474.4,23.62 0,0 -7.1,-104.46 -154.7,-178.3 0,0 818.9,-305.72 1005.1,-390.1 186.3,-84.3 347.9,-87.85 632.7,-84.3 284.6,3.55 393.5,21.1 456.8,144.13 63.2,122.94 84.3,263.53 -130,463.85 -214.5,200.33 -998.1,723.92 -998.1,723.92 0,0 -323.3,-28.38 -347.9,-59.84 -24.7,-31.55 -249.5,-214.23 -249.5,-214.23" /></g><g
         transform="scale(1.03272)"
         id="g134"><path
           id="path136"
           style="fill:#a45532;fill-opacity:1;fill-rule:nonzero;stroke:none"
           d="m 15508.4,7356.8 c 0,0 87.4,-51.03 113,-116.58 25.5,-65.66 -72.9,-590.58 -72.9,-590.58 l -247.9,61.97 255.1,-178.65 30.1,-247.89 v -110 l 290.8,-21.21 101.7,-85.02 62.3,95.96 c 0,0 245,567.83 259.4,825.4 l -649.5,450.46 -142.1,-83.86" /></g><path
         id="path138"
         style="fill:#c37140;fill-opacity:1;fill-rule:nonzero;stroke:none"
         d="M 15078.4,8267.6 14604,7985.3 c 0,0 -225.9,18.8 -365.2,0 -139.2,-18.8 -538.3,-229.7 -673.8,-301.2 -135.6,-71.5 -135.6,-71.5 -135.6,-71.5 0,0 -7.5,-131.8 0,-177 7.6,-45.1 124.3,-82.8 124.3,-82.8 h 94.1 c 0,0 60.2,105.4 293.6,116.7 233.4,11.3 545.9,60.3 545.9,60.3 0,0 323.8,-79.1 689,11.3 365.1,90.3 -97.9,726.5 -97.9,726.5" /><path
         id="path140"
         style="fill:#2e2d2d;fill-opacity:1;fill-rule:nonzero;stroke:none"
         d="m 15929.2,8841.9 43.7,157.7 c 0,0 -318.5,39.7 -548.2,-78.8 -229.6,-118.6 -327.5,-378.3 -327.5,-378.3 0,0 -274.8,-256 -256,-587.3 18.8,-331.3 628.7,-753 628.7,-753 0,0 289.9,109.2 459.3,244.7 169.4,135.6 233.4,237.2 233.4,237.2 l -99.8,107.3 c 0,0 -201.4,517.7 -205.1,544 -3.8,26.4 71.5,506.5 71.5,506.5" /><g
         transform="scale(1.01836)"
         id="g142"><path
           id="path144"
           style="fill:#c37140;fill-opacity:1;fill-rule:nonzero;stroke:none"
           d="m 15978.4,7817.26 -47.1,-113.61 -158.1,-52.73 c 0,0 -427,267.29 -460.3,582.79 -33.2,315.51 372,603.62 372,603.62 l 337.9,88.96 277.2,-423.62 -321.6,-685.41" /></g><g
         transform="scale(1.11149)"
         id="g146"><path
           id="path148"
           style="fill:#e9eef1;fill-opacity:1;fill-rule:nonzero;stroke:none"
           d="m 16236.3,7308.11 c 0,0 -371.8,-494.11 -889.9,-452.45 -518.3,41.65 389.8,853.72 389.8,853.72 l 563.8,38.05 -63.7,-439.32" /></g><g
         transform="scale(1.14891)"
         id="g150"><path
           id="path152"
           style="fill:#bb633d;fill-opacity:1;fill-rule:nonzero;stroke:none"
           d="m 15664.4,5007.6 c -7.5,-2.18 -68.6,-105.67 -68.6,-105.67 0,0 -25.4,-55.62 -69,-95.83 -43.4,-40.3 -53.8,-123.5 -52.1,-212.11 1.7,-88.61 56.8,-90.61 84.2,-66.93 27.4,23.59 31.1,126.73 31.1,126.73 0,0 99.8,-28.29 181.7,-75.47 81.9,-47.26 218.8,-204.71 249.4,-173.9 30.7,30.9 -58.2,157.1 -58.2,157.1 0,0 53.8,-30.72 124.6,-69.28 70.6,-38.73 91.2,-60.75 132.1,-62.23 41,-1.48 39.1,36.3 39.1,36.3 0,0 41.3,9.92 30.9,39.86 -10.4,29.85 -114.5,97.57 -114.5,97.57 0,0 95.3,-39.52 108.1,-3.92 12.7,35.6 -47.3,53.1 -165.5,94 -118.2,40.91 -287.2,125.77 -299.6,145.88 -12.4,20.19 -9.5,54.49 -9.5,54.49 l -43.1,76.94 -101.1,36.47" /></g><g
         transform="scale(1.14771)"
         id="g154"><path
           id="path156"
           style="fill:#a45532;fill-opacity:1;fill-rule:nonzero;stroke:none"
           d="m 15991.1,4676.64 c 0,0 198.1,-137.67 232.9,-161.11 34.9,-23.44 51.8,-44.52 51.8,-44.52 l 24.2,12.63 c 0,0 -26.6,36.25 -68.7,62.39 -42.1,26.14 -240.2,130.61 -240.2,130.61" /></g><g
         transform="scale(1.14583)"
         id="g158"><path
           id="path160"
           style="fill:#a45532;fill-opacity:1;fill-rule:nonzero;stroke:none"
           d="m 16218.7,4616.14 -138.1,79.42 219.4,-98.19 c 0,0 -40.8,3.32 -81.3,18.77" /></g><g
         transform="scale(1.13199)"
         id="g162"><path
           id="path164"
           style="fill:#bb633d;fill-opacity:1;fill-rule:nonzero;stroke:none"
           d="m 15857.4,7188.03 v -918.74 c 0,0 -56.3,-199.56 -36.3,-558.66 20,-359.19 16,-748.32 16,-748.32 h 208.5 c 0,0 19.9,334.27 114.7,638.52 94.8,304.33 74.9,655.21 69.9,761.57 -5,106.45 69.8,645.24 69.8,645.24 l -442.6,180.39" /></g><g
         transform="scale(1.10636)"
         id="g166"><path
           id="path168"
           style="fill:#e9eef1;fill-opacity:1;fill-rule:nonzero;stroke:none"
           d="m 15904.4,7182.73 14.7,-141.09 -111.7,-68.15 c 0,0 -183.8,-120.03 -482.3,-76.65 -298.6,43.48 -520.6,204.27 -520.6,204.27 l -140.4,-10.21 c 0,0 -252.6,140.37 -224.6,502.73 28.1,362.36 308.8,622.67 308.8,622.67 l 329.2,79.18 c 0,0 413.5,33.35 610,28.02 196.4,-5.25 612.5,-250.1 612.5,-250.1 l -77.2,-449.94 -318.4,-440.73" /></g><g
         transform="scale(1.04863)"
         id="g170"><path
           id="path172"
           style="fill:#c37140;fill-opacity:1;fill-rule:nonzero;stroke:none"
           d="m 15203.9,4823.46 c 0,0 -4.4,-69.91 -15.1,-214.95 -10.7,-145.14 64.8,-196.36 155.2,-228.4 90.4,-32.04 108.2,-36.33 142.8,-73.52 34.6,-37.1 133.7,-175.47 181,-159.26 47.3,16.31 -82.2,209.61 -82.2,209.61 0,0 119.5,-24.13 242.2,-109.38 122.6,-85.35 160.1,-90.31 189.2,-80.58 29,9.73 12.6,51.59 12.6,51.59 0,0 135.6,-78.58 165.9,-34.71 30.3,43.77 -100.8,141.99 -91.9,141.61 9,-0.29 144.2,-35.76 170.3,-9.73 26.1,25.94 -63.2,90.31 -141,125.41 -77.7,35.18 -290.7,104.04 -292.2,113.1 -1.5,8.96 46.9,5.43 91.6,-1.53 44.6,-7.06 104.5,10.49 106.9,26.61 2.4,16.02 -109.8,100.99 -210.6,117.2 -100.7,16.3 -294.6,-30.52 -320.8,-9.82 -26.2,20.69 -27.1,144.66 -27.1,144.66 l -139.7,58.94 -137.1,-66.85" /></g><g
         transform="scale(1.0351)"
         id="g174"><path
           id="path176"
           style="fill:#a45532;fill-opacity:1;fill-rule:nonzero;stroke:none"
           d="m 15950.4,4491.72 c 0,0 249.9,-182.01 288.6,-218.05 l 61,-29.65 c 0,0 -121.1,179.3 -349.6,247.7" /></g><g
         transform="scale(1.04092)"
         id="g178"><path
           id="path180"
           style="fill:#a45532;fill-opacity:1;fill-rule:nonzero;stroke:none"
           d="m 15956.7,4502.94 c -5.4,0.67 266.2,-145.45 266.2,-145.45 l 77.1,-14.51 c 0,0 -197.5,140.17 -343.3,159.96" /></g><g
         transform="scale(1.10547)"
         id="g182"><path
           id="path184"
           style="fill:#c37140;fill-opacity:1;fill-rule:nonzero;stroke:none"
           d="m 16267.7,7378.38 -29.8,-17.91 c 0,0 1.4,68.48 29.8,165.18 v 408.97 c -25.8,21.17 -41.7,41.79 -41.7,41.79 -77.9,-37.72 -134.2,-139.67 -188.8,-244.42 v -595.76 c 91.8,66.39 174.8,141.02 174.8,141.02 l 88,190.51 -32.3,-89.38" /></g><g
         transform="scale(1.11149)"
         id="g186"><path
           id="path188"
           style="fill:#c37140;fill-opacity:1;fill-rule:nonzero;stroke:none"
           d="m 15998,7182.6 -47.6,-85.01 c 0,0 -149.9,-138.56 -215.9,-156.28 -66.1,-17.81 -200.7,-15.3 -200.7,-15.3 0,0 -94,-55.87 -134.7,-50.74 -40.6,5.04 86.4,185.43 157.6,256.5 71.1,71.17 281.9,365.82 304.8,472.52 22.8,106.7 86.4,312.46 187.9,345.48 101.7,33.02 250.6,-102.47 250.6,-102.47 l -302,-664.7" /></g><g
         transform="scale(1.07726)"
         id="g190"><path
           id="path192"
           style="fill:#c37140;fill-opacity:1;fill-rule:nonzero;stroke:none"
           d="m 15255.1,7650.54 c 0,0 -143.3,401.57 167.8,604.31 310.9,202.64 730.3,66.37 803.8,-150.29 73.3,-216.66 -171.3,-590.02 -171.3,-590.02 0,0 -125.8,-179.15 -244.6,-318.77 -118.8,-139.61 -223.7,-338.82 -223.7,-349.31 0,-10.49 -55.9,-272.55 -125.8,-541.66 -69.9,-269.1 -122.4,-377.43 -122.4,-377.43 0,0 -59.4,-332.05 -153.7,-643.03 -94.4,-311.06 -118.8,-705.95 -118.8,-705.95 l -262.1,-17.46 c 0,0 -10.5,573.12 24.5,866.65 34.9,293.61 129.3,524.29 132.7,566.16 3.5,41.96 7.1,506.75 108.3,775.86 0,0 52.5,489.85 185.3,880.94" /></g><g
         transform="scale(1.01698)"
         id="g194"><path
           id="path196"
           style="fill:#a45532;fill-opacity:1;fill-rule:nonzero;stroke:none"
           d="m 16229.7,8322.13 c -31.2,-34.42 -67.5,-68.15 -98.1,-95.09 10.2,-73.55 27.8,-123.01 27.8,-123.01 70.3,122.52 140.6,295.88 140.6,295.88 0,0 0,0 -70.3,-77.78" /></g><g
         transform="scale(1.06529)"
         id="g198"><path
           id="path200"
           style="fill:#a45532;fill-opacity:1;fill-rule:nonzero;stroke:none"
           d="m 16255.1,7764.43 -54.7,-214.78 c 22,30.32 35.3,49.28 35.3,49.28 0,0 29.1,44.4 64.3,111.52 l -44.9,53.98" /></g><path
         id="path202"
         style="fill:#f0f0ef;fill-opacity:1;fill-rule:nonzero;stroke:none"
         d="m 15440.4,6938.7 c -57.8,3.9 -110.6,9.5 -147.4,17.8 0,0 -7.6,-111.9 -165.7,-191 0,0 90,-33.6 218.8,-82.2 22.3,96 68.6,201.1 94.3,255.4" /><path
         id="path204"
         style="fill:#5b5c5e;fill-opacity:1;fill-rule:nonzero;stroke:none"
         d="m 14890.1,7003.6 c 42.4,57.7 59.7,151.4 66.8,222.4 -63.6,14.2 -187.5,28.7 -221.1,-4.9 -33.7,-33.8 -173,-290.8 -188.3,-371.2 107.4,32.1 287.5,78.6 342.6,153.7" /><path
         id="path206"
         style="fill:#f0f0ef;fill-opacity:1;fill-rule:nonzero;stroke:none"
         d="m 13566,7684.7 c -0.3,-0.2 -0.7,-0.4 -1,-0.6 -135.6,-71.5 -135.6,-71.5 -135.6,-71.5 0,0 -7.5,-131.8 0,-177 7.6,-45.1 124.3,-82.8 124.3,-82.8 h 94.1 c 0,0 9.2,15.9 33.9,36.1 -61.2,96.9 -96.5,213.2 -115.7,295.8" /><g
         transform="scale(1.15774)"
         id="g208"><path
           id="path210"
           style="fill:#361c19;fill-opacity:1;fill-rule:nonzero;stroke:none"
           d="m 16191.2,7835.12 108.8,46.47 c 0,0 -2.3,244.44 -278.3,267.5 -276,22.98 -412.4,-167.13 -601.5,-204.28 -189,-37.22 -392,39.82 -586.1,7.69 0,0 242.8,-158.32 419.5,-255.84 142.7,-78.78 253.9,-204.63 404.5,-152.2 150.7,52.43 109.7,216.29 533.1,290.66" /></g><g
         transform="scale(1.16393)"
         id="g212"><path
           id="path214"
           style="fill:#e9eef1;fill-opacity:1;fill-rule:nonzero;stroke:none"
           d="m 15899.5,7726.56 33.7,51.38 c 0,0 2,59.54 109,82.48 106.8,22.86 193.7,-23.88 225.8,-83.68 32,-59.71 -178.3,-111.43 -178.3,-111.43 l -190.2,61.25" /></g><g
         transform="scale(1.19315)"
         id="g216"><path
           id="path218"
           style="fill:#361c19;fill-opacity:1;fill-rule:nonzero;stroke:none"
           d="M 15731.4,7616.12 C 15342,7607.4 15185,7319.93 15185,7319.93 l -87.4,-114.82 c 0,0 -142.9,-96.05 -178.6,-171.06 -6.3,-13.24 -10.4,-28.08 -13,-43.92 l 120.8,8.38 14.4,-208.85 c 39,7.45 75.5,17.68 83.8,18.27 18.1,1.25 189.3,-113.99 232.7,-151.79 43.4,-37.8 131.8,-136.02 209.8,-148.76 78,-12.83 436.2,52.71 436.2,52.71 0,0 292.8,160.76 294.5,464.74 1.8,303.98 -177.4,600.01 -566.8,591.29" /></g><g
         transform="scale(1.11803)"
         id="g220"><path
           id="path222"
           style="fill:#c37140;fill-opacity:1;fill-rule:nonzero;stroke:none"
           d="m 16242,7664.28 58,-79.87 -33.4,-276.56 c 0,0 -98.1,-71.29 -178,-54.2 -79.9,17.08 -82.2,4.02 -99.9,25.4 -17.6,21.38 53.6,252.05 65,275.48 11.2,23.35 188.3,109.75 188.3,109.75" /></g><g
         transform="scale(1.17147)"
         id="g224"><path
           id="path226"
           style="fill:#c37140;fill-opacity:1;fill-rule:nonzero;stroke:none"
           d="m 15957,6833.4 c -38.2,85.11 -123.5,116.18 -189.8,139.31 -66.2,23.22 -180.5,6.07 -191.2,28.43 -10.8,22.37 32.3,66.92 49.4,153.48 17.1,86.65 -11.5,167.83 -122.7,104.74 -111.1,-63.08 -68.2,-217.16 -58,-230.31 l -122,-73.07 c 0,0 1.7,76.32 36.1,180.29 34.4,103.97 142.4,178.41 142.4,178.41 -47.5,52.16 -35.1,140.76 -35.1,140.76 -70.7,-24.58 -144.4,-4.61 -212.8,36.97 -45.9,-47.47 -48.2,-197.71 -85.5,-269.15 L 15156,6955.3 c 71.4,54.29 31.3,-59.24 31.3,-59.24 l 190.3,-33.29 c -20.4,-172.35 2.5,-304.66 281.8,-336.25 279.3,-31.5 640.6,155.02 640.6,155.02 -128.4,-13.48 -304.8,66.76 -343,151.86" /></g><g
         transform="scale(1.11622)"
         id="g228"><path
           id="path230"
           style="fill:#a45532;fill-opacity:1;fill-rule:nonzero;stroke:none"
           d="m 16300,7633.17 c 0,0 -81.3,-44.8 -101.1,-107.42 -19.7,-62.62 10.2,-148.8 10.2,-148.8 l -70.4,-174.52 -83.5,15.41 64.8,147.73 c 0,0 4.9,242.34 180,267.6" /></g><g
         transform="scale(1.08051)"
         id="g232"><path
           id="path234"
           style="fill:#c37140;fill-opacity:1;fill-rule:nonzero;stroke:none"
           d="m 15840.7,7072.41 c 0,0 230.5,-1.85 344.9,67.93 114.4,69.78 -29.9,132.43 -47.3,128.92 -17.4,-3.52 -181.2,-85.33 -181.2,-85.33 l -116.4,-111.52" /></g></g></g></svg>