<?xml version="1.0" encoding="UTF-8" standalone="no"?>
<svg
   xmlns:dc="http://purl.org/dc/elements/1.1/"
   xmlns:cc="http://creativecommons.org/ns#"
   xmlns:rdf="http://www.w3.org/1999/02/22-rdf-syntax-ns#"
   xmlns:svg="http://www.w3.org/2000/svg"
   xmlns="http://www.w3.org/2000/svg"
   viewBox="0 0 2666.6667 2666.6667"
   height="2666.6667"
   width="2666.6667"
   xml:space="preserve"
   id="svg2"
   version="1.1"><metadata
     id="metadata8"><rdf:RDF><cc:Work
         rdf:about=""><dc:format>image/svg+xml</dc:format><dc:type
           rdf:resource="http://purl.org/dc/dcmitype/StillImage" /></cc:Work></rdf:RDF></metadata><defs
     id="defs6" /><g
     transform="matrix(1.3333333,0,0,-1.3333333,0,2666.6667)"
     id="g10"><g
       transform="scale(0.1)"
       id="g12"><g
         transform="scale(1.22699)"
         id="g14"><path
           id="path16"
           style="fill:none;fill-opacity:1;fill-rule:nonzero;stroke:none"
           d="M 16300,0 H 0 V 16300 H 16300 V 0" /></g><path
         id="path18"
         style="fill:#d7e5ea;fill-opacity:1;fill-rule:nonzero;stroke:none"
         d="m 13883.5,6371.9 -137.6,-83.6 c 0,0 15.6,-337.9 26.1,-442.5 10.4,-104.5 -38.3,-560.9 -26.1,-783.9 12.1,-223 116.7,-322.9 149.2,-369.3 32.5,-46.5 109.2,-104.5 146.3,-118.5 37.2,-13.9 146.4,4.7 195.1,0 48.8,-4.6 104.6,7 132.4,104.6 27.9,97.5 83.6,197.4 81.3,290.3 -2.3,92.9 -187,963.9 -187,963.9 l -88.8,392 -290.9,47" /><path
         id="path20"
         style="fill:#d7e5ea;fill-opacity:1;fill-rule:nonzero;stroke:none"
         d="m 15144.7,8002.5 -153.3,-62.7 c 0,0 -132.4,-139.4 -132.4,-160.3 0,-20.9 62.7,-536.5 48.8,-815.3 -13.9,-278.7 125.4,-728.1 156.8,-766.5 31.3,-38.3 97.5,-76.6 142.8,-38.3 45.3,38.3 66.2,83.6 90.6,108 24.4,24.4 118.5,153.3 135.9,212.5 17.4,59.3 -10.5,442.5 -17.4,557.5 -7,115 -76.7,198.6 -97.6,282.2 -20.9,83.6 -69.8,402.8 -69.8,402.8 l -104.4,280.1" /><path
         id="path22"
         style="fill:#fbc398;fill-opacity:1;fill-rule:nonzero;stroke:none"
         d="m 13489.8,11274.1 -230,-282.2 c 0,0 172.5,-684.7 177.7,-1217.7 5.2,-533.1 31.4,-867.6 0,-1149.8 -31.4,-282.2 31.4,-799.6 130.7,-1207.2 99.3,-407.7 135.8,-752.6 156.7,-940.7 21,-188.2 21,-188.2 21,-188.2 l 428.5,36.6 c 0,0 -15.7,731.7 41.8,1254.3 57.5,522.6 5.2,940.7 31.4,1202 26.1,261.3 135.8,642.8 172.4,977.3 36.6,334.5 36.6,1306.5 36.6,1306.5 l -966.8,209.1" /><path
         id="path24"
         style="fill:#fbc398;fill-opacity:1;fill-rule:nonzero;stroke:none"
         d="m 14738.8,11065 c 0,0 378,-1564.3 385,-1682.8 7,-118.5 -97.5,-392 -102.8,-601 -5.2,-209.1 20.9,-397.2 -31.3,-627.1 -52.3,-230 -58.2,-329.3 -58.2,-329.3 0,0 26.8,-94.1 131.3,-135.9 104.6,-41.8 167.3,0 167.3,0 0,0 491.2,862.3 538.3,998.2 47,135.9 219.5,533.1 256.1,831 36.5,297.9 10.4,1630.6 10.4,1630.6 0,0 -512.2,282.2 -601,261.3 -88.8,-20.9 -695.1,-345 -695.1,-345" /><path
         id="path26"
         style="fill:#252323;fill-opacity:1;fill-rule:nonzero;stroke:none"
         d="m 13604.7,13793.1 -182.9,-115 -67.9,-527.8 c 0,0 -277,-512.2 -266.5,-1128.9 10.4,-616.7 172.4,-1029.5 172.4,-1029.5 l 1196.8,73.1 c 0,0 52.3,522.7 62.7,538.3 10.5,15.7 99.3,-10.4 99.3,-10.4 l 120.2,-527.9 c 0,0 371.1,36.6 742.1,57.5 371.1,20.9 554,26.2 554,26.2 0,0 36.6,538.2 -83.6,945.9 -120.2,407.6 -329.3,998.2 -329.3,998.2 l -120.2,580.1 -1897.1,120.2" /><path
         id="path28"
         style="fill:#fbc398;fill-opacity:1;fill-rule:nonzero;stroke:none"
         d="m 13458.4,14456.8 -73.2,-210.8 c 0,0 52.3,-306.6 36.6,-567.9 0,0 313.6,-41.8 1102.7,-52.2 789.2,-10.5 977.3,47 977.3,47 0,0 -55.3,407.6 -26.1,796.1 l -135.9,343.2 c 0,0 -914.5,88.8 -1034.8,73.2 -120.2,-15.7 -846.6,-428.6 -846.6,-428.6" /><g
         transform="scale(1.00224)"
         id="g30"><path
           id="path32"
           style="fill:#fbc398;fill-opacity:1;fill-rule:nonzero;stroke:none"
           d="m 15401.2,14481.4 c 0,0 206.8,-267.2 345.8,-315.9 139.1,-48.6 278.1,58.7 292.1,158 13.9,99.3 38.2,255.7 59.1,398.2 20.8,142.6 -69.1,622.3 -93.6,799.6 -24.7,177.3 -55.9,723.1 -55.9,723.1 l -333.8,-69.6 3.5,-719.5 -86.9,198.1 c 0,0 -75.5,361.5 -242.8,504.1 -167.4,142.5 -587.3,135.2 -587.3,135.2 0,0 65.3,-844.4 82.7,-948.7 17.4,-104.3 305.9,-653.5 305.9,-653.5 l 311.2,-209.1" /></g><path
         id="path34"
         style="fill:#df9866;fill-opacity:1;fill-rule:nonzero;stroke:none"
         d="m 15566.3,15688.4 87.1,-198.5 c 0,0 -20.9,-369.4 -48.8,-519.2 -27.9,-149.8 0,-498.2 0,-498.2 0,0 -121.9,275.5 -132.4,414.7 -10.4,139.3 0,431.9 0,431.9 0,0 27.9,1.8 29.6,20.1 1.8,18.2 64.5,349.2 64.5,349.2" /><g
         transform="scale(1.09151)"
         id="g36"><path
           id="path38"
           style="fill:#45322f;fill-opacity:1;fill-rule:nonzero;stroke:none"
           d="m 12180.9,16300 c 0,0 -233.9,-139.5 -186.1,-649.2 47.9,-509.6 -195.5,-816 -21.2,-892.6 174.5,-76.7 332.5,-266.7 466.6,-186 134,80.6 222.3,142.9 221.3,224.3 -1.1,81.3 287.2,669.2 188.5,894.8 -98.6,225.5 -432.2,496.9 -446.5,523.4 -14.3,26.5 -222.6,85.3 -222.6,85.3" /></g><g
         transform="scale(1.00972)"
         id="g40"><path
           id="path42"
           style="fill:#fbc398;fill-opacity:1;fill-rule:nonzero;stroke:none"
           d="m 12505.9,16274.1 460.7,25.9 v -46.6 c 0,0 303.6,-15.5 410.6,-119 106.9,-103.5 224.5,-474.5 194.2,-597 -30.3,-122.5 -133.8,-333.1 -190.8,-427.1 -56.9,-93.9 -324.3,-345.8 -324.3,-345.8 h -69 c 0,0 -46.7,-338.2 -108.8,-431.3 -62.1,-93.2 -124.2,-289.7 -201.8,-284.6 -77.7,5.1 -207,124.1 -207,124.1 0,0 -227.8,160.5 -258.8,388.2 -31.1,227.8 165.6,641.8 212.2,942 46.6,300.2 82.8,771.2 82.8,771.2" /></g><g
         transform="scale(1.00812)"
         id="g44"><path
           id="path46"
           style="fill:#3970c0;fill-opacity:1;fill-rule:nonzero;stroke:none"
           d="m 13813.2,16197.7 -204,102.3 -210.8,-140 c 0,0 41.5,-359.4 -72.6,-711.9 -114,-352.5 -248.7,-660.1 -248.7,-660.1 l 200.3,-656.7 c 0,0 141.8,269.6 577.2,318 435.5,48.4 1213.1,65.6 1341,13.8 127.8,-51.8 155.5,-110.6 155.5,-110.6 v 262.7 c 0,0 110.6,390.5 58.7,680.8 -51.8,290.3 -349,556.4 -411.2,629 -62.2,72.6 -382.9,272.7 -382.9,272.7 l -317.6,90.2 -484.9,-90.2" /></g><g
         transform="scale(1.05033)"
         id="g48"><path
           id="path50"
           style="fill:#fbc398;fill-opacity:1;fill-rule:nonzero;stroke:none"
           d="m 13046.6,16255.5 c 0,0 45.5,-322 30.6,-466.3 -14.9,-144.3 -14.9,-144.3 -14.9,-144.3 0,0 213.9,-791.2 746.3,-845.9 532.4,-54.7 502.6,308.5 427.9,437.8 -74.6,129.4 -368.1,328.5 -368.1,328.5 0,0 -73,32.6 -104,70.2 -30.9,37.6 -40.9,92.3 -40.9,92.3 l -369.3,495.9 -215.6,76.3 -92,-44.5" /></g><g
         transform="scale(1.04747)"
         id="g52"><path
           id="path54"
           style="fill:#df9866;fill-opacity:1;fill-rule:nonzero;stroke:none"
           d="m 13244.4,16162.5 c -9.9,1 -162.1,137.5 -162.1,137.5 0,0 20.3,-155.5 185.8,-327.6 87.6,-91.1 208.6,-168.8 379.9,-197.1 91.4,-15.1 113,-4.4 113,-4.4 l -19.6,386.6 -497,5" /></g><g
         transform="scale(1.09323)"
         id="g56"><path
           id="path58"
           style="fill:#3970c0;fill-opacity:1;fill-rule:nonzero;stroke:none"
           d="m 12145,16300 c 0,0 -53.6,-69.3 -30,-230.9 23.6,-161.6 150.6,-208.3 150.6,-208.3 0,0 7.5,217 17,249.1 9.6,32.1 -137.6,190.1 -137.6,190.1" /></g><g
         transform="scale(1.14027)"
         id="g60"><path
           id="path62"
           style="fill:#523d38;fill-opacity:1;fill-rule:nonzero;stroke:none"
           d="m 12764,15628 c 12.4,-8.2 112,-109.3 112,-109.3 0,0 26.6,228 -48.8,434.7 -75.3,206.7 -268.6,346.6 -608.2,301.7 -339.6,-44.8 -498.8,-310.7 -559,-493.1 -60,-182.3 26.9,-501.2 41.9,-550.9 14.9,-49.7 208.4,-171.9 208.4,-171.9 l 619.6,233.8 234.1,355" /></g><g
         transform="scale(1.11575)"
         id="g64"><path
           id="path66"
           style="fill:#523d38;fill-opacity:1;fill-rule:nonzero;stroke:none"
           d="m 12431.6,15893.9 c -132.5,77 -320.3,406.1 -320.3,406.1 30.6,-345 184,-661 184,-661 l -15.8,-89.2 c 0,0 -157.9,142.3 -247.9,368 -40.9,102.4 -64.1,204.6 -77.4,285.7 -15.5,-33 -28,-65.2 -37.9,-95.1 -61.4,-186.4 26,-455.6 29.1,-508.5 8.6,-147.6 336.3,-297.5 336.3,-297.5 l 45.5,332.5 580.6,142.1 c -223.4,-8.1 -410.1,78.6 -476.2,116.9" /></g><g
         transform="scale(1.11695)"
         id="g68"><path
           id="path70"
           style="fill:#fbc398;fill-opacity:1;fill-rule:nonzero;stroke:none"
           d="m 12224.2,15607.4 c 0,0 -67.3,40.4 -127.1,24.6 -59.8,-15.9 -32.8,-123.7 15,-242.3 47.9,-118.6 156.4,-103.7 156.4,-103.7 0,0 50.4,-94.2 86.2,-148.7 35.8,-54.5 302.8,-227.4 367.3,-238.6 64.6,-11.2 149.4,-6 202.9,12.6 53.5,18.5 216,241.3 253.8,416.9 37.7,175.6 -18.6,381.8 -28.5,458.2 -9.7,76.4 -10.5,220.2 -60,332.6 -49.5,112.4 -169.3,181 -363.1,169 -193.8,-12 -336.3,-115.1 -402.4,-274.2 -66.2,-159.1 -39.3,-380.3 -100.5,-406.4" /></g><g
         transform="scale(1.03875)"
         id="g72"><path
           id="path74"
           style="fill:#369d3d;fill-opacity:1;fill-rule:nonzero;stroke:none"
           d="m 14063.2,15331.2 -2.7,754.7 -70.8,214.1 -144.6,-27.4 c 0,0 15.7,-305.8 31.3,-465.1 15.7,-159.3 184.1,-561.8 184.1,-561.8 l 2.7,85.5" /></g><path
         id="path76"
         style="fill:#369d3d;fill-opacity:1;fill-rule:nonzero;stroke:none"
         d="m 14964.2,10116.5 c 0,0 -71.3,2162.5 -126.1,2882.2 -54.7,719.7 -522.6,3017.2 -522.6,3017.2 l -211.6,-41.8 c 0,0 237.7,-1481.8 339.6,-2347 102,-865.3 89.6,-1328.7 90.6,-1530.8 0.9,-202 -14.8,-493 -14.8,-493 l 115.5,-81.4 c 0,0 162.8,-1000.4 329.4,-1405.4" /><path
         id="path78"
         style="fill:#369d3d;fill-opacity:1;fill-rule:nonzero;stroke:none"
         d="m 16034.9,11148.7 c 0,0 -151.5,574.8 -344.9,951.1 -193.4,376.3 -331.9,1133.2 -510.9,1593.5 -179,460.4 -445.5,1500.4 -518.7,1751.3 -73.1,250.8 -52.2,480.8 -52.2,480.8 0,0 304.4,-355.4 356,-486.1 51.6,-130.6 318.1,-1233.4 427.9,-1499.9 109.7,-266.5 156.8,-402.4 156.8,-402.4 l 114.7,-562.9 c 0,0 166.6,-442 287.7,-879.5 121.1,-437.5 83.6,-945.9 83.6,-945.9" /><path
         id="path80"
         style="fill:#369d3d;fill-opacity:1;fill-rule:nonzero;stroke:none"
         d="m 15121.5,9329.8 c 10.4,16.6 54.6,-296 329.8,-376.1 275.3,-80.2 432.6,89.4 507.2,267.7 0,0 -64.7,-351.4 -103,-417.6 -38.3,-66.2 -167.3,-135.8 -365.9,-97.5 -198.5,38.3 -436.1,306.3 -436.1,306.3 0,0 13.4,230 68,317.2" /><g
         transform="scale(1.01186)"
         id="g82"><path
           id="path84"
           style="fill:#369d3d;fill-opacity:1;fill-rule:nonzero;stroke:none"
           d="m 14082.3,16069.3 337.4,20.7 14.6,210 -420.9,-44.8 68.9,-185.9" /></g><g
         transform="scale(1.1277)"
         id="g86"><path
           id="path88"
           style="fill:#898b8b;fill-opacity:1;fill-rule:nonzero;stroke:none"
           d="M 9348.41,15140.3 16300,14892.8 v -220.9 l -6951.59,234.2 v 234.2" /></g><g
         transform="scale(1.04385)"
         id="g90"><path
           id="path92"
           style="fill:#fbc398;fill-opacity:1;fill-rule:nonzero;stroke:none"
           d="m 14992.7,15496.8 c 0,0 -70.3,106.2 -73.6,146.5 -3.3,40.3 -12.2,318.5 -23.4,354.1 -11.1,35.6 -24.5,160.2 -24.5,160.2 l -53.3,30.9 c 0,0 53.3,69.2 89,78.1 35.6,8.9 115.7,33.4 149,33.4 33.5,0 102.4,0 102.4,0 0,0 109.1,0 138,0 28.9,0 124.5,-75.7 144.5,-153.5 20.2,-77.9 -15.5,-253.7 -40,-313.8 -24.4,-60.1 -87.9,-235.9 -87.9,-235.9 0,0 -90.1,-111.2 -141.3,-115.7 -51.1,-4.4 -178.9,15.7 -178.9,15.7" /></g><g
         transform="scale(1.00683)"
         id="g94"><path
           id="path96"
           style="fill:#ecab7b;fill-opacity:1;fill-rule:nonzero;stroke:none"
           d="m 13024.5,14806.8 c 0,0 -15.6,387.6 -20.8,750.9 -5.1,363.4 0,742.3 0,742.3 l 69.9,-6.3 c 0,0 -18,-377.8 -2.4,-663.3 15.6,-285.5 -46.7,-823.6 -46.7,-823.6 v 0 0" /></g><path
         id="path98"
         style="fill:#df9866;fill-opacity:1;fill-rule:nonzero;stroke:none"
         d="m 13237.9,15836.5 c 0.7,17.4 32.4,-245.6 32.4,-454.7 0,-209 0,-282.2 0,-282.2 l -87.1,-191.6 h -69.7 c 0,0 106,470.4 124.4,928.5" /><g
         transform="scale(1.05245)"
         id="g100"><path
           id="path102"
           style="fill:#fbc398;fill-opacity:1;fill-rule:nonzero;stroke:none"
           d="m 11998.2,15613.4 c 0,0 -168.4,107.5 -186,129.6 -17.6,22.1 -112.3,171.4 -100.3,171.8 12.1,0.4 124.6,0 124.6,0 l 37.4,241.9 -39.9,1.4 c 0,0 48.8,105.8 68.7,119 19.8,13.2 72.8,17 72.8,17 0,0 83.9,5.9 139.1,0 55.1,-6 92.6,-26.9 92.6,-26.9 0,0 64.1,18.7 86.1,12.1 22,-6.6 48.5,-35.3 48.5,-35.3 0,0 70.6,-13.7 86.1,-21.2 15.5,-7.5 40.5,-71.7 44.5,-109.1 4.1,-37.4 -13.6,-392.8 -13.6,-392.8 l -18.7,-82.7 c 0,0 -281.4,-138.6 -301.3,-122.8 -19.9,15.7 -140.6,98 -140.6,98" /></g><g
         transform="scale(1.04042)"
         id="g104"><path
           id="path106"
           style="fill:#41b73c;fill-opacity:1;fill-rule:nonzero;stroke:none"
           d="m 13628.7,15809 -33.4,93.7 -39.3,388.5 -323,8.8 c 0,0 0.9,-223.1 66,-397.3 65.2,-174.1 239.4,-254.5 239.4,-254.5 l 90.3,160.8" /></g><g
         transform="scale(1.03875)"
         id="g108"><path
           id="path110"
           style="fill:#41b73c;fill-opacity:1;fill-rule:nonzero;stroke:none"
           d="m 13989.7,16300 343.8,-12.2 48.4,-51 c 0,0 -67.1,-214.6 -90.6,-264.9 -23.5,-50.4 -232.3,-447.7 -232.3,-447.7 l -69.3,775.8" /></g><g
         transform="scale(1.01506)"
         id="g112"><path
           id="path114"
           style="fill:#369d3d;fill-opacity:1;fill-rule:nonzero;stroke:none"
           d="m 14103.1,15778.3 c 0,0 -44.9,332.7 -60.2,368.9 -15.3,36.1 -108,152.8 -108,152.8 0,0 -55,-226.5 -58.3,-260.9 -3.5,-34.3 18,-302 18,-302 l 208.5,41.2" /></g><g
         transform="scale(1.03256)"
         id="g116"><path
           id="path118"
           style="fill:#369d3d;fill-opacity:1;fill-rule:nonzero;stroke:none"
           d="m 5198.22,16300 -178.84,-158.6 c 0,0 -209.21,-70.9 -212.58,-84.4 -3.38,-13.5 -16.87,-107.3 -16.87,-107.3 l 563.5,63.5 -155.21,286.8" /></g><path
         id="path120"
         style="fill:#d7e5ea;fill-opacity:1;fill-rule:nonzero;stroke:none"
         d="m 5489.39,5646.7 c 0,20.9 81.64,192.9 81.64,192.9 0,0 -139.66,78.8 -224.49,78.8 -84.83,0 -270.02,-36.6 -264.79,-146.3 5.22,-109.8 -20.91,-433.8 -10.45,-642.8 10.45,-209.1 -47.04,-350.2 41.81,-538.3 88.84,-188.2 198.59,-318.8 297.89,-355.4 99.29,-36.6 245.63,162 266.53,371 20.91,209.1 -31.36,731.7 -36.58,747.4 -5.23,15.7 -151.56,292.7 -151.56,292.7" /><path
         id="path122"
         style="fill:#d7e5ea;fill-opacity:1;fill-rule:nonzero;stroke:none"
         d="m 4135.81,2970.9 c 0,0 -5.22,-277 -20.9,-350.2 -15.68,-73.2 -88.85,-423.3 -104.53,-564.4 -15.67,-141.1 -10.45,-263.4 0,-332.9 10.46,-69.5 63.28,-121.8 57.77,-142.7 -5.5,-20.9 72.89,-15.7 140.83,-73.2 67.94,-57.5 177.69,-57.5 198.59,-47 20.91,10.4 83.62,92 120.21,262.9 36.58,170.9 47.03,656.9 57.48,808.5 10.46,151.5 -57.48,475.5 -57.48,475.5 l -391.97,-36.5" /><path
         id="path124"
         style="fill:#e7a980;fill-opacity:1;fill-rule:nonzero;stroke:none"
         d="m 5682.76,5860.9 c 0,0 -343.19,-62.7 -336.22,-78.4 6.97,-15.6 -60.97,-125.4 -40.07,-287.4 20.91,-162 120.21,-250.9 120.21,-250.9 0,0 151.55,5.3 224.72,-20.9 73.17,-26.1 335.73,-173.9 479.65,-164.2 143.92,9.7 -448.29,801.8 -448.29,801.8" /><path
         id="path126"
         style="fill:#fbc398;fill-opacity:1;fill-rule:nonzero;stroke:none"
         d="m 3959.87,7468.8 -132.4,-188.1 c 0,0 195.11,-1442.4 209.05,-1644.5 13.93,-202.1 -76.65,-836.2 -62.72,-1087 13.94,-250.9 162.01,-1578.3 162.01,-1578.3 0,0 104.53,-57.5 214.28,-41.9 109.75,15.7 177.69,78.4 177.69,78.4 0,0 73.16,878 114.97,1275.2 41.81,397.2 57.49,816.1 88.85,915 31.35,98.9 172.46,564 219.49,1008.3 47.04,444.2 88.85,1123.6 88.85,1123.6 l -1080.07,139.3" /><path
         id="path128"
         style="fill:#fbc398;fill-opacity:1;fill-rule:nonzero;stroke:none"
         d="m 5346.54,7371.3 c 0,0 54,-203.8 106.27,-454.7 52.26,-250.8 62.71,-987.7 94.07,-1207.2 31.35,-219.5 198.59,-375.5 339.7,-511.8 141.1,-136.3 209.04,-136.3 324.02,-146.7 114.98,-10.5 313.57,266.5 365.83,533 52.26,266.6 45.29,1898.9 45.29,1898.9 L 5346.54,7371.3" /><path
         id="path130"
         style="fill:#252323;fill-opacity:1;fill-rule:nonzero;stroke:none"
         d="m 4538.23,9998.3 -360.61,-301.4 -273.5,-778.7 c 0,0 -125.43,-487.7 -132.4,-857.1 -6.96,-369.3 55.75,-780.4 55.75,-780.4 l 1212.47,48.8 c 0,0 76.65,550.5 125.43,564.4 48.77,13.9 83.62,-7 83.62,-7 l 97.55,-515.6 1275.18,111.5 c 0,0 -55.74,829.2 -174.2,1254.3 C 6329.06,9162.1 6111.3,9791 6111.3,9791 l -1573.07,207.3" /><path
         id="path132"
         style="fill:#fbc398;fill-opacity:1;fill-rule:nonzero;stroke:none"
         d="m 4482.48,11050.5 -283.95,-470.3 c 0,0 62.71,-282.3 62.71,-444.3 0,-162 -83.62,-439 -83.62,-439 0,0 491.26,-198.6 1102.72,-130.6 611.46,67.9 830.96,224.7 830.96,224.7 0,0 -73.16,517.4 41.81,987.8 l -1670.63,271.7" /><path
         id="path134"
         style="fill:#45322f;fill-opacity:1;fill-rule:nonzero;stroke:none"
         d="m 4210.52,12506 h 723.141 v 1398.52 H 4210.52 Z" /><g
         transform="scale(1.01332)"
         id="g136"><path
           id="path138"
           style="fill:#fbc398;fill-opacity:1;fill-rule:nonzero;stroke:none"
           d="m 5483.26,12839.5 c 0,0 217.65,278.3 222.8,329.9 5.16,51.6 268.2,1196.5 268.2,1196.5 0,0 51.57,474.5 123.77,794.3 72.21,319.7 232.09,851 247.56,995.4 15.47,144.4 15.47,144.4 15.47,144.4 l 314.6,-56.7 c 0,0 -36.09,-696.3 -97.98,-1000.6 -61.9,-304.3 -180.52,-990.2 -180.52,-1021.2 0,-30.9 -30.93,-1103.3 -87.67,-1382 -56.73,-278.7 -154.42,-619.1 -154.42,-619.1 0,0 0.93,-525.9 -0.31,-629.2 -1.23,-103.3 -257.87,-206.3 -417.75,0 -159.88,206.3 -180.51,23.2 -221.77,300.4 -41.26,277.3 -31.98,947.9 -31.98,947.9" /></g><path
         id="path140"
         style="fill:#ecab7b;fill-opacity:1;fill-rule:nonzero;stroke:none"
         d="m 5890.06,12144.5 -113.23,212.6 c 5.22,15.6 127.17,310 175.94,470.3 48.79,160.3 132.4,439 132.4,439 0,0 -52.26,-414.6 -87.1,-592.3 -34.84,-177.7 -108.01,-529.6 -108.01,-529.6" /><g
         transform="scale(1.01716)"
         id="g142"><path
           id="path144"
           style="fill:#fbc398;fill-opacity:1;fill-rule:nonzero;stroke:none"
           d="m 3963.26,11357.3 c 0,0 -87.35,239.7 -107.9,431.6 -20.54,191.8 -27.39,431.6 -27.39,431.6 0,0 -99.34,369.9 -89.07,681.6 10.28,311.7 34.26,524.1 34.26,524.1 l -51.38,698.7 c 0,0 -113.04,380.2 -99.34,873.5 13.7,493.2 -54.81,1246.8 -54.81,1246.8 l 395.63,54.8 c 0,0 231.21,-1156 277.45,-1459.2 46.24,-303.1 26.26,-588.6 26.26,-588.6 0,0 59.2,-867.1 48.15,-1233.7 l 226.3,-325.4 c 0,0 89.78,-745 28.12,-924.8 -61.66,-179.8 -205.52,-411 -205.52,-411 h -400.76" /></g><path
         id="path146"
         style="fill:#ecab7b;fill-opacity:1;fill-rule:nonzero;stroke:none"
         d="m 4389.19,11944.2 c -23.43,26.1 -49.56,590.5 -53.04,601 -3.48,10.4 26.52,522.6 26.52,522.6 l 46.65,-505.2 c 0,0 90.58,-439 90.58,-449.4 0,-10.5 -110.71,-169 -110.71,-169" /><path
         id="path148"
         style="fill:#3970c0;fill-opacity:1;fill-rule:nonzero;stroke:none"
         d="m 4695.01,12911 h -75.64 c 0,0 -76.09,-512.1 -230.17,-815.3 -154.09,-303.1 -368.36,-527.8 -357.91,-543.5 10.45,-15.7 83.62,-324 120.2,-611.4 36.58,-287.5 47.04,-360.6 47.04,-360.6 0,0 344.92,162 904.12,198.6 559.2,36.5 1050.46,0 1050.46,0 l 26.13,308.3 c 0,0 62.72,418.1 57.49,658.5 0,0 -271.76,423.3 -329.25,564.4 -57.49,141.1 -351.2,700.5 -351.2,700.5 l -272.13,-214.7 -589.14,115.2" /><path
         id="path150"
         style="fill:#fbc398;fill-opacity:1;fill-rule:nonzero;stroke:none"
         d="m 4619.37,13422.6 c 0,0 68.67,-347.4 75.64,-412.1 6.97,-64.6 0,-99.5 0,-99.5 0,0 39.24,-86.5 70.6,-138.7 31.36,-52.3 33.93,-474.5 82.7,-565.1 48.78,-90.5 397.19,-184.6 533.07,-149.8 135.88,34.9 271.76,97.6 261.31,250.9 -10.45,153.3 -247.37,547 -247.37,547 l -74.14,46.6 -450.96,639.8 -250.85,-119.1" /><path
         id="path152"
         style="fill:#df9866;fill-opacity:1;fill-rule:nonzero;stroke:none"
         d="m 4787.29,13286.9 c -10.08,0.8 -167.92,135.7 -167.92,135.7 0,0 24.31,-157.4 196.51,-328.1 91.09,-90.4 215.88,-166.3 390.42,-190.9 93.11,-13.1 114.88,-1.7 114.88,-1.7 l -29.3,392 -504.59,-7" /><path
         id="path154"
         style="fill:#3970c0;fill-opacity:1;fill-rule:nonzero;stroke:none"
         d="m 4189.19,14135.7 c 0,0 -55.01,-74.8 -25.94,-245.5 29.07,-170.6 164.95,-216.8 164.95,-216.8 0,0 2.3,230.1 11.61,264.4 9.32,34.2 -150.62,197.9 -150.62,197.9" /><path
         id="path156"
         style="fill:#523d38;fill-opacity:1;fill-rule:nonzero;stroke:none"
         d="m 5426.9,14165.7 c 13.94,-8.7 126.61,-117.8 126.61,-117.8 0,0 23.33,252.7 -65.39,479.1 -88.71,226.5 -305.98,375.9 -680.08,317.4 -374.1,-58.6 -542.97,-356.7 -604.62,-559.8 -61.65,-203.1 42.84,-553.2 60.71,-607.7 17.88,-54.5 234.93,-184.5 234.93,-184.5 l 678.6,274.8 249.24,398.5" /><path
         id="path158"
         style="fill:#523d38;fill-opacity:1;fill-rule:nonzero;stroke:none"
         d="m 4766.22,14066 c -145.34,79.8 -356.87,430.9 -356.87,430.9 41.91,-372.3 216.04,-710.1 216.04,-710.1 l -14.74,-96.9 c 0,0 -174.45,149.9 -277.66,391.6 -46.85,109.7 -74.67,219.6 -91.12,307 -15.84,-36.2 -28.55,-71.3 -38.45,-103.9 -61.65,-203.1 39.84,-491.9 44.57,-549.1 13.19,-159.3 371.38,-312.9 371.38,-312.9 l 40.6,360.7 624.18,168.6 c -241.44,-14.5 -445.56,74.4 -517.93,114.1" /><path
         id="path160"
         style="fill:#fbc398;fill-opacity:1;fill-rule:nonzero;stroke:none"
         d="m 4563.15,13769.4 c 0,0 -73.95,42 -138.27,23.3 -64.33,-18.8 -32.38,-134.7 22.52,-261.8 54.9,-127.2 171.97,-108.3 171.97,-108.3 0,0 57.01,-100.6 97.17,-158.7 40.17,-58.1 333.71,-238.4 403.84,-248.8 70.14,-10.5 161.77,-2.6 219.27,18.9 57.5,21.4 227.61,266.8 263.92,457.9 36.31,191 -30.03,412.8 -42.62,495.2 -12.58,82.5 -17.18,238.1 -73.7,358.5 -56.52,120.5 -187.92,191.6 -397.37,173.5 -209.45,-18 -361.08,-133.2 -428.54,-307.2 -67.45,-173.9 -32.62,-412.7 -98.19,-442.5" /><path
         id="path162"
         style="fill:#c5d4d9;fill-opacity:1;fill-rule:nonzero;stroke:none"
         d="m 5490.2,5823 c -76.9,-16.3 -146.84,-33.3 -143.66,-40.5 6.97,-15.6 -60.97,-125.4 -40.07,-287.4 20.91,-162 120.21,-250.9 120.21,-250.9 0,0 79.39,2.8 150.99,-5.6 -120.6,213.3 -117.69,427 -87.47,584.4" /><g
         transform="scale(1.06248)"
         id="g164"><path
           id="path166"
           style="fill:#ffffff;fill-opacity:1;fill-rule:nonzero;stroke:none"
           d="m 6542.77,16091.3 h 4.71 0.01 c 0.09,1 0.78,5.4 1.87,11.6 3.81,21.8 12.61,68.4 20.46,109.6 3.93,20.6 7.61,39.8 10.32,53.8 2.7,14.1 4.42,23 4.42,23 l -4.62,0.9 -3.39,-3.3 25.72,-26.7 -63.9,-167.3 4.4,-1.6 h 4.71 -4.71 l 4.4,-1.7 66.01,172.8 -36.14,37.6 -1.72,-8.9 c 0,0 -9.29,-48.1 -18.59,-97 -4.64,-24.5 -9.29,-49.2 -12.77,-68.1 -1.75,-9.5 -3.2,-17.6 -4.23,-23.5 -0.51,-3 -0.91,-5.4 -1.19,-7.2 -0.14,-0.9 -0.25,-1.7 -0.32,-2.3 l -0.15,-1.7 v -25.6 l 9.1,23.9 -4.4,1.7" /></g><g
         transform="scale(1.06868)"
         id="g168"><path
           id="path170"
           style="fill:#898b8b;fill-opacity:1;fill-rule:nonzero;stroke:none"
           d="m 1514.52,16300 v -269.5 l 7240.92,-223.3 v 246.4 L 1514.52,16300" /></g><g
         transform="scale(1.01332)"
         id="g172"><path
           id="path174"
           style="fill:#369d3d;fill-opacity:1;fill-rule:nonzero;stroke:none"
           d="m 5447.81,5980.85 c 0,0 69.15,791.56 27.89,1816.21 C 5434.44,8821.62 4966.82,16300 4966.82,16300 h -160.61 l 527.37,-9258.87 114.23,-1060.28" /></g><g
         transform="scale(1.04356)"
         id="g176"><path
           id="path178"
           style="fill:#369d3d;fill-opacity:1;fill-rule:nonzero;stroke:none"
           d="M 6201.93,8278.87 5717.65,12976.4 5323.49,16300 h -224.43 l 698.72,-5710.8 277.9,-1872.88 126.25,-437.45" /></g><g
         transform="scale(1.06238)"
         id="g180"><path
           id="path182"
           style="fill:#41b73c;fill-opacity:1;fill-rule:nonzero;stroke:none"
           d="m 4363.58,16300 32.18,-288.7 c 0,0 148.2,-339.4 151.48,-349.3 3.28,-9.8 37.02,-114.7 37.02,-114.7 h 153.19 l -32.79,741.1 -341.08,11.6" /></g><g
         transform="scale(1.06068)"
         id="g184"><path
           id="path186"
           style="fill:#41b73c;fill-opacity:1;fill-rule:nonzero;stroke:none"
           d="m 5138.85,16300 34.87,-287.5 126.46,-503.5 c 0,0 49.28,366.5 55.85,395.5 6.56,29 62.68,126.9 62.68,126.9 v 259.1 l -279.86,9.5" /></g><g
         transform="scale(1.07381)"
         id="g188"><path
           id="path190"
           style="fill:#fbc398;fill-opacity:1;fill-rule:nonzero;stroke:none"
           d="m 3754.2,15440.2 c 0,0 3.78,252 0,258.5 -3.79,6.5 7.03,391.5 -12.44,441.2 -19.47,49.8 -54.07,101.7 -60.57,106 -6.49,4.4 -75.7,13 -75.7,13 0,0 -95.18,36.8 -114.64,36.8 -19.48,0 -77.88,-13 -77.88,-13 0,0 -56.24,17.3 -71.38,13 -15.14,-4.4 -60.57,-15.2 -60.57,-15.2 0,0 -75.71,0 -105.99,-15.1 -30.28,-15.1 -21.63,-166.6 -21.63,-201.2 0,-34.6 -45.42,-138.4 -45.42,-138.4 l -75.71,-15.2 c 0,0 35.69,-146 77.87,-201.1 42.18,-55.2 136.28,-126.6 136.28,-126.6 l 133.02,-194.6 c 0,0 116.81,-64.9 220.63,-48.7 103.84,16.2 154.13,100.6 154.13,100.6" /></g><g
         transform="scale(1.06583)"
         id="g192"><path
           id="path194"
           style="fill:#fbc398;fill-opacity:1;fill-rule:nonzero;stroke:none"
           d="m 6047.67,15496.9 c 0,0 -24.52,349.8 -24.52,385.8 0,35.9 0,306.2 0,306.2 0,0 43.58,80.6 56.66,84.9 13.07,4.4 78.46,0 78.46,0 0,0 76.27,26.2 106.78,24 30.51,-2.2 98.06,-19.6 98.06,-19.6 0,0 104.62,10.9 137.31,4.4 32.68,-6.6 58.83,-43.6 58.83,-43.6 0,0 50.12,-39.3 54.48,-91.6 4.36,-52.3 -21.79,-181.8 -43.58,-250 -21.79,-68.1 -159.09,-303.5 -167.81,-316.6 -8.71,-13 -55.57,-137.8 -55.57,-137.8 0,0 -79.55,-56.1 -142.74,-38.7 -63.2,17.4 -156.36,92.6 -156.36,92.6" /></g><g
         transform="scale(1.01716)"
         id="g196"><path
           id="path198"
           style="fill:#fbc398;fill-opacity:1;fill-rule:nonzero;stroke:none"
           d="m 3622.44,14998.4 c -13.7,-493.3 99.34,-873.5 99.34,-873.5 l 51.38,-698.7 c 0,0 -13,-115.3 -23.96,-300.4 h 567.29 c -0.27,404.9 -49.52,1126.4 -49.52,1126.4 0,0 19.98,285.5 -26.26,588.6 -46.24,303.2 -277.45,1459.2 -277.45,1459.2 l -395.63,-54.8 c 0,0 68.51,-753.6 54.81,-1246.8" /></g><g
         transform="scale(1.03494)"
         id="g200"><path
           id="path202"
           style="fill:#369d3d;fill-opacity:1;fill-rule:nonzero;stroke:none"
           d="m 4705.79,15959.4 142.18,340.6 33.94,-642.9 -176.12,302.3" /></g></g></g></svg>