<?xml version="1.0" encoding="UTF-8" standalone="no"?>
<svg
   xmlns:dc="http://purl.org/dc/elements/1.1/"
   xmlns:cc="http://creativecommons.org/ns#"
   xmlns:rdf="http://www.w3.org/1999/02/22-rdf-syntax-ns#"
   xmlns:svg="http://www.w3.org/2000/svg"
   xmlns="http://www.w3.org/2000/svg"
   viewBox="0 0 2666.6667 2666.6667"
   height="2666.6667"
   width="2666.6667"
   xml:space="preserve"
   id="svg2"
   version="1.1"><metadata
     id="metadata8"><rdf:RDF><cc:Work
         rdf:about=""><dc:format>image/svg+xml</dc:format><dc:type
           rdf:resource="http://purl.org/dc/dcmitype/StillImage" /></cc:Work></rdf:RDF></metadata><defs
     id="defs6" /><g
     transform="matrix(1.3333333,0,0,-1.3333333,0,2666.6667)"
     id="g10"><g
       transform="scale(0.1)"
       id="g12"><g
         transform="scale(1.22699)"
         id="g14"><path
           id="path16"
           style="fill:none;fill-opacity:1;fill-rule:nonzero;stroke:none"
           d="M 16300,0 H 0 V 16300 H 16300 V 0" /></g><path
         id="path18"
         style="fill:#b0b0ae;fill-opacity:1;fill-rule:nonzero;stroke:none"
         d="m 7289.11,14559.5 -1552.72,-6868.1 327.31,43.6 1516.55,6529.9 280.03,54.6 -571.17,240" /><path
         id="path20"
         style="fill:#959595;fill-opacity:1;fill-rule:nonzero;stroke:none"
         d="m 4939.92,6752.5 4102.32,-862.2 192.76,61.9 c 0,0 43.64,206.3 0,228.1 -43.65,21.8 -4145.97,767.4 -4145.97,767.4 l -149.11,-50 v -145.2" /><path
         id="path22"
         style="fill:#959595;fill-opacity:1;fill-rule:nonzero;stroke:none"
         d="m 1517.69,6013 4104.38,884.7 -40.69,180.8 -4143.7,-854.5 80.01,-211" /><path
         id="path24"
         style="fill:#959595;fill-opacity:1;fill-rule:nonzero;stroke:none"
         d="m 1655.89,6704 472.78,-392.8 254.68,107.8 -727.46,576 v -291" /><path
         id="path26"
         style="fill:#797a7b;fill-opacity:1;fill-rule:nonzero;stroke:none"
         d="m 5736.39,7691.4 c 0,-21.8 -398.24,-1551.1 -398.24,-1551.1 l 125.48,-80 h 158.44 L 6063.7,7735 5736.39,7691.4" /><path
         id="path28"
         style="fill:#494a4b;fill-opacity:1;fill-rule:nonzero;stroke:none"
         d="m 8623.89,11748.8 c -117.95,0 -341.31,-81.1 -439.3,-137.5 l 48.82,-1324.2 c 98,-56.5 272.53,-125.9 390.48,-125.9 393.74,0 712.94,355.4 712.94,793.8 0,438.4 -319.2,793.8 -712.94,793.8" /><path
         id="path30"
         style="fill:#959595;fill-opacity:1;fill-rule:nonzero;stroke:none"
         d="m 8332.76,6253 v 265.5 l -76.38,25.5 43.64,8141 H 8120 v -2763.4 h -196.39 v -1366.2 l 180.03,-152.7 -72.83,-4036.7 c 0,0 138.29,-76.6 154.65,-76.6 16.37,0 147.3,-36.4 147.3,-36.4" /><path
         id="path32"
         style="fill:#fbc398;fill-opacity:1;fill-rule:nonzero;stroke:none"
         d="m 6407.16,10658.4 c 0,0 108.37,-3.6 236.87,-93.9 128.5,-90.3 169.72,-298.8 186.69,-320.7 16.97,-21.8 283.67,-172.1 283.67,-172.1 0,0 60.62,201.2 113.95,278.8 53.35,77.6 134.91,241.3 134.91,241.3 l 143.92,27.8 58.45,-31.1 c 0,0 53.6,-351.9 0,-582.3 -53.6,-230.3 -153.01,-469.1 -153.01,-469.1 0,0 -43.64,-78.4 -106.68,-81 -63.04,-2.7 -113.95,16.7 -113.95,16.7 0,0 -113.96,-4.4 -257,37.8 -143.05,42.2 -366.11,214.4 -370.96,224.1 -4.85,9.7 -161.62,564.9 -161.62,564.9 l 4.76,358.8" /><path
         id="path34"
         style="fill:#dc9b70;fill-opacity:1;fill-rule:nonzero;stroke:none"
         d="m 6687.89,10003.9 c 0,0 137.98,-131 239.81,-179.5 101.83,-48.5 169.72,-55.8 169.72,-55.8 0,0 -82.43,-9.7 -193.96,31.5 -111.53,41.3 -257,167.8 -257,167.8 l 41.43,36" /><path
         id="path36"
         style="fill:#eaad81;fill-opacity:1;fill-rule:nonzero;stroke:none"
         d="m 7194.4,9805 c 2.43,189.1 -80.01,266.7 -80.01,266.7 l 21.51,66.4 c 130.62,-159.2 58.5,-333.1 58.5,-333.1" /><path
         id="path38"
         style="fill:#797a7b;fill-opacity:1;fill-rule:nonzero;stroke:none"
         d="m 5655.43,11570.1 c -12.74,0 -742.78,0 -742.78,0 0,0 -70.92,5.4 -70.92,-120 0,-125.5 398.23,-3731.4 398.23,-3731.4 l 103.65,-43.7 63.39,-103.6 995.4,-67.3 -251.34,1207.4 c 0,0 -233.85,2065 -275.08,2140.2 -41.24,75.3 -220.55,718.4 -220.55,718.4" /><path
         id="path40"
         style="fill:#fbc398;fill-opacity:1;fill-rule:nonzero;stroke:none"
         d="m 6336.46,7593.2 38.19,-169.1 174.56,-158.2 c 0,0 -136.38,-425.5 -21.82,-731 114.56,-305.5 166.22,-531.9 207.3,-703.7 24.21,-101.3 48.79,-154.3 60.01,-234.6 l 291.28,147 c 0,0 0,168 8.76,496.7 8.65,324.7 -43.65,900.1 -43.65,900.1 0,0 52.74,116.4 34.56,280.1 -18.19,163.6 -72.74,265.4 -72.74,265.4 l -92.74,174.6 c 0,0 -350.96,76.4 -394.59,36.4 -43.65,-40 -189.12,-303.7 -189.12,-303.7" /><path
         id="path42"
         style="fill:#fbc398;fill-opacity:1;fill-rule:nonzero;stroke:none"
         d="m 7432.96,7625.9 212.75,-121.8 c 0,0 -185.48,-374.6 -141.83,-652.8 43.64,-278.2 147.29,-420 207.29,-611 60.01,-190.9 70.92,-354.6 70.92,-354.6 h 300.04 c 0,0 18.18,640.8 29.09,896.8 10.92,256.1 0,448.8 0,448.8 0,0 72.74,229.2 36.37,418.3 -36.37,189.1 -184.26,341.8 -231.54,421.9 -47.28,80 -159.23,185.1 -283.67,259.4 -153.79,91.7 -350.35,-434 -343.08,-444.9 7.28,-10.9 143.66,-260.1 143.66,-260.1" /><path
         id="path44"
         style="fill:#252323;fill-opacity:1;fill-rule:nonzero;stroke:none"
         d="m 5573.73,8635.2 c 0,0 -121.02,-441.9 59.01,-681.9 180.02,-240.1 747.36,-583.7 747.36,-583.7 0,0 70.92,152.7 201.84,289.1 130.93,136.4 338.23,201.8 338.23,201.8 l 92.74,-174.6 420.05,-60 c 0,0 21.82,251 65.46,414.6 43.64,163.7 163.66,300.1 163.66,300.1 0,0 -283.67,120 -616.44,256.4 -332.77,136.3 -332.77,136.3 -332.77,136.3 0,0 -578.25,125.5 -594.62,125.5 -16.37,0 -544.52,-223.6 -544.52,-223.6" /><path
         id="path46"
         style="fill:#3970c1;fill-opacity:1;fill-rule:nonzero;stroke:none"
         d="m 6348.23,10658.4 h 58.93 c 0,0 52.61,-123.8 69.58,-150.4 16.97,-26.6 152.74,-104.1 198.81,-305.4 0,0 14.55,-164.8 12.12,-220.6 -2.42,-55.8 -26.67,-121.2 -31.52,-152.8 -4.85,-31.5 47.83,-684.9 31.8,-757.6 -16.04,-72.8 24.92,-338.3 24.92,-338.3 0,0 -208.25,-160 -390.09,-167.2 -181.84,-7.3 -432.78,40 -520.07,54.5 -87.27,14.6 -228.99,14.6 -228.99,14.6 0,0 65.34,214.5 32.61,425.5 -32.73,210.9 -149.11,303.4 -221.85,449.9 -72.73,146.5 -40.4,652 -31.11,728.4 9.29,76.4 79.01,404.4 79.01,404.4 0,0 166.39,75.7 168.35,79.3 1.96,3.6 682.04,-133.8 682.04,-133.8 l 65.46,69.5" /><path
         id="path48"
         style="fill:#fbc398;fill-opacity:1;fill-rule:nonzero;stroke:none"
         d="m 5353.37,10239 79.01,404.4 c 0,0 192.13,-95.5 203.04,-507.3 10.91,-411.9 -282.05,-507.4 -282.05,-507.4 l -57.17,297.1 57.17,313.2" /><path
         id="path50"
         style="fill:#fbc398;fill-opacity:1;fill-rule:nonzero;stroke:none"
         d="m 5657.25,11160.3 c 0,0 4.84,-233.5 0,-270.7 -4.86,-37.2 -101.88,-174.3 -101.88,-174.3 0,0 160.87,-85.4 305.53,-260.5 144.67,-175.2 370.96,-237.6 487.33,-175.8 116.38,61.8 0,379.4 0,379.4 0,0 -147.89,45.6 -147.89,48.3 0,2.7 -26.69,193 -26.69,193 l -437.27,442.5 c 0,0 -86.41,2.4 -88.84,0 -2.42,-2.5 9.71,-181.9 9.71,-181.9" /><path
         id="path52"
         style="fill:#dc9b70;fill-opacity:1;fill-rule:nonzero;stroke:none"
         d="m 6094.71,11000.4 69.33,118.7 9.61,-219.4 c 0,0 -106.5,-45.3 -284.42,55.7 -127.46,72.3 -170.33,240.5 -170.33,240.5 l 375.81,-195.5" /><path
         id="path54"
         style="fill:#252323;fill-opacity:1;fill-rule:nonzero;stroke:none"
         d="m 6150.57,12023.5 c -133.36,61.6 -266.61,36.8 -335.97,13.5 -69.35,-23.3 -180.57,-75.4 -180.57,-75.4 -28.75,-14.3 -57.85,-30.4 -74.29,-51.7 -26.28,-34.1 -28.86,-65.1 -28.86,-65.1 0,0 -100.26,-25.5 -98.48,-166.7 1.79,-141.1 47.38,-265.1 85.1,-340.8 37.71,-75.6 139.75,-177 139.75,-177 l 28.73,204.2 c 0,0 212.05,234 218.25,249.6 6.21,15.6 272.58,104.2 272.58,104.2 l 63.94,39.5 c 0,0 23.76,91.9 -23.93,185.4 -14.97,29.4 -39.56,56.7 -66.25,80.3" /><path
         id="path56"
         style="fill:#fbc398;fill-opacity:1;fill-rule:nonzero;stroke:none"
         d="m 6199.04,11805.1 c 0,0 33.37,-33.5 41.71,-47.3 8.35,-13.7 30.25,-145.1 36.72,-178.2 6.47,-33.2 3.69,-79.6 5.78,-95.7 2.08,-16.2 17.04,-115.1 17.74,-154.5 0.69,-39.3 -22.94,-195.8 -31.8,-237.5 -8.87,-41.7 -22.53,-97.1 -40.54,-110.4 -18.01,-13.3 -102.61,-28.6 -180.99,-15.7 -78.38,12.9 -238.99,94.1 -285.7,141.7 -46.7,47.7 -55.5,158.3 -55.5,158.3 0,0 -30.15,-12.6 -66.67,15.5 -36.51,28.2 -97.29,91.6 -96.53,170.6 0.76,79 63.66,58.6 97.88,31.3 34.22,-27.4 41.42,-74.7 48.03,-74.9 6.6,-0.3 12.79,2.7 15.88,4.2 3.1,1.5 7.89,83.2 6.88,99.5 -1.01,16.3 -16.76,112.9 -15.03,116.4 1.74,3.6 69.53,110.9 94.14,124 24.62,13 408,52.7 408,52.7" /><path
         id="path58"
         style="fill:#eaad81;fill-opacity:1;fill-rule:nonzero;stroke:none"
         d="m 6801.97,6140.3 c 51.45,410.5 21.83,807.4 21.83,807.4 116.37,-400.1 -21.83,-807.4 -21.83,-807.4" /><path
         id="path60"
         style="fill:#eaad81;fill-opacity:1;fill-rule:nonzero;stroke:none"
         d="m 7813.09,6332.6 c 78.91,406.1 76,804.1 76,804.1 89.25,-407 -76,-804.1 -76,-804.1" /><path
         id="path62"
         style="fill:#dc9b70;fill-opacity:1;fill-rule:nonzero;stroke:none"
         d="m 6549.21,7265.9 143.66,-129.1 -155.68,87.1 z" /><path
         id="path64"
         style="fill:#dc9b70;fill-opacity:1;fill-rule:nonzero;stroke:none"
         d="m 7645.71,7504.1 167.38,-156.4 -193.31,99.1 z" /><path
         id="path66"
         style="fill:#f1d3bf;fill-opacity:1;fill-rule:nonzero;stroke:none"
         d="m 7056.16,7081.6 c -3.1,37.2 -5.07,58.8 -5.07,58.8 l 8.15,-58.3 c 0,0 -1.07,-0.2 -3.08,-0.5" /><path
         id="path68"
         style="fill:#edb085;fill-opacity:1;fill-rule:nonzero;stroke:none"
         d="m 7015.9,7078.5 c -46.64,0 -119.47,12 -159.38,80.1 0,0 67.56,-33.8 131.44,-33.8 22.55,0 44.63,4.2 63.13,15.6 v 0 c 0,0 1.97,-21.6 5.07,-58.8 -6.12,-1.1 -20.95,-3.1 -40.26,-3.1" /><path
         id="path70"
         style="fill:#edb085;fill-opacity:1;fill-rule:nonzero;stroke:none"
         d="m 8084.37,7229.3 c -26.64,0 -66.69,5.8 -89.53,36.6 0,0 0.36,0 1.05,0 10.26,0 93.64,0.9 132.29,29.5 l -16.96,-64.1 v 0 0 c 0,0 -11.07,-2 -26.85,-2" /><path
         id="path72"
         style="fill:#e4a77e;fill-opacity:1;fill-rule:nonzero;stroke:none"
         d="m 7130.5,10960.9 c 0,0 33.94,112.2 70.31,124.3 36.37,12.2 164.87,0 164.87,0 l 27.57,-112 -262.75,-12.3" /><path
         id="path74"
         style="fill:#ecb28a;fill-opacity:1;fill-rule:nonzero;stroke:none"
         d="m 5106.01,10914.1 c 0,0 12.12,56.1 33.94,65.8 21.82,9.7 55.76,9.7 55.76,9.7 0,0 46.07,36.4 92.14,36.4 46.07,0 56.84,-17 56.84,-17 0,0 42.57,21.8 86.2,17 43.65,-4.9 53.34,-17 53.34,-17 0,0 16.98,15.1 36.38,3.9 19.39,-11.2 -18.51,-141.2 -18.51,-141.2 0,0 -29.44,-22.7 -57.6,-22.7 -28.15,0 -45.12,14.5 -45.12,14.5 0,0 -29.37,-9.7 -54.69,-14.5 -25.32,-4.9 -45.39,16.9 -45.39,16.9 0,0 -16.3,-4.8 -45.39,0 -29.1,4.9 -49.53,50.8 -49.53,50.8 l -98.37,-2.6" /><path
         id="path76"
         style="fill:#3970c1;fill-opacity:1;fill-rule:nonzero;stroke:none"
         d="m 7702.65,5633.4 c 0,0 -57.37,-350.3 4.29,-396.3 61.66,-46 259.79,-0.7 350.7,-39.5 90.9,-38.8 492.4,-69.3 622.81,78.2 130.41,147.5 -427.4,356.9 -463.21,392.2 -35.8,35.4 -75.53,107.1 -103.77,140.9 -28.25,33.9 -125.91,37 -125.91,37 0,0 -53.33,75.2 -100.28,29.7 -46.96,-45.4 -184.63,-242.2 -184.63,-242.2" /><path
         id="path78"
         style="fill:#f5f6f5;fill-opacity:1;fill-rule:nonzero;stroke:none"
         d="m 7989.59,5837.7 c 0,0 -37.32,-6.2 -42.99,-30.3 -5.67,-24.2 -13.61,-72.3 -22.28,-96.6 -8.68,-24.4 -140.41,-26.4 -140.41,-26.4 l -8.63,258.3 313.27,9.5 29.16,-160.6 c 0,0 -39.42,35.9 -128.12,46.1" /><path
         id="path80"
         style="fill:#3970c1;fill-opacity:1;fill-rule:nonzero;stroke:none"
         d="m 6798.16,5483.5 -31.73,-80.8 c 0,0 -10.99,-418.3 4.84,-465.2 15.83,-46.9 165.54,-204.1 302.58,-245.1 137.04,-41 393.76,42 403.06,120 9.29,78 -267.75,461.3 -299.88,535.9 -32.13,74.6 -19.84,244.9 -54.68,269.3 -34.83,24.5 -78.02,9.3 -78.02,9.3 l -260.85,50 14.68,-193.4" /><path
         id="path82"
         style="fill:#f5f6f5;fill-opacity:1;fill-rule:nonzero;stroke:none"
         d="m 7044.33,5626.9 c 0,0 -32.51,-0.6 -44.67,-40.1 -12.16,-39.5 -17.02,-55.3 -32.46,-66.1 -15.44,-10.8 -171.31,-7.3 -171.31,-7.3 l -36.01,216.5 328.32,13.3 2.43,-105.1 -46.3,-11.2" /><path
         id="path84"
         style="fill:#959595;fill-opacity:1;fill-rule:nonzero;stroke:none"
         d="m 8827.68,6211.1 -9.1,8473.9 h -272.76 l -38.18,-8473.9 h 320.04" /><path
         id="path86"
         style="fill:#959595;fill-opacity:1;fill-rule:nonzero;stroke:none"
         d="m 8627.65,7702.3 h -229.12 v 109.1 h 229.12 v -109.1" /><path
         id="path88"
         style="fill:#959595;fill-opacity:1;fill-rule:nonzero;stroke:none"
         d="m 8627.65,8268.7 h -229.12 v 109.1 h 229.12 v -109.1" /><path
         id="path90"
         style="fill:#959595;fill-opacity:1;fill-rule:nonzero;stroke:none"
         d="m 8627.65,8835.1 h -229.12 v 109.1 h 229.12 v -109.1" /><path
         id="path92"
         style="fill:#959595;fill-opacity:1;fill-rule:nonzero;stroke:none"
         d="m 8627.65,9401.5 h -229.12 v 109.1 h 229.12 v -109.1" /><path
         id="path94"
         style="fill:#959595;fill-opacity:1;fill-rule:nonzero;stroke:none"
         d="m 8627.65,9967.9 h -229.12 v 109.1 h 229.12 v -109.1" /><path
         id="path96"
         style="fill:#959595;fill-opacity:1;fill-rule:nonzero;stroke:none"
         d="m 8627.65,10534.3 h -229.12 v 109.1 h 229.12 v -109.1" /><path
         id="path98"
         style="fill:#959595;fill-opacity:1;fill-rule:nonzero;stroke:none"
         d="m 8627.65,11100.7 h -229.12 v 109.1 h 229.12 v -109.1" /><path
         id="path100"
         style="fill:#959595;fill-opacity:1;fill-rule:nonzero;stroke:none"
         d="m 8627.65,11667.1 h -229.12 v 109.1 h 229.12 v -109.1" /><path
         id="path102"
         style="fill:#959595;fill-opacity:1;fill-rule:nonzero;stroke:none"
         d="m 8627.65,12233.5 h -229.12 v 109.1 h 229.12 v -109.1" /><path
         id="path104"
         style="fill:#959595;fill-opacity:1;fill-rule:nonzero;stroke:none"
         d="m 8627.65,12799.9 h -229.12 v 109.1 h 229.12 v -109.1" /><path
         id="path106"
         style="fill:#959595;fill-opacity:1;fill-rule:nonzero;stroke:none"
         d="m 8627.65,13366.3 h -229.12 v 109.1 h 229.12 v -109.1" /><path
         id="path108"
         style="fill:#b0b0ae;fill-opacity:1;fill-rule:nonzero;stroke:none"
         d="m 990.352,5952.2 v -275.3 l 3687.728,-947.7 163.65,90.9 v 291 L 1161.28,6013 990.352,5952.2" /><path
         id="path110"
         style="fill:#b0b0ae;fill-opacity:1;fill-rule:nonzero;stroke:none"
         d="m 1557.7,5885.7 1647.47,8913.9 523.7,72.7 4131.41,-552.8 684.25,77.8 0.83,184.1 -670.53,29 -3611.35,451 -174.57,181.8 -1225.6,-174.5 L 1255.84,5933 1557.7,5885.7" /><path
         id="path112"
         style="fill:#b0b0ae;fill-opacity:1;fill-rule:nonzero;stroke:none"
         d="m 3914.35,5259.3 h -174.57 v 10059.2 h 174.57 V 5259.3" /><path
         id="path114"
         style="fill:#b0b0ae;fill-opacity:1;fill-rule:nonzero;stroke:none"
         d="m 3990.72,5154.7 h -300.04 v 420.1 h 300.04 v -420.1" /><path
         id="path116"
         style="fill:#fbc398;fill-opacity:1;fill-rule:nonzero;stroke:none"
         d="m 5215.11,10573.4 c 0,0 -55.42,-39.8 -121.23,-138 -65.81,-98.2 -89.94,-202.2 -119.69,-281.2 -29.76,-78.9 -24.22,-209.8 -32.45,-322.5 -8.22,-112.8 -43.45,-290 119.63,-377.8 163.09,-87.7 248.64,559.8 248.64,559.8 l 122.37,389 -217.27,170.7" /><path
         id="path118"
         style="fill:#b08d76;fill-opacity:1;fill-rule:nonzero;stroke:none"
         d="m 5262.05,10536.6 -46.94,36.8 46.94,-36.8 v 0" /><path
         id="path120"
         style="fill:#eaac82;fill-opacity:1;fill-rule:nonzero;stroke:none"
         d="m 5011.47,9680.6 c -4.82,0 -8.62,3.5 -11.21,11 -34.86,101.5 31.45,486.8 105.75,622.5 74.29,135.8 109.1,259.3 109.1,259.3 v 0 l 46.94,-36.8 c -0.05,-0.9 -4.83,-86.8 0,-110.9 l 26.67,-203.7 c 0,0 -217.3,-541.4 -277.25,-541.4" /><path
         id="path122"
         style="fill:#e4a77e;fill-opacity:1;fill-rule:nonzero;stroke:none"
         d="m 7415.64,11053.6 v 18.2 c 0,0 60.01,7.3 76.37,0 16.37,-7.2 54.61,-94.7 54.61,-94.7 h -40.06 c 0,0 -12.68,-36.2 -25.43,-43.5 -12.76,-7.2 -65.49,-3.6 -65.49,0 0,3.7 0,120 0,120" /><path
         id="path124"
         style="fill:#100f0d;fill-opacity:1;fill-rule:nonzero;stroke:none"
         d="m 6370.06,8422.4 c 0,0 429.23,-320 550.11,-561.9 l 92.74,-174.6 101.48,-14.4 c 0,0 -96.98,203.6 -184.26,327.2 -87.29,123.7 -217.26,270 -217.26,270 l 29.36,173.7 c 0,0 -103.05,-121.9 -113.96,-119.1 -10.91,2.7 -258.21,99.1 -258.21,99.1" /><path
         id="path126"
         style="fill:#838c9a;fill-opacity:1;fill-rule:nonzero;stroke:none"
         d="m 5736.94,10583.1 c -0.02,0 -0.03,0.1 -0.04,0.1 v 0 c 0.02,-0.1 0.02,-0.1 0.04,-0.1" /><path
         id="path128"
         style="fill:#eaac82;fill-opacity:1;fill-rule:nonzero;stroke:none"
         d="m 5742.05,10582.5 c -2.79,0 -4.56,0.2 -5.11,0.6 -0.02,0 -0.02,0 -0.04,0.1 0.55,0.1 154.48,44.5 237.69,65.1 l -198.55,312.6 249.48,-302.5 c 19.14,-2.4 102.08,-59.8 102.08,-59.8 0,0 -113.95,16.2 -133.35,16.2 -17.93,0 -216.99,-32.3 -252.2,-32.3" /><path
         id="path130"
         style="fill:#edc9b0;fill-opacity:1;fill-rule:nonzero;stroke:none"
         d="m 6311.06,10670 c -14.09,4.4 -30.57,9.6 -46.43,14.6 v 0 l 46.43,-14.6 v 0" /><path
         id="path132"
         style="fill:#eaac82;fill-opacity:1;fill-rule:nonzero;stroke:none"
         d="m 6197.92,10606 10.3,64 56.41,14.6 c 15.86,-5 32.34,-10.2 46.43,-14.6 -0.16,-0.1 -63.69,-26.8 -74.38,-26.8 -0.53,0 -0.93,0.1 -1.18,0.2 -0.19,0.1 -0.42,0.2 -0.67,0.2 -6.99,0 -36.91,-37.6 -36.91,-37.6" /><path
         id="path134"
         style="fill:#dc9b70;fill-opacity:1;fill-rule:nonzero;stroke:none"
         d="m 6197.92,10520.2 c 0,0 62.44,-108.1 94.26,-260.1 l 56.06,18.9 c 0,0 -58.22,170.9 -150.32,241.2" /><path
         id="path136"
         style="fill:#dfdfdd;fill-opacity:1;fill-rule:nonzero;stroke:none"
         d="m 4220.7,10750.2 4225.97,132.5 c 0,0 45.46,59 0,117.7 l -4291.43,-110.8 65.46,-139.4" /><path
         id="path138"
         style="fill:#2f65aa;fill-opacity:1;fill-rule:nonzero;stroke:none"
         d="m 5720.28,10066.9 c 7.27,0 174.57,-106.7 269.12,-140.7 94.56,-33.9 344.29,0 344.29,0 0,0 -123.65,-89.6 -317.62,-66.6 -193.96,23 -295.79,207.3 -295.79,207.3" /><path
         id="path140"
         style="fill:#2f65aa;fill-opacity:1;fill-rule:nonzero;stroke:none"
         d="m 6685.89,9961.3 c 0,0 -75.8,-44.8 -214,-39.9 0,0 88.27,-44.9 201.24,-23.7 l 12.76,63.6" /><path
         id="path142"
         style="fill:#dc9b70;fill-opacity:1;fill-rule:nonzero;stroke:none"
         d="m 5526.13,10549.7 -25.27,-328.9 99.87,-36.4 -99.87,-57.4 -55.27,-404.9 -129.52,169.9 116.31,751.4 93.75,-93.7" /><path
         id="path144"
         style="fill:#fbc398;fill-opacity:1;fill-rule:nonzero;stroke:none"
         d="m 7363.25,10591.8 c 0,0 24.25,40.1 -50.91,83.7 -75.16,43.6 -155.17,166.8 -155.17,166.8 l 158.49,4.9 c 0,0 33.05,24.7 30.62,107.1 -2.42,82.4 -21.64,177 20.7,179.4 42.34,2.5 81.13,-89.7 83.56,-133.3 2.42,-43.7 0.5,-148.9 0.5,-148.9 l 164.9,5.2 c 0,0 6.74,-152.1 -5.38,-205.5 -12.13,-53.3 -80.01,-84.8 -80.01,-84.8 0,0 -77.59,-84.9 -87.29,-77.6 -9.7,7.3 -80.01,103 -80.01,103" /><path
         id="path146"
         style="fill:#fbc398;fill-opacity:1;fill-rule:nonzero;stroke:none"
         d="m 5249.92,10580.9 c 0,0 -43.64,-174.6 -109.1,-301.9 -65.46,-127.3 -156.39,-556.4 -138.2,-680.1 18.18,-123.6 61.3,-141.8 103.39,-196.4 42.08,-54.5 120.37,-120 232.15,-40 111.79,80 115.42,425.5 115.42,676.5 0,250.9 23.38,544.2 23.38,544.2 l -227.04,-2.3" /><path
         id="path148"
         style="fill:#fbc398;fill-opacity:1;fill-rule:nonzero;stroke:none"
         d="m 5476.96,10583.2 c 0,0 16.2,73.9 78.41,132.1 62.21,58.2 47.67,347.9 30.69,377 -16.97,29.1 -65.45,-21.8 -70.31,-87.3 -4.85,-65.4 -12.12,-123.6 -21.81,-135.7 -9.71,-12.2 -84.09,-81.8 -84.09,-81.8 l -303.84,-9.6 c 0,0 43.64,-139 109.1,-204.4 65.47,-65.5 84.86,-72.8 99.41,-60.6 14.54,12.1 162.44,70.3 162.44,70.3" /><path
         id="path150"
         style="fill:#b0b0ae;fill-opacity:1;fill-rule:nonzero;stroke:none"
         d="m 4638.07,13679.4 h -229.12 v 109.1 h 229.12 v -109.1" /><path
         id="path152"
         style="fill:#b0b0ae;fill-opacity:1;fill-rule:nonzero;stroke:none"
         d="m 4638.07,12999.3 h -229.12 v 109.1 h 229.12 v -109.1" /><path
         id="path154"
         style="fill:#b0b0ae;fill-opacity:1;fill-rule:nonzero;stroke:none"
         d="m 4638.07,12319.2 h -229.12 v 109.2 h 229.12 v -109.2" /><path
         id="path156"
         style="fill:#b0b0ae;fill-opacity:1;fill-rule:nonzero;stroke:none"
         d="m 4638.07,11639.2 h -229.12 v 109.1 h 229.12 v -109.1" /><path
         id="path158"
         style="fill:#b0b0ae;fill-opacity:1;fill-rule:nonzero;stroke:none"
         d="m 4638.07,10959.1 h -229.12 v 109.1 h 229.12 v -109.1" /><path
         id="path160"
         style="fill:#b0b0ae;fill-opacity:1;fill-rule:nonzero;stroke:none"
         d="m 4638.07,10279 h -229.12 v 109.1 h 229.12 V 10279" /><path
         id="path162"
         style="fill:#b0b0ae;fill-opacity:1;fill-rule:nonzero;stroke:none"
         d="M 4638.07,9598.9 H 4408.95 V 9708 h 229.12 v -109.1" /><path
         id="path164"
         style="fill:#b0b0ae;fill-opacity:1;fill-rule:nonzero;stroke:none"
         d="m 4638.07,8918.8 h -229.12 v 109.1 h 229.12 v -109.1" /><path
         id="path166"
         style="fill:#b0b0ae;fill-opacity:1;fill-rule:nonzero;stroke:none"
         d="m 4638.07,8238.7 h -229.12 v 109.2 h 229.12 v -109.2" /><path
         id="path168"
         style="fill:#b0b0ae;fill-opacity:1;fill-rule:nonzero;stroke:none"
         d="m 4638.07,7558.7 h -229.12 v 109.1 h 229.12 v -109.1" /><path
         id="path170"
         style="fill:#b0b0ae;fill-opacity:1;fill-rule:nonzero;stroke:none"
         d="M 4438.05,15318.5 H 4088.91 V 5179.2 h 349.14 v 10139.3" /><path
         id="path172"
         style="fill:#343434;fill-opacity:1;fill-rule:nonzero;stroke:none"
         d="m 3761.47,11729.7 -265.36,-4 v -57.8 l -3.17,-40.8 c -184.69,-150.8 -310.72,-452.1 -310.72,-799.3 0,-367.5 141.12,-683.5 343.57,-824.1 l 24.74,-77.9 h 210.94 c 319.92,0 579.26,403.8 579.26,902 0,498.1 -259.34,901.9 -579.26,901.9" /><path
         id="path174"
         style="fill:#494a4b;fill-opacity:1;fill-rule:nonzero;stroke:none"
         d="m 4129.79,10827.8 c 0,-498.2 -259.35,-902 -579.26,-902 -319.91,0 -579.26,403.8 -579.26,902 0,498.1 259.35,901.9 579.26,901.9 319.91,0 579.26,-403.8 579.26,-901.9" /><path
         id="path176"
         style="fill:#797a7b;fill-opacity:1;fill-rule:nonzero;stroke:none"
         d="m 3680.09,10847.8 c 0,-101.5 -64.31,-183.7 -143.65,-183.7 -79.34,0 -143.66,82.2 -143.66,183.7 0,101.4 64.32,183.6 143.66,183.6 79.34,0 143.65,-82.2 143.65,-183.6" /><path
         id="path178"
         style="fill:#dfdfdd;fill-opacity:1;fill-rule:nonzero;stroke:none"
         d="m 3501.95,10919.9 h -723.41 c -26.83,0 -48.58,-21.7 -48.58,-48.6 v -72.5 c 0,-26.9 21.75,-48.6 48.58,-48.6 h 723.41 c 26.83,0 48.58,21.7 48.58,48.6 v 72.5 c 0,26.9 -21.75,48.6 -48.58,48.6" /><path
         id="path180"
         style="fill:#959595;fill-opacity:1;fill-rule:nonzero;stroke:none"
         d="m 8289.48,12717.4 10.54,1967.6 H 8120 v -1967.6 h 169.48" /><g
         transform="scale(1.16267)"
         id="g182"><path
           id="path184"
           style="fill:#959595;fill-opacity:1;fill-rule:nonzero;stroke:none"
           d="m 12568.2,5807.76 3528.5,-741.57 165.7,53.24 c 0,0 37.6,177.44 0,196.19 -37.5,18.75 -3565.8,660.03 -3565.8,660.03 l -128.4,-43.01 v -124.88" /></g><path
         id="path186"
         style="fill:#959595;fill-opacity:1;fill-rule:nonzero;stroke:none"
         d="m 11190.5,6013 4104.4,884.7 -40.7,180.8 -4143.7,-854.5 80,-211" /><path
         id="path188"
         style="fill:#797a7b;fill-opacity:1;fill-rule:nonzero;stroke:none"
         d="m 15409.2,7691.4 c 0,-21.8 -398.2,-1551.1 -398.2,-1551.1 l 125.4,-80 h 158.5 l 441.6,1674.7 -327.3,-43.6" /><path
         id="path190"
         style="fill:#959595;fill-opacity:1;fill-rule:nonzero;stroke:none"
         d="m 11328.7,6704 472.8,-392.8 254.7,107.8 -727.5,576 v -291" /><g
         transform="scale(1.16623)"
         id="g192"><path
           id="path194"
           style="fill:#494a4b;fill-opacity:1;fill-rule:nonzero;stroke:none"
           d="m 15688.7,11704.2 c -101.1,0 -196.5,-27.4 -280.5,-75.8 v -1209.7 c 84,-48.4 179.4,-75.8 280.5,-75.8 337.6,0 611.3,304.7 611.3,680.6 0,375.9 -273.7,680.7 -611.3,680.7" /></g><g
         transform="scale(1.10867)"
         id="g196"><path
           id="path198"
           style="fill:#959595;fill-opacity:1;fill-rule:nonzero;stroke:none"
           d="m 16300,5640.1 v 239.47 l -68.8,23 39.3,7343.03 h -162.4 V 10753.1 H 15931 V 9520.78 l 162.4,-137.77 -65.7,-3640.99 c 0,0 124.7,-69.09 139.5,-69.09 14.7,0 132.8,-32.83 132.8,-32.83" /></g><g
         transform="scale(1.07565)"
         id="g200"><path
           id="path202"
           style="fill:#b0b0ae;fill-opacity:1;fill-rule:nonzero;stroke:none"
           d="m 15769,13535.5 -1443.5,-6385.03 304.3,40.62 1409.9,6070.61 260.3,50.7 -531,223.1" /></g><path
         id="path204"
         style="fill:#797a7b;fill-opacity:1;fill-rule:nonzero;stroke:none"
         d="m 14914.6,11570.1 c -12.7,0 -329.1,0 -329.1,0 0,0 -70.9,5.4 -70.9,-120 0,-125.5 398.2,-3731.4 398.2,-3731.4 l 103.6,-43.7 63.4,-103.6 995.4,-67.3 -251.3,1207.4 c 0,0 -270.3,2596.3 -311.6,2671.5 -41.2,75.2 -597.7,187.1 -597.7,187.1" /><g
         transform="scale(1.04585)"
         id="g206"><path
           id="path208"
           style="fill:#ecaf86;fill-opacity:1;fill-rule:nonzero;stroke:none"
           d="m 16055.1,12458.5 c 0,0 32.4,69.5 67.2,81.1 34.9,11.6 157.7,0 157.7,0 l 20,-81.1 h -244.9" /></g><g
         transform="scale(1.05467)"
         id="g210"><path
           id="path212"
           style="fill:#fbc398;fill-opacity:1;fill-rule:nonzero;stroke:none"
           d="m 15477.3,9925.93 c 0,0 -29,179.57 -18.6,273.17 10.3,93.6 331,285 429.2,445.3 98.4,160.3 103.5,222.4 129.4,258.6 25.8,36.2 36.2,120.1 36.2,120.1 0,0 112.1,181.6 174.2,436.8 62,255.2 72.3,482.8 72.3,482.8 l -158.6,24.1 c 0,0 -79.3,-203.4 -227.6,-362.1 -148.3,-158.6 -200,-295.7 -244.8,-411.6 0,0 -158.6,-202.1 -234.5,-336.6 0,0 -197.9,-75.9 -340.3,-203.5 -142.5,-127.6 -184.3,-750 -184.3,-750 l 261.9,-85.03 305.5,107.96" /></g><g
         transform="scale(1.02924)"
         id="g214"><path
           id="path216"
           style="fill:#fbc398;fill-opacity:1;fill-rule:nonzero;stroke:none"
           d="m 15554.5,7377.49 37.1,-164.3 169.6,-153.71 c 0,0 -132.5,-413.41 -21.2,-710.23 111.3,-296.82 161.5,-516.79 201.4,-683.71 23.5,-98.42 47.4,-149.92 58.3,-227.93 l 283,142.82 c 0,0 0,163.23 8.6,482.59 8.3,315.48 -42.5,874.53 -42.5,874.53 0,0 51.2,113.09 33.6,272.14 -17.7,158.96 -70.7,257.86 -70.7,257.86 l -90.1,169.64 c 0,0 -341,74.23 -383.4,35.37 -42.3,-38.87 -183.7,-295.07 -183.7,-295.07" /></g><g
         transform="scale(1.09551)"
         id="g218"><path
           id="path220"
           style="fill:#fbc398;fill-opacity:1;fill-rule:nonzero;stroke:none"
           d="m 15614.5,6961.05 194.1,-111.18 c 0,0 -169.2,-341.94 -129.4,-595.88 39.8,-253.95 134.4,-383.39 189.2,-557.73 54.8,-174.26 64.7,-323.69 64.7,-323.69 h 274 c 0,0 16.5,584.93 26.4,818.61 10,233.78 0,409.68 0,409.68 0,0 66.5,209.21 33.3,381.83 -33.3,172.61 -168.3,312 -211.3,385.12 -43.2,73.02 -145.5,168.96 -259,236.78 -140.4,83.71 -319.8,-396.16 -313.2,-406.11 6.7,-9.95 131.2,-237.43 131.2,-237.43" /></g><path
         id="path222"
         style="fill:#edcab2;fill-opacity:1;fill-rule:nonzero;stroke:none"
         d="m 15808.6,10995.3 -31.8,47.4 c 0,0 0,0 0,0.1 l 87.6,112.8 c -21.5,-44.4 -40,-100 -55.8,-160.3" /><path
         id="path224"
         style="fill:#eaad81;fill-opacity:1;fill-rule:nonzero;stroke:none"
         d="m 15955.8,10775.7 -147.2,219.6 c 15.8,60.3 34.3,115.9 55.8,160.3 l 76.2,98.1 46.5,36.3 c 0,0 13.3,-143.1 -13.3,-289.5 -26.6,-146.5 -18,-224.8 -18,-224.8" /><g
         transform="scale(1.06349)"
         id="g226"><path
           id="path228"
           style="fill:#252323;fill-opacity:1;fill-rule:nonzero;stroke:none"
           d="m 14336.3,8119.67 c 0,0 -113.8,-415.51 55.5,-641.19 169.3,-225.76 702.7,-548.85 702.7,-548.85 0,0 66.7,143.59 189.9,271.84 123.1,128.26 318,189.75 318,189.75 l 87.2,-164.17 395,-56.42 c 0,0 20.5,236.01 61.5,389.85 41.1,153.92 153.9,282.18 153.9,282.18 0,0 -266.8,112.84 -579.6,241.09 -312.9,128.17 -312.9,128.17 -312.9,128.17 0,0 -543.8,118.01 -559.1,118.01 -15.5,0 -512.1,-210.26 -512.1,-210.26" /></g><g
         transform="scale(1.00671)"
         id="g230"><path
           id="path232"
           style="fill:#3970c1;fill-opacity:1;fill-rule:nonzero;stroke:none"
           d="m 14696.9,10133.2 c 0,0 40.5,-247.88 189.6,-506.15 149.1,-258.27 295.2,-453.37 311.6,-567.1 16.4,-113.84 -53.2,-482.27 -53.2,-482.27 0,0 387.4,-65.06 645.7,-81.35 258.4,-16.19 486,178.8 486,178.8 0,0 -21.7,573.85 -27.2,639.11 -5.3,65.36 27.2,508.89 27.2,508.89 0,0 23.4,159.81 0,333.17 -23.5,173.4 -61.8,242.6 -61.8,242.6 0,0 -219.8,123.6 -308.6,230.7 -88.7,107 -252.9,368.5 -252.9,368.5 l -455.2,7.2 -240.4,-513 -260.8,-359.1" /></g><path
         id="path234"
         style="fill:#fbc398;fill-opacity:1;fill-rule:nonzero;stroke:none"
         d="m 15846.5,10899.7 24.6,-107.9 c 0,0 112.9,-102.2 185.6,-291.3 72.8,-189.1 102.5,-302.4 -106.2,-276.9 -176.1,21.5 -278.9,390 -355.6,473.6 -76.6,83.7 -294.9,381.9 -294.9,381.9 l 3.2,110.3 -3.2,220.6 212.3,-27 334.2,-483.3" /><path
         id="path236"
         style="fill:#dc9b70;fill-opacity:1;fill-rule:nonzero;stroke:none"
         d="m 15767.5,11000.4 69.4,118.7 9.6,-219.4 c 0,0 -106.5,-45.3 -284.4,55.7 -127.5,72.3 -170.4,240.5 -170.4,240.5 l 375.8,-195.5" /><path
         id="path238"
         style="fill:#252323;fill-opacity:1;fill-rule:nonzero;stroke:none"
         d="m 15823.4,12023.5 c -133.4,61.6 -266.6,36.8 -336,13.5 -69.3,-23.3 -180.5,-75.4 -180.6,-75.4 -28.7,-14.3 -57.8,-30.4 -74.2,-51.7 -26.3,-34.1 -28.9,-65.1 -28.9,-65.1 0,0 -100.3,-25.5 -98.5,-166.7 1.8,-141.1 47.4,-265.1 85.1,-340.8 37.7,-75.6 112.9,-147.9 112.9,-147.9 l 13,127.9 c 0,0 254.6,281.2 260.9,296.8 6.2,15.6 272.5,104.2 272.5,104.2 l 64,39.5 c 0,0 23.7,91.9 -24,185.4 -14.9,29.4 -39.5,56.7 -66.2,80.3" /><path
         id="path240"
         style="fill:#fbc398;fill-opacity:1;fill-rule:nonzero;stroke:none"
         d="m 15871.9,11805.1 c 0,0 33.3,-33.5 41.7,-47.3 8.3,-13.7 30.2,-145.1 36.7,-178.2 6.5,-33.2 3.7,-79.6 5.8,-95.7 2.1,-16.2 17,-115.1 17.7,-154.5 0.7,-39.3 -22.9,-195.8 -31.8,-237.5 -8.9,-41.7 -22.5,-97.1 -40.5,-110.4 -18,-13.3 -102.6,-28.6 -181,-15.7 -78.4,12.9 -239,94.1 -285.7,141.7 -46.7,47.7 -55.5,158.3 -55.5,158.3 0,0 -30.2,-12.6 -66.7,15.5 -36.5,28.2 -97.3,91.6 -96.5,170.6 0.7,79 63.6,58.6 97.9,31.3 34.2,-27.4 41.4,-74.7 48,-74.9 6.6,-0.3 12.8,2.7 15.9,4.2 3.1,1.5 7.9,83.2 6.9,99.5 -1.1,16.3 -16.8,112.9 -15.1,116.4 1.8,3.6 69.5,110.9 94.2,124 24.6,13 408,52.7 408,52.7" /><path
         id="path242"
         style="fill:#fbc398;fill-opacity:1;fill-rule:nonzero;stroke:none"
         d="m 14875.8,12792 c 7.3,4.9 261.9,9.7 261.9,9.7 0,0 4.8,-177 31.5,-337 26.6,-160 58.2,-400 65.4,-636.4 0,0 21.9,-613.7 25.5,-632.4 3.6,-18.6 81.4,-242.3 131.6,-335 50.2,-92.8 153.9,-714.6 -64.3,-889.2 -218.2,-174.6 -441.9,-38.2 -501.9,92.7 -60,131 -56.4,745.6 -56.4,745.6 0,0 -58.2,200 -69.1,352.7 -10.9,152.8 61.9,356.4 61.9,371 0,14.5 -14.6,247.3 3.6,461.9 18.2,214.5 76.4,454.6 98.2,600 21.8,145.5 12.1,196.4 12.1,196.4" /><path
         id="path244"
         style="fill:#eaad81;fill-opacity:1;fill-rule:nonzero;stroke:none"
         d="m 14936.4,11730.1 c 0,0 47.3,152.7 21.8,283.7 -25.4,130.9 -43.6,276.4 -43.6,276.4 0,0 65.5,-152.8 87.3,-280.1 21.8,-127.3 -65.5,-280 -65.5,-280" /><path
         id="path246"
         style="fill:#eaad81;fill-opacity:1;fill-rule:nonzero;stroke:none"
         d="m 15378.2,10028.2 c -82,109.2 -154.5,498.1 -162.1,516.3 -7.7,18.2 -136.3,283.7 -136.3,283.7 l 198.5,-265.5 c 10.9,-149.1 135,-466.3 135,-466.3 l -35.1,-68.2" /><path
         id="path248"
         style="fill:#eaad81;fill-opacity:1;fill-rule:nonzero;stroke:none"
         d="m 14914.6,10930 c 105.5,76.4 134.6,207.3 134.6,207.3 50.9,-181.9 -134.6,-207.3 -134.6,-207.3" /><path
         id="path250"
         style="fill:#dc9b70;fill-opacity:1;fill-rule:nonzero;stroke:none"
         d="m 15896.5,10522.7 c 0,0 93.9,-105.2 118.6,-302.7 l 33.9,4.5 c 0,0 -7,130.9 -152.5,298.2" /><path
         id="path252"
         style="fill:#e4a57a;fill-opacity:1;fill-rule:nonzero;stroke:none"
         d="m 15823.4,10643.1 c -5.2,0 -56.5,40.6 -101.6,54.1 -48.6,14.6 -144.9,20.5 -144.9,20.5 l -32.2,39.1 50.2,10.7 -134.2,244.9 c 0,0 171.6,-223 181.3,-237.6 9.7,-14.5 16.9,-12.1 58.4,-36.4 41.5,-24.2 121,-87.2 123.4,-94.5 0.2,-0.5 0,-0.8 -0.4,-0.8" /><path
         id="path254"
         style="fill:#e4a57a;fill-opacity:1;fill-rule:nonzero;stroke:none"
         d="m 15846.5,10685.1 24.6,106.7 28.2,-35 -52.8,-71.7" /><path
         id="path256"
         style="fill:#edcab2;fill-opacity:1;fill-rule:nonzero;stroke:none"
         d="m 16231.1,11430 v 0 0 0" /><path
         id="path258"
         style="fill:#eaad81;fill-opacity:1;fill-rule:nonzero;stroke:none"
         d="m 16183.8,11290 c 47.3,72.7 47.3,139.8 47.3,140 v 0 l 47.3,20.1 c -25.5,-105.5 -94.6,-160.1 -94.6,-160.1" /><g
         transform="scale(1.02768)"
         id="g260"><path
           id="path262"
           style="fill:#eaad81;fill-opacity:1;fill-rule:nonzero;stroke:none"
           d="m 15900.1,10950.5 c 0,0 127.3,60.2 208.8,191.1 81.3,131 77.8,237.1 77.8,237.1 0,0 113.3,-314.9 -286.6,-428.2" /></g><g
         transform="scale(1.03813)"
         id="g264"><path
           id="path266"
           style="fill:#eaad81;fill-opacity:1;fill-rule:nonzero;stroke:none"
           d="m 16111.4,11348.3 c 143.6,140.1 147.2,270.9 147.2,270.9 41.4,-228.2 -147.2,-270.9 -147.2,-270.9" /></g><g
         transform="scale(1.0265)"
         id="g268"><path
           id="path270"
           style="fill:#edcab2;fill-opacity:1;fill-rule:nonzero;stroke:none"
           d="m 16297.1,6898.76 c -3,36.24 -5,57.29 -5,57.29 l 7.9,-56.8 c 0,0 -1,-0.2 -2.9,-0.49" /></g><g
         transform="scale(1.02632)"
         id="g272"><path
           id="path274"
           style="fill:#eaad81;fill-opacity:1;fill-rule:nonzero;stroke:none"
           d="m 16260.7,6896.98 c -45.4,0 -116.3,11.69 -155.3,78.05 0,0 65.9,-32.94 128.1,-32.94 22,0 43.5,4.09 61.5,15.2 v 0 c 0,0 2,-21.04 5,-57.29 -5.9,-0.97 -20.5,-3.02 -39.3,-3.02" /></g><g
         transform="scale(1.0192)"
         id="g276"><path
           id="path278"
           style="fill:#eaad81;fill-opacity:1;fill-rule:nonzero;stroke:none"
           d="m 16164.4,6024.61 c 50.4,402.77 21.4,792.19 21.4,792.19 114.2,-392.56 -21.4,-792.19 -21.4,-792.19" /></g><g
         transform="scale(1.0829)"
         id="g280"><path
           id="path282"
           style="fill:#eaad81;fill-opacity:1;fill-rule:nonzero;stroke:none"
           d="m 16147.4,5847.84 c 72.8,375.01 70.1,742.55 70.1,742.55 82.5,-375.85 -70.1,-742.55 -70.1,-742.55" /></g><g
         transform="scale(1.00403)"
         id="g284"><path
           id="path286"
           style="fill:#dc9b70;fill-opacity:1;fill-rule:nonzero;stroke:none"
           d="m 16156.9,7236.73 143.1,-128.58 -155.1,86.75 12,41.83" /></g><g
         transform="scale(1.07275)"
         id="g288"><path
           id="path290"
           style="fill:#dc9b70;fill-opacity:1;fill-rule:nonzero;stroke:none"
           d="m 16144,6995.17 156,-145.8 -180.2,92.39 24.2,53.41" /></g><g
         transform="scale(1.09209)"
         id="g292"><path
           id="path294"
           style="fill:#eaad81;fill-opacity:1;fill-rule:nonzero;stroke:none"
           d="m 16259.9,6619.72 c -24.4,0 -61.1,5.31 -82,33.51 0,0 0.3,0 1,0 9.4,0 85.7,0.83 121.1,27.02 l -15.6,-58.7 v 0 0 c 0,0 -10,-1.83 -24.5,-1.83" /></g><path
         id="path296"
         style="fill:#2f65aa;fill-opacity:1;fill-rule:nonzero;stroke:none"
         d="m 15413.3,10096.4 c 0,0 98.4,-122.9 229,-141.1 130.6,-18.2 181.6,-18.2 181.6,-18.2 0,0 -128.7,-78 -228.1,-48.1 -99.3,30 -217.6,139.2 -217.6,139.2 l 35.1,68.2" /><g
         transform="scale(1.0059)"
         id="g298"><path
           id="path300"
           style="fill:#2f65aa;fill-opacity:1;fill-rule:nonzero;stroke:none"
           d="m 16300,9969.32 c 0,0 -55.7,-72.43 -178.5,-97.68 0,0 71.4,-43.44 178.5,21.67 v 76.01" /></g><path
         id="path302"
         style="fill:#ecaf86;fill-opacity:1;fill-rule:nonzero;stroke:none"
         d="m 14754.6,13093.6 c 0,0 24.2,95.2 46,104.9 21.9,9.7 55.8,9.7 55.8,9.7 0,0 46.1,36.3 92.1,36.3 46.1,0 56.9,-16.9 56.9,-16.9 0,0 42.5,21.8 86.2,16.9 43.6,-4.8 53.3,-16.9 53.3,-16.9 0,0 17,15.1 36.4,3.9 19.4,-11.2 -18.5,-141.2 -18.5,-141.2 0,0 -29.4,-22.7 -57.6,-22.7 -28.2,0 -45.1,14.5 -45.1,14.5 0,0 -29.4,-9.7 -54.7,-14.5 -25.3,-4.9 -45.4,16.9 -45.4,16.9 0,0 -16.3,-4.8 -45.4,0 -29.1,4.9 -45.4,5.3 -45.4,5.3 l -114.6,3.8" /><g
         transform="scale(1.06033)"
         id="g304"><path
           id="path306"
           style="fill:#fbc398;fill-opacity:1;fill-rule:nonzero;stroke:none"
           d="m 16055.3,11903 c 0,0 22.9,37.7 -48,78.9 -70.9,41.1 -146.3,139.4 -146.3,139.4 h 150.9 c 0,0 29.7,45.8 27.4,123.5 -2.2,77.8 -20.4,166.9 19.5,169.2 39.9,2.3 76.5,-84.6 78.8,-125.7 2.4,-41.2 0,-173.8 0,-173.8 l 151,-9.2 c 0,0 11.4,-96 0,-146.3 -11.5,-50.3 -75.6,-80 -75.6,-80 0,0 -73,-80.1 -82.2,-73.2 -9.1,6.9 -75.5,97.2 -75.5,97.2" /></g><g
         transform="scale(1.13397)"
         id="g308"><path
           id="path310"
           style="fill:#3970c1;fill-opacity:1;fill-rule:nonzero;stroke:none"
           d="m 15322.7,4967.86 c 0,0 -50.6,-308.91 3.8,-349.48 54.3,-40.57 229.1,-0.62 309.2,-34.83 80.2,-34.22 434.3,-61.12 549.3,68.96 115,130.07 -376.9,314.73 -408.5,345.86 -31.5,31.22 -66.6,94.45 -91.5,124.26 -25,29.89 -111,32.62 -111,32.62 0,0 -47,66.32 -88.5,26.2 -41.4,-40.04 -162.8,-213.59 -162.8,-213.59" /></g><g
         transform="scale(1.09144)"
         id="g312"><path
           id="path314"
           style="fill:#f5f6f5;fill-opacity:1;fill-rule:nonzero;stroke:none"
           d="m 16182.6,5348.61 c 0,0 -34.1,-5.68 -39.4,-27.76 -5.1,-22.17 -12.4,-66.24 -20.4,-88.5 -7.9,-22.36 -128.6,-24.19 -128.6,-24.19 l -7.9,236.66 287,8.7 26.7,-147.14 c 0,0 -36.1,32.89 -117.4,42.23" /></g><g
         transform="scale(1.0527)"
         id="g316"><path
           id="path318"
           style="fill:#3970c1;fill-opacity:1;fill-rule:nonzero;stroke:none"
           d="m 15646.4,5208.99 -30.2,-76.76 c 0,0 -10.3,-397.36 4.7,-441.91 15,-44.55 157.2,-193.88 287.4,-232.82 130.2,-38.95 374,39.89 382.9,113.99 8.8,74.09 -254.3,438.2 -284.9,509.07 -30.5,70.87 -18.8,232.64 -51.9,255.82 -33.1,23.27 -74.2,8.83 -74.2,8.83 l -247.7,47.5 13.9,-183.72" /></g><g
         transform="scale(1.02844)"
         id="g320"><path
           id="path322"
           style="fill:#f5f6f5;fill-opacity:1;fill-rule:nonzero;stroke:none"
           d="m 16254.9,5471.32 c 0,0 -31.6,-0.58 -43.4,-38.99 -11.8,-38.41 -16.5,-53.77 -31.6,-64.27 -15,-10.5 -166.5,-7.1 -166.5,-7.1 l -35.1,210.51 319.3,12.93 2.4,-102.19 -45.1,-10.89" /></g><path
         id="path324"
         style="fill:#b0b0ae;fill-opacity:1;fill-rule:nonzero;stroke:none"
         d="m 10663.2,5952.2 v -275.3 l 3687.7,-947.7 163.7,90.9 v 291 l -3680.5,901.9 -170.9,-60.8" /><g
         transform="scale(1.12273)"
         id="g326"><path
           id="path328"
           style="fill:#b0b0ae;fill-opacity:1;fill-rule:nonzero;stroke:none"
           d="m 10002.9,5242.31 1467.4,7939.49 466.4,64.7 3679.8,-492.3 683.5,77.7 -73.3,155.6 -597.3,25.8 -3216.5,401.7 -155.5,161.9 -1091.7,-155.4 -1431.66,-8137.06 268.86,-42.13" /></g><path
         id="path330"
         style="fill:#b0b0ae;fill-opacity:1;fill-rule:nonzero;stroke:none"
         d="m 13587.2,5259.3 h -174.6 v 10059.2 h 174.6 V 5259.3" /><path
         id="path332"
         style="fill:#b0b0ae;fill-opacity:1;fill-rule:nonzero;stroke:none"
         d="m 13663.5,5154.7 h -300 v 420.1 h 300 v -420.1" /><g
         transform="scale(1.11826)"
         id="g334"><path
           id="path336"
           style="fill:#dfdfdd;fill-opacity:1;fill-rule:nonzero;stroke:none"
           d="m 12797.4,11624.6 3362.7,-178.4 124.4,48.8 15.5,110 -3502.6,117.1 v -97.5" /></g><g
         transform="scale(1.03004)"
         id="g338"><path
           id="path340"
           style="fill:#100f0d;fill-opacity:1;fill-rule:nonzero;stroke:none"
           d="m 16109.1,7631.28 c 0,0 -300.2,277.27 -371.8,319.41 -71.6,42.13 -194.8,76.89 -194.8,76.89 l 221.4,-17.19 124.6,140.48 -40.3,-189.6 c 0,0 306.7,-255.24 451.8,-513.87 l -100.9,14.37 -90,169.51" /></g><path
         id="path342"
         style="fill:#fbc398;fill-opacity:1;fill-rule:nonzero;stroke:none"
         d="m 15137.7,12801.7 c 0,0 16.2,74 78.4,132.2 62.2,58.2 47.6,347.9 30.7,377 -17,29.1 -65.5,-21.8 -70.3,-87.3 -4.9,-65.5 -12.2,-123.7 -21.9,-135.8 -9.7,-12.1 -99.4,-113.9 -99.4,-113.9 l -288.5,-2.5 c 0,0 43.6,-113.9 109.1,-179.4 65.5,-65.4 84.9,-72.7 99.4,-60.6 14.6,12.1 162.5,70.3 162.5,70.3" /><g
         transform="scale(1.135)"
         id="g344"><path
           id="path346"
           style="fill:#959595;fill-opacity:1;fill-rule:nonzero;stroke:none"
           d="m 16300,5472.34 -8,7465.96 h -240.4 l -33.5,-7465.96 h 281.9" /></g><g
         transform="scale(1.12273)"
         id="g348"><path
           id="path350"
           style="fill:#959595;fill-opacity:1;fill-rule:nonzero;stroke:none"
           d="m 16300,6860.33 h -204.1 v 97.18 h 204.1 v -97.18" /></g><g
         transform="scale(1.12273)"
         id="g352"><path
           id="path354"
           style="fill:#959595;fill-opacity:1;fill-rule:nonzero;stroke:none"
           d="m 16300,7364.82 h -204.1 v 97.17 h 204.1 v -97.17" /></g><g
         transform="scale(1.12273)"
         id="g356"><path
           id="path358"
           style="fill:#959595;fill-opacity:1;fill-rule:nonzero;stroke:none"
           d="m 16300,7869.3 h -204.1 v 97.17 h 204.1 v -97.17" /></g><g
         transform="scale(1.12273)"
         id="g360"><path
           id="path362"
           style="fill:#959595;fill-opacity:1;fill-rule:nonzero;stroke:none"
           d="m 16300,8373.79 h -204.1 v 97.17 h 204.1 v -97.17" /></g><g
         transform="scale(1.12273)"
         id="g364"><path
           id="path366"
           style="fill:#959595;fill-opacity:1;fill-rule:nonzero;stroke:none"
           d="m 16300,8878.27 h -204.1 v 97.17 h 204.1 v -97.17" /></g><g
         transform="scale(1.12273)"
         id="g368"><path
           id="path370"
           style="fill:#959595;fill-opacity:1;fill-rule:nonzero;stroke:none"
           d="m 16300,9382.76 h -204.1 v 97.17 h 204.1 v -97.17" /></g><g
         transform="scale(1.12273)"
         id="g372"><path
           id="path374"
           style="fill:#959595;fill-opacity:1;fill-rule:nonzero;stroke:none"
           d="m 16300,9887.23 h -204.1 v 97.17 h 204.1 v -97.17" /></g><g
         transform="scale(1.12273)"
         id="g376"><path
           id="path378"
           style="fill:#959595;fill-opacity:1;fill-rule:nonzero;stroke:none"
           d="m 16300,10391.7 h -204.1 v 97.2 h 204.1 v -97.2" /></g><g
         transform="scale(1.12273)"
         id="g380"><path
           id="path382"
           style="fill:#959595;fill-opacity:1;fill-rule:nonzero;stroke:none"
           d="m 16300,10896.2 h -204.1 v 97.2 h 204.1 v -97.2" /></g><g
         transform="scale(1.12273)"
         id="g384"><path
           id="path386"
           style="fill:#959595;fill-opacity:1;fill-rule:nonzero;stroke:none"
           d="m 16300,11400.7 h -204.1 v 97.1 h 204.1 v -97.1" /></g><g
         transform="scale(1.12273)"
         id="g388"><path
           id="path390"
           style="fill:#959595;fill-opacity:1;fill-rule:nonzero;stroke:none"
           d="m 16300,11905.2 h -204.1 v 97.1 h 204.1 v -97.1" /></g><path
         id="path392"
         style="fill:#b0b0ae;fill-opacity:1;fill-rule:nonzero;stroke:none"
         d="m 14310.9,13679.4 h -229.1 v 109.1 h 229.1 v -109.1" /><path
         id="path394"
         style="fill:#b0b0ae;fill-opacity:1;fill-rule:nonzero;stroke:none"
         d="m 14310.9,12999.3 h -229.1 v 109.1 h 229.1 v -109.1" /><path
         id="path396"
         style="fill:#b0b0ae;fill-opacity:1;fill-rule:nonzero;stroke:none"
         d="m 14310.9,12319.2 h -229.1 v 109.2 h 229.1 v -109.2" /><path
         id="path398"
         style="fill:#b0b0ae;fill-opacity:1;fill-rule:nonzero;stroke:none"
         d="m 14310.9,11639.2 h -229.1 v 109.1 h 229.1 v -109.1" /><path
         id="path400"
         style="fill:#b0b0ae;fill-opacity:1;fill-rule:nonzero;stroke:none"
         d="m 14310.9,10959.1 h -229.1 v 109.1 h 229.1 v -109.1" /><path
         id="path402"
         style="fill:#b0b0ae;fill-opacity:1;fill-rule:nonzero;stroke:none"
         d="m 14310.9,10279 h -229.1 v 109.1 h 229.1 V 10279" /><path
         id="path404"
         style="fill:#b0b0ae;fill-opacity:1;fill-rule:nonzero;stroke:none"
         d="m 14310.9,9598.9 h -229.1 V 9708 h 229.1 v -109.1" /><path
         id="path406"
         style="fill:#b0b0ae;fill-opacity:1;fill-rule:nonzero;stroke:none"
         d="m 14310.9,8918.8 h -229.1 v 109.1 h 229.1 v -109.1" /><path
         id="path408"
         style="fill:#b0b0ae;fill-opacity:1;fill-rule:nonzero;stroke:none"
         d="m 14310.9,8238.7 h -229.1 v 109.2 h 229.1 v -109.2" /><path
         id="path410"
         style="fill:#b0b0ae;fill-opacity:1;fill-rule:nonzero;stroke:none"
         d="m 14310.9,7558.7 h -229.1 v 109.1 h 229.1 v -109.1" /><path
         id="path412"
         style="fill:#b0b0ae;fill-opacity:1;fill-rule:nonzero;stroke:none"
         d="m 14110.9,15318.5 h -349.2 V 5179.2 h 349.2 v 10139.3" /><g
         transform="scale(1.10666)"
         id="g414"><path
           id="path416"
           style="fill:#959595;fill-opacity:1;fill-rule:nonzero;stroke:none"
           d="m 16294.3,12212.3 5.7,1057.3 h -162.7 v -1057.3 h 157" /></g><path
         id="path418"
         style="fill:#343434;fill-opacity:1;fill-rule:nonzero;stroke:none"
         d="m 13434.3,14050.4 -265.4,-4 v -57.9 l -3.1,-40.8 c -184.7,-150.7 -310.8,-452.1 -310.8,-799.3 0,-367.4 141.2,-683.5 343.6,-824 l 24.7,-77.9 h 211 c 319.9,0 579.2,403.8 579.2,901.9 0,498.2 -259.3,902 -579.2,902" /><path
         id="path420"
         style="fill:#494a4b;fill-opacity:1;fill-rule:nonzero;stroke:none"
         d="m 13802.6,13148.4 c 0,-498.1 -259.3,-901.9 -579.3,-901.9 -319.9,0 -579.2,403.8 -579.2,901.9 0,498.2 259.3,902 579.2,902 320,0 579.3,-403.8 579.3,-902" /><path
         id="path422"
         style="fill:#797a7b;fill-opacity:1;fill-rule:nonzero;stroke:none"
         d="m 13352.9,13168.4 c 0,-101.4 -64.3,-183.6 -143.6,-183.6 -79.4,0 -143.7,82.2 -143.7,183.6 0,101.5 64.3,183.7 143.7,183.7 79.3,0 143.6,-82.2 143.6,-183.7" /><path
         id="path424"
         style="fill:#dfdfdd;fill-opacity:1;fill-rule:nonzero;stroke:none"
         d="m 13174.8,13240.6 h -723.4 c -26.9,0 -48.6,-21.8 -48.6,-48.6 v -72.6 c 0,-26.8 21.7,-48.5 48.6,-48.5 h 723.4 c 26.8,0 48.5,21.7 48.5,48.5 v 72.6 c 0,26.8 -21.7,48.6 -48.5,48.6" /></g></g></svg>