<?xml version="1.0" encoding="UTF-8" standalone="no"?>
<svg
   xmlns:dc="http://purl.org/dc/elements/1.1/"
   xmlns:cc="http://creativecommons.org/ns#"
   xmlns:rdf="http://www.w3.org/1999/02/22-rdf-syntax-ns#"
   xmlns:svg="http://www.w3.org/2000/svg"
   xmlns="http://www.w3.org/2000/svg"
   viewBox="0 0 2666.6667 2666.6667"
   height="2666.6667"
   width="2666.6667"
   xml:space="preserve"
   id="svg2"
   version="1.1"><metadata
     id="metadata8"><rdf:RDF><cc:Work
         rdf:about=""><dc:format>image/svg+xml</dc:format><dc:type
           rdf:resource="http://purl.org/dc/dcmitype/StillImage" /></cc:Work></rdf:RDF></metadata><defs
     id="defs6" /><g
     transform="matrix(1.3333333,0,0,-1.3333333,0,2666.6667)"
     id="g10"><g
       transform="scale(0.1)"
       id="g12"><g
         transform="scale(1.22699)"
         id="g14"><path
           id="path16"
           style="fill:none;fill-opacity:1;fill-rule:nonzero;stroke:none"
           d="M 16300,0 H 0 V 16300 H 16300 V 0" /></g><path
         id="path18"
         style="fill:#295893;fill-opacity:1;fill-rule:nonzero;stroke:none"
         d="m 4972.59,4164.4 c 0,0 -165.94,-203.2 -174.41,-406.5 -8.47,-203.3 110.11,-389.7 0,-626.9 -110.12,-237.1 -85.58,-686.1 -0.44,-821.6 85.14,-135.5 280.22,-247.1 445.27,134.8 165.05,381.9 181.99,1000.2 181.99,1000.2 l 16.94,465.9 -469.35,254.1" /><path
         id="path20"
         style="fill:#3970c0;fill-opacity:1;fill-rule:nonzero;stroke:none"
         d="m 5230.18,3368.2 c 0,0 -33.88,-389.6 0,-720 33.88,-330.3 -8.47,-720 76.24,-813.2 84.7,-93.1 189.4,-59.3 272.58,-33.8 83.18,25.4 241.9,364.2 293.83,559 51.94,194.8 -68.87,381.2 0,457.4 68.88,76.3 229.82,516.7 162.05,652.3 -67.76,135.5 -457.41,220.2 -457.41,220.2 l -347.29,-321.9" /><path
         id="path22"
         style="fill:#fbc398;fill-opacity:1;fill-rule:nonzero;stroke:none"
         d="m 5577.47,6109.9 v -751.1 c 0,0 -304.94,-355.8 -364.23,-482.8 -59.29,-127.1 169.41,-1025 228.7,-965.7 59.3,59.3 499.77,533.7 584.47,703.1 84.71,169.4 169.41,491.3 169.41,491.3 0,0 76.24,237.2 127.06,474.3 50.83,237.2 76.24,796.3 76.24,796.3 0,0 -686.12,67.7 -720,42.3 -33.89,-25.4 -101.65,-307.7 -101.65,-307.7" /><path
         id="path24"
         style="fill:#f0c9b1;fill-opacity:1;fill-rule:nonzero;stroke:none"
         d="m 5441.94,3910.3 v 0 0 c 0.1,0.1 0.21,0.2 0.31,0.3 -0.1,-0.1 -0.2,-0.2 -0.31,-0.3 v 0 m 0.4,0.4 c 0.05,0.1 0.11,0.1 0.16,0.2 -0.05,-0.1 -0.1,-0.1 -0.16,-0.2 m 0.42,0.4 c 0.08,0.1 0.17,0.2 0.26,0.3 -0.09,-0.1 -0.18,-0.2 -0.26,-0.3 m 0.71,0.8 c 0.01,0 0.03,0 0.04,0 -0.02,0 -0.03,0 -0.04,0 m 0.17,0.1 c 0.16,0.2 0.31,0.4 0.48,0.5 -0.17,-0.1 -0.32,-0.3 -0.48,-0.5 m 0.66,0.7 v 0 0 m 0.84,0.9 c 0.01,0 0.02,0 0.04,0 -0.02,0 -0.03,0 -0.04,0 m 0.51,0.5 c 0.05,0 0.09,0.1 0.13,0.1 -0.04,0 -0.08,-0.1 -0.13,-0.1 m 0.65,0.6 c 0.08,0.1 0.16,0.2 0.24,0.3 -0.08,-0.1 -0.16,-0.2 -0.24,-0.3 m 0.65,0.7 c 0.03,0 0.07,0.1 0.1,0.1 -0.03,0 -0.07,-0.1 -0.1,-0.1 m -233.51,961 c 0.01,0 0.03,0.1 0.05,0.1 -0.02,0 -0.04,-0.1 -0.05,-0.1 m 0.2,0.4 c 0.02,0.1 0.03,0.1 0.05,0.1 -0.02,0 -0.03,0 -0.05,-0.1 m 0.2,0.4 c 0.02,0.1 0.04,0.1 0.07,0.2 -0.03,-0.1 -0.05,-0.1 -0.07,-0.2 m 0.23,0.5 c 0.01,0.1 0.02,0.1 0.03,0.1 -0.01,0 -0.02,0 -0.03,-0.1 m 0.24,0.5 c 0.01,0.1 0.01,0.1 0.02,0.1 0,0 -0.02,0 -0.02,-0.1 m 0.21,0.5 c 0.02,0 0.04,0.1 0.06,0.1 -0.02,0 -0.04,-0.1 -0.06,-0.1 m 0.2,0.4 c 0.02,0 0.05,0.1 0.08,0.2 -0.03,-0.1 -0.06,-0.2 -0.08,-0.2 m 0.23,0.5 c 0.02,0 0.03,0 0.05,0.1 -0.02,-0.1 -0.03,-0.1 -0.05,-0.1 m 0.24,0.5 c 0.01,0 0.02,0 0.03,0 -0.02,0 -0.02,0 -0.03,0 m 0.24,0.5 c 0.02,0 0.03,0 0.05,0 -0.02,0 -0.03,0 -0.05,0 m 0.22,0.4 c 0.02,0 0.05,0.1 0.07,0.1 -0.02,0 -0.05,-0.1 -0.07,-0.1 m 0.22,0.4 c 0.02,0.1 0.05,0.1 0.07,0.2 -0.02,-0.1 -0.05,-0.1 -0.07,-0.2 m 0.21,0.5 c 0.03,0 0.06,0.1 0.1,0.2 -0.03,-0.1 -0.07,-0.2 -0.1,-0.2 m 0.22,0.4 c 0.03,0.1 0.06,0.1 0.09,0.2 -0.03,-0.1 -0.06,-0.1 -0.09,-0.2 m 0.29,0.6 c 0.03,0.1 0.06,0.1 0.09,0.2 -0.03,-0.1 -0.06,-0.2 -0.09,-0.2 m 0.25,0.5 c 0.02,0 0.04,0.1 0.06,0.1 -0.02,0 -0.04,-0.1 -0.06,-0.1 m 0.21,0.4 c 0.03,0.1 0.06,0.1 0.09,0.2 -0.03,-0.1 -0.06,-0.1 -0.09,-0.2 m 0.24,0.5 c 0.03,0 0.06,0.1 0.08,0.1 -0.02,0 -0.05,-0.1 -0.08,-0.1 m 0.2,0.4 c 0.1,0.2 0.2,0.4 0.3,0.6 -0.09,-0.2 -0.2,-0.4 -0.3,-0.6 m 0.31,0.6 c 0.05,0.1 0.1,0.2 0.15,0.3 -0.05,-0.1 -0.1,-0.2 -0.15,-0.3 m 0.24,0.4 c 0.04,0.1 0.09,0.2 0.14,0.3 -0.05,-0.1 -0.1,-0.2 -0.14,-0.3 m 0.22,0.5 c 0.05,0.1 0.09,0.1 0.14,0.2 -0.05,-0.1 -0.09,-0.1 -0.14,-0.2 m 0.23,0.4 c 0.26,0.5 0.52,1 0.78,1.5 -0.26,-0.5 -0.52,-1 -0.78,-1.5 m 0.8,1.5 c 0.14,0.3 0.28,0.6 0.42,0.8 -0.14,-0.2 -0.28,-0.5 -0.42,-0.8 m 0.44,0.9 c 0.28,0.5 0.56,1 0.85,1.6 -0.29,-0.6 -0.58,-1.1 -0.85,-1.6 m 0.88,1.6 c 0.07,0.2 0.14,0.3 0.2,0.4 -0.07,-0.1 -0.13,-0.2 -0.2,-0.4 m 0.24,0.5 c 0.07,0.1 0.13,0.2 0.19,0.3 -0.06,-0.1 -0.12,-0.2 -0.19,-0.3 m 0.22,0.4 c 8.13,15.1 18.76,32.5 31.24,51.6 -12.48,-19.1 -23.11,-36.5 -31.24,-51.6 m 31.28,51.6 c 0.3,0.5 0.59,0.9 0.89,1.4 -0.3,-0.5 -0.59,-0.9 -0.89,-1.4 m 1.41,2.2 c 0.06,0.1 0.11,0.2 0.17,0.2 -0.05,0 -0.12,-0.1 -0.17,-0.2 m 0.38,0.6 c 0.05,0 0.1,0.1 0.15,0.2 -0.05,-0.1 -0.1,-0.2 -0.15,-0.2 m 0.47,0.7 c 0.02,0 0.03,0 0.05,0.1 -0.02,-0.1 -0.03,-0.1 -0.05,-0.1 m 1.75,2.6 c 0,0 0,0 0.01,0 -0.01,0 -0.01,0 -0.01,0" /><path
         id="path26"
         style="fill:#ecae82;fill-opacity:1;fill-rule:nonzero;stroke:none"
         d="m 5435.77,3907.5 c -59.52,0.1 -232.11,658.9 -232.26,898 -0.02,31.7 3,56.1 9.73,70.5 0.06,0.1 0.13,0.3 0.2,0.4 0.01,0 0.03,0.1 0.05,0.1 0.04,0.1 0.1,0.2 0.15,0.3 0.02,0.1 0.03,0.1 0.05,0.1 0.05,0.1 0.1,0.2 0.15,0.3 0.02,0.1 0.04,0.1 0.07,0.2 0.05,0.1 0.11,0.2 0.16,0.3 0.01,0.1 0.02,0.1 0.03,0.1 0.07,0.1 0.14,0.3 0.21,0.4 0,0.1 0.02,0.1 0.02,0.1 0.06,0.1 0.12,0.2 0.19,0.4 0.02,0 0.04,0.1 0.06,0.1 0.05,0.1 0.09,0.2 0.14,0.3 0.02,0 0.05,0.1 0.08,0.2 0.05,0.1 0.1,0.2 0.15,0.3 0.02,0 0.03,0 0.05,0.1 0.06,0.1 0.12,0.2 0.19,0.4 0.01,0 0.01,0 0.03,0 0.07,0.2 0.14,0.3 0.21,0.5 0.02,0 0.03,0 0.05,0 0.05,0.2 0.11,0.3 0.17,0.4 0.02,0 0.05,0.1 0.07,0.1 0.05,0.1 0.1,0.2 0.15,0.3 0.02,0.1 0.05,0.1 0.07,0.2 0.05,0.1 0.09,0.2 0.14,0.3 0.03,0 0.07,0.1 0.1,0.2 0.04,0 0.08,0.1 0.12,0.2 0.03,0.1 0.06,0.1 0.09,0.2 0.07,0.1 0.13,0.3 0.2,0.4 0.03,0 0.06,0.1 0.09,0.2 0.05,0.1 0.1,0.2 0.16,0.3 0.02,0 0.04,0.1 0.06,0.1 0.05,0.1 0.1,0.2 0.15,0.3 0.03,0.1 0.06,0.1 0.09,0.2 0.05,0.1 0.1,0.2 0.15,0.3 0.03,0 0.06,0.1 0.08,0.1 0.04,0.1 0.08,0.2 0.12,0.3 0.1,0.2 0.21,0.4 0.3,0.6 0.01,0 0.01,0 0.01,0 0.05,0.1 0.1,0.2 0.15,0.3 0.03,0 0.06,0.1 0.09,0.1 0.04,0.1 0.09,0.2 0.14,0.3 0.03,0.1 0.05,0.1 0.08,0.2 0.05,0.1 0.09,0.1 0.14,0.2 0.03,0.1 0.06,0.2 0.09,0.2 0.26,0.5 0.52,1 0.78,1.5 0.01,0 0.01,0 0.02,0 0.14,0.3 0.28,0.6 0.42,0.8 0.01,0.1 0.01,0.1 0.02,0.1 0.27,0.5 0.56,1 0.85,1.6 0.01,0 0.02,0 0.03,0 0.07,0.2 0.13,0.3 0.2,0.4 0.01,0 0.03,0.1 0.04,0.1 0.07,0.1 0.13,0.2 0.19,0.3 0.01,0.1 0.02,0.1 0.03,0.1 8.13,15.1 18.76,32.5 31.24,51.6 0.01,0 0.03,0 0.04,0 0.3,0.5 0.59,0.9 0.89,1.4 0.17,0.3 0.35,0.5 0.52,0.8 0.05,0.1 0.12,0.2 0.17,0.2 0.07,0.1 0.14,0.2 0.21,0.4 0.05,0 0.1,0.1 0.15,0.2 0.11,0.1 0.21,0.3 0.32,0.5 0.02,0 0.03,0 0.05,0.1 0.56,0.8 1.13,1.7 1.7,2.5 0,0 0,0 0.01,0 54.96,82.8 142.4,193.5 212.17,278.9 60.18,-88.1 141.62,-232.9 219.05,-453.8 57.5,-164 122.61,-288.5 185.24,-377.7 -156.45,-193.9 -373.42,-427.6 -425.78,-481.1 -0.03,0 -0.07,-0.1 -0.1,-0.1 -0.13,-0.1 -0.27,-0.3 -0.41,-0.4 -0.08,-0.1 -0.16,-0.2 -0.24,-0.3 -0.17,-0.1 -0.35,-0.3 -0.52,-0.5 -0.04,0 -0.08,-0.1 -0.13,-0.1 -0.16,-0.2 -0.31,-0.3 -0.47,-0.5 -0.02,0 -0.03,0 -0.04,0 -0.29,-0.3 -0.57,-0.6 -0.84,-0.9 v 0 c -0.06,-0.1 -0.12,-0.1 -0.18,-0.2 -0.17,-0.1 -0.32,-0.3 -0.48,-0.5 -0.05,0 -0.09,-0.1 -0.13,-0.1 -0.01,0 -0.03,0 -0.04,0 -0.15,-0.2 -0.31,-0.3 -0.45,-0.5 -0.09,-0.1 -0.18,-0.2 -0.26,-0.3 -0.09,0 -0.17,-0.1 -0.26,-0.2 -0.05,-0.1 -0.11,-0.1 -0.16,-0.2 -0.02,0 -0.06,0 -0.09,-0.1 -0.1,-0.1 -0.21,-0.2 -0.31,-0.3 v 0 c -1.89,-1.9 -3.95,-2.8 -6.17,-2.8" /><path
         id="path28"
         style="fill:#fbc398;fill-opacity:1;fill-rule:nonzero;stroke:none"
         d="m 4366.18,6299 c 0,-42.3 135.53,-830.1 135.53,-830.1 0,0 42.35,-245.6 93.18,-338.8 50.82,-93.2 42.35,-516.7 245.64,-864 203.3,-347.3 389.65,-897.9 389.65,-897.9 0,0 206.11,-33.9 285.18,67.8 79.05,101.6 62.11,220.2 62.11,254.1 0,33.9 -22.59,372.7 -62.11,779.3 -39.53,406.6 -234.36,770.8 -259.77,906.3 -25.41,135.6 90.35,666.4 90.35,666.4 L 4366.18,6299" /><path
         id="path30"
         style="fill:#232221;fill-opacity:1;fill-rule:nonzero;stroke:none"
         d="m 4747.36,9373.9 -259.77,-122.6 c 0,0 -73.41,-543.8 -138.35,-769.7 -64.94,-225.9 -234.35,-2337.9 -234.35,-2337.9 0,0 677.64,-90.3 914.82,-101.6 237.17,-11.3 316.23,0 316.23,0 l 169.42,304.9 62.11,-237.1 h 1056 c 0,0 -33.88,1321.4 0,1490.8 33.88,169.4 -158.12,1638.4 -158.12,1638.4 0,0 -824.47,383.2 -948.7,394.5 -124.24,11.3 -779.29,-259.7 -779.29,-259.7" /><path
         id="path32"
         style="fill:#fbc398;fill-opacity:1;fill-rule:nonzero;stroke:none"
         d="m 4349.24,11398.1 v 389.9 c 0,0 -140.24,277.6 -151.53,541.1 -11.3,263.6 15.06,376.5 0,391.6 -15.06,15 -17.1,218.3 -2.9,478.1 14.19,259.8 55.34,500.7 72.42,628.7 17.07,128 -20.84,225.9 0,350.1 20.83,124.2 -45.05,406.6 82.01,824.5 127.06,417.9 187.29,658.8 191.06,873.4 l 338.82,-33.9 c 0,0 -18.82,-237.2 0,-538.3 18.82,-301.2 3.76,-636.3 -37.65,-892.3 -41.41,-256 -37.64,-368.9 18.83,-530.8 56.47,-161.9 90.35,-542.1 67.76,-745.4 -22.59,-203.3 -33.88,-259.8 -26.35,-316.2 7.53,-56.5 188.23,-358.5 188.23,-358.5 l 228.3,-911.9 c 0,0 321.93,-416.2 -194.12,-450.1 -516.06,-33.9 -565,18.8 -587.59,52.7 -22.59,33.9 -187.29,247.3 -187.29,247.3" /><path
         id="path34"
         style="fill:#fbc398;fill-opacity:1;fill-rule:nonzero;stroke:none"
         d="m 6213.1,12460.1 194.49,302 c 0,0 -59.29,438.9 0,719.2 59.29,280.3 110.12,500.5 110.12,500.5 0,0 -16.94,626.9 76.23,923.3 93.18,296.5 127.06,864 127.06,864 h 330.35 c 0,0 42.36,-432 67.77,-694.5 25.41,-262.6 -25.41,-1143.6 -33.88,-1219.8 -8.48,-76.2 98.8,-576 40.93,-940.2 -57.88,-364.3 -24,-745.5 -142.58,-948.7 -118.59,-203.3 -259.77,-779.3 -259.77,-779.3 0,0 141.18,16.9 -256.94,33.8 -398.12,17 -576,211.8 -576,211.8 l 322.22,1027.9" /><path
         id="path36"
         style="fill:#ecae82;fill-opacity:1;fill-rule:nonzero;stroke:none"
         d="m 4961.94,11310.8 -160.62,131.2 c -8.78,32.6 30.74,168.1 47.68,371.4 15.39,184.6 12.15,285.4 19.88,285.4 0.79,0 1.68,-1 2.71,-3.1 11.29,-22.6 121.41,-434.8 121.41,-434.8 l -31.06,-350.1" /><path
         id="path38"
         style="fill:#ecae82;fill-opacity:1;fill-rule:nonzero;stroke:none"
         d="m 6361.36,11310.8 -31.06,350.1 c 0,0 110.12,412.2 121.41,434.8 1.04,2.1 1.93,3.1 2.71,3.1 7.74,0 4.5,-100.8 19.89,-285.4 16.94,-203.3 56.46,-338.8 47.67,-371.4 l -160.62,-131.2" /><path
         id="path40"
         style="fill:#3970c0;fill-opacity:1;fill-rule:nonzero;stroke:none"
         d="m 5162.41,12338.6 -72.47,121.5 c 0,0 13.18,-528.1 -96.94,-799.2 -110.11,-271 -423.53,-330.9 -643.76,-262.8 0,0 59.3,-457.2 76.23,-609.7 16.95,-152.4 127.06,-796.2 118.59,-957.1 -8.47,-161 -91.55,-818.7 -91.55,-818.7 0,0 394.53,-155.5 1062.85,-121.6 668.31,33.9 988.75,121.6 988.75,121.6 0,0 -28.76,683.1 5.12,878 33.89,194.8 135.54,727.4 186.36,965.1 50.82,237.7 110.11,618.9 110.11,618.9 0,0 -431.99,127 -508.23,288 -76.23,160.9 -84.36,697.5 -84.36,697.5 l -110.46,-48.1 -437.17,-327.6 c 0,0 -307,-8.4 -341.51,25.5 -34.5,33.8 -161.56,228.7 -161.56,228.7" /><path
         id="path42"
         style="fill:#fbc398;fill-opacity:1;fill-rule:nonzero;stroke:none"
         d="m 5314.88,12889.1 -42.35,-601.4 -110.12,50.9 c 0,0 -8.46,-499.8 76.24,-677.7 84.7,-177.9 288,-254.1 347.29,-262.6 59.29,-8.4 415.06,186.4 474.35,279.6 59.3,93.1 42.36,734.1 42.36,734.1 l -101.65,-50.9 -11.29,553.5 -674.83,-25.5" /><path
         id="path44"
         style="fill:#e19f72;fill-opacity:1;fill-rule:nonzero;stroke:none"
         d="m 5323.97,12642.1 c 0,0 85.97,-256.5 183.86,-324.2 97.88,-67.8 210.82,-41.5 282.35,22.5 71.53,64 194.98,301.7 194.98,301.7 h -661.19" /><path
         id="path46"
         style="fill:#100f0d;fill-opacity:1;fill-rule:nonzero;stroke:none"
         d="m 5713,7146.1 c -8.47,144 220.24,296.5 220.24,296.5 L 5628.3,7391.7 5515.36,6347 l 62.11,-237.1 h 251.17 C 5789.65,6439.2 5719.1,7042.4 5713,7146.1" /><path
         id="path48"
         style="fill:#f5f6f5;fill-opacity:1;fill-rule:nonzero;stroke:none"
         d="m 5564.38,3898 c -168.02,-99.3 -347.79,-153 -464.86,-180.9 78.81,-195.7 130.66,-348.9 130.66,-348.9 0,0 206.11,-33.9 285.18,67.8 79.05,101.6 62.11,220.2 62.11,254.1 0,15.2 -4.54,91.6 -13.09,207.9" /><path
         id="path50"
         style="fill:#e19f72;fill-opacity:1;fill-rule:nonzero;stroke:none"
         d="m 4593,12460.1 c 0,0 -86.58,-134.7 -135.52,-221.3 -48.94,-86.6 -160.75,-330 -160.75,-330 l 52.51,-120.8 243.76,672.1" /><path
         id="path52"
         style="fill:#e19f72;fill-opacity:1;fill-rule:nonzero;stroke:none"
         d="m 6602.41,12124 c 28.5,-23 -168.5,231.5 -194.82,638.1 l -77.27,-120 c 0,0 -7.44,-292.1 272.09,-518.1" /><g
         transform="scale(1.0026)"
         id="g54"><path
           id="path56"
           style="fill:#aaa9a8;fill-opacity:1;fill-rule:nonzero;stroke:none"
           d="m 2414.14,16300 v -290.6 H 8887.48 V 16300 H 2414.14" /></g><path
         id="path58"
         style="fill:#252323;fill-opacity:1;fill-rule:nonzero;stroke:none"
         d="m 5170.76,13245.1 c 12.42,21.7 -38.79,81.9 -49.89,143.4 -11.09,61.4 12.06,304.9 10.8,333.4 -1.26,28.3 50.67,113.9 60.74,139.8 10.07,25.8 72.29,128.5 110.25,155.6 37.96,27.1 147.48,41.1 193.73,54.8 46.25,13.8 134.61,48 214.95,36.7 80.34,-11.4 70.99,-30.7 127.5,-36.9 56.51,-6.2 142.12,-56.9 171.63,-88.4 29.53,-31.5 133.96,-106.9 167.34,-153.8 33.39,-46.9 41.25,-260.9 31.25,-341.3 -10.01,-80.3 -44.4,-199.2 -44.4,-199.2 l -19.18,-53.2 c 0,0 2.99,-109.9 -3.62,-111.8 -6.61,-2 100.72,-55.6 -156.61,-53.8 -257.33,1.7 -553.46,17.9 -553.46,17.9 0,0 -194.21,-2.4 -236.31,44.7 -42.1,47.2 -24.72,112.1 -24.72,112.1" /><path
         id="path60"
         style="fill:#fbc398;fill-opacity:1;fill-rule:nonzero;stroke:none"
         d="m 5183.18,13266.8 c 0,0 -15.94,4.6 -44.47,-1.1 -28.54,-5.6 -9.52,-158.9 8.82,-198.8 18.34,-39.8 44.62,-103.9 48.27,-125.8 3.65,-22 44.35,-45.1 44.35,-45.1 0,0 7.08,-118 23.03,-164.3 15.95,-46.4 129.87,-165.7 181.81,-245.9 51.93,-80.2 190.32,-117.4 289.43,-87.9 99.12,29.5 161.48,136.6 181.87,159.9 20.38,23.3 111.15,131.6 127.74,172.6 16.6,40.9 29.12,158.2 29.12,158.2 0,0 37.33,7.6 56.1,48.4 18.77,40.8 36.15,105.7 47.68,124.9 11.53,19.3 32.84,138.6 16.12,161 -16.73,22.3 -47.57,13.1 -47.57,13.1 0,0 -9.79,-33.1 -14.36,-39.5 -4.57,-6.4 -31,-14.3 -31,-14.3 l -0.9,106.9 c 0,0 -23.19,24.8 -33.17,53.5 -9.98,28.7 -9.4,113.7 -8.7,135.5 0.71,21.8 3.95,54.4 -9.61,107.2 -13.56,52.8 -75.41,96.2 -107.88,103.8 -32.47,7.6 -195.69,19.5 -221.76,22.5 -26.08,3 -39.51,-7.5 -109.52,-13.9 -70.01,-6.5 -286.22,-14.8 -310.61,-27 -24.39,-12.3 -48.65,-87.9 -53.86,-113.9 -5.2,-26 8.2,-150.8 5.25,-174.7 -2.95,-23.9 -21.23,-49.5 -19.62,-67 1.61,-17.5 -1.92,-126.4 -1.92,-126.4 l -19.82,-5.9 -24.82,84" /><g
         transform="scale(1.01149)"
         id="g62"><path
           id="path64"
           style="fill:#fbc398;fill-opacity:1;fill-rule:nonzero;stroke:none"
           d="m 4486.94,15647.3 c 0,0 -31.7,47.9 -76.37,73.9 -44.67,26.1 -70.71,48.4 -85.61,85.6 -14.88,37.3 0,126.6 0,126.6 0,0 73.47,260.5 77.68,286.6 4.22,26 87.95,61.4 112.14,65.1 24.2,3.7 55.84,-11.2 55.84,-11.2 0,0 63.27,20.5 83.74,20.5 20.47,0 39.08,-14.9 44.66,-16.7 5.58,-1.9 40.94,22.3 89.32,16.7 48.39,-5.6 59.56,-31.6 65.15,-35.3 5.57,-3.8 91.18,1.8 104.21,-7.5 13.03,-9.3 46.52,-247.5 27.92,-336.8 -18.62,-89.3 -161.91,-253.1 -161.91,-253.1 l -154.46,-80 -182.31,65.6" /></g><g
         transform="scale(1.01039)"
         id="g66"><path
           id="path68"
           style="fill:#fbc398;fill-opacity:1;fill-rule:nonzero;stroke:none"
           d="m 6651.88,15607 c 0,0 -145.32,256 -164.88,348.8 -19.55,92.7 61.49,302.3 82.45,316.3 20.95,13.9 82.43,0 82.43,0 0,0 53.1,22.3 75.46,22.3 22.35,0 64.27,0 64.27,0 0,0 69.86,5.6 100.59,0 30.74,-5.6 122.97,-14 150.91,-33.5 27.95,-19.6 39.12,-95 50.29,-137 11.19,-41.9 72.67,-204 72.67,-204 l 33.53,-16.7 c 0,0 -16.77,-86.7 -72.66,-134.2 -55.88,-47.5 -148.1,-162 -148.1,-162 0,0 -47.51,-61.5 -111.78,-55.9 -64.28,5.6 -215.18,55.9 -215.18,55.9" /></g><g
         transform="scale(1.02775)"
         id="g70"><path
           id="path72"
           style="fill:#e9ae86;fill-opacity:1;fill-rule:nonzero;stroke:none"
           d="m 15680,15617.6 c 25.7,-13.2 99,-96.3 99,-96.3 0,0 54.8,-78.1 69.5,-264.9 14.7,-186.8 66,-344.3 66,-344.3 0,0 131.8,-120.9 201.4,-241.8 69.7,-120.9 184.1,-439.1 184.1,-439.1 l -367.2,36.2 -212.5,633.7 c 0,0 -131.9,457.8 -135.6,498.1 -3.6,40.3 95.3,218.4 95.3,218.4" /></g><path
         id="path74"
         style="fill:#fbc398;fill-opacity:1;fill-rule:nonzero;stroke:none"
         d="m 13722.7,14834.6 -149.7,102.8 -64.9,-51.5 c 0,0 -45.2,-350.6 -163.8,-559.6 -118.6,-208.9 -316.2,-355.7 -412.2,-350.1 -96,5.6 -186.4,96 -203.3,158.1 -17,62.1 -22.6,169.4 -22.6,169.4 0,0 -146.8,192 -67.8,423.6 79.1,231.5 321.9,474.3 395.3,626.8 73.4,152.4 73.4,220.2 73.4,220.2 0,0 491.3,530.8 513.9,553.4 22.6,22.6 355.8,143.9 355.8,143.9 0,0 203.3,-471.4 158.1,-663.4 -45.2,-192 -412.2,-773.6 -412.2,-773.6" /><path
         id="path76"
         style="fill:#295893;fill-opacity:1;fill-rule:nonzero;stroke:none"
         d="m 14151.4,9012.6 c 0,0 -166,-203.3 -174.4,-406.6 -8.5,-203.3 110.1,-389.6 0,-626.8 -110.2,-237.2 -85.6,-686.1 -0.5,-821.6 85.2,-135.6 280.2,-247.1 445.3,134.8 165,381.9 182,1000.2 182,1000.2 l 16.9,465.9 -469.3,254.1" /><path
         id="path78"
         style="fill:#fbc398;fill-opacity:1;fill-rule:nonzero;stroke:none"
         d="m 14756.3,10958 v -751 c 0,0 -305,-355.8 -364.3,-482.8 -59.3,-127.1 169.4,-1025 228.7,-965.7 59.3,59.3 499.8,533.7 584.5,703.1 84.7,169.4 169.4,491.3 169.4,491.3 0,0 76.2,237.1 127.1,474.3 50.8,237.2 76.2,796.2 76.2,796.2 0,0 -686.1,67.8 -720,42.4 -33.9,-25.4 -101.6,-307.8 -101.6,-307.8" /><path
         id="path80"
         style="fill:#f0c9b1;fill-opacity:1;fill-rule:nonzero;stroke:none"
         d="m 14620.7,8758.5 v 0 0 c 0.1,0.1 0.2,0.2 0.3,0.3 -0.1,-0.1 -0.2,-0.2 -0.3,-0.3 v 0 m 0.4,0.4 c 0.1,0.1 0.2,0.1 0.2,0.2 0,-0.1 -0.1,-0.1 -0.2,-0.2 m 0.6,0.5 c 0,0.1 0.1,0.1 0.1,0.2 0,-0.1 -0.1,-0.1 -0.1,-0.2 m 0.6,0.6 c 0,0.1 0,0.1 0,0.1 0,0 0,0 0,-0.1 m 0.1,0.2 c 0.3,0.3 0.5,0.5 0.8,0.8 -0.3,-0.3 -0.5,-0.5 -0.8,-0.8 m 0.8,0.8 c 0.1,0.1 0.1,0.1 0.2,0.2 0,-0.1 -0.1,-0.1 -0.2,-0.2 m 0.4,0.4 c 0.1,0.1 0.1,0.1 0.1,0.1 0,0 -0.1,0 -0.1,-0.1 m 0.3,0.3 c 0.1,0.1 0.2,0.2 0.3,0.3 -0.1,-0.1 -0.2,-0.2 -0.3,-0.3 m 0.3,0.3 c 0.1,0.1 0.1,0.1 0.2,0.2 -0.1,-0.1 -0.1,-0.1 -0.2,-0.2 m 0.2,0.3 c 0.1,0 0.1,0.1 0.2,0.1 -0.1,0 -0.1,-0.1 -0.2,-0.1 m 0.3,0.3 c 0.3,0.2 0.5,0.4 0.7,0.6 -0.2,-0.2 -0.4,-0.4 -0.7,-0.6 m 1,0.9 c 0.1,0.1 0.1,0.2 0.2,0.2 -0.1,0 -0.1,-0.1 -0.2,-0.2 m 0.4,0.4 v 0.1 -0.1 m 1.6,1.7 0.1,0.1 -0.1,-0.1 m 2.9,3 v 0 0 m 397.6,447.3 c 0.1,0.2 0.3,0.5 0.5,0.7 -0.2,-0.2 -0.4,-0.5 -0.5,-0.7 m 0.5,0.7 c 7.8,9.5 15.4,18.8 22.9,28.1 v 0 c -7.5,-9.2 -15.1,-18.6 -22.9,-28.1 m -636.5,508 v 0 0 m 0.2,0.5 v 0 0 m 0.3,0.4 v 0 0" /><path
         id="path82"
         style="fill:#ecae82;fill-opacity:1;fill-rule:nonzero;stroke:none"
         d="m 14614.6,8755.7 c -59.6,0 -232.2,658.9 -232.3,898 0,31.7 3,56 9.7,70.5 0.1,0.1 0.2,0.3 0.2,0.4 v 0 c 0.1,0.2 0.2,0.3 0.2,0.5 v 0 c 0.1,0.1 0.2,0.3 0.3,0.4 v 0 c 36.7,77.4 161.4,236.6 254.6,350.8 60.2,-88.1 141.6,-232.9 219.1,-453.8 57.5,-164 122.6,-288.5 185.2,-377.8 -7.5,-9.3 -15.1,-18.6 -22.9,-28.1 v 0 c -0.2,-0.2 -0.4,-0.5 -0.5,-0.7 -149.4,-182 -340.9,-388.7 -397.6,-447.3 v 0 c -1,-1 -1.9,-2 -2.8,-2.9 l -0.1,-0.1 c -0.5,-0.6 -1.1,-1.1 -1.6,-1.6 v -0.1 c -0.1,0 -0.2,-0.1 -0.2,-0.2 -0.1,0 -0.1,-0.1 -0.2,-0.2 -0.1,-0.1 -0.2,-0.2 -0.3,-0.3 -0.2,-0.2 -0.4,-0.4 -0.7,-0.6 0,-0.1 -0.1,-0.1 -0.1,-0.2 -0.1,0 -0.1,-0.1 -0.2,-0.1 0,-0.1 0,-0.1 0,-0.1 -0.1,-0.1 -0.1,-0.1 -0.2,-0.2 v 0 c -0.1,-0.1 -0.2,-0.2 -0.3,-0.3 -0.1,-0.1 -0.2,-0.2 -0.2,-0.2 0,0 0,0 -0.1,-0.1 0,0 -0.1,-0.1 -0.2,-0.2 -0.1,-0.1 -0.1,-0.1 -0.2,-0.2 v 0 c -0.3,-0.3 -0.5,-0.5 -0.8,-0.8 l -0.1,-0.1 c 0,0 0,0 0,-0.1 -0.2,-0.1 -0.3,-0.3 -0.5,-0.4 0,-0.1 -0.1,-0.1 -0.1,-0.2 -0.2,-0.1 -0.3,-0.2 -0.4,-0.3 0,-0.1 -0.1,-0.1 -0.2,-0.2 0,0 0,0 -0.1,-0.1 -0.1,-0.1 -0.2,-0.2 -0.3,-0.3 v 0 c -1.9,-1.9 -3.9,-2.8 -6.1,-2.8" /><path
         id="path84"
         style="fill:#fbc398;fill-opacity:1;fill-rule:nonzero;stroke:none"
         d="m 13545,11147.2 c 0,-42.3 135.5,-830.1 135.5,-830.1 0,0 42.4,-245.7 93.2,-338.8 50.8,-93.2 42.3,-516.7 245.6,-864 203.3,-347.3 389.7,-897.9 389.7,-897.9 0,0 206.1,-33.9 285.1,67.8 79.1,101.6 62.2,220.2 62.2,254.1 0,33.9 -22.6,372.7 -62.2,779.3 -39.5,406.6 -234.3,770.8 -259.7,906.3 -25.4,135.5 90.3,666.4 90.3,666.4 l -979.7,256.9" /><path
         id="path86"
         style="fill:#232221;fill-opacity:1;fill-rule:nonzero;stroke:none"
         d="m 13926.1,14222 -310.7,-689.1 c 0,0 -22.4,22.8 -87.4,-203.1 -64.9,-225.9 -234.3,-2337.9 -234.3,-2337.9 0,0 677.6,-90.3 914.8,-101.6 237.2,-11.3 316.2,0 316.2,0 l 169.4,304.9 62.2,-237.2 h 1056 c 0,0 -33.9,1321.4 0,1490.9 33.8,169.4 -172.5,1032.4 -172.5,1032.4 0,0 -810.1,989.2 -934.4,1000.5 -124.2,11.3 -779.3,-259.8 -779.3,-259.8" /><path
         id="path88"
         style="fill:#100f0d;fill-opacity:1;fill-rule:nonzero;stroke:none"
         d="m 14891.8,11994.3 c -8.5,144 220.2,296.4 220.2,296.4 l -304.9,-50.8 -113,-1044.7 62.2,-237.2 h 251.1 c -39,329.4 -109.5,932.6 -115.6,1036.3" /><path
         id="path90"
         style="fill:#3970c0;fill-opacity:1;fill-rule:nonzero;stroke:none"
         d="m 14409,8216.4 c 0,0 -33.9,-389.7 0,-720 33.8,-330.4 -8.5,-720 76.2,-813.2 84.7,-93.2 189.4,-59.3 272.6,-33.9 83.2,25.4 241.9,364.3 293.8,559.1 52,194.8 -68.9,381.2 0,457.4 68.9,76.2 229.8,516.7 162.1,652.2 -67.8,135.6 -457.4,220.3 -457.4,220.3 L 14409,8216.4" /><path
         id="path92"
         style="fill:#f5f6f5;fill-opacity:1;fill-rule:nonzero;stroke:none"
         d="m 14743.2,8746.1 c -168.1,-99.3 -347.8,-152.9 -464.9,-180.9 78.8,-195.7 130.7,-348.8 130.7,-348.8 0,0 206.1,-33.9 285.1,67.8 79.1,101.6 62.2,220.2 62.2,254.1 0,15.1 -4.6,91.6 -13.1,207.8" /><path
         id="path94"
         style="fill:#e19f72;fill-opacity:1;fill-rule:nonzero;stroke:none"
         d="m 13487.4,15559.3 c 0,0 -31.5,-193.9 -47.8,-402.9 -16.2,-208.9 16.8,-530.3 16.8,-530.3 l 51.7,259.8 64.9,51.5 129.2,285.9 c 0,0 -128.2,177.8 -152.7,414.1 -24.5,236.2 -62.1,-78.1 -62.1,-78.1" /><path
         id="path96"
         style="fill:#ecae82;fill-opacity:1;fill-rule:nonzero;stroke:none"
         d="m 13571.3,15516.9 c -9.7,37.9 -17.4,78.2 -21.8,120.5 -4.1,39.7 -8.6,63.9 -13.2,76.6 77.1,118 241.9,337 241.9,337 0,0 -8.3,-119.1 -38.4,-232 -27.7,-103.9 -149.3,-275.3 -168.5,-302.1 m -75.3,102.9 c -1.4,10.1 -0.8,20.2 2.9,29.8 0.9,2.6 2.3,5.6 4.1,9.1 -2.6,-12.8 -5,-26.2 -7,-38.9" /><path
         id="path98"
         style="fill:#e19f72;fill-opacity:1;fill-rule:nonzero;stroke:none"
         d="m 13568.7,15513.4 c 0,0 -65.2,53.6 -72.7,106.4 2,12.7 4.4,26.1 7,38.9 6.5,13 18.2,32.2 33.3,55.3 4.6,-12.7 9.1,-36.9 13.2,-76.6 4.4,-42.3 12.1,-82.6 21.8,-120.5 -1.7,-2.3 -2.6,-3.5 -2.6,-3.5" /><g
         transform="scale(1.00573)"
         id="g100"><path
           id="path102"
           style="fill:#3970c0;fill-opacity:1;fill-rule:nonzero;stroke:none"
           d="m 15053.9,16178.9 44.8,121.1 196.6,-146.2 c 0,0 499.7,-575.6 508.2,-626.1 8.3,-50.5 75.7,-631.7 33.6,-656.9 -42.1,-25.3 -261.1,-631.7 -269.5,-791.7 -8.4,-160.1 33.7,-275.3 8.4,-445.1 -25.3,-169.8 -25.3,-229.5 -25.3,-229.5 0,0 -533,115.7 -931.9,108.7 -398.8,-6.9 -1081,-57.4 -1081,-57.4 0,0 -25.2,303.2 0,488.5 25.3,185.3 67.4,-25.3 33.6,336.9 -33.6,362.2 -75.7,571.1 -75.7,571.1 0,0 176.9,355.3 252.6,633.3 75.9,277.9 148.9,693.3 148.9,693.3 l 242,70.3 454.2,-219.5 460.5,149.2" /></g><g
         transform="scale(1.04478)"
         id="g104"><path
           id="path106"
           style="fill:#fbc398;fill-opacity:1;fill-rule:nonzero;stroke:none"
           d="m 13756.2,16275.7 -40.6,-575.7 -104.9,-58.1 c 0,0 -8.5,-371.6 72.6,-541.8 81.1,-170.3 275.6,-243.3 332.4,-251.4 56.7,-8.1 397.2,178.4 454,267.6 56.7,89.2 64.7,574.5 64.7,574.5 l -121.5,79.5 -10.8,529.7 -645.9,-24.3" /></g><g
         transform="scale(1.02806)"
         id="g108"><path
           id="path110"
           style="fill:#e19f72;fill-opacity:1;fill-rule:nonzero;stroke:none"
           d="m 13988.7,16300 c 0,0 83.6,-249.5 178.8,-315.4 95.2,-65.9 205.2,-40.3 274.7,22 69.6,62.2 189.7,293.4 189.7,293.4 h -643.2" /></g><g
         transform="scale(1.0785)"
         id="g112"><path
           id="path114"
           style="fill:#aaa9a8;fill-opacity:1;fill-rule:nonzero;stroke:none"
           d="m 10282.3,15152.8 v -270.2 H 16300 v 270.2 h -6017.7" /></g><g
         transform="scale(1.11874)"
         id="g116"><path
           id="path118"
           style="fill:#252323;fill-opacity:1;fill-rule:nonzero;stroke:none"
           d="m 12718,15517.8 c 11.1,19.4 -34.7,73.3 -44.6,128.2 -9.9,54.9 10.7,272.6 9.6,298 -1.1,25.4 45.3,101.9 54.3,125 9,23.1 64.6,114.9 98.6,139.1 33.9,24.3 131.7,36.7 173.1,49 41.4,12.3 120.3,42.9 192.1,32.8 71.9,-10.2 63.5,-27.4 114,-33 50.6,-5.5 127.1,-50.9 153.5,-79 26.3,-28.2 119.6,-95.5 149.5,-137.5 29.9,-41.9 36.9,-233.2 28,-305 -9,-71.9 -39.7,-178.1 -39.7,-178.1 l -17.2,-47.6 c 0,0 2.7,-98.2 -3.2,-99.9 -5.9,-1.8 90,-49.8 -140,-48.2 -230,1.7 -494.7,16.1 -494.7,16.1 0,0 -173.6,-2.2 -211.2,40 -37.7,42.1 -22.1,100.1 -22.1,100.1" /></g><g
         transform="scale(1.09386)"
         id="g120"><path
           id="path122"
           style="fill:#fbc398;fill-opacity:1;fill-rule:nonzero;stroke:none"
           d="m 13018.6,15890.6 c 0,0 -14.6,4.2 -40.7,-0.9 -26.1,-5.2 -8.7,-145.3 8,-181.8 16.9,-36.4 40.9,-95 44.2,-115.1 3.4,-20 40.6,-41.2 40.6,-41.2 0,0 6.4,-107.8 21,-150.2 14.5,-42.4 118.8,-151.4 166.2,-224.7 47.4,-73.4 174,-107.4 264.6,-80.4 90.6,27 147.6,124.8 166.3,146.2 18.6,21.3 101.5,120.3 116.7,157.7 15.2,37.4 26.7,144.7 26.7,144.7 0,0 34.1,6.9 51.3,44.2 17.1,37.3 33,96.7 43.5,114.3 10.6,17.6 30.1,126.6 14.8,147 -15.3,20.5 -43.5,12.1 -43.5,12.1 0,0 -9,-30.3 -13.2,-36.2 -4.2,-5.8 -28.3,-13 -28.3,-13 l -0.8,97.7 c 0,0 -21.2,22.7 -30.3,48.9 -9.1,26.2 -8.6,104 -7.9,123.9 0.6,19.9 3.5,49.7 -8.9,98 -12.4,48.2 -68.9,88 -98.6,94.9 -29.7,6.9 -178.9,17.8 -202.7,20.5 -23.9,2.8 -36.1,-6.8 -100.1,-12.7 -64,-5.9 -261.7,-13.4 -284,-24.7 -22.3,-11.2 -44.5,-80.3 -49.3,-104.1 -4.7,-23.7 7.5,-137.8 4.9,-159.7 -2.8,-21.8 -19.5,-45.2 -18,-61.2 1.5,-16 -1.8,-115.6 -1.8,-115.6 l -18.1,-5.4 -22.6,76.8" /></g><g
         transform="scale(1.03069)"
         id="g124"><path
           id="path126"
           style="fill:#fbc398;fill-opacity:1;fill-rule:nonzero;stroke:none"
           d="m 15330.3,15095.9 c 0,0 115,-905.8 158.8,-1070.2 43.8,-164.4 224.7,-295.9 290.4,-383.5 65.8,-87.7 202.8,-109.6 301.3,-43.9 98.7,65.8 120.6,230.2 137,274 16.4,43.8 82.2,169.8 49.3,284.9 -32.9,115.1 -363.4,504 -455.7,706.8 -92.2,202.7 -152.4,393 -152.4,393 l -328.7,-161.1" /></g><g
         transform="scale(1.00906)"
         id="g128"><path
           id="path130"
           style="fill:#fbc398;fill-opacity:1;fill-rule:nonzero;stroke:none"
           d="m 12989.4,15434.4 c -3.7,11.2 22.4,179.1 -3.7,264.9 -26.1,85.8 -15,145.5 -15,182.8 0,37.3 0,82.1 0,82.1 0,0 33.6,33.6 67.2,115.7 33.6,82 74.7,142.3 93.3,166.3 18.6,23.9 126.9,27.7 126.9,27.7 0,0 48.4,26.1 85.8,26.1 37.2,0 82,-29.9 82,-29.9 0,0 67.2,26.2 104.5,-3.7 37.3,-29.8 14.9,-26.1 37.3,-29.8 22.4,-3.8 70.9,-3.8 93.3,-41.1 22.4,-37.3 -3.8,-339.5 -29.8,-410.4 -26.2,-70.9 -264.9,-365.6 -264.9,-365.6 l -376.9,14.9" /></g><g
         transform="scale(1.00952)"
         id="g132"><path
           id="path134"
           style="fill:#fbc398;fill-opacity:1;fill-rule:nonzero;stroke:none"
           d="m 15763,15309.8 -111.3,102.7 c 0,0 -223.7,242.4 -251.7,313.2 -28,70.9 -22.4,489.1 0,513 22.3,24 78.3,0 78.3,0 0,0 48.5,61.3 82,53.8 33.6,-7.4 67.2,-26.1 67.2,-26.1 0,0 22.3,27.4 78.3,26.8 55.9,-0.7 55.9,-0.7 55.9,-0.7 0,0 108.1,3.8 134.3,-29.8 26,-33.6 41,-161.8 82,-218.9 41,-57.1 78.3,-120.4 78.3,-120.4 l 41.1,-3.8 c 0,0 -18.7,-160.3 -41.1,-190.2 -22.3,-29.8 -69,-152.4 -69,-152.4 0,0 -154.7,-224.2 -165.9,-231.7 -11.2,-7.4 -58.4,-35.5 -58.4,-35.5" /></g></g></g></svg>