<?xml version="1.0" encoding="UTF-8" standalone="no"?>
<svg
   xmlns:dc="http://purl.org/dc/elements/1.1/"
   xmlns:cc="http://creativecommons.org/ns#"
   xmlns:rdf="http://www.w3.org/1999/02/22-rdf-syntax-ns#"
   xmlns:svg="http://www.w3.org/2000/svg"
   xmlns="http://www.w3.org/2000/svg"
   viewBox="0 0 2666.6667 2666.6667"
   height="2666.6667"
   width="2666.6667"
   xml:space="preserve"
   id="svg2"
   version="1.1"><metadata
     id="metadata8"><rdf:RDF><cc:Work
         rdf:about=""><dc:format>image/svg+xml</dc:format><dc:type
           rdf:resource="http://purl.org/dc/dcmitype/StillImage" /></cc:Work></rdf:RDF></metadata><defs
     id="defs6" /><g
     transform="matrix(1.3333333,0,0,-1.3333333,0,2666.6667)"
     id="g10"><g
       transform="scale(0.1)"
       id="g12"><g
         transform="scale(1.22699)"
         id="g14"><path
           id="path16"
           style="fill:none;fill-opacity:1;fill-rule:nonzero;stroke:none"
           d="M 16300,0 H 0 V 16300 H 16300 V 0" /></g><g
         transform="scale(1.22699)"
         id="g18"><path
           id="path20"
           style="fill:#aaa9a8;fill-opacity:1;fill-rule:nonzero;stroke:none"
           d="M 22.2279,14260.3 6680.93,13081.8 16300,11408.5 v -179.7 L 6462.87,12860.4 0,13924.2 l 22.2279,336.1" /></g><path
         id="path22"
         style="fill:#48484a;fill-opacity:1;fill-rule:nonzero;stroke:none"
         d="m 10870.5,7608.6 h 630.398 v 937.5 H 10870.5 Z" /><path
         id="path24"
         style="fill:#c37140;fill-opacity:1;fill-rule:nonzero;stroke:none"
         d="m 10838.7,6570.2 c 3.3,-66.3 138.8,-403.6 138.8,-403.6 0,0 21,-290.1 100.9,-517.1 79.8,-227.1 117.7,-256.5 159.7,-441.5 42.1,-184.9 176.6,-1034.2 176.6,-1315.9 0,-281.6 -251.2,-458.2 -238.6,-653.7 12.6,-195.5 350,-425.7 488.7,-526.6 138.8,-100.9 221.6,-478.2 312.6,-629.5 91,-151.4 166.7,-170.3 213,-250.2 46.2,-79.8 136.6,-201.8 224.9,-220.7 88.3,-18.9 117.7,-21 117.7,-21 0,0 50.4,-39.9 117.7,-21 67.3,18.9 90.4,94.6 77.8,155.5 -12.6,61 -12.6,105.1 -44.2,174.5 -31.5,69.4 -203.9,304.8 -275.3,609.6 -71.5,304.8 -149.3,735.7 -220.7,1097.3 -71.5,361.5 16.8,1982.2 12.6,2435.2 -4.2,453 -71.5,759.9 -71.5,759.9 l -1290.7,-231.2" /><path
         id="path26"
         style="fill:#252323;fill-opacity:1;fill-rule:nonzero;stroke:none"
         d="m 11507.2,11972.4 c 0,0 130.3,-105.1 138.7,-130.3 8.4,-25.2 50.5,-235.4 63.1,-306.9 12.6,-71.4 256.4,-353.1 290.1,-395.2 33.6,-42 159.7,-269 155.5,-395.1 -4.2,-126.2 -37.8,-273.3 -29.4,-319.6 8.4,-46.2 167.1,-1271.7 167.1,-1271.7 l -1321.1,-813.5 c 0,0 -151.4,-88.3 -744.2,-132.4 -592.75,-44.2 -977.42,-94.6 -977.42,-94.6 0,0 -428.82,1904.4 -460.35,2099.9 -31.53,195.5 -6.31,807.2 0,905 6.31,97.7 94.59,321.6 94.59,321.6 0,0 451.67,496.9 472.96,583.3 21.3,86.4 107.21,372.1 561.25,378.4 454.07,6.3 955.87,-126.4 955.87,-126.4 l 633.3,-302.5" /><path
         id="path28"
         style="fill:#b5b5b4;fill-opacity:1;fill-rule:nonzero;stroke:none"
         d="m 11147.7,8236.6 c -68.4,0 -94.1,115.3 -96.8,128.5 -1.8,9 4,17.9 13,19.8 9.1,1.8 18,-4 19.8,-13.1 5.5,-26.3 29,-101.7 64,-101.7 43.5,0 69.1,68.6 69.4,69.3 3.1,8.7 12.7,13.3 21.4,10.2 8.7,-3.1 13.2,-12.7 10.2,-21.4 -1.4,-3.7 -33.1,-91.6 -101,-91.6" /><path
         id="path30"
         style="fill:#c37140;fill-opacity:1;fill-rule:nonzero;stroke:none"
         d="m 10435.1,15737.2 141.9,-15.7 c 0,0 457.2,15.7 627.5,-148.2 170.3,-164 462.4,-821.9 449.8,-985.9 -12.6,-164 -109.3,-550.7 -147.1,-782 -37.8,-231.2 -134.2,-523 -262.6,-551.6 -128.4,-28.5 -145.2,-459.1 -347,0 -201.8,459.1 -462.5,2483.4 -462.5,2483.4" /><path
         id="path32"
         style="fill:#f0d3bf;fill-opacity:1;fill-rule:nonzero;stroke:none"
         d="m 10577,15721.5 c 0,0 11.9,0.4 32.6,0.4 -20.7,0 -32.6,-0.4 -32.6,-0.4 m 40.3,0.4 c -2.7,0 -5.2,0 -7.7,0 2.4,0 5,0 7.7,0 m -180.5,2.3 c 0,0 0,0.1 0,0.1 0,0 0,0 0,-0.1 m -0.3,2.5 c 0,0.1 0,0.1 0,0.2 0,-0.1 0,-0.1 0,-0.2 m -0.1,1.2 c -0.1,0.1 -0.1,0.2 -0.1,0.3 0,-0.1 0,-0.2 0.1,-0.3 m -0.2,0.8 c 0,0.1 0,0.2 0,0.2 0,-0.1 0,-0.1 0,-0.2 m 0,0.6 c 0,0 0,0.1 -0.1,0.2 0.1,-0.1 0.1,-0.2 0.1,-0.2 m -0.2,1.5 c -0.1,0.3 -0.1,0.7 -0.2,1 0.1,-0.3 0.1,-0.7 0.2,-1 m -0.2,1.3 c 0,0 0,0.1 0,0.1 0,0 0,-0.1 0,-0.1 m 0,0.3 c 0,0.1 -0.1,0.1 -0.1,0.2 0,-0.1 0.1,-0.1 0.1,-0.2 m -0.1,0.3 c 0,0.1 0,0.1 0,0.2 0,-0.1 0,-0.1 0,-0.2 m -0.1,0.6 c 0,0.2 0,0.3 0,0.4 0,-0.1 0,-0.2 0,-0.4 m 0,0.6 c 0,0 0,0 0,0.1 0,-0.1 0,-0.1 0,-0.1 m -0.1,0.2 v 0.1 -0.1 m 0,0.5 c 0,0 0,0 0,0.1 0,-0.1 0,-0.1 0,-0.1 m 0,0.2 c -0.1,0.1 -0.1,0.2 -0.1,0.3 0,-0.1 0,-0.2 0.1,-0.3 m -0.1,0.4 c 0,0.1 0,0.2 0,0.3 0,-0.1 0,-0.2 0,-0.3 m -0.1,0.4 c 0,0.1 0,0.2 0,0.2 0,0 0,-0.1 0,-0.2 m 0,0.4 c 0,0 0,0 0,0 0,0 0,0 0,0 m 0,0.1 c 0,0 0,0.1 0,0.1 0,0 0,-0.1 0,-0.1 m 0,0.2 c 0,0 0,0 0,0 0,0 0,0 0,0 m -0.1,0.5 c 0,0 0,0.1 0,0.1 0,0 0,-0.1 0,-0.1 m 0,0.2 c 0,0.1 0,0.1 0,0.1 0,0 0,0 0,-0.1 m -0.1,0.2 c 0,0 0,0 0,0 0,0 0,0 0,0 m 0,0 c 0,0 0,0 0,0 v 0 c 0,0 0,0 0,0" /><path
         id="path34"
         style="fill:#cd8454;fill-opacity:1;fill-rule:nonzero;stroke:none"
         d="m 11304.8,15444 h -830 c -20.1,143.9 -33.4,245.6 -38,280.2 0,0.1 0,0.1 0,0.1 -0.1,0.9 -0.2,1.6 -0.3,2.4 0,0.1 0,0.1 0,0.2 -0.1,0.3 -0.1,0.7 -0.1,1 -0.1,0.1 -0.1,0.2 -0.1,0.3 0,0.2 0,0.4 -0.1,0.5 0,0.1 0,0.1 0,0.2 0,0.1 0,0.2 0,0.4 0,0 0,0.1 -0.1,0.2 0,0.4 -0.1,0.9 -0.1,1.3 -0.1,0.3 -0.1,0.7 -0.2,1 0,0.1 0,0.2 0,0.3 0,0 0,0.1 0,0.1 0,0.1 0,0.1 0,0.2 0,0.1 -0.1,0.1 -0.1,0.2 0,0 0,0 0,0.1 0,0.1 0,0.1 0,0.2 0,0.2 0,0.3 -0.1,0.4 0,0.2 0,0.3 0,0.4 0,0 0,0.1 0,0.2 0,0 0,0 0,0.1 0,0 -0.1,0.1 -0.1,0.1 v 0.1 c 0,0.1 0,0.2 0,0.4 0,0 0,0 0,0.1 0,0 0,0.1 0,0.1 -0.1,0.1 -0.1,0.2 -0.1,0.3 0,0.1 0,0.1 0,0.1 0,0.1 0,0.2 0,0.3 0,0 0,0.1 -0.1,0.1 0,0.1 0,0.2 0,0.2 0,0.1 0,0.1 0,0.2 0,0 0,0 0,0 0,0 0,0.1 0,0.1 0,0 0,0.1 0,0.1 0,0 0,0 0,0.1 0,0 0,0 0,0 -0.1,0.2 -0.1,0.4 -0.1,0.5 0,0 0,0.1 0,0.1 0,0 0,0 0,0.1 0,0.1 0,0.1 0,0.1 0,0.1 -0.1,0.1 -0.1,0.1 0,0 0,0 0,0 0,0 0,0 0,0 0,0 0,0 0,0 l 141.9,-15.7 v 0 c 0,0 11.9,0.4 32.6,0.4 v 0 0 c 2.5,0 5,0 7.7,0 115.4,-0.6 447.7,-14.3 587.2,-148.6 30.4,-29.3 64.6,-74.3 100.3,-129.3" /><path
         id="path36"
         style="fill:#b5b5b4;fill-opacity:1;fill-rule:nonzero;stroke:none"
         d="m 11558.8,10162.4 121,-29.2 c 0.2,46.3 -7.3,126.8 -45.8,134.9 -7.9,1.7 -15,0.2 -22.4,-4.7 -26.4,-17.4 -44.6,-69.6 -52.8,-101 z m 152.4,-71.2 -192,46.2 3.1,15.8 c 2.1,10.7 22.1,106 70.9,138.2 14.9,9.8 31,13 47.8,9.5 81.3,-17.3 72.8,-172.3 71.6,-190 l -1.4,-19.7" /><path
         id="path38"
         style="fill:#a45330;fill-opacity:1;fill-rule:nonzero;stroke:none"
         d="m 10956.4,15188.6 c 0,0 159.8,-58.9 176.6,-71.5 16.8,-12.6 235.5,-292 243.9,-412.9 8.4,-121 -63.1,-428.5 -109.3,-684.7 -46.3,-256.1 -84.1,-663.9 -84.1,-663.9 0,0 239.6,-21 302.7,227 63,248.1 -4.2,1223.4 0,1299.1 4.2,75.7 -67.3,298.5 -134.6,378.4 -67.2,79.8 -49.4,168.1 -171.8,168.1 -122.5,0 -168.7,46.3 -265.4,0 -96.7,-46.2 -29.4,-168.1 -21,-180.8 8.4,-12.6 63,-58.8 63,-58.8" /><path
         id="path40"
         style="fill:#c37140;fill-opacity:1;fill-rule:nonzero;stroke:none"
         d="m 11469.4,14768.2 c 0,-29.4 25.2,-256.5 -58.9,-529.7 -84.1,-273.3 -201.8,-752.6 -227,-882.9 -25.3,-130.3 84.1,-504.5 163.9,-580.2 79.9,-75.6 277.5,-147.1 391,-138.7 113.5,8.4 201.8,113.5 243.9,222.8 42,109.3 33.6,206 84,311.1 50.5,105.1 88.3,412 54.7,647.5 -33.6,235.4 -117.7,563.3 -143,811.3 -25.2,248.1 -37.8,349 -37.8,349 l -470.8,-210.2" /><path
         id="path42"
         style="fill:#3a632a;fill-opacity:1;fill-rule:nonzero;stroke:none"
         d="m 11136.7,7923.9 c -74,0 -134,99.5 -134,222.3 0,122.7 60,222.3 134,222.3 74,0 134,-99.6 134,-222.3 0,-122.8 -60,-222.3 -134,-222.3 m 1396.7,196.3 c 0,950.8 -319,1752.5 -754.4,1999.9 v 0 c -262.1,163.5 -687.3,69.9 -687.3,69.9 0,0 16.5,-58.7 44.4,-118.7 -396.7,-292.5 -679.6,-1055.7 -679.6,-1951.1 0,-921.5 299.6,-1702.8 714.4,-1975.3 -37.7,-28.4 -69.4,-54 -69.4,-54 l -111.1,-11.9 c 0,0 129.8,-68.5 365.3,-64.3 235.4,4.2 365.2,76.2 365.2,76.2 v 0.1 c 464.8,206.4 812.5,1036.5 812.5,2029.2" /><path
         id="path44"
         style="fill:#427635;fill-opacity:1;fill-rule:nonzero;stroke:none"
         d="m 11136.7,7923.9 c -74,0 -134,99.5 -134,222.3 0,122.7 60,222.3 134,222.3 74,0 134,-99.6 134,-222.3 0,-122.8 -60,-222.3 -134,-222.3 m 51,2274.9 c -573.5,0 -1038.4,-930.6 -1038.4,-2078.6 0,-1148.1 464.9,-2078.7 1038.4,-2078.7 573.5,0 1038.4,930.6 1038.4,2078.7 0,1148 -464.9,2078.6 -1038.4,2078.6" /><path
         id="path46"
         style="fill:#898b8b;fill-opacity:1;fill-rule:nonzero;stroke:none"
         d="m 11136.7,7923.9 c -74,0 -134,99.5 -134,222.3 0,122.7 60,222.3 134,222.3 74,0 134,-99.6 134,-222.3 0,-122.8 -60,-222.3 -134,-222.3 m 24.8,1121.1 c -252.9,0 -457.8,-410.3 -457.8,-916.4 0,-506.1 204.9,-916.4 457.8,-916.4 252.8,0 457.8,410.3 457.8,916.4 0,506.1 -205,916.4 -457.8,916.4" /><path
         id="path48"
         style="fill:#e9eef1;fill-opacity:1;fill-rule:nonzero;stroke:none"
         d="m 8975.26,16109.3 -646.38,-1043.7 151.35,-1485.1 c 0,0 372.06,-554.9 460.35,-826.1 88.28,-271.1 81.98,-573.8 88.28,-592.8 6.31,-18.9 321.62,-195.5 321.62,-195.5 l 239.63,25.3 c 0,0 882.89,-82 1254.89,-56.8 372.1,25.2 662.2,37.8 662.2,37.8 l -37.8,290.1 c 0,0 0,220.8 -31.6,359.5 -31.5,138.7 -359.4,1128.8 -365.7,1229.7 -6.3,100.9 -31.6,365.7 25.2,662.1 56.7,296.4 -31.5,605.4 -145.1,769.4 -113.5,163.9 -428.8,334.2 -517.1,454 l -218.6,25.2 -1241.24,346.9" /><path
         id="path50"
         style="fill:#c37140;fill-opacity:1;fill-rule:nonzero;stroke:none"
         d="m 8928.27,16033.4 c 0,0 -263.06,130.5 -540.53,96.9 -277.47,-33.6 -580.17,-475 -639.03,-697.9 -58.85,-222.8 -67.26,-479.2 -67.26,-479.2 0,0 -227.03,-454.1 -256.45,-744.2 -29.43,-290.1 75.67,-542.3 92.49,-744.1 16.81,-201.8 121.91,-454 319.51,-475.1 197.59,-21 348.94,210.3 458.25,260.7 109.3,50.4 403.59,230.6 571.75,769 168.17,538.5 260.66,984.1 298.5,1076.6 37.83,92.5 63.06,185 63.06,185 l -300.29,752.3" /><path
         id="path52"
         style="fill:#f0d3bf;fill-opacity:1;fill-rule:nonzero;stroke:none"
         d="m 7836.36,12989.9 c -0.03,0 -0.06,0 -0.09,0 0.02,0 0.06,0 0.09,0 m -0.65,0.1 c -0.03,0 -0.05,0 -0.08,0 0.02,0 0.06,0 0.08,0 m -0.66,0.1 c -0.01,0 -0.03,0 -0.05,0 0.02,0 0.04,0 0.05,0" /><path
         id="path54"
         style="fill:#cd8454;fill-opacity:1;fill-rule:nonzero;stroke:none"
         d="m 7862.35,12988.5 c -8.36,0 -16.82,0.4 -25.35,1.3 v 0 0 c -0.22,0.1 -0.43,0.1 -0.64,0.1 -0.03,0 -0.07,0 -0.09,0 -0.19,0 -0.38,0.1 -0.56,0.1 -0.02,0 -0.06,0 -0.08,0 -0.19,0 -0.39,0 -0.58,0.1 -0.01,0 -0.03,0 -0.05,0 -55.18,6.3 -103.09,30.7 -143.86,67 h 359.68 c -57.19,-39.3 -119.93,-68.6 -188.47,-68.6" /><path
         id="path56"
         style="fill:#a45330;fill-opacity:1;fill-rule:nonzero;stroke:none"
         d="m 8986.08,15888.6 -57.81,144.8 c 0,0 -263.06,130.5 -540.53,96.9 -126.75,-15.4 -258.69,-115.9 -370.32,-241.7 h 968.66" /><path
         id="path58"
         style="fill:#a45330;fill-opacity:1;fill-rule:nonzero;stroke:none"
         d="m 8673.62,15318.9 c 0,0 -108.26,-379.4 -414.11,-622.2 -305.85,-242.8 -640.07,-520.3 -709.44,-649.5 0,0 12.61,141.9 302.69,425.6 290.09,283.8 510.8,457.2 586.48,599.1 75.67,141.9 154.76,244.2 141.89,312.2 -12.88,68 -107.21,190.7 -101.72,305 l 120.85,-19.9 132.21,-256.7 -58.85,-93.6" /><g
         transform="scale(1.04746)"
         id="g60"><path
           id="path62"
           style="fill:#c37140;fill-opacity:1;fill-rule:nonzero;stroke:none"
           d="m 8754.95,15996.4 c 0,0 12.27,-219.7 -23.84,-358.2 -36.13,-138.5 -162.55,-258.9 -162.55,-258.9 l 225.76,-373.2 c 0,0 358.52,-240.9 516.41,-463.6 157.87,-222.8 338.47,-511.8 507.07,-451.6 168.6,60.2 -64.25,957.3 -64.25,957.3 l -137.48,84.3 -3.05,175.8 c 0,0 -340.08,859.7 -364.16,868.7 -24.08,9 -349.18,123 -373.26,111.2 -24.09,-11.8 -120.65,-291.8 -120.65,-291.8" /></g><g
         transform="scale(1.03257)"
         id="g64"><path
           id="path66"
           style="fill:#a45330;fill-opacity:1;fill-rule:nonzero;stroke:none"
           d="m 9998.31,16188.2 -332.89,-432.5 -677.66,544.3 c 0,0 -35.43,-361.7 192.02,-558.4 261.65,-226.2 516.28,-216.8 571.86,-212.5 l 246.67,659.1" /></g><path
         id="path68"
         style="fill:#252323;fill-opacity:1;fill-rule:nonzero;stroke:none"
         d="m 10971.5,10345.4 -101,-285.8 c 0,0 6.6,-1425.2 0,-1513.5 -6.5,-88.3 0,-242.6 0,-242.6 l -205.3,-40.7 -595.3,-67.4 c 0,0 -227.54,380.1 -227.54,548.3 0,168.2 21.02,521.3 84.08,769.3 63.06,248.1 180.76,588.6 222.86,651.7 42,63 822.2,180.7 822.2,180.7" /><path
         id="path70"
         style="fill:#b5b5b4;fill-opacity:1;fill-rule:nonzero;stroke:none"
         d="m 10385.1,10965.1 c -36.1,0 -69.4,7.8 -99.8,23.5 -94.8,48.8 -125.5,156.5 -128.9,169.7 -3.3,8.2 -19.3,49.4 -23.4,66 l 32.5,8.1 c 3.2,-12.9 17.3,-49.8 22.4,-62.8 l 0.7,-2.2 c 0.3,-1 26.9,-105.4 112.3,-149.2 53.8,-27.6 120.2,-25.9 197.4,5 83.4,33.3 125.4,93.1 124.7,177.5 -1,121.1 -89.9,251 -124.5,264.2 -48.1,18.4 -142.6,-24.9 -175,-43.1 l -16.4,29.2 c 5.3,3 130.6,72.9 203.4,45.2 48.6,-18.5 144.9,-163.7 146,-295.2 0.6,-68.5 -24.3,-160.4 -145.8,-208.9 -44.8,-18 -86.8,-27 -125.6,-27" /><path
         id="path72"
         style="fill:#b5b5b4;fill-opacity:1;fill-rule:nonzero;stroke:none"
         d="m 11720.3,11006.8 c -8.5,0 -17.9,1 -28.2,3.4 -103.6,24 -271.3,247.8 -267.9,357.4 2.9,90.8 91,128.1 137.2,135.1 l 5.1,-33.2 -2.6,16.6 2.6,-16.6 c -4.3,-0.6 -106.1,-17.4 -108.8,-103 -2.9,-91.8 155.4,-303.6 241.9,-323.7 24.8,-5.7 43.6,-2 57.6,11.3 26.7,25.4 30.9,80.4 23.6,120.8 l 33,6 c 8.5,-46.9 4.8,-114.5 -33.4,-151 -12,-11.4 -31.3,-23.1 -60.1,-23.1" /><path
         id="path74"
         style="fill:#b5b5b4;fill-opacity:1;fill-rule:nonzero;stroke:none"
         d="m 10482.4,11101.2 c -5.4,0 -10.8,2.7 -14,7.6 -5,7.7 -2.9,18.1 4.9,23.2 5.1,3.3 126.3,82.2 207,101.6 9.1,2.2 18.1,-3.4 20.2,-12.4 2.2,-9 -3.4,-18 -12.4,-20.2 -75,-18 -195.3,-96.3 -196.5,-97.1 -2.8,-1.8 -6,-2.7 -9.2,-2.7" /><path
         id="path76"
         style="fill:#b5b5b4;fill-opacity:1;fill-rule:nonzero;stroke:none"
         d="m 10679.4,11186.9 c 0,0 3.3,-4.9 21.6,-8.9 76,-16.8 244.3,9.4 267.8,22.8 5.1,9.8 8.5,23.3 4.1,34.1 -4,9.7 -14.6,16.9 -31.3,21.4 -44,11.9 -185.9,-1.1 -242.8,-7.8 -8.5,-7.3 -31.1,-30.3 -19.4,-61.6 z m 81.3,-47.4 c -12.7,0 -24.3,0.4 -34.1,1.2 -46.2,3.7 -71.1,14.6 -78.5,34.5 -18.6,49.5 14.4,89.1 34.4,103.1 l 3.4,2.4 4.2,0.5 c 8.1,1 199.4,23.9 260.2,7.4 27.3,-7.3 45.3,-21.1 53.5,-40.9 11.9,-28.5 -2.4,-57.4 -7.1,-65.5 -14.9,-26.2 -151.7,-42.7 -236,-42.7" /><path
         id="path78"
         style="fill:#b5b5b4;fill-opacity:1;fill-rule:nonzero;stroke:none"
         d="m 10990,11287.9 c -4.9,-2 -31.5,-13.7 -33.7,-43.4 -1.5,-21.1 -0.3,-37.5 10.5,-49.1 13.9,-15 44,-22.6 89.5,-22.6 118.1,-0.1 196.8,3.8 204.1,59.4 1.7,12.7 -2.8,23.7 -13.8,33.8 -32.5,30 -126.7,49.6 -256.6,21.9 z m 82.2,-148.7 c -5.3,0 -10.6,0.1 -15.9,0.1 -56,0.1 -93.3,11 -114,33.3 -20.2,21.7 -21.1,49.7 -19.4,74.3 3.9,54.6 55,72.3 57.2,73 l 1.7,0.5 c 125.7,27 238.6,15.3 287.5,-29.8 19,-17.4 27.4,-39.2 24.3,-62.8 -11,-84.7 -115.6,-88.6 -221.4,-88.6" /><path
         id="path80"
         style="fill:#b5b5b4;fill-opacity:1;fill-rule:nonzero;stroke:none"
         d="m 11223.4,11238.1 c -9.1,0 -16.5,7.2 -16.7,16.3 -0.2,9.3 7.1,16.9 16.3,17.2 l 293.3,6.6 c 9.5,0.1 16.9,-7.1 17.1,-16.4 0.2,-9.2 -7.1,-16.9 -16.4,-17.1 l -293.2,-6.6 h -0.4" /><path
         id="path82"
         style="fill:#b5b5b4;fill-opacity:1;fill-rule:nonzero;stroke:none"
         d="m 10460.4,11138.4 h 0.1 z m 4.4,-16.1 v 0 c -0.7,-0.2 -68.8,-19.7 -71.3,-63.6 -3.2,-58.2 53.4,-272.5 78.7,-297.8 8.3,-8.3 23.5,-11.6 41.7,-9.2 28.3,3.8 56.1,20.4 67.5,40.3 4.8,8.5 7.7,55 -15.7,171 -17.7,87.9 -38.4,155.1 -45.5,164.7 -8.5,9.7 -38.7,1.9 -52.9,-4.5 z m 37.7,-404.9 c -22.2,0 -41,6.9 -54,19.8 -37.1,37.2 -91.7,265 -88.4,323.4 3.6,64.3 82.8,90.2 94.5,93.6 10.5,4.6 64.3,25.9 91,-4.7 23,-26.4 95.7,-320.1 64.9,-374.1 -16.5,-28.8 -53.5,-51.7 -92.2,-56.9 -5.4,-0.7 -10.7,-1.1 -15.8,-1.1" /><path
         id="path84"
         style="fill:#b5b5b4;fill-opacity:1;fill-rule:nonzero;stroke:none"
         d="m 10624.3,10357.1 c -7.5,0 -14.3,5.1 -16.2,12.7 l -100.9,408.3 c -2.3,9 3.2,18.1 12.2,20.3 9,2.2 18.1,-3.2 20.3,-12.2 l 100.9,-408.3 c 2.2,-9 -3.3,-18.1 -12.2,-20.3 -1.4,-0.4 -2.8,-0.5 -4.1,-0.5" /><path
         id="path86"
         style="fill:#b5b5b4;fill-opacity:1;fill-rule:nonzero;stroke:none"
         d="m 10683.3,10043.6 c 6.3,-2.9 18.7,-7.1 29.2,-2 14.1,6.9 23.9,30.3 27.6,66 12.7,122.6 -48,310.2 -83.8,324.6 -12.6,-4.2 -54.1,-20.9 -66.3,-63 -11.3,-38.9 50.3,-217.8 93.3,-325.6 z m 18.4,-37.8 c -22,0 -39.7,11.2 -40.7,11.9 l -4.5,2.8 -2,5 c -19.3,48 -114.8,290.7 -96.7,353 19.8,68.4 91.1,86.5 94.1,87.3 l 3.1,0.8 3.2,-0.5 c 43.1,-6.2 73.9,-90.9 88.5,-140.8 22.5,-77.7 32.8,-162.4 26.7,-221.2 -5.1,-49.2 -20.7,-80.3 -46.6,-92.7 -8.5,-4.1 -17.1,-5.6 -25.1,-5.6" /><path
         id="path88"
         style="fill:#b5b5b4;fill-opacity:1;fill-rule:nonzero;stroke:none"
         d="m 10758.4,9687.6 c -8,0 -15,5.7 -16.5,13.8 l -66.8,376.3 c -1.6,9.1 4.5,17.8 13.6,19.4 9.1,1.6 17.8,-4.5 19.4,-13.6 l 66.8,-376.2 c 1.6,-9.2 -4.4,-17.8 -13.5,-19.5 -1,-0.1 -2,-0.2 -3,-0.2" /><path
         id="path90"
         style="fill:#b5b5b4;fill-opacity:1;fill-rule:nonzero;stroke:none"
         d="m 10736.9,9727.3 c -6.1,-16.3 -18.8,-58.1 -9.9,-108.3 1.2,-6.9 2.5,-15.1 4,-24.4 12.1,-75.1 40.8,-251 111.9,-241.5 10.4,1.3 18.3,6.8 24.8,17.2 35.9,58 5,233.8 -21.7,311.8 -18.5,54 -85.4,48.9 -109.1,45.2 z m 99.7,-408.1 c -95.1,0 -123.2,174.7 -138.6,270.1 -1.5,9 -2.8,17.1 -4,23.8 -13.4,76 14.8,134.1 16,136.5 l 3.5,7.1 7.7,1.8 c 43,9.9 131,8.9 156.5,-65.6 21.8,-63.7 66.6,-262.6 18.4,-340.2 -11.7,-18.8 -28.6,-30.2 -48.9,-32.8 -3.6,-0.5 -7.2,-0.7 -10.6,-0.7" /><path
         id="path92"
         style="fill:#b5b5b4;fill-opacity:1;fill-rule:nonzero;stroke:none"
         d="m 10840.8,9369.5 c -10.5,-17.5 -25.8,-49.9 -20.3,-82.8 10.6,-63 68.3,-247.6 96.1,-281.1 11.4,27.6 6.8,144.6 -31.7,262.6 -20.5,63.1 -35.7,90 -44.1,101.3 z m 76,-400.9 c -16.7,0 -38.8,16.2 -80.4,137.8 -23.1,67.5 -43.9,144.8 -48.9,174.8 -10.6,63.4 34.2,120.1 36.1,122.5 l 3.4,4.3 5.2,1.4 c 25.8,7 53.6,-35.7 84.6,-130.8 34.1,-104.7 52.4,-253 25.9,-294.8 -7,-11 -15.8,-14.2 -22,-15 -1.3,-0.2 -2.5,-0.2 -3.9,-0.2" /><path
         id="path94"
         style="fill:#b5b5b4;fill-opacity:1;fill-rule:nonzero;stroke:none"
         d="m 10917.6,9028.3 c -8,-8.3 -28.4,-33.9 -30.2,-81.3 -2.4,-66 20.5,-259.8 86.7,-305.9 16.1,-11.1 33.1,-12.4 53.7,-3.9 66.3,27.6 30.7,154.4 18.2,192.6 -36.8,112.6 -101.4,196.6 -128.4,198.5 z m 85.2,-430 c -17,0 -33.1,5.1 -47.8,15.3 -84.2,58.5 -103.2,277.8 -101.1,334.6 2.8,74.1 44.1,107.8 45.9,109.2 l 2.9,2.3 3.5,0.9 c 60.2,14.6 138.4,-118.6 171.7,-220.4 40,-122.2 26.4,-207.5 -37.3,-233.9 -12.8,-5.3 -25.5,-8 -37.8,-8" /><path
         id="path96"
         style="fill:#b5b5b4;fill-opacity:1;fill-rule:nonzero;stroke:none"
         d="m 10993.4,8664.1 c -2.3,-5.8 -4.4,-15.5 -5,-31.3 -4,-114.1 70.9,-338.5 101,-352.7 2.9,-1.1 3.5,-0.5 4.7,0.6 19.1,18.4 22.2,124.3 -12.8,232.9 -27.9,86.7 -68.8,132.6 -87.9,150.5 z M 11092,8246 c -4.6,0 -9.4,0.9 -14.3,2.7 -31,11.4 -60.9,88.9 -80.7,151.9 -25.6,81.8 -41.8,166.7 -42.2,221.6 -0.4,45.8 9.9,72 31.3,80.3 l 8.2,3.2 7.3,-4.9 c 2.8,-1.9 70.4,-48.8 111.6,-176.9 32.3,-100.1 41.6,-231.4 4.1,-267.4 -7.3,-6.9 -16,-10.5 -25.3,-10.5" /><path
         id="path98"
         style="fill:#b5b5b4;fill-opacity:1;fill-rule:nonzero;stroke:none"
         d="m 11627.5,11102.4 c -2.6,-1.6 -6.7,-3.8 -14,-7.7 -105.3,-56.3 -131.1,-83 -134.2,-95.4 -9.8,-39.1 -10,-318.3 17.9,-380 11.5,-25.3 45.9,-48.6 87.7,-59.4 49.1,-12.6 97.2,-6 128.7,17.6 17.8,13.3 41,67.5 53,179.9 15.7,147.6 2.3,291.6 -19.8,317 -38.2,44 -106.1,31 -119.3,28 z m 5.6,-582.2 c -18.4,0 -37.5,2.4 -56.5,7.3 -52.1,13.4 -94.2,43.3 -109.9,78 -31.1,68.9 -31.4,356.1 -19.9,402 9.1,36.5 77.9,77.7 150.9,116.7 6.8,3.7 11.6,6.2 13.4,7.4 l 2.7,2.2 2.6,0.3 c 4,1.1 99.8,26.7 155.7,-37.7 35.4,-40.8 42,-209.6 27.8,-342.6 -8.1,-76.1 -26.1,-173.1 -66.1,-203.1 -26.8,-20.1 -62.3,-30.5 -100.7,-30.5" /><path
         id="path100"
         style="fill:#b5b5b4;fill-opacity:1;fill-rule:nonzero;stroke:none"
         d="m 11611,10582.3 v -0.1 z m 12.4,-341.8 h -0.3 c -9.3,0.2 -16.6,7.8 -16.5,17.1 2.1,117 4.1,308 1,330.3 -2.2,6.2 -0.6,13.3 4.5,18 6.9,6.2 17.5,5.7 23.7,-1.1 5.7,-6.3 10.2,-11.3 4.3,-347.8 -0.1,-9.2 -7.6,-16.5 -16.7,-16.5" /><path
         id="path102"
         style="fill:#c9c8c6;fill-opacity:1;fill-rule:nonzero;stroke:none"
         d="m 10654.1,6336.5 c -29.2,34.1 -59.5,72.9 -83.5,111.7 26.9,-39.8 54.7,-77.1 83.5,-111.7" /><path
         id="path104"
         style="fill:#3b6031;fill-opacity:1;fill-rule:nonzero;stroke:none"
         d="m 10758.9,6226.5 c 0,0 -50.6,46.8 -104.8,110 -28.8,34.6 -56.6,71.9 -83.5,111.7 -0.1,0.1 -0.2,0.3 -0.3,0.5 -68.7,111.1 -236.1,844.6 -236.1,844.6 l 231.3,752.5 139.8,159.8 c -1.1,-25.4 -1.6,-51.1 -1.6,-77 0,-180 25.9,-347.9 70.7,-489.5 -4.8,-18.8 -9.9,-37.4 -15.5,-55.7 -92.5,-302.7 -63.1,-1023.7 0,-1356.9" /><path
         id="path106"
         style="fill:#6d6e70;fill-opacity:1;fill-rule:nonzero;stroke:none"
         d="m 10774.4,7639.1 c -44.8,141.6 -70.7,309.5 -70.7,489.5 0,25.9 0.5,51.6 1.6,77 l 68.9,78.8 96.3,19.1 -48.6,-50.1 c 0,0 26,-324.1 -47.5,-614.3" /><path
         id="path108"
         style="fill:#252323;fill-opacity:1;fill-rule:nonzero;stroke:none"
         d="m 10774.2,8284.4 v 0 l 96.3,19.1 -96.3,-19.1" /><path
         id="path110"
         style="fill:#100f0d;fill-opacity:1;fill-rule:nonzero;stroke:none"
         d="m 11187.7,10578 -216.2,-232.5 -81.3,-233.4 201.5,77.9 -8.2,183.8 104.2,204.2" /><path
         id="path112"
         style="fill:#c37140;fill-opacity:1;fill-rule:nonzero;stroke:none"
         d="m 9481.94,8146.2 c 0,0 108.17,-417.8 101.87,-852.9 -6.31,-435.2 -163.76,-800.9 -69.27,-1318 94.49,-517.1 643.16,-1671.2 781.86,-2112.6 138.7,-441.4 54.7,-529.7 105.1,-798.8 50.5,-269 189.2,-819.8 290.1,-1009 100.9,-189.1 257.5,-364.7 386.8,-437.2 129.2,-72.5 167.1,-78.8 195.5,-119.8 28.3,-41 182.8,-130.8 242.7,-135.6 60,-4.7 52.1,11.1 78.9,11.1 26.8,0 94.6,12.6 124.5,31.5 30,18.9 52,47.3 59.9,48.9 7.9,1.5 74.1,3.1 107.2,31.5 33.1,28.4 69.4,48.9 82,124.5 12.6,75.7 18.9,162.4 -42.6,264.9 -61.4,102.5 -141.8,200.2 -162.3,239.6 -20.5,39.4 -398.9,619.6 -439.9,736.3 -41,116.6 -164,271.1 -204.9,381.5 -41,110.4 -41,245.9 -148.2,438.3 -107.2,192.3 -97.8,252.2 -151.4,681 -53.6,428.9 -82,1337 -126.1,1570.3 -44.2,233.3 -113.5,469.8 -126.1,744.1 -12.6,274.3 51.4,759.9 136.1,1075.2 84.6,315.3 70.5,543.4 70.5,543.4 L 9481.94,8146.2" /><path
         id="path114"
         style="fill:#a45330;fill-opacity:1;fill-rule:nonzero;stroke:none"
         d="m 12497.3,1980.3 c 0,0 80.9,-159.7 88.2,-245.9 7.4,-86.2 -52.5,-144 -52.5,-144 l 43.9,-20.9 c 0,0 59.1,58.7 57,156.5 -2.1,97.7 -136.6,254.3 -136.6,254.3" /><path
         id="path116"
         style="fill:#a45330;fill-opacity:1;fill-rule:nonzero;stroke:none"
         d="m 11949.8,1550.6 c -2.6,-3.3 -28.5,75.5 -66.3,155.4 -37.9,79.9 -56.8,111.4 -56.8,111.4 0,0 116,-109.9 145.2,-189.5 0,0 8.1,-39.4 -22.1,-77.3" /><g
         transform="scale(1.02067)"
         id="g118"><path
           id="path120"
           style="fill:#aaa9a8;fill-opacity:1;fill-rule:nonzero;stroke:none"
           d="M 14119.4,14661.2 4751.5,16300 v -342.9 l 9367.9,-1542.9 v 247" /></g><path
         id="path122"
         style="fill:#bec8cd;fill-opacity:1;fill-rule:nonzero;stroke:none"
         d="m 10199.7,14658.9 c 0,0 4.2,-193.4 -71.5,-340.6 -75.6,-147.1 -180.74,-231.2 -180.74,-231.2 0,0 133.74,-21.2 252.34,210.2 84,164 -0.1,361.6 -0.1,361.6" /><path
         id="path124"
         style="fill:#c37140;fill-opacity:1;fill-rule:nonzero;stroke:none"
         d="m 11637.7,14704.2 -168.3,64 c 0,0 -86.2,142.9 -124.1,210.2 -37.8,67.3 -140.8,151.3 -155.5,252.2 -14.7,100.9 -90.9,313.1 -90.9,313.1 l -124.2,21.7 c 0,0 84.7,135.6 117.9,146.6 33.1,11 159.2,-42.6 159.2,-42.6 0,0 53.6,31.6 104,36.3 50.5,4.7 74.1,-3.2 86.7,-3.2 12.7,0 94.6,37.9 119.9,34.7 25.2,-3.1 92.3,-26.8 92.3,-26.8 0,0 41.7,33.1 79.5,26.8 37.8,-6.3 130.9,-137.1 130.9,-137.1 0,0 83.5,0 105.6,-18.9 22.1,-19 105.6,-280.7 93,-315.4 -12.6,-34.6 -105.6,-174.9 -116.7,-195.4 -11,-20.5 -6.8,-92 -6.8,-92 0,0 -78.3,-128.8 -242.3,-161.9 -163.9,-33.1 -60.2,-112.3 -60.2,-112.3" /><path
         id="path126"
         style="fill:#a45330;fill-opacity:1;fill-rule:nonzero;stroke:none"
         d="m 11865.1,15600.1 c 0,0 142.4,-186.6 129.8,-176.1 -12.6,10.5 -75.7,176.1 -75.7,176.1 h -54.1" /><path
         id="path128"
         style="fill:#c37140;fill-opacity:1;fill-rule:nonzero;stroke:none"
         d="m 8673.62,15318.9 513.39,-166.8 41.55,129 c 0,0 129.02,124.5 169.61,256.7 40.59,132.2 30.08,301 13.27,369 -16.82,68 -59.85,86 -75.38,101.7 -15.54,15.7 -16.09,56.7 -57.59,77.1 -41.5,20.5 -71.46,23.7 -71.46,23.7 0,0 -63.06,72.5 -88.28,82 -25.23,9.4 -93.02,17.3 -93.02,17.3 0,0 -81.98,52 -127.7,48.9 -45.72,-3.2 -107.2,-41 -116.66,-50.5 -9.46,-9.4 -89.34,-175.3 -107.73,-173.6 -18.4,1.8 -46.78,1.8 -53.08,14.4 -6.31,12.6 -129.28,160.8 -154.5,168.7 -25.23,7.9 -143.47,-4.7 -137.16,-74.1 6.31,-69.4 119.82,-354.7 137.16,-413.1 17.34,-58.3 74.1,-206.5 134,-263.2 59.91,-56.8 78.83,-77.3 83.56,-88.3 4.73,-11.1 -9.98,-58.9 -9.98,-58.9" /><path
         id="path130"
         style="fill:#d77d50;fill-opacity:1;fill-rule:nonzero;stroke:none"
         d="m 8975.26,16211.8 c 25.23,-22.1 25.23,-22.1 25.23,-22.1 0,0 77.25,-17.3 105.62,-36.3 28.38,-18.9 69.37,-69.3 69.37,-69.3 0,0 64.64,-6.3 94.59,-33.1 29.96,-26.8 34.69,-59.9 34.69,-59.9 0,0 64.64,-50.5 77.25,-77.3 8.94,-19 31.33,-88.6 43.62,-127.6 -1.87,50.3 -7.5,93.5 -14.19,120.6 -16.82,68 -59.85,86 -75.38,101.7 -15.54,15.7 -16.09,56.7 -57.59,77.1 -41.5,20.5 -71.46,23.7 -71.46,23.7 0,0 -63.06,72.5 -88.28,82 -25.23,9.4 -93.02,17.3 -93.02,17.3 0,0 -81.98,52 -127.7,48.9 -6.58,-0.5 -13.49,-1.7 -20.52,-3.4 0,0 72.55,-20.3 97.77,-42.3" /><path
         id="path132"
         style="fill:#434244;fill-opacity:1;fill-rule:nonzero;stroke:none"
         d="m 11667.9,11744.8 -185.9,-339.9 277.4,-319.5 150.3,162.3 -175.5,289.6 -66.3,207.5" /><path
         id="path134"
         style="fill:#686a6c;fill-opacity:1;fill-rule:nonzero;stroke:none"
         d="m 11643.3,11416.8 c 23.8,-5.2 39,-28.6 33.8,-52.4 -5.1,-23.8 -28.5,-39 -52.3,-33.9 -23.9,5.1 -39,28.6 -33.9,52.4 5.1,23.8 28.6,39 52.4,33.9" /><path
         id="path136"
         style="fill:#686a6c;fill-opacity:1;fill-rule:nonzero;stroke:none"
         d="m 11740,11313.4 c 23.8,-5.1 38.9,-28.6 33.8,-52.4 -5.1,-23.8 -28.5,-39 -52.4,-33.8 -23.8,5.1 -38.9,28.5 -33.8,52.3 5.1,23.8 28.5,39 52.4,33.9" /><path
         id="path138"
         style="fill:#434244;fill-opacity:1;fill-rule:nonzero;stroke:none"
         d="m 9022.11,12274.9 c 0,0 517.55,-229.9 858.09,-425.4 340.5,-195.5 592.8,-409.9 592.8,-409.9 l -236.5,-321.6 c 0,0 -422.52,315.3 -753.59,381.5 -331.08,66.2 -595.94,-72.5 -599.09,-59.9 -3.15,12.6 47.3,290.1 72.52,504.5 25.23,214.4 28.38,330.8 28.38,330.8 h 37.39" /><path
         id="path140"
         style="fill:#686a6c;fill-opacity:1;fill-rule:nonzero;stroke:none"
         d="m 10158.7,11551.5 c 0,-31 -25.2,-56.2 -56.2,-56.2 -31.1,0 -56.2,25.2 -56.2,56.2 0,31.1 25.1,56.2 56.2,56.2 31,0 56.2,-25.1 56.2,-56.2" /><path
         id="path142"
         style="fill:#686a6c;fill-opacity:1;fill-rule:nonzero;stroke:none"
         d="m 10055.7,11403.3 c 0,-31 -25.2,-56.2 -56.21,-56.2 -31.06,0 -56.23,25.2 -56.23,56.2 0,31.1 25.17,56.2 56.23,56.2 31.01,0 56.21,-25.1 56.21,-56.2" /><g
         transform="scale(1.14036)"
         id="g144"><path
           id="path146"
           style="fill:#2f1d16;fill-opacity:1;fill-rule:nonzero;stroke:none"
           d="m 9216.27,16134.5 c -223.53,162.6 -478.42,165.5 -614.89,147.9 -136.47,-17.6 -360.73,-73 -360.73,-73 -58.26,-15.8 -117.84,-34.9 -155.96,-68.2 -60.96,-53.2 -77.06,-109.5 -77.06,-109.5 0,0 -194.32,-10.5 -242.68,-271.5 -48.36,-261 -3.96,-479.5 37.93,-632.9 41.89,-153.5 238.85,-434 238.85,-434 l 268.74,304.1 c 166.91,-97.6 318.89,425.4 301.54,472 -11,29.6 541.03,92.6 541.03,92.6 l 132.42,49.5 c 0,0 77.43,160.7 23.68,350.8 -16.93,59.6 -52.27,118.9 -92.87,172.2" /></g><g
         transform="scale(1.10405)"
         id="g148"><path
           id="path150"
           style="fill:#c37140;fill-opacity:1;fill-rule:nonzero;stroke:none"
           d="m 9529.15,16230.6 c 0,0 50.9,-76.4 61.69,-105.7 10.68,-29.3 2.8,-288 2.53,-353.6 -0.18,-65.6 -23.01,-152.9 -25.09,-184.5 -2.17,-31.6 -11.05,-225.8 -24.54,-301 -13.59,-75.3 -117.75,-364.5 -150.45,-440.6 -32.61,-76.1 -79.62,-176.7 -118.92,-195.2 -39.4,-18.5 -206.33,-15.7 -350.85,38.5 -144.48,54.2 -419.87,269.6 -490.85,378.1 -70.99,108.5 -45.94,322.7 -45.94,322.7 0,0 -62.24,-12.8 -121.17,54.7 -58.93,67.5 -150.81,211.2 -119.51,361.5 31.31,150.3 143.48,87.7 198.34,22.6 54.86,-65.1 50.72,-157.9 63.21,-160.9 12.5,-2.9 25.43,0.4 31.9,2.1 6.45,1.7 46.46,155.6 50.71,187 4.24,31.5 10.71,221.5 15.36,227.6 4.64,6 174.39,185 226.22,200.6 51.85,15.5 797.36,-53.9 797.36,-53.9" /></g><g
         transform="scale(1.10831)"
         id="g152"><path
           id="path154"
           style="fill:#2f1d16;fill-opacity:1;fill-rule:nonzero;stroke:none"
           d="m 8420.75,15646.5 c 0,0 27.03,98.3 62.44,155.2 35.4,56.9 17.6,94 30.71,158.8 13.11,64.7 102.89,76 127.3,159.5 24.42,83.4 103.45,104.2 103.45,104.2 0,0 -72.97,75.8 -82.84,69.6 -9.87,-6.1 -189.48,-56.7 -245.14,-121.9 -55.66,-65.3 -111.75,-49.4 -93.52,-167.6 18.23,-118.1 97.6,-357.8 97.6,-357.8" /></g><g
         transform="scale(1.14449)"
         id="g156"><path
           id="path158"
           style="fill:#2f1d16;fill-opacity:1;fill-rule:nonzero;stroke:none"
           d="m 7909.42,15932.8 c 0,0 88,141.7 157.67,180.6 69.66,39 177.47,96.3 177.47,96.3 0,0 102.73,53.5 163.67,51.7 60.93,-1.8 121.73,-12 121.73,-12 0,0 79.34,50.6 167.96,32 88.64,-18.6 109.17,-39.7 127.08,-44.6 17.83,-4.9 83.45,22.4 163.13,-5.6 79.78,-28 104.85,-76 119.79,-81.2 14.94,-5.3 87.38,-22.2 123.11,-55.8 35.83,-33.6 59.86,-54.5 60.64,-101.1 0.7,-46.6 46.66,-74.3 63.7,-121.3 17.12,-47 -11.71,-70.5 -24.2,-122.1 -12.5,-51.6 -28.58,-118.7 -79.16,-194.5 0,0 -11.02,160.9 -15.38,164.3 -4.46,3.4 -353.44,146.5 -353.44,146.5 0,0 -704.47,-5.8 -720.71,-6.9 -16.25,-1.1 -253.06,73.7 -253.06,73.7" /></g></g></g></svg>