<?xml version="1.0" encoding="UTF-8" standalone="no"?>
<svg
   xmlns:dc="http://purl.org/dc/elements/1.1/"
   xmlns:cc="http://creativecommons.org/ns#"
   xmlns:rdf="http://www.w3.org/1999/02/22-rdf-syntax-ns#"
   xmlns:svg="http://www.w3.org/2000/svg"
   xmlns="http://www.w3.org/2000/svg"
   viewBox="0 0 2666.6667 2666.6667"
   height="2666.6667"
   width="2666.6667"
   xml:space="preserve"
   id="svg2"
   version="1.1"><metadata
     id="metadata8"><rdf:RDF><cc:Work
         rdf:about=""><dc:format>image/svg+xml</dc:format><dc:type
           rdf:resource="http://purl.org/dc/dcmitype/StillImage" /></cc:Work></rdf:RDF></metadata><defs
     id="defs6" /><g
     transform="matrix(1.3333333,0,0,-1.3333333,0,2666.6667)"
     id="g10"><g
       transform="scale(0.1)"
       id="g12"><g
         transform="scale(1.22699)"
         id="g14"><path
           id="path16"
           style="fill:none;fill-opacity:1;fill-rule:nonzero;stroke:none"
           d="M 16300,0 H 0 V 16300 H 16300 V 0" /></g><g
         transform="scale(1.00521)"
         id="g18"><path
           id="path20"
           style="fill:#c37140;fill-opacity:1;fill-rule:nonzero;stroke:none"
           d="m 15226.9,11821.8 c 0,0 149.4,-158.9 316.1,-201.2 166.9,-42.3 386,-102.1 495.6,-109.5 109.5,-7.5 216.5,-19.7 229,74.8 12.4,94.5 32.4,377.5 0,548.4 -32.4,171 -184,539.5 -184,539.5 l -261.6,-22.6 c 0,0 44.8,-141.7 47.2,-306.1 2.5,-164.3 -12.4,-210.8 -12.4,-210.8 0,0 -74.7,72.2 -159.4,117.9 -84.6,45.6 -156.8,63.1 -156.8,63.1 0,0 -32.4,136.9 -174.3,231.5 -141.9,94.6 -325.3,126.1 -325.3,126.1 0,0 -85.4,-207.8 -86.7,-230.7 -1.3,-22.9 272.6,-620.4 272.6,-620.4" /></g><path
         id="path22"
         style="fill:#a04e34;fill-opacity:1;fill-rule:nonzero;stroke:none"
         d="m 15408.9,12211.8 c 0,0 35,289.3 35,272.3 0,-17 30.1,-212.3 32.6,-331.1 2.5,-118.9 2.5,-118.9 2.5,-118.9 l 127.6,-57.6 c 0,0 -200.2,-15 -197.7,-15 2.5,0 -47.6,42.6 -52.6,95.1 -5,52.6 52.6,155.2 52.6,155.2" /><path
         id="path24"
         style="fill:#252323;fill-opacity:1;fill-rule:nonzero;stroke:none"
         d="m 15298.8,7026.1 c 0,0 -107.6,10.1 -135.2,-15 -27.5,-25 -187.7,-523 -177.7,-533.1 10,-10 180.2,-42.5 312.9,-37.5 132.6,5 345.9,-127.6 500.8,-145.1 154.9,-17.6 440.2,25 430.2,185.2 -10,160.1 -415.5,330.1 -485.5,387.8 -70.1,57.6 -75.1,125.2 -92.6,142.7 -17.6,17.6 -155.2,67.6 -155.2,67.6 l -197.7,-52.6" /><path
         id="path26"
         style="fill:#252323;fill-opacity:1;fill-rule:nonzero;stroke:none"
         d="m 13851.4,6815.9 c 0,0 80.1,-50 80.1,-80.1 0,-30 16.6,-163.5 16.6,-163.5 0,0 153.5,-213.6 210.3,-253.6 56.7,-40 143.5,-156.8 113.4,-230.2 -30,-73.5 -560.6,-63.4 -573.9,-56.8 -13.4,6.7 -270.3,116.8 -247,407.1 23.4,290.4 66.8,403.8 116.8,450.5 50.1,46.7 283.7,-73.4 283.7,-73.4" /><path
         id="path28"
         style="fill:#100f0d;fill-opacity:1;fill-rule:nonzero;stroke:none"
         d="m 15306.3,8287.5 c 0,0 237.7,-5 478,145.2 240.3,150.1 -15,345.4 -82.6,360.4 -67.6,15 -232.7,-22.6 -292.8,-97.6 -60.1,-75.1 -102.6,-408 -102.6,-408" /><path
         id="path30"
         style="fill:#100f0d;fill-opacity:1;fill-rule:nonzero;stroke:none"
         d="m 13959.8,8452.7 c 0,0 45.1,-85.1 168.5,-58.4 123.5,26.7 64,221.9 -23,242.8 -87.1,20.8 -98.6,8.3 -107.1,0 -8.5,-8.4 -38.4,-184.4 -38.4,-184.4" /><g
         transform="scale(1.00859)"
         id="g32"><path
           id="path34"
           style="fill:#c37140;fill-opacity:1;fill-rule:nonzero;stroke:none"
           d="m 15349.7,8391.03 c 0,0 166.2,-99.64 210.9,-136.82 44.7,-37.28 71.9,-91.02 71.9,-91.02 0,0 -253.1,-167.07 -307.6,-273.75 -54.7,-106.78 -12.5,-280.39 -89.4,-511.21 -76.9,-230.82 -181.1,-516.17 -181.1,-516.17 0,0 22.3,-49.57 32.2,-52.05 9.9,-2.48 104.2,39.66 148.9,47.09 44.7,7.44 176.1,42.24 176.1,42.24 0,0 126.6,250.55 354.9,501.2 228.3,250.64 474,739.45 503.8,875.98 29.7,136.42 -71.2,372.2 -71.2,372.2 0,0 -308.5,116.6 -320.9,114.12 -12.5,-2.48 -521.2,-47.1 -571.7,-113.73 -50.4,-66.72 43.2,-258.08 43.2,-258.08" /></g><path
         id="path36"
         style="fill:#c37140;fill-opacity:1;fill-rule:nonzero;stroke:none"
         d="m 14740.7,8647.9 c 0,0 11.7,-160.2 -28.4,-236.9 -40,-76.8 -43.4,-223.6 -100.1,-310.3 -56.7,-86.8 -176.9,-217 -250.3,-390.5 -73.4,-173.5 -313.6,-497.2 -380.4,-607.3 -66.7,-110.1 -130.1,-287 -130.1,-287 h -182.3 c 0,0 -28,754.2 38.8,964.4 66.7,210.2 330.3,367.1 343.7,427.1 13.3,60.1 -76.8,470.5 -70.1,483.9 6.7,13.3 287,196.9 330.4,200.2 43.4,3.3 220.2,-26.6 260.3,-53.3 40,-26.8 168.5,-190.3 168.5,-190.3" /><path
         id="path38"
         style="fill:#ececec;fill-opacity:1;fill-rule:nonzero;stroke:none"
         d="m 15274.7,7175.4 c -49.8,-141.5 -91,-254.4 -91,-254.4 0,0 22.5,-50 32.5,-52.5 10,-2.5 105.1,40 150.2,47.5 45,7.5 177.6,42.6 177.6,42.6 0,0 22.6,44.5 65.6,114.7 -128.5,32.1 -256.2,74.4 -334.9,102.1" /><path
         id="path40"
         style="fill:#ececec;fill-opacity:1;fill-rule:nonzero;stroke:none"
         d="m 13663.7,7072.7 c 1.4,-147.2 5.4,-256.8 5.4,-256.8 h 182.3 c 0,0 42.6,118.8 94.7,222.3 -107.7,4.4 -208,20 -282.4,34.5" /><g
         transform="scale(1.00234)"
         id="g42"><path
           id="path44"
           style="fill:#252323;fill-opacity:1;fill-rule:nonzero;stroke:none"
           d="m 13839,10555.3 c 0,0 -196.5,-434.5 -201.5,-554.3 -4.9,-119.86 40,-219.72 45,-259.73 5,-39.9 -18.7,-509.3 55.6,-684.1 74.2,-174.79 119.1,-339.6 134.2,-409.53 15,-69.84 54.9,-214.7 54.9,-214.7 0,0 159.8,284.63 354.5,284.63 194.8,0 424.5,-89.89 424.5,-89.89 v 289.62 l 25,69.94 539.3,-719.12 c 0,0 264.7,289.63 409.5,349.59 144.8,59.95 524.3,94.87 539.3,94.87 15,0 80.7,-9.97 80.7,-9.97 0,0 -210.5,444.45 -315.4,559.29 -104.8,114.82 -471.1,560.98 -477.7,580.94 -6.7,19.95 -73.3,203.06 -96.6,226.36 -23.3,23.3 -146.5,93.2 -163.1,109.9 -16.7,16.6 -10,129.8 -166.4,279.6 -156.6,149.8 -825.7,226.4 -839,219.8 -13.3,-6.7 -402.8,-123.2 -402.8,-123.2" /></g><path
         id="path46"
         style="fill:#e9eef1;fill-opacity:1;fill-rule:nonzero;stroke:none"
         d="m 14365.3,12877.1 -190.2,35.5 -240.3,-115.2 -265.3,-1096.2 c 0,0 178.5,-407.1 218.6,-587.3 40,-180.2 -23.4,-513.9 -16.7,-533.9 6.7,-20 206.9,-166.8 620.7,-193.5 413.7,-26.7 634,36.7 647.3,56.7 13.4,20 106.8,834.2 116.8,881 10,46.7 103.5,427.1 106.8,443.8 3.4,16.7 100.1,213.5 96.8,407.1 0,0 -277,377.1 -303.7,417.1 -26.7,40.1 -36.7,146.8 -36.7,146.8 l -191,86 -563.1,52.1" /><path
         id="path48"
         style="fill:#878888;fill-opacity:1;fill-rule:nonzero;stroke:none"
         d="M 10349.9,7651.6 V 6302.4 l 1627.6,-642.5 v 1488.4 l -1627.6,503.3" /><path
         id="path50"
         style="fill:#959595;fill-opacity:1;fill-rule:nonzero;stroke:none"
         d="m 13744.1,7416 43.1,-1492 -1809.7,-264.1 v 1488.4 l 1766.6,267.7" /><path
         id="path52"
         style="fill:#b0b0ae;fill-opacity:1;fill-rule:nonzero;stroke:none"
         d="m 10349.9,7651.6 1788.2,208.8 1606,-444.4 -1766.6,-267.7 -1627.6,503.3" /><path
         id="path54"
         style="fill:#c37140;fill-opacity:1;fill-rule:nonzero;stroke:none"
         d="m 14266.8,13301.5 c 0,0 -14.2,-315.4 -21.7,-327.1 -7.5,-11.8 -70,-61.8 -70,-61.8 0,0 375.4,-483.1 558.1,-563.2 182.7,-80 282.8,-8.4 297.8,134.7 15,143.2 -102.6,340.9 -102.6,340.9 0,0 -125.2,52.5 -132.7,52.5 -7.5,0 -5,252.8 -5,252.8 0,0 -340.3,265.3 -342.8,272.8 -2.5,7.5 -138.1,35.1 -138.1,35.1 l -43,-136.7" /><g
         transform="scale(1.08838)"
         id="g56"><path
           id="path58"
           style="fill:#b0b0ae;fill-opacity:1;fill-rule:nonzero;stroke:none"
           d="m 9869.07,11723.7 c 0,0 -48.24,-50.5 0,-135.6 l 6389.63,-36.8 c 0,0 41.3,53.6 0,119.6 l -6389.63,52.8" /></g><g
         transform="scale(1.11502)"
         id="g60"><path
           id="path62"
           style="fill:#878888;fill-opacity:1;fill-rule:nonzero;stroke:none"
           d="M 14652.8,7234.28 V 6182.37 L 16300,5725.08 v 1209.66 l -1647.2,299.54" /></g><g
         transform="scale(1.17794)"
         id="g64"><path
           id="path66"
           style="fill:#959595;fill-opacity:1;fill-rule:nonzero;stroke:none"
           d="M 16300,6712.88 V 5584.39 l -870.7,-165.12 v 1145.05 l 870.7,148.56" /></g><g
         transform="scale(1.17794)"
         id="g68"><path
           id="path70"
           style="fill:#b0b0ae;fill-opacity:1;fill-rule:nonzero;stroke:none"
           d="m 13870.1,6847.86 985.4,141.69 1444.5,-276.67 -870.7,-148.56 -1559.2,283.54" /></g><path
         id="path72"
         style="fill:#272626;fill-opacity:1;fill-rule:nonzero;stroke:none"
         d="m 12904.9,12757.8 c -27.3,277.5 -139.5,517.9 -295.1,673.8 0,0 -0.1,0.1 -0.1,0.1 -254.3,294.3 -682.1,192.1 -682.1,192.1 l -175,-126.9 c 0,0 -4.5,-53.4 -10,-141.2 -126.7,-183.8 -192.9,-445.7 -165.1,-728.4 20.2,-205.6 87,-390.7 183.5,-536.3 27.1,-155.1 70.5,-266.8 137.9,-291.9 183.4,-68.2 364.6,-48.5 467.7,-26.9 29.7,5.1 58.6,12.9 86.6,23.2 v 0 0 c 300.1,110.5 496.1,509.9 451.7,962.4" /><path
         id="path74"
         style="fill:#39393a;fill-opacity:1;fill-rule:nonzero;stroke:none"
         d="m 12682.2,12764.1 c 50.2,-510.9 -206.2,-954.2 -572.8,-990.2 -366.5,-36.1 -704.3,348.9 -754.5,859.7 -50.3,510.9 206.2,954.2 572.7,990.2 366.6,36 704.4,-348.9 754.6,-859.7" /><path
         id="path76"
         style="fill:#58595b;fill-opacity:1;fill-rule:nonzero;stroke:none"
         d="m 12219.1,12695.8 c 9.6,-109.6 -51.7,-204.5 -137.1,-212 -85.3,-7.5 -162.3,75.2 -172,184.8 -9.6,109.6 51.8,204.5 137.1,212 85.3,7.5 162.3,-75.2 172,-184.8" /><path
         id="path78"
         style="fill:#a04e34;fill-opacity:1;fill-rule:nonzero;stroke:none"
         d="m 14320.1,13423.9 c 0,0 -11,-159.7 58.2,-252.4 69.2,-92.7 300.1,-197.9 412.3,-197.1 l 60.2,283.5 c 0,0 -336.9,119.6 -357.9,127.6 -21.1,7.9 -172.8,38.4 -172.8,38.4" /><path
         id="path80"
         style="fill:#100f0d;fill-opacity:1;fill-rule:nonzero;stroke:none"
         d="m 14849.1,9635.7 250.3,63.4 c 0,0 -140.2,-113.5 -176.9,-173.6 -36.7,-60 -43.5,-668.3 -43.5,-668.3 l -113.3,151.1 c 0,0 50.1,473.9 83.4,627.4" /><path
         id="path82"
         style="fill:#b0b0ae;fill-opacity:1;fill-rule:nonzero;stroke:none"
         d="m 12052.7,12749 c 0,0 38.7,-71.9 11.9,-144.4 l -1008,5.8 30.1,146.6 966,-8" /><path
         id="path84"
         style="fill:#c37140;fill-opacity:1;fill-rule:nonzero;stroke:none"
         d="m 13325.4,12597.4 c 0,0 10,-34 36.3,-44 26.2,-10 46.3,-7.5 46.3,-7.5 0,0 18.7,-12.5 42.5,-18.8 23.8,-6.2 51.3,0 51.3,0 0,0 27.6,-23.7 52.6,-25 25,-1.2 38.8,6.3 38.8,6.3 l 21.2,-6.4 c 0,0 -53.3,-115 -45,-213.5 8.3,-98.4 70.1,-216.9 70.1,-216.9 0,0 -5,-225.2 30,-370.4 0,0 55.1,-48.1 155.2,-54.9 100.1,-6.8 173.5,56.6 173.5,56.6 0,0 218.6,-131.8 283.6,-171.8 65.1,-40.1 170.2,10 213.6,0 43.4,-10.1 213.6,-28.4 215.2,103.4 1.7,131.8 -95.1,429.6 -210.2,622.3 -115.1,192.8 -443.8,642.4 -443.8,642.4 0,0 -33.4,45.1 -51.7,53.4 -18.4,8.3 -185.2,5 -278.7,-20 -93.4,-25 -221.9,-200.2 -260.3,-252 -38.3,-51.7 -79.2,-83.6 -79.2,-83.6 l -61.3,0.4" /><path
         id="path86"
         style="fill:#a04e34;fill-opacity:1;fill-rule:nonzero;stroke:none"
         d="m 13551.9,12666 -143.9,-120.1 27.6,-13.9 z" /><path
         id="path88"
         style="fill:#a04e34;fill-opacity:1;fill-rule:nonzero;stroke:none"
         d="m 13501.8,12527.1 97.6,116.4 -80.4,-128.6 z" /><path
         id="path90"
         style="fill:#a04e34;fill-opacity:1;fill-rule:nonzero;stroke:none"
         d="m 13593.2,12508.4 98.8,121.4 -77.6,-127.8 z" /><path
         id="path92"
         style="fill:#a04e34;fill-opacity:1;fill-rule:nonzero;stroke:none"
         d="m 13614.4,12502 c 0,0 61.8,29.2 128.5,77.2 66.8,48.1 108.5,86.8 108.5,86.8 l -8.4,109.7 c 0,0 76.8,-125.1 116.8,-433.8 40.1,-308.6 8.4,-498.8 8.4,-498.8 0,0 -23.4,358.7 -48.4,512.2 -25.1,153.5 -63.4,274.5 -63.4,274.5 0,0 -170.2,-144.7 -242,-127.8" /><path
         id="path94"
         style="fill:#a04e34;fill-opacity:1;fill-rule:nonzero;stroke:none"
         d="m 13712.9,12055 c 5,-1.7 84.4,-25.1 84.4,-25.1 0,0 87.4,-228.5 200.9,-327 l -31.6,-21.5 c 0,0 -150.3,181.7 -185.3,321.8 l -68.4,51.8" /><path
         id="path96"
         style="fill:#a04e34;fill-opacity:1;fill-rule:nonzero;stroke:none"
         d="m 14058.3,12280.2 c 0,0 -8.4,-101.8 70,-165.2 0,0 -50,108.5 -70,165.2" /><path
         id="path98"
         style="fill:#b2b5b7;fill-opacity:1;fill-rule:nonzero;stroke:none"
         d="m 14922.5,12014.9 c 0,0 -13.3,-155.6 -106.7,-263 0,0 180.1,12.7 106.7,263" /><path
         id="path100"
         style="fill:#b2b5b7;fill-opacity:1;fill-rule:nonzero;stroke:none"
         d="m 14940.1,11628.7 c 0,0 40.8,-182.7 28.3,-360.4 0,0 61.7,228.6 -28.3,360.4" /><g
         transform="scale(1.06958)"
         id="g102"><path
           id="path104"
           style="fill:#272626;fill-opacity:1;fill-rule:nonzero;stroke:none"
           d="m 16282.8,11828.6 c -10.5,229.5 -97,432.7 -225.4,568.8 0,0 -0.1,0.1 -0.1,0.1 -208.1,254.9 -586.8,192.7 -586.8,192.7 l -158.9,-95.3 c 0,0 -6.6,-43.7 -15.6,-115.6 -119.5,-144.6 -189.9,-356.5 -179.2,-590.2 7.8,-170 57.2,-325.5 134.6,-450.1 16.1,-128.9 48.8,-222.9 106.5,-247 156.9,-65.4 316.2,-58.4 407.2,-45.9 26.3,2.6 51.9,7.6 76.9,14.7 v 0 0 c 267.5,75.4 458,393.7 440.8,767.8" /></g><g
         transform="scale(1.05698)"
         id="g106"><path
           id="path108"
           style="fill:#39393a;fill-opacity:1;fill-rule:nonzero;stroke:none"
           d="m 16280.4,11986.3 c 19.6,-427.4 -228.7,-782.8 -554.6,-793.9 -325.8,-11 -605.8,326.6 -625.4,754 -19.5,427.4 228.7,782.9 554.6,793.9 325.8,11 605.8,-326.5 625.4,-754" /></g><g
         transform="scale(1.02664)"
         id="g110"><path
           id="path112"
           style="fill:#58595b;fill-opacity:1;fill-rule:nonzero;stroke:none"
           d="m 16296.7,12304.5 c 3.3,-94.4 -57.3,-172.4 -135.4,-174.3 -78,-1.9 -144,73.1 -147.3,167.4 -3.3,94.4 57.3,172.4 135.4,174.3 78,1.8 144,-73.1 147.3,-167.4" /></g><g
         transform="scale(1.01765)"
         id="g114"><path
           id="path116"
           style="fill:#b0b0ae;fill-opacity:1;fill-rule:nonzero;stroke:none"
           d="m 15759,12495.5 v -132 l 541,-3.1 v 130.6 l -541,4.5" /></g><g
         transform="scale(1.0208)"
         id="g118"><path
           id="path120"
           style="fill:#b0b0ae;fill-opacity:1;fill-rule:nonzero;stroke:none"
           d="m 16249.7,12452.5 c 0,0 50.3,-63.9 0,-130.2 h -46.6 v 130.6 l 46.6,-0.4" /></g><path
         id="path122"
         style="fill:#c37140;fill-opacity:1;fill-rule:nonzero;stroke:none"
         d="m 16167.5,12739.9 c 0,0 -60.3,110.1 -108.7,137.2 -48.4,27.1 -90.1,-3.7 -111.8,0 -21.7,3.8 -173.5,2.1 -208.6,-7.9 -35,-10 -131.8,-80.1 -131.8,-80.1 l -23.3,-69.3 35,-0.3 c 0,0 15,-50.3 15,-71.3 0,-20.9 -18.4,-64 -18.4,-64 l -43.3,0.2 c 0,0 3.3,-35.6 13.3,-43.9 10,-8.4 75.1,-30.1 96.8,-31.7 21.7,-1.7 103.4,3.3 138.5,0 35,-3.4 88.4,16.7 88.4,16.7 l 26.8,56.8 232.1,157.6" /><g
         transform="scale(1.00448)"
         id="g124"><path
           id="path126"
           style="fill:#c37140;fill-opacity:1;fill-rule:nonzero;stroke:none"
           d="m 15825.9,12180.4 v -421.8 h 467.2 c 6.3,122.1 6.9,275.9 -13.7,384.6 -32.4,171 -184.1,539.8 -184.1,539.8 l -261.8,-22.6 c 0,0 44.8,-141.9 47.3,-306.3 2.5,-164.4 -12.5,-210.9 -12.5,-210.9 0,0 -16.4,15.8 -42.4,37.2" /></g><path
         id="path128"
         style="fill:#a04e34;fill-opacity:1;fill-rule:nonzero;stroke:none"
         d="m 15939.5,12197.6 c 0,0 -20,-156 15,-261.1 0,0 -87.4,90.9 -58.7,299.5 l 43.7,-38.4" /><path
         id="path130"
         style="fill:#2f1d16;fill-opacity:1;fill-rule:nonzero;stroke:none"
         d="m 14862.6,14255.4 c -147.3,76.8 -299.1,56 -378.7,33.4 -79.5,-22.5 -207.9,-75.3 -207.9,-75.3 -33.3,-14.6 -67,-31.2 -86.7,-54.3 -31.5,-37.1 -36.1,-72 -36.1,-72 0,0 -114.6,-23.4 -120.3,-182.9 -5.6,-159.4 40.2,-285.4 78.7,-372.9 38.4,-87.5 155.2,-229.9 155.2,-229.9 l 158,197.6 c 107.9,-43.2 151.9,281.2 137.5,307.4 -9.2,16.6 313.4,102.9 313.4,102.9 l 74.3,41.2 c 0,0 31.8,102.4 -17,210.6 -15.3,34 -41.6,66.1 -70.4,94.2" /><path
         id="path132"
         style="fill:#c37140;fill-opacity:1;fill-rule:nonzero;stroke:none"
         d="m 14905.5,14006.1 c 0,0 35.8,-39.6 44.5,-55.5 8.7,-16 26.3,-165.6 31.8,-203.3 5.5,-37.8 -0.1,-90 1.4,-108.4 1.4,-18.4 13,-130.8 11.6,-175.3 -1.3,-44.5 -36.5,-219.9 -48.7,-266.5 -12.3,-46.6 -30.7,-108.5 -51.8,-122.5 -21,-14 -117.4,-26.7 -205.2,-7.9 -87.8,18.7 -264.8,119.1 -314.9,175.5 -50.2,56.3 -54.1,181.7 -54.1,181.7 0,0 -34.7,-12.6 -74.5,21.2 -39.7,33.7 -104.9,108.6 -99.7,197.8 5.1,89.1 75,62.7 112.2,30 37.1,-32.8 42.7,-86.6 50.2,-87.2 7.4,-0.6 14.6,2.4 18.1,3.9 3.6,1.6 13.4,93.6 13.2,112 -0.3,18.5 -12.8,128.4 -10.7,132.3 2.2,3.9 84.5,121.4 113,134.8 28.5,13.4 463.6,37.4 463.6,37.4" /><path
         id="path134"
         style="fill:#2f1d16;fill-opacity:1;fill-rule:nonzero;stroke:none"
         d="m 14331.1,13612.4 c 0,0 7.2,59.1 22.7,95 15.6,35.9 2.1,55.8 4.1,94.4 2,38.5 52.9,52.8 59.8,103.1 6.9,50.3 50.8,69.1 50.8,69.1 0,0 -48.7,37.5 -53.8,33.1 -5.2,-4.4 -104.6,-49.1 -131.2,-91.6 -26.5,-42.4 -60.3,-38.1 -39.6,-104.8 20.7,-66.7 87.2,-198.3 87.2,-198.3" /><path
         id="path136"
         style="fill:#2f1d16;fill-opacity:1;fill-rule:nonzero;stroke:none"
         d="m 14115.4,14056.5 c 0,0 40,92.3 78.1,121.8 38.1,29.4 97.3,73.2 97.3,73.2 0,0 56.5,41 93,45.4 36.6,4.3 73.7,3.6 73.7,3.6 0,0 42.9,37.3 97.4,34.1 54.5,-3.2 68.7,-14 79.8,-15.4 11.1,-1.3 47.8,20.8 97.8,11.2 50.1,-9.6 69.3,-36 78.7,-37.8 9.4,-1.8 54.1,-5.5 78.4,-22.4 24.4,-16.8 40.6,-27.2 45.2,-54.9 4.5,-27.7 34.4,-40.1 48.8,-66.7 14.3,-26.5 -0.7,-43.1 -3.6,-75 -2.9,-31.9 -6.6,-73.3 -30,-123 0,0 -20.8,94.9 -23.8,96.6 -2.9,1.6 -223.8,56 -223.8,56 0,0 -419.8,-66.1 -429.4,-68.2 -9.6,-2.1 -157.6,21.5 -157.6,21.5" /><path
         id="path138"
         style="fill:#100f0d;fill-opacity:1;fill-rule:nonzero;stroke:none"
         d="m 5040.11,8833.1 c 0,0 225.24,-18.3 395.43,41.7 170.18,60.1 33.37,226.9 -30.04,243.6 -63.4,16.7 -276.96,-26.7 -300.32,-63.4 -23.36,-36.7 -65.07,-221.9 -65.07,-221.9" /><path
         id="path140"
         style="fill:#252323;fill-opacity:1;fill-rule:nonzero;stroke:none"
         d="m 5715.84,7096.2 c -10.01,6.7 -143.49,-72.3 -150.16,-104.5 -6.68,-32.3 -116.79,-449.4 -73.41,-496.1 43.37,-46.8 296.99,-33.4 460.5,-80.1 163.51,-46.7 363.73,-126.8 580.63,-90.1 216.9,36.7 160.17,233.6 140.15,240.2 -20.02,6.7 -460.5,299.8 -480.52,315.1 -20.02,15.3 -53.39,99.8 -90.1,111 -36.7,11.1 -200.22,31.1 -200.22,31.1 l -186.87,73.4" /><path
         id="path142"
         style="fill:#252323;fill-opacity:1;fill-rule:nonzero;stroke:none"
         d="m 4264.26,6825.9 c 0,0 85.1,-30 100.11,-47.5 15.02,-17.5 30.03,-192.7 32.54,-200.2 2.5,-7.5 120.13,-192.8 180.19,-232.8 60.07,-40 135.15,-70.1 155.17,-120.1 20.02,-50.1 -31.75,-157.7 -171.04,-175.2 -139.3,-17.5 -392.37,35 -392.37,35 0,0 -99.81,287.8 -82.29,423 17.52,135.1 95.1,315.3 95.1,315.3 l 82.59,2.5" /><path
         id="path144"
         style="fill:#c37140;fill-opacity:1;fill-rule:nonzero;stroke:none"
         d="m 5312.07,8953.2 113.46,-158.5 c 0,0 -73.42,-480.5 -56.73,-647.3 16.68,-166.9 146.83,-473.9 200.22,-694.1 53.39,-220.3 63.4,-557.3 80.08,-570.6 16.69,-13.4 200.22,46.7 200.22,46.7 l 103.45,16.7 c 0,0 -13.35,547.2 26.69,914.3 40.05,367.1 16.69,830.9 16.69,830.9 0,0 13.35,140.1 -6.68,261.9 -20.02,121.8 -73.41,200.3 -73.41,200.3 0,0 -196,111.8 -398.33,61.7 -202.32,-50.1 -290.85,-111.4 -290.61,-111.3 0.25,0 84.95,-150.7 84.95,-150.7" /><path
         id="path146"
         style="fill:#bb643e;fill-opacity:1;fill-rule:nonzero;stroke:none"
         d="m 4559.58,8953.2 c 0,0 13.32,-101 -35.88,-289.9 -49.21,-188.9 -72.57,-212.3 -92.59,-419.2 -20.02,-206.9 -46.72,-280.3 -126.8,-553.9 -80.09,-273.6 -40.05,-864.3 -40.05,-864.3 h -140.15 l -266.87,574 c 0,0 -66.82,610.6 -80.17,714.1 -13.35,103.4 210.22,964.4 210.22,964.4 l 517.23,23.3 55.06,-148.5" /><path
         id="path148"
         style="fill:#c37140;fill-opacity:1;fill-rule:nonzero;stroke:none"
         d="m 6089.58,12158.4 c 0,0 160.18,-48.4 240.26,-236.1 80.09,-187.7 13.35,-496.3 13.35,-496.3 0,0 40.05,-248.7 40.05,-502.3 0,-253.6 3.33,-390.4 23.36,-493.8 20.02,-103.5 13.34,-290.4 0,-544 -13.35,-253.6 12.63,-714.1 12.63,-714.1 h -202.84 c 0,0 -93.44,473.9 -190.21,720.8 -96.77,246.9 -63.4,670.7 -70.08,710.8 -6.67,40 -43.38,103.4 -60.06,260.3 -16.68,156.8 -70.08,493.8 -70.08,493.8 l 126.51,670.8 137.11,130.1" /><path
         id="path150"
         style="fill:#252323;fill-opacity:1;fill-rule:nonzero;stroke:none"
         d="m 5206.96,10665.1 c 3.33,-5 143.48,-40 178.52,-150.2 35.04,-110.1 45.05,-215.2 45.05,-215.2 0,0 195.22,-310.3 255.28,-475.5 60.06,-165.2 230.25,-670.7 230.25,-670.7 0,0 -275.3,-25.1 -490.53,-160.2 -215.24,-135.2 -385.42,-160.2 -385.42,-160.2 0,0 -105.11,290.3 -170.19,430.5 -65.07,140.1 -275.3,450.5 -275.3,450.5 0,0 5.01,-485.6 0,-540.6 -5,-55.1 -35.04,-220.3 -35.04,-220.3 0,0 -320.35,15.1 -470.51,-15 -150.16,-30 -220.24,305.4 -220.24,305.4 0,0 -195.21,610.6 -180.2,931 15.02,320.3 140.16,500.5 145.16,550.6 5.01,50 235.26,265.3 280.31,290.3 45.05,25 415.45,50.1 445.48,35 30.04,-15 647.38,-385.4 647.38,-385.4" /><path
         id="path152"
         style="fill:#a04e34;fill-opacity:1;fill-rule:nonzero;stroke:none"
         d="m 6066.23,11494.4 140.15,250.2 -180.2,-173.8 z" /><path
         id="path154"
         style="fill:#a04e34;fill-opacity:1;fill-rule:nonzero;stroke:none"
         d="m 6032.44,10610.1 c 0,0 57.56,-70.1 136.4,-92.7 0,0 -113.46,-34.2 -136.4,92.7" /><path
         id="path156"
         style="fill:#e9eef1;fill-opacity:1;fill-rule:nonzero;stroke:none"
         d="m 5127.71,12577.2 c 0,0 -152.68,-27.7 -312.85,-93.1 -160.17,-65.4 -490.53,-1593.7 -490.53,-1593.7 0,0 56.72,-166.9 83.42,-193.6 26.7,-26.7 256.95,-196.9 510.56,-213.6 253.61,-16.6 337.03,90.1 337.03,90.1 0,0 241.33,297 272.5,350.4 31.16,53.4 134.61,170.2 134.61,170.2 0,0 108.08,43.4 182.51,106.8 74.44,63.4 214.59,270.3 221.27,293.7 6.67,23.3 23.35,664 23.35,664 l -244.62,283.7 -717.25,135.1" /><path
         id="path158"
         style="fill:#c37140;fill-opacity:1;fill-rule:nonzero;stroke:none"
         d="m 5423,12650.9 -27.51,-48.7 -267.78,-25 c 0,0 -22.53,-155.2 0,-405.4 22.51,-250.3 182.69,-485.6 372.9,-555.7 190.21,-70 310.34,95.2 382.92,250.3 72.57,155.2 52.55,578.2 50.05,588.2 -2.5,10 -285.31,254.6 -285.31,254.6 0,0 -72.04,76.8 -82.32,78.8 -10.28,1.9 -142.95,-137.1 -142.95,-137.1" /><path
         id="path160"
         style="fill:#a04e34;fill-opacity:1;fill-rule:nonzero;stroke:none"
         d="m 5487.01,12709.2 c 0,0 -30.93,-103.9 16.14,-209.6 47.07,-105.8 232.18,-255.4 341.81,-279.4 l 107.51,254.7 c 0,0 -271.63,195.7 -290.4,208.1 -18.77,12.4 -175.06,26.2 -175.06,26.2" /><path
         id="path162"
         style="fill:#a04e34;fill-opacity:1;fill-rule:nonzero;stroke:none"
         d="m 5844.96,12220.2 -109.1,-126 71.05,180.2 z" /><path
         id="path164"
         style="fill:#a04e34;fill-opacity:1;fill-rule:nonzero;stroke:none"
         d="m 5231.98,12103.3 c 0,0 234.83,-135.1 245.06,-148.4 10.22,-13.4 61.94,-75.1 61.94,-75.1 0,0 -31.69,96.7 -36.7,105.1 -5.01,8.3 -270.3,118.4 -270.3,118.4" /><path
         id="path166"
         style="fill:#a04e34;fill-opacity:1;fill-rule:nonzero;stroke:none"
         d="m 5819.29,11934.8 -176.86,-10 -40.04,-36.7 25.02,68.4 191.88,-21.7" /><path
         id="path168"
         style="fill:#100f0d;fill-opacity:1;fill-rule:nonzero;stroke:none"
         d="m 4577.93,9849.2 413.79,94.9 c 0,0 -323.68,-151.6 -333.7,-165 -10.01,-13.3 51.04,-239.6 51.04,-239.6 l -114.44,174.6 -16.69,135.1" /><path
         id="path170"
         style="fill:#c37140;fill-opacity:1;fill-rule:nonzero;stroke:none"
         d="m 4814.86,12484.1 c 0,0 125.14,-132.2 140.15,-527.6 15.02,-395.4 -220.23,-570.6 -220.23,-570.6 0,0 6.67,-228.6 -133.49,-525.6 -140.15,-297 -196.88,-397.1 -196.88,-397.1 0,0 -20.02,-246.9 -133.47,-650.7 -113.46,-403.8 -133.48,-827.6 -133.48,-827.6 0,0 -263.62,20.1 -263.62,33.4 0,13.4 -43.39,971.1 -36.71,1114.6 6.67,143.5 86.76,286.7 96.77,348.6 10.01,61.8 63.4,175.3 70.08,188.6 6.67,13.4 0,320.4 50.05,580.7 50.06,260.2 156.84,457.1 156.84,457.1 0,0 -3.35,372.1 185.2,566.5 188.54,194.3 418.79,209.7 418.79,209.7" /><path
         id="path172"
         style="fill:#a04e34;fill-opacity:1;fill-rule:nonzero;stroke:none"
         d="m 4604.63,11317.5 130.15,68.4 c 0,0 182.27,135.9 215.64,438.2 -99.33,-307.3 -345.79,-506.6 -345.79,-506.6" /><path
         id="path174"
         style="fill:#e0895e;fill-opacity:1;fill-rule:nonzero;stroke:none"
         d="m 4008.21,10750.3 c 0.02,0.1 43.33,282.8 83.36,505.5 40.05,222.7 125.14,357.8 125.14,357.8 l 37.54,-95.1 c 0,0 -17.52,220.3 27.53,420.5 29.45,130.9 69.24,247.1 93.26,312 -167.23,-199.3 -164.17,-543.1 -164.17,-543.1 0,0 -106.78,-196.9 -156.84,-457.1 -35.25,-183.4 -42.36,-389.7 -45.82,-500.5" /><path
         id="path176"
         style="fill:#b2b5b7;fill-opacity:1;fill-rule:nonzero;stroke:none"
         d="m 4777.52,11426 c 0,0 62.37,-97.7 154.97,-155.2 92.6,-57.6 155.17,-82.6 155.17,-82.6 0,0 -130.98,-4.2 -222.74,57.5 -91.77,61.8 -130.14,140.2 -130.14,140.2 l 42.74,40.1" /><path
         id="path178"
         style="fill:#b2b5b7;fill-opacity:1;fill-rule:nonzero;stroke:none"
         d="m 5662.45,11093.9 -134.61,6.7 106.87,-38.7 z" /><path
         id="path180"
         style="fill:#b0b0ae;fill-opacity:1;fill-rule:nonzero;stroke:none"
         d="m 1688.96,8462.7 c 0,0 -40.04,-45 0,-140.1 l 6947.56,500.5 c 0,0 55.06,85.1 -15.01,130.1 L 1688.96,8462.7" /><path
         id="path182"
         style="fill:#c37140;fill-opacity:1;fill-rule:nonzero;stroke:none"
         d="m 4137.46,8984.9 c 0,0 41.71,-144.3 76.75,-224.4 35.04,-80.1 41.29,-115.1 41.29,-131.4 0,-16.2 -45.46,-202.7 -59.02,-216.4 -13.56,-13.8 -52.35,0 -52.35,0 0,0 -21.27,-20.1 -40.04,-25.1 -18.77,-5 -58.82,10 -58.82,10 0,0 -37.54,-15.8 -57.56,-11 -20.02,4.8 -40.04,18.5 -40.04,18.5 0,0 -48.81,-8.7 -81.34,-1.2 -32.54,7.5 -45.05,10 -45.05,18.8 0,8.7 23.78,174.1 22.43,183.2 -1.35,9.2 -5.89,320.9 30.13,412.4 36.01,91.5 136.81,103.8 136.81,103.8 l 126.81,-137.2" /><path
         id="path184"
         style="fill:#a04e34;fill-opacity:1;fill-rule:nonzero;stroke:none"
         d="m 3986.46,8565.3 -38.79,-160.2 24.2,-13.1 z" /><path
         id="path186"
         style="fill:#a04e34;fill-opacity:1;fill-rule:nonzero;stroke:none"
         d="m 4045.27,8397.6 40.05,160.2 -20.02,-166.4 z" /><path
         id="path188"
         style="fill:#a04e34;fill-opacity:1;fill-rule:nonzero;stroke:none"
         d="m 4144.13,8412.7 46.3,145.1 -23.15,-150.6 z" /><path
         id="path190"
         style="fill:#ececec;fill-opacity:1;fill-rule:nonzero;stroke:none"
         d="m 5950.76,7216.6 c -108.61,-18.1 -234.87,-24.8 -338.54,-26.8 18.27,-157.9 26.22,-298.6 36.88,-307.1 16.69,-13.4 200.22,46.7 200.22,46.7 l 103.45,16.7 c 0,0 -2.76,112.9 -2.01,270.5" /><path
         id="path192"
         style="fill:#ececec;fill-opacity:1;fill-rule:nonzero;stroke:none"
         d="m 4254.25,7157.4 c -87.16,-14 -184.98,-20.9 -273.11,-24 l 142.97,-307.5 h 140.15 c 0,0 -10.08,148.7 -10.01,331.5" /><path
         id="path194"
         style="fill:#878888;fill-opacity:1;fill-rule:nonzero;stroke:none"
         d="M 799.473,7651.6 V 6302.4 L 2427.09,5659.9 V 7148.3 L 799.473,7651.6" /><path
         id="path196"
         style="fill:#959595;fill-opacity:1;fill-rule:nonzero;stroke:none"
         d="M 4193.7,7416 4236.75,5924 2427.09,5659.9 V 7148.3 L 4193.7,7416" /><path
         id="path198"
         style="fill:#b0b0ae;fill-opacity:1;fill-rule:nonzero;stroke:none"
         d="M 799.473,7651.6 2587.71,7860.4 4193.7,7416 2427.09,7148.3 799.473,7651.6" /><path
         id="path200"
         style="fill:#878888;fill-opacity:1;fill-rule:nonzero;stroke:none"
         d="M 6787.78,8066.4 V 6893.5 l 1836.67,-509.9 v 1348.8 l -1836.67,334" /><path
         id="path202"
         style="fill:#959595;fill-opacity:1;fill-rule:nonzero;stroke:none"
         d="M 9650.13,7907.4 V 6578.1 L 8624.45,6383.6 v 1348.8 l 1025.68,175" /><path
         id="path204"
         style="fill:#b0b0ae;fill-opacity:1;fill-rule:nonzero;stroke:none"
         d="m 6787.78,8066.4 1160.84,166.9 1701.51,-325.9 -1025.68,-175 -1836.67,334" /><path
         id="path206"
         style="fill:#c37140;fill-opacity:1;fill-rule:nonzero;stroke:none"
         d="m 6216.39,9171.8 c 0,0 -81.76,-233.6 -85.1,-248.6 -3.33,-15 -8.69,-146.8 -8.69,-146.8 l 150.47,10.7 c 0,0 36.75,-40.7 33.41,-77.5 -3.33,-36.7 -108.41,-62.2 -108.41,-62.2 0,0 65.87,-47 98.4,-49.5 32.54,-2.5 62.57,16.2 62.57,16.2 0,0 39.04,-16.2 60.19,-7.5 21.15,8.8 36.17,16.3 36.17,16.3 0,0 58.81,-3.8 86.34,2.5 27.53,6.2 48.99,23.7 56.31,37.5 7.33,13.9 7.51,177.7 6.26,194 -1.25,16.3 -185.08,314.9 -185.08,314.9 0,0 -58.94,36.7 -80.21,36.7 -21.27,0 -122.63,-36.7 -122.63,-36.7" /><path
         id="path208"
         style="fill:#a04e34;fill-opacity:1;fill-rule:nonzero;stroke:none"
         d="m 6397.84,8769.3 c -1.61,4.7 -7.51,-96.4 -38.8,-155.2 l 26.45,-8 c 0,0 34.87,96.9 12.35,163.2" /><path
         id="path210"
         style="fill:#a04e34;fill-opacity:1;fill-rule:nonzero;stroke:none"
         d="m 6474.17,8769.5 c -1.25,-2.7 -18.77,-146.6 -18.77,-146.6 h 27.53 l -8.76,146.6" /><path
         id="path212"
         style="fill:#a04e34;fill-opacity:1;fill-rule:nonzero;stroke:none"
         d="m 6550.5,8775.5 -26.43,-152.6 17.67,2.5 z" /><path
         id="path214"
         style="fill:#272626;fill-opacity:1;fill-rule:nonzero;stroke:none"
         d="m 3850.97,8546.3 c -27.28,277.6 -139.49,517.9 -295.05,673.8 -0.05,0.1 -0.1,0.2 -0.15,0.2 -254.29,294.3 -682.03,192.1 -682.03,192.1 l -175.01,-126.9 c 0,0 -4.47,-53.4 -10.05,-141.2 -126.69,-183.8 -192.83,-445.7 -165.05,-728.4 20.2,-205.6 87,-390.7 183.49,-536.3 27.06,-155.1 70.49,-266.9 137.94,-292 183.39,-68.1 364.57,-48.5 467.61,-26.8 29.72,5 58.63,12.9 86.65,23.2 h 0.02 v 0 c 300.03,110.5 496.08,509.9 451.63,962.3" /><path
         id="path216"
         style="fill:#39393a;fill-opacity:1;fill-rule:nonzero;stroke:none"
         d="m 3628.31,8552.6 c 50.2,-510.8 -206.23,-954.1 -572.77,-990.2 -366.53,-36 -704.37,348.9 -754.57,859.8 -50.21,510.8 206.23,954.2 572.77,990.2 366.53,36 704.36,-348.9 754.57,-859.8" /><path
         id="path218"
         style="fill:#58595b;fill-opacity:1;fill-rule:nonzero;stroke:none"
         d="m 3165.2,8484.4 c 9.64,-109.6 -51.72,-204.5 -137.06,-212 -85.34,-7.5 -162.34,75.2 -171.98,184.8 -9.65,109.6 51.72,204.5 137.05,212 85.34,7.5 162.34,-75.2 171.99,-184.8" /><path
         id="path220"
         style="fill:#b0b0ae;fill-opacity:1;fill-rule:nonzero;stroke:none"
         d="m 2997.05,8416.8 c 24.97,86.2 -12.94,134.1 -15.59,137.4 l -1292.5,-91.5 c 0,0 -40.05,-45 0,-140.1 l 1308.09,94.2 v 0" /><path
         id="path222"
         style="fill:#272626;fill-opacity:1;fill-rule:nonzero;stroke:none"
         d="m 8348.98,8874.9 c -21.69,244.8 -123.41,458.1 -266.88,597.6 -0.04,0 -0.08,0.1 -0.13,0.1 -233.97,262.9 -635.76,179.2 -635.76,179.2 l -165.57,-109.2 c 0,0 -4.92,-46.9 -11.36,-124.2 -121.12,-159.9 -186.64,-389.6 -164.53,-638.8 16.07,-181.3 76.05,-345.3 164.35,-474.9 23.2,-136.9 62.31,-236 125.1,-259 170.72,-62.8 340.59,-48.1 437.32,-30.6 27.9,4.1 55.07,10.6 81.44,19.2 h 0.01 v 0 c 282.36,92.9 471.4,441.7 436.01,840.6" /><path
         id="path224"
         style="fill:#39393a;fill-opacity:1;fill-rule:nonzero;stroke:none"
         d="m 8140.65,8883.8 c 39.95,-450.5 -206.2,-837.1 -549.78,-863.4 -343.59,-26.4 -654.51,317.5 -694.45,768 -39.95,450.5 206.2,837 549.79,863.4 343.58,26.3 654.5,-317.5 694.44,-768" /><path
         id="path226"
         style="fill:#58595b;fill-opacity:1;fill-rule:nonzero;stroke:none"
         d="m 7665.41,8826.3 c 7.51,-96.6 -51.23,-179.3 -131.22,-184.6 -79.98,-5.4 -150.91,68.6 -158.43,165.2 -7.52,96.6 51.23,179.3 131.22,184.7 79.98,5.3 150.92,-68.7 158.43,-165.3" /><path
         id="path228"
         style="fill:#b0b0ae;fill-opacity:1;fill-rule:nonzero;stroke:none"
         d="m 7525.04,8743 c 26.01,73.9 -12.27,131.8 -12.27,131.8 v 0 l -663.19,-46.9 v -133.5 l 675.46,48.6 v 0" /><path
         id="path230"
         style="fill:#2f1d16;fill-opacity:1;fill-rule:nonzero;stroke:none"
         d="m 6223.49,13447.3 c -124.16,110.3 -276.48,127 -359.14,124.4 -82.66,-2.5 -220.05,-22.5 -220.06,-22.5 -35.77,-6.1 -72.53,-14 -97.28,-31.7 -39.58,-28.3 -52.51,-61 -52.51,-61 0,0 -116.85,5.2 -161.06,-148.2 -44.21,-153.3 -30.45,-286.6 -14.38,-380.8 16.07,-94.2 103.94,-276.6 103.94,-276.6 l 192.08,169.2 c 94.12,-68.2 215.66,235.8 208.02,264.7 -4.85,18.4 329.04,23.7 329.04,23.7 l 82.1,21.8 c 0,0 55.74,91.6 34.71,208.5 -6.6,36.7 -24.3,74.2 -45.46,108.5" /><path
         id="path232"
         style="fill:#c37140;fill-opacity:1;fill-rule:nonzero;stroke:none"
         d="m 6204.54,13195.1 c 0,0 25.15,-47.2 29.7,-64.8 4.54,-17.6 -14.72,-166.9 -18.55,-204.9 -3.83,-38 -22,-87.3 -25.03,-105.5 -3.03,-18.1 -19.17,-130 -31.28,-172.9 -12.11,-42.8 -88.85,-204.4 -112.07,-246.6 -23.22,-42.2 -56.14,-97.8 -79.97,-106.3 -23.83,-8.4 -120.39,2.6 -200.99,42.2 -80.6,39.6 -227.87,180 -262.82,246.8 -34.96,66.9 -8.32,189.5 -8.32,189.5 0,0 -36.75,-3.9 -67.07,38.6 -30.3,42.4 -75.35,130.8 -48.71,216.1 26.66,85.2 88.07,42.6 116.15,1.8 28.08,-40.8 20.42,-94.3 27.49,-96.7 7.07,-2.5 14.74,-1.2 18.58,-0.6 3.84,0.6 35.74,87.4 39.98,105.4 4.23,18 18.76,127.7 21.79,130.9 3.03,3.2 111.48,97.3 142.39,103.3 30.9,6.1 458.73,-76.3 458.73,-76.3" /><path
         id="path234"
         style="fill:#2f1d16;fill-opacity:1;fill-rule:nonzero;stroke:none"
         d="m 5551.7,12952.7 c 0,0 21.3,55.6 45.13,86.6 23.82,31.1 15.58,53.7 26.89,90.6 11.3,36.9 64.15,38.4 83.09,85.5 18.94,47.1 66.07,54.7 66.07,54.7 0,0 -38.11,48.2 -44.2,45.2 -6.09,-3 -113.38,-22.2 -149.45,-57 -36.08,-34.7 -67.78,-22.3 -63.9,-92.1 3.87,-69.7 36.37,-213.5 36.37,-213.5" /><path
         id="path236"
         style="fill:#2f1d16;fill-opacity:1;fill-rule:nonzero;stroke:none"
         d="m 5450.45,13435.9 c 0,0 61.16,79.9 105.26,99.2 44.11,19.3 112.21,47.3 112.21,47.3 0,0 64.81,26.1 101.28,21.4 36.48,-4.6 72.38,-14.3 72.38,-14.3 0,0 50.61,25.7 102.72,9.3 52.11,-16.3 63.22,-30.2 73.65,-34.2 10.44,-4 51.41,8.5 97.63,-13 46.21,-21.4 58.47,-51.7 67.13,-55.8 8.67,-4 51.15,-18.4 70.64,-40.7 19.51,-22.3 32.73,-36.2 30.43,-64.3 -2.3,-28 23.67,-47.3 31.15,-76.5 7.48,-29.2 -11.18,-41.6 -21.72,-71.9 -10.54,-30.2 -24.16,-69.5 -58.97,-112.1 0,0 2.86,97.2 0.42,99.5 -2.44,2.3 -203.55,108.8 -203.55,108.8 0,0 -423.26,37.9 -433.08,38.2 -9.81,0.3 -147.58,59.1 -147.58,59.1" /></g></g></svg>