<?xml version="1.0" encoding="UTF-8" standalone="no"?>
<svg
   xmlns:dc="http://purl.org/dc/elements/1.1/"
   xmlns:cc="http://creativecommons.org/ns#"
   xmlns:rdf="http://www.w3.org/1999/02/22-rdf-syntax-ns#"
   xmlns:svg="http://www.w3.org/2000/svg"
   xmlns="http://www.w3.org/2000/svg"
   viewBox="0 0 2666.6667 2666.6667"
   height="2666.6667"
   width="2666.6667"
   xml:space="preserve"
   id="svg2"
   version="1.1"><metadata
     id="metadata8"><rdf:RDF><cc:Work
         rdf:about=""><dc:format>image/svg+xml</dc:format><dc:type
           rdf:resource="http://purl.org/dc/dcmitype/StillImage" /></cc:Work></rdf:RDF></metadata><defs
     id="defs6" /><g
     transform="matrix(1.3333333,0,0,-1.3333333,0,2666.6667)"
     id="g10"><g
       transform="scale(0.1)"
       id="g12"><g
         transform="scale(1.22699)"
         id="g14"><path
           id="path16"
           style="fill:none;fill-opacity:1;fill-rule:nonzero;stroke:none"
           d="M 16300,0 H 0 V 16300 H 16300 V 0" /></g><g
         transform="scale(1.17854)"
         id="g18"><path
           id="path20"
           style="fill:#989d9e;fill-opacity:1;fill-rule:nonzero;stroke:none"
           d="m 15612.6,11134.2 665.8,-105.2 c 0,0 21.6,35.3 5.7,71.6 l -646.7,105.7 -24.8,-72.1" /></g><g
         transform="scale(1.16406)"
         id="g22"><path
           id="path24"
           style="fill:#1d1b1a;fill-opacity:1;fill-rule:nonzero;stroke:none"
           d="m 16017.5,10832.8 c 121.3,59.7 220.7,206.2 248.8,388.7 33.7,218.4 -45.7,418.3 -183,491.4 -158.3,96.7 -311.2,39.8 -311.2,39.8 l -13,-46.4 c 0,0 -13.3,-34.1 -32.1,-88.7 -63.6,-74 -110.9,-176.2 -128.9,-293.2 -12.2,-79.6 -9.5,-156.6 5.5,-226 -7.8,-113.1 8.2,-206.2 70.7,-239.3 86.8,-45.8 162,-57.3 219.7,-55.4 34,-0.5 67.7,6 100.1,18.7 15.2,5.6 23.4,10.4 23.4,10.4" /></g><g
         transform="scale(1.15686)"
         id="g26"><path
           id="path28"
           style="fill:#343434;fill-opacity:1;fill-rule:nonzero;stroke:none"
           d="m 16260.1,11317.5 c -39.9,-259.2 -222.7,-446.1 -408.4,-417.6 -185.7,28.6 -303.9,261.9 -264,521.1 39.9,259.2 222.7,446.2 408.5,417.6 185.6,-28.6 303.8,-261.9 263.9,-521.1" /></g><g
         transform="scale(1.12238)"
         id="g30"><path
           id="path32"
           style="fill:#252323;fill-opacity:1;fill-rule:nonzero;stroke:none"
           d="m 15724.8,5773.09 c 0,0 -85.2,-64.42 -85.2,-72.17 0,-7.75 -31,-261.41 0,-280.74 30.9,-19.43 151,-19.43 189.8,-36.8 38.7,-17.46 214.9,-89.1 342.7,-71.72 127.9,17.46 102.7,106.56 79.4,156.9 -23.2,50.34 -236.3,211.06 -255.6,251.78 -19.3,40.63 -29,83.22 -34.8,94.89 -5.8,11.58 -74.2,19.96 -74.2,19.96 0,0 -105.4,18.71 -114.4,12.92 -8.9,-5.79 -47.7,-75.02 -47.7,-75.02" /></g><g
         transform="scale(1.04157)"
         id="g34"><path
           id="path36"
           style="fill:#252323;fill-opacity:1;fill-rule:nonzero;stroke:none"
           d="m 15842.9,6049.33 -66.7,-37.35 c 0,0 -64.7,-292.35 -58.5,-325.76 6.2,-33.41 81.4,-54.24 91.9,-64.71 10.4,-10.37 8.2,-98.02 185.7,-135.66 177.4,-37.54 304.7,23.04 288,114.83 -16.7,91.78 -158.6,250.39 -169.1,298.39 -10.4,48.01 -2.1,150.26 -12.5,171.19 -10.4,20.83 -59.1,53.47 -59.1,53.47 0,0 -105.5,61.26 -119.1,48.78 -13.8,-12.58 -80.6,-123.18 -80.6,-123.18" /></g><g
         transform="scale(1.05748)"
         id="g38"><path
           id="path40"
           style="fill:#c37140;fill-opacity:1;fill-rule:nonzero;stroke:none"
           d="m 15749.2,7777.46 c -2.8,-8.22 -68.5,-416.65 -68.5,-416.65 0,0 -148,-243.88 -169.9,-375.42 -22,-131.54 41.1,-433.01 62.9,-649.56 22,-216.46 -16.4,-479.54 -16.4,-479.54 0,0 53,-8.23 70.3,16.45 17.4,24.59 36.6,131.54 44.9,137.03 8.2,5.48 128.8,21.84 128.8,21.84 0,0 38.3,465.92 109.6,655.05 71.3,189.13 57.6,383.65 57.6,383.65 0,0 57.5,82.27 87.6,147.99 30.2,65.82 52.1,153.48 52.1,153.48 0,0 131.6,115.18 161.7,290.5 30.1,175.42 -520.7,115.18 -520.7,115.18" /></g><g
         transform="scale(1.0961)"
         id="g42"><path
           id="path44"
           style="fill:#c37140;fill-opacity:1;fill-rule:nonzero;stroke:none"
           d="m 15799.7,7512.97 c 0,0 7.9,-260.83 37,-337.47 29,-76.72 47.6,-166.59 47.6,-166.59 0,0 -10.6,-261.74 23.8,-341.11 34.4,-79.29 126.9,-639.81 140.1,-750.84 13.2,-111.03 13.2,-111.03 13.2,-111.03 0,0 26.5,-29.11 39.7,-23.82 13.2,5.3 63.4,55.47 63.4,55.47 0,0 10.6,89.96 37.1,108.48 26.4,18.43 66.1,29.01 66.1,29.01 0,0 18.4,542.01 0,705.96 -18.5,163.94 -37,364.93 -23.8,454.79 13.2,89.86 56.1,380.71 32,425.69 -24.1,44.97 -270,23.81 -285.9,21.16 -15.8,-2.64 -190.3,-69.7 -190.3,-69.7" /></g><g
         transform="scale(1.10423)"
         id="g46"><path
           id="path48"
           style="fill:#252323;fill-opacity:1;fill-rule:nonzero;stroke:none"
           d="m 15289.7,8870.59 c 0,0 -119.4,-162.64 -139.1,-249.31 -19.7,-86.58 -35.5,-464.49 -47.3,-515.74 -11.7,-51.17 -86.5,-700.76 -86.5,-700.76 0,0 226.3,-70.82 411.3,-82.68 185.1,-11.78 185.1,-11.78 185.1,-11.78 l 27.5,70.82 51.2,-43.29 c 0,0 175.2,-3.89 301.2,2 126,5.88 269.7,49.17 269.7,49.17 0,0 -27.6,273.68 0,435.05 27.5,161.38 7.8,527.52 7.8,572.8 0,45.28 29.4,147.61 6.9,216.53 -22.6,68.92 -121.8,257.19 -121.8,257.19 0,0 -528.7,81.42 -576,71.54 -47.3,-9.87 -290,-71.54 -290,-71.54" /></g><g
         transform="scale(1.07437)"
         id="g50"><path
           id="path52"
           style="fill:#100f0d;fill-opacity:1;fill-rule:nonzero;stroke:none"
           d="m 16300,8158.89 -95.1,-38.44 -118.6,-376.31 -10.9,-157.86 52.6,-44.5 91,534.18 81,82.93" /></g><g
         transform="scale(1.10229)"
         id="g54"><path
           id="path56"
           style="fill:#c37140;fill-opacity:1;fill-rule:nonzero;stroke:none"
           d="m 16021.3,10043.1 c 28.9,5.3 181.4,-21 181.4,-21 0,0 -21,199.8 -26.3,307.6 -5.2,107.8 39.4,170.9 57.8,365.5 18.4,194.5 15.8,411.5 18.4,455.5 2.7,44 47.4,145.8 47.4,367 0,221.3 0,355.3 0,355.3 h -165.7 c 0,0 -5.2,-173.5 -55.2,-307.6 -49.9,-134.1 -63.1,-241.9 -76.2,-320.7 -13.2,-78.9 -71,-152.5 -126.2,-326.1 -55.2,-173.5 -184.1,-402.2 -189.3,-489 -5.3,-86.7 86.3,-283.9 166.7,-318.1 80.4,-34.2 167.2,-68.4 167.2,-68.4" /></g><g
         transform="scale(1.07824)"
         id="g58"><path
           id="path60"
           style="fill:#a45330;fill-opacity:1;fill-rule:nonzero;stroke:none"
           d="m 16269.3,11280.7 c 0,0 30.7,-133.3 28.7,-147.4 -2.1,-14.1 -32.3,-284.8 -36.3,-289.6 -4.1,-4.7 -44.4,-104.4 -44.4,-104.4 0,0 -48.8,-94.2 -68.5,-63.6 -19.7,30.5 -107.2,101.2 -82.6,193.5 24.5,92.3 82.6,131 92.6,208.6 10.2,77.7 110.5,202.9 110.5,202.9" /></g><g
         transform="scale(1.09091)"
         id="g62"><path
           id="path64"
           style="fill:#a45330;fill-opacity:1;fill-rule:nonzero;stroke:none"
           d="m 16108.7,10400.3 c 0,23.9 51.7,225.8 51.7,225.8 l 139.6,270 -108.9,-291.3 -30.7,-255 -51.7,50.5" /></g><g
         transform="scale(1.09571)"
         id="g66"><path
           id="path68"
           style="fill:#e9eef1;fill-opacity:1;fill-rule:nonzero;stroke:none"
           d="m 15530.8,10707.8 c 0,0 -41.9,-19.8 -60.9,-23.8 -18.9,-3.9 -138,-47.6 -138,-47.6 l -154.6,-785.53 c 0,0 46.2,-152.1 101.8,-231.44 55.5,-79.35 87.3,-193.08 89.9,-222.18 2.6,-29.09 39.7,-457.62 39.7,-457.62 0,0 97.8,-31.67 312,-52.84 214.3,-21.18 560.8,52.84 560.8,52.84 0,0 2.6,600.45 0,655.99 -2.6,55.55 18.5,486.68 18.5,486.68 0,0 -111.1,137.5 -211.6,280.4 -100.4,142.8 -238,396.7 -238,396.7 l -319.6,-51.6" /></g><g
         transform="scale(1.07264)"
         id="g70"><path
           id="path72"
           style="fill:#c37140;fill-opacity:1;fill-rule:nonzero;stroke:none"
           d="m 15802.6,11081.7 v -167.9 c 0,0 64.4,-50.7 181.5,-174.3 117.3,-123.6 145.7,-206.7 202.4,-222.9 56.7,-16.2 62.9,-12.1 81.1,-26.3 18.2,-14.2 32.4,-12.2 20.3,99.3 -12.2,111.4 -74.6,255.3 -74.6,255.3 0,0 -36.9,192.5 -77.5,222.9 -40.4,30.4 -109.3,44.6 -162,85.1 -52.8,40.5 -155.9,135.8 -171.2,121.6 -15.3,-14.2 -57.9,-32.4 -37.5,-70.9 20.2,-38.5 37.5,-121.9 37.5,-121.9" /></g><g
         transform="scale(1.06693)"
         id="g74"><path
           id="path76"
           style="fill:#a45330;fill-opacity:1;fill-rule:nonzero;stroke:none"
           d="m 15949.6,11195.2 c 0,0 9.8,-123.6 65.1,-187.2 55.4,-63.7 238.3,-88.5 238.3,-88.5 l 47,-99.8 v 139 l -38.8,119 -311.6,117.5" /></g><g
         transform="scale(1.08971)"
         id="g78"><path
           id="path80"
           style="fill:#a45330;fill-opacity:1;fill-rule:nonzero;stroke:none"
           d="m 16187.7,11374.5 c 0,0 36.5,-37.2 112.3,-25.3 0,0 -44,-52.5 -121.8,-12.3 l 9.5,37.6" /></g><g
         transform="scale(1.0497)"
         id="g82"><path
           id="path84"
           style="fill:#c37140;fill-opacity:1;fill-rule:nonzero;stroke:none"
           d="m 15308.2,12675.3 195.7,35.2 c 0,0 210.1,-559.5 226.7,-615.7 16.6,-56.2 33.1,-209.5 33.1,-209.5 0,0 145,-260.3 169.8,-339.3 24.9,-79 38.4,-292.2 46.1,-302.6 7.7,-10.3 148.5,-104.9 148.5,-104.9 0,0 109.8,-124.9 140.8,-267.8 31.1,-142.9 12.5,-412.1 -68.3,-521.8 -80.7,-109.8 -312.6,-101.5 -358.2,-66.3 l -68.4,241.6 c 0,0 -95.1,147.7 -111.7,251.2 -16.6,103.6 -111.8,670.9 -122.2,811.7 -10.3,140.8 -16.6,203 -16.6,203 0,0 -107.7,107.6 -132.5,273.3 -24.8,165.7 -82.8,611.9 -82.8,611.9" /></g><g
         transform="scale(1.01103)"
         id="g86"><path
           id="path88"
           style="fill:#a45330;fill-opacity:1;fill-rule:nonzero;stroke:none"
           d="m 16164.6,12292.6 c -7.3,2.7 78.5,10.3 135.4,68.8 0,0 -18.1,-112.7 -135.4,-68.8" /></g><g
         transform="scale(1.03079)"
         id="g90"><path
           id="path92"
           style="fill:#a45330;fill-opacity:1;fill-rule:nonzero;stroke:none"
           d="m 16300,7630.16 c 0,0 -45.3,-95.56 0,-177.15 0,0 -121.3,106.81 0,177.15" /></g><g
         transform="scale(1.08984)"
         id="g94"><path
           id="path96"
           style="fill:#a45330;fill-opacity:1;fill-rule:nonzero;stroke:none"
           d="m 16289.4,7333.74 c 0,0 -26.7,-63.87 -109,-116.99 0,0 119.6,-18.63 109,116.99" /></g><g
         transform="scale(1.02572)"
         id="g98"><path
           id="path100"
           style="fill:#dad9d8;fill-opacity:1;fill-rule:nonzero;stroke:none"
           d="m 16062,6317.14 c -4.4,-152.09 -23,-279.51 -23,-279.51 0,0 54.7,-8.49 72.5,16.96 18,25.35 37.8,135.61 46.3,141.26 8.4,5.66 132.7,22.53 132.7,22.53 0,0 3.3,38.8 9.5,98.76 h -238" /></g><g
         transform="scale(1.0941)"
         id="g102"><path
           id="path104"
           style="fill:#dad9d8;fill-opacity:1;fill-rule:nonzero;stroke:none"
           d="m 16060.2,6047.41 c 8.4,-53.83 14.6,-96.52 17.3,-119.64 13.3,-111.23 13.3,-111.23 13.3,-111.23 0,0 26.5,-29.16 39.7,-23.86 13.3,5.31 63.6,55.57 63.6,55.57 0,0 10.6,90.12 37.1,108.68 26.5,18.46 66.2,29.06 66.2,29.06 0,0 1.1,34 2.6,87.47 l -239.8,-26.05" /></g><g
         transform="scale(1.13775)"
         id="g106"><path
           id="path108"
           style="fill:#d3d4d1;fill-opacity:1;fill-rule:nonzero;stroke:none"
           d="m 16283,11542.7 c -17,-71.1 -80.5,-117 -141.7,-102.3 -61.4,14.6 -97.3,84.1 -80.4,155.3 17,71.1 80.5,116.9 141.8,102.3 61.4,-14.6 97.3,-84.2 80.3,-155.3" /></g><path
         id="path110"
         style="fill:#b05e39;fill-opacity:1;fill-rule:nonzero;stroke:none"
         d="m 15969,13687.8 c 6.2,-0.1 38,4.3 80.4,0 42.4,-4.4 152.2,-17.9 182.6,-23.6 30.4,-5.8 39.1,-26.4 39.1,-26.4 0,0 -13.8,-44.2 -21,-56.9 -7.2,-12.6 -110.5,-33.3 -161.5,-17 -51.1,16.3 -169.6,19.6 -178.3,35.9 -8.7,16.3 58.7,88 58.7,88" /><g
         transform="scale(1.13004)"
         id="g112"><path
           id="path114"
           style="fill:#989d9e;fill-opacity:1;fill-rule:nonzero;stroke:none"
           d="m 13631.1,12060.5 2637.2,-443.2 c 0,0 31.7,38.5 8.7,79.9 l -2636.9,446 -9,-82.7" /></g><g
         transform="scale(1.10122)"
         id="g116"><path
           id="path118"
           style="fill:#b05e39;fill-opacity:1;fill-rule:nonzero;stroke:none"
           d="m 16067.1,12137.2 c 0,0 23.7,5.3 55.3,5.3 31.5,0 110.5,-19.1 123.7,-26.7 13.1,-7.5 47.6,-33.1 48.2,-43.4 0.4,-10.2 5.7,-31.3 -87.7,-19.4 -93.5,11.8 -88.2,2.6 -121.1,21 -32.9,18.5 -18.4,63.2 -18.4,63.2" /></g><g
         transform="scale(1.00323)"
         id="g120"><path
           id="path122"
           style="fill:#c37140;fill-opacity:1;fill-rule:nonzero;stroke:none"
           d="m 16222,13299.3 c 0,0 58.6,143 68.3,193.9 9.7,50.9 -57.4,115.2 -60.7,115.6 -3.3,0.3 -91,-0.4 -100.8,0 -9.6,0.3 -15.1,-29 -10.7,-34.4 4.3,-5.4 53.5,-32.8 53.5,-32.8 0,0 -54.6,-21.3 -69.8,-28.9 -15.2,-7.6 -47.1,-45.4 -47.1,-45.4 l -147.1,24.8 -14.9,-64.5 92.1,-120.7 32.5,-44.5 c 0,0 78,-19.5 100.8,-17.3 22.7,2.2 103.9,54.2 103.9,54.2" /></g><g
         transform="scale(1.10229)"
         id="g124"><path
           id="path126"
           style="fill:#c37140;fill-opacity:1;fill-rule:nonzero;stroke:none"
           d="m 16134.3,11873 c 0,0 -13.1,14.5 -74.9,36.9 -61.8,22.3 -102.5,50.7 -110.4,60.1 -7.9,9.5 -22.8,66.2 -22.8,66.2 l 76.1,-12.8 c 0,0 -8.3,85.5 -8.8,85.5 -0.4,0.1 16.8,71.9 36.8,70.5 19.9,-1.4 46.2,-63.1 46.2,-63.1 0,0 31.5,-29 57.8,-50 26.4,-21 55.7,-74.5 55.7,-74.5 l 110,-18.4 V 11873 c 0,0 -96,-57.8 -109.1,-47.3 -13.2,10.5 -56.6,47.3 -56.6,47.3" /></g><g
         transform="scale(1.04741)"
         id="g128"><path
           id="path130"
           style="fill:#a45330;fill-opacity:1;fill-rule:nonzero;stroke:none"
           d="m 15942.1,10846 c 0,0 163.2,-232.4 175.6,-242.1 12.5,-9.7 165.1,-132.5 165.1,-132.5 l 17.2,68.4 -160.8,107 -197.1,199.2" /></g><path
         id="path132"
         style="fill:#1d1b1a;fill-opacity:1;fill-rule:nonzero;stroke:none"
         d="m 15607.5,13021 c 169.5,79.7 311,279.9 354.6,532 52.1,301.5 -52.6,580.3 -240.9,685.1 -216.6,138 -429.8,63.2 -429.8,63.2 l -19.2,-64 c 0,0 -19.3,-46.9 -46.7,-121.9 -90,-100.9 -158.2,-241.2 -186.1,-402.8 -19,-109.8 -17.2,-216.6 1.9,-313.1 -13.8,-156.4 5.8,-285.8 91.7,-333.2 118.9,-65.6 222.7,-83.4 302.7,-82.3 47.1,-1.6 93.9,6.6 139.1,23.3 21.2,7.4 32.7,13.7 32.7,13.7" /><path
         id="path134"
         style="fill:#434244;fill-opacity:1;fill-rule:nonzero;stroke:none"
         d="m 15814.9,13591.8 c -61.5,-355.7 -318,-608.3 -572.8,-564.2 -254.8,44 -411.4,368.1 -349.9,723.8 61.5,355.7 318,608.3 572.8,564.2 254.8,-44.1 411.5,-368.2 349.9,-723.8" /><path
         id="path136"
         style="fill:#343434;fill-opacity:1;fill-rule:nonzero;stroke:none"
         d="m 15814.9,13591.8 c -55.8,-322.7 -288.5,-551.9 -519.6,-511.9 -231.2,40 -373.3,334 -317.5,656.7 55.8,322.7 288.5,551.8 519.7,511.8 231.1,-40 373.2,-334 317.4,-656.6" /><path
         id="path138"
         style="fill:#d3d4d1;fill-opacity:1;fill-rule:nonzero;stroke:none"
         d="m 15499.6,13648.8 c -12.4,-57.4 -64.1,-94.9 -115.5,-83.8 -51.4,11.1 -82.9,66.7 -70.5,124.1 12.5,57.4 64.2,95 115.6,83.8 51.3,-11.1 82.9,-66.7 70.4,-124.1" /><path
         id="path140"
         style="fill:#989d9e;fill-opacity:1;fill-rule:nonzero;stroke:none"
         d="m 15413.9,13722.4 -900.6,125.3 -10.1,-85.6 900.5,-133.2 c 39.4,42.5 10.2,93.5 10.2,93.5" /><path
         id="path142"
         style="fill:#d3d4d1;fill-opacity:1;fill-rule:nonzero;stroke:none"
         d="m 14543,13800.8 c -2.7,-23.6 -20.6,-40.9 -39.8,-38.7 -19.2,2.3 -32.5,23.3 -29.8,46.9 2.8,23.6 20.6,41 39.9,38.7 19.2,-2.2 32.5,-23.2 29.7,-46.9" /><g
         transform="scale(1.07391)"
         id="g144"><path
           id="path146"
           style="fill:#2f1d16;fill-opacity:1;fill-rule:nonzero;stroke:none"
           d="m 16273,11713.2 c -8.2,13.8 -0.7,40.1 -26.3,60.8 -25.7,20.8 -54.9,24.6 -54.9,24.6 0,0 -26.4,23.1 -56.9,24.4 -30.4,1.3 -56.8,-4.2 -56.8,-4.2 0,0 -24.1,10.3 -63,7.3 -39,-2.9 -71.5,-25.6 -86.6,-29 -15.1,-3.4 -45.9,-7 -63.2,-12.3 -17.4,-5.3 -50.3,-24.7 -55.5,-29.4 -5.1,-4.7 -35.7,-5.5 -68.9,-23.6 -33.1,-18 -51,-62.5 -51,-62.5 0,0 -22.6,-16.6 -31,-21.7 -0.1,0 -0.2,-0.1 -0.3,-0.2 -0.5,-0.3 -1.7,-1.3 -3.3,-2.8 -5.5,-5.6 -13.3,-16.5 -21.4,-28.9 -15.2,-28.3 -31.1,-78.5 -26.2,-162.2 8.8,-152.7 130,-330.6 176.1,-392.9 l 96.9,174.6 415,337.8 c 0,0 4,24.4 -0.8,37.3 -4.8,12.9 5.1,35.8 1.5,61.5 -3.7,25.6 -15.2,27.7 -23.4,41.4" /></g><g
         transform="scale(1.07702)"
         id="g148"><path
           id="path150"
           style="fill:#c37140;fill-opacity:1;fill-rule:nonzero;stroke:none"
           d="m 16213.1,11580.3 c 0,0 28.6,-28.8 35.6,-40.6 7.2,-11.8 25.7,-124.7 31.1,-153.1 5.5,-28.5 3,-68.3 4.8,-82.2 1.7,-13.9 14.4,-98.8 14.8,-132.6 0.6,-33.7 -20.1,-168 -27.8,-203.7 -7.7,-35.8 -19.6,-83.4 -35.1,-94.7 -15.4,-11.4 -88.1,-24.3 -155.3,-13.1 -67.3,11.3 -205,81.4 -244.9,122.4 -40,41 -47.2,136 -47.2,136 0,0 -26,-10.8 -57.2,13.5 -31.3,24.2 -83.3,78.8 -82.5,146.6 0.8,67.8 54.8,50.1 84.1,26.6 29.3,-23.6 35.4,-64.2 41.1,-64.4 5.6,-0.3 10.9,2.3 13.6,3.6 2.6,1.3 7,71.4 6.1,85.4 -0.8,14 -14.1,96.9 -12.6,99.9 1.5,3 59.9,95 81.1,106.2 21.1,11.1 350.3,44.2 350.3,44.2" /></g><g
         transform="scale(1.07363)"
         id="g152"><path
           id="path154"
           style="fill:#2f1d16;fill-opacity:1;fill-rule:nonzero;stroke:none"
           d="m 15838,11280 c 0,0 10.7,50.4 15.8,78 4.9,27.6 -6.6,62.3 0.1,68.8 6.5,6.5 18.3,24.2 14.4,44.2 -4,20 -4,20 -4,20 0,0 -2.9,17.7 23.4,30.6 26.3,12.9 34.5,47.4 34.5,47.4 0,0 69.5,7.4 96,11.3 26.6,4 84,10.7 115.5,13.6 31.6,2.9 125.5,11.5 128.9,11 3.2,-0.4 37.4,-28.8 37.4,-28.8 0,0 -6.6,58.7 -14.1,59.4 -7.4,0.8 -3.6,24.1 -104.3,17.2 -100.7,-6.9 -165.4,14.9 -243,-28.5 -77.5,-43.5 -91.6,-28 -117.6,-71.2 -26,-43.1 -47.8,-115.2 -36.5,-141.7 11.2,-26.5 53.5,-131.3 53.5,-131.3" /></g><path
         id="path156"
         style="fill:#989d9e;fill-opacity:1;fill-rule:nonzero;stroke:none"
         d="m 14326.7,11121 792.9,-48.3 c 0,0 21.4,43.8 -1.5,84.6 l -770.5,51.1 -20.9,-87.4" /><path
         id="path158"
         style="fill:#1d1b1a;fill-opacity:1;fill-rule:nonzero;stroke:none"
         d="m 14605.3,10613.8 c 136.3,78.7 240.5,256.5 259.2,470.7 22.2,256.3 -85.3,482.3 -250.5,556.6 -191.1,100.3 -364.4,22.4 -364.4,22.4 l -11.6,-54.9 c 0,0 -12.7,-40.6 -30.4,-105.4 -68.2,-90.9 -115.3,-213.3 -127.2,-350.6 -8.2,-93.3 1,-182.6 23.8,-262.1 -0.5,-131.9 25.2,-238.9 100.5,-272.4 104.2,-46.6 192.4,-54.1 259.3,-47.5 39.6,2 78.2,12.2 114.8,29.4 17.3,7.7 26.5,13.8 26.5,13.8" /><path
         id="path160"
         style="fill:#343434;fill-opacity:1;fill-rule:nonzero;stroke:none"
         d="m 14738.4,11106.5 c -26.2,-302.2 -223,-532 -439.6,-513.2 -216.5,18.8 -370.7,279.1 -344.5,581.4 26.3,302.2 223.1,532 439.7,513.2 216.5,-18.9 370.7,-279.1 344.4,-581.4" /><path
         id="path162"
         style="fill:#d3d4d1;fill-opacity:1;fill-rule:nonzero;stroke:none"
         d="m 14451.7,11127.6 c -13.9,-82.1 -82.5,-138.8 -153.2,-126.8 -70.7,12 -116.8,88.2 -102.8,170.3 13.9,82 82.5,138.8 153.2,126.8 70.7,-12.1 116.8,-88.3 102.8,-170.3" /><path
         id="path164"
         style="fill:#c37140;fill-opacity:1;fill-rule:nonzero;stroke:none"
         d="m 13430.2,10653.4 c 0,0 115.2,-153.2 237,-181.5 121.7,-28.2 393.4,-73.8 473.8,-60.8 80.4,13 76.1,300 56.5,426 -19.5,126.1 -128.2,393.4 -128.2,393.4 l -182.6,-21.7 c 0,0 17.4,-121.7 13,-204.3 -4.3,-82.6 -19.5,-113 -19.5,-113 0,0 -117.4,76 -239.1,128.2 0,0 -29.4,147.8 -152.7,202.2 -123.4,54.3 -295.4,84.7 -295.4,84.7 0,0 -20,-341.2 0,-369.5 19.9,-28.2 237.2,-283.7 237.2,-283.7" /><path
         id="path166"
         style="fill:#a45330;fill-opacity:1;fill-rule:nonzero;stroke:none"
         d="m 13467.2,10848 21.2,169.5 c 0,0 33.1,-186.9 39.7,-230.4 6.5,-43.4 91.2,-86.9 91.2,-86.9 0,0 -63.2,11.6 -152.1,13 -88.9,1.4 0,134.8 0,134.8" /><path
         id="path168"
         style="fill:#252323;fill-opacity:1;fill-rule:nonzero;stroke:none"
         d="m 12343.4,6324.7 c 0,0 -46.3,-39.1 -62.3,-50 -15.9,-10.8 -133.3,-332.5 -105,-373.8 28.2,-41.3 91.3,-52.2 121.7,-89.1 30.4,-37 80.4,-89.2 284.7,-126.1 204.4,-37 226.1,76.1 221.7,152.1 -4.3,76.1 -206.4,232.6 -217.3,276.1 -10.9,43.5 -15.2,173.9 -21.8,210.8 -6.5,37 -31.8,62.3 -31.8,62.3 0,0 -120.3,33.4 -137.7,26.8 -17.4,-6.5 -52.2,-89.1 -52.2,-89.1" /><path
         id="path170"
         style="fill:#252323;fill-opacity:1;fill-rule:nonzero;stroke:none"
         d="m 13567.9,6537.4 c 0,0 -127.5,-86.4 -144.9,-122.7 -17.4,-36.4 -86.9,-259.5 -40.6,-320.4 46.4,-60.8 205.8,-40.6 281.1,-69.5 75.4,-29 362.3,-118.9 429,-20.3 66.6,98.5 -84.1,150 -150.7,211.2 -66.7,61.2 -153.6,174.2 -150.7,220.6 2.9,46.4 -5.8,98.5 -37.7,115.9 -31.9,17.4 -95.7,49.3 -95.7,49.3 l -89.8,-64.1" /><path
         id="path172"
         style="fill:#100f0d;fill-opacity:1;fill-rule:nonzero;stroke:none"
         d="m 12376.6,8013.6 c 0,0 104.5,-68.8 223.3,-82.6 118.9,-13.7 -153.6,165.9 -153.6,165.9 l -69.7,-83.3" /><path
         id="path174"
         style="fill:#c37140;fill-opacity:1;fill-rule:nonzero;stroke:none"
         d="m 12498.5,8085.3 c 0,0 11.6,-89.8 40.6,-205.7 28.9,-115.9 14.5,-301.4 -40.6,-391.3 -55.1,-89.8 -152.2,-130.4 -165.9,-365.1 -13.8,-234.8 -5.1,-637.6 -16.7,-721.7 -11.6,-84 -34.8,-176.8 -34.8,-176.8 0,0 40.6,-20.2 55.1,0 14.5,20.3 63.9,147.8 81.2,150.7 17.3,2.9 115.9,11.6 115.9,11.6 0,0 40.5,336.2 162.3,513 121.7,176.8 95.6,379.7 107.2,408.6 11.6,29 104.3,136.3 165.2,342 60.8,205.8 75.3,363 75.3,363 0,0 -257.9,179 -324.5,176.1 -66.7,-2.9 -220.3,-104.4 -220.3,-104.4" /><path
         id="path176"
         style="fill:#c37140;fill-opacity:1;fill-rule:nonzero;stroke:none"
         d="m 13436.8,8075.6 223.8,-416.3 c 0,0 -66.6,-176.8 -81.1,-295.6 -14.5,-118.8 -23.2,-391.2 -52.2,-541.9 -29,-150.7 -66.6,-457.9 -66.6,-457.9 0,0 92.7,23.4 130.4,50.8 37.7,27.4 84,108.6 86.9,117.2 2.9,8.7 75.4,20.3 75.4,20.3 0,0 40.6,342 159.4,547.8 118.8,205.7 130.4,521.6 130.4,521.6 0,0 29,75.4 31.9,171 2.9,95.7 -11.6,176.8 -14.5,191.3 -2.9,14.5 0,149.3 0,149.3 0,0 -310.1,120.2 -362.3,97.1 -52.1,-23.2 -261.5,-154.7 -261.5,-154.7" /><path
         id="path178"
         style="fill:#252323;fill-opacity:1;fill-rule:nonzero;stroke:none"
         d="m 12420.6,9674.2 c 0,0 -88,-308.6 -88,-326 0,-17.4 48.9,-169.5 44,-176.1 -4.9,-6.5 -15.8,-452.1 -15.8,-465.1 0,-13 15.8,-693.4 15.8,-693.4 0,0 134.2,8.7 314.6,21.8 180.4,13 352.1,-30.5 352.1,-21.8 0,8.7 39.2,604.3 39.2,604.3 l 273.8,-686.9 c 0,0 163.1,80.4 358.7,126.1 195.6,45.6 345.6,76.1 345.6,76.1 0,0 -173.9,628.1 -204.3,691.2 -30.5,63 -197.8,328.2 -197.8,339 0,10.9 -21.8,84.8 -26.1,102.2 -4.4,17.4 -54.4,134.8 -82.6,197.8 -28.3,63 -182.6,234.8 -182.6,234.8 0,0 -402.1,49.9 -493.4,52.1 -91.3,2.2 -323.9,41.3 -326,32.6 -2.2,-8.7 -127.2,-108.7 -127.2,-108.7" /><path
         id="path180"
         style="fill:#100f0d;fill-opacity:1;fill-rule:nonzero;stroke:none"
         d="m 13243.3,8904.8 c 0,0 -89.1,-31.4 -100,-47.2 -10.8,-15.8 -60.8,-239.7 -60.8,-239.7 l 122.7,-307.8 c 0,0 -51,423 -42.3,470.8 8.7,47.8 80.4,123.9 80.4,123.9" /><path
         id="path182"
         style="fill:#e9eef1;fill-opacity:1;fill-rule:nonzero;stroke:none"
         d="m 12645.6,11430.5 -73.9,-17.4 -200,-119.5 -176.1,-793.4 c 0,0 21.8,-119.5 89.2,-230.4 67.3,-110.8 93.4,-139.1 97.8,-154.3 4.3,-15.2 38,-441.3 38,-441.3 0,0 170.6,2.2 461.9,-32.6 291.3,-34.7 484.7,56.6 484.7,56.6 0,0 34.8,619.4 34.8,630.3 0,10.9 32.6,206.5 58.7,256.5 26.1,50 41.3,241.3 10.8,345.6 -30.4,104.3 -278.5,376 -278.5,376 l -125.7,58.7 -421.7,65.2" /><path
         id="path184"
         style="fill:#c37140;fill-opacity:1;fill-rule:nonzero;stroke:none"
         d="m 12626.8,11708.1 v -231.9 l -55.1,-63.1 c 0,0 271.7,-432.5 480.3,-443.4 208.7,-10.9 139.1,223.9 113.1,269.5 -26.1,45.7 -97.8,126.1 -97.8,126.1 l -97.9,310.8 c 0,0 -271.7,206.5 -284.7,197.8 -13,-8.7 -55.2,-58.4 -55.2,-58.4 l -2.7,-107.4" /><path
         id="path186"
         style="fill:#a45330;fill-opacity:1;fill-rule:nonzero;stroke:none"
         d="m 12693.5,11766 c 0,0 10.4,-131.9 69.4,-199.8 59.1,-67.9 254.4,-94.4 254.4,-94.4 l 50,-106.5 v 148.4 l -41.4,126.9 -332.4,125.4" /><path
         id="path188"
         style="fill:#bdc1c4;fill-opacity:1;fill-rule:nonzero;stroke:none"
         d="m 13121.6,10728.4 c 0,0 0,-82.6 -58.7,-149.9 0,0 117.4,32.6 58.7,149.9" /><path
         id="path190"
         style="fill:#a45330;fill-opacity:1;fill-rule:nonzero;stroke:none"
         d="m 13880.2,10891.5 v -134.8 l -44.8,162.3 z" /><path
         id="path192"
         style="fill:#989d9e;fill-opacity:1;fill-rule:nonzero;stroke:none"
         d="m 11832.6,11334.9 2500.4,-206.5 c 0,0 36.2,50.7 0,88.4 l -2515.6,213.7 15.2,-95.6" /><path
         id="path194"
         style="fill:#c37140;fill-opacity:1;fill-rule:nonzero;stroke:none"
         d="m 12266.6,11232.7 c 0,0 -114.4,-106.5 -144.9,-195.6 -30.4,-89.1 30.5,-236.9 30.5,-236.9 0,0 -4.4,-230.4 43.4,-300 47.9,-69.5 237,0 237,0 0,0 152.1,-117.4 286.9,-119.5 134.7,-2.2 202.1,2.1 236.9,69.5 34.8,67.4 -19.6,240.9 -91.3,356.3 -71.7,115.4 -384.7,602.3 -384.7,602.3 l -210.9,-129.4 12,-33.6 -14.9,-13.1" /><path
         id="path196"
         style="fill:#a45330;fill-opacity:1;fill-rule:nonzero;stroke:none"
         d="m 12417.3,10676.3 c -4.3,10.8 10.9,215.2 -26,341.2 -37,126.1 -109.8,228.3 -109.8,228.3 l -40.6,-38.7 c 0,0 74.3,-107 115.6,-220 41.3,-113 60.8,-310.8 60.8,-310.8" /><path
         id="path198"
         style="fill:#a45330;fill-opacity:1;fill-rule:nonzero;stroke:none"
         d="m 12231.9,10792.2 c 0,0 26,-191.3 153.6,-191.3 0,0 -114.5,104.4 -153.6,191.3" /><path
         id="path200"
         style="fill:#c37140;fill-opacity:1;fill-rule:nonzero;stroke:none"
         d="m 12269.5,11279.4 c 0,0 -17.4,0.4 -44.9,0 -27.5,-0.3 -81.1,-42.3 -92.7,-43.8 -11.6,-1.4 -34.8,10.2 -34.8,10.2 0,0 -31.9,-14.8 -42,-10.3 -10.2,4.5 -31.9,21.6 -31.9,21.6 0,0 -7.2,-11.8 -24.6,0 -17.4,11.8 -31.9,11.4 -52.2,22.5 -20.3,11.1 -38.7,49.1 -38.7,49.1 l 38.7,-3.2 c 0,0 115.9,134.7 155,157.9 39.2,23.2 131.9,30.2 131.9,30.2 0,0 66.7,35 131.9,32.1 65.2,-2.9 115.2,-136.9 115.2,-136.9 l -108.7,-115.2 -102.2,-14.2" /><path
         id="path202"
         style="fill:#a45330;fill-opacity:1;fill-rule:nonzero;stroke:none"
         d="m 11988,11263.1 c 3.5,-1.7 7,-3.5 10.6,-6 17.4,-11.8 24.6,0 24.6,0 l 17,60.6 c 0,0 -31.1,-33.3 -52.2,-54.6" /><path
         id="path204"
         style="fill:#a45330;fill-opacity:1;fill-rule:nonzero;stroke:none"
         d="m 12009.8,11336 -69,-52.6 c 1.9,-1.4 3.7,-2.8 5.6,-3.8 6.9,-3.7 13.1,-6.2 19,-8.2 l 44.4,64.6" /><path
         id="path206"
         style="fill:#a45330;fill-opacity:1;fill-rule:nonzero;stroke:none"
         d="m 12113.2,11305.5 -64.9,-66.3 c 2.5,-1.6 4.9,-2.9 6.8,-3.7 10.1,-4.5 42,10.3 42,10.3 l 16.1,59.7" /><path
         id="path208"
         style="fill:#c37140;fill-opacity:1;fill-rule:nonzero;stroke:none"
         d="m 13895.7,11128.4 c 0,0 -119.9,-13.1 -174.2,-8.7 -54.3,4.3 -71.7,11.9 -81.5,17.4 -9.8,5.4 -43.4,52.1 -43.4,52.1 l 48.8,-4 c 0,0 2.2,23.6 2.2,43.2 0,19.5 -8.8,47.4 -8.8,47.4 l -24.9,3.6 c 0,0 77.2,67.4 107.6,79.4 30.4,11.9 102.2,7.6 108.7,10.9 6.5,3.2 91.3,9.7 146.7,0 55.4,-9.8 92.4,-139.2 92.4,-139.2 0,0 -93.9,-64.9 -99.7,-72.1 -5.7,-7.2 -73.9,-30 -73.9,-30" /><path
         id="path210"
         style="fill:#a45330;fill-opacity:1;fill-rule:nonzero;stroke:none"
         d="m 13880.2,11234.9 6.5,-26.1 9,-80.4 -33.1,-3.2 17.6,109.7" /><path
         id="path212"
         style="fill:#dad9d8;fill-opacity:1;fill-rule:nonzero;stroke:none"
         d="m 12320.6,6479.6 c -1,-35.2 -2.5,-62.3 -4.7,-78.1 -11.6,-84 -34.8,-176.8 -34.8,-176.8 0,0 40.6,-20.2 55.1,0 14.5,20.3 63.9,147.8 81.2,150.7 17.3,2.9 115.9,11.6 115.9,11.6 0,0 4.1,33.8 13.5,85.5 -83.8,2.4 -169,5 -226.2,7.1" /><path
         id="path214"
         style="fill:#dad9d8;fill-opacity:1;fill-rule:nonzero;stroke:none"
         d="m 13508.4,6710.9 c -24.2,-155 -47.7,-347 -47.7,-347 0,0 92.7,23.4 130.4,50.8 37.7,27.4 84,108.6 86.9,117.2 2.9,8.7 75.4,20.3 75.4,20.3 0,0 7.1,60.1 24.1,145 -96.7,-1.4 -195.3,6 -269.1,13.7" /><path
         id="path216"
         style="fill:#1d1b1a;fill-opacity:1;fill-rule:nonzero;stroke:none"
         d="m 11531,10807 c 166.1,86.2 299.7,291.9 333.3,545.5 40.3,303.4 -75.3,577.8 -267.6,675.1 -221.9,129.4 -432,46.2 -432,46.2 l -16.7,-64.7 c 0,0 -17.4,-47.5 -41.8,-123.7 -86,-104.3 -148.6,-247.2 -170.2,-409.7 -14.6,-110.5 -8.6,-217.2 14.3,-312.8 -7.7,-156.8 17.1,-285.3 104.7,-329.3 121.4,-60.9 225.8,-74.6 305.7,-70.4 47.2,0.3 93.6,10.3 138.1,28.7 20.9,8.3 32.2,15.1 32.2,15.1" /><path
         id="path218"
         style="fill:#434244;fill-opacity:1;fill-rule:nonzero;stroke:none"
         d="m 11715.8,11385.4 c -47.5,-357.8 -293.8,-620.3 -550.2,-586.3 -256.3,34.1 -425.6,351.7 -378.1,709.5 47.5,357.9 293.8,620.4 550.1,586.3 256.3,-34 425.6,-351.6 378.2,-709.5" /><path
         id="path220"
         style="fill:#343434;fill-opacity:1;fill-rule:nonzero;stroke:none"
         d="m 11715.8,11385.4 c -43.1,-324.6 -266.6,-562.7 -499.1,-531.9 -232.6,30.9 -386.2,319.1 -343.1,643.7 43.1,324.6 266.5,562.8 499.1,531.9 232.5,-30.9 386.1,-319 343.1,-643.7" /><path
         id="path222"
         style="fill:#d3d4d1;fill-opacity:1;fill-rule:nonzero;stroke:none"
         d="m 11398.5,11430 c -10.2,-57.8 -60.4,-97.4 -112.2,-88.3 -51.7,9.1 -85.5,63.4 -75.3,121.3 10.2,57.9 60.4,97.4 112.2,88.3 51.7,-9.1 85.4,-63.4 75.3,-121.3" /><path
         id="path224"
         style="fill:#989d9e;fill-opacity:1;fill-rule:nonzero;stroke:none"
         d="m 11309.9,11500.2 -904.9,89.8 -6.6,-85.9 904.9,-97.7 c 37.8,44 6.6,93.8 6.6,93.8" /><path
         id="path226"
         style="fill:#d3d4d1;fill-opacity:1;fill-rule:nonzero;stroke:none"
         d="m 10436.6,11544.3 c -1.8,-23.7 -19,-41.7 -38.2,-40.2 -19.3,1.5 -33.5,21.9 -31.6,45.6 1.8,23.8 18.9,41.8 38.2,40.3 19.3,-1.5 33.5,-21.9 31.6,-45.7" /><path
         id="path228"
         style="fill:#2f1d16;fill-opacity:1;fill-rule:nonzero;stroke:none"
         d="m 13147.5,12400.5 c -8.7,14.7 -0.6,42.9 -28.2,65.2 -27.5,22.3 -59,26.4 -59,26.4 0,0 -28.3,24.8 -61.1,26.2 -32.7,1.5 -60.9,-4.5 -60.9,-4.5 0,0 -25.9,11 -67.7,7.9 -41.8,-3.2 -76.8,-27.5 -93,-31.2 -16.3,-3.6 -49.2,-7.5 -67.9,-13.2 -18.6,-5.7 -54,-26.6 -59.5,-31.6 -5.6,-5.1 -38.5,-5.9 -74.1,-25.3 -35.5,-19.4 -54.8,-67.2 -54.8,-67.2 0,0 -24.2,-17.8 -33.3,-23.2 -0.1,-0.1 -0.2,-0.2 -0.3,-0.2 -0.5,-0.4 -1.8,-1.4 -3.6,-3.1 -5.9,-5.9 -14.1,-17.7 -22.8,-31 -16.5,-30.4 -33.5,-84.3 -28.3,-174.2 9.6,-163.9 144.2,-355 193.8,-421.9 l 99.5,187.5 445.7,362.8 c 0,0 4.2,26.1 -0.9,40 -5.2,13.8 5.4,38.5 1.5,66 -3.9,27.6 -16.3,29.8 -25.1,44.6" /><path
         id="path230"
         style="fill:#c37140;fill-opacity:1;fill-rule:nonzero;stroke:none"
         d="m 13133.5,12293.6 c 0,0 30.8,-31 38.5,-43.7 7.7,-12.7 27.6,-134.3 33.4,-164.9 5.9,-30.7 3.3,-73.5 5.1,-88.5 1.9,-14.9 15.5,-106.4 16,-142.8 0.6,-36.4 -21.7,-180.9 -30,-219.5 -8.3,-38.5 -21,-89.7 -37.7,-101.9 -16.7,-12.3 -94.9,-26.2 -167.4,-14.1 -72.4,12.2 -220.6,87.6 -263.7,131.8 -43,44.2 -50.9,146.5 -50.9,146.5 0,0 -27.9,-11.6 -61.6,14.5 -33.6,26.1 -89.7,84.9 -88.8,157.9 1,73 59,54 90.6,28.6 31.6,-25.4 38.1,-69.1 44.2,-69.3 6.1,-0.3 11.8,2.5 14.7,3.9 2.9,1.3 7.5,76.8 6.6,91.9 -0.9,15.1 -15.2,104.4 -13.6,107.7 1.6,3.2 64.6,102.3 87.4,114.3 22.8,12 377.2,47.6 377.2,47.6" /><path
         id="path232"
         style="fill:#2f1d16;fill-opacity:1;fill-rule:nonzero;stroke:none"
         d="m 12675.9,11932.1 c 0,0 11.6,54 16.9,83.7 5.3,29.6 -7,66.8 0.1,73.8 7.1,7 19.8,26 15.5,47.5 -4.3,21.5 -4.3,21.5 -4.3,21.5 0,0 -3.1,18.9 25.2,32.8 28.2,13.9 37,50.9 37,50.9 0,0 74.7,7.9 103.2,12.1 28.5,4.3 90,11.5 123.9,14.6 33.9,3.1 134.7,12.3 138.3,11.9 3.6,-0.5 40.3,-31 40.3,-31 0,0 -7.1,63 -15.2,63.8 -8,0.8 -3.9,25.9 -112,18.5 -108,-7.5 -177.6,16 -260.8,-30.7 -83.3,-46.7 -98.4,-30 -126.4,-76.3 -27.9,-46.4 -51.3,-123.8 -39.2,-152.3 12.1,-28.4 57.5,-140.8 57.5,-140.8" /><path
         id="path234"
         style="fill:#989d9e;fill-opacity:1;fill-rule:nonzero;stroke:none"
         d="m 9774.89,8588.9 793.21,44.3 c 0,0 16.1,46 -11.4,83.9 l -771.23,-39 -10.58,-89.2" /><path
         id="path236"
         style="fill:#1d1b1a;fill-opacity:1;fill-rule:nonzero;stroke:none"
         d="m 10114.7,8147.7 c 125.1,95.5 205.8,285.1 196.9,499.9 -10.6,257 -146.1,467.5 -319.41,520.2 -202.4,75 -364.3,-24.4 -364.3,-24.4 l -4.46,-55.9 c 0,0 -7.49,-41.9 -16.73,-108.5 -56.03,-98.8 -87.15,-226.2 -81.46,-363.9 3.88,-93.6 24.32,-181 57.11,-256.9 16.39,-130.9 55.53,-233.7 134.45,-257.4 109.34,-32.9 197.77,-29.1 263.3,-14 39,7 76,22 110.1,43.8 16.2,9.9 24.5,17.1 24.5,17.1" /><path
         id="path238"
         style="fill:#343434;fill-opacity:1;fill-rule:nonzero;stroke:none"
         d="m 10183.8,8653.4 c 12.6,-303.1 -153.3,-556.2 -370.44,-565.1 -217.15,-9 -403.36,229.4 -415.89,532.6 -12.54,303.1 153.33,556.1 370.48,565.1 217.16,9 403.35,-229.5 415.85,-532.6" /><path
         id="path240"
         style="fill:#252323;fill-opacity:1;fill-rule:nonzero;stroke:none"
         d="m 7562.97,6249.4 c 0,0 -59.41,-111.6 -66.65,-131.9 -7.25,-20.3 -15.94,-237.6 -11.59,-246.3 4.34,-8.7 85.49,-18.9 111.57,-39.1 26.09,-20.3 104.33,-66.7 257.94,-102.9 153.6,-36.3 246.34,13 230.4,108.6 -15.94,95.7 -185.48,239.1 -198.52,300 -13.04,60.9 -2.9,189.8 -20.29,213 -17.39,23.2 -108.68,24.6 -108.68,24.6 0,0 -94.19,37.7 -102.88,26.1 -8.7,-11.6 -91.3,-152.1 -91.3,-152.1" /><path
         id="path242"
         style="fill:#252323;fill-opacity:1;fill-rule:nonzero;stroke:none"
         d="m 8759.9,6471.3 c 0,0 -85.3,-75.6 -86.12,-107.4 -0.82,-31.9 -13.66,-279.3 0,-303.4 13.67,-24.1 158.58,-6.8 231.03,-35.7 72.46,-29 399.94,-87 460.81,-17.4 60.85,69.5 -92.75,133.3 -173.9,197.1 -81.14,63.7 -144.9,191.2 -147.8,228.9 -2.9,37.7 -89.12,82.6 -89.12,82.6 l -130.91,24.6 -63.99,-69.3" /><path
         id="path244"
         style="fill:#c37140;fill-opacity:1;fill-rule:nonzero;stroke:none"
         d="m 7561.52,8072.3 c 0,0 39.13,-230.4 34.78,-260.8 -4.34,-30.5 -114.47,-326.1 -134.76,-526 -20.29,-200 78.25,-600 86.95,-744.9 8.69,-144.9 0,-350.6 0,-350.6 h 89.84 c 0,0 23.18,156.5 34.78,162.3 11.59,5.8 84.04,23.1 84.04,23.1 0,0 46.37,463.8 101.43,681.1 55.07,217.4 66.66,426 63.76,434.7 -2.9,8.7 75.36,89.9 84.05,205.8 8.69,115.9 8.69,115.9 8.69,115.9 0,0 39.16,117 52.89,268.1 13.74,151.1 -168.81,195.6 -183.3,186.9 -14.49,-8.7 -63.76,2.9 -136.21,-57.9 -72.46,-60.9 -186.94,-137.7 -186.94,-137.7" /><path
         id="path246"
         style="fill:#c37140;fill-opacity:1;fill-rule:nonzero;stroke:none"
         d="m 8365.76,8059.3 c 0,0 202.14,-273.9 226.05,-330.4 23.91,-56.5 -2.17,-371.7 0,-480.4 2.17,-108.7 86.94,-256.5 93.47,-439.1 6.52,-182.5 17.39,-426 17.39,-426 0,0 28.25,-54.3 60.86,-63 32.6,-8.7 99.98,50 99.98,50 0,0 23.91,84.7 34.78,106.5 10.87,21.7 56.51,39.1 56.51,39.1 0,0 -15.21,408.6 15.22,604.3 30.43,195.6 -8.7,469.5 0,532.5 8.69,63 15.21,130.4 -6.52,256.5 -21.74,126.1 -26.08,245.6 -26.08,245.6 0,0 -319.52,76.1 -373.87,39.1 -54.34,-36.9 -197.79,-134.7 -197.79,-134.7" /><path
         id="path248"
         style="fill:#252323;fill-opacity:1;fill-rule:nonzero;stroke:none"
         d="m 8530.95,9424.3 c 0,0 126.07,-126.1 130.42,-180.4 4.34,-54.4 -17.39,-117.4 -15.22,-137 2.18,-19.5 141.29,-227.7 189.1,-448.6 47.83,-220.8 102.17,-503.4 102.17,-503.4 0,0 -69.56,-69.6 -328.22,-97.8 -258.66,-28.3 -291.26,-21.7 -291.26,-21.7 l -217.36,404.2 -32.61,-358.6 c 0,0 -195.62,45.6 -299.95,-2.2 -104.33,-47.8 -215.56,-89.1 -263.19,-89.1 -47.64,0 -47.64,0 -47.64,0 l 11.44,479.3 c 0,0 88.55,735.7 92.89,746.6 4.35,10.9 241.28,521.7 282.58,536.9 41.29,15.2 182.57,17.4 343.42,-95.6 160.85,-113.1 343.43,-232.6 343.43,-232.6" /><path
         id="path250"
         style="fill:#c37140;fill-opacity:1;fill-rule:nonzero;stroke:none"
         d="m 9011.32,10124.2 c -4.35,-8.7 -13.04,-228.3 15.21,-328.2 0,0 -15.21,-210.9 28.26,-445.6 43.47,-234.8 58.69,-428.2 58.69,-428.2 h 130.41 c 0,0 43.47,565.1 52.17,695.5 8.69,130.4 -10.87,278.2 -10.87,343.5 0,65.2 39.13,269.5 23.91,421.6 0,0 76.08,152.2 58.69,306.5 -17.39,154.3 -242.58,257.1 -242.58,257.1 l -163.65,-213.6 49.76,-608.6" /><path
         id="path252"
         style="fill:#e9eef1;fill-opacity:1;fill-rule:nonzero;stroke:none"
         d="m 8516.46,11142.9 -113.03,-42 c 0,0 -547.74,-1137.6 -550.64,-1152.1 -2.9,-14.4 -121.72,-350.6 -104.33,-365.1 17.38,-14.5 176.78,-205.8 341.97,-260.9 165.2,-55 341.99,-17.3 385.46,0 43.47,17.4 176.78,205.8 255.03,263.8 78.25,57.9 147.81,171 202.87,243.4 55.07,72.5 86.95,179.7 86.95,179.7 0,0 110.12,78.2 185.48,234.7 75.35,156.5 43.47,246.4 0,376.8 -43.48,130.4 -81.01,325.2 -81.01,325.2 l -307.34,196.5 h -301.41" /><path
         id="path254"
         style="fill:#c37140;fill-opacity:1;fill-rule:nonzero;stroke:none"
         d="m 8681.43,11254.5 -15.72,-63.8 -149.25,-47.8 c 0,0 62.03,-226.1 106.37,-371 44.33,-144.9 87.8,-289.8 253,-301.4 165.19,-11.6 195.84,179.7 197.18,298.5 1.34,118.8 -3.14,231 -3.14,231 0,0 -85.95,215.7 -129.85,216.2 -43.9,0.6 -183.01,174.5 -198.96,168.7 -15.93,-5.8 -42.9,4.8 -47.53,-23.7 -4.63,-28.5 -12.1,-106.7 -12.1,-106.7" /><path
         id="path256"
         style="fill:#a45330;fill-opacity:1;fill-rule:nonzero;stroke:none"
         d="m 8752.98,11306.3 c 0,0 -1.28,-132.3 51.57,-205.1 52.85,-72.9 221.41,-122 221.41,-122 l -2.64,-128.2 46.55,149 3.14,152.2 -320.03,154.1" /><path
         id="path258"
         style="fill:#c37140;fill-opacity:1;fill-rule:nonzero;stroke:none"
         d="m 8427.12,11109.7 c 0,0 73.4,-242.1 32.1,-505.1 -41.3,-263.1 -339.08,-395.7 -339.08,-395.7 0,0 -38.4,-145.6 -116.65,-254.3 -78.25,-108.6 -188.38,-155 -188.38,-155 0,0 -27.53,-252.1 -79.69,-411.5 -52.17,-159.4 -98.54,-456.5 -98.54,-456.5 h -176.79 c 0,0 -26.08,641.9 -10.14,789.7 15.94,147.8 114.47,318.8 137.66,395.6 23.19,76.8 33.33,251.2 91.29,353.1 57.97,101.9 123.9,293.2 234.75,417.1 110.85,123.9 243.44,128.3 278.22,145.6 34.78,17.4 235.25,77 235.25,77" /><path
         id="path260"
         style="fill:#a45330;fill-opacity:1;fill-rule:nonzero;stroke:none"
         d="m 8309.24,10463.3 c 0,0 -73.9,-46.4 -82.59,-56.5 -8.7,-10.2 -106.51,-197.9 -106.51,-197.9 l 101.34,59.3 39.95,109.6 47.81,85.5" /><path
         id="path262"
         style="fill:#a45330;fill-opacity:1;fill-rule:nonzero;stroke:none"
         d="m 9056.96,9809 c 0,0 84.77,-67.4 145.63,-65.2 0,0 -97.84,-47.7 -145.63,65.2" /><path
         id="path264"
         style="fill:#100f0d;fill-opacity:1;fill-rule:nonzero;stroke:none"
         d="m 8315.77,8922.2 c -8.7,-17.4 -178.24,-156.5 -180.41,-167.4 -2.18,-10.9 -34.78,-315.2 -34.78,-315.2 l 96.72,-193.4 c 0,0 1.09,463.3 0,470.7 -1.08,7.5 118.47,205.3 118.47,205.3" /><path
         id="path266"
         style="fill:#dad9d8;fill-opacity:1;fill-rule:nonzero;stroke:none"
         d="m 7551.11,6479.1 c 3.87,-135.3 -2.62,-289.1 -2.62,-289.1 h 89.84 c 0,0 23.18,156.5 34.78,162.3 11.59,5.8 84.04,23.1 84.04,23.1 0,0 4.72,47.1 12.9,118.3 l -218.94,-14.6" /><path
         id="path268"
         style="fill:#d3d4d1;fill-opacity:1;fill-rule:nonzero;stroke:none"
         d="m 9896.77,8637.6 c -3.34,-83.1 -64.15,-148.2 -135.81,-145.3 -71.66,2.9 -127.04,72.6 -123.69,155.8 3.35,83.1 64.15,148.2 135.81,145.3 71.66,-2.9 127.04,-72.6 123.69,-155.8" /><path
         id="path270"
         style="fill:#a45330;fill-opacity:1;fill-rule:nonzero;stroke:none"
         d="m 7763.75,7844.1 c 0,0 -0.08,-100 45.57,-134.8 0,0 -102,4.4 -45.57,134.8" /><path
         id="path272"
         style="fill:#a45330;fill-opacity:1;fill-rule:nonzero;stroke:none"
         d="m 8743.96,7874.5 c 0,0 113.03,29.7 144.91,100.7 0,0 0,-133.3 -144.91,-100.7" /><path
         id="path274"
         style="fill:#dad9d8;fill-opacity:1;fill-rule:nonzero;stroke:none"
         d="m 8692.97,6610.8 c 5.04,-123.2 9.7,-227.4 9.7,-227.4 0,0 28.25,-54.3 60.86,-63 32.6,-8.7 99.98,50 99.98,50 0,0 23.91,84.7 34.78,106.5 10.87,21.7 56.51,39.1 56.51,39.1 0,0 -1.58,42.7 -2.71,107.1 l -259.12,-12.3" /><path
         id="path276"
         style="fill:#989d9e;fill-opacity:1;fill-rule:nonzero;stroke:none"
         d="m 7280.75,8536 2504.03,142.6 c 0,0 46.29,-51.4 -7.13,-89.6 L 7192.89,8431.6 c 0,0 -35.64,97.3 87.86,104.4" /><path
         id="path278"
         style="fill:#c37140;fill-opacity:1;fill-rule:nonzero;stroke:none"
         d="m 7460.09,8931.6 c 0,0 -28.98,-130.4 -55.06,-188.4 -26.08,-57.9 -27.53,-204.3 -39.13,-237.6 -11.59,-33.4 -36.22,-92.8 -27.53,-102.9 8.7,-10.2 46.37,-23.2 46.37,-23.2 0,0 15.94,-15.9 42.02,-20.3 0,0 24.64,-18.8 44.92,-21.7 20.29,-2.9 36.23,0 36.23,0 0,0 53.62,-2.6 66.66,-1.3 13.04,1.3 79.7,83.9 92.74,114.3 13.04,30.4 0,155.1 0,194.2 0,39.1 -30.43,286.9 -30.43,286.9 l -102.89,49.3 -73.9,-49.3" /><path
         id="path280"
         style="fill:#a45330;fill-opacity:1;fill-rule:nonzero;stroke:none"
         d="m 7433.29,8469 c 0,0 -46.26,-46.8 -77.22,-77.7 13.36,-6.5 28.67,-11.8 28.67,-11.8 l 48.55,89.5" /><path
         id="path282"
         style="fill:#a45330;fill-opacity:1;fill-rule:nonzero;stroke:none"
         d="m 7473.5,8439.6 c 0,0 -38.25,-44.6 -64.35,-75.4 5.18,-2.1 11.07,-3.9 17.61,-5 l 46.74,80.4" /><path
         id="path284"
         style="fill:#a45330;fill-opacity:1;fill-rule:nonzero;stroke:none"
         d="m 7561.52,8448.3 c 0,0 -60.9,-70 -92.89,-110.2 1.02,-0.3 2.05,-0.5 3.05,-0.6 20.29,-2.9 36.23,0 36.23,0 l 53.61,110.8" /><path
         id="path286"
         style="fill:#c37140;fill-opacity:1;fill-rule:nonzero;stroke:none"
         d="m 9113.48,8922.2 c 0,0 -90.21,-160.9 -98.9,-178.3 -8.7,-17.3 -14.13,-110.8 -14.13,-110.8 l 71.73,-8.7 c 0,0 26.08,-9.8 27.17,-45.7 1.08,-35.8 -24.04,-36.5 -24.04,-36.5 0,0 15.34,-42.8 45.77,-50.4 30.43,-7.6 52.17,0 52.17,0 0,0 35.87,-10.9 52.17,-8.7 16.3,2.2 35.86,-8.2 61.94,-0.3 26.09,7.9 63.04,98.1 71.73,137.2 8.7,39.2 -40.21,134.8 -47.82,157.6 -7.6,22.9 -67.38,144.6 -67.38,144.6 0,0 -67.83,35.8 -77.93,31.5 -10.1,-4.4 -52.48,-31.5 -52.48,-31.5" /><path
         id="path288"
         style="fill:#a45330;fill-opacity:1;fill-rule:nonzero;stroke:none"
         d="m 9301.49,8564.6 -44.45,-84.2 c 8.91,-0.9 18.71,-0.9 29.7,2.3 l 14.75,81.9" /><path
         id="path290"
         style="fill:#a45330;fill-opacity:1;fill-rule:nonzero;stroke:none"
         d="m 9197.16,8578.7 c 0,0 -35.79,-55.6 -56.81,-90 19.91,-1.4 32.9,3.1 32.9,3.1 l 23.91,86.9" /><path
         id="path292"
         style="fill:#a45330;fill-opacity:1;fill-rule:nonzero;stroke:none"
         d="m 9205.41,8484.3 c 7.46,-1.2 14.75,-1.9 20.01,-1.2 l 23.91,90.2 c 0,0 -26.88,-54.3 -43.92,-89" /><path
         id="path294"
         style="fill:#1d1b1a;fill-opacity:1;fill-rule:nonzero;stroke:none"
         d="m 7059.13,7850.7 c 148.8,113.6 244.86,339.2 234.29,594.8 -12.65,305.7 -173.84,556.2 -380.07,618.8 -240.81,89.2 -433.43,-28.9 -433.43,-28.9 l -5.31,-66.6 c 0,0 -8.92,-49.9 -19.91,-129.1 -66.65,-117.6 -103.69,-269.1 -96.91,-432.9 4.61,-111.4 28.93,-215.4 67.94,-305.7 19.5,-155.7 66.07,-278.1 159.97,-306.3 130.1,-39.1 235.3,-34.5 313.27,-16.6 46.41,8.4 90.4,26.2 131.02,52.1 19.19,11.8 29.12,20.4 29.14,20.4" /><path
         id="path296"
         style="fill:#434244;fill-opacity:1;fill-rule:nonzero;stroke:none"
         d="m 7141.39,8452.3 c 14.91,-360.6 -182.44,-661.7 -440.8,-672.3 -258.37,-10.7 -479.91,273 -494.83,633.6 -14.92,360.7 182.43,661.7 440.8,672.4 258.37,10.7 479.91,-273 494.83,-633.7" /><path
         id="path298"
         style="fill:#343434;fill-opacity:1;fill-rule:nonzero;stroke:none"
         d="m 7141.39,8452.3 c 13.53,-327.2 -165.51,-600.3 -399.9,-610 -234.4,-9.7 -435.38,247.7 -448.91,574.9 -13.54,327.2 165.51,600.3 399.9,610 234.39,9.7 435.37,-247.7 448.91,-574.9" /><path
         id="path300"
         style="fill:#d3d4d1;fill-opacity:1;fill-rule:nonzero;stroke:none"
         d="m 6821.16,8441.5 c -0.04,-58.7 -42.69,-106.3 -95.24,-106.3 -52.56,0.1 -95.13,47.7 -95.09,106.5 0.05,58.7 42.69,106.3 95.25,106.3 52.56,0 95.13,-47.7 95.08,-106.5" /><path
         id="path302"
         style="fill:#989d9e;fill-opacity:1;fill-rule:nonzero;stroke:none"
         d="m 6721.81,8495.3 -906.8,-67.5 8.27,-85.8 908.26,59.8 c 29.61,49.9 -9.73,93.5 -9.73,93.5" /><path
         id="path304"
         style="fill:#d3d4d1;fill-opacity:1;fill-rule:nonzero;stroke:none"
         d="m 5854.01,8388.3 c 2.28,-23.7 -11.48,-44.4 -30.73,-46.3 -19.26,-1.8 -36.72,15.9 -39,39.6 -2.28,23.6 11.48,44.4 30.73,46.2 19.26,1.9 36.72,-15.8 39,-39.5" /><path
         id="path306"
         style="fill:#2f1d16;fill-opacity:1;fill-rule:nonzero;stroke:none"
         d="m 9268.67,11895.2 c -7.28,15.6 3.56,42.8 -21.66,67.7 -25.23,24.9 -56.14,32.1 -56.14,32.1 0,0 -25.76,27.4 -58.2,32.1 -32.45,4.6 -61.13,1.5 -61.13,1.5 0,0 -24.68,13.5 -66.6,14.4 -41.91,1 -79.06,-19.8 -95.6,-21.8 -16.54,-2.1 -49.7,-2.7 -68.83,-6.5 -19.13,-3.9 -56.34,-21.2 -62.36,-25.6 -6.03,-4.5 -38.89,-2.2 -76.18,-17.9 -37.29,-15.8 -61.13,-61.5 -61.13,-61.5 0,0 -25.89,-15.3 -35.41,-19.9 -0.09,0 -0.21,-0.1 -0.31,-0.2 -0.56,-0.3 -1.92,-1.2 -3.9,-2.7 -6.43,-5.3 -15.82,-16.2 -25.79,-28.5 -19.35,-28.7 -41.57,-80.7 -45.2,-170.6 -6.61,-164.1 108.66,-367.5 151.43,-438.9 l 117.37,176.8 479.18,317.2 c 0,0 6.78,25.7 3.02,39.9 -3.75,14.3 9.19,37.8 8.02,65.6 -1.17,27.8 -13.31,31.2 -20.58,46.8" /><path
         id="path308"
         style="fill:#c37140;fill-opacity:1;fill-rule:nonzero;stroke:none"
         d="m 9244.25,11790.3 c 0,0 27.56,-34 33.96,-47.4 6.39,-13.4 14.27,-136.3 17.12,-167.3 2.86,-31.1 -4.03,-73.5 -3.62,-88.6 0.42,-15.1 4.94,-107.4 1.91,-143.6 -3.03,-36.3 -39.37,-178 -51.42,-215.5 -12.04,-37.5 -29.78,-87.3 -47.59,-97.8 -17.8,-10.5 -97.03,-16.7 -167.9,2.5 -70.88,19.1 -211.01,108.8 -249.51,157 -38.5,48.2 -36.27,150.8 -36.27,150.8 0,0 -28.9,-8.9 -59.86,20.4 -30.95,29.3 -80.93,93.3 -72.86,165.9 8.07,72.6 64.02,48 92.94,19.6 28.91,-28.4 31.12,-72.5 37.17,-73.4 6.06,-0.8 12.03,1.4 15.01,2.5 2.99,1 15.02,75.8 15.62,90.9 0.59,15 -4.89,105.3 -2.96,108.4 1.93,3.1 74.28,95.5 98.14,105.2 23.86,9.7 380.12,10.4 380.12,10.4" /><path
         id="path310"
         style="fill:#2f1d16;fill-opacity:1;fill-rule:nonzero;stroke:none"
         d="m 8753.33,11475.4 c 0,0 16.83,52.7 25.01,81.6 8.19,29 -0.38,67.2 7.36,73.5 7.74,6.2 22.25,23.9 20.1,45.7 -2.16,21.8 -2.16,21.8 -2.16,21.8 0,0 -1.22,19.2 28.24,30.2 29.48,11 41.89,47.1 41.89,47.1 0,0 75.06,0.5 103.83,1.9 28.78,1.4 90.73,2.6 124.77,2.3 34.04,-0.2 135.3,-1 138.81,-1.8 3.5,-0.8 37.03,-34.8 37.03,-34.8 0,0 -0.91,63.4 -8.79,65 -7.89,1.6 -1.36,26.2 -109.65,29.4 -108.29,3.2 -175.19,33.4 -262.62,-4.9 -87.44,-38.3 -100.87,-20.2 -133.23,-63.6 -32.36,-43.3 -63.26,-118.1 -53.98,-147.6 9.28,-29.5 43.39,-145.8 43.39,-145.8" /><path
         id="path312"
         style="fill:#989d9e;fill-opacity:1;fill-rule:nonzero;stroke:none"
         d="m 5148.83,6862.3 857.85,150.7 c 0,0 11.59,52.2 -23.18,89.9 l -834.67,-142 v -98.6" /><path
         id="path314"
         style="fill:#1d1b1a;fill-opacity:1;fill-rule:nonzero;stroke:none"
         d="m 5555.63,6409.4 c 128.38,115.2 200.11,329.5 171.69,563.5 -33.99,280 -200.38,498.2 -394.4,540.6 -227.73,64.4 -396.03,-58.2 -396.03,-58.2 v -61.6 c 0,0 -4.54,-46.5 -8.84,-120 -52.62,-112.9 -75.55,-254.8 -57.34,-404.8 12.38,-102 42.34,-195.7 84.78,-275.8 29.3,-141.6 81.03,-250.6 169.35,-269.6 122.36,-26.4 218.67,-14.6 288.98,7.6 42.01,11.1 81.11,30.7 116.54,57.5 16.77,12.2 25.26,20.8 25.27,20.8" /><path
         id="path316"
         style="fill:#343434;fill-opacity:1;fill-rule:nonzero;stroke:none"
         d="m 5587.17,6968.1 c 40.09,-330.2 -119.16,-621.2 -355.71,-649.9 -236.55,-28.7 -460.81,215.7 -500.9,545.9 -40.1,330.2 119.16,621.1 355.7,649.9 236.55,28.7 460.82,-215.7 500.91,-545.9" /><path
         id="path318"
         style="fill:#b3613c;fill-opacity:1;fill-rule:nonzero;stroke:none"
         d="m 3334.6,7746.3 c 0,0 5.8,-107.3 0,-171 -5.79,-63.8 -78.25,-243.7 -78.25,-243.7 0,0 49.27,-202.6 -26.08,-379.4 -75.35,-176.8 -162.3,-579.7 -162.3,-579.7 0,0 -142,-26.8 -156.5,-55.4 -14.48,-28.6 -23.18,-127.1 -23.18,-127.1 l -89.84,-17.4 c 0,0 28.16,240.5 15.52,457.9 -12.62,217.3 -41.61,510.1 -32.91,524.5 8.7,14.5 128.73,875.3 128.73,875.3 0,0 112.79,66.6 148.53,52.1 35.74,-14.5 186.44,118.9 258.89,14.5 72.46,-104.3 92.75,-92.7 89.85,-150.7 -2.9,-57.9 -72.46,-199.9 -72.46,-199.9" /><path
         id="path320"
         style="fill:#d3d4d1;fill-opacity:1;fill-rule:nonzero;stroke:none"
         d="m 5274.79,6925.9 c 3.58,-91.2 -57.21,-167.6 -135.78,-170.7 -78.57,-3.1 -145.16,68.3 -148.74,159.5 -3.58,91.2 57.21,167.6 135.78,170.7 78.56,3 145.16,-68.3 148.74,-159.5" /><path
         id="path322"
         style="fill:#100f0d;fill-opacity:1;fill-rule:nonzero;stroke:none"
         d="m 3557.76,7662.2 84.05,-121.7 c 0,0 249.23,115.9 310.09,176.8 60.86,60.8 -60.86,237.6 -130.41,228.9 -69.56,-8.7 -234.75,0 -243.44,-60.8 -8.7,-60.9 -20.29,-223.2 -20.29,-223.2" /><path
         id="path324"
         style="fill:#252323;fill-opacity:1;fill-rule:nonzero;stroke:none"
         d="m 3925.1,6529 c 0,0 -102.16,-54.3 -106.51,-60.8 -4.35,-6.5 -43.47,-271.7 -43.47,-302.1 0,-30.5 69.55,-73.9 165.19,-84.8 95.64,-10.9 180.41,-65.2 289.09,-87 108.68,-21.7 321.69,8.7 332.56,93.5 10.87,84.8 -189.1,141.3 -247.79,202.2 -58.69,60.8 -150.7,279.6 -150.7,279.6 l -105.78,77 L 3925.1,6529" /><path
         id="path326"
         style="fill:#252323;fill-opacity:1;fill-rule:nonzero;stroke:none"
         d="m 2857.86,6246.5 c 0,0 -95.64,-78.3 -99.98,-87 -4.35,-8.7 -21.74,-288.3 -15.95,-299.9 5.8,-11.6 85.5,-29 92.74,-37.7 7.25,-8.7 56.52,-65.2 269.53,-89.8 213.01,-24.7 266.63,26 246.34,117.3 -20.29,91.3 -144.91,201.5 -169.54,253.6 -24.63,52.2 -18.84,198.5 -44.92,227.5 -26.08,29 -68.11,42 -68.11,42 0,0 -97.08,39.2 -117.37,24.7 -20.29,-14.5 -92.74,-150.7 -92.74,-150.7" /><path
         id="path328"
         style="fill:#c37140;fill-opacity:1;fill-rule:nonzero;stroke:none"
         d="m 3650.65,7761.1 c 0,0 134.34,-61.2 317.78,-78.6 183.45,-17.4 270.39,-107.2 273.29,-115.9 2.89,-8.7 -170.99,-142 -202.87,-333.3 -31.88,-191.3 -60.86,-420.2 -127.52,-579.6 -66.66,-159.4 -72.45,-202.9 -72.45,-202.9 l 34.78,-60.9 127.51,52.2 c 0,0 23.19,92.7 34.78,101.4 11.59,8.7 127.52,26.1 127.52,26.1 l 385.45,715.9 c 0,0 144.91,249.2 173.89,388.3 28.98,139.1 -352.13,542 -352.13,542 0,0 -201.42,78.2 -337.63,52.1 -136.21,-26.1 -408.64,35.4 -475.29,-127.2 -66.66,-162.6 -92.74,-249.5 -66.66,-272.7 26.08,-23.2 159.55,-106.9 159.55,-106.9" /><path
         id="path330"
         style="fill:#252323;fill-opacity:1;fill-rule:nonzero;stroke:none"
         d="m 2918.72,8741.8 c 0,0 -143.46,-39.2 -213.01,-82.6 -69.56,-43.5 -182.58,-200 -205.77,-229 -23.18,-29 -78.25,-220.2 -81.15,-301.4 -2.9,-81.1 286.92,-475.3 286.92,-475.3 0,0 147.8,217.4 156.5,234.8 8.69,17.4 34.78,-37.7 98.53,-34.8 63.76,2.9 144.91,118.8 269.53,127.5 0,0 55.07,-52.2 75.35,-113 20.29,-60.9 14.49,-118.8 28.98,-121.7 14.49,-2.9 307.21,-214.5 307.21,-205.8 0,8.7 -68.76,165.2 78.64,327.5 147.41,162.3 341.59,284 440.12,310.1 98.54,26.1 220.26,26.1 210.11,37.7 -10.14,11.6 -181.13,197 -181.13,197 0,0 -645.38,54.9 -716.84,102.8 -71.45,47.9 -553.99,226.2 -553.99,226.2" /><path
         id="path332"
         style="fill:#c37140;fill-opacity:1;fill-rule:nonzero;stroke:none"
         d="m 4501.1,9320 126.07,-93.5 c 0,0 147.81,-63.1 210.84,-215.2 63.03,-152.2 -30.43,-393.4 -30.43,-393.4 0,0 -2.17,-171.7 -26.09,-308.7 -23.91,-136.9 -23.91,-136.9 -23.91,-136.9 0,0 52.17,-141.3 43.47,-326.1 -8.69,-184.7 -32.6,-367.3 -43.47,-476 -10.86,-108.6 -15.21,-219.5 -15.21,-219.5 l -121.72,-10.9 c 0,0 -60.86,317.4 -80.43,489.1 -19.56,171.7 -84.77,469.5 -95.64,549.9 -10.86,80.4 -13.04,265.2 -13.04,265.2 0,0 32.57,553.9 27.16,617.6 -5.42,63.7 42.4,258.4 42.4,258.4" /><path
         id="path334"
         style="fill:#e9eef1;fill-opacity:1;fill-rule:nonzero;stroke:none"
         d="m 3796.86,9433 c 0,0 -86.95,-30.5 -173.89,-82.6 -86.95,-52.2 -391.25,-517.3 -391.25,-517.3 l -147.8,26 -165.2,-117.3 c 0,0 -52.17,-121.8 95.64,-308.7 147.8,-186.9 339.08,-282.6 591.22,-291.2 252.13,-8.7 395.59,166.6 476.74,169.5 81.15,2.9 194.17,17.4 288.36,46.4 94.19,28.9 219.25,166.3 219.25,166.3 0,0 -14.93,352.4 -23.62,482.9 -8.7,130.4 -65.21,313 -65.21,313 l -95.64,54.3 -608.6,58.7" /><path
         id="path336"
         style="fill:#c37140;fill-opacity:1;fill-rule:nonzero;stroke:none"
         d="m 3977.08,9642.4 -23.73,-126.8 -156.49,-82.6 c 0,0 69.55,-143.5 63.03,-382.6 -6.52,-239.1 36.95,-495.6 263.01,-523.8 226.05,-28.3 299.95,191.3 330.38,382.5 30.43,191.3 -47.82,465.2 -47.82,465.2 l -34.78,21.7 v 152.2 c 0,0 -158.67,184.7 -210.84,219.5 -52.16,34.8 -89.11,73.9 -115.2,56.5 -26.08,-17.4 -34.77,-17.4 -36.94,-36.9 -2.18,-19.6 -30.62,-144.9 -30.62,-144.9" /><path
         id="path338"
         style="fill:#a45330;fill-opacity:1;fill-rule:nonzero;stroke:none"
         d="m 4047.55,9695.7 c 0,0 1.44,-132.3 55.78,-204 54.34,-71.8 223.88,-117.4 223.88,-117.4 V 9246 l 43.47,150 v 152.2 l -323.13,147.5" /><path
         id="path340"
         style="fill:#a45330;fill-opacity:1;fill-rule:nonzero;stroke:none"
         d="m 4711.94,8644 -122.01,-119.9 -2.59,59.9 z" /><path
         id="path342"
         style="fill:#c37140;fill-opacity:1;fill-rule:nonzero;stroke:none"
         d="m 3651.79,9366.9 c 0,0 103.04,-255.6 56.67,-513.6 -46.37,-257.9 -330.38,-397 -330.38,-397 0,0 -28.99,-194.2 -136.21,-362.3 -107.24,-168.1 -217.37,-237.6 -217.37,-237.6 0,0 -46.84,-260.8 -114.71,-504.3 -67.87,-243.4 -67.87,-437.6 -67.87,-437.6 l -185.48,11.6 c 0,0 0,510.1 0,660.8 0,150.7 31.88,214.4 34.78,284 2.9,69.5 63.76,156.5 78.25,191.3 14.49,34.7 75.35,168.1 98.53,313 23.19,144.9 165.2,339 165.2,339 0,0 37.67,208.7 121.72,295.6 84.04,87 170.99,133.4 170.99,133.4 0,0 214.15,195.3 325.88,223.7" /><path
         id="path344"
         style="fill:#a45330;fill-opacity:1;fill-rule:nonzero;stroke:none"
         d="m 2960.74,8299.8 c 0,0 -78.24,14.5 -50.95,113 l 50.95,-113" /><path
         id="path346"
         style="fill:#a45330;fill-opacity:1;fill-rule:nonzero;stroke:none"
         d="m 2781.06,7946.2 c 0,0 63.76,-60.8 43.47,-156.5 0,0 72.46,153.6 -43.47,156.5" /><path
         id="path348"
         style="fill:#dad9d8;fill-opacity:1;fill-rule:nonzero;stroke:none"
         d="m 3908.4,6646.6 c -63.85,-153.5 -69.52,-195.8 -69.52,-195.8 l 34.78,-60.9 127.51,52.2 c 0,0 23.19,92.7 34.78,101.4 11.59,8.7 127.52,26.1 127.52,26.1 l 22.19,41.2 c -102.4,3.2 -209.62,21.9 -277.26,35.8" /><path
         id="path350"
         style="fill:#dad9d8;fill-opacity:1;fill-rule:nonzero;stroke:none"
         d="m 2816.74,6460 c -2.95,-156.2 -18.29,-287.4 -18.29,-287.4 l 89.84,17.4 c 0,0 8.69,98.5 23.18,127.1 14.5,28.6 156.5,55.4 156.5,55.4 0,0 7.93,36.8 21.06,92.8 -81.09,-7.9 -191.85,-7.3 -272.29,-5.3" /><path
         id="path352"
         style="fill:#989d9e;fill-opacity:1;fill-rule:nonzero;stroke:none"
         d="m 2424.59,6587 2724.24,373.9 c 0,0 55.07,-52.2 0,-98.6 l -2811.18,-397 c 0,0 -47.43,103.3 86.94,121.7" /><path
         id="path354"
         style="fill:#c37140;fill-opacity:1;fill-rule:nonzero;stroke:none"
         d="m 2656.44,6926.1 c 0,0 -21.74,-72.5 -56.51,-131.9 -34.78,-59.4 -27.49,-156.4 -32.58,-187.6 -5.1,-31.2 -16.27,-99.4 -15.03,-110.9 1.23,-11.6 36.01,-17.4 36.01,-17.4 0,0 18.84,-30.4 31.88,-34.7 13.05,-4.4 26.09,0 26.09,0 0,0 17.39,-24.7 31.87,-29 14.5,-4.4 40.58,0 40.58,0 0,0 56.51,-14 72.45,-2 15.94,12.1 105.43,123.2 103.43,131.4 -1.99,8.2 -10.68,150.2 -12.13,183.6 -1.46,33.3 -40.58,186.9 -40.58,186.9 0,0 -57.96,56.5 -82.59,52.2 -24.64,-4.4 -102.89,-40.6 -102.89,-40.6" /><path
         id="path356"
         style="fill:#a45330;fill-opacity:1;fill-rule:nonzero;stroke:none"
         d="m 2588.33,6478.3 c 0,0 7.06,-11.3 15.52,-21.2 l 52.59,95.1 -68.11,-73.9" /><path
         id="path358"
         style="fill:#a45330;fill-opacity:1;fill-rule:nonzero;stroke:none"
         d="m 2664.19,6423.4 51.66,104.2 -69.55,-84 c 0,0 8.12,-11.5 17.89,-20.2" /><path
         id="path360"
         style="fill:#a45330;fill-opacity:1;fill-rule:nonzero;stroke:none"
         d="m 2772.37,6516 -53.62,-101.4 c 0,0 12.25,-3 26.92,-5.1 l 26.7,106.5" /><path
         id="path362"
         style="fill:#c37140;fill-opacity:1;fill-rule:nonzero;stroke:none"
         d="m 4616.13,7163.7 c 0,0 -58.52,-136.2 -75.91,-160.8 -17.38,-24.6 -17.72,-128 -17.72,-128 h 84.38 c 0,0 6.9,-56 9.25,-67.6 2.35,-11.6 -46.81,-26.8 -46.81,-26.8 0,0 30.32,-38.4 59.3,-45.7 28.98,-7.2 56.51,4.4 62.31,0 5.79,-4.3 34.78,-13.6 55.06,-2.4 0,0 33.33,-6.3 47.82,2.4 14.49,8.7 36.23,16 39.12,20.3 2.9,4.3 32.09,113 26.92,144.9 -5.18,31.9 -117.48,250.7 -117.48,250.7 0,0 -65.93,49.3 -76.08,49.3 -10.14,0 -50.16,-36.3 -50.16,-36.3" /><path
         id="path364"
         style="fill:#a45330;fill-opacity:1;fill-rule:nonzero;stroke:none"
         d="m 4724.38,6833.3 -33.45,-98.5 c 2.29,-1.7 8.24,-4.2 15.83,-5.9 l 17.62,104.4" /><path
         id="path366"
         style="fill:#a45330;fill-opacity:1;fill-rule:nonzero;stroke:none"
         d="m 4807.52,6814.1 -13.71,-79.3 c 5.52,3.3 12.09,6.4 18.27,9.2 l -4.56,70.1" /><path
         id="path368"
         style="fill:#a45330;fill-opacity:1;fill-rule:nonzero;stroke:none"
         d="m 4769.18,6817.4 -23.18,-85 c 0,0 8.29,-1.6 18.39,-2.1 l 4.79,87.1" /><path
         id="path370"
         style="fill:#e58d60;fill-opacity:1;fill-rule:nonzero;stroke:none"
         d="m 4691.48,7731 c 23.88,-87 -142.56,-445.5 -142.56,-445.5 0,0 144.91,249.2 173.89,388.3 28.98,139.1 -352.13,542 -352.13,542 0,0 296.93,-397.7 320.8,-484.8" /><path
         id="path372"
         style="fill:#1d1b1a;fill-opacity:1;fill-rule:nonzero;stroke:none"
         d="m 2242.04,5818.8 c 152.75,137.1 238.08,392 204.27,670.4 -40.44,333.1 -238.41,592.8 -469.24,643.2 -270.96,76.6 -471.19,-69.3 -471.19,-69.3 v -73.2 c 0,0 -5.4,-55.3 -10.52,-142.8 -62.61,-134.4 -89.9,-303.2 -68.23,-481.7 14.74,-121.3 50.38,-232.8 100.87,-328.1 34.87,-168.5 96.41,-298.1 201.5,-320.8 145.58,-31.4 260.16,-17.3 343.81,9.1 50,13.2 96.51,36.6 138.66,68.4 19.95,14.5 30.05,24.7 30.07,24.8" /><path
         id="path374"
         style="fill:#434244;fill-opacity:1;fill-rule:nonzero;stroke:none"
         d="m 2279.56,6483.5 c 47.71,-392.9 -141.77,-739.1 -423.21,-773.3 -281.44,-34.1 -548.26,256.6 -595.96,649.5 -47.71,392.9 141.77,739 423.21,773.2 281.44,34.2 548.26,-256.6 595.96,-649.4" /><path
         id="path376"
         style="fill:#343434;fill-opacity:1;fill-rule:nonzero;stroke:none"
         d="m 2279.56,6483.5 c 43.28,-356.4 -128.62,-670.5 -383.94,-701.5 -255.32,-31 -497.39,232.8 -540.66,589.2 -43.28,356.4 128.62,670.5 383.94,701.5 255.32,31 497.38,-232.8 540.66,-589.2" /><path
         id="path378"
         style="fill:#d3d4d1;fill-opacity:1;fill-rule:nonzero;stroke:none"
         d="m 1930.53,6443.8 c 5.06,-64.2 -37.4,-119.9 -94.84,-124.5 -57.44,-4.5 -108.12,43.9 -113.18,108.1 -5.07,64.2 37.39,119.9 94.83,124.5 57.45,4.5 108.12,-43.9 113.19,-108.1" /><path
         id="path380"
         style="fill:#989d9e;fill-opacity:1;fill-rule:nonzero;stroke:none"
         d="m 1817.26,6493.9 -985.151,-152.7 16.496,-93 987.435,144.4 c 28.02,57 -18.78,101.3 -18.78,101.3" /><path
         id="path382"
         style="fill:#d3d4d1;fill-opacity:1;fill-rule:nonzero;stroke:none"
         d="m 878.164,6301.4 c 4.555,-25.7 -8.676,-49.5 -29.559,-53.2 -20.886,-3.7 -41.503,14.1 -46.062,39.8 -4.555,25.7 8.684,49.5 29.566,53.2 20.879,3.7 41.504,-14.1 46.055,-39.8" /><path
         id="path384"
         style="fill:#2f1d16;fill-opacity:1;fill-rule:nonzero;stroke:none"
         d="m 4564.79,10293.3 c -7.28,15.6 3.56,42.8 -21.66,67.7 -25.22,24.9 -56.13,32.1 -56.13,32.1 0,0 -25.77,27.5 -58.21,32.1 -32.44,4.6 -61.12,1.5 -61.12,1.5 0,0 -24.69,13.5 -66.61,14.4 -41.91,1 -79.05,-19.8 -95.6,-21.8 -16.54,-2.1 -49.69,-2.7 -68.82,-6.5 -19.14,-3.9 -56.34,-21.2 -62.37,-25.6 -6.03,-4.5 -38.88,-2.1 -76.17,-17.9 -37.29,-15.8 -61.14,-61.5 -61.14,-61.5 0,0 -25.89,-15.3 -35.4,-19.9 -0.1,0 -0.22,-0.1 -0.31,-0.2 -0.57,-0.3 -1.93,-1.2 -3.91,-2.7 -6.43,-5.3 -15.82,-16.2 -25.78,-28.5 -19.36,-28.7 -41.58,-80.7 -45.2,-170.6 -6.61,-164.1 108.65,-367.5 151.42,-438.9 l 117.38,176.8 479.18,317.2 c 0,0 6.77,25.7 3.01,39.9 -3.75,14.3 9.19,37.8 8.02,65.6 -1.17,27.8 -13.31,31.2 -20.58,46.8" /><path
         id="path386"
         style="fill:#c37140;fill-opacity:1;fill-rule:nonzero;stroke:none"
         d="m 4540.38,10188.4 c 0,0 27.55,-34 33.96,-47.4 6.39,-13.4 14.26,-136.3 17.12,-167.3 2.85,-31.1 -4.03,-73.5 -3.62,-88.6 0.41,-15.1 4.93,-107.4 1.9,-143.7 -3.03,-36.2 -39.37,-177.9 -51.41,-215.4 -12.05,-37.5 -29.79,-87.3 -47.59,-97.8 -17.81,-10.5 -97.03,-16.7 -167.91,2.5 -70.88,19.1 -211.01,108.8 -249.51,157 -38.5,48.2 -36.27,150.8 -36.27,150.8 0,0 -28.9,-8.9 -59.85,20.4 -30.95,29.3 -80.94,93.3 -72.86,165.9 8.07,72.6 64.01,48 92.93,19.6 28.91,-28.4 31.12,-72.5 37.17,-73.4 6.06,-0.8 12.03,1.4 15.01,2.5 2.99,1.1 15.03,75.7 15.62,90.8 0.59,15.1 -4.88,105.4 -2.96,108.5 1.93,3.1 74.29,95.5 98.14,105.2 23.86,9.7 380.13,10.4 380.13,10.4" /><path
         id="path388"
         style="fill:#2f1d16;fill-opacity:1;fill-rule:nonzero;stroke:none"
         d="m 4049.45,9873.5 c 0,0 16.83,52.7 25.02,81.6 8.19,29 -0.39,67.2 7.36,73.5 7.73,6.2 22.24,24 20.09,45.7 -2.15,21.8 -2.15,21.8 -2.15,21.8 0,0 -1.23,19.2 28.24,30.2 29.47,11 41.89,47.1 41.89,47.1 0,0 75.05,0.5 103.83,1.9 28.77,1.4 90.72,2.6 124.76,2.3 34.04,-0.2 135.3,-1 138.81,-1.8 3.51,-0.8 37.04,-34.8 37.04,-34.8 0,0 -0.91,63.4 -8.8,65 -7.88,1.6 -1.36,26.2 -109.65,29.4 -108.28,3.2 -175.18,33.4 -262.62,-4.9 -87.44,-38.3 -100.87,-20.2 -133.23,-63.6 -32.35,-43.3 -63.25,-118.1 -53.98,-147.6 9.28,-29.5 43.39,-145.8 43.39,-145.8" /></g></g></svg>