<?xml version="1.0" encoding="UTF-8" standalone="no"?>
<svg
   xmlns:dc="http://purl.org/dc/elements/1.1/"
   xmlns:cc="http://creativecommons.org/ns#"
   xmlns:rdf="http://www.w3.org/1999/02/22-rdf-syntax-ns#"
   xmlns:svg="http://www.w3.org/2000/svg"
   xmlns="http://www.w3.org/2000/svg"
   viewBox="0 0 2666.6667 2666.6667"
   height="2666.6667"
   width="2666.6667"
   xml:space="preserve"
   id="svg2"
   version="1.1"><metadata
     id="metadata8"><rdf:RDF><cc:Work
         rdf:about=""><dc:format>image/svg+xml</dc:format><dc:type
           rdf:resource="http://purl.org/dc/dcmitype/StillImage" /></cc:Work></rdf:RDF></metadata><defs
     id="defs6" /><g
     transform="matrix(1.3333333,0,0,-1.3333333,0,2666.6667)"
     id="g10"><g
       transform="scale(0.1)"
       id="g12"><g
         transform="scale(1.22699)"
         id="g14"><path
           id="path16"
           style="fill:none;fill-opacity:1;fill-rule:nonzero;stroke:none"
           d="M 16300,0 H 0 V 16300 H 16300 V 0" /></g><path
         id="path18"
         style="fill:#4c4d4e;fill-opacity:1;fill-rule:nonzero;stroke:none"
         d="m 4549.2,6225.1 c 0,-547 -406.12,-990.5 -907.1,-990.5 -500.97,0 -907.09,443.5 -907.09,990.5 0,547 406.12,990.5 907.09,990.5 500.98,0 907.1,-443.5 907.1,-990.5" /><path
         id="path20"
         style="fill:#c37140;fill-opacity:1;fill-rule:nonzero;stroke:none"
         d="m 2812.19,7274.9 c 27.09,0 582.52,-47.8 624.33,-77.6 41.81,-29.9 -131.39,-209.1 -173.2,-430.1 -41.81,-220.9 107.51,-322.5 107.51,-322.5 0,0 806.27,364.3 800.3,382.3 -5.97,17.9 41.87,453.9 0.04,603.2 -41.84,149.3 -239.89,258.1 -243.08,296.7 -3.18,38.6 -357.19,196 -357.19,196 l -98.55,116.5 -495.71,-203.1 c 0,0 -155.7,-334.5 -164.45,-358.3 -8.75,-23.9 0,-203.1 0,-203.1" /><path
         id="path22"
         style="fill:#a45634;fill-opacity:1;fill-rule:nonzero;stroke:none"
         d="m 3759.03,6838.9 c 0,40.3 156.78,497.2 152.3,528.6 -4.48,31.3 16.76,359.4 16.76,359.4 l 166.89,-422.1 -62.71,-250.9 -62.71,-215 -58.23,-62.7 -152.3,62.7" /><path
         id="path24"
         style="fill:#252323;fill-opacity:1;fill-rule:nonzero;stroke:none"
         d="m 2424.19,8679.9 c 0,0 -456.89,-107.5 -588.29,-311.3 -131.39,-203.8 -101.52,-520.3 262.79,-807 364.32,-286.7 728.64,-465.9 728.64,-465.9 0,0 155.28,448 316.54,627.1 161.26,179.2 328.48,316.6 328.48,316.6 0,0 83.62,59.7 -101.52,226.9 -185.15,167.3 -946.64,413.6 -946.64,413.6" /><path
         id="path26"
         style="fill:#100f0d;fill-opacity:1;fill-rule:nonzero;stroke:none"
         d="m 2812.19,8278.7 c 0,0 -193.89,72.7 -426.82,89.9 -232.93,17.2 -232.93,17.2 -232.93,17.2 l 329.88,65.7 49.37,125.4 280.5,-298.2" /><path
         id="path28"
         style="fill:#e9eef1;fill-opacity:1;fill-rule:nonzero;stroke:none"
         d="m 4628.02,9072.6 -152.29,69.2 c 0,0 -210.53,40.9 -528.57,0 -318.03,-40.8 -761.48,-224.5 -963.05,-287.2 -201.57,-62.7 -559.92,-174.7 -559.92,-174.7 0,0 161.25,-237.4 259.8,-322.5 98.55,-85.1 228.45,-116.5 367.31,-156.8 138.86,-40.3 519.6,-277.7 519.6,-277.7 l 425.54,31.4 452.41,555.4 289.67,129.7 126.73,309 c 0,0 97.53,161.3 8.54,143.5 -88.99,-17.8 -245.77,-19.3 -245.77,-19.3" /><path
         id="path30"
         style="fill:#c37140;fill-opacity:1;fill-rule:nonzero;stroke:none"
         d="m 4864.59,9176.9 c 0,0 -114.13,-16.6 -209.69,-35.1 -95.56,-18.4 -179.17,0 -179.17,0 0,0 209.03,-203.6 250.84,-257.3 41.81,-53.8 11.95,-245.1 11.95,-245.1 l 288.09,61 94.76,459.6 c 0,0 -114.09,20.1 -149.93,29.1 -35.83,8.9 -106.85,-12.2 -106.85,-12.2" /><path
         id="path32"
         style="fill:#c37140;fill-opacity:1;fill-rule:nonzero;stroke:none"
         d="m 4368.22,8975.5 c 0,0 -265.77,40.4 -474.81,-117.9 -255.11,-193.2 -183.65,-495.7 -134.38,-558.4 49.28,-62.7 152.3,-67.2 152.3,-67.2 0,0 17.92,-143.4 8.96,-309.1 -8.96,-165.7 53.75,-546.5 44.79,-568.9 -8.96,-22.4 -76.14,-277.7 -89.58,-452.4 -13.44,-174.7 -22.4,-206 -22.4,-206 0,0 318.03,-76.2 309.07,-62.7 -8.96,13.4 143.34,255.3 179.18,447.9 35.83,192.6 134.38,752.5 134.38,815.2 0,62.7 143.34,241.9 165.73,376.3 22.4,134.4 4.48,219.5 22.4,241.9 17.92,22.4 106.33,101.4 93.55,210.5 -12.78,109.1 -245.9,216.5 -389.19,250.8" /><path
         id="path34"
         style="fill:#a45634;fill-opacity:1;fill-rule:nonzero;stroke:none"
         d="m 3911.33,8232 c 0,0 0,107.5 0,152.3 0,44.8 -62.71,120.9 -62.71,120.9 0,0 17.92,-53.7 0,-107.5 -17.92,-53.7 -89.59,-98.5 -89.59,-98.5 0,0 13.44,-44.8 152.3,-67.2" /><path
         id="path36"
         style="fill:#606163;fill-opacity:1;fill-rule:nonzero;stroke:none"
         d="m 4608.87,5885.8 c 0,-547.1 -443.46,-990.5 -990.49,-990.5 -547.03,0 -990.48,443.4 -990.48,990.5 0,547 443.45,990.4 990.48,990.4 547.03,0 990.49,-443.4 990.49,-990.4" /><path
         id="path38"
         style="fill:#898b8b;fill-opacity:1;fill-rule:nonzero;stroke:none"
         d="m 3618.38,6788.1 c 532.25,0 966.29,-419.9 989.37,-946.4 0.64,14.6 1.12,29.3 1.12,44.1 0,547 -443.46,990.4 -990.49,990.4 -547.03,0 -990.48,-443.4 -990.48,-990.4 0,-14.8 0.47,-29.5 1.11,-44.1 23.08,526.5 457.13,946.4 989.37,946.4" /><path
         id="path40"
         style="fill:#d3d2d0;fill-opacity:1;fill-rule:nonzero;stroke:none"
         d="m 3878.18,5879.9 c 0,143.5 -116.31,259.8 -259.8,259.8 -143.48,0 -259.8,-116.3 -259.8,-259.8 0,-143.5 116.32,-259.8 259.8,-259.8 143.49,0 259.8,116.3 259.8,259.8" /><path
         id="path42"
         style="fill:#9a9a9a;fill-opacity:1;fill-rule:nonzero;stroke:none"
         d="m 3618.38,6074 c -132.33,0 -241.32,-99 -257.5,-227 -1.36,10.8 -2.3,21.7 -2.3,32.9 0,143.5 116.31,259.8 259.8,259.8 143.49,0 259.8,-116.3 259.8,-259.8 0,-11.2 -0.93,-22.1 -2.3,-32.9 -16.18,128 -125.17,227 -257.5,227" /><path
         id="path44"
         style="fill:#9a9a9a;fill-opacity:1;fill-rule:nonzero;stroke:none"
         d="m 3573.59,5739.5 -83.62,-40.3 V 5873 c 0,0 42.92,90.5 142.4,81.6 99.49,-9 111.43,-92.6 111.43,-92.6 v -162.8 l -170.21,40.3" /><path
         id="path46"
         style="fill:#d3d2d0;fill-opacity:1;fill-rule:nonzero;stroke:none"
         d="m 3743.8,5699.2 c 0,63.5 -56.82,115 -126.92,115 -70.08,0 -126.91,-51.5 -126.91,-115 0,-63.5 56.83,-114.9 126.91,-114.9 70.1,0 126.92,51.4 126.92,114.9" /><path
         id="path48"
         style="fill:#a45634;fill-opacity:1;fill-rule:nonzero;stroke:none"
         d="m 5048.8,9105.7 c 0,0 -83.95,-99.8 -96.38,-108.7 -12.43,-8.9 -9.9,-215.6 -5.75,-225.6 4.16,-10 69.82,-71.9 69.82,-71.9 l 174.06,18.2 -141.75,388" /><path
         id="path50"
         style="fill:#2f1d16;fill-opacity:1;fill-rule:nonzero;stroke:none"
         d="m 5631.78,9249.5 c 94.53,54.8 62.55,143.4 46.99,178.7 -15.56,35.3 -3.52,63.1 -74.24,150.9 -70.73,87.8 -126.9,73.1 -155.89,94.9 -28.99,21.9 -110.49,46.4 -175.97,66.7 -65.48,20.3 -115.29,-11.2 -142.2,-12.6 0,0 -128.42,52.5 -245.2,-124.2 -116.78,-176.6 -121.32,-313.5 -134.1,-442.7 0,0 280.08,-14.7 334.69,-3.6 52.94,-43.2 137.7,-110.9 144.65,-106.9 10.18,5.9 344.82,180 344.82,180 l 48.13,12.8 c 0,0 4.16,0.2 10.73,1.5 l -2.41,4.5" /><path
         id="path52"
         style="fill:#c37140;fill-opacity:1;fill-rule:nonzero;stroke:none"
         d="m 5631.78,9249.5 c 0,0 -34.73,-134 -46.84,-162.1 -12.11,-28.2 -79.31,-92.3 -86.3,-105.1 -6.98,-12.7 -27.38,-182.5 -34.57,-188.6 -7.2,-6.2 -61.13,21.3 -65.86,18.4 -4.72,-2.9 -42.1,-44.3 -44.11,-49.5 -2.02,-5.3 -10.17,-13.6 -10.17,-13.6 0,0 -10.15,-21.3 -20.8,-27.8 -10.65,-6.5 -23.91,-21.6 -29.77,-26.9 -5.86,-5.2 -55.01,-73.5 -70.64,-77.2 -15.63,-3.7 -189.27,127.3 -207.19,149.7 -17.92,22.4 -32,200.2 -25.66,232.7 6.35,32.5 58.93,106.2 58.93,106.2 0,0 -51.28,55.1 -38.59,120.1 12.7,65.1 82.76,145 141.21,121.8 58.45,-23.2 33.43,-104.7 26.26,-126.3 -7.18,-21.6 -14.76,-50.6 -13.52,-54.1 1.23,-3.5 42.78,31.6 73,51.3 30.22,19.8 80.1,105.2 109.7,129.3 29.6,24.1 92.34,27.2 115.39,20.2 23.05,-6.9 169.53,-118.5 169.53,-118.5" /><path
         id="path54"
         style="fill:#2f1d16;fill-opacity:1;fill-rule:nonzero;stroke:none"
         d="m 5164.16,9167.2 c 0,0 18.8,-9.2 26.62,-1 7.81,8.3 71.36,67.2 71.36,67.2 0,0 37.06,3.7 55.88,40.6 18.81,37 19.88,45.3 47.93,49.1 28.06,3.7 51.79,51.1 74.05,48 22.25,-3.1 124.15,-68.6 124.15,-68.6 0,0 89.36,22.2 17.86,77 -71.5,54.8 -155.73,97.8 -213.8,91.6 -58.07,-6.1 -45.97,42.2 -78.92,-30.4 -32.96,-72.6 -125.13,-273.5 -125.13,-273.5" /><path
         id="path56"
         style="fill:#2f1d16;fill-opacity:1;fill-rule:nonzero;stroke:none"
         d="m 5047.25,9731.3 c 0,0 42.01,15 62.44,16.4 20.44,1.3 52,19.2 72.08,17.7 20.08,-1.4 45.33,-6.3 49.84,-6.3 4.5,-0.1 53,9.5 83.77,-5.2 30.77,-14.6 49.78,-24.3 57.74,-28.2 7.94,-3.8 61.94,-8.5 93.74,-28.3 31.79,-19.9 31.43,-22.6 46.64,-31.3 15.21,-8.7 61.51,-29.4 108.1,-83.2 46.58,-53.7 57.17,-154.7 57.17,-154.7 l -244.89,25.2 -280.5,95 -106.13,182.9" /><g
         transform="scale(1.09248)"
         id="g58"><path
           id="path60"
           style="fill:#100f0d;fill-opacity:1;fill-rule:nonzero;stroke:none"
           d="m 15517.2,5275.22 c 34.5,10.81 102.2,61.51 163.7,45.13 61.5,-16.48 120.9,-139.41 297.2,-205.04 176.4,-65.63 225.5,-53.27 270.6,-82.01 45.2,-28.74 51.3,-84.03 51.3,-84.03 l -381.3,-90.26 -469.5,129.16 18.5,270.67 49.5,16.38" /></g><g
         transform="scale(1.09578)"
         id="g62"><path
           id="path64"
           style="fill:#252323;fill-opacity:1;fill-rule:nonzero;stroke:none"
           d="m 15257.6,5122.38 -51.1,28.66 c 0,0 -63.9,8.12 -69.8,-67.44 -5.8,-75.65 0.4,-149.21 -9.8,-200.32 -10.3,-51.1 -67.5,-159.43 -12.4,-183.98 55.3,-24.54 261.7,26.56 509,-8.21 247.3,-34.67 553.9,30.66 615.2,67.53 61.3,36.78 43,147.11 12.3,175.77 -30.7,28.56 -233,34.68 -329.1,77.66 -96.1,42.89 -237.1,177.77 -282.1,218.66 -45,40.88 -139,-26.56 -139,-26.56 0,0 -132.8,6.12 -145.1,4.11 -12.2,-2.01 -98.1,-85.88 -98.1,-85.88" /></g><g
         transform="scale(1.04508)"
         id="g66"><path
           id="path68"
           style="fill:#9f5132;fill-opacity:1;fill-rule:nonzero;stroke:none"
           d="m 15922.8,7539.71 c 0,0 38.6,-330.02 25.7,-372.89 -12.8,-42.87 -119.9,-278.64 -128.6,-450.11 -8.5,-171.37 83.4,-716.4 83.4,-716.4 0,0 371,532.11 383.9,720.71 12.8,188.6 -145.8,591.53 -145.8,591.53 l -36.5,184.29 -182.1,42.87" /></g><g
         transform="scale(1.03931)"
         id="g70"><path
           id="path72"
           style="fill:#ffffff;fill-opacity:1;fill-rule:nonzero;stroke:none"
           d="m 16032.8,5430.93 v -49.55 c 0,0 81.9,-58.21 150.9,-53.89 69,4.34 116.3,103.44 116.3,103.44 0,0 -77.6,99.1 -125,96.98 -47.3,-2.21 -142.2,-96.98 -142.2,-96.98" /></g><g
         transform="scale(1.06321)"
         id="g74"><path
           id="path76"
           style="fill:#c37140;fill-opacity:1;fill-rule:nonzero;stroke:none"
           d="m 15706,7440.55 c 0,0 42.1,-383.37 38,-438.11 -4.3,-54.83 -122.2,-269.65 -139.2,-547.68 -16.8,-278.11 17,-396.06 42.2,-724.69 25.3,-328.62 25.3,-421.27 25.3,-421.27 h 261.2 l 42.1,54.75 c 0,0 25.3,455.03 71.7,699.38 46.3,244.36 139,741.43 139,741.43 0,0 71.6,130.64 92.6,240.22 21.1,109.48 0,362.3 0,362.3 l -572.9,33.67" /></g><g
         transform="scale(1.07573)"
         id="g78"><path
           id="path80"
           style="fill:#4c4d4e;fill-opacity:1;fill-rule:nonzero;stroke:none"
           d="m 16300,12798.8 c 0,-508.5 -372.1,-920.8 -831.2,-920.8 -459,0 -831.1,412.3 -831.1,920.8 0,508.5 372.1,920.8 831.1,920.8 459.1,0 831.2,-412.3 831.2,-920.8" /></g><g
         transform="scale(1.07302)"
         id="g82"><path
           id="path84"
           style="fill:#252323;fill-opacity:1;fill-rule:nonzero;stroke:none"
           d="m 15476.3,9384.71 c 0,0 -272.8,-217.11 -356.3,-417.48 -83.4,-200.37 11.1,-706.89 0,-751.34 -11.1,-44.55 -34.8,-907.35 -34.8,-907.35 0,0 379.9,-16.68 563.6,-55.63 183.6,-38.96 595.6,-33.37 595.6,-33.37 0,0 -27.9,979.58 0,1051.99 27.7,72.32 55.6,200.37 33.3,361.78 -22.2,161.41 -55.6,395.15 -55.6,395.15 l -423,378.51 -322.8,-22.26" /></g><g
         transform="scale(1.08136)"
         id="g86"><path
           id="path88"
           style="fill:#c37140;fill-opacity:1;fill-rule:nonzero;stroke:none"
           d="m 15450.8,10778.7 c 0,0 70.5,410.1 70.5,426.7 0,16.6 -54,327.2 -70.5,439.1 -16.6,111.8 -8.3,48.4 -53.8,200.2 -45.6,151.9 -78.7,371.4 -78.7,371.4 l 360.4,74.6 c 0,0 103.5,-348 111.8,-360.4 8.3,-12.4 240.1,-298.3 281.6,-561.3 0,0 95.3,-89 161.6,-354.2 66.3,-265.1 -73.2,-530.2 -73.2,-530.2 0,0 -38.6,-132.5 -266.5,-145 -227.8,-12.4 -306.5,-16.5 -348,0 -41.4,16.6 -95.2,439.1 -95.2,439.1" /></g><g
         transform="scale(1.09574)"
         id="g90"><path
           id="path92"
           style="fill:#e9eef1;fill-opacity:1;fill-rule:nonzero;stroke:none"
           d="m 16131,10847.1 c 0,0 145.8,-261.6 157.4,-430.6 11.6,-168.9 -81.6,-485.08 -78.6,-539.59 3,-54.51 -5.9,-299.79 -91.4,-501.45 -85.5,-201.67 -221.8,-594.15 -221.8,-594.15 0,0 -397.9,228.98 -430.6,261.65 -32.6,32.67 -305.2,130.83 -310.6,147.17 -5.5,16.36 27.2,659.53 43.6,839.37 16.3,179.9 -16.4,395.2 0,468.8 16.3,73.6 49,139 49,139 0,0 57.2,-204.4 188.1,-286.2 130.8,-81.7 298.3,-69.5 425.1,94 126.8,163.6 88.6,425.2 87.3,490.6 -1.4,65.4 -107.7,247.3 -118,263.7 -10.2,16.3 -18.4,53.8 -18.4,53.8 l -8.9,120.5 315.2,-270.4 12.6,-256.2" /></g><g
         transform="scale(1.09387)"
         id="g94"><path
           id="path96"
           style="fill:#c37140;fill-opacity:1;fill-rule:nonzero;stroke:none"
           d="m 15942.8,11365.2 -128.1,-42.6 343.8,-457 c 0,0 26.8,120.2 48.6,131.1 21.9,11 92.9,155.5 92.9,155.5 0,0 -78.7,109.3 -127.8,161.1 -49.2,51.9 -23.3,156.1 -45.2,161.6 -21.8,5.4 -184.2,-109.7 -184.2,-109.7" /></g><g
         transform="scale(1.06294)"
         id="g98"><path
           id="path100"
           style="fill:#a45634;fill-opacity:1;fill-rule:nonzero;stroke:none"
           d="m 16165.5,11993.7 c 0,0 79.6,-223.3 92.3,-417.2 12.8,-193.8 25.4,-358.2 25.4,-358.2 l 16.8,382.1 -9.2,124.3 c 0,0 -23.9,125.6 -125.3,269" /></g><g
         transform="scale(1.05456)"
         id="g102"><path
           id="path104"
           style="fill:#a45634;fill-opacity:1;fill-rule:nonzero;stroke:none"
           d="m 16278.8,11443.4 c -2.1,-8.5 -38.3,-87.1 -59.5,-135.9 -21.2,-48.9 -70.1,-116.8 -70.1,-116.8 0,0 61.7,10.6 106.2,95.6 44.6,84.9 23.4,157.1 23.4,157.1" /></g><g
         transform="scale(1.0806)"
         id="g106"><path
           id="path108"
           style="fill:#606163;fill-opacity:1;fill-rule:nonzero;stroke:none"
           d="m 16300,13061.6 c 0,-506.3 -410.3,-916.7 -916.5,-916.7 -506.3,0 -916.7,410.4 -916.7,916.7 0,506.2 410.4,916.6 916.7,916.6 506.2,0 916.5,-410.4 916.5,-916.6" /></g><g
         transform="scale(1.03491)"
         id="g110"><path
           id="path112"
           style="fill:#d3d2d0;fill-opacity:1;fill-rule:nonzero;stroke:none"
           d="m 16300,13631.4 c 0,-138.6 -112.5,-251 -251,-251 -138.7,0 -251.1,112.4 -251.1,251 0,138.6 112.4,251 251.1,251 138.5,0 251,-112.4 251,-251" /></g><g
         transform="scale(1.0806)"
         id="g114"><path
           id="path116"
           style="fill:#898b8b;fill-opacity:1;fill-rule:nonzero;stroke:none"
           d="m 15383.5,13896.6 c 492.5,0 894.1,-388.6 915.5,-875.8 0.6,13.5 1,27.1 1,40.8 0,506.2 -410.3,916.6 -916.5,916.6 -506.3,0 -916.7,-410.4 -916.7,-916.6 0,-13.7 0.4,-27.3 1.1,-40.8 21.3,487.2 423,875.8 915.6,875.8" /></g><g
         transform="scale(1.02667)"
         id="g118"><path
           id="path120"
           style="fill:#9a9a9a;fill-opacity:1;fill-rule:nonzero;stroke:none"
           d="m 16134.2,13877.6 -81.5,39.3 v -169.3 c 0,0 41.9,-88.2 138.8,-79.4 96.8,8.7 108.5,90.1 108.5,90.1 v 158.6 l -165.8,-39.3" /></g><g
         transform="scale(1.03491)"
         id="g122"><path
           id="path124"
           style="fill:#9a9a9a;fill-opacity:1;fill-rule:nonzero;stroke:none"
           d="m 16049,13443.8 c -128,0 -233.3,95.7 -248.8,219.4 -1.4,-10.5 -2.3,-21 -2.3,-31.8 0,-138.6 112.4,-251 251.1,-251 138.5,0 251,112.4 251,251 0,10.8 -1,21.3 -2.2,31.8 -15.7,-123.7 -121,-219.4 -248.8,-219.4" /></g><g
         transform="scale(1.02667)"
         id="g126"><path
           id="path128"
           style="fill:#d3d2d0;fill-opacity:1;fill-rule:nonzero;stroke:none"
           d="m 16300,13916.9 c 0,-61.9 -55.3,-112 -123.6,-112 -68.3,0 -123.7,50.1 -123.7,112 0,61.8 55.4,111.9 123.7,111.9 68.3,0 123.6,-50.1 123.6,-111.9" /></g><g
         transform="scale(1.09735)"
         id="g130"><path
           id="path132"
           style="fill:#a45634;fill-opacity:1;fill-rule:nonzero;stroke:none"
           d="m 16061.2,11321 c 0,0 -42.2,-111.1 -50.2,-122.6 -8,-11.4 56.4,-188.4 63,-195.7 6.7,-7.4 81.7,-40.8 81.7,-40.8 l 144.3,68 -238.8,291.1" /></g><g
         transform="scale(1.11648)"
         id="g134"><path
           id="path136"
           style="fill:#2f1d16;fill-opacity:1;fill-rule:nonzero;stroke:none"
           d="m 16236.3,11421.1 c 63.7,74.3 10.4,139.7 -13.2,165 -23.5,25.2 -21.6,52.2 -107.3,105.6 -85.8,53.3 -129,24.2 -159.9,34.1 -31,9.9 -107.1,6.5 -168.5,4.2 -61.4,-2.2 -94.2,-43.5 -116.5,-52.7 0,0 -124.2,6.4 -170.6,-177.5 -46.4,-183.9 -9.7,-301 17.7,-414 0,0 241.1,70.5 284,96.1 57.5,-20.9 149.2,-53.1 154,-47.6 6.8,7.9 238.1,254.2 238.1,254.2 l 36.9,25.1 c 0,0 3.5,1.4 8.7,4.4 l -3.4,3.1" /></g><g
         transform="scale(1.11282)"
         id="g138"><path
           id="path140"
           style="fill:#c37140;fill-opacity:1;fill-rule:nonzero;stroke:none"
           d="m 16289.7,11458.6 c 0,0 10.3,-123.9 8.4,-151.4 -2,-27.5 -39.9,-101.8 -42,-114.7 -2.2,-12.9 31,-162.9 26.6,-170.3 -4.2,-7.4 -58.1,-0.1 -61.2,-3.9 -3.2,-3.9 -22.6,-50.1 -22.8,-55.1 -0.2,-5 -4.6,-14.6 -4.6,-14.6 0,0 -2.2,-21 -9.4,-29.7 -7.1,-8.7 -13.8,-25.4 -17.2,-31.6 -3.5,-6.2 -24.8,-78.7 -37,-86.5 -12.2,-7.8 -198.3,51.7 -220.1,65.4 -22,13.7 -86.7,160.3 -91,189.8 -4.2,29.5 18.5,107.6 18.5,107.6 0,0 -59.8,31.5 -68.4,90.4 -8.5,58.9 27.2,147.5 83.6,145.2 56.5,-2.4 59.5,-78.9 59.8,-99.4 0.3,-20.4 2.5,-47.3 4.6,-49.9 2.1,-2.6 26.9,39.5 46.7,65.3 19.8,25.7 36.7,112.9 54.6,142.2 18,29.2 70.3,50.5 91.9,51.4 21.6,0.9 179,-50.2 179,-50.2" /></g><g
         transform="scale(1.11185)"
         id="g142"><path
           id="path144"
           style="fill:#2f1d16;fill-opacity:1;fill-rule:nonzero;stroke:none"
           d="m 15931.4,11259.8 c 0,0 18.7,-2.2 23,7.1 4.1,9.4 40.5,78.2 40.5,78.2 0,0 30.4,14.2 35.4,51.2 5,36.9 3.4,44.3 26.1,55.8 22.7,11.5 28.8,58.8 48.6,62.8 19.8,4 125.7,-21.3 125.7,-21.3 0,0 69.3,45.4 -7.6,70.6 -77,25.3 -161.3,36.8 -208.8,14.3 -47.4,-22.5 -51.5,22.1 -57.9,-49.3 -6.4,-71.5 -25,-269.4 -25,-269.4" /></g><g
         transform="scale(1.11121)"
         id="g146"><path
           id="path148"
           style="fill:#2f1d16;fill-opacity:1;fill-rule:nonzero;stroke:none"
           d="m 15673.5,11710.6 c 0,0 31.2,25.3 48.1,32.5 17,7.2 38.5,31.8 56,36.5 17.5,4.7 40.4,8.1 44.2,9.4 3.9,1.3 42.2,23.8 72.7,20.6 30.5,-3.3 49.5,-5.9 57.4,-6.8 7.9,-0.9 55.2,11.2 88,3.8 33,-7.4 33.5,-9.9 49,-12.8 15.5,-2.8 61,-6.6 116.5,-38.4 55.5,-31.9 94.6,-114.5 94.6,-114.5 l -215.5,-51.4 -266.5,-2.7 -144.5,123.8" /></g><path
         id="path150"
         style="fill:#100f0d;fill-opacity:1;fill-rule:nonzero;stroke:none"
         d="m 12437,5471.2 c 32.9,6 361.3,12 412.1,-17.9 50.8,-29.9 17.9,-155.3 17.9,-155.3 h -349.4 l -80.6,173.2" /><path
         id="path152"
         style="fill:#252323;fill-opacity:1;fill-rule:nonzero;stroke:none"
         d="m 11795.7,6008.6 c 0,0 -72.4,-14.7 -96.3,-35.7 -23.9,-20.9 -26.9,-119.4 -62.7,-185.1 -35.8,-65.7 -110.5,-265.8 -98.6,-322.6 12,-56.7 119.5,-137.3 343.5,-155.2 223.9,-18 343.4,-152.3 558.4,-194.1 215,-41.8 433,23.8 462.9,65.7 29.8,41.8 11.9,158.2 -26.9,188.1 -38.8,29.9 -158.3,44.8 -215,80.6 -56.8,35.9 -355.4,376.3 -364.3,415.1 -9,38.8 -69.4,143.2 -69.4,143.2 h -431.6" /><path
         id="path154"
         style="fill:#9f5132;fill-opacity:1;fill-rule:nonzero;stroke:none"
         d="m 12417.6,8021.5 c 0,0 -49.3,-313.6 -85.1,-376.3 -35.8,-62.7 -174.7,-201.6 -250.9,-362.8 -76.1,-161.3 -89.5,-663 -89.5,-663 l 694.7,671.9 c 0,0 142.9,698.8 84.7,779.4 -58.3,80.7 54.6,156.8 -84.7,103 -139.3,-53.7 -269.2,-152.2 -269.2,-152.2" /><path
         id="path156"
         style="fill:#ffffff;fill-opacity:1;fill-rule:nonzero;stroke:none"
         d="m 11768.1,5866.9 c 0,0 38.8,-126.9 62.7,-144.8 23.9,-18 119.4,0 143.3,0 23.9,0 103.1,113.4 103.1,113.4 0,0 -171.8,140.4 -204.6,137.4 -32.8,-3 -104.5,-106 -104.5,-106" /><path
         id="path158"
         style="fill:#c37140;fill-opacity:1;fill-rule:nonzero;stroke:none"
         d="m 12476.1,7996.3 c 0,0 -9.2,-342.1 -31.6,-391.4 -22.4,-49.3 -259.8,-210.6 -344.9,-439 -85.1,-228.4 -152.3,-604.7 -197.1,-797.3 -44.8,-192.6 -134.4,-439 -134.4,-439 v -62.7 l 309.1,-31.4 c 0,0 147.8,76.2 152.3,89.6 4.4,13.5 53.7,255.3 120.9,367.3 67.2,112 636.1,1016.8 671.9,1128.8 35.8,112 188.1,575.1 188.1,575.1 l -497.2,110.3 -237.1,-110.3" /><path
         id="path160"
         style="fill:#4c4d4e;fill-opacity:1;fill-rule:nonzero;stroke:none"
         d="m 14047.9,12117.1 c 0,-547.1 -443.5,-990.5 -990.5,-990.5 -547.1,0 -990.5,443.4 -990.5,990.5 0,547 443.4,990.4 990.5,990.4 547,0 990.5,-443.4 990.5,-990.4" /><path
         id="path162"
         style="fill:#252323;fill-opacity:1;fill-rule:nonzero;stroke:none"
         d="m 12227.4,9986.4 c 0,0 -172.6,-286.7 -184.6,-543.5 -11.9,-256.8 113.5,-418.1 149.3,-513.6 35.9,-95.6 -7.1,-346.4 35.3,-483.8 42.4,-137.4 72.2,-442 72.2,-442 l 1021.3,-41.8 c 0,0 23.9,710.8 0,961.6 -23.9,250.8 29.9,668.9 -35.8,836.1 -65.7,167.3 -143.4,274.8 -143.4,274.8 0,0 -734.6,209 -794.3,167.2 -59.7,-41.8 -120,-215 -120,-215" /><path
         id="path164"
         style="fill:#e9eef1;fill-opacity:1;fill-rule:nonzero;stroke:none"
         d="m 11324.4,11853.6 c 0,0 -111.8,-171 -135.6,-254.7 -23.9,-83.6 -18,-340.4 179.1,-549.4 197.1,-209.1 582.8,-567.4 670.7,-686.8 87.8,-119.5 188.8,-376.3 188.8,-376.3 l 914.3,47.8 c 0,0 -47.7,812.2 -226.9,1176.5 -179.2,364.4 -371.1,496.2 -597.7,466.1 -226.5,-30.1 -638.6,-30.1 -638.6,-30.1 l -354.1,206.9" /><path
         id="path166"
         style="fill:#c37140;fill-opacity:1;fill-rule:nonzero;stroke:none"
         d="m 11305.4,11784.1 c 0,0 -39,-215 -34.5,-331.5 4.5,-116.4 183.6,-438.9 416.6,-479.3 232.9,-40.3 407.6,94.1 447.9,174.7 40.3,80.7 26.9,174.7 26.9,174.7 0,0 219.5,35.9 335.9,152.3 116.5,116.5 -201.5,389.7 -201.5,389.7 0,0 -161.3,26.9 -430.1,0 0,0 -120.8,95.2 -161.2,98.5 -40.5,3.3 -188.2,-22.3 -268.8,-31.3 -80.6,-9 -58.2,9 -80.6,-9 -22.4,-17.9 -50.6,-138.8 -50.6,-138.8" /><path
         id="path168"
         style="fill:#a45634;fill-opacity:1;fill-rule:nonzero;stroke:none"
         d="m 11800.9,11240.6 c 12,9 113.5,56.7 179.2,59.7 65.7,3 182.2,22.4 182.2,22.4 0,0 11,-41.6 -2.3,-94.6 -13.2,-53 -13.2,-53 -13.2,-53 0,0 -32.3,73.2 -65.2,73.8 -32.8,0.7 -97.8,0 -97.8,0 l 32.1,-150.2 c 0,0 -83.6,100.1 -98.5,112 -14.9,12 -116.5,29.9 -116.5,29.9" /><path
         id="path170"
         style="fill:#606163;fill-opacity:1;fill-rule:nonzero;stroke:none"
         d="m 14208.4,12089.2 c 0,-547 -443.5,-990.5 -990.5,-990.5 -547,0 -990.5,443.5 -990.5,990.5 0,547 443.5,990.5 990.5,990.5 547,0 990.5,-443.5 990.5,-990.5" /><path
         id="path172"
         style="fill:#898b8b;fill-opacity:1;fill-rule:nonzero;stroke:none"
         d="m 13217.9,12991.5 c 532.2,0 966.3,-419.8 989.4,-946.4 0.6,14.6 1.1,29.3 1.1,44.1 0,547 -443.5,990.5 -990.5,990.5 -547,0 -990.5,-443.5 -990.5,-990.5 0,-14.8 0.5,-29.5 1.1,-44.1 23.1,526.6 457.2,946.4 989.4,946.4" /><path
         id="path174"
         style="fill:#d3d2d0;fill-opacity:1;fill-rule:nonzero;stroke:none"
         d="m 13470.2,12117.1 c 0,-139.4 -112.9,-252.4 -252.3,-252.4 -139.4,0 -252.3,113 -252.3,252.4 0,139.3 112.9,252.3 252.3,252.3 139.4,0 252.3,-113 252.3,-252.3" /><path
         id="path176"
         style="fill:#9a9a9a;fill-opacity:1;fill-rule:nonzero;stroke:none"
         d="m 13320.9,12109.6 c 0,-57.7 -46.8,-104.5 -104.5,-104.5 -57.7,0 -104.5,46.8 -104.5,104.5 0,57.7 46.8,104.5 104.5,104.5 57.7,0 104.5,-46.8 104.5,-104.5" /><path
         id="path178"
         style="fill:#c37140;fill-opacity:1;fill-rule:nonzero;stroke:none"
         d="m 11351.5,12221.8 -46.1,-112 v -325.7 c 0,0 137.2,92.6 268.6,107.5 131.4,14.9 259.8,-26.9 259.8,-26.9 h 32.8 l 16.1,206.1 -255,191.1 -145.9,220.5 -130.3,-260.6" /><path
         id="path180"
         style="fill:#e9eef1;fill-opacity:1;fill-rule:nonzero;stroke:none"
         d="m 11506.7,11910.6 c -121.8,-17.8 -201.3,-86.9 -201.3,-86.9 l -34.9,-80.3 c 0,0 6.2,-144.5 15.9,-82 19,122.7 137.5,202.1 273.9,221.6 136.3,19.5 273.5,-18.3 273.5,-18.3 0,0 -205.4,63.8 -327.1,45.9" /><path
         id="path182"
         style="fill:#a45634;fill-opacity:1;fill-rule:nonzero;stroke:none"
         d="m 11532.4,12304.8 c 0,0 22.3,-128.5 21.1,-143.8 -1.1,-15.2 158.6,-146.4 169,-149.6 10.3,-3.3 158.3,14.3 158.3,14.3 l 39.8,137.7 -388.2,141.4" /><path
         id="path184"
         style="fill:#2f1d16;fill-opacity:1;fill-rule:nonzero;stroke:none"
         d="m 11797.7,12843.4 c 19,107.6 -69.4,140.2 -106.4,151 -37,10.8 -50.6,37.9 -163.3,40.4 -112.8,2.4 -137.6,-50.1 -173,-58.2 -35.4,-8.1 -106.6,-54.7 -164.3,-91.7 -57.7,-37.1 -65.7,-95.4 -82,-116.9 0,0 -122.8,-64.5 -62.8,-267.6 60,-203.1 161.8,-294.7 252.4,-387.6 0,0 191.6,204.8 218.2,253.8 67.2,12.6 173.6,33.9 175,41.8 2.1,11.5 84.3,379.7 84.3,379.7 l 21.1,45.1 c 0,0 2.6,3.3 5.8,9.1 l -5,1.1" /><path
         id="path186"
         style="fill:#c37140;fill-opacity:1;fill-rule:nonzero;stroke:none"
         d="m 11797.7,12843.4 c 0,0 80.2,-112.8 94,-140.2 13.7,-27.4 19.5,-120.1 24.7,-133.7 5.3,-13.5 122.1,-138.4 122.2,-147.9 0.1,-9.5 -55.7,-33 -56.6,-38.5 -0.8,-5.5 6.8,-60.7 9.5,-65.7 2.7,-4.9 3.9,-16.5 3.9,-16.5 0,0 9.8,-21.5 7.9,-33.8 -1.9,-12.3 1.1,-32.2 1.4,-40.1 0.2,-7.8 20.8,-89.4 13.6,-103.7 -7.3,-14.4 -219.3,-62.9 -248,-62.2 -28.6,0.7 -173.8,104.4 -194.6,130.2 -20.8,25.8 -43.3,113.5 -43.3,113.5 0,0 -75.2,-3.8 -116.7,47.8 -41.6,51.5 -57.6,156.6 -2.3,186.4 55.4,29.8 101.7,-41.8 113.6,-61.2 11.9,-19.4 29.2,-43.9 32.7,-45.2 3.4,-1.3 3.3,53.1 7.7,88.9 4.3,35.9 -28.9,129 -28.3,167.2 0.6,38.1 38.6,88.2 58.8,101.3 20.2,13.2 199.8,53.4 199.8,53.4" /><path
         id="path188"
         style="fill:#2f1d16;fill-opacity:1;fill-rule:nonzero;stroke:none"
         d="m 11559.7,12432.6 c 0,0 19.1,8.4 17.8,19.8 -1.3,11.3 -5.4,97.8 -5.4,97.8 0,0 21,30.7 4.8,68.9 -16.1,38.2 -21.8,44.4 -6.6,68.3 15.2,23.8 -5.8,72.5 10.9,87.6 16.7,15 132.4,50.8 132.4,50.8 0,0 40.6,82.7 -47.4,63.2 -87.9,-19.4 -175.1,-56.2 -207.8,-104.6 -32.7,-48.3 -61.8,-8 -27.5,-80 34.4,-71.9 128.8,-271.8 128.8,-271.8" /><path
         id="path190"
         style="fill:#2f1d16;fill-opacity:1;fill-rule:nonzero;stroke:none"
         d="m 11052.7,12706.3 c 0,0 15.6,41.9 27.7,58.4 12.2,16.4 18.8,52.1 32.8,66.6 14.1,14.4 34.1,30.5 37,34 2.9,3.4 26.8,46.7 57.8,60.8 31.1,14.1 50.8,22.4 58.8,26 8.1,3.6 46.4,41.9 82.1,53.5 35.6,11.5 37.5,9.5 53.9,15.5 16.5,6 62.1,28.2 133.2,29.2 71.2,1 155.3,-55.9 155.3,-55.9 l -177,-171.2 -253.3,-153.4 -208.3,36.5" /><path
         id="path192"
         style="fill:#9f5132;fill-opacity:1;fill-rule:nonzero;stroke:none"
         d="m 8023.36,7758.7 c 17.92,0 179.17,-274.8 179.17,-274.8 0,0 -203.06,-380.7 -203.06,-512.9 0,-132.1 39.86,-814 43.8,-753.4 3.95,60.7 414.11,800.5 414.11,800.5 v 692.8 c 0,0 -278.78,335.7 -307.58,283.4 -28.8,-52.2 -126.44,-235.6 -126.44,-235.6" /><path
         id="path194"
         style="fill:#100f0d;fill-opacity:1;fill-rule:nonzero;stroke:none"
         d="m 8333.93,5799.7 c 0,0 155.28,-125.4 319.52,-194.1 164.25,-68.7 213.12,-62.7 279.77,-119.4 66.64,-56.8 0,-212.1 0,-212.1 h -475.84 c 0,0 -338.46,137.4 -293.66,265.8 44.79,128.4 23.88,259.8 23.88,259.8 h 146.33" /><path
         id="path196"
         style="fill:#252323;fill-opacity:1;fill-rule:nonzero;stroke:none"
         d="m 8047.25,5689.2 -58.8,33.1 c 0,0 -129.33,-36.1 -135.31,-54 -5.97,-17.9 2.99,-62.7 -26.87,-173.2 -29.86,-110.5 -23.89,-152.3 -41.81,-224 -17.91,-71.6 -32.84,-89.5 143.34,-98.5 176.19,-9 612.18,-38.8 848.09,-47.8 235.91,-8.9 256.82,12 265.78,41.8 8.95,29.9 -8.96,98.6 -68.69,140.4 -59.72,41.8 -113.48,28 -259.8,115.5 -146.32,87.5 -361.33,317.5 -373.28,341.4 -11.95,23.9 -152.3,35.8 -152.3,35.8 l -140.35,-110.5" /><path
         id="path198"
         style="fill:#ffffff;fill-opacity:1;fill-rule:nonzero;stroke:none"
         d="m 7981.55,5668.3 c 0,0 35.84,-128.4 83.62,-128.4 47.78,0 110.49,59.7 116.46,64.2 5.97,4.5 26.88,64.2 26.88,64.2 l -158.28,95.6 -68.68,-95.6" /><path
         id="path200"
         style="fill:#c37140;fill-opacity:1;fill-rule:nonzero;stroke:none"
         d="m 8089.06,7884.1 c 0,0 197.09,-322.5 203.06,-382.3 5.98,-59.7 -179.17,-370.2 -203.06,-609.1 -23.89,-238.9 -41.81,-692.8 -59.72,-842.2 -17.92,-149.3 -47.79,-382.2 -47.79,-382.2 h 226.96 c 0,0 131.39,77.6 131.39,95.6 0,17.9 122.07,561.4 338.75,1063.1 216.69,501.7 261.12,627.1 253.84,728.6 -7.29,101.5 -253.84,621.1 -253.84,621.1 h -428.34 l -161.25,-292.6" /><path
         id="path202"
         style="fill:#252323;fill-opacity:1;fill-rule:nonzero;stroke:none"
         d="m 7324.58,9669.8 c 0,0 -241.88,-371.6 -215,-660.6 26.87,-289 352.37,-856.4 453.9,-1035.5 101.53,-179.2 185.15,-376.3 232.93,-370.3 47.78,6 317.8,136.9 525.57,256.8 207.78,119.9 286.68,298.6 286.68,298.6 l -376.26,1034.9 -262.79,476.1 c 0,0 -215.01,95.6 -304.6,113.5 -89.58,17.9 -340.43,-113.5 -340.43,-113.5" /><path
         id="path204"
         style="fill:#e9eef1;fill-opacity:1;fill-rule:nonzero;stroke:none"
         d="m 8614.63,11521.3 c 0,0 82.4,-185.1 137.5,-350.9 55.12,-165.7 -12.08,-403.1 -47.91,-595.7 -35.84,-192.6 -147.82,-403.2 -161.26,-421.1 -13.43,-17.9 -147.81,-304.6 -188.13,-353.9 -40.31,-49.2 -367.31,-313.5 -367.31,-313.5 0,0 -206.05,9 -389.7,67.2 -183.65,58.2 -273.24,116.4 -273.24,116.4 0,0 152.3,618.2 223.97,882.5 71.67,264.3 35.83,568.9 138.86,815.2 103.02,246.4 420.61,419.7 420.61,419.7 l 412.55,65.8 -0.09,-42 94.15,-289.7" /><path
         id="path206"
         style="fill:#c37140;fill-opacity:1;fill-rule:nonzero;stroke:none"
         d="m 8319.24,12103 -74.75,-59.1 c 0,0 -56.89,-145.8 -83.76,-190.9 -26.88,-45 -66.59,-53.8 -52.71,-65.8 13.88,-12.1 189.22,-35.9 250.87,-74.8 61.64,-38.8 255.74,-191.1 255.74,-191.1 l 137.5,311.7 -187.41,397.2 -165.1,-40.7 -80.38,-86.5" /><path
         id="path208"
         style="fill:#c37140;fill-opacity:1;fill-rule:nonzero;stroke:none"
         d="m 8135.35,11681.1 c 0,0 -183.66,-62.7 -277.72,-443.5 -94.07,-380.7 80.62,-515.1 165.73,-546.5 85.11,-31.3 170.21,0 170.21,0 l 94.07,-174.7 c 0,0 -17.91,-170.2 49.27,-273.2 67.2,-103 318.04,-430 318.04,-430 l 241.88,31.3 c 0,0 -35.83,344.9 -89.58,519.6 -53.76,174.7 -120.95,421.1 -111.99,506.2 8.96,85.1 5.97,412.5 -62.56,609.4 -68.54,196.9 -355.51,259.6 -497.35,201.4" /><path
         id="path210"
         style="fill:#a45634;fill-opacity:1;fill-rule:nonzero;stroke:none"
         d="m 8193.57,10691.1 -144.75,286.7 c 0,0 26.05,-156.8 26.05,-208.3 0,-51.5 -6.37,-89.7 -6.37,-89.7 0,0 66.85,-4.3 125.07,11.3" /><path
         id="path212"
         style="fill:#606163;fill-opacity:1;fill-rule:nonzero;stroke:none"
         d="m 9811.54,8927 c 0,-547 -443.46,-990.5 -990.49,-990.5 -547.03,0 -990.48,443.5 -990.48,990.5 0,547.1 443.45,990.5 990.48,990.5 547.03,0 990.49,-443.4 990.49,-990.5" /><path
         id="path214"
         style="fill:#898b8b;fill-opacity:1;fill-rule:nonzero;stroke:none"
         d="m 8821.05,9829.3 c 532.25,0 966.29,-419.8 989.37,-946.4 0.64,14.7 1.12,29.3 1.12,44.1 0,547.1 -443.46,990.5 -990.49,990.5 -547.03,0 -990.48,-443.4 -990.48,-990.5 0,-14.8 0.47,-29.4 1.11,-44.1 23.09,526.6 457.13,946.4 989.37,946.4" /><path
         id="path216"
         style="fill:#d3d2d0;fill-opacity:1;fill-rule:nonzero;stroke:none"
         d="m 9066.87,8933.9 c 0,143.5 -116.32,259.8 -259.81,259.8 -143.48,0 -259.8,-116.3 -259.8,-259.8 0,-143.4 116.32,-259.8 259.8,-259.8 143.49,0 259.81,116.4 259.81,259.8" /><path
         id="path218"
         style="fill:#9a9a9a;fill-opacity:1;fill-rule:nonzero;stroke:none"
         d="m 8807.06,9128 c -132.33,0 -241.32,-99 -257.5,-226.9 -1.36,10.8 -2.3,21.7 -2.3,32.8 0,143.5 116.32,259.8 259.8,259.8 143.49,0 259.81,-116.3 259.81,-259.8 0,-11.1 -0.94,-22 -2.3,-32.8 -16.19,127.9 -125.18,226.9 -257.51,226.9" /><path
         id="path220"
         style="fill:#9a9a9a;fill-opacity:1;fill-rule:nonzero;stroke:none"
         d="m 8762.27,8793.6 -83.62,-40.3 V 8927 c 0,0 42.92,90.6 142.4,81.6 99.49,-9 111.44,-92.6 111.44,-92.6 v -162.7 l -170.22,40.3" /><path
         id="path222"
         style="fill:#d3d2d0;fill-opacity:1;fill-rule:nonzero;stroke:none"
         d="m 8932.49,8753.3 c 0,63.5 -56.83,115 -126.92,115 -70.09,0 -126.92,-51.5 -126.92,-115 0,-63.5 56.83,-115 126.92,-115 70.09,0 126.92,51.5 126.92,115" /><path
         id="path224"
         style="fill:#a45634;fill-opacity:1;fill-rule:nonzero;stroke:none"
         d="m 8508.65,12144.3 c 0,0 -31.26,-126.6 -38.48,-140.1 -7.22,-13.5 86.32,-197.8 94.46,-204.9 8.13,-7.2 148.13,-55.6 148.13,-55.6 l 94.4,115 -298.51,285.6" /><path
         id="path226"
         style="fill:#2f1d16;fill-opacity:1;fill-rule:nonzero;stroke:none"
         d="m 8968.25,12530.7 c 60.62,90.9 -7.2,156.3 -36.73,181.1 -29.53,24.8 -31.01,55 -133.25,102.6 -102.24,47.6 -146.11,9.5 -181.79,16.4 -35.66,6.8 -119.6,-7.2 -187.31,-17.9 -67.71,-10.7 -98.52,-60.9 -122.05,-74.1 0,0 -138.37,-9.6 -165.17,-219.7 -26.79,-210 56.97,-353.7 102.54,-475.2 0,0 230.42,129.2 274.49,163.4 66.6,-15.5 172.55,-38.8 177.02,-32.1 6.54,9.7 229.89,313.7 229.89,313.7 l 37.53,32.8 c 0,0 3.65,2 8.99,6 l -4.16,3" /><path
         id="path228"
         style="fill:#c37140;fill-opacity:1;fill-rule:nonzero;stroke:none"
         d="m 8968.25,12530.7 c 0,0 27.99,-135.5 29.57,-166.2 1.58,-30.6 -30.44,-117.7 -31.07,-132.3 -0.63,-14.5 56.01,-175.8 52.28,-184.5 -3.72,-8.8 -64.26,-7.9 -67.23,-12.6 -2.96,-4.6 -18.21,-58.3 -17.71,-63.9 0.5,-5.6 -3.12,-16.7 -3.12,-16.7 0,0 0.3,-23.6 -6.39,-34.1 -6.7,-10.5 -11.91,-29.9 -14.85,-37.2 -2.94,-7.3 -16.91,-90.3 -29.29,-100.5 -12.38,-10.3 -226.01,30.6 -251.98,42.8 -25.97,12.2 -117.13,165.5 -125.79,197.5 -8.66,32 5.98,121.3 5.98,121.3 0,0 -70.32,26.8 -87.65,90.7 -17.32,64 10.27,166.6 72.96,171.6 62.68,5 76.21,-79.2 79.31,-101.7 3.1,-22.6 9.11,-52 11.76,-54.5 2.66,-2.6 24.43,47.2 42.82,78.3 18.38,31.1 25.46,129.7 41.37,164.4 15.92,34.7 70.82,65.2 94.58,69.1 23.76,3.9 204.45,-31.5 204.45,-31.5" /><path
         id="path230"
         style="fill:#2f1d16;fill-opacity:1;fill-rule:nonzero;stroke:none"
         d="m 8585.03,12250.4 c 0,0 20.94,0 24.29,10.9 3.36,10.9 34.4,91.7 34.4,91.7 0,0 31.62,19.7 32.17,61.2 0.55,41.5 -2.16,49.4 21.37,65.1 23.54,15.8 23.88,68.8 45.21,75.9 21.33,7 141.7,-6.8 141.7,-6.8 0,0 70.36,59.4 -17.97,77 -88.33,17.5 -182.9,19 -232.3,-12.2 -49.4,-31.1 -59.85,17.5 -57.36,-62.2 2.49,-79.7 8.49,-300.6 8.49,-300.6" /><path
         id="path232"
         style="fill:#2f1d16;fill-opacity:1;fill-rule:nonzero;stroke:none"
         d="m 8231.05,12704.9 c 0,0 31.06,32.1 48.81,42.3 17.75,10.2 38.17,40.2 56.82,47.7 18.65,7.6 43.49,14.4 47.54,16.3 4.04,2 43.35,32 77.42,32.4 34.07,0.5 55.44,0.1 64.27,0.2 8.82,0.1 59.33,19.7 96.62,15.9 37.28,-3.7 38.19,-6.4 55.67,-7.5 17.49,-1 68.14,0.9 133.69,-26.8 65.55,-27.7 119.63,-113.6 119.63,-113.6 l -230.85,-85.5 -293.65,-38.6 -175.97,117.2" /></g></g></svg>