<?xml version="1.0" encoding="UTF-8" standalone="no"?>
<svg
   xmlns:dc="http://purl.org/dc/elements/1.1/"
   xmlns:cc="http://creativecommons.org/ns#"
   xmlns:rdf="http://www.w3.org/1999/02/22-rdf-syntax-ns#"
   xmlns:svg="http://www.w3.org/2000/svg"
   xmlns="http://www.w3.org/2000/svg"
   viewBox="0 0 2666.6667 2666.6667"
   height="2666.6667"
   width="2666.6667"
   xml:space="preserve"
   id="svg2"
   version="1.1"><metadata
     id="metadata8"><rdf:RDF><cc:Work
         rdf:about=""><dc:format>image/svg+xml</dc:format><dc:type
           rdf:resource="http://purl.org/dc/dcmitype/StillImage" /></cc:Work></rdf:RDF></metadata><defs
     id="defs6" /><g
     transform="matrix(1.3333333,0,0,-1.3333333,0,2666.6667)"
     id="g10"><g
       transform="scale(0.1)"
       id="g12"><g
         transform="scale(1.22699)"
         id="g14"><path
           id="path16"
           style="fill:none;fill-opacity:1;fill-rule:nonzero;stroke:none"
           d="M 16300,0 H 0 V 16300 H 16300 V 0" /></g><path
         id="path18"
         style="fill:#361c19;fill-opacity:1;fill-rule:nonzero;stroke:none"
         d="m 8955.72,15539.3 c 33.88,-5.6 408.34,-92.9 408.34,-92.9 0,0 291.89,-188.4 342.72,-541.8 50.82,-353.5 237.18,-709.8 203.29,-850.7 -33.88,-140.9 -537.22,-150.2 -537.22,-150.2 l -417.13,777.3 v 858.3" /><path
         id="path20"
         style="fill:#100f0d;fill-opacity:1;fill-rule:nonzero;stroke:none"
         d="m 3188.99,10429.4 c 0,0 -89.04,6.8 -246.25,-114.3 -157.21,-121 -560.67,-255.5 -964.13,-295.9 -403.46,-40.3 -672.44,-123.2 -645.54,-350.7 26.9,-227.6 470.7,-321.7 571.57,-315 100.86,6.8 1479.35,100.9 1445.73,242.1 -33.62,141.2 -5.51,538 0.61,611.9 6.12,74 0,179.8 0,179.8 l -161.99,42.1" /><path
         id="path22"
         style="fill:#2e2d2d;fill-opacity:1;fill-rule:nonzero;stroke:none"
         d="m 4130.4,9992.3 c 0,0 -40.35,-988.4 -134.49,-1049 -94.14,-60.5 -672.43,67.3 -1149.86,60.6 -477.43,-6.8 -1069.17,201.7 -1089.35,403.4 -20.17,201.8 147.94,282.4 490.88,343 342.94,60.5 820.37,188 975.03,268.9 154.66,81 275.7,329.2 309.32,336.1 33.62,6.9 36.46,68.5 168.11,0 131.65,-68.5 430.36,-363 430.36,-363" /><path
         id="path24"
         style="fill:#b5613d;fill-opacity:1;fill-rule:nonzero;stroke:none"
         d="m 6450.3,10150.4 c 0,0 -242.08,272.3 -316.05,386.6 -73.97,114.3 -410.18,497.6 -410.18,497.6 0,0 -1136.42,-793.5 -1250.73,-786.7 -114.32,6.7 -894.34,-147.7 -894.34,-147.7 0,0 -141.21,40.6 -201.73,0 -60.52,-40.6 -154.66,-81 -154.66,-81 0,0 33.63,262 0,336.1 -33.62,74.1 -33.62,74.1 -33.62,74.1 0,0 416.91,329.5 793.47,854 376.56,524.5 975.03,1102.8 975.03,1102.8 0,0 201.73,255.6 443.81,309.4 242.07,53.7 638.81,-201.8 638.81,-201.8 l 708.12,-907.8 361.05,-732.2 c 0,0 -33.62,-525.2 -94.14,-582.4 -60.52,-57.1 -390.01,-171.2 -390.01,-171.2 l -174.83,50.2" /><path
         id="path26"
         style="fill:#c37140;fill-opacity:1;fill-rule:nonzero;stroke:none"
         d="m 6904.18,10402.5 c 0,0 -564.84,867.5 -746.39,988.5 0,0 -285.79,-537.9 -850.63,-840.5 -564.85,-302.6 -1338.15,-954.9 -1371.77,-954.9 -33.62,0 -268.97,74 -295.87,154.7 -26.9,80.7 -60.52,349.9 -60.52,349.9 0,0 517.77,344.2 833.82,753.6 316.04,409.4 901.06,1118.9 1001.93,1228.1 100.86,109.3 134.48,136.2 134.48,136.2 0,0 174.84,470.7 571.57,477.4 396.74,6.8 1465.91,-766.5 1465.91,-766.5 l 558.12,-386.7 c 0,0 73.96,-877.5 0,-971.7 -73.97,-94.1 -558.12,-497.6 -558.12,-497.6 l -454.26,70.1 -228.27,259.4" /><path
         id="path28"
         style="fill:#2e2d2d;fill-opacity:1;fill-rule:nonzero;stroke:none"
         d="m 9258.83,11340.6 -135.61,-564.9 c 0,0 -60.52,-847.2 -585.02,-1038.9 -524.5,-191.6 -1059.08,80.7 -1059.08,80.7 0,0 -474.07,-141.2 -1028.83,332.9 0,0 393.38,70.6 453.89,252.1 l 110.96,-131.1 c 0,0 403.46,70.6 716.14,383.3 312.68,312.7 413.55,887.6 413.55,887.6 l -558.12,386.7 53.79,77.3 c 0,0 416.91,43.7 571.57,30.2 154.66,-13.4 356.39,20.2 443.81,-67.2 87.42,-87.4 602.95,-628.7 602.95,-628.7" /><path
         id="path30"
         style="fill:#a45532;fill-opacity:1;fill-rule:nonzero;stroke:none"
         d="m 6660.52,12508.4 c 0,0 -98.1,-378.5 87.71,-469.3 185.81,-90.8 472.34,138.7 472.34,138.7 0,0 -400.28,253 -560.05,330.6" /><path
         id="path32"
         style="fill:#100f0d;fill-opacity:1;fill-rule:nonzero;stroke:none"
         d="m 8622.26,11061.5 c 0,0 -224.15,305.3 -477.43,480.8 l -558.12,386.7 53.79,77.3 c 0,0 806.92,-37 847.27,-77.3 40.35,-40.4 381.04,-343 381.04,-343 l -641.05,26.9 c 0,0 246.56,-161.4 394.5,-551.4" /><path
         id="path34"
         style="fill:#c37140;fill-opacity:1;fill-rule:nonzero;stroke:none"
         d="m 8422.95,12823.3 c -25.96,-30.3 -594.17,-390 -594.17,-390 0,0 -57.15,-285.8 -188.28,-427 0,0 502.95,-292.5 740.67,-343 237.72,-50.4 877.66,-322.7 877.66,-322.7 l 488.63,1070.3 c 0,0 -725.11,311.5 -765.45,311.5 -40.35,0 -559.06,100.9 -559.06,100.9" /><path
         id="path36"
         style="fill:#e9eef1;fill-opacity:1;fill-rule:nonzero;stroke:none"
         d="m 9967.12,13549.2 31.39,-112.3 c 0,0 -134.49,-694.3 -251.05,-1026 0,0 -372.08,-134.5 -959.33,-107.6 -587.27,26.9 -959.35,130 -959.35,130 v 291.4 c 0,0 376.57,479 654.51,741.6 277.94,262.5 614.15,437.4 614.15,437.4 l 869.68,-354.5" /><path
         id="path38"
         style="fill:#c37140;fill-opacity:1;fill-rule:nonzero;stroke:none"
         d="m 8538.25,14754.7 79.52,-241.4 497.61,120.7 248.68,90 c 0,0 -161.74,259.3 -211.94,553.3 -50.2,294 -323.65,487.2 -323.65,487.2 0,0 -438.96,93.7 -405.52,-238 33.44,-331.8 115.3,-771.8 115.3,-771.8" /><path
         id="path40"
         style="fill:#c37140;fill-opacity:1;fill-rule:nonzero;stroke:none"
         d="m 8909.16,14754.7 c 0,0 -242.08,-106.9 -407.94,-313.1 -165.87,-206.2 -264.49,-470.7 -264.49,-470.7 l -977.27,-1071.4 c 0,0 -215.18,-85.2 -354.15,-219.7 -138.97,-134.4 -152.42,-318.2 -156.9,-345.1 -4.48,-26.9 76.2,-206.3 246.56,-215.2 170.35,-9 524.49,206.2 735.19,372.1 210.69,165.8 600.71,385.5 820.37,614.1 219.66,228.6 318.28,372.1 318.28,372.1 0,0 219.67,-277.9 596.23,-260 376.56,17.9 533.47,219.1 533.47,219.1 0,0 107.59,742.5 -242.08,1182.9 0,0 -340.7,322.4 -847.27,134.9" /><path
         id="path42"
         style="fill:#a45532;fill-opacity:1;fill-rule:nonzero;stroke:none"
         d="m 9258.83,13733.3 c 0,0 -210.7,-53.8 -246.56,-80.7 -35.86,-26.9 -143.46,-174.8 -143.46,-174.8 l 122.56,-112.8 c 0,0 74.69,211.4 115.04,247.3 40.34,35.8 152.42,121 152.42,121" /><path
         id="path44"
         style="fill:#100f0d;fill-opacity:1;fill-rule:nonzero;stroke:none"
         d="m 7015.14,10271.4 -110.96,131.1 c -60.51,-181.5 -453.88,-252.1 -453.88,-252.1 554.75,-474.1 1028.82,-332.9 1028.82,-332.9 -215.18,168.1 -463.98,453.9 -463.98,453.9" /><path
         id="path46"
         style="fill:#a45532;fill-opacity:1;fill-rule:nonzero;stroke:none"
         d="m 6157.79,11391 151.29,349.7 c 0,0 -40.34,-208.5 -33.62,-309.3 6.73,-100.9 33.62,-194.4 33.62,-194.4 l -151.29,154" /><path
         id="path48"
         style="fill:#d8d7d5;fill-opacity:1;fill-rule:nonzero;stroke:none"
         d="m 3916.16,10355.3 -99.73,-80.6 -389.51,368 c -141.65,-137.1 -237.93,-213.3 -237.93,-213.3 0,0 0,0 33.62,-74.1 33.63,-74.1 0,-336.1 0,-336.1 0,0 94.14,40.4 154.66,81 60.52,40.6 201.73,0 201.73,0 0,0 246.79,48.8 483.08,90.4 -90.49,95.7 -145.92,164.7 -145.92,164.7" /><path
         id="path50"
         style="fill:#fcd3b9;fill-opacity:1;fill-rule:nonzero;stroke:none"
         d="m 8271.46,14053.9 v 0" /><path
         id="path52"
         style="fill:#e28a5d;fill-opacity:1;fill-rule:nonzero;stroke:none"
         d="m 9364.06,14801.4 v 0 c -127.52,21.9 -281.48,17.5 -454.9,-46.7 0,0 -242.08,-106.9 -407.94,-313.1 -65.16,-81 -119.88,-170.9 -162.38,-250.3 119.01,202 413.94,560.8 1025.22,610.1" /><path
         id="path54"
         style="fill:#e9eef1;fill-opacity:1;fill-rule:nonzero;stroke:none"
         d="m 9271.95,15742.6 c 0,0 -86.45,-216.7 -158.27,-334.1 l 48.83,-184.7 c 166.23,88.8 201.55,222.6 201.55,222.6 l -92.11,296.2" /><path
         id="path56"
         style="fill:#a45532;fill-opacity:1;fill-rule:nonzero;stroke:none"
         d="m 8705.33,15341.4 c 0,0 -4.33,-229.2 -41.12,-348.5 -36.78,-119.4 -125.96,-238.2 -125.96,-238.2 l -397.68,299.9 351.62,342.1 213.14,-55.3" /><g
         transform="scale(1.02407)"
         id="g58"><path
           id="path60"
           style="fill:#361c19;fill-opacity:1;fill-rule:nonzero;stroke:none"
           d="m 7763.71,15708.2 c -16.32,4.1 -101.85,78 -101.85,78 0,0 -145.01,222.9 274.39,368.3 419.39,145.5 754.25,95.2 977.14,-60.6 222.91,-155.7 284.46,-750.2 207.68,-952 -76.78,-201.8 -184.05,-223.7 -184.05,-223.7 l -369.82,205.7 c 0,0 -433.99,-84.4 -456.21,-53.3 -22.21,31.2 -156.4,269.2 -169.87,307.4 -13.46,38.2 -177.41,330.2 -177.41,330.2" /></g><path
         id="path62"
         style="fill:#c37140;fill-opacity:1;fill-rule:nonzero;stroke:none"
         d="m 8594.87,15630.6 c 0,0 -10.96,195 120.61,171.1 131.58,-24 105.16,-361.4 47.5,-410.8 -57.65,-49.5 -57.65,-49.5 -57.65,-49.5 0,0 -128.91,-353.8 -199,-442.8 -70.08,-89 -411.56,-143.1 -460.9,-134.1 -49.34,8.9 -138.2,416.3 -138.2,416.3 0,0 -146.66,38.8 -153.72,53 -7.05,14.3 91.77,249.1 98.15,274.1 6.37,25.1 -60.85,279 -63.04,361.4 -2.18,82.4 45.86,278.5 57.65,296.9 11.79,18.3 216.01,23.4 256.99,16.5 40.98,-6.8 173.1,-33.3 217.71,-74.9 44.62,-41.6 91,-272.3 143.35,-367.5 52.35,-95.2 76.95,-117.5 130.55,-109.7" /><path
         id="path64"
         style="fill:#ececec;fill-opacity:1;fill-rule:nonzero;stroke:none"
         d="m 3916.16,10355.3 h -0.01 C 3728.66,10199.7 3579,10100.2 3579,10100.2 c 0,0 33.62,-269.2 60.52,-349.9 26.9,-80.7 262.25,-154.7 295.87,-154.7 15.47,0 187.65,138.2 424.02,316.8 -252.05,204.7 -443.25,442.9 -443.25,442.9" /><g
         transform="scale(1.02868)"
         id="g66"><path
           id="path68"
           style="fill:#361c19;fill-opacity:1;fill-rule:nonzero;stroke:none"
           d="m 16062.1,9380.46 -188.6,-28.39 c 0,0 -171,-111.6 -220.3,-281.81 -49.5,-170.22 10.8,-236.03 -109.9,-365.03 -120.7,-129.01 537.1,-190.74 537.1,-190.74 0,0 73.2,-54.72 146.4,223.5 73.2,278.32 -164.7,642.47 -164.7,642.47" /></g><path
         id="path70"
         style="fill:#100f0d;fill-opacity:1;fill-rule:nonzero;stroke:none"
         d="m 11092.5,4820.4 c 0,0 -100.9,20.2 -228.6,-74 -127.8,-94.1 -376.6,-147.9 -833.9,-228.6 -457.21,-80.7 -786.7,-141.2 -793.43,-383.3 -6.73,-242.1 437.08,-322.8 477.43,-329.5 40.34,-6.7 1163.3,-6.7 1277.6,60.5 114.3,67.3 323.3,137.8 336.2,316.1 13,178.2 33.7,430.3 0,457.2 -33.6,26.9 -235.3,181.6 -235.3,181.6" /><path
         id="path72"
         style="fill:#b5613d;fill-opacity:1;fill-rule:nonzero;stroke:none"
         d="m 13889.8,6945.3 c -40.3,40.3 -369.8,233.1 -578.3,203.9 -208.4,-29.1 -497.6,-392.2 -497.6,-392.2 0,0 -585,-564.8 -961.6,-1116.2 -376.5,-551.4 -759.8,-820.4 -759.8,-820.4 0,0 80.7,-242.1 53.8,-376.6 -26.9,-134.5 464,-73.2 490.9,-50.1 26.9,23.2 854,507.4 854,507.4 l 1082.6,564.8 692.6,-806.9 618.6,-33.6 168.1,464 -1163.3,1855.9" /><path
         id="path74"
         style="fill:#d8d7d5;fill-opacity:1;fill-rule:nonzero;stroke:none"
         d="m 11307.4,5001.4 c -129.6,-121.1 -214.9,-181 -214.9,-181 0,0 80.7,-242.1 53.8,-376.6 -26.9,-134.5 464,-73.2 490.9,-50.1 4.8,4.2 35.8,23.5 83.2,52.1 -158.6,157.4 -315.2,394.8 -413,555.6" /><path
         id="path76"
         style="fill:#2e2d2d;fill-opacity:1;fill-rule:nonzero;stroke:none"
         d="m 12025.2,4359.6 c 0,0 -51.8,-917.7 -119.1,-978.2 -67.2,-60.5 -706,107.6 -1116.2,87.4 -410.2,-20.2 -961.59,74 -1116.25,255.5 -154.66,181.6 13.45,369.9 208.45,423.7 195,53.7 860.7,167.7 1001.9,211.6 141.2,43.9 459.9,185.1 522.5,198.5 62.6,13.5 62.6,-60.5 62.6,-60.5 0,0 292.1,-121.4 307.4,-138 15.3,-16.6 248.7,0 248.7,0" /><path
         id="path78"
         style="fill:#c37140;fill-opacity:1;fill-rule:nonzero;stroke:none"
         d="m 14051.2,5759.6 c 0,0 228.6,-165.9 383.3,-461.8 154.6,-295.9 302.6,-450.5 302.6,-450.5 0,0 -53.8,-275.7 67.2,-309.3 121.1,-33.7 749.2,-40.4 749.2,-40.4 0,0 710,638.8 689.8,759.9 -20.1,121 -242,764.3 -242,764.3 0,0 -699.4,533.5 -1223.9,802.4 -524.5,269 -571.5,345.2 -880.9,273.5 -309.3,-71.7 -511,-495.4 -511,-495.4 0,0 -356.4,-349.6 -766.6,-921.2 -410.2,-571.6 -1149.8,-1183.5 -1149.8,-1183.5 l 73.9,-336.2 c 0,0 221.9,-121 289.2,-87.4 67.2,33.6 309.3,322.8 679.1,484.1 369.9,161.4 1318,829.4 1539.9,1201.5" /><g
         transform="scale(1.06171)"
         id="g80"><path
           id="path82"
           style="fill:#2e2d2d;fill-opacity:1;fill-rule:nonzero;stroke:none"
           d="m 16015,5594.3 285,-281.34 -79.6,-247.05 c 0,0 -52.9,-816.99 -575.7,-1102.01 -522.8,-285.01 -1137.1,0 -1137.1,0 0,0 -361,-31.64 -595.4,63.3 -234.3,95.04 -475,361.02 -475,361.02 0,0 310.4,50.68 443.4,177.36 l 120.3,-145.71 c 0,0 392.6,19.03 728.3,424.41 335.7,405.29 342.1,827.54 342.1,827.54 0,0 478.4,305.26 573.4,226.52 95,-78.74 370.3,-304.04 370.3,-304.04" /></g><g
         transform="scale(1.00848)"
         id="g84"><path
           id="path86"
           style="fill:#100f0d;fill-opacity:1;fill-rule:nonzero;stroke:none"
           d="m 16300,5493.29 -333.4,373.43 200,-7.04 -33.3,-58.5 166.7,-307.89" /></g><g
         transform="scale(1.08385)"
         id="g88"><path
           id="path90"
           style="fill:#b5613d;fill-opacity:1;fill-rule:nonzero;stroke:none"
           d="m 16109.7,6110.18 190.3,-202.61 c 0,0 -252.3,-486.05 -333,-703.14 0,0 -539.7,241.91 -1110.6,254.37 l -506.1,403.19 251.8,546.02 h 1036.1 l 471.5,-297.83" /></g><g
         transform="scale(1.14298)"
         id="g92"><path
           id="path94"
           style="fill:#c37140;fill-opacity:1;fill-rule:nonzero;stroke:none"
           d="m 15633.2,5986.3 49,-515.75 c 0,0 -11.7,-317.68 41.2,-447.17 53,-129.4 153,-352.94 153,-352.94 l 276.5,47.07 c 0,0 11.8,405.87 -23.5,529.41 -35.4,123.62 -76.6,188.28 -76.6,188.28 0,0 97.9,423.63 102,917.78 0,0 145.2,370.7 19.7,735.45 -125.5,364.75 -600.1,553.03 -686.4,596.16 -86.3,43.14 -321.6,-196.15 -356.9,-290.29 -35.3,-94.14 -66.7,-333.34 -47.1,-572.63 19.6,-239.2 164.8,-486.28 164.8,-486.28 0,0 207.9,-161.59 243.1,-155.29 35.3,6.21 141.2,-193.8 141.2,-193.8" /></g><g
         transform="scale(1.09622)"
         id="g96"><path
           id="path98"
           style="fill:#e9eef1;fill-opacity:1;fill-rule:nonzero;stroke:none"
           d="m 14927.7,8243.41 h -116.3 c 0,0 -486.6,-746.38 -486.6,-775.03 0,-28.55 36.8,-282.15 -28.6,-556.09 -65.5,-274.03 -94,-347.65 -106.4,-437.59 -12.2,-89.95 49.1,-355.77 106.4,-388.52 57.2,-32.66 400.7,-81.73 846.5,-163.56 445.8,-81.73 973.3,-81.73 973.3,-81.73 l 184,400.73 v 380.31 c 0,0 -339.4,384.41 -319,764.72 20.4,380.31 167.7,625.7 167.7,625.7 l -90,44.97 -907.8,-67.42 -223.2,253.51" /></g><g
         transform="scale(1.07999)"
         id="g100"><path
           id="path102"
           style="fill:#c37140;fill-opacity:1;fill-rule:nonzero;stroke:none"
           d="m 15343,9053.39 -109.8,-634.55 -81.2,-51.57 c 0,0 -423.1,-579.08 -441.8,-834.36 -18.6,-255.28 373.6,-442.04 865.4,-336.2 492,105.83 608.2,844.63 724.4,981.67 0,0 -240.7,207.5 -294.7,298.89 -54,91.3 -415.1,541.3 -415.1,541.3 l -247.2,34.82" /></g><g
         transform="scale(1.06635)"
         id="g104"><path
           id="path106"
           style="fill:#cda289;fill-opacity:1;fill-rule:nonzero;stroke:none"
           d="m 16300,8478.08 c -39.3,40.61 -73.3,79.53 -89.9,107.66 l 89.9,-107.57 c 0,-0.09 0,-0.09 0,-0.09" /></g><g
         transform="scale(1.06635)"
         id="g108"><path
           id="path110"
           style="fill:#b36138;fill-opacity:1;fill-rule:nonzero;stroke:none"
           d="m 16071.8,8265.02 c 0,0 -4.7,173.49 0,194.59 4.8,21 20.6,46.23 49.3,66.96 28.7,20.72 89,59.17 89,59.17 v 0 c 16.6,-28.13 50.6,-67.05 89.9,-107.66 -27.8,-178.93 -228.2,-213.06 -228.2,-213.06" /></g><g
         transform="scale(1.05464)"
         id="g112"><path
           id="path114"
           style="fill:#a45532;fill-opacity:1;fill-rule:nonzero;stroke:none"
           d="m 15804.2,8840.71 c -9.8,2.84 -95,44.94 -95,44.94 0,0 54,-156.35 123.4,-269.38 69.4,-113.12 212.8,-219.12 305.5,-234.87 92.7,-15.73 112.2,-24.65 112.2,-24.65 l 49.7,389.9 -495.8,94.06" /></g><g
         transform="scale(1.01642)"
         id="g116"><path
           id="path118"
           style="fill:#e9eef1;fill-opacity:1;fill-rule:nonzero;stroke:none"
           d="m 16300,9542.44 c -58.7,38.96 -265.8,65.13 -265.8,65.13 0,0 -16.9,-94.94 88.7,-240.25 37.2,-51.26 79.7,-81.96 119.1,-100.26 l 58,275.38" /></g><g
         transform="scale(1.08574)"
         id="g120"><path
           id="path122"
           style="fill:#361c19;fill-opacity:1;fill-rule:nonzero;stroke:none"
           d="m 16131.1,9299.69 c 11.6,-10.98 97.6,-136.69 97.6,-136.69 0,0 71.3,235.93 30.9,468.69 -40.5,232.75 -218.2,417.21 -585.6,434.11 -367.4,17 -586.1,-233.87 -684.3,-415.2 -98.1,-181.35 -66.6,-534.85 -60.2,-590.2 6.4,-55.36 187.7,-221.24 187.7,-221.24 l 699.3,129.69 314.6,330.84" /></g><g
         transform="scale(1.08266)"
         id="g124"><path
           id="path126"
           style="fill:#c37140;fill-opacity:1;fill-rule:nonzero;stroke:none"
           d="m 15275.3,9116.13 c 0,0 -62.4,54.5 -127.5,49.14 -65,-5.35 -57.1,-122.19 -29.5,-254.28 27.6,-131.99 143.1,-136.79 143.1,-136.79 0,0 34.8,-107.14 61.7,-170.41 27.1,-63.27 272.2,-292.52 337,-316.17 64.9,-23.64 154,-33.99 213,-24.75 59,9.33 269.2,210.41 341.1,385.62 71.9,175.31 51.8,399.85 55.9,481.04 4,81.09 29.9,230.59 -0.6,356.53 -30.5,125.94 -141.9,219.42 -345.4,243.04 -203.4,23.61 -370.6,-56.85 -468.9,-209.73 -98.2,-152.87 -111.5,-387.53 -179.9,-403.24" /></g><g
         transform="scale(1.09622)"
         id="g128"><path
           id="path130"
           style="fill:#a45532;fill-opacity:1;fill-rule:nonzero;stroke:none"
           d="m 16300,6621.93 v 543.87 c 0,0 -20.4,-231.8 -114.5,-389.88 l 114.5,-153.99" /></g><g
         transform="scale(1.02521)"
         id="g132"><path
           id="path134"
           style="fill:#c37140;fill-opacity:1;fill-rule:nonzero;stroke:none"
           d="m 15837.4,8814.4 c 0,0 -472.2,45.85 -701.8,-124.66 -229.7,-170.5 -288.7,-629.62 -288.7,-629.62 0,0 -157.4,-502.93 -236,-979.51 -78.7,-476.68 -26.3,-470.05 150.8,-647.19 177.1,-177.03 983.3,-588.56 1466.7,-726.87 l 71.6,320.22 c 0,0 -414.6,192.45 -633.1,441.67 -218.7,249.22 -494.2,454.73 -494.2,454.73 0,0 130.1,410.85 156.4,626.32 26.2,215.46 -12.1,436.2 -12.1,436.2 l 520.4,828.71" /></g><path
         id="path136"
         style="fill:#a45532;fill-opacity:1;fill-rule:nonzero;stroke:none"
         d="m 15375.9,7200.8 179.3,-103.1 31.4,103.1 z" /><g
         transform="scale(1.06968)"
         id="g138"><path
           id="path140"
           style="fill:#c37140;fill-opacity:1;fill-rule:nonzero;stroke:none"
           d="m 15553.7,5469.3 c 0,0 151.2,-156.22 220.3,-172.95 69.1,-16.74 113.2,-12.53 121.6,-23 8.3,-10.47 31.4,-69.18 108.9,-67.13 77.6,2.16 146.7,69.75 174,102.75 27.3,32.9 25.1,75.44 25.1,75.44 0,0 36.8,10.28 42.6,50.2 5.6,39.82 0,60.77 0,60.77 0,0 39.1,27.29 45.4,73.38 6.2,46.09 4.2,48.24 0,60.77 -4.2,12.62 8.4,64.97 -12.5,90.12 -21,25.15 -67.2,31.41 -73.4,35.62 -6.3,4.2 -73.3,77.5 -157.2,96.38 -83.8,18.89 -234.2,-67.03 -426.2,-75.44 -191.9,-8.42 -212.8,-37.68 -208.7,-73.29 4.2,-35.72 140.1,-233.62 140.1,-233.62" /></g><g
         transform="scale(1.06914)"
         id="g142"><path
           id="path144"
           style="fill:#a45532;fill-opacity:1;fill-rule:nonzero;stroke:none"
           d="m 16299.8,5675.3 -100.6,-9.35 100.6,-33.58 c -2.1,6.55 0.2,24.13 0,42.93" /></g><g
         transform="scale(1.06853)"
         id="g146"><path
           id="path148"
           style="fill:#a45532;fill-opacity:1;fill-rule:nonzero;stroke:none"
           d="m 16137.2,5558.02 126.5,-56.71 c 0,0 22.6,15.91 36.3,43.7 -68.5,17.6 -162.8,13.01 -162.8,13.01" /></g><g
         transform="scale(1.0657)"
         id="g150"><path
           id="path152"
           style="fill:#a45532;fill-opacity:1;fill-rule:nonzero;stroke:none"
           d="m 16142.2,5492.82 c 0,0 0,0 54.6,-35.75 54.7,-35.75 67.4,-52.54 67.4,-52.54 0,0 23.3,6.56 35.8,29.46 -62.3,47.76 -157.8,58.83 -157.8,58.83" /></g><g
         transform="scale(1.05166)"
         id="g154"><path
           id="path156"
           style="fill:#a45532;fill-opacity:1;fill-rule:nonzero;stroke:none"
           d="m 16300,5363.7 h -132.1 c 7.8,-9.8 28.3,-60.57 92.4,-67.42 11.7,32.52 39.7,67.42 39.7,67.42" /></g><g
         transform="scale(1.06349)"
         id="g158"><path
           id="path160"
           style="fill:#a45532;fill-opacity:1;fill-rule:nonzero;stroke:none"
           d="m 16086.4,5796.29 213.6,-7.52 c -3.7,2.44 -28.3,28.58 -64.9,53.78 -42,-39.77 -111,-46.07 -148.7,-46.26" /></g><path
         id="path162"
         style="fill:#a45532;fill-opacity:1;fill-rule:nonzero;stroke:none"
         d="m 14219.3,6213.5 c 0,0 -60.5,-234.3 -168.1,-453.9 l 166,-154.3 c 0,0 -78.6,279.8 2.1,608.2" /><path
         id="path164"
         style="fill:#ececec;fill-opacity:1;fill-rule:nonzero;stroke:none"
         d="m 11722.5,4719.4 c -150.4,-136.5 -253.4,-221.8 -253.4,-221.8 l 73.9,-336.2 c 0,0 221.9,-121 289.2,-87.4 36,18 122.4,109.5 251.7,215.4 -130.8,156.7 -273.3,325.8 -361.4,430" /><g
         transform="scale(1.13279)"
         id="g166"><path
           id="path168"
           style="fill:#a45532;fill-opacity:1;fill-rule:nonzero;stroke:none"
           d="m 16300,4939.95 c 0,0 -63.1,11.91 -122.5,0 -59.3,-11.83 -191.1,-153.43 -191.1,-153.43 l 313.6,93.75 v 59.68" /></g><g
         transform="scale(1.14586)"
         id="g170"><path
           id="path172"
           style="fill:#c37140;fill-opacity:1;fill-rule:nonzero;stroke:none"
           d="m 15804,4731.91 c 0,0 -14.5,-52.71 32.4,-73.22 v -70.43 c 0,0 -25.2,-32.29 -34.5,-61.61 -9.5,-29.41 0,-55.77 0,-55.77 0,0 -31.3,-61.61 -4.2,-99.75 27,-38.14 217.7,-143.82 261.7,-108.56 44.1,35.17 44.1,49.83 55.8,61.61 11.7,11.69 33.5,35.17 69.5,76.28 36.1,41.1 97.8,93.9 106.6,152.55 8.7,58.73 -35.3,132.03 -49.9,155.51 -14.7,23.48 -143.8,153.51 -214.2,151.59 -70.4,-1.92 -223.2,-128.2 -223.2,-128.2" /></g><g
         transform="scale(1.1361)"
         id="g174"><path
           id="path176"
           style="fill:#a45532;fill-opacity:1;fill-rule:nonzero;stroke:none"
           d="m 16128.4,4761.83 c 23.6,-2.03 171.6,-110.47 165.7,-102.64 -5.9,7.92 -120.3,128.25 -144.1,136.17 -23.6,7.92 -64.9,1.94 -64,0 0.8,-1.67 -61.9,-66.1 -134.2,-82.03 5,-5.64 11.7,-10.74 20.7,-14.62 v -2.81 c 16.3,3.87 34.1,5.81 49.4,2.81 39.4,-7.92 216.9,-153.06 211,-143.65 -5.9,9.42 -151.9,161.35 -147.9,177.19 3.9,15.75 19.7,31.51 43.4,29.58" /></g><g
         transform="scale(1.12358)"
         id="g178"><path
           id="path180"
           style="fill:#a45532;fill-opacity:1;fill-rule:nonzero;stroke:none"
           d="m 16150.4,4679.23 c 0,0 -8.6,-11.13 -17.8,-26.26 l 167.4,-143.38 -149.6,169.64" /></g><g
         transform="scale(1.12139)"
         id="g182"><path
           id="path184"
           style="fill:#a45532;fill-opacity:1;fill-rule:nonzero;stroke:none"
           d="m 16146.7,4568.45 c 0,0 -9.2,-18.1 -13.4,-40.84 45.8,-40.04 115.5,-92.39 166.7,-101.13 l -153.3,141.97" /></g></g></g></svg>