<?xml version="1.0" encoding="UTF-8" standalone="no"?>
<svg
   xmlns:dc="http://purl.org/dc/elements/1.1/"
   xmlns:cc="http://creativecommons.org/ns#"
   xmlns:rdf="http://www.w3.org/1999/02/22-rdf-syntax-ns#"
   xmlns:svg="http://www.w3.org/2000/svg"
   xmlns="http://www.w3.org/2000/svg"
   viewBox="0 0 2666.6667 2666.6667"
   height="2666.6667"
   width="2666.6667"
   xml:space="preserve"
   id="svg2"
   version="1.1"><metadata
     id="metadata8"><rdf:RDF><cc:Work
         rdf:about=""><dc:format>image/svg+xml</dc:format><dc:type
           rdf:resource="http://purl.org/dc/dcmitype/StillImage" /></cc:Work></rdf:RDF></metadata><defs
     id="defs6" /><g
     transform="matrix(1.3333333,0,0,-1.3333333,0,2666.6667)"
     id="g10"><g
       transform="scale(0.1)"
       id="g12"><g
         transform="scale(1.22699)"
         id="g14"><path
           id="path16"
           style="fill:none;fill-opacity:1;fill-rule:nonzero;stroke:none"
           d="M 16300,0 H 0 V 16300 H 16300 V 0" /></g><path
         id="path18"
         style="fill:#252323;fill-opacity:1;fill-rule:nonzero;stroke:none"
         d="m 13696.3,5435.8 c 0,0 -17.5,-138.6 41,-228.6 58.6,-90.1 351.3,-242.3 450.8,-347.7 99.6,-105.4 117.1,-222.4 228.4,-245.9 111.2,-23.4 398.1,216.7 503.5,333.7 105.4,117.1 111.2,491.7 298.6,687.9 187.3,196.2 398.1,535.6 409.8,775.7 11.7,240.2 -158.1,351.4 -263.5,363.1 -105.3,11.7 -368.8,-263.6 -409.8,-363.1 -41,-99.4 -245.9,-222.4 -433.2,-269.2 -187.4,-46.8 -406,-29.3 -472.3,-52.7 -66.4,-23.4 -119.1,-146.4 -154.2,-210.8 -35.1,-64.4 -158.1,-298.5 -158.1,-298.5 l -41,-143.9" /><path
         id="path20"
         style="fill:#ffffff;fill-opacity:1;fill-rule:nonzero;stroke:none"
         d="m 13842.7,5468.4 11.7,-186.1 c 0,0 117.1,-33.9 169.8,0 52.7,33.9 163.9,273.9 163.9,373.5 0,99.5 -138.5,347.3 -138.5,347.3 l -312.3,-423.4 105.4,-111.3" /><path
         id="path22"
         style="fill:#b05d37;fill-opacity:1;fill-rule:nonzero;stroke:none"
         d="m 11543.8,5282.3 c -7.8,41.7 0,1009.7 0,1009.7 0,0 179.5,-437.2 616.7,-554.3 437.1,-117.1 952.3,-174.5 1272.4,-301.9 320,-127.4 421.5,-153.5 421.5,-153.5 l 195.2,720.8 c 0,0 -273.2,85.9 -468.4,179.6 -195.1,93.7 -1334.9,897.7 -1530,999.2 -195.2,101.5 -460.3,469.4 -815.7,429.9 -355.3,-39.6 -776.8,-755.3 -870.5,-937.3 -93.7,-182 249.8,-858.7 288.9,-897.7 39,-39.1 132.7,-325.4 413.7,-494.5 281,-169.1 476.2,0 476.2,0" /><path
         id="path24"
         style="fill:#1c1b1a;fill-opacity:1;fill-rule:nonzero;stroke:none"
         d="m 11317.4,4197.1 608.9,892.7 c 0,0 -796.3,655.7 -991.4,897.7 -195.2,242 -569.9,687 -569.9,687 l -273.2,-530.8 v -954.5 c 0,0 218.6,-634.3 538.6,-800.1 320.1,-165.8 687,-192 687,-192" /><path
         id="path26"
         style="fill:#252323;fill-opacity:1;fill-rule:nonzero;stroke:none"
         d="m 11705.8,9121.7 c 0,0 -105.4,-5.8 -128.8,82 -23.5,87.8 35.1,193.2 64.3,251.8 29.3,58.5 29.8,398.1 -2.6,456.6 -32.5,58.6 -214,591.4 -208.1,661.6 5.8,70.3 234.2,245.9 456.6,240.1 222.5,-5.9 702.6,-527 802.1,-661.6 99.6,-134.7 70.3,-433.3 111.3,-515.2 41,-82 204.9,-286.9 286.9,-445 81.9,-158.1 64.4,-485.9 0,-526.9 -64.4,-41 -111.3,-99.6 -275.2,-93.7 -163.9,5.9 -517.7,65.4 -613.1,91.3 -95.3,25.8 -294.4,107.8 -329.5,148.7 -35.1,41 -163.9,310.3 -163.9,310.3" /><path
         id="path28"
         style="fill:#c37140;fill-opacity:1;fill-rule:nonzero;stroke:none"
         d="m 10724.1,5507.9 c 0,0 -183.4,378.3 -517.1,722.7 -333.77,344.4 -392.32,566.8 -392.32,566.8 0,0 767.02,216.7 1048.02,427.4 281,210.8 731.8,872.4 966,1094.8 234.2,222.5 550.3,503.6 567.9,527 17.6,23.4 23.4,169.8 -64.4,263.4 -87.8,93.7 -222.5,123 -245.9,128.8 -23.4,5.9 -64.4,-70.2 -158.1,-93.6 -93.6,-23.5 -222.4,-23.5 -222.4,-23.5 0,0 -646,-534.7 -958.3,-690.8 -312.2,-156.1 -843.04,-382.5 -1100.65,-523 -257.61,-140.5 -577.67,-218.6 -741.6,-312.3 -163.93,-93.7 -312.25,-218.6 -398.12,-468.4 -85.87,-249.8 -25.04,-660.8 109.3,-1065.2 134.32,-404.4 1467.57,-745.8 1545.67,-777 78,-31.3 562,222.9 562,222.9" /><path
         id="path30"
         style="fill:#252323;fill-opacity:1;fill-rule:nonzero;stroke:none"
         d="m 9358.02,2794.8 c 0,0 390.31,-85.9 413.73,-78.1 3.98,1.3 27.19,0.9 65.12,0.4 184.93,-2.4 719.63,-4.7 1082.43,202.6 437.1,249.8 538.6,693.2 429.3,1150.6 -109.3,457.5 -187.3,637 -202.9,761.9 -15.7,124.9 0,617.5 -156.2,675.7 -156.1,58.1 -608.9,34.7 -1014.79,151.8 C 9568.79,5776.8 8616.43,6062 8616.43,6062 l 405.92,-1222 -515.22,-1025 359.09,-778.2 491.8,-242" /><path
         id="path32"
         style="fill:#b05d37;fill-opacity:1;fill-rule:nonzero;stroke:none"
         d="m 6992.72,5572.5 171.74,55.9 c 0,0 398.12,85.9 686.95,335.7 288.83,249.8 421.54,726 421.54,936.8 0,210.7 -156.13,327.8 -273.22,351.2 -117.09,23.5 -538.63,46.9 -765.01,0 -226.39,-46.8 -934.3,-343.4 -1185.33,-405.9 -251.03,-62.4 -719.4,-323.9 -719.4,-323.9 0,0 -23.42,-339.6 85.86,-355.2 109.29,-15.6 382.51,-54.7 382.51,-54.7 l 413.73,-50.7 109.29,300.5 320.06,-15.6 c 0,0 -325.47,-157.3 -432.05,-406.5 -106.58,-249.2 10.06,-678.6 104.18,-717.6 94.13,-39 679.15,-33 679.15,-33 v 383" /><path
         id="path34"
         style="fill:#1b1918;fill-opacity:1;fill-rule:nonzero;stroke:none"
         d="m 9576.59,3585.5 c 0,0 -247.85,325.6 -299.56,425.1 -51.72,99.5 -299.57,333.7 -299.57,333.7 l 154.18,162.8 c 0,0 103.43,-180.4 234.44,-409.3 131.02,-228.9 210.51,-512.3 210.51,-512.3" /><path
         id="path36"
         style="fill:#c37140;fill-opacity:1;fill-rule:nonzero;stroke:none"
         d="m 7023.95,2576.2 c 0,0 -320.06,-31.7 -601.08,-8.1 -281.03,23.7 -373.48,70.5 -373.48,70.5 0,0 -844.3,-210.7 -1109.72,-226.3 -265.41,-15.6 -796.24,77.5 -936.75,155.8 -140.51,78.4 -306.39,289.1 -300.54,429.6 5.86,140.5 -76.11,386.4 -35.13,649.9 40.99,263.5 240.04,889.9 240.04,889.9 l 521.07,-30.4 c 0,0 0,-244.8 11.71,-373.6 11.71,-128.8 134.66,-403.9 134.66,-403.9 0,0 158.08,93.6 322.01,99.5 163.93,5.9 234.19,0 234.19,0 0,0 132.98,122.7 212.63,152.2 79.65,29.5 50.83,140.5 290.87,199.1 240.04,58.5 462.52,146.3 620.6,122.9 158.08,-23.4 597.18,-5.8 831.37,-175.6 234.19,-169.8 468.37,-345.4 468.37,-345.4 v -843.1 l -530.82,-363" /><path
         id="path38"
         style="fill:#97482d;fill-opacity:1;fill-rule:nonzero;stroke:none"
         d="m 6703.89,6062 c 0,0 58.55,-222.8 218.58,-289.1 160.03,-66.4 432.35,-87.1 432.35,-87.1 l -362.1,-113.3 -403.21,-64.6 313.44,140.1 c 0,0 -222.09,-7.6 -366.9,109.2 0,0 177.44,-27.3 264.37,-15.6 0,0 -135.56,121.7 -96.53,320.4" /><path
         id="path40"
         style="fill:#97482d;fill-opacity:1;fill-rule:nonzero;stroke:none"
         d="m 6641.44,6346.6 c 0,0 413.73,3.9 628.4,0 214.68,-3.9 425.44,50.8 425.44,50.8 0,0 -218.57,-142.9 -468.37,-163.2 -249.8,-20.3 -690.86,51.6 -690.86,51.6 l 105.39,60.8" /><path
         id="path42"
         style="fill:#c37140;fill-opacity:1;fill-rule:nonzero;stroke:none"
         d="m 3907.29,4537.5 c 0,0 25.38,173.7 40.99,204.9 15.61,31.3 121,164 210.77,312.3 89.77,148.3 298.59,481.3 357.13,517.8 58.55,36.4 316.16,-197.8 316.16,-197.8 l 333.71,-456.6 v -274.4 c 0,0 -132.7,-4.8 -226.38,-42.8 -93.67,-38 -124.89,-45.8 -253.7,-45.8 -128.8,0 -257.61,-48 -257.61,-48 l -202.96,-84.7 -318.11,115.1" /><path
         id="path44"
         style="fill:#a45634;fill-opacity:1;fill-rule:nonzero;stroke:none"
         d="m 6411.15,3594.9 c 0,0 379.76,3.6 552.87,68.2 l 69.17,-103.4 c 0,0 -262.95,-42.9 -415.17,-50.7 -152.22,-7.8 -226.38,27.4 -230.29,39.1 -3.9,11.7 23.42,46.8 23.42,46.8" /><path
         id="path46"
         style="fill:#a45634;fill-opacity:1;fill-rule:nonzero;stroke:none"
         d="m 5130.93,3829.1 c 0,0 216.81,-46.8 474.32,-117.1 257.51,-70.3 257.51,-70.3 257.51,-70.3 0,0 -210.76,124.1 -365.91,173.3 -155.16,49.2 -290.23,78.5 -290.23,78.5 l -75.69,-64.4" /><path
         id="path48"
         style="fill:#e9eef1;fill-opacity:1;fill-rule:nonzero;stroke:none"
         d="m 5376.83,4098.4 -33.27,-117.1 c 0,0 548.48,218.6 923.18,187.4 374.7,-31.2 811.85,-569.9 882.11,-866.5 70.25,-296.7 -124.9,-726 -124.9,-726 0,0 452.76,-39 897.72,54.6 444.95,93.7 1014.81,117.1 1209.97,132.7 195.15,15.7 226.38,31.3 226.38,31.3 0,0 39.03,460.5 -54.65,749.4 -93.67,288.8 -234.19,474.9 -241.99,553.6 -7.81,78.7 85.87,357.4 70.26,409.3 -15.61,51.9 -109.29,332.9 -109.29,332.9 0,0 -421.54,78.1 -608.89,109.3 -187.35,31.2 -554.25,109.3 -601.08,156.1 -46.84,46.9 -337.45,343.5 -457.56,413.8 -120.1,70.2 -333.92,55 -480.72,43.1 -146.79,-11.9 -388.79,-35.3 -388.79,-35.3 L 5622.72,4982.5 5513.44,4693 c 0,0 -103.35,-477.5 -136.61,-594.6" /><path
         id="path50"
         style="fill:#b05d37;fill-opacity:1;fill-rule:nonzero;stroke:none"
         d="m 5224.68,4639.9 c 0,0 117.01,-184.3 152.15,-289.7 35.12,-105.4 -35.14,-263.5 0,-251.8 35.12,11.7 362.98,230.6 755.25,270.5 392.27,39.8 725.98,74.9 866.49,320.8 140.52,245.9 48.79,480.1 -306.39,497.7 -355.18,17.6 -1025.12,-78.9 -1059,-109.7 -33.88,-30.8 -199.94,-89.4 -289.62,-136.2 -89.68,-46.8 -115.05,-128.8 -115.05,-128.8 l -3.83,-172.8" /><path
         id="path52"
         style="fill:#b2b5b7;fill-opacity:1;fill-rule:nonzero;stroke:none"
         d="m 7554.77,4039.9 c 0,-7.8 -214.67,-179.6 -308.34,-249.8 -93.68,-70.3 -282.41,-127 -282.41,-127 l 69.17,-103.4 c 0,0 119.56,46.9 246.41,144.5 126.86,97.6 337.62,366.1 337.62,366.1 0,0 -62.45,-22.6 -62.45,-30.4" /><path
         id="path54"
         style="fill:#ffffff;fill-opacity:1;fill-rule:nonzero;stroke:none"
         d="m 11993,9172.9 c 0,0 150.2,-100.4 265.2,-456.3 77.3,70.7 131.4,120.7 138.4,130 17.6,23.4 23.4,169.8 -64.4,263.4 -87.8,93.7 -222.5,123 -245.9,128.8 -17.1,4.3 -43.7,-35.1 -93.3,-65.9" /><path
         id="path56"
         style="fill:#2f1d16;fill-opacity:1;fill-rule:nonzero;stroke:none"
         d="m 6212.09,6061.7 c 0,0 13.67,109.3 -80.01,220.5 -93.68,111.3 -193.2,164 -286.88,175.7 -93.68,11.7 -351.28,76.1 -515.21,64.4 -163.94,-11.8 -304.45,-82 -362.99,-99.6 -58.55,-17.5 -158.08,-46.8 -204.92,-87.8 -46.84,-41 -70.25,-128.8 -152.22,-193.2 -81.96,-64.4 -105.39,-374.7 -128.81,-433.2 -23.41,-58.6 11.71,-398.2 35.13,-486 23.42,-87.8 128.81,-234.2 216.63,-310.3 87.82,-76.1 152.22,-105.4 251.75,-175.6 99.53,-70.3 388.67,-135.7 388.67,-135.7 0,0 185.09,129.8 208.51,124 23.42,-5.9 99.53,-87.8 199.06,-46.9 99.53,41 454.16,199.1 431.99,363 -22.16,164 -0.7,1020.7 -0.7,1020.7" /><path
         id="path58"
         style="fill:#c37140;fill-opacity:1;fill-rule:nonzero;stroke:none"
         d="m 5470.5,4894.7 c 0,0 -210.77,15.6 -241.99,-82 -31.23,-97.6 136.61,-234.2 214.67,-234.2 78.06,0 183.45,50.7 183.45,50.7 0,0 113.18,-85.8 218.57,-113.1 105.39,-27.4 257.61,15.6 476.18,27.3 218.58,11.7 378.61,81.9 499.6,183.4 121,101.5 3.91,296.7 -42.93,355.2 -46.84,58.5 -85.87,105.4 -85.87,105.4 0,0 54.65,70.2 50.74,105.4 -3.9,35.1 -101.48,105.4 -124.9,136.6 -23.42,31.2 -23.42,101.5 -81.97,210.8 -58.54,109.2 -93.67,140.5 -109.28,179.5 -15.62,39 -175.64,234.2 -214.68,242 -39.03,7.8 -151.71,-124.9 -162.7,-171.7 -10.99,-46.9 -22.7,-82 -75.39,-99.6 -52.69,-17.5 -87.82,-46.8 -158.07,-105.4 -70.26,-58.5 -146.37,-111.2 -175.64,-158 -29.28,-46.9 -23.42,-175.7 -5.86,-281.1 17.57,-105.4 -11.71,-210.7 -11.71,-263.4 0,-52.7 87.82,-187.4 81.97,-210.8 -5.86,-23.4 0,-41 -35.13,-23.4 -35.13,17.5 -199.06,146.4 -199.06,146.4" /><path
         id="path60"
         style="fill:#9c4c30;fill-opacity:1;fill-rule:nonzero;stroke:none"
         d="m 4662.55,13813.3 c 0,0 -35.13,-394.2 -23.42,-458.6 11.71,-64.4 152.22,-158.1 234.19,-263.5 81.97,-105.4 257.61,-193.2 286.88,-193.2 29.27,0 240.04,223.6 240.04,223.6 l -371.28,888.5 -126.37,58.9 -240.04,-255.7" /><path
         id="path62"
         style="fill:#b05d37;fill-opacity:1;fill-rule:nonzero;stroke:none"
         d="m 4767.93,14652.5 -27.31,54.6 c 0,0 -117.1,-35.1 -148.33,-54.6 -31.22,-19.5 -187.34,-238.1 -183.44,-273.2 3.9,-35.2 42.93,-63.4 42.93,-63.4 0,0 39.04,-10.1 42.94,-37.8 3.9,-27.6 -31.23,-82.3 -31.23,-82.3 0,0 -19.52,-206.9 0,-245.9 19.52,-39 128.73,-15.6 124.86,-27.3 -3.86,-11.7 15.65,-42.9 15.65,-42.9 0,0 -31.22,-101.5 3.91,-144.4 35.13,-43 66.35,0 66.35,0 0,0 429.34,62.4 374.7,169.7 -54.64,107.4 17.7,466.5 4.95,513.3 -12.75,46.8 -98.62,179.5 -98.62,179.5 l -187.36,54.7" /><g
         transform="scale(1.07133)"
         id="g64"><path
           id="path66"
           style="fill:#252323;fill-opacity:1;fill-rule:nonzero;stroke:none"
           d="m 14055.7,14209.6 c 0,0 537.6,-387 632.3,-394.3 94.7,-7.3 262.3,87.4 298.7,276.9 36.4,189.4 102.1,531.9 189.5,786.9 87.4,255.1 123.9,619.4 0,874.4 -123.9,255 -182.2,429.9 -298.8,488.2 -116.5,58.3 -342.4,21.9 -364.3,0 -21.8,-21.9 -167.6,-575.6 -218.6,-684.9 -50.9,-109.3 -400.7,-406.1 -473.6,-512.8 -72.9,-106.6 -43.7,-274.2 -43.7,-274.2 l 278.5,-560.2" /></g><g
         transform="scale(1.08091)"
         id="g68"><path
           id="path70"
           style="fill:#252323;fill-opacity:1;fill-rule:nonzero;stroke:none"
           d="m 10737.4,14823.1 c 0,0 7.2,169.7 50.6,213.1 43.3,43.3 527.2,310.5 621.1,447.7 93.9,137.2 108.3,758.3 231.1,787.2 122.7,28.9 368.3,-317.8 411.7,-606.6 43.3,-288.9 -57.9,-505.6 -57.9,-671.7 0,-166.1 65,-404.4 68.6,-440.5 3.7,-36.1 -617.4,-166.1 -617.4,-166.1 l -361.2,43.1 -346.6,393.8" /></g><path
         id="path72"
         style="fill:#b05d37;fill-opacity:1;fill-rule:nonzero;stroke:none"
         d="m 11668.7,16151.3 c 0,0 -562.1,-85.9 -1514.4,-93.7 -952.41,-7.8 -1295.88,78.1 -1631.55,-35.1 -335.67,-113.2 -554.24,-498.3 -218.58,-1593.8 0,0 1271.22,-665.4 1333.21,-664.5 12.79,4.4 26.28,9 40.7,14 499.62,171.7 1046.02,249.8 921.12,374.7 -124.9,124.9 -491.8,366.9 -491.8,366.9 l -351.26,505.4 843.06,-35.1 c 0,0 671.4,575.7 655.7,653.8 -15.6,78 905.6,101.5 948.5,109.3 42.9,7.8 -534.7,398.1 -534.7,398.1" /><path
         id="path74"
         style="fill:#ed1e24;fill-opacity:1;fill-rule:nonzero;stroke:none"
         d="m 9638.67,13764.3 0.26,-5 h 0.38 0.73 l 0.69,0.3 1.69,0.6 0.51,0.2 0.3,0.1 0.39,0.2 0.61,0.4 0.78,0.7 c 0.31,0.5 1.11,1.2 1.21,3.3 -0.18,2.5 -1.11,3 -1.46,3.5 l -1.61,1.1 -1.93,0.4 c -0.99,0 -0.95,-0.1 -1.14,-0.1 l -0.62,-0.2 c -0.47,-0.2 -1.24,-0.4 -2.38,-0.8 l -34.74,-11.6 36.59,1.9 -0.26,5 1.59,-4.8 1.81,0.6 0.42,0.2 h -0.01 0.01 v 0 h -0.01 0.01 l -1.08,3.9 0.91,-4 0.17,0.1 -1.08,3.9 0.91,-4 -1.1,4.8 v -4.9 c 0.98,0 0.92,0.1 1.1,0.1 l -1.1,4.8 v -4.9 5 l -2.43,-4.4 c 0.66,-0.3 1.31,-0.6 2.43,-0.6 v 5 l -2.43,-4.4 2.43,4.4 -3.54,-3.5 1.11,-0.9 2.43,4.4 -3.54,-3.5 3.54,3.5 h -5 c 0.18,-2.5 1.11,-3 1.46,-3.5 l 3.54,3.5 h -5 5 l -3.79,3.3 c -0.31,-0.5 -1.11,-1.2 -1.21,-3.3 h 5 l -3.79,3.3 3.78,-3.3 -2.63,4.2 -1.15,-0.9 3.78,-3.3 -2.63,4.2 2.44,-3.9 -1.8,4.3 -0.64,-0.4 2.44,-3.9 -1.8,4.3 0.36,-0.9 -0.34,0.9 h -0.02 l 0.36,-0.9 -0.34,0.9 c -0.14,-0.1 -0.82,-0.3 -1.88,-0.7 l 1.68,-4.7 -0.26,5 h -0.37 l 0.26,-5 1.59,-4.8 -1.59,4.8" /><path
         id="path76"
         style="fill:#ed1e24;fill-opacity:1;fill-rule:nonzero;stroke:none"
         d="m 9638.67,13764.3 -0.26,5 -1.29,-0.1 h -0.7 l -0.66,-0.3 c -68.49,-23.5 -114.19,-39.2 -142.76,-49 -14.28,-5 -24.29,-8.4 -30.72,-10.6 -3.22,-1.1 -5.55,-1.9 -7.07,-2.4 l -1.69,-0.6 -0.43,-0.2 h -0.12 l 0.56,-1.6 -0.55,1.6 h -0.01 l 0.56,-1.6 -0.55,1.6 1.63,-4.7 3.53,3.5 -0.76,0.6 c -0.43,0.3 -1.09,0.8 -2.77,0.9 -1.32,0 -2.61,-0.6 -3.54,-1.5 -0.93,-1 -1.46,-2.2 -1.46,-3.5 0,-1.4 0.53,-2.7 1.46,-3.6 0.93,-0.9 2.22,-1.4 3.54,-1.4 l 1.04,0.1 0.42,0.1 0.69,0.2 c 10.27,3.5 162.05,55.6 183.49,62.7 l 35.14,11.7 -36.98,-1.9 0.26,-5 -1.58,4.7 c -11.18,-3.7 -57.15,-19.4 -100.38,-34.2 -21.61,-7.4 -42.53,-14.6 -58.06,-19.9 -7.76,-2.7 -14.17,-4.9 -18.64,-6.4 -2.24,-0.8 -3.99,-1.4 -5.18,-1.8 l -1.36,-0.5 -0.34,-0.1 h -0.06 l 0.84,-2.5 -0.82,2.5 h -0.02 l 0.84,-2.5 -0.82,2.5 1.42,-4.4 -1.33,4.4 h -0.09 l 1.42,-4.4 -1.33,4.4 1.41,-4.7 -1.26,4.8 -0.15,-0.1 1.41,-4.7 -1.26,4.8 1.27,-4.8 -1.04,4.8 h -0.23 l 1.27,-4.8 -1.04,4.8 1.05,-4.8 v 5 l -1.05,-0.2 1.05,-4.8 v 5 c -1.32,0 -2.61,-0.6 -3.54,-1.5 -0.93,-1 -1.46,-2.2 -1.46,-3.5 0,-1.4 0.53,-2.7 1.46,-3.6 0.93,-0.9 2.22,-1.4 3.54,-1.4 v 4.9 l -2.78,-4.1 c 0.44,-0.3 1.09,-0.8 2.78,-0.8 v 4.9 l -2.78,-4.1 2.78,4.2 -3.54,-3.6 0.76,-0.6 2.78,4.2 -3.54,-3.6 c 1.63,-1.6 4.16,-1.9 6.13,-0.7 l -2.59,4.2 1.92,-4.6 0.67,0.4 -2.59,4.2 1.92,-4.6 -1.8,4.4 1.59,-4.4 h 0.21 l -1.8,4.4 1.59,-4.4 c 0.8,0.2 47.19,16.2 182.69,62.8 l -1.63,4.7 0.27,-5 1.29,0.1 -0.27,5 -1.58,4.7 1.58,-4.7" /><path
         id="path78"
         style="fill:#a45634;fill-opacity:1;fill-rule:nonzero;stroke:none"
         d="m 10423.1,15285.9 c 0,0 -151.8,-75.3 -374.2,-104.5 -222.51,-29.3 -526.95,52.2 -526.95,52.2 l 234.19,-208.4 c 0,0 535.86,-22.3 569.06,-23.7 33.2,-1.4 156.9,142.2 156.9,142.2 l -59,142.2" /><path
         id="path80"
         style="fill:#ffffff;fill-opacity:1;fill-rule:nonzero;stroke:none"
         d="m 14884.9,15979.6 c 0,0 382.5,-46.9 460.5,-140.6 78.1,-93.6 39.1,-483.9 0,-569.8 -39,-85.9 -287.1,-46 -287.1,-46 0,0 -196.9,272.4 -212.5,311.4 -15.6,39 39.1,445 39.1,445" /><path
         id="path82"
         style="fill:#ffffff;fill-opacity:1;fill-rule:nonzero;stroke:none"
         d="m 11411,16120.7 195.2,-336.3 c 0,0 242,-15.6 265.4,0 23.5,15.6 109.2,150.4 109.2,150.4 l -312.1,216.5 -257.7,-30.6" /><path
         id="path84"
         style="fill:#c37140;fill-opacity:1;fill-rule:nonzero;stroke:none"
         d="m 11512.5,14028 c 15.6,60.9 140.6,850.9 140.6,850.9 0,0 390.3,-288.9 1241.2,-203 850.8,85.9 874.3,218.6 1514.4,382.5 640.1,163.9 741.6,187.4 741.6,187.4 0,0 46.8,156.1 0,398.1 -46.9,242 -265.4,335.7 -265.4,335.7 0,0 -437.2,-132.8 -952.4,-164 -515.2,-31.2 -1311.5,109.3 -1678.4,93.7 -366.9,-15.6 -624.5,203 -1186.5,70.3 -562.1,-132.8 -760.7,-1050.5 -760.7,-1050.5 l 292.3,-776.2 140.5,-124.9 h 772.8" /><path
         id="path86"
         style="fill:#252323;fill-opacity:1;fill-rule:nonzero;stroke:none"
         d="m 9158.96,11334.8 c 11.71,-35.1 480.08,-320 480.08,-320 0,0 433.26,-113.2 1018.76,74.1 585.4,187.4 620.3,801.9 772.6,1015.7 152.4,213.8 773,1174 773,1174 0,0 -23.4,270 -316.2,556.5 -292.7,286.6 -573.7,310 -831.3,520.7 -257.6,210.8 -831.4,634.3 -831.4,634.3 l -316.14,-778.4 c 0,0 -573.76,35.5 -960.17,66.4 -386.41,30.9 -644.02,150.6 -644.02,150.6 0,0 222.48,-549.6 304.45,-738.6 81.96,-189 187.35,-341.3 222.47,-493.5 35.14,-152.2 46.84,-575.4 46.84,-575.4 v -794.6 l 281.03,-491.8" /><path
         id="path88"
         style="fill:#100f0d;fill-opacity:1;fill-rule:nonzero;stroke:none"
         d="m 9639.04,13290.3 c 11.71,17.6 269.32,921.4 269.32,921.4 l -409.46,26.6 c 0,0 52.32,-157 75.74,-353.4 23.42,-196.5 64.4,-594.6 64.4,-594.6" /><path
         id="path90"
         style="fill:#e9eef1;fill-opacity:1;fill-rule:nonzero;stroke:none"
         d="m 5018.49,12966.4 c 0,0 -55.4,-365.2 170.98,-861.8 226.38,-496.6 616.7,-582.4 733.79,-660.5 117.1,-78.1 647.92,-320 1077.27,-374.7 429.34,-54.6 1295.84,54.7 1842.27,0 546.44,-54.6 796.24,-54.6 796.24,-54.6 0,0 -70.25,148.3 -187.35,374.7 -117.09,226.3 15.61,445 -78.06,601.1 -93.67,156.1 -226.38,335.6 -249.8,398.1 -23.42,62.4 -70.26,716.5 -85.87,732.9 -15.61,16.5 -601.08,24.3 -663.53,71.1 -62.45,46.9 -320.05,148.3 -460.57,171.7 -140.52,23.5 -257.61,55.5 -257.61,55.5 0,0 -92.75,315.2 -448.86,444.2 -356.11,128.9 -1876.89,-380.9 -1931.79,-444.2 -54.9,-63.2 -209.24,-15 -214.35,-42.6 -12.29,-66.6 -42.76,-410.9 -42.76,-410.9" /><path
         id="path92"
         style="fill:#b05d37;fill-opacity:1;fill-rule:nonzero;stroke:none"
         d="m 5055.44,13665 c 0,0 13.89,-434.6 0,-573.8 -13.88,-139.1 -12.33,-562 93.05,-603 105.39,-41 169.79,82 251.75,357.1 81.97,275.2 87.82,462.6 105.39,521.1 17.56,58.5 216.62,140.5 216.62,140.5 0,0 585.47,813.8 579.62,848.9 -5.86,35.2 -23.42,351.3 -76.11,491.8 -52.7,140.6 -650.63,-48.8 -655.97,-40.1 -5.33,8.8 -198.82,92.8 -356.9,-305.3 -158.08,-398.1 -163.93,-597.2 -163.93,-597.2 l 6.48,-240" /><path
         id="path94"
         style="fill:#2f1d16;fill-opacity:1;fill-rule:nonzero;stroke:none"
         d="m 4928.94,13615.2 c 0,0 71.51,-81.9 126.5,-76.1 54.99,5.9 169.16,10.2 233.56,21.2 64.41,11 175.64,89.9 234.19,155.9 58.55,65.9 76.11,90 81.97,118.9 5.85,29 1.95,220.2 0,294.4 -1.95,74.1 -29.28,206.8 -33.18,222.4 -3.9,15.7 62.45,195.2 62.45,195.2 0,0 81.97,-11.7 128.8,-39 46.84,-27.3 85.87,-124.9 101.49,-167.9 15.61,-42.9 11.71,-77.3 27.32,-62.1 15.61,15.3 39.03,34.8 42.93,77.7 3.91,43 -19.51,117.1 31.23,191.3 50.74,74.2 109.28,152.2 109.28,261.5 0,109.3 -81.96,382.5 -81.96,382.5 0,0 -218.58,46.8 -429.35,97.6 -210.76,50.7 -335.66,27.3 -374.7,0 -39.03,-27.3 -107.77,-82 -170.98,-97.6 -63.2,-15.6 -137.36,-50.7 -223.23,-109.3 -85.87,-58.5 -156.13,-144.4 -179.55,-214.6 -23.42,-70.3 10.64,-300.2 21.03,-320.1 10.39,-19.9 318.55,-398.1 318.55,-398.1 l -26.35,-533.8" /><path
         id="path96"
         style="fill:#c37140;fill-opacity:1;fill-rule:nonzero;stroke:none"
         d="m 5650.04,14675.9 c 0,0 -23.41,-82 -15.61,-128.8 7.81,-46.8 -19.51,-249.8 -66.35,-327.9 -46.84,-78 -140.52,-261.5 -167.84,-327.8 -27.32,-66.4 -35.12,-187.4 -70.25,-203 -35.13,-15.6 -109.29,85.9 -97.58,167.9 11.71,81.9 58.55,292.7 58.55,292.7 0,0 -195.16,-173.7 -242,-244 -46.84,-70.2 -101.48,-302.5 -109.29,-314.2 -7.8,-11.7 -70.25,-62.4 -89.77,0 -19.51,62.5 42.94,527.6 15.61,527.3 -27.32,-0.3 -226.38,-268.9 -265.41,-283 -39.03,-14 -7.81,-14 -39.03,-14 -31.23,0 -31.23,174.1 0,217.8 31.22,43.7 214.67,242.8 218.57,277.9 3.91,35.1 -23.41,66.4 -58.54,66.4 -35.13,0 -238.09,-199.1 -257.61,-187.4 -19.52,11.7 -23.42,117.1 0,152.2 23.42,35.2 230.29,214.7 245.9,245.9 15.61,31.3 0,70.3 31.23,113.2 31.22,43 526.92,281.1 565.95,283 39.03,2 148.32,5.9 148.32,5.9 0,0 171.74,-11.7 195.15,-50.8 23.42,-39 0,-269.3 0,-269.3" /><path
         id="path98"
         style="fill:#95492d;fill-opacity:1;fill-rule:nonzero;stroke:none"
         d="m 5586.61,14278.1 c 0,0 86.85,-140.8 161.01,-168.2 74.16,-27.3 119.67,-15.9 119.67,-15.9 l -56.26,-109.4 c 0,0 -205.89,98.7 -224.42,293.5" /><path
         id="path100"
         style="fill:#e9eef1;fill-opacity:1;fill-rule:nonzero;stroke:none"
         d="m 5867.29,14094 c 0,0 -291.41,-336.9 -361.66,-727.6 -70.26,-390.6 0,-620.6 0,-620.6 l 125.9,248.2 c 0,0 -29.02,598.1 235.76,1100" /><path
         id="path102"
         style="fill:#c37140;fill-opacity:1;fill-rule:nonzero;stroke:none"
         d="m 5603.21,13395.7 c 0,0 -70.26,-320.1 163.93,-726 234.19,-405.9 850.88,-616.7 1217.78,-554.3 366.89,62.5 523.01,757.3 515.21,905.6 -7.81,148.3 -491.8,601.1 -491.8,601.1 0,0 405.93,249.8 624.5,507.4 218.58,257.6 304.45,733.8 335.68,1007 31.22,273.2 -15.62,382.5 -273.23,421.5 -257.6,39 -858.68,-78.1 -1303.64,-195.1 -444.96,-117.1 -936.75,-366.9 -936.75,-366.9 l 195.15,-320.1 c 0,0 242,48.8 505.46,95.6 263.46,46.9 468.38,17.6 468.38,17.6 0,0 -146.37,-245.9 -158.08,-269.3 -11.71,-23.4 -310.3,-93.7 -503.51,-292.8 -193.2,-199 -359.08,-831.3 -359.08,-831.3" /><path
         id="path104"
         style="fill:#a45634;fill-opacity:1;fill-rule:nonzero;stroke:none"
         d="m 7121.52,13173.2 c 105.54,-164.9 214.78,-385.5 294.26,-552 60.74,171.8 87.7,336.1 84.35,399.8 -7.81,148.3 -491.8,601.1 -491.8,601.1 l -150.27,-115.2 c 0,0 76.11,-41 263.46,-333.7" /><path
         id="path106"
         style="fill:#a45634;fill-opacity:1;fill-rule:nonzero;stroke:none"
         d="m 7207.39,15191.1 c 0,0 -249.8,-117.1 -416.61,-199 -103.85,-51.1 -263.31,-136.9 -368.92,-194.4 122.97,2.7 202.02,-8.6 202.02,-8.6 0,0 150.27,93.7 286.87,160 136.61,66.4 296.64,242 296.64,242" /><path
         id="path108"
         style="fill:#a45634;fill-opacity:1;fill-rule:nonzero;stroke:none"
         d="m 6742.92,14242.7 c 0,0 85.87,-237.4 35.13,-407.6 0,0 195.15,228 -35.13,407.6" /></g></g></svg>