<?xml version="1.0" encoding="UTF-8" standalone="no"?>
<svg
   xmlns:dc="http://purl.org/dc/elements/1.1/"
   xmlns:cc="http://creativecommons.org/ns#"
   xmlns:rdf="http://www.w3.org/1999/02/22-rdf-syntax-ns#"
   xmlns:svg="http://www.w3.org/2000/svg"
   xmlns="http://www.w3.org/2000/svg"
   viewBox="0 0 2666.6667 2666.6667"
   height="2666.6667"
   width="2666.6667"
   xml:space="preserve"
   id="svg2"
   version="1.1"><metadata
     id="metadata8"><rdf:RDF><cc:Work
         rdf:about=""><dc:format>image/svg+xml</dc:format><dc:type
           rdf:resource="http://purl.org/dc/dcmitype/StillImage" /></cc:Work></rdf:RDF></metadata><defs
     id="defs6" /><g
     transform="matrix(1.3333333,0,0,-1.3333333,0,2666.6667)"
     id="g10"><g
       transform="scale(0.1)"
       id="g12"><g
         transform="scale(1.22699)"
         id="g14"><path
           id="path16"
           style="fill:none;fill-opacity:1;fill-rule:nonzero;stroke:none"
           d="M 16300,0 H 0 V 16300 H 16300 V 0" /></g><g
         transform="scale(1.03701)"
         id="g18"><path
           id="path20"
           style="fill:#100f0d;fill-opacity:1;fill-rule:nonzero;stroke:none"
           d="m 14478.4,13900 c 0,0 172.2,35.6 279.2,0 106.8,-35.6 375.6,-411.2 593.8,-482.5 218.2,-71.2 552.3,-124.7 739.2,-200.4 187.1,-75.7 209.4,-316.2 -151.3,-463.2 -360.8,-147 -726,-22.3 -962,0 -236.1,22.3 -534.5,-82.3 -570.1,-63.4 -35.6,18.9 -167.8,20.8 -173.7,50 -5.8,29.2 -57.9,614.7 -57.9,614.7 l 90.8,480.5 212,64.3" /></g><g
         transform="scale(1.05317)"
         id="g22"><path
           id="path24"
           style="fill:#252323;fill-opacity:1;fill-rule:nonzero;stroke:none"
           d="m 13458.3,12459.6 c 0,0 -177.7,-177.6 -210.5,-249.9 -33,-72.4 -204,-855.2 -111.9,-973.6 92.1,-118.4 986.8,-52.6 1243.2,-105.3 256.6,-52.6 1473.6,-39.4 1697.2,171.1 223.7,210.5 85.5,381.7 -256.6,480.3 -342,98.6 -559,131.4 -841.9,348.5 -282.9,217.1 -539.4,322.3 -598.7,394.7 -59.1,72.4 -39.4,118.4 -184.1,190.8 -144.7,72.3 -407.9,0 -407.9,0 l -328.8,-256.6" /></g><g
         transform="scale(1.04503)"
         id="g26"><path
           id="path28"
           style="fill:#a45330;fill-opacity:1;fill-rule:nonzero;stroke:none"
           d="m 10845,16019.4 402.2,280.6 114.9,-346.9 c 0,0 -529.8,-333.5 -596.7,-322.7 -66.8,10.8 -123.7,-57.4 -172.3,101.7 -48.6,159.1 -125.9,125.9 -46.4,174.6 79.5,48.6 298.3,112.7 298.3,112.7" /></g><g
         transform="scale(1.0702)"
         id="g30"><path
           id="path32"
           style="fill:#b3613c;fill-opacity:1;fill-rule:nonzero;stroke:none"
           d="m 10855.4,15769.9 c 15,8.6 127.2,146.7 127.2,146.7 0,0 365.5,279.8 586.9,331.6 221.6,51.8 451.8,46 653.2,-63.3 201.3,-109.3 264.7,-261.8 437.3,-451.7 172.6,-189.9 668.2,-850.2 907.7,-1303.3 239.5,-453.1 591.3,-1014.2 591.3,-1014.2 0,0 -198.6,-215.7 -202.9,-267.5 -4.3,-51.8 30.2,-198.5 25.9,-224.4 -4.3,-25.9 -189.9,-116.6 -189.9,-116.6 l -1178.2,1242.9 c 0,0 -1674.4,1053 -1717.5,1242.9 -43.2,189.9 -13,362.6 0,397.1 12.9,34.5 -41,79.8 -41,79.8" /></g><g
         transform="scale(1.03029)"
         id="g34"><path
           id="path36"
           style="fill:#b3613c;fill-opacity:1;fill-rule:nonzero;stroke:none"
           d="m 10320.9,15896.6 c 0,0 302.7,291.3 363.1,304.8 60.6,13.4 360.9,98.6 394.6,96.4 33.6,-2.3 31.3,-44.9 0,-76.2 -31.5,-31.4 -170.4,-76.3 -177.1,-83 -6.7,-6.7 -44.9,-41.4 -44.9,-41.4 0,0 157.4,10 177.3,-3.4 20,-13.4 69.3,-118.6 6.5,-159 -62.8,-40.5 -22.4,-8.8 -273.4,-99.7 -251.1,-91 -216.7,-101.5 -282.4,-83.7 -65.7,17.8 -163.7,145.2 -163.7,145.2" /></g><path
         id="path38"
         style="fill:#100f0d;fill-opacity:1;fill-rule:nonzero;stroke:none"
         d="m 12072.9,13920.5 c 0,0 271.9,-34.1 403.5,390.8 131.7,424.9 -62.3,1013.8 -173.2,1090 -110.8,76.2 -325.6,339.5 -692.8,62.4 -367.1,-277.2 -644.2,-409.1 -540.3,-855.8 103.9,-446.7 180.1,-613 346.4,-619.9 166.2,-6.9 656.4,-67.5 656.4,-67.5" /><g
         transform="scale(1.03724)"
         id="g40"><path
           id="path42"
           style="fill:#c37140;fill-opacity:1;fill-rule:nonzero;stroke:none"
           d="m 11361.3,13629.2 c 24.7,54.9 224.2,796.2 224.2,796.2 0,0 138.1,-681.3 663.4,-899.5 525.4,-218.1 1073.1,-739.1 1197.8,-948.4 124.8,-209.3 124.8,-209.3 124.8,-209.3 0,0 195.9,-111.3 289.4,-89 93.5,22.2 400.7,302.8 400.7,302.8 l -62.3,311.6 c 0,0 -654.6,1001.9 -966.2,1505.1 -311.7,503.1 -730.4,1024.1 -765.9,1090.9 -35.7,66.8 -253.9,605.6 -650.1,708 -396.4,102.4 -1097.6,-347.3 -1097.6,-347.3 0,0 -647.9,-797.1 -594.5,-1193.4 53.4,-396.3 -49,-543.2 276,-823.7 325.1,-280.5 374.1,-307.3 605.7,-347.3 231.4,-40.1 354.6,143.3 354.6,143.3" /></g><path
         id="path44"
         style="fill:#a45330;fill-opacity:1;fill-rule:nonzero;stroke:none"
         d="m 11970.7,15401.3 46.2,-438.8 -219,-786 c 0,0 -136.6,51.7 -136.6,65.6 0,13.8 170.8,374.1 240.1,655.8 69.3,281.7 69.3,503.4 69.3,503.4" /><g
         transform="scale(1.00862)"
         id="g46"><path
           id="path48"
           style="fill:#252323;fill-opacity:1;fill-rule:nonzero;stroke:none"
           d="m 8832.48,12666.5 c 0,0 515.15,-199.2 1085.25,-261 570.07,-61.8 776.07,82.4 1050.97,405.2 274.7,322.9 707.4,680 927.2,851.7 219.8,171.8 219.8,171.8 219.8,171.8 0,0 -638.8,226.6 -968.5,947.8 -329.7,721.2 -123.6,1518 -123.6,1518 l -549.5,-240.4 c 0,0 -737.78,-938.9 -807.37,-1013 -69.59,-74.3 -957.88,-498.1 -1026.57,-608 -68.69,-109.9 -394.34,-679.5 -395.25,-776.2 -0.93,-96.6 587.57,-995.9 587.57,-995.9" /></g><path
         id="path50"
         style="fill:#100f0d;fill-opacity:1;fill-rule:nonzero;stroke:none"
         d="m 8974.88,13957.6 c 0,0 460.24,302.9 718.87,580 258.64,277.2 420.25,720.6 420.25,720.6 0,0 -826.68,-415.7 -956,-540.4 -129.32,-124.7 -240.16,-244.8 -277.11,-332.6 -36.95,-87.7 -138.56,6.5 -41.57,-165.3 96.99,-171.8 135.56,-262.3 135.56,-262.3" /><path
         id="path52"
         style="fill:#b3613c;fill-opacity:1;fill-rule:nonzero;stroke:none"
         d="m 6987.29,15045.7 695.09,85.4 c 0,0 417.98,62.4 824.41,85.5 406.43,23.1 591.17,0 591.17,0 0,0 683.55,411 826.72,448 143.22,36.9 110.82,-101.7 110.82,-101.7 0,0 -353.77,-597.9 -715.85,-706.9 -362.07,-108.9 -13.85,-193.7 -720.49,-170.6 -706.64,23.1 -766.68,-9.2 -896,97 -129.32,106.2 -715.87,263.3 -715.87,263.3" /><path
         id="path54"
         style="fill:#e9eef1;fill-opacity:1;fill-rule:nonzero;stroke:none"
         d="m 4672.97,13724.8 137.44,-132.4 1142.32,-846.8 c 0,0 787.46,-2.3 1126.92,0 339.47,2.3 706.64,78.6 1087.67,64.7 381.03,-13.9 741.28,-34.6 741.28,-34.6 0,0 -41.56,387.9 0,741.2 41.57,353.4 117.78,707.3 117.78,707.3 l -83.14,631.8 c 0,0 -510.35,185.1 -856.74,217.4 -346.39,32.3 -443.38,-18.5 -729.73,0 -286.35,18.5 -535.75,17.5 -840.58,11 -304.82,-6.4 -896,-338.9 -1140.78,-565.2 -244.78,-226.3 -604.14,-480.4 -620.75,-503.5 -16.61,-23.1 -81.69,-290.9 -81.69,-290.9" /><path
         id="path56"
         style="fill:#c37140;fill-opacity:1;fill-rule:nonzero;stroke:none"
         d="m 5146.02,14602.6 283.27,-49.1 c 0,0 452.62,285.9 702.02,301.3 249.4,15.4 184.74,-117 40.03,-200.2 -144.71,-83.1 -720.5,-274 -899.08,-409.5 -178.58,-135.5 -461.85,-652.7 -461.85,-652.7 0,0 -97.32,11.7 -137.95,13.5 -40.64,1.9 -350.1,35.7 -430.91,149.7 -80.82,113.9 -271.72,212.4 -182.43,335.6 89.29,123.1 214.06,263.9 397.2,329.4 183.13,65.6 689.7,182 689.7,182" /><path
         id="path58"
         style="fill:#a45330;fill-opacity:1;fill-rule:nonzero;stroke:none"
         d="m 5065.84,14987.7 c 0,0 80.18,-413.1 80.18,-422.4 0,-9.2 -387.96,-427.9 -427.98,-443.3 -40.03,-15.4 -354.74,39.4 -354.74,39.4 l 702.54,826.3" /><path
         id="path60"
         style="fill:#c37140;fill-opacity:1;fill-rule:nonzero;stroke:none"
         d="m 5299.2,14161.2 c 0,0 -376.41,-216.3 -450.3,-568.8 -73.9,-352.6 37.4,-699 221.92,-805.2 184.51,-106.2 590.93,-133.6 812.63,-87.8 221.7,45.9 434.14,129.4 448,129.4 13.86,0 595.79,46.1 831.34,110.8 235.54,64.7 1228.53,799 1228.53,799 0,0 193.98,18.5 387.96,212.5 193.98,194 544.99,332.5 937.57,762 392.55,429.6 443.35,660.5 443.35,660.5 l -300.18,221.7 c 0,0 -235.54,-327.9 -581.93,-452.6 -346.4,-124.7 -641.98,-254.1 -905.24,-429.6 -263.26,-175.5 -471.09,-383.3 -471.09,-383.3 0,0 -277.12,-3.4 -757.44,-105.6 -480.34,-102.2 -752.83,-194.6 -752.83,-194.6 0,0 -549.61,383.3 -1092.29,131.6" /><path
         id="path62"
         style="fill:#a45330;fill-opacity:1;fill-rule:nonzero;stroke:none"
         d="m 5892.69,14061.9 498.8,-32.3 -189.13,102.1 z" /><path
         id="path64"
         style="fill:#a45330;fill-opacity:1;fill-rule:nonzero;stroke:none"
         d="m 8208.89,14131.7 c 0,0 168.58,68.8 210.14,179.6 0,0 50.81,-211.4 -210.14,-179.6" /><g
         transform="scale(1.00734)"
         id="g66"><path
           id="path68"
           style="fill:#c37140;fill-opacity:1;fill-rule:nonzero;stroke:none"
           d="m 9788.14,15481.6 c 0,0 151.18,325.5 252.16,412.6 100.9,87.1 481.4,353.1 515.8,364.5 34.4,11.5 94,9.2 94,9.2 0,0 119.2,32.1 146.7,29.8 27.5,-2.3 68.4,-52.5 68.4,-52.5 0,0 46.3,-4.8 50.8,-41.5 4.6,-36.7 -247.5,-275.1 -279.6,-343.8 -32.2,-68.8 -45.9,-243 -220.1,-401.2 -174.2,-158.2 -330.2,-197.2 -330.2,-197.2 0,0 -226.89,-48.1 -265.86,-9.1 -38.96,38.9 -32.1,229.2 -32.1,229.2" /></g><g
         transform="scale(1.00557)"
         id="g70"><path
           id="path72"
           style="fill:#a45330;fill-opacity:1;fill-rule:nonzero;stroke:none"
           d="m 10534.1,15977.4 c 6.2,10.7 194.4,187.1 248.1,231.2 53.7,44.1 102.2,65.3 102.2,65.3 l -24.7,26.1 c 0,0 -71.3,-40.1 -139.5,-97.9 -68.1,-57.8 -186.1,-224.7 -186.1,-224.7" /></g><g
         transform="scale(1.00557)"
         id="g74"><path
           id="path76"
           style="fill:#a45330;fill-opacity:1;fill-rule:nonzero;stroke:none"
           d="m 10668.9,16296.6 c 0,0 -295.9,-253.4 -298.7,-248.8 -2.9,4.6 252.8,252.2 252.8,252.2 l 45.9,-3.4" /></g><path
         id="path78"
         style="fill:#ececec;fill-opacity:1;fill-rule:nonzero;stroke:none"
         d="m 14728,13373.8 c 0,0 -54.1,82.7 -139,213.3 -195.2,-176.3 -507.7,-350 -705.3,-451.5 26.9,-33.8 48.4,-64 63.7,-89.8 129.4,-217 129.4,-217 129.4,-217 0,0 203.2,-115.5 300.2,-92.4 97,23.1 415.6,314.1 415.6,314.1 l -64.6,323.3" /><g
         transform="scale(1.05845)"
         id="g80"><path
           id="path82"
           style="fill:#a45330;fill-opacity:1;fill-rule:nonzero;stroke:none"
           d="m 11981.6,16283.1 c -16.3,16.9 198.2,-77.5 379.6,-69.8 0,0 -157.1,-161.5 -379.6,69.8" /></g><g
         transform="scale(1.02704)"
         id="g84"><path
           id="path86"
           style="fill:#a45330;fill-opacity:1;fill-rule:nonzero;stroke:none"
           d="m 11835.4,16093.1 c 0,0 85.5,90 220.4,85.5 0,0 -157.4,121.4 -220.4,-85.5" /></g><path
         id="path88"
         style="fill:#ececec;fill-opacity:1;fill-rule:nonzero;stroke:none"
         d="m 15152.9,14357.5 c 0,0 -52.9,84.4 -132.6,215.5 -167.7,-191.3 -439.7,-411.9 -584.4,-524.5 l 324.4,-342.2 c 0,0 198.6,97 203.2,124.7 4.6,27.7 -32.3,184.7 -27.7,240.2 4.6,55.4 217.1,286.3 217.1,286.3" /><path
         id="path90"
         style="fill:#34231f;fill-opacity:1;fill-rule:nonzero;stroke:none"
         d="m 3282.93,15144.1 c -80.81,-15 -113.65,-57.3 -113.65,-57.3 0,0 -102.49,-22.3 -141.93,-72.9 -39.44,-50.6 -49.85,-126.7 -49.85,-126.7 0,0 -88.59,-80.9 -112.19,-173.5 -23.61,-92.5 -13.77,-113.9 -13.77,-113.9 0,0 -40.91,-105.7 -43.11,-188.4 -2.19,-82.6 17.02,-155.5 17.02,-155.5 0,0 -19.49,-95.8 -2.82,-213.9 16.67,-118.1 54.05,-151.5 54.05,-151.5 0,0 8.45,-130.3 53.96,-211.5 45.52,-81.2 153.67,-110.6 153.67,-110.6 0,0 83.47,-152.9 238.63,-180.5 h 0.01 c 75.78,-50 187.85,-90.1 353.02,-92 452.22,-5.3 996.49,310 996.49,310 0,0 -114.96,212.1 -198.2,297.2 -83.23,85.2 -242.9,153.3 -242.9,153.3 0,0 60.6,488 38.27,499.5 -22.32,11.5 -722.25,410.7 -722.25,410.7 l -74.42,67.7 c -8.24,2 -16.47,5.9 -24.62,11.9 0,0 -84.59,112.9 -165.41,97.9" /><path
         id="path92"
         style="fill:#c37140;fill-opacity:1;fill-rule:nonzero;stroke:none"
         d="m 3448.34,15046.2 c 0,0 280.68,92.6 345.32,103.5 64.63,10.9 257.38,-35.6 288.37,-33.4 30.99,2.3 359.33,162.1 378.74,156.3 19.42,-5.8 32.43,-134.4 43.09,-139.5 10.64,-5.2 128.23,-24.4 139.97,-21.9 11.73,2.4 36.16,-2.6 36.16,-2.6 0,0 50.01,6.5 73.97,-5.1 23.96,-11.7 66.47,-17.9 82.67,-22.4 16.21,-4.4 195.61,-13.7 220.37,-37.4 24.77,-23.8 12.39,-389.8 -7.09,-447.9 -19.48,-58.1 -344.24,-386.5 -409.95,-412.7 -65.7,-26.2 -258.88,-17.1 -258.88,-17.1 0,0 -39.54,-155.8 -170.94,-208.3 -131.41,-52.4 -355.93,-19.1 -381.94,112.7 -26.01,131.7 149.23,181.1 196.33,193.2 47.1,12.2 107.96,32.1 112.8,38.4 4.85,6.3 -125.51,94.7 -195.99,126 -70.49,31.4 -262.15,-32.3 -339.66,-7 -77.52,25.2 -155.79,134.2 -169.94,183.7 -14.16,49.4 16.6,441.5 16.6,441.5" /><g
         transform="scale(1.0026)"
         id="g94"><path
           id="path96"
           style="fill:#100f0d;fill-opacity:1;fill-rule:nonzero;stroke:none"
           d="m 14510.3,4878.84 c 6.9,20.75 6.9,345.5 158.9,352.38 152,6.89 226.9,-172.75 334.7,-283.26 107.6,-110.61 335.6,-283.37 487.6,-310.99 152.1,-27.63 352.5,76 580.5,-110.52 228,-186.61 165.9,-476.86 -48.4,-532.12 -214.2,-55.25 -579.8,-191.5 -877.5,-150.31 -297.8,41.2 -637.7,-91.56 -812.9,205.57 -175.2,297.13 177.1,829.25 177.1,829.25" /></g><g
         transform="scale(1.06082)"
         id="g98"><path
           id="path100"
           style="fill:#252323;fill-opacity:1;fill-rule:nonzero;stroke:none"
           d="m 13844.4,3670.65 c 0,0 -191,-176.38 -196.7,-287.43 -5.6,-110.95 84.1,-182.78 0,-398.36 -84,-215.5 -142.8,-365.67 -64.5,-411.38 78.5,-45.72 594.4,-137.16 705.3,-143.67 111.1,-6.5 202.5,143.67 535.6,78.34 333,-65.33 731.4,-117.55 1005.7,19.61 274.3,137.15 470.2,313.43 241.6,613.86 -228.5,300.43 -542,117.55 -796.7,222.09 -254.7,104.45 -483.2,463.61 -581.2,515.92 -97.9,52.23 -594.7,-128.95 -594.7,-128.95 l -254.4,-80.03" /></g><path
         id="path102"
         style="fill:#b3613c;fill-opacity:1;fill-rule:nonzero;stroke:none"
         d="m 13328.7,6297.8 c 23.6,-22 588.9,-688.1 879.8,-951.4 291,-263.3 545,-443.4 545,-443.4 L 14628,4640.3 c 0,0 -350.2,-134.5 -733.5,54.9 -383.4,189.4 -591.2,249.5 -743.6,630.5 -152.4,381 -198.9,456.4 -129.3,653.4 69.5,197.1 307.1,318.7 307.1,318.7" /><path
         id="path104"
         style="fill:#b3613c;fill-opacity:1;fill-rule:nonzero;stroke:none"
         d="m 11423.5,6845.1 464.2,284.1 c 0,0 249.4,85.8 284,101.8 34.7,15.9 55.5,247.3 152.5,0 97,-247.3 228.6,-545.2 -48.5,-725.3 -277.1,-180.2 -405.6,-211.7 -490.3,-234 -84.7,-22.4 -327.2,-63.9 -334.1,95.4 -7,159.3 -27.8,478 -27.8,478" /><path
         id="path106"
         style="fill:#ececec;fill-opacity:1;fill-rule:nonzero;stroke:none"
         d="m 14530.9,5072.7 c -79.7,-137.1 -189.3,-312.2 -294.7,-432.9 -10.1,-11.6 -21.5,-24.3 -34.1,-37.6 244.5,-31.5 425.9,38.1 425.9,38.1 l 125.5,262.7 c 0,0 -89.3,63.3 -222.6,169.7" /><path
         id="path108"
         style="fill:#c37140;fill-opacity:1;fill-rule:nonzero;stroke:none"
         d="m 12220.2,5043.9 c 7,27.7 221.7,339.4 221.7,339.4 0,0 187.1,-568 547.3,-775.9 360.3,-207.8 665.1,-297.9 1073.8,-575 408.8,-277.1 526.6,-346.4 526.6,-346.4 0,0 498.8,-270.2 692.7,-180.1 194,90.1 166.3,464.2 166.3,464.2 0,0 -318.7,207.8 -921.4,762 -602.7,554.3 -956,1115.4 -1198.5,1351 -242.5,235.5 -720.5,990.6 -720.5,990.6 l -332.5,90.1 -588.9,-429.5 c 0,0 -221.7,-699.7 -124.7,-1066.9 97,-367.2 27.7,-443.4 242.5,-678.9 214.7,-235.6 415.6,55.4 415.6,55.4" /><path
         id="path110"
         style="fill:#a45330;fill-opacity:1;fill-rule:nonzero;stroke:none"
         d="m 12483.5,5807.9 c 0,0 -48.5,-133.6 -41.6,-424.6 l -149.5,-221.4 -79.1,96.8 97,124.6 c 0,0 27.7,281 173.2,424.6" /><path
         id="path112"
         style="fill:#a45330;fill-opacity:1;fill-rule:nonzero;stroke:none"
         d="m 12114.9,7046.5 c 0,0 59.2,-179.9 151.5,-239.1 92.4,-59.3 224,-66.2 367.2,-163.2 143.2,-97 291,-351 360.2,-411 69.3,-60.1 131.7,-62.4 191.7,-94.7 60.1,-32.3 143.2,-55.4 143.2,-55.4 l -120.9,134.7 c 0,0 -516.5,777 -627.3,811.8 -110.9,34.9 -430.2,42.8 -430.2,42.8 l -35.4,-25.9" /><path
         id="path114"
         style="fill:#252323;fill-opacity:1;fill-rule:nonzero;stroke:none"
         d="m 8818.68,3263.4 34.64,-110.8 c 0,0 318.68,-353.3 1129.23,-304.8 810.55,48.5 1344.05,581.9 1614.15,914.4 270.2,332.6 1011.5,776 1011.5,776 0,0 -214.8,727.4 -519.6,1087.6 -304.8,360.3 -401.8,1108.5 -401.8,1108.5 l -124.7,-48.5 -138.6,159.3 c 0,0 -879.8,-789.7 -962.9,-866 -83.2,-76.2 -414.4,-471.1 -515.52,-533.4 -101.09,-62.4 -73.37,-27.7 -191.14,-124.7 -117.78,-97 -242.48,-221.7 -242.48,-221.7 0,0 -1267.79,-623.5 -1288.57,-942.2 -20.79,-318.7 595.79,-893.7 595.79,-893.7" /><path
         id="path116"
         style="fill:#b3613c;fill-opacity:1;fill-rule:nonzero;stroke:none"
         d="m 6929.69,8390 c 23.09,0 420.29,23.1 692.78,-32.3 272.5,-55.4 434.15,-198.6 473.4,-219.4 39.26,-20.8 882.15,-30 916.79,-23.1 34.63,6.9 528.55,179.6 932.42,138.7 403.92,-40.9 804.12,-188.7 1222.92,-244.1 418.7,-55.5 646.6,-11.4 923.7,-95 277.1,-83.6 452.6,-490.1 452.6,-490.1 0,0 -1751.2,-360.6 -2741.87,-352.3 -990.68,8.3 -1385.56,-167.7 -1842.8,0 -457.24,167.6 -1274.72,479.4 -1177.74,583.3 97,103.9 147.8,734.3 147.8,734.3" /><path
         id="path118"
         style="fill:#a45330;fill-opacity:1;fill-rule:nonzero;stroke:none"
         d="m 10610.7,7507.8 c 55.4,-4.5 508,51.6 605,65.1 97,13.5 281.7,101.3 281.7,101.3 0,0 48.6,-204.3 281.8,-277.2 233.2,-72.8 -415.7,-133.9 -651.3,-133.9 -235.5,0 -517.2,244.7 -517.2,244.7" /><path
         id="path120"
         style="fill:#e9eef1;fill-opacity:1;fill-rule:nonzero;stroke:none"
         d="m 5756.58,7845 c 0,0 -251.49,-473.4 -208.88,-1069.2 42.61,-595.8 389,-976.8 714.61,-1378.6 325.61,-401.8 768.99,-879.8 1247.01,-1337.1 478.02,-457.2 755.13,-575 900.62,-658.1 145.48,-83.1 415.67,-166.3 408.74,-138.6 -6.93,27.7 187.05,755.2 339.46,1018.4 152.41,263.3 325.61,429.5 325.61,429.5 l 83.13,436.5 c 0,0 -304.82,121.6 -415.66,403.7 -110.85,282.2 -519.59,1148.1 -519.59,1148.1 l -284.04,769 c 0,0 -170.89,297.9 -489.57,468.8 -318.68,170.9 -1080.74,420.3 -1080.74,420.3 0,0 -974.52,-411.4 -1020.7,-512.7" /><path
         id="path122"
         style="fill:#c37140;fill-opacity:1;fill-rule:nonzero;stroke:none"
         d="m 5962.77,8803.9 c 0,0 -16.83,-340 -67.63,-506.2 -50.81,-166.3 -152.42,-434.2 -138.56,-452.7 13.85,-18.4 198.6,115.5 498.8,161.7 300.21,46.2 822.11,-18.5 822.11,-4.6 0,13.8 -4.62,213.5 0,321.5 4.61,108 129.31,412.8 129.31,412.8 0,0 -597.07,812.9 -725.75,789.8 -128.68,-23.1 -502.78,119.2 -525.87,-176 -23.1,-295.1 7.59,-546.3 7.59,-546.3" /><path
         id="path124"
         style="fill:#a45330;fill-opacity:1;fill-rule:nonzero;stroke:none"
         d="m 6518.64,9380.2 c 0,0 -47.81,-471.4 -34.68,-548.3 13.12,-77 379.53,-384.9 391.85,-388 12.32,-3.1 217.95,-31.9 217.95,-31.9 l 113.04,188.9 c 0,0 -200.63,341.8 -364.34,446.5 -163.71,104.7 -323.82,332.8 -323.82,332.8" /><path
         id="path126"
         style="fill:#c37140;fill-opacity:1;fill-rule:nonzero;stroke:none"
         d="m 6186.1,7798.9 c 0,0 -270.44,-129.4 -430.81,-471.1 -160.36,-341.8 -67.99,-868.3 172.18,-1279.4 240.16,-411 835.95,-623.5 1334.76,-411 498.8,212.4 549.61,771.3 549.61,771.3 0,0 541.91,-24.7 840.57,61.5 298.66,86.3 689.7,274.1 689.7,274.1 0,0 360.25,-105.2 877.49,-68 517.3,37.2 714.4,231.2 1139.3,314.3 424.9,83.1 769.7,86.2 769.7,86.2 v 408 c 0,0 -811.3,-37 -1277.8,32.3 -466.4,69.3 -628.1,83.2 -979.09,92.4 -351.01,9.2 -674.31,-110.9 -766.68,-106.2 -92.37,4.6 -535.75,64.6 -1293.19,27.7 0,0 -488.52,374.1 -969.38,383.3 -480.85,9.3 -656.36,-115.4 -656.36,-115.4" /><path
         id="path128"
         style="fill:#a45330;fill-opacity:1;fill-rule:nonzero;stroke:none"
         d="m 7516.25,6445.6 c -184.75,50.8 -489.57,4.6 -489.57,4.6 l -272.5,-189.3 c 0,0 429.53,92.3 452.62,92.3 23.1,0 327.92,-78.5 369.49,-96.9 20.59,-9.2 81.96,-92 138.67,-173.2 83.13,174.7 96.87,325.6 96.87,325.6 0,0 -110.84,-13.9 -295.58,36.9" /><path
         id="path130"
         style="fill:#df8558;fill-opacity:1;fill-rule:nonzero;stroke:none"
         d="m 6569.44,7812.7 c 591.15,48.9 1089.98,-272.5 1089.98,-272.5 l -170.88,-83.1 c 0,0 586.55,0 1053.02,0 466.48,0 554.23,-9.3 554.23,-9.3 l 849.29,159.6 c -23.62,0.7 -47.95,1.4 -73.37,2.1 -351.01,9.2 -674.31,-110.8 -766.68,-106.2 -92.37,4.6 -535.75,64.6 -1293.2,27.7 0,0 -488.51,374.1 -969.37,383.3 -480.85,9.3 -656.36,-115.5 -656.36,-115.5 0,0 -270.44,-129.3 -430.81,-471 -14.46,-30.9 -26.79,-63.2 -37.22,-96.8 102.56,163.4 388.74,543.4 851.37,581.7" /><path
         id="path132"
         style="fill:#100f0d;fill-opacity:1;fill-rule:nonzero;stroke:none"
         d="m 10225,5553.8 c 48.5,23.5 1337.1,1132 1337.1,1132 l -138.6,159.3 c 0,0 -879.8,-789.7 -962.9,-866 -83.2,-76.2 -414.4,-471.1 -515.52,-533.4 -101.08,-62.4 -73.37,-27.7 -191.14,-124.7 0,0 422.56,209.2 471.06,232.8" /><path
         id="path134"
         style="fill:#ececec;fill-opacity:1;fill-rule:nonzero;stroke:none"
         d="m 15448.6,3970.1 c 0,0 -113,73.7 -331.7,250.3 -72.3,-130.6 -228.4,-369 -481.4,-558 127.9,-63.9 488.7,-229.9 646.8,-156.5 194,90.1 166.3,464.2 166.3,464.2" /><path
         id="path136"
         style="fill:#a45330;fill-opacity:1;fill-rule:nonzero;stroke:none"
         d="m 9257.44,7163.8 c -21.75,8.1 240.16,-25.4 457.24,131.6 0,0 -78.52,-272.5 -457.24,-131.6" /><path
         id="path138"
         style="fill:#c37140;fill-opacity:1;fill-rule:nonzero;stroke:none"
         d="m 6656.94,8021.6 c 0,0 446.72,-45.7 770.01,-156.6 323.3,-110.8 363.33,-155.4 384.88,-121.6 21.56,33.9 -150.87,152.4 -329.45,220.2 -178.59,67.7 -461.86,178.6 -474.17,178.6 -12.32,0 -351.27,-120.6 -351.27,-120.6" /><path
         id="path140"
         style="fill:#c37140;fill-opacity:1;fill-rule:nonzero;stroke:none"
         d="m 12128.6,7076.8 c 0,0 18.5,27.7 120.1,-120.1 101.6,-147.8 283.3,-132.4 428,-246.3 144.7,-113.9 344.9,-398.1 391,-460.7 46.2,-62.7 123.2,-53.5 123.2,-53.5 0,0 54.8,-27.4 96.3,-70.3 41.5,-42.8 70,0 70,0 0,0 49.2,5.7 70.8,39.5 21.5,33.9 -9.2,227.9 -30.8,323.3 -21.6,95.5 -200.1,301.8 -212.5,323.3 -12.3,21.6 -52.3,92.4 -80,126.3 -27.7,33.8 -483.4,498.8 -628.1,548 -144.7,49.3 -348,-1.5 -348,-1.5 0,0 -153.9,-103.2 -150.8,-121.6 3,-18.5 -58.5,-15.4 24.6,-129.4 83.1,-113.9 126.2,-157 126.2,-157" /><path
         id="path142"
         style="fill:#a45330;fill-opacity:1;fill-rule:nonzero;stroke:none"
         d="m 12904.6,6772 c 9.2,-24.6 184.7,-292.5 232.4,-389.5 47.7,-97 53.9,-186.3 53.9,-186.3 l 44.9,-27.4 c 0,0 -12.6,115.2 -35.7,184.4 -23,69.3 -295.5,418.8 -295.5,418.8" /><path
         id="path144"
         style="fill:#a45330;fill-opacity:1;fill-rule:nonzero;stroke:none"
         d="m 13055.4,6807.4 c 13.9,-18.5 164.8,-258.6 243.3,-378.7 78.5,-120.1 58.5,-302.8 58.5,-302.8 l 37.2,11.4 c 0,0 13.6,126.7 -35.7,256 -49.2,129.3 -303.3,414.1 -303.3,414.1" /><path
         id="path146"
         style="fill:#34231f;fill-opacity:1;fill-rule:nonzero;stroke:none"
         d="m 7433.27,10444.6 c -23.89,84.1 -71.95,114.6 -71.95,114.6 0,0 -33.82,106.3 -91.31,143 -57.49,36.8 -139.08,40.2 -139.08,40.2 0,0 -94.44,85.8 -194.74,101.6 -100.31,15.8 -121.99,3.2 -121.99,3.2 0,0 -115.93,32.9 -203.69,27 -87.76,-5.9 -162.97,-33.5 -162.97,-33.5 0,0 -103.38,11.1 -226.76,-18.3 -123.37,-29.3 -155.01,-72.2 -155.01,-72.2 0,0 -137.04,-21.9 -218.5,-78.2 -81.46,-56.2 -101.84,-173.6 -101.84,-173.6 0,0 -153.59,-103.6 -167.34,-270.6 0,0 0,0 -0.01,0 -45.5,-85.2 -76.8,-207.8 -62.42,-382.9 39.38,-479.2 447.11,-1041 447.11,-1041 0,0 193.25,159.7 275.09,256.2 81.84,96.6 138.16,272.4 138.16,272.4 0,0 522.63,-15.7 532.56,9.1 9.93,24.8 363.01,805.4 363.01,805.4 l 64.28,85.5 c 1.32,8.9 4.63,18 10.17,27.3 0,0 111.13,100.7 87.23,184.8" /><path
         id="path148"
         style="fill:#c37140;fill-opacity:1;fill-rule:nonzero;stroke:none"
         d="m 7346.04,10259.8 c 0,0 125.98,-288 143.93,-355.3 17.95,-67.4 -12.17,-276 -6.73,-308.6 5.45,-32.6 207.24,-364.3 203.07,-385.5 -4.18,-21.1 -139.08,-47.6 -143.47,-59.4 -4.4,-11.8 -13.01,-138.2 -9.26,-150.4 3.75,-12.2 0.92,-38.5 0.92,-38.5 0,0 11.79,-52.3 1.86,-78.8 -9.93,-26.6 -12.36,-72.2 -15.45,-89.8 -3.08,-17.6 4.93,-208.4 -17.76,-237 -22.69,-28.6 -411.36,-51.8 -474.81,-37 -63.44,14.9 -443.35,326.1 -477.65,393 -34.3,67 -43.83,272.4 -43.83,272.4 0,0 -168.87,26.4 -237.47,160.3 -68.59,133.9 -55.6,374.9 81.31,415.5 136.91,40.6 206.61,-140 224.12,-188.6 17.5,-48.7 44.68,-111.2 51.8,-115.7 7.12,-4.5 87.77,142.3 113.98,220.1 26.19,77.7 -60.24,274.3 -41.21,358.8 19.03,84.6 126.65,178.3 177.58,198.2 50.94,19.9 469.07,26.3 469.07,26.3" /></g></g></svg>