<?xml version="1.0" encoding="UTF-8" standalone="no"?>
<svg
   xmlns:dc="http://purl.org/dc/elements/1.1/"
   xmlns:cc="http://creativecommons.org/ns#"
   xmlns:rdf="http://www.w3.org/1999/02/22-rdf-syntax-ns#"
   xmlns:svg="http://www.w3.org/2000/svg"
   xmlns="http://www.w3.org/2000/svg"
   viewBox="0 0 2666.6667 2666.6667"
   height="2666.6667"
   width="2666.6667"
   xml:space="preserve"
   id="svg2"
   version="1.1"><metadata
     id="metadata8"><rdf:RDF><cc:Work
         rdf:about=""><dc:format>image/svg+xml</dc:format><dc:type
           rdf:resource="http://purl.org/dc/dcmitype/StillImage" /></cc:Work></rdf:RDF></metadata><defs
     id="defs6" /><g
     transform="matrix(1.3333333,0,0,-1.3333333,0,2666.6667)"
     id="g10"><g
       transform="scale(0.1)"
       id="g12"><g
         transform="scale(1.22699)"
         id="g14"><path
           id="path16"
           style="fill:#ffffff;fill-opacity:1;fill-rule:nonzero;stroke:none"
           d="M 16300,0 H 0 V 16300 H 16300 V 0" /></g><path
         id="path18"
         style="fill:#361c19;fill-opacity:1;fill-rule:nonzero;stroke:none"
         d="m 13147.8,11858.1 491.2,231 c 0,0 183.1,-115 227.1,-234.4 44,-119.4 54,-210.5 149,-269.7 95,-59.2 307.8,-327.8 279.5,-449.2 -28.3,-121.4 -646.6,-69.2 -646.6,-69.2 0,0 -203.8,171.2 -283.2,314.1 -79.5,142.9 -217,477.4 -217,477.4" /><path
         id="path20"
         style="fill:#f0eded;fill-opacity:1;fill-rule:nonzero;stroke:none"
         d="m 13666.9,12244.6 c 0,0 -16.7,-175 -52.8,-270.2 -36.1,-95.3 -175.1,-189.6 -175.1,-189.6 l -67.3,138.7 295.2,321.1" /><path
         id="path22"
         style="fill:#767779;fill-opacity:1;fill-rule:nonzero;stroke:none"
         d="m 13263,7441.7 c -127,14 -246.4,-123.5 -266.7,-307.3 -20.3,-183.7 66.2,-344 193.2,-358 l 274.6,-30.3 73.5,665.3 -274.6,30.3" /><path
         id="path24"
         style="fill:#adadab;fill-opacity:1;fill-rule:nonzero;stroke:none"
         d="m 13730.8,7053.3 c -20.3,-183.7 -139.7,-321.3 -266.7,-307.2 -127,14 -213.5,174.3 -193.2,358 20.3,183.7 139.7,321.3 266.7,307.3 127,-14.1 213.4,-174.4 193.2,-358.1" /><path
         id="path26"
         style="fill:#9f5134;fill-opacity:1;fill-rule:nonzero;stroke:none"
         d="m 16158.4,8063 h -758.8 v 1289.3 h 758.8 V 8063" /><path
         id="path28"
         style="fill:#2e2d2d;fill-opacity:1;fill-rule:nonzero;stroke:none"
         d="m 15662.8,5124.4 -197.4,-52.8 c 0,0 -104.9,-21.3 -160.4,-150.8 -55.5,-129.6 -80.2,-154.2 -302.3,-407.2 -222.1,-252.9 -536.7,-401 -536.7,-536.7 0,-135.7 215.9,-351.6 573.7,-283.8 357.9,67.9 467.7,290 684.2,327 216.5,37 321.4,86.4 352.3,209.7 30.8,123.4 -24.7,555.3 -61.7,647.8 -37,92.5 -159.6,246.8 -159.6,246.8 h -192.1" /><path
         id="path30"
         style="fill:#2e2d2d;fill-opacity:1;fill-rule:nonzero;stroke:none"
         d="m 14077.4,5457.5 c 0,0 -67.9,-2.4 -148.1,-133.8 -80.2,-131.5 -117.2,-217.8 -357.8,-489.3 -240.6,-271.4 -364,-247.3 -394.8,-432.1 -30.9,-184.8 135.7,-271.2 363.9,-258.8 228.3,12.3 561.4,296.1 820.5,320.8 259.1,24.6 290,88.4 308.5,232.3 18.5,144 -18.5,557.3 -166.6,736.2 -148,178.9 -425.6,24.7 -425.6,24.7" /><path
         id="path32"
         style="fill:#b8623c;fill-opacity:1;fill-rule:nonzero;stroke:none"
         d="m 14885.5,9276.2 c 0,0 -191.2,-481.2 -308.4,-1147.5 0,0 -86.4,-215.9 -98.8,-462.7 -12.3,-246.7 -12.3,-246.7 -12.3,-246.7 0,0 -129.5,-333.1 -172.7,-919.2 -43.2,-586.1 -215.9,-1042.6 -215.9,-1042.6 0,0 111,6.2 148,-160.4 37,-166.6 35.7,-225.5 35.7,-225.5 0,0 174.1,7.1 220.3,79.3 46.3,72.2 71,366.8 83.3,420 12.4,53.2 364,799.6 431.9,1175.9 67.8,376.4 18.5,666.3 37,721.8 11.8,35.4 381.6,628.7 612.1,1134.8 63.7,139.9 69.6,373.3 111.4,465 44.8,98.2 72.3,158.4 72.3,158.4 0,0 98.7,357.5 -92.5,351.5 -191.3,-6 -851.4,-302.1 -851.4,-302.1" /><path
         id="path34"
         style="fill:#9f5134;fill-opacity:1;fill-rule:nonzero;stroke:none"
         d="m 15736.9,9578.3 c -85.7,-2.7 -265.6,-63.6 -438.1,-130.1 V 7932.5 c 114,202.9 244.3,445.5 346.9,670.9 63.7,139.9 69.6,373.3 111.4,465 44.8,98.2 72.3,158.4 72.3,158.4 0,0 98.7,357.5 -92.5,351.5" /><g
         transform="scale(1.02979)"
         id="g36"><path
           id="path38"
           style="fill:#b8623c;fill-opacity:1;fill-rule:nonzero;stroke:none"
           d="m 16300,8684.38 c 0,0 -569.1,-1258.12 -575.1,-1425.82 -6,-167.71 167.7,-455.34 83.8,-988.46 -83.8,-533.21 -341.4,-1371.83 -353.3,-1437.76 -12.1,-65.94 -52.5,-245.59 -59.2,-263.55 -6.8,-17.96 -102.6,0 -102.6,0 0,0 -89.8,179.65 -131.8,233.64 -41.9,53.89 -143.8,122.45 -143.8,122.45 0,0 101.9,194.99 113.8,782.1 12,587.11 -47.9,1114.3 -71.9,1611.49 -23.9,497.19 224.7,1324.83 311.6,1641.4 0,0 443.3,161.78 928.5,-275.49" /></g><g
         transform="scale(1.04834)"
         id="g40"><path
           id="path42"
           style="fill:#2e2d2d;fill-opacity:1;fill-rule:nonzero;stroke:none"
           d="m 15299.7,10049 c 35.2,29.4 288.2,211.8 288.2,211.8 l 306,-105.9 c 0,0 382.5,-200.1 394.4,-588.49 11.7,-388.36 -276.7,-1035.66 -276.7,-1035.66 0,0 -423.7,358.94 -912.1,270.61 0,0 -517.8,123.63 -900.4,47.12 l 194.3,629.67 c 0,0 311.9,605.95 388.4,626.65 76.5,20.7 517.9,-55.8 517.9,-55.8" /></g><path
         id="path44"
         style="fill:#100f0d;fill-opacity:1;fill-rule:nonzero;stroke:none"
         d="m 16158.4,9695.7 c -20.5,-20.6 -180.9,-201.5 -218,-250.9 -37,-49.3 -111,-218 -111,-218 l -234.7,43.2 173,117.2 -98.7,135.8 c 0,0 131.6,-37.1 176.8,-12.4 45.3,24.7 312.6,185.1 312.6,185.1" /><g
         transform="scale(1.00254)"
         id="g46"><path
           id="path48"
           style="fill:#c37140;fill-opacity:1;fill-rule:nonzero;stroke:none"
           d="m 15612.8,11004.7 c 0,0 558,-225.9 588.7,-244.4 30.9,-18.5 98.5,-30.8 98.5,-30.8 0,0 -102.5,-406.1 -343.5,-609.2 -241,-202.99 -654,-295.35 -654,-295.35 l -147,418.45 c 0,0 196.9,430.7 215.4,461.5 18.4,30.8 241.9,299.8 241.9,299.8" /></g><path
         id="path50"
         style="fill:#c37140;fill-opacity:1;fill-rule:nonzero;stroke:none"
         d="m 13316.5,11081.7 -148.1,119.3 c 0,0 -271.4,-135.8 -320.8,-489.5 -49.3,-353.6 179.1,-678.6 179.1,-678.6 l 199.3,-781.4 c 0,0 -20.5,-366 90.5,-802 111,-435.9 242.7,-945.9 242.7,-945.9 l 226.2,37 c 0,0 49.3,1073.4 0,1295.5 -49.4,222.1 -122.9,415.4 -114.9,559.4 7.9,143.9 -82.6,876 -82.6,900.7 0,24.6 -271.4,785.5 -271.4,785.5" /><path
         id="path52"
         style="fill:#f0eded;fill-opacity:1;fill-rule:nonzero;stroke:none"
         d="m 14073.2,11542.3 c 20.6,16.5 119.3,65.8 119.3,65.8 h 140.4 c 0,0 809.7,-390.7 822,-386.6 12.3,4.1 497.6,-188.8 497.6,-188.8 0,0 88.5,-300.6 0,-578.2 -88.4,-277.6 -393.7,-546 -393.7,-546 l -376.3,-144.9 c 0,0 -114.2,-135.8 -299.3,-160.4 -185,-24.7 -326.9,-18.6 -604.5,-24.7 -277.7,-6.2 -444.2,174.8 -604.6,470.9 -160.4,296.1 -201.6,653.9 -205.7,847.2 -4.1,193.3 0,304.4 0,304.4 l 94.6,141.9 810.2,199.4" /><path
         id="path54"
         style="fill:#c37140;fill-opacity:1;fill-rule:nonzero;stroke:none"
         d="m 13189,11342.9 c 3.1,3 -0.5,-72.2 -0.5,-72.2 l 49.9,-82.1 c 0,0 -6.2,-490.4 126.4,-872.9 132.7,-382.5 511,-574.8 786.6,-500.7 275.5,74 176.8,394.8 94.6,851.3 -82.3,456.5 -115.2,802 -53.5,941.8 0,0 -234.4,-41.1 -460.6,127.5 -226.2,168.6 -250.1,320.8 -250.1,320.8 l -473.8,-174.3 181,-539.2" /><path
         id="path56"
         style="fill:#9f5134;fill-opacity:1;fill-rule:nonzero;stroke:none"
         d="m 13238.5,11717.1 c 14.5,26 151.4,270.4 151.4,270.4 0,0 107.9,-262.1 58.2,-435.5 -49.6,-173.4 -259.6,-281.3 -259.6,-281.3 l -246.3,294.3 296.3,152.1" /><path
         id="path58"
         style="fill:#361c19;fill-opacity:1;fill-rule:nonzero;stroke:none"
         d="m 12542.4,12307.5 c -9.7,-11.8 -76.7,-142.1 -76.7,-142.1 0,0 -96.3,216.6 -85.6,443.4 10.7,226.9 158.1,424.1 506.6,484.3 348.4,60.2 587,-152.9 702.4,-314.1 115.3,-161.2 127.7,-502.2 128.2,-555.7 0.5,-53.6 -152.6,-233.5 -152.6,-233.5 l -682.5,39.8 -339.8,277.9" /><path
         id="path60"
         style="fill:#361c19;fill-opacity:1;fill-rule:nonzero;stroke:none"
         d="m 13156.7,12417.1 c 104.6,114.2 186.7,488 186.7,488 74.3,-341.8 21.4,-692.7 21.4,-692.7 l 42.1,-81.3 c 0,0 109.4,184.8 128.4,429.4 8.6,111.1 0.3,216.6 -11.4,298.9 24.9,-27.2 46.6,-54.5 65.2,-80.4 115.3,-161.2 112,-447.1 124.9,-499.1 36,-144.8 -234.8,-388 -234.8,-388 l -143.9,307 -602.6,-37.7 c 217.9,59.4 371.9,199.1 424,255.9" /><path
         id="path62"
         style="fill:#c37140;fill-opacity:1;fill-rule:nonzero;stroke:none"
         d="m 13425.1,12215.6 c 0,0 52.8,59.3 115.3,62 62.5,2.7 69,-109.5 58.5,-238.4 -10.5,-128.9 -119.7,-147.3 -119.7,-147.3 0,0 -20.3,-106 -38.4,-169.4 -18.2,-63.4 -223.9,-310.7 -282.8,-341 -58.9,-30.2 -142.3,-50.7 -199.6,-48.9 -57.3,1.7 -281.2,167.9 -370.5,326 -89.3,158.1 -97.1,374.2 -110.6,450.8 -13.5,76.7 -56.1,215.8 -42.1,339.2 13.9,123.5 108.8,225.7 299.5,272.5 190.7,46.7 359.3,-9.8 471.1,-143.5 111.7,-133.6 152.4,-355.3 219.3,-362" /><path
         id="path64"
         style="fill:#c37140;fill-opacity:1;fill-rule:nonzero;stroke:none"
         d="m 14332.9,11608.1 c 0,0 -119.8,-176.8 -49.9,-645.7 69.9,-468.8 518.2,-847.2 518.2,-847.2 l 329,-1122.8 c 0,0 -41.1,-312.6 20.6,-785.5 61.7,-473 65.8,-871.9 65.8,-871.9 h 304.3 c 0,0 119.3,904.8 127.5,1357.2 8.3,452.4 -53.4,660.1 -53.4,660.1 0,0 -65.8,908.7 -259.1,1240.9 0,0 44.5,340.4 -117.6,607.8 -162.1,267.3 -584.7,444.1 -885.4,407.1" /><path
         id="path66"
         style="fill:#9f5134;fill-opacity:1;fill-rule:nonzero;stroke:none"
         d="m 15231,11032.7 104.9,-439.5 c 0,0 38.6,296.4 -87.9,553.3 -9.5,-64.2 -17,-113.8 -17,-113.8" /><path
         id="path68"
         style="fill:#f0f0ef;fill-opacity:1;fill-rule:nonzero;stroke:none"
         d="m 14154.5,5704 c -42.3,-154.4 -77.1,-246.5 -77.1,-246.5 0,0 111,6.2 148,-160.4 37,-166.6 35.7,-225.5 35.7,-225.5 0,0 174.1,7.1 220.3,79.3 46.3,72.2 71,366.8 83.3,420 1,4.4 4.5,13.7 9.8,27 -148.1,32.6 -304.9,74.1 -420,106.1" /><path
         id="path70"
         style="fill:#f0f0ef;fill-opacity:1;fill-rule:nonzero;stroke:none"
         d="m 15534.5,5323.7 c -32.5,-182 -69.1,-252.1 -69.1,-252.1 0,0 104.9,-70.6 148.1,-126.1 43.2,-55.6 135.7,-240.6 135.7,-240.6 0,0 98.7,-18.5 105.7,0 6.9,18.5 48.5,203.5 60.9,271.4 3.6,20.2 29.6,110.6 66.6,242.1 -182,26.4 -347.5,73.2 -447.9,105.3" /><path
         id="path72"
         style="fill:#767779;fill-opacity:1;fill-rule:nonzero;stroke:none"
         d="m 14968.9,7124.4 c -126.8,15.6 -247.9,-120.6 -270.4,-304 -22.5,-183.5 62.1,-344.8 188.9,-360.4 l 274.2,-33.6 81.5,664.4 -274.2,33.6" /><path
         id="path74"
         style="fill:#adadab;fill-opacity:1;fill-rule:nonzero;stroke:none"
         d="m 15432,6730.4 c -22.5,-183.4 -143.6,-319.5 -270.4,-304 -126.8,15.6 -211.4,176.9 -188.9,360.3 22.5,183.5 143.6,319.6 270.4,304.1 126.8,-15.6 211.4,-176.9 188.9,-360.4" /><path
         id="path76"
         style="fill:#4c4d4e;fill-opacity:1;fill-rule:nonzero;stroke:none"
         d="m 15793.7,6780.5 -584.7,102.1 c -42.1,7.3 -82.2,-20.9 -89.6,-63 l -12.5,-71.7 c -7.3,-42.1 20.8,-82.2 62.9,-89.5 l 584.7,-102.1 c 42.1,-7.4 82.2,20.8 89.6,62.9 l 12.5,71.7 c 7.3,42.1 -20.8,82.2 -62.9,89.6" /><path
         id="path78"
         style="fill:#4c4d4e;fill-opacity:1;fill-rule:nonzero;stroke:none"
         d="m 14101,7118.8 -587.9,81 c -42.4,5.8 -81.4,-23.8 -87.3,-66.1 l -9.9,-72.1 c -5.8,-42.4 23.8,-81.4 66.1,-87.3 l 588,-80.9 c 42.3,-5.9 81.4,23.7 87.2,66.1 l 9.9,72.1 c 5.9,42.4 -23.7,81.4 -66.1,87.2" /><path
         id="path80"
         style="fill:#c37140;fill-opacity:1;fill-rule:nonzero;stroke:none"
         d="m 13559.2,7503.6 c 0,0 -39.1,-499.7 -21.6,-534.7 17.4,-34.9 85.3,-162.4 105.9,-174.8 20.5,-12.3 47.3,0 47.3,0 0,0 34.9,-52.9 59.6,-48 24.7,4.9 35,13.1 41.1,11 6.2,-2 55.3,-10.4 89.4,-11.4 34,-0.9 71,9.4 77.2,21.7 6.2,12.3 24.7,220 24.7,220 0,0 39,189.2 37,197.5 -2.1,8.2 -32.9,69.9 -115.2,150.1 -82.2,80.2 -119.2,205.6 -119.2,205.6 0,0 -82.3,82.3 -88.5,72 -6.1,-10.3 -137.7,-109 -137.7,-109" /><path
         id="path82"
         style="fill:#9f5134;fill-opacity:1;fill-rule:nonzero;stroke:none"
         d="m 13596.2,6962.8 c 0,-11.2 28.6,-107.8 46.8,-168.3 0.2,-0.1 0.3,-0.3 0.5,-0.4 20.5,-12.3 47.3,0 47.3,0 0,0 -94.6,185.1 -94.6,168.7" /><path
         id="path84"
         style="fill:#9f5134;fill-opacity:1;fill-rule:nonzero;stroke:none"
         d="m 13776.5,6944.3 c 0,0 54.2,-128.1 84.6,-197.4 6.8,-0.6 13.6,-1 19.8,-1.2 29.6,-0.8 61.4,6.9 73.2,17 l -177.6,181.6" /><path
         id="path86"
         style="fill:#9f5134;fill-opacity:1;fill-rule:nonzero;stroke:none"
         d="m 13676.4,6952 c -3.1,-9.5 47.9,-135.1 78.5,-204.9 21.3,4.9 30.9,12 36.6,10 0,0 -111,207.7 -115.1,194.9" /><path
         id="path88"
         style="fill:#c37140;fill-opacity:1;fill-rule:nonzero;stroke:none"
         d="m 15216.6,7335 c 0,0 -14.4,-575.8 0,-652.9 14.4,-77.1 102.8,-202.6 125.4,-210.8 22.6,-8.2 57.6,0 57.6,0 0,0 37,-20.6 65.8,-16.5 28.8,4.2 28.8,4.2 28.8,4.2 0,0 28.8,-5.3 69.9,-4.7 41.2,0.5 51.4,10.8 51.4,10.8 0,0 43.2,285.9 45.3,302.3 2,16.5 -10.3,211.8 -49.4,316.7 -39.1,104.9 -90.5,250.9 -90.5,250.9 0,0 -205.6,82.2 -304.3,0" /><path
         id="path90"
         style="fill:#9f5134;fill-opacity:1;fill-rule:nonzero;stroke:none"
         d="m 15288.6,6724.2 c 0,0 18.5,-118.1 74,-256.5 l 37,3.6 c 0,0 -69.9,141.9 -111,252.9" /><path
         id="path92"
         style="fill:#9f5134;fill-opacity:1;fill-rule:nonzero;stroke:none"
         d="m 15370.8,6757.1 c 0,0 22.6,-159.5 74.1,-302.8 0,0 20.5,-1.5 49.3,4.7 0,0 -96.6,160.3 -123.4,298.1" /><path
         id="path94"
         style="fill:#9f5134;fill-opacity:1;fill-rule:nonzero;stroke:none"
         d="m 15477.8,6757.1 c 0,0 75.5,-196.8 142.6,-259.8 l 12.5,82.8 c 0,0 -112,66 -155.1,177" /><path
         id="path96"
         style="fill:#767779;fill-opacity:1;fill-rule:nonzero;stroke:none"
         d="m 14150.5,7299.3 c -127,14 -246.4,-123.5 -266.7,-307.2 -20.3,-183.8 66.2,-344.1 193.2,-358.1 l 274.6,-30.3 73.5,665.3 -274.6,30.3" /><path
         id="path98"
         style="fill:#adadab;fill-opacity:1;fill-rule:nonzero;stroke:none"
         d="m 14618.3,6910.9 c -20.3,-183.7 -139.7,-321.3 -266.7,-307.2 -127,14 -213.5,174.3 -193.2,358 20.3,183.7 139.7,321.3 266.7,307.3 127,-14 213.5,-174.4 193.2,-358.1" /><path
         id="path100"
         style="fill:#767779;fill-opacity:1;fill-rule:nonzero;stroke:none"
         d="m 15854.6,6971.4 c -126.8,15.6 -247.8,-120.6 -270.3,-304 -22.5,-183.5 62.1,-344.8 188.9,-360.4 l 274.2,-33.6 81.4,664.4 -274.2,33.6" /><g
         transform="scale(1.00247)"
         id="g102"><path
           id="path104"
           style="fill:#adadab;fill-opacity:1;fill-rule:nonzero;stroke:none"
           d="m 16277.6,6561.32 c -22.5,-183.05 -143.2,-318.81 -269.7,-303.35 -126.5,15.56 -210.9,176.46 -188.4,359.51 22.4,182.95 143.1,318.71 269.6,303.25 126.5,-15.46 210.9,-176.46 188.5,-359.41" /></g><path
         id="path106"
         style="fill:#361c19;fill-opacity:1;fill-rule:nonzero;stroke:none"
         d="m 5341.61,15115.6 535.53,88.7 c 0,0 144.97,-160.4 154.83,-287.3 9.87,-126.8 -5.19,-217.2 70.11,-300 75.29,-82.8 207.06,-399.1 146.82,-508.2 -60.23,-109.2 -641,109.1 -641,109.1 0,0 -149.58,220.1 -187.23,379.2 -37.65,159.2 -79.06,518.5 -79.06,518.5" /><path
         id="path108"
         style="fill:#767779;fill-opacity:1;fill-rule:nonzero;stroke:none"
         d="m 3147.71,10254 c -123.52,0 -223.64,-147.1 -223.64,-328.5 0,-181.4 100.12,-328.5 223.64,-328.5 h 289.94 v 657 h -289.94" /><path
         id="path110"
         style="fill:#adadab;fill-opacity:1;fill-rule:nonzero;stroke:none"
         d="m 3661.28,9925.5 c 0,-181.4 -100.12,-328.5 -223.63,-328.5 -123.5,0 -223.63,147.1 -223.63,328.5 0,181.4 100.13,328.5 223.63,328.5 123.51,0 223.63,-147.1 223.63,-328.5" /><path
         id="path112"
         style="fill:#2e2d2d;fill-opacity:1;fill-rule:nonzero;stroke:none"
         d="M 4564.55,5574.7 4373.31,5476 c 0,0 -98.71,-55.5 -191.25,-289.9 -92.53,-234.5 -382.48,-427.8 -493.53,-528.5 -111.04,-100.8 -209.75,-236.5 -191.24,-359.9 18.51,-123.4 281.53,-215.9 532.5,-104.9 250.98,111.1 380.53,160.4 590.28,228.3 209.75,67.8 320.79,24.7 345.47,191.2 24.68,166.6 -12.34,518.2 -80.2,660.1 -67.86,141.9 -320.79,302.3 -320.79,302.3" /><path
         id="path114"
         style="fill:#2e2d2d;fill-opacity:1;fill-rule:nonzero;stroke:none"
         d="m 5761.36,5038 c 0,0 24.68,74 -141.89,-141.9 -166.56,-215.9 -129.55,-252.9 -456.52,-524.4 -326.96,-271.4 -345.47,-388.6 -345.47,-487.3 0,-98.7 240.6,-259.1 536.72,-203.6 296.12,55.5 400.99,240.6 647.76,289.9 246.76,49.4 394.96,154.3 401.06,271.5 6.1,117.2 -61.76,542.5 -98.77,616.7 -37.02,74.2 -302.29,395 -326.97,413.5 -24.68,18.5 -215.92,-234.4 -215.92,-234.4" /><path
         id="path116"
         style="fill:#b8623c;fill-opacity:1;fill-rule:nonzero;stroke:none"
         d="m 4182.06,9671 c 0,0 20.76,-382.5 72.07,-857.5 51.31,-475 119.18,-660.1 119.18,-660.1 0,0 -24.68,-234.4 0,-536.7 0,0 -55.53,-419.5 -37.02,-1011.7 18.51,-592.3 37.02,-1129 37.02,-1129 0,0 129.55,-86.4 166.56,-172.7 37.01,-86.4 37.01,-209.8 37.01,-209.8 0,0 86.38,-67.8 154.23,0 67.86,67.9 74.04,37 67.86,67.9 -6.16,30.8 -55.52,512 74.03,1011.7 129.56,499.7 135.73,783.5 117.22,1166 -18.51,382.5 160.4,1523.8 197.41,1801.4 37.01,277.6 175.62,950 61.69,916.1 -113.92,-33.9 -532.38,64.9 -580.81,40.2 C 4620.07,10072 4182.06,9671 4182.06,9671" /><path
         id="path118"
         style="fill:#c37140;fill-opacity:1;fill-rule:nonzero;stroke:none"
         d="m 5133.04,9563.1 c 0,0 153.39,-1372.7 282.89,-1779.8 129.51,-407.2 209.71,-530.6 209.71,-530.6 0,0 43.18,-623.1 135.72,-1277 92.54,-653.9 0,-937.7 0,-937.7 0,0 117.21,-24.7 178.9,-154.2 61.7,-129.6 61.7,-209.8 92.54,-209.8 30.85,0 129.55,-37 148.06,0 18.51,37 49.35,765 129.56,1301.7 80.2,536.7 160.39,974.7 0,1326.4 -160.41,351.6 -185.08,616.9 -154.23,1005.5 30.84,388.7 129.55,1289.4 129.55,1289.4 l -517.71,425.7 c 0,0 -463.19,141.9 -518.71,33.9 -55.52,-108 -116.28,-493.5 -116.28,-493.5" /><path
         id="path120"
         style="fill:#2e2d2d;fill-opacity:1;fill-rule:nonzero;stroke:none"
         d="m 4431.91,11139.3 -27.76,-370.2 c 0,0 -108.07,-185 -162,-579.9 -53.92,-394.8 -60.09,-518.2 -60.09,-518.2 0,0 647.76,30.9 913.03,-74 0,0 265.28,67.8 629.26,55.5 363.98,-12.3 561.39,-55.5 561.39,-55.5 0,0 178.9,468.8 104.88,814.3 -74.04,345.5 -234.43,599.7 -265.28,694.7 -30.84,95 -129.55,557.7 -129.55,557.7 l -625.14,-86.4 -938.74,-438" /><path
         id="path122"
         style="fill:#b8623c;fill-opacity:1;fill-rule:nonzero;stroke:none"
         d="m 4519.31,12323.8 -87.4,-1184.5 c 0,0 246.22,-75 671.41,0 425.19,74.9 779.25,148 798.84,175.8 19.6,27.8 130.64,1066.2 130.64,1066.2 l -525.05,377.4 c 0,0 -548.37,55.5 -631.66,0 -83.28,-55.5 -356.78,-434.9 -356.78,-434.9" /><path
         id="path124"
         style="fill:#c37140;fill-opacity:1;fill-rule:nonzero;stroke:none"
         d="m 4869.81,14003 c -12.3,-9.5 -340.22,-120.5 -437.9,-231.6 -97.68,-111 -110.02,-341.3 -126.47,-448.2 -16.45,-107 -156.28,-518.3 -250.87,-950.1 0,0 -209.76,-156.3 -296.12,-756.7 -86.37,-600.5 -143.95,-1098.1 -143.95,-1098.1 h 238.54 c 0,0 16.45,209.7 217.98,633.3 201.52,423.6 312.57,855.5 320.79,987.1 8.23,131.6 180.96,423.6 180.96,423.6 0,0 152.18,592.2 164.52,621 12.33,28.8 132.52,819.7 132.52,819.7" /><path
         id="path126"
         style="fill:#f0eded;fill-opacity:1;fill-rule:nonzero;stroke:none"
         d="m 5190.72,14091.2 c 0,33.9 -59.15,103.4 -59.15,103.4 0,0 -255.48,-177.4 -388.12,-294.6 -132.63,-117.2 -462.68,-338.3 -503.81,-708.5 -41.13,-370.1 259.09,-600.4 259.09,-600.4 l 20.58,-267.3 c 0,0 272.41,74 724.33,53.4 451.92,-20.5 789.16,4.1 789.16,4.1 l 279.67,1390.1 -205.64,522.4 -118.28,86.3 -797.83,-288.9" /><path
         id="path128"
         style="fill:#f0eded;fill-opacity:1;fill-rule:nonzero;stroke:none"
         d="m 5951.49,15369.9 c 0,0 -44.96,-169.9 -96.09,-258 -51.13,-88.1 -203.57,-158.5 -203.57,-158.5 l -43.93,147.7 343.59,268.8" /><path
         id="path130"
         style="fill:#c37140;fill-opacity:1;fill-rule:nonzero;stroke:none"
         d="m 5175.29,14859.3 c 0,0 39.08,-503.9 -18.5,-627.2 -57.58,-123.4 -662.16,-579.9 -658.04,-732.1 4.11,-152.2 292,-127.5 575.78,41.1 283.78,168.7 555.22,497.7 670.38,625.2 115.16,127.5 243.64,213.8 243.64,213.8 0,0 -165.5,152.2 -214.85,374.3 -49.35,222.1 -41.13,493.5 -41.13,493.5 0,0 -551.11,-78.1 -559.33,-94.6 -8.23,-16.4 2.05,-294 2.05,-294" /><path
         id="path132"
         style="fill:#9f5134;fill-opacity:1;fill-rule:nonzero;stroke:none"
         d="m 5436.46,14869.6 c 24.67,16.4 258.12,171.3 258.12,171.3 0,0 -23.7,-282.4 -147.08,-414 -123.38,-131.6 -359.45,-131.6 -359.45,-131.6 l -84.73,374.3 h 333.14" /><g
         transform="scale(1.00204)"
         id="g134"><path
           id="path136"
           style="fill:#361c19;fill-opacity:1;fill-rule:nonzero;stroke:none"
           d="m 4843.67,15588.1 c -11.36,-10 -97.46,-126 -97.46,-126 0,0 -58.94,226.2 -12.15,445.2 46.79,219.1 221.91,387.4 570.63,390 348.72,2.7 546.72,-243 633.09,-418.3 86.38,-175.4 43.72,-509.2 35.62,-561.4 -8.1,-52.2 -185.94,-202.7 -185.94,-202.7 l -657.74,148.3 -286.05,324.9" /></g><path
         id="path138"
         style="fill:#361c19;fill-opacity:1;fill-rule:nonzero;stroke:none"
         d="m 5470.13,15628 c 120.4,94.5 260.47,445.8 260.47,445.8 17.56,-345.2 -90.44,-678.9 -90.44,-678.9 l 27.93,-86 c 0,0 136.42,162.6 194.23,398.1 26.24,106.9 35.12,211.1 37.02,293.2 19.83,-30.5 36.66,-60.6 50.56,-88.8 86.55,-175.8 37.37,-454 41.61,-506.7 11.84,-147.1 -291.33,-340.6 -291.33,-340.6 l -90.98,322.4 -593.64,60.1 c 222.04,22.9 394.61,134.4 454.57,181.4" /><path
         id="path140"
         style="fill:#c37140;fill-opacity:1;fill-rule:nonzero;stroke:none"
         d="m 5699.45,15388.3 c 0,0 61.05,49.4 122.43,41.9 61.38,-7.4 49.64,-117.8 18.68,-241.8 -30.96,-124 -140.38,-124.3 -140.38,-124.3 0,0 -36.86,-100.2 -64.74,-159.1 -27.88,-58.9 -268.2,-266.9 -330.5,-287 -62.3,-20 -146.93,-26.5 -202.5,-15.6 -55.57,10.9 -247.22,208.9 -308.88,377.5 -61.67,168.5 -34.46,380.4 -35.34,457.3 -0.88,77 -19.99,219.4 13.45,337.5 33.44,118.2 142.45,202.6 335.88,217.5 193.43,15 348.76,-67.3 436.23,-215.6 87.47,-148.3 91.49,-370.9 155.67,-388.3" /><path
         id="path142"
         style="fill:#c37140;fill-opacity:1;fill-rule:nonzero;stroke:none"
         d="m 5814.53,14116.9 c 0,0 -106.63,-94.6 -94.3,-423.6 12.34,-329 230.32,-423.6 230.32,-423.6 l -78.14,-945.9 c 0,0 -205.64,-353.7 -300.24,-880.2 -94.59,-526.4 -201.52,-904.8 -201.52,-904.8 l 308.46,-20.5 c 0,0 119.26,353.6 378.37,826.6 259.1,473 246.77,662.2 292.01,839 45.24,176.9 242.65,534.7 292,904.8 49.35,370.2 86.37,695.1 0,892.5 -86.37,197.4 -436.37,279.7 -436.37,279.7 l -155.43,74.6 c 0,0 -160.88,-55.6 -235.16,-218.6" /><path
         id="path144"
         style="fill:#9f5134;fill-opacity:1;fill-rule:nonzero;stroke:none"
         d="m 5888.86,13660.4 69.91,-222.1 -8.22,-168.6 -104.99,82.2 c 0,0 65.8,74.1 56.6,113.1 -9.19,39.1 -13.3,195.4 -13.3,195.4" /><path
         id="path146"
         style="fill:#767779;fill-opacity:1;fill-rule:nonzero;stroke:none"
         d="m 4843.09,10220.1 c -123.51,0 -223.63,-147.1 -223.63,-328.5 0,-181.5 100.12,-328.5 223.63,-328.5 h 289.95 v 657 h -289.95" /><path
         id="path148"
         style="fill:#adadab;fill-opacity:1;fill-rule:nonzero;stroke:none"
         d="m 5356.67,9891.6 c 0,-181.5 -100.12,-328.5 -223.63,-328.5 -123.51,0 -223.63,147 -223.63,328.5 0,181.4 100.12,328.5 223.63,328.5 123.51,0 223.63,-147.1 223.63,-328.5" /><path
         id="path150"
         style="fill:#4c4d4e;fill-opacity:1;fill-rule:nonzero;stroke:none"
         d="M 5862.95,10022.7 H 5135.4 c -47.82,0 -86.57,-38.8 -86.57,-86.6 v -52 c 0,-47.9 38.75,-86.6 86.57,-86.6 h 727.55 c 47.81,0 86.57,38.7 86.57,86.6 v 52 c 0,47.8 -38.76,86.6 -86.57,86.6" /><path
         id="path152"
         style="fill:#4c4d4e;fill-opacity:1;fill-rule:nonzero;stroke:none"
         d="m 4167.56,10056.6 h -727.55 c -47.81,0 -86.57,-38.8 -86.57,-86.6 v -52 c 0,-47.8 38.76,-86.6 86.57,-86.6 h 727.55 c 47.81,0 86.57,38.8 86.57,86.6 v 52 c 0,47.8 -38.76,86.6 -86.57,86.6" /><path
         id="path154"
         style="fill:#f0f0ef;fill-opacity:1;fill-rule:nonzero;stroke:none"
         d="m 4791.01,5641.3 c -138.49,4.8 -299.4,19.3 -424.43,32.5 4.17,-123.6 6.73,-197.8 6.73,-197.8 0,0 129.55,-86.4 166.56,-172.7 37.01,-86.4 37.01,-209.8 37.01,-209.8 0,0 86.37,-67.8 154.24,0 67.85,67.9 74.02,37 67.85,67.9 -3.85,19.3 -24.56,214.3 -7.96,479.9" /><path
         id="path156"
         style="fill:#f0f0ef;fill-opacity:1;fill-rule:nonzero;stroke:none"
         d="m 5800.45,5339.3 c -8.22,-206.3 -39.09,-301.3 -39.09,-301.3 0,0 117.21,-24.7 178.91,-154.2 61.69,-129.6 61.69,-209.8 92.53,-209.8 30.85,0 129.55,-37 148.06,0 11.28,22.6 27.15,301.8 55.97,637.9 -153.27,-0.8 -319.99,14.2 -436.38,27.4" /><path
         id="path158"
         style="fill:#c37140;fill-opacity:1;fill-rule:nonzero;stroke:none"
         d="m 5370.65,10538.8 c 0,0 -213.86,-493.9 -230.31,-569.8 -16.46,-75.9 118.24,-254.8 170.68,-301.1 52.43,-46.2 101.66,-23.1 110.86,-22.4 9.21,0.7 43.35,3.8 89.98,5.6 33.58,1.4 49,-26.4 79.85,16.8 30.84,43.2 49.35,141.9 49.35,141.9 0,0 40.1,311.6 43.19,333.1 3.08,21.7 20.56,201.6 -5.14,375.4 -25.71,173.7 -10.29,142.9 -136.75,127.4 -126.47,-15.4 -171.71,-106.9 -171.71,-106.9" /><path
         id="path160"
         style="fill:#c37140;fill-opacity:1;fill-rule:nonzero;stroke:none"
         d="m 3614.5,10518.3 c 0,0 -143.94,-433.9 -160.4,-535.7 -16.45,-101.8 20.57,-161.5 67.86,-219 47.3,-57.6 117.22,-49.4 117.22,-49.4 0,0 37.01,-20.6 76.08,-18.5 39.08,2.1 39.08,2.1 39.08,2.1 0,0 43.18,-12.7 94.59,-2.3 51.41,10.5 59.63,49.5 59.63,49.5 0,0 14.4,147.8 32.9,224 18.51,76.3 18.51,207.9 18.51,207.9 0,0 -57.58,121.3 -74.03,181 -16.45,59.6 -32.9,160.4 -32.9,160.4 0,0 -80.2,92.5 -102.82,86.3 -22.62,-6.2 -135.72,-86.3 -135.72,-86.3" /><path
         id="path162"
         style="fill:#9f5134;fill-opacity:1;fill-rule:nonzero;stroke:none"
         d="m 3585.63,9720.8 c 29.44,-9.3 53.55,-6.6 53.55,-6.6 l -106.93,152.2 c -6.42,-19.3 27.19,-93 53.38,-145.6" /><path
         id="path164"
         style="fill:#9f5134;fill-opacity:1;fill-rule:nonzero;stroke:none"
         d="m 3614.5,9891.6 c 4.76,-9.1 66.86,-137.5 95.12,-196 1.88,0 3.75,0 5.64,0.1 39.08,2.1 39.08,2.1 39.08,2.1 0,0 -146.01,205.6 -139.84,193.8" /><path
         id="path166"
         style="fill:#9f5134;fill-opacity:1;fill-rule:nonzero;stroke:none"
         d="m 3705.05,9891.6 c 4.89,-6.1 91.63,-140.5 129.01,-198.4 4.87,0.6 9.81,1.3 14.87,2.3 51.41,10.5 59.63,49.5 59.63,49.5 0,0 -209.75,154.3 -203.51,146.6" /><path
         id="path168"
         style="fill:#9f5134;fill-opacity:1;fill-rule:nonzero;stroke:none"
         d="m 3878.11,10131.9 c 0,0 -66.2,-101 -74.33,-150.4 -8.13,-49.3 27.18,-105.2 27.18,-105.2 0,0 54.98,-44.9 59.1,-57.2 4.11,-12.4 18.5,-74.1 18.5,-74.1 0,0 14.4,147.8 32.9,224 18.51,76.3 18.51,207.9 18.51,207.9 0,0 -7.37,15.5 -17.58,38.2 l -64.28,-83.2" /><path
         id="path170"
         style="fill:#767779;fill-opacity:1;fill-rule:nonzero;stroke:none"
         d="m 4052.09,10254 c -123.51,0 -223.63,-147.1 -223.63,-328.5 0,-181.4 100.12,-328.5 223.63,-328.5 h 289.95 v 657 h -289.95" /><path
         id="path172"
         style="fill:#adadab;fill-opacity:1;fill-rule:nonzero;stroke:none"
         d="m 4565.67,9925.5 c 0,-181.4 -100.12,-328.5 -223.63,-328.5 -123.5,0 -223.63,147.1 -223.63,328.5 0,181.4 100.13,328.5 223.63,328.5 123.51,0 223.63,-147.1 223.63,-328.5" /><path
         id="path174"
         style="fill:#767779;fill-opacity:1;fill-rule:nonzero;stroke:none"
         d="m 5747.48,10220.1 c -123.51,0 -223.63,-147.1 -223.63,-328.5 0,-181.5 100.12,-328.5 223.63,-328.5 h 289.95 v 657 h -289.95" /><path
         id="path176"
         style="fill:#adadab;fill-opacity:1;fill-rule:nonzero;stroke:none"
         d="m 6261.06,9891.6 c 0,-181.5 -100.12,-328.5 -223.63,-328.5 -123.51,0 -223.63,147 -223.63,328.5 0,181.4 100.12,328.5 223.63,328.5 123.51,0 223.63,-147.1 223.63,-328.5" /></g></g></svg>