<?xml version="1.0" encoding="UTF-8" standalone="no"?>
<svg
   xmlns:dc="http://purl.org/dc/elements/1.1/"
   xmlns:cc="http://creativecommons.org/ns#"
   xmlns:rdf="http://www.w3.org/1999/02/22-rdf-syntax-ns#"
   xmlns:svg="http://www.w3.org/2000/svg"
   xmlns="http://www.w3.org/2000/svg"
   viewBox="0 0 2666.6667 2666.6667"
   height="2666.6667"
   width="2666.6667"
   xml:space="preserve"
   id="svg2"
   version="1.1"><metadata
     id="metadata8"><rdf:RDF><cc:Work
         rdf:about=""><dc:format>image/svg+xml</dc:format><dc:type
           rdf:resource="http://purl.org/dc/dcmitype/StillImage" /></cc:Work></rdf:RDF></metadata><defs
     id="defs6" /><g
     transform="matrix(1.3333333,0,0,-1.3333333,0,2666.6667)"
     id="g10"><g
       transform="scale(0.1)"
       id="g12"><g
         transform="scale(1.22699)"
         id="g14"><path
           id="path16"
           style="fill:#ffffff;fill-opacity:1;fill-rule:nonzero;stroke:none"
           d="M 16300,0 H 0 V 16300 H 16300 V 0" /></g><g
         transform="scale(1.04572)"
         id="g18"><path
           id="path20"
           style="fill:#c37140;fill-opacity:1;fill-rule:nonzero;stroke:none"
           d="m 16009.5,11292.5 c 0,0 230.1,-198.7 260.3,-488 30.2,-289.3 -210.4,-700.6 -210.4,-700.6 0,0 -27.8,-662.35 -83.6,-958.6 0,0 62.8,-324.18 0,-623.98 -62.7,-299.69 -278.8,-1185.11 -278.8,-1185.11 h -237.1 c 0,0 -101.1,909.8 -101.1,1188.65 0,278.85 101.1,582.09 101.1,596.05 0,13.96 -87.1,644.85 -17.4,975.99 69.7,331.2 327.4,979.5 327.4,979.5 l 239.6,216.1" /></g><path
         id="path22"
         style="fill:#252323;fill-opacity:1;fill-rule:nonzero;stroke:none"
         d="m 14165.5,4356.9 -127.6,59.6 c 0,0 -110.5,-116.6 -120.2,-179.8 -9.8,-63.2 -170.1,-695 -107,-763 63.2,-68.1 1735.1,-267.4 1880.9,-126.4 145.8,140.9 77.8,247.9 -77.8,354.8 -155.5,106.9 -417.9,213.8 -622.1,398.5 -204.1,184.7 -179.8,272.2 -262.4,345.1 -82.6,72.9 -364.5,106.9 -364.5,106.9 l -199.3,-195.7" /><g
         transform="scale(1.0569)"
         id="g24"><path
           id="path26"
           style="fill:#252323;fill-opacity:1;fill-rule:nonzero;stroke:none"
           d="m 15021.6,4891.5 c 0,0 92,-4.55 163.2,-50.53 71.4,-45.98 456.5,-413.85 584.1,-475.92 127.6,-62.17 372.4,-110.42 413.9,-175.9 41.3,-65.57 117.2,-244.86 -207,-327.65 -324.2,-82.79 -541.5,58.57 -796.6,65.47 -255.3,6.91 -313.9,-65.76 -486.4,-22.52 -172.4,43.24 -206.9,36.34 -231,98.41 -24.1,62.06 34.4,513.86 37.9,565.61 3.4,51.76 109.1,355.01 109.1,355.01 l 412.8,-31.98" /></g><path
         id="path28"
         style="fill:#c37140;fill-opacity:1;fill-rule:nonzero;stroke:none"
         d="m 14649.1,6341.1 c 0,0 -101.4,-1239.3 -84.7,-1516.3 16.7,-277.1 16.7,-390.1 16.7,-390.1 l -40.1,-94.7 -43.8,-113 c 0,0 -273.4,-116.7 -342.6,-98.4 -69.3,18.2 -116.7,287.9 -116.7,287.9 0,0 -51,703.5 -51,714.5 0,10.9 58.3,2070.4 54.7,2068.6 -3.7,-1.9 -200.5,391.8 -200.5,391.8 0,0 747.3,222.4 769.1,200.5 21.9,-21.9 228,-222.4 214.2,-262.5 -13.7,-40.1 -18,-1007.8 -39.2,-1037 -21.2,-29.2 -136.1,-151.3 -136.1,-151.3" /><path
         id="path30"
         style="fill:#c37140;fill-opacity:1;fill-rule:nonzero;stroke:none"
         d="m 15740.2,7906.1 c 0,0 136.2,-247.9 170.2,-315.9 33.9,-68.1 -9.7,-1074.1 0,-1482.3 9.6,-408.3 33.9,-1011 33.9,-1011 0,0 -19.3,-92.3 -33.9,-131.2 -14.7,-38.9 -39,-199.2 -170.2,-204.1 -131.2,-4.9 -277,286.7 -281.9,325.6 -4.8,38.9 -116.6,719.3 -121.5,738.8 -4.8,19.4 -204.1,349.9 -272.1,787.3 -68.1,437.4 -199.3,1147 -155.6,1292.8 43.8,145.8 -218.7,272.2 175,218.7 393.7,-53.5 656.1,-218.7 656.1,-218.7" /><path
         id="path32"
         style="fill:#f0f0ef;fill-opacity:1;fill-rule:nonzero;stroke:none"
         d="m 14025.6,4587.2 c 7.1,-98.5 12.3,-170.7 12.3,-170.7 0,0 47.4,-269.7 116.7,-287.9 69.2,-18.3 342.6,98.4 342.6,98.4 l 43.8,113 40.1,94.7 c 0,0 0,43.4 -4,142 -176.2,-8.2 -397.6,1.9 -551.5,10.5" /><path
         id="path34"
         style="fill:#f0f0ef;fill-opacity:1;fill-rule:nonzero;stroke:none"
         d="m 15440,5203.6 c 10.2,-62.9 17.2,-107.3 18.3,-116.4 4.9,-38.9 150.7,-330.5 281.9,-325.6 131.2,4.9 155.5,165.2 170.2,204.1 14.6,38.9 33.9,131.2 33.9,131.2 0,0 -2.2,55.8 -5.6,144.7 -172.7,-28.2 -369.3,-36.1 -498.7,-38" /><path
         id="path36"
         style="fill:#a45634;fill-opacity:1;fill-rule:nonzero;stroke:none"
         d="m 14497,7471.2 c 42.8,-41.4 125.4,-245.5 125.4,-245.5 0,0 -81.4,-264.9 -81.4,-356 0,-91.2 61.9,-346.3 54.7,-357.2 -7.3,-11 -123,-152.4 -123,-152.4 0,0 61.7,-109.9 168.9,-113.6 l 19.7,214.9 c 0,0 74.4,569.4 82,627 7.5,57.5 27.3,145.8 0,277 -27.4,131.2 -60.2,148.2 -71.1,161.6 -10.9,13.4 -175.2,-55.8 -175.2,-55.8" /><path
         id="path38"
         style="fill:#252323;fill-opacity:1;fill-rule:nonzero;stroke:none"
         d="m 13378.2,10693.4 c 0,0 -495.7,-189.6 -619.7,-605.1 -123.9,-415.5 -87.5,-670.7 124,-1210.2 211.4,-539.4 364.5,-1462.9 364.5,-1462.9 0,0 388.8,-9.7 753.3,0 364.5,9.7 607.5,82.6 607.5,82.6 0,0 48.6,179.9 393.7,204.2 345,24.3 738.7,204.1 738.7,204.1 0,0 -165.2,690.1 -213.8,826.2 -48.6,136.1 -335.4,612.4 -335.4,612.4 0,0 -330.5,972 -398.5,1001.2 -68.1,29.1 -1414.3,347.5 -1414.3,347.5" /><path
         id="path40"
         style="fill:#a45634;fill-opacity:1;fill-rule:nonzero;stroke:none"
         d="m 15054.9,7527 296.5,-393.7 c 0,0 -286.7,253.8 -296.5,277.6 -9.7,23.8 0,116.1 0,116.1" /><g
         transform="scale(1.0323)"
         id="g42"><path
           id="path44"
           style="fill:#e9eef1;fill-opacity:1;fill-rule:nonzero;stroke:none"
           d="m 15247.7,11877.1 -275.4,-45.9 c 0,0 -420.2,-144.7 -610.9,-286 -190.6,-141.2 -413.1,-384.9 -519,-459 -106,-74.2 -452,-384.9 -625,-512 -173,-127.1 -257.8,-215.4 -257.8,-215.4 0,0 67,-303.7 423.7,-593.22 356.7,-289.56 783.9,-363.67 798,-363.67 14.2,0 663.9,346.01 755.6,377.79 91.9,31.77 466.2,226 466.2,226 0,0 289.5,24.7 395.4,70.6 106,45.9 388.5,335.5 434.4,409.6 45.9,74.2 67.1,586.2 63.5,614.4 -3.5,28.3 0.4,508.5 0.4,508.5 l -1049.1,268.3" /></g><g
         transform="scale(1.05779)"
         id="g46"><path
           id="path48"
           style="fill:#c37140;fill-opacity:1;fill-rule:nonzero;stroke:none"
           d="m 15423,11870.8 c 0,0 -198.2,-153.5 -228,-162.7 -29.9,-9.2 -303.2,-103.4 -314.8,-117.2 -11.4,-13.8 190.7,-232 298.7,-452.5 108,-220.6 121.8,-638.7 358.4,-629.5 236.6,9.2 337.7,415.8 351.5,491.6 13.8,75.8 25.2,119.5 25.2,119.5 l 386,351.5 c 0,0 -335.4,611 -353.8,643.2 -18.4,32.2 27.6,112.6 -110.3,101.1 -137.8,-11.5 -225.1,2.3 -277.9,-89.6 -52.9,-91.9 -135,-255.4 -135,-255.4" /></g><g
         transform="scale(1.01501)"
         id="g50"><path
           id="path52"
           style="fill:#a45634;fill-opacity:1;fill-rule:nonzero;stroke:none"
           d="m 15969.6,11320.6 c 19.2,0 217.9,-79 229.8,-81.4 11.9,-2.4 100.6,-55.1 100.6,-55.1 l -67.1,86.2 -263.3,50.3" /></g><path
         id="path54"
         style="fill:#c37140;fill-opacity:1;fill-rule:nonzero;stroke:none"
         d="m 14627.2,10720.1 c -4.8,14.6 -77.7,413.1 77.8,729 155.5,315.9 490.9,527 870,487.1 379.1,-39.9 466.5,-511.4 393.6,-866.2 -72.9,-354.7 -481.1,-758.1 -481.1,-758.1 0,0 -38.9,-432.6 -102.1,-714.5 -63.2,-281.9 -160.4,-490.8 -160.4,-490.8 0,0 43.8,-388.9 -4.8,-772.8 -48.6,-384 -184.7,-1268.5 -184.7,-1268.5 0,0 -349.9,92.3 -349.9,106.9 0,14.6 -165.3,646.4 -131.3,986.6 34.1,340.2 63.2,816.5 63.2,991.5 0,175 -145.8,544.3 -116.6,928.3 29.1,383.9 126.3,641.5 126.3,641.5" /><path
         id="path56"
         style="fill:#a45634;fill-opacity:1;fill-rule:nonzero;stroke:none"
         d="m 14785.2,11421.2 c 0,0 -18.2,-159.2 0,-337.8 l -158,-363.3 -20.9,214 89.5,156.6 c 0,0 16.5,256.4 89.4,330.5" /><path
         id="path58"
         style="fill:#a45634;fill-opacity:1;fill-rule:nonzero;stroke:none"
         d="m 15514.2,11451.6 c 0,0 175,-160.4 138.5,-419.2 0,0 127.6,357.2 -138.5,419.2" /><path
         id="path60"
         style="fill:#d68358;fill-opacity:1;fill-rule:nonzero;stroke:none"
         d="m 15315,10285.1 c 12.1,4.9 92.3,-0.1 92.3,-0.1 0,0 -9.7,-318.5 -49.8,-626.8 -40.1,-308.3 -132.5,-551.6 -132.5,-551.6 0,0 97.2,208.9 160.4,490.8 63.2,281.9 102.1,714.5 102.1,714.5 0,0 408.2,403.4 481.1,758.1 0,0 -216.2,-366.9 -342.6,-515.1 -126.4,-148.3 -323.2,-274.6 -311,-269.8" /><g
         transform="scale(1.01821)"
         id="g62"><path
           id="path64"
           style="fill:#a45634;fill-opacity:1;fill-rule:nonzero;stroke:none"
           d="m 16300,9295.74 c 0,0 -128.9,-132.49 -186.1,-318.6 0,0 -53.7,229.13 186.1,318.6" /></g><path
         id="path66"
         style="fill:#a45634;fill-opacity:1;fill-rule:nonzero;stroke:none"
         d="m 14843.5,9173.4 c 0,0 -3.6,-62 62,-204.2 65.6,-142.1 54.7,-277 54.7,-277 0,0 76.5,280.7 -116.7,481.2" /><g
         transform="scale(1.13696)"
         id="g68"><path
           id="path70"
           style="fill:#adadab;fill-opacity:1;fill-rule:nonzero;stroke:none"
           d="m 9346.7,4629.37 6874.2,2335.1 c 0,0 79.1,-38.53 42.7,-119.71 L 9392.7,4413.1 l -46,216.27" /></g><path
         id="path72"
         style="fill:#d4d4d2;fill-opacity:1;fill-rule:nonzero;stroke:none"
         d="m 10745.4,5152.4 c 9.7,-69.1 -27.7,-131.5 -83.5,-139.3 -55.8,-7.8 -108.9,41.9 -118.6,111 -9.7,69.1 27.7,131.5 83.5,139.3 55.9,7.8 109,-41.9 118.6,-111" /><path
         id="path74"
         style="fill:#454547;fill-opacity:1;fill-rule:nonzero;stroke:none"
         d="m 14348.7,6283.1 c -122.1,447.3 -406.7,798.5 -752.8,984.8 -0.5,0.3 -1,0.6 -1.5,0.9 -602.1,339.6 -1289,63.7 -1289,63.7 l -26,-66.8 c 0,0 -597,-933.6 -633.8,-998 -36.8,-64.4 176.3,-1686.5 1080,-1777.3 903.7,-90.9 1154.7,208.3 1154.7,208.3 v 0 c 435.9,318.8 641.2,951.4 468.4,1584.4" /><path
         id="path76"
         style="fill:#565759;fill-opacity:1;fill-rule:nonzero;stroke:none"
         d="m 14011.5,6272.2 c 214.9,-787.3 -154.9,-1574 -825.9,-1757.1 -671.1,-183.2 -1389.3,306.5 -1604.2,1093.7 -214.8,787.3 154.9,1574 826,1757.1 671.1,183.2 1389.3,-306.5 1604.1,-1093.7" /><path
         id="path78"
         style="fill:#707274;fill-opacity:1;fill-rule:nonzero;stroke:none"
         d="m 13148.1,5995.9 c 33.4,-159.3 -55.7,-312.7 -198.9,-342.7 -143.1,-30 -286.3,74.8 -319.6,234.1 -33.4,159.3 55.7,312.7 198.9,342.7 143.1,30 286.3,-74.9 319.6,-234.1" /><path
         id="path80"
         style="fill:#adadab;fill-opacity:1;fill-rule:nonzero;stroke:none"
         d="m 12888.8,6031.8 c 0,0 110.3,-62.5 82.7,-203 l -1644.7,-582.1 -95.4,222 1657.4,563.1" /><path
         id="path82"
         style="fill:#c37140;fill-opacity:1;fill-rule:nonzero;stroke:none"
         d="m 14685.6,7172.2 c 0,0 -68.1,-180.4 -84.5,-286.1 -16.4,-105.7 51,-335.4 56.5,-364.5 5.5,-29.2 3.7,-60.2 3.7,-60.2 l -140.4,-71.1 c 0,0 23.7,-69.2 74.8,-76.5 51,-7.3 147.6,27.3 147.6,27.3 0,0 52.8,-1.8 89.3,0 36.4,1.9 116.6,-1.8 138.5,12.8 21.9,14.6 153.1,160.4 156.7,226 3.7,65.6 -89.3,619.7 -89.3,619.7 l -352.9,-27.4" /><path
         id="path84"
         style="fill:#a45634;fill-opacity:1;fill-rule:nonzero;stroke:none"
         d="m 14909.1,6541.6 c -5.4,-1.8 -165.8,-200.5 -165.8,-200.5 h 49.2 l 116.6,200.5" /><path
         id="path86"
         style="fill:#a45634;fill-opacity:1;fill-rule:nonzero;stroke:none"
         d="m 14872.7,6341.1 136.7,151.3 -91.1,-149.1 z" /><path
         id="path88"
         style="fill:#d68358;fill-opacity:1;fill-rule:nonzero;stroke:none"
         d="m 15133.7,7717.9 -139.5,-518.3 c 0,0 63.6,-441 70.5,-586.3 6.8,-145.3 -93.6,-259.4 -93.6,-259.4 v 0 0 c 21.9,14.6 153.1,160.4 156.7,226 3,52.9 -56.9,423.2 -80.2,564.7 17.5,114.8 51.6,339.2 86.1,573.3" /><g
         transform="scale(1.12477)"
         id="g90"><path
           id="path92"
           style="fill:#454547;fill-opacity:1;fill-rule:nonzero;stroke:none"
           d="m 16206.8,6786.53 c -65.9,276.32 -233.2,496.98 -441.4,617.98 -0.3,0.19 -0.6,0.36 -0.9,0.54 -361.8,219.87 -788,64.63 -788,64.63 l -17.2,-40.36 c 0,0 -384.1,-559.76 -407.9,-598.43 -23.8,-38.76 74.4,-1036.21 626,-1109.74 551.5,-73.61 711.1,104.56 711.1,104.56 v 0 c 273.3,186.53 411.5,569.8 318.3,960.82" /></g><g
         transform="scale(1.11208)"
         id="g94"><path
           id="path96"
           style="fill:#565759;fill-opacity:1;fill-rule:nonzero;stroke:none"
           d="m 16182.7,6863.99 c 117.3,-491.87 -127.6,-971.61 -546.8,-1071.51 -419.3,-99.99 -854.1,217.7 -971.4,709.57 -117.3,491.87 127.6,971.61 546.8,1071.51 419.3,99.99 854.2,-217.7 971.4,-709.57" /></g><g
         transform="scale(1.068)"
         id="g98"><path
           id="path100"
           style="fill:#707274;fill-opacity:1;fill-rule:nonzero;stroke:none"
           d="m 16278.1,6967.13 c 21.9,-135.86 -52.4,-260.76 -165.9,-279.12 -113.5,-18.35 -223.3,76.97 -245.3,212.83 -21.9,135.86 52.4,260.77 165.9,279.12 113.5,18.35 223.3,-76.97 245.3,-212.83" /></g><g
         transform="scale(1.05806)"
         id="g102"><path
           id="path104"
           style="fill:#adadab;fill-opacity:1;fill-rule:nonzero;stroke:none"
           d="m 16211.2,7069.57 c 0,0 88.8,-43.47 54,-143.09 L 14906,6445.5 l -56.1,161.62 1361.3,462.45" /></g><g
         transform="scale(1.01307)"
         id="g106"><path
           id="path108"
           style="fill:#c37140;fill-opacity:1;fill-rule:nonzero;stroke:none"
           d="m 15958.2,7572.65 c 0,0 25.1,-100.79 -104.4,-208.68 -129.5,-107.99 -111.5,-86.37 -133.1,-143.92 -21.6,-57.54 -14.4,-245.88 -14.4,-245.88 l 147.5,43.43 c 0,0 28.8,-17.08 38.4,-62.68 9.6,-45.51 13.1,-103.84 13.1,-103.84 l -119.5,-42.25 c 0,0 51.2,-62.59 147.2,-55.38 95.9,7.21 278.3,62.39 299.8,79.16 21.6,16.79 67.2,160.7 43.2,304.62 -24,143.92 -73.1,435.42 -73.1,435.42 l -118.8,80.34 -125.9,-80.34" /></g><g
         transform="scale(1.02642)"
         id="g110"><path
           id="path112"
           style="fill:#c37140;fill-opacity:1;fill-rule:nonzero;stroke:none"
           d="m 15658.3,8855.51 c -6.7,-56.12 -10.8,-113.7 -10.8,-170.4 0,-284.09 103,-1211 103,-1211 h 241.5 c 0,0 220.2,902.06 284.1,1207.4 12.1,57.97 19.6,116.71 23.9,174 h -641.7" /></g><g
         transform="scale(1.06468)"
         id="g114"><path
           id="path116"
           style="fill:#a45634;fill-opacity:1;fill-rule:nonzero;stroke:none"
           d="m 15778.5,11974.6 c 0,0 -76.7,-190.7 -73.9,-310.2 2.7,-119.4 285.4,-453.4 285.4,-453.4 l 310,216.5 -521.5,547.1" /></g><g
         transform="scale(1.09353)"
         id="g118"><path
           id="path120"
           style="fill:#2f1d16;fill-opacity:1;fill-rule:nonzero;stroke:none"
           d="m 16170,12601.1 c -47.2,40.8 -39.8,79.5 -82.8,110.2 -43,30.8 -84.9,29.2 -125,51.7 -40.2,22.6 -133.9,72.3 -171,90.9 -37.1,18.5 -98.6,12.1 -129.4,8.9 -30.7,-3.1 -118.2,20.7 -154.3,33.4 -36.1,12.7 -97.1,-16.5 -130.1,-34.3 -33.1,-17.8 -100.6,10.4 -154.6,2.9 -54.2,-7.4 -100.8,-55.7 -141.2,-72.7 -40.2,-17 -86.4,-88.1 -107.5,-117.2 -21.2,-29.2 -41.4,-24.5 -95.5,-71.7 -54,-47.2 -63.3,-163.2 -63.3,-163.2 h 0.1 c -12.2,-32.2 -22.8,-68.3 -31.1,-109.5 -71.8,-354.7 56.5,-717.9 134.7,-847.6 0,0 114.6,-3.7 193.9,49 79.4,52.7 186.2,248.3 186.2,248.3 0,0 374.6,-120.7 386.9,-104.8 12.4,15.8 430.8,506.3 430.8,506.3 l 64.4,48.4 c 2.8,6.2 7.1,12.1 13,17.6 20.4,18.9 35,37.9 45.4,56.5 0,0 60.4,79.5 50.4,145 -9.8,65.5 -72.8,111.1 -120,151.9" /></g><g
         transform="scale(1.08871)"
         id="g122"><path
           id="path124"
           style="fill:#c37140;fill-opacity:1;fill-rule:nonzero;stroke:none"
           d="m 16265.8,12301.9 c 0,0 31.1,-235.6 30,-288.3 -1.1,-52.6 -66.8,-197.8 -69.7,-222.6 -2.9,-24.9 73.9,-308.1 66.5,-322.6 -7.5,-14.4 -111,-5.4 -116.7,-13 -5.7,-7.7 -38.5,-97.6 -38.3,-107.3 0.2,-9.6 -7.4,-28.1 -7.4,-28.1 0,0 -2.4,-40.5 -15.2,-57.7 -12.8,-17.1 -24.1,-49.8 -30.1,-61.9 -5.9,-12.1 -40.2,-152.4 -62.7,-168.4 -22.5,-15.9 -315.9,41.4 -358.9,65.5 -43,24.1 -247.1,337.3 -257.9,393.1 -10.9,55.8 25.3,207 25.3,207 0,0 -117,54.6 -138.7,166.2 -21.7,111.7 38.3,284 146.3,284.7 108,0.8 120.6,-145 123.1,-184.1 2.5,-39 9.1,-90 13.3,-94.8 4.3,-4.7 93.6,84.9 129,135.8 35.4,51 13.9,211.9 45.5,269.3 31.6,57.4 129.4,102.8 170.5,106.6 41.2,3.7 346.1,-79.4 346.1,-79.4" /></g><path
         id="path126"
         style="fill:#252323;fill-opacity:1;fill-rule:nonzero;stroke:none"
         d="m 4909.4,4406.8 h -185.25 c 0,0 -89.01,-175 -107.4,-199.3 -18.4,-24.3 -130.18,-738.7 -96.16,-772.7 34.02,-34 1696.19,-218.7 1793.39,-136.1 97.21,82.6 87.48,243 -68.04,345.1 -155.52,102 -651.26,413.1 -738.74,544.3 -87.48,131.2 -233.28,277 -233.28,277 l -364.52,-58.3" /><path
         id="path128"
         style="fill:#252323;fill-opacity:1;fill-rule:nonzero;stroke:none"
         d="m 6382.07,5076.3 c -63.23,-32.8 -247.91,-76.6 -247.91,-76.6 0,0 -150.67,-257.6 -170.11,-335.3 -19.44,-77.8 -136.08,-534.6 -53.46,-607.5 82.62,-72.9 481.15,-24.3 544.34,-53.5 63.18,-29.2 622.09,-162 996.32,-132 374.23,29.9 233.29,316.7 174.97,375 -58.32,58.3 -208.99,87.5 -398.53,218.7 -189.55,131.2 -408.26,471.5 -607.52,505.5 -199.27,34 -238.1,105.7 -238.1,105.7" /><path
         id="path130"
         style="fill:#c37140;fill-opacity:1;fill-rule:nonzero;stroke:none"
         d="m 5016.33,8017.9 v -842 c 0,0 -357.22,-616.1 -393.67,-980.6 -36.45,-364.5 106.92,-733.9 126.36,-1166.4 19.44,-432.6 -53.46,-821.4 -53.46,-821.4 0,0 -4.86,-72.9 82.62,-111.7 87.48,-38.9 335.35,116.6 335.35,116.6 l 68.04,194.4 92.35,58.3 c 0,0 -53.47,490.9 92.33,967.2 145.81,476.3 262.45,1239.3 291.62,1297.6 29.16,58.4 189.54,247.9 267.3,490.9 77.76,243 184.69,772.8 184.69,772.8 l -1093.53,24.3" /><path
         id="path132"
         style="fill:#c37140;fill-opacity:1;fill-rule:nonzero;stroke:none"
         d="M 6216.78,7893.9 V 7075 c 0,0 -92.34,-379.1 -106.92,-680.4 -14.59,-301.3 38.88,-335.4 53.46,-656.1 14.58,-320.8 -29.16,-772.8 -29.16,-787.4 0,-14.5 111.78,-335.3 145.8,-349.9 34.02,-14.6 140.94,19.4 184.69,58.3 43.74,38.9 58.32,213.9 106.92,262.5 48.6,48.6 48.6,48.6 48.6,48.6 0,0 63.18,772.7 194.41,1161.5 131.22,388.9 87.48,665.9 160.38,972.1 72.9,306.2 155.52,680.4 126.36,952.6 -29.16,272.1 -656.11,102 -670.69,77.7 -14.59,-24.3 -213.85,-240.6 -213.85,-240.6" /><path
         id="path134"
         style="fill:#252323;fill-opacity:1;fill-rule:nonzero;stroke:none"
         d="m 5300.7,11021.4 c 0,0 -357.28,-211.4 -488.5,-947.7 -131.22,-736.3 -72.9,-2143.3 43.74,-2187 116.64,-43.8 328.06,-211.5 831.09,-218.8 503.02,-7.2 710.11,116.7 710.11,116.7 l 33.49,109.3 c 0,0 386.38,-7.2 575.92,51.1 189.55,58.3 366.94,277 366.94,277 l -320.48,1031.4 c 0,0 259.73,441.2 194.12,711 -65.62,269.7 -227.93,918.3 -313.48,1057 -85.55,138.8 -1319.53,211.5 -1385.14,204.2 -65.61,-7.3 -247.81,-204.2 -247.81,-204.2" /><path
         id="path136"
         style="fill:#100f0d;fill-opacity:1;fill-rule:nonzero;stroke:none"
         d="m 6787.85,9328.7 -189.55,-210 -167.67,-1224.8 178.6,2.2 c 0,0 74.12,1180.9 78.98,1193.3 4.86,12.3 99.64,239.3 99.64,239.3" /><path
         id="path138"
         style="fill:#c37140;fill-opacity:1;fill-rule:nonzero;stroke:none"
         d="m 6458.9,14020.2 117.53,80.1 c 0,0 114.21,-60.7 252.73,-260 138.51,-199.2 166.57,-438.6 166.57,-438.6 0,0 -256.49,108.1 -285.65,154.3 -29.16,46.2 -251.18,464.2 -251.18,464.2" /><path
         id="path140"
         style="fill:#e9eef1;fill-opacity:1;fill-rule:nonzero;stroke:none"
         d="m 5495.05,14574.2 -194.35,-102.1 70.42,-1861.4 -70.42,-1589.3 c 0,0 571.01,-174.9 930.66,-223.5 359.65,-48.6 607.52,0 602.66,29.1 -4.86,29.2 48.6,947.8 48.6,1025.5 0,77.8 29.16,850.6 29.16,850.6 0,0 87.48,224.7 83.84,450.7 -3.65,226 0.11,247.9 0.11,247.9 0,0 -169,232.1 -261.35,385.2 -92.34,153.1 -148.23,296.4 -157.95,313.4 -9.72,17.1 -235.72,155.6 -235.72,155.6 l -845.66,318.3" /><path
         id="path142"
         style="fill:#c37140;fill-opacity:1;fill-rule:nonzero;stroke:none"
         d="m 5640.05,15120.4 c 0,0 10.53,-206.6 -16.21,-318.1 -26.73,-111.5 -128.79,-228.1 -128.79,-228.1 0,0 378.46,-175 590.19,-488.4 211.73,-313.5 374.55,-495.8 530.07,-447.2 155.52,48.6 -208.99,573.5 -206.56,583.2 2.44,9.8 70.48,206.6 102.07,364.6 31.59,157.9 70.47,374.2 70.47,374.2 0,0 -478.98,522.5 -506.8,541.9 -27.82,19.4 -93.61,98.4 -191.94,65 -98.32,-33.4 -190.67,-67.4 -202.81,-152.5 -12.16,-85.1 -39.69,-294.6 -39.69,-294.6" /><path
         id="path144"
         style="fill:#bec2c4;fill-opacity:1;fill-rule:nonzero;stroke:none"
         d="m 6678.49,13212.2 c 0,0 -58.32,-283.1 -89.91,-326.9 -31.59,-43.7 -182.26,-116.6 -182.26,-116.6 0,0 187.12,2.4 233.29,92.3 46.17,89.9 38.88,351.2 38.88,351.2" /><path
         id="path146"
         style="fill:#c37140;fill-opacity:1;fill-rule:nonzero;stroke:none"
         d="m 5348.8,14497.4 c 0,0 425.71,-301.1 604.32,-771.3 178.61,-470.2 -280.67,-957.4 -280.67,-957.4 0,0 61.96,-562.6 80.19,-919.8 0,0 156.74,-295.3 185.9,-561.4 29.16,-266.1 247.87,-1297.6 247.87,-1297.6 l -357.23,-98.4 c 0,0 -419.18,652.4 -495.73,940.4 -76.55,288 -116.64,627 -116.64,627 0,0 -29.16,87.4 -40.1,149.4 -10.93,62 -21.87,116.6 -21.87,116.6 0,0 -287.96,368.2 -328.06,663.5 0,0 -105.71,115.4 -134.87,380.3 -29.16,264.8 -18.22,578.3 -18.22,578.3 0,0 -83.84,466.6 94.77,648.8 178.61,182.3 434.1,424.8 580.34,501.6" /><path
         id="path148"
         style="fill:#a45634;fill-opacity:1;fill-rule:nonzero;stroke:none"
         d="m 5697.96,13401.7 c -2.17,7.9 -36.45,-211.4 -98.42,-342.6 l 72.91,-290.4 c 0,0 115.31,147.8 120.95,156.2 5.63,8.5 -96.93,160.3 -96.93,160.3 0,0 30.65,210.8 1.49,316.5" /><path
         id="path150"
         style="fill:#adadab;fill-opacity:1;fill-rule:nonzero;stroke:none"
         d="m 1570.28,8359.6 73.11,-225.1 8071.47,1669.5 c 0,0 36.45,116.6 -32.8,160.4 L 1570.28,8359.6" /><path
         id="path152"
         style="fill:#a45634;fill-opacity:1;fill-rule:nonzero;stroke:none"
         d="m 4673.69,13347 c 0,0 91.12,-174.9 284.31,-211.4 0,0 -164.12,-51 -286.18,105.7 l 1.87,105.7" /><path
         id="path154"
         style="fill:#c37140;fill-opacity:1;fill-rule:nonzero;stroke:none"
         d="m 5829.18,9891.5 c 0,0 -76.54,-211.5 0,-364.5 76.55,-153.1 160.39,-246.1 174.97,-302.6 14.58,-56.5 -16.41,-145.8 -16.41,-145.8 l -113.97,-80 c 0,0 -15.43,-30.6 51.4,-48.8 66.83,-18.2 111.78,-15.8 111.78,-15.8 0,0 18.23,-20.6 78.98,-25.5 60.75,-4.9 126.36,38.9 126.36,38.9 l 63.19,34 c 0,0 40.09,-13.4 57.1,37.7 17.01,51 41.32,252.7 32.81,339 -8.51,86.2 -208.98,631.8 -208.98,631.8 0,0 -153.1,27.3 -165.86,16.4 -12.76,-11 -191.37,-114.8 -191.37,-114.8" /><path
         id="path156"
         style="fill:#c37140;fill-opacity:1;fill-rule:nonzero;stroke:none"
         d="m 6834.02,10827 c 0,0 168.89,-388.8 223.56,-567.4 54.68,-178.6 0,-575.9 0,-575.9 0,0 -56.26,-174.2 -37.85,-246.9 l 131.34,26 c 0,0 37.74,-64.6 40.17,-96.2 2.43,-31.6 -24.77,-89.7 -24.77,-89.7 l -113.46,-23.5 c 0,0 111.5,-69.1 179.54,-81.2 68.04,-12.2 99.63,26.7 99.63,26.7 0,0 63.18,-2.4 82.62,9.7 19.44,12.2 77.76,29.2 92.34,53.5 14.58,24.3 63.19,252.7 48.61,328 -14.58,75.4 -119.08,204.2 -138.52,250.3 -19.44,46.2 -82.62,413.1 -131.22,729 -48.6,316 -35.24,780.1 -137.3,991.5 -102.06,211.4 -138.51,298.9 -171.32,481.2 -32.81,182.2 -76.44,368.4 -76.44,368.4 L 6834.02,10827" /><path
         id="path158"
         style="fill:#a45634;fill-opacity:1;fill-rule:nonzero;stroke:none"
         d="m 5414.86,7279.1 c 0,0 47.55,-179.8 -51.56,-408.2 0,0 231.38,160.4 51.56,408.2" /><path
         id="path160"
         style="fill:#a45634;fill-opacity:1;fill-rule:nonzero;stroke:none"
         d="m 6607.35,6870.9 c 0,0 41.98,-175 -21.2,-422.8 0,0 163.9,199.2 21.2,422.8" /><path
         id="path162"
         style="fill:#f0f0ef;fill-opacity:1;fill-rule:nonzero;stroke:none"
         d="m 4741.3,4588.1 c -16.5,-224.4 -45.74,-380.6 -45.74,-380.6 0,0 -4.86,-72.9 82.62,-111.7 87.48,-38.9 335.35,116.6 335.35,116.6 l 68.04,194.4 92.35,58.3 c 0,0 -5.71,52.8 -8.3,140.2 -175.73,-20.2 -376.16,-20.9 -524.32,-17.2" /><path
         id="path164"
         style="fill:#454547;fill-opacity:1;fill-rule:nonzero;stroke:none"
         d="m 5375.97,9048.8 c -107.52,451 -380.61,811.3 -720.51,1008.7 -0.48,0.3 -0.94,0.7 -1.43,0.9 -590.72,359 -1286.25,105.6 -1286.25,105.6 l -28.2,-66 c 0,0 -626.96,-913.7 -665.84,-976.9 -38.88,-63.2 121.5,-1691.3 1021.8,-1811.4 900.29,-120.1 1160.8,170.7 1160.8,170.7 v 0 c 446.05,304.5 671.79,930.1 519.63,1568.4" /><path
         id="path166"
         style="fill:#f0f0ef;fill-opacity:1;fill-rule:nonzero;stroke:none"
         d="m 6143.91,5076.3 c -5.45,-73 -9.75,-120.6 -9.75,-125.2 0,-14.5 111.78,-335.3 145.8,-349.9 34.02,-14.6 140.95,19.4 184.69,58.3 43.74,38.9 58.32,213.9 106.92,262.5 48.6,48.6 48.6,48.6 48.6,48.6 0,0 3.26,39.8 9.81,105.7 h -486.07" /><path
         id="path168"
         style="fill:#565759;fill-opacity:1;fill-rule:nonzero;stroke:none"
         d="M 5038.62,9048.8 C 5227.85,8255 4832.71,7480.7 4156.07,7319.4 3479.42,7158.1 2777.5,7670.9 2588.27,8464.7 c -189.23,793.8 205.9,1568 882.55,1729.3 676.64,161.3 1378.57,-351.4 1567.8,-1145.2" /><path
         id="path170"
         style="fill:#707274;fill-opacity:1;fill-rule:nonzero;stroke:none"
         d="m 4163.42,8816.3 c 37.8,-158.2 -46.9,-314.1 -189.18,-348.1 -142.29,-34 -288.28,66.8 -326.09,225.1 -37.8,158.2 46.9,314.1 189.18,348.1 142.29,34 288.28,-66.8 326.09,-225.1" /><path
         id="path172"
         style="fill:#adadab;fill-opacity:1;fill-rule:nonzero;stroke:none"
         d="m 3893.17,8817.3 v 0 l -2322.89,-457.7 73.11,-225.1 2300.37,475.8 c 45.54,148.7 -50.59,207 -50.59,207" /><path
         id="path174"
         style="fill:#d4d4d2;fill-opacity:1;fill-rule:nonzero;stroke:none"
         d="m 1692.59,8284.4 c 25.65,-60.3 5.39,-126.7 -45.25,-148.2 -50.64,-21.5 -112.48,9.9 -138.13,70.3 -25.65,60.3 -5.39,126.7 45.25,148.2 50.63,21.5 112.48,-9.9 138.13,-70.3" /><path
         id="path176"
         style="fill:#454547;fill-opacity:1;fill-rule:nonzero;stroke:none"
         d="m 9407.55,9829.7 c -74.08,310.8 -262.26,559 -496.47,695.1 -0.33,0.2 -0.65,0.4 -0.98,0.6 -407.04,247.3 -886.3,72.7 -886.3,72.7 l -19.42,-45.4 c 0,0 -432.01,-629.6 -458.8,-673.2 -26.8,-43.5 83.72,-1165.4 704.07,-1248.1 C 8870,8548.6 9049.5,8749 9049.5,8749 v 0 c 307.35,209.8 462.89,640.9 358.05,1080.7" /><path
         id="path178"
         style="fill:#565759;fill-opacity:1;fill-rule:nonzero;stroke:none"
         d="m 9175.1,9829.7 c 130.38,-547 -141.88,-1080.5 -608.13,-1191.6 -466.24,-111.2 -949.9,242.1 -1080.29,789.1 -130.39,547 141.88,1080.5 608.12,1191.6 466.24,111.2 949.91,-242.1 1080.3,-789.1" /><path
         id="path180"
         style="fill:#707274;fill-opacity:1;fill-rule:nonzero;stroke:none"
         d="m 8535.83,9668.6 c 32.54,-128.7 -29.91,-255.6 -139.49,-283.3 -109.58,-27.7 -224.8,54.3 -257.34,183 -32.54,128.8 29.91,255.6 139.49,283.3 109.58,27.7 224.8,-54.2 257.34,-183" /><path
         id="path182"
         style="fill:#adadab;fill-opacity:1;fill-rule:nonzero;stroke:none"
         d="m 8351.98,9701.2 c 0,0 78.02,-42.7 41.86,-170.5 l -976.89,-202 -6.5,186.3 941.53,186.2" /><path
         id="path184"
         style="fill:#c37140;fill-opacity:1;fill-rule:nonzero;stroke:none"
         d="m 7417.23,9840.4 c -19.44,46.2 -82.62,413.1 -131.22,729 h -344.05 c 44.54,-109.7 91.34,-230.5 115.62,-309.8 54.68,-178.6 0,-575.9 0,-575.9 0,0 -56.26,-174.2 -37.85,-246.9 l 131.34,26 c 0,0 37.74,-64.6 40.17,-96.2 2.43,-31.6 -24.77,-89.7 -24.77,-89.7 L 7053,9253.4 c 0,0 111.51,-69.1 179.55,-81.2 68.04,-12.2 99.63,26.7 99.63,26.7 0,0 63.18,-2.4 82.62,9.7 19.44,12.2 77.76,29.2 92.34,53.5 14.58,24.3 63.19,252.7 48.61,328 -14.58,75.4 -119.08,204.2 -138.52,250.3" /><path
         id="path186"
         style="fill:#a45634;fill-opacity:1;fill-rule:nonzero;stroke:none"
         d="m 6151.17,8999.6 c 29.16,76.6 1.21,217.5 0,223.6 -1.22,6.1 -24.3,-188.3 -40.1,-230.9 -10.91,-29.4 -45.6,-51.8 -66.8,-64 9.32,-6.1 28.67,-15.2 63.65,-19 14,25.2 30.48,56.8 43.25,90.3" /><path
         id="path188"
         style="fill:#a45634;fill-opacity:1;fill-rule:nonzero;stroke:none"
         d="m 6222.36,8935.9 c 7.87,74.4 34.52,272.7 34.52,272.7 0,0 -42.99,-179.8 -70.45,-288.5 14.02,5 26.39,10.8 35.93,15.8" /><path
         id="path190"
         style="fill:#a45634;fill-opacity:1;fill-rule:nonzero;stroke:none"
         d="m 6318.84,9198.9 -13.36,-217.5 c 0,0 30.71,-10.2 49.78,21.4 l -36.42,196.1" /><path
         id="path192"
         style="fill:#a45634;fill-opacity:1;fill-rule:nonzero;stroke:none"
         d="m 7373.49,9458.5 c 0,-23.9 -41.31,-259.6 -41.31,-259.6 h 41.31 v 259.6" /><path
         id="path194"
         style="fill:#a45634;fill-opacity:1;fill-rule:nonzero;stroke:none"
         d="m 7465.83,9475.9 -29.49,-256.8 29.49,13.1 z" /><path
         id="path196"
         style="fill:#a45634;fill-opacity:1;fill-rule:nonzero;stroke:none"
         d="m 6075.89,15412 c 0,0 -37.08,-215.7 -7.43,-339.4 29.66,-123.6 453.79,-428.3 453.79,-428.3 l 219.05,315.3 -665.41,452.4" /><g
         transform="scale(1.03066)"
         id="g198"><path
           id="path200"
           style="fill:#2f1d16;fill-opacity:1;fill-rule:nonzero;stroke:none"
           d="m 6522.18,16111.5 c -58.09,31.8 -59.06,73.6 -110.49,95.9 -51.45,22.3 -94.53,11.2 -141.19,25.6 -46.66,14.4 -154.99,45.1 -197.65,56.1 -42.66,10.9 -105.02,-9.5 -136.22,-19.7 -31.18,-10.2 -127.27,-5 -167.52,0.1 -40.26,5.2 -96.97,-38.7 -127.29,-64.6 -30.32,-25.8 -106.62,-11.8 -161.05,-31.6 -54.44,-19.8 -92.03,-80.3 -130.03,-106.9 -38,-26.6 -69.94,-110.7 -85.4,-145.7 -15.47,-35 -37.45,-34.5 -82.97,-95.6 -45.54,-61.1 -29.28,-183.5 -29.28,-183.5 l 0.1,0.1 c -5.41,-36.1 -8.34,-76 -7.78,-120.6 4.87,-383.9 219.1,-732 329.18,-849 0,0 119.76,21.8 190.28,94.2 70.53,72.4 137.54,299.1 137.54,299.1 0,0 415.44,-41.4 424.72,-22.2 9.28,19.2 333.69,621.5 333.69,621.5 l 55.93,64.5 c 1.55,7.1 4.69,14.1 9.61,21.2 16.85,24.2 27.81,47.2 34.43,68.8 0.01,0 44.83,95.9 19.91,161.6 -24.9,65.8 -100.42,98.9 -158.52,130.7" /></g><path
         id="path202"
         style="fill:#c37140;fill-opacity:1;fill-rule:nonzero;stroke:none"
         d="m 6829.51,16233.3 c 0,0 87.02,-243.6 97.92,-299.9 10.9,-56.3 -25.72,-225.9 -23.1,-253 2.61,-27.1 149.38,-310.9 144.74,-328 -4.63,-17.1 -116.89,-31.2 -121.17,-40.6 -4.28,-9.5 -18.55,-112.7 -16.17,-123 2.39,-10.2 -1.45,-31.6 -1.45,-31.6 0,0 6.71,-43.7 -2.96,-64.9 -9.66,-21.2 -14.25,-58.5 -17.79,-72.8 -3.54,-14.2 -7.83,-171.4 -28.08,-193.5 -20.26,-22.2 -345.8,-28.5 -397.03,-12.7 -51.25,15.8 -340.3,302.3 -364.64,359.2 -24.35,56.9 -20.47,226.1 -20.47,226.1 0,0 -137.14,31.3 -185.82,145.2 -48.69,113.8 -24.29,310.9 90.43,336.5 114.71,25.5 161.65,-126.7 173.24,-167.7 11.6,-40.9 30.36,-93.7 35.95,-97.8 5.58,-4.2 80.16,111.8 106.1,174.1 25.94,62.3 -33.81,228.6 -13.38,297 20.45,68.3 114.14,139.1 157.09,152.5 42.95,13.5 386.59,-5.1 386.59,-5.1" /></g></g></svg>