<?xml version="1.0" encoding="UTF-8" standalone="no"?>
<svg
   xmlns:dc="http://purl.org/dc/elements/1.1/"
   xmlns:cc="http://creativecommons.org/ns#"
   xmlns:rdf="http://www.w3.org/1999/02/22-rdf-syntax-ns#"
   xmlns:svg="http://www.w3.org/2000/svg"
   xmlns="http://www.w3.org/2000/svg"
   viewBox="0 0 2666.6667 2666.6667"
   height="2666.6667"
   width="2666.6667"
   xml:space="preserve"
   id="svg2"
   version="1.1"><metadata
     id="metadata8"><rdf:RDF><cc:Work
         rdf:about=""><dc:format>image/svg+xml</dc:format><dc:type
           rdf:resource="http://purl.org/dc/dcmitype/StillImage" /></cc:Work></rdf:RDF></metadata><defs
     id="defs6" /><g
     transform="matrix(1.3333333,0,0,-1.3333333,0,2666.6667)"
     id="g10"><g
       transform="scale(0.1)"
       id="g12"><g
         transform="scale(1.22699)"
         id="g14"><path
           id="path16"
           style="fill:none;fill-opacity:1;fill-rule:nonzero;stroke:none"
           d="M 16300,0 H 0 V 16300 H 16300 V 0" /></g><path
         id="path18"
         style="fill:#2f1d16;fill-opacity:1;fill-rule:nonzero;stroke:none"
         d="m 13849.8,14998.9 c 0,0 -187.7,-307.6 -236.7,-561.1 -49,-253.5 -43.8,-570.2 -27.5,-581.1 16.4,-10.8 255.2,-86.1 315.8,-14.9 60.6,71.2 210.9,616.1 210.9,616.1 l -262.5,541" /><path
         id="path20"
         style="fill:#e9eef1;fill-opacity:1;fill-rule:nonzero;stroke:none"
         d="m 13784.6,15007.7 c 0,0 -48.4,-171.1 4.4,-257.2 52.8,-86 177.8,-143.4 177.8,-143.4 0,0 12.9,178.5 16,190.5 3.1,12.1 -137.7,169.7 -137.7,169.7 l -60.5,40.4" /><g
         transform="scale(1.09234)"
         id="g22"><path
           id="path24"
           style="fill:#9c9c9b;fill-opacity:1;fill-rule:nonzero;stroke:none"
           d="m 15721.6,9291.95 c 11.4,-5.86 487.8,23.49 487.8,23.49 0,0 90.6,-72.98 13.4,-160.2 l -577.1,-37.27 75.9,173.98" /></g><g
         transform="scale(1.06549)"
         id="g26"><path
           id="path28"
           style="fill:#3c3c3d;fill-opacity:1;fill-rule:nonzero;stroke:none"
           d="m 16300,9347.71 c 0,346.51 -165.4,646.9 -406.9,794.99 -19.9,14 -40.8,25.7 -63.2,34.3 -63.5,30.4 -131.3,50.7 -202.1,59.2 -214.9,43.1 -348,4.6 -348,4.6 l -82.6,-63.8 c 0,0 -2,-16.5 -5.6,-46.3 -231.4,-151.87 -388.2,-445.55 -388.2,-782.99 0,-328.58 148.8,-615.68 370.3,-770.82 22.1,-64.1 52.4,-105.3 92.8,-113.75 282.4,-59.41 465,17.55 465,17.55 v 0 c 326.5,96.2 568.5,447.87 568.5,867.02" /></g><g
         transform="scale(1.05358)"
         id="g30"><path
           id="path32"
           style="fill:#6b6c6e;fill-opacity:1;fill-rule:nonzero;stroke:none"
           d="m 16300,9453.42 c 0,-498.78 -338.8,-903.12 -756.8,-903.12 -418,0 -756.7,404.34 -756.7,903.12 0,498.83 338.7,903.18 756.7,903.18 418,0 756.8,-404.35 756.8,-903.18" /></g><g
         transform="scale(1.01454)"
         id="g34"><path
           id="path36"
           style="fill:#dfdfdd;fill-opacity:1;fill-rule:nonzero;stroke:none"
           d="m 16300,9823.27 c 0,-149.82 -112.8,-271.26 -251.9,-271.26 -139.2,0 -252,121.44 -252,271.26 0,149.81 112.8,271.23 252,271.23 139.1,0 251.9,-121.42 251.9,-271.23" /></g><path
         id="path38"
         style="fill:#b8623c;fill-opacity:1;fill-rule:nonzero;stroke:none"
         d="m 15661.1,10401.4 c 0,0 -12.8,-49.1 -9.1,-69.2 3.6,-20.1 60.4,-86 84.3,-87.9 23.8,-1.8 29.3,-1.8 42.1,0 12.8,1.9 49.5,-6.4 77,-1.4 27.5,5.1 7.3,3.3 27.5,5.1 20.1,1.8 69.6,-15.2 142.9,-6.7 73.3,8.5 73.3,8.5 73.3,8.5 0,0 44,-12.8 86.1,7.3 42.2,20.2 55.7,75.1 55.7,75.1 0,0 43.3,51.4 -127.2,104.5 -170.4,53.2 -399.4,45.8 -426.9,42.2 -27.5,-3.7 -25.7,-77.5 -25.7,-77.5" /><path
         id="path40"
         style="fill:#201e1d;fill-opacity:1;fill-rule:nonzero;stroke:none"
         d="m 13280.8,5504.8 c -44,-24.8 -225.4,-101.7 -274.8,-178.7 -49.5,-76.9 -115.5,-621.2 -82.5,-654.2 33,-32.9 219.9,-11 313.3,-38.4 93.5,-27.5 527.8,-11 742.2,0 214.4,11 230.9,164.9 170.4,252.8 -60.5,88 -276,175.9 -341.4,236.4 -65.4,60.5 -193.7,350 -294.5,392.1 -100.7,42.2 -232.7,-10 -232.7,-10" /><g
         transform="scale(1.00915)"
         id="g42"><path
           id="path44"
           style="fill:#9c9c9b;fill-opacity:1;fill-rule:nonzero;stroke:none"
           d="m 16160.2,9926.3 c -3.7,-5.45 -722.7,-16.34 -722.7,-16.34 0,0 -21.8,343.14 23.6,374.04 45.4,30.9 227,58.1 227,58.1 l 167,-14.5 c 0,0 192.5,-29.1 252.4,-103.5 59.9,-74.4 56.2,-292.35 52.7,-297.8 z m 103.4,366.8 c -21.8,61.7 -39.9,103.5 -112.5,125.3 -72.7,21.8 -150.8,18.1 -150.8,18.1 l -125.2,-3.6 -185.2,29.1 h -152.5 l -119.9,-9.1 c 0,0 -72.7,-18.2 -90.8,-85.4 -18.1,-67.1 -29,-433.94 -29,-433.94 0,0 -45.4,-2.74 -56.3,-40.36 -10.9,-37.75 0,-161.22 0,-161.22 l 361.3,-27.25 681,125.35 16.3,98.03 c 0,0 -14.6,303.29 -36.4,364.99" /></g><g
         transform="scale(1.01274)"
         id="g46"><path
           id="path48"
           style="fill:#201e1d;fill-opacity:1;fill-rule:nonzero;stroke:none"
           d="m 15089.5,5655.34 c 0,0 -195.4,-83.34 -195.4,-193.63 0,-110.3 -75.9,-463.2 -48.9,-495.69 27.2,-32.58 423.4,37.92 510.3,0 86.9,-38.01 390.9,-108.61 635.1,-81.46 244.2,27.15 309.4,195.41 271.4,266.01 -37.9,70.5 -222.6,92.23 -396.3,189.98 -173.7,97.65 -244.2,233.42 -358.2,314.79 -113.9,81.46 -180.9,68.72 -180.9,68.72 0,0 -85.1,50.66 -106.7,34.46 -21.8,-16.29 -130.4,-103.18 -130.4,-103.18" /></g><path
         id="path50"
         style="fill:#b8623c;fill-opacity:1;fill-rule:nonzero;stroke:none"
         d="m 14319.8,9344.6 c 0,0 245.6,-1246 307.8,-1400 62.4,-153.9 62.4,-153.9 62.4,-153.9 0,0 -29.4,-502.1 62.3,-806.3 91.6,-304.1 381.1,-938.2 403.1,-1073.7 22,-135.7 40.3,-403.2 40.3,-403.2 0,0 102.6,-22 157.6,58.7 55,80.6 40.3,124.6 84.3,164.9 44,40.3 84.3,65.9 84.3,65.9 0,0 -141.1,557.1 -130.1,969.4 11,412.3 -137.5,940 -143,1039 -5.5,98.9 203.4,1643.7 176,1962.5 -27.5,318.8 -1132.5,323.1 -1138,235.8 -5.5,-87.4 33,-659.1 33,-659.1" /><path
         id="path52"
         style="fill:#a45532;fill-opacity:1;fill-rule:nonzero;stroke:none"
         d="m 14798.3,9660.4 c 0,0 -121.2,-46.4 -203.6,-128.9 -82.5,-82.4 -179.4,-615.7 -179.4,-615.7 0,0 -45,176.1 -50.5,203.6 -5.5,27.5 -194.1,221.1 -55.8,393.6 138.3,172.4 157.6,248.9 227,232.9 69.4,-16 262.3,-85.5 262.3,-85.5" /><path
         id="path54"
         style="fill:#c37140;fill-opacity:1;fill-rule:nonzero;stroke:none"
         d="m 13405.7,9395.9 c 0,0 41.9,-938.2 -60.7,-1297.3 -102.7,-359.2 -240.1,-590.1 -262.1,-1079.3 -22,-489.3 86.1,-1412.8 86.1,-1493.5 0,-80.6 -40.3,-252.8 -18.3,-256.5 22,-3.7 79.1,7.3 96.4,25.7 17.2,18.3 90.5,128.2 119.8,153.9 29.4,25.6 146.6,65.9 146.6,65.9 0,0 -47.6,417.8 88,824.6 135.6,406.8 146.6,1059.2 183.2,1158.1 36.7,99 113.6,260.2 121,322.5 7.3,62.3 300.5,718.3 421.4,1128.8 121,410.5 208.9,742.1 208.9,742.1 l -1121.9,-69.5 -8.4,-225.5" /><path
         id="path56"
         style="fill:#201e1d;fill-opacity:1;fill-rule:nonzero;stroke:none"
         d="m 13913,11637 c -5.5,-22 -140.2,-230.9 -140.2,-230.9 0,0 -233.7,-274.9 -307.9,-593.7 -74.1,-318.9 -57.6,-1121.5 -57.6,-1121.5 0,0 2012,60.5 2017.5,77 5.5,16.5 -285.9,1539.2 -285.9,1539.2 l -956.5,329.9 H 13913" /><path
         id="path58"
         style="fill:#100f0d;fill-opacity:1;fill-rule:nonzero;stroke:none"
         d="m 14875,10499 -104.4,-98.9 -197.9,-599.2 h 225.4 c 0,0 22,549.7 32.9,566.2 11,16.5 44,131.9 44,131.9" /><path
         id="path60"
         style="fill:#b8623c;fill-opacity:1;fill-rule:nonzero;stroke:none"
         d="m 15177.4,12686.9 c 0,0 204.1,-511.2 217.5,-560.7 13.4,-49.5 150.8,-214.4 255.2,-555.2 104.5,-340.8 241.9,-670.7 241.9,-670.7 l -230.9,-87.9 c 0,0 -503.9,654.1 -601,912.5 -97.1,258.4 -157.6,896.1 -157.6,896.1 0,0 33.5,285.8 85.4,269.3 52,-16.5 189.5,-203.4 189.5,-203.4" /><path
         id="path62"
         style="fill:#c37140;fill-opacity:1;fill-rule:nonzero;stroke:none"
         d="m 13693.1,12230.7 c 0,0 148.4,-340.9 159.4,-439.8 11,-99 -79.7,-384.8 -79.7,-384.8 0,0 217.2,-77 678.9,-126.5 461.8,-49.4 687.2,27.5 687.2,27.5 0,0 -115.4,582.7 -60.5,1050 55,467.3 -483.7,692.7 -819.1,533.2 -335.3,-159.4 -566.2,-659.6 -566.2,-659.6" /><path
         id="path64"
         style="fill:#b8623c;fill-opacity:1;fill-rule:nonzero;stroke:none"
         d="m 14569,13852.4 47.7,106.2 c 0,0 164.9,-18.3 285.8,-135.6 121,-117.2 157.6,-546 157.6,-546 0,0 -249.2,14.6 -326.2,161.2 -76.9,146.6 -164.9,414.2 -164.9,414.2" /><path
         id="path66"
         style="fill:#e9eef1;fill-opacity:1;fill-rule:nonzero;stroke:none"
         d="m 13693.1,14101.6 -159.8,-84.2 -93.1,-1303 252.9,-483.7 c 0,0 351.8,115.4 742.1,126.4 390.4,11 643.2,0 643.2,0 l 73.3,238.2 c 0,0 263.9,150.3 241.9,458.1 -22,307.9 -388.5,575.4 -421.5,597.4 -32.9,22 -340.8,296.8 -355.4,307.8 -14.7,11 -183.3,102.7 -183.3,102.7 l -740.3,40.3" /><path
         id="path68"
         style="fill:#c37140;fill-opacity:1;fill-rule:nonzero;stroke:none"
         d="m 13927.7,14602.7 c 0,0 3.6,-66 -77,-248.8 -80.6,-182.7 -157.6,-252.3 -157.6,-252.3 0,0 148.8,-91.7 461.1,-337.2 312.2,-245.5 535.8,-399.5 642,-406.8 106.3,-7.3 216.3,55 186.9,150.3 -29.3,95.2 -538.7,513 -549.7,553.4 -11,40.3 33.1,229.1 33.1,229.1 l -312.3,617.4 -178.9,44.7 c 0,0 -64.9,-43.7 -66,-99.6 -1.1,-56 18.4,-250.2 18.4,-250.2" /><path
         id="path70"
         style="fill:#c37140;fill-opacity:1;fill-rule:nonzero;stroke:none"
         d="m 13563.8,14033.5 c 0,0 261.2,-107.9 356.5,-382.7 95.3,-274.9 54.3,-571.7 -49.8,-674.3 -104.1,-102.7 -306.7,-154 -306.7,-154 0,0 -145.5,-842.9 -149.2,-853.9 -3.7,-11 55,-227.2 51.3,-579 -3.7,-351.8 0,-707.3 0,-707.3 l -252.9,-29.4 c 0,0 -153.9,597.4 -205.2,854 -51.3,256.5 -22,542.4 -22,542.4 0,0 18.3,546 36.7,806.2 18.3,260.2 47.6,362.8 47.6,362.8 0,0 22,388.5 153.9,546.1 132,157.6 339.8,269.1 339.8,269.1" /><path
         id="path72"
         style="fill:#a45532;fill-opacity:1;fill-rule:nonzero;stroke:none"
         d="m 13792.1,13225.7 -117.3,-117.3 -111,-285.9 114.1,38.4 c 0,0 29.9,203.5 37.2,218.2 7.3,14.6 77,146.6 77,146.6" /><g
         transform="scale(1.01994)"
         id="g74"><path
           id="path76"
           style="fill:#9c9c9b;fill-opacity:1;fill-rule:nonzero;stroke:none"
           d="m 13385.9,9934.46 c 0,0 50.3,-28.74 79,-100.6 28.9,-71.9 18.1,-269.46 18.1,-269.46 l -398.9,-32.36 106.1,-154.52 c 0,0 1999.4,143.74 2049.8,143.74 50.3,0 952.1,71.87 1006.1,134.71 53.9,62.85 -25.1,124.03 -118.6,167.1 l -122.1,-25.13 -14.4,-61.08 c 0,0 -905.5,-89.81 -1236.1,-100.59 -330.6,-10.79 -1054.1,-43.14 -1054.1,-43.14 0,0 -2.3,294.62 -70.6,388.05 -68.2,93.42 -244.3,125.72 -244.3,125.72 0,0 0.8,65.4 -115,71.9 -115.7,6.5 -158.1,53.9 -147.3,-21.6 10.8,-75.4 27.1,-64.9 25.7,-107.8 -1.4,-42.8 24.8,-122.13 40.9,-132.9 16.1,-10.78 195.7,17.96 195.7,17.96" /></g><path
         id="path78"
         style="fill:#b8623c;fill-opacity:1;fill-rule:nonzero;stroke:none"
         d="m 15661.1,10812.4 c 0,0 7.4,-40.3 18.4,-91.6 10.9,-51.4 0,-163.1 0,-163.1 h 139.2 c 0,0 14.7,-111.8 12.9,-121 -1.9,-9.1 -102.5,-49.4 -85.2,-82.4 17.4,-33 259.2,-25.7 273.9,0 14.7,25.6 0,174 0,174 l 126.4,3.7 c 0,0 31.2,66 -40.3,142.9 -71.4,77 -214.4,225.4 -214.4,225.4 0,0 -115.4,45.8 -152.1,22 -36.6,-23.8 -78.8,-109.9 -78.8,-109.9" /><path
         id="path80"
         style="fill:#f7f7f7;fill-opacity:1;fill-rule:nonzero;stroke:none"
         d="m 13511.4,5866 c -135.3,-10.2 -265.7,-17.4 -369.9,-22.2 15.4,-168.7 27.5,-290.9 27.5,-318 0,-80.6 -40.3,-252.8 -18.3,-256.5 22,-3.7 79.1,7.3 96.4,25.7 17.2,18.3 90.5,128.2 119.8,153.9 29.4,25.6 146.6,65.9 146.6,65.9 0,0 -16.7,146.9 -2.1,351.2" /><path
         id="path82"
         style="fill:#f7f7f7;fill-opacity:1;fill-rule:nonzero;stroke:none"
         d="m 15118.3,6032.8 c 19.6,-54.4 33,-96.9 37.1,-122.1 22,-135.7 40.3,-403.2 40.3,-403.2 0,0 102.6,-22 157.6,58.7 55,80.6 40.3,124.6 84.3,164.9 44,40.3 84.3,65.9 84.3,65.9 0,0 -33.8,133.2 -66.9,317.5 -130.8,-34.5 -256.1,-63.6 -336.7,-81.7" /><path
         id="path84"
         style="fill:#c37140;fill-opacity:1;fill-rule:nonzero;stroke:none"
         d="m 13213,10652.9 c 0,0 18.3,-388.4 25.7,-421.4 7.3,-33 124.6,-208.9 175.9,-216.2 51.3,-7.4 153.9,-22 168.6,0 14.6,22 69.6,117.2 69.6,117.2 0,0 -170.9,11 -177.1,22 -6.1,11 -26.8,132 0,157.6 l 177.1,-3.7 c 0,0 44,11 40.3,47.7 -3.6,36.6 -98.9,95.3 -150.2,153.9 -51.3,58.7 -77,172.3 -77,172.3 l -252.9,-29.4" /><path
         id="path86"
         style="fill:#3c3c3d;fill-opacity:1;fill-rule:nonzero;stroke:none"
         d="m 13548.1,9519.6 c 0,427.8 -185.6,799.4 -458.3,987.4 -25.6,20.6 -53.6,37.7 -84.1,50.7 -77.8,40.3 -161.2,66.4 -248.3,75.8 -343.2,66.1 -596.4,-39.7 -596.4,-39.7 l -51.1,-94.8 c 0,0 -8.5,-63.7 -20,-168.8 -165.6,-203.7 -268.8,-491.5 -268.8,-810.6 0,-310.1 97.5,-590.7 255,-793.2 35.3,-165.2 93.1,-282.1 183.6,-309.8 433.7,-133 746,64.9 746,64.9 v 0.1 c 317.9,164.9 542.4,567.5 542.4,1038" /><path
         id="path88"
         style="fill:#898b8b;fill-opacity:1;fill-rule:nonzero;stroke:none"
         d="m 13264.3,9519.6 c 0,-617.4 -386.6,-1117.9 -863.5,-1117.9 -476.9,0 -863.5,500.5 -863.5,1117.9 0,617.4 386.6,1117.9 863.5,1117.9 476.9,0 863.5,-500.5 863.5,-1117.9" /><path
         id="path90"
         style="fill:#6b6c6e;fill-opacity:1;fill-rule:nonzero;stroke:none"
         d="m 13264.3,9519.6 c 0,-573.3 -359,-1038.1 -801.8,-1038.1 -442.9,0 -801.8,464.8 -801.8,1038.1 0,573.3 358.9,1038.1 801.8,1038.1 442.8,0 801.8,-464.8 801.8,-1038.1" /><path
         id="path92"
         style="fill:#dfdfdd;fill-opacity:1;fill-rule:nonzero;stroke:none"
         d="m 12656,9531.5 c 0,-103.2 -76.3,-186.9 -170.4,-186.9 -94.2,0 -170.5,83.7 -170.5,186.9 0,103.2 76.3,186.9 170.5,186.9 94.1,0 170.4,-83.7 170.4,-186.9" /><path
         id="path94"
         style="fill:#9c9c9b;fill-opacity:1;fill-rule:nonzero;stroke:none"
         d="m 10812.6,9450.9 29.3,-168.6 1645.5,168.6 c 0,0 71.1,95.3 -24.9,161.2 l -1649.9,-161.2" /><path
         id="path96"
         style="fill:#dfdfdd;fill-opacity:1;fill-rule:nonzero;stroke:none"
         d="m 10900.5,9365.5 c 0,-48 -32.6,-86.9 -72.8,-86.9 -40.2,0 -72.8,38.9 -72.8,86.9 0,48 32.6,86.9 72.8,86.9 40.2,0 72.8,-38.9 72.8,-86.9" /><path
         id="path98"
         style="fill:#a45532;fill-opacity:1;fill-rule:nonzero;stroke:none"
         d="m 13970.4,14668.9 c 0,0 55.2,-164.7 96.2,-225.7 41.1,-61.1 238,-199 301.2,-211.3 63.3,-12.4 82.7,-16.6 82.7,-16.6 l 108.1,376.4 -231.2,150.6 -357,-73.4" /><path
         id="path100"
         style="fill:#2f1d16;fill-opacity:1;fill-rule:nonzero;stroke:none"
         d="m 14688.5,15225.1 c 10.8,-8.1 94.8,-105.7 94.8,-105.7 0,0 37.9,204.9 -17.9,396.6 -55.7,191.8 -222.2,330.1 -532.4,310 -310.2,-20.1 -439.2,-183.9 -504.7,-345.4 -65.5,-161.5 8.9,-464 19.4,-509.9 10.6,-45.9 132.2,-227.1 132.2,-227.1 l 575.3,174.2 233.3,307.3" /><path
         id="path102"
         style="fill:#c37140;fill-opacity:1;fill-rule:nonzero;stroke:none"
         d="m 13952.9,14965.3 c 0,0 -57.4,39.8 -111.3,29.3 -54,-10.6 -36.5,-107.7 -1.1,-215.8 35.5,-108 132.6,-101.3 132.6,-101.3 0,0 39.1,-86.5 67.7,-136.9 28.5,-50.5 255.1,-219.7 311.7,-233.4 56.5,-13.8 132,-14.2 180.6,-0.9 48.6,13.2 188.3,171 232.2,324.5 43.9,153.5 23.8,370 19.6,438.4 -4.2,68.3 3.6,195.9 -33.6,298.6 -37.3,102.6 -139.5,170.5 -312,171.4 -172.6,0.8 -305.2,-82.2 -373.2,-219.4 -68.1,-137.2 -57.4,-335 -113.2,-354.5" /><path
         id="path104"
         style="fill:#2f1d16;fill-opacity:1;fill-rule:nonzero;stroke:none"
         d="m 13952.9,14965.3 27.8,-47.8 c 0,0 -11.4,82.7 43.4,120.7 54.8,38.1 76.8,146.3 45.7,247.3 -31.2,101 208.5,233.1 208.5,233.1 0,0 -206.3,56.3 -271.7,-11.8 -65.3,-68.1 -178.4,-90.9 -154.6,-214.6 23.8,-123.8 100.9,-326.9 100.9,-326.9" /><path
         id="path106"
         style="fill:#2f1d16;fill-opacity:1;fill-rule:nonzero;stroke:none"
         d="m 7018.5,10897.5 c 0,0 -295.68,-205.9 -442.7,-418.1 -147.03,-212.3 -269.87,-504.3 -259.31,-520.8 10.55,-16.5 198.79,-181.6 282.94,-140.9 84.15,40.8 441.37,478.9 441.37,478.9 l -22.3,600.9" /><path
         id="path108"
         style="fill:#9c9c9b;fill-opacity:1;fill-rule:nonzero;stroke:none"
         d="m 8760.25,5952 718.3,79.6 c 0,0 69.64,84.3 -18.32,164.9 l -868.56,-79.8 168.58,-164.7" /><path
         id="path110"
         style="fill:#3c3c3d;fill-opacity:1;fill-rule:nonzero;stroke:none"
         d="m 9103.44,5943.4 c 0,380.3 -181.47,710 -446.71,872.5 -21.66,15.5 -44.71,28.3 -69.35,37.7 -69.71,33.4 -144.12,55.7 -221.75,65 -235.9,47.3 -382.02,5.1 -382.02,5.1 L 7893,6853.6 c 0,0 -2.34,-18.1 -6.23,-50.8 -253.97,-166.7 -426.09,-489.1 -426.09,-859.4 0,-360.8 163.28,-675.9 406.43,-846.2 24.35,-70.4 57.54,-115.5 101.85,-124.9 310.05,-65.2 510.54,19.4 510.54,19.4 v 0 c 358.26,105.5 623.94,491.5 623.94,951.7" /><path
         id="path112"
         style="fill:#6b6c6e;fill-opacity:1;fill-rule:nonzero;stroke:none"
         d="m 8903.36,5943.4 c 0,-541.4 -367.75,-980.3 -821.38,-980.3 -453.64,0 -821.38,438.9 -821.38,980.3 0,541.4 367.74,980.3 821.38,980.3 453.63,0 821.38,-438.9 821.38,-980.3" /><path
         id="path114"
         style="fill:#dfdfdd;fill-opacity:1;fill-rule:nonzero;stroke:none"
         d="m 8298.48,5946.4 c 0,-165.5 -108.75,-299.6 -242.9,-299.6 -134.16,0 -242.91,134.1 -242.91,299.6 0,165.5 108.75,299.6 242.91,299.6 134.15,0 242.9,-134.1 242.9,-299.6" /><path
         id="path116"
         style="fill:#7e7f81;fill-opacity:1;fill-rule:nonzero;stroke:none"
         d="m 7084.2,6008.7 c 18.82,-2.8 1031.03,0 1031.03,0 l -39.36,-187.2 c 0,0 -1012.44,120.5 -1012.44,130.5 0,10 20.77,56.7 20.77,56.7" /><path
         id="path118"
         style="fill:#9c9c9b;fill-opacity:1;fill-rule:nonzero;stroke:none"
         d="m 7286.98,6284.5 c 43.98,3.6 625.48,7.3 675.56,0 50.08,-7.4 61.08,-58.7 75.74,-154 14.65,-95.2 0,-293.1 0,-293.1 0,0 135.6,-62.4 135.6,-29.4 0,33 18.32,337.2 0,438 -18.33,100.8 -87.96,141.1 -179.58,166.7 -91.62,25.7 -743.96,22 -743.96,22 l 36.64,-150.2" /><path
         id="path120"
         style="fill:#201e1d;fill-opacity:1;fill-rule:nonzero;stroke:none"
         d="m 6771.04,5721.9 c 0,0 -184.58,5.5 -245.7,-49.5 -61.11,-54.9 -143.57,-633.5 -105.09,-665.8 38.48,-32.3 450.78,37.8 522.24,0 71.47,-37.8 505.75,-76.3 709.15,-48.8 203.39,27.5 164.91,252.9 142.93,307.8 -22,55 -610.2,335.4 -621.2,357.4 -10.99,22 -10.99,137.4 -120.93,170.4 -109.95,33 -281.4,-71.5 -281.4,-71.5" /><path
         id="path122"
         style="fill:#201e1d;fill-opacity:1;fill-rule:nonzero;stroke:none"
         d="m 5106.41,5403.1 c -3.67,45.8 159.42,-296.9 285.86,-373.8 126.43,-77 208.89,-82.5 241.87,-143 32.99,-60.4 49.48,-214.4 -76.96,-263.8 -126.43,-49.5 -690.21,27.4 -690.21,27.4 l -117.71,544.3 357.15,208.9" /><path
         id="path124"
         style="fill:#9c9c9b;fill-opacity:1;fill-rule:nonzero;stroke:none"
         d="m 5069.76,5712.7 c 10.99,0 791.6,172.3 857.57,183.3 65.97,11 1128.79,5.1 1185.59,-6.6 56.79,-11.7 918.03,-103.4 918.03,-103.4 l 142.93,55 c 0,0 -1147.1,179.6 -1227.72,186.9 -80.63,7.4 -989.51,33 -1029.82,25.7 -40.32,-7.4 -773.28,-169.8 -773.28,-169.8 0,0 -297.67,48.4 -312.43,0 -14.77,-48.4 -164,-130.7 -17.41,-171.1 146.59,-40.3 256.54,0 256.54,0" /><path
         id="path126"
         style="fill:#b8623c;fill-opacity:1;fill-rule:nonzero;stroke:none"
         d="m 7748.52,6941 28.33,-242.4 c 0,0 97.73,-141.7 109.95,-163.7 12.21,-22 24.29,-111.9 24.29,-111.9 l -81.29,4.4 c 0,0 -23.66,-66.3 -30.96,-102.6 -7.3,-36.3 -12.68,-59.9 -50.32,-78.8 -37.64,-18.9 -151.24,-12.8 -159.19,0 -7.94,12.8 18.94,54.3 28.71,61.7 9.77,7.3 39.09,19.5 41.54,26.9 2.44,7.3 -53.75,98.5 -53.75,98.5 l -155.56,1.5 298.25,506.4" /><path
         id="path128"
         style="fill:#b8623c;fill-opacity:1;fill-rule:nonzero;stroke:none"
         d="m 7383.55,9923.6 c 0,0 191.12,-89.7 268.09,-282.1 76.96,-192.4 -5.5,-533.3 0,-610.2 5.49,-77 -5.5,-417.8 5.49,-714.7 11,-296.8 27.52,-434.3 27.52,-434.3 l -352.17,124.6 c 0,0 -49.35,636.8 -87.64,869 -38.3,232.2 -43.98,852.1 -38.48,905 5.5,53 177.19,142.7 177.19,142.7" /><path
         id="path130"
         style="fill:#c37140;fill-opacity:1;fill-rule:nonzero;stroke:none"
         d="m 6334.13,8263.5 c 0,0 558.88,-20.2 998.66,-156.7 439.78,-136.5 588.21,-312.4 615.7,-383.9 27.48,-71.5 27.48,-324.3 -120.94,-632.2 -148.43,-307.8 -775.11,-1297.3 -775.11,-1297.3 0,0 -131.94,-22 -164.93,-93.5 -32.97,-71.4 -104.44,-142.9 -159.41,-148.4 -54.97,-5.5 -115.44,33 -115.44,33 0,0 214.39,412.3 280.35,808.1 65.97,395.8 258.38,698.1 395.81,885 0,0 -208.9,60.5 -384.81,60.5 -175.91,0 -560.72,-82.5 -797.1,-55 -236.39,27.5 -551.56,357.3 -525.91,412.3 25.66,55 82.2,299.2 170.51,342.4 88.3,43.3 452.56,233.5 582.62,225.7" /><path
         id="path132"
         style="fill:#a45532;fill-opacity:1;fill-rule:nonzero;stroke:none"
         d="m 6333.68,7281.8 c -23.71,63.3 -46.83,142.8 -59.18,233.8 -31.95,235.5 -285.36,491.3 -285.36,491.3 l -50,122.8 c -83.3,-39.1 -154.68,-75.7 -187.63,-91.9 -88.31,-43.2 -144.85,-287.4 -170.51,-342.4 -25.65,-55 289.52,-384.8 525.91,-412.3 66.49,-7.7 144.74,-6.7 226.77,-1.3" /><path
         id="path134"
         style="fill:#201e1d;fill-opacity:1;fill-rule:nonzero;stroke:none"
         d="m 4915.98,8630 c -44.12,3.6 -172.39,25.6 -172.39,25.6 0,0 -351.83,-91.6 -516.74,-425.1 -164.92,-333.5 91.62,-725.6 91.62,-714.7 0,11 175.91,403.2 425.12,513.1 249.21,110 417.79,76.8 458.1,56.7 40.32,-20 234.55,-122.6 234.55,-122.6 0,0 498.42,-154 498.42,-132 0,22 216.22,304.2 399.47,432.5 l -223.56,87.9 -989.51,190.6 -205.08,88" /><path
         id="path136"
         style="fill:#c37140;fill-opacity:1;fill-rule:nonzero;stroke:none"
         d="m 4318.47,7515.8 c 0,0 106.28,-120.9 296.85,-216.2 190.57,-95.3 809.93,-76.9 809.93,-76.9 0,0 -113.61,-117.3 -208.9,-260.2 -95.29,-143 -443.44,-1242.4 -436.12,-1257.1 7.33,-14.6 51.31,-355.5 51.31,-355.5 l 271.2,99 c 0,0 -58.63,186.9 175.91,450.8 234.55,263.8 458.11,582.7 597.37,828.2 139.27,245.5 219.89,388.5 293.19,538.7 73.29,150.3 18.11,324.4 -87.96,476.5 -106.06,152 -527.73,333.5 -527.73,333.5 l -498.24,29.5 c 0,0 -524.25,43.8 -736.81,-590.3" /><path
         id="path138"
         style="fill:#b8623c;fill-opacity:1;fill-rule:nonzero;stroke:none"
         d="m 5487.55,9165 -84.29,-18.3 c 0,0 -128.27,-223.6 -208.89,-289.5 -80.63,-66 -450.78,-201.6 -450.78,-201.6 0,0 194.23,-249.2 439.78,-428.8 245.54,-179.6 505.75,-219.9 505.75,-219.9 0,0 205.23,102.7 395.8,190.6 190.57,88 333.5,205.2 333.5,205.2 l -379.23,510.1 -551.64,252.2" /><path
         id="path140"
         style="fill:#a45532;fill-opacity:1;fill-rule:nonzero;stroke:none"
         d="m 5317.52,7099.2 -56.96,-511.7 c 0,0 14.69,-180.7 45.52,-267.6 30.82,-87 -23.76,-244.3 -23.76,-244.3 0,0 -208.14,72.7 -173.7,120.9 34.44,48.2 38.05,764.7 48.92,781.1 10.87,16.3 159.98,121.6 159.98,121.6" /><path
         id="path142"
         style="fill:#e9eef1;fill-opacity:1;fill-rule:nonzero;stroke:none"
         d="m 6755.58,10154.5 c -43.97,18.4 -135.59,77 -135.59,77 l -212.57,-60.8 c 0,0 -869.29,-690.5 -876.62,-701.5 -7.33,-11 -127.54,-322.5 -127.54,-322.5 0,0 351.82,-498.4 557.05,-608.4 205.23,-109.9 443.45,-139.2 458.11,-135.6 14.66,3.7 161.25,73.3 179.57,80.7 18.33,7.3 95.29,18.3 95.29,18.3 0,0 134.32,-110 347.52,-14.7 213.2,95.3 269.12,384.8 316.29,601.1 47.17,216.2 35.08,824.5 26.46,835.5 -8.61,11 -243.16,182.7 -243.16,182.7 l -384.81,48.2" /><path
         id="path144"
         style="fill:#a45532;fill-opacity:1;fill-rule:nonzero;stroke:none"
         d="m 5689.12,8006.9 c 0,0 -108.12,-127.5 -108.12,-219.5 0,-92 -226.28,-555.8 -226.28,-555.8 l -429.93,4.4 c 0,0 -11.84,301.4 26.21,491.6 38.04,190.3 104.28,378.5 104.28,378.5 l 238.98,-14.2 394.86,-85" /><path
         id="path146"
         style="fill:#3970c0;fill-opacity:1;fill-rule:nonzero;stroke:none"
         d="m 6842.94,11389.2 c 0,0 9.93,180.9 233.16,200.8 223.24,19.8 -44.75,-234.9 -44.75,-234.9 l -188.41,34.1" /><path
         id="path148"
         style="fill:#c37140;fill-opacity:1;fill-rule:nonzero;stroke:none"
         d="m 7100.08,10685.9 c -11,-7.3 -154.56,-64.2 -150.42,-96 4.15,-31.8 -22.34,-161.4 -22.34,-161.4 0,0 -36.14,-79.7 -116.76,-123.7 -80.63,-44 -190.57,-73.3 -190.57,-73.3 0,0 130.01,-329.8 107.15,-604.7 -22.87,-274.9 39.44,-681.7 175.04,-740.3 135.59,-58.6 300.51,135.6 348.16,351.8 47.64,216.3 24,670.7 24,670.7 l 109.21,197.3 -283.47,579.6" /><path
         id="path150"
         style="fill:#a45532;fill-opacity:1;fill-rule:nonzero;stroke:none"
         d="m 7040.8,10528.1 c 0,0 54.78,-157.3 94.81,-215.4 40.02,-58.1 187.17,-195.3 247.94,-206.4 v 0 l 240.6,433 -241.72,63.2 -341.63,-74.4" /><path
         id="path152"
         style="fill:#c37140;fill-opacity:1;fill-rule:nonzero;stroke:none"
         d="m 6407.42,10170.7 c 0,0 106.29,-111.5 117.28,-434 10.99,-322.5 -120.94,-476.4 -249.21,-546 -128.27,-69.7 -161.25,-132 -161.25,-132 0,0 -216.23,-428.7 -377.48,-692.6 -161.25,-263.9 -183.24,-289.5 -183.24,-289.5 0,0 14.65,-208.9 -113.61,-575.4 -128.27,-366.5 -245.54,-897.9 -245.54,-897.9 l -274.87,29.3 c 0,0 -21.99,648.7 43.98,930.9 65.96,282.2 139.26,560.7 157.58,623 18.33,62.3 344.5,839.3 388.48,912.6 43.98,73.3 62.3,106.2 62.3,106.2 0,0 -51.31,66 -65.97,168.6 -14.65,102.6 69.64,318.9 318.85,531.4 249.21,212.6 582.7,265.4 582.7,265.4" /><path
         id="path154"
         style="fill:#a45532;fill-opacity:1;fill-rule:nonzero;stroke:none"
         d="m 5720.66,9641.5 c 0,0 24.22,-154 0,-208.9 -24.21,-55 -148.82,-227.3 -148.82,-227.3 l -41.04,76 c 0,0 132.66,158.6 139.99,176.9 7.33,18.3 49.87,183.3 49.87,183.3" /><path
         id="path156"
         style="fill:#f7f7f7;fill-opacity:1;fill-rule:nonzero;stroke:none"
         d="m 5354.72,5987.6 h -491.69 c -50.83,-160.9 -85.15,-277.5 -82.8,-282.2 7.34,-14.6 51.31,-355.5 51.31,-355.5 l 271.2,99 c 0,0 -58.63,186.9 175.92,450.8 25.51,28.7 50.9,58.1 76.06,87.9" /><path
         id="path158"
         style="fill:#9c9c9b;fill-opacity:1;fill-rule:nonzero;stroke:none"
         d="m 5059.99,5965.6 c 7.32,-9.8 200.57,-41.5 200.57,-41.5 0,0 104.83,-66 124.37,-134.4 19.55,-68.4 0,-290.7 0,-290.7 l -517.96,-12.3 107.5,-151.4 c 0,0 1861.74,-25.7 1953.36,-14.7 91.62,11 1312.01,241.9 1337.67,289.5 25.65,47.7 -91.62,230.9 -91.62,230.9 l -142.93,-55 c 0,0 91.62,-69.6 69.63,-73.3 -21.99,-3.6 -1125.11,-208.8 -1205.73,-216.2 -80.63,-7.3 -1341.33,0 -1341.33,0 0,0 7.32,252.9 -7.33,344.5 -14.66,91.6 -263.87,234.6 -263.87,234.6 0,0 -84.29,187.9 -139.26,169.1 -54.98,-18.9 -113.62,-33.5 -124.61,-84.8 -10.99,-51.3 41.54,-194.3 41.54,-194.3" /><path
         id="path160"
         style="fill:#f7f7f7;fill-opacity:1;fill-rule:nonzero;stroke:none"
         d="m 6771.29,5952 c -77.71,-211.9 -158.64,-367.5 -158.64,-367.5 0,0 60.48,-38.5 115.45,-33 54.97,5.5 126.43,77 159.41,148.4 32.99,71.5 164.92,93.5 164.92,93.5 0,0 36.31,57.3 93.42,148.5 -169.06,-8.6 -305.66,2.3 -374.56,10.1" /><path
         id="path162"
         style="fill:#b8623c;fill-opacity:1;fill-rule:nonzero;stroke:none"
         d="m 7495.88,6351.7 c 0,0 -27.7,-12.3 -45.61,-26.9 -17.92,-14.7 -14.66,-163.7 22.81,-171.1 37.46,-7.3 66.78,0 66.78,0 0,0 48.86,-31.7 85.51,-24.4 36.65,7.4 55.31,14.7 55.31,14.7 0,0 79.07,-2.5 96.17,2.4 17.11,4.9 64.86,1.3 113.06,19 48.19,17.7 119.58,56 116.86,74.5 -2.72,18.6 -4.87,42.4 -44.23,44.6 l -190.59,4 -124.59,14.3 c 0,0 -23.21,29.3 -58.03,48.9 -34.81,19.5 -56.8,0 -56.8,0 h -36.65" /><path
         id="path164"
         style="fill:#c37140;fill-opacity:1;fill-rule:nonzero;stroke:none"
         d="m 4919.5,6632.6 c 0,0 -8.55,-122.1 -28.1,-232.1 -19.54,-109.9 -112.39,-307.8 -114.83,-342 -2.44,-34.2 73.3,-224.8 119.72,-241.9 46.42,-17.1 151.48,14.6 163.7,0 12.21,-14.7 64.58,-14.7 109.94,-5.2 45.36,9.5 90.63,112.7 90.63,112.7 0,0 -139.5,58.6 -141.94,68.4 -2.44,9.8 -12.21,66 39.09,105.1 0,0 26.88,9.7 63.53,2.4 36.65,-7.3 61.08,-24.4 61.08,-24.4 0,0 26.87,114.8 0,173.4 -26.88,58.7 -58.64,124.6 -65.97,185.7 -7.33,61.1 -21.98,168.6 -21.98,168.6 0,0 -57.85,73.6 -75.75,80.6 -17.9,7 -199.12,-51.3 -199.12,-51.3" /><path
         id="path166"
         style="fill:#3c3c3d;fill-opacity:1;fill-rule:nonzero;stroke:none"
         d="m 5035.14,5343.1 c -7.94,427.7 -200.46,795.9 -476.58,978.7 -26.02,20.1 -54.3,36.7 -85.08,49.1 -78.53,38.9 -162.37,63.5 -249.58,71.3 -344.4,59.7 -595.61,-50.8 -595.61,-50.8 l -49.32,-95.7 c 0,0 -7.3,-63.9 -16.84,-169.2 -161.79,-206.7 -259.69,-496.4 -253.77,-815.4 5.75,-310.1 108.49,-588.8 269.74,-788.4 38.29,-164.5 98.3,-280.3 189.3,-306.3 436.03,-124.9 744.62,78.7 744.62,78.7 l 0.01,0.1 c 314.8,170.8 531.83,577.5 523.11,1047.9" /><path
         id="path168"
         style="fill:#898b8b;fill-opacity:1;fill-rule:nonzero;stroke:none"
         d="m 4751.37,5337.8 c 11.45,-617.3 -365.82,-1124.9 -842.65,-1133.7 -476.84,-8.9 -872.68,484.4 -884.13,1101.7 -11.45,617.3 365.82,1124.9 842.65,1133.8 476.84,8.8 872.67,-484.5 884.13,-1101.8" /><path
         id="path170"
         style="fill:#6b6c6e;fill-opacity:1;fill-rule:nonzero;stroke:none"
         d="M 4751.37,5337.8 C 4762,4764.6 4411.69,4293.3 3968.92,4285.1 c -442.77,-8.2 -810.32,449.8 -820.96,1023 -10.63,573.2 339.68,1044.5 782.45,1052.7 442.76,8.3 810.32,-449.8 820.96,-1023" /><path
         id="path172"
         style="fill:#dfdfdd;fill-opacity:1;fill-rule:nonzero;stroke:none"
         d="m 4142.89,5338.5 c 1.91,-103.3 -72.82,-188.3 -166.92,-190.1 -94.1,-1.7 -171.94,80.5 -173.86,183.7 -1.91,103.2 72.82,188.3 166.92,190.1 94.1,1.7 171.94,-80.5 173.86,-183.7" /><path
         id="path174"
         style="fill:#9c9c9b;fill-opacity:1;fill-rule:nonzero;stroke:none"
         d="m 2301.29,5223.6 32.44,-168 1642.1,199.1 c 0,0 69.37,96.6 -27.88,160.8 L 2301.29,5223.6" /><path
         id="path176"
         style="fill:#dfdfdd;fill-opacity:1;fill-rule:nonzero;stroke:none"
         d="m 2390.81,5139.9 c 0.89,-48 -30.98,-87.4 -71.17,-88.2 -40.2,-0.7 -73.51,37.5 -74.4,85.5 -0.89,48 30.98,87.5 71.18,88.2 40.2,0.8 73.5,-37.5 74.39,-85.5" /><path
         id="path178"
         style="fill:#e9eef1;fill-opacity:1;fill-rule:nonzero;stroke:none"
         d="m 6836.01,10883.3 c 0,0 -48.35,-171.2 4.43,-257.2 52.78,-86 99.56,-129.2 99.56,-129.2 0,0 91.08,164.2 94.19,176.3 3.12,12 -137.63,169.7 -137.63,169.7 l -60.55,40.4" /><path
         id="path180"
         style="fill:#2f1d16;fill-opacity:1;fill-rule:nonzero;stroke:none"
         d="m 7739.98,11100.7 c 10.75,-8.1 94.77,-105.7 94.77,-105.7 0,0 37.85,204.8 -17.87,396.6 -55.71,191.7 -222.25,330 -532.48,310 -310.22,-20.1 -439.18,-183.9 -504.67,-345.4 -65.5,-161.5 8.87,-464.1 19.44,-509.9 10.57,-45.9 132.18,-227.2 132.18,-227.2 l 575.24,174.3 233.39,307.3" /><path
         id="path182"
         style="fill:#c37140;fill-opacity:1;fill-rule:nonzero;stroke:none"
         d="m 7004.32,10840.8 c 0,0 -57.34,39.9 -111.33,29.3 -53.98,-10.5 -36.47,-107.7 -1.03,-215.7 35.44,-108 132.56,-101.3 132.56,-101.3 0,0 39.14,-86.5 67.66,-137 28.52,-50.5 255.14,-219.6 311.7,-233.4 56.57,-13.8 132.08,-14.1 180.69,-0.9 48.6,13.3 188.3,171 232.18,324.5 43.88,153.6 23.73,370.1 19.56,438.4 -4.17,68.4 3.64,196 -33.62,298.6 -37.27,102.7 -139.42,170.6 -312.01,171.4 -172.58,0.8 -305.12,-82.1 -373.2,-219.3 -68.08,-137.2 -57.34,-335.1 -113.16,-354.6" /><path
         id="path184"
         style="fill:#2f1d16;fill-opacity:1;fill-rule:nonzero;stroke:none"
         d="m 7004.32,10840.8 27.83,-47.8 c 0,0 -11.42,82.7 43.37,120.8 54.8,38 76.82,146.2 45.67,247.2 -31.15,101 208.5,233.2 208.5,233.2 0,0 -206.26,56.2 -271.63,-11.9 -65.37,-68.1 -178.45,-90.8 -154.64,-214.6 23.81,-123.7 100.9,-326.9 100.9,-326.9" /></g></g></svg>