<?xml version="1.0" encoding="UTF-8" standalone="no"?>
<svg
   xmlns:dc="http://purl.org/dc/elements/1.1/"
   xmlns:cc="http://creativecommons.org/ns#"
   xmlns:rdf="http://www.w3.org/1999/02/22-rdf-syntax-ns#"
   xmlns:svg="http://www.w3.org/2000/svg"
   xmlns="http://www.w3.org/2000/svg"
   viewBox="0 0 2666.6667 2666.6667"
   height="2666.6667"
   width="2666.6667"
   xml:space="preserve"
   id="svg2"
   version="1.1"><metadata
     id="metadata8"><rdf:RDF><cc:Work
         rdf:about=""><dc:format>image/svg+xml</dc:format><dc:type
           rdf:resource="http://purl.org/dc/dcmitype/StillImage" /></cc:Work></rdf:RDF></metadata><defs
     id="defs6" /><g
     transform="matrix(1.3333333,0,0,-1.3333333,0,2666.6667)"
     id="g10"><g
       transform="scale(0.1)"
       id="g12"><g
         transform="scale(1.22699)"
         id="g14"><path
           id="path16"
           style="fill:none;fill-opacity:1;fill-rule:nonzero;stroke:none"
           d="M 16300,0 H 0 V 16300 H 16300 V 0" /></g><path
         id="path18"
         style="fill:#3970c0;fill-opacity:1;fill-rule:nonzero;stroke:none"
         d="m 13450.8,6073.8 c 0,0 -63.1,-60.5 -71,-96 -7.9,-35.5 -15.8,-59.2 -19.7,-86.8 -4,-27.6 -71,-59.2 -86.8,-149.9 -15.8,-90.7 -47.4,-244.6 -71,-359 -23.7,-114.4 -51.3,-157.8 -43.4,-217 7.9,-59.2 118.3,-78.9 209.1,-90.8 90.7,-11.8 323.5,-3.9 430,43.4 106.6,47.4 27.6,189.4 19.7,295.9 -7.8,106.6 -7.8,351.2 -15.7,382.7 -7.9,31.6 -55.3,94.7 -55.3,94.7 l -86.8,295.9 -209.1,-113.1" /><g
         transform="scale(1.0566)"
         id="g20"><path
           id="path22"
           style="fill:#3970c0;fill-opacity:1;fill-rule:nonzero;stroke:none"
           d="m 15197.9,6124.35 c 0,0 -164,-42.3 -206.8,-103.35 -42.8,-60.94 -162.3,-509.08 -139.9,-561.33 22.4,-52.24 288.8,-89.62 448,-59.71 159.4,29.81 363.6,-36.16 567.6,-10.61 204.2,25.56 403.3,15.53 418.2,130.05 15,114.51 -39.8,139.41 -169.2,199.22 -129.4,59.72 -273.9,94.55 -318.6,136.85 -44.9,42.31 -169.4,159.38 -174.3,165.53 -5,6.25 -39.8,56.03 -79.7,103.35 -39.8,47.33 -179.2,92.09 -199.1,92.09 -20,0 -146.2,-92.09 -146.2,-92.09" /></g><path
         id="path24"
         style="fill:#fbc398;fill-opacity:1;fill-rule:nonzero;stroke:none"
         d="m 13982.1,8914.5 c 0,0 -15.7,-268.3 -42,-352.5 -26.3,-84.1 -173.6,-447.1 -194.7,-489.2 -21,-42.1 -226.2,-289.3 -252.5,-562.9 -26.3,-273.5 -42.1,-1436.1 -42.1,-1436.1 0,0 157.8,-13.1 177.6,-17.1 19.7,-3.9 89.4,-126.2 88.1,-138.1 -1.3,-11.8 30.2,-27.6 30.2,-27.6 0,0 123.7,698.3 235.4,943 111.8,244.6 210.5,623.3 249.9,828.5 39.5,205.1 98.6,236.7 173.6,382.7 75,146 98.6,232.8 232.8,410.3 134.1,177.5 153.9,493.2 153.9,493.2 l -810.2,-34.2" /><g
         transform="scale(1.00238)"
         id="g26"><path
           id="path28"
           style="fill:#fbc398;fill-opacity:1;fill-rule:nonzero;stroke:none"
           d="m 15303.9,8770.02 193.2,-377.89 c 0,0 -57.7,-490.64 0,-732.06 57.7,-241.43 209.9,-398.85 283.3,-619.33 73.6,-220.37 105.1,-745.23 105.1,-745.23 0,0 83.9,-141.66 188.8,-146.85 105,-5.28 225.7,199.33 225.7,215.09 0,15.76 -99.7,388.38 -94.4,771.46 5.2,383.09 -78.8,907.95 -68.2,986.66 10.5,78.71 20.9,245.31 0,437.56 0,0 26.2,365.33 15.6,449.33 -10.4,83.99 -849.1,-238.74 -849.1,-238.74" /></g><path
         id="path30"
         style="fill:#fbc398;fill-opacity:1;fill-rule:nonzero;stroke:none"
         d="m 15177.4,13270.6 c 0,0 238.2,-60.9 390.8,-189.8 152.5,-128.9 137.6,-370.9 143.8,-473.5 6.1,-102.5 14,-186.7 32.4,-218.3 18.4,-31.5 68.4,-199.9 115.7,-394.5 47.4,-194.6 52.6,-323.5 52.6,-323.5 0,0 142.1,-252.5 163.1,-562.9 21.1,-310.4 101.3,-672 113.1,-916.6 h -439.2 l -752.3,1540.6 c 0,0 -21,1280.3 0,1311.9 21.1,31.5 180,226.6 180,226.6" /><path
         id="path32"
         style="fill:#1a1918;fill-opacity:1;fill-rule:nonzero;stroke:none"
         d="m 15618.2,11024.8 49.9,-48.2 c 0,0 19.8,-43.4 27.6,-55.2 7.9,-11.9 122.3,-86.8 142.1,-134.2 19.7,-47.3 126.2,-611.5 177.5,-789.1 51.3,-177.5 248.6,-1021.8 248.6,-1021.8 0,0 -455.2,-224.9 -675.4,-256.5 -220.2,-31.5 -326.8,-31.5 -326.8,-31.5 l -55.2,248.5 -74.9,-303.8 c 0,0 -79,-19.7 -394.6,82.9 -315.6,102.6 -844.3,118.4 -848.2,130.2 -4,11.8 3.9,647 43.4,856.1 39.4,209.1 114.4,520.8 118.3,599.7 4,78.9 43.4,350.1 43.4,350.1 l 232.8,435.1 c 0,0 65.3,198.3 485.3,181.5 420,-16.9 453.7,-43.4 599.7,-59.2 146,-15.8 206.5,-184.6 206.5,-184.6" /><path
         id="path34"
         style="fill:#100f0d;fill-opacity:1;fill-rule:nonzero;stroke:none"
         d="m 15206.5,8936.8 c 0,0 75,231.9 80.2,288.9 5.3,57 -5.2,604.1 0,635.7 5.3,31.5 187.4,113.6 187.4,113.6 0,0 -76.9,-110.9 -82.1,-149.1 -5.3,-38.2 0,-595.8 0,-643.1 0,-47.4 -130.3,-494.5 -130.3,-494.5 l -55.2,248.5" /><path
         id="path36"
         style="fill:#3970c0;fill-opacity:1;fill-rule:nonzero;stroke:none"
         d="m 14326.7,13491.1 -67.6,-2.6 -95.5,-57.9 -69.7,-603.6 v -829.9 l 232.8,-910 c 0,0 307.7,-110.5 660.2,-126.3 352.4,-15.8 615.5,54.4 631.3,64 15.7,9.7 34.1,701.4 18.4,894.7 -15.8,193.4 -35.5,323.6 -35.5,323.6 0,0 72.3,111.7 90.7,182.8 18.4,71 34.2,236.7 0,347.2 -34.2,110.4 -391.8,399.8 -395.8,410.3 -4,10.5 -252,178.8 -252,178.8 l -717.3,128.9" /><g
         transform="scale(1.15826)"
         id="g38"><path
           id="path40"
           style="fill:#9c9c9b;fill-opacity:1;fill-rule:nonzero;stroke:none"
           d="m 9840.04,8076.79 6.21,-135.03 6381.15,358.73 c 0,0 72.6,60.43 0,145.99 L 9840.04,8076.79" /></g><path
         id="path42"
         style="fill:#9c9c9b;fill-opacity:1;fill-rule:nonzero;stroke:none"
         d="m 11923.5,9418.2 -979.2,-56.7 8.8,-190.8 970.4,54.6 v 192.9" /><path
         id="path44"
         style="fill:#fbc398;fill-opacity:1;fill-rule:nonzero;stroke:none"
         d="m 14437.9,13689.4 c 0,0 -16.3,-64.1 -25.6,-82.6 -9.3,-18.4 -153.2,-118.3 -153.2,-118.3 0,0 363.5,-352.5 519.4,-523.4 155.8,-171 324.1,-273.6 479.3,-234.1 155.2,39.4 186.8,131.5 128.9,241.9 -57.9,110.5 -342.7,389.3 -342.7,389.3 l -0.4,135.9 -280.3,16.7 -325.4,174.6" /><path
         id="path46"
         style="fill:#fbc398;fill-opacity:1;fill-rule:nonzero;stroke:none"
         d="m 14163.6,13430.6 c 0,0 249.9,-189.4 344.6,-512.9 94.7,-323.5 -143.8,-583.9 -143.8,-583.9 0,0 49.1,-248.6 5.7,-453.7 -43.4,-205.2 -75,-339.3 -75,-339.3 0,0 19.8,-130.2 27.7,-149.9 7.8,-19.8 153.8,-331.5 181.4,-560.3 27.7,-228.8 110.5,-489.2 153.9,-595.7 43.4,-106.6 43.4,-106.6 43.4,-106.6 l -228.8,-94.6 c 0,0 -363,540.5 -501.1,864 -138.1,323.5 -161.7,564.2 -173.6,611.5 -11.8,47.4 -142,276.2 -220.9,509 -78.9,232.7 0,469.5 19.7,595.7 19.7,126.3 0,319.6 78.9,453.7 78.9,134.2 244.6,185.5 260.4,197.3 15.8,11.8 227.5,165.7 227.5,165.7" /><path
         id="path48"
         style="fill:#d2946b;fill-opacity:1;fill-rule:nonzero;stroke:none"
         d="m 14378,12746.8 c 0,0 -67.1,-173.6 -67.1,-189.4 0,-15.8 53.5,-223.6 53.5,-223.6 l 80.6,117.2 -67,89.7 v 206.1" /><g
         transform="scale(1.00158)"
         id="g50"><path
           id="path52"
           style="fill:#fbc398;fill-opacity:1;fill-rule:nonzero;stroke:none"
           d="m 15961.2,10210.9 c 0,0 -12.4,-18.3 -20.6,-23.6 -8.2,-5.3 -24,-139.2 -29.3,-169.4 -5.2,-30.24 -65.6,-95.94 -78.8,-161.54 -13,-65.7 -20.9,-126.1 -28.8,-157.55 -7.9,-31.55 -36.9,-104.54 -36.9,-104.54 l 129.6,7.49 c 0,0 14.9,-57.91 7,-94.65 -7.9,-36.84 -48.5,-68.29 -48.5,-68.29 l -88.1,-8.49 c 0,0 63.1,-112.32 131.4,-112.32 68.2,0 118.1,23.66 118.1,23.66 0,0 68.3,2.6 81.5,5.19 13.1,2.7 89.3,18.37 89.3,18.37 0,0 91.8,42.04 102.4,160.25 10.5,118.12 -42,304.62 -51.2,343.96 -9.2,39.44 -74.9,305.96 -74.9,305.96 0,0 -73.5,124.8 -81.4,127.4 -7.8,2.6 -120.8,-91.9 -120.8,-91.9" /></g><path
         id="path54"
         style="fill:#fbc398;fill-opacity:1;fill-rule:nonzero;stroke:none"
         d="m 14611.1,10367 c 0,0 -22.4,72.9 71.7,-192.6 3.2,-9.3 84.7,-182.5 94.5,-211.6 9.8,-29.1 0,0 92.5,-109.8 32.5,-38.6 95.1,-147.1 107.7,-177.1 12.6,-30 32.2,-108.1 32.2,-108.1 l -154.4,-14.7 c 0,0 -5.9,-59.6 7.5,-94.8 13.4,-35.2 58.5,-60.2 58.5,-60.2 l 88.4,5 c 0,0 -45.4,-120.8 -113,-131.2 -67.6,-10.3 -120.5,5.5 -120.5,5.5 0,0 -68,-7.8 -81.4,-7.2 -13.4,0.6 -91.2,4.6 -91.2,4.6 0,0 -97.4,27.6 -125.8,143 -28.3,115.4 -11.4,398.4 -15.7,438.7 -6.5,59.7 -172.6,462.6 -172.6,462.6 0,0 268.1,-104 275.5,-100.2 7.4,3.8 46.1,148.1 46.1,148.1" /><path
         id="path56"
         style="fill:#d4d3d1;fill-opacity:1;fill-rule:nonzero;stroke:none"
         d="m 11016.4,9266.1 c 0,-52.7 -32.3,-95.4 -72.1,-95.4 -39.9,0 -72.2,42.7 -72.2,95.4 0,52.7 32.3,95.4 72.2,95.4 39.8,0 72.1,-42.7 72.1,-95.4" /><path
         id="path58"
         style="fill:#d7996f;fill-opacity:1;fill-rule:nonzero;stroke:none"
         d="m 14346.4,8656.7 c 0,0 31.6,-118.3 71,-153.8 0,0 -111.1,19.2 -71,153.8" /><path
         id="path60"
         style="fill:#ffffff;fill-opacity:1;fill-rule:nonzero;stroke:none"
         d="m 13455.5,6361.8 c -3.1,-169.8 -4.7,-288 -4.7,-288 0,0 157.8,-13.1 177.6,-17.1 19.7,-3.9 89.4,-126.2 88.1,-138.1 -1.3,-11.8 30.2,-27.6 30.2,-27.6 0,0 40,225.7 95,465.4 -149.9,-2.5 -304.2,2.2 -386.2,5.4" /><g
         transform="scale(1.00238)"
         id="g62"><path
           id="path64"
           style="fill:#ffffff;fill-opacity:1;fill-rule:nonzero;stroke:none"
           d="m 15860.9,6581.63 c 16.8,-157.02 24.6,-286.12 24.6,-286.12 0,0 83.9,-141.66 188.8,-146.85 105,-5.28 225.7,199.43 225.7,215.09 0,8.58 -29.5,123.11 -55.6,287.32 -140.7,-39.21 -289.1,-59.56 -383.5,-69.44" /></g><g
         transform="scale(1.11594)"
         id="g66"><path
           id="path68"
           style="fill:#343434;fill-opacity:1;fill-rule:nonzero;stroke:none"
           d="m 16300,8642.86 c 0,-440.44 -219.1,-797.45 -489.4,-797.45 -270.2,0 -489.3,357.01 -489.3,797.45 0,440.42 219.1,797.44 489.3,797.44 270.3,0 489.4,-357.02 489.4,-797.44" /></g><g
         transform="scale(1.12775)"
         id="g70"><path
           id="path72"
           style="fill:#1e1c1b;fill-opacity:1;fill-rule:nonzero;stroke:none"
           d="m 16300,8552.31 c 0,475.57 -236.6,861.1 -528.4,861.1 -62.9,6.08 -170.9,0 -170.9,0 0,0 -6.8,-21.19 -18.2,-57.07 -198.4,-124.03 -339.3,-437.14 -339.3,-804.03 0,-272.58 77.8,-515.45 199.1,-673.2 29.6,-96.21 63.1,-168.92 98.8,-182.4 118.3,-44.69 272,-2.93 272,-2.93 l 0.2,0.36 c 272.3,34.67 486.7,405.49 486.7,858.17" /></g><g
         transform="scale(1.11594)"
         id="g74"><path
           id="path76"
           style="fill:#343434;fill-opacity:1;fill-rule:nonzero;stroke:none"
           d="m 16300,8642.86 c 0,-480.58 -239.1,-870.21 -534.1,-870.21 -294.9,0 -534,389.63 -534,870.21 0,480.61 239.1,870.21 534,870.21 295,0 534.1,-389.6 534.1,-870.21" /></g><g
         transform="scale(1.09131)"
         id="g78"><path
           id="path80"
           style="fill:#1e1c1b;fill-opacity:1;fill-rule:nonzero;stroke:none"
           d="m 16298.3,8831.11 c 1.7,-133.7 -70.4,-243.11 -161.2,-244.3 -90.7,-1.19 -165.8,106.21 -167.5,239.99 -1.9,133.78 70.3,243.19 161.1,244.38 90.8,1.19 165.8,-106.29 167.6,-240.07" /></g><g
         transform="scale(1.08439)"
         id="g82"><path
           id="path84"
           style="fill:#9c9c9b;fill-opacity:1;fill-rule:nonzero;stroke:none"
           d="m 16258.3,8959.72 c 0,0 41.7,-70.08 12.4,-153.45 l -771.4,-43.43 -9.9,152.34 768.9,44.54" /></g><path
         id="path86"
         style="fill:#fbc398;fill-opacity:1;fill-rule:nonzero;stroke:none"
         d="m 15035.9,13679.7 7.7,-181.6 c 0,0 -38.4,-113 -245.1,-108.3 -206.7,4.8 -360.6,299.6 -360.6,299.6 l -1.4,240.4 c 0,0 -23.2,269.1 -24.2,270.6 -1.1,1.4 189.6,-25.9 228.9,-56.8 39.4,-30.9 186.2,-225.7 186.2,-225.7 l 208.5,-238.2" /><path
         id="path88"
         style="fill:#d2946b;fill-opacity:1;fill-rule:nonzero;stroke:none"
         d="m 14977.5,13652 58.3,142.6 8.2,-265.8 c 0,0 -183.1,26.7 -340.6,139.2 -148.9,106.3 -160.3,285.8 -160.3,285.8 l 434.4,-301.8" /><path
         id="path90"
         style="fill:#252323;fill-opacity:1;fill-rule:nonzero;stroke:none"
         d="m 15254.8,14848 c -0.3,0.4 -58.1,75 -164.5,82.7 -106.7,7.7 -195.8,35.8 -272.9,16.9 -77.2,-18.8 -167.6,-18.8 -272.9,-37.7 -32.8,-12 -64.6,-26.3 -85.2,-46.9 -18.9,-18.9 -30.4,-37.8 -37.2,-52.1 -6.4,-14.1 -8.9,-23.9 -8.9,-23.9 0,0 -110.3,-54 -130.4,-229 -20.2,-175.1 -1.3,-297.6 33.4,-397.3 34.7,-99.6 116.4,-201 116.4,-201 l 36.3,156.3 c 0,0 359.9,307.8 370,326.1 10.2,18.4 354,85.9 354,85.9 l 85.4,38.7 c 0,0 44,110 -0.2,233.4 -5.8,16.2 -13.8,32.3 -23.3,47.9" /><path
         id="path92"
         style="fill:#fbc398;fill-opacity:1;fill-rule:nonzero;stroke:none"
         d="m 15234.2,14631.8 c 0,0 36,-46.7 44.1,-65.1 8.2,-18.3 14.5,-184.5 17.2,-226.5 2.8,-42.1 -8,-99.1 -8,-119.4 0.1,-20.4 2.9,-145.2 -2.5,-194 -5.4,-48.9 -59.4,-238.9 -77,-289.1 -17.6,-50.2 -43.3,-116.7 -67.7,-130.3 -24.4,-13.6 -131.6,-19.1 -226.6,9.3 -95,28.3 -281,154.3 -331.3,220.7 -50.2,66.5 -43.6,204.9 -43.6,204.9 0,0 -39.3,-10.9 -80.1,29.7 -40.7,40.7 -105.9,128.8 -92.5,226.5 13.5,97.7 88.2,62.5 126.2,23.2 38,-39.3 39.4,-99 47.6,-100.3 8.1,-1.4 16.3,1.3 20.3,2.7 4.1,1.3 23,101.8 24.3,122.1 1.4,20.4 -2.8,142.5 -0.1,146.5 2.7,4.1 103.6,126.3 136.2,138.6 32.5,12.2 513.5,0.5 513.5,0.5" /><path
         id="path94"
         style="fill:#1e1c1b;fill-opacity:1;fill-rule:nonzero;stroke:none"
         d="m 13683.2,9366.8 c 0,646.8 -321.8,1171 -718.6,1171 -85.5,8.3 -232.4,0 -232.4,0 0,0 -9.3,-28.8 -24.9,-77.6 -269.8,-168.6 -461.3,-594.4 -461.3,-1093.4 0,-370.7 105.8,-700.9 270.7,-915.4 40.3,-130.8 85.8,-229.8 134.3,-248.1 161.1,-60.8 369.9,-3.9 369.9,-3.9 l 0.3,0.4 c 370.4,47.1 662,551.4 662,1167" /><path
         id="path96"
         style="fill:#343434;fill-opacity:1;fill-rule:nonzero;stroke:none"
         d="m 13450.8,9366.8 c 0,-646.7 -321.7,-1171 -718.6,-1171 -396.8,0 -718.5,524.3 -718.5,1171 0,646.8 321.7,1171 718.5,1171 396.9,0 718.6,-524.2 718.6,-1171" /><path
         id="path98"
         style="fill:#343434;fill-opacity:1;fill-rule:nonzero;stroke:none"
         d="m 13450.8,9366.8 c 0,-592.6 -294.8,-1073.1 -658.5,-1073.1 -363.7,0 -658.5,480.5 -658.5,1073.1 0,592.7 294.8,1073.1 658.5,1073.1 363.7,0 658.5,-480.4 658.5,-1073.1" /><path
         id="path100"
         style="fill:#d4d3d1;fill-opacity:1;fill-rule:nonzero;stroke:none"
         d="m 12833.9,9375 c 6.9,-104.3 -52.8,-193.3 -133.3,-198.6 -80.6,-5.3 -151.4,75 -158.3,179.4 -6.9,104.3 52.8,193.2 133.3,198.5 80.5,5.4 151.4,-74.9 158.3,-179.3" /><path
         id="path102"
         style="fill:#9c9c9b;fill-opacity:1;fill-rule:nonzero;stroke:none"
         d="m 12701,9463.2 c 0,0 72.9,-72.1 12.9,-193.5 l -1587.8,-89.3 V 9372 l 1574.9,91.2" /><path
         id="path104"
         style="fill:#fbc398;fill-opacity:1;fill-rule:nonzero;stroke:none"
         d="m 14937.4,9612 c 5.4,-1.9 72.3,-44.2 72.3,-44.2 0,0 -59.6,-25.2 -63.2,-34.3 -3.7,-9.2 -14.6,-64.3 1.8,-98.6 16.4,-34.3 25.2,-35.7 25.2,-35.7 0,0 -36.1,-33.7 -48.9,-41 -12.8,-7.3 -60.3,-36.5 -111.4,65.7 -51.1,102.3 -100.4,180.8 -60.3,215.5 40.2,34.6 82.2,49.3 82.2,49.3 l 102.3,-76.7" /><path
         id="path106"
         style="fill:#100f0d;fill-opacity:1;fill-rule:nonzero;stroke:none"
         d="m 5741.2,7819.3 c 0,0 64.97,-27 152.6,216.4 87.64,243.5 -211.58,238.6 -211.58,238.6 l -156.4,-189.9 215.38,-265.1" /><path
         id="path108"
         style="fill:#9c9c9b;fill-opacity:1;fill-rule:nonzero;stroke:none"
         d="M 8633.8,7494.6 7005.84,7179.5 6998.6,7009 8656.29,7327 c 0,0 74.12,80.5 -22.49,167.6" /><path
         id="path110"
         style="fill:#343434;fill-opacity:1;fill-rule:nonzero;stroke:none"
         d="m 8051.86,7277 c 65.36,-487.1 -123.98,-914.5 -422.9,-954.7 -298.93,-40.1 -594.23,322.3 -659.59,809.4 -65.36,487.1 123.97,914.5 422.9,954.6 298.92,40.1 594.23,-322.2 659.59,-809.3" /><path
         id="path112"
         style="fill:#1e1c1b;fill-opacity:1;fill-rule:nonzero;stroke:none"
         d="m 8242.81,7302.6 c -71.32,531.6 -393.58,927 -719.77,883.2 -71.2,-2.6 -190.96,-25.6 -190.96,-25.6 0,0 -4.46,-24.7 -11.93,-66.5 -203.12,-168.4 -313.63,-539.5 -258.61,-949.6 40.89,-304.7 164.28,-564.4 323.52,-722.6 47.5,-103.1 95.84,-179.4 137.75,-189.1 139.05,-32.2 304.46,37.6 304.46,37.6 l 0.19,0.4 c 299.21,79.6 483.25,526.2 415.35,1032.2" /><path
         id="path114"
         style="fill:#343434;fill-opacity:1;fill-rule:nonzero;stroke:none"
         d="m 8051.86,7277 c 71.32,-531.6 -135.29,-998 -461.49,-1041.8 -326.2,-43.7 -648.46,351.7 -719.78,883.3 -71.32,531.5 135.29,997.9 461.49,1041.7 326.2,43.8 648.45,-351.7 719.78,-883.2" /><path
         id="path116"
         style="fill:#1e1c1b;fill-opacity:1;fill-rule:nonzero;stroke:none"
         d="m 7653.14,7216 c 21.32,-144.4 -40.84,-273.2 -138.84,-287.7 -98,-14.4 -194.73,90.9 -216.06,235.3 -21.32,144.5 40.84,273.3 138.84,287.7 98.01,14.5 194.74,-90.8 216.06,-235.3" /><path
         id="path118"
         style="fill:#ecb28a;fill-opacity:1;fill-rule:nonzero;stroke:none"
         d="m 5603.07,7901.4 c 0,0 201.6,-11.2 350.93,0 149.33,11.2 287.46,41.1 287.46,41.1 0,0 -11.2,-28.5 -82.13,-146.8 -70.93,-118.3 -126.93,-204.1 -123.2,-454.3 3.73,-250.1 26.14,-459.2 -3.73,-616 -29.87,-156.8 -29.87,-156.8 -29.87,-156.8 l 365.86,-59.7 c 0,0 212.8,649.6 354.67,948.3 141.86,298.6 287.46,548.8 294.93,675.7 7.46,126.9 -59.73,276.3 -123.2,347.2 -63.47,70.9 -720.53,319.8 -922.12,398.8 -201.6,79.1 -395.74,-100.1 -403.2,-223.3 -7.47,-123.2 33.6,-754.2 33.6,-754.2" /><path
         id="path120"
         style="fill:#1c1b1a;fill-opacity:1;fill-rule:nonzero;stroke:none"
         d="m 4262.82,9267.8 c 0,0 -250.13,-44.8 -451.74,-246.4 -201.59,-201.6 -251.17,-643.2 -216.52,-784 44.07,-179.1 152.79,-264.9 152.79,-264.9 0,0 810.39,33.5 832.8,18.5 22.39,-14.9 374.83,-41.6 552.53,0 l 111.99,11.2 c 0,0 216.54,-168 496.53,-182.9 0,0 0,294.9 70.93,567.5 70.93,272.5 160.54,492.1 160.54,492.1 l -462.93,194.8 c 0,0 -851.2,276.3 -862.4,280 -11.2,3.7 -384.52,-85.9 -384.52,-85.9" /><path
         id="path122"
         style="fill:#fbc398;fill-opacity:1;fill-rule:nonzero;stroke:none"
         d="m 6378.09,10601.7 c 0,0 205.72,-157.9 256.63,-350.9 50.91,-193 -69.59,-455.4 -69.59,-455.4 0,0 -9.1,-309 -27.31,-411.5 -18.21,-102.5 -57.07,-409.1 -58.93,-453.2 -1.87,-44.2 68.92,-247.1 28.58,-490.9 -40.34,-243.7 -137.06,-1070.2 -137.06,-1070.2 l -239.85,-10.9 c 0,0 -26.1,515.3 -90.79,842.8 -64.69,327.5 -61.75,511.1 1.26,708.3 0,0 8.11,80 -25.31,213.9 -33.41,133.8 -16.35,353.9 -16.35,353.9 0,0 215.46,865.3 239.52,896.8 24.06,31.5 139.2,227.3 139.2,227.3" /><path
         id="path124"
         style="fill:#3970c0;fill-opacity:1;fill-rule:nonzero;stroke:none"
         d="m 6265.6,10648.2 c 12.91,14.4 -3.75,164.2 -3.75,164.2 0,0 97.81,-121.5 145.11,-298.5 47.31,-177 68.44,-329.2 39.85,-572.8 -28.59,-243.7 -183.75,-384.6 -255.49,-436 -71.74,-51.4 -156.56,-46.8 -203.91,-104.6 -47.36,-57.8 -173.81,-225.1 -287.93,-366.1 -114.12,-141.1 -324.55,-170.7 -347.79,-168.3 -23.25,2.3 -410.95,115.9 -413.26,131.8 -2.3,15.9 -191.55,195.5 -288.35,244.5 -65.74,33.2 -160.29,31.4 -217.59,29.7 -27.09,-0.8 -45.86,-1.7 -49.33,1.2 -4.66,3.8 -32.28,-1.2 -60.25,-6.2 -37.17,-6.7 -74.93,-13.4 -60.09,0.7 25.98,24.8 238.17,357.6 279.41,494.3 41.24,136.7 101.85,580.7 163.63,727 61.79,146.4 540.85,278 538.15,290 -2.7,12 2.05,136.1 2.05,136.1 l 129.28,52.8 c 0,0 437.83,-81.4 443.07,-80.4 5.25,1.1 447.19,-239.4 447.19,-239.4" /><path
         id="path126"
         style="fill:#fbc398;fill-opacity:1;fill-rule:nonzero;stroke:none"
         d="m 5746.9,11292.9 c 0,0 -62.98,-189.2 -71.77,-198.7 -8.8,-9.6 -192.27,-69.3 -299.79,-126.2 0,0 273.38,-134.7 391.83,-433.7 118.45,-299 198.55,-508 276.72,-575.9 78.17,-68 198.51,-90.6 263.07,109 64.57,199.6 39.07,463.1 12.84,564.9 -26.22,101.8 -57.95,180.1 -57.95,180.1 0,0 -303.37,65.2 -321.42,93.2 -18.05,27.9 -163.65,239.1 -161.99,255.5 1.66,16.4 -31.54,131.8 -31.54,131.8" /><path
         id="path128"
         style="fill:#fbc398;fill-opacity:1;fill-rule:nonzero;stroke:none"
         d="m 4929.81,7053.1 c 0,0 8.31,-255 0,0 -0.64,19.8 -64.49,887.7 -87.45,1124.8 -22.95,237.2 30.46,713.2 22.42,788.3 -8.05,75.2 -135.16,366 -161.25,572.1 -26.1,206.2 40.4,399 40.4,399 0,0 -93.44,198.7 -66.42,465.4 27.03,266.6 385.94,371.2 402.61,381.2 16.68,10.1 165.94,131.3 165.94,131.3 0,0 171.85,-80.8 301.09,-273.2 129.25,-192.4 152.2,-429.6 124.45,-626.4 -27.75,-196.8 -195.66,-308.9 -195.66,-308.9 0,0 35.71,-265.9 -1.76,-481.2 -37.46,-215.4 -132.64,-421 -139.65,-451.6 -7.02,-30.6 18.49,-397.2 -24.16,-741.2 -42.66,-344 -106.76,-960.1 -106.76,-960.1 l -152.6,-19.5 h -121.2" /><path
         id="path130"
         style="fill:#d2946b;fill-opacity:1;fill-rule:nonzero;stroke:none"
         d="m 4743.93,9937.3 c 0,0 44.82,-98.4 86.6,-149.6 0,0 -71.23,34.6 -105.47,81.1 l 18.87,68.5" /><path
         id="path132"
         style="fill:#d2946b;fill-opacity:1;fill-rule:nonzero;stroke:none"
         d="m 5671.6,10015.6 c -59.78,-87.8 -140.86,-115.5 -140.86,-115.5 l -54.8,-193.4 c 0,0 167.91,112.1 195.66,308.9" /><path
         id="path134"
         style="fill:#2d5695;fill-opacity:1;fill-rule:nonzero;stroke:none"
         d="m 5750.99,9505.2 c -41.78,0 -68.77,9.7 -68.77,9.7 0,0 78.03,23.4 143.68,53.3 65.65,29.9 161.7,102.3 161.7,102.3 0,0 -28.41,-100.2 -126.62,-142.4 -41.36,-17.8 -79.59,-22.9 -109.99,-22.9" /><path
         id="path136"
         style="fill:#fbc398;fill-opacity:1;fill-rule:nonzero;stroke:none"
         d="m 6289.35,10989.7 -27.5,-177.3 c 0,0 -58.99,-102 -258.16,-57.5 -199.16,44.4 -291.21,359.5 -291.21,359.5 l 44.92,232.9 c 0,0 9.94,166.9 9.2,168.5 -0.76,1.6 198.07,36.5 230.2,-1 32.12,-37.5 136.7,-254.3 136.7,-254.3 l 155.85,-270.8" /><path
         id="path138"
         style="fill:#d2946b;fill-opacity:1;fill-rule:nonzero;stroke:none"
         d="m 6227.46,10974.1 83.97,126.8 -43.3,-258.8 c 0,0 -172.1,61.2 -302.88,200.3 -123.61,131.6 -99.99,307.6 -99.99,307.6 l 362.2,-375.9" /><path
         id="path140"
         style="fill:#fbc398;fill-opacity:1;fill-rule:nonzero;stroke:none"
         d="m 4023.88,8829.2 c 0,0 -141.86,-15 -253.86,-155 -112,-140 -162.4,-246.4 -100.8,-476 61.6,-229.6 113.43,-291.2 146.31,-341.6 32.89,-50.4 49.69,-123.2 49.69,-123.2 0,0 23.83,-33.6 -49.69,-128.8 -73.51,-95.2 -149.05,-179.2 -172.88,-487.2 -23.83,-308 65.77,-957.5 71.37,-1069.5 5.6,-112.1 5.6,-112.1 5.6,-112.1 h 268.8 c 0,0 11.2,336 162.39,632.8 151.2,296.8 207.2,638.4 207.2,929.6 0,0 184.8,339.8 218.4,545.1 33.6,205.3 56,362.1 -82.13,518.9 0,0 -98.93,375.3 -470.4,267" /><path
         id="path142"
         style="fill:#564135;fill-opacity:1;fill-rule:nonzero;stroke:none"
         d="m 3668.79,8199.8 c -0.03,0.1 -0.06,0.2 -0.09,0.4 0.03,-0.1 0.06,-0.3 0.09,-0.4 m -0.43,1.6 c -0.03,0.1 -0.05,0.3 -0.09,0.4 0.03,-0.1 0.06,-0.3 0.09,-0.4 m -0.47,1.8 c -0.01,0.1 -0.02,0.1 -0.02,0.1 0,0 0.01,0 0.02,-0.1" /><path
         id="path144"
         style="fill:#edb187;fill-opacity:1;fill-rule:nonzero;stroke:none"
         d="m 3865.22,7733.4 v 0 c 0,0 -0.2,0.9 -0.6,2.5 -3.27,13.2 -19.8,75.8 -49.09,120.7 -30.31,46.5 -76.73,102.5 -132.06,290.8 -4.69,16 -9.44,32.9 -14.25,50.8 v 0 c -0.14,0.6 -0.29,1.1 -0.43,1.6 -0.03,0.1 -0.06,0.3 -0.09,0.4 -0.11,0.4 -0.22,0.8 -0.34,1.2 -0.03,0.1 -0.06,0.3 -0.09,0.4 -0.13,0.5 -0.26,1 -0.38,1.4 -0.01,0.1 -0.02,0.1 -0.02,0.1 -18.42,70 -26.26,128.4 -25.06,180 35.02,-251.9 130.18,-252.4 200.01,-386.7 72.8,-140 22.4,-263.2 22.4,-263.2" /><path
         id="path146"
         style="fill:#564135;fill-opacity:1;fill-rule:nonzero;stroke:none"
         d="m 4573.1,8025.1 c 0.01,0 0.02,0 0.02,0.1 0,-0.1 -0.01,-0.1 -0.02,-0.1 m 0.16,0.8 c 0.01,0 0.03,0.1 0.04,0.1 -0.01,0 -0.03,-0.1 -0.04,-0.1 m 0.19,0.9 c 0.01,0.1 0.03,0.1 0.04,0.2 -0.01,-0.1 -0.03,-0.1 -0.04,-0.2 m 0.14,0.7 c 0.02,0.2 0.05,0.3 0.07,0.4 -0.02,-0.1 -0.04,-0.2 -0.07,-0.4 m 0.16,0.9 c 0.02,0.1 0.04,0.2 0.05,0.2 -0.01,0 -0.03,-0.1 -0.05,-0.2 m 0.17,0.9 c 0.04,0.1 0.07,0.3 0.1,0.5 -0.03,-0.2 -0.06,-0.4 -0.1,-0.5 m 0.15,0.7 c 0.09,0.5 0.19,1.1 0.28,1.6 -0.09,-0.6 -0.19,-1.1 -0.28,-1.6 m 0.34,1.9 c 0.03,0.1 0.05,0.2 0.08,0.4 -0.03,-0.1 -0.05,-0.3 -0.08,-0.4 m 0.12,0.6 c 0.06,0.3 0.11,0.6 0.16,0.9 -0.05,-0.3 -0.1,-0.6 -0.16,-0.9 m 0.21,1.1 c 0.03,0.2 0.06,0.4 0.08,0.5 -0.02,-0.1 -0.05,-0.3 -0.08,-0.5 m 0.12,0.7 c 0.1,0.6 0.19,1.1 0.29,1.6 -0.1,-0.5 -0.19,-1 -0.29,-1.6 m 0.33,1.8 c 0.09,0.6 0.18,1.1 0.28,1.6 -0.09,-0.5 -0.19,-1 -0.28,-1.6 m 0.31,1.8 c 0.03,0.2 0.05,0.3 0.08,0.5 -0.03,-0.2 -0.05,-0.3 -0.08,-0.5 m 0.14,0.8 c 0.04,0.3 0.08,0.5 0.12,0.7 -0.04,-0.2 -0.08,-0.4 -0.12,-0.7 m 0.17,1 c 0.03,0.2 0.05,0.3 0.08,0.4 -0.03,-0.1 -0.05,-0.2 -0.08,-0.4 m 0.14,0.8 c 0.01,0.1 0.03,0.2 0.05,0.3 -0.02,-0.1 -0.04,-0.2 -0.05,-0.3 m 0.16,1 c 0.02,0.1 0.04,0.2 0.06,0.3 -0.02,-0.1 -0.04,-0.2 -0.06,-0.3 m 0.13,0.8 c 0.02,0.1 0.04,0.2 0.05,0.3 -0.01,-0.1 -0.03,-0.2 -0.05,-0.3 m 0.17,1 v 0 c 33.53,204.9 55.92,361.5 -81.33,518 137.25,-156.5 114.87,-313.1 81.33,-518 v 0" /><path
         id="path148"
         style="fill:#edb187;fill-opacity:1;fill-rule:nonzero;stroke:none"
         d="m 4498.75,7795.7 c 1.67,4.7 52.36,148.8 49.29,419.3 -3.12,275.1 -53.76,347.2 -53.76,347.2 0.27,-0.3 0.53,-0.6 0.8,-0.9 137.25,-156.5 114.86,-313.1 81.33,-518 v 0 c -0.04,-0.2 -0.08,-0.5 -0.12,-0.7 -0.01,-0.1 -0.03,-0.2 -0.05,-0.3 -0.02,-0.2 -0.05,-0.3 -0.07,-0.5 -0.02,-0.1 -0.04,-0.2 -0.06,-0.3 -0.03,-0.2 -0.07,-0.4 -0.11,-0.7 -0.02,-0.1 -0.04,-0.2 -0.05,-0.3 -0.02,-0.1 -0.05,-0.2 -0.06,-0.4 -0.03,-0.1 -0.05,-0.2 -0.08,-0.4 -0.01,-0.1 -0.03,-0.2 -0.05,-0.3 -0.04,-0.2 -0.08,-0.4 -0.12,-0.7 -0.02,-0.1 -0.04,-0.2 -0.06,-0.3 -0.03,-0.2 -0.05,-0.3 -0.08,-0.5 -0.01,-0.1 -0.02,-0.1 -0.03,-0.2 -0.1,-0.5 -0.19,-1 -0.28,-1.6 -0.02,0 -0.03,-0.1 -0.04,-0.2 -0.1,-0.5 -0.19,-1 -0.29,-1.6 -0.01,0 -0.02,-0.1 -0.04,-0.2 -0.02,-0.1 -0.05,-0.3 -0.08,-0.5 -0.02,0 -0.03,-0.1 -0.05,-0.2 -0.05,-0.3 -0.1,-0.6 -0.16,-0.9 -0.01,-0.1 -0.02,-0.1 -0.04,-0.2 -0.03,-0.2 -0.05,-0.3 -0.08,-0.4 -0.02,-0.1 -0.04,-0.2 -0.06,-0.3 -0.09,-0.5 -0.19,-1.1 -0.28,-1.6 -0.02,-0.1 -0.03,-0.1 -0.05,-0.2 -0.03,-0.2 -0.06,-0.4 -0.1,-0.5 -0.04,-0.2 -0.07,-0.4 -0.12,-0.7 -0.01,0 -0.03,-0.1 -0.05,-0.2 -0.03,-0.2 -0.06,-0.3 -0.09,-0.5 -0.02,-0.1 -0.05,-0.2 -0.07,-0.4 -0.03,-0.1 -0.07,-0.3 -0.1,-0.5 -0.01,-0.1 -0.03,-0.1 -0.04,-0.2 -0.05,-0.3 -0.1,-0.5 -0.15,-0.8 -0.01,0 -0.03,-0.1 -0.04,-0.1 -0.04,-0.3 -0.09,-0.5 -0.14,-0.7 0,-0.1 -0.01,-0.1 -0.02,-0.1 -13.68,-69.2 -42.32,-151 -74.35,-229.4" /><path
         id="path150"
         style="fill:#f1dbcc;fill-opacity:1;fill-rule:nonzero;stroke:none"
         d="m 4083.38,6410.4 c 0,0 0,0.1 -0.01,0.2 16.15,45.5 35.02,91.7 57.07,137.2 -22.06,-45.6 -40.89,-91.8 -57.06,-137.4" /><path
         id="path152"
         style="fill:#edb187;fill-opacity:1;fill-rule:nonzero;stroke:none"
         d="m 4083.37,6410.6 c -9.04,152.3 -19.94,476.7 36.84,642.5 75.81,221.2 237.8,445.1 237.8,445.1 0,-1.1 0,-2.2 0,-3.4 -0.44,-290.4 -56.59,-630.5 -207.2,-926.1 -3.53,-7 -6.99,-13.9 -10.37,-20.9 -22.05,-45.5 -40.92,-91.7 -57.07,-137.2" /><path
         id="path154"
         style="fill:#9c9c9b;fill-opacity:1;fill-rule:nonzero;stroke:none"
         d="m 3553.77,6370.9 3927.15,743.4 c 0,0 48.53,96.5 -18.67,145 l -3823.62,-698.8 -84.86,-189.6" /><path
         id="path156"
         style="fill:#3970c0;fill-opacity:1;fill-rule:nonzero;stroke:none"
         d="m 3722.39,5873.5 c 0,0 -60.55,-289.8 -69.89,-342.7 -9.35,-53 -74.77,-271.1 -65.42,-380.1 9.34,-109 258.56,-112.1 389.41,-99.7 130.84,12.5 214.96,15.6 214.96,137.1 0,121.5 -100.09,267.9 -98.33,376.9 1.75,109.1 -20.06,286.7 -57.44,370.8 -37.38,84.1 -137.08,162 -171.34,155.7 -34.27,-6.2 -84.12,0 -81,-24.9 3.12,-24.9 -60.95,-193.1 -60.95,-193.1" /><path
         id="path158"
         style="fill:#e4e4e3;fill-opacity:1;fill-rule:nonzero;stroke:none"
         d="m 3710.78,6378.2 c 7.85,-98.9 12.93,-180 11.61,-224.4 -4.47,-149.5 0,-280.3 0,-280.3 0,0 45.37,31.1 67.18,59.1 21.81,28.1 115.26,37.4 165.11,28.1 49.85,-9.4 81,-24.9 81,-24.9 0,0 2.21,202.8 58.58,437.8 -159.77,-9.7 -293.44,-3.4 -383.48,4.6" /><path
         id="path160"
         style="fill:#3970c0;fill-opacity:1;fill-rule:nonzero;stroke:none"
         d="m 5904.8,6373 c 0,0 -52.63,-51.1 -65.09,-147.7 -12.46,-96.5 -52.97,-271 -43.62,-289.7 9.35,-18.7 193.15,-31.1 420.57,-31.1 227.42,0 501.56,-21.8 660.44,0 158.89,21.8 190.04,177.7 149.54,222.8 -40.5,45.1 -152.65,17 -277.26,63.8 -124.61,46.7 -302.19,190 -355.15,227.4 -52.96,37.4 -96.57,31.1 -96.57,31.1 0,0 -143.31,10.2 -186.92,0.4 -43.62,-9.7 -205.94,-77 -205.94,-77" /><path
         id="path162"
         style="fill:#e4e4e3;fill-opacity:1;fill-rule:nonzero;stroke:none"
         d="m 6434.5,6704.9 c -141.46,-11.7 -312.48,21.9 -402.1,20.5 -39.9,-216.5 -80.29,-374.2 -80.29,-374.2 l 65.42,-90.4 c 0,0 121.5,-9.3 168.23,43.7 46.73,52.9 177.57,149.5 177.57,149.5 0,0 53.81,86.7 71.17,250.9" /><path
         id="path164"
         style="fill:#fbc398;fill-opacity:1;fill-rule:nonzero;stroke:none"
         d="m 6127.78,7344.3 c 0,0 -59.86,-86.2 -117.21,-153.6 -57.35,-67.4 -58.46,-206.1 -58.46,-206.1 l 57.07,10.4 38.03,-107 -22.28,-54.3 c 0,0 43.93,-19.1 83.06,-16.6 39.13,2.6 45.97,12.4 53.55,11 7.58,-1.3 41.98,-12.2 75.03,-2.5 33.05,9.6 43.99,14.1 43.99,14.1 0,0 52.06,5.2 70.32,12 18.28,6.9 83.86,5.5 100.91,31 17.05,25.4 16.22,152.6 5.11,208 -11.11,55.5 -88.52,318 -88.52,318 0,0 -182.62,8.7 -188.46,4.5 -5.84,-4.1 -52.14,-68.9 -52.14,-68.9" /><path
         id="path166"
         style="fill:#fbc398;fill-opacity:1;fill-rule:nonzero;stroke:none"
         d="m 5210.93,7254.6 c 0,0 6.68,-140.3 84.28,-223.8 60.22,-64.8 99.23,-153.8 99.23,-153.8 l -51.91,-31.1 0.67,-102.4 38.36,-33.4 c 0,0 -34.93,-43 -72.77,-53.4 -37.84,-10.3 -47.5,-3.2 -54.21,-7 -6.72,-3.8 -35.71,-25.2 -70.11,-26.8 -34.39,-1.7 -46.18,-1 -46.18,-1 0,0 -50.95,-12 -70.43,-11.5 -19.5,0.5 -81.08,-22.1 -105.48,-3.6 -24.41,18.6 -48.36,160.1 -48.57,216.6 -0.73,191.8 45.47,410.2 45.47,410.2 0,0 80.67,-34.6 87.53,-36.6 6.87,-2 164.12,57.6 164.12,57.6" /><path
         id="path168"
         style="fill:#9c9c9b;fill-opacity:1;fill-rule:nonzero;stroke:none"
         d="m 2194.57,6341.9 -966.02,-170.2 30.96,-188.5 957.5,167.1 -22.44,191.6" /><path
         id="path170"
         style="fill:#d4d3d1;fill-opacity:1;fill-rule:nonzero;stroke:none"
         d="m 1311.32,6085.3 c 6.14,-52.3 -20.99,-98.5 -60.57,-103.1 -39.59,-4.7 -76.65,34 -82.78,86.3 -6.13,52.4 20.99,98.6 60.58,103.2 39.58,4.6 76.65,-34 82.77,-86.4" /><path
         id="path172"
         style="fill:#1e1c1b;fill-opacity:1;fill-rule:nonzero;stroke:none"
         d="m 3948.24,6495.5 c -75.22,642.4 -455.74,1125.7 -849.91,1079.5 -85.88,-1.7 -230.74,-27 -230.74,-27 0,0 -5.88,-29.7 -15.74,-80 -248.31,-198.9 -389.07,-644.1 -331.04,-1139.6 43.11,-368.2 186.61,-683.9 375.4,-877.8 55.17,-125.2 111.91,-218.2 162.25,-230.7 166.98,-41.7 367.83,39.1 367.83,39.1 l 0.24,0.4 c 362.36,89.9 593.3,624.7 521.71,1236.1" /><path
         id="path174"
         style="fill:#343434;fill-opacity:1;fill-rule:nonzero;stroke:none"
         d="m 3717.49,6468.5 c 75.22,-642.3 -183.35,-1200.5 -577.52,-1246.6 -394.18,-46.2 -774.69,437.1 -849.91,1079.4 -75.21,642.4 183.35,1200.5 577.53,1246.7 394.17,46.1 774.69,-437.2 849.9,-1079.5" /><path
         id="path176"
         style="fill:#343434;fill-opacity:1;fill-rule:nonzero;stroke:none"
         d="m 3717.49,6468.5 c 68.93,-588.6 -168.02,-1100.1 -529.23,-1142.4 -361.21,-42.3 -709.91,400.6 -778.84,989.2 -68.92,588.7 168.02,1100.1 529.24,1142.4 361.21,42.3 709.9,-400.6 778.83,-989.2" /><path
         id="path178"
         style="fill:#d4d3d1;fill-opacity:1;fill-rule:nonzero;stroke:none"
         d="m 3103.81,6404.9 c 18.98,-102.9 -29.97,-198.1 -109.35,-212.8 -79.37,-14.6 -159.1,56.9 -178.08,159.7 -18.99,102.9 29.97,198.1 109.34,212.8 79.37,14.6 159.1,-56.9 178.09,-159.7" /><path
         id="path180"
         style="fill:#9c9c9b;fill-opacity:1;fill-rule:nonzero;stroke:none"
         d="m 2961.58,6477.1 c 0,0 80.71,-63.3 35.31,-190.7 L 1430.25,6013 l -22.29,190.3 1553.62,273.8" /><path
         id="path182"
         style="fill:#252323;fill-opacity:1;fill-rule:nonzero;stroke:none"
         d="m 6738.7,12091.5 c -0.25,0.5 -41.87,85.2 -144.52,114.1 -102.96,29 -184.56,74.5 -263.95,71.6 -79.38,-3 -167.88,15.2 -274.9,17.9 -34.54,-5.2 -68.57,-12.7 -92.91,-28.8 -22.3,-14.7 -37.35,-30.9 -46.86,-43.5 -9.15,-12.6 -13.54,-21.7 -13.54,-21.7 0,0 -118.88,-30.6 -173.86,-198 -54.98,-167.4 -61.15,-291.2 -47.22,-395.9 13.93,-104.6 77.88,-235.8 77.88,-235.8 l 62.67,161.3 c 0,0 414.47,229 428.1,245 13.64,15.9 364.05,12.8 364.05,12.8 l 91.49,20.8 c 0,0 65.2,98.8 46.73,228.6 -2.44,17.1 -7.05,34.4 -13.16,51.6" /><path
         id="path184"
         style="fill:#fbc398;fill-opacity:1;fill-rule:nonzero;stroke:none"
         d="m 6674.97,11883.9 c 0,0 25.85,-53.1 30.16,-72.6 4.3,-19.6 -22.99,-183.7 -28.75,-225.4 -5.77,-41.8 -27.81,-95.4 -31.89,-115.4 -4.07,-19.9 -26.4,-142.7 -41.5,-189.5 -15.1,-46.8 -106.3,-222 -133.63,-267.6 -27.33,-45.7 -65.9,-105.7 -92.54,-114.1 -26.65,-8.4 -132.74,7.8 -220.09,54.7 -87.34,46.9 -244.18,207.8 -280.05,282.9 -35.87,75.2 -1.51,209.5 -1.51,209.5 0,0 -40.73,-2.8 -72.46,45.2 -31.72,48.1 -77.87,147.5 -45.01,240.5 32.85,93 98.89,43.5 128.23,-2.7 29.34,-46.1 18.72,-104.9 26.42,-107.8 7.71,-3 16.22,-2 20.49,-1.5 4.25,0.5 42.97,95.1 48.37,114.8 5.41,19.6 25.87,140.1 29.34,143.5 3.47,3.5 126.95,102.9 161.3,108.3 34.35,5.5 503.12,-102.8 503.12,-102.8" /></g></g></svg>