<?xml version="1.0" encoding="UTF-8" standalone="no"?>
<svg
   xmlns:dc="http://purl.org/dc/elements/1.1/"
   xmlns:cc="http://creativecommons.org/ns#"
   xmlns:rdf="http://www.w3.org/1999/02/22-rdf-syntax-ns#"
   xmlns:svg="http://www.w3.org/2000/svg"
   xmlns="http://www.w3.org/2000/svg"
   viewBox="0 0 2666.6667 2666.6667"
   height="2666.6667"
   width="2666.6667"
   xml:space="preserve"
   id="svg2"
   version="1.1"><metadata
     id="metadata8"><rdf:RDF><cc:Work
         rdf:about=""><dc:format>image/svg+xml</dc:format><dc:type
           rdf:resource="http://purl.org/dc/dcmitype/StillImage" /></cc:Work></rdf:RDF></metadata><defs
     id="defs6" /><g
     transform="matrix(1.3333333,0,0,-1.3333333,0,2666.6667)"
     id="g10"><g
       transform="scale(0.1)"
       id="g12"><g
         transform="scale(1.22699)"
         id="g14"><path
           id="path16"
           style="fill:none;fill-opacity:1;fill-rule:nonzero;stroke:none"
           d="M 16300,0 H 0 V 16300 H 16300 V 0" /></g><path
         id="path18"
         style="fill:#b71e4e;fill-opacity:1;fill-rule:nonzero;stroke:none"
         d="m 7035.56,5101.7 -462.4,-1162.9 75.25,-71.9 c 0,0 38.56,16.5 51.16,36.2 12.6,19.6 464.38,1155.8 464.38,1155.8 l -128.39,42.8" /><path
         id="path20"
         style="fill:#454547;fill-opacity:1;fill-rule:nonzero;stroke:none"
         d="m 7271.95,5893.6 c 0,0 -208.84,-639.6 -236.39,-714.4 -27.55,-74.9 28.42,-168.2 28.42,-168.2 l 175.71,235.9 225.78,538.2 -193.52,108.5" /><path
         id="path22"
         style="fill:#2c5e9c;fill-opacity:1;fill-rule:nonzero;stroke:none"
         d="m 5806.83,4152.6 c 0,0 -242.38,-60.5 -285.15,-185.3 -42.77,-124.8 -32.69,-377.8 -62.68,-516.8 -30,-139 9.13,-235.2 9.13,-235.2 0,0 1105.03,-60.7 1133.54,-39.3 28.52,21.4 926.73,174.7 926.73,174.7 0,0 74.86,110.5 0,188.9 -74.85,78.4 -548.91,204.1 -548.91,204.1 l -406.33,300.4 c 0,0 -602.37,-73.2 -623.76,-59 -21.39,14.3 -142.57,167.5 -142.57,167.5" /><path
         id="path24"
         style="fill:#3970c0;fill-opacity:1;fill-rule:nonzero;stroke:none"
         d="m 5896.83,4037.7 c -24.07,-16 -256.64,-40.1 -288.72,-120.3 -32.07,-80.2 -64.15,-320.8 -96.23,-457.1 -32.09,-136.4 -114.96,-238 29.4,-312.8 144.35,-74.9 572.08,3.6 743.17,-32.1 171.09,-35.6 406.33,-114 648.71,-82 242.37,32.1 556.03,121.2 602.37,249.5 46.34,128.4 -49.9,219.7 -149.7,248.9 -99.8,29.2 -377.82,64.8 -509.7,186 -131.88,121.2 -424.16,477.6 -466.93,491.9 -42.77,14.2 -103.37,-11.6 -103.37,-11.6 l -310.09,-41.9 -98.91,-118.5" /><path
         id="path26"
         style="fill:#e7ab83;fill-opacity:1;fill-rule:nonzero;stroke:none"
         d="m 5183.17,7912 c 0,0 379.5,-519.4 454.35,-738.6 74.85,-219.2 -171.09,-630.1 -176.44,-978 -5.34,-347.9 106.93,-861.2 155.05,-1304.9 48.12,-443.8 88.22,-981.1 88.22,-981.1 0,0 200.49,-50.2 211.19,-42.5 10.69,7.7 187.13,585.1 187.13,585.1 v 3149.1 c 0,0 -633.15,588.2 -672.12,620.2 -38.97,32.1 -247.38,-309.3 -247.38,-309.3" /><path
         id="path28"
         style="fill:#deddda;fill-opacity:1;fill-rule:nonzero;stroke:none"
         d="m 5904.84,4863.8 c -57.52,-11.4 -182.15,-10.5 -285.06,-7.3 46.47,-436.7 84.57,-947.1 84.57,-947.1 0,0 200.49,-50.2 211.19,-42.5 10.69,7.7 187.13,585.1 187.13,585.1 v 844.9 c -93.79,-252.1 -168.77,-427.3 -197.83,-433.1" /><path
         id="path30"
         style="fill:#fbc398;fill-opacity:1;fill-rule:nonzero;stroke:none"
         d="m 4236.73,9362.8 -16.04,-291.4 240.59,-221.8 c 0,0 417.04,-641.6 785.94,-1002.5 368.91,-360.9 529.31,-601.5 561.39,-753.9 32.08,-152.4 -256.64,-633.5 -216.53,-1026.5 40.09,-393 152.37,-1563.9 152.37,-1820.5 0,-256.6 -40.1,-336.8 -40.1,-336.8 0,0 192.48,-200.5 288.71,-160.4 96.24,40.1 184.45,144.3 192.48,168.4 8.01,24.1 120.29,280.7 120.29,280.7 0,0 24.06,777.9 80.2,1291.2 56.14,513.2 168.42,1299.2 168.42,1299.2 0,0 112.27,392.9 80.19,537.3 -32.08,144.4 -264.65,577.4 -320.79,713.8 -56.14,136.3 -481.18,1216.3 -938.31,1662.7 -457.13,446.5 -1138.81,-339.5 -1138.81,-339.5" /><path
         id="path32"
         style="fill:#252323;fill-opacity:1;fill-rule:nonzero;stroke:none"
         d="m 5487.82,10092.6 -112.28,-155 v -235.3 c 0,0 -465.15,-187.1 -727.13,-304.7 -261.97,-117.6 -427.72,-326.2 -427.72,-326.2 0,0 -395.64,304.8 -438.41,684.4 -42.77,379.6 112.28,1042.6 989.1,1160.2 876.83,117.6 716.44,-823.4 716.44,-823.4" /><path
         id="path34"
         style="fill:#fbc398;fill-opacity:1;fill-rule:nonzero;stroke:none"
         d="m 6658.7,9889.5 c 0,0 -395.64,69.5 -662.96,96.2 -267.33,26.7 -620.2,-48.1 -620.2,-48.1 0,0 -272.67,237 -438.42,490.1 -165.74,253 -165.74,488.3 -165.74,488.3 0,0 876.83,465.1 1860.59,513.3 983.76,48.1 26.73,-1539.8 26.73,-1539.8" /><path
         id="path36"
         style="fill:#3970c0;fill-opacity:1;fill-rule:nonzero;stroke:none"
         d="m 8396.32,11258.2 c 0,0 -256.63,90.9 -748.51,171.1 -491.88,80.1 -1015.84,0 -1015.84,0 0,0 21.38,-625.6 21.38,-962.4 0,-336.9 5.35,-577.4 5.35,-577.4 l 155.05,-32.1 c 0,0 16.04,-550.7 454.46,-588.1 438.41,-37.5 764.55,459.8 860.78,502.5 96.24,42.8 613.68,663 613.68,663 0,0 113.45,37.4 49.29,262 -64.15,224.5 -160.39,438.4 -160.39,438.4 l -235.25,123" /><path
         id="path38"
         style="fill:#372a23;fill-opacity:1;fill-rule:nonzero;stroke:none"
         d="m 9114.95,12311 c 0,0 -237.44,64.6 -445.96,-58.4 -208.51,-122.9 -187.13,-341.7 -213.86,-587.9 -26.73,-246.1 90.9,-411.9 122.97,-433.3 32.08,-21.4 283.37,-122.9 283.37,-122.9 l 378.54,481.1 -125.06,721.4" /><path
         id="path40"
         style="fill:#fbc398;fill-opacity:1;fill-rule:nonzero;stroke:none"
         d="m 9333.08,10509.7 c 0,0 -241.53,-58.9 -377.95,-74.9 -136.43,-16 -212.46,0 -212.46,0 0,0 -30.9,197.8 -121.8,449.1 -90.89,251.3 -224.55,374.3 -224.55,374.3 0,0 327.26,-16.1 468.38,21.4 141.12,37.4 412.74,80.9 485.44,67.2 72.71,-13.8 282.63,-271.2 282.63,-271.2 l -299.69,-565.9" /><path
         id="path42"
         style="fill:#3a70c0;fill-opacity:1;fill-rule:nonzero;stroke:none"
         d="m 9205.64,12289.5 c 0,0 -54.85,35.2 -90.69,21.5 -35.85,-13.7 -144.42,-101.9 -156.97,-140.9 -12.56,-38.9 20.39,-98.2 20.39,-98.2 0,0 80.44,-6.3 98.15,33.4 17.71,39.6 129.12,184.2 129.12,184.2" /><path
         id="path44"
         style="fill:#df9866;fill-opacity:1;fill-rule:nonzero;stroke:none"
         d="m 9302.99,11058.7 c 0,0 -22.97,-333.3 -0.97,-406.8 21.99,-73.6 31.07,-142.2 31.07,-142.2 0,0 396.18,15.2 449.93,69.5 53.76,54.2 -258.61,443.5 -282.4,475.4 -23.79,32 -197.63,4.1 -197.63,4.1" /><path
         id="path46"
         style="fill:#523d38;fill-opacity:1;fill-rule:nonzero;stroke:none"
         d="m 10200.2,11625.7 c 17.3,0.6 119.1,55.8 119.1,55.8 0,0 194,191.5 -194.2,428.9 -388.09,237.5 -734.44,260.4 -991.74,153.2 -257.29,-107.2 -418.27,-632.4 -385.55,-851.3 32.72,-218.9 177.82,-212.9 177.82,-212.9 l 342.09,17 c 0,0 416.14,-179.5 445.2,-153.1 29.06,26.3 215.54,235.3 237.38,270.6 21.86,35.3 249.9,291.8 249.9,291.8" /><path
         id="path48"
         style="fill:#8b6b55;fill-opacity:1;fill-rule:nonzero;stroke:none"
         d="m 8924.5,11199.3 c -7.58,0 -52.07,1.7 -95.31,39.3 43.24,-37.6 87.74,-39.3 95.31,-39.3 0.53,0 0.88,0 1.03,0.1 -0.15,-0.1 -0.5,-0.1 -1.03,-0.1 m 343.98,16.8 c -0.01,0 -0.02,0 -0.02,0 0,0 0.01,0 0.02,0 m -0.03,0 c -0.02,0 -0.04,0 -0.06,0.1 0.02,-0.1 0.04,-0.1 0.06,-0.1 m -0.2,0.1 v 0 0 m -0.07,0 c 0,0 -0.01,0 -0.01,0 0,0 0.01,0 0.01,0 m -0.07,0.1 v 0 0 m -0.2,0.1 c -0.03,0 -0.07,0 -0.09,0 0.02,0 0.06,0 0.09,0 m -438.82,22.3 c -0.04,0 -0.07,0 -0.11,0.1 0.04,-0.1 0.07,-0.1 0.11,-0.1" /><path
         id="path50"
         style="fill:#372a23;fill-opacity:1;fill-rule:nonzero;stroke:none"
         d="m 8747.71,11413 c -20.51,138.8 20.88,371.1 137.37,583.2 -103.92,-197.6 -157.25,-448.2 -137.37,-583.2" /><path
         id="path52"
         style="fill:#42322c;fill-opacity:1;fill-rule:nonzero;stroke:none"
         d="m 9632.77,11075.6 c -124.69,37.7 -349.62,134.2 -364.29,140.5 -0.01,0 -0.02,0 -0.02,0 -0.01,0 -0.01,0 -0.01,0 -0.02,0 -0.04,0 -0.06,0.1 -0.05,0 -0.1,0 -0.14,0 v 0 c -0.03,0 -0.05,0 -0.07,0 0,0 -0.01,0 -0.01,0 -0.02,0.1 -0.04,0.1 -0.06,0.1 v 0 c -0.08,0 -0.14,0 -0.2,0.1 -0.03,0 -0.07,0 -0.09,0 -0.06,0 -0.1,0 -0.1,0 v 0 l -342.09,-17 v 0 c 0,0 -0.03,0 -0.1,0 -0.15,-0.1 -0.5,-0.1 -1.03,-0.1 -7.57,0 -52.07,1.7 -95.31,39.3 -0.03,0 -0.07,0 -0.1,0.1 -0.04,0 -0.07,0 -0.11,0.1 -34.15,29.7 -67.49,82 -81.17,173.5 v 0 0 c -0.03,0.2 -0.07,0.5 -0.1,0.7 -19.88,135 33.45,385.6 137.37,583.2 5.36,9.8 10.88,19.5 16.55,29.2 16.23,-63.9 119.24,-421.3 448.51,-678.6 179.67,-140.4 238.15,-224.7 282.63,-271.2" /><path
         id="path54"
         style="fill:#372a23;fill-opacity:1;fill-rule:nonzero;stroke:none"
         d="m 10071.5,11752.7 c 0,0 -125.37,124.8 -287.74,178.4 0,0 137.43,-126.5 143.55,-205.7 6.14,-79.3 -113.35,-71.3 -113.35,-71.3 0,0 -242.33,166.4 -480.87,220.6 0,0 300.42,-243.5 337.95,-411.8 37.53,-168.2 278.11,44.3 276.46,57.8 -1.65,13.5 124,232 124,232" /><path
         id="path56"
         style="fill:#fbc398;fill-opacity:1;fill-rule:nonzero;stroke:none"
         d="m 9472.8,11317.8 c 0,0 52.41,188.4 -81.37,193.1 -133.79,4.7 -180.07,-330.9 -134.25,-391.6 45.81,-60.6 45.81,-60.6 45.81,-60.6 0,0 52.6,-330 102.11,-432 49.51,-102 369.7,-271.5 419.87,-273.3 50.16,-1.7 224.13,377.6 224.13,377.6 0,0 151.7,6.6 161.6,19 10,12.4 -36.5,263.2 -37.4,289 -0.8,25.9 119.2,259.8 138.9,339.9 19.8,80.2 14.7,282.2 7.1,302.6 -7.6,20.5 -206.2,69.1 -247.8,71.2 -41.5,2 -176.35,4.4 -228.86,-26.8 -52.52,-31.1 -147.19,-246.8 -218.73,-328.7 -71.54,-81.9 -100.36,-98.4 -151.11,-79.4" /><path
         id="path58"
         style="fill:#372a23;fill-opacity:1;fill-rule:nonzero;stroke:none"
         d="m 10002.4,11753.5 c 0,0 -77.32,-139.8 -243.46,-141 -166.15,-1.2 -47.11,-81.6 -47.11,-81.6 0,0 134.33,6.8 214.57,56.8 80.2,49.9 145.1,165 145.1,165 l -69.1,0.8" /><path
         id="path60"
         style="fill:#fbc398;fill-opacity:1;fill-rule:nonzero;stroke:none"
         d="m 7834.94,11167.3 c 0,0 -272.67,-97.4 -433.07,-377.5 -160.4,-280.1 -37.43,-579.6 117.62,-686.5 155.05,-106.9 347.53,-117.6 347.53,-117.6 0,0 -48.12,-362.2 -90.9,-718.5 -42.77,-356.2 -54.32,-607.4 -54.32,-607.4 0,0 -101.12,-299.4 -124.98,-791.3 -23.86,-491.9 -23.86,-989.1 -45.25,-1160.2 l 315.45,-32.1 c 0,0 374.25,1138.8 427.72,1475.6 53.46,336.9 42.77,866.2 101.58,1069.3 58.81,203.2 346.35,732.5 346.35,973.1 0,240.6 -100.41,417 -100.41,417 0,0 -149.7,630.9 -807.32,556.1" /><path
         id="path62"
         style="fill:#df9866;fill-opacity:1;fill-rule:nonzero;stroke:none"
         d="m 7845.63,10199.6 c -76.64,-7 -280.36,-7.2 -417.48,-5 27.48,-37.6 58.68,-68.8 91.34,-91.3 155.05,-106.9 347.53,-117.6 347.53,-117.6 7.88,59.9 -21.39,213.9 -21.39,213.9" /><path
         id="path64"
         style="fill:#f5f6f5;fill-opacity:1;fill-rule:nonzero;stroke:none"
         d="m 5706.93,4829.9 c 21.79,-263.5 37.52,-487.6 37.52,-583.7 0,-256.6 -40.1,-336.8 -40.1,-336.8 0,0 192.48,-200.5 288.71,-160.4 96.24,40.1 184.45,144.3 192.48,168.4 8.01,24.1 120.29,280.7 120.29,280.7 0,0 9.32,301.1 29.87,652.3 -209.2,-16.7 -484.92,-20 -628.77,-20.5" /><path
         id="path66"
         style="fill:#fbc398;fill-opacity:1;fill-rule:nonzero;stroke:none"
         d="m 7551.57,6708.3 c 0,0 -5.34,-49.9 -40.99,-99.8 -35.64,-49.9 -199.6,-246 -213.86,-263.8 -14.25,-17.8 -28.51,-181.8 -28.51,-181.8 0,0 -64.16,-128.3 -60.6,-163.9 3.57,-35.7 32.08,-67.8 32.08,-67.8 0,0 17.82,-121.1 35.65,-139 17.81,-17.8 253.06,-39.2 276.23,-32 23.17,7.1 197.82,153.2 212.08,185.3 14.26,32.1 21.38,499 32.08,516.8 10.69,17.9 71.29,213.9 71.29,213.9 0,0 -128.32,64.2 -146.14,74.8 -17.82,10.7 -169.31,-42.7 -169.31,-42.7" /><path
         id="path68"
         style="fill:#df9866;fill-opacity:1;fill-rule:nonzero;stroke:none"
         d="m 7428.6,6002.5 h -41 c 0,0 -36.52,-10.7 -76.62,-50.8 -40.1,-40.1 -55.71,-103.5 -55.71,-103.5 l -15.58,83 c 0,0 60.59,130.1 138.12,146.2 77.52,16 50.79,-74.9 50.79,-74.9" /><path
         id="path70"
         style="fill:#df9866;fill-opacity:1;fill-rule:nonzero;stroke:none"
         d="m 7369.79,6130.8 c 0,0 -89.71,-6.9 -143.76,-62.2 l 42.18,94.3 c 0,0 179.1,48.1 176.43,8 -2.67,-40.1 -74.85,-40.1 -74.85,-40.1" /><path
         id="path72"
         style="fill:#df9866;fill-opacity:1;fill-rule:nonzero;stroke:none"
         d="m 7458.01,6334 c 0,0 30.29,-155.9 -24.95,-206.3 -55.25,-50.3 76.91,-70.9 76.91,-70.9 0,0 14.87,186.3 -51.96,277.2" /><path
         id="path74"
         style="fill:#ec2c68;fill-opacity:1;fill-rule:nonzero;stroke:none"
         d="m 7079.3,4947.5 -32.41,-61.3 -697.92,-1785.3 c 0,0 40.7,-48.2 99.03,-23.5 l 683.87,1839.8 -52.57,30.3" /><path
         id="path76"
         style="fill:#636567;fill-opacity:1;fill-rule:nonzero;stroke:none"
         d="m 7444.64,6170.9 c 0,0 -64.16,-16 -74.85,-40.1 -10.69,-24 0,-90.8 0,-90.8 0,0 43.36,-77.6 35.05,-123 -8.32,-45.5 -366.53,-943.7 -369.21,-997.1 -2.67,-53.5 69.51,-64.2 93.56,-50.8 24.07,13.3 419.71,989.1 425.05,1021.2 5.35,32 -72.17,278 -109.6,280.6" /><path
         id="path78"
         style="fill:#2c5e9c;fill-opacity:1;fill-rule:nonzero;stroke:none"
         d="m 14459.3,4045.7 c 0,0 -229.3,-74.8 -283.1,-112.3 -53.8,-37.4 -39.4,-583.9 -39.4,-583.9 l 557.7,-41.6 h 871.5 c 0,0 443.8,26.7 491.9,26.7 48.1,0 112.3,26.8 112.3,26.8 0,0 37.4,144.3 0,192.4 -37.5,48.2 -287.1,44.6 -640.8,161.3 -353.7,116.7 -439.2,218.3 -599.6,223.7 -160.4,5.3 -470.5,106.9 -470.5,106.9" /><path
         id="path80"
         style="fill:#3970c0;fill-opacity:1;fill-rule:nonzero;stroke:none"
         d="m 14510.1,3981.6 h -184.5 c 0,0 -88.2,-72.2 -112.3,-176.5 -24,-104.2 -120.3,-649.6 -88.2,-721.8 32.1,-72.1 409,-93.8 574.8,-73.6 165.7,20.2 347.5,9.5 347.5,9.5 h 85.5 c 0,0 213.9,-72.5 481.2,-9.5 267.3,62.9 545.4,121.8 577.4,169.9 32.1,48.1 53.5,229.9 0,251.3 -53.4,21.3 -486.5,128.3 -561.3,192.4 -74.9,64.2 -508,475.9 -556.1,507.9 -48.1,32.1 -139,47.7 -197.8,45.3 -58.8,-2.5 -366.2,-194.9 -366.2,-194.9" /><path
         id="path82"
         style="fill:#e7ab83;fill-opacity:1;fill-rule:nonzero;stroke:none"
         d="m 14249.5,3891.4 c 0,0 -89.6,1159.5 -169.8,1747.6 -80.2,588.1 -22.6,801.9 84.9,1154.8 107.5,352.9 193.3,669 261.4,1310.3 68,641.2 509.1,304.4 509.1,304.4 0,0 -376.9,-2325.5 -384.9,-2401.8 -8.1,-76.3 40.1,-1289.4 40.1,-1352.5 0,-63.1 -48.2,-756.7 -48.2,-762.8 0,-6.1 -144.4,-102.4 -144.4,-102.4 l -148.2,102.4" /><path
         id="path84"
         style="fill:#deddda;fill-opacity:1;fill-rule:nonzero;stroke:none"
         d="m 14249.5,3891.4 148.2,-102.4 c 0,0 144.4,96.3 144.4,102.4 0,6.1 48.2,699.7 48.2,762.8 -165.9,0 -307.7,0 -405.5,0 37.7,-412.9 64.7,-762.8 64.7,-762.8" /><path
         id="path86"
         style="fill:#fbc398;fill-opacity:1;fill-rule:nonzero;stroke:none"
         d="m 14638.4,9664.9 -200.5,-149.7 c 0,0 16,-1860.6 -72.2,-2229.5 -88.2,-368.9 -216.5,-649.6 -184.4,-1427.5 32,-777.9 208.5,-1323.3 184.4,-1596 -24,-272.6 -40.1,-392.9 -40.1,-392.9 0,0 128.3,-192.5 312.8,-168.4 184.4,24 328.8,417 328.8,417 0,0 -120.3,705.7 -40.1,1235 80.2,529.3 120.3,1459.6 120.3,1459.6 0,0 192.5,288.7 240.6,561.4 48.1,272.7 43.5,385 43.5,385 0,0 193.6,336.1 362.8,1026.5 169.2,690.4 202.3,1004.3 202.3,1004.3 0,0 -897.3,351 -1041.7,246.8 -144.3,-104.3 -216.5,-371.6 -216.5,-371.6" /><path
         id="path88"
         style="fill:#252323;fill-opacity:1;fill-rule:nonzero;stroke:none"
         d="m 14550.2,11319.6 c 0,0 -304.8,-311.7 -393,-725.2 -88.2,-413.6 120.3,-690.5 196.5,-804.7 76.2,-114.1 84.2,-274.5 84.2,-274.5 l 1425.6,-39.4 82.1,405.6 c 0,0 -352.9,1189.6 -513.3,1326 -160.4,136.3 -391.6,360.9 -391.6,360.9 l -490.5,-248.7" /><path
         id="path90"
         style="fill:#e7ab83;fill-opacity:1;fill-rule:nonzero;stroke:none"
         d="m 15730,12881.7 c 0,0 151,-1146 -5.2,-1899.4 l -480.4,29.5 -694.2,307.8 c 0,0 162.1,772.6 -167.6,1376.8 l 263.8,456.2 h 216.5 l 867.1,-270.9" /><path
         id="path92"
         style="fill:#3970c0;fill-opacity:1;fill-rule:nonzero;stroke:none"
         d="m 14172.4,14799.3 c 0,0 -115.2,-149.7 -182.4,-509.7 -67.2,-360 161,-1137 161,-1137 l 231.6,-456.2 c 0,0 613.1,92.7 916.1,135.4 302.9,42.8 431.3,49.9 431.3,49.9 v 192.5 c 0,0 249.5,224.6 171,545.3 -78.4,320.8 -428.6,487.7 -592.1,641.3 -163.5,153.6 -733.2,645.5 -733.2,645.5 0,0 -360.6,-35.5 -403.3,-107" /><path
         id="path94"
         style="fill:#fbc398;fill-opacity:1;fill-rule:nonzero;stroke:none"
         d="m 14293.4,15629.7 c 0,0 25.1,-60.5 28.6,-99.7 3.6,-39.2 -28.6,-538.2 -28.6,-538.2 l -138.9,-221 c 0,0 310.1,10.7 509.7,-74.8 199.6,-85.6 648.8,-467 661.2,-463.4 12.5,3.6 -336.8,442 -344,474.1 -7.1,32 9.7,453.1 9.7,453.1 0,0 -187.9,592 -223.5,620.1 -35.7,28.2 -213.9,145.8 -238.8,138.6 -8.2,-2.3 -6.8,3.8 -6.4,9.9 0.9,12.5 -2.4,25 -100.6,-34.8 -146.1,-89.1 -128.4,-263.9 -128.4,-263.9" /><g
         transform="scale(1.03584)"
         id="g96"><path
           id="path98"
           style="fill:#372a23;fill-opacity:1;fill-rule:nonzero;stroke:none"
           d="m 13622.8,16241.2 c 0,0 -288.4,58.8 -419.1,-372.9 -130.7,-431.7 -158.3,-682.9 -31,-1054.5 127.3,-371.7 106.7,-526.5 106.7,-526.5 0,0 220.2,168.6 192.7,495.5 -27.5,326.9 -27.5,612.6 92.9,834.5 120.4,221.9 175.5,535 175.5,535 l -117.7,88.9" /></g><g
         transform="scale(1.03365)"
         id="g100"><path
           id="path102"
           style="fill:#3a70c0;fill-opacity:1;fill-rule:nonzero;stroke:none"
           d="m 13741.2,16286.3 c 0,0 -61.5,13.7 -89.5,-10.7 -28,-24.4 -97.3,-140.6 -95.7,-180.2 1.6,-39.6 51.2,-82.5 51.2,-82.5 0,0 75.2,21.1 78.1,63 2.9,41.9 55.9,210.4 55.9,210.4" /></g><path
         id="path104"
         style="fill:#df9866;fill-opacity:1;fill-rule:nonzero;stroke:none"
         d="m 14718.6,15712.1 c 0,0 93.2,-320.7 139.1,-382.3 46,-61.5 133.4,-170 133.4,-170 0,0 300.8,310.4 332.6,379.9 31.8,69.4 -384.8,214.9 -418.1,236.7 -33.4,21.8 -187,-64.3 -187,-64.3" /><g
         transform="scale(1.04736)"
         id="g106"><path
           id="path108"
           style="fill:#523d38;fill-opacity:1;fill-rule:nonzero;stroke:none"
           d="m 14671.1,15804.8 c 15.3,6.2 88.4,89.2 88.4,89.2 0,0 110.9,235.4 -315,320.7 -426,85.3 -744,-8 -939.4,-188.6 -195.4,-180.6 -167.2,-704.4 -65.9,-889.9 101.2,-185.5 207.9,-213.3 207.9,-213.3 l 322.5,208.6 c 0,0 432,-24.2 449.4,9 17.5,33.1 115.9,281.8 124,320.6 7.9,38.8 128.1,343.7 128.1,343.7" /></g><path
         id="path110"
         style="fill:#8d8681;fill-opacity:1;fill-rule:nonzero;stroke:none"
         d="m 14075.3,15853.7 c -30,55.2 -54.8,132.3 -69.8,222.1 0.9,2.4 1.8,4.7 2.7,7.1 14.2,-93.5 37.7,-175 67.1,-229.2" /><g
         transform="scale(1.00911)"
         id="g112"><path
           id="path114"
           style="fill:#372a23;fill-opacity:1;fill-rule:nonzero;stroke:none"
           d="m 13879.1,15930.7 c -18.3,109.7 -21.8,238.4 -2,369.3 -15.9,-120.2 -12.5,-249.9 4.7,-362.3 -0.9,-2.3 -1.8,-4.6 -2.7,-7" /></g><g
         transform="scale(1.01114)"
         id="g116"><path
           id="path118"
           style="fill:#42322c;fill-opacity:1;fill-rule:nonzero;stroke:none"
           d="m 14135.9,15457.4 c 0,0 -0.1,0 -0.2,0.1 -5.9,1.6 -113.2,34 -215.1,220.9 v 0 0 c -0.2,0.2 -0.3,0.4 -0.4,0.6 -29.1,53.6 -52.3,134.2 -66.4,226.6 -17.1,112.1 -20.5,241.6 -4.6,361.6 1.7,10.9 3.5,21.9 5.5,32.8 36.8,-53.8 254.1,-350.6 647.4,-477.5 214.7,-69.2 297.7,-127.5 354.7,-155.6 -28.2,-1.6 -62.1,-2.2 -97.7,-2.2 -130.2,0 -285.4,8.5 -289,8.8 -0.1,0 -0.1,0 -0.1,0 l -334.1,-216.1" /></g><g
         transform="scale(1.02468)"
         id="g120"><path
           id="path122"
           style="fill:#372a23;fill-opacity:1;fill-rule:nonzero;stroke:none"
           d="m 14835.2,16227.7 c 0,0 -156.9,72.3 -323.6,66.8 0,0 168.4,-69.7 200.7,-140.3 32.2,-70.6 -80.1,-103.3 -80.1,-103.3 0,0 -277.8,71 -514.7,40.5 0,0 357.1,-122.1 448.1,-263.7 90.8,-141.6 239.9,134 233.9,145.8 -6,11.8 35.7,254.2 35.7,254.2" /></g><g
         transform="scale(1.02229)"
         id="g124"><path
           id="path126"
           style="fill:#fbc398;fill-opacity:1;fill-rule:nonzero;stroke:none"
           d="m 14466.4,15664.7 c 0,0 -15.2,190.6 -139.8,149.9 -124.4,-40.7 -54,-364.5 8.5,-404.8 62.6,-40.3 62.6,-40.3 62.6,-40.3 0,0 159.4,-285.3 239.2,-362.4 79.8,-77 430.9,-124.8 477.6,-109.6 46.7,15.3 78.7,422.3 78.7,422.3 0,0 137.2,57.1 142.1,71.9 4.9,14.7 -122.1,229.3 -131.6,252.8 -9.6,23.5 21.9,278.7 13.1,358.9 -8.9,80.3 -81.6,264.1 -95.4,280.4 -13.9,16.2 -212.6,-6 -251.5,-18.1 -38.8,-12.1 -163.5,-55.4 -201.3,-101.6 -37.6,-46.3 -52,-276.3 -90.2,-375.6 -38.1,-99.3 -59,-124.2 -112,-123.8" /></g><g
         transform="scale(1.02014)"
         id="g128"><path
           id="path130"
           style="fill:#372a23;fill-opacity:1;fill-rule:nonzero;stroke:none"
           d="m 14837.4,16277.4 c 0,0 -24,-154.7 -176.5,-211.9 -152.6,-57.2 -15.8,-90.9 -15.8,-90.9 0,0 121.3,51.5 178.3,124.6 56.9,73 77.9,200.8 77.9,200.8 l -63.9,-22.6" /></g><path
         id="path132"
         style="fill:#fbc398;fill-opacity:1;fill-rule:nonzero;stroke:none"
         d="m 14254.3,14660.3 c 0,0 -204.2,-156.8 -264.3,-370.7 -60,-213.8 -31.5,-466.9 18.4,-720 49.9,-253 142.6,-417 142.6,-417 l 203.1,35.7 385,-866.2 c 0,0 24.9,-370.7 167.5,-680.8 142.6,-310.1 655.8,-1179.8 655.8,-1179.8 l 285.2,82 c 0,0 -224.6,769.9 -306.6,1194.1 -81.9,424.1 -295.8,823.3 -324.3,894.6 -28.5,71.3 -135.4,841.2 -135.4,841.2 0,0 106.9,274.5 67.7,584.5 -39.2,310.2 -531.1,741.4 -894.7,602.4" /><path
         id="path134"
         style="fill:#df9866;fill-opacity:1;fill-rule:nonzero;stroke:none"
         d="m 15031.3,13856.6 50,-383.2 c 0,0 106.9,274.5 67.7,584.5 -6,47.1 -22.4,97 -47.2,147.2 l -70.5,-348.5" /><path
         id="path136"
         style="fill:#df9866;fill-opacity:1;fill-rule:nonzero;stroke:none"
         d="m 14354.1,13188.3 c 0,0 -231.7,452.6 -249.5,463.3 -9.5,5.7 -67.8,29.7 -120.1,50.9 7.1,-44.2 15.1,-88.5 23.9,-132.9 49.9,-253 142.6,-417 142.6,-417 l 203.1,35.7" /><path
         id="path138"
         style="fill:#f5f6f5;fill-opacity:1;fill-rule:nonzero;stroke:none"
         d="m 14336.2,4621.1 c 23.4,-148.4 37.5,-268.7 29.5,-358.9 -24,-272.6 -40.1,-392.9 -40.1,-392.9 0,0 128.3,-192.5 312.8,-168.4 184.4,24 328.8,417 328.8,417 0,0 -40.1,235.4 -58.6,536.3 -191.1,-12.9 -405.2,-24.6 -572.4,-33.1" /><path
         id="path140"
         style="fill:#ec2c68;fill-opacity:1;fill-rule:nonzero;stroke:none"
         d="m 15694.3,9003.7 c 7.1,-10.7 -50.8,-84.6 -50.8,-84.6 l -596.1,-5899.9 c 0,0 53.4,-21.4 85.5,0 l 614.9,5934.6 -53.5,49.9" /><path
         id="path142"
         style="fill:#636567;fill-opacity:1;fill-rule:nonzero;stroke:none"
         d="m 15694.3,10036.5 c 0,0 -312.8,-24.1 -328.8,-40.1 -16,-16.1 -53.5,-133.7 -21.4,-243.3 32.1,-109.6 69.5,-168.4 74.9,-176.4 5.3,-8 211.2,-652.3 224.5,-657.6 13.4,-5.4 131,-5.4 141.7,0 10.7,5.3 219.2,874.1 219.2,874.1 0,0 -181.8,-29.4 -181.8,-53.5 0,-24 -56.1,-612.1 -73.5,-620.1 -17.4,-8.1 -72.7,-10.7 -81.1,-2.7 -8.4,8 -155.5,590.8 -155.5,590.8 l 65.5,9.7 c 0,0 165,45.8 191.2,75.8 26.2,30 24,163.1 13.3,173.8 -10.7,10.7 -88.2,69.5 -88.2,69.5" /><path
         id="path144"
         style="fill:#fbc398;fill-opacity:1;fill-rule:nonzero;stroke:none"
         d="m 15562.4,10461.5 c 0,0 -19.6,-155 0,-272.6 19.6,-117.7 105.2,-232.6 102.5,-294.1 -2.7,-61.5 -41.6,-155.1 -55.6,-163.1 -13.9,-8 -55.6,-24 -55.6,-24 0,0 41.7,-58.8 73.8,-64.2 32.1,-5.3 66.8,18.7 66.8,18.7 0,0 66.2,-25.6 101.3,-19.5 35.1,6.2 52,22.2 52,22.2 l 57.9,8 c 0,0 69.5,21.4 80.2,32.1 10.7,10.7 197.8,208.5 187.1,302.1 -10.7,93.5 -229.9,326.1 -248.6,371.6 -18.7,45.4 -76.6,164.8 -76.6,164.8 0,0 -99.8,62.4 -113.2,49 -13.4,-13.3 -172,-131 -172,-131" /><path
         id="path146"
         style="fill:#df9866;fill-opacity:1;fill-rule:nonzero;stroke:none"
         d="m 15945.6,9881.4 -98,-216.5 51,7.1 z" /><path
         id="path148"
         style="fill:#df9866;fill-opacity:1;fill-rule:nonzero;stroke:none"
         d="m 15694.3,9662.2 c 0,0 19.8,-7.6 43.4,-13.5 53.8,96.5 66.2,232.7 66.2,232.7 0,0 0,0 -34.7,-88.2 -34.8,-88.2 -74.9,-131 -74.9,-131" /><path
         id="path150"
         style="fill:#df9866;fill-opacity:1;fill-rule:nonzero;stroke:none"
         d="m 16004.4,9793.2 c -1.5,-4.5 -24.7,-55.8 -46.4,-102.1 12.8,5 23.9,10.1 27.7,13.9 7.1,7.1 91.9,96.6 145,183.4 -55.5,-39.9 -124.7,-90.4 -126.3,-95.2" /></g></g></svg>