<?xml version="1.0" encoding="UTF-8" standalone="no"?>
<svg
   xmlns:dc="http://purl.org/dc/elements/1.1/"
   xmlns:cc="http://creativecommons.org/ns#"
   xmlns:rdf="http://www.w3.org/1999/02/22-rdf-syntax-ns#"
   xmlns:svg="http://www.w3.org/2000/svg"
   xmlns="http://www.w3.org/2000/svg"
   viewBox="0 0 2666.6667 2666.6667"
   height="2666.6667"
   width="2666.6667"
   xml:space="preserve"
   id="svg2"
   version="1.1"><metadata
     id="metadata8"><rdf:RDF><cc:Work
         rdf:about=""><dc:format>image/svg+xml</dc:format><dc:type
           rdf:resource="http://purl.org/dc/dcmitype/StillImage" /></cc:Work></rdf:RDF></metadata><defs
     id="defs6" /><g
     transform="matrix(1.3333333,0,0,-1.3333333,0,2666.6667)"
     id="g10"><g
       transform="scale(0.1)"
       id="g12"><g
         transform="scale(1.22699)"
         id="g14"><path
           id="path16"
           style="fill:#ffffff;fill-opacity:1;fill-rule:nonzero;stroke:none"
           d="M 16300,0 H 0 V 16300 H 16300 V 0" /></g><path
         id="path18"
         style="fill:#545758;fill-opacity:1;fill-rule:nonzero;stroke:none"
         d="m 15004.6,12063.4 h -79 c -49,0 -88.8,-39.8 -88.8,-88.8 v -1490.5 c 0,-49.1 39.8,-88.8 88.8,-88.8 h 79 v 1668.1" /><path
         id="path20"
         style="fill:#bebdbb;fill-opacity:1;fill-rule:nonzero;stroke:none"
         d="M 16016.3,4880 H 12944 v -177.7 h 3072.3 V 4880" /><g
         transform="scale(1.14746)"
         id="g22"><path
           id="path24"
           style="fill:#bebdbb;fill-opacity:1;fill-rule:nonzero;stroke:none"
           d="M 16300,4252.87 H 13622.5 V 4098.01 H 16300 v 154.86" /></g><g
         transform="scale(1.02832)"
         id="g26"><path
           id="path28"
           style="fill:#bebdbb;fill-opacity:1;fill-rule:nonzero;stroke:none"
           d="m 16300,4745.61 h -140.2 V 12827.1 H 16300 V 4745.61" /></g><g
         transform="scale(1.04255)"
         id="g30"><path
           id="path32"
           style="fill:#100f0d;fill-opacity:1;fill-rule:nonzero;stroke:none"
           d="M 16300,4983.38 H 14908.2 V 6501.49 H 16300 V 4983.38" /></g><path
         id="path34"
         style="fill:#bebdbb;fill-opacity:1;fill-rule:nonzero;stroke:none"
         d="m 15335.3,7222.3 h -167.8 v 4923 h 167.8 v -4923" /><path
         id="path36"
         style="fill:#bebdbb;fill-opacity:1;fill-rule:nonzero;stroke:none"
         d="m 15167.5,7424.2 v -2633 h 167.8 v 2633 h -167.8" /><path
         id="path38"
         style="fill:#bebdbb;fill-opacity:1;fill-rule:nonzero;stroke:none"
         d="m 13672,8737.2 h 1732.4 v 177.6 H 13672 v -177.6" /><path
         id="path40"
         style="fill:#d3d2d0;fill-opacity:1;fill-rule:nonzero;stroke:none"
         d="m 15404.4,8816.1 h -3366 v -306 h 3366 v 306" /><path
         id="path42"
         style="fill:#b8613a;fill-opacity:1;fill-rule:nonzero;stroke:none"
         d="m 13137.4,9712.7 c 0,0 -52.9,-371.8 -93.9,-470.5 -41,-98.7 -151.3,-203.7 -226.1,-207.1 -74.8,-3.4 -78.1,223.6 -51.8,309.1 26.3,85.6 178.4,487 178.4,487 l 193.4,-118.5" /><path
         id="path44"
         style="fill:#545758;fill-opacity:1;fill-rule:nonzero;stroke:none"
         d="m 14198.7,9136.7 h -2356.2 c -66.2,0 -119.9,-53.6 -119.9,-119.8 v -248.7 c 0,-66.2 53.7,-119.9 119.9,-119.9 h 2356.2 c 66.2,0 119.9,53.7 119.9,119.9 v 248.7 c 0,66.2 -53.7,119.8 -119.9,119.8" /><path
         id="path46"
         style="fill:#b8613a;fill-opacity:1;fill-rule:nonzero;stroke:none"
         d="m 12295.3,9660.1 c 0,0 -289.8,29.6 -427.9,23 -138.2,-6.6 -816,-260.9 -937.8,-278.5 -121.7,-17.6 -444.1,37.8 -510,43 -65.8,5.2 -121.7,-80.3 -125,-90.2 -3.3,-9.9 174.4,-187.6 197.4,-190.8 23.1,-3.3 161.3,-46.1 480.4,-23.1 319.2,23.1 1036.4,39.5 1125.3,79 88.8,39.5 266.5,108.6 306,154.6 39.4,46.1 211.1,73.4 151.3,163.6 -59.8,90.1 -259.7,119.4 -259.7,119.4" /><path
         id="path48"
         style="fill:#b8613a;fill-opacity:1;fill-rule:nonzero;stroke:none"
         d="m 10698.5,9082.7 c 0,0 24.7,-64.2 19.7,-76.5 -4.9,-12.4 -182.6,-212.3 -244.3,-414.6 -61.7,-202.4 -61.7,-397.3 -96.2,-429.4 -34.6,-32.1 -111,81.4 -111,81.4 0,0 -130.8,180.2 -91.4,335.6 39.5,155.5 180.2,352.9 192.5,427 12.4,74 39.5,172.7 145.6,177.6 106.1,5 185.1,-101.1 185.1,-101.1" /><path
         id="path50"
         style="fill:#c37140;fill-opacity:1;fill-rule:nonzero;stroke:none"
         d="m 12153.6,9683.1 79,-171.1 c 0,0 -227.1,69.1 -417.9,59.3 -190.8,-9.9 -299.4,-65.9 -401.4,-82.3 -102,-16.5 -473.8,-181 -612,-190.8 -138.2,-9.9 -138.2,-9.9 -138.2,-9.9 l 29.6,-332.3 c 0,0 1168.1,32.9 1411.5,23 243.5,-9.9 595.6,6.6 681.1,29.6 85.6,23.1 243.3,542.9 258.2,750.2 14.9,207.3 -297.7,181 -376.6,177.7 -79,-3.3 -513.3,-253.4 -513.3,-253.4" /><path
         id="path52"
         style="fill:#c37140;fill-opacity:1;fill-rule:nonzero;stroke:none"
         d="m 10663.1,9288.3 c 0,0 -144.7,26.3 -233.6,51 -88.8,24.7 -155.4,66.6 -254.2,46.9 -98.7,-19.8 -103.6,-214.7 -93.7,-385 9.8,-170.3 -42,-343 -49.4,-422 -7.4,-78.9 -12.3,-103.6 0,-167.8 12.4,-64.1 0,-96.2 14.8,-123.3 14.8,-27.2 29.6,-39.5 29.6,-39.5 0,0 -12.3,-9.9 14.8,-51.8 27.2,-42 44.5,-56.8 44.5,-56.8 0,0 49.3,-71.6 74,-69.1 24.7,2.5 64.2,46.9 66.6,98.7 2.5,51.8 24.7,288.7 98.7,461.5 74.1,172.7 232.8,299.4 317.5,324.9 84.8,25.5 104.7,126.6 87.2,153.8 -17.4,27.2 -116.8,178.5 -116.8,178.5" /><path
         id="path54"
         style="fill:#252323;fill-opacity:1;fill-rule:nonzero;stroke:none"
         d="m 12063.1,12078.4 -78.9,-113.5 c 0,0 -246.8,-296.1 -306,-552.8 -59.3,-256.6 177.6,-666.2 217.1,-779.7 39.5,-113.6 49.4,-454.1 69.1,-587.4 19.8,-133.2 98.7,-389.8 98.7,-389.8 0,0 281.3,-14.9 518.2,-29.7 236.9,-14.8 434.3,0 434.3,0 l 153,34.6 c 0,0 -44.4,607 -59.2,868.6 -14.8,261.6 -192.5,735.4 -192.5,774.9 0,39.4 108.6,384.9 108.6,384.9 0,0 -577.4,498.5 -656.4,518.2 -79,19.8 -306,-128.3 -306,-128.3" /><path
         id="path56"
         style="fill:#100f0d;fill-opacity:1;fill-rule:nonzero;stroke:none"
         d="m 12918.4,11293.9 c 12.5,-84.9 104.9,-712.3 141.7,-933 31,-186.2 46.8,-561.5 52.1,-713.6 l 56.4,12.8 c 0,0 -44.4,607 -59.2,868.6 -14,248 -174.4,686.6 -191,765.2" /><path
         id="path58"
         style="fill:#e9eef1;fill-opacity:1;fill-rule:nonzero;stroke:none"
         d="m 13298.9,14042.8 c 0,0 32.6,-229.6 40,-246.9 7.4,-17.3 37,-136.1 46.9,-196.4 9.9,-60.2 2,-383.5 -43.4,-482.2 -45.4,-98.7 -134.3,-227 -146.6,-246.8 -12.4,-19.7 -12.5,-525.6 -34.7,-565.1 -22.1,-39.5 -76.4,-537.9 -76.4,-537.9 l -59.2,-79 c 0,0 -424.4,133.3 -572.5,207.3 -148,74 -389.9,182.6 -389.9,182.6 0,0 5,381.7 -21.4,641.6 -26.3,259.9 2.5,517 11.5,707.2 11.6,243.7 111.5,504.3 200.8,638.3 75,112.7 348.7,358.9 348.7,358.9 0,0 357.5,46.1 398.4,16.4 40.9,-29.6 126.4,-138.2 133,-174.4 6.6,-36.2 164.8,-223.6 164.8,-223.6" /><path
         id="path60"
         style="fill:#a45330;fill-opacity:1;fill-rule:nonzero;stroke:none"
         d="m 11883.8,10949.7 c 0,0 18.9,-70.8 69.9,-69.1 51,1.6 45.3,173.5 45.3,173.5 0,0 -73.2,33.8 -90.5,17.3 -17.3,-16.5 -24.7,-121.7 -24.7,-121.7" /><path
         id="path62"
         style="fill:#100f0d;fill-opacity:1;fill-rule:nonzero;stroke:none"
         d="m 14566,11423.5 h -1824.1 c -50.5,0 -91.5,-41 -91.5,-91.5 v -70.4 c 0,-50.5 41,-91.5 91.5,-91.5 H 14566 c 50.5,0 91.5,41 91.5,91.5 v 70.4 c 0,50.5 -41,91.5 -91.5,91.5" /><path
         id="path64"
         style="fill:#a45330;fill-opacity:1;fill-rule:nonzero;stroke:none"
         d="m 12472.8,9268.5 -240.2,243.5 -114.7,28.7 c 0,0 144.3,-196.5 354.9,-272.2" /><path
         id="path66"
         style="fill:#100f0d;fill-opacity:1;fill-rule:nonzero;stroke:none"
         d="m 12418.7,11145.8 h -159.6 v 774.8 h 159.6 v -774.8" /><path
         id="path68"
         style="fill:#100f0d;fill-opacity:1;fill-rule:nonzero;stroke:none"
         d="m 12006.8,11005.2 h -600.1 v 211.4 h 600.1 v -211.4" /><path
         id="path70"
         style="fill:#bebdbb;fill-opacity:1;fill-rule:nonzero;stroke:none"
         d="m 15282,11255.7 h -3275.2 v -289.6 H 15282 v 289.6" /><path
         id="path72"
         style="fill:#d3d2d0;fill-opacity:1;fill-rule:nonzero;stroke:none"
         d="m 16194,4655.4 h -355.3 V 13338 H 16194 V 4655.4" /><path
         id="path74"
         style="fill:#bebdbb;fill-opacity:1;fill-rule:nonzero;stroke:none"
         d="m 15167.5,12145.3 671.2,898.6 v -241.8 l -503.4,-656.8 h -167.8" /><path
         id="path76"
         style="fill:#c37140;fill-opacity:1;fill-rule:nonzero;stroke:none"
         d="m 12964.6,14128 c 0,0 174.4,-266.5 134.9,-519.8 -39.4,-253.4 -259.9,-375.1 -513.2,-361.9 0,0 -125.1,-184.3 -227.1,-312.6 -102,-128.3 -184.2,-197.4 -184.2,-197.4 0,0 -13.2,-187.6 -88.8,-408 -75.7,-220.5 -276.4,-639.3 -322.5,-795.1 l -194.1,54.8 c 0,0 36.2,651.4 79,911.4 42.7,259.9 151.3,440.9 151.3,440.9 0,0 26.3,250 115.2,486.9 88.8,236.9 312.5,483.7 312.5,483.7 0,0 52.7,253.3 319.2,329 266.5,75.7 417.8,-111.9 417.8,-111.9" /><path
         id="path78"
         style="fill:#a45330;fill-opacity:1;fill-rule:nonzero;stroke:none"
         d="m 12076.3,12854.7 c 19.7,-46.1 98.7,-118.4 98.7,-118.4 0,0 15.9,13.3 42.3,39.2 -76.2,27.2 -141,79.2 -141,79.2" /><path
         id="path80"
         style="fill:#d77d50;fill-opacity:1;fill-rule:nonzero;stroke:none"
         d="m 11833.6,13141.5 c 0,0 62,230.8 241.2,458.5 179.2,227.6 330.5,317.4 330.5,317.4 l -121.7,6.6 c 0,0 19.7,85.6 171.1,204 151.3,118.5 369.3,99.2 369.3,99.2 -69.1,29 -162.5,45.3 -277.2,12.7 -266.5,-75.7 -319.2,-329 -319.2,-329 0,0 -223.7,-246.8 -312.5,-483.7 -37.3,-99.4 -63.6,-201.1 -81.5,-285.7 v 0" /><path
         id="path82"
         style="fill:#a45330;fill-opacity:1;fill-rule:nonzero;stroke:none"
         d="m 12586.3,13246.3 c 72.8,-3.8 142.9,3.6 206.8,22.1 l 27.6,79.8 167,102 -223.8,-55.9 -177.6,-148" /><path
         id="path84"
         style="fill:#a45330;fill-opacity:1;fill-rule:nonzero;stroke:none"
         d="m 12586.3,13845.1 c 0,0 -72.4,-128.3 -88.9,-302.7 0,0 -78.9,233.6 88.9,302.7" /><path
         id="path86"
         style="fill:#c37140;fill-opacity:1;fill-rule:nonzero;stroke:none"
         d="m 11574.5,11670.9 c 0,0 -64.1,-165.2 -76.5,-204.7 -12.3,-39.4 -22.2,-445 -18.9,-461 3.3,-16.1 23,-70.3 54.3,-76.9 31.3,-6.6 54.3,0 54.3,0 0,0 24.7,-16.5 51,-21.4 26.3,-5 52.6,14.8 52.6,14.8 0,0 29.1,-24.8 54.3,-15.6 25.2,9.2 62.5,15.6 62.5,15.6 0,0 21.4,-24.7 36.2,-24.7 14.8,0 70.8,16.5 82.3,52.7 11.5,36.2 18.1,231.9 0,273.1 -18.1,41.1 -195.8,375 -197.4,384.9 -1.7,9.9 -154.7,63.2 -154.7,63.2" /><path
         id="path88"
         style="fill:#a45330;fill-opacity:1;fill-rule:nonzero;stroke:none"
         d="m 11808.1,11104.3 -32.2,-189.3 c 17.3,4.1 32.2,6.7 32.2,6.7 v 182.6" /><path
         id="path90"
         style="fill:#a45330;fill-opacity:1;fill-rule:nonzero;stroke:none"
         d="m 11550.5,10925.8 c 22.2,-1.8 37.2,2.5 37.2,2.5 l -18.1,187.5 c 0,0 -12.5,-121.5 -19.1,-190" /><path
         id="path92"
         style="fill:#a45330;fill-opacity:1;fill-rule:nonzero;stroke:none"
         d="m 11665.6,10909 c 14.8,4.5 25.7,12.7 25.7,12.7 0,0 -9.8,202.3 -9.8,212.2 0,7.1 -10.2,-140.7 -15.9,-224.9" /><path
         id="path94"
         style="fill:#c37140;fill-opacity:1;fill-rule:nonzero;stroke:none"
         d="m 12919.1,14732.4 c 0,0 -52.8,-70.6 -126.8,-147.9 -74,-77.3 -192,-161.2 -192,-161.2 0,0 176.1,-23 291.2,-148.1 115.1,-125 263.2,-286.2 302.6,-391.5 39.5,-105.3 126.1,-408 145.3,-404.7 19.3,3.3 -53.1,322.4 -49.8,460.6 3.2,138.2 32.9,258.3 32.9,258.3 0,0 115.1,547.8 59.2,636.7 -56,88.8 -159.1,127.7 -222.7,101.7 -63.6,-26 -239.9,-203.9 -239.9,-203.9" /><path
         id="path96"
         style="fill:#a45330;fill-opacity:1;fill-rule:nonzero;stroke:none"
         d="m 13281.3,14781.9 c 0,0 -102,-162.8 -113.5,-202.3 -11.5,-39.5 154.7,-381.7 154.7,-381.7 l 191.8,37.9 -233,546.1" /><g
         transform="scale(1.00056)"
         id="g98"><path
           id="path100"
           style="fill:#100f0d;fill-opacity:1;fill-rule:nonzero;stroke:none"
           d="m 16300,4665.97 h -503.1 v -358.4 h 503.1 v 358.4" /></g><path
         id="path102"
         style="fill:#100f0d;fill-opacity:1;fill-rule:nonzero;stroke:none"
         d="m 12944,4655.4 h -333.1 v 291.2 h 333.1 v -291.2" /><g
         transform="scale(1.1679)"
         id="g104"><path
           id="path106"
           style="fill:#100f0d;fill-opacity:1;fill-rule:nonzero;stroke:none"
           d="m 16300,3986.14 h -285.2 v 249.34 h 285.2 v -249.34" /></g><g
         transform="scale(1.04921)"
         id="g108"><path
           id="path110"
           style="fill:#d3d2d0;fill-opacity:1;fill-rule:nonzero;stroke:none"
           d="m 16300,12532.5 h -896.1 v 180 h 896.1 v -180" /></g><path
         id="path112"
         style="fill:#2f1d16;fill-opacity:1;fill-rule:nonzero;stroke:none"
         d="m 14057.2,15270.4 c -0.8,51.1 -44.3,92.4 -76.2,128.5 -31.9,36 -22.3,64.9 -52,92.8 -29.7,27.9 -61.9,31 -90.2,52.3 -28.4,21.4 -95,69 -121.4,87 -26.5,18 -74.2,19.5 -98,20.2 -23.9,0.7 -88.3,27.9 -114.6,41.3 -26.3,13.4 -75.9,-2.6 -103,-12.8 -27.1,-10.2 -75.8,18.2 -118,18.1 -42.1,-0.2 -82.7,-32.3 -115.3,-41.1 -32.5,-8.9 -75.1,-58.5 -94.3,-78.6 -19.2,-20.2 -34.1,-14.5 -80.3,-45 -36.9,-24.4 -56.5,-85.5 -62.8,-108.9 -16.7,-27.9 -32.1,-61.3 -45.4,-101.3 -88.3,-265 28.7,-584.8 33.4,-590.5 14.7,-17.9 102.5,0.7 172.5,23 148.7,47.2 213.8,62.4 213.8,62.4 0,0 198.7,-92.4 209.6,-81.5 5.1,5.1 87.3,80.8 173.7,160.2 100.9,90.7 208.6,187.2 208.6,187.2 l 54.2,30.4 c 2.8,4.4 6.7,8.5 11.8,12.1 17.4,12.4 30.6,25.4 40.5,38.5 0,0.1 54.3,54.6 53.4,105.7" /><path
         id="path114"
         style="fill:#c37140;fill-opacity:1;fill-rule:nonzero;stroke:none"
         d="m 13958.1,15127.1 c 0,0 1.7,-182.6 -4.1,-222.6 -5.8,-40.1 -69.4,-144.7 -74,-163.4 -4.5,-18.6 27.7,-241.9 20.6,-252.2 -7,-10.3 -85.2,6.2 -90.2,1 -5,-5.3 -38.5,-70.9 -39.2,-78.3 -0.8,-7.3 -8.3,-20.8 -8.3,-20.8 0,0 -5.7,-30.6 -17,-42.5 -11.4,-11.9 -23.1,-35.7 -28.7,-44.4 -5.7,-8.7 -44.9,-112.5 -63.6,-122.6 -18.6,-10.1 -237.1,61.1 -267.6,83.5 -30.5,22.4 -157,280.3 -160,323.9 -3.1,43.6 38.7,155.5 38.7,155.5 0,0 -84.2,52.6 -90.3,139.8 -6.1,87.2 55.8,213 138.2,203.5 82.4,-9.6 78.4,-121.9 76.7,-151.9 -1.8,-30 -1.5,-69.6 1.3,-73.6 2.8,-4 79.3,56 111.1,91.5 31.7,35.6 30.3,160.3 59.8,201.2 29.4,40.8 108.3,66.3 140.1,65.3 31.7,-1 256.5,-92.9 256.5,-92.9" /><path
         id="path116"
         style="fill:#b8613a;fill-opacity:1;fill-rule:nonzero;stroke:none"
         d="m 4075.98,8557.7 c 0,0 -52.87,-371.8 -93.89,-470.5 -41.01,-98.8 -151.27,-203.8 -226.11,-207.2 -74.83,-3.4 -78.12,223.6 -51.8,309.2 26.32,85.5 178.42,486.9 178.42,486.9 l 193.38,-118.4" /><path
         id="path118"
         style="fill:#b8613a;fill-opacity:1;fill-rule:nonzero;stroke:none"
         d="m 3233.92,8505 c 0,0 -289.78,29.6 -427.97,23 -138.19,-6.5 -815.98,-260.9 -937.72,-278.5 -121.74,-17.6 -444.18,37.9 -509.99,43.1 -65.8,5.1 -121.73,-80.4 -125.03,-90.3 -3.29,-9.9 174.39,-187.5 197.42,-190.8 23.03,-3.3 161.22,-46.1 480.37,-23.1 319.16,23.1 1036.43,39.5 1125.26,79 88.84,39.5 266.51,108.6 306,154.7 39.48,46 211.15,73.3 151.35,163.5 -59.8,90.1 -259.69,119.4 -259.69,119.4" /><path
         id="path120"
         style="fill:#b8613a;fill-opacity:1;fill-rule:nonzero;stroke:none"
         d="m 1637.09,7927.6 c 0,0 24.68,-64.2 19.74,-76.5 -4.93,-12.4 -182.61,-212.2 -244.3,-414.6 -61.69,-202.3 -61.69,-397.3 -96.24,-429.4 -34.54,-32 -111.04,81.5 -111.04,81.5 0,0 -130.79,180.1 -91.31,335.6 39.49,155.4 180.14,352.9 192.48,426.9 12.34,74 39.49,172.7 145.6,177.7 106.11,4.9 185.07,-101.2 185.07,-101.2" /><path
         id="path122"
         style="fill:#bebdbb;fill-opacity:1;fill-rule:nonzero;stroke:none"
         d="m 6106.05,7424.2 v -2633 h 167.81 v 2633 h -167.81" /><path
         id="path124"
         style="fill:#bebdbb;fill-opacity:1;fill-rule:nonzero;stroke:none"
         d="m 4610.64,7582.1 h 1732.31 v 177.7 H 4610.64 v -177.7" /><path
         id="path126"
         style="fill:#d3d2d0;fill-opacity:1;fill-rule:nonzero;stroke:none"
         d="M 6342.95,7661.1 H 2977.04 v -306 h 3365.91 v 306" /><path
         id="path128"
         style="fill:#545758;fill-opacity:1;fill-rule:nonzero;stroke:none"
         d="M 5137.28,7981.7 H 2781.07 c -66.21,0 -119.89,-53.7 -119.89,-119.9 v -248.6 c 0,-66.3 53.68,-119.9 119.89,-119.9 h 2356.21 c 66.22,0 119.89,53.6 119.89,119.9 v 248.6 c 0,66.2 -53.67,119.9 -119.89,119.9" /><path
         id="path130"
         style="fill:#545758;fill-opacity:1;fill-rule:nonzero;stroke:none"
         d="m 5943.19,12063.4 h -78.97 c -49.06,0 -88.84,-39.8 -88.84,-88.8 v -1490.5 c 0,-49.1 39.78,-88.8 88.84,-88.8 h 78.97 v 1668.1" /><path
         id="path132"
         style="fill:#b8613a;fill-opacity:1;fill-rule:nonzero;stroke:none"
         d="m 2986.91,12395.7 c 0,0 -204.12,-4.9 -273.15,0 0,0 39.55,-231.9 59.29,-435.9 19.74,-204 121.05,-513.3 121.05,-513.3 l -180.34,-98.7 c 0,0 -73.97,54.3 -90.42,74 -16.45,19.8 -170.91,557.7 -184.99,700.8 -14.07,143.2 13.46,636.7 13.46,636.7 0,0 -83.38,236.1 291.59,172.7 374.98,-63.3 475.47,-4.9 450.8,-113.5 -24.68,-108.6 -207.29,-422.8 -207.29,-422.8" /><path
         id="path134"
         style="fill:#adadab;fill-opacity:1;fill-rule:nonzero;stroke:none"
         d="m 3062.58,11189.9 h -388.2 v 315.8 h 388.2 v -315.8" /><path
         id="path136"
         style="fill:#c37140;fill-opacity:1;fill-rule:nonzero;stroke:none"
         d="m 3092.2,8528 78.96,-171 c 0,0 -227.02,69.1 -417.86,59.2 -190.83,-9.9 -299.41,-65.8 -401.4,-82.3 -102,-16.4 -473.8,-180.9 -611.99,-190.8 -138.19,-9.9 -138.19,-9.9 -138.19,-9.9 l 29.61,-332.3 c 0,0 1168.04,32.9 1411.51,23 243.48,-9.8 595.54,6.6 681.08,29.6 85.55,23.1 243.26,542.9 258.17,750.2 14.92,207.3 -297.65,181 -376.62,177.7 C 3526.51,8778.1 3092.2,8528 3092.2,8528" /><path
         id="path138"
         style="fill:#252323;fill-opacity:1;fill-rule:nonzero;stroke:none"
         d="m 3001.72,10923.3 -78.97,-113.5 c 0,0 -246.77,-296.1 -305.99,-552.7 -59.23,-256.7 177.67,-666.3 217.15,-779.8 39.49,-113.5 49.36,-454.1 69.1,-587.3 19.74,-133.3 98.71,-389.9 98.71,-389.9 0,0 281.31,-14.8 518.21,-29.6 236.9,-14.8 434.31,0 434.31,0 l 152.99,34.5 c 0,0 -44.41,607.1 -59.22,868.6 -14.8,261.6 -192.48,735.4 -192.48,774.9 0,39.5 108.58,384.9 108.58,384.9 0,0 -577.44,498.5 -656.4,518.3 -78.97,19.7 -305.99,-128.4 -305.99,-128.4" /><path
         id="path140"
         style="fill:#100f0d;fill-opacity:1;fill-rule:nonzero;stroke:none"
         d="m 3856.95,10138.8 c 12.5,-84.9 104.93,-712.3 141.71,-933 31.04,-186.2 46.82,-561.5 52.16,-713.5 l 56.41,12.7 c 0,0 -44.41,607.1 -59.22,868.6 -14.03,248 -174.4,686.6 -191.06,765.2" /><path
         id="path142"
         style="fill:#e9eef1;fill-opacity:1;fill-rule:nonzero;stroke:none"
         d="m 4237.52,12887.7 c 0,0 32.58,-229.6 39.99,-246.9 7.4,-17.2 37.01,-136.1 46.88,-196.3 9.87,-60.3 1.97,-383.6 -43.43,-482.3 -45.41,-98.7 -134.24,-227 -146.58,-246.7 -12.34,-19.8 -12.52,-525.6 -34.64,-565.1 -22.12,-39.5 -76.41,-538 -76.41,-538 l -59.22,-79 c 0,0 -424.44,133.3 -572.5,207.3 -148.06,74.1 -389.89,182.6 -389.89,182.6 0,0 4.93,381.7 -21.39,641.6 -26.32,260 -41.31,489.1 -32.31,679.3 11.54,243.7 11.54,474 11.54,474 l 581.76,551.1 c 0,0 357.51,46.1 398.37,16.5 40.87,-29.7 126.42,-138.3 133,-174.4 6.58,-36.2 164.83,-223.7 164.83,-223.7" /><path
         id="path144"
         style="fill:#c37140;fill-opacity:1;fill-rule:nonzero;stroke:none"
         d="m 3860.15,13578.4 c 0,0 -52.74,-70.6 -126.77,-147.9 -74.03,-77.3 -192.06,-161.2 -192.06,-161.2 0,0 176.18,-23 291.26,-148.1 115.08,-125 263.14,-286.2 302.62,-391.5 39.48,-105.3 126.1,-408 145.31,-404.7 19.2,3.3 -53.18,322.4 -49.89,460.6 3.29,138.2 32.9,258.3 32.9,258.3 0,0 115.16,547.8 59.23,636.7 -55.94,88.8 -159.11,127.7 -222.68,101.7 -63.58,-26.1 -239.92,-203.9 -239.92,-203.9" /><path
         id="path146"
         style="fill:#a45330;fill-opacity:1;fill-rule:nonzero;stroke:none"
         d="m 4222.39,13627.9 c 0,0 -101.99,-162.8 -113.51,-202.3 -11.52,-39.5 154.64,-381.7 154.64,-381.7 l 191.87,37.9 -233,546.1" /><path
         id="path148"
         style="fill:#c37140;fill-opacity:1;fill-rule:nonzero;stroke:none"
         d="m 3243.55,13272.6 c 0,0 -174.38,19.7 -273.09,0 -98.71,-19.8 -220.45,-65.8 -296.12,-85.6 -75.68,-19.7 -279.67,-110.8 -319.15,-129.4 -39.49,-18.6 -263.22,-120.6 -289.55,-206.2 -26.32,-85.5 52.65,-338.9 55.94,-352 3.29,-13.2 65.8,-312.6 131.61,-480.4 65.8,-167.8 148.06,-513.3 148.06,-513.3 l 250.67,23 c 0,0 -49.97,319.2 -46.68,440.9 3.29,121.8 0,579.1 0,579.1 0,0 345.48,0 457.34,16.5 0,0 126.68,-264.9 393.19,-264.9 266.51,0 444.18,325.7 394.83,631.7 -49.36,306 -355.35,389.9 -607.05,340.6" /><path
         id="path150"
         style="fill:#a45330;fill-opacity:1;fill-rule:nonzero;stroke:none"
         d="m 2605.24,12548.7 c 0,0 -4.93,130 -47.71,195.8 -42.77,65.8 -111.86,146.4 -105.28,143.1 6.58,-3.3 83.9,-54.3 143.12,-131.6 59.23,-77.3 79.01,-206.9 79.01,-206.9 l -69.14,-0.4" /><path
         id="path152"
         style="fill:#a45330;fill-opacity:1;fill-rule:nonzero;stroke:none"
         d="m 3062.58,12565.2 c 0,0 299.42,21.4 314.22,16.4 14.81,-4.9 177.68,-125.8 177.68,-125.8 0,0 -162.87,49.3 -204.82,51.8 -41.95,2.5 -201.58,-63.1 -201.58,-63.1 0,0 -59.17,69.7 -85.5,120.7" /><path
         id="path154"
         style="fill:#d77d50;fill-opacity:1;fill-rule:nonzero;stroke:none"
         d="m 2438.35,13094.9 c 0,0 291.92,71.6 447.39,103.6 155.46,32.1 283.78,23.3 283.78,23.3 l -107.7,-104.7 c 0,0 174.33,96.2 302.65,103.7 88.87,5.1 237.69,-10.5 320.81,-20.6 -122.73,83.9 -291.85,101.8 -441.73,72.4 0,0 -174.38,19.7 -273.09,0 -98.71,-19.8 -220.45,-65.8 -296.12,-85.6 -50.53,-13.2 -158.21,-58.1 -235.99,-92.1 v 0" /><path
         id="path156"
         style="fill:#a45330;fill-opacity:1;fill-rule:nonzero;stroke:none"
         d="m 3411.35,8113.5 -240.19,243.5 -114.67,28.6 c 0,0 144.28,-196.4 354.86,-272.1" /><path
         id="path158"
         style="fill:#100f0d;fill-opacity:1;fill-rule:nonzero;stroke:none"
         d="m 3357.27,11170.1 h -159.56 v 774.9 h 159.56 v -774.9" /><path
         id="path160"
         style="fill:#100f0d;fill-opacity:1;fill-rule:nonzero;stroke:none"
         d="M 5504.62,11423.5 H 3680.48 c -50.51,0 -91.46,-41 -91.46,-91.5 v -70.4 c 0,-50.5 40.95,-91.5 91.46,-91.5 h 1824.14 c 50.5,0 91.45,41 91.45,91.5 v 70.4 c 0,50.5 -40.95,91.5 -91.45,91.5" /><path
         id="path162"
         style="fill:#c37140;fill-opacity:1;fill-rule:nonzero;stroke:none"
         d="m 1601.72,8133.2 c 0,0 -144.77,26.3 -233.61,51 -88.83,24.7 -155.46,66.6 -254.17,46.9 -98.7,-19.7 -103.64,-214.7 -93.77,-385 9.87,-170.2 -41.947,-343 -49.354,-421.9 -7.402,-79 -12.336,-103.7 0,-167.8 12.34,-64.2 0,-96.3 14.809,-123.4 14.805,-27.2 29.615,-39.5 29.615,-39.5 0,0 -12.34,-9.9 14.8,-51.8 27.15,-42 44.42,-56.8 44.42,-56.8 0,0 49.35,-71.5 74.03,-69.1 24.68,2.5 64.16,46.9 66.63,98.7 2.47,51.9 24.68,288.8 98.7,461.5 74.04,172.7 232.79,299.4 317.51,324.9 84.73,25.5 104.64,126.6 87.19,153.8 -17.44,27.2 -116.8,178.5 -116.8,178.5" /><path
         id="path164"
         style="fill:#100f0d;fill-opacity:1;fill-rule:nonzero;stroke:none"
         d="m 2945.4,11025.3 h -600.09 v 211.4 h 600.09 v -211.4" /><path
         id="path166"
         style="fill:#bebdbb;fill-opacity:1;fill-rule:nonzero;stroke:none"
         d="M 6220.55,11255.7 H 2945.4 v -289.6 h 3275.15 v 289.6" /><path
         id="path168"
         style="fill:#bebdbb;fill-opacity:1;fill-rule:nonzero;stroke:none"
         d="M 6954.93,4880 H 3882.6 V 4702.3 H 6954.93 V 4880" /><path
         id="path170"
         style="fill:#bebdbb;fill-opacity:1;fill-rule:nonzero;stroke:none"
         d="M 9642.23,4880 H 6569.9 V 4702.3 H 9642.23 V 4880" /><path
         id="path172"
         style="fill:#bebdbb;fill-opacity:1;fill-rule:nonzero;stroke:none"
         d="m 6273.86,7709.3 h -167.81 v 4436 h 167.81 v -4436" /><path
         id="path174"
         style="fill:#100f0d;fill-opacity:1;fill-rule:nonzero;stroke:none"
         d="M 7247.77,4668.6 H 6744.36 V 4310 h 503.41 v 358.6" /><path
         id="path176"
         style="fill:#100f0d;fill-opacity:1;fill-rule:nonzero;stroke:none"
         d="m 3882.6,4655.4 h -333.06 v 291.2 h 333.06 v -291.2" /><path
         id="path178"
         style="fill:#100f0d;fill-opacity:1;fill-rule:nonzero;stroke:none"
         d="m 9975.29,4655.4 h -333.06 v 291.2 h 333.06 v -291.2" /><path
         id="path180"
         style="fill:#bebdbb;fill-opacity:1;fill-rule:nonzero;stroke:none"
         d="m 6106.05,12145.3 671.21,898.6 v -241.8 l -503.4,-656.8 h -167.81" /><path
         id="path182"
         style="fill:#bebdbb;fill-opacity:1;fill-rule:nonzero;stroke:none"
         d="m 7700.17,4880 h -144.19 v 8310.3 h 144.19 V 4880" /><path
         id="path184"
         style="fill:#100f0d;fill-opacity:1;fill-rule:nonzero;stroke:none"
         d="M 7932.13,7093.5 H 6481.14 V 8676.1 H 7932.13 V 7093.5" /><path
         id="path186"
         style="fill:#c37140;fill-opacity:1;fill-rule:nonzero;stroke:none"
         d="m 2401.25,11505.7 c 0,0 -8.23,-384.9 -8.23,-417.8 0,-33 67.45,-162.9 78.97,-171.1 11.51,-8.3 69.09,0 69.09,0 0,0 51,-26.4 74.03,-26.4 23.03,0 41.13,14.8 41.13,14.8 0,0 24.68,-13.1 55.94,-14.8 31.25,-1.6 60.87,23.1 60.87,23.1 0,0 62.51,-36.2 75.67,-34.6 13.16,1.7 29.61,11.5 41.13,37.9 11.51,26.3 -3.29,345.4 -9.87,380 -6.58,34.5 -228.06,231.9 -228.06,231.9 0,0 -125.64,67.5 -133.87,65.9 -8.22,-1.7 -116.8,-88.9 -116.8,-88.9" /><path
         id="path188"
         style="fill:#a45330;fill-opacity:1;fill-rule:nonzero;stroke:none"
         d="m 2504.29,10913.3 c 18.18,0.8 36.79,3.5 36.79,3.5 l -77.32,129.9 40.53,-133.4" /><path
         id="path190"
         style="fill:#a45330;fill-opacity:1;fill-rule:nonzero;stroke:none"
         d="m 2618.53,10890.7 c 21.35,1.4 37.71,14.5 37.71,14.5 l -65.8,169.5 28.09,-184" /><path
         id="path192"
         style="fill:#a45330;fill-opacity:1;fill-rule:nonzero;stroke:none"
         d="m 2740.13,10895.1 c 18.91,6.7 32.92,18.4 32.92,18.4 0,0 -57.59,185.9 -59.23,194.1 -1.24,6.2 17.19,-140.3 26.31,-212.5" /><path
         id="path194"
         style="fill:#d3d2d0;fill-opacity:1;fill-rule:nonzero;stroke:none"
         d="M 7132.61,4655.4 H 6777.26 V 13338 h 355.35 V 4655.4" /><path
         id="path196"
         style="fill:#d3d2d0;fill-opacity:1;fill-rule:nonzero;stroke:none"
         d="m 8040.71,13149.2 h -940.18 v 188.8 h 940.18 v -188.8" /><path
         id="path198"
         style="fill:#2f1d16;fill-opacity:1;fill-rule:nonzero;stroke:none"
         d="m 4995.45,14121.6 c -0.85,51.1 -44.33,92.4 -76.24,128.4 -31.9,36.1 -22.26,64.9 -51.96,92.8 -29.69,28 -61.89,31 -90.25,52.4 -28.37,21.3 -94.91,69 -121.4,87 -26.48,18 -74.16,19.4 -98.01,20.2 -23.84,0.7 -88.3,27.9 -114.57,41.3 -26.27,13.4 -75.88,-2.6 -102.99,-12.8 -27.1,-10.2 -75.83,18.2 -117.95,18 -42.12,-0.1 -82.74,-32.2 -115.29,-41.1 -32.56,-8.8 -75.11,-58.4 -94.31,-78.6 -19.21,-20.1 -34.13,-14.4 -80.32,-44.9 -36.96,-24.5 -56.52,-85.5 -62.87,-108.9 -16.61,-28 -32.06,-61.3 -45.37,-101.3 -88.26,-265 31.57,-590 36.23,-595.7 14.76,-18 99.66,5.9 169.73,28.1 148.66,47.3 213.78,62.4 213.78,62.4 0,0 198.66,-92.4 209.62,-81.4 5.09,5.1 87.25,80.8 173.62,160.1 100.97,90.7 208.65,187.3 208.65,187.3 l 54.16,30.4 c 2.79,4.4 6.68,8.4 11.78,12.1 17.49,12.3 30.66,25.4 40.51,38.5 0.01,0 54.29,54.6 53.45,105.7" /><path
         id="path200"
         style="fill:#c37140;fill-opacity:1;fill-rule:nonzero;stroke:none"
         d="m 4896.38,13978.3 c 0,0 1.63,-182.6 -4.14,-222.7 -5.77,-40 -69.45,-144.7 -73.97,-163.3 -4.52,-18.6 27.63,-241.9 20.59,-252.2 -7.05,-10.4 -85.18,6.2 -90.21,0.9 -5.04,-5.3 -38.46,-70.8 -39.24,-78.2 -0.77,-7.4 -8.3,-20.8 -8.3,-20.8 0,0 -5.62,-30.6 -16.98,-42.5 -11.35,-11.9 -23.05,-35.7 -28.71,-44.4 -5.67,-8.7 -44.91,-112.5 -63.54,-122.6 -18.65,-10.1 -237.17,61.1 -267.67,83.5 -30.51,22.4 -156.93,280.3 -159.98,323.9 -3.06,43.6 38.7,155.5 38.7,155.5 0,0 -84.2,52.6 -90.31,139.8 -6.11,87.2 55.79,213 138.2,203.4 82.4,-9.5 78.45,-121.9 76.71,-151.9 -1.75,-29.9 -1.47,-69.5 1.31,-73.5 2.77,-4.1 79.33,56 111.06,91.5 31.72,35.6 30.38,160.3 59.83,201.1 29.45,40.9 108.31,66.4 140.06,65.4 31.75,-1 256.59,-92.9 256.59,-92.9" /></g></g></svg>