<?xml version="1.0" encoding="UTF-8" standalone="no"?>
<svg
   xmlns:dc="http://purl.org/dc/elements/1.1/"
   xmlns:cc="http://creativecommons.org/ns#"
   xmlns:rdf="http://www.w3.org/1999/02/22-rdf-syntax-ns#"
   xmlns:svg="http://www.w3.org/2000/svg"
   xmlns="http://www.w3.org/2000/svg"
   viewBox="0 0 2666.6667 2666.6667"
   height="2666.6667"
   width="2666.6667"
   xml:space="preserve"
   id="svg2"
   version="1.1"><metadata
     id="metadata8"><rdf:RDF><cc:Work
         rdf:about=""><dc:format>image/svg+xml</dc:format><dc:type
           rdf:resource="http://purl.org/dc/dcmitype/StillImage" /></cc:Work></rdf:RDF></metadata><defs
     id="defs6" /><g
     transform="matrix(1.3333333,0,0,-1.3333333,0,2666.6667)"
     id="g10"><g
       transform="scale(0.1)"
       id="g12"><g
         transform="scale(1.22699)"
         id="g14"><path
           id="path16"
           style="fill:#ffffff;fill-opacity:1;fill-rule:nonzero;stroke:none"
           d="M 16300,0 H 0 V 16300 H 16300 V 0" /></g><path
         id="path18"
         style="fill:#100f0d;fill-opacity:1;fill-rule:nonzero;stroke:none"
         d="m 3200.16,6422.6 c 0,0 -51.55,75.1 -100.95,75.1 -49.41,0 -114.92,-157.8 -140.69,-219 -25.78,-61.3 -219.09,-219.1 -212.65,-299.7 6.45,-80.5 419.92,-443.5 419.92,-443.5 0,0 305.01,240.5 313.6,309.3 8.59,68.7 -279.23,577.8 -279.23,577.8" /><path
         id="path20"
         style="fill:#8f908f;fill-opacity:1;fill-rule:nonzero;stroke:none"
         d="m 7492.2,10560.6 276.81,-7014.1 h 670.85 l -264.62,7083.4 c 41.88,119.2 0,228.7 0,228.7 h -728.15 c 0,0 -161.09,-106.3 -164.31,-135.3 -3.23,-29 209.42,-162.7 209.42,-162.7" /><path
         id="path22"
         style="fill:#686a6c;fill-opacity:1;fill-rule:nonzero;stroke:none"
         d="m 6528.37,10808.4 v -287 l 963.83,39.2 c 0,0 -115.99,120.8 -45.11,298 l -918.72,-50.2" /><path
         id="path24"
         style="fill:#a8a8a6;fill-opacity:1;fill-rule:nonzero;stroke:none"
         d="m 8101.13,10571.9 175.33,-7025.4 h 163.4 l -264.62,7083.4 c 41.88,119.2 0,228.7 0,228.7 H 8064.6 c -2.06,-51.7 -2.75,-119.8 4.32,-167.5 12.88,-87 32.21,-119.2 32.21,-119.2" /><path
         id="path26"
         style="fill:#bb643e;fill-opacity:1;fill-rule:nonzero;stroke:none"
         d="m 6117.04,8993.6 c 0,-38.6 -25.78,-386.6 -73.03,-511.2 -47.26,-124.5 -64.44,-270.6 -103.1,-354.4 -38.66,-83.7 -103.1,-178.3 -322.19,-328.6 -219.09,-150.4 -541.28,-618.6 -700.22,-824.8 -158.95,-206.2 -567.05,-597.1 -691.63,-794.7 -124.58,-197.7 -163.25,-408.1 -163.25,-408.1 0,0 -103.1,-98.9 -206.2,-38.7 -103.1,60.1 -274.93,163.2 -266.34,219.1 8.59,55.8 37.69,348.1 37.69,348.1 0,0 159.92,133 263.02,334.9 103.1,201.9 305,644.4 305,644.4 0,0 524.1,1028.8 617.53,1228.6 93.44,199.8 492.95,695.9 550.95,721.7 57.99,25.8 384.58,-72.6 384.58,-72.6 l 367.19,-163.7" /><path
         id="path28"
         style="fill:#c37140;fill-opacity:1;fill-rule:nonzero;stroke:none"
         d="m 4329.97,9328.7 c 0,0 -24.71,-162.2 23.62,-373.7 48.33,-211.6 48.33,-417.8 32.22,-462.9 -16.11,-45.1 -496.17,-273.9 -579.94,-454.3 -83.77,-180.4 -676.59,-1636.7 -676.59,-1636.7 0,0 35.44,-331.9 45.1,-331.9 9.67,0 344.74,0 344.74,0 0,0 209.43,464 357.63,676.6 148.21,212.7 699.15,844.2 818.36,934.4 119.21,90.2 309.3,157.9 402.74,277.1 93.43,119.2 180.42,393 212.64,515.5 32.22,122.4 86.99,650.8 86.99,650.8 l -1067.51,205.1" /><path
         id="path30"
         style="fill:#bb643e;fill-opacity:1;fill-rule:nonzero;stroke:none"
         d="m 5873.71,13320.3 c 0,0 16.72,-298.2 19.94,-417.4 3.23,-119.2 -19.94,-244.9 -19.94,-244.9 0,0 22.86,-389.8 10.12,-676.6 -12.73,-286.7 -10.12,-637.9 -10.12,-637.9 0,0 -173.37,-141.8 -392.46,277.1 -219.09,418.8 -418.84,960.1 -231.97,1385.4 186.87,425.3 335.07,547.7 386.62,547.7 51.55,0 237.81,-233.4 237.81,-233.4" /><path
         id="path32"
         style="fill:#252322;fill-opacity:1;fill-rule:nonzero;stroke:none"
         d="m 5713.23,11850.4 42.96,-171.9 c 0,0 234.12,-401.1 234.12,-657.2 0,-256.2 126.73,-2066.3 126.73,-2066.3 l -567.05,107.4 -77.33,-43 c 0,0 -640.08,60.2 -1022.41,90.2 -382.33,30.1 -618.6,55.9 -618.6,55.9 0,0 40.81,462.8 17.18,945.1 -23.63,482.2 59.7,820.5 59.7,820.5 0,0 126.1,773.2 121.26,850.5 -4.83,77.4 -81.83,352.3 94.14,399.6 175.97,47.2 429.42,51.5 738.72,34.3 309.3,-17.2 850.58,-365.1 850.58,-365.1" /><path
         id="path34"
         style="fill:#bb643e;fill-opacity:1;fill-rule:nonzero;stroke:none"
         d="m 5772.83,14769.9 c 4.84,11.3 88.61,117.6 88.61,117.6 0,0 153.25,-74.1 212.75,-162.7 59.5,-88.6 -3.33,-497.7 -3.33,-497.7 0,0 -169.15,14.5 -214.26,99.8 -45.1,85.4 -83.77,443 -83.77,443" /><path
         id="path36"
         style="fill:#e9eef1;fill-opacity:1;fill-rule:nonzero;stroke:none"
         d="m 5193.43,15383.7 c -17.18,-4.3 -176.8,-8.6 -176.8,-8.6 l -317.22,-32.2 -210.5,-949.4 -219.09,-915 -68.73,-1387.6 c 0,0 395.22,17.2 627.19,-47.2 231.98,-64.4 863.47,-201.9 884.95,-193.3 21.48,8.6 38.66,107.4 42.96,197.6 4.29,90.2 30.07,562.7 51.55,648.7 21.48,85.9 77.32,756 77.32,756 0,0 124.58,168.6 163.25,313.6 38.66,145 22.55,460.8 22.55,460.8 0,0 -96.66,144.9 -128.88,231.9 -32.22,87 -74.1,418.9 -80.54,428.5 -6.45,9.7 -177.21,183.7 -177.21,183.7 l -490.8,312.5" /><path
         id="path38"
         style="fill:#c37140;fill-opacity:1;fill-rule:nonzero;stroke:none"
         d="m 4953.08,15369.1 c 0,0 186.65,-142.8 228.54,-245.9 41.88,-103.1 48.33,-148.3 48.33,-148.3 0,0 90.21,-244.8 32.21,-567 -57.99,-322.2 -309.3,-583.2 -509.05,-618.6 0,0 -103.1,-235.2 -183.65,-396.3 -80.55,-161.1 -167.54,-241.6 -167.54,-241.6 0,0 17.26,-364.5 -86.99,-615.4 -104.25,-250.9 -113.84,-1266.2 -113.84,-1266.2 l -417.77,25.8 c 0,0 -148.21,602.5 -164.32,1034.2 -16.11,431.7 70.88,834.5 70.88,834.5 0,0 3.23,141.7 35.45,206.1 32.21,64.5 61.21,145 61.21,145 0,0 -12.89,496.2 51.55,725 64.44,228.7 177.2,425.3 177.2,425.3 0,0 99.88,299.6 238.42,438.1 138.55,138.6 286.75,183.7 286.75,183.7 0,0 117.11,101.7 412.62,81.6" /><path
         id="path40"
         style="fill:#a45634;fill-opacity:1;fill-rule:nonzero;stroke:none"
         d="m 5045.22,14349.8 -184.72,-168.9 -107.39,-392 c 0,0 75.64,13 134.56,53.1 0,0 26.53,276.6 28.68,293.8 2.15,17.1 128.87,214 128.87,214" /><path
         id="path42"
         style="fill:#a45634;fill-opacity:1;fill-rule:nonzero;stroke:none"
         d="m 4899.16,14180.9 c 0,0 92.34,-174.1 136.38,-218.1 l -53.47,-51.6 -112.98,108.6 30.07,161.1" /><path
         id="path44"
         style="fill:#bbbfc2;fill-opacity:1;fill-rule:nonzero;stroke:none"
         d="m 5035.54,13962.8 c 0,0 74.12,-117 147.15,-173.9 73.03,-56.9 128.88,-102 128.88,-102 0,0 -143.91,47.2 -231.98,115.9 -88.06,68.8 -97.52,108.4 -97.52,108.4 l 53.47,51.6" /><path
         id="path46"
         style="fill:#a45634;fill-opacity:1;fill-rule:nonzero;stroke:none"
         d="m 3989.52,14288.3 c 0,0 24.7,-131 54.77,-180.5 30.07,-49.4 79.48,-195.4 64.44,-259.9 -15.04,-64.4 -83.77,-245.2 -83.77,-231 0,14.1 51.11,213.9 25.56,314.8 -25.56,101 -92.14,253.5 -61,356.6" /><path
         id="path48"
         style="fill:#a45634;fill-opacity:1;fill-rule:nonzero;stroke:none"
         d="m 3981.39,13320.3 c 0,0 25.34,-95.2 65.06,-146.8 0,0 -118.3,35.9 -65.06,146.8" /><path
         id="path50"
         style="fill:#a45634;fill-opacity:1;fill-rule:nonzero;stroke:none"
         d="m 4794.99,15261.3 c 0,0 126.73,0 250.23,-103.1 0,0 -63.36,174 -250.23,103.1" /><path
         id="path52"
         style="fill:#100f0d;fill-opacity:1;fill-rule:nonzero;stroke:none"
         d="m 5803.44,10858.6 -103.1,-142.3 c 0,0 0,-343.7 -30.07,-867.8 -30.07,-524.1 -120.28,-786.1 -120.28,-786.1 l 186.18,-35.3 c 0,0 71.57,632.4 67.27,1010.4 -4.29,378.1 -45.1,674.5 -45.1,674.5 l 45.1,146.6" /><path
         id="path54"
         style="fill:#a45634;fill-opacity:1;fill-rule:nonzero;stroke:none"
         d="m 4753.11,8128 c 0,0 12.88,-141.7 61.21,-209.4 0,0 -148.2,22.6 -61.21,209.4" /><path
         id="path56"
         style="fill:#e4e4e3;fill-opacity:1;fill-rule:nonzero;stroke:none"
         d="m 3206.75,6591.1 c -47.43,-116.2 -77.47,-190 -77.47,-190 0,0 35.44,-331.9 45.1,-331.9 9.67,0 344.74,0 344.74,0 0,0 45.77,101.4 109.65,231.1 -193.91,82.6 -355.16,231.1 -422.02,290.8" /><path
         id="path58"
         style="fill:#8f908f;fill-opacity:1;fill-rule:nonzero;stroke:none"
         d="m 5990.31,10765.1 284.88,-7218.6 h 670.43 l -272.27,7287.9 c 41.89,119.2 0,228.8 0,228.8 H 5945.2 c 0,0 -161.09,-106.4 -164.31,-135.4 -3.22,-28.9 209.42,-162.7 209.42,-162.7" /><path
         id="path60"
         style="fill:#a8a8a6;fill-opacity:1;fill-rule:nonzero;stroke:none"
         d="m 6599.25,10776.4 180.43,-7229.9 h 165.94 l -272.27,7287.9 c 41.89,119.2 0,228.8 0,228.8 h -110.64 c -2.06,-51.8 -2.75,-119.8 4.32,-167.6 12.89,-87 32.22,-119.2 32.22,-119.2" /><path
         id="path62"
         style="fill:#c37140;fill-opacity:1;fill-rule:nonzero;stroke:none"
         d="m 5144.86,15849.5 c 0,0 -39.49,-216.6 -69.57,-321.9 -30.07,-105.2 -58.66,-152.5 -58.66,-152.5 0,0 191.84,-118.1 327.16,-367.3 135.31,-249.1 337.22,-678.7 433.88,-657.2 96.65,21.4 57.99,408.1 34.36,498.3 -23.62,90.2 -38.66,94.5 -45.1,128.9 -6.45,34.3 57.7,256.6 57.7,256.6 0,0 -130.73,690.6 -147.92,701.3 -17.18,10.8 -109.54,75.2 -169.68,77.4 -60.14,2.1 -77.33,34.3 -163.24,-12.9 -85.92,-47.3 -198.93,-150.7 -198.93,-150.7" /><path
         id="path64"
         style="fill:#a45634;fill-opacity:1;fill-rule:nonzero;stroke:none"
         d="m 5546.71,15945.4 c 0,0 -77.83,-222.1 -69.33,-273.6 18.5,-112.2 142.07,-303.2 228.26,-377.9 28.73,-24.8 118.99,-59.5 118.99,-59.5 l 141.98,168.3 -419.9,542.7" /><path
         id="path66"
         style="fill:#686a6c;fill-opacity:1;fill-rule:nonzero;stroke:none"
         d="m 3174.38,10911.7 c 0,0 -38.66,-177 80.55,-257.6 l 2735.38,111 c 0,0 -115.99,120.9 -45.11,298.1 l -2770.82,-151.5" /><path
         id="path68"
         style="fill:#c37140;fill-opacity:1;fill-rule:nonzero;stroke:none"
         d="m 3783.32,11295.6 c 0,0 -141.76,-320.6 -135.32,-344.8 6.44,-24.2 72.49,-156.2 98.27,-225.5 25.77,-69.3 62.82,-120.8 78.93,-132.1 16.11,-11.3 91.83,0 91.83,0 0,0 66.05,-29 98.26,-30.6 32.22,-1.6 66.05,14.5 66.05,14.5 0,0 77.33,-16.4 93.44,-14.6 16.11,1.7 49.94,8.1 49.94,8.1 0,0 95.04,-12.8 149.82,9.7 54.77,22.6 67.39,355.1 74.77,372.8 7.38,17.7 150.76,37 150.76,37 0,0 -49.94,107.3 -80.55,120.2 -30.61,12.9 -144.98,66.1 -159.48,72.5 -14.5,6.4 -251.31,136.9 -251.31,136.9 0,0 -125.65,24.2 -186.87,24.2 -61.22,0 -138.54,-48.3 -138.54,-48.3" /><path
         id="path70"
         style="fill:#a45634;fill-opacity:1;fill-rule:nonzero;stroke:none"
         d="m 3875.14,10765.1 41.89,-172.3 c 0,0 10.4,-4.6 24.88,-10.2 l -66.77,182.5" /><path
         id="path72"
         style="fill:#a45634;fill-opacity:1;fill-rule:nonzero;stroke:none"
         d="m 4195.72,10786.1 29,-215.9 c 0,0 32.97,-4.4 71.24,-3.5 l -100.24,219.4" /><path
         id="path74"
         style="fill:#a45634;fill-opacity:1;fill-rule:nonzero;stroke:none"
         d="m 4029.79,10736.1 51.55,-159.4 c 0,0 9.97,-2.1 23.41,-4.8 l -74.96,164.2" /><path
         id="path76"
         style="fill:#252322;fill-opacity:1;fill-rule:nonzero;stroke:none"
         d="m 3628.77,6300.3 c 0,0 -744.88,-410 -775.76,-467.1 -30.89,-57.2 106.58,-461 325.67,-650 219.09,-189 274.93,-292.1 365.15,-511.2 90.21,-219.1 425.28,-438.2 691.63,-421 266.34,17.2 120.28,270.7 64.44,416.7 -55.85,146.1 -42.96,373.8 -77.33,481.2 -34.37,107.3 -103.1,197.6 -90.21,292.1 12.88,94.5 42.96,236.2 25.77,296.4 -17.18,60.1 -111.69,180.4 -158.94,227.7 -47.26,47.2 -370.42,335.2 -370.42,335.2" /><path
         id="path78"
         style="fill:#f2f2f2;fill-opacity:1;fill-rule:nonzero;stroke:none"
         d="m 3678.52,6346.7 c -30.02,-29.9 -49.75,-46.4 -49.75,-46.4 0,0 -29.1,-292.3 -37.69,-348.1 -8.59,-55.9 163.24,-159 266.34,-219.1 103.1,-60.2 206.2,38.7 206.2,38.7 0,0 21.59,117.4 84.41,259.2 -205.74,113.6 -373.58,238.7 -469.51,315.7" /><path
         id="path80"
         style="fill:#494a4b;fill-opacity:1;fill-rule:nonzero;stroke:none"
         d="m 3900.38,4603.3 c -163.24,163.2 -270.64,305 -373.74,472.5 -103.1,167.6 -158.94,146.1 -356.55,322.2 -197.61,176.1 -317.08,435.2 -317.08,435.2 -30.89,-57.2 106.58,-461 325.67,-650 219.09,-189 274.93,-292.1 365.14,-511.2 87.4,-212.2 404.55,-424.4 666.42,-421.9 -127.35,88.9 -191.76,235.1 -309.86,353.2" /><g
         transform="scale(1.05562)"
         id="g82"><path
           id="path84"
           style="fill:#2f1d16;fill-opacity:1;fill-rule:nonzero;stroke:none"
           d="m 6103.51,15888.6 c -10.98,61.3 -71.36,102.5 -116.79,139.7 -45.43,37.2 -39.44,73.8 -80.62,101.6 -41.18,27.8 -80.53,25.2 -118.83,45.4 -38.3,20.2 -127.69,64.6 -163.07,81.1 -35.38,16.5 -93.05,8.9 -121.89,5.1 -28.85,-3.8 -111.72,16.4 -145.96,27.5 -34.24,11 -90.82,-18 -121.46,-35.6 -30.63,-17.5 -94.82,7.2 -145.48,-1.2 -50.68,-8.4 -93.32,-54.9 -130.77,-71.9 -37.46,-17 -79,-85 -98.2,-113 -19.19,-28 -38.26,-24 -87.9,-69.8 -39.73,-36.6 -51.38,-113.8 -54.46,-143.3 -14.55,-36.8 -26.64,-80 -34.87,-130.8 -54.59,-336.1 184.38,-702.6 190.56,-709 6.2,-6.5 106.2,-14.4 225.09,59.3 178.85,110.9 133.94,138.4 133.94,138.4 0,0 311.16,-87.4 322.21,-72 5.14,7.1 89.28,114.2 177.77,226.6 103.86,128.8 214.65,266 214.65,266 l 59.27,47.1 c 2.5,5.9 6.39,11.5 11.83,16.8 18.63,18.4 31.94,36.6 41.23,54.3 0.02,0.1 54.72,76.3 43.75,137.7" /></g><g
         transform="scale(1.02082)"
         id="g86"><path
           id="path88"
           style="fill:#c37140;fill-opacity:1;fill-rule:nonzero;stroke:none"
           d="m 6217.26,16229.9 c 0,0 38.08,-227 38.82,-278.1 0.72,-51 -57.92,-193.8 -59.86,-218 -1.94,-24.1 82.18,-295.7 75.44,-310 -6.73,-14.3 -107.29,-9 -112.51,-16.6 -5.23,-7.6 -33.91,-95.8 -33.42,-105.2 0.49,-9.3 -6.23,-27.5 -6.23,-27.5 0,0 -0.96,-39.3 -12.74,-56.3 -11.79,-17.1 -21.65,-49.1 -26.99,-61 -5.33,-12 -33.71,-149 -54.92,-165.2 -21.23,-16.3 -307.4,29.2 -349.81,51.1 -42.41,21.9 -250.79,318.1 -263.2,371.8 -12.41,53.7 17.48,201.3 17.48,201.3 0,0 -115.24,48.9 -140.07,156.2 -24.82,107.4 27.42,276.2 131.92,280.7 104.5,4.4 121.77,-136.3 125.53,-174 3.75,-37.7 11.91,-86.9 16.16,-91.4 4.25,-4.5 87.73,85.4 120.22,135.9 32.49,50.6 6.18,205.6 34.79,262.3 28.61,56.7 121.78,104 161.51,109.1 39.73,5 337.88,-65.1 337.88,-65.1" /></g><path
         id="path90"
         style="fill:#bb643e;fill-opacity:1;fill-rule:nonzero;stroke:none"
         d="m 14244.8,6768.4 c 0,0 -262.1,-721.7 -386.6,-863.5 -124.6,-141.7 -395.3,-163.2 -438.2,-184.7 -43,-21.5 -1250.1,-687.3 -1495,-872.1 -244.8,-184.7 -459.6,-438.1 -459.6,-438.1 0,0 -77.4,-47.3 -167.6,-21.5 -90.2,25.8 -158.9,163.2 -180.4,206.2 -21.5,42.9 0,356.5 0,356.5 0,0 219.1,111.7 360.9,232 141.7,120.3 489.7,506.9 489.7,506.9 0,0 1149.1,1329.6 1200.7,1400.5 51.5,70.9 375.2,27 476.8,0 101.7,-27 599.3,-322.2 599.3,-322.2" /><path
         id="path92"
         style="fill:#100f0d;fill-opacity:1;fill-rule:nonzero;stroke:none"
         d="m 10917.5,5247.7 c -17,25.7 -31.5,178.4 -31.5,178.4 0,0 -82.2,17.3 -140.2,0 -58,-17.3 -128.9,-101.1 -257.7,-178.4 -128.9,-77.4 -206.2,-87.7 -244.9,-198.5 -38.7,-110.8 203.6,-633.6 203.6,-633.6 0,0 507.4,-48.6 589,65.2 81.6,113.9 150.3,120.4 116,295.4 -34.4,175 -234.3,471.5 -234.3,471.5" /><path
         id="path94"
         style="fill:#c37140;fill-opacity:1;fill-rule:nonzero;stroke:none"
         d="m 12530.7,7277.4 v -502.6 c 0,0 -502.6,-126.7 -665.8,-285.6 -163.3,-159 -1116.9,-1215.8 -1116.9,-1215.8 0,0 -77.4,-240.5 -51.6,-305 25.8,-64.4 279.2,-120.3 279.2,-120.3 0,0 305,391 674.5,575.7 369.4,184.7 889.2,489.7 975.1,524.1 86,34.3 459.7,64.4 575.7,219.1 116,154.6 240.6,777.5 240.6,777.5 l -910.8,332.9" /><path
         id="path96"
         style="fill:#e4e4e3;fill-opacity:1;fill-rule:nonzero;stroke:none"
         d="m 10886,5426.1 c -84.2,-93 -138,-152.7 -138,-152.7 0,0 -77.4,-240.5 -51.6,-305 25.8,-64.4 279.2,-120.3 279.2,-120.3 0,0 81.3,104 210.5,230 -82.5,55.9 -209.7,221.6 -300.1,348" /><path
         id="path98"
         style="fill:#252322;fill-opacity:1;fill-rule:nonzero;stroke:none"
         d="m 11315,4805.2 c 0,0 -97.9,199.3 -147.8,172.7 -49.8,-26.7 -247.4,48.7 -402.1,2.5 -154.6,-46.3 -468.2,-213.9 -476.8,-235.4 -8.6,-21.4 64.4,-532.6 189,-773.2 124.6,-240.6 141.8,-644.4 244.9,-811.9 103.1,-167.6 399.5,-330.8 515.5,-275 116,55.9 -21.5,373.8 8.6,489.8 30.1,116 98.8,386.6 116,476.8 17.2,90.2 -25.8,184.7 85.9,305 111.7,120.3 98.8,464 98.8,464 l -232,184.7" /><path
         id="path100"
         style="fill:#252322;fill-opacity:1;fill-rule:nonzero;stroke:none"
         d="m 13179.4,10175 -169.3,-216.9 c 0,0 -273.2,-290 -376.3,-554.2 -103.1,-264.2 -277,-1346.8 -399.5,-1630.3 -122.4,-283.5 -167.5,-405.9 -167.5,-405.9 0,0 405.9,-225.6 683,-367.3 277.1,-141.8 766.8,-290 766.8,-290 l 96.7,122.4 715.3,-122.4 c 0,0 115.9,960.1 199.7,1217.9 83.8,257.7 180.4,1024.5 154.7,1159.8 -25.8,135.4 -167.6,399.6 -167.6,399.6 0,0 -405.9,476.8 -683,592.8 -277.1,116 -653,94.5 -653,94.5" /><path
         id="path102"
         style="fill:#e9eef1;fill-opacity:1;fill-rule:nonzero;stroke:none"
         d="m 15240.3,12983.4 c -9.6,6.5 -231.9,143.5 -231.9,143.5 h -183.7 l -1112.6,-733.3 c 0,0 -98.8,-470.2 -201.9,-899.8 -103.1,-429.6 -176.1,-961 -180.4,-972.4 -4.3,-11.3 -154.7,-324.9 -150.4,-346.4 4.3,-21.5 262.1,-223.4 408.1,-330.8 146.1,-107.4 910.7,-369.4 927.9,-356.5 17.2,12.8 438.2,773.2 459.7,850.5 21.5,77.4 238.4,773.3 265.2,794.8 26.9,21.4 353.4,657.4 387.7,711 34.4,53.6 165.4,513.1 182.6,672.2 17.2,159 -570.3,467.2 -570.3,467.2" /><g
         transform="scale(1.05855)"
         id="g104"><path
           id="path106"
           style="fill:#8f908f;fill-opacity:1;fill-rule:nonzero;stroke:none"
           d="m 15404.7,9976.5 261.5,-6626.15 h 633.8 l -250,6691.55 c 39.5,112.7 0,216.1 0,216.1 h -687.9 c 0,0 -152.2,-100.4 -155.2,-127.8 -3,-27.4 197.8,-153.7 197.8,-153.7" /></g><g
         transform="scale(1.05855)"
         id="g108"><path
           id="path110"
           style="fill:#a8a8a6;fill-opacity:1;fill-rule:nonzero;stroke:none"
           d="m 15980,9987.15 165.6,-6636.8 h 154.4 l -250,6691.55 c 39.5,112.7 0,216.1 0,216.1 h -104.5 c -1.9,-48.8 -2.6,-113.1 4,-158.2 12.2,-82.2 30.5,-112.65 30.5,-112.65" /></g><g
         transform="scale(1.0004)"
         id="g112"><path
           id="path114"
           style="fill:#686a6c;fill-opacity:1;fill-rule:nonzero;stroke:none"
           d="m 15336.6,10804 v -286.8 l 963.4,39.1 c 0,0 -116,120.8 -45.1,297.9 l -918.3,-50.2" /></g><path
         id="path116"
         style="fill:#c37140;fill-opacity:1;fill-rule:nonzero;stroke:none"
         d="m 15424,13286.3 c 0,0 -64.4,-83.8 -174,-112.8 -109.5,-29 -241.6,-46.6 -241.6,-46.6 0,0 177.2,-233.7 207.8,-520.5 30.6,-286.7 130.5,-799 249.7,-760.3 119.2,38.6 261,547.5 261,547.5 l 132.2,71.5 c 0,0 413.4,884.5 224.3,944.7 -189,60.1 -404.9,40.8 -424.2,21.5 -19.3,-19.4 -235.2,-145 -235.2,-145" /><path
         id="path118"
         style="fill:#c37140;fill-opacity:1;fill-rule:nonzero;stroke:none"
         d="m 14923.5,13126.9 c 0,0 193.3,-292.8 128.9,-688 -64.4,-395.2 -274.9,-936.5 -687.3,-996.6 -412.4,-60.2 -562.8,562.7 -502.6,893.5 0,0 -556.2,85.9 -802.2,249.2 0,0 -87.1,-464 -100,-618.6 -12.9,-154.7 13.7,-588.6 49.8,-730.3 36.1,-141.8 -71.3,-189 -195.8,-141.8 -124.6,47.3 -258.1,105.1 -258.1,105.1 0,0 -35.1,336.5 -112.5,644.6 -77.3,308.2 -125.6,701.2 -99.8,917.1 25.7,215.9 70.9,325.6 96.6,365.8 25.8,40.2 290,127.1 425.3,140 135.3,12.9 360.9,41.9 570.3,41.9 209.4,0 470.4,-64.4 470.4,-64.4 0,0 186.9,64.4 422.1,64.4 235.1,0 396.2,-138.5 396.2,-138.5 l 198.7,-43.4" /><path
         id="path120"
         style="fill:#a45634;fill-opacity:1;fill-rule:nonzero;stroke:none"
         d="m 13780.8,12983.4 c 0,0 16.1,-161.1 174,-286.7 0,0 -257.7,64.4 -174,286.7" /><path
         id="path122"
         style="fill:#a45634;fill-opacity:1;fill-rule:nonzero;stroke:none"
         d="m 13060.3,12585 c 0,0 39.8,160 0,330.8 0,0 96.1,-139.8 60.4,-366.3 l -60.4,35.5" /><path
         id="path124"
         style="fill:#a45634;fill-opacity:1;fill-rule:nonzero;stroke:none"
         d="m 13862.5,12335.8 224.4,-29 c 0,0 51.6,-222.3 119.2,-386.6 67.7,-164.3 103.1,-212.7 103.1,-212.7 0,0 -141.7,130 -182.6,235.2 -40.8,105.3 -96.6,315.8 -96.6,315.8 l -172,49.1 4.5,28.2" /><path
         id="path126"
         style="fill:#a45634;fill-opacity:1;fill-rule:nonzero;stroke:none"
         d="m 14096.6,12487.2 c 0,0 67.6,-141.7 212.6,-244.8 0,0 -215.8,22.5 -212.6,244.8" /><path
         id="path128"
         style="fill:#dc855a;fill-opacity:1;fill-rule:nonzero;stroke:none"
         d="m 13834.5,13199.3 -109.5,-90.2 c 0,0 380.2,150.3 627.2,146 247,-4.3 372.6,-84.8 372.6,-84.8 0,0 -161.1,138.5 -396.2,138.5 -235.2,0 -422.1,-64.4 -422.1,-64.4 0,0 -261,64.4 -470.4,64.4 -44.7,0 -90.2,-1.4 -135.3,-3.6 313.9,-19.1 533.7,-105.9 533.7,-105.9" /><path
         id="path130"
         style="fill:#100f0d;fill-opacity:1;fill-rule:nonzero;stroke:none"
         d="m 14373.7,8761.7 163.2,25.7 c 0,0 -120.3,-158.9 -137.5,-201.9 -17.2,-42.9 -111.7,-665.8 -270.6,-1013.8 -159,-348 -384.7,-761.3 -384.7,-761.3 l -130.8,22.4 c 0,0 451.1,738.9 584.2,1220 133.2,481.2 176.2,708.9 176.2,708.9" /><path
         id="path132"
         style="fill:#f2f2f2;fill-opacity:1;fill-rule:nonzero;stroke:none"
         d="m 11289.3,5049.2 c -93.4,-57.9 -171.9,-98 -171.9,-98 0,0 -21.5,-313.6 0,-356.5 21.5,-43 90.2,-180.4 180.4,-206.2 90.2,-25.8 167.6,21.5 167.6,21.5 0,0 75.7,89.3 188.5,200.6 -155.4,164.1 -309.3,364.8 -364.6,438.6" /><path
         id="path134"
         style="fill:#494a4b;fill-opacity:1;fill-rule:nonzero;stroke:none"
         d="m 10691.2,3838.6 c -39.7,223.4 -158,287.8 -213.9,476.9 -35.4,119.8 -102.1,325.8 -146.2,460.7 -25.1,-15.3 -41,-26.6 -42.8,-31.2 -8.6,-21.4 64.4,-532.6 189,-773.2 124.6,-240.6 141.8,-644.4 244.9,-811.9 74.4,-121 249.6,-239.7 385,-275.3 -210,198.3 -380.8,755.1 -416,954" /><path
         id="path136"
         style="fill:#8f908f;fill-opacity:1;fill-rule:nonzero;stroke:none"
         d="m 14804.7,10765.1 284.9,-7218.6 h 670.4 l -272.2,7287.9 c 41.9,119.2 0,228.8 0,228.8 h -728.2 c 0,0 -161.1,-106.4 -164.3,-135.4 -3.2,-28.9 209.4,-162.7 209.4,-162.7" /><path
         id="path138"
         style="fill:#a8a8a6;fill-opacity:1;fill-rule:nonzero;stroke:none"
         d="m 15413.7,10776.4 180.4,-7229.9 h 165.9 l -272.2,7287.9 c 41.9,119.2 0,228.8 0,228.8 h -110.7 c -2,-51.8 -2.7,-119.8 4.3,-167.6 12.9,-87 32.3,-119.2 32.3,-119.2" /><path
         id="path140"
         style="fill:#686a6c;fill-opacity:1;fill-rule:nonzero;stroke:none"
         d="m 11988.8,10911.7 c 0,0 -38.7,-177 80.6,-257.6 l 2735.3,111 c 0,0 -116,120.9 -45.1,298.1 l -2770.8,-151.5" /><path
         id="path142"
         style="fill:#c37140;fill-opacity:1;fill-rule:nonzero;stroke:none"
         d="m 12597.7,11295.1 c 0,0 -141.7,-320.5 -135.3,-344.7 6.5,-24.2 72.5,-156.3 98.3,-225.5 25.8,-69.3 62.8,-120.9 78.9,-132.1 16.1,-11.3 91.8,0 91.8,0 0,0 66.1,-29 98.3,-30.6 32.2,-1.6 66.1,14.5 66.1,14.5 0,0 77.3,-16.4 93.4,-14.7 16.1,1.8 49.9,8.2 49.9,8.2 0,0 95.1,-12.9 149.9,9.7 54.7,22.5 67.3,355.1 74.7,372.8 7.4,17.7 150.8,37 150.8,37 0,0 -50,107.3 -80.6,120.2 -30.6,12.9 -144.9,66 -159.4,72.5 -14.5,6.4 -251.4,136.9 -251.4,136.9 0,0 -125.6,24.2 -186.8,24.2 -61.2,0 -138.6,-48.4 -138.6,-48.4" /><path
         id="path144"
         style="fill:#a45634;fill-opacity:1;fill-rule:nonzero;stroke:none"
         d="m 12689.6,10765.1 41.8,-172.3 c 0,0 10.4,-4.6 24.9,-10.2 l -66.7,182.5" /><path
         id="path146"
         style="fill:#a45634;fill-opacity:1;fill-rule:nonzero;stroke:none"
         d="m 13010.1,10786.1 29,-215.9 c 0,0 33,-4.4 71.3,-3.5 l -100.3,219.4" /><path
         id="path148"
         style="fill:#a45634;fill-opacity:1;fill-rule:nonzero;stroke:none"
         d="m 12844.2,10736.1 51.6,-159.4 c 0,0 9.9,-2.1 23.4,-4.8 l -75,164.2" /><path
         id="path150"
         style="fill:#a45634;fill-opacity:1;fill-rule:nonzero;stroke:none"
         d="m 15878.4,13200.4 c 0,0 -150.8,-180.6 -161,-231.9 -22,-111.6 26.7,-333.7 81.2,-433.9 18.1,-33.4 60.5,-69.5 60.5,-69.5 l 267.3,70.5 -248,664.8" /><path
         id="path152"
         style="fill:#a45634;fill-opacity:1;fill-rule:nonzero;stroke:none"
         d="m 15664.6,12965.2 c 0,0 -55.9,-305.1 -126.8,-478 0,0 133.2,200.9 126.8,478" /><g
         transform="scale(1.04566)"
         id="g154"><path
           id="path156"
           style="fill:#2f1d16;fill-opacity:1;fill-rule:nonzero;stroke:none"
           d="m 16287.1,13043.7 c 12.9,61.6 -28.1,122.9 -56.7,174.9 -28.5,51.9 -9.1,83.9 -37.2,125.5 -28.1,41.5 -65.9,54 -94.2,87.3 -28.3,33.3 -95.3,108.6 -122.2,137.4 -26.9,28.7 -83.8,43.4 -112.2,50.7 -28.4,7.3 -98.5,57.5 -126.4,80.7 -27.9,23.3 -91.9,17.4 -127.1,12.5 -35.3,-4.9 -86.1,42.4 -136.7,53.7 -50.7,11.2 -108.2,-16.3 -149.7,-18.1 -41.4,-1.8 -105.9,-49.9 -134.4,-68.8 -28.5,-19 -45,-8.1 -108.7,-32.3 -50.9,-19.3 -91,-87.3 -105,-113.7 -27.5,-29 -55.1,-64.9 -81.9,-109.3 -177.8,-294.3 -147.6,-709.7 -144.2,-718.1 3.3,-8.4 149.5,-71.3 288.7,-47 209.3,36.4 177.6,79.1 177.6,79.1 0,0 258.5,-199.1 274.6,-188.8 7.5,4.7 126.6,73.2 251.9,145.2 145.8,81.5 301.3,168.2 301.3,168.2 l 73.2,21.8 c 4.5,4.6 10.3,8.4 17.4,11.4 24.4,10.1 43.7,22.2 59.1,35.3 0,0 80,50.8 92.8,112.4" /></g><g
         transform="scale(1.03467)"
         id="g158"><path
           id="path160"
           style="fill:#c37140;fill-opacity:1;fill-rule:nonzero;stroke:none"
           d="m 16300,13033.6 c 0,0 -48.7,-221.8 -66.9,-268.8 -18.1,-47 -124.4,-156.2 -135,-177.5 -10.6,-21.4 -33.7,-301 -45.1,-311.6 -11.4,-10.5 -101.5,31.3 -109.2,26.2 -7.5,-5 -66.3,-75.2 -69.2,-83.9 -3,-8.7 -15.9,-22.9 -15.9,-22.9 0,0 -15.3,-35.6 -32.4,-46.9 -17.1,-11.3 -37.9,-36.9 -47.1,-45.9 -9.3,-8.9 -85.8,-123.9 -111.1,-130.9 -25.4,-7.1 -270.6,139.9 -301.4,175.5 -30.8,35.7 -112.4,383.6 -104,437.3 8.4,53.7 90.1,177.8 90.1,177.8 0,0 -87.4,87.1 -70.7,194.6 16.8,107.4 126.9,242.7 224.1,208.3 97.3,-34.5 61.3,-169.6 50.9,-205.5 -10.5,-35.9 -21.1,-83.9 -18.9,-89.6 2.2,-5.7 111.7,45.9 160.1,80.2 48.4,34.2 81.3,185.9 128.4,227.2 47.1,41.3 149.8,50.4 188,40.4 38.3,-10.1 285.3,-184 285.3,-184" /></g></g></g></svg>