<?xml version="1.0" encoding="UTF-8" standalone="no"?>
<svg
   xmlns:dc="http://purl.org/dc/elements/1.1/"
   xmlns:cc="http://creativecommons.org/ns#"
   xmlns:rdf="http://www.w3.org/1999/02/22-rdf-syntax-ns#"
   xmlns:svg="http://www.w3.org/2000/svg"
   xmlns="http://www.w3.org/2000/svg"
   viewBox="0 0 2666.6667 2666.6667"
   height="2666.6667"
   width="2666.6667"
   xml:space="preserve"
   id="svg2"
   version="1.1"><metadata
     id="metadata8"><rdf:RDF><cc:Work
         rdf:about=""><dc:format>image/svg+xml</dc:format><dc:type
           rdf:resource="http://purl.org/dc/dcmitype/StillImage" /></cc:Work></rdf:RDF></metadata><defs
     id="defs6" /><g
     transform="matrix(1.3333333,0,0,-1.3333333,0,2666.6667)"
     id="g10"><g
       transform="scale(0.1)"
       id="g12"><g
         transform="scale(1.22699)"
         id="g14"><path
           id="path16"
           style="fill:#ffffff;fill-opacity:1;fill-rule:nonzero;stroke:none"
           d="M 16300,0 H 0 V 16300 H 16300 V 0" /></g><path
         id="path18"
         style="fill:#c37140;fill-opacity:1;fill-rule:nonzero;stroke:none"
         d="m 4062.34,12787.4 c 0,13.7 31.98,205.6 31.98,205.6 0,0 260.44,68.5 511.74,-102.8 251.3,-171.4 287.86,-578 297,-893.3 0,0 187.33,-329 278.71,-662.5 0,0 159.92,-219.3 251.3,-429.5 91.38,-210.2 105.09,-566.6 105.09,-566.6 l -507.17,-109.6 -447.77,261 -557.43,1027.5 v 1187.9 l 36.55,82.3" /><path
         id="path20"
         style="fill:#636567;fill-opacity:1;fill-rule:nonzero;stroke:none"
         d="m 3363.27,10489.7 -351.22,-250.3 332.94,-1972 2025.46,-437.5 1003.86,543.7 -836.15,1220 -2174.89,896.1" /><path
         id="path22"
         style="fill:#d3d2d0;fill-opacity:1;fill-rule:nonzero;stroke:none"
         d="m 6287.94,14360.8 -91.83,23.3 v -3296.4 h 91.83 v 3273.1" /><path
         id="path24"
         style="fill:#d3d2d0;fill-opacity:1;fill-rule:nonzero;stroke:none"
         d="m 6661.47,14266 -91.83,23.3 V 10924 h 91.83 v 3342" /><path
         id="path26"
         style="fill:#d3d2d0;fill-opacity:1;fill-rule:nonzero;stroke:none"
         d="m 7050.03,14167.5 -106.87,27.1 V 10815.2 H 7035 l 15.03,3352.3" /><path
         id="path28"
         style="fill:#a5a5a4;fill-opacity:1;fill-rule:nonzero;stroke:none"
         d="M 5538.16,10338.3 V 14727 c 0,0 0,130.2 164.49,137 164.49,6.9 1681.43,-414.8 1681.43,-414.8 v -366.5 l -1242.8,315.3 c 0,0 -109.65,34.3 -143.92,-48 -34.27,-82.2 -153.13,-4413.5 -153.13,-4413.5 l -331.98,90.1 25.91,311.7" /><path
         id="path30"
         style="fill:#636567;fill-opacity:1;fill-rule:nonzero;stroke:none"
         d="m 5791.75,10321 c 2.18,55.3 0,739.3 0,739.3 l 466.05,232.8 1089.73,-425 V 9812.9 c 0,0 -12.66,-140.5 -33.4,-134.2 -20.74,6.3 -768.48,102 -768.48,102 l -753.9,540.3" /><path
         id="path32"
         style="fill:#d3d2d0;fill-opacity:1;fill-rule:nonzero;stroke:none"
         d="m 9574.97,10135 185.05,-132.4 c 0,0 171.34,-34.8 137.07,-221.9 l -719.63,-331.1 c 0,0 -223.36,218.3 -130.22,342.7 93.14,124.5 527.73,342.7 527.73,342.7" /><path
         id="path34"
         style="fill:#878888;fill-opacity:1;fill-rule:nonzero;stroke:none"
         d="m 9622.95,10394.6 c 0,0 164.49,-236.6 137.07,-392 0,0 -568.85,-308.5 -575.71,-262.8 -6.85,45.7 -102.8,395.2 -102.8,395.2 l 233.03,186 308.41,73.6" /><path
         id="path36"
         style="fill:#d3d2d0;fill-opacity:1;fill-rule:nonzero;stroke:none"
         d="m 8267.17,10362.3 c 13.71,28.3 -47.98,590.3 486.61,583.4 534.59,-6.8 753.91,-488.3 753.91,-488.3 l -640.26,-354.7 c 0,0 -415.21,18.3 -449.48,57.1 -34.27,38.9 -150.78,202.5 -150.78,202.5" /><path
         id="path38"
         style="fill:#a5a5a4;fill-opacity:1;fill-rule:nonzero;stroke:none"
         d="m 8617.74,7057.7 38.84,595.4 c 0,0 54.83,21.4 0,144.8 -54.83,123.4 -157.63,190.8 -157.63,190.8 V 8401 c 0,0 287.85,20.6 287.85,48 0,27.4 109.66,808.7 102.8,836.1 -6.85,27.5 -225.81,71.1 -229.39,91.6 -3.58,20.6 -161.26,436.2 -161.26,436.2 0,0 -335.83,-164.5 -342.69,-143.9 -6.85,20.5 -34.26,68.5 -89.09,143.9 -54.83,75.4 -109.67,116.5 -109.67,116.5 v 133.9 l 1781.96,578.9 c 0,0 178.2,-82.3 95.95,-301.6 l -596.27,-283.7 102.81,-86.4 -398.01,-3016.3 -326.2,103.5" /><path
         id="path40"
         style="fill:#d3d2d0;fill-opacity:1;fill-rule:nonzero;stroke:none"
         d="m 6400.57,8115.6 c 24.17,11.5 2733.48,-1249.8 2733.48,-1249.8 l -182.76,-155.3 -2806.11,1284.3 255.39,120.8" /><path
         id="path42"
         style="fill:#a5a5a4;fill-opacity:1;fill-rule:nonzero;stroke:none"
         d="M 5927.92,7892 8951.29,6440.5 v 270 L 6081.88,8092.9 5927.92,7892" /><path
         id="path44"
         style="fill:#636567;fill-opacity:1;fill-rule:nonzero;stroke:none"
         d="m 8951.29,6440.5 251.3,105.5 -68.54,319.8 -182.76,-155.3 v -270" /><path
         id="path46"
         style="fill:#c37140;fill-opacity:1;fill-rule:nonzero;stroke:none"
         d="m 6186.98,6221.6 c 0,0 190.76,-72 231.88,-51.4 41.12,20.5 51.4,37.7 51.4,37.7 0,0 51.41,-34.6 92.53,-13.9 41.12,20.7 41.12,20.7 41.12,20.7 0,0 34.26,-27.4 68.54,6.9 34.26,34.2 41.11,58.2 41.11,58.2 0,0 106.24,-13.7 126.8,44.6 20.56,58.2 -123.37,195.3 -154.21,181.6 -30.84,-13.7 -316.47,-29.1 -316.47,-29.1 l -182.7,-255.3" /><path
         id="path48"
         style="fill:#c37140;fill-opacity:1;fill-rule:nonzero;stroke:none"
         d="m 6816.37,6536.8 c 0,0 109.66,-78.8 185.05,-85.6 75.39,-6.9 116.51,-43.4 205.61,-62.9 89.1,-19.4 140.5,27.5 126.79,74.3 0,0 68.54,-4.6 75.39,74.2 0,0 41.13,13.7 34.27,54.9 0,0 54.83,6.8 34.27,71.9 0,0 54.83,54.8 -78.82,89.1 -133.64,34.3 -352.96,51.4 -397.51,27.4 -44.55,-24 -102.8,-54.8 -106.23,-71.9 -3.43,-17.2 -78.82,-171.4 -78.82,-171.4" /><path
         id="path50"
         style="fill:#a5a5a4;fill-opacity:1;fill-rule:nonzero;stroke:none"
         d="m 5126.94,6450 c 27.42,27.4 580.28,287.9 580.28,287.9 l 141.64,-178.2 -283.28,-319.9 -223.89,-54.8 -167.41,-41.8 -47.34,306.8" /><path
         id="path52"
         style="fill:#898b8b;fill-opacity:1;fill-rule:nonzero;stroke:none"
         d="m 5327.98,6078.5 1105.73,609.1 c 0,0 -555.41,-150.3 -584.85,-127.9 -29.44,22.4 -644.24,-351.8 -644.24,-351.8 l 123.36,-129.4" /><path
         id="path54"
         style="fill:#a5a5a4;fill-opacity:1;fill-rule:nonzero;stroke:none"
         d="m 2668.76,6815.5 73.11,-182.7 1717.98,881.8 v -932.1 l 201.04,-132.5 -22.84,1379.9 -1882.48,-875.7 -86.81,-138.7" /><path
         id="path56"
         style="fill:#636567;fill-opacity:1;fill-rule:nonzero;stroke:none"
         d="m 2668.76,7062.3 -137.08,-9.2 v -319.8 l 210.19,-100.5 13.7,321.4 -86.81,108.1" /><path
         id="path58"
         style="fill:#d3d2d0;fill-opacity:1;fill-rule:nonzero;stroke:none"
         d="m 2531.68,7053.1 223.89,-98.9 1882.48,875.7 v 158.8 L 4526.51,8015 2531.68,7053.1" /><path
         id="path60"
         style="fill:#a5a5a4;fill-opacity:1;fill-rule:nonzero;stroke:none"
         d="m 3893.28,8579.2 265.01,-292.4 964.08,-242.2 2261.71,945.8 v 667.1 l -196.47,59.4 -4.57,150.8 155.35,105.1 45.69,4476.4 408.94,-143.7 -143.93,-6744 -349.53,-44.6 -20.57,1014.3 -2042.39,-966.3 41.12,-1398.4 -226.17,-136.8 -164.48,48.8 -20.57,1856.5 -1295.34,304.7 h -130.22 v -928.4 l -255.87,-137.1 -169.06,137.1 -34.27,1184.3 h 68.54 l 20.56,782.7 c 0,0 317.06,-272.5 291.59,-296.5 -438.13,-411.6 530.85,-402.6 530.85,-402.6" /><path
         id="path62"
         style="fill:#c37140;fill-opacity:1;fill-rule:nonzero;stroke:none"
         d="m 6374.31,10192.1 269.58,-164.5 c 0,0 370.09,-196.4 447.77,-488.9 77.68,-292.4 -82.24,-1096.6 -150.78,-1558 -68.54,-461.5 -73.11,-694.5 -73.11,-694.5 0,0 -443.2,-182.8 -447.77,-169.1 0,0 31.98,292.4 -82.24,676.2 -114.23,383.8 -169.06,881.9 -169.06,881.9 0,0 -639.68,891 -630.54,918.4 9.14,27.4 310.7,434 315.27,447.7 4.57,13.7 269.58,100.6 347.25,123.4 77.68,22.9 173.63,27.4 173.63,27.4" /><path
         id="path64"
         style="fill:#a45634;fill-opacity:1;fill-rule:nonzero;stroke:none"
         d="m 6337.76,7793.3 c 14.38,-48.3 26.44,-95.2 36.55,-140.2 v 0 c 0,0 -31.99,350.4 0,720.5 31.98,370.1 219.32,594 105.09,986.9 -114.23,393 -448.6,498.5 -448.6,498.5 0,0 -82.32,84.7 -147.8,197.9 -17.61,-7.3 -28.67,-12.9 -29.57,-15.6 -4.57,-13.7 -306.13,-420.3 -315.27,-447.7 -9.14,-27.4 630.54,-918.4 630.54,-918.4 0,0 54.83,-498.1 169.06,-881.9" /><path
         id="path66"
         style="fill:#c37140;fill-opacity:1;fill-rule:nonzero;stroke:none"
         d="m 5186.34,8748.3 73.11,-22.9 c 0,0 -68.54,-315.2 0,-511.7 68.53,-196.5 228.45,-795 233.02,-1050.9 4.57,-255.9 -77.68,-383.8 -45.69,-488.9 31.98,-105.1 223.89,-205.6 246.73,-196.5 22.85,9.2 406.65,347.3 392.95,374.7 -13.71,27.4 -178.2,41.1 -155.36,484.3 22.85,443.2 319.84,1306.8 319.84,1306.8 0,0 187.34,338.1 91.38,662.5 -95.94,324.4 -360.95,434.1 -360.95,434.1 0,0 -301.07,248.9 -345.19,259.4 -44.12,10.6 -278.15,-4.4 -343.43,-36 -65.29,-31.5 -374.29,-525 -374.29,-525 l 41.71,-411.2 226.17,-278.7" /><path
         id="path68"
         style="fill:#252323;fill-opacity:1;fill-rule:nonzero;stroke:none"
         d="m 3546.03,9790 c 0,0 18.28,-710.5 326.69,-888.7 308.42,-178.2 577.99,-75.3 929.81,-116.5 351.83,-41.1 383.81,-36.5 383.81,-36.5 0,0 -95.95,342.7 0,657.9 95.95,315.3 406.65,475.2 406.65,475.2 l 388.38,-141.6 c 0,0 73.1,292.4 392.94,452.3 0,0 -324.41,173.7 -699.08,196.5 -374.66,22.8 -552.86,-27.4 -552.86,-27.4 l -991.5,-100.5 -283.28,-228.5 -301.56,-242.2" /><path
         id="path70"
         style="fill:#a45634;fill-opacity:1;fill-rule:nonzero;stroke:none"
         d="m 4835.02,11293.1 c 0,0 117.15,-116.3 199.4,-102.6 82.24,13.7 109.66,102.6 109.66,102.6 0,0 10.28,-123.2 -89.1,-157.5 -99.38,-34.2 -219.96,78.8 -219.96,78.8 v 78.7" /><path
         id="path72"
         style="fill:#636567;fill-opacity:1;fill-rule:nonzero;stroke:none"
         d="m 1898.87,13166.4 c 0,0 -178.2,-29.8 -171.35,-159.9 6.86,-130 795.03,-1918.8 795.03,-1918.8 L 3546.03,12102 3091.4,13513.9 1898.87,13166.4" /><path
         id="path74"
         style="fill:#4c4d4e;fill-opacity:1;fill-rule:nonzero;stroke:none"
         d="m 2419.74,12054 c -22.14,39.9 -273.07,683.2 -447.97,1133.7 l -72.9,-21.3 c 0,0 -178.2,-29.8 -171.35,-159.9 6.86,-130 795.03,-1918.8 795.03,-1918.8 l 921.8,913.5 -1024.61,52.8" /><path
         id="path76"
         style="fill:#e9eef1;fill-opacity:1;fill-rule:nonzero;stroke:none"
         d="m 3111.96,12961 -228.45,-18.3 -129.74,-191.9 c 0,0 422.16,-269.5 554.67,-827 132.5,-557.4 -255.88,-1009.8 -255.88,-1009.8 l 493.47,-1124 c 0,0 310.7,182.8 763.04,251.3 452.34,68.6 744.77,178.2 813.3,319.9 0,0 -246.73,594 -255.87,740.2 -9.14,146.2 -150.78,699 -146.21,721.9 4.57,22.8 82.24,118.8 41.12,356.4 -41.12,237.6 -424.93,644.2 -534.58,758.5 l -132.51,54.8 -169.06,95.9 -813.3,-127.9" /><path
         id="path78"
         style="fill:#c37140;fill-opacity:1;fill-rule:nonzero;stroke:none"
         d="m 3056.11,13561.3 -17.09,-371.8 -155.51,-246.8 c 0,0 762.22,-488.9 963.67,-392.9 201.45,95.9 78.08,539.1 78.08,539.1 l -146.21,50.3 -8.72,42.4 -251.72,474.3 c 0,0 -265.01,246.3 -283.28,241.8 -18.27,-4.6 -228.45,25.4 -228.45,-39.9 0,-65.2 49.23,-296.5 49.23,-296.5" /><path
         id="path80"
         style="fill:#a45634;fill-opacity:1;fill-rule:nonzero;stroke:none"
         d="m 3847.18,13655.9 -164.91,-334.1 -526.65,273.6 c 0,0 24.75,-246.9 203.38,-348.1 205.49,-116.4 374.72,-76 411.33,-65.7 l 76.85,474.3" /><path
         id="path82"
         style="fill:#c37140;fill-opacity:1;fill-rule:nonzero;stroke:none"
         d="m 2753.77,12750.8 -66.73,-159.9 c 0,0 -328.98,-155.3 -392.95,-511.7 -63.96,-356.4 59.4,-639.7 59.4,-639.7 0,0 -13.7,-301.6 118.8,-498 132.5,-196.5 255.87,-451.8 255.87,-451.8 0,0 50.26,-471.2 169.06,-868.7 118.79,-397.5 287.85,-836.2 287.85,-836.2 l 296.99,77.7 c 0,0 -18.28,374.7 0,859 18.28,484.3 -118.79,768.2 -118.79,768.2 0,0 29.15,442.4 -99.66,803.4 0,0 166.68,304.3 9.8,753.1 -156.88,448.7 -519.64,704.6 -519.64,704.6" /><path
         id="path84"
         style="fill:#a45634;fill-opacity:1;fill-rule:nonzero;stroke:none"
         d="m 3134.81,11964.9 -155.35,-374.6 77.67,27.3 206.48,-324.5 c 0,0 42.12,119 43.47,146.4 1.36,27.4 -150.78,251.3 -163.81,274.1 -13.03,22.9 -8.46,251.3 -8.46,251.3" /><path
         id="path86"
         style="fill:#a45634;fill-opacity:1;fill-rule:nonzero;stroke:none"
         d="m 2879.72,11389.2 c 0,0 -124.15,-571.1 282.5,-817.8 0,0 -249.74,324.4 -282.5,817.8" /><path
         id="path88"
         style="fill:#100f0d;fill-opacity:1;fill-rule:nonzero;stroke:none"
         d="m 4921.33,10050.5 c -45.58,-5.6 462.63,-92.8 671.66,-169.1 l 388.38,-141.6 49.43,119.2 c 0,0 -510.91,264.6 -1109.47,191.5" /><path
         id="path90"
         style="fill:#636567;fill-opacity:1;fill-rule:nonzero;stroke:none"
         d="m 5829.44,6893.2 c 0,0 1869.91,904.7 2011.56,932.1 141.64,27.4 328.97,-68.5 392.94,-278.7 63.97,-210.2 -13.71,-335 -105.09,-430.2 C 8037.47,7021.2 6155,6111.9 6155,6111.9 c 0,0 -182.77,-109.7 -406.66,68.5 -223.89,178.2 -187.01,583.7 81.1,712.8" /><path
         id="path92"
         style="fill:#a5a5a4;fill-opacity:1;fill-rule:nonzero;stroke:none"
         d="m 5891.07,6428.7 c 32.45,-78.1 15.31,-159.4 -38.29,-181.7 -53.6,-22.3 -123.34,22.9 -155.79,101 -32.44,78.1 -15.3,159.4 38.29,181.7 53.6,22.3 123.35,-23 155.79,-101" /><path
         id="path94"
         style="fill:#c37140;fill-opacity:1;fill-rule:nonzero;stroke:none"
         d="m 3185.07,8784.8 c 0,0 111.94,-445.5 159.92,-517.4 47.97,-72 185.05,-126.8 260.44,-181.6 75.39,-54.9 346.59,143.9 332.65,174.7 -13.95,30.9 -226.42,6.9 -246.98,37.7 -20.56,30.9 -27.42,137.1 -13.71,164.5 13.71,27.4 47.98,99.4 99.38,85.7 51.4,-13.7 78.82,-51.4 113.08,-61.7 34.28,-10.3 140.51,0 143.93,41.1 3.43,41.1 -57.77,61.7 -95.7,82.3 -37.94,20.5 -68.79,61.6 -133.9,92.5 -65.1,30.8 -178.19,12.3 -236.45,45.5 -58.25,33.3 -85.67,114.4 -85.67,114.4 l -296.99,52.5 v -130.2" /><path
         id="path96"
         style="fill:#a5a5a4;fill-opacity:1;fill-rule:nonzero;stroke:none"
         d="m 1117.54,12235.7 921.83,301.6 c 0,0 95.95,-58.2 54.82,-150.8 l -918.39,-301.6 c 0,0 -113.09,24 -58.26,150.8" /><path
         id="path98"
         style="fill:#d3d2d0;fill-opacity:1;fill-rule:nonzero;stroke:none"
         d="m 3134.81,6888.7 -54.83,105 283.29,146.3 1096.58,-557.5 201.04,-132.5 -22.84,1538.7 228.45,-53.7 20.57,-1856.5 -1752.26,810.2" /><path
         id="path100"
         style="fill:#d3d2d0;fill-opacity:1;fill-rule:nonzero;stroke:none"
         d="m 5277.72,6166.5 1357.03,-689.7 -265.07,-150.8 -1482.61,752.5 390.65,88" /><path
         id="path102"
         style="fill:#636567;fill-opacity:1;fill-rule:nonzero;stroke:none"
         d="m 6369.68,5006.2 283.35,182.7 -18.28,287.9 -265.07,-150.8 v -319.8" /><path
         id="path104"
         style="fill:#d3d2d0;fill-opacity:1;fill-rule:nonzero;stroke:none"
         d="m 8814.21,8188.6 c 0,0 -19.43,-383.8 93.09,-390.7 112.52,-6.8 318.13,134.9 345.55,190.8 27.41,55.9 -153.06,275.3 -175.91,295.8 -22.85,20.6 -577.99,1528.4 -577.99,1528.4 L 8257.36,9701 8814.21,8188.6" /><path
         id="path106"
         style="fill:#a5a5a4;fill-opacity:1;fill-rule:nonzero;stroke:none"
         d="m 7639.61,10056.9 194.53,-189.2 123.36,61.7 c 0,0 143.94,-109.7 198.76,-260.4 l -322.12,-164.5 -239.88,109.6 45.35,442.8" /><path
         id="path108"
         style="fill:#a5a5a4;fill-opacity:1;fill-rule:nonzero;stroke:none"
         d="m 7676.51,10594.2 363.24,-143.9 217.61,71.9 c 0,0 375.35,53.7 335.88,-252.4 -39.47,-306.1 -635.74,-206.5 -635.74,-206.5 l -438.63,176.1 157.64,354.8" /><path
         id="path110"
         style="fill:#636567;fill-opacity:1;fill-rule:nonzero;stroke:none"
         d="m 5682.09,14254.1 v -695.7 c 0,0 1401.58,-431.8 1463.26,-431.8 61.68,0 225.93,68.6 225.93,68.6 l 7.91,774.4 c 0,0 -55.65,-41.1 -185.86,-41.1 -130.22,0 -1511.24,325.6 -1511.24,325.6" /><path
         id="path112"
         style="fill:#a5a5a4;fill-opacity:1;fill-rule:nonzero;stroke:none"
         d="M 3079.98,6993.7 V 6806.3 L 6369.68,5006.2 V 5326 l -3289.7,1667.7" /><path
         id="path114"
         style="fill:#2f1d16;fill-opacity:1;fill-rule:nonzero;stroke:none"
         d="m 3877.46,14374 c 0,0 2.05,8.1 4.08,22.1 7.41,42.7 21.41,136.7 10.91,188.4 -13.87,68.2 -80.99,96 -110.36,148.6 -29.36,52.7 -120.98,63 -158.97,74 -38,11.1 -116.34,43 -163.61,45.2 -47.27,2.2 -103.21,5.3 -121,-3.2 -17.81,-8.4 -102.9,-1 -131.68,-5.4 -28.78,-4.4 -79.55,-36.8 -101.28,-46.8 -21.72,-10 -41.49,-14.7 -75.75,-26.1 -34.25,-11.4 -42.92,-59.2 -58.95,-86.4 -16.03,-27.1 -16.43,-11.9 -61.14,-43.5 -44.71,-31.6 -49.23,-117 -49.23,-117 0,0 -61.14,-43.6 -67,-59.4 -5.86,-15.9 0,0 -43.49,-77.1 -43.49,-77.1 4.82,-126.9 -20.95,-170.7 -25.77,-43.7 18.95,-87 21.93,-95.2 2.98,-8.2 8.24,-59 10.84,-117.1 2.36,-52.7 58.19,-110.1 100.12,-191.6 4.13,-8.8 8.24,-17.4 12.27,-25.4 42.3,-95.4 181.91,-226.1 181.91,-226.1 0,0 74.82,254.7 135.84,322.4 61.02,67.6 362.96,185.4 375.8,226.9 12.84,41.5 309.71,263.4 309.71,263.4" /><path
         id="path116"
         style="fill:#c37140;fill-opacity:1;fill-rule:nonzero;stroke:none"
         d="m 3819.35,14439.5 c 0,0 46.47,-46.4 58.11,-65.5 11.64,-19 42.52,-201.5 51.62,-247.5 9.1,-46 5.4,-110.4 8.36,-132.9 2.96,-22.4 24.08,-159.8 25.19,-214.4 1.11,-54.7 -31.18,-272.2 -43.35,-330.1 -12.17,-58 -30.95,-135.1 -55.93,-153.6 -24.98,-18.5 -142.44,-40.1 -251.37,-22.4 -108.92,17.6 -332.33,129.8 -397.38,195.9 -65.03,66.1 -77.65,219.7 -77.65,219.7 0,0 -41.84,-17.7 -92.66,21.3 -50.82,39 -135.48,126.9 -134.7,236.6 0.78,109.8 88.24,81.7 135.86,43.8 47.63,-37.9 57.8,-103.6 66.98,-103.9 9.18,-0.3 17.77,3.9 22.06,6 4.29,2.1 10.67,115.6 9.21,138.2 -1.46,22.7 -23.69,156.8 -21.29,161.7 2.41,4.9 96.19,154.3 130.35,172.5 34.15,18.2 566.59,74.6 566.59,74.6" /><path
         id="path118"
         style="fill:#a5a5a4;fill-opacity:1;fill-rule:nonzero;stroke:none"
         d="m 14122.8,6579.7 c 27.4,27.4 1798.5,963.1 1798.5,963.1 l 262,-125.8 -1621.9,-1047.5 -223.9,-54.8 -167.4,-41.8 -47.3,306.8" /><path
         id="path120"
         style="fill:#898b8b;fill-opacity:1;fill-rule:nonzero;stroke:none"
         d="M 16107.3,7453.5 C 15812.8,7282.1 14200.4,6337.6 14200.4,6337.6 l 123.4,-129.4 1950.2,1165.3 -166.7,80" /><g
         transform="scale(1.0046)"
         id="g122"><path
           id="path124"
           style="fill:#636567;fill-opacity:1;fill-rule:nonzero;stroke:none"
           d="m 12246.6,10217.7 c 0,0 -17,-1599.06 175.8,-1631.8 192.8,-32.85 1653,-633.79 1653,-633.79 l 2224.6,993.13 -1342.2,997.71 -2711.2,274.75" /></g><path
         id="path126"
         style="fill:#d3d2d0;fill-opacity:1;fill-rule:nonzero;stroke:none"
         d="m 11527.5,7182.8 223.9,-98.9 1882.5,875.7 v 158.8 l -111.6,26.3 -1994.8,-961.9" /><g
         transform="scale(1.10105)"
         id="g128"><path
           id="path130"
           style="fill:#a5a5a4;fill-opacity:1;fill-rule:nonzero;stroke:none"
           d="M 13554.2,7285.5 16300,5967.22 v 245.22 l -2606.1,1255.53 -139.7,-182.47" /></g><g
         transform="scale(1.16118)"
         id="g132"><path
           id="path134"
           style="fill:#a5a5a4;fill-opacity:1;fill-rule:nonzero;stroke:none"
           d="m 15993.1,8839.91 159.3,-114.03 c 0,0 147.6,-29.99 118.1,-191.1 l -619.8,-285.14 c 0,0 -192.3,188 -112.1,295.13 80.2,107.19 454.5,295.14 454.5,295.14" /></g><g
         transform="scale(1.15235)"
         id="g136"><path
           id="path138"
           style="fill:#878888;fill-opacity:1;fill-rule:nonzero;stroke:none"
           d="m 16157.2,9132.86 c 0,0 142.8,-205.23 118.9,-340.13 0,0 -493.6,-267.71 -499.6,-228.06 -5.9,39.66 -401.7,267.27 -401.7,267.27 l 514.8,237.09 267.6,63.83" /></g><g
         transform="scale(1.12838)"
         id="g140"><path
           id="path142"
           style="fill:#d3d2d0;fill-opacity:1;fill-rule:nonzero;stroke:none"
           d="m 15200.6,9326.86 c 12.2,25.09 -42.5,523.16 431.3,517.08 473.8,-6.07 668.1,-432.77 668.1,-432.77 l -567.4,-314.32 c 0,0 -368,16.2 -398.3,50.63 -30.4,34.41 -133.7,179.38 -133.7,179.38" /></g><g
         transform="scale(1.11226)"
         id="g144"><path
           id="path146"
           style="fill:#d3d2d0;fill-opacity:1;fill-rule:nonzero;stroke:none"
           d="m 13842.4,7413.08 c 21.8,10.34 2457.6,-1123.66 2457.6,-1123.66 l -164.3,-139.62 -2522.9,1154.67 229.6,108.61" /></g><path
         id="path148"
         style="fill:#636567;fill-opacity:1;fill-rule:nonzero;stroke:none"
         d="m 10894.7,13296.2 c 0,0 -178.2,-29.9 -171.4,-160 6.9,-130 795.1,-1918.8 795.1,-1918.8 l 1023.5,1014.3 -454.7,1411.9 -1192.5,-347.4" /><path
         id="path150"
         style="fill:#4c4d4e;fill-opacity:1;fill-rule:nonzero;stroke:none"
         d="m 11415.6,12183.7 c -22.2,39.9 -273.1,683.2 -448,1133.7 l -72.9,-21.2 c 0,0 -178.2,-29.9 -171.4,-160 6.9,-130 795.1,-1918.8 795.1,-1918.8 l 921.8,913.5 -1024.6,52.8" /><path
         id="path152"
         style="fill:#c37140;fill-opacity:1;fill-rule:nonzero;stroke:none"
         d="m 13058.2,12917.1 c 0,13.7 32,205.6 32,205.6 0,0 260.4,68.5 511.7,-102.8 251.3,-171.4 287.8,-578 297,-893.3 0,0 187.3,-328.9 278.7,-662.5 0,0 159.9,-219.3 251.3,-429.5 91.4,-210.2 105.1,-566.6 105.1,-566.6 l -507.2,-109.6 -447.7,261 -557.5,1027.5 v 1187.9 l 36.6,82.3" /><path
         id="path154"
         style="fill:#a45634;fill-opacity:1;fill-rule:nonzero;stroke:none"
         d="m 13830.8,11422.9 c 0,0 117.2,-116.4 199.4,-102.7 82.3,13.7 109.7,102.7 109.7,102.7 0,0 10.3,-123.3 -89.1,-157.5 -99.4,-34.3 -220,78.7 -220,78.7 v 78.8" /><path
         id="path156"
         style="fill:#d3d2d0;fill-opacity:1;fill-rule:nonzero;stroke:none"
         d="m 15283.8,14490.5 -91.9,23.3 v -3296.4 h 91.9 v 3273.1" /><path
         id="path158"
         style="fill:#d3d2d0;fill-opacity:1;fill-rule:nonzero;stroke:none"
         d="m 15657.3,14395.7 -91.8,23.3 v -3365.3 h 91.8 v 3342" /><path
         id="path160"
         style="fill:#d3d2d0;fill-opacity:1;fill-rule:nonzero;stroke:none"
         d="m 16045.9,14297.2 -106.9,27.1 v -3379.4 h 91.8 l 15.1,3352.3" /><g
         transform="scale(1.0049)"
         id="g162"><path
           id="path164"
           style="fill:#a5a5a4;fill-opacity:1;fill-rule:nonzero;stroke:none"
           d="m 14463.1,10417 v 4367.2 c 0,0 0,129.6 163.7,136.4 163.7,6.8 1673.2,-412.8 1673.2,-412.8 v -364.7 l -1236.7,313.7 c 0,0 -109.1,34.1 -143.2,-47.7 -34.2,-81.9 -152.4,-4392 -152.4,-4392 l -330.4,89.6 25.8,310.3" /></g><g
         transform="scale(1.00279)"
         id="g166"><path
           id="path168"
           style="fill:#636567;fill-opacity:1;fill-rule:nonzero;stroke:none"
           d="m 14741.3,10127.3 c 2.1,55.2 5.1,1360 5.1,1360 l 464.7,232.2 1086.8,-423.8 v -1052.3 c 0,0 2.1,-844.53 -19.3,-841.94 -323.8,39.29 -77,-39.69 -77,-39.69 l -1460.3,765.53" /></g><g
         transform="scale(1.02999)"
         id="g170"><path
           id="path172"
           style="fill:#a5a5a4;fill-opacity:1;fill-rule:nonzero;stroke:none"
           d="m 12513.8,8455.35 257.3,-283.89 936.1,-235.15 2195.8,918.26 v 647.68 l -190.8,57.67 -4.3,146.41 150.7,102.04 44.4,4346.03 397,-139.5 -139.7,-6547.63 -339.3,-43.3 -20,984.77 -1983,-938.16 40,-1357.69 -219.6,-132.82 -159.7,47.38 -20,1802.45 -1257.6,295.83 h -126.4 v -901.37 l -248.4,-133.11 -164.2,133.11 -33.2,1149.92 h 66.5 l 20,759.81 c 0,0 285.9,-610.4 319.2,-617.09 33.2,-6.61 479.2,-61.65 479.2,-61.65" /></g><g
         transform="scale(1.05428)"
         id="g174"><path
           id="path176"
           style="fill:#c37140;fill-opacity:1;fill-rule:nonzero;stroke:none"
           d="m 14336.8,8986.97 c 21.7,-4.37 412.5,-221.1 427.3,-225.37 14.8,-4.36 177,-219.77 386.2,-298.4 209.2,-78.63 1149.7,-100.26 1149.7,-100.26 l -336.5,775.22 c 0,0 -408.9,156.13 -703.7,194.64 0,0 -86.5,98.64 -246.9,181.94 -160.3,83.27 -190.7,67.49 -208,94.88 -17.4,27.4 -106.5,126.06 -226.2,180.77 -119.6,54.69 -552.1,-131.71 -557.4,-157.7 -5.2,-26.01 -38,-170.04 0,-271.35 38.1,-101.39 -70.2,2.66 55.5,-136.01 125.7,-138.67 260,-238.36 260,-238.36" /></g><g
         transform="scale(1.01549)"
         id="g178"><path
           id="path180"
           style="fill:#a45634;fill-opacity:1;fill-rule:nonzero;stroke:none"
           d="m 15810.3,9019.78 c -319.8,38.8 -583.9,368.98 -723.4,566.91 -139.4,197.94 -289.5,249.64 -289.5,249.64 0,0 -32.5,146.07 -53.4,256.47 -102.9,-39.5 -184.7,-80.7 -187.1,-92.1 -5.4,-27.05 -39.5,-176.58 0,-281.75 39.6,-105.27 -72.9,2.75 57.6,-141.21 130.5,-143.97 269.9,-247.47 269.9,-247.47 22.6,-4.53 428.3,-229.55 443.7,-233.98 15.3,-4.53 183.7,-228.16 400.9,-309.8 94.5,-35.55 332.3,-59.78 571,-75.92 -200,167.01 -382.9,296.21 -489.7,309.21" /></g><path
         id="path182"
         style="fill:#c37140;fill-opacity:1;fill-rule:nonzero;stroke:none"
         d="m 14182.2,8878 51,-24.6 c 0,0 -77.7,-452.4 63.9,-772.2 141.7,-319.9 219.4,-676.2 205.7,-877.3 -13.7,-201 -132.5,-278.7 -54.9,-443.2 77.7,-164.5 734.9,-409.4 734.9,-409.4 l 348,115.1 151.2,169.3 c 0,0 -68.9,42.8 -123.8,79.3 -54.8,36.6 -338.1,73.1 -534.6,292.5 -196.4,219.3 77.7,1338.7 73.1,1722.5 0,0 219.4,466.1 150.8,767.6 -68.5,301.6 -270.3,371.9 -270.3,371.9 l -246,261.8 -549,-65.1 -299.3,-536.6 73.1,-351.8 226.2,-299.8" /><path
         id="path184"
         style="fill:#252323;fill-opacity:1;fill-rule:nonzero;stroke:none"
         d="m 12541.9,9919.7 c 0,0 18.2,-710.5 326.7,-888.6 308.4,-178.2 577.9,-75.4 929.8,-116.6 351.8,-41.1 383.8,-36.5 383.8,-36.5 0,0 -96,342.7 0,657.9 95.9,315.3 406.6,475.2 406.6,475.2 l 388.4,-141.6 c 0,0 73.1,292.4 392.9,452.3 0,0 -324.4,173.6 -699,196.5 -374.7,22.8 -552.9,-27.4 -552.9,-27.4 l -991.5,-100.5 -283.3,-228.5 -301.5,-242.2" /><path
         id="path186"
         style="fill:#e9eef1;fill-opacity:1;fill-rule:nonzero;stroke:none"
         d="m 12107.8,13090.7 -228.5,-18.3 -129.7,-191.9 c 0,0 422.2,-269.6 554.7,-827 132.5,-557.4 -255.9,-1009.7 -255.9,-1009.7 l 493.5,-1124.1 c 0,0 310.7,182.8 763,251.3 452.3,68.6 744.8,178.2 813.3,319.9 0,0 -246.7,594 -255.9,740.2 -9.1,146.2 -150.7,699.1 -146.2,721.9 4.6,22.8 82.3,118.8 41.1,356.4 -41.1,237.6 -424.9,644.2 -534.5,758.5 l -132.5,54.8 -169.1,95.9 -813.3,-127.9" /><path
         id="path188"
         style="fill:#c37140;fill-opacity:1;fill-rule:nonzero;stroke:none"
         d="m 12051.9,13691 -17,-371.8 -155.6,-246.8 c 0,0 762.3,-488.9 963.7,-392.9 201.5,95.9 78.1,539.1 78.1,539.1 l -146.2,50.3 -8.7,42.4 -251.8,474.4 c 0,0 -265,246.2 -283.2,241.7 -18.3,-4.6 -228.5,25.4 -228.5,-39.8 0,-65.3 49.2,-296.6 49.2,-296.6" /><path
         id="path190"
         style="fill:#a45634;fill-opacity:1;fill-rule:nonzero;stroke:none"
         d="m 12843,13785.7 -164.9,-334.2 -526.7,273.6 c 0,0 24.8,-246.9 203.4,-348.1 205.5,-116.4 374.7,-76 411.4,-65.7 l 76.8,474.4" /><path
         id="path192"
         style="fill:#c37140;fill-opacity:1;fill-rule:nonzero;stroke:none"
         d="m 11749.6,12880.5 -66.7,-159.9 c 0,0 -329,-155.3 -393,-511.7 -63.9,-356.4 59.4,-639.7 59.4,-639.7 0,0 -13.7,-301.6 118.8,-498 132.5,-196.5 255.9,-451.8 255.9,-451.8 0,0 50.2,-471.2 169,-868.7 118.8,-397.5 287.9,-836.2 287.9,-836.2 l 297,77.7 c 0,0 -18.3,374.7 0,859 18.3,484.3 -118.8,768.2 -118.8,768.2 0,0 29.2,442.4 -99.7,803.5 0,0 166.7,304.2 9.8,753 -156.8,448.8 -519.6,704.6 -519.6,704.6" /><path
         id="path194"
         style="fill:#a45634;fill-opacity:1;fill-rule:nonzero;stroke:none"
         d="m 12130.6,12094.6 -155.3,-374.6 77.7,27.3 206.4,-324.4 c 0,0 42.2,118.9 43.5,146.3 1.4,27.4 -150.8,251.3 -163.8,274.1 -13,22.9 -8.5,251.3 -8.5,251.3" /><path
         id="path196"
         style="fill:#a45634;fill-opacity:1;fill-rule:nonzero;stroke:none"
         d="m 11875.5,11518.9 c 0,0 -124.1,-571.1 282.6,-817.8 0,0 -249.8,324.4 -282.6,817.8" /><path
         id="path198"
         style="fill:#100f0d;fill-opacity:1;fill-rule:nonzero;stroke:none"
         d="m 13917.2,10180.2 c -45.6,-5.6 462.6,-92.8 671.6,-169.1 l 388.4,-141.6 49.4,119.2 c 0,0 -510.9,264.6 -1109.4,191.5" /><path
         id="path200"
         style="fill:#c37140;fill-opacity:1;fill-rule:nonzero;stroke:none"
         d="m 15182.8,6351.3 c 0,0 190.8,-72 231.9,-51.4 41.1,20.5 51.4,37.7 51.4,37.7 0,0 51.4,-34.6 92.5,-13.9 41.1,20.7 41.1,20.7 41.1,20.7 0,0 34.3,-27.4 68.6,6.9 34.2,34.2 41.1,58.2 41.1,58.2 0,0 106.2,-13.7 126.8,44.6 20.5,58.2 -123.4,195.3 -154.2,181.6 -30.9,-13.7 -316.5,-29.1 -316.5,-29.1 l -182.7,-255.3" /><path
         id="path202"
         style="fill:#c37140;fill-opacity:1;fill-rule:nonzero;stroke:none"
         d="m 12180.9,8914.5 c 0,0 111.9,-445.4 159.9,-517.4 48,-72 185.1,-126.8 260.5,-181.6 75.4,-54.9 346.6,143.9 332.6,174.7 -13.9,30.9 -226.4,6.9 -247,37.7 -20.5,30.9 -27.4,137.1 -13.7,164.5 13.7,27.4 48,99.4 99.4,85.7 51.4,-13.7 78.8,-51.4 113.1,-61.7 34.3,-10.3 140.5,0 143.9,41.1 3.4,41.1 -57.8,61.7 -95.7,82.3 -37.9,20.5 -68.8,61.7 -133.9,92.5 -65.1,30.8 -178.2,12.3 -236.4,45.5 -58.3,33.3 -85.7,114.4 -85.7,114.4 l -297,52.6 v -130.3" /><path
         id="path204"
         style="fill:#a5a5a4;fill-opacity:1;fill-rule:nonzero;stroke:none"
         d="m 10113.4,12365.4 921.8,301.6 c 0,0 95.9,-58.2 54.8,-150.8 l -918.4,-301.6 c 0,0 -113.1,24 -58.2,150.8" /><path
         id="path206"
         style="fill:#a5a5a4;fill-opacity:1;fill-rule:nonzero;stroke:none"
         d="m 11664.6,6945.3 73.1,-182.8 1718,881.8 v -932.1 l 201,-132.5 -22.8,1379.9 -1882.5,-875.7 -86.8,-138.6" /><path
         id="path208"
         style="fill:#d3d2d0;fill-opacity:1;fill-rule:nonzero;stroke:none"
         d="m 12130.6,7018.4 -54.8,105 283.3,146.3 1096.6,-557.5 201,-132.5 -22.8,1538.7 228.4,-53.7 20.6,-1856.5 -1752.3,810.2" /><path
         id="path210"
         style="fill:#d3d2d0;fill-opacity:1;fill-rule:nonzero;stroke:none"
         d="m 14273.6,6296.2 1357,-689.7 -265.1,-150.8 -1482.6,752.5 390.7,88" /><path
         id="path212"
         style="fill:#636567;fill-opacity:1;fill-rule:nonzero;stroke:none"
         d="m 15365.5,5135.9 283.4,182.7 -18.3,287.9 -265.1,-150.8 v -319.8" /><g
         transform="scale(1.11647)"
         id="g214"><path
           id="path216"
           style="fill:#636567;fill-opacity:1;fill-rule:nonzero;stroke:none"
           d="m 16074.9,5884.82 225.1,94.49 -61.4,286.44 -163.7,-139.1 v -241.83" /></g><g
         transform="scale(1.05228)"
         id="g218"><path
           id="path220"
           style="fill:#a5a5a4;fill-opacity:1;fill-rule:nonzero;stroke:none"
           d="m 15809,9680.52 184.9,-179.78 117.2,58.63 c 0,0 136.8,-104.25 188.9,-247.46 l -306.1,-156.33 -228,104.16 43.1,420.78" /></g><g
         transform="scale(1.0815)"
         id="g222"><path
           id="path224"
           style="fill:#a5a5a4;fill-opacity:1;fill-rule:nonzero;stroke:none"
           d="m 15415.9,9915.75 335.9,-133.09 201.2,66.54 c 0,0 347,49.64 310.6,-233.42 -36.6,-283.05 -587.9,-190.98 -587.9,-190.98 l -405.6,162.89 145.8,328.06" /></g><g
         transform="scale(1.0046)"
         id="g226"><path
           id="path228"
           style="fill:#636567;fill-opacity:1;fill-rule:nonzero;stroke:none"
           d="m 14610.7,14317.9 v -692.5 c 0,0 1395.2,-429.8 1456.6,-429.8 61.4,0 224.8,68.2 224.8,68.2 l 7.9,771 c 0,0 -55.3,-41 -184.9,-41 -129.8,0 -1504.4,324.1 -1504.4,324.1" /></g><g
         transform="scale(1.16052)"
         id="g230"><path
           id="path232"
           style="fill:#a5a5a4;fill-opacity:1;fill-rule:nonzero;stroke:none"
           d="m 14608.3,8667.74 c 0,0 57.6,83.13 86.2,136.28 28.7,53.14 1328,513.79 1416.5,507.89 88.6,-5.91 189,-191.94 130,-273.15 -59.1,-81.2 -1461.4,-595.4 -1461.4,-595.4 0,0 -162,-19.47 -171.3,8.18 -9.1,27.67 -47.9,192.18 -47.9,192.18" /></g><g
         transform="scale(1.14034)"
         id="g234"><path
           id="path236"
           style="fill:#636567;fill-opacity:1;fill-rule:nonzero;stroke:none"
           d="m 13932,8046.3 c 0,0 -129.1,-101.99 -72.1,-360.59 57,-258.61 281.2,-312.54 504.2,-246.42 223,66.12 1594.1,673.13 1765,835.36 170.9,162.33 29.4,558.98 -170.3,607.06 -199.7,48.09 -1636.1,-552.95 -2026.8,-835.41" /></g><path
         id="path238"
         style="fill:#a5a5a4;fill-opacity:1;fill-rule:nonzero;stroke:none"
         d="m 16141.3,8819.7 c 45.6,-82.9 44,-171.3 -3.6,-197.4 -47.5,-26.2 -123,19.9 -168.6,102.8 -45.6,82.9 -44,171.4 3.6,197.5 47.5,26.1 123,-19.9 168.6,-102.9" /><g
         transform="scale(1.12941)"
         id="g240"><path
           id="path242"
           style="fill:#c37140;fill-opacity:1;fill-rule:nonzero;stroke:none"
           d="m 15215.7,7806.63 c 0,0 384.4,-60.73 453.2,-93.14 68.7,-32.32 202.2,-238.71 416.7,-186.11 214.4,52.59 135.2,404.54 93,566.4 -42.2,161.85 24.3,394.45 3,500.7 -21.2,106.16 -46.6,111.12 -51.5,127.41 -5.1,16.29 -22.3,110.24 -30.4,118.29 -8.1,8.15 -40.4,0 -40.4,0 0,0 -21.6,40.49 -53.3,32.39 0,0 -17.6,56.19 -58,40.23 0,0 -24.3,54.26 -66.8,57.58 -42.4,3.32 -58.6,-12.85 -58.6,-12.85 0,0 -72.9,81.29 -135.6,53.79 -62.7,-27.5 -6,-179.19 -8,-268.18 -2.1,-89.07 -16.2,-218.52 24.2,-360.1 40.5,-141.58 -78.2,-387.81 -78.2,-387.81 l -409.3,-188.6" /></g><g
         transform="scale(1.10734)"
         id="g244"><path
           id="path246"
           style="fill:#a45634;fill-opacity:1;fill-rule:nonzero;stroke:none"
           d="m 16298.8,8731.71 c 1.2,-7.41 -49.5,69.71 -72.2,110.08 -22.7,40.46 -59.8,77.57 -59.8,77.57 0,0 22.7,125.9 -28.9,216.68 l 37.8,13.11 c 0,0 40.6,-92.84 32.4,-208.74 0,0 68.1,-70.53 90.7,-208.7" /></g><path
         id="path248"
         style="fill:#a45634;fill-opacity:1;fill-rule:nonzero;stroke:none"
         d="m 14782.4,8720.9 c -4,14.1 21.9,-420.4 -128.9,-968.7 0,0 262.4,498 128.9,968.7" /><path
         id="path250"
         style="fill:#a5a5a4;fill-opacity:1;fill-rule:nonzero;stroke:none"
         d="M 12075.8,7123.4 V 6936 l 3289.7,-1800.1 v 319.8 l -3289.7,1667.7" /><path
         id="path252"
         style="fill:#636567;fill-opacity:1;fill-rule:nonzero;stroke:none"
         d="m 11751.4,7083.9 -223.9,98.9 V 6863 l 210.2,-100.5 13.7,321.4 v 0" /><path
         id="path254"
         style="fill:#2f1d16;fill-opacity:1;fill-rule:nonzero;stroke:none"
         d="m 12873.3,14503.8 c 0,0 2,8 4.1,22 7.4,42.6 21.4,136.7 10.9,188.4 -13.9,68.2 -81,96 -110.4,148.7 -29.3,52.6 -121,62.9 -159,73.9 -37.9,11.1 -116.3,43 -163.6,45.2 -47.2,2.2 -103.2,5.3 -121,-3.2 -17.8,-8.4 -102.9,-1 -131.6,-5.4 -28.8,-4.4 -79.6,-36.7 -101.3,-46.8 -21.7,-10 -41.5,-14.7 -75.8,-26.1 -34.2,-11.4 -42.9,-59.2 -58.9,-86.4 -16,-27.1 -16.4,-11.9 -61.2,-43.5 -44.7,-31.6 -49.2,-117 -49.2,-117 0,0 -61.1,-43.6 -67,-59.4 -5.8,-15.9 0,0 -43.5,-77.1 -43.5,-77.1 4.8,-126.9 -20.9,-170.7 -25.8,-43.7 18.9,-87 21.9,-95.2 3,-8.2 8.2,-59 10.8,-117.1 2.4,-52.7 58.2,-110.1 100.2,-191.6 4.1,-8.8 8.2,-17.4 12.2,-25.4 42.3,-95.4 181.9,-226.1 181.9,-226.1 0,0 74.9,254.8 135.9,322.4 61,67.6 362.9,185.4 375.8,226.9 12.8,41.5 309.7,263.5 309.7,263.5" /><path
         id="path256"
         style="fill:#c37140;fill-opacity:1;fill-rule:nonzero;stroke:none"
         d="m 12815.2,14569.2 c 0,0 46.4,-46.4 58.1,-65.4 11.6,-19.1 42.5,-201.6 51.6,-247.6 9.1,-46 5.4,-110.4 8.4,-132.9 2.9,-22.4 24.1,-159.8 25.2,-214.4 1.1,-54.7 -31.2,-272.2 -43.4,-330.1 -12.2,-58 -30.9,-135.1 -55.9,-153.6 -25,-18.5 -142.5,-40.1 -251.4,-22.4 -108.9,17.6 -332.3,129.8 -397.4,195.9 -65,66.1 -77.6,219.7 -77.6,219.7 0,0 -41.9,-17.7 -92.7,21.3 -50.8,39 -135.5,126.9 -134.7,236.6 0.8,109.8 88.3,81.7 135.9,43.8 47.6,-37.9 57.8,-103.6 67,-103.9 9.1,-0.3 17.7,3.9 22,6 4.3,2.1 10.7,115.6 9.2,138.2 -1.4,22.7 -23.7,156.8 -21.3,161.7 2.4,4.9 96.2,154.3 130.4,172.5 34.1,18.2 566.6,74.6 566.6,74.6" /></g></g></svg>