<?xml version="1.0" encoding="UTF-8" standalone="no"?>
<svg
   xmlns:dc="http://purl.org/dc/elements/1.1/"
   xmlns:cc="http://creativecommons.org/ns#"
   xmlns:rdf="http://www.w3.org/1999/02/22-rdf-syntax-ns#"
   xmlns:svg="http://www.w3.org/2000/svg"
   xmlns="http://www.w3.org/2000/svg"
   viewBox="0 0 2666.6667 2666.6667"
   height="2666.6667"
   width="2666.6667"
   xml:space="preserve"
   id="svg2"
   version="1.1"><metadata
     id="metadata8"><rdf:RDF><cc:Work
         rdf:about=""><dc:format>image/svg+xml</dc:format><dc:type
           rdf:resource="http://purl.org/dc/dcmitype/StillImage" /></cc:Work></rdf:RDF></metadata><defs
     id="defs6" /><g
     transform="matrix(1.3333333,0,0,-1.3333333,0,2666.6667)"
     id="g10"><g
       transform="scale(0.1)"
       id="g12"><g
         transform="scale(1.22699)"
         id="g14"><path
           id="path16"
           style="fill:none;fill-opacity:1;fill-rule:nonzero;stroke:none"
           d="M 16300,0 H 0 V 16300 H 16300 V 0" /></g><g
         transform="scale(1.04904)"
         id="g18"><path
           id="path20"
           style="fill:#1a1817;fill-opacity:1;fill-rule:nonzero;stroke:none"
           d="m 13970.1,4641.78 c 0,0 -108.9,-550.31 -122.1,-675.57 -13.1,-125.26 -6.5,-339.26 26.3,-377.3 33,-37.94 606.5,-31.36 606.5,-31.36 l 705.3,-0.48 1113.9,125.74 c 0,0 0,237.26 -79.1,303.13 -79,65.97 -360.7,136.7 -507.5,177.98 -146.7,41.37 -283.4,264.62 -375.7,264.14 -92.3,-0.48 -375.7,282.93 -441.7,335.74 -65.8,52.71 -283.4,0 -283.4,0 l -642.5,-122.02" /></g><path
         id="path22"
         style="fill:#ffffff;fill-opacity:1;fill-rule:nonzero;stroke:none"
         d="m 15717.8,4716.8 309.7,-265.7 34.6,-470.2 c 0,0 -373.4,-394.1 -615.4,-117.5 -242,276.6 -255.8,377.5 -255.8,377.5 v 404.3 l 526.9,71.6" /><g
         transform="scale(1.07873)"
         id="g24"><path
           id="path26"
           style="fill:#252323;fill-opacity:1;fill-rule:nonzero;stroke:none"
           d="m 14018.1,4087.77 c 0,0 -57.7,6.4 -76.9,-70.45 -19.3,-76.94 -32.1,-314.17 -32.1,-314.17 0,0 -134.6,-422.99 -32,-576.88 102.6,-153.79 493.5,-159.63 647.4,-127.84 153.8,31.71 365.3,115.05 467.9,102.25 102.6,-12.88 288.4,-57.75 474.3,-32.07 186,25.68 397.4,32.07 519.2,70.45 121.8,38.47 288.5,224.43 301.3,301.28 12.8,76.94 -12.8,179.57 -57.7,205.15 -44.8,25.68 -198.7,-6.39 -371.8,25.68 -173.1,31.98 -442.3,160.19 -551.2,269.21 -109,108.92 -442.3,378.12 -480.7,365.33 -38.5,-12.79 -44.9,-314.07 -102.7,-358.94 -57.6,-44.87 -256.3,-128.21 -358.9,-96.13 -102.5,31.98 -57.7,314.07 -346.1,237.13" /></g><path
         id="path28"
         style="fill:#1a1817;fill-opacity:1;fill-rule:nonzero;stroke:none"
         d="m 12857.2,4987 c 0,0 100.3,107.2 266.2,280 166,172.9 -186.7,677.7 -186.7,677.7 0,0 -518.6,-200.6 -580.8,-401.1 -62.2,-200.5 0,-622.3 0,-622.3 l 221.3,-137.9 280,203.6" /><path
         id="path30"
         style="fill:#b8623c;fill-opacity:1;fill-rule:nonzero;stroke:none"
         d="m 13130.3,6567.3 c 0,0 117.6,-449.8 501.3,-525.8 383.8,-76.1 -65.7,912.7 -65.7,912.7 h -359.5 l -76.1,-386.9" /><path
         id="path32"
         style="fill:#b8623c;fill-opacity:1;fill-rule:nonzero;stroke:none"
         d="m 11259.9,6864.3 c 0,0 750.3,857.4 1033.8,1092.5 283.5,235.1 580.8,415.6 684.5,394.5 103.7,-21.1 269.7,-131.7 311.2,-173.2 41.4,-41.5 -484.1,-1023.4 -484.1,-1023.4 l -1065.1,-850 -615.6,-76.5 135.3,636.1" /><path
         id="path34"
         style="fill:#c37140;fill-opacity:1;fill-rule:nonzero;stroke:none"
         d="m 12577.2,4921.3 c 7.6,45.5 449.4,995.7 511.6,1210.1 62.3,214.3 228.2,600.1 228.2,600.1 0,0 41.5,-615.4 311.2,-905.1 269.7,-289.7 954.2,-877.4 1161.6,-1084.9 207.5,-207.4 331.9,-331.9 331.9,-331.9 0,0 179.8,0 401.1,89.9 221.3,89.9 242,152.1 242,152.1 0,0 -497.9,677.7 -760.6,1210.1 -262.8,532.4 -822.9,1452.1 -833.2,1514.3 -10.4,62.2 -79.5,373.4 -259.3,539.3 -179.8,166 -221.3,380.3 -567,359.6 -345.8,-20.7 -947.3,-561.1 -1106.4,-712.7 -159,-151.6 -739.8,-830.7 -739.8,-830.7 l 62.2,-1326.2 255.9,-802.1 484,-76 276.6,394.1" /><path
         id="path36"
         style="fill:#252323;fill-opacity:1;fill-rule:nonzero;stroke:none"
         d="m 9866.63,3358.6 c 0,0 789.27,-166 1246.87,-114.1 457.6,51.9 592.4,425.3 996.9,611.9 404.5,186.7 560.1,632.7 632.7,850.5 72.6,217.9 124.5,249 114.1,280.1 -10.4,31.1 -611.9,-121 -736.4,79.5 -124.5,200.5 -93.4,608.4 -238.6,943.8 -145.2,335.4 -383.7,721.2 -383.7,721.2 0,0 -67.4,-90.2 -77.8,-74.6 -10.4,15.5 -160.8,207.4 -160.8,207.4 0,0 -119.3,-103.7 -233.3,-217.8 -114.1,-114.1 -181.6,-440.8 -311.2,-643.1 -129.6,-202.2 -155.6,-155.5 -342.3,-181.5 -186.7,-25.9 -209.1,-100.2 -278.3,-278.3 -69.1,-178 -704.17,-829.7 -704.17,-829.7 v -539.4 l 476,-815.9" /><path
         id="path38"
         style="fill:#b8623c;fill-opacity:1;fill-rule:nonzero;stroke:none"
         d="m 9108.94,8557.1 349.72,-205.8 c 0,0 719.14,-339.2 1147.84,-684.9 428.7,-345.7 478.1,-511.7 505.3,-567 27.1,-55.3 -277.1,-276.6 -277.1,-276.6 L 9666.1,6567.3 c 0,0 -712.2,207.1 -898.9,248.6 -186.69,41.5 -767.52,456.4 -795.18,449.5 -27.65,-7 -304.24,-166 -304.24,-166 l 961.13,27.7 -283.5,303.1 c 0,0 254.11,-47.3 363.02,-94 108.9,-46.6 181.51,-57 181.51,-57 0,0 212.62,25.9 404.5,10.4 191.88,-15.6 487.48,-36.3 487.48,-36.3 l -48.76,527 c 0,0 -656.53,447.9 -672.09,494.6 -15.55,46.7 47.87,282.2 47.87,282.2" /><path
         id="path40"
         style="fill:#e9eef1;fill-opacity:1;fill-rule:nonzero;stroke:none"
         d="m 8096.48,7544.6 c 36.31,-6.1 248.93,-114.4 248.93,-114.4 0,0 238.55,-75 264.48,-161.4 25.94,-86.4 124.47,-248.9 124.47,-248.9 0,0 -114.09,-321.5 -684.55,-254.1 -570.45,67.4 -825.36,129.6 -825.36,129.6 l 173.48,707.9 535.63,220.4 162.92,-279.1" /><path
         id="path42"
         style="fill:#1a1817;fill-opacity:1;fill-rule:nonzero;stroke:none"
         d="m 10094.8,5543.6 c 0,0 39.8,-219.5 96.8,-318.1 57.1,-98.5 -44.6,-114 -154.6,-295.6 -109.87,-181.5 -211.86,-402.7 -211.86,-402.7 0,0 -193.61,19 -162.49,216.1 31.11,197 86.43,361.2 86.43,361.2 l 345.72,439.1" /><path
         id="path44"
         style="fill:#e9eef1;fill-opacity:1;fill-rule:nonzero;stroke:none"
         d="m 6734.3,7258.4 -190.15,-238.5 c 0,0 -79.52,-183.2 -107.17,-591.2 -27.66,-408 96.8,-1189.3 636.14,-1756.3 539.34,-567 878.16,-739.9 1279.2,-864.4 401.05,-124.4 739.87,-324.9 1071.77,-380.3 331.9,-55.3 442.54,-69.1 442.54,-69.1 0,0 -96.81,809 -41.49,1168.6 55.31,359.5 152.12,484 172.86,553.1 20.8,69.2 89.9,152.2 96.8,228.2 6.9,76.1 27.7,179.8 0,235.1 -27.7,55.3 -145.2,20.8 -297.32,138.3 -152.12,117.6 -387.22,318.1 -387.22,318.1 l -1944.75,1544.6 -440.79,-71.8 -255.84,-103.7 -34.58,-110.7" /><path
         id="path46"
         style="fill:#b8623c;fill-opacity:1;fill-rule:nonzero;stroke:none"
         d="m 6561.49,7780.3 c 0,0 31.06,-169.2 24.15,-307.5 -6.91,-138.3 -41.49,-452.9 -41.49,-452.9 0,0 312.89,207.4 442.54,228.2 129.65,20.7 179.92,0 237.76,10.3 57.84,10.4 560.88,238.6 560.88,238.6 0,0 -705.3,876.4 -819.39,886.8 -114.09,10.4 -423.52,93.3 -421.79,41.5 1.73,-51.9 17.34,-645 17.34,-645" /><path
         id="path48"
         style="fill:#c2c7ca;fill-opacity:1;fill-rule:nonzero;stroke:none"
         d="m 9404.07,6004.9 -13.44,-98.5 c 0,0 258.18,-221 272.02,-279.8 13.82,-58.8 -136.01,-560.1 -136.01,-560.1 0,0 212.07,511.7 243.18,504.8 31.12,-6.9 41.49,-19 51.86,-51 10.37,-32 -72.6,-415.8 -72.6,-415.8 0,0 127.92,406.3 165.95,415.8 38.03,9.5 121.97,58.2 121.97,58.2 v -0.1 c -54.35,14.6 -139.33,26.1 -239.52,103.5 -152.12,117.6 -387.22,318.1 -387.22,318.1 l -6.19,4.9" /><path
         id="path50"
         style="fill:#c37140;fill-opacity:1;fill-rule:nonzero;stroke:none"
         d="m 6831.11,7019.9 c -20.74,-24.2 -304.24,-302.7 -324.99,-743.3 -20.74,-440.6 88.3,-1161.7 718.33,-1410.6 630.02,-248.9 1203.93,117.5 1349.14,401 145.21,283.5 69.15,634.6 69.15,634.6 0,0 608.49,-60.7 1306.86,84.6 698.4,145.2 1140.9,532.4 1161.7,670.7 20.7,138.3 -587.8,864.3 -905.9,1161.6 -318.03,297.3 -864.28,532.8 -864.28,532.8 l -297.33,-366.8 c 0,0 228.18,-179.8 366.47,-366.5 138.29,-186.7 262.76,-560.1 262.76,-560.1 0,0 -304.25,96.8 -553.17,117.6 -248.93,20.7 -484.02,6.9 -484.02,6.9 0,0 -350.43,193.2 -767.53,179.8 -417.1,-13.4 -836.67,-290.5 -871.24,-297.4 -34.57,-6.9 -165.95,-44.9 -165.95,-44.9" /><path
         id="path52"
         style="fill:#a75330;fill-opacity:1;fill-rule:nonzero;stroke:none"
         d="m 9663.43,7085.7 c 6.19,-17.6 9.59,-27.8 9.59,-27.8 0,0 -58.85,18.7 -145.92,41.5 0.01,-0.1 107.9,-159 221.98,-266.2 114.09,-107.2 190.15,-141.8 190.15,-141.8 0,0 -178.2,238.8 -275.8,394.3 v 0" /><path
         id="path54"
         style="fill:#a75330;fill-opacity:1;fill-rule:nonzero;stroke:none"
         d="m 7972.02,6003.4 c 0,0 186.7,-145.2 217.81,-243.7 31.12,-98.5 93.35,-248.9 160.77,-357.8 39.17,-63.3 34.56,-233.3 23.82,-364.7 91.82,73.8 160.68,154.7 199.17,229.8 145.21,283.5 69.15,634.6 69.15,634.6 0,0 -468.46,50 -670.72,101.8" /><path
         id="path56"
         style="fill:#a75330;fill-opacity:1;fill-rule:nonzero;stroke:none"
         d="m 7233.75,8071.3 c 0,0 -8.81,-253.4 -9.3,-317.4 -0.49,-64 248.23,-395.8 248.23,-395.8 l 240.09,30.2 -479.02,683" /><path
         id="path58"
         style="fill:#2f1d16;fill-opacity:1;fill-rule:nonzero;stroke:none"
         d="m 8087.66,9268.7 c 88.21,252.6 -112.62,366.2 -197.81,407 -85.19,40.7 -107.19,111.6 -378.76,161.9 -271.58,50.4 -352.37,-66.7 -441.16,-72.3 -88.79,-5.6 -279.29,-90.2 -433.34,-156.9 -154.05,-66.8 -196.46,-204.7 -244.21,-250.3 0,0 -322.31,-107.5 -257.48,-622 64.85,-514.6 428.24,-1043.4 437.14,-1053.7 0,0 564.07,436.6 647.74,544.5 167.38,4 432.95,13.4 439.47,32 9.55,27.2 353.46,884.8 353.46,884.8 l 69,100.6 c 0,0 7.43,7 17.64,19.8 l -11.69,4.6" /><path
         id="path60"
         style="fill:#b8623c;fill-opacity:1;fill-rule:nonzero;stroke:none"
         d="m 8087.66,9268.7 c 0,0 149.2,-304.4 171.69,-376.1 22.49,-71.7 -0.2,-298 7.19,-332.9 7.39,-34.8 240.33,-382.8 236.82,-405.7 -3.51,-23 -147.62,-57.9 -151.81,-70.8 -4.18,-12.9 -7.55,-149.5 -2.93,-162.5 4.61,-12.9 2.78,-41.4 2.78,-41.4 0,0 15.15,-55.8 5.7,-84.9 -9.47,-29 -9.95,-78.3 -12.45,-97.4 -2.5,-19.1 15.06,-224.4 -8.06,-256.2 -23.1,-31.9 -554.76,-65.5 -623.82,-52.5 -69.04,13 -378.98,321 -419.06,391.6 -40.09,70.5 -59.96,291.4 -59.96,291.4 0,0 -183.18,20.5 -263.36,161.6 -80.17,141 -77.44,401.3 68.17,451.5 145.62,50.2 229.16,-141.2 250.3,-192.8 21.14,-51.6 53.35,-117.6 61.23,-122.1 7.87,-4.6 29.06,127 53.66,212 24.59,84.9 -18.88,323.1 -2.33,415.1 16.55,92 128.12,198 182.07,221.8 53.95,23.8 504.17,50.3 504.17,50.3" /><path
         id="path62"
         style="fill:#2f1d16;fill-opacity:1;fill-rule:nonzero;stroke:none"
         d="m 7350.09,8369.5 c 0,0 49.62,12.9 50.92,40.7 1.31,27.9 25.52,238.6 25.52,238.6 0,0 62.98,66 38.92,164.8 -24.06,98.7 -35.33,115.9 10.87,167.6 46.2,51.6 14.6,177.7 60.88,207.4 46.29,29.8 340.23,70.6 340.23,70.6 0,0 130.55,183.9 -89.68,171.6 -220.25,-12.3 -445.41,-66.8 -543.54,-170.9 -98.13,-104 -152.66,5 -98.03,-182.5 54.62,-187.5 203.91,-707.9 203.91,-707.9" /><path
         id="path64"
         style="fill:#2f1d16;fill-opacity:1;fill-rule:nonzero;stroke:none"
         d="m 6232.67,9231.2 c 0,0 54.07,95 89.93,130.1 35.86,35 65.95,118.7 105.56,148 39.63,29.4 94.43,60.5 102.82,67.7 8.38,7.1 83.29,102.3 163.83,124.2 80.53,21.8 131.43,34.1 152.32,39.6 20.89,5.6 128.69,83.1 219.42,96.9 90.73,13.9 94.49,8.2 136.64,16.3 42.14,8.1 161.08,43.7 333.49,18 172.4,-25.6 353.17,-196.3 353.17,-196.3 l -495.24,-344 -672.94,-270.9 -489,170.4" /><path
         id="path66"
         style="fill:#a75330;fill-opacity:1;fill-rule:nonzero;stroke:none"
         d="m 7951.28,6366.5 c 0,0 -280.04,-242.1 -380.31,-273.2 -100.26,-31.1 -248.92,-65.7 -255.84,-89.9 -6.91,-24.2 110.64,-51.8 318.07,24.2 207.44,76.1 318.08,338.9 318.08,338.9" /><path
         id="path68"
         style="fill:#c37140;fill-opacity:1;fill-rule:nonzero;stroke:none"
         d="m 9043.79,7984.5 c 0,0 -266.22,6.9 -494.4,65.7 -228.18,58.7 -442.53,100.2 -584.28,96.8 -141.76,-3.5 -179.78,-13.9 -221.27,-20.8 -41.49,-6.9 -10.37,117.6 76.06,148.7 86.43,31.1 155.58,48.4 155.58,48.4 0,0 -269.67,300.8 -328.44,366.5 -58.78,65.7 -89.9,107.1 -86.44,134.8 3.46,27.7 58.78,45 89.89,31.1 31.12,-13.8 190.15,-165.9 224.72,-200.5 34.58,-34.6 72.61,-65.7 86.44,-44.9 13.83,20.7 -245.47,297.3 -255.84,345.7 -10.38,48.4 10.37,107.2 38.03,107.2 27.66,0 82.97,0 82.97,0 0,0 40.22,47.2 86.44,38 46.21,-9.2 89.88,-13.8 89.88,-13.8 0,0 -16.72,29.3 100.27,41.4 116.99,12.2 428.7,-117.5 584.29,-228.1 155.57,-110.7 203.98,-145.2 297.32,-231.7 93.35,-86.4 356.11,-317.7 356.11,-317.7 l -297.33,-366.8" /><path
         id="path70"
         style="fill:#a75330;fill-opacity:1;fill-rule:nonzero;stroke:none"
         d="m 8109.45,8799.5 -365.61,263.7 h 82.97 c 0,0 251.52,-191.9 282.64,-212.7 31.12,-20.7 0,-51 0,-51" /><path
         id="path72"
         style="fill:#a75330;fill-opacity:1;fill-rule:nonzero;stroke:none"
         d="m 8003.13,9087.4 c 0,0 80.33,-57.9 159.45,-125.4 79.11,-67.4 129.66,-97.9 129.68,-98.3 0.01,-0.5 -22.05,72.4 -35.01,93.1 -12.97,20.8 -215.39,161.4 -215.39,161.4 l -38.73,-30.8" /><path
         id="path74"
         style="fill:#a75330;fill-opacity:1;fill-rule:nonzero;stroke:none"
         d="m 10414.8,6731 c 0,0 5,-121.8 -26.1,-163.7 -31.1,-41.8 -100.3,-90.2 -69.2,-135.2 31.2,-44.9 107.2,10.4 152.2,103.8 44.9,93.3 -18.4,203.5 -56.9,195.1" /><path
         id="path76"
         style="fill:#a75330;fill-opacity:1;fill-rule:nonzero;stroke:none"
         d="m 7883.86,6003.4 c 0,0 -57.05,26.8 -98.53,-25.5 -41.49,-52.3 -43.22,-109.3 -117.55,-166.3 -74.33,-57.1 -141.75,-114.1 -121.01,-103.8 20.74,10.4 186.7,57.1 264.48,129.7 77.8,72.6 72.61,165.9 72.61,165.9" /><path
         id="path78"
         style="fill:#1a1817;fill-opacity:1;fill-rule:nonzero;stroke:none"
         d="m 10433.6,5191 c 13.9,41.5 -20.7,205.4 235.1,344.7 255.9,139.3 269.7,358.8 337.1,576.6 67.4,217.9 414.9,544.6 414.9,544.6 l -74.5,97 c 0,0 -247,-216.3 -361.1,-413.4 -114.1,-197 -150.4,-373.4 -217.8,-508.2 -67.5,-134.8 -212.7,-264.5 -212.7,-264.5 l -10.3,145.2 c 0,0 -97.9,1 -144.9,-261.4 -47,-262.4 0,-385.1 0,-385.1 l 34.2,124.5" /><g
         transform="scale(1.05074)"
         id="g80"><path
           id="path82"
           style="fill:#1a1817;fill-opacity:1;fill-rule:nonzero;stroke:none"
           d="m 13973.9,12706.9 c 0,0 -135.1,-606.7 -161.4,-692.3 -26.4,-85.5 -52.7,-335.6 0,-375.1 52.6,-39.5 618.5,-46.1 618.5,-46.1 h 1803.1 l 65.9,138.2 c 0,0 -19.8,230.4 -131.6,309.3 -111.9,79 -661.9,54 -706.1,109.3 -44.2,55.3 -248.1,311.9 -248.1,311.9 0,0 -296.2,329 -335.7,348.8 -39.5,19.7 -243.4,59.2 -243.4,59.2 l -661.2,-163.2" /></g><path
         id="path84"
         style="fill:#ffffff;fill-opacity:1;fill-rule:nonzero;stroke:none"
         d="m 15792.5,13108.2 311.1,-345.7 -155.6,-276.6 -480.5,-95.5 -103.7,40.2 c 0,0 -200.6,573.9 -200.6,629.2 0,55.3 629.3,48.4 629.3,48.4" /><path
         id="path86"
         style="fill:#b8623c;fill-opacity:1;fill-rule:nonzero;stroke:none"
         d="m 13054.3,15027 c 0,0 165.9,-466.7 435.6,-492.6 269.7,-26 93.3,897.1 93.3,897.1 h -430 l -98.9,-404.5" /><path
         id="path88"
         style="fill:#1a1817;fill-opacity:1;fill-rule:nonzero;stroke:none"
         d="m 12805.3,13432.7 c 0,0 228.2,214.9 331.9,339.3 103.8,124.5 -331.9,762.4 -331.9,762.4 l -477.1,-550.9 -155.7,-735 632.8,184.2" /><g
         transform="scale(1.03071)"
         id="g90"><path
           id="path92"
           style="fill:#b8623c;fill-opacity:1;fill-rule:nonzero;stroke:none"
           d="m 10914.4,14971.7 c 0,0 754.6,744.6 935.7,895.6 181.2,150.9 513.3,392.4 674.3,412.6 161,20.1 352.2,-100.7 352.2,-100.7 l -115.3,-754.7 -951.5,-845.3 -724.4,-60.3 -171,-76.4 v 529.2" /></g><g
         transform="scale(1.02753)"
         id="g94"><path
           id="path96"
           style="fill:#c37140;fill-opacity:1;fill-rule:nonzero;stroke:none"
           d="m 12199.8,12993.9 c 35.9,76 757.1,1721.4 757.1,1721.4 0,0 10,-615.8 201.8,-797.5 191.9,-181.7 827.7,-696.5 1060,-868.1 232.1,-171.6 514.7,-504.7 514.7,-504.7 0,0 252.3,-20.2 434,70.7 181.7,90.8 222.1,90.8 202,141.3 -20.3,50.5 -484.6,676.3 -716.8,1130.5 -232.1,454.3 -696.4,1271.9 -777.2,1382.9 -80.8,111 -232.1,484.5 -353.3,635.9 -121.1,151.5 -292.7,393.7 -605.6,323 -313,-70.6 -1726.1,-1514 -1726.1,-1514 l 201.9,-1721.4 222.1,-166.2 585.4,166.2" /></g><path
         id="path98"
         style="fill:#1a1817;fill-opacity:1;fill-rule:nonzero;stroke:none"
         d="m 11425.9,14674.4 c 0,41.5 17.6,219.8 0,290.4 -17.7,70.6 -176.3,466.7 -176.3,466.7 0,0 -487.5,-767.5 -560.1,-912.7 -72.6,-145.2 -300.8,-611.9 -300.8,-611.9 l 300.8,-269.7 305.9,218.3 430.5,818.9" /><path
         id="path100"
         style="fill:#252323;fill-opacity:1;fill-rule:nonzero;stroke:none"
         d="m 9866.63,11829 c 0,0 978.37,-325 1299.97,-228.2 321.5,96.8 746.8,534.3 933.4,689 186.7,154.6 477.2,479.6 567.1,680.1 89.8,200.5 138.2,462.8 138.2,462.8 0,0 -504.7,-34.1 -643,90.4 -138.3,124.5 -114.1,663.8 -269.7,954.2 -155.6,290.4 -394.1,643.1 -394.1,643.1 l -529,-497.9 c 0,0 -145.2,-477.1 -248.9,-570.4 -103.7,-93.4 -300.8,-103.8 -331.9,-145.2 -31.1,-41.5 -452.93,-382.9 -452.93,-382.9 l -605.03,-861.8 -145.2,-499.6 681.09,-333.6" /><path
         id="path102"
         style="fill:#b8623c;fill-opacity:1;fill-rule:nonzero;stroke:none"
         d="m 4611.51,13621.6 c 0,0 368.21,-140 508.23,-155.6 140.02,-15.5 274.85,-25.9 300.79,-67.4 25.93,-41.5 46.67,-492.6 0,-539.3 -46.68,-46.7 -689.74,-550.4 -689.74,-550.4 0,0 -290.41,-129 -373.39,-108.2 -82.97,20.7 -191.88,108.2 -191.88,108.2 l -129.65,601.1 124.47,483.4 451.17,228.2" /><path
         id="path104"
         style="fill:#a75330;fill-opacity:1;fill-rule:nonzero;stroke:none"
         d="m 4098.7,12902.3 c 0,0 251.68,30.2 314.99,39.6 63.32,9.3 521.79,568.4 521.79,568.4 l -245.55,82.4 -591.23,-690.4" /><path
         id="path106"
         style="fill:#2f1d16;fill-opacity:1;fill-rule:nonzero;stroke:none"
         d="m 2784.35,13562.1 c -263.22,48.4 -344.65,-167.5 -371.8,-257.9 -27.14,-90.5 -93.83,-123.1 -101.86,-399.2 -8.03,-276.1 120.08,-337.9 139.23,-424.8 19.16,-86.9 132.01,-262.1 221.66,-404.1 89.66,-141.9 232.41,-162.7 284.78,-202.9 0,0 155.73,-301.9 654.21,-158.8 498.48,143.1 965.24,583.4 974.07,593.8 0,0 -518.09,490.3 -637.54,556.4 -29.76,164.8 -79.84,425.8 -99.18,429.3 -28.31,5.3 -928.57,213.4 -928.57,213.4 l -109.99,52.7 c 0,0 -8.07,6.3 -22.3,14.4 l -2.71,-12.3" /><path
         id="path108"
         style="fill:#b8623c;fill-opacity:1;fill-rule:nonzero;stroke:none"
         d="m 2784.35,13562.1 c 0,0 277.81,194.2 345.23,227.5 67.41,33.2 294.46,45.6 327.77,58.2 33.31,12.7 341.36,296.3 364.59,296.4 23.23,0 79.88,-137 93.27,-139.2 13.4,-2.1 148.87,15.5 160.96,22.1 12.08,6.5 40.56,9.1 40.56,9.1 0,0 52.8,23.5 82.95,18.7 30.15,-4.9 78.91,2.2 98.18,2.6 19.26,0.5 219.38,49.4 254.4,31.4 35.03,-17.9 149.98,-538.1 147.71,-608.3 -2.28,-70.3 -258.99,-423.8 -322.53,-474.3 -63.55,-50.4 -278.74,-104 -278.74,-104 0,0 7.85,-184.1 -119.23,-285 -127.08,-100.9 -384.68,-138.2 -456.62,-2 -71.96,136.1 104.29,248.1 152.03,276.9 47.75,28.8 108.04,70.8 111.29,79.3 3.26,8.4 -129.98,9.2 -217.73,20.4 -87.75,11.3 -316.39,-68.3 -409.85,-66.1 -93.46,2.3 -215.31,96.2 -247.13,145.9 -31.83,49.6 -127.11,490.4 -127.11,490.4" /><path
         id="path110"
         style="fill:#2f1d16;fill-opacity:1;fill-rule:nonzero;stroke:none"
         d="m 3786.17,12971.5 c 0,0 -20.38,47 -48.11,44 -27.75,-3 -239.69,-11.4 -239.69,-11.4 0,0 -74.88,52.1 -168.77,13.1 -93.89,-38.9 -109.08,-52.7 -167.25,-15 -58.17,37.7 -177.86,-12.8 -214.38,28.3 -36.51,41.2 -121.97,325.4 -121.97,325.4 0,0 -201.82,100.7 -155.8,-115 46.02,-215.7 134.44,-429.9 252.33,-510.9 117.89,-80.9 18.56,-151.6 195.45,-68.8 176.88,82.8 668.19,310.3 668.19,310.3" /><path
         id="path112"
         style="fill:#2f1d16;fill-opacity:1;fill-rule:nonzero;stroke:none"
         d="m 3106.28,11734.9 c 0,0 -102.16,38.9 -142.32,68.9 -40.14,30.1 -127.41,46.9 -162.5,81.6 -35.08,34.6 -74.28,84 -82.64,91.2 -8.35,7.2 -113.85,66.6 -147.86,142.8 -34.01,76.2 -53.89,124.6 -62.6,144.4 -8.71,19.8 -101.83,114.4 -129.46,201.9 -27.65,87.6 -22.58,92.1 -37.05,132.6 -14.47,40.4 -67.92,152.4 -69.07,326.7 -1.14,174.3 139.77,379.2 139.77,379.2 l 415.96,-436.6 371.08,-623.3 -93.31,-509.4" /><path
         id="path114"
         style="fill:#c37140;fill-opacity:1;fill-rule:nonzero;stroke:none"
         d="m 6575.27,11600.8 c 0,0 -397.6,-32.8 -589.48,-32.8 -191.87,0 -321.52,5.2 -373.38,0 -51.86,-5.2 -643.07,-243.8 -845.31,-331.9 -202.26,-88.2 -523.42,-191.9 -624.73,-207.5 -50.66,-7.7 -86.35,-3.8 -111.34,0 -24.98,3.9 -39.24,7.8 -47.02,0 -15.55,-15.5 -388.94,-134.8 -513.4,-93.3 -124.47,41.5 -186.7,145.2 -290.42,254.1 -103.72,108.9 -228.18,166 -321.53,482.3 -93.35,316.3 -145.21,964.6 -176.32,1099.4 -31.12,134.9 -119.28,249 -129.65,306 -10.38,57 124.46,171.1 186.69,191.9 33.11,11 73.37,6.3 106.5,1.6 29.16,-4.1 52.8,-8.2 61.18,-1.6 17.91,14 116.5,46.6 206.91,57 90.42,10.4 118.08,-62.2 194.14,-114.1 76.06,-51.8 134.83,-110.6 155.58,-162.5 20.75,-51.8 -42.54,-124.2 -55.32,-139.4 -12.78,-15.2 -100.26,-81.8 -100.26,-81.8 0,0 -29.39,-88.2 110.64,-331.9 140.02,-243.8 399.31,-565.3 399.31,-565.3 0,0 93.35,206.2 347.46,377.9 254.11,171.8 373.41,218.5 373.41,218.5 0,0 165.93,467.7 523.77,669.5 357.83,201.7 575.64,201.7 575.64,201.7 l 1690.62,-488.6 214.36,-601.1 -347.47,-479.9 -620.58,-228.2" /><path
         id="path116"
         style="fill:#e9eef1;fill-opacity:1;fill-rule:nonzero;stroke:none"
         d="m 5220,13243.1 c 0,0 407.96,166.8 968.05,-46.2 560.08,-213.1 670.71,-615.5 698.38,-888 27.65,-272.5 -96.81,-457.6 -165.96,-534.5 -69.14,-76.8 -145.2,-173.6 -145.2,-173.6 0,0 774.44,55.3 1120.16,83 345.74,27.7 1396.76,131.4 1659.52,131.4 262.75,0 511.68,13.8 511.68,13.8 0,0 -159.04,511.7 -103.72,850.5 55.31,338.8 172.86,844.5 172.86,844.5 0,0 -656.89,130.5 -1341.43,130.5 -684.55,0 -1044.11,82.9 -1216.98,124.4 -172.86,41.5 -352.64,96.8 -726.03,69.2 -373.39,-27.7 -970.7,-242.2 -1154.74,-324.1 -184.05,-81.9 -371.66,-171.1 -537.62,-327.1 -165.94,-156.1 -420.04,-669.5 -420.04,-669.5 0,0 10.39,-15.6 0,0 -10.39,15.5 401.03,551.4 681.07,715.7" /><path
         id="path118"
         style="fill:#b46137;fill-opacity:1;fill-rule:nonzero;stroke:none"
         d="m 5296.54,12278 c -29.85,0 -160.56,32.9 -150.87,52.3 10.37,20.8 150.39,103.7 254.11,202.3 103.72,98.5 373.4,440.8 373.4,440.8 0,0 25.92,-145.2 -145.22,-373.4 -171.13,-228.2 -311.15,-316.4 -326.71,-321.5 -1.02,-0.4 -2.61,-0.5 -4.71,-0.5" /><path
         id="path120"
         style="fill:#a75330;fill-opacity:1;fill-rule:nonzero;stroke:none"
         d="m 4538.93,12527.4 c 0,0 153.94,45.4 318.06,27.6 164.11,-17.7 252.38,-27.6 252.38,-27.6 0,0 -156.99,102.3 -314.62,121.8 -157.63,19.6 -157.63,19.6 -157.63,19.6 l -98.19,-141.4" /><path
         id="path122"
         style="fill:#a75330;fill-opacity:1;fill-rule:nonzero;stroke:none"
         d="m 5892.45,12366.6 c 0,0 -10.37,-78.8 41.49,-88.7 51.86,-9.8 409.69,-15 637.87,-46.1 228.19,-31.1 228.19,-31.1 228.19,-31.1 0,0 -430.44,233.3 -907.55,165.9" /><path
         id="path124"
         style="fill:#a75330;fill-opacity:1;fill-rule:nonzero;stroke:none"
         d="m 3308.11,12828.2 c 0,0 -4.32,121.8 0,171.1 4.32,49.3 0,80.4 0,80.4 l 100.26,-169.7 -100.26,-81.8" /><path
         id="path126"
         style="fill:#c2c7ca;fill-opacity:1;fill-rule:nonzero;stroke:none"
         d="m 7448.24,13574.9 c -48.37,-9 383.76,-254.1 544.52,-274.8 160.77,-20.7 570.46,-5.2 829.76,0 259.3,5.2 290.41,-10.5 290.41,-10.5 0,0 -397.59,74.5 -560.08,109 -162.49,34.6 -397.59,25.8 -511.68,33.7 -114.09,7.8 -518.6,156.5 -592.93,142.6" /><path
         id="path128"
         style="fill:#a75330;fill-opacity:1;fill-rule:nonzero;stroke:none"
         d="m 14015.4,15320.9 c 0,0 152.1,-178.6 262.8,-338.2 110.6,-159.7 186.7,-256.5 179.7,-235.7 -6.9,20.7 -124.4,470.2 -442.5,573.9" /><g
         transform="scale(1.08085)"
         id="g130"><path
           id="path132"
           style="fill:#252323;fill-opacity:1;fill-rule:nonzero;stroke:none"
           d="m 14006.5,11926.1 c 0,0 -118.3,-28.8 -118.3,-99.1 0,-70.4 32,-166.4 0,-358.3 -32,-191.9 -115.2,-492.6 -51.2,-556.5 64,-64 479.8,-115.2 671.7,-96 192,19.2 313.5,108.7 441.4,83.2 128,-25.6 243.2,-70.4 492.7,-57.6 249.4,12.8 537.4,57.6 658.9,159.9 121.5,102.4 198.3,332.7 108.7,422.2 -89.5,89.6 -243,6.4 -486.1,51.2 -243.2,44.8 -377.5,172.7 -518.3,319.9 -140.7,147.1 -364.6,326.3 -415.7,319.9 -51.2,-6.4 -32,-230.4 -76.8,-294.3 -44.8,-64 -230.3,-172.8 -345.5,-147.2 -115.2,25.6 -121.6,326.3 -361.5,252.7" /></g></g></g></svg>