<?xml version="1.0" encoding="UTF-8" standalone="no"?>
<svg
   xmlns:dc="http://purl.org/dc/elements/1.1/"
   xmlns:cc="http://creativecommons.org/ns#"
   xmlns:rdf="http://www.w3.org/1999/02/22-rdf-syntax-ns#"
   xmlns:svg="http://www.w3.org/2000/svg"
   xmlns="http://www.w3.org/2000/svg"
   viewBox="0 0 2666.6667 2666.6667"
   height="2666.6667"
   width="2666.6667"
   xml:space="preserve"
   id="svg2"
   version="1.1"><metadata
     id="metadata8"><rdf:RDF><cc:Work
         rdf:about=""><dc:format>image/svg+xml</dc:format><dc:type
           rdf:resource="http://purl.org/dc/dcmitype/StillImage" /></cc:Work></rdf:RDF></metadata><defs
     id="defs6" /><g
     transform="matrix(1.3333333,0,0,-1.3333333,0,2666.6667)"
     id="g10"><g
       transform="scale(0.1)"
       id="g12"><g
         transform="scale(1.22699)"
         id="g14"><path
           id="path16"
           style="fill:none;fill-opacity:1;fill-rule:nonzero;stroke:none"
           d="M 16300,0 H 0 V 16300 H 16300 V 0" /></g><g
         transform="scale(1.04743)"
         id="g18"><path
           id="path20"
           style="fill:#3c3c3d;fill-opacity:1;fill-rule:nonzero;stroke:none"
           d="m 16300,5666.64 h -1735.2 v 564.71 H 16300 v -564.71" /></g><path
         id="path22"
         style="fill:#6b6c6e;fill-opacity:1;fill-rule:nonzero;stroke:none"
         d="m 15872.8,7924.3 h -188.3 V 5738.2 h 188.3 v 2186.1" /><path
         id="path24"
         style="fill:#2c2a2a;fill-opacity:1;fill-rule:nonzero;stroke:none"
         d="m 15684.5,7924.3 h 188.3 v -750.1 h -188.3 v 750.1" /><g
         transform="scale(1.02217)"
         id="g26"><path
           id="path28"
           style="fill:#6b6c6e;fill-opacity:1;fill-rule:nonzero;stroke:none"
           d="m 16300,7752.46 h -184.3 V 5613.77 h 184.3 v 2138.69" /></g><g
         transform="scale(1.02217)"
         id="g30"><path
           id="path32"
           style="fill:#2c2a2a;fill-opacity:1;fill-rule:nonzero;stroke:none"
           d="m 16115.7,7752.46 h 184.3 v -733.83 h -184.3 v 733.83" /></g><g
         transform="scale(1.05919)"
         id="g34"><path
           id="path36"
           style="fill:#8f908f;fill-opacity:1;fill-rule:nonzero;stroke:none"
           d="m 16158.2,8027.83 c -12.9,28.32 -193.9,139.54 -193.9,139.54 h -683 -5.3 -683.1 c 0,0 -180.9,-111.22 -193.9,-139.54 -12.9,-28.42 -141.7,-313.26 -141.7,-313.26 h 1018.7 5.3 1018.7 c 0,0 -128.8,284.84 -141.8,313.26" /></g><g
         transform="scale(1.0599)"
         id="g38"><path
           id="path40"
           style="fill:#6b6c6e;fill-opacity:1;fill-rule:nonzero;stroke:none"
           d="m 16127.6,7821.29 h -1718.4 c -95.2,0 -172.4,-77.27 -172.4,-172.47 0,-95.2 77.2,-172.37 172.4,-172.37 h 1718.4 c 95.2,0 172.4,77.17 172.4,172.37 0,95.2 -77.2,172.47 -172.4,172.47" /></g><g
         transform="scale(1.0022)"
         id="g42"><path
           id="path44"
           style="fill:#2c2a2a;fill-opacity:1;fill-rule:nonzero;stroke:none"
           d="m 16300,5622.95 h -325.1 V 7906.93 H 16300 V 5622.95" /></g><g
         transform="scale(1.11301)"
         id="g46"><path
           id="path48"
           style="fill:#454547;fill-opacity:1;fill-rule:nonzero;stroke:none"
           d="m 16300,4585.57 h -3587 v 569.99 h 3587 v -569.99" /></g><g
         transform="scale(1.05137)"
         id="g50"><path
           id="path52"
           style="fill:#454547;fill-opacity:1;fill-rule:nonzero;stroke:none"
           d="m 16300,7306.72 h -1822.8 v 237.31 H 16300 v -237.31" /></g><path
         id="path54"
         style="fill:#5b5f5f;fill-opacity:1;fill-rule:nonzero;stroke:none"
         d="m 16249.6,14143.5 c 0,-275.2 -223.1,-498.3 -498.3,-498.3 -275.2,0 -498.3,223.1 -498.3,498.3 0,275.2 223.1,498.3 498.3,498.3 275.2,0 498.3,-223.1 498.3,-498.3" /><g
         transform="scale(1.04988)"
         id="g56"><path
           id="path58"
           style="fill:#5b5f5f;fill-opacity:1;fill-rule:nonzero;stroke:none"
           d="m 15350.7,13471.6 c 0,-262.2 212.5,-474.7 474.7,-474.7 262.1,0 474.6,212.5 474.6,474.7 0,262.1 -212.5,474.6 -474.6,474.6 -262.2,0 -474.7,-212.5 -474.7,-474.6" /></g><path
         id="path60"
         style="fill:#48484a;fill-opacity:1;fill-rule:nonzero;stroke:none"
         d="m 16056.5,14154.6 c 0,-168.5 -136.7,-305.1 -305.2,-305.1 -168.6,0 -305.2,136.6 -305.2,305.1 0,168.6 136.6,305.2 305.2,305.2 168.5,0 305.2,-136.6 305.2,-305.2" /><g
         transform="scale(1.03802)"
         id="g62"><path
           id="path64"
           style="fill:#48484a;fill-opacity:1;fill-rule:nonzero;stroke:none"
           d="m 15712.1,13636.1 c 0,-162.3 131.6,-294 294,-294 162.3,0 293.9,131.7 293.9,294 0,162.4 -131.6,294 -293.9,294 -162.4,0 -294,-131.6 -294,-294" /></g><path
         id="path66"
         style="fill:#c37140;fill-opacity:1;fill-rule:nonzero;stroke:none"
         d="m 14385.6,9178.8 c 54.3,-172.1 218.5,-751.9 102.7,-1071.8 -115.7,-319.9 -158.6,-345.6 -227.2,-637.1 -68.6,-291.5 -111.4,-865.8 -111.4,-865.8 0,0 -308.6,-17.2 -351.5,0 -42.9,17.1 -77.2,175.7 -77.2,175.7 0,0 51.5,342.9 51.5,769.4 0,426.5 -51.5,975.2 8.6,1283.8 60,308.6 128.5,591.5 128.5,591.5 0,0 445.8,343 505.8,205.8 l -29.8,-451.5" /><path
         id="path68"
         style="fill:#252323;fill-opacity:1;fill-rule:nonzero;stroke:none"
         d="m 13980.4,6779.8 h -186.5 c 0,0 -160.7,-62.2 -205.7,-152.2 -45,-90 141.4,-12.8 -122.2,-244.3 -263.6,-231.5 -282.9,-413.6 -250.8,-447.9 32.2,-34.3 807.2,-55.8 963,0 v 591.5 c 0,0 18.6,8.6 -28.5,77.2 -47.2,68.5 -169.3,175.7 -169.3,175.7" /><path
         id="path70"
         style="fill:#252323;fill-opacity:1;fill-rule:nonzero;stroke:none"
         d="m 14449.7,10282.1 c 0,0 -197.1,-99.7 -317.2,-268.6 -120,-168.9 -222.9,-589 -222.9,-589 0,0 25.8,102.9 270.1,-317.2 244.3,-420 598,-411.5 598,-411.5 l -328,1586.3" /><path
         id="path72"
         style="fill:#a45634;fill-opacity:1;fill-rule:nonzero;stroke:none"
         d="m 13952.5,8289.8 c 0,0 62.2,-271.2 391.2,-288.4 0,0 -181.2,-94.3 -329,17.2 -147.9,111.4 -62.2,271.2 -62.2,271.2" /><path
         id="path74"
         style="fill:#f5f6f5;fill-opacity:1;fill-rule:nonzero;stroke:none"
         d="m 13738.6,6922.3 c -9.7,-89.8 -17.6,-142.5 -17.6,-142.5 0,0 34.3,-158.6 77.2,-175.7 42.9,-17.2 351.5,0 351.5,0 0,0 10.2,136.2 28.5,309.6 -140.1,-3.6 -318.5,2.9 -439.6,8.6" /><g
         transform="scale(1.17471)"
         id="g76"><path
           id="path78"
           style="fill:#252323;fill-opacity:1;fill-rule:nonzero;stroke:none"
           d="m 15621.3,5771.46 h 158.7 c 0,0 136.8,-52.95 175.1,-129.56 38.4,-76.62 -120.4,-10.9 104.1,-207.97 224.4,-197.07 240.8,-352.09 213.4,-381.28 -27.3,-29.2 -687.2,-47.51 -819.8,0 v 503.52 c 0,0 -15.8,7.32 24.4,65.72 40.1,58.31 144.1,149.57 144.1,149.57" /></g><g
         transform="scale(1.14171)"
         id="g80"><path
           id="path82"
           style="fill:#c37140;fill-opacity:1;fill-rule:nonzero;stroke:none"
           d="m 16255,6612.21 c 0,373.57 45,854.16 -7.6,1124.46 -52.5,270.3 -112.6,518.09 -112.6,518.09 0,0 -390.5,300.42 -443,180.25 l 26.2,-395.46 c -47.6,-150.74 -191.4,-658.58 -90.1,-938.77 101.5,-280.19 139,-302.7 199,-558.02 60.1,-255.33 97.7,-758.34 97.7,-758.34 0,0 270.3,-15.07 307.9,0 37.5,14.97 67.5,153.89 67.5,153.89 0,0 -45,300.34 -45,673.9" /></g><g
         transform="scale(1.13013)"
         id="g84"><path
           id="path86"
           style="fill:#252323;fill-opacity:1;fill-rule:nonzero;stroke:none"
           d="m 15822.1,9098.08 c 0,0 174.5,-88.2 280.7,-237.63 106.2,-149.45 197.2,-521.18 197.2,-521.18 0,0 -22.7,91.05 -238.9,-280.67 -216.3,-371.64 -529.2,-364.12 -529.2,-364.12 l 290.2,1403.6" /></g><g
         transform="scale(1.13277)"
         id="g88"><path
           id="path90"
           style="fill:#a45634;fill-opacity:1;fill-rule:nonzero;stroke:none"
           d="m 16224.3,7318.19 c 0,0 -54.9,-239.42 -345.3,-254.6 0,0 159.9,-83.25 290.4,15.18 130.6,98.35 54.9,239.42 54.9,239.42" /></g><g
         transform="scale(1.14171)"
         id="g92"><path
           id="path94"
           style="fill:#f5f6f5;fill-opacity:1;fill-rule:nonzero;stroke:none"
           d="m 16284.7,6063.12 c 8.4,-78.65 15.3,-124.81 15.3,-124.81 0,0 -30,-138.92 -67.5,-153.89 -37.6,-15.07 -307.9,0 -307.9,0 0,0 -8.9,119.29 -25.1,271.17 122.8,-3.15 279.1,2.54 385.2,7.53" /></g><path
         id="path96"
         style="fill:#c37140;fill-opacity:1;fill-rule:nonzero;stroke:none"
         d="m 15229.9,8721.6 -272.2,-197.2 c 0,0 -165,77.1 -267.9,231.5 0,0 -377.2,214.3 -445.8,797.2 -68.6,583 60,831.6 60,831.6 0,0 -8.6,396.5 62.1,724.4 70.8,327.9 147.9,572.3 147.9,572.3 0,0 38.6,662.2 250.8,1105.9 212.2,443.6 465.1,835.8 465.1,835.8 l 132.9,443.7 467.7,-126.3 -358.4,-433.1 c 0,0 -64.3,-565.8 -154.4,-983.7 -90,-418 -199.3,-643 -218.6,-733 -19.2,-90 70.8,-842.3 25.8,-1388.8 l 25.7,-119.8 360,-1069.7 -141.6,-340.8 -139.1,-150" /><g
         transform="scale(1.11598)"
         id="g98"><path
           id="path100"
           style="fill:#c37140;fill-opacity:1;fill-rule:nonzero;stroke:none"
           d="m 15355.2,7815.18 243.9,-176.7 c 0,0 147.8,69.08 240,207.44 0,0 338.1,192.03 399.5,714.35 61.4,522.4 -53.7,745.18 -53.7,745.18 0,0 7.6,355.29 -55.8,649.12 -63.3,293.83 -132.5,512.73 -132.5,512.73 0,0 -34.6,593.5 -224.7,991 -190.1,397.6 -416.7,749 -416.7,749 l -119.1,397.6 -447,-79.6 349.1,-421.7 c 0,0 57.6,-507 138.2,-881.5 80.7,-374.5 178.6,-576.2 195.9,-656.8 17.3,-80.7 -63.4,-754.76 -23,-1244.48 l -23.1,-107.35 -322.6,-958.49 126.9,-305.39 124.7,-134.41" /></g><g
         transform="scale(1.07983)"
         id="g102"><path
           id="path104"
           style="fill:#a45634;fill-opacity:1;fill-rule:nonzero;stroke:none"
           d="m 15942.7,9521.95 23.8,110.93 c -3.1,37.76 -5.5,76.6 -7.3,116.15 159,149.12 340.8,163.71 340.8,163.71 -226.3,-131 -357.3,-390.79 -357.3,-390.79" /></g><g
         transform="scale(1.11301)"
         id="g106"><path
           id="path108"
           style="fill:#683f2e;fill-opacity:1;fill-rule:nonzero;stroke:none"
           d="m 16278.7,8557.86 c 0,0.09 0,0.09 0,0.09 0,0 0,0 0,-0.09 m 0.6,4.85 c 0,0.09 0,0.18 0.1,0.27 -0.1,-0.09 -0.1,-0.18 -0.1,-0.27 m 0.2,1.26 c 0,0.08 0,0.27 0,0.36 0,-0.09 0,-0.28 0,-0.36 m 0.2,1.34 c 0,0.09 0,0.27 0,0.36 0,-0.09 0,-0.27 0,-0.36 m 0.2,1.35 c 0,0.09 0,0.18 0,0.18 0,-0.09 0,-0.09 0,-0.18 m 0.2,2.25 c 0,0.09 0,0.18 0.1,0.27 -0.1,-0.09 -0.1,-0.18 -0.1,-0.27 m 0.2,1.08 c 0,0.27 0,0.45 0.1,0.62 -0.1,-0.17 -0.1,-0.35 -0.1,-0.62 m 0.2,1.43 c 0,0.18 0,0.36 0.1,0.54 -0.1,-0.18 -0.1,-0.36 -0.1,-0.54 m 0.2,1.35 c 0,0.27 0,0.45 0.1,0.72 -0.1,-0.27 -0.1,-0.54 -0.1,-0.72 m 0.2,1.35 c 0,0.36 0,0.54 0.1,0.9 -0.1,-0.27 -0.1,-0.63 -0.1,-0.9 m 0.1,1.8 c 0,0.27 0.1,0.63 0.1,0.9 0,-0.27 -0.1,-0.54 -0.1,-0.9 m 0.2,1.52 c 0,0.36 0.1,0.63 0.1,0.9 0,-0.36 -0.1,-0.54 -0.1,-0.9 m 0.2,1.44 c 0,0.27 0.1,0.63 0.1,0.81 0,-0.27 -0.1,-0.54 -0.1,-0.81 m 0.2,1.44 c 0,0.36 0.1,0.63 0.1,0.99 0,-0.36 -0.1,-0.63 -0.1,-0.99 m 0.2,1.35 c 0,0.54 0,0.99 0.1,1.44 13,110.51 18.1,207.63 18.1,292.08 0,-84.45 -5.1,-181.57 -18.1,-292.08 -0.1,-0.45 -0.1,-0.9 -0.1,-1.44" /></g><g
         transform="scale(1.11301)"
         id="g110"><path
           id="path112"
           style="fill:#b36239;fill-opacity:1;fill-rule:nonzero;stroke:none"
           d="m 16105.9,8092.18 c 41.1,110.51 78.3,249.78 100.9,422.01 75.1,572.24 -144.4,935.47 -144.4,935.47 127.1,-40.44 165.6,-119.39 165.6,-119.39 0,0 71.9,-139.07 72,-455.08 0,-84.45 -5.1,-181.57 -18.1,-292.08 -0.1,-0.45 -0.1,-0.9 -0.1,-1.44 0,-0.09 -0.1,-0.27 -0.1,-0.36 0,-0.36 -0.1,-0.63 -0.1,-0.99 0,-0.18 -0.1,-0.36 -0.1,-0.63 0,-0.18 -0.1,-0.54 -0.1,-0.81 0,-0.18 -0.1,-0.36 -0.1,-0.54 0,-0.27 -0.1,-0.54 -0.1,-0.9 0,-0.18 -0.1,-0.35 -0.1,-0.62 0,-0.27 -0.1,-0.63 -0.1,-0.9 0,-0.27 0,-0.63 0,-0.9 -0.1,-0.36 -0.1,-0.54 -0.1,-0.9 -0.1,-0.18 -0.1,-0.36 -0.1,-0.63 -0.1,-0.27 -0.1,-0.45 -0.1,-0.72 -0.1,-0.27 -0.1,-0.54 -0.1,-0.81 -0.1,-0.18 -0.1,-0.36 -0.1,-0.54 -0.1,-0.27 -0.1,-0.54 -0.1,-0.81 -0.1,-0.17 -0.1,-0.35 -0.1,-0.62 -0.1,-0.27 -0.1,-0.45 -0.1,-0.81 -0.1,-0.09 -0.1,-0.18 -0.1,-0.27 0,-0.63 -0.1,-1.35 -0.2,-2.07 0,0 0,-0.09 0,-0.18 -0.1,-0.36 -0.1,-0.63 -0.2,-0.99 0,-0.09 0,-0.27 0,-0.36 -0.1,-0.35 -0.1,-0.62 -0.2,-0.98 0,-0.09 0,-0.28 0,-0.36 -0.1,-0.36 -0.1,-0.63 -0.1,-0.99 -0.1,-0.09 -0.1,-0.18 -0.1,-0.27 -0.1,-1.62 -0.4,-3.15 -0.6,-4.76 0,0 0,0 0,-0.09 -28.1,-204.58 -98.7,-356.87 -172.8,-465.68" /></g><g
         transform="scale(1.07904)"
         id="g114"><path
           id="path116"
           style="fill:#a45634;fill-opacity:1;fill-rule:nonzero;stroke:none"
           d="m 15836.3,8908.78 c 191.6,-302.12 463.7,-79.24 463.7,-79.24 0,0 -59.6,-148.93 -238.4,-174.78 -178.7,-25.86 -309.6,186.74 -309.6,186.74 l -30.1,-3.34 55.6,165.24 c 18.8,-31.14 38.5,-62.65 58.8,-94.62" /></g><path
         id="path118"
         style="fill:#a45634;fill-opacity:1;fill-rule:nonzero;stroke:none"
         d="m 15150.6,10282.1 -25.7,119.8 c 3.3,40.7 5.9,82.7 7.9,125.4 -171.7,161 -368,176.8 -368,176.8 244.3,-141.5 385.8,-422 385.8,-422" /><path
         id="path120"
         style="fill:#683f2e;fill-opacity:1;fill-rule:nonzero;stroke:none"
         d="m 14245.7,9538.9 c 0,0.1 0,0.1 0,0.2 0,-0.1 0,-0.1 0,-0.2 m -0.1,1.4 c 0,0.1 -0.1,0.2 -0.1,0.3 0,-0.1 0.1,-0.2 0.1,-0.3 m -0.2,1.4 c 0,0.2 0,0.3 -0.1,0.4 0.1,-0.2 0.1,-0.2 0.1,-0.4 m -0.2,1.5 c 0,0.1 0,0.2 0,0.3 0,-0.1 0,-0.2 0,-0.3 m -0.3,2.4 c 0,0.2 0,0.3 -0.1,0.5 0.1,-0.2 0.1,-0.3 0.1,-0.5 m -0.2,1.3 c 0,0.3 0,0.5 -0.1,0.8 0.1,-0.3 0.1,-0.5 0.1,-0.8 m -0.2,1.6 c 0,0.3 0,0.5 0,0.8 0,-0.3 0,-0.5 0,-0.8 m -0.1,1.5 c -0.1,0.3 -0.1,0.6 -0.1,1 0,-0.4 0,-0.6 0.1,-1 m -0.2,1.6 c -0.1,0.5 -0.1,1 -0.2,1.5 -14.5,123 -20.2,231.1 -20.1,325.1 -0.1,-94 5.6,-202.1 20.1,-325.1 0.1,-0.5 0.1,-1 0.2,-1.5" /><path
         id="path122"
         style="fill:#b36239;fill-opacity:1;fill-rule:nonzero;stroke:none"
         d="m 14439.9,9006.7 c -84.1,123.5 -164.2,297.4 -194.2,532.2 0,0.1 0,0.1 0,0.2 0,0.4 -0.1,0.8 -0.1,1.2 0,0.1 -0.1,0.2 -0.1,0.3 0,0.4 -0.1,0.8 -0.1,1.1 0,0.2 0,0.2 -0.1,0.4 0,0.3 -0.1,0.7 -0.1,1.1 0,0.1 0,0.2 0,0.3 -0.1,0.7 -0.2,1.4 -0.3,2.1 0,0.2 0,0.3 -0.1,0.5 0,0.3 0,0.6 -0.1,0.8 0,0.3 0,0.5 -0.1,0.8 0,0.3 0,0.5 -0.1,0.8 0,0.3 0,0.5 0,0.8 -0.1,0.2 -0.1,0.5 -0.1,0.7 -0.1,0.4 -0.1,0.6 -0.1,1 -0.1,0.2 -0.1,0.4 -0.1,0.6 -0.1,0.5 -0.1,1 -0.2,1.5 -14.5,123 -20.2,231.1 -20.1,325.1 0,351.7 80.1,506.5 80.1,506.5 0,0 42.9,87.9 184.3,132.9 0,0 -244.3,-404.3 -160.7,-1041.2 25.1,-191.7 66.6,-346.7 112.3,-469.7" /><path
         id="path124"
         style="fill:#a45634;fill-opacity:1;fill-rule:nonzero;stroke:none"
         d="m 15278.1,9612.9 c -206.8,-326 -500.4,-85.5 -500.4,-85.5 0,0 64.3,-160.7 257.1,-188.6 192.9,-27.9 334.2,201.5 334.2,201.5 l 32.5,-3.6 -60,178.3 c -20.4,-33.6 -41.5,-67.6 -63.4,-102.1" /><path
         id="path126"
         style="fill:#e9eef1;fill-opacity:1;fill-rule:nonzero;stroke:none"
         d="m 15150.6,10282.1 c 0,0 128.6,-253.2 135,-561.8 6.4,-308.6 -327.9,-1195.9 -327.9,-1195.9 0,0 340.8,-122.2 720.1,0 379.4,122.2 508,1408.1 508,1408.1 v 417.9 c 0,0 -102.9,12.9 -360.1,96.5 -257.2,83.5 -482.2,17.6 -675.1,-164.8" /><g
         transform="scale(1.06799)"
         id="g128"><path
           id="path130"
           style="fill:#e9eef1;fill-opacity:1;fill-rule:nonzero;stroke:none"
           d="m 16119.4,9627.46 c 0,0 -120.4,-237.01 -126.4,-526 -6.1,-288.96 307,-1119.77 307,-1119.77 0,0 -319.1,-114.42 -674.3,0 -355.2,114.43 -475.6,1318.46 -475.6,1318.46 v 391.31 c 0,0 96.3,12.04 337.2,90.31 240.8,78.26 451.5,16.48 632.1,-154.31" /></g><path
         id="path132"
         style="fill:#a45634;fill-opacity:1;fill-rule:nonzero;stroke:none"
         d="m 15089.6,12262.2 c 0,0 -134.1,-205.8 -176.9,-428.7 -42.9,-222.9 45,-360 45,-360 0,0 -59.9,317.2 131.9,788.7" /><g
         transform="scale(1.07338)"
         id="g134"><path
           id="path136"
           style="fill:#a45634;fill-opacity:1;fill-rule:nonzero;stroke:none"
           d="m 16095.3,11423.9 c 0,0 124.9,-191.7 164.8,-399.3 39.9,-207.7 -41.9,-335.5 -41.9,-335.5 0,0 55.8,295.5 -122.9,734.8" /></g><g
         transform="scale(1.0356)"
         id="g138"><path
           id="path140"
           style="fill:#2f1d16;fill-opacity:1;fill-rule:nonzero;stroke:none"
           d="m 15486.7,9926.36 c 0,0 -155.3,6.21 -260.9,-74.51 -105.5,-80.71 -130.3,-136.58 -186.2,-229.75 -55.8,-93.09 -74.5,-310.35 -99.3,-403.54 -24.9,-93.08 -93.2,-353.9 -99.4,-558.8 -6.1,-204.82 155.2,-446.99 223.6,-484.27 68.3,-37.27 397.3,-62.09 608.4,-68.27 211.1,-6.18 422.2,93.09 440.8,111.73 18.7,18.63 149,298.08 167.7,533.99 18.6,235.9 -62.1,645.71 -80.8,713.99 -18.6,68.27 -180.1,496.68 -713.9,459.43" /></g><path
         id="path142"
         style="fill:#8d8d8d;fill-opacity:1;fill-rule:nonzero;stroke:none"
         d="m 16192.2,14397.9 c 0,-275.2 -223.1,-498.3 -498.3,-498.3 -275.2,0 -498.3,223.1 -498.3,498.3 0,275.2 223.1,498.3 498.3,498.3 275.2,0 498.3,-223.1 498.3,-498.3" /><path
         id="path144"
         style="fill:#d0d0cb;fill-opacity:1;fill-rule:nonzero;stroke:none"
         d="m 15999.1,14409.1 c 0,-168.6 -136.7,-305.2 -305.2,-305.2 -168.6,0 -305.2,136.6 -305.2,305.2 0,168.5 136.6,305.1 305.2,305.1 168.5,0 305.2,-136.6 305.2,-305.1" /><g
         transform="scale(1.0534)"
         id="g146"><path
           id="path148"
           style="fill:#8d8d8d;fill-opacity:1;fill-rule:nonzero;stroke:none"
           d="m 15353.9,13668.1 c 0,-261.3 211.8,-473.1 473.1,-473.1 261.2,0 473,211.8 473,473.1 0,261.2 -211.8,473 -473,473 -261.3,0 -473.1,-211.8 -473.1,-473" /></g><g
         transform="scale(1.04155)"
         id="g150"><path
           id="path152"
           style="fill:#d0d0cb;fill-opacity:1;fill-rule:nonzero;stroke:none"
           d="m 15714,13834.3 c 0,-161.8 131.2,-293 293.1,-293 161.8,0 292.9,131.2 292.9,293 0,161.8 -131.1,293 -292.9,293 -161.9,0 -293.1,-131.2 -293.1,-293" /></g><path
         id="path154"
         style="fill:#3c3c3d;fill-opacity:1;fill-rule:nonzero;stroke:none"
         d="M 7340.42,5945.2 H 5554.01 v 581.4 h 1786.41 v -581.4" /><path
         id="path156"
         style="fill:#6b6c6e;fill-opacity:1;fill-rule:nonzero;stroke:none"
         d="M 6160.71,7900.1 H 5975.63 V 5751.3 h 185.08 v 2148.8" /><path
         id="path158"
         style="fill:#2c2a2a;fill-opacity:1;fill-rule:nonzero;stroke:none"
         d="m 5975.63,7900.1 h 185.08 v -737.3 h -185.08 v 737.3" /><path
         id="path160"
         style="fill:#6b6c6e;fill-opacity:1;fill-rule:nonzero;stroke:none"
         d="M 6935.65,7900.1 H 6750.57 V 5751.3 h 185.08 v 2148.8" /><path
         id="path162"
         style="fill:#2c2a2a;fill-opacity:1;fill-rule:nonzero;stroke:none"
         d="m 6750.57,7900.1 h 185.08 v -737.3 h -185.08 v 737.3" /><path
         id="path164"
         style="fill:#8f908f;fill-opacity:1;fill-rule:nonzero;stroke:none"
         d="m 7381.3,8468.9 c -13.51,29.5 -201.89,145.3 -201.89,145.3 h -711.13 -5.46 -711.13 c 0,0 -188.37,-115.8 -201.9,-145.3 -13.51,-29.5 -147.55,-326.1 -147.55,-326.1 h 1060.58 5.46 1060.58 c 0,0 -134.04,296.6 -147.56,326.1" /><path
         id="path166"
         style="fill:#6b6c6e;fill-opacity:1;fill-rule:nonzero;stroke:none"
         d="M 7360.67,8259.3 H 5570.43 c -99.2,0 -179.62,-80.4 -179.62,-179.6 0,-99.2 80.42,-179.6 179.62,-179.6 h 1790.24 c 99.2,0 179.62,80.4 179.62,179.6 0,99.2 -80.42,179.6 -179.62,179.6" /><path
         id="path168"
         style="fill:#2c2a2a;fill-opacity:1;fill-rule:nonzero;stroke:none"
         d="m 6615.74,5650.2 h -320.2 v 2249.9 h 320.2 V 5650.2" /><path
         id="path170"
         style="fill:#454547;fill-opacity:1;fill-rule:nonzero;stroke:none"
         d="M 8391.21,5127.8 H 4467 v 623.5 h 3924.21 v -623.5" /><path
         id="path172"
         style="fill:#454547;fill-opacity:1;fill-rule:nonzero;stroke:none"
         d="M 7403.62,7662.1 H 5519.97 v 245.2 h 1883.65 v -245.2" /><path
         id="path174"
         style="fill:#252323;fill-opacity:1;fill-rule:nonzero;stroke:none"
         d="m 4321.17,6841.1 h -183.28 c 0,0 -158,-61.1 -202.24,-149.6 -44.23,-88.5 139.04,-12.6 -120.07,-240.1 -259.12,-227.5 -278.08,-406.6 -246.47,-440.3 31.59,-33.7 793.38,-54.8 946.51,0 v 581.4 c 0,0 18.31,8.4 -28.03,75.8 -46.34,67.5 -166.42,172.8 -166.42,172.8" /><path
         id="path176"
         style="fill:#b55f39;fill-opacity:1;fill-rule:nonzero;stroke:none"
         d="m 4116.83,7597.4 c 0,419.2 -50.57,958.5 8.42,1261.8 58.99,303.4 126.4,581.5 126.4,581.5 0,0 438.17,337 497.16,202.2 l -29.39,-443.8 c 53.42,-169.1 214.77,-739 101.01,-1053.5 -113.76,-314.4 -155.88,-339.7 -223.3,-626.2 -67.41,-286.5 -109.54,-851.1 -109.54,-851.1 0,0 -303.35,-16.8 -345.49,0 -42.13,16.9 -75.84,172.8 -75.84,172.8 0,0 50.57,337.1 50.57,756.3" /><path
         id="path178"
         style="fill:#252323;fill-opacity:1;fill-rule:nonzero;stroke:none"
         d="m 5513.57,10067.7 c 0,0 -765.65,98.9 -1009.59,-138.5 -145.96,-142 -252.33,-488.5 -252.33,-488.5 0,0 25.28,101.1 265.43,-311.8 240.16,-412.9 587.74,-404.5 587.74,-404.5 l 408.75,1343.3" /><path
         id="path180"
         style="fill:#974c30;fill-opacity:1;fill-rule:nonzero;stroke:none"
         d="m 4293.78,8325.3 c 0,0 61.09,-266.6 384.46,-283.4 0,0 -178.02,-92.7 -323.37,16.8 -145.35,109.6 -61.09,266.6 -61.09,266.6" /><path
         id="path182"
         style="fill:#f5f6f5;fill-opacity:1;fill-rule:nonzero;stroke:none"
         d="m 4083.49,6981.2 c -9.45,-88.3 -17.23,-140.1 -17.23,-140.1 0,0 33.71,-155.9 75.84,-172.8 42.14,-16.8 345.49,0 345.49,0 0,0 9.99,134 28.03,304.4 -137.75,-3.5 -313.08,2.8 -432.13,8.5" /><path
         id="path184"
         style="fill:#5b5f5f;fill-opacity:1;fill-rule:nonzero;stroke:none"
         d="m 2020.56,9905.3 c -62.04,245.6 -334.13,388.5 -607.72,319.4 -273.59,-69.1 -445.086,-324.2 -383.04,-569.7 62.05,-245.5 334.13,-388.5 607.72,-319.4 273.59,69.2 445.09,324.2 383.04,569.7" /><path
         id="path186"
         style="fill:#c37140;fill-opacity:1;fill-rule:nonzero;stroke:none"
         d="M 5291.7,9880.9 5185.92,9866.2 4616.07,9237 c 0,0 -112.09,-43.2 -164.83,-80.9 -52.74,-37.8 -290.09,-80.7 -560.4,-247.2 -270.32,-166.4 -375.81,-370.8 -441.73,-374.1 -65.93,-3.3 -184.61,-23.1 -204.38,0 -19.79,23.1 -560.41,372.5 -870.27,563.7 -309.88,191.2 -501.07,428.6 -501.07,428.6 l -224.17,-263.8 c 0,0 362.61,-481.2 507.67,-679 145.04,-197.8 725.22,-663 817.52,-733.7 59.59,-45.6 154.92,-30.3 222.09,-15.1 36.87,8.4 65.25,16.8 74.59,15.1 26.38,-4.7 594.97,24.2 969.18,115.4 374.19,91.2 534.03,242.8 534.03,242.8 0,0 582.65,12.8 835.24,326 252.6,313.2 -317.84,1346.1 -317.84,1346.1" /><path
         id="path188"
         style="fill:#cda28a;fill-opacity:1;fill-rule:nonzero;stroke:none"
         d="m 5568.42,9261.5 c -3.13,9 -6.29,17.9 -9.5,26.8 13.94,13.4 20.79,21.2 20.79,21.2 -3.02,-16.9 -6.81,-32.9 -11.29,-48" /><path
         id="path190"
         style="fill:#b36239;fill-opacity:1;fill-rule:nonzero;stroke:none"
         d="m 5161.95,9002.6 c -39.21,0 -64.6,3.6 -64.6,3.6 259.73,102.6 409.71,231.9 461.57,282.1 3.21,-8.9 6.37,-17.8 9.5,-26.8 -67.88,-229.3 -294.04,-258.9 -406.47,-258.9" /><path
         id="path192"
         style="fill:#a45634;fill-opacity:1;fill-rule:nonzero;stroke:none"
         d="m 5185.42,8908.9 c 0,0 212.11,-169.7 391.67,-184.5 l 32.45,-189.6 c 0,0 -125.76,149 -147.56,145.4 -21.79,-3.6 -188.47,6.2 -276.56,228.7" /><path
         id="path194"
         style="fill:#da8155;fill-opacity:1;fill-rule:nonzero;stroke:none"
         d="m 5338.53,9765.6 c 0,0 -175.25,-119.9 -241.18,-172.6 -65.93,-52.7 -468.1,-537.4 -718.63,-684.1 l 237.34,328.1 569.86,629.2 105.78,14.7 46.83,-115.3" /><path
         id="path196"
         style="fill:#a45634;fill-opacity:1;fill-rule:nonzero;stroke:none"
         d="m 4299.6,8485.4 c 0,0 349.43,-171.4 718.64,-197.8 0,0 -448.33,-145.1 -718.64,197.8" /><path
         id="path198"
         style="fill:#a45634;fill-opacity:1;fill-rule:nonzero;stroke:none"
         d="m 2055.06,8721.9 c 0,0 754.53,-513.4 1163.29,-618.9 0,0 -599.96,85.7 -1061.47,481.3 l -101.82,137.6" /><path
         id="path200"
         style="fill:#c37140;fill-opacity:1;fill-rule:nonzero;stroke:none"
         d="m 1873.38,9527.1 c 0,0 -54.94,98.9 -50.54,151.6 4.4,52.7 -0.25,386.8 -0.25,386.8 l -702.3,-231.6 c 0,0 116.64,-177.2 257.96,-278.3 141.31,-101.1 270.97,-292.3 270.97,-292.3 0,0 235.16,46.2 224.16,63.8 -10.98,17.6 0,200 0,200" /><path
         id="path202"
         style="fill:#767779;fill-opacity:1;fill-rule:nonzero;stroke:none"
         d="m 1920.27,10065.6 c 5.35,37.8 5.63,76.4 0.35,115.1 -15.88,203.3 -114.28,333.3 -114.28,333.3 0,0 -50.47,-0.7 -127.9,-5.6 -108.43,54.2 -241.2,71 -374.41,37.3 -112.61,-28.5 -207.87,-88.5 -276.72,-166.3 -91.189,-43.8 -152.997,-101.6 -154.212,-178.3 -4.754,-299.6 182.582,-441.6 182.582,-441.6 h 0.15 c 119.27,-103.4 295.72,-147.7 472.89,-102.9 198.83,50.3 343.63,198.7 384.16,370.3 3.72,12.5 6.26,25.3 7.38,38.6 l 0.01,0.1" /><path
         id="path204"
         style="fill:#8d8d8d;fill-opacity:1;fill-rule:nonzero;stroke:none"
         d="m 1876.14,10367.3 c 62.04,-245.5 -109.45,-500.6 -383.04,-569.7 -273.59,-69.2 -545.682,73.8 -607.725,319.3 -62.047,245.5 109.449,500.6 383.035,569.7 273.6,69.2 545.68,-73.8 607.73,-319.3" /><path
         id="path206"
         style="fill:#d0d0cb;fill-opacity:1;fill-rule:nonzero;stroke:none"
         d="m 1681.63,10328.7 c 38,-150.3 -67.03,-306.6 -234.58,-348.9 -167.56,-42.3 -334.19,45.2 -372.19,195.6 -37.99,150.3 67.03,306.5 234.58,348.9 167.56,42.3 334.19,-45.2 372.19,-195.6" /><path
         id="path208"
         style="fill:#252323;fill-opacity:1;fill-rule:nonzero;stroke:none"
         d="m 8588.6,6775.2 h 183.28 c 0,0 157.99,-61.1 202.23,-149.6 44.23,-88.5 -139.04,-12.6 120.07,-240.2 259.12,-227.5 278.08,-406.5 246.48,-440.2 -31.6,-33.7 -793.38,-54.8 -946.52,0 v 581.4 c 0,0 -18.31,8.4 28.03,75.8 46.35,67.4 166.43,172.8 166.43,172.8" /><path
         id="path210"
         style="fill:#b55f39;fill-opacity:1;fill-rule:nonzero;stroke:none"
         d="m 8792.94,7531.4 c 0,419.3 50.56,958.6 -8.43,1261.9 -58.98,303.4 -126.39,581.4 -126.39,581.4 0,0 -438.18,337.1 -497.16,202.3 l 29.38,-443.8 c -53.42,-169.1 -214.77,-739 -101.01,-1053.5 113.76,-314.4 155.89,-339.7 223.3,-626.2 67.41,-286.5 109.54,-851.1 109.54,-851.1 0,0 303.36,-16.8 345.49,0 42.13,16.9 75.84,172.8 75.84,172.8 0,0 -50.56,337 -50.56,756.2" /><path
         id="path212"
         style="fill:#252323;fill-opacity:1;fill-rule:nonzero;stroke:none"
         d="m 7396.19,10001.8 c 0,0 765.65,98.9 1009.59,-138.5 145.96,-142 252.33,-488.6 252.33,-488.6 0,0 -25.27,101.1 -265.43,-311.7 -240.15,-412.9 -587.74,-404.5 -587.74,-404.5 l -408.75,1343.3" /><path
         id="path214"
         style="fill:#974c30;fill-opacity:1;fill-rule:nonzero;stroke:none"
         d="m 8615.98,8259.3 c 0,0 -61.09,-266.5 -384.45,-283.4 0,0 178.01,-92.7 323.36,16.9 145.36,109.5 61.09,266.5 61.09,266.5" /><path
         id="path216"
         style="fill:#f5f6f5;fill-opacity:1;fill-rule:nonzero;stroke:none"
         d="m 8826.27,6915.3 c 9.45,-88.3 17.23,-140.1 17.23,-140.1 0,0 -33.71,-155.9 -75.84,-172.8 -42.13,-16.8 -345.49,0 -345.49,0 0,0 -9.99,133.9 -28.03,304.4 137.75,-3.5 313.08,2.8 432.13,8.5" /><path
         id="path218"
         style="fill:#5b5f5f;fill-opacity:1;fill-rule:nonzero;stroke:none"
         d="m 10889.2,9839.4 c 62,245.5 334.1,388.5 607.7,319.4 273.6,-69.2 445.1,-324.2 383.1,-569.8 -62.1,-245.5 -334.2,-388.5 -607.8,-319.3 -273.5,69.1 -445,324.2 -383,569.7" /><path
         id="path220"
         style="fill:#c37140;fill-opacity:1;fill-rule:nonzero;stroke:none"
         d="M 7660.78,9869.9 8293.7,9171 c 0,0 112.08,-43.1 164.83,-80.9 52.74,-37.7 290.08,-80.6 560.4,-247.1 270.31,-166.4 375.8,-370.8 441.73,-374.1 65.93,-3.3 184.6,-23.1 204.38,0 19.78,23.1 560.36,372.5 870.26,563.7 309.9,191.2 501.1,428.5 501.1,428.5 l 224.1,-263.7 c 0,0 -362.6,-481.3 -507.6,-679.1 -145.1,-197.7 -725.2,-662.9 -817.55,-733.6 -59.6,-45.6 -154.91,-30.4 -222.08,-15.1 -36.87,8.4 -65.26,16.8 -74.6,15.1 -26.37,-4.8 -594.97,24.2 -969.17,115.4 -374.2,91.2 -534.03,242.7 -534.03,242.7 0,0 -582.65,12.9 -835.24,326.1 -252.6,313.2 360.55,1401 360.55,1401" /><path
         id="path222"
         style="fill:#cda28a;fill-opacity:1;fill-rule:nonzero;stroke:none"
         d="m 7346.11,9180.5 c -6.6,19.5 -12.01,40.5 -16.06,63.1 0,0 9.38,-10.6 28.49,-28.6 -4.22,-11.5 -8.34,-22.9 -12.43,-34.5" /><path
         id="path224"
         style="fill:#b36239;fill-opacity:1;fill-rule:nonzero;stroke:none"
         d="m 7747.81,8936.7 c -109.92,0 -328.54,28.3 -401.7,243.8 4.09,11.6 8.21,23 12.43,34.5 58.05,-54.5 205.96,-176.8 453.87,-274.7 0,0 -25.4,-3.6 -64.6,-3.6" /><path
         id="path226"
         style="fill:#a45634;fill-opacity:1;fill-rule:nonzero;stroke:none"
         d="m 7724.34,8843 c 0,0 -212.1,-169.7 -391.66,-184.5 l -32.46,-189.6 c 0,0 125.76,148.9 147.56,145.3 21.8,-3.6 188.48,6.3 276.56,228.8" /><path
         id="path228"
         style="fill:#da8155;fill-opacity:1;fill-rule:nonzero;stroke:none"
         d="m 7571.24,9699.6 c 0,0 175.24,-119.8 241.17,-172.5 65.93,-52.8 468.1,-537.4 718.63,-684.1 l -237.34,328 -632.92,698.9 -89.54,-170.3" /><path
         id="path230"
         style="fill:#a45634;fill-opacity:1;fill-rule:nonzero;stroke:none"
         d="m 8610.16,8419.4 c 0,0 -349.43,-171.4 -718.63,-197.7 0,0 448.32,-145.1 718.63,197.7" /><path
         id="path232"
         style="fill:#a45634;fill-opacity:1;fill-rule:nonzero;stroke:none"
         d="m 10854.7,8655.9 c 0,0 -754.5,-513.4 -1163.29,-618.8 0,0 599.99,85.7 1061.49,481.2 l 101.8,137.6" /><path
         id="path234"
         style="fill:#c37140;fill-opacity:1;fill-rule:nonzero;stroke:none"
         d="m 11036.4,9461.1 c 0,0 54.9,98.9 50.5,151.7 -4.4,52.7 0.3,386.8 0.3,386.8 l 702.3,-231.6 c 0,0 -116.7,-177.2 -258,-278.3 -141.3,-101.1 -271,-292.3 -271,-292.3 0,0 -235.1,46.2 -224.1,63.8 11,17.5 0,199.9 0,199.9" /><path
         id="path236"
         style="fill:#767779;fill-opacity:1;fill-rule:nonzero;stroke:none"
         d="m 10989.5,9999.6 c -5.4,37.8 -5.6,76.5 -0.3,115.2 15.8,203.3 114.2,333.3 114.2,333.3 0,0 50.5,-0.8 127.9,-5.7 108.4,54.3 241.2,71 374.4,37.4 112.6,-28.5 207.9,-88.5 276.8,-166.3 91.1,-43.8 152.9,-101.7 154.2,-178.3 4.7,-299.6 -182.6,-441.6 -182.6,-441.6 l -0.2,-0.1 c -119.2,-103.3 -295.7,-147.6 -472.9,-102.8 -198.8,50.2 -343.6,198.7 -384.1,370.3 -3.7,12.4 -6.3,25.3 -7.4,38.6 v 0" /><path
         id="path238"
         style="fill:#8d8d8d;fill-opacity:1;fill-rule:nonzero;stroke:none"
         d="m 11033.6,10301.4 c -62,-245.5 109.5,-500.6 383.1,-569.8 273.6,-69.1 545.6,73.9 607.7,319.4 62,245.5 -109.5,500.6 -383.1,569.7 -273.5,69.2 -545.6,-73.8 -607.7,-319.3" /><path
         id="path240"
         style="fill:#d0d0cb;fill-opacity:1;fill-rule:nonzero;stroke:none"
         d="m 11228.1,10262.8 c -38,-150.4 67.1,-306.6 234.6,-348.9 167.6,-42.4 334.2,45.2 372.2,195.5 38,150.4 -67,306.6 -234.6,349 -167.5,42.3 -334.2,-45.3 -372.2,-195.6" /><path
         id="path242"
         style="fill:#e9eef1;fill-opacity:1;fill-rule:nonzero;stroke:none"
         d="m 7355.3,10162.2 c -92.48,87.9 -470.3,232.9 -668.09,215.4 -197.79,-17.6 -265.92,-26.4 -265.92,-26.4 0,0 -68.12,8.8 -265.91,26.4 -197.79,17.5 -575.61,-127.5 -668.09,-215.4 -92.48,-87.9 -305.47,-292.3 -305.47,-292.3 0,0 191.19,-461.5 257.12,-817.5 65.93,-356 101.63,-589.3 101.63,-589.3 l 427.63,195.4 453.09,1310.3 453.1,-1310.3 425.83,-189.6 c 0,0 37.5,227.5 103.43,583.5 65.93,356 257.13,817.5 257.13,817.5 0,0 -213,204.4 -305.48,292.3" /><path
         id="path244"
         style="fill:#2f1d16;fill-opacity:1;fill-rule:nonzero;stroke:none"
         d="m 6315.49,10215.3 c 0,0 -157.99,6.3 -265.43,-75.9 -107.44,-82.1 -132.72,-139 -189.6,-233.8 -56.87,-94.8 -75.83,-316 -101.11,-410.8 -25.28,-94.8 -94.8,-360.2 -101.12,-568.8 -6.32,-208.5 158,-455 227.52,-492.9 69.51,-38 404.46,-63.2 619.34,-69.5 214.88,-6.4 429.75,94.7 448.71,113.7 18.96,19 151.67,303.4 170.63,543.5 18.96,240.2 -63.19,657.3 -82.15,726.8 -18.96,69.5 -183.28,505.6 -726.79,467.7" /></g></g></svg>