<?xml version="1.0" encoding="UTF-8" standalone="no"?>
<svg
   xmlns:dc="http://purl.org/dc/elements/1.1/"
   xmlns:cc="http://creativecommons.org/ns#"
   xmlns:rdf="http://www.w3.org/1999/02/22-rdf-syntax-ns#"
   xmlns:svg="http://www.w3.org/2000/svg"
   xmlns="http://www.w3.org/2000/svg"
   viewBox="0 0 2666.6667 2666.6667"
   height="2666.6667"
   width="2666.6667"
   xml:space="preserve"
   id="svg2"
   version="1.1"><metadata
     id="metadata8"><rdf:RDF><cc:Work
         rdf:about=""><dc:format>image/svg+xml</dc:format><dc:type
           rdf:resource="http://purl.org/dc/dcmitype/StillImage" /></cc:Work></rdf:RDF></metadata><defs
     id="defs6"><clipPath
       id="clipPath252"
       clipPathUnits="userSpaceOnUse"><path
         id="path250"
         d="m 3660.28,10141.6 c -11.93,0 141.65,84.1 248.74,199.1 109.61,117.7 113.67,296.3 113.67,296.3 0,0 89.31,-198.9 -52.77,-353.1 -142.08,-154.3 -288.23,-138.1 -308.52,-142.1 -0.47,-0.1 -0.84,-0.2 -1.12,-0.2" /></clipPath></defs><g
     transform="matrix(1.3333333,0,0,-1.3333333,0,2666.6667)"
     id="g10"><g
       transform="scale(0.1)"
       id="g12"><g
         transform="scale(1.22699)"
         id="g14"><path
           id="path16"
           style="fill:none;fill-opacity:1;fill-rule:nonzero;stroke:none"
           d="M 16300,0 H 0 V 16300 H 16300 V 0" /></g><path
         id="path18"
         style="fill:#2f1d16;fill-opacity:1;fill-rule:nonzero;stroke:none"
         d="m 13373.9,13374.9 c 0,0 -0.9,8.3 -3.9,22.2 -7.8,42.6 -27.3,135.8 -55.1,180.8 -36.7,59.3 -109.4,62.1 -155.3,101.4 -45.8,39.3 -135.5,17.1 -175,14.3 -39.6,-2.8 -124.3,0 -169.4,-14.3 -45.2,-14.4 -98.9,-30.9 -112.7,-45 -13.7,-14.1 -96.3,-36.7 -121.8,-50.8 -25.5,-14.1 -62,-62.1 -79,-79.1 -16.9,-16.9 -33.8,-28.2 -62.1,-50.8 -28.2,-22.6 -19.7,-70.6 -25.4,-101.6 -5.6,-31.1 -11.3,-17 -42.3,-62.1 -31.1,-45.2 -5.7,-127.1 -5.7,-127.1 0,0 -42.3,-62.1 -42.3,-79.1 0,-16.9 0,0 -14.2,-87.5 -14.1,-87.5 48.6,-117.5 39.6,-167.6 -9,-50.1 48,-75.2 53.6,-81.9 5.7,-6.7 28.3,-52.6 50.9,-106.3 20.5,-48.7 92.8,-83.2 160.5,-145.3 7,-6.8 13.8,-13.4 20.4,-19.6 72.8,-75 219,-138.1 219,-138.1 0,0 12.3,254.1 46.2,338.8 33.9,84.7 276.7,300.2 274.3,343.7 -2.3,43.4 199.7,355 199.7,355" /><g
         transform="scale(1.01907)"
         id="g20"><path
           id="path22"
           style="fill:#4e4f51;fill-opacity:1;fill-rule:nonzero;stroke:none"
           d="m 13876.1,16032.5 c -270.6,267.5 -527.8,111.6 -527.8,111.6 l -0.1,-0.1 c -179.8,-67 -329.2,-297.3 -359.3,-582.9 -18.7,-177.2 12.1,-342.1 76.9,-465.3 13.5,-30.5 31.1,-58.5 54.2,-83.4 v 0 c 33.8,-42.1 72.8,-75.5 116,-98.4 222.4,-142.8 430.1,-37.1 430.1,-37.1 l 67.3,262.5 c 40.2,71.9 71.5,155.5 90.5,246.8 87,125.7 263.9,437.1 52.2,646.3" /></g><g
         transform="scale(1.01049)"
         id="g24"><path
           id="path26"
           style="fill:#797a7b;fill-opacity:1;fill-rule:nonzero;stroke:none"
           d="m 14146.3,15591.7 c -37.7,-357 -260,-628.6 -496.7,-606.6 -236.8,22.1 -398.1,329.3 -360.4,686.3 37.6,357 260.1,628.6 496.7,606.6 236.7,-22 398,-329.3 360.4,-686.3" /></g><path
         id="path28"
         style="fill:#d0d0cb;fill-opacity:1;fill-rule:nonzero;stroke:none"
         d="m 14036.4,15792.9 c -5.4,-72 -55.8,-127.2 -112.6,-123.4 -56.7,3.9 -98.3,65.3 -92.9,137.2 5.5,71.9 55.9,127.2 112.7,123.3 56.7,-3.8 98.3,-65.2 92.8,-137.1" /><g
         transform="scale(1.00153)"
         id="g30"><path
           id="path32"
           style="fill:#5b5f5f;fill-opacity:1;fill-rule:nonzero;stroke:none"
           d="m 12940.4,16030.6 c -290.2,269.4 -552.7,98.8 -552.7,98.8 l -0.1,-0.1 c -184.8,-75.6 -332.7,-320 -354.8,-618.1 -13.6,-185 23.8,-355.5 95.3,-481.5 15,-31.3 34.4,-59.9 59.1,-85 v 0 c 36.5,-42.7 78.2,-76.2 123.9,-98.6 236,-141.2 448.6,-24.6 448.6,-24.6 l 61.4,275.3 c 39.5,76.1 69.3,164.1 86.1,259.8 86.4,133.5 260.2,463.2 33.2,674" /></g><path
         id="path34"
         style="fill:#8d8d8d;fill-opacity:1;fill-rule:nonzero;stroke:none"
         d="m 13136.4,15464 c -27.3,-370 -248.3,-657.8 -493.5,-642.7 -245.3,15.1 -421.9,327.3 -394.6,697.3 27.3,370 248.3,657.8 493.5,642.7 245.3,-15.1 421.9,-327.3 394.6,-697.3" /><path
         id="path36"
         style="fill:#d0d0cb;fill-opacity:1;fill-rule:nonzero;stroke:none"
         d="m 12871.1,15494.1 c -3.3,-73.7 -53.1,-131.8 -111.2,-129.7 -58.2,2.1 -102.6,63.5 -99.4,137.3 3.3,73.7 53.1,131.7 111.2,129.7 58.1,-2.1 102.6,-63.6 99.4,-137.3" /><g
         transform="scale(1.07067)"
         id="g38"><path
           id="path40"
           style="fill:#969797;fill-opacity:1;fill-rule:nonzero;stroke:none"
           d="m 15970.1,7248.6 c 22.8,-17.09 136.6,-164.94 119.5,-210.42 -17,-45.49 -330.9,-223.13 -437.9,-238.82 -107,-15.69 -278.7,82.47 -278.7,82.47 l -34.1,-213.33 c 0,0 212.1,-113.76 376.2,-68.27 164,45.58 465.5,194.08 525.2,318.87 59.7,124.77 -54.1,386.39 -54.1,386.39 l -216.1,-56.89" /></g><g
         transform="scale(1.06675)"
         id="g42"><path
           id="path44"
           style="fill:#797a7b;fill-opacity:1;fill-rule:nonzero;stroke:none"
           d="m 13894,7669.15 v -428.12 l 1370,-522.34 1036,530.87 v 727.82 l -1361.4,573.6 -1044.6,-881.83" /></g><g
         transform="scale(1.06789)"
         id="g46"><path
           id="path48"
           style="fill:#494a4b;fill-opacity:1;fill-rule:nonzero;stroke:none"
           d="m 15346.2,7160.29 953.8,443.77 -807.8,786.79 c 0,0 -695.2,-185.32 -752.2,-252.37 -18.2,-21.26 -45.5,-16.2 -67.8,-11.05 -47.7,10.86 -72.2,21.82 67.8,-226.99 205.3,-364.92 606.2,-740.15 606.2,-740.15" /></g><g
         transform="scale(1.15884)"
         id="g50"><path
           id="path52"
           style="fill:#c37140;fill-opacity:1;fill-rule:nonzero;stroke:none"
           d="m 14910.2,6909.92 433.4,-112.95 c 0,0 -267.9,-262.77 -257.4,-567.47 10.4,-304.78 60.4,-436.12 40.7,-751.44 -19.7,-315.23 -40.7,-309.96 -19.7,-315.23 21,-5.26 383.5,31.5 383.5,31.5 0,0 462.5,1124.49 530.7,1255.82 68.4,131.43 278.6,420.42 178.8,693.63 -99.9,273.2 -331.1,394.1 -378.4,430.86 -47.3,36.76 -247.8,307.98 -509.7,438.03 -261.9,129.95 -688.3,-364.42 -688.3,-432.76 0,-68.35 286.4,-669.99 286.4,-669.99" /></g><g
         transform="scale(1.16727)"
         id="g54"><path
           id="path56"
           style="fill:#252323;fill-opacity:1;fill-rule:nonzero;stroke:none"
           d="m 14857.3,5127.95 c 0,0 -118.4,-457.05 -42.2,-525.41 76.1,-68.37 344,-32.39 459.8,-94.76 115.7,-62.45 643.9,-151.29 834.5,28.28 190.6,179.56 -523,524.47 -566.2,575.61 -43.1,51.15 -87,151.04 -120.5,199.18 -33.3,48.24 -162.2,64.26 -162.2,64.26 0,0 -61.6,106.06 -129.3,51.48 -67.7,-54.57 -273.9,-298.64 -273.9,-298.64" /></g><g
         transform="scale(1.11878)"
         id="g58"><path
           id="path60"
           style="fill:#b36239;fill-opacity:1;fill-rule:nonzero;stroke:none"
           d="m 15850.9,5826.62 c 248.1,254.12 408.3,759.31 408.3,759.31 40.8,-432.7 -408.3,-759.31 -408.3,-759.31" /></g><g
         transform="scale(1.07504)"
         id="g62"><path
           id="path64"
           style="fill:#cda28a;fill-opacity:1;fill-rule:nonzero;stroke:none"
           d="m 16300,6277.74 c -12.4,131.53 -31.4,255.43 -37.8,435.42 6.4,-179.99 25.4,-303.8 37.8,-435.33 0,-0.09 0,-0.09 0,-0.09 m -37.8,435.52 c 0,0.56 0,1.21 0,1.86 -0.2,6.42 -0.3,12.84 -0.3,19.16 0,-6.32 0.1,-12.74 0.3,-19.16 0,-0.65 0,-1.3 0,-1.86" /></g><g
         transform="scale(1.06675)"
         id="g66"><path
           id="path68"
           style="fill:#906651;fill-opacity:1;fill-rule:nonzero;stroke:none"
           d="m 16300,7479.7 -102.7,26.71 v 0 0 l 102.7,-26.71 m -102.7,26.81 v 0 0 m 0,0 c -0.1,0 -0.1,0.09 -0.1,0.09 0,0 0,-0.09 0.1,-0.09 m -0.1,0.18 c -0.1,0.1 -0.2,0.38 -0.4,0.66 0.2,-0.28 0.3,-0.56 0.4,-0.66 m -0.4,0.75 c -1.8,3.75 -8.5,17.91 -18.9,39.84 v 0 c 10.4,-21.93 17.1,-36.18 18.9,-39.84" /></g><g
         transform="scale(1.05877)"
         id="g70"><path
           id="path72"
           style="fill:#7b513d;fill-opacity:1;fill-rule:nonzero;stroke:none"
           d="m 16300,7604.22 c -14.3,30.13 -35.2,74.9 -59.5,127.42 v 0 c 24.3,-52.52 45.2,-97.29 59.5,-127.42 v 0" /></g><g
         transform="scale(1.10206)"
         id="g74"><path
           id="path76"
           style="fill:#b36239;fill-opacity:1;fill-rule:nonzero;stroke:none"
           d="m 15900.4,6123.92 c -12.1,128.31 -30.7,249.08 -36.9,424.66 0,0 0,0 0,0.09 0,0.55 0,1.18 0,1.82 -0.2,6.26 -0.3,12.52 -0.3,18.69 0.2,312.42 271,578.01 271,578.01 v 0 0 l -356.3,92.92 -99.5,25.86 v 0 c 0,0 0,0 0,0.09 v 0 0 c -0.1,0 -0.1,0.09 -0.1,0.09 0,0 0,0 0,0.09 0,0.1 -0.1,0.36 -0.3,0.64 v 0.09 c -1.7,3.54 -8.3,17.33 -18.3,38.56 -13.7,28.95 -33.8,71.96 -57.1,122.41 l 76.9,-15.51 620.5,-237.56 -80,-60.8 c 0,0 -223.9,-248.62 -268.1,-497.34 -43.6,-245.36 -51.3,-486.55 -51.5,-492.81" /></g><g
         transform="scale(1.11137)"
         id="g78"><path
           id="path80"
           style="fill:#f5f6f5;fill-opacity:1;fill-rule:nonzero;stroke:none"
           d="m 16029.9,5633.78 c 0,0 -52.7,-3.87 -63.7,-36.71 -11,-32.94 -28.1,-98.8 -43.3,-131.56 -15.1,-32.84 -173.8,-21.23 -173.8,-21.23 l 28,360.82 522.9,-31.86 -97.7,-219.82 c 0,0 -50.3,54.89 -172.4,80.36" /></g><g
         transform="scale(1.13792)"
         id="g82"><path
           id="path84"
           style="fill:#494a4b;fill-opacity:1;fill-rule:nonzero;stroke:none"
           d="m 12174.2,8056.36 -280.9,-1300.35 -1518.8,-825.19 c 0,0 -30.4,-170.05 138.2,-202.21 l 1661.5,746.53 2881.6,-1364.59 c 0,0 -316.5,-130.76 -449.5,-441.42 -132.9,-310.74 -24,-1019.4 -24,-1019.4 0,0 224.7,-128.39 224.7,-96.32 0,32.08 -56.1,770.53 40.2,995.33 96.3,224.71 639.6,618.05 861.5,585.89 222,-32.08 342.4,-642.14 342.4,-642.14 0,0 120.4,-104.31 248.9,32.17 0,0 -192.6,650.13 -369.3,786.61 -176.5,136.48 -650.1,-54.05 -650.1,-54.05 l -769.8,1144.55 -109.1,-327.97 397.3,-561.9 -2287.6,1091.64 1212,224.71 c 0,0 -391.9,70.56 -465.5,104.4 -73.7,33.83 -988.2,-160.56 -988.2,-160.56 0,0 -71.4,48.16 -79.4,72.24 -8,24.08 256.9,1115.72 256.9,1115.72 l -273,96.31" /></g><path
         id="path86"
         style="fill:#797a7b;fill-opacity:1;fill-rule:nonzero;stroke:none"
         d="m 12471.1,10799.4 2189.5,-2910.6 792.1,438.4 -1640.5,2553 -694.3,480.3 -646.8,-561.1" /><path
         id="path88"
         style="fill:#494a4b;fill-opacity:1;fill-rule:nonzero;stroke:none"
         d="m 12732.9,11026.5 2088.6,-2845.4 493,1077.7 -1420.8,1884.2 -871.8,107 -289,-223.5" /><g
         transform="scale(1.02398)"
         id="g90"><path
           id="path92"
           style="fill:#c37140;fill-opacity:1;fill-rule:nonzero;stroke:none"
           d="m 15125.6,7231.28 c 0,0 127.8,-163.58 300.3,-324.12 172.4,-160.56 202.1,-208.12 196.2,-279.5 -6,-71.29 -299.7,-350.79 -247.9,-719.45 51.7,-368.75 301.4,-921.79 319.2,-1088.3 17.9,-166.51 17.9,-166.51 17.9,-166.51 h 356.8 c 0,0 77.3,903.93 89.1,1254.81 11.9,350.79 53.5,499.52 53.5,499.52 0,0 89.3,202.15 65.5,529.21 -23.8,327.06 -249.7,838.49 -249.7,838.49 0,0 -749.4,101.08 -796.9,44.53 -47.6,-56.44 -124.8,-74.31 -136.8,-157.52 -11.9,-83.3 32.8,-431.16 32.8,-431.16" /></g><g
         transform="scale(1.04972)"
         id="g94"><path
           id="path96"
           style="fill:#252323;fill-opacity:1;fill-rule:nonzero;stroke:none"
           d="m 15302.9,4534.62 -49.7,-118.41 c 0,0 -30.6,-618.17 -8.8,-688.09 21.8,-69.92 237.8,-307.51 439.1,-372.86 201.2,-65.35 583.7,48.59 600.1,163.67 16.4,115.07 -380.1,691.41 -425,802.87 -45,111.37 -21,362.67 -71.7,400.11 -50.7,37.34 -115.1,16.39 -115.1,16.39 l -384,82.78 15.1,-286.46" /></g><g
         transform="scale(1.0068)"
         id="g98"><path
           id="path100"
           style="fill:#b36239;fill-opacity:1;fill-rule:nonzero;stroke:none"
           d="m 15953.3,5413.3 c 125,517.09 56.4,938.62 56.4,938.62 290.3,-485.69 -56.4,-938.62 -56.4,-938.62" /></g><g
         transform="scale(1.08861)"
         id="g102"><path
           id="path104"
           style="fill:#252323;fill-opacity:1;fill-rule:nonzero;stroke:none"
           d="m 13290.7,8320.63 c 0,0 72.7,-411.07 324.4,-805.43 251.7,-394.36 612.5,-713.21 612.5,-713.21 0,0 100.7,226.53 377.6,352.38 276.8,125.85 469.8,159.47 469.8,159.47 l -151,335.57 c 0,0 117.4,58.7 151,33.52 33.6,-25.16 578.9,-260.05 797.1,-327.2 0,0 -8.4,461.51 67.2,679.68 75.5,218.07 360.7,494.21 360.7,494.21 0,0 -413.9,241.13 -928.5,357.24 -514.6,116.2 -805.5,222.48 -805.5,222.48 0,0 -906.2,-39.13 -1029.2,-95.07 -123.1,-55.94 -307.6,-285.32 -307.6,-285.32 l 61.5,-408.32" /></g><path
         id="path106"
         style="fill:#c37140;fill-opacity:1;fill-rule:nonzero;stroke:none"
         d="m 14049.9,12148.8 125.9,148.5 c 0,0 22.3,162.4 75.1,280.1 52.7,117.8 105.5,215.2 105.5,215.2 0,0 -12.2,345 16.3,564.3 28.4,219.2 56.8,381.5 56.8,397.8 0,16.2 -113.7,320.7 -81.2,629.2 32.5,308.5 4.1,629.2 4.1,629.2 l -89.3,369.4 c 0,0 357.2,-4.1 365.3,-20.3 8.1,-16.2 56.8,-332.9 56.8,-332.9 0,0 312.6,-629.2 332.9,-897.1 20.3,-267.9 16.3,-296.3 16.3,-296.3 0,0 109.6,-377.6 93.3,-803.8 -16.2,-426.2 -101.5,-692.7 -101.5,-692.7 0,0 -9,-682.6 -36.5,-854 -27.5,-171.3 -588.3,138.1 -588.3,138.1 l -351.5,525.3" /><path
         id="path108"
         style="fill:#e9eef1;fill-opacity:1;fill-rule:nonzero;stroke:none"
         d="m 12897.3,11542.3 -164.4,-42.6 c 0,0 249.7,-164.4 322.8,-517.6 73,-353.2 -8.4,-511.5 -8.4,-511.5 0,0 418.9,-456.7 697.7,-645.5 278.8,-188.7 723.3,-767.2 723.3,-767.2 0,0 103.6,298.4 560.2,438.4 456.7,140.1 828.2,420.2 828.2,420.2 0,0 -249.7,243.5 -341,383.6 -91.4,140 -414.1,849.2 -426.3,844.8 -12.1,-4.5 -18.2,269.5 -42.6,312.1 -24.4,42.7 -200.9,286.2 -420.1,426.3 -40.4,25.7 -254.4,80.6 -396.1,137 -68.7,27.3 -127.6,82.2 -127.6,82.2 l -1205.7,-560.2" /><path
         id="path110"
         style="fill:#c37140;fill-opacity:1;fill-rule:nonzero;stroke:none"
         d="m 12854.3,12339.4 c 0,0 128.3,-200.4 164.8,-389.1 36.6,-188.8 24.4,-261.9 -121.8,-408 0,0 187.1,-85.3 437.6,-249.7 250.5,-164.4 445.4,-207 701.1,-48.7 255.7,158.3 522.9,185.6 523.7,261.9 1.9,190.7 -456.7,596.7 -456.7,596.7 0,0 -243.6,-24.4 -280.1,-30.5 -36.6,-6.1 -119.5,153.1 -119.5,153.1 l -528.6,492.4 c 0,0 -259.2,48.7 -283.6,24.4 -24.3,-24.4 -17.4,-73.7 -66.5,-88.6 -49.1,-15 -133,-121.3 -120.3,-130.3 12.6,-9 149.9,-183.6 149.9,-183.6" /><path
         id="path112"
         style="fill:#a45634;fill-opacity:1;fill-rule:nonzero;stroke:none"
         d="m 13551.6,12318.1 32.7,188.5 119,-281.5 c 0,0 -116.9,-110.7 -397.9,-65.4 -201.3,32.5 -338.9,231.1 -338.9,231.1 l 585.1,-72.7" /><path
         id="path114"
         style="fill:#c37140;fill-opacity:1;fill-rule:nonzero;stroke:none"
         d="m 13297.1,13418.2 c 0,0 59.7,-27.5 77.3,-41.3 17.5,-13.9 109.9,-174.6 134.4,-214.7 24.5,-40.1 43.4,-101.9 54,-122 10.5,-20.1 78,-141.8 98.1,-192.8 20,-51 65.1,-266.5 73.8,-325.2 8.6,-58.7 17.7,-137.7 0.7,-163.7 -17.1,-26.1 -120,-87.1 -228.4,-108.3 -108.5,-21.3 -357.4,6.7 -441.4,46.2 -84.1,39.5 -149.3,179.5 -149.3,179.5 0,0 -33.1,-31.1 -94.4,-12.1 -61.3,19 -171.3,72.1 -208.7,175.6 -37.4,103.4 54.6,107.3 112.5,88.2 57.9,-19 90.2,-77.2 99,-74.3 8.7,2.9 15.3,9.8 18.6,13.2 3.3,3.5 -30.1,112.4 -39.3,133.1 -9.2,20.8 -76.7,139.2 -76.1,144.6 0.6,5.4 36.9,178.3 62.6,207.3 25.8,28.9 506.6,266.7 506.6,266.7" /><path
         id="path116"
         style="fill:#c7cdd0;fill-opacity:1;fill-rule:nonzero;stroke:none"
         d="m 13907.1,10801.5 -13.4,-132.9 c 305.3,65.6 507.7,319.6 507.7,319.6 0,0 -270.1,-131 -494.3,-186.7" /><path
         id="path118"
         style="fill:#c7cdd0;fill-opacity:1;fill-rule:nonzero;stroke:none"
         d="m 15046.8,11457 c 0,0 -39.6,-121.7 -124.8,-176.6 -85.3,-54.8 -286.2,-129.5 -258.8,-135.5 27.4,-6.1 316.9,-3.2 412.6,99.6 0,0 5.2,136.4 -29,212.5" /><g
         transform="scale(1.0601)"
         id="g120"><path
           id="path122"
           style="fill:#100f0d;fill-opacity:1;fill-rule:nonzero;stroke:none"
           d="m 14617.7,8641.98 c 0,0 225.1,-189.51 340,-269.97 114.8,-80.37 367.6,-516.93 367.6,-516.93 l 155.1,34.43 c 0,0 551.3,-281.39 818.5,-336.01 l 1.1,152.25 c 0,0 -739.3,275.73 -848.4,338.93 -109.1,63.11 -350.3,327.33 -361.9,379.02 -11.5,51.69 -17.2,419.3 -17.2,419.3 0,0 -120.6,-241.2 -137.8,-241.2 -17.3,0 -317,40.18 -317,40.18" /></g><path
         id="path124"
         style="fill:#e9eef1;fill-opacity:1;fill-rule:nonzero;stroke:none"
         d="m 13293.4,11788.9 c 0,0 282.8,-201.9 460.8,-355.2 178,-153.3 252.9,-154.1 427.7,-90.3 247.6,90.3 357.2,227.3 112.9,439.4 -84.3,73.2 -387.7,299.3 -387.7,299.3 l 142.8,66.7 c 0,0 551.7,-430.6 597.6,-643.4 45.9,-212.8 -459.5,-362.4 -459.5,-362.4 l -316.9,-90.4 -269.7,160.9 c 0,0 -289.2,389.7 -308,420.1 -18.8,30.5 0,155.3 0,155.3" /><g
         transform="scale(1.01136)"
         id="g126"><path
           id="path128"
           style="fill:#f5f6f5;fill-opacity:1;fill-rule:nonzero;stroke:none"
           d="m 16266.4,4918.05 c 0,0 -50,0.2 -70,-60.02 -20.1,-60.21 -28.1,-84.24 -52.1,-100.36 -24.2,-16.02 -241.9,0 -241.9,0 l -68.9,328.57 466.5,8.01 -13.8,-171.95 -19.8,-4.25" /></g><path
         id="path130"
         style="fill:#b36239;fill-opacity:1;fill-rule:nonzero;stroke:none"
         d="m 14559.7,12569.3 c 0,0 109.3,93.4 158,304.5 48.7,211.1 -56.8,629.2 -57.1,657.6 0,0 199.2,-231.4 138.3,-588.6 -60.9,-357.2 -239.2,-373.5 -239.2,-373.5" /><path
         id="path132"
         style="fill:#c37140;fill-opacity:1;fill-rule:nonzero;stroke:none"
         d="m 12775.3,14720.8 c 0,0 -152.7,-523.6 -170.8,-822 -18,-298.4 0,-773.3 0,-773.3 0,0 -34.5,-170.5 -8,-243.6 0,0 -83.1,-530.7 -34.3,-935.1 48.7,-404.5 208.1,-670.4 258,-836.9 49.9,-166.4 54.7,-328.7 227.1,-639.3 172.5,-310.6 532.7,-518.2 532.7,-518.2 0,0 271.9,302.2 322.9,786.7 59,560.9 -524.3,949.3 -524.3,949.3 0,0 48.2,657.7 23.9,980.4 -24.4,322.7 -67.6,474.9 -67.6,474.9 0,0 12.8,596.8 -66.4,937.8 -79.2,340.9 -131.9,602.8 -131.9,602.8 l -361.3,36.5" /><path
         id="path134"
         style="fill:#b36239;fill-opacity:1;fill-rule:nonzero;stroke:none"
         d="m 13093.9,11684.4 c 0,0 -364.6,56.4 -446.5,495.2 0,0 125.8,-328.8 446.5,-495.2" /><path
         id="path136"
         style="fill:#a45634;fill-opacity:1;fill-rule:nonzero;stroke:none"
         d="m 13601.4,10988.2 c 0,0 193.2,-160.2 305.7,-186.7 l -13.4,-132.9 c 0,0 -224.3,122.2 -292.3,319.6" /><path
         id="path138"
         style="fill:#b36139;fill-opacity:1;fill-rule:nonzero;stroke:none"
         d="m 13658.2,10702 c 0,0 -200,127.5 -278.1,465.2 -64.6,-174.1 -205.3,-226.8 -205.3,-226.8 190.4,254.7 199.6,662.8 199.6,662.8 34.1,-120.7 42.5,-220.7 35,-303.2 0,0 86.4,-415.3 248.8,-598" /><path
         id="path140"
         style="fill:#b36239;fill-opacity:1;fill-rule:nonzero;stroke:none"
         d="m 12769.2,13531.4 c 164.6,406 101.5,818 101.5,818 174.5,-535.9 -101.5,-818 -101.5,-818" /><path
         id="path142"
         style="fill:#c37140;fill-opacity:1;fill-rule:nonzero;stroke:none"
         d="m 12775.3,14720.8 c 0,0 10.1,174.6 0,300.4 -10.2,125.9 -91.4,446.6 -75.1,495.3 16.2,48.7 243.5,231.4 280.1,243.5 36.5,12.2 77.1,0 77.1,0 0,0 73.1,39.3 109.6,5.4 36.5,-33.8 129.9,-228.6 109.6,-346.4 -20.3,-117.7 -109.6,-531.7 -109.6,-531.7 l -23,-239.3 c 0,0 -268.2,0.3 -295.1,0 -26.9,-0.2 -73.6,72.8 -73.6,72.8" /><path
         id="path144"
         style="fill:#d0d0cb;fill-opacity:1;fill-rule:nonzero;stroke:none"
         d="m 13943.6,15930 946.8,-105.6 -19.8,-260.5 -946.8,105.6 19.8,260.5" /><path
         id="path146"
         style="fill:#a45634;fill-opacity:1;fill-rule:nonzero;stroke:none"
         d="m 12799.6,15472.8 c 0,0 42.7,67 112.7,140.1 70,73 145.1,147.1 145.1,147.1 l -36.6,5.4 c 0,0 -168.4,-127.1 -221.2,-292.6" /><path
         id="path148"
         style="fill:#a45634;fill-opacity:1;fill-rule:nonzero;stroke:none"
         d="m 12928.5,15427.2 c -6.1,-20 171.5,209 171.5,215.1 0,6.1 17.9,98.2 17.9,98.2 0,0 -137.6,-144.9 -189.4,-313.3" /><path
         id="path150"
         style="fill:#c37140;fill-opacity:1;fill-rule:nonzero;stroke:none"
         d="m 14325,16008.7 -82.4,73.1 h -64.7 c 0,0 -72.1,-60.9 -96.5,-73.1 -24.4,-12.2 -6.1,-279.5 0,-304.3 6.1,-24.8 18.1,-266.8 48.7,-304.6 30.6,-37.9 167.5,-48.8 167.5,-48.8 l 88.3,232.2 -60.9,425.5" /><path
         id="path152"
         style="fill:#d77e51;fill-opacity:1;fill-rule:nonzero;stroke:none"
         d="m 13293.4,13198.5 c 0,0 101.6,-456.4 81,-858.4 -20.6,-402 -39.5,-655.7 -39.5,-655.7 0,0 322.1,-264.5 481,-493.6 -151.1,307 -437.3,497.6 -437.3,497.6 0,0 48.2,657.7 23.9,980.4 -24.4,322.7 -67.6,474.9 -67.6,474.9 0,0 8.9,418.9 -34.7,755.3 v -0.1 l -6.8,-700.4" /><path
         id="path154"
         style="fill:#797a7b;fill-opacity:1;fill-rule:nonzero;stroke:none"
         d="m 15089.3,7820.6 -267.8,360.5 v -456.7 l 535.6,-204.2 -267.8,300.4" /><path
         id="path156"
         style="fill:#5b5f5f;fill-opacity:1;fill-rule:nonzero;stroke:none"
         d="m 13933.9,15876.6 c -282,278.8 -550.1,116.3 -550.1,116.3 l -0.1,-0.1 c -187.4,-69.8 -343.1,-309.9 -374.5,-607.6 -19.5,-184.7 12.5,-356.6 80.1,-485 14,-31.7 32.6,-61 56.5,-86.9 v 0 c 35.2,-43.9 75.9,-78.7 120.9,-102.6 231.8,-148.8 448.4,-38.7 448.4,-38.7 l 70.1,273.6 c 41.9,75 74.6,162.1 94.3,257.3 90.7,131 275.1,455.6 54.4,673.7" /><path
         id="path158"
         style="fill:#8d8d8d;fill-opacity:1;fill-rule:nonzero;stroke:none"
         d="m 14091.6,15280.4 c -39,-369 -268.9,-649.7 -513.5,-627 -244.6,22.8 -411.4,340.4 -372.5,709.4 39,369 268.8,649.7 513.5,626.9 244.6,-22.8 411.4,-340.3 372.5,-709.3" /><path
         id="path160"
         style="fill:#d0d0cb;fill-opacity:1;fill-rule:nonzero;stroke:none"
         d="m 13827.3,15318.8 c -5.6,-73.6 -57.2,-130.1 -115.2,-126.2 -58,3.9 -100.6,66.7 -95,140.3 5.6,73.6 57.2,130.1 115.2,126.2 58,-3.9 100.6,-66.8 95,-140.3" /><g
         transform="scale(1.01259)"
         id="g162"><path
           id="path164"
           style="fill:#4e4f51;fill-opacity:1;fill-rule:nonzero;stroke:none"
           d="m 14901.5,16030.8 c -272.3,269.2 -531.3,112.3 -531.3,112.3 l -0.1,-0.1 c -180.9,-67.4 -331.3,-299.2 -361.6,-586.6 -18.8,-178.4 12.1,-344.3 77.4,-468.3 13.5,-30.7 31.4,-58.9 54.5,-83.9 l 0.1,-0.1 c 33.9,-42.3 73.3,-75.9 116.8,-99 223.7,-143.7 432.8,-37.3 432.8,-37.3 l 67.7,264.2 c 40.4,72.3 72.1,156.5 91,248.4 87.6,126.5 265.6,439.8 52.7,650.4" /></g><g
         transform="scale(1.00401)"
         id="g166"><path
           id="path168"
           style="fill:#797a7b;fill-opacity:1;fill-rule:nonzero;stroke:none"
           d="m 15180.7,15587.1 c -37.9,-359.3 -261.7,-632.6 -500,-610.4 -238.2,22.1 -400.6,331.4 -362.6,690.7 37.8,359.3 261.7,632.6 499.9,610.4 238.2,-22.1 400.6,-331.4 362.7,-690.7" /></g><path
         id="path170"
         style="fill:#d0d0cb;fill-opacity:1;fill-rule:nonzero;stroke:none"
         d="m 14983.2,15687.2 c -5.4,-72 -55.8,-127.2 -112.6,-123.3 -56.7,3.8 -98.3,65.2 -92.9,137.1 5.5,71.9 55.9,127.2 112.7,123.4 56.7,-3.9 98.3,-65.3 92.8,-137.2" /><path
         id="path172"
         style="fill:#5b5f5f;fill-opacity:1;fill-rule:nonzero;stroke:none"
         d="m 8500.02,13291.9 c -73.28,303.1 -315.8,288.7 -315.8,288.7 l -0.08,-0.1 c -151.8,21 -351.48,-90.5 -492.48,-289.3 -87.51,-123.4 -135.81,-257 -143.14,-373.2 -3.58,-27.7 -3.21,-55.4 2.11,-82.7 h 0.01 c 5.46,-44.2 18.25,-84.2 38.29,-117.9 92.69,-192.2 279.99,-195.6 279.99,-195.6 l 156.79,167.3 c 57.95,37.3 114.69,86.7 166.17,146.6 112.77,58.7 365.46,219.2 308.14,456.2" /><path
         id="path174"
         style="fill:#8d8d8d;fill-opacity:1;fill-rule:nonzero;stroke:none"
         d="m 8362.98,12810.9 c -174.78,-246.4 -439.79,-358.7 -591.9,-250.8 -152.11,107.8 -133.73,395.1 41.06,641.5 174.78,246.5 439.79,358.8 591.9,250.9 152.11,-107.9 133.73,-395.1 -41.06,-641.6" /><path
         id="path176"
         style="fill:#d0d0cb;fill-opacity:1;fill-rule:nonzero;stroke:none"
         d="m 8204.26,12937.3 c -33.42,-50 -90.24,-70.6 -126.94,-46.1 -36.69,24.6 -39.35,85 -5.93,134.9 33.41,50 90.24,70.6 126.93,46.1 36.69,-24.6 39.35,-85 5.94,-134.9" /><path
         id="path178"
         style="fill:#ac5934;fill-opacity:1;fill-rule:nonzero;stroke:none"
         d="m 8327.72,13048.3 h 64.95 c 0,0 18.27,6.1 63.94,0 45.67,-6.1 51.75,-73 51.75,-73 0,0 42.63,20.3 79.16,0 36.54,-20.3 73.08,-89.3 62.93,-125.9 -10.15,-36.5 -64.95,-144.1 -170.5,-203 -105.55,-58.8 -174.55,-64.9 -174.55,-64.9 0,0 -146.15,81.2 -170.5,166.4 -24.36,85.3 -22.33,160.4 0,182.7 22.33,22.3 192.82,117.7 192.82,117.7" /><path
         id="path180"
         style="fill:#844129;fill-opacity:1;fill-rule:nonzero;stroke:none"
         d="m 8262.77,12758.1 c 16.24,20.3 146.14,172.5 245.59,217.2 0,0 -193.67,-204.1 -235.44,-274 -41.78,-70 -10.15,56.8 -10.15,56.8" /><path
         id="path182"
         style="fill:#c37140;fill-opacity:1;fill-rule:nonzero;stroke:none"
         d="m 7935.99,12506.6 c 0,0 51.75,110.4 70.02,156.1 18.27,45.7 27.4,188.7 42.62,255.7 15.23,67 170.5,127.9 216.17,146.2 45.67,18.2 88.29,36.5 115.69,24.3 27.41,-12.1 12.18,-36.5 -57.84,-88.3 -70.03,-51.7 -133.96,-140 -133.96,-140 0,0 76.11,-60.9 97.42,-127.9 l 170.5,-115.7 -63.94,-237.5 -188.76,-94.3 -267.92,60.9 v 160.5" /><path
         id="path184"
         style="fill:#5b5f5f;fill-opacity:1;fill-rule:nonzero;stroke:none"
         d="m 2256.62,10869.4 c -115.16,353.9 -402.43,314.4 -402.43,314.4 h -0.1 c -182.58,10.9 -409.93,-140.1 -559.4,-389.7 -92.77,-155 -137.92,-318.4 -135.93,-457.4 -1.71,-33.3 1.28,-66.2 10.14,-98.2 h 0.01 c 10.57,-52.2 29.47,-98.5 56.43,-136.8 128.03,-220.2 351.24,-206.9 351.24,-206.9 l 171.17,213.5 c 65.52,49.7 128.5,113.8 184.23,189.8 128.79,80.2 414.71,294.5 324.64,571.3" /><path
         id="path186"
         style="fill:#8d8d8d;fill-opacity:1;fill-rule:nonzero;stroke:none"
         d="m 2137.89,10284.4 c -185.29,-309.4 -490.3,-467.5 -681.26,-353.1 -190.97,114.3 -195.59,457.8 -10.3,767.2 185.28,309.4 490.29,467.6 681.25,353.2 190.97,-114.4 195.58,-457.9 10.31,-767.3" /><path
         id="path188"
         style="fill:#c37140;fill-opacity:1;fill-rule:nonzero;stroke:none"
         d="m 5987.46,12108.6 c 0,0 109.6,42.6 264.87,0 155.28,-42.7 222.26,-182.7 222.26,-182.7 l 453.64,-24.4 c 0,0 110.62,92.7 443.49,226 332.88,133.3 564.27,379.1 564.27,379.1 l 267.92,-221.4 c 0,0 -190.8,-215.2 -332.87,-383.7 -142.09,-168.4 -401.89,-460.7 -527.74,-562.2 -125.84,-101.5 -247.62,-121.8 -247.62,-121.8 l -280.1,-129.9 -661.69,369.4 -166.43,651.6" /><path
         id="path190"
         style="fill:#969797;fill-opacity:1;fill-rule:nonzero;stroke:none"
         d="m 8868.64,7760.9 c 24.36,-18.3 146.15,-176.6 127.87,-225.3 -18.26,-48.7 -354.29,-238.9 -468.86,-255.7 -114.57,-16.8 -298.37,88.3 -298.37,88.3 l -36.53,-228.4 c 0,0 227.15,-121.8 402.81,-73.1 175.66,48.8 498.38,207.8 562.32,341.4 63.93,133.6 -57.85,413.7 -57.85,413.7 l -231.39,-60.9" /><path
         id="path192"
         style="fill:#797a7b;fill-opacity:1;fill-rule:nonzero;stroke:none"
         d="m 6591.3,8181.1 v -456.7 l 1461.4,-557.2 1105.18,566.3 v 776.4 L 7705.62,9121.8 6591.3,8181.1" /><path
         id="path194"
         style="fill:#494a4b;fill-opacity:1;fill-rule:nonzero;stroke:none"
         d="m 8157.8,7646.4 1018.64,473.9 -862.64,840.2 c 0,0 -742.42,-197.9 -803.32,-269.5 -19.38,-22.7 -48.62,-17.3 -72.43,-11.8 -50.99,11.6 -77.01,23.3 72.43,-242.4 219.22,-389.7 647.32,-790.4 647.32,-790.4" /><path
         id="path196"
         style="fill:#c37140;fill-opacity:1;fill-rule:nonzero;stroke:none"
         d="m 9048.27,8007.5 502.36,-130.9 c 0,0 -310.55,-304.5 -298.37,-657.6 12.18,-353.2 70.02,-505.4 47.19,-870.8 -22.83,-365.3 -47.19,-359.2 -22.83,-365.3 24.35,-6.1 444.5,36.5 444.5,36.5 0,0 535.88,1303.1 614.98,1455.3 79.2,152.3 322.8,487.2 207.1,803.8 -115.7,316.6 -383.7,456.7 -438.5,499.3 -54.8,42.6 -287.11,356.9 -590.61,507.6 -303.49,150.6 -797.67,-422.3 -797.67,-501.5 0,-79.2 331.85,-776.4 331.85,-776.4" /><path
         id="path198"
         style="fill:#252323;fill-opacity:1;fill-rule:nonzero;stroke:none"
         d="m 9112.29,5985.7 c 0,0 -138.16,-533.5 -49.31,-613.3 88.87,-79.8 401.62,-37.8 536.71,-110.6 135.08,-72.9 751.61,-176.6 974.11,33 222.5,209.6 -610.51,612.2 -660.88,671.9 -50.38,59.7 -101.67,176.3 -140.58,232.5 -38.9,56.3 -189.46,75 -189.46,75 0,0 -71.85,123.8 -150.88,60.1 -79.04,-63.7 -319.71,-348.6 -319.71,-348.6" /><path
         id="path200"
         style="fill:#a45634;fill-opacity:1;fill-rule:nonzero;stroke:none"
         d="m 9960.18,7368.2 c 0,0 -179.22,-565.2 -456.69,-849.5 0,0 502.31,365.4 456.69,849.5" /><path
         id="path202"
         style="fill:#cda28a;fill-opacity:1;fill-rule:nonzero;stroke:none"
         d="m 9292.85,6748.8 c -13.3,141.9 -33.88,275.5 -40.59,470.2 -0.24,6.9 -0.35,13.8 -0.35,20.6 0,-6.8 0.11,-13.7 0.35,-20.6 6.71,-194.6 27.29,-328.2 40.59,-470.1 0,-0.1 0,-0.1 0,-0.1" /><path
         id="path204"
         style="fill:#906651;fill-opacity:1;fill-rule:nonzero;stroke:none"
         d="m 9157.88,7979 -109.61,28.5 v 0 0 l 109.61,-28.5 m -109.62,28.6 v 0 0 m -0.02,0 h -0.01 0.01 m -0.03,0.1 c -0.01,0 -0.01,0 -0.01,0 0,0 0,0 0.01,0 m -0.05,0.1 c -0.02,0 -0.03,0 -0.04,0.1 0.01,-0.1 0.02,-0.1 0.04,-0.1 m -0.05,0.1 c -0.02,0 -0.04,0.1 -0.06,0.1 0.02,0 0.04,-0.1 0.06,-0.1 m -0.09,0.2 v 0 0" /><path
         id="path206"
         style="fill:#b36239;fill-opacity:1;fill-rule:nonzero;stroke:none"
         d="m 9292.85,6748.9 c -13.3,141.9 -33.88,275.5 -40.59,470.1 -0.24,6.9 -0.35,13.8 -0.35,20.6 0.18,344.3 298.72,637 298.72,637 v 0 0 l -392.75,102.4 -109.61,28.5 v 0 c 0,0 0,0 -0.01,0.1 v 0 c -0.01,0 -0.01,0 -0.02,0 h -0.01 c -0.01,0 -0.02,0.1 -0.02,0.1 -0.01,0 -0.01,0 -0.01,0 -0.01,0 -0.03,0 -0.04,0.1 -0.02,0 -0.03,0 -0.04,0.1 -0.01,0 -0.01,0 -0.01,0 -0.02,0 -0.04,0.1 -0.06,0.1 -0.01,0 -0.02,0 -0.03,0.1 v 0 c -3.28,6.9 -37.77,79.5 -83.37,177.9 l 84.81,-17.1 683.84,-261.8 -88.19,-67 c 0,0 -246.71,-274 -295.42,-548.1 -48.08,-270.3 -56.62,-536.1 -56.84,-543.1" /><path
         id="path208"
         style="fill:#f5f6f5;fill-opacity:1;fill-rule:nonzero;stroke:none"
         d="m 9584.85,6261.2 c 0,0 -58.58,-4.3 -70.76,-40.8 -12.18,-36.6 -31.23,-109.8 -48.09,-146.2 -16.86,-36.5 -193.1,-23.6 -193.1,-23.6 l 31.08,401 581.11,-35.4 -108.62,-244.3 c 0,0 -55.9,61 -191.62,89.3" /><path
         id="path210"
         style="fill:#494a4b;fill-opacity:1;fill-rule:nonzero;stroke:none"
         d="m 5623.13,9167.5 -319.69,-1479.7 -1728.3,-939 c 0,0 -34.51,-193.5 157.3,-230.1 l 1890.69,849.5 3279,-1552.8 c 0,0 -360.22,-148.8 -511.49,-502.3 -151.26,-353.6 -27.4,-1160 -27.4,-1160 0,0 255.74,-146.1 255.74,-109.6 0,36.5 -63.93,876.8 45.68,1132.6 109.6,255.7 727.84,703.3 980.45,666.7 252.6,-36.5 389.59,-730.7 389.59,-730.7 0,0 137,-118.7 283.2,36.6 0,0 -219.2,739.8 -420.19,895.1 -200.94,155.3 -739.83,-61.5 -739.83,-61.5 L 8281.92,7284.7 8157.8,6911.5 8609.85,6272.1 6006.74,7514.3 7385.93,7770 c 0,0 -445.93,80.3 -529.75,118.8 -83.83,38.5 -1124.49,-182.7 -1124.49,-182.7 0,0 -81.17,54.8 -90.3,82.2 -9.13,27.4 292.28,1269.6 292.28,1269.6 l -310.54,109.6" /><path
         id="path212"
         style="fill:#797a7b;fill-opacity:1;fill-rule:nonzero;stroke:none"
         d="m 4240.88,10799.4 2189.55,-2910.6 792.07,438.4 -1640.48,2553 -694.34,480.3 -646.8,-561.1" /><path
         id="path214"
         style="fill:#494a4b;fill-opacity:1;fill-rule:nonzero;stroke:none"
         d="M 4502.72,11026.5 6591.3,8181.1 7084.25,9258.8 5663.44,11143 l -871.76,107 -288.96,-223.5" /><path
         id="path216"
         style="fill:#c37140;fill-opacity:1;fill-rule:nonzero;stroke:none"
         d="m 7258.06,7404.7 c 0,0 130.92,-167.5 307.5,-331.9 176.59,-164.4 207.03,-213.1 200.94,-286.1 -6.08,-73.1 -306.79,-359.3 -253.86,-736.8 52.92,-377.6 308.67,-943.9 326.94,-1114.4 18.26,-170.5 18.26,-170.5 18.26,-170.5 h 365.35 c 0,0 79.16,925.6 91.34,1284.9 12.18,359.2 54.8,511.5 54.8,511.5 0,0 91.34,207 66.98,541.9 -24.35,334.9 -255.74,858.6 -255.74,858.6 0,0 -767.24,103.5 -815.95,45.6 -48.71,-57.8 -127.87,-76.1 -140.05,-161.3 -12.18,-85.3 33.49,-441.5 33.49,-441.5" /><path
         id="path218"
         style="fill:#252323;fill-opacity:1;fill-rule:nonzero;stroke:none"
         d="m 7833.62,4760.1 -52.17,-124.3 c 0,0 -32.12,-648.9 -9.23,-722.3 22.88,-73.4 249.61,-322.8 460.87,-391.4 211.25,-68.6 612.76,51 630,171.8 17.23,120.8 -399.03,725.8 -446.21,842.8 -47.2,116.9 -21.99,380.7 -75.18,420 -53.2,39.2 -120.79,17.2 -120.79,17.2 l -403.12,86.9 15.83,-300.7" /><path
         id="path220"
         style="fill:#a45634;fill-opacity:1;fill-rule:nonzero;stroke:none"
         d="m 7888.29,6395.1 c 0,0 69.04,-424.4 -56.82,-945 0,0 349.1,456 56.82,945" /><path
         id="path222"
         style="fill:#252323;fill-opacity:1;fill-rule:nonzero;stroke:none"
         d="m 6238.13,9057.9 c 0,0 79.16,-447.5 353.17,-876.8 274.01,-429.3 666.76,-776.4 666.76,-776.4 0,0 109.61,246.6 411.02,383.6 301.41,137 511.49,173.6 511.49,173.6 l -164.41,365.3 c 0,0 127.87,63.9 164.41,36.5 36.53,-27.4 630.23,-283.1 867.7,-356.2 0,0 -9.13,502.4 73.07,739.9 82.2,237.4 392.75,538 392.75,538 0,0 -450.59,262.5 -1010.79,388.9 -560.21,126.5 -876.84,242.2 -876.84,242.2 0,0 -986.45,-42.6 -1120.41,-103.5 -133.96,-60.9 -334.9,-310.6 -334.9,-310.6 l 66.98,-444.5" /><path
         id="path224"
         style="fill:#100f0d;fill-opacity:1;fill-rule:nonzero;stroke:none"
         d="m 7266.14,9161.4 c 0,0 238.53,-200.9 360.32,-286.2 121.78,-85.2 389.7,-548 389.7,-548 l 164.41,36.5 c 0,0 584.56,-298.3 867.7,-356.2 l 1.19,161.4 c 0,0 -783.64,292.3 -899.34,359.3 -115.69,66.9 -371.44,347 -383.62,401.8 -12.17,54.8 -18.26,444.5 -18.26,444.5 0,0 -127.87,-255.7 -146.14,-255.7 -18.27,0 -335.96,42.6 -335.96,42.6" /><path
         id="path226"
         style="fill:#f5f6f5;fill-opacity:1;fill-rule:nonzero;stroke:none"
         d="m 8220.91,4973.9 c 0,0 -50.49,0.2 -70.79,-60.7 -20.3,-60.9 -28.41,-85.2 -52.77,-101.5 -24.36,-16.2 -244.51,0 -244.51,0 l -69.77,332.3 471.81,8.1 -13.97,-173.9 -20,-4.3" /><path
         id="path228"
         style="fill:#797a7b;fill-opacity:1;fill-rule:nonzero;stroke:none"
         d="m 6859.09,7820.6 -267.79,360.5 v -456.7 l 535.57,-204.2 -267.78,300.4" /><path
         id="path230"
         style="fill:#c37140;fill-opacity:1;fill-rule:nonzero;stroke:none"
         d="m 4787.89,10361 -164.4,113.7 c 0,0 -150.2,-268 -349.11,-393.8 -198.92,-125.9 -499.31,-284.2 -556.15,-312.6 -56.83,-28.4 -129.9,-101.5 -312.58,-93.4 -182.67,8.2 -369.41,182.7 -369.41,182.7 l 170.5,483.1 93.37,20.3 c 0,0 64.95,154 259.8,292.2 194.86,138.1 235.45,167.5 235.45,167.5 0,0 77.13,281.7 316.64,479.3 239.5,197.6 395.79,199.7 395.79,199.7 0,0 310.55,-34.5 375.5,-168.5 64.95,-134 174.55,-343 174.55,-343 0,0 -20.29,-322.8 -40.59,-448.6 -20.3,-125.8 -20.3,-125.8 -20.3,-125.8 l -209.06,-52.8" /><path
         id="path232"
         style="fill:#e9eef1;fill-opacity:1;fill-rule:nonzero;stroke:none"
         d="m 4720.98,11594.1 -213.19,-94.4 c 0,0 249.66,-164.4 322.73,-517.6 73.07,-353.2 -42.63,-621.1 -42.63,-621.1 0,0 453.15,-347.1 731.98,-535.9 278.82,-188.7 723.33,-767.2 723.33,-767.2 0,0 103.51,298.4 560.2,438.4 456.69,140.1 828.13,420.2 828.13,420.2 0,0 -249.65,243.5 -340.99,383.6 -91.34,140 -414.07,849.2 -426.25,844.8 -12.18,-4.5 -18.26,269.5 -42.62,312.1 -24.36,42.7 -200.94,286.2 -420.15,426.3 -59.84,38.2 -414.06,225.3 -414.06,225.3 L 5756.1,12090 4720.98,11594.1" /><path
         id="path234"
         style="fill:#c37140;fill-opacity:1;fill-rule:nonzero;stroke:none"
         d="m 4629.13,12339.4 c 0,0 128.32,-200.4 164.85,-389.1 36.54,-188.8 52.91,-233.5 -73,-356.2 0,0 138.31,-69.2 388.8,-233.6 250.49,-164.4 435.13,-226.5 731.53,-175.3 176.59,30.4 334.91,175.3 334.91,312.8 0,190.8 -420.12,592 -420.12,592 0,0 -121.81,-11.9 -158.35,-18 -36.53,-6.1 -119.54,153.1 -119.54,153.1 l -528.58,492.4 c 0,0 -259.17,48.7 -283.52,24.4 -24.36,-24.4 -17.46,-73.7 -66.58,-88.6 -49.11,-15 -132.98,-121.3 -120.31,-130.3 12.67,-9 149.91,-183.6 149.91,-183.6" /><path
         id="path236"
         style="fill:#c7cdd0;fill-opacity:1;fill-rule:nonzero;stroke:none"
         d="m 4997.97,10884.7 c 0,0 325.77,-127.9 551.07,-103.6 225.3,24.4 627.18,207.1 627.18,207.1 0,0 -261.84,-328.8 -639.36,-334.9 -377.53,-6.1 -538.89,231.4 -538.89,231.4" /><path
         id="path238"
         style="fill:#c7cdd0;fill-opacity:1;fill-rule:nonzero;stroke:none"
         d="m 6821.67,11457 c 0,0 -39.58,-121.7 -124.83,-176.6 -85.24,-54.8 -286.19,-129.5 -258.79,-135.5 27.4,-6.1 316.89,-3.2 412.67,99.6 0,0 5.11,136.4 -29.05,212.5" /><path
         id="path240"
         style="fill:#a45634;fill-opacity:1;fill-rule:nonzero;stroke:none"
         d="m 4741.35,10587 c -4.2,13.5 -142.22,131.2 -142.22,131.2 l -251.68,-135 c 0,0 219.21,33.5 235.44,25.4 16.24,-8.1 40.6,-133.9 40.6,-133.9 l 164.4,-113.7 c 0,0 -131.93,142.1 -127.87,178.6 4.06,36.5 81.33,47.4 81.33,47.4" /><path
         id="path242"
         style="fill:#a45634;fill-opacity:1;fill-rule:nonzero;stroke:none"
         d="m 4595.07,10953.7 c 0,0 182.96,-33.4 251.82,-73.5 l -16.37,101.9 c 0,0 -142.08,56.8 -235.45,-28.4" /><path
         id="path244"
         style="fill:#a45634;fill-opacity:1;fill-rule:nonzero;stroke:none"
         d="m 3795.36,10820.7 c 0,0 138.02,-5.9 227.33,59.5 0,0 -133.54,-8.6 -206.82,0 l -20.51,-59.5" /><g
         id="g246"><g
           clip-path="url(#clipPath252)"
           id="g248"><path
             id="path254"
             style="fill:#b36239;fill-opacity:1;fill-rule:nonzero;stroke:none"
             d="m 3648.35,10129.6 h 463.648 v 507.441 H 3648.35 Z" /></g></g><path
         id="path256"
         style="fill:#a45634;fill-opacity:1;fill-rule:nonzero;stroke:none"
         d="m 3178.64,10261.1 c 0,0 239.19,-54.4 401.57,-212.7 0,0 -85.25,170.5 -373.47,292.3 l -28.1,-79.6" /><path
         id="path258"
         style="fill:#b36239;fill-opacity:1;fill-rule:nonzero;stroke:none"
         d="m 6812.91,11585.9 c -25.65,0 -41.98,1 -41.98,1 0,0 227.33,4.1 276.04,117.8 48.71,113.6 -118.74,196.8 -118.74,196.8 0,0 8.22,1.1 21.28,1.1 48.73,0 164.99,-15.1 174.59,-158.4 9.6,-143.2 -215.53,-158.3 -311.19,-158.3" /><path
         id="path260"
         style="fill:#a45634;fill-opacity:1;fill-rule:nonzero;stroke:none"
         d="m 7270.24,11499.7 c -5.48,-29.7 211.09,351.1 462.77,489.1 0,0 -389.7,-93.4 -462.77,-489.1" /><path
         id="path262"
         style="fill:#d0d0cb;fill-opacity:1;fill-rule:nonzero;stroke:none"
         d="m 1892.07,10463.4 c -35.16,-62.5 -100.89,-92.3 -146.82,-66.5 -45.92,25.9 -54.65,97.5 -19.5,160 35.16,62.6 100.89,92.3 146.81,66.5 45.93,-25.8 54.66,-97.4 19.51,-160" /><path
         id="path264"
         style="fill:#ac5934;fill-opacity:1;fill-rule:nonzero;stroke:none"
         d="m 2200,10510.2 c 0,0 17.81,46.2 73.86,29.7 56.04,-16.5 92.58,-95.7 123.02,-109.9 30.45,-14.2 101.49,-85.2 103.52,-89.3 2.03,-4.1 0,-83.2 0,-83.2 l -129.9,-62.9 c 0,0 -97.43,-48.8 -140.05,0 -42.63,48.7 -116.12,140 -120.98,178.6 -4.87,38.5 90.53,137 90.53,137" /><path
         id="path266"
         style="fill:#a45634;fill-opacity:1;fill-rule:nonzero;stroke:none"
         d="m 5326.41,12318.1 32.8,188.5 119,-281.5 c 0,0 -116.94,-110.7 -397.95,-65.4 -201.33,32.5 -338.91,231.1 -338.91,231.1 l 585.06,-72.7" /><path
         id="path268"
         style="fill:#2f1d16;fill-opacity:1;fill-rule:nonzero;stroke:none"
         d="m 5149.25,13376.9 c 0,0 -0.85,8.2 -3.83,22.1 -7.82,42.7 -27.3,135.9 -55.1,180.8 -36.71,59.3 -109.43,62.1 -155.3,101.4 -45.86,39.3 -135.53,17.2 -175.06,14.4 -39.53,-2.9 -124.23,0 -169.41,-14.4 -45.17,-14.3 -98.82,-30.8 -112.62,-44.9 -13.79,-14.1 -96.32,-36.7 -121.84,-50.9 -25.51,-14.1 -62.01,-62.1 -78.95,-79 -16.94,-17 -33.88,-28.2 -62.12,-50.8 -28.23,-22.6 -19.76,-70.6 -25.41,-101.7 -5.65,-31 -11.29,-16.9 -42.35,-62.1 -31.06,-45.2 -5.65,-127 -5.65,-127 0,0 -42.35,-62.2 -42.35,-79.1 0,-16.9 0,0 -14.12,-87.5 -14.11,-87.6 48.56,-117.6 39.53,-167.7 -9.03,-50.1 48,-75.2 53.65,-81.8 5.64,-6.7 28.23,-52.7 50.82,-106.3 20.51,-48.7 92.89,-83.3 160.58,-145.3 6.94,-6.9 13.77,-13.5 20.35,-19.7 72.86,-74.9 219.06,-138 219.06,-138 0,0 12.25,254 46.13,338.8 33.88,84.7 276.7,300.2 274.37,343.6 -2.33,43.5 199.62,355.1 199.62,355.1" /><path
         id="path270"
         style="fill:#c37140;fill-opacity:1;fill-rule:nonzero;stroke:none"
         d="m 5071.93,13418.2 c 0,0 59.78,-27.5 77.32,-41.3 17.54,-13.9 109.89,-174.6 134.4,-214.7 24.52,-40.1 43.41,-101.9 53.98,-122 10.57,-20.1 78.08,-141.8 98.09,-192.8 20.01,-51 65.13,-266.5 73.81,-325.2 8.67,-58.7 17.77,-137.7 0.73,-163.7 -17.04,-26.1 -119.95,-87.1 -228.43,-108.3 -108.48,-21.3 -357.35,6.7 -441.4,46.2 -84.04,39.5 -149.22,179.5 -149.22,179.5 0,0 -33.17,-31.1 -94.46,-12.1 -61.29,19 -171.33,72.1 -208.68,175.6 -37.35,103.4 54.57,107.3 112.48,88.2 57.91,-19 90.25,-77.2 98.98,-74.3 8.74,2.9 15.36,9.8 18.67,13.2 3.31,3.5 -30.1,112.4 -39.33,133.1 -9.23,20.8 -76.66,139.2 -76.1,144.6 0.56,5.4 36.84,178.3 62.62,207.3 25.78,28.9 506.54,266.7 506.54,266.7" /><path
         id="path272"
         style="fill:#d0d0cb;fill-opacity:1;fill-rule:nonzero;stroke:none"
         d="m 1745.25,10396.9 1038.6,-623.6 128.47,206.3 -1039.76,643.8 -127.31,-226.5" /><path
         id="path274"
         style="fill:#c37140;fill-opacity:1;fill-rule:nonzero;stroke:none"
         d="m 2212.18,9894.6 c -11.84,7.3 -70.03,24.9 -94.38,61.5 0,0 -99.07,26 -121.78,73 -22.71,47 -8.89,36.2 -22.71,47 -13.83,10.9 -88.73,58.8 -96.03,102.2 -7.3,43.4 54.8,271 76.11,292.3 21.31,21.3 214.13,59.5 246.61,39.6 32.48,-19.9 12.18,-75.9 12.18,-75.9 0,0 75.1,20.1 91.34,-4.3 16.24,-24.4 0,-52.8 0,-52.8 0,0 77.12,22.4 95.4,-48.7 18.26,-71 -2.04,-166.4 -28.42,-200.9 -26.39,-34.5 -158.32,-233 -158.32,-233" /><path
         id="path276"
         style="fill:#a45634;fill-opacity:1;fill-rule:nonzero;stroke:none"
         d="m 2120.84,10084.9 c -2.03,8.2 6.41,121.8 20.46,136 14.05,14.2 162.22,156.3 162.22,156.3 0,0 18.27,22.4 0,52.8 0,0 -158.92,-131.9 -182.98,-184.7 -24.06,-52.8 0.3,-160.4 0.3,-160.4" /><path
         id="path278"
         style="fill:#a45634;fill-opacity:1;fill-rule:nonzero;stroke:none"
         d="m 2005.15,10237.2 c 0,10.1 26.38,105.5 52.77,123.8 26.39,18.3 154.26,73.3 154.26,73.3 l 6.25,36.3 c 0,0 -125.58,-27.3 -180.81,-83.2 -55.22,-56 -32.47,-150.2 -32.47,-150.2" /><path
         id="path280"
         style="fill:#5b5f5f;fill-opacity:1;fill-rule:nonzero;stroke:none"
         d="m 3278.33,10260.2 c -115.16,353.9 -402.43,314.4 -402.43,314.4 l -0.1,-0.1 c -182.57,10.9 -409.94,-140.1 -559.4,-389.7 -92.77,-154.9 -137.92,-318.4 -135.93,-457.3 -1.71,-33.3 1.28,-66.2 10.14,-98.2 l 0.01,-0.1 c 10.57,-52.1 29.47,-98.4 56.43,-136.7 128.03,-220.3 351.24,-207 351.24,-207 l 171.17,213.6 c 65.52,49.7 128.49,113.7 184.23,189.8 128.79,80.2 414.71,294.5 324.64,571.3" /><path
         id="path282"
         style="fill:#8d8d8d;fill-opacity:1;fill-rule:nonzero;stroke:none"
         d="M 3159.59,9675.2 C 2974.32,9365.8 2669.3,9207.7 2478.33,9322 c -190.96,114.4 -195.58,457.9 -10.29,767.3 185.28,309.4 490.29,467.5 681.26,353.2 190.96,-114.4 195.57,-457.9 10.29,-767.3" /><path
         id="path284"
         style="fill:#d0d0cb;fill-opacity:1;fill-rule:nonzero;stroke:none"
         d="m 2959.06,9810.9 c -35.16,-62.6 -100.89,-92.3 -146.81,-66.5 -45.93,25.8 -54.67,97.4 -19.51,160 35.16,62.5 100.88,92.3 146.81,66.4 45.93,-25.8 54.66,-97.4 19.51,-159.9" /><path
         id="path286"
         style="fill:#5b5f5f;fill-opacity:1;fill-rule:nonzero;stroke:none"
         d="m 9223.27,12747.1 c -73.28,303.1 -315.79,288.7 -315.79,288.7 l -0.09,-0.1 c -151.79,21 -351.48,-90.5 -492.48,-289.3 -87.52,-123.4 -135.81,-257 -143.14,-373.2 -3.59,-27.7 -3.22,-55.4 2.11,-82.7 h 0.01 c 5.46,-44.2 18.24,-84.2 38.28,-117.9 92.69,-192.3 280,-195.6 280,-195.6 l 156.79,167.3 c 57.94,37.3 114.69,86.7 166.17,146.6 112.77,58.7 365.47,219.2 308.14,456.2" /><path
         id="path288"
         style="fill:#8d8d8d;fill-opacity:1;fill-rule:nonzero;stroke:none"
         d="m 9086.23,12266.2 c -174.78,-246.5 -439.78,-358.8 -591.9,-250.9 -152.11,107.8 -133.73,395.1 41.06,641.5 174.78,246.5 439.79,358.8 591.9,250.9 152.11,-107.9 133.73,-395.1 -41.06,-641.5" /><path
         id="path290"
         style="fill:#d0d0cb;fill-opacity:1;fill-rule:nonzero;stroke:none"
         d="m 8927.51,12392.5 c -33.41,-50 -90.24,-70.6 -126.93,-46.1 -36.7,24.6 -39.35,85 -5.94,134.9 33.41,50 90.24,70.6 126.93,46.1 36.69,-24.6 39.35,-85 5.94,-134.9" /></g></g></svg>