<?xml version="1.0" encoding="UTF-8" standalone="no"?>
<svg
   xmlns:dc="http://purl.org/dc/elements/1.1/"
   xmlns:cc="http://creativecommons.org/ns#"
   xmlns:rdf="http://www.w3.org/1999/02/22-rdf-syntax-ns#"
   xmlns:svg="http://www.w3.org/2000/svg"
   xmlns="http://www.w3.org/2000/svg"
   viewBox="0 0 2666.6667 2666.6667"
   height="2666.6667"
   width="2666.6667"
   xml:space="preserve"
   id="svg2"
   version="1.1"><metadata
     id="metadata8"><rdf:RDF><cc:Work
         rdf:about=""><dc:format>image/svg+xml</dc:format><dc:type
           rdf:resource="http://purl.org/dc/dcmitype/StillImage" /></cc:Work></rdf:RDF></metadata><defs
     id="defs6" /><g
     transform="matrix(1.3333333,0,0,-1.3333333,0,2666.6667)"
     id="g10"><g
       transform="scale(0.1)"
       id="g12"><g
         transform="scale(1.22699)"
         id="g14"><path
           id="path16"
           style="fill:none;fill-opacity:1;fill-rule:nonzero;stroke:none"
           d="M 16300,0 H 0 V 16300 H 16300 V 0" /></g><path
         id="path18"
         style="fill:#252323;fill-opacity:1;fill-rule:nonzero;stroke:none"
         d="m 15459.7,15411.4 h -450.5 v 171.5 h 450.5 v -171.5" /><g
         transform="scale(1.00963)"
         id="g20"><path
           id="path22"
           style="fill:#797a7b;fill-opacity:1;fill-rule:nonzero;stroke:none"
           d="m 15240.1,15434.3 h -331.7 v 865.7 h 331.7 v -865.7" /></g><path
         id="path24"
         style="fill:#fbc398;fill-opacity:1;fill-rule:nonzero;stroke:none"
         d="m 15043.3,11599.3 c 10.9,11.1 272.2,51 350.3,47.4 78,-3.6 167.6,-420 164.1,-505.6 -3.5,-85.7 23.1,-278.1 -34.6,-375.5 -57.7,-97.3 113.7,-157.2 -142.2,-173.5 -256,-16.3 -559.5,-1.4 -565.7,173.5 -6.1,175 228.1,833.7 228.1,833.7" /><g
         transform="scale(1.01845)"
         id="g26"><path
           id="path28"
           style="fill:#fbc398;fill-opacity:1;fill-rule:nonzero;stroke:none"
           d="m 15900.8,12064.4 -143.2,-568.1 c 0,0 -67.2,-1165.6 -67.2,-1192.3 0,-26.7 214.6,-128.3 307.8,-69.5 93.2,58.8 121.7,235.2 121.7,235.2 0,0 137.3,315.5 158.7,609.6 21.4,294.1 -30.3,985.1 -30.3,985.1 0,0 -124.7,114.9 -151.4,115.6 -26.9,0.7 -196.1,-115.6 -196.1,-115.6" /></g><path
         id="path30"
         style="fill:#100f0d;fill-opacity:1;fill-rule:nonzero;stroke:none"
         d="m 15523.1,10292.6 c 0,0 57.4,-135.2 206.3,-151.1 148.8,-15.9 294.1,16.8 323.1,122 29,105.3 25.4,1641 14.5,1724.5 -10.9,83.5 -68.1,186 -147,218.7 -79,32.7 -317.2,38.1 -317.2,38.1 l -79.7,-1952.2" /><path
         id="path32"
         style="fill:#252323;fill-opacity:1;fill-rule:nonzero;stroke:none"
         d="m 15767.5,12035.2 c -7.3,80.6 -27.6,148.8 -51.3,204 -62.5,4.4 -113.4,5.6 -113.4,5.6 l -79.7,-1952.2 c 0,0 57.5,-135.2 206.3,-151.1 13.1,-1.4 26.3,-2.4 39.3,-3 4.2,378.2 17.4,1691.9 -1.2,1896.7" /><path
         id="path34"
         style="fill:#100f0d;fill-opacity:1;fill-rule:nonzero;stroke:none"
         d="m 16072.1,13099.5 c -0.2,24.6 -20.3,44.4 -44.9,44.2 l -718.6,-6.2 c -24.6,-0.2 -44.4,-20.3 -44.2,-44.9 l 0.6,-74.2 c 0.3,-24.6 20.4,-44.4 45,-44.2 l 718.6,6.1 c 24.6,0.2 44.4,20.3 44.2,45 l -0.7,74.2" /><g
         transform="scale(1.04721)"
         id="g36"><path
           id="path38"
           style="fill:#abaaa9;fill-opacity:1;fill-rule:nonzero;stroke:none"
           d="m 12787.2,14662 h -670.5 v 1638 h 670.5 v -1638" /></g><g
         transform="scale(1.04237)"
         id="g40"><path
           id="path42"
           style="fill:#abaaa9;fill-opacity:1;fill-rule:nonzero;stroke:none"
           d="m 10929.5,15145.5 c 0,0 -0.9,363.9 68.7,628.6 69.7,264.7 247.3,525.9 424.9,525.9 0,0 -198.5,-1006.5 -219.4,-1044.8 -20.9,-38.4 -181.1,-191.6 -181.1,-191.6 l -93.1,81.9" /></g><path
         id="path44"
         style="fill:#abaaa9;fill-opacity:1;fill-rule:nonzero;stroke:none"
         d="m 13420.8,4879.7 c 76.4,-16.3 511.6,-157.9 511.6,-157.9 l -123.2,288.6 -130.3,32.7 -2.3,348.5 -255.8,255.9 v -767.8" /><g
         transform="scale(1.01647)"
         id="g46"><path
           id="path48"
           style="fill:#5e6061;fill-opacity:1;fill-rule:nonzero;stroke:none"
           d="m 14728.2,4574.15 1571.8,167.54 c 0,0 -42.9,-321.4 -64.3,-321.4 -21.5,0 -1044.7,-112.55 -1044.7,-112.55 l -462.8,266.41" /></g><path
         id="path50"
         style="fill:#797a7b;fill-opacity:1;fill-rule:nonzero;stroke:none"
         d="m 13962.8,3529.2 -153.6,29.1 -7.9,-61.3 232.3,-123 c 0,0 81.7,95.3 78.9,109 -2.7,13.6 -149.7,46.2 -149.7,46.2" /><path
         id="path52"
         style="fill:#c9c8c6;fill-opacity:1;fill-rule:nonzero;stroke:none"
         d="m 15156.2,4915.1 286.8,30 172.5,-375.8 c 0,0 -216,-136.1 -255.9,-190.6 -40,-54.4 -279.6,-10.8 -288.7,47.2 -9,58.1 85.3,489.2 85.3,489.2" /><path
         id="path54"
         style="fill:#100f0d;fill-opacity:1;fill-rule:nonzero;stroke:none"
         d="m 12253.8,7281.2 h -92.1 v 7411.4 h 92.1 V 7281.2" /><path
         id="path56"
         style="fill:#100f0d;fill-opacity:1;fill-rule:nonzero;stroke:none"
         d="m 12734.8,7123.3 h -92 v 7569.3 h 92 V 7123.3" /><g
         transform="scale(1.04237)"
         id="g58"><path
           id="path60"
           style="fill:#797a7b;fill-opacity:1;fill-rule:nonzero;stroke:none"
           d="m 11297.8,4444.6 v -82.7 l -188.1,-5.76 -62.7,10789.36 c 0,0 26.1,961.2 376.1,1154.5 h 794.1 v -1201.6 l -585.1,-1180.6 V 4604.62 l -334.3,-160.02" /></g><path
         id="path62"
         style="fill:#100f0d;fill-opacity:1;fill-rule:nonzero;stroke:none"
         d="m 11865.8,7158.3 -193.3,171.9 533.6,54.5 621.4,-226.4 0.7,-263.7 h -703.7 l -258.7,263.7" /><path
         id="path64"
         style="fill:#100f0d;fill-opacity:1;fill-rule:nonzero;stroke:none"
         d="m 11933.9,9475.8 -98.1,76.2 468.4,43.6 517.4,-119.8 v -141.6 l -887.7,141.6" /><path
         id="path66"
         style="fill:#252323;fill-opacity:1;fill-rule:nonzero;stroke:none"
         d="m 11672.5,8517.3 v 914.9 l 1149.1,-281.8 6.6,-933.2 -1155.7,300.1" /><path
         id="path68"
         style="fill:#252323;fill-opacity:1;fill-rule:nonzero;stroke:none"
         d="m 11835.8,9219.8 c -5.4,16.4 0,332.2 0,332.2 l 985.8,-217.8 v -849.9 l -985.8,735.5" /><path
         id="path70"
         style="fill:#535456;fill-opacity:1;fill-rule:nonzero;stroke:none"
         d="m 11653.9,4980.5 471,122.5 917.6,-283.2 -57.2,-414.7 c 0,0 -247.2,12.7 -575.9,0 -328.6,-12.7 -755.5,575.4 -755.5,575.4" /><path
         id="path72"
         style="fill:#797a7b;fill-opacity:1;fill-rule:nonzero;stroke:none"
         d="m 14526.4,3662.7 112.5,-156.6 c 0,0 218.2,-123.9 395.9,39.5 177.7,163.3 580.7,1023.7 580.7,1023.7 l -277.7,-46.2 -811.4,-860.4" /><path
         id="path74"
         style="fill:#797a7b;fill-opacity:1;fill-rule:nonzero;stroke:none"
         d="m 13872.8,4184.8 -63.6,825.6 h 478.2 c 0,0 190,-692 195.4,-759.9 5.5,-67.8 130,-126.6 -38.8,-171.3 -168.8,-44.6 -571.2,105.6 -571.2,105.6" /><path
         id="path76"
         style="fill:#c9c8c6;fill-opacity:1;fill-rule:nonzero;stroke:none"
         d="m 13809.2,3558.3 613.7,61.7 103.5,-89.8 -143.4,-95.3 -349.4,-60.9 -8.2,70.8 -216.2,113.5" /><path
         id="path78"
         style="fill:#abaaa9;fill-opacity:1;fill-rule:nonzero;stroke:none"
         d="m 13165,3942.9 -1511.1,626.4 v 411.2 l 1511.1,-580 v -457.6" /><path
         id="path80"
         style="fill:#abaaa9;fill-opacity:1;fill-rule:nonzero;stroke:none"
         d="m 11866.3,4569.3 -280.5,-70.8 -147,70.8 -46.3,11217.8 h 122.5 l 65.4,-11246.4 285.9,28.6" /><path
         id="path82"
         style="fill:#252323;fill-opacity:1;fill-rule:nonzero;stroke:none"
         d="m 12834.7,4649.5 -1150.9,453.5 -10.9,2227.2 1155.7,-435.6 6.1,-2245.1" /><path
         id="path84"
         style="fill:#252323;fill-opacity:1;fill-rule:nonzero;stroke:none"
         d="m 11522.6,14485.6 1285.9,-98 -2.9,1067.3 H 11515 l 7.6,-969.3" /><path
         id="path86"
         style="fill:#abaaa9;fill-opacity:1;fill-rule:nonzero;stroke:none"
         d="m 11438.8,15614.7 c 7.2,10.9 76.2,172.4 76.2,172.4 h 1470.3 v -332.2 H 11515 l -76.2,159.8" /><g
         transform="scale(1.04721)"
         id="g88"><path
           id="path90"
           style="fill:#797a7b;fill-opacity:1;fill-rule:nonzero;stroke:none"
           d="m 12787.2,14662 h 540.9 v 1638 h -540.9 v -1638" /></g><g
         transform="scale(1.02015)"
         id="g92"><path
           id="path94"
           style="fill:#bebdbb;fill-opacity:1;fill-rule:nonzero;stroke:none"
           d="m 16195.8,16091.8 h -4411.9 v 208.2 h 4411.9 v -208.2" /></g><g
         transform="scale(1.00712)"
         id="g96"><path
           id="path98"
           style="fill:#58595b;fill-opacity:1;fill-rule:nonzero;stroke:none"
           d="m 12439.3,15675.5 h -363.6 v 624.5 h 363.6 v -624.5" /></g><g
         transform="scale(1.00712)"
         id="g100"><path
           id="path102"
           style="fill:#48484a;fill-opacity:1;fill-rule:nonzero;stroke:none"
           d="m 13266.5,15675.5 h -849.2 v 624.5 h 849.2 v -624.5" /></g><path
         id="path104"
         style="fill:#252323;fill-opacity:1;fill-rule:nonzero;stroke:none"
         d="m 12915.9,16175.8 c 0,-41 -33.2,-74.2 -74.2,-74.2 -41,0 -74.2,33.2 -74.2,74.2 0,41 33.2,74.2 74.2,74.2 41,0 74.2,-33.2 74.2,-74.2" /><g
         transform="scale(1.0731)"
         id="g106"><path
           id="path108"
           style="fill:#abaaa9;fill-opacity:1;fill-rule:nonzero;stroke:none"
           d="m 11481.6,16070 324.8,-574.3 h 559.7 l -468.4,780.6 -131.9,23.7 -284.2,-230" /></g><g
         transform="scale(1.07154)"
         id="g110"><path
           id="path112"
           style="fill:#797a7b;fill-opacity:1;fill-rule:nonzero;stroke:none"
           d="m 11611.5,16049.6 303.6,250.4 469,-781.8 h -469 l -303.6,531.4" /></g><g
         transform="scale(1.06091)"
         id="g114"><path
           id="path116"
           style="fill:#252323;fill-opacity:1;fill-rule:nonzero;stroke:none"
           d="m 12088.4,16219.2 c 0,-44.7 -36.2,-80.9 -80.9,-80.9 -44.6,0 -80.8,36.2 -80.8,80.9 0,44.6 36.2,80.8 80.8,80.8 44.7,0 80.9,-36.2 80.9,-80.8" /></g><g
         transform="scale(1.04237)"
         id="g118"><path
           id="path120"
           style="fill:#252323;fill-opacity:1;fill-rule:nonzero;stroke:none"
           d="m 12468,16217.7 c 0,-45.4 -36.9,-82.3 -82.3,-82.3 -45.4,0 -82.3,36.9 -82.3,82.3 0,45.5 36.9,82.3 82.3,82.3 45.4,0 82.3,-36.8 82.3,-82.3" /></g><g
         transform="scale(1.06798)"
         id="g122"><path
           id="path124"
           style="fill:#797a7b;fill-opacity:1;fill-rule:nonzero;stroke:none"
           d="m 14677.6,15570 333.2,730 h 142.7 l 238,-183.6 -261.8,-546.4 h -452.1" /></g><g
         transform="scale(1.06798)"
         id="g126"><path
           id="path128"
           style="fill:#898b8b;fill-opacity:1;fill-rule:nonzero;stroke:none"
           d="m 15153.5,16300 -336.6,-730 h -139.3 l 333.2,730 h 142.7" /></g><g
         transform="scale(1.05885)"
         id="g130"><path
           id="path132"
           style="fill:#252323;fill-opacity:1;fill-rule:nonzero;stroke:none"
           d="m 15438.5,16238.3 c 0,-34.1 -27.6,-61.7 -61.7,-61.7 -34.1,0 -61.8,27.6 -61.8,61.7 0,34.1 27.7,61.7 61.8,61.7 34.1,0 61.7,-27.6 61.7,-61.7" /></g><g
         transform="scale(1.03908)"
         id="g134"><path
           id="path136"
           style="fill:#252323;fill-opacity:1;fill-rule:nonzero;stroke:none"
           d="m 15606.4,16237.1 c 0,-34.7 -28.1,-62.9 -62.9,-62.9 -34.7,0 -62.9,28.2 -62.9,62.9 0,34.7 28.2,62.9 62.9,62.9 34.8,0 62.9,-28.2 62.9,-62.9" /></g><g
         transform="scale(1.06798)"
         id="g138"><path
           id="path140"
           style="fill:#abaaa9;fill-opacity:1;fill-rule:nonzero;stroke:none"
           d="m 15010.8,16300 h -119 l -333.2,-730 h 119 l 333.2,730" /></g><path
         id="path142"
         style="fill:#abaaa9;fill-opacity:1;fill-rule:nonzero;stroke:none"
         d="m 15675.4,15411.4 h -1718.1 v -57.2 h 1718.1 v 57.2" /><path
         id="path144"
         style="fill:#abaaa9;fill-opacity:1;fill-rule:nonzero;stroke:none"
         d="m 13090.6,4015.7 -105.3,-101 -148.8,68.3 -30.9,11471.9 h 179.7 l 105.3,-11439.2" /><path
         id="path146"
         style="fill:#797a7b;fill-opacity:1;fill-rule:nonzero;stroke:none"
         d="m 13537.1,4001.2 -551.8,-86.5 v 11540.2 h 569.6 l -17.8,-11453.7" /><path
         id="path148"
         style="fill:#535456;fill-opacity:1;fill-rule:nonzero;stroke:none"
         d="m 13344.7,4210.6 -179.7,189.9 277.7,54.5 1277.6,-382.9 -81.4,-157.4 -1294.2,295.9" /><path
         id="path150"
         style="fill:#abaaa9;fill-opacity:1;fill-rule:nonzero;stroke:none"
         d="m 13165,4400.5 v -457.6 l 1418.4,-430 c 0,0 224.7,-70.8 387.4,245.1 162.8,315.8 367,765.1 367,765.1 l -181.6,392 -517.3,-1000.4 -1473.9,485.8" /><path
         id="path152"
         style="fill:#c9c8c6;fill-opacity:1;fill-rule:nonzero;stroke:none"
         d="m 15018.8,4649.5 c 0,0 116.4,-112.5 51.5,-295.7 l -945.4,-103.3 c 0,0 -95.7,80.7 -46.9,298.9 l 940.8,100.1" /><path
         id="path154"
         style="fill:#535456;fill-opacity:1;fill-rule:nonzero;stroke:none"
         d="m 14203,4410.4 c 6.7,-60.3 -9.2,-111.5 -35.6,-114.5 -26.4,-2.9 -53.3,43.5 -60,103.8 -6.8,60.3 9.2,111.5 35.6,114.5 26.4,3 53.3,-43.5 60,-103.8" /><path
         id="path156"
         style="fill:#c9c8c6;fill-opacity:1;fill-rule:nonzero;stroke:none"
         d="m 13424.6,6186.7 c 0,0 -18.2,-254.2 25.4,-363.1 43.6,-108.9 189.1,-123.4 228.9,-174.2 39.7,-50.9 94.2,-236 210.4,-192.4 116.1,43.5 199.6,450.1 199.6,450.1 l 337.7,47.2 c 0,0 54.4,134.3 -29.1,181.5 -83.5,47.2 -341.2,116.2 -395.7,116.2 -54.5,0 -497.4,-14.5 -577.2,-65.3" /><path
         id="path158"
         style="fill:#535456;fill-opacity:1;fill-rule:nonzero;stroke:none"
         d="m 13500.8,6032.4 c 0,-49.1 -28.4,-89 -63.5,-89 -35.1,0 -63.5,39.9 -63.5,89 0,49.1 28.4,88.9 63.5,88.9 35.1,0 63.5,-39.8 63.5,-88.9" /><path
         id="path160"
         style="fill:#535456;fill-opacity:1;fill-rule:nonzero;stroke:none"
         d="m 14031.6,6073.5 c 0,-49.1 -28.4,-88.9 -63.5,-88.9 -35.1,0 -63.5,39.8 -63.5,88.9 0,49.2 28.4,89 63.5,89 35.1,0 63.5,-39.8 63.5,-89" /><path
         id="path162"
         style="fill:#535456;fill-opacity:1;fill-rule:nonzero;stroke:none"
         d="m 13872.8,5703.9 c 0,-49.1 -28.5,-88.9 -63.6,-88.9 -35.1,0 -63.5,39.8 -63.5,88.9 0,49.1 28.4,89 63.5,89 35.1,0 63.6,-39.9 63.6,-89" /><path
         id="path164"
         style="fill:#100f0d;fill-opacity:1;fill-rule:nonzero;stroke:none"
         d="m 14991.8,6898 c 13.6,0 452,25 484.7,0 32.6,-25 56,-536.7 43,-559.3 -13.1,-22.6 -549.5,-40.4 -549.5,-40.4 l 21.8,599.7" /><path
         id="path166"
         style="fill:#fbc398;fill-opacity:1;fill-rule:nonzero;stroke:none"
         d="m 14079.7,6099.5 c 0,0 103.4,-76.2 245,-108.9 0,0 -168.8,-315.8 -245,-609.9 -76.3,-294 103.4,-773.2 163.3,-1132.6 59.9,-359.4 81.7,-735.2 81.7,-735.2 l 430.2,27.2 c 0,0 -9.1,660.8 114.4,980.2 123.4,319.5 192.4,472 196,791.4 3.7,319.5 -3.6,472 0,562.8 3.7,90.7 48.4,239.6 36.9,515.5 -11.5,275.9 -75,450.1 -75,450.1 0,0 -844.1,125.3 -947.5,-740.6" /><g
         transform="scale(1.06991)"
         id="g168"><path
           id="path170"
           style="fill:#fbc398;fill-opacity:1;fill-rule:nonzero;stroke:none"
           d="m 15831.7,6805.4 162.9,-193.37 c 0,0 254.5,-198.53 279.9,-432.65 25.5,-234.14 -132.3,-865.22 -132.3,-865.22 0,0 -132.3,-641.36 -259.6,-1089.24 -127.2,-447.89 -173,-778.66 -173,-778.66 l -397.1,35.61 c 0,0 -30.4,554.72 -56,977.18 -25.4,422.46 -127.2,478.45 -40.6,712.58 86.4,234.13 371.5,687.06 371.5,687.06 0,0 -300.3,-45.79 -503.9,5.15 -203.5,50.84 86.6,855.02 203.6,880.53 117.1,25.43 544.6,61.03 544.6,61.03" /></g><g
         transform="scale(1.03918)"
         id="g172"><path
           id="path174"
           style="fill:#252323;fill-opacity:1;fill-rule:nonzero;stroke:none"
           d="m 12878.2,7761.33 c 0,0 -78.7,-272.53 -84,-314.48 -5.1,-41.86 0,-251.55 0,-251.55 0,0 -86.1,-602.59 40.9,-812.18 126.9,-209.58 388.9,-262.03 446.6,-309.19 57.6,-47.15 267.2,-204.39 267.2,-204.39 0,0 26.2,403.5 330,581.71 304,178.13 581.8,130.97 581.8,130.97 0,0 324.8,-382.51 366.8,-440.15 41.9,-57.64 518.8,-167.73 854.1,-172.93 0,0 99.6,482.11 272.6,723.17 172.9,241.05 345.8,314.38 345.8,314.38 0,0 -335.4,361.63 -518.8,461.14 -183.4,99.6 -723.1,141.55 -759.8,162.43 -36.7,20.98 -230.6,204.4 -230.6,204.4 0,0 -1521.7,94.3 -1628.1,68.13 -106.4,-26.18 -284.5,-141.46 -284.5,-141.46" /></g><path
         id="path176"
         style="fill:#3a70c0;fill-opacity:1;fill-rule:nonzero;stroke:none"
         d="m 13428,11530.5 -176,-83.5 c 0,0 121.6,-393.3 88,-828.3 -33.6,-435 -534.4,-343.3 -534.4,-343.3 0,0 179.5,-668.9 288.4,-870.4 108.9,-201.5 332.2,-544.6 370.3,-735.2 38.1,-190.6 -38.1,-381.2 -54.4,-457.4 -16.4,-76.2 -27.2,-147 -27.2,-147 0,0 718.8,-196.1 1203.4,-207 484.7,-10.9 822.3,163.4 838.6,196.1 16.4,32.6 32.7,136.1 21.8,219.6 -10.9,83.5 -14.5,98 -18.1,127.1 -3.7,29 -61.8,272.2 -36.3,657.1 25.4,384.8 57.9,853.1 57.9,853.1 0,0 65.5,210.6 72.7,381.2 7.3,170.6 0,370.3 0,370.3 0,0 -304.9,239.6 -430.1,452 -125.3,212.3 -176.1,415.6 -176.1,415.6 H 14466.3 13428" /><path
         id="path178"
         style="fill:#fbc398;fill-opacity:1;fill-rule:nonzero;stroke:none"
         d="m 13718,12279.6 c 0,0 43.2,-269.9 0,-404.2 -43.1,-134.3 -290,-344.9 -290,-344.9 0,0 451.9,-803.8 1052.8,-954.7 508.2,-127.7 312.2,873.3 312.2,873.3 0,0 -134.3,146.8 -156.1,175.8 -21.7,29.1 3.7,548.2 3.7,548.2 0,0 -415.2,464.7 -512.5,453.8 -97.4,-10.9 -380.6,-90.8 -384.2,-101.6 -3.7,-10.9 -25.9,-245.7 -25.9,-245.7" /><path
         id="path180"
         style="fill:#db986b;fill-opacity:1;fill-rule:nonzero;stroke:none"
         d="m 13833.5,12264.8 c 0,0 61,-210.6 153.6,-344 92.6,-133.4 392,-249.5 642.5,-244.5 l 27.3,367 -823.4,221.5" /><path
         id="path182"
         style="fill:#252323;fill-opacity:1;fill-rule:nonzero;stroke:none"
         d="m 14725.5,13699 c -227.7,130.6 -468.7,107.2 -595.8,76.6 -127.1,-30.6 -333.1,-105.9 -333.1,-105.9 -53.4,-20.9 -107.7,-45 -140.3,-80.4 -52.1,-56.5 -61.5,-111.3 -61.5,-111.3 0,0 -182.5,-29.8 -201.3,-281.3 -18.9,-251.4 45.4,-453.1 100.7,-593.7 55.3,-140.6 223.8,-323.4 223.8,-323.4 l 167.3,347.9 c 167.6,-75 359,339.3 337.8,381.6 -13.4,26.8 501.4,142.8 501.4,142.8 l 119.9,60.3 c 0,0 56.7,159.7 -13.6,333.7 -22,54.6 -61.5,107 -105.3,153.1" /><path
         id="path184"
         style="fill:#fbc398;fill-opacity:1;fill-rule:nonzero;stroke:none"
         d="m 14777.6,13302.8 c 0,0 54.1,-64.9 66.8,-90.6 12.7,-25.7 31.2,-263 37.5,-323 6.3,-60 -5.9,-142.1 -4.7,-171.2 1.2,-29.1 12.4,-207.4 7.5,-277.6 -4.9,-70.1 -71.5,-344.9 -93.8,-417.7 -22.2,-72.8 -55.2,-169.4 -89.4,-190.2 -34.1,-20.8 -187,-34.8 -324.5,0.4 -137.5,35.2 -410.6,204.8 -486.3,296.9 -75.6,92.1 -74,290.4 -74,290.4 0,0 -55.6,-17.8 -116.2,38 -60.6,55.8 -158.8,178.1 -145.1,318.6 13.7,140.5 122.4,94.4 179,40.3 56.7,-54 62.1,-139.3 73.8,-140.7 11.7,-1.5 23.2,2.8 28.9,5 5.8,2.2 27.1,146.9 27.8,176 0.8,29.2 -12.2,203.6 -8.5,209.6 3.6,5.9 141,186.4 186.9,205.8 45.8,19.4 734.3,30 734.3,30" /><path
         id="path186"
         style="fill:#edc8af;fill-opacity:1;fill-rule:nonzero;stroke:none"
         d="m 14644.5,11817.1 c 26.9,3.8 47.1,9.3 57,15.4 27.9,17 55,84.4 76.1,148.2 -21.1,-63.8 -48.2,-131.2 -76,-148.2 -10,-6.1 -30.1,-11.6 -57.1,-15.4 m 162.7,264.1 c 28.5,108.9 73.5,302.1 77.5,359.2 0.8,12.5 1.2,28.4 1.2,46.3 0,-17.9 -0.4,-33.8 -1.2,-46.3 -4,-57.1 -49,-250.3 -77.5,-359.2 m 70,641.3 c -0.1,32.3 10.7,109.6 4.7,166.7 -1.5,14.1 -3.6,37.8 -6.2,66.2 v 0 c 2.6,-28.4 4.7,-52.1 6.2,-66.2 6,-57.1 -4.8,-134.4 -4.7,-166.7" /><path
         id="path188"
         style="fill:#eaab7e;fill-opacity:1;fill-rule:nonzero;stroke:none"
         d="m 14556.6,11811.4 c -51.3,0 -110,5.1 -166.8,18.3 v 1125.7 h 485.9 c 2.6,-28.4 4.7,-52.1 6.2,-66.2 6,-57.1 -4.8,-134.4 -4.7,-166.7 0,-1.6 0,-3.1 0,-4.5 1,-23.9 8.7,-148.7 8.7,-231.3 0,-17.9 -0.4,-33.8 -1.2,-46.3 -4,-57.1 -49,-250.3 -77.5,-359.2 -6.5,-24.7 -12.1,-45 -16.3,-58.5 -4.1,-13.4 -8.5,-27.6 -13.3,-42 -21.1,-63.8 -48.2,-131.2 -76.1,-148.2 -9.9,-6.1 -30.1,-11.6 -57,-15.4 -24.5,-3.6 -54.6,-5.7 -87.9,-5.7" /><path
         id="path190"
         style="fill:#fbc398;fill-opacity:1;fill-rule:nonzero;stroke:none"
         d="m 14324.7,3512.9 c 0,0 -38.1,-114.3 -38.1,-163.4 0,-49 43.6,-103.4 38.1,-138.8 -5.4,-35.4 -36.3,-209.7 -10.9,-273.2 25.4,-63.5 69,-105.3 76.3,-157.9 7.2,-52.7 3.6,-114.4 56.2,-154.3 52.7,-39.9 87.2,-39.9 92.6,-43.6 5.5,-3.6 43.1,-39.5 82.6,-42.2 39.5,-2.7 72.2,13.6 72.2,13.6 0,0 20.4,-17.7 57.1,-24.5 36.8,-6.8 72.2,12.3 72.2,12.3 0,0 39.5,-15.2 72.1,-13.7 32.7,1.4 32.7,1.4 32.7,1.4 0,0 72.2,-25.8 106.2,-19 34,6.8 44.9,20.4 44.9,20.4 0,0 70.8,-31.3 147.1,2.7 76.2,34 47.6,156.6 23.1,192 -24.5,35.4 -55.8,59.9 -66.7,84.4 -10.9,24.5 -250.5,352.6 -334.9,510.5 -84.4,157.9 -133.4,343.1 -133.4,343.1 l -389.4,-149.8" /><path
         id="path192"
         style="fill:#db986b;fill-opacity:1;fill-rule:nonzero;stroke:none"
         d="m 14942.9,2652.5 c -20.4,51.7 -64.1,110.3 -64.1,110.3 0,0 32.7,-91.2 36.8,-99.4 4.1,-8.2 12.2,-134.8 12.2,-134.8 0,0 23.3,-8.3 49.7,-14.3 -8.5,39.8 -20.2,101.6 -34.6,138.2" /><path
         id="path194"
         style="fill:#db986b;fill-opacity:1;fill-rule:nonzero;stroke:none"
         d="m 14707.3,2623.9 c -9.6,35.4 -69.2,88.5 -69.2,88.5 l 55.6,-159.3 c 0,0 14.1,-12 39.7,-20 -9.6,30.9 -20.7,70.7 -26.1,90.8" /><path
         id="path196"
         style="fill:#db986b;fill-opacity:1;fill-rule:nonzero;stroke:none"
         d="m 14838,2638.9 c -10.9,43.6 -65.4,85.8 -65.4,85.8 0,0 24.5,-61.3 30,-74.9 5.4,-13.6 20.4,-108.9 20.4,-108.9 0,0 18.1,-7 39.9,-11 -8.7,35.2 -18.5,83.1 -24.9,109" /><path
         id="path198"
         style="fill:#db986b;fill-opacity:1;fill-rule:nonzero;stroke:none"
         d="m 15104.8,2644.3 c -15,40.9 -70.8,118.5 -70.8,118.5 0,0 23.1,-99.4 27.2,-119.8 4.1,-20.4 17.7,-113 17.7,-113 0,0 32.2,-14.2 76.5,-13 -17.6,43.2 -41.6,102.7 -50.6,127.3" /><path
         id="path200"
         style="fill:#edc8af;fill-opacity:1;fill-rule:nonzero;stroke:none"
         d="m 14636.9,11624.9 c -3.6,4.9 -5.9,23.6 -7.3,51.4 v 0 0 l 7.3,-51.4" /><path
         id="path202"
         style="fill:#818a98;fill-opacity:1;fill-rule:nonzero;stroke:none"
         d="m 14424.9,10571.6 c 0,0 -1.5,7.8 -4,21.5 5.5,-1.8 10.9,-3.5 16.4,-5.2 -7.8,-10.7 -12.4,-16.3 -12.4,-16.3" /><path
         id="path204"
         style="fill:#eaab7e;fill-opacity:1;fill-rule:nonzero;stroke:none"
         d="m 14437.3,10587.9 c -5.5,1.7 -10.9,3.4 -16.4,5.2 -16.2,89.1 -76.7,430.2 -71.9,530.8 5.4,116 189.3,540.5 198.3,554.9 22.5,-1.8 44.8,-2.7 66.8,-2.7 5.2,0 10.4,0.1 15.5,0.2 1.4,-27.8 3.7,-46.5 7.3,-51.4 v 0 c 0,0 -15.7,-553.6 -64.7,-744.2 -38.3,-149.2 -106.9,-254.2 -134.9,-292.8" /><path
         id="path206"
         style="fill:#db986b;fill-opacity:1;fill-rule:nonzero;stroke:none"
         d="m 14614.1,11676.1 c -22,0 -44.3,0.9 -66.8,2.7 0,0 0,0 0,0 2.6,3.9 10.8,5.3 21.1,5.3 24.6,0 61.2,-7.8 61.2,-7.8 v 0 c -5.1,-0.1 -10.3,-0.2 -15.5,-0.2" /><g
         transform="scale(1.0776)"
         id="g208"><path
           id="path210"
           style="fill:#fbc398;fill-opacity:1;fill-rule:nonzero;stroke:none"
           d="m 15203.4,3457.05 c 0,0 -225.7,-353.75 -171.8,-485.15 53.9,-131.41 397.6,-124.63 485.2,-144.86 87.5,-20.23 131.3,-141.52 235.8,-181.89 104.4,-40.46 94.3,0 175.2,-20.23 80.8,-20.23 122.1,-44.64 200.4,-19.4 78.4,25.25 83.4,40.47 83.4,40.47 0,0 48,-5.11 68.2,47.97 20.2,53.08 -37.9,164.26 -85.9,194.6 -48,30.25 -144,113.68 -270.4,181.89 -126.3,68.2 -325.9,351.24 -325.9,351.24 0,0 -179.4,65.71 -207.2,65.71 -27.8,0 -187,-30.35 -187,-30.35" /></g><g
         transform="scale(1.0757)"
         id="g212"><path
           id="path214"
           style="fill:#db986b;fill-opacity:1;fill-rule:nonzero;stroke:none"
           d="m 16222.5,2779.68 c -43.1,35.51 -136.8,83.57 -136.8,83.57 0,0 48.2,-53.17 104,-106.34 56,-53.09 50.4,-106.26 50.4,-106.26 0,0 37.1,-3.91 59.9,31.14 -16.9,27.14 -48.2,73.72 -77.5,97.89" /></g><path
         id="path216"
         style="fill:#100f0d;fill-opacity:1;fill-rule:nonzero;stroke:none"
         d="m 15476.5,6898 c -32.7,25 -471.1,0 -484.7,0 l 35.4,-57.9 142.8,-261.4 v -272.2 c 153.9,7.3 341.8,19 349.5,32.2 13,22.6 -10.4,534.3 -43,559.3" /><g
         transform="scale(1.00712)"
         id="g218"><path
           id="path220"
           style="fill:#797a7b;fill-opacity:1;fill-rule:nonzero;stroke:none"
           d="m 13224.6,15450.2 h -295.5 v 849.8 h 295.5 v -849.8" /></g><path
         id="path222"
         style="fill:#252323;fill-opacity:1;fill-rule:nonzero;stroke:none"
         d="m 13427.8,15382.8 h -512.4 v 177.4 h 512.4 v -177.4" /><path
         id="path224"
         style="fill:#252323;fill-opacity:1;fill-rule:nonzero;stroke:none"
         d="m 13754.5,15665.5 h -177.9 v 225.1 h 177.9 v -225.1" /><g
         transform="scale(1.00963)"
         id="g226"><path
           id="path228"
           style="fill:#bebdbb;fill-opacity:1;fill-rule:nonzero;stroke:none"
           d="m 13623.3,15739.1 h -176.2 v 560.9 h 176.2 v -560.9" /></g><path
         id="path230"
         style="fill:#3e3d3f;fill-opacity:1;fill-rule:nonzero;stroke:none"
         d="m 14886.3,15665.5 102.5,-3750.1 -163.4,223.2 -212.3,3639.5 273.2,-112.6" /><path
         id="path232"
         style="fill:#abaaa9;fill-opacity:1;fill-rule:nonzero;stroke:none"
         d="m 14979.9,12242.1 -17.9,653.5 h -180.7 l 38.1,-653.5 h 160.5" /><path
         id="path234"
         style="fill:#494a4b;fill-opacity:1;fill-rule:nonzero;stroke:none"
         d="m 14506.4,15596.5 35.9,-3561.3 283.1,103.4 -98,3572.3 -221,-114.4" /><path
         id="path236"
         style="fill:#252323;fill-opacity:1;fill-rule:nonzero;stroke:none"
         d="m 14471.5,12111.4 c 0,0 173.9,87.6 351.1,76.5 177.1,-11.2 264.2,-145.5 286,-272.5 21.8,-127.1 43.6,-1532.1 43.6,-1532.1 0,0 -14.6,-203.3 -138,-250.4 -123.4,-47.2 -650.8,-58.1 -788.2,0 -137.5,58 -162.9,257.7 -162.9,257.7 l 408.4,1720.8" /><path
         id="path238"
         style="fill:#100f0d;fill-opacity:1;fill-rule:nonzero;stroke:none"
         d="m 15108.6,11915.4 c -21.8,127 -108.9,261.3 -286,272.5 -58.7,3.7 -116.9,-3.5 -168.7,-14.7 124.4,-39.9 188.6,-151.4 206.8,-257.8 21.8,-127.1 43.6,-1532.1 43.6,-1532.1 0,0 -14.5,-203.2 -138,-250.4 -48.9,-18.8 -161.5,-31.8 -288,-37 203.8,-9.1 455.5,6.2 535.9,37 123.4,47.2 138,250.4 138,250.4 0,0 -21.8,1405 -43.6,1532.1" /><path
         id="path240"
         style="fill:#fbc398;fill-opacity:1;fill-rule:nonzero;stroke:none"
         d="m 14220.4,12279.6 c 0,0 -135.6,-473.2 -219.1,-625.6 -83.4,-152.5 -217.8,-512.9 -217.8,-512.9 l -163.3,102.6 c 0,0 -61.8,268.7 -381.2,286.8 -319.5,18.2 -484.2,-250.5 -550.7,-432 -66.5,-181.5 -8.4,-776.9 205.8,-918.5 214.2,-141.5 534.3,152.5 534.3,152.5 0,0 315.2,-32.6 536.6,-43.5 221.5,-10.9 330.4,130.7 330.4,130.7 0,0 167,101.6 236,450.1 69,348.5 50.8,1336 50.8,1336 l -361.8,73.8" /><path
         id="path242"
         style="fill:#fcd9c8;fill-opacity:1;fill-rule:nonzero;stroke:none"
         d="m 13678.4,10728.2 c 2.6,-19.4 56.8,145.7 131.4,337.7 l -37.3,51.1 c 0,0 -116.3,-221.8 -94.1,-388.8" /><path
         id="path244"
         style="fill:#100f0d;fill-opacity:1;fill-rule:nonzero;stroke:none"
         d="m 15045.1,12772.1 -39.1,-59.9 c 0,0 -229.6,-1.8 -233.2,0 -3.6,1.8 -49,179.7 -34.5,216 14.5,36.3 49,96.2 119.8,79.9 70.8,-16.3 130.7,-94.4 130.7,-94.4 l 56.3,-141.6" /><path
         id="path246"
         style="fill:#db986b;fill-opacity:1;fill-rule:nonzero;stroke:none"
         d="m 12901.3,10543.1 c -4.7,9.8 299,-159.8 527.1,-210.6 l -112,-85.2 c 0,0 -306.1,70.7 -415.1,295.8" /><path
         id="path248"
         style="fill:#fbc398;fill-opacity:1;fill-rule:nonzero;stroke:none"
         d="m 14220.4,12279.6 33.5,277.5 c 0,0 18.8,485.5 43.3,523.6 24.5,38.1 274.1,139.8 306.8,138 32.7,-1.9 61.9,-29.1 61.9,-29.1 0,0 84.7,-26.8 92.4,-29 7.6,-2.2 56.3,-21.8 98,-50.9 41.7,-29 123.4,-103.4 132.5,-125.2 9.1,-21.8 12.7,-43.6 12.7,-43.6 0,0 -61.7,-7.2 -90.7,-14.5 -29.1,-7.2 -73.4,-63.5 -76.7,-96.2 -3.2,-32.7 -28.6,-366.7 -84.9,-422.9 -56.3,-56.3 -127.1,-83.5 -136.1,-99.9 -9.1,-16.3 -30.9,-101.6 -30.9,-101.6 0,0 -170.6,-45.4 -225.1,-36.3 -54.4,9.1 -136.7,110.1 -136.7,110.1" /><path
         id="path250"
         style="fill:#252323;fill-opacity:1;fill-rule:nonzero;stroke:none"
         d="m 15105,12825.7 c 0,-62.7 -44.3,-113.5 -99,-113.5 -54.6,0 -98.9,50.8 -98.9,113.5 0,62.6 44.3,113.4 98.9,113.4 54.7,0 99,-50.8 99,-113.4" /><path
         id="path252"
         style="fill:#494a4b;fill-opacity:1;fill-rule:nonzero;stroke:none"
         d="m 15471.6,10278.1 -90.7,-40 h -65.4 v 5344.8 h 70.8 l 85.3,-5304.8" /><path
         id="path254"
         style="fill:#abaaa9;fill-opacity:1;fill-rule:nonzero;stroke:none"
         d="m 15440.3,12225.8 -9.9,615.3 h -114.9 v -615.3 h 124.8" /><path
         id="path256"
         style="fill:#3e3d3f;fill-opacity:1;fill-rule:nonzero;stroke:none"
         d="m 15380.9,10238.1 h 217.8 l 10.9,5344.8 h -223.3 l -5.4,-5344.8" /><path
         id="path258"
         style="fill:#100f0d;fill-opacity:1;fill-rule:nonzero;stroke:none"
         d="m 15380.9,10768.2 c 0,-44.1 -25.2,-79.9 -56.3,-79.9 -31.1,0 -56.3,35.8 -56.3,79.9 0,44.1 25.2,79.8 56.3,79.8 31.1,0 56.3,-35.7 56.3,-79.8" /><path
         id="path260"
         style="fill:#100f0d;fill-opacity:1;fill-rule:nonzero;stroke:none"
         d="m 15380.9,11580.4 c 0,-44.1 -25.2,-79.8 -56.3,-79.8 -31.1,0 -56.3,35.7 -56.3,79.8 0,44.1 25.2,79.9 56.3,79.9 31.1,0 56.3,-35.8 56.3,-79.9" /><path
         id="path262"
         style="fill:#100f0d;fill-opacity:1;fill-rule:nonzero;stroke:none"
         d="m 15627.5,12744.9 h -30.5 c -24.1,0 -43.7,-19.5 -43.7,-43.6 v -30.6 c 0,-24.1 19.6,-43.6 43.7,-43.6 h 30.5 c 24.1,0 43.6,19.5 43.6,43.6 v 30.6 c 0,24.1 -19.5,43.6 -43.6,43.6" /><path
         id="path264"
         style="fill:#100f0d;fill-opacity:1;fill-rule:nonzero;stroke:none"
         d="m 15627.5,12404.7 h -30.5 c -24.1,0 -43.7,-19.5 -43.7,-43.6 v -30.5 c 0,-24.1 19.6,-43.7 43.7,-43.7 h 30.5 c 24.1,0 43.6,19.6 43.6,43.7 v 30.5 c 0,24.1 -19.5,43.6 -43.6,43.6" /><path
         id="path266"
         style="fill:#252323;fill-opacity:1;fill-rule:nonzero;stroke:none"
         d="m 16072.1,13099.5 c -0.2,24.6 -20.3,44.4 -44.9,44.2 l -376,-3.3 c 0.9,-44.1 1.8,-111.4 0.8,-163.3 l 376.6,3.2 c 24.6,0.2 44.4,20.3 44.2,45 l -0.7,74.2" /><path
         id="path268"
         style="fill:#fcd9c8;fill-opacity:1;fill-rule:nonzero;stroke:none"
         d="m 14063.1,11646.9 c 40.8,66.5 179.7,456.3 201.7,623.6 22,167.3 67.8,750.3 73.3,769 5.4,18.8 265.9,179.2 265.9,179.2 -32.7,1.8 -282.3,-99.9 -306.8,-138 -24.5,-38.1 -43.3,-523.6 -43.3,-523.6 l -33.5,-277.5 c 0,0 -135.6,-473.2 -219.1,-625.6 -83.4,-152.5 -217.8,-512.9 -217.8,-512.9 l -163.3,102.6 189.6,-177.8 c 0,0 212.4,514.5 253.3,581" /><path
         id="path270"
         style="fill:#fcd9c8;fill-opacity:1;fill-rule:nonzero;stroke:none"
         d="m 13620.2,11243.7 c 0,0 -61.8,268.7 -381.2,286.8 l -2.1,0.1 c 224.2,-80.2 383.3,-286.9 383.3,-286.9" /><g
         transform="scale(1.01611)"
         id="g272"><path
           id="path274"
           style="fill:#fbc398;fill-opacity:1;fill-rule:nonzero;stroke:none"
           d="m 15651.5,12744.7 c 0,0 -42.9,-30 -57.1,-71.3 -14.4,-41.3 82.1,-208.8 116.1,-246.5 33.9,-37.7 192.9,-148.5 212.6,-187.8 19.6,-39.3 14.2,-147 14.2,-147 h 348.3 c 0,0 14.4,674 0,720.5 -14.2,46.4 -42.8,87.5 -64.2,110.7 -21.5,23.2 -150.1,59 -221.6,76.8 -71.4,17.9 -139.3,46.5 -226.8,39.3 -87.6,-7.1 -123.3,-225 -123.3,-234.8 0,-9.9 1.8,-59.9 1.8,-59.9" /></g><g
         transform="scale(1.00792)"
         id="g276"><path
           id="path278"
           style="fill:#252323;fill-opacity:1;fill-rule:nonzero;stroke:none"
           d="m 16154.2,12908.6 c 0,0 -124.3,-49.6 -110.8,-171.1 l 145.9,-92.8 c 0,0 51.3,-9.9 81,55 29.7,64.8 13.5,137.7 13.5,137.7 l -129.6,71.2" /></g><g
         transform="scale(1.00792)"
         id="g280"><path
           id="path282"
           style="fill:#100f0d;fill-opacity:1;fill-rule:nonzero;stroke:none"
           d="m 16197.4,12884.9 c -36.8,-27.7 -86.9,-83.1 -98,-183 l 89.9,-57.2 c 0,0 51.3,-9.9 81,55 29.7,64.8 13.5,137.7 13.5,137.7 l -86.4,47.5" /></g><path
         id="path284"
         style="fill:#db986b;fill-opacity:1;fill-rule:nonzero;stroke:none"
         d="m 15889.1,12819.3 c 0,0 79.9,-46.6 99.9,-50.5 19.9,-3.9 52.6,25.3 52.6,25.3 0,0 54.5,-43.2 81.7,-25.3 27.2,17.8 47.2,69.6 47.2,69.6 l 36.9,-23.5 c 0,0 -33.3,-79.1 -82.3,-82.7 -49,-3.6 -76.8,12.7 -76.8,12.7 0,0 -43,-6.5 -66.6,-0.6 -23.6,6 -92.6,75 -92.6,75" /><path
         id="path286"
         style="fill:#db986b;fill-opacity:1;fill-rule:nonzero;stroke:none"
         d="m 15903.7,12950 c 0,0 131.3,-81.6 144.6,-84.4 13.3,-2.7 122.2,-27.2 122.2,-27.2 0,0 -76.3,36.3 -85.3,55.8 -9.1,19.5 43.5,117.5 98,188.3 54.4,70.8 63.5,83.5 63.5,83.5 0,0 -76.2,-54.4 -108.9,-96.2 -32.7,-41.7 -73.8,-157 -89.5,-159.3 -15.8,-2.2 -43,14.1 -52.1,35.9 -9.1,21.8 118,246.8 118,246.8 0,0 -148.8,-228.7 -161.5,-232.3 -12.7,-3.6 -63.6,-3.6 -63.6,-3.6" /><g
         transform="scale(1.00139)"
         id="g288"><path
           id="path290"
           style="fill:#898b8b;fill-opacity:1;fill-rule:nonzero;stroke:none"
           d="m 13300.4,16245.6 141.4,54.4 h 495.8 c 0,0 899.9,-304.5 950.7,-384.3 50.8,-79.7 39.9,-354.4 39.9,-354.4 l -253.8,-22.6 c 0,0 -406.1,355.3 -460.4,380.6 -54.4,25.4 -609.1,146 -656.2,160 -47.1,14.1 -257.4,166.3 -257.4,166.3" /></g><path
         id="path292"
         style="fill:#797a7b;fill-opacity:1;fill-rule:nonzero;stroke:none"
         d="m 13318.8,16268.1 h 511.9 c 0,0 773.3,-235.9 816.8,-308.5 43.6,-72.6 47.2,-399.4 47.2,-399.4 h -294 l -36.3,192.4 -595.4,207 -578.1,-10.9 127.9,319.4" /><path
         id="path294"
         style="fill:#252323;fill-opacity:1;fill-rule:nonzero;stroke:none"
         d="m 14579.5,15841.1 c 0,-40.3 -32.7,-73 -73.1,-73 -40.3,0 -73,32.7 -73,73 0,40.4 32.7,73.1 73,73.1 40.4,0 73.1,-32.7 73.1,-73.1" /><g
         transform="scale(1.01364)"
         id="g296"><path
           id="path298"
           style="fill:#bebdbb;fill-opacity:1;fill-rule:nonzero;stroke:none"
           d="m 15720.6,15671.4 h -168.1 v 628.6 h 168.1 v -628.6" /></g><path
         id="path300"
         style="fill:#252323;fill-opacity:1;fill-rule:nonzero;stroke:none"
         d="m 15739.2,15877.9 h 219.7 v -219.6 h -219.7 v 219.6" /><g
         transform="scale(1.04721)"
         id="g302"><path
           id="path304"
           style="fill:#abaaa9;fill-opacity:1;fill-rule:nonzero;stroke:none"
           d="m 4649.09,14662 h -670.47 v 1638 h 670.47 v -1638" /></g><g
         transform="scale(1.04237)"
         id="g306"><path
           id="path308"
           style="fill:#abaaa9;fill-opacity:1;fill-rule:nonzero;stroke:none"
           d="m 2753.51,15145.5 c 0,0 -0.87,363.9 68.79,628.6 69.66,264.7 247.27,525.9 424.9,525.9 0,0 -198.52,-1006.5 -219.42,-1044.8 -20.89,-38.4 -181.1,-191.6 -181.1,-191.6 l -93.17,81.9" /></g><path
         id="path310"
         style="fill:#abaaa9;fill-opacity:1;fill-rule:nonzero;stroke:none"
         d="m 4898.51,4879.7 c 76.36,-16.3 511.59,-157.9 511.59,-157.9 l -123.2,288.6 -130.33,32.7 -2.27,348.5 -255.79,255.9 v -767.8" /><path
         id="path312"
         style="fill:#5e6061;fill-opacity:1;fill-rule:nonzero;stroke:none"
         d="m 6448.52,4649.5 1597.62,170.3 c 0,0 -43.56,-326.7 -65.34,-326.7 -21.79,0 -1061.88,-114.4 -1061.88,-114.4 l -470.4,270.8" /><path
         id="path314"
         style="fill:#797a7b;fill-opacity:1;fill-rule:nonzero;stroke:none"
         d="m 5440.46,3529.2 -153.56,29.1 -7.9,-61.3 232.25,-123 c 0,0 81.68,95.3 78.96,109 -2.72,13.6 -149.75,46.2 -149.75,46.2" /><path
         id="path316"
         style="fill:#c9c8c6;fill-opacity:1;fill-rule:nonzero;stroke:none"
         d="m 6633.86,4915.1 286.87,30 172.44,-375.8 c 0,0 -216,-136.1 -255.93,-190.6 -39.94,-54.4 -279.54,-10.8 -288.62,47.2 -9.07,58.1 85.24,489.2 85.24,489.2" /><path
         id="path318"
         style="fill:#100f0d;fill-opacity:1;fill-rule:nonzero;stroke:none"
         d="m 3731.48,7281.2 h -92.06 v 7411.4 h 92.06 V 7281.2" /><path
         id="path320"
         style="fill:#100f0d;fill-opacity:1;fill-rule:nonzero;stroke:none"
         d="m 4212.5,7123.3 h -92.07 v 7569.3 h 92.07 V 7123.3" /><g
         transform="scale(1.04237)"
         id="g322"><path
           id="path324"
           style="fill:#797a7b;fill-opacity:1;fill-rule:nonzero;stroke:none"
           d="m 3121.82,4444.6 v -82.7 l -188.07,-5.76 -62.69,10789.36 c 0,0 26.12,961.2 376.14,1154.5 h 794.08 V 15098.4 L 3456.16,13917.8 V 4604.62 L 3121.82,4444.6" /></g><path
         id="path326"
         style="fill:#535456;fill-opacity:1;fill-rule:nonzero;stroke:none"
         d="m 3131.56,4980.5 471.03,122.5 917.58,-283.2 -57.18,-414.7 c 0,0 -247.2,12.7 -575.87,0 -328.67,-12.7 -755.56,575.4 -755.56,575.4" /><path
         id="path328"
         style="fill:#797a7b;fill-opacity:1;fill-rule:nonzero;stroke:none"
         d="m 6004.07,3662.7 112.56,-156.6 c 0,0 218.17,-123.9 395.87,39.5 177.71,163.3 580.67,1023.7 580.67,1023.7 l -277.72,-46.2 -811.38,-860.4" /><path
         id="path330"
         style="fill:#797a7b;fill-opacity:1;fill-rule:nonzero;stroke:none"
         d="m 5350.44,4184.8 -63.54,825.6 h 478.21 c 0,0 189.95,-692 195.4,-759.9 5.44,-67.8 129.97,-126.6 -38.83,-171.3 -168.79,-44.6 -571.24,105.6 -571.24,105.6" /><path
         id="path332"
         style="fill:#c9c8c6;fill-opacity:1;fill-rule:nonzero;stroke:none"
         d="m 5286.9,3558.3 613.71,61.7 103.46,-89.8 -143.4,-95.3 -349.42,-60.9 -8.17,70.8 -216.18,113.5" /><path
         id="path334"
         style="fill:#abaaa9;fill-opacity:1;fill-rule:nonzero;stroke:none"
         d="m 4642.69,3942.9 -1511.13,626.4 v 411.2 l 1511.13,-580 v -457.6" /><path
         id="path336"
         style="fill:#abaaa9;fill-opacity:1;fill-rule:nonzero;stroke:none"
         d="m 3343.93,4569.3 -280.44,-70.8 -147.03,70.8 -46.29,11217.8 h 122.53 l 65.34,-11246.4 285.89,28.6" /><path
         id="path338"
         style="fill:#252323;fill-opacity:1;fill-rule:nonzero;stroke:none"
         d="m 4312.35,4649.5 -1150.84,453.5 -10.89,2227.2 1155.69,-435.6 6.04,-2245.1" /><path
         id="path340"
         style="fill:#100f0d;fill-opacity:1;fill-rule:nonzero;stroke:none"
         d="m 3412,8268.2 -98.02,76.3 468.31,43.5 517.46,-119.8 V 8126.6 L 3412,8268.2" /><path
         id="path342"
         style="fill:#252323;fill-opacity:1;fill-rule:nonzero;stroke:none"
         d="m 3150.62,7309.8 v 914.9 l 1149.13,-281.8 8.29,-1178.7 -1157.42,545.6" /><path
         id="path344"
         style="fill:#252323;fill-opacity:1;fill-rule:nonzero;stroke:none"
         d="m 3313.98,8012.3 c -5.44,16.3 0,332.2 0,332.2 l 985.77,-217.9 v -849.8 l -985.77,735.5" /><path
         id="path346"
         style="fill:#252323;fill-opacity:1;fill-rule:nonzero;stroke:none"
         d="m 3000.26,14485.6 1285.9,-98 -2.87,1067.3 H 2992.7 l 7.56,-969.3" /><path
         id="path348"
         style="fill:#abaaa9;fill-opacity:1;fill-rule:nonzero;stroke:none"
         d="m 2916.46,15614.7 c 7.26,10.9 76.24,172.4 76.24,172.4 h 1470.29 v -332.2 H 2992.7 l -76.24,159.8" /><g
         transform="scale(1.04721)"
         id="g350"><path
           id="path352"
           style="fill:#797a7b;fill-opacity:1;fill-rule:nonzero;stroke:none"
           d="m 4649.09,14662 h 540.89 v 1638 h -540.89 v -1638" /></g><g
         transform="scale(1.02015)"
         id="g354"><path
           id="path356"
           style="fill:#bebdbb;fill-opacity:1;fill-rule:nonzero;stroke:none"
           d="M 7841.83,16091.8 H 3430.01 v 208.2 h 4411.82 v -208.2" /></g><g
         transform="scale(1.00712)"
         id="g358"><path
           id="path360"
           style="fill:#58595b;fill-opacity:1;fill-rule:nonzero;stroke:none"
           d="m 3977.23,15675.5 h -363.54 v 624.5 h 363.54 v -624.5" /></g><g
         transform="scale(1.00712)"
         id="g362"><path
           id="path364"
           style="fill:#48484a;fill-opacity:1;fill-rule:nonzero;stroke:none"
           d="m 4804.51,15675.5 h -849.29 v 624.5 h 849.29 v -624.5" /></g><path
         id="path366"
         style="fill:#252323;fill-opacity:1;fill-rule:nonzero;stroke:none"
         d="m 4393.55,16175.8 c 0,-41 -33.21,-74.2 -74.19,-74.2 -40.98,0 -74.19,33.2 -74.19,74.2 0,41 33.21,74.2 74.19,74.2 40.98,0 74.19,-33.2 74.19,-74.2" /><g
         transform="scale(1.0731)"
         id="g368"><path
           id="path370"
           style="fill:#abaaa9;fill-opacity:1;fill-rule:nonzero;stroke:none"
           d="m 3539.86,16070 324.77,-574.3 h 559.71 l -468.36,780.6 -131.94,23.7 -284.18,-230" /></g><g
         transform="scale(1.07154)"
         id="g372"><path
           id="path374"
           style="fill:#797a7b;fill-opacity:1;fill-rule:nonzero;stroke:none"
           d="m 3658.21,16049.6 303.53,250.4 469.04,-781.8 h -469.04 l -303.53,531.4" /></g><g
         transform="scale(1.06091)"
         id="g376"><path
           id="path378"
           style="fill:#252323;fill-opacity:1;fill-rule:nonzero;stroke:none"
           d="m 4055.33,16219.2 c 0,-44.7 -36.18,-80.9 -80.83,-80.9 -44.65,0 -80.85,36.2 -80.85,80.9 0,44.6 36.2,80.8 80.85,80.8 44.65,0 80.83,-36.2 80.83,-80.8" /></g><g
         transform="scale(1.04237)"
         id="g380"><path
           id="path382"
           style="fill:#252323;fill-opacity:1;fill-rule:nonzero;stroke:none"
           d="m 4292.04,16217.7 c 0,-45.4 -36.84,-82.3 -82.29,-82.3 -45.44,0 -82.28,36.9 -82.28,82.3 0,45.5 36.84,82.3 82.28,82.3 45.45,0 82.29,-36.8 82.29,-82.3" /></g><g
         transform="scale(1.06798)"
         id="g384"><path
           id="path386"
           style="fill:#797a7b;fill-opacity:1;fill-rule:nonzero;stroke:none"
           d="m 6697.77,15570 333.12,730 h 142.77 l 237.95,-183.6 -261.75,-546.4 h -452.09" /></g><g
         transform="scale(1.06798)"
         id="g388"><path
           id="path390"
           style="fill:#898b8b;fill-opacity:1;fill-rule:nonzero;stroke:none"
           d="m 7173.66,16300 -336.53,-730 h -139.36 l 333.12,730 h 142.77" /></g><g
         transform="scale(1.05885)"
         id="g392"><path
           id="path394"
           style="fill:#252323;fill-opacity:1;fill-rule:nonzero;stroke:none"
           d="m 7389.81,16238.3 c 0,-34.1 -27.63,-61.7 -61.71,-61.7 -34.08,0 -61.72,27.6 -61.72,61.7 0,34.1 27.64,61.7 61.72,61.7 34.08,0 61.71,-27.6 61.71,-61.7" /></g><g
         transform="scale(1.03908)"
         id="g396"><path
           id="path398"
           style="fill:#252323;fill-opacity:1;fill-rule:nonzero;stroke:none"
           d="m 7404.61,16237.1 c 0,-34.7 -28.16,-62.9 -62.9,-62.9 -34.73,0 -62.88,28.2 -62.88,62.9 0,34.7 28.15,62.9 62.88,62.9 34.74,0 62.9,-28.2 62.9,-62.9" /></g><g
         transform="scale(1.06798)"
         id="g400"><path
           id="path402"
           style="fill:#abaaa9;fill-opacity:1;fill-rule:nonzero;stroke:none"
           d="m 7030.89,16300 h -118.97 l -333.13,-730 h 118.98 l 333.12,730" /></g><g
         transform="scale(1.00712)"
         id="g404"><path
           id="path406"
           style="fill:#797a7b;fill-opacity:1;fill-rule:nonzero;stroke:none"
           d="M 6815.92,15472.7 H 6483.4 v 827.3 h 332.52 v -827.3" /></g><path
         id="path408"
         style="fill:#abaaa9;fill-opacity:1;fill-rule:nonzero;stroke:none"
         d="M 7153.08,15411.4 H 5435.01 v -57.2 h 1718.07 v 57.2" /><path
         id="path410"
         style="fill:#abaaa9;fill-opacity:1;fill-rule:nonzero;stroke:none"
         d="m 4568.27,4015.7 -105.28,-101 -148.85,68.3 -30.85,11471.9 h 179.7 L 4568.27,4015.7" /><path
         id="path412"
         style="fill:#797a7b;fill-opacity:1;fill-rule:nonzero;stroke:none"
         d="m 5014.8,4001.2 -551.81,-86.5 v 11540.2 h 569.57 L 5014.8,4001.2" /><path
         id="path414"
         style="fill:#535456;fill-opacity:1;fill-rule:nonzero;stroke:none"
         d="m 4822.39,4210.6 -179.7,189.9 277.72,54.5 1277.59,-382.9 -81.37,-157.4 -1294.24,295.9" /><path
         id="path416"
         style="fill:#abaaa9;fill-opacity:1;fill-rule:nonzero;stroke:none"
         d="m 4642.69,4400.5 v -457.6 l 1418.42,-430 c 0,0 224.68,-70.8 387.41,245.1 162.73,315.8 366.93,765.1 366.93,765.1 l -181.59,392 -517.23,-1000.4 -1473.94,485.8" /><path
         id="path418"
         style="fill:#c9c8c6;fill-opacity:1;fill-rule:nonzero;stroke:none"
         d="m 6496.5,4649.5 c 0,0 116.39,-112.5 51.51,-295.7 l -945.44,-103.3 c 0,0 -95.69,80.7 -46.85,298.9 l 940.78,100.1" /><path
         id="path420"
         style="fill:#535456;fill-opacity:1;fill-rule:nonzero;stroke:none"
         d="m 5680.67,4410.4 c 6.74,-60.3 -9.2,-111.5 -35.6,-114.5 -26.4,-2.9 -53.26,43.5 -60.01,103.8 -6.74,60.3 9.2,111.5 35.6,114.5 26.4,3 53.27,-43.5 60.01,-103.8" /><path
         id="path422"
         style="fill:#c9c8c6;fill-opacity:1;fill-rule:nonzero;stroke:none"
         d="m 4902.26,6186.7 c 0,0 -18.15,-254.2 25.41,-363.1 43.57,-108.9 189.15,-123.4 228.9,-174.2 39.75,-50.9 94.2,-236 210.37,-192.4 116.18,43.5 199.67,450.1 199.67,450.1 l 337.63,47.2 c 0,0 54.45,134.3 -29.04,181.5 -83.51,47.2 -341.26,116.2 -395.71,116.2 -54.46,0 -497.36,-14.5 -577.23,-65.3" /><path
         id="path424"
         style="fill:#535456;fill-opacity:1;fill-rule:nonzero;stroke:none"
         d="m 4978.5,6032.4 c 0,-49.1 -28.45,-89 -63.53,-89 -35.09,0 -63.53,39.9 -63.53,89 0,49.1 28.44,88.9 63.53,88.9 35.08,0 63.53,-39.8 63.53,-88.9" /><path
         id="path426"
         style="fill:#535456;fill-opacity:1;fill-rule:nonzero;stroke:none"
         d="m 5509.32,6073.5 c 0,-49.1 -28.44,-88.9 -63.53,-88.9 -35.09,0 -63.53,39.8 -63.53,88.9 0,49.2 28.44,89 63.53,89 35.09,0 63.53,-39.8 63.53,-89" /><path
         id="path428"
         style="fill:#535456;fill-opacity:1;fill-rule:nonzero;stroke:none"
         d="m 5350.44,5703.9 c 0,-49.1 -28.45,-88.9 -63.54,-88.9 -35.08,0 -63.53,39.8 -63.53,88.9 0,49.1 28.45,89 63.53,89 35.09,0 63.54,-39.9 63.54,-89" /><g
         transform="scale(1.01364)"
         id="g430"><path
           id="path432"
           style="fill:#bebdbb;fill-opacity:1;fill-rule:nonzero;stroke:none"
           d="m 7307.55,15671.4 h -168.09 v 628.6 h 168.09 v -628.6" /></g><path
         id="path434"
         style="fill:#898b8b;fill-opacity:1;fill-rule:nonzero;stroke:none"
         d="m 6801.16,15939.6 h 762.15 l 789.83,-206.9 168.81,287.2 -860.63,241 h -860.16 v -321.3" /><path
         id="path436"
         style="fill:#fbc398;fill-opacity:1;fill-rule:nonzero;stroke:none"
         d="m 9093.73,12187.6 98.02,403 c 0,0 79.15,110.7 145.76,194.2 66.62,83.5 70.24,179.7 70.24,179.7 0,0 50.83,232.4 39.94,277.8 -10.89,45.3 -74.42,45.3 -74.42,45.3 0,0 -63.82,41.8 -101.8,52.7 -37.97,10.9 -63.38,0 -63.38,0 0,0 -78.06,34.5 -90.76,36.3 -12.71,1.8 -63.53,-10.9 -63.53,-10.9 0,0 -63.54,29 -112.55,21.8 -49,-7.3 -123.43,-94.4 -123.43,-94.4 0,0 -30.85,-248.7 -34.49,-259.6 -3.62,-10.9 -61.71,-580.8 -47.19,-608.1 14.52,-27.2 53.01,-143.5 81.68,-152.5 28.67,-9 275.91,-85.3 275.91,-85.3" /><path
         id="path438"
         style="fill:#252323;fill-opacity:1;fill-rule:nonzero;stroke:none"
         d="m 8747.03,13260.4 c 5.45,1.8 127.06,-18.1 127.06,-18.1 v -99.9 l -52.63,-103.5 c 0,0 -41.75,-38.2 -62.63,10.9 -20.88,49.1 -11.8,210.6 -11.8,210.6" /><path
         id="path440"
         style="fill:#100f0d;fill-opacity:1;fill-rule:nonzero;stroke:none"
         d="m 3095.44,13106.1 489.23,23.6 -54.45,-225.1 -434.78,-29 v 230.5" /><path
         id="path442"
         style="fill:#fbc398;fill-opacity:1;fill-rule:nonzero;stroke:none"
         d="m 2566.36,12303.8 388.45,32.7 72.61,-435.7 c 0,0 -3.64,-1205.2 0,-1314.2 3.62,-108.9 -76.24,-203.3 -76.24,-203.3 0,0 -137.96,32.7 -185.15,243.3 -47.2,210.5 -185.15,766 -177.89,943.9 7.27,177.9 -21.78,733.3 -21.78,733.3" /><path
         id="path444"
         style="fill:#fbc398;fill-opacity:1;fill-rule:nonzero;stroke:none"
         d="m 2769.66,12147.7 -203.3,156.1 c 0,0 -121.62,548.2 -113.45,602.6 8.17,54.5 57.18,130.7 100.74,155.2 43.57,24.5 111.64,54.5 111.64,54.5 0,0 57.18,48.1 95.3,53.5 38.11,5.5 63.53,-7.2 72.6,0 9.08,7.3 96.2,32.7 114.36,32.7 18.15,0 34.02,-10.9 45.15,-10.9 11.12,0 72.83,10.9 92.8,0 19.97,-10.9 65.34,-143.4 74.42,-206.9 9.08,-63.5 9.08,-98.5 9.08,-98.5 0,0 94.39,-50.3 92.57,-142.9 -1.81,-92.6 -290.43,-359.4 -290.43,-359.4 l -16.33,-47.2 c 0,0 -44.84,-99.9 -97.75,-128.9 -52.91,-29 -87.4,-59.9 -87.4,-59.9" /><path
         id="path446"
         style="fill:#fbc398;fill-opacity:1;fill-rule:nonzero;stroke:none"
         d="m 4720.97,11447 c 0,0 -168.81,47.2 -430.19,21.8 -261.39,-25.4 -605.33,-304.9 -605.33,-304.9 l 60.78,-940.3 c 0,0 147.02,-20.9 275,20 127.96,40.8 262.06,138.8 262.06,138.8 l 110.95,-438.3 c 0,0 223.27,-130.7 381.19,0 157.92,130.7 599.01,314.3 441.08,737.1 -157.92,422.8 -495.54,765.8 -495.54,765.8" /><g
         transform="scale(1.0103)"
         id="g448"><path
           id="path450"
           style="fill:#bebdbb;fill-opacity:1;fill-rule:nonzero;stroke:none"
           d="m 4366.11,15723.3 h -126.47 v 576.7 h 126.47 v -576.7" /></g><path
         id="path452"
         style="fill:#db986b;fill-opacity:1;fill-rule:nonzero;stroke:none"
         d="m 4859.1,10505 c 0,0 -223.44,216 -263.37,237.8 -39.94,21.7 -312.44,-79.9 -312.44,-79.9 0,0 232.57,0 265.24,-18.2 32.68,-18.1 261.39,-330.3 261.39,-330.3 l 49.18,190.6" /><path
         id="path454"
         style="fill:#252323;fill-opacity:1;fill-rule:nonzero;stroke:none"
         d="m 3539.29,12187.6 -386.63,-27.2 c 0,0 -179.7,-25.9 -223.27,-190 -43.56,-164 -25.41,-1656 -25.41,-1656 0,0 7.27,-232.4 232.34,-250.5 225.09,-18.2 631.69,78.9 631.69,78.9 l -228.72,2044.8" /><path
         id="path456"
         style="fill:#100f0d;fill-opacity:1;fill-rule:nonzero;stroke:none"
         d="m 3172.46,10271.6 c 0,0 -18.15,1492.1 25.41,1656.1 43.57,164 223.27,189.9 223.27,189.9 l 125,8.8 -6.84,61.2 -386.64,-27.2 c 0,0 -179.7,-25.9 -223.27,-190 -43.56,-164 -25.41,-1656 -25.41,-1656 0,0 7.27,-232.4 232.34,-250.5 42.28,-3.4 90.96,-2.8 142.15,0.5 -101.68,72.3 -106.01,207.2 -106.01,207.2" /><path
         id="path458"
         style="fill:#494a4b;fill-opacity:1;fill-rule:nonzero;stroke:none"
         d="m 3685.45,15582.9 h -179.48 v -5393.8 h 179.48 v 5393.8" /><path
         id="path460"
         style="fill:#3e3d3f;fill-opacity:1;fill-rule:nonzero;stroke:none"
         d="m 3869.2,15582.9 h -183.75 v -5393.8 h 183.75 v 5393.8" /><path
         id="path462"
         style="fill:#100f0d;fill-opacity:1;fill-rule:nonzero;stroke:none"
         d="m 3822.46,10697 c 0,-48.9 -25.19,-88.6 -56.27,-88.6 -31.09,0 -56.28,39.7 -56.28,88.6 0,48.9 25.19,88.5 56.28,88.5 31.08,0 56.27,-39.6 56.27,-88.5" /><path
         id="path464"
         style="fill:#100f0d;fill-opacity:1;fill-rule:nonzero;stroke:none"
         d="m 3822.46,11510.8 c 0,-48.9 -25.19,-88.6 -56.27,-88.6 -31.09,0 -56.28,39.7 -56.28,88.6 0,48.9 25.19,88.5 56.28,88.5 31.08,0 56.27,-39.6 56.27,-88.5" /><path
         id="path466"
         style="fill:#db986b;fill-opacity:1;fill-rule:nonzero;stroke:none"
         d="m 2751.51,12822.9 c 9.08,-1.8 45.44,-34.5 45.44,-34.5 0,0 18.09,-23.5 52.58,-36.2 34.48,-12.8 96.2,-12.8 96.2,-12.8 0,0 -21.78,60 16.34,94.4 38.12,34.5 206.93,52.2 206.93,52.2 0,0 -181.52,-59.4 -190.6,-81.2 -9.07,-21.8 -9.07,-63.5 0,-81.7 9.08,-18.1 98.03,-69 98.03,-69 0,0 -107.1,45.4 -148.85,43.6 -41.75,-1.8 -83.5,-3.6 -117.99,29 -34.48,32.7 -99.83,81.7 -99.83,81.7 l 41.75,14.5" /><path
         id="path468"
         style="fill:#db986b;fill-opacity:1;fill-rule:nonzero;stroke:none"
         d="m 2736.99,13068 c 0,0 86.66,-87.1 133.18,-150.7 46.52,-63.5 75.56,-106.5 75.56,-106.5 l 32.67,23 c 0,0 -125.24,176.1 -241.41,234.2" /><path
         id="path470"
         style="fill:#db986b;fill-opacity:1;fill-rule:nonzero;stroke:none"
         d="m 2916.69,13093.4 139.77,-234.2 38.98,16.4 z" /><path
         id="path472"
         style="fill:#db986b;fill-opacity:1;fill-rule:nonzero;stroke:none"
         d="m 3036.49,13117 108.71,-239 23.8,8 z" /><path
         id="path474"
         style="fill:#abaaa9;fill-opacity:1;fill-rule:nonzero;stroke:none"
         d="m 3869.2,12009.7 h -159.29 v 849.5 h 159.29 v -849.5" /><path
         id="path476"
         style="fill:#797a7b;fill-opacity:1;fill-rule:nonzero;stroke:none"
         d="m 4028.5,12009.7 h -159.3 v 849.5 h 159.3 v -849.5" /><path
         id="path478"
         style="fill:#100f0d;fill-opacity:1;fill-rule:nonzero;stroke:none"
         d="m 3985.83,12631 c 0,-40.8 -17.68,-73.9 -39.48,-73.9 -21.81,0 -39.48,33.1 -39.48,73.9 0,40.9 17.67,74 39.48,74 21.8,0 39.48,-33.1 39.48,-74" /><path
         id="path480"
         style="fill:#100f0d;fill-opacity:1;fill-rule:nonzero;stroke:none"
         d="m 3985.83,12250.7 c 0,-40.9 -17.68,-74 -39.48,-74 -21.81,0 -39.48,33.1 -39.48,74 0,40.8 17.67,73.9 39.48,73.9 21.8,0 39.48,-33.1 39.48,-73.9" /><path
         id="path482"
         style="fill:#797a7b;fill-opacity:1;fill-rule:nonzero;stroke:none"
         d="m 4070.23,15759.9 213.06,179.7 356,13.6 v 324 l -618.06,-65.3 c 0,0 -235.76,-128 -241.77,-149.8 -6.01,-21.8 -55.02,-136.1 -14.18,-193.3 40.84,-57.2 304.95,-108.9 304.95,-108.9" /><path
         id="path484"
         style="fill:#252323;fill-opacity:1;fill-rule:nonzero;stroke:none"
         d="m 4258.11,15885.1 h 181.06 v -223.2 h -181.06 v 223.2" /><path
         id="path486"
         style="fill:#fbc398;fill-opacity:1;fill-rule:nonzero;stroke:none"
         d="m 6385.49,11530.5 c 0,0 188.78,21.8 457.43,0 268.64,-21.7 569.96,-210.5 569.96,-210.5 0,0 214.19,83.5 421.12,94.4 206.93,10.9 439.27,15.7 439.27,15.7 v -836.2 c 0,0 -417.49,-90.7 -428.38,-90.7 -10.89,0 -257.76,-83.5 -490.1,-50.9 -232.34,32.7 -580.85,210.6 -580.85,210.6 0,0 -499.43,301.3 -471.17,399.3 28.27,98 82.72,468.3 82.72,468.3" /><path
         id="path488"
         style="fill:#db986b;fill-opacity:1;fill-rule:nonzero;stroke:none"
         d="m 6817.5,10768.2 c 0,0 221.45,65.3 261.39,65.3 39.93,0 432.01,0 432.01,0 0,0 -381.19,-65.3 -392.08,-65.3 -10.89,0 -127.06,-105.3 -127.06,-105.3 l -174.26,105.3" /><path
         id="path490"
         style="fill:#fcd3b9;fill-opacity:1;fill-rule:nonzero;stroke:none"
         d="m 7131.53,11396.2 c 183.33,-72.6 230.52,-94.4 230.52,-94.4 l -74.61,-107.1 c 0,0 201.68,121.6 385.01,159.8 183.27,38.1 393.72,69.7 393.86,69.7 -71.73,-2.4 -153.83,-5.7 -232.31,-9.8 -206.93,-10.9 -421.12,-94.4 -421.12,-94.4 0,0 -301.32,188.8 -569.96,210.5 -82.29,6.7 -157.02,9.3 -221.19,9.7 5.86,-1.3 328.13,-72 509.8,-144" /><path
         id="path492"
         style="fill:#252323;fill-opacity:1;fill-rule:nonzero;stroke:none"
         d="m 8532.84,12367.3 c 0,0 -217.82,-12.1 -337.62,-87.7 -119.8,-75.6 -114.42,-175.5 -128.91,-375.1 -14.49,-199.7 18.18,-1241.6 18.18,-1241.6 0,0 -10.89,-246.9 235.97,-294.1 246.87,-47.2 653.47,-39.9 769.64,0 116.17,40 199.67,72.6 235.97,250.5 36.31,177.9 -25.41,1495.7 -25.41,1495.7 0,0 -47.19,181.5 -225.08,228.7 -177.89,47.2 -542.74,23.6 -542.74,23.6" /><path
         id="path494"
         style="fill:#100f0d;fill-opacity:1;fill-rule:nonzero;stroke:none"
         d="m 9300.66,12115 c 0,0 -47.19,181.5 -225.08,228.7 -100.58,26.7 -260.92,30.8 -381.3,29.2 103.66,-1.3 218.12,-8.4 296.4,-29.2 177.88,-47.2 225.08,-228.7 225.08,-228.7 0,0 61.72,-1317.8 25.41,-1495.7 -36.3,-177.9 -119.8,-210.5 -235.97,-250.5 -54.89,-18.8 -174.66,-30.4 -311.75,-32.4 170.92,-2.4 330.66,9.7 396.65,32.4 116.17,40 199.67,72.6 235.97,250.5 36.31,177.9 -25.41,1495.7 -25.41,1495.7" /><path
         id="path496"
         style="fill:#494a4b;fill-opacity:1;fill-rule:nonzero;stroke:none"
         d="m 8881.94,10448.3 -348.44,-6.8 -100.18,5131.5 348.44,6.8 100.18,-5131.5" /><path
         id="path498"
         style="fill:#100f0d;fill-opacity:1;fill-rule:nonzero;stroke:none"
         d="m 8755.22,11743.8 c 0,-37.4 -30.27,-67.7 -67.62,-67.7 -37.35,0 -67.63,30.3 -67.63,67.7 0,37.3 30.28,67.6 67.63,67.6 37.35,0 67.62,-30.3 67.62,-67.6" /><path
         id="path500"
         style="fill:#100f0d;fill-opacity:1;fill-rule:nonzero;stroke:none"
         d="m 8767.69,10929.4 c 0,-37.3 -30.28,-67.6 -67.63,-67.6 -37.35,0 -67.63,30.3 -67.63,67.6 0,37.4 30.28,67.7 67.63,67.7 37.35,0 67.63,-30.3 67.63,-67.7" /><path
         id="path502"
         style="fill:#abaaa9;fill-opacity:1;fill-rule:nonzero;stroke:none"
         d="m 8855.73,12190.8 -365.32,-6.6 -15.54,860.4 365.32,6.6 15.54,-860.4" /><path
         id="path504"
         style="fill:#100f0d;fill-opacity:1;fill-rule:nonzero;stroke:none"
         d="m 8758.83,12777.1 c 0,-47.4 -38.4,-85.8 -85.77,-85.8 -47.37,0 -85.77,38.4 -85.77,85.8 0,47.4 38.4,85.8 85.77,85.8 47.37,0 85.77,-38.4 85.77,-85.8" /><path
         id="path506"
         style="fill:#100f0d;fill-opacity:1;fill-rule:nonzero;stroke:none"
         d="m 8773.36,12417.9 c 0,-47.3 -38.39,-85.7 -85.76,-85.7 -47.37,0 -85.77,38.4 -85.77,85.7 0,47.4 38.4,85.8 85.77,85.8 47.37,0 85.76,-38.4 85.76,-85.8" /><path
         id="path508"
         style="fill:#252323;fill-opacity:1;fill-rule:nonzero;stroke:none"
         d="m 9248.02,12971.8 v 41.7 l 34.49,41.8 c 0,0 10.89,-47.2 34.49,-59.9 23.6,-12.7 56.27,-10.9 58.08,-3.6 1.82,7.2 47.2,150.8 47.2,150.8 l 154.29,-18.3 c 0,0 23.6,-128.9 -25.42,-196.1 l -303.13,43.6" /><path
         id="path510"
         style="fill:#db986b;fill-opacity:1;fill-rule:nonzero;stroke:none"
         d="m 9015.48,12770.3 c 2.02,7.3 -74.23,148.9 -74.23,148.9 0,0 226.9,0 246.87,0 19.97,0 59.9,52.6 59.9,52.6 l 60.73,-8.7 c 0,0 -67.99,-71.2 -102.48,-80.3 -34.49,-9 -219.63,0 -219.63,0 l 28.84,-112.5" /><path
         id="path512"
         style="fill:#db986b;fill-opacity:1;fill-rule:nonzero;stroke:none"
         d="m 8841.42,13106.1 c 0,0 134.32,-1.8 154.29,25.4 19.97,27.3 58.09,234.2 58.09,234.2 0,0 -18.16,-225.1 0,-248.7 18.15,-23.6 44.39,-36.3 71.2,-21.8 26.82,14.5 83.09,245.1 83.09,245.1 0,0 -36.31,-226.9 -23.6,-243.3 12.71,-16.3 65.34,-29 90.76,-16.3 25.41,12.7 98.02,206.9 98.02,206.9 l -90.76,-232.3 -34.49,-41.8 -70.79,38.2 c 0,0 -62.51,-5.5 -85.71,3.6 -23.2,9.1 -99.44,41.7 -99.44,41.7 l -170.62,-58.1 19.96,67.2" /><path
         id="path514"
         style="fill:#252323;fill-opacity:1;fill-rule:nonzero;stroke:none"
         d="m 7211.39,15877.9 h 219.64 v -219.6 h -219.64 v 219.6" /><path
         id="path516"
         style="fill:#5e6061;fill-opacity:1;fill-rule:nonzero;stroke:none"
         d="m 8825,15571.1 c 0.02,1.1 0.08,2.2 0.08,3.2 v 277.3 c 0,121.6 -98.55,220.1 -220.12,220.1 h -47.92 c -121.57,0 -220.13,-98.5 -220.13,-220.1 v -277.3 c 0,-1 0.07,-2.1 0.09,-3.2 h 488" /><path
         id="path518"
         style="fill:#252323;fill-opacity:1;fill-rule:nonzero;stroke:none"
         d="m 8665.41,15836.6 c 0,-46.6 -37.79,-84.4 -84.41,-84.4 -46.62,0 -84.41,37.8 -84.41,84.4 0,46.7 37.79,84.5 84.41,84.5 46.62,0 84.41,-37.8 84.41,-84.5" /><path
         id="path520"
         style="fill:#898b8b;fill-opacity:1;fill-rule:nonzero;stroke:none"
         d="m 3595.71,15994.1 c 0,0 398.28,242.3 425.52,255.9 27.22,13.6 618.06,27.2 618.06,27.2 l -509.16,-65.3 -307.63,-192 -226.79,-25.8" /><path
         id="path522"
         style="fill:#5e6061;fill-opacity:1;fill-rule:nonzero;stroke:none"
         d="m 3919.93,15582.9 h -535.16 v 437 h 535.16 v -437" /><path
         id="path524"
         style="fill:#494a4b;fill-opacity:1;fill-rule:nonzero;stroke:none"
         d="M 4083.85,15582.9 H 3822.5 v 437 h 261.35 v -437" /><path
         id="path526"
         style="fill:#252323;fill-opacity:1;fill-rule:nonzero;stroke:none"
         d="m 4021.23,15841.6 c 0,-45.1 -25.6,-81.7 -57.19,-81.7 -31.57,0 -57.17,36.6 -57.17,81.7 0,45.1 25.6,81.7 57.17,81.7 31.59,0 57.19,-36.6 57.19,-81.7" /><path
         id="path528"
         style="fill:#100f0d;fill-opacity:1;fill-rule:nonzero;stroke:none"
         d="m 2566.36,12857.4 -10.91,70.9 107.11,34.4 c 0,0 41.75,-9.1 74.43,-52.6 32.67,-43.6 59.96,-121.7 59.96,-121.7 l -188.82,-49 -41.77,118" /><path
         id="path530"
         style="fill:#252323;fill-opacity:1;fill-rule:nonzero;stroke:none"
         d="m 2649.1,12852.6 c 14.55,-52.1 -3.79,-102.8 -40.97,-113.2 -37.18,-10.3 -79.11,23.5 -93.65,75.7 -14.55,52.1 3.79,102.8 40.97,113.2 37.18,10.3 79.11,-23.5 93.65,-75.7" /><path
         id="path532"
         style="fill:#100f0d;fill-opacity:1;fill-rule:nonzero;stroke:none"
         d="m 6460.82,6898 c 13.61,0 451.98,25 484.65,0 32.67,-25 56.05,-536.7 43,-559.3 -13.05,-22.6 -549.43,-40.4 -549.43,-40.4 l 21.78,599.7" /><path
         id="path534"
         style="fill:#fbc398;fill-opacity:1;fill-rule:nonzero;stroke:none"
         d="m 5548.69,6099.5 c 0,0 103.47,-76.2 245.05,-108.9 0,0 -168.81,-315.8 -245.05,-609.9 -76.23,-294 103.47,-773.2 163.37,-1132.6 59.9,-359.4 81.68,-735.2 81.68,-735.2 l 430.2,27.2 c 0,0 -9.08,660.8 114.36,980.2 123.43,319.5 192.4,472 196.03,791.4 3.63,319.5 -3.63,472 0,562.8 3.63,90.7 48.36,239.6 36.89,515.5 -11.47,275.9 -75,450.1 -75,450.1 0,0 -844.06,125.3 -947.53,-740.6" /><path
         id="path536"
         style="fill:#fbc398;fill-opacity:1;fill-rule:nonzero;stroke:none"
         d="m 8407.59,7281.2 174.26,-206.9 c 0,0 272.28,-212.4 299.5,-462.9 27.23,-250.5 -141.58,-925.7 -141.58,-925.7 0,0 -141.58,-686.2 -277.72,-1165.4 -136.14,-479.2 -185.15,-833.1 -185.15,-833.1 l -424.75,38.1 c 0,0 -32.67,593.5 -59.9,1045.5 -27.23,452 -136.14,511.9 -43.56,762.4 92.57,250.5 397.52,735.1 397.52,735.1 0,0 -321.29,-49 -539.11,5.5 -217.82,54.4 92.58,914.8 217.82,942.1 125.25,27.2 582.67,65.3 582.67,65.3" /><path
         id="path538"
         style="fill:#252323;fill-opacity:1;fill-rule:nonzero;stroke:none"
         d="m 4851.67,8065.4 c 0,0 -81.68,-283.2 -87.13,-326.8 -5.45,-43.5 0,-261.4 0,-261.4 0,0 -89.55,-626.2 42.35,-844 131.9,-217.8 404.18,-272.3 464.08,-321.3 59.9,-49 277.72,-212.4 277.72,-212.4 0,0 27.23,419.3 343.07,604.5 315.84,185.1 604.46,136.1 604.46,136.1 0,0 337.62,-397.5 381.18,-457.4 43.57,-59.9 539.11,-174.3 887.62,-179.7 0,0 103.47,501 283.17,751.5 179.7,250.5 359.4,326.7 359.4,326.7 0,0 -348.51,375.8 -539.1,479.2 -190.59,103.5 -751.48,147.1 -789.6,168.8 -38.12,21.8 -239.61,212.4 -239.61,212.4 0,0 -1581.26,98 -1691.86,70.8 -110.61,-27.2 -295.75,-147 -295.75,-147" /><path
         id="path540"
         style="fill:#3a70c0;fill-opacity:1;fill-rule:nonzero;stroke:none"
         d="m 4897.05,11530.5 -176.08,-83.5 c 0,0 121.62,-393.3 88.04,-828.3 -33.58,-435 -414.77,-674.6 -414.77,-674.6 0,0 59.9,-337.6 168.81,-539.1 108.91,-201.5 332.18,-544.6 370.3,-735.2 38.12,-190.6 -38.12,-381.2 -54.46,-457.4 -16.33,-76.2 -27.22,-147 -27.22,-147 0,0 718.8,-196.1 1203.46,-207 484.65,-10.9 822.27,163.4 838.61,196.1 16.33,32.6 32.67,136.1 21.78,219.6 -10.89,83.5 -14.52,98 -18.15,127.1 -3.63,29 -61.72,272.2 -36.31,657.1 25.42,384.8 57.99,853.1 57.99,853.1 0,0 65.45,210.6 72.71,381.2 7.26,170.6 0,370.3 0,370.3 0,0 -304.95,239.6 -430.2,452 -125.25,212.3 -176.07,415.6 -176.07,415.6 H 5935.33 4897.05" /><path
         id="path542"
         style="fill:#fbc398;fill-opacity:1;fill-rule:nonzero;stroke:none"
         d="m 5187.06,12279.6 c 0,0 43.15,-269.9 0,-404.2 -43.15,-134.3 -290.01,-344.9 -290.01,-344.9 0,0 478.88,-1033 1052.8,-954.7 519.14,70.8 312.21,873.3 312.21,873.3 0,0 -134.33,146.8 -156.11,175.8 -21.78,29.1 3.63,548.2 3.63,548.2 0,0 -415.13,464.7 -512.51,453.8 -97.39,-10.9 -380.56,-90.8 -384.18,-101.6 -3.63,-10.9 -25.83,-245.7 -25.83,-245.7" /><path
         id="path544"
         style="fill:#db986b;fill-opacity:1;fill-rule:nonzero;stroke:none"
         d="m 5302.51,12264.8 c 0,0 61.03,-210.6 153.61,-344 92.57,-133.4 391.95,-249.5 642.51,-244.5 l 27.29,367 -823.41,221.5" /><path
         id="path546"
         style="fill:#252323;fill-opacity:1;fill-rule:nonzero;stroke:none"
         d="m 6194.48,13699 c -227.69,130.6 -468.7,107.2 -595.76,76.6 -127.06,-30.6 -333.13,-105.9 -333.14,-105.9 -53.39,-20.9 -107.69,-45 -140.27,-80.4 -52.11,-56.5 -61.53,-111.3 -61.53,-111.3 0,0 -182.43,-29.8 -201.31,-281.3 -18.89,-251.4 45.43,-453.1 100.72,-593.7 55.28,-140.6 223.87,-323.4 223.87,-323.4 l 167.26,347.9 c 167.61,-75 358.97,339.3 337.8,381.6 -13.42,26.8 501.37,142.8 501.37,142.8 l 119.97,60.3 c 0,0 56.63,159.7 -13.63,333.7 -22.05,54.6 -61.54,107 -105.35,153.1" /><path
         id="path548"
         style="fill:#fbc398;fill-opacity:1;fill-rule:nonzero;stroke:none"
         d="m 6246.6,13302.8 c 0,0 54.14,-64.9 66.86,-90.6 12.7,-25.7 31.13,-263 37.46,-323 6.34,-60 -5.87,-142.1 -4.67,-171.2 1.18,-29.1 12.34,-207.4 7.44,-277.6 -4.92,-70.1 -71.43,-344.9 -93.73,-417.7 -22.28,-72.8 -55.27,-169.4 -89.4,-190.2 -34.12,-20.8 -187.07,-34.8 -324.54,0.4 -137.47,35.2 -410.61,204.8 -486.27,296.9 -75.66,92.1 -74.03,290.4 -74.03,290.4 0,0 -55.63,-17.8 -116.21,38 -60.57,55.8 -158.84,178.1 -145.14,318.6 13.71,140.5 122.46,94.4 179.08,40.3 56.61,-54 62.04,-139.3 73.76,-140.7 11.72,-1.5 23.2,2.8 28.94,5 5.74,2.2 27.04,146.9 27.8,176 0.75,29.2 -12.2,203.6 -8.55,209.6 3.64,5.9 141.05,186.4 186.89,205.8 45.85,19.4 734.31,30 734.31,30" /><path
         id="path550"
         style="fill:#fbc398;fill-opacity:1;fill-rule:nonzero;stroke:none"
         d="m 5793.74,3512.9 c 0,0 -38.11,-114.3 -38.11,-163.4 0,-49 43.56,-103.4 38.11,-138.8 -5.44,-35.4 -36.3,-209.7 -10.89,-273.2 25.41,-63.5 68.98,-105.3 76.24,-157.9 7.26,-52.7 3.63,-114.4 56.27,-154.3 52.64,-39.9 87.13,-39.9 92.57,-43.6 5.45,-3.6 43.11,-39.5 82.59,-42.2 39.48,-2.7 72.16,13.6 72.16,13.6 0,0 20.42,-17.7 57.17,-24.5 36.76,-6.8 72.16,12.3 72.16,12.3 0,0 39.48,-15.2 72.15,-13.7 32.68,1.4 32.68,1.4 32.68,1.4 0,0 72.15,-25.8 106.18,-19 34.04,6.8 44.93,20.4 44.93,20.4 0,0 70.79,-31.3 147.03,2.7 76.24,34 47.65,156.6 23.14,192 -24.51,35.4 -55.82,59.9 -66.71,84.4 -10.89,24.5 -250.49,352.6 -334.9,510.5 -84.41,157.9 -133.41,343.1 -133.41,343.1 l -389.36,-149.8" /><path
         id="path552"
         style="fill:#db986b;fill-opacity:1;fill-rule:nonzero;stroke:none"
         d="m 6411.89,2652.5 c -20.34,51.7 -64.07,110.3 -64.07,110.3 0,0 32.68,-91.2 36.76,-99.4 4.09,-8.2 12.25,-134.8 12.25,-134.8 0,0 23.31,-8.3 49.67,-14.3 -8.51,39.8 -20.21,101.6 -34.61,138.2" /><path
         id="path554"
         style="fill:#db986b;fill-opacity:1;fill-rule:nonzero;stroke:none"
         d="m 6176.29,2623.9 c -9.53,35.4 -69.14,88.5 -69.14,88.5 l 55.53,-159.3 c 0,0 14.14,-12 39.72,-20 -9.59,30.9 -20.7,70.7 -26.11,90.8" /><path
         id="path556"
         style="fill:#db986b;fill-opacity:1;fill-rule:nonzero;stroke:none"
         d="m 6306.98,2638.9 c -10.89,43.6 -65.34,85.8 -65.34,85.8 0,0 24.5,-61.3 29.95,-74.9 5.44,-13.6 20.42,-108.9 20.42,-108.9 0,0 18.07,-7 39.88,-11 -8.63,35.2 -18.45,83.1 -24.91,109" /><path
         id="path558"
         style="fill:#db986b;fill-opacity:1;fill-rule:nonzero;stroke:none"
         d="m 6573.81,2644.3 c -14.97,40.9 -70.79,118.5 -70.79,118.5 0,0 23.15,-99.4 27.23,-119.8 4.08,-20.4 17.7,-113 17.7,-113 0,0 32.17,-14.2 76.43,-13 -17.55,43.2 -41.52,102.7 -50.57,127.3" /><path
         id="path560"
         style="fill:#fbc398;fill-opacity:1;fill-rule:nonzero;stroke:none"
         d="m 7852.15,3725.3 c 0,0 -243.23,-381.2 -185.15,-522.8 58.09,-141.6 428.39,-134.3 522.78,-156.1 94.38,-21.8 141.58,-152.5 254.12,-196 112.54,-43.6 101.65,0 188.78,-21.8 87.12,-21.8 131.6,-48.1 216,-20.9 84.41,27.2 89.86,43.6 89.86,43.6 0,0 51.72,-5.5 73.51,51.7 21.78,57.2 -40.84,177 -92.58,209.7 -51.73,32.6 -155.19,122.5 -291.33,196 -136.14,73.5 -351.24,378.5 -351.24,378.5 0,0 -193.32,70.8 -223.27,70.8 -29.94,0 -201.48,-32.7 -201.48,-32.7" /><path
         id="path562"
         style="fill:#db986b;fill-opacity:1;fill-rule:nonzero;stroke:none"
         d="m 8919.47,2990.1 c -46.28,38.2 -147.02,89.9 -147.02,89.9 0,0 51.73,-57.2 111.88,-114.4 60.15,-57.1 54.21,-114.3 54.21,-114.3 0,0 39.89,-4.2 64.36,33.5 -18.19,29.2 -51.83,79.3 -83.43,105.3" /><path
         id="path564"
         style="fill:#100f0d;fill-opacity:1;fill-rule:nonzero;stroke:none"
         d="m 6945.47,6898 c -32.67,25 -471.04,0 -484.65,0 l 35.4,-57.9 142.78,-261.4 v -272.2 c 153.94,7.3 341.82,19 349.47,32.2 13.05,22.6 -10.33,534.3 -43,559.3" /><path
         id="path566"
         style="fill:#252323;fill-opacity:1;fill-rule:nonzero;stroke:none"
         d="M 6922.15,15411.4 H 6471.6 v 171.5 h 450.55 v -171.5" /></g></g></svg>