<?xml version="1.0" encoding="UTF-8" standalone="no"?>
<svg
   xmlns:dc="http://purl.org/dc/elements/1.1/"
   xmlns:cc="http://creativecommons.org/ns#"
   xmlns:rdf="http://www.w3.org/1999/02/22-rdf-syntax-ns#"
   xmlns:svg="http://www.w3.org/2000/svg"
   xmlns="http://www.w3.org/2000/svg"
   viewBox="0 0 2666.6667 2666.6667"
   height="2666.6667"
   width="2666.6667"
   xml:space="preserve"
   id="svg2"
   version="1.1"><metadata
     id="metadata8"><rdf:RDF><cc:Work
         rdf:about=""><dc:format>image/svg+xml</dc:format><dc:type
           rdf:resource="http://purl.org/dc/dcmitype/StillImage" /></cc:Work></rdf:RDF></metadata><defs
     id="defs6" /><g
     transform="matrix(1.3333333,0,0,-1.3333333,0,2666.6667)"
     id="g10"><g
       transform="scale(0.1)"
       id="g12"><g
         transform="scale(1.22699)"
         id="g14"><path
           id="path16"
           style="fill:none;fill-opacity:1;fill-rule:nonzero;stroke:none"
           d="M 16300,0 H 0 V 16300 H 16300 V 0" /></g><g
         transform="scale(1.02856)"
         id="g18"><path
           id="path20"
           style="fill:#bebdbb;fill-opacity:1;fill-rule:nonzero;stroke:none"
           d="m 12232.7,16039.5 c 0,0 9.4,187.7 29,224.1 19.6,36.4 182.1,25.2 182.1,25.2 0,0 78.3,-179.2 67.2,-229.7 -11.2,-50.4 57.3,-116.2 -92.5,-95.2 -149.7,21.1 -185.8,75.6 -185.8,75.6" /></g><g
         transform="scale(1.03598)"
         id="g22"><path
           id="path24"
           style="fill:#6e7373;fill-opacity:1;fill-rule:nonzero;stroke:none"
           d="m 12271.1,15927.4 c 0,0 -55.6,250.3 69.6,311.4 125.1,61.2 733,22.3 733,22.3 l 23.3,-50.1 c 0,0 111.2,-176.8 97.3,-247 -13.9,-70.2 383.9,-280.5 -152.9,-239.3 -536.8,41.3 -881.5,99.1 -895.4,110.6 -13.9,11.5 125.1,92.1 125.1,92.1" /></g><g
         transform="scale(1.0394)"
         id="g26"><path
           id="path28"
           style="fill:#5c6060;fill-opacity:1;fill-rule:nonzero;stroke:none"
           d="m 15158.3,16237.2 40.7,62.8 h 188.5 c 0,0 77.2,-44.3 86.6,-155.2 9.4,-110.8 -157.9,-262.4 -157.9,-262.4 0,0 -150.2,47 -183.7,61.4 -33.5,14.3 -66.5,86.5 -40.6,147.4 25.8,61 66.4,146 66.4,146" /></g><g
         transform="scale(1.0394)"
         id="g30"><path
           id="path32"
           style="fill:#bebdbb;fill-opacity:1;fill-rule:nonzero;stroke:none"
           d="m 15387.5,16300 h -39.3 c -16.1,-34.2 -29,-76.3 -30.9,-125.6 -3.2,-80.4 29.5,-165.1 59.6,-228.8 46.8,54.3 102.8,133.8 97.2,199.2 -9.4,110.8 -86.6,155.2 -86.6,155.2" /></g><g
         transform="scale(1.0394)"
         id="g34"><path
           id="path36"
           style="fill:#6e7373;fill-opacity:1;fill-rule:nonzero;stroke:none"
           d="m 14257.7,16207.6 c 0,0 2.7,59.1 76.6,73.9 73.9,14.8 864.7,18.5 864.7,18.5 v -358.9 c 0,0 -495.2,-95.6 -631.9,-95.6 -136.7,0 -252.1,77.9 -291.9,98.3 -39.7,20.3 -151.5,79.1 -125.6,129 25.9,49.8 108.1,134.8 108.1,134.8" /></g><g
         transform="scale(1.03351)"
         id="g38"><path
           id="path40"
           style="fill:#4b4e4e;fill-opacity:1;fill-rule:nonzero;stroke:none"
           d="m 13128.4,16249.8 c 0,0 -52.5,-247.7 0,-345.5 H 14339 v 395.7 l -1210.6,-50.2" /></g><g
         transform="scale(1.0169)"
         id="g42"><path
           id="path44"
           style="fill:#3b3e3e;fill-opacity:1;fill-rule:nonzero;stroke:none"
           d="m 11859.6,15710.8 c 0,0 -352.4,39.6 -380.7,249.3 -28.4,209.6 898.1,339.9 1528.4,294.6 630.1,-45.3 920.1,-240 681.1,-388.8 -239.1,-148.9 -1828.8,-155.1 -1828.8,-155.1" /></g><g
         transform="scale(1.02701)"
         id="g46"><path
           id="path48"
           style="fill:#3b3e3e;fill-opacity:1;fill-rule:nonzero;stroke:none"
           d="m 14035.2,15744.3 c 0,0 -354.3,37.4 -382.8,235.1 -28.5,197.7 903.1,320.6 1536.7,277.9 633.6,-42.8 925.2,-226.3 684.9,-366.7 -240.4,-140.4 -1838.8,-146.3 -1838.8,-146.3" /></g><path
         id="path50"
         style="fill:#6e7373;fill-opacity:1;fill-rule:nonzero;stroke:none"
         d="m 13227.1,15847.6 1706.6,-291.9 109.2,334.2 -1399.7,252.8 -416.1,-295.1" /><path
         id="path52"
         style="fill:#6e7373;fill-opacity:1;fill-rule:nonzero;stroke:none"
         d="m 15313.9,15010.3 c 23.1,-30.7 115.3,-322.6 115.3,-322.6 l -326.5,-92.2 c 0,0 138.3,-167.6 145.9,-189.4 7.7,-21.8 818.1,-79.4 818.1,-79.4 0,0 211.3,-33.4 203.6,23 -7.7,56.4 -38.4,827.7 -80.7,938.1 -42.2,110.4 -357.2,554.1 -437.8,587.7 -80.7,33.6 -589.7,29.7 -589.7,29.7 0,0 -109.8,165.4 -119.2,-15.3 -9.3,-180.5 -55.7,-494.6 -17,-510.9 38.6,-16.2 182.4,-26.9 196.8,-17.2 14.4,9.6 18.3,328.3 18.3,328.3 0,0 276.2,-179.9 387.9,-236.7 111.6,-56.7 126.7,-439.2 145.9,-489.2 19.2,-49.9 19.2,-372.5 19.2,-372.5 l -278.8,266.9 -28.4,194 -172.9,-42.3" /><path
         id="path54"
         style="fill:#3b3e3e;fill-opacity:1;fill-rule:nonzero;stroke:none"
         d="m 15154.9,14738.4 274.3,-50.7 v -281.6 c 0,0 -205.8,-14.6 -224.5,35.8 -18.7,50.4 -49.8,296.5 -49.8,296.5" /><g
         transform="scale(1.00545)"
         id="g56"><path
           id="path58"
           style="fill:#959595;fill-opacity:1;fill-rule:nonzero;stroke:none"
           d="m 16300,14239.3 h -268.7 v 914.1 h 268.7 v -914.1" /></g><path
         id="path60"
         style="fill:#929393;fill-opacity:1;fill-rule:nonzero;stroke:none"
         d="m 15043.2,13821.6 c 0,0 -285.2,-509.9 -302.5,-1002.4 -17.3,-492.6 -60.5,-2047.9 -60.5,-2047.9 l 155.6,-173.1 c 0,0 169.9,61 167,173.1 -2.9,112.1 -46.1,2402.2 -46.1,2402.2 l 161.9,648.1 h -75.4" /><path
         id="path62"
         style="fill:#bcb9b7;fill-opacity:1;fill-rule:nonzero;stroke:none"
         d="m 9777.42,10595.3 c -21.83,16.4 -109.47,66.3 -109.47,66.3 v -203.4 l 127.69,-64.5 -18.22,201.6" /><path
         id="path64"
         style="fill:#fbc398;fill-opacity:1;fill-rule:nonzero;stroke:none"
         d="m 14161.7,5489.2 c 0,0 -511.3,-11.7 -501.2,-107.8 10,-96 -129.7,-1460.2 -129.7,-1543.8 0,-83.7 230.4,-282.5 230.4,-282.5 0,0 106.7,-351.1 279.5,282.5 172.8,633.6 216,1370.8 241.9,1490.5 26,119.6 -120.9,161.1 -120.9,161.1" /><path
         id="path66"
         style="fill:#fbc398;fill-opacity:1;fill-rule:nonzero;stroke:none"
         d="m 14171.9,5489.2 c 0,0 -511.3,-11.7 -501.2,-107.8 10.1,-96 -129.7,-1460.2 -129.7,-1543.8 0,-83.7 230.4,-282.5 230.4,-282.5 0,0 106.7,-351.1 279.5,282.5 172.8,633.6 216,1370.8 241.9,1490.5 26,119.6 -120.9,161.1 -120.9,161.1" /><path
         id="path68"
         style="fill:#f0fafb;fill-opacity:1;fill-rule:nonzero;stroke:none"
         d="m 13593.4,4540.3 c -31.7,-340.7 -62.6,-663.4 -62.6,-702.7 0,-83.7 230.4,-282.5 230.4,-282.5 0,0 106.7,-351.1 279.5,282.5 63.3,232.1 109.2,478.2 143.3,702.7 h -590.6" /><path
         id="path70"
         style="fill:#3970c0;fill-opacity:1;fill-rule:nonzero;stroke:none"
         d="m 13362,4279.1 c 0,0 -222,-491.6 -225.8,-610.7 -3.8,-119 225.8,-188.2 225.8,-188.2 0,0 1024.6,164.2 1052.3,191.6 27.8,27.4 169.9,96.5 219.8,192.5 49.9,96 73,291.9 49.9,332.3 -23,40.3 -368.7,82.5 -368.7,82.5 H 13362" /><path
         id="path72"
         style="fill:#a3a5a4;fill-opacity:1;fill-rule:nonzero;stroke:none"
         d="m 12560.1,5661.9 c 0,0 -50,-303.5 92.2,-353.4 142.1,-50 656.7,-23.1 656.7,-23.1 l -57.6,160.8 c 0,0 -387.9,-27.5 -426.3,0 -38.4,27.4 -26.9,254 -26.9,254 l -238.1,-38.3" /><g
         transform="scale(1.15361)"
         id="g74"><path
           id="path76"
           style="fill:#6f7474;fill-opacity:1;fill-rule:nonzero;stroke:none"
           d="m 16138.9,6145.59 h -1008.8 c 0,0 107.1,-770.71 107.4,-804.95 0.4,-34.15 11.4,-26.09 74,-78.71 62.4,-52.71 395.4,-226.68 575.2,-210.82 179.8,15.78 413.3,5.81 413.3,5.81 l -161.1,1088.67" /></g><g
         transform="scale(1.1074)"
         id="g78"><path
           id="path80"
           style="fill:#100f0d;fill-opacity:1;fill-rule:nonzero;stroke:none"
           d="m 15950.4,5481.49 c 53,-44.52 146.6,-124.07 146.6,-124.07 l 203,95.9 v 1018.97 l -1831.3,150.89 c 0,0 12.1,-223.68 39.8,-254.92 27.8,-31.25 1441.9,-886.77 1441.9,-886.77" /></g><g
         transform="scale(1.09361)"
         id="g82"><path
           id="path84"
           style="fill:#252323;fill-opacity:1;fill-rule:nonzero;stroke:none"
           d="M 14856.5,5526.66 16300,5424.98 v 1065.74 c 0,0 -1722.6,147.5 -1714.8,131.68 8,-15.82 271.3,-1095.74 271.3,-1095.74" /></g><g
         transform="scale(1.1498)"
         id="g86"><path
           id="path88"
           style="fill:#929393;fill-opacity:1;fill-rule:nonzero;stroke:none"
           d="m 16119.6,4957.54 v 260.74 l -2247.2,181.08 139,-405.9 c 0,0 874.8,-160.72 1405.1,-219.43 530.3,-58.62 703.1,0 703.1,0 0,0 165.4,-40.01 172.9,93.5 7.5,133.5 -172.9,90.01 -172.9,90.01" /></g><g
         transform="scale(1.13708)"
         id="g90"><path
           id="path92"
           style="fill:#767779;fill-opacity:1;fill-rule:nonzero;stroke:none"
           d="m 16300,4448.94 v 564.08 l -2385.4,204.56 47,-837.06 689.3,129.19 1649.1,-60.77" /></g><path
         id="path94"
         style="fill:#767779;fill-opacity:1;fill-rule:nonzero;stroke:none"
         d="m 15181.4,4782.3 v 362.9 h 466.7 c 0,0 -34.7,-138.2 -43.3,-181.5 -8.6,-43.2 -423.4,-181.4 -423.4,-181.4" /><path
         id="path96"
         style="fill:#4b4e4e;fill-opacity:1;fill-rule:nonzero;stroke:none"
         d="m 14740,8608.5 h 222.5 V 7449.7 H 14740 v 1158.8" /><path
         id="path98"
         style="fill:#4b4e4e;fill-opacity:1;fill-rule:nonzero;stroke:none"
         d="M 14962.5,4701.6 H 14740 v 2961.3 h 222.5 V 4701.6" /><path
         id="path100"
         style="fill:#bcb9b7;fill-opacity:1;fill-rule:nonzero;stroke:none"
         d="m 9777.42,10491.6 c 0,0 97.94,-535.8 118.1,-558.8 20.17,-23.1 146.88,-14.4 172.88,34.6 25.9,48.9 51.8,227.5 0,308.2 -51.9,80.6 -155.59,201.6 -170,216 -14.4,14.4 -120.98,0 -120.98,0" /><path
         id="path102"
         style="fill:#898b8b;fill-opacity:1;fill-rule:nonzero;stroke:none"
         d="m 12264.3,6360.8 c 0,0 -161.3,-99.8 -249.6,-195.8 -88.4,-96.1 -42.3,-495.5 -23.1,-522.4 19.2,-26.9 2650.2,-65.3 2715.5,-34.6 65.3,30.8 53.7,576.2 53.7,576.2 0,0 -1025.4,215 -1144.5,218.9 -119.1,3.8 -1352,-42.3 -1352,-42.3" /><path
         id="path104"
         style="fill:#717575;fill-opacity:1;fill-rule:nonzero;stroke:none"
         d="m 14761.4,6145.8 c -0.2,24 -0.6,38.4 -0.6,38.4 0,0 -1025.4,215 -1144.5,218.9 -119.1,3.8 -1352,-42.3 -1352,-42.3 0,0 -161.3,-99.8 -249.6,-195.8 -5,-5.5 -9.5,-12 -13.7,-19.2 h 2760.4" /><path
         id="path106"
         style="fill:#fbc398;fill-opacity:1;fill-rule:nonzero;stroke:none"
         d="m 12003.2,9717.7 c 0,0 -166.2,223.7 -241.1,347.6 -74.8,123.9 -112.3,181.5 -112.3,181.5 0,0 -198.8,-132.5 -437.8,-132.5 -239.1,0 -535.8,37.4 -535.8,37.4 0,0 -60.5,-49 -210.3,-49 -149.8,0 -250.6,11.6 -250.6,11.6 l -167.1,437.8 c 0,0 247.7,181.5 314,213.2 66.2,31.7 299.6,14.4 299.6,14.4 0,0 221.8,77.7 345.6,112.3 123.9,34.6 291,37.5 328.4,66.3 37.5,28.8 247.8,282.3 484,328.4 236.2,46.1 482.9,-21.2 482.9,-21.2 0,0 104.7,-601 55.7,-658.6 -48.9,-57.7 -355.2,-889.2 -355.2,-889.2" /><path
         id="path108"
         style="fill:#df9866;fill-opacity:1;fill-rule:nonzero;stroke:none"
         d="m 12061.7,10128.7 c -8.6,14.4 -155.5,313.8 -204.5,381.6 -49,67.7 -72,87.9 -72,87.9 0,0 213.2,-155.5 276.5,-288 63.4,-132.6 0,-181.5 0,-181.5" /><path
         id="path110"
         style="fill:#edaa7d;fill-opacity:1;fill-rule:nonzero;stroke:none"
         d="m 11165.9,10363.4 c -230.3,4.2 -229.7,189.5 -220.1,189.5 0.4,0 0.8,-0.2 1.1,-0.8 83.6,-123.8 219,-188.7 219,-188.7" /><path
         id="path112"
         style="fill:#df9866;fill-opacity:1;fill-rule:nonzero;stroke:none"
         d="m 10301.7,10393.7 c 0,0 34.6,-126.8 112.3,-141.2 0,0 -167,-34.5 -112.3,141.2" /><path
         id="path114"
         style="fill:#959595;fill-opacity:1;fill-rule:nonzero;stroke:none"
         d="m 14649.5,11102.3 c 16.8,-14.3 311.1,-71 430.1,-205.5 119.1,-134.4 -69.1,-2649.8 -111.3,-2815.1 -42.3,-165.3 -468.6,-353.5 -660.7,-368.9 -192,-15.4 -576.1,184.4 -576.1,184.4 0,0 251.6,2268 260.2,2327.5 8.7,59.5 657.8,877.6 657.8,877.6" /><path
         id="path116"
         style="fill:#767779;fill-opacity:1;fill-rule:nonzero;stroke:none"
         d="m 15079.6,10896.8 c -63.5,71.8 -177,121.4 -271.6,154.3 l 1.4,-1.5 c 119.1,-134.5 -69.1,-2649.9 -111.4,-2815.2 -42.2,-165.3 -468.5,-353.5 -660.6,-368.9 -81,-6.4 -196.1,25.4 -302.3,64.3 -2.3,-21.2 -3.6,-32.6 -3.6,-32.6 0,0 384.1,-199.8 576.1,-184.4 192.1,15.4 618.4,203.6 660.7,368.9 42.2,165.3 230.4,2680.7 111.3,2815.1" /><g
         transform="scale(1.02245)"
         id="g118"><path
           id="path120"
           style="fill:#3970c0;fill-opacity:1;fill-rule:nonzero;stroke:none"
           d="m 15161.8,4136.35 c 0,0 -240.5,-33.84 -300.5,-138.98 -60.2,-105.14 -18.8,-477.09 -56.3,-601.01 -37.7,-124.02 -71.4,-210.38 -26.3,-274.25 45,-63.86 458.2,-67.68 567.1,-30.02 109,37.56 109,131.45 285.5,146.41 176.5,15.07 495.9,105.24 582.2,259.28 86.5,153.95 -22.5,319.24 -97.6,360.61 -75.1,41.27 -187.8,30.02 -289.2,93.89 -101.4,63.87 -169.1,244.22 -187.9,263 -18.7,18.78 -240.4,71.3 -240.4,71.3 l -236.6,-150.23" /></g><g
         transform="scale(1.00218)"
         id="g122"><path
           id="path124"
           style="fill:#fbc398;fill-opacity:1;fill-rule:nonzero;stroke:none"
           d="m 15361.1,6258.83 c 0,0 -84.4,-360.21 -53.7,-720.52 30.6,-360.22 43.1,-954.22 23.4,-1157.38 -19.5,-203.06 -30.1,-245.26 -30.1,-245.26 0,0 114,-34.53 167.6,-149.47 53.7,-114.96 138,-195.48 291.3,-138 153.3,57.57 38.3,475.26 61.3,571.05 23,95.79 80.5,540.42 279.8,1008 199.3,467.48 172.5,1103.68 172.5,1191.79 0,88.21 7.6,429.26 -61.4,594.11 -69,164.74 -682.1,256.73 -682.1,256.73 0,0 -176.3,-490.52 -172.5,-505.89 3.9,-15.37 3.9,-705.16 3.9,-705.16" /></g><path
         id="path126"
         style="fill:#df9866;fill-opacity:1;fill-rule:nonzero;stroke:none"
         d="m 15578.9,6499.1 411,38.4 c 0,0 -305.8,-152.2 -364.9,-211.2 -59,-59.1 -122.9,-553.1 -122.9,-541.6 0,11.5 0,449.4 0,449.4 l 76.8,265" /><path
         id="path128"
         style="fill:#df9866;fill-opacity:1;fill-rule:nonzero;stroke:none"
         d="m 16124.3,6261 c 0,0 96.1,-230.5 -57.6,-434 0,0 57.6,188.2 57.6,434" /><path
         id="path130"
         style="fill:#f0fafb;fill-opacity:1;fill-rule:nonzero;stroke:none"
         d="m 15356.4,4312 c -14.6,-136.3 -22.3,-167.3 -22.3,-167.3 0,0 114.3,-34.6 168,-149.8 53.8,-115.2 138.3,-195.9 291.9,-138.3 124.6,46.7 72.5,330.6 60.5,487.6 -177.8,-20.8 -372.4,-29 -498.1,-32.2" /><path
         id="path132"
         style="fill:#252323;fill-opacity:1;fill-rule:nonzero;stroke:none"
         d="m 12114.5,7732 c 0,0 -165.1,-141.1 -294.7,-331.3 -129.7,-190.1 22,-893.9 294.7,-1024.5 272.7,-130.6 568.5,-138.3 798.9,-145.9 230.5,-7.7 862.3,-59.6 1144.6,-82.6 282.3,-23.1 455.1,-149.8 507,-161.3 51.8,-11.6 386,-74.9 564.6,-46.1 178.6,28.8 380.2,149.8 409,230.4 28.8,80.7 59.5,278.5 178.6,501.2 119.1,222.8 -126.7,798.9 -153.6,814.3 -26.9,15.4 -745.1,103.7 -825.8,134.4 -80.7,30.7 -88.3,50 -330.3,96 -242,46.1 -253.5,111.4 -253.5,111.4 0,0 -1159.9,261.2 -1378.8,253.5 -219,-7.7 -660.7,-349.5 -660.7,-349.5" /><path
         id="path134"
         style="fill:#3970c0;fill-opacity:1;fill-rule:nonzero;stroke:none"
         d="m 12731.7,11528.8 c -8.9,-10 -429,-263.3 -429,-263.3 0,0 -207.4,-357.1 -241.9,-775.8 -34.6,-418.6 -65.3,-745.1 -57.6,-772 7.6,-26.9 69.1,-249.7 103.7,-668.3 34.5,-418.6 3.8,-1305.9 7.6,-1317.4 3.9,-11.5 76.9,-7.7 268.9,-84.5 192,-76.8 311.1,-61.4 626.1,-34.6 314.9,26.9 583.8,146 772,172.9 188.1,26.9 372.5,42.2 372.5,42.2 0,0 126.8,1244.5 169,1328.9 42.3,84.5 122.9,403 122.9,403 l -537.7,1611.5 -203.6,136.4 -972.9,221" /><g
         transform="scale(1.02064)"
         id="g136"><path
           id="path138"
           style="fill:#100f0d;fill-opacity:1;fill-rule:nonzero;stroke:none"
           d="m 16242.1,9035.42 -40,0.59 57.8,3789.49 40.1,-0.6 -57.9,-3789.48" /></g><path
         id="path140"
         style="fill:#100f0d;fill-opacity:1;fill-rule:nonzero;stroke:none"
         d="m 15919.1,9037.9 h -40.8 v 4239.3 h 40.8 V 9037.9" /><g
         transform="scale(1.06022)"
         id="g142"><path
           id="path144"
           style="fill:#100f0d;fill-opacity:1;fill-rule:nonzero;stroke:none"
           d="m 16245.1,8445.32 -38.5,0.56 54.9,4077.42 38.5,-0.5 -54.9,-4077.48" /></g><g
         transform="scale(1.01939)"
         id="g146"><path
           id="path148"
           style="fill:#100f0d;fill-opacity:1;fill-rule:nonzero;stroke:none"
           d="m 16300,8884.86 h -115.9 v 229.84 h 115.9 v -229.84" /></g><g
         transform="scale(1.16006)"
         id="g150"><path
           id="path152"
           style="fill:#6e7373;fill-opacity:1;fill-rule:nonzero;stroke:none"
           d="m 15992.8,11134.9 -3025.4,-59.6 65.3,529.5 c 0,0 47.8,523.4 709.7,652.5 661.8,129.1 1878,42.4 1946.8,49.6 68.8,7.3 610.8,-688.6 610.8,-761.5 0,-72.8 0,-584.3 0,-584.3 l -307.2,173.8" /></g><g
         transform="scale(1.17137)"
         id="g154"><path
           id="path156"
           style="fill:#929393;fill-opacity:1;fill-rule:nonzero;stroke:none"
           d="m 15838.3,11027.3 139.5,137.8 c 0,0 -66.6,826.2 -619.8,929.5 -553.2,103.3 -1527,14.8 -1785.2,-44.2 -258.3,-59.1 -594.3,-414.4 -666,-557.6 -71.8,-143.3 -64.4,306.7 -64.4,306.7 0,0 214,257.4 486.9,342.7 273,85.2 1571.2,203.3 2028.7,136.9 457.5,-66.4 887.9,-624.7 942,-1212.4 l -247.1,-211.5 -214.6,172.1" /></g><g
         transform="scale(1.1749)"
         id="g158"><path
           id="path160"
           style="fill:#929393;fill-opacity:1;fill-rule:nonzero;stroke:none"
           d="m 15709.1,3423.09 66.2,127.51 v 1301.04 l 15.4,6142.56 146.5,39.2 H 16251 V 3545.66 l 49,-122.57 c 0,0 -284.4,-122.56 -590.9,0" /></g><path
         id="path162"
         style="fill:#fbc398;fill-opacity:1;fill-rule:nonzero;stroke:none"
         d="m 12779,11960.7 -15.4,-399 c 0,0 -165.1,-154 -203.5,-338.4 -38.4,-184.4 107.5,-307.3 518.5,-218.9 411,88.3 626,303.4 626,303.4 v 288.1 c 0,0 111.4,36.4 148.9,120 37.4,83.5 20.1,236.2 48.9,351.4 28.8,115.2 60.5,216.1 43.2,316.9 -17.2,100.8 -51.8,103.7 -40.3,167.1 11.5,63.3 25.9,43.2 31.7,172.8 5.8,129.6 -69.1,305.3 -69.1,305.3 0,0 -181.5,-14.4 -386,-164.2 -204.6,-149.8 -164.2,-48.9 -345.7,-313.9 -181.5,-265.1 -357.2,-590.6 -357.2,-590.6" /><path
         id="path164"
         style="fill:#2e619f;fill-opacity:1;fill-rule:nonzero;stroke:none"
         d="m 12352.1,10932.3 c 0,0 52.4,-118 187.8,-141.1 0,0 -197,-98.1 -187.8,141.1" /><path
         id="path166"
         style="fill:#2e619f;fill-opacity:1;fill-rule:nonzero;stroke:none"
         d="m 12779,9656.2 c 0,0 49.9,1074.6 76.8,1318.9 h -76.8 c 0,0 -40.3,-1076.9 0,-1318.9" /><path
         id="path168"
         style="fill:#4b4e4e;fill-opacity:1;fill-rule:nonzero;stroke:none"
         d="m 15169.9,10498 v 3652 h -334.1 l 51.8,-3695.8 282.3,43.8" /><g
         transform="scale(1.07841)"
         id="g170"><path
           id="path172"
           style="fill:#fbc398;fill-opacity:1;fill-rule:nonzero;stroke:none"
           d="m 12833,10402 c 0,0 -338.5,-261.9 -374.1,-664.31 -35.6,-402.46 235.1,-804.92 512.9,-893.94 277.7,-89.02 423.7,21.05 423.7,21.05 l 32.1,196.22 c 0,0 144.2,-40.99 297.4,-55.27 153.1,-14.19 313.4,10.76 313.4,10.76 0,0 288.5,-90.88 603.7,-94.4 315.2,-3.62 731,109.51 1123.7,243.04 392.6,133.58 534.2,184.33 534.2,184.33 l -32.1,376.63 c 0,0 -213.6,-66.78 -894.8,-42.74 -681.1,24.04 -900.1,-77.87 -900.1,-77.87 0,0 -138.9,126.7 -356,192.4 -185.2,56.05 -265.6,107.17 -265.6,107.17 0,0 -146,413.43 -470.1,496.93 -324.1,83.6 -548.3,0 -548.3,0" /></g><path
         id="path174"
         style="fill:#df9866;fill-opacity:1;fill-rule:nonzero;stroke:none"
         d="m 13974.5,10114.3 c 0,0 271.7,-259.3 506,-342.8 l -26.3,-160.7 c 0,0 -364.5,235.6 -479.7,503.5" /><path
         id="path176"
         style="fill:#df9866;fill-opacity:1;fill-rule:nonzero;stroke:none"
         d="m 13648.9,10454.2 c 0,0 184.4,-74.9 342.8,0 0,0 -115.2,-253.5 -342.8,0" /><path
         id="path178"
         style="fill:#fbc398;fill-opacity:1;fill-rule:nonzero;stroke:none"
         d="m 10096.4,10587.1 c 0,0 -134.62,126.3 -189.35,135 -54.74,8.6 -146.92,-117.3 -181.48,-135 -34.57,-17.7 -51.85,-58.2 0,-76.8 51.85,-18.7 51.85,-18.7 51.85,-18.7 l 167.07,-247.7 c 0,0 5.76,-106.6 25.93,-132.5 20.16,-25.9 77.78,-66.3 77.78,-66.3 l 20.2,-77.7 c 0,0 155.5,57.6 190.1,193 34.5,135.3 -162.1,426.7 -162.1,426.7" /><path
         id="path180"
         style="fill:#fbc398;fill-opacity:1;fill-rule:nonzero;stroke:none"
         d="m 9725.57,10510.3 c 0,0 -3.84,-156.8 9.6,-188.6 13.44,-31.7 11.52,-100.9 17.28,-131.6 5.76,-30.7 24.97,-71 24.97,-71 0,0 -5.76,-84.5 21.12,-121 26.89,-36.5 72.91,-34.3 83.5,-24.8 10.6,9.4 68.21,45.9 22.13,199.5 -46.09,153.7 -80.66,310 -88.34,337.5 -7.69,27.4 -90.26,0 -90.26,0" /><g
         transform="scale(1.13708)"
         id="g182"><path
           id="path184"
           style="fill:#a3a5a4;fill-opacity:1;fill-rule:nonzero;stroke:none"
           d="m 12743.3,4692.2 -30.5,-597.94 1808.9,547.63 1778.3,-192.95 v -273.6 l -1692.3,217.85 -1894.9,-651.94 -62.4,-883.23 c 0,0 74.3,-39.93 57.3,-99.37 -16.9,-59.37 -175.6,-69.48 -344.5,-69.48 -168.9,0 -261,69.48 -261,69.48 0,0 0,477.71 0,487.82 0,10.12 159.7,1428.75 159.7,1428.75 l 481.4,16.98" /></g><path
         id="path186"
         style="fill:#bcb9b7;fill-opacity:1;fill-rule:nonzero;stroke:none"
         d="m 9525.84,11265.5 c 0,0 -201.64,-2012.5 -193.96,-2050.9 7.69,-38.4 55.7,-67.3 113.31,-71.1 57.61,-3.8 109.46,15.4 126.74,61.5 17.29,46 191.08,2060.5 191.08,2060.5 h -237.17" /><path
         id="path188"
         style="fill:#bcb9b7;fill-opacity:1;fill-rule:nonzero;stroke:none"
         d="m 9921.8,11507.5 h -530.38 v -242 h 530.38 v 242" /><path
         id="path190"
         style="fill:#6b7378;fill-opacity:1;fill-rule:nonzero;stroke:none"
         d="m 9714.04,11507.5 h -135.38 v 93.2 h 135.38 v -93.2" /><path
         id="path192"
         style="fill:#959595;fill-opacity:1;fill-rule:nonzero;stroke:none"
         d="m 9921.8,11265.5 h 385.7 l 1584.3,4255.7 h -386 L 9977.7,11386.5 h -75.45 l 19.55,-121" /><g
         transform="scale(1.10233)"
         id="g194"><path
           id="path196"
           style="fill:#fbc398;fill-opacity:1;fill-rule:nonzero;stroke:none"
           d="m 15915,9515.11 385,39.19 -52.3,-557.5 c 0,0 -102.7,90.62 -140.2,115 -37.5,24.39 -161.1,34.85 -161.1,34.85 0,0 -148.2,80.13 -155.1,128.92 -6.9,48.77 123.7,239.54 123.7,239.54" /></g><g
         transform="scale(1.09891)"
         id="g198"><path
           id="path200"
           style="fill:#6b7378;fill-opacity:1;fill-rule:nonzero;stroke:none"
           d="m 15602.8,10124 c 23.5,0 697.2,-21 697.2,-21 l -2.6,114.1 -694.6,14.4 V 10124" /></g><g
         transform="scale(1.11658)"
         id="g202"><path
           id="path204"
           style="fill:#6b7378;fill-opacity:1;fill-rule:nonzero;stroke:none"
           d="m 16300,10337.8 h -188.4 v -111.4 h 188.4 v 111.4" /></g><g
         transform="scale(1.1425)"
         id="g206"><path
           id="path208"
           style="fill:#fbc398;fill-opacity:1;fill-rule:nonzero;stroke:none"
           d="m 15844.5,9278.82 c 0,0 179.8,-13.44 215.1,-30.25 35.3,-16.81 84.1,-92.45 84.1,-100.86 0,-8.4 0,-110.93 0,-110.93 0,0 36.9,-18.49 47,-43.7 10.1,-25.22 10.1,-31.94 11.8,-43.7 1.7,-11.77 45.3,-40.34 60.5,-63.88 15.1,-23.54 37,-178.21 31.9,-226.88 -5,-48.75 -132.8,-131.12 -193.2,-139.52 -60.6,-8.4 -84.1,36.94 -84.1,36.94 0,0 -114.3,-8.41 -134.5,31.95 -20.1,40.34 -5,65.55 -5,65.55 0,0 -43.7,28.54 -50.5,70.64 -6.6,41.97 -11.6,179.35 -6.6,225.2 4.9,45.84 23.5,329.44 23.5,329.44" /></g><g
         transform="scale(1.13363)"
         id="g210"><path
           id="path212"
           style="fill:#df9866;fill-opacity:1;fill-rule:nonzero;stroke:none"
           d="m 16002.5,8721.31 c 13.5,16.94 145.6,69.42 201.5,152.46 55.9,83 66.1,233.78 66.1,233.78 l 29.9,-20.77 c 0,0 -13,-157.11 -72.2,-228.26 -59.3,-71.14 -225.3,-137.21 -225.3,-137.21" /></g><g
         transform="scale(1.1392)"
         id="g214"><path
           id="path216"
           style="fill:#df9866;fill-opacity:1;fill-rule:nonzero;stroke:none"
           d="m 16064,8580.83 c 0,0 111.9,74.17 156.2,124.74 44.4,50.56 29.2,269.74 29.2,269.74 l 30.3,-32.08 c 0,0 20.3,-134.81 -15.1,-217.39 -35.4,-82.6 -200.6,-145.01 -200.6,-145.01" /></g><path
         id="path218"
         style="fill:#898b8b;fill-opacity:1;fill-rule:nonzero;stroke:none"
         d="m 13170.8,5352.6 -30.8,-67.2 222,-215.1 c 0,0 -76.8,-1630.4 -111,-1688 -34.1,-57.6 -177.4,-144 -177.4,-144 0,0 304.3,-151 687.6,-101.5 v 2244.6 l -590.4,-28.8" /><g
         transform="scale(1.10592)"
         id="g220"><path
           id="path222"
           style="fill:#100f0d;fill-opacity:1;fill-rule:nonzero;stroke:none"
           d="m 15858.1,7418.62 c 31.2,-26.04 260.4,-218.73 260.4,-218.73 l 181.5,55.52 v 802.23 l -2192.3,114.65 -390.7,-133.74 2141.1,-619.93" /></g><g
         transform="scale(1.09361)"
         id="g224"><path
           id="path226"
           style="fill:#252323;fill-opacity:1;fill-rule:nonzero;stroke:none"
           d="m 13871.4,8129.06 v -739.11 l 2428.6,-109 v 737.47 l -2428.6,110.64" /></g><g
         transform="scale(1.04077)"
         id="g228"><path
           id="path230"
           style="fill:#252323;fill-opacity:1;fill-rule:nonzero;stroke:none"
           d="m 15527.8,8572.24 772.2,-30.46 v 202.06 l -761.2,19.41 -11,-191.01" /></g><path
         id="path232"
         style="fill:#39393a;fill-opacity:1;fill-rule:nonzero;stroke:none"
         d="m 15711.5,9120.5 v -190.2 l 449.3,-8.6 11.5,198.8 h -460.8" /><g
         transform="scale(1.0701)"
         id="g234"><path
           id="path236"
           style="fill:#39393a;fill-opacity:1;fill-rule:nonzero;stroke:none"
           d="m 15853.1,8504.13 446.9,-18.88 v -191.1 l -446.9,13.45 v 196.53" /></g><g
         transform="scale(1.04308)"
         id="g238"><path
           id="path240"
           style="fill:#4b4e4e;fill-opacity:1;fill-rule:nonzero;stroke:none"
           d="m 13444.2,14319.5 c 0,0 320.4,-549.6 408.7,-665.5 88.4,-116 370.2,-88.4 370.2,-88.4 h 320.3 l 1756.6,66.9 -398.6,178.6 h -1029.3 c 0,0 -113.3,19.5 -223.7,130 -110.6,110.5 -193.4,378.4 -193.4,378.4 h -1010.8" /></g><path
         id="path242"
         style="fill:#3b3e3e;fill-opacity:1;fill-rule:nonzero;stroke:none"
         d="m 15118.6,14276.7 c -129,113.2 -358,461.7 -483.2,659.7 h -612 c 0,0 334.2,-573.2 426.3,-694.2 92.2,-121 386.1,-92.2 386.1,-92.2 h 334.1 l 171.3,6.5 c -87.5,32.8 -168.6,72.8 -222.6,120.2" /><path
         id="path244"
         style="fill:#959595;fill-opacity:1;fill-rule:nonzero;stroke:none"
         d="m 12479.4,15233.1 c 0,0 -80.6,-63.4 -92.2,-190.1 -11.5,-126.8 92.2,-184.4 92.2,-184.4 l 3419.3,77.8 c 0,0 106.6,-20.2 129.6,187.2 23.1,207.4 -103.7,282.3 -103.7,282.3 l -3445.2,-172.8" /><path
         id="path246"
         style="fill:#bebdbb;fill-opacity:1;fill-rule:nonzero;stroke:none"
         d="m 16048.7,15171.2 c 0,-129.7 -61.3,-234.8 -136.9,-234.8 -75.7,0 -137,105.1 -137,234.8 0,129.6 61.3,234.7 137,234.7 75.6,0 136.9,-105.1 136.9,-234.7" /><path
         id="path248"
         style="fill:#4b4e4e;fill-opacity:1;fill-rule:nonzero;stroke:none"
         d="m 14929.9,15875.5 c 0,0 -30.8,-377.4 -42.3,-388.9 -11.5,-11.5 -205.3,-80.7 -205.3,-80.7 0,0 -17.1,-224.7 0,-250.6 17.1,-25.9 958.1,-12.5 965.8,0 7.7,12.5 -19.2,298.1 -19.2,298.1 l -459,83.1 -7.8,368.7 -232.2,-29.7" /><g
         transform="scale(1.00736)"
         id="g250"><path
           id="path252"
           style="fill:#5c6060;fill-opacity:1;fill-rule:nonzero;stroke:none"
           d="m 13818.1,16016.2 c 0,-156.7 -450.6,-283.8 -1006.5,-283.8 -555.9,0 -1006.6,127.1 -1006.6,283.8 0,156.7 450.7,283.8 1006.6,283.8 555.9,0 1006.5,-127.1 1006.5,-283.8" /></g><g
         transform="scale(1.00207)"
         id="g254"><path
           id="path256"
           style="fill:#6e7373;fill-opacity:1;fill-rule:nonzero;stroke:none"
           d="m 13738.5,16057.7 c 0,-133.8 -384.8,-242.3 -859.3,-242.3 -474.6,0 -859.4,108.5 -859.4,242.3 0,133.8 384.8,242.3 859.4,242.3 474.5,0 859.3,-108.5 859.3,-242.3" /></g><g
         transform="scale(1.01961)"
         id="g258"><path
           id="path260"
           style="fill:#5c6060;fill-opacity:1;fill-rule:nonzero;stroke:none"
           d="m 15924.5,16019.6 c 0,-154.9 -445.3,-280.4 -994.5,-280.4 -549.3,0 -994.5,125.5 -994.5,280.4 0,154.9 445.2,280.4 994.5,280.4 549.2,0 994.5,-125.5 994.5,-280.4" /></g><g
         transform="scale(1.01432)"
         id="g262"><path
           id="path264"
           style="fill:#6e7373;fill-opacity:1;fill-rule:nonzero;stroke:none"
           d="m 15856.8,16060.6 c 0,-132.2 -380.1,-239.3 -849,-239.3 -468.9,0 -848.9,107.1 -848.9,239.3 0,132.2 380,239.4 848.9,239.4 468.9,0 849,-107.2 849,-239.4" /></g><g
         transform="scale(1.02999)"
         id="g266"><path
           id="path268"
           style="fill:#6e7373;fill-opacity:1;fill-rule:nonzero;stroke:none"
           d="m 16068.6,15718.1 c 0,0 97.1,54.5 164.3,-53.8 67.1,-108.4 8.2,-262.2 -88.2,-277.6 -96.5,-15.4 -76.1,331.4 -76.1,331.4" /></g><path
         id="path270"
         style="fill:#4b4e4e;fill-opacity:1;fill-rule:nonzero;stroke:none"
         d="m 14208.7,16047.8 c 0,0 61.5,-151.8 33.2,-373.8 l 258,-44.1 c 0,0 35.1,207.7 23.1,353.9 l -314.3,64" /><path
         id="path272"
         style="fill:#262424;fill-opacity:1;fill-rule:nonzero;stroke:none"
         d="m 14410.9,15895.9 c 0,-26.4 -21.4,-47.8 -47.8,-47.8 -26.4,0 -47.8,21.4 -47.8,47.8 0,26.4 21.4,47.7 47.8,47.7 26.4,0 47.8,-21.3 47.8,-47.7" /><g
         transform="scale(1.12136)"
         id="g274"><path
           id="path276"
           style="fill:#6b7378;fill-opacity:1;fill-rule:nonzero;stroke:none"
           d="m 16177.6,9279.3 c 0,0 81.3,-23.29 94.1,-38.7 12.9,-15.42 28.3,-128.45 12.9,-159.27 -15.5,-30.83 -137.1,-84.95 -137.1,-84.95 0,0 -53.1,72.1 -47.9,102.93 5.1,30.82 78,179.99 78,179.99" /></g><g
         transform="scale(1.12436)"
         id="g278"><path
           id="path280"
           style="fill:#bcb9b7;fill-opacity:1;fill-rule:nonzero;stroke:none"
           d="m 15980.6,9831.68 -215.2,-2182.86 c 0,0 126.5,-37.53 198.1,0 l 232.4,2182.86 96.5,20.91 7.6,98.65 -52.5,26.89 c 0,0 37.2,154.97 29.5,171.67 -7.7,16.6 -344.6,6.4 -353.6,0 -9,-6.4 5.1,-163.97 5.1,-163.97 l 2.6,-111.45 49.5,-42.7" /></g><g
         transform="scale(1.08512)"
         id="g282"><path
           id="path284"
           style="fill:#959595;fill-opacity:1;fill-rule:nonzero;stroke:none"
           d="m 16300,10351.2 -1068.8,4660.4 -346.9,-56.7 996.1,-4603.7 h 419.6" /></g><path
         id="path286"
         style="fill:#fccfb3;fill-opacity:1;fill-rule:nonzero;stroke:none"
         d="m 13714.2,12582.9 c 0,0 -49.9,-134.4 -59.5,-238.1 -9.6,-103.7 3.8,-157.5 29.8,-165.1 25.9,-7.7 20.1,71 29.7,145.9 9.6,74.9 53.5,172.9 53.5,172.9 0,0 6.4,102.8 -14.9,133.9 -21.3,31.2 -38.6,-49.5 -38.6,-49.5" /><path
         id="path288"
         style="fill:#df9866;fill-opacity:1;fill-rule:nonzero;stroke:none"
         d="m 13704.6,11595.9 v 314.9 l 50.5,-292 z" /><path
         id="path290"
         style="fill:#58595b;fill-opacity:1;fill-rule:nonzero;stroke:none"
         d="m 13117,5661.9 h -34.6 c 0,0 -42.2,-268.9 57.6,-376.5 99.9,-107.5 1140.8,-122.9 1336.6,-42.2 195.9,80.6 207.4,457 207.4,457 l -1567,-38.3" /><path
         id="path292"
         style="fill:#434244;fill-opacity:1;fill-rule:nonzero;stroke:none"
         d="m 13670.5,5285.4 c -99.8,107.6 -57.6,376.5 -57.6,376.5 h 34.6 l 1035.9,25.3 c 0.5,8.2 0.6,13 0.6,13 l -1567,-38.3 h -34.6 c 0,0 -42.2,-268.9 57.6,-376.5 72.9,-78.4 646.2,-107.8 1027.3,-86.7 -243.9,12.2 -454.5,41.2 -496.8,86.7" /><path
         id="path294"
         style="fill:#898b8b;fill-opacity:1;fill-rule:nonzero;stroke:none"
         d="m 11962.5,5900 c 1.1,-123.4 18.9,-243.1 29.1,-257.4 19.2,-26.9 2650.2,-65.3 2715.5,-34.6 32,15.1 45.6,154.2 51,292 h -2795.6" /><path
         id="path296"
         style="fill:#6e7373;fill-opacity:1;fill-rule:nonzero;stroke:none"
         d="m 16222.3,16090.9 c 0,-28.6 -23.2,-51.9 -51.9,-51.9 -28.6,0 -51.8,23.3 -51.8,51.9 0,28.6 23.2,51.8 51.8,51.8 28.7,0 51.9,-23.2 51.9,-51.8" /><g
         transform="scale(1.01066)"
         id="g298"><path
           id="path300"
           style="fill:#bebdbb;fill-opacity:1;fill-rule:nonzero;stroke:none"
           d="m 14426.5,16204.9 c 0,0 7.6,-300.3 19,-364.9 11.5,-64.6 326.9,-190 934.9,-190 608,0 836.1,102.6 877.8,182.4 41.8,79.8 12,232.2 -87.3,235.7 -99.5,3.3 -832.3,-6.2 -919.7,17.8 -87.5,24 -133,75.5 -133,75.5 0,0 -433.3,70.1 -691.7,43.5" /></g><path
         id="path302"
         style="fill:#5c6060;fill-opacity:1;fill-rule:nonzero;stroke:none"
         d="m 11804.6,15287 291.7,-25.1 1215.6,374.5 v 339.9 l -368.7,-100.8 c 0,0 -440.7,-40.4 -489.7,-57.6 -49,-17.3 -558.8,-233.4 -579,-253.5 -20.2,-20.2 -64.9,-28.8 -69.9,-69.2 -5,-40.3 0,-208.2 0,-208.2" /><path
         id="path304"
         style="fill:#4b4e4e;fill-opacity:1;fill-rule:nonzero;stroke:none"
         d="m 12763.6,15801.5 -11.5,-505 -147.9,-34.6 -21.1,-230.5 787.4,34.6 21.1,195.9 96.2,21.8 c 0,0 -55.9,60.8 -61.6,58.9 -5.8,-2 -483,0 -483,0 v 532.9 l -179.6,-74" /><path
         id="path306"
         style="fill:#262424;fill-opacity:1;fill-rule:nonzero;stroke:none"
         d="m 12764.6,15155.3 c 0,-28.6 -23.2,-51.8 -51.9,-51.8 -28.6,0 -51.8,23.2 -51.8,51.8 0,28.6 23.2,51.9 51.8,51.9 28.7,0 51.9,-23.3 51.9,-51.9" /><path
         id="path308"
         style="fill:#262424;fill-opacity:1;fill-rule:nonzero;stroke:none"
         d="m 13227.1,15184.1 c 0,-28.6 -23.3,-51.8 -51.9,-51.8 -28.6,0 -51.9,23.2 -51.9,51.8 0,28.7 23.3,51.9 51.9,51.9 28.6,0 51.9,-23.2 51.9,-51.9" /><path
         id="path310"
         style="fill:#262424;fill-opacity:1;fill-rule:nonzero;stroke:none"
         d="m 14871.4,15309.9 c 0,-28.6 -23.3,-51.8 -51.9,-51.8 -28.6,0 -51.8,23.2 -51.8,51.8 0,28.6 23.2,51.9 51.8,51.9 28.6,0 51.9,-23.3 51.9,-51.9" /><path
         id="path312"
         style="fill:#262424;fill-opacity:1;fill-rule:nonzero;stroke:none"
         d="m 15564.7,15287.8 c 0,-28.6 -23.2,-51.8 -51.9,-51.8 -28.6,0 -51.8,23.2 -51.8,51.8 0,28.7 23.2,51.9 51.8,51.9 28.7,0 51.9,-23.2 51.9,-51.9" /><path
         id="path314"
         style="fill:#6e7373;fill-opacity:1;fill-rule:nonzero;stroke:none"
         d="m 11381.9,15812.1 c 0,0 -54.7,-83.5 -46.1,-144 8.7,-60.5 37.5,-158.5 195.9,-161.4 l 872.8,37.5 351.5,222.8 c 0,0 192,26.8 215,61.4 23.1,34.6 26.9,361 26.9,361 0,0 -436,-61.4 -440.8,-72.9 -4.7,-11.6 -312,-184.4 -415.7,-195.9 -103.7,-11.5 -759.5,-108.5 -759.5,-108.5" /><path
         id="path316"
         style="fill:#262424;fill-opacity:1;fill-rule:nonzero;stroke:none"
         d="m 12957.6,13207 c 0,0 -155.5,-10.6 -270.8,-219.2 -115.2,-208.6 26.9,-622.4 53.8,-767.4 26.9,-144.9 38.4,-265.2 38.4,-265.2 0,0 199.7,-67.1 414.8,-63.6 215.1,3.5 288.1,56.6 288.1,56.6 0,0 53.7,360.7 69.1,364.2 15.4,3.5 142.1,279.3 180.5,290 38.4,10.5 38.4,-233.4 38.4,-233.4 0,0 25.9,0 40.4,34.4 14.4,34.5 8.6,66.3 17.2,87.6 8.7,21.2 26,45 40.4,106 14.4,61 -20.2,201.6 0,228.1 20.1,26.6 54.7,66.3 54.7,66.3 0,0 100.8,132.6 43.2,262.6 -57.6,129.9 -282.3,175 -504.1,183 -221.8,7.9 -446.5,-55.7 -504.1,-130" /><g
         transform="scale(1.02856)"
         id="g318"><path
           id="path320"
           style="fill:#bebdbb;fill-opacity:1;fill-rule:nonzero;stroke:none"
           d="m 1710.17,16039.5 c 0,0 9.39,187.7 28.98,224.1 19.62,36.4 182.05,25.2 182.05,25.2 0,0 78.42,-179.2 67.22,-229.7 -11.2,-50.4 57.32,-116.2 -92.43,-95.2 -149.74,21.1 -185.82,75.6 -185.82,75.6" /></g><g
         transform="scale(1.03598)"
         id="g322"><path
           id="path324"
           style="fill:#6e7373;fill-opacity:1;fill-rule:nonzero;stroke:none"
           d="m 1824.01,15927.4 c 0,0 -55.61,250.3 69.52,311.4 125.12,61.2 733.06,22.3 733.06,22.3 l 23.25,-50.1 c 0,0 111.24,-176.8 97.32,-247 -13.92,-70.2 383.86,-280.5 -152.93,-239.3 -536.8,41.3 -881.43,99.1 -895.33,110.6 -13.91,11.5 125.11,92.1 125.11,92.1" /></g><g
         transform="scale(1.0394)"
         id="g326"><path
           id="path328"
           style="fill:#5c6060;fill-opacity:1;fill-rule:nonzero;stroke:none"
           d="m 4745.55,16237.2 40.65,62.8 h 188.44 c 0,0 77.22,-44.3 86.65,-155.2 9.44,-110.8 -157.87,-262.4 -157.87,-262.4 0,0 -150.19,47 -183.74,61.4 -33.54,14.3 -66.51,86.5 -40.65,147.4 25.87,61 66.52,146 66.52,146" /></g><g
         transform="scale(1.0394)"
         id="g330"><path
           id="path332"
           style="fill:#bebdbb;fill-opacity:1;fill-rule:nonzero;stroke:none"
           d="m 4974.64,16300 h -39.2 c -16.16,-34.2 -29.04,-76.3 -31,-125.6 -3.2,-80.4 29.53,-165.1 59.65,-228.8 46.81,54.3 102.77,133.8 97.2,199.2 -9.43,110.8 -86.65,155.2 -86.65,155.2" /></g><g
         transform="scale(1.0394)"
         id="g334"><path
           id="path336"
           style="fill:#6e7373;fill-opacity:1;fill-rule:nonzero;stroke:none"
           d="m 3844.92,16207.6 c 0,0 2.69,59.1 76.6,73.9 73.91,14.8 864.68,18.5 864.68,18.5 v -358.9 c 0,0 -495.16,-95.6 -631.89,-95.6 -136.72,0 -252.19,77.9 -291.91,98.3 -39.73,20.3 -151.51,79.1 -125.65,129 25.87,49.8 108.17,134.8 108.17,134.8" /></g><g
         transform="scale(1.03351)"
         id="g338"><path
           id="path340"
           style="fill:#4b4e4e;fill-opacity:1;fill-rule:nonzero;stroke:none"
           d="m 2656.18,16249.8 c 0,0 -52.43,-247.7 0,-345.5 h 1210.65 v 395.7 l -1210.65,-50.2" /></g><g
         transform="scale(1.02701)"
         id="g342"><path
           id="path344"
           style="fill:#3b3e3e;fill-opacity:1;fill-rule:nonzero;stroke:none"
           d="m 3496.74,15744.3 c 0,0 -354.27,37.4 -382.75,235.1 -28.48,197.7 903.1,320.6 1536.7,277.9 633.62,-42.8 925.22,-226.3 684.89,-366.7 -240.35,-140.4 -1838.84,-146.3 -1838.84,-146.3" /></g><g
         transform="scale(1.0169)"
         id="g346"><path
           id="path348"
           style="fill:#3b3e3e;fill-opacity:1;fill-rule:nonzero;stroke:none"
           d="m 1216.32,15710.8 c 0,0 -352.357,39.6 -380.683,249.3 -28.326,209.6 898.193,339.9 1528.373,294.6 630.17,-45.3 920.19,-240 681.16,-388.8 -239.04,-148.9 -1828.85,-155.1 -1828.85,-155.1" /></g><path
         id="path350"
         style="fill:#5c6060;fill-opacity:1;fill-rule:nonzero;stroke:none"
         d="m 1563.25,16134 v -376.6 c 0,0 444.31,-376.4 451.98,-340.9 7.68,35.5 -41.29,674.4 -41.29,674.4 l -410.69,43.1" /><path
         id="path352"
         style="fill:#6e7373;fill-opacity:1;fill-rule:nonzero;stroke:none"
         d="m 2403.96,15847.6 1706.64,-291.9 109.21,334.2 -1399.72,252.8 -416.13,-295.1" /><path
         id="path354"
         style="fill:#4b4e4e;fill-opacity:1;fill-rule:nonzero;stroke:none"
         d="m 3385.64,16047.8 c 0,0 61.5,-151.8 33.15,-373.8 l 258,-44.1 c 0,0 35.11,207.7 23.17,353.9 l -314.32,64" /><path
         id="path356"
         style="fill:#262424;fill-opacity:1;fill-rule:nonzero;stroke:none"
         d="m 3587.77,15895.9 c 0,-26.4 -21.39,-47.8 -47.77,-47.8 -26.39,0 -47.77,21.4 -47.77,47.8 0,26.4 21.38,47.7 47.77,47.7 26.38,0 47.77,-21.3 47.77,-47.7" /><path
         id="path358"
         style="fill:#4b4e4e;fill-opacity:1;fill-rule:nonzero;stroke:none"
         d="m 2082.66,15945.7 255.19,-315.8 641.62,-422.7 h 201.89 c 0,0 -25.42,264 -40.78,271.7 -15.36,7.7 -357.19,226.6 -364.88,242 -7.68,15.3 -54.59,326.7 -54.59,326.7 h -617.55 l -20.9,-101.9" /><path
         id="path360"
         style="fill:#5c6060;fill-opacity:1;fill-rule:nonzero;stroke:none"
         d="m 2212.36,15306.1 c -5.09,15.3 0,321.3 0,321.3 0,0 321.8,-332.9 356.16,-365.5 34.35,-32.6 191.82,-195.9 234.07,-158.4 42.25,37.4 176.88,152.6 176.88,152.6 0,0 -229.99,222.8 -347.46,315 -117.48,92.2 -414.55,291.9 -419.65,303.4 -5.09,11.5 27.34,21 -51.18,46.1 -78.52,25.1 -115.58,-75.7 -109.64,-122.3 5.94,-46.7 -5.94,-298.3 0,-381.8 5.94,-83.6 28.94,-95.4 31.12,-128.7 2.16,-33.2 129.7,-51.8 129.7,-51.8 v 70.1" /><path
         id="path362"
         style="fill:#4b4e4e;fill-opacity:1;fill-rule:nonzero;stroke:none"
         d="m 5565.73,15236 c 0,0 378.64,-2.9 497.7,-210.3 119.07,-207.4 50.37,-641 50.37,-641 0,0 -334.59,-77.6 -346.11,-67.8 -11.53,9.8 -192.05,7.1 -238.13,48.2 -46.09,41 -84.5,-146 -53.77,84.5 30.72,230.4 89.94,786.4 89.94,786.4" /><path
         id="path364"
         style="fill:#262424;fill-opacity:1;fill-rule:nonzero;stroke:none"
         d="m 5901.35,14812.9 c 0,-41.1 -33.36,-74.5 -74.51,-74.5 -41.16,0 -74.52,33.4 -74.52,74.5 0,41.2 33.36,74.5 74.52,74.5 41.15,0 74.51,-33.3 74.51,-74.5" /><path
         id="path366"
         style="fill:#3b3e3e;fill-opacity:1;fill-rule:nonzero;stroke:none"
         d="m 4331.81,14738.4 274.25,-50.7 v -281.6 c 0,0 -205.79,-14.6 -224.47,35.8 -18.68,50.4 -49.78,296.5 -49.78,296.5" /><path
         id="path368"
         style="fill:#818080;fill-opacity:1;fill-rule:nonzero;stroke:none"
         d="m 5565.73,14316.9 h -270.25 v 919.1 h 270.25 v -919.1" /><path
         id="path370"
         style="fill:#100f0d;fill-opacity:1;fill-rule:nonzero;stroke:none"
         d="m 5754.22,8033.3 -40.81,0.5 59.05,5056.4 40.81,-0.5 -59.05,-5056.4" /><path
         id="path372"
         style="fill:#959595;fill-opacity:1;fill-rule:nonzero;stroke:none"
         d="m 2664.7,14936.4 412.51,-4058.8 h 374.47 l -472.41,4153.8 -314.57,-95" /><path
         id="path374"
         style="fill:#100f0d;fill-opacity:1;fill-rule:nonzero;stroke:none"
         d="m 5078.98,7943.2 -23.79,5333.9 40.81,0.2 23.79,-5334 -40.81,-0.1" /><path
         id="path376"
         style="fill:#100f0d;fill-opacity:1;fill-rule:nonzero;stroke:none"
         d="m 6429.44,7880.2 -40.81,0.3 29.08,5396.8 40.82,-0.2 -29.09,-5396.9" /><path
         id="path378"
         style="fill:#bcb9b7;fill-opacity:1;fill-rule:nonzero;stroke:none"
         d="m 3696.54,11038.9 h -284.87 v 190.5 h 284.87 v -190.5" /><path
         id="path380"
         style="fill:#929393;fill-opacity:1;fill-rule:nonzero;stroke:none"
         d="m 4220.06,13821.6 c 0,0 -285.18,-509.9 -302.46,-1002.4 -17.29,-492.6 -60.5,-2047.9 -60.5,-2047.9 l 155.56,-173.1 c 0,0 169.95,61 167.07,173.1 -2.88,112.1 -46.09,2402.2 -46.09,2402.2 l 161.82,648.1 h -75.4" /><path
         id="path382"
         style="fill:#6e7373;fill-opacity:1;fill-rule:nonzero;stroke:none"
         d="m 7729.4,12917.1 -3509.59,-69.2 75.65,614.4 c 0,0 55.5,607 823.34,756.8 767.86,149.8 2178.6,49.3 2258.4,57.6 79.79,8.4 708.63,-798.9 708.63,-883.4 0,-84.4 0,-677.9 0,-677.9 l -356.43,201.7" /><path
         id="path384"
         style="fill:#929393;fill-opacity:1;fill-rule:nonzero;stroke:none"
         d="m 7729.4,12917.1 163.42,161.3 c 0,0 -77.96,967.9 -726,1088.9 -648.04,121 -1788.76,17.3 -2091.22,-51.9 -302.47,-69.1 -696.09,-485.3 -780.14,-653.1 -84.04,-167.9 -75.4,359.3 -75.4,359.3 0,0 250.61,301.5 570.36,401.4 319.75,99.8 1840.51,238.1 2376.4,160.3 535.89,-77.8 1039.99,-731.7 1103.36,-1420.1 l -289.5,-247.8 -251.28,201.7" /><path
         id="path386"
         style="fill:#4b4e4e;fill-opacity:1;fill-rule:nonzero;stroke:none"
         d="m 4346.81,10498 v 3652 h -334.15 l 51.85,-3695.8 282.3,43.8" /><path
         id="path388"
         style="fill:#ecb28a;fill-opacity:1;fill-rule:nonzero;stroke:none"
         d="m 5683.19,10347.6 c 0,0 130.58,30.7 192.04,26.9 61.45,-3.9 111.38,-77.2 111.38,-77.2 0,0 30.73,-253.1 0,-314.6 -30.73,-61.4 -99.86,-107.5 -99.86,-107.5 0,0 -26.88,-38.4 -65.29,-61.5 -38.41,-23 -67.22,-30.7 -67.22,-30.7 l -47.15,-42.3 c 0,0 51.9,-88.3 56.25,-115.2 4.35,-26.9 -203.41,-49.9 -272.37,-30.7 -68.95,19.2 -164.97,253.5 -168.82,255.4 -3.83,1.9 361.04,497.4 361.04,497.4" /><path
         id="path390"
         style="fill:#df9866;fill-opacity:1;fill-rule:nonzero;stroke:none"
         d="m 5560.28,9774.4 c 0,0 66.04,-24 146.81,-33.7 l 26.72,-61.4 c 0,0 -162,-11.5 -173.53,95.1" /><path
         id="path392"
         style="fill:#bcb9b7;fill-opacity:1;fill-rule:nonzero;stroke:none"
         d="m 4052.1,10799.9 h -740.88 c -32.2,0 -58.3,26 -58.3,58.2 v 157.1 c 0,32.2 26.1,58.3 58.3,58.3 h 740.88 c 32.19,0 58.29,-26.1 58.29,-58.3 v -157.1 c 0,-32.2 -26.1,-58.2 -58.29,-58.2" /><path
         id="path394"
         style="fill:#6f7474;fill-opacity:1;fill-rule:nonzero;stroke:none"
         d="M 7794.77,7089.6 H 6631.12 c 0,0 123.45,-889.1 123.87,-928.6 0.41,-39.4 13.22,-30.1 85.27,-90.8 72.06,-60.8 456.28,-261.5 663.68,-243.2 207.4,18.2 476.74,6.7 476.74,6.7 l -185.91,1255.9" /><path
         id="path396"
         style="fill:#100f0d;fill-opacity:1;fill-rule:nonzero;stroke:none"
         d="m 6840.26,6070.2 c 58.75,-49.3 162.46,-137.4 162.46,-137.4 l 224.75,106.2 v 1128.4 l -2028.01,167.1 c 0,0 13.45,-247.7 44.17,-282.3 30.73,-34.6 1596.63,-982 1596.63,-982" /><path
         id="path398"
         style="fill:#252323;fill-opacity:1;fill-rule:nonzero;stroke:none"
         d="m 5424.15,6044 1578.57,-111.2 v 1165.5 c 0,0 -1883.92,161.3 -1875.27,144 8.64,-17.3 296.7,-1198.3 296.7,-1198.3" /><path
         id="path400"
         style="fill:#929393;fill-opacity:1;fill-rule:nonzero;stroke:none"
         d="M 7711.34,5700.2 V 6000 l -2583.89,208.2 159.81,-466.7 c 0,0 1005.87,-184.8 1615.6,-252.3 609.72,-67.4 808.48,0 808.48,0 0,0 190.12,-46 198.77,107.5 8.64,153.5 -198.77,103.5 -198.77,103.5" /><path
         id="path402"
         style="fill:#767779;fill-opacity:1;fill-rule:nonzero;stroke:none"
         d="m 7711.34,5058.8 v 641.4 l -2712.44,232.6 53.5,-951.8 783.67,146.9 1875.27,-69.1" /><path
         id="path404"
         style="fill:#4b4e4e;fill-opacity:1;fill-rule:nonzero;stroke:none"
         d="M 3916.92,8608.5 H 4139.4 V 7449.7 h -222.48 v 1158.8" /><path
         id="path406"
         style="fill:#4b4e4e;fill-opacity:1;fill-rule:nonzero;stroke:none"
         d="M 4139.4,4701.6 H 3916.92 V 7662.9 H 4139.4 V 4701.6" /><path
         id="path408"
         style="fill:#767779;fill-opacity:1;fill-rule:nonzero;stroke:none"
         d="m 4358.33,4782.3 v 362.9 h 466.66 c 0,0 -34.73,-138.2 -43.29,-181.5 -8.57,-43.2 -423.37,-181.4 -423.37,-181.4" /><path
         id="path410"
         style="fill:#fbc398;fill-opacity:1;fill-rule:nonzero;stroke:none"
         d="m 3338.59,5489.2 c 0,0 -511.3,-11.7 -501.22,-107.8 10.09,-96 -129.63,-1460.2 -129.63,-1543.8 0,-83.7 230.35,-282.5 230.35,-282.5 0,0 106.69,-351.1 279.52,282.5 172.83,633.6 215.95,1370.8 241.92,1490.5 25.98,119.6 -120.94,161.1 -120.94,161.1" /><path
         id="path412"
         style="fill:#f0fafb;fill-opacity:1;fill-rule:nonzero;stroke:none"
         d="m 2770.35,4540.3 c -31.7,-340.7 -62.61,-663.4 -62.61,-702.7 0,-83.7 230.35,-282.5 230.35,-282.5 0,0 106.69,-351.1 279.52,282.5 63.33,232.1 109.23,478.2 143.26,702.7 h -590.52" /><path
         id="path414"
         style="fill:#3970c0;fill-opacity:1;fill-rule:nonzero;stroke:none"
         d="m 4679.03,4229.2 c 0,0 -245.81,-34.6 -307.26,-142.1 -61.45,-107.5 -19.2,-487.8 -57.61,-614.5 -38.41,-126.8 -72.98,-215.1 -26.88,-280.4 46.08,-65.3 468.57,-69.2 579.95,-30.7 111.39,38.4 111.39,134.4 291.91,149.7 180.51,15.4 506.98,107.6 595.32,265.1 88.34,157.4 -23.05,326.4 -99.86,368.7 -76.82,42.2 -192.04,30.7 -295.74,96 -103.7,65.3 -172.84,249.7 -192.04,268.9 -19.21,19.2 -245.81,72.9 -245.81,72.9 l -241.98,-153.6" /><path
         id="path416"
         style="fill:#3970c0;fill-opacity:1;fill-rule:nonzero;stroke:none"
         d="m 2538.92,4279.1 c 0,0 -221.98,-491.6 -225.82,-610.7 -3.84,-119 225.82,-188.2 225.82,-188.2 0,0 1024.54,164.2 1052.3,191.6 27.75,27.4 169.86,96.5 219.8,192.5 49.92,96 72.97,291.9 49.93,332.3 -23.05,40.3 -368.72,82.5 -368.72,82.5 h -953.31" /><path
         id="path418"
         style="fill:#898b8b;fill-opacity:1;fill-rule:nonzero;stroke:none"
         d="m 2347.67,5352.6 -30.73,-67.2 221.98,-215.1 c 0,0 -76.82,-1630.4 -110.99,-1688 -34.17,-57.6 -177.48,-144 -177.48,-144 0,0 304.41,-151 687.64,-101.5 v 2244.6 l -590.42,-28.8" /><path
         id="path420"
         style="fill:#a3a5a4;fill-opacity:1;fill-rule:nonzero;stroke:none"
         d="m 3666.98,5335.4 -34.56,-679.9 2056.75,622.7 2022.17,-219.4 V 4747.7 L 5786.98,4995.4 3632.42,4254.1 3561.36,3249.8 c 0,0 84.5,-45.4 65.3,-113 -19.21,-67.5 -199.73,-79 -391.77,-79 -192.03,0 -296.8,79 -296.8,79 0,0 0,543.2 0,554.7 0,11.5 181.58,1624.6 181.58,1624.6 l 547.31,19.3" /><path
         id="path422"
         style="fill:#a3a5a4;fill-opacity:1;fill-rule:nonzero;stroke:none"
         d="m 1736.98,5661.9 c 0,0 -49.93,-303.5 92.18,-353.4 142.11,-50 656.78,-23.1 656.78,-23.1 l -57.61,160.8 c 0,0 -387.92,-27.5 -426.33,0 -38.41,27.4 -26.89,254 -26.89,254 l -238.13,-38.3" /><path
         id="path424"
         style="fill:#58595b;fill-opacity:1;fill-rule:nonzero;stroke:none"
         d="m 2293.9,5661.9 h -34.57 c 0,0 -42.25,-268.9 57.61,-376.5 99.86,-107.5 1140.72,-122.9 1336.6,-42.2 195.88,80.6 207.41,457 207.41,457 L 2293.9,5661.9" /><path
         id="path426"
         style="fill:#434244;fill-opacity:1;fill-rule:nonzero;stroke:none"
         d="m 2847.46,5285.4 c -99.87,107.6 -57.62,376.5 -57.62,376.5 h 34.56 l 1035.87,25.3 c 0.51,8.2 0.68,13 0.68,13 L 2293.9,5661.9 h -34.57 c 0,0 -42.25,-268.9 57.61,-376.5 72.84,-78.4 646.19,-107.8 1027.24,-86.7 -243.83,12.2 -454.48,41.2 -496.72,86.7" /><path
         id="path428"
         style="fill:#898b8b;fill-opacity:1;fill-rule:nonzero;stroke:none"
         d="m 1441.24,6360.8 c 0,0 -161.31,-99.8 -249.65,-195.8 -88.34,-96.1 -42.25,-495.5 -23.05,-522.4 19.21,-26.9 2650.16,-65.3 2715.45,-34.6 65.29,30.8 53.77,576.2 53.77,576.2 0,0 -1025.49,215 -1144.56,218.9 -119.06,3.8 -1351.96,-42.3 -1351.96,-42.3" /><path
         id="path430"
         style="fill:#717575;fill-opacity:1;fill-rule:nonzero;stroke:none"
         d="m 3938.29,6145.8 c -0.23,24 -0.53,38.4 -0.53,38.4 0,0 -1025.49,215 -1144.56,218.9 -119.06,3.8 -1351.96,-42.3 -1351.96,-42.3 0,0 -161.31,-99.8 -249.65,-195.8 -5,-5.5 -9.51,-12 -13.67,-19.2 h 2760.37" /><path
         id="path432"
         style="fill:#fbc398;fill-opacity:1;fill-rule:nonzero;stroke:none"
         d="m 4571.49,6272.5 c 0,0 -84.5,-361 -53.77,-722.1 30.73,-361 43.2,-956.3 23.53,-1159.9 C 4521.56,4187 4511,4144.7 4511,4144.7 c 0,0 114.26,-34.6 168.03,-149.8 53.78,-115.2 138.27,-195.9 291.91,-138.3 153.63,57.7 38.4,476.3 61.45,572.3 23.04,96 80.66,541.6 280.38,1010.2 199.72,468.5 172.83,1106.1 172.83,1194.4 0,88.4 7.69,430.2 -61.45,595.4 -69.14,165.1 -683.66,257.3 -683.66,257.3 0,0 -176.68,-491.6 -172.84,-507 3.84,-15.4 3.84,-706.7 3.84,-706.7" /><path
         id="path434"
         style="fill:#df9866;fill-opacity:1;fill-rule:nonzero;stroke:none"
         d="m 4755.85,6499.1 410.97,38.4 c 0,0 -305.86,-152.2 -364.88,-211.2 -59.02,-59.1 -122.91,-553.1 -122.91,-541.6 0,11.5 0,449.4 0,449.4 l 76.82,265" /><path
         id="path436"
         style="fill:#df9866;fill-opacity:1;fill-rule:nonzero;stroke:none"
         d="m 5301.25,6261 c 0,0 96.02,-230.5 -57.62,-434 0,0 57.62,188.2 57.62,434" /><path
         id="path438"
         style="fill:#959595;fill-opacity:1;fill-rule:nonzero;stroke:none"
         d="m 3191.22,10266.9 c -13.6,-21.2 -21.67,-36 -22.58,-42.2 -8.64,-59.5 -260.21,-2327.5 -260.21,-2327.5 0,0 384.08,-199.8 576.12,-184.4 192.04,15.4 618.37,203.6 660.61,368.9 29.65,116 131.19,1389.6 147.95,2185.2 H 3191.22" /><path
         id="path440"
         style="fill:#767779;fill-opacity:1;fill-rule:nonzero;stroke:none"
         d="m 4018.85,10266.9 c -25.01,-796 -116.09,-1923.6 -143.9,-2032.5 -42.25,-165.3 -468.58,-353.5 -660.62,-368.9 -81.01,-6.4 -196.17,25.4 -302.28,64.3 -2.36,-21.2 -3.63,-32.6 -3.63,-32.6 0,0 384.08,-199.8 576.13,-184.4 192.04,15.4 618.37,203.6 660.61,368.9 29.65,116 131.19,1389.6 147.95,2185.2 h -274.26" /><path
         id="path442"
         style="fill:#fbc398;fill-opacity:1;fill-rule:nonzero;stroke:none"
         d="m 1538.97,11168.6 -192.04,-110.5 c 0,0 -176.68,-65.2 -261.18,-249.6 -84.5,-184.4 -11.98,-591.5 -11.98,-591.5 0,0 442.15,48 465.2,237.2 23.04,189.1 115.22,323.6 111.38,465.7 -3.84,142.1 -111.38,248.7 -111.38,248.7" /><path
         id="path444"
         style="fill:#252323;fill-opacity:1;fill-rule:nonzero;stroke:none"
         d="m 1291.45,7732 c 0,0 -165.16,-141.1 -294.778,-331.3 -129.629,-190.1 22.078,-893.9 294.778,-1024.5 272.7,-130.6 568.44,-138.3 798.89,-145.9 230.45,-7.7 862.26,-59.6 1144.55,-82.6 282.3,-23.1 455.14,-149.8 506.99,-161.3 51.85,-11.6 386,-74.9 564.59,-46.1 178.6,28.8 380.24,149.8 409.05,230.4 28.81,80.7 59.53,278.5 178.6,501.2 119.06,222.8 -126.75,798.9 -153.63,814.3 -26.89,15.4 -745.12,103.7 -825.77,134.4 -80.66,30.7 -88.34,50 -330.31,96 -241.97,46.1 -253.5,111.4 -253.5,111.4 0,0 -1159.92,261.2 -1378.84,253.5 -218.93,-7.7 -660.62,-349.5 -660.62,-349.5" /><path
         id="path446"
         style="fill:#fbc398;fill-opacity:1;fill-rule:nonzero;stroke:none"
         d="m 3127.46,11150.3 201.32,-153.6 c 0,0 439.73,33.2 728.88,-54.4 289.15,-87.7 507.86,-344.1 507.86,-344.1 0,0 372.56,-100.8 556.91,-185.3 0,0 245.46,74.9 368.54,41.3 123.08,-33.6 192.22,-106.6 192.22,-106.6 0,0 53.77,-276.5 0,-407.1 -53.77,-130.6 -199.72,-180.5 -345.67,-203.6 -145.95,-23 -130.59,15.4 -288.06,30.7 -157.48,15.4 -153.63,-49.9 -464.74,-57.6 -311.1,-7.7 -626.05,107.6 -626.05,107.6 l -330.31,-576.2 c 0,0 -364.44,-188.2 -719.93,134.5 -355.49,322.6 -393.9,660.6 -374.69,948.7 19.2,288 -103.71,380.2 96.02,568.4 199.72,188.2 497.7,257.3 497.7,257.3" /><path
         id="path448"
         style="fill:#df9866;fill-opacity:1;fill-rule:nonzero;stroke:none"
         d="m 2940.86,9775.3 c 26.88,15.4 161.31,107.6 403.28,284.2 l -403.28,-418.6 v 134.4" /><path
         id="path450"
         style="fill:#df9866;fill-opacity:1;fill-rule:nonzero;stroke:none"
         d="m 4216.01,10144 c 0,0 230.44,90.3 326.46,310.2 0,0 34.57,-352.4 -326.46,-310.2" /><path
         id="path452"
         style="fill:#3970c0;fill-opacity:1;fill-rule:nonzero;stroke:none"
         d="m 1783.78,11351.6 c 0,0 -239.05,-171.5 -244.81,-183 -5.76,-11.6 -95.06,-155.6 -95.06,-155.6 0,0 -305.35,-391.7 -360.08,-604.9 -54.73,-213.2 72.02,-535.8 106.59,-746.1 34.56,-210.3 156.51,-968.2 152.67,-1053.5 -3.84,-85.3 -30.73,-914.9 -30.73,-914.9 0,0 414.81,-188.2 837.29,-149.8 422.49,38.4 691.35,192 914.11,226.6 222.77,34.6 300.75,20.9 300.75,20.9 0,0 75.65,537.7 79.49,817.2 3.85,279.6 0,310.3 0,310.3 l 184.36,322.6 c 0,0 -453.21,199.8 -629.89,649.1 -176.68,449.4 128.99,1259.8 128.99,1259.8 l -245.92,157.5 -1097.76,43.8" /><path
         id="path454"
         style="fill:#2e619f;fill-opacity:1;fill-rule:nonzero;stroke:none"
         d="m 2089.16,10975.1 c 0,0 -146.91,-1497.5 -152.67,-1468.6 -5.76,28.8 76.34,1468.6 76.34,1468.6 h 76.33" /><path
         id="path456"
         style="fill:#fbc398;fill-opacity:1;fill-rule:nonzero;stroke:none"
         d="m 1955.91,11960.7 -15.36,-399 c 0,0 -165.16,-154 -203.57,-338.4 -38.41,-184.4 107.55,-307.3 518.51,-218.9 410.97,88.3 626.05,303.4 626.05,303.4 v 288.1 c 0,0 111.38,36.4 148.83,120 37.45,83.5 20.17,236.2 48.97,351.4 28.81,115.2 60.49,216.1 43.21,316.9 -17.28,100.8 -51.85,103.7 -40.33,167.1 11.53,63.3 25.93,43.2 31.69,172.8 5.76,129.6 -69.13,305.3 -69.13,305.3 0,0 -181.48,-14.4 -386.01,-164.2 -204.52,-149.8 -164.19,-48.9 -345.67,-313.9 -181.47,-265.1 -357.19,-590.6 -357.19,-590.6" /><path
         id="path458"
         style="fill:#fccfb3;fill-opacity:1;fill-rule:nonzero;stroke:none"
         d="m 2891.14,12582.9 c 0,0 -49.93,-134.4 -59.53,-238.1 -9.6,-103.7 3.84,-157.5 29.77,-165.1 25.92,-7.7 20.16,71 29.76,145.9 9.61,74.9 53.43,172.9 53.43,172.9 0,0 6.44,102.8 -14.85,133.9 -21.29,31.2 -38.58,-49.5 -38.58,-49.5" /><path
         id="path460"
         style="fill:#df9866;fill-opacity:1;fill-rule:nonzero;stroke:none"
         d="m 2881.54,11595.9 v 314.9 l 50.44,-292 z" /><path
         id="path462"
         style="fill:#f0fafb;fill-opacity:1;fill-rule:nonzero;stroke:none"
         d="m 4533.28,4312 c -14.55,-136.3 -22.29,-167.3 -22.29,-167.3 0,0 114.27,-34.6 168.04,-149.8 53.77,-115.2 138.27,-195.9 291.91,-138.3 124.52,46.7 72.42,330.6 60.48,487.6 -177.85,-20.8 -372.37,-29 -498.14,-32.2" /><path
         id="path464"
         style="fill:#929393;fill-opacity:1;fill-rule:nonzero;stroke:none"
         d="m 7633.57,4021.8 77.77,149.8 v 1528.6 l 18.06,7216.9 172.06,46.1 h 368.72 V 4165.8 l 57.61,-144 c 0,0 -334.15,-144 -694.22,0" /><path
         id="path466"
         style="fill:#100f0d;fill-opacity:1;fill-rule:nonzero;stroke:none"
         d="m 6714.66,7063.7 c 34.56,-28.8 288.06,-242 288.06,-242 l 224.75,11.6 v 935.9 l -2448.57,128 -432.09,-147.9 2367.85,-685.6" /><path
         id="path468"
         style="fill:#252323;fill-opacity:1;fill-rule:nonzero;stroke:none"
         d="M 4346.81,7749.3 V 6941 l 2655.91,-119.3 v 806.6 l -2655.91,121" /><path
         id="path470"
         style="fill:#252323;fill-opacity:1;fill-rule:nonzero;stroke:none"
         d="m 5792.87,7916.4 h -118.11 v 234.3 h 118.11 v -234.3" /><path
         id="path472"
         style="fill:#252323;fill-opacity:1;fill-rule:nonzero;stroke:none"
         d="m 5337.73,7781 803.69,-31.7 v 210.3 l -792.17,20.1 -11.52,-198.7" /><path
         id="path474"
         style="fill:#39393a;fill-opacity:1;fill-rule:nonzero;stroke:none"
         d="m 4888.36,7979.7 v -190.1 l 449.37,-8.6 11.52,198.7 h -460.89" /><path
         id="path476"
         style="fill:#39393a;fill-opacity:1;fill-rule:nonzero;stroke:none"
         d="m 6141.42,7959.6 478.18,-20.2 v -204.5 l -478.18,14.4 v 210.3" /><path
         id="path478"
         style="fill:#4b4e4e;fill-opacity:1;fill-rule:nonzero;stroke:none"
         d="m 3200.33,14936.4 c 0,0 334.15,-573.2 426.33,-694.2 92.17,-121 386,-92.2 386,-92.2 h 334.15 l 1832.35,69.7 -415.82,186.4 h -1073.6 c 0,0 -118.25,20.3 -233.47,135.6 -115.23,115.3 -201.65,394.7 -201.65,394.7 H 3200.33" /><path
         id="path480"
         style="fill:#3b3e3e;fill-opacity:1;fill-rule:nonzero;stroke:none"
         d="m 4295.46,14276.7 c -128.99,113.2 -357.97,461.7 -483.15,659.7 h -611.98 c 0,0 334.15,-573.2 426.33,-694.2 92.17,-121 386,-92.2 386,-92.2 h 334.15 l 171.3,6.5 c -87.48,32.8 -168.55,72.8 -222.65,120.2" /><path
         id="path482"
         style="fill:#959595;fill-opacity:1;fill-rule:nonzero;stroke:none"
         d="m 1656.33,15233.1 c 0,0 -80.66,-63.4 -92.18,-190.1 -11.53,-126.8 92.18,-184.4 92.18,-184.4 l 3419.27,77.8 c 0,0 106.58,-20.2 129.62,187.2 23.05,207.4 -103.7,282.3 -103.7,282.3 l -3445.19,-172.8" /><path
         id="path484"
         style="fill:#bebdbb;fill-opacity:1;fill-rule:nonzero;stroke:none"
         d="m 5225.63,15171.2 c 0,-129.7 -61.31,-234.8 -136.95,-234.8 -75.63,0 -136.95,105.1 -136.95,234.8 0,129.6 61.32,234.7 136.95,234.7 75.64,0 136.95,-105.1 136.95,-234.7" /><path
         id="path486"
         style="fill:#4b4e4e;fill-opacity:1;fill-rule:nonzero;stroke:none"
         d="m 1940.55,15801.5 -11.53,-505 -147.87,-34.6 -21.12,-230.5 787.36,34.6 21.13,195.9 96.18,21.8 c 0,0 -55.86,60.8 -61.62,58.9 -5.76,-2 -482.98,0 -482.98,0 v 453.7 l -179.55,5.2" /><path
         id="path488"
         style="fill:#4b4e4e;fill-opacity:1;fill-rule:nonzero;stroke:none"
         d="m 4278.42,16229.8 -141.03,-50.3 -26.79,-623.8 c 0,0 -180.74,-109.4 -203.78,-149.8 -23.05,-40.3 -34.57,-270.7 11.52,-299.6 46.09,-28.8 933.32,11.6 953.48,26 20.16,14.4 -18.86,299.6 -18.07,308.2 0.79,8.6 -466.93,57.6 -472.16,69.1 -5.23,11.6 0,678.4 0,678.4 l -103.17,41.8" /><path
         id="path490"
         style="fill:#262424;fill-opacity:1;fill-rule:nonzero;stroke:none"
         d="m 1941.5,15155.3 c 0,-28.6 -23.21,-51.8 -51.85,-51.8 -28.63,0 -51.85,23.2 -51.85,51.8 0,28.6 23.22,51.9 51.85,51.9 28.64,0 51.85,-23.3 51.85,-51.9" /><path
         id="path492"
         style="fill:#262424;fill-opacity:1;fill-rule:nonzero;stroke:none"
         d="m 2403.96,15184.1 c 0,-28.6 -23.22,-51.8 -51.86,-51.8 -28.63,0 -51.85,23.2 -51.85,51.8 0,28.7 23.22,51.9 51.85,51.9 28.64,0 51.86,-23.2 51.86,-51.9" /><path
         id="path494"
         style="fill:#262424;fill-opacity:1;fill-rule:nonzero;stroke:none"
         d="m 4100.11,15287.8 c 0,-28.6 -23.21,-51.8 -51.85,-51.8 -28.63,0 -51.85,23.2 -51.85,51.8 0,28.7 23.22,51.9 51.85,51.9 28.64,0 51.85,-23.2 51.85,-51.9" /><path
         id="path496"
         style="fill:#262424;fill-opacity:1;fill-rule:nonzero;stroke:none"
         d="m 4770.22,15287.8 c 0,-28.6 -23.22,-51.8 -51.85,-51.8 -28.64,0 -51.85,23.2 -51.85,51.8 0,28.7 23.21,51.9 51.85,51.9 28.63,0 51.85,-23.2 51.85,-51.9" /><g
         transform="scale(1.00736)"
         id="g498"><path
           id="path500"
           style="fill:#5c6060;fill-opacity:1;fill-rule:nonzero;stroke:none"
           d="m 3074.02,16016.2 c 0,-156.7 -450.66,-283.8 -1006.57,-283.8 -555.91,0 -1006.57,127.1 -1006.57,283.8 0,156.7 450.66,283.8 1006.57,283.8 555.91,0 1006.57,-127.1 1006.57,-283.8" /></g><g
         transform="scale(1.00207)"
         id="g502"><path
           id="path504"
           style="fill:#6e7373;fill-opacity:1;fill-rule:nonzero;stroke:none"
           d="m 2937.69,16057.7 c 0,-133.8 -384.74,-242.3 -859.33,-242.3 -474.6,0 -859.33,108.5 -859.33,242.3 0,133.8 384.73,242.3 859.33,242.3 474.59,0 859.33,-108.5 859.33,-242.3" /></g><g
         transform="scale(1.01644)"
         id="g506"><path
           id="path508"
           style="fill:#5c6060;fill-opacity:1;fill-rule:nonzero;stroke:none"
           d="m 5393.23,15950 c -6.93,-155.2 -458.72,-261.1 -1009.11,-236.5 -550.4,24.5 -990.97,170.2 -984.05,325.4 6.93,155.2 458.73,261.1 1009.12,236.5 550.4,-24.5 990.97,-170.2 984.04,-325.4" /></g><g
         transform="scale(1.01093)"
         id="g510"><path
           id="path512"
           style="fill:#6e7373;fill-opacity:1;fill-rule:nonzero;stroke:none"
           d="m 5269.69,16001.1 c -5.92,-132.5 -391.7,-222.9 -861.66,-201.9 -469.97,20.9 -846.16,145.4 -840.25,277.9 5.91,132.5 391.69,222.9 861.66,201.9 469.97,-21 846.16,-145.4 840.25,-277.9" /></g><path
         id="path514"
         style="fill:#6b7378;fill-opacity:1;fill-rule:nonzero;stroke:none"
         d="m 5689.91,11105.2 -83.54,-66.3 c 0,0 -97.94,-144 -92.18,-152.6 5.77,-8.7 14.41,-43.2 51.85,-46.1 37.45,-2.9 535.8,-25.9 544.44,-28.8 8.64,-2.9 112.34,-54.8 126.75,-49 14.4,5.8 66.25,40.3 51.85,74.9 -14.41,34.6 -218.93,95.1 -241.98,118.1 -23.04,23 -77.77,83.5 -77.77,83.5 0,0 -141.15,69.2 -158.44,80.7 -17.28,11.5 -120.98,-14.4 -120.98,-14.4" /><path
         id="path516"
         style="fill:#4b4e4e;fill-opacity:1;fill-rule:nonzero;stroke:none"
         d="m 2103.56,16090.9 h -129.62 v -290.4 h 129.62 v 290.4" /><path
         id="path518"
         style="fill:#6b7378;fill-opacity:1;fill-rule:nonzero;stroke:none"
         d="m 5989.49,10374.8 c 0,0 -54.73,-105 -135.38,-191.4 -80.66,-86.4 -120.3,-103.7 -120.3,-103.7 0,0 22.67,-104.8 22.75,-98.4 0.08,6.3 223.21,55.1 242.47,66.7 19.27,11.5 59.6,72.7 59.6,92.5 0,19.9 0,207.1 0,207.1 l -69.14,27.2" /><path
         id="path520"
         style="fill:#bcb9b7;fill-opacity:1;fill-rule:nonzero;stroke:none"
         d="m 6029.82,11150.3 c -18.67,-4.5 -40.33,-775.5 -40.33,-775.5 0,0 -156.51,-1644.2 -141.15,-1667.2 15.37,-23.1 199.73,-42.3 245.82,0 46.08,42.2 149.79,2414.9 149.79,2414.9 0,0 -47.77,67.7 -214.13,27.8" /><path
         id="path522"
         style="fill:#6b7378;fill-opacity:1;fill-rule:nonzero;stroke:none"
         d="m 3620.68,11229.4 h -138.27 v 61.1 h 138.27 v -61.1" /><path
         id="path524"
         style="fill:#6b7378;fill-opacity:1;fill-rule:nonzero;stroke:none"
         d="m 6200.86,11149.6 -138.01,8.5 3.76,61 138.01,-8.5 -3.76,-61" /><path
         id="path526"
         style="fill:#262424;fill-opacity:1;fill-rule:nonzero;stroke:none"
         d="m 2134.51,13207 c 0,0 -155.55,-10.6 -270.78,-219.2 -115.22,-208.6 26.89,-622.4 53.77,-767.4 26.88,-144.9 38.41,-265.2 38.41,-265.2 0,0 199.72,-67.1 414.8,-63.6 215.09,3.5 288.06,56.6 288.06,56.6 0,0 53.77,360.7 69.14,364.2 15.36,3.5 142.11,279.3 180.52,290 38.41,10.5 38.41,-233.4 38.41,-233.4 0,0 25.92,0 40.32,34.4 14.41,34.5 8.65,66.3 17.29,87.6 8.64,21.2 25.92,45 40.33,106 14.4,61 -20.17,201.6 0,228.1 20.16,26.6 54.73,66.3 54.73,66.3 0,0 100.82,132.6 43.2,262.6 -57.61,129.9 -282.29,175 -504.1,183 -221.81,7.9 -446.49,-55.7 -504.1,-130" /><path
         id="path528"
         style="fill:#959595;fill-opacity:1;fill-rule:nonzero;stroke:none"
         d="m 5012.62,15260.3 593.75,-4221.4 h 362.96 l -538.72,4064.6 -417.99,156.8" /><path
         id="path530"
         style="fill:#bebdbb;fill-opacity:1;fill-rule:nonzero;stroke:none"
         d="m 4467.01,15453.4 v 244.4 c 0,0 382.73,-176.6 440.34,-226.6 57.61,-49.9 150.08,-338.9 150.08,-338.9 l 373.18,-28.8 -119.98,482.8 -644.11,461.5 -197.59,121.7 -137.12,-35.5 -62.03,-728.1 c 0,0 27.31,-69.8 77.03,-66.6 49.71,3.3 120.2,114.1 120.2,114.1" /><g
         transform="scale(1.00207)"
         id="g532"><path
           id="path534"
           style="fill:#959595;fill-opacity:1;fill-rule:nonzero;stroke:none"
           d="m 4441.11,16274.9 c 0,0 -57.21,-368 -22.85,-387.1 34.36,-19.2 820.09,-569.2 927.41,-579.8 107.32,-10.5 157.15,214.2 130.32,289.7 -26.83,75.4 -428.99,265.4 -428.99,265.4 v 170.3 l -538.21,266.6 -67.68,-25.1" /></g><path
         id="path536"
         style="fill:#262424;fill-opacity:1;fill-rule:nonzero;stroke:none"
         d="m 5464,15586.3 c 0,-42.3 -34.33,-76.7 -76.69,-76.7 -42.34,0 -76.68,34.4 -76.68,76.7 0,42.4 34.34,76.7 76.68,76.7 42.36,0 76.69,-34.3 76.69,-76.7" /></g></g></svg>