<?xml version="1.0" encoding="UTF-8" standalone="no"?>
<svg
   xmlns:dc="http://purl.org/dc/elements/1.1/"
   xmlns:cc="http://creativecommons.org/ns#"
   xmlns:rdf="http://www.w3.org/1999/02/22-rdf-syntax-ns#"
   xmlns:svg="http://www.w3.org/2000/svg"
   xmlns="http://www.w3.org/2000/svg"
   viewBox="0 0 2666.6667 2666.6667"
   height="2666.6667"
   width="2666.6667"
   xml:space="preserve"
   id="svg2"
   version="1.1"><metadata
     id="metadata8"><rdf:RDF><cc:Work
         rdf:about=""><dc:format>image/svg+xml</dc:format><dc:type
           rdf:resource="http://purl.org/dc/dcmitype/StillImage" /></cc:Work></rdf:RDF></metadata><defs
     id="defs6" /><g
     transform="matrix(1.3333333,0,0,-1.3333333,0,2666.6667)"
     id="g10"><g
       transform="scale(0.1)"
       id="g12"><g
         transform="scale(1.22699)"
         id="g14"><path
           id="path16"
           style="fill:none;fill-opacity:1;fill-rule:nonzero;stroke:none"
           d="M 16300,0 H 0 V 16300 H 16300 V 0" /></g><path
         id="path18"
         style="fill:#fbc295;fill-opacity:1;fill-rule:nonzero;stroke:none"
         d="m 14409.2,13067.8 -241.7,-145 17.8,-789.3 336.6,-452.7 399.5,401.1 -376.9,973 -135.3,12.9" /><path
         id="path20"
         style="fill:#e8a87c;fill-opacity:1;fill-rule:nonzero;stroke:none"
         d="m 2447.58,11618.2 c 0,0 207.02,109.3 259.52,131.9 52.49,22.5 271.57,169.1 271.57,169.1 0,0 109.53,-178.8 122.42,-198.1 12.89,-19.3 22.55,-49.9 22.55,-80.5 0,-30.7 -41,-12.2 -80.89,-45.2 -39.89,-33.1 -170.51,-60.2 -170.51,-60.2 0,0 -276.68,-11.9 -283.26,0 -6.58,11.9 -141.4,83 -141.4,83" /><path
         id="path22"
         style="fill:#fbc295;fill-opacity:1;fill-rule:nonzero;stroke:none"
         d="m 5771.86,13028.6 -67.66,118.1 -289.95,-155.5 c 0,0 -309.28,34.7 -463.92,-57.1 -154.64,-91.9 -376.93,-304.5 -376.93,-304.5 0,0 -323.78,-77.3 -512.25,-188.5 0,0 -251.29,-29 -343.11,-77.3 0,0 -207.8,-29 -309.28,-101.5 -101.48,-72.4 -430.09,-343.1 -430.09,-343.1 0,0 106.32,-318.9 144.97,-309.3 38.66,9.7 372.11,62.9 550.91,130.5 178.8,67.7 309.28,198.2 309.28,198.2 0,0 454.26,0 729.71,91.8 275.45,91.8 430.09,236.8 430.09,236.8 0,0 111.15,-169.2 164.31,-319 53.15,-149.8 106.31,-251.3 106.31,-251.3 l 449.43,-16.1 125.64,755.5 -217.46,592.3" /><path
         id="path24"
         style="fill:#fbc295;fill-opacity:1;fill-rule:nonzero;stroke:none"
         d="m 7366.59,11841.9 c 0,0 115.97,285.1 188.46,352.8 0,0 251.29,-130.5 546.08,-140.2 294.78,-9.6 526.74,43.5 526.74,43.5 0,0 175.58,-135.3 359.21,-141.7 183.64,-6.5 222.3,-32.2 222.3,-32.2 l 19.33,-64.5 351.16,-67.6 c 0,0 244.32,116.5 234.66,126.2 -9.67,9.7 -266.87,302.2 -408.63,421.5 -141.75,119.2 -360.82,148.2 -360.82,148.2 0,0 -222.3,74 -289.95,83.7 -67.66,9.7 -199.75,0 -199.75,0 0,0 -454.25,99.9 -476.81,116 -22.54,16.1 -347.94,235.2 -492.91,280.3 -144.98,45.1 -328.61,23.3 -328.61,23.3 0,0 -157.87,147.4 -286.73,179.7 -128.86,32.2 -219.07,-283.6 -219.07,-283.6 0,0 -170.75,2.4 -12.89,-404.7 157.86,-407.1 70.88,-510.2 238.4,-555.3 167.53,-45.1 389.83,-85.4 389.83,-85.4" /><path
         id="path26"
         style="fill:#e8a87c;fill-opacity:1;fill-rule:nonzero;stroke:none"
         d="m 9814.53,11918.2 c -5.98,6 -106.59,120.1 -216.03,234.5 h -120.66 v 60.3 l -177.78,-116.6 -91.83,-171.7 1.15,-0.6 19.33,-64.5 351.16,-67.6 c 0,0 244.32,116.5 234.66,126.2" /><path
         id="path28"
         style="fill:#e8a87c;fill-opacity:1;fill-rule:nonzero;stroke:none"
         d="m 4786.03,12468.5 c 0,0 170.75,-58.2 244.84,-90.3 74.1,-32.1 112.76,-111 112.76,-111 0,0 -85.71,-70.3 -140.22,-102 0,0 -1.53,74.6 -38.58,129.4 -37.05,54.7 -140.14,74.1 -178.8,173.9" /><path
         id="path30"
         style="fill:#e8a87c;fill-opacity:1;fill-rule:nonzero;stroke:none"
         d="m 3974.17,12284.9 c 0,0 0,-67.1 -26.58,-119.7 -26.58,-52.7 -53.16,-159 -53.16,-159 0,0 106.31,86 115.98,159 9.66,73 -36.24,119.7 -36.24,119.7" /><path
         id="path32"
         style="fill:#3a70c0;fill-opacity:1;fill-rule:nonzero;stroke:none"
         d="m 5493.18,5777.1 c 0,0 -43.49,-25.8 -46.71,-51.5 -3.22,-25.8 6.44,-77.4 0,-96.7 -6.45,-19.3 -22.55,-48.3 -38.66,-119.2 -16.11,-70.9 -10.63,-457.5 -27.87,-502.6 -17.23,-45.1 -49.45,-93.4 -23.68,-154.6 25.78,-61.2 171.88,-48.3 403.28,-48.3 231.39,0 263.61,32.2 273.27,70.8 9.67,38.7 -74.09,261 -106.31,341.5 -32.22,80.6 -99.87,348 -103.1,383.4 -3.21,35.5 12.89,157.9 -46.71,177.2 -59.6,19.3 -283.51,0 -283.51,0" /><path
         id="path34"
         style="fill:#3a70c0;fill-opacity:1;fill-rule:nonzero;stroke:none"
         d="m 6673.93,5384.1 c 0,0 -73.3,-41.9 -68.47,-112 4.84,-70.1 19.33,-161.9 19.33,-161.9 0,0 -79.73,-270.6 -144.16,-360.8 -64.44,-90.2 -90.84,-296.4 -79.25,-360.8 11.59,-64.5 665.59,-16.1 710.7,25.7 45.1,41.9 0,388.7 0,388.7 0,0 -6.45,355.5 -12.9,371.7 -6.44,16.1 -67.65,119.7 -67.65,119.7 0,0 -141.75,179.9 -151.42,179.9 -9.66,0 -206.18,-90.2 -206.18,-90.2" /><path
         id="path36"
         style="fill:#fbc295;fill-opacity:1;fill-rule:nonzero;stroke:none"
         d="m 5486.74,8120.9 c 0,0 14.5,-391.5 0,-449.4 -14.5,-58 -102.18,-290 -106.67,-768.4 -4.48,-478.4 105.06,-1010 113.11,-1126 h 283.51 c 0,0 38.66,671.7 130.48,908.5 91.81,236.8 53.16,546.1 53.16,589.6 0,43.5 115.97,227.1 144.97,483.2 29,256.2 33.83,459.1 33.83,459.1 0,0 -367.27,19.4 -410.77,0 -43.49,-19.3 -241.62,-96.6 -241.62,-96.6" /><path
         id="path38"
         style="fill:#fbc295;fill-opacity:1;fill-rule:nonzero;stroke:none"
         d="m 6477.4,8613.8 c 0,0 -90.2,-318.4 -74.09,-470.9 16.1,-152.5 167.52,-597.1 173.97,-706.6 6.44,-109.6 -41.88,-538 16.1,-831.2 57.99,-293.2 54.77,-579.9 80.55,-828 25.77,-248.1 0,-393 0,-393 0,0 96.65,0 209.4,-32.3 112.76,-32.2 148.2,-57.4 148.2,-57.4 0,0 38.66,634.1 141.76,920.9 103.09,286.7 128.86,676.5 80.54,940.7 -48.33,264.2 -112.76,396.3 -119.21,467.1 -6.44,70.9 -35.44,534.8 9.67,673.4 45.1,138.5 133.06,393 133.06,393 l -437.98,77.3 -361.97,-153" /><path
         id="path40"
         style="fill:#252323;fill-opacity:1;fill-rule:nonzero;stroke:none"
         d="m 5481.91,10397 c 0,0 -109.54,-132.1 -96.65,-396.3 12.88,-264.2 17.22,-1333.7 -1.06,-1475.5 -18.27,-141.8 30.05,-418.8 30.05,-418.8 0,0 280.29,-111.2 579.91,-48.3 299.61,62.8 396.26,111.1 396.26,111.1 l 86.98,444.6 c 0,0 149.81,62.8 420.43,29 270.62,-33.8 468.76,-19.3 468.76,-19.3 0,0 -9.67,787.7 0,1048.6 9.66,261 -4.84,483.3 -53.16,570.3 -48.33,86.9 -57.99,188.4 -72.49,236.7 -14.49,48.4 -67.65,72.5 -67.65,72.5 0,0 -879.52,116 -1024.5,48.3 -144.97,-67.6 -666.88,-202.9 -666.88,-202.9" /><path
         id="path42"
         style="fill:#3a70c0;fill-opacity:1;fill-rule:nonzero;stroke:none"
         d="m 5817.65,13170.9 -113.45,-24.2 c 0,0 31.3,-425.3 56.73,-710.4 25.43,-285.1 -148.54,-584.7 -201.7,-647.5 -53.16,-62.9 -144.98,-91.9 -144.98,-91.9 0,0 115.98,-531.5 125.65,-608.9 9.66,-77.3 -57.99,-691 -57.99,-691 0,0 290.15,-261 850.61,-236.8 560.48,24.2 840.77,391.4 840.77,391.4 0,0 -38.67,270.7 0,386.6 38.65,116 193.3,903.7 193.3,903.7 0,0 -241.63,246.5 -314.12,579.9 -72.48,333.5 -82.15,749.1 -82.15,749.1 l -128.86,32.2 -484.87,-101.5 -538.94,69.3" /><path
         id="path44"
         style="fill:#fbc295;fill-opacity:1;fill-rule:nonzero;stroke:none"
         d="m 6027.98,13347.2 -210.33,-176.3 c 0,0 34.75,-338.3 153.95,-621.8 119.21,-283.5 409.15,-335.1 573.46,-322.2 164.31,12.9 254.51,287.4 280.29,559.3 25.77,271.9 25.77,420.1 16.11,416.9 -9.67,-3.3 -125.65,49.9 -170.76,158.6 -45.1,108.8 -467.14,70.1 -467.14,70.1 l -175.58,-84.6" /><path
         id="path46"
         style="fill:#e8a87c;fill-opacity:1;fill-rule:nonzero;stroke:none"
         d="m 6087.58,13325.5 -59.6,21.7 c 0,0 98.26,-237.6 204.58,-305.2 106.31,-67.7 196.52,-67.7 267.4,0 70.87,67.6 138.53,256.8 138.53,256.8 0,0 -341.5,41.2 -370.5,48.4 -28.99,7.3 -180.41,-21.7 -180.41,-21.7" /><path
         id="path48"
         style="fill:#e8a87c;fill-opacity:1;fill-rule:nonzero;stroke:none"
         d="m 6489.49,13120.1 -41.08,-232.8 135,282.5 z" /><path
         id="path50"
         style="fill:#252323;fill-opacity:1;fill-rule:nonzero;stroke:none"
         d="m 5859.21,13884.6 c 0,0 -29.36,165.8 -22.12,279.3 7.26,113.6 58,285.2 108.74,343.1 50.74,58 225.25,144.7 346.06,164 120.82,19.4 258,-67.3 318.41,-96.3 60.4,-29 118.4,-142.6 147.39,-198.1 28.99,-55.6 36.25,-251.3 38.66,-299.7 2.41,-48.3 4.83,-229.5 4.83,-229.5 0,0 -62.82,-108.7 -74.9,-111.1 -12.08,-2.5 -306.87,-31.5 -306.87,-31.5 0,0 -287.53,53.2 -379.35,46 -91.82,-7.3 -130.48,19.3 -130.48,19.3 l -50.37,114.5" /><path
         id="path52"
         style="fill:#fbc295;fill-opacity:1;fill-rule:nonzero;stroke:none"
         d="m 5916.83,13863.5 c 0,0 -61.21,35.4 -90.2,16.1 -29,-19.3 19.33,-196.5 45.1,-230.3 25.77,-33.9 76.51,-67.7 76.51,-67.7 0,0 60.41,-183.6 79.74,-234.4 19.33,-50.7 111.15,-195.7 186.05,-227.1 74.91,-31.4 234.38,-16.9 275.46,0 41.07,16.9 164.3,186.1 181.21,241.6 16.92,55.6 50.75,219.9 50.75,219.9 0,0 41.07,24.2 62.82,108.7 21.75,84.6 28.99,128.1 16.91,157.1 -12.08,29 -72.48,-14.5 -77.32,-26.6 0,0 0,79.8 -21.75,118.4 -21.74,38.7 -50.74,200.6 -86.98,234.4 -36.24,33.8 -161.89,14.5 -229.54,14.5 -67.66,0 -306.87,-7.3 -328.61,-19.3 -21.75,-12.1 -62.82,-157.1 -77.32,-181.3 -14.5,-24.1 -29,-149.8 -36.25,-152.2 -7.25,-2.4 -26.58,28.2 -26.58,28.2" /><path
         id="path54"
         style="fill:#e8a87c;fill-opacity:1;fill-rule:nonzero;stroke:none"
         d="m 5919.79,12690.6 c 0,0 267.67,-70.7 289.41,-80.3 21.75,-9.7 57.99,-31.4 57.99,-31.4 0,0 -41.08,67.6 -60.41,82.1 -19.32,14.5 -313.22,118.2 -313.22,118.2 l 26.23,-88.6" /><path
         id="path56"
         style="fill:#e8a87c;fill-opacity:1;fill-rule:nonzero;stroke:none"
         d="m 6811.73,12679 c 0,0 -220.76,-32.5 -244.92,-42.1 -24.17,-9.7 -65.24,-33.9 -65.24,-33.9 0,0 36.24,79.8 53.16,89.4 16.91,9.7 265.46,46.6 265.46,46.6 l -8.46,-60" /><path
         id="path58"
         style="fill:#100f0d;fill-opacity:1;fill-rule:nonzero;stroke:none"
         d="m 6994.48,9330 c 0,0 -144.97,-20.3 -265.78,-92.8 -120.82,-72.5 -212.64,-159.5 -212.64,-159.5 0,0 183.64,43.5 376.94,0 0,0 -304.45,-87 -352.78,-116 -48.32,-29 -62.82,-347.9 -62.82,-347.9 l -86.98,-444.6 -68.56,-26.3 c 0,0 68.56,847.8 68.56,891.3 0,43.5 183.63,325.8 604.06,295.8" /><path
         id="path60"
         style="fill:#e8a87c;fill-opacity:1;fill-rule:nonzero;stroke:none"
         d="m 5607.55,7321.1 c 0,0 84.57,-33.8 118.4,-36.2 33.83,-2.5 120.81,19.3 128.06,18.1 7.25,-1.2 -72.49,-81 -140.14,-73.7 -67.66,7.2 -106.32,91.8 -106.32,91.8" /><path
         id="path62"
         style="fill:#e8a87c;fill-opacity:1;fill-rule:nonzero;stroke:none"
         d="m 6791.52,7611 c -9.67,9.7 67.65,72.5 94.23,123.3 26.58,50.7 16.92,118.4 36.25,118.4 19.32,0 19.32,-130.5 0,-181.2 -19.33,-50.8 -58,-91.9 -58,-91.9 0,0 12.08,-33.8 9.67,-79.7 -2.42,-45.9 -29.94,-77.3 -34.3,-67.7 -4.36,9.7 -1.94,132.9 -47.85,178.8" /><path
         id="path64"
         style="fill:#e8a87c;fill-opacity:1;fill-rule:nonzero;stroke:none"
         d="m 6593.38,7775.4 c 0,0 54.68,-140.2 64.79,-207.8 10.12,-67.7 12.53,-137.1 12.53,-137.1 0,0 -55.57,120.1 -62.82,156.4 -7.25,36.2 -14.5,188.5 -14.5,188.5" /><path
         id="path66"
         style="fill:#3a70c0;fill-opacity:1;fill-rule:nonzero;stroke:none"
         d="m 14264.2,5777.1 c 0,0 -43.5,-25.8 -46.7,-51.5 -3.3,-25.8 6.4,-77.4 0,-96.7 -6.5,-19.3 -22.6,-48.3 -38.7,-119.2 -16.1,-70.9 -10.6,-457.5 -27.9,-502.6 -17.2,-45.1 -49.4,-93.4 -23.6,-154.6 25.7,-61.2 171.8,-48.3 403.2,-48.3 231.4,0 263.7,32.2 273.3,70.8 9.7,38.7 -74.1,261 -106.3,341.5 -32.2,80.6 -99.9,348 -103.1,383.4 -3.2,35.5 12.9,157.9 -46.7,177.2 -59.6,19.3 -283.5,0 -283.5,0" /><path
         id="path68"
         style="fill:#3a70c0;fill-opacity:1;fill-rule:nonzero;stroke:none"
         d="m 15444.9,5384.1 c 0,0 -73.3,-41.9 -68.4,-112 4.8,-70.1 19.3,-161.9 19.3,-161.9 0,0 -79.7,-270.6 -144.2,-360.8 -64.4,-90.2 -90.8,-296.4 -79.2,-360.8 11.6,-64.5 665.6,-16.1 710.7,25.7 45.1,41.9 0,388.7 0,388.7 0,0 -6.5,355.5 -12.9,371.7 -6.5,16.1 -67.7,119.7 -67.7,119.7 0,0 -141.7,179.9 -151.4,179.9 -9.7,0 -206.2,-90.2 -206.2,-90.2" /><path
         id="path70"
         style="fill:#fbc295;fill-opacity:1;fill-rule:nonzero;stroke:none"
         d="m 14257.7,8120.9 c 0,0 14.5,-391.5 0,-449.4 -14.5,-58 -102.1,-290 -106.6,-768.4 -4.5,-478.4 105,-1010 113.1,-1126 h 283.5 c 0,0 38.6,671.7 130.5,908.5 91.8,236.8 53.1,546.1 53.1,589.6 0,43.5 116,227.1 145,483.2 29,256.2 33.8,459.1 33.8,459.1 0,0 -367.2,19.4 -410.7,0 -43.5,-19.3 -241.7,-96.6 -241.7,-96.6" /><path
         id="path72"
         style="fill:#fbc295;fill-opacity:1;fill-rule:nonzero;stroke:none"
         d="m 15248.4,8613.8 c 0,0 -90.2,-318.4 -74.1,-470.9 16.1,-152.5 167.5,-597.1 174,-706.6 6.4,-109.6 -41.9,-538 16.1,-831.2 58,-293.2 54.8,-579.9 80.5,-828 25.8,-248.1 0,-393 0,-393 0,0 96.7,0 209.4,-32.3 112.8,-32.2 148.2,-57.4 148.2,-57.4 0,0 38.7,634.1 141.8,920.9 103.1,286.7 128.9,676.5 80.5,940.7 -48.3,264.2 -112.7,396.3 -119.2,467.1 -6.4,70.9 -35.4,534.8 9.7,673.4 45.1,138.5 133.1,393 133.1,393 l -438,77.3 -362,-153" /><path
         id="path74"
         style="fill:#252323;fill-opacity:1;fill-rule:nonzero;stroke:none"
         d="m 14252.9,10397 c 0,0 -109.5,-132.1 -96.6,-396.3 12.9,-264.2 17.2,-1333.7 -1.1,-1475.5 -18.3,-141.8 30.1,-418.8 30.1,-418.8 0,0 280.2,-111.2 579.9,-48.3 299.6,62.8 396.2,111.1 396.2,111.1 l 87,444.6 c 0,0 149.8,62.8 420.4,29 270.7,-33.8 468.8,-19.3 468.8,-19.3 0,0 -9.7,787.7 0,1048.6 9.7,261 -4.8,483.3 -53.2,570.3 -48.3,86.9 -58,188.4 -72.5,236.7 -14.5,48.4 -67.6,72.5 -67.6,72.5 0,0 -879.5,116 -1024.5,48.3 -145,-67.6 -666.9,-202.9 -666.9,-202.9" /><path
         id="path76"
         style="fill:#3a70c0;fill-opacity:1;fill-rule:nonzero;stroke:none"
         d="m 14588.7,13170.9 -179.5,-103.1 c 0,0 97.3,-346.4 122.7,-631.5 25.5,-285.1 -148.5,-584.7 -201.7,-647.5 -53.1,-62.9 -144.9,-91.9 -144.9,-91.9 0,0 115.9,-531.5 125.6,-608.9 9.7,-77.3 -58,-691 -58,-691 0,0 290.2,-261 850.6,-236.8 560.5,24.2 840.8,391.4 840.8,391.4 0,0 -38.7,270.7 0,386.6 38.6,116 193.3,903.7 193.3,903.7 0,0 -241.6,246.5 -314.1,579.9 -72.5,333.5 -51.6,720.1 -51.6,720.1 l -159.5,61.2 -484.8,-101.5 -538.9,69.3" /><path
         id="path78"
         style="fill:#fbc295;fill-opacity:1;fill-rule:nonzero;stroke:none"
         d="m 14799,13347.2 -210.3,-176.3 c 0,0 34.7,-338.3 153.9,-621.8 119.2,-283.5 409.2,-335.1 573.5,-322.2 164.3,12.9 254.5,287.4 280.2,559.3 25.8,271.9 25.8,420.1 16.2,416.9 -9.7,-3.3 -125.7,49.9 -170.8,158.6 -45.1,108.8 -467.1,70.1 -467.1,70.1 l -175.6,-84.6" /><path
         id="path80"
         style="fill:#e8a87c;fill-opacity:1;fill-rule:nonzero;stroke:none"
         d="m 14858.6,13325.5 -59.6,21.7 c 0,0 98.2,-237.6 204.6,-305.2 106.3,-67.7 196.5,-67.7 267.4,0 70.8,67.6 138.5,256.8 138.5,256.8 0,0 -341.5,41.2 -370.5,48.4 -29,7.3 -180.4,-21.7 -180.4,-21.7" /><path
         id="path82"
         style="fill:#e8a87c;fill-opacity:1;fill-rule:nonzero;stroke:none"
         d="m 14690.8,12690.6 c 0,0 267.7,-70.7 289.4,-80.3 21.7,-9.7 58,-31.4 58,-31.4 0,0 -41.1,67.6 -60.4,82.1 -19.3,14.5 -313.2,118.2 -313.2,118.2 l 26.2,-88.6" /><path
         id="path84"
         style="fill:#e8a87c;fill-opacity:1;fill-rule:nonzero;stroke:none"
         d="m 15582.7,12679 c 0,0 -220.7,-32.5 -244.9,-42.1 -24.2,-9.7 -65.2,-33.9 -65.2,-33.9 0,0 36.2,79.8 53.1,89.4 16.9,9.7 265.5,46.6 265.5,46.6 l -8.5,-60" /><path
         id="path86"
         style="fill:#e8a87c;fill-opacity:1;fill-rule:nonzero;stroke:none"
         d="m 15260.5,13120.1 -41.1,-232.8 135,282.5 z" /><path
         id="path88"
         style="fill:#252323;fill-opacity:1;fill-rule:nonzero;stroke:none"
         d="m 14630.2,13884.6 c 0,0 -29.4,165.8 -22.1,279.3 7.3,113.6 58,285.2 108.7,343.1 50.8,58 225.3,144.7 346.1,164 120.8,19.4 258,-67.3 318.4,-96.3 60.4,-29 118.4,-142.6 147.4,-198.1 29,-55.6 36.2,-251.3 38.7,-299.7 2.4,-48.3 4.8,-229.5 4.8,-229.5 0,0 -62.8,-108.7 -74.9,-111.1 -12.1,-2.5 -306.9,-31.5 -306.9,-31.5 0,0 -287.5,53.2 -379.3,46 -91.9,-7.3 -130.5,19.3 -130.5,19.3 l -50.4,114.5" /><path
         id="path90"
         style="fill:#fbc295;fill-opacity:1;fill-rule:nonzero;stroke:none"
         d="m 14687.8,13863.5 c 0,0 -61.2,35.4 -90.2,16.1 -29,-19.3 19.4,-196.5 45.1,-230.3 25.8,-33.9 76.5,-67.7 76.5,-67.7 0,0 60.4,-183.6 79.8,-234.4 19.3,-50.7 111.1,-195.7 186,-227.1 74.9,-31.4 234.4,-16.9 275.5,0 41.1,16.9 164.3,186.1 181.2,241.6 16.9,55.6 50.8,219.9 50.8,219.9 0,0 41,24.2 62.8,108.7 21.7,84.6 29,128.1 16.9,157.1 -12.1,29 -72.5,-14.5 -77.3,-26.6 0,0 0,79.8 -21.8,118.4 -21.7,38.7 -50.7,200.6 -87,234.4 -36.2,33.8 -161.9,14.5 -229.5,14.5 -67.7,0 -306.9,-7.3 -328.6,-19.3 -21.8,-12.1 -62.8,-157.1 -77.3,-181.3 -14.5,-24.1 -29,-149.8 -36.3,-152.2 -7.2,-2.4 -26.6,28.2 -26.6,28.2" /><path
         id="path92"
         style="fill:#100f0d;fill-opacity:1;fill-rule:nonzero;stroke:none"
         d="m 15765.5,9330 c 0,0 -145,-20.3 -265.8,-92.8 -120.8,-72.5 -212.6,-159.5 -212.6,-159.5 0,0 183.6,43.5 376.9,0 0,0 -304.4,-87 -352.8,-116 -48.3,-29 -62.8,-347.9 -62.8,-347.9 l -87,-444.6 -68.5,-26.3 c 0,0 68.5,847.8 68.5,891.3 0,43.5 183.7,325.8 604.1,295.8" /><path
         id="path94"
         style="fill:#e8a87c;fill-opacity:1;fill-rule:nonzero;stroke:none"
         d="m 14378.6,7321.1 c 0,0 84.5,-33.8 118.4,-36.2 33.8,-2.5 120.8,19.3 128,18.1 7.3,-1.2 -72.5,-81 -140.1,-73.7 -67.7,7.2 -106.3,91.8 -106.3,91.8" /><path
         id="path96"
         style="fill:#e8a87c;fill-opacity:1;fill-rule:nonzero;stroke:none"
         d="m 15562.5,7611 c -9.6,9.7 67.7,72.5 94.2,123.3 26.6,50.7 17,118.4 36.3,118.4 19.3,0 19.3,-130.5 0,-181.2 -19.3,-50.8 -58,-91.9 -58,-91.9 0,0 12.1,-33.8 9.7,-79.7 -2.4,-45.9 -30,-77.3 -34.3,-67.7 -4.4,9.7 -2,132.9 -47.9,178.8" /><path
         id="path98"
         style="fill:#e8a87c;fill-opacity:1;fill-rule:nonzero;stroke:none"
         d="m 15364.4,7775.4 c 0,0 54.7,-140.2 64.8,-207.8 10.1,-67.7 12.5,-137.1 12.5,-137.1 0,0 -55.6,120.1 -62.8,156.4 -7.3,36.2 -14.5,188.5 -14.5,188.5" /><path
         id="path100"
         style="fill:#252323;fill-opacity:1;fill-rule:nonzero;stroke:none"
         d="m 14461.5,10716 -3011.4,1082.4 v -97.1 l 2968.7,-1080.2 42.7,94.9" /><path
         id="path102"
         style="fill:#e8a87c;fill-opacity:1;fill-rule:nonzero;stroke:none"
         d="m 7730.63,12433.1 -161.08,-112.8 -14.5,-125.6 c 0,0 126.43,-62.1 339.48,-114.8 213.04,-52.7 409.86,-22.8 409.86,-22.8 0,0 -233.57,34.5 -374.67,73.2 -141.1,38.6 -279.63,128.8 -279.63,128.8 0,0 141.76,-47.5 248.07,-64.4 106.32,-16.9 154.64,-9.7 154.64,-9.7 0,0 -212.63,65.3 -280.29,94.3 -67.65,29 -91.81,41 -91.81,41 l 49.93,112.8" /><path
         id="path104"
         style="fill:#939697;fill-opacity:1;fill-rule:nonzero;stroke:none"
         d="m 9329.04,12182.6 c 16.46,0 651.93,-230.6 651.93,-230.6 l 48.33,61.5 -625.81,227.4 -74.45,-58.3" /><path
         id="path106"
         style="fill:#939697;fill-opacity:1;fill-rule:nonzero;stroke:none"
         d="m 9900.43,12277 c -6.45,-0.2 -85.4,-55 -109.55,-61.4 -24.15,-6.4 -39.16,18.7 -39.16,18.7 0,0 10.18,58.6 26.29,66.7 16.11,8.1 91.81,22.6 107.92,17.7 16.11,-4.8 20.95,-41.6 14.5,-41.7 z m 174.77,118.2 c -43.5,4.9 -120.81,-29 -128.06,-31.4 -7.24,-2.4 -152.22,14.5 -202.96,-21.7 -50.74,-36.3 -26.58,-118.4 -39.07,-123.3 0,0 60.82,-53.1 121.22,-28.9 60.41,24.1 94.01,51 94.01,51 0,0 72.71,-19.6 145.16,0 72.5,19.5 80.6,79.4 80.6,79.4 0,0 -27.4,70.1 -70.9,74.9" /><path
         id="path108"
         style="fill:#e8a87c;fill-opacity:1;fill-rule:nonzero;stroke:none"
         d="m 9252.85,11760.4 c 0,0 37.99,-162.5 76.19,-184.3 38.21,-21.7 207.34,-16.9 207.34,0 0,16.9 0,116 -26.58,128.1 -26.58,12.1 -180.76,96.6 -180.76,96.6 l -76.19,-40.4" /><path
         id="path110"
         style="fill:#939697;fill-opacity:1;fill-rule:nonzero;stroke:none"
         d="m 9302.01,12255.1 c 0,0 -157.06,-396.3 -159.48,-425.3 -2.41,-29 316.53,-161.9 316.53,-161.9 0,0 444.59,-135.3 548.44,-142.5 103.9,-7.3 125.7,4.8 137.8,45.9 12.1,41.1 -106.3,439.7 -116,442.2 -9.7,2.4 -67.66,9.6 -67.66,9.6 l 45.86,-352.7 -576.86,150.3 -184.21,68.5 c 0,0 159.47,349.5 157.06,351.7 -2.42,2.1 -77.32,26.3 -101.48,14.2" /><path
         id="path112"
         style="fill:#252323;fill-opacity:1;fill-rule:nonzero;stroke:none"
         d="m 9581.49,12176.2 c 5.63,16.1 39.46,73.5 73.29,82.2 33.82,8.8 159.47,-46.8 171.55,-68.5 12.08,-21.8 -25.31,-93.5 -25.31,-93.5 l -219.53,79.8" /><path
         id="path114"
         style="fill:#252323;fill-opacity:1;fill-rule:nonzero;stroke:none"
         d="m 10104.3,12381.7 1943.4,673.2 v -77.3 l -1901.6,-657.3 -41.8,61.4" /><path
         id="path116"
         style="fill:#fbc295;fill-opacity:1;fill-rule:nonzero;stroke:none"
         d="m 9300.06,11869.3 c 0,0 101.01,64.4 142.09,76.5 41.07,12.1 94.23,2.4 106.31,0 12.08,-2.4 84.57,4.6 111.15,6 26.58,1.3 46.14,-3.6 65.24,-13.2 19.1,-9.7 115.98,-19.7 159.47,-42.5 43.49,-22.8 41.08,-278.9 26.58,-310.3 -14.5,-31.4 -53.16,-70.1 -70.07,-70.1 -16.91,0 -24.16,-4.8 -31.41,0 -7.25,4.9 -57.99,-1.9 -65.24,-2.1 -7.25,-0.3 -31.41,0.2 -77.32,0 -45.91,-0.3 -72.49,23.9 -82.15,23.9 -9.67,0 -67.66,-21.8 -101.49,4.8 -33.83,26.6 -70.67,145.4 -70.67,145.4 l 46.51,-19.8 -28.42,152.8 -130.58,48.6" /><path
         id="path118"
         style="fill:#e8a87c;fill-opacity:1;fill-rule:nonzero;stroke:none"
         d="m 9624.69,11605.1 c 1.33,24.2 -9.58,167.5 -25.49,161.1 -15.9,-6.4 -4.58,-138.4 -9.66,-157.9 -2.79,-10.7 -36.78,-47.7 -66.86,-79 27.83,-1.4 55.61,8.2 62.03,8.2 3.79,0 10.27,-3.8 19.39,-8.3 9.54,29.1 19.89,63.1 20.59,75.9" /><path
         id="path120"
         style="fill:#e8a87c;fill-opacity:1;fill-rule:nonzero;stroke:none"
         d="m 9752.23,11722.7 c -17.71,0 -11.27,-125.6 -19.32,-169.1 -2.38,-12.8 -8.98,-26.7 -17.06,-40 15.02,-0.1 24.34,-0.2 28.33,0 3.05,0.1 13.84,1.3 25.82,2.4 -0.86,66.9 -4.28,206.7 -17.77,206.7" /><path
         id="path122"
         style="fill:#e8a87c;fill-opacity:1;fill-rule:nonzero;stroke:none"
         d="m 9828.74,11706.6 c -6.96,-6 -12.08,-130.8 -14.21,-192.8 5.98,-0.9 13.26,1.9 26.3,1.9 5.46,0 13.2,4.1 21.65,10.6 -12.59,85 -28.44,184.9 -33.74,180.3" /><path
         id="path124"
         style="fill:#939697;fill-opacity:1;fill-rule:nonzero;stroke:none"
         d="m 3002.86,11904.6 c -16.45,0 -651.93,-230.6 -651.93,-230.6 l -48.32,61.5 625.81,227.4 74.44,-58.3" /><path
         id="path126"
         style="fill:#252323;fill-opacity:1;fill-rule:nonzero;stroke:none"
         d="m 2227.57,12103.8 -1943.34,673.1 v -77.3 l 1901.53,-657.2 41.81,61.4" /><path
         id="path128"
         style="fill:#939697;fill-opacity:1;fill-rule:nonzero;stroke:none"
         d="m 2541.03,11937.6 c -24.15,6.5 -103.11,61.3 -109.56,61.4 -6.44,0.2 -1.61,36.9 14.5,41.8 16.11,4.8 91.82,-9.7 107.93,-17.8 16.1,-8 26.29,-66.7 26.29,-66.7 0,0 -15.01,-25.1 -39.16,-18.7 z m 46.69,126.5 c -50.74,36.3 -195.71,19.3 -202.96,21.8 -7.25,2.4 -84.57,36.2 -128.06,31.4 -43.49,-4.9 -70.94,-74.9 -70.94,-74.9 0,0 8.12,-59.9 80.6,-79.5 72.49,-19.6 145.2,0 145.2,0 0,0 33.61,-26.9 94.01,-51 60.41,-24.2 121.22,29 121.22,29 -12.49,4.8 11.68,87 -39.07,123.2" /><path
         id="path130"
         style="fill:#e8a87c;fill-opacity:1;fill-rule:nonzero;stroke:none"
         d="m 3079.06,11482.4 c 0,0 -38,-162.5 -76.2,-184.2 -38.2,-21.8 -207.34,-17 -207.34,0 0,16.9 0,115.9 26.58,128 26.58,12.1 180.76,96.7 180.76,96.7 l 76.2,-40.5" /><path
         id="path132"
         style="fill:#939697;fill-opacity:1;fill-rule:nonzero;stroke:none"
         d="m 3029.9,11977.1 c 0,0 157.06,-396.2 159.47,-425.2 2.42,-29 -316.53,-161.9 -316.53,-161.9 0,0 -444.59,-135.3 -548.48,-142.6 -103.91,-7.2 -125.65,4.9 -137.73,45.9 -12.08,41.1 106.31,439.8 115.98,442.2 9.66,2.4 67.65,9.7 67.65,9.7 l -45.9,-352.8 576.9,150.4 184.21,68.5 c 0,0 -159.47,349.4 -157.05,351.6 2.41,2.1 77.32,26.3 101.48,14.2" /><path
         id="path134"
         style="fill:#252323;fill-opacity:1;fill-rule:nonzero;stroke:none"
         d="m 2750.41,11898.2 c -5.63,16.1 -39.46,73.6 -73.29,82.3 -33.82,8.7 -159.47,-46.9 -171.55,-68.6 -12.08,-21.8 25.31,-93.5 25.31,-93.5 l 219.53,79.8" /><path
         id="path136"
         style="fill:#fbc295;fill-opacity:1;fill-rule:nonzero;stroke:none"
         d="m 3002.86,11562.3 c 0,0 -72.03,93.5 -113.1,105.5 -41.08,12.1 -94.24,2.5 -106.32,0 -12.08,-2.4 -84.57,4.7 -111.15,6 -26.58,1.3 -46.13,-3.5 -65.23,-13.2 -19.11,-9.7 -115.99,-19.6 -159.48,-42.4 -43.49,-22.8 -41.08,-279 -26.58,-310.4 14.5,-31.4 53.16,-70 70.07,-70 16.92,0 24.17,-4.9 31.42,0 7.25,4.8 57.99,-1.9 65.23,-2.2 7.26,-0.3 31.42,0.3 77.32,0 45.91,-0.3 72.49,23.9 82.16,23.9 9.66,0 67.65,-21.7 101.48,4.8 33.83,26.6 70.68,145.5 70.68,145.5 l -46.52,-19.8 28.42,152.8 101.6,19.5" /><path
         id="path138"
         style="fill:#e8a87c;fill-opacity:1;fill-rule:nonzero;stroke:none"
         d="m 2707.21,11327.2 c -1.33,24.1 9.58,167.5 25.49,161 15.91,-6.4 4.58,-138.4 9.66,-157.8 2.8,-10.7 36.79,-47.8 66.86,-79.1 -27.83,-1.3 -55.6,8.2 -62.02,8.2 -3.79,0 -10.27,-3.7 -19.4,-8.2 -9.54,29 -19.88,63 -20.59,75.9" /><path
         id="path140"
         style="fill:#e8a87c;fill-opacity:1;fill-rule:nonzero;stroke:none"
         d="m 2579.67,11444.7 c 17.72,0 11.28,-125.6 19.33,-169.1 2.37,-12.8 8.98,-26.7 17.05,-40 -15.01,0 -24.34,-0.2 -28.33,0 -3.05,0.1 -13.83,1.4 -25.82,2.4 0.87,66.9 4.29,206.7 17.77,206.7" /><path
         id="path142"
         style="fill:#e8a87c;fill-opacity:1;fill-rule:nonzero;stroke:none"
         d="m 2503.17,11428.6 c 6.95,-5.9 12.08,-130.8 14.2,-192.8 -5.97,-0.9 -13.26,2 -26.3,2 -5.45,0 -13.2,4 -21.65,10.5 12.6,85.1 28.45,184.9 33.75,180.3" /><path
         id="path144"
         style="fill:#fbc295;fill-opacity:1;fill-rule:nonzero;stroke:none"
         d="m 14228.7,12887.3 -61.2,35.5 c 0,0 -281.9,22.2 -431.7,-183.8 -149.8,-206.1 -9.6,-563.6 0,-578.1 9.7,-14.5 29,-473.6 111.2,-681.4 82.1,-207.8 265.8,-439.8 381.7,-560.6 116,-120.8 275.5,-328.6 275.5,-328.6 l 251.3,-111.2 c 0,0 422.9,80.4 390.2,111.2 -32.6,30.8 -264.6,420.4 -380.5,570.2 -116,149.8 -176.5,193.3 -176.5,193.3 0,0 7.3,312.5 -24.9,412.4 -32.2,99.9 -119.8,223.3 -119.8,223.3 l -154,589.4 -61.3,308.4" /><path
         id="path146"
         style="fill:#e8a87c;fill-opacity:1;fill-rule:nonzero;stroke:none"
         d="m 15145.7,10590.3 c -16.5,15.6 -84.5,123.8 -162.6,246.1 l -175.7,-131.1 -293.8,-119.2 241.9,-107 c 0,0 422.9,80.3 390.2,111.2" /><path
         id="path148"
         style="fill:#e8a87c;fill-opacity:1;fill-rule:nonzero;stroke:none"
         d="m 14468.7,12050.3 c 0,0 -49.9,219.2 -135.2,362.2 0,0 75.6,-366 67.6,-488.4 l 100.9,-26.1 -58,91.5 24.7,60.8" /><path
         id="path150"
         style="fill:#f0b386;fill-opacity:1;fill-rule:nonzero;stroke:none"
         d="m 14618.4,11024.7 c -6.3,0 -137.4,123.7 -200.7,145.5 -65.5,22.5 -250.2,45.1 -250.2,45.1 0,0 143.9,24.1 231.2,24.1 27.7,0 49.7,-2.4 59.6,-8.8 41.1,-26.6 157.1,-195.7 160.3,-205.4 0.1,-0.3 0,-0.5 -0.2,-0.5" /><path
         id="path152"
         style="fill:#e8a87c;fill-opacity:1;fill-rule:nonzero;stroke:none"
         d="m 13673.5,12578.9 c 0,0 52.7,-280.3 108.2,-372.1 55.6,-91.9 152.3,-190.9 152.3,-190.9 0,0 -103.9,29 -198.2,145 0,0 -105.3,209.4 -62.3,418" /><g
         transform="scale(1.01968)"
         id="g154"><path
           id="path156"
           style="fill:#fbc295;fill-opacity:1;fill-rule:nonzero;stroke:none"
           d="m 15467.5,12888.2 c 0,0 368.1,-175.4 443.9,-189.6 75.9,-14.2 293.9,-103.6 341.2,-272.2 47.4,-168.5 -52,-405.5 -52,-405.5 0,0 18.9,-349.1 -28.5,-565.5 -47.4,-216.5 -132.8,-334.9 -146.9,-363.4 -14.2,-28.4 -237,-412.3 -355.5,-516.5 -118.5,-104.3 -279.6,-159.4 -279.6,-159.4 0,0 -227.5,268.4 -218,292.1 9.5,23.6 66.4,255.9 189.6,436 123.1,180.1 208.5,284.3 208.5,284.3 0,0 -47.4,156.4 -9.5,379.2 0,0 -102.6,206.9 -124.8,528.4 -22.1,321.5 31.6,552.1 31.6,552.1" /></g><path
         id="path158"
         style="fill:#e8a87c;fill-opacity:1;fill-rule:nonzero;stroke:none"
         d="m 16079.6,12225.1 c 0,0 -140.1,-49.7 -212.6,-185.1 l -52.8,138.8 c 0,0 105.9,67.1 265.4,46.3" /><path
         id="path160"
         style="fill:#f0b386;fill-opacity:1;fill-rule:nonzero;stroke:none"
         d="m 15702.8,11419.6 173.8,233.8 c 0,0 90.1,59.3 151.4,151.5 61.3,92.1 85.4,128.8 85.4,128.8 0,0 -45.1,-164.3 -190.1,-328.6 -144.9,-164.3 -220.5,-185.5 -220.5,-185.5" /><g
         transform="scale(1.15695)"
         id="g162"><path
           id="path164"
           style="fill:#252323;fill-opacity:1;fill-rule:nonzero;stroke:none"
           d="m 13935.2,9574.38 59.1,87.28 2305.7,881.44 v -89.1 l -2262.7,-860.19 -102.1,-19.43" /></g><path
         id="path166"
         style="fill:#252323;fill-opacity:1;fill-rule:nonzero;stroke:none"
         d="m 15683.3,10932 c -4.2,-0.4 -16.5,-6.8 -31.6,-15.7 -6.9,45.3 -15.6,96.6 -20.2,99.3 -8.3,4.8 -160.8,-96.7 -160.8,-96.7 v -72 h 97.2 l 42.9,-85.1 c 0,0 111.2,96.7 113.6,108.8 2.4,12.1 -26.6,62.8 -41.1,61.4" /><path
         id="path168"
         style="fill:#fbc295;fill-opacity:1;fill-rule:nonzero;stroke:none"
         d="m 14745.8,10561.3 c 0,0 -130.5,-24 -156.2,-51.5 -25.8,-27.6 -41.9,-264.1 -25.8,-301.2 16.1,-37.1 116,-50 116,-50 l 154.6,225.5 -88.6,177.2" /><path
         id="path170"
         style="fill:#fbc295;fill-opacity:1;fill-rule:nonzero;stroke:none"
         d="m 15412.7,10870.6 -309.2,-249.5 c 0,0 -323.9,-47.7 -357.7,-59.8 -33.8,-12.1 -106.3,-405.9 -91.8,-434.9 14.5,-29 67.7,-26.6 67.7,-26.6 0,0 19.3,-38.7 57.9,-55.6 38.7,-16.9 65.3,-9.6 65.3,-9.6 0,0 36.2,-29 70.1,-21.8 33.8,7.3 125.1,154 132.4,154 7.2,0 88.5,-45.8 88.5,-45.8 0,0 139.1,123.8 192.2,198.7 53.2,74.9 333.5,289.9 333.5,289.9 l -108.4,183.1 -140.5,77.9" /><path
         id="path172"
         style="fill:#939697;fill-opacity:1;fill-rule:nonzero;stroke:none"
         d="m 15581.8,10441.1 c -57.9,-57 -357.6,-343.7 -389.8,-343.7 -32.2,0 -136.9,77.3 -136.9,77.3 l -247.7,382.4 c 0,0 -23.5,27.3 -12.7,64 10.7,36.8 378,304.2 455.3,310.7 77.3,6.4 219.9,-148.2 315.7,-235.2 95.9,-87 74.1,-198.5 16.1,-255.5 z m 35.5,368.3 c -106.3,106.3 -335.1,248 -373.7,241.6 -38.7,-6.4 -591.5,-302.8 -591.5,-302.8 0,0 -52.9,6.4 -117.3,0 -64.4,-6.5 -125.6,-67.7 -116,-127.1 9.7,-59.3 167.5,-214.4 167.5,-214.4 h 32.3 l 270.6,-324.6 c 0,0 157.9,-197.4 235.2,-187.7 77.3,9.7 106.3,117.2 106.3,117.2 0,0 489.7,430.5 505.8,491.7 16.1,61.2 -12.9,199.8 -119.2,306.1" /><path
         id="path174"
         style="fill:#fbc295;fill-opacity:1;fill-rule:nonzero;stroke:none"
         d="m 15317.1,10793.5 -213.6,-172.4 c 0,0 -323.9,-47.7 -357.7,-59.8 -33.8,-12.1 -106.3,-405.9 -91.8,-434.9 14.5,-29 67.7,-26.6 67.7,-26.6 0,0 19.3,-38.7 57.9,-55.6 38.7,-16.9 65.3,-9.6 65.3,-9.6 0,0 36.2,-29 70.1,-21.8 33.8,7.3 125.1,154 132.4,154 7.2,0 88.5,-45.8 88.5,-45.8 0,0 122.1,108.7 181.2,184 v 488.5" /><path
         id="path176"
         style="fill:#939697;fill-opacity:1;fill-rule:nonzero;stroke:none"
         d="m 15999.9,11112.2 c 0,0 97.4,61.2 137.7,64.4 40.3,3.3 95,0 95,0 0,0 29,-30.9 22.6,-47.7 -6.5,-16.7 -40.3,-99.7 -175.6,-145.2 -135.3,-45.5 -79.7,128.5 -79.7,128.5" /><path
         id="path178"
         style="fill:#e8a87c;fill-opacity:1;fill-rule:nonzero;stroke:none"
         d="m 14789.3,10302.8 c -9.1,-3.7 -64.6,-131.6 -93.6,-201 14,-2.5 26,-2 26,-2 0,0 5,-10 14.9,-22 l 52.7,157.3 c 0,0 12.1,72.5 0,67.7" /><path
         id="path180"
         style="fill:#e8a87c;fill-opacity:1;fill-rule:nonzero;stroke:none"
         d="m 14860.4,10024.6 42.5,84.8 c 0,0 9.6,94.3 0,99.1 -7.7,3.9 -68.5,-120 -95.5,-173.1 23,-4.7 37.5,-0.8 37.5,-0.8 0,0 6.2,-4.8 15.5,-10" /><path
         id="path182"
         style="fill:#939697;fill-opacity:1;fill-rule:nonzero;stroke:none"
         d="m 15961.7,11002.4 c -33.2,-15.6 -184.1,-69 -221.1,-71.1 -36.9,-2 -64.5,45.6 -37.8,84.4 26.8,38.9 137.2,58 144.6,57.8 110.9,-2.4 147.6,-55.5 147.6,-55.5 0,0 0,0 -33.3,-15.6 z m 38.2,109.8 c -58,29 -180.2,14.5 -259.3,0 -4,-0.8 -69.1,-41.1 -109.1,-96.6 -40,-55.6 -0.7,-132.9 54.6,-157.1 55.2,-24.2 248.5,91.8 304.1,94.2 55.6,2.4 89.4,31 89.4,31 0,0 -21.7,99.5 -79.7,128.5" /></g></g></svg>