<?xml version="1.0" encoding="UTF-8" standalone="no"?>
<svg
   xmlns:dc="http://purl.org/dc/elements/1.1/"
   xmlns:cc="http://creativecommons.org/ns#"
   xmlns:rdf="http://www.w3.org/1999/02/22-rdf-syntax-ns#"
   xmlns:svg="http://www.w3.org/2000/svg"
   xmlns="http://www.w3.org/2000/svg"
   viewBox="0 0 2666.6667 2666.6667"
   height="2666.6667"
   width="2666.6667"
   xml:space="preserve"
   id="svg2"
   version="1.1"><metadata
     id="metadata8"><rdf:RDF><cc:Work
         rdf:about=""><dc:format>image/svg+xml</dc:format><dc:type
           rdf:resource="http://purl.org/dc/dcmitype/StillImage" /></cc:Work></rdf:RDF></metadata><defs
     id="defs6" /><g
     transform="matrix(1.3333333,0,0,-1.3333333,0,2666.6667)"
     id="g10"><g
       transform="scale(0.1)"
       id="g12"><g
         transform="scale(1.22699)"
         id="g14"><path
           id="path16"
           style="fill:none;fill-opacity:1;fill-rule:nonzero;stroke:none"
           d="M 16300,0 H 0 V 16300 H 16300 V 0" /></g><path
         id="path18"
         style="fill:#252323;fill-opacity:1;fill-rule:nonzero;stroke:none"
         d="m 7116.44,5301.9 c 0,0 -184.56,-76 -200.84,-141.1 -16.28,-65.1 -21.71,-217.1 -65.13,-298.5 -43.42,-81.5 -38,-152 0,-244.3 37.99,-92.3 75.99,-119.4 70.56,-287.7 -5.43,-168.2 86.85,-341.9 309.39,-363.6 222.55,-21.8 461.38,0 488.52,184.5 27.14,184.6 -137.51,456 -173.7,597.1 -36.18,141.1 -21.7,278.6 -36.18,314.8 -14.48,36.2 -66.7,158.4 -278.97,274.8 -203.92,111.8 -40,45.1 -40,45.1 l -73.65,-81.1" /><path
         id="path20"
         style="fill:#252323;fill-opacity:1;fill-rule:nonzero;stroke:none"
         d="m 3991.6,5301.9 c 0,0 184.55,-76 200.83,-141.1 16.28,-65.1 21.71,-217.1 65.13,-298.5 43.43,-81.5 38,-152 0,-244.3 -37.99,-92.3 -75.99,-119.4 -70.56,-287.7 5.43,-168.2 -86.84,-341.9 -309.39,-363.6 -222.55,-21.8 -461.38,0 -488.52,184.5 -27.14,184.6 137.51,456 173.7,597.1 36.18,141.1 21.71,278.6 36.18,314.8 14.48,36.2 66.7,158.4 278.97,274.8 203.93,111.8 40,45.1 40,45.1 l 73.66,-81.1" /><path
         id="path22"
         style="fill:#c37140;fill-opacity:1;fill-rule:nonzero;stroke:none"
         d="m 4390.36,11528 -193.25,650.6 -296.31,225.5 c 0,0 -257.67,-25.8 -457.37,25.7 -199.7,51.6 -309.2,148.2 -450.93,161.1 0,0 -128.83,-167.5 -354.29,-283.5 -225.46,-115.9 -586.2,-508.9 -586.2,-508.9 l -225.46,231.9 c 0,0 128.84,257.7 206.14,399.4 77.3,141.8 161.04,405.9 270.55,496.1 109.51,90.1 418.71,264.1 489.57,322 70.86,58 212.58,45.1 315.65,25.8 103.07,-19.3 341.41,-45.1 605.52,-96.6 264.12,-51.6 347.85,-25.8 347.85,-25.8 0,0 206.14,45.1 412.28,19.3 206.13,-25.7 296.32,-122.4 296.32,-122.4 0,0 260.85,-698.6 285.03,-780.9 24.17,-82.2 -175.52,-674.9 -175.52,-674.9 l -489.58,-64.4" /><path
         id="path24"
         style="fill:#a45634;fill-opacity:1;fill-rule:nonzero;stroke:none"
         d="m 4100.49,12648.9 96.62,-470.3 -96.62,73.5 z" /><path
         id="path26"
         style="fill:#b36239;fill-opacity:1;fill-rule:nonzero;stroke:none"
         d="m 3887.91,12739 c -165.33,59.3 -335.14,74.6 -466.38,74.6 -139.77,0 -235.77,-17.4 -235.77,-17.4 97.24,74.6 197.15,101.1 290.05,101.1 227.12,0 412.1,-158.3 412.1,-158.3" /><path
         id="path28"
         style="fill:#a45634;fill-opacity:1;fill-rule:nonzero;stroke:none"
         d="m 3056.92,12897.3 c 0,0 -141.71,-238.8 -136.88,-248.4 4.83,-9.7 72.46,-58 72.46,-58 l -52.22,-58.7 c 0,0 -102.37,87.7 -97.54,116.7 4.83,28.9 214.18,248.4 214.18,248.4" /><path
         id="path30"
         style="fill:#b36239;fill-opacity:1;fill-rule:nonzero;stroke:none"
         d="m 2325.78,12409 c 0,0 135.28,370.7 497.63,409.1 0,0 -246.39,-93.3 -497.63,-409.1" /><path
         id="path32"
         style="fill:#b55f39;fill-opacity:1;fill-rule:nonzero;stroke:none"
         d="m 1886.14,12035.3 c 0,0 117.56,-24.2 133.66,-46.7 16.11,-22.6 38.65,-202.9 0,-215.8 -38.65,-12.9 -70.85,-32.2 -83.74,0 -12.88,32.2 -67.64,112.8 -77.3,122.4 -9.66,9.6 27.38,140.1 27.38,140.1" /><path
         id="path34"
         style="fill:#606163;fill-opacity:1;fill-rule:nonzero;stroke:none"
         d="m 1990.08,11862.2 29.72,-89.4 c 0,0 25.03,-58 -14.86,-135.3 -39.89,-77.3 -233.14,-22.7 -249.25,69.2 -16.11,91.8 -19.32,191.7 -16.11,214.2 3.23,22.6 250.5,-58.7 250.5,-58.7" /><path
         id="path36"
         style="fill:#252323;fill-opacity:1;fill-rule:nonzero;stroke:none"
         d="m 1405.3,12599.4 -985.202,2161 62.273,28.4 985.209,-2161 -62.28,-28.4" /><path
         id="path38"
         style="fill:#838585;fill-opacity:1;fill-rule:nonzero;stroke:none"
         d="m 1759.88,12268.8 c 0,0 -171.67,441 -197.44,445.9 -25.77,5 -167.48,-233.3 -167.48,-284.9 0,-51.5 215.79,-541.1 215.79,-541.1 l 66.7,36.2 c 0,0 -156.24,405.1 -158.17,430.9 -1.93,25.7 50.56,67.6 58.14,67.6 7.57,0 155.42,-277 155.42,-277 l 27.04,122.4" /><path
         id="path40"
         style="fill:#c37140;fill-opacity:1;fill-rule:nonzero;stroke:none"
         d="m 1797.9,12098.1 c 0,0 -183.93,-74.1 -209.69,-116 -25.77,-41.8 -16.11,-93.4 -16.11,-93.4 0,0 -45.09,-13.9 -51.53,-64.9 -6.44,-51 16.1,-89.7 16.1,-89.7 0,0 -15.2,-51.5 -17.26,-70.8 -2.06,-19.4 20.48,-64.5 20.48,-64.5 0,0 -3.22,-41.8 0,-70.8 3.23,-29 186.81,-219 286.66,-212.6 99.85,6.5 91.79,51.5 91.79,51.5 0,0 75.7,25.8 82.14,45.1 6.44,19.4 0,48.4 0,48.4 0,0 41.87,32.2 38.65,67.6 -3.22,35.4 -12.88,35.4 -16.11,48.3 -3.22,12.9 22.9,38.6 16.29,67.6 -6.62,29 -222.42,124.8 -240.14,188.5 -17.71,63.7 -1.27,265.7 -1.27,265.7" /><path
         id="path42"
         style="fill:#606163;fill-opacity:1;fill-rule:nonzero;stroke:none"
         d="m 1736.37,12305.8 c 0,0 -67.64,-80.5 -57.98,-127.2 9.66,-46.7 77.3,-133.7 77.3,-133.7 0,0 28.99,-193.2 43.48,-212.5 14.5,-19.4 86.97,0 86.97,0 v 202.9 c 0,0 72.47,106.3 0,198.1 -72.47,91.8 -149.77,72.4 -149.77,72.4" /><path
         id="path44"
         style="fill:#a45634;fill-opacity:1;fill-rule:nonzero;stroke:none"
         d="m 1572.1,11888.7 c 0,0 122.57,-194 166.37,-230.3 43.8,-36.2 284.55,-82.1 284.55,-82.1 0,0 -185.2,-26.6 -303.56,48.3 -118.37,74.9 -172.13,249.5 -172.13,249.5 l 24.77,14.6" /><path
         id="path46"
         style="fill:#a45634;fill-opacity:1;fill-rule:nonzero;stroke:none"
         d="m 1536.67,11734.1 c 0,0 133.84,-172.3 201.8,-206.1 67.95,-33.8 262.01,-67.6 262.01,-67.6 0,0 -189.23,-12.1 -278.61,36.2 -89.37,48.3 -202.59,210.1 -202.59,210.1 l 17.39,27.4" /><path
         id="path48"
         style="fill:#a45634;fill-opacity:1;fill-rule:nonzero;stroke:none"
         d="m 1547.33,11571.7 c 0,0 144.26,-113.8 212.55,-152.4 68.28,-38.7 158.46,-52.4 158.46,-52.4 0,0 -88.4,-15.3 -179.87,28.2 -91.48,43.5 -191.14,176.6 -191.14,176.6" /><path
         id="path50"
         style="fill:#606163;fill-opacity:1;fill-rule:nonzero;stroke:none"
         d="m 1430.38,12687.5 c 0,0 -38.65,-38.3 -48.31,-73.9 -9.66,-35.6 33.93,-120.1 33.93,-120.1 l 76.21,137.7 c 0,0 -19.95,46.6 -61.83,56.3" /><path
         id="path52"
         style="fill:#c37140;fill-opacity:1;fill-rule:nonzero;stroke:none"
         d="m 6705.64,11528 193.26,650.6 296.31,225.5 c 0,0 257.67,-25.8 457.37,25.7 199.69,51.6 309.2,148.2 450.92,161.1 0,0 128.84,-167.5 354.3,-283.5 225.46,-115.9 618.4,-534.6 618.4,-534.6 l 193.26,257.6 c 0,0 -128.84,257.7 -206.14,399.4 -77.3,141.8 -161.04,405.9 -270.55,496.1 -109.51,90.1 -418.71,264.1 -489.58,322 -70.85,58 -212.57,45.1 -315.64,25.8 -103.07,-19.3 -341.41,-45.1 -605.52,-96.6 -264.12,-51.6 -347.86,-25.8 -347.86,-25.8 0,0 -206.13,45.1 -412.27,19.3 -206.14,-25.7 -324.77,-122.4 -324.77,-122.4 0,0 -232.4,-698.6 -256.58,-780.9 -24.17,-82.2 175.52,-674.9 175.52,-674.9 l 489.57,-64.4" /><path
         id="path54"
         style="fill:#a45634;fill-opacity:1;fill-rule:nonzero;stroke:none"
         d="m 6995.52,12648.9 -96.62,-470.3 96.62,73.5 z" /><path
         id="path56"
         style="fill:#b36239;fill-opacity:1;fill-rule:nonzero;stroke:none"
         d="m 7208.1,12739 c 0,0 184.98,158.3 412.1,158.3 92.9,0 192.81,-26.5 290.05,-101.1 0,0 -96,17.4 -235.77,17.4 -131.24,0 -301.05,-15.3 -466.38,-74.6" /><path
         id="path58"
         style="fill:#a45634;fill-opacity:1;fill-rule:nonzero;stroke:none"
         d="m 8039.09,12897.3 c 0,0 141.71,-238.8 136.88,-248.4 -4.83,-9.7 -72.47,-58 -72.47,-58 l 52.23,-58.7 c 0,0 102.38,87.7 97.54,116.7 -4.83,28.9 -214.18,248.4 -214.18,248.4" /><path
         id="path60"
         style="fill:#b36239;fill-opacity:1;fill-rule:nonzero;stroke:none"
         d="m 8770.23,12409 c -251.24,315.8 -497.63,409.1 -497.63,409.1 362.35,-38.4 497.63,-409.1 497.63,-409.1" /><path
         id="path62"
         style="fill:#b55f39;fill-opacity:1;fill-rule:nonzero;stroke:none"
         d="m 9209.87,12035.3 c 0,0 -117.56,-24.2 -133.66,-46.7 -16.11,-22.6 -38.66,-202.9 0,-215.8 38.65,-12.9 70.86,-32.2 83.74,0 12.88,32.2 67.64,112.8 77.3,122.4 9.66,9.6 -27.38,140.1 -27.38,140.1" /><path
         id="path64"
         style="fill:#606163;fill-opacity:1;fill-rule:nonzero;stroke:none"
         d="m 9105.93,11862.2 -29.72,-89.4 c 0,0 -25.03,-58 14.86,-135.3 39.89,-77.3 233.14,-22.7 249.25,69.2 16.1,91.8 19.32,191.7 16.1,214.2 -3.22,22.6 -250.49,-58.7 -250.49,-58.7" /><path
         id="path66"
         style="fill:#252323;fill-opacity:1;fill-rule:nonzero;stroke:none"
         d="m 9690.71,12599.4 985.19,2161 -62.3,28.4 -985.17,-2161 62.28,-28.4" /><path
         id="path68"
         style="fill:#838585;fill-opacity:1;fill-rule:nonzero;stroke:none"
         d="m 9336.13,12268.8 c 0,0 171.67,441 197.44,445.9 25.77,5 167.48,-233.3 167.48,-284.9 0,-51.5 -215.79,-541.1 -215.79,-541.1 l -66.7,36.2 c 0,0 156.24,405.1 158.17,430.9 1.93,25.7 -50.57,67.6 -58.14,67.6 -7.56,0 -155.42,-277 -155.42,-277 l -27.04,122.4" /><path
         id="path70"
         style="fill:#c37140;fill-opacity:1;fill-rule:nonzero;stroke:none"
         d="m 9298.12,12098.1 c 0,0 183.92,-74.1 209.68,-116 25.77,-41.8 16.11,-93.4 16.11,-93.4 0,0 45.09,-13.9 51.53,-64.9 6.44,-51 -16.1,-89.7 -16.1,-89.7 0,0 15.2,-51.5 17.26,-70.8 2.06,-19.4 -20.48,-64.5 -20.48,-64.5 0,0 3.22,-41.8 0,-70.8 -3.22,-29 -186.81,-219 -286.66,-212.6 -99.85,6.5 -91.79,51.5 -91.79,51.5 0,0 -75.7,25.8 -82.14,45.1 -6.44,19.4 0,48.4 0,48.4 0,0 -41.87,32.2 -38.65,67.6 3.22,35.4 12.89,35.4 16.1,48.3 3.23,12.9 -22.89,38.6 -16.28,67.6 6.63,29 222.42,124.8 240.14,188.5 17.71,63.7 1.28,265.7 1.28,265.7" /><path
         id="path72"
         style="fill:#606163;fill-opacity:1;fill-rule:nonzero;stroke:none"
         d="m 9359.64,12305.8 c 0,0 67.64,-80.5 57.98,-127.2 -9.67,-46.7 -77.3,-133.7 -77.3,-133.7 0,0 -28.99,-193.2 -43.48,-212.5 -14.5,-19.4 -86.97,0 -86.97,0 v 202.9 c 0,0 -72.47,106.3 0,198.1 72.47,91.8 149.77,72.4 149.77,72.4" /><path
         id="path74"
         style="fill:#a45634;fill-opacity:1;fill-rule:nonzero;stroke:none"
         d="m 9523.91,11888.7 c 0,0 -122.57,-194 -166.37,-230.3 -43.79,-36.2 -284.56,-82.1 -284.56,-82.1 0,0 185.2,-26.6 303.57,48.3 118.37,74.9 172.13,249.5 172.13,249.5 l -24.77,14.6" /><path
         id="path76"
         style="fill:#a45634;fill-opacity:1;fill-rule:nonzero;stroke:none"
         d="m 9559.34,11734.1 c 0,0 -133.84,-172.3 -201.8,-206.1 -67.95,-33.8 -262.01,-67.6 -262.01,-67.6 0,0 189.23,-12.1 278.61,36.2 89.38,48.3 202.59,210.1 202.59,210.1 l -17.39,27.4" /><path
         id="path78"
         style="fill:#a45634;fill-opacity:1;fill-rule:nonzero;stroke:none"
         d="m 9548.68,11571.7 c 0,0 -144.27,-113.8 -212.55,-152.4 -68.28,-38.7 -158.46,-52.4 -158.46,-52.4 0,0 88.39,-15.3 179.87,28.2 91.48,43.5 191.14,176.6 191.14,176.6" /><path
         id="path80"
         style="fill:#606163;fill-opacity:1;fill-rule:nonzero;stroke:none"
         d="m 9665.63,12687.5 c 0,0 38.65,-38.3 48.31,-73.9 9.66,-35.6 -33.93,-120.1 -33.93,-120.1 l -76.21,137.7 c 0,0 19.95,46.6 61.83,56.3" /><path
         id="path82"
         style="fill:#c37140;fill-opacity:1;fill-rule:nonzero;stroke:none"
         d="m 4145.58,9163.9 c -32.21,-70.9 -293.1,-399.4 -293.1,-399.4 0,0 -3.22,-335 28.99,-637.8 32.21,-302.7 32.21,-302.7 32.21,-302.7 0,0 -64.42,-122.4 -61.2,-264.1 3.22,-141.8 0,-270.6 0,-270.6 0,0 -86.96,-322.1 -86.96,-792.3 0,-470.3 64.42,-1185.3 64.42,-1185.3 0,0 109.5,-6.4 125.61,-58 16.11,-51.5 48.31,-103 48.31,-103 h 180.37 c 0,0 12.88,470.2 122.4,721.4 109.5,251.3 257.66,566.9 276.99,811.7 19.32,244.8 -57.98,560.4 0,740.8 57.98,180.4 389.72,818.1 389.72,818.1 0,0 -93.4,579.8 -273.77,676.4 -180.37,96.6 -553.99,244.8 -553.99,244.8" /><path
         id="path84"
         style="fill:#a45634;fill-opacity:1;fill-rule:nonzero;stroke:none"
         d="m 4216.44,6497 c 1.3,-32.2 31.86,450.9 347.68,660.3 l -2.28,106.2 c 0,0 -371.17,-128.8 -345.4,-766.5" /><path
         id="path86"
         style="fill:#a45634;fill-opacity:1;fill-rule:nonzero;stroke:none"
         d="m 3852.48,7289.3 c 0,0 80.52,-109.5 183.59,-132 0,0 -95.16,-19.4 -198.96,66 l 15.37,66" /><path
         id="path88"
         style="fill:#f8fcfe;fill-opacity:1;fill-rule:nonzero;stroke:none"
         d="m 3816.93,5467.4 c 7.64,-96.1 13.01,-155.7 13.01,-155.7 0,0 109.51,-6.4 125.61,-58 16.11,-51.5 48.31,-103 48.31,-103 h 180.37 c 0,0 3.79,137.1 24.48,302.8 -145.39,-0.1 -286.08,6.8 -391.78,13.9" /><path
         id="path90"
         style="fill:#c37140;fill-opacity:1;fill-rule:nonzero;stroke:none"
         d="m 6963.85,9163.9 c 32.2,-70.9 286.65,-347.9 286.65,-347.9 0,0 9.67,-386.5 -22.54,-689.3 -32.21,-302.7 -32.21,-302.7 -32.21,-302.7 0,0 64.42,-122.4 61.19,-264.1 -3.21,-141.8 0,-270.6 0,-270.6 0,0 86.97,-322.1 86.97,-792.3 0,-470.3 -64.42,-1185.3 -64.42,-1185.3 0,0 -109.51,-6.4 -125.61,-58 -16.11,-51.5 -48.32,-103 -48.32,-103 H 6925.2 c 0,0 -12.89,470.2 -122.4,721.4 -109.51,251.3 -257.67,566.9 -276.99,811.7 -19.33,244.8 57.97,560.4 0,740.8 -57.98,180.4 -389.73,818.1 -389.73,818.1 0,0 93.41,579.8 273.77,676.4 180.37,96.6 554,244.8 554,244.8" /><path
         id="path92"
         style="fill:#a45634;fill-opacity:1;fill-rule:nonzero;stroke:none"
         d="m 6892.98,6497 c -1.3,-32.2 -31.85,450.9 -347.67,660.3 l 2.28,106.2 c 0,0 371.16,-128.8 345.39,-766.5" /><path
         id="path94"
         style="fill:#a45634;fill-opacity:1;fill-rule:nonzero;stroke:none"
         d="m 7256.94,7289.3 c 0,0 -80.52,-109.5 -183.59,-132 0,0 95.17,-19.4 198.96,66 l -15.37,66" /><path
         id="path96"
         style="fill:#f8fcfe;fill-opacity:1;fill-rule:nonzero;stroke:none"
         d="m 7292.5,5467.4 c -7.64,-96.1 -13.01,-155.7 -13.01,-155.7 0,0 -109.51,-6.4 -125.61,-58 -16.11,-51.5 -48.32,-103 -48.32,-103 H 6925.2 c 0,0 -3.79,137.1 -24.49,302.8 145.4,-0.1 286.09,6.8 391.79,13.9" /><path
         id="path98"
         style="fill:#252323;fill-opacity:1;fill-rule:nonzero;stroke:none"
         d="m 4596.5,10136.6 c 0,0 -289.87,-241.6 -492.79,-599.1 -202.91,-357.5 -251.23,-773 -251.23,-773 0,0 483.13,-29 1120.86,-521.8 0,0 344.64,908.3 447.7,946.9 103.08,38.7 180.38,32.2 257.68,0 77.3,-32.2 457.36,-946.9 457.36,-946.9 0,0 289.88,257.7 650.62,399.4 360.74,141.7 463.8,173.9 463.8,173.9 0,0 -199.69,805.2 -747.24,1346.3 -547.55,541.1 -1906.76,-25.7 -1906.76,-25.7" /><path
         id="path100"
         style="fill:#c37140;fill-opacity:1;fill-rule:nonzero;stroke:none"
         d="m 5116.53,13311 v -324 h -144.46 c 0,0 -45.69,-468.6 14.02,-613.5 59.72,-145 344.77,-386.5 586.34,-381.7 241.57,4.8 506.57,333.4 531.08,401 24.52,67.6 12.53,616.8 0,616.8 -12.52,0 -125.25,-3.2 -125.25,-3.2 l 3.22,367.2 -864.95,-62.6" /><path
         id="path102"
         style="fill:#e9eef1;fill-opacity:1;fill-rule:nonzero;stroke:none"
         d="m 6735.16,11553.8 c 0,0 -380.06,605.5 -431.6,869.6 -51.53,264.1 -6.43,624.8 -6.43,624.8 0,0 -68.36,-35.4 -193.62,-38.6 12.53,0 24.52,-549.2 0,-616.8 -24.51,-67.6 -289.51,-396.2 -531.08,-401 -241.57,-4.8 -526.62,236.7 -586.34,381.7 -59.71,144.9 -14.02,613.5 -14.02,613.5 0,0 -98.57,6.5 -130.78,24.2 -32.21,17.7 -70.86,37 -70.86,37 0,0 57.98,-302.7 0,-663.5 -57.97,-360.7 -380.07,-856.7 -380.07,-856.7 0,0 135.28,-289.9 180.38,-438.1 45.09,-148.1 25.76,-953.3 25.76,-953.3 0,0 292.83,-277 520.04,-380.1 227.2,-103.1 626.59,-103.1 864.94,0 238.35,103.1 521.78,405.8 521.78,405.8 0,0 -12.88,708.6 0,843.9 12.88,135.3 231.9,547.6 231.9,547.6" /><path
         id="path104"
         style="fill:#a45634;fill-opacity:1;fill-rule:nonzero;stroke:none"
         d="m 5263.22,13161 -146.69,150 c 0,0 40.4,-327.2 146.69,-423.8 64.84,-58.9 235.13,-206.1 376.84,-157.8 141.73,48.3 151.38,66.8 151.38,66.8 v -147.3 c 0,0 103.07,352.6 109.52,362.3 6.44,9.7 55.5,152.7 55.5,152.7 l 25.02,209.7 -718.26,-212.6" /><path
         id="path106"
         style="fill:#2f1d16;fill-opacity:1;fill-rule:nonzero;stroke:none"
         d="m 5033.64,13671.3 c 12.24,22.9 -42.82,83.9 -56.25,147.4 -13.43,63.5 3.07,317.1 0.88,346.5 -2.19,29.5 49.08,120 58.74,147.1 9.65,27.2 71.08,135.7 109.66,165.1 38.58,29.3 151.87,47.2 199.47,62.9 47.61,15.7 138.3,54 222.08,44.7 83.79,-9.2 74.68,-29.6 133.55,-34.3 58.87,-4.7 149.35,-54.7 180.98,-86.5 31.63,-31.8 142.42,-106.8 178.54,-154.5 36.12,-47.6 50.93,-269.6 43.04,-353.4 -7.9,-83.8 -39.93,-208.3 -39.93,-208.3 l -18.26,-55.8 c 0,0 6.5,-114 -0.3,-116.3 -6.8,-2.2 106.32,-54.6 -160.96,-60.7 -267.28,-6.2 -575.3,1.4 -575.3,1.4 0,0 -201.61,-8.5 -246.78,39.2 -45.18,47.6 -29.16,115.5 -29.16,115.5" /><path
         id="path108"
         style="fill:#c37140;fill-opacity:1;fill-rule:nonzero;stroke:none"
         d="m 5045.88,13694.2 c 0,0 -16.7,4.3 -46.16,-2.4 -29.46,-6.7 -4.95,-165.3 15.33,-206.1 20.29,-40.9 49.56,-106.6 54.04,-129.3 4.47,-22.6 47.44,-45.4 47.44,-45.4 0,0 11.02,-122.3 29.02,-170 18,-47.6 140,-167.9 196.42,-249.6 56.42,-81.7 201.29,-116 303.3,-82.3 102.01,33.7 163.45,146.8 183.9,171.7 20.44,24.8 111.33,140.1 127.29,183.1 15.97,43 25.34,165.3 25.34,165.3 0,0 38.53,9 56.75,51.9 18.23,43 34.26,110.9 45.64,131.3 11.37,20.4 29.81,144.9 11.75,167.6 -18.06,22.7 -49.8,12.2 -49.8,12.2 0,0 -9.15,-34.7 -13.7,-41.5 -4.54,-6.8 -31.75,-15.8 -31.75,-15.8 l -4.24,111 c 0,0 -24.86,25 -36.11,54.5 -11.25,29.4 -13.29,117.8 -13.23,140.4 0.05,22.7 2.41,56.6 -13.31,111 -15.72,54.4 -81.29,97.6 -115.25,104.5 -33.96,6.9 -203.81,14.1 -230.99,16.5 -27.17,2.3 -40.79,-9 -113.29,-17.9 -72.5,-8.9 -296.77,-24.1 -321.72,-37.7 -24.95,-13.5 -47.8,-92.7 -52.39,-119.9 -4.61,-27.1 13.19,-156.3 10.86,-181.2 -2.33,-24.9 -20.52,-52 -18.3,-70.2 2.22,-18.1 1.93,-131.3 1.93,-131.3 l -20.4,-6.8 -28.37,86.4" /><path
         id="path110"
         style="fill:#c7cdd0;fill-opacity:1;fill-rule:nonzero;stroke:none"
         d="m 4519.2,11363.7 c 0,0 115.95,-209.3 328.53,-267.3 212.58,-58 579.76,45.1 579.76,45.1 0,0 -418.72,-12.9 -586.2,51.5 -167.49,64.4 -322.09,170.7 -322.09,170.7" /><path
         id="path112"
         style="fill:#c7cdd0;fill-opacity:1;fill-rule:nonzero;stroke:none"
         d="m 6557.66,11418.5 c 0,0 -115.96,-264.1 -328.53,-322.1 -212.58,-58 -579.76,45.1 -579.76,45.1 0,0 418.72,-12.9 586.2,51.5 167.49,64.4 322.09,225.5 322.09,225.5" /><path
         id="path114"
         style="fill:#b36239;fill-opacity:1;fill-rule:nonzero;stroke:none"
         d="m 5453.26,12375.1 c 0,0 -215.81,99.8 -151.38,399.4 0,0 35.42,-267.4 151.38,-399.4" /><path
         id="path116"
         style="fill:#b36239;fill-opacity:1;fill-rule:nonzero;stroke:none"
         d="m 5649.37,12375.1 c 83.51,95.1 125.25,260.4 142.07,345.4 v -71.6 c 0,0 7.69,26.2 18.98,64.6 25.15,-252.3 -161.05,-338.4 -161.05,-338.4" /><path
         id="path118"
         style="fill:#a45634;fill-opacity:1;fill-rule:nonzero;stroke:none"
         d="m 5791.44,12648.9 v 71.6 c 6.54,33 9.31,54 9.31,54 4.58,-21.3 7.75,-41.6 9.67,-61 -11.29,-38.4 -18.98,-64.6 -18.98,-64.6" /><path
         id="path120"
         style="fill:#c7cdd0;fill-opacity:1;fill-rule:nonzero;stroke:none"
         d="m 5536.55,12178.6 c -3.48,16 -58.42,-508.9 0,-814.9 0,0 63.98,521.8 0,814.9" /><path
         id="path122"
         style="fill:#a45634;fill-opacity:1;fill-rule:nonzero;stroke:none"
         d="m 5560.46,11991.9 c -4.23,67.1 -11.75,131 -23.91,186.7 -1.36,6.2 -10.57,-70.3 -17.8,-183.9 14,-1.7 27.91,-2.6 41.71,-2.8" /><path
         id="path124"
         style="fill:#b6643b;fill-opacity:1;fill-rule:nonzero;stroke:none"
         d="m 4795.54,12664.2 c -44.71,77 -68.59,153.9 -68.59,153.9 0,0 27.55,-36.6 69.13,-82.5 0.2,-22.9 0.04,-46.7 -0.54,-71.4" /><path
         id="path126"
         style="fill:#bc6a3d;fill-opacity:1;fill-rule:nonzero;stroke:none"
         d="m 5282.55,12409 c 0,0 -90.18,56.3 -99.85,56.3 -0.85,0 -2.72,-0.1 -5.52,-0.1 -24.76,0 -121.58,2.1 -216.84,43.2 -2.23,27.1 -3.58,55.9 -4.3,85.4 23.27,-14.6 46.54,-25.9 68.84,-31.9 132.05,-35.5 193.25,-29 209.36,-41.9 16.1,-12.9 48.31,-111 48.31,-111" /><path
         id="path128"
         style="fill:#b6643b;fill-opacity:1;fill-rule:nonzero;stroke:none"
         d="m 6283.91,12578.2 c -2.17,30.1 -3.52,60.3 -4.27,90.1 75.83,71 135.05,149.8 135.05,149.8 0,0 -46.31,-149.2 -130.78,-239.9" /><path
         id="path130"
         style="fill:#bc6a3d;fill-opacity:1;fill-rule:nonzero;stroke:none"
         d="m 5859.09,12409 c 0,0 32.21,98.1 48.31,111 16.1,12.9 77.3,6.4 209.36,41.9 h 0.05 c -0.57,-27.8 -1.43,-53.6 -2.59,-76.7 -70.01,-18.8 -130.78,-20 -149.72,-20 -2.82,0 -4.71,0.1 -5.57,0.1 -9.66,0 -99.84,-56.3 -99.84,-56.3" /><g
         transform="scale(1.0632)"
         id="g132"><path
           id="path134"
           style="fill:#252323;fill-opacity:1;fill-rule:nonzero;stroke:none"
           d="m 15707.8,4986.73 c 0,0 -173.6,-71.49 -188.9,-132.71 -15.4,-61.24 -20.4,-204.2 -61.3,-280.76 -40.8,-76.66 -35.7,-142.96 0,-229.78 35.8,-86.81 71.5,-112.3 66.4,-270.6 -5.1,-158.2 81.7,-321.57 291,-341.98 209.3,-20.5 433.9,0 459.5,173.53 25.5,173.63 -129.4,428.89 -163.4,561.61 -34,132.71 -20.5,262.03 -34,296.08 -13.6,34.05 -62.7,148.99 -262.4,258.47 -191.8,105.15 -37.6,42.42 -37.6,42.42 l -69.3,-76.28" /></g><path
         id="path136"
         style="fill:#252323;fill-opacity:1;fill-rule:nonzero;stroke:none"
         d="m 13575.7,5301.9 c 0,0 184.6,-76 200.8,-141.1 16.3,-65.1 21.8,-217.1 65.2,-298.5 43.4,-81.5 38,-152 0,-244.3 -38,-92.3 -76,-119.4 -70.6,-287.7 5.4,-168.2 -86.8,-341.9 -309.4,-363.6 -222.5,-21.8 -461.3,0 -488.5,184.5 -27.1,184.6 137.5,456 173.7,597.1 36.2,141.1 21.7,278.6 36.2,314.8 14.5,36.2 66.7,158.4 279,274.8 203.9,111.8 40,45.1 40,45.1 l 73.6,-81.1" /><path
         id="path138"
         style="fill:#c37140;fill-opacity:1;fill-rule:nonzero;stroke:none"
         d="m 13732.2,9163.9 c -32.2,-70.9 -293.1,-399.4 -293.1,-399.4 0,0 -3.2,-335 29,-637.8 32.2,-302.7 32.2,-302.7 32.2,-302.7 0,0 -64.4,-122.4 -61.2,-264.1 3.2,-141.8 0,-270.6 0,-270.6 0,0 -86.9,-322.1 -86.9,-792.3 0,-470.3 64.4,-1185.3 64.4,-1185.3 0,0 109.5,-6.4 125.6,-58 16.1,-51.5 48.3,-103 48.3,-103 h 180.4 c 0,0 12.9,470.2 122.4,721.4 109.5,251.3 257.6,566.9 277,811.7 19.3,244.8 -58,560.4 0,740.8 57.9,180.4 389.7,818.1 389.7,818.1 0,0 -93.4,579.8 -273.8,676.4 -180.4,96.6 -554,244.8 -554,244.8" /><path
         id="path140"
         style="fill:#a45634;fill-opacity:1;fill-rule:nonzero;stroke:none"
         d="m 13803.1,6497 c 1.3,-32.2 31.8,450.9 347.7,660.3 l -2.3,106.2 c 0,0 -371.2,-128.8 -345.4,-766.5" /><path
         id="path142"
         style="fill:#a45634;fill-opacity:1;fill-rule:nonzero;stroke:none"
         d="m 13439.1,7289.3 c 0,0 80.5,-109.5 183.6,-132 0,0 -95.2,-19.4 -198.9,66 l 15.3,66" /><path
         id="path144"
         style="fill:#f8fcfe;fill-opacity:1;fill-rule:nonzero;stroke:none"
         d="m 13403.6,5467.4 c 7.6,-96.1 13,-155.7 13,-155.7 0,0 109.5,-6.4 125.6,-58 16.1,-51.5 48.3,-103 48.3,-103 h 180.4 c 0,0 3.8,137.1 24.5,302.8 -145.4,-0.1 -286.1,6.8 -391.8,13.9" /><g
         transform="scale(1.03868)"
         id="g146"><path
           id="path148"
           style="fill:#c37140;fill-opacity:1;fill-rule:nonzero;stroke:none"
           d="m 15934.2,8822.63 c 31,-68.26 275.9,-334.94 275.9,-334.94 0,0 9.3,-372.11 -21.7,-663.63 -31,-291.43 -31,-291.43 -31,-291.43 0,0 62,-117.84 58.9,-254.26 -3,-136.52 0,-260.53 0,-260.53 0,0 83.7,-310.1 83.7,-762.79 0,-452.79 -62,-1141.16 -62,-1141.16 0,0 -105.4,-6.16 -120.9,-55.84 -15.5,-49.58 -46.5,-99.17 -46.5,-99.17 h -173.7 c 0,0 -12.3,452.69 -117.9,694.54 -105.4,241.94 -248,545.79 -266.5,781.47 -18.7,235.69 55.7,539.53 0,713.22 -55.9,173.68 -375.3,787.63 -375.3,787.63 0,0 89.9,558.21 263.6,651.21 173.7,93 533.4,235.68 533.4,235.68" /></g><g
         transform="scale(1.0126)"
         id="g150"><path
           id="path152"
           style="fill:#a45634;fill-opacity:1;fill-rule:nonzero;stroke:none"
           d="m 16274.5,6416.15 c -1.3,-31.8 -31.4,445.29 -343.4,652.08 l 2.3,104.88 c 0,0 366.6,-127.2 341.1,-756.96" /></g><g
         transform="scale(1.03429)"
         id="g154"><path
           id="path156"
           style="fill:#a45634;fill-opacity:1;fill-rule:nonzero;stroke:none"
           d="m 16285.1,7047.61 c 0,0 -77.8,-105.87 -177.5,-127.63 0,0 92,-18.75 192.4,63.82 l -14.9,63.81" /></g><g
         transform="scale(1.03553)"
         id="g158"><path
           id="path160"
           style="fill:#f8fcfe;fill-opacity:1;fill-rule:nonzero;stroke:none"
           d="m 16300,5279.82 c -7.3,-92.8 -12.6,-150.36 -12.6,-150.36 0,0 -105.7,-6.18 -121.2,-56.01 -15.6,-49.73 -46.7,-99.47 -46.7,-99.47 h -174.2 c 0,0 -3.7,132.4 -23.6,292.42 140.4,-0.1 276.2,6.56 378.3,13.42" /></g><g
         transform="scale(1.03295)"
         id="g162"><path
           id="path164"
           style="fill:#252323;fill-opacity:1;fill-rule:nonzero;stroke:none"
           d="m 13730.7,9813.22 c 0,0 -280.6,-233.87 -477,-579.96 -196.5,-346.1 -243.3,-748.35 -243.3,-748.35 0,0 467.8,-28.07 1085.1,-505.15 0,0 333.6,879.32 433.5,916.69 99.7,37.47 174.6,31.18 249.4,0 74.9,-31.17 442.7,-916.69 442.7,-916.69 0,0 280.7,249.48 629.9,386.66 349.3,137.18 449,168.35 449,168.35 0,0 -193.3,779.51 -723.4,1303.39 -530,523.84 -1845.9,-24.94 -1845.9,-24.94" /></g><path
         id="path166"
         style="fill:#c37140;fill-opacity:1;fill-rule:nonzero;stroke:none"
         d="m 14853.4,12832.4 -294.7,-91.8 c 0,0 83.7,-574.9 181.9,-661.8 98.3,-87 317,-130.5 449.2,-135.3 132.2,-4.9 399.1,86.9 451.7,135.3 52.5,48.3 157.3,637.7 157.3,637.7 l -375.3,207.7 -570.1,-91.8" /><path
         id="path168"
         style="fill:#e9eef1;fill-opacity:1;fill-rule:nonzero;stroke:none"
         d="m 15921.1,11943.3 c -63.3,322.3 58,679.8 58,679.8 l -180.3,93.4 c 0,0 -104.8,-589.4 -157.3,-637.7 -52.6,-48.4 -319.5,-140.1 -451.7,-135.3 -132.2,4.8 -350.9,48.3 -449.2,135.3 -98.2,86.9 -181.9,661.8 -181.9,661.8 l -183.6,-106.2 c 0,0 96.6,-343 91.8,-739.2 -4.9,-396.2 -333.4,-773 -333.4,-773 0,0 112.7,-225.5 144.9,-412.3 32.3,-186.8 12.9,-644.2 12.9,-644.2 0,0 328.9,-431.6 889.1,-412.3 560.3,19.4 863.1,418.8 863.1,418.8 0,0 0,521.7 32.2,715 32.2,193.2 135.3,335 135.3,335 0,0 -226.6,498.8 -289.9,821.1" /><path
         id="path170"
         style="fill:#a45634;fill-opacity:1;fill-rule:nonzero;stroke:none"
         d="m 14806.4,12742.2 c 0,0 -12.1,-103 -144.4,-199.6 0,0 72.9,1.7 144.4,53.1 l 245.1,-401 -96.7,273.8 c 0,0 98.6,-138.5 225.6,-143.3 127.1,-4.9 209.2,73.5 209.2,73.5 v -189.5 c 0,0 62.9,280.2 130.5,367.2 67.6,86.9 87,226.5 87,226.5 l -800.7,-60.7" /><path
         id="path172"
         style="fill:#c7cdd0;fill-opacity:1;fill-rule:nonzero;stroke:none"
         d="m 14278.4,11238.1 c 0,0 246.4,-198.1 343.1,-222.2 96.6,-24.2 356.5,9.6 405.3,53.1 48.8,43.5 48.8,43.5 48.8,43.5 0,0 -257.1,-38.7 -413.6,-19.3 -156.5,19.3 -383.6,144.9 -383.6,144.9" /><path
         id="path174"
         style="fill:#c7cdd0;fill-opacity:1;fill-rule:nonzero;stroke:none"
         d="m 16091.7,11238.1 c 0,0 -246.4,-198.1 -343,-222.2 -96.6,-24.2 -356.6,9.6 -405.4,53.1 -48.8,43.5 -48.8,43.5 -48.8,43.5 0,0 257.2,-38.7 413.7,-19.3 156.4,19.3 383.5,144.9 383.5,144.9" /><path
         id="path176"
         style="fill:#c7cdd0;fill-opacity:1;fill-rule:nonzero;stroke:none"
         d="m 15172.2,12015.9 c 0,0 -60.8,-386.5 8.2,-777.8 0,0 68.8,381 -8.2,777.8" /><path
         id="path178"
         style="fill:#252323;fill-opacity:1;fill-rule:nonzero;stroke:none"
         d="m 13930.2,9244.6 -3161,3657.3 51.8,44.7 3161,-3657.3 -51.8,-44.7" /><path
         id="path180"
         style="fill:#606163;fill-opacity:1;fill-rule:nonzero;stroke:none"
         d="m 14029.6,9319.5 c -9.6,-9.1 -72.4,-3 -84.5,0 -12.1,3 -29,-55.4 -21.8,-75.8 7.3,-20.3 79.5,-57.2 79.5,-57.2 l 26.8,133" /><path
         id="path182"
         style="fill:#c37140;fill-opacity:1;fill-rule:nonzero;stroke:none"
         d="m 13891.9,10415.6 c 164.3,230.7 241.6,706.6 241.6,706.6 0,0 328.5,376.8 333.4,773 4.8,396.2 -91.8,739.2 -91.8,739.2 0,0 -357.5,0 -647.4,-251.6 -289.9,-251.5 -288.6,-811.3 -288.6,-811.3 0,0 -112.4,-207.8 -151.1,-374.8 -38.6,-167 -48.3,-581.8 -48.3,-581.8 0,0 -29,-62.8 -29,-135.3 0,-72.5 43.5,-194.9 228.4,-433.2 184.9,-238.4 749.2,-811.7 749.2,-811.7 l 238.3,186.8 c 0,0 -70.8,103.1 -244.8,463.8 -173.9,360.8 -289.9,530.3 -289.9,530.3" /><path
         id="path184"
         style="fill:#a45634;fill-opacity:1;fill-rule:nonzero;stroke:none"
         d="m 13439.1,11571.5 c 0,0 124.3,-222.3 182.3,-265.8 58,-43.4 154.6,-24.1 154.6,-24.1 0,0 -116,-56.9 -212.6,-4.3 -96.6,52.6 -124.3,294.2 -124.3,294.2" /><path
         id="path186"
         style="fill:#a45634;fill-opacity:1;fill-rule:nonzero;stroke:none"
         d="m 14186.7,11668.1 c 0,0 33.8,-289.9 -53.2,-545.9 l 144.9,204.3 c 0,0 -33.8,201.5 -91.7,341.6" /><path
         id="path188"
         style="fill:#b36239;fill-opacity:1;fill-rule:nonzero;stroke:none"
         d="m 13679.4,10465.1 c -135.3,367.2 0,542.7 0,542.7 -9.7,-191.6 0,-542.7 0,-542.7" /><path
         id="path190"
         style="fill:#c37140;fill-opacity:1;fill-rule:nonzero;stroke:none"
         d="m 14188.3,9234.7 c 0,0 206.5,-270.5 278.8,-341.4 72.2,-70.8 120.6,-132.1 133.4,-141.7 12.9,-9.7 270.6,6.4 293.1,16.1 22.6,9.7 35.5,51.5 35.5,51.5 0,0 38.6,19.4 48.3,45.1 9.6,25.8 0,87 0,87 0,0 54.7,77.3 61.2,119.2 6.4,41.8 -29,109.5 -70.9,122.4 0,0 -103.1,167.4 -183.6,209.3 -80.5,41.9 -251.2,0 -357.5,19.3 -106.3,19.4 -238.3,-186.8 -238.3,-186.8" /><path
         id="path192"
         style="fill:#838585;fill-opacity:1;fill-rule:nonzero;stroke:none"
         d="m 14467.1,9283 c 0,0 -40.5,12.9 -79.1,12.9 -38.7,0 -286.7,-9.6 -302.8,-12.9 -16.1,-3.2 -29,-112.7 16.1,-119.1 45.1,-6.5 150,-10.7 150,-10.7 l 53.1,-67.5 c 0,0 -190.2,-8.8 -254.6,36.3 -64.4,45.1 -90.2,190 -19.4,225.5 70.9,35.4 389.8,0 389.8,0 l 46.9,-64.5" /><path
         id="path194"
         style="fill:#a45634;fill-opacity:1;fill-rule:nonzero;stroke:none"
         d="m 14594.1,8906.2 c -7.1,1.3 282.6,16.9 383.3,45.1 l 4.1,-45.5 c 0,0 -219.7,-30.8 -387.4,0.4" /><path
         id="path196"
         style="fill:#a45634;fill-opacity:1;fill-rule:nonzero;stroke:none"
         d="m 14657.7,8817.6 c -30.9,7.3 271.4,1.6 271.4,1.6 l -16.3,-33.9 c 0,0 -104.1,-3.1 -255.1,32.3" /><path
         id="path198"
         style="fill:#b36239;fill-opacity:1;fill-rule:nonzero;stroke:none"
         d="m 14133.5,9788.7 c -325.3,109.5 -402.6,438.1 -402.6,438.1 122.4,-193.3 402.6,-438.1 402.6,-438.1" /><path
         id="path200"
         style="fill:#606163;fill-opacity:1;fill-rule:nonzero;stroke:none"
         d="m 14594.1,9163.9 c 0,0 93.4,-116 132.1,-119.2 38.6,-3.2 103,68.7 154.6,59.6 51.5,-9.2 126.9,85.3 126.9,85.3 l -40,3.3 -86.9,-29 c 0,0 -99.9,61.2 -148.2,70.8 -48.3,9.7 -138.5,-70.8 -138.5,-70.8" /><path
         id="path202"
         style="fill:#606163;fill-opacity:1;fill-rule:nonzero;stroke:none"
         d="m 14658.5,9140.1 -64.4,23.8 -206.1,132 32.2,51.6 280.2,-157.9 -41.9,-49.5" /><g
         transform="scale(1.20122)"
         id="g204"><path
           id="path206"
           style="fill:#252323;fill-opacity:1;fill-rule:nonzero;stroke:none"
           d="m 13668.5,7696 2631.5,3044.6 -43.1,37.3 -2631.5,-3044.68 43.1,-37.22" /></g><g
         transform="scale(1.00816)"
         id="g208"><path
           id="path210"
           style="fill:#606163;fill-opacity:1;fill-rule:nonzero;stroke:none"
           d="m 16187.4,9244.07 c 9.5,-9.02 71.8,-2.97 83.8,0 12,2.98 28.8,-54.95 21.6,-75.18 -7.2,-20.14 -78.8,-56.74 -78.8,-56.74 l -26.6,131.92" /></g><g
         transform="scale(1.05144)"
         id="g212"><path
           id="path214"
           style="fill:#c37140;fill-opacity:1;fill-rule:nonzero;stroke:none"
           d="m 15652,9906.08 c -156.1,219.42 -229.7,672.02 -229.7,672.02 0,0 -312.4,358.4 -317.1,735.2 -4.5,376.8 87.4,703 87.4,703 0,0 340,0 615.7,-239.2 275.7,-239.2 274.5,-771.7 274.5,-771.7 0,0 106.9,-197.6 143.7,-356.4 36.7,-158.8 45.9,-553.4 45.9,-553.4 0,0 27.6,-59.7 27.6,-128.67 0,-68.92 -41.4,-185.32 -217.2,-412.01 -175.9,-226.72 -712.6,-771.98 -712.6,-771.98 l -226.6,177.66 c 0,0 67.3,98.06 232.8,441.12 165.4,343.13 275.6,504.36 275.6,504.36" /></g><g
         transform="scale(1.03742)"
         id="g216"><path
           id="path218"
           style="fill:#a45634;fill-opacity:1;fill-rule:nonzero;stroke:none"
           d="m 16300,11154 c 0,0 -119.8,-214.2 -175.7,-256.1 -55.9,-41.9 -149,-23.3 -149,-23.3 0,0 111.7,-54.8 204.9,-4.1 93.1,50.7 119.8,283.5 119.8,283.5" /></g><path
         id="path220"
         style="fill:#a45634;fill-opacity:1;fill-rule:nonzero;stroke:none"
         d="m 16162.4,11668.1 c 0,0 -33.8,-289.9 53.2,-545.9 l -145,204.3 c 0,0 33.9,201.5 91.8,341.6" /><g
         transform="scale(1.03098)"
         id="g222"><path
           id="path224"
           style="fill:#b36239;fill-opacity:1;fill-rule:nonzero;stroke:none"
           d="m 16168.8,10150.6 c 0,0 9.4,340.5 0,526.4 0,0 131.2,-170.2 0,-526.4" /></g><path
         id="path226"
         style="fill:#c37140;fill-opacity:1;fill-rule:nonzero;stroke:none"
         d="m 16160.8,9234.7 c 0,0 -206.5,-270.5 -278.8,-341.4 -72.3,-70.8 -120.6,-132.1 -133.5,-141.7 -12.8,-9.7 -270.5,6.4 -293.1,16.1 -22.5,9.7 -35.4,51.5 -35.4,51.5 0,0 -38.6,19.4 -48.3,45.1 -9.7,25.8 0,87 0,87 0,0 -54.7,77.3 -61.2,119.2 -6.4,41.8 29,109.5 70.9,122.4 0,0 103,167.4 183.6,209.3 80.5,41.9 251.2,0 357.5,19.3 106.3,19.4 238.3,-186.8 238.3,-186.8" /><g
         transform="scale(1.00549)"
         id="g228"><path
           id="path230"
           style="fill:#838585;fill-opacity:1;fill-rule:nonzero;stroke:none"
           d="m 15795.3,9232.31 c 0,0 40.3,12.83 78.6,12.83 38.5,0 285.2,-9.55 301.2,-12.83 16,-3.18 28.8,-112.09 -16,-118.45 -44.9,-6.46 -149.3,-10.64 -149.3,-10.64 l -52.7,-67.14 c 0,0 189.1,-8.75 253.2,36.11 64,44.85 89.7,188.96 19.2,224.27 -70.4,35.2 -387.6,0 -387.6,0 l -46.6,-64.15" /></g><path
         id="path232"
         style="fill:#a45634;fill-opacity:1;fill-rule:nonzero;stroke:none"
         d="m 15755,8906.2 c 7.1,1.3 -282.6,16.9 -383.3,45.1 l -4.2,-45.5 c 0,0 219.7,-30.8 387.5,0.4" /><path
         id="path234"
         style="fill:#a45634;fill-opacity:1;fill-rule:nonzero;stroke:none"
         d="m 15691.4,8817.6 c 30.9,7.3 -271.4,1.6 -271.4,1.6 l 16.3,-33.9 c 0,0 104.1,-3.1 255.1,32.3" /><g
         transform="scale(1.01952)"
         id="g236"><path
           id="path238"
           style="fill:#b36239;fill-opacity:1;fill-rule:nonzero;stroke:none"
           d="m 15905.1,9601.27 c 0,0 274.8,240.11 394.9,429.63 0,0 -75.8,-322.23 -394.9,-429.63" /></g><path
         id="path240"
         style="fill:#606163;fill-opacity:1;fill-rule:nonzero;stroke:none"
         d="m 15755,9163.9 c 0,0 -93.4,-116 -132.1,-119.2 -38.6,-3.2 -103,68.7 -154.6,59.6 -51.5,-9.2 -126.9,85.3 -126.9,85.3 l 40,3.3 86.9,-29 c 0,0 99.9,61.2 148.2,70.8 48.3,9.7 138.5,-70.8 138.5,-70.8" /><path
         id="path242"
         style="fill:#606163;fill-opacity:1;fill-rule:nonzero;stroke:none"
         d="m 15690.6,9140.1 64.4,23.8 206.1,132 -32.2,51.6 -280.2,-157.9 41.9,-49.5" /><path
         id="path244"
         style="fill:#a45634;fill-opacity:1;fill-rule:nonzero;stroke:none"
         d="m 15184.7,11943.8 c -3.7,23.9 -7.8,48 -12.5,72.1 0,0 -4,-25.9 -8.9,-71 7.4,-0.5 14.4,-0.8 21.4,-1.1" /><path
         id="path246"
         style="fill:#b36239;fill-opacity:1;fill-rule:nonzero;stroke:none"
         d="m 15026.8,12264.5 v 0 0 0 m -370.1,0.1 c -2.1,7.5 -4.3,15.1 -6.4,22.8 82.8,18.8 199.8,43 254.7,43 4.1,0 7.8,-0.1 11.2,-0.4 27.2,-2.3 49,-11.1 65.7,-21.5 l 23.6,-38.5 c -25.4,5.9 -69.9,14.5 -113.8,14.5 -19.4,0 -38.6,-1.7 -56,-6.1 -41.2,-10.2 -117,-13.2 -179,-13.8" /><path
         id="path248"
         style="fill:#a45634;fill-opacity:1;fill-rule:nonzero;stroke:none"
         d="m 15026.8,12264.5 c -0.1,0.1 -8.1,2.4 -21.3,5.5 l -23.6,38.5 c 30.7,-19.1 44.7,-43.6 44.9,-44 v 0" /><path
         id="path250"
         style="fill:#b36239;fill-opacity:1;fill-rule:nonzero;stroke:none"
         d="m 15705.6,12265.8 c -47.5,1.6 -95.1,5.2 -124.8,12.6 -17.4,4.4 -36.7,6.1 -56.1,6.1 -48.1,0 -97.1,-10.4 -120.6,-16.2 1.6,6.5 3.4,13.3 5.3,20.5 17.5,17.1 47.2,37.5 90.9,41.2 3.3,0.3 7.1,0.4 11.2,0.4 44,0 128,-15.5 202.2,-31.4 -2.7,-11.3 -5.4,-22.4 -8.1,-33.2" /><path
         id="path252"
         style="fill:#a45634;fill-opacity:1;fill-rule:nonzero;stroke:none"
         d="m 15389.7,12264.5 c 0,0 6.3,11.2 19.7,24.3 -1.9,-7.2 -3.7,-14 -5.3,-20.5 -9.1,-2.2 -14.4,-3.8 -14.4,-3.8" /><path
         id="path254"
         style="fill:#2f1d16;fill-opacity:1;fill-rule:nonzero;stroke:none"
         d="m 14684.2,13208.3 c 12.3,22.9 -42.8,83.9 -56.2,147.3 -13.4,63.5 3,317.1 0.9,346.6 -2.2,29.4 49,119.9 58.7,147.1 9.6,27.1 71.1,135.7 109.7,165 38.5,29.4 151.8,47.2 199.4,62.9 47.6,15.8 138.3,54 222.1,44.8 83.8,-9.3 74.7,-29.7 133.6,-34.3 58.8,-4.7 149.3,-54.8 180.9,-86.6 31.7,-31.8 142.5,-106.8 178.6,-154.4 36.1,-47.7 50.9,-269.7 43,-353.5 -7.9,-83.8 -39.9,-208.3 -39.9,-208.3 l -18.3,-55.8 c 0,0 -156.1,-172.1 -161.2,-177 -120,-114.4 267.2,6.1 0,0 -267.3,-6.1 -575.3,1.5 -575.3,1.5 0,0 -122.9,-154.7 -168,-107 -45.2,47.7 -108,261.7 -108,261.7" /><path
         id="path256"
         style="fill:#c37140;fill-opacity:1;fill-rule:nonzero;stroke:none"
         d="m 14760.5,13305.6 c 0,0 -97.5,101.6 -138.5,56.5 -41.1,-45.2 -7.8,-118.1 19.4,-181.4 27.2,-63.4 43.3,-168.6 72.6,-179.1 29.2,-10.4 78.2,8.4 78.2,8.4 l -31.7,295.6" /><path
         id="path258"
         style="fill:#c37140;fill-opacity:1;fill-rule:nonzero;stroke:none"
         d="m 15612.4,13336.2 c 0,0 103.5,95.5 141.7,48 38.2,-47.6 0.5,-118.3 -30.5,-179.9 -31,-61.5 -53.5,-165.6 -83.4,-174.3 -29.8,-8.6 -77.5,13.2 -77.5,13.2 l 49.7,293" /><path
         id="path260"
         style="fill:#2f1d16;fill-opacity:1;fill-rule:nonzero;stroke:none"
         d="m 15733.9,13581.3 h -1088 c 2.3,-56.1 6.4,-111 8.6,-139.2 5.1,-65.2 35.5,-213.6 25.3,-244 -10.1,-30.4 40.6,-185.7 40.6,-185.7 l 96.2,13.5 790.5,-35.5 c 0,0 106.4,202.7 101.3,263.5 -3.9,47 19.4,226.9 25.5,327.4" /><path
         id="path262"
         style="fill:#c37140;fill-opacity:1;fill-rule:nonzero;stroke:none"
         d="m 14720.4,13012.4 c 0,0 10.1,150.3 30.4,160.4 20.2,10.1 25.3,56.8 25.3,87.2 0,30.4 0,110.4 30.4,125.6 30.4,15.2 61,100.7 116.5,116.5 297.6,84.5 517.4,9.1 517.4,9.1 30.4,5.1 120.8,-90.9 120.8,-161.8 0,-71 25.6,-72.7 45.9,-147.4 20.2,-74.6 30.4,-150.8 30.4,-150.8 0,0 20.3,-157.1 -30.4,-248.3 -50.7,-91.2 -233.1,-334.4 -283.8,-369.9 -50.6,-35.4 -167.2,-45.6 -228,-20.2 -60.8,25.3 -293.9,324.3 -339.5,405.3 -45.6,81.1 -35.4,194.3 -35.4,194.3" /><path
         id="path264"
         style="fill:#c37140;fill-opacity:1;fill-rule:nonzero;stroke:none"
         d="m 15717.4,13397.4 c 0,0 -31.4,-17.3 -36.3,-23.8 -4.8,-6.5 -10,-146.3 -14.7,-177.8 -4.6,-31.6 -28.9,-144.6 -28.9,-144.6 0,0 81.6,127.5 96.4,222.5 14.9,95 -16.5,123.7 -16.5,123.7" /><path
         id="path266"
         style="fill:#c37140;fill-opacity:1;fill-rule:nonzero;stroke:none"
         d="m 14662,13372 35.4,-15.5 c 0,0 -1.3,-156.5 25,-319.3 l 7,-66.8 -67.4,200.8 -26,97.7 26,103.1" /></g></g></svg>