<?xml version="1.0" encoding="UTF-8" standalone="no"?>
<svg
   xmlns:dc="http://purl.org/dc/elements/1.1/"
   xmlns:cc="http://creativecommons.org/ns#"
   xmlns:rdf="http://www.w3.org/1999/02/22-rdf-syntax-ns#"
   xmlns:svg="http://www.w3.org/2000/svg"
   xmlns="http://www.w3.org/2000/svg"
   viewBox="0 0 2666.6667 2666.6667"
   height="2666.6667"
   width="2666.6667"
   xml:space="preserve"
   id="svg2"
   version="1.1"><metadata
     id="metadata8"><rdf:RDF><cc:Work
         rdf:about=""><dc:format>image/svg+xml</dc:format><dc:type
           rdf:resource="http://purl.org/dc/dcmitype/StillImage" /></cc:Work></rdf:RDF></metadata><defs
     id="defs6" /><g
     transform="matrix(1.3333333,0,0,-1.3333333,0,2666.6667)"
     id="g10"><g
       transform="scale(0.1)"
       id="g12"><g
         transform="scale(1.22699)"
         id="g14"><path
           id="path16"
           style="fill:none;fill-opacity:1;fill-rule:nonzero;stroke:none"
           d="M 16300,0 H 0 V 16300 H 16300 V 0" /></g><g
         transform="scale(1.0801)"
         id="g18"><path
           id="path20"
           style="fill:#959595;fill-opacity:1;fill-rule:nonzero;stroke:none"
           d="m 14820.8,5593.94 1479.2,338.02 -68.4,184.8 h -581.3 l -595.1,-142.49 -494,-203.87 14.1,-81.1 245.5,-95.36" /></g><path
         id="path22"
         style="fill:#252323;fill-opacity:1;fill-rule:nonzero;stroke:none"
         d="m 12920.7,7716.1 1264.7,102 242.3,-123.4 -1152,-128 -265.1,102.1 -89.9,47.3" /><g
         transform="scale(1.07556)"
         id="g24"><path
           id="path26"
           style="fill:#48484a;fill-opacity:1;fill-rule:nonzero;stroke:none"
           d="m 14795.9,6569.02 10.8,-191.9 175.8,-363.53 -391.1,-70.85 c 0,0 229.5,-126.72 246.6,-124.68 17.1,2.14 1462,324.48 1462,324.48 0,0 -237.9,83.68 -254.9,87.86 -17.1,4.19 -599.3,-97.81 -599.3,-97.81 l -327.1,291.85 -322.8,144.58" /></g><path
         id="path28"
         style="fill:#48484a;fill-opacity:1;fill-rule:nonzero;stroke:none"
         d="m 12000.3,7214.7 59.4,-96 2550.9,402.3 -182.9,173.7 -1159.6,-74.7 -1084.9,-225.5 -182.9,-179.8" /><path
         id="path30"
         style="fill:#959595;fill-opacity:1;fill-rule:nonzero;stroke:none"
         d="m 12247.2,7475.3 -64,-80.8 -123.5,-275.8 -201.1,45.7 172.2,309.3 216.4,1.6" /><path
         id="path32"
         style="fill:#707274;fill-opacity:1;fill-rule:nonzero;stroke:none"
         d="m 14091,9509.6 -822.9,-1889.6 -1084.9,-225.5 -152.4,79.2 889.9,242.4 1047.8,2134.8 122.5,-341.3" /><path
         id="path34"
         style="fill:#707274;fill-opacity:1;fill-rule:nonzero;stroke:none"
         d="m 13088.3,7443.3 30,184 c 0,0 1263.7,85.7 1743.7,136 480,50.2 535,82.2 535,82.2 l 42.1,-700.3 c 0,0 -430.8,92.3 -1221.6,174.6 -790.9,82.3 -1129.2,123.5 -1129.2,123.5" /><g
         transform="scale(1.18382)"
         id="g36"><path
           id="path38"
           style="fill:#252323;fill-opacity:1;fill-rule:nonzero;stroke:none"
           d="m 15052.7,5758.47 c 0,0 -34.7,16.89 -55.3,-18 -20.7,-34.8 -28.3,-130.08 -56.6,-207.29 -28.3,-77.21 -103,-149.35 -23.3,-239.4 79.9,-90.13 327,-61.83 538.1,-84.97 211.1,-23.15 525.2,-133.89 684.8,-97.82 159.6,36.07 113.3,198.25 87.5,231.71 -25.7,33.44 -115.9,44.51 -198.2,90.46 -82.4,45.96 -319.2,182.38 -355.2,277.67 -36.1,95.28 -74.7,154.41 -92.8,180.18 -18,25.76 -115.8,0 -115.8,0 l -413.2,-132.54" /></g><path
         id="path40"
         style="fill:#959595;fill-opacity:1;fill-rule:nonzero;stroke:none"
         d="m 13806.7,9850.9 -886,-2134.8 146.3,-47.3 898.7,2017.9 -159,164.2" /><g
         transform="scale(1.0579)"
         id="g42"><path
           id="path44"
           style="fill:#100f0d;fill-opacity:1;fill-rule:nonzero;stroke:none"
           d="m 15785.7,8176.66 c 0,0 216.3,-127.05 365.2,31.57 149.1,158.61 -301.9,344.08 -376.7,296.81 -74.8,-47.17 -155.2,-88.19 -110.7,-113.24 44.5,-24.96 122.2,-215.14 122.2,-215.14" /></g><g
         transform="scale(1.13727)"
         id="g46"><path
           id="path48"
           style="fill:#c37140;fill-opacity:1;fill-rule:nonzero;stroke:none"
           d="m 14673.4,7734.67 c 0,0 144.6,-85.74 428.7,-107.19 284,-21.46 418.1,0 418.1,0 l 192.9,-89.78 c 0,0 -80.4,-281.37 -72.3,-478.34 8,-196.96 48.2,-430.06 72.3,-518.52 24.1,-88.46 -44.3,-546.66 -44.3,-546.66 0,0 64.4,-132.69 88.5,-156.78 24.2,-24.09 152.7,-28.14 152.7,-28.14 0,0 72.4,68.32 132.7,104.46 60.3,36.23 84.4,36.23 84.4,48.28 0,12.04 32.2,558.7 84.4,936.54 52.3,377.92 88.5,631.33 72.4,773.96 -16.1,142.53 -12,247.08 -48.3,323.49 -36.1,76.33 -418,229.06 -598.9,349.7 -180.8,120.55 -427.4,187.55 -427.4,187.55 0,0 -292.1,-62.96 -316.2,-143.32 -24.2,-80.46 -116.6,-313.56 -132.7,-393.93 -16.1,-80.45 -48.2,-134.01 -48.2,-134.01 l -38.8,-127.31" /></g><path
         id="path50"
         style="fill:#c37140;fill-opacity:1;fill-rule:nonzero;stroke:none"
         d="m 14577.5,11301.8 459.4,229.8 c 0,0 85.7,263.7 195.4,451.1 109.7,187.4 150.9,251.4 150.9,251.4 0,0 -22.9,237.8 86.8,365.8 109.7,128 265.2,608 265.2,608 l 251.4,-36.6 c 0,0 13.7,-553.2 -32,-745.2 -45.7,-192 -219.4,-493.7 -219.4,-493.7 0,0 -16.8,-463.2 -138.7,-710.1 -121.9,-246.8 -332.2,-323 -387,-316.9 -54.9,6.1 -484.6,70.1 -524.2,115.8 -39.7,45.7 -107.8,280.6 -107.8,280.6" /><path
         id="path52"
         style="fill:#959595;fill-opacity:1;fill-rule:nonzero;stroke:none"
         d="m 12841.4,11216.2 -8.1,205.7 136.1,129.6 c 0,0 726,-559.8 920.7,-746.2 194.8,-186.4 1072.5,-1384.6 1072.5,-1413.3 0,-28.7 -16.4,-460.4 -47.8,-473.2 -31.4,-12.7 -37.5,-17.7 -86.3,0 -48.8,17.8 -1420.2,1547.7 -1432.4,1596.5 -12.2,48.7 -554.7,700.9 -554.7,700.9" /><g
         transform="scale(1.01144)"
         id="g54"><path
           id="path56"
           style="fill:#252323;fill-opacity:1;fill-rule:nonzero;stroke:none"
           d="m 15390,6301.44 -75.4,-27.09 c 0,0 -102.4,-55.76 -114.4,-112.22 -12.1,-56.55 12,-107.76 0,-198.13 -12.1,-90.37 -64.2,-316.39 -3.5,-358.6 60.7,-42.12 136.1,-81.27 136.1,-81.27 0,0 277.2,-244.11 572.5,-277.23 295.2,-33.22 394.7,42.12 394.7,126.55 0,84.34 -57.2,93.33 -105.5,141.58 -48.1,48.25 -259.1,310.35 -304.3,397.76 -45.2,87.39 -84.4,135.54 -84.4,198.82 0,63.28 -12,156.71 -114.4,183.9 -102.5,27.09 -214,63.18 -214,63.18 l -87.4,-57.25" /></g><path
         id="path58"
         style="fill:#bbbab8;fill-opacity:1;fill-rule:nonzero;stroke:none"
         d="m 12833.3,11421.9 -113.8,-205.7 2109,-2721.5 383.3,-165.5 -340.6,676.3 -2037.9,2416.4" /><g
         transform="scale(1.06117)"
         id="g60"><path
           id="path62"
           style="fill:#252323;fill-opacity:1;fill-rule:nonzero;stroke:none"
           d="m 13973.7,8806.3 c 0,0 17.2,-465.24 51.7,-580.11 34.4,-114.87 178,-201.1 224,-264.24 45.9,-63.23 155.1,-212.5 229.8,-258.49 74.6,-45.98 252.7,0 252.7,0 l 324.6,499.74 448,146.44 232.5,-198.18 c 0,0 28.8,109.12 69,149.36 40.3,40.24 206.8,189.51 235.5,252.74 28.8,63.14 143.6,396.36 183.8,453.75 40.2,57.48 74.7,137.86 74.7,137.86 0,0 -666.3,132.12 -758.2,149.37 -91.9,17.24 -292.9,91.88 -292.9,91.88 l -666.3,-45.99 -505.5,-201.01 -63.2,-103.37 -40.2,-229.75" /></g><path
         id="path64"
         style="fill:#e9eef1;fill-opacity:1;fill-rule:nonzero;stroke:none"
         d="m 14381.2,11261.8 c 0,0 227.9,52 273.6,48.9 45.7,-3 350.5,-36.6 472.4,-79.2 121.9,-42.7 438.8,-240.8 533.3,-371.8 94.5,-131.1 112.8,-262.1 259.1,-496.8 146.2,-234.7 347.4,-423.6 347.4,-423.6 0,0 -280.4,-103.6 -481.5,-137.2 -201.2,-33.5 -310.9,-27.4 -448,-91.4 -137.2,-64 -509,-365.7 -509,-365.7 0,0 -140.2,97.5 -170.7,158.5 -30.4,60.9 -685.7,600.3 -700.9,612.5 -15.3,12.2 210.3,185.9 192,408.4 -18.3,222.5 -342.2,670.4 -342.2,670.4 0,0 191.5,92.1 271.4,85.7 79.9,-6.4 303.1,-18.7 303.1,-18.7" /><path
         id="path66"
         style="fill:#361c19;fill-opacity:1;fill-rule:nonzero;stroke:none"
         d="m 13784,11962.1 83.5,42.4 c 0.5,-0.2 -34.3,105.6 -77.7,135.3 -43.5,29.7 -122.3,66.9 -181.8,53.2 -59.4,-13.7 -114.2,-26.6 -192,-107 -77.7,-80.4 -194.2,-299.9 -214.8,-357 -20.6,-57.1 2.3,-205.7 32,-260.6 29.7,-54.8 169.1,-185.1 205.7,-205.7 36.6,-20.6 167.3,-47.4 242.1,-51.9 93.9,-5.7 125.7,-16 125.7,-16 l -63.8,285.1 c 0,0 -32,75.4 -25.1,109.7 6.8,34.3 66.2,372.5 66.2,372.5" /><path
         id="path68"
         style="fill:#c37140;fill-opacity:1;fill-rule:nonzero;stroke:none"
         d="m 14116.1,11472.1 189.2,-60.7 v -87.6 c 0,0 63.7,-55.9 75.9,-62 12.2,-6 137.2,-30.4 137.2,-30.4 0,0 -109.8,-30.5 -262.1,-36.6 -152.4,-6.1 -449.6,0 -449.6,0 l -168.8,184.6 342.5,152.2 135.7,-59.5" /><path
         id="path70"
         style="fill:#a45532;fill-opacity:1;fill-rule:nonzero;stroke:none"
         d="m 13705.6,11361.8 c 0,0 124,-63.4 230.7,-78.6 106.6,-15.3 369,40.6 369,40.6 v 87.6 c 0,0 -271.5,45.5 -350.8,39.4 -79.2,-6.1 -248.9,-89 -248.9,-89" /><path
         id="path72"
         style="fill:#c37140;fill-opacity:1;fill-rule:nonzero;stroke:none"
         d="m 13746.1,12063.6 c 0,0 143.2,-68.5 184.4,-91.4 41.1,-22.8 103.6,-92.9 108.2,-96 4.5,-3 91.4,-15.2 109.7,-30.5 18.3,-15.2 -1.5,-106.6 0,-118.8 1.5,-12.2 65.5,-64 79.2,-89.9 13.7,-25.9 30.5,-86.9 45.7,-114.3 15.3,-27.4 38.9,-86.1 32,-111.3 -6.8,-25.1 -402.3,-96 -448,-86.8 -45.7,9.1 -219.4,54.8 -219.4,54.8 0,0 -172.2,29 -199.6,71.7 -27.5,42.6 6.1,91.4 60.9,88.3 54.9,-3 112.8,-45.7 121.9,-39.6 9.2,6.1 21.4,33.6 21.4,33.6 0,0 -64,73.1 -70.1,88.3 -6.1,15.3 -3.1,58.7 -9.2,72 -6.1,13.4 -57.9,40.8 -57.9,117 0,76.2 15.3,146.3 61,185.9 45.7,39.6 179.8,67 179.8,67" /><path
         id="path74"
         style="fill:#c37140;fill-opacity:1;fill-rule:nonzero;stroke:none"
         d="m 14030,10122.1 -73.1,-6.1 c 0,0 -161.5,51.8 -268.2,109.8 -106.7,57.9 -195.1,79.2 -317,201.1 -121.9,121.9 -240.7,350.5 -240.7,350.5 0,0 -122.7,153.9 -150.1,343.6 -27.5,189.7 -27.5,267.4 -34.3,292.6 -6.9,25.1 -173.7,374.8 -269.7,578.3 -96,203.4 -153.2,475.4 -178.3,642.2 -25.2,166.9 -48,272 -48,272 l 284.2,80.8 c 0,0 73.1,-185.9 158.5,-326.1 85.3,-140.2 170.6,-320 231.6,-463.2 60.9,-143.3 115.8,-243.8 219.4,-353.6 103.6,-109.7 168.8,-327.7 186.1,-439.6 17.3,-112 17.3,-141.7 17.3,-141.7 l 90.2,-46.5 168.8,-21.4 383.3,-295.5 73.2,-233.2 c 0,0 118.8,-434.3 64,-475.4 -54.9,-41.1 -297.2,-68.6 -297.2,-68.6" /><path
         id="path76"
         style="fill:#a45532;fill-opacity:1;fill-rule:nonzero;stroke:none"
         d="m 13941.6,10719.5 c -3,9.1 -137.1,51.8 -170.6,185.9 -33.5,134.1 -133.1,310.8 -133.1,310.8 l 168.8,-21.4 19.9,-23.5 -36.8,-48 c 0,0 18.5,-137.2 50.5,-217.2 32,-80 101.3,-186.6 101.3,-186.6" /><path
         id="path78"
         style="fill:#a45532;fill-opacity:1;fill-rule:nonzero;stroke:none"
         d="m 13003.7,11777 c 0,0 32,-44.3 57.2,-74.7 25.1,-30.4 32,-80.7 45.7,-78.4 13.7,2.2 18.3,61.7 -11.4,102.8 -29.8,41.2 -91.5,50.3 -91.5,50.3" /><g
         transform="scale(1.09969)"
         id="g80"><path
           id="path82"
           style="fill:#a45532;fill-opacity:1;fill-rule:nonzero;stroke:none"
           d="m 15659.8,8004.37 c -30,-0.55 390.8,-116.22 390.8,-116.22 l 199.5,-92.84 49.9,-18.01 c 0,0 -69.3,99.85 -83.1,113.67 -13.9,13.82 -99.8,22.1 -99.8,22.1 0,0 -307.6,93.84 -457.3,91.3" /></g><g
         transform="scale(1.11782)"
         id="g84"><path
           id="path86"
           style="fill:#a45532;fill-opacity:1;fill-rule:nonzero;stroke:none"
           d="m 16253.7,7293.65 c 0,0 -13.6,-155.12 -36.8,-204.15 -23.2,-49.11 -88.7,-119.97 -73.6,-132.22 14.9,-12.26 80.4,23.17 118.5,118.62 38.2,95.37 -8.1,217.75 -8.1,217.75" /></g><g
         transform="scale(1.12525)"
         id="g88"><path
           id="path90"
           style="fill:#ffffff;fill-opacity:1;fill-rule:nonzero;stroke:none"
           d="m 15845.8,6038.74 c 19,-38.04 61.2,-120.42 79.8,-138.99 24.4,-24.35 154.4,-28.44 154.4,-28.44 0,0 73.1,69.05 134.1,105.58 60.9,36.61 85.3,36.61 85.3,48.79 0,0.97 0.2,5.68 0.6,13.59 -211.2,-39.1 -377.6,-16.35 -454.2,-0.53" /></g><path
         id="path92"
         style="fill:#100f0d;fill-opacity:1;fill-rule:nonzero;stroke:none"
         d="m 16027.5,9198.7 c 0,0 -210,258.3 -262.6,294.9 -52.6,36.5 -464.8,41.1 -464.8,41.1 0,0 277.4,54.9 393.9,50.3 116.6,-4.6 256,-130.3 288,-132.6 32,-2.3 80.8,-3.8 80.8,-3.8 l 58.7,-103.6 v -57.9 l -94,-88.4" /><path
         id="path94"
         style="fill:#a45532;fill-opacity:1;fill-rule:nonzero;stroke:none"
         d="m 15431.9,11176.6 c 0,0 50.3,160 132.6,219.4 0,0 -64,-18.2 -112.8,-76.2 -48.7,-57.9 -19.8,-143.2 -19.8,-143.2" /><path
         id="path96"
         style="fill:#a45532;fill-opacity:1;fill-rule:nonzero;stroke:none"
         d="m 15584.3,12462.7 c 0,0 -6.8,-91.4 -50.3,-157.7 -43.4,-66.3 -91.4,-105.1 -82.3,-100.6 9.2,4.6 84.6,6.9 132.6,89.2 48,82.3 0,169.1 0,169.1" /><g
         transform="scale(1.01144)"
         id="g98"><path
           id="path100"
           style="fill:#707274;fill-opacity:1;fill-rule:nonzero;stroke:none"
           d="m 15881.2,7481.15 418.8,-1001.94 -120.5,-38.17 -687.5,623.37 389.2,416.74" /></g><g
         transform="scale(1.10067)"
         id="g102"><path
           id="path104"
           style="fill:#bbbab8;fill-opacity:1;fill-rule:nonzero;stroke:none"
           d="m 8963.82,12000.4 7271.78,639.1 c 0,0 51.9,-4.2 58.1,-58.2 6.3,-54 -41.5,-85.1 -41.5,-85.1 L 8963.82,11845 v 155.4" /></g><g
         transform="scale(1.08161)"
         id="g106"><path
           id="path108"
           style="fill:#565759;fill-opacity:1;fill-rule:nonzero;stroke:none"
           d="m 16266.2,12731.7 c 33.8,-503.1 -286.1,-934.4 -714.5,-963.2 -428.5,-28.9 -803.3,355.6 -837.1,858.8 -33.9,503.1 285.9,934.3 714.4,963.2 428.5,28.8 803.2,-355.7 837.2,-858.8" /></g><path
         id="path110"
         style="fill:#565759;fill-opacity:1;fill-rule:nonzero;stroke:none"
         d="m 12404.1,13258.4 c 0,-663.8 -429.1,-1202 -958.5,-1202 -529.3,0 -958.5,538.2 -958.5,1202 0,663.9 429.2,1202 958.5,1202 529.4,0 958.5,-538.1 958.5,-1202" /><path
         id="path112"
         style="fill:#656769;fill-opacity:1;fill-rule:nonzero;stroke:none"
         d="m 11508.7,12179.8 c -480.3,0 -869.6,493.1 -869.6,1101.4 0,608.3 389.3,1101.5 869.6,1101.5 480.2,0 869.5,-493.2 869.5,-1101.5 0,-608.3 -389.3,-1101.4 -869.5,-1101.4 z m -63.1,2280.6 c -529.3,0 -958.5,-538.1 -958.5,-1202 0,-663.8 429.2,-1202 958.5,-1202 529.4,0 958.5,538.2 958.5,1202 0,663.9 -429.1,1202 -958.5,1202" /><path
         id="path114"
         style="fill:#3c3c3d;fill-opacity:1;fill-rule:nonzero;stroke:none"
         d="m 11445.6,14460.4 c -46.5,0 -92.2,-4.4 -136.9,-12.4 465.4,-84.5 823.5,-599 823.5,-1221.5 0,-543.3 -272.8,-1004.2 -651.6,-1168.9 513.1,23.1 923.5,551.7 923.5,1200.8 0,663.9 -429.1,1202 -958.5,1202" /><g
         transform="scale(1.08161)"
         id="g116"><path
           id="path118"
           style="fill:#3c3c3d;fill-opacity:1;fill-rule:nonzero;stroke:none"
           d="m 16266.2,12731.7 c -34,503.1 -408.7,887.6 -837.2,858.8 -28,-1.9 -55.5,-5.6 -82.5,-10.8 392.8,-22.4 722.3,-388.9 753.9,-859.1 31.7,-470.3 -245.8,-877.7 -631.9,-952.5 27.4,-1.5 55.2,-1.5 83.2,0.4 428.4,28.8 748.3,460.1 714.5,963.2" /></g><g
         transform="scale(1.03312)"
         id="g120"><path
           id="path122"
           style="fill:#3c3c3d;fill-opacity:1;fill-rule:nonzero;stroke:none"
           d="m 16300,13287.4 c 0,-148.3 -99,-268.5 -221.2,-268.5 -122.2,0 -221.2,120.2 -221.2,268.5 0,148.2 99,268.4 221.2,268.4 122.2,0 221.2,-120.2 221.2,-268.4" /></g><g
         transform="scale(1.02293)"
         id="g124"><path
           id="path126"
           style="fill:#bbbab8;fill-opacity:1;fill-rule:nonzero;stroke:none"
           d="m 16226.8,13490.8 c 0,0 49.4,-10 61.4,-57.7 11.8,-47.6 -16.5,-95.9 -16.5,-95.9 l -754.2,-67.4 -14.3,157.4 723.6,63.6" /></g><path
         id="path128"
         style="fill:#c37140;fill-opacity:1;fill-rule:nonzero;stroke:none"
         d="m 15585.7,13711.1 c 0,7.6 76.3,98.7 108.3,103.2 32,4.6 62.5,-9.1 62.5,-9.1 0,0 47.2,21.3 67.8,16.7 20.6,-4.5 37.4,-21.3 37.4,-21.3 0,0 31.9,9.2 47.2,4.6 15.2,-4.6 19.8,-12.2 24.4,-13.7 4.5,-1.6 53.3,5.2 71.6,-8.8 18.3,-14.1 19.8,-157.3 0,-172.6 -19.8,-15.2 -45.7,0 -45.7,0 0,0 -10.7,-22.8 -33.6,-21.3 -22.8,1.5 -30.4,12.2 -30.4,12.2 0,0 -32,-10.7 -51.8,-6.1 -19.8,4.6 -61,131 -61,131 l -196.7,-14.8" /><path
         id="path130"
         style="fill:#c37140;fill-opacity:1;fill-rule:nonzero;stroke:none"
         d="m 12734.8,12986.9 c 0,0 -13.7,100.6 45.7,123.4 59.4,22.9 128,76.2 146.3,120.4 18.3,44.2 41.1,152.4 32,182.9 -9.2,30.4 -115.8,100.5 -126.5,94.4 -10.7,-6.1 -0.8,-56.3 14.8,-83.8 15.7,-27.4 15.7,-27.4 15.7,-27.4 l -15.7,-67 c 0,0 -92.5,-3.1 -142.8,-12.2 -50.3,-9.2 -109.7,-44.2 -115.8,-44.2 -6.1,0 -184.4,-1.5 -184.4,-1.5 v -245.4 l 46.5,-120.4 284.2,80.8" /><path
         id="path132"
         style="fill:#c37140;fill-opacity:1;fill-rule:nonzero;stroke:none"
         d="m 15735.2,13207.9 v 185.9 c 0,0 -86.9,62.4 -97.6,76.1 -10.6,13.8 -44.1,79.2 -44.1,79.2 l 80.3,7.2 c 0,0 17.2,76.7 27.9,95 10.6,18.3 73.1,74.6 97.5,74.6 24.4,0 6.1,-54.8 0,-71.6 -6.1,-16.7 -13.7,-24.4 -13.7,-24.4 l 5.4,-63.1 257,21.9 c 0,0 -14.1,-161.4 -27.8,-201 -13.7,-39.7 -22.8,-51.8 -24.4,-56.4 -1.5,-4.6 -9.1,-160 -9.1,-160 l -132.6,-59.4 -118.8,96" /><path
         id="path134"
         style="fill:#dfdfdd;fill-opacity:1;fill-rule:nonzero;stroke:none"
         d="m 9943.34,13122.9 c 0,-47.2 -34.53,-85.5 -77.14,-85.5 -42.61,0 -77.14,38.3 -77.14,85.5 0,47.3 34.53,85.5 77.14,85.5 42.61,0 77.14,-38.2 77.14,-85.5" /><path
         id="path136"
         style="fill:#3c3c3d;fill-opacity:1;fill-rule:nonzero;stroke:none"
         d="m 11595,13270.3 c 0,-104.3 -71.7,-188.9 -160,-188.9 -88.4,0 -160,84.6 -160,188.9 0,104.4 71.6,189 160,189 88.3,0 160,-84.6 160,-189" /><path
         id="path138"
         style="fill:#bbbab8;fill-opacity:1;fill-rule:nonzero;stroke:none"
         d="m 11415.4,13344.6 c 0,0 34.8,-12.9 53.1,-63.4 18.3,-50.5 -33.5,-103.6 -33.5,-103.6 l -1110.9,-96.2 54.7,172.1 1036.6,91.1" /><path
         id="path140"
         style="fill:#c37140;fill-opacity:1;fill-rule:nonzero;stroke:none"
         d="m 12387.7,13492.4 c 5.7,4.6 35.5,35.5 52.6,37.7 17.1,2.3 44.6,0 44.6,0 0,0 35.4,27.5 54.8,32 19.5,4.6 45.7,0 45.7,0 0,0 46.9,28.6 72,24 25.2,-4.5 38.9,-20.5 38.9,-20.5 0,0 30.9,16 58.3,8 27.4,-8 58.3,-75.5 69.7,-126.9 11.4,-51.4 -27.4,-66.3 -27.4,-66.3 0,0 -13.1,-25.5 -40,-42.3 -26.9,-16.7 -51.5,14.9 -51.5,14.9 0,0 -19.4,-13.2 -46.8,-19.8 -27.4,-6.5 -51.5,28.9 -51.5,28.9 0,0 -30.8,-8 -50.2,-2.2 -19.5,5.7 -79.1,78 -79.1,78 l -83.5,-7.3 -6.6,61.8" /><path
         id="path142"
         style="fill:#e9eef1;fill-opacity:1;fill-rule:nonzero;stroke:none"
         d="m 14519.1,10924.4 v 260.3 c -83.3,-17.4 -291.8,-59.2 -355.3,-54.1 -79.9,6.4 -357.1,64.2 -357.1,64.2 0,0 323.9,-447.9 342.2,-670.4 18.3,-222.5 -207.3,-396.2 -192,-408.4 13.4,-10.7 526.6,-433.1 666.8,-573.4 v 1381.8 h -104.6" /><g
         transform="scale(1.03462)"
         id="g144"><path
           id="path146"
           style="fill:#bbbab8;fill-opacity:1;fill-rule:nonzero;stroke:none"
           d="m 15491.2,8890.9 c -13.8,10.63 34.1,241.54 34.1,241.54 0,0 79.6,217.95 409.4,229.74 329.9,11.8 365.3,-259.22 365.3,-259.22 0,0 -300.1,-382.95 -453.6,-418.22 -153.5,-35.38 -282.8,-47.17 -321.1,-41.27 -38.3,5.89 -34.1,247.43 -34.1,247.43" /></g><g
         transform="scale(1.03462)"
         id="g148"><path
           id="path150"
           style="fill:#959595;fill-opacity:1;fill-rule:nonzero;stroke:none"
           d="m 15487,8753.75 c 0,31.12 229.8,254.97 436,313.93 206.2,58.86 377,35.28 377,35.28 l -730.5,-1343.2 -176.8,718.72 94.3,275.27" /></g><path
         id="path152"
         style="fill:#c37140;fill-opacity:1;fill-rule:nonzero;stroke:none"
         d="m 15511.2,9223.1 c 0,0 -182.9,-140.2 -207.3,-286.5 -24.3,-146.3 73.2,-460.2 103.6,-542.5 30.5,-82.3 140.2,-86.8 140.2,-86.8 0,0 -137.1,-260.6 -155.4,-507.5 -18.3,-246.8 45.7,-571.4 73.2,-914.3 27.4,-342.8 24.3,-646.1 24.3,-646.1 l 57.9,-94.4 82.3,42.6 c 0,0 51.8,125 94.5,149.4 42.7,24.4 146.3,30.5 146.3,30.5 0,0 6.1,383.9 85.3,594.2 79.3,210.3 182.9,460.2 192,710.1 9.2,249.9 0,490.7 0,527.3 0,36.5 79.3,207.2 85.4,256 6.1,48.7 0,128 0,128 0,0 60.2,231.6 2.7,365.7 -57.6,134.1 -234.4,292.6 -338,326.1 -103.6,33.5 -336.2,-7.7 -387,-51.8" /><path
         id="path154"
         style="fill:#ffffff;fill-opacity:1;fill-rule:nonzero;stroke:none"
         d="m 15489.7,6320.1 c 0.4,-51.1 0.1,-80.7 0.1,-80.7 l 57.9,-94.4 82.3,42.6 c 0,0 16.9,40.6 39.2,80 -73.2,15.3 -133,34.4 -179.5,52.5" /><path
         id="path156"
         style="fill:#48484a;fill-opacity:1;fill-rule:nonzero;stroke:none"
         d="m 2546.82,7214.7 59.43,-96 L 5157.11,7521 4974.26,7694.7 3814.63,7620 2729.68,7394.5 2546.82,7214.7" /><path
         id="path158"
         style="fill:#252323;fill-opacity:1;fill-rule:nonzero;stroke:none"
         d="m 3467.21,7716.1 1264.76,102 242.29,-123.4 -1152,-128 -265.15,102.1 -89.9,47.3" /><path
         id="path160"
         style="fill:#959595;fill-opacity:1;fill-rule:nonzero;stroke:none"
         d="m 2793.68,7475.3 -64,-80.8 -123.43,-275.8 -201.14,45.7 172.19,309.3 216.38,1.6" /><path
         id="path162"
         style="fill:#707274;fill-opacity:1;fill-rule:nonzero;stroke:none"
         d="M 4637.5,9509.6 3814.63,7620 2729.68,7394.5 l -152.38,79.2 889.91,242.4 1047.82,2134.8 122.47,-341.3" /><path
         id="path164"
         style="fill:#959595;fill-opacity:1;fill-rule:nonzero;stroke:none"
         d="m 4353.26,9850.9 -886.05,-2134.8 146.28,-47.3 898.68,2017.9 -158.91,164.2" /><path
         id="path166"
         style="fill:#252323;fill-opacity:1;fill-rule:nonzero;stroke:none"
         d="m 8366.27,6817 c 0,0 -41.14,20 -65.52,-21.3 -24.38,-41.2 -33.53,-154 -67.05,-245.4 -33.52,-91.4 -121.91,-176.8 -27.43,-283.4 94.48,-106.7 387.05,-73.2 636.95,-100.6 249.91,-27.4 621.72,-158.5 810.67,-115.8 188.96,42.7 134.1,234.7 103.62,274.3 -30.47,39.6 -137.14,52.7 -234.66,107.1 -97.53,54.4 -377.91,215.9 -420.57,328.7 -42.68,112.8 -88.39,182.8 -109.72,213.3 -21.33,30.5 -137.14,0 -137.14,0 L 8366.27,6817" /><path
         id="path168"
         style="fill:#959595;fill-opacity:1;fill-rule:nonzero;stroke:none"
         d="m 6554.45,6042 1597.63,365.1 -73.81,199.6 h -627.81 l -642.87,-153.9 -533.52,-220.2 15.24,-87.6 265.14,-103" /><path
         id="path170"
         style="fill:#48484a;fill-opacity:1;fill-rule:nonzero;stroke:none"
         d="m 6460.4,7065.4 11.77,-206.4 188.95,-391 -420.57,-76.2 c 0,0 246.73,-136.3 265.14,-134.1 18.42,2.3 1572.58,349 1572.58,349 0,0 -256,90 -274.29,94.5 -18.28,4.5 -644.57,-105.2 -644.57,-105.2 l -351.82,313.9 -347.19,155.5" /><path
         id="path172"
         style="fill:#100f0d;fill-opacity:1;fill-rule:nonzero;stroke:none"
         d="m 7246.26,8650.1 c 0,0 228.73,-134.4 386.37,33.4 157.64,167.8 -319.42,364 -398.55,314 -79.13,-49.9 -164.18,-93.3 -117.14,-119.8 47.04,-26.4 129.32,-227.6 129.32,-227.6" /><path
         id="path174"
         style="fill:#c37140;fill-opacity:1;fill-rule:nonzero;stroke:none"
         d="m 7234.08,8796.4 c 0,0 164.57,-97.5 487.62,-121.9 323.05,-24.4 475.43,0 475.43,0 l 219.43,-102.1 c 0,0 -91.43,-320 -82.29,-544 9.14,-224 54.86,-489.1 82.29,-589.7 27.42,-100.6 -50.29,-621.7 -50.29,-621.7 0,0 73.14,-150.9 100.57,-178.3 27.43,-27.4 173.71,-32 173.71,-32 0,0 82.29,77.7 150.86,118.8 68.58,41.2 96.01,41.2 96.01,54.9 0,13.7 36.57,635.4 95.99,1065.1 59.43,429.8 100.58,718 82.29,880.2 -18.28,162.1 -13.71,281 -54.85,367.9 -41.15,86.8 -475.43,260.5 -681.15,397.7 -205.72,137.1 -486.1,213.3 -486.1,213.3 0,0 -332.19,-71.6 -359.61,-163 -27.44,-91.5 -132.58,-356.6 -150.86,-448 -18.29,-91.5 -54.86,-152.4 -54.86,-152.4 l -44.19,-144.8" /><path
         id="path176"
         style="fill:#252323;fill-opacity:1;fill-rule:nonzero;stroke:none"
         d="m 6112.55,6373.5 -76.32,-27.4 c 0,0 -103.49,-56.4 -115.68,-113.5 -12.19,-57.2 12.19,-109 0,-200.4 -12.19,-91.4 -64.94,-320 -3.52,-362.7 61.42,-42.6 137.61,-82.2 137.61,-82.2 0,0 280.38,-246.9 579.05,-280.4 298.67,-33.6 399.24,42.6 399.24,128 0,85.3 -57.9,94.4 -106.67,143.2 -48.76,48.8 -262.09,313.9 -307.8,402.3 -45.72,88.4 -85.34,137.1 -85.34,201.1 0,64 -12.19,158.5 -115.81,186 -103.62,27.4 -216.38,63.9 -216.38,63.9 l -88.38,-57.9" /><path
         id="path178"
         style="fill:#959595;fill-opacity:1;fill-rule:nonzero;stroke:none"
         d="m 3387.97,11216.2 -8.15,205.7 477.92,330.5 c 0,0 637.61,-604.3 832.38,-790.8 194.76,-186.4 819,-1540.9 819,-1569.6 0,-28.7 -16.36,-460.4 -47.8,-473.2 -31.44,-12.7 -37.53,-17.7 -86.29,0 -48.77,17.8 -1420.22,1547.7 -1432.4,1596.5 -12.18,48.7 -554.66,700.9 -554.66,700.9" /><path
         id="path180"
         style="fill:#bbbab8;fill-opacity:1;fill-rule:nonzero;stroke:none"
         d="m 3379.82,11421.9 -113.76,-205.7 2108.97,-2721.5 383.26,-165.5 -340.6,676.3 -2037.87,2416.4" /><path
         id="path182"
         style="fill:#252323;fill-opacity:1;fill-rule:nonzero;stroke:none"
         d="m 5375.02,9345 c 0,0 18.29,-493.7 54.86,-615.6 36.57,-121.9 188.95,-213.4 237.71,-280.4 48.77,-67.1 164.58,-225.5 243.82,-274.3 79.23,-48.8 268.18,0 268.18,0 l 344.39,530.3 475.43,155.4 246.85,-210.3 c 0,0 30.48,115.8 73.15,158.5 42.67,42.7 219.43,201.1 249.91,268.2 30.47,67 152.38,420.6 195.05,481.5 42.66,61 79.23,146.3 79.23,146.3 0,0 -707.05,140.2 -804.57,158.5 -97.53,18.3 -310.86,97.5 -310.86,97.5 l -707.05,-48.8 -536.38,-213.3 -67.05,-109.7 -42.67,-243.8" /><path
         id="path184"
         style="fill:#c37140;fill-opacity:1;fill-rule:nonzero;stroke:none"
         d="m 6222.34,11405.3 c 0,0 130.09,-115.9 159.04,-137.3 28.95,-21.3 92.96,-37 92.96,-37 0,0 -15.24,-319.5 -39.62,-414 -24.39,-94.5 -118.86,-182.9 -118.86,-182.9 l 32.47,-356.5 272.29,-213.4 c 0,0 149.34,262.1 149.34,487.7 0,225.5 -16.15,627.8 -18.74,636.9 -2.6,9.1 42.18,317.3 -11.33,308.7 -72.45,-11.6 -236.95,-42.2 -243.67,-43.4 -6.73,-1.2 -26.45,0 -26.45,0 0,0 -16.77,79.1 -28.96,95.8 -12.19,16.8 -33.52,27.5 -48.76,26 -15.24,-1.6 -16.49,-143.3 -16.49,-143.3 l -153.22,-27.3" /><path
         id="path186"
         style="fill:#e9eef1;fill-opacity:1;fill-rule:nonzero;stroke:none"
         d="m 4927.73,11261.8 c 0,0 227.86,52 273.58,48.9 45.71,-3 350.47,-36.6 472.38,-79.2 121.91,-42.7 438.86,-240.8 533.34,-371.8 94.47,-131.1 112.76,-262.1 259.04,-496.8 146.29,-234.7 347.43,-423.6 347.43,-423.6 0,0 -280.38,-103.6 -481.52,-137.2 -201.15,-33.5 -310.86,-27.4 -448,-91.4 -137.15,-64 -508.95,-365.7 -508.95,-365.7 0,0 -140.2,97.5 -170.68,158.5 -30.47,60.9 -745.64,629.8 -760.88,642 -15.24,12.2 227.69,134.6 209.41,357.1 -18.29,222.5 -248.77,584.4 -248.77,584.4 0,0 140.64,199.9 220.54,193.5 79.89,-6.4 303.08,-18.7 303.08,-18.7" /><path
         id="path188"
         style="fill:#361c19;fill-opacity:1;fill-rule:nonzero;stroke:none"
         d="m 4320.61,11962.1 103.71,-5.8 c 0.44,-0.2 -52.93,153.8 -96.36,183.5 -43.42,29.7 -123.92,66.9 -183.35,53.2 -59.43,-13.7 -114.29,-26.6 -192,-107 -77.72,-80.4 -194.29,-299.9 -214.86,-357 -20.57,-57.1 2.28,-205.7 32,-260.6 29.71,-54.8 169.14,-185.1 205.71,-205.7 36.58,-20.6 173.23,-43.3 246.86,-29.7 73.64,13.6 84.57,13.7 84.57,13.7 l -27.43,233.2 c 0,0 -31.99,75.4 -25.14,109.7 6.86,34.3 66.29,372.5 66.29,372.5" /><path
         id="path190"
         style="fill:#c37140;fill-opacity:1;fill-rule:nonzero;stroke:none"
         d="m 4652.64,11472.1 189.26,-60.7 v -87.6 c 0,0 63.69,-55.9 75.88,-62 12.19,-6 137.14,-30.4 137.14,-30.4 0,0 -109.71,-30.5 -262.09,-36.6 -152.39,-6.1 -388.72,-107.8 -388.72,-107.8 l -229.64,292.4 342.55,152.2 135.62,-59.5" /><path
         id="path192"
         style="fill:#974b2f;fill-opacity:1;fill-rule:nonzero;stroke:none"
         d="m 4242.21,11361.8 c 0,0 123.95,-63.4 230.62,-78.6 106.66,-15.3 369.07,40.6 369.07,40.6 v 87.6 c 0,0 -271.55,45.5 -350.79,39.4 -79.24,-6.1 -248.9,-89 -248.9,-89" /><path
         id="path194"
         style="fill:#c37140;fill-opacity:1;fill-rule:nonzero;stroke:none"
         d="m 4282.66,12063.6 c 0,0 143.24,-68.5 184.38,-91.4 41.14,-22.8 103.62,-92.9 108.19,-96 4.57,-3 91.43,-15.2 109.72,-30.5 18.28,-15.2 -1.53,-106.6 0,-118.8 1.52,-12.2 65.52,-64 79.23,-89.9 13.72,-25.9 30.48,-86.9 45.72,-114.3 15.24,-27.4 38.85,-86.1 32,-111.3 -6.86,-25.1 -402.29,-96 -448,-86.8 -45.72,9.1 -219.43,54.8 -219.43,54.8 0,0 -172.19,29 -199.62,71.7 -27.43,42.6 6.09,91.4 60.95,88.3 54.86,-3 112.76,-45.7 121.91,-39.6 9.14,6.1 21.33,33.6 21.33,33.6 0,0 -64,73.1 -70.09,88.3 -6.1,15.3 -3.05,58.7 -9.15,72 -6.09,13.4 -57.91,40.8 -57.91,117 0,76.2 15.24,146.3 60.96,185.9 45.71,39.6 179.81,67 179.81,67" /><path
         id="path196"
         style="fill:#c37140;fill-opacity:1;fill-rule:nonzero;stroke:none"
         d="m 3391.13,10644.9 c 0,0 -16.67,-664.5 24.48,-911.3 41.14,-246.9 141.71,-393.2 242.29,-402.3 100.57,-9.2 301.71,173.7 342.85,224 41.14,50.3 201.14,233.1 246.86,315.4 45.71,82.3 126.48,367.2 126.48,367.2 0,0 198.09,-120.3 298.66,108.2 100.57,228.6 -268.64,740.9 -268.64,740.9 0,0 -75.73,-20.1 -279.93,-53.6 -204.19,-33.6 -262.1,-100.6 -323.05,-204.2 -60.95,-103.6 -97.52,-237.7 -97.52,-237.7 l -36.4,158.6 c 0,0 -156.64,36.4 -168.31,30.3 -11.68,-6.1 -107.77,-135.5 -107.77,-135.5" /><path
         id="path198"
         style="fill:#bbbab8;fill-opacity:1;fill-rule:nonzero;stroke:none"
         d="m 827.242,10617.6 7912.268,1397.2 c 0,0 57.32,0.4 69.32,-58.2 12,-58.6 -37.38,-97.3 -37.38,-97.3 l -7929.333,-1412 -14.875,170.3" /><path
         id="path200"
         style="fill:#c37140;fill-opacity:1;fill-rule:nonzero;stroke:none"
         d="m 3314.49,11119.9 c 5.3,5.1 32.21,38.4 49.09,42.2 16.88,3.7 44.41,3.8 44.41,3.8 0,0 32.9,30.5 51.86,36.7 18.96,6.2 45.55,4 45.55,4 0,0 44.18,32.5 69.63,30.1 25.45,-2.3 40.5,-17.1 40.5,-17.1 0,0 29.35,18.7 57.37,13.1 28.02,-5.6 64.63,-70.1 80.49,-120.3 15.86,-50.3 -21.56,-68.5 -21.56,-68.5 0,0 -10.81,-26.5 -36.17,-45.6 -25.35,-19 -52.53,10.4 -52.53,10.4 0,0 -18.19,-14.9 -44.95,-23.8 -26.76,-8.9 -53.84,24.3 -53.84,24.3 0,0 -29.96,-10.6 -49.81,-6.6 -19.85,4 -85.58,70.9 -85.58,70.9 l -82.49,-14.6 -11.97,61" /><path
         id="path202"
         style="fill:#565759;fill-opacity:1;fill-rule:nonzero;stroke:none"
         d="m 8476.38,11850.1 c 83.85,-538.9 -220.23,-1033.7 -679.19,-1105.1 -458.96,-71.4 -898.99,307.6 -982.84,846.6 -83.85,538.9 220.23,1033.7 679.19,1105.1 458.96,71.4 898.99,-307.6 982.84,-846.6" /><path
         id="path204"
         style="fill:#3c3c3d;fill-opacity:1;fill-rule:nonzero;stroke:none"
         d="m 8476.38,11850.1 c -83.85,539 -523.88,918 -982.84,846.6 -30,-4.7 -59.29,-11.3 -87.9,-19.4 425.3,12.8 814.83,-351.1 893.2,-854.8 78.38,-503.7 -182.18,-968.7 -591.29,-1085.7 29.74,0.9 59.65,3.5 89.64,8.2 458.96,71.4 763.04,566.2 679.19,1105.1" /><path
         id="path206"
         style="fill:#565759;fill-opacity:1;fill-rule:nonzero;stroke:none"
         d="m 3351.17,10888.2 c 57.77,-661.3 -322.9,-1234.7 -850.25,-1280.8 -527.35,-46.1 -1001.67,452.7 -1059.44,1114 -57.76,661.4 322.91,1234.8 850.26,1280.9 527.34,46 1001.67,-452.7 1059.43,-1114.1" /><path
         id="path208"
         style="fill:#656769;fill-opacity:1;fill-rule:nonzero;stroke:none"
         d="m 2552.99,9735.7 c -478.42,-41.8 -909.17,415.6 -962.1,1021.6 -52.93,606.1 292,1131.2 770.41,1173 478.43,41.8 909.17,-415.6 962.1,-1021.6 52.94,-606 -291.99,-1131.2 -770.41,-1173 z m -261.25,2266.6 c -527.35,-46.1 -908.02,-619.5 -850.26,-1280.9 57.77,-661.3 532.09,-1160.1 1059.44,-1114 527.35,46.1 908.02,619.5 850.25,1280.8 -57.76,661.4 -532.09,1160.1 -1059.43,1114.1" /><path
         id="path210"
         style="fill:#3c3c3d;fill-opacity:1;fill-rule:nonzero;stroke:none"
         d="m 2291.74,12002.3 c -46.34,-4.1 -91.48,-12.4 -135.36,-24.3 471.01,-43.7 872.54,-525.1 926.7,-1145.2 47.27,-541.2 -184.41,-1024.1 -547.43,-1221.2 509.17,67.6 872.01,630 815.52,1276.6 -57.76,661.4 -532.09,1160.1 -1059.43,1114.1" /><path
         id="path212"
         style="fill:#b36138;fill-opacity:1;fill-rule:nonzero;stroke:none"
         d="m 8471.41,8552.6 -54.85,19.8 v 0 l -219.43,102.1 v 0 c 0,0 -462.66,127.2 -429.72,127.8 2.24,0 4.5,0.1 6.8,0.1 166.91,0 496.06,-100.5 496.06,-100.5 0,0 94.47,-9.1 109.72,-24.3 15.24,-15.2 91.42,-125 91.42,-125" /><path
         id="path214"
         style="fill:#b36138;fill-opacity:1;fill-rule:nonzero;stroke:none"
         d="m 8600.69,7774.4 c -3.75,0 -6.77,0.8 -8.89,2.6 -16.76,13.7 56.37,92.9 82.28,147.8 25.9,54.8 41.15,228.2 41.15,228.2 0,0 51.81,-136.8 9.13,-243.4 -37.26,-93.2 -97.79,-135.2 -123.67,-135.2" /><path
         id="path216"
         style="fill:#ffffff;fill-opacity:1;fill-rule:nonzero;stroke:none"
         d="m 8377.05,6795.1 c 21.36,-42.8 68.87,-135.5 89.79,-156.4 27.43,-27.4 173.72,-32 173.72,-32 0,0 82.28,77.7 150.86,118.8 68.57,41.2 96,41.2 96,54.9 0,1.1 0.25,6.4 0.73,15.3 -237.66,-44 -424.88,-18.4 -511.1,-0.6" /><path
         id="path218"
         style="fill:#100f0d;fill-opacity:1;fill-rule:nonzero;stroke:none"
         d="m 6574.05,9198.7 c 0,0 -210.07,258.3 -262.64,294.9 -52.58,36.5 -464.83,41.1 -464.83,41.1 0,0 277.39,54.9 393.97,50.3 116.57,-4.6 256,-130.3 288,-132.6 32,-2.3 80.76,-3.8 80.76,-3.8 l 58.67,-103.6 v -57.9 l -93.93,-88.4" /><path
         id="path220"
         style="fill:#707274;fill-opacity:1;fill-rule:nonzero;stroke:none"
         d="m 3634.82,7443.3 29.99,184 c 0,0 1263.73,85.7 1743.73,136 480,50.2 534.97,82.2 534.97,82.2 l 42.1,-700.3 c 0,0 -430.78,92.3 -1221.64,174.6 -790.86,82.3 -1129.15,123.5 -1129.15,123.5" /><path
         id="path222"
         style="fill:#707274;fill-opacity:1;fill-rule:nonzero;stroke:none"
         d="m 6609.31,7566.7 423.62,-1013.4 -121.9,-38.6 -695.3,630.5 393.58,421.5" /><path
         id="path224"
         style="fill:#c37140;fill-opacity:1;fill-rule:nonzero;stroke:none"
         d="m 3704.21,10646.5 c 0,0 -22.41,99 34.8,126.9 57.22,28 120.89,87.1 135.26,132.7 14.37,45.6 27.73,155.4 15.97,185 -11.76,29.5 -124.12,90.1 -134.22,83.1 -10.09,-7 4.1,-56.3 22.07,-82.2 17.97,-26 17.97,-26 17.97,-26 l -9.75,-68.2 c 0,0 -91.93,-11 -141.23,-24.5 -49.3,-13.5 -110.59,-42 -116.67,-42.5 -6.07,-0.5 -178.41,-29.2 -178.41,-29.2 l 21.35,-244.4 56.78,-115.9 276.08,105.2" /><path
         id="path226"
         style="fill:#dfdfdd;fill-opacity:1;fill-rule:nonzero;stroke:none"
         d="m 911.531,10539.1 c 4.11,-47 -26.965,-88.1 -69.414,-91.8 -42.437,-3.8 -80.179,31.4 -84.289,78.4 -4.105,47 26.973,88.2 69.414,91.9 42.446,3.7 80.18,-31.4 84.289,-78.5" /><path
         id="path228"
         style="fill:#3c3c3d;fill-opacity:1;fill-rule:nonzero;stroke:none"
         d="m 2544.06,10829.7 c 9.08,-104 -54.92,-194.5 -142.95,-202.2 -88.03,-7.7 -166.75,70.4 -175.84,174.3 -9.07,104 54.93,194.5 142.96,202.2 88.02,7.7 166.75,-70.4 175.83,-174.3" /><path
         id="path230"
         style="fill:#3c3c3d;fill-opacity:1;fill-rule:nonzero;stroke:none"
         d="m 7729.36,11741.5 c 13.33,-152.6 -77.82,-285.2 -203.57,-296.2 -125.76,-11 -238.51,103.8 -251.84,256.4 -13.33,152.6 77.81,285.2 203.57,296.2 125.76,11 238.51,-103.8 251.84,-256.4" /><path
         id="path232"
         style="fill:#bbbab8;fill-opacity:1;fill-rule:nonzero;stroke:none"
         d="m 7482.89,11792.9 c 0,0 51.28,-5.7 67.67,-53.3 16.38,-47.5 -8.11,-99.2 -8.11,-99.2 l -762.64,-135.8 -28.59,159.1 731.67,129.2" /><path
         id="path234"
         style="fill:#bbbab8;fill-opacity:1;fill-rule:nonzero;stroke:none"
         d="m 2358.71,10888 c 0,0 35.8,-9.8 58.41,-58.5 22.61,-48.7 -24.38,-106.1 -24.38,-106.1 l -1098.28,-192.5 39.55,176.2 1024.7,180.9" /><path
         id="path236"
         style="fill:#c37140;fill-opacity:1;fill-rule:nonzero;stroke:none"
         d="m 6300.25,11584.1 c 0,0 49.13,59.8 82.66,64.7 33.52,4.8 51.81,0 51.81,0 0,0 33.09,21.5 61.5,17 28.4,-4.6 46.69,-27.5 46.69,-27.5 l 51.81,10.5 c 0,0 67.04,-2.9 74.66,-8.9 7.62,-6.1 36.58,-108.2 25.91,-120.4 -10.67,-12.2 -39.62,0 -39.62,0 0,0 -7.58,-38.3 -33.74,-43 -26.16,-4.7 -34.83,21.6 -34.83,21.6 0,0 -13.72,-30.2 -35.64,-34.2 -21.92,-3.9 -41.67,22 -41.67,22 0,0 -18.69,-46.8 -40.02,-31.8 -21.34,15.1 -85.61,104.7 -85.61,104.7 l -35.08,33.9 -48.83,-8.6" /><path
         id="path238"
         style="fill:#a45532;fill-opacity:1;fill-rule:nonzero;stroke:none"
         d="m 3971.8,9715.2 c 0,0 -9.14,83.9 -30.48,175.3 -21.33,91.4 -214.22,598.5 -237.71,701 l 50.71,143.2 c 0,0 132.14,-438.9 196.15,-618.7 64,-179.8 21.33,-400.8 21.33,-400.8" /><path
         id="path240"
         style="fill:#c19983;fill-opacity:1;fill-rule:nonzero;stroke:none"
         d="m 4621.58,10705.8 c -4.17,9.7 -8.46,19.4 -12.85,29 1.05,0 1.59,-0.1 1.59,-0.1 l 11.26,-28.9" /><path
         id="path242"
         style="fill:#b36138;fill-opacity:1;fill-rule:nonzero;stroke:none"
         d="m 4011.42,10591.5 c 0,0 220.24,137.2 356.98,143.2 45.58,2.1 87.65,2.7 123.49,2.7 63.98,0 108.09,-2.1 116.84,-2.6 4.39,-9.6 8.68,-19.3 12.85,-29 l 31.3,-80.4 c 0,0 -109.08,30.1 -221.68,30.1 -34.99,0 -70.31,-2.9 -102.82,-10.6 -137.15,-32.1 -316.96,-53.4 -316.96,-53.4" /><path
         id="path244"
         style="fill:#bbbab8;fill-opacity:1;fill-rule:nonzero;stroke:none"
         d="m 6574.05,9198.7 c -14.31,11 35.26,249.9 35.26,249.9 0,0 82.29,225.5 423.62,237.7 341.34,12.2 377.91,-268.2 377.91,-268.2 0,0 -310.52,-396.2 -469.34,-432.7 -158.81,-36.6 -292.57,-48.8 -332.19,-42.7 -39.62,6.1 -35.26,256 -35.26,256" /><path
         id="path246"
         style="fill:#959595;fill-opacity:1;fill-rule:nonzero;stroke:none"
         d="m 6569.69,9056.8 c 0,32.2 237.72,263.8 451.05,324.8 213.34,60.9 390.1,36.5 390.1,36.5 l -755.82,-1389.7 -182.85,743.6 97.52,284.8" /><path
         id="path248"
         style="fill:#c37140;fill-opacity:1;fill-rule:nonzero;stroke:none"
         d="m 6057.69,9223.1 c 0,0 -182.86,-140.2 -207.24,-286.5 -24.38,-146.3 73.14,-460.2 103.62,-542.5 30.48,-82.3 140.19,-86.8 140.19,-86.8 0,0 -137.14,-260.6 -155.43,-507.5 -18.28,-246.8 45.72,-571.4 73.15,-914.3 27.42,-342.8 24.38,-646.1 24.38,-646.1 l 57.9,-94.4 82.29,42.6 c 0,0 51.81,125 94.48,149.4 42.66,24.4 146.28,30.5 146.28,30.5 0,0 6.1,383.9 85.34,594.2 79.23,210.3 182.85,460.2 192,710.1 9.14,249.9 0,490.7 0,527.3 0,36.5 79.23,207.2 85.33,256 6.09,48.7 0,128 0,128 0,0 60.27,231.6 2.71,365.7 -57.57,134.1 -234.33,292.6 -337.95,326.1 -103.62,33.5 -336.22,-7.7 -387.05,-51.8" /><path
         id="path250"
         style="fill:#ffffff;fill-opacity:1;fill-rule:nonzero;stroke:none"
         d="m 6036.23,6320.1 c 0.43,-51.1 0.13,-80.7 0.13,-80.7 l 57.9,-94.4 82.29,42.6 c 0,0 16.83,40.6 39.18,80 -73.23,15.3 -132.97,34.4 -179.5,52.5" /><path
         id="path252"
         style="fill:#c37140;fill-opacity:1;fill-rule:nonzero;stroke:none"
         d="m 6474.34,11231 c 0,0 -10.22,-214.1 -27.3,-343.6 h 316.57 c -4.83,158.6 -10.89,296.1 -12.39,301.4 -2.6,9.1 42.18,317.3 -11.33,308.7 -72.45,-11.6 -236.95,-42.2 -243.68,-43.4 -6.72,-1.2 -26.44,0 -26.44,0 0,0 -16.77,79.1 -28.96,95.8 -12.19,16.8 -33.52,27.5 -48.76,26 -15.24,-1.6 -16.49,-143.3 -16.49,-143.3 l -153.23,-27.3 c 0,0 130.1,-115.9 159.05,-137.3 28.95,-21.3 92.96,-37 92.96,-37" /><path
         id="path254"
         style="fill:#cda289;fill-opacity:1;fill-rule:nonzero;stroke:none"
         d="m 6237.53,11408 v 0 0 m 0,0 c 0.67,0.2 138.03,24.6 138.03,24.6 l -130.06,-23.1 -7.82,-1.4 c -0.02,0 -0.03,0 -0.05,0 -0.06,0 -0.09,0 -0.1,-0.1" /><path
         id="path256"
         style="fill:#b36138;fill-opacity:1;fill-rule:nonzero;stroke:none"
         d="m 6245.5,11409.5 130.06,23.1 v 0 0 c 0,0 0,0 0,0 l -130.06,-23.1" /><path
         id="path258"
         style="fill:#b36138;fill-opacity:1;fill-rule:nonzero;stroke:none"
         d="m 6460.62,11329 c 0,0 -39.62,10.7 -111.54,45.7 -61.05,29.8 -95.55,33.6 -107.31,33.6 -2.05,0 -3.41,-0.1 -4.09,-0.2 l 7.82,1.4 130.06,23.1 c 0,0 0,0 0,0 0.01,0 80.49,-102.1 85.06,-103.6" /><path
         id="path260"
         style="fill:#e9eef1;fill-opacity:1;fill-rule:nonzero;stroke:none"
         d="m 4424.32,11085.2 c 0,0 312.89,34.1 394.66,24.9 81.77,-9.1 386.26,98.7 422.21,107.2 35.94,8.5 123.14,35.3 123.14,35.3 l -940.01,-167.4" /><path
         id="path262"
         style="fill:#9c725b;fill-opacity:1;fill-rule:nonzero;stroke:none"
         d="m 4448.4,10154.8 -66.52,78.9 c 16.83,-8.7 59.15,-27.4 108.69,-27.4 6.43,0 12.98,0.3 19.62,1 -27.73,-24.8 -51.41,-42.4 -61.79,-52.5" /><path
         id="path264"
         style="fill:#ad836b;fill-opacity:1;fill-rule:nonzero;stroke:none"
         d="m 4443.08,10145.9 c -4.92,5.3 -55.07,58.9 -68.99,92 v 0 0 c 0,0 2.76,-1.6 7.79,-4.2 l 66.52,-78.9 c -4.42,-4.3 -6.43,-7.3 -5.32,-8.9" /><path
         id="path266"
         style="fill:#c19983;fill-opacity:1;fill-rule:nonzero;stroke:none"
         d="m 4443.47,10145.5 v 0 0 c 0,0 -0.13,0.2 -0.39,0.4 -1.11,1.6 0.9,4.6 5.32,8.9 10.38,10.1 34.06,27.7 61.79,52.5 36.97,3.9 76.48,19.5 111.67,57.9 -25.03,-28.1 -95.05,-99.2 -178.39,-119.7" /><path
         id="path268"
         style="fill:#b36138;fill-opacity:1;fill-rule:nonzero;stroke:none"
         d="m 4490.57,10206.3 c -49.54,0 -91.86,18.7 -108.69,27.4 -5.03,2.6 -7.79,4.2 -7.79,4.2 v 0 c -14.65,34.9 70.38,59.6 70.38,59.6 0,0 34.57,6.6 61.37,6.6 13.4,0 24.86,-1.7 29.09,-6.6 12.69,-14.8 96.78,-20.8 96.78,-20.8 0,0 -3.46,-4.3 -9.85,-11.5 -35.19,-38.4 -74.7,-54 -111.67,-57.9 -6.64,-0.7 -13.19,-1 -19.62,-1" /><path
         id="path270"
         style="fill:#a45532;fill-opacity:1;fill-rule:nonzero;stroke:none"
         d="m 4374.09,10237.9 c 0,0 40.31,167.4 48.77,178 8.46,10.6 79.19,55 79.19,55 0,0 -43.24,-106.1 -47.47,-116.5 -4.23,-10.4 -11.11,-208.9 -11.11,-208.9 0,0 -54.72,56.2 -69.38,92.4" /><path
         id="path272"
         style="fill:#c2c7ca;fill-opacity:1;fill-rule:nonzero;stroke:none"
         d="m 4610.32,10734.7 c 0,0 180.31,2.6 284,11.1 103.7,8.4 224.22,44.4 224.22,44.4 0,0 -88.8,-76.2 -190.3,-114.2 -101.5,-38.1 -101.5,-38.1 -101.5,-38.1 l -173.86,-12.5 -42.56,109.3" /></g></g></svg>